Start;Duration;Pitch;Velocity;Instrument
001.706;000.037;57;000.422;MIDI 01
001.831;000.054;59;000.500;MIDI 01
001.969;000.046;61;000.539;MIDI 01
002.109;000.040;59;000.508;MIDI 01
002.249;000.048;57;000.531;MIDI 01
002.379;000.049;61;000.570;MIDI 01
002.543;000.055;59;000.547;MIDI 01
002.681;000.073;62;000.547;MIDI 01
002.862;000.408;61;000.578;MIDI 01
003.340;000.085;64;000.492;MIDI 01
003.513;000.518;62;000.625;MIDI 01
004.013;000.043;66;000.547;MIDI 01
004.159;000.051;64;000.586;MIDI 01
004.300;000.034;62;000.570;MIDI 01
004.448;000.043;64;000.539;MIDI 01
004.584;000.035;59;000.602;MIDI 01
004.741;000.045;61;000.594;MIDI 01
004.884;000.042;62;000.523;MIDI 01
005.042;000.184;61;000.484;MIDI 01
005.348;000.057;64;000.305;MIDI 01
005.357;000.119;57;000.352;MIDI 01
005.487;000.046;66;000.461;MIDI 01
005.642;000.044;68;000.461;MIDI 01
005.651;000.133;59;000.352;MIDI 01
005.789;000.032;66;000.484;MIDI 01
005.939;000.037;64;000.438;MIDI 01
006.076;000.047;68;000.477;MIDI 01
005.956;000.171;61;000.328;MIDI 01
006.225;000.046;66;000.469;MIDI 01
006.257;000.140;62;000.336;MIDI 01
006.372;000.040;69;000.523;MIDI 01
006.553;000.047;59;000.359;MIDI 01
006.681;000.036;64;000.422;MIDI 01
006.525;000.317;68;000.516;MIDI 01
006.838;000.168;61;000.461;MIDI 01
006.980;000.039;71;000.531;MIDI 01
007.142;000.043;66;000.406;MIDI 01
007.279;000.046;61;000.453;MIDI 01
007.134;000.316;69;000.586;MIDI 01
007.432;000.180;63;000.500;MIDI 01
007.583;000.051;73;000.547;MIDI 01
007.727;000.046;71;000.578;MIDI 01
007.894;000.040;69;000.570;MIDI 01
008.028;000.066;71;000.594;MIDI 01
007.751;000.442;64;000.508;MIDI 01
008.173;000.043;66;000.570;MIDI 01
008.323;000.054;68;000.562;MIDI 01
008.339;000.082;63;000.461;MIDI 01
008.472;000.034;69;000.555;MIDI 01
008.632;000.069;68;000.539;MIDI 01
008.790;000.040;71;000.570;MIDI 01
008.635;000.319;64;000.500;MIDI 01
008.934;000.042;69;000.586;MIDI 01
009.077;000.042;68;000.555;MIDI 01
009.100;000.059;59;000.352;MIDI 01
009.229;000.042;69;000.539;MIDI 01
009.231;000.054;61;000.477;MIDI 01
009.379;000.034;64;000.461;MIDI 01
009.519;000.049;66;000.508;MIDI 01
009.529;000.049;57;000.375;MIDI 01
009.672;000.047;67;000.469;MIDI 01
009.814;000.061;66;000.508;MIDI 01
009.984;000.031;69;000.469;MIDI 01
009.816;000.332;62;000.406;MIDI 01
010.113;000.053;68;000.492;MIDI 01
010.252;000.046;66;000.508;MIDI 01
010.261;000.052;57;000.406;MIDI 01
010.426;000.029;59;000.445;MIDI 01
010.424;000.033;68;000.430;MIDI 01
010.552;000.033;63;000.453;MIDI 01
010.702;000.038;64;000.422;MIDI 01
010.729;000.057;56;000.359;MIDI 01
010.850;000.040;66;000.445;MIDI 01
011.030;000.058;61;000.281;MIDI 01
011.164;000.036;62;000.406;MIDI 01
011.289;000.039;61;000.430;MIDI 01
011.312;000.046;69;000.500;MIDI 01
011.445;000.022;59;000.438;MIDI 01
011.453;000.044;71;000.508;MIDI 01
010.999;000.501;64;000.383;MIDI 01
011.607;000.062;73;000.484;MIDI 01
011.753;000.044;71;000.492;MIDI 01
011.605;000.300;57;000.422;MIDI 01
011.891;000.050;69;000.492;MIDI 01
011.894;000.052;66;000.461;MIDI 01
012.041;000.047;73;000.500;MIDI 01
012.046;000.049;57;000.414;MIDI 01
012.190;000.065;71;000.406;MIDI 01
012.348;000.053;74;000.523;MIDI 01
012.186;000.232;68;000.484;MIDI 01
012.192;000.331;64;000.461;MIDI 01
012.648;000.051;68;000.500;MIDI 01
012.683;000.032;52;000.391;MIDI 01
012.503;000.302;73;000.586;MIDI 01
012.970;000.052;76;000.578;MIDI 01
012.822;000.230;69;000.453;MIDI 01
012.824;000.409;54;000.453;MIDI 01
013.285;000.033;66;000.477;MIDI 01
013.268;000.079;69;000.562;MIDI 01
013.131;000.280;74;000.625;MIDI 01
013.604;000.047;78;000.570;MIDI 01
013.456;000.341;71;000.500;MIDI 01
013.750;000.072;76;000.625;MIDI 01
013.894;000.046;74;000.641;MIDI 01
013.426;000.674;68;000.516;MIDI 01
014.042;000.067;76;000.641;MIDI 01
014.184;000.030;71;000.594;MIDI 01
014.331;000.036;73;000.570;MIDI 01
014.341;000.058;68;000.383;MIDI 01
014.340;000.062;64;000.383;MIDI 01
014.468;000.029;74;000.609;MIDI 01
014.625;000.054;73;000.562;MIDI 01
014.632;000.059;69;000.469;MIDI 01
014.641;000.123;57;000.398;MIDI 01
014.777;000.037;74;000.602;MIDI 01
014.921;000.059;76;000.664;MIDI 01
014.930;000.127;68;000.453;MIDI 01
014.925;000.163;59;000.445;MIDI 01
015.064;000.058;78;000.625;MIDI 01
015.231;000.050;69;000.414;MIDI 01
015.218;000.069;76;000.672;MIDI 01
015.223;000.189;61;000.484;MIDI 01
015.369;000.046;81;000.594;MIDI 01
015.518;000.045;80;000.570;MIDI 01
015.540;000.027;71;000.438;MIDI 01
015.535;000.146;63;000.414;MIDI 01
015.675;000.029;71;000.398;MIDI 01
015.667;000.040;78;000.516;MIDI 01
015.830;000.061;80;000.523;MIDI 01
015.832;000.111;64;000.453;MIDI 01
015.961;000.058;78;000.539;MIDI 01
015.821;000.244;71;000.477;MIDI 01
016.129;000.045;52;000.453;MIDI 01
016.124;000.059;76;000.469;MIDI 01
016.273;000.044;54;000.469;MIDI 01
016.276;000.047;75;000.523;MIDI 01
016.427;000.033;56;000.492;MIDI 01
016.573;000.033;54;000.461;MIDI 01
016.574;000.036;69;000.445;MIDI 01
016.714;000.033;52;000.484;MIDI 01
016.721;000.035;68;000.484;MIDI 01
016.856;000.032;56;000.523;MIDI 01
016.853;000.045;71;000.508;MIDI 01
016.999;000.032;54;000.516;MIDI 01
017.003;000.051;69;000.469;MIDI 01
017.134;000.034;57;000.484;MIDI 01
017.167;000.023;66;000.406;MIDI 01
016.432;000.905;76;000.500;MIDI 01
017.317;000.158;71;000.438;MIDI 01
017.451;000.052;75;000.477;MIDI 01
017.292;000.371;56;000.516;MIDI 01
017.757;000.051;59;000.500;MIDI 01
017.755;000.055;68;000.469;MIDI 01
017.611;000.295;76;000.516;MIDI 01
017.911;000.074;73;000.562;MIDI 01
018.064;000.080;75;000.531;MIDI 01
017.906;000.386;57;000.594;MIDI 01
018.376;000.032;61;000.539;MIDI 01
018.217;000.216;76;000.633;MIDI 01
018.519;000.034;59;000.508;MIDI 01
018.654;000.033;57;000.523;MIDI 01
018.656;000.061;73;000.547;MIDI 01
018.828;000.041;59;000.477;MIDI 01
018.954;000.054;54;000.547;MIDI 01
018.517;000.577;66;000.547;MIDI 01
019.105;000.044;56;000.609;MIDI 01
019.249;000.035;57;000.586;MIDI 01
019.250;000.056;66;000.539;MIDI 01
018.808;000.510;74;000.539;MIDI 01
019.394;000.058;56;000.578;MIDI 01
019.546;000.054;59;000.562;MIDI 01
019.691;000.048;57;000.602;MIDI 01
019.847;000.046;56;000.570;MIDI 01
019.851;000.049;72;000.508;MIDI 01
020.012;000.038;57;000.422;MIDI 01
019.396;000.780;64;000.531;MIDI 01
020.143;000.046;52;000.523;MIDI 01
020.298;000.041;54;000.570;MIDI 01
020.448;000.029;56;000.523;MIDI 01
020.443;000.044;64;000.508;MIDI 01
020.609;000.035;54;000.453;MIDI 01
020.006;000.741;73;000.508;MIDI 01
020.738;000.036;57;000.523;MIDI 01
020.892;000.033;56;000.539;MIDI 01
021.044;000.024;54;000.453;MIDI 01
021.040;000.053;70;000.469;MIDI 01
021.201;000.043;56;000.484;MIDI 01
021.341;000.049;51;000.492;MIDI 01
020.601;000.826;63;000.453;MIDI 01
021.484;000.054;53;000.500;MIDI 01
021.192;000.406;71;000.461;MIDI 01
021.617;000.048;62;000.453;MIDI 01
021.644;000.034;54;000.398;MIDI 01
021.792;000.067;53;000.336;MIDI 01
021.953;000.094;65;000.344;MIDI 01
021.929;000.128;49;000.320;MIDI 01
022.097;000.046;51;000.289;MIDI 01
022.099;000.118;66;000.375;MIDI 01
022.244;000.118;68;000.406;MIDI 01
022.221;000.157;53;000.352;MIDI 01
021.779;000.697;61;000.391;MIDI 01
022.399;000.151;69;000.414;MIDI 01
022.403;000.239;54;000.336;MIDI 01
022.538;000.130;68;000.461;MIDI 01
022.717;000.083;66;000.414;MIDI 01
022.719;000.103;63;000.414;MIDI 01
022.845;000.042;54;000.336;MIDI 01
022.871;000.074;69;000.391;MIDI 01
023.006;000.106;68;000.398;MIDI 01
023.012;000.256;65;000.391;MIDI 01
023.181;000.096;71;000.383;MIDI 01
023.015;000.340;61;000.414;MIDI 01
023.486;000.025;65;000.406;MIDI 01
023.476;000.056;49;000.438;MIDI 01
023.346;000.232;69;000.477;MIDI 01
023.795;000.094;73;000.508;MIDI 01
023.657;000.307;66;000.469;MIDI 01
023.661;000.377;50;000.328;MIDI 01
024.109;000.044;51;000.406;MIDI 01
024.114;000.076;66;000.469;MIDI 01
023.949;000.272;71;000.539;MIDI 01
024.432;000.093;74;000.477;MIDI 01
024.281;000.347;52;000.469;MIDI 01
024.289;000.372;68;000.398;MIDI 01
024.585;000.136;73;000.539;MIDI 01
024.740;000.045;56;000.414;MIDI 01
024.733;000.057;71;000.516;MIDI 01
024.870;000.034;53;000.453;MIDI 01
024.875;000.131;73;000.531;MIDI 01
025.023;000.080;68;000.492;MIDI 01
025.188;000.137;69;000.492;MIDI 01
025.329;000.036;71;000.477;MIDI 01
025.180;000.508;49;000.531;MIDI 01
025.659;000.169;68;000.516;MIDI 01
025.485;000.400;54;000.516;MIDI 01
025.815;000.079;66;000.570;MIDI 01
025.945;000.041;56;000.562;MIDI 01
025.950;000.083;65;000.516;MIDI 01
026.113;000.044;57;000.578;MIDI 01
026.098;000.066;66;000.516;MIDI 01
026.238;000.047;61;000.547;MIDI 01
026.420;000.033;54;000.570;MIDI 01
026.409;000.074;63;000.547;MIDI 01
025.505;001.042;69;000.477;MIDI 01
026.547;000.056;64;000.539;MIDI 01
026.873;000.093;73;000.500;MIDI 01
027.036;000.069;71;000.539;MIDI 01
026.716;000.408;47;000.617;MIDI 01
027.186;000.054;49;000.555;MIDI 01
027.184;000.058;69;000.570;MIDI 01
027.331;000.039;51;000.641;MIDI 01
027.340;000.070;71;000.531;MIDI 01
027.482;000.061;66;000.516;MIDI 01
026.729;000.845;63;000.453;MIDI 01
027.643;000.041;47;000.570;MIDI 01
027.645;000.046;68;000.461;MIDI 01
027.776;000.042;69;000.484;MIDI 01
028.094;000.161;56;000.461;MIDI 01
027.927;000.358;52;000.422;MIDI 01
028.245;000.175;61;000.484;MIDI 01
028.387;000.148;63;000.484;MIDI 01
028.379;000.160;51;000.375;MIDI 01
028.541;000.141;64;000.453;MIDI 01
028.557;000.243;49;000.406;MIDI 01
028.693;000.114;63;000.539;MIDI 01
028.848;000.076;61;000.570;MIDI 01
028.979;000.054;61;000.398;MIDI 01
028.986;000.066;64;000.570;MIDI 01
029.149;000.033;60;000.406;MIDI 01
029.140;000.058;63;000.547;MIDI 01
027.962;001.299;68;000.398;MIDI 01
029.272;000.059;66;000.555;MIDI 01
029.284;000.050;56;000.453;MIDI 01
029.464;000.051;61;000.492;MIDI 01
029.589;000.041;59;000.438;MIDI 01
029.564;000.109;68;000.508;MIDI 01
029.423;000.289;64;000.570;MIDI 01
029.740;000.062;57;000.438;MIDI 01
029.716;000.199;73;000.578;MIDI 01
029.878;000.037;56;000.500;MIDI 01
029.872;000.111;68;000.555;MIDI 01
030.029;000.035;57;000.523;MIDI 01
030.007;000.175;66;000.594;MIDI 01
030.150;000.042;54;000.523;MIDI 01
030.161;000.199;75;000.539;MIDI 01
030.491;000.081;69;000.523;MIDI 01
030.330;000.246;72;000.500;MIDI 01
030.322;000.328;56;000.539;MIDI 01
030.639;000.140;68;000.570;MIDI 01
030.777;000.039;51;000.547;MIDI 01
030.790;000.064;66;000.594;MIDI 01
030.948;000.064;48;000.500;MIDI 01
030.933;000.147;68;000.562;MIDI 01
031.075;000.052;63;000.570;MIDI 01
031.230;000.031;44;000.594;MIDI 01
031.233;000.092;64;000.617;MIDI 01
031.381;000.091;66;000.562;MIDI 01
030.933;000.543;75;000.609;MIDI 01
031.540;000.189;64;000.570;MIDI 01
031.697;000.090;72;000.547;MIDI 01
031.844;000.081;73;000.570;MIDI 01
031.996;000.037;75;000.547;MIDI 01
031.994;000.078;56;000.586;MIDI 01
032.144;000.066;73;000.570;MIDI 01
032.152;000.084;58;000.641;MIDI 01
032.288;000.074;78;000.594;MIDI 01
032.434;000.066;76;000.664;MIDI 01
032.439;000.091;60;000.586;MIDI 01
032.582;000.061;75;000.656;MIDI 01
031.542;001.126;49;000.633;MIDI 01
032.755;000.045;61;000.516;MIDI 01
032.895;000.040;63;000.594;MIDI 01
033.049;000.043;61;000.641;MIDI 01
033.181;000.048;60;000.641;MIDI 01
033.348;000.036;61;000.625;MIDI 01
033.506;000.051;56;000.625;MIDI 01
033.659;000.043;58;000.641;MIDI 01
033.804;000.038;59;000.562;MIDI 01
032.729;001.389;76;000.641;MIDI 01
034.170;000.058;79;000.359;MIDI 01
034.028;000.286;58;000.336;MIDI 01
034.311;000.051;78;000.453;MIDI 01
034.447;000.040;76;000.492;MIDI 01
034.469;000.040;61;000.367;MIDI 01
034.602;000.042;58;000.398;MIDI 01
034.608;000.045;78;000.492;MIDI 01
034.753;000.038;73;000.477;MIDI 01
034.901;000.042;54;000.398;MIDI 01
034.899;000.046;74;000.477;MIDI 01
035.027;000.026;76;000.500;MIDI 01
035.367;000.097;73;000.531;MIDI 01
035.196;000.286;59;000.352;MIDI 01
035.525;000.043;71;000.555;MIDI 01
035.667;000.035;54;000.477;MIDI 01
035.660;000.045;70;000.602;MIDI 01
035.219;000.579;74;000.477;MIDI 01
035.805;000.062;71;000.578;MIDI 01
035.822;000.048;50;000.461;MIDI 01
035.948;000.041;66;000.555;MIDI 01
036.118;000.029;47;000.500;MIDI 01
036.114;000.045;68;000.547;MIDI 01
036.245;000.049;69;000.586;MIDI 01
035.802;000.498;74;000.125;MIDI 01
036.591;000.035;78;000.336;MIDI 01
036.419;000.341;52;000.422;MIDI 01
036.721;000.039;76;000.477;MIDI 01
036.422;000.382;68;000.430;MIDI 01
036.862;000.043;47;000.445;MIDI 01
036.865;000.048;74;000.516;MIDI 01
037.026;000.034;44;000.477;MIDI 01
037.029;000.033;76;000.523;MIDI 01
037.176;000.045;71;000.484;MIDI 01
037.341;000.029;40;000.398;MIDI 01
037.339;000.077;73;000.477;MIDI 01
037.474;000.049;74;000.516;MIDI 01
037.642;000.046;73;000.500;MIDI 01
037.652;000.044;69;000.320;MIDI 01
037.636;000.135;33;000.555;MIDI 01
037.794;000.049;74;000.477;MIDI 01
037.791;000.054;40;000.531;MIDI 01
037.941;000.062;45;000.477;MIDI 01
037.947;000.058;73;000.500;MIDI 01
038.081;000.049;47;000.594;MIDI 01
038.076;000.058;71;000.492;MIDI 01
038.244;000.044;49;000.609;MIDI 01
038.246;000.042;69;000.469;MIDI 01
038.391;000.044;47;000.625;MIDI 01
038.393;000.059;68;000.461;MIDI 01
038.542;000.049;45;000.625;MIDI 01
038.539;000.054;66;000.523;MIDI 01
038.683;000.043;49;000.609;MIDI 01
038.680;000.048;64;000.500;MIDI 01
038.834;000.041;47;000.609;MIDI 01
038.852;000.060;62;000.477;MIDI 01
038.983;000.034;50;000.555;MIDI 01
038.993;000.059;66;000.438;MIDI 01
039.150;000.080;68;000.461;MIDI 01
039.300;000.064;71;000.469;MIDI 01
039.473;000.052;64;000.453;MIDI 01
039.146;000.383;49;000.633;MIDI 01
039.589;000.073;52;000.555;MIDI 01
039.615;000.049;68;000.516;MIDI 01
039.776;000.071;70;000.531;MIDI 01
039.921;000.070;73;000.555;MIDI 01
039.756;000.411;50;000.625;MIDI 01
040.218;000.048;54;000.578;MIDI 01
040.369;000.049;52;000.609;MIDI 01
040.506;000.047;51;000.586;MIDI 01
040.071;000.511;71;000.586;MIDI 01
040.502;000.086;66;000.578;MIDI 01
040.669;000.061;52;000.531;MIDI 01
040.817;000.073;47;000.594;MIDI 01
040.970;000.060;49;000.656;MIDI 01
041.114;000.044;50;000.609;MIDI 01
041.118;000.062;71;000.547;MIDI 01
040.663;000.646;67;000.547;MIDI 01
041.274;000.064;49;000.648;MIDI 01
041.424;000.064;52;000.609;MIDI 01
041.572;000.042;50;000.609;MIDI 01
041.723;000.044;49;000.578;MIDI 01
041.737;000.059;65;000.508;MIDI 01
041.280;000.525;69;000.570;MIDI 01
041.894;000.040;50;000.453;MIDI 01
042.042;000.056;45;000.570;MIDI 01
042.188;000.051;47;000.578;MIDI 01
042.345;000.036;49;000.516;MIDI 01
042.359;000.054;69;000.453;MIDI 01
041.886;000.543;66;000.516;MIDI 01
042.494;000.049;47;000.523;MIDI 01
042.656;000.035;50;000.453;MIDI 01
042.806;000.035;49;000.469;MIDI 01
042.936;000.036;47;000.422;MIDI 01
042.943;000.090;63;000.391;MIDI 01
043.130;000.040;49;000.414;MIDI 01
042.505;000.699;68;000.445;MIDI 01
043.258;000.032;44;000.492;MIDI 01
043.400;000.042;46;000.531;MIDI 01
043.548;000.044;47;000.461;MIDI 01
043.114;000.515;64;000.406;MIDI 01
043.566;000.131;67;000.406;MIDI 01
043.728;000.057;46;000.398;MIDI 01
043.872;000.050;42;000.414;MIDI 01
044.025;000.034;44;000.461;MIDI 01
044.036;000.046;62;000.375;MIDI 01
043.721;000.378;66;000.430;MIDI 01
044.174;000.047;46;000.414;MIDI 01
044.176;000.056;61;000.422;MIDI 01
044.326;000.055;59;000.422;MIDI 01
044.337;000.047;44;000.336;MIDI 01
044.453;000.045;49;000.406;MIDI 01
044.484;000.046;58;000.438;MIDI 01
044.634;000.043;56;000.414;MIDI 01
044.782;000.036;54;000.383;MIDI 01
044.772;000.056;46;000.391;MIDI 01
044.884;000.071;47;000.391;MIDI 01
044.929;000.068;62;000.336;MIDI 01
045.062;000.070;61;000.453;MIDI 01
045.066;000.076;49;000.391;MIDI 01
045.214;000.055;50;000.430;MIDI 01
045.221;000.054;59;000.461;MIDI 01
044.922;000.483;66;000.406;MIDI 01
045.365;000.055;58;000.469;MIDI 01
045.390;000.033;52;000.391;MIDI 01
045.522;000.046;59;000.430;MIDI 01
045.527;000.047;50;000.352;MIDI 01
045.666;000.038;55;000.414;MIDI 01
045.654;000.054;64;000.438;MIDI 01
045.814;000.041;54;000.414;MIDI 01
045.806;000.050;62;000.461;MIDI 01
045.957;000.046;61;000.445;MIDI 01
045.959;000.052;52;000.445;MIDI 01
046.109;000.042;62;000.508;MIDI 01
046.134;000.085;54;000.359;MIDI 01
046.247;000.041;74;000.500;MIDI 01
046.260;000.058;56;000.453;MIDI 01
046.398;000.044;73;000.477;MIDI 01
046.411;000.039;57;000.383;MIDI 01
046.540;000.050;71;000.461;MIDI 01
046.538;000.054;59;000.484;MIDI 01
046.690;000.044;73;000.492;MIDI 01
046.693;000.046;57;000.344;MIDI 01
046.841;000.039;68;000.438;MIDI 01
046.845;000.036;62;000.352;MIDI 01
046.998;000.035;69;000.430;MIDI 01
046.983;000.052;61;000.414;MIDI 01
047.128;000.032;71;000.500;MIDI 01
047.130;000.162;59;000.414;MIDI 01
047.311;000.089;61;000.367;MIDI 01
047.440;000.052;73;000.523;MIDI 01
047.458;000.052;57;000.367;MIDI 01
047.596;000.040;74;000.555;MIDI 01
047.609;000.040;59;000.367;MIDI 01
047.732;000.044;61;000.500;MIDI 01
047.726;000.061;76;000.602;MIDI 01
047.293;000.508;69;000.484;MIDI 01
047.892;000.057;78;000.539;MIDI 01
048.038;000.052;76;000.586;MIDI 01
047.895;000.336;62;000.500;MIDI 01
048.204;000.036;71;000.500;MIDI 01
048.192;000.052;74;000.562;MIDI 01
048.325;000.040;50;000.445;MIDI 01
048.340;000.043;78;000.555;MIDI 01
048.498;000.150;76;000.492;MIDI 01
048.670;000.064;79;000.555;MIDI 01
048.533;000.211;73;000.477;MIDI 01
048.518;000.343;57;000.430;MIDI 01
048.953;000.034;58;000.336;MIDI 01
048.978;000.056;73;000.516;MIDI 01
048.812;000.261;78;000.609;MIDI 01
049.283;000.072;81;000.609;MIDI 01
049.127;000.348;74;000.578;MIDI 01
049.141;000.375;59;000.555;MIDI 01
049.595;000.027;47;000.477;MIDI 01
049.434;000.237;79;000.625;MIDI 01
049.591;000.111;75;000.555;MIDI 01
049.913;000.054;83;000.547;MIDI 01
049.758;000.344;48;000.523;MIDI 01
050.055;000.071;81;000.641;MIDI 01
049.756;000.491;76;000.516;MIDI 01
050.207;000.057;60;000.500;MIDI 01
050.203;000.062;80;000.641;MIDI 01
050.359;000.066;81;000.688;MIDI 01
050.519;000.104;76;000.633;MIDI 01
050.365;000.310;61;000.500;MIDI 01
050.666;000.059;78;000.609;MIDI 01
050.788;000.050;57;000.391;MIDI 01
050.804;000.050;79;000.594;MIDI 01
050.983;000.060;62;000.430;MIDI 01
051.127;000.051;61;000.391;MIDI 01
051.119;000.087;76;000.547;MIDI 01
051.258;000.045;74;000.539;MIDI 01
051.266;000.079;59;000.391;MIDI 01
050.970;000.384;78;000.617;MIDI 01
051.418;000.044;73;000.508;MIDI 01
051.420;000.046;57;000.406;MIDI 01
051.424;000.128;78;000.086;MIDI 01
051.566;000.054;74;000.484;MIDI 01
051.605;000.054;59;000.367;MIDI 01
051.705;000.043;69;000.484;MIDI 01
051.720;000.041;54;000.367;MIDI 01
051.870;000.042;56;000.422;MIDI 01
051.872;000.042;71;000.438;MIDI 01
052.023;000.050;57;000.383;MIDI 01
051.556;000.530;78;000.062;MIDI 01
051.993;000.099;73;000.523;MIDI 01
052.188;000.061;56;000.383;MIDI 01
052.321;000.043;57;000.430;MIDI 01
052.323;000.050;78;000.430;MIDI 01
052.465;000.042;76;000.555;MIDI 01
052.476;000.045;56;000.461;MIDI 01
052.165;000.495;71;000.367;MIDI 01
052.622;000.040;75;000.523;MIDI 01
052.631;000.035;54;000.445;MIDI 01
052.780;000.039;56;000.539;MIDI 01
052.772;000.074;76;000.539;MIDI 01
052.911;000.043;71;000.570;MIDI 01
052.922;000.050;59;000.484;MIDI 01
053.060;000.059;73;000.578;MIDI 01
053.072;000.058;57;000.477;MIDI 01
053.194;000.056;74;000.625;MIDI 01
053.221;000.042;56;000.477;MIDI 01
053.381;000.066;57;000.422;MIDI 01
053.503;000.057;71;000.516;MIDI 01
053.547;000.030;56;000.336;MIDI 01
053.654;000.048;69;000.508;MIDI 01
053.673;000.052;54;000.406;MIDI 01
053.359;000.384;73;000.594;MIDI 01
053.798;000.050;68;000.461;MIDI 01
053.809;000.045;52;000.453;MIDI 01
053.793;000.135;73;000.195;MIDI 01
053.960;000.034;69;000.398;MIDI 01
053.985;000.033;54;000.336;MIDI 01
054.092;000.042;64;000.430;MIDI 01
054.094;000.049;49;000.422;MIDI 01
054.248;000.041;51;000.469;MIDI 01
054.244;000.047;66;000.430;MIDI 01
054.378;000.054;67;000.430;MIDI 01
054.403;000.034;52;000.414;MIDI 01
053.965;000.545;73;000.156;MIDI 01
054.567;000.051;51;000.391;MIDI 01
054.696;000.044;52;000.438;MIDI 01
054.704;000.057;72;000.438;MIDI 01
054.855;000.046;71;000.461;MIDI 01
054.866;000.042;51;000.359;MIDI 01
054.548;000.402;66;000.367;MIDI 01
054.996;000.042;49;000.469;MIDI 01
055.010;000.038;70;000.461;MIDI 01
054.998;000.054;66;000.133;MIDI 01
055.167;000.033;51;000.414;MIDI 01
055.170;000.048;71;000.445;MIDI 01
055.316;000.043;54;000.359;MIDI 01
055.310;000.052;66;000.398;MIDI 01
055.443;000.059;68;000.492;MIDI 01
055.466;000.045;52;000.352;MIDI 01
055.597;000.049;69;000.516;MIDI 01
055.614;000.040;51;000.453;MIDI 01
055.913;000.044;59;000.477;MIDI 01
055.765;000.195;68;000.484;MIDI 01
055.755;000.257;52;000.445;MIDI 01
056.051;000.041;64;000.539;MIDI 01
056.202;000.043;66;000.516;MIDI 01
056.200;000.051;69;000.516;MIDI 01
056.219;000.041;40;000.516;MIDI 01
056.368;000.034;68;000.484;MIDI 01
056.364;000.058;71;000.555;MIDI 01
056.521;000.059;66;000.602;MIDI 01
056.660;000.046;64;000.617;MIDI 01
056.376;000.333;52;000.531;MIDI 01
056.805;000.046;67;000.633;MIDI 01
056.819;000.051;46;000.492;MIDI 01
056.817;000.074;73;000.555;MIDI 01
056.967;000.042;66;000.523;MIDI 01
057.124;000.040;69;000.570;MIDI 01
056.965;000.201;74;000.578;MIDI 01
056.972;000.345;47;000.508;MIDI 01
057.447;000.032;59;000.391;MIDI 01
057.445;000.159;75;000.570;MIDI 01
057.288;000.374;68;000.656;MIDI 01
057.600;000.108;76;000.625;MIDI 01
057.755;000.069;71;000.602;MIDI 01
057.593;000.311;61;000.570;MIDI 01
058.046;000.048;49;000.289;MIDI 01
058.065;000.129;77;000.555;MIDI 01
057.910;000.358;69;000.672;MIDI 01
058.379;000.069;73;000.633;MIDI 01
058.199;000.354;50;000.539;MIDI 01
058.540;000.071;71;000.570;MIDI 01
058.681;000.041;69;000.656;MIDI 01
058.696;000.028;62;000.500;MIDI 01
058.234;000.528;78;000.609;MIDI 01
058.841;000.071;71;000.633;MIDI 01
058.856;000.158;78;000.312;MIDI 01
058.980;000.040;66;000.625;MIDI 01
058.833;000.293;63;000.641;MIDI 01
059.138;000.061;68;000.641;MIDI 01
059.274;000.031;69;000.633;MIDI 01
059.290;000.055;51;000.477;MIDI 01
059.428;000.123;52;000.617;MIDI 01
059.435;000.118;68;000.578;MIDI 01
059.585;000.047;69;000.516;MIDI 01
059.019;000.616;78;000.062;MIDI 01
059.583;000.078;75;000.547;MIDI 01
059.717;000.042;68;000.570;MIDI 01
059.741;000.060;76;000.562;MIDI 01
059.872;000.049;66;000.594;MIDI 01
059.874;000.064;78;000.555;MIDI 01
060.026;000.032;68;000.586;MIDI 01
060.038;000.059;76;000.594;MIDI 01
060.174;000.065;63;000.602;MIDI 01
060.172;000.069;81;000.617;MIDI 01
060.328;000.055;64;000.633;MIDI 01
060.326;000.070;80;000.609;MIDI 01
060.476;000.047;66;000.656;MIDI 01
060.473;000.058;78;000.633;MIDI 01
060.634;000.074;80;000.586;MIDI 01
060.627;000.192;64;000.602;MIDI 01
060.779;000.042;78;000.555;MIDI 01
060.780;000.052;54;000.477;MIDI 01
060.932;000.041;56;000.508;MIDI 01
060.938;000.047;76;000.531;MIDI 01
061.074;000.050;57;000.461;MIDI 01
061.077;000.050;75;000.508;MIDI 01
061.223;000.054;76;000.469;MIDI 01
061.242;000.050;56;000.477;MIDI 01
061.360;000.038;71;000.469;MIDI 01
061.379;000.045;59;000.461;MIDI 01
061.511;000.043;73;000.492;MIDI 01
061.529;000.050;57;000.430;MIDI 01
061.660;000.042;74;000.516;MIDI 01
061.659;000.047;56;000.508;MIDI 01
061.812;000.059;73;000.484;MIDI 01
061.964;000.052;68;000.500;MIDI 01
061.976;000.046;62;000.523;MIDI 01
061.830;000.278;57;000.477;MIDI 01
062.121;000.038;69;000.531;MIDI 01
062.119;000.048;61;000.594;MIDI 01
062.254;000.035;71;000.547;MIDI 01
062.257;000.072;59;000.578;MIDI 01
062.414;000.032;69;000.562;MIDI 01
062.409;000.042;61;000.609;MIDI 01
062.549;000.047;74;000.570;MIDI 01
062.568;000.039;56;000.594;MIDI 01
062.709;000.042;73;000.562;MIDI 01
062.716;000.043;57;000.594;MIDI 01
062.848;000.032;59;000.617;MIDI 01
062.854;000.040;71;000.547;MIDI 01
063.004;000.050;73;000.500;MIDI 01
063.160;000.044;47;000.508;MIDI 01
063.163;000.044;71;000.398;MIDI 01
063.011;000.197;57;000.531;MIDI 01
063.307;000.040;49;000.523;MIDI 01
063.321;000.046;69;000.430;MIDI 01
063.445;000.048;50;000.492;MIDI 01
063.462;000.046;68;000.445;MIDI 01
063.615;000.043;49;000.477;MIDI 01
063.627;000.038;69;000.461;MIDI 01
063.752;000.046;64;000.469;MIDI 01
063.760;000.045;52;000.438;MIDI 01
063.910;000.050;66;000.453;MIDI 01
063.913;000.056;50;000.422;MIDI 01
064.052;000.044;67;000.469;MIDI 01
064.054;000.046;49;000.461;MIDI 01
064.229;000.042;50;000.398;MIDI 01
064.220;000.053;66;000.398;MIDI 01
064.358;000.034;69;000.500;MIDI 01
064.366;000.031;49;000.461;MIDI 01
064.502;000.040;71;000.555;MIDI 01
064.511;000.054;47;000.461;MIDI 01
064.660;000.028;45;000.414;MIDI 01
064.658;000.054;73;000.523;MIDI 01
064.842;000.074;47;000.289;MIDI 01
064.956;000.029;69;000.430;MIDI 01
064.982;000.040;42;000.375;MIDI 01
065.105;000.046;44;000.469;MIDI 01
064.814;000.374;74;000.445;MIDI 01
065.106;000.100;68;000.438;MIDI 01
065.259;000.051;66;000.453;MIDI 01
065.260;000.052;45;000.414;MIDI 01
065.425;000.050;44;000.438;MIDI 01
065.416;000.188;64;000.430;MIDI 01
065.555;000.057;68;000.477;MIDI 01
065.558;000.077;40;000.430;MIDI 01
065.706;000.051;69;000.516;MIDI 01
065.708;000.051;42;000.469;MIDI 01
065.845;000.058;44;000.539;MIDI 01
065.858;000.047;71;000.516;MIDI 01
066.024;000.030;73;000.453;MIDI 01
066.001;000.055;45;000.500;MIDI 01
066.149;000.043;71;000.547;MIDI 01
066.165;000.038;47;000.461;MIDI 01
066.328;000.044;49;000.406;MIDI 01
066.340;000.034;66;000.328;MIDI 01
066.297;000.080;69;000.570;MIDI 01
066.445;000.050;45;000.578;MIDI 01
066.456;000.046;73;000.594;MIDI 01
066.604;000.229;71;000.500;MIDI 01
066.641;000.196;68;000.383;MIDI 01
066.764;000.075;74;000.555;MIDI 01
066.622;000.336;52;000.500;MIDI 01
067.073;000.042;68;000.500;MIDI 01
067.095;000.037;40;000.430;MIDI 01
066.917;000.358;73;000.602;MIDI 01
067.266;000.208;69;000.477;MIDI 01
067.402;000.074;76;000.555;MIDI 01
067.241;000.402;42;000.508;MIDI 01
067.716;000.036;54;000.469;MIDI 01
067.706;000.078;69;000.602;MIDI 01
067.557;000.354;74;000.641;MIDI 01
067.873;000.041;56;000.477;MIDI 01
068.062;000.029;57;000.453;MIDI 01
068.065;000.070;78;000.609;MIDI 01
068.215;000.070;56;000.430;MIDI 01
068.213;000.073;76;000.641;MIDI 01
067.893;000.502;71;000.469;MIDI 01
068.350;000.048;54;000.539;MIDI 01
068.355;000.089;75;000.656;MIDI 01
068.505;000.058;52;000.562;MIDI 01
068.503;000.072;76;000.625;MIDI 01
068.648;000.045;50;000.523;MIDI 01
068.642;000.053;71;000.609;MIDI 01
068.795;000.055;49;000.570;MIDI 01
068.792;000.067;73;000.594;MIDI 01
068.942;000.051;47;000.555;MIDI 01
068.941;000.064;74;000.602;MIDI 01
069.098;000.068;45;000.531;MIDI 01
069.274;000.031;69;000.539;MIDI 01
069.096;000.362;73;000.594;MIDI 01
069.458;000.038;50;000.484;MIDI 01
069.449;000.079;68;000.578;MIDI 01
069.655;000.037;66;000.352;MIDI 01
069.624;000.117;71;000.594;MIDI 01
069.820;000.051;69;000.461;MIDI 01
069.817;000.055;64;000.438;MIDI 01
069.908;000.042;68;000.445;MIDI 01
069.965;000.084;69;000.578;MIDI 01
069.884;000.166;50;000.375;MIDI 01
070.121;000.166;62;000.484;MIDI 01
070.435;000.075;61;000.484;MIDI 01
070.048;000.833;68;000.594;MIDI 01
070.744;000.142;59;000.320;MIDI 01
070.758;000.585;69;000.555;MIDI 01
071.589;002.241;69;000.461;MIDI 01
071.660;002.260;61;000.312;MIDI 01
071.614;002.329;45;000.281;MIDI 01
