Start;Duration;Pitch;Velocity;Instrument
000.861;000.106;48;000.500;MIDI 01
001.026;000.125;67;000.500;MIDI 01
001.168;000.081;60;000.531;MIDI 01
001.170;000.147;65;000.523;MIDI 01
001.316;000.204;67;000.516;MIDI 01
001.460;000.084;53;000.531;MIDI 01
001.469;000.133;68;000.570;MIDI 01
001.613;000.156;65;000.523;MIDI 01
001.762;000.089;60;000.500;MIDI 01
001.765;000.191;63;000.570;MIDI 01
001.920;000.205;65;000.555;MIDI 01
002.051;000.086;51;000.508;MIDI 01
002.061;000.159;67;000.531;MIDI 01
002.203;000.130;63;000.531;MIDI 01
002.371;000.071;60;000.484;MIDI 01
002.348;000.167;62;000.555;MIDI 01
002.496;000.135;63;000.547;MIDI 01
002.650;000.068;50;000.484;MIDI 01
002.642;000.150;65;000.539;MIDI 01
002.791;000.109;62;000.562;MIDI 01
002.950;000.082;59;000.477;MIDI 01
002.934;000.156;60;000.523;MIDI 01
003.074;000.171;62;000.531;MIDI 01
003.215;000.076;63;000.547;MIDI 01
003.217;000.134;48;000.430;MIDI 01
003.362;000.161;55;000.516;MIDI 01
003.528;000.060;72;000.492;MIDI 01
003.530;000.148;53;000.516;MIDI 01
003.682;000.103;55;000.547;MIDI 01
003.832;000.079;65;000.562;MIDI 01
003.819;000.128;56;000.570;MIDI 01
003.966;000.149;53;000.508;MIDI 01
004.136;000.079;72;000.562;MIDI 01
004.119;000.123;51;000.570;MIDI 01
004.274;000.098;53;000.469;MIDI 01
004.447;000.060;63;000.531;MIDI 01
004.407;000.132;55;000.523;MIDI 01
004.561;000.129;51;000.508;MIDI 01
004.734;000.069;72;000.562;MIDI 01
004.706;000.149;50;000.492;MIDI 01
004.855;000.099;51;000.523;MIDI 01
005.029;000.057;62;000.500;MIDI 01
004.981;000.172;53;000.500;MIDI 01
005.140;000.029;49;000.516;MIDI 01
005.202;000.050;50;000.320;MIDI 01
005.324;000.047;71;000.508;MIDI 01
005.292;000.172;48;000.469;MIDI 01
005.447;000.126;50;000.422;MIDI 01
005.610;000.061;51;000.469;MIDI 01
005.612;000.163;60;000.438;MIDI 01
005.771;000.149;63;000.492;MIDI 01
005.945;000.085;48;000.344;MIDI 01
005.920;000.144;67;000.453;MIDI 01
006.057;000.127;72;000.516;MIDI 01
006.239;000.068;53;000.406;MIDI 01
006.233;000.299;62;000.484;MIDI 01
006.388;000.190;72;000.469;MIDI 01
006.570;000.086;50;000.391;MIDI 01
006.523;000.188;71;000.531;MIDI 01
006.672;000.185;69;000.539;MIDI 01
006.865;000.076;55;000.422;MIDI 01
006.843;000.161;62;000.531;MIDI 01
006.997;000.157;67;000.547;MIDI 01
007.167;000.071;53;000.438;MIDI 01
007.154;000.165;71;000.555;MIDI 01
007.291;000.166;74;000.555;MIDI 01
007.460;000.076;55;000.445;MIDI 01
007.453;000.149;63;000.539;MIDI 01
007.602;000.238;74;000.609;MIDI 01
007.758;000.086;51;000.438;MIDI 01
007.760;000.199;72;000.539;MIDI 01
007.916;000.181;71;000.547;MIDI 01
008.083;000.126;56;000.422;MIDI 01
008.067;000.165;63;000.523;MIDI 01
008.216;000.181;68;000.547;MIDI 01
008.395;000.090;55;000.469;MIDI 01
008.355;000.177;72;000.562;MIDI 01
008.508;000.144;75;000.602;MIDI 01
008.673;000.084;57;000.508;MIDI 01
008.671;000.128;65;000.555;MIDI 01
008.809;000.207;75;000.578;MIDI 01
008.973;000.089;53;000.422;MIDI 01
008.957;000.190;74;000.586;MIDI 01
009.113;000.193;72;000.570;MIDI 01
009.284;000.101;58;000.469;MIDI 01
009.268;000.147;65;000.516;MIDI 01
009.419;000.170;70;000.586;MIDI 01
009.571;000.099;57;000.531;MIDI 01
009.568;000.165;74;000.602;MIDI 01
009.716;000.145;77;000.617;MIDI 01
009.852;000.116;59;000.539;MIDI 01
009.874;000.135;67;000.570;MIDI 01
010.010;000.189;77;000.602;MIDI 01
010.161;000.062;55;000.500;MIDI 01
010.159;000.160;75;000.555;MIDI 01
010.299;000.169;74;000.578;MIDI 01
010.463;000.123;60;000.438;MIDI 01
010.456;000.156;75;000.625;MIDI 01
010.625;000.108;68;000.430;MIDI 01
010.602;000.139;72;000.531;MIDI 01
010.787;000.098;67;000.469;MIDI 01
010.754;000.149;70;000.531;MIDI 01
010.939;000.071;68;000.492;MIDI 01
010.897;000.142;72;000.562;MIDI 01
011.082;000.107;58;000.500;MIDI 01
011.064;000.155;74;000.609;MIDI 01
011.226;000.103;67;000.477;MIDI 01
011.219;000.113;70;000.547;MIDI 01
011.372;000.091;65;000.477;MIDI 01
011.364;000.159;68;000.539;MIDI 01
011.508;000.082;67;000.484;MIDI 01
011.506;000.120;70;000.539;MIDI 01
011.671;000.155;56;000.508;MIDI 01
011.661;000.168;72;000.578;MIDI 01
011.815;000.204;70;000.531;MIDI 01
011.964;000.148;68;000.531;MIDI 01
012.100;000.151;67;000.555;MIDI 01
012.251;000.141;65;000.547;MIDI 01
012.410;000.141;63;000.508;MIDI 01
012.560;000.160;62;000.500;MIDI 01
012.715;000.103;60;000.477;MIDI 01
012.860;000.105;58;000.484;MIDI 01
012.852;000.146;74;000.562;MIDI 01
012.994;000.128;70;000.539;MIDI 01
013.002;000.123;67;000.484;MIDI 01
013.162;000.093;65;000.461;MIDI 01
013.155;000.156;68;000.477;MIDI 01
013.293;000.071;67;000.469;MIDI 01
013.294;000.126;70;000.523;MIDI 01
013.450;000.129;56;000.484;MIDI 01
013.444;000.160;72;000.570;MIDI 01
013.602;000.102;68;000.500;MIDI 01
013.599;000.107;65;000.445;MIDI 01
013.745;000.096;63;000.453;MIDI 01
013.741;000.160;67;000.508;MIDI 01
013.880;000.079;65;000.492;MIDI 01
013.889;000.130;68;000.523;MIDI 01
014.036;000.181;70;000.562;MIDI 01
014.048;000.203;55;000.461;MIDI 01
014.189;000.171;68;000.531;MIDI 01
014.331;000.105;67;000.516;MIDI 01
014.468;000.178;65;000.547;MIDI 01
014.639;000.127;63;000.531;MIDI 01
014.791;000.137;61;000.516;MIDI 01
014.938;000.152;60;000.445;MIDI 01
015.084;000.124;58;000.469;MIDI 01
015.236;000.117;56;000.500;MIDI 01
015.232;000.144;72;000.492;MIDI 01
015.375;000.112;65;000.461;MIDI 01
015.380;000.110;68;000.477;MIDI 01
015.532;000.104;63;000.453;MIDI 01
015.527;000.153;67;000.492;MIDI 01
015.664;000.085;65;000.469;MIDI 01
015.668;000.130;68;000.516;MIDI 01
015.825;000.124;55;000.523;MIDI 01
015.816;000.156;70;000.555;MIDI 01
015.966;000.115;67;000.555;MIDI 01
015.972;000.110;63;000.461;MIDI 01
016.109;000.098;62;000.469;MIDI 01
016.107;000.148;65;000.547;MIDI 01
016.247;000.083;63;000.500;MIDI 01
016.255;000.144;67;000.531;MIDI 01
016.394;000.126;53;000.492;MIDI 01
016.396;000.135;68;000.570;MIDI 01
016.542;000.095;65;000.523;MIDI 01
016.540;000.110;62;000.492;MIDI 01
016.693;000.093;60;000.461;MIDI 01
016.683;000.111;63;000.531;MIDI 01
016.806;000.056;65;000.523;MIDI 01
016.811;000.070;62;000.523;MIDI 01
016.962;000.048;68;000.508;MIDI 01
017.022;000.071;67;000.570;MIDI 01
017.109;000.039;68;000.469;MIDI 01
016.961;000.188;51;000.492;MIDI 01
017.098;000.132;60;000.445;MIDI 01
017.277;000.084;68;000.508;MIDI 01
017.265;000.110;58;000.430;MIDI 01
017.400;000.080;60;000.492;MIDI 01
017.558;000.143;68;000.508;MIDI 01
017.546;000.204;50;000.469;MIDI 01
017.700;000.119;67;000.531;MIDI 01
017.706;000.125;58;000.477;MIDI 01
017.850;000.106;56;000.469;MIDI 01
017.852;000.124;65;000.531;MIDI 01
017.980;000.050;67;000.523;MIDI 01
017.971;000.094;58;000.547;MIDI 01
018.135;000.050;68;000.562;MIDI 01
018.181;000.100;67;000.531;MIDI 01
018.124;000.179;48;000.523;MIDI 01
018.275;000.060;68;000.625;MIDI 01
018.259;000.143;56;000.508;MIDI 01
018.452;000.050;68;000.555;MIDI 01
018.429;000.122;55;000.469;MIDI 01
018.589;000.131;56;000.477;MIDI 01
018.778;000.086;68;000.445;MIDI 01
018.753;000.178;46;000.445;MIDI 01
018.902;000.177;74;000.516;MIDI 01
019.072;000.184;77;000.562;MIDI 01
019.076;000.300;58;000.531;MIDI 01
019.235;000.196;75;000.586;MIDI 01
019.381;000.101;74;000.609;MIDI 01
019.523;000.139;72;000.539;MIDI 01
019.648;000.119;50;000.422;MIDI 01
019.679;000.175;70;000.531;MIDI 01
019.821;000.130;68;000.508;MIDI 01
019.957;000.121;51;000.492;MIDI 01
019.956;000.154;67;000.508;MIDI 01
020.102;000.165;70;000.539;MIDI 01
020.260;000.090;48;000.484;MIDI 01
020.252;000.193;75;000.547;MIDI 01
020.392;000.146;67;000.523;MIDI 01
020.542;000.107;65;000.555;MIDI 01
020.551;000.103;44;000.516;MIDI 01
020.698;000.191;75;000.523;MIDI 01
020.845;000.088;46;000.516;MIDI 01
020.849;000.148;65;000.539;MIDI 01
021.001;000.135;74;000.562;MIDI 01
021.173;000.079;39;000.430;MIDI 01
021.171;000.152;75;000.539;MIDI 01
021.318;000.163;70;000.578;MIDI 01
021.459;000.107;51;000.477;MIDI 01
021.468;000.169;68;000.594;MIDI 01
021.623;000.132;70;000.625;MIDI 01
021.775;000.099;44;000.500;MIDI 01
021.777;000.158;72;000.594;MIDI 01
021.928;000.155;68;000.570;MIDI 01
022.091;000.116;51;000.492;MIDI 01
022.082;000.170;67;000.570;MIDI 01
022.239;000.209;68;000.578;MIDI 01
022.402;000.116;43;000.516;MIDI 01
022.384;000.174;70;000.570;MIDI 01
022.540;000.143;67;000.562;MIDI 01
022.703;000.114;51;000.547;MIDI 01
022.691;000.171;65;000.578;MIDI 01
022.849;000.173;67;000.539;MIDI 01
022.988;000.111;41;000.523;MIDI 01
022.999;000.136;68;000.555;MIDI 01
023.153;000.161;65;000.531;MIDI 01
023.283;000.115;50;000.492;MIDI 01
023.305;000.154;63;000.562;MIDI 01
023.464;000.195;65;000.523;MIDI 01
023.589;000.156;51;000.516;MIDI 01
023.605;000.154;67;000.508;MIDI 01
023.749;000.132;63;000.555;MIDI 01
023.745;000.152;55;000.516;MIDI 01
023.892;000.119;62;000.531;MIDI 01
023.901;000.130;53;000.523;MIDI 01
024.045;000.109;55;000.555;MIDI 01
024.031;000.163;63;000.578;MIDI 01
024.185;000.089;60;000.570;MIDI 01
024.194;000.120;56;000.570;MIDI 01
024.343;000.172;53;000.516;MIDI 01
024.510;000.077;68;000.539;MIDI 01
024.506;000.128;51;000.578;MIDI 01
024.667;000.102;53;000.508;MIDI 01
024.810;000.081;58;000.547;MIDI 01
024.803;000.146;55;000.531;MIDI 01
024.956;000.153;51;000.523;MIDI 01
025.124;000.077;67;000.547;MIDI 01
025.109;000.154;50;000.539;MIDI 01
025.260;000.117;51;000.570;MIDI 01
025.407;000.083;56;000.570;MIDI 01
025.403;000.161;53;000.516;MIDI 01
025.555;000.101;50;000.531;MIDI 01
025.727;000.064;65;000.516;MIDI 01
025.715;000.135;48;000.500;MIDI 01
025.844;000.121;50;000.484;MIDI 01
026.008;000.087;51;000.500;MIDI 01
026.005;000.119;55;000.523;MIDI 01
026.159;000.141;58;000.516;MIDI 01
026.300;000.104;55;000.484;MIDI 01
026.316;000.164;63;000.539;MIDI 01
026.593;000.110;56;000.570;MIDI 01
026.471;000.297;67;000.562;MIDI 01
026.765;000.190;65;000.516;MIDI 01
026.910;000.116;58;000.539;MIDI 01
026.919;000.158;63;000.562;MIDI 01
027.066;000.104;62;000.547;MIDI 01
027.218;000.106;60;000.523;MIDI 01
027.211;000.220;63;000.555;MIDI 01
027.392;000.197;67;000.500;MIDI 01
027.525;000.107;56;000.523;MIDI 01
027.535;000.148;72;000.547;MIDI 01
027.680;000.172;65;000.539;MIDI 01
027.821;000.119;58;000.484;MIDI 01
027.868;000.183;67;000.461;MIDI 01
027.979;000.153;63;000.523;MIDI 01
027.817;000.336;70;000.586;MIDI 01
028.147;000.074;65;000.438;MIDI 01
028.129;000.140;46;000.422;MIDI 01
028.127;000.153;68;000.539;MIDI 01
028.285;000.054;62;000.555;MIDI 01
028.604;000.222;51;000.469;MIDI 01
028.767;000.161;46;000.469;MIDI 01
028.908;000.197;43;000.469;MIDI 01
029.097;000.347;39;000.484;MIDI 01
028.459;000.986;58;000.391;MIDI 01
028.452;001.043;63;000.453;MIDI 01
028.442;001.057;67;000.500;MIDI 01
029.771;000.109;48;000.406;MIDI 01
029.935;000.109;67;000.352;MIDI 01
030.090;000.087;60;000.391;MIDI 01
030.078;000.155;65;000.359;MIDI 01
030.245;000.172;67;000.320;MIDI 01
030.397;000.082;53;000.391;MIDI 01
030.399;000.108;68;000.422;MIDI 01
030.535;000.120;65;000.391;MIDI 01
030.707;000.083;60;000.375;MIDI 01
030.677;000.164;63;000.414;MIDI 01
030.832;000.189;65;000.477;MIDI 01
031.002;000.098;51;000.453;MIDI 01
030.996;000.148;67;000.445;MIDI 01
031.137;000.131;63;000.484;MIDI 01
031.317;000.087;60;000.430;MIDI 01
031.296;000.155;62;000.477;MIDI 01
031.436;000.141;63;000.492;MIDI 01
031.602;000.083;50;000.383;MIDI 01
031.592;000.157;65;000.477;MIDI 01
031.754;000.106;62;000.477;MIDI 01
031.922;000.078;59;000.430;MIDI 01
031.901;000.153;60;000.445;MIDI 01
032.045;000.188;62;000.445;MIDI 01
032.208;000.101;63;000.445;MIDI 01
032.220;000.118;48;000.336;MIDI 01
032.360;000.143;55;000.430;MIDI 01
032.533;000.107;72;000.508;MIDI 01
032.518;000.150;53;000.484;MIDI 01
032.675;000.114;55;000.508;MIDI 01
032.839;000.097;65;000.508;MIDI 01
032.831;000.122;56;000.508;MIDI 01
032.977;000.157;53;000.492;MIDI 01
033.148;000.107;72;000.516;MIDI 01
033.139;000.125;51;000.516;MIDI 01
033.303;000.093;53;000.430;MIDI 01
033.470;000.089;63;000.469;MIDI 01
033.439;000.135;55;000.484;MIDI 01
033.593;000.144;51;000.484;MIDI 01
033.767;000.106;72;000.484;MIDI 01
033.749;000.146;50;000.469;MIDI 01
033.904;000.102;51;000.484;MIDI 01
034.073;000.101;62;000.484;MIDI 01
034.043;000.171;53;000.445;MIDI 01
034.203;000.105;50;000.438;MIDI 01
034.386;000.084;71;000.461;MIDI 01
034.355;000.152;48;000.422;MIDI 01
034.507;000.132;50;000.383;MIDI 01
034.666;000.085;51;000.422;MIDI 01
034.682;000.197;60;000.445;MIDI 01
034.847;000.166;63;000.438;MIDI 01
034.999;000.083;48;000.367;MIDI 01
035.005;000.131;67;000.461;MIDI 01
035.145;000.142;72;000.461;MIDI 01
035.311;000.062;53;000.352;MIDI 01
035.316;000.227;62;000.445;MIDI 01
035.615;000.086;50;000.320;MIDI 01
035.462;000.273;72;000.453;MIDI 01
035.604;000.193;71;000.469;MIDI 01
035.751;000.178;69;000.508;MIDI 01
035.933;000.081;55;000.414;MIDI 01
035.913;000.145;62;000.461;MIDI 01
036.073;000.126;67;000.508;MIDI 01
036.241;000.074;53;000.406;MIDI 01
036.228;000.134;71;000.508;MIDI 01
036.352;000.174;74;000.531;MIDI 01
036.538;000.082;55;000.445;MIDI 01
036.523;000.126;63;000.469;MIDI 01
036.671;000.217;74;000.562;MIDI 01
036.823;000.093;51;000.469;MIDI 01
036.825;000.193;72;000.555;MIDI 01
036.983;000.148;71;000.523;MIDI 01
037.149;000.115;56;000.438;MIDI 01
037.112;000.222;63;000.461;MIDI 01
037.282;000.171;68;000.500;MIDI 01
037.448;000.109;55;000.469;MIDI 01
037.424;000.174;72;000.539;MIDI 01
037.577;000.143;75;000.586;MIDI 01
037.743;000.099;57;000.484;MIDI 01
037.747;000.135;65;000.508;MIDI 01
037.877;000.218;75;000.539;MIDI 01
038.034;000.092;53;000.414;MIDI 01
038.032;000.194;74;000.570;MIDI 01
038.180;000.193;72;000.578;MIDI 01
038.351;000.121;58;000.477;MIDI 01
038.340;000.155;65;000.500;MIDI 01
038.495;000.174;70;000.562;MIDI 01
038.669;000.090;57;000.484;MIDI 01
038.658;000.159;74;000.570;MIDI 01
038.807;000.147;77;000.578;MIDI 01
038.969;000.102;59;000.508;MIDI 01
038.967;000.116;67;000.539;MIDI 01
039.101;000.196;77;000.586;MIDI 01
039.283;000.057;55;000.469;MIDI 01
039.260;000.171;75;000.547;MIDI 01
039.403;000.181;74;000.570;MIDI 01
039.575;000.105;60;000.453;MIDI 01
039.570;000.153;75;000.617;MIDI 01
039.718;000.145;72;000.539;MIDI 01
039.741;000.134;68;000.469;MIDI 01
039.900;000.102;67;000.477;MIDI 01
039.874;000.156;70;000.531;MIDI 01
040.061;000.067;68;000.492;MIDI 01
040.022;000.150;72;000.547;MIDI 01
040.206;000.106;58;000.500;MIDI 01
040.186;000.149;74;000.578;MIDI 01
040.341;000.112;70;000.570;MIDI 01
040.350;000.111;67;000.461;MIDI 01
040.498;000.093;65;000.492;MIDI 01
040.489;000.160;68;000.531;MIDI 01
040.639;000.084;67;000.484;MIDI 01
040.633;000.132;70;000.539;MIDI 01
040.782;000.163;72;000.539;MIDI 01
040.795;000.157;56;000.484;MIDI 01
040.924;000.198;70;000.555;MIDI 01
041.072;000.158;68;000.547;MIDI 01
041.218;000.153;67;000.547;MIDI 01
041.374;000.141;65;000.547;MIDI 01
041.532;000.148;63;000.516;MIDI 01
041.675;000.163;62;000.523;MIDI 01
041.829;000.105;60;000.523;MIDI 01
041.977;000.105;58;000.484;MIDI 01
041.964;000.150;74;000.578;MIDI 01
042.118;000.117;67;000.508;MIDI 01
042.114;000.123;70;000.562;MIDI 01
042.271;000.095;65;000.500;MIDI 01
042.267;000.149;68;000.555;MIDI 01
042.409;000.076;67;000.484;MIDI 01
042.406;000.127;70;000.555;MIDI 01
042.573;000.130;56;000.516;MIDI 01
042.556;000.163;72;000.586;MIDI 01
042.720;000.094;68;000.539;MIDI 01
042.723;000.103;65;000.391;MIDI 01
042.858;000.105;63;000.484;MIDI 01
042.854;000.160;67;000.539;MIDI 01
042.997;000.087;65;000.508;MIDI 01
043.004;000.133;68;000.547;MIDI 01
043.163;000.180;70;000.555;MIDI 01
043.174;000.207;55;000.477;MIDI 01
043.308;000.154;68;000.531;MIDI 01
043.450;000.107;67;000.531;MIDI 01
043.597;000.181;65;000.508;MIDI 01
043.765;000.130;63;000.531;MIDI 01
043.914;000.191;61;000.523;MIDI 01
044.065;000.135;60;000.398;MIDI 01
044.204;000.101;58;000.484;MIDI 01
044.350;000.095;56;000.461;MIDI 01
044.346;000.126;72;000.477;MIDI 01
044.483;000.107;68;000.461;MIDI 01
044.499;000.112;65;000.445;MIDI 01
044.667;000.073;63;000.422;MIDI 01
044.638;000.133;67;000.445;MIDI 01
044.780;000.080;65;000.492;MIDI 01
044.766;000.133;68;000.484;MIDI 01
044.943;000.131;55;000.484;MIDI 01
044.924;000.159;70;000.523;MIDI 01
045.081;000.102;67;000.516;MIDI 01
045.094;000.101;63;000.391;MIDI 01
045.223;000.098;62;000.461;MIDI 01
045.229;000.136;65;000.469;MIDI 01
045.372;000.082;63;000.500;MIDI 01
045.374;000.132;67;000.508;MIDI 01
045.532;000.101;53;000.430;MIDI 01
045.530;000.135;68;000.547;MIDI 01
045.678;000.100;65;000.523;MIDI 01
045.666;000.115;62;000.477;MIDI 01
045.819;000.090;60;000.438;MIDI 01
045.820;000.115;63;000.523;MIDI 01
045.947;000.068;65;000.539;MIDI 01
045.953;000.065;62;000.492;MIDI 01
046.096;000.067;68;000.547;MIDI 01
046.180;000.060;67;000.555;MIDI 01
046.101;000.168;51;000.508;MIDI 01
046.239;000.052;68;000.484;MIDI 01
046.250;000.138;60;000.445;MIDI 01
046.420;000.108;58;000.453;MIDI 01
046.456;000.085;68;000.516;MIDI 01
046.554;000.092;60;000.477;MIDI 01
046.716;000.143;68;000.547;MIDI 01
046.704;000.180;50;000.445;MIDI 01
046.858;000.110;67;000.547;MIDI 01
046.869;000.138;58;000.469;MIDI 01
047.011;000.127;65;000.492;MIDI 01
047.023;000.120;56;000.492;MIDI 01
047.146;000.045;67;000.523;MIDI 01
047.154;000.090;58;000.531;MIDI 01
047.307;000.066;68;000.586;MIDI 01
047.379;000.089;67;000.500;MIDI 01
047.460;000.058;68;000.578;MIDI 01
047.309;000.248;48;000.500;MIDI 01
047.436;000.165;56;000.484;MIDI 01
047.650;000.051;68;000.516;MIDI 01
047.620;000.108;55;000.469;MIDI 01
047.775;000.109;56;000.484;MIDI 01
047.940;000.125;68;000.438;MIDI 01
047.944;000.150;46;000.453;MIDI 01
048.073;000.192;74;000.539;MIDI 01
048.250;000.183;77;000.562;MIDI 01
048.270;000.314;58;000.539;MIDI 01
048.416;000.194;75;000.570;MIDI 01
048.555;000.110;74;000.602;MIDI 01
048.703;000.145;72;000.555;MIDI 01
048.860;000.122;50;000.461;MIDI 01
048.858;000.184;70;000.547;MIDI 01
049.000;000.134;68;000.547;MIDI 01
049.167;000.114;51;000.523;MIDI 01
049.150;000.153;67;000.547;MIDI 01
049.293;000.172;70;000.570;MIDI 01
049.457;000.081;48;000.523;MIDI 01
049.450;000.194;75;000.578;MIDI 01
049.603;000.135;67;000.484;MIDI 01
049.749;000.117;65;000.578;MIDI 01
049.753;000.117;44;000.539;MIDI 01
049.908;000.195;75;000.578;MIDI 01
050.069;000.079;46;000.492;MIDI 01
050.061;000.141;65;000.531;MIDI 01
050.214;000.153;74;000.578;MIDI 01
050.388;000.123;39;000.453;MIDI 01
050.390;000.165;75;000.555;MIDI 01
050.545;000.173;70;000.594;MIDI 01
050.698;000.127;51;000.516;MIDI 01
050.704;000.161;68;000.609;MIDI 01
050.856;000.137;70;000.633;MIDI 01
051.017;000.109;44;000.531;MIDI 01
051.015;000.161;72;000.602;MIDI 01
051.165;000.163;68;000.578;MIDI 01
051.324;000.118;51;000.500;MIDI 01
051.321;000.170;67;000.586;MIDI 01
051.480;000.214;68;000.609;MIDI 01
051.638;000.120;43;000.516;MIDI 01
051.640;000.175;70;000.594;MIDI 01
051.797;000.139;67;000.570;MIDI 01
051.960;000.127;51;000.523;MIDI 01
051.946;000.174;65;000.578;MIDI 01
052.106;000.179;67;000.562;MIDI 01
052.264;000.105;41;000.516;MIDI 01
052.259;000.136;68;000.562;MIDI 01
052.409;000.154;65;000.508;MIDI 01
052.556;000.104;50;000.508;MIDI 01
052.560;000.167;63;000.531;MIDI 01
052.715;000.209;65;000.570;MIDI 01
052.869;000.159;51;000.500;MIDI 01
052.872;000.161;67;000.523;MIDI 01
053.018;000.133;63;000.562;MIDI 01
053.023;000.154;55;000.539;MIDI 01
053.164;000.130;62;000.539;MIDI 01
053.175;000.139;53;000.570;MIDI 01
053.324;000.121;55;000.578;MIDI 01
053.307;000.167;63;000.570;MIDI 01
053.469;000.106;60;000.555;MIDI 01
053.479;000.132;56;000.594;MIDI 01
053.634;000.179;53;000.523;MIDI 01
053.806;000.097;68;000.516;MIDI 01
053.796;000.144;51;000.602;MIDI 01
053.967;000.108;53;000.531;MIDI 01
054.125;000.098;58;000.547;MIDI 01
054.108;000.159;55;000.547;MIDI 01
054.266;000.164;51;000.555;MIDI 01
054.442;000.091;67;000.523;MIDI 01
054.434;000.186;50;000.539;MIDI 01
054.592;000.127;51;000.562;MIDI 01
054.764;000.093;56;000.570;MIDI 01
054.731;000.177;53;000.547;MIDI 01
054.896;000.111;50;000.555;MIDI 01
055.062;000.086;65;000.570;MIDI 01
055.047;000.176;48;000.539;MIDI 01
055.205;000.121;50;000.508;MIDI 01
055.370;000.091;51;000.555;MIDI 01
055.364;000.121;55;000.523;MIDI 01
055.522;000.136;58;000.516;MIDI 01
055.669;000.117;55;000.523;MIDI 01
055.684;000.153;63;000.547;MIDI 01
056.010;000.126;56;000.570;MIDI 01
055.846;000.308;67;000.555;MIDI 01
056.161;000.198;65;000.539;MIDI 01
056.318;000.133;58;000.570;MIDI 01
056.322;000.168;63;000.555;MIDI 01
056.478;000.111;62;000.562;MIDI 01
056.630;000.121;60;000.547;MIDI 01
056.628;000.212;63;000.586;MIDI 01
056.790;000.212;67;000.539;MIDI 01
056.953;000.123;56;000.562;MIDI 01
056.946;000.161;72;000.547;MIDI 01
057.103;000.182;65;000.531;MIDI 01
057.259;000.116;58;000.500;MIDI 01
057.281;000.207;67;000.508;MIDI 01
057.256;000.298;70;000.547;MIDI 01
057.419;000.165;63;000.531;MIDI 01
057.595;000.082;65;000.453;MIDI 01
057.578;000.141;46;000.453;MIDI 01
057.583;000.157;68;000.508;MIDI 01
057.745;000.068;62;000.531;MIDI 01
058.077;000.178;51;000.453;MIDI 01
058.227;000.161;46;000.469;MIDI 01
058.374;000.197;43;000.477;MIDI 01
058.561;000.308;39;000.492;MIDI 01
057.931;001.049;58;000.359;MIDI 01
057.909;001.127;67;000.461;MIDI 01
057.920;001.121;63;000.422;MIDI 01
059.273;000.095;51;000.398;MIDI 01
059.458;000.121;70;000.391;MIDI 01
059.583;000.077;53;000.336;MIDI 01
059.627;000.153;69;000.391;MIDI 01
059.766;000.136;70;000.430;MIDI 01
059.882;000.118;55;000.445;MIDI 01
059.914;000.179;75;000.477;MIDI 01
060.065;000.127;70;000.539;MIDI 01
060.210;000.123;51;000.500;MIDI 01
060.217;000.134;69;000.477;MIDI 01
060.348;000.152;70;000.539;MIDI 01
060.500;000.134;50;000.484;MIDI 01
060.498;000.184;77;000.523;MIDI 01
060.658;000.120;70;000.523;MIDI 01
060.814;000.105;48;000.492;MIDI 01
060.799;000.141;69;000.539;MIDI 01
060.935;000.149;70;000.555;MIDI 01
061.119;000.095;50;000.500;MIDI 01
061.100;000.172;80;000.508;MIDI 01
061.246;000.097;70;000.508;MIDI 01
061.400;000.077;46;000.398;MIDI 01
061.378;000.198;69;000.461;MIDI 01
061.521;000.108;70;000.492;MIDI 01
061.684;000.036;79;000.516;MIDI 01
061.690;000.074;51;000.445;MIDI 01
061.849;000.090;55;000.375;MIDI 01
061.977;000.033;75;000.500;MIDI 01
061.997;000.065;56;000.430;MIDI 01
062.115;000.071;55;000.398;MIDI 01
062.163;000.046;74;000.523;MIDI 01
062.228;000.046;72;000.547;MIDI 01
062.240;000.065;44;000.469;MIDI 01
062.302;000.039;74;000.422;MIDI 01
062.357;000.050;72;000.461;MIDI 01
062.369;000.118;55;000.398;MIDI 01
062.422;000.089;71;000.492;MIDI 01
062.541;000.082;56;000.406;MIDI 01
062.547;000.192;72;000.492;MIDI 01
062.682;000.111;55;000.398;MIDI 01
062.833;000.056;77;000.531;MIDI 01
062.841;000.091;50;000.438;MIDI 01
063.024;000.079;53;000.305;MIDI 01
063.118;000.039;74;000.516;MIDI 01
063.142;000.060;55;000.430;MIDI 01
063.321;000.034;72;000.320;MIDI 01
063.258;000.106;53;000.469;MIDI 01
063.368;000.050;71;000.562;MIDI 01
063.442;000.050;41;000.133;MIDI 01
063.444;000.052;43;000.188;MIDI 01
063.471;000.027;72;000.406;MIDI 01
063.520;000.041;71;000.445;MIDI 01
063.538;000.098;53;000.422;MIDI 01
063.580;000.070;69;000.477;MIDI 01
063.693;000.070;71;000.469;MIDI 01
063.694;000.078;55;000.391;MIDI 01
063.819;000.110;53;000.414;MIDI 01
063.972;000.127;48;000.352;MIDI 01
063.981;000.143;75;000.484;MIDI 01
064.142;000.101;63;000.430;MIDI 01
064.289;000.085;60;000.438;MIDI 01
064.294;000.151;62;000.414;MIDI 01
064.430;000.154;63;000.438;MIDI 01
064.598;000.124;58;000.469;MIDI 01
064.604;000.135;67;000.477;MIDI 01
064.757;000.106;63;000.469;MIDI 01
064.903;000.112;56;000.500;MIDI 01
064.896;000.150;62;000.500;MIDI 01
065.045;000.129;63;000.477;MIDI 01
065.189;000.103;55;000.531;MIDI 01
065.191;000.160;70;000.547;MIDI 01
065.344;000.121;63;000.500;MIDI 01
065.492;000.109;53;000.500;MIDI 01
065.495;000.147;62;000.508;MIDI 01
065.642;000.124;63;000.508;MIDI 01
065.810;000.076;55;000.352;MIDI 01
065.792;000.158;73;000.516;MIDI 01
065.936;000.098;63;000.492;MIDI 01
066.099;000.070;51;000.453;MIDI 01
066.080;000.182;62;000.438;MIDI 01
066.218;000.107;63;000.430;MIDI 01
066.380;000.050;72;000.461;MIDI 01
066.384;000.070;56;000.406;MIDI 01
066.534;000.072;60;000.320;MIDI 01
066.661;000.045;68;000.469;MIDI 01
066.681;000.064;61;000.445;MIDI 01
066.808;000.053;60;000.312;MIDI 01
066.847;000.042;67;000.453;MIDI 01
066.907;000.046;65;000.523;MIDI 01
066.917;000.074;49;000.461;MIDI 01
066.989;000.044;67;000.484;MIDI 01
067.055;000.044;65;000.469;MIDI 01
067.072;000.073;60;000.312;MIDI 01
067.116;000.096;64;000.461;MIDI 01
067.227;000.080;61;000.414;MIDI 01
067.236;000.158;65;000.438;MIDI 01
067.376;000.077;60;000.359;MIDI 01
067.528;000.071;70;000.469;MIDI 01
067.526;000.105;55;000.422;MIDI 01
067.686;000.060;58;000.367;MIDI 01
067.807;000.047;67;000.516;MIDI 01
067.814;000.096;60;000.406;MIDI 01
067.951;000.080;58;000.336;MIDI 01
067.999;000.047;65;000.469;MIDI 01
068.064;000.064;64;000.539;MIDI 01
068.059;000.090;48;000.453;MIDI 01
068.158;000.033;65;000.398;MIDI 01
068.196;000.048;64;000.336;MIDI 01
068.218;000.081;58;000.391;MIDI 01
068.264;000.101;62;000.461;MIDI 01
068.386;000.068;64;000.445;MIDI 01
068.391;000.134;60;000.328;MIDI 01
068.546;000.124;58;000.312;MIDI 01
068.686;000.099;53;000.359;MIDI 01
068.696;000.139;68;000.406;MIDI 01
068.855;000.134;72;000.445;MIDI 01
069.024;000.113;56;000.414;MIDI 01
069.008;000.152;71;000.484;MIDI 01
069.151;000.123;72;000.539;MIDI 01
069.335;000.079;53;000.352;MIDI 01
069.310;000.147;73;000.492;MIDI 01
069.454;000.138;72;000.461;MIDI 01
069.633;000.119;61;000.383;MIDI 01
069.638;000.125;71;000.406;MIDI 01
069.777;000.119;72;000.430;MIDI 01
069.925;000.144;52;000.375;MIDI 01
069.920;000.176;67;000.375;MIDI 01
070.079;000.161;72;000.461;MIDI 01
070.248;000.104;55;000.414;MIDI 01
070.252;000.148;71;000.523;MIDI 01
070.399;000.128;72;000.547;MIDI 01
070.559;000.101;51;000.438;MIDI 01
070.546;000.169;73;000.531;MIDI 01
070.699;000.141;72;000.500;MIDI 01
070.868;000.111;60;000.414;MIDI 01
070.870;000.155;71;000.477;MIDI 01
071.011;000.135;72;000.516;MIDI 01
071.178;000.106;50;000.438;MIDI 01
071.180;000.120;65;000.461;MIDI 01
071.304;000.189;72;000.523;MIDI 01
071.498;000.071;53;000.461;MIDI 01
071.467;000.204;74;000.578;MIDI 01
071.618;000.157;76;000.586;MIDI 01
071.781;000.078;49;000.453;MIDI 01
071.775;000.176;77;000.570;MIDI 01
071.927;000.148;70;000.578;MIDI 01
072.090;000.119;58;000.453;MIDI 01
072.088;000.166;69;000.547;MIDI 01
072.229;000.132;70;000.578;MIDI 01
072.409;000.135;48;000.375;MIDI 01
072.400;000.236;79;000.477;MIDI 01
072.545;000.200;77;000.531;MIDI 01
072.710;000.128;50;000.430;MIDI 01
072.698;000.180;76;000.539;MIDI 01
072.849;000.110;74;000.594;MIDI 01
073.023;000.100;52;000.492;MIDI 01
072.998;000.146;72;000.539;MIDI 01
073.147;000.189;70;000.508;MIDI 01
073.322;000.089;48;000.406;MIDI 01
073.298;000.153;68;000.500;MIDI 01
073.451;000.111;67;000.500;MIDI 01
073.615;000.112;53;000.375;MIDI 01
073.607;000.145;68;000.508;MIDI 01
073.765;000.111;56;000.453;MIDI 01
073.763;000.122;65;000.523;MIDI 01
073.914;000.102;55;000.477;MIDI 01
073.910;000.148;64;000.516;MIDI 01
074.064;000.100;56;000.430;MIDI 01
074.052;000.114;65;000.562;MIDI 01
074.215;000.142;72;000.562;MIDI 01
074.210;000.160;51;000.500;MIDI 01
074.360;000.100;60;000.445;MIDI 01
074.355;000.111;68;000.547;MIDI 01
074.510;000.105;58;000.445;MIDI 01
074.498;000.166;67;000.539;MIDI 01
074.642;000.108;60;000.445;MIDI 01
074.649;000.116;68;000.539;MIDI 01
074.824;000.091;49;000.469;MIDI 01
074.815;000.148;77;000.508;MIDI 01
074.963;000.222;75;000.508;MIDI 01
075.116;000.084;53;000.430;MIDI 01
075.128;000.105;73;000.523;MIDI 01
075.258;000.135;72;000.516;MIDI 01
075.433;000.084;58;000.422;MIDI 01
075.418;000.175;70;000.477;MIDI 01
075.568;000.168;68;000.461;MIDI 01
075.729;000.094;61;000.430;MIDI 01
075.727;000.116;67;000.477;MIDI 01
075.878;000.118;65;000.461;MIDI 01
076.014;000.146;51;000.438;MIDI 01
076.030;000.136;67;000.461;MIDI 01
076.171;000.126;55;000.453;MIDI 01
076.174;000.125;63;000.516;MIDI 01
076.325;000.112;53;000.477;MIDI 01
076.323;000.152;62;000.508;MIDI 01
076.474;000.102;55;000.484;MIDI 01
076.464;000.115;63;000.531;MIDI 01
076.617;000.143;70;000.523;MIDI 01
076.623;000.140;49;000.508;MIDI 01
076.780;000.079;58;000.469;MIDI 01
076.761;000.124;67;000.523;MIDI 01
076.914;000.108;56;000.469;MIDI 01
076.920;000.135;65;000.484;MIDI 01
077.047;000.067;58;000.422;MIDI 01
077.050;000.105;67;000.539;MIDI 01
077.213;000.078;48;000.422;MIDI 01
077.218;000.150;75;000.500;MIDI 01
077.361;000.136;73;000.492;MIDI 01
077.537;000.074;51;000.438;MIDI 01
077.515;000.131;72;000.500;MIDI 01
077.661;000.164;70;000.492;MIDI 01
077.833;000.074;56;000.422;MIDI 01
077.810;000.152;68;000.430;MIDI 01
077.949;000.105;67;000.469;MIDI 01
078.131;000.046;60;000.398;MIDI 01
078.105;000.124;65;000.461;MIDI 01
078.253;000.143;64;000.422;MIDI 01
078.410;000.089;65;000.453;MIDI 01
078.404;000.132;49;000.391;MIDI 01
078.568;000.125;53;000.406;MIDI 01
078.720;000.101;51;000.469;MIDI 01
078.724;000.199;69;000.477;MIDI 01
078.869;000.115;53;000.414;MIDI 01
079.027;000.123;54;000.453;MIDI 01
079.176;000.126;53;000.414;MIDI 01
079.029;000.292;70;000.484;MIDI 01
079.330;000.114;51;000.492;MIDI 01
079.339;000.221;72;000.516;MIDI 01
079.487;000.092;53;000.430;MIDI 01
079.636;000.157;46;000.453;MIDI 01
079.802;000.096;53;000.375;MIDI 01
079.652;000.293;73;000.531;MIDI 01
079.955;000.122;55;000.492;MIDI 01
080.116;000.081;56;000.469;MIDI 01
079.928;000.349;76;000.562;MIDI 01
080.245;000.133;55;000.484;MIDI 01
080.399;000.123;53;000.469;MIDI 01
080.220;000.332;77;000.570;MIDI 01
080.536;000.096;52;000.453;MIDI 01
080.698;000.096;55;000.453;MIDI 01
080.544;000.284;79;000.555;MIDI 01
080.877;000.052;44;000.508;MIDI 01
080.859;000.180;72;000.531;MIDI 01
081.166;000.073;41;000.484;MIDI 01
081.003;000.321;76;000.531;MIDI 01
081.173;000.223;77;000.539;MIDI 01
081.312;000.144;80;000.500;MIDI 01
081.457;000.084;48;000.492;MIDI 01
081.463;000.126;70;000.531;MIDI 01
081.763;000.095;36;000.445;MIDI 01
081.625;000.235;79;000.570;MIDI 01
081.765;000.179;77;000.578;MIDI 01
081.907;000.148;76;000.555;MIDI 01
082.055;000.136;41;000.492;MIDI 01
082.062;000.131;68;000.516;MIDI 01
082.183;000.068;73;000.562;MIDI 01
082.249;000.115;72;000.508;MIDI 01
082.364;000.118;44;000.500;MIDI 01
082.359;000.161;76;000.555;MIDI 01
082.505;000.108;77;000.555;MIDI 01
082.659;000.102;46;000.461;MIDI 01
082.662;000.153;67;000.508;MIDI 01
082.972;000.096;48;000.477;MIDI 01
082.811;000.298;73;000.461;MIDI 01
082.966;000.179;72;000.500;MIDI 01
083.104;000.215;70;000.555;MIDI 01
083.263;000.126;68;000.539;MIDI 01
083.269;000.145;53;000.461;MIDI 01
083.397;000.174;67;000.555;MIDI 01
083.570;000.127;55;000.492;MIDI 01
083.558;000.160;65;000.555;MIDI 01
083.706;000.146;64;000.555;MIDI 01
083.882;000.102;56;000.492;MIDI 01
083.858;000.186;65;000.570;MIDI 01
084.011;000.227;68;000.523;MIDI 01
084.171;000.072;53;000.438;MIDI 01
084.169;000.128;60;000.477;MIDI 01
084.314;000.155;63;000.500;MIDI 01
084.475;000.096;58;000.469;MIDI 01
084.465;000.143;62;000.508;MIDI 01
084.607;000.183;68;000.461;MIDI 01
084.787;000.092;46;000.383;MIDI 01
084.767;000.174;65;000.461;MIDI 01
084.927;000.198;62;000.453;MIDI 01
085.094;000.239;58;000.453;MIDI 01
085.221;000.138;56;000.492;MIDI 01
085.390;000.142;55;000.477;MIDI 01
085.535;000.164;53;000.492;MIDI 01
085.698;000.104;51;000.500;MIDI 01
085.716;000.211;67;000.453;MIDI 01
085.859;000.164;65;000.445;MIDI 01
086.008;000.103;53;000.477;MIDI 01
085.997;000.154;63;000.500;MIDI 01
086.146;000.197;62;000.523;MIDI 01
086.319;000.099;55;000.492;MIDI 01
086.306;000.200;63;000.531;MIDI 01
086.620;000.084;51;000.461;MIDI 01
086.444;000.276;67;000.516;MIDI 01
086.612;000.144;59;000.484;MIDI 01
086.766;000.147;62;000.500;MIDI 01
086.925;000.103;56;000.430;MIDI 01
086.922;000.131;60;000.484;MIDI 01
087.226;000.080;44;000.375;MIDI 01
087.058;000.262;67;000.461;MIDI 01
087.232;000.164;63;000.438;MIDI 01
087.384;000.173;60;000.438;MIDI 01
087.562;000.157;56;000.469;MIDI 01
087.661;000.160;55;000.422;MIDI 01
087.819;000.157;53;000.477;MIDI 01
087.976;000.174;51;000.477;MIDI 01
088.136;000.098;50;000.469;MIDI 01
088.120;000.177;65;000.461;MIDI 01
088.277;000.173;63;000.484;MIDI 01
088.433;000.085;51;000.523;MIDI 01
088.408;000.152;62;000.523;MIDI 01
088.558;000.202;60;000.523;MIDI 01
088.739;000.093;53;000.516;MIDI 01
088.716;000.188;62;000.562;MIDI 01
088.873;000.221;65;000.484;MIDI 01
089.044;000.092;50;000.492;MIDI 01
089.037;000.165;68;000.547;MIDI 01
089.182;000.140;60;000.516;MIDI 01
089.330;000.097;55;000.508;MIDI 01
089.320;000.158;59;000.562;MIDI 01
089.634;000.074;43;000.477;MIDI 01
089.476;000.240;65;000.508;MIDI 01
089.628;000.189;62;000.523;MIDI 01
089.790;000.135;59;000.547;MIDI 01
089.947;000.155;55;000.500;MIDI 01
090.100;000.124;53;000.500;MIDI 01
090.092;000.220;59;000.539;MIDI 01
090.251;000.135;60;000.562;MIDI 01
090.242;000.148;51;000.492;MIDI 01
090.376;000.062;62;000.578;MIDI 01
090.384;000.080;50;000.523;MIDI 01
090.540;000.228;48;000.484;MIDI 01
090.723;000.115;50;000.414;MIDI 01
090.857;000.093;67;000.594;MIDI 01
090.852;000.122;51;000.531;MIDI 01
090.991;000.128;48;000.523;MIDI 01
091.156;000.111;44;000.531;MIDI 01
090.551;000.795;63;000.547;MIDI 01
091.314;000.128;55;000.516;MIDI 01
091.322;000.203;70;000.555;MIDI 01
091.456;000.151;53;000.500;MIDI 01
091.458;000.178;68;000.539;MIDI 01
091.604;000.097;51;000.539;MIDI 01
091.594;000.136;67;000.555;MIDI 01
091.735;000.130;50;000.469;MIDI 01
091.741;000.174;65;000.562;MIDI 01
091.878;000.110;51;000.523;MIDI 01
091.905;000.130;67;000.555;MIDI 01
092.044;000.157;53;000.484;MIDI 01
092.060;000.166;68;000.539;MIDI 01
091.164;001.099;72;000.625;MIDI 01
092.189;000.106;50;000.484;MIDI 01
092.197;000.139;65;000.578;MIDI 01
092.344;000.090;46;000.523;MIDI 01
092.353;000.210;62;000.562;MIDI 01
092.502;000.067;56;000.531;MIDI 01
092.498;000.220;72;000.555;MIDI 01
092.632;000.106;55;000.477;MIDI 01
092.634;000.193;70;000.547;MIDI 01
092.779;000.098;53;000.500;MIDI 01
092.787;000.136;68;000.539;MIDI 01
092.942;000.080;51;000.508;MIDI 01
092.935;000.177;67;000.547;MIDI 01
093.096;000.191;68;000.539;MIDI 01
093.251;000.100;50;000.422;MIDI 01
093.253;000.146;70;000.539;MIDI 01
093.385;000.180;67;000.562;MIDI 01
093.549;000.088;60;000.492;MIDI 01
093.578;000.105;51;000.508;MIDI 01
093.716;000.198;73;000.562;MIDI 01
093.869;000.103;52;000.508;MIDI 01
093.858;000.173;72;000.555;MIDI 01
094.003;000.153;70;000.570;MIDI 01
094.166;000.092;53;000.523;MIDI 01
094.147;000.168;68;000.578;MIDI 01
094.303;000.215;70;000.609;MIDI 01
094.471;000.116;52;000.500;MIDI 01
094.474;000.163;72;000.539;MIDI 01
094.607;000.180;68;000.562;MIDI 01
094.761;000.094;62;000.539;MIDI 01
094.769;000.106;53;000.500;MIDI 01
094.928;000.192;75;000.547;MIDI 01
095.080;000.084;54;000.492;MIDI 01
095.068;000.190;74;000.602;MIDI 01
095.213;000.200;72;000.562;MIDI 01
095.385;000.103;55;000.469;MIDI 01
095.376;000.220;71;000.539;MIDI 01
095.542;000.129;53;000.492;MIDI 01
095.526;000.186;67;000.547;MIDI 01
095.693;000.155;51;000.523;MIDI 01
095.834;000.090;53;000.508;MIDI 01
095.822;000.201;74;000.586;MIDI 01
095.984;000.078;55;000.500;MIDI 01
095.986;000.201;75;000.586;MIDI 01
096.131;000.173;67;000.492;MIDI 01
096.315;000.061;43;000.406;MIDI 01
095.675;000.721;72;000.562;MIDI 01
096.369;000.058;71;000.359;MIDI 01
096.308;000.131;74;000.523;MIDI 01
096.498;000.162;65;000.469;MIDI 01
096.669;000.096;36;000.461;MIDI 01
096.847;000.133;48;000.414;MIDI 01
096.984;000.124;51;000.453;MIDI 01
097.169;000.154;55;000.391;MIDI 01
097.408;000.477;60;000.367;MIDI 01
096.713;001.218;63;000.297;MIDI 01
096.649;001.314;67;000.477;MIDI 01
096.667;001.334;72;000.547;MIDI 01
098.077;000.110;51;000.359;MIDI 01
098.235;000.121;70;000.359;MIDI 01
098.393;000.065;53;000.352;MIDI 01
098.406;000.188;69;000.305;MIDI 01
098.537;000.141;70;000.422;MIDI 01
098.695;000.103;55;000.367;MIDI 01
098.705;000.160;75;000.414;MIDI 01
098.849;000.134;70;000.484;MIDI 01
098.996;000.116;51;000.453;MIDI 01
099.005;000.203;69;000.453;MIDI 01
099.152;000.152;70;000.500;MIDI 01
099.309;000.114;50;000.422;MIDI 01
099.303;000.177;77;000.508;MIDI 01
099.466;000.125;70;000.531;MIDI 01
099.611;000.119;48;000.461;MIDI 01
099.616;000.140;69;000.516;MIDI 01
099.755;000.133;70;000.531;MIDI 01
099.909;000.074;50;000.469;MIDI 01
099.900;000.180;80;000.500;MIDI 01
100.053;000.093;70;000.500;MIDI 01
100.226;000.076;46;000.320;MIDI 01
100.181;000.191;69;000.453;MIDI 01
100.321;000.104;70;000.484;MIDI 01
100.485;000.042;79;000.500;MIDI 01
100.469;000.082;51;000.398;MIDI 01
100.629;000.115;55;000.359;MIDI 01
100.782;000.041;75;000.477;MIDI 01
100.794;000.070;56;000.406;MIDI 01
100.924;000.075;55;000.406;MIDI 01
100.971;000.049;74;000.523;MIDI 01
101.050;000.048;72;000.523;MIDI 01
101.060;000.056;44;000.414;MIDI 01
101.148;000.045;74;000.258;MIDI 01
101.216;000.052;72;000.172;MIDI 01
101.192;000.123;55;000.391;MIDI 01
101.242;000.096;71;000.477;MIDI 01
101.360;000.083;56;000.406;MIDI 01
101.365;000.209;72;000.438;MIDI 01
101.513;000.114;55;000.391;MIDI 01
101.666;000.053;77;000.492;MIDI 01
101.669;000.080;50;000.461;MIDI 01
101.836;000.096;53;000.367;MIDI 01
101.948;000.043;74;000.539;MIDI 01
101.961;000.075;55;000.430;MIDI 01
102.095;000.080;53;000.469;MIDI 01
102.146;000.048;72;000.500;MIDI 01
102.218;000.045;71;000.539;MIDI 01
102.221;000.069;43;000.445;MIDI 01
102.286;000.048;72;000.539;MIDI 01
102.357;000.053;71;000.500;MIDI 01
102.359;000.115;53;000.398;MIDI 01
102.449;000.066;69;000.359;MIDI 01
102.552;000.062;71;000.477;MIDI 01
102.528;000.121;55;000.375;MIDI 01
102.684;000.164;53;000.352;MIDI 01
102.823;000.141;75;000.469;MIDI 01
102.999;000.075;63;000.430;MIDI 01
103.127;000.117;60;000.414;MIDI 01
103.136;000.154;62;000.445;MIDI 01
103.276;000.137;63;000.445;MIDI 01
103.430;000.109;58;000.453;MIDI 01
103.438;000.141;67;000.461;MIDI 01
103.592;000.119;63;000.438;MIDI 01
103.731;000.081;56;000.438;MIDI 01
103.745;000.131;62;000.453;MIDI 01
103.890;000.124;63;000.453;MIDI 01
104.025;000.085;55;000.469;MIDI 01
104.032;000.139;70;000.516;MIDI 01
104.175;000.102;63;000.477;MIDI 01
104.329;000.104;53;000.461;MIDI 01
104.310;000.151;62;000.461;MIDI 01
104.456;000.143;63;000.492;MIDI 01
104.632;000.081;55;000.398;MIDI 01
104.626;000.150;73;000.469;MIDI 01
104.765;000.096;63;000.461;MIDI 01
104.931;000.068;51;000.375;MIDI 01
104.897;000.202;62;000.414;MIDI 01
105.042;000.110;63;000.453;MIDI 01
105.215;000.035;72;000.398;MIDI 01
105.213;000.061;56;000.414;MIDI 01
105.348;000.064;60;000.359;MIDI 01
105.479;000.043;68;000.461;MIDI 01
105.495;000.059;61;000.453;MIDI 01
105.620;000.045;60;000.344;MIDI 01
105.675;000.032;67;000.414;MIDI 01
105.735;000.042;65;000.500;MIDI 01
105.741;000.053;49;000.375;MIDI 01
105.829;000.035;67;000.328;MIDI 01
105.869;000.082;60;000.359;MIDI 01
105.947;000.065;64;000.406;MIDI 01
106.033;000.071;61;000.398;MIDI 01
106.057;000.182;65;000.445;MIDI 01
106.197;000.101;60;000.312;MIDI 01
106.361;000.061;70;000.445;MIDI 01
106.345;000.092;55;000.406;MIDI 01
106.508;000.057;58;000.320;MIDI 01
106.638;000.043;67;000.492;MIDI 01
106.631;000.127;60;000.422;MIDI 01
106.781;000.075;58;000.273;MIDI 01
106.829;000.045;65;000.383;MIDI 01
106.894;000.055;64;000.516;MIDI 01
106.873;000.091;48;000.430;MIDI 01
106.975;000.043;65;000.469;MIDI 01
107.047;000.043;64;000.406;MIDI 01
107.022;000.095;58;000.406;MIDI 01
107.117;000.114;62;000.422;MIDI 01
107.221;000.080;64;000.438;MIDI 01
107.188;000.139;60;000.359;MIDI 01
107.343;000.155;58;000.281;MIDI 01
107.517;000.136;53;000.336;MIDI 01
107.560;000.144;68;000.336;MIDI 01
107.718;000.134;72;000.422;MIDI 01
107.878;000.121;56;000.422;MIDI 01
107.883;000.141;71;000.438;MIDI 01
108.024;000.130;72;000.469;MIDI 01
108.185;000.120;53;000.383;MIDI 01
108.183;000.137;73;000.461;MIDI 01
108.329;000.105;72;000.445;MIDI 01
108.465;000.141;71;000.398;MIDI 01
108.506;000.112;61;000.422;MIDI 01
108.617;000.149;72;000.422;MIDI 01
108.791;000.156;52;000.359;MIDI 01
108.793;000.236;67;000.406;MIDI 01
108.951;000.149;72;000.453;MIDI 01
109.127;000.118;55;000.398;MIDI 01
109.117;000.160;71;000.461;MIDI 01
109.263;000.132;72;000.523;MIDI 01
109.450;000.085;51;000.383;MIDI 01
109.421;000.188;73;000.492;MIDI 01
109.583;000.136;72;000.492;MIDI 01
109.761;000.107;60;000.367;MIDI 01
109.753;000.203;71;000.484;MIDI 01
109.896;000.134;72;000.500;MIDI 01
110.053;000.127;50;000.375;MIDI 01
110.055;000.138;65;000.453;MIDI 01
110.189;000.175;72;000.523;MIDI 01
110.382;000.082;53;000.438;MIDI 01
110.349;000.246;74;000.562;MIDI 01
110.500;000.157;76;000.570;MIDI 01
110.689;000.078;49;000.422;MIDI 01
110.661;000.154;77;000.555;MIDI 01
110.803;000.144;70;000.555;MIDI 01
110.983;000.126;58;000.398;MIDI 01
110.960;000.166;69;000.539;MIDI 01
111.103;000.168;70;000.570;MIDI 01
111.286;000.146;48;000.383;MIDI 01
111.278;000.281;79;000.531;MIDI 01
111.441;000.213;77;000.516;MIDI 01
111.592;000.140;50;000.414;MIDI 01
111.585;000.185;76;000.555;MIDI 01
111.740;000.111;74;000.570;MIDI 01
111.906;000.101;52;000.477;MIDI 01
111.885;000.150;72;000.508;MIDI 01
112.036;000.191;70;000.492;MIDI 01
112.205;000.088;48;000.406;MIDI 01
112.194;000.145;68;000.492;MIDI 01
112.348;000.112;67;000.469;MIDI 01
112.483;000.119;53;000.375;MIDI 01
112.504;000.138;68;000.477;MIDI 01
112.640;000.125;56;000.445;MIDI 01
112.655;000.111;65;000.508;MIDI 01
112.797;000.095;55;000.438;MIDI 01
112.800;000.149;64;000.477;MIDI 01
112.941;000.108;56;000.453;MIDI 01
112.944;000.109;65;000.516;MIDI 01
113.091;000.112;51;000.484;MIDI 01
113.101;000.143;72;000.539;MIDI 01
113.242;000.103;60;000.445;MIDI 01
113.244;000.103;68;000.531;MIDI 01
113.401;000.110;58;000.398;MIDI 01
113.383;000.154;67;000.500;MIDI 01
113.523;000.092;60;000.438;MIDI 01
113.525;000.108;68;000.516;MIDI 01
113.699;000.100;49;000.430;MIDI 01
113.690;000.141;77;000.477;MIDI 01
113.834;000.218;75;000.484;MIDI 01
113.991;000.081;53;000.422;MIDI 01
113.999;000.112;73;000.516;MIDI 01
114.136;000.136;72;000.500;MIDI 01
114.317;000.073;58;000.367;MIDI 01
114.292;000.171;70;000.469;MIDI 01
114.429;000.184;68;000.477;MIDI 01
114.609;000.084;61;000.398;MIDI 01
114.605;000.109;67;000.438;MIDI 01
114.752;000.149;65;000.453;MIDI 01
114.901;000.124;51;000.438;MIDI 01
114.910;000.127;67;000.438;MIDI 01
115.062;000.107;55;000.414;MIDI 01
115.050;000.125;63;000.484;MIDI 01
115.208;000.090;53;000.430;MIDI 01
115.204;000.157;62;000.500;MIDI 01
115.351;000.090;55;000.445;MIDI 01
115.347;000.123;63;000.523;MIDI 01
115.496;000.123;49;000.492;MIDI 01
115.507;000.134;70;000.523;MIDI 01
115.655;000.077;58;000.430;MIDI 01
115.647;000.121;67;000.539;MIDI 01
115.793;000.109;56;000.430;MIDI 01
115.809;000.135;65;000.508;MIDI 01
115.938;000.056;58;000.422;MIDI 01
115.948;000.100;67;000.508;MIDI 01
116.105;000.107;48;000.430;MIDI 01
116.115;000.141;75;000.477;MIDI 01
116.252;000.133;73;000.492;MIDI 01
116.421;000.078;51;000.430;MIDI 01
116.401;000.141;72;000.508;MIDI 01
116.559;000.165;70;000.484;MIDI 01
116.728;000.081;56;000.398;MIDI 01
116.708;000.157;68;000.438;MIDI 01
116.855;000.100;67;000.445;MIDI 01
117.014;000.053;60;000.414;MIDI 01
117.006;000.121;65;000.469;MIDI 01
117.156;000.143;64;000.414;MIDI 01
117.311;000.090;65;000.461;MIDI 01
117.303;000.125;49;000.398;MIDI 01
117.466;000.126;53;000.406;MIDI 01
117.630;000.073;69;000.461;MIDI 01
117.622;000.128;51;000.461;MIDI 01
117.772;000.141;53;000.430;MIDI 01
117.930;000.125;70;000.508;MIDI 01
117.951;000.118;54;000.453;MIDI 01
118.093;000.142;53;000.430;MIDI 01
118.256;000.118;51;000.461;MIDI 01
118.258;000.127;72;000.469;MIDI 01
118.416;000.094;53;000.414;MIDI 01
118.561;000.111;73;000.547;MIDI 01
118.548;000.167;46;000.445;MIDI 01
118.695;000.103;53;000.453;MIDI 01
118.867;000.121;76;000.578;MIDI 01
118.852;000.138;55;000.484;MIDI 01
119.015;000.092;56;000.492;MIDI 01
119.168;000.120;77;000.562;MIDI 01
119.156;000.134;55;000.508;MIDI 01
119.311;000.136;53;000.492;MIDI 01
119.464;000.086;52;000.539;MIDI 01
119.468;000.118;79;000.570;MIDI 01
119.618;000.141;53;000.508;MIDI 01
119.787;000.086;44;000.539;MIDI 01
119.792;000.150;72;000.547;MIDI 01
119.928;000.239;76;000.562;MIDI 01
120.110;000.110;41;000.484;MIDI 01
120.093;000.228;77;000.562;MIDI 01
120.243;000.149;80;000.555;MIDI 01
120.401;000.092;48;000.516;MIDI 01
120.405;000.131;70;000.578;MIDI 01
120.569;000.219;79;000.570;MIDI 01
120.707;000.116;36;000.492;MIDI 01
120.714;000.185;77;000.570;MIDI 01
120.855;000.129;76;000.586;MIDI 01
121.017;000.146;68;000.523;MIDI 01
121.019;000.180;41;000.508;MIDI 01
121.164;000.185;72;000.531;MIDI 01
121.329;000.121;44;000.492;MIDI 01
121.324;000.173;76;000.586;MIDI 01
121.487;000.103;77;000.539;MIDI 01
121.638;000.139;46;000.492;MIDI 01
121.647;000.139;67;000.500;MIDI 01
121.780;000.211;73;000.531;MIDI 01
121.948;000.128;48;000.453;MIDI 01
121.933;000.177;72;000.516;MIDI 01
122.073;000.223;70;000.555;MIDI 01
122.237;000.142;68;000.547;MIDI 01
122.249;000.150;53;000.469;MIDI 01
122.389;000.161;67;000.555;MIDI 01
122.544;000.153;65;000.547;MIDI 01
122.554;000.146;55;000.484;MIDI 01
122.696;000.152;64;000.547;MIDI 01
122.864;000.107;56;000.508;MIDI 01
122.852;000.168;65;000.547;MIDI 01
123.002;000.211;68;000.523;MIDI 01
123.148;000.086;53;000.445;MIDI 01
123.152;000.133;60;000.477;MIDI 01
123.309;000.140;63;000.492;MIDI 01
123.467;000.110;58;000.398;MIDI 01
123.453;000.136;62;000.508;MIDI 01
123.600;000.199;68;000.477;MIDI 01
123.769;000.084;46;000.383;MIDI 01
123.767;000.179;65;000.477;MIDI 01
123.921;000.185;62;000.461;MIDI 01
124.077;000.223;58;000.492;MIDI 01
124.240;000.115;56;000.492;MIDI 01
124.390;000.149;55;000.461;MIDI 01
124.543;000.165;53;000.508;MIDI 01
124.703;000.100;51;000.500;MIDI 01
124.720;000.246;67;000.461;MIDI 01
124.869;000.182;65;000.445;MIDI 01
125.013;000.102;53;000.477;MIDI 01
125.006;000.155;63;000.516;MIDI 01
125.157;000.200;62;000.531;MIDI 01
125.307;000.104;55;000.484;MIDI 01
125.315;000.213;63;000.562;MIDI 01
125.467;000.203;67;000.523;MIDI 01
125.617;000.069;51;000.500;MIDI 01
125.619;000.141;59;000.516;MIDI 01
125.771;000.150;62;000.531;MIDI 01
125.921;000.105;56;000.469;MIDI 01
125.927;000.138;60;000.531;MIDI 01
126.230;000.096;44;000.430;MIDI 01
126.071;000.273;67;000.484;MIDI 01
126.234;000.169;63;000.461;MIDI 01
126.383;000.157;60;000.445;MIDI 01
126.553;000.148;56;000.477;MIDI 01
126.701;000.117;55;000.461;MIDI 01
126.841;000.136;53;000.445;MIDI 01
127.003;000.124;51;000.430;MIDI 01
127.146;000.084;50;000.414;MIDI 01
127.169;000.174;65;000.414;MIDI 01
127.323;000.181;63;000.438;MIDI 01
127.476;000.073;51;000.453;MIDI 01
127.467;000.150;62;000.508;MIDI 01
127.614;000.198;60;000.500;MIDI 01
127.798;000.078;53;000.477;MIDI 01
127.771;000.197;62;000.586;MIDI 01
127.933;000.231;65;000.492;MIDI 01
128.106;000.070;50;000.461;MIDI 01
128.088;000.164;68;000.523;MIDI 01
128.234;000.151;60;000.523;MIDI 01
128.398;000.082;55;000.500;MIDI 01
128.390;000.167;59;000.555;MIDI 01
128.711;000.078;43;000.484;MIDI 01
128.541;000.302;65;000.445;MIDI 01
128.685;000.167;62;000.516;MIDI 01
128.842;000.147;59;000.547;MIDI 01
128.989;000.161;55;000.547;MIDI 01
129.156;000.114;53;000.508;MIDI 01
129.143;000.235;59;000.570;MIDI 01
129.297;000.144;51;000.547;MIDI 01
129.306;000.156;60;000.570;MIDI 01
129.439;000.074;62;000.578;MIDI 01
129.442;000.091;50;000.531;MIDI 01
129.608;000.228;48;000.523;MIDI 01
129.786;000.112;50;000.469;MIDI 01
129.934;000.108;67;000.609;MIDI 01
129.928;000.132;51;000.555;MIDI 01
130.072;000.146;48;000.531;MIDI 01
130.257;000.109;44;000.555;MIDI 01
129.618;000.822;63;000.594;MIDI 01
130.417;000.148;55;000.523;MIDI 01
130.410;000.218;70;000.570;MIDI 01
130.565;000.155;53;000.500;MIDI 01
130.553;000.180;68;000.555;MIDI 01
130.714;000.096;51;000.547;MIDI 01
130.692;000.148;67;000.555;MIDI 01
130.840;000.137;50;000.500;MIDI 01
130.849;000.171;65;000.555;MIDI 01
130.995;000.105;51;000.547;MIDI 01
131.004;000.122;67;000.547;MIDI 01
131.153;000.144;53;000.523;MIDI 01
131.160;000.177;68;000.555;MIDI 01
130.251;001.107;72;000.633;MIDI 01
131.291;000.097;50;000.492;MIDI 01
131.297;000.142;65;000.562;MIDI 01
131.443;000.080;46;000.508;MIDI 01
131.450;000.215;62;000.570;MIDI 01
131.614;000.059;56;000.516;MIDI 01
131.607;000.223;72;000.570;MIDI 01
131.744;000.103;55;000.477;MIDI 01
131.739;000.204;70;000.562;MIDI 01
131.890;000.079;53;000.508;MIDI 01
131.894;000.143;68;000.555;MIDI 01
132.056;000.064;51;000.484;MIDI 01
132.045;000.172;67;000.555;MIDI 01
132.202;000.205;68;000.555;MIDI 01
132.364;000.092;50;000.430;MIDI 01
132.361;000.153;70;000.578;MIDI 01
132.506;000.174;67;000.578;MIDI 01
132.667;000.094;60;000.555;MIDI 01
132.680;000.104;51;000.492;MIDI 01
132.981;000.101;52;000.492;MIDI 01
132.831;000.253;73;000.570;MIDI 01
132.977;000.186;72;000.578;MIDI 01
133.121;000.166;70;000.602;MIDI 01
133.286;000.089;53;000.531;MIDI 01
133.274;000.166;68;000.602;MIDI 01
133.426;000.208;70;000.617;MIDI 01
133.591;000.129;52;000.484;MIDI 01
133.593;000.172;72;000.547;MIDI 01
133.738;000.171;68;000.586;MIDI 01
133.895;000.086;62;000.555;MIDI 01
133.905;000.110;53;000.516;MIDI 01
134.208;000.090;54;000.508;MIDI 01
134.064;000.276;75;000.578;MIDI 01
134.210;000.195;74;000.578;MIDI 01
134.350;000.218;72;000.602;MIDI 01
134.519;000.126;55;000.516;MIDI 01
134.514;000.215;71;000.570;MIDI 01
134.682;000.125;53;000.492;MIDI 01
134.658;000.179;67;000.578;MIDI 01
134.825;000.134;51;000.555;MIDI 01
134.967;000.094;53;000.523;MIDI 01
134.969;000.239;74;000.602;MIDI 01
135.136;000.101;55;000.516;MIDI 01
135.134;000.226;75;000.625;MIDI 01
135.292;000.171;67;000.523;MIDI 01
135.460;000.068;43;000.453;MIDI 01
134.821;000.730;72;000.578;MIDI 01
135.488;000.101;71;000.523;MIDI 01
135.475;000.139;74;000.594;MIDI 01
135.654;000.169;65;000.523;MIDI 01
135.853;000.106;36;000.461;MIDI 01
136.035;000.154;48;000.461;MIDI 01
136.190;000.151;51;000.453;MIDI 01
136.372;000.220;55;000.453;MIDI 01
135.846;002.206;67;000.445;MIDI 01
135.858;002.196;72;000.531;MIDI 01
135.865;002.254;63;000.430;MIDI 01
136.655;001.470;60;000.414;MIDI 01
