Start;Duration;Pitch;Velocity;Instrument
001.336;000.043;50;000.398;MIDI 01
001.396;000.082;49;000.570;MIDI 01
001.365;000.321;74;000.602;MIDI 01
001.471;000.247;50;000.688;MIDI 01
001.658;000.186;72;000.578;MIDI 01
001.789;000.216;70;000.547;MIDI 01
001.925;000.125;69;000.594;MIDI 01
002.061;000.248;67;000.570;MIDI 01
001.919;000.441;38;000.555;MIDI 01
002.198;000.169;65;000.570;MIDI 01
002.332;000.117;64;000.555;MIDI 01
002.460;000.130;62;000.586;MIDI 01
002.595;000.124;65;000.562;MIDI 01
002.717;000.089;64;000.562;MIDI 01
002.836;000.151;62;000.562;MIDI 01
002.966;000.129;70;000.531;MIDI 01
003.084;000.116;67;000.539;MIDI 01
003.214;000.066;38;000.477;MIDI 01
003.216;000.124;62;000.508;MIDI 01
003.339;000.125;67;000.531;MIDI 01
003.489;000.068;43;000.492;MIDI 01
003.485;000.115;70;000.555;MIDI 01
003.601;000.118;67;000.570;MIDI 01
003.751;000.044;46;000.547;MIDI 01
003.731;000.225;62;000.547;MIDI 01
003.866;000.132;67;000.547;MIDI 01
003.993;000.084;50;000.516;MIDI 01
004.004;000.153;70;000.570;MIDI 01
004.077;000.118;49;000.523;MIDI 01
004.129;000.126;67;000.547;MIDI 01
004.264;000.168;62;000.531;MIDI 01
004.199;000.287;50;000.531;MIDI 01
004.398;000.125;67;000.594;MIDI 01
004.539;000.155;69;000.539;MIDI 01
004.665;000.113;67;000.570;MIDI 01
004.774;000.067;38;000.422;MIDI 01
004.794;000.143;62;000.484;MIDI 01
004.920;000.108;67;000.523;MIDI 01
005.051;000.086;41;000.523;MIDI 01
005.049;000.131;69;000.555;MIDI 01
005.176;000.115;65;000.531;MIDI 01
005.323;000.048;45;000.578;MIDI 01
005.309;000.146;62;000.547;MIDI 01
005.443;000.121;65;000.547;MIDI 01
005.576;000.095;50;000.562;MIDI 01
005.580;000.134;69;000.547;MIDI 01
005.668;000.124;49;000.555;MIDI 01
005.684;000.126;65;000.555;MIDI 01
005.786;000.225;50;000.531;MIDI 01
005.825;000.199;62;000.523;MIDI 01
005.960;000.183;65;000.594;MIDI 01
006.089;000.131;67;000.562;MIDI 01
006.198;000.120;64;000.523;MIDI 01
006.343;000.058;58;000.422;MIDI 01
006.340;000.114;62;000.500;MIDI 01
006.467;000.112;64;000.492;MIDI 01
006.612;000.060;52;000.508;MIDI 01
006.595;000.138;67;000.531;MIDI 01
006.736;000.118;64;000.539;MIDI 01
006.873;000.065;55;000.555;MIDI 01
006.865;000.136;61;000.594;MIDI 01
006.990;000.116;64;000.578;MIDI 01
007.132;000.080;49;000.570;MIDI 01
007.121;000.165;67;000.547;MIDI 01
007.253;000.133;64;000.562;MIDI 01
007.396;000.076;57;000.570;MIDI 01
007.385;000.137;61;000.578;MIDI 01
007.518;000.147;64;000.578;MIDI 01
007.773;000.103;62;000.562;MIDI 01
007.897;000.107;60;000.508;MIDI 01
007.654;000.415;65;000.586;MIDI 01
007.651;000.423;50;000.516;MIDI 01
008.020;000.159;58;000.523;MIDI 01
008.148;000.095;57;000.516;MIDI 01
008.285;000.139;55;000.516;MIDI 01
008.424;000.105;53;000.508;MIDI 01
008.546;000.081;52;000.492;MIDI 01
008.645;000.133;50;000.500;MIDI 01
008.798;000.109;53;000.484;MIDI 01
008.920;000.089;52;000.453;MIDI 01
009.033;000.107;50;000.477;MIDI 01
009.180;000.097;58;000.406;MIDI 01
009.297;000.094;55;000.398;MIDI 01
009.429;000.042;62;000.469;MIDI 01
009.416;000.114;50;000.453;MIDI 01
009.558;000.071;55;000.453;MIDI 01
009.696;000.033;67;000.539;MIDI 01
009.683;000.091;58;000.445;MIDI 01
009.800;000.098;55;000.453;MIDI 01
009.938;000.034;70;000.617;MIDI 01
009.925;000.123;50;000.477;MIDI 01
010.045;000.094;55;000.477;MIDI 01
010.202;000.044;74;000.539;MIDI 01
010.173;000.095;58;000.477;MIDI 01
010.243;000.084;73;000.602;MIDI 01
010.296;000.100;55;000.469;MIDI 01
010.426;000.132;50;000.469;MIDI 01
010.566;000.093;55;000.477;MIDI 01
010.327;000.444;74;000.602;MIDI 01
010.706;000.089;57;000.453;MIDI 01
010.834;000.069;55;000.406;MIDI 01
010.971;000.043;62;000.453;MIDI 01
010.949;000.114;50;000.430;MIDI 01
011.067;000.080;55;000.430;MIDI 01
011.224;000.026;65;000.469;MIDI 01
011.207;000.089;57;000.391;MIDI 01
011.319;000.069;53;000.461;MIDI 01
011.478;000.032;69;000.523;MIDI 01
011.461;000.097;50;000.445;MIDI 01
011.576;000.055;53;000.422;MIDI 01
011.720;000.044;74;000.531;MIDI 01
011.694;000.105;57;000.453;MIDI 01
011.770;000.071;73;000.586;MIDI 01
011.823;000.072;53;000.453;MIDI 01
011.956;000.134;50;000.492;MIDI 01
012.090;000.069;53;000.508;MIDI 01
011.848;000.472;74;000.594;MIDI 01
012.215;000.122;55;000.516;MIDI 01
012.342;000.089;52;000.500;MIDI 01
012.485;000.045;67;000.578;MIDI 01
012.483;000.102;50;000.484;MIDI 01
012.603;000.106;52;000.500;MIDI 01
012.753;000.049;73;000.617;MIDI 01
012.755;000.122;55;000.523;MIDI 01
012.881;000.109;52;000.508;MIDI 01
013.017;000.071;76;000.656;MIDI 01
013.019;000.146;49;000.523;MIDI 01
013.151;000.098;52;000.516;MIDI 01
013.293;000.068;73;000.672;MIDI 01
013.279;000.164;55;000.539;MIDI 01
013.422;000.104;52;000.484;MIDI 01
013.557;000.062;69;000.656;MIDI 01
013.556;000.140;49;000.539;MIDI 01
013.681;000.104;52;000.562;MIDI 01
013.820;000.082;53;000.562;MIDI 01
013.817;000.290;74;000.664;MIDI 01
013.957;000.152;50;000.531;MIDI 01
014.099;000.128;52;000.531;MIDI 01
014.101;000.141;72;000.578;MIDI 01
014.225;000.134;53;000.555;MIDI 01
014.222;000.169;70;000.586;MIDI 01
014.358;000.084;55;000.570;MIDI 01
014.353;000.108;69;000.633;MIDI 01
014.475;000.123;57;000.531;MIDI 01
014.483;000.142;67;000.594;MIDI 01
014.611;000.115;65;000.602;MIDI 01
014.598;000.134;59;000.531;MIDI 01
014.746;000.086;61;000.539;MIDI 01
014.748;000.086;64;000.617;MIDI 01
014.877;000.064;65;000.664;MIDI 01
014.867;000.122;62;000.539;MIDI 01
015.002;000.132;60;000.555;MIDI 01
015.142;000.085;59;000.594;MIDI 01
015.281;000.132;57;000.531;MIDI 01
015.148;000.350;69;000.656;MIDI 01
015.407;000.093;59;000.570;MIDI 01
015.553;000.109;60;000.500;MIDI 01
015.533;000.131;67;000.539;MIDI 01
015.673;000.135;59;000.531;MIDI 01
015.669;000.152;69;000.547;MIDI 01
015.807;000.053;57;000.586;MIDI 01
015.806;000.070;71;000.625;MIDI 01
015.919;000.098;55;000.555;MIDI 01
015.927;000.129;72;000.633;MIDI 01
016.043;000.114;53;000.570;MIDI 01
016.057;000.169;74;000.609;MIDI 01
016.170;000.076;52;000.586;MIDI 01
016.300;000.084;50;000.531;MIDI 01
016.185;000.231;76;000.625;MIDI 01
016.298;000.141;77;000.602;MIDI 01
016.430;000.051;52;000.594;MIDI 01
016.439;000.211;79;000.609;MIDI 01
016.582;000.178;77;000.562;MIDI 01
016.703;000.066;55;000.570;MIDI 01
016.709;000.134;76;000.609;MIDI 01
016.850;000.169;74;000.578;MIDI 01
016.992;000.124;76;000.609;MIDI 01
016.970;000.155;48;000.578;MIDI 01
017.139;000.096;72;000.539;MIDI 01
017.251;000.119;50;000.508;MIDI 01
017.277;000.144;71;000.523;MIDI 01
017.380;000.144;52;000.516;MIDI 01
017.401;000.170;69;000.586;MIDI 01
017.515;000.082;53;000.523;MIDI 01
017.532;000.101;67;000.586;MIDI 01
017.627;000.135;55;000.531;MIDI 01
017.649;000.127;65;000.539;MIDI 01
017.758;000.102;57;000.531;MIDI 01
017.774;000.123;64;000.578;MIDI 01
017.901;000.076;59;000.555;MIDI 01
017.903;000.132;62;000.578;MIDI 01
018.033;000.061;64;000.664;MIDI 01
018.031;000.134;60;000.508;MIDI 01
018.174;000.144;58;000.547;MIDI 01
018.322;000.086;57;000.547;MIDI 01
018.449;000.171;55;000.523;MIDI 01
018.315;000.327;67;000.617;MIDI 01
018.584;000.094;57;000.516;MIDI 01
018.701;000.129;65;000.523;MIDI 01
018.714;000.119;58;000.516;MIDI 01
018.830;000.102;57;000.578;MIDI 01
018.968;000.049;55;000.555;MIDI 01
018.836;000.225;67;000.570;MIDI 01
018.972;000.133;69;000.609;MIDI 01
019.094;000.082;70;000.625;MIDI 01
019.092;000.121;53;000.547;MIDI 01
019.210;000.094;51;000.562;MIDI 01
019.217;000.141;72;000.609;MIDI 01
019.336;000.055;50;000.578;MIDI 01
019.350;000.153;74;000.609;MIDI 01
019.462;000.070;48;000.609;MIDI 01
019.479;000.110;75;000.602;MIDI 01
019.609;000.046;50;000.625;MIDI 01
019.594;000.178;77;000.570;MIDI 01
019.731;000.166;75;000.609;MIDI 01
019.906;000.041;53;000.430;MIDI 01
019.911;000.038;55;000.359;MIDI 01
019.876;000.110;74;000.602;MIDI 01
020.002;000.153;72;000.578;MIDI 01
020.159;000.086;46;000.562;MIDI 01
020.144;000.123;74;000.617;MIDI 01
020.293;000.129;77;000.547;MIDI 01
020.414;000.051;58;000.539;MIDI 01
020.421;000.077;74;000.570;MIDI 01
020.543;000.058;60;000.578;MIDI 01
020.531;000.134;72;000.555;MIDI 01
020.660;000.055;62;000.648;MIDI 01
020.657;000.128;70;000.594;MIDI 01
020.816;000.140;74;000.539;MIDI 01
020.931;000.066;65;000.570;MIDI 01
020.945;000.113;70;000.602;MIDI 01
021.073;000.118;69;000.547;MIDI 01
021.204;000.072;58;000.500;MIDI 01
021.207;000.101;67;000.578;MIDI 01
021.344;000.132;70;000.531;MIDI 01
021.471;000.078;62;000.531;MIDI 01
021.473;000.096;67;000.555;MIDI 01
021.597;000.148;65;000.539;MIDI 01
021.738;000.068;64;000.594;MIDI 01
021.736;000.101;55;000.430;MIDI 01
021.846;000.148;58;000.516;MIDI 01
021.997;000.059;76;000.617;MIDI 01
021.994;000.146;55;000.562;MIDI 01
022.134;000.060;77;000.648;MIDI 01
022.127;000.135;53;000.555;MIDI 01
022.264;000.056;79;000.680;MIDI 01
022.272;000.105;52;000.531;MIDI 01
022.424;000.156;55;000.547;MIDI 01
022.539;000.065;82;000.625;MIDI 01
022.554;000.119;52;000.508;MIDI 01
022.688;000.090;50;000.508;MIDI 01
022.797;000.055;76;000.641;MIDI 01
022.799;000.081;49;000.555;MIDI 01
022.929;000.146;52;000.523;MIDI 01
023.057;000.065;79;000.617;MIDI 01
023.054;000.135;49;000.547;MIDI 01
023.194;000.074;47;000.547;MIDI 01
023.325;000.054;45;000.617;MIDI 01
023.310;000.131;73;000.609;MIDI 01
023.465;000.139;79;000.531;MIDI 01
023.579;000.048;57;000.594;MIDI 01
023.591;000.100;73;000.578;MIDI 01
023.711;000.050;59;000.617;MIDI 01
023.714;000.102;71;000.547;MIDI 01
023.826;000.061;61;000.680;MIDI 01
023.835;000.120;69;000.609;MIDI 01
023.992;000.170;76;000.547;MIDI 01
024.108;000.069;64;000.578;MIDI 01
024.127;000.097;69;000.555;MIDI 01
024.259;000.118;67;000.516;MIDI 01
024.377;000.062;57;000.508;MIDI 01
024.382;000.103;65;000.547;MIDI 01
024.520;000.156;73;000.516;MIDI 01
024.649;000.051;55;000.516;MIDI 01
024.653;000.100;65;000.547;MIDI 01
024.781;000.087;64;000.492;MIDI 01
024.908;000.049;62;000.594;MIDI 01
024.903;000.086;53;000.461;MIDI 01
025.033;000.106;62;000.492;MIDI 01
025.156;000.046;74;000.602;MIDI 01
025.183;000.131;53;000.539;MIDI 01
025.300;000.056;76;000.680;MIDI 01
025.316;000.118;52;000.547;MIDI 01
025.440;000.051;77;000.633;MIDI 01
025.454;000.092;50;000.516;MIDI 01
025.585;000.144;57;000.500;MIDI 01
025.709;000.036;81;000.570;MIDI 01
025.734;000.051;50;000.461;MIDI 01
025.847;000.097;48;000.492;MIDI 01
025.952;000.036;74;000.602;MIDI 01
025.975;000.070;46;000.516;MIDI 01
026.096;000.118;53;000.453;MIDI 01
026.219;000.035;72;000.602;MIDI 01
026.214;000.107;46;000.500;MIDI 01
026.321;000.134;45;000.516;MIDI 01
026.473;000.058;43;000.547;MIDI 01
026.481;000.099;70;000.539;MIDI 01
026.619;000.104;79;000.492;MIDI 01
026.735;000.049;55;000.539;MIDI 01
026.767;000.062;70;000.500;MIDI 01
026.868;000.055;57;000.547;MIDI 01
026.872;000.111;69;000.508;MIDI 01
026.988;000.052;58;000.617;MIDI 01
026.996;000.119;67;000.547;MIDI 01
027.153;000.143;70;000.484;MIDI 01
027.264;000.080;62;000.578;MIDI 01
027.279;000.091;67;000.547;MIDI 01
027.408;000.144;65;000.523;MIDI 01
027.559;000.100;63;000.531;MIDI 01
027.541;000.126;55;000.523;MIDI 01
027.682;000.157;70;000.492;MIDI 01
027.837;000.064;58;000.445;MIDI 01
027.829;000.092;63;000.453;MIDI 01
027.962;000.096;62;000.453;MIDI 01
028.094;000.105;61;000.453;MIDI 01
028.090;000.223;57;000.406;MIDI 01
028.230;000.157;69;000.422;MIDI 01
028.384;000.047;64;000.398;MIDI 01
028.372;000.108;61;000.430;MIDI 01
028.512;000.146;59;000.406;MIDI 01
028.652;000.055;57;000.398;MIDI 01
028.670;000.105;61;000.414;MIDI 01
028.810;000.109;69;000.383;MIDI 01
028.935;000.052;64;000.438;MIDI 01
028.948;000.084;61;000.453;MIDI 01
029.089;000.100;69;000.422;MIDI 01
029.209;000.058;57;000.438;MIDI 01
029.219;000.094;61;000.469;MIDI 01
029.357;000.105;69;000.453;MIDI 01
029.494;000.045;64;000.492;MIDI 01
029.496;000.092;61;000.500;MIDI 01
029.632;000.117;69;000.477;MIDI 01
029.771;000.092;61;000.508;MIDI 01
029.759;000.239;55;000.461;MIDI 01
029.914;000.106;69;000.422;MIDI 01
030.049;000.054;64;000.453;MIDI 01
030.035;000.106;61;000.484;MIDI 01
030.169;000.117;59;000.453;MIDI 01
030.303;000.064;55;000.445;MIDI 01
030.316;000.078;61;000.445;MIDI 01
030.444;000.096;69;000.391;MIDI 01
030.582;000.059;64;000.484;MIDI 01
030.568;000.097;61;000.492;MIDI 01
030.702;000.115;69;000.484;MIDI 01
030.849;000.059;55;000.492;MIDI 01
030.847;000.100;61;000.516;MIDI 01
030.979;000.120;69;000.484;MIDI 01
031.124;000.056;64;000.516;MIDI 01
031.119;000.100;61;000.555;MIDI 01
031.258;000.121;69;000.469;MIDI 01
031.397;000.102;62;000.531;MIDI 01
031.399;000.269;53;000.484;MIDI 01
031.540;000.137;69;000.523;MIDI 01
031.690;000.051;65;000.492;MIDI 01
031.681;000.119;62;000.477;MIDI 01
031.827;000.095;61;000.508;MIDI 01
031.962;000.059;53;000.461;MIDI 01
031.968;000.117;62;000.461;MIDI 01
032.108;000.115;69;000.508;MIDI 01
032.235;000.048;65;000.508;MIDI 01
032.237;000.099;62;000.555;MIDI 01
032.374;000.124;69;000.555;MIDI 01
032.504;000.062;53;000.469;MIDI 01
032.506;000.110;62;000.570;MIDI 01
032.651;000.119;69;000.547;MIDI 01
032.780;000.052;65;000.562;MIDI 01
032.775;000.099;62;000.594;MIDI 01
032.911;000.133;69;000.570;MIDI 01
033.056;000.113;64;000.555;MIDI 01
033.054;000.245;61;000.570;MIDI 01
033.193;000.195;69;000.562;MIDI 01
033.332;000.075;67;000.547;MIDI 01
033.326;000.107;64;000.555;MIDI 01
033.465;000.125;62;000.477;MIDI 01
033.607;000.057;61;000.547;MIDI 01
033.596;000.124;64;000.539;MIDI 01
033.742;000.123;69;000.547;MIDI 01
033.882;000.059;67;000.570;MIDI 01
033.876;000.104;64;000.570;MIDI 01
034.013;000.133;69;000.562;MIDI 01
034.152;000.067;61;000.594;MIDI 01
034.150;000.110;64;000.602;MIDI 01
034.295;000.112;69;000.555;MIDI 01
034.405;000.066;67;000.594;MIDI 01
034.419;000.104;64;000.602;MIDI 01
034.549;000.076;69;000.562;MIDI 01
034.668;000.093;65;000.578;MIDI 01
034.705;000.080;62;000.531;MIDI 01
034.767;000.058;69;000.461;MIDI 01
034.808;000.085;71;000.555;MIDI 01
034.877;000.076;73;000.539;MIDI 01
034.961;000.052;65;000.539;MIDI 01
034.932;000.191;74;000.602;MIDI 01
035.073;000.106;69;000.531;MIDI 01
035.227;000.066;62;000.500;MIDI 01
035.229;000.082;65;000.414;MIDI 01
035.348;000.119;69;000.508;MIDI 01
035.495;000.058;65;000.500;MIDI 01
035.502;000.131;74;000.523;MIDI 01
035.623;000.122;69;000.523;MIDI 01
035.775;000.064;62;000.539;MIDI 01
035.778;000.077;65;000.523;MIDI 01
035.918;000.121;69;000.500;MIDI 01
036.045;000.058;65;000.508;MIDI 01
036.053;000.144;74;000.570;MIDI 01
036.188;000.122;69;000.539;MIDI 01
036.322;000.117;66;000.562;MIDI 01
036.327;000.226;60;000.500;MIDI 01
036.460;000.158;74;000.570;MIDI 01
036.609;000.064;69;000.539;MIDI 01
036.601;000.119;66;000.531;MIDI 01
036.746;000.116;64;000.461;MIDI 01
036.861;000.071;60;000.422;MIDI 01
036.886;000.094;66;000.500;MIDI 01
037.008;000.115;74;000.523;MIDI 01
037.149;000.066;69;000.555;MIDI 01
037.145;000.086;66;000.570;MIDI 01
037.272;000.105;74;000.555;MIDI 01
037.389;000.080;60;000.523;MIDI 01
037.401;000.107;66;000.594;MIDI 01
037.541;000.115;74;000.555;MIDI 01
037.663;000.047;69;000.570;MIDI 01
037.678;000.095;66;000.594;MIDI 01
037.794;000.117;74;000.594;MIDI 01
037.907;000.096;67;000.547;MIDI 01
037.939;000.107;59;000.500;MIDI 01
037.998;000.094;69;000.523;MIDI 01
038.051;000.103;71;000.555;MIDI 01
038.102;000.105;72;000.539;MIDI 01
038.182;000.067;67;000.531;MIDI 01
038.189;000.127;74;000.609;MIDI 01
038.309;000.106;71;000.539;MIDI 01
038.465;000.091;59;000.469;MIDI 01
038.457;000.100;67;000.484;MIDI 01
038.577;000.116;71;000.492;MIDI 01
038.743;000.052;67;000.500;MIDI 01
038.723;000.120;74;000.547;MIDI 01
038.850;000.110;71;000.484;MIDI 01
038.986;000.095;67;000.523;MIDI 01
038.998;000.085;59;000.516;MIDI 01
039.122;000.116;71;000.539;MIDI 01
039.267;000.077;67;000.547;MIDI 01
039.266;000.145;74;000.578;MIDI 01
039.391;000.114;71;000.562;MIDI 01
039.526;000.123;68;000.570;MIDI 01
039.546;000.228;64;000.555;MIDI 01
039.661;000.161;74;000.586;MIDI 01
039.810;000.059;71;000.516;MIDI 01
039.807;000.109;68;000.523;MIDI 01
039.934;000.107;66;000.508;MIDI 01
040.081;000.074;64;000.523;MIDI 01
040.070;000.105;68;000.539;MIDI 01
040.202;000.147;74;000.562;MIDI 01
040.359;000.068;71;000.562;MIDI 01
040.349;000.110;68;000.594;MIDI 01
040.481;000.140;74;000.594;MIDI 01
040.625;000.083;64;000.570;MIDI 01
040.627;000.117;68;000.594;MIDI 01
040.756;000.139;74;000.609;MIDI 01
040.900;000.048;71;000.539;MIDI 01
040.898;000.127;68;000.609;MIDI 01
041.022;000.169;74;000.625;MIDI 01
041.296;000.127;69;000.602;MIDI 01
041.440;000.097;67;000.539;MIDI 01
041.170;000.457;57;000.523;MIDI 01
041.577;000.156;65;000.531;MIDI 01
041.712;000.099;64;000.523;MIDI 01
041.171;000.772;72;000.625;MIDI 01
041.840;000.167;62;000.484;MIDI 01
041.985;000.111;60;000.484;MIDI 01
042.101;000.086;59;000.492;MIDI 01
042.215;000.136;57;000.477;MIDI 01
042.366;000.134;60;000.508;MIDI 01
042.505;000.095;59;000.445;MIDI 01
042.621;000.102;57;000.469;MIDI 01
042.748;000.103;65;000.445;MIDI 01
042.874;000.091;62;000.453;MIDI 01
043.011;000.035;69;000.523;MIDI 01
043.008;000.106;57;000.445;MIDI 01
043.135;000.085;62;000.492;MIDI 01
043.271;000.032;74;000.602;MIDI 01
043.269;000.096;65;000.469;MIDI 01
043.391;000.081;62;000.461;MIDI 01
043.526;000.040;77;000.578;MIDI 01
043.515;000.148;57;000.500;MIDI 01
043.638;000.087;62;000.477;MIDI 01
043.780;000.049;81;000.570;MIDI 01
043.775;000.096;65;000.477;MIDI 01
043.826;000.073;80;000.602;MIDI 01
043.891;000.101;62;000.508;MIDI 01
044.033;000.132;57;000.469;MIDI 01
044.166;000.090;62;000.477;MIDI 01
043.897;000.433;81;000.547;MIDI 01
044.308;000.089;64;000.445;MIDI 01
044.429;000.079;62;000.422;MIDI 01
044.568;000.040;69;000.469;MIDI 01
044.566;000.104;57;000.406;MIDI 01
044.679;000.066;62;000.430;MIDI 01
044.821;000.032;72;000.500;MIDI 01
044.806;000.093;64;000.406;MIDI 01
044.938;000.069;60;000.445;MIDI 01
045.075;000.028;76;000.562;MIDI 01
045.073;000.107;57;000.453;MIDI 01
045.189;000.066;60;000.406;MIDI 01
045.329;000.049;81;000.555;MIDI 01
045.312;000.108;64;000.461;MIDI 01
045.385;000.070;80;000.555;MIDI 01
045.433;000.085;60;000.500;MIDI 01
045.575;000.143;57;000.508;MIDI 01
045.707;000.078;60;000.555;MIDI 01
045.455;000.479;81;000.594;MIDI 01
045.840;000.120;62;000.531;MIDI 01
045.964;000.086;59;000.508;MIDI 01
046.106;000.037;74;000.523;MIDI 01
046.102;000.102;57;000.461;MIDI 01
046.215;000.099;59;000.523;MIDI 01
046.366;000.058;80;000.648;MIDI 01
046.360;000.131;62;000.516;MIDI 01
046.486;000.120;59;000.484;MIDI 01
046.634;000.069;83;000.672;MIDI 01
046.639;000.130;56;000.539;MIDI 01
046.767;000.099;59;000.547;MIDI 01
046.897;000.056;80;000.688;MIDI 01
046.889;000.158;62;000.547;MIDI 01
047.032;000.104;59;000.555;MIDI 01
047.161;000.061;76;000.680;MIDI 01
047.166;000.141;56;000.539;MIDI 01
047.288;000.081;59;000.547;MIDI 01
047.414;000.078;60;000.586;MIDI 01
047.425;000.312;81;000.664;MIDI 01
047.702;000.077;45;000.508;MIDI 01
047.695;000.155;79;000.539;MIDI 01
047.833;000.180;77;000.547;MIDI 01
047.966;000.095;48;000.484;MIDI 01
047.968;000.106;76;000.602;MIDI 01
048.097;000.124;74;000.578;MIDI 01
048.230;000.089;52;000.523;MIDI 01
048.228;000.167;72;000.586;MIDI 01
048.358;000.111;71;000.609;MIDI 01
048.501;000.087;57;000.531;MIDI 01
048.496;000.117;69;000.602;MIDI 01
048.631;000.143;72;000.562;MIDI 01
048.781;000.094;60;000.516;MIDI 01
048.765;000.115;71;000.547;MIDI 01
048.897;000.100;69;000.547;MIDI 01
049.041;000.070;62;000.531;MIDI 01
049.039;000.127;77;000.570;MIDI 01
049.163;000.122;74;000.555;MIDI 01
049.317;000.085;65;000.531;MIDI 01
049.325;000.129;69;000.555;MIDI 01
049.449;000.135;74;000.555;MIDI 01
049.589;000.072;57;000.492;MIDI 01
049.598;000.120;77;000.547;MIDI 01
049.726;000.114;74;000.578;MIDI 01
049.867;000.069;62;000.516;MIDI 01
049.873;000.140;69;000.547;MIDI 01
049.994;000.135;74;000.562;MIDI 01
050.133;000.107;50;000.500;MIDI 01
050.139;000.143;77;000.547;MIDI 01
050.263;000.129;74;000.602;MIDI 01
050.405;000.092;59;000.586;MIDI 01
050.402;000.143;69;000.539;MIDI 01
050.518;000.125;74;000.594;MIDI 01
050.668;000.082;60;000.586;MIDI 01
050.654;000.186;76;000.555;MIDI 01
050.795;000.123;74;000.578;MIDI 01
050.943;000.105;64;000.516;MIDI 01
050.931;000.147;69;000.484;MIDI 01
051.066;000.107;74;000.539;MIDI 01
051.211;000.065;57;000.492;MIDI 01
051.202;000.135;76;000.523;MIDI 01
051.331;000.099;72;000.484;MIDI 01
051.459;000.086;60;000.508;MIDI 01
051.456;000.131;69;000.516;MIDI 01
051.587;000.116;72;000.531;MIDI 01
051.729;000.108;48;000.516;MIDI 01
051.719;000.145;76;000.516;MIDI 01
051.848;000.110;72;000.547;MIDI 01
051.994;000.074;57;000.500;MIDI 01
051.976;000.196;69;000.477;MIDI 01
052.112;000.163;72;000.531;MIDI 01
052.252;000.059;59;000.523;MIDI 01
052.244;000.129;74;000.500;MIDI 01
052.365;000.118;71;000.523;MIDI 01
052.514;000.092;62;000.547;MIDI 01
052.509;000.127;69;000.516;MIDI 01
052.645;000.109;71;000.500;MIDI 01
052.782;000.098;56;000.555;MIDI 01
052.780;000.134;74;000.570;MIDI 01
052.911;000.119;71;000.570;MIDI 01
053.049;000.086;59;000.523;MIDI 01
053.045;000.150;68;000.562;MIDI 01
053.178;000.115;71;000.586;MIDI 01
053.309;000.074;64;000.562;MIDI 01
053.304;000.171;74;000.594;MIDI 01
053.436;000.131;71;000.594;MIDI 01
053.566;000.120;52;000.555;MIDI 01
053.569;000.132;68;000.562;MIDI 01
053.692;000.135;71;000.609;MIDI 01
053.844;000.090;57;000.555;MIDI 01
053.948;000.134;69;000.570;MIDI 01
054.073;000.093;67;000.539;MIDI 01
054.202;000.104;65;000.508;MIDI 01
054.347;000.110;64;000.492;MIDI 01
054.462;000.076;62;000.539;MIDI 01
054.592;000.112;60;000.523;MIDI 01
054.709;000.131;59;000.578;MIDI 01
054.845;000.075;57;000.562;MIDI 01
053.823;001.255;72;000.609;MIDI 01
054.954;000.134;60;000.562;MIDI 01
055.078;000.124;52;000.602;MIDI 01
055.199;000.136;55;000.594;MIDI 01
055.323;000.077;54;000.641;MIDI 01
055.468;000.139;75;000.547;MIDI 01
055.599;000.056;69;000.562;MIDI 01
055.598;000.129;74;000.531;MIDI 01
055.725;000.064;72;000.539;MIDI 01
055.869;000.065;72;000.492;MIDI 01
055.867;000.179;78;000.516;MIDI 01
055.998;000.166;75;000.562;MIDI 01
056.120;000.085;69;000.562;MIDI 01
056.125;000.154;74;000.539;MIDI 01
056.251;000.098;72;000.539;MIDI 01
056.395;000.092;66;000.578;MIDI 01
056.392;000.190;81;000.562;MIDI 01
056.538;000.164;75;000.531;MIDI 01
056.656;000.091;74;000.531;MIDI 01
056.663;000.099;62;000.477;MIDI 01
056.785;000.133;72;000.516;MIDI 01
056.919;000.073;70;000.523;MIDI 01
056.929;000.076;67;000.469;MIDI 01
057.194;000.072;55;000.445;MIDI 01
057.042;000.231;79;000.508;MIDI 01
057.174;000.167;77;000.492;MIDI 01
057.301;000.190;75;000.555;MIDI 01
057.446;000.093;74;000.539;MIDI 01
057.456;000.099;58;000.508;MIDI 01
057.574;000.143;72;000.531;MIDI 01
057.718;000.074;62;000.508;MIDI 01
057.715;000.151;70;000.523;MIDI 01
057.855;000.107;69;000.477;MIDI 01
057.994;000.056;67;000.469;MIDI 01
057.979;000.163;72;000.492;MIDI 01
058.109;000.144;70;000.500;MIDI 01
058.261;000.048;65;000.445;MIDI 01
058.242;000.109;69;000.492;MIDI 01
058.384;000.094;67;000.422;MIDI 01
058.504;000.043;72;000.516;MIDI 01
058.508;000.115;64;000.430;MIDI 01
058.643;000.160;61;000.461;MIDI 01
058.775;000.051;76;000.531;MIDI 01
058.788;000.077;60;000.406;MIDI 01
058.907;000.060;58;000.391;MIDI 01
059.040;000.035;71;000.578;MIDI 01
059.022;000.135;65;000.500;MIDI 01
059.295;000.053;77;000.570;MIDI 01
059.165;000.206;61;000.516;MIDI 01
059.304;000.134;60;000.469;MIDI 01
059.424;000.075;58;000.500;MIDI 01
059.551;000.035;70;000.586;MIDI 01
059.549;000.143;67;000.547;MIDI 01
059.689;000.201;61;000.539;MIDI 01
059.814;000.130;60;000.531;MIDI 01
059.927;000.110;58;000.531;MIDI 01
060.050;000.105;57;000.539;MIDI 01
059.791;000.406;79;000.602;MIDI 01
060.174;000.098;65;000.531;MIDI 01
060.185;000.116;74;000.555;MIDI 01
060.319;000.085;72;000.516;MIDI 01
060.307;000.116;64;000.516;MIDI 01
060.433;000.061;62;000.547;MIDI 01
060.439;000.103;70;000.539;MIDI 01
060.568;000.050;69;000.578;MIDI 01
060.564;000.128;60;000.539;MIDI 01
060.698;000.130;58;000.539;MIDI 01
060.696;000.161;79;000.570;MIDI 01
060.827;000.095;57;000.539;MIDI 01
060.825;000.113;77;000.586;MIDI 01
060.938;000.101;55;000.531;MIDI 01
060.942;000.099;76;000.594;MIDI 01
061.072;000.067;58;000.547;MIDI 01
061.053;000.098;74;000.594;MIDI 01
061.178;000.096;57;000.578;MIDI 01
061.190;000.146;82;000.555;MIDI 01
061.306;000.103;76;000.602;MIDI 01
061.308;000.129;55;000.555;MIDI 01
061.438;000.107;53;000.547;MIDI 01
061.429;000.126;74;000.586;MIDI 01
061.545;000.037;52;000.586;MIDI 01
061.565;000.166;73;000.594;MIDI 01
061.704;000.060;67;000.469;MIDI 01
061.709;000.123;70;000.539;MIDI 01
061.825;000.111;69;000.523;MIDI 01
061.836;000.120;65;000.477;MIDI 01
061.945;000.081;67;000.539;MIDI 01
061.956;000.098;64;000.531;MIDI 01
062.085;000.080;62;000.516;MIDI 01
062.078;000.157;74;000.578;MIDI 01
062.232;000.085;67;000.492;MIDI 01
062.211;000.169;70;000.547;MIDI 01
062.336;000.119;69;000.547;MIDI 01
062.358;000.126;65;000.516;MIDI 01
062.464;000.047;67;000.570;MIDI 01
062.493;000.103;64;000.523;MIDI 01
062.604;000.118;61;000.570;MIDI 01
062.585;000.153;76;000.602;MIDI 01
062.727;000.049;67;000.453;MIDI 01
062.718;000.149;70;000.555;MIDI 01
062.854;000.072;69;000.492;MIDI 01
062.829;000.112;65;000.484;MIDI 01
062.965;000.081;64;000.492;MIDI 01
062.975;000.105;67;000.500;MIDI 01
063.112;000.084;62;000.461;MIDI 01
063.259;000.059;63;000.430;MIDI 01
063.116;000.235;65;000.453;MIDI 01
063.374;000.102;62;000.469;MIDI 01
063.515;000.101;60;000.391;MIDI 01
063.396;000.224;66;000.469;MIDI 01
063.650;000.065;58;000.430;MIDI 01
063.782;000.093;60;000.438;MIDI 01
063.660;000.235;67;000.484;MIDI 01
063.911;000.133;58;000.414;MIDI 01
064.049;000.074;57;000.438;MIDI 01
063.932;000.244;69;000.508;MIDI 01
064.173;000.079;55;000.469;MIDI 01
064.191;000.232;70;000.555;MIDI 01
064.303;000.150;57;000.484;MIDI 01
064.449;000.114;55;000.547;MIDI 01
064.451;000.224;71;000.562;MIDI 01
064.591;000.090;53;000.484;MIDI 01
064.699;000.108;52;000.500;MIDI 01
064.816;000.093;58;000.508;MIDI 01
064.715;000.270;72;000.586;MIDI 01
064.963;000.128;57;000.500;MIDI 01
064.978;000.222;73;000.570;MIDI 01
065.106;000.115;55;000.492;MIDI 01
065.230;000.078;53;000.508;MIDI 01
065.241;000.241;74;000.602;MIDI 01
065.374;000.121;55;000.555;MIDI 01
065.505;000.146;53;000.555;MIDI 01
065.645;000.109;52;000.508;MIDI 01
065.518;000.285;76;000.625;MIDI 01
065.776;000.104;50;000.547;MIDI 01
065.782;000.225;77;000.656;MIDI 01
065.928;000.091;51;000.547;MIDI 01
066.048;000.125;50;000.539;MIDI 01
066.060;000.166;78;000.648;MIDI 01
066.180;000.148;48;000.555;MIDI 01
066.310;000.080;46;000.617;MIDI 01
066.456;000.134;74;000.547;MIDI 01
066.332;000.315;79;000.617;MIDI 01
066.597;000.070;43;000.508;MIDI 01
066.595;000.198;82;000.602;MIDI 01
066.726;000.167;81;000.570;MIDI 01
066.869;000.091;46;000.570;MIDI 01
066.859;000.184;79;000.625;MIDI 01
067.000;000.104;77;000.570;MIDI 01
067.140;000.072;50;000.562;MIDI 01
067.119;000.140;76;000.602;MIDI 01
067.258;000.125;74;000.578;MIDI 01
067.391;000.148;73;000.594;MIDI 01
067.531;000.086;74;000.586;MIDI 01
067.654;000.235;76;000.570;MIDI 01
067.388;000.523;55;000.578;MIDI 01
067.792;000.149;73;000.586;MIDI 01
067.921;000.082;69;000.602;MIDI 01
068.045;000.128;55;000.531;MIDI 01
068.186;000.055;64;000.547;MIDI 01
068.173;000.095;45;000.539;MIDI 01
068.316;000.122;43;000.469;MIDI 01
068.449;000.029;69;000.602;MIDI 01
068.432;000.080;45;000.547;MIDI 01
068.559;000.101;55;000.516;MIDI 01
068.704;000.054;73;000.672;MIDI 01
068.690;000.103;45;000.562;MIDI 01
068.828;000.140;55;000.555;MIDI 01
068.973;000.075;76;000.602;MIDI 01
068.966;000.102;45;000.539;MIDI 01
069.017;000.090;74;000.539;MIDI 01
069.106;000.128;55;000.570;MIDI 01
069.240;000.104;45;000.492;MIDI 01
069.393;000.088;55;000.523;MIDI 01
069.534;000.075;45;000.461;MIDI 01
069.086;000.615;76;000.477;MIDI 01
069.658;000.107;69;000.430;MIDI 01
069.656;000.117;53;000.453;MIDI 01
069.789;000.073;45;000.477;MIDI 01
069.786;000.127;65;000.477;MIDI 01
069.914;000.106;69;000.570;MIDI 01
069.933;000.114;43;000.469;MIDI 01
070.036;000.088;45;000.516;MIDI 01
070.039;000.144;74;000.594;MIDI 01
070.168;000.102;53;000.531;MIDI 01
070.170;000.103;69;000.578;MIDI 01
070.290;000.104;45;000.547;MIDI 01
070.309;000.110;65;000.555;MIDI 01
070.424;000.066;69;000.555;MIDI 01
070.426;000.093;53;000.516;MIDI 01
070.558;000.049;74;000.555;MIDI 01
070.555;000.084;45;000.523;MIDI 01
070.611;000.096;73;000.609;MIDI 01
070.675;000.127;53;000.508;MIDI 01
070.816;000.088;45;000.469;MIDI 01
070.960;000.072;53;000.500;MIDI 01
071.093;000.075;45;000.461;MIDI 01
070.693;000.517;74;000.578;MIDI 01
071.221;000.110;52;000.469;MIDI 01
071.240;000.109;67;000.445;MIDI 01
071.349;000.077;45;000.484;MIDI 01
071.374;000.117;64;000.461;MIDI 01
071.498;000.106;67;000.547;MIDI 01
071.481;000.134;43;000.430;MIDI 01
071.602;000.095;45;000.523;MIDI 01
071.620;000.135;72;000.562;MIDI 01
071.750;000.091;67;000.547;MIDI 01
071.746;000.108;52;000.484;MIDI 01
071.875;000.097;45;000.492;MIDI 01
071.889;000.105;64;000.477;MIDI 01
072.007;000.055;67;000.398;MIDI 01
072.014;000.108;52;000.484;MIDI 01
072.110;000.052;72;000.539;MIDI 01
072.140;000.101;45;000.523;MIDI 01
072.185;000.057;71;000.492;MIDI 01
072.271;000.120;52;000.523;MIDI 01
072.414;000.073;45;000.484;MIDI 01
072.540;000.056;52;000.500;MIDI 01
072.658;000.159;45;000.477;MIDI 01
072.241;000.646;72;000.570;MIDI 01
072.807;000.095;50;000.461;MIDI 01
072.811;000.108;65;000.453;MIDI 01
072.939;000.118;53;000.492;MIDI 01
072.943;000.155;62;000.469;MIDI 01
073.071;000.079;50;000.445;MIDI 01
073.068;000.128;65;000.523;MIDI 01
073.191;000.119;45;000.531;MIDI 01
073.208;000.154;70;000.570;MIDI 01
073.350;000.114;65;000.531;MIDI 01
073.319;000.192;50;000.500;MIDI 01
073.457;000.092;53;000.539;MIDI 01
073.476;000.143;62;000.508;MIDI 01
073.579;000.046;57;000.539;MIDI 01
073.612;000.145;65;000.484;MIDI 01
073.724;000.095;43;000.539;MIDI 01
073.741;000.139;70;000.570;MIDI 01
073.839;000.067;52;000.523;MIDI 01
073.864;000.128;67;000.523;MIDI 01
073.964;000.099;55;000.500;MIDI 01
073.996;000.131;64;000.469;MIDI 01
074.099;000.066;58;000.516;MIDI 01
074.131;000.139;67;000.516;MIDI 01
074.234;000.072;55;000.578;MIDI 01
074.254;000.154;61;000.516;MIDI 01
074.380;000.128;69;000.539;MIDI 01
074.530;000.062;49;000.570;MIDI 01
074.520;000.155;70;000.578;MIDI 01
074.657;000.127;69;000.570;MIDI 01
074.794;000.083;52;000.578;MIDI 01
074.815;000.173;61;000.570;MIDI 01
074.936;000.138;69;000.531;MIDI 01
075.078;000.100;43;000.570;MIDI 01
075.069;000.179;70;000.562;MIDI 01
075.228;000.155;69;000.555;MIDI 01
075.357;000.062;61;000.602;MIDI 01
075.474;000.136;46;000.570;MIDI 01
075.610;000.133;45;000.633;MIDI 01
075.744;000.101;43;000.594;MIDI 01
075.850;000.088;41;000.586;MIDI 01
075.605;000.410;64;000.609;MIDI 01
076.009;000.078;53;000.516;MIDI 01
076.026;000.122;69;000.531;MIDI 01
076.147;000.079;52;000.570;MIDI 01
076.160;000.143;70;000.539;MIDI 01
076.284;000.096;53;000.500;MIDI 01
076.285;000.129;69;000.562;MIDI 01
076.424;000.084;41;000.594;MIDI 01
076.434;000.177;62;000.570;MIDI 01
076.562;000.096;53;000.508;MIDI 01
076.571;000.120;69;000.562;MIDI 01
076.685;000.085;52;000.539;MIDI 01
076.703;000.196;70;000.594;MIDI 01
076.825;000.093;53;000.508;MIDI 01
076.844;000.135;69;000.547;MIDI 01
076.971;000.082;41;000.578;MIDI 01
076.976;000.079;62;000.602;MIDI 01
077.097;000.104;53;000.547;MIDI 01
077.235;000.078;52;000.570;MIDI 01
077.378;000.131;50;000.555;MIDI 01
077.518;000.066;49;000.602;MIDI 01
077.248;000.415;65;000.609;MIDI 01
077.660;000.123;67;000.531;MIDI 01
077.789;000.088;40;000.531;MIDI 01
077.794;000.156;69;000.547;MIDI 01
077.921;000.123;67;000.586;MIDI 01
078.053;000.084;43;000.578;MIDI 01
078.040;000.147;64;000.578;MIDI 01
078.182;000.110;67;000.609;MIDI 01
078.318;000.064;37;000.523;MIDI 01
078.323;000.129;69;000.570;MIDI 01
078.429;000.084;67;000.586;MIDI 01
078.567;000.083;57;000.586;MIDI 01
078.674;000.135;49;000.562;MIDI 01
078.809;000.111;47;000.555;MIDI 01
078.942;000.095;45;000.617;MIDI 01
079.096;000.065;50;000.562;MIDI 01
078.833;000.381;67;000.609;MIDI 01
079.241;000.116;58;000.539;MIDI 01
079.390;000.082;38;000.539;MIDI 01
079.380;000.100;57;000.531;MIDI 01
079.518;000.089;55;000.539;MIDI 01
079.660;000.085;41;000.547;MIDI 01
079.645;000.115;57;000.562;MIDI 01
079.771;000.190;64;000.555;MIDI 01
079.907;000.059;45;000.594;MIDI 01
079.927;000.132;62;000.586;MIDI 01
080.048;000.125;61;000.602;MIDI 01
080.140;000.078;50;000.516;MIDI 01
080.227;000.096;49;000.523;MIDI 01
080.206;000.126;62;000.594;MIDI 01
080.330;000.177;67;000.523;MIDI 01
080.452;000.125;65;000.586;MIDI 01
080.594;000.112;64;000.516;MIDI 01
080.727;000.084;65;000.531;MIDI 01
080.336;000.483;50;000.547;MIDI 01
080.875;000.062;58;000.484;MIDI 01
080.864;000.095;55;000.445;MIDI 01
080.993;000.055;57;000.523;MIDI 01
081.003;000.148;60;000.492;MIDI 01
081.129;000.030;58;000.430;MIDI 01
081.139;000.108;62;000.523;MIDI 01
081.236;000.134;48;000.461;MIDI 01
081.260;000.152;63;000.508;MIDI 01
081.390;000.059;54;000.406;MIDI 01
081.400;000.061;57;000.430;MIDI 01
081.492;000.086;55;000.453;MIDI 01
081.506;000.147;58;000.430;MIDI 01
081.641;000.051;57;000.469;MIDI 01
081.652;000.144;60;000.461;MIDI 01
081.780;000.072;46;000.438;MIDI 01
081.793;000.134;62;000.438;MIDI 01
081.888;000.065;55;000.453;MIDI 01
081.906;000.116;58;000.430;MIDI 01
082.015;000.083;57;000.500;MIDI 01
082.162;000.033;58;000.469;MIDI 01
082.046;000.235;60;000.484;MIDI 01
082.175;000.130;62;000.492;MIDI 01
082.291;000.121;48;000.492;MIDI 01
082.296;000.141;63;000.508;MIDI 01
082.422;000.064;57;000.438;MIDI 01
082.426;000.068;54;000.461;MIDI 01
082.534;000.092;55;000.500;MIDI 01
082.532;000.147;58;000.453;MIDI 01
082.686;000.048;57;000.523;MIDI 01
082.683;000.125;60;000.492;MIDI 01
082.803;000.084;46;000.484;MIDI 01
082.921;000.052;55;000.438;MIDI 01
082.928;000.078;58;000.484;MIDI 01
082.797;000.250;62;000.484;MIDI 01
083.030;000.085;57;000.523;MIDI 01
083.067;000.064;60;000.477;MIDI 01
083.186;000.030;58;000.500;MIDI 01
083.200;000.101;62;000.484;MIDI 01
083.312;000.074;60;000.484;MIDI 01
083.320;000.101;45;000.477;MIDI 01
083.450;000.075;54;000.430;MIDI 01
083.451;000.126;50;000.430;MIDI 01
083.585;000.058;52;000.484;MIDI 01
083.557;000.114;55;000.500;MIDI 01
083.741;000.036;54;000.328;MIDI 01
083.700;000.119;57;000.484;MIDI 01
083.838;000.140;43;000.461;MIDI 01
083.981;000.077;50;000.461;MIDI 01
083.840;000.390;58;000.500;MIDI 01
084.118;000.119;52;000.492;MIDI 01
084.253;000.177;54;000.492;MIDI 01
084.381;000.204;55;000.531;MIDI 01
084.518;000.182;57;000.500;MIDI 01
084.647;000.194;58;000.523;MIDI 01
084.781;000.157;60;000.570;MIDI 01
084.914;000.204;62;000.555;MIDI 01
085.061;000.139;58;000.602;MIDI 01
085.195;000.138;67;000.609;MIDI 01
085.329;000.195;62;000.586;MIDI 01
085.513;000.212;70;000.562;MIDI 01
085.671;000.119;67;000.586;MIDI 01
085.814;000.153;65;000.547;MIDI 01
085.944;000.167;63;000.562;MIDI 01
086.079;000.162;62;000.594;MIDI 01
086.206;000.178;60;000.562;MIDI 01
086.338;000.224;58;000.594;MIDI 01
086.475;000.145;57;000.602;MIDI 01
086.609;000.145;55;000.594;MIDI 01
086.749;000.122;58;000.602;MIDI 01
086.894;000.124;52;000.570;MIDI 01
087.041;000.250;55;000.594;MIDI 01
087.484;000.185;70;000.570;MIDI 01
087.636;000.126;69;000.578;MIDI 01
087.763;000.162;67;000.594;MIDI 01
087.255;000.736;49;000.617;MIDI 01
087.909;000.219;76;000.633;MIDI 01
088.048;000.178;74;000.586;MIDI 01
088.196;000.104;45;000.523;MIDI 01
088.174;000.206;73;000.570;MIDI 01
088.318;000.130;71;000.602;MIDI 01
088.456;000.109;47;000.516;MIDI 01
088.452;000.142;69;000.578;MIDI 01
088.593;000.168;67;000.562;MIDI 01
088.724;000.116;65;000.547;MIDI 01
088.729;000.118;49;000.539;MIDI 01
088.845;000.094;64;000.531;MIDI 01
089.004;000.110;50;000.500;MIDI 01
088.987;000.173;65;000.555;MIDI 01
089.119;000.092;62;000.547;MIDI 01
089.260;000.110;52;000.547;MIDI 01
089.263;000.119;67;000.562;MIDI 01
089.377;000.101;62;000.562;MIDI 01
089.522;000.117;53;000.570;MIDI 01
089.524;000.127;69;000.594;MIDI 01
089.651;000.118;62;000.562;MIDI 01
089.803;000.099;55;000.602;MIDI 01
089.792;000.167;70;000.602;MIDI 01
089.943;000.082;62;000.531;MIDI 01
090.059;000.081;57;000.594;MIDI 01
090.184;000.162;62;000.562;MIDI 01
090.343;000.094;45;000.523;MIDI 01
090.335;000.107;64;000.523;MIDI 01
090.458;000.096;61;000.547;MIDI 01
090.606;000.090;50;000.516;MIDI 01
090.600;000.119;62;000.555;MIDI 01
090.732;000.125;60;000.477;MIDI 01
090.869;000.075;57;000.508;MIDI 01
090.891;000.126;54;000.453;MIDI 01
091.013;000.127;60;000.516;MIDI 01
091.151;000.082;50;000.500;MIDI 01
091.149;000.127;62;000.516;MIDI 01
091.286;000.109;60;000.531;MIDI 01
091.441;000.085;57;000.500;MIDI 01
091.425;000.132;54;000.500;MIDI 01
091.553;000.119;60;000.500;MIDI 01
091.697;000.090;50;000.508;MIDI 01
091.680;000.125;62;000.531;MIDI 01
091.819;000.099;60;000.531;MIDI 01
091.934;000.070;57;000.484;MIDI 01
091.951;000.140;54;000.438;MIDI 01
092.073;000.109;60;000.523;MIDI 01
092.215;000.080;50;000.492;MIDI 01
092.198;000.119;58;000.484;MIDI 01
092.330;000.127;62;000.500;MIDI 01
092.482;000.055;55;000.398;MIDI 01
092.473;000.101;58;000.484;MIDI 01
092.627;000.098;54;000.367;MIDI 01
092.742;000.069;50;000.445;MIDI 01
092.741;000.104;58;000.469;MIDI 01
092.864;000.140;62;000.500;MIDI 01
093.014;000.062;55;000.484;MIDI 01
093.001;000.108;58;000.539;MIDI 01
093.128;000.116;54;000.477;MIDI 01
093.295;000.074;50;000.492;MIDI 01
093.276;000.101;58;000.500;MIDI 01
093.391;000.193;62;000.523;MIDI 01
093.562;000.065;55;000.516;MIDI 01
093.535;000.099;58;000.508;MIDI 01
093.677;000.140;52;000.461;MIDI 01
093.821;000.102;50;000.516;MIDI 01
093.827;000.128;53;000.492;MIDI 01
093.968;000.122;62;000.492;MIDI 01
094.101;000.082;57;000.453;MIDI 01
094.120;000.100;53;000.469;MIDI 01
094.248;000.116;62;000.469;MIDI 01
094.381;000.081;50;000.477;MIDI 01
094.390;000.104;53;000.492;MIDI 01
094.516;000.110;62;000.516;MIDI 01
094.652;000.084;57;000.539;MIDI 01
094.650;000.114;53;000.539;MIDI 01
094.778;000.122;62;000.539;MIDI 01
094.934;000.068;50;000.492;MIDI 01
094.924;000.106;53;000.570;MIDI 01
095.057;000.122;62;000.531;MIDI 01
095.209;000.062;57;000.508;MIDI 01
095.201;000.107;53;000.570;MIDI 01
095.334;000.122;62;000.539;MIDI 01
095.486;000.070;50;000.500;MIDI 01
095.471;000.124;55;000.547;MIDI 01
095.611;000.144;61;000.531;MIDI 01
095.768;000.059;58;000.539;MIDI 01
095.750;000.129;55;000.570;MIDI 01
095.900;000.148;52;000.500;MIDI 01
096.028;000.080;50;000.523;MIDI 01
096.032;000.118;55;000.578;MIDI 01
096.160;000.157;61;000.547;MIDI 01
096.308;000.078;58;000.578;MIDI 01
096.305;000.124;55;000.570;MIDI 01
096.443;000.161;52;000.523;MIDI 01
096.590;000.069;50;000.492;MIDI 01
096.582;000.134;55;000.555;MIDI 01
096.723;000.182;61;000.547;MIDI 01
096.886;000.081;58;000.461;MIDI 01
096.879;000.150;55;000.547;MIDI 01
097.047;000.142;52;000.516;MIDI 01
097.427;002.791;57;000.352;MIDI 01
097.436;002.804;54;000.398;MIDI 01
097.414;002.852;62;000.500;MIDI 01
097.431;002.875;50;000.344;MIDI 01
