Start;Duration;Pitch;Velocity;Instrument
000.191;002.115;49;000.250;MIDI 01
002.062;001.057;48;000.305;MIDI 01
003.008;001.153;52;000.359;MIDI 01
004.082;002.458;51;000.352;MIDI 01
006.430;000.554;49;000.180;MIDI 01
006.912;000.556;51;000.273;MIDI 01
006.393;002.179;56;000.375;MIDI 01
007.426;001.609;52;000.281;MIDI 01
008.951;000.245;51;000.297;MIDI 01
009.166;000.308;49;000.250;MIDI 01
008.445;001.079;55;000.398;MIDI 01
009.448;000.523;51;000.234;MIDI 01
009.904;000.625;56;000.289;MIDI 01
009.421;001.147;59;000.383;MIDI 01
010.466;000.555;49;000.281;MIDI 01
010.967;000.232;51;000.211;MIDI 01
011.199;000.193;52;000.312;MIDI 01
010.440;002.316;58;000.430;MIDI 01
011.491;001.662;54;000.250;MIDI 01
013.118;000.616;52;000.086;MIDI 01
012.584;001.324;56;000.328;MIDI 01
013.617;000.533;51;000.227;MIDI 01
014.083;000.564;49;000.297;MIDI 01
013.576;001.091;61;000.445;MIDI 01
013.604;001.459;57;000.219;MIDI 01
015.098;000.195;56;000.305;MIDI 01
014.593;001.049;60;000.406;MIDI 01
014.613;001.109;51;000.266;MIDI 01
015.335;000.390;54;000.328;MIDI 01
015.630;000.516;56;000.328;MIDI 01
016.125;000.273;61;000.289;MIDI 01
015.610;001.061;64;000.461;MIDI 01
016.710;000.417;54;000.172;MIDI 01
015.656;001.590;49;000.227;MIDI 01
017.164;000.192;56;000.320;MIDI 01
017.406;000.116;57;000.336;MIDI 01
017.177;000.614;47;000.234;MIDI 01
017.711;000.517;45;000.266;MIDI 01
018.204;000.659;44;000.273;MIDI 01
016.655;002.271;63;000.453;MIDI 01
017.690;001.582;59;000.312;MIDI 01
019.305;000.552;57;000.258;MIDI 01
018.785;001.108;45;000.273;MIDI 01
018.764;001.183;61;000.438;MIDI 01
019.797;000.560;56;000.305;MIDI 01
020.312;000.357;54;000.273;MIDI 01
019.825;001.152;46;000.328;MIDI 01
021.358;000.541;64;000.477;MIDI 01
020.853;001.091;48;000.398;MIDI 01
020.851;001.159;56;000.438;MIDI 01
019.799;002.246;66;000.445;MIDI 01
021.881;000.498;54;000.289;MIDI 01
021.848;000.578;63;000.461;MIDI 01
022.358;000.354;52;000.391;MIDI 01
022.353;000.378;61;000.477;MIDI 01
021.878;001.145;49;000.344;MIDI 01
022.907;000.572;44;000.391;MIDI 01
023.415;000.634;45;000.352;MIDI 01
022.902;001.275;51;000.453;MIDI 01
022.894;001.426;61;000.516;MIDI 01
024.415;000.625;50;000.367;MIDI 01
023.931;001.179;59;000.406;MIDI 01
023.910;001.202;68;000.531;MIDI 01
023.950;001.477;47;000.336;MIDI 01
025.401;000.483;45;000.352;MIDI 01
024.913;001.066;65;000.523;MIDI 01
024.935;001.195;61;000.414;MIDI 01
025.928;000.536;44;000.352;MIDI 01
024.928;001.564;49;000.359;MIDI 01
026.379;000.301;42;000.359;MIDI 01
025.893;001.131;69;000.547;MIDI 01
025.914;001.610;66;000.477;MIDI 01
026.923;001.044;68;000.539;MIDI 01
026.935;001.039;49;000.422;MIDI 01
027.445;000.598;64;000.367;MIDI 01
027.954;000.631;63;000.391;MIDI 01
027.932;000.744;73;000.594;MIDI 01
028.470;000.539;61;000.383;MIDI 01
027.965;001.490;45;000.383;MIDI 01
028.975;000.531;63;000.398;MIDI 01
027.950;001.631;66;000.500;MIDI 01
028.959;000.645;72;000.555;MIDI 01
029.443;000.550;44;000.359;MIDI 01
029.953;000.474;42;000.352;MIDI 01
029.909;001.077;76;000.617;MIDI 01
030.407;000.583;40;000.328;MIDI 01
029.933;001.244;68;000.445;MIDI 01
029.935;001.507;73;000.445;MIDI 01
030.976;001.036;42;000.281;MIDI 01
031.442;000.586;69;000.289;MIDI 01
030.927;001.522;75;000.547;MIDI 01
032.414;000.199;66;000.336;MIDI 01
031.957;000.796;68;000.258;MIDI 01
031.945;001.053;44;000.250;MIDI 01
032.926;000.522;45;000.336;MIDI 01
032.910;000.674;65;000.375;MIDI 01
031.917;002.081;71;000.344;MIDI 01
033.447;000.560;44;000.281;MIDI 01
033.428;000.620;61;000.336;MIDI 01
033.929;000.543;45;000.320;MIDI 01
033.957;000.658;66;000.328;MIDI 01
032.916;001.702;73;000.453;MIDI 01
033.926;000.705;69;000.375;MIDI 01
034.378;000.260;75;000.539;MIDI 01
034.409;000.578;47;000.312;MIDI 01
034.911;000.502;49;000.328;MIDI 01
034.894;000.861;68;000.422;MIDI 01
035.413;000.569;47;000.258;MIDI 01
034.878;001.149;76;000.555;MIDI 01
035.384;000.710;75;000.531;MIDI 01
035.910;000.506;49;000.312;MIDI 01
035.888;000.777;73;000.500;MIDI 01
036.377;000.615;51;000.312;MIDI 01
035.890;001.622;69;000.375;MIDI 01
036.907;000.623;71;000.438;MIDI 01
037.429;000.267;68;000.273;MIDI 01
036.931;001.094;52;000.297;MIDI 01
034.909;003.156;64;000.320;MIDI 01
037.922;000.502;68;000.375;MIDI 01
037.956;000.486;66;000.266;MIDI 01
038.407;000.146;64;000.305;MIDI 01
037.914;000.858;73;000.477;MIDI 01
037.928;001.157;56;000.516;MIDI 01
038.927;000.506;75;000.555;MIDI 01
037.951;001.509;49;000.414;MIDI 01
038.952;000.669;63;000.438;MIDI 01
039.411;000.512;47;000.391;MIDI 01
038.970;001.062;70;000.320;MIDI 01
038.950;001.091;55;000.516;MIDI 01
039.920;000.491;46;000.406;MIDI 01
040.389;000.308;44;000.469;MIDI 01
039.895;001.027;59;000.562;MIDI 01
040.928;001.041;49;000.453;MIDI 01
039.935;002.070;68;000.406;MIDI 01
041.425;000.730;76;000.461;MIDI 01
041.906;000.650;75;000.406;MIDI 01
041.936;000.634;67;000.320;MIDI 01
040.916;001.694;58;000.523;MIDI 01
042.411;000.531;73;000.391;MIDI 01
041.932;001.046;51;000.281;MIDI 01
042.898;000.460;56;000.336;MIDI 01
042.907;000.555;44;000.297;MIDI 01
042.888;001.029;71;000.414;MIDI 01
043.405;000.624;57;000.383;MIDI 01
043.388;000.644;75;000.477;MIDI 01
043.909;000.533;56;000.336;MIDI 01
042.915;002.071;68;000.344;MIDI 01
044.401;000.598;54;000.391;MIDI 01
043.901;001.125;59;000.383;MIDI 01
043.888;001.669;80;000.602;MIDI 01
044.932;001.009;53;000.414;MIDI 01
044.920;001.262;61;000.508;MIDI 01
045.919;000.545;80;000.516;MIDI 01
045.431;001.117;78;000.500;MIDI 01
046.392;000.471;81;000.555;MIDI 01
045.928;001.053;57;000.430;MIDI 01
046.397;000.635;61;000.453;MIDI 01
046.902;000.600;63;000.477;MIDI 01
047.391;000.577;61;000.430;MIDI 01
047.858;000.519;63;000.469;MIDI 01
048.325;000.246;65;000.477;MIDI 01
046.900;002.099;56;000.469;MIDI 01
046.885;002.461;83;000.578;MIDI 01
048.818;001.020;66;000.516;MIDI 01
049.301;000.676;81;000.484;MIDI 01
049.769;000.588;80;000.523;MIDI 01
049.796;000.650;69;000.500;MIDI 01
050.279;000.500;78;000.422;MIDI 01
049.801;001.049;61;000.367;MIDI 01
048.827;002.169;54;000.438;MIDI 01
050.764;000.659;60;000.477;MIDI 01
051.024;000.450;78;000.398;MIDI 01
051.256;000.231;76;000.453;MIDI 01
050.766;000.758;80;000.438;MIDI 01
051.258;000.279;56;000.375;MIDI 01
051.481;000.089;75;000.453;MIDI 01
051.485;000.188;54;000.344;MIDI 01
050.790;001.036;68;000.328;MIDI 01
051.707;000.481;52;000.406;MIDI 01
051.962;000.230;71;000.477;MIDI 01
052.218;000.199;69;000.398;MIDI 01
051.727;000.780;64;000.367;MIDI 01
052.442;000.327;68;000.398;MIDI 01
052.207;000.562;54;000.359;MIDI 01
052.435;000.336;56;000.398;MIDI 01
052.724;000.515;57;000.398;MIDI 01
053.257;000.505;69;000.344;MIDI 01
053.258;000.586;54;000.328;MIDI 01
051.721;002.149;73;000.516;MIDI 01
052.728;001.237;66;000.406;MIDI 01
053.791;000.513;68;000.383;MIDI 01
052.741;001.680;63;000.414;MIDI 01
053.799;000.725;56;000.289;MIDI 01
054.276;000.650;66;000.297;MIDI 01
053.768;001.602;71;000.438;MIDI 01
055.329;000.165;73;000.359;MIDI 01
054.824;000.781;65;000.305;MIDI 01
055.830;000.587;71;000.375;MIDI 01
056.310;000.573;69;000.430;MIDI 01
055.850;001.560;66;000.281;MIDI 01
057.845;000.554;70;000.430;MIDI 01
056.827;001.609;68;000.430;MIDI 01
058.345;000.565;71;000.516;MIDI 01
057.831;001.161;47;000.461;MIDI 01
054.829;004.218;61;000.297;MIDI 01
058.866;000.502;54;000.320;MIDI 01
054.840;004.555;49;000.266;MIDI 01
057.331;002.101;64;000.258;MIDI 01
059.347;000.236;56;000.438;MIDI 01
058.836;001.081;73;000.547;MIDI 01
058.852;001.146;46;000.508;MIDI 01
059.831;000.445;58;000.398;MIDI 01
059.846;000.736;63;000.383;MIDI 01
059.835;001.081;51;000.438;MIDI 01
059.860;001.097;54;000.344;MIDI 01
060.322;000.690;59;000.406;MIDI 01
060.846;000.501;52;000.445;MIDI 01
061.312;000.525;51;000.398;MIDI 01
059.814;002.069;71;000.562;MIDI 01
061.818;000.610;52;000.398;MIDI 01
060.815;002.142;61;000.492;MIDI 01
060.834;002.252;49;000.453;MIDI 01
061.798;001.322;70;000.508;MIDI 01
062.307;000.824;54;000.320;MIDI 01
060.832;003.139;64;000.406;MIDI 01
063.000;001.008;56;000.344;MIDI 01
063.769;000.604;63;000.289;MIDI 01
063.779;000.628;54;000.305;MIDI 01
064.245;000.485;56;000.383;MIDI 01
064.243;000.713;64;000.469;MIDI 01
064.722;000.270;66;000.281;MIDI 01
064.944;000.297;68;000.367;MIDI 01
064.726;000.531;57;000.312;MIDI 01
062.986;002.792;71;000.375;MIDI 01
062.999;002.795;47;000.273;MIDI 01
065.199;000.615;66;000.383;MIDI 01
065.217;001.032;63;000.469;MIDI 01
065.725;000.562;56;000.305;MIDI 01
066.196;000.461;75;000.547;MIDI 01
065.716;000.994;73;000.445;MIDI 01
066.211;000.553;54;000.391;MIDI 01
065.241;001.647;59;000.336;MIDI 01
066.210;001.141;71;000.469;MIDI 01
066.193;001.202;68;000.516;MIDI 01
066.695;000.707;52;000.406;MIDI 01
066.681;001.045;76;000.594;MIDI 01
067.719;000.555;73;000.500;MIDI 01
068.255;000.433;71;000.398;MIDI 01
067.206;001.708;66;000.547;MIDI 01
068.727;000.231;69;000.359;MIDI 01
068.268;000.963;47;000.266;MIDI 01
068.224;001.058;75;000.484;MIDI 01
069.248;000.451;68;000.352;MIDI 01
069.265;000.445;64;000.242;MIDI 01
067.220;002.539;59;000.398;MIDI 01
069.225;000.605;76;000.469;MIDI 01
069.246;000.604;52;000.273;MIDI 01
069.736;000.522;75;000.406;MIDI 01
070.258;000.530;76;000.391;MIDI 01
070.774;000.519;78;000.336;MIDI 01
070.256;001.099;57;000.391;MIDI 01
070.265;001.174;61;000.414;MIDI 01
071.296;000.209;80;000.344;MIDI 01
071.532;000.250;78;000.336;MIDI 01
071.790;000.201;80;000.359;MIDI 01
072.008;000.247;81;000.367;MIDI 01
071.293;001.058;60;000.344;MIDI 01
071.301;001.161;56;000.352;MIDI 01
072.268;000.240;80;000.398;MIDI 01
072.501;000.202;78;000.422;MIDI 01
072.736;000.419;76;000.391;MIDI 01
072.987;000.336;80;000.344;MIDI 01
072.266;001.118;64;000.438;MIDI 01
073.241;000.210;78;000.391;MIDI 01
073.476;000.304;76;000.344;MIDI 01
073.722;000.205;78;000.352;MIDI 01
073.949;000.243;80;000.367;MIDI 01
072.276;001.982;61;000.406;MIDI 01
074.184;000.208;78;000.414;MIDI 01
074.433;000.261;76;000.344;MIDI 01
074.662;000.226;75;000.352;MIDI 01
074.894;000.229;78;000.391;MIDI 01
073.216;002.000;63;000.469;MIDI 01
074.200;001.084;60;000.258;MIDI 01
075.135;000.220;76;000.383;MIDI 01
075.379;000.220;75;000.367;MIDI 01
075.606;000.214;76;000.383;MIDI 01
076.084;000.208;76;000.453;MIDI 01
075.843;000.455;78;000.445;MIDI 01
076.320;000.220;75;000.391;MIDI 01
076.575;000.241;73;000.344;MIDI 01
076.786;000.333;76;000.375;MIDI 01
076.081;001.084;68;000.508;MIDI 01
077.059;000.220;75;000.422;MIDI 01
075.141;002.396;61;000.375;MIDI 01
077.279;000.373;73;000.422;MIDI 01
077.543;000.221;75;000.375;MIDI 01
077.529;000.509;59;000.352;MIDI 01
077.768;000.324;76;000.438;MIDI 01
077.996;000.336;71;000.531;MIDI 01
078.009;000.448;75;000.445;MIDI 01
077.041;001.434;67;000.492;MIDI 01
078.007;000.501;58;000.391;MIDI 01
078.246;000.465;73;000.461;MIDI 01
078.491;000.500;71;000.508;MIDI 01
078.717;000.279;75;000.461;MIDI 01
078.948;000.252;73;000.531;MIDI 01
079.199;000.232;71;000.398;MIDI 01
078.475;001.075;56;000.352;MIDI 01
079.440;000.213;73;000.406;MIDI 01
079.458;000.225;55;000.312;MIDI 01
079.691;000.229;53;000.297;MIDI 01
079.681;000.301;75;000.375;MIDI 01
078.959;001.196;70;000.492;MIDI 01
079.931;000.434;73;000.438;MIDI 01
080.166;000.237;71;000.406;MIDI 01
079.929;001.019;55;000.289;MIDI 01
080.630;000.320;73;000.414;MIDI 01
080.919;000.186;56;000.305;MIDI 01
080.417;000.841;70;000.367;MIDI 01
081.143;000.229;58;000.234;MIDI 01
081.385;000.204;63;000.312;MIDI 01
081.367;000.242;56;000.250;MIDI 01
081.597;000.286;55;000.305;MIDI 01
081.861;000.231;56;000.289;MIDI 01
080.890;001.275;71;000.438;MIDI 01
082.102;000.226;58;000.273;MIDI 01
082.072;000.287;73;000.414;MIDI 01
082.321;000.268;59;000.305;MIDI 01
082.318;000.276;75;000.461;MIDI 01
082.542;000.244;71;000.484;MIDI 01
082.555;000.292;56;000.344;MIDI 01
082.812;000.201;57;000.328;MIDI 01
083.036;000.224;59;000.328;MIDI 01
081.845;001.547;68;000.375;MIDI 01
083.258;000.185;57;000.281;MIDI 01
083.266;000.235;66;000.422;MIDI 01
083.491;000.061;64;000.391;MIDI 01
083.490;000.279;56;000.367;MIDI 01
083.748;000.220;58;000.312;MIDI 01
083.980;000.281;59;000.352;MIDI 01
082.781;001.549;73;000.531;MIDI 01
084.235;000.239;61;000.328;MIDI 01
084.213;000.510;76;000.547;MIDI 01
084.452;000.329;58;000.398;MIDI 01
084.705;000.210;59;000.406;MIDI 01
084.924;000.226;61;000.438;MIDI 01
083.737;001.455;66;000.445;MIDI 01
085.175;000.226;59;000.305;MIDI 01
085.186;000.232;64;000.414;MIDI 01
085.410;000.093;66;000.438;MIDI 01
085.428;000.276;58;000.359;MIDI 01
085.658;000.252;60;000.398;MIDI 01
085.883;000.329;61;000.484;MIDI 01
084.707;001.598;75;000.531;MIDI 01
086.121;000.232;63;000.430;MIDI 01
086.352;000.254;60;000.477;MIDI 01
086.117;000.641;78;000.570;MIDI 01
087.115;000.253;49;000.453;MIDI 01
087.333;000.322;51;000.492;MIDI 01
087.602;000.553;52;000.445;MIDI 01
088.067;000.485;54;000.477;MIDI 01
087.604;000.966;73;000.547;MIDI 01
086.633;002.118;61;000.469;MIDI 01
088.544;000.235;56;000.430;MIDI 01
088.768;000.261;54;000.414;MIDI 01
086.626;002.429;76;000.586;MIDI 01
089.021;000.208;56;000.367;MIDI 01
089.233;000.271;57;000.391;MIDI 01
089.002;000.536;75;000.539;MIDI 01
089.494;000.249;56;000.367;MIDI 01
089.718;000.214;54;000.383;MIDI 01
088.521;001.429;72;000.539;MIDI 01
089.943;000.203;52;000.375;MIDI 01
090.177;000.295;56;000.398;MIDI 01
085.660;004.815;68;000.539;MIDI 01
089.478;001.087;76;000.609;MIDI 01
090.445;000.211;54;000.406;MIDI 01
090.668;000.245;52;000.367;MIDI 01
089.951;001.053;73;000.477;MIDI 01
090.899;000.196;54;000.352;MIDI 01
090.903;000.225;72;000.422;MIDI 01
091.123;000.231;70;000.469;MIDI 01
091.140;000.248;56;000.344;MIDI 01
091.383;000.206;54;000.359;MIDI 01
090.431;001.249;75;000.562;MIDI 01
091.594;000.235;52;000.391;MIDI 01
091.377;000.623;72;000.422;MIDI 01
091.848;000.211;51;000.430;MIDI 01
092.070;000.256;54;000.359;MIDI 01
092.321;000.161;52;000.367;MIDI 01
092.307;000.248;80;000.438;MIDI 01
092.536;000.252;51;000.375;MIDI 01
092.765;000.195;52;000.359;MIDI 01
092.543;000.426;78;000.492;MIDI 01
092.768;000.217;80;000.453;MIDI 01
092.997;000.237;54;000.359;MIDI 01
091.845;001.406;75;000.477;MIDI 01
092.990;000.312;81;000.539;MIDI 01
093.237;000.234;52;000.430;MIDI 01
093.230;000.298;80;000.555;MIDI 01
093.466;000.257;57;000.375;MIDI 01
093.458;000.368;78;000.523;MIDI 01
093.707;000.200;56;000.406;MIDI 01
093.686;000.259;76;000.477;MIDI 01
093.922;000.293;57;000.359;MIDI 01
093.919;000.319;80;000.492;MIDI 01
094.140;000.237;78;000.547;MIDI 01
094.164;000.216;51;000.398;MIDI 01
094.368;000.246;76;000.500;MIDI 01
094.397;000.226;49;000.383;MIDI 01
094.610;000.223;78;000.523;MIDI 01
094.620;000.277;51;000.406;MIDI 01
093.234;001.708;73;000.508;MIDI 01
094.846;000.242;52;000.352;MIDI 01
095.059;000.278;72;000.531;MIDI 01
094.827;000.550;80;000.531;MIDI 01
095.293;000.231;56;000.406;MIDI 01
095.062;000.475;51;000.461;MIDI 01
095.057;000.485;78;000.508;MIDI 01
095.272;000.283;76;000.562;MIDI 01
095.521;000.232;54;000.438;MIDI 01
095.761;000.261;56;000.414;MIDI 01
095.508;000.524;75;000.586;MIDI 01
095.516;000.522;71;000.523;MIDI 01
095.740;000.330;78;000.562;MIDI 01
096.224;000.204;71;000.492;MIDI 01
096.015;000.459;49;000.500;MIDI 01
096.474;000.199;73;000.492;MIDI 01
096.695;000.259;74;000.539;MIDI 01
096.472;000.487;61;000.625;MIDI 01
095.989;001.127;77;000.578;MIDI 01
096.952;000.222;73;000.547;MIDI 01
096.954;000.340;66;000.562;MIDI 01
097.178;000.272;71;000.477;MIDI 01
097.432;000.284;66;000.594;MIDI 01
096.948;000.780;81;000.578;MIDI 01
097.425;000.474;69;000.516;MIDI 01
097.918;000.066;71;000.422;MIDI 01
097.656;000.421;73;000.578;MIDI 01
097.987;000.157;71;000.172;MIDI 01
098.139;000.245;69;000.484;MIDI 01
097.911;000.545;66;000.586;MIDI 01
098.392;000.226;71;000.445;MIDI 01
098.381;000.254;65;000.477;MIDI 01
098.618;000.229;63;000.445;MIDI 01
098.625;000.263;73;000.453;MIDI 01
098.868;000.264;71;000.453;MIDI 01
099.099;000.215;69;000.445;MIDI 01
099.325;000.209;68;000.398;MIDI 01
098.842;000.966;65;000.477;MIDI 01
099.555;000.265;71;000.398;MIDI 01
097.914;002.463;80;000.539;MIDI 01
099.834;000.592;66;000.445;MIDI 01
100.318;000.234;54;000.328;MIDI 01
100.305;000.264;78;000.445;MIDI 01
100.523;000.085;76;000.469;MIDI 01
100.526;000.347;56;000.398;MIDI 01
099.824;001.169;69;000.422;MIDI 01
100.779;000.440;57;000.430;MIDI 01
101.020;000.246;73;000.406;MIDI 01
101.257;000.159;71;000.375;MIDI 01
100.804;000.919;54;000.375;MIDI 01
101.484;000.254;69;000.375;MIDI 01
101.255;000.550;59;000.328;MIDI 01
101.726;000.242;61;000.453;MIDI 01
101.975;000.202;59;000.453;MIDI 01
101.739;000.456;68;000.375;MIDI 01
100.764;001.471;74;000.578;MIDI 01
102.195;000.215;61;000.422;MIDI 01
102.423;000.248;62;000.469;MIDI 01
102.201;000.518;73;000.484;MIDI 01
101.719;001.040;53;000.414;MIDI 01
102.726;000.236;61;000.297;MIDI 01
102.679;000.372;78;000.570;MIDI 01
102.661;000.399;57;000.508;MIDI 01
102.908;000.397;59;000.492;MIDI 01
103.147;000.383;78;000.570;MIDI 01
103.145;000.465;57;000.453;MIDI 01
103.383;000.240;61;000.453;MIDI 01
103.627;000.190;59;000.461;MIDI 01
103.873;000.162;57;000.320;MIDI 01
103.609;000.539;78;000.547;MIDI 01
104.078;000.212;59;000.352;MIDI 01
104.104;000.217;76;000.469;MIDI 01
104.321;000.141;74;000.469;MIDI 01
104.305;000.198;61;000.406;MIDI 01
103.614;001.233;56;000.500;MIDI 01
104.547;000.436;59;000.352;MIDI 01
104.780;000.306;57;000.391;MIDI 01
105.028;000.505;56;000.422;MIDI 01
105.242;000.361;59;000.297;MIDI 01
105.497;000.278;57;000.484;MIDI 01
105.742;000.299;56;000.469;MIDI 01
104.555;001.526;76;000.508;MIDI 01
105.979;000.231;57;000.391;MIDI 01
105.981;000.234;74;000.477;MIDI 01
106.209;000.231;59;000.352;MIDI 01
106.199;000.289;73;000.492;MIDI 01
106.461;000.185;57;000.367;MIDI 01
106.693;000.253;59;000.305;MIDI 01
106.931;000.257;61;000.438;MIDI 01
107.154;000.257;62;000.398;MIDI 01
106.439;001.018;69;000.570;MIDI 01
105.505;002.066;54;000.406;MIDI 01
107.419;000.216;64;000.398;MIDI 01
107.639;000.182;62;000.391;MIDI 01
107.407;000.672;68;000.578;MIDI 01
107.879;000.216;64;000.414;MIDI 01
107.870;000.291;52;000.508;MIDI 01
108.103;000.240;66;000.469;MIDI 01
106.441;002.031;74;000.578;MIDI 01
108.346;000.232;57;000.492;MIDI 01
108.357;000.266;64;000.438;MIDI 01
108.583;000.249;62;000.383;MIDI 01
108.817;000.223;57;000.453;MIDI 01
108.810;000.237;61;000.539;MIDI 01
109.044;000.267;64;000.492;MIDI 01
108.348;000.977;73;000.570;MIDI 01
109.285;000.239;62;000.531;MIDI 01
109.524;000.206;61;000.477;MIDI 01
109.302;000.499;57;000.438;MIDI 01
109.758;000.214;56;000.508;MIDI 01
109.726;000.276;62;000.422;MIDI 01
109.990;000.180;54;000.430;MIDI 01
109.955;000.265;64;000.430;MIDI 01
109.281;000.992;78;000.586;MIDI 01
110.240;000.218;62;000.367;MIDI 01
110.464;000.225;61;000.375;MIDI 01
110.701;000.252;59;000.406;MIDI 01
110.189;000.978;56;000.406;MIDI 01
110.928;000.246;62;000.422;MIDI 01
110.209;001.122;76;000.531;MIDI 01
111.154;000.234;61;000.492;MIDI 01
111.404;000.220;59;000.445;MIDI 01
111.632;000.134;64;000.492;MIDI 01
111.665;000.210;61;000.398;MIDI 01
109.293;002.609;71;000.531;MIDI 01
111.881;000.249;62;000.359;MIDI 01
111.172;001.043;57;000.422;MIDI 01
112.105;000.236;69;000.484;MIDI 01
112.116;000.246;61;000.375;MIDI 01
111.862;000.592;78;000.500;MIDI 01
112.096;000.434;76;000.523;MIDI 01
112.342;000.232;59;000.430;MIDI 01
112.325;000.256;74;000.539;MIDI 01
112.565;000.210;69;000.492;MIDI 01
112.551;000.241;57;000.469;MIDI 01
112.558;000.250;73;000.539;MIDI 01
112.775;000.049;61;000.492;MIDI 01
112.138;000.688;54;000.359;MIDI 01
112.792;000.287;76;000.562;MIDI 01
113.022;000.252;74;000.570;MIDI 01
113.035;000.473;69;000.500;MIDI 01
113.270;000.264;73;000.523;MIDI 01
113.493;000.245;74;000.492;MIDI 01
113.513;000.243;68;000.445;MIDI 01
113.045;000.930;47;000.445;MIDI 01
113.743;000.243;66;000.492;MIDI 01
113.735;000.295;76;000.531;MIDI 01
113.971;000.252;74;000.539;MIDI 01
114.211;000.239;73;000.508;MIDI 01
114.443;000.225;71;000.438;MIDI 01
113.047;001.673;59;000.492;MIDI 01
113.983;000.924;52;000.398;MIDI 01
114.678;000.265;74;000.492;MIDI 01
114.925;000.276;57;000.391;MIDI 01
113.993;001.355;68;000.469;MIDI 01
115.161;000.222;56;000.406;MIDI 01
115.381;000.189;61;000.406;MIDI 01
115.403;000.188;54;000.367;MIDI 01
115.626;000.211;63;000.391;MIDI 01
115.624;000.231;52;000.438;MIDI 01
115.866;000.229;64;000.430;MIDI 01
115.868;000.236;51;000.406;MIDI 01
116.104;000.251;49;000.453;MIDI 01
114.915;001.584;73;000.562;MIDI 01
116.349;000.190;48;000.445;MIDI 01
116.329;000.281;66;000.508;MIDI 01
116.559;000.260;49;000.469;MIDI 01
114.919;001.918;45;000.430;MIDI 01
116.816;000.243;68;000.500;MIDI 01
116.820;000.498;51;000.422;MIDI 01
116.818;000.545;44;000.438;MIDI 01
117.046;000.379;66;000.453;MIDI 01
116.802;000.700;72;000.555;MIDI 01
117.281;000.225;68;000.477;MIDI 01
117.506;000.243;69;000.516;MIDI 01
117.270;000.562;56;000.500;MIDI 01
117.745;000.286;68;000.508;MIDI 01
117.747;000.357;61;000.477;MIDI 01
117.964;000.356;66;000.516;MIDI 01
118.208;000.298;61;000.492;MIDI 01
117.735;000.810;76;000.594;MIDI 01
118.213;000.469;64;000.531;MIDI 01
118.436;000.305;68;000.523;MIDI 01
118.681;000.234;66;000.500;MIDI 01
118.941;000.213;64;000.391;MIDI 01
118.689;000.536;61;000.477;MIDI 01
119.157;000.216;60;000.430;MIDI 01
119.182;000.217;66;000.406;MIDI 01
119.399;000.217;58;000.352;MIDI 01
119.421;000.214;68;000.367;MIDI 01
119.646;000.345;66;000.391;MIDI 01
119.877;000.223;64;000.297;MIDI 01
120.106;000.210;63;000.375;MIDI 01
120.336;000.222;66;000.406;MIDI 01
119.643;000.977;60;000.391;MIDI 01
120.595;000.216;64;000.406;MIDI 01
120.824;000.208;63;000.383;MIDI 01
118.679;002.482;75;000.570;MIDI 01
121.062;000.181;64;000.352;MIDI 01
121.301;000.206;66;000.383;MIDI 01
121.057;000.485;68;000.438;MIDI 01
120.592;000.958;61;000.406;MIDI 01
121.554;000.157;64;000.320;MIDI 01
121.522;000.275;73;000.500;MIDI 01
121.779;000.216;63;000.391;MIDI 01
122.028;000.178;61;000.320;MIDI 01
122.004;000.243;73;000.461;MIDI 01
122.239;000.217;64;000.375;MIDI 01
121.556;001.021;57;000.289;MIDI 01
122.489;000.210;63;000.336;MIDI 01
122.459;000.579;73;000.461;MIDI 01
122.933;000.214;71;000.438;MIDI 01
122.967;000.200;63;000.359;MIDI 01
122.703;000.521;61;000.352;MIDI 01
123.145;000.237;69;000.469;MIDI 01
123.197;000.223;64;000.352;MIDI 01
122.497;001.029;54;000.250;MIDI 01
123.439;000.166;62;000.320;MIDI 01
123.651;000.211;61;000.352;MIDI 01
123.876;000.225;59;000.367;MIDI 01
124.105;000.268;62;000.312;MIDI 01
123.420;000.959;56;000.359;MIDI 01
124.342;000.206;61;000.398;MIDI 01
124.595;000.198;59;000.359;MIDI 01
123.417;001.622;71;000.461;MIDI 01
124.822;000.233;61;000.453;MIDI 01
125.051;000.210;62;000.477;MIDI 01
124.820;000.573;49;000.477;MIDI 01
124.379;001.041;53;000.320;MIDI 01
125.298;000.356;54;000.477;MIDI 01
125.292;000.480;61;000.445;MIDI 01
125.519;000.304;64;000.477;MIDI 01
125.748;000.195;54;000.586;MIDI 01
125.761;000.242;63;000.508;MIDI 01
125.985;000.223;61;000.508;MIDI 01
125.283;001.045;69;000.570;MIDI 01
126.265;000.102;60;000.344;MIDI 01
126.228;000.270;54;000.562;MIDI 01
126.371;000.441;60;000.023;MIDI 01
126.705;000.275;52;000.555;MIDI 01
126.700;000.328;44;000.586;MIDI 01
126.920;000.317;51;000.547;MIDI 01
127.188;000.283;49;000.586;MIDI 01
127.174;000.645;61;000.602;MIDI 01
127.182;000.706;52;000.555;MIDI 01
126.246;001.716;56;000.516;MIDI 01
127.659;000.339;49;000.617;MIDI 01
128.135;000.231;63;000.562;MIDI 01
126.230;002.174;68;000.562;MIDI 01
128.149;000.519;49;000.562;MIDI 01
128.153;000.645;55;000.555;MIDI 01
128.609;000.239;47;000.492;MIDI 01
128.834;000.245;46;000.531;MIDI 01
128.611;000.517;63;000.555;MIDI 01
129.057;000.254;47;000.477;MIDI 01
129.079;000.393;68;000.539;MIDI 01
129.306;000.214;70;000.578;MIDI 01
129.299;000.240;46;000.508;MIDI 01
129.086;000.693;56;000.516;MIDI 01
129.530;000.483;44;000.562;MIDI 01
129.758;000.281;47;000.508;MIDI 01
128.157;001.889;51;000.523;MIDI 01
128.123;001.925;75;000.641;MIDI 01
130.027;000.218;46;000.453;MIDI 01
130.242;000.218;44;000.500;MIDI 01
130.466;000.218;46;000.469;MIDI 01
130.689;000.258;47;000.492;MIDI 01
130.021;000.965;53;000.438;MIDI 01
129.526;001.490;71;000.594;MIDI 01
130.471;000.570;70;000.562;MIDI 01
129.991;001.124;74;000.609;MIDI 01
130.957;000.217;46;000.477;MIDI 01
130.951;000.327;75;000.586;MIDI 01
131.169;000.243;44;000.492;MIDI 01
131.407;000.224;42;000.477;MIDI 01
130.945;000.794;78;000.633;MIDI 01
131.411;000.364;75;000.602;MIDI 01
131.621;000.289;46;000.484;MIDI 01
131.889;000.208;44;000.477;MIDI 01
132.110;000.218;42;000.453;MIDI 01
132.334;000.229;44;000.406;MIDI 01
132.350;000.227;73;000.477;MIDI 01
131.894;000.685;75;000.594;MIDI 01
132.577;000.255;46;000.469;MIDI 01
131.867;001.003;77;000.633;MIDI 01
132.568;000.359;72;000.516;MIDI 01
132.814;000.218;44;000.461;MIDI 01
133.037;000.270;47;000.445;MIDI 01
133.280;000.433;46;000.492;MIDI 01
132.825;000.968;73;000.508;MIDI 01
133.496;000.309;44;000.531;MIDI 01
132.804;001.175;76;000.602;MIDI 01
133.749;000.286;75;000.578;MIDI 01
133.979;000.392;73;000.516;MIDI 01
134.217;000.227;75;000.508;MIDI 01
134.203;000.243;51;000.609;MIDI 01
133.753;000.931;43;000.562;MIDI 01
134.434;000.332;76;000.562;MIDI 01
134.656;000.233;71;000.516;MIDI 01
134.668;000.299;56;000.586;MIDI 01
134.666;000.429;75;000.555;MIDI 01
134.906;000.402;73;000.562;MIDI 01
135.126;000.241;56;000.633;MIDI 01
134.661;000.950;44;000.586;MIDI 01
135.135;000.493;71;000.531;MIDI 01
135.340;000.314;75;000.508;MIDI 01
135.588;000.249;73;000.555;MIDI 01
135.819;000.239;71;000.492;MIDI 01
135.586;000.530;56;000.594;MIDI 01
136.068;000.221;73;000.531;MIDI 01
136.083;000.206;54;000.508;MIDI 01
136.290;000.255;75;000.586;MIDI 01
136.295;000.261;52;000.555;MIDI 01
135.584;001.025;46;000.555;MIDI 01
136.539;000.287;73;000.594;MIDI 01
135.597;001.230;70;000.523;MIDI 01
136.768;000.453;76;000.578;MIDI 01
136.998;000.266;75;000.570;MIDI 01
136.545;000.993;69;000.500;MIDI 01
137.217;000.377;73;000.578;MIDI 01
136.537;001.206;54;000.547;MIDI 01
136.542;001.209;51;000.508;MIDI 01
137.694;000.316;57;000.570;MIDI 01
137.957;000.256;56;000.586;MIDI 01
138.168;000.253;54;000.578;MIDI 01
137.478;000.955;44;000.531;MIDI 01
137.946;000.522;63;000.594;MIDI 01
137.481;001.000;72;000.555;MIDI 01
138.412;000.249;53;000.562;MIDI 01
138.417;000.322;68;000.547;MIDI 01
138.630;000.334;51;000.562;MIDI 01
138.864;000.359;53;000.477;MIDI 01
138.866;000.361;68;000.609;MIDI 01
139.072;000.310;49;000.555;MIDI 01
138.394;001.056;71;000.586;MIDI 01
139.331;000.284;54;000.531;MIDI 01
139.567;000.258;53;000.523;MIDI 01
139.333;000.516;68;000.625;MIDI 01
139.783;000.234;66;000.562;MIDI 01
139.802;000.262;54;000.508;MIDI 01
140.018;000.284;56;000.578;MIDI 01
139.327;000.979;70;000.594;MIDI 01
140.010;000.301;65;000.617;MIDI 01
140.254;000.271;57;000.555;MIDI 01
140.477;000.296;56;000.594;MIDI 01
140.720;000.284;57;000.625;MIDI 01
140.249;001.056;69;000.656;MIDI 01
140.968;000.395;59;000.633;MIDI 01
141.269;000.340;61;000.586;MIDI 01
141.562;000.250;60;000.469;MIDI 01
141.782;000.436;61;000.516;MIDI 01
140.256;002.029;66;000.617;MIDI 01
142.010;000.277;63;000.531;MIDI 01
142.257;000.252;64;000.555;MIDI 01
142.485;000.240;63;000.500;MIDI 01
141.262;001.675;68;000.578;MIDI 01
142.702;000.483;64;000.508;MIDI 01
141.267;001.938;37;000.758;MIDI 01
142.944;000.298;66;000.562;MIDI 01
143.182;000.270;68;000.609;MIDI 01
143.411;000.311;66;000.570;MIDI 01
143.645;000.245;68;000.539;MIDI 01
143.633;000.277;44;000.664;MIDI 01
143.185;000.942;63;000.531;MIDI 01
143.876;000.280;69;000.617;MIDI 01
143.170;000.991;36;000.641;MIDI 01
144.114;000.196;49;000.609;MIDI 01
144.108;000.293;68;000.578;MIDI 01
144.570;000.218;49;000.641;MIDI 01
144.580;000.234;64;000.562;MIDI 01
144.339;000.486;66;000.570;MIDI 01
144.121;000.947;61;000.516;MIDI 01
144.094;000.994;40;000.664;MIDI 01
144.804;000.285;68;000.578;MIDI 01
145.041;000.270;66;000.555;MIDI 01
145.050;000.453;49;000.680;MIDI 01
145.290;000.307;64;000.531;MIDI 01
145.522;000.229;66;000.508;MIDI 01
145.536;000.236;48;000.516;MIDI 01
145.755;000.253;46;000.516;MIDI 01
145.043;001.009;63;000.523;MIDI 01
145.750;000.616;68;000.539;MIDI 01
146.224;000.222;64;000.484;MIDI 01
145.993;000.484;66;000.484;MIDI 01
146.008;000.646;48;000.492;MIDI 01
146.456;000.496;63;000.492;MIDI 01
145.048;001.950;39;000.578;MIDI 01
146.688;000.312;66;000.531;MIDI 01
146.947;000.183;37;000.539;MIDI 01
146.943;000.193;64;000.523;MIDI 01
147.197;000.194;63;000.344;MIDI 01
147.422;000.188;64;000.430;MIDI 01
147.415;000.217;37;000.477;MIDI 01
147.643;000.223;66;000.438;MIDI 01
147.621;000.298;39;000.469;MIDI 01
147.885;000.198;64;000.492;MIDI 01
148.108;000.226;63;000.492;MIDI 01
147.865;000.474;40;000.531;MIDI 01
148.344;000.190;61;000.531;MIDI 01
146.925;001.721;73;000.648;MIDI 01
148.335;000.483;42;000.477;MIDI 01
148.568;000.271;64;000.484;MIDI 01
146.949;001.961;49;000.523;MIDI 01
148.808;000.252;44;000.438;MIDI 01
148.823;000.441;63;000.422;MIDI 01
149.034;000.269;42;000.406;MIDI 01
149.256;000.242;44;000.438;MIDI 01
148.796;000.941;72;000.617;MIDI 01
149.498;000.245;45;000.469;MIDI 01
149.283;000.559;68;000.406;MIDI 01
149.733;000.244;44;000.430;MIDI 01
149.731;000.355;73;000.586;MIDI 01
149.945;000.268;42;000.445;MIDI 01
150.172;000.232;40;000.438;MIDI 01
150.196;000.333;73;000.562;MIDI 01
150.414;000.275;44;000.477;MIDI 01
149.718;001.024;76;000.625;MIDI 01
150.653;000.231;42;000.484;MIDI 01
150.882;000.249;40;000.438;MIDI 01
151.113;000.194;72;000.414;MIDI 01
151.123;000.229;42;000.367;MIDI 01
151.330;000.201;70;000.453;MIDI 01
150.651;000.941;73;000.602;MIDI 01
151.345;000.341;44;000.414;MIDI 01
150.642;001.129;75;000.602;MIDI 01
151.561;000.388;72;000.477;MIDI 01
151.573;000.404;42;000.352;MIDI 01
151.806;000.206;40;000.430;MIDI 01
151.771;000.423;73;000.477;MIDI 01
151.994;000.216;39;000.453;MIDI 01
152.233;000.166;72;000.492;MIDI 01
152.214;000.256;42;000.430;MIDI 01
152.467;000.211;68;000.531;MIDI 01
152.470;000.500;40;000.406;MIDI 01
152.695;000.427;66;000.516;MIDI 01
152.925;000.214;68;000.523;MIDI 01
152.017;001.265;75;000.539;MIDI 01
153.151;000.307;69;000.523;MIDI 01
152.927;000.555;52;000.484;MIDI 01
153.404;000.318;57;000.523;MIDI 01
153.411;000.394;68;000.523;MIDI 01
153.635;000.241;66;000.500;MIDI 01
153.861;000.262;57;000.523;MIDI 01
153.864;000.336;64;000.547;MIDI 01
154.095;000.397;68;000.547;MIDI 01
154.328;000.208;66;000.562;MIDI 01
154.321;000.477;57;000.547;MIDI 01
154.789;000.192;56;000.445;MIDI 01
154.802;000.214;66;000.461;MIDI 01
153.399;001.665;73;000.609;MIDI 01
154.557;000.636;64;000.492;MIDI 01
155.001;000.232;54;000.461;MIDI 01
155.003;000.265;68;000.539;MIDI 01
155.256;000.178;66;000.469;MIDI 01
155.483;000.232;64;000.469;MIDI 01
155.253;000.468;56;000.539;MIDI 01
155.715;000.201;63;000.523;MIDI 01
155.939;000.174;66;000.531;MIDI 01
155.702;000.525;44;000.539;MIDI 01
156.167;000.186;64;000.539;MIDI 01
155.240;001.358;72;000.586;MIDI 01
156.409;000.224;68;000.492;MIDI 01
156.658;000.177;69;000.500;MIDI 01
156.637;000.242;73;000.570;MIDI 01
156.854;000.239;75;000.586;MIDI 01
156.660;000.448;47;000.414;MIDI 01
156.869;000.251;71;000.477;MIDI 01
157.084;000.223;76;000.617;MIDI 01
157.097;000.483;73;000.578;MIDI 01
157.321;000.295;75;000.539;MIDI 01
157.574;000.227;72;000.508;MIDI 01
157.795;000.119;73;000.570;MIDI 01
157.570;000.346;78;000.578;MIDI 01
157.086;000.999;45;000.586;MIDI 01
156.172;001.917;49;000.641;MIDI 01
158.027;000.276;44;000.570;MIDI 01
158.031;000.282;80;000.680;MIDI 01
158.061;000.431;75;000.461;MIDI 01
158.542;000.067;49;000.289;MIDI 01
158.271;000.402;78;000.570;MIDI 01
158.497;000.232;56;000.523;MIDI 01
158.501;000.231;80;000.562;MIDI 01
158.718;000.320;81;000.570;MIDI 01
158.029;001.034;48;000.570;MIDI 01
158.976;000.240;61;000.500;MIDI 01
158.965;000.315;80;000.664;MIDI 01
159.182;000.276;78;000.555;MIDI 01
159.420;000.234;61;000.602;MIDI 01
159.418;000.417;76;000.586;MIDI 01
158.952;000.958;52;000.602;MIDI 01
159.651;000.325;80;000.547;MIDI 01
159.878;000.245;78;000.570;MIDI 01
159.871;000.446;61;000.625;MIDI 01
160.359;000.205;60;000.438;MIDI 01
160.122;000.447;76;000.547;MIDI 01
160.347;000.235;78;000.516;MIDI 01
160.576;000.234;58;000.422;MIDI 01
160.569;000.282;80;000.477;MIDI 01
160.809;000.208;78;000.516;MIDI 01
161.030;000.279;76;000.477;MIDI 01
160.820;000.659;60;000.430;MIDI 01
161.259;000.252;75;000.508;MIDI 01
159.869;001.871;51;000.547;MIDI 01
161.495;000.272;78;000.516;MIDI 01
161.732;000.201;76;000.547;MIDI 01
161.757;000.433;49;000.453;MIDI 01
161.977;000.228;75;000.422;MIDI 01
162.223;000.204;76;000.414;MIDI 01
162.220;000.317;52;000.375;MIDI 01
162.452;000.367;78;000.438;MIDI 01
162.686;000.175;76;000.430;MIDI 01
162.680;000.228;57;000.336;MIDI 01
162.919;000.216;74;000.359;MIDI 01
163.146;000.194;73;000.414;MIDI 01
163.148;000.218;57;000.305;MIDI 01
161.744;001.664;61;000.508;MIDI 01
163.365;000.300;76;000.438;MIDI 01
163.619;000.210;74;000.469;MIDI 01
163.615;000.424;57;000.312;MIDI 01
163.844;000.240;73;000.414;MIDI 01
164.081;000.174;74;000.422;MIDI 01
164.076;000.222;56;000.344;MIDI 01
164.088;000.380;66;000.367;MIDI 01
164.307;000.239;76;000.430;MIDI 01
164.325;000.232;54;000.352;MIDI 01
163.613;001.120;59;000.422;MIDI 01
164.557;000.203;71;000.477;MIDI 01
164.540;000.251;74;000.461;MIDI 01
164.767;000.457;73;000.523;MIDI 01
165.011;000.223;71;000.508;MIDI 01
165.019;000.232;66;000.562;MIDI 01
165.242;000.240;74;000.469;MIDI 01
165.481;000.091;71;000.492;MIDI 01
165.473;000.281;73;000.484;MIDI 01
165.734;000.267;71;000.492;MIDI 01
165.947;000.069;69;000.438;MIDI 01
165.950;000.156;73;000.453;MIDI 01
165.497;000.718;65;000.477;MIDI 01
166.180;000.075;68;000.484;MIDI 01
166.162;000.287;74;000.453;MIDI 01
164.568;001.895;56;000.383;MIDI 01
165.971;000.662;49;000.320;MIDI 01
166.428;000.228;69;000.516;MIDI 01
166.426;000.291;73;000.539;MIDI 01
166.414;000.365;54;000.516;MIDI 01
166.762;000.134;49;000.203;MIDI 01
166.665;000.360;71;000.523;MIDI 01
166.893;000.240;69;000.539;MIDI 01
166.889;000.302;54;000.531;MIDI 01
166.456;000.927;66;000.414;MIDI 01
167.123;000.273;73;000.531;MIDI 01
167.355;000.258;71;000.531;MIDI 01
167.603;000.254;69;000.477;MIDI 01
167.383;000.495;59;000.461;MIDI 01
167.830;000.221;71;000.398;MIDI 01
167.370;000.685;54;000.438;MIDI 01
167.848;000.232;53;000.398;MIDI 01
168.093;000.180;51;000.406;MIDI 01
168.075;000.273;73;000.453;MIDI 01
167.365;001.237;68;000.508;MIDI 01
168.310;000.448;71;000.414;MIDI 01
168.555;000.261;69;000.438;MIDI 01
169.019;000.232;71;000.375;MIDI 01
168.373;000.891;53;000.023;MIDI 01
168.781;000.525;68;000.422;MIDI 01
167.404;001.915;56;000.367;MIDI 01
169.505;000.199;68;000.328;MIDI 01
169.735;000.183;66;000.336;MIDI 01
169.281;000.701;54;000.289;MIDI 01
169.261;000.921;57;000.227;MIDI 01
169.964;000.279;65;000.367;MIDI 01
168.325;001.958;61;000.383;MIDI 01
170.458;000.183;61;000.320;MIDI 01
170.678;000.172;59;000.359;MIDI 01
170.915;000.186;57;000.328;MIDI 01
169.249;001.891;69;000.438;MIDI 01
170.207;000.954;66;000.383;MIDI 01
170.226;000.964;54;000.219;MIDI 01
171.387;000.246;54;000.227;MIDI 01
171.630;000.183;52;000.297;MIDI 01
171.846;000.217;51;000.297;MIDI 01
171.156;000.934;68;000.414;MIDI 01
172.091;000.477;52;000.289;MIDI 01
171.190;001.434;56;000.289;MIDI 01
172.561;000.150;66;000.344;MIDI 01
171.134;001.680;73;000.547;MIDI 01
172.786;000.259;64;000.383;MIDI 01
172.581;000.484;49;000.281;MIDI 01
172.346;000.814;68;000.328;MIDI 01
173.045;000.145;63;000.375;MIDI 01
173.286;000.197;69;000.375;MIDI 01
173.046;000.610;72;000.508;MIDI 01
173.727;000.234;66;000.461;MIDI 01
173.498;000.468;68;000.414;MIDI 01
173.510;000.484;44;000.281;MIDI 01
173.974;000.216;64;000.477;MIDI 01
173.976;000.309;49;000.438;MIDI 01
173.963;000.669;76;000.633;MIDI 01
173.061;001.613;56;000.336;MIDI 01
174.458;000.258;49;000.391;MIDI 01
174.657;000.263;71;000.500;MIDI 01
174.209;000.717;68;000.438;MIDI 01
174.435;000.553;73;000.523;MIDI 01
174.918;000.221;69;000.492;MIDI 01
175.147;000.228;68;000.398;MIDI 01
174.932;000.535;49;000.312;MIDI 01
175.404;000.197;69;000.445;MIDI 01
175.409;000.202;48;000.289;MIDI 01
174.926;000.726;54;000.422;MIDI 01
175.634;000.247;46;000.352;MIDI 01
175.626;000.279;66;000.414;MIDI 01
175.854;000.217;48;000.375;MIDI 01
175.878;000.219;51;000.398;MIDI 01
176.092;000.266;49;000.438;MIDI 01
176.331;000.244;51;000.445;MIDI 01
176.562;000.429;48;000.484;MIDI 01
175.867;001.362;68;000.461;MIDI 01
176.903;000.414;52;000.531;MIDI 01
176.898;000.593;40;000.547;MIDI 01
177.251;000.282;51;000.500;MIDI 01
177.483;000.230;52;000.500;MIDI 01
177.488;000.239;73;000.594;MIDI 01
177.713;000.215;54;000.477;MIDI 01
177.705;000.284;72;000.539;MIDI 01
174.900;003.126;75;000.617;MIDI 01
177.940;000.247;52;000.453;MIDI 01
177.944;000.351;80;000.609;MIDI 01
178.157;000.256;51;000.477;MIDI 01
178.391;000.233;45;000.531;MIDI 01
178.397;000.246;49;000.555;MIDI 01
178.617;000.050;52;000.555;MIDI 01
178.379;000.325;80;000.664;MIDI 01
178.860;000.244;51;000.633;MIDI 01
177.942;001.393;73;000.570;MIDI 01
179.325;000.179;51;000.523;MIDI 01
178.877;000.632;39;000.586;MIDI 01
178.863;000.698;80;000.664;MIDI 01
179.100;000.464;49;000.508;MIDI 01
179.327;000.259;78;000.570;MIDI 01
179.551;000.268;52;000.531;MIDI 01
179.553;000.268;76;000.586;MIDI 01
179.332;000.533;70;000.539;MIDI 01
179.797;000.360;51;000.539;MIDI 01
179.799;000.394;75;000.578;MIDI 01
180.020;000.294;49;000.508;MIDI 01
180.276;000.217;48;000.547;MIDI 01
180.274;000.232;44;000.500;MIDI 01
179.784;000.753;78;000.625;MIDI 01
180.265;000.318;75;000.609;MIDI 01
180.528;000.111;51;000.609;MIDI 01
180.906;000.287;37;000.562;MIDI 01
180.900;000.696;49;000.656;MIDI 01
181.633;000.194;73;000.438;MIDI 01
180.911;000.926;75;000.602;MIDI 01
181.846;000.297;71;000.508;MIDI 01
181.602;000.562;52;000.492;MIDI 01
182.105;000.386;57;000.570;MIDI 01
182.603;000.312;57;000.602;MIDI 01
182.101;001.071;73;000.562;MIDI 01
180.903;002.274;76;000.688;MIDI 01
183.094;000.457;57;000.500;MIDI 01
183.570;000.131;55;000.500;MIDI 01
183.555;000.319;59;000.648;MIDI 01
183.107;000.815;71;000.453;MIDI 01
183.792;000.247;54;000.477;MIDI 01
183.086;001.046;75;000.586;MIDI 01
184.045;000.310;64;000.609;MIDI 01
184.034;000.661;79;000.648;MIDI 01
184.533;000.246;64;000.578;MIDI 01
184.039;001.078;52;000.516;MIDI 01
184.052;001.207;71;000.578;MIDI 01
185.034;000.494;64;000.562;MIDI 01
185.514;000.236;62;000.562;MIDI 01
185.011;000.989;78;000.602;MIDI 01
185.734;000.286;61;000.617;MIDI 01
185.036;001.018;70;000.461;MIDI 01
185.532;000.528;54;000.453;MIDI 01
186.010;000.393;59;000.555;MIDI 01
186.508;000.340;59;000.594;MIDI 01
186.008;000.997;74;000.562;MIDI 01
186.012;001.070;66;000.562;MIDI 01
187.005;000.553;59;000.617;MIDI 01
187.011;000.622;65;000.562;MIDI 01
187.515;000.242;57;000.477;MIDI 01
187.490;000.522;61;000.492;MIDI 01
187.730;000.299;56;000.570;MIDI 01
186.993;001.065;73;000.586;MIDI 01
187.994;000.230;57;000.523;MIDI 01
188.008;000.284;66;000.461;MIDI 01
188.218;000.245;56;000.531;MIDI 01
188.458;000.264;54;000.516;MIDI 01
188.467;000.327;66;000.531;MIDI 01
187.983;000.833;49;000.555;MIDI 01
188.686;000.271;52;000.562;MIDI 01
187.996;001.053;69;000.570;MIDI 01
188.940;000.346;68;000.609;MIDI 01
188.953;000.530;66;000.523;MIDI 01
189.448;000.208;64;000.469;MIDI 01
188.946;000.988;48;000.539;MIDI 01
189.651;000.284;63;000.555;MIDI 01
189.429;000.522;68;000.602;MIDI 01
188.938;001.016;51;000.609;MIDI 01
189.899;000.403;73;000.617;MIDI 01
189.917;000.704;64;000.508;MIDI 01
190.393;000.379;73;000.609;MIDI 01
189.896;001.073;52;000.578;MIDI 01
190.409;000.579;56;000.578;MIDI 01
190.893;000.378;63;000.539;MIDI 01
190.896;000.704;73;000.617;MIDI 01
191.385;000.243;72;000.516;MIDI 01
191.370;000.266;63;000.555;MIDI 01
191.598;000.130;70;000.555;MIDI 01
190.915;001.251;66;000.461;MIDI 01
191.849;000.322;72;000.508;MIDI 01
191.842;000.336;78;000.617;MIDI 01
191.860;000.494;63;000.539;MIDI 01
192.072;000.287;73;000.633;MIDI 01
192.306;000.140;66;000.641;MIDI 01
192.311;000.282;61;000.539;MIDI 01
192.299;000.324;78;000.680;MIDI 01
192.545;000.084;60;000.578;MIDI 01
192.308;000.323;75;000.594;MIDI 01
190.891;001.746;51;000.602;MIDI 01
192.541;000.509;68;000.641;MIDI 01
192.882;000.299;78;000.625;MIDI 01
192.887;000.304;69;000.602;MIDI 01
192.894;000.526;75;000.586;MIDI 01
192.905;000.610;49;000.617;MIDI 01
193.420;000.101;68;000.414;MIDI 01
193.400;000.174;73;000.531;MIDI 01
193.396;000.290;76;000.570;MIDI 01
193.635;000.144;66;000.484;MIDI 01
193.624;000.323;75;000.570;MIDI 01
193.633;000.367;72;000.523;MIDI 01
193.418;000.653;52;000.516;MIDI 01
193.903;000.282;68;000.586;MIDI 01
193.914;000.349;57;000.500;MIDI 01
193.908;000.510;73;000.609;MIDI 01
194.383;000.103;66;000.531;MIDI 01
193.885;000.644;76;000.602;MIDI 01
194.385;000.260;57;000.508;MIDI 01
192.897;001.755;61;000.688;MIDI 01
194.607;000.053;64;000.516;MIDI 01
194.371;000.414;75;000.602;MIDI 01
194.609;000.342;73;000.602;MIDI 01
194.889;000.481;57;000.477;MIDI 01
194.879;000.619;66;000.586;MIDI 01
194.868;000.706;75;000.641;MIDI 01
195.378;000.271;56;000.508;MIDI 01
194.893;000.766;63;000.484;MIDI 01
195.585;000.290;54;000.555;MIDI 01
195.368;000.549;72;000.562;MIDI 01
194.884;001.039;60;000.547;MIDI 01
195.852;000.244;52;000.500;MIDI 01
196.076;000.301;51;000.508;MIDI 01
196.326;000.325;49;000.523;MIDI 01
196.581;000.374;47;000.539;MIDI 01
195.844;001.884;68;000.562;MIDI 01
197.485;000.543;49;000.602;MIDI 01
195.847;002.247;64;000.609;MIDI 01
196.919;001.256;46;000.617;MIDI 01
198.008;000.350;54;000.594;MIDI 01
198.002;000.684;63;000.523;MIDI 01
195.842;002.930;73;000.570;MIDI 01
198.529;000.264;54;000.617;MIDI 01
198.524;000.475;61;000.602;MIDI 01
199.069;000.374;54;000.586;MIDI 01
199.061;000.503;63;000.531;MIDI 01
197.997;001.608;66;000.594;MIDI 01
198.006;001.621;45;000.562;MIDI 01
199.570;000.086;53;000.523;MIDI 01
199.569;000.277;44;000.516;MIDI 01
199.800;000.083;51;000.609;MIDI 01
199.048;000.856;72;000.625;MIDI 01
199.807;000.152;42;000.500;MIDI 01
199.572;000.409;65;000.578;MIDI 01
199.795;000.368;66;000.586;MIDI 01
200.079;000.424;68;000.617;MIDI 01
200.619;000.323;68;000.664;MIDI 01
200.095;001.070;41;000.516;MIDI 01
200.074;001.144;71;000.641;MIDI 01
201.140;000.344;68;000.555;MIDI 01
201.631;000.242;61;000.656;MIDI 01
201.656;000.286;66;000.516;MIDI 01
201.126;000.892;70;000.609;MIDI 01
201.880;000.305;64;000.531;MIDI 01
200.091;002.124;49;000.562;MIDI 01
202.177;000.280;63;000.523;MIDI 01
202.149;000.408;66;000.594;MIDI 01
202.690;000.385;66;000.664;MIDI 01
202.756;000.358;61;000.336;MIDI 01
201.145;002.260;42;000.484;MIDI 01
202.159;001.307;69;000.617;MIDI 01
202.185;001.606;51;000.461;MIDI 01
203.371;000.924;60;000.375;MIDI 01
204.065;000.259;64;000.500;MIDI 01
203.349;000.992;66;000.570;MIDI 01
204.284;000.168;63;000.516;MIDI 01
204.097;000.571;51;000.328;MIDI 01
204.592;000.375;56;000.375;MIDI 01
205.081;000.288;56;000.477;MIDI 01
204.552;001.279;64;000.516;MIDI 01
203.369;002.501;68;000.531;MIDI 01
205.606;000.489;56;000.383;MIDI 01
204.604;001.639;61;000.359;MIDI 01
206.128;000.163;54;000.320;MIDI 01
205.594;000.772;70;000.523;MIDI 01
206.312;000.177;68;000.508;MIDI 01
206.090;000.529;66;000.469;MIDI 01
206.316;000.331;52;000.469;MIDI 01
206.618;000.286;54;000.352;MIDI 01
206.600;000.562;69;000.555;MIDI 01
206.606;000.642;63;000.508;MIDI 01
207.120;000.169;54;000.352;MIDI 01
206.590;001.078;72;000.609;MIDI 01
207.653;000.355;61;000.461;MIDI 01
207.678;000.544;54;000.328;MIDI 01
207.113;001.175;68;000.531;MIDI 01
208.194;000.196;52;000.359;MIDI 01
208.175;000.308;64;000.484;MIDI 01
208.406;000.295;51;000.414;MIDI 01
208.177;000.704;61;000.445;MIDI 01
208.683;000.374;66;000.445;MIDI 01
208.669;000.397;69;000.492;MIDI 01
208.698;000.457;52;000.367;MIDI 01
209.161;000.194;51;000.422;MIDI 01
207.628;001.746;73;000.695;MIDI 01
209.155;000.303;69;000.484;MIDI 01
209.159;000.311;66;000.500;MIDI 01
209.379;000.329;49;000.508;MIDI 01
203.389;006.373;44;000.391;MIDI 01
209.679;000.543;69;000.633;MIDI 01
209.716;000.510;66;000.438;MIDI 01
210.186;000.056;64;000.500;MIDI 01
209.664;000.815;72;000.695;MIDI 01
210.433;000.057;63;000.578;MIDI 01
210.192;000.320;68;000.555;MIDI 01
210.431;000.085;66;000.617;MIDI 01
209.700;001.005;51;000.461;MIDI 01
210.727;000.268;64;000.555;MIDI 01
210.721;000.418;49;000.609;MIDI 01
210.725;000.566;68;000.625;MIDI 01
211.258;000.101;66;000.617;MIDI 01
211.262;000.257;70;000.656;MIDI 01
211.279;000.369;49;000.656;MIDI 01
211.552;000.111;68;000.680;MIDI 01
211.555;000.507;72;000.664;MIDI 01
210.182;001.921;44;000.633;MIDI 01
212.011;000.836;49;000.656;MIDI 01
212.760;000.367;47;000.492;MIDI 01
212.006;001.165;70;000.672;MIDI 01
212.002;001.254;73;000.688;MIDI 01
210.710;002.737;76;000.734;MIDI 01
213.045;000.436;46;000.602;MIDI 01
213.360;000.700;75;000.648;MIDI 01
213.372;000.923;70;000.477;MIDI 01
212.021;002.678;43;000.570;MIDI 01
213.980;000.806;73;000.602;MIDI 01
213.374;001.623;51;000.516;MIDI 01
214.997;000.375;52;000.312;MIDI 01
213.369;002.258;63;000.484;MIDI 01
214.721;000.922;68;000.391;MIDI 01
214.695;001.267;72;000.562;MIDI 01
215.310;000.887;54;000.398;MIDI 01
216.180;000.303;52;000.422;MIDI 01
216.480;000.385;51;000.430;MIDI 01
215.919;001.304;64;000.430;MIDI 01
216.776;000.484;49;000.438;MIDI 01
215.906;002.816;73;000.555;MIDI 01
217.221;001.983;63;000.445;MIDI 01
217.230;002.433;56;000.453;MIDI 01
214.708;004.987;44;000.375;MIDI 01
219.340;000.375;64;000.336;MIDI 01
219.728;000.572;66;000.352;MIDI 01
218.659;001.789;72;000.531;MIDI 01
220.276;000.919;65;000.383;MIDI 01
215.929;005.894;68;000.438;MIDI 01
220.268;002.084;57;000.438;MIDI 01
222.378;000.316;56;000.219;MIDI 01
222.649;000.421;57;000.359;MIDI 01
221.110;002.129;61;000.297;MIDI 01
223.015;000.752;59;000.312;MIDI 01
221.741;002.056;66;000.477;MIDI 01
222.995;001.403;65;000.523;MIDI 01
223.706;000.702;57;000.297;MIDI 01
223.707;000.728;61;000.359;MIDI 01
224.344;000.431;66;000.312;MIDI 01
224.350;000.707;56;000.391;MIDI 01
225.029;000.409;66;000.383;MIDI 01
224.339;001.530;69;000.547;MIDI 01
225.036;000.849;54;000.328;MIDI 01
225.824;000.970;61;000.367;MIDI 01
226.677;000.434;59;000.297;MIDI 01
227.068;000.472;57;000.320;MIDI 01
225.834;001.820;66;000.383;MIDI 01
227.536;001.060;56;000.289;MIDI 01
227.533;001.137;65;000.320;MIDI 01
228.535;001.595;54;000.234;MIDI 01
228.512;001.736;63;000.258;MIDI 01
230.064;005.599;65;000.219;MIDI 01
230.069;005.644;56;000.180;MIDI 01
220.270;015.461;49;000.414;MIDI 01
220.250;015.506;73;000.516;MIDI 01
225.796;009.973;68;000.391;MIDI 01
