Start;Duration;Pitch;Velocity;Instrument
000.895;000.029;66;000.523;MIDI 01
000.892;000.033;78;000.555;MIDI 01
001.058;000.042;66;000.523;MIDI 01
001.055;000.052;78;000.508;MIDI 01
001.218;000.049;66;000.562;MIDI 01
001.228;000.044;78;000.531;MIDI 01
001.398;000.031;64;000.555;MIDI 01
001.400;000.031;76;000.570;MIDI 01
001.560;000.029;73;000.523;MIDI 01
001.562;000.030;61;000.539;MIDI 01
001.717;000.158;71;000.625;MIDI 01
001.714;000.171;59;000.586;MIDI 01
001.858;000.041;57;000.523;MIDI 01
001.873;000.043;64;000.484;MIDI 01
001.878;000.040;50;000.445;MIDI 01
001.870;000.050;45;000.477;MIDI 01
001.884;000.042;52;000.484;MIDI 01
001.880;000.067;69;000.562;MIDI 01
002.053;000.036;61;000.609;MIDI 01
002.059;000.033;73;000.570;MIDI 01
002.218;000.044;59;000.531;MIDI 01
002.228;000.035;71;000.570;MIDI 01
002.388;000.040;73;000.594;MIDI 01
002.390;000.040;61;000.562;MIDI 01
002.547;000.037;63;000.617;MIDI 01
002.552;000.041;75;000.641;MIDI 01
002.751;000.023;77;000.547;MIDI 01
002.727;000.180;76;000.656;MIDI 01
002.729;000.181;64;000.648;MIDI 01
002.875;000.053;55;000.547;MIDI 01
002.907;000.035;69;000.500;MIDI 01
002.891;000.053;43;000.484;MIDI 01
002.894;000.056;50;000.484;MIDI 01
002.893;000.095;45;000.500;MIDI 01
002.910;000.082;74;000.609;MIDI 01
003.084;000.042;66;000.641;MIDI 01
003.084;000.055;78;000.617;MIDI 01
003.244;000.037;66;000.633;MIDI 01
003.248;000.043;78;000.656;MIDI 01
003.419;000.041;66;000.648;MIDI 01
003.422;000.043;78;000.656;MIDI 01
003.594;000.030;64;000.633;MIDI 01
003.591;000.036;76;000.633;MIDI 01
003.763;000.034;61;000.656;MIDI 01
003.776;000.025;73;000.562;MIDI 01
003.933;000.087;59;000.648;MIDI 01
003.928;000.166;71;000.703;MIDI 01
004.090;000.039;54;000.523;MIDI 01
004.093;000.047;52;000.555;MIDI 01
004.086;000.055;64;000.531;MIDI 01
004.098;000.047;69;000.531;MIDI 01
004.091;000.074;42;000.516;MIDI 01
004.261;000.045;57;000.594;MIDI 01
004.256;000.056;69;000.656;MIDI 01
004.438;000.027;59;000.625;MIDI 01
004.442;000.026;71;000.664;MIDI 01
004.604;000.036;57;000.609;MIDI 01
004.608;000.041;69;000.680;MIDI 01
004.791;000.140;59;000.672;MIDI 01
004.965;000.031;59;000.281;MIDI 01
004.793;000.209;71;000.719;MIDI 01
004.977;000.046;40;000.422;MIDI 01
004.968;000.058;54;000.570;MIDI 01
004.972;000.088;64;000.602;MIDI 01
004.979;000.083;47;000.484;MIDI 01
004.975;000.103;69;000.609;MIDI 01
005.145;000.172;59;000.680;MIDI 01
005.315;000.023;64;000.570;MIDI 01
005.318;000.036;47;000.516;MIDI 01
005.147;000.215;71;000.766;MIDI 01
005.330;000.047;40;000.250;MIDI 01
005.316;000.067;54;000.547;MIDI 01
005.322;000.062;69;000.625;MIDI 01
005.602;000.031;78;000.594;MIDI 01
005.599;000.038;90;000.617;MIDI 01
005.600;000.039;66;000.562;MIDI 01
005.771;000.045;90;000.586;MIDI 01
005.759;000.059;78;000.383;MIDI 01
005.768;000.052;66;000.477;MIDI 01
005.943;000.031;90;000.625;MIDI 01
005.946;000.033;78;000.586;MIDI 01
005.956;000.039;66;000.523;MIDI 01
006.106;000.036;76;000.648;MIDI 01
006.112;000.034;88;000.609;MIDI 01
006.109;000.073;64;000.523;MIDI 01
006.282;000.043;73;000.609;MIDI 01
006.284;000.043;61;000.508;MIDI 01
006.293;000.037;85;000.516;MIDI 01
006.448;000.035;59;000.508;MIDI 01
006.452;000.075;71;000.656;MIDI 01
006.450;000.151;83;000.703;MIDI 01
006.596;000.035;71;000.289;MIDI 01
006.601;000.032;76;000.445;MIDI 01
006.596;000.040;52;000.508;MIDI 01
006.600;000.042;57;000.586;MIDI 01
006.605;000.042;45;000.367;MIDI 01
006.594;000.075;81;000.602;MIDI 01
006.640;000.054;50;000.148;MIDI 01
006.787;000.036;85;000.594;MIDI 01
006.782;000.044;73;000.633;MIDI 01
006.805;000.025;61;000.500;MIDI 01
006.970;000.023;71;000.578;MIDI 01
006.964;000.034;59;000.555;MIDI 01
006.972;000.044;83;000.641;MIDI 01
007.121;000.049;61;000.625;MIDI 01
007.131;000.041;73;000.531;MIDI 01
007.120;000.071;85;000.633;MIDI 01
007.285;000.032;75;000.570;MIDI 01
007.283;000.057;87;000.641;MIDI 01
007.314;000.073;63;000.523;MIDI 01
007.475;000.011;88;000.625;MIDI 01
007.454;000.037;64;000.617;MIDI 01
007.469;000.032;76;000.742;MIDI 01
007.501;000.033;86;000.414;MIDI 01
007.626;000.031;43;000.602;MIDI 01
007.617;000.043;55;000.672;MIDI 01
007.622;000.044;57;000.680;MIDI 01
007.631;000.036;67;000.625;MIDI 01
007.625;000.045;74;000.695;MIDI 01
007.639;000.033;69;000.586;MIDI 01
007.654;000.039;50;000.312;MIDI 01
007.835;000.029;78;000.680;MIDI 01
007.840;000.029;66;000.617;MIDI 01
007.842;000.029;90;000.672;MIDI 01
008.011;000.042;78;000.586;MIDI 01
008.014;000.042;90;000.609;MIDI 01
008.016;000.044;66;000.500;MIDI 01
008.184;000.042;66;000.547;MIDI 01
008.193;000.036;78;000.562;MIDI 01
008.192;000.043;90;000.594;MIDI 01
008.353;000.032;88;000.617;MIDI 01
008.350;000.037;76;000.625;MIDI 01
008.351;000.057;64;000.516;MIDI 01
008.523;000.033;73;000.633;MIDI 01
008.541;000.023;85;000.523;MIDI 01
008.519;000.065;61;000.594;MIDI 01
008.689;000.026;59;000.523;MIDI 01
008.685;000.069;71;000.680;MIDI 01
008.682;000.083;83;000.719;MIDI 01
008.839;000.029;76;000.641;MIDI 01
008.846;000.036;54;000.688;MIDI 01
008.848;000.039;81;000.625;MIDI 01
008.850;000.042;42;000.578;MIDI 01
008.886;000.048;71;000.062;MIDI 01
009.000;000.036;69;000.625;MIDI 01
009.035;000.031;57;000.656;MIDI 01
009.001;000.066;81;000.711;MIDI 01
009.177;000.032;71;000.680;MIDI 01
009.175;000.039;83;000.695;MIDI 01
009.199;000.066;59;000.617;MIDI 01
009.348;000.033;69;000.672;MIDI 01
009.350;000.053;81;000.703;MIDI 01
009.424;000.002;71;000.055;MIDI 01
009.358;000.072;57;000.641;MIDI 01
009.528;000.043;59;000.633;MIDI 01
009.537;000.075;71;000.750;MIDI 01
009.711;000.036;47;000.594;MIDI 01
009.532;000.218;83;000.750;MIDI 01
009.716;000.041;54;000.672;MIDI 01
009.708;000.090;76;000.664;MIDI 01
009.756;000.049;40;000.234;MIDI 01
009.714;000.133;81;000.656;MIDI 01
009.964;000.052;83;000.766;MIDI 01
009.970;000.058;59;000.719;MIDI 01
009.966;000.083;71;000.820;MIDI 01
010.459;000.041;71;000.375;MIDI 01
010.463;000.039;54;000.375;MIDI 01
010.453;000.050;40;000.320;MIDI 01
010.469;000.041;57;000.281;MIDI 01
010.476;000.041;47;000.367;MIDI 01
010.495;000.044;64;000.258;MIDI 01
010.654;000.044;54;000.461;MIDI 01
010.649;000.051;64;000.500;MIDI 01
010.653;000.049;40;000.414;MIDI 01
010.655;000.052;47;000.461;MIDI 01
010.651;000.058;57;000.430;MIDI 01
010.660;000.054;71;000.461;MIDI 01
011.019;000.045;71;000.570;MIDI 01
011.008;000.057;54;000.586;MIDI 01
011.015;000.053;57;000.578;MIDI 01
011.024;000.046;64;000.516;MIDI 01
011.022;000.061;47;000.500;MIDI 01
011.020;000.066;40;000.477;MIDI 01
011.227;000.079;57;000.633;MIDI 01
011.223;000.128;71;000.672;MIDI 01
011.221;000.137;64;000.602;MIDI 01
011.444;000.054;54;000.547;MIDI 01
011.456;000.051;47;000.461;MIDI 01
011.453;000.056;40;000.391;MIDI 01
011.606;000.052;71;000.602;MIDI 01
011.603;000.056;57;000.594;MIDI 01
011.609;000.099;64;000.570;MIDI 01
011.802;000.109;57;000.695;MIDI 01
011.804;000.118;71;000.703;MIDI 01
011.874;000.051;69;000.148;MIDI 01
011.805;000.135;64;000.656;MIDI 01
011.975;000.062;40;000.578;MIDI 01
011.956;000.087;54;000.742;MIDI 01
011.967;000.196;47;000.648;MIDI 01
012.156;000.026;59;000.602;MIDI 01
012.150;000.058;57;000.703;MIDI 01
012.147;000.100;71;000.781;MIDI 01
012.145;000.116;64;000.680;MIDI 01
012.341;000.048;54;000.758;MIDI 01
012.376;000.015;68;000.492;MIDI 01
012.402;000.002;41;000.195;MIDI 01
012.354;000.061;57;000.719;MIDI 01
012.382;000.036;43;000.492;MIDI 01
012.356;000.065;59;000.703;MIDI 01
012.358;000.065;71;000.797;MIDI 01
012.343;000.104;64;000.758;MIDI 01
012.352;000.097;47;000.688;MIDI 01
012.363;000.091;69;000.750;MIDI 01
012.360;000.095;45;000.656;MIDI 01
012.347;000.110;40;000.648;MIDI 01
013.085;000.197;38;000.273;MIDI 01
013.261;000.208;40;000.367;MIDI 01
013.426;000.158;38;000.430;MIDI 01
013.597;000.205;40;000.492;MIDI 01
013.792;000.165;42;000.531;MIDI 01
013.968;000.128;43;000.477;MIDI 01
014.158;000.282;45;000.406;MIDI 01
014.402;000.128;62;000.273;MIDI 01
014.399;000.139;55;000.117;MIDI 01
014.398;000.140;60;000.266;MIDI 01
014.393;000.157;53;000.180;MIDI 01
014.545;000.306;45;000.477;MIDI 01
014.775;000.098;53;000.219;MIDI 01
014.771;000.112;55;000.195;MIDI 01
014.765;000.198;60;000.242;MIDI 01
014.778;000.233;62;000.266;MIDI 01
014.929;000.305;43;000.422;MIDI 01
015.115;000.143;45;000.484;MIDI 01
015.265;000.160;47;000.477;MIDI 01
015.439;000.120;48;000.516;MIDI 01
015.630;000.148;43;000.414;MIDI 01
015.817;000.228;45;000.398;MIDI 01
016.061;000.068;55;000.164;MIDI 01
016.059;000.072;53;000.219;MIDI 01
016.055;000.086;60;000.250;MIDI 01
016.218;000.046;50;000.438;MIDI 01
016.055;000.214;62;000.289;MIDI 01
016.216;000.064;38;000.422;MIDI 01
016.384;000.036;52;000.492;MIDI 01
016.396;000.064;40;000.469;MIDI 01
016.567;000.036;38;000.508;MIDI 01
016.572;000.034;50;000.453;MIDI 01
016.725;000.041;40;000.562;MIDI 01
016.716;000.053;52;000.602;MIDI 01
016.889;000.038;54;000.578;MIDI 01
016.886;000.046;42;000.562;MIDI 01
017.049;000.030;43;000.531;MIDI 01
017.051;000.048;55;000.539;MIDI 01
017.235;000.257;45;000.586;MIDI 01
017.232;000.270;57;000.594;MIDI 01
017.460;000.100;72;000.391;MIDI 01
017.454;000.125;74;000.438;MIDI 01
017.450;000.142;67;000.391;MIDI 01
017.448;000.150;65;000.414;MIDI 01
017.622;000.201;57;000.656;MIDI 01
017.620;000.224;45;000.656;MIDI 01
017.808;000.108;65;000.398;MIDI 01
017.804;000.115;67;000.359;MIDI 01
017.811;000.114;72;000.422;MIDI 01
017.806;000.184;74;000.406;MIDI 01
017.989;000.033;43;000.469;MIDI 01
017.991;000.040;55;000.461;MIDI 01
018.151;000.041;57;000.578;MIDI 01
018.149;000.050;45;000.555;MIDI 01
018.309;000.051;59;000.633;MIDI 01
018.321;000.042;47;000.516;MIDI 01
018.488;000.021;48;000.570;MIDI 01
018.479;000.033;60;000.625;MIDI 01
018.635;000.029;62;000.641;MIDI 01
018.639;000.046;50;000.602;MIDI 01
018.810;000.078;45;000.750;MIDI 01
018.806;000.123;57;000.734;MIDI 01
019.015;000.024;65;000.445;MIDI 01
019.003;000.037;72;000.602;MIDI 01
019.026;000.027;67;000.383;MIDI 01
019.007;000.056;74;000.602;MIDI 01
019.284;000.051;78;000.766;MIDI 01
019.286;000.050;90;000.773;MIDI 01
019.295;000.066;66;000.742;MIDI 01
019.344;000.036;67;000.352;MIDI 01
019.462;000.050;88;000.789;MIDI 01
019.467;000.051;76;000.711;MIDI 01
019.465;000.068;64;000.680;MIDI 01
019.646;000.046;86;000.766;MIDI 01
019.642;000.052;74;000.734;MIDI 01
019.644;000.096;62;000.727;MIDI 01
019.807;000.046;84;000.789;MIDI 01
019.804;000.053;72;000.789;MIDI 01
019.800;000.080;60;000.711;MIDI 01
019.943;000.042;59;000.656;MIDI 01
019.965;000.055;71;000.789;MIDI 01
019.970;000.055;83;000.734;MIDI 01
020.161;000.033;55;000.539;MIDI 01
020.164;000.033;43;000.523;MIDI 01
020.336;000.045;57;000.539;MIDI 01
020.339;000.044;45;000.516;MIDI 01
020.527;000.027;59;000.445;MIDI 01
020.554;000.043;47;000.250;MIDI 01
020.549;000.050;57;000.227;MIDI 01
020.548;000.054;45;000.156;MIDI 01
020.695;000.041;78;000.492;MIDI 01
020.693;000.046;66;000.508;MIDI 01
020.699;000.042;60;000.531;MIDI 01
020.719;000.036;48;000.383;MIDI 01
020.869;000.030;64;000.500;MIDI 01
020.871;000.030;76;000.547;MIDI 01
020.884;000.026;62;000.461;MIDI 01
020.886;000.035;50;000.445;MIDI 01
021.050;000.037;74;000.555;MIDI 01
021.038;000.052;62;000.547;MIDI 01
021.235;000.022;60;000.500;MIDI 01
021.244;000.019;72;000.484;MIDI 01
021.073;000.207;45;000.500;MIDI 01
021.080;000.238;57;000.461;MIDI 01
021.396;000.024;59;000.516;MIDI 01
021.402;000.021;71;000.508;MIDI 01
021.566;000.026;50;000.438;MIDI 01
021.562;000.032;57;000.508;MIDI 01
021.565;000.034;62;000.500;MIDI 01
021.574;000.126;69;000.539;MIDI 01
021.742;000.029;64;000.531;MIDI 01
021.758;000.029;52;000.414;MIDI 01
021.902;000.037;66;000.602;MIDI 01
021.904;000.042;54;000.508;MIDI 01
022.068;000.039;73;000.586;MIDI 01
022.060;000.048;85;000.609;MIDI 01
022.077;000.039;67;000.547;MIDI 01
022.241;000.024;69;000.555;MIDI 01
022.235;000.031;71;000.570;MIDI 01
022.228;000.046;83;000.625;MIDI 01
022.239;000.038;57;000.562;MIDI 01
022.419;000.032;81;000.570;MIDI 01
022.403;000.052;69;000.484;MIDI 01
022.587;000.027;79;000.594;MIDI 01
022.585;000.031;67;000.578;MIDI 01
022.421;000.214;52;000.562;MIDI 01
022.418;000.252;64;000.555;MIDI 01
022.742;000.031;66;000.625;MIDI 01
022.754;000.033;78;000.508;MIDI 01
022.908;000.021;57;000.500;MIDI 01
022.910;000.032;69;000.531;MIDI 01
022.915;000.034;64;000.484;MIDI 01
022.935;000.030;65;000.336;MIDI 01
022.913;000.133;76;000.648;MIDI 01
023.065;000.042;59;000.539;MIDI 01
023.057;000.050;71;000.609;MIDI 01
023.231;000.038;61;000.547;MIDI 01
023.219;000.052;73;000.633;MIDI 01
023.367;000.042;80;000.609;MIDI 01
023.387;000.028;74;000.641;MIDI 01
023.400;000.019;62;000.516;MIDI 01
023.364;000.057;92;000.641;MIDI 01
023.548;000.027;76;000.656;MIDI 01
023.544;000.033;78;000.656;MIDI 01
023.546;000.035;90;000.680;MIDI 01
023.552;000.036;64;000.633;MIDI 01
023.705;000.056;76;000.633;MIDI 01
023.709;000.055;88;000.719;MIDI 01
023.719;000.197;59;000.633;MIDI 01
023.900;000.031;74;000.555;MIDI 01
023.891;000.053;86;000.664;MIDI 01
023.717;000.290;71;000.656;MIDI 01
024.058;000.046;73;000.586;MIDI 01
024.062;000.068;85;000.555;MIDI 01
024.258;000.053;71;000.422;MIDI 01
024.275;000.103;80;000.461;MIDI 01
024.449;000.064;69;000.430;MIDI 01
024.470;000.089;78;000.430;MIDI 01
024.634;000.055;68;000.516;MIDI 01
024.644;000.059;76;000.477;MIDI 01
024.804;000.055;74;000.531;MIDI 01
024.806;000.058;66;000.500;MIDI 01
024.984;000.046;64;000.484;MIDI 01
024.972;000.080;73;000.555;MIDI 01
025.142;000.039;71;000.555;MIDI 01
025.152;000.047;62;000.477;MIDI 01
025.153;000.100;80;000.641;MIDI 01
025.324;000.033;69;000.531;MIDI 01
025.326;000.047;61;000.531;MIDI 01
025.316;000.117;78;000.625;MIDI 01
025.490;000.028;68;000.555;MIDI 01
025.507;000.044;59;000.453;MIDI 01
025.493;000.078;76;000.594;MIDI 01
025.647;000.048;57;000.555;MIDI 01
025.649;000.048;66;000.625;MIDI 01
025.651;000.102;74;000.633;MIDI 01
025.811;000.051;73;000.625;MIDI 01
025.820;000.050;64;000.586;MIDI 01
025.821;000.058;56;000.617;MIDI 01
026.004;000.041;80;000.641;MIDI 01
026.000;000.056;83;000.680;MIDI 01
026.006;000.060;92;000.781;MIDI 01
026.002;000.067;62;000.664;MIDI 01
026.008;000.100;54;000.625;MIDI 01
026.204;000.023;90;000.633;MIDI 01
026.202;000.029;81;000.578;MIDI 01
026.198;000.056;78;000.633;MIDI 01
026.200;000.060;61;000.672;MIDI 01
026.212;000.054;52;000.625;MIDI 01
026.371;000.026;80;000.555;MIDI 01
026.361;000.046;88;000.727;MIDI 01
026.354;000.055;59;000.641;MIDI 01
026.369;000.048;50;000.578;MIDI 01
026.365;000.054;76;000.680;MIDI 01
026.529;000.040;86;000.727;MIDI 01
026.527;000.055;74;000.672;MIDI 01
026.533;000.051;78;000.625;MIDI 01
026.562;000.023;76;000.508;MIDI 01
026.512;000.074;57;000.719;MIDI 01
026.516;000.075;49;000.672;MIDI 01
026.691;000.033;73;000.664;MIDI 01
026.701;000.023;82;000.523;MIDI 01
026.678;000.058;56;000.766;MIDI 01
026.706;000.032;47;000.523;MIDI 01
026.684;000.113;75;000.695;MIDI 01
026.772;000.053;84;000.023;MIDI 01
026.860;000.023;46;000.648;MIDI 01
026.869;000.017;71;000.828;MIDI 01
026.873;000.016;76;000.695;MIDI 01
026.867;000.024;49;000.633;MIDI 01
026.863;000.030;57;000.742;MIDI 01
026.879;000.020;53;000.523;MIDI 01
026.881;000.022;43;000.555;MIDI 01
026.877;000.035;52;000.508;MIDI 01
026.877;000.038;55;000.531;MIDI 01
026.865;000.052;83;000.695;MIDI 01
026.883;000.039;47;000.438;MIDI 01
026.875;000.049;80;000.750;MIDI 01
026.871;000.062;82;000.688;MIDI 01
026.930;000.048;72;000.102;MIDI 01
026.968;000.037;71;000.297;MIDI 01
026.933;000.081;84;000.273;MIDI 01
027.220;000.026;50;000.680;MIDI 01
027.228;000.020;98;000.695;MIDI 01
027.214;000.036;40;000.641;MIDI 01
027.259;000.002;99;000.242;MIDI 01
027.240;000.022;101;000.492;MIDI 01
027.232;000.031;102;000.586;MIDI 01
027.235;000.030;100;000.609;MIDI 01
027.233;000.033;38;000.500;MIDI 01
027.223;000.052;90;000.758;MIDI 01
027.218;000.059;52;000.719;MIDI 01
027.415;000.021;71;000.797;MIDI 01
027.424;000.015;59;000.648;MIDI 01
027.416;000.024;76;000.711;MIDI 01
027.409;000.034;57;000.617;MIDI 01
027.420;000.028;51;000.656;MIDI 01
027.426;000.026;54;000.539;MIDI 01
027.407;000.047;49;000.656;MIDI 01
027.418;000.042;83;000.750;MIDI 01
027.433;000.027;81;000.547;MIDI 01
027.422;000.043;80;000.688;MIDI 01
027.429;000.048;45;000.539;MIDI 01
027.444;000.046;47;000.406;MIDI 01
027.469;000.052;48;000.281;MIDI 01
027.527;000.028;71;000.219;MIDI 01
027.656;000.024;99;000.430;MIDI 01
027.733;000.022;100;000.711;MIDI 01
027.743;000.014;102;000.664;MIDI 01
027.739;000.021;98;000.695;MIDI 01
027.738;000.025;38;000.656;MIDI 01
027.741;000.025;50;000.688;MIDI 01
027.735;000.041;40;000.656;MIDI 01
027.729;000.050;90;000.805;MIDI 01
027.745;000.052;52;000.727;MIDI 01
027.940;000.002;51;000.391;MIDI 01
027.921;000.021;75;000.609;MIDI 01
027.915;000.029;57;000.812;MIDI 01
027.930;000.020;69;000.688;MIDI 01
027.932;000.019;74;000.781;MIDI 01
027.922;000.033;54;000.648;MIDI 01
027.936;000.023;45;000.656;MIDI 01
027.924;000.036;81;000.742;MIDI 01
027.950;000.014;71;000.477;MIDI 01
027.938;000.027;48;000.625;MIDI 01
027.926;000.041;78;000.695;MIDI 01
027.928;000.055;80;000.711;MIDI 01
027.955;000.047;50;000.297;MIDI 01
028.032;000.065;54;000.258;MIDI 01
028.279;000.042;74;000.430;MIDI 01
028.325;000.051;74;000.188;MIDI 01
028.283;000.206;86;000.562;MIDI 01
028.299;000.199;72;000.430;MIDI 01
028.380;000.135;74;000.031;MIDI 01
028.281;000.240;84;000.570;MIDI 01
028.461;000.193;31;000.523;MIDI 01
028.611;000.056;86;000.602;MIDI 01
028.620;000.050;74;000.539;MIDI 01
028.624;000.047;72;000.516;MIDI 01
028.457;000.223;45;000.500;MIDI 01
028.614;000.078;84;000.500;MIDI 01
028.782;000.034;74;000.672;MIDI 01
028.784;000.034;72;000.586;MIDI 01
028.793;000.042;84;000.594;MIDI 01
028.780;000.058;86;000.672;MIDI 01
028.951;000.023;89;000.625;MIDI 01
028.953;000.051;87;000.648;MIDI 01
029.095;000.042;43;000.539;MIDI 01
029.117;000.022;74;000.602;MIDI 01
029.109;000.043;72;000.594;MIDI 01
029.115;000.042;86;000.602;MIDI 01
029.118;000.041;84;000.594;MIDI 01
029.101;000.066;57;000.594;MIDI 01
029.270;000.043;74;000.508;MIDI 01
029.266;000.051;72;000.578;MIDI 01
029.272;000.047;86;000.617;MIDI 01
029.268;000.065;84;000.562;MIDI 01
029.420;000.033;69;000.625;MIDI 01
029.426;000.042;55;000.586;MIDI 01
029.452;000.018;86;000.617;MIDI 01
029.459;000.016;74;000.539;MIDI 01
029.450;000.027;84;000.664;MIDI 01
029.448;000.035;72;000.688;MIDI 01
029.605;000.012;75;000.750;MIDI 01
029.626;000.002;82;000.438;MIDI 01
029.615;000.023;71;000.703;MIDI 01
029.623;000.018;59;000.609;MIDI 01
029.613;000.032;57;000.547;MIDI 01
029.624;000.026;76;000.586;MIDI 01
029.617;000.037;54;000.617;MIDI 01
029.632;000.036;50;000.445;MIDI 01
029.621;000.050;83;000.734;MIDI 01
029.617;000.058;80;000.719;MIDI 01
029.645;000.032;81;000.555;MIDI 01
029.623;000.056;48;000.500;MIDI 01
029.637;000.046;45;000.414;MIDI 01
029.683;000.055;47;000.078;MIDI 01
029.720;000.034;71;000.250;MIDI 01
029.920;000.026;102;000.719;MIDI 01
029.919;000.031;100;000.734;MIDI 01
029.922;000.034;98;000.664;MIDI 01
029.926;000.042;40;000.641;MIDI 01
029.966;000.002;99;000.328;MIDI 01
029.928;000.041;50;000.656;MIDI 01
029.955;000.016;52;000.648;MIDI 01
029.917;000.055;90;000.758;MIDI 01
029.939;000.034;38;000.500;MIDI 01
030.105;000.019;57;000.703;MIDI 01
030.114;000.020;75;000.719;MIDI 01
030.115;000.031;45;000.531;MIDI 01
030.111;000.039;49;000.625;MIDI 01
030.119;000.033;53;000.523;MIDI 01
030.121;000.035;47;000.516;MIDI 01
030.131;000.032;69;000.594;MIDI 01
030.134;000.038;71;000.477;MIDI 01
030.124;000.071;81;000.672;MIDI 01
030.117;000.082;83;000.609;MIDI 01
030.169;000.034;78;000.273;MIDI 01
030.120;000.091;80;000.672;MIDI 01
029.976;000.301;48;000.297;MIDI 01
030.441;000.114;74;000.594;MIDI 01
030.440;000.119;72;000.539;MIDI 01
030.438;000.149;86;000.656;MIDI 01
030.435;000.166;84;000.516;MIDI 01
030.640;000.039;48;000.539;MIDI 01
030.626;000.125;34;000.641;MIDI 01
030.644;000.115;47;000.422;MIDI 01
030.743;000.019;90;000.461;MIDI 01
030.741;000.052;87;000.609;MIDI 01
030.780;000.051;89;000.227;MIDI 01
030.900;000.015;74;000.586;MIDI 01
030.902;000.030;86;000.602;MIDI 01
030.910;000.029;72;000.492;MIDI 01
030.913;000.029;84;000.484;MIDI 01
030.936;000.046;85;000.266;MIDI 01
031.051;000.030;74;000.594;MIDI 01
031.049;000.033;72;000.570;MIDI 01
031.053;000.039;86;000.617;MIDI 01
031.049;000.047;84;000.570;MIDI 01
031.202;000.033;46;000.578;MIDI 01
031.211;000.031;89;000.625;MIDI 01
031.200;000.061;60;000.633;MIDI 01
031.214;000.061;87;000.664;MIDI 01
031.383;000.021;74;000.586;MIDI 01
031.396;000.014;86;000.523;MIDI 01
031.390;000.026;84;000.602;MIDI 01
031.385;000.032;72;000.562;MIDI 01
031.558;000.033;86;000.500;MIDI 01
031.541;000.053;58;000.547;MIDI 01
031.560;000.035;74;000.438;MIDI 01
031.572;000.029;83;000.445;MIDI 01
031.557;000.052;84;000.484;MIDI 01
031.560;000.051;72;000.492;MIDI 01
031.707;000.028;71;000.461;MIDI 01
031.705;000.033;58;000.500;MIDI 01
031.698;000.047;72;000.633;MIDI 01
031.859;000.035;72;000.641;MIDI 01
031.857;000.047;58;000.562;MIDI 01
031.877;000.039;67;000.586;MIDI 01
031.886;000.033;69;000.555;MIDI 01
032.045;000.035;67;000.453;MIDI 01
032.047;000.041;69;000.406;MIDI 01
032.209;000.016;72;000.492;MIDI 01
032.208;000.035;58;000.508;MIDI 01
032.214;000.040;67;000.352;MIDI 01
032.218;000.038;69;000.516;MIDI 01
032.386;000.034;72;000.383;MIDI 01
032.394;000.031;71;000.438;MIDI 01
032.371;000.059;58;000.492;MIDI 01
032.530;000.031;72;000.617;MIDI 01
032.541;000.028;71;000.547;MIDI 01
032.544;000.027;67;000.547;MIDI 01
032.539;000.048;58;000.625;MIDI 01
032.546;000.043;69;000.531;MIDI 01
032.689;000.034;67;000.594;MIDI 01
032.718;000.047;77;000.641;MIDI 01
032.701;000.083;75;000.695;MIDI 01
032.751;000.051;69;000.172;MIDI 01
032.870;000.051;67;000.445;MIDI 01
032.910;000.017;72;000.461;MIDI 01
032.899;000.030;69;000.547;MIDI 01
032.893;000.041;58;000.555;MIDI 01
032.933;000.051;71;000.172;MIDI 01
033.066;000.024;67;000.461;MIDI 01
033.180;000.034;67;000.633;MIDI 01
033.078;000.139;69;000.133;MIDI 01
033.221;000.010;72;000.562;MIDI 01
033.211;000.031;58;000.609;MIDI 01
033.230;000.033;71;000.391;MIDI 01
033.205;000.060;75;000.680;MIDI 01
033.193;000.095;73;000.672;MIDI 01
033.383;000.031;69;000.516;MIDI 01
033.385;000.032;67;000.422;MIDI 01
033.522;000.035;58;000.547;MIDI 01
033.545;000.018;71;000.453;MIDI 01
033.543;000.028;69;000.445;MIDI 01
033.525;000.051;67;000.641;MIDI 01
033.561;000.042;72;000.227;MIDI 01
033.679;000.033;67;000.711;MIDI 01
033.688;000.035;69;000.547;MIDI 01
033.699;000.076;72;000.688;MIDI 01
033.697;000.087;74;000.680;MIDI 01
033.868;000.029;68;000.578;MIDI 01
033.883;000.035;67;000.516;MIDI 01
033.892;000.029;70;000.484;MIDI 01
033.880;000.043;58;000.445;MIDI 01
033.869;000.059;69;000.422;MIDI 01
034.064;000.040;67;000.414;MIDI 01
034.089;000.028;69;000.398;MIDI 01
034.237;000.054;67;000.383;MIDI 01
034.225;000.074;69;000.477;MIDI 01
034.434;000.026;69;000.484;MIDI 01
034.439;000.036;67;000.258;MIDI 01
034.432;000.049;57;000.383;MIDI 01
034.436;000.049;55;000.266;MIDI 01
034.621;000.043;69;000.438;MIDI 01
034.616;000.050;55;000.398;MIDI 01
034.614;000.054;67;000.406;MIDI 01
034.623;000.048;57;000.391;MIDI 01
034.804;000.034;69;000.445;MIDI 01
034.801;000.040;67;000.414;MIDI 01
034.806;000.038;55;000.383;MIDI 01
034.808;000.045;57;000.391;MIDI 01
034.968;000.041;68;000.461;MIDI 01
034.977;000.038;70;000.453;MIDI 01
034.979;000.043;69;000.469;MIDI 01
034.981;000.044;57;000.422;MIDI 01
034.966;000.061;55;000.445;MIDI 01
034.970;000.058;67;000.445;MIDI 01
035.156;000.039;69;000.469;MIDI 01
035.159;000.039;55;000.430;MIDI 01
035.156;000.045;67;000.461;MIDI 01
035.161;000.045;57;000.398;MIDI 01
035.307;000.034;68;000.508;MIDI 01
035.305;000.044;70;000.539;MIDI 01
035.316;000.057;67;000.523;MIDI 01
035.320;000.055;55;000.469;MIDI 01
035.318;000.059;69;000.516;MIDI 01
035.323;000.056;57;000.461;MIDI 01
035.484;000.050;55;000.492;MIDI 01
035.500;000.036;69;000.523;MIDI 01
035.504;000.034;67;000.383;MIDI 01
035.489;000.051;57;000.453;MIDI 01
035.651;000.029;68;000.547;MIDI 01
035.648;000.035;70;000.586;MIDI 01
035.660;000.048;69;000.555;MIDI 01
035.658;000.052;67;000.484;MIDI 01
035.655;000.060;55;000.500;MIDI 01
035.666;000.052;57;000.461;MIDI 01
035.842;000.042;67;000.500;MIDI 01
035.844;000.042;69;000.547;MIDI 01
035.831;000.056;55;000.531;MIDI 01
035.833;000.058;57;000.484;MIDI 01
036.006;000.040;70;000.594;MIDI 01
036.017;000.031;68;000.523;MIDI 01
036.014;000.045;67;000.523;MIDI 01
036.008;000.051;69;000.570;MIDI 01
036.000;000.061;55;000.492;MIDI 01
036.016;000.050;57;000.500;MIDI 01
036.183;000.046;55;000.461;MIDI 01
036.179;000.054;67;000.391;MIDI 01
036.185;000.050;69;000.555;MIDI 01
036.180;000.060;57;000.438;MIDI 01
036.332;000.041;68;000.477;MIDI 01
036.334;000.044;70;000.508;MIDI 01
036.350;000.050;69;000.555;MIDI 01
036.355;000.047;57;000.461;MIDI 01
036.343;000.060;55;000.438;MIDI 01
036.357;000.049;67;000.414;MIDI 01
036.522;000.050;55;000.430;MIDI 01
036.527;000.048;67;000.406;MIDI 01
036.520;000.057;69;000.555;MIDI 01
036.525;000.054;57;000.406;MIDI 01
036.697;000.031;68;000.438;MIDI 01
036.688;000.051;70;000.500;MIDI 01
036.700;000.049;67;000.391;MIDI 01
036.690;000.064;55;000.445;MIDI 01
036.702;000.053;69;000.539;MIDI 01
036.699;000.058;57;000.422;MIDI 01
036.872;000.042;55;000.414;MIDI 01
036.876;000.044;67;000.445;MIDI 01
036.874;000.048;69;000.523;MIDI 01
036.879;000.046;57;000.375;MIDI 01
037.018;000.036;70;000.500;MIDI 01
037.038;000.021;68;000.367;MIDI 01
037.042;000.056;55;000.422;MIDI 01
037.057;000.045;67;000.414;MIDI 01
037.044;000.060;69;000.523;MIDI 01
037.047;000.059;57;000.430;MIDI 01
037.229;000.042;55;000.367;MIDI 01
037.241;000.032;67;000.391;MIDI 01
037.231;000.046;57;000.398;MIDI 01
037.221;000.058;69;000.539;MIDI 01
037.404;000.050;83;000.641;MIDI 01
037.408;000.048;55;000.414;MIDI 01
037.407;000.051;70;000.594;MIDI 01
037.424;000.041;67;000.391;MIDI 01
037.410;000.057;69;000.531;MIDI 01
037.420;000.050;57;000.383;MIDI 01
037.558;000.058;83;000.648;MIDI 01
037.576;000.052;55;000.500;MIDI 01
037.594;000.036;67;000.430;MIDI 01
037.582;000.050;57;000.453;MIDI 01
037.579;000.054;69;000.586;MIDI 01
037.732;000.026;83;000.602;MIDI 01
037.744;000.050;55;000.500;MIDI 01
037.759;000.040;67;000.406;MIDI 01
037.755;000.046;69;000.578;MIDI 01
037.752;000.051;57;000.484;MIDI 01
037.891;000.032;81;000.641;MIDI 01
037.911;000.042;67;000.414;MIDI 01
037.901;000.054;55;000.500;MIDI 01
037.909;000.048;69;000.555;MIDI 01
037.903;000.060;57;000.492;MIDI 01
038.049;000.054;78;000.633;MIDI 01
038.057;000.050;69;000.531;MIDI 01
038.059;000.049;55;000.438;MIDI 01
038.064;000.047;67;000.391;MIDI 01
038.061;000.053;57;000.453;MIDI 01
038.220;000.055;55;000.469;MIDI 01
038.231;000.046;67;000.438;MIDI 01
038.227;000.052;69;000.516;MIDI 01
038.229;000.056;57;000.438;MIDI 01
038.407;000.036;68;000.367;MIDI 01
038.409;000.048;55;000.398;MIDI 01
038.413;000.047;70;000.383;MIDI 01
038.407;000.054;69;000.508;MIDI 01
038.411;000.052;67;000.359;MIDI 01
038.409;000.057;57;000.391;MIDI 01
038.591;000.044;67;000.375;MIDI 01
038.582;000.054;69;000.484;MIDI 01
038.593;000.046;55;000.352;MIDI 01
038.598;000.043;57;000.336;MIDI 01
038.775;000.050;67;000.375;MIDI 01
038.769;000.058;69;000.438;MIDI 01
038.777;000.052;55;000.344;MIDI 01
038.753;000.077;68;000.383;MIDI 01
038.779;000.053;57;000.367;MIDI 01
038.765;000.070;70;000.383;MIDI 01
038.950;000.041;69;000.422;MIDI 01
038.960;000.032;67;000.320;MIDI 01
038.979;000.043;57;000.281;MIDI 01
039.108;000.046;68;000.344;MIDI 01
039.110;000.046;70;000.367;MIDI 01
039.119;000.045;69;000.445;MIDI 01
039.124;000.042;67;000.391;MIDI 01
039.128;000.051;57;000.266;MIDI 01
039.117;000.065;55;000.094;MIDI 01
039.277;000.058;69;000.445;MIDI 01
039.279;000.058;67;000.414;MIDI 01
039.299;000.054;55;000.156;MIDI 01
039.317;000.039;57;000.320;MIDI 01
039.441;000.057;70;000.383;MIDI 01
039.460;000.040;69;000.406;MIDI 01
039.458;000.047;67;000.406;MIDI 01
039.439;000.069;68;000.336;MIDI 01
039.456;000.059;55;000.219;MIDI 01
039.481;000.036;57;000.359;MIDI 01
039.630;000.049;69;000.430;MIDI 01
039.628;000.057;67;000.422;MIDI 01
039.650;000.047;57;000.367;MIDI 01
039.634;000.065;55;000.234;MIDI 01
039.782;000.060;70;000.391;MIDI 01
039.797;000.048;67;000.367;MIDI 01
039.789;000.058;68;000.328;MIDI 01
039.804;000.045;69;000.406;MIDI 01
039.799;000.051;55;000.227;MIDI 01
039.828;000.034;57;000.312;MIDI 01
039.978;000.032;69;000.430;MIDI 01
039.967;000.049;67;000.438;MIDI 01
039.982;000.049;55;000.227;MIDI 01
040.001;000.036;57;000.359;MIDI 01
040.134;000.043;68;000.398;MIDI 01
040.136;000.044;70;000.398;MIDI 01
040.147;000.038;69;000.391;MIDI 01
040.144;000.044;67;000.438;MIDI 01
040.143;000.056;55;000.305;MIDI 01
040.166;000.040;57;000.367;MIDI 01
040.314;000.038;69;000.422;MIDI 01
040.301;000.054;67;000.469;MIDI 01
040.323;000.036;55;000.305;MIDI 01
040.331;000.031;57;000.367;MIDI 01
038.225;002.278;76;000.625;MIDI 01
040.480;000.039;70;000.422;MIDI 01
040.493;000.039;69;000.430;MIDI 01
040.497;000.042;55;000.375;MIDI 01
040.482;000.058;67;000.461;MIDI 01
040.506;000.039;68;000.219;MIDI 01
040.504;000.043;57;000.391;MIDI 01
040.666;000.042;69;000.422;MIDI 01
040.651;000.061;67;000.445;MIDI 01
040.664;000.051;55;000.359;MIDI 01
040.673;000.050;57;000.383;MIDI 01
040.837;000.036;68;000.344;MIDI 01
040.847;000.030;69;000.414;MIDI 01
040.835;000.045;55;000.398;MIDI 01
040.830;000.053;67;000.461;MIDI 01
040.853;000.040;57;000.422;MIDI 01
040.811;000.083;76;000.555;MIDI 01
041.008;000.034;69;000.406;MIDI 01
041.006;000.042;55;000.391;MIDI 01
040.993;000.057;67;000.492;MIDI 01
041.009;000.052;57;000.406;MIDI 01
040.969;000.105;78;000.625;MIDI 01
041.171;000.002;70;000.242;MIDI 01
041.141;000.049;80;000.633;MIDI 01
041.161;000.037;69;000.453;MIDI 01
041.159;000.043;55;000.406;MIDI 01
041.154;000.052;67;000.461;MIDI 01
041.170;000.049;57;000.406;MIDI 01
041.320;000.045;69;000.492;MIDI 01
041.317;000.050;55;000.445;MIDI 01
041.310;000.060;67;000.508;MIDI 01
041.330;000.044;57;000.453;MIDI 01
041.292;000.225;81;000.656;MIDI 01
041.480;000.046;68;000.445;MIDI 01
041.491;000.041;55;000.414;MIDI 01
041.476;000.057;70;000.367;MIDI 01
041.486;000.052;69;000.422;MIDI 01
041.489;000.052;67;000.484;MIDI 01
041.493;000.055;57;000.430;MIDI 01
041.664;000.054;69;000.500;MIDI 01
041.657;000.062;55;000.477;MIDI 01
041.666;000.055;57;000.484;MIDI 01
041.659;000.062;67;000.523;MIDI 01
041.821;000.058;68;000.484;MIDI 01
041.840;000.043;55;000.398;MIDI 01
041.843;000.043;69;000.438;MIDI 01
041.837;000.050;67;000.430;MIDI 01
041.846;000.048;57;000.375;MIDI 01
041.809;000.096;70;000.391;MIDI 01
042.004;000.055;69;000.461;MIDI 01
042.003;000.058;67;000.422;MIDI 01
042.024;000.050;55;000.258;MIDI 01
042.026;000.050;57;000.352;MIDI 01
042.163;000.065;69;000.469;MIDI 01
042.165;000.065;67;000.406;MIDI 01
042.170;000.062;55;000.289;MIDI 01
042.183;000.055;57;000.375;MIDI 01
042.172;000.069;68;000.414;MIDI 01
042.174;000.069;70;000.273;MIDI 01
042.351;000.036;69;000.422;MIDI 01
042.347;000.046;67;000.367;MIDI 01
042.345;000.050;55;000.258;MIDI 01
042.362;000.040;57;000.367;MIDI 01
042.519;000.040;69;000.414;MIDI 01
042.501;000.059;68;000.383;MIDI 01
042.517;000.047;67;000.383;MIDI 01
042.503;000.062;70;000.297;MIDI 01
042.510;000.057;55;000.328;MIDI 01
042.529;000.048;57;000.375;MIDI 01
042.692;000.046;69;000.414;MIDI 01
042.686;000.056;55;000.250;MIDI 01
042.684;000.058;67;000.391;MIDI 01
042.703;000.044;57;000.352;MIDI 01
042.845;000.040;69;000.383;MIDI 01
042.834;000.054;68;000.367;MIDI 01
042.842;000.049;67;000.375;MIDI 01
042.836;000.056;70;000.250;MIDI 01
042.841;000.054;55;000.273;MIDI 01
042.859;000.043;57;000.305;MIDI 01
043.022;000.035;69;000.359;MIDI 01
043.020;000.048;67;000.336;MIDI 01
043.017;000.057;55;000.188;MIDI 01
043.033;000.054;57;000.266;MIDI 01
043.165;000.054;69;000.391;MIDI 01
043.161;000.064;67;000.359;MIDI 01
043.159;000.076;55;000.297;MIDI 01
043.173;000.065;57;000.297;MIDI 01
043.184;000.065;68;000.344;MIDI 01
043.196;000.055;70;000.203;MIDI 01
043.343;000.036;69;000.375;MIDI 01
043.341;000.045;67;000.352;MIDI 01
043.333;000.054;55;000.195;MIDI 01
043.352;000.048;57;000.281;MIDI 01
043.519;000.036;69;000.383;MIDI 01
043.515;000.047;67;000.359;MIDI 01
043.517;000.054;55;000.195;MIDI 01
043.532;000.046;57;000.289;MIDI 01
043.534;000.048;68;000.359;MIDI 01
043.534;000.053;70;000.219;MIDI 01
043.686;000.045;69;000.398;MIDI 01
043.681;000.055;67;000.383;MIDI 01
043.695;000.052;55;000.156;MIDI 01
043.702;000.048;57;000.320;MIDI 01
041.624;002.274;81;000.664;MIDI 01
043.862;000.039;69;000.438;MIDI 01
043.855;000.053;67;000.438;MIDI 01
043.865;000.047;55;000.297;MIDI 01
043.888;000.028;68;000.312;MIDI 01
043.885;000.033;57;000.398;MIDI 01
043.898;000.055;70;000.141;MIDI 01
044.042;000.047;57;000.430;MIDI 01
044.035;000.054;55;000.383;MIDI 01
044.032;000.059;69;000.469;MIDI 01
044.031;000.065;67;000.477;MIDI 01
044.219;000.038;68;000.508;MIDI 01
044.216;000.041;83;000.578;MIDI 01
044.214;000.049;55;000.422;MIDI 01
044.242;000.024;70;000.406;MIDI 01
044.236;000.031;69;000.367;MIDI 01
044.221;000.053;57;000.383;MIDI 01
044.227;000.049;67;000.391;MIDI 01
044.388;000.043;85;000.609;MIDI 01
044.396;000.051;55;000.398;MIDI 01
044.395;000.055;69;000.469;MIDI 01
044.391;000.062;67;000.500;MIDI 01
044.395;000.060;57;000.438;MIDI 01
044.564;000.024;83;000.516;MIDI 01
044.587;000.025;81;000.398;MIDI 01
044.566;000.049;55;000.422;MIDI 01
044.561;000.053;69;000.484;MIDI 01
044.571;000.046;57;000.430;MIDI 01
044.583;000.033;68;000.398;MIDI 01
044.559;000.059;67;000.477;MIDI 01
044.727;000.029;81;000.477;MIDI 01
044.733;000.025;79;000.531;MIDI 01
044.735;000.038;55;000.430;MIDI 01
044.731;000.046;69;000.461;MIDI 01
044.729;000.055;67;000.398;MIDI 01
044.737;000.051;57;000.453;MIDI 01
044.879;000.042;78;000.594;MIDI 01
044.899;000.041;55;000.438;MIDI 01
044.903;000.046;69;000.484;MIDI 01
044.908;000.044;57;000.422;MIDI 01
044.906;000.048;67;000.398;MIDI 01
044.922;000.047;68;000.250;MIDI 01
045.065;000.041;77;000.500;MIDI 01
045.060;000.052;67;000.492;MIDI 01
045.056;000.059;55;000.453;MIDI 01
045.067;000.049;57;000.422;MIDI 01
045.062;000.055;69;000.477;MIDI 01
045.233;000.054;55;000.406;MIDI 01
045.242;000.050;69;000.461;MIDI 01
045.249;000.045;67;000.430;MIDI 01
045.244;000.053;57;000.430;MIDI 01
045.268;000.041;68;000.367;MIDI 01
045.265;000.068;70;000.375;MIDI 01
045.411;000.043;69;000.406;MIDI 01
045.409;000.047;67;000.391;MIDI 01
045.414;000.046;55;000.352;MIDI 01
045.426;000.044;57;000.359;MIDI 01
045.584;000.033;69;000.383;MIDI 01
045.586;000.034;67;000.352;MIDI 01
045.582;000.046;68;000.344;MIDI 01
045.580;000.049;55;000.289;MIDI 01
045.590;000.043;70;000.320;MIDI 01
045.602;000.032;57;000.320;MIDI 01
045.734;000.053;69;000.453;MIDI 01
045.732;000.057;67;000.438;MIDI 01
045.763;000.047;57;000.352;MIDI 01
045.753;000.058;55;000.250;MIDI 01
045.913;000.051;69;000.398;MIDI 01
045.915;000.051;67;000.367;MIDI 01
045.910;000.068;68;000.344;MIDI 01
045.931;000.050;70;000.344;MIDI 01
045.938;000.045;57;000.320;MIDI 01
045.929;000.060;55;000.164;MIDI 01
046.098;000.031;69;000.375;MIDI 01
046.096;000.036;67;000.344;MIDI 01
046.117;000.039;57;000.289;MIDI 01
046.111;000.114;55;000.070;MIDI 01
046.269;000.032;69;000.398;MIDI 01
046.266;000.039;67;000.375;MIDI 01
046.255;000.057;68;000.336;MIDI 01
046.257;000.064;55;000.180;MIDI 01
046.277;000.046;57;000.297;MIDI 01
046.267;000.059;70;000.305;MIDI 01
046.425;000.049;69;000.422;MIDI 01
046.420;000.057;67;000.406;MIDI 01
046.427;000.060;55;000.266;MIDI 01
046.453;000.041;57;000.336;MIDI 01
046.608;000.029;69;000.398;MIDI 01
046.602;000.039;67;000.406;MIDI 01
046.604;000.045;68;000.320;MIDI 01
046.606;000.045;70;000.312;MIDI 01
046.610;000.050;55;000.211;MIDI 01
046.631;000.032;57;000.352;MIDI 01
046.778;000.034;69;000.414;MIDI 01
046.773;000.043;67;000.406;MIDI 01
046.773;000.059;55;000.219;MIDI 01
046.794;000.041;57;000.352;MIDI 01
046.921;000.058;68;000.375;MIDI 01
046.933;000.048;70;000.336;MIDI 01
046.945;000.042;67;000.383;MIDI 01
046.954;000.035;69;000.352;MIDI 01
046.949;000.055;55;000.203;MIDI 01
046.976;000.033;57;000.312;MIDI 01
047.107;000.041;69;000.430;MIDI 01
047.101;000.049;67;000.438;MIDI 01
047.104;000.064;55;000.258;MIDI 01
047.134;000.035;57;000.352;MIDI 01
047.269;000.047;70;000.398;MIDI 01
047.283;000.042;68;000.312;MIDI 01
047.285;000.042;69;000.422;MIDI 01
047.279;000.050;67;000.406;MIDI 01
047.289;000.048;55;000.297;MIDI 01
047.299;000.041;57;000.367;MIDI 01
045.058;002.283;76;000.484;MIDI 01
047.471;000.039;69;000.406;MIDI 01
047.466;000.051;55;000.352;MIDI 01
047.469;000.051;57;000.336;MIDI 01
047.458;000.064;67;000.375;MIDI 01
047.651;000.054;67;000.414;MIDI 01
047.655;000.052;55;000.312;MIDI 01
047.671;000.040;69;000.344;MIDI 01
047.656;000.056;68;000.156;MIDI 01
047.674;000.042;57;000.336;MIDI 01
047.635;000.081;74;000.469;MIDI 01
047.653;000.065;70;000.133;MIDI 01
047.831;000.050;69;000.477;MIDI 01
047.827;000.056;55;000.438;MIDI 01
047.812;000.072;76;000.594;MIDI 01
047.825;000.061;67;000.461;MIDI 01
047.833;000.055;57;000.430;MIDI 01
048.004;000.023;68;000.391;MIDI 01
048.006;000.043;55;000.414;MIDI 01
047.973;000.085;74;000.602;MIDI 01
048.014;000.047;57;000.414;MIDI 01
048.011;000.051;69;000.430;MIDI 01
048.009;000.055;67;000.430;MIDI 01
048.166;000.050;55;000.461;MIDI 01
048.173;000.049;67;000.461;MIDI 01
048.171;000.053;69;000.469;MIDI 01
048.175;000.051;57;000.438;MIDI 01
048.149;000.084;76;000.617;MIDI 01
048.304;000.057;68;000.531;MIDI 01
048.318;000.049;70;000.477;MIDI 01
048.347;000.039;55;000.352;MIDI 01
048.349;000.040;69;000.461;MIDI 01
048.361;000.029;67;000.328;MIDI 01
048.360;000.035;57;000.383;MIDI 01
048.505;000.065;55;000.453;MIDI 01
048.511;000.060;67;000.461;MIDI 01
048.507;000.067;69;000.516;MIDI 01
048.514;000.064;57;000.438;MIDI 01
048.661;000.055;68;000.445;MIDI 01
048.669;000.052;70;000.398;MIDI 01
048.715;000.032;67;000.359;MIDI 01
048.709;000.040;69;000.406;MIDI 01
048.712;000.039;55;000.305;MIDI 01
048.720;000.041;57;000.367;MIDI 01
048.868;000.052;67;000.391;MIDI 01
048.862;000.059;69;000.453;MIDI 01
048.879;000.053;55;000.273;MIDI 01
048.897;000.040;57;000.352;MIDI 01
049.040;000.046;67;000.414;MIDI 01
049.038;000.050;69;000.445;MIDI 01
049.051;000.047;68;000.258;MIDI 01
049.049;000.051;55;000.250;MIDI 01
049.065;000.036;57;000.391;MIDI 01
049.042;000.064;70;000.312;MIDI 01
049.216;000.047;67;000.375;MIDI 01
049.219;000.045;69;000.375;MIDI 01
049.231;000.049;57;000.297;MIDI 01
049.221;000.114;55;000.125;MIDI 01
049.380;000.039;69;000.367;MIDI 01
049.382;000.041;67;000.344;MIDI 01
049.383;000.049;57;000.297;MIDI 01
049.362;000.072;55;000.234;MIDI 01
049.380;000.057;68;000.344;MIDI 01
049.386;000.056;70;000.367;MIDI 01
049.567;000.036;69;000.352;MIDI 01
049.569;000.036;67;000.297;MIDI 01
049.580;000.048;57;000.211;MIDI 01
049.565;000.081;55;000.047;MIDI 01
049.732;000.046;69;000.398;MIDI 01
049.730;000.050;67;000.359;MIDI 01
049.723;000.068;68;000.320;MIDI 01
049.735;000.060;57;000.281;MIDI 01
049.734;000.064;70;000.289;MIDI 01
049.716;000.085;55;000.258;MIDI 01
049.920;000.029;69;000.391;MIDI 01
049.918;000.034;67;000.344;MIDI 01
049.916;000.052;55;000.148;MIDI 01
049.929;000.043;57;000.305;MIDI 01
050.098;000.036;69;000.383;MIDI 01
050.084;000.052;70;000.344;MIDI 01
050.096;000.043;67;000.344;MIDI 01
050.082;000.058;68;000.328;MIDI 01
050.100;000.049;55;000.195;MIDI 01
050.106;000.047;57;000.320;MIDI 01
050.269;000.035;69;000.398;MIDI 01
050.267;000.041;67;000.359;MIDI 01
050.271;000.053;55;000.180;MIDI 01
050.291;000.035;57;000.320;MIDI 01
050.446;000.050;69;000.391;MIDI 01
050.445;000.055;67;000.367;MIDI 01
050.441;000.061;68;000.289;MIDI 01
050.448;000.060;55;000.266;MIDI 01
050.462;000.048;57;000.367;MIDI 01
050.441;000.072;70;000.281;MIDI 01
050.640;000.054;69;000.406;MIDI 01
050.634;000.062;67;000.375;MIDI 01
050.642;000.057;55;000.297;MIDI 01
050.650;000.051;57;000.367;MIDI 01
050.848;000.050;68;000.289;MIDI 01
050.860;000.039;70;000.305;MIDI 01
050.839;000.062;69;000.398;MIDI 01
050.855;000.053;57;000.328;MIDI 01
050.833;000.077;67;000.359;MIDI 01
050.846;000.067;55;000.305;MIDI 01
051.075;000.053;55;000.258;MIDI 01
051.077;000.053;69;000.406;MIDI 01
051.065;000.069;67;000.312;MIDI 01
051.079;000.056;57;000.273;MIDI 01
051.315;000.060;70;000.250;MIDI 01
051.314;000.064;68;000.305;MIDI 01
051.311;000.068;69;000.391;MIDI 01
051.306;000.079;67;000.273;MIDI 01
051.309;000.078;57;000.258;MIDI 01
051.308;000.083;55;000.258;MIDI 01
051.586;000.067;55;000.297;MIDI 01
051.595;000.062;69;000.312;MIDI 01
051.593;000.072;57;000.234;MIDI 01
051.593;000.074;67;000.266;MIDI 01
051.945;000.052;68;000.336;MIDI 01
048.484;003.515;76;000.648;MIDI 01
051.971;000.044;70;000.273;MIDI 01
051.953;000.074;57;000.258;MIDI 01
051.959;000.069;67;000.273;MIDI 01
051.961;000.069;69;000.312;MIDI 01
051.955;000.081;55;000.219;MIDI 01
052.353;000.049;83;000.492;MIDI 01
052.365;000.046;55;000.266;MIDI 01
052.362;000.049;68;000.297;MIDI 01
052.355;000.058;70;000.375;MIDI 01
052.369;000.052;57;000.352;MIDI 01
052.538;000.029;83;000.547;MIDI 01
052.550;000.040;69;000.391;MIDI 01
052.556;000.041;71;000.344;MIDI 01
052.690;000.045;85;000.594;MIDI 01
052.707;000.043;70;000.461;MIDI 01
052.710;000.043;55;000.320;MIDI 01
052.699;000.057;68;000.461;MIDI 01
052.731;000.041;57;000.297;MIDI 01
052.858;000.036;83;000.562;MIDI 01
052.874;000.027;71;000.461;MIDI 01
052.872;000.033;69;000.492;MIDI 01
053.034;000.026;70;000.453;MIDI 01
053.022;000.047;81;000.594;MIDI 01
053.014;000.058;55;000.430;MIDI 01
053.016;000.059;68;000.461;MIDI 01
053.033;000.059;57;000.312;MIDI 01
053.191;000.033;69;000.500;MIDI 01
053.195;000.032;71;000.422;MIDI 01
053.188;000.064;78;000.578;MIDI 01
053.368;000.079;55;000.398;MIDI 01
053.375;000.074;70;000.422;MIDI 01
053.362;000.093;68;000.414;MIDI 01
053.385;000.083;57;000.359;MIDI 01
053.540;000.047;71;000.422;MIDI 01
053.533;000.057;69;000.484;MIDI 01
053.359;000.233;76;000.547;MIDI 01
053.712;000.052;55;000.344;MIDI 01
053.715;000.052;70;000.430;MIDI 01
053.695;000.075;78;000.578;MIDI 01
053.705;000.069;68;000.406;MIDI 01
053.739;000.040;57;000.297;MIDI 01
053.852;000.049;76;000.602;MIDI 01
053.880;000.031;69;000.352;MIDI 01
053.886;000.033;71;000.297;MIDI 01
054.028;000.027;70;000.422;MIDI 01
054.022;000.037;55;000.336;MIDI 01
054.013;000.064;68;000.414;MIDI 01
054.006;000.082;78;000.625;MIDI 01
054.053;000.076;57;000.070;MIDI 01
054.194;000.019;80;000.469;MIDI 01
054.206;000.023;71;000.375;MIDI 01
054.205;000.027;69;000.375;MIDI 01
054.345;000.073;70;000.484;MIDI 01
054.346;000.080;68;000.477;MIDI 01
054.348;000.083;55;000.422;MIDI 01
054.364;000.082;57;000.367;MIDI 01
054.510;000.031;69;000.453;MIDI 01
054.339;000.205;81;000.641;MIDI 01
054.518;000.034;71;000.359;MIDI 01
054.630;000.050;68;000.469;MIDI 01
054.640;000.045;57;000.375;MIDI 01
054.627;000.060;55;000.461;MIDI 01
054.624;000.075;70;000.555;MIDI 01
054.676;000.028;95;000.672;MIDI 01
054.651;000.059;58;000.266;MIDI 01
054.668;000.078;92;000.664;MIDI 01
054.673;000.095;93;000.617;MIDI 01
054.709;000.076;79;000.523;MIDI 01
054.709;000.078;81;000.469;MIDI 01
054.828;000.020;71;000.508;MIDI 01
054.818;000.041;69;000.570;MIDI 01
054.841;000.021;58;000.438;MIDI 01
054.980;000.040;55;000.492;MIDI 01
054.978;000.045;70;000.578;MIDI 01
054.993;000.032;84;000.562;MIDI 01
054.967;000.062;68;000.602;MIDI 01
054.976;000.061;57;000.547;MIDI 01
054.994;000.046;83;000.484;MIDI 01
055.154;000.020;71;000.531;MIDI 01
055.149;000.033;69;000.539;MIDI 01
055.156;000.032;83;000.469;MIDI 01
055.189;000.034;81;000.305;MIDI 01
055.296;000.053;86;000.680;MIDI 01
055.309;000.048;70;000.531;MIDI 01
055.304;000.056;68;000.492;MIDI 01
055.306;000.060;55;000.453;MIDI 01
055.329;000.058;57;000.406;MIDI 01
055.356;000.049;58;000.195;MIDI 01
055.465;000.028;83;000.617;MIDI 01
055.479;000.019;69;000.500;MIDI 01
055.461;000.043;71;000.531;MIDI 01
055.617;000.043;70;000.539;MIDI 01
055.607;000.058;55;000.469;MIDI 01
055.602;000.069;68;000.539;MIDI 01
055.616;000.058;81;000.656;MIDI 01
055.628;000.060;57;000.383;MIDI 01
055.777;000.018;71;000.500;MIDI 01
055.769;000.034;69;000.516;MIDI 01
055.782;000.052;78;000.523;MIDI 01
055.945;000.055;70;000.445;MIDI 01
055.943;000.060;55;000.359;MIDI 01
055.933;000.073;68;000.445;MIDI 01
055.956;000.070;57;000.352;MIDI 01
055.947;000.124;76;000.602;MIDI 01
056.093;000.062;71;000.445;MIDI 01
056.092;000.067;69;000.516;MIDI 01
056.246;000.066;74;000.586;MIDI 01
056.280;000.059;55;000.414;MIDI 01
056.285;000.056;70;000.516;MIDI 01
056.275;000.072;68;000.438;MIDI 01
056.297;000.056;57;000.352;MIDI 01
056.400;000.038;76;000.562;MIDI 01
056.422;000.024;69;000.406;MIDI 01
056.422;000.046;71;000.242;MIDI 01
056.554;000.031;74;000.617;MIDI 01
056.567;000.026;69;000.414;MIDI 01
056.556;000.052;68;000.453;MIDI 01
056.552;000.058;70;000.469;MIDI 01
056.589;000.025;71;000.375;MIDI 01
056.586;000.038;57;000.359;MIDI 01
056.578;000.048;55;000.266;MIDI 01
056.712;000.015;71;000.523;MIDI 01
056.704;000.036;72;000.555;MIDI 01
056.715;000.029;69;000.391;MIDI 01
056.861;000.053;55;000.344;MIDI 01
056.877;000.147;57;000.383;MIDI 01
057.072;000.020;70;000.422;MIDI 01
057.066;000.047;68;000.234;MIDI 01
056.882;000.262;67;000.484;MIDI 01
056.872;000.275;69;000.461;MIDI 01
057.227;000.032;57;000.344;MIDI 01
057.271;000.051;55;000.023;MIDI 01
057.398;000.043;70;000.359;MIDI 01
057.426;000.040;68;000.234;MIDI 01
057.561;000.043;57;000.328;MIDI 01
057.220;000.399;67;000.461;MIDI 01
057.214;000.414;69;000.484;MIDI 01
057.734;000.025;70;000.422;MIDI 01
057.747;000.060;68;000.117;MIDI 01
057.920;000.040;57;000.312;MIDI 01
058.062;000.032;70;000.375;MIDI 01
057.742;000.381;67;000.430;MIDI 01
057.732;000.409;69;000.461;MIDI 01
058.095;000.057;68;000.156;MIDI 01
058.236;000.046;55;000.250;MIDI 01
058.261;000.052;57;000.180;MIDI 01
058.410;000.035;70;000.383;MIDI 01
058.442;000.038;68;000.227;MIDI 01
058.220;000.375;67;000.430;MIDI 01
058.577;000.039;55;000.305;MIDI 01
058.590;000.031;57;000.305;MIDI 01
058.208;000.425;69;000.406;MIDI 01
058.733;000.033;69;000.508;MIDI 01
058.745;000.030;67;000.508;MIDI 01
058.739;000.039;70;000.461;MIDI 01
058.764;000.045;68;000.266;MIDI 01
058.902;000.002;74;000.539;MIDI 01
058.899;000.020;86;000.609;MIDI 01
058.892;000.033;67;000.531;MIDI 01
058.890;000.038;69;000.617;MIDI 01
058.906;000.024;84;000.586;MIDI 01
058.936;000.002;80;000.273;MIDI 01
058.901;000.039;55;000.500;MIDI 01
058.918;000.032;72;000.414;MIDI 01
059.040;000.056;55;000.547;MIDI 01
059.051;000.047;67;000.484;MIDI 01
059.042;000.059;69;000.625;MIDI 01
059.036;000.084;57;000.156;MIDI 01
059.202;000.022;86;000.711;MIDI 01
059.206;000.024;100;000.672;MIDI 01
059.234;000.002;88;000.430;MIDI 01
059.198;000.052;98;000.734;MIDI 01
059.200;000.052;96;000.734;MIDI 01
059.220;000.033;55;000.578;MIDI 01
059.230;000.024;84;000.484;MIDI 01
059.208;000.047;94;000.617;MIDI 01
059.222;000.035;69;000.688;MIDI 01
059.228;000.031;67;000.625;MIDI 01
059.239;000.030;57;000.516;MIDI 01
059.368;000.046;55;000.539;MIDI 01
059.379;000.038;67;000.508;MIDI 01
059.375;000.046;69;000.719;MIDI 01
059.373;000.053;57;000.523;MIDI 01
059.536;000.016;70;000.523;MIDI 01
059.529;000.029;55;000.453;MIDI 01
059.511;000.057;68;000.664;MIDI 01
059.520;000.061;57;000.562;MIDI 01
059.691;000.030;69;000.484;MIDI 01
059.689;000.041;67;000.508;MIDI 01
059.703;000.053;73;000.445;MIDI 01
059.841;000.065;68;000.508;MIDI 01
059.842;000.067;70;000.539;MIDI 01
059.892;000.040;57;000.266;MIDI 01
059.886;000.052;56;000.125;MIDI 01
059.994;000.027;67;000.484;MIDI 01
060.005;000.027;73;000.500;MIDI 01
060.018;000.030;69;000.344;MIDI 01
060.025;000.038;71;000.250;MIDI 01
060.157;000.004;82;000.438;MIDI 01
060.147;000.021;74;000.672;MIDI 01
060.149;000.021;76;000.648;MIDI 01
060.133;000.042;67;000.594;MIDI 01
060.135;000.043;69;000.656;MIDI 01
060.144;000.036;88;000.688;MIDI 01
060.151;000.031;86;000.672;MIDI 01
060.129;000.058;55;000.570;MIDI 01
060.140;000.053;57;000.500;MIDI 01
060.166;000.027;84;000.406;MIDI 01
060.318;000.049;67;000.484;MIDI 01
060.312;000.055;69;000.562;MIDI 01
060.340;000.041;55;000.289;MIDI 01
060.316;000.070;57;000.469;MIDI 01
060.399;000.046;97;000.133;MIDI 01
060.474;000.005;100;000.711;MIDI 01
060.465;000.016;86;000.758;MIDI 01
060.462;000.022;96;000.711;MIDI 01
060.460;000.030;98;000.789;MIDI 01
060.472;000.021;94;000.703;MIDI 01
060.471;000.024;88;000.562;MIDI 01
060.475;000.039;67;000.602;MIDI 01
060.484;000.030;84;000.469;MIDI 01
060.477;000.040;69;000.648;MIDI 01
060.476;000.052;55;000.602;MIDI 01
060.479;000.052;57;000.586;MIDI 01
060.587;000.055;86;000.070;MIDI 01
060.630;000.043;67;000.594;MIDI 01
060.630;000.046;69;000.742;MIDI 01
060.628;000.057;55;000.594;MIDI 01
060.644;000.044;57;000.539;MIDI 01
060.779;000.042;55;000.359;MIDI 01
060.777;000.045;70;000.602;MIDI 01
060.767;000.060;68;000.680;MIDI 01
060.763;000.067;57;000.609;MIDI 01
060.777;000.067;58;000.469;MIDI 01
060.958;000.028;69;000.445;MIDI 01
060.960;000.031;67;000.375;MIDI 01
060.950;000.044;73;000.539;MIDI 01
060.972;000.026;65;000.375;MIDI 01
061.104;000.065;70;000.602;MIDI 01
061.130;000.040;55;000.344;MIDI 01
061.133;000.042;57;000.406;MIDI 01
061.093;000.084;68;000.578;MIDI 01
061.124;000.068;58;000.406;MIDI 01
061.275;000.038;69;000.508;MIDI 01
061.291;000.032;71;000.414;MIDI 01
061.296;000.033;65;000.406;MIDI 01
061.299;000.042;67;000.320;MIDI 01
061.273;000.070;73;000.539;MIDI 01
061.425;000.067;70;000.555;MIDI 01
061.446;000.048;55;000.336;MIDI 01
061.460;000.043;57;000.398;MIDI 01
061.428;000.077;68;000.531;MIDI 01
061.450;000.075;58;000.344;MIDI 01
061.584;000.039;69;000.531;MIDI 01
061.582;000.043;65;000.461;MIDI 01
061.605;000.021;71;000.391;MIDI 01
061.608;000.027;67;000.359;MIDI 01
061.587;000.084;73;000.523;MIDI 01
061.772;000.035;55;000.344;MIDI 01
061.746;000.071;70;000.570;MIDI 01
061.776;000.048;57;000.453;MIDI 01
061.742;000.085;68;000.562;MIDI 01
061.750;000.095;58;000.453;MIDI 01
061.891;000.035;69;000.531;MIDI 01
061.901;000.029;71;000.500;MIDI 01
061.903;000.032;65;000.484;MIDI 01
061.899;000.038;67;000.492;MIDI 01
061.893;000.073;73;000.578;MIDI 01
062.069;000.054;55;000.430;MIDI 01
062.060;000.078;70;000.641;MIDI 01
062.081;000.069;57;000.539;MIDI 01
062.057;000.103;68;000.625;MIDI 01
062.072;000.106;58;000.469;MIDI 01
062.219;000.049;69;000.609;MIDI 01
062.227;000.046;71;000.586;MIDI 01
062.229;000.048;65;000.617;MIDI 01
062.225;000.053;67;000.547;MIDI 01
062.223;000.099;73;000.594;MIDI 01
062.392;000.098;55;000.500;MIDI 01
062.397;000.106;57;000.539;MIDI 01
062.373;000.139;68;000.617;MIDI 01
062.389;000.140;58;000.469;MIDI 01
062.377;000.191;70;000.672;MIDI 01
062.551;000.065;67;000.555;MIDI 01
062.547;000.076;65;000.547;MIDI 01
062.545;000.080;69;000.586;MIDI 01
062.549;000.077;71;000.570;MIDI 01
062.543;000.111;73;000.641;MIDI 01
062.691;000.142;55;000.562;MIDI 01
062.706;000.138;57;000.539;MIDI 01
062.695;000.180;70;000.672;MIDI 01
062.679;000.202;68;000.672;MIDI 01
062.693;000.230;58;000.461;MIDI 01
062.857;000.091;67;000.562;MIDI 01
062.858;000.092;65;000.570;MIDI 01
062.854;000.108;71;000.609;MIDI 01
062.848;000.119;69;000.641;MIDI 01
062.852;000.132;75;000.672;MIDI 01
062.850;000.152;73;000.633;MIDI 01
063.035;000.173;55;000.594;MIDI 01
063.023;000.199;68;000.719;MIDI 01
063.033;000.195;70;000.703;MIDI 01
063.041;000.207;57;000.570;MIDI 01
063.174;000.098;69;000.602;MIDI 01
063.031;000.246;58;000.531;MIDI 01
063.191;000.089;71;000.602;MIDI 01
063.202;000.080;65;000.594;MIDI 01
063.196;000.089;67;000.594;MIDI 01
063.189;000.140;73;000.625;MIDI 01
063.184;000.156;75;000.672;MIDI 01
063.368;000.206;55;000.586;MIDI 01
063.560;000.030;69;000.578;MIDI 01
063.364;000.238;68;000.734;MIDI 01
063.368;000.253;70;000.750;MIDI 01
063.376;000.248;57;000.617;MIDI 01
063.366;000.275;58;000.562;MIDI 01
063.550;000.121;71;000.594;MIDI 01
063.547;000.170;65;000.641;MIDI 01
063.534;000.200;67;000.703;MIDI 01
063.543;000.198;73;000.680;MIDI 01
063.545;000.204;75;000.664;MIDI 01
063.539;000.225;77;000.711;MIDI 01
063.959;000.026;69;000.609;MIDI 01
063.734;000.262;70;000.742;MIDI 01
063.727;000.273;68;000.781;MIDI 01
063.749;000.259;57;000.633;MIDI 01
063.950;000.096;65;000.703;MIDI 01
063.941;000.109;67;000.734;MIDI 01
063.745;000.308;55;000.609;MIDI 01
063.747;000.309;58;000.562;MIDI 01
063.942;000.121;77;000.750;MIDI 01
063.952;000.139;71;000.688;MIDI 01
063.946;000.170;73;000.680;MIDI 01
063.944;000.195;75;000.688;MIDI 01
064.689;000.091;66;000.727;MIDI 01
064.691;000.111;78;000.742;MIDI 01
064.952;000.079;66;000.711;MIDI 01
064.954;000.081;78;000.719;MIDI 01
065.164;000.064;66;000.719;MIDI 01
065.162;000.068;78;000.719;MIDI 01
065.356;000.035;76;000.711;MIDI 01
065.364;000.034;64;000.617;MIDI 01
065.543;000.032;63;000.445;MIDI 01
065.531;000.046;61;000.625;MIDI 01
065.522;000.057;73;000.695;MIDI 01
065.693;000.158;71;000.750;MIDI 01
065.699;000.161;59;000.648;MIDI 01
065.865;000.028;64;000.438;MIDI 01
065.871;000.024;57;000.586;MIDI 01
065.860;000.066;69;000.570;MIDI 01
065.882;000.052;45;000.430;MIDI 01
065.890;000.048;52;000.477;MIDI 01
065.880;000.059;50;000.516;MIDI 01
066.028;000.031;73;000.625;MIDI 01
066.022;000.040;61;000.680;MIDI 01
066.162;000.054;73;000.133;MIDI 01
066.184;000.049;59;000.594;MIDI 01
066.194;000.045;71;000.656;MIDI 01
066.361;000.046;61;000.664;MIDI 01
066.356;000.069;73;000.672;MIDI 01
066.530;000.056;63;000.664;MIDI 01
066.533;000.058;75;000.688;MIDI 01
066.696;000.184;64;000.719;MIDI 01
066.692;000.195;76;000.766;MIDI 01
066.866;000.030;55;000.625;MIDI 01
066.855;000.057;69;000.570;MIDI 01
066.879;000.048;43;000.539;MIDI 01
066.886;000.076;50;000.547;MIDI 01
066.864;000.104;74;000.609;MIDI 01
066.884;000.085;45;000.562;MIDI 01
067.059;000.060;66;000.680;MIDI 01
067.061;000.062;78;000.711;MIDI 01
067.249;000.028;66;000.625;MIDI 01
067.251;000.028;78;000.633;MIDI 01
067.399;000.052;66;000.562;MIDI 01
067.401;000.053;78;000.516;MIDI 01
067.574;000.032;76;000.656;MIDI 01
067.578;000.036;64;000.609;MIDI 01
067.747;000.033;73;000.625;MIDI 01
067.740;000.054;61;000.672;MIDI 01
067.904;000.183;71;000.727;MIDI 01
067.909;000.182;59;000.672;MIDI 01
068.037;000.056;54;000.703;MIDI 01
068.033;000.080;42;000.633;MIDI 01
068.035;000.079;52;000.656;MIDI 01
068.060;000.072;69;000.633;MIDI 01
068.054;000.080;64;000.609;MIDI 01
068.235;000.041;57;000.602;MIDI 01
068.240;000.048;69;000.648;MIDI 01
068.409;000.032;71;000.625;MIDI 01
068.411;000.038;59;000.547;MIDI 01
068.568;000.045;57;000.570;MIDI 01
068.571;000.045;69;000.625;MIDI 01
068.743;000.201;71;000.703;MIDI 01
068.747;000.225;59;000.680;MIDI 01
068.944;000.038;40;000.445;MIDI 01
068.917;000.075;54;000.672;MIDI 01
068.932;000.092;47;000.562;MIDI 01
068.921;000.106;64;000.555;MIDI 01
068.925;000.107;69;000.602;MIDI 01
069.102;000.174;59;000.750;MIDI 01
069.263;000.023;64;000.648;MIDI 01
069.271;000.035;47;000.578;MIDI 01
069.276;000.034;40;000.438;MIDI 01
069.101;000.222;71;000.742;MIDI 01
069.273;000.067;54;000.617;MIDI 01
069.280;000.061;69;000.617;MIDI 01
069.566;000.046;78;000.617;MIDI 01
069.564;000.064;66;000.555;MIDI 01
069.559;000.080;90;000.656;MIDI 01
069.760;000.033;66;000.586;MIDI 01
069.749;000.059;78;000.672;MIDI 01
069.754;000.071;90;000.742;MIDI 01
069.931;000.045;78;000.719;MIDI 01
069.929;000.089;90;000.750;MIDI 01
069.928;000.124;66;000.641;MIDI 01
070.109;000.055;94;000.797;MIDI 01
070.114;000.055;82;000.742;MIDI 01
070.105;000.103;70;000.688;MIDI 01
070.289;000.041;78;000.609;MIDI 01
070.284;000.051;90;000.703;MIDI 01
070.282;000.066;66;000.594;MIDI 01
070.456;000.034;88;000.680;MIDI 01
070.455;000.037;76;000.703;MIDI 01
070.519;000.002;86;000.133;MIDI 01
070.440;000.097;64;000.609;MIDI 01
070.591;000.075;61;000.617;MIDI 01
070.631;000.036;85;000.594;MIDI 01
070.624;000.047;73;000.648;MIDI 01
070.775;000.070;59;000.578;MIDI 01
070.784;000.155;71;000.711;MIDI 01
070.934;000.021;50;000.523;MIDI 01
070.780;000.178;83;000.719;MIDI 01
070.946;000.025;76;000.508;MIDI 01
070.931;000.053;52;000.547;MIDI 01
070.944;000.045;45;000.352;MIDI 01
070.938;000.068;57;000.586;MIDI 01
070.951;000.060;81;000.609;MIDI 01
071.122;000.053;73;000.672;MIDI 01
071.124;000.060;85;000.664;MIDI 01
071.128;000.071;61;000.656;MIDI 01
071.297;000.030;71;000.633;MIDI 01
071.289;000.062;83;000.664;MIDI 01
071.295;000.068;59;000.633;MIDI 01
071.456;000.033;69;000.555;MIDI 01
071.447;000.071;81;000.648;MIDI 01
071.460;000.074;57;000.562;MIDI 01
071.631;000.029;73;000.516;MIDI 01
071.607;000.072;61;000.633;MIDI 01
071.617;000.084;85;000.633;MIDI 01
071.783;000.062;75;000.633;MIDI 01
071.781;000.071;87;000.680;MIDI 01
071.789;000.105;63;000.617;MIDI 01
071.936;000.047;64;000.672;MIDI 01
071.966;000.020;88;000.625;MIDI 01
071.983;000.014;86;000.562;MIDI 01
071.963;000.037;76;000.695;MIDI 01
072.121;000.032;53;000.648;MIDI 01
072.123;000.031;55;000.688;MIDI 01
072.126;000.030;41;000.625;MIDI 01
072.136;000.022;67;000.586;MIDI 01
072.125;000.041;74;000.727;MIDI 01
072.139;000.029;69;000.586;MIDI 01
072.289;000.029;64;000.734;MIDI 01
072.305;000.035;76;000.641;MIDI 01
072.308;000.047;88;000.711;MIDI 01
072.553;000.079;66;000.672;MIDI 01
072.576;000.058;54;000.492;MIDI 01
072.572;000.070;78;000.680;MIDI 01
072.574;000.080;90;000.727;MIDI 01
072.735;000.062;52;000.633;MIDI 01
072.742;000.060;64;000.555;MIDI 01
072.759;000.055;76;000.688;MIDI 01
072.754;000.065;88;000.727;MIDI 01
072.920;000.034;66;000.711;MIDI 01
072.917;000.045;78;000.719;MIDI 01
072.940;000.034;54;000.469;MIDI 01
072.922;000.084;90;000.711;MIDI 01
073.089;000.039;97;000.812;MIDI 01
073.096;000.033;61;000.727;MIDI 01
073.092;000.040;73;000.766;MIDI 01
073.084;000.049;85;000.742;MIDI 01
073.270;000.029;54;000.602;MIDI 01
073.252;000.051;78;000.703;MIDI 01
073.253;000.051;90;000.719;MIDI 01
073.255;000.051;66;000.734;MIDI 01
073.427;000.030;80;000.758;MIDI 01
073.429;000.028;92;000.750;MIDI 01
073.431;000.030;68;000.719;MIDI 01
073.440;000.026;56;000.719;MIDI 01
073.461;000.030;66;000.398;MIDI 01
073.571;000.049;56;000.109;MIDI 01
073.597;000.036;61;000.781;MIDI 01
073.602;000.033;49;000.656;MIDI 01
073.603;000.034;73;000.695;MIDI 01
073.599;000.052;85;000.727;MIDI 01
073.648;000.045;51;000.258;MIDI 01
073.764;000.033;59;000.672;MIDI 01
073.774;000.033;45;000.609;MIDI 01
073.771;000.039;57;000.648;MIDI 01
073.776;000.034;47;000.570;MIDI 01
073.766;000.176;83;000.773;MIDI 01
073.767;000.200;71;000.750;MIDI 01
073.967;000.018;81;000.484;MIDI 01
073.955;000.048;76;000.516;MIDI 01
073.965;000.058;54;000.711;MIDI 01
073.984;000.044;42;000.461;MIDI 01
074.169;000.002;43;000.430;MIDI 01
074.132;000.060;57;000.672;MIDI 01
074.109;000.094;69;000.688;MIDI 01
074.136;000.068;45;000.641;MIDI 01
074.103;000.123;81;000.656;MIDI 01
074.328;000.068;59;000.734;MIDI 01
074.339;000.058;83;000.742;MIDI 01
074.332;000.067;47;000.680;MIDI 01
074.336;000.065;71;000.766;MIDI 01
074.521;000.061;61;000.797;MIDI 01
074.526;000.065;49;000.688;MIDI 01
074.532;000.060;73;000.758;MIDI 01
074.534;000.082;85;000.742;MIDI 01
074.698;000.049;62;000.695;MIDI 01
074.704;000.044;74;000.766;MIDI 01
074.707;000.046;86;000.734;MIDI 01
074.700;000.060;50;000.695;MIDI 01
074.758;000.002;60;000.125;MIDI 01
074.885;000.041;57;000.758;MIDI 01
074.890;000.039;81;000.711;MIDI 01
074.888;000.047;69;000.773;MIDI 01
074.908;000.028;79;000.469;MIDI 01
074.892;000.060;45;000.758;MIDI 01
075.162;000.392;64;000.789;MIDI 01
075.156;000.400;76;000.773;MIDI 01
075.154;000.420;40;000.734;MIDI 01
075.148;000.435;52;000.773;MIDI 01
075.717;000.071;76;000.797;MIDI 01
075.715;000.125;64;000.773;MIDI 01
075.714;000.558;52;000.781;MIDI 01
075.719;000.555;40;000.727;MIDI 01
076.315;000.030;66;000.398;MIDI 01
076.331;000.017;64;000.320;MIDI 01
076.327;000.027;57;000.375;MIDI 01
076.325;000.035;59;000.266;MIDI 01
076.491;000.050;52;000.523;MIDI 01
076.508;000.041;47;000.445;MIDI 01
076.493;000.058;40;000.453;MIDI 01
076.698;000.032;59;000.383;MIDI 01
076.694;000.042;57;000.469;MIDI 01
076.701;000.042;64;000.398;MIDI 01
076.684;000.090;66;000.531;MIDI 01
076.844;000.054;52;000.633;MIDI 01
076.847;000.059;47;000.641;MIDI 01
076.848;000.093;40;000.602;MIDI 01
077.070;000.040;59;000.586;MIDI 01
077.068;000.046;57;000.602;MIDI 01
077.066;000.071;64;000.617;MIDI 01
077.065;000.100;66;000.633;MIDI 01
077.225;000.085;52;000.727;MIDI 01
077.229;000.117;40;000.695;MIDI 01
077.227;000.119;47;000.742;MIDI 01
077.407;000.069;59;000.656;MIDI 01
077.415;000.065;57;000.633;MIDI 01
077.402;000.093;64;000.617;MIDI 01
077.417;000.091;66;000.672;MIDI 01
077.574;000.070;47;000.773;MIDI 01
077.576;000.071;52;000.734;MIDI 01
077.578;000.078;40;000.734;MIDI 01
077.785;000.069;59;000.703;MIDI 01
077.784;000.085;57;000.680;MIDI 01
077.787;000.099;64;000.711;MIDI 01
077.783;000.128;66;000.703;MIDI 01
078.061;000.079;52;000.789;MIDI 01
078.075;000.078;59;000.750;MIDI 01
078.074;000.087;57;000.750;MIDI 01
078.061;000.103;47;000.711;MIDI 01
078.064;000.103;45;000.727;MIDI 01
078.119;000.050;43;000.328;MIDI 01
078.065;000.105;40;000.719;MIDI 01
078.072;000.112;64;000.742;MIDI 01
078.068;000.129;66;000.781;MIDI 01
078.974;000.129;73;000.789;MIDI 01
079.286;000.021;80;000.477;MIDI 01
079.254;000.078;71;000.758;MIDI 01
079.464;000.106;73;000.719;MIDI 01
079.658;000.079;71;000.672;MIDI 01
079.669;000.183;36;000.531;MIDI 01
079.667;000.234;46;000.586;MIDI 01
079.671;000.242;52;000.562;MIDI 01
079.856;000.061;69;000.664;MIDI 01
080.029;000.059;67;000.719;MIDI 01
080.223;000.134;67;000.641;MIDI 01
080.385;000.086;57;000.523;MIDI 01
080.396;000.142;48;000.539;MIDI 01
080.402;000.139;41;000.469;MIDI 01
080.215;000.333;65;000.656;MIDI 01
080.566;000.097;64;000.656;MIDI 01
080.749;000.097;65;000.641;MIDI 01
080.910;000.074;67;000.586;MIDI 01
081.044;000.039;54;000.586;MIDI 01
081.082;000.027;38;000.500;MIDI 01
081.080;000.039;48;000.609;MIDI 01
081.095;000.032;65;000.336;MIDI 01
081.109;000.095;69;000.664;MIDI 01
081.271;000.245;65;000.531;MIDI 01
081.635;000.074;59;000.586;MIDI 01
081.638;000.090;43;000.469;MIDI 01
081.461;000.278;67;000.680;MIDI 01
081.647;000.135;50;000.492;MIDI 01
081.816;000.088;73;000.688;MIDI 01
081.981;000.074;71;000.672;MIDI 01
082.162;000.066;73;000.688;MIDI 01
082.339;000.069;71;000.641;MIDI 01
082.341;000.076;61;000.664;MIDI 01
082.527;000.082;69;000.633;MIDI 01
082.364;000.263;45;000.445;MIDI 01
082.379;000.275;55;000.430;MIDI 01
082.696;000.069;67;000.656;MIDI 01
082.892;000.176;65;000.602;MIDI 01
083.051;000.049;57;000.344;MIDI 01
083.045;000.083;46;000.391;MIDI 01
083.074;000.108;62;000.641;MIDI 01
083.260;000.086;64;000.758;MIDI 01
083.459;000.080;65;000.742;MIDI 01
083.634;000.093;67;000.750;MIDI 01
083.827;000.060;31;000.359;MIDI 01
083.819;000.071;47;000.516;MIDI 01
083.829;000.068;69;000.734;MIDI 01
083.831;000.100;41;000.484;MIDI 01
084.011;000.082;67;000.688;MIDI 01
084.400;000.035;38;000.430;MIDI 01
084.407;000.032;45;000.500;MIDI 01
084.428;000.033;54;000.508;MIDI 01
084.205;000.259;62;000.695;MIDI 01
084.701;000.057;61;000.516;MIDI 01
084.886;000.048;59;000.500;MIDI 01
085.078;000.047;61;000.453;MIDI 01
085.265;000.056;59;000.469;MIDI 01
085.430;000.034;57;000.461;MIDI 01
085.603;000.042;55;000.266;MIDI 01
085.080;000.569;69;000.445;MIDI 01
085.084;000.588;68;000.414;MIDI 01
085.784;000.051;66;000.430;MIDI 01
085.787;000.053;71;000.430;MIDI 01
085.969;000.033;64;000.430;MIDI 01
085.976;000.040;69;000.477;MIDI 01
085.755;000.292;53;000.430;MIDI 01
086.128;000.022;62;000.422;MIDI 01
086.125;000.051;67;000.500;MIDI 01
086.284;000.044;52;000.453;MIDI 01
086.296;000.079;60;000.461;MIDI 01
086.305;000.095;69;000.461;MIDI 01
086.448;000.037;53;000.453;MIDI 01
086.609;000.055;55;000.508;MIDI 01
086.777;000.036;57;000.469;MIDI 01
086.642;000.348;64;000.469;MIDI 01
086.950;000.053;53;000.461;MIDI 01
086.636;000.402;69;000.539;MIDI 01
087.142;000.029;62;000.484;MIDI 01
087.154;000.059;67;000.445;MIDI 01
087.299;000.032;60;000.578;MIDI 01
087.304;000.039;69;000.578;MIDI 01
087.135;000.220;55;000.477;MIDI 01
087.460;000.026;59;000.578;MIDI 01
087.450;000.074;67;000.633;MIDI 01
087.624;000.036;57;000.562;MIDI 01
087.641;000.035;61;000.578;MIDI 01
087.626;000.094;69;000.633;MIDI 01
087.796;000.064;59;000.570;MIDI 01
087.959;000.057;61;000.578;MIDI 01
088.145;000.054;59;000.477;MIDI 01
088.301;000.031;57;000.508;MIDI 01
087.982;000.502;69;000.516;MIDI 01
087.987;000.500;68;000.453;MIDI 01
088.448;000.042;55;000.523;MIDI 01
088.626;000.056;66;000.500;MIDI 01
088.630;000.054;71;000.508;MIDI 01
088.780;000.037;64;000.547;MIDI 01
088.609;000.239;53;000.492;MIDI 01
088.808;000.044;69;000.492;MIDI 01
088.960;000.023;62;000.438;MIDI 01
088.963;000.044;67;000.453;MIDI 01
089.123;000.032;69;000.484;MIDI 01
089.128;000.043;60;000.461;MIDI 01
089.126;000.054;40;000.469;MIDI 01
089.298;000.037;41;000.453;MIDI 01
089.469;000.033;52;000.414;MIDI 01
089.473;000.040;43;000.461;MIDI 01
089.619;000.047;45;000.492;MIDI 01
089.647;000.035;53;000.305;MIDI 01
089.801;000.032;43;000.445;MIDI 01
089.810;000.030;55;000.359;MIDI 01
089.939;000.145;38;000.492;MIDI 01
089.957;000.150;57;000.484;MIDI 01
090.128;000.149;55;000.469;MIDI 01
090.261;000.041;40;000.453;MIDI 01
090.266;000.054;28;000.406;MIDI 01
090.287;000.141;57;000.500;MIDI 01
090.433;000.035;41;000.484;MIDI 01
090.446;000.032;29;000.438;MIDI 01
090.595;000.033;43;000.547;MIDI 01
090.602;000.036;31;000.492;MIDI 01
090.614;000.031;53;000.445;MIDI 01
090.765;000.030;45;000.539;MIDI 01
090.776;000.033;33;000.469;MIDI 01
090.768;000.045;55;000.531;MIDI 01
090.925;000.045;43;000.531;MIDI 01
090.918;000.067;57;000.562;MIDI 01
090.939;000.048;31;000.477;MIDI 01
091.097;000.072;45;000.641;MIDI 01
091.112;000.116;33;000.617;MIDI 01
091.095;000.162;58;000.586;MIDI 01
091.410;000.039;40;000.578;MIDI 01
091.417;000.041;28;000.508;MIDI 01
091.249;000.242;57;000.547;MIDI 01
091.433;000.095;58;000.570;MIDI 01
091.589;000.036;29;000.492;MIDI 01
091.584;000.042;41;000.586;MIDI 01
091.742;000.042;43;000.609;MIDI 01
091.748;000.037;58;000.555;MIDI 01
091.739;000.047;70;000.633;MIDI 01
091.755;000.032;31;000.555;MIDI 01
091.912;000.016;60;000.539;MIDI 01
091.909;000.023;72;000.609;MIDI 01
091.905;000.042;45;000.664;MIDI 01
091.906;000.057;33;000.609;MIDI 01
092.060;000.031;43;000.656;MIDI 01
092.067;000.032;62;000.586;MIDI 01
092.062;000.042;74;000.695;MIDI 01
092.069;000.039;31;000.594;MIDI 01
092.216;000.041;26;000.703;MIDI 01
092.225;000.042;63;000.656;MIDI 01
092.209;000.059;38;000.734;MIDI 01
092.223;000.061;75;000.688;MIDI 01
092.388;000.043;74;000.656;MIDI 01
092.385;000.048;62;000.594;MIDI 01
092.561;000.051;60;000.555;MIDI 01
092.572;000.044;40;000.391;MIDI 01
092.580;000.043;52;000.391;MIDI 01
092.566;000.102;72;000.617;MIDI 01
092.725;000.039;53;000.594;MIDI 01
092.725;000.042;41;000.547;MIDI 01
092.876;000.045;41;000.430;MIDI 01
092.855;000.068;53;000.617;MIDI 01
092.882;000.043;70;000.578;MIDI 01
092.877;000.051;82;000.633;MIDI 01
092.891;000.039;43;000.477;MIDI 01
093.034;000.029;72;000.602;MIDI 01
093.041;000.033;57;000.695;MIDI 01
093.045;000.036;45;000.656;MIDI 01
093.036;000.047;84;000.672;MIDI 01
093.180;000.039;57;000.586;MIDI 01
093.203;000.023;43;000.547;MIDI 01
093.196;000.032;45;000.445;MIDI 01
093.194;000.043;74;000.680;MIDI 01
093.210;000.030;55;000.422;MIDI 01
093.190;000.059;86;000.719;MIDI 01
093.367;000.022;38;000.594;MIDI 01
093.368;000.031;50;000.508;MIDI 01
093.356;000.048;52;000.766;MIDI 01
093.368;000.044;40;000.641;MIDI 01
093.358;000.059;75;000.711;MIDI 01
093.360;000.067;87;000.719;MIDI 01
093.513;000.041;74;000.648;MIDI 01
093.515;000.055;86;000.688;MIDI 01
093.685;000.034;47;000.516;MIDI 01
093.697;000.028;59;000.469;MIDI 01
093.844;000.034;60;000.586;MIDI 01
093.690;000.192;72;000.578;MIDI 01
093.849;000.036;48;000.555;MIDI 01
093.680;000.209;84;000.648;MIDI 01
094.006;000.051;50;000.586;MIDI 01
094.011;000.049;72;000.641;MIDI 01
094.007;000.060;62;000.656;MIDI 01
094.008;000.071;84;000.656;MIDI 01
094.174;000.036;70;000.695;MIDI 01
094.177;000.060;64;000.703;MIDI 01
094.185;000.060;52;000.656;MIDI 01
094.170;000.089;82;000.703;MIDI 01
094.354;000.067;75;000.734;MIDI 01
094.358;000.072;62;000.711;MIDI 01
094.356;000.077;87;000.805;MIDI 01
094.362;000.081;50;000.656;MIDI 01
094.578;000.059;86;000.773;MIDI 01
094.576;000.064;74;000.734;MIDI 01
094.582;000.059;60;000.648;MIDI 01
094.580;000.074;48;000.656;MIDI 01
094.784;000.040;59;000.594;MIDI 01
094.789;000.041;47;000.562;MIDI 01
094.786;000.045;84;000.617;MIDI 01
094.792;000.050;72;000.602;MIDI 01
094.944;000.040;70;000.578;MIDI 01
094.948;000.041;57;000.578;MIDI 01
094.946;000.048;45;000.555;MIDI 01
094.948;000.050;82;000.531;MIDI 01
095.102;000.034;69;000.617;MIDI 01
095.097;000.046;55;000.555;MIDI 01
095.100;000.045;43;000.539;MIDI 01
095.099;000.059;81;000.664;MIDI 01
095.251;000.036;79;000.656;MIDI 01
095.249;000.041;67;000.641;MIDI 01
095.245;000.053;53;000.602;MIDI 01
095.253;000.053;41;000.586;MIDI 01
095.306;000.035;43;000.148;MIDI 01
095.401;000.057;77;000.734;MIDI 01
095.391;000.070;52;000.711;MIDI 01
095.405;000.057;65;000.719;MIDI 01
095.398;000.069;40;000.680;MIDI 01
095.559;000.032;63;000.609;MIDI 01
095.565;000.031;50;000.617;MIDI 01
095.564;000.040;75;000.562;MIDI 01
095.573;000.032;38;000.578;MIDI 01
095.701;000.037;62;000.656;MIDI 01
095.703;000.045;74;000.680;MIDI 01
095.707;000.045;48;000.648;MIDI 01
095.713;000.047;36;000.617;MIDI 01
095.852;000.038;47;000.664;MIDI 01
095.865;000.029;72;000.695;MIDI 01
095.862;000.035;60;000.672;MIDI 01
095.858;000.051;35;000.625;MIDI 01
095.995;000.037;58;000.688;MIDI 01
095.993;000.046;45;000.719;MIDI 01
096.001;000.040;70;000.609;MIDI 01
096.003;000.040;33;000.625;MIDI 01
096.139;000.036;57;000.750;MIDI 01
096.141;000.037;43;000.680;MIDI 01
096.148;000.044;31;000.664;MIDI 01
096.143;000.052;69;000.711;MIDI 01
096.291;000.025;55;000.711;MIDI 01
096.283;000.040;41;000.672;MIDI 01
096.285;000.040;29;000.648;MIDI 01
096.292;000.044;67;000.719;MIDI 01
096.419;000.049;40;000.727;MIDI 01
096.444;000.024;65;000.695;MIDI 01
096.440;000.032;53;000.672;MIDI 01
096.424;000.049;28;000.680;MIDI 01
096.555;000.042;38;000.688;MIDI 01
096.561;000.041;26;000.695;MIDI 01
096.566;000.051;51;000.742;MIDI 01
096.584;000.036;63;000.602;MIDI 01
096.682;000.042;24;000.711;MIDI 01
096.677;000.066;36;000.133;MIDI 01
096.709;000.039;53;000.773;MIDI 01
096.717;000.035;65;000.680;MIDI 01
096.844;000.046;41;000.797;MIDI 01
096.865;000.027;52;000.711;MIDI 01
096.854;000.042;29;000.734;MIDI 01
096.894;000.002;61;000.469;MIDI 01
096.895;000.002;62;000.383;MIDI 01
096.861;000.036;50;000.773;MIDI 01
096.859;000.039;64;000.711;MIDI 01
097.172;000.030;29;000.602;MIDI 01
097.167;000.046;41;000.648;MIDI 01
097.327;000.032;50;000.453;MIDI 01
097.329;000.032;52;000.461;MIDI 01
097.326;000.041;64;000.562;MIDI 01
097.494;000.046;29;000.625;MIDI 01
097.478;000.064;41;000.688;MIDI 01
097.644;000.043;50;000.594;MIDI 01
097.643;000.046;52;000.609;MIDI 01
097.638;000.060;64;000.672;MIDI 01
097.920;000.039;64;000.617;MIDI 01
097.938;000.028;50;000.445;MIDI 01
097.934;000.037;52;000.445;MIDI 01
098.081;000.046;41;000.664;MIDI 01
098.086;000.043;29;000.609;MIDI 01
098.235;000.039;50;000.562;MIDI 01
098.224;000.050;64;000.672;MIDI 01
098.237;000.038;52;000.570;MIDI 01
098.389;000.020;29;000.641;MIDI 01
098.380;000.062;41;000.734;MIDI 01
098.518;000.034;50;000.469;MIDI 01
098.552;000.002;62;000.336;MIDI 01
098.516;000.073;64;000.586;MIDI 01
098.692;000.034;64;000.688;MIDI 01
098.736;000.002;55;000.219;MIDI 01
098.697;000.042;62;000.594;MIDI 01
098.690;000.055;53;000.633;MIDI 01
098.852;000.033;61;000.469;MIDI 01
098.847;000.041;65;000.492;MIDI 01
098.849;000.041;64;000.523;MIDI 01
099.008;000.046;62;000.578;MIDI 01
099.017;000.040;64;000.500;MIDI 01
099.172;000.039;61;000.516;MIDI 01
099.170;000.042;65;000.508;MIDI 01
099.167;000.062;63;000.445;MIDI 01
099.333;000.047;64;000.523;MIDI 01
099.331;000.051;62;000.484;MIDI 01
099.493;000.034;61;000.445;MIDI 01
099.491;000.053;65;000.422;MIDI 01
099.490;000.061;63;000.359;MIDI 01
099.646;000.045;64;000.492;MIDI 01
099.644;000.050;62;000.445;MIDI 01
099.806;000.049;61;000.352;MIDI 01
099.804;000.055;63;000.344;MIDI 01
099.799;000.062;65;000.398;MIDI 01
099.957;000.054;64;000.469;MIDI 01
099.959;000.054;62;000.445;MIDI 01
100.139;000.050;61;000.391;MIDI 01
100.134;000.062;63;000.391;MIDI 01
100.136;000.067;65;000.391;MIDI 01
100.310;000.045;64;000.430;MIDI 01
100.312;000.047;62;000.359;MIDI 01
100.489;000.038;61;000.297;MIDI 01
100.473;000.057;63;000.352;MIDI 01
100.468;000.071;65;000.406;MIDI 01
100.634;000.031;64;000.406;MIDI 01
100.632;000.036;62;000.391;MIDI 01
100.784;000.070;65;000.328;MIDI 01
100.780;000.078;63;000.289;MIDI 01
100.786;000.074;61;000.305;MIDI 01
100.941;000.052;64;000.352;MIDI 01
100.946;000.054;62;000.297;MIDI 01
101.114;000.071;61;000.336;MIDI 01
101.125;000.061;63;000.289;MIDI 01
101.116;000.079;65;000.305;MIDI 01
101.284;000.060;64;000.352;MIDI 01
101.292;000.061;62;000.312;MIDI 01
101.458;000.070;65;000.312;MIDI 01
101.463;000.068;63;000.273;MIDI 01
101.451;000.089;61;000.336;MIDI 01
101.605;000.050;62;000.477;MIDI 01
101.603;000.054;64;000.477;MIDI 01
101.585;000.096;52;000.547;MIDI 01
101.803;000.074;65;000.352;MIDI 01
101.808;000.072;63;000.305;MIDI 01
101.800;000.083;61;000.305;MIDI 01
101.963;000.083;64;000.406;MIDI 01
101.965;000.083;62;000.398;MIDI 01
102.151;000.075;65;000.344;MIDI 01
102.144;000.085;61;000.312;MIDI 01
102.149;000.084;63;000.289;MIDI 01
102.338;000.037;64;000.391;MIDI 01
102.335;000.052;62;000.359;MIDI 01
102.507;000.038;61;000.375;MIDI 01
102.527;000.047;63;000.281;MIDI 01
102.541;000.036;65;000.352;MIDI 01
102.708;000.028;50;000.383;MIDI 01
102.728;000.234;64;000.422;MIDI 01
102.723;000.242;62;000.320;MIDI 01
102.964;000.049;73;000.516;MIDI 01
102.955;000.073;87;000.625;MIDI 01
103.009;000.046;85;000.477;MIDI 01
102.996;000.142;63;000.305;MIDI 01
102.999;000.146;65;000.297;MIDI 01
103.007;000.140;61;000.328;MIDI 01
103.200;000.143;64;000.359;MIDI 01
103.203;000.155;62;000.320;MIDI 01
103.383;000.048;87;000.531;MIDI 01
103.403;000.054;73;000.398;MIDI 01
103.418;000.065;65;000.258;MIDI 01
103.422;000.076;63;000.281;MIDI 01
103.420;000.080;85;000.492;MIDI 01
103.424;000.085;61;000.258;MIDI 01
103.564;000.042;87;000.555;MIDI 01
103.592;000.060;73;000.391;MIDI 01
103.594;000.081;62;000.352;MIDI 01
103.599;000.079;64;000.375;MIDI 01
103.599;000.083;85;000.523;MIDI 01
103.734;000.074;87;000.617;MIDI 01
103.783;000.052;85;000.492;MIDI 01
103.797;000.044;73;000.211;MIDI 01
103.795;000.054;65;000.289;MIDI 01
103.792;000.086;63;000.344;MIDI 01
103.793;000.092;61;000.375;MIDI 01
103.898;000.101;85;000.539;MIDI 01
103.926;000.095;83;000.617;MIDI 01
103.951;000.267;62;000.398;MIDI 01
103.953;000.274;64;000.445;MIDI 01
104.204;000.086;83;000.492;MIDI 01
104.248;000.076;65;000.336;MIDI 01
104.246;000.099;63;000.352;MIDI 01
104.243;000.128;61;000.336;MIDI 01
104.297;000.101;85;000.594;MIDI 01
104.393;000.080;83;000.438;MIDI 01
104.446;000.085;81;000.570;MIDI 01
104.415;000.120;62;000.328;MIDI 01
104.526;000.030;80;000.531;MIDI 01
104.405;000.190;64;000.359;MIDI 01
104.624;000.082;65;000.391;MIDI 01
104.622;000.128;63;000.391;MIDI 01
104.626;000.126;61;000.359;MIDI 01
104.821;000.089;62;000.414;MIDI 01
104.823;000.092;64;000.469;MIDI 01
105.013;000.046;65;000.430;MIDI 01
105.033;000.041;63;000.312;MIDI 01
105.185;000.027;52;000.445;MIDI 01
105.168;000.192;64;000.391;MIDI 01
105.155;000.215;62;000.352;MIDI 01
105.395;000.121;61;000.328;MIDI 01
105.404;000.141;63;000.258;MIDI 01
105.551;000.164;64;000.352;MIDI 01
105.559;000.193;62;000.336;MIDI 01
105.731;000.092;65;000.305;MIDI 01
105.725;000.103;63;000.352;MIDI 01
105.727;000.103;61;000.367;MIDI 01
104.647;001.380;78;000.586;MIDI 01
105.911;000.158;64;000.406;MIDI 01
104.652;001.462;66;000.594;MIDI 01
106.070;000.052;63;000.406;MIDI 01
106.082;000.042;65;000.305;MIDI 01
105.912;000.233;62;000.359;MIDI 01
106.223;000.028;50;000.523;MIDI 01
106.253;000.201;64;000.086;MIDI 01
106.465;000.082;80;000.562;MIDI 01
106.483;000.067;66;000.438;MIDI 01
106.487;000.075;61;000.336;MIDI 01
106.545;000.046;78;000.469;MIDI 01
106.435;000.157;65;000.406;MIDI 01
106.485;000.121;63;000.250;MIDI 01
106.671;000.061;66;000.492;MIDI 01
106.666;000.076;80;000.578;MIDI 01
106.636;000.142;64;000.391;MIDI 01
106.634;000.151;62;000.391;MIDI 01
106.710;000.082;78;000.531;MIDI 01
106.842;000.081;65;000.344;MIDI 01
106.847;000.095;63;000.289;MIDI 01
106.848;000.105;61;000.352;MIDI 01
107.058;000.064;68;000.445;MIDI 01
107.053;000.100;80;000.555;MIDI 01
107.127;000.054;78;000.492;MIDI 01
107.027;000.204;64;000.367;MIDI 01
107.031;000.215;62;000.367;MIDI 01
107.258;000.084;65;000.328;MIDI 01
107.250;000.148;63;000.359;MIDI 01
107.246;000.165;61;000.359;MIDI 01
107.266;000.148;76;000.555;MIDI 01
107.351;000.171;80;000.578;MIDI 01
107.436;000.125;82;000.539;MIDI 01
107.424;000.244;64;000.414;MIDI 01
107.428;000.278;62;000.367;MIDI 01
107.479;000.339;71;000.414;MIDI 01
107.718;000.128;65;000.266;MIDI 01
107.714;000.135;63;000.297;MIDI 01
107.497;000.354;83;000.539;MIDI 01
107.716;000.152;61;000.266;MIDI 01
107.884;000.179;64;000.367;MIDI 01
107.886;000.197;62;000.312;MIDI 01
108.088;000.104;65;000.320;MIDI 01
108.083;000.120;61;000.266;MIDI 01
108.078;000.133;63;000.320;MIDI 01
108.440;000.058;65;000.445;MIDI 01
108.463;000.041;63;000.336;MIDI 01
108.276;000.298;62;000.312;MIDI 01
108.278;000.325;64;000.406;MIDI 01
108.621;000.027;52;000.438;MIDI 01
108.636;000.173;64;000.148;MIDI 01
108.805;000.118;65;000.375;MIDI 01
108.849;000.076;61;000.312;MIDI 01
108.839;000.089;63;000.273;MIDI 01
109.004;000.143;64;000.312;MIDI 01
109.006;000.148;62;000.375;MIDI 01
109.175;000.082;65;000.352;MIDI 01
109.197;000.068;63;000.320;MIDI 01
109.186;000.083;61;000.352;MIDI 01
108.094;001.287;71;000.484;MIDI 01
108.080;001.370;83;000.594;MIDI 01
109.353;000.145;64;000.383;MIDI 01
109.356;000.145;62;000.320;MIDI 01
109.526;000.050;65;000.359;MIDI 01
109.537;000.067;63;000.359;MIDI 01
109.570;000.040;61;000.188;MIDI 01
109.719;000.050;50;000.492;MIDI 01
109.765;000.216;64;000.281;MIDI 01
109.945;000.062;73;000.508;MIDI 01
109.938;000.076;85;000.539;MIDI 01
109.993;000.040;87;000.617;MIDI 01
109.985;000.121;65;000.336;MIDI 01
109.998;000.173;61;000.328;MIDI 01
109.995;000.210;63;000.344;MIDI 01
110.244;000.233;64;000.336;MIDI 01
110.242;000.271;62;000.281;MIDI 01
110.485;000.049;73;000.492;MIDI 01
110.473;000.074;87;000.609;MIDI 01
110.527;000.048;85;000.438;MIDI 01
110.521;000.104;65;000.312;MIDI 01
110.517;000.217;63;000.344;MIDI 01
110.510;000.252;61;000.320;MIDI 01
110.743;000.061;85;000.562;MIDI 01
110.756;000.053;73;000.445;MIDI 01
110.781;000.041;87;000.586;MIDI 01
110.749;000.197;64;000.406;MIDI 01
110.747;000.226;62;000.352;MIDI 01
110.985;000.030;73;000.438;MIDI 01
110.953;000.067;87;000.688;MIDI 01
110.998;000.041;85;000.484;MIDI 01
110.983;000.086;65;000.414;MIDI 01
110.987;000.167;63;000.414;MIDI 01
111.135;000.031;73;000.398;MIDI 01
110.973;000.200;61;000.352;MIDI 01
111.102;000.080;85;000.617;MIDI 01
111.146;000.038;84;000.555;MIDI 01
111.138;000.067;83;000.523;MIDI 01
111.153;000.246;64;000.492;MIDI 01
111.151;000.282;62;000.422;MIDI 01
111.412;000.061;83;000.555;MIDI 01
111.451;000.073;65;000.336;MIDI 01
111.443;000.093;63;000.359;MIDI 01
111.424;000.130;61;000.375;MIDI 01
111.482;000.112;85;000.609;MIDI 01
111.585;000.094;83;000.508;MIDI 01
111.650;000.083;81;000.594;MIDI 01
111.711;000.038;80;000.562;MIDI 01
111.593;000.204;64;000.445;MIDI 01
111.595;000.218;62;000.320;MIDI 01
111.814;000.103;65;000.422;MIDI 01
111.807;000.158;61;000.422;MIDI 01
111.817;000.152;63;000.422;MIDI 01
112.016;000.092;62;000.375;MIDI 01
112.018;000.092;64;000.430;MIDI 01
112.216;000.031;65;000.375;MIDI 01
112.223;000.043;63;000.383;MIDI 01
112.371;000.044;52;000.547;MIDI 01
112.388;000.179;64;000.391;MIDI 01
112.373;000.203;62;000.289;MIDI 01
112.570;000.120;65;000.398;MIDI 01
112.608;000.089;61;000.281;MIDI 01
112.593;000.106;63;000.281;MIDI 01
112.758;000.159;64;000.445;MIDI 01
112.756;000.164;62;000.391;MIDI 01
112.944;000.076;61;000.344;MIDI 01
112.938;000.085;63;000.320;MIDI 01
112.946;000.083;65;000.328;MIDI 01
113.117;000.126;64;000.312;MIDI 01
113.234;000.061;65;000.406;MIDI 01
113.255;000.058;63;000.344;MIDI 01
113.280;000.051;61;000.133;MIDI 01
111.854;001.499;66;000.562;MIDI 01
111.832;001.543;78;000.586;MIDI 01
113.121;000.286;62;000.195;MIDI 01
113.424;000.045;50;000.500;MIDI 01
113.441;000.177;62;000.164;MIDI 01
113.622;000.062;62;000.055;MIDI 01
113.455;000.234;64;000.367;MIDI 01
113.648;000.058;66;000.477;MIDI 01
113.638;000.077;78;000.586;MIDI 01
113.694;000.055;76;000.547;MIDI 01
113.673;000.136;65;000.352;MIDI 01
113.683;000.127;63;000.336;MIDI 01
113.671;000.148;61;000.406;MIDI 01
113.886;000.048;76;000.609;MIDI 01
113.923;000.056;78;000.617;MIDI 01
113.884;000.208;64;000.430;MIDI 01
113.877;000.256;62;000.430;MIDI 01
114.133;000.077;65;000.305;MIDI 01
114.131;000.098;63;000.336;MIDI 01
114.130;000.154;61;000.359;MIDI 01
114.347;000.059;80;000.586;MIDI 01
114.369;000.044;68;000.477;MIDI 01
114.404;000.050;78;000.508;MIDI 01
114.342;000.222;64;000.352;MIDI 01
114.338;000.236;62;000.344;MIDI 01
114.556;000.031;66;000.305;MIDI 01
114.567;000.088;65;000.352;MIDI 01
114.568;000.121;63;000.367;MIDI 01
114.531;000.181;78;000.594;MIDI 01
114.588;000.126;76;000.547;MIDI 01
114.570;000.145;61;000.352;MIDI 01
114.684;000.092;74;000.500;MIDI 01
114.719;000.118;73;000.547;MIDI 01
114.832;000.166;71;000.523;MIDI 01
114.753;000.254;64;000.352;MIDI 01
114.758;000.263;62;000.312;MIDI 01
115.089;000.095;65;000.039;MIDI 01
115.059;000.155;63;000.273;MIDI 01
115.050;000.207;61;000.305;MIDI 01
115.283;000.218;62;000.219;MIDI 01
115.279;000.233;64;000.281;MIDI 01
115.511;000.077;65;000.281;MIDI 01
115.514;000.098;63;000.305;MIDI 01
115.524;000.090;61;000.242;MIDI 01
115.890;000.035;63;000.383;MIDI 01
115.685;000.242;64;000.352;MIDI 01
115.893;000.036;65;000.289;MIDI 01
115.688;000.250;62;000.297;MIDI 01
115.926;000.065;61;000.062;MIDI 01
116.091;000.053;62;000.180;MIDI 01
116.106;000.039;64;000.344;MIDI 01
116.088;000.059;52;000.328;MIDI 01
116.306;000.051;63;000.234;MIDI 01
116.286;000.077;65;000.328;MIDI 01
116.460;000.048;64;000.359;MIDI 01
116.458;000.055;62;000.352;MIDI 01
116.455;000.060;50;000.312;MIDI 01
116.449;000.073;52;000.414;MIDI 01
116.659;000.048;61;000.375;MIDI 01
116.670;000.045;63;000.367;MIDI 01
116.667;000.060;65;000.359;MIDI 01
116.833;000.034;64;000.453;MIDI 01
116.829;000.042;62;000.398;MIDI 01
116.836;000.044;50;000.305;MIDI 01
116.823;000.071;52;000.461;MIDI 01
117.017;000.044;61;000.445;MIDI 01
117.036;000.036;63;000.375;MIDI 01
117.019;000.078;65;000.492;MIDI 01
117.189;000.029;64;000.531;MIDI 01
117.184;000.035;62;000.461;MIDI 01
117.191;000.068;50;000.406;MIDI 01
117.196;000.069;52;000.461;MIDI 01
117.365;000.057;59;000.516;MIDI 01
117.354;000.074;61;000.547;MIDI 01
117.371;000.059;63;000.500;MIDI 01
117.374;000.069;65;000.500;MIDI 01
117.551;000.040;64;000.578;MIDI 01
117.543;000.054;62;000.516;MIDI 01
117.562;000.042;50;000.375;MIDI 01
117.549;000.077;52;000.500;MIDI 01
117.717;000.042;61;000.516;MIDI 01
117.705;000.054;59;000.594;MIDI 01
117.715;000.068;63;000.508;MIDI 01
117.703;000.090;65;000.578;MIDI 01
117.885;000.056;62;000.562;MIDI 01
117.894;000.053;64;000.594;MIDI 01
117.897;000.055;50;000.469;MIDI 01
117.882;000.083;52;000.594;MIDI 01
118.045;000.037;59;000.578;MIDI 01
118.049;000.035;61;000.531;MIDI 01
118.055;000.049;65;000.484;MIDI 01
118.047;000.066;63;000.570;MIDI 01
115.482;002.673;71;000.477;MIDI 01
118.188;000.034;50;000.461;MIDI 01
118.176;000.054;52;000.547;MIDI 01
118.206;000.064;64;000.461;MIDI 01
118.185;000.128;62;000.547;MIDI 01
118.402;000.026;71;000.508;MIDI 01
118.378;000.052;63;000.656;MIDI 01
118.398;000.047;65;000.570;MIDI 01
118.386;000.064;67;000.586;MIDI 01
118.384;000.072;73;000.617;MIDI 01
118.389;000.082;77;000.609;MIDI 01
118.391;000.090;75;000.609;MIDI 01
118.543;000.032;51;000.609;MIDI 01
118.554;000.032;50;000.469;MIDI 01
118.536;000.071;62;000.672;MIDI 01
118.544;000.079;64;000.695;MIDI 01
118.595;000.046;52;000.344;MIDI 01
118.731;000.019;69;000.648;MIDI 01
118.707;000.052;63;000.711;MIDI 01
118.714;000.072;71;000.633;MIDI 01
118.729;000.066;65;000.594;MIDI 01
118.709;000.092;67;000.641;MIDI 01
118.716;000.095;73;000.641;MIDI 01
118.727;000.094;75;000.609;MIDI 01
118.718;000.105;77;000.656;MIDI 01
118.888;000.032;50;000.609;MIDI 01
118.893;000.067;52;000.648;MIDI 01
118.895;000.076;64;000.727;MIDI 01
118.885;000.087;62;000.719;MIDI 01
119.043;000.035;77;000.695;MIDI 01
119.060;000.023;69;000.586;MIDI 01
119.052;000.034;71;000.617;MIDI 01
119.058;000.032;63;000.711;MIDI 01
119.039;000.057;67;000.727;MIDI 01
119.050;000.049;65;000.680;MIDI 01
119.045;000.054;73;000.703;MIDI 01
119.047;000.056;75;000.703;MIDI 01
119.939;000.030;54;000.461;MIDI 01
120.097;000.036;54;000.508;MIDI 01
120.255;000.057;54;000.547;MIDI 01
120.415;000.040;52;000.539;MIDI 01
120.557;000.048;49;000.531;MIDI 01
120.702;000.046;47;000.484;MIDI 01
120.871;000.039;49;000.492;MIDI 01
120.885;000.029;45;000.445;MIDI 01
121.011;000.039;45;000.531;MIDI 01
121.177;000.026;49;000.508;MIDI 01
121.323;000.029;51;000.500;MIDI 01
121.479;000.069;52;000.570;MIDI 01
121.626;000.036;47;000.422;MIDI 01
121.624;000.046;44;000.445;MIDI 01
121.636;000.057;39;000.375;MIDI 01
121.779;000.043;54;000.531;MIDI 01
121.777;000.047;66;000.555;MIDI 01
121.942;000.045;54;000.477;MIDI 01
121.940;000.049;66;000.430;MIDI 01
122.084;000.039;54;000.547;MIDI 01
122.085;000.042;66;000.531;MIDI 01
122.250;000.031;64;000.570;MIDI 01
122.241;000.042;52;000.602;MIDI 01
122.398;000.027;49;000.594;MIDI 01
122.402;000.035;61;000.609;MIDI 01
122.560;000.032;59;000.555;MIDI 01
122.586;000.044;37;000.422;MIDI 01
122.591;000.040;45;000.406;MIDI 01
122.600;000.032;40;000.414;MIDI 01
122.655;000.079;52;000.656;MIDI 01
122.781;000.040;45;000.516;MIDI 01
122.800;000.041;57;000.539;MIDI 01
122.948;000.036;49;000.531;MIDI 01
122.946;000.060;61;000.578;MIDI 01
123.074;000.046;51;000.570;MIDI 01
123.115;000.034;63;000.312;MIDI 01
123.126;000.041;61;000.195;MIDI 01
123.241;000.064;52;000.555;MIDI 01
123.229;000.172;64;000.695;MIDI 01
123.370;000.045;44;000.586;MIDI 01
123.390;000.036;39;000.492;MIDI 01
123.398;000.041;35;000.430;MIDI 01
123.385;000.055;59;000.500;MIDI 01
123.392;000.075;63;000.555;MIDI 01
123.541;000.100;52;000.719;MIDI 01
123.539;000.157;64;000.727;MIDI 01
123.692;000.034;44;000.531;MIDI 01
123.709;000.029;59;000.398;MIDI 01
123.696;000.045;63;000.633;MIDI 01
123.694;000.049;39;000.492;MIDI 01
123.688;000.070;35;000.453;MIDI 01
123.889;000.047;66;000.664;MIDI 01
123.891;000.077;78;000.703;MIDI 01
124.053;000.028;80;000.680;MIDI 01
124.047;000.039;68;000.695;MIDI 01
124.198;000.042;78;000.695;MIDI 01
124.200;000.042;66;000.680;MIDI 01
124.353;000.027;76;000.703;MIDI 01
124.349;000.035;64;000.672;MIDI 01
124.505;000.041;73;000.633;MIDI 01
124.500;000.072;61;000.680;MIDI 01
124.664;000.068;59;000.703;MIDI 01
124.658;000.139;71;000.719;MIDI 01
124.770;000.046;45;000.570;MIDI 01
124.783;000.046;33;000.500;MIDI 01
124.797;000.043;40;000.508;MIDI 01
124.801;000.041;61;000.594;MIDI 01
124.795;000.052;37;000.516;MIDI 01
124.805;000.074;64;000.570;MIDI 01
124.938;000.041;69;000.633;MIDI 01
124.941;000.040;57;000.609;MIDI 01
125.092;000.040;61;000.578;MIDI 01
125.088;000.057;73;000.633;MIDI 01
125.242;000.040;63;000.562;MIDI 01
125.243;000.041;75;000.570;MIDI 01
125.495;000.036;44;000.555;MIDI 01
125.509;000.043;39;000.508;MIDI 01
125.395;000.169;76;000.711;MIDI 01
125.397;000.177;64;000.656;MIDI 01
125.523;000.053;35;000.359;MIDI 01
125.556;000.073;32;000.078;MIDI 01
125.562;000.079;75;000.602;MIDI 01
125.570;000.074;71;000.539;MIDI 01
125.717;000.078;64;000.719;MIDI 01
125.709;000.181;76;000.773;MIDI 01
125.842;000.068;44;000.719;MIDI 01
125.871;000.047;32;000.484;MIDI 01
125.853;000.082;39;000.648;MIDI 01
125.861;000.081;35;000.531;MIDI 01
125.875;000.071;71;000.664;MIDI 01
125.873;000.089;75;000.734;MIDI 01
125.918;000.057;65;000.109;MIDI 01
126.021;000.196;64;000.719;MIDI 01
126.023;000.215;76;000.805;MIDI 01
126.184;000.055;39;000.656;MIDI 01
126.204;000.045;35;000.492;MIDI 01
126.182;000.070;44;000.688;MIDI 01
126.190;000.066;71;000.680;MIDI 01
126.210;000.046;32;000.438;MIDI 01
126.201;000.074;75;000.664;MIDI 01
126.530;000.050;75;000.758;MIDI 01
126.528;000.060;87;000.773;MIDI 01
126.532;000.117;63;000.719;MIDI 01
126.745;000.053;73;000.719;MIDI 01
126.747;000.062;85;000.719;MIDI 01
126.764;000.072;61;000.570;MIDI 01
126.938;000.025;71;000.594;MIDI 01
126.935;000.029;83;000.656;MIDI 01
126.915;000.159;59;000.602;MIDI 01
127.090;000.017;71;000.375;MIDI 01
127.077;000.031;82;000.609;MIDI 01
127.093;000.036;73;000.406;MIDI 01
127.074;000.121;58;000.633;MIDI 01
127.242;000.031;66;000.672;MIDI 01
127.241;000.045;78;000.648;MIDI 01
127.234;000.097;54;000.625;MIDI 01
127.382;000.042;56;000.727;MIDI 01
127.393;000.043;80;000.734;MIDI 01
127.399;000.054;68;000.711;MIDI 01
127.558;000.042;49;000.742;MIDI 01
127.564;000.043;37;000.719;MIDI 01
127.578;000.037;61;000.734;MIDI 01
127.581;000.036;73;000.711;MIDI 01
127.742;000.023;37;000.023;MIDI 01
127.744;000.023;51;000.758;MIDI 01
127.753;000.030;39;000.664;MIDI 01
127.749;000.037;75;000.719;MIDI 01
127.746;000.066;63;000.703;MIDI 01
127.802;000.034;49;000.195;MIDI 01
127.928;000.038;40;000.727;MIDI 01
127.931;000.038;76;000.773;MIDI 01
127.920;000.052;52;000.750;MIDI 01
127.930;000.043;64;000.742;MIDI 01
128.110;000.027;47;000.727;MIDI 01
128.155;000.002;60;000.188;MIDI 01
128.111;000.050;35;000.727;MIDI 01
128.114;000.050;71;000.734;MIDI 01
128.116;000.050;59;000.695;MIDI 01
128.387;000.031;42;000.766;MIDI 01
128.425;000.002;63;000.469;MIDI 01
128.393;000.036;30;000.734;MIDI 01
128.396;000.050;54;000.781;MIDI 01
128.403;000.068;66;000.773;MIDI 01
128.993;000.057;97;000.742;MIDI 01
128.991;000.065;85;000.703;MIDI 01
129.202;000.054;83;000.641;MIDI 01
129.200;000.058;95;000.719;MIDI 01
129.373;000.030;93;000.664;MIDI 01
129.371;000.033;81;000.648;MIDI 01
129.524;000.036;95;000.758;MIDI 01
129.542;000.026;83;000.625;MIDI 01
129.701;000.017;88;000.539;MIDI 01
129.697;000.023;76;000.672;MIDI 01
129.719;000.029;86;000.406;MIDI 01
129.848;000.077;73;000.672;MIDI 01
130.010;000.061;71;000.625;MIDI 01
130.168;000.059;69;000.633;MIDI 01
130.310;000.094;68;000.641;MIDI 01
130.458;000.043;64;000.586;MIDI 01
128.956;001.694;54;000.844;MIDI 01
130.614;000.215;60;000.555;MIDI 01
130.770;000.118;59;000.547;MIDI 01
130.607;000.316;63;000.562;MIDI 01
130.905;000.040;57;000.570;MIDI 01
128.963;002.100;42;000.734;MIDI 01
131.082;000.074;49;000.469;MIDI 01
131.067;000.159;56;000.516;MIDI 01
131.255;000.032;47;000.305;MIDI 01
131.230;000.068;52;000.555;MIDI 01
131.375;000.053;45;000.484;MIDI 01
131.530;000.062;44;000.547;MIDI 01
131.717;000.069;40;000.508;MIDI 01
131.058;000.925;63;000.578;MIDI 01
131.982;000.454;38;000.477;MIDI 01
132.662;000.266;60;000.336;MIDI 01
132.926;000.191;62;000.352;MIDI 01
132.660;000.549;38;000.344;MIDI 01
133.098;000.254;60;000.430;MIDI 01
133.285;000.254;62;000.500;MIDI 01
133.445;000.201;64;000.539;MIDI 01
133.607;000.219;65;000.523;MIDI 01
134.022;000.117;53;000.266;MIDI 01
133.997;000.155;55;000.320;MIDI 01
133.802;000.367;67;000.477;MIDI 01
134.027;000.154;48;000.219;MIDI 01
134.031;000.169;50;000.234;MIDI 01
134.186;000.331;65;000.430;MIDI 01
134.404;000.185;67;000.430;MIDI 01
134.571;000.174;69;000.531;MIDI 01
134.395;000.486;50;000.266;MIDI 01
134.391;000.508;48;000.305;MIDI 01
134.397;000.514;55;000.305;MIDI 01
134.393;000.522;53;000.242;MIDI 01
134.742;000.228;70;000.570;MIDI 01
134.899;000.211;65;000.547;MIDI 01
135.097;000.318;67;000.508;MIDI 01
135.292;000.144;48;000.336;MIDI 01
135.308;000.166;46;000.312;MIDI 01
135.318;000.170;53;000.211;MIDI 01
135.316;000.197;55;000.266;MIDI 01
135.477;000.049;60;000.406;MIDI 01
135.474;000.118;72;000.469;MIDI 01
135.673;000.019;74;000.461;MIDI 01
135.680;000.030;62;000.398;MIDI 01
135.817;000.055;60;000.523;MIDI 01
135.822;000.068;72;000.547;MIDI 01
135.992;000.054;62;000.547;MIDI 01
135.989;000.071;74;000.617;MIDI 01
136.152;000.039;64;000.570;MIDI 01
136.181;000.019;74;000.508;MIDI 01
136.167;000.045;76;000.500;MIDI 01
136.317;000.048;65;000.617;MIDI 01
136.316;000.071;77;000.672;MIDI 01
135.686;000.715;48;000.344;MIDI 01
135.682;000.748;46;000.391;MIDI 01
135.699;000.845;53;000.312;MIDI 01
135.701;000.849;55;000.266;MIDI 01
136.494;000.219;67;000.625;MIDI 01
136.492;000.277;79;000.688;MIDI 01
136.703;000.180;53;000.391;MIDI 01
136.700;000.190;55;000.406;MIDI 01
136.689;000.220;45;000.422;MIDI 01
136.670;000.241;46;000.391;MIDI 01
136.844;000.069;65;000.531;MIDI 01
136.852;000.131;77;000.531;MIDI 01
137.051;000.042;67;000.578;MIDI 01
137.046;000.068;79;000.625;MIDI 01
137.214;000.059;69;000.664;MIDI 01
137.211;000.067;81;000.695;MIDI 01
137.070;000.215;55;000.406;MIDI 01
137.070;000.223;53;000.406;MIDI 01
137.061;000.271;45;000.492;MIDI 01
137.053;000.300;46;000.461;MIDI 01
137.383;000.042;70;000.641;MIDI 01
137.381;000.084;82;000.656;MIDI 01
137.547;000.037;84;000.719;MIDI 01
137.556;000.030;72;000.664;MIDI 01
137.741;000.418;36;000.422;MIDI 01
137.919;000.272;38;000.453;MIDI 01
138.100;000.197;40;000.500;MIDI 01
138.275;000.075;66;000.586;MIDI 01
138.272;000.130;41;000.523;MIDI 01
138.439;000.045;64;000.539;MIDI 01
138.435;000.203;43;000.453;MIDI 01
138.599;000.049;62;000.555;MIDI 01
138.778;000.047;60;000.500;MIDI 01
138.614;000.217;38;000.375;MIDI 01
138.922;000.093;59;000.500;MIDI 01
139.077;000.077;57;000.523;MIDI 01
139.244;000.211;45;000.531;MIDI 01
139.103;000.357;43;000.445;MIDI 01
139.416;000.153;47;000.539;MIDI 01
139.567;000.039;73;000.648;MIDI 01
139.564;000.060;85;000.672;MIDI 01
139.569;000.158;48;000.609;MIDI 01
139.720;000.033;71;000.625;MIDI 01
139.718;000.056;83;000.672;MIDI 01
139.883;000.039;69;000.578;MIDI 01
139.885;000.039;81;000.617;MIDI 01
139.716;000.222;50;000.570;MIDI 01
140.048;000.033;79;000.609;MIDI 01
140.053;000.031;67;000.555;MIDI 01
139.879;000.207;45;000.586;MIDI 01
140.213;000.039;66;000.609;MIDI 01
140.207;000.059;78;000.602;MIDI 01
140.418;000.025;74;000.422;MIDI 01
140.374;000.104;64;000.570;MIDI 01
140.379;000.167;76;000.633;MIDI 01
140.366;000.347;50;000.555;MIDI 01
140.517;000.208;52;000.586;MIDI 01
140.666;000.170;54;000.648;MIDI 01
140.828;000.048;80;000.711;MIDI 01
140.824;000.057;92;000.734;MIDI 01
140.822;000.189;55;000.688;MIDI 01
140.980;000.061;78;000.695;MIDI 01
140.984;000.059;90;000.719;MIDI 01
140.977;000.181;57;000.695;MIDI 01
141.156;000.032;76;000.680;MIDI 01
141.158;000.046;88;000.695;MIDI 01
141.139;000.169;52;000.672;MIDI 01
141.320;000.049;74;000.672;MIDI 01
141.318;000.057;86;000.703;MIDI 01
141.461;000.094;73;000.703;MIDI 01
141.458;000.128;85;000.672;MIDI 01
141.629;000.061;69;000.711;MIDI 01
141.632;000.061;57;000.664;MIDI 01
141.816;000.039;67;000.602;MIDI 01
141.818;000.041;55;000.555;MIDI 01
141.967;000.046;66;000.625;MIDI 01
141.975;000.051;54;000.523;MIDI 01
142.130;000.052;64;000.695;MIDI 01
142.124;000.060;80;000.727;MIDI 01
142.128;000.059;68;000.680;MIDI 01
142.132;000.062;52;000.664;MIDI 01
142.298;000.036;62;000.711;MIDI 01
142.306;000.035;66;000.641;MIDI 01
142.309;000.034;78;000.617;MIDI 01
142.304;000.059;50;000.648;MIDI 01
142.474;000.040;76;000.617;MIDI 01
142.472;000.048;64;000.578;MIDI 01
142.639;000.050;62;000.578;MIDI 01
142.633;000.059;74;000.633;MIDI 01
142.794;000.060;61;000.727;MIDI 01
142.796;000.150;73;000.695;MIDI 01
142.963;000.162;57;000.805;MIDI 01
143.139;000.119;55;000.617;MIDI 01
143.273;000.087;54;000.633;MIDI 01
143.461;000.097;78;000.773;MIDI 01
143.464;000.101;90;000.789;MIDI 01
143.469;000.102;64;000.688;MIDI 01
143.471;000.118;52;000.688;MIDI 01
143.740;000.046;88;000.539;MIDI 01
143.738;000.060;76;000.539;MIDI 01
143.735;000.091;62;000.539;MIDI 01
143.734;000.097;50;000.516;MIDI 01
143.940;000.066;86;000.680;MIDI 01
143.944;000.064;74;000.648;MIDI 01
143.954;000.080;60;000.656;MIDI 01
143.957;000.088;48;000.625;MIDI 01
144.126;000.060;73;000.727;MIDI 01
144.128;000.059;85;000.727;MIDI 01
144.128;000.070;59;000.680;MIDI 01
144.129;000.077;47;000.680;MIDI 01
144.295;000.059;83;000.773;MIDI 01
144.297;000.059;71;000.734;MIDI 01
144.292;000.089;57;000.711;MIDI 01
144.293;000.090;45;000.742;MIDI 01
144.526;000.002;51;000.320;MIDI 01
144.486;000.044;69;000.750;MIDI 01
144.489;000.044;74;000.750;MIDI 01
144.485;000.058;55;000.758;MIDI 01
144.493;000.064;52;000.672;MIDI 01
144.493;000.067;81;000.758;MIDI 01
144.491;000.072;78;000.727;MIDI 01
144.495;000.071;80;000.734;MIDI 01
144.489;000.079;48;000.664;MIDI 01
144.495;000.092;46;000.688;MIDI 01
144.497;000.095;43;000.656;MIDI 01
144.845;000.018;88;000.727;MIDI 01
144.867;000.002;47;000.422;MIDI 01
144.832;000.039;98;000.633;MIDI 01
144.833;000.040;36;000.695;MIDI 01
144.850;000.027;96;000.516;MIDI 01
144.828;000.051;38;000.688;MIDI 01
144.830;000.051;48;000.711;MIDI 01
144.838;000.055;86;000.805;MIDI 01
144.835;000.067;50;000.703;MIDI 01
144.871;000.033;97;000.469;MIDI 01
144.991;000.024;88;000.023;MIDI 01
145.031;000.024;69;000.844;MIDI 01
145.040;000.022;78;000.672;MIDI 01
145.042;000.023;49;000.570;MIDI 01
145.044;000.025;52;000.703;MIDI 01
145.050;000.021;55;000.656;MIDI 01
145.070;000.002;72;000.430;MIDI 01
145.029;000.044;57;000.688;MIDI 01
145.046;000.029;73;000.641;MIDI 01
145.083;000.004;74;000.117;MIDI 01
145.037;000.050;81;000.719;MIDI 01
145.056;000.033;77;000.500;MIDI 01
145.066;000.026;79;000.516;MIDI 01
145.061;000.031;48;000.508;MIDI 01
145.048;000.047;46;000.664;MIDI 01
145.068;000.034;43;000.547;MIDI 01
145.078;000.044;45;000.445;MIDI 01
145.164;000.034;52;000.062;MIDI 01
145.159;000.046;73;000.180;MIDI 01
145.333;000.014;100;000.742;MIDI 01
145.340;000.016;88;000.648;MIDI 01
145.330;000.042;98;000.727;MIDI 01
145.354;000.020;48;000.656;MIDI 01
145.353;000.025;36;000.625;MIDI 01
145.347;000.033;50;000.633;MIDI 01
145.355;000.031;97;000.398;MIDI 01
145.341;000.048;86;000.727;MIDI 01
145.359;000.033;38;000.477;MIDI 01
145.505;000.035;57;000.719;MIDI 01
145.537;000.003;74;000.625;MIDI 01
145.510;000.032;52;000.656;MIDI 01
145.515;000.032;55;000.609;MIDI 01
145.523;000.030;43;000.570;MIDI 01
145.517;000.039;75;000.648;MIDI 01
145.535;000.023;71;000.562;MIDI 01
145.531;000.029;69;000.695;MIDI 01
145.553;000.008;83;000.469;MIDI 01
145.529;000.033;78;000.688;MIDI 01
145.533;000.033;46;000.453;MIDI 01
145.547;000.022;81;000.523;MIDI 01
145.527;000.066;80;000.711;MIDI 01
145.626;000.053;57;000.266;MIDI 01
145.756;000.026;87;000.328;MIDI 01
145.796;000.094;85;000.031;MIDI 01
145.928;000.071;73;000.531;MIDI 01
145.899;000.200;87;000.594;MIDI 01
145.889;000.219;75;000.625;MIDI 01
145.908;000.225;85;000.477;MIDI 01
146.074;000.068;32;000.586;MIDI 01
146.003;000.141;73;000.289;MIDI 01
146.076;000.109;46;000.617;MIDI 01
146.223;000.030;75;000.594;MIDI 01
146.229;000.031;87;000.688;MIDI 01
146.250;000.029;73;000.539;MIDI 01
146.228;000.060;85;000.539;MIDI 01
146.391;000.031;75;000.492;MIDI 01
146.402;000.025;87;000.484;MIDI 01
146.385;000.047;73;000.648;MIDI 01
146.423;000.018;85;000.391;MIDI 01
146.559;000.103;66;000.648;MIDI 01
146.557;000.123;68;000.625;MIDI 01
146.714;000.016;67;000.695;MIDI 01
146.716;000.084;53;000.633;MIDI 01
146.764;000.037;55;000.320;MIDI 01
146.887;000.042;68;000.352;MIDI 01
147.040;000.077;66;000.531;MIDI 01
147.028;000.096;68;000.523;MIDI 01
147.214;000.016;74;000.750;MIDI 01
147.204;000.040;52;000.625;MIDI 01
147.198;000.052;55;000.664;MIDI 01
147.216;000.041;48;000.586;MIDI 01
147.220;000.039;69;000.578;MIDI 01
147.227;000.036;80;000.492;MIDI 01
147.233;000.032;83;000.430;MIDI 01
147.220;000.056;77;000.633;MIDI 01
147.244;000.034;71;000.406;MIDI 01
147.206;000.084;46;000.594;MIDI 01
147.210;000.084;43;000.594;MIDI 01
147.272;000.056;78;000.117;MIDI 01
147.511;000.010;98;000.773;MIDI 01
147.501;000.023;48;000.695;MIDI 01
147.514;000.012;96;000.758;MIDI 01
147.509;000.019;50;000.680;MIDI 01
147.507;000.026;38;000.672;MIDI 01
147.516;000.021;36;000.625;MIDI 01
147.519;000.020;84;000.711;MIDI 01
147.517;000.024;86;000.703;MIDI 01
147.551;000.036;47;000.195;MIDI 01
147.624;000.046;50;000.180;MIDI 01
147.681;000.054;36;000.016;MIDI 01
147.841;000.018;75;000.734;MIDI 01
147.849;000.023;87;000.609;MIDI 01
147.830;000.043;46;000.758;MIDI 01
147.871;000.002;80;000.398;MIDI 01
147.847;000.034;32;000.500;MIDI 01
147.858;000.027;73;000.633;MIDI 01
147.896;000.002;82;000.109;MIDI 01
147.843;000.055;85;000.695;MIDI 01
147.902;000.065;34;000.133;MIDI 01
147.942;000.035;75;000.227;MIDI 01
148.174;000.034;67;000.602;MIDI 01
148.167;000.044;66;000.586;MIDI 01
148.160;000.052;68;000.617;MIDI 01
148.178;000.036;65;000.570;MIDI 01
148.172;000.081;53;000.602;MIDI 01
148.314;000.023;66;000.531;MIDI 01
148.320;000.034;68;000.648;MIDI 01
148.532;000.021;75;000.773;MIDI 01
148.536;000.020;87;000.742;MIDI 01
148.535;000.035;43;000.758;MIDI 01
148.546;000.027;85;000.633;MIDI 01
148.534;000.041;29;000.648;MIDI 01
148.579;000.002;80;000.359;MIDI 01
148.548;000.035;73;000.719;MIDI 01
148.593;000.072;31;000.227;MIDI 01
148.722;000.030;66;000.570;MIDI 01
148.724;000.034;68;000.594;MIDI 01
148.853;000.028;66;000.570;MIDI 01
148.860;000.033;53;000.570;MIDI 01
148.857;000.041;68;000.547;MIDI 01
148.889;000.042;67;000.344;MIDI 01
148.891;000.054;65;000.242;MIDI 01
149.044;000.002;65;000.453;MIDI 01
149.015;000.032;67;000.625;MIDI 01
149.008;000.050;53;000.539;MIDI 01
149.181;000.044;66;000.625;MIDI 01
149.183;000.048;68;000.602;MIDI 01
149.177;000.056;53;000.672;MIDI 01
149.175;000.060;67;000.734;MIDI 01
149.352;000.036;66;000.547;MIDI 01
149.354;000.037;68;000.570;MIDI 01
149.503;000.034;67;000.539;MIDI 01
149.511;000.033;53;000.406;MIDI 01
149.509;000.037;66;000.438;MIDI 01
149.501;000.057;68;000.391;MIDI 01
149.676;000.039;53;000.531;MIDI 01
149.672;000.046;67;000.594;MIDI 01
149.847;000.039;66;000.484;MIDI 01
149.841;000.051;67;000.609;MIDI 01
149.839;000.056;68;000.508;MIDI 01
149.845;000.054;53;000.531;MIDI 01
150.011;000.045;68;000.508;MIDI 01
150.014;000.045;66;000.469;MIDI 01
150.192;000.037;65;000.375;MIDI 01
150.189;000.044;67;000.375;MIDI 01
150.193;000.042;53;000.344;MIDI 01
150.195;000.045;55;000.328;MIDI 01
150.204;000.038;68;000.375;MIDI 01
150.216;000.040;66;000.258;MIDI 01
150.357;000.049;53;000.422;MIDI 01
150.353;000.055;65;000.445;MIDI 01
150.344;000.065;67;000.469;MIDI 01
150.360;000.050;55;000.422;MIDI 01
150.531;000.040;68;000.500;MIDI 01
150.533;000.045;65;000.383;MIDI 01
150.527;000.053;67;000.523;MIDI 01
150.529;000.053;53;000.445;MIDI 01
150.530;000.054;55;000.422;MIDI 01
150.545;000.044;66;000.367;MIDI 01
150.689;000.050;65;000.430;MIDI 01
150.685;000.055;67;000.539;MIDI 01
150.691;000.059;53;000.461;MIDI 01
150.699;000.053;55;000.430;MIDI 01
150.847;000.042;66;000.562;MIDI 01
150.842;000.061;68;000.562;MIDI 01
150.856;000.049;65;000.477;MIDI 01
150.854;000.053;67;000.594;MIDI 01
150.852;000.058;53;000.508;MIDI 01
150.858;000.054;55;000.508;MIDI 01
151.019;000.050;65;000.484;MIDI 01
151.021;000.050;67;000.609;MIDI 01
151.031;000.043;55;000.508;MIDI 01
151.028;000.048;53;000.492;MIDI 01
151.168;000.033;66;000.594;MIDI 01
151.164;000.054;68;000.602;MIDI 01
151.175;000.051;53;000.531;MIDI 01
151.177;000.051;55;000.523;MIDI 01
151.171;000.059;65;000.461;MIDI 01
151.173;000.059;67;000.617;MIDI 01
151.333;000.059;65;000.555;MIDI 01
151.340;000.055;55;000.547;MIDI 01
151.335;000.062;67;000.625;MIDI 01
151.332;000.068;53;000.547;MIDI 01
151.488;000.058;66;000.648;MIDI 01
151.485;000.062;68;000.633;MIDI 01
151.497;000.054;65;000.625;MIDI 01
151.502;000.051;67;000.664;MIDI 01
151.506;000.052;55;000.562;MIDI 01
151.496;000.070;53;000.555;MIDI 01
151.658;000.051;65;000.602;MIDI 01
151.659;000.056;67;000.664;MIDI 01
151.672;000.046;55;000.555;MIDI 01
151.655;000.070;53;000.547;MIDI 01
151.832;000.031;66;000.539;MIDI 01
151.838;000.041;65;000.492;MIDI 01
151.841;000.040;67;000.586;MIDI 01
151.820;000.062;68;000.531;MIDI 01
151.830;000.054;53;000.484;MIDI 01
151.835;000.051;55;000.492;MIDI 01
151.994;000.045;65;000.484;MIDI 01
151.988;000.053;67;000.539;MIDI 01
151.992;000.052;53;000.438;MIDI 01
151.991;000.057;55;000.445;MIDI 01
152.150;000.048;66;000.477;MIDI 01
152.154;000.055;68;000.453;MIDI 01
152.168;000.047;65;000.484;MIDI 01
152.164;000.053;53;000.453;MIDI 01
152.171;000.048;55;000.430;MIDI 01
152.161;000.058;67;000.547;MIDI 01
152.341;000.046;53;000.430;MIDI 01
152.343;000.046;65;000.414;MIDI 01
152.338;000.053;67;000.547;MIDI 01
152.349;000.044;55;000.398;MIDI 01
152.509;000.034;66;000.391;MIDI 01
152.503;000.048;68;000.438;MIDI 01
152.507;000.059;53;000.422;MIDI 01
152.521;000.048;55;000.383;MIDI 01
152.515;000.054;67;000.492;MIDI 01
152.519;000.052;65;000.414;MIDI 01
152.691;000.053;65;000.422;MIDI 01
152.693;000.053;67;000.477;MIDI 01
152.707;000.045;53;000.359;MIDI 01
152.709;000.047;55;000.359;MIDI 01
152.858;000.051;66;000.445;MIDI 01
152.860;000.059;68;000.477;MIDI 01
152.880;000.043;65;000.469;MIDI 01
152.875;000.050;67;000.492;MIDI 01
152.877;000.050;53;000.391;MIDI 01
152.887;000.049;55;000.391;MIDI 01
153.073;000.047;53;000.312;MIDI 01
153.067;000.057;65;000.445;MIDI 01
153.075;000.055;55;000.383;MIDI 01
153.064;000.069;67;000.508;MIDI 01
153.266;000.059;81;000.648;MIDI 01
153.274;000.066;66;000.484;MIDI 01
153.279;000.062;53;000.352;MIDI 01
153.317;000.025;79;000.547;MIDI 01
153.286;000.060;68;000.531;MIDI 01
153.277;000.077;55;000.312;MIDI 01
153.312;000.050;56;000.211;MIDI 01
153.488;000.047;65;000.469;MIDI 01
153.461;000.075;81;000.672;MIDI 01
153.476;000.062;53;000.469;MIDI 01
153.485;000.057;67;000.516;MIDI 01
153.504;000.050;55;000.445;MIDI 01
153.543;000.037;79;000.438;MIDI 01
153.666;000.032;66;000.453;MIDI 01
153.649;000.061;81;000.641;MIDI 01
153.671;000.046;55;000.383;MIDI 01
153.643;000.074;68;000.586;MIDI 01
153.690;000.029;79;000.500;MIDI 01
153.647;000.073;53;000.492;MIDI 01
153.688;000.037;56;000.406;MIDI 01
153.833;000.027;67;000.523;MIDI 01
153.826;000.040;65;000.484;MIDI 01
153.807;000.072;79;000.539;MIDI 01
153.827;000.059;53;000.484;MIDI 01
153.861;000.037;55;000.438;MIDI 01
153.878;000.078;78;000.641;MIDI 01
153.978;000.058;66;000.578;MIDI 01
153.995;000.059;55;000.445;MIDI 01
153.989;000.071;68;000.602;MIDI 01
154.041;000.045;56;000.250;MIDI 01
154.002;000.123;79;000.602;MIDI 01
154.084;000.124;76;000.594;MIDI 01
154.167;000.056;67;000.578;MIDI 01
154.165;000.060;65;000.586;MIDI 01
154.162;000.085;53;000.547;MIDI 01
154.169;000.090;74;000.711;MIDI 01
154.197;000.073;55;000.469;MIDI 01
154.347;000.050;66;000.570;MIDI 01
154.351;000.071;68;000.609;MIDI 01
154.341;000.083;53;000.430;MIDI 01
154.514;000.046;81;000.617;MIDI 01
154.543;000.040;53;000.438;MIDI 01
154.541;000.044;65;000.523;MIDI 01
154.536;000.048;67;000.516;MIDI 01
154.581;000.033;55;000.320;MIDI 01
154.584;000.041;83;000.523;MIDI 01
154.708;000.060;66;000.578;MIDI 01
154.706;000.067;53;000.523;MIDI 01
154.728;000.047;55;000.438;MIDI 01
154.710;000.081;68;000.594;MIDI 01
154.724;000.070;56;000.398;MIDI 01
154.726;000.070;83;000.719;MIDI 01
154.836;000.049;81;000.586;MIDI 01
154.879;000.056;67;000.586;MIDI 01
154.881;000.056;65;000.547;MIDI 01
154.885;000.058;53;000.531;MIDI 01
154.929;000.021;83;000.273;MIDI 01
154.900;000.060;55;000.430;MIDI 01
155.014;000.029;80;000.688;MIDI 01
155.053;000.037;65;000.383;MIDI 01
155.033;000.065;55;000.453;MIDI 01
155.047;000.053;67;000.352;MIDI 01
155.022;000.081;53;000.453;MIDI 01
155.083;000.034;79;000.312;MIDI 01
155.209;000.026;77;000.367;MIDI 01
155.217;000.044;65;000.531;MIDI 01
155.213;000.052;67;000.578;MIDI 01
155.216;000.066;53;000.469;MIDI 01
155.176;000.136;79;000.641;MIDI 01
155.235;000.079;55;000.359;MIDI 01
155.271;000.133;76;000.656;MIDI 01
155.377;000.067;66;000.609;MIDI 01
155.376;000.072;68;000.641;MIDI 01
155.404;000.047;53;000.336;MIDI 01
155.430;000.040;54;000.273;MIDI 01
155.373;000.158;74;000.672;MIDI 01
155.387;000.151;55;000.227;MIDI 01
155.408;000.160;56;000.375;MIDI 01
155.559;000.034;55;000.406;MIDI 01
155.548;000.059;53;000.680;MIDI 01
155.746;000.030;53;000.398;MIDI 01
155.738;000.046;54;000.547;MIDI 01
155.744;000.044;55;000.383;MIDI 01
155.735;000.055;56;000.523;MIDI 01
155.773;000.027;71;000.336;MIDI 01
155.736;000.076;69;000.688;MIDI 01
155.839;000.032;67;000.438;MIDI 01
155.911;000.037;68;000.641;MIDI 01
155.917;000.037;53;000.352;MIDI 01
155.922;000.032;54;000.430;MIDI 01
155.901;000.055;55;000.492;MIDI 01
155.899;000.067;56;000.562;MIDI 01
155.966;000.031;67;000.469;MIDI 01
156.015;000.027;66;000.523;MIDI 01
156.082;000.052;53;000.539;MIDI 01
156.080;000.057;55;000.570;MIDI 01
156.103;000.118;65;000.570;MIDI 01
156.100;000.131;67;000.461;MIDI 01
156.200;000.122;64;000.508;MIDI 01
156.277;000.060;53;000.594;MIDI 01
156.279;000.060;55;000.617;MIDI 01
156.294;000.113;62;000.570;MIDI 01
156.353;000.055;50;000.148;MIDI 01
156.477;000.052;53;000.469;MIDI 01
156.492;000.037;55;000.523;MIDI 01
156.510;000.033;54;000.391;MIDI 01
156.508;000.045;56;000.438;MIDI 01
156.645;000.070;71;000.586;MIDI 01
156.681;000.042;55;000.484;MIDI 01
156.669;000.058;53;000.594;MIDI 01
156.713;000.048;69;000.602;MIDI 01
156.856;000.033;53;000.453;MIDI 01
156.829;000.065;69;000.609;MIDI 01
156.858;000.041;54;000.523;MIDI 01
156.855;000.059;56;000.531;MIDI 01
156.894;000.044;55;000.250;MIDI 01
157.027;000.036;67;000.305;MIDI 01
157.025;000.057;53;000.516;MIDI 01
157.022;000.062;55;000.609;MIDI 01
157.091;000.035;66;000.484;MIDI 01
157.160;000.060;54;000.594;MIDI 01
157.158;000.077;56;000.609;MIDI 01
157.078;000.175;50;000.188;MIDI 01
157.174;000.100;67;000.523;MIDI 01
157.248;000.109;64;000.594;MIDI 01
157.306;000.081;55;000.562;MIDI 01
157.304;000.087;53;000.602;MIDI 01
157.317;000.106;62;000.727;MIDI 01
157.468;000.051;53;000.516;MIDI 01
157.474;000.047;55;000.594;MIDI 01
157.345;000.186;50;000.188;MIDI 01
157.505;000.031;54;000.492;MIDI 01
157.482;000.057;56;000.570;MIDI 01
157.693;000.017;65;000.523;MIDI 01
157.691;000.023;56;000.438;MIDI 01
157.688;000.035;67;000.570;MIDI 01
157.728;000.035;55;000.266;MIDI 01
157.689;000.082;79;000.656;MIDI 01
157.753;000.110;76;000.617;MIDI 01
157.830;000.056;53;000.422;MIDI 01
157.820;000.068;66;000.672;MIDI 01
157.824;000.075;68;000.633;MIDI 01
157.830;000.076;55;000.531;MIDI 01
157.828;000.080;74;000.734;MIDI 01
157.910;000.056;56;000.016;MIDI 01
158.008;000.040;65;000.555;MIDI 01
158.010;000.046;67;000.617;MIDI 01
157.989;000.076;53;000.539;MIDI 01
158.012;000.065;55;000.477;MIDI 01
158.132;000.057;79;000.609;MIDI 01
158.170;000.058;66;000.625;MIDI 01
158.191;000.046;93;000.688;MIDI 01
158.178;000.065;68;000.633;MIDI 01
158.180;000.072;53;000.492;MIDI 01
158.172;000.090;55;000.461;MIDI 01
158.223;000.047;56;000.242;MIDI 01
158.328;000.024;91;000.633;MIDI 01
158.346;000.032;89;000.609;MIDI 01
158.334;000.051;65;000.625;MIDI 01
158.340;000.048;67;000.617;MIDI 01
158.332;000.071;53;000.609;MIDI 01
158.378;000.040;77;000.555;MIDI 01
158.338;000.123;55;000.531;MIDI 01
158.479;000.080;66;000.680;MIDI 01
158.493;000.075;68;000.633;MIDI 01
158.481;000.090;53;000.539;MIDI 01
158.475;000.099;55;000.398;MIDI 01
158.465;000.197;74;000.695;MIDI 01
158.674;000.054;65;000.570;MIDI 01
158.678;000.053;67;000.578;MIDI 01
158.676;000.074;53;000.508;MIDI 01
158.698;000.060;55;000.406;MIDI 01
158.845;000.046;72;000.594;MIDI 01
158.856;000.054;66;000.508;MIDI 01
158.890;000.036;53;000.281;MIDI 01
158.863;000.068;68;000.562;MIDI 01
158.884;000.060;74;000.633;MIDI 01
158.910;000.058;56;000.203;MIDI 01
158.915;000.057;55;000.234;MIDI 01
159.046;000.013;72;000.500;MIDI 01
159.049;000.034;67;000.562;MIDI 01
159.053;000.032;76;000.461;MIDI 01
159.044;000.044;65;000.562;MIDI 01
159.031;000.066;74;000.719;MIDI 01
159.067;000.058;55;000.484;MIDI 01
159.041;000.088;53;000.578;MIDI 01
159.190;000.056;66;000.617;MIDI 01
159.196;000.068;68;000.625;MIDI 01
159.214;000.060;53;000.312;MIDI 01
159.211;000.071;71;000.500;MIDI 01
159.230;000.053;55;000.289;MIDI 01
159.218;000.067;72;000.523;MIDI 01
159.246;000.041;56;000.328;MIDI 01
159.282;000.051;54;000.023;MIDI 01
159.271;000.122;70;000.641;MIDI 01
159.387;000.035;53;000.516;MIDI 01
159.402;000.071;55;000.547;MIDI 01
159.597;000.028;66;000.414;MIDI 01
159.580;000.055;68;000.523;MIDI 01
159.373;000.307;65;000.562;MIDI 01
159.375;000.307;67;000.570;MIDI 01
159.734;000.057;53;000.469;MIDI 01
159.767;000.049;55;000.430;MIDI 01
159.949;000.035;68;000.477;MIDI 01
159.974;000.031;66;000.289;MIDI 01
160.103;000.039;53;000.469;MIDI 01
159.755;000.412;65;000.570;MIDI 01
159.752;000.418;67;000.562;MIDI 01
160.128;000.047;55;000.344;MIDI 01
160.283;000.034;68;000.453;MIDI 01
160.277;000.066;66;000.414;MIDI 01
160.435;000.052;53;000.414;MIDI 01
160.484;000.032;55;000.367;MIDI 01
160.627;000.043;68;000.422;MIDI 01
160.649;000.049;66;000.234;MIDI 01
160.272;000.428;65;000.531;MIDI 01
160.269;000.433;67;000.523;MIDI 01
160.783;000.046;53;000.438;MIDI 01
160.827;000.044;55;000.242;MIDI 01
160.977;000.041;68;000.500;MIDI 01
160.988;000.046;66;000.312;MIDI 01
161.140;000.030;53;000.414;MIDI 01
160.779;000.405;65;000.477;MIDI 01
160.781;000.405;67;000.523;MIDI 01
161.143;000.054;55;000.469;MIDI 01
161.305;000.029;65;000.539;MIDI 01
161.302;000.036;67;000.500;MIDI 01
161.300;000.051;68;000.562;MIDI 01
161.324;000.034;66;000.367;MIDI 01
161.467;000.027;68;000.711;MIDI 01
161.455;000.047;65;000.531;MIDI 01
161.478;000.027;66;000.602;MIDI 01
161.465;000.045;53;000.562;MIDI 01
161.453;000.058;67;000.594;MIDI 01
161.476;000.054;78;000.641;MIDI 01
161.473;000.066;55;000.438;MIDI 01
161.471;000.071;80;000.711;MIDI 01
161.641;000.031;65;000.508;MIDI 01
161.643;000.035;67;000.578;MIDI 01
161.627;000.054;53;000.531;MIDI 01
161.645;000.048;55;000.531;MIDI 01
161.793;000.015;79;000.734;MIDI 01
161.798;000.016;81;000.703;MIDI 01
161.795;000.021;93;000.688;MIDI 01
161.791;000.027;91;000.672;MIDI 01
161.797;000.023;89;000.703;MIDI 01
161.807;000.049;53;000.562;MIDI 01
161.805;000.055;55;000.516;MIDI 01
161.803;000.059;65;000.500;MIDI 01
161.801;000.061;67;000.625;MIDI 01
161.989;000.032;65;000.531;MIDI 01
161.966;000.057;53;000.531;MIDI 01
161.997;000.026;55;000.461;MIDI 01
161.981;000.056;67;000.625;MIDI 01
162.123;000.053;53;000.562;MIDI 01
162.126;000.080;55;000.547;MIDI 01
162.302;000.037;68;000.516;MIDI 01
162.316;000.050;67;000.555;MIDI 01
162.314;000.054;66;000.234;MIDI 01
162.307;000.066;65;000.539;MIDI 01
162.442;000.057;53;000.516;MIDI 01
162.461;000.052;55;000.469;MIDI 01
162.606;000.043;65;000.594;MIDI 01
162.630;000.027;66;000.391;MIDI 01
162.605;000.053;68;000.562;MIDI 01
162.665;000.113;67;000.227;MIDI 01
162.781;000.044;65;000.539;MIDI 01
162.808;000.024;68;000.586;MIDI 01
162.774;000.060;53;000.578;MIDI 01
162.777;000.061;67;000.672;MIDI 01
162.783;000.076;55;000.500;MIDI 01
162.948;000.053;65;000.594;MIDI 01
162.800;000.208;66;000.680;MIDI 01
162.941;000.070;67;000.672;MIDI 01
162.946;000.067;53;000.594;MIDI 01
162.944;000.074;55;000.547;MIDI 01
162.804;000.257;80;000.633;MIDI 01
162.918;000.146;68;000.289;MIDI 01
162.805;000.260;78;000.758;MIDI 01
163.099;000.061;64;000.758;MIDI 01
163.103;000.060;65;000.695;MIDI 01
163.115;000.059;53;000.641;MIDI 01
163.101;000.077;52;000.680;MIDI 01
163.298;000.014;93;000.688;MIDI 01
163.287;000.036;64;000.656;MIDI 01
163.294;000.032;65;000.648;MIDI 01
163.306;000.024;81;000.641;MIDI 01
163.296;000.036;91;000.641;MIDI 01
163.305;000.030;79;000.664;MIDI 01
163.303;000.044;52;000.539;MIDI 01
163.309;000.046;53;000.406;MIDI 01
163.468;000.047;65;000.547;MIDI 01
163.458;000.059;64;000.562;MIDI 01
163.463;000.062;53;000.484;MIDI 01
163.456;000.072;52;000.531;MIDI 01
163.641;000.026;66;000.523;MIDI 01
163.643;000.037;78;000.531;MIDI 01
163.639;000.044;68;000.492;MIDI 01
163.628;000.060;80;000.656;MIDI 01
163.630;000.065;64;000.633;MIDI 01
163.645;000.052;65;000.570;MIDI 01
163.647;000.059;53;000.469;MIDI 01
163.637;000.071;52;000.500;MIDI 01
163.817;000.053;53;000.570;MIDI 01
163.804;000.070;64;000.617;MIDI 01
163.811;000.065;65;000.648;MIDI 01
163.801;000.077;52;000.555;MIDI 01
163.809;000.169;93;000.789;MIDI 01
163.810;000.178;81;000.711;MIDI 01
163.815;000.188;91;000.734;MIDI 01
163.965;000.068;62;000.656;MIDI 01
163.970;000.065;64;000.680;MIDI 01
163.968;000.069;50;000.602;MIDI 01
163.979;000.057;52;000.609;MIDI 01
163.812;000.226;79;000.711;MIDI 01
164.134;000.057;64;000.664;MIDI 01
164.141;000.053;52;000.609;MIDI 01
164.126;000.070;62;000.648;MIDI 01
164.129;000.070;50;000.547;MIDI 01
164.303;000.030;68;000.672;MIDI 01
164.307;000.041;66;000.688;MIDI 01
164.315;000.045;64;000.719;MIDI 01
164.295;000.071;62;000.719;MIDI 01
164.327;000.042;60;000.391;MIDI 01
164.305;000.066;50;000.594;MIDI 01
164.310;000.066;52;000.656;MIDI 01
164.310;000.081;78;000.695;MIDI 01
164.301;000.096;80;000.727;MIDI 01
164.469;000.051;48;000.672;MIDI 01
164.466;000.059;62;000.742;MIDI 01
164.474;000.053;50;000.594;MIDI 01
164.467;000.062;60;000.695;MIDI 01
164.496;000.035;59;000.430;MIDI 01
164.635;000.027;79;000.703;MIDI 01
164.624;000.044;59;000.688;MIDI 01
164.619;000.051;60;000.750;MIDI 01
164.630;000.041;81;000.750;MIDI 01
164.626;000.048;91;000.758;MIDI 01
164.680;000.002;50;000.102;MIDI 01
164.628;000.054;93;000.781;MIDI 01
164.618;000.075;48;000.695;MIDI 01
164.804;000.043;51;000.336;MIDI 01
164.903;000.045;95;000.719;MIDI 01
164.931;000.027;55;000.617;MIDI 01
164.897;000.064;93;000.734;MIDI 01
164.893;000.073;88;000.781;MIDI 01
164.911;000.058;83;000.750;MIDI 01
164.916;000.084;59;000.742;MIDI 01
164.914;000.094;57;000.695;MIDI 01
164.901;000.111;47;000.695;MIDI 01
164.933;000.081;48;000.594;MIDI 01
164.909;000.167;52;000.711;MIDI 01
165.320;000.056;59;000.695;MIDI 01
165.324;000.064;57;000.758;MIDI 01
165.395;000.002;80;000.289;MIDI 01
165.366;000.037;49;000.398;MIDI 01
165.391;000.021;78;000.414;MIDI 01
165.327;000.085;52;000.695;MIDI 01
165.322;000.105;47;000.703;MIDI 01
165.706;000.028;33;000.617;MIDI 01
165.345;000.406;69;000.750;MIDI 01
165.350;000.406;71;000.773;MIDI 01
165.343;000.416;76;000.758;MIDI 01
165.701;000.062;35;000.609;MIDI 01
165.762;000.001;43;000.258;MIDI 01
165.689;000.082;45;000.742;MIDI 01
165.691;000.082;47;000.727;MIDI 01
165.354;000.419;81;000.664;MIDI 01
165.686;000.101;40;000.703;MIDI 01
165.352;000.452;83;000.781;MIDI 01
166.064;000.054;83;000.719;MIDI 01
166.083;000.036;71;000.633;MIDI 01
166.069;000.060;81;000.703;MIDI 01
166.060;000.080;76;000.734;MIDI 01
166.081;000.095;69;000.680;MIDI 01
166.075;000.113;57;000.727;MIDI 01
166.077;000.130;59;000.727;MIDI 01
166.073;000.241;47;000.672;MIDI 01
166.079;000.261;52;000.711;MIDI 01
166.473;000.014;59;000.648;MIDI 01
166.476;000.018;57;000.648;MIDI 01
166.469;000.068;52;000.750;MIDI 01
166.498;000.044;49;000.445;MIDI 01
166.468;000.081;47;000.695;MIDI 01
166.466;000.164;69;000.781;MIDI 01
166.464;000.195;71;000.750;MIDI 01
166.471;000.218;64;000.750;MIDI 01
166.812;000.047;23;000.750;MIDI 01
166.815;000.050;33;000.664;MIDI 01
166.808;000.086;28;000.695;MIDI 01
166.817;000.082;35;000.703;MIDI 01
166.916;000.054;27;000.055;MIDI 01
167.226;000.033;55;000.531;MIDI 01
167.206;000.055;57;000.742;MIDI 01
167.213;000.081;52;000.672;MIDI 01
167.204;000.097;47;000.672;MIDI 01
167.214;000.273;71;000.734;MIDI 01
167.211;000.287;69;000.711;MIDI 01
167.208;000.327;64;000.789;MIDI 01
167.210;000.368;59;000.781;MIDI 01
167.618;000.085;47;000.750;MIDI 01
167.622;000.086;45;000.773;MIDI 01
167.624;000.086;35;000.695;MIDI 01
167.672;000.049;37;000.312;MIDI 01
167.620;000.133;40;000.711;MIDI 01
168.079;000.148;59;000.742;MIDI 01
168.073;000.173;57;000.703;MIDI 01
168.077;000.202;52;000.750;MIDI 01
168.075;000.263;47;000.805;MIDI 01
168.863;000.050;25;000.352;MIDI 01
168.859;000.080;24;000.430;MIDI 01
168.823;000.151;40;000.875;MIDI 01
168.825;000.171;23;000.742;MIDI 01
168.827;000.201;33;000.789;MIDI 01
168.817;000.214;47;000.781;MIDI 01
168.815;000.232;45;000.812;MIDI 01
168.810;000.245;28;000.695;MIDI 01
168.829;000.240;35;000.758;MIDI 01
170.078;000.047;64;000.492;MIDI 01
170.130;000.188;47;000.305;MIDI 01
170.045;000.274;38;000.336;MIDI 01
170.116;000.205;45;000.242;MIDI 01
169.986;000.336;37;000.328;MIDI 01
170.272;000.053;64;000.539;MIDI 01
170.300;000.027;57;000.367;MIDI 01
170.298;000.031;55;000.383;MIDI 01
170.055;000.287;40;000.375;MIDI 01
170.450;000.075;64;000.562;MIDI 01
170.482;000.102;35;000.320;MIDI 01
170.480;000.106;38;000.398;MIDI 01
170.460;000.137;37;000.336;MIDI 01
170.501;000.118;47;000.367;MIDI 01
170.493;000.128;40;000.469;MIDI 01
170.485;000.144;45;000.305;MIDI 01
170.654;000.029;64;000.539;MIDI 01
170.656;000.043;55;000.484;MIDI 01
170.662;000.041;57;000.375;MIDI 01
170.807;000.065;62;000.570;MIDI 01
170.801;000.133;35;000.352;MIDI 01
170.821;000.131;38;000.406;MIDI 01
170.799;000.161;37;000.414;MIDI 01
170.823;000.155;45;000.359;MIDI 01
170.838;000.145;47;000.273;MIDI 01
170.809;000.204;40;000.453;MIDI 01
171.008;000.030;50;000.375;MIDI 01
170.986;000.054;59;000.562;MIDI 01
171.021;000.040;52;000.305;MIDI 01
171.243;000.066;43;000.180;MIDI 01
171.147;000.250;35;000.367;MIDI 01
171.342;000.065;52;000.469;MIDI 01
171.348;000.060;50;000.492;MIDI 01
171.159;000.251;38;000.344;MIDI 01
171.152;000.260;37;000.414;MIDI 01
171.193;000.224;47;000.242;MIDI 01
171.170;000.249;57;000.547;MIDI 01
171.179;000.267;40;000.445;MIDI 01
171.530;000.071;59;000.562;MIDI 01
171.601;000.061;43;000.305;MIDI 01
171.567;000.144;38;000.383;MIDI 01
171.562;000.152;45;000.305;MIDI 01
171.575;000.142;47;000.336;MIDI 01
171.545;000.178;35;000.352;MIDI 01
171.586;000.143;40;000.422;MIDI 01
171.542;000.190;37;000.312;MIDI 01
171.703;000.036;52;000.445;MIDI 01
171.694;000.047;50;000.422;MIDI 01
171.679;000.070;57;000.602;MIDI 01
171.853;000.072;59;000.586;MIDI 01
171.887;000.067;35;000.383;MIDI 01
171.882;000.078;38;000.422;MIDI 01
171.860;000.107;37;000.391;MIDI 01
171.873;000.096;40;000.422;MIDI 01
171.851;000.132;45;000.469;MIDI 01
171.858;000.150;47;000.461;MIDI 01
172.027;000.059;61;000.594;MIDI 01
172.044;000.047;52;000.328;MIDI 01
172.048;000.045;50;000.359;MIDI 01
172.203;000.208;35;000.359;MIDI 01
172.229;000.191;47;000.297;MIDI 01
172.221;000.209;45;000.289;MIDI 01
172.225;000.207;38;000.336;MIDI 01
172.185;000.249;37;000.305;MIDI 01
172.389;000.048;50;000.523;MIDI 01
172.380;000.066;52;000.414;MIDI 01
172.201;000.265;40;000.281;MIDI 01
172.218;000.248;62;000.531;MIDI 01
172.556;000.082;59;000.570;MIDI 01
172.593;000.076;35;000.375;MIDI 01
172.596;000.076;38;000.406;MIDI 01
172.609;000.072;40;000.406;MIDI 01
172.572;000.112;37;000.383;MIDI 01
172.568;000.121;45;000.359;MIDI 01
172.584;000.119;47;000.344;MIDI 01
172.744;000.029;50;000.398;MIDI 01
172.716;000.079;57;000.617;MIDI 01
172.761;000.056;52;000.266;MIDI 01
172.877;000.101;35;000.359;MIDI 01
172.857;000.139;37;000.445;MIDI 01
172.882;000.125;38;000.406;MIDI 01
172.868;000.152;45;000.438;MIDI 01
172.873;000.157;47;000.375;MIDI 01
172.875;000.203;40;000.430;MIDI 01
172.901;000.226;59;000.594;MIDI 01
173.208;000.181;45;000.461;MIDI 01
173.219;000.173;47;000.461;MIDI 01
173.215;000.188;38;000.398;MIDI 01
173.204;000.200;35;000.461;MIDI 01
173.221;000.191;40;000.453;MIDI 01
173.200;000.214;37;000.445;MIDI 01
173.245;000.171;62;000.570;MIDI 01
173.402;000.024;50;000.516;MIDI 01
173.397;000.035;52;000.508;MIDI 01
173.573;000.058;76;000.672;MIDI 01
173.550;000.103;45;000.508;MIDI 01
173.553;000.103;47;000.547;MIDI 01
173.561;000.102;35;000.469;MIDI 01
173.584;000.088;40;000.398;MIDI 01
173.571;000.115;38;000.508;MIDI 01
173.560;000.129;37;000.453;MIDI 01
173.708;000.057;64;000.570;MIDI 01
173.771;000.031;76;000.273;MIDI 01
173.870;000.088;76;000.703;MIDI 01
173.933;000.051;69;000.445;MIDI 01
173.944;000.043;67;000.273;MIDI 01
173.930;000.059;64;000.109;MIDI 01
173.848;000.174;35;000.469;MIDI 01
173.836;000.209;45;000.523;MIDI 01
173.850;000.198;38;000.539;MIDI 01
173.846;000.203;47;000.492;MIDI 01
173.841;000.210;37;000.484;MIDI 01
173.852;000.201;40;000.477;MIDI 01
174.064;000.031;76;000.578;MIDI 01
174.077;000.043;64;000.508;MIDI 01
174.102;000.028;65;000.352;MIDI 01
174.221;000.025;74;000.547;MIDI 01
174.216;000.045;67;000.562;MIDI 01
174.236;000.033;65;000.430;MIDI 01
174.244;000.032;62;000.492;MIDI 01
174.197;000.112;45;000.523;MIDI 01
174.203;000.113;47;000.531;MIDI 01
174.201;000.143;35;000.508;MIDI 01
174.229;000.120;40;000.477;MIDI 01
174.215;000.145;38;000.500;MIDI 01
174.368;000.037;59;000.695;MIDI 01
174.359;000.053;71;000.711;MIDI 01
174.205;000.302;37;000.469;MIDI 01
174.553;000.090;57;000.570;MIDI 01
174.551;000.110;62;000.453;MIDI 01
174.545;000.142;64;000.508;MIDI 01
174.543;000.178;45;000.516;MIDI 01
174.549;000.174;47;000.477;MIDI 01
174.547;000.184;35;000.508;MIDI 01
174.531;000.238;37;000.352;MIDI 01
174.546;000.224;38;000.477;MIDI 01
174.765;000.016;57;000.430;MIDI 01
174.534;000.261;69;000.633;MIDI 01
174.560;000.240;40;000.406;MIDI 01
174.903;000.035;59;000.680;MIDI 01
174.895;000.064;71;000.703;MIDI 01
174.955;000.057;43;000.133;MIDI 01
174.878;000.151;45;000.555;MIDI 01
174.885;000.146;47;000.539;MIDI 01
174.883;000.173;35;000.531;MIDI 01
174.897;000.170;38;000.477;MIDI 01
174.887;000.196;37;000.383;MIDI 01
175.060;000.035;57;000.586;MIDI 01
175.039;000.065;62;000.508;MIDI 01
174.908;000.206;40;000.453;MIDI 01
175.035;000.093;64;000.570;MIDI 01
175.209;000.047;59;000.641;MIDI 01
175.202;000.079;71;000.703;MIDI 01
175.204;000.148;35;000.484;MIDI 01
175.207;000.181;47;000.531;MIDI 01
175.200;000.193;45;000.539;MIDI 01
175.206;000.200;38;000.508;MIDI 01
175.369;000.053;61;000.562;MIDI 01
175.202;000.221;37;000.430;MIDI 01
175.214;000.243;40;000.477;MIDI 01
175.372;000.088;67;000.367;MIDI 01
175.367;000.129;69;000.523;MIDI 01
175.597;000.052;43;000.328;MIDI 01
175.556;000.159;74;000.711;MIDI 01
175.567;000.161;62;000.648;MIDI 01
175.558;000.205;47;000.492;MIDI 01
175.550;000.221;45;000.500;MIDI 01
175.554;000.224;37;000.414;MIDI 01
175.703;000.077;67;000.578;MIDI 01
175.708;000.074;69;000.539;MIDI 01
175.567;000.218;38;000.508;MIDI 01
175.552;000.234;35;000.531;MIDI 01
175.574;000.225;40;000.453;MIDI 01
175.876;000.044;59;000.555;MIDI 01
175.867;000.061;71;000.641;MIDI 01
175.902;000.144;35;000.492;MIDI 01
175.912;000.157;47;000.484;MIDI 01
175.899;000.176;45;000.492;MIDI 01
175.904;000.179;38;000.430;MIDI 01
175.893;000.193;37;000.398;MIDI 01
176.043;000.045;67;000.469;MIDI 01
176.021;000.069;61;000.625;MIDI 01
175.908;000.193;40;000.367;MIDI 01
176.041;000.085;73;000.609;MIDI 01
176.025;000.103;69;000.539;MIDI 01
176.216;000.127;62;000.664;MIDI 01
176.348;000.026;67;000.562;MIDI 01
176.351;000.028;69;000.594;MIDI 01
176.209;000.173;74;000.734;MIDI 01
176.213;000.173;45;000.539;MIDI 01
176.214;000.174;47;000.555;MIDI 01
176.220;000.170;35;000.500;MIDI 01
176.218;000.202;37;000.398;MIDI 01
176.222;000.203;38;000.453;MIDI 01
176.217;000.218;40;000.414;MIDI 01
176.506;000.042;83;000.641;MIDI 01
176.514;000.042;71;000.617;MIDI 01
176.535;000.162;35;000.516;MIDI 01
176.659;000.042;69;000.633;MIDI 01
176.529;000.177;45;000.500;MIDI 01
176.537;000.171;47;000.531;MIDI 01
176.664;000.047;81;000.586;MIDI 01
176.673;000.045;74;000.500;MIDI 01
176.522;000.204;37;000.406;MIDI 01
176.527;000.213;38;000.438;MIDI 01
176.670;000.074;76;000.570;MIDI 01
176.541;000.209;40;000.438;MIDI 01
176.839;000.047;71;000.648;MIDI 01
176.830;000.067;83;000.680;MIDI 01
176.824;000.156;45;000.547;MIDI 01
176.828;000.154;47;000.523;MIDI 01
176.834;000.153;35;000.516;MIDI 01
176.826;000.190;37;000.430;MIDI 01
176.832;000.185;38;000.422;MIDI 01
177.002;000.045;80;000.430;MIDI 01
177.024;000.035;85;000.367;MIDI 01
176.988;000.077;73;000.641;MIDI 01
176.835;000.244;40;000.391;MIDI 01
177.010;000.091;81;000.523;MIDI 01
177.000;000.103;79;000.492;MIDI 01
177.159;000.129;86;000.773;MIDI 01
177.149;000.142;47;000.633;MIDI 01
177.146;000.147;45;000.625;MIDI 01
177.155;000.147;35;000.523;MIDI 01
177.148;000.171;37;000.469;MIDI 01
177.161;000.162;38;000.492;MIDI 01
177.164;000.167;74;000.719;MIDI 01
177.283;000.051;81;000.500;MIDI 01
177.285;000.056;79;000.453;MIDI 01
177.157;000.190;40;000.445;MIDI 01
177.484;000.032;59;000.633;MIDI 01
177.480;000.050;71;000.664;MIDI 01
177.454;000.180;45;000.547;MIDI 01
177.464;000.173;47;000.523;MIDI 01
177.452;000.214;37;000.445;MIDI 01
177.647;000.023;69;000.602;MIDI 01
177.461;000.210;38;000.500;MIDI 01
177.643;000.035;57;000.625;MIDI 01
177.641;000.042;62;000.555;MIDI 01
177.468;000.218;40;000.469;MIDI 01
177.458;000.229;35;000.516;MIDI 01
177.645;000.075;64;000.586;MIDI 01
177.804;000.046;59;000.523;MIDI 01
177.798;000.061;71;000.703;MIDI 01
177.786;000.186;47;000.578;MIDI 01
177.784;000.194;35;000.500;MIDI 01
177.780;000.232;45;000.602;MIDI 01
177.973;000.042;68;000.344;MIDI 01
177.782;000.235;38;000.492;MIDI 01
177.775;000.246;37;000.453;MIDI 01
177.945;000.078;61;000.664;MIDI 01
177.951;000.079;73;000.594;MIDI 01
177.966;000.067;67;000.484;MIDI 01
177.955;000.108;69;000.555;MIDI 01
177.787;000.278;40;000.430;MIDI 01
178.134;000.127;35;000.531;MIDI 01
178.126;000.138;45;000.625;MIDI 01
178.132;000.133;47;000.586;MIDI 01
178.135;000.136;62;000.719;MIDI 01
178.124;000.160;37;000.391;MIDI 01
178.141;000.149;38;000.453;MIDI 01
178.130;000.167;74;000.758;MIDI 01
178.139;000.161;40;000.430;MIDI 01
178.261;000.040;67;000.508;MIDI 01
178.272;000.031;69;000.625;MIDI 01
178.476;000.001;81;000.469;MIDI 01
178.450;000.050;83;000.602;MIDI 01
178.454;000.050;71;000.617;MIDI 01
178.438;000.178;35;000.531;MIDI 01
178.442;000.177;47;000.523;MIDI 01
178.602;000.039;74;000.508;MIDI 01
178.448;000.197;37;000.461;MIDI 01
178.606;000.041;69;000.539;MIDI 01
178.444;000.207;38;000.531;MIDI 01
178.440;000.216;45;000.531;MIDI 01
178.600;000.055;76;000.609;MIDI 01
178.597;000.068;81;000.578;MIDI 01
178.446;000.265;40;000.492;MIDI 01
178.780;000.103;47;000.438;MIDI 01
178.771;000.123;35;000.453;MIDI 01
178.782;000.129;38;000.414;MIDI 01
178.764;000.151;37;000.344;MIDI 01
178.777;000.140;45;000.414;MIDI 01
178.792;000.146;40;000.359;MIDI 01
178.916;000.033;83;000.391;MIDI 01
178.908;000.043;71;000.523;MIDI 01
178.930;000.027;74;000.359;MIDI 01
178.935;000.025;81;000.344;MIDI 01
178.902;000.073;76;000.586;MIDI 01
179.081;000.054;71;000.625;MIDI 01
179.079;000.059;83;000.633;MIDI 01
179.121;000.057;43;000.258;MIDI 01
179.064;000.172;45;000.469;MIDI 01
179.071;000.166;47;000.477;MIDI 01
179.073;000.180;35;000.492;MIDI 01
179.077;000.180;38;000.492;MIDI 01
179.066;000.194;37;000.422;MIDI 01
179.252;000.034;74;000.430;MIDI 01
179.240;000.054;76;000.570;MIDI 01
179.250;000.048;69;000.539;MIDI 01
179.083;000.224;40;000.445;MIDI 01
179.235;000.096;81;000.641;MIDI 01
179.405;000.054;45;000.414;MIDI 01
179.470;000.045;43;000.305;MIDI 01
179.403;000.147;35;000.398;MIDI 01
179.415;000.176;38;000.461;MIDI 01
179.556;000.035;71;000.484;MIDI 01
179.399;000.195;37;000.352;MIDI 01
179.424;000.176;40;000.461;MIDI 01
179.464;000.141;45;000.109;MIDI 01
179.417;000.198;47;000.422;MIDI 01
179.548;000.069;83;000.500;MIDI 01
179.543;000.082;76;000.562;MIDI 01
179.591;000.036;74;000.312;MIDI 01
179.600;000.052;81;000.227;MIDI 01
179.724;000.041;71;000.617;MIDI 01
179.726;000.042;83;000.617;MIDI 01
179.817;000.056;43;000.156;MIDI 01
179.733;000.164;35;000.492;MIDI 01
179.741;000.156;38;000.492;MIDI 01
179.731;000.175;37;000.430;MIDI 01
179.743;000.167;40;000.484;MIDI 01
179.753;000.161;47;000.453;MIDI 01
179.749;000.170;45;000.383;MIDI 01
179.895;000.036;74;000.375;MIDI 01
179.897;000.055;69;000.523;MIDI 01
179.890;000.071;76;000.492;MIDI 01
179.892;000.077;81;000.594;MIDI 01
180.074;000.103;35;000.367;MIDI 01
180.072;000.115;47;000.430;MIDI 01
180.070;000.120;38;000.391;MIDI 01
180.061;000.158;45;000.352;MIDI 01
180.193;000.029;71;000.445;MIDI 01
180.177;000.050;83;000.539;MIDI 01
180.068;000.165;40;000.383;MIDI 01
180.195;000.043;74;000.320;MIDI 01
180.055;000.184;37;000.328;MIDI 01
180.184;000.065;76;000.555;MIDI 01
180.340;000.052;71;000.539;MIDI 01
180.347;000.051;83;000.609;MIDI 01
180.359;000.086;45;000.406;MIDI 01
180.364;000.085;47;000.445;MIDI 01
180.350;000.123;35;000.445;MIDI 01
180.371;000.111;38;000.430;MIDI 01
180.352;000.178;37;000.352;MIDI 01
180.367;000.170;40;000.359;MIDI 01
180.504;000.034;69;000.492;MIDI 01
180.505;000.037;81;000.531;MIDI 01
180.499;000.046;76;000.500;MIDI 01
180.519;000.028;74;000.367;MIDI 01
180.660;000.041;71;000.633;MIDI 01
180.653;000.061;83;000.656;MIDI 01
180.682;000.047;43;000.312;MIDI 01
180.648;000.122;38;000.453;MIDI 01
180.644;000.128;35;000.438;MIDI 01
180.646;000.128;47;000.367;MIDI 01
180.633;000.148;37;000.352;MIDI 01
180.635;000.152;45;000.352;MIDI 01
180.652;000.189;40;000.375;MIDI 01
180.822;000.023;69;000.547;MIDI 01
180.828;000.021;74;000.469;MIDI 01
180.830;000.041;76;000.484;MIDI 01
180.824;000.060;81;000.594;MIDI 01
180.938;000.043;45;000.414;MIDI 01
180.980;000.024;83;000.570;MIDI 01
180.976;000.046;71;000.586;MIDI 01
180.986;000.046;43;000.281;MIDI 01
180.949;000.105;35;000.398;MIDI 01
180.952;000.135;38;000.430;MIDI 01
180.931;000.160;37;000.211;MIDI 01
180.946;000.153;40;000.359;MIDI 01
180.961;000.146;47;000.375;MIDI 01
180.984;000.151;45;000.172;MIDI 01
181.134;000.040;74;000.492;MIDI 01
181.133;000.047;69;000.586;MIDI 01
181.131;000.052;81;000.602;MIDI 01
181.139;000.057;76;000.523;MIDI 01
181.271;000.047;45;000.461;MIDI 01
181.291;000.044;83;000.641;MIDI 01
181.292;000.047;71;000.641;MIDI 01
181.284;000.092;47;000.438;MIDI 01
181.275;000.162;38;000.477;MIDI 01
181.380;000.078;47;000.023;MIDI 01
181.444;000.024;69;000.562;MIDI 01
181.322;000.160;45;000.227;MIDI 01
181.282;000.203;40;000.461;MIDI 01
181.446;000.040;81;000.570;MIDI 01
181.432;000.056;74;000.586;MIDI 01
181.274;000.219;35;000.438;MIDI 01
181.268;000.230;37;000.375;MIDI 01
181.442;000.062;76;000.602;MIDI 01
181.611;000.027;71;000.656;MIDI 01
181.607;000.053;83;000.695;MIDI 01
181.605;000.143;47;000.523;MIDI 01
181.592;000.158;45;000.547;MIDI 01
181.601;000.161;35;000.484;MIDI 01
181.614;000.160;38;000.516;MIDI 01
181.603;000.177;40;000.445;MIDI 01
181.748;000.039;69;000.633;MIDI 01
181.758;000.030;74;000.523;MIDI 01
181.760;000.031;81;000.594;MIDI 01
181.754;000.061;76;000.602;MIDI 01
181.598;000.238;37;000.367;MIDI 01
181.914;000.044;71;000.656;MIDI 01
181.909;000.058;83;000.688;MIDI 01
181.909;000.137;47;000.594;MIDI 01
181.905;000.144;45;000.602;MIDI 01
181.912;000.153;35;000.516;MIDI 01
181.907;000.181;38;000.492;MIDI 01
181.907;000.183;37;000.430;MIDI 01
182.054;000.049;74;000.562;MIDI 01
182.056;000.066;69;000.680;MIDI 01
182.066;000.059;81;000.594;MIDI 01
182.064;000.071;76;000.648;MIDI 01
181.911;000.227;40;000.484;MIDI 01
182.229;000.055;83;000.711;MIDI 01
182.231;000.055;71;000.680;MIDI 01
182.277;000.059;43;000.180;MIDI 01
182.207;000.174;47;000.641;MIDI 01
182.204;000.179;45;000.648;MIDI 01
182.223;000.168;35;000.547;MIDI 01
182.210;000.200;37;000.492;MIDI 01
182.225;000.195;38;000.547;MIDI 01
182.227;000.202;40;000.586;MIDI 01
182.381;000.059;74;000.578;MIDI 01
182.387;000.058;69;000.688;MIDI 01
182.391;000.062;81;000.656;MIDI 01
182.390;000.085;76;000.602;MIDI 01
182.569;000.053;71;000.703;MIDI 01
182.565;000.061;83;000.734;MIDI 01
182.599;000.050;43;000.219;MIDI 01
182.547;000.117;35;000.570;MIDI 01
182.542;000.159;47;000.672;MIDI 01
182.537;000.167;45;000.695;MIDI 01
182.540;000.201;38;000.609;MIDI 01
182.551;000.214;40;000.594;MIDI 01
182.720;000.056;74;000.586;MIDI 01
182.714;000.068;81;000.695;MIDI 01
182.535;000.248;37;000.531;MIDI 01
182.709;000.074;69;000.703;MIDI 01
182.725;000.081;76;000.625;MIDI 01
182.896;000.027;43;000.500;MIDI 01
182.905;000.027;71;000.586;MIDI 01
182.922;000.012;72;000.508;MIDI 01
182.890;000.053;83;000.703;MIDI 01
182.855;000.121;35;000.594;MIDI 01
182.864;000.134;37;000.523;MIDI 01
182.876;000.127;47;000.633;MIDI 01
182.870;000.135;38;000.641;MIDI 01
182.866;000.142;45;000.656;MIDI 01
182.872;000.180;40;000.578;MIDI 01
183.074;000.049;80;000.281;MIDI 01
183.044;000.080;73;000.695;MIDI 01
183.072;000.055;79;000.469;MIDI 01
183.047;000.096;85;000.688;MIDI 01
183.060;000.103;81;000.500;MIDI 01
183.156;000.126;35;000.617;MIDI 01
183.164;000.141;37;000.570;MIDI 01
183.168;000.157;38;000.625;MIDI 01
183.302;000.040;43;000.305;MIDI 01
183.298;000.048;84;000.219;MIDI 01
183.258;000.119;47;000.688;MIDI 01
183.251;000.132;45;000.648;MIDI 01
183.207;000.188;40;000.625;MIDI 01
183.239;000.173;86;000.766;MIDI 01
183.407;000.030;81;000.633;MIDI 01
183.416;000.035;79;000.500;MIDI 01
183.241;000.228;74;000.734;MIDI 01
183.476;000.164;38;000.586;MIDI 01
183.449;000.195;37;000.633;MIDI 01
183.438;000.216;35;000.609;MIDI 01
183.661;000.002;43;000.344;MIDI 01
183.550;000.116;40;000.625;MIDI 01
183.620;000.080;45;000.656;MIDI 01
183.623;000.089;47;000.664;MIDI 01
183.671;000.046;49;000.570;MIDI 01
183.696;000.022;48;000.523;MIDI 01
183.680;000.047;50;000.711;MIDI 01
183.678;000.060;52;000.750;MIDI 01
183.953;000.039;60;000.453;MIDI 01
183.927;000.074;59;000.672;MIDI 01
183.928;000.128;71;000.719;MIDI 01
184.160;000.115;61;000.781;MIDI 01
184.162;000.150;73;000.719;MIDI 01
184.135;000.179;49;000.727;MIDI 01
184.414;000.072;50;000.711;MIDI 01
184.419;000.128;62;000.742;MIDI 01
184.417;000.208;74;000.789;MIDI 01
184.880;000.022;72;000.500;MIDI 01
184.856;000.272;64;000.742;MIDI 01
184.860;000.317;69;000.727;MIDI 01
184.854;000.356;52;000.641;MIDI 01
184.858;000.359;55;000.672;MIDI 01
184.852;000.368;74;000.719;MIDI 01
184.863;000.361;57;000.680;MIDI 01
184.850;000.383;59;000.758;MIDI 01
184.848;000.443;76;000.781;MIDI 01
186.044;000.054;78;000.695;MIDI 01
186.046;000.079;90;000.734;MIDI 01
186.049;000.080;66;000.625;MIDI 01
186.310;000.050;78;000.750;MIDI 01
186.315;000.060;90;000.727;MIDI 01
186.308;000.068;66;000.602;MIDI 01
186.509;000.055;78;000.695;MIDI 01
186.505;000.114;90;000.750;MIDI 01
186.512;000.148;66;000.609;MIDI 01
186.718;000.065;82;000.750;MIDI 01
186.720;000.065;94;000.773;MIDI 01
186.713;000.134;70;000.703;MIDI 01
186.952;000.057;78;000.695;MIDI 01
186.957;000.057;90;000.688;MIDI 01
186.960;000.075;66;000.570;MIDI 01
187.149;000.021;88;000.602;MIDI 01
187.146;000.032;76;000.664;MIDI 01
187.133;000.119;64;000.602;MIDI 01
187.322;000.043;73;000.641;MIDI 01
187.318;000.064;85;000.625;MIDI 01
187.293;000.106;61;000.617;MIDI 01
187.495;000.033;83;000.742;MIDI 01
187.493;000.049;71;000.758;MIDI 01
187.491;000.058;60;000.602;MIDI 01
187.489;000.100;59;000.594;MIDI 01
187.678;000.030;45;000.492;MIDI 01
187.692;000.034;64;000.531;MIDI 01
187.697;000.031;62;000.492;MIDI 01
187.680;000.049;69;000.719;MIDI 01
187.668;000.066;52;000.664;MIDI 01
187.914;000.047;85;000.562;MIDI 01
187.911;000.067;73;000.656;MIDI 01
187.909;000.090;61;000.578;MIDI 01
188.082;000.055;83;000.633;MIDI 01
188.084;000.066;71;000.602;MIDI 01
188.086;000.096;59;000.594;MIDI 01
188.266;000.032;69;000.617;MIDI 01
188.261;000.068;81;000.672;MIDI 01
188.257;000.094;57;000.602;MIDI 01
188.441;000.039;73;000.648;MIDI 01
188.428;000.090;61;000.648;MIDI 01
188.438;000.108;85;000.703;MIDI 01
188.613;000.065;75;000.680;MIDI 01
188.615;000.073;87;000.688;MIDI 01
188.608;000.108;63;000.656;MIDI 01
188.768;000.062;64;000.688;MIDI 01
188.792;000.043;88;000.781;MIDI 01
188.790;000.051;76;000.766;MIDI 01
188.969;000.021;53;000.617;MIDI 01
188.971;000.023;55;000.688;MIDI 01
188.974;000.026;69;000.719;MIDI 01
188.978;000.024;41;000.562;MIDI 01
188.990;000.023;76;000.523;MIDI 01
188.976;000.046;74;000.688;MIDI 01
189.133;000.036;64;000.719;MIDI 01
189.162;000.024;89;000.672;MIDI 01
189.165;000.034;77;000.664;MIDI 01
189.197;000.002;88;000.461;MIDI 01
189.174;000.028;76;000.547;MIDI 01
189.378;000.093;54;000.664;MIDI 01
189.385;000.088;66;000.664;MIDI 01
189.398;000.089;42;000.531;MIDI 01
189.392;000.096;78;000.656;MIDI 01
189.572;000.066;40;000.648;MIDI 01
189.579;000.060;64;000.602;MIDI 01
189.570;000.078;52;000.703;MIDI 01
189.580;000.078;76;000.711;MIDI 01
189.757;000.083;54;000.742;MIDI 01
189.762;000.105;42;000.664;MIDI 01
189.765;000.155;66;000.750;MIDI 01
189.767;000.208;78;000.703;MIDI 01
189.929;000.073;54;000.703;MIDI 01
189.933;000.074;42;000.625;MIDI 01
190.117;000.034;66;000.633;MIDI 01
190.106;000.059;54;000.766;MIDI 01
190.119;000.058;78;000.695;MIDI 01
190.134;000.047;42;000.516;MIDI 01
190.293;000.031;85;000.727;MIDI 01
190.290;000.047;73;000.727;MIDI 01
190.302;000.036;49;000.648;MIDI 01
190.282;000.059;61;000.734;MIDI 01
190.477;000.029;42;000.625;MIDI 01
190.463;000.054;54;000.719;MIDI 01
190.479;000.061;78;000.688;MIDI 01
190.475;000.069;66;000.703;MIDI 01
190.522;000.053;44;000.188;MIDI 01
190.648;000.068;52;000.711;MIDI 01
190.656;000.066;40;000.711;MIDI 01
190.850;000.058;40;000.648;MIDI 01
190.846;000.065;76;000.664;MIDI 01
190.844;000.069;64;000.617;MIDI 01
190.841;000.075;52;000.711;MIDI 01
191.053;000.031;75;000.617;MIDI 01
191.046;000.054;51;000.664;MIDI 01
191.048;000.054;63;000.695;MIDI 01
191.044;000.060;39;000.672;MIDI 01
191.082;000.039;49;000.359;MIDI 01
191.234;000.037;39;000.570;MIDI 01
191.232;000.042;37;000.555;MIDI 01
191.215;000.060;49;000.750;MIDI 01
191.223;000.054;73;000.664;MIDI 01
191.221;000.064;61;000.695;MIDI 01
191.427;000.026;71;000.711;MIDI 01
191.419;000.052;47;000.727;MIDI 01
191.425;000.068;59;000.758;MIDI 01
191.423;000.082;35;000.688;MIDI 01
191.623;000.026;52;000.586;MIDI 01
191.619;000.032;57;000.617;MIDI 01
191.621;000.037;42;000.727;MIDI 01
191.643;000.030;30;000.508;MIDI 01
191.688;000.064;32;000.188;MIDI 01
191.900;000.079;69;000.539;MIDI 01
191.889;000.096;81;000.570;MIDI 01
191.898;000.226;57;000.539;MIDI 01
192.104;000.060;67;000.602;MIDI 01
192.106;000.071;79;000.641;MIDI 01
192.108;000.106;55;000.484;MIDI 01
192.303;000.065;69;000.648;MIDI 01
192.301;000.069;81;000.703;MIDI 01
192.285;000.126;57;000.633;MIDI 01
192.494;000.041;71;000.648;MIDI 01
192.496;000.047;83;000.633;MIDI 01
192.523;000.033;81;000.383;MIDI 01
192.477;000.113;59;000.625;MIDI 01
192.656;000.073;73;000.680;MIDI 01
192.653;000.081;85;000.734;MIDI 01
192.652;000.131;61;000.633;MIDI 01
192.834;000.051;74;000.648;MIDI 01
192.832;000.055;86;000.703;MIDI 01
192.810;000.132;62;000.633;MIDI 01
193.010;000.061;69;000.664;MIDI 01
193.012;000.061;81;000.734;MIDI 01
193.003;000.171;57;000.562;MIDI 01
193.157;000.055;59;000.695;MIDI 01
193.185;000.029;83;000.695;MIDI 01
193.182;000.056;71;000.719;MIDI 01
193.355;000.026;54;000.742;MIDI 01
193.369;000.020;64;000.617;MIDI 01
193.366;000.036;42;000.648;MIDI 01
193.363;000.051;69;000.688;MIDI 01
193.567;000.027;71;000.602;MIDI 01
193.555;000.042;57;000.586;MIDI 01
193.557;000.049;69;000.594;MIDI 01
193.738;000.026;59;000.570;MIDI 01
193.728;000.048;71;000.594;MIDI 01
193.899;000.052;61;000.609;MIDI 01
193.897;000.080;73;000.656;MIDI 01
194.091;000.031;74;000.695;MIDI 01
194.089;000.035;62;000.602;MIDI 01
194.254;000.049;57;000.594;MIDI 01
194.256;000.054;69;000.703;MIDI 01
194.438;000.094;59;000.719;MIDI 01
194.440;000.159;71;000.727;MIDI 01
194.595;000.024;64;000.492;MIDI 01
194.597;000.054;52;000.516;MIDI 01
194.593;000.072;54;000.562;MIDI 01
194.599;000.069;69;000.578;MIDI 01
194.803;000.034;69;000.680;MIDI 01
194.801;000.050;81;000.633;MIDI 01
194.792;000.065;57;000.648;MIDI 01
194.984;000.047;71;000.633;MIDI 01
194.980;000.053;83;000.688;MIDI 01
194.970;000.071;59;000.617;MIDI 01
195.152;000.059;73;000.680;MIDI 01
195.150;000.090;85;000.695;MIDI 01
195.139;000.169;61;000.664;MIDI 01
195.327;000.044;74;000.727;MIDI 01
195.323;000.062;86;000.711;MIDI 01
195.312;000.114;62;000.680;MIDI 01
195.484;000.045;88;000.742;MIDI 01
195.492;000.046;76;000.711;MIDI 01
195.483;000.100;64;000.617;MIDI 01
195.636;000.050;59;000.711;MIDI 01
195.676;000.023;83;000.750;MIDI 01
195.674;000.043;71;000.727;MIDI 01
195.852;000.037;54;000.766;MIDI 01
195.861;000.041;42;000.688;MIDI 01
195.873;000.031;62;000.578;MIDI 01
195.890;000.017;64;000.516;MIDI 01
195.864;000.051;67;000.719;MIDI 01
196.058;000.097;57;000.758;MIDI 01
196.275;000.141;59;000.797;MIDI 01
196.507;000.160;61;000.750;MIDI 01
196.755;000.140;62;000.750;MIDI 01
197.026;000.088;57;000.812;MIDI 01
197.451;000.040;64;000.508;MIDI 01
197.416;000.425;42;000.672;MIDI 01
197.414;000.448;52;000.703;MIDI 01
197.762;000.101;57;000.750;MIDI 01
197.411;000.470;54;000.742;MIDI 01
197.401;000.513;62;000.828;MIDI 01
198.284;000.106;78;000.750;MIDI 01
198.286;000.174;90;000.727;MIDI 01
198.289;000.375;64;000.602;MIDI 01
198.640;000.068;78;000.734;MIDI 01
198.637;000.074;90;000.719;MIDI 01
198.277;000.492;66;000.656;MIDI 01
198.864;000.074;76;000.727;MIDI 01
198.867;000.082;88;000.781;MIDI 01
198.845;000.109;64;000.594;MIDI 01
198.858;000.117;62;000.641;MIDI 01
199.077;000.065;88;000.758;MIDI 01
199.075;000.072;76;000.727;MIDI 01
199.299;000.069;74;000.766;MIDI 01
199.297;000.083;86;000.758;MIDI 01
199.254;000.258;59;000.680;MIDI 01
199.507;000.074;86;000.789;MIDI 01
199.505;000.081;74;000.758;MIDI 01
199.257;000.393;62;000.695;MIDI 01
199.713;000.074;59;000.625;MIDI 01
199.715;000.089;57;000.633;MIDI 01
199.760;000.076;71;000.750;MIDI 01
199.758;000.082;83;000.742;MIDI 01
200.030;000.054;81;000.789;MIDI 01
200.032;000.059;69;000.773;MIDI 01
200.353;000.397;37;000.680;MIDI 01
200.355;000.408;64;000.797;MIDI 01
200.342;000.425;44;000.766;MIDI 01
200.351;000.442;76;000.805;MIDI 01
200.349;000.453;30;000.695;MIDI 01
200.715;000.218;69;000.688;MIDI 01
200.722;000.292;68;000.594;MIDI 01
201.157;000.002;74;000.281;MIDI 01
201.100;000.215;30;000.703;MIDI 01
201.102;000.280;37;000.664;MIDI 01
201.097;000.308;44;000.781;MIDI 01
201.104;000.518;76;000.820;MIDI 01
201.106;000.536;64;000.812;MIDI 01
201.629;000.040;69;000.688;MIDI 01
201.631;000.054;68;000.609;MIDI 01
202.218;000.038;56;000.547;MIDI 01
202.228;000.056;49;000.516;MIDI 01
202.240;000.048;42;000.406;MIDI 01
202.429;000.040;61;000.414;MIDI 01
202.426;000.049;57;000.438;MIDI 01
202.458;000.031;56;000.328;MIDI 01
202.447;000.056;42;000.328;MIDI 01
202.465;000.041;69;000.227;MIDI 01
202.460;000.047;49;000.430;MIDI 01
202.443;000.068;68;000.414;MIDI 01
202.618;000.058;56;000.461;MIDI 01
202.635;000.045;49;000.398;MIDI 01
202.633;000.049;42;000.383;MIDI 01
202.789;000.025;61;000.391;MIDI 01
202.793;000.042;56;000.484;MIDI 01
202.786;000.059;57;000.414;MIDI 01
202.802;000.046;42;000.406;MIDI 01
202.809;000.040;49;000.453;MIDI 01
202.800;000.053;69;000.336;MIDI 01
202.811;000.061;68;000.383;MIDI 01
202.964;000.045;42;000.445;MIDI 01
202.969;000.045;49;000.445;MIDI 01
202.955;000.060;56;000.500;MIDI 01
203.134;000.033;61;000.430;MIDI 01
203.119;000.059;56;000.516;MIDI 01
203.128;000.052;49;000.461;MIDI 01
203.132;000.052;42;000.430;MIDI 01
203.123;000.061;57;000.508;MIDI 01
203.121;000.086;69;000.523;MIDI 01
203.141;000.069;68;000.453;MIDI 01
203.282;000.053;56;000.578;MIDI 01
203.297;000.041;42;000.469;MIDI 01
203.284;000.056;49;000.500;MIDI 01
203.447;000.056;57;000.602;MIDI 01
203.441;000.065;56;000.531;MIDI 01
203.443;000.065;42;000.547;MIDI 01
203.453;000.056;49;000.562;MIDI 01
203.475;000.044;61;000.312;MIDI 01
203.452;000.078;69;000.578;MIDI 01
203.471;000.068;68;000.453;MIDI 01
203.627;000.043;56;000.594;MIDI 01
203.624;000.049;49;000.516;MIDI 01
203.626;000.051;42;000.508;MIDI 01
203.789;000.028;61;000.523;MIDI 01
203.769;000.064;49;000.562;MIDI 01
203.771;000.066;57;000.617;MIDI 01
203.767;000.072;42;000.562;MIDI 01
203.764;000.077;56;000.555;MIDI 01
203.773;000.080;69;000.641;MIDI 01
203.792;000.073;68;000.500;MIDI 01
203.932;000.055;56;000.617;MIDI 01
203.938;000.054;49;000.578;MIDI 01
203.942;000.057;42;000.539;MIDI 01
204.117;000.020;61;000.492;MIDI 01
204.100;000.043;42;000.562;MIDI 01
204.102;000.043;57;000.594;MIDI 01
204.092;000.067;49;000.625;MIDI 01
204.090;000.074;56;000.656;MIDI 01
204.098;000.068;69;000.672;MIDI 01
204.190;000.059;68;000.023;MIDI 01
204.264;000.022;57;000.727;MIDI 01
204.275;000.029;64;000.508;MIDI 01
204.266;000.051;59;000.781;MIDI 01
204.270;000.053;71;000.703;MIDI 01
204.275;000.050;45;000.656;MIDI 01
204.272;000.055;69;000.727;MIDI 01
204.277;000.057;52;000.648;MIDI 01
204.415;000.035;45;000.516;MIDI 01
204.405;000.069;59;000.609;MIDI 01
204.407;000.072;52;000.523;MIDI 01
204.579;000.025;83;000.672;MIDI 01
204.581;000.025;76;000.648;MIDI 01
204.556;000.055;45;000.570;MIDI 01
204.582;000.031;69;000.680;MIDI 01
204.577;000.039;81;000.703;MIDI 01
204.600;000.020;71;000.484;MIDI 01
204.569;000.054;59;000.648;MIDI 01
204.571;000.059;52;000.625;MIDI 01
204.628;000.043;80;000.266;MIDI 01
204.641;000.051;57;000.156;MIDI 01
204.720;000.043;45;000.555;MIDI 01
204.722;000.045;59;000.688;MIDI 01
204.724;000.064;52;000.641;MIDI 01
204.897;000.033;56;000.656;MIDI 01
204.901;000.042;49;000.555;MIDI 01
204.920;000.054;42;000.375;MIDI 01
205.052;000.033;57;000.570;MIDI 01
205.067;000.036;69;000.391;MIDI 01
205.062;000.045;49;000.500;MIDI 01
205.061;000.048;68;000.492;MIDI 01
205.057;000.055;56;000.453;MIDI 01
205.060;000.054;42;000.562;MIDI 01
205.073;000.050;61;000.281;MIDI 01
205.211;000.055;56;000.602;MIDI 01
205.220;000.052;49;000.523;MIDI 01
205.208;000.071;42;000.555;MIDI 01
205.359;000.046;57;000.602;MIDI 01
205.365;000.058;69;000.523;MIDI 01
205.382;000.043;61;000.281;MIDI 01
205.375;000.052;49;000.547;MIDI 01
205.377;000.050;68;000.445;MIDI 01
205.363;000.066;56;000.617;MIDI 01
205.373;000.056;42;000.555;MIDI 01
205.523;000.046;56;000.617;MIDI 01
205.521;000.052;49;000.555;MIDI 01
205.525;000.050;42;000.547;MIDI 01
205.667;000.048;57;000.633;MIDI 01
205.713;000.002;61;000.289;MIDI 01
205.666;000.054;56;000.633;MIDI 01
205.670;000.053;49;000.594;MIDI 01
205.674;000.056;42;000.586;MIDI 01
205.686;000.053;68;000.477;MIDI 01
205.672;000.071;69;000.602;MIDI 01
205.832;000.036;42;000.508;MIDI 01
205.827;000.048;56;000.562;MIDI 01
205.825;000.052;49;000.594;MIDI 01
205.988;000.022;61;000.445;MIDI 01
205.967;000.045;49;000.641;MIDI 01
205.959;000.056;42;000.578;MIDI 01
205.976;000.042;57;000.656;MIDI 01
205.964;000.059;56;000.625;MIDI 01
205.977;000.066;69;000.625;MIDI 01
206.022;000.042;68;000.242;MIDI 01
206.114;000.029;57;000.750;MIDI 01
206.133;000.031;64;000.570;MIDI 01
206.121;000.052;71;000.703;MIDI 01
206.119;000.058;59;000.734;MIDI 01
206.127;000.052;45;000.672;MIDI 01
206.129;000.054;69;000.656;MIDI 01
206.131;000.053;52;000.664;MIDI 01
206.169;000.043;49;000.180;MIDI 01
206.173;000.041;70;000.031;MIDI 01
206.280;000.022;59;000.648;MIDI 01
206.285;000.039;45;000.453;MIDI 01
206.283;000.054;52;000.609;MIDI 01
206.428;000.015;76;000.711;MIDI 01
206.432;000.017;69;000.727;MIDI 01
206.433;000.018;83;000.656;MIDI 01
206.426;000.028;81;000.695;MIDI 01
206.438;000.022;71;000.500;MIDI 01
206.424;000.037;45;000.609;MIDI 01
206.430;000.039;59;000.594;MIDI 01
206.435;000.046;52;000.602;MIDI 01
206.466;000.037;80;000.180;MIDI 01
206.485;000.025;57;000.203;MIDI 01
206.490;000.057;47;000.086;MIDI 01
206.559;000.057;45;000.594;MIDI 01
206.565;000.057;59;000.719;MIDI 01
206.626;000.002;57;000.320;MIDI 01
206.573;000.058;76;000.023;MIDI 01
206.570;000.064;52;000.672;MIDI 01
206.731;000.052;56;000.664;MIDI 01
206.749;000.038;49;000.555;MIDI 01
206.758;000.035;42;000.477;MIDI 01
206.886;000.039;57;000.625;MIDI 01
206.882;000.051;56;000.555;MIDI 01
206.905;000.030;61;000.461;MIDI 01
206.907;000.030;69;000.469;MIDI 01
206.903;000.035;68;000.508;MIDI 01
206.892;000.049;42;000.570;MIDI 01
206.889;000.053;49;000.516;MIDI 01
207.041;000.049;56;000.555;MIDI 01
207.045;000.053;49;000.570;MIDI 01
207.043;000.058;42;000.547;MIDI 01
207.203;000.029;57;000.609;MIDI 01
207.202;000.038;42;000.594;MIDI 01
207.215;000.032;69;000.594;MIDI 01
207.217;000.032;61;000.453;MIDI 01
207.200;000.056;49;000.609;MIDI 01
207.196;000.074;56;000.664;MIDI 01
207.270;000.065;68;000.031;MIDI 01
207.381;000.029;57;000.602;MIDI 01
207.392;000.031;64;000.602;MIDI 01
207.387;000.037;62;000.688;MIDI 01
207.395;000.032;60;000.562;MIDI 01
207.385;000.046;55;000.734;MIDI 01
207.390;000.050;48;000.617;MIDI 01
207.408;000.033;66;000.438;MIDI 01
207.380;000.066;71;000.773;MIDI 01
207.410;000.037;59;000.484;MIDI 01
207.385;000.065;69;000.711;MIDI 01
207.440;000.045;51;000.039;MIDI 01
207.560;000.034;48;000.477;MIDI 01
207.546;000.058;62;000.586;MIDI 01
207.576;000.030;60;000.281;MIDI 01
207.550;000.081;55;000.594;MIDI 01
207.739;000.018;76;000.734;MIDI 01
207.743;000.016;69;000.703;MIDI 01
207.745;000.018;83;000.680;MIDI 01
207.745;000.021;71;000.570;MIDI 01
207.730;000.043;62;000.719;MIDI 01
207.740;000.035;81;000.734;MIDI 01
207.724;000.065;48;000.617;MIDI 01
207.734;000.056;55;000.625;MIDI 01
207.882;000.048;48;000.586;MIDI 01
207.895;000.035;55;000.570;MIDI 01
207.880;000.053;62;000.648;MIDI 01
208.042;000.048;48;000.523;MIDI 01
208.035;000.056;62;000.648;MIDI 01
208.044;000.052;55;000.570;MIDI 01
208.208;000.025;76;000.477;MIDI 01
208.206;000.029;64;000.484;MIDI 01
208.210;000.030;48;000.508;MIDI 01
208.215;000.036;74;000.375;MIDI 01
208.225;000.029;55;000.523;MIDI 01
208.196;000.062;62;000.633;MIDI 01
208.361;000.056;48;000.516;MIDI 01
208.369;000.057;62;000.555;MIDI 01
208.367;000.061;55;000.500;MIDI 01
208.526;000.049;64;000.516;MIDI 01
208.534;000.045;48;000.469;MIDI 01
208.544;000.046;55;000.500;MIDI 01
208.530;000.059;76;000.523;MIDI 01
208.527;000.065;62;000.594;MIDI 01
208.534;000.057;74;000.508;MIDI 01
208.682;000.055;48;000.516;MIDI 01
208.684;000.057;62;000.531;MIDI 01
208.686;000.057;55;000.516;MIDI 01
208.831;000.057;64;000.539;MIDI 01
208.846;000.047;48;000.477;MIDI 01
208.860;000.036;55;000.516;MIDI 01
208.833;000.073;62;000.594;MIDI 01
208.840;000.081;76;000.531;MIDI 01
208.842;000.091;74;000.508;MIDI 01
209.008;000.051;55;000.523;MIDI 01
209.001;000.060;48;000.531;MIDI 01
209.003;000.065;62;000.539;MIDI 01
209.159;000.047;64;000.555;MIDI 01
209.178;000.043;55;000.547;MIDI 01
209.168;000.057;48;000.531;MIDI 01
209.157;000.070;62;000.594;MIDI 01
209.166;000.081;76;000.562;MIDI 01
209.164;000.084;74;000.539;MIDI 01
209.318;000.055;55;000.547;MIDI 01
209.320;000.058;62;000.562;MIDI 01
209.316;000.066;48;000.570;MIDI 01
209.468;000.058;64;000.586;MIDI 01
209.488;000.047;55;000.555;MIDI 01
209.467;000.068;62;000.594;MIDI 01
209.476;000.060;48;000.500;MIDI 01
209.470;000.093;76;000.594;MIDI 01
209.472;000.093;74;000.523;MIDI 01
209.635;000.054;55;000.539;MIDI 01
209.633;000.059;48;000.570;MIDI 01
209.631;000.066;62;000.578;MIDI 01
209.790;000.053;64;000.617;MIDI 01
209.809;000.037;55;000.555;MIDI 01
209.786;000.068;62;000.672;MIDI 01
209.795;000.067;48;000.578;MIDI 01
209.793;000.091;76;000.617;MIDI 01
209.797;000.089;74;000.547;MIDI 01
209.956;000.052;55;000.523;MIDI 01
209.954;000.061;62;000.617;MIDI 01
209.952;000.073;48;000.578;MIDI 01
210.125;000.040;55;000.578;MIDI 01
210.107;000.069;48;000.562;MIDI 01
210.109;000.067;62;000.664;MIDI 01
210.111;000.067;64;000.641;MIDI 01
210.116;000.092;76;000.602;MIDI 01
210.120;000.105;74;000.562;MIDI 01
210.256;000.070;62;000.641;MIDI 01
210.254;000.074;55;000.555;MIDI 01
210.252;000.090;48;000.555;MIDI 01
210.424;000.040;55;000.617;MIDI 01
210.414;000.052;64;000.617;MIDI 01
210.408;000.059;62;000.656;MIDI 01
210.410;000.061;48;000.523;MIDI 01
210.416;000.095;74;000.562;MIDI 01
210.411;000.101;76;000.633;MIDI 01
210.566;000.081;62;000.758;MIDI 01
210.570;000.096;55;000.711;MIDI 01
210.572;000.102;48;000.703;MIDI 01
210.749;000.045;64;000.617;MIDI 01
210.740;000.066;62;000.688;MIDI 01
210.754;000.071;55;000.609;MIDI 01
210.738;000.092;48;000.602;MIDI 01
210.747;000.107;76;000.609;MIDI 01
210.751;000.125;74;000.547;MIDI 01
210.907;000.058;59;000.766;MIDI 01
210.950;000.026;47;000.422;MIDI 01
210.915;000.064;52;000.703;MIDI 01
210.911;000.079;45;000.648;MIDI 01
211.062;000.060;59;000.727;MIDI 01
211.065;000.062;52;000.688;MIDI 01
211.055;000.089;45;000.633;MIDI 01
211.072;000.107;64;000.648;MIDI 01
211.069;000.118;62;000.633;MIDI 01
211.067;000.157;76;000.672;MIDI 01
211.060;000.209;74;000.602;MIDI 01
211.219;000.074;57;000.789;MIDI 01
211.266;000.029;45;000.453;MIDI 01
211.222;000.079;50;000.727;MIDI 01
211.229;000.084;43;000.656;MIDI 01
211.376;000.061;62;000.672;MIDI 01
211.386;000.053;64;000.688;MIDI 01
211.372;000.070;57;000.766;MIDI 01
211.408;000.042;45;000.375;MIDI 01
211.378;000.074;50;000.695;MIDI 01
211.384;000.074;43;000.617;MIDI 01
211.383;000.101;76;000.695;MIDI 01
211.374;000.113;74;000.656;MIDI 01
211.549;000.050;41;000.688;MIDI 01
211.539;000.062;55;000.758;MIDI 01
211.545;000.062;48;000.727;MIDI 01
211.704;000.001;85;000.508;MIDI 01
211.682;000.036;55;000.758;MIDI 01
211.686;000.034;74;000.805;MIDI 01
211.691;000.032;76;000.797;MIDI 01
211.689;000.050;48;000.750;MIDI 01
211.689;000.062;86;000.758;MIDI 01
211.693;000.061;41;000.711;MIDI 01
211.684;000.074;88;000.797;MIDI 01
212.047;000.020;97;000.812;MIDI 01
212.066;000.002;93;000.516;MIDI 01
212.071;000.002;94;000.438;MIDI 01
212.044;000.058;32;000.555;MIDI 01
212.032;000.111;100;000.875;MIDI 01
212.033;000.119;86;000.828;MIDI 01
212.039;000.116;88;000.953;MIDI 01
212.030;000.143;98;000.828;MIDI 01
212.018;000.269;41;000.758;MIDI 01
212.028;000.272;40;000.711;MIDI 01
212.017;000.309;29;000.648;MIDI 01
212.022;000.306;35;000.695;MIDI 01
212.026;000.305;28;000.719;MIDI 01
