Start;Duration;Pitch;Velocity;Instrument
001.145;000.080;44;000.680;MIDI 01
001.143;000.234;32;000.648;MIDI 01
001.630;000.128;46;000.648;MIDI 01
001.625;000.218;33;000.672;MIDI 01
001.734;000.110;47;000.703;MIDI 01
001.731;000.142;35;000.750;MIDI 01
001.996;000.075;35;000.727;MIDI 01
001.998;000.119;47;000.758;MIDI 01
002.283;000.193;47;000.555;MIDI 01
002.292;000.211;44;000.508;MIDI 01
002.299;000.215;40;000.508;MIDI 01
002.531;000.130;47;000.781;MIDI 01
002.820;000.154;47;000.523;MIDI 01
002.801;000.220;38;000.508;MIDI 01
002.805;000.223;46;000.562;MIDI 01
003.058;000.155;47;000.734;MIDI 01
003.328;000.157;47;000.617;MIDI 01
003.317;000.206;40;000.562;MIDI 01
003.304;000.222;44;000.383;MIDI 01
003.555;000.175;47;000.766;MIDI 01
003.814;000.127;47;000.570;MIDI 01
003.797;000.200;38;000.594;MIDI 01
003.808;000.193;46;000.633;MIDI 01
004.051;000.104;47;000.867;MIDI 01
004.293;000.127;47;000.703;MIDI 01
004.298;000.203;44;000.586;MIDI 01
004.291;000.212;40;000.594;MIDI 01
004.617;000.050;45;000.195;MIDI 01
004.549;000.143;47;000.805;MIDI 01
004.801;000.101;47;000.688;MIDI 01
004.799;000.150;38;000.617;MIDI 01
004.803;000.190;46;000.672;MIDI 01
005.062;000.129;47;000.664;MIDI 01
005.320;000.085;47;000.617;MIDI 01
005.324;000.102;44;000.531;MIDI 01
005.315;000.114;40;000.531;MIDI 01
005.545;000.109;47;000.695;MIDI 01
004.806;000.986;23;000.844;MIDI 01
005.812;000.070;47;000.508;MIDI 01
005.802;000.093;38;000.516;MIDI 01
005.810;000.111;46;000.523;MIDI 01
006.047;000.139;47;000.711;MIDI 01
006.138;000.050;41;000.164;MIDI 01
006.318;000.097;47;000.672;MIDI 01
006.315;000.120;40;000.562;MIDI 01
006.317;000.142;44;000.586;MIDI 01
006.597;000.002;45;000.406;MIDI 01
006.614;000.002;40;000.289;MIDI 01
006.620;000.002;43;000.227;MIDI 01
006.555;000.096;47;000.727;MIDI 01
006.050;000.723;23;000.828;MIDI 01
006.801;000.081;47;000.672;MIDI 01
006.799;000.094;36;000.602;MIDI 01
006.806;000.101;42;000.602;MIDI 01
007.016;000.049;23;000.852;MIDI 01
007.027;000.103;47;000.688;MIDI 01
007.099;000.062;40;000.172;MIDI 01
007.085;000.134;41;000.336;MIDI 01
007.331;000.056;40;000.242;MIDI 01
007.284;000.108;47;000.734;MIDI 01
007.291;000.135;38;000.680;MIDI 01
007.297;000.166;46;000.703;MIDI 01
007.533;000.047;30;000.812;MIDI 01
007.529;000.078;47;000.781;MIDI 01
007.591;000.054;41;000.266;MIDI 01
007.933;000.128;44;000.453;MIDI 01
007.929;000.149;40;000.461;MIDI 01
007.924;000.160;47;000.539;MIDI 01
007.950;000.210;49;000.656;MIDI 01
007.948;000.254;61;000.641;MIDI 01
008.185;000.131;47;000.641;MIDI 01
008.308;000.023;50;000.641;MIDI 01
008.310;000.023;63;000.672;MIDI 01
008.428;000.122;52;000.633;MIDI 01
008.414;000.140;38;000.617;MIDI 01
008.423;000.130;47;000.680;MIDI 01
008.426;000.140;64;000.703;MIDI 01
008.421;000.193;46;000.641;MIDI 01
008.689;000.068;59;000.523;MIDI 01
008.688;000.096;52;000.617;MIDI 01
008.678;000.123;64;000.656;MIDI 01
008.689;000.135;61;000.617;MIDI 01
008.686;000.144;47;000.656;MIDI 01
008.952;000.094;52;000.523;MIDI 01
008.946;000.106;64;000.578;MIDI 01
008.958;000.096;47;000.477;MIDI 01
008.944;000.119;40;000.453;MIDI 01
008.956;000.110;44;000.375;MIDI 01
009.206;000.079;64;000.562;MIDI 01
009.204;000.089;52;000.531;MIDI 01
009.202;000.106;47;000.578;MIDI 01
009.208;000.117;59;000.453;MIDI 01
009.195;000.150;61;000.539;MIDI 01
009.445;000.098;47;000.609;MIDI 01
009.442;000.115;52;000.648;MIDI 01
009.435;000.122;38;000.555;MIDI 01
009.433;000.126;64;000.664;MIDI 01
009.448;000.155;46;000.562;MIDI 01
009.690;000.090;64;000.672;MIDI 01
009.692;000.103;52;000.664;MIDI 01
009.680;000.141;47;000.672;MIDI 01
009.694;000.140;59;000.594;MIDI 01
009.686;000.163;61;000.625;MIDI 01
009.927;000.132;47;000.703;MIDI 01
009.929;000.132;64;000.727;MIDI 01
009.931;000.132;52;000.719;MIDI 01
009.925;000.143;40;000.609;MIDI 01
009.940;000.167;44;000.586;MIDI 01
010.185;000.097;52;000.742;MIDI 01
010.183;000.111;59;000.648;MIDI 01
010.181;000.116;64;000.719;MIDI 01
010.169;000.136;47;000.695;MIDI 01
010.188;000.159;61;000.648;MIDI 01
010.451;000.070;47;000.516;MIDI 01
010.427;000.120;38;000.469;MIDI 01
010.431;000.148;46;000.453;MIDI 01
010.709;000.058;59;000.414;MIDI 01
010.691;000.085;64;000.492;MIDI 01
010.701;000.080;52;000.406;MIDI 01
010.689;000.104;47;000.492;MIDI 01
010.699;000.129;61;000.469;MIDI 01
010.947;000.105;47;000.492;MIDI 01
010.934;000.122;64;000.594;MIDI 01
010.938;000.123;40;000.445;MIDI 01
010.942;000.121;44;000.477;MIDI 01
010.943;000.120;52;000.547;MIDI 01
011.195;000.094;64;000.625;MIDI 01
011.203;000.104;52;000.641;MIDI 01
011.180;000.136;47;000.617;MIDI 01
011.197;000.150;59;000.570;MIDI 01
011.199;000.158;61;000.617;MIDI 01
011.434;000.119;47;000.609;MIDI 01
011.435;000.124;52;000.695;MIDI 01
011.429;000.137;64;000.719;MIDI 01
011.427;000.178;38;000.570;MIDI 01
011.439;000.196;46;000.602;MIDI 01
011.682;000.100;47;000.664;MIDI 01
011.673;000.116;59;000.594;MIDI 01
011.684;000.122;52;000.656;MIDI 01
011.686;000.141;64;000.641;MIDI 01
011.680;000.178;61;000.648;MIDI 01
011.925;000.075;47;000.594;MIDI 01
011.918;000.094;40;000.562;MIDI 01
011.923;000.090;44;000.508;MIDI 01
012.154;000.046;59;000.555;MIDI 01
012.155;000.077;64;000.617;MIDI 01
012.153;000.081;52;000.633;MIDI 01
012.158;000.100;47;000.617;MIDI 01
012.156;000.109;61;000.617;MIDI 01
012.401;000.074;52;000.727;MIDI 01
012.403;000.084;47;000.617;MIDI 01
012.399;000.091;64;000.703;MIDI 01
012.397;000.098;38;000.570;MIDI 01
012.410;000.122;46;000.586;MIDI 01
012.658;000.103;64;000.719;MIDI 01
012.653;000.115;52;000.711;MIDI 01
012.655;000.114;59;000.633;MIDI 01
012.657;000.114;47;000.641;MIDI 01
012.659;000.143;61;000.648;MIDI 01
012.910;000.129;47;000.602;MIDI 01
012.903;000.166;40;000.539;MIDI 01
012.918;000.156;44;000.461;MIDI 01
013.168;000.118;47;000.523;MIDI 01
013.166;000.127;59;000.414;MIDI 01
013.156;000.149;52;000.469;MIDI 01
013.159;000.148;64;000.500;MIDI 01
013.158;000.159;61;000.500;MIDI 01
013.409;000.110;47;000.609;MIDI 01
013.399;000.161;38;000.570;MIDI 01
013.411;000.177;46;000.570;MIDI 01
013.639;000.153;47;000.727;MIDI 01
013.655;000.217;59;000.609;MIDI 01
013.650;000.230;52;000.633;MIDI 01
013.653;000.230;61;000.617;MIDI 01
013.646;000.240;64;000.641;MIDI 01
013.902;000.130;47;000.727;MIDI 01
013.896;000.194;40;000.625;MIDI 01
013.908;000.190;44;000.633;MIDI 01
014.204;000.002;45;000.352;MIDI 01
014.160;000.149;47;000.711;MIDI 01
014.172;000.192;59;000.633;MIDI 01
014.174;000.195;61;000.656;MIDI 01
014.174;000.214;64;000.695;MIDI 01
014.170;000.224;52;000.680;MIDI 01
014.406;000.103;47;000.727;MIDI 01
014.398;000.181;38;000.648;MIDI 01
014.409;000.273;46;000.703;MIDI 01
014.645;000.093;47;000.695;MIDI 01
014.651;000.089;52;000.672;MIDI 01
014.669;000.083;59;000.555;MIDI 01
014.662;000.149;61;000.625;MIDI 01
014.653;000.174;64;000.656;MIDI 01
014.968;000.047;24;000.562;MIDI 01
014.944;000.078;23;000.875;MIDI 01
015.026;000.059;26;000.211;MIDI 01
015.273;000.101;59;000.641;MIDI 01
015.269;000.134;61;000.734;MIDI 01
015.279;000.161;64;000.672;MIDI 01
015.400;000.089;66;000.703;MIDI 01
015.592;000.080;50;000.633;MIDI 01
015.602;000.109;49;000.641;MIDI 01
015.600;000.117;44;000.594;MIDI 01
015.922;000.049;50;000.570;MIDI 01
015.917;000.109;59;000.484;MIDI 01
015.914;000.166;61;000.531;MIDI 01
016.166;000.062;29;000.719;MIDI 01
016.164;000.081;38;000.781;MIDI 01
016.173;000.091;34;000.688;MIDI 01
016.455;000.067;50;000.531;MIDI 01
016.451;000.073;59;000.453;MIDI 01
016.447;000.135;61;000.508;MIDI 01
016.676;000.052;50;000.562;MIDI 01
016.696;000.047;49;000.508;MIDI 01
016.690;000.061;44;000.531;MIDI 01
016.973;000.046;50;000.492;MIDI 01
016.991;000.059;59;000.344;MIDI 01
016.981;000.116;61;000.484;MIDI 01
017.232;000.055;21;000.703;MIDI 01
017.234;000.057;23;000.711;MIDI 01
017.539;000.047;50;000.414;MIDI 01
017.538;000.056;59;000.383;MIDI 01
017.512;000.134;61;000.500;MIDI 01
017.748;000.054;50;000.461;MIDI 01
017.767;000.052;44;000.453;MIDI 01
017.750;000.073;49;000.539;MIDI 01
018.042;000.074;50;000.383;MIDI 01
018.077;000.066;59;000.258;MIDI 01
018.054;000.117;61;000.422;MIDI 01
018.290;000.045;46;000.422;MIDI 01
018.281;000.055;50;000.453;MIDI 01
018.282;000.057;41;000.469;MIDI 01
018.552;000.059;50;000.430;MIDI 01
018.571;000.044;59;000.273;MIDI 01
018.540;000.120;61;000.445;MIDI 01
018.789;000.073;50;000.375;MIDI 01
018.801;000.061;49;000.391;MIDI 01
018.803;000.061;44;000.391;MIDI 01
019.077;000.055;50;000.375;MIDI 01
019.083;000.089;59;000.227;MIDI 01
015.594;003.671;55;000.727;MIDI 01
019.065;000.215;61;000.422;MIDI 01
015.588;003.712;67;000.758;MIDI 01
019.342;000.055;46;000.406;MIDI 01
019.325;000.083;50;000.375;MIDI 01
019.329;000.084;41;000.398;MIDI 01
019.445;000.140;69;000.555;MIDI 01
019.573;000.066;61;000.523;MIDI 01
019.582;000.093;50;000.492;MIDI 01
019.584;000.109;59;000.445;MIDI 01
019.598;000.125;67;000.609;MIDI 01
019.711;000.114;66;000.594;MIDI 01
019.834;000.045;50;000.484;MIDI 01
019.829;000.082;44;000.500;MIDI 01
019.822;000.093;49;000.555;MIDI 01
019.825;000.131;67;000.656;MIDI 01
019.942;000.053;66;000.648;MIDI 01
020.059;000.094;50;000.617;MIDI 01
020.089;000.071;59;000.664;MIDI 01
020.087;000.116;52;000.680;MIDI 01
020.091;000.129;61;000.648;MIDI 01
020.082;000.150;64;000.703;MIDI 01
020.330;000.130;47;000.672;MIDI 01
020.321;000.182;38;000.648;MIDI 01
020.328;000.207;46;000.664;MIDI 01
020.610;000.142;47;000.516;MIDI 01
020.625;000.233;52;000.414;MIDI 01
020.616;000.245;59;000.484;MIDI 01
020.603;000.267;64;000.539;MIDI 01
020.618;000.261;61;000.492;MIDI 01
020.876;000.134;47;000.625;MIDI 01
020.865;000.170;40;000.562;MIDI 01
020.874;000.175;44;000.555;MIDI 01
021.181;000.044;62;000.383;MIDI 01
021.123;000.144;47;000.648;MIDI 01
021.144;000.250;59;000.562;MIDI 01
021.151;000.253;52;000.578;MIDI 01
021.146;000.268;61;000.578;MIDI 01
021.137;000.309;64;000.633;MIDI 01
021.374;000.152;47;000.672;MIDI 01
021.370;000.191;38;000.609;MIDI 01
021.372;000.218;46;000.633;MIDI 01
021.645;000.146;47;000.711;MIDI 01
021.658;000.242;59;000.617;MIDI 01
021.654;000.268;61;000.609;MIDI 01
021.656;000.273;52;000.672;MIDI 01
021.651;000.307;64;000.648;MIDI 01
021.891;000.119;47;000.758;MIDI 01
021.893;000.186;40;000.648;MIDI 01
021.900;000.185;44;000.633;MIDI 01
022.132;000.075;47;000.711;MIDI 01
022.136;000.097;52;000.672;MIDI 01
022.144;000.144;59;000.586;MIDI 01
022.146;000.191;61;000.625;MIDI 01
022.139;000.202;64;000.641;MIDI 01
022.428;000.002;26;000.516;MIDI 01
022.416;000.055;21;000.508;MIDI 01
022.395;000.081;23;000.836;MIDI 01
022.692;000.114;59;000.594;MIDI 01
022.689;000.139;61;000.664;MIDI 01
022.703;000.155;64;000.578;MIDI 01
022.805;000.102;66;000.688;MIDI 01
022.954;000.052;50;000.625;MIDI 01
022.965;000.062;49;000.609;MIDI 01
022.967;000.062;44;000.602;MIDI 01
023.309;000.047;50;000.508;MIDI 01
023.333;000.072;59;000.398;MIDI 01
023.312;000.147;61;000.508;MIDI 01
023.555;000.062;29;000.695;MIDI 01
023.550;000.080;38;000.766;MIDI 01
023.551;000.093;34;000.680;MIDI 01
023.833;000.070;59;000.445;MIDI 01
023.845;000.060;50;000.500;MIDI 01
023.818;000.148;61;000.508;MIDI 01
024.094;000.049;50;000.430;MIDI 01
024.102;000.045;44;000.414;MIDI 01
024.092;000.056;49;000.477;MIDI 01
024.353;000.050;50;000.438;MIDI 01
024.360;000.079;59;000.367;MIDI 01
022.960;001.579;55;000.688;MIDI 01
024.365;000.193;61;000.484;MIDI 01
022.962;001.618;67;000.742;MIDI 01
024.624;000.072;46;000.391;MIDI 01
024.624;000.077;50;000.352;MIDI 01
024.629;000.074;41;000.414;MIDI 01
024.727;000.117;69;000.539;MIDI 01
024.848;000.077;61;000.438;MIDI 01
024.840;000.089;59;000.312;MIDI 01
024.870;000.095;50;000.492;MIDI 01
024.871;000.148;67;000.594;MIDI 01
024.996;000.125;66;000.578;MIDI 01
025.127;000.092;44;000.484;MIDI 01
025.125;000.094;50;000.484;MIDI 01
025.129;000.097;49;000.492;MIDI 01
025.121;000.177;67;000.625;MIDI 01
025.260;000.139;66;000.578;MIDI 01
025.384;000.102;50;000.484;MIDI 01
025.378;000.130;59;000.383;MIDI 01
025.381;000.226;61;000.477;MIDI 01
025.502;000.183;69;000.555;MIDI 01
025.644;000.065;50;000.438;MIDI 01
025.642;000.070;41;000.391;MIDI 01
025.650;000.066;46;000.391;MIDI 01
025.644;000.123;67;000.539;MIDI 01
025.755;000.083;66;000.570;MIDI 01
025.854;000.103;50;000.492;MIDI 01
025.874;000.170;67;000.648;MIDI 01
025.890;000.156;61;000.539;MIDI 01
025.883;000.180;59;000.492;MIDI 01
026.007;000.130;66;000.562;MIDI 01
026.135;000.075;50;000.438;MIDI 01
026.142;000.078;44;000.406;MIDI 01
026.145;000.091;49;000.414;MIDI 01
026.280;000.171;67;000.500;MIDI 01
026.389;000.068;61;000.414;MIDI 01
026.386;000.101;50;000.453;MIDI 01
026.420;000.117;59;000.406;MIDI 01
026.421;000.153;66;000.500;MIDI 01
026.657;000.057;46;000.438;MIDI 01
026.653;000.076;41;000.430;MIDI 01
026.652;000.085;50;000.492;MIDI 01
026.671;000.191;67;000.555;MIDI 01
026.788;000.185;66;000.555;MIDI 01
026.913;000.086;50;000.516;MIDI 01
026.925;000.182;59;000.562;MIDI 01
026.918;000.260;61;000.570;MIDI 01
027.040;000.202;67;000.625;MIDI 01
027.157;000.097;50;000.516;MIDI 01
027.157;000.129;44;000.500;MIDI 01
027.158;000.136;49;000.500;MIDI 01
027.167;000.154;66;000.617;MIDI 01
027.398;000.124;50;000.562;MIDI 01
027.420;000.133;61;000.594;MIDI 01
027.426;000.159;59;000.578;MIDI 01
027.410;000.183;67;000.664;MIDI 01
027.520;000.133;66;000.586;MIDI 01
027.677;000.062;50;000.508;MIDI 01
027.682;000.073;41;000.430;MIDI 01
027.701;000.056;46;000.398;MIDI 01
027.808;000.135;66;000.562;MIDI 01
027.919;000.077;50;000.516;MIDI 01
027.927;000.160;67;000.609;MIDI 01
028.049;000.171;69;000.633;MIDI 01
028.182;000.040;59;000.633;MIDI 01
028.161;000.066;71;000.672;MIDI 01
028.184;000.109;55;000.648;MIDI 01
028.196;000.111;54;000.578;MIDI 01
028.186;000.184;49;000.609;MIDI 01
028.303;000.139;60;000.734;MIDI 01
028.427;000.044;55;000.656;MIDI 01
028.436;000.054;54;000.648;MIDI 01
028.431;000.114;64;000.609;MIDI 01
028.439;000.146;66;000.672;MIDI 01
028.300;000.286;72;000.797;MIDI 01
028.651;000.024;34;000.727;MIDI 01
028.656;000.023;42;000.695;MIDI 01
028.653;000.052;43;000.719;MIDI 01
028.793;000.025;34;000.062;MIDI 01
028.870;000.019;83;000.617;MIDI 01
028.872;000.026;71;000.578;MIDI 01
028.874;000.043;76;000.547;MIDI 01
028.893;000.048;54;000.586;MIDI 01
028.884;000.058;55;000.633;MIDI 01
028.866;000.079;78;000.648;MIDI 01
028.975;000.065;84;000.758;MIDI 01
028.980;000.103;72;000.727;MIDI 01
029.141;000.083;54;000.414;MIDI 01
029.139;000.088;55;000.508;MIDI 01
029.143;000.102;49;000.492;MIDI 01
029.392;000.072;55;000.438;MIDI 01
029.390;000.076;54;000.438;MIDI 01
029.393;000.111;64;000.453;MIDI 01
029.406;000.133;66;000.438;MIDI 01
029.650;000.032;71;000.570;MIDI 01
029.648;000.036;59;000.562;MIDI 01
029.660;000.068;55;000.469;MIDI 01
029.669;000.067;54;000.438;MIDI 01
029.652;000.091;46;000.492;MIDI 01
029.764;000.079;60;000.672;MIDI 01
029.891;000.120;64;000.539;MIDI 01
029.910;000.117;55;000.547;MIDI 01
029.916;000.114;54;000.516;MIDI 01
029.884;000.152;66;000.578;MIDI 01
029.765;000.276;72;000.672;MIDI 01
030.149;000.065;55;000.570;MIDI 01
030.155;000.068;54;000.523;MIDI 01
030.147;000.106;49;000.523;MIDI 01
030.335;000.020;71;000.555;MIDI 01
030.344;000.027;83;000.438;MIDI 01
030.337;000.043;78;000.602;MIDI 01
030.346;000.036;76;000.508;MIDI 01
030.353;000.049;55;000.609;MIDI 01
030.355;000.050;54;000.633;MIDI 01
030.435;000.051;84;000.758;MIDI 01
030.439;000.068;72;000.680;MIDI 01
030.558;000.036;34;000.719;MIDI 01
030.566;000.035;42;000.688;MIDI 01
030.561;000.048;43;000.688;MIDI 01
030.654;000.030;59;000.641;MIDI 01
030.657;000.029;71;000.664;MIDI 01
030.690;000.028;60;000.391;MIDI 01
030.694;000.040;34;000.203;MIDI 01
030.784;000.030;54;000.531;MIDI 01
030.769;000.056;55;000.617;MIDI 01
030.819;000.036;62;000.469;MIDI 01
030.845;000.059;67;000.391;MIDI 01
030.831;000.084;66;000.102;MIDI 01
030.801;000.125;65;000.562;MIDI 01
030.797;000.156;64;000.523;MIDI 01
030.786;000.199;60;000.648;MIDI 01
030.771;000.220;72;000.773;MIDI 01
031.043;000.097;55;000.484;MIDI 01
031.053;000.090;49;000.469;MIDI 01
031.051;000.093;54;000.430;MIDI 01
031.292;000.029;59;000.492;MIDI 01
031.296;000.026;71;000.508;MIDI 01
031.308;000.049;55;000.430;MIDI 01
031.312;000.051;54;000.438;MIDI 01
031.409;000.036;72;000.617;MIDI 01
031.417;000.031;60;000.492;MIDI 01
031.540;000.028;62;000.680;MIDI 01
031.547;000.023;74;000.711;MIDI 01
031.551;000.053;54;000.500;MIDI 01
031.543;000.064;55;000.547;MIDI 01
031.545;000.070;46;000.586;MIDI 01
031.659;000.037;60;000.664;MIDI 01
031.672;000.027;72;000.656;MIDI 01
031.792;000.032;62;000.703;MIDI 01
031.790;000.041;74;000.734;MIDI 01
031.766;000.078;55;000.617;MIDI 01
031.777;000.086;54;000.594;MIDI 01
031.911;000.033;75;000.594;MIDI 01
031.905;000.042;63;000.695;MIDI 01
031.971;000.075;73;000.234;MIDI 01
032.028;000.029;74;000.750;MIDI 01
032.027;000.036;62;000.695;MIDI 01
032.057;000.014;64;000.359;MIDI 01
032.010;000.115;55;000.609;MIDI 01
032.013;000.130;54;000.602;MIDI 01
032.130;000.057;60;000.820;MIDI 01
032.133;000.056;72;000.758;MIDI 01
032.018;000.178;49;000.586;MIDI 01
032.279;000.059;55;000.672;MIDI 01
032.282;000.059;54;000.719;MIDI 01
032.555;000.002;37;000.328;MIDI 01
032.518;000.045;34;000.789;MIDI 01
032.519;000.055;42;000.734;MIDI 01
032.516;000.089;43;000.805;MIDI 01
032.582;000.057;39;000.227;MIDI 01
032.790;000.033;43;000.781;MIDI 01
032.792;000.069;54;000.719;MIDI 01
032.843;000.038;51;000.320;MIDI 01
032.794;000.093;55;000.719;MIDI 01
032.915;000.039;53;000.250;MIDI 01
032.929;000.026;43;000.023;MIDI 01
033.117;000.097;55;000.414;MIDI 01
033.109;000.120;54;000.438;MIDI 01
033.111;000.127;49;000.461;MIDI 01
033.400;000.070;55;000.438;MIDI 01
033.392;000.106;54;000.500;MIDI 01
033.626;000.071;55;000.430;MIDI 01
033.641;000.058;54;000.438;MIDI 01
033.631;000.070;46;000.469;MIDI 01
033.746;000.026;77;000.594;MIDI 01
033.742;000.033;89;000.609;MIDI 01
033.864;000.032;75;000.609;MIDI 01
033.868;000.046;87;000.664;MIDI 01
033.859;000.096;55;000.539;MIDI 01
033.862;000.095;54;000.523;MIDI 01
033.982;000.027;74;000.719;MIDI 01
033.987;000.032;86;000.727;MIDI 01
034.108;000.046;87;000.727;MIDI 01
034.105;000.057;75;000.734;MIDI 01
034.094;000.099;55;000.664;MIDI 01
034.099;000.117;54;000.625;MIDI 01
034.218;000.042;74;000.664;MIDI 01
034.212;000.054;86;000.742;MIDI 01
034.097;000.173;49;000.570;MIDI 01
034.334;000.029;55;000.578;MIDI 01
034.325;000.056;54;000.594;MIDI 01
034.332;000.069;84;000.727;MIDI 01
034.336;000.099;72;000.695;MIDI 01
034.554;000.028;34;000.734;MIDI 01
034.556;000.028;42;000.719;MIDI 01
034.584;000.002;44;000.430;MIDI 01
034.558;000.060;43;000.711;MIDI 01
034.670;000.031;77;000.641;MIDI 01
034.667;000.036;65;000.641;MIDI 01
034.795;000.045;54;000.602;MIDI 01
034.799;000.043;63;000.711;MIDI 01
034.786;000.060;55;000.711;MIDI 01
034.802;000.049;75;000.672;MIDI 01
034.922;000.020;62;000.617;MIDI 01
034.924;000.023;74;000.641;MIDI 01
035.007;000.065;55;000.641;MIDI 01
035.023;000.059;54;000.617;MIDI 01
035.011;000.183;60;000.727;MIDI 01
035.015;000.210;72;000.766;MIDI 01
035.300;000.002;27;000.430;MIDI 01
035.259;000.051;22;000.836;MIDI 01
035.297;000.065;21;000.461;MIDI 01
035.304;000.067;25;000.289;MIDI 01
035.383;000.069;28;000.156;MIDI 01
035.578;000.019;75;000.539;MIDI 01
035.580;000.018;55;000.523;MIDI 01
035.576;000.024;63;000.539;MIDI 01
035.574;000.031;54;000.547;MIDI 01
035.584;000.047;46;000.406;MIDI 01
035.691;000.022;74;000.586;MIDI 01
035.681;000.035;62;000.578;MIDI 01
035.810;000.043;54;000.375;MIDI 01
035.805;000.053;55;000.336;MIDI 01
035.812;000.102;60;000.523;MIDI 01
035.810;000.142;72;000.477;MIDI 01
035.830;000.123;74;000.367;MIDI 01
036.035;000.107;54;000.398;MIDI 01
036.046;000.100;55;000.422;MIDI 01
036.050;000.107;49;000.445;MIDI 01
036.161;000.024;74;000.602;MIDI 01
036.164;000.029;62;000.539;MIDI 01
036.291;000.024;60;000.656;MIDI 01
036.296;000.056;54;000.523;MIDI 01
036.304;000.050;55;000.484;MIDI 01
036.289;000.074;72;000.688;MIDI 01
036.532;000.025;72;000.625;MIDI 01
036.538;000.033;83;000.570;MIDI 01
036.540;000.033;84;000.570;MIDI 01
036.532;000.054;54;000.555;MIDI 01
036.534;000.054;55;000.539;MIDI 01
036.535;000.076;46;000.531;MIDI 01
036.642;000.048;86;000.727;MIDI 01
036.644;000.055;74;000.695;MIDI 01
036.785;000.071;54;000.562;MIDI 01
036.776;000.091;55;000.539;MIDI 01
036.881;000.026;74;000.633;MIDI 01
036.890;000.020;62;000.508;MIDI 01
036.935;000.062;64;000.070;MIDI 01
036.977;000.052;60;000.719;MIDI 01
036.975;000.078;72;000.742;MIDI 01
036.984;000.094;55;000.648;MIDI 01
036.998;000.086;54;000.586;MIDI 01
036.996;000.098;49;000.547;MIDI 01
037.214;000.035;55;000.633;MIDI 01
037.216;000.037;71;000.625;MIDI 01
037.211;000.043;83;000.727;MIDI 01
037.234;000.021;72;000.531;MIDI 01
037.221;000.041;54;000.648;MIDI 01
037.323;000.044;86;000.781;MIDI 01
037.325;000.065;74;000.742;MIDI 01
037.395;000.002;84;000.195;MIDI 01
037.442;000.035;43;000.742;MIDI 01
037.444;000.034;34;000.758;MIDI 01
037.446;000.058;42;000.711;MIDI 01
037.551;000.039;62;000.703;MIDI 01
037.556;000.035;74;000.695;MIDI 01
037.684;000.052;55;000.672;MIDI 01
037.702;000.036;56;000.453;MIDI 01
037.685;000.074;54;000.664;MIDI 01
037.681;000.105;60;000.758;MIDI 01
037.676;000.128;72;000.680;MIDI 01
038.044;000.074;73;000.766;MIDI 01
038.040;000.079;61;000.750;MIDI 01
038.670;000.052;48;000.656;MIDI 01
038.677;000.073;60;000.703;MIDI 01
039.042;000.065;73;000.766;MIDI 01
039.040;000.069;61;000.766;MIDI 01
038.675;000.685;45;000.664;MIDI 01
038.680;000.705;33;000.648;MIDI 01
039.668;000.095;48;000.695;MIDI 01
039.672;000.165;60;000.734;MIDI 01
039.676;000.606;33;000.672;MIDI 01
039.674;000.623;45;000.695;MIDI 01
040.200;000.144;73;000.719;MIDI 01
041.220;000.581;46;000.438;MIDI 01
041.716;000.144;48;000.375;MIDI 01
041.849;000.071;49;000.469;MIDI 01
042.166;000.052;49;000.406;MIDI 01
042.426;000.088;40;000.391;MIDI 01
042.438;000.076;44;000.352;MIDI 01
042.427;000.089;47;000.398;MIDI 01
042.678;000.077;49;000.453;MIDI 01
042.944;000.083;46;000.398;MIDI 01
042.948;000.079;49;000.469;MIDI 01
042.950;000.080;47;000.398;MIDI 01
042.958;000.076;38;000.359;MIDI 01
043.240;000.076;49;000.391;MIDI 01
043.503;000.071;49;000.367;MIDI 01
043.793;000.060;49;000.320;MIDI 01
044.087;000.089;47;000.297;MIDI 01
044.077;000.102;46;000.281;MIDI 01
044.083;000.099;38;000.289;MIDI 01
044.347;000.066;49;000.438;MIDI 01
044.594;000.069;49;000.461;MIDI 01
044.849;000.062;49;000.445;MIDI 01
045.118;000.189;38;000.273;MIDI 01
045.150;000.164;47;000.258;MIDI 01
045.129;000.205;46;000.305;MIDI 01
045.385;000.058;49;000.469;MIDI 01
045.615;000.239;40;000.359;MIDI 01
045.649;000.227;47;000.344;MIDI 01
045.634;000.249;44;000.406;MIDI 01
045.870;000.075;49;000.484;MIDI 01
046.172;000.311;47;000.180;MIDI 01
046.150;000.353;38;000.273;MIDI 01
046.170;000.335;46;000.305;MIDI 01
046.456;000.060;49;000.344;MIDI 01
046.955;000.069;49;000.344;MIDI 01
047.273;000.072;47;000.258;MIDI 01
047.267;000.080;38;000.227;MIDI 01
047.264;000.091;46;000.258;MIDI 01
047.646;000.087;49;000.367;MIDI 01
040.202;007.583;61;000.711;MIDI 01
048.221;000.062;57;000.359;MIDI 01
048.219;000.075;48;000.344;MIDI 01
048.209;000.086;45;000.359;MIDI 01
048.496;000.068;45;000.328;MIDI 01
048.500;000.070;60;000.344;MIDI 01
048.498;000.085;48;000.352;MIDI 01
048.502;000.093;57;000.367;MIDI 01
048.742;000.073;45;000.398;MIDI 01
048.757;000.059;48;000.398;MIDI 01
048.755;000.092;60;000.422;MIDI 01
048.760;000.089;57;000.453;MIDI 01
049.040;000.053;50;000.320;MIDI 01
049.011;000.088;47;000.398;MIDI 01
049.007;000.096;59;000.484;MIDI 01
049.009;000.102;62;000.523;MIDI 01
049.271;000.089;45;000.445;MIDI 01
049.273;000.087;48;000.391;MIDI 01
049.263;000.100;57;000.469;MIDI 01
049.276;000.089;60;000.484;MIDI 01
049.526;000.107;59;000.523;MIDI 01
049.523;000.112;55;000.484;MIDI 01
049.529;000.107;47;000.445;MIDI 01
049.538;000.108;43;000.430;MIDI 01
049.796;000.074;41;000.453;MIDI 01
049.798;000.072;45;000.445;MIDI 01
049.788;000.086;57;000.508;MIDI 01
049.794;000.100;53;000.461;MIDI 01
050.064;000.090;43;000.445;MIDI 01
050.072;000.084;47;000.461;MIDI 01
050.055;000.112;59;000.562;MIDI 01
050.066;000.104;55;000.484;MIDI 01
050.379;000.138;60;000.648;MIDI 01
050.384;000.134;45;000.523;MIDI 01
050.379;000.141;57;000.523;MIDI 01
050.381;000.164;48;000.492;MIDI 01
050.952;000.032;60;000.539;MIDI 01
048.180;002.821;61;000.578;MIDI 01
050.952;000.154;57;000.430;MIDI 01
050.960;000.215;48;000.469;MIDI 01
050.957;000.232;45;000.445;MIDI 01
051.188;000.084;66;000.680;MIDI 01
051.450;000.001;28;000.312;MIDI 01
051.392;000.065;21;000.781;MIDI 01
051.417;000.048;23;000.539;MIDI 01
051.711;000.087;45;000.484;MIDI 01
051.735;000.073;48;000.453;MIDI 01
051.719;000.092;57;000.445;MIDI 01
051.732;000.078;60;000.523;MIDI 01
052.003;000.052;47;000.383;MIDI 01
051.996;000.076;50;000.430;MIDI 01
051.992;000.096;62;000.547;MIDI 01
052.000;000.090;59;000.453;MIDI 01
052.246;000.086;60;000.602;MIDI 01
052.251;000.099;48;000.523;MIDI 01
052.245;000.114;51;000.523;MIDI 01
052.239;000.144;63;000.586;MIDI 01
052.533;000.069;50;000.406;MIDI 01
052.531;000.075;62;000.484;MIDI 01
052.513;000.096;59;000.492;MIDI 01
052.529;000.084;47;000.430;MIDI 01
052.774;000.101;60;000.477;MIDI 01
052.796;000.084;48;000.406;MIDI 01
052.772;000.111;57;000.461;MIDI 01
052.785;000.108;45;000.422;MIDI 01
053.027;000.115;55;000.500;MIDI 01
053.041;000.105;47;000.430;MIDI 01
053.033;000.116;59;000.523;MIDI 01
053.043;000.125;43;000.445;MIDI 01
053.291;000.125;53;000.531;MIDI 01
053.288;000.130;57;000.578;MIDI 01
053.305;000.126;45;000.484;MIDI 01
053.300;000.142;41;000.508;MIDI 01
053.561;000.121;40;000.539;MIDI 01
053.559;000.129;55;000.609;MIDI 01
053.567;000.123;43;000.492;MIDI 01
053.571;000.140;52;000.508;MIDI 01
053.834;000.108;41;000.562;MIDI 01
053.841;000.108;45;000.547;MIDI 01
053.846;000.115;53;000.516;MIDI 01
053.834;000.161;57;000.641;MIDI 01
054.122;000.085;54;000.555;MIDI 01
054.158;000.089;42;000.461;MIDI 01
054.134;000.118;44;000.523;MIDI 01
054.130;000.168;58;000.602;MIDI 01
054.549;000.168;53;000.312;MIDI 01
054.517;000.310;38;000.273;MIDI 01
054.547;000.282;50;000.328;MIDI 01
054.539;000.299;41;000.344;MIDI 01
055.101;000.055;38;000.375;MIDI 01
055.107;000.061;41;000.336;MIDI 01
055.128;000.042;53;000.445;MIDI 01
051.317;003.884;61;000.672;MIDI 01
055.122;000.084;50;000.266;MIDI 01
055.404;000.173;78;000.664;MIDI 01
055.542;000.207;73;000.609;MIDI 01
055.676;000.082;67;000.328;MIDI 01
055.650;000.126;59;000.484;MIDI 01
055.667;000.111;55;000.398;MIDI 01
055.644;000.348;71;000.500;MIDI 01
055.965;000.097;56;000.430;MIDI 01
055.960;000.103;60;000.430;MIDI 01
056.026;000.040;72;000.250;MIDI 01
055.978;000.129;68;000.352;MIDI 01
056.271;000.048;67;000.406;MIDI 01
056.256;000.078;55;000.453;MIDI 01
056.233;000.115;59;000.461;MIDI 01
056.226;000.123;71;000.414;MIDI 01
056.500;000.064;65;000.438;MIDI 01
056.505;000.064;69;000.492;MIDI 01
056.503;000.075;57;000.469;MIDI 01
056.501;000.108;53;000.430;MIDI 01
056.766;000.051;64;000.492;MIDI 01
056.746;000.101;67;000.562;MIDI 01
056.757;000.094;55;000.531;MIDI 01
056.774;000.081;52;000.430;MIDI 01
057.032;000.071;65;000.586;MIDI 01
057.034;000.071;62;000.555;MIDI 01
055.870;001.255;73;000.172;MIDI 01
055.531;001.780;61;000.570;MIDI 01
057.288;000.123;78;000.688;MIDI 01
057.029;000.403;53;000.539;MIDI 01
057.039;000.441;50;000.500;MIDI 01
057.378;000.116;73;000.641;MIDI 01
057.539;000.106;64;000.500;MIDI 01
057.544;000.107;55;000.578;MIDI 01
057.535;000.122;52;000.586;MIDI 01
057.554;000.118;67;000.578;MIDI 01
057.834;000.072;65;000.477;MIDI 01
057.843;000.093;53;000.430;MIDI 01
057.837;000.099;57;000.492;MIDI 01
057.828;000.200;68;000.523;MIDI 01
058.091;000.071;67;000.547;MIDI 01
058.097;000.078;64;000.508;MIDI 01
058.094;000.101;52;000.539;MIDI 01
058.092;000.136;55;000.523;MIDI 01
058.355;000.102;65;000.562;MIDI 01
058.357;000.101;62;000.539;MIDI 01
058.351;000.108;50;000.516;MIDI 01
058.353;000.111;53;000.562;MIDI 01
057.427;001.160;61;000.656;MIDI 01
058.654;000.055;49;000.156;MIDI 01
058.604;000.107;60;000.609;MIDI 01
058.600;000.114;64;000.586;MIDI 01
058.606;000.109;52;000.570;MIDI 01
058.623;000.110;48;000.594;MIDI 01
058.858;000.072;47;000.555;MIDI 01
058.866;000.068;50;000.547;MIDI 01
058.864;000.080;62;000.594;MIDI 01
058.854;000.183;65;000.602;MIDI 01
057.524;001.592;73;000.594;MIDI 01
059.135;000.050;60;000.656;MIDI 01
059.138;000.178;48;000.570;MIDI 01
059.130;000.195;45;000.617;MIDI 01
059.125;000.254;57;000.625;MIDI 01
059.388;000.143;78;000.734;MIDI 01
059.631;000.103;47;000.562;MIDI 01
059.633;000.114;50;000.492;MIDI 01
059.635;000.148;59;000.523;MIDI 01
059.626;000.171;62;000.523;MIDI 01
059.975;000.124;62;000.539;MIDI 01
059.991;000.139;51;000.492;MIDI 01
059.993;000.139;50;000.484;MIDI 01
059.990;000.255;66;000.547;MIDI 01
060.272;000.036;60;000.445;MIDI 01
060.256;000.116;59;000.430;MIDI 01
060.266;000.115;50;000.508;MIDI 01
060.237;000.147;62;000.672;MIDI 01
060.249;000.137;47;000.531;MIDI 01
059.495;001.028;73;000.625;MIDI 01
060.492;000.130;57;000.633;MIDI 01
060.495;000.130;45;000.609;MIDI 01
060.518;000.111;48;000.555;MIDI 01
060.494;000.141;60;000.625;MIDI 01
060.758;000.110;59;000.750;MIDI 01
060.756;000.115;55;000.656;MIDI 01
060.797;000.076;68;000.352;MIDI 01
060.769;000.106;47;000.609;MIDI 01
060.761;000.122;43;000.602;MIDI 01
061.010;000.070;53;000.641;MIDI 01
061.014;000.089;57;000.820;MIDI 01
061.017;000.089;45;000.633;MIDI 01
061.016;000.112;41;000.641;MIDI 01
061.328;000.101;40;000.641;MIDI 01
061.327;000.111;43;000.664;MIDI 01
061.323;000.121;52;000.727;MIDI 01
061.321;000.163;55;000.734;MIDI 01
061.882;000.061;68;000.703;MIDI 01
061.899;000.064;85;000.758;MIDI 01
061.896;000.089;80;000.734;MIDI 01
061.894;000.095;73;000.742;MIDI 01
061.890;000.101;61;000.664;MIDI 01
062.460;000.146;55;000.750;MIDI 01
062.454;000.163;40;000.711;MIDI 01
062.456;000.163;43;000.719;MIDI 01
062.462;000.203;67;000.742;MIDI 01
063.100;000.071;68;000.812;MIDI 01
063.105;000.105;61;000.750;MIDI 01
063.159;000.057;82;000.180;MIDI 01
063.107;000.569;80;000.734;MIDI 01
063.101;000.596;73;000.750;MIDI 01
063.103;000.609;85;000.773;MIDI 01
063.776;000.002;27;000.547;MIDI 01
063.759;000.055;22;000.891;MIDI 01
063.780;000.070;21;000.531;MIDI 01
063.805;000.064;25;000.273;MIDI 01
064.282;000.043;64;000.359;MIDI 01
064.280;000.046;55;000.453;MIDI 01
064.274;000.056;73;000.500;MIDI 01
064.268;000.080;52;000.430;MIDI 01
064.278;000.080;80;000.523;MIDI 01
064.276;000.125;85;000.570;MIDI 01
064.522;000.058;75;000.648;MIDI 01
064.522;000.071;62;000.570;MIDI 01
064.524;000.075;87;000.695;MIDI 01
064.520;000.082;50;000.531;MIDI 01
064.526;000.081;82;000.586;MIDI 01
064.531;000.082;53;000.500;MIDI 01
064.767;000.059;75;000.719;MIDI 01
064.764;000.087;62;000.594;MIDI 01
064.766;000.090;87;000.734;MIDI 01
064.761;000.099;50;000.586;MIDI 01
064.769;000.126;53;000.555;MIDI 01
064.775;000.158;82;000.664;MIDI 01
065.070;000.045;64;000.422;MIDI 01
065.068;000.072;73;000.516;MIDI 01
065.058;000.135;52;000.453;MIDI 01
065.074;000.127;55;000.508;MIDI 01
065.064;000.147;80;000.508;MIDI 01
065.072;000.164;85;000.555;MIDI 01
065.298;000.083;87;000.758;MIDI 01
065.290;000.094;62;000.633;MIDI 01
065.296;000.091;75;000.727;MIDI 01
065.287;000.125;50;000.602;MIDI 01
065.292;000.136;53;000.570;MIDI 01
065.294;000.161;82;000.688;MIDI 01
065.531;000.032;64;000.531;MIDI 01
065.536;000.047;55;000.594;MIDI 01
065.529;000.070;52;000.656;MIDI 01
065.544;000.122;73;000.711;MIDI 01
065.550;000.165;80;000.648;MIDI 01
065.548;000.220;85;000.703;MIDI 01
065.761;000.028;22;000.836;MIDI 01
065.799;000.056;25;000.492;MIDI 01
065.875;000.053;30;000.023;MIDI 01
066.078;000.049;75;000.492;MIDI 01
066.089;000.056;50;000.398;MIDI 01
066.081;000.066;82;000.422;MIDI 01
066.060;000.092;87;000.578;MIDI 01
066.099;000.073;62;000.344;MIDI 01
066.117;000.060;53;000.281;MIDI 01
066.312;000.067;50;000.352;MIDI 01
066.306;000.077;75;000.570;MIDI 01
066.308;000.081;62;000.516;MIDI 01
066.299;000.098;87;000.609;MIDI 01
066.315;000.105;53;000.492;MIDI 01
066.310;000.159;82;000.500;MIDI 01
066.529;000.034;64;000.617;MIDI 01
066.532;000.045;73;000.625;MIDI 01
066.539;000.046;80;000.594;MIDI 01
066.541;000.051;55;000.555;MIDI 01
066.528;000.090;52;000.602;MIDI 01
066.535;000.114;85;000.641;MIDI 01
066.749;000.046;59;000.641;MIDI 01
066.755;000.043;78;000.711;MIDI 01
066.757;000.046;47;000.570;MIDI 01
066.751;000.054;50;000.625;MIDI 01
066.754;000.060;90;000.781;MIDI 01
066.763;000.054;87;000.656;MIDI 01
067.015;000.030;90;000.641;MIDI 01
067.011;000.035;78;000.656;MIDI 01
067.029;000.035;87;000.516;MIDI 01
067.032;000.042;52;000.531;MIDI 01
067.021;000.055;60;000.594;MIDI 01
067.023;000.055;48;000.570;MIDI 01
067.253;000.043;73;000.656;MIDI 01
067.255;000.052;80;000.594;MIDI 01
067.258;000.052;50;000.523;MIDI 01
067.261;000.053;53;000.516;MIDI 01
067.252;000.067;62;000.641;MIDI 01
067.251;000.082;85;000.703;MIDI 01
067.487;000.057;75;000.734;MIDI 01
067.490;000.069;87;000.750;MIDI 01
067.504;000.105;82;000.633;MIDI 01
067.492;000.190;52;000.648;MIDI 01
067.494;000.194;55;000.625;MIDI 01
067.483;000.217;64;000.695;MIDI 01
067.731;000.034;85;000.648;MIDI 01
067.735;000.040;80;000.656;MIDI 01
067.733;000.049;73;000.703;MIDI 01
067.965;000.044;66;000.734;MIDI 01
067.970;000.062;65;000.641;MIDI 01
067.979;000.060;57;000.602;MIDI 01
067.973;000.069;75;000.641;MIDI 01
067.968;000.076;78;000.719;MIDI 01
067.977;000.092;53;000.578;MIDI 01
068.075;000.037;55;000.039;MIDI 01
068.261;000.032;64;000.641;MIDI 01
068.291;000.034;62;000.422;MIDI 01
068.268;000.061;85;000.758;MIDI 01
068.267;000.073;55;000.656;MIDI 01
068.259;000.089;52;000.641;MIDI 01
068.273;000.092;80;000.781;MIDI 01
068.271;000.096;73;000.773;MIDI 01
068.908;000.002;29;000.289;MIDI 01
068.916;000.002;28;000.188;MIDI 01
068.885;000.043;25;000.492;MIDI 01
068.851;000.133;22;000.742;MIDI 01
068.853;000.269;46;000.773;MIDI 01
069.900;000.069;64;000.664;MIDI 01
069.910;000.123;85;000.766;MIDI 01
069.902;000.176;80;000.703;MIDI 01
069.904;000.183;73;000.734;MIDI 01
069.897;000.203;52;000.656;MIDI 01
069.912;000.190;55;000.617;MIDI 01
070.553;000.048;46;000.844;MIDI 01
070.605;000.002;27;000.289;MIDI 01
070.590;000.046;25;000.391;MIDI 01
070.550;000.093;22;000.805;MIDI 01
071.060;000.031;46;000.797;MIDI 01
071.055;000.050;22;000.742;MIDI 01
071.109;000.044;25;000.266;MIDI 01
071.319;000.031;75;000.688;MIDI 01
071.325;000.034;50;000.578;MIDI 01
071.316;000.048;85;000.695;MIDI 01
071.333;000.032;62;000.562;MIDI 01
071.350;000.023;82;000.359;MIDI 01
071.364;000.050;60;000.281;MIDI 01
071.576;000.031;50;000.555;MIDI 01
071.614;000.002;85;000.219;MIDI 01
071.620;000.002;82;000.102;MIDI 01
071.564;000.062;75;000.719;MIDI 01
071.607;000.031;88;000.422;MIDI 01
071.566;000.094;52;000.531;MIDI 01
071.560;000.112;62;000.586;MIDI 01
071.556;000.136;54;000.648;MIDI 01
071.638;000.057;84;000.234;MIDI 01
071.590;000.117;83;000.461;MIDI 01
071.566;000.144;87;000.789;MIDI 01
071.781;000.032;64;000.500;MIDI 01
071.784;000.060;55;000.578;MIDI 01
071.782;000.078;52;000.617;MIDI 01
071.842;000.020;76;000.438;MIDI 01
071.865;000.033;80;000.312;MIDI 01
071.814;000.094;85;000.594;MIDI 01
072.040;000.002;32;000.539;MIDI 01
072.015;000.030;22;000.719;MIDI 01
072.013;000.069;25;000.734;MIDI 01
072.057;000.050;80;000.312;MIDI 01
072.085;000.034;85;000.336;MIDI 01
072.065;000.057;27;000.320;MIDI 01
072.082;000.049;73;000.227;MIDI 01
072.154;000.023;22;000.164;MIDI 01
072.269;000.029;64;000.641;MIDI 01
072.279;000.041;52;000.570;MIDI 01
072.296;000.030;55;000.406;MIDI 01
072.250;000.078;85;000.609;MIDI 01
072.257;000.073;73;000.633;MIDI 01
072.273;000.093;80;000.594;MIDI 01
072.499;000.070;70;000.688;MIDI 01
072.497;000.092;50;000.594;MIDI 01
072.485;000.105;82;000.719;MIDI 01
072.494;000.099;62;000.648;MIDI 01
072.487;000.107;53;000.609;MIDI 01
072.739;000.031;68;000.672;MIDI 01
072.736;000.047;64;000.664;MIDI 01
072.741;000.047;52;000.633;MIDI 01
072.742;000.059;55;000.586;MIDI 01
072.774;000.029;74;000.359;MIDI 01
072.740;000.077;80;000.641;MIDI 01
072.794;000.057;78;000.141;MIDI 01
073.019;000.002;85;000.328;MIDI 01
072.976;000.061;75;000.750;MIDI 01
073.032;000.027;56;000.031;MIDI 01
072.979;000.103;87;000.719;MIDI 01
072.981;000.152;82;000.711;MIDI 01
073.203;000.033;64;000.664;MIDI 01
073.213;000.035;73;000.695;MIDI 01
073.215;000.043;80;000.656;MIDI 01
073.206;000.065;55;000.648;MIDI 01
073.204;000.081;52;000.609;MIDI 01
073.220;000.085;85;000.633;MIDI 01
073.430;000.029;50;000.648;MIDI 01
073.432;000.029;59;000.664;MIDI 01
073.443;000.023;90;000.773;MIDI 01
073.441;000.026;47;000.586;MIDI 01
073.447;000.022;78;000.688;MIDI 01
073.448;000.023;87;000.672;MIDI 01
073.695;000.039;73;000.672;MIDI 01
073.693;000.047;64;000.664;MIDI 01
073.701;000.045;55;000.609;MIDI 01
073.699;000.051;52;000.617;MIDI 01
073.710;000.042;80;000.555;MIDI 01
073.697;000.057;85;000.680;MIDI 01
073.947;000.050;75;000.695;MIDI 01
073.941;000.074;87;000.758;MIDI 01
073.949;000.074;62;000.641;MIDI 01
073.943;000.106;50;000.641;MIDI 01
073.952;000.105;82;000.641;MIDI 01
073.945;000.126;53;000.625;MIDI 01
074.198;000.047;55;000.609;MIDI 01
074.192;000.055;80;000.656;MIDI 01
074.189;000.060;73;000.719;MIDI 01
074.190;000.061;85;000.695;MIDI 01
074.180;000.073;64;000.688;MIDI 01
074.182;000.072;52;000.648;MIDI 01
074.474;000.055;57;000.641;MIDI 01
074.472;000.059;65;000.711;MIDI 01
074.468;000.076;53;000.641;MIDI 01
074.474;000.077;68;000.734;MIDI 01
074.470;000.083;75;000.672;MIDI 01
074.472;000.124;80;000.750;MIDI 01
074.796;000.029;80;000.406;MIDI 01
074.749;000.084;55;000.562;MIDI 01
074.757;000.081;59;000.609;MIDI 01
074.746;000.097;67;000.703;MIDI 01
075.000;000.072;57;000.664;MIDI 01
075.004;000.069;60;000.664;MIDI 01
074.996;000.079;69;000.688;MIDI 01
075.233;000.026;71;000.633;MIDI 01
075.264;000.045;69;000.344;MIDI 01
075.241;000.076;62;000.617;MIDI 01
075.231;000.086;59;000.641;MIDI 01
075.477;000.049;57;000.570;MIDI 01
075.487;000.041;53;000.539;MIDI 01
075.474;000.079;45;000.633;MIDI 01
075.751;000.046;55;000.539;MIDI 01
075.748;000.055;59;000.570;MIDI 01
075.741;000.072;47;000.602;MIDI 01
075.972;000.065;57;000.555;MIDI 01
075.973;000.076;60;000.539;MIDI 01
075.965;000.087;48;000.625;MIDI 01
076.223;000.056;50;000.516;MIDI 01
076.231;000.066;59;000.523;MIDI 01
076.225;000.074;62;000.539;MIDI 01
076.481;000.055;57;000.492;MIDI 01
076.478;000.073;53;000.484;MIDI 01
074.753;001.946;82;000.727;MIDI 01
074.747;002.009;73;000.734;MIDI 01
074.751;002.015;70;000.742;MIDI 01
076.744;000.064;59;000.461;MIDI 01
076.748;000.074;55;000.438;MIDI 01
076.984;000.057;57;000.469;MIDI 01
077.001;000.053;60;000.422;MIDI 01
077.243;000.042;62;000.438;MIDI 01
077.247;000.053;59;000.453;MIDI 01
077.230;000.292;56;000.664;MIDI 01
077.497;000.064;57;000.438;MIDI 01
077.489;000.084;58;000.672;MIDI 01
077.494;000.082;53;000.414;MIDI 01
077.742;000.048;59;000.477;MIDI 01
077.754;000.038;55;000.406;MIDI 01
078.001;000.034;68;000.586;MIDI 01
078.002;000.036;80;000.562;MIDI 01
077.999;000.048;60;000.453;MIDI 01
077.995;000.059;57;000.484;MIDI 01
078.105;000.035;80;000.695;MIDI 01
078.108;000.039;68;000.555;MIDI 01
078.222;000.047;62;000.508;MIDI 01
078.219;000.060;59;000.477;MIDI 01
078.228;000.125;70;000.703;MIDI 01
078.226;000.188;82;000.703;MIDI 01
078.461;000.059;57;000.492;MIDI 01
078.470;000.064;53;000.422;MIDI 01
078.713;000.023;92;000.641;MIDI 01
078.710;000.027;80;000.602;MIDI 01
078.718;000.058;59;000.500;MIDI 01
078.718;000.059;55;000.445;MIDI 01
078.803;000.044;80;000.594;MIDI 01
078.798;000.070;92;000.656;MIDI 01
078.917;000.069;94;000.812;MIDI 01
078.924;000.064;60;000.500;MIDI 01
078.922;000.085;57;000.531;MIDI 01
078.914;000.126;82;000.742;MIDI 01
079.032;000.035;81;000.250;MIDI 01
078.946;000.135;92;000.414;MIDI 01
079.177;000.042;62;000.484;MIDI 01
079.181;000.080;59;000.539;MIDI 01
079.460;000.043;32;000.711;MIDI 01
079.454;000.062;57;000.469;MIDI 01
079.457;000.095;53;000.414;MIDI 01
079.561;000.052;32;000.695;MIDI 01
079.657;000.081;59;000.578;MIDI 01
079.688;000.065;34;000.742;MIDI 01
079.657;000.097;55;000.555;MIDI 01
079.933;000.077;60;000.547;MIDI 01
079.935;000.082;57;000.562;MIDI 01
080.235;000.060;62;000.477;MIDI 01
080.237;000.121;59;000.484;MIDI 01
080.531;000.088;57;000.422;MIDI 01
080.536;000.105;53;000.406;MIDI 01
080.814;000.069;59;000.438;MIDI 01
080.822;000.069;55;000.391;MIDI 01
081.096;000.055;60;000.383;MIDI 01
081.086;000.070;57;000.430;MIDI 01
081.386;000.056;62;000.344;MIDI 01
081.378;000.097;59;000.391;MIDI 01
080.229;001.466;44;000.711;MIDI 01
081.670;000.060;57;000.359;MIDI 01
081.676;000.068;53;000.398;MIDI 01
081.953;000.034;44;000.484;MIDI 01
081.961;000.051;59;000.414;MIDI 01
081.959;000.068;55;000.383;MIDI 01
082.207;000.065;46;000.539;MIDI 01
082.224;000.062;60;000.438;MIDI 01
082.213;000.085;57;000.469;MIDI 01
082.473;000.049;59;000.547;MIDI 01
082.491;000.059;62;000.492;MIDI 01
082.472;000.083;48;000.578;MIDI 01
082.749;000.054;64;000.570;MIDI 01
082.742;000.066;50;000.586;MIDI 01
082.747;000.099;60;000.539;MIDI 01
083.026;000.075;62;000.461;MIDI 01
083.026;000.085;66;000.508;MIDI 01
083.048;000.112;52;000.523;MIDI 01
083.138;000.132;53;000.500;MIDI 01
083.204;000.142;54;000.484;MIDI 01
083.298;000.081;55;000.562;MIDI 01
083.368;000.095;65;000.516;MIDI 01
083.365;000.100;63;000.508;MIDI 01
083.865;000.040;56;000.352;MIDI 01
083.908;000.046;67;000.273;MIDI 01
083.902;000.059;64;000.320;MIDI 01
084.320;000.047;54;000.328;MIDI 01
084.333;000.041;62;000.336;MIDI 01
084.602;000.040;48;000.336;MIDI 01
084.598;000.064;52;000.438;MIDI 01
084.878;000.031;54;000.391;MIDI 01
084.890;000.048;62;000.438;MIDI 01
085.142;000.037;67;000.359;MIDI 01
085.131;000.053;64;000.430;MIDI 01
085.405;000.032;62;000.398;MIDI 01
085.418;000.041;54;000.336;MIDI 01
085.643;000.046;48;000.344;MIDI 01
085.644;000.064;52;000.461;MIDI 01
085.897;000.029;54;000.422;MIDI 01
085.894;000.048;62;000.477;MIDI 01
086.147;000.035;67;000.391;MIDI 01
086.139;000.051;64;000.469;MIDI 01
086.400;000.041;62;000.406;MIDI 01
086.425;000.039;54;000.297;MIDI 01
083.910;002.622;68;000.477;MIDI 01
086.634;000.031;56;000.328;MIDI 01
086.660;000.053;48;000.258;MIDI 01
086.659;000.059;68;000.484;MIDI 01
086.657;000.068;52;000.391;MIDI 01
086.938;000.034;54;000.398;MIDI 01
086.933;000.051;62;000.414;MIDI 01
086.934;000.052;68;000.523;MIDI 01
087.158;000.042;56;000.531;MIDI 01
087.174;000.039;64;000.492;MIDI 01
087.184;000.032;67;000.414;MIDI 01
087.182;000.064;68;000.516;MIDI 01
087.431;000.036;62;000.422;MIDI 01
087.433;000.036;70;000.484;MIDI 01
087.429;000.048;54;000.391;MIDI 01
087.704;000.071;48;000.320;MIDI 01
087.700;000.102;52;000.375;MIDI 01
087.711;000.247;70;000.500;MIDI 01
087.980;000.046;54;000.305;MIDI 01
087.972;000.056;62;000.383;MIDI 01
087.970;000.127;68;000.516;MIDI 01
088.199;000.036;56;000.328;MIDI 01
088.216;000.026;67;000.422;MIDI 01
088.204;000.052;64;000.469;MIDI 01
088.223;000.066;68;000.508;MIDI 01
088.461;000.046;54;000.398;MIDI 01
088.469;000.046;62;000.320;MIDI 01
088.451;000.068;70;000.531;MIDI 01
088.650;000.037;56;000.312;MIDI 01
088.684;000.066;48;000.320;MIDI 01
088.676;000.119;52;000.445;MIDI 01
088.696;000.213;70;000.578;MIDI 01
088.927;000.027;54;000.422;MIDI 01
088.929;000.061;62;000.484;MIDI 01
088.905;000.124;68;000.555;MIDI 01
089.125;000.044;56;000.398;MIDI 01
089.174;000.034;67;000.422;MIDI 01
089.160;000.080;64;000.500;MIDI 01
089.176;000.221;68;000.570;MIDI 01
089.401;000.055;62;000.492;MIDI 01
089.397;000.066;54;000.500;MIDI 01
089.395;000.118;70;000.617;MIDI 01
089.570;000.028;56;000.531;MIDI 01
089.648;000.054;71;000.602;MIDI 01
089.608;000.096;48;000.430;MIDI 01
089.610;000.112;52;000.469;MIDI 01
089.888;000.052;70;000.555;MIDI 01
089.892;000.064;62;000.477;MIDI 01
089.912;000.045;54;000.258;MIDI 01
090.143;000.043;56;000.359;MIDI 01
090.168;000.025;67;000.398;MIDI 01
090.173;000.049;64;000.375;MIDI 01
090.175;000.127;68;000.508;MIDI 01
090.423;000.040;62;000.320;MIDI 01
090.410;000.055;54;000.414;MIDI 01
090.673;000.046;51;000.250;MIDI 01
090.668;000.059;48;000.320;MIDI 01
090.659;000.117;52;000.422;MIDI 01
090.671;000.116;63;000.484;MIDI 01
090.905;000.048;62;000.445;MIDI 01
090.907;000.049;54;000.312;MIDI 01
091.131;000.041;56;000.414;MIDI 01
091.148;000.038;67;000.414;MIDI 01
091.160;000.058;64;000.383;MIDI 01
091.154;000.196;68;000.516;MIDI 01
091.391;000.033;73;000.523;MIDI 01
091.398;000.045;62;000.469;MIDI 01
091.396;000.078;54;000.477;MIDI 01
091.552;000.036;56;000.461;MIDI 01
091.594;000.078;48;000.484;MIDI 01
091.620;000.054;71;000.586;MIDI 01
091.603;000.086;52;000.484;MIDI 01
091.857;000.042;70;000.555;MIDI 01
091.866;000.035;54;000.398;MIDI 01
091.868;000.036;62;000.469;MIDI 01
092.112;000.045;56;000.336;MIDI 01
092.129;000.041;67;000.383;MIDI 01
092.126;000.071;64;000.453;MIDI 01
092.150;000.103;68;000.469;MIDI 01
092.382;000.028;62;000.398;MIDI 01
092.388;000.037;54;000.406;MIDI 01
092.585;000.034;51;000.398;MIDI 01
092.617;000.083;48;000.281;MIDI 01
092.625;000.102;63;000.500;MIDI 01
092.601;000.130;52;000.438;MIDI 01
092.846;000.050;62;000.469;MIDI 01
092.853;000.049;54;000.320;MIDI 01
093.076;000.055;56;000.469;MIDI 01
093.105;000.035;67;000.492;MIDI 01
093.117;000.044;64;000.508;MIDI 01
093.098;000.098;65;000.578;MIDI 01
093.404;000.055;67;000.617;MIDI 01
093.418;000.044;62;000.555;MIDI 01
093.416;000.073;54;000.516;MIDI 01
093.681;000.051;56;000.484;MIDI 01
093.700;000.055;48;000.406;MIDI 01
093.702;000.071;52;000.477;MIDI 01
093.704;000.239;68;000.641;MIDI 01
093.954;000.037;54;000.414;MIDI 01
093.949;000.049;62;000.500;MIDI 01
094.190;000.031;56;000.508;MIDI 01
094.215;000.042;67;000.453;MIDI 01
094.219;000.062;64;000.469;MIDI 01
094.507;000.038;62;000.297;MIDI 01
094.490;000.066;54;000.453;MIDI 01
094.718;000.052;48;000.359;MIDI 01
094.715;000.061;52;000.461;MIDI 01
094.991;000.029;54;000.320;MIDI 01
094.993;000.038;62;000.391;MIDI 01
095.232;000.048;67;000.383;MIDI 01
095.237;000.053;64;000.445;MIDI 01
094.222;001.106;63;000.531;MIDI 01
095.487;000.031;62;000.352;MIDI 01
095.485;000.043;54;000.414;MIDI 01
095.716;000.018;77;000.461;MIDI 01
095.714;000.021;89;000.578;MIDI 01
095.723;000.057;48;000.219;MIDI 01
095.800;000.044;89;000.680;MIDI 01
095.830;000.031;77;000.438;MIDI 01
095.708;000.157;52;000.438;MIDI 01
095.908;000.036;54;000.391;MIDI 01
095.927;000.024;79;000.672;MIDI 01
095.910;000.044;62;000.523;MIDI 01
095.930;000.026;91;000.703;MIDI 01
096.029;000.028;79;000.672;MIDI 01
096.024;000.066;91;000.648;MIDI 01
096.140;000.036;67;000.477;MIDI 01
096.142;000.047;64;000.539;MIDI 01
096.368;000.045;104;000.789;MIDI 01
096.372;000.057;92;000.766;MIDI 01
096.381;000.076;62;000.523;MIDI 01
096.394;000.085;54;000.492;MIDI 01
096.615;000.094;48;000.492;MIDI 01
096.626;000.110;52;000.453;MIDI 01
096.878;000.038;54;000.508;MIDI 01
096.886;000.042;62;000.516;MIDI 01
097.144;000.038;67;000.477;MIDI 01
097.148;000.053;64;000.461;MIDI 01
097.388;000.064;62;000.453;MIDI 01
097.417;000.051;54;000.336;MIDI 01
097.661;000.038;48;000.336;MIDI 01
097.658;000.049;52;000.422;MIDI 01
097.893;000.041;50;000.367;MIDI 01
098.146;000.035;64;000.352;MIDI 01
098.144;000.079;55;000.508;MIDI 01
098.384;000.040;54;000.453;MIDI 01
098.402;000.044;57;000.391;MIDI 01
098.631;000.053;59;000.438;MIDI 01
098.632;000.054;55;000.445;MIDI 01
098.858;000.079;69;000.586;MIDI 01
098.870;000.110;60;000.555;MIDI 01
099.115;000.041;59;000.469;MIDI 01
099.116;000.050;62;000.484;MIDI 01
099.360;000.037;64;000.375;MIDI 01
099.345;000.080;60;000.484;MIDI 01
099.574;000.094;74;000.672;MIDI 01
099.579;000.142;66;000.602;MIDI 01
099.838;000.066;64;000.398;MIDI 01
099.843;000.075;60;000.445;MIDI 01
100.090;000.070;62;000.398;MIDI 01
100.076;000.127;66;000.492;MIDI 01
100.326;000.074;64;000.500;MIDI 01
100.338;000.127;67;000.492;MIDI 01
100.562;000.134;69;000.594;MIDI 01
100.569;000.148;66;000.570;MIDI 01
100.843;000.135;71;000.578;MIDI 01
096.866;004.115;39;000.703;MIDI 01
100.840;000.143;67;000.531;MIDI 01
101.125;000.090;69;000.516;MIDI 01
101.133;000.091;72;000.438;MIDI 01
101.460;000.035;74;000.438;MIDI 01
101.454;000.045;63;000.219;MIDI 01
101.477;000.028;71;000.375;MIDI 01
101.827;000.045;69;000.391;MIDI 01
101.817;000.080;61;000.430;MIDI 01
101.466;000.526;75;000.508;MIDI 01
102.062;000.034;64;000.406;MIDI 01
102.098;000.041;75;000.531;MIDI 01
102.086;000.065;59;000.469;MIDI 01
102.105;000.050;55;000.297;MIDI 01
102.350;000.031;61;000.328;MIDI 01
102.352;000.031;75;000.539;MIDI 01
102.347;000.046;69;000.438;MIDI 01
102.574;000.024;63;000.422;MIDI 01
102.584;000.045;71;000.461;MIDI 01
102.596;000.043;75;000.531;MIDI 01
102.838;000.048;61;000.445;MIDI 01
102.856;000.036;75;000.391;MIDI 01
102.870;000.042;69;000.297;MIDI 01
103.070;000.033;62;000.375;MIDI 01
103.094;000.071;59;000.398;MIDI 01
103.098;000.073;55;000.305;MIDI 01
103.107;000.067;75;000.477;MIDI 01
103.365;000.042;61;000.273;MIDI 01
103.362;000.047;75;000.461;MIDI 01
103.375;000.037;69;000.320;MIDI 01
103.615;000.034;74;000.305;MIDI 01
103.602;000.048;71;000.430;MIDI 01
103.846;000.034;75;000.664;MIDI 01
103.871;000.022;69;000.430;MIDI 01
103.859;000.059;61;000.484;MIDI 01
104.154;000.035;64;000.414;MIDI 01
104.180;000.030;75;000.461;MIDI 01
104.165;000.073;55;000.203;MIDI 01
104.145;000.107;59;000.406;MIDI 01
104.426;000.033;75;000.422;MIDI 01
104.430;000.039;69;000.391;MIDI 01
104.432;000.040;61;000.266;MIDI 01
104.649;000.032;63;000.344;MIDI 01
104.673;000.026;74;000.367;MIDI 01
104.660;000.042;71;000.453;MIDI 01
104.675;000.032;75;000.469;MIDI 01
104.894;000.043;75;000.430;MIDI 01
104.899;000.047;61;000.461;MIDI 01
104.944;000.048;69;000.164;MIDI 01
105.106;000.031;62;000.438;MIDI 01
105.129;000.034;75;000.555;MIDI 01
105.130;000.051;55;000.383;MIDI 01
105.132;000.069;59;000.469;MIDI 01
105.393;000.028;61;000.375;MIDI 01
105.390;000.042;75;000.430;MIDI 01
105.402;000.052;69;000.422;MIDI 01
105.645;000.040;63;000.344;MIDI 01
105.665;000.023;74;000.406;MIDI 01
105.661;000.036;71;000.445;MIDI 01
105.674;000.041;75;000.461;MIDI 01
105.921;000.041;77;000.516;MIDI 01
105.940;000.025;69;000.375;MIDI 01
105.917;000.050;61;000.461;MIDI 01
106.129;000.035;64;000.422;MIDI 01
106.170;000.071;55;000.383;MIDI 01
106.172;000.156;59;000.445;MIDI 01
106.189;000.189;77;000.594;MIDI 01
106.408;000.057;69;000.445;MIDI 01
106.410;000.066;75;000.492;MIDI 01
106.421;000.057;61;000.234;MIDI 01
106.632;000.050;63;000.188;MIDI 01
106.657;000.030;74;000.391;MIDI 01
106.662;000.026;71;000.414;MIDI 01
106.672;000.045;75;000.461;MIDI 01
106.907;000.033;61;000.422;MIDI 01
106.924;000.052;69;000.242;MIDI 01
106.902;000.076;77;000.539;MIDI 01
107.106;000.033;64;000.352;MIDI 01
107.133;000.067;55;000.383;MIDI 01
107.140;000.142;59;000.438;MIDI 01
107.154;000.180;77;000.562;MIDI 01
107.364;000.053;69;000.469;MIDI 01
107.381;000.132;75;000.508;MIDI 01
107.630;000.062;74;000.406;MIDI 01
107.641;000.055;63;000.133;MIDI 01
107.638;000.081;71;000.422;MIDI 01
107.644;000.182;75;000.523;MIDI 01
107.916;000.059;80;000.539;MIDI 01
107.960;000.035;69;000.320;MIDI 01
107.943;000.088;61;000.422;MIDI 01
108.099;000.034;64;000.305;MIDI 01
108.159;000.060;55;000.383;MIDI 01
108.158;000.064;78;000.617;MIDI 01
108.161;000.114;59;000.430;MIDI 01
108.395;000.036;77;000.562;MIDI 01
108.418;000.029;61;000.359;MIDI 01
108.415;000.047;69;000.438;MIDI 01
108.639;000.034;63;000.344;MIDI 01
108.672;000.037;75;000.484;MIDI 01
108.677;000.036;71;000.383;MIDI 01
108.679;000.036;74;000.328;MIDI 01
108.925;000.036;61;000.414;MIDI 01
109.132;000.030;58;000.367;MIDI 01
109.143;000.097;59;000.406;MIDI 01
109.154;000.117;70;000.469;MIDI 01
109.399;000.033;61;000.406;MIDI 01
109.416;000.042;69;000.438;MIDI 01
109.655;000.035;74;000.461;MIDI 01
109.653;000.042;71;000.477;MIDI 01
109.905;000.026;63;000.438;MIDI 01
109.909;000.031;69;000.508;MIDI 01
109.912;000.053;61;000.484;MIDI 01
110.164;000.060;55;000.359;MIDI 01
110.166;000.072;59;000.414;MIDI 01
110.410;000.029;61;000.359;MIDI 01
110.419;000.041;69;000.422;MIDI 01
110.652;000.035;74;000.406;MIDI 01
110.648;000.051;71;000.461;MIDI 01
110.923;000.044;69;000.273;MIDI 01
110.917;000.054;61;000.352;MIDI 01
111.138;000.059;55;000.359;MIDI 01
111.141;000.060;59;000.430;MIDI 01
109.911;001.358;75;000.625;MIDI 01
111.364;000.044;80;000.570;MIDI 01
111.394;000.041;61;000.328;MIDI 01
111.396;000.055;69;000.453;MIDI 01
111.629;000.042;74;000.461;MIDI 01
111.643;000.031;71;000.414;MIDI 01
111.661;000.026;78;000.438;MIDI 01
111.645;000.048;66;000.141;MIDI 01
111.862;000.019;77;000.445;MIDI 01
111.872;000.035;69;000.430;MIDI 01
111.869;000.048;61;000.453;MIDI 01
112.074;000.059;55;000.438;MIDI 01
112.112;000.050;74;000.188;MIDI 01
112.078;000.142;59;000.477;MIDI 01
112.086;000.164;78;000.609;MIDI 01
112.308;000.042;77;000.555;MIDI 01
112.323;000.040;61;000.398;MIDI 01
112.319;000.061;69;000.477;MIDI 01
112.541;000.057;63;000.203;MIDI 01
112.550;000.050;75;000.602;MIDI 01
112.567;000.035;74;000.469;MIDI 01
112.569;000.039;71;000.469;MIDI 01
112.763;000.058;80;000.617;MIDI 01
112.794;000.027;92;000.719;MIDI 01
112.796;000.043;69;000.547;MIDI 01
112.791;000.085;61;000.547;MIDI 01
113.011;000.032;66;000.586;MIDI 01
113.019;000.068;55;000.414;MIDI 01
113.039;000.066;78;000.562;MIDI 01
113.029;000.090;59;000.422;MIDI 01
113.253;000.060;77;000.602;MIDI 01
113.266;000.054;69;000.484;MIDI 01
113.282;000.046;61;000.305;MIDI 01
113.484;000.036;74;000.516;MIDI 01
113.493;000.039;65;000.359;MIDI 01
113.497;000.039;71;000.539;MIDI 01
113.502;000.047;64;000.172;MIDI 01
113.514;000.210;78;000.656;MIDI 01
113.735;000.047;69;000.477;MIDI 01
113.710;000.074;77;000.523;MIDI 01
113.728;000.062;61;000.500;MIDI 01
113.927;000.042;63;000.414;MIDI 01
113.956;000.073;55;000.414;MIDI 01
113.964;000.080;59;000.438;MIDI 01
113.984;000.070;75;000.523;MIDI 01
114.185;000.022;80;000.570;MIDI 01
114.190;000.050;69;000.469;MIDI 01
114.207;000.047;61;000.211;MIDI 01
114.392;000.024;74;000.523;MIDI 01
114.414;000.052;71;000.508;MIDI 01
114.416;000.055;66;000.203;MIDI 01
114.439;000.248;78;000.656;MIDI 01
114.681;000.029;69;000.422;MIDI 01
114.639;000.076;77;000.586;MIDI 01
114.662;000.058;61;000.469;MIDI 01
114.696;000.054;67;000.242;MIDI 01
114.848;000.039;63;000.492;MIDI 01
114.881;000.044;55;000.406;MIDI 01
114.897;000.040;75;000.562;MIDI 01
114.879;000.103;59;000.477;MIDI 01
115.106;000.023;90;000.555;MIDI 01
115.103;000.027;61;000.398;MIDI 01
115.099;000.033;78;000.508;MIDI 01
115.111;000.021;80;000.484;MIDI 01
115.114;000.023;92;000.562;MIDI 01
115.094;000.048;69;000.602;MIDI 01
115.346;000.002;74;000.344;MIDI 01
115.330;000.053;66;000.586;MIDI 01
115.340;000.051;71;000.500;MIDI 01
115.373;000.231;78;000.664;MIDI 01
115.588;000.046;69;000.586;MIDI 01
115.577;000.085;77;000.625;MIDI 01
115.585;000.099;61;000.586;MIDI 01
115.760;000.035;64;000.555;MIDI 01
115.801;000.040;65;000.328;MIDI 01
115.794;000.073;55;000.516;MIDI 01
115.816;000.066;78;000.664;MIDI 01
115.803;000.085;59;000.555;MIDI 01
115.854;000.054;75;000.023;MIDI 01
116.090;000.031;77;000.633;MIDI 01
116.102;000.040;61;000.523;MIDI 01
116.126;000.037;69;000.500;MIDI 01
116.398;000.032;64;000.438;MIDI 01
116.404;000.027;71;000.461;MIDI 01
116.391;000.042;74;000.477;MIDI 01
116.655;000.048;69;000.453;MIDI 01
116.646;000.069;61;000.484;MIDI 01
116.897;000.066;55;000.406;MIDI 01
116.910;000.054;59;000.414;MIDI 01
116.402;000.700;75;000.648;MIDI 01
116.899;000.254;70;000.570;MIDI 01
117.140;000.027;63;000.547;MIDI 01
117.153;000.058;72;000.578;MIDI 01
117.455;000.043;69;000.453;MIDI 01
117.458;000.043;74;000.500;MIDI 01
117.471;000.043;61;000.312;MIDI 01
117.709;000.080;63;000.375;MIDI 01
117.725;000.067;55;000.328;MIDI 01
117.723;000.077;59;000.414;MIDI 01
117.744;000.146;75;000.547;MIDI 01
117.981;000.034;61;000.438;MIDI 01
118.000;000.039;69;000.469;MIDI 01
118.252;000.036;74;000.391;MIDI 01
118.259;000.033;71;000.406;MIDI 01
118.257;000.038;58;000.273;MIDI 01
118.241;000.083;70;000.539;MIDI 01
118.498;000.034;69;000.477;MIDI 01
118.506;000.046;61;000.453;MIDI 01
118.729;000.011;72;000.570;MIDI 01
118.737;000.015;84;000.539;MIDI 01
118.731;000.121;55;000.406;MIDI 01
118.843;000.019;72;000.484;MIDI 01
118.826;000.037;84;000.703;MIDI 01
118.734;000.192;59;000.492;MIDI 01
118.936;000.042;74;000.555;MIDI 01
118.950;000.033;86;000.617;MIDI 01
118.960;000.044;61;000.367;MIDI 01
118.954;000.052;69;000.531;MIDI 01
119.040;000.040;74;000.570;MIDI 01
119.042;000.048;86;000.703;MIDI 01
119.179;000.053;74;000.445;MIDI 01
119.193;000.045;71;000.578;MIDI 01
119.408;000.037;87;000.719;MIDI 01
119.397;000.053;99;000.789;MIDI 01
119.441;000.030;69;000.398;MIDI 01
119.426;000.048;61;000.523;MIDI 01
119.463;000.045;67;000.305;MIDI 01
119.665;000.041;55;000.305;MIDI 01
119.648;000.109;59;000.477;MIDI 01
119.892;000.039;69;000.492;MIDI 01
119.890;000.058;61;000.555;MIDI 01
120.161;000.031;71;000.547;MIDI 01
120.170;000.026;74;000.523;MIDI 01
120.410;000.052;69;000.547;MIDI 01
120.428;000.039;61;000.445;MIDI 01
120.667;000.035;59;000.469;MIDI 01
120.680;000.041;55;000.430;MIDI 01
120.907;000.044;69;000.531;MIDI 01
120.906;000.051;61;000.469;MIDI 01
121.144;000.044;62;000.594;MIDI 01
121.139;000.060;71;000.609;MIDI 01
121.394;000.051;61;000.352;MIDI 01
121.378;000.107;64;000.469;MIDI 01
121.616;000.026;62;000.406;MIDI 01
121.612;000.074;66;000.492;MIDI 01
121.843;000.061;76;000.641;MIDI 01
121.840;000.067;67;000.680;MIDI 01
122.082;000.041;66;000.414;MIDI 01
122.078;000.086;69;000.539;MIDI 01
122.300;000.085;79;000.617;MIDI 01
122.297;000.102;71;000.641;MIDI 01
122.581;000.037;69;000.352;MIDI 01
122.562;000.135;73;000.484;MIDI 01
122.800;000.099;74;000.516;MIDI 01
122.842;000.082;71;000.336;MIDI 01
123.055;000.109;73;000.516;MIDI 01
123.053;000.125;76;000.555;MIDI 01
123.281;000.115;74;000.602;MIDI 01
123.284;000.156;78;000.641;MIDI 01
123.528;000.142;76;000.703;MIDI 01
123.525;000.175;79;000.664;MIDI 01
120.151;003.624;46;000.672;MIDI 01
123.768;000.092;81;000.695;MIDI 01
123.779;000.116;78;000.688;MIDI 01
124.084;000.049;39;000.383;MIDI 01
124.061;000.103;82;000.516;MIDI 01
124.099;000.118;75;000.438;MIDI 01
124.176;000.084;69;000.680;MIDI 01
124.194;000.173;55;000.609;MIDI 01
124.419;000.040;67;000.586;MIDI 01
124.127;000.367;46;000.508;MIDI 01
124.422;000.124;48;000.492;MIDI 01
124.589;000.029;82;000.430;MIDI 01
124.586;000.058;39;000.430;MIDI 01
124.599;000.110;75;000.438;MIDI 01
124.670;000.044;66;000.594;MIDI 01
124.727;000.140;55;000.477;MIDI 01
124.665;000.244;49;000.555;MIDI 01
124.895;000.029;67;000.555;MIDI 01
124.912;000.175;48;000.516;MIDI 01
125.081;000.066;82;000.594;MIDI 01
125.102;000.049;39;000.359;MIDI 01
125.100;000.105;75;000.508;MIDI 01
125.147;000.077;69;000.648;MIDI 01
125.181;000.121;55;000.586;MIDI 01
125.372;000.056;67;000.562;MIDI 01
125.108;000.352;46;000.508;MIDI 01
125.374;000.123;48;000.469;MIDI 01
125.544;000.044;39;000.438;MIDI 01
125.559;000.103;75;000.461;MIDI 01
125.627;000.042;66;000.602;MIDI 01
125.678;000.136;55;000.461;MIDI 01
125.624;000.243;49;000.539;MIDI 01
125.836;000.035;67;000.594;MIDI 01
125.883;000.065;78;000.141;MIDI 01
125.859;000.192;48;000.508;MIDI 01
126.039;000.041;39;000.469;MIDI 01
126.027;000.074;82;000.594;MIDI 01
126.085;000.043;69;000.688;MIDI 01
126.049;000.090;75;000.594;MIDI 01
126.051;000.155;46;000.555;MIDI 01
126.154;000.101;55;000.508;MIDI 01
126.306;000.128;44;000.617;MIDI 01
126.391;000.050;97;000.250;MIDI 01
126.340;000.127;46;000.391;MIDI 01
126.492;000.054;99;000.727;MIDI 01
126.499;000.066;39;000.609;MIDI 01
126.501;000.075;94;000.539;MIDI 01
126.521;000.067;86;000.781;MIDI 01
126.511;000.118;43;000.570;MIDI 01
126.660;000.061;54;000.625;MIDI 01
126.791;000.093;44;000.570;MIDI 01
126.940;000.110;39;000.445;MIDI 01
127.033;000.220;46;000.469;MIDI 01
127.173;000.128;55;000.305;MIDI 01
127.312;000.138;48;000.328;MIDI 01
127.487;000.061;39;000.383;MIDI 01
127.434;000.129;82;000.438;MIDI 01
127.600;000.094;69;000.453;MIDI 01
127.500;000.261;75;000.430;MIDI 01
127.683;000.141;55;000.359;MIDI 01
127.604;000.276;49;000.438;MIDI 01
127.858;000.047;67;000.492;MIDI 01
127.953;000.046;78;000.180;MIDI 01
127.890;000.191;48;000.461;MIDI 01
128.093;000.036;39;000.375;MIDI 01
128.090;000.094;82;000.594;MIDI 01
128.150;000.099;69;000.656;MIDI 01
128.183;000.145;55;000.586;MIDI 01
128.113;000.218;75;000.555;MIDI 01
128.367;000.060;67;000.625;MIDI 01
128.115;000.346;46;000.484;MIDI 01
128.422;000.041;78;000.211;MIDI 01
128.378;000.124;48;000.500;MIDI 01
128.551;000.017;82;000.500;MIDI 01
128.536;000.059;39;000.484;MIDI 01
128.621;000.047;66;000.656;MIDI 01
128.553;000.120;75;000.570;MIDI 01
128.668;000.121;55;000.531;MIDI 01
128.609;000.238;49;000.586;MIDI 01
128.830;000.054;67;000.664;MIDI 01
128.865;000.068;78;000.289;MIDI 01
128.827;000.192;48;000.570;MIDI 01
129.025;000.040;39;000.422;MIDI 01
129.017;000.051;82;000.633;MIDI 01
129.065;000.054;69;000.695;MIDI 01
129.033;000.088;75;000.617;MIDI 01
129.027;000.152;46;000.531;MIDI 01
129.119;000.119;55;000.531;MIDI 01
129.283;000.116;44;000.656;MIDI 01
129.476;000.078;87;000.516;MIDI 01
129.558;000.002;76;000.383;MIDI 01
129.489;000.072;82;000.547;MIDI 01
129.473;000.107;39;000.633;MIDI 01
129.521;000.080;74;000.719;MIDI 01
129.496;000.116;43;000.523;MIDI 01
129.657;000.086;54;000.547;MIDI 01
129.822;000.091;44;000.500;MIDI 01
129.981;000.109;39;000.453;MIDI 01
130.019;000.101;82;000.430;MIDI 01
130.124;000.077;69;000.500;MIDI 01
130.061;000.206;75;000.422;MIDI 01
130.183;000.099;55;000.508;MIDI 01
130.329;000.052;67;000.617;MIDI 01
130.077;000.348;46;000.469;MIDI 01
130.340;000.114;48;000.484;MIDI 01
130.490;000.044;82;000.602;MIDI 01
130.464;000.072;39;000.531;MIDI 01
130.517;000.059;80;000.391;MIDI 01
130.495;000.126;75;000.539;MIDI 01
130.559;000.067;66;000.703;MIDI 01
130.606;000.104;55;000.570;MIDI 01
130.564;000.149;49;000.625;MIDI 01
130.776;000.058;67;000.641;MIDI 01
130.765;000.218;48;000.562;MIDI 01
130.952;000.043;39;000.500;MIDI 01
130.967;000.074;82;000.664;MIDI 01
130.989;000.074;75;000.633;MIDI 01
131.021;000.068;69;000.695;MIDI 01
130.975;000.151;46;000.570;MIDI 01
131.062;000.085;55;000.609;MIDI 01
131.221;000.154;44;000.680;MIDI 01
131.416;000.089;39;000.602;MIDI 01
131.441;000.084;70;000.547;MIDI 01
131.472;000.055;64;000.664;MIDI 01
131.433;000.121;75;000.547;MIDI 01
131.444;000.117;43;000.562;MIDI 01
131.592;000.082;54;000.539;MIDI 01
131.719;000.122;44;000.602;MIDI 01
131.868;000.110;39;000.594;MIDI 01
131.909;000.110;82;000.625;MIDI 01
131.948;000.109;69;000.719;MIDI 01
131.934;000.158;75;000.484;MIDI 01
132.057;000.114;55;000.555;MIDI 01
132.213;000.061;67;000.695;MIDI 01
132.269;000.029;78;000.305;MIDI 01
131.973;000.366;46;000.586;MIDI 01
132.226;000.159;48;000.586;MIDI 01
132.412;000.024;82;000.508;MIDI 01
132.400;000.068;39;000.547;MIDI 01
132.436;000.099;75;000.492;MIDI 01
132.484;000.176;66;000.750;MIDI 01
132.554;000.133;55;000.539;MIDI 01
132.500;000.286;49;000.617;MIDI 01
132.718;000.223;48;000.594;MIDI 01
132.916;000.041;39;000.461;MIDI 01
132.955;000.084;70;000.523;MIDI 01
132.949;000.093;75;000.594;MIDI 01
132.940;000.175;46;000.539;MIDI 01
133.034;000.127;55;000.602;MIDI 01
133.234;000.137;44;000.648;MIDI 01
133.427;000.080;39;000.648;MIDI 01
132.992;000.566;64;000.766;MIDI 01
133.460;000.098;43;000.547;MIDI 01
133.557;000.098;54;000.617;MIDI 01
133.605;000.065;44;000.086;MIDI 01
133.717;000.116;44;000.617;MIDI 01
133.878;000.104;39;000.602;MIDI 01
133.972;000.050;93;000.750;MIDI 01
133.974;000.050;81;000.750;MIDI 01
134.062;000.115;55;000.594;MIDI 01
134.223;000.043;79;000.688;MIDI 01
134.226;000.047;91;000.750;MIDI 01
133.976;000.311;46;000.594;MIDI 01
134.214;000.123;48;000.523;MIDI 01
134.336;000.078;39;000.539;MIDI 01
134.428;000.051;90;000.742;MIDI 01
134.427;000.061;78;000.734;MIDI 01
134.468;000.060;46;000.109;MIDI 01
134.488;000.126;55;000.594;MIDI 01
134.444;000.228;49;000.641;MIDI 01
134.670;000.026;88;000.695;MIDI 01
134.668;000.032;76;000.688;MIDI 01
134.644;000.182;48;000.609;MIDI 01
134.811;000.029;39;000.484;MIDI 01
134.892;000.043;81;000.695;MIDI 01
134.899;000.039;69;000.719;MIDI 01
134.910;000.115;55;000.641;MIDI 01
134.830;000.321;46;000.531;MIDI 01
135.125;000.044;79;000.656;MIDI 01
135.128;000.043;67;000.609;MIDI 01
135.089;000.141;48;000.539;MIDI 01
135.226;000.084;39;000.359;MIDI 01
135.350;000.041;66;000.641;MIDI 01
135.353;000.056;46;000.203;MIDI 01
135.348;000.070;78;000.648;MIDI 01
135.403;000.104;55;000.531;MIDI 01
135.357;000.205;49;000.555;MIDI 01
135.562;000.177;48;000.539;MIDI 01
135.709;000.053;39;000.406;MIDI 01
135.744;000.172;46;000.516;MIDI 01
135.836;000.105;55;000.555;MIDI 01
136.025;000.149;44;000.539;MIDI 01
136.203;000.130;39;000.555;MIDI 01
136.259;000.090;43;000.414;MIDI 01
135.823;000.541;76;000.672;MIDI 01
136.360;000.089;54;000.508;MIDI 01
136.510;000.098;44;000.523;MIDI 01
135.824;000.795;64;000.570;MIDI 01
136.673;000.101;39;000.438;MIDI 01
136.768;000.160;69;000.555;MIDI 01
136.866;000.094;55;000.531;MIDI 01
136.754;000.319;46;000.508;MIDI 01
137.004;000.118;67;000.586;MIDI 01
137.025;000.106;48;000.461;MIDI 01
137.131;000.088;39;000.469;MIDI 01
137.209;000.138;66;000.625;MIDI 01
137.318;000.112;55;000.570;MIDI 01
137.255;000.243;49;000.570;MIDI 01
137.447;000.183;64;000.617;MIDI 01
137.482;000.174;48;000.570;MIDI 01
137.611;000.059;39;000.500;MIDI 01
137.678;000.039;62;000.617;MIDI 01
137.750;000.086;55;000.539;MIDI 01
137.925;000.054;61;000.602;MIDI 01
137.662;000.319;46;000.523;MIDI 01
137.916;000.127;48;000.516;MIDI 01
138.056;000.068;39;000.469;MIDI 01
138.169;000.057;46;000.148;MIDI 01
138.137;000.199;59;000.570;MIDI 01
138.226;000.116;55;000.430;MIDI 01
138.172;000.190;49;000.523;MIDI 01
138.548;000.068;39;000.438;MIDI 01
138.389;000.320;48;000.461;MIDI 01
138.602;000.153;46;000.469;MIDI 01
138.700;000.082;55;000.531;MIDI 01
138.856;000.140;44;000.531;MIDI 01
138.636;000.436;57;000.531;MIDI 01
139.047;000.120;39;000.531;MIDI 01
139.073;000.128;43;000.414;MIDI 01
139.218;000.076;54;000.469;MIDI 01
139.365;000.117;44;000.516;MIDI 01
139.510;000.138;39;000.539;MIDI 01
139.595;000.066;74;000.688;MIDI 01
139.585;000.094;86;000.703;MIDI 01
139.715;000.108;55;000.609;MIDI 01
139.855;000.054;85;000.656;MIDI 01
139.850;000.065;73;000.680;MIDI 01
139.627;000.317;46;000.539;MIDI 01
139.864;000.122;48;000.547;MIDI 01
139.969;000.075;39;000.539;MIDI 01
140.058;000.076;83;000.664;MIDI 01
140.071;000.071;71;000.617;MIDI 01
140.094;000.056;46;000.250;MIDI 01
140.129;000.122;55;000.625;MIDI 01
140.080;000.230;49;000.617;MIDI 01
140.304;000.055;81;000.672;MIDI 01
140.304;000.107;69;000.625;MIDI 01
140.286;000.171;48;000.609;MIDI 01
140.430;000.036;39;000.414;MIDI 01
140.516;000.067;74;000.695;MIDI 01
140.546;000.105;55;000.562;MIDI 01
140.478;000.316;46;000.523;MIDI 01
140.752;000.062;73;000.648;MIDI 01
140.734;000.134;48;000.469;MIDI 01
140.868;000.086;39;000.344;MIDI 01
141.006;000.062;71;000.609;MIDI 01
141.080;000.114;55;000.422;MIDI 01
141.008;000.246;49;000.508;MIDI 01
141.258;000.175;48;000.484;MIDI 01
141.409;000.043;39;000.320;MIDI 01
141.451;000.152;46;000.469;MIDI 01
141.542;000.117;55;000.500;MIDI 01
141.745;000.303;44;000.438;MIDI 01
141.964;000.270;39;000.406;MIDI 01
142.056;000.292;62;000.539;MIDI 01
142.064;000.288;46;000.430;MIDI 01
142.316;000.080;61;000.594;MIDI 01
142.309;000.289;47;000.477;MIDI 01
142.616;000.064;59;000.633;MIDI 01
142.602;000.152;39;000.414;MIDI 01
141.517;001.466;69;000.508;MIDI 01
142.626;000.370;48;000.492;MIDI 01
143.007;000.061;57;000.672;MIDI 01
143.005;000.134;49;000.484;MIDI 01
143.467;000.023;58;000.648;MIDI 01
143.457;000.037;38;000.469;MIDI 01
143.555;000.069;58;000.656;MIDI 01
143.686;000.041;56;000.695;MIDI 01
143.711;000.037;52;000.438;MIDI 01
143.718;000.035;53;000.414;MIDI 01
143.972;000.051;55;000.445;MIDI 01
144.253;000.037;52;000.320;MIDI 01
144.255;000.039;53;000.258;MIDI 01
144.500;000.040;38;000.383;MIDI 01
144.514;000.035;40;000.422;MIDI 01
144.738;000.031;82;000.602;MIDI 01
144.731;000.040;70;000.617;MIDI 01
144.765;000.042;53;000.422;MIDI 01
144.769;000.046;52;000.422;MIDI 01
144.842;000.034;70;000.602;MIDI 01
144.830;000.053;82;000.633;MIDI 01
144.949;000.039;68;000.625;MIDI 01
144.944;000.084;80;000.664;MIDI 01
144.951;000.081;55;000.594;MIDI 01
145.195;000.041;52;000.492;MIDI 01
145.205;000.037;53;000.398;MIDI 01
145.465;000.028;82;000.672;MIDI 01
145.472;000.026;94;000.664;MIDI 01
145.565;000.051;94;000.602;MIDI 01
145.593;000.025;92;000.547;MIDI 01
145.567;000.056;82;000.688;MIDI 01
145.696;000.022;80;000.672;MIDI 01
145.723;000.002;94;000.086;MIDI 01
145.727;000.002;82;000.242;MIDI 01
145.681;000.048;92;000.758;MIDI 01
145.442;000.381;40;000.625;MIDI 01
145.796;000.129;42;000.594;MIDI 01
145.899;000.061;43;000.773;MIDI 01
146.213;000.002;37;000.523;MIDI 01
146.241;000.002;34;000.219;MIDI 01
146.417;000.028;32;000.742;MIDI 01
146.423;000.026;34;000.328;MIDI 01
146.177;000.421;43;000.695;MIDI 01
146.748;000.076;57;000.609;MIDI 01
146.807;000.044;59;000.547;MIDI 01
146.668;000.191;41;000.680;MIDI 01
146.856;000.024;62;000.641;MIDI 01
146.858;000.030;60;000.438;MIDI 01
146.992;000.002;68;000.148;MIDI 01
147.214;000.043;40;000.484;MIDI 01
147.549;000.030;53;000.375;MIDI 01
147.559;000.039;55;000.352;MIDI 01
147.812;000.059;57;000.484;MIDI 01
148.073;000.028;55;000.375;MIDI 01
148.078;000.027;53;000.383;MIDI 01
148.299;000.040;58;000.562;MIDI 01
148.301;000.064;40;000.539;MIDI 01
148.404;000.047;58;000.633;MIDI 01
148.534;000.056;56;000.562;MIDI 01
148.571;000.037;55;000.414;MIDI 01
148.588;000.036;53;000.305;MIDI 01
148.812;000.055;57;000.484;MIDI 01
149.066;000.030;53;000.352;MIDI 01
149.086;000.040;70;000.336;MIDI 01
149.090;000.060;55;000.102;MIDI 01
149.191;000.116;70;000.562;MIDI 01
149.265;000.045;40;000.484;MIDI 01
149.267;000.044;38;000.414;MIDI 01
149.294;000.096;68;000.594;MIDI 01
149.540;000.042;53;000.359;MIDI 01
149.534;000.051;55;000.352;MIDI 01
149.787;000.092;57;000.508;MIDI 01
149.823;000.261;62;000.594;MIDI 01
150.080;000.027;53;000.469;MIDI 01
150.082;000.029;55;000.453;MIDI 01
150.078;000.078;61;000.500;MIDI 01
150.334;000.051;59;000.469;MIDI 01
150.610;000.033;57;000.398;MIDI 01
150.589;000.068;37;000.461;MIDI 01
150.866;000.031;58;000.539;MIDI 01
150.864;000.037;38;000.477;MIDI 01
150.973;000.035;58;000.516;MIDI 01
151.107;000.053;56;000.500;MIDI 01
151.126;000.043;52;000.391;MIDI 01
151.116;000.056;53;000.438;MIDI 01
146.932;004.311;63;000.703;MIDI 01
151.352;000.048;55;000.477;MIDI 01
151.582;000.036;52;000.375;MIDI 01
151.588;000.033;63;000.602;MIDI 01
151.599;000.025;75;000.555;MIDI 01
151.698;000.040;63;000.570;MIDI 01
151.693;000.068;75;000.648;MIDI 01
151.792;000.050;38;000.453;MIDI 01
151.804;000.064;61;000.680;MIDI 01
151.833;000.037;40;000.367;MIDI 01
151.809;000.088;73;000.633;MIDI 01
152.052;000.050;52;000.516;MIDI 01
152.046;000.065;53;000.531;MIDI 01
152.293;000.033;82;000.664;MIDI 01
152.282;000.079;55;000.602;MIDI 01
152.401;000.129;82;000.648;MIDI 01
152.527;000.030;53;000.547;MIDI 01
152.524;000.035;52;000.578;MIDI 01
152.505;000.054;80;000.773;MIDI 01
152.874;000.047;87;000.664;MIDI 01
152.869;000.056;99;000.711;MIDI 01
153.024;000.034;87;000.688;MIDI 01
153.026;000.036;99;000.641;MIDI 01
153.128;000.047;97;000.758;MIDI 01
153.132;000.062;85;000.781;MIDI 01
152.842;000.398;42;000.570;MIDI 01
153.229;000.131;44;000.664;MIDI 01
153.341;000.132;45;000.812;MIDI 01
153.634;000.043;32;000.680;MIDI 01
153.743;000.059;32;000.734;MIDI 01
153.857;000.072;34;000.695;MIDI 01
153.615;000.397;45;000.789;MIDI 01
154.249;000.089;60;000.609;MIDI 01
154.297;000.059;62;000.594;MIDI 01
154.356;000.036;64;000.531;MIDI 01
154.371;000.025;65;000.516;MIDI 01
154.130;000.358;45;000.773;MIDI 01
154.459;000.035;70;000.422;MIDI 01
154.786;000.057;43;000.531;MIDI 01
155.161;000.041;57;000.391;MIDI 01
155.155;000.056;59;000.430;MIDI 01
155.423;000.043;60;000.453;MIDI 01
155.676;000.041;58;000.398;MIDI 01
155.679;000.041;56;000.414;MIDI 01
155.885;000.049;58;000.477;MIDI 01
155.945;000.045;43;000.305;MIDI 01
155.980;000.052;41;000.023;MIDI 01
156.003;000.043;58;000.656;MIDI 01
156.152;000.036;56;000.461;MIDI 01
156.149;000.051;59;000.484;MIDI 01
156.185;000.045;57;000.250;MIDI 01
156.404;000.074;60;000.445;MIDI 01
156.626;000.035;75;000.523;MIDI 01
156.637;000.033;56;000.453;MIDI 01
156.640;000.035;58;000.422;MIDI 01
156.740;000.111;75;000.633;MIDI 01
156.832;000.040;43;000.531;MIDI 01
156.836;000.080;73;000.648;MIDI 01
157.103;000.046;57;000.453;MIDI 01
157.097;000.055;59;000.461;MIDI 01
157.351;000.068;60;000.500;MIDI 01
157.348;000.136;69;000.570;MIDI 01
157.603;000.036;58;000.484;MIDI 01
157.605;000.041;56;000.484;MIDI 01
157.599;000.095;67;000.531;MIDI 01
157.854;000.054;65;000.531;MIDI 01
158.123;000.105;63;000.539;MIDI 01
157.856;000.384;43;000.461;MIDI 01
158.232;000.049;45;000.547;MIDI 01
158.336;000.068;46;000.625;MIDI 01
158.351;000.236;62;000.500;MIDI 01
158.632;000.056;46;000.594;MIDI 01
158.629;000.120;61;000.602;MIDI 01
158.878;000.078;59;000.672;MIDI 01
158.893;000.092;46;000.648;MIDI 01
159.158;000.056;57;000.703;MIDI 01
159.153;000.097;49;000.672;MIDI 01
159.145;000.115;46;000.656;MIDI 01
159.172;000.164;39;000.508;MIDI 01
159.418;000.034;58;000.586;MIDI 01
159.414;000.064;38;000.617;MIDI 01
159.647;000.032;56;000.539;MIDI 01
159.526;000.162;58;000.633;MIDI 01
154.436;005.268;66;000.750;MIDI 01
159.660;000.090;52;000.602;MIDI 01
159.662;000.090;53;000.586;MIDI 01
159.780;000.038;62;000.625;MIDI 01
159.840;000.020;65;000.508;MIDI 01
159.893;000.066;55;000.680;MIDI 01
159.929;000.047;48;000.383;MIDI 01
160.121;000.068;40;000.609;MIDI 01
160.142;000.089;75;000.609;MIDI 01
160.267;000.107;75;000.242;MIDI 01
160.374;000.040;53;000.492;MIDI 01
160.361;000.054;55;000.570;MIDI 01
160.334;000.084;73;000.555;MIDI 01
160.595;000.054;57;000.562;MIDI 01
160.846;000.035;38;000.484;MIDI 01
160.859;000.053;36;000.398;MIDI 01
160.839;000.127;56;000.688;MIDI 01
161.077;000.049;58;000.633;MIDI 01
161.093;000.060;52;000.625;MIDI 01
161.091;000.065;53;000.633;MIDI 01
161.344;000.060;55;000.625;MIDI 01
161.567;000.045;40;000.680;MIDI 01
161.580;000.173;75;000.711;MIDI 01
161.846;000.026;73;000.461;MIDI 01
161.821;000.335;47;000.727;MIDI 01
162.080;000.086;56;000.672;MIDI 01
162.179;000.045;61;000.680;MIDI 01
162.268;000.079;58;000.633;MIDI 01
162.277;000.091;50;000.570;MIDI 01
162.595;000.097;62;000.727;MIDI 01
162.588;000.115;50;000.625;MIDI 01
162.872;000.053;62;000.797;MIDI 01
162.875;000.079;50;000.672;MIDI 01
162.878;000.212;75;000.734;MIDI 01
163.156;000.040;75;000.398;MIDI 01
163.153;000.055;28;000.719;MIDI 01
159.901;003.309;66;000.703;MIDI 01
163.154;000.073;73;000.672;MIDI 01
163.435;000.015;68;000.547;MIDI 01
163.423;000.034;56;000.695;MIDI 01
163.444;000.024;55;000.617;MIDI 01
163.442;000.030;53;000.508;MIDI 01
163.551;000.035;66;000.539;MIDI 01
163.533;000.059;56;000.430;MIDI 01
163.535;000.059;68;000.633;MIDI 01
163.673;000.060;56;000.758;MIDI 01
163.669;000.076;66;000.641;MIDI 01
163.665;000.081;57;000.711;MIDI 01
163.675;000.074;68;000.664;MIDI 01
163.816;000.086;56;000.742;MIDI 01
163.970;000.051;55;000.805;MIDI 01
163.972;000.055;56;000.250;MIDI 01
164.000;000.031;43;000.586;MIDI 01
163.832;000.205;66;000.594;MIDI 01
164.004;000.051;70;000.633;MIDI 01
163.820;000.261;68;000.656;MIDI 01
163.977;000.108;41;000.664;MIDI 01
164.052;000.048;58;000.023;MIDI 01
164.173;000.059;72;000.484;MIDI 01
164.225;000.083;74;000.672;MIDI 01
164.295;000.130;77;000.594;MIDI 01
164.417;000.024;68;000.484;MIDI 01
164.392;000.051;66;000.727;MIDI 01
164.381;000.070;26;000.781;MIDI 01
164.537;000.074;79;000.047;MIDI 01
164.795;000.002;64;000.484;MIDI 01
164.775;000.078;74;000.609;MIDI 01
164.762;000.118;65;000.617;MIDI 01
164.773;000.111;62;000.578;MIDI 01
164.759;000.130;77;000.672;MIDI 01
165.072;000.078;74;000.578;MIDI 01
165.066;000.127;62;000.516;MIDI 01
165.064;000.132;65;000.523;MIDI 01
165.061;000.139;77;000.609;MIDI 01
165.327;000.076;74;000.562;MIDI 01
165.339;000.120;62;000.555;MIDI 01
165.329;000.132;65;000.562;MIDI 01
165.320;000.142;77;000.609;MIDI 01
165.609;000.016;77;000.539;MIDI 01
165.588;000.064;76;000.531;MIDI 01
165.611;000.074;64;000.461;MIDI 01
165.585;000.133;67;000.602;MIDI 01
165.572;000.173;79;000.625;MIDI 01
165.849;000.066;74;000.586;MIDI 01
165.839;000.117;62;000.531;MIDI 01
165.829;000.128;77;000.484;MIDI 01
165.828;000.131;65;000.539;MIDI 01
166.088;000.082;76;000.594;MIDI 01
166.089;000.092;72;000.594;MIDI 01
166.079;000.124;64;000.523;MIDI 01
166.091;000.150;60;000.523;MIDI 01
166.349;000.098;71;000.633;MIDI 01
166.333;000.119;74;000.688;MIDI 01
166.351;000.153;62;000.594;MIDI 01
166.353;000.157;59;000.539;MIDI 01
166.607;000.082;72;000.656;MIDI 01
166.600;000.092;76;000.695;MIDI 01
166.609;000.151;60;000.594;MIDI 01
166.613;000.173;64;000.625;MIDI 01
166.905;000.081;74;000.711;MIDI 01
166.896;000.126;77;000.695;MIDI 01
166.910;000.127;62;000.477;MIDI 01
166.984;000.057;61;000.023;MIDI 01
166.898;000.197;65;000.664;MIDI 01
167.355;000.044;77;000.578;MIDI 01
164.394;003.007;78;000.773;MIDI 01
167.369;000.044;74;000.625;MIDI 01
167.367;000.076;62;000.570;MIDI 01
164.760;002.684;66;000.734;MIDI 01
167.375;000.101;65;000.609;MIDI 01
167.509;000.095;61;000.531;MIDI 01
167.565;000.056;62;000.469;MIDI 01
167.539;000.096;74;000.648;MIDI 01
167.566;000.080;76;000.656;MIDI 01
167.559;000.102;64;000.531;MIDI 01
167.598;000.080;65;000.578;MIDI 01
167.555;000.126;60;000.492;MIDI 01
167.661;000.026;77;000.469;MIDI 01
167.919;000.049;74;000.555;MIDI 01
167.890;000.119;62;000.492;MIDI 01
167.903;000.107;65;000.492;MIDI 01
168.164;000.100;74;000.602;MIDI 01
168.155;000.117;62;000.547;MIDI 01
168.152;000.131;65;000.570;MIDI 01
168.153;000.160;77;000.562;MIDI 01
168.398;000.079;76;000.664;MIDI 01
168.440;000.045;65;000.305;MIDI 01
168.389;000.130;79;000.680;MIDI 01
168.416;000.126;64;000.539;MIDI 01
168.407;000.138;67;000.609;MIDI 01
168.665;000.111;79;000.703;MIDI 01
168.676;000.111;70;000.656;MIDI 01
168.668;000.190;82;000.727;MIDI 01
168.994;000.039;76;000.469;MIDI 01
168.954;000.116;63;000.492;MIDI 01
168.957;000.117;80;000.617;MIDI 01
169.209;000.073;74;000.562;MIDI 01
169.251;000.033;76;000.305;MIDI 01
169.220;000.091;62;000.492;MIDI 01
169.201;000.114;65;000.562;MIDI 01
169.242;000.077;77;000.469;MIDI 01
169.443;000.087;74;000.539;MIDI 01
169.451;000.084;62;000.562;MIDI 01
169.449;000.097;77;000.617;MIDI 01
169.447;000.114;65;000.617;MIDI 01
169.700;000.076;73;000.586;MIDI 01
169.688;000.113;64;000.570;MIDI 01
169.703;000.111;61;000.547;MIDI 01
169.694;000.141;76;000.555;MIDI 01
169.936;000.073;72;000.625;MIDI 01
169.944;000.109;61;000.562;MIDI 01
169.942;000.130;64;000.570;MIDI 01
169.952;000.141;57;000.477;MIDI 01
170.193;000.060;73;000.664;MIDI 01
170.198;000.089;61;000.594;MIDI 01
170.181;000.111;76;000.617;MIDI 01
170.191;000.108;64;000.617;MIDI 01
170.431;000.025;77;000.539;MIDI 01
167.642;002.821;78;000.688;MIDI 01
170.442;000.033;64;000.453;MIDI 01
170.439;000.039;74;000.617;MIDI 01
167.634;002.909;66;000.484;MIDI 01
170.426;000.144;65;000.508;MIDI 01
170.436;000.141;62;000.516;MIDI 01
170.653;000.032;67;000.484;MIDI 01
170.649;000.086;69;000.625;MIDI 01
170.693;000.080;71;000.609;MIDI 01
170.740;000.051;72;000.516;MIDI 01
170.991;000.096;72;000.461;MIDI 01
171.004;000.088;57;000.422;MIDI 01
171.021;000.083;60;000.422;MIDI 01
171.016;000.102;69;000.461;MIDI 01
171.245;000.070;57;000.461;MIDI 01
171.251;000.078;60;000.492;MIDI 01
171.250;000.104;72;000.539;MIDI 01
171.236;000.132;69;000.523;MIDI 01
171.493;000.092;59;000.547;MIDI 01
171.495;000.103;62;000.562;MIDI 01
171.488;000.127;71;000.609;MIDI 01
171.499;000.119;74;000.641;MIDI 01
171.749;000.116;72;000.633;MIDI 01
171.752;000.115;64;000.586;MIDI 01
171.747;000.125;60;000.578;MIDI 01
171.743;000.131;75;000.656;MIDI 01
172.044;000.089;74;000.602;MIDI 01
172.034;000.101;71;000.484;MIDI 01
172.037;000.105;62;000.453;MIDI 01
172.030;000.134;59;000.453;MIDI 01
172.283;000.098;72;000.602;MIDI 01
172.285;000.104;69;000.539;MIDI 01
172.291;000.101;60;000.406;MIDI 01
172.287;000.108;57;000.469;MIDI 01
172.512;000.119;71;000.648;MIDI 01
172.522;000.115;67;000.562;MIDI 01
172.527;000.111;59;000.531;MIDI 01
172.528;000.113;55;000.523;MIDI 01
172.772;000.080;53;000.531;MIDI 01
172.759;000.095;69;000.656;MIDI 01
172.769;000.098;57;000.547;MIDI 01
172.774;000.108;65;000.578;MIDI 01
173.011;000.075;55;000.562;MIDI 01
173.003;000.085;71;000.641;MIDI 01
173.018;000.077;59;000.602;MIDI 01
173.016;000.088;67;000.602;MIDI 01
170.752;002.494;73;000.703;MIDI 01
173.228;000.023;69;000.703;MIDI 01
173.233;000.035;72;000.648;MIDI 01
173.242;000.040;60;000.617;MIDI 01
173.231;000.072;57;000.617;MIDI 01
173.456;000.102;62;000.609;MIDI 01
173.482;000.099;64;000.602;MIDI 01
173.571;000.032;65;000.430;MIDI 01
173.822;000.079;50;000.391;MIDI 01
173.832;000.071;53;000.422;MIDI 01
173.769;000.141;65;000.383;MIDI 01
173.826;000.109;62;000.438;MIDI 01
174.084;000.103;67;000.586;MIDI 01
174.147;000.045;53;000.180;MIDI 01
174.118;000.076;55;000.445;MIDI 01
174.109;000.093;52;000.312;MIDI 01
174.104;000.100;64;000.477;MIDI 01
174.340;000.084;53;000.508;MIDI 01
174.355;000.084;57;000.555;MIDI 01
174.348;000.107;65;000.602;MIDI 01
174.327;000.176;68;000.672;MIDI 01
174.593;000.086;67;000.602;MIDI 01
174.604;000.076;59;000.547;MIDI 01
174.589;000.108;55;000.586;MIDI 01
174.585;000.190;70;000.688;MIDI 01
174.855;000.091;57;000.453;MIDI 01
174.849;000.099;65;000.500;MIDI 01
174.853;000.116;53;000.469;MIDI 01
174.843;000.136;68;000.562;MIDI 01
175.107;000.077;67;000.508;MIDI 01
175.120;000.067;55;000.453;MIDI 01
175.105;000.089;64;000.531;MIDI 01
175.111;000.103;52;000.500;MIDI 01
175.384;000.056;53;000.391;MIDI 01
175.350;000.096;65;000.516;MIDI 01
175.357;000.101;62;000.484;MIDI 01
175.361;000.106;50;000.438;MIDI 01
175.623;000.051;64;000.500;MIDI 01
173.547;002.129;66;000.664;MIDI 01
175.618;000.074;48;000.508;MIDI 01
175.650;000.047;52;000.336;MIDI 01
175.643;000.062;60;000.383;MIDI 01
175.834;000.041;62;000.516;MIDI 01
175.900;000.061;57;000.523;MIDI 01
175.881;000.095;55;000.516;MIDI 01
175.912;000.083;59;000.594;MIDI 01
175.927;000.071;65;000.523;MIDI 01
175.946;000.054;64;000.117;MIDI 01
175.956;000.054;60;000.688;MIDI 01
176.204;000.071;45;000.445;MIDI 01
176.202;000.089;57;000.414;MIDI 01
176.213;000.079;60;000.500;MIDI 01
176.217;000.098;48;000.398;MIDI 01
176.450;000.062;45;000.398;MIDI 01
176.476;000.042;48;000.461;MIDI 01
176.457;000.083;60;000.547;MIDI 01
176.456;000.086;57;000.484;MIDI 01
176.703;000.066;47;000.539;MIDI 01
176.710;000.066;50;000.516;MIDI 01
176.700;000.080;59;000.602;MIDI 01
176.696;000.084;62;000.617;MIDI 01
176.972;000.070;52;000.547;MIDI 01
176.961;000.082;60;000.578;MIDI 01
176.957;000.099;48;000.594;MIDI 01
176.963;000.097;63;000.625;MIDI 01
177.256;000.057;62;000.484;MIDI 01
177.269;000.050;50;000.398;MIDI 01
177.247;000.081;47;000.445;MIDI 01
177.244;000.089;59;000.484;MIDI 01
175.952;001.542;61;000.695;MIDI 01
177.479;000.040;45;000.516;MIDI 01
177.504;000.029;48;000.422;MIDI 01
175.954;001.581;66;000.672;MIDI 01
177.482;000.059;60;000.555;MIDI 01
177.498;000.069;57;000.477;MIDI 01
177.610;000.039;62;000.523;MIDI 01
177.690;000.062;57;000.500;MIDI 01
177.656;000.108;64;000.453;MIDI 01
177.681;000.085;55;000.586;MIDI 01
177.682;000.108;65;000.375;MIDI 01
177.697;000.096;59;000.609;MIDI 01
177.759;000.067;60;000.602;MIDI 01
177.979;000.098;45;000.453;MIDI 01
177.976;000.103;57;000.492;MIDI 01
177.991;000.091;60;000.555;MIDI 01
177.998;000.086;48;000.414;MIDI 01
178.235;000.053;45;000.523;MIDI 01
178.234;000.058;48;000.453;MIDI 01
178.233;000.077;60;000.586;MIDI 01
178.231;000.082;57;000.547;MIDI 01
178.466;000.082;47;000.516;MIDI 01
178.463;000.096;62;000.617;MIDI 01
178.476;000.087;50;000.445;MIDI 01
178.527;000.056;48;000.219;MIDI 01
178.460;000.125;59;000.586;MIDI 01
178.758;000.002;50;000.188;MIDI 01
178.705;000.076;48;000.531;MIDI 01
178.717;000.078;52;000.586;MIDI 01
178.719;000.081;60;000.625;MIDI 01
178.711;000.155;63;000.680;MIDI 01
178.954;000.056;62;000.695;MIDI 01
178.958;000.064;53;000.586;MIDI 01
178.952;000.075;50;000.555;MIDI 01
178.945;000.206;65;000.672;MIDI 01
177.724;001.440;61;000.719;MIDI 01
179.173;000.029;45;000.578;MIDI 01
179.175;000.042;48;000.594;MIDI 01
179.173;000.065;57;000.672;MIDI 01
177.726;001.565;66;000.688;MIDI 01
179.176;000.142;60;000.664;MIDI 01
179.303;000.054;62;000.602;MIDI 01
179.381;000.043;64;000.219;MIDI 01
179.378;000.068;57;000.570;MIDI 01
179.369;000.084;55;000.625;MIDI 01
179.368;000.103;65;000.492;MIDI 01
179.390;000.097;59;000.656;MIDI 01
179.454;000.072;60;000.688;MIDI 01
179.662;000.062;48;000.648;MIDI 01
179.660;000.067;45;000.594;MIDI 01
179.657;000.080;57;000.625;MIDI 01
179.655;000.085;60;000.672;MIDI 01
179.961;000.120;65;000.695;MIDI 01
179.959;000.131;62;000.641;MIDI 01
179.964;000.129;50;000.633;MIDI 01
179.972;000.124;53;000.609;MIDI 01
180.243;000.046;52;000.531;MIDI 01
180.224;000.074;60;000.625;MIDI 01
180.232;000.080;48;000.562;MIDI 01
180.220;000.174;63;000.586;MIDI 01
180.464;000.067;50;000.469;MIDI 01
180.468;000.064;47;000.477;MIDI 01
180.457;000.078;62;000.562;MIDI 01
180.455;000.082;59;000.602;MIDI 01
179.438;001.269;61;000.695;MIDI 01
180.684;000.040;45;000.445;MIDI 01
180.702;000.041;48;000.438;MIDI 01
180.686;000.068;57;000.547;MIDI 01
179.433;001.325;66;000.680;MIDI 01
180.697;000.067;60;000.578;MIDI 01
180.819;000.047;62;000.570;MIDI 01
180.899;000.052;57;000.445;MIDI 01
180.885;000.080;55;000.547;MIDI 01
180.887;000.085;64;000.391;MIDI 01
180.901;000.091;65;000.500;MIDI 01
180.902;000.114;59;000.586;MIDI 01
180.951;000.073;60;000.617;MIDI 01
181.182;000.080;45;000.430;MIDI 01
181.200;000.062;48;000.453;MIDI 01
181.192;000.082;57;000.484;MIDI 01
181.198;000.078;60;000.547;MIDI 01
181.470;000.054;50;000.508;MIDI 01
181.465;000.078;47;000.508;MIDI 01
181.459;000.088;59;000.555;MIDI 01
181.463;000.086;62;000.641;MIDI 01
181.700;000.061;60;000.641;MIDI 01
181.715;000.049;52;000.555;MIDI 01
181.706;000.062;48;000.609;MIDI 01
181.713;000.097;63;000.578;MIDI 01
181.985;000.057;50;000.445;MIDI 01
181.985;000.061;47;000.500;MIDI 01
181.981;000.069;59;000.547;MIDI 01
181.983;000.076;62;000.547;MIDI 01
180.940;001.262;66;000.594;MIDI 01
180.955;001.248;61;000.680;MIDI 01
182.216;000.040;57;000.586;MIDI 01
182.228;000.042;48;000.516;MIDI 01
182.233;000.039;45;000.477;MIDI 01
182.399;000.042;55;000.469;MIDI 01
182.382;000.128;57;000.359;MIDI 01
182.461;000.083;59;000.555;MIDI 01
182.760;000.071;45;000.578;MIDI 01
182.768;000.068;48;000.562;MIDI 01
182.764;000.072;60;000.516;MIDI 01
182.765;000.076;57;000.562;MIDI 01
183.116;000.058;53;000.500;MIDI 01
183.079;000.097;65;000.586;MIDI 01
183.099;000.079;62;000.602;MIDI 01
183.101;000.090;50;000.539;MIDI 01
183.374;000.052;52;000.477;MIDI 01
183.365;000.070;48;000.492;MIDI 01
183.355;000.083;60;000.555;MIDI 01
183.367;000.118;63;000.539;MIDI 01
183.645;000.045;50;000.414;MIDI 01
183.624;000.081;59;000.523;MIDI 01
183.636;000.074;47;000.461;MIDI 01
183.631;000.084;62;000.531;MIDI 01
182.516;001.374;61;000.680;MIDI 01
183.871;000.031;60;000.547;MIDI 01
183.881;000.042;57;000.508;MIDI 01
183.891;000.039;48;000.500;MIDI 01
183.889;000.050;45;000.516;MIDI 01
184.108;000.080;46;000.562;MIDI 01
184.180;000.086;48;000.555;MIDI 01
184.141;000.129;47;000.539;MIDI 01
184.501;000.069;33;000.492;MIDI 01
184.510;000.066;45;000.492;MIDI 01
184.503;000.090;48;000.492;MIDI 01
184.839;000.045;50;000.430;MIDI 01
184.841;000.046;35;000.461;MIDI 01
184.846;000.051;47;000.438;MIDI 01
185.113;000.052;48;000.492;MIDI 01
185.110;000.068;36;000.477;MIDI 01
185.122;000.093;51;000.461;MIDI 01
185.390;000.052;50;000.398;MIDI 01
185.376;000.070;47;000.477;MIDI 01
185.378;000.073;35;000.430;MIDI 01
185.643;000.039;33;000.469;MIDI 01
185.641;000.052;48;000.453;MIDI 01
185.644;000.053;45;000.461;MIDI 01
185.893;000.052;50;000.391;MIDI 01
185.895;000.053;35;000.398;MIDI 01
185.897;000.059;47;000.422;MIDI 01
186.177;000.055;48;000.336;MIDI 01
186.165;000.081;36;000.453;MIDI 01
186.179;000.107;51;000.414;MIDI 01
186.479;000.040;47;000.273;MIDI 01
186.485;000.060;50;000.336;MIDI 01
186.467;000.092;35;000.414;MIDI 01
186.754;000.066;21;000.633;MIDI 01
187.151;000.046;50;000.469;MIDI 01
187.142;000.067;38;000.555;MIDI 01
187.150;000.081;53;000.445;MIDI 01
187.448;000.061;48;000.508;MIDI 01
187.434;000.093;36;000.523;MIDI 01
187.457;000.126;51;000.500;MIDI 01
187.697;000.060;35;000.531;MIDI 01
187.713;000.048;47;000.438;MIDI 01
187.724;000.056;50;000.422;MIDI 01
187.979;000.062;48;000.391;MIDI 01
187.967;000.082;36;000.492;MIDI 01
187.971;000.123;51;000.445;MIDI 01
188.245;000.082;50;000.320;MIDI 01
188.257;000.072;47;000.406;MIDI 01
188.255;000.110;35;000.422;MIDI 01
188.550;000.094;48;000.391;MIDI 01
188.585;000.061;45;000.188;MIDI 01
188.569;000.126;33;000.070;MIDI 01
188.910;000.084;47;000.297;MIDI 01
188.922;000.091;43;000.258;MIDI 01
184.214;004.836;49;000.594;MIDI 01
188.939;000.143;31;000.094;MIDI 01
189.405;000.447;46;000.328;MIDI 01
189.762;000.092;35;000.312;MIDI 01
189.766;000.107;31;000.273;MIDI 01
189.899;000.143;48;000.312;MIDI 01
190.023;000.060;49;000.383;MIDI 01
190.046;000.072;33;000.344;MIDI 01
190.059;000.072;29;000.234;MIDI 01
190.395;000.091;35;000.336;MIDI 01
190.402;000.097;49;000.398;MIDI 01
190.393;000.108;31;000.320;MIDI 01
190.672;000.071;33;000.406;MIDI 01
190.681;000.071;36;000.336;MIDI 01
190.676;000.102;49;000.430;MIDI 01
190.953;000.064;35;000.398;MIDI 01
190.947;000.083;49;000.430;MIDI 01
190.951;000.081;31;000.391;MIDI 01
191.220;000.067;29;000.344;MIDI 01
191.215;000.076;33;000.375;MIDI 01
191.206;000.094;49;000.383;MIDI 01
191.481;000.086;49;000.398;MIDI 01
191.497;000.075;31;000.305;MIDI 01
191.498;000.076;35;000.344;MIDI 01
191.755;000.062;36;000.297;MIDI 01
191.736;000.083;33;000.352;MIDI 01
191.741;000.119;49;000.391;MIDI 01
192.016;000.056;35;000.344;MIDI 01
192.034;000.056;31;000.312;MIDI 01
192.007;000.210;49;000.344;MIDI 01
192.281;000.080;33;000.383;MIDI 01
192.297;000.072;29;000.312;MIDI 01
192.544;000.071;35;000.336;MIDI 01
192.549;000.068;31;000.305;MIDI 01
192.553;000.255;49;000.312;MIDI 01
192.814;000.052;36;000.305;MIDI 01
192.811;000.057;33;000.312;MIDI 01
192.831;000.120;49;000.320;MIDI 01
193.057;000.075;35;000.344;MIDI 01
193.060;000.082;31;000.359;MIDI 01
193.064;000.157;49;000.398;MIDI 01
193.308;000.076;29;000.352;MIDI 01
193.299;000.088;33;000.398;MIDI 01
193.310;000.147;49;000.453;MIDI 01
193.585;000.065;35;000.367;MIDI 01
193.592;000.064;31;000.344;MIDI 01
193.588;000.209;49;000.383;MIDI 01
193.882;000.102;33;000.312;MIDI 01
193.890;000.097;36;000.305;MIDI 01
194.218;000.053;35;000.203;MIDI 01
194.223;000.077;31;000.250;MIDI 01
194.207;000.135;49;000.289;MIDI 01
194.625;000.031;48;000.773;MIDI 01
194.753;000.002;50;000.453;MIDI 01
194.732;000.041;48;000.578;MIDI 01
194.830;000.055;47;000.781;MIDI 01
195.104;000.059;30;000.625;MIDI 01
195.101;000.067;34;000.664;MIDI 01
195.098;000.071;37;000.656;MIDI 01
195.346;000.033;72;000.727;MIDI 01
195.349;000.032;60;000.672;MIDI 01
195.391;000.002;62;000.281;MIDI 01
195.461;000.028;60;000.648;MIDI 01
195.469;000.033;72;000.656;MIDI 01
195.556;000.040;49;000.656;MIDI 01
195.548;000.056;59;000.773;MIDI 01
195.572;000.034;46;000.625;MIDI 01
195.574;000.056;42;000.625;MIDI 01
195.546;000.085;71;000.766;MIDI 01
195.809;000.002;30;000.500;MIDI 01
195.781;000.032;22;000.812;MIDI 01
195.797;000.034;25;000.688;MIDI 01
195.857;000.062;23;000.094;MIDI 01
196.025;000.017;61;000.820;MIDI 01
196.029;000.018;72;000.758;MIDI 01
196.027;000.034;84;000.766;MIDI 01
196.036;000.029;56;000.555;MIDI 01
196.042;000.027;58;000.508;MIDI 01
196.027;000.067;54;000.766;MIDI 01
196.108;000.017;61;000.438;MIDI 01
196.132;000.030;83;000.805;MIDI 01
196.129;000.041;71;000.859;MIDI 01
196.730;000.460;46;000.398;MIDI 01
197.147;000.099;33;000.336;MIDI 01
197.165;000.089;29;000.305;MIDI 01
197.143;000.124;34;000.352;MIDI 01
197.271;000.126;48;000.344;MIDI 01
197.380;000.103;49;000.438;MIDI 01
197.822;000.040;46;000.320;MIDI 01
197.820;000.087;45;000.336;MIDI 01
197.802;000.107;49;000.414;MIDI 01
197.850;000.073;41;000.219;MIDI 01
198.121;000.081;49;000.344;MIDI 01
198.415;000.076;34;000.383;MIDI 01
198.427;000.070;29;000.305;MIDI 01
198.395;000.104;33;000.406;MIDI 01
198.412;000.095;49;000.359;MIDI 01
198.706;000.074;49;000.367;MIDI 01
198.977;000.079;49;000.344;MIDI 01
199.235;000.070;45;000.352;MIDI 01
199.240;000.076;46;000.359;MIDI 01
199.256;000.085;41;000.305;MIDI 01
199.233;000.110;49;000.367;MIDI 01
199.520;000.085;49;000.391;MIDI 01
199.786;000.119;49;000.414;MIDI 01
199.776;000.143;33;000.391;MIDI 01
199.796;000.125;29;000.398;MIDI 01
199.781;000.144;34;000.383;MIDI 01
200.079;000.080;49;000.445;MIDI 01
200.334;000.053;46;000.383;MIDI 01
200.366;000.040;45;000.227;MIDI 01
200.344;000.067;41;000.328;MIDI 01
200.348;000.096;49;000.375;MIDI 01
200.647;000.147;49;000.336;MIDI 01
201.014;000.507;35;000.320;MIDI 01
201.491;000.086;37;000.383;MIDI 01
201.609;000.228;38;000.430;MIDI 01
201.582;000.448;48;000.484;MIDI 01
202.040;000.039;50;000.469;MIDI 01
202.188;000.059;51;000.672;MIDI 01
202.208;000.266;49;000.680;MIDI 01
202.206;000.306;61;000.664;MIDI 01
202.635;000.037;50;000.547;MIDI 01
202.628;000.045;63;000.641;MIDI 01
202.773;000.057;29;000.648;MIDI 01
202.775;000.057;31;000.695;MIDI 01
202.754;000.088;52;000.680;MIDI 01
202.757;000.101;64;000.750;MIDI 01
203.131;000.173;64;000.688;MIDI 01
203.246;000.099;66;000.711;MIDI 01
203.414;000.070;41;000.578;MIDI 01
203.408;000.084;50;000.633;MIDI 01
203.431;000.089;46;000.578;MIDI 01
203.457;000.065;66;000.062;MIDI 01
203.808;000.043;59;000.477;MIDI 01
203.790;000.109;50;000.523;MIDI 01
203.804;000.132;61;000.547;MIDI 01
204.045;000.065;50;000.633;MIDI 01
204.041;000.080;44;000.586;MIDI 01
204.043;000.081;49;000.641;MIDI 01
204.326;000.052;50;000.492;MIDI 01
204.344;000.060;59;000.414;MIDI 01
204.330;000.152;61;000.500;MIDI 01
204.564;000.059;38;000.742;MIDI 01
204.566;000.060;29;000.711;MIDI 01
204.567;000.092;34;000.719;MIDI 01
204.611;000.056;36;000.312;MIDI 01
204.623;000.054;32;000.227;MIDI 01
204.848;000.065;50;000.492;MIDI 01
204.860;000.059;59;000.422;MIDI 01
204.850;000.136;61;000.508;MIDI 01
205.099;000.039;50;000.492;MIDI 01
205.105;000.039;44;000.492;MIDI 01
205.101;000.045;49;000.539;MIDI 01
205.368;000.033;50;000.445;MIDI 01
205.385;000.060;59;000.375;MIDI 01
205.379;000.173;61;000.469;MIDI 01
205.661;000.002;23;000.117;MIDI 01
205.598;000.073;21;000.805;MIDI 01
205.891;000.045;50;000.570;MIDI 01
205.883;000.108;59;000.469;MIDI 01
205.879;000.161;61;000.492;MIDI 01
206.097;000.053;29;000.727;MIDI 01
206.091;000.080;38;000.797;MIDI 01
206.099;000.082;34;000.703;MIDI 01
206.137;000.047;32;000.391;MIDI 01
206.341;000.106;50;000.625;MIDI 01
203.405;003.049;55;000.719;MIDI 01
206.335;000.159;59;000.656;MIDI 01
206.343;000.191;61;000.648;MIDI 01
203.402;003.139;67;000.750;MIDI 01
206.617;000.069;50;000.469;MIDI 01
206.608;000.089;46;000.484;MIDI 01
206.604;000.098;41;000.523;MIDI 01
206.750;000.021;81;000.539;MIDI 01
206.741;000.041;69;000.531;MIDI 01
206.873;000.033;67;000.625;MIDI 01
206.875;000.035;79;000.648;MIDI 01
206.855;000.109;50;000.523;MIDI 01
207.003;000.030;66;000.648;MIDI 01
207.000;000.053;78;000.711;MIDI 01
207.129;000.035;79;000.609;MIDI 01
207.147;000.021;77;000.422;MIDI 01
207.126;000.046;67;000.742;MIDI 01
207.120;000.082;50;000.648;MIDI 01
207.234;000.037;66;000.609;MIDI 01
207.116;000.165;44;000.617;MIDI 01
207.252;000.036;78;000.633;MIDI 01
207.114;000.179;49;000.602;MIDI 01
207.368;000.018;75;000.547;MIDI 01
207.353;000.037;64;000.781;MIDI 01
207.348;000.047;50;000.641;MIDI 01
207.355;000.043;76;000.758;MIDI 01
207.577;000.041;28;000.750;MIDI 01
207.582;000.051;33;000.719;MIDI 01
207.594;000.043;34;000.438;MIDI 01
207.575;000.071;36;000.789;MIDI 01
207.599;000.053;32;000.469;MIDI 01
207.884;000.032;62;000.477;MIDI 01
207.874;000.048;59;000.523;MIDI 01
207.872;000.055;64;000.508;MIDI 01
207.865;000.065;52;000.602;MIDI 01
207.868;000.102;61;000.602;MIDI 01
207.870;000.111;50;000.555;MIDI 01
208.095;000.126;50;000.445;MIDI 01
208.091;000.197;44;000.578;MIDI 01
208.093;000.210;49;000.562;MIDI 01
208.372;000.113;50;000.555;MIDI 01
208.383;000.176;59;000.477;MIDI 01
208.378;000.209;61;000.531;MIDI 01
208.374;000.252;52;000.531;MIDI 01
208.377;000.259;64;000.586;MIDI 01
208.617;000.152;50;000.680;MIDI 01
208.607;000.193;41;000.617;MIDI 01
208.613;000.220;46;000.648;MIDI 01
208.890;000.129;50;000.578;MIDI 01
208.905;000.192;59;000.500;MIDI 01
208.894;000.238;61;000.555;MIDI 01
208.897;000.275;52;000.555;MIDI 01
208.907;000.295;64;000.617;MIDI 01
209.176;000.054;46;000.273;MIDI 01
209.125;000.126;50;000.688;MIDI 01
209.119;000.195;44;000.672;MIDI 01
209.127;000.200;49;000.695;MIDI 01
209.386;000.123;50;000.641;MIDI 01
209.393;000.194;59;000.516;MIDI 01
209.384;000.211;52;000.602;MIDI 01
209.389;000.219;61;000.570;MIDI 01
209.382;000.257;64;000.625;MIDI 01
209.628;000.104;50;000.703;MIDI 01
209.621;000.193;41;000.641;MIDI 01
209.644;000.177;46;000.656;MIDI 01
209.895;000.067;50;000.586;MIDI 01
209.893;000.136;52;000.656;MIDI 01
209.907;000.150;59;000.578;MIDI 01
209.902;000.219;61;000.594;MIDI 01
209.896;000.241;64;000.703;MIDI 01
210.172;000.002;21;000.438;MIDI 01
210.177;000.002;26;000.570;MIDI 01
210.158;000.081;23;000.852;MIDI 01
210.465;000.122;61;000.664;MIDI 01
210.467;000.130;59;000.594;MIDI 01
210.461;000.159;64;000.672;MIDI 01
210.575;000.086;66;000.672;MIDI 01
210.700;000.075;50;000.727;MIDI 01
210.709;000.098;44;000.664;MIDI 01
211.010;000.045;50;000.578;MIDI 01
211.027;000.097;59;000.477;MIDI 01
211.029;000.148;61;000.531;MIDI 01
211.245;000.058;29;000.680;MIDI 01
211.239;000.092;38;000.812;MIDI 01
211.279;000.059;32;000.391;MIDI 01
211.247;000.094;34;000.711;MIDI 01
211.326;000.056;35;000.094;MIDI 01
211.552;000.057;50;000.352;MIDI 01
211.533;000.120;59;000.469;MIDI 01
211.528;000.170;61;000.516;MIDI 01
211.784;000.065;46;000.539;MIDI 01
211.767;000.083;50;000.492;MIDI 01
211.776;000.084;41;000.523;MIDI 01
212.050;000.076;50;000.500;MIDI 01
210.717;001.468;55;000.734;MIDI 01
212.047;000.157;59;000.422;MIDI 01
210.719;001.523;67;000.750;MIDI 01
212.044;000.220;61;000.500;MIDI 01
212.307;000.069;50;000.469;MIDI 01
212.302;000.094;49;000.492;MIDI 01
212.300;000.099;44;000.492;MIDI 01
212.417;000.044;57;000.516;MIDI 01
212.442;000.040;69;000.383;MIDI 01
212.546;000.026;55;000.656;MIDI 01
212.544;000.030;67;000.656;MIDI 01
212.554;000.083;50;000.531;MIDI 01
212.672;000.042;54;000.703;MIDI 01
212.677;000.040;66;000.648;MIDI 01
212.803;000.091;52;000.734;MIDI 01
212.819;000.077;62;000.641;MIDI 01
212.789;000.109;50;000.578;MIDI 01
212.779;000.128;41;000.602;MIDI 01
212.783;000.147;46;000.594;MIDI 01
212.808;000.129;64;000.648;MIDI 01
213.051;000.116;50;000.586;MIDI 01
213.189;000.011;81;000.586;MIDI 01
213.182;000.027;69;000.555;MIDI 01
213.306;000.026;67;000.688;MIDI 01
213.320;000.022;79;000.633;MIDI 01
213.341;000.040;81;000.320;MIDI 01
213.302;000.082;50;000.609;MIDI 01
213.318;000.132;44;000.508;MIDI 01
213.435;000.030;80;000.469;MIDI 01
213.312;000.155;49;000.562;MIDI 01
213.429;000.045;66;000.570;MIDI 01
213.433;000.043;79;000.305;MIDI 01
213.431;000.047;78;000.555;MIDI 01
213.472;000.044;68;000.172;MIDI 01
213.552;000.047;76;000.734;MIDI 01
213.539;000.065;50;000.641;MIDI 01
213.555;000.071;64;000.750;MIDI 01
213.770;000.060;29;000.734;MIDI 01
213.841;000.002;31;000.102;MIDI 01
213.774;000.081;34;000.711;MIDI 01
213.766;000.092;38;000.805;MIDI 01
214.051;000.028;44;000.727;MIDI 01
214.053;000.079;50;000.688;MIDI 01
214.056;000.082;49;000.602;MIDI 01
214.350;000.072;50;000.484;MIDI 01
214.348;000.085;49;000.461;MIDI 01
214.352;000.084;44;000.484;MIDI 01
214.469;000.027;64;000.539;MIDI 01
214.473;000.024;76;000.609;MIDI 01
214.581;000.050;78;000.664;MIDI 01
214.593;000.043;66;000.648;MIDI 01
214.596;000.081;50;000.539;MIDI 01
214.840;000.025;52;000.594;MIDI 01
214.838;000.029;64;000.633;MIDI 01
214.831;000.082;50;000.562;MIDI 01
214.833;000.093;46;000.555;MIDI 01
214.825;000.107;41;000.539;MIDI 01
214.943;000.043;54;000.648;MIDI 01
214.968;000.038;66;000.398;MIDI 01
214.980;000.036;65;000.445;MIDI 01
215.073;000.113;50;000.570;MIDI 01
215.215;000.008;86;000.609;MIDI 01
215.205;000.020;76;000.617;MIDI 01
215.363;000.002;87;000.406;MIDI 01
215.315;000.055;50;000.641;MIDI 01
215.322;000.058;49;000.578;MIDI 01
215.336;000.055;44;000.539;MIDI 01
215.317;000.148;90;000.797;MIDI 01
215.321;000.174;78;000.781;MIDI 01
215.569;000.044;29;000.703;MIDI 01
215.564;000.077;38;000.773;MIDI 01
215.571;000.074;34;000.688;MIDI 01
215.869;000.103;49;000.469;MIDI 01
215.869;000.125;50;000.477;MIDI 01
215.999;000.028;54;000.547;MIDI 01
216.009;000.029;66;000.555;MIDI 01
216.152;000.021;67;000.641;MIDI 01
216.149;000.030;55;000.508;MIDI 01
216.144;000.066;49;000.539;MIDI 01
216.148;000.067;50;000.547;MIDI 01
216.285;000.026;57;000.648;MIDI 01
216.282;000.031;69;000.711;MIDI 01
216.404;000.027;59;000.688;MIDI 01
216.406;000.029;64;000.648;MIDI 01
216.414;000.035;66;000.664;MIDI 01
216.427;000.024;71;000.453;MIDI 01
216.402;000.071;55;000.555;MIDI 01
216.410;000.084;54;000.586;MIDI 01
216.408;000.130;49;000.578;MIDI 01
216.525;000.124;60;000.781;MIDI 01
216.523;000.168;72;000.789;MIDI 01
216.650;000.044;55;000.625;MIDI 01
216.648;000.071;54;000.648;MIDI 01
216.863;000.038;43;000.719;MIDI 01
216.859;000.044;34;000.766;MIDI 01
216.866;000.041;42;000.688;MIDI 01
216.993;000.030;84;000.609;MIDI 01
216.990;000.036;71;000.602;MIDI 01
216.995;000.032;72;000.617;MIDI 01
216.999;000.029;83;000.594;MIDI 01
217.095;000.050;54;000.586;MIDI 01
217.090;000.057;55;000.594;MIDI 01
217.096;000.102;84;000.727;MIDI 01
217.092;000.118;76;000.727;MIDI 01
217.098;000.135;78;000.672;MIDI 01
217.088;000.149;72;000.719;MIDI 01
217.383;000.046;54;000.234;MIDI 01
217.360;000.090;55;000.492;MIDI 01
217.352;000.113;49;000.484;MIDI 01
217.429;000.044;53;000.211;MIDI 01
217.622;000.071;55;000.445;MIDI 01
217.624;000.072;54;000.391;MIDI 01
217.691;000.041;59;000.539;MIDI 01
217.693;000.041;71;000.570;MIDI 01
217.849;000.053;54;000.461;MIDI 01
217.852;000.052;55;000.469;MIDI 01
217.834;000.090;46;000.531;MIDI 01
217.822;000.126;60;000.586;MIDI 01
217.820;000.176;64;000.562;MIDI 01
217.818;000.206;66;000.617;MIDI 01
217.824;000.222;72;000.648;MIDI 01
218.098;000.067;54;000.508;MIDI 01
218.090;000.094;55;000.555;MIDI 01
218.314;000.088;55;000.578;MIDI 01
218.308;000.100;54;000.523;MIDI 01
218.401;000.025;71;000.570;MIDI 01
218.406;000.032;83;000.578;MIDI 01
218.310;000.141;49;000.531;MIDI 01
218.524;000.042;55;000.609;MIDI 01
218.528;000.058;54;000.625;MIDI 01
218.520;000.069;84;000.750;MIDI 01
218.518;000.104;76;000.703;MIDI 01
218.522;000.107;78;000.711;MIDI 01
218.512;000.124;72;000.484;MIDI 01
218.787;000.034;34;000.625;MIDI 01
218.796;000.029;42;000.500;MIDI 01
218.792;000.059;43;000.578;MIDI 01
218.918;000.022;69;000.547;MIDI 01
218.916;000.027;57;000.523;MIDI 01
219.050;000.020;59;000.570;MIDI 01
219.044;000.028;71;000.656;MIDI 01
219.064;000.046;54;000.469;MIDI 01
219.057;000.062;55;000.516;MIDI 01
219.174;000.016;60;000.547;MIDI 01
219.177;000.015;72;000.594;MIDI 01
219.289;000.031;74;000.711;MIDI 01
219.283;000.040;62;000.734;MIDI 01
219.286;000.076;55;000.562;MIDI 01
219.277;000.095;54;000.523;MIDI 01
219.281;000.117;49;000.562;MIDI 01
219.407;000.031;60;000.641;MIDI 01
219.412;000.036;72;000.586;MIDI 01
219.535;000.021;62;000.719;MIDI 01
219.537;000.023;74;000.734;MIDI 01
219.511;000.074;55;000.617;MIDI 01
219.515;000.075;54;000.609;MIDI 01
219.649;000.035;63;000.711;MIDI 01
219.655;000.056;75;000.688;MIDI 01
219.679;000.040;76;000.305;MIDI 01
219.773;000.030;62;000.797;MIDI 01
219.777;000.030;74;000.727;MIDI 01
219.818;000.002;73;000.312;MIDI 01
219.765;000.061;55;000.648;MIDI 01
219.767;000.078;54;000.609;MIDI 01
219.762;000.152;46;000.672;MIDI 01
219.879;000.046;60;000.836;MIDI 01
219.880;000.047;72;000.758;MIDI 01
219.945;000.002;62;000.227;MIDI 01
220.041;000.060;55;000.625;MIDI 01
220.037;000.081;54;000.688;MIDI 01
220.099;000.065;57;000.078;MIDI 01
220.303;000.001;43;000.406;MIDI 01
220.282;000.052;34;000.750;MIDI 01
220.301;000.036;32;000.383;MIDI 01
220.278;000.061;41;000.875;MIDI 01
220.328;000.034;33;000.422;MIDI 01
220.334;000.049;40;000.195;MIDI 01
220.553;000.023;43;000.773;MIDI 01
220.559;000.032;45;000.547;MIDI 01
220.568;000.037;51;000.492;MIDI 01
220.549;000.065;54;000.734;MIDI 01
220.551;000.096;55;000.703;MIDI 01
220.662;000.030;43;000.258;MIDI 01
220.854;000.125;55;000.703;MIDI 01
220.855;000.141;54;000.664;MIDI 01
220.847;000.169;46;000.664;MIDI 01
221.004;000.030;101;000.688;MIDI 01
221.006;000.049;89;000.664;MIDI 01
221.145;000.050;87;000.711;MIDI 01
221.143;000.056;99;000.727;MIDI 01
221.136;000.075;54;000.672;MIDI 01
221.128;000.098;55;000.664;MIDI 01
221.274;000.109;98;000.594;MIDI 01
221.283;000.144;86;000.531;MIDI 01
221.420;000.070;51;000.180;MIDI 01
221.360;000.140;55;000.672;MIDI 01
221.356;000.146;54;000.664;MIDI 01
221.354;000.170;49;000.625;MIDI 01
221.627;000.081;55;000.625;MIDI 01
221.622;000.090;54;000.594;MIDI 01
221.716;000.029;76;000.484;MIDI 01
221.722;000.025;88;000.539;MIDI 01
221.720;000.031;74;000.469;MIDI 01
221.725;000.029;86;000.469;MIDI 01
221.840;000.023;89;000.594;MIDI 01
221.838;000.029;77;000.734;MIDI 01
221.852;000.017;91;000.648;MIDI 01
221.858;000.015;79;000.539;MIDI 01
221.850;000.079;55;000.625;MIDI 01
221.856;000.081;54;000.641;MIDI 01
221.846;000.121;46;000.633;MIDI 01
221.961;000.025;75;000.727;MIDI 01
221.967;000.025;87;000.680;MIDI 01
222.072;000.031;74;000.797;MIDI 01
222.078;000.039;86;000.727;MIDI 01
222.129;000.002;84;000.328;MIDI 01
222.069;000.097;54;000.672;MIDI 01
222.067;000.109;55;000.672;MIDI 01
222.197;000.020;84;000.625;MIDI 01
222.193;000.046;72;000.750;MIDI 01
222.316;000.103;55;000.641;MIDI 01
222.374;000.056;51;000.266;MIDI 01
222.314;000.121;54;000.602;MIDI 01
222.317;000.136;49;000.578;MIDI 01
222.435;000.029;74;000.617;MIDI 01
222.431;000.037;62;000.578;MIDI 01
222.433;000.045;64;000.508;MIDI 01
222.539;000.045;55;000.672;MIDI 01
222.541;000.051;54;000.656;MIDI 01
222.535;000.113;60;000.734;MIDI 01
222.543;000.166;72;000.734;MIDI 01
222.774;000.036;43;000.750;MIDI 01
222.772;000.046;34;000.766;MIDI 01
222.776;000.065;42;000.750;MIDI 01
222.898;000.030;75;000.609;MIDI 01
222.906;000.022;87;000.586;MIDI 01
223.027;000.028;86;000.656;MIDI 01
223.031;000.034;74;000.641;MIDI 01
223.037;000.047;55;000.555;MIDI 01
223.039;000.048;54;000.578;MIDI 01
223.149;000.029;72;000.688;MIDI 01
223.150;000.030;84;000.578;MIDI 01
223.178;000.044;74;000.328;MIDI 01
223.262;000.035;71;000.703;MIDI 01
223.265;000.035;83;000.695;MIDI 01
223.254;000.090;55;000.477;MIDI 01
223.252;000.097;54;000.500;MIDI 01
223.250;000.118;49;000.539;MIDI 01
223.376;000.050;69;000.727;MIDI 01
223.370;000.065;81;000.773;MIDI 01
223.516;000.073;55;000.547;MIDI 01
223.506;000.094;54;000.625;MIDI 01
223.617;000.029;86;000.680;MIDI 01
223.614;000.034;74;000.680;MIDI 01
223.741;000.034;72;000.695;MIDI 01
223.747;000.036;84;000.594;MIDI 01
223.745;000.049;54;000.609;MIDI 01
223.739;000.057;55;000.617;MIDI 01
223.734;000.085;46;000.633;MIDI 01
223.846;000.024;83;000.742;MIDI 01
223.844;000.033;71;000.711;MIDI 01
223.942;000.033;81;000.766;MIDI 01
223.944;000.052;69;000.812;MIDI 01
223.956;000.082;54;000.648;MIDI 01
223.958;000.091;55;000.648;MIDI 01
224.203;000.091;55;000.562;MIDI 01
224.205;000.091;54;000.539;MIDI 01
224.201;000.105;49;000.508;MIDI 01
224.322;000.022;72;000.555;MIDI 01
224.311;000.038;60;000.609;MIDI 01
224.432;000.027;59;000.750;MIDI 01
224.443;000.026;71;000.656;MIDI 01
224.441;000.067;55;000.570;MIDI 01
224.428;000.094;54;000.609;MIDI 01
224.535;000.032;57;000.711;MIDI 01
224.533;000.068;69;000.742;MIDI 01
224.620;000.002;59;000.039;MIDI 01
224.637;000.026;57;000.352;MIDI 01
224.661;000.075;55;000.617;MIDI 01
224.659;000.082;54;000.617;MIDI 01
224.664;000.086;46;000.586;MIDI 01
224.779;000.021;71;000.648;MIDI 01
224.786;000.022;83;000.609;MIDI 01
224.886;000.056;69;000.773;MIDI 01
224.894;000.065;54;000.625;MIDI 01
224.889;000.074;55;000.648;MIDI 01
224.884;000.128;81;000.469;MIDI 01
225.107;000.091;55;000.602;MIDI 01
225.103;000.106;54;000.633;MIDI 01
225.101;000.130;49;000.570;MIDI 01
225.225;000.019;95;000.758;MIDI 01
225.229;000.022;83;000.672;MIDI 01
225.266;000.002;93;000.391;MIDI 01
225.327;000.035;93;000.750;MIDI 01
225.323;000.056;81;000.773;MIDI 01
225.330;000.077;55;000.648;MIDI 01
225.325;000.096;54;000.648;MIDI 01
225.592;000.016;83;000.648;MIDI 01
225.579;000.032;71;000.688;MIDI 01
225.574;000.086;55;000.641;MIDI 01
225.576;000.101;54;000.609;MIDI 01
225.577;000.113;46;000.656;MIDI 01
225.674;000.085;81;000.773;MIDI 01
225.672;000.098;69;000.758;MIDI 01
225.807;000.065;55;000.648;MIDI 01
225.808;000.082;54;000.688;MIDI 01
226.001;000.044;69;000.742;MIDI 01
226.003;000.055;81;000.750;MIDI 01
226.200;000.057;70;000.828;MIDI 01
226.196;000.069;82;000.789;MIDI 01
226.808;000.035;57;000.586;MIDI 01
226.804;000.069;69;000.695;MIDI 01
227.129;000.047;82;000.805;MIDI 01
227.131;000.053;70;000.836;MIDI 01
226.806;000.629;54;000.742;MIDI 01
226.820;000.661;42;000.609;MIDI 01
227.742;000.080;57;000.695;MIDI 01
227.746;000.119;69;000.727;MIDI 01
228.204;000.043;82;000.750;MIDI 01
228.202;000.049;70;000.742;MIDI 01
227.744;000.534;42;000.641;MIDI 01
227.740;000.579;54;000.703;MIDI 01
228.270;000.068;80;000.086;MIDI 01
229.126;000.058;58;000.422;MIDI 01
229.168;000.049;66;000.445;MIDI 01
229.184;000.034;69;000.289;MIDI 01
229.597;000.039;64;000.414;MIDI 01
229.600;000.066;56;000.367;MIDI 01
229.174;000.592;70;000.617;MIDI 01
229.855;000.032;58;000.352;MIDI 01
229.875;000.061;50;000.375;MIDI 01
229.899;000.040;70;000.578;MIDI 01
229.883;000.066;54;000.445;MIDI 01
230.198;000.032;56;000.359;MIDI 01
230.195;000.045;70;000.547;MIDI 01
230.196;000.047;64;000.406;MIDI 01
230.430;000.039;58;000.414;MIDI 01
230.453;000.057;70;000.508;MIDI 01
230.457;000.057;66;000.430;MIDI 01
230.729;000.035;56;000.406;MIDI 01
230.727;000.043;70;000.492;MIDI 01
230.747;000.051;64;000.234;MIDI 01
230.977;000.036;58;000.281;MIDI 01
230.990;000.049;50;000.266;MIDI 01
230.998;000.052;54;000.367;MIDI 01
231.008;000.049;70;000.484;MIDI 01
231.304;000.041;56;000.328;MIDI 01
231.308;000.055;70;000.414;MIDI 01
231.310;000.059;64;000.375;MIDI 01
231.555;000.032;58;000.320;MIDI 01
231.585;000.025;69;000.422;MIDI 01
231.578;000.051;66;000.477;MIDI 01
231.594;000.047;70;000.438;MIDI 01
231.850;000.035;56;000.453;MIDI 01
231.867;000.027;64;000.344;MIDI 01
231.861;000.048;72;000.508;MIDI 01
232.099;000.052;50;000.281;MIDI 01
232.095;000.078;54;000.445;MIDI 01
232.101;000.223;72;000.539;MIDI 01
232.373;000.033;56;000.336;MIDI 01
232.364;000.047;64;000.430;MIDI 01
232.355;000.103;70;000.469;MIDI 01
232.585;000.047;58;000.195;MIDI 01
232.596;000.046;66;000.445;MIDI 01
232.613;000.046;69;000.305;MIDI 01
232.616;000.052;70;000.461;MIDI 01
232.842;000.041;64;000.422;MIDI 01
232.851;000.035;56;000.391;MIDI 01
232.857;000.039;72;000.477;MIDI 01
233.022;000.048;58;000.391;MIDI 01
233.084;000.077;50;000.320;MIDI 01
233.090;000.092;54;000.406;MIDI 01
233.108;000.202;72;000.547;MIDI 01
233.310;000.054;64;000.484;MIDI 01
233.349;000.054;56;000.172;MIDI 01
233.317;000.134;70;000.562;MIDI 01
233.535;000.048;58;000.414;MIDI 01
233.583;000.037;69;000.336;MIDI 01
233.573;000.065;66;000.422;MIDI 01
233.593;000.243;70;000.562;MIDI 01
233.855;000.044;64;000.492;MIDI 01
233.846;000.095;72;000.578;MIDI 01
233.853;000.098;56;000.484;MIDI 01
233.998;000.044;58;000.516;MIDI 01
234.097;000.045;73;000.602;MIDI 01
234.099;000.054;54;000.477;MIDI 01
234.116;000.048;50;000.203;MIDI 01
234.375;000.022;72;000.461;MIDI 01
234.379;000.034;56;000.312;MIDI 01
234.395;000.034;64;000.328;MIDI 01
234.654;000.047;58;000.414;MIDI 01
234.698;000.030;69;000.328;MIDI 01
234.696;000.058;66;000.367;MIDI 01
234.693;000.169;70;000.516;MIDI 01
234.980;000.045;54;000.312;MIDI 01
234.991;000.056;62;000.203;MIDI 01
235.039;000.052;64;000.023;MIDI 01
235.230;000.044;58;000.289;MIDI 01
235.228;000.127;50;000.359;MIDI 01
235.591;000.050;56;000.438;MIDI 01
235.598;000.048;52;000.375;MIDI 01
236.345;000.073;29;000.625;MIDI 01
236.385;000.046;34;000.344;MIDI 01
236.343;000.092;38;000.711;MIDI 01
236.340;000.119;32;000.617;MIDI 01
236.341;000.127;37;000.680;MIDI 01
235.996;000.645;61;000.461;MIDI 01
235.252;001.578;65;000.445;MIDI 01
236.592;000.300;63;000.523;MIDI 01
236.858;000.118;64;000.492;MIDI 01
236.851;000.389;48;000.609;MIDI 01
237.225;000.071;50;000.547;MIDI 01
237.140;000.193;64;000.523;MIDI 01
237.358;000.035;51;000.445;MIDI 01
237.355;000.067;35;000.695;MIDI 01
237.658;000.074;51;000.656;MIDI 01
237.656;000.101;64;000.508;MIDI 01
237.794;000.040;37;000.664;MIDI 01
237.939;000.002;51;000.383;MIDI 01
237.887;000.074;38;000.570;MIDI 01
237.928;000.035;43;000.422;MIDI 01
237.920;000.089;64;000.531;MIDI 01
238.208;000.045;51;000.555;MIDI 01
238.186;000.069;38;000.555;MIDI 01
238.205;000.081;64;000.523;MIDI 01
236.834;001.629;65;000.078;MIDI 01
238.438;000.057;38;000.562;MIDI 01
238.433;000.068;64;000.625;MIDI 01
238.440;000.088;51;000.672;MIDI 01
238.482;000.055;39;000.219;MIDI 01
238.701;000.049;63;000.484;MIDI 01
238.735;000.070;75;000.648;MIDI 01
239.085;000.060;73;000.547;MIDI 01
238.719;000.584;52;000.469;MIDI 01
239.317;000.047;53;000.469;MIDI 01
239.330;000.043;72;000.594;MIDI 01
239.353;000.028;60;000.398;MIDI 01
239.589;000.035;58;000.438;MIDI 01
239.613;000.034;69;000.414;MIDI 01
239.618;000.049;66;000.422;MIDI 01
239.876;000.048;56;000.406;MIDI 01
239.887;000.042;64;000.312;MIDI 01
239.616;000.583;70;000.547;MIDI 01
240.170;000.107;65;000.445;MIDI 01
240.196;000.108;54;000.297;MIDI 01
240.182;000.143;50;000.242;MIDI 01
240.416;000.039;58;000.359;MIDI 01
240.444;000.069;67;000.531;MIDI 01
240.782;000.045;64;000.398;MIDI 01
240.786;000.052;69;000.500;MIDI 01
240.803;000.037;56;000.344;MIDI 01
241.068;000.044;54;000.352;MIDI 01
241.078;000.054;58;000.281;MIDI 01
241.055;000.079;50;000.336;MIDI 01
241.374;000.040;56;000.438;MIDI 01
241.385;000.041;52;000.344;MIDI 01
241.104;000.327;70;000.516;MIDI 01
241.629;000.054;58;000.391;MIDI 01
241.661;000.042;54;000.336;MIDI 01
241.676;000.049;50;000.258;MIDI 01
242.003;000.050;52;000.398;MIDI 01
242.005;000.054;44;000.430;MIDI 01
242.408;000.459;35;000.375;MIDI 01
242.897;000.130;37;000.414;MIDI 01
243.052;000.066;38;000.102;MIDI 01
242.992;000.412;48;000.492;MIDI 01
243.338;000.109;38;000.297;MIDI 01
243.467;000.064;50;000.445;MIDI 01
243.582;000.083;51;000.500;MIDI 01
243.580;000.117;38;000.430;MIDI 01
243.924;000.068;51;000.383;MIDI 01
243.894;000.103;38;000.383;MIDI 01
243.560;000.507;61;000.500;MIDI 01
244.026;000.099;63;000.492;MIDI 01
244.129;000.059;64;000.469;MIDI 01
244.121;000.070;51;000.461;MIDI 01
244.125;000.068;38;000.398;MIDI 01
244.431;000.059;51;000.344;MIDI 01
244.426;000.079;38;000.336;MIDI 01
244.432;000.078;64;000.406;MIDI 01
244.693;000.054;64;000.430;MIDI 01
244.692;000.067;51;000.391;MIDI 01
244.686;000.079;38;000.430;MIDI 01
241.683;003.295;65;000.516;MIDI 01
244.953;000.078;64;000.523;MIDI 01
244.968;000.073;51;000.461;MIDI 01
244.956;000.092;38;000.422;MIDI 01
245.204;000.091;64;000.477;MIDI 01
245.217;000.080;52;000.398;MIDI 01
245.493;000.069;51;000.492;MIDI 01
245.483;000.084;38;000.438;MIDI 01
245.499;000.071;52;000.445;MIDI 01
245.491;000.095;64;000.500;MIDI 01
245.780;000.038;52;000.438;MIDI 01
245.758;000.073;64;000.500;MIDI 01
246.015;000.066;52;000.477;MIDI 01
246.008;000.076;51;000.508;MIDI 01
246.012;000.076;38;000.477;MIDI 01
246.006;000.085;64;000.570;MIDI 01
246.282;000.047;52;000.516;MIDI 01
246.267;000.100;64;000.562;MIDI 01
246.521;000.071;64;000.539;MIDI 01
246.514;000.080;51;000.609;MIDI 01
246.519;000.077;38;000.500;MIDI 01
246.523;000.085;52;000.523;MIDI 01
246.533;000.093;59;000.500;MIDI 01
246.516;000.140;61;000.555;MIDI 01
246.785;000.077;52;000.555;MIDI 01
246.782;000.084;64;000.578;MIDI 01
247.025;000.071;51;000.648;MIDI 01
247.028;000.076;38;000.562;MIDI 01
247.026;000.079;64;000.594;MIDI 01
247.022;000.086;52;000.617;MIDI 01
247.036;000.098;59;000.508;MIDI 01
247.030;000.141;61;000.578;MIDI 01
247.272;000.086;64;000.594;MIDI 01
247.276;000.096;52;000.547;MIDI 01
247.511;000.059;47;000.609;MIDI 01
247.508;000.089;38;000.602;MIDI 01
247.514;000.085;46;000.641;MIDI 01
247.523;000.086;64;000.609;MIDI 01
247.522;000.097;52;000.656;MIDI 01
247.527;000.120;59;000.570;MIDI 01
247.525;000.142;61;000.570;MIDI 01
247.768;000.080;64;000.617;MIDI 01
247.767;000.084;52;000.633;MIDI 01
247.985;000.060;47;000.633;MIDI 01
247.992;000.073;46;000.648;MIDI 01
247.990;000.089;38;000.617;MIDI 01
248.004;000.084;64;000.633;MIDI 01
248.002;000.089;52;000.680;MIDI 01
248.010;000.113;59;000.586;MIDI 01
248.008;000.138;61;000.586;MIDI 01
248.243;000.075;52;000.625;MIDI 01
248.245;000.075;64;000.648;MIDI 01
248.463;000.048;47;000.602;MIDI 01
248.470;000.054;46;000.641;MIDI 01
248.491;000.048;59;000.555;MIDI 01
248.468;000.084;38;000.625;MIDI 01
248.483;000.108;52;000.703;MIDI 01
248.486;000.140;64;000.656;MIDI 01
248.490;000.145;61;000.617;MIDI 01
248.793;000.004;24;000.398;MIDI 01
248.755;000.078;23;000.766;MIDI 01
248.839;000.039;64;000.320;MIDI 01
249.049;000.065;47;000.578;MIDI 01
249.057;000.071;64;000.453;MIDI 01
249.099;000.031;45;000.297;MIDI 01
249.059;000.086;52;000.523;MIDI 01
249.064;000.092;59;000.477;MIDI 01
249.102;000.055;38;000.297;MIDI 01
249.066;000.126;61;000.508;MIDI 01
249.285;000.090;64;000.609;MIDI 01
249.292;000.086;52;000.594;MIDI 01
249.520;000.072;47;000.625;MIDI 01
249.523;000.077;64;000.609;MIDI 01
249.525;000.084;52;000.656;MIDI 01
249.530;000.083;46;000.641;MIDI 01
249.521;000.101;38;000.602;MIDI 01
249.534;000.116;59;000.570;MIDI 01
249.532;000.133;61;000.602;MIDI 01
249.759;000.073;52;000.664;MIDI 01
249.757;000.076;64;000.711;MIDI 01
249.969;000.047;47;000.656;MIDI 01
249.974;000.065;46;000.680;MIDI 01
249.977;000.079;38;000.625;MIDI 01
249.991;000.111;59;000.594;MIDI 01
249.985;000.133;52;000.703;MIDI 01
249.988;000.131;64;000.656;MIDI 01
249.993;000.166;61;000.625;MIDI 01
250.219;000.065;23;000.836;MIDI 01
250.498;000.053;47;000.492;MIDI 01
250.509;000.044;46;000.508;MIDI 01
250.503;000.059;38;000.523;MIDI 01
250.507;000.072;64;000.562;MIDI 01
250.501;000.080;52;000.602;MIDI 01
250.511;000.085;59;000.500;MIDI 01
250.505;000.117;61;000.578;MIDI 01
250.725;000.073;52;000.664;MIDI 01
250.723;000.077;64;000.680;MIDI 01
250.956;000.051;47;000.703;MIDI 01
250.968;000.056;46;000.688;MIDI 01
250.967;000.077;38;000.656;MIDI 01
250.974;000.099;59;000.633;MIDI 01
250.970;000.119;52;000.711;MIDI 01
250.972;000.130;64;000.680;MIDI 01
250.976;000.143;61;000.633;MIDI 01
251.199;000.073;23;000.859;MIDI 01
251.459;000.028;48;000.672;MIDI 01
251.455;000.035;47;000.656;MIDI 01
251.457;000.055;52;000.727;MIDI 01
251.465;000.050;40;000.680;MIDI 01
251.469;000.058;59;000.641;MIDI 01
251.471;000.062;64;000.680;MIDI 01
251.467;000.084;61;000.695;MIDI 01
251.505;000.069;38;000.109;MIDI 01
251.882;000.047;47;000.703;MIDI 01
251.886;000.050;46;000.711;MIDI 01
251.893;000.060;59;000.664;MIDI 01
251.895;000.072;38;000.664;MIDI 01
251.889;000.080;52;000.742;MIDI 01
251.897;000.091;64;000.680;MIDI 01
251.898;000.101;61;000.680;MIDI 01
252.143;000.002;21;000.586;MIDI 01
252.133;000.071;23;000.844;MIDI 01
252.376;000.035;47;000.703;MIDI 01
252.379;000.040;46;000.711;MIDI 01
252.381;000.044;38;000.680;MIDI 01
252.383;000.053;52;000.750;MIDI 01
252.385;000.054;59;000.703;MIDI 01
252.393;000.062;64;000.727;MIDI 01
252.391;000.083;61;000.719;MIDI 01
252.869;000.002;60;000.398;MIDI 01
252.825;000.069;47;000.719;MIDI 01
252.829;000.067;52;000.750;MIDI 01
252.831;000.072;64;000.703;MIDI 01
252.840;000.077;46;000.727;MIDI 01
252.827;000.094;38;000.680;MIDI 01
252.842;000.081;59;000.648;MIDI 01
252.844;000.084;61;000.711;MIDI 01
253.297;000.026;52;000.805;MIDI 01
253.316;000.016;64;000.641;MIDI 01
253.308;000.030;62;000.617;MIDI 01
253.304;000.037;60;000.695;MIDI 01
253.294;000.057;58;000.727;MIDI 01
253.302;000.061;47;000.758;MIDI 01
253.310;000.061;38;000.703;MIDI 01
253.306;000.067;46;000.758;MIDI 01
253.377;000.068;41;000.141;MIDI 01
253.449;000.060;64;000.156;MIDI 01
253.485;000.052;62;000.180;MIDI 01
253.842;000.041;57;000.766;MIDI 01
253.844;000.041;69;000.750;MIDI 01
253.831;000.055;47;000.688;MIDI 01
253.833;000.074;46;000.727;MIDI 01
253.829;000.081;38;000.672;MIDI 01
254.125;000.045;67;000.773;MIDI 01
254.129;000.051;55;000.750;MIDI 01
254.397;000.052;54;000.781;MIDI 01
254.400;000.055;66;000.750;MIDI 01
254.676;000.046;64;000.766;MIDI 01
254.673;000.055;52;000.812;MIDI 01
254.958;000.024;38;000.617;MIDI 01
254.947;000.053;46;000.766;MIDI 01
254.956;000.061;41;000.664;MIDI 01
255.247;000.033;47;000.797;MIDI 01
255.250;000.064;59;000.750;MIDI 01
255.470;000.055;68;000.234;MIDI 01
255.666;000.031;98;000.812;MIDI 01
255.664;000.042;86;000.797;MIDI 01
255.662;000.061;74;000.766;MIDI 01
255.655;000.073;62;000.695;MIDI 01
255.968;000.055;85;000.805;MIDI 01
255.975;000.057;97;000.812;MIDI 01
255.973;000.065;73;000.734;MIDI 01
255.976;000.078;61;000.695;MIDI 01
256.245;000.047;95;000.805;MIDI 01
256.247;000.052;83;000.773;MIDI 01
256.241;000.089;71;000.633;MIDI 01
256.240;000.121;59;000.617;MIDI 01
256.547;000.033;69;000.609;MIDI 01
256.551;000.054;93;000.758;MIDI 01
256.555;000.057;81;000.789;MIDI 01
256.622;000.002;83;000.031;MIDI 01
256.545;000.084;57;000.594;MIDI 01
256.984;000.036;67;000.609;MIDI 01
256.982;000.046;54;000.484;MIDI 01
257.001;000.029;79;000.500;MIDI 01
256.980;000.053;55;000.469;MIDI 01
256.986;000.051;49;000.484;MIDI 01
257.024;000.025;77;000.391;MIDI 01
257.171;000.032;66;000.641;MIDI 01
257.169;000.042;55;000.445;MIDI 01
257.183;000.029;78;000.547;MIDI 01
257.163;000.052;54;000.516;MIDI 01
257.372;000.031;54;000.461;MIDI 01
257.366;000.039;55;000.453;MIDI 01
257.374;000.032;46;000.500;MIDI 01
257.351;000.227;76;000.742;MIDI 01
257.356;000.235;64;000.656;MIDI 01
257.552;000.046;54;000.445;MIDI 01
257.546;000.059;55;000.492;MIDI 01
257.716;000.043;55;000.578;MIDI 01
257.718;000.044;54;000.453;MIDI 01
257.714;000.065;49;000.523;MIDI 01
257.869;000.038;55;000.539;MIDI 01
257.875;000.044;54;000.570;MIDI 01
257.703;000.303;74;000.758;MIDI 01
258.038;000.027;41;000.633;MIDI 01
258.030;000.036;43;000.742;MIDI 01
258.028;000.042;34;000.727;MIDI 01
258.065;000.052;33;000.383;MIDI 01
257.705;000.421;62;000.734;MIDI 01
258.243;000.027;53;000.531;MIDI 01
258.208;000.108;64;000.609;MIDI 01
258.290;000.032;55;000.031;MIDI 01
258.317;000.078;66;000.609;MIDI 01
258.376;000.034;54;000.578;MIDI 01
258.363;000.058;55;000.492;MIDI 01
258.392;000.036;48;000.445;MIDI 01
258.401;000.052;53;000.172;MIDI 01
258.342;000.214;67;000.664;MIDI 01
258.536;000.029;55;000.570;MIDI 01
258.531;000.045;54;000.492;MIDI 01
258.542;000.069;66;000.648;MIDI 01
258.693;000.027;55;000.469;MIDI 01
258.704;000.030;54;000.508;MIDI 01
258.697;000.041;46;000.609;MIDI 01
258.706;000.064;64;000.648;MIDI 01
258.844;000.035;62;000.531;MIDI 01
258.843;000.045;54;000.523;MIDI 01
258.846;000.049;55;000.547;MIDI 01
258.879;000.035;64;000.297;MIDI 01
258.999;000.049;54;000.570;MIDI 01
258.993;000.062;55;000.656;MIDI 01
259.008;000.052;49;000.570;MIDI 01
259.023;000.040;77;000.664;MIDI 01
259.032;000.033;89;000.648;MIDI 01
259.019;000.053;91;000.680;MIDI 01
259.078;000.002;79;000.242;MIDI 01
259.158;000.048;55;000.633;MIDI 01
259.173;000.036;78;000.664;MIDI 01
259.152;000.064;54;000.586;MIDI 01
259.169;000.053;90;000.711;MIDI 01
259.322;000.047;55;000.648;MIDI 01
259.332;000.040;54;000.641;MIDI 01
259.325;000.056;46;000.656;MIDI 01
259.327;000.218;88;000.773;MIDI 01
259.329;000.221;76;000.750;MIDI 01
259.482;000.070;55;000.648;MIDI 01
259.480;000.077;54;000.523;MIDI 01
259.642;000.060;55;000.656;MIDI 01
259.645;000.059;54;000.586;MIDI 01
259.653;000.072;49;000.602;MIDI 01
259.809;000.049;55;000.680;MIDI 01
259.817;000.055;54;000.656;MIDI 01
259.651;000.328;86;000.812;MIDI 01
259.970;000.026;34;000.727;MIDI 01
259.974;000.026;43;000.656;MIDI 01
259.972;000.031;42;000.672;MIDI 01
260.008;000.002;44;000.273;MIDI 01
259.655;000.483;74;000.773;MIDI 01
260.184;000.033;57;000.492;MIDI 01
260.204;000.030;55;000.422;MIDI 01
260.130;000.106;76;000.633;MIDI 01
260.218;000.071;78;000.633;MIDI 01
260.217;000.083;54;000.211;MIDI 01
260.300;000.040;50;000.398;MIDI 01
260.309;000.033;54;000.445;MIDI 01
260.332;000.039;55;000.344;MIDI 01
260.252;000.198;79;000.664;MIDI 01
260.434;000.029;55;000.594;MIDI 01
260.428;000.049;54;000.656;MIDI 01
260.455;000.042;49;000.391;MIDI 01
260.433;000.106;78;000.664;MIDI 01
260.577;000.039;55;000.594;MIDI 01
260.585;000.043;46;000.680;MIDI 01
260.594;000.039;54;000.555;MIDI 01
260.587;000.133;76;000.688;MIDI 01
260.750;000.041;54;000.523;MIDI 01
260.746;000.048;55;000.617;MIDI 01
260.755;000.052;74;000.641;MIDI 01
260.920;000.028;54;000.492;MIDI 01
260.910;000.041;55;000.633;MIDI 01
260.923;000.043;49;000.555;MIDI 01
260.935;000.147;67;000.656;MIDI 01
261.078;000.045;55;000.516;MIDI 01
261.074;000.055;54;000.562;MIDI 01
261.080;000.066;66;000.602;MIDI 01
261.230;000.051;55;000.586;MIDI 01
261.240;000.051;46;000.586;MIDI 01
261.251;000.042;54;000.531;MIDI 01
261.234;000.073;64;000.633;MIDI 01
261.381;000.039;62;000.547;MIDI 01
261.403;000.046;54;000.547;MIDI 01
261.393;000.062;55;000.562;MIDI 01
261.559;000.030;67;000.648;MIDI 01
261.554;000.043;54;000.547;MIDI 01
261.558;000.041;55;000.656;MIDI 01
261.556;000.047;79;000.688;MIDI 01
261.561;000.058;49;000.578;MIDI 01
261.709;000.039;66;000.641;MIDI 01
261.708;000.061;78;000.641;MIDI 01
261.716;000.061;55;000.641;MIDI 01
261.711;000.070;54;000.609;MIDI 01
261.867;000.024;64;000.734;MIDI 01
261.869;000.032;76;000.703;MIDI 01
261.871;000.058;54;000.617;MIDI 01
261.867;000.065;55;000.656;MIDI 01
261.869;000.071;46;000.633;MIDI 01
262.012;000.024;62;000.617;MIDI 01
262.020;000.044;74;000.703;MIDI 01
262.027;000.053;55;000.680;MIDI 01
262.029;000.053;54;000.672;MIDI 01
262.198;000.034;79;000.727;MIDI 01
262.196;000.039;91;000.719;MIDI 01
262.183;000.059;55;000.695;MIDI 01
262.188;000.061;54;000.664;MIDI 01
262.193;000.068;49;000.633;MIDI 01
262.350;000.049;90;000.742;MIDI 01
262.348;000.057;78;000.695;MIDI 01
262.345;000.066;55;000.695;MIDI 01
262.352;000.062;54;000.680;MIDI 01
262.502;000.051;88;000.758;MIDI 01
262.510;000.046;46;000.633;MIDI 01
262.505;000.053;55;000.734;MIDI 01
262.499;000.060;76;000.734;MIDI 01
262.509;000.058;54;000.672;MIDI 01
262.658;000.047;55;000.656;MIDI 01
262.664;000.050;86;000.766;MIDI 01
262.657;000.058;54;000.703;MIDI 01
262.659;000.061;74;000.750;MIDI 01
262.743;000.002;84;000.078;MIDI 01
262.853;000.055;60;000.773;MIDI 01
262.856;000.054;84;000.695;MIDI 01
262.854;000.058;72;000.734;MIDI 01
262.861;000.053;48;000.727;MIDI 01
263.045;000.059;83;000.805;MIDI 01
263.042;000.065;71;000.766;MIDI 01
263.040;000.070;59;000.734;MIDI 01
263.047;000.070;47;000.695;MIDI 01
263.233;000.050;81;000.781;MIDI 01
263.231;000.057;69;000.867;MIDI 01
263.224;000.068;57;000.719;MIDI 01
263.227;000.072;45;000.703;MIDI 01
263.419;000.049;43;000.672;MIDI 01
263.417;000.053;79;000.750;MIDI 01
263.413;000.061;55;000.742;MIDI 01
263.422;000.081;67;000.758;MIDI 01
263.675;000.108;66;000.547;MIDI 01
263.669;000.132;54;000.391;MIDI 01
263.934;000.058;64;000.438;MIDI 01
263.921;000.098;52;000.383;MIDI 01
264.139;000.111;62;000.492;MIDI 01
264.135;000.124;50;000.352;MIDI 01
264.429;000.128;60;000.516;MIDI 01
264.425;000.190;48;000.383;MIDI 01
264.738;000.147;61;000.734;MIDI 01
264.742;000.180;49;000.656;MIDI 01
264.740;000.191;73;000.734;MIDI 01
265.040;000.249;75;000.742;MIDI 01
265.038;000.254;63;000.758;MIDI 01
265.031;000.305;51;000.688;MIDI 01
265.448;000.174;76;000.812;MIDI 01
265.450;000.222;64;000.750;MIDI 01
265.441;000.252;52;000.719;MIDI 01
269.483;000.082;29;000.680;MIDI 01
269.485;000.091;38;000.734;MIDI 01
269.488;000.099;37;000.688;MIDI 01
269.490;000.099;32;000.664;MIDI 01
269.992;000.075;49;000.375;MIDI 01
269.996;000.078;50;000.305;MIDI 01
270.329;000.054;50;000.414;MIDI 01
270.327;000.058;49;000.469;MIDI 01
270.323;000.070;44;000.461;MIDI 01
270.674;000.071;49;000.391;MIDI 01
270.688;000.065;50;000.320;MIDI 01
270.947;000.075;41;000.469;MIDI 01
270.949;000.075;50;000.430;MIDI 01
270.953;000.076;49;000.477;MIDI 01
271.222;000.070;49;000.383;MIDI 01
271.234;000.059;50;000.359;MIDI 01
271.452;000.068;50;000.453;MIDI 01
271.459;000.069;49;000.438;MIDI 01
271.456;000.075;44;000.430;MIDI 01
271.715;000.049;50;000.352;MIDI 01
271.712;000.053;49;000.383;MIDI 01
271.905;000.065;50;000.453;MIDI 01
271.918;000.062;41;000.438;MIDI 01
271.909;000.073;49;000.438;MIDI 01
266.247;005.851;47;000.711;MIDI 01
266.249;005.928;59;000.703;MIDI 01
272.145;000.047;50;000.383;MIDI 01
272.139;000.060;49;000.453;MIDI 01
272.353;000.049;44;000.391;MIDI 01
272.346;000.057;49;000.375;MIDI 01
272.339;000.068;50;000.422;MIDI 01
272.592;000.020;85;000.539;MIDI 01
272.582;000.039;73;000.523;MIDI 01
272.570;000.069;50;000.445;MIDI 01
272.573;000.071;49;000.461;MIDI 01
272.685;000.019;85;000.656;MIDI 01
272.779;000.036;85;000.383;MIDI 01
272.768;000.051;75;000.742;MIDI 01
272.772;000.049;49;000.570;MIDI 01
272.774;000.052;50;000.562;MIDI 01
272.770;000.058;41;000.516;MIDI 01
272.776;000.054;87;000.773;MIDI 01
272.953;000.040;50;000.508;MIDI 01
272.932;000.064;49;000.516;MIDI 01
273.126;000.040;50;000.391;MIDI 01
273.129;000.040;49;000.500;MIDI 01
273.140;000.048;44;000.375;MIDI 01
273.310;000.064;49;000.484;MIDI 01
273.302;000.075;50;000.484;MIDI 01
273.301;000.093;100;000.836;MIDI 01
273.299;000.125;88;000.781;MIDI 01
273.495;000.058;50;000.469;MIDI 01
273.493;000.062;49;000.523;MIDI 01
273.488;000.078;41;000.484;MIDI 01
273.665;000.067;49;000.523;MIDI 01
273.674;000.059;50;000.484;MIDI 01
273.847;000.051;50;000.516;MIDI 01
273.850;000.051;49;000.531;MIDI 01
273.845;000.102;44;000.516;MIDI 01
274.003;000.058;50;000.477;MIDI 01
273.999;000.077;49;000.539;MIDI 01
274.173;000.043;50;000.555;MIDI 01
274.168;000.056;49;000.508;MIDI 01
274.198;000.037;41;000.406;MIDI 01
274.343;000.061;49;000.539;MIDI 01
274.345;000.060;50;000.531;MIDI 01
274.512;000.053;49;000.523;MIDI 01
274.520;000.048;50;000.555;MIDI 01
274.518;000.070;44;000.547;MIDI 01
274.700;000.051;49;000.531;MIDI 01
274.712;000.042;50;000.492;MIDI 01
274.864;000.052;49;000.523;MIDI 01
274.856;000.062;50;000.539;MIDI 01
274.861;000.064;41;000.523;MIDI 01
275.039;000.043;49;000.461;MIDI 01
275.042;000.042;50;000.539;MIDI 01
275.181;000.058;49;000.562;MIDI 01
275.191;000.051;50;000.547;MIDI 01
275.184;000.075;44;000.602;MIDI 01
275.360;000.042;49;000.547;MIDI 01
275.366;000.042;50;000.531;MIDI 01
275.511;000.054;49;000.547;MIDI 01
275.504;000.070;50;000.586;MIDI 01
275.509;000.078;41;000.602;MIDI 01
275.674;000.044;50;000.469;MIDI 01
275.659;000.074;49;000.602;MIDI 01
273.843;001.911;35;000.844;MIDI 01
275.842;000.058;50;000.484;MIDI 01
275.841;000.069;49;000.523;MIDI 01
275.878;000.049;44;000.305;MIDI 01
275.990;000.076;35;000.531;MIDI 01
276.012;000.061;49;000.469;MIDI 01
276.018;000.058;50;000.469;MIDI 01
276.048;000.032;44;000.344;MIDI 01
276.024;000.059;41;000.430;MIDI 01
276.177;000.052;50;000.477;MIDI 01
276.175;000.057;49;000.508;MIDI 01
276.205;000.035;44;000.375;MIDI 01
276.200;000.046;41;000.438;MIDI 01
276.327;000.066;35;000.625;MIDI 01
276.347;000.048;50;000.578;MIDI 01
276.345;000.059;49;000.555;MIDI 01
276.353;000.053;44;000.469;MIDI 01
276.355;000.056;41;000.516;MIDI 01
276.511;000.046;50;000.539;MIDI 01
276.515;000.045;49;000.500;MIDI 01
276.516;000.045;44;000.461;MIDI 01
276.512;000.054;41;000.492;MIDI 01
276.664;000.058;50;000.594;MIDI 01
276.668;000.059;44;000.516;MIDI 01
276.666;000.062;49;000.562;MIDI 01
276.670;000.060;35;000.711;MIDI 01
276.661;000.069;41;000.547;MIDI 01
276.830;000.048;50;000.570;MIDI 01
276.837;000.049;49;000.562;MIDI 01
276.851;000.041;44;000.484;MIDI 01
276.840;000.065;41;000.477;MIDI 01
276.992;000.070;35;000.750;MIDI 01
276.997;000.067;50;000.609;MIDI 01
277.003;000.062;44;000.523;MIDI 01
277.007;000.061;41;000.547;MIDI 01
276.995;000.076;49;000.602;MIDI 01
277.166;000.051;41;000.602;MIDI 01
277.170;000.055;44;000.562;MIDI 01
277.172;000.060;50;000.617;MIDI 01
277.174;000.060;49;000.633;MIDI 01
277.326;000.041;35;000.719;MIDI 01
277.340;000.032;55;000.633;MIDI 01
277.344;000.039;54;000.664;MIDI 01
277.359;000.029;46;000.516;MIDI 01
277.369;000.036;49;000.414;MIDI 01
277.522;000.040;50;000.547;MIDI 01
277.518;000.061;49;000.578;MIDI 01
277.541;000.042;41;000.430;MIDI 01
277.539;000.048;44;000.453;MIDI 01
277.689;000.042;49;000.547;MIDI 01
277.673;000.059;50;000.461;MIDI 01
277.692;000.044;44;000.484;MIDI 01
277.702;000.036;41;000.406;MIDI 01
277.848;000.042;58;000.680;MIDI 01
277.857;000.033;54;000.617;MIDI 01
277.859;000.033;55;000.562;MIDI 01
277.853;000.040;61;000.570;MIDI 01
277.866;000.029;67;000.445;MIDI 01
277.850;000.050;66;000.609;MIDI 01
277.877;000.033;46;000.484;MIDI 01
277.883;000.034;49;000.273;MIDI 01
278.022;000.026;50;000.500;MIDI 01
278.020;000.032;52;000.523;MIDI 01
278.023;000.041;49;000.406;MIDI 01
278.026;000.041;42;000.398;MIDI 01
278.168;000.045;50;000.508;MIDI 01
278.170;000.048;49;000.562;MIDI 01
278.189;000.042;44;000.445;MIDI 01
278.183;000.053;41;000.328;MIDI 01
278.253;000.031;35;000.727;MIDI 01
278.316;000.024;54;000.602;MIDI 01
278.326;000.027;55;000.445;MIDI 01
278.325;000.041;46;000.508;MIDI 01
278.366;000.051;53;000.195;MIDI 01
278.467;000.042;50;000.555;MIDI 01
278.486;000.035;48;000.461;MIDI 01
278.574;000.002;66;000.500;MIDI 01
278.520;000.062;40;000.109;MIDI 01
278.567;000.024;67;000.547;MIDI 01
278.533;000.065;41;000.086;MIDI 01
278.578;000.023;58;000.523;MIDI 01
278.572;000.032;60;000.570;MIDI 01
278.582;000.028;57;000.508;MIDI 01
278.589;000.023;65;000.555;MIDI 01
278.616;000.032;53;000.688;MIDI 01
278.627;000.035;46;000.617;MIDI 01
278.778;000.033;50;000.562;MIDI 01
278.758;000.056;49;000.422;MIDI 01
278.780;000.040;44;000.469;MIDI 01
278.786;000.046;41;000.336;MIDI 01
278.904;000.052;49;000.648;MIDI 01
278.906;000.054;50;000.523;MIDI 01
278.928;000.034;41;000.523;MIDI 01
278.915;000.050;44;000.523;MIDI 01
279.031;000.026;35;000.703;MIDI 01
279.055;000.034;55;000.625;MIDI 01
279.056;000.038;54;000.664;MIDI 01
279.066;000.042;46;000.555;MIDI 01
279.079;000.031;53;000.492;MIDI 01
279.094;000.030;49;000.375;MIDI 01
279.204;000.048;48;000.711;MIDI 01
279.248;000.044;40;000.320;MIDI 01
279.256;000.061;41;000.250;MIDI 01
279.359;000.032;50;000.578;MIDI 01
279.375;000.029;48;000.500;MIDI 01
279.436;000.002;44;000.023;MIDI 01
279.465;000.042;58;000.703;MIDI 01
279.480;000.028;67;000.523;MIDI 01
279.467;000.043;61;000.695;MIDI 01
279.469;000.048;66;000.664;MIDI 01
279.498;000.031;54;000.617;MIDI 01
279.492;000.042;55;000.641;MIDI 01
279.496;000.047;46;000.602;MIDI 01
279.506;000.040;53;000.547;MIDI 01
279.521;000.035;49;000.375;MIDI 01
279.657;000.023;47;000.500;MIDI 01
279.635;000.049;48;000.594;MIDI 01
279.655;000.031;42;000.508;MIDI 01
279.659;000.030;40;000.398;MIDI 01
279.680;000.058;41;000.242;MIDI 01
279.785;000.002;55;000.594;MIDI 01
279.766;000.023;35;000.742;MIDI 01
279.799;000.002;33;000.336;MIDI 01
279.769;000.043;53;000.688;MIDI 01
279.771;000.051;46;000.633;MIDI 01
279.822;000.053;49;000.180;MIDI 01
279.889;000.018;35;000.227;MIDI 01
279.922;000.038;50;000.656;MIDI 01
279.934;000.032;48;000.242;MIDI 01
279.947;000.040;41;000.320;MIDI 01
279.968;000.049;40;000.242;MIDI 01
280.075;000.030;48;000.586;MIDI 01
280.056;000.053;50;000.586;MIDI 01
280.077;000.035;44;000.555;MIDI 01
280.093;000.030;41;000.422;MIDI 01
280.204;000.038;58;000.680;MIDI 01
280.202;000.047;61;000.727;MIDI 01
280.212;000.040;55;000.766;MIDI 01
280.206;000.048;66;000.680;MIDI 01
280.215;000.042;67;000.586;MIDI 01
280.219;000.052;54;000.672;MIDI 01
280.242;000.033;47;000.484;MIDI 01
280.267;000.036;50;000.375;MIDI 01
280.269;000.043;51;000.219;MIDI 01
280.370;000.029;52;000.648;MIDI 01
280.406;000.002;49;000.109;MIDI 01
280.390;000.019;50;000.562;MIDI 01
280.403;000.054;42;000.336;MIDI 01
280.445;000.064;41;000.117;MIDI 01
280.507;000.048;50;000.602;MIDI 01
280.505;000.054;49;000.602;MIDI 01
280.512;000.050;41;000.188;MIDI 01
280.514;000.051;44;000.352;MIDI 01
280.615;000.015;35;000.773;MIDI 01
280.635;000.036;55;000.711;MIDI 01
280.639;000.051;54;000.711;MIDI 01
280.666;000.027;46;000.484;MIDI 01
280.672;000.028;49;000.469;MIDI 01
280.705;000.053;35;000.367;MIDI 01
280.785;000.033;50;000.641;MIDI 01
280.791;000.039;48;000.648;MIDI 01
280.818;000.036;40;000.367;MIDI 01
280.802;000.054;55;000.023;MIDI 01
280.833;000.050;43;000.211;MIDI 01
280.924;000.032;58;000.664;MIDI 01
280.935;000.029;55;000.820;MIDI 01
280.969;000.002;51;000.367;MIDI 01
280.922;000.050;61;000.695;MIDI 01
280.940;000.034;67;000.594;MIDI 01
280.938;000.045;54;000.727;MIDI 01
280.953;000.032;49;000.555;MIDI 01
280.950;000.040;46;000.609;MIDI 01
280.929;000.065;66;000.695;MIDI 01
281.045;000.029;58;000.195;MIDI 01
281.094;000.019;50;000.641;MIDI 01
281.074;000.045;49;000.617;MIDI 01
281.098;000.028;44;000.516;MIDI 01
281.092;000.038;42;000.578;MIDI 01
281.220;000.054;44;000.594;MIDI 01
281.212;000.064;50;000.570;MIDI 01
281.217;000.061;41;000.414;MIDI 01
281.210;000.070;49;000.648;MIDI 01
281.378;000.043;41;000.648;MIDI 01
281.371;000.058;50;000.680;MIDI 01
281.369;000.064;49;000.688;MIDI 01
281.376;000.069;44;000.633;MIDI 01
281.591;000.002;53;000.344;MIDI 01
281.541;000.052;55;000.797;MIDI 01
281.543;000.055;54;000.766;MIDI 01
281.559;000.044;49;000.648;MIDI 01
281.553;000.055;46;000.633;MIDI 01
281.583;000.054;51;000.258;MIDI 01
281.556;000.123;35;000.750;MIDI 01
281.555;000.158;36;000.656;MIDI 01
281.714;000.040;38;000.648;MIDI 01
281.752;000.021;40;000.688;MIDI 01
281.778;000.046;41;000.633;MIDI 01
281.816;000.044;43;000.664;MIDI 01
281.845;000.055;45;000.680;MIDI 01
281.885;000.045;47;000.688;MIDI 01
281.926;000.048;48;000.688;MIDI 01
281.953;000.044;50;000.688;MIDI 01
281.991;000.026;52;000.719;MIDI 01
282.014;000.036;53;000.695;MIDI 01
282.048;000.030;55;000.758;MIDI 01
282.069;000.032;57;000.750;MIDI 01
282.098;000.030;59;000.750;MIDI 01
282.131;000.018;60;000.727;MIDI 01
282.149;000.024;62;000.789;MIDI 01
282.173;000.023;64;000.773;MIDI 01
282.199;000.010;65;000.773;MIDI 01
282.214;000.021;67;000.781;MIDI 01
282.239;000.023;69;000.805;MIDI 01
282.245;000.034;60;000.172;MIDI 01
282.261;000.022;64;000.414;MIDI 01
282.266;000.024;71;000.773;MIDI 01
282.290;000.019;65;000.367;MIDI 01
282.296;000.015;72;000.656;MIDI 01
282.269;000.050;62;000.180;MIDI 01
282.359;000.002;74;000.172;MIDI 01
282.357;000.016;71;000.344;MIDI 01
282.425;000.083;34;000.500;MIDI 01
282.396;000.479;76;000.922;MIDI 01
282.394;000.522;29;000.727;MIDI 01
282.386;000.530;38;000.742;MIDI 01
282.390;000.534;32;000.672;MIDI 01
282.383;000.548;37;000.711;MIDI 01
