Start;Duration;Pitch;Velocity;Instrument
000.493;000.084;39;000.320;MIDI 01
000.625;000.058;41;000.359;MIDI 01
000.759;000.064;43;000.344;MIDI 01
000.312;000.539;51;000.461;MIDI 01
000.889;000.046;44;000.297;MIDI 01
000.970;000.076;43;000.406;MIDI 01
001.115;000.051;41;000.422;MIDI 01
001.235;000.060;39;000.430;MIDI 01
000.870;000.483;48;000.461;MIDI 01
001.351;000.062;38;000.414;MIDI 01
001.370;000.078;46;000.438;MIDI 01
001.477;000.068;36;000.406;MIDI 01
001.602;000.051;44;000.391;MIDI 01
001.614;000.054;38;000.227;MIDI 01
001.677;000.055;34;000.352;MIDI 01
001.680;000.071;46;000.414;MIDI 01
001.795;000.045;39;000.438;MIDI 01
001.770;000.074;44;000.484;MIDI 01
001.935;000.089;38;000.398;MIDI 01
002.083;000.068;39;000.375;MIDI 01
002.214;000.058;40;000.430;MIDI 01
001.856;000.489;43;000.469;MIDI 01
002.349;000.047;41;000.391;MIDI 01
002.367;000.084;44;000.406;MIDI 01
002.492;000.048;43;000.430;MIDI 01
002.494;000.057;46;000.453;MIDI 01
002.611;000.055;48;000.492;MIDI 01
002.609;000.084;44;000.508;MIDI 01
002.724;000.068;46;000.445;MIDI 01
002.721;000.099;50;000.500;MIDI 01
002.847;000.074;51;000.516;MIDI 01
002.849;000.079;48;000.438;MIDI 01
002.961;000.057;53;000.531;MIDI 01
002.985;000.064;50;000.391;MIDI 01
003.092;000.087;51;000.461;MIDI 01
003.090;000.100;55;000.500;MIDI 01
003.210;000.091;57;000.500;MIDI 01
003.226;000.076;48;000.406;MIDI 01
003.364;000.052;50;000.430;MIDI 01
003.336;000.123;58;000.477;MIDI 01
003.471;000.062;51;000.461;MIDI 01
003.474;000.101;60;000.477;MIDI 01
003.602;000.033;53;000.406;MIDI 01
003.586;000.075;57;000.477;MIDI 01
003.708;000.046;53;000.500;MIDI 01
003.727;000.051;51;000.469;MIDI 01
003.837;000.065;50;000.469;MIDI 01
003.840;000.124;58;000.477;MIDI 01
003.991;000.050;48;000.383;MIDI 01
004.069;000.032;58;000.570;MIDI 01
004.075;000.033;70;000.602;MIDI 01
004.098;000.092;46;000.508;MIDI 01
004.272;000.044;44;000.328;MIDI 01
004.359;000.039;43;000.438;MIDI 01
004.485;000.067;51;000.539;MIDI 01
004.619;000.087;53;000.539;MIDI 01
004.342;000.369;75;000.695;MIDI 01
004.345;000.398;63;000.648;MIDI 01
004.743;000.120;55;000.531;MIDI 01
004.872;000.073;56;000.539;MIDI 01
004.986;000.080;55;000.531;MIDI 01
004.884;000.320;60;000.602;MIDI 01
005.127;000.090;53;000.492;MIDI 01
005.259;000.085;51;000.500;MIDI 01
004.882;000.511;72;000.641;MIDI 01
005.382;000.108;50;000.531;MIDI 01
005.384;000.120;70;000.625;MIDI 01
005.533;000.075;48;000.492;MIDI 01
005.622;000.032;68;000.492;MIDI 01
005.660;000.041;50;000.453;MIDI 01
005.681;000.059;70;000.523;MIDI 01
005.741;000.055;68;000.602;MIDI 01
005.756;000.076;46;000.492;MIDI 01
005.819;000.051;67;000.602;MIDI 01
005.879;000.054;51;000.516;MIDI 01
005.885;000.071;68;000.578;MIDI 01
006.020;000.102;50;000.477;MIDI 01
006.169;000.087;51;000.539;MIDI 01
006.285;000.076;52;000.516;MIDI 01
005.938;000.472;67;000.578;MIDI 01
006.397;000.099;53;000.500;MIDI 01
006.425;000.126;68;000.578;MIDI 01
006.523;000.105;55;000.516;MIDI 01
006.549;000.083;70;000.625;MIDI 01
006.662;000.123;72;000.625;MIDI 01
006.651;000.135;56;000.562;MIDI 01
006.776;000.090;58;000.539;MIDI 01
006.778;000.128;74;000.695;MIDI 01
006.904;000.094;75;000.664;MIDI 01
006.897;000.112;60;000.523;MIDI 01
007.018;000.073;77;000.633;MIDI 01
007.032;000.106;62;000.547;MIDI 01
007.131;000.126;79;000.656;MIDI 01
007.156;000.105;63;000.547;MIDI 01
007.257;000.034;80;000.602;MIDI 01
007.267;000.070;65;000.523;MIDI 01
007.391;000.087;67;000.555;MIDI 01
007.374;000.162;82;000.641;MIDI 01
007.510;000.028;68;000.398;MIDI 01
007.513;000.151;84;000.609;MIDI 01
007.618;000.076;65;000.422;MIDI 01
007.633;000.092;80;000.539;MIDI 01
007.435;000.304;58;000.461;MIDI 01
007.737;000.032;62;000.383;MIDI 01
007.750;000.082;77;000.484;MIDI 01
007.894;000.060;63;000.414;MIDI 01
007.929;000.040;51;000.453;MIDI 01
007.892;000.086;75;000.477;MIDI 01
008.391;000.026;70;000.430;MIDI 01
008.401;000.071;50;000.344;MIDI 01
008.520;000.073;58;000.344;MIDI 01
008.631;000.023;74;000.523;MIDI 01
008.658;000.045;62;000.258;MIDI 01
008.655;000.053;53;000.344;MIDI 01
008.765;000.110;58;000.367;MIDI 01
008.918;000.096;56;000.406;MIDI 01
009.044;000.080;58;000.422;MIDI 01
008.895;000.245;77;000.617;MIDI 01
008.905;000.264;65;000.523;MIDI 01
009.179;000.050;56;000.414;MIDI 01
009.276;000.074;58;000.430;MIDI 01
009.428;000.026;74;000.562;MIDI 01
009.438;000.030;62;000.406;MIDI 01
009.418;000.053;53;000.391;MIDI 01
009.558;000.062;58;000.336;MIDI 01
009.676;000.020;77;000.555;MIDI 01
009.690;000.033;65;000.383;MIDI 01
009.665;000.073;56;000.422;MIDI 01
009.767;000.089;58;000.438;MIDI 01
009.953;000.102;60;000.383;MIDI 01
010.107;000.060;58;000.422;MIDI 01
010.217;000.064;60;000.477;MIDI 01
010.341;000.071;58;000.430;MIDI 01
010.453;000.089;60;000.453;MIDI 01
009.940;000.655;68;000.547;MIDI 01
009.930;000.667;80;000.664;MIDI 01
010.582;000.047;58;000.422;MIDI 01
010.699;000.049;60;000.391;MIDI 01
010.724;000.030;79;000.516;MIDI 01
010.741;000.036;67;000.352;MIDI 01
010.775;000.126;58;000.375;MIDI 01
010.943;000.022;77;000.508;MIDI 01
010.949;000.025;65;000.461;MIDI 01
010.939;000.059;56;000.367;MIDI 01
011.058;000.074;58;000.438;MIDI 01
011.177;000.034;75;000.555;MIDI 01
011.185;000.028;63;000.461;MIDI 01
011.172;000.092;55;000.461;MIDI 01
011.295;000.102;58;000.469;MIDI 01
011.402;000.032;74;000.648;MIDI 01
011.405;000.035;62;000.555;MIDI 01
011.434;000.058;53;000.391;MIDI 01
011.545;000.088;58;000.500;MIDI 01
011.647;000.032;63;000.617;MIDI 01
011.650;000.032;75;000.633;MIDI 01
011.660;000.067;55;000.477;MIDI 01
011.785;000.066;58;000.461;MIDI 01
011.900;000.036;72;000.602;MIDI 01
011.904;000.034;60;000.555;MIDI 01
011.897;000.071;51;000.469;MIDI 01
011.991;000.095;58;000.484;MIDI 01
012.136;000.031;69;000.617;MIDI 01
012.145;000.101;48;000.492;MIDI 01
012.252;000.108;58;000.445;MIDI 01
012.376;000.036;70;000.609;MIDI 01
012.380;000.084;50;000.383;MIDI 01
012.499;000.108;58;000.438;MIDI 01
012.614;000.026;74;000.664;MIDI 01
012.611;000.030;62;000.609;MIDI 01
012.616;000.092;53;000.438;MIDI 01
012.754;000.118;58;000.477;MIDI 01
012.885;000.107;56;000.484;MIDI 01
013.012;000.093;58;000.523;MIDI 01
012.878;000.264;77;000.703;MIDI 01
012.881;000.287;65;000.664;MIDI 01
013.142;000.056;56;000.469;MIDI 01
013.232;000.061;58;000.469;MIDI 01
013.371;000.028;74;000.609;MIDI 01
013.374;000.027;62;000.492;MIDI 01
013.347;000.059;53;000.430;MIDI 01
013.455;000.075;58;000.508;MIDI 01
013.592;000.028;77;000.641;MIDI 01
013.590;000.033;65;000.578;MIDI 01
013.595;000.090;56;000.469;MIDI 01
013.701;000.070;58;000.477;MIDI 01
013.855;000.099;60;000.484;MIDI 01
014.009;000.060;58;000.438;MIDI 01
014.107;000.072;60;000.516;MIDI 01
014.224;000.080;58;000.477;MIDI 01
014.338;000.074;60;000.516;MIDI 01
013.852;000.567;80;000.664;MIDI 01
013.859;000.561;68;000.586;MIDI 01
014.465;000.059;58;000.461;MIDI 01
014.571;000.021;79;000.500;MIDI 01
014.582;000.032;67;000.383;MIDI 01
014.575;000.054;60;000.453;MIDI 01
014.667;000.097;58;000.391;MIDI 01
014.785;000.031;77;000.578;MIDI 01
014.791;000.034;65;000.539;MIDI 01
014.795;000.052;56;000.406;MIDI 01
014.901;000.062;58;000.438;MIDI 01
015.014;000.032;63;000.578;MIDI 01
015.016;000.032;75;000.570;MIDI 01
015.000;000.051;55;000.422;MIDI 01
015.082;000.065;58;000.523;MIDI 01
015.248;000.027;60;000.633;MIDI 01
015.246;000.033;72;000.703;MIDI 01
015.244;000.076;56;000.461;MIDI 01
015.251;000.085;46;000.477;MIDI 01
015.332;000.091;58;000.477;MIDI 01
015.484;000.032;74;000.703;MIDI 01
015.489;000.034;62;000.609;MIDI 01
015.482;000.073;46;000.508;MIDI 01
015.473;000.085;53;000.539;MIDI 01
015.565;000.117;58;000.508;MIDI 01
015.733;000.033;63;000.578;MIDI 01
015.735;000.033;75;000.602;MIDI 01
015.711;000.070;55;000.469;MIDI 01
015.739;000.111;51;000.422;MIDI 01
015.841;000.129;58;000.508;MIDI 01
015.966;000.089;55;000.422;MIDI 01
016.081;000.110;51;000.383;MIDI 01
016.212;000.026;70;000.469;MIDI 01
016.230;000.062;50;000.352;MIDI 01
016.342;000.075;58;000.406;MIDI 01
016.452;000.023;74;000.484;MIDI 01
016.462;000.038;62;000.344;MIDI 01
016.454;000.055;53;000.398;MIDI 01
016.568;000.101;58;000.438;MIDI 01
016.700;000.104;56;000.469;MIDI 01
016.827;000.091;58;000.492;MIDI 01
016.698;000.233;77;000.641;MIDI 01
016.704;000.276;65;000.547;MIDI 01
016.961;000.065;56;000.438;MIDI 01
017.055;000.059;58;000.469;MIDI 01
017.196;000.034;74;000.555;MIDI 01
017.205;000.034;62;000.383;MIDI 01
017.188;000.066;53;000.438;MIDI 01
017.322;000.056;58;000.445;MIDI 01
017.415;000.022;65;000.570;MIDI 01
017.410;000.031;77;000.664;MIDI 01
017.421;000.095;56;000.484;MIDI 01
017.541;000.078;58;000.430;MIDI 01
017.697;000.096;60;000.484;MIDI 01
017.844;000.067;58;000.430;MIDI 01
017.954;000.057;60;000.477;MIDI 01
018.077;000.082;58;000.445;MIDI 01
018.191;000.091;60;000.469;MIDI 01
017.672;000.611;80;000.727;MIDI 01
017.676;000.615;68;000.664;MIDI 01
018.323;000.058;58;000.461;MIDI 01
018.427;000.034;79;000.562;MIDI 01
018.438;000.025;67;000.477;MIDI 01
018.433;000.067;60;000.422;MIDI 01
018.531;000.102;58;000.391;MIDI 01
018.664;000.022;77;000.539;MIDI 01
018.673;000.024;65;000.469;MIDI 01
018.668;000.049;56;000.398;MIDI 01
018.789;000.055;58;000.398;MIDI 01
018.908;000.032;75;000.516;MIDI 01
018.906;000.036;63;000.492;MIDI 01
018.893;000.082;55;000.422;MIDI 01
019.010;000.103;58;000.430;MIDI 01
019.137;000.025;62;000.531;MIDI 01
019.140;000.029;74;000.578;MIDI 01
019.149;000.062;53;000.367;MIDI 01
019.273;000.071;58;000.398;MIDI 01
019.406;000.025;75;000.422;MIDI 01
019.400;000.038;63;000.445;MIDI 01
019.398;000.070;55;000.352;MIDI 01
019.500;000.069;58;000.375;MIDI 01
019.627;000.022;72;000.492;MIDI 01
019.635;000.030;60;000.406;MIDI 01
019.629;000.044;51;000.305;MIDI 01
019.714;000.060;58;000.438;MIDI 01
019.863;000.031;69;000.539;MIDI 01
019.857;000.056;48;000.469;MIDI 01
019.970;000.062;58;000.367;MIDI 01
020.092;000.031;70;000.625;MIDI 01
020.087;000.071;50;000.422;MIDI 01
020.176;000.119;58;000.438;MIDI 01
020.333;000.027;74;000.672;MIDI 01
020.336;000.032;62;000.602;MIDI 01
020.341;000.068;53;000.406;MIDI 01
020.442;000.147;58;000.492;MIDI 01
020.613;000.101;56;000.469;MIDI 01
020.602;000.214;77;000.695;MIDI 01
020.743;000.086;58;000.508;MIDI 01
020.600;000.256;65;000.641;MIDI 01
020.872;000.070;56;000.453;MIDI 01
020.978;000.061;58;000.461;MIDI 01
021.097;000.028;74;000.641;MIDI 01
021.083;000.050;53;000.484;MIDI 01
021.109;000.030;62;000.430;MIDI 01
021.207;000.074;58;000.477;MIDI 01
021.329;000.024;77;000.656;MIDI 01
021.327;000.032;65;000.625;MIDI 01
021.319;000.079;56;000.531;MIDI 01
021.420;000.080;58;000.516;MIDI 01
021.583;000.100;60;000.531;MIDI 01
021.722;000.053;58;000.461;MIDI 01
021.821;000.060;60;000.508;MIDI 01
021.942;000.077;58;000.500;MIDI 01
022.048;000.103;60;000.508;MIDI 01
021.567;000.606;80;000.742;MIDI 01
021.572;000.602;68;000.656;MIDI 01
022.181;000.049;58;000.438;MIDI 01
022.314;000.029;79;000.570;MIDI 01
022.325;000.023;67;000.500;MIDI 01
022.281;000.081;60;000.469;MIDI 01
022.387;000.107;58;000.414;MIDI 01
022.551;000.023;65;000.516;MIDI 01
022.529;000.052;56;000.391;MIDI 01
022.549;000.034;77;000.562;MIDI 01
022.635;000.067;58;000.438;MIDI 01
022.728;000.065;55;000.508;MIDI 01
022.772;000.022;75;000.547;MIDI 01
022.774;000.022;63;000.547;MIDI 01
022.832;000.054;58;000.484;MIDI 01
022.990;000.026;60;000.648;MIDI 01
022.989;000.029;72;000.672;MIDI 01
022.972;000.094;46;000.531;MIDI 01
022.969;000.102;56;000.508;MIDI 01
023.079;000.065;58;000.547;MIDI 01
023.221;000.033;74;000.680;MIDI 01
023.227;000.036;62;000.578;MIDI 01
023.215;000.068;53;000.469;MIDI 01
023.217;000.089;46;000.484;MIDI 01
023.289;000.099;58;000.531;MIDI 01
023.468;000.031;63;000.625;MIDI 01
023.470;000.031;75;000.625;MIDI 01
023.472;000.052;55;000.531;MIDI 01
023.477;000.060;51;000.516;MIDI 01
023.741;000.243;58;000.719;MIDI 01
024.062;000.059;51;000.703;MIDI 01
024.056;000.151;55;000.695;MIDI 01
024.058;000.165;63;000.719;MIDI 01
024.060;000.193;58;000.641;MIDI 01
024.076;000.491;39;000.625;MIDI 01
024.596;000.065;44;000.750;MIDI 01
024.604;000.070;32;000.680;MIDI 01
024.598;000.096;51;000.688;MIDI 01
024.595;000.286;60;000.695;MIDI 01
024.600;000.415;56;000.641;MIDI 01
025.073;000.036;50;000.602;MIDI 01
025.075;000.036;46;000.680;MIDI 01
025.071;000.043;58;000.594;MIDI 01
025.079;000.049;34;000.641;MIDI 01
025.104;000.037;53;000.336;MIDI 01
025.325;000.049;56;000.500;MIDI 01
025.342;000.039;38;000.531;MIDI 01
025.356;000.034;46;000.422;MIDI 01
025.333;000.060;53;000.453;MIDI 01
025.587;000.035;51;000.453;MIDI 01
025.581;000.048;46;000.234;MIDI 01
025.571;000.060;55;000.523;MIDI 01
025.593;000.041;39;000.508;MIDI 01
025.841;000.021;75;000.508;MIDI 01
025.832;000.033;84;000.602;MIDI 01
025.861;000.035;56;000.453;MIDI 01
026.065;000.042;74;000.523;MIDI 01
026.073;000.042;82;000.461;MIDI 01
026.086;000.039;58;000.328;MIDI 01
026.308;000.035;62;000.492;MIDI 01
026.306;000.043;80;000.492;MIDI 01
026.340;000.048;77;000.172;MIDI 01
026.546;000.032;63;000.422;MIDI 01
026.556;000.029;70;000.438;MIDI 01
026.565;000.030;79;000.375;MIDI 01
026.786;000.027;60;000.688;MIDI 01
026.781;000.060;68;000.750;MIDI 01
026.783;000.060;41;000.703;MIDI 01
027.016;000.030;59;000.680;MIDI 01
027.025;000.040;43;000.672;MIDI 01
027.020;000.052;67;000.703;MIDI 01
027.256;000.034;62;000.625;MIDI 01
027.252;000.054;47;000.656;MIDI 01
027.258;000.049;65;000.617;MIDI 01
027.495;000.037;48;000.547;MIDI 01
027.497;000.041;63;000.609;MIDI 01
027.508;000.034;55;000.422;MIDI 01
027.749;000.022;80;000.516;MIDI 01
027.751;000.026;72;000.438;MIDI 01
027.998;000.024;71;000.438;MIDI 01
027.990;000.043;79;000.531;MIDI 01
028.006;000.035;55;000.375;MIDI 01
028.227;000.025;74;000.469;MIDI 01
028.220;000.034;77;000.477;MIDI 01
028.222;000.040;59;000.469;MIDI 01
028.458;000.026;75;000.438;MIDI 01
028.464;000.029;67;000.414;MIDI 01
028.467;000.034;60;000.383;MIDI 01
028.677;000.028;62;000.703;MIDI 01
028.680;000.054;46;000.758;MIDI 01
028.670;000.071;67;000.648;MIDI 01
028.917;000.029;60;000.633;MIDI 01
028.923;000.044;45;000.633;MIDI 01
028.919;000.055;65;000.672;MIDI 01
029.148;000.035;57;000.523;MIDI 01
029.150;000.048;63;000.570;MIDI 01
029.167;000.047;41;000.516;MIDI 01
029.382;000.032;53;000.406;MIDI 01
029.374;000.046;62;000.578;MIDI 01
029.387;000.034;46;000.523;MIDI 01
029.613;000.025;74;000.477;MIDI 01
029.615;000.036;79;000.500;MIDI 01
029.647;000.042;58;000.297;MIDI 01
029.841;000.036;72;000.469;MIDI 01
029.858;000.030;77;000.344;MIDI 01
029.855;000.046;57;000.438;MIDI 01
030.086;000.036;53;000.391;MIDI 01
030.077;000.048;75;000.398;MIDI 01
030.093;000.037;69;000.336;MIDI 01
030.314;000.035;65;000.469;MIDI 01
030.319;000.032;58;000.422;MIDI 01
030.331;000.036;74;000.312;MIDI 01
030.536;000.198;43;000.680;MIDI 01
030.532;000.233;48;000.727;MIDI 01
030.527;000.245;58;000.633;MIDI 01
030.525;000.256;64;000.703;MIDI 01
030.776;000.029;57;000.391;MIDI 01
030.778;000.029;65;000.570;MIDI 01
030.772;000.036;41;000.492;MIDI 01
031.019;000.093;70;000.523;MIDI 01
031.034;000.169;55;000.477;MIDI 01
031.016;000.214;76;000.594;MIDI 01
031.041;000.192;60;000.414;MIDI 01
031.250;000.021;77;000.508;MIDI 01
031.245;000.035;53;000.523;MIDI 01
031.254;000.030;69;000.570;MIDI 01
031.458;000.198;43;000.688;MIDI 01
031.461;000.227;58;000.703;MIDI 01
031.454;000.242;48;000.703;MIDI 01
031.456;000.245;64;000.719;MIDI 01
031.686;000.035;41;000.492;MIDI 01
031.696;000.032;65;000.594;MIDI 01
031.764;000.002;57;000.023;MIDI 01
031.920;000.174;82;000.602;MIDI 01
031.922;000.203;60;000.555;MIDI 01
031.926;000.213;55;000.516;MIDI 01
031.918;000.254;76;000.617;MIDI 01
032.151;000.028;53;000.562;MIDI 01
032.149;000.034;81;000.617;MIDI 01
032.153;000.032;77;000.625;MIDI 01
032.381;000.209;43;000.633;MIDI 01
032.372;000.237;48;000.656;MIDI 01
032.374;000.241;58;000.711;MIDI 01
032.368;000.256;64;000.719;MIDI 01
032.604;000.029;57;000.562;MIDI 01
032.608;000.036;41;000.523;MIDI 01
032.609;000.052;65;000.680;MIDI 01
032.824;000.220;55;000.633;MIDI 01
032.814;000.250;70;000.758;MIDI 01
032.819;000.248;60;000.672;MIDI 01
032.809;000.268;76;000.742;MIDI 01
033.053;000.031;53;000.555;MIDI 01
033.060;000.026;69;000.562;MIDI 01
033.056;000.050;77;000.664;MIDI 01
033.286;000.237;67;000.633;MIDI 01
033.289;000.237;72;000.648;MIDI 01
033.477;000.051;85;000.227;MIDI 01
033.277;000.257;82;000.750;MIDI 01
033.275;000.261;88;000.758;MIDI 01
033.514;000.028;65;000.617;MIDI 01
033.522;000.030;89;000.648;MIDI 01
033.524;000.033;81;000.672;MIDI 01
033.771;000.086;60;000.680;MIDI 01
033.779;000.097;55;000.641;MIDI 01
033.769;000.232;76;000.711;MIDI 01
033.774;000.260;70;000.727;MIDI 01
033.946;000.091;60;000.086;MIDI 01
034.031;000.029;53;000.586;MIDI 01
034.041;000.026;69;000.664;MIDI 01
034.043;000.027;77;000.617;MIDI 01
034.385;000.031;65;000.422;MIDI 01
034.398;000.039;62;000.398;MIDI 01
034.650;000.053;63;000.477;MIDI 01
034.681;000.026;65;000.453;MIDI 01
034.779;000.106;72;000.406;MIDI 01
034.904;000.030;60;000.406;MIDI 01
034.913;000.032;65;000.359;MIDI 01
035.017;000.054;69;000.430;MIDI 01
035.131;000.051;62;000.422;MIDI 01
035.153;000.040;65;000.320;MIDI 01
035.241;000.086;70;000.469;MIDI 01
035.362;000.027;65;000.438;MIDI 01
035.379;000.064;62;000.344;MIDI 01
035.464;000.053;71;000.492;MIDI 01
035.580;000.040;65;000.562;MIDI 01
035.600;000.029;63;000.430;MIDI 01
035.699;000.069;72;000.438;MIDI 01
035.825;000.033;60;000.391;MIDI 01
035.842;000.027;65;000.453;MIDI 01
035.942;000.053;69;000.414;MIDI 01
036.044;000.043;65;000.422;MIDI 01
036.171;000.059;70;000.484;MIDI 01
036.295;000.033;65;000.398;MIDI 01
036.289;000.048;62;000.453;MIDI 01
036.399;000.070;71;000.469;MIDI 01
036.522;000.046;63;000.445;MIDI 01
036.531;000.044;65;000.266;MIDI 01
036.649;000.065;72;000.469;MIDI 01
036.764;000.033;65;000.359;MIDI 01
036.786;000.047;62;000.234;MIDI 01
036.877;000.056;71;000.453;MIDI 01
036.995;000.034;65;000.352;MIDI 01
037.003;000.042;63;000.398;MIDI 01
037.124;000.051;72;000.422;MIDI 01
037.227;000.031;65;000.383;MIDI 01
037.242;000.040;62;000.344;MIDI 01
037.335;000.056;71;000.477;MIDI 01
037.454;000.033;65;000.367;MIDI 01
037.462;000.040;63;000.406;MIDI 01
037.581;000.061;72;000.422;MIDI 01
037.684;000.041;65;000.414;MIDI 01
037.688;000.054;62;000.445;MIDI 01
037.802;000.064;71;000.453;MIDI 01
037.921;000.029;65;000.430;MIDI 01
037.925;000.045;63;000.484;MIDI 01
038.045;000.089;72;000.469;MIDI 01
038.163;000.029;65;000.406;MIDI 01
038.166;000.045;62;000.438;MIDI 01
038.276;000.052;71;000.484;MIDI 01
038.391;000.041;65;000.562;MIDI 01
038.394;000.043;63;000.484;MIDI 01
038.501;000.077;72;000.508;MIDI 01
038.631;000.033;60;000.398;MIDI 01
038.651;000.030;65;000.398;MIDI 01
038.751;000.059;69;000.383;MIDI 01
038.856;000.047;62;000.438;MIDI 01
038.879;000.038;65;000.297;MIDI 01
038.969;000.069;70;000.477;MIDI 01
039.098;000.051;62;000.398;MIDI 01
039.111;000.040;65;000.320;MIDI 01
039.196;000.059;71;000.484;MIDI 01
039.323;000.044;65;000.508;MIDI 01
039.320;000.048;63;000.539;MIDI 01
039.421;000.082;72;000.492;MIDI 01
039.543;000.043;60;000.477;MIDI 01
039.574;000.032;65;000.398;MIDI 01
039.665;000.059;69;000.414;MIDI 01
039.778;000.043;62;000.414;MIDI 01
039.805;000.038;65;000.297;MIDI 01
039.896;000.068;70;000.453;MIDI 01
040.031;000.033;65;000.367;MIDI 01
040.026;000.050;62;000.336;MIDI 01
040.132;000.052;71;000.422;MIDI 01
040.254;000.046;63;000.477;MIDI 01
040.258;000.044;65;000.469;MIDI 01
040.382;000.062;72;000.453;MIDI 01
040.504;000.039;62;000.336;MIDI 01
040.531;000.042;65;000.289;MIDI 01
040.606;000.046;71;000.398;MIDI 01
040.716;000.044;63;000.445;MIDI 01
040.733;000.039;65;000.398;MIDI 01
040.850;000.046;72;000.383;MIDI 01
040.954;000.039;62;000.391;MIDI 01
040.979;000.032;65;000.367;MIDI 01
041.067;000.055;71;000.453;MIDI 01
041.197;000.035;65;000.383;MIDI 01
041.192;000.044;63;000.445;MIDI 01
041.308;000.061;72;000.422;MIDI 01
041.434;000.037;62;000.352;MIDI 01
041.443;000.036;65;000.344;MIDI 01
041.539;000.034;71;000.367;MIDI 01
041.665;000.036;63;000.383;MIDI 01
041.667;000.040;65;000.375;MIDI 01
041.778;000.036;72;000.320;MIDI 01
041.894;000.039;65;000.375;MIDI 01
041.890;000.049;63;000.266;MIDI 01
042.006;000.049;72;000.289;MIDI 01
042.112;000.050;63;000.320;MIDI 01
042.139;000.028;66;000.406;MIDI 01
042.221;000.068;72;000.406;MIDI 01
042.353;000.044;63;000.297;MIDI 01
042.389;000.041;66;000.234;MIDI 01
042.464;000.054;71;000.367;MIDI 01
042.574;000.049;63;000.359;MIDI 01
042.592;000.035;66;000.375;MIDI 01
042.692;000.046;72;000.422;MIDI 01
042.809;000.045;63;000.344;MIDI 01
042.832;000.031;66;000.383;MIDI 01
042.913;000.059;71;000.453;MIDI 01
043.031;000.053;63;000.414;MIDI 01
043.066;000.033;66;000.344;MIDI 01
043.150;000.061;72;000.477;MIDI 01
043.275;000.045;63;000.414;MIDI 01
043.291;000.033;66;000.336;MIDI 01
043.378;000.071;71;000.438;MIDI 01
043.507;000.036;66;000.391;MIDI 01
043.494;000.052;63;000.469;MIDI 01
043.642;000.054;72;000.477;MIDI 01
043.744;000.032;66;000.414;MIDI 01
043.746;000.043;63;000.461;MIDI 01
043.841;000.057;72;000.484;MIDI 01
043.987;000.033;67;000.500;MIDI 01
043.972;000.073;63;000.398;MIDI 01
044.100;000.057;73;000.445;MIDI 01
044.231;000.027;67;000.445;MIDI 01
044.219;000.051;63;000.477;MIDI 01
044.328;000.080;72;000.453;MIDI 01
044.464;000.031;67;000.508;MIDI 01
044.447;000.068;63;000.523;MIDI 01
044.566;000.104;73;000.570;MIDI 01
044.697;000.034;67;000.523;MIDI 01
044.681;000.070;63;000.523;MIDI 01
044.797;000.115;72;000.547;MIDI 01
044.920;000.037;67;000.562;MIDI 01
044.908;000.079;63;000.602;MIDI 01
045.023;000.136;73;000.555;MIDI 01
045.149;000.032;67;000.594;MIDI 01
045.134;000.074;63;000.594;MIDI 01
045.254;000.119;72;000.578;MIDI 01
045.373;000.033;67;000.531;MIDI 01
045.371;000.075;63;000.625;MIDI 01
045.479;000.104;73;000.594;MIDI 01
045.608;000.069;63;000.594;MIDI 01
045.621;000.197;67;000.664;MIDI 01
045.737;000.082;73;000.570;MIDI 01
045.862;000.024;68;000.453;MIDI 01
045.857;000.054;63;000.508;MIDI 01
045.995;000.068;73;000.422;MIDI 01
046.110;000.033;56;000.414;MIDI 01
046.133;000.034;63;000.359;MIDI 01
046.235;000.065;72;000.438;MIDI 01
046.353;000.057;63;000.367;MIDI 01
046.473;000.060;73;000.430;MIDI 01
046.601;000.051;63;000.391;MIDI 01
046.582;000.186;67;000.539;MIDI 01
046.725;000.057;73;000.383;MIDI 01
046.821;000.025;68;000.438;MIDI 01
046.843;000.050;63;000.352;MIDI 01
046.964;000.070;73;000.398;MIDI 01
047.077;000.035;56;000.383;MIDI 01
047.079;000.046;63;000.359;MIDI 01
047.200;000.079;72;000.461;MIDI 01
047.319;000.049;63;000.438;MIDI 01
047.427;000.071;73;000.500;MIDI 01
047.550;000.049;63;000.438;MIDI 01
047.674;000.062;73;000.445;MIDI 01
047.544;000.226;67;000.578;MIDI 01
047.810;000.034;68;000.570;MIDI 01
047.803;000.055;63;000.484;MIDI 01
047.935;000.077;73;000.430;MIDI 01
048.067;000.028;56;000.484;MIDI 01
048.062;000.046;63;000.445;MIDI 01
048.180;000.107;72;000.500;MIDI 01
048.302;000.036;66;000.555;MIDI 01
048.325;000.041;63;000.445;MIDI 01
048.436;000.056;72;000.492;MIDI 01
048.552;000.035;54;000.516;MIDI 01
048.553;000.050;63;000.445;MIDI 01
048.692;000.074;72;000.336;MIDI 01
048.791;000.044;67;000.617;MIDI 01
048.800;000.048;62;000.555;MIDI 01
048.922;000.126;72;000.477;MIDI 01
049.026;000.046;62;000.484;MIDI 01
049.042;000.034;55;000.500;MIDI 01
049.152;000.060;71;000.539;MIDI 01
049.265;000.051;64;000.617;MIDI 01
049.269;000.056;61;000.602;MIDI 01
049.383;000.083;70;000.539;MIDI 01
049.504;000.035;52;000.539;MIDI 01
049.496;000.046;61;000.516;MIDI 01
049.619;000.082;70;000.555;MIDI 01
049.719;000.057;65;000.641;MIDI 01
049.733;000.066;60;000.523;MIDI 01
049.846;000.106;70;000.586;MIDI 01
049.960;000.042;53;000.289;MIDI 01
049.952;000.053;60;000.547;MIDI 01
050.076;000.093;69;000.555;MIDI 01
050.192;000.045;62;000.617;MIDI 01
050.177;000.083;59;000.594;MIDI 01
050.297;000.099;68;000.586;MIDI 01
050.310;000.092;65;000.461;MIDI 01
050.435;000.034;50;000.422;MIDI 01
050.408;000.065;59;000.586;MIDI 01
050.543;000.047;65;000.445;MIDI 01
050.557;000.054;68;000.453;MIDI 01
050.626;000.071;59;000.680;MIDI 01
050.633;000.114;62;000.609;MIDI 01
050.778;000.040;66;000.297;MIDI 01
050.721;000.128;68;000.594;MIDI 01
050.753;000.153;65;000.406;MIDI 01
050.870;000.043;47;000.594;MIDI 01
050.872;000.081;62;000.617;MIDI 01
051.001;000.121;67;000.578;MIDI 01
051.107;000.067;60;000.625;MIDI 01
051.109;000.122;63;000.438;MIDI 01
051.231;000.126;67;000.586;MIDI 01
051.348;000.030;48;000.477;MIDI 01
051.345;000.120;63;000.594;MIDI 01
051.440;000.098;66;000.602;MIDI 01
051.555;000.079;57;000.695;MIDI 01
051.542;000.125;60;000.602;MIDI 01
051.651;000.082;63;000.508;MIDI 01
051.667;000.110;66;000.578;MIDI 01
051.777;000.036;45;000.570;MIDI 01
051.782;000.078;60;000.648;MIDI 01
051.946;000.077;65;000.477;MIDI 01
051.898;000.127;63;000.555;MIDI 01
052.007;000.068;58;000.641;MIDI 01
052.016;000.082;62;000.602;MIDI 01
052.151;000.113;65;000.562;MIDI 01
052.251;000.032;46;000.547;MIDI 01
052.268;000.111;58;000.656;MIDI 01
052.398;000.102;65;000.656;MIDI 01
052.460;000.071;51;000.672;MIDI 01
052.500;000.067;55;000.594;MIDI 01
052.513;000.111;60;000.508;MIDI 01
052.614;000.117;65;000.695;MIDI 01
052.706;000.041;39;000.422;MIDI 01
052.742;000.094;60;000.562;MIDI 01
052.737;000.104;55;000.500;MIDI 01
052.823;000.055;63;000.602;MIDI 01
052.925;000.053;29;000.672;MIDI 01
052.964;000.061;51;000.570;MIDI 01
052.938;000.130;57;000.648;MIDI 01
053.126;000.046;59;000.266;MIDI 01
053.085;000.098;60;000.445;MIDI 01
053.198;000.040;41;000.516;MIDI 01
053.191;000.051;51;000.562;MIDI 01
053.179;000.141;57;000.602;MIDI 01
053.309;000.124;60;000.633;MIDI 01
053.419;000.026;50;000.609;MIDI 01
053.425;000.036;34;000.562;MIDI 01
053.423;000.052;58;000.633;MIDI 01
053.598;000.050;46;000.516;MIDI 01
053.701;000.105;50;000.422;MIDI 01
053.845;000.069;46;000.414;MIDI 01
053.694;000.301;58;000.516;MIDI 01
053.968;000.082;50;000.516;MIDI 01
054.102;000.064;46;000.523;MIDI 01
053.964;000.243;62;000.516;MIDI 01
054.203;000.102;50;000.562;MIDI 01
054.325;000.062;46;000.578;MIDI 01
054.195;000.259;65;000.555;MIDI 01
054.436;000.092;50;000.555;MIDI 01
054.555;000.064;46;000.516;MIDI 01
054.439;000.250;70;000.648;MIDI 01
054.682;000.078;50;000.516;MIDI 01
054.817;000.050;46;000.414;MIDI 01
054.697;000.282;65;000.547;MIDI 01
054.929;000.081;50;000.469;MIDI 01
055.057;000.081;46;000.344;MIDI 01
054.974;000.257;62;000.523;MIDI 01
055.191;000.091;50;000.477;MIDI 01
055.207;000.080;58;000.500;MIDI 01
055.301;000.031;46;000.516;MIDI 01
055.434;000.032;34;000.586;MIDI 01
055.623;000.044;46;000.516;MIDI 01
055.743;000.041;53;000.328;MIDI 01
055.779;000.065;50;000.375;MIDI 01
055.852;000.077;46;000.477;MIDI 01
055.702;000.276;62;000.445;MIDI 01
055.978;000.048;53;000.398;MIDI 01
055.992;000.065;50;000.398;MIDI 01
056.078;000.096;46;000.586;MIDI 01
055.986;000.268;65;000.531;MIDI 01
056.205;000.059;53;000.492;MIDI 01
056.208;000.098;50;000.469;MIDI 01
056.326;000.103;46;000.562;MIDI 01
056.222;000.261;70;000.648;MIDI 01
056.471;000.055;53;000.562;MIDI 01
056.472;000.057;50;000.477;MIDI 01
056.585;000.091;46;000.555;MIDI 01
056.729;000.052;53;000.461;MIDI 01
056.468;000.315;74;000.672;MIDI 01
056.746;000.052;50;000.312;MIDI 01
056.845;000.090;46;000.523;MIDI 01
056.748;000.249;70;000.555;MIDI 01
056.990;000.049;53;000.414;MIDI 01
057.008;000.072;50;000.180;MIDI 01
057.109;000.109;46;000.500;MIDI 01
056.993;000.240;65;000.523;MIDI 01
057.209;000.045;62;000.461;MIDI 01
057.251;000.076;53;000.438;MIDI 01
057.267;000.073;50;000.312;MIDI 01
057.373;000.028;46;000.570;MIDI 01
057.500;000.044;34;000.625;MIDI 01
057.692;000.032;44;000.484;MIDI 01
057.774;000.032;65;000.531;MIDI 01
057.776;000.040;77;000.578;MIDI 01
057.816;000.039;53;000.312;MIDI 01
057.810;000.089;50;000.188;MIDI 01
057.908;000.079;46;000.555;MIDI 01
058.009;000.023;70;000.523;MIDI 01
058.003;000.031;82;000.617;MIDI 01
058.020;000.057;53;000.484;MIDI 01
058.039;000.045;50;000.461;MIDI 01
058.150;000.082;46;000.492;MIDI 01
058.235;000.020;74;000.602;MIDI 01
058.237;000.024;86;000.664;MIDI 01
058.247;000.053;53;000.523;MIDI 01
058.252;000.059;50;000.453;MIDI 01
058.384;000.083;46;000.531;MIDI 01
058.485;000.060;77;000.711;MIDI 01
058.492;000.056;53;000.531;MIDI 01
058.497;000.065;50;000.469;MIDI 01
058.482;000.095;89;000.781;MIDI 01
058.619;000.083;46;000.555;MIDI 01
058.744;000.018;86;000.570;MIDI 01
058.749;000.033;74;000.547;MIDI 01
058.746;000.045;53;000.461;MIDI 01
058.757;000.045;50;000.328;MIDI 01
058.860;000.067;46;000.492;MIDI 01
058.984;000.021;70;000.539;MIDI 01
058.982;000.036;82;000.547;MIDI 01
058.978;000.050;53;000.430;MIDI 01
058.986;000.065;50;000.328;MIDI 01
059.099;000.092;46;000.484;MIDI 01
059.229;000.025;65;000.469;MIDI 01
059.228;000.029;77;000.531;MIDI 01
059.221;000.047;53;000.453;MIDI 01
059.225;000.055;50;000.430;MIDI 01
059.349;000.093;46;000.469;MIDI 01
059.462;000.022;67;000.539;MIDI 01
059.460;000.029;79;000.586;MIDI 01
059.471;000.040;51;000.523;MIDI 01
059.591;000.085;46;000.445;MIDI 01
059.701;000.024;69;000.477;MIDI 01
059.698;000.032;81;000.602;MIDI 01
059.715;000.068;48;000.344;MIDI 01
059.841;000.052;46;000.398;MIDI 01
059.948;000.026;70;000.492;MIDI 01
059.945;000.035;82;000.508;MIDI 01
059.940;000.052;50;000.453;MIDI 01
060.060;000.069;46;000.359;MIDI 01
060.188;000.025;65;000.492;MIDI 01
060.173;000.043;50;000.375;MIDI 01
060.190;000.036;77;000.531;MIDI 01
060.293;000.078;46;000.453;MIDI 01
060.436;000.024;67;000.484;MIDI 01
060.433;000.031;79;000.570;MIDI 01
060.422;000.045;51;000.461;MIDI 01
060.523;000.097;46;000.453;MIDI 01
060.681;000.019;81;000.547;MIDI 01
060.679;000.028;69;000.445;MIDI 01
060.668;000.070;48;000.336;MIDI 01
060.778;000.054;46;000.445;MIDI 01
060.922;000.054;50;000.406;MIDI 01
060.946;000.052;70;000.500;MIDI 01
060.940;000.097;82;000.547;MIDI 01
061.046;000.060;46;000.367;MIDI 01
061.166;000.074;50;000.406;MIDI 01
061.253;000.039;46;000.484;MIDI 01
061.409;000.046;34;000.352;MIDI 01
061.568;000.056;46;000.562;MIDI 01
061.641;000.025;65;000.484;MIDI 01
061.644;000.044;77;000.523;MIDI 01
061.671;000.039;53;000.414;MIDI 01
061.694;000.069;50;000.289;MIDI 01
061.785;000.071;46;000.547;MIDI 01
061.882;000.032;70;000.570;MIDI 01
061.890;000.041;82;000.578;MIDI 01
061.888;000.049;53;000.445;MIDI 01
061.892;000.053;50;000.500;MIDI 01
062.011;000.088;46;000.547;MIDI 01
062.121;000.022;86;000.680;MIDI 01
062.119;000.034;74;000.578;MIDI 01
062.123;000.051;53;000.516;MIDI 01
062.132;000.052;50;000.438;MIDI 01
062.248;000.082;46;000.539;MIDI 01
062.362;000.053;77;000.648;MIDI 01
062.376;000.049;53;000.492;MIDI 01
062.356;000.071;89;000.719;MIDI 01
062.385;000.060;50;000.375;MIDI 01
062.480;000.079;46;000.570;MIDI 01
062.609;000.017;86;000.594;MIDI 01
062.607;000.035;74;000.562;MIDI 01
062.619;000.044;53;000.422;MIDI 01
062.630;000.049;50;000.320;MIDI 01
062.721;000.073;46;000.492;MIDI 01
062.860;000.024;70;000.508;MIDI 01
062.855;000.034;82;000.555;MIDI 01
062.846;000.049;53;000.406;MIDI 01
062.853;000.056;50;000.359;MIDI 01
062.956;000.094;46;000.492;MIDI 01
063.096;000.027;77;000.523;MIDI 01
063.102;000.025;65;000.461;MIDI 01
063.098;000.049;53;000.422;MIDI 01
063.100;000.057;50;000.375;MIDI 01
063.223;000.102;46;000.492;MIDI 01
063.344;000.031;79;000.570;MIDI 01
063.356;000.031;67;000.398;MIDI 01
063.353;000.045;51;000.500;MIDI 01
063.476;000.081;46;000.445;MIDI 01
063.597;000.032;81;000.539;MIDI 01
063.605;000.031;69;000.398;MIDI 01
063.595;000.066;48;000.344;MIDI 01
063.711;000.076;46;000.453;MIDI 01
063.849;000.024;82;000.422;MIDI 01
063.847;000.028;70;000.422;MIDI 01
063.833;000.054;50;000.391;MIDI 01
063.944;000.080;46;000.406;MIDI 01
064.096;000.027;65;000.445;MIDI 01
064.092;000.039;77;000.516;MIDI 01
064.077;000.056;50;000.367;MIDI 01
064.210;000.072;46;000.344;MIDI 01
064.327;000.024;67;000.516;MIDI 01
064.329;000.029;79;000.570;MIDI 01
064.351;000.044;51;000.391;MIDI 01
064.446;000.109;46;000.406;MIDI 01
064.581;000.020;81;000.500;MIDI 01
064.579;000.034;69;000.367;MIDI 01
064.583;000.067;48;000.391;MIDI 01
064.700;000.080;46;000.453;MIDI 01
064.821;000.026;70;000.477;MIDI 01
064.828;000.024;82;000.422;MIDI 01
064.831;000.056;50;000.406;MIDI 01
064.946;000.100;46;000.406;MIDI 01
065.056;000.023;77;000.531;MIDI 01
065.071;000.038;65;000.344;MIDI 01
065.076;000.044;50;000.414;MIDI 01
065.201;000.073;46;000.484;MIDI 01
065.300;000.023;67;000.531;MIDI 01
065.296;000.029;79;000.617;MIDI 01
065.294;000.057;51;000.562;MIDI 01
065.412;000.116;46;000.547;MIDI 01
065.536;000.022;69;000.500;MIDI 01
065.534;000.044;81;000.602;MIDI 01
065.548;000.097;48;000.477;MIDI 01
065.659;000.085;46;000.570;MIDI 01
065.775;000.032;70;000.602;MIDI 01
065.777;000.068;82;000.617;MIDI 01
065.769;000.106;50;000.531;MIDI 01
065.896;000.079;46;000.516;MIDI 01
066.029;000.032;86;000.617;MIDI 01
066.033;000.035;74;000.547;MIDI 01
066.031;000.052;53;000.453;MIDI 01
066.141;000.089;46;000.484;MIDI 01
066.277;000.024;70;000.461;MIDI 01
066.284;000.034;82;000.438;MIDI 01
066.275;000.085;50;000.422;MIDI 01
066.393;000.068;46;000.453;MIDI 01
066.519;000.038;86;000.602;MIDI 01
066.514;000.048;53;000.406;MIDI 01
066.526;000.037;74;000.539;MIDI 01
066.627;000.112;46;000.453;MIDI 01
066.779;000.024;70;000.484;MIDI 01
066.773;000.040;82;000.516;MIDI 01
066.771;000.065;50;000.422;MIDI 01
066.897;000.077;46;000.461;MIDI 01
067.004;000.059;50;000.422;MIDI 01
067.045;000.022;77;000.469;MIDI 01
067.043;000.028;65;000.430;MIDI 01
067.152;000.080;46;000.375;MIDI 01
067.272;000.022;79;000.500;MIDI 01
067.269;000.027;67;000.461;MIDI 01
067.264;000.046;51;000.461;MIDI 01
067.378;000.125;46;000.492;MIDI 01
067.503;000.035;81;000.555;MIDI 01
067.517;000.031;69;000.375;MIDI 01
067.526;000.078;48;000.398;MIDI 01
067.627;000.084;46;000.461;MIDI 01
067.756;000.021;70;000.500;MIDI 01
067.754;000.045;82;000.531;MIDI 01
067.741;000.080;50;000.469;MIDI 01
067.869;000.075;46;000.508;MIDI 01
067.989;000.027;74;000.516;MIDI 01
067.986;000.031;86;000.547;MIDI 01
068.016;000.044;53;000.344;MIDI 01
068.108;000.087;46;000.469;MIDI 01
068.237;000.036;70;000.477;MIDI 01
068.248;000.031;82;000.445;MIDI 01
068.254;000.060;50;000.359;MIDI 01
068.353;000.077;46;000.492;MIDI 01
068.496;000.024;74;000.492;MIDI 01
068.490;000.032;86;000.570;MIDI 01
068.504;000.040;53;000.352;MIDI 01
068.595;000.091;46;000.477;MIDI 01
068.739;000.034;70;000.562;MIDI 01
068.741;000.045;82;000.562;MIDI 01
068.734;000.066;50;000.422;MIDI 01
068.846;000.072;46;000.516;MIDI 01
068.997;000.022;74;000.531;MIDI 01
068.984;000.039;86;000.641;MIDI 01
068.973;000.061;53;000.461;MIDI 01
069.075;000.091;46;000.516;MIDI 01
069.217;000.032;82;000.602;MIDI 01
069.219;000.032;70;000.602;MIDI 01
069.205;000.058;50;000.453;MIDI 01
069.312;000.096;46;000.586;MIDI 01
069.450;000.031;65;000.648;MIDI 01
069.452;000.034;77;000.680;MIDI 01
069.454;000.084;56;000.547;MIDI 01
069.560;000.078;46;000.477;MIDI 01
069.700;000.024;62;000.516;MIDI 01
069.699;000.030;74;000.594;MIDI 01
069.702;000.070;53;000.328;MIDI 01
069.825;000.073;46;000.469;MIDI 01
069.957;000.020;77;000.500;MIDI 01
069.955;000.024;65;000.492;MIDI 01
069.930;000.062;56;000.422;MIDI 01
070.051;000.083;46;000.453;MIDI 01
070.177;000.031;62;000.602;MIDI 01
070.184;000.032;74;000.617;MIDI 01
070.182;000.096;53;000.477;MIDI 01
070.295;000.111;46;000.547;MIDI 01
070.434;000.020;77;000.539;MIDI 01
070.440;000.026;65;000.461;MIDI 01
070.422;000.053;56;000.406;MIDI 01
070.551;000.061;46;000.461;MIDI 01
070.681;000.026;74;000.445;MIDI 01
070.693;000.045;62;000.266;MIDI 01
070.674;000.105;53;000.359;MIDI 01
070.822;000.058;46;000.367;MIDI 01
070.914;000.033;77;000.547;MIDI 01
070.926;000.028;65;000.430;MIDI 01
070.897;000.065;56;000.414;MIDI 01
071.035;000.098;46;000.422;MIDI 01
071.133;000.026;62;000.492;MIDI 01
071.142;000.027;74;000.492;MIDI 01
071.149;000.081;53;000.438;MIDI 01
071.259;000.057;46;000.516;MIDI 01
071.375;000.035;80;000.695;MIDI 01
071.383;000.035;68;000.578;MIDI 01
071.365;000.068;59;000.562;MIDI 01
071.514;000.075;46;000.547;MIDI 01
071.616;000.035;65;000.578;MIDI 01
071.622;000.032;77;000.594;MIDI 01
071.619;000.086;56;000.586;MIDI 01
071.751;000.035;46;000.453;MIDI 01
071.828;000.067;59;000.562;MIDI 01
071.869;000.035;80;000.609;MIDI 01
071.872;000.034;68;000.523;MIDI 01
071.972;000.081;46;000.508;MIDI 01
072.095;000.026;65;000.656;MIDI 01
072.091;000.054;56;000.594;MIDI 01
072.093;000.057;77;000.703;MIDI 01
072.181;000.066;46;000.555;MIDI 01
072.298;000.047;59;000.547;MIDI 01
072.341;000.034;68;000.547;MIDI 01
072.345;000.034;80;000.555;MIDI 01
072.446;000.065;46;000.484;MIDI 01
072.585;000.027;65;000.477;MIDI 01
072.570;000.045;56;000.469;MIDI 01
072.583;000.033;77;000.539;MIDI 01
072.659;000.082;46;000.469;MIDI 01
072.798;000.048;59;000.500;MIDI 01
072.836;000.027;68;000.453;MIDI 01
072.834;000.036;80;000.492;MIDI 01
072.964;000.046;46;000.375;MIDI 01
073.075;000.024;77;000.453;MIDI 01
073.059;000.044;56;000.484;MIDI 01
073.079;000.030;65;000.398;MIDI 01
073.165;000.073;46;000.391;MIDI 01
073.265;000.055;56;000.477;MIDI 01
073.300;000.029;65;000.414;MIDI 01
073.301;000.034;77;000.484;MIDI 01
073.393;000.094;46;000.469;MIDI 01
073.526;000.031;62;000.422;MIDI 01
073.522;000.038;74;000.570;MIDI 01
073.500;000.067;53;000.531;MIDI 01
073.627;000.071;46;000.555;MIDI 01
073.753;000.031;68;000.688;MIDI 01
073.739;000.060;59;000.617;MIDI 01
073.752;000.055;80;000.750;MIDI 01
073.895;000.065;46;000.516;MIDI 01
074.014;000.021;65;000.508;MIDI 01
074.010;000.035;77;000.547;MIDI 01
074.008;000.050;56;000.500;MIDI 01
074.120;000.070;46;000.453;MIDI 01
074.232;000.051;56;000.461;MIDI 01
074.264;000.025;77;000.445;MIDI 01
074.273;000.043;65;000.281;MIDI 01
074.373;000.087;46;000.453;MIDI 01
074.479;000.032;74;000.578;MIDI 01
074.484;000.031;62;000.438;MIDI 01
074.472;000.079;53;000.484;MIDI 01
074.610;000.070;46;000.539;MIDI 01
074.709;000.028;68;000.680;MIDI 01
074.711;000.031;80;000.680;MIDI 01
074.721;000.035;59;000.547;MIDI 01
074.815;000.025;68;000.266;MIDI 01
074.844;000.084;46;000.562;MIDI 01
074.954;000.022;65;000.547;MIDI 01
074.956;000.030;77;000.586;MIDI 01
074.983;000.050;56;000.500;MIDI 01
075.099;000.072;46;000.469;MIDI 01
075.176;000.041;65;000.680;MIDI 01
075.181;000.043;77;000.727;MIDI 01
075.202;000.066;56;000.555;MIDI 01
075.343;000.078;46;000.453;MIDI 01
075.436;000.018;74;000.586;MIDI 01
075.434;000.025;62;000.523;MIDI 01
075.472;000.053;53;000.398;MIDI 01
075.595;000.069;46;000.438;MIDI 01
075.646;000.033;62;000.664;MIDI 01
075.648;000.034;74;000.672;MIDI 01
075.675;000.071;53;000.500;MIDI 01
075.814;000.083;46;000.484;MIDI 01
075.891;000.028;68;000.633;MIDI 01
075.897;000.035;56;000.594;MIDI 01
075.923;000.061;50;000.477;MIDI 01
076.010;000.048;68;000.148;MIDI 01
076.057;000.045;46;000.445;MIDI 01
076.114;000.032;56;000.594;MIDI 01
076.125;000.033;68;000.602;MIDI 01
076.133;000.082;50;000.508;MIDI 01
076.243;000.099;46;000.383;MIDI 01
076.348;000.031;65;000.617;MIDI 01
076.351;000.035;53;000.578;MIDI 01
076.353;000.050;44;000.539;MIDI 01
076.475;000.056;46;000.523;MIDI 01
076.578;000.033;65;000.500;MIDI 01
076.580;000.032;53;000.531;MIDI 01
076.555;000.107;44;000.500;MIDI 01
076.702;000.032;46;000.523;MIDI 01
077.046;000.029;34;000.656;MIDI 01
077.281;000.033;34;000.602;MIDI 01
076.821;000.731;62;000.648;MIDI 01
077.525;000.028;34;000.578;MIDI 01
076.823;000.755;56;000.609;MIDI 01
076.820;000.779;53;000.602;MIDI 01
077.765;000.032;34;000.547;MIDI 01
077.779;000.055;44;000.562;MIDI 01
077.877;000.059;46;000.508;MIDI 01
077.980;000.046;34;000.461;MIDI 01
077.981;000.048;44;000.492;MIDI 01
078.053;000.049;46;000.500;MIDI 01
078.141;000.055;44;000.531;MIDI 01
078.207;000.044;46;000.492;MIDI 01
078.215;000.099;34;000.352;MIDI 01
078.294;000.039;44;000.453;MIDI 01
078.347;000.048;46;000.516;MIDI 01
078.459;000.056;43;000.391;MIDI 01
078.450;000.091;44;000.312;MIDI 01
078.545;000.040;44;000.438;MIDI 01
078.692;000.046;43;000.328;MIDI 01
078.871;000.070;39;000.445;MIDI 01
078.999;000.049;41;000.375;MIDI 01
079.117;000.068;43;000.367;MIDI 01
078.718;000.491;51;000.516;MIDI 01
079.229;000.057;44;000.469;MIDI 01
079.338;000.074;43;000.453;MIDI 01
079.465;000.061;41;000.469;MIDI 01
079.602;000.069;39;000.430;MIDI 01
079.223;000.496;48;000.531;MIDI 01
079.715;000.076;38;000.445;MIDI 01
079.708;000.099;46;000.500;MIDI 01
079.847;000.069;36;000.438;MIDI 01
079.952;000.054;44;000.445;MIDI 01
080.017;000.053;38;000.023;MIDI 01
080.036;000.046;34;000.367;MIDI 01
080.021;000.081;46;000.500;MIDI 01
080.135;000.046;39;000.500;MIDI 01
080.112;000.076;44;000.531;MIDI 01
080.270;000.091;38;000.430;MIDI 01
080.416;000.069;39;000.461;MIDI 01
080.541;000.058;40;000.461;MIDI 01
080.186;000.522;43;000.469;MIDI 01
080.653;000.057;41;000.445;MIDI 01
080.705;000.069;44;000.438;MIDI 01
080.801;000.065;43;000.383;MIDI 01
080.825;000.060;46;000.492;MIDI 01
080.944;000.055;48;000.484;MIDI 01
080.914;000.105;44;000.523;MIDI 01
081.039;000.097;46;000.492;MIDI 01
081.049;000.108;50;000.523;MIDI 01
081.177;000.066;51;000.562;MIDI 01
081.179;000.091;48;000.430;MIDI 01
081.292;000.049;53;000.531;MIDI 01
081.309;000.071;50;000.469;MIDI 01
081.417;000.090;51;000.484;MIDI 01
081.407;000.105;55;000.531;MIDI 01
081.523;000.095;57;000.539;MIDI 01
081.541;000.083;48;000.453;MIDI 01
081.684;000.049;50;000.406;MIDI 01
081.664;000.115;58;000.500;MIDI 01
081.783;000.069;51;000.477;MIDI 01
081.786;000.115;60;000.516;MIDI 01
081.919;000.033;53;000.406;MIDI 01
081.910;000.045;57;000.453;MIDI 01
082.018;000.056;53;000.531;MIDI 01
082.027;000.055;51;000.523;MIDI 01
082.152;000.054;50;000.430;MIDI 01
082.142;000.117;58;000.547;MIDI 01
082.278;000.053;48;000.430;MIDI 01
082.393;000.027;70;000.656;MIDI 01
082.397;000.025;58;000.555;MIDI 01
082.395;000.107;46;000.500;MIDI 01
082.515;000.002;70;000.172;MIDI 01
082.544;000.084;44;000.406;MIDI 01
082.643;000.061;43;000.508;MIDI 01
082.785;000.108;51;000.531;MIDI 01
082.907;000.082;53;000.562;MIDI 01
082.651;000.367;75;000.695;MIDI 01
082.654;000.389;63;000.664;MIDI 01
083.034;000.126;55;000.539;MIDI 01
083.205;000.002;59;000.484;MIDI 01
083.170;000.075;56;000.539;MIDI 01
083.269;000.095;55;000.547;MIDI 01
083.189;000.308;60;000.500;MIDI 01
083.404;000.098;53;000.516;MIDI 01
083.532;000.082;51;000.500;MIDI 01
083.179;000.500;72;000.680;MIDI 01
083.648;000.090;50;000.523;MIDI 01
083.671;000.082;70;000.633;MIDI 01
083.787;000.070;48;000.477;MIDI 01
083.892;000.035;68;000.492;MIDI 01
083.912;000.039;50;000.398;MIDI 01
083.965;000.041;70;000.477;MIDI 01
083.987;000.072;46;000.461;MIDI 01
084.001;000.069;68;000.617;MIDI 01
084.081;000.027;67;000.531;MIDI 01
084.108;000.051;51;000.539;MIDI 01
084.129;000.078;68;000.570;MIDI 01
084.244;000.111;50;000.508;MIDI 01
084.395;000.088;51;000.547;MIDI 01
084.515;000.079;52;000.516;MIDI 01
084.192;000.441;67;000.617;MIDI 01
084.623;000.102;53;000.523;MIDI 01
084.639;000.119;68;000.586;MIDI 01
084.757;000.076;70;000.625;MIDI 01
084.749;000.115;55;000.523;MIDI 01
084.872;000.112;56;000.562;MIDI 01
084.874;000.115;72;000.641;MIDI 01
084.984;000.088;58;000.547;MIDI 01
084.989;000.126;74;000.680;MIDI 01
085.107;000.071;75;000.648;MIDI 01
085.101;000.116;60;000.547;MIDI 01
085.227;000.069;77;000.664;MIDI 01
085.224;000.102;62;000.594;MIDI 01
085.353;000.102;63;000.570;MIDI 01
085.341;000.122;79;000.680;MIDI 01
085.463;000.031;80;000.594;MIDI 01
085.448;000.070;65;000.562;MIDI 01
085.572;000.027;80;000.453;MIDI 01
085.578;000.083;67;000.555;MIDI 01
085.574;000.103;82;000.672;MIDI 01
085.677;000.035;68;000.469;MIDI 01
085.713;000.137;84;000.617;MIDI 01
085.807;000.074;65;000.398;MIDI 01
085.836;000.073;80;000.602;MIDI 01
085.615;000.302;58;000.508;MIDI 01
085.899;000.039;62;000.484;MIDI 01
085.944;000.069;77;000.539;MIDI 01
086.067;000.070;63;000.414;MIDI 01
086.086;000.059;75;000.469;MIDI 01
086.106;000.048;51;000.391;MIDI 01
086.564;000.035;70;000.352;MIDI 01
086.552;000.064;50;000.344;MIDI 01
086.664;000.073;58;000.352;MIDI 01
086.784;000.029;74;000.602;MIDI 01
086.795;000.027;62;000.477;MIDI 01
086.792;000.049;53;000.320;MIDI 01
086.898;000.100;58;000.430;MIDI 01
087.044;000.086;56;000.422;MIDI 01
087.164;000.084;58;000.430;MIDI 01
087.046;000.234;77;000.680;MIDI 01
087.055;000.256;65;000.578;MIDI 01
087.300;000.069;56;000.398;MIDI 01
087.407;000.061;58;000.422;MIDI 01
087.555;000.027;62;000.500;MIDI 01
087.553;000.031;74;000.594;MIDI 01
087.540;000.053;53;000.406;MIDI 01
087.671;000.067;58;000.398;MIDI 01
087.783;000.030;77;000.648;MIDI 01
087.781;000.035;65;000.586;MIDI 01
087.785;000.077;56;000.422;MIDI 01
087.878;000.082;58;000.438;MIDI 01
088.061;000.102;60;000.398;MIDI 01
088.202;000.065;58;000.445;MIDI 01
088.323;000.059;60;000.445;MIDI 01
088.436;000.083;58;000.430;MIDI 01
088.562;000.073;60;000.414;MIDI 01
088.042;000.623;80;000.680;MIDI 01
088.048;000.622;68;000.617;MIDI 01
088.688;000.043;58;000.406;MIDI 01
088.787;000.027;79;000.484;MIDI 01
088.803;000.034;67;000.352;MIDI 01
088.780;000.071;60;000.445;MIDI 01
088.879;000.104;58;000.359;MIDI 01
089.017;000.022;77;000.500;MIDI 01
089.019;000.027;65;000.453;MIDI 01
089.026;000.048;56;000.375;MIDI 01
089.130;000.072;58;000.461;MIDI 01
089.250;000.036;75;000.562;MIDI 01
089.257;000.031;63;000.500;MIDI 01
089.239;000.085;55;000.453;MIDI 01
089.354;000.093;58;000.453;MIDI 01
089.483;000.026;62;000.562;MIDI 01
089.485;000.028;74;000.633;MIDI 01
089.470;000.068;53;000.445;MIDI 01
089.591;000.078;58;000.492;MIDI 01
089.724;000.031;75;000.602;MIDI 01
089.726;000.036;63;000.555;MIDI 01
089.702;000.066;55;000.438;MIDI 01
089.816;000.069;58;000.469;MIDI 01
089.964;000.032;72;000.562;MIDI 01
089.971;000.030;60;000.430;MIDI 01
089.961;000.053;51;000.383;MIDI 01
090.057;000.071;58;000.391;MIDI 01
090.188;000.030;69;000.578;MIDI 01
090.182;000.060;48;000.477;MIDI 01
090.303;000.085;58;000.430;MIDI 01
090.426;000.034;70;000.586;MIDI 01
090.418;000.047;50;000.406;MIDI 01
090.532;000.094;58;000.461;MIDI 01
090.662;000.028;74;000.633;MIDI 01
090.660;000.031;62;000.609;MIDI 01
090.665;000.062;53;000.406;MIDI 01
090.764;000.110;58;000.477;MIDI 01
090.924;000.099;56;000.469;MIDI 01
091.039;000.105;58;000.516;MIDI 01
090.917;000.252;77;000.688;MIDI 01
090.915;000.292;65;000.641;MIDI 01
091.183;000.059;56;000.445;MIDI 01
091.268;000.070;58;000.500;MIDI 01
091.386;000.028;74;000.641;MIDI 01
091.392;000.025;62;000.531;MIDI 01
091.394;000.046;53;000.477;MIDI 01
091.521;000.076;58;000.477;MIDI 01
091.622;000.026;77;000.695;MIDI 01
091.620;000.032;65;000.625;MIDI 01
091.629;000.076;56;000.508;MIDI 01
091.719;000.079;58;000.508;MIDI 01
091.886;000.093;60;000.508;MIDI 01
092.021;000.059;58;000.453;MIDI 01
092.129;000.052;60;000.445;MIDI 01
092.242;000.073;58;000.453;MIDI 01
092.353;000.078;60;000.445;MIDI 01
091.871;000.568;80;000.695;MIDI 01
091.875;000.577;68;000.625;MIDI 01
092.490;000.060;58;000.422;MIDI 01
092.588;000.033;79;000.539;MIDI 01
092.596;000.027;67;000.508;MIDI 01
092.594;000.059;60;000.453;MIDI 01
092.705;000.086;58;000.375;MIDI 01
092.825;000.022;77;000.500;MIDI 01
092.823;000.031;65;000.492;MIDI 01
092.828;000.052;56;000.422;MIDI 01
092.932;000.076;58;000.484;MIDI 01
093.045;000.032;63;000.594;MIDI 01
093.048;000.032;75;000.578;MIDI 01
093.025;000.060;55;000.516;MIDI 01
093.167;000.055;58;000.203;MIDI 01
093.270;000.030;60;000.617;MIDI 01
093.272;000.032;72;000.633;MIDI 01
093.248;000.073;56;000.523;MIDI 01
093.251;000.091;46;000.500;MIDI 01
093.403;000.080;58;000.352;MIDI 01
093.501;000.034;74;000.688;MIDI 01
093.506;000.031;62;000.617;MIDI 01
093.513;000.045;46;000.438;MIDI 01
093.478;000.104;53;000.555;MIDI 01
093.627;000.114;58;000.484;MIDI 01
093.747;000.036;63;000.562;MIDI 01
093.745;000.045;75;000.594;MIDI 01
093.769;000.066;55;000.406;MIDI 01
093.759;000.142;51;000.398;MIDI 01
093.895;000.102;58;000.508;MIDI 01
093.983;000.099;55;000.453;MIDI 01
094.116;000.095;51;000.391;MIDI 01
094.250;000.030;70;000.383;MIDI 01
094.243;000.058;50;000.359;MIDI 01
094.355;000.080;58;000.398;MIDI 01
094.461;000.024;74;000.523;MIDI 01
094.477;000.048;53;000.344;MIDI 01
094.483;000.047;62;000.258;MIDI 01
094.588;000.079;58;000.430;MIDI 01
094.722;000.082;56;000.375;MIDI 01
094.724;000.185;77;000.570;MIDI 01
094.843;000.070;58;000.414;MIDI 01
094.745;000.186;65;000.359;MIDI 01
094.952;000.080;56;000.453;MIDI 01
095.068;000.068;58;000.414;MIDI 01
095.191;000.022;74;000.523;MIDI 01
095.178;000.051;53;000.406;MIDI 01
095.202;000.032;62;000.398;MIDI 01
095.320;000.042;58;000.328;MIDI 01
095.408;000.035;77;000.539;MIDI 01
095.415;000.031;65;000.398;MIDI 01
095.397;000.071;56;000.430;MIDI 01
095.505;000.083;58;000.383;MIDI 01
095.682;000.098;59;000.336;MIDI 01
095.846;000.056;58;000.352;MIDI 01
095.947;000.069;59;000.461;MIDI 01
096.058;000.073;58;000.398;MIDI 01
095.676;000.490;80;000.562;MIDI 01
095.708;000.490;68;000.383;MIDI 01
096.176;000.059;59;000.453;MIDI 01
096.324;000.046;58;000.195;MIDI 01
096.389;000.039;66;000.492;MIDI 01
096.384;000.049;78;000.516;MIDI 01
096.370;000.067;59;000.469;MIDI 01
096.479;000.072;58;000.453;MIDI 01
096.607;000.025;65;000.484;MIDI 01
096.609;000.032;77;000.555;MIDI 01
096.620;000.071;56;000.445;MIDI 01
096.728;000.073;58;000.445;MIDI 01
096.851;000.021;75;000.477;MIDI 01
096.849;000.026;63;000.477;MIDI 01
096.842;000.079;54;000.438;MIDI 01
096.949;000.103;58;000.477;MIDI 01
097.101;000.028;74;000.430;MIDI 01
097.098;000.033;62;000.391;MIDI 01
097.106;000.053;53;000.219;MIDI 01
097.202;000.078;58;000.469;MIDI 01
097.321;000.024;75;000.492;MIDI 01
097.324;000.028;63;000.461;MIDI 01
097.326;000.068;54;000.453;MIDI 01
097.435;000.075;58;000.430;MIDI 01
097.544;000.033;71;000.539;MIDI 01
097.555;000.029;59;000.414;MIDI 01
097.553;000.055;54;000.406;MIDI 01
097.565;000.054;51;000.398;MIDI 01
097.656;000.111;58;000.445;MIDI 01
097.784;000.034;69;000.562;MIDI 01
097.776;000.084;54;000.430;MIDI 01
097.778;000.090;51;000.430;MIDI 01
097.922;000.067;58;000.453;MIDI 01
098.019;000.033;70;000.609;MIDI 01
098.023;000.055;50;000.430;MIDI 01
098.004;000.091;53;000.500;MIDI 01
098.144;000.115;58;000.492;MIDI 01
098.275;000.003;54;000.203;MIDI 01
098.256;000.031;74;000.641;MIDI 01
098.258;000.034;62;000.578;MIDI 01
098.280;000.041;53;000.484;MIDI 01
098.377;000.088;58;000.523;MIDI 01
098.501;000.098;56;000.547;MIDI 01
098.616;000.101;58;000.547;MIDI 01
098.508;000.235;77;000.664;MIDI 01
098.515;000.271;65;000.594;MIDI 01
098.743;000.093;56;000.508;MIDI 01
098.850;000.091;58;000.578;MIDI 01
098.978;000.029;74;000.625;MIDI 01
098.961;000.058;53;000.500;MIDI 01
098.994;000.037;62;000.367;MIDI 01
099.076;000.084;58;000.578;MIDI 01
099.209;000.032;77;000.672;MIDI 01
099.211;000.032;65;000.609;MIDI 01
099.207;000.091;56;000.531;MIDI 01
099.308;000.075;58;000.555;MIDI 01
099.456;000.106;59;000.578;MIDI 01
099.594;000.079;58;000.516;MIDI 01
099.715;000.089;59;000.531;MIDI 01
099.811;000.041;58;000.570;MIDI 01
099.449;000.441;80;000.680;MIDI 01
099.458;000.453;68;000.625;MIDI 01
099.935;000.068;59;000.695;MIDI 01
100.064;000.081;58;000.531;MIDI 01
100.158;000.027;66;000.438;MIDI 01
100.160;000.033;78;000.469;MIDI 01
100.161;000.094;59;000.578;MIDI 01
100.285;000.072;58;000.539;MIDI 01
100.391;000.031;77;000.656;MIDI 01
100.395;000.036;65;000.562;MIDI 01
100.408;000.102;56;000.555;MIDI 01
100.518;000.089;59;000.609;MIDI 01
100.625;000.031;63;000.625;MIDI 01
100.628;000.033;75;000.609;MIDI 01
100.757;000.061;58;000.570;MIDI 01
100.860;000.030;61;000.625;MIDI 01
100.861;000.034;73;000.617;MIDI 01
100.902;000.045;54;000.219;MIDI 01
100.895;000.071;53;000.406;MIDI 01
100.977;000.074;56;000.617;MIDI 01
101.093;000.032;63;000.594;MIDI 01
101.091;000.036;75;000.617;MIDI 01
101.071;000.086;54;000.508;MIDI 01
101.193;000.066;58;000.578;MIDI 01
101.316;000.031;61;000.641;MIDI 01
101.318;000.039;73;000.617;MIDI 01
101.306;000.114;53;000.531;MIDI 01
099.961;001.466;49;000.500;MIDI 01
101.426;000.069;56;000.633;MIDI 01
101.574;000.030;59;000.602;MIDI 01
101.571;000.044;71;000.648;MIDI 01
101.564;000.068;53;000.539;MIDI 01
101.579;000.112;49;000.484;MIDI 01
101.652;000.042;56;000.641;MIDI 01
101.827;000.030;58;000.578;MIDI 01
101.844;000.034;70;000.367;MIDI 01
101.829;000.056;54;000.680;MIDI 01
101.972;000.076;54;000.516;MIDI 01
102.095;000.117;56;000.547;MIDI 01
101.839;000.414;42;000.664;MIDI 01
102.199;000.078;58;000.516;MIDI 01
102.333;000.073;59;000.633;MIDI 01
102.448;000.085;58;000.578;MIDI 01
102.322;000.348;51;000.695;MIDI 01
102.584;000.109;59;000.562;MIDI 01
102.328;000.470;39;000.672;MIDI 01
102.699;000.130;60;000.602;MIDI 01
102.851;000.083;61;000.586;MIDI 01
102.968;000.114;60;000.594;MIDI 01
103.078;000.123;61;000.641;MIDI 01
103.197;000.131;63;000.625;MIDI 01
102.853;000.501;49;000.742;MIDI 01
103.320;000.114;65;000.586;MIDI 01
102.861;000.609;37;000.656;MIDI 01
103.426;000.112;61;000.609;MIDI 01
103.567;000.033;47;000.609;MIDI 01
103.571;000.033;35;000.609;MIDI 01
103.557;000.055;63;000.570;MIDI 01
103.672;000.121;65;000.578;MIDI 01
103.802;000.029;46;000.664;MIDI 01
103.809;000.028;34;000.648;MIDI 01
103.789;000.126;66;000.625;MIDI 01
103.919;000.117;65;000.633;MIDI 01
104.041;000.025;42;000.672;MIDI 01
104.043;000.032;30;000.656;MIDI 01
104.040;000.096;66;000.617;MIDI 01
104.156;000.118;65;000.641;MIDI 01
104.270;000.028;48;000.625;MIDI 01
104.274;000.029;36;000.617;MIDI 01
104.268;000.126;66;000.664;MIDI 01
104.496;000.037;44;000.586;MIDI 01
104.498;000.037;32;000.578;MIDI 01
104.388;000.153;70;000.641;MIDI 01
104.511;000.099;68;000.555;MIDI 01
104.604;000.032;66;000.562;MIDI 01
104.751;000.030;65;000.516;MIDI 01
104.761;000.059;49;000.531;MIDI 01
104.792;000.062;37;000.055;MIDI 01
104.932;000.062;49;000.438;MIDI 01
105.046;000.048;51;000.445;MIDI 01
105.152;000.054;53;000.383;MIDI 01
104.753;000.456;73;000.578;MIDI 01
105.279;000.044;54;000.367;MIDI 01
105.404;000.085;53;000.336;MIDI 01
105.533;000.049;54;000.398;MIDI 01
105.618;000.061;55;000.430;MIDI 01
105.257;000.495;70;000.500;MIDI 01
105.750;000.076;56;000.422;MIDI 01
105.895;000.057;55;000.336;MIDI 01
105.990;000.081;56;000.438;MIDI 01
106.130;000.104;58;000.453;MIDI 01
106.281;000.043;60;000.297;MIDI 01
106.350;000.093;56;000.461;MIDI 01
105.752;000.728;68;000.555;MIDI 01
106.485;000.043;58;000.438;MIDI 01
106.503;000.036;66;000.516;MIDI 01
106.581;000.049;60;000.469;MIDI 01
106.735;000.025;65;000.516;MIDI 01
106.706;000.085;61;000.461;MIDI 01
106.847;000.051;60;000.336;MIDI 01
106.953;000.036;66;000.492;MIDI 01
106.947;000.098;61;000.516;MIDI 01
107.075;000.075;63;000.492;MIDI 01
107.192;000.026;68;000.484;MIDI 01
107.209;000.110;65;000.453;MIDI 01
107.329;000.066;66;000.461;MIDI 01
107.432;000.021;71;000.523;MIDI 01
107.433;000.035;73;000.500;MIDI 01
107.447;000.088;68;000.398;MIDI 01
107.561;000.030;65;000.539;MIDI 01
107.699;000.169;78;000.727;MIDI 01
107.706;000.165;66;000.711;MIDI 01
107.702;000.178;73;000.633;MIDI 01
107.705;000.181;70;000.680;MIDI 01
107.839;000.125;30;000.641;MIDI 01
107.982;000.098;32;000.578;MIDI 01
108.119;000.046;68;000.266;MIDI 01
108.084;000.117;34;000.578;MIDI 01
108.219;000.106;35;000.602;MIDI 01
108.231;000.214;66;000.664;MIDI 01
108.352;000.114;34;000.539;MIDI 01
108.228;000.253;75;000.719;MIDI 01
108.233;000.319;63;000.648;MIDI 01
108.484;000.090;35;000.508;MIDI 01
108.235;000.429;68;000.648;MIDI 01
108.577;000.127;36;000.148;MIDI 01
108.716;000.049;37;000.570;MIDI 01
108.861;000.103;36;000.578;MIDI 01
108.998;000.106;37;000.555;MIDI 01
108.731;000.415;61;000.734;MIDI 01
108.732;000.422;73;000.734;MIDI 01
109.116;000.101;39;000.578;MIDI 01
109.227;000.121;41;000.586;MIDI 01
108.737;000.649;65;000.586;MIDI 01
108.734;000.724;68;000.555;MIDI 01
109.338;000.123;37;000.523;MIDI 01
109.471;000.029;71;000.648;MIDI 01
109.478;000.035;59;000.586;MIDI 01
109.470;000.069;39;000.555;MIDI 01
109.581;000.051;41;000.492;MIDI 01
109.699;000.028;70;000.617;MIDI 01
109.706;000.023;58;000.562;MIDI 01
109.701;000.098;42;000.523;MIDI 01
109.831;000.114;41;000.430;MIDI 01
109.933;000.026;54;000.523;MIDI 01
109.927;000.035;66;000.641;MIDI 01
109.959;000.049;42;000.531;MIDI 01
110.013;000.096;46;000.445;MIDI 01
110.151;000.027;72;000.672;MIDI 01
110.160;000.022;59;000.578;MIDI 01
110.156;000.033;60;000.578;MIDI 01
110.142;000.116;44;000.555;MIDI 01
110.276;000.103;42;000.531;MIDI 01
110.391;000.028;68;000.633;MIDI 01
110.389;000.032;56;000.594;MIDI 01
110.386;000.123;41;000.516;MIDI 01
110.514;000.051;68;000.125;MIDI 01
110.507;000.097;39;000.539;MIDI 01
110.656;000.116;41;000.617;MIDI 01
110.772;000.107;40;000.508;MIDI 01
110.896;000.071;41;000.562;MIDI 01
110.984;000.126;37;000.594;MIDI 01
110.629;000.497;61;000.711;MIDI 01
110.631;000.499;73;000.719;MIDI 01
111.094;000.105;43;000.648;MIDI 01
111.217;000.108;42;000.609;MIDI 01
111.318;000.029;61;000.688;MIDI 01
111.321;000.028;73;000.703;MIDI 01
111.328;000.082;43;000.562;MIDI 01
111.423;000.134;39;000.523;MIDI 01
111.570;000.028;59;000.727;MIDI 01
111.568;000.039;71;000.758;MIDI 01
111.558;000.121;44;000.617;MIDI 01
111.699;000.111;43;000.539;MIDI 01
111.818;000.030;56;000.625;MIDI 01
111.821;000.040;68;000.625;MIDI 01
111.823;000.096;44;000.570;MIDI 01
111.944;000.062;47;000.539;MIDI 01
112.051;000.028;74;000.656;MIDI 01
112.060;000.023;60;000.539;MIDI 01
112.057;000.028;62;000.547;MIDI 01
112.068;000.110;46;000.547;MIDI 01
112.190;000.112;44;000.547;MIDI 01
112.283;000.025;70;000.695;MIDI 01
112.283;000.028;58;000.633;MIDI 01
112.384;000.030;70;000.289;MIDI 01
112.300;000.118;42;000.539;MIDI 01
112.403;000.091;41;000.492;MIDI 01
112.542;000.131;43;000.617;MIDI 01
112.671;000.094;41;000.570;MIDI 01
112.781;000.106;43;000.570;MIDI 01
112.528;000.447;63;000.688;MIDI 01
112.881;000.096;39;000.617;MIDI 01
112.526;000.456;75;000.703;MIDI 01
112.996;000.090;45;000.641;MIDI 01
113.108;000.111;44;000.641;MIDI 01
113.228;000.029;63;000.609;MIDI 01
113.226;000.099;45;000.578;MIDI 01
113.324;000.031;41;000.547;MIDI 01
113.220;000.199;75;000.633;MIDI 01
113.567;000.002;59;000.227;MIDI 01
113.490;000.154;73;000.633;MIDI 01
113.627;000.065;70;000.570;MIDI 01
113.505;000.289;58;000.680;MIDI 01
113.736;000.120;72;000.648;MIDI 01
113.504;000.370;46;000.641;MIDI 01
113.852;000.064;73;000.664;MIDI 01
113.981;000.074;75;000.656;MIDI 01
114.111;000.130;74;000.656;MIDI 01
114.225;000.066;75;000.648;MIDI 01
113.986;000.306;54;000.734;MIDI 01
113.995;000.321;42;000.672;MIDI 01
114.335;000.075;76;000.688;MIDI 01
114.464;000.067;77;000.664;MIDI 01
114.578;000.070;76;000.609;MIDI 01
114.691;000.147;77;000.688;MIDI 01
114.808;000.132;79;000.688;MIDI 01
114.449;000.517;53;000.734;MIDI 01
114.939;000.095;81;000.672;MIDI 01
114.457;000.593;41;000.695;MIDI 01
115.037;000.060;77;000.664;MIDI 01
115.159;000.041;51;000.656;MIDI 01
115.166;000.049;39;000.648;MIDI 01
115.157;000.132;79;000.703;MIDI 01
115.274;000.143;81;000.680;MIDI 01
115.392;000.033;49;000.680;MIDI 01
115.401;000.037;37;000.656;MIDI 01
115.399;000.091;82;000.641;MIDI 01
115.490;000.142;81;000.633;MIDI 01
115.627;000.031;46;000.695;MIDI 01
115.631;000.032;34;000.672;MIDI 01
115.615;000.129;82;000.750;MIDI 01
115.735;000.075;81;000.719;MIDI 01
115.859;000.045;52;000.727;MIDI 01
115.865;000.045;40;000.711;MIDI 01
115.856;000.155;82;000.734;MIDI 01
115.970;000.142;85;000.703;MIDI 01
116.091;000.031;48;000.656;MIDI 01
116.094;000.033;36;000.648;MIDI 01
116.088;000.126;84;000.680;MIDI 01
116.194;000.058;82;000.641;MIDI 01
116.349;000.022;68;000.727;MIDI 01
116.347;000.032;80;000.727;MIDI 01
116.447;000.027;68;000.297;MIDI 01
116.341;000.273;53;000.695;MIDI 01
116.590;000.028;65;000.648;MIDI 01
116.585;000.051;77;000.734;MIDI 01
116.345;000.422;41;000.672;MIDI 01
116.825;000.030;50;000.602;MIDI 01
116.829;000.042;38;000.656;MIDI 01
116.864;000.024;83;000.461;MIDI 01
116.827;000.258;82;000.766;MIDI 01
117.064;000.028;46;000.703;MIDI 01
117.069;000.031;34;000.656;MIDI 01
116.831;000.286;70;000.734;MIDI 01
117.296;000.026;66;000.688;MIDI 01
117.291;000.036;78;000.742;MIDI 01
117.414;000.029;66;000.180;MIDI 01
117.298;000.251;51;000.727;MIDI 01
117.534;000.025;63;000.711;MIDI 01
117.532;000.047;75;000.742;MIDI 01
117.305;000.395;39;000.680;MIDI 01
117.658;000.058;63;000.109;MIDI 01
117.768;000.026;48;000.516;MIDI 01
117.774;000.034;36;000.562;MIDI 01
117.772;000.200;80;000.773;MIDI 01
117.776;000.210;68;000.727;MIDI 01
117.997;000.027;44;000.672;MIDI 01
118.000;000.040;32;000.633;MIDI 01
118.254;000.040;37;000.516;MIDI 01
118.247;000.061;49;000.602;MIDI 01
118.251;000.125;65;000.602;MIDI 01
118.249;000.212;77;000.664;MIDI 01
118.544;000.276;58;000.445;MIDI 01
118.546;000.276;73;000.508;MIDI 01
118.820;000.252;78;000.445;MIDI 01
118.834;000.242;51;000.305;MIDI 01
119.059;000.202;75;000.469;MIDI 01
119.072;000.193;54;000.336;MIDI 01
119.298;000.227;56;000.391;MIDI 01
119.283;000.244;72;000.453;MIDI 01
119.525;000.245;49;000.344;MIDI 01
119.523;000.299;77;000.453;MIDI 01
119.791;000.210;53;000.289;MIDI 01
119.773;000.235;73;000.484;MIDI 01
120.026;000.231;54;000.336;MIDI 01
120.019;000.265;70;000.430;MIDI 01
120.273;000.218;75;000.406;MIDI 01
120.265;000.258;48;000.320;MIDI 01
120.503;000.195;72;000.445;MIDI 01
120.516;000.233;51;000.305;MIDI 01
120.743;000.032;53;000.398;MIDI 01
120.734;000.043;69;000.492;MIDI 01
120.957;000.025;73;000.797;MIDI 01
120.955;000.036;58;000.727;MIDI 01
120.959;000.034;46;000.688;MIDI 01
120.951;000.062;85;000.781;MIDI 01
121.188;000.027;70;000.719;MIDI 01
121.193;000.034;61;000.664;MIDI 01
121.195;000.041;49;000.633;MIDI 01
121.184;000.056;82;000.703;MIDI 01
121.421;000.029;66;000.719;MIDI 01
121.434;000.034;63;000.578;MIDI 01
121.438;000.042;51;000.633;MIDI 01
121.419;000.068;78;000.711;MIDI 01
121.660;000.036;71;000.766;MIDI 01
121.665;000.046;56;000.711;MIDI 01
121.662;000.050;83;000.734;MIDI 01
121.667;000.048;44;000.711;MIDI 01
121.904;000.028;68;000.680;MIDI 01
121.906;000.028;59;000.680;MIDI 01
121.907;000.029;47;000.641;MIDI 01
121.902;000.049;80;000.695;MIDI 01
122.126;000.029;65;000.656;MIDI 01
122.135;000.033;61;000.617;MIDI 01
122.138;000.039;49;000.672;MIDI 01
122.128;000.057;77;000.695;MIDI 01
122.354;000.033;70;000.781;MIDI 01
122.361;000.029;54;000.688;MIDI 01
122.359;000.037;42;000.688;MIDI 01
122.356;000.052;82;000.750;MIDI 01
122.591;000.031;66;000.727;MIDI 01
122.598;000.032;58;000.648;MIDI 01
122.603;000.033;46;000.633;MIDI 01
122.589;000.050;78;000.719;MIDI 01
122.825;000.027;63;000.672;MIDI 01
122.819;000.036;47;000.641;MIDI 01
122.821;000.036;59;000.555;MIDI 01
122.827;000.060;75;000.688;MIDI 01
123.055;000.028;53;000.656;MIDI 01
123.057;000.028;41;000.688;MIDI 01
123.058;000.029;68;000.758;MIDI 01
123.060;000.055;80;000.719;MIDI 01
123.189;000.037;53;000.086;MIDI 01
123.289;000.029;56;000.633;MIDI 01
123.293;000.029;65;000.664;MIDI 01
123.295;000.032;44;000.633;MIDI 01
123.291;000.049;77;000.734;MIDI 01
123.516;000.031;58;000.656;MIDI 01
123.518;000.031;62;000.672;MIDI 01
123.522;000.036;46;000.625;MIDI 01
123.513;000.048;74;000.719;MIDI 01
123.725;000.027;63;000.703;MIDI 01
123.727;000.029;42;000.656;MIDI 01
123.729;000.029;54;000.641;MIDI 01
123.731;000.031;75;000.656;MIDI 01
123.958;000.053;64;000.750;MIDI 01
123.956;000.077;43;000.703;MIDI 01
123.960;000.113;70;000.711;MIDI 01
123.954;000.122;73;000.711;MIDI 01
124.101;000.059;55;000.625;MIDI 01
124.070;000.106;76;000.664;MIDI 01
124.191;000.051;64;000.570;MIDI 01
124.236;000.043;43;000.539;MIDI 01
124.193;000.104;70;000.570;MIDI 01
124.189;000.125;73;000.602;MIDI 01
124.301;000.040;55;000.562;MIDI 01
124.312;000.091;76;000.656;MIDI 01
124.409;000.062;64;000.695;MIDI 01
124.418;000.101;70;000.656;MIDI 01
124.433;000.090;42;000.688;MIDI 01
124.416;000.117;73;000.609;MIDI 01
124.558;000.046;54;000.586;MIDI 01
124.532;000.099;76;000.680;MIDI 01
124.629;000.081;64;000.609;MIDI 01
124.676;000.067;42;000.578;MIDI 01
124.645;000.109;70;000.555;MIDI 01
124.641;000.118;73;000.531;MIDI 01
124.728;000.055;54;000.539;MIDI 01
124.754;000.081;76;000.695;MIDI 01
124.862;000.065;65;000.695;MIDI 01
124.879;000.091;41;000.656;MIDI 01
124.871;000.103;70;000.633;MIDI 01
124.865;000.111;73;000.617;MIDI 01
124.975;000.079;77;000.688;MIDI 01
124.994;000.062;53;000.602;MIDI 01
125.122;000.040;41;000.508;MIDI 01
125.089;000.077;65;000.547;MIDI 01
125.166;000.025;53;000.477;MIDI 01
125.091;000.106;70;000.516;MIDI 01
125.067;000.133;73;000.523;MIDI 01
125.185;000.029;77;000.672;MIDI 01
125.341;000.037;60;000.641;MIDI 01
125.332;000.093;29;000.656;MIDI 01
125.345;000.103;63;000.633;MIDI 01
125.466;000.043;41;000.594;MIDI 01
125.484;000.042;69;000.508;MIDI 01
125.480;000.048;67;000.422;MIDI 01
125.582;000.051;29;000.609;MIDI 01
125.608;000.048;60;000.312;MIDI 01
125.623;000.057;59;000.125;MIDI 01
125.596;000.095;63;000.531;MIDI 01
125.632;000.066;41;000.547;MIDI 01
125.675;000.037;69;000.578;MIDI 01
125.808;000.094;34;000.602;MIDI 01
125.810;000.166;58;000.688;MIDI 01
125.930;000.073;46;000.602;MIDI 01
125.814;000.196;61;000.664;MIDI 01
125.812;000.226;70;000.734;MIDI 01
126.074;000.085;34;000.508;MIDI 01
126.139;000.036;46;000.547;MIDI 01
126.352;000.042;29;000.430;MIDI 01
126.314;000.084;30;000.602;MIDI 01
126.427;000.073;42;000.508;MIDI 01
126.560;000.089;30;000.602;MIDI 01
126.285;000.367;76;000.758;MIDI 01
126.282;000.372;64;000.766;MIDI 01
126.287;000.394;70;000.680;MIDI 01
126.283;000.403;73;000.633;MIDI 01
126.658;000.033;42;000.539;MIDI 01
126.776;000.072;29;000.594;MIDI 01
126.902;000.074;41;000.578;MIDI 01
127.041;000.058;29;000.539;MIDI 01
127.128;000.068;41;000.586;MIDI 01
126.751;000.448;77;000.742;MIDI 01
126.751;000.506;65;000.719;MIDI 01
126.753;000.509;73;000.609;MIDI 01
126.748;000.518;70;000.648;MIDI 01
127.256;000.064;29;000.547;MIDI 01
127.354;000.031;41;000.578;MIDI 01
127.448;000.024;69;000.703;MIDI 01
127.450;000.032;57;000.641;MIDI 01
127.461;000.080;29;000.586;MIDI 01
127.703;000.040;58;000.734;MIDI 01
127.709;000.094;34;000.547;MIDI 01
127.703;000.117;70;000.758;MIDI 01
127.836;000.056;46;000.570;MIDI 01
127.963;000.089;34;000.547;MIDI 01
128.023;000.052;46;000.555;MIDI 01
128.210;000.085;30;000.641;MIDI 01
128.318;000.074;42;000.500;MIDI 01
128.454;000.088;30;000.586;MIDI 01
128.193;000.377;76;000.789;MIDI 01
128.195;000.391;88;000.750;MIDI 01
128.540;000.050;42;000.500;MIDI 01
128.197;000.421;82;000.734;MIDI 01
128.199;000.435;85;000.719;MIDI 01
128.684;000.075;29;000.641;MIDI 01
128.807;000.084;41;000.602;MIDI 01
128.942;000.079;29;000.570;MIDI 01
128.690;000.377;89;000.820;MIDI 01
129.042;000.077;41;000.602;MIDI 01
128.686;000.445;85;000.656;MIDI 01
128.691;000.445;82;000.664;MIDI 01
128.693;000.447;77;000.734;MIDI 01
129.174;000.074;29;000.617;MIDI 01
129.262;000.058;41;000.562;MIDI 01
129.420;000.027;69;000.633;MIDI 01
129.415;000.034;81;000.719;MIDI 01
129.400;000.065;29;000.625;MIDI 01
129.453;000.062;41;000.594;MIDI 01
129.646;000.028;82;000.742;MIDI 01
129.650;000.026;70;000.664;MIDI 01
129.648;000.089;34;000.562;MIDI 01
129.743;000.032;46;000.445;MIDI 01
129.767;000.038;70;000.164;MIDI 01
129.872;000.049;64;000.781;MIDI 01
129.890;000.060;30;000.617;MIDI 01
129.942;000.039;42;000.438;MIDI 01
129.874;000.142;76;000.789;MIDI 01
130.124;000.015;77;000.594;MIDI 01
130.119;000.022;65;000.594;MIDI 01
130.108;000.070;29;000.562;MIDI 01
130.252;000.043;41;000.438;MIDI 01
130.342;000.026;69;000.641;MIDI 01
130.346;000.034;57;000.594;MIDI 01
130.344;000.061;29;000.531;MIDI 01
130.410;000.069;41;000.516;MIDI 01
130.592;000.027;58;000.500;MIDI 01
130.581;000.040;70;000.664;MIDI 01
130.583;000.096;34;000.508;MIDI 01
130.716;000.050;46;000.203;MIDI 01
130.834;000.089;30;000.586;MIDI 01
130.817;000.109;76;000.789;MIDI 01
130.897;000.043;42;000.500;MIDI 01
130.824;000.153;88;000.797;MIDI 01
131.065;000.023;89;000.703;MIDI 01
131.068;000.028;77;000.641;MIDI 01
131.057;000.077;29;000.555;MIDI 01
131.186;000.058;41;000.539;MIDI 01
131.292;000.025;81;000.688;MIDI 01
131.294;000.025;69;000.656;MIDI 01
131.298;000.069;29;000.562;MIDI 01
131.378;000.059;41;000.547;MIDI 01
131.532;000.025;70;000.695;MIDI 01
131.529;000.030;82;000.742;MIDI 01
131.540;000.092;34;000.539;MIDI 01
131.607;000.065;46;000.555;MIDI 01
131.653;000.038;70;000.148;MIDI 01
131.761;000.048;64;000.812;MIDI 01
131.805;000.034;73;000.344;MIDI 01
131.802;000.055;30;000.570;MIDI 01
131.823;000.041;42;000.539;MIDI 01
131.766;000.134;76;000.812;MIDI 01
132.010;000.023;77;000.672;MIDI 01
132.012;000.025;65;000.688;MIDI 01
132.008;000.060;29;000.523;MIDI 01
132.113;000.053;41;000.547;MIDI 01
132.236;000.024;69;000.656;MIDI 01
132.234;000.033;57;000.609;MIDI 01
132.225;000.059;29;000.477;MIDI 01
132.296;000.062;41;000.531;MIDI 01
132.476;000.036;70;000.586;MIDI 01
132.474;000.089;34;000.492;MIDI 01
132.562;000.036;46;000.383;MIDI 01
132.698;000.046;76;000.766;MIDI 01
132.720;000.062;30;000.594;MIDI 01
132.706;000.079;88;000.789;MIDI 01
132.751;000.062;42;000.539;MIDI 01
132.935;000.029;89;000.719;MIDI 01
132.943;000.028;77;000.617;MIDI 01
132.932;000.088;29;000.555;MIDI 01
133.054;000.057;41;000.555;MIDI 01
133.155;000.024;69;000.672;MIDI 01
133.157;000.033;81;000.727;MIDI 01
133.169;000.067;29;000.578;MIDI 01
133.234;000.049;41;000.469;MIDI 01
133.397;000.030;34;000.672;MIDI 01
133.392;000.043;46;000.727;MIDI 01
133.424;000.027;70;000.688;MIDI 01
133.421;000.055;82;000.734;MIDI 01
133.650;000.032;70;000.594;MIDI 01
133.652;000.032;82;000.602;MIDI 01
133.897;000.027;70;000.477;MIDI 01
133.898;000.036;82;000.547;MIDI 01
134.121;000.039;70;000.477;MIDI 01
134.129;000.044;82;000.477;MIDI 01
134.361;000.041;70;000.445;MIDI 01
134.366;000.039;82;000.438;MIDI 01
134.583;000.060;70;000.391;MIDI 01
134.592;000.060;82;000.352;MIDI 01
134.830;000.060;70;000.398;MIDI 01
134.826;000.074;82;000.398;MIDI 01
135.110;000.056;70;000.250;MIDI 01
135.113;000.057;82;000.281;MIDI 01
135.091;000.218;66;000.266;MIDI 01
135.093;000.239;63;000.266;MIDI 01
135.347;000.070;82;000.352;MIDI 01
135.342;000.078;70;000.359;MIDI 01
135.331;000.111;65;000.367;MIDI 01
135.340;000.294;68;000.422;MIDI 01
135.583;000.057;70;000.445;MIDI 01
135.589;000.055;82;000.414;MIDI 01
135.585;000.175;62;000.383;MIDI 01
135.603;000.193;65;000.383;MIDI 01
135.821;000.029;70;000.430;MIDI 01
135.826;000.036;82;000.414;MIDI 01
135.823;000.051;66;000.398;MIDI 01
135.831;000.046;63;000.359;MIDI 01
136.036;000.050;70;000.352;MIDI 01
136.050;000.041;82;000.344;MIDI 01
136.046;000.205;66;000.352;MIDI 01
136.043;000.219;63;000.352;MIDI 01
136.273;000.052;70;000.359;MIDI 01
136.289;000.046;82;000.305;MIDI 01
136.295;000.092;65;000.352;MIDI 01
136.299;000.265;68;000.375;MIDI 01
136.506;000.068;70;000.398;MIDI 01
136.518;000.066;82;000.352;MIDI 01
136.546;000.155;65;000.367;MIDI 01
136.536;000.199;62;000.289;MIDI 01
136.752;000.047;82;000.383;MIDI 01
136.756;000.047;70;000.367;MIDI 01
136.769;000.036;66;000.359;MIDI 01
136.776;000.039;63;000.289;MIDI 01
136.977;000.058;70;000.352;MIDI 01
136.992;000.047;82;000.312;MIDI 01
136.988;000.196;66;000.273;MIDI 01
136.984;000.207;63;000.305;MIDI 01
137.223;000.061;70;000.375;MIDI 01
137.233;000.053;82;000.289;MIDI 01
137.235;000.066;65;000.375;MIDI 01
137.225;000.266;68;000.375;MIDI 01
137.459;000.046;70;000.375;MIDI 01
137.465;000.045;82;000.344;MIDI 01
137.467;000.191;65;000.336;MIDI 01
137.445;000.276;62;000.344;MIDI 01
137.757;000.043;82;000.188;MIDI 01
137.747;000.062;70;000.297;MIDI 01
137.739;000.130;66;000.344;MIDI 01
137.728;000.157;63;000.320;MIDI 01
137.996;000.044;78;000.383;MIDI 01
138.024;000.048;66;000.219;MIDI 01
138.218;000.066;66;000.391;MIDI 01
138.235;000.051;78;000.344;MIDI 01
138.454;000.052;78;000.375;MIDI 01
138.450;000.062;66;000.398;MIDI 01
138.693;000.071;66;000.367;MIDI 01
138.696;000.070;78;000.367;MIDI 01
138.939;000.069;66;000.312;MIDI 01
138.936;000.084;78;000.344;MIDI 01
138.941;000.226;63;000.336;MIDI 01
138.929;000.253;59;000.336;MIDI 01
139.182;000.089;66;000.352;MIDI 01
139.199;000.074;78;000.352;MIDI 01
139.205;000.161;61;000.375;MIDI 01
139.175;000.248;64;000.406;MIDI 01
139.433;000.062;78;000.375;MIDI 01
139.438;000.060;66;000.398;MIDI 01
139.418;000.189;58;000.383;MIDI 01
139.399;000.236;61;000.219;MIDI 01
139.652;000.049;63;000.414;MIDI 01
139.648;000.059;66;000.414;MIDI 01
139.650;000.061;59;000.422;MIDI 01
139.665;000.058;78;000.344;MIDI 01
139.875;000.083;66;000.469;MIDI 01
139.876;000.096;78;000.477;MIDI 01
139.878;000.225;63;000.406;MIDI 01
139.873;000.257;59;000.383;MIDI 01
140.113;000.071;66;000.469;MIDI 01
140.126;000.069;78;000.477;MIDI 01
140.125;000.102;61;000.508;MIDI 01
140.107;000.241;64;000.445;MIDI 01
140.332;000.084;66;000.516;MIDI 01
140.343;000.093;78;000.508;MIDI 01
140.345;000.174;58;000.406;MIDI 01
140.347;000.180;61;000.422;MIDI 01
140.573;000.051;66;000.523;MIDI 01
140.569;000.062;63;000.461;MIDI 01
140.566;000.071;59;000.438;MIDI 01
140.588;000.058;78;000.508;MIDI 01
140.816;000.031;66;000.398;MIDI 01
140.810;000.052;78;000.453;MIDI 01
140.799;000.238;63;000.500;MIDI 01
140.805;000.260;59;000.445;MIDI 01
141.016;000.059;66;000.383;MIDI 01
141.028;000.056;78;000.492;MIDI 01
141.048;000.090;61;000.477;MIDI 01
141.018;000.266;64;000.492;MIDI 01
141.273;000.046;66;000.430;MIDI 01
141.279;000.048;78;000.492;MIDI 01
141.269;000.205;61;000.477;MIDI 01
141.274;000.217;58;000.406;MIDI 01
141.554;000.029;78;000.336;MIDI 01
141.552;000.041;66;000.289;MIDI 01
141.524;000.110;63;000.398;MIDI 01
141.518;000.131;59;000.383;MIDI 01
141.759;000.045;75;000.477;MIDI 01
141.771;000.035;63;000.359;MIDI 01
142.002;000.036;75;000.414;MIDI 01
141.985;000.057;63;000.375;MIDI 01
142.234;000.045;75;000.352;MIDI 01
142.227;000.054;63;000.383;MIDI 01
142.466;000.059;75;000.344;MIDI 01
142.454;000.081;63;000.391;MIDI 01
142.701;000.062;75;000.359;MIDI 01
142.716;000.055;63;000.305;MIDI 01
142.695;000.224;59;000.250;MIDI 01
142.957;000.043;75;000.305;MIDI 01
142.705;000.301;56;000.180;MIDI 01
142.950;000.058;63;000.297;MIDI 01
142.985;000.060;58;000.219;MIDI 01
142.952;000.275;61;000.367;MIDI 01
143.178;000.062;63;000.320;MIDI 01
143.171;000.072;75;000.344;MIDI 01
143.186;000.197;58;000.367;MIDI 01
143.193;000.210;55;000.219;MIDI 01
143.419;000.055;75;000.391;MIDI 01
143.419;000.060;63;000.359;MIDI 01
143.435;000.068;56;000.320;MIDI 01
143.446;000.074;59;000.328;MIDI 01
143.680;000.037;75;000.336;MIDI 01
143.672;000.048;63;000.352;MIDI 01
143.679;000.176;59;000.391;MIDI 01
143.682;000.220;56;000.336;MIDI 01
143.911;000.047;75;000.336;MIDI 01
143.902;000.059;63;000.352;MIDI 01
143.934;000.071;58;000.289;MIDI 01
143.900;000.276;61;000.383;MIDI 01
144.141;000.050;75;000.312;MIDI 01
144.134;000.065;63;000.359;MIDI 01
144.173;000.151;58;000.383;MIDI 01
144.137;000.238;55;000.328;MIDI 01
144.392;000.043;75;000.328;MIDI 01
144.390;000.047;63;000.344;MIDI 01
144.407;000.049;56;000.281;MIDI 01
144.398;000.065;59;000.352;MIDI 01
144.622;000.045;63;000.312;MIDI 01
144.630;000.039;75;000.305;MIDI 01
144.620;000.191;59;000.352;MIDI 01
144.613;000.210;56;000.344;MIDI 01
144.854;000.049;75;000.305;MIDI 01
144.848;000.059;63;000.328;MIDI 01
144.864;000.054;58;000.352;MIDI 01
144.841;000.270;61;000.344;MIDI 01
145.081;000.053;63;000.344;MIDI 01
145.089;000.048;75;000.289;MIDI 01
145.094;000.168;55;000.258;MIDI 01
145.077;000.196;58;000.352;MIDI 01
145.340;000.044;63;000.312;MIDI 01
145.351;000.041;75;000.273;MIDI 01
145.347;000.161;59;000.297;MIDI 01
145.330;000.180;56;000.328;MIDI 01
145.574;000.042;63;000.328;MIDI 01
145.580;000.037;75;000.328;MIDI 01
145.811;000.053;75;000.461;MIDI 01
145.816;000.051;63;000.398;MIDI 01
146.042;000.057;63;000.352;MIDI 01
146.065;000.037;75;000.344;MIDI 01
146.272;000.064;63;000.383;MIDI 01
146.279;000.059;75;000.312;MIDI 01
146.522;000.046;63;000.320;MIDI 01
146.515;000.059;75;000.398;MIDI 01
146.495;000.196;59;000.305;MIDI 01
146.508;000.251;56;000.266;MIDI 01
146.752;000.055;75;000.344;MIDI 01
146.743;000.067;63;000.344;MIDI 01
146.767;000.074;58;000.305;MIDI 01
146.733;000.282;61;000.359;MIDI 01
146.980;000.049;75;000.344;MIDI 01
146.984;000.053;63;000.320;MIDI 01
147.004;000.196;55;000.273;MIDI 01
147.017;000.206;58;000.344;MIDI 01
147.217;000.053;63;000.328;MIDI 01
147.227;000.045;75;000.312;MIDI 01
147.252;000.114;59;000.312;MIDI 01
147.250;000.124;56;000.242;MIDI 01
147.464;000.041;63;000.336;MIDI 01
147.473;000.037;75;000.320;MIDI 01
147.696;000.052;63;000.445;MIDI 01
147.698;000.052;75;000.484;MIDI 01
147.945;000.040;63;000.336;MIDI 01
147.970;000.043;75;000.227;MIDI 01
148.171;000.049;75;000.359;MIDI 01
148.173;000.055;63;000.336;MIDI 01
148.414;000.042;75;000.328;MIDI 01
148.402;000.057;63;000.359;MIDI 01
148.406;000.070;56;000.289;MIDI 01
148.405;000.273;59;000.266;MIDI 01
148.653;000.138;63;000.320;MIDI 01
148.664;000.129;75;000.281;MIDI 01
148.682;000.200;53;000.188;MIDI 01
148.661;000.225;56;000.266;MIDI 01
148.892;000.046;62;000.391;MIDI 01
148.900;000.049;74;000.375;MIDI 01
149.124;000.036;74;000.352;MIDI 01
149.126;000.041;62;000.320;MIDI 01
149.354;000.041;74;000.398;MIDI 01
149.356;000.040;62;000.328;MIDI 01
149.582;000.044;62;000.398;MIDI 01
149.583;000.046;74;000.461;MIDI 01
149.824;000.041;62;000.328;MIDI 01
149.827;000.039;74;000.375;MIDI 01
150.057;000.042;74;000.367;MIDI 01
150.055;000.046;62;000.289;MIDI 01
150.271;000.040;62;000.367;MIDI 01
150.278;000.045;74;000.367;MIDI 01
150.293;000.045;53;000.219;MIDI 01
150.282;000.215;56;000.297;MIDI 01
150.539;000.082;64;000.266;MIDI 01
150.529;000.177;76;000.398;MIDI 01
150.775;000.031;77;000.414;MIDI 01
150.492;000.326;53;000.273;MIDI 01
150.790;000.046;65;000.250;MIDI 01
150.534;000.321;50;000.250;MIDI 01
150.984;000.043;65;000.352;MIDI 01
150.991;000.049;77;000.344;MIDI 01
151.224;000.041;65;000.320;MIDI 01
151.220;000.046;77;000.367;MIDI 01
151.451;000.040;65;000.352;MIDI 01
151.456;000.049;77;000.430;MIDI 01
151.676;000.041;65;000.312;MIDI 01
151.683;000.037;77;000.375;MIDI 01
151.909;000.037;65;000.336;MIDI 01
151.915;000.037;77;000.352;MIDI 01
152.117;000.035;65;000.336;MIDI 01
152.151;000.050;50;000.219;MIDI 01
152.128;000.076;77;000.391;MIDI 01
152.381;000.059;69;000.344;MIDI 01
152.166;000.278;53;000.211;MIDI 01
152.369;000.169;81;000.445;MIDI 01
152.598;000.031;70;000.375;MIDI 01
152.379;000.257;50;000.180;MIDI 01
152.417;000.232;46;000.297;MIDI 01
152.626;000.040;82;000.250;MIDI 01
152.821;000.042;70;000.367;MIDI 01
152.823;000.042;82;000.359;MIDI 01
153.052;000.037;70;000.352;MIDI 01
153.060;000.039;82;000.398;MIDI 01
153.285;000.037;70;000.344;MIDI 01
153.283;000.056;82;000.445;MIDI 01
153.507;000.043;70;000.344;MIDI 01
153.518;000.046;82;000.414;MIDI 01
153.741;000.035;70;000.367;MIDI 01
153.738;000.041;82;000.430;MIDI 01
153.950;000.046;70;000.359;MIDI 01
153.963;000.041;82;000.328;MIDI 01
153.960;000.056;50;000.273;MIDI 01
153.967;000.260;53;000.273;MIDI 01
154.218;000.118;69;000.328;MIDI 01
154.224;000.197;81;000.336;MIDI 01
154.206;000.273;50;000.141;MIDI 01
154.455;000.030;70;000.430;MIDI 01
154.256;000.232;46;000.234;MIDI 01
154.470;000.031;82;000.359;MIDI 01
154.669;000.043;82;000.375;MIDI 01
154.682;000.036;70;000.297;MIDI 01
154.894;000.037;70;000.328;MIDI 01
154.899;000.041;82;000.375;MIDI 01
154.916;000.050;50;000.219;MIDI 01
154.921;000.239;53;000.188;MIDI 01
155.178;000.055;69;000.094;MIDI 01
155.143;000.193;81;000.461;MIDI 01
155.126;000.259;50;000.211;MIDI 01
155.164;000.231;46;000.320;MIDI 01
155.385;000.029;70;000.391;MIDI 01
155.391;000.030;82;000.344;MIDI 01
155.592;000.045;70;000.367;MIDI 01
155.594;000.046;82;000.398;MIDI 01
155.814;000.042;70;000.398;MIDI 01
155.823;000.042;82;000.383;MIDI 01
155.825;000.053;50;000.242;MIDI 01
155.827;000.232;53;000.281;MIDI 01
156.086;000.045;69;000.234;MIDI 01
156.070;000.134;81;000.453;MIDI 01
156.067;000.152;50;000.133;MIDI 01
156.083;000.152;46;000.281;MIDI 01
156.295;000.032;70;000.352;MIDI 01
156.306;000.034;82;000.289;MIDI 01
156.525;000.036;70;000.344;MIDI 01
156.519;000.044;82;000.359;MIDI 01
156.753;000.043;70;000.344;MIDI 01
156.759;000.047;82;000.430;MIDI 01
156.971;000.047;70;000.453;MIDI 01
156.977;000.049;82;000.484;MIDI 01
157.191;000.043;70;000.430;MIDI 01
157.199;000.047;82;000.445;MIDI 01
157.427;000.033;70;000.383;MIDI 01
157.430;000.040;82;000.422;MIDI 01
157.641;000.049;70;000.344;MIDI 01
157.646;000.055;82;000.422;MIDI 01
157.873;000.033;70;000.367;MIDI 01
157.876;000.035;82;000.406;MIDI 01
157.871;000.072;38;000.359;MIDI 01
158.002;000.055;39;000.383;MIDI 01
158.082;000.046;70;000.375;MIDI 01
158.086;000.049;82;000.422;MIDI 01
158.089;000.049;38;000.422;MIDI 01
158.191;000.044;39;000.367;MIDI 01
158.254;000.056;38;000.461;MIDI 01
158.289;000.027;70;000.438;MIDI 01
158.286;000.043;82;000.500;MIDI 01
158.340;000.050;39;000.477;MIDI 01
158.432;000.039;38;000.391;MIDI 01
158.486;000.040;70;000.445;MIDI 01
158.488;000.044;82;000.516;MIDI 01
158.502;000.065;39;000.500;MIDI 01
158.580;000.059;38;000.484;MIDI 01
158.672;000.062;39;000.492;MIDI 01
158.710;000.033;70;000.547;MIDI 01
158.707;000.039;82;000.594;MIDI 01
158.754;000.057;38;000.484;MIDI 01
158.844;000.070;39;000.547;MIDI 01
158.929;000.028;70;000.586;MIDI 01
158.931;000.031;82;000.672;MIDI 01
158.926;000.066;38;000.539;MIDI 01
159.012;000.092;39;000.477;MIDI 01
159.159;000.025;82;000.656;MIDI 01
159.157;000.028;70;000.625;MIDI 01
159.127;000.090;38;000.453;MIDI 01
159.255;000.086;39;000.383;MIDI 01
159.389;000.023;82;000.477;MIDI 01
159.385;000.029;70;000.492;MIDI 01
159.426;000.097;36;000.430;MIDI 01
159.556;000.183;38;000.352;MIDI 01
159.746;000.250;39;000.406;MIDI 01
160.021;000.045;41;000.375;MIDI 01
160.121;000.072;43;000.422;MIDI 01
159.730;000.475;51;000.414;MIDI 01
160.241;000.052;44;000.477;MIDI 01
160.344;000.061;43;000.438;MIDI 01
160.476;000.056;41;000.422;MIDI 01
160.591;000.058;39;000.414;MIDI 01
160.243;000.474;48;000.469;MIDI 01
160.705;000.061;38;000.445;MIDI 01
160.735;000.048;46;000.398;MIDI 01
160.832;000.060;36;000.367;MIDI 01
160.944;000.043;44;000.430;MIDI 01
160.942;000.053;38;000.273;MIDI 01
161.008;000.054;34;000.352;MIDI 01
161.007;000.074;46;000.406;MIDI 01
161.120;000.045;39;000.445;MIDI 01
161.093;000.079;44;000.523;MIDI 01
161.231;000.088;38;000.406;MIDI 01
161.373;000.081;39;000.438;MIDI 01
161.171;000.350;43;000.516;MIDI 01
161.521;000.048;40;000.367;MIDI 01
161.629;000.042;41;000.430;MIDI 01
161.652;000.072;44;000.430;MIDI 01
161.781;000.047;46;000.461;MIDI 01
161.762;000.073;43;000.461;MIDI 01
161.894;000.054;48;000.453;MIDI 01
161.882;000.091;44;000.516;MIDI 01
162.021;000.053;46;000.391;MIDI 01
162.001;000.088;50;000.438;MIDI 01
162.124;000.056;48;000.398;MIDI 01
162.114;000.076;51;000.555;MIDI 01
162.232;000.050;53;000.492;MIDI 01
162.243;000.072;50;000.469;MIDI 01
162.360;000.075;51;000.477;MIDI 01
162.339;000.117;55;000.484;MIDI 01
162.484;000.074;48;000.414;MIDI 01
162.461;000.103;57;000.508;MIDI 01
162.608;000.049;50;000.414;MIDI 01
162.592;000.110;58;000.477;MIDI 01
162.708;000.057;51;000.461;MIDI 01
162.707;000.117;60;000.508;MIDI 01
162.832;000.032;53;000.391;MIDI 01
162.830;000.060;57;000.508;MIDI 01
162.945;000.047;51;000.477;MIDI 01
162.952;000.058;53;000.508;MIDI 01
163.042;000.060;50;000.461;MIDI 01
163.059;000.122;58;000.500;MIDI 01
163.178;000.049;48;000.398;MIDI 01
163.292;000.024;58;000.539;MIDI 01
163.290;000.028;70;000.625;MIDI 01
163.294;000.094;46;000.516;MIDI 01
163.434;000.066;44;000.406;MIDI 01
163.515;000.065;43;000.547;MIDI 01
163.661;000.086;51;000.555;MIDI 01
163.534;000.309;75;000.711;MIDI 01
163.796;000.065;53;000.555;MIDI 01
163.541;000.326;63;000.625;MIDI 01
163.910;000.105;55;000.523;MIDI 01
164.035;000.059;56;000.555;MIDI 01
164.139;000.074;55;000.539;MIDI 01
164.042;000.235;60;000.625;MIDI 01
164.270;000.085;53;000.539;MIDI 01
164.402;000.062;51;000.500;MIDI 01
164.044;000.454;72;000.633;MIDI 01
164.505;000.076;50;000.508;MIDI 01
164.503;000.083;70;000.617;MIDI 01
164.647;000.064;48;000.484;MIDI 01
164.707;000.024;68;000.492;MIDI 01
164.751;000.031;50;000.406;MIDI 01
164.772;000.048;70;000.531;MIDI 01
164.826;000.050;46;000.477;MIDI 01
164.820;000.060;68;000.594;MIDI 01
164.898;000.052;67;000.531;MIDI 01
164.934;000.041;51;000.523;MIDI 01
164.963;000.066;68;000.562;MIDI 01
165.072;000.090;50;000.516;MIDI 01
165.207;000.085;51;000.555;MIDI 01
165.323;000.078;52;000.539;MIDI 01
165.425;000.086;53;000.523;MIDI 01
165.452;000.127;68;000.625;MIDI 01
165.578;000.081;70;000.641;MIDI 01
165.553;000.120;55;000.531;MIDI 01
165.681;000.116;56;000.555;MIDI 01
165.692;000.115;72;000.656;MIDI 01
165.790;000.092;58;000.562;MIDI 01
165.805;000.123;74;000.688;MIDI 01
165.924;000.078;75;000.648;MIDI 01
165.908;000.096;60;000.555;MIDI 01
166.037;000.070;77;000.656;MIDI 01
166.034;000.110;62;000.578;MIDI 01
166.156;000.097;63;000.578;MIDI 01
166.151;000.122;79;000.672;MIDI 01
166.272;000.036;80;000.625;MIDI 01
166.257;000.075;65;000.547;MIDI 01
166.389;000.078;67;000.523;MIDI 01
166.490;000.037;68;000.477;MIDI 01
166.391;000.181;82;000.664;MIDI 01
166.523;000.134;84;000.625;MIDI 01
166.613;000.079;65;000.453;MIDI 01
166.637;000.076;80;000.602;MIDI 01
166.438;000.283;58;000.477;MIDI 01
166.705;000.036;62;000.469;MIDI 01
166.764;000.054;77;000.516;MIDI 01
166.879;000.048;63;000.391;MIDI 01
166.891;000.052;75;000.492;MIDI 01
166.900;000.050;51;000.422;MIDI 01
167.376;000.026;70;000.438;MIDI 01
167.407;000.055;50;000.141;MIDI 01
167.485;000.076;58;000.289;MIDI 01
167.608;000.024;74;000.547;MIDI 01
167.615;000.033;62;000.406;MIDI 01
167.604;000.056;53;000.367;MIDI 01
167.715;000.096;58;000.414;MIDI 01
167.852;000.073;65;000.492;MIDI 01
167.858;000.091;56;000.406;MIDI 01
167.843;000.206;77;000.609;MIDI 01
167.976;000.078;58;000.438;MIDI 01
168.105;000.056;56;000.422;MIDI 01
168.202;000.065;58;000.430;MIDI 01
168.322;000.030;74;000.578;MIDI 01
168.333;000.035;62;000.383;MIDI 01
168.335;000.054;53;000.344;MIDI 01
168.436;000.054;58;000.430;MIDI 01
168.546;000.028;77;000.664;MIDI 01
168.555;000.023;65;000.531;MIDI 01
168.525;000.070;56;000.477;MIDI 01
168.633;000.079;58;000.438;MIDI 01
168.801;000.089;60;000.367;MIDI 01
168.941;000.064;58;000.453;MIDI 01
169.057;000.058;60;000.406;MIDI 01
169.173;000.088;58;000.430;MIDI 01
169.301;000.075;60;000.383;MIDI 01
168.805;000.594;80;000.688;MIDI 01
168.812;000.590;68;000.586;MIDI 01
169.417;000.052;58;000.445;MIDI 01
169.530;000.056;60;000.398;MIDI 01
169.567;000.022;79;000.461;MIDI 01
169.574;000.030;67;000.406;MIDI 01
169.619;000.096;58;000.367;MIDI 01
169.786;000.022;77;000.492;MIDI 01
169.758;000.054;56;000.359;MIDI 01
169.793;000.025;65;000.469;MIDI 01
169.873;000.073;58;000.414;MIDI 01
170.005;000.031;75;000.547;MIDI 01
170.003;000.035;63;000.547;MIDI 01
169.992;000.062;55;000.375;MIDI 01
170.088;000.111;58;000.453;MIDI 01
170.230;000.024;62;000.570;MIDI 01
170.232;000.030;74;000.617;MIDI 01
170.224;000.056;53;000.398;MIDI 01
170.344;000.056;58;000.430;MIDI 01
170.478;000.031;75;000.555;MIDI 01
170.466;000.051;55;000.367;MIDI 01
170.482;000.036;63;000.492;MIDI 01
170.548;000.080;58;000.438;MIDI 01
170.678;000.051;51;000.445;MIDI 01
170.708;000.025;60;000.469;MIDI 01
170.698;000.041;72;000.562;MIDI 01
170.790;000.049;58;000.406;MIDI 01
170.926;000.031;69;000.586;MIDI 01
170.912;000.056;48;000.469;MIDI 01
171.016;000.095;58;000.406;MIDI 01
171.162;000.030;70;000.602;MIDI 01
171.149;000.061;50;000.398;MIDI 01
171.267;000.090;58;000.445;MIDI 01
171.393;000.026;74;000.648;MIDI 01
171.391;000.029;62;000.609;MIDI 01
171.409;000.054;53;000.430;MIDI 01
171.508;000.114;58;000.438;MIDI 01
171.642;000.091;56;000.453;MIDI 01
171.774;000.073;58;000.461;MIDI 01
171.648;000.261;77;000.672;MIDI 01
171.649;000.304;65;000.656;MIDI 01
171.884;000.072;56;000.492;MIDI 01
171.982;000.073;58;000.477;MIDI 01
172.118;000.025;62;000.516;MIDI 01
172.124;000.029;74;000.555;MIDI 01
172.110;000.064;53;000.461;MIDI 01
172.231;000.075;58;000.438;MIDI 01
172.341;000.026;77;000.656;MIDI 01
172.336;000.032;65;000.617;MIDI 01
172.339;000.074;56;000.500;MIDI 01
172.434;000.086;58;000.477;MIDI 01
172.608;000.105;60;000.469;MIDI 01
172.762;000.044;58;000.422;MIDI 01
172.833;000.089;60;000.461;MIDI 01
172.952;000.096;58;000.469;MIDI 01
172.590;000.545;80;000.680;MIDI 01
172.600;000.536;68;000.602;MIDI 01
173.085;000.065;60;000.484;MIDI 01
173.197;000.053;58;000.508;MIDI 01
173.293;000.021;79;000.500;MIDI 01
173.296;000.025;67;000.453;MIDI 01
173.283;000.082;60;000.484;MIDI 01
173.408;000.067;58;000.328;MIDI 01
173.512;000.020;77;000.555;MIDI 01
173.510;000.023;65;000.547;MIDI 01
173.509;000.055;56;000.453;MIDI 01
173.609;000.093;58;000.484;MIDI 01
173.730;000.024;63;000.570;MIDI 01
173.732;000.031;75;000.562;MIDI 01
173.709;000.064;55;000.500;MIDI 01
173.830;000.092;58;000.391;MIDI 01
173.953;000.029;60;000.625;MIDI 01
173.955;000.029;72;000.688;MIDI 01
173.939;000.059;56;000.469;MIDI 01
173.944;000.104;46;000.477;MIDI 01
174.083;000.054;58;000.359;MIDI 01
174.188;000.026;74;000.648;MIDI 01
174.189;000.031;62;000.617;MIDI 01
174.211;000.053;46;000.398;MIDI 01
174.185;000.081;53;000.500;MIDI 01
174.273;000.120;58;000.406;MIDI 01
174.442;000.031;63;000.578;MIDI 01
174.414;000.075;55;000.453;MIDI 01
174.440;000.052;75;000.609;MIDI 01
174.453;000.097;51;000.375;MIDI 01
174.685;000.079;55;000.383;MIDI 01
174.543;000.276;58;000.500;MIDI 01
174.765;000.056;51;000.555;MIDI 01
174.925;000.021;58;000.609;MIDI 01
174.919;000.029;46;000.688;MIDI 01
175.033;000.053;82;000.477;MIDI 01
175.158;000.028;50;000.625;MIDI 01
175.162;000.032;62;000.602;MIDI 01
175.143;000.089;81;000.562;MIDI 01
175.279;000.106;82;000.484;MIDI 01
175.389;000.105;81;000.555;MIDI 01
175.547;000.108;82;000.586;MIDI 01
175.408;000.268;65;000.719;MIDI 01
175.414;000.328;53;000.680;MIDI 01
175.661;000.121;80;000.609;MIDI 01
175.787;000.078;82;000.570;MIDI 01
175.900;000.028;62;000.688;MIDI 01
175.882;000.053;77;000.602;MIDI 01
175.907;000.030;50;000.625;MIDI 01
176.006;000.099;82;000.516;MIDI 01
176.122;000.027;65;000.695;MIDI 01
176.128;000.030;53;000.656;MIDI 01
176.114;000.147;81;000.578;MIDI 01
176.260;000.095;82;000.516;MIDI 01
176.384;000.093;77;000.602;MIDI 01
176.506;000.093;82;000.578;MIDI 01
176.617;000.064;74;000.539;MIDI 01
176.717;000.099;82;000.656;MIDI 01
176.367;000.478;68;000.758;MIDI 01
176.372;000.498;56;000.695;MIDI 01
176.823;000.049;70;000.648;MIDI 01
176.946;000.103;82;000.625;MIDI 01
177.049;000.027;70;000.484;MIDI 01
177.070;000.026;67;000.531;MIDI 01
177.076;000.030;55;000.523;MIDI 01
177.053;000.068;75;000.508;MIDI 01
177.157;000.096;82;000.500;MIDI 01
177.279;000.025;65;000.523;MIDI 01
177.292;000.028;53;000.484;MIDI 01
177.276;000.059;74;000.469;MIDI 01
177.268;000.126;77;000.484;MIDI 01
177.394;000.100;82;000.523;MIDI 01
177.492;000.031;63;000.562;MIDI 01
177.500;000.033;51;000.547;MIDI 01
177.498;000.043;75;000.500;MIDI 01
177.494;000.131;79;000.531;MIDI 01
177.634;000.098;82;000.578;MIDI 01
177.699;000.034;62;000.703;MIDI 01
177.701;000.041;50;000.703;MIDI 01
177.738;000.112;77;000.539;MIDI 01
177.741;000.208;80;000.531;MIDI 01
177.881;000.076;82;000.539;MIDI 01
177.964;000.030;63;000.570;MIDI 01
177.966;000.031;51;000.570;MIDI 01
177.989;000.033;75;000.445;MIDI 01
177.978;000.102;79;000.422;MIDI 01
178.099;000.087;82;000.523;MIDI 01
178.202;000.034;48;000.617;MIDI 01
178.204;000.034;60;000.555;MIDI 01
178.208;000.043;75;000.414;MIDI 01
178.200;000.109;79;000.539;MIDI 01
178.320;000.100;82;000.578;MIDI 01
178.424;000.027;45;000.633;MIDI 01
178.425;000.026;57;000.641;MIDI 01
178.428;000.092;75;000.477;MIDI 01
178.428;000.110;79;000.539;MIDI 01
178.551;000.090;82;000.562;MIDI 01
178.645;000.037;58;000.680;MIDI 01
178.649;000.036;46;000.672;MIDI 01
178.666;000.060;74;000.609;MIDI 01
178.661;000.069;77;000.570;MIDI 01
178.781;000.118;82;000.586;MIDI 01
178.903;000.032;62;000.625;MIDI 01
178.905;000.036;50;000.609;MIDI 01
178.906;000.107;81;000.594;MIDI 01
179.045;000.097;82;000.531;MIDI 01
179.165;000.094;81;000.578;MIDI 01
179.302;000.120;82;000.586;MIDI 01
179.160;000.299;65;000.727;MIDI 01
179.166;000.347;53;000.680;MIDI 01
179.422;000.116;80;000.609;MIDI 01
179.545;000.085;82;000.555;MIDI 01
179.648;000.048;77;000.562;MIDI 01
179.672;000.030;62;000.664;MIDI 01
179.676;000.032;50;000.648;MIDI 01
179.762;000.114;82;000.562;MIDI 01
179.902;000.027;65;000.672;MIDI 01
179.906;000.028;53;000.641;MIDI 01
179.881;000.167;81;000.594;MIDI 01
180.031;000.122;82;000.500;MIDI 01
180.160;000.098;77;000.586;MIDI 01
180.293;000.095;82;000.594;MIDI 01
180.401;000.057;74;000.531;MIDI 01
180.494;000.109;82;000.664;MIDI 01
180.149;000.473;68;000.711;MIDI 01
180.153;000.481;56;000.688;MIDI 01
180.611;000.049;70;000.641;MIDI 01
180.722;000.115;82;000.617;MIDI 01
180.836;000.039;67;000.531;MIDI 01
180.833;000.044;70;000.594;MIDI 01
180.846;000.045;55;000.492;MIDI 01
180.843;000.083;75;000.555;MIDI 01
180.939;000.100;82;000.508;MIDI 01
181.071;000.029;53;000.461;MIDI 01
181.076;000.036;65;000.344;MIDI 01
181.061;000.062;74;000.516;MIDI 01
181.058;000.125;77;000.508;MIDI 01
181.175;000.112;82;000.578;MIDI 01
181.281;000.027;51;000.539;MIDI 01
181.283;000.026;63;000.453;MIDI 01
181.287;000.051;75;000.477;MIDI 01
181.302;000.040;79;000.320;MIDI 01
181.488;000.031;48;000.672;MIDI 01
181.493;000.029;60;000.648;MIDI 01
181.417;000.115;82;000.641;MIDI 01
181.531;000.092;75;000.578;MIDI 01
181.512;000.143;80;000.570;MIDI 01
181.651;000.075;82;000.656;MIDI 01
181.732;000.027;50;000.594;MIDI 01
181.738;000.024;62;000.539;MIDI 01
181.765;000.038;68;000.469;MIDI 01
181.740;000.106;77;000.484;MIDI 01
181.856;000.055;82;000.617;MIDI 01
181.980;000.032;67;000.508;MIDI 01
181.996;000.028;63;000.672;MIDI 01
182.001;000.035;73;000.305;MIDI 01
181.999;000.048;51;000.680;MIDI 01
182.266;000.239;58;000.742;MIDI 01
182.578;000.067;51;000.711;MIDI 01
182.580;000.114;55;000.734;MIDI 01
182.586;000.140;63;000.680;MIDI 01
182.590;000.164;58;000.625;MIDI 01
182.590;000.185;39;000.625;MIDI 01
182.814;000.044;38;000.352;MIDI 01
182.924;000.169;39;000.156;MIDI 01
183.128;000.044;32;000.656;MIDI 01
183.118;000.058;44;000.742;MIDI 01
183.120;000.140;51;000.758;MIDI 01
183.126;000.270;60;000.648;MIDI 01
183.124;000.422;56;000.648;MIDI 01
183.604;000.027;46;000.648;MIDI 01
183.598;000.034;50;000.680;MIDI 01
183.600;000.039;58;000.625;MIDI 01
183.606;000.045;34;000.633;MIDI 01
183.855;000.039;38;000.508;MIDI 01
183.859;000.036;56;000.547;MIDI 01
183.853;000.050;53;000.539;MIDI 01
183.909;000.001;46;000.242;MIDI 01
184.099;000.035;51;000.438;MIDI 01
184.103;000.039;55;000.516;MIDI 01
184.117;000.040;39;000.438;MIDI 01
184.109;000.050;46;000.219;MIDI 01
184.357;000.020;75;000.555;MIDI 01
184.350;000.029;84;000.617;MIDI 01
184.366;000.041;56;000.500;MIDI 01
184.582;000.034;74;000.500;MIDI 01
184.596;000.031;58;000.422;MIDI 01
184.586;000.044;82;000.508;MIDI 01
184.820;000.031;62;000.516;MIDI 01
184.818;000.039;80;000.516;MIDI 01
185.066;000.020;79;000.531;MIDI 01
185.062;000.036;63;000.344;MIDI 01
185.078;000.031;70;000.375;MIDI 01
185.284;000.026;60;000.727;MIDI 01
185.289;000.036;68;000.703;MIDI 01
185.286;000.061;41;000.727;MIDI 01
185.522;000.030;59;000.625;MIDI 01
185.530;000.031;43;000.609;MIDI 01
185.517;000.061;67;000.648;MIDI 01
185.768;000.033;62;000.516;MIDI 01
185.761;000.042;65;000.570;MIDI 01
185.774;000.056;47;000.531;MIDI 01
185.993;000.035;48;000.430;MIDI 01
186.003;000.042;63;000.508;MIDI 01
186.235;000.022;72;000.516;MIDI 01
186.238;000.035;80;000.539;MIDI 01
186.247;000.041;53;000.297;MIDI 01
186.505;000.002;71;000.164;MIDI 01
186.472;000.040;55;000.461;MIDI 01
186.475;000.056;79;000.508;MIDI 01
186.700;000.030;77;000.438;MIDI 01
186.703;000.029;74;000.461;MIDI 01
186.706;000.040;59;000.430;MIDI 01
186.940;000.029;75;000.461;MIDI 01
186.955;000.035;67;000.359;MIDI 01
186.951;000.046;60;000.242;MIDI 01
187.186;000.034;56;000.727;MIDI 01
187.178;000.052;65;000.750;MIDI 01
187.184;000.081;37;000.633;MIDI 01
187.420;000.033;55;000.727;MIDI 01
187.418;000.068;39;000.633;MIDI 01
187.422;000.080;63;000.695;MIDI 01
187.648;000.041;58;000.508;MIDI 01
187.650;000.053;61;000.609;MIDI 01
187.655;000.049;43;000.633;MIDI 01
187.897;000.030;44;000.516;MIDI 01
187.899;000.033;60;000.547;MIDI 01
187.905;000.039;51;000.375;MIDI 01
188.168;000.002;68;000.312;MIDI 01
188.152;000.025;77;000.469;MIDI 01
188.144;000.041;49;000.383;MIDI 01
188.380;000.039;75;000.414;MIDI 01
188.379;000.042;67;000.383;MIDI 01
188.386;000.043;51;000.375;MIDI 01
188.603;000.032;55;000.406;MIDI 01
188.604;000.053;73;000.430;MIDI 01
188.625;000.037;70;000.289;MIDI 01
188.835;000.025;72;000.508;MIDI 01
188.847;000.035;56;000.438;MIDI 01
188.855;000.034;63;000.375;MIDI 01
189.068;000.065;53;000.688;MIDI 01
189.070;000.183;41;000.656;MIDI 01
189.055;000.244;61;000.703;MIDI 01
189.051;000.262;56;000.617;MIDI 01
189.295;000.028;55;000.594;MIDI 01
189.299;000.039;40;000.609;MIDI 01
189.305;000.035;60;000.602;MIDI 01
189.307;000.041;52;000.609;MIDI 01
189.570;000.042;70;000.438;MIDI 01
189.554;000.123;82;000.594;MIDI 01
189.572;000.130;52;000.422;MIDI 01
189.592;000.152;55;000.273;MIDI 01
189.574;000.198;60;000.414;MIDI 01
189.791;000.021;68;000.516;MIDI 01
189.780;000.035;53;000.516;MIDI 01
189.784;000.034;80;000.531;MIDI 01
189.789;000.033;56;000.406;MIDI 01
190.025;000.028;60;000.453;MIDI 01
190.005;000.061;51;000.719;MIDI 01
190.014;000.094;39;000.656;MIDI 01
190.008;000.188;59;000.602;MIDI 01
190.003;000.232;54;000.672;MIDI 01
190.223;000.037;38;000.609;MIDI 01
190.232;000.030;53;000.492;MIDI 01
190.225;000.041;50;000.547;MIDI 01
190.235;000.047;58;000.586;MIDI 01
190.496;000.045;68;000.508;MIDI 01
190.486;000.102;53;000.188;MIDI 01
190.480;000.119;80;000.648;MIDI 01
190.484;000.176;50;000.320;MIDI 01
190.478;000.186;58;000.398;MIDI 01
190.709;000.017;79;000.609;MIDI 01
190.721;000.026;55;000.500;MIDI 01
190.719;000.031;67;000.570;MIDI 01
190.725;000.033;51;000.531;MIDI 01
190.939;000.068;57;000.703;MIDI 01
190.950;000.192;48;000.641;MIDI 01
190.943;000.226;53;000.656;MIDI 01
190.936;000.250;63;000.656;MIDI 01
191.153;000.036;46;000.539;MIDI 01
191.173;000.032;62;000.609;MIDI 01
191.178;000.029;58;000.477;MIDI 01
191.402;000.201;65;000.516;MIDI 01
191.409;000.220;60;000.469;MIDI 01
191.404;000.258;69;000.539;MIDI 01
191.647;000.031;58;000.492;MIDI 01
191.645;000.035;74;000.531;MIDI 01
191.407;000.277;75;000.547;MIDI 01
191.651;000.035;70;000.531;MIDI 01
191.866;000.197;48;000.656;MIDI 01
191.859;000.225;53;000.641;MIDI 01
191.856;000.238;57;000.711;MIDI 01
191.861;000.234;63;000.688;MIDI 01
192.093;000.033;62;000.602;MIDI 01
192.091;000.038;46;000.500;MIDI 01
192.110;000.036;58;000.391;MIDI 01
192.324;000.048;75;000.602;MIDI 01
192.327;000.089;81;000.570;MIDI 01
192.342;000.210;60;000.383;MIDI 01
192.350;000.215;65;000.367;MIDI 01
192.551;000.024;82;000.625;MIDI 01
192.553;000.024;58;000.500;MIDI 01
192.549;000.030;74;000.594;MIDI 01
192.678;000.001;82;000.062;MIDI 01
192.790;000.058;53;000.578;MIDI 01
192.787;000.062;55;000.570;MIDI 01
192.785;000.213;48;000.680;MIDI 01
192.778;000.232;57;000.727;MIDI 01
192.997;000.039;46;000.570;MIDI 01
193.006;000.031;62;000.641;MIDI 01
192.780;000.259;63;000.672;MIDI 01
193.035;000.047;58;000.250;MIDI 01
193.223;000.228;60;000.594;MIDI 01
193.221;000.250;69;000.742;MIDI 01
193.225;000.251;65;000.578;MIDI 01
193.227;000.259;75;000.703;MIDI 01
193.456;000.037;58;000.539;MIDI 01
193.476;000.025;70;000.453;MIDI 01
193.458;000.046;74;000.656;MIDI 01
193.707;000.158;81;000.703;MIDI 01
193.716;000.221;75;000.727;MIDI 01
193.710;000.266;72;000.656;MIDI 01
193.714;000.269;65;000.664;MIDI 01
193.964;000.024;82;000.688;MIDI 01
193.957;000.032;70;000.625;MIDI 01
193.966;000.027;74;000.656;MIDI 01
194.208;000.043;60;000.664;MIDI 01
194.220;000.046;53;000.609;MIDI 01
194.214;000.170;69;000.680;MIDI 01
194.222;000.210;63;000.656;MIDI 01
194.528;000.027;46;000.672;MIDI 01
194.525;000.032;58;000.633;MIDI 01
194.530;000.029;70;000.688;MIDI 01
194.532;000.031;62;000.641;MIDI 01
194.671;000.041;58;000.023;MIDI 01
194.880;000.028;58;000.453;MIDI 01
194.884;000.057;55;000.430;MIDI 01
195.048;000.067;64;000.367;MIDI 01
195.188;000.006;58;000.359;MIDI 01
195.167;000.047;56;000.469;MIDI 01
195.305;000.037;65;000.352;MIDI 01
195.407;000.036;53;000.359;MIDI 01
195.412;000.034;58;000.383;MIDI 01
195.517;000.070;62;000.414;MIDI 01
195.643;000.039;58;000.320;MIDI 01
195.639;000.059;55;000.430;MIDI 01
195.761;000.055;63;000.438;MIDI 01
195.880;000.031;58;000.406;MIDI 01
195.911;000.059;55;000.328;MIDI 01
195.995;000.060;64;000.430;MIDI 01
196.126;000.027;58;000.477;MIDI 01
196.124;000.045;56;000.531;MIDI 01
196.255;000.048;65;000.461;MIDI 01
196.365;000.034;53;000.367;MIDI 01
196.385;000.036;58;000.352;MIDI 01
196.465;000.084;62;000.445;MIDI 01
196.594;000.040;58;000.352;MIDI 01
196.615;000.045;55;000.344;MIDI 01
196.715;000.078;63;000.422;MIDI 01
196.831;000.034;58;000.367;MIDI 01
196.845;000.050;55;000.406;MIDI 01
196.980;000.083;64;000.430;MIDI 01
197.073;000.032;58;000.391;MIDI 01
197.094;000.036;56;000.469;MIDI 01
197.213;000.058;65;000.445;MIDI 01
197.336;000.042;55;000.305;MIDI 01
197.368;000.060;58;000.047;MIDI 01
197.446;000.057;64;000.430;MIDI 01
197.560;000.032;58;000.422;MIDI 01
197.562;000.042;56;000.461;MIDI 01
197.693;000.051;65;000.398;MIDI 01
197.791;000.040;55;000.414;MIDI 01
197.803;000.042;58;000.289;MIDI 01
197.909;000.058;64;000.477;MIDI 01
198.033;000.033;58;000.391;MIDI 01
198.036;000.046;56;000.484;MIDI 01
198.158;000.062;65;000.469;MIDI 01
198.264;000.039;58;000.305;MIDI 01
198.258;000.056;55;000.484;MIDI 01
198.367;000.064;64;000.469;MIDI 01
198.478;000.032;58;000.430;MIDI 01
198.483;000.033;56;000.492;MIDI 01
198.581;000.029;65;000.492;MIDI 01
198.724;000.025;70;000.516;MIDI 01
198.738;000.047;67;000.531;MIDI 01
198.843;000.052;76;000.531;MIDI 01
198.972;000.051;68;000.523;MIDI 01
198.994;000.032;70;000.391;MIDI 01
199.072;000.075;77;000.508;MIDI 01
199.221;000.031;65;000.398;MIDI 01
199.223;000.035;70;000.336;MIDI 01
199.294;000.076;74;000.492;MIDI 01
199.427;000.046;67;000.445;MIDI 01
199.436;000.039;70;000.414;MIDI 01
199.534;000.061;75;000.453;MIDI 01
199.675;000.034;70;000.344;MIDI 01
199.659;000.055;67;000.375;MIDI 01
199.767;000.053;76;000.484;MIDI 01
199.891;000.046;68;000.516;MIDI 01
199.905;000.040;70;000.469;MIDI 01
199.996;000.067;77;000.492;MIDI 01
200.131;000.042;65;000.469;MIDI 01
200.193;000.059;70;000.086;MIDI 01
200.252;000.061;74;000.453;MIDI 01
200.365;000.032;70;000.484;MIDI 01
200.394;000.035;67;000.328;MIDI 01
200.479;000.069;75;000.453;MIDI 01
200.613;000.035;70;000.328;MIDI 01
200.609;000.067;67;000.344;MIDI 01
200.723;000.057;76;000.500;MIDI 01
200.850;000.030;70;000.375;MIDI 01
200.848;000.052;68;000.508;MIDI 01
200.986;000.056;77;000.430;MIDI 01
201.091;000.036;67;000.406;MIDI 01
201.105;000.044;70;000.227;MIDI 01
201.206;000.055;76;000.430;MIDI 01
201.322;000.033;70;000.320;MIDI 01
201.320;000.043;68;000.422;MIDI 01
201.441;000.049;77;000.398;MIDI 01
201.540;000.036;70;000.336;MIDI 01
201.547;000.056;67;000.430;MIDI 01
201.667;000.100;76;000.422;MIDI 01
201.786;000.034;70;000.344;MIDI 01
201.778;000.046;68;000.516;MIDI 01
201.900;000.071;77;000.453;MIDI 01
202.017;000.036;70;000.297;MIDI 01
202.015;000.047;67;000.430;MIDI 01
202.133;000.048;76;000.461;MIDI 01
202.253;000.030;70;000.398;MIDI 01
202.251;000.050;68;000.516;MIDI 01
202.381;000.044;77;000.375;MIDI 01
202.491;000.043;68;000.438;MIDI 01
202.502;000.033;70;000.359;MIDI 01
202.613;000.048;77;000.359;MIDI 01
202.736;000.030;71;000.406;MIDI 01
202.731;000.038;68;000.336;MIDI 01
202.834;000.065;77;000.398;MIDI 01
202.953;000.048;68;000.289;MIDI 01
202.982;000.032;71;000.336;MIDI 01
203.067;000.053;76;000.430;MIDI 01
203.189;000.046;68;000.367;MIDI 01
203.207;000.035;71;000.344;MIDI 01
203.305;000.049;77;000.414;MIDI 01
203.433;000.037;68;000.320;MIDI 01
203.452;000.032;71;000.344;MIDI 01
203.540;000.053;76;000.422;MIDI 01
203.655;000.053;68;000.367;MIDI 01
203.679;000.033;71;000.336;MIDI 01
203.781;000.046;77;000.422;MIDI 01
203.912;000.030;71;000.367;MIDI 01
203.910;000.035;68;000.367;MIDI 01
204.009;000.073;76;000.438;MIDI 01
204.126;000.046;71;000.406;MIDI 01
204.124;000.058;68;000.414;MIDI 01
204.255;000.051;77;000.477;MIDI 01
204.363;000.030;71;000.414;MIDI 01
204.360;000.043;68;000.469;MIDI 01
204.478;000.052;77;000.477;MIDI 01
204.596;000.040;72;000.562;MIDI 01
204.601;000.070;68;000.445;MIDI 01
204.719;000.070;78;000.523;MIDI 01
204.831;000.027;72;000.422;MIDI 01
204.849;000.072;68;000.398;MIDI 01
204.942;000.099;77;000.469;MIDI 01
205.065;000.027;72;000.469;MIDI 01
205.068;000.078;68;000.555;MIDI 01
205.175;000.098;78;000.531;MIDI 01
205.302;000.024;72;000.484;MIDI 01
205.300;000.053;68;000.547;MIDI 01
205.410;000.082;77;000.562;MIDI 01
205.516;000.040;72;000.562;MIDI 01
205.527;000.057;68;000.570;MIDI 01
205.643;000.095;78;000.609;MIDI 01
205.774;000.029;72;000.562;MIDI 01
205.756;000.055;68;000.547;MIDI 01
205.911;000.034;76;000.352;MIDI 01
205.878;000.070;77;000.469;MIDI 01
206.003;000.039;72;000.523;MIDI 01
205.988;000.070;68;000.594;MIDI 01
206.091;000.095;78;000.625;MIDI 01
206.222;000.099;68;000.562;MIDI 01
206.335;000.077;78;000.570;MIDI 01
206.245;000.203;72;000.656;MIDI 01
206.474;000.041;73;000.484;MIDI 01
206.495;000.051;68;000.406;MIDI 01
206.607;000.065;78;000.359;MIDI 01
206.728;000.031;61;000.398;MIDI 01
206.751;000.036;68;000.359;MIDI 01
206.873;000.059;77;000.430;MIDI 01
206.983;000.057;68;000.375;MIDI 01
207.085;000.065;78;000.461;MIDI 01
207.208;000.060;68;000.461;MIDI 01
207.320;000.060;78;000.461;MIDI 01
207.172;000.219;72;000.586;MIDI 01
207.429;000.020;73;000.516;MIDI 01
207.453;000.044;68;000.445;MIDI 01
207.567;000.060;78;000.414;MIDI 01
207.691;000.036;61;000.352;MIDI 01
207.681;000.048;68;000.414;MIDI 01
207.805;000.082;77;000.430;MIDI 01
207.933;000.042;68;000.438;MIDI 01
208.020;000.073;78;000.492;MIDI 01
208.150;000.050;68;000.445;MIDI 01
208.272;000.068;78;000.438;MIDI 01
208.147;000.219;72;000.633;MIDI 01
208.410;000.024;73;000.461;MIDI 01
208.412;000.046;68;000.461;MIDI 01
208.530;000.067;78;000.391;MIDI 01
208.666;000.029;61;000.453;MIDI 01
208.660;000.040;68;000.375;MIDI 01
208.787;000.103;77;000.477;MIDI 01
208.903;000.023;71;000.508;MIDI 01
208.915;000.050;68;000.477;MIDI 01
209.037;000.061;77;000.469;MIDI 01
209.155;000.026;59;000.461;MIDI 01
209.153;000.044;68;000.516;MIDI 01
209.298;000.071;77;000.352;MIDI 01
209.377;000.052;72;000.570;MIDI 01
209.373;000.058;67;000.586;MIDI 01
209.491;000.129;77;000.586;MIDI 01
209.596;000.032;60;000.430;MIDI 01
209.599;000.053;67;000.547;MIDI 01
209.706;000.070;76;000.555;MIDI 01
209.815;000.051;69;000.625;MIDI 01
209.829;000.072;66;000.625;MIDI 01
209.938;000.084;75;000.570;MIDI 01
210.044;000.026;57;000.492;MIDI 01
210.055;000.056;66;000.562;MIDI 01
210.178;000.079;75;000.555;MIDI 01
210.279;000.042;70;000.672;MIDI 01
210.293;000.058;65;000.555;MIDI 01
210.393;000.093;75;000.648;MIDI 01
210.528;000.027;58;000.477;MIDI 01
210.499;000.096;65;000.562;MIDI 01
210.611;000.020;75;000.523;MIDI 01
210.644;000.079;74;000.570;MIDI 01
210.728;000.043;67;000.617;MIDI 01
210.723;000.086;64;000.617;MIDI 01
210.852;000.077;70;000.547;MIDI 01
210.845;000.093;73;000.594;MIDI 01
210.979;000.054;64;000.547;MIDI 01
211.082;000.051;70;000.492;MIDI 01
211.091;000.054;73;000.539;MIDI 01
211.171;000.077;64;000.672;MIDI 01
211.202;000.099;67;000.602;MIDI 01
211.301;000.056;70;000.539;MIDI 01
211.286;000.095;73;000.570;MIDI 01
211.422;000.031;52;000.547;MIDI 01
211.424;000.086;67;000.656;MIDI 01
211.506;000.130;70;000.375;MIDI 01
211.539;000.106;72;000.602;MIDI 01
211.645;000.069;65;000.633;MIDI 01
211.643;000.120;68;000.586;MIDI 01
211.767;000.122;72;000.625;MIDI 01
211.911;000.034;53;000.531;MIDI 01
211.886;000.134;68;000.617;MIDI 01
211.974;000.090;71;000.531;MIDI 01
212.111;000.073;62;000.664;MIDI 01
212.097;000.121;65;000.648;MIDI 01
212.206;000.111;71;000.617;MIDI 01
212.326;000.042;50;000.547;MIDI 01
212.336;000.118;65;000.594;MIDI 01
212.218;000.257;68;000.523;MIDI 01
212.454;000.113;70;000.562;MIDI 01
212.559;000.069;63;000.672;MIDI 01
212.572;000.119;67;000.633;MIDI 01
212.689;000.109;70;000.633;MIDI 01
212.793;000.034;51;000.508;MIDI 01
212.804;000.061;63;000.477;MIDI 01
212.824;000.044;67;000.516;MIDI 01
212.921;000.108;70;000.609;MIDI 01
213.019;000.042;60;000.625;MIDI 01
212.994;000.069;56;000.664;MIDI 01
213.023;000.114;65;000.555;MIDI 01
213.130;000.120;70;000.656;MIDI 01
213.239;000.034;44;000.461;MIDI 01
213.273;000.066;60;000.422;MIDI 01
213.257;000.100;65;000.578;MIDI 01
213.345;000.040;68;000.562;MIDI 01
213.481;000.040;56;000.633;MIDI 01
213.463;000.068;34;000.656;MIDI 01
213.467;000.130;62;000.680;MIDI 01
213.596;000.120;65;000.578;MIDI 01
213.716;000.027;46;000.492;MIDI 01
213.699;000.081;56;000.516;MIDI 01
213.690;000.124;62;000.594;MIDI 01
213.828;000.112;65;000.594;MIDI 01
213.921;000.031;55;000.586;MIDI 01
213.912;000.061;63;000.656;MIDI 01
213.961;000.048;39;000.336;MIDI 01
214.105;000.054;51;000.547;MIDI 01
214.215;000.082;55;000.445;MIDI 01
214.342;000.070;51;000.492;MIDI 01
214.227;000.265;63;000.516;MIDI 01
214.447;000.109;55;000.562;MIDI 01
214.577;000.077;51;000.547;MIDI 01
214.474;000.232;67;000.531;MIDI 01
214.692;000.114;55;000.594;MIDI 01
214.805;000.072;51;000.609;MIDI 01
214.691;000.256;70;000.633;MIDI 01
214.926;000.113;55;000.570;MIDI 01
215.050;000.081;51;000.523;MIDI 01
214.939;000.245;75;000.648;MIDI 01
215.183;000.088;55;000.492;MIDI 01
215.311;000.078;51;000.414;MIDI 01
215.195;000.223;70;000.570;MIDI 01
215.435;000.083;55;000.492;MIDI 01
215.574;000.043;51;000.391;MIDI 01
215.423;000.230;67;000.484;MIDI 01
215.675;000.058;55;000.484;MIDI 01
215.654;000.093;63;000.461;MIDI 01
215.747;000.042;51;000.523;MIDI 01
215.884;000.035;39;000.664;MIDI 01
216.059;000.076;51;000.586;MIDI 01
216.185;000.044;58;000.430;MIDI 01
216.180;000.088;55;000.422;MIDI 01
216.285;000.084;51;000.562;MIDI 01
216.397;000.054;58;000.477;MIDI 01
216.407;000.045;55;000.523;MIDI 01
216.176;000.283;67;000.539;MIDI 01
216.515;000.097;51;000.609;MIDI 01
216.626;000.050;58;000.531;MIDI 01
216.428;000.250;70;000.578;MIDI 01
216.628;000.061;55;000.445;MIDI 01
216.752;000.095;51;000.547;MIDI 01
216.653;000.254;75;000.648;MIDI 01
216.873;000.054;58;000.555;MIDI 01
216.871;000.074;55;000.500;MIDI 01
216.994;000.101;51;000.578;MIDI 01
216.875;000.260;79;000.672;MIDI 01
217.128;000.047;58;000.477;MIDI 01
217.129;000.068;55;000.430;MIDI 01
217.247;000.096;51;000.531;MIDI 01
217.131;000.261;75;000.547;MIDI 01
217.381;000.044;58;000.398;MIDI 01
217.385;000.081;55;000.375;MIDI 01
217.387;000.193;70;000.523;MIDI 01
217.495;000.089;51;000.539;MIDI 01
217.565;000.035;67;000.539;MIDI 01
217.618;000.061;58;000.477;MIDI 01
217.646;000.045;55;000.352;MIDI 01
217.713;000.030;51;000.500;MIDI 01
217.835;000.076;39;000.664;MIDI 01
217.921;000.065;38;000.039;MIDI 01
217.954;000.040;51;000.422;MIDI 01
218.046;000.029;70;000.641;MIDI 01
218.044;000.033;58;000.547;MIDI 01
218.072;000.085;55;000.477;MIDI 01
218.181;000.097;51;000.461;MIDI 01
218.283;000.023;63;000.547;MIDI 01
218.279;000.030;75;000.641;MIDI 01
218.287;000.058;58;000.477;MIDI 01
218.285;000.067;55;000.516;MIDI 01
218.408;000.103;51;000.547;MIDI 01
218.504;000.020;67;000.594;MIDI 01
218.500;000.030;79;000.688;MIDI 01
218.517;000.050;58;000.578;MIDI 01
218.524;000.067;55;000.539;MIDI 01
218.636;000.119;51;000.547;MIDI 01
218.759;000.047;58;000.539;MIDI 01
218.753;000.057;70;000.695;MIDI 01
218.746;000.078;82;000.695;MIDI 01
218.764;000.093;55;000.539;MIDI 01
218.866;000.115;51;000.578;MIDI 01
218.988;000.049;58;000.461;MIDI 01
219.023;000.018;79;000.562;MIDI 01
219.018;000.029;67;000.602;MIDI 01
219.002;000.075;55;000.484;MIDI 01
219.105;000.096;51;000.492;MIDI 01
219.209;000.058;58;000.508;MIDI 01
219.243;000.028;75;000.578;MIDI 01
219.241;000.035;63;000.562;MIDI 01
219.235;000.061;55;000.477;MIDI 01
219.363;000.081;51;000.492;MIDI 01
219.484;000.032;70;000.477;MIDI 01
219.491;000.034;58;000.375;MIDI 01
219.473;000.059;55;000.484;MIDI 01
219.599;000.091;51;000.508;MIDI 01
219.702;000.031;72;000.594;MIDI 01
219.715;000.029;60;000.438;MIDI 01
219.740;000.050;56;000.453;MIDI 01
219.843;000.073;51;000.453;MIDI 01
219.969;000.022;74;000.508;MIDI 01
219.968;000.030;62;000.414;MIDI 01
219.966;000.080;53;000.289;MIDI 01
220.070;000.073;51;000.484;MIDI 01
220.190;000.021;75;000.508;MIDI 01
220.196;000.027;63;000.461;MIDI 01
220.183;000.056;55;000.414;MIDI 01
220.311;000.074;51;000.453;MIDI 01
220.399;000.055;55;000.453;MIDI 01
220.426;000.030;58;000.438;MIDI 01
220.421;000.038;70;000.539;MIDI 01
220.535;000.105;51;000.508;MIDI 01
220.637;000.029;72;000.570;MIDI 01
220.645;000.024;60;000.484;MIDI 01
220.648;000.062;56;000.461;MIDI 01
220.782;000.067;51;000.516;MIDI 01
220.884;000.031;62;000.438;MIDI 01
220.894;000.028;74;000.422;MIDI 01
220.877;000.092;53;000.273;MIDI 01
220.994;000.109;51;000.492;MIDI 01
221.099;000.089;55;000.570;MIDI 01
221.090;000.165;63;000.594;MIDI 01
221.092;000.183;75;000.594;MIDI 01
221.246;000.074;51;000.461;MIDI 01
221.346;000.094;55;000.539;MIDI 01
221.463;000.030;51;000.555;MIDI 01
221.577;000.080;39;000.609;MIDI 01
221.641;000.053;38;000.195;MIDI 01
221.686;000.035;51;000.492;MIDI 01
221.823;000.029;58;000.570;MIDI 01
221.828;000.036;70;000.578;MIDI 01
221.806;000.069;55;000.562;MIDI 01
221.931;000.094;51;000.469;MIDI 01
222.058;000.023;63;000.555;MIDI 01
222.056;000.034;75;000.609;MIDI 01
222.060;000.042;55;000.367;MIDI 01
222.043;000.073;58;000.445;MIDI 01
222.165;000.080;51;000.547;MIDI 01
222.285;000.021;67;000.586;MIDI 01
222.277;000.037;79;000.672;MIDI 01
222.283;000.053;55;000.500;MIDI 01
222.287;000.052;58;000.508;MIDI 01
222.396;000.096;51;000.547;MIDI 01
222.529;000.050;58;000.531;MIDI 01
222.527;000.073;70;000.711;MIDI 01
222.535;000.075;55;000.461;MIDI 01
222.525;000.094;82;000.719;MIDI 01
222.633;000.103;51;000.578;MIDI 01
222.798;000.018;79;000.555;MIDI 01
222.796;000.024;67;000.555;MIDI 01
222.770;000.052;58;000.461;MIDI 01
222.775;000.093;55;000.414;MIDI 01
222.883;000.096;51;000.516;MIDI 01
223.015;000.020;75;000.539;MIDI 01
222.989;000.050;58;000.484;MIDI 01
223.017;000.024;63;000.547;MIDI 01
223.030;000.052;55;000.398;MIDI 01
223.141;000.088;51;000.516;MIDI 01
223.244;000.031;58;000.477;MIDI 01
223.246;000.041;70;000.523;MIDI 01
223.242;000.072;55;000.477;MIDI 01
223.385;000.093;51;000.523;MIDI 01
223.478;000.024;60;000.492;MIDI 01
223.476;000.037;72;000.555;MIDI 01
223.511;000.048;56;000.398;MIDI 01
223.613;000.090;51;000.469;MIDI 01
223.730;000.036;74;000.492;MIDI 01
223.741;000.036;62;000.352;MIDI 01
223.739;000.073;53;000.328;MIDI 01
223.849;000.080;51;000.492;MIDI 01
223.953;000.027;63;000.492;MIDI 01
223.949;000.034;75;000.547;MIDI 01
223.961;000.062;55;000.453;MIDI 01
224.082;000.055;51;000.430;MIDI 01
224.195;000.032;58;000.508;MIDI 01
224.171;000.060;55;000.500;MIDI 01
224.201;000.049;70;000.492;MIDI 01
224.294;000.104;51;000.469;MIDI 01
224.433;000.036;60;000.500;MIDI 01
224.431;000.041;72;000.562;MIDI 01
224.426;000.054;56;000.438;MIDI 01
224.529;000.111;51;000.492;MIDI 01
224.669;000.028;62;000.469;MIDI 01
224.671;000.031;74;000.570;MIDI 01
224.654;000.088;53;000.430;MIDI 01
224.778;000.080;51;000.500;MIDI 01
224.906;000.024;75;000.477;MIDI 01
224.911;000.032;63;000.422;MIDI 01
224.919;000.056;55;000.406;MIDI 01
225.021;000.085;51;000.430;MIDI 01
225.161;000.034;58;000.375;MIDI 01
225.170;000.040;70;000.359;MIDI 01
225.150;000.061;55;000.414;MIDI 01
225.273;000.087;51;000.453;MIDI 01
225.379;000.026;72;000.492;MIDI 01
225.383;000.028;60;000.430;MIDI 01
225.401;000.049;56;000.453;MIDI 01
225.508;000.109;51;000.516;MIDI 01
225.613;000.027;62;000.477;MIDI 01
225.614;000.036;74;000.539;MIDI 01
225.634;000.095;53;000.453;MIDI 01
225.759;000.079;51;000.500;MIDI 01
225.849;000.033;63;000.570;MIDI 01
225.855;000.065;75;000.555;MIDI 01
225.861;000.104;55;000.477;MIDI 01
225.988;000.073;51;000.500;MIDI 01
226.099;000.020;79;000.539;MIDI 01
226.097;000.031;67;000.516;MIDI 01
226.095;000.049;58;000.414;MIDI 01
226.209;000.070;51;000.453;MIDI 01
226.341;000.030;63;000.422;MIDI 01
226.354;000.041;75;000.383;MIDI 01
226.327;000.102;55;000.383;MIDI 01
226.443;000.072;51;000.430;MIDI 01
226.582;000.025;67;000.492;MIDI 01
226.578;000.032;79;000.547;MIDI 01
226.554;000.061;58;000.445;MIDI 01
226.670;000.128;51;000.461;MIDI 01
226.805;000.037;63;000.539;MIDI 01
226.814;000.036;75;000.500;MIDI 01
226.816;000.066;55;000.422;MIDI 01
226.955;000.062;51;000.414;MIDI 01
227.039;000.065;55;000.469;MIDI 01
227.072;000.033;58;000.422;MIDI 01
227.078;000.046;70;000.445;MIDI 01
227.170;000.111;51;000.461;MIDI 01
227.291;000.023;60;000.523;MIDI 01
227.289;000.034;72;000.594;MIDI 01
227.302;000.055;56;000.406;MIDI 01
227.420;000.116;51;000.516;MIDI 01
227.520;000.036;62;000.555;MIDI 01
227.517;000.042;74;000.680;MIDI 01
227.546;000.108;53;000.469;MIDI 01
227.688;000.067;51;000.484;MIDI 01
227.777;000.030;63;000.594;MIDI 01
227.775;000.080;75;000.633;MIDI 01
227.782;000.113;55;000.469;MIDI 01
227.903;000.095;51;000.492;MIDI 01
228.024;000.024;79;000.469;MIDI 01
228.036;000.031;67;000.375;MIDI 01
228.020;000.058;58;000.430;MIDI 01
228.154;000.057;51;000.398;MIDI 01
228.276;000.043;63;000.273;MIDI 01
228.292;000.040;75;000.258;MIDI 01
228.254;000.106;55;000.422;MIDI 01
228.371;000.069;51;000.453;MIDI 01
228.507;000.022;79;000.477;MIDI 01
228.509;000.025;67;000.484;MIDI 01
228.482;000.058;58;000.453;MIDI 01
228.591;000.100;51;000.461;MIDI 01
228.742;000.035;63;000.500;MIDI 01
228.758;000.060;75;000.445;MIDI 01
228.719;000.140;55;000.438;MIDI 01
228.864;000.068;51;000.430;MIDI 01
228.981;000.030;79;000.625;MIDI 01
228.983;000.031;67;000.578;MIDI 01
228.956;000.075;58;000.508;MIDI 01
229.079;000.114;51;000.477;MIDI 01
229.207;000.031;63;000.594;MIDI 01
229.213;000.076;75;000.633;MIDI 01
229.209;000.100;55;000.484;MIDI 01
229.322;000.087;51;000.562;MIDI 01
229.454;000.029;82;000.672;MIDI 01
229.456;000.029;70;000.648;MIDI 01
229.431;000.072;61;000.602;MIDI 01
229.575;000.051;70;000.172;MIDI 01
229.564;000.106;51;000.555;MIDI 01
229.686;000.024;67;000.555;MIDI 01
229.692;000.032;79;000.547;MIDI 01
229.684;000.070;58;000.461;MIDI 01
229.810;000.092;51;000.523;MIDI 01
229.916;000.044;61;000.477;MIDI 01
229.947;000.023;70;000.516;MIDI 01
229.939;000.033;82;000.602;MIDI 01
230.048;000.086;51;000.547;MIDI 01
230.173;000.029;67;000.688;MIDI 01
230.142;000.075;58;000.586;MIDI 01
230.175;000.053;79;000.711;MIDI 01
230.260;000.118;51;000.594;MIDI 01
230.371;000.040;61;000.500;MIDI 01
230.431;000.021;70;000.547;MIDI 01
230.421;000.035;82;000.602;MIDI 01
230.530;000.089;51;000.484;MIDI 01
230.654;000.023;67;000.531;MIDI 01
230.656;000.031;79;000.594;MIDI 01
230.616;000.074;58;000.484;MIDI 01
230.778;000.075;51;000.492;MIDI 01
230.892;000.020;70;000.570;MIDI 01
230.884;000.031;82;000.633;MIDI 01
230.838;000.082;61;000.523;MIDI 01
230.988;000.099;51;000.516;MIDI 01
231.124;000.026;67;000.703;MIDI 01
231.122;000.053;79;000.750;MIDI 01
231.091;000.089;58;000.609;MIDI 01
231.242;000.098;52;000.516;MIDI 01
231.358;000.053;61;000.523;MIDI 01
231.401;000.019;70;000.555;MIDI 01
231.391;000.034;82;000.617;MIDI 01
231.497;000.084;52;000.523;MIDI 01
231.619;000.022;67;000.531;MIDI 01
231.623;000.031;79;000.586;MIDI 01
231.597;000.072;58;000.539;MIDI 01
231.749;000.058;52;000.430;MIDI 01
231.859;000.022;70;000.562;MIDI 01
231.834;000.048;61;000.531;MIDI 01
231.857;000.028;82;000.609;MIDI 01
231.956;000.108;52;000.430;MIDI 01
232.073;000.027;65;000.688;MIDI 01
232.077;000.055;77;000.742;MIDI 01
232.082;000.081;58;000.578;MIDI 01
232.208;000.117;53;000.539;MIDI 01
232.335;000.032;82;000.570;MIDI 01
232.321;000.056;61;000.562;MIDI 01
232.359;000.025;70;000.430;MIDI 01
232.460;000.087;53;000.383;MIDI 01
232.541;000.031;65;000.602;MIDI 01
232.544;000.035;77;000.633;MIDI 01
232.558;000.068;58;000.523;MIDI 01
232.685;000.103;53;000.469;MIDI 01
232.767;000.030;82;000.656;MIDI 01
232.770;000.030;70;000.641;MIDI 01
232.796;000.069;61;000.586;MIDI 01
232.898;000.080;53;000.406;MIDI 01
232.999;000.028;64;000.680;MIDI 01
232.997;000.060;76;000.734;MIDI 01
233.019;000.129;58;000.586;MIDI 01
233.166;000.075;54;000.492;MIDI 01
233.267;000.032;82;000.508;MIDI 01
233.262;000.058;61;000.547;MIDI 01
233.290;000.033;70;000.375;MIDI 01
233.391;000.058;54;000.508;MIDI 01
233.484;000.025;64;000.469;MIDI 01
233.482;000.032;76;000.586;MIDI 01
233.488;000.069;58;000.492;MIDI 01
233.602;000.082;54;000.508;MIDI 01
233.710;000.026;82;000.656;MIDI 01
233.711;000.034;70;000.625;MIDI 01
233.714;000.069;61;000.578;MIDI 01
233.832;000.071;54;000.477;MIDI 01
233.941;000.025;64;000.656;MIDI 01
233.934;000.052;76;000.766;MIDI 01
233.970;000.032;65;000.406;MIDI 01
233.939;000.125;58;000.547;MIDI 01
234.061;000.045;64;000.156;MIDI 01
234.077;000.115;55;000.539;MIDI 01
234.189;000.025;70;000.688;MIDI 01
234.183;000.032;82;000.719;MIDI 01
234.203;000.062;61;000.562;MIDI 01
234.319;000.036;54;000.289;MIDI 01
234.409;000.026;64;000.680;MIDI 01
234.375;000.065;55;000.109;MIDI 01
234.411;000.048;76;000.758;MIDI 01
234.418;000.202;58;000.555;MIDI 01
234.661;000.020;70;000.633;MIDI 01
234.656;000.027;82;000.695;MIDI 01
234.679;000.074;61;000.594;MIDI 01
234.564;000.209;55;000.453;MIDI 01
234.777;000.057;55;000.062;MIDI 01
234.930;000.033;65;000.734;MIDI 01
234.932;000.051;77;000.742;MIDI 01
234.929;000.092;62;000.641;MIDI 01
235.088;000.072;58;000.516;MIDI 01
235.204;000.023;70;000.531;MIDI 01
235.196;000.032;82;000.586;MIDI 01
235.171;000.086;62;000.539;MIDI 01
235.308;000.056;58;000.508;MIDI 01
235.418;000.022;65;000.539;MIDI 01
235.416;000.030;77;000.602;MIDI 01
235.386;000.097;62;000.555;MIDI 01
234.939;000.624;56;000.570;MIDI 01
235.496;000.107;58;000.531;MIDI 01
235.630;000.027;67;000.625;MIDI 01
235.629;000.041;79;000.680;MIDI 01
235.619;000.080;64;000.570;MIDI 01
235.758;000.074;58;000.508;MIDI 01
235.616;000.221;55;000.547;MIDI 01
235.856;000.064;68;000.711;MIDI 01
235.878;000.066;65;000.578;MIDI 01
235.858;000.117;80;000.734;MIDI 01
236.034;000.071;58;000.461;MIDI 01
236.122;000.033;82;000.586;MIDI 01
236.128;000.035;70;000.523;MIDI 01
236.109;000.062;65;000.477;MIDI 01
236.282;000.044;58;000.312;MIDI 01
236.327;000.031;68;000.633;MIDI 01
236.332;000.033;80;000.617;MIDI 01
236.333;000.044;65;000.492;MIDI 01
235.853;000.651;53;000.492;MIDI 01
236.541;000.026;67;000.719;MIDI 01
236.497;000.093;58;000.477;MIDI 01
236.545;000.048;79;000.727;MIDI 01
236.539;000.077;63;000.602;MIDI 01
236.556;000.178;55;000.484;MIDI 01
236.771;000.060;65;000.734;MIDI 01
236.773;000.103;62;000.648;MIDI 01
236.777;000.129;77;000.695;MIDI 01
236.934;000.080;58;000.562;MIDI 01
237.047;000.024;70;000.500;MIDI 01
237.039;000.034;82;000.547;MIDI 01
237.029;000.071;62;000.523;MIDI 01
237.168;000.054;58;000.445;MIDI 01
237.255;000.032;77;000.633;MIDI 01
237.254;000.035;65;000.578;MIDI 01
237.226;000.091;62;000.539;MIDI 01
236.781;000.628;56;000.562;MIDI 01
237.351;000.101;58;000.516;MIDI 01
237.469;000.028;67;000.711;MIDI 01
237.473;000.051;79;000.742;MIDI 01
237.471;000.084;64;000.594;MIDI 01
237.464;000.236;55;000.586;MIDI 01
237.600;000.103;58;000.539;MIDI 01
237.704;000.057;68;000.750;MIDI 01
237.722;000.079;65;000.555;MIDI 01
237.709;000.120;80;000.719;MIDI 01
237.855;000.104;58;000.516;MIDI 01
237.945;000.041;82;000.625;MIDI 01
237.951;000.035;70;000.531;MIDI 01
237.965;000.084;65;000.516;MIDI 01
238.153;000.027;80;000.648;MIDI 01
238.151;000.031;68;000.648;MIDI 01
237.707;000.498;53;000.469;MIDI 01
238.200;000.039;65;000.305;MIDI 01
238.107;000.178;58;000.484;MIDI 01
238.372;000.025;67;000.672;MIDI 01
238.377;000.029;79;000.711;MIDI 01
238.370;000.077;63;000.594;MIDI 01
238.358;000.200;55;000.500;MIDI 01
238.432;000.202;58;000.078;MIDI 01
238.646;000.061;65;000.734;MIDI 01
238.622;000.094;62;000.609;MIDI 01
238.644;000.151;77;000.719;MIDI 01
238.795;000.091;58;000.438;MIDI 01
238.909;000.078;62;000.461;MIDI 01
238.955;000.039;70;000.625;MIDI 01
239.068;000.085;82;000.609;MIDI 01
239.144;000.041;62;000.398;MIDI 01
239.165;000.054;70;000.578;MIDI 01
238.632;000.607;56;000.508;MIDI 01
239.045;000.255;58;000.438;MIDI 01
239.286;000.103;82;000.633;MIDI 01
239.329;000.083;63;000.602;MIDI 01
239.383;000.060;72;000.602;MIDI 01
239.335;000.154;55;000.523;MIDI 01
239.465;000.107;58;000.500;MIDI 01
239.482;000.108;82;000.609;MIDI 01
239.567;000.049;65;000.578;MIDI 01
239.595;000.040;70;000.664;MIDI 01
239.623;000.029;73;000.383;MIDI 01
239.570;000.084;53;000.516;MIDI 01
239.616;000.070;74;000.477;MIDI 01
239.690;000.092;58;000.430;MIDI 01
239.706;000.123;82;000.656;MIDI 01
239.779;000.066;63;000.562;MIDI 01
239.795;000.066;51;000.531;MIDI 01
239.815;000.082;72;000.656;MIDI 01
239.818;000.117;75;000.602;MIDI 01
239.893;000.105;58;000.484;MIDI 01
239.926;000.108;82;000.641;MIDI 01
240.004;000.037;62;000.562;MIDI 01
240.047;000.026;76;000.461;MIDI 01
240.042;000.039;74;000.477;MIDI 01
240.015;000.125;50;000.547;MIDI 01
240.030;000.126;77;000.508;MIDI 01
240.205;000.035;60;000.555;MIDI 01
240.144;000.111;82;000.680;MIDI 01
240.161;000.121;58;000.508;MIDI 01
240.248;000.101;75;000.648;MIDI 01
240.319;000.051;78;000.133;MIDI 01
240.272;000.103;79;000.484;MIDI 01
240.379;000.117;82;000.664;MIDI 01
240.429;000.069;46;000.523;MIDI 01
240.526;000.026;58;000.484;MIDI 01
240.496;000.064;80;000.508;MIDI 01
240.504;000.100;77;000.578;MIDI 01
240.621;000.077;82;000.570;MIDI 01
240.661;000.082;45;000.656;MIDI 01
240.709;000.042;74;000.570;MIDI 01
240.705;000.055;70;000.664;MIDI 01
240.796;000.029;57;000.578;MIDI 01
240.840;000.096;82;000.641;MIDI 01
240.942;000.040;70;000.602;MIDI 01
240.912;000.073;44;000.594;MIDI 01
240.932;000.095;74;000.648;MIDI 01
241.015;000.036;56;000.539;MIDI 01
241.051;000.056;82;000.695;MIDI 01
241.166;000.042;41;000.516;MIDI 01
241.206;000.002;74;000.336;MIDI 01
241.168;000.044;72;000.633;MIDI 01
241.161;000.052;75;000.703;MIDI 01
241.159;000.079;43;000.555;MIDI 01
241.273;000.068;55;000.656;MIDI 01
241.281;000.123;84;000.664;MIDI 01
241.392;000.080;74;000.547;MIDI 01
241.417;000.079;41;000.570;MIDI 01
241.383;000.134;77;000.688;MIDI 01
241.510;000.036;53;000.594;MIDI 01
241.531;000.047;86;000.664;MIDI 01
241.649;000.070;75;000.664;MIDI 01
241.661;000.105;39;000.664;MIDI 01
241.651;000.123;79;000.688;MIDI 01
241.772;000.034;51;000.609;MIDI 01
241.784;000.070;87;000.703;MIDI 01
241.928;000.041;77;000.602;MIDI 01
241.916;000.136;80;000.695;MIDI 01
241.926;000.164;38;000.648;MIDI 01
242.082;000.061;89;000.727;MIDI 01
242.094;000.061;50;000.648;MIDI 01
242.264;000.082;77;000.609;MIDI 01
242.259;000.135;80;000.711;MIDI 01
242.266;000.199;36;000.656;MIDI 01
242.434;000.043;48;000.656;MIDI 01
242.436;000.066;89;000.734;MIDI 01
242.789;003.654;46;000.648;MIDI 01
242.795;003.660;77;000.742;MIDI 01
242.791;003.744;89;000.805;MIDI 01
242.799;003.926;34;000.609;MIDI 01
242.793;003.963;80;000.695;MIDI 01
249.117;000.490;39;000.219;MIDI 01
249.120;000.541;51;000.219;MIDI 01
250.159;000.439;39;000.242;MIDI 01
250.152;000.533;51;000.273;MIDI 01
251.108;000.446;39;000.227;MIDI 01
251.116;000.461;51;000.258;MIDI 01
249.064;003.159;67;000.492;MIDI 01
249.099;003.148;58;000.336;MIDI 01
252.086;000.209;51;000.211;MIDI 01
249.101;003.260;63;000.320;MIDI 01
252.040;000.333;39;000.172;MIDI 01
253.161;000.558;67;000.430;MIDI 01
253.202;000.733;39;000.188;MIDI 01
253.214;000.728;51;000.195;MIDI 01
253.642;000.317;65;000.484;MIDI 01
254.113;000.435;63;000.359;MIDI 01
254.133;000.746;39;000.203;MIDI 01
254.129;000.751;51;000.234;MIDI 01
253.192;001.714;56;000.258;MIDI 01
254.644;000.267;67;000.359;MIDI 01
254.874;000.081;65;000.422;MIDI 01
253.173;001.788;62;000.312;MIDI 01
255.303;000.503;39;000.148;MIDI 01
255.308;000.572;51;000.211;MIDI 01
256.319;000.389;51;000.234;MIDI 01
256.337;000.400;39;000.156;MIDI 01
255.252;001.923;55;000.320;MIDI 01
255.278;002.062;58;000.266;MIDI 01
255.260;002.162;63;000.336;MIDI 01
257.254;000.398;51;000.227;MIDI 01
257.236;000.432;39;000.195;MIDI 01
258.141;000.290;51;000.273;MIDI 01
258.145;000.315;58;000.328;MIDI 01
258.147;000.326;55;000.297;MIDI 01
258.150;000.331;39;000.227;MIDI 01
258.121;000.870;63;000.438;MIDI 01
259.010;000.234;51;000.305;MIDI 01
259.000;000.253;39;000.352;MIDI 01
258.965;000.403;56;000.414;MIDI 01
258.959;000.416;62;000.461;MIDI 01
258.944;000.910;65;000.586;MIDI 01
259.850;000.250;58;000.438;MIDI 01
259.867;000.242;39;000.375;MIDI 01
259.889;000.238;51;000.375;MIDI 01
259.844;000.304;61;000.500;MIDI 01
259.823;000.999;67;000.586;MIDI 01
260.948;000.716;51;000.383;MIDI 01
260.952;000.741;39;000.375;MIDI 01
260.946;001.329;60;000.484;MIDI 01
262.075;000.249;39;000.281;MIDI 01
260.944;001.411;63;000.469;MIDI 01
260.927;001.450;68;000.594;MIDI 01
262.081;000.364;51;000.242;MIDI 01
263.279;000.473;68;000.336;MIDI 01
263.297;000.493;60;000.227;MIDI 01
263.293;000.559;63;000.281;MIDI 01
263.315;000.669;51;000.195;MIDI 01
263.776;000.420;67;000.414;MIDI 01
263.803;000.455;59;000.312;MIDI 01
264.247;000.423;68;000.453;MIDI 01
264.247;000.433;60;000.375;MIDI 01
264.247;000.501;63;000.336;MIDI 01
264.644;000.130;70;000.508;MIDI 01
264.269;000.521;51;000.273;MIDI 01
264.660;000.204;55;000.305;MIDI 01
265.082;000.399;56;000.359;MIDI 01
265.064;000.517;72;000.516;MIDI 01
265.067;000.539;63;000.383;MIDI 01
265.485;000.160;74;000.516;MIDI 01
265.091;000.606;51;000.172;MIDI 01
265.514;000.213;58;000.352;MIDI 01
265.979;000.201;62;000.344;MIDI 01
265.969;000.226;77;000.438;MIDI 01
266.219;000.152;60;000.336;MIDI 01
266.200;000.185;75;000.539;MIDI 01
266.427;000.231;74;000.516;MIDI 01
266.431;000.255;58;000.328;MIDI 01
265.992;000.817;51;000.195;MIDI 01
266.706;000.114;56;000.289;MIDI 01
266.663;000.159;72;000.477;MIDI 01
267.041;000.630;51;000.094;MIDI 01
267.999;000.521;51;000.281;MIDI 01
267.071;001.555;54;000.195;MIDI 01
268.476;000.229;72;000.344;MIDI 01
267.017;001.757;69;000.406;MIDI 01
268.712;000.068;70;000.383;MIDI 01
267.033;001.772;63;000.352;MIDI 01
269.094;000.288;63;000.297;MIDI 01
269.086;000.353;70;000.312;MIDI 01
269.105;000.336;55;000.203;MIDI 01
269.119;000.333;51;000.219;MIDI 01
270.358;000.535;58;000.180;MIDI 01
270.341;000.581;70;000.266;MIDI 01
270.344;000.659;63;000.227;MIDI 01
270.350;000.835;55;000.203;MIDI 01
271.427;000.262;62;000.422;MIDI 01
271.430;000.346;65;000.430;MIDI 01
271.423;000.461;70;000.484;MIDI 01
271.433;000.508;56;000.312;MIDI 01
271.425;000.616;58;000.320;MIDI 01
271.446;000.821;53;000.273;MIDI 01
272.368;000.228;63;000.477;MIDI 01
272.371;000.331;67;000.484;MIDI 01
272.378;000.374;58;000.375;MIDI 01
272.361;000.395;55;000.391;MIDI 01
272.364;000.407;70;000.562;MIDI 01
272.376;000.764;51;000.352;MIDI 01
273.477;000.719;50;000.398;MIDI 01
273.492;000.719;53;000.320;MIDI 01
273.481;000.732;58;000.406;MIDI 01
274.635;000.497;53;000.242;MIDI 01
274.613;000.535;58;000.211;MIDI 01
274.633;000.522;50;000.211;MIDI 01
273.461;002.414;68;000.555;MIDI 01
273.447;002.440;80;000.641;MIDI 01
275.619;000.482;53;000.234;MIDI 01
275.599;000.509;58;000.172;MIDI 01
275.589;000.524;50;000.172;MIDI 01
276.632;000.326;68;000.328;MIDI 01
276.606;000.435;80;000.414;MIDI 01
276.641;000.418;53;000.211;MIDI 01
276.654;000.415;50;000.133;MIDI 01
276.658;000.538;58;000.164;MIDI 01
277.613;000.364;68;000.305;MIDI 01
277.595;000.413;80;000.406;MIDI 01
277.603;000.559;55;000.188;MIDI 01
277.592;000.575;51;000.148;MIDI 01
277.625;000.544;58;000.188;MIDI 01
278.062;000.153;67;000.406;MIDI 01
278.053;000.348;79;000.469;MIDI 01
278.489;000.092;65;000.383;MIDI 01
278.584;000.142;65;000.070;MIDI 01
278.471;000.359;77;000.516;MIDI 01
278.497;000.454;55;000.250;MIDI 01
278.907;000.218;63;000.430;MIDI 01
278.885;000.270;75;000.508;MIDI 01
278.491;000.678;58;000.273;MIDI 01
278.486;000.705;51;000.242;MIDI 01
279.471;000.600;56;000.234;MIDI 01
279.473;000.600;53;000.242;MIDI 01
279.434;000.655;58;000.172;MIDI 01
279.439;000.752;63;000.320;MIDI 01
279.424;000.982;75;000.414;MIDI 01
280.480;000.458;58;000.172;MIDI 01
280.499;000.444;56;000.141;MIDI 01
280.473;000.477;53;000.227;MIDI 01
280.435;001.089;74;000.430;MIDI 01
280.453;001.077;62;000.305;MIDI 01
281.339;000.521;58;000.289;MIDI 01
281.335;000.527;53;000.266;MIDI 01
281.343;000.524;56;000.273;MIDI 01
282.180;000.331;62;000.336;MIDI 01
282.188;000.566;58;000.305;MIDI 01
282.196;000.798;53;000.266;MIDI 01
282.215;000.887;56;000.211;MIDI 01
282.163;000.957;74;000.469;MIDI 01
283.178;000.130;63;000.312;MIDI 01
283.151;000.201;75;000.398;MIDI 01
283.176;000.443;55;000.258;MIDI 01
283.170;000.471;58;000.234;MIDI 01
283.608;000.097;75;000.297;MIDI 01
283.754;000.075;77;000.352;MIDI 01
283.854;000.051;75;000.500;MIDI 01
283.945;000.029;74;000.406;MIDI 01
283.994;000.085;75;000.531;MIDI 01
284.093;000.246;65;000.398;MIDI 01
284.087;000.410;77;000.500;MIDI 01
284.550;000.050;67;000.414;MIDI 01
284.097;000.532;63;000.289;MIDI 01
284.519;000.364;79;000.539;MIDI 01
284.115;000.860;61;000.297;MIDI 01
284.990;000.114;68;000.289;MIDI 01
284.967;000.176;80;000.438;MIDI 01
284.954;000.492;63;000.273;MIDI 01
285.356;000.114;80;000.422;MIDI 01
285.494;000.094;82;000.445;MIDI 01
285.596;000.047;80;000.523;MIDI 01
285.674;000.086;79;000.516;MIDI 01
284.971;000.835;60;000.305;MIDI 01
285.766;000.099;80;000.523;MIDI 01
285.870;000.240;70;000.492;MIDI 01
285.872;000.459;82;000.508;MIDI 01
285.895;000.525;56;000.336;MIDI 01
285.885;000.612;68;000.352;MIDI 01
285.878;000.653;63;000.320;MIDI 01
286.347;000.214;72;000.500;MIDI 01
286.335;000.361;84;000.570;MIDI 01
286.902;000.432;72;000.461;MIDI 01
286.886;000.528;84;000.555;MIDI 01
286.908;000.693;58;000.352;MIDI 01
286.900;000.703;63;000.359;MIDI 01
286.896;000.709;67;000.414;MIDI 01
287.507;000.330;70;000.430;MIDI 01
287.469;000.421;82;000.516;MIDI 01
287.955;000.277;69;000.461;MIDI 01
287.942;000.484;81;000.539;MIDI 01
287.945;000.672;67;000.367;MIDI 01
287.929;000.724;58;000.336;MIDI 01
287.921;000.783;63;000.125;MIDI 01
288.443;000.676;70;000.445;MIDI 01
288.425;000.745;82;000.547;MIDI 01
288.946;000.771;62;000.422;MIDI 01
288.950;000.778;58;000.367;MIDI 01
288.943;000.791;68;000.484;MIDI 01
289.520;000.347;70;000.469;MIDI 01
289.500;000.475;82;000.539;MIDI 01
290.065;000.319;69;000.422;MIDI 01
290.050;000.640;81;000.477;MIDI 01
290.676;000.165;70;000.328;MIDI 01
290.673;000.202;82;000.422;MIDI 01
290.093;000.953;68;000.297;MIDI 01
290.091;001.423;62;000.266;MIDI 01
290.096;001.458;58;000.281;MIDI 01
291.542;000.636;70;000.328;MIDI 01
291.507;000.703;82;000.367;MIDI 01
291.536;000.774;67;000.266;MIDI 01
291.533;000.909;63;000.227;MIDI 01
292.171;000.321;75;000.367;MIDI 01
294.544;001.950;84;000.516;MIDI 01
296.532;000.200;82;000.375;MIDI 01
296.786;000.074;81;000.336;MIDI 01
296.946;000.057;82;000.336;MIDI 01
297.057;000.041;81;000.320;MIDI 01
297.143;000.042;82;000.430;MIDI 01
297.229;000.032;81;000.484;MIDI 01
297.314;000.024;82;000.414;MIDI 01
297.372;000.035;81;000.500;MIDI 01
297.434;000.026;82;000.523;MIDI 01
297.511;000.022;81;000.508;MIDI 01
297.557;000.043;82;000.539;MIDI 01
297.640;000.135;81;000.469;MIDI 01
297.807;000.050;82;000.422;MIDI 01
297.899;000.053;84;000.438;MIDI 01
298.011;000.049;82;000.406;MIDI 01
298.086;000.039;84;000.500;MIDI 01
298.179;000.042;82;000.461;MIDI 01
298.235;000.027;84;000.438;MIDI 01
298.315;000.038;82;000.484;MIDI 01
298.367;000.025;84;000.469;MIDI 01
298.451;000.025;82;000.414;MIDI 01
298.471;000.024;84;000.508;MIDI 01
298.559;000.031;82;000.477;MIDI 01
296.020;002.768;68;000.328;MIDI 01
298.659;000.229;81;000.453;MIDI 01
298.914;000.539;82;000.414;MIDI 01
296.007;003.479;62;000.281;MIDI 01
296.016;003.519;58;000.266;MIDI 01
299.459;000.408;75;000.328;MIDI 01
299.499;000.416;67;000.180;MIDI 01
299.510;000.472;63;000.133;MIDI 01
301.765;001.605;72;000.516;MIDI 01
302.998;001.108;50;000.312;MIDI 01
303.006;001.103;46;000.320;MIDI 01
302.986;001.181;56;000.398;MIDI 01
303.799;000.881;72;000.602;MIDI 01
304.429;001.017;56;000.562;MIDI 01
304.462;000.998;50;000.383;MIDI 01
304.443;001.024;46;000.445;MIDI 01
306.327;003.804;56;000.461;MIDI 01
306.335;003.920;50;000.312;MIDI 01
305.140;005.266;72;000.625;MIDI 01
310.325;000.526;71;000.328;MIDI 01
306.345;004.676;46;000.320;MIDI 01
310.817;000.379;72;000.383;MIDI 01
311.134;000.199;74;000.398;MIDI 01
311.363;000.179;72;000.445;MIDI 01
311.559;000.166;70;000.406;MIDI 01
311.729;000.146;68;000.391;MIDI 01
311.906;000.131;67;000.375;MIDI 01
312.051;000.142;70;000.406;MIDI 01
312.202;000.112;68;000.406;MIDI 01
312.315;000.101;67;000.492;MIDI 01
312.441;000.130;65;000.453;MIDI 01
312.577;000.151;64;000.477;MIDI 01
312.750;000.178;67;000.453;MIDI 01
312.929;000.174;65;000.445;MIDI 01
313.100;000.207;68;000.461;MIDI 01
313.276;000.136;67;000.461;MIDI 01
313.440;000.198;65;000.461;MIDI 01
313.647;000.231;63;000.391;MIDI 01
313.885;000.268;62;000.398;MIDI 01
314.164;000.195;65;000.398;MIDI 01
314.379;000.184;63;000.367;MIDI 01
314.572;000.186;62;000.430;MIDI 01
314.797;000.219;60;000.336;MIDI 01
315.055;000.327;58;000.242;MIDI 01
315.358;000.390;57;000.320;MIDI 01
315.710;000.287;60;000.289;MIDI 01
316.006;000.408;58;000.320;MIDI 01
316.364;000.427;56;000.289;MIDI 01
316.783;000.663;55;000.266;MIDI 01
317.421;001.275;58;000.281;MIDI 01
319.008;000.896;56;000.266;MIDI 01
320.999;001.419;53;000.219;MIDI 01
323.595;000.057;39;000.211;MIDI 01
323.326;000.532;51;000.195;MIDI 01
324.014;000.041;44;000.305;MIDI 01
323.809;000.375;48;000.266;MIDI 01
324.369;000.039;41;000.367;MIDI 01
324.200;000.403;53;000.281;MIDI 01
324.715;000.039;46;000.359;MIDI 01
324.541;000.368;50;000.344;MIDI 01
325.052;000.038;43;000.398;MIDI 01
324.882;000.344;55;000.406;MIDI 01
325.244;000.054;48;000.438;MIDI 01
325.401;000.143;46;000.391;MIDI 01
325.579;000.116;44;000.391;MIDI 01
325.226;000.492;51;000.477;MIDI 01
325.741;000.057;56;000.477;MIDI 01
325.762;000.041;53;000.281;MIDI 01
325.756;000.048;41;000.289;MIDI 01
325.910;000.058;53;000.516;MIDI 01
325.939;000.034;50;000.406;MIDI 01
325.936;000.044;46;000.406;MIDI 01
326.083;000.036;50;000.477;MIDI 01
326.099;000.031;53;000.461;MIDI 01
326.142;000.045;34;000.367;MIDI 01
326.322;000.086;63;000.430;MIDI 01
326.482;000.031;51;000.469;MIDI 01
326.307;000.333;67;000.539;MIDI 01
326.807;000.029;56;000.461;MIDI 01
326.645;000.321;60;000.461;MIDI 01
326.635;000.335;63;000.500;MIDI 01
326.964;000.065;65;000.492;MIDI 01
327.116;000.035;53;000.500;MIDI 01
326.966;000.285;68;000.586;MIDI 01
327.442;000.027;58;000.469;MIDI 01
327.281;000.224;62;000.562;MIDI 01
327.279;000.341;65;000.555;MIDI 01
327.608;000.086;67;000.562;MIDI 01
327.759;000.046;55;000.570;MIDI 01
327.600;000.353;70;000.625;MIDI 01
327.931;000.098;60;000.570;MIDI 01
327.941;000.224;64;000.633;MIDI 01
328.071;000.154;58;000.547;MIDI 01
327.934;000.381;67;000.641;MIDI 01
328.236;000.116;56;000.500;MIDI 01
328.370;000.035;53;000.508;MIDI 01
328.387;000.035;65;000.453;MIDI 01
328.375;000.066;68;000.562;MIDI 01
328.525;000.048;65;000.578;MIDI 01
328.544;000.038;62;000.531;MIDI 01
328.528;000.078;58;000.508;MIDI 01
328.664;000.035;62;000.570;MIDI 01
328.672;000.030;46;000.461;MIDI 01
328.679;000.025;65;000.555;MIDI 01
328.830;000.130;79;000.695;MIDI 01
328.834;000.131;67;000.656;MIDI 01
328.832;000.155;70;000.664;MIDI 01
328.975;000.046;55;000.578;MIDI 01
329.139;000.076;60;000.633;MIDI 01
329.132;000.204;64;000.711;MIDI 01
329.134;000.257;67;000.703;MIDI 01
329.129;000.270;76;000.766;MIDI 01
329.284;000.151;58;000.539;MIDI 01
329.445;000.110;56;000.508;MIDI 01
329.559;000.019;65;000.586;MIDI 01
329.554;000.026;77;000.672;MIDI 01
329.552;000.032;68;000.648;MIDI 01
329.571;000.032;53;000.539;MIDI 01
329.658;000.028;68;000.266;MIDI 01
329.703;000.036;65;000.555;MIDI 01
329.717;000.027;62;000.633;MIDI 01
329.719;000.031;74;000.602;MIDI 01
329.701;000.083;58;000.539;MIDI 01
329.852;000.016;65;000.617;MIDI 01
329.844;000.028;62;000.453;MIDI 01
329.845;000.036;74;000.570;MIDI 01
329.850;000.036;46;000.570;MIDI 01
330.024;000.072;70;000.727;MIDI 01
330.020;000.103;79;000.688;MIDI 01
330.019;000.106;82;000.719;MIDI 01
330.149;000.066;55;000.656;MIDI 01
330.315;000.093;60;000.656;MIDI 01
330.309;000.145;79;000.695;MIDI 01
330.303;000.168;67;000.766;MIDI 01
330.295;000.302;76;000.719;MIDI 01
330.452;000.151;58;000.602;MIDI 01
330.608;000.104;56;000.562;MIDI 01
330.706;000.033;68;000.633;MIDI 01
330.709;000.034;77;000.523;MIDI 01
330.724;000.027;80;000.578;MIDI 01
330.722;000.034;53;000.609;MIDI 01
330.872;000.028;65;000.648;MIDI 01
330.870;000.036;77;000.461;MIDI 01
330.874;000.037;74;000.594;MIDI 01
330.891;000.033;73;000.352;MIDI 01
330.868;000.074;58;000.625;MIDI 01
331.023;000.035;46;000.648;MIDI 01
331.016;000.046;65;000.312;MIDI 01
331.068;000.002;74;000.266;MIDI 01
331.018;000.052;77;000.641;MIDI 01
331.203;000.027;75;000.664;MIDI 01
331.215;000.025;63;000.531;MIDI 01
331.205;000.036;39;000.727;MIDI 01
331.200;000.046;51;000.742;MIDI 01
331.438;000.036;79;000.508;MIDI 01
331.435;000.040;52;000.680;MIDI 01
331.504;000.092;82;000.484;MIDI 01
331.577;000.040;53;000.672;MIDI 01
331.602;000.086;80;000.492;MIDI 01
331.689;000.057;77;000.547;MIDI 01
331.719;000.034;50;000.633;MIDI 01
331.762;000.041;82;000.531;MIDI 01
331.865;000.039;51;000.672;MIDI 01
331.836;000.084;79;000.633;MIDI 01
331.925;000.042;82;000.594;MIDI 01
331.997;000.031;43;000.547;MIDI 01
331.999;000.031;75;000.570;MIDI 01
332.077;000.037;82;000.578;MIDI 01
332.125;000.045;44;000.648;MIDI 01
332.146;000.105;77;000.555;MIDI 01
332.259;000.021;82;000.508;MIDI 01
332.302;000.043;74;000.234;MIDI 01
332.328;000.040;47;000.328;MIDI 01
332.321;000.048;46;000.227;MIDI 01
332.365;000.077;82;000.648;MIDI 01
332.424;000.036;51;000.688;MIDI 01
332.427;000.038;39;000.719;MIDI 01
332.446;000.026;75;000.391;MIDI 01
332.460;000.034;49;000.406;MIDI 01
332.593;000.048;82;000.172;MIDI 01
332.647;000.035;52;000.688;MIDI 01
332.655;000.054;79;000.141;MIDI 01
332.702;000.093;82;000.555;MIDI 01
332.778;000.046;53;000.688;MIDI 01
332.800;000.070;80;000.562;MIDI 01
332.886;000.034;77;000.500;MIDI 01
332.904;000.036;50;000.641;MIDI 01
332.945;000.077;82;000.578;MIDI 01
333.066;000.049;51;000.625;MIDI 01
333.042;000.092;79;000.633;MIDI 01
333.133;000.043;82;000.602;MIDI 01
333.208;000.047;75;000.594;MIDI 01
333.224;000.038;43;000.523;MIDI 01
333.297;000.036;82;000.570;MIDI 01
333.361;000.045;44;000.586;MIDI 01
333.352;000.127;77;000.570;MIDI 01
333.500;000.025;46;000.555;MIDI 01
333.483;000.045;82;000.203;MIDI 01
333.485;000.049;74;000.609;MIDI 01
333.568;000.079;82;000.586;MIDI 01
333.676;000.029;39;000.641;MIDI 01
333.673;000.036;75;000.695;MIDI 01
333.762;000.057;82;000.523;MIDI 01
333.850;000.034;34;000.508;MIDI 01
333.852;000.052;79;000.570;MIDI 01
333.950;000.030;82;000.578;MIDI 01
333.994;000.033;39;000.641;MIDI 01
334.015;000.032;75;000.594;MIDI 01
334.078;000.071;82;000.609;MIDI 01
334.157;000.030;34;000.586;MIDI 01
334.149;000.106;79;000.586;MIDI 01
334.255;000.022;82;000.523;MIDI 01
334.302;000.038;75;000.562;MIDI 01
334.319;000.033;39;000.648;MIDI 01
334.373;000.065;82;000.641;MIDI 01
334.433;000.055;80;000.555;MIDI 01
334.479;000.031;34;000.664;MIDI 01
334.498;000.060;79;000.516;MIDI 01
334.565;000.030;82;000.609;MIDI 01
334.615;000.040;34;000.141;MIDI 01
334.628;000.035;75;000.586;MIDI 01
334.633;000.039;39;000.578;MIDI 01
334.692;000.064;82;000.664;MIDI 01
334.755;000.093;79;000.570;MIDI 01
334.803;000.077;34;000.500;MIDI 01
334.847;000.080;82;000.695;MIDI 01
334.922;000.023;75;000.641;MIDI 01
334.917;000.031;39;000.609;MIDI 01
335.101;000.048;39;000.047;MIDI 01
335.247;000.024;67;000.680;MIDI 01
335.244;000.029;70;000.719;MIDI 01
335.252;000.023;79;000.641;MIDI 01
335.251;000.025;51;000.719;MIDI 01
335.258;000.024;75;000.672;MIDI 01
335.256;000.028;46;000.680;MIDI 01
335.249;000.042;39;000.633;MIDI 01
335.282;000.043;43;000.398;MIDI 01
335.621;000.027;55;000.688;MIDI 01
335.627;000.025;58;000.641;MIDI 01
335.623;000.036;63;000.703;MIDI 01
335.625;000.036;51;000.727;MIDI 01
335.630;000.034;46;000.641;MIDI 01
335.628;000.047;39;000.664;MIDI 01
335.646;000.032;43;000.461;MIDI 01
