Start;Duration;Pitch;Velocity;Instrument
001.516;000.774;72;000.711;Disklavier MIDI Out
000.818;001.484;55;000.656;Disklavier MIDI Out
000.823;001.499;48;000.633;Disklavier MIDI Out
002.659;000.066;75;000.656;Disklavier MIDI Out
002.778;000.197;74;000.750;Disklavier MIDI Out
003.488;000.414;67;000.711;Disklavier MIDI Out
002.801;001.431;47;000.500;Disklavier MIDI Out
002.798;001.440;55;000.562;Disklavier MIDI Out
002.795;001.476;50;000.586;Disklavier MIDI Out
004.341;000.092;67;000.578;Disklavier MIDI Out
004.413;000.057;69;000.602;Disklavier MIDI Out
004.476;000.035;71;000.625;Disklavier MIDI Out
004.555;000.070;72;000.656;Disklavier MIDI Out
004.627;000.092;74;000.672;Disklavier MIDI Out
004.683;000.174;76;000.703;Disklavier MIDI Out
005.412;000.774;76;000.766;Disklavier MIDI Out
004.688;001.510;55;000.578;Disklavier MIDI Out
004.694;001.519;46;000.516;Disklavier MIDI Out
004.697;001.517;52;000.508;Disklavier MIDI Out
004.698;001.596;48;000.516;Disklavier MIDI Out
006.522;000.070;79;000.703;Disklavier MIDI Out
006.648;000.222;77;000.773;Disklavier MIDI Out
007.362;000.257;65;000.703;Disklavier MIDI Out
006.671;001.345;45;000.516;Disklavier MIDI Out
006.663;001.361;53;000.602;Disklavier MIDI Out
006.659;001.374;48;000.562;Disklavier MIDI Out
008.222;000.091;72;000.578;Disklavier MIDI Out
008.296;000.093;74;000.609;Disklavier MIDI Out
008.356;000.070;76;000.609;Disklavier MIDI Out
008.402;000.111;77;000.633;Disklavier MIDI Out
008.498;000.160;78;000.758;Disklavier MIDI Out
009.259;000.119;66;000.734;Disklavier MIDI Out
008.530;001.460;54;000.602;Disklavier MIDI Out
008.524;001.496;48;000.555;Disklavier MIDI Out
008.534;001.490;51;000.570;Disklavier MIDI Out
008.539;001.506;44;000.570;Disklavier MIDI Out
010.245;000.096;72;000.539;Disklavier MIDI Out
010.308;000.099;74;000.602;Disklavier MIDI Out
010.364;000.152;75;000.672;Disklavier MIDI Out
010.444;000.129;78;000.625;Disklavier MIDI Out
010.515;000.189;55;000.711;Disklavier MIDI Out
010.513;000.205;79;000.727;Disklavier MIDI Out
010.519;000.207;43;000.586;Disklavier MIDI Out
010.516;000.219;48;000.617;Disklavier MIDI Out
010.517;000.222;51;000.617;Disklavier MIDI Out
011.328;000.458;53;000.734;Disklavier MIDI Out
011.325;000.468;68;000.711;Disklavier MIDI Out
011.340;000.488;41;000.617;Disklavier MIDI Out
011.319;000.516;80;000.695;Disklavier MIDI Out
011.332;000.510;72;000.688;Disklavier MIDI Out
011.336;000.516;48;000.609;Disklavier MIDI Out
011.327;000.526;77;000.648;Disklavier MIDI Out
011.334;000.519;44;000.594;Disklavier MIDI Out
013.655;000.046;44;000.266;Disklavier MIDI Out
013.846;000.127;41;000.297;Disklavier MIDI Out
013.810;000.213;65;000.320;Disklavier MIDI Out
014.470;000.197;67;000.266;Disklavier MIDI Out
014.492;000.180;43;000.273;Disklavier MIDI Out
015.195;000.201;48;000.273;Disklavier MIDI Out
015.188;000.267;60;000.266;Disklavier MIDI Out
015.941;000.193;43;000.250;Disklavier MIDI Out
016.698;000.349;36;000.195;Disklavier MIDI Out
017.394;000.035;55;000.391;Disklavier MIDI Out
017.560;000.056;60;000.359;Disklavier MIDI Out
017.694;000.051;63;000.430;Disklavier MIDI Out
017.853;000.042;67;000.492;Disklavier MIDI Out
017.994;000.044;72;000.531;Disklavier MIDI Out
018.138;000.054;75;000.508;Disklavier MIDI Out
018.289;000.038;79;000.516;Disklavier MIDI Out
018.419;000.042;79;000.617;Disklavier MIDI Out
018.581;000.039;79;000.594;Disklavier MIDI Out
018.580;000.073;67;000.367;Disklavier MIDI Out
018.584;000.070;63;000.367;Disklavier MIDI Out
018.592;000.099;60;000.375;Disklavier MIDI Out
018.736;000.037;79;000.539;Disklavier MIDI Out
018.881;000.032;79;000.555;Disklavier MIDI Out
019.022;000.037;79;000.570;Disklavier MIDI Out
019.181;000.136;67;000.438;Disklavier MIDI Out
019.179;000.156;79;000.578;Disklavier MIDI Out
019.189;000.234;62;000.391;Disklavier MIDI Out
019.347;000.086;74;000.531;Disklavier MIDI Out
019.202;000.291;59;000.328;Disklavier MIDI Out
019.493;000.048;71;000.555;Disklavier MIDI Out
019.629;000.049;67;000.516;Disklavier MIDI Out
019.780;000.042;62;000.570;Disklavier MIDI Out
019.923;000.037;59;000.500;Disklavier MIDI Out
020.074;000.041;55;000.469;Disklavier MIDI Out
020.222;000.027;55;000.516;Disklavier MIDI Out
020.353;000.045;55;000.586;Disklavier MIDI Out
020.363;000.063;50;000.414;Disklavier MIDI Out
020.366;000.062;47;000.391;Disklavier MIDI Out
020.513;000.040;55;000.477;Disklavier MIDI Out
020.663;000.040;55;000.523;Disklavier MIDI Out
020.816;000.047;55;000.508;Disklavier MIDI Out
020.964;000.059;55;000.570;Disklavier MIDI Out
021.115;000.060;58;000.484;Disklavier MIDI Out
020.972;000.333;49;000.367;Disklavier MIDI Out
020.970;000.335;46;000.344;Disklavier MIDI Out
020.959;000.363;52;000.367;Disklavier MIDI Out
021.260;000.104;61;000.523;Disklavier MIDI Out
021.405;000.038;64;000.523;Disklavier MIDI Out
021.567;000.041;67;000.492;Disklavier MIDI Out
021.698;000.045;70;000.523;Disklavier MIDI Out
021.863;000.053;73;000.469;Disklavier MIDI Out
022.001;000.039;76;000.469;Disklavier MIDI Out
022.139;000.042;76;000.562;Disklavier MIDI Out
022.169;000.068;61;000.391;Disklavier MIDI Out
022.157;000.086;67;000.430;Disklavier MIDI Out
022.179;000.077;58;000.336;Disklavier MIDI Out
022.302;000.035;76;000.578;Disklavier MIDI Out
022.445;000.036;76;000.594;Disklavier MIDI Out
022.589;000.042;76;000.586;Disklavier MIDI Out
022.746;000.093;77;000.539;Disklavier MIDI Out
022.743;000.216;65;000.391;Disklavier MIDI Out
022.903;000.072;72;000.500;Disklavier MIDI Out
022.748;000.349;60;000.375;Disklavier MIDI Out
023.056;000.044;69;000.477;Disklavier MIDI Out
022.767;000.396;57;000.398;Disklavier MIDI Out
023.188;000.050;65;000.500;Disklavier MIDI Out
023.343;000.036;60;000.547;Disklavier MIDI Out
023.489;000.040;57;000.484;Disklavier MIDI Out
023.632;000.043;53;000.508;Disklavier MIDI Out
023.772;000.045;53;000.562;Disklavier MIDI Out
023.910;000.052;53;000.570;Disklavier MIDI Out
023.917;000.114;45;000.422;Disklavier MIDI Out
023.930;000.114;48;000.344;Disklavier MIDI Out
024.064;000.043;53;000.555;Disklavier MIDI Out
024.220;000.045;53;000.492;Disklavier MIDI Out
024.361;000.042;53;000.547;Disklavier MIDI Out
024.529;000.044;54;000.594;Disklavier MIDI Out
024.674;000.081;60;000.531;Disklavier MIDI Out
024.822;000.040;63;000.500;Disklavier MIDI Out
024.527;000.352;48;000.414;Disklavier MIDI Out
024.534;000.366;44;000.375;Disklavier MIDI Out
024.957;000.049;66;000.578;Disklavier MIDI Out
025.144;000.028;71;000.414;Disklavier MIDI Out
025.121;000.051;72;000.422;Disklavier MIDI Out
025.254;000.044;75;000.531;Disklavier MIDI Out
025.396;000.041;78;000.500;Disklavier MIDI Out
025.523;000.052;78;000.602;Disklavier MIDI Out
025.685;000.043;78;000.586;Disklavier MIDI Out
025.689;000.084;66;000.383;Disklavier MIDI Out
025.696;000.095;60;000.375;Disklavier MIDI Out
025.701;000.097;63;000.367;Disklavier MIDI Out
025.717;000.094;56;000.320;Disklavier MIDI Out
025.837;000.034;78;000.570;Disklavier MIDI Out
025.977;000.039;78;000.547;Disklavier MIDI Out
026.126;000.049;78;000.594;Disklavier MIDI Out
026.277;000.074;79;000.633;Disklavier MIDI Out
026.299;000.110;67;000.383;Disklavier MIDI Out
026.301;000.139;63;000.359;Disklavier MIDI Out
026.297;000.146;60;000.352;Disklavier MIDI Out
026.307;000.169;55;000.383;Disklavier MIDI Out
026.430;000.066;75;000.586;Disklavier MIDI Out
026.565;000.047;72;000.586;Disklavier MIDI Out
026.711;000.066;67;000.633;Disklavier MIDI Out
026.862;000.062;68;000.719;Disklavier MIDI Out
027.023;000.065;72;000.656;Disklavier MIDI Out
026.865;000.400;65;000.617;Disklavier MIDI Out
026.871;000.397;60;000.586;Disklavier MIDI Out
027.166;000.105;77;000.656;Disklavier MIDI Out
026.879;000.397;56;000.555;Disklavier MIDI Out
026.877;000.418;53;000.578;Disklavier MIDI Out
027.312;000.061;80;000.656;Disklavier MIDI Out
027.462;000.064;84;000.586;Disklavier MIDI Out
027.619;000.048;89;000.562;Disklavier MIDI Out
027.755;000.099;92;000.578;Disklavier MIDI Out
027.897;000.071;89;000.562;Disklavier MIDI Out
028.060;000.040;84;000.422;Disklavier MIDI Out
028.205;000.053;80;000.430;Disklavier MIDI Out
028.339;000.052;77;000.500;Disklavier MIDI Out
028.502;000.055;72;000.445;Disklavier MIDI Out
028.648;000.062;68;000.453;Disklavier MIDI Out
028.785;000.056;65;000.445;Disklavier MIDI Out
028.947;000.031;62;000.383;Disklavier MIDI Out
029.068;000.039;56;000.516;Disklavier MIDI Out
029.093;000.036;41;000.242;Disklavier MIDI Out
029.208;000.038;55;000.539;Disklavier MIDI Out
029.347;000.049;59;000.531;Disklavier MIDI Out
029.197;000.230;43;000.516;Disklavier MIDI Out
029.504;000.060;62;000.469;Disklavier MIDI Out
029.638;000.048;67;000.461;Disklavier MIDI Out
029.786;000.058;63;000.539;Disklavier MIDI Out
029.939;000.037;60;000.531;Disklavier MIDI Out
029.800;000.191;48;000.398;Disklavier MIDI Out
030.082;000.036;55;000.523;Disklavier MIDI Out
030.230;000.045;51;000.453;Disklavier MIDI Out
030.382;000.040;55;000.414;Disklavier MIDI Out
030.524;000.043;51;000.484;Disklavier MIDI Out
030.684;000.043;48;000.469;Disklavier MIDI Out
030.832;000.040;43;000.422;Disklavier MIDI Out
030.979;000.045;48;000.422;Disklavier MIDI Out
031.138;000.040;51;000.406;Disklavier MIDI Out
031.279;000.041;55;000.469;Disklavier MIDI Out
031.442;000.044;51;000.445;Disklavier MIDI Out
031.587;000.060;48;000.500;Disklavier MIDI Out
031.737;000.047;51;000.508;Disklavier MIDI Out
031.879;000.045;55;000.500;Disklavier MIDI Out
032.030;000.039;60;000.531;Disklavier MIDI Out
032.177;000.047;63;000.508;Disklavier MIDI Out
032.332;000.034;67;000.484;Disklavier MIDI Out
032.470;000.054;67;000.555;Disklavier MIDI Out
032.652;000.041;67;000.531;Disklavier MIDI Out
032.781;000.053;67;000.609;Disklavier MIDI Out
032.789;000.049;72;000.469;Disklavier MIDI Out
032.790;000.075;75;000.484;Disklavier MIDI Out
032.939;000.040;67;000.555;Disklavier MIDI Out
033.081;000.050;67;000.570;Disklavier MIDI Out
033.244;000.040;67;000.539;Disklavier MIDI Out
033.391;000.068;67;000.500;Disklavier MIDI Out
033.547;000.063;62;000.438;Disklavier MIDI Out
033.705;000.033;59;000.336;Disklavier MIDI Out
033.854;000.033;55;000.391;Disklavier MIDI Out
033.382;000.565;74;000.500;Disklavier MIDI Out
033.381;000.589;71;000.461;Disklavier MIDI Out
033.995;000.039;50;000.508;Disklavier MIDI Out
034.144;000.048;47;000.547;Disklavier MIDI Out
034.289;000.058;47;000.586;Disklavier MIDI Out
034.469;000.033;47;000.438;Disklavier MIDI Out
034.595;000.051;47;000.641;Disklavier MIDI Out
034.610;000.057;67;000.461;Disklavier MIDI Out
034.597;000.094;74;000.555;Disklavier MIDI Out
034.747;000.049;47;000.562;Disklavier MIDI Out
034.897;000.060;47;000.562;Disklavier MIDI Out
035.055;000.066;47;000.508;Disklavier MIDI Out
035.237;000.055;46;000.516;Disklavier MIDI Out
035.373;000.054;49;000.539;Disklavier MIDI Out
035.529;000.037;52;000.391;Disklavier MIDI Out
035.658;000.056;55;000.508;Disklavier MIDI Out
035.810;000.053;58;000.500;Disklavier MIDI Out
035.210;000.747;76;000.570;Disklavier MIDI Out
035.217;000.743;67;000.523;Disklavier MIDI Out
035.212;000.753;73;000.531;Disklavier MIDI Out
035.964;000.049;61;000.508;Disklavier MIDI Out
036.121;000.041;64;000.484;Disklavier MIDI Out
036.258;000.044;64;000.570;Disklavier MIDI Out
036.408;000.058;64;000.594;Disklavier MIDI Out
036.427;000.104;67;000.461;Disklavier MIDI Out
036.420;000.138;73;000.500;Disklavier MIDI Out
036.562;000.052;64;000.547;Disklavier MIDI Out
036.701;000.051;64;000.617;Disklavier MIDI Out
036.846;000.058;64;000.594;Disklavier MIDI Out
037.015;000.065;65;000.562;Disklavier MIDI Out
037.163;000.076;60;000.523;Disklavier MIDI Out
037.010;000.303;69;000.547;Disklavier MIDI Out
037.314;000.045;57;000.461;Disklavier MIDI Out
037.008;000.370;72;000.547;Disklavier MIDI Out
037.468;000.045;53;000.523;Disklavier MIDI Out
037.611;000.041;48;000.500;Disklavier MIDI Out
037.768;000.045;45;000.539;Disklavier MIDI Out
037.914;000.060;45;000.555;Disklavier MIDI Out
038.082;000.053;45;000.523;Disklavier MIDI Out
038.224;000.056;45;000.625;Disklavier MIDI Out
038.227;000.069;65;000.453;Disklavier MIDI Out
038.221;000.076;72;000.500;Disklavier MIDI Out
038.372;000.049;45;000.609;Disklavier MIDI Out
038.516;000.057;45;000.617;Disklavier MIDI Out
038.658;000.055;45;000.562;Disklavier MIDI Out
038.840;000.056;44;000.570;Disklavier MIDI Out
038.972;000.002;49;000.336;Disklavier MIDI Out
038.996;000.036;48;000.445;Disklavier MIDI Out
039.115;000.062;51;000.562;Disklavier MIDI Out
038.828;000.385;66;000.500;Disklavier MIDI Out
039.268;000.036;56;000.523;Disklavier MIDI Out
038.834;000.592;72;000.492;Disklavier MIDI Out
039.427;000.048;60;000.508;Disklavier MIDI Out
039.563;000.054;63;000.539;Disklavier MIDI Out
039.713;000.042;66;000.461;Disklavier MIDI Out
039.856;000.042;66;000.531;Disklavier MIDI Out
039.997;000.064;66;000.594;Disklavier MIDI Out
040.023;000.069;72;000.484;Disklavier MIDI Out
040.017;000.105;75;000.562;Disklavier MIDI Out
040.161;000.049;66;000.562;Disklavier MIDI Out
040.307;000.052;66;000.609;Disklavier MIDI Out
040.452;000.057;66;000.570;Disklavier MIDI Out
040.612;000.054;67;000.570;Disklavier MIDI Out
040.756;000.048;62;000.516;Disklavier MIDI Out
040.602;000.240;71;000.539;Disklavier MIDI Out
040.594;000.291;74;000.594;Disklavier MIDI Out
040.905;000.073;59;000.539;Disklavier MIDI Out
041.046;000.049;55;000.617;Disklavier MIDI Out
041.202;000.069;56;000.672;Disklavier MIDI Out
041.351;000.056;60;000.656;Disklavier MIDI Out
041.501;000.063;65;000.648;Disklavier MIDI Out
041.647;000.036;68;000.602;Disklavier MIDI Out
041.792;000.056;65;000.586;Disklavier MIDI Out
041.201;000.716;72;000.688;Disklavier MIDI Out
041.197;000.804;77;000.719;Disklavier MIDI Out
041.939;000.105;60;000.492;Disklavier MIDI Out
042.075;000.051;56;000.469;Disklavier MIDI Out
042.265;000.049;53;000.203;Disklavier MIDI Out
042.400;000.064;50;000.070;Disklavier MIDI Out
042.420;000.055;48;000.062;Disklavier MIDI Out
042.504;000.037;44;000.383;Disklavier MIDI Out
042.644;000.056;41;000.531;Disklavier MIDI Out
042.790;000.053;36;000.508;Disklavier MIDI Out
042.933;000.047;32;000.523;Disklavier MIDI Out
043.078;000.064;36;000.484;Disklavier MIDI Out
043.221;000.063;41;000.469;Disklavier MIDI Out
043.357;000.050;44;000.414;Disklavier MIDI Out
043.378;000.054;72;000.461;Disklavier MIDI Out
043.382;000.058;77;000.469;Disklavier MIDI Out
043.524;000.043;43;000.430;Disklavier MIDI Out
043.532;000.112;71;000.477;Disklavier MIDI Out
043.656;000.052;38;000.453;Disklavier MIDI Out
043.809;000.071;35;000.445;Disklavier MIDI Out
043.536;000.348;79;000.523;Disklavier MIDI Out
043.972;000.043;31;000.375;Disklavier MIDI Out
044.116;000.043;36;000.492;Disklavier MIDI Out
044.277;000.048;39;000.461;Disklavier MIDI Out
044.431;000.032;43;000.391;Disklavier MIDI Out
044.564;000.041;48;000.484;Disklavier MIDI Out
044.722;000.046;43;000.422;Disklavier MIDI Out
044.879;000.041;48;000.484;Disklavier MIDI Out
045.034;000.043;51;000.469;Disklavier MIDI Out
045.164;000.043;55;000.469;Disklavier MIDI Out
044.130;001.169;72;000.453;Disklavier MIDI Out
045.311;000.043;51;000.477;Disklavier MIDI Out
045.464;000.041;48;000.516;Disklavier MIDI Out
045.599;000.047;43;000.500;Disklavier MIDI Out
045.735;000.051;39;000.539;Disklavier MIDI Out
045.902;000.082;36;000.492;Disklavier MIDI Out
045.898;000.092;87;000.555;Disklavier MIDI Out
046.041;000.061;84;000.539;Disklavier MIDI Out
046.038;000.073;39;000.516;Disklavier MIDI Out
046.172;000.075;79;000.547;Disklavier MIDI Out
046.183;000.066;43;000.445;Disklavier MIDI Out
046.325;000.050;48;000.469;Disklavier MIDI Out
046.327;000.060;75;000.531;Disklavier MIDI Out
046.461;000.043;72;000.523;Disklavier MIDI Out
046.466;000.112;51;000.523;Disklavier MIDI Out
046.608;000.048;67;000.508;Disklavier MIDI Out
046.629;000.056;55;000.461;Disklavier MIDI Out
046.757;000.040;63;000.531;Disklavier MIDI Out
046.767;000.042;60;000.500;Disklavier MIDI Out
046.888;000.052;63;000.562;Disklavier MIDI Out
046.900;000.041;60;000.539;Disklavier MIDI Out
047.035;000.044;63;000.594;Disklavier MIDI Out
047.033;000.055;60;000.555;Disklavier MIDI Out
047.168;000.053;63;000.586;Disklavier MIDI Out
047.177;000.049;60;000.492;Disklavier MIDI Out
047.324;000.040;60;000.500;Disklavier MIDI Out
047.321;000.047;63;000.562;Disklavier MIDI Out
047.465;000.035;60;000.477;Disklavier MIDI Out
047.454;000.053;63;000.602;Disklavier MIDI Out
047.617;000.043;62;000.562;Disklavier MIDI Out
047.621;000.062;59;000.500;Disklavier MIDI Out
047.752;000.076;67;000.594;Disklavier MIDI Out
047.764;000.102;55;000.453;Disklavier MIDI Out
047.899;000.048;71;000.570;Disklavier MIDI Out
047.904;000.046;50;000.484;Disklavier MIDI Out
048.039;000.043;74;000.586;Disklavier MIDI Out
048.045;000.051;47;000.523;Disklavier MIDI Out
048.185;000.053;43;000.516;Disklavier MIDI Out
048.175;000.065;79;000.586;Disklavier MIDI Out
048.317;000.048;83;000.594;Disklavier MIDI Out
048.319;000.070;38;000.508;Disklavier MIDI Out
048.458;000.056;86;000.633;Disklavier MIDI Out
048.459;000.057;35;000.539;Disklavier MIDI Out
048.607;000.042;35;000.531;Disklavier MIDI Out
048.600;000.055;86;000.602;Disklavier MIDI Out
048.747;000.043;86;000.617;Disklavier MIDI Out
048.744;000.047;35;000.578;Disklavier MIDI Out
048.878;000.045;35;000.594;Disklavier MIDI Out
048.891;000.039;86;000.633;Disklavier MIDI Out
049.028;000.043;35;000.492;Disklavier MIDI Out
049.040;000.036;86;000.625;Disklavier MIDI Out
049.178;000.034;86;000.648;Disklavier MIDI Out
049.168;000.045;35;000.555;Disklavier MIDI Out
049.339;000.055;85;000.602;Disklavier MIDI Out
049.334;000.070;34;000.570;Disklavier MIDI Out
049.462;000.060;37;000.492;Disklavier MIDI Out
049.473;000.082;82;000.547;Disklavier MIDI Out
049.611;000.048;78;000.562;Disklavier MIDI Out
049.630;000.067;42;000.500;Disklavier MIDI Out
049.758;000.041;73;000.531;Disklavier MIDI Out
049.771;000.037;46;000.516;Disklavier MIDI Out
049.897;000.079;70;000.586;Disklavier MIDI Out
049.917;000.109;49;000.484;Disklavier MIDI Out
050.040;000.051;66;000.516;Disklavier MIDI Out
050.059;000.080;54;000.469;Disklavier MIDI Out
050.190;000.038;61;000.531;Disklavier MIDI Out
050.203;000.040;58;000.492;Disklavier MIDI Out
050.323;000.040;61;000.578;Disklavier MIDI Out
050.351;000.033;58;000.414;Disklavier MIDI Out
050.467;000.050;61;000.539;Disklavier MIDI Out
050.500;000.031;58;000.422;Disklavier MIDI Out
050.622;000.036;58;000.500;Disklavier MIDI Out
050.618;000.041;61;000.570;Disklavier MIDI Out
050.752;000.042;58;000.539;Disklavier MIDI Out
050.746;000.054;61;000.625;Disklavier MIDI Out
050.892;000.054;58;000.531;Disklavier MIDI Out
050.899;000.048;61;000.586;Disklavier MIDI Out
051.049;000.064;60;000.602;Disklavier MIDI Out
051.043;000.074;57;000.523;Disklavier MIDI Out
051.201;000.091;65;000.523;Disklavier MIDI Out
051.190;000.108;53;000.492;Disklavier MIDI Out
051.346;000.040;69;000.539;Disklavier MIDI Out
051.345;000.054;48;000.484;Disklavier MIDI Out
051.490;000.045;72;000.531;Disklavier MIDI Out
051.489;000.053;45;000.531;Disklavier MIDI Out
051.636;000.043;77;000.484;Disklavier MIDI Out
051.641;000.052;41;000.430;Disklavier MIDI Out
051.774;000.047;81;000.586;Disklavier MIDI Out
051.769;000.077;36;000.523;Disklavier MIDI Out
051.922;000.054;33;000.531;Disklavier MIDI Out
051.926;000.053;84;000.602;Disklavier MIDI Out
052.062;000.042;33;000.531;Disklavier MIDI Out
052.064;000.050;84;000.602;Disklavier MIDI Out
052.203;000.051;33;000.586;Disklavier MIDI Out
052.211;000.049;84;000.625;Disklavier MIDI Out
052.355;000.044;84;000.594;Disklavier MIDI Out
052.347;000.060;33;000.555;Disklavier MIDI Out
052.505;000.041;84;000.617;Disklavier MIDI Out
052.493;000.058;33;000.539;Disklavier MIDI Out
052.642;000.050;33;000.539;Disklavier MIDI Out
052.650;000.047;84;000.617;Disklavier MIDI Out
052.807;000.087;32;000.547;Disklavier MIDI Out
052.804;000.158;84;000.633;Disklavier MIDI Out
052.956;000.073;36;000.500;Disklavier MIDI Out
052.954;000.109;80;000.562;Disklavier MIDI Out
053.095;000.069;77;000.492;Disklavier MIDI Out
053.097;000.074;41;000.516;Disklavier MIDI Out
053.229;000.073;72;000.508;Disklavier MIDI Out
053.244;000.127;44;000.570;Disklavier MIDI Out
053.383;000.086;68;000.570;Disklavier MIDI Out
053.393;000.087;48;000.508;Disklavier MIDI Out
053.512;000.057;65;000.539;Disklavier MIDI Out
053.539;000.072;53;000.523;Disklavier MIDI Out
053.676;000.046;60;000.555;Disklavier MIDI Out
053.685;000.051;56;000.547;Disklavier MIDI Out
053.805;000.039;60;000.594;Disklavier MIDI Out
053.826;000.053;56;000.562;Disklavier MIDI Out
053.941;000.058;60;000.609;Disklavier MIDI Out
053.975;000.041;56;000.531;Disklavier MIDI Out
054.095;000.044;60;000.602;Disklavier MIDI Out
054.103;000.040;56;000.562;Disklavier MIDI Out
054.239;000.041;60;000.617;Disklavier MIDI Out
054.236;000.050;56;000.523;Disklavier MIDI Out
054.380;000.049;60;000.641;Disklavier MIDI Out
054.382;000.056;56;000.539;Disklavier MIDI Out
054.539;000.107;59;000.555;Disklavier MIDI Out
054.536;000.197;55;000.477;Disklavier MIDI Out
054.676;000.168;62;000.586;Disklavier MIDI Out
054.684;000.207;50;000.500;Disklavier MIDI Out
054.838;000.151;67;000.547;Disklavier MIDI Out
054.830;000.162;47;000.523;Disklavier MIDI Out
054.987;000.224;71;000.617;Disklavier MIDI Out
054.979;000.267;43;000.539;Disklavier MIDI Out
055.209;000.219;68;000.570;Disklavier MIDI Out
055.175;000.364;53;000.523;Disklavier MIDI Out
055.482;000.123;71;000.547;Disklavier MIDI Out
055.477;000.173;50;000.484;Disklavier MIDI Out
055.640;000.135;74;000.578;Disklavier MIDI Out
055.651;000.164;47;000.500;Disklavier MIDI Out
055.788;000.098;44;000.523;Disklavier MIDI Out
055.783;000.175;77;000.602;Disklavier MIDI Out
055.918;000.090;80;000.617;Disklavier MIDI Out
055.947;000.194;41;000.539;Disklavier MIDI Out
056.093;000.132;38;000.523;Disklavier MIDI Out
056.067;000.161;83;000.562;Disklavier MIDI Out
056.217;000.198;86;000.602;Disklavier MIDI Out
056.221;000.218;35;000.578;Disklavier MIDI Out
056.369;000.184;32;000.547;Disklavier MIDI Out
056.354;000.234;89;000.664;Disklavier MIDI Out
056.541;000.208;29;000.594;Disklavier MIDI Out
056.552;000.271;92;000.680;Disklavier MIDI Out
056.713;000.166;32;000.555;Disklavier MIDI Out
056.733;000.168;89;000.609;Disklavier MIDI Out
056.841;000.087;86;000.625;Disklavier MIDI Out
056.831;000.121;35;000.531;Disklavier MIDI Out
056.938;000.093;38;000.555;Disklavier MIDI Out
056.941;000.144;83;000.586;Disklavier MIDI Out
057.053;000.146;41;000.500;Disklavier MIDI Out
057.062;000.141;80;000.586;Disklavier MIDI Out
057.180;000.101;77;000.586;Disklavier MIDI Out
057.186;000.111;44;000.609;Disklavier MIDI Out
057.345;000.147;83;000.570;Disklavier MIDI Out
057.356;000.146;41;000.477;Disklavier MIDI Out
057.499;000.129;38;000.484;Disklavier MIDI Out
057.495;000.149;86;000.523;Disklavier MIDI Out
057.642;000.110;35;000.539;Disklavier MIDI Out
057.646;000.143;89;000.586;Disklavier MIDI Out
057.796;000.079;31;000.500;Disklavier MIDI Out
057.799;000.161;91;000.617;Disklavier MIDI Out
057.944;000.099;35;000.500;Disklavier MIDI Out
057.949;000.144;86;000.531;Disklavier MIDI Out
058.104;000.072;38;000.461;Disklavier MIDI Out
058.094;000.094;83;000.555;Disklavier MIDI Out
058.251;000.073;43;000.344;Disklavier MIDI Out
058.244;000.142;79;000.484;Disklavier MIDI Out
058.399;000.094;36;000.445;Disklavier MIDI Out
058.393;000.129;87;000.500;Disklavier MIDI Out
058.544;000.065;84;000.508;Disklavier MIDI Out
058.539;000.102;39;000.438;Disklavier MIDI Out
058.692;000.079;43;000.375;Disklavier MIDI Out
058.686;000.089;79;000.461;Disklavier MIDI Out
058.851;000.065;48;000.406;Disklavier MIDI Out
058.833;000.096;75;000.461;Disklavier MIDI Out
059.009;000.046;51;000.383;Disklavier MIDI Out
059.181;000.040;48;000.281;Disklavier MIDI Out
059.347;000.060;43;000.086;Disklavier MIDI Out
059.488;000.042;39;000.336;Disklavier MIDI Out
059.002;000.637;72;000.445;Disklavier MIDI Out
059.728;000.514;36;000.266;Disklavier MIDI Out
060.723;000.074;36;000.227;Disklavier MIDI Out
060.714;000.109;55;000.219;Disklavier MIDI Out
060.966;000.039;60;000.281;Disklavier MIDI Out
060.698;000.435;67;000.289;Disklavier MIDI Out
061.182;000.045;63;000.336;Disklavier MIDI Out
061.447;000.061;36;000.164;Disklavier MIDI Out
061.435;000.098;62;000.289;Disklavier MIDI Out
061.690;000.055;63;000.188;Disklavier MIDI Out
061.417;000.332;67;000.312;Disklavier MIDI Out
061.885;000.041;60;000.297;Disklavier MIDI Out
062.115;000.082;55;000.336;Disklavier MIDI Out
062.131;000.080;36;000.297;Disklavier MIDI Out
062.352;000.038;60;000.305;Disklavier MIDI Out
062.113;000.418;67;000.422;Disklavier MIDI Out
062.573;000.068;63;000.320;Disklavier MIDI Out
062.797;000.095;55;000.422;Disklavier MIDI Out
062.804;000.189;35;000.383;Disklavier MIDI Out
063.060;000.051;59;000.352;Disklavier MIDI Out
063.267;000.049;62;000.328;Disklavier MIDI Out
062.794;000.726;67;000.430;Disklavier MIDI Out
063.498;000.048;61;000.391;Disklavier MIDI Out
063.732;000.040;62;000.305;Disklavier MIDI Out
064.173;000.039;55;000.352;Disklavier MIDI Out
064.404;000.039;59;000.266;Disklavier MIDI Out
064.610;000.036;62;000.406;Disklavier MIDI Out
064.842;000.063;61;000.461;Disklavier MIDI Out
064.858;000.066;34;000.383;Disklavier MIDI Out
065.073;000.060;64;000.391;Disklavier MIDI Out
064.858;000.411;73;000.469;Disklavier MIDI Out
065.309;000.040;67;000.289;Disklavier MIDI Out
065.533;000.055;66;000.367;Disklavier MIDI Out
065.532;000.056;34;000.344;Disklavier MIDI Out
065.527;000.278;73;000.461;Disklavier MIDI Out
065.747;000.092;67;000.469;Disklavier MIDI Out
065.973;000.032;64;000.430;Disklavier MIDI Out
066.191;000.063;61;000.477;Disklavier MIDI Out
066.200;000.058;34;000.367;Disklavier MIDI Out
066.395;000.051;64;000.453;Disklavier MIDI Out
066.184;000.300;73;000.531;Disklavier MIDI Out
066.611;000.041;67;000.469;Disklavier MIDI Out
066.847;000.065;60;000.453;Disklavier MIDI Out
066.857;000.199;33;000.336;Disklavier MIDI Out
067.070;000.055;65;000.398;Disklavier MIDI Out
066.851;000.425;72;000.484;Disklavier MIDI Out
067.292;000.053;69;000.406;Disklavier MIDI Out
067.518;000.040;68;000.461;Disklavier MIDI Out
067.732;000.045;69;000.469;Disklavier MIDI Out
067.953;000.036;65;000.453;Disklavier MIDI Out
068.167;000.046;60;000.461;Disklavier MIDI Out
068.373;000.047;65;000.453;Disklavier MIDI Out
068.590;000.047;69;000.477;Disklavier MIDI Out
068.808;000.080;32;000.375;Disklavier MIDI Out
068.809;000.098;60;000.484;Disklavier MIDI Out
069.028;000.059;63;000.453;Disklavier MIDI Out
068.804;000.393;72;000.539;Disklavier MIDI Out
069.233;000.057;66;000.523;Disklavier MIDI Out
069.451;000.059;65;000.539;Disklavier MIDI Out
069.458;000.062;32;000.391;Disklavier MIDI Out
069.661;000.082;66;000.539;Disklavier MIDI Out
069.445;000.415;72;000.586;Disklavier MIDI Out
069.872;000.064;63;000.570;Disklavier MIDI Out
070.088;000.056;60;000.633;Disklavier MIDI Out
070.097;000.110;32;000.453;Disklavier MIDI Out
070.294;000.077;63;000.578;Disklavier MIDI Out
070.085;000.426;72;000.625;Disklavier MIDI Out
070.508;000.074;66;000.586;Disklavier MIDI Out
070.733;000.072;60;000.680;Disklavier MIDI Out
070.732;000.144;31;000.539;Disklavier MIDI Out
070.729;000.360;72;000.648;Disklavier MIDI Out
070.941;000.152;63;000.602;Disklavier MIDI Out
071.147;000.060;67;000.648;Disklavier MIDI Out
071.419;000.079;28;000.523;Disklavier MIDI Out
071.404;000.114;68;000.773;Disklavier MIDI Out
071.669;000.076;72;000.625;Disklavier MIDI Out
071.403;000.495;80;000.781;Disklavier MIDI Out
071.871;000.118;74;000.695;Disklavier MIDI Out
071.412;000.748;29;000.484;Disklavier MIDI Out
072.085;000.082;77;000.633;Disklavier MIDI Out
072.307;000.068;80;000.547;Disklavier MIDI Out
072.512;000.047;77;000.523;Disklavier MIDI Out
072.718;000.049;74;000.438;Disklavier MIDI Out
072.928;000.036;72;000.391;Disklavier MIDI Out
073.122;000.057;68;000.492;Disklavier MIDI Out
073.326;000.056;65;000.438;Disklavier MIDI Out
073.555;000.055;62;000.422;Disklavier MIDI Out
073.745;000.041;60;000.469;Disklavier MIDI Out
073.888;000.069;53;000.305;Disklavier MIDI Out
073.963;000.096;59;000.398;Disklavier MIDI Out
073.962;000.106;55;000.422;Disklavier MIDI Out
073.961;000.270;67;000.438;Disklavier MIDI Out
074.181;000.061;62;000.430;Disklavier MIDI Out
074.395;000.035;59;000.359;Disklavier MIDI Out
074.614;000.065;60;000.406;Disklavier MIDI Out
074.635;000.088;48;000.336;Disklavier MIDI Out
074.855;000.076;63;000.297;Disklavier MIDI Out
074.620;000.343;67;000.398;Disklavier MIDI Out
075.067;000.054;60;000.180;Disklavier MIDI Out
075.283;000.068;43;000.258;Disklavier MIDI Out
075.284;000.073;59;000.344;Disklavier MIDI Out
075.278;000.258;67;000.383;Disklavier MIDI Out
075.501;000.088;62;000.391;Disklavier MIDI Out
075.728;000.057;59;000.352;Disklavier MIDI Out
075.985;000.071;60;000.273;Disklavier MIDI Out
075.998;000.109;36;000.195;Disklavier MIDI Out
075.973;000.279;67;000.359;Disklavier MIDI Out
076.254;000.068;63;000.273;Disklavier MIDI Out
076.558;000.118;60;000.398;Disklavier MIDI Out
077.008;000.086;48;000.281;Disklavier MIDI Out
077.423;000.045;63;000.391;Disklavier MIDI Out
077.438;000.032;67;000.359;Disklavier MIDI Out
077.441;000.039;60;000.336;Disklavier MIDI Out
077.565;000.052;72;000.500;Disklavier MIDI Out
077.585;000.041;60;000.398;Disklavier MIDI Out
077.602;000.031;63;000.312;Disklavier MIDI Out
077.706;000.051;60;000.438;Disklavier MIDI Out
077.713;000.046;63;000.484;Disklavier MIDI Out
077.694;000.089;55;000.180;Disklavier MIDI Out
077.705;000.158;75;000.555;Disklavier MIDI Out
077.875;000.199;79;000.555;Disklavier MIDI Out
078.259;000.065;75;000.516;Disklavier MIDI Out
078.249;000.084;87;000.625;Disklavier MIDI Out
078.608;000.060;71;000.484;Disklavier MIDI Out
078.601;000.117;83;000.578;Disklavier MIDI Out
077.874;001.101;63;000.430;Disklavier MIDI Out
077.881;001.121;60;000.438;Disklavier MIDI Out
078.972;000.069;84;000.531;Disklavier MIDI Out
078.989;000.056;72;000.422;Disklavier MIDI Out
077.877;001.171;55;000.312;Disklavier MIDI Out
079.343;000.037;43;000.438;Disklavier MIDI Out
079.572;000.032;62;000.469;Disklavier MIDI Out
079.574;000.038;59;000.422;Disklavier MIDI Out
079.565;000.048;67;000.477;Disklavier MIDI Out
079.582;000.046;55;000.461;Disklavier MIDI Out
079.706;000.056;71;000.539;Disklavier MIDI Out
079.715;000.048;62;000.500;Disklavier MIDI Out
079.730;000.043;59;000.492;Disklavier MIDI Out
079.734;000.085;55;000.461;Disklavier MIDI Out
079.862;000.024;62;000.500;Disklavier MIDI Out
079.849;000.116;74;000.539;Disklavier MIDI Out
080.008;000.137;79;000.586;Disklavier MIDI Out
080.365;000.055;74;000.484;Disklavier MIDI Out
080.348;000.094;86;000.586;Disklavier MIDI Out
080.728;000.153;66;000.398;Disklavier MIDI Out
080.019;001.071;59;000.414;Disklavier MIDI Out
080.026;001.081;55;000.391;Disklavier MIDI Out
080.709;000.441;78;000.539;Disklavier MIDI Out
080.003;001.213;62;000.406;Disklavier MIDI Out
081.176;000.196;67;000.391;Disklavier MIDI Out
081.490;000.038;48;000.461;Disklavier MIDI Out
081.143;000.533;79;000.484;Disklavier MIDI Out
081.640;000.042;67;000.570;Disklavier MIDI Out
081.682;000.037;60;000.438;Disklavier MIDI Out
081.680;000.040;64;000.461;Disklavier MIDI Out
081.676;000.052;58;000.453;Disklavier MIDI Out
081.693;000.049;55;000.367;Disklavier MIDI Out
081.774;000.078;70;000.578;Disklavier MIDI Out
081.816;000.045;60;000.461;Disklavier MIDI Out
081.819;000.045;64;000.492;Disklavier MIDI Out
081.820;000.046;58;000.500;Disklavier MIDI Out
081.809;000.064;55;000.422;Disklavier MIDI Out
081.942;000.041;64;000.586;Disklavier MIDI Out
081.947;000.042;58;000.539;Disklavier MIDI Out
081.915;000.185;76;000.586;Disklavier MIDI Out
082.084;000.139;79;000.625;Disklavier MIDI Out
082.464;000.055;76;000.500;Disklavier MIDI Out
082.434;000.118;88;000.680;Disklavier MIDI Out
082.785;000.111;69;000.547;Disklavier MIDI Out
082.772;000.447;81;000.617;Disklavier MIDI Out
082.097;001.175;55;000.531;Disklavier MIDI Out
082.095;001.220;58;000.484;Disklavier MIDI Out
082.088;001.229;60;000.562;Disklavier MIDI Out
083.172;000.145;70;000.438;Disklavier MIDI Out
083.166;000.164;82;000.523;Disklavier MIDI Out
082.083;001.282;64;000.586;Disklavier MIDI Out
083.496;000.071;53;000.461;Disklavier MIDI Out
083.612;000.044;69;000.516;Disklavier MIDI Out
083.633;000.036;65;000.445;Disklavier MIDI Out
083.629;000.054;60;000.484;Disklavier MIDI Out
083.628;000.062;57;000.492;Disklavier MIDI Out
083.765;000.042;65;000.562;Disklavier MIDI Out
083.747;000.072;72;000.562;Disklavier MIDI Out
083.776;000.043;60;000.500;Disklavier MIDI Out
083.782;000.074;57;000.438;Disklavier MIDI Out
083.885;000.163;77;000.570;Disklavier MIDI Out
084.053;000.177;81;000.602;Disklavier MIDI Out
084.454;000.053;77;000.500;Disklavier MIDI Out
084.436;000.078;89;000.617;Disklavier MIDI Out
084.805;000.080;71;000.469;Disklavier MIDI Out
084.796;000.110;83;000.578;Disklavier MIDI Out
084.081;000.943;65;000.430;Disklavier MIDI Out
084.072;000.986;60;000.406;Disklavier MIDI Out
084.079;001.002;57;000.438;Disklavier MIDI Out
085.148;000.037;84;000.508;Disklavier MIDI Out
085.155;000.047;72;000.422;Disklavier MIDI Out
085.454;000.039;50;000.508;Disklavier MIDI Out
085.599;000.047;69;000.461;Disklavier MIDI Out
085.659;000.027;66;000.438;Disklavier MIDI Out
085.666;000.036;62;000.375;Disklavier MIDI Out
085.660;000.052;60;000.445;Disklavier MIDI Out
085.681;000.069;57;000.336;Disklavier MIDI Out
085.781;000.040;66;000.609;Disklavier MIDI Out
085.741;000.081;72;000.547;Disklavier MIDI Out
085.782;000.048;62;000.523;Disklavier MIDI Out
085.773;000.064;57;000.383;Disklavier MIDI Out
085.785;000.055;60;000.516;Disklavier MIDI Out
085.915;000.028;66;000.523;Disklavier MIDI Out
085.900;000.059;57;000.469;Disklavier MIDI Out
085.917;000.044;62;000.523;Disklavier MIDI Out
085.920;000.045;60;000.539;Disklavier MIDI Out
085.888;000.112;78;000.625;Disklavier MIDI Out
086.045;000.197;81;000.703;Disklavier MIDI Out
086.421;000.037;78;000.609;Disklavier MIDI Out
086.412;000.058;90;000.695;Disklavier MIDI Out
086.723;000.066;71;000.648;Disklavier MIDI Out
086.723;000.084;83;000.727;Disklavier MIDI Out
086.062;000.771;62;000.570;Disklavier MIDI Out
086.050;000.789;66;000.555;Disklavier MIDI Out
086.066;000.798;60;000.523;Disklavier MIDI Out
086.064;000.816;57;000.477;Disklavier MIDI Out
087.040;000.060;72;000.609;Disklavier MIDI Out
087.035;000.085;84;000.719;Disklavier MIDI Out
087.046;000.080;62;000.539;Disklavier MIDI Out
087.049;000.100;66;000.531;Disklavier MIDI Out
087.355;000.076;91;000.742;Disklavier MIDI Out
087.366;000.073;79;000.648;Disklavier MIDI Out
087.357;000.124;67;000.531;Disklavier MIDI Out
087.356;000.128;63;000.555;Disklavier MIDI Out
087.683;000.098;71;000.680;Disklavier MIDI Out
087.678;000.136;83;000.711;Disklavier MIDI Out
087.686;000.319;64;000.609;Disklavier MIDI Out
087.998;000.069;72;000.703;Disklavier MIDI Out
087.992;000.096;84;000.766;Disklavier MIDI Out
087.680;000.672;67;000.570;Disklavier MIDI Out
088.325;000.044;80;000.680;Disklavier MIDI Out
088.315;000.068;92;000.758;Disklavier MIDI Out
088.328;000.236;65;000.508;Disklavier MIDI Out
088.329;000.322;68;000.523;Disklavier MIDI Out
088.641;000.065;76;000.680;Disklavier MIDI Out
088.637;000.094;88;000.742;Disklavier MIDI Out
088.640;000.146;70;000.609;Disklavier MIDI Out
088.643;000.151;67;000.539;Disklavier MIDI Out
088.960;000.060;89;000.719;Disklavier MIDI Out
088.962;000.065;77;000.672;Disklavier MIDI Out
088.974;000.381;68;000.594;Disklavier MIDI Out
089.281;000.374;64;000.625;Disklavier MIDI Out
089.608;000.248;65;000.625;Disklavier MIDI Out
089.604;000.592;61;000.672;Disklavier MIDI Out
089.922;000.424;58;000.656;Disklavier MIDI Out
090.235;000.112;59;000.648;Disklavier MIDI Out
090.246;000.367;56;000.680;Disklavier MIDI Out
090.558;000.356;54;000.680;Disklavier MIDI Out
090.891;000.120;55;000.664;Disklavier MIDI Out
090.871;000.335;51;000.711;Disklavier MIDI Out
091.181;000.331;47;000.688;Disklavier MIDI Out
091.493;000.116;48;000.664;Disklavier MIDI Out
091.491;000.355;44;000.727;Disklavier MIDI Out
091.800;000.385;42;000.703;Disklavier MIDI Out
092.134;000.251;43;000.719;Disklavier MIDI Out
092.534;000.407;36;000.750;Disklavier MIDI Out
093.269;000.191;48;000.711;Disklavier MIDI Out
093.264;000.197;87;000.742;Disklavier MIDI Out
093.276;000.186;43;000.633;Disklavier MIDI Out
093.279;000.189;36;000.586;Disklavier MIDI Out
093.265;000.204;75;000.734;Disklavier MIDI Out
093.274;000.205;79;000.727;Disklavier MIDI Out
093.277;000.211;84;000.648;Disklavier MIDI Out
093.280;000.210;39;000.602;Disklavier MIDI Out
093.576;000.113;75;000.828;Disklavier MIDI Out
093.581;000.108;87;000.758;Disklavier MIDI Out
093.589;000.109;79;000.711;Disklavier MIDI Out
093.585;000.122;48;000.742;Disklavier MIDI Out
093.599;000.111;36;000.625;Disklavier MIDI Out
093.578;000.136;84;000.617;Disklavier MIDI Out
093.592;000.128;43;000.625;Disklavier MIDI Out
093.596;000.136;39;000.586;Disklavier MIDI Out
093.786;000.108;75;000.742;Disklavier MIDI Out
093.792;000.106;48;000.727;Disklavier MIDI Out
093.796;000.103;87;000.750;Disklavier MIDI Out
093.798;000.111;36;000.617;Disklavier MIDI Out
093.786;000.128;84;000.617;Disklavier MIDI Out
093.792;000.123;79;000.680;Disklavier MIDI Out
093.795;000.132;43;000.578;Disklavier MIDI Out
093.801;000.136;39;000.508;Disklavier MIDI Out
093.979;000.057;87;000.727;Disklavier MIDI Out
093.993;000.061;36;000.625;Disklavier MIDI Out
093.981;000.077;84;000.617;Disklavier MIDI Out
093.986;000.081;43;000.602;Disklavier MIDI Out
093.983;000.085;79;000.641;Disklavier MIDI Out
093.984;000.094;39;000.555;Disklavier MIDI Out
093.981;000.099;75;000.734;Disklavier MIDI Out
093.986;000.098;48;000.766;Disklavier MIDI Out
094.277;000.065;60;000.641;Disklavier MIDI Out
094.287;000.072;55;000.633;Disklavier MIDI Out
094.481;000.081;63;000.656;Disklavier MIDI Out
094.485;000.077;51;000.594;Disklavier MIDI Out
094.665;000.088;67;000.734;Disklavier MIDI Out
094.671;000.087;48;000.648;Disklavier MIDI Out
094.860;000.062;51;000.578;Disklavier MIDI Out
094.859;000.067;63;000.633;Disklavier MIDI Out
095.027;000.072;67;000.641;Disklavier MIDI Out
095.023;000.081;48;000.531;Disklavier MIDI Out
095.202;000.073;62;000.656;Disklavier MIDI Out
095.201;000.083;47;000.648;Disklavier MIDI Out
095.375;000.069;67;000.641;Disklavier MIDI Out
095.386;000.068;59;000.555;Disklavier MIDI Out
095.547;000.060;62;000.609;Disklavier MIDI Out
095.560;000.051;55;000.555;Disklavier MIDI Out
095.708;000.080;71;000.711;Disklavier MIDI Out
095.711;000.104;50;000.672;Disklavier MIDI Out
095.885;000.067;67;000.648;Disklavier MIDI Out
095.905;000.059;55;000.586;Disklavier MIDI Out
096.051;000.056;71;000.711;Disklavier MIDI Out
096.061;000.058;50;000.523;Disklavier MIDI Out
096.219;000.074;67;000.742;Disklavier MIDI Out
096.225;000.084;59;000.672;Disklavier MIDI Out
096.382;000.083;74;000.703;Disklavier MIDI Out
096.395;000.080;55;000.617;Disklavier MIDI Out
096.562;000.055;67;000.672;Disklavier MIDI Out
096.568;000.056;59;000.578;Disklavier MIDI Out
096.730;000.081;64;000.711;Disklavier MIDI Out
096.729;000.102;58;000.711;Disklavier MIDI Out
096.908;000.073;67;000.648;Disklavier MIDI Out
096.907;000.108;55;000.531;Disklavier MIDI Out
097.079;000.054;64;000.617;Disklavier MIDI Out
097.073;000.061;58;000.484;Disklavier MIDI Out
097.241;000.089;73;000.805;Disklavier MIDI Out
097.233;000.114;55;000.641;Disklavier MIDI Out
097.422;000.057;52;000.562;Disklavier MIDI Out
097.416;000.080;67;000.680;Disklavier MIDI Out
097.585;000.055;55;000.586;Disklavier MIDI Out
097.579;000.072;73;000.656;Disklavier MIDI Out
097.741;000.080;52;000.633;Disklavier MIDI Out
097.739;000.088;67;000.773;Disklavier MIDI Out
097.916;000.076;76;000.625;Disklavier MIDI Out
097.910;000.108;46;000.570;Disklavier MIDI Out
098.081;000.062;67;000.656;Disklavier MIDI Out
098.075;000.073;52;000.570;Disklavier MIDI Out
098.248;000.076;57;000.641;Disklavier MIDI Out
098.249;000.085;65;000.703;Disklavier MIDI Out
098.410;000.087;53;000.555;Disklavier MIDI Out
098.425;000.076;69;000.641;Disklavier MIDI Out
098.592;000.055;65;000.625;Disklavier MIDI Out
098.577;000.074;57;000.594;Disklavier MIDI Out
098.748;000.084;72;000.734;Disklavier MIDI Out
098.753;000.082;53;000.633;Disklavier MIDI Out
098.917;000.074;69;000.680;Disklavier MIDI Out
098.919;000.076;48;000.555;Disklavier MIDI Out
099.089;000.057;53;000.586;Disklavier MIDI Out
099.084;000.063;72;000.656;Disklavier MIDI Out
099.241;000.078;69;000.727;Disklavier MIDI Out
099.245;000.098;48;000.656;Disklavier MIDI Out
099.421;000.099;77;000.648;Disklavier MIDI Out
099.416;000.149;45;000.625;Disklavier MIDI Out
099.577;000.057;69;000.656;Disklavier MIDI Out
099.571;000.066;48;000.602;Disklavier MIDI Out
099.741;000.095;66;000.719;Disklavier MIDI Out
099.749;000.091;56;000.625;Disklavier MIDI Out
099.915;000.080;72;000.586;Disklavier MIDI Out
099.911;000.109;51;000.609;Disklavier MIDI Out
100.079;000.074;66;000.648;Disklavier MIDI Out
100.087;000.072;56;000.609;Disklavier MIDI Out
100.244;000.092;75;000.773;Disklavier MIDI Out
100.250;000.206;48;000.602;Disklavier MIDI Out
100.412;000.083;66;000.641;Disklavier MIDI Out
100.415;000.101;56;000.609;Disklavier MIDI Out
100.560;000.072;48;000.531;Disklavier MIDI Out
100.565;000.069;75;000.648;Disklavier MIDI Out
100.725;000.086;72;000.719;Disklavier MIDI Out
100.730;000.100;51;000.641;Disklavier MIDI Out
100.893;000.091;78;000.711;Disklavier MIDI Out
100.892;000.095;48;000.570;Disklavier MIDI Out
101.055;000.070;72;000.672;Disklavier MIDI Out
101.045;000.096;44;000.500;Disklavier MIDI Out
101.226;000.084;79;000.719;Disklavier MIDI Out
101.227;000.095;43;000.625;Disklavier MIDI Out
101.395;000.074;71;000.688;Disklavier MIDI Out
101.407;000.087;55;000.562;Disklavier MIDI Out
101.567;000.094;80;000.688;Disklavier MIDI Out
101.562;000.143;53;000.578;Disklavier MIDI Out
101.727;000.081;74;000.734;Disklavier MIDI Out
101.721;000.096;56;000.633;Disklavier MIDI Out
101.791;000.043;82;000.234;Disklavier MIDI Out
101.886;000.072;83;000.734;Disklavier MIDI Out
101.880;000.101;50;000.570;Disklavier MIDI Out
101.269;000.858;77;000.289;Disklavier MIDI Out
102.052;000.076;77;000.695;Disklavier MIDI Out
102.044;000.114;53;000.648;Disklavier MIDI Out
102.216;000.060;86;000.719;Disklavier MIDI Out
102.205;000.107;47;000.609;Disklavier MIDI Out
102.373;000.078;80;000.703;Disklavier MIDI Out
102.369;000.192;50;000.617;Disklavier MIDI Out
102.533;000.090;89;000.711;Disklavier MIDI Out
102.529;000.154;44;000.609;Disklavier MIDI Out
102.708;000.108;83;000.742;Disklavier MIDI Out
102.786;000.055;92;000.156;Disklavier MIDI Out
102.701;000.170;43;000.656;Disklavier MIDI Out
102.887;000.081;53;000.664;Disklavier MIDI Out
102.883;000.114;92;000.656;Disklavier MIDI Out
103.043;000.078;55;000.664;Disklavier MIDI Out
103.044;000.110;91;000.711;Disklavier MIDI Out
103.214;000.080;89;000.727;Disklavier MIDI Out
103.219;000.099;56;000.641;Disklavier MIDI Out
103.384;000.072;86;000.703;Disklavier MIDI Out
103.434;000.039;88;000.305;Disklavier MIDI Out
103.384;000.097;59;000.617;Disklavier MIDI Out
103.542;000.067;87;000.742;Disklavier MIDI Out
103.550;000.070;60;000.602;Disklavier MIDI Out
103.715;000.077;80;000.719;Disklavier MIDI Out
103.721;000.108;53;000.602;Disklavier MIDI Out
103.874;000.079;77;000.695;Disklavier MIDI Out
103.884;000.103;56;000.594;Disklavier MIDI Out
104.050;000.049;55;000.633;Disklavier MIDI Out
104.043;000.066;79;000.750;Disklavier MIDI Out
104.229;000.069;48;000.664;Disklavier MIDI Out
104.399;000.086;51;000.648;Disklavier MIDI Out
104.565;000.075;47;000.672;Disklavier MIDI Out
104.746;000.086;48;000.703;Disklavier MIDI Out
104.924;000.090;39;000.555;Disklavier MIDI Out
105.113;000.079;43;000.531;Disklavier MIDI Out
104.226;001.211;74;000.672;Disklavier MIDI Out
105.401;000.390;36;000.328;Disklavier MIDI Out
104.261;001.565;72;000.219;Disklavier MIDI Out
105.383;000.442;72;000.523;Disklavier MIDI Out
106.477;000.061;36;000.203;Disklavier MIDI Out
106.944;000.188;48;000.117;Disklavier MIDI Out
106.922;000.257;51;000.281;Disklavier MIDI Out
107.147;000.094;55;000.289;Disklavier MIDI Out
107.186;000.092;79;000.367;Disklavier MIDI Out
107.197;000.083;67;000.227;Disklavier MIDI Out
107.165;000.147;43;000.195;Disklavier MIDI Out
107.337;000.071;48;000.164;Disklavier MIDI Out
107.291;000.202;51;000.227;Disklavier MIDI Out
107.447;000.085;55;000.344;Disklavier MIDI Out
107.474;000.081;43;000.281;Disklavier MIDI Out
107.511;000.048;65;000.203;Disklavier MIDI Out
107.481;000.184;77;000.461;Disklavier MIDI Out
107.610;000.083;48;000.297;Disklavier MIDI Out
107.595;000.107;51;000.180;Disklavier MIDI Out
107.736;000.064;55;000.305;Disklavier MIDI Out
107.748;000.072;43;000.352;Disklavier MIDI Out
107.789;000.055;63;000.281;Disklavier MIDI Out
107.765;000.121;75;000.445;Disklavier MIDI Out
107.903;000.055;48;000.266;Disklavier MIDI Out
107.893;000.068;51;000.344;Disklavier MIDI Out
108.029;000.047;74;000.477;Disklavier MIDI Out
108.004;000.088;55;000.297;Disklavier MIDI Out
108.003;000.092;43;000.383;Disklavier MIDI Out
108.067;000.054;62;000.172;Disklavier MIDI Out
108.141;000.073;48;000.305;Disklavier MIDI Out
108.146;000.084;51;000.312;Disklavier MIDI Out
108.284;000.044;72;000.453;Disklavier MIDI Out
108.303;000.047;60;000.227;Disklavier MIDI Out
108.274;000.081;43;000.398;Disklavier MIDI Out
108.268;000.132;55;000.445;Disklavier MIDI Out
108.431;000.034;48;000.336;Disklavier MIDI Out
108.447;000.046;51;000.125;Disklavier MIDI Out
108.633;000.044;31;000.531;Disklavier MIDI Out
108.936;000.130;47;000.422;Disklavier MIDI Out
108.942;000.128;50;000.344;Disklavier MIDI Out
109.127;000.086;55;000.250;Disklavier MIDI Out
109.112;000.114;43;000.391;Disklavier MIDI Out
109.130;000.097;74;000.430;Disklavier MIDI Out
109.128;000.102;86;000.516;Disklavier MIDI Out
109.263;000.079;47;000.383;Disklavier MIDI Out
109.264;000.093;50;000.391;Disklavier MIDI Out
109.385;000.090;55;000.453;Disklavier MIDI Out
109.425;000.060;72;000.375;Disklavier MIDI Out
109.410;000.086;84;000.508;Disklavier MIDI Out
109.409;000.096;43;000.398;Disklavier MIDI Out
109.532;000.093;47;000.391;Disklavier MIDI Out
109.533;000.099;50;000.367;Disklavier MIDI Out
109.660;000.076;55;000.500;Disklavier MIDI Out
109.689;000.055;71;000.469;Disklavier MIDI Out
109.672;000.079;83;000.562;Disklavier MIDI Out
109.676;000.089;43;000.461;Disklavier MIDI Out
109.819;000.088;50;000.375;Disklavier MIDI Out
109.814;000.094;47;000.406;Disklavier MIDI Out
109.951;000.054;69;000.484;Disklavier MIDI Out
109.939;000.079;55;000.453;Disklavier MIDI Out
109.940;000.079;81;000.531;Disklavier MIDI Out
109.948;000.083;43;000.430;Disklavier MIDI Out
110.086;000.077;47;000.422;Disklavier MIDI Out
110.082;000.099;50;000.375;Disklavier MIDI Out
110.236;000.062;67;000.453;Disklavier MIDI Out
110.213;000.098;55;000.477;Disklavier MIDI Out
110.222;000.114;43;000.414;Disklavier MIDI Out
110.370;000.032;50;000.297;Disklavier MIDI Out
110.350;000.056;47;000.461;Disklavier MIDI Out
110.543;000.044;36;000.578;Disklavier MIDI Out
110.227;000.416;79;000.562;Disklavier MIDI Out
110.774;000.138;46;000.484;Disklavier MIDI Out
110.794;000.127;48;000.352;Disklavier MIDI Out
110.951;000.081;52;000.375;Disklavier MIDI Out
110.943;000.095;43;000.438;Disklavier MIDI Out
110.963;000.132;73;000.477;Disklavier MIDI Out
110.959;000.182;85;000.547;Disklavier MIDI Out
111.080;000.093;46;000.422;Disklavier MIDI Out
111.137;000.044;48;000.234;Disklavier MIDI Out
111.207;000.071;52;000.391;Disklavier MIDI Out
111.231;000.076;72;000.438;Disklavier MIDI Out
111.210;000.105;43;000.445;Disklavier MIDI Out
111.334;000.114;46;000.469;Disklavier MIDI Out
111.333;000.119;48;000.398;Disklavier MIDI Out
111.220;000.266;84;000.562;Disklavier MIDI Out
111.468;000.070;52;000.461;Disklavier MIDI Out
111.486;000.097;43;000.477;Disklavier MIDI Out
111.498;000.120;70;000.477;Disklavier MIDI Out
111.497;000.183;82;000.562;Disklavier MIDI Out
111.638;000.064;48;000.344;Disklavier MIDI Out
111.611;000.101;46;000.445;Disklavier MIDI Out
111.740;000.082;52;000.430;Disklavier MIDI Out
111.755;000.099;43;000.469;Disklavier MIDI Out
111.767;000.091;69;000.531;Disklavier MIDI Out
111.765;000.109;81;000.594;Disklavier MIDI Out
111.869;000.115;46;000.500;Disklavier MIDI Out
111.871;000.130;48;000.367;Disklavier MIDI Out
112.031;000.034;67;000.539;Disklavier MIDI Out
112.031;000.051;79;000.586;Disklavier MIDI Out
112.004;000.127;52;000.477;Disklavier MIDI Out
112.013;000.131;43;000.508;Disklavier MIDI Out
112.138;000.045;46;000.531;Disklavier MIDI Out
112.359;000.053;29;000.570;Disklavier MIDI Out
112.659;000.118;45;000.477;Disklavier MIDI Out
112.664;000.126;48;000.469;Disklavier MIDI Out
112.795;000.072;72;000.453;Disklavier MIDI Out
112.801;000.094;53;000.516;Disklavier MIDI Out
112.806;000.115;41;000.500;Disklavier MIDI Out
112.939;000.099;45;000.484;Disklavier MIDI Out
112.957;000.093;48;000.438;Disklavier MIDI Out
112.785;000.292;84;000.555;Disklavier MIDI Out
113.067;000.073;53;000.523;Disklavier MIDI Out
113.084;000.091;41;000.500;Disklavier MIDI Out
113.070;000.121;70;000.523;Disklavier MIDI Out
113.071;000.178;82;000.570;Disklavier MIDI Out
113.202;000.103;45;000.477;Disklavier MIDI Out
113.218;000.093;48;000.422;Disklavier MIDI Out
113.330;000.083;53;000.500;Disklavier MIDI Out
113.336;000.103;41;000.547;Disklavier MIDI Out
113.339;000.106;81;000.602;Disklavier MIDI Out
113.346;000.109;69;000.516;Disklavier MIDI Out
113.479;000.093;45;000.414;Disklavier MIDI Out
113.487;000.092;48;000.406;Disklavier MIDI Out
113.612;000.053;67;000.531;Disklavier MIDI Out
113.604;000.082;79;000.594;Disklavier MIDI Out
113.601;000.092;53;000.516;Disklavier MIDI Out
113.603;000.098;41;000.539;Disklavier MIDI Out
113.740;000.066;45;000.445;Disklavier MIDI Out
113.732;000.105;48;000.477;Disklavier MIDI Out
113.884;000.039;65;000.516;Disklavier MIDI Out
113.881;000.060;77;000.570;Disklavier MIDI Out
113.862;000.115;53;000.555;Disklavier MIDI Out
113.876;000.114;41;000.477;Disklavier MIDI Out
114.011;000.029;48;000.359;Disklavier MIDI Out
113.999;000.074;45;000.422;Disklavier MIDI Out
114.183;000.046;38;000.594;Disklavier MIDI Out
114.447;000.118;50;000.492;Disklavier MIDI Out
114.434;000.137;48;000.359;Disklavier MIDI Out
114.581;000.081;54;000.492;Disklavier MIDI Out
114.569;000.109;45;000.523;Disklavier MIDI Out
114.575;000.156;75;000.547;Disklavier MIDI Out
114.571;000.167;87;000.617;Disklavier MIDI Out
114.728;000.084;50;000.430;Disklavier MIDI Out
114.712;000.146;48;000.398;Disklavier MIDI Out
114.843;000.096;45;000.531;Disklavier MIDI Out
114.830;000.115;54;000.523;Disklavier MIDI Out
114.854;000.121;74;000.555;Disklavier MIDI Out
114.849;000.128;86;000.633;Disklavier MIDI Out
114.958;000.148;48;000.383;Disklavier MIDI Out
114.974;000.145;50;000.477;Disklavier MIDI Out
115.120;000.089;72;000.562;Disklavier MIDI Out
115.112;000.102;84;000.633;Disklavier MIDI Out
115.116;000.107;45;000.539;Disklavier MIDI Out
115.110;000.129;54;000.539;Disklavier MIDI Out
115.245;000.144;48;000.492;Disklavier MIDI Out
115.269;000.135;50;000.453;Disklavier MIDI Out
115.405;000.076;71;000.625;Disklavier MIDI Out
115.398;000.084;83;000.664;Disklavier MIDI Out
115.400;000.111;45;000.539;Disklavier MIDI Out
115.399;000.126;54;000.562;Disklavier MIDI Out
115.542;000.132;48;000.500;Disklavier MIDI Out
115.544;000.139;50;000.523;Disklavier MIDI Out
115.680;000.062;69;000.625;Disklavier MIDI Out
115.674;000.082;81;000.688;Disklavier MIDI Out
115.683;000.117;45;000.570;Disklavier MIDI Out
115.681;000.167;54;000.609;Disklavier MIDI Out
115.824;000.100;48;000.508;Disklavier MIDI Out
115.826;000.193;50;000.570;Disklavier MIDI Out
115.999;000.087;71;000.664;Disklavier MIDI Out
115.994;000.122;83;000.750;Disklavier MIDI Out
116.010;000.179;43;000.547;Disklavier MIDI Out
116.014;000.211;55;000.594;Disklavier MIDI Out
116.202;000.315;47;000.570;Disklavier MIDI Out
116.208;000.335;50;000.562;Disklavier MIDI Out
116.486;000.288;53;000.562;Disklavier MIDI Out
116.495;000.298;41;000.523;Disklavier MIDI Out
116.766;000.189;47;000.422;Disklavier MIDI Out
116.774;000.196;50;000.391;Disklavier MIDI Out
116.980;000.103;41;000.430;Disklavier MIDI Out
116.968;000.124;53;000.453;Disklavier MIDI Out
116.471;000.675;92;000.742;Disklavier MIDI Out
116.480;000.683;80;000.727;Disklavier MIDI Out
117.128;000.114;47;000.422;Disklavier MIDI Out
117.135;000.126;50;000.445;Disklavier MIDI Out
117.242;000.103;43;000.508;Disklavier MIDI Out
117.258;000.098;55;000.492;Disklavier MIDI Out
117.291;000.098;91;000.586;Disklavier MIDI Out
117.301;000.098;79;000.516;Disklavier MIDI Out
117.390;000.127;47;000.469;Disklavier MIDI Out
117.405;000.133;50;000.477;Disklavier MIDI Out
117.550;000.081;77;000.609;Disklavier MIDI Out
117.543;000.101;56;000.523;Disklavier MIDI Out
117.549;000.104;89;000.648;Disklavier MIDI Out
117.537;000.119;44;000.516;Disklavier MIDI Out
117.679;000.123;47;000.508;Disklavier MIDI Out
117.680;000.129;50;000.508;Disklavier MIDI Out
117.816;000.076;79;000.672;Disklavier MIDI Out
117.810;000.092;91;000.734;Disklavier MIDI Out
117.809;000.126;55;000.641;Disklavier MIDI Out
117.808;000.129;43;000.578;Disklavier MIDI Out
117.957;000.146;50;000.586;Disklavier MIDI Out
117.955;000.154;47;000.570;Disklavier MIDI Out
118.102;000.106;53;000.562;Disklavier MIDI Out
118.106;000.123;41;000.555;Disklavier MIDI Out
118.108;000.139;80;000.633;Disklavier MIDI Out
118.099;000.160;92;000.711;Disklavier MIDI Out
118.228;000.154;47;000.469;Disklavier MIDI Out
118.247;000.139;50;000.523;Disklavier MIDI Out
118.366;000.095;55;000.586;Disklavier MIDI Out
118.379;000.092;43;000.547;Disklavier MIDI Out
118.371;000.108;91;000.695;Disklavier MIDI Out
118.374;000.107;79;000.625;Disklavier MIDI Out
118.491;000.151;50;000.453;Disklavier MIDI Out
118.484;000.165;47;000.445;Disklavier MIDI Out
118.632;000.071;77;000.625;Disklavier MIDI Out
118.633;000.084;56;000.570;Disklavier MIDI Out
118.634;000.085;89;000.672;Disklavier MIDI Out
118.641;000.091;44;000.570;Disklavier MIDI Out
118.753;000.127;47;000.398;Disklavier MIDI Out
118.756;000.130;50;000.484;Disklavier MIDI Out
118.893;000.097;53;000.625;Disklavier MIDI Out
118.906;000.088;80;000.648;Disklavier MIDI Out
118.905;000.097;41;000.523;Disklavier MIDI Out
118.902;000.101;92;000.719;Disklavier MIDI Out
119.045;000.131;47;000.500;Disklavier MIDI Out
119.040;000.158;50;000.547;Disklavier MIDI Out
119.181;000.069;79;000.609;Disklavier MIDI Out
119.179;000.074;91;000.664;Disklavier MIDI Out
119.185;000.115;43;000.570;Disklavier MIDI Out
119.195;000.118;55;000.617;Disklavier MIDI Out
119.319;000.066;47;000.523;Disklavier MIDI Out
119.325;000.082;50;000.555;Disklavier MIDI Out
119.501;000.044;77;000.570;Disklavier MIDI Out
119.493;000.062;89;000.703;Disklavier MIDI Out
119.504;000.116;59;000.547;Disklavier MIDI Out
119.510;000.129;47;000.555;Disklavier MIDI Out
119.672;000.047;53;000.445;Disklavier MIDI Out
119.643;000.079;50;000.539;Disklavier MIDI Out
119.668;000.058;55;000.445;Disklavier MIDI Out
119.826;000.097;60;000.539;Disklavier MIDI Out
119.829;000.155;75;000.516;Disklavier MIDI Out
119.828;000.159;87;000.562;Disklavier MIDI Out
119.977;000.058;48;000.469;Disklavier MIDI Out
120.130;000.069;55;000.469;Disklavier MIDI Out
120.119;000.097;74;000.484;Disklavier MIDI Out
120.117;000.102;86;000.555;Disklavier MIDI Out
120.243;000.046;43;000.422;Disklavier MIDI Out
120.413;000.070;48;000.453;Disklavier MIDI Out
120.411;000.083;72;000.383;Disklavier MIDI Out
120.397;000.109;84;000.484;Disklavier MIDI Out
120.545;000.054;36;000.359;Disklavier MIDI Out
120.714;000.059;43;000.359;Disklavier MIDI Out
120.720;000.055;71;000.336;Disklavier MIDI Out
120.701;000.080;83;000.469;Disklavier MIDI Out
120.828;000.053;31;000.516;Disklavier MIDI Out
121.133;000.179;48;000.305;Disklavier MIDI Out
121.122;000.207;84;000.430;Disklavier MIDI Out
121.127;000.204;72;000.352;Disklavier MIDI Out
121.136;000.268;36;000.328;Disklavier MIDI Out
122.009;000.054;36;000.250;Disklavier MIDI Out
122.361;000.078;63;000.219;Disklavier MIDI Out
122.364;000.082;48;000.219;Disklavier MIDI Out
122.355;000.092;67;000.320;Disklavier MIDI Out
122.320;000.152;51;000.297;Disklavier MIDI Out
122.534;000.049;72;000.227;Disklavier MIDI Out
122.520;000.066;55;000.312;Disklavier MIDI Out
122.554;000.055;60;000.141;Disklavier MIDI Out
122.536;000.097;43;000.273;Disklavier MIDI Out
122.636;000.032;63;000.359;Disklavier MIDI Out
122.634;000.044;67;000.430;Disklavier MIDI Out
122.674;000.089;51;000.359;Disklavier MIDI Out
122.672;000.093;48;000.312;Disklavier MIDI Out
122.776;000.063;63;000.555;Disklavier MIDI Out
122.798;000.094;55;000.414;Disklavier MIDI Out
122.805;000.109;75;000.461;Disklavier MIDI Out
122.812;000.103;43;000.414;Disklavier MIDI Out
122.890;000.039;67;000.453;Disklavier MIDI Out
122.931;000.027;72;000.359;Disklavier MIDI Out
122.952;000.062;51;000.391;Disklavier MIDI Out
122.947;000.069;48;000.391;Disklavier MIDI Out
123.047;000.059;67;000.547;Disklavier MIDI Out
123.055;000.087;55;000.516;Disklavier MIDI Out
123.073;000.105;43;000.445;Disklavier MIDI Out
123.058;000.122;79;000.609;Disklavier MIDI Out
123.176;000.041;72;000.484;Disklavier MIDI Out
123.204;000.033;75;000.547;Disklavier MIDI Out
123.211;000.071;51;000.414;Disklavier MIDI Out
123.211;000.080;48;000.383;Disklavier MIDI Out
123.330;000.080;55;000.508;Disklavier MIDI Out
123.359;000.059;84;000.422;Disklavier MIDI Out
123.382;000.038;83;000.453;Disklavier MIDI Out
123.329;000.110;72;000.523;Disklavier MIDI Out
123.341;000.110;43;000.469;Disklavier MIDI Out
123.421;000.059;84;000.094;Disklavier MIDI Out
123.447;000.046;75;000.477;Disklavier MIDI Out
123.469;000.033;79;000.539;Disklavier MIDI Out
123.492;000.079;51;000.453;Disklavier MIDI Out
123.480;000.096;48;000.422;Disklavier MIDI Out
123.610;000.102;75;000.586;Disklavier MIDI Out
123.604;000.120;55;000.562;Disklavier MIDI Out
123.734;000.039;51;000.445;Disklavier MIDI Out
123.619;000.154;87;000.555;Disklavier MIDI Out
123.623;000.160;43;000.445;Disklavier MIDI Out
123.746;000.042;48;000.477;Disklavier MIDI Out
123.758;000.058;79;000.430;Disklavier MIDI Out
123.751;000.136;84;000.500;Disklavier MIDI Out
123.914;000.029;43;000.500;Disklavier MIDI Out
123.906;000.040;31;000.586;Disklavier MIDI Out
123.920;000.068;74;000.492;Disklavier MIDI Out
123.912;000.126;86;000.547;Disklavier MIDI Out
124.058;000.038;83;000.602;Disklavier MIDI Out
124.065;000.035;79;000.516;Disklavier MIDI Out
124.095;000.085;50;000.430;Disklavier MIDI Out
124.088;000.115;47;000.516;Disklavier MIDI Out
124.219;000.044;71;000.578;Disklavier MIDI Out
124.235;000.061;55;000.477;Disklavier MIDI Out
124.240;000.102;43;000.477;Disklavier MIDI Out
124.222;000.127;83;000.648;Disklavier MIDI Out
124.343;000.030;74;000.602;Disklavier MIDI Out
124.351;000.035;79;000.594;Disklavier MIDI Out
124.372;000.076;47;000.445;Disklavier MIDI Out
124.371;000.103;50;000.445;Disklavier MIDI Out
124.504;000.040;67;000.555;Disklavier MIDI Out
124.498;000.065;55;000.539;Disklavier MIDI Out
124.501;000.104;43;000.531;Disklavier MIDI Out
124.500;000.120;79;000.688;Disklavier MIDI Out
124.623;000.039;71;000.531;Disklavier MIDI Out
124.647;000.023;74;000.484;Disklavier MIDI Out
124.638;000.127;47;000.406;Disklavier MIDI Out
124.658;000.114;50;000.375;Disklavier MIDI Out
124.792;000.036;62;000.484;Disklavier MIDI Out
124.778;000.066;55;000.508;Disklavier MIDI Out
124.773;000.111;43;000.531;Disklavier MIDI Out
124.775;000.124;74;000.664;Disklavier MIDI Out
124.907;000.040;67;000.500;Disklavier MIDI Out
124.921;000.028;71;000.477;Disklavier MIDI Out
124.930;000.101;47;000.422;Disklavier MIDI Out
124.932;000.111;50;000.406;Disklavier MIDI Out
125.055;000.045;55;000.531;Disklavier MIDI Out
125.053;000.047;59;000.539;Disklavier MIDI Out
125.051;000.123;71;000.664;Disklavier MIDI Out
125.054;000.125;43;000.523;Disklavier MIDI Out
125.203;000.023;67;000.445;Disklavier MIDI Out
125.204;000.032;62;000.398;Disklavier MIDI Out
125.201;000.074;47;000.453;Disklavier MIDI Out
125.229;000.063;50;000.359;Disklavier MIDI Out
125.345;000.040;55;000.562;Disklavier MIDI Out
125.386;000.047;65;000.297;Disklavier MIDI Out
125.335;000.135;67;000.594;Disklavier MIDI Out
125.471;000.037;59;000.531;Disklavier MIDI Out
125.328;000.183;43;000.531;Disklavier MIDI Out
125.482;000.046;47;000.523;Disklavier MIDI Out
125.503;000.039;50;000.305;Disklavier MIDI Out
125.509;000.040;62;000.469;Disklavier MIDI Out
125.663;000.041;36;000.594;Disklavier MIDI Out
125.912;000.053;67;000.469;Disklavier MIDI Out
125.912;000.109;48;000.391;Disklavier MIDI Out
125.897;000.130;70;000.562;Disklavier MIDI Out
125.904;000.126;46;000.398;Disklavier MIDI Out
126.051;000.052;64;000.469;Disklavier MIDI Out
126.057;000.066;52;000.375;Disklavier MIDI Out
126.056;000.101;43;000.453;Disklavier MIDI Out
126.056;000.111;76;000.500;Disklavier MIDI Out
126.176;000.021;70;000.484;Disklavier MIDI Out
126.206;000.069;48;000.359;Disklavier MIDI Out
126.190;000.107;46;000.477;Disklavier MIDI Out
126.301;000.052;67;000.516;Disklavier MIDI Out
126.311;000.083;52;000.469;Disklavier MIDI Out
126.320;000.119;43;000.508;Disklavier MIDI Out
126.312;000.130;79;000.594;Disklavier MIDI Out
126.420;000.038;70;000.555;Disklavier MIDI Out
126.429;000.051;76;000.328;Disklavier MIDI Out
126.464;000.112;48;000.453;Disklavier MIDI Out
126.449;000.135;46;000.523;Disklavier MIDI Out
126.582;000.080;70;000.609;Disklavier MIDI Out
126.601;000.101;43;000.469;Disklavier MIDI Out
126.576;000.127;52;000.516;Disklavier MIDI Out
126.580;000.127;82;000.680;Disklavier MIDI Out
126.686;000.045;76;000.414;Disklavier MIDI Out
126.698;000.036;79;000.523;Disklavier MIDI Out
126.742;000.098;48;000.453;Disklavier MIDI Out
126.730;000.116;46;000.523;Disklavier MIDI Out
126.841;000.033;76;000.625;Disklavier MIDI Out
126.852;000.114;52;000.547;Disklavier MIDI Out
126.844;000.133;88;000.672;Disklavier MIDI Out
126.856;000.123;43;000.547;Disklavier MIDI Out
126.959;000.024;79;000.664;Disklavier MIDI Out
126.979;000.030;82;000.609;Disklavier MIDI Out
127.006;000.104;48;000.484;Disklavier MIDI Out
126.986;000.131;46;000.578;Disklavier MIDI Out
127.118;000.071;79;000.664;Disklavier MIDI Out
127.115;000.137;52;000.578;Disklavier MIDI Out
127.122;000.146;43;000.555;Disklavier MIDI Out
127.120;000.165;91;000.711;Disklavier MIDI Out
127.253;000.040;46;000.578;Disklavier MIDI Out
127.270;000.029;48;000.414;Disklavier MIDI Out
127.246;000.082;88;000.539;Disklavier MIDI Out
127.252;000.083;82;000.492;Disklavier MIDI Out
127.423;000.001;29;000.477;Disklavier MIDI Out
127.411;000.035;41;000.594;Disklavier MIDI Out
127.420;000.032;77;000.586;Disklavier MIDI Out
127.417;000.141;89;000.617;Disklavier MIDI Out
127.570;000.031;81;000.586;Disklavier MIDI Out
127.582;000.031;84;000.555;Disklavier MIDI Out
127.602;000.123;45;000.492;Disklavier MIDI Out
127.598;000.131;48;000.531;Disklavier MIDI Out
127.752;000.022;86;000.500;Disklavier MIDI Out
127.739;000.039;72;000.562;Disklavier MIDI Out
127.742;000.105;53;000.531;Disklavier MIDI Out
127.737;000.118;84;000.594;Disklavier MIDI Out
127.752;000.116;41;000.531;Disklavier MIDI Out
127.855;000.033;77;000.555;Disklavier MIDI Out
127.864;000.033;81;000.586;Disklavier MIDI Out
127.884;000.086;45;000.445;Disklavier MIDI Out
127.886;000.122;48;000.438;Disklavier MIDI Out
128.005;000.044;69;000.578;Disklavier MIDI Out
128.020;000.033;83;000.547;Disklavier MIDI Out
128.003;000.111;53;000.602;Disklavier MIDI Out
128.009;000.117;81;000.562;Disklavier MIDI Out
128.012;000.122;41;000.562;Disklavier MIDI Out
128.134;000.038;77;000.555;Disklavier MIDI Out
128.139;000.043;72;000.547;Disklavier MIDI Out
128.136;000.151;45;000.500;Disklavier MIDI Out
128.157;000.136;48;000.477;Disklavier MIDI Out
128.280;000.041;65;000.594;Disklavier MIDI Out
128.293;000.107;53;000.531;Disklavier MIDI Out
128.279;000.123;77;000.664;Disklavier MIDI Out
128.294;000.119;41;000.555;Disklavier MIDI Out
128.403;000.034;69;000.578;Disklavier MIDI Out
128.435;000.033;72;000.352;Disklavier MIDI Out
128.436;000.118;45;000.516;Disklavier MIDI Out
128.447;000.126;48;000.461;Disklavier MIDI Out
128.569;000.039;60;000.594;Disklavier MIDI Out
128.566;000.111;72;000.711;Disklavier MIDI Out
128.572;000.126;41;000.555;Disklavier MIDI Out
128.570;000.129;53;000.555;Disklavier MIDI Out
128.699;000.023;65;000.438;Disklavier MIDI Out
128.714;000.102;45;000.523;Disklavier MIDI Out
128.733;000.101;48;000.477;Disklavier MIDI Out
128.843;000.036;57;000.594;Disklavier MIDI Out
128.863;000.125;67;000.547;Disklavier MIDI Out
128.850;000.148;69;000.547;Disklavier MIDI Out
128.856;000.147;41;000.555;Disklavier MIDI Out
128.984;000.056;65;000.484;Disklavier MIDI Out
128.979;000.073;45;000.516;Disklavier MIDI Out
129.152;000.060;38;000.617;Disklavier MIDI Out
129.393;000.092;66;000.445;Disklavier MIDI Out
129.436;000.102;48;000.273;Disklavier MIDI Out
129.377;000.162;69;000.531;Disklavier MIDI Out
129.416;000.126;50;000.484;Disklavier MIDI Out
129.535;000.083;60;000.484;Disklavier MIDI Out
129.529;000.106;54;000.555;Disklavier MIDI Out
129.535;000.101;72;000.547;Disklavier MIDI Out
129.554;000.118;45;000.531;Disklavier MIDI Out
129.651;000.032;69;000.555;Disklavier MIDI Out
129.649;000.040;66;000.492;Disklavier MIDI Out
129.681;000.120;48;000.469;Disklavier MIDI Out
129.699;000.110;50;000.438;Disklavier MIDI Out
129.792;000.088;66;000.594;Disklavier MIDI Out
129.849;000.044;70;000.234;Disklavier MIDI Out
129.820;000.101;45;000.555;Disklavier MIDI Out
129.807;000.118;78;000.617;Disklavier MIDI Out
129.815;000.117;54;000.516;Disklavier MIDI Out
129.931;000.030;69;000.555;Disklavier MIDI Out
129.928;000.054;72;000.602;Disklavier MIDI Out
129.966;000.112;50;000.508;Disklavier MIDI Out
129.949;000.147;48;000.539;Disklavier MIDI Out
130.071;000.050;69;000.555;Disklavier MIDI Out
130.092;000.108;54;000.531;Disklavier MIDI Out
130.083;000.124;45;000.586;Disklavier MIDI Out
130.086;000.147;81;000.648;Disklavier MIDI Out
130.204;000.032;72;000.609;Disklavier MIDI Out
130.215;000.045;78;000.609;Disklavier MIDI Out
130.236;000.117;50;000.500;Disklavier MIDI Out
130.235;000.134;48;000.492;Disklavier MIDI Out
130.346;000.054;72;000.695;Disklavier MIDI Out
130.358;000.110;45;000.602;Disklavier MIDI Out
130.355;000.117;54;000.562;Disklavier MIDI Out
130.348;000.135;84;000.734;Disklavier MIDI Out
130.482;000.035;78;000.586;Disklavier MIDI Out
130.480;000.054;81;000.641;Disklavier MIDI Out
130.491;000.145;48;000.484;Disklavier MIDI Out
130.500;000.138;50;000.531;Disklavier MIDI Out
130.647;000.026;82;000.438;Disklavier MIDI Out
130.626;000.119;78;000.742;Disklavier MIDI Out
130.629;000.133;45;000.594;Disklavier MIDI Out
130.642;000.130;90;000.617;Disklavier MIDI Out
130.624;000.151;54;000.625;Disklavier MIDI Out
130.747;000.062;81;000.516;Disklavier MIDI Out
130.677;000.143;85;000.188;Disklavier MIDI Out
130.762;000.058;84;000.617;Disklavier MIDI Out
130.779;000.088;48;000.539;Disklavier MIDI Out
130.778;000.138;50;000.555;Disklavier MIDI Out
130.929;000.124;79;000.664;Disklavier MIDI Out
130.942;000.123;55;000.508;Disklavier MIDI Out
130.932;000.142;91;000.742;Disklavier MIDI Out
130.938;000.137;43;000.570;Disklavier MIDI Out
131.058;000.051;83;000.547;Disklavier MIDI Out
131.067;000.056;86;000.633;Disklavier MIDI Out
131.079;000.170;47;000.531;Disklavier MIDI Out
131.083;000.168;50;000.523;Disklavier MIDI Out
131.240;000.110;80;000.633;Disklavier MIDI Out
131.241;000.129;53;000.523;Disklavier MIDI Out
131.237;000.150;92;000.711;Disklavier MIDI Out
131.245;000.144;41;000.508;Disklavier MIDI Out
131.373;000.036;83;000.492;Disklavier MIDI Out
131.365;000.088;86;000.609;Disklavier MIDI Out
131.396;000.124;50;000.516;Disklavier MIDI Out
131.388;000.136;47;000.500;Disklavier MIDI Out
131.529;000.110;53;000.562;Disklavier MIDI Out
131.521;000.127;80;000.656;Disklavier MIDI Out
131.540;000.110;41;000.555;Disklavier MIDI Out
131.526;000.161;92;000.703;Disklavier MIDI Out
131.653;000.056;83;000.398;Disklavier MIDI Out
131.644;000.132;86;000.523;Disklavier MIDI Out
131.665;000.123;47;000.484;Disklavier MIDI Out
131.670;000.121;50;000.508;Disklavier MIDI Out
131.806;000.098;43;000.547;Disklavier MIDI Out
131.808;000.098;55;000.570;Disklavier MIDI Out
131.805;000.122;79;000.586;Disklavier MIDI Out
131.791;000.141;91;000.641;Disklavier MIDI Out
131.934;000.129;83;000.516;Disklavier MIDI Out
131.944;000.131;50;000.539;Disklavier MIDI Out
131.941;000.137;47;000.438;Disklavier MIDI Out
131.928;000.151;86;000.609;Disklavier MIDI Out
132.077;000.088;77;000.633;Disklavier MIDI Out
132.085;000.095;56;000.539;Disklavier MIDI Out
132.084;000.119;44;000.539;Disklavier MIDI Out
132.073;000.136;89;000.672;Disklavier MIDI Out
132.219;000.142;47;000.500;Disklavier MIDI Out
132.228;000.135;50;000.508;Disklavier MIDI Out
132.217;000.159;83;000.562;Disklavier MIDI Out
132.213;000.167;86;000.641;Disklavier MIDI Out
132.357;000.108;79;000.688;Disklavier MIDI Out
132.368;000.104;43;000.500;Disklavier MIDI Out
132.361;000.120;55;000.578;Disklavier MIDI Out
132.362;000.133;91;000.656;Disklavier MIDI Out
132.515;000.063;83;000.508;Disklavier MIDI Out
132.520;000.143;50;000.523;Disklavier MIDI Out
132.517;000.149;47;000.539;Disklavier MIDI Out
132.501;000.171;86;000.617;Disklavier MIDI Out
132.662;000.124;53;000.570;Disklavier MIDI Out
132.669;000.119;41;000.531;Disklavier MIDI Out
132.663;000.126;80;000.617;Disklavier MIDI Out
132.664;000.145;92;000.648;Disklavier MIDI Out
132.809;000.132;47;000.500;Disklavier MIDI Out
132.808;000.145;50;000.547;Disklavier MIDI Out
132.803;000.154;86;000.594;Disklavier MIDI Out
132.810;000.162;83;000.461;Disklavier MIDI Out
132.938;000.097;55;000.586;Disklavier MIDI Out
132.946;000.090;43;000.500;Disklavier MIDI Out
132.942;000.104;79;000.633;Disklavier MIDI Out
132.939;000.117;91;000.680;Disklavier MIDI Out
133.072;000.135;47;000.547;Disklavier MIDI Out
133.071;000.143;86;000.602;Disklavier MIDI Out
133.069;000.151;50;000.523;Disklavier MIDI Out
133.075;000.155;83;000.516;Disklavier MIDI Out
133.207;000.094;77;000.664;Disklavier MIDI Out
133.215;000.090;56;000.641;Disklavier MIDI Out
133.224;000.100;44;000.555;Disklavier MIDI Out
133.208;000.118;89;000.680;Disklavier MIDI Out
133.364;000.107;47;000.445;Disklavier MIDI Out
133.361;000.116;50;000.477;Disklavier MIDI Out
133.406;000.082;87;000.078;Disklavier MIDI Out
133.341;000.151;86;000.562;Disklavier MIDI Out
133.354;000.148;83;000.508;Disklavier MIDI Out
133.499;000.093;41;000.516;Disklavier MIDI Out
133.489;000.104;80;000.641;Disklavier MIDI Out
133.492;000.108;53;000.602;Disklavier MIDI Out
133.495;000.135;92;000.672;Disklavier MIDI Out
133.639;000.101;47;000.500;Disklavier MIDI Out
133.641;000.127;50;000.523;Disklavier MIDI Out
133.636;000.133;86;000.516;Disklavier MIDI Out
133.662;000.114;83;000.383;Disklavier MIDI Out
133.776;000.088;79;000.547;Disklavier MIDI Out
133.773;000.121;91;000.547;Disklavier MIDI Out
133.789;000.107;55;000.578;Disklavier MIDI Out
133.787;000.110;43;000.523;Disklavier MIDI Out
133.916;000.031;86;000.555;Disklavier MIDI Out
133.917;000.037;83;000.531;Disklavier MIDI Out
133.916;000.040;47;000.469;Disklavier MIDI Out
133.926;000.040;50;000.469;Disklavier MIDI Out
134.062;000.039;77;000.625;Disklavier MIDI Out
134.079;000.079;59;000.555;Disklavier MIDI Out
134.070;000.121;47;000.484;Disklavier MIDI Out
134.059;000.144;89;000.680;Disklavier MIDI Out
134.209;000.021;86;000.508;Disklavier MIDI Out
134.210;000.024;79;000.477;Disklavier MIDI Out
134.200;000.044;50;000.492;Disklavier MIDI Out
134.218;000.031;81;000.344;Disklavier MIDI Out
134.198;000.056;55;000.570;Disklavier MIDI Out
134.373;000.078;60;000.500;Disklavier MIDI Out
134.373;000.106;75;000.438;Disklavier MIDI Out
134.385;000.108;48;000.477;Disklavier MIDI Out
134.364;000.169;87;000.516;Disklavier MIDI Out
134.493;000.050;51;000.422;Disklavier MIDI Out
134.513;000.033;79;000.453;Disklavier MIDI Out
134.537;000.022;84;000.422;Disklavier MIDI Out
134.522;000.042;55;000.219;Disklavier MIDI Out
134.662;000.069;74;000.547;Disklavier MIDI Out
134.657;000.085;86;000.602;Disklavier MIDI Out
134.682;000.062;55;000.539;Disklavier MIDI Out
134.680;000.125;43;000.422;Disklavier MIDI Out
134.804;000.033;50;000.406;Disklavier MIDI Out
134.810;000.027;77;000.406;Disklavier MIDI Out
134.805;000.033;79;000.539;Disklavier MIDI Out
134.806;000.045;47;000.469;Disklavier MIDI Out
134.968;000.104;72;000.438;Disklavier MIDI Out
134.986;000.100;48;000.383;Disklavier MIDI Out
134.976;000.146;84;000.352;Disklavier MIDI Out
135.121;000.022;79;000.484;Disklavier MIDI Out
135.133;000.032;75;000.336;Disklavier MIDI Out
135.118;000.049;39;000.453;Disklavier MIDI Out
135.142;000.040;43;000.281;Disklavier MIDI Out
135.308;000.126;43;000.500;Disklavier MIDI Out
135.347;000.109;31;000.414;Disklavier MIDI Out
135.303;000.188;71;000.500;Disklavier MIDI Out
135.307;000.222;83;000.477;Disklavier MIDI Out
135.506;000.048;35;000.359;Disklavier MIDI Out
135.519;000.037;38;000.281;Disklavier MIDI Out
135.517;000.043;79;000.430;Disklavier MIDI Out
135.525;000.036;74;000.305;Disklavier MIDI Out
135.969;000.287;72;000.352;Disklavier MIDI Out
135.947;000.315;48;000.312;Disklavier MIDI Out
135.972;000.315;75;000.422;Disklavier MIDI Out
135.970;000.324;36;000.219;Disklavier MIDI Out
135.973;000.326;79;000.469;Disklavier MIDI Out
135.977;000.332;43;000.250;Disklavier MIDI Out
135.946;000.365;84;000.500;Disklavier MIDI Out
135.966;000.359;39;000.266;Disklavier MIDI Out
137.707;000.541;60;000.164;Disklavier MIDI Out
138.109;000.223;68;000.273;Disklavier MIDI Out
138.325;000.119;67;000.367;Disklavier MIDI Out
138.224;000.244;63;000.164;Disklavier MIDI Out
138.511;000.062;68;000.328;Disklavier MIDI Out
138.491;000.217;60;000.234;Disklavier MIDI Out
138.644;000.103;67;000.320;Disklavier MIDI Out
138.784;000.089;68;000.328;Disklavier MIDI Out
138.697;000.180;63;000.266;Disklavier MIDI Out
138.941;000.043;67;000.289;Disklavier MIDI Out
139.050;000.062;68;000.445;Disklavier MIDI Out
138.920;000.201;60;000.297;Disklavier MIDI Out
139.149;000.083;67;000.375;Disklavier MIDI Out
139.114;000.151;63;000.305;Disklavier MIDI Out
139.282;000.055;68;000.383;Disklavier MIDI Out
139.301;000.118;60;000.352;Disklavier MIDI Out
139.403;000.085;67;000.406;Disklavier MIDI Out
139.462;000.139;63;000.367;Disklavier MIDI Out
139.528;000.091;68;000.391;Disklavier MIDI Out
138.910;000.717;75;000.492;Disklavier MIDI Out
139.651;000.049;67;000.398;Disklavier MIDI Out
139.649;000.157;60;000.344;Disklavier MIDI Out
139.775;000.059;68;000.461;Disklavier MIDI Out
139.826;000.092;63;000.320;Disklavier MIDI Out
139.879;000.071;67;000.367;Disklavier MIDI Out
139.994;000.058;68;000.414;Disklavier MIDI Out
140.014;000.077;60;000.328;Disklavier MIDI Out
140.116;000.076;67;000.406;Disklavier MIDI Out
139.636;000.585;72;000.523;Disklavier MIDI Out
140.145;000.141;63;000.375;Disklavier MIDI Out
140.235;000.081;68;000.398;Disklavier MIDI Out
140.364;000.081;67;000.430;Disklavier MIDI Out
140.346;000.210;59;000.281;Disklavier MIDI Out
140.495;000.067;68;000.430;Disklavier MIDI Out
140.616;000.065;67;000.430;Disklavier MIDI Out
140.557;000.164;62;000.328;Disklavier MIDI Out
140.727;000.055;68;000.398;Disklavier MIDI Out
140.838;000.070;67;000.430;Disklavier MIDI Out
140.745;000.190;59;000.383;Disklavier MIDI Out
140.934;000.137;68;000.445;Disklavier MIDI Out
140.947;000.169;62;000.367;Disklavier MIDI Out
141.115;000.058;67;000.492;Disklavier MIDI Out
141.130;000.191;59;000.391;Disklavier MIDI Out
141.251;000.082;68;000.477;Disklavier MIDI Out
141.370;000.090;67;000.414;Disklavier MIDI Out
141.336;000.134;62;000.383;Disklavier MIDI Out
141.497;000.061;68;000.422;Disklavier MIDI Out
141.099;000.527;74;000.633;Disklavier MIDI Out
141.530;000.181;59;000.328;Disklavier MIDI Out
141.735;000.036;68;000.359;Disklavier MIDI Out
141.719;000.149;62;000.375;Disklavier MIDI Out
141.632;000.240;67;000.398;Disklavier MIDI Out
141.886;000.037;79;000.609;Disklavier MIDI Out
141.902;000.148;59;000.352;Disklavier MIDI Out
142.001;000.082;67;000.430;Disklavier MIDI Out
142.118;000.058;68;000.375;Disklavier MIDI Out
142.102;000.114;62;000.344;Disklavier MIDI Out
142.244;000.054;67;000.453;Disklavier MIDI Out
142.348;000.054;68;000.414;Disklavier MIDI Out
142.247;000.183;59;000.383;Disklavier MIDI Out
142.459;000.052;67;000.430;Disklavier MIDI Out
142.552;000.069;68;000.453;Disklavier MIDI Out
142.441;000.272;62;000.312;Disklavier MIDI Out
142.680;000.133;67;000.430;Disklavier MIDI Out
142.837;000.085;69;000.414;Disklavier MIDI Out
142.719;000.222;58;000.266;Disklavier MIDI Out
142.976;000.079;67;000.422;Disklavier MIDI Out
142.923;000.152;61;000.336;Disklavier MIDI Out
143.092;000.065;69;000.422;Disklavier MIDI Out
143.105;000.139;58;000.359;Disklavier MIDI Out
143.206;000.107;67;000.469;Disklavier MIDI Out
143.338;000.107;69;000.453;Disklavier MIDI Out
143.289;000.169;61;000.359;Disklavier MIDI Out
143.485;000.055;67;000.469;Disklavier MIDI Out
143.493;000.183;58;000.359;Disklavier MIDI Out
143.623;000.081;69;000.500;Disklavier MIDI Out
143.692;000.134;61;000.320;Disklavier MIDI Out
143.753;000.078;67;000.383;Disklavier MIDI Out
143.877;000.083;69;000.422;Disklavier MIDI Out
143.893;000.136;58;000.352;Disklavier MIDI Out
144.002;000.070;67;000.438;Disklavier MIDI Out
144.144;000.102;69;000.359;Disklavier MIDI Out
144.081;000.199;61;000.297;Disklavier MIDI Out
144.274;000.059;67;000.438;Disklavier MIDI Out
143.468;000.867;75;000.633;Disklavier MIDI Out
144.272;000.213;58;000.328;Disklavier MIDI Out
144.431;000.090;69;000.398;Disklavier MIDI Out
144.561;000.064;67;000.398;Disklavier MIDI Out
144.472;000.161;61;000.297;Disklavier MIDI Out
144.694;000.041;69;000.367;Disklavier MIDI Out
144.672;000.120;58;000.367;Disklavier MIDI Out
144.795;000.071;67;000.414;Disklavier MIDI Out
144.843;000.073;61;000.352;Disklavier MIDI Out
144.900;000.048;69;000.445;Disklavier MIDI Out
144.269;000.680;76;000.562;Disklavier MIDI Out
145.067;000.099;69;000.461;Disklavier MIDI Out
145.199;000.078;70;000.438;Disklavier MIDI Out
145.076;000.235;57;000.297;Disklavier MIDI Out
145.333;000.058;69;000.406;Disklavier MIDI Out
145.261;000.170;60;000.320;Disklavier MIDI Out
145.438;000.078;70;000.430;Disklavier MIDI Out
145.484;000.148;57;000.359;Disklavier MIDI Out
145.554;000.084;69;000.445;Disklavier MIDI Out
145.672;000.129;70;000.500;Disklavier MIDI Out
145.667;000.163;60;000.352;Disklavier MIDI Out
145.828;000.090;69;000.461;Disklavier MIDI Out
145.857;000.172;57;000.359;Disklavier MIDI Out
145.988;000.087;70;000.453;Disklavier MIDI Out
146.116;000.076;69;000.398;Disklavier MIDI Out
146.054;000.139;60;000.320;Disklavier MIDI Out
146.253;000.049;70;000.406;Disklavier MIDI Out
145.818;000.612;76;000.648;Disklavier MIDI Out
146.372;000.070;69;000.352;Disklavier MIDI Out
146.251;000.216;57;000.320;Disklavier MIDI Out
146.472;000.106;70;000.453;Disklavier MIDI Out
146.464;000.138;60;000.297;Disklavier MIDI Out
146.623;000.069;69;000.414;Disklavier MIDI Out
146.633;000.168;57;000.375;Disklavier MIDI Out
146.753;000.070;70;000.453;Disklavier MIDI Out
146.869;000.068;69;000.414;Disklavier MIDI Out
146.835;000.105;60;000.305;Disklavier MIDI Out
146.986;000.065;70;000.453;Disklavier MIDI Out
147.108;000.077;69;000.445;Disklavier MIDI Out
147.012;000.174;57;000.336;Disklavier MIDI Out
147.162;000.056;60;000.422;Disklavier MIDI Out
147.217;000.061;70;000.453;Disklavier MIDI Out
147.350;000.111;69;000.477;Disklavier MIDI Out
147.352;000.189;60;000.500;Disklavier MIDI Out
147.485;000.096;70;000.477;Disklavier MIDI Out
147.611;000.078;69;000.453;Disklavier MIDI Out
147.543;000.164;63;000.398;Disklavier MIDI Out
146.614;001.139;77;000.539;Disklavier MIDI Out
147.723;000.082;70;000.539;Disklavier MIDI Out
147.725;000.181;60;000.453;Disklavier MIDI Out
147.842;000.097;69;000.531;Disklavier MIDI Out
147.948;000.137;70;000.602;Disklavier MIDI Out
147.904;000.204;63;000.445;Disklavier MIDI Out
148.104;000.115;69;000.594;Disklavier MIDI Out
148.120;000.182;60;000.422;Disklavier MIDI Out
148.258;000.085;70;000.523;Disklavier MIDI Out
148.312;000.143;63;000.367;Disklavier MIDI Out
148.382;000.085;69;000.492;Disklavier MIDI Out
148.502;000.057;70;000.508;Disklavier MIDI Out
148.486;000.182;60;000.414;Disklavier MIDI Out
148.084;000.603;77;000.703;Disklavier MIDI Out
148.620;000.084;69;000.523;Disklavier MIDI Out
148.721;000.101;70;000.562;Disklavier MIDI Out
148.701;000.152;63;000.375;Disklavier MIDI Out
148.861;000.059;69;000.578;Disklavier MIDI Out
148.868;000.164;60;000.477;Disklavier MIDI Out
149.016;000.079;70;000.492;Disklavier MIDI Out
149.064;000.126;63;000.344;Disklavier MIDI Out
149.134;000.083;69;000.500;Disklavier MIDI Out
149.253;000.051;70;000.531;Disklavier MIDI Out
149.225;000.164;60;000.398;Disklavier MIDI Out
148.847;000.568;78;000.719;Disklavier MIDI Out
149.377;000.097;69;000.484;Disklavier MIDI Out
149.485;000.093;70;000.523;Disklavier MIDI Out
149.440;000.201;63;000.281;Disklavier MIDI Out
149.654;000.067;71;000.539;Disklavier MIDI Out
149.656;000.185;62;000.484;Disklavier MIDI Out
149.789;000.103;72;000.523;Disklavier MIDI Out
149.921;000.085;71;000.523;Disklavier MIDI Out
149.871;000.183;65;000.289;Disklavier MIDI Out
150.041;000.087;72;000.508;Disklavier MIDI Out
150.037;000.142;62;000.406;Disklavier MIDI Out
149.622;000.630;79;000.727;Disklavier MIDI Out
150.167;000.143;71;000.555;Disklavier MIDI Out
150.223;000.361;65;000.445;Disklavier MIDI Out
150.294;000.301;72;000.562;Disklavier MIDI Out
150.570;000.245;71;000.570;Disklavier MIDI Out
150.598;000.285;62;000.391;Disklavier MIDI Out
150.844;000.118;72;000.414;Disklavier MIDI Out
150.970;000.075;71;000.516;Disklavier MIDI Out
150.912;000.226;65;000.344;Disklavier MIDI Out
151.118;000.096;72;000.422;Disklavier MIDI Out
151.129;000.127;62;000.297;Disklavier MIDI Out
151.247;000.081;71;000.445;Disklavier MIDI Out
151.315;000.120;65;000.352;Disklavier MIDI Out
151.398;000.095;72;000.406;Disklavier MIDI Out
151.518;000.062;71;000.430;Disklavier MIDI Out
151.501;000.186;62;000.258;Disklavier MIDI Out
151.671;000.078;72;000.375;Disklavier MIDI Out
151.704;000.116;65;000.297;Disklavier MIDI Out
151.785;000.070;71;000.438;Disklavier MIDI Out
151.916;000.077;72;000.414;Disklavier MIDI Out
152.041;000.063;71;000.430;Disklavier MIDI Out
151.890;000.313;62;000.250;Disklavier MIDI Out
152.172;000.071;72;000.391;Disklavier MIDI Out
152.047;000.210;65;000.305;Disklavier MIDI Out
152.288;000.074;71;000.406;Disklavier MIDI Out
152.264;000.197;55;000.336;Disklavier MIDI Out
152.418;000.082;72;000.383;Disklavier MIDI Out
152.534;000.093;71;000.438;Disklavier MIDI Out
152.480;000.192;65;000.266;Disklavier MIDI Out
152.682;000.068;72;000.398;Disklavier MIDI Out
152.680;000.158;55;000.336;Disklavier MIDI Out
152.803;000.109;71;000.391;Disklavier MIDI Out
150.554;002.408;80;000.727;Disklavier MIDI Out
152.939;000.118;72;000.375;Disklavier MIDI Out
152.871;000.228;65;000.297;Disklavier MIDI Out
153.079;000.059;71;000.477;Disklavier MIDI Out
153.069;000.196;55;000.344;Disklavier MIDI Out
153.231;000.059;72;000.406;Disklavier MIDI Out
153.302;000.082;71;000.438;Disklavier MIDI Out
153.284;000.161;65;000.242;Disklavier MIDI Out
153.440;000.083;72;000.406;Disklavier MIDI Out
153.567;000.065;71;000.398;Disklavier MIDI Out
153.487;000.152;55;000.344;Disklavier MIDI Out
153.070;000.686;77;000.586;Disklavier MIDI Out
153.692;000.082;65;000.305;Disklavier MIDI Out
153.694;000.092;72;000.438;Disklavier MIDI Out
153.872;000.033;71;000.391;Disklavier MIDI Out
153.961;000.043;72;000.414;Disklavier MIDI Out
153.871;000.187;55;000.328;Disklavier MIDI Out
154.030;000.057;71;000.531;Disklavier MIDI Out
154.127;000.027;72;000.383;Disklavier MIDI Out
154.089;000.143;62;000.359;Disklavier MIDI Out
154.192;000.042;71;000.484;Disklavier MIDI Out
154.260;000.031;72;000.359;Disklavier MIDI Out
154.318;000.040;71;000.570;Disklavier MIDI Out
154.398;000.037;72;000.344;Disklavier MIDI Out
154.467;000.030;71;000.492;Disklavier MIDI Out
154.495;000.053;72;000.469;Disklavier MIDI Out
154.273;000.281;55;000.391;Disklavier MIDI Out
153.865;000.726;79;000.508;Disklavier MIDI Out
154.453;000.191;62;000.336;Disklavier MIDI Out
154.592;000.061;71;000.555;Disklavier MIDI Out
154.693;000.116;72;000.484;Disklavier MIDI Out
154.862;000.063;74;000.453;Disklavier MIDI Out
154.726;000.227;60;000.328;Disklavier MIDI Out
154.966;000.042;72;000.516;Disklavier MIDI Out
155.066;000.035;74;000.484;Disklavier MIDI Out
155.005;000.106;63;000.328;Disklavier MIDI Out
155.114;000.040;72;000.500;Disklavier MIDI Out
155.206;000.032;74;000.500;Disklavier MIDI Out
155.262;000.044;72;000.500;Disklavier MIDI Out
155.170;000.185;60;000.336;Disklavier MIDI Out
155.344;000.100;74;000.531;Disklavier MIDI Out
155.316;000.162;63;000.367;Disklavier MIDI Out
155.422;000.069;72;000.492;Disklavier MIDI Out
155.542;000.041;71;000.438;Disklavier MIDI Out
155.613;000.031;72;000.359;Disklavier MIDI Out
155.683;000.043;71;000.492;Disklavier MIDI Out
155.535;000.199;55;000.398;Disklavier MIDI Out
155.749;000.041;72;000.500;Disklavier MIDI Out
155.830;000.035;71;000.438;Disklavier MIDI Out
155.769;000.145;62;000.305;Disklavier MIDI Out
155.886;000.040;72;000.500;Disklavier MIDI Out
155.976;000.029;71;000.430;Disklavier MIDI Out
156.024;000.045;72;000.484;Disklavier MIDI Out
156.111;000.032;71;000.492;Disklavier MIDI Out
156.132;000.052;62;000.336;Disklavier MIDI Out
156.191;000.021;72;000.414;Disklavier MIDI Out
155.950;000.277;55;000.352;Disklavier MIDI Out
156.260;000.027;71;000.430;Disklavier MIDI Out
156.314;000.040;72;000.516;Disklavier MIDI Out
156.406;000.190;71;000.500;Disklavier MIDI Out
154.715;002.282;79;000.555;Disklavier MIDI Out
156.662;000.424;60;000.219;Disklavier MIDI Out
156.651;000.493;72;000.398;Disklavier MIDI Out
156.644;000.631;48;000.250;Disklavier MIDI Out
158.053;000.068;36;000.562;Disklavier MIDI Out
158.120;000.120;31;000.547;Disklavier MIDI Out
158.199;000.109;33;000.586;Disklavier MIDI Out
158.273;000.122;35;000.547;Disklavier MIDI Out
158.369;000.092;36;000.547;Disklavier MIDI Out
158.444;000.129;31;000.562;Disklavier MIDI Out
158.540;000.122;33;000.562;Disklavier MIDI Out
158.613;000.128;35;000.578;Disklavier MIDI Out
158.700;000.099;36;000.594;Disklavier MIDI Out
158.403;000.458;67;000.578;Disklavier MIDI Out
158.385;000.490;79;000.688;Disklavier MIDI Out
158.772;000.147;31;000.609;Disklavier MIDI Out
158.855;000.145;33;000.594;Disklavier MIDI Out
159.025;000.040;65;000.609;Disklavier MIDI Out
158.928;000.139;35;000.594;Disklavier MIDI Out
159.028;000.058;77;000.648;Disklavier MIDI Out
159.010;000.132;36;000.562;Disklavier MIDI Out
159.108;000.147;31;000.586;Disklavier MIDI Out
159.191;000.138;33;000.586;Disklavier MIDI Out
159.344;000.027;75;000.680;Disklavier MIDI Out
159.346;000.033;63;000.672;Disklavier MIDI Out
159.274;000.129;35;000.570;Disklavier MIDI Out
159.357;000.122;36;000.555;Disklavier MIDI Out
159.449;000.145;31;000.625;Disklavier MIDI Out
159.516;000.134;33;000.562;Disklavier MIDI Out
159.656;000.037;60;000.672;Disklavier MIDI Out
159.597;000.097;35;000.602;Disklavier MIDI Out
159.660;000.042;72;000.602;Disklavier MIDI Out
159.671;000.070;36;000.547;Disklavier MIDI Out
159.766;000.100;38;000.648;Disklavier MIDI Out
159.840;000.125;39;000.570;Disklavier MIDI Out
159.972;000.028;59;000.672;Disklavier MIDI Out
159.973;000.050;71;000.695;Disklavier MIDI Out
159.905;000.136;42;000.633;Disklavier MIDI Out
160.003;000.100;43;000.680;Disklavier MIDI Out
160.093;000.131;38;000.609;Disklavier MIDI Out
160.181;000.132;40;000.641;Disklavier MIDI Out
160.269;000.116;42;000.617;Disklavier MIDI Out
160.349;000.129;43;000.656;Disklavier MIDI Out
160.450;000.124;38;000.578;Disklavier MIDI Out
160.543;000.119;40;000.602;Disklavier MIDI Out
160.626;000.105;42;000.648;Disklavier MIDI Out
160.701;000.123;43;000.625;Disklavier MIDI Out
160.337;000.571;86;000.781;Disklavier MIDI Out
160.796;000.116;38;000.617;Disklavier MIDI Out
160.340;000.595;74;000.758;Disklavier MIDI Out
160.866;000.130;40;000.633;Disklavier MIDI Out
161.021;000.045;72;000.688;Disklavier MIDI Out
161.023;000.054;84;000.680;Disklavier MIDI Out
160.946;000.134;42;000.633;Disklavier MIDI Out
161.033;000.130;43;000.641;Disklavier MIDI Out
161.134;000.124;38;000.617;Disklavier MIDI Out
161.212;000.122;40;000.586;Disklavier MIDI Out
161.351;000.030;71;000.695;Disklavier MIDI Out
161.349;000.055;83;000.695;Disklavier MIDI Out
161.285;000.148;42;000.625;Disklavier MIDI Out
161.372;000.126;43;000.633;Disklavier MIDI Out
161.460;000.103;38;000.594;Disklavier MIDI Out
161.516;000.132;40;000.617;Disklavier MIDI Out
161.608;000.095;42;000.617;Disklavier MIDI Out
161.683;000.029;67;000.664;Disklavier MIDI Out
161.679;000.056;79;000.688;Disklavier MIDI Out
161.688;000.086;43;000.594;Disklavier MIDI Out
161.792;000.094;45;000.648;Disklavier MIDI Out
161.859;000.120;47;000.648;Disklavier MIDI Out
161.991;000.051;41;000.398;Disklavier MIDI Out
161.976;000.072;43;000.523;Disklavier MIDI Out
162.039;000.122;48;000.633;Disklavier MIDI Out
162.154;000.107;43;000.625;Disklavier MIDI Out
162.230;000.122;45;000.625;Disklavier MIDI Out
162.314;000.108;47;000.602;Disklavier MIDI Out
162.391;000.124;48;000.617;Disklavier MIDI Out
162.499;000.131;43;000.625;Disklavier MIDI Out
162.589;000.117;45;000.570;Disklavier MIDI Out
162.665;000.110;47;000.586;Disklavier MIDI Out
162.747;000.109;48;000.547;Disklavier MIDI Out
162.833;000.129;43;000.609;Disklavier MIDI Out
162.389;000.639;85;000.781;Disklavier MIDI Out
162.392;000.648;73;000.742;Disklavier MIDI Out
162.919;000.131;45;000.602;Disklavier MIDI Out
162.986;000.130;47;000.578;Disklavier MIDI Out
163.096;000.034;72;000.586;Disklavier MIDI Out
163.092;000.059;84;000.641;Disklavier MIDI Out
163.073;000.124;48;000.602;Disklavier MIDI Out
163.178;000.117;43;000.602;Disklavier MIDI Out
163.249;000.141;45;000.625;Disklavier MIDI Out
163.418;000.024;82;000.633;Disklavier MIDI Out
163.417;000.030;70;000.656;Disklavier MIDI Out
163.334;000.126;47;000.594;Disklavier MIDI Out
163.412;000.119;48;000.609;Disklavier MIDI Out
163.508;000.112;43;000.586;Disklavier MIDI Out
163.577;000.141;45;000.586;Disklavier MIDI Out
163.663;000.085;47;000.562;Disklavier MIDI Out
163.751;000.026;60;000.695;Disklavier MIDI Out
163.752;000.033;67;000.648;Disklavier MIDI Out
163.749;000.054;72;000.680;Disklavier MIDI Out
163.734;000.072;48;000.617;Disklavier MIDI Out
163.832;000.102;50;000.664;Disklavier MIDI Out
163.894;000.122;52;000.594;Disklavier MIDI Out
164.026;000.033;50;000.492;Disklavier MIDI Out
164.003;000.091;48;000.578;Disklavier MIDI Out
164.099;000.109;53;000.648;Disklavier MIDI Out
164.198;000.113;48;000.633;Disklavier MIDI Out
164.278;000.131;50;000.508;Disklavier MIDI Out
164.367;000.106;52;000.484;Disklavier MIDI Out
164.446;000.126;53;000.617;Disklavier MIDI Out
164.554;000.118;48;000.570;Disklavier MIDI Out
164.641;000.114;50;000.602;Disklavier MIDI Out
164.724;000.097;52;000.555;Disklavier MIDI Out
164.798;000.119;53;000.625;Disklavier MIDI Out
164.451;000.488;72;000.672;Disklavier MIDI Out
164.895;000.109;48;000.609;Disklavier MIDI Out
164.974;000.133;50;000.602;Disklavier MIDI Out
164.447;000.712;84;000.742;Disklavier MIDI Out
165.057;000.128;52;000.570;Disklavier MIDI Out
165.167;000.034;70;000.617;Disklavier MIDI Out
165.168;000.062;82;000.664;Disklavier MIDI Out
165.146;000.128;53;000.641;Disklavier MIDI Out
165.248;000.123;48;000.594;Disklavier MIDI Out
165.322;000.141;50;000.617;Disklavier MIDI Out
165.499;000.038;69;000.641;Disklavier MIDI Out
165.414;000.133;52;000.578;Disklavier MIDI Out
165.496;000.054;81;000.703;Disklavier MIDI Out
165.491;000.135;53;000.617;Disklavier MIDI Out
165.594;000.118;48;000.602;Disklavier MIDI Out
165.670;000.120;50;000.594;Disklavier MIDI Out
165.753;000.097;52;000.570;Disklavier MIDI Out
165.828;000.033;65;000.570;Disklavier MIDI Out
165.828;000.044;77;000.656;Disklavier MIDI Out
165.842;000.074;53;000.617;Disklavier MIDI Out
165.936;000.082;55;000.641;Disklavier MIDI Out
166.002;000.117;57;000.633;Disklavier MIDI Out
166.108;000.073;53;000.602;Disklavier MIDI Out
166.206;000.113;57;000.586;Disklavier MIDI Out
166.300;000.121;54;000.633;Disklavier MIDI Out
166.407;000.108;57;000.531;Disklavier MIDI Out
166.451;000.065;55;000.094;Disklavier MIDI Out
166.473;000.117;59;000.594;Disklavier MIDI Out
166.555;000.088;60;000.625;Disklavier MIDI Out
166.651;000.124;54;000.555;Disklavier MIDI Out
166.745;000.134;57;000.609;Disklavier MIDI Out
166.831;000.116;59;000.586;Disklavier MIDI Out
166.904;000.112;60;000.633;Disklavier MIDI Out
166.990;000.161;54;000.602;Disklavier MIDI Out
166.557;000.599;87;000.766;Disklavier MIDI Out
166.562;000.668;75;000.695;Disklavier MIDI Out
167.079;000.178;57;000.625;Disklavier MIDI Out
167.252;000.041;74;000.625;Disklavier MIDI Out
167.254;000.040;82;000.242;Disklavier MIDI Out
167.253;000.061;86;000.672;Disklavier MIDI Out
167.165;000.168;59;000.633;Disklavier MIDI Out
167.243;000.128;60;000.633;Disklavier MIDI Out
167.346;000.156;54;000.602;Disklavier MIDI Out
167.434;000.141;57;000.609;Disklavier MIDI Out
167.588;000.051;72;000.633;Disklavier MIDI Out
167.584;000.058;84;000.711;Disklavier MIDI Out
167.522;000.160;59;000.633;Disklavier MIDI Out
167.599;000.115;60;000.586;Disklavier MIDI Out
167.684;000.146;54;000.586;Disklavier MIDI Out
167.776;000.144;57;000.594;Disklavier MIDI Out
167.924;000.034;69;000.648;Disklavier MIDI Out
167.921;000.059;81;000.688;Disklavier MIDI Out
167.867;000.136;59;000.594;Disklavier MIDI Out
167.941;000.098;60;000.609;Disklavier MIDI Out
168.011;000.123;54;000.555;Disklavier MIDI Out
168.079;000.095;57;000.625;Disklavier MIDI Out
168.186;000.085;60;000.625;Disklavier MIDI Out
168.284;000.092;62;000.641;Disklavier MIDI Out
168.376;000.127;59;000.594;Disklavier MIDI Out
168.446;000.126;62;000.625;Disklavier MIDI Out
168.542;000.094;63;000.664;Disklavier MIDI Out
168.618;000.089;65;000.562;Disklavier MIDI Out
168.718;000.130;62;000.688;Disklavier MIDI Out
168.807;000.086;65;000.570;Disklavier MIDI Out
168.869;000.135;67;000.672;Disklavier MIDI Out
168.625;000.435;92;000.844;Disklavier MIDI Out
168.967;000.121;68;000.672;Disklavier MIDI Out
168.629;000.471;80;000.734;Disklavier MIDI Out
169.060;000.148;62;000.672;Disklavier MIDI Out
169.046;000.174;63;000.453;Disklavier MIDI Out
169.154;000.153;65;000.469;Disklavier MIDI Out
169.315;000.053;79;000.688;Disklavier MIDI Out
169.308;000.069;91;000.711;Disklavier MIDI Out
169.233;000.206;67;000.602;Disklavier MIDI Out
169.324;000.127;68;000.617;Disklavier MIDI Out
169.417;000.174;62;000.625;Disklavier MIDI Out
169.522;000.145;65;000.531;Disklavier MIDI Out
169.654;000.045;77;000.680;Disklavier MIDI Out
169.651;000.057;89;000.727;Disklavier MIDI Out
169.599;000.173;67;000.586;Disklavier MIDI Out
169.694;000.120;68;000.547;Disklavier MIDI Out
169.778;000.148;62;000.602;Disklavier MIDI Out
169.831;000.164;65;000.539;Disklavier MIDI Out
170.002;000.041;74;000.727;Disklavier MIDI Out
170.001;000.056;86;000.742;Disklavier MIDI Out
170.064;000.001;85;000.156;Disklavier MIDI Out
169.922;000.145;67;000.625;Disklavier MIDI Out
170.016;000.098;68;000.547;Disklavier MIDI Out
170.149;000.051;63;000.266;Disklavier MIDI Out
170.098;000.111;62;000.562;Disklavier MIDI Out
170.154;000.124;65;000.500;Disklavier MIDI Out
170.273;000.054;68;000.547;Disklavier MIDI Out
170.328;000.143;67;000.609;Disklavier MIDI Out
170.438;000.060;66;000.648;Disklavier MIDI Out
170.478;000.116;65;000.484;Disklavier MIDI Out
170.590;000.099;63;000.625;Disklavier MIDI Out
170.665;000.129;62;000.594;Disklavier MIDI Out
170.755;000.094;63;000.555;Disklavier MIDI Out
168.321;002.560;64;000.328;Disklavier MIDI Out
170.854;000.027;64;000.523;Disklavier MIDI Out
170.835;000.091;65;000.547;Disklavier MIDI Out
170.928;000.110;67;000.578;Disklavier MIDI Out
170.711;000.405;71;000.688;Disklavier MIDI Out
171.027;000.128;65;000.656;Disklavier MIDI Out
170.712;000.446;83;000.695;Disklavier MIDI Out
171.117;000.099;63;000.609;Disklavier MIDI Out
171.233;000.108;62;000.625;Disklavier MIDI Out
171.326;000.085;60;000.656;Disklavier MIDI Out
171.406;000.115;59;000.609;Disklavier MIDI Out
171.521;000.061;60;000.641;Disklavier MIDI Out
171.598;000.101;62;000.617;Disklavier MIDI Out
171.387;000.314;86;000.750;Disklavier MIDI Out
171.391;000.335;74;000.750;Disklavier MIDI Out
171.689;000.069;63;000.664;Disklavier MIDI Out
171.774;000.132;62;000.625;Disklavier MIDI Out
171.869;000.121;60;000.664;Disklavier MIDI Out
171.985;000.062;59;000.383;Disklavier MIDI Out
171.997;000.051;57;000.438;Disklavier MIDI Out
172.023;000.090;56;000.594;Disklavier MIDI Out
172.089;000.031;59;000.648;Disklavier MIDI Out
172.096;000.033;67;000.617;Disklavier MIDI Out
172.084;000.053;62;000.664;Disklavier MIDI Out
172.088;000.056;71;000.688;Disklavier MIDI Out
172.123;000.110;55;000.609;Disklavier MIDI Out
172.210;000.148;53;000.602;Disklavier MIDI Out
172.287;000.139;51;000.586;Disklavier MIDI Out
172.370;000.091;50;000.539;Disklavier MIDI Out
172.449;000.115;48;000.578;Disklavier MIDI Out
172.547;000.095;51;000.617;Disklavier MIDI Out
172.646;000.108;55;000.633;Disklavier MIDI Out
172.754;000.098;53;000.609;Disklavier MIDI Out
172.837;000.063;51;000.617;Disklavier MIDI Out
172.930;000.102;50;000.578;Disklavier MIDI Out
173.013;000.091;48;000.414;Disklavier MIDI Out
173.104;000.081;47;000.570;Disklavier MIDI Out
173.184;000.072;48;000.539;Disklavier MIDI Out
173.276;000.093;50;000.570;Disklavier MIDI Out
172.452;000.969;63;000.594;Disklavier MIDI Out
173.359;000.064;51;000.617;Disklavier MIDI Out
172.446;001.039;60;000.711;Disklavier MIDI Out
172.448;001.048;72;000.633;Disklavier MIDI Out
172.447;001.080;67;000.594;Disklavier MIDI Out
173.432;000.132;50;000.578;Disklavier MIDI Out
173.523;000.139;48;000.586;Disklavier MIDI Out
173.582;000.165;46;000.602;Disklavier MIDI Out
173.680;000.123;44;000.562;Disklavier MIDI Out
173.790;000.094;43;000.586;Disklavier MIDI Out
173.870;000.080;44;000.555;Disklavier MIDI Out
173.970;000.143;43;000.609;Disklavier MIDI Out
174.075;000.143;41;000.656;Disklavier MIDI Out
174.151;000.109;39;000.539;Disklavier MIDI Out
174.224;000.128;38;000.625;Disklavier MIDI Out
174.318;000.104;39;000.508;Disklavier MIDI Out
174.369;000.122;41;000.641;Disklavier MIDI Out
174.467;000.076;43;000.617;Disklavier MIDI Out
174.559;000.060;36;000.688;Disklavier MIDI Out
174.584;000.096;60;000.617;Disklavier MIDI Out
174.673;000.107;55;000.609;Disklavier MIDI Out
174.767;000.098;57;000.562;Disklavier MIDI Out
174.865;000.072;59;000.562;Disklavier MIDI Out
174.933;000.077;60;000.617;Disklavier MIDI Out
175.015;000.109;55;000.617;Disklavier MIDI Out
175.109;000.076;57;000.547;Disklavier MIDI Out
175.196;000.089;59;000.602;Disklavier MIDI Out
175.286;000.070;60;000.562;Disklavier MIDI Out
175.360;000.097;55;000.617;Disklavier MIDI Out
175.448;000.081;57;000.578;Disklavier MIDI Out
174.920;000.688;43;000.797;Disklavier MIDI Out
175.541;000.095;59;000.609;Disklavier MIDI Out
175.640;000.068;41;000.695;Disklavier MIDI Out
175.633;000.092;60;000.609;Disklavier MIDI Out
175.733;000.117;55;000.562;Disklavier MIDI Out
175.820;000.083;57;000.578;Disklavier MIDI Out
175.902;000.096;59;000.602;Disklavier MIDI Out
175.987;000.083;39;000.672;Disklavier MIDI Out
175.995;000.080;60;000.625;Disklavier MIDI Out
176.071;000.083;55;000.531;Disklavier MIDI Out
176.133;000.084;57;000.562;Disklavier MIDI Out
176.215;000.060;59;000.602;Disklavier MIDI Out
176.321;000.070;36;000.664;Disklavier MIDI Out
176.324;000.099;60;000.656;Disklavier MIDI Out
176.416;000.113;62;000.594;Disklavier MIDI Out
176.497;000.144;63;000.625;Disklavier MIDI Out
176.591;000.093;66;000.594;Disklavier MIDI Out
176.669;000.038;65;000.492;Disklavier MIDI Out
176.654;000.058;35;000.695;Disklavier MIDI Out
176.662;000.087;67;000.594;Disklavier MIDI Out
176.752;000.142;62;000.617;Disklavier MIDI Out
176.851;000.106;64;000.617;Disklavier MIDI Out
176.941;000.099;66;000.609;Disklavier MIDI Out
177.027;000.096;67;000.617;Disklavier MIDI Out
177.122;000.126;62;000.602;Disklavier MIDI Out
177.222;000.102;64;000.578;Disklavier MIDI Out
177.315;000.090;66;000.609;Disklavier MIDI Out
177.390;000.089;67;000.633;Disklavier MIDI Out
177.476;000.134;62;000.586;Disklavier MIDI Out
177.024;000.595;50;000.797;Disklavier MIDI Out
177.557;000.116;64;000.570;Disklavier MIDI Out
177.030;000.724;38;000.711;Disklavier MIDI Out
177.646;000.127;66;000.625;Disklavier MIDI Out
177.752;000.063;48;000.703;Disklavier MIDI Out
177.751;000.078;36;000.617;Disklavier MIDI Out
177.748;000.101;67;000.633;Disklavier MIDI Out
177.844;000.143;62;000.586;Disklavier MIDI Out
177.924;000.117;64;000.578;Disklavier MIDI Out
178.006;000.117;66;000.609;Disklavier MIDI Out
178.096;000.042;35;000.672;Disklavier MIDI Out
178.089;000.054;47;000.703;Disklavier MIDI Out
178.101;000.095;67;000.680;Disklavier MIDI Out
178.168;000.115;62;000.562;Disklavier MIDI Out
178.245;000.104;64;000.586;Disklavier MIDI Out
178.348;000.065;66;000.625;Disklavier MIDI Out
178.421;000.045;31;000.500;Disklavier MIDI Out
178.425;000.042;43;000.703;Disklavier MIDI Out
178.451;000.093;67;000.672;Disklavier MIDI Out
178.544;000.068;69;000.570;Disklavier MIDI Out
178.603;000.072;71;000.617;Disklavier MIDI Out
178.701;000.081;67;000.609;Disklavier MIDI Out
178.802;000.079;72;000.664;Disklavier MIDI Out
178.896;000.084;67;000.516;Disklavier MIDI Out
178.967;000.078;69;000.539;Disklavier MIDI Out
179.055;000.081;71;000.594;Disklavier MIDI Out
179.132;000.087;72;000.609;Disklavier MIDI Out
179.226;000.133;67;000.625;Disklavier MIDI Out
179.330;000.077;69;000.578;Disklavier MIDI Out
179.417;000.105;71;000.664;Disklavier MIDI Out
179.510;000.082;72;000.578;Disklavier MIDI Out
179.125;000.562;55;000.727;Disklavier MIDI Out
179.579;000.134;67;000.625;Disklavier MIDI Out
179.671;000.154;69;000.617;Disklavier MIDI Out
179.130;000.729;43;000.625;Disklavier MIDI Out
179.758;000.116;71;000.664;Disklavier MIDI Out
179.858;000.053;53;000.719;Disklavier MIDI Out
179.856;000.069;41;000.617;Disklavier MIDI Out
179.846;000.103;72;000.617;Disklavier MIDI Out
179.938;000.135;67;000.578;Disklavier MIDI Out
180.026;000.090;69;000.609;Disklavier MIDI Out
180.111;000.102;71;000.656;Disklavier MIDI Out
180.200;000.043;40;000.672;Disklavier MIDI Out
180.194;000.050;52;000.727;Disklavier MIDI Out
180.201;000.095;72;000.609;Disklavier MIDI Out
180.287;000.098;67;000.586;Disklavier MIDI Out
180.354;000.077;69;000.555;Disklavier MIDI Out
180.436;000.057;71;000.625;Disklavier MIDI Out
180.534;000.041;36;000.570;Disklavier MIDI Out
180.535;000.044;48;000.719;Disklavier MIDI Out
180.549;000.086;72;000.633;Disklavier MIDI Out
180.630;000.069;74;000.594;Disklavier MIDI Out
180.694;000.071;76;000.648;Disklavier MIDI Out
180.800;000.069;72;000.570;Disklavier MIDI Out
180.885;000.083;77;000.672;Disklavier MIDI Out
180.973;000.114;72;000.555;Disklavier MIDI Out
181.048;000.084;74;000.609;Disklavier MIDI Out
181.141;000.095;76;000.656;Disklavier MIDI Out
181.230;000.112;77;000.664;Disklavier MIDI Out
181.340;000.143;72;000.609;Disklavier MIDI Out
181.438;000.081;74;000.609;Disklavier MIDI Out
181.529;000.089;76;000.672;Disklavier MIDI Out
181.604;000.094;77;000.633;Disklavier MIDI Out
181.233;000.496;60;000.773;Disklavier MIDI Out
181.693;000.126;72;000.625;Disklavier MIDI Out
181.777;000.106;74;000.625;Disklavier MIDI Out
181.242;000.718;48;000.695;Disklavier MIDI Out
181.869;000.103;76;000.648;Disklavier MIDI Out
181.965;000.072;58;000.594;Disklavier MIDI Out
181.956;000.090;77;000.656;Disklavier MIDI Out
181.954;000.120;46;000.602;Disklavier MIDI Out
182.037;000.144;72;000.602;Disklavier MIDI Out
182.123;000.108;74;000.633;Disklavier MIDI Out
182.279;000.037;57;000.633;Disklavier MIDI Out
182.208;000.111;76;000.625;Disklavier MIDI Out
182.279;000.059;45;000.586;Disklavier MIDI Out
182.296;000.092;77;000.656;Disklavier MIDI Out
182.386;000.110;72;000.586;Disklavier MIDI Out
182.458;000.085;74;000.625;Disklavier MIDI Out
182.544;000.057;76;000.633;Disklavier MIDI Out
182.613;000.035;53;000.672;Disklavier MIDI Out
182.602;000.055;41;000.523;Disklavier MIDI Out
182.641;000.103;77;000.703;Disklavier MIDI Out
182.734;000.059;79;000.641;Disklavier MIDI Out
182.789;000.068;81;000.609;Disklavier MIDI Out
182.874;000.081;77;000.641;Disklavier MIDI Out
182.954;000.068;78;000.680;Disklavier MIDI Out
183.047;000.113;79;000.727;Disklavier MIDI Out
183.130;000.109;81;000.664;Disklavier MIDI Out
183.206;000.098;83;000.648;Disklavier MIDI Out
183.283;000.115;84;000.695;Disklavier MIDI Out
183.379;000.127;78;000.641;Disklavier MIDI Out
183.469;000.140;81;000.516;Disklavier MIDI Out
183.564;000.116;83;000.594;Disklavier MIDI Out
183.646;000.132;84;000.695;Disklavier MIDI Out
183.718;000.126;78;000.664;Disklavier MIDI Out
183.289;000.604;63;000.766;Disklavier MIDI Out
183.798;000.178;81;000.578;Disklavier MIDI Out
183.916;000.132;83;000.578;Disklavier MIDI Out
183.286;000.765;51;000.680;Disklavier MIDI Out
184.015;000.077;62;000.758;Disklavier MIDI Out
184.013;000.092;50;000.641;Disklavier MIDI Out
183.997;000.135;84;000.625;Disklavier MIDI Out
184.077;000.133;78;000.680;Disklavier MIDI Out
184.158;000.183;81;000.516;Disklavier MIDI Out
184.264;000.131;83;000.562;Disklavier MIDI Out
184.371;000.045;60;000.758;Disklavier MIDI Out
184.377;000.048;48;000.672;Disklavier MIDI Out
184.355;000.148;84;000.664;Disklavier MIDI Out
184.452;000.136;78;000.672;Disklavier MIDI Out
184.517;000.176;81;000.492;Disklavier MIDI Out
184.636;000.105;83;000.625;Disklavier MIDI Out
184.704;000.043;45;000.648;Disklavier MIDI Out
184.702;000.047;57;000.703;Disklavier MIDI Out
184.701;000.128;84;000.641;Disklavier MIDI Out
184.795;000.083;78;000.609;Disklavier MIDI Out
184.873;000.095;81;000.586;Disklavier MIDI Out
184.971;000.018;86;000.586;Disklavier MIDI Out
184.965;000.037;84;000.555;Disklavier MIDI Out
185.043;000.126;83;000.719;Disklavier MIDI Out
185.119;000.171;84;000.688;Disklavier MIDI Out
185.216;000.154;86;000.672;Disklavier MIDI Out
185.290;000.114;87;000.664;Disklavier MIDI Out
185.444;000.001;88;000.031;Disklavier MIDI Out
185.370;000.114;89;000.680;Disklavier MIDI Out
185.455;000.140;83;000.602;Disklavier MIDI Out
185.552;000.130;86;000.648;Disklavier MIDI Out
185.376;000.322;68;000.781;Disklavier MIDI Out
185.626;000.098;87;000.703;Disklavier MIDI Out
185.704;000.046;89;000.625;Disklavier MIDI Out
185.792;000.130;86;000.703;Disklavier MIDI Out
185.883;000.109;89;000.680;Disklavier MIDI Out
185.956;000.117;91;000.664;Disklavier MIDI Out
185.378;000.731;56;000.664;Disklavier MIDI Out
186.027;000.108;92;000.742;Disklavier MIDI Out
186.162;000.060;88;000.156;Disklavier MIDI Out
186.125;000.136;86;000.625;Disklavier MIDI Out
186.221;000.139;89;000.672;Disklavier MIDI Out
186.055;000.328;65;000.758;Disklavier MIDI Out
186.320;000.114;91;000.688;Disklavier MIDI Out
186.391;000.106;92;000.695;Disklavier MIDI Out
186.484;000.131;86;000.633;Disklavier MIDI Out
186.564;000.130;89;000.648;Disklavier MIDI Out
186.063;000.679;53;000.664;Disklavier MIDI Out
186.666;000.110;91;000.703;Disklavier MIDI Out
186.729;000.119;92;000.727;Disklavier MIDI Out
186.818;000.136;86;000.641;Disklavier MIDI Out
186.742;000.289;62;000.758;Disklavier MIDI Out
186.920;000.141;89;000.711;Disklavier MIDI Out
187.021;000.147;91;000.695;Disklavier MIDI Out
187.140;000.194;92;000.758;Disklavier MIDI Out
187.279;000.079;91;000.703;Disklavier MIDI Out
187.367;000.075;89;000.617;Disklavier MIDI Out
186.739;000.794;50;000.648;Disklavier MIDI Out
187.464;000.084;87;000.664;Disklavier MIDI Out
187.549;000.093;86;000.695;Disklavier MIDI Out
187.643;000.109;87;000.703;Disklavier MIDI Out
187.727;000.086;89;000.602;Disklavier MIDI Out
187.545;000.298;59;000.672;Disklavier MIDI Out
187.796;000.118;91;000.602;Disklavier MIDI Out
187.869;000.156;89;000.555;Disklavier MIDI Out
187.967;000.126;87;000.672;Disklavier MIDI Out
188.049;000.089;86;000.664;Disklavier MIDI Out
187.545;000.674;47;000.641;Disklavier MIDI Out
188.139;000.105;84;000.633;Disklavier MIDI Out
188.226;000.060;83;000.711;Disklavier MIDI Out
188.314;000.119;84;000.594;Disklavier MIDI Out
188.408;000.084;86;000.625;Disklavier MIDI Out
188.212;000.352;55;000.719;Disklavier MIDI Out
188.210;000.403;43;000.578;Disklavier MIDI Out
188.491;000.133;87;000.656;Disklavier MIDI Out
188.584;000.059;86;000.656;Disklavier MIDI Out
188.632;000.073;84;000.609;Disklavier MIDI Out
188.752;000.102;81;000.516;Disklavier MIDI Out
188.750;000.109;83;000.562;Disklavier MIDI Out
188.829;000.129;80;000.602;Disklavier MIDI Out
188.916;000.045;43;000.734;Disklavier MIDI Out
188.909;000.057;31;000.555;Disklavier MIDI Out
188.922;000.071;79;000.656;Disklavier MIDI Out
188.997;000.106;77;000.633;Disklavier MIDI Out
189.086;000.144;75;000.648;Disklavier MIDI Out
189.202;000.157;74;000.688;Disklavier MIDI Out
189.384;000.001;42;000.078;Disklavier MIDI Out
189.311;000.174;75;000.695;Disklavier MIDI Out
189.427;000.102;72;000.680;Disklavier MIDI Out
189.536;000.074;71;000.648;Disklavier MIDI Out
189.306;000.364;48;000.805;Disklavier MIDI Out
189.308;000.379;36;000.656;Disklavier MIDI Out
189.644;000.115;68;000.617;Disklavier MIDI Out
189.693;000.116;67;000.484;Disklavier MIDI Out
189.819;000.097;65;000.617;Disklavier MIDI Out
189.910;000.171;63;000.664;Disklavier MIDI Out
189.998;000.123;62;000.648;Disklavier MIDI Out
190.091;000.085;60;000.664;Disklavier MIDI Out
190.186;000.094;59;000.602;Disklavier MIDI Out
190.286;000.139;56;000.602;Disklavier MIDI Out
190.382;000.097;55;000.648;Disklavier MIDI Out
190.492;000.123;53;000.578;Disklavier MIDI Out
190.608;000.186;51;000.578;Disklavier MIDI Out
190.727;000.154;50;000.562;Disklavier MIDI Out
190.852;000.136;48;000.570;Disklavier MIDI Out
191.001;000.143;47;000.516;Disklavier MIDI Out
191.147;000.164;44;000.523;Disklavier MIDI Out
191.291;000.133;43;000.539;Disklavier MIDI Out
191.467;000.177;41;000.477;Disklavier MIDI Out
191.655;000.245;39;000.430;Disklavier MIDI Out
191.912;000.473;38;000.406;Disklavier MIDI Out
194.591;000.391;48;000.242;Disklavier MIDI Out
193.674;001.323;52;000.234;Disklavier MIDI Out
192.371;002.651;36;000.422;Disklavier MIDI Out
193.654;001.461;55;000.344;Disklavier MIDI Out
193.677;001.520;43;000.242;Disklavier MIDI Out
193.655;001.622;60;000.406;Disklavier MIDI Out
195.289;000.056;64;000.469;Disklavier MIDI Out
195.547;000.591;55;000.461;Disklavier MIDI Out
195.537;001.167;62;000.516;Disklavier MIDI Out
196.560;000.964;43;000.305;Disklavier MIDI Out
195.541;002.149;50;000.469;Disklavier MIDI Out
195.550;002.237;35;000.328;Disklavier MIDI Out
197.473;000.462;47;000.328;Disklavier MIDI Out
196.539;001.439;55;000.555;Disklavier MIDI Out
198.155;000.042;62;000.477;Disklavier MIDI Out
198.439;000.539;55;000.391;Disklavier MIDI Out
198.409;000.612;64;000.594;Disklavier MIDI Out
198.436;000.609;58;000.438;Disklavier MIDI Out
199.449;001.281;55;000.398;Disklavier MIDI Out
199.447;001.401;57;000.430;Disklavier MIDI Out
200.368;000.599;49;000.328;Disklavier MIDI Out
198.423;002.557;37;000.352;Disklavier MIDI Out
199.427;001.607;45;000.383;Disklavier MIDI Out
199.410;001.654;64;000.641;Disklavier MIDI Out
201.085;000.047;67;000.445;Disklavier MIDI Out
201.338;001.128;64;000.625;Disklavier MIDI Out
202.291;001.124;45;000.500;Disklavier MIDI Out
201.363;002.140;57;000.469;Disklavier MIDI Out
201.372;002.131;53;000.422;Disklavier MIDI Out
202.285;001.256;65;000.555;Disklavier MIDI Out
201.366;002.312;38;000.398;Disklavier MIDI Out
203.225;000.583;50;000.406;Disklavier MIDI Out
203.876;000.084;65;000.555;Disklavier MIDI Out
204.131;000.691;66;000.633;Disklavier MIDI Out
205.177;001.103;48;000.461;Disklavier MIDI Out
205.158;001.337;66;000.633;Disklavier MIDI Out
206.082;000.497;51;000.422;Disklavier MIDI Out
204.157;002.516;39;000.461;Disklavier MIDI Out
204.168;002.633;57;000.398;Disklavier MIDI Out
204.152;002.680;60;000.500;Disklavier MIDI Out
206.782;000.103;66;000.562;Disklavier MIDI Out
207.058;000.413;40;000.469;Disklavier MIDI Out
207.060;000.447;55;000.516;Disklavier MIDI Out
207.057;000.471;60;000.508;Disklavier MIDI Out
207.043;000.504;67;000.617;Disklavier MIDI Out
208.185;000.633;41;000.531;Disklavier MIDI Out
208.181;000.760;29;000.508;Disklavier MIDI Out
208.153;002.625;69;000.578;Disklavier MIDI Out
208.177;002.647;60;000.531;Disklavier MIDI Out
208.170;002.659;62;000.570;Disklavier MIDI Out
209.842;001.164;30;000.258;Disklavier MIDI Out
209.827;001.224;42;000.211;Disklavier MIDI Out
208.178;002.906;57;000.438;Disklavier MIDI Out
211.192;000.088;69;000.531;Disklavier MIDI Out
211.427;000.947;65;000.500;Disklavier MIDI Out
211.448;001.053;62;000.453;Disklavier MIDI Out
211.486;001.160;59;000.375;Disklavier MIDI Out
212.308;000.351;67;000.414;Disklavier MIDI Out
211.503;001.853;31;000.305;Disklavier MIDI Out
213.206;000.213;60;000.367;Disklavier MIDI Out
211.471;002.059;43;000.320;Disklavier MIDI Out
214.085;000.885;40;000.281;Disklavier MIDI Out
215.102;000.073;67;000.414;Disklavier MIDI Out
214.929;000.267;36;000.242;Disklavier MIDI Out
215.292;000.098;69;000.406;Disklavier MIDI Out
215.461;000.098;71;000.445;Disklavier MIDI Out
215.657;000.073;72;000.438;Disklavier MIDI Out
215.841;000.066;67;000.438;Disklavier MIDI Out
216.036;000.070;72;000.383;Disklavier MIDI Out
216.199;000.074;74;000.445;Disklavier MIDI Out
216.398;000.111;76;000.445;Disklavier MIDI Out
216.570;000.107;74;000.461;Disklavier MIDI Out
216.756;000.077;72;000.398;Disklavier MIDI Out
216.931;000.067;71;000.414;Disklavier MIDI Out
217.098;000.072;72;000.461;Disklavier MIDI Out
217.290;000.053;67;000.391;Disklavier MIDI Out
217.442;000.054;76;000.484;Disklavier MIDI Out
216.381;001.267;60;000.461;Disklavier MIDI Out
217.621;000.068;72;000.422;Disklavier MIDI Out
217.614;000.088;64;000.461;Disklavier MIDI Out
217.815;000.081;71;000.477;Disklavier MIDI Out
217.991;000.060;69;000.461;Disklavier MIDI Out
217.797;000.367;62;000.516;Disklavier MIDI Out
218.169;000.064;71;000.477;Disklavier MIDI Out
218.351;000.072;72;000.414;Disklavier MIDI Out
218.531;000.116;74;000.484;Disklavier MIDI Out
218.704;000.088;72;000.461;Disklavier MIDI Out
218.876;000.100;71;000.477;Disklavier MIDI Out
219.057;000.072;69;000.469;Disklavier MIDI Out
219.230;000.066;67;000.484;Disklavier MIDI Out
219.409;000.061;69;000.492;Disklavier MIDI Out
219.579;000.064;71;000.523;Disklavier MIDI Out
218.525;001.165;55;000.500;Disklavier MIDI Out
219.739;000.073;67;000.531;Disklavier MIDI Out
219.755;000.080;62;000.453;Disklavier MIDI Out
219.925;000.072;73;000.570;Disklavier MIDI Out
220.106;000.056;70;000.562;Disklavier MIDI Out
220.271;000.086;73;000.562;Disklavier MIDI Out
219.921;000.487;64;000.523;Disklavier MIDI Out
220.448;000.098;76;000.547;Disklavier MIDI Out
220.616;000.065;79;000.562;Disklavier MIDI Out
220.806;000.079;76;000.531;Disklavier MIDI Out
183.608;037.430;82;000.242;Disklavier MIDI Out
220.978;000.060;82;000.516;Disklavier MIDI Out
221.146;000.052;79;000.516;Disklavier MIDI Out
221.326;000.086;82;000.555;Disklavier MIDI Out
221.496;000.055;79;000.562;Disklavier MIDI Out
220.621;001.042;64;000.594;Disklavier MIDI Out
221.670;000.055;76;000.500;Disklavier MIDI Out
221.820;000.049;73;000.523;Disklavier MIDI Out
221.824;000.120;67;000.508;Disklavier MIDI Out
222.019;000.126;82;000.547;Disklavier MIDI Out
222.218;000.067;79;000.484;Disklavier MIDI Out
222.394;000.046;76;000.430;Disklavier MIDI Out
222.550;000.065;73;000.500;Disklavier MIDI Out
222.012;000.774;64;000.602;Disklavier MIDI Out
222.733;000.101;81;000.523;Disklavier MIDI Out
222.917;000.081;77;000.539;Disklavier MIDI Out
223.084;000.058;74;000.516;Disklavier MIDI Out
223.252;000.059;69;000.531;Disklavier MIDI Out
223.420;000.073;81;000.609;Disklavier MIDI Out
223.583;000.086;74;000.570;Disklavier MIDI Out
222.729;001.022;65;000.531;Disklavier MIDI Out
223.746;000.086;83;000.625;Disklavier MIDI Out
223.919;000.082;74;000.602;Disklavier MIDI Out
223.912;000.091;65;000.602;Disklavier MIDI Out
224.104;000.101;84;000.641;Disklavier MIDI Out
224.292;000.080;81;000.570;Disklavier MIDI Out
224.473;000.089;78;000.562;Disklavier MIDI Out
224.099;000.584;66;000.609;Disklavier MIDI Out
224.642;000.087;75;000.539;Disklavier MIDI Out
224.826;000.102;83;000.555;Disklavier MIDI Out
225.011;000.106;81;000.555;Disklavier MIDI Out
225.204;000.070;78;000.547;Disklavier MIDI Out
225.371;000.086;75;000.539;Disklavier MIDI Out
225.547;000.097;83;000.578;Disklavier MIDI Out
225.710;000.114;81;000.562;Disklavier MIDI Out
224.832;001.029;66;000.664;Disklavier MIDI Out
225.880;000.093;78;000.609;Disklavier MIDI Out
226.038;000.095;75;000.609;Disklavier MIDI Out
226.042;000.106;66;000.594;Disklavier MIDI Out
226.226;000.097;83;000.586;Disklavier MIDI Out
226.397;000.074;76;000.594;Disklavier MIDI Out
226.584;000.077;82;000.617;Disklavier MIDI Out
226.758;000.114;74;000.633;Disklavier MIDI Out
226.224;000.839;67;000.688;Disklavier MIDI Out
227.024;000.118;73;000.570;Disklavier MIDI Out
227.289;000.080;76;000.555;Disklavier MIDI Out
227.464;000.071;77;000.523;Disklavier MIDI Out
227.627;000.067;79;000.508;Disklavier MIDI Out
227.803;000.049;81;000.508;Disklavier MIDI Out
227.967;000.055;73;000.531;Disklavier MIDI Out
228.136;000.062;74;000.531;Disklavier MIDI Out
228.294;000.055;76;000.508;Disklavier MIDI Out
228.460;000.071;77;000.547;Disklavier MIDI Out
227.015;001.665;69;000.672;Disklavier MIDI Out
228.631;000.065;79;000.508;Disklavier MIDI Out
228.802;000.052;81;000.492;Disklavier MIDI Out
228.950;000.067;69;000.469;Disklavier MIDI Out
228.970;000.054;77;000.492;Disklavier MIDI Out
229.145;000.049;76;000.492;Disklavier MIDI Out
229.328;000.049;74;000.461;Disklavier MIDI Out
229.488;000.054;77;000.469;Disklavier MIDI Out
229.659;000.058;69;000.414;Disklavier MIDI Out
229.117;000.748;65;000.469;Disklavier MIDI Out
229.840;000.054;72;000.453;Disklavier MIDI Out
230.020;000.057;71;000.438;Disklavier MIDI Out
230.193;000.035;74;000.352;Disklavier MIDI Out
230.345;000.047;71;000.461;Disklavier MIDI Out
229.829;000.684;67;000.453;Disklavier MIDI Out
230.530;000.054;72;000.422;Disklavier MIDI Out
230.699;000.064;67;000.461;Disklavier MIDI Out
230.887;000.056;69;000.438;Disklavier MIDI Out
231.058;000.055;67;000.414;Disklavier MIDI Out
230.557;000.678;60;000.336;Disklavier MIDI Out
231.233;000.060;69;000.445;Disklavier MIDI Out
231.393;000.051;67;000.484;Disklavier MIDI Out
231.560;000.068;69;000.484;Disklavier MIDI Out
231.725;000.065;71;000.523;Disklavier MIDI Out
231.895;000.051;72;000.555;Disklavier MIDI Out
232.067;000.051;67;000.555;Disklavier MIDI Out
232.063;000.067;71;000.648;Disklavier MIDI Out
232.231;000.042;69;000.539;Disklavier MIDI Out
232.236;000.068;72;000.547;Disklavier MIDI Out
232.399;000.039;71;000.531;Disklavier MIDI Out
232.389;000.066;74;000.609;Disklavier MIDI Out
232.568;000.039;72;000.523;Disklavier MIDI Out
232.565;000.059;76;000.570;Disklavier MIDI Out
232.741;000.040;71;000.461;Disklavier MIDI Out
232.736;000.052;74;000.531;Disklavier MIDI Out
232.896;000.043;72;000.484;Disklavier MIDI Out
232.893;000.053;76;000.539;Disklavier MIDI Out
233.056;000.040;74;000.562;Disklavier MIDI Out
233.073;000.031;76;000.383;Disklavier MIDI Out
233.233;000.047;76;000.492;Disklavier MIDI Out
233.256;000.030;77;000.398;Disklavier MIDI Out
233.226;000.077;79;000.594;Disklavier MIDI Out
233.403;000.043;77;000.562;Disklavier MIDI Out
233.419;000.045;74;000.492;Disklavier MIDI Out
233.586;000.031;72;000.383;Disklavier MIDI Out
233.573;000.049;76;000.492;Disklavier MIDI Out
233.608;000.036;74;000.305;Disklavier MIDI Out
233.740;000.044;71;000.508;Disklavier MIDI Out
233.744;000.041;74;000.617;Disklavier MIDI Out
233.909;000.044;72;000.539;Disklavier MIDI Out
233.905;000.061;76;000.555;Disklavier MIDI Out
234.073;000.046;74;000.555;Disklavier MIDI Out
234.071;000.049;71;000.484;Disklavier MIDI Out
233.234;000.951;52;000.492;Disklavier MIDI Out
233.251;001.029;48;000.438;Disklavier MIDI Out
234.233;000.064;76;000.578;Disklavier MIDI Out
234.272;000.050;72;000.172;Disklavier MIDI Out
234.389;000.056;73;000.594;Disklavier MIDI Out
234.401;000.048;55;000.523;Disklavier MIDI Out
234.406;000.047;76;000.469;Disklavier MIDI Out
234.403;000.059;52;000.430;Disklavier MIDI Out
234.569;000.056;74;000.594;Disklavier MIDI Out
234.570;000.069;77;000.648;Disklavier MIDI Out
234.734;000.056;73;000.602;Disklavier MIDI Out
234.746;000.056;76;000.539;Disklavier MIDI Out
234.560;000.330;50;000.547;Disklavier MIDI Out
234.906;000.037;74;000.562;Disklavier MIDI Out
234.898;000.062;77;000.617;Disklavier MIDI Out
235.054;000.060;76;000.586;Disklavier MIDI Out
235.055;000.080;79;000.594;Disklavier MIDI Out
234.572;000.579;53;000.523;Disklavier MIDI Out
235.231;000.069;77;000.594;Disklavier MIDI Out
235.228;000.084;81;000.617;Disklavier MIDI Out
235.411;000.046;76;000.547;Disklavier MIDI Out
235.406;000.079;79;000.562;Disklavier MIDI Out
235.570;000.045;77;000.586;Disklavier MIDI Out
235.583;000.042;74;000.516;Disklavier MIDI Out
235.745;000.045;72;000.477;Disklavier MIDI Out
235.732;000.088;76;000.594;Disklavier MIDI Out
235.903;000.052;71;000.531;Disklavier MIDI Out
235.895;000.073;74;000.625;Disklavier MIDI Out
236.067;000.046;72;000.555;Disklavier MIDI Out
236.068;000.071;76;000.562;Disklavier MIDI Out
235.224;000.971;50;000.602;Disklavier MIDI Out
236.240;000.043;77;000.461;Disklavier MIDI Out
236.220;000.066;74;000.594;Disklavier MIDI Out
235.234;001.180;43;000.516;Disklavier MIDI Out
236.385;000.047;50;000.484;Disklavier MIDI Out
236.389;000.046;53;000.469;Disklavier MIDI Out
236.405;000.039;71;000.453;Disklavier MIDI Out
236.390;000.061;79;000.625;Disklavier MIDI Out
236.555;000.036;70;000.555;Disklavier MIDI Out
236.547;000.060;79;000.656;Disklavier MIDI Out
236.732;000.037;79;000.625;Disklavier MIDI Out
236.722;000.067;76;000.594;Disklavier MIDI Out
236.889;000.042;79;000.641;Disklavier MIDI Out
236.895;000.074;82;000.617;Disklavier MIDI Out
237.072;000.042;77;000.469;Disklavier MIDI Out
237.052;000.063;81;000.656;Disklavier MIDI Out
236.562;000.554;55;000.562;Disklavier MIDI Out
236.557;000.571;52;000.555;Disklavier MIDI Out
237.232;000.042;76;000.547;Disklavier MIDI Out
237.224;000.050;79;000.609;Disklavier MIDI Out
237.390;000.041;74;000.523;Disklavier MIDI Out
237.385;000.061;77;000.609;Disklavier MIDI Out
237.555;000.043;76;000.555;Disklavier MIDI Out
237.562;000.041;72;000.492;Disklavier MIDI Out
237.731;000.046;70;000.547;Disklavier MIDI Out
237.727;000.064;74;000.570;Disklavier MIDI Out
237.893;000.047;69;000.570;Disklavier MIDI Out
237.897;000.070;72;000.539;Disklavier MIDI Out
238.051;000.058;70;000.586;Disklavier MIDI Out
238.067;000.045;67;000.500;Disklavier MIDI Out
237.240;000.945;55;000.609;Disklavier MIDI Out
237.241;000.984;52;000.570;Disklavier MIDI Out
238.222;000.048;65;000.555;Disklavier MIDI Out
238.219;000.068;69;000.578;Disklavier MIDI Out
238.389;000.040;64;000.508;Disklavier MIDI Out
238.376;000.062;67;000.656;Disklavier MIDI Out
238.381;000.063;55;000.508;Disklavier MIDI Out
238.382;000.067;58;000.531;Disklavier MIDI Out
238.731;000.039;79;000.562;Disklavier MIDI Out
238.733;000.071;82;000.578;Disklavier MIDI Out
238.899;000.047;81;000.555;Disklavier MIDI Out
238.897;000.067;84;000.586;Disklavier MIDI Out
239.054;000.051;79;000.578;Disklavier MIDI Out
239.059;000.069;82;000.625;Disklavier MIDI Out
238.555;000.666;55;000.680;Disklavier MIDI Out
238.557;000.730;52;000.570;Disklavier MIDI Out
239.242;000.046;77;000.555;Disklavier MIDI Out
239.244;000.065;81;000.602;Disklavier MIDI Out
239.404;000.057;76;000.594;Disklavier MIDI Out
239.411;000.071;80;000.578;Disklavier MIDI Out
239.578;000.038;77;000.586;Disklavier MIDI Out
239.579;000.043;81;000.594;Disklavier MIDI Out
239.730;000.069;80;000.609;Disklavier MIDI Out
239.738;000.073;83;000.570;Disklavier MIDI Out
239.909;000.043;81;000.547;Disklavier MIDI Out
239.906;000.068;84;000.609;Disklavier MIDI Out
240.065;000.057;80;000.555;Disklavier MIDI Out
240.074;000.079;83;000.555;Disklavier MIDI Out
239.238;000.973;57;000.562;Disklavier MIDI Out
239.252;000.965;53;000.539;Disklavier MIDI Out
240.238;000.048;81;000.570;Disklavier MIDI Out
240.241;000.078;84;000.602;Disklavier MIDI Out
240.397;000.064;80;000.633;Disklavier MIDI Out
240.398;000.073;57;000.570;Disklavier MIDI Out
240.395;000.082;53;000.609;Disklavier MIDI Out
240.396;000.085;83;000.648;Disklavier MIDI Out
240.581;000.057;81;000.586;Disklavier MIDI Out
240.579;000.083;84;000.664;Disklavier MIDI Out
240.745;000.070;80;000.633;Disklavier MIDI Out
240.752;000.078;83;000.609;Disklavier MIDI Out
240.920;000.064;81;000.617;Disklavier MIDI Out
240.922;000.079;84;000.641;Disklavier MIDI Out
240.566;000.548;57;000.594;Disklavier MIDI Out
240.577;000.547;54;000.633;Disklavier MIDI Out
241.072;000.074;80;000.641;Disklavier MIDI Out
241.082;000.085;83;000.633;Disklavier MIDI Out
241.248;000.061;81;000.625;Disklavier MIDI Out
241.248;000.071;84;000.648;Disklavier MIDI Out
241.407;000.039;79;000.609;Disklavier MIDI Out
241.406;000.074;83;000.633;Disklavier MIDI Out
241.609;000.036;78;000.539;Disklavier MIDI Out
241.588;000.058;81;000.664;Disklavier MIDI Out
241.760;000.037;76;000.570;Disklavier MIDI Out
241.754;000.062;79;000.641;Disklavier MIDI Out
241.916;000.036;75;000.602;Disklavier MIDI Out
241.911;000.066;78;000.648;Disklavier MIDI Out
242.092;000.030;86;000.633;Disklavier MIDI Out
242.098;000.035;81;000.523;Disklavier MIDI Out
242.086;000.063;84;000.617;Disklavier MIDI Out
242.252;000.041;79;000.656;Disklavier MIDI Out
242.245;000.049;83;000.609;Disklavier MIDI Out
241.239;001.067;57;000.680;Disklavier MIDI Out
241.244;001.064;54;000.656;Disklavier MIDI Out
242.409;000.039;81;000.531;Disklavier MIDI Out
242.422;000.046;57;000.531;Disklavier MIDI Out
242.399;000.074;78;000.664;Disklavier MIDI Out
242.410;000.064;54;000.555;Disklavier MIDI Out
242.582;000.060;76;000.617;Disklavier MIDI Out
242.583;000.072;79;000.602;Disklavier MIDI Out
242.740;000.069;75;000.602;Disklavier MIDI Out
242.745;000.101;78;000.641;Disklavier MIDI Out
242.914;000.048;76;000.602;Disklavier MIDI Out
242.909;000.071;79;000.656;Disklavier MIDI Out
243.081;000.070;74;000.609;Disklavier MIDI Out
243.079;000.079;77;000.648;Disklavier MIDI Out
242.581;000.676;59;000.656;Disklavier MIDI Out
242.584;000.709;55;000.672;Disklavier MIDI Out
243.274;000.050;72;000.578;Disklavier MIDI Out
243.268;000.065;76;000.688;Disklavier MIDI Out
243.441;000.040;74;000.602;Disklavier MIDI Out
243.443;000.067;77;000.617;Disklavier MIDI Out
243.605;000.039;76;000.586;Disklavier MIDI Out
243.599;000.071;79;000.656;Disklavier MIDI Out
243.769;000.034;77;000.586;Disklavier MIDI Out
243.766;000.068;81;000.609;Disklavier MIDI Out
243.931;000.052;79;000.594;Disklavier MIDI Out
243.932;000.070;83;000.625;Disklavier MIDI Out
244.097;000.035;81;000.555;Disklavier MIDI Out
244.095;000.070;84;000.609;Disklavier MIDI Out
244.259;000.039;83;000.586;Disklavier MIDI Out
244.258;000.064;86;000.633;Disklavier MIDI Out
244.419;000.034;84;000.594;Disklavier MIDI Out
244.423;000.064;88;000.633;Disklavier MIDI Out
244.591;000.045;89;000.609;Disklavier MIDI Out
244.589;000.052;86;000.586;Disklavier MIDI Out
244.747;000.044;88;000.562;Disklavier MIDI Out
244.749;000.070;91;000.617;Disklavier MIDI Out
243.258;001.566;60;000.680;Disklavier MIDI Out
243.260;001.614;57;000.641;Disklavier MIDI Out
244.921;000.045;89;000.531;Disklavier MIDI Out
244.922;000.076;93;000.586;Disklavier MIDI Out
245.086;000.042;88;000.508;Disklavier MIDI Out
245.080;000.053;60;000.438;Disklavier MIDI Out
245.071;000.065;57;000.469;Disklavier MIDI Out
245.077;000.082;91;000.586;Disklavier MIDI Out
245.252;000.045;89;000.570;Disklavier MIDI Out
245.262;000.049;86;000.516;Disklavier MIDI Out
245.431;000.042;84;000.516;Disklavier MIDI Out
245.429;000.072;88;000.570;Disklavier MIDI Out
245.600;000.044;86;000.562;Disklavier MIDI Out
245.613;000.044;83;000.469;Disklavier MIDI Out
245.771;000.042;81;000.516;Disklavier MIDI Out
245.771;000.062;84;000.562;Disklavier MIDI Out
245.270;000.667;53;000.438;Disklavier MIDI Out
245.257;000.681;57;000.469;Disklavier MIDI Out
245.944;000.040;83;000.555;Disklavier MIDI Out
245.949;000.045;79;000.477;Disklavier MIDI Out
246.119;000.044;77;000.508;Disklavier MIDI Out
246.118;000.057;81;000.531;Disklavier MIDI Out
246.284;000.039;79;000.555;Disklavier MIDI Out
246.298;000.046;76;000.445;Disklavier MIDI Out
245.934;000.446;59;000.406;Disklavier MIDI Out
246.451;000.054;74;000.555;Disklavier MIDI Out
246.456;000.063;77;000.508;Disklavier MIDI Out
245.926;000.701;55;000.422;Disklavier MIDI Out
246.633;000.046;76;000.562;Disklavier MIDI Out
246.641;000.048;72;000.477;Disklavier MIDI Out
246.823;000.048;71;000.516;Disklavier MIDI Out
246.828;000.062;74;000.516;Disklavier MIDI Out
247.028;000.048;72;000.445;Disklavier MIDI Out
247.036;000.054;69;000.430;Disklavier MIDI Out
247.242;000.066;67;000.438;Disklavier MIDI Out
247.240;000.080;71;000.477;Disklavier MIDI Out
246.632;000.917;60;000.375;Disklavier MIDI Out
247.499;000.066;69;000.461;Disklavier MIDI Out
247.524;000.046;65;000.289;Disklavier MIDI Out
246.643;000.990;48;000.344;Disklavier MIDI Out
247.771;000.061;64;000.367;Disklavier MIDI Out
247.769;000.071;67;000.422;Disklavier MIDI Out
248.053;000.064;65;000.359;Disklavier MIDI Out
248.048;000.085;69;000.438;Disklavier MIDI Out
248.371;000.130;62;000.328;Disklavier MIDI Out
248.355;000.160;71;000.383;Disklavier MIDI Out
248.385;000.180;43;000.219;Disklavier MIDI Out
248.838;000.252;72;000.359;Disklavier MIDI Out
248.842;000.256;64;000.312;Disklavier MIDI Out
248.852;000.437;36;000.141;Disklavier MIDI Out
250.505;000.683;36;000.125;Disklavier MIDI Out
250.966;000.362;69;000.320;Disklavier MIDI Out
250.958;000.375;43;000.234;Disklavier MIDI Out
251.301;000.276;55;000.328;Disklavier MIDI Out
251.274;000.381;67;000.438;Disklavier MIDI Out
251.295;000.362;52;000.344;Disklavier MIDI Out
251.842;000.062;59;000.453;Disklavier MIDI Out
251.837;000.091;71;000.500;Disklavier MIDI Out
251.565;000.507;36;000.383;Disklavier MIDI Out
251.836;000.452;43;000.383;Disklavier MIDI Out
252.119;000.387;60;000.453;Disklavier MIDI Out
252.118;000.441;52;000.367;Disklavier MIDI Out
252.670;000.061;62;000.430;Disklavier MIDI Out
252.104;000.633;72;000.516;Disklavier MIDI Out
252.655;000.110;74;000.555;Disklavier MIDI Out
252.386;000.477;36;000.430;Disklavier MIDI Out
252.934;000.085;52;000.383;Disklavier MIDI Out
252.660;000.520;43;000.414;Disklavier MIDI Out
252.933;000.272;64;000.438;Disklavier MIDI Out
252.924;000.604;76;000.516;Disklavier MIDI Out
253.476;000.089;62;000.414;Disklavier MIDI Out
253.472;000.324;74;000.547;Disklavier MIDI Out
253.201;000.649;35;000.461;Disklavier MIDI Out
253.477;000.459;43;000.359;Disklavier MIDI Out
253.758;000.302;60;000.430;Disklavier MIDI Out
253.762;000.472;50;000.430;Disklavier MIDI Out
253.741;000.593;72;000.578;Disklavier MIDI Out
254.287;000.091;59;000.461;Disklavier MIDI Out
254.270;000.121;71;000.570;Disklavier MIDI Out
254.028;000.504;35;000.453;Disklavier MIDI Out
254.286;000.349;43;000.453;Disklavier MIDI Out
254.582;000.175;57;000.461;Disklavier MIDI Out
254.557;000.425;50;000.422;Disklavier MIDI Out
254.801;000.309;35;000.500;Disklavier MIDI Out
254.547;000.595;69;000.578;Disklavier MIDI Out
255.053;000.122;54;000.492;Disklavier MIDI Out
255.073;000.211;43;000.453;Disklavier MIDI Out
255.055;000.340;66;000.570;Disklavier MIDI Out
255.356;000.181;55;000.453;Disklavier MIDI Out
255.339;000.251;50;000.461;Disklavier MIDI Out
255.343;000.389;67;000.609;Disklavier MIDI Out
255.602;000.287;37;000.469;Disklavier MIDI Out
255.883;000.119;58;000.477;Disklavier MIDI Out
255.867;000.160;70;000.609;Disklavier MIDI Out
255.877;000.501;43;000.406;Disklavier MIDI Out
256.156;000.305;57;000.602;Disklavier MIDI Out
256.159;000.308;52;000.461;Disklavier MIDI Out
256.139;000.392;69;000.617;Disklavier MIDI Out
256.672;000.157;63;000.570;Disklavier MIDI Out
256.401;000.474;37;000.477;Disklavier MIDI Out
256.664;000.318;75;000.648;Disklavier MIDI Out
256.676;000.455;45;000.438;Disklavier MIDI Out
256.934;000.366;64;000.602;Disklavier MIDI Out
256.924;000.586;52;000.461;Disklavier MIDI Out
257.200;000.323;37;000.578;Disklavier MIDI Out
257.468;000.108;65;000.539;Disklavier MIDI Out
256.929;000.665;76;000.680;Disklavier MIDI Out
257.454;000.183;77;000.727;Disklavier MIDI Out
257.787;000.037;78;000.289;Disklavier MIDI Out
257.465;000.371;45;000.461;Disklavier MIDI Out
257.748;000.356;52;000.438;Disklavier MIDI Out
257.747;000.480;67;000.586;Disklavier MIDI Out
257.739;000.538;79;000.719;Disklavier MIDI Out
258.455;000.090;64;000.578;Disklavier MIDI Out
258.045;000.706;38;000.539;Disklavier MIDI Out
258.451;000.443;76;000.547;Disklavier MIDI Out
258.441;000.595;45;000.477;Disklavier MIDI Out
258.798;000.367;65;000.523;Disklavier MIDI Out
258.796;000.385;77;000.672;Disklavier MIDI Out
258.795;000.442;53;000.422;Disklavier MIDI Out
259.332;000.093;64;000.555;Disklavier MIDI Out
259.315;000.111;76;000.672;Disklavier MIDI Out
259.055;000.494;38;000.516;Disklavier MIDI Out
259.311;000.465;45;000.453;Disklavier MIDI Out
259.586;000.347;62;000.500;Disklavier MIDI Out
259.587;000.441;53;000.461;Disklavier MIDI Out
259.580;000.591;74;000.633;Disklavier MIDI Out
260.106;000.101;76;000.609;Disklavier MIDI Out
260.121;000.091;64;000.555;Disklavier MIDI Out
259.844;000.473;38;000.539;Disklavier MIDI Out
260.109;000.277;45;000.477;Disklavier MIDI Out
260.391;000.143;53;000.453;Disklavier MIDI Out
260.381;000.357;60;000.539;Disklavier MIDI Out
260.379;000.567;72;000.609;Disklavier MIDI Out
260.910;000.100;58;000.531;Disklavier MIDI Out
260.974;000.074;66;000.203;Disklavier MIDI Out
260.904;000.280;70;000.625;Disklavier MIDI Out
260.650;000.551;39;000.531;Disklavier MIDI Out
260.929;000.342;47;000.508;Disklavier MIDI Out
261.184;000.211;59;000.586;Disklavier MIDI Out
261.177;000.393;71;000.688;Disklavier MIDI Out
261.199;000.379;54;000.508;Disklavier MIDI Out
261.724;000.039;65;000.539;Disklavier MIDI Out
261.458;000.504;39;000.594;Disklavier MIDI Out
261.707;000.326;77;000.656;Disklavier MIDI Out
261.707;000.462;47;000.539;Disklavier MIDI Out
262.002;000.268;54;000.523;Disklavier MIDI Out
261.976;000.418;66;000.633;Disklavier MIDI Out
262.498;000.074;67;000.625;Disklavier MIDI Out
261.967;000.623;78;000.688;Disklavier MIDI Out
262.491;000.131;79;000.719;Disklavier MIDI Out
262.230;000.410;39;000.609;Disklavier MIDI Out
262.776;000.079;54;000.562;Disklavier MIDI Out
262.490;000.428;48;000.586;Disklavier MIDI Out
262.766;000.384;69;000.703;Disklavier MIDI Out
262.759;000.425;81;000.766;Disklavier MIDI Out
263.290;000.053;67;000.625;Disklavier MIDI Out
263.288;000.084;79;000.719;Disklavier MIDI Out
263.031;000.452;40;000.617;Disklavier MIDI Out
263.295;000.397;48;000.555;Disklavier MIDI Out
263.591;000.302;55;000.523;Disklavier MIDI Out
263.566;000.444;82;000.719;Disklavier MIDI Out
263.573;000.472;70;000.703;Disklavier MIDI Out
264.108;000.066;69;000.734;Disklavier MIDI Out
264.108;000.096;81;000.703;Disklavier MIDI Out
263.833;000.591;41;000.617;Disklavier MIDI Out
264.402;000.250;69;000.742;Disklavier MIDI Out
264.119;000.574;48;000.555;Disklavier MIDI Out
264.397;000.362;81;000.750;Disklavier MIDI Out
264.423;000.578;57;000.555;Disklavier MIDI Out
264.976;000.046;81;000.680;Disklavier MIDI Out
264.970;000.059;93;000.797;Disklavier MIDI Out
264.688;000.843;41;000.656;Disklavier MIDI Out
264.980;000.716;49;000.578;Disklavier MIDI Out
265.357;000.589;93;000.828;Disklavier MIDI Out
265.364;000.592;81;000.727;Disklavier MIDI Out
265.357;000.740;57;000.547;Disklavier MIDI Out
266.088;000.069;79;000.586;Disklavier MIDI Out
266.080;000.096;91;000.625;Disklavier MIDI Out
265.724;000.495;41;000.555;Disklavier MIDI Out
266.080;000.312;50;000.414;Disklavier MIDI Out
266.370;000.267;57;000.398;Disklavier MIDI Out
266.375;000.357;77;000.539;Disklavier MIDI Out
266.364;000.562;89;000.633;Disklavier MIDI Out
266.903;000.070;76;000.500;Disklavier MIDI Out
266.639;000.485;43;000.445;Disklavier MIDI Out
266.901;000.364;88;000.570;Disklavier MIDI Out
267.177;000.093;77;000.469;Disklavier MIDI Out
267.181;000.103;89;000.609;Disklavier MIDI Out
266.905;000.403;50;000.414;Disklavier MIDI Out
267.176;000.247;59;000.398;Disklavier MIDI Out
267.445;000.054;74;000.500;Disklavier MIDI Out
267.440;000.099;86;000.586;Disklavier MIDI Out
267.730;000.040;79;000.477;Disklavier MIDI Out
267.709;000.072;91;000.609;Disklavier MIDI Out
267.420;000.391;43;000.367;Disklavier MIDI Out
268.025;000.066;59;000.367;Disklavier MIDI Out
267.702;000.510;53;000.375;Disklavier MIDI Out
268.016;000.390;91;000.578;Disklavier MIDI Out
268.029;000.401;79;000.453;Disklavier MIDI Out
268.660;000.065;84;000.445;Disklavier MIDI Out
268.692;000.053;72;000.297;Disklavier MIDI Out
268.926;000.057;71;000.461;Disklavier MIDI Out
268.915;000.094;83;000.539;Disklavier MIDI Out
268.357;000.826;60;000.359;Disklavier MIDI Out
268.368;000.852;52;000.297;Disklavier MIDI Out
269.214;000.046;72;000.336;Disklavier MIDI Out
269.189;000.074;84;000.516;Disklavier MIDI Out
268.352;000.929;48;000.320;Disklavier MIDI Out
269.479;000.038;81;000.273;Disklavier MIDI Out
269.478;000.044;69;000.297;Disklavier MIDI Out
269.497;000.038;79;000.289;Disklavier MIDI Out
269.713;000.085;79;000.469;Disklavier MIDI Out
269.734;000.078;67;000.453;Disklavier MIDI Out
270.006;000.053;65;000.414;Disklavier MIDI Out
269.992;000.068;77;000.516;Disklavier MIDI Out
270.265;000.031;62;000.375;Disklavier MIDI Out
270.246;000.053;74;000.555;Disklavier MIDI Out
270.539;000.039;79;000.523;Disklavier MIDI Out
270.552;000.031;67;000.430;Disklavier MIDI Out
270.914;000.032;72;000.453;Disklavier MIDI Out
270.919;000.030;60;000.422;Disklavier MIDI Out
271.123;000.039;67;000.508;Disklavier MIDI Out
271.154;000.048;55;000.227;Disklavier MIDI Out
271.323;000.030;57;000.414;Disklavier MIDI Out
271.315;000.040;69;000.492;Disklavier MIDI Out
270.936;000.439;36;000.273;Disklavier MIDI Out
271.213;000.279;43;000.352;Disklavier MIDI Out
271.505;000.070;55;000.422;Disklavier MIDI Out
271.493;000.113;67;000.523;Disklavier MIDI Out
271.436;000.201;52;000.406;Disklavier MIDI Out
271.800;000.037;71;000.547;Disklavier MIDI Out
271.807;000.031;59;000.461;Disklavier MIDI Out
271.651;000.291;36;000.445;Disklavier MIDI Out
271.981;000.034;74;000.578;Disklavier MIDI Out
271.996;000.034;62;000.359;Disklavier MIDI Out
271.879;000.340;43;000.430;Disklavier MIDI Out
272.163;000.106;60;000.422;Disklavier MIDI Out
272.149;000.131;72;000.508;Disklavier MIDI Out
272.101;000.198;52;000.375;Disklavier MIDI Out
272.472;000.037;60;000.500;Disklavier MIDI Out
272.467;000.044;72;000.539;Disklavier MIDI Out
272.306;000.280;36;000.469;Disklavier MIDI Out
272.670;000.028;62;000.438;Disklavier MIDI Out
272.654;000.046;74;000.602;Disklavier MIDI Out
272.796;000.079;52;000.422;Disklavier MIDI Out
272.521;000.442;43;000.422;Disklavier MIDI Out
272.840;000.126;64;000.461;Disklavier MIDI Out
272.833;000.153;76;000.578;Disklavier MIDI Out
273.147;000.037;76;000.516;Disklavier MIDI Out
273.153;000.046;64;000.438;Disklavier MIDI Out
272.987;000.295;35;000.523;Disklavier MIDI Out
273.332;000.034;74;000.570;Disklavier MIDI Out
273.342;000.040;62;000.422;Disklavier MIDI Out
273.218;000.283;43;000.422;Disklavier MIDI Out
273.511;000.101;60;000.500;Disklavier MIDI Out
273.490;000.132;50;000.453;Disklavier MIDI Out
273.509;000.127;72;000.539;Disklavier MIDI Out
273.822;000.044;72;000.477;Disklavier MIDI Out
273.818;000.057;60;000.453;Disklavier MIDI Out
273.675;000.323;35;000.508;Disklavier MIDI Out
273.995;000.054;71;000.602;Disklavier MIDI Out
273.998;000.052;59;000.516;Disklavier MIDI Out
273.908;000.284;43;000.445;Disklavier MIDI Out
274.180;000.090;57;000.461;Disklavier MIDI Out
274.172;000.114;69;000.547;Disklavier MIDI Out
274.155;000.156;50;000.445;Disklavier MIDI Out
274.484;000.050;69;000.586;Disklavier MIDI Out
274.495;000.042;57;000.430;Disklavier MIDI Out
274.335;000.235;35;000.531;Disklavier MIDI Out
274.671;000.049;54;000.516;Disklavier MIDI Out
274.545;000.209;43;000.445;Disklavier MIDI Out
274.666;000.142;66;000.547;Disklavier MIDI Out
274.857;000.084;55;000.453;Disklavier MIDI Out
274.782;000.165;50;000.398;Disklavier MIDI Out
274.847;000.116;67;000.555;Disklavier MIDI Out
275.173;000.032;55;000.500;Disklavier MIDI Out
275.161;000.048;67;000.523;Disklavier MIDI Out
274.994;000.252;37;000.523;Disklavier MIDI Out
275.343;000.040;58;000.539;Disklavier MIDI Out
275.333;000.060;70;000.609;Disklavier MIDI Out
275.466;000.103;52;000.430;Disklavier MIDI Out
275.523;000.119;57;000.523;Disklavier MIDI Out
275.218;000.441;43;000.414;Disklavier MIDI Out
275.516;000.154;69;000.578;Disklavier MIDI Out
275.807;000.027;57;000.461;Disklavier MIDI Out
275.803;000.037;69;000.609;Disklavier MIDI Out
275.657;000.266;37;000.555;Disklavier MIDI Out
275.972;000.044;63;000.547;Disklavier MIDI Out
275.971;000.068;75;000.633;Disklavier MIDI Out
276.128;000.085;52;000.453;Disklavier MIDI Out
276.138;000.108;64;000.570;Disklavier MIDI Out
276.132;000.145;76;000.609;Disklavier MIDI Out
275.886;000.392;45;000.477;Disklavier MIDI Out
276.443;000.040;64;000.547;Disklavier MIDI Out
276.436;000.074;76;000.602;Disklavier MIDI Out
276.289;000.276;37;000.586;Disklavier MIDI Out
276.614;000.045;65;000.617;Disklavier MIDI Out
276.615;000.066;77;000.656;Disklavier MIDI Out
276.512;000.277;45;000.500;Disklavier MIDI Out
276.760;000.174;52;000.461;Disklavier MIDI Out
276.789;000.161;67;000.586;Disklavier MIDI Out
276.784;000.186;79;000.641;Disklavier MIDI Out
277.125;000.028;69;000.383;Disklavier MIDI Out
277.110;000.060;79;000.648;Disklavier MIDI Out
277.154;000.041;67;000.234;Disklavier MIDI Out
276.934;000.315;38;000.578;Disklavier MIDI Out
277.288;000.043;64;000.547;Disklavier MIDI Out
277.289;000.068;76;000.633;Disklavier MIDI Out
277.445;000.121;53;000.477;Disklavier MIDI Out
277.185;000.428;45;000.469;Disklavier MIDI Out
277.449;000.170;65;000.547;Disklavier MIDI Out
277.447;000.186;77;000.633;Disklavier MIDI Out
277.778;000.039;77;000.609;Disklavier MIDI Out
277.772;000.051;65;000.539;Disklavier MIDI Out
277.620;000.326;38;000.578;Disklavier MIDI Out
277.947;000.052;64;000.531;Disklavier MIDI Out
277.943;000.066;76;000.609;Disklavier MIDI Out
277.869;000.359;45;000.500;Disklavier MIDI Out
278.123;000.139;62;000.562;Disklavier MIDI Out
278.134;000.139;53;000.508;Disklavier MIDI Out
278.116;000.164;74;000.617;Disklavier MIDI Out
278.418;000.043;62;000.523;Disklavier MIDI Out
278.423;000.069;74;000.609;Disklavier MIDI Out
278.301;000.297;38;000.570;Disklavier MIDI Out
278.591;000.042;64;000.555;Disklavier MIDI Out
278.586;000.064;76;000.648;Disklavier MIDI Out
278.516;000.229;45;000.484;Disklavier MIDI Out
278.753;000.105;53;000.508;Disklavier MIDI Out
278.777;000.187;60;000.562;Disklavier MIDI Out
278.766;000.226;72;000.594;Disklavier MIDI Out
279.110;000.037;60;000.539;Disklavier MIDI Out
279.103;000.065;72;000.555;Disklavier MIDI Out
279.277;000.046;58;000.547;Disklavier MIDI Out
278.942;000.399;39;000.594;Disklavier MIDI Out
279.276;000.092;70;000.562;Disklavier MIDI Out
279.188;000.310;47;000.539;Disklavier MIDI Out
279.437;000.151;54;000.570;Disklavier MIDI Out
279.444;000.168;59;000.578;Disklavier MIDI Out
279.439;000.186;71;000.648;Disklavier MIDI Out
279.749;000.031;59;000.562;Disklavier MIDI Out
279.747;000.064;71;000.648;Disklavier MIDI Out
279.929;000.041;65;000.562;Disklavier MIDI Out
279.922;000.068;77;000.656;Disklavier MIDI Out
279.611;000.384;39;000.625;Disklavier MIDI Out
280.085;000.133;54;000.570;Disklavier MIDI Out
279.831;000.443;47;000.617;Disklavier MIDI Out
280.091;000.208;66;000.641;Disklavier MIDI Out
280.091;000.229;78;000.688;Disklavier MIDI Out
280.415;000.077;66;000.633;Disklavier MIDI Out
280.256;000.348;39;000.625;Disklavier MIDI Out
280.416;000.221;78;000.672;Disklavier MIDI Out
280.585;000.056;67;000.633;Disklavier MIDI Out
280.587;000.078;79;000.672;Disklavier MIDI Out
280.759;000.089;54;000.555;Disklavier MIDI Out
280.480;000.445;48;000.570;Disklavier MIDI Out
280.754;000.217;69;000.672;Disklavier MIDI Out
280.748;000.245;81;000.727;Disklavier MIDI Out
281.091;000.038;69;000.578;Disklavier MIDI Out
281.086;000.060;81;000.641;Disklavier MIDI Out
280.917;000.334;40;000.633;Disklavier MIDI Out
281.253;000.059;66;000.609;Disklavier MIDI Out
281.265;000.189;78;000.656;Disklavier MIDI Out
281.163;000.425;48;000.531;Disklavier MIDI Out
281.428;000.195;67;000.734;Disklavier MIDI Out
281.428;000.214;79;000.711;Disklavier MIDI Out
281.373;000.342;55;000.516;Disklavier MIDI Out
281.762;000.043;68;000.625;Disklavier MIDI Out
281.764;000.073;80;000.672;Disklavier MIDI Out
281.942;000.062;71;000.688;Disklavier MIDI Out
281.944;000.070;83;000.711;Disklavier MIDI Out
281.987;000.030;80;000.391;Disklavier MIDI Out
281.985;000.033;81;000.344;Disklavier MIDI Out
281.588;000.471;41;000.656;Disklavier MIDI Out
282.094;000.224;57;000.539;Disklavier MIDI Out
281.844;000.477;48;000.594;Disklavier MIDI Out
282.127;000.230;69;000.727;Disklavier MIDI Out
282.126;000.252;81;000.719;Disklavier MIDI Out
282.472;000.051;69;000.750;Disklavier MIDI Out
282.476;000.076;81;000.742;Disklavier MIDI Out
282.778;000.052;81;000.703;Disklavier MIDI Out
282.771;000.059;93;000.781;Disklavier MIDI Out
282.293;000.891;41;000.664;Disklavier MIDI Out
282.635;000.713;49;000.578;Disklavier MIDI Out
283.003;000.364;57;000.594;Disklavier MIDI Out
283.141;000.310;81;000.703;Disklavier MIDI Out
283.134;000.341;93;000.805;Disklavier MIDI Out
283.576;000.061;81;000.602;Disklavier MIDI Out
283.570;000.070;93;000.648;Disklavier MIDI Out
283.354;000.446;41;000.625;Disklavier MIDI Out
283.781;000.064;79;000.586;Disklavier MIDI Out
283.778;000.069;91;000.672;Disklavier MIDI Out
283.657;000.431;50;000.531;Disklavier MIDI Out
283.914;000.234;57;000.422;Disklavier MIDI Out
283.972;000.190;77;000.586;Disklavier MIDI Out
283.969;000.224;89;000.664;Disklavier MIDI Out
284.322;000.036;89;000.586;Disklavier MIDI Out
284.320;000.041;77;000.516;Disklavier MIDI Out
284.493;000.043;76;000.531;Disklavier MIDI Out
284.494;000.072;88;000.609;Disklavier MIDI Out
284.126;000.463;43;000.555;Disklavier MIDI Out
284.639;000.165;59;000.383;Disklavier MIDI Out
284.401;000.443;50;000.500;Disklavier MIDI Out
284.676;000.190;89;000.648;Disklavier MIDI Out
284.686;000.181;77;000.500;Disklavier MIDI Out
285.051;000.032;74;000.492;Disklavier MIDI Out
285.043;000.067;86;000.609;Disklavier MIDI Out
284.861;000.318;43;000.516;Disklavier MIDI Out
285.255;000.035;79;000.547;Disklavier MIDI Out
285.250;000.069;91;000.633;Disklavier MIDI Out
285.406;000.071;59;000.375;Disklavier MIDI Out
285.132;000.419;53;000.422;Disklavier MIDI Out
285.534;000.057;90;000.242;Disklavier MIDI Out
285.496;000.271;79;000.562;Disklavier MIDI Out
285.482;000.327;91;000.609;Disklavier MIDI Out
285.949;000.041;79;000.453;Disklavier MIDI Out
285.955;000.037;91;000.555;Disklavier MIDI Out
286.156;000.035;72;000.477;Disklavier MIDI Out
286.153;000.039;84;000.531;Disklavier MIDI Out
285.697;000.501;60;000.461;Disklavier MIDI Out
286.348;000.041;71;000.453;Disklavier MIDI Out
286.339;000.071;83;000.586;Disklavier MIDI Out
285.724;000.697;52;000.359;Disklavier MIDI Out
285.709;000.803;48;000.375;Disklavier MIDI Out
286.561;000.036;74;000.383;Disklavier MIDI Out
286.540;000.063;86;000.570;Disklavier MIDI Out
286.745;000.037;84;000.539;Disklavier MIDI Out
286.757;000.031;72;000.391;Disklavier MIDI Out
286.956;000.037;79;000.539;Disklavier MIDI Out
286.964;000.031;67;000.430;Disklavier MIDI Out
287.207;000.027;76;000.422;Disklavier MIDI Out
287.230;000.040;64;000.305;Disklavier MIDI Out
287.611;000.181;60;000.336;Disklavier MIDI Out
287.592;000.205;72;000.398;Disklavier MIDI Out
288.701;000.121;48;000.258;Disklavier MIDI Out
289.116;000.184;63;000.344;Disklavier MIDI Out
289.343;000.297;60;000.297;Disklavier MIDI Out
289.520;000.124;63;000.305;Disklavier MIDI Out
289.714;000.120;55;000.312;Disklavier MIDI Out
289.899;000.084;63;000.281;Disklavier MIDI Out
290.063;000.230;60;000.250;Disklavier MIDI Out
290.240;000.098;63;000.305;Disklavier MIDI Out
290.409;000.098;55;000.219;Disklavier MIDI Out
290.608;000.057;63;000.180;Disklavier MIDI Out
289.704;001.095;84;000.508;Disklavier MIDI Out
290.772;000.076;60;000.172;Disklavier MIDI Out
290.933;000.064;63;000.078;Disklavier MIDI Out
291.143;000.067;43;000.297;Disklavier MIDI Out
290.780;000.693;87;000.500;Disklavier MIDI Out
291.412;000.141;62;000.367;Disklavier MIDI Out
291.189;000.441;86;000.469;Disklavier MIDI Out
291.604;000.059;84;000.492;Disklavier MIDI Out
291.759;000.154;62;000.383;Disklavier MIDI Out
291.599;000.364;59;000.328;Disklavier MIDI Out
291.974;000.160;55;000.352;Disklavier MIDI Out
292.135;000.152;62;000.383;Disklavier MIDI Out
291.950;000.351;83;000.547;Disklavier MIDI Out
292.488;000.116;62;000.391;Disklavier MIDI Out
292.334;000.298;59;000.344;Disklavier MIDI Out
291.948;000.709;86;000.609;Disklavier MIDI Out
292.310;000.360;81;000.547;Disklavier MIDI Out
292.669;000.140;55;000.359;Disklavier MIDI Out
292.834;000.091;62;000.320;Disklavier MIDI Out
292.654;000.318;83;000.492;Disklavier MIDI Out
293.030;000.082;59;000.336;Disklavier MIDI Out
293.182;000.055;62;000.344;Disklavier MIDI Out
292.994;000.417;89;000.594;Disklavier MIDI Out
293.340;000.184;48;000.391;Disklavier MIDI Out
293.008;000.521;79;000.484;Disklavier MIDI Out
293.526;000.141;61;000.453;Disklavier MIDI Out
293.355;000.390;88;000.586;Disklavier MIDI Out
293.701;000.074;89;000.664;Disklavier MIDI Out
293.880;000.200;61;000.445;Disklavier MIDI Out
293.723;000.379;58;000.398;Disklavier MIDI Out
294.255;000.136;61;000.438;Disklavier MIDI Out
294.081;000.316;55;000.453;Disklavier MIDI Out
294.068;000.515;91;000.695;Disklavier MIDI Out
294.571;000.163;61;000.453;Disklavier MIDI Out
294.411;000.376;58;000.438;Disklavier MIDI Out
294.426;000.373;89;000.625;Disklavier MIDI Out
294.070;000.755;82;000.656;Disklavier MIDI Out
294.749;000.124;88;000.656;Disklavier MIDI Out
294.768;000.315;55;000.391;Disklavier MIDI Out
295.020;000.108;60;000.445;Disklavier MIDI Out
295.157;000.111;58;000.492;Disklavier MIDI Out
295.304;000.035;60;000.383;Disklavier MIDI Out
295.120;000.445;88;000.594;Disklavier MIDI Out
295.123;000.462;85;000.641;Disklavier MIDI Out
295.522;000.089;41;000.445;Disklavier MIDI Out
295.530;000.436;89;000.648;Disklavier MIDI Out
295.533;000.439;84;000.547;Disklavier MIDI Out
295.953;000.071;82;000.625;Disklavier MIDI Out
296.127;000.173;60;000.398;Disklavier MIDI Out
295.964;000.369;57;000.438;Disklavier MIDI Out
296.501;000.131;60;000.359;Disklavier MIDI Out
296.304;000.462;81;000.641;Disklavier MIDI Out
296.325;000.442;53;000.414;Disklavier MIDI Out
296.847;000.137;60;000.359;Disklavier MIDI Out
296.668;000.353;79;000.602;Disklavier MIDI Out
296.684;000.354;57;000.336;Disklavier MIDI Out
297.018;000.288;53;000.359;Disklavier MIDI Out
297.197;000.112;60;000.359;Disklavier MIDI Out
296.313;001.067;69;000.531;Disklavier MIDI Out
297.366;000.094;72;000.562;Disklavier MIDI Out
297.379;000.342;57;000.391;Disklavier MIDI Out
297.524;000.205;60;000.406;Disklavier MIDI Out
297.022;000.812;81;000.578;Disklavier MIDI Out
297.806;000.053;76;000.109;Disklavier MIDI Out
297.351;000.567;77;000.594;Disklavier MIDI Out
297.914;000.172;62;000.438;Disklavier MIDI Out
297.727;000.440;75;000.570;Disklavier MIDI Out
298.086;000.089;74;000.695;Disklavier MIDI Out
298.261;000.192;62;000.516;Disklavier MIDI Out
298.085;000.376;60;000.500;Disklavier MIDI Out
298.625;000.174;62;000.500;Disklavier MIDI Out
298.458;000.418;57;000.477;Disklavier MIDI Out
298.449;000.437;72;000.570;Disklavier MIDI Out
298.976;000.168;62;000.508;Disklavier MIDI Out
298.809;000.354;60;000.508;Disklavier MIDI Out
298.799;000.378;71;000.609;Disklavier MIDI Out
298.436;000.756;78;000.680;Disklavier MIDI Out
299.134;000.133;72;000.609;Disklavier MIDI Out
299.326;000.157;62;000.539;Disklavier MIDI Out
299.487;000.044;69;000.570;Disklavier MIDI Out
299.506;000.029;79;000.469;Disklavier MIDI Out
297.721;001.817;50;000.406;Disklavier MIDI Out
299.484;000.071;81;000.664;Disklavier MIDI Out
299.145;000.437;57;000.500;Disklavier MIDI Out
299.509;000.160;60;000.508;Disklavier MIDI Out
299.686;000.155;62;000.547;Disklavier MIDI Out
299.881;000.261;77;000.641;Disklavier MIDI Out
299.879;000.469;86;000.688;Disklavier MIDI Out
299.877;000.516;59;000.516;Disklavier MIDI Out
300.065;000.330;62;000.586;Disklavier MIDI Out
299.882;000.537;74;000.633;Disklavier MIDI Out
300.240;000.204;65;000.539;Disklavier MIDI Out
300.434;000.039;68;000.656;Disklavier MIDI Out
300.247;000.654;84;000.734;Disklavier MIDI Out
300.812;000.528;83;000.680;Disklavier MIDI Out
301.253;000.197;86;000.547;Disklavier MIDI Out
301.451;000.193;80;000.578;Disklavier MIDI Out
301.633;000.182;83;000.578;Disklavier MIDI Out
301.805;000.218;77;000.555;Disklavier MIDI Out
301.980;000.139;80;000.547;Disklavier MIDI Out
300.824;001.424;53;000.680;Disklavier MIDI Out
302.151;000.209;74;000.539;Disklavier MIDI Out
302.150;000.278;56;000.523;Disklavier MIDI Out
302.510;000.173;71;000.531;Disklavier MIDI Out
302.327;000.412;77;000.547;Disklavier MIDI Out
302.684;000.201;74;000.586;Disklavier MIDI Out
302.504;000.407;56;000.547;Disklavier MIDI Out
302.866;000.107;55;000.633;Disklavier MIDI Out
302.856;000.229;71;000.617;Disklavier MIDI Out
303.040;000.094;74;000.648;Disklavier MIDI Out
303.308;000.035;72;000.367;Disklavier MIDI Out
303.280;000.202;67;000.508;Disklavier MIDI Out
303.269;000.222;71;000.492;Disklavier MIDI Out
303.264;000.242;74;000.641;Disklavier MIDI Out
303.458;000.235;79;000.625;Disklavier MIDI Out
303.249;000.469;53;000.695;Disklavier MIDI Out
303.643;000.156;67;000.578;Disklavier MIDI Out
303.636;000.192;71;000.633;Disklavier MIDI Out
303.644;000.204;74;000.617;Disklavier MIDI Out
303.805;000.236;79;000.656;Disklavier MIDI Out
303.627;000.429;51;000.656;Disklavier MIDI Out
303.989;000.203;71;000.594;Disklavier MIDI Out
303.984;000.208;67;000.555;Disklavier MIDI Out
304.000;000.207;74;000.586;Disklavier MIDI Out
303.256;001.174;41;000.641;Disklavier MIDI Out
303.989;000.446;53;000.672;Disklavier MIDI Out
304.172;000.268;79;000.664;Disklavier MIDI Out
304.370;000.230;50;000.625;Disklavier MIDI Out
304.369;000.251;67;000.531;Disklavier MIDI Out
304.367;000.268;71;000.562;Disklavier MIDI Out
304.379;000.261;43;000.391;Disklavier MIDI Out
304.378;000.263;74;000.586;Disklavier MIDI Out
304.602;000.071;79;000.586;Disklavier MIDI Out
305.016;000.277;67;000.352;Disklavier MIDI Out
305.009;000.305;72;000.320;Disklavier MIDI Out
304.994;000.333;75;000.445;Disklavier MIDI Out
305.339;000.161;79;000.391;Disklavier MIDI Out
304.995;000.572;43;000.320;Disklavier MIDI Out
305.556;000.121;72;000.172;Disklavier MIDI Out
305.530;000.157;67;000.289;Disklavier MIDI Out
305.540;000.166;75;000.375;Disklavier MIDI Out
305.720;000.142;79;000.383;Disklavier MIDI Out
305.520;000.446;41;000.203;Disklavier MIDI Out
305.923;000.106;72;000.273;Disklavier MIDI Out
305.897;000.154;67;000.312;Disklavier MIDI Out
305.924;000.205;75;000.305;Disklavier MIDI Out
306.095;000.151;79;000.352;Disklavier MIDI Out
305.904;000.432;39;000.289;Disklavier MIDI Out
306.272;000.148;67;000.328;Disklavier MIDI Out
306.291;000.130;72;000.289;Disklavier MIDI Out
306.294;000.245;75;000.258;Disklavier MIDI Out
306.469;000.188;79;000.367;Disklavier MIDI Out
306.277;000.383;38;000.359;Disklavier MIDI Out
306.679;000.199;67;000.367;Disklavier MIDI Out
306.692;000.208;72;000.289;Disklavier MIDI Out
306.676;000.246;75;000.344;Disklavier MIDI Out
306.688;000.440;39;000.320;Disklavier MIDI Out
306.910;000.221;79;000.391;Disklavier MIDI Out
305.003;002.352;48;000.328;Disklavier MIDI Out
307.114;000.286;67;000.367;Disklavier MIDI Out
307.124;000.289;72;000.336;Disklavier MIDI Out
307.131;000.288;75;000.438;Disklavier MIDI Out
307.385;000.038;79;000.617;Disklavier MIDI Out
307.119;000.319;36;000.336;Disklavier MIDI Out
307.792;000.036;69;000.445;Disklavier MIDI Out
307.749;000.355;72;000.719;Disklavier MIDI Out
307.755;000.374;60;000.781;Disklavier MIDI Out
307.752;000.442;67;000.625;Disklavier MIDI Out
307.751;000.496;63;000.727;Disklavier MIDI Out
308.299;000.203;60;000.688;Disklavier MIDI Out
308.491;000.128;62;000.633;Disklavier MIDI Out
308.691;000.062;63;000.648;Disklavier MIDI Out
308.797;000.084;65;000.594;Disklavier MIDI Out
308.863;000.081;67;000.680;Disklavier MIDI Out
308.921;000.078;69;000.609;Disklavier MIDI Out
308.967;000.033;71;000.625;Disklavier MIDI Out
309.048;000.088;72;000.641;Disklavier MIDI Out
309.112;000.079;74;000.680;Disklavier MIDI Out
309.167;000.057;75;000.648;Disklavier MIDI Out
309.253;000.091;77;000.641;Disklavier MIDI Out
309.321;000.117;79;000.547;Disklavier MIDI Out
309.345;000.140;81;000.453;Disklavier MIDI Out
309.417;000.285;83;000.633;Disklavier MIDI Out
307.756;002.004;48;000.773;Disklavier MIDI Out
307.757;002.050;43;000.672;Disklavier MIDI Out
307.760;002.084;39;000.680;Disklavier MIDI Out
307.759;002.095;36;000.633;Disklavier MIDI Out
309.448;000.491;84;000.750;Disklavier MIDI Out
310.217;000.084;31;000.680;Disklavier MIDI Out
310.594;000.212;62;000.695;Disklavier MIDI Out
310.785;000.065;63;000.664;Disklavier MIDI Out
310.988;000.078;65;000.672;Disklavier MIDI Out
311.054;000.080;67;000.664;Disklavier MIDI Out
311.121;000.080;69;000.586;Disklavier MIDI Out
311.168;000.034;71;000.641;Disklavier MIDI Out
311.251;000.085;72;000.656;Disklavier MIDI Out
311.323;000.075;74;000.719;Disklavier MIDI Out
311.380;000.055;75;000.609;Disklavier MIDI Out
311.462;000.090;77;000.625;Disklavier MIDI Out
311.537;000.108;79;000.664;Disklavier MIDI Out
311.588;000.097;81;000.672;Disklavier MIDI Out
311.645;000.059;83;000.531;Disklavier MIDI Out
311.679;000.048;84;000.672;Disklavier MIDI Out
310.210;001.851;38;000.688;Disklavier MIDI Out
310.212;001.856;35;000.664;Disklavier MIDI Out
310.750;001.322;31;000.406;Disklavier MIDI Out
310.203;001.881;43;000.727;Disklavier MIDI Out
311.753;000.669;86;000.797;Disklavier MIDI Out
312.888;000.197;64;000.734;Disklavier MIDI Out
313.082;000.036;65;000.648;Disklavier MIDI Out
313.272;000.123;67;000.648;Disklavier MIDI Out
313.328;000.069;69;000.664;Disklavier MIDI Out
313.396;000.050;70;000.648;Disklavier MIDI Out
313.484;000.069;72;000.562;Disklavier MIDI Out
313.546;000.067;74;000.711;Disklavier MIDI Out
313.596;000.067;76;000.641;Disklavier MIDI Out
313.692;000.095;77;000.703;Disklavier MIDI Out
313.753;000.098;79;000.680;Disklavier MIDI Out
313.797;000.091;81;000.664;Disklavier MIDI Out
313.843;000.072;82;000.672;Disklavier MIDI Out
313.930;000.061;84;000.672;Disklavier MIDI Out
314.021;000.074;86;000.586;Disklavier MIDI Out
312.499;001.915;48;000.734;Disklavier MIDI Out
312.498;001.942;43;000.641;Disklavier MIDI Out
312.495;001.964;46;000.711;Disklavier MIDI Out
312.502;001.982;40;000.594;Disklavier MIDI Out
312.497;002.017;36;000.609;Disklavier MIDI Out
314.029;000.815;88;000.656;Disklavier MIDI Out
315.204;000.192;65;000.688;Disklavier MIDI Out
315.387;000.049;67;000.664;Disklavier MIDI Out
315.587;000.057;69;000.680;Disklavier MIDI Out
315.660;000.052;70;000.688;Disklavier MIDI Out
315.754;000.077;72;000.578;Disklavier MIDI Out
315.823;000.064;74;000.664;Disklavier MIDI Out
315.872;000.052;76;000.625;Disklavier MIDI Out
315.968;000.085;77;000.664;Disklavier MIDI Out
316.023;000.096;79;000.680;Disklavier MIDI Out
316.072;000.095;81;000.664;Disklavier MIDI Out
316.120;000.067;82;000.664;Disklavier MIDI Out
316.207;000.088;84;000.641;Disklavier MIDI Out
316.270;000.099;86;000.703;Disklavier MIDI Out
316.332;000.058;88;000.617;Disklavier MIDI Out
316.524;000.001;88;000.227;Disklavier MIDI Out
314.817;001.839;29;000.594;Disklavier MIDI Out
314.812;001.864;36;000.656;Disklavier MIDI Out
314.809;001.869;33;000.648;Disklavier MIDI Out
314.805;001.878;41;000.727;Disklavier MIDI Out
316.344;000.572;89;000.789;Disklavier MIDI Out
317.511;000.178;66;000.703;Disklavier MIDI Out
317.674;000.059;67;000.656;Disklavier MIDI Out
317.866;000.076;69;000.688;Disklavier MIDI Out
317.941;000.058;71;000.656;Disklavier MIDI Out
317.991;000.052;72;000.633;Disklavier MIDI Out
318.113;000.043;72;000.398;Disklavier MIDI Out
318.124;000.038;74;000.477;Disklavier MIDI Out
318.153;000.073;76;000.672;Disklavier MIDI Out
318.218;000.062;78;000.633;Disklavier MIDI Out
318.303;000.080;79;000.688;Disklavier MIDI Out
318.391;000.058;81;000.617;Disklavier MIDI Out
318.428;000.038;83;000.617;Disklavier MIDI Out
318.514;000.098;84;000.648;Disklavier MIDI Out
318.578;000.091;86;000.703;Disklavier MIDI Out
318.626;000.097;88;000.648;Disklavier MIDI Out
318.669;000.190;90;000.766;Disklavier MIDI Out
317.107;001.878;50;000.727;Disklavier MIDI Out
317.114;001.899;45;000.680;Disklavier MIDI Out
317.113;001.925;42;000.648;Disklavier MIDI Out
317.116;001.938;38;000.680;Disklavier MIDI Out
319.043;000.076;79;000.641;Disklavier MIDI Out
319.098;000.052;81;000.648;Disklavier MIDI Out
319.135;000.036;83;000.625;Disklavier MIDI Out
319.232;000.119;84;000.570;Disklavier MIDI Out
319.285;000.111;86;000.648;Disklavier MIDI Out
319.320;000.139;88;000.672;Disklavier MIDI Out
319.375;000.085;90;000.555;Disklavier MIDI Out
319.423;000.156;91;000.805;Disklavier MIDI Out
319.427;000.301;43;000.734;Disklavier MIDI Out
319.426;000.353;31;000.594;Disklavier MIDI Out
319.837;000.040;80;000.602;Disklavier MIDI Out
319.967;000.075;84;000.531;Disklavier MIDI Out
320.010;000.051;83;000.188;Disklavier MIDI Out
320.040;000.072;86;000.664;Disklavier MIDI Out
320.105;000.035;87;000.617;Disklavier MIDI Out
320.251;000.043;91;000.680;Disklavier MIDI Out
320.176;000.123;89;000.695;Disklavier MIDI Out
320.254;000.151;92;000.789;Disklavier MIDI Out
320.225;000.293;44;000.719;Disklavier MIDI Out
320.224;000.317;32;000.617;Disklavier MIDI Out
320.682;000.027;77;000.461;Disklavier MIDI Out
320.661;000.145;79;000.422;Disklavier MIDI Out
320.768;000.070;80;000.578;Disklavier MIDI Out
320.812;000.038;82;000.602;Disklavier MIDI Out
320.914;000.069;84;000.445;Disklavier MIDI Out
320.958;000.056;83;000.141;Disklavier MIDI Out
320.962;000.079;86;000.664;Disklavier MIDI Out
320.990;000.119;87;000.688;Disklavier MIDI Out
321.056;000.168;89;000.789;Disklavier MIDI Out
321.440;000.070;74;000.602;Disklavier MIDI Out
321.496;000.033;75;000.625;Disklavier MIDI Out
321.546;000.034;77;000.609;Disklavier MIDI Out
321.545;000.038;76;000.406;Disklavier MIDI Out
321.635;000.088;79;000.648;Disklavier MIDI Out
321.697;000.134;81;000.609;Disklavier MIDI Out
321.731;000.134;83;000.672;Disklavier MIDI Out
321.785;000.105;84;000.594;Disklavier MIDI Out
321.817;000.170;86;000.758;Disklavier MIDI Out
322.215;000.064;67;000.547;Disklavier MIDI Out
322.267;000.080;68;000.609;Disklavier MIDI Out
322.344;000.028;69;000.477;Disklavier MIDI Out
322.429;000.089;72;000.617;Disklavier MIDI Out
322.503;000.080;74;000.516;Disklavier MIDI Out
322.540;000.090;76;000.664;Disklavier MIDI Out
322.577;000.089;77;000.625;Disklavier MIDI Out
322.605;000.192;79;000.703;Disklavier MIDI Out
323.024;000.098;67;000.672;Disklavier MIDI Out
323.092;000.064;69;000.641;Disklavier MIDI Out
323.151;000.062;71;000.648;Disklavier MIDI Out
323.243;000.146;72;000.625;Disklavier MIDI Out
323.354;000.100;74;000.594;Disklavier MIDI Out
323.452;000.039;76;000.500;Disklavier MIDI Out
323.437;000.087;77;000.367;Disklavier MIDI Out
323.441;000.256;79;000.672;Disklavier MIDI Out
323.893;000.078;60;000.625;Disklavier MIDI Out
323.954;000.085;62;000.578;Disklavier MIDI Out
324.026;000.049;63;000.594;Disklavier MIDI Out
324.114;000.086;65;000.570;Disklavier MIDI Out
324.186;000.107;67;000.664;Disklavier MIDI Out
324.233;000.110;69;000.656;Disklavier MIDI Out
324.275;000.116;71;000.641;Disklavier MIDI Out
324.317;000.217;72;000.695;Disklavier MIDI Out
324.681;000.097;48;000.617;Disklavier MIDI Out
324.729;000.122;50;000.602;Disklavier MIDI Out
324.784;000.129;51;000.695;Disklavier MIDI Out
324.852;000.107;53;000.664;Disklavier MIDI Out
324.939;000.149;55;000.648;Disklavier MIDI Out
325.025;000.087;57;000.594;Disklavier MIDI Out
325.069;000.065;59;000.688;Disklavier MIDI Out
325.103;000.321;60;000.789;Disklavier MIDI Out
325.569;000.116;36;000.680;Disklavier MIDI Out
325.608;000.141;38;000.609;Disklavier MIDI Out
325.682;000.161;39;000.680;Disklavier MIDI Out
325.769;000.128;41;000.648;Disklavier MIDI Out
325.873;000.144;43;000.641;Disklavier MIDI Out
325.972;000.084;45;000.688;Disklavier MIDI Out
326.028;000.110;47;000.680;Disklavier MIDI Out
326.144;000.465;48;000.859;Disklavier MIDI Out
327.130;000.047;48;000.758;Disklavier MIDI Out
327.135;000.046;36;000.602;Disklavier MIDI Out
327.136;000.048;43;000.695;Disklavier MIDI Out
327.139;000.054;39;000.680;Disklavier MIDI Out
327.141;000.171;55;000.766;Disklavier MIDI Out
327.334;000.098;60;000.570;Disklavier MIDI Out
327.452;000.060;63;000.586;Disklavier MIDI Out
327.576;000.089;67;000.609;Disklavier MIDI Out
327.680;000.087;72;000.570;Disklavier MIDI Out
327.780;000.086;75;000.555;Disklavier MIDI Out
327.882;000.111;79;000.578;Disklavier MIDI Out
327.993;000.099;75;000.555;Disklavier MIDI Out
328.097;000.087;72;000.453;Disklavier MIDI Out
328.203;000.113;79;000.516;Disklavier MIDI Out
328.290;000.125;75;000.430;Disklavier MIDI Out
328.179;000.291;63;000.344;Disklavier MIDI Out
328.396;000.084;72;000.438;Disklavier MIDI Out
328.178;000.305;60;000.305;Disklavier MIDI Out
328.515;000.094;79;000.523;Disklavier MIDI Out
328.611;000.126;74;000.508;Disklavier MIDI Out
328.484;000.267;62;000.375;Disklavier MIDI Out
328.482;000.271;59;000.375;Disklavier MIDI Out
328.727;000.081;71;000.547;Disklavier MIDI Out
328.779;000.062;60;000.430;Disklavier MIDI Out
328.789;000.073;63;000.414;Disklavier MIDI Out
328.836;000.122;79;000.594;Disklavier MIDI Out
328.926;000.136;75;000.555;Disklavier MIDI Out
329.016;000.102;72;000.469;Disklavier MIDI Out
329.117;000.051;62;000.742;Disklavier MIDI Out
329.114;000.058;55;000.672;Disklavier MIDI Out
329.121;000.053;59;000.688;Disklavier MIDI Out
329.124;000.137;79;000.680;Disklavier MIDI Out
329.228;000.143;74;000.617;Disklavier MIDI Out
329.338;000.077;71;000.680;Disklavier MIDI Out
329.447;000.029;67;000.578;Disklavier MIDI Out
329.550;000.085;62;000.594;Disklavier MIDI Out
329.657;000.074;59;000.555;Disklavier MIDI Out
329.776;000.111;67;000.586;Disklavier MIDI Out
329.886;000.105;62;000.523;Disklavier MIDI Out
330.003;000.064;59;000.469;Disklavier MIDI Out
330.100;000.120;67;000.562;Disklavier MIDI Out
330.200;000.096;62;000.492;Disklavier MIDI Out
330.044;000.307;47;000.359;Disklavier MIDI Out
330.287;000.080;59;000.500;Disklavier MIDI Out
330.052;000.323;50;000.391;Disklavier MIDI Out
330.387;000.121;67;000.594;Disklavier MIDI Out
330.533;000.060;63;000.133;Disklavier MIDI Out
330.498;000.112;61;000.555;Disklavier MIDI Out
330.587;000.079;58;000.562;Disklavier MIDI Out
330.381;000.288;46;000.453;Disklavier MIDI Out
330.386;000.285;49;000.445;Disklavier MIDI Out
330.663;000.051;47;000.547;Disklavier MIDI Out
330.681;000.105;50;000.500;Disklavier MIDI Out
330.688;000.140;67;000.562;Disklavier MIDI Out
330.783;000.070;64;000.414;Disklavier MIDI Out
330.776;000.102;62;000.531;Disklavier MIDI Out
330.846;000.074;59;000.594;Disklavier MIDI Out
331.094;000.147;64;000.789;Disklavier MIDI Out
331.004;000.349;48;000.734;Disklavier MIDI Out
331.259;000.102;70;000.617;Disklavier MIDI Out
331.005;000.360;36;000.594;Disklavier MIDI Out
331.002;000.389;43;000.641;Disklavier MIDI Out
331.003;000.396;46;000.672;Disklavier MIDI Out
331.386;000.031;73;000.586;Disklavier MIDI Out
331.472;000.116;76;000.641;Disklavier MIDI Out
331.578;000.110;82;000.633;Disklavier MIDI Out
331.674;000.074;85;000.586;Disklavier MIDI Out
331.759;000.116;88;000.633;Disklavier MIDI Out
331.871;000.095;85;000.625;Disklavier MIDI Out
331.965;000.085;82;000.539;Disklavier MIDI Out
332.076;000.107;88;000.539;Disklavier MIDI Out
332.175;000.101;85;000.516;Disklavier MIDI Out
332.085;000.242;73;000.398;Disklavier MIDI Out
332.273;000.093;82;000.477;Disklavier MIDI Out
332.377;000.109;72;000.477;Disklavier MIDI Out
332.385;000.118;88;000.562;Disklavier MIDI Out
332.095;000.430;70;000.336;Disklavier MIDI Out
332.501;000.110;84;000.516;Disklavier MIDI Out
332.408;000.236;69;000.406;Disklavier MIDI Out
332.603;000.069;81;000.508;Disklavier MIDI Out
332.699;000.064;70;000.391;Disklavier MIDI Out
332.690;000.099;73;000.516;Disklavier MIDI Out
332.680;000.109;88;000.617;Disklavier MIDI Out
332.788;000.145;85;000.578;Disklavier MIDI Out
332.892;000.066;82;000.492;Disklavier MIDI Out
333.000;000.022;72;000.711;Disklavier MIDI Out
332.997;000.043;65;000.633;Disklavier MIDI Out
333.006;000.049;69;000.648;Disklavier MIDI Out
333.007;000.135;89;000.680;Disklavier MIDI Out
333.126;000.137;84;000.602;Disklavier MIDI Out
333.230;000.076;81;000.625;Disklavier MIDI Out
333.331;000.031;77;000.594;Disklavier MIDI Out
333.440;000.081;72;000.594;Disklavier MIDI Out
333.529;000.072;69;000.578;Disklavier MIDI Out
333.650;000.101;77;000.555;Disklavier MIDI Out
333.756;000.120;72;000.523;Disklavier MIDI Out
333.882;000.051;69;000.445;Disklavier MIDI Out
333.971;000.108;77;000.547;Disklavier MIDI Out
334.076;000.094;72;000.461;Disklavier MIDI Out
334.164;000.071;69;000.516;Disklavier MIDI Out
333.947;000.349;60;000.352;Disklavier MIDI Out
333.943;000.354;57;000.383;Disklavier MIDI Out
334.276;000.135;77;000.602;Disklavier MIDI Out
334.371;000.116;71;000.555;Disklavier MIDI Out
334.471;000.077;68;000.539;Disklavier MIDI Out
334.284;000.286;59;000.461;Disklavier MIDI Out
334.280;000.314;56;000.430;Disklavier MIDI Out
334.565;000.057;57;000.562;Disklavier MIDI Out
334.578;000.091;60;000.562;Disklavier MIDI Out
334.576;000.132;77;000.664;Disklavier MIDI Out
334.681;000.084;72;000.500;Disklavier MIDI Out
334.744;000.032;74;000.352;Disklavier MIDI Out
334.753;000.042;69;000.562;Disklavier MIDI Out
334.919;000.047;66;000.633;Disklavier MIDI Out
335.030;000.086;69;000.625;Disklavier MIDI Out
335.134;000.081;72;000.586;Disklavier MIDI Out
335.234;000.061;78;000.633;Disklavier MIDI Out
334.888;000.453;60;000.734;Disklavier MIDI Out
334.890;000.471;57;000.656;Disklavier MIDI Out
334.899;000.466;54;000.594;Disklavier MIDI Out
334.892;000.481;50;000.641;Disklavier MIDI Out
335.349;000.110;81;000.641;Disklavier MIDI Out
335.449;000.080;84;000.602;Disklavier MIDI Out
335.545;000.121;90;000.570;Disklavier MIDI Out
335.661;000.073;84;000.594;Disklavier MIDI Out
335.771;000.060;81;000.438;Disklavier MIDI Out
335.865;000.065;90;000.562;Disklavier MIDI Out
335.974;000.072;84;000.539;Disklavier MIDI Out
335.865;000.282;72;000.414;Disklavier MIDI Out
336.069;000.082;81;000.469;Disklavier MIDI Out
335.868;000.311;75;000.414;Disklavier MIDI Out
336.170;000.100;90;000.531;Disklavier MIDI Out
336.266;000.086;86;000.547;Disklavier MIDI Out
336.164;000.287;71;000.445;Disklavier MIDI Out
336.386;000.083;83;000.508;Disklavier MIDI Out
336.188;000.319;74;000.414;Disklavier MIDI Out
336.463;000.083;72;000.461;Disklavier MIDI Out
336.495;000.098;90;000.539;Disklavier MIDI Out
336.480;000.120;75;000.453;Disklavier MIDI Out
336.583;000.079;87;000.500;Disklavier MIDI Out
336.714;000.055;86;000.391;Disklavier MIDI Out
336.801;000.041;71;000.367;Disklavier MIDI Out
336.782;000.062;67;000.477;Disklavier MIDI Out
336.793;000.081;74;000.430;Disklavier MIDI Out
336.789;000.120;91;000.633;Disklavier MIDI Out
336.891;000.071;86;000.570;Disklavier MIDI Out
336.992;000.086;83;000.523;Disklavier MIDI Out
337.094;000.067;80;000.570;Disklavier MIDI Out
337.105;000.108;92;000.641;Disklavier MIDI Out
337.198;000.084;89;000.586;Disklavier MIDI Out
337.304;000.093;86;000.523;Disklavier MIDI Out
337.389;000.080;77;000.484;Disklavier MIDI Out
337.417;000.099;89;000.609;Disklavier MIDI Out
337.512;000.070;86;000.633;Disklavier MIDI Out
337.610;000.085;83;000.555;Disklavier MIDI Out
337.705;000.091;74;000.531;Disklavier MIDI Out
337.712;000.121;86;000.648;Disklavier MIDI Out
337.820;000.087;83;000.602;Disklavier MIDI Out
337.926;000.071;80;000.602;Disklavier MIDI Out
337.999;000.055;71;000.602;Disklavier MIDI Out
338.011;000.113;83;000.617;Disklavier MIDI Out
338.124;000.066;80;000.633;Disklavier MIDI Out
338.208;000.106;77;000.516;Disklavier MIDI Out
338.303;000.072;68;000.555;Disklavier MIDI Out
338.311;000.107;80;000.664;Disklavier MIDI Out
338.407;000.081;77;000.617;Disklavier MIDI Out
338.506;000.080;74;000.594;Disklavier MIDI Out
338.594;000.105;65;000.555;Disklavier MIDI Out
338.613;000.126;77;000.680;Disklavier MIDI Out
338.712;000.097;74;000.633;Disklavier MIDI Out
338.811;000.074;71;000.602;Disklavier MIDI Out
338.920;000.118;62;000.539;Disklavier MIDI Out
338.917;000.124;74;000.711;Disklavier MIDI Out
339.011;000.091;71;000.633;Disklavier MIDI Out
339.108;000.081;68;000.617;Disklavier MIDI Out
339.224;000.043;59;000.578;Disklavier MIDI Out
339.209;000.118;71;000.625;Disklavier MIDI Out
339.326;000.073;68;000.648;Disklavier MIDI Out
339.408;000.113;65;000.539;Disklavier MIDI Out
339.513;000.086;56;000.594;Disklavier MIDI Out
339.520;000.100;71;000.656;Disklavier MIDI Out
339.614;000.077;68;000.633;Disklavier MIDI Out
339.707;000.118;65;000.531;Disklavier MIDI Out
339.802;000.128;55;000.578;Disklavier MIDI Out
339.818;000.116;72;000.633;Disklavier MIDI Out
339.916;000.100;67;000.586;Disklavier MIDI Out
340.016;000.077;63;000.602;Disklavier MIDI Out
340.107;000.103;43;000.539;Disklavier MIDI Out
340.122;000.124;71;000.688;Disklavier MIDI Out
340.225;000.074;65;000.594;Disklavier MIDI Out
340.314;000.073;62;000.570;Disklavier MIDI Out
340.465;000.050;70;000.180;Disklavier MIDI Out
340.422;000.099;48;000.578;Disklavier MIDI Out
340.421;000.109;72;000.664;Disklavier MIDI Out
340.531;000.071;63;000.656;Disklavier MIDI Out
340.614;000.077;60;000.633;Disklavier MIDI Out
340.715;000.083;43;000.625;Disklavier MIDI Out
340.723;000.118;74;000.758;Disklavier MIDI Out
340.829;000.057;65;000.664;Disklavier MIDI Out
340.918;000.067;62;000.625;Disklavier MIDI Out
341.059;000.051;73;000.414;Disklavier MIDI Out
341.026;000.119;43;000.656;Disklavier MIDI Out
341.021;000.126;75;000.672;Disklavier MIDI Out
341.106;000.111;67;000.625;Disklavier MIDI Out
341.208;000.067;63;000.648;Disklavier MIDI Out
341.305;000.123;33;000.656;Disklavier MIDI Out
341.329;000.119;71;000.719;Disklavier MIDI Out
341.440;000.061;62;000.648;Disklavier MIDI Out
341.520;000.044;59;000.594;Disklavier MIDI Out
341.636;000.319;36;000.727;Disklavier MIDI Out
341.649;000.381;72;000.734;Disklavier MIDI Out
341.656;000.397;60;000.719;Disklavier MIDI Out
341.654;000.415;63;000.695;Disklavier MIDI Out
342.301;000.082;36;000.617;Disklavier MIDI Out
342.398;000.104;35;000.641;Disklavier MIDI Out
342.494;000.081;36;000.602;Disklavier MIDI Out
342.580;000.092;38;000.664;Disklavier MIDI Out
342.670;000.102;36;000.641;Disklavier MIDI Out
342.779;000.091;38;000.602;Disklavier MIDI Out
342.582;000.378;72;000.602;Disklavier MIDI Out
342.574;000.388;79;000.633;Disklavier MIDI Out
342.572;000.395;84;000.641;Disklavier MIDI Out
342.575;000.394;75;000.609;Disklavier MIDI Out
342.870;000.105;39;000.602;Disklavier MIDI Out
342.966;000.140;38;000.617;Disklavier MIDI Out
343.078;000.087;39;000.641;Disklavier MIDI Out
343.158;000.107;41;000.672;Disklavier MIDI Out
343.256;000.154;39;000.672;Disklavier MIDI Out
343.371;000.115;41;000.672;Disklavier MIDI Out
343.201;000.306;72;000.742;Disklavier MIDI Out
343.198;000.312;75;000.617;Disklavier MIDI Out
343.198;000.316;84;000.656;Disklavier MIDI Out
343.203;000.312;79;000.680;Disklavier MIDI Out
343.484;000.073;43;000.734;Disklavier MIDI Out
343.823;000.059;84;000.617;Disklavier MIDI Out
343.832;000.060;79;000.586;Disklavier MIDI Out
343.831;000.068;75;000.594;Disklavier MIDI Out
343.833;000.072;72;000.648;Disklavier MIDI Out
343.825;000.087;36;000.625;Disklavier MIDI Out
344.144;000.074;43;000.578;Disklavier MIDI Out
344.237;000.091;42;000.602;Disklavier MIDI Out
344.327;000.066;43;000.570;Disklavier MIDI Out
344.408;000.095;45;000.570;Disklavier MIDI Out
344.509;000.097;43;000.555;Disklavier MIDI Out
344.622;000.090;45;000.602;Disklavier MIDI Out
344.719;000.108;47;000.680;Disklavier MIDI Out
344.438;000.392;71;000.633;Disklavier MIDI Out
344.442;000.389;79;000.602;Disklavier MIDI Out
344.444;000.394;74;000.586;Disklavier MIDI Out
344.439;000.401;83;000.609;Disklavier MIDI Out
344.824;000.111;45;000.680;Disklavier MIDI Out
344.920;000.083;47;000.633;Disklavier MIDI Out
344.996;000.114;48;000.641;Disklavier MIDI Out
345.106;000.115;47;000.688;Disklavier MIDI Out
345.211;000.098;48;000.664;Disklavier MIDI Out
345.020;000.299;79;000.664;Disklavier MIDI Out
345.018;000.303;71;000.727;Disklavier MIDI Out
345.017;000.305;74;000.703;Disklavier MIDI Out
345.024;000.307;83;000.625;Disklavier MIDI Out
345.303;000.111;50;000.742;Disklavier MIDI Out
345.634;000.051;71;000.648;Disklavier MIDI Out
345.641;000.048;74;000.539;Disklavier MIDI Out
345.637;000.071;83;000.617;Disklavier MIDI Out
345.678;000.031;76;000.367;Disklavier MIDI Out
345.640;000.073;79;000.617;Disklavier MIDI Out
345.631;000.086;43;000.594;Disklavier MIDI Out
345.948;000.057;48;000.539;Disklavier MIDI Out
346.032;000.087;47;000.586;Disklavier MIDI Out
346.122;000.068;48;000.602;Disklavier MIDI Out
346.212;000.090;50;000.609;Disklavier MIDI Out
346.310;000.096;48;000.609;Disklavier MIDI Out
346.426;000.071;50;000.594;Disklavier MIDI Out
346.237;000.327;72;000.531;Disklavier MIDI Out
346.239;000.327;70;000.594;Disklavier MIDI Out
346.238;000.348;79;000.547;Disklavier MIDI Out
346.235;000.353;76;000.516;Disklavier MIDI Out
346.230;000.365;82;000.633;Disklavier MIDI Out
346.517;000.099;52;000.625;Disklavier MIDI Out
346.623;000.107;50;000.648;Disklavier MIDI Out
346.720;000.130;52;000.633;Disklavier MIDI Out
346.795;000.109;53;000.680;Disklavier MIDI Out
346.897;000.111;52;000.594;Disklavier MIDI Out
347.012;000.089;53;000.633;Disklavier MIDI Out
346.820;000.316;72;000.594;Disklavier MIDI Out
346.816;000.321;82;000.680;Disklavier MIDI Out
346.812;000.330;70;000.742;Disklavier MIDI Out
346.823;000.332;76;000.609;Disklavier MIDI Out
346.821;000.335;79;000.578;Disklavier MIDI Out
347.101;000.077;55;000.766;Disklavier MIDI Out
347.447;000.030;79;000.375;Disklavier MIDI Out
347.440;000.044;72;000.508;Disklavier MIDI Out
347.421;000.068;82;000.586;Disklavier MIDI Out
347.427;000.069;48;000.570;Disklavier MIDI Out
347.424;000.085;70;000.648;Disklavier MIDI Out
347.428;000.089;76;000.547;Disklavier MIDI Out
347.723;000.062;53;000.523;Disklavier MIDI Out
347.816;000.081;52;000.539;Disklavier MIDI Out
347.903;000.063;53;000.562;Disklavier MIDI Out
347.985;000.094;55;000.570;Disklavier MIDI Out
348.087;000.104;53;000.594;Disklavier MIDI Out
348.209;000.086;55;000.562;Disklavier MIDI Out
347.996;000.369;69;000.609;Disklavier MIDI Out
348.001;000.369;72;000.523;Disklavier MIDI Out
347.999;000.374;77;000.555;Disklavier MIDI Out
347.997;000.386;81;000.594;Disklavier MIDI Out
348.305;000.099;57;000.617;Disklavier MIDI Out
348.402;000.114;55;000.672;Disklavier MIDI Out
348.505;000.089;57;000.664;Disklavier MIDI Out
348.596;000.111;58;000.688;Disklavier MIDI Out
348.704;000.116;57;000.656;Disklavier MIDI Out
348.580;000.291;69;000.734;Disklavier MIDI Out
348.582;000.292;77;000.680;Disklavier MIDI Out
348.579;000.301;72;000.695;Disklavier MIDI Out
348.807;000.097;58;000.633;Disklavier MIDI Out
348.581;000.323;81;000.688;Disklavier MIDI Out
348.889;000.093;60;000.719;Disklavier MIDI Out
349.206;000.056;69;000.602;Disklavier MIDI Out
349.209;000.060;72;000.562;Disklavier MIDI Out
349.200;000.081;53;000.625;Disklavier MIDI Out
349.205;000.083;77;000.570;Disklavier MIDI Out
349.201;000.095;81;000.594;Disklavier MIDI Out
349.506;000.069;57;000.531;Disklavier MIDI Out
349.599;000.080;55;000.602;Disklavier MIDI Out
349.694;000.061;57;000.570;Disklavier MIDI Out
349.773;000.088;59;000.570;Disklavier MIDI Out
349.877;000.097;57;000.570;Disklavier MIDI Out
349.988;000.081;59;000.523;Disklavier MIDI Out
349.789;000.345;72;000.539;Disklavier MIDI Out
349.788;000.352;75;000.586;Disklavier MIDI Out
349.785;000.358;66;000.609;Disklavier MIDI Out
349.786;000.379;78;000.641;Disklavier MIDI Out
350.079;000.095;60;000.633;Disklavier MIDI Out
350.157;000.135;59;000.266;Disklavier MIDI Out
350.273;000.153;60;000.664;Disklavier MIDI Out
350.362;000.105;62;000.688;Disklavier MIDI Out
350.451;000.109;60;000.539;Disklavier MIDI Out
350.351;000.310;66;000.695;Disklavier MIDI Out
350.355;000.314;72;000.578;Disklavier MIDI Out
350.352;000.321;75;000.617;Disklavier MIDI Out
350.551;000.128;62;000.664;Disklavier MIDI Out
350.345;000.335;78;000.648;Disklavier MIDI Out
350.668;000.101;63;000.711;Disklavier MIDI Out
350.971;000.033;72;000.539;Disklavier MIDI Out
350.959;000.057;66;000.688;Disklavier MIDI Out
350.958;000.071;57;000.648;Disklavier MIDI Out
350.961;000.069;78;000.656;Disklavier MIDI Out
350.964;000.068;75;000.609;Disklavier MIDI Out
351.256;000.098;67;000.680;Disklavier MIDI Out
351.269;000.105;59;000.617;Disklavier MIDI Out
351.259;000.127;74;000.680;Disklavier MIDI Out
351.257;000.167;79;000.711;Disklavier MIDI Out
351.370;000.101;57;000.648;Disklavier MIDI Out
351.468;000.066;59;000.617;Disklavier MIDI Out
351.539;000.092;60;000.625;Disklavier MIDI Out
351.634;000.117;59;000.648;Disklavier MIDI Out
351.752;000.087;60;000.617;Disklavier MIDI Out
351.859;000.111;62;000.656;Disklavier MIDI Out
351.968;000.111;60;000.664;Disklavier MIDI Out
352.073;000.092;62;000.664;Disklavier MIDI Out
352.173;000.080;63;000.641;Disklavier MIDI Out
352.247;000.104;62;000.602;Disklavier MIDI Out
352.342;000.098;63;000.648;Disklavier MIDI Out
352.457;000.094;65;000.648;Disklavier MIDI Out
351.853;000.718;74;000.602;Disklavier MIDI Out
351.847;000.744;71;000.688;Disklavier MIDI Out
351.844;000.781;83;000.672;Disklavier MIDI Out
351.858;000.783;77;000.602;Disklavier MIDI Out
352.553;000.109;63;000.602;Disklavier MIDI Out
351.848;000.832;80;000.625;Disklavier MIDI Out
352.651;000.077;65;000.602;Disklavier MIDI Out
352.735;000.090;67;000.586;Disklavier MIDI Out
352.834;000.083;65;000.602;Disklavier MIDI Out
352.943;000.077;67;000.602;Disklavier MIDI Out
353.015;000.087;68;000.602;Disklavier MIDI Out
353.103;000.116;70;000.648;Disklavier MIDI Out
353.205;000.084;68;000.656;Disklavier MIDI Out
353.309;000.063;67;000.617;Disklavier MIDI Out
353.368;000.098;68;000.562;Disklavier MIDI Out
353.476;000.105;67;000.656;Disklavier MIDI Out
353.588;000.079;65;000.633;Disklavier MIDI Out
353.675;000.097;67;000.570;Disklavier MIDI Out
353.782;000.062;65;000.609;Disklavier MIDI Out
353.849;000.100;63;000.641;Disklavier MIDI Out
353.958;000.085;65;000.625;Disklavier MIDI Out
354.049;000.098;63;000.633;Disklavier MIDI Out
354.148;000.103;62;000.664;Disklavier MIDI Out
354.245;000.095;63;000.633;Disklavier MIDI Out
354.349;000.094;62;000.672;Disklavier MIDI Out
354.141;000.336;71;000.727;Disklavier MIDI Out
354.145;000.339;77;000.586;Disklavier MIDI Out
354.138;000.349;74;000.672;Disklavier MIDI Out
354.139;000.362;79;000.617;Disklavier MIDI Out
354.140;000.381;83;000.648;Disklavier MIDI Out
354.445;000.084;60;000.664;Disklavier MIDI Out
354.542;000.079;62;000.594;Disklavier MIDI Out
354.639;000.071;60;000.664;Disklavier MIDI Out
354.718;000.106;59;000.625;Disklavier MIDI Out
354.828;000.106;60;000.695;Disklavier MIDI Out
354.942;000.073;59;000.594;Disklavier MIDI Out
355.011;000.103;56;000.594;Disklavier MIDI Out
355.110;000.109;58;000.648;Disklavier MIDI Out
355.207;000.098;56;000.602;Disklavier MIDI Out
355.306;000.107;55;000.633;Disklavier MIDI Out
355.372;000.054;81;000.188;Disklavier MIDI Out
355.408;000.084;56;000.609;Disklavier MIDI Out
355.509;000.102;55;000.602;Disklavier MIDI Out
355.617;000.091;53;000.586;Disklavier MIDI Out
355.303;000.449;84;000.656;Disklavier MIDI Out
355.309;000.471;79;000.656;Disklavier MIDI Out
355.304;000.488;75;000.648;Disklavier MIDI Out
355.306;000.494;72;000.672;Disklavier MIDI Out
355.719;000.102;55;000.602;Disklavier MIDI Out
355.824;000.084;53;000.641;Disklavier MIDI Out
355.904;000.100;51;000.641;Disklavier MIDI Out
356.004;000.110;53;000.586;Disklavier MIDI Out
356.095;000.103;51;000.617;Disklavier MIDI Out
356.179;000.109;50;000.586;Disklavier MIDI Out
356.281;000.139;51;000.641;Disklavier MIDI Out
356.381;000.108;50;000.555;Disklavier MIDI Out
356.454;000.056;48;000.656;Disklavier MIDI Out
356.462;000.079;60;000.703;Disklavier MIDI Out
356.566;000.100;59;000.617;Disklavier MIDI Out
356.666;000.090;60;000.664;Disklavier MIDI Out
356.751;000.079;62;000.719;Disklavier MIDI Out
356.851;000.124;60;000.648;Disklavier MIDI Out
356.955;000.082;62;000.672;Disklavier MIDI Out
357.034;000.094;63;000.648;Disklavier MIDI Out
356.748;000.409;48;000.703;Disklavier MIDI Out
356.754;000.410;43;000.617;Disklavier MIDI Out
356.760;000.415;36;000.570;Disklavier MIDI Out
356.754;000.425;39;000.617;Disklavier MIDI Out
357.137;000.115;62;000.633;Disklavier MIDI Out
357.232;000.089;63;000.609;Disklavier MIDI Out
357.320;000.108;65;000.648;Disklavier MIDI Out
357.421;000.135;63;000.695;Disklavier MIDI Out
357.512;000.134;65;000.625;Disklavier MIDI Out
357.616;000.051;67;000.773;Disklavier MIDI Out
357.341;000.340;48;000.688;Disklavier MIDI Out
357.343;000.340;43;000.617;Disklavier MIDI Out
357.354;000.349;36;000.578;Disklavier MIDI Out
357.348;000.360;39;000.602;Disklavier MIDI Out
357.915;000.049;48;000.688;Disklavier MIDI Out
357.927;000.039;43;000.594;Disklavier MIDI Out
357.928;000.041;62;000.609;Disklavier MIDI Out
357.919;000.053;60;000.641;Disklavier MIDI Out
357.931;000.061;39;000.562;Disklavier MIDI Out
357.926;000.079;36;000.562;Disklavier MIDI Out
358.214;000.083;67;000.617;Disklavier MIDI Out
358.326;000.089;66;000.578;Disklavier MIDI Out
358.406;000.114;67;000.625;Disklavier MIDI Out
358.497;000.078;69;000.617;Disklavier MIDI Out
358.600;000.146;67;000.609;Disklavier MIDI Out
358.698;000.073;69;000.656;Disklavier MIDI Out
358.826;000.011;69;000.242;Disklavier MIDI Out
358.779;000.081;71;000.664;Disklavier MIDI Out
358.503;000.397;43;000.656;Disklavier MIDI Out
358.510;000.405;38;000.578;Disklavier MIDI Out
358.508;000.411;35;000.570;Disklavier MIDI Out
358.510;000.425;31;000.586;Disklavier MIDI Out
358.970;000.076;71;000.672;Disklavier MIDI Out
359.057;000.102;72;000.625;Disklavier MIDI Out
359.148;000.140;71;000.719;Disklavier MIDI Out
359.259;000.110;72;000.680;Disklavier MIDI Out
359.340;000.053;74;000.805;Disklavier MIDI Out
359.071;000.370;38;000.617;Disklavier MIDI Out
359.066;000.376;43;000.664;Disklavier MIDI Out
359.086;000.359;31;000.609;Disklavier MIDI Out
359.079;000.367;35;000.555;Disklavier MIDI Out
359.645;000.051;31;000.562;Disklavier MIDI Out
359.651;000.057;35;000.547;Disklavier MIDI Out
359.648;000.061;43;000.656;Disklavier MIDI Out
359.648;000.062;38;000.586;Disklavier MIDI Out
359.642;000.075;67;000.703;Disklavier MIDI Out
359.939;000.065;72;000.570;Disklavier MIDI Out
360.042;000.090;71;000.570;Disklavier MIDI Out
360.130;000.069;72;000.555;Disklavier MIDI Out
360.205;000.070;74;000.664;Disklavier MIDI Out
360.317;000.100;72;000.594;Disklavier MIDI Out
360.403;000.077;74;000.688;Disklavier MIDI Out
360.480;000.074;76;000.664;Disklavier MIDI Out
360.215;000.402;55;000.633;Disklavier MIDI Out
360.231;000.402;48;000.508;Disklavier MIDI Out
360.224;000.414;46;000.523;Disklavier MIDI Out
360.225;000.414;52;000.523;Disklavier MIDI Out
360.579;000.113;74;000.680;Disklavier MIDI Out
360.671;000.094;76;000.695;Disklavier MIDI Out
360.757;000.106;77;000.719;Disklavier MIDI Out
360.864;000.094;76;000.703;Disklavier MIDI Out
360.962;000.123;77;000.734;Disklavier MIDI Out
361.055;000.052;79;000.805;Disklavier MIDI Out
360.780;000.357;48;000.562;Disklavier MIDI Out
360.773;000.370;46;000.617;Disklavier MIDI Out
360.759;000.400;55;000.703;Disklavier MIDI Out
360.774;000.413;52;000.609;Disklavier MIDI Out
361.347;000.061;72;000.727;Disklavier MIDI Out
361.366;000.117;52;000.477;Disklavier MIDI Out
361.356;000.127;55;000.539;Disklavier MIDI Out
361.365;000.153;46;000.438;Disklavier MIDI Out
361.377;000.179;48;000.398;Disklavier MIDI Out
361.653;000.052;77;000.641;Disklavier MIDI Out
361.747;000.101;76;000.602;Disklavier MIDI Out
361.842;000.067;77;000.625;Disklavier MIDI Out
361.910;000.066;79;000.711;Disklavier MIDI Out
362.014;000.114;77;000.656;Disklavier MIDI Out
362.114;000.067;79;000.648;Disklavier MIDI Out
362.176;000.080;81;000.633;Disklavier MIDI Out
361.906;000.372;57;000.477;Disklavier MIDI Out
361.913;000.382;48;000.398;Disklavier MIDI Out
361.909;000.392;45;000.461;Disklavier MIDI Out
361.921;000.391;53;000.445;Disklavier MIDI Out
362.270;000.120;79;000.664;Disklavier MIDI Out
362.371;000.083;81;000.656;Disklavier MIDI Out
362.450;000.107;82;000.703;Disklavier MIDI Out
362.556;000.120;81;000.719;Disklavier MIDI Out
362.655;000.099;82;000.703;Disklavier MIDI Out
362.726;000.055;84;000.781;Disklavier MIDI Out
362.453;000.388;48;000.500;Disklavier MIDI Out
362.434;000.411;57;000.641;Disklavier MIDI Out
362.448;000.416;53;000.570;Disklavier MIDI Out
362.455;000.421;45;000.508;Disklavier MIDI Out
363.036;000.072;77;000.734;Disklavier MIDI Out
363.054;000.089;48;000.453;Disklavier MIDI Out
363.050;000.097;45;000.516;Disklavier MIDI Out
363.048;000.115;53;000.516;Disklavier MIDI Out
363.042;000.164;57;000.539;Disklavier MIDI Out
363.339;000.065;78;000.625;Disklavier MIDI Out
363.429;000.119;77;000.641;Disklavier MIDI Out
363.535;000.074;78;000.578;Disklavier MIDI Out
363.604;000.088;79;000.609;Disklavier MIDI Out
363.712;000.102;78;000.648;Disklavier MIDI Out
363.794;000.081;79;000.656;Disklavier MIDI Out
363.870;000.066;81;000.656;Disklavier MIDI Out
363.613;000.414;60;000.508;Disklavier MIDI Out
363.963;000.064;80;000.672;Disklavier MIDI Out
363.636;000.397;50;000.398;Disklavier MIDI Out
363.623;000.414;57;000.484;Disklavier MIDI Out
363.631;000.416;54;000.453;Disklavier MIDI Out
364.055;000.101;81;000.711;Disklavier MIDI Out
364.145;000.087;83;000.742;Disklavier MIDI Out
364.245;000.122;81;000.672;Disklavier MIDI Out
364.329;000.103;83;000.688;Disklavier MIDI Out
364.411;000.027;81;000.398;Disklavier MIDI Out
364.399;000.059;84;000.789;Disklavier MIDI Out
364.121;000.441;60;000.617;Disklavier MIDI Out
364.136;000.433;50;000.477;Disklavier MIDI Out
364.130;000.444;54;000.445;Disklavier MIDI Out
364.122;000.453;57;000.500;Disklavier MIDI Out
364.710;000.065;78;000.758;Disklavier MIDI Out
364.744;000.048;57;000.445;Disklavier MIDI Out
364.743;000.051;50;000.453;Disklavier MIDI Out
364.742;000.061;54;000.477;Disklavier MIDI Out
364.723;000.092;60;000.562;Disklavier MIDI Out
365.005;000.076;79;000.727;Disklavier MIDI Out
365.103;000.106;81;000.664;Disklavier MIDI Out
365.198;000.084;79;000.695;Disklavier MIDI Out
365.291;000.106;77;000.648;Disklavier MIDI Out
365.390;000.096;79;000.750;Disklavier MIDI Out
365.504;000.245;77;000.734;Disklavier MIDI Out
365.674;000.251;80;000.781;Disklavier MIDI Out
365.343;000.620;55;000.516;Disklavier MIDI Out
365.319;000.661;65;000.656;Disklavier MIDI Out
365.326;000.659;62;000.547;Disklavier MIDI Out
365.331;000.666;59;000.523;Disklavier MIDI Out
365.898;000.190;82;000.672;Disklavier MIDI Out
366.036;000.099;80;000.742;Disklavier MIDI Out
366.147;000.096;79;000.664;Disklavier MIDI Out
366.248;000.108;80;000.664;Disklavier MIDI Out
366.342;000.071;79;000.680;Disklavier MIDI Out
366.159;000.332;65;000.500;Disklavier MIDI Out
366.421;000.077;77;000.602;Disklavier MIDI Out
366.172;000.329;62;000.422;Disklavier MIDI Out
366.186;000.328;55;000.375;Disklavier MIDI Out
366.170;000.354;59;000.375;Disklavier MIDI Out
366.515;000.064;79;000.656;Disklavier MIDI Out
366.601;000.090;77;000.594;Disklavier MIDI Out
366.664;000.053;65;000.516;Disklavier MIDI Out
366.687;000.043;62;000.430;Disklavier MIDI Out
366.686;000.054;59;000.367;Disklavier MIDI Out
366.707;000.056;55;000.414;Disklavier MIDI Out
366.702;000.074;75;000.633;Disklavier MIDI Out
366.784;000.103;77;000.594;Disklavier MIDI Out
366.877;000.076;75;000.625;Disklavier MIDI Out
366.969;000.090;74;000.641;Disklavier MIDI Out
367.062;000.108;75;000.641;Disklavier MIDI Out
367.159;000.081;74;000.617;Disklavier MIDI Out
367.249;000.091;72;000.609;Disklavier MIDI Out
367.344;000.080;74;000.672;Disklavier MIDI Out
367.426;000.062;72;000.602;Disklavier MIDI Out
367.538;000.086;71;000.719;Disklavier MIDI Out
367.256;000.469;50;000.445;Disklavier MIDI Out
367.625;000.101;72;000.641;Disklavier MIDI Out
367.247;000.486;55;000.508;Disklavier MIDI Out
367.259;000.475;43;000.422;Disklavier MIDI Out
367.251;000.494;47;000.445;Disklavier MIDI Out
367.745;000.030;71;000.453;Disklavier MIDI Out
367.844;000.076;68;000.703;Disklavier MIDI Out
367.938;000.084;70;000.617;Disklavier MIDI Out
368.020;000.060;68;000.633;Disklavier MIDI Out
368.104;000.083;67;000.617;Disklavier MIDI Out
367.835;000.384;50;000.391;Disklavier MIDI Out
367.843;000.382;47;000.266;Disklavier MIDI Out
367.817;000.413;55;000.477;Disklavier MIDI Out
368.194;000.053;68;000.602;Disklavier MIDI Out
367.831;000.420;43;000.383;Disklavier MIDI Out
368.295;000.021;67;000.516;Disklavier MIDI Out
368.403;000.029;55;000.594;Disklavier MIDI Out
368.410;000.035;50;000.539;Disklavier MIDI Out
368.414;000.037;47;000.523;Disklavier MIDI Out
368.419;000.051;43;000.562;Disklavier MIDI Out
368.422;000.075;81;000.688;Disklavier MIDI Out
368.413;000.098;83;000.781;Disklavier MIDI Out
368.527;000.128;84;000.641;Disklavier MIDI Out
368.642;000.124;83;000.648;Disklavier MIDI Out
368.738;000.122;84;000.734;Disklavier MIDI Out
368.859;000.127;86;000.688;Disklavier MIDI Out
368.972;000.076;84;000.617;Disklavier MIDI Out
369.024;000.112;79;000.625;Disklavier MIDI Out
368.735;000.456;43;000.641;Disklavier MIDI Out
368.737;000.460;48;000.758;Disklavier MIDI Out
368.733;000.483;39;000.547;Disklavier MIDI Out
369.137;000.083;80;000.688;Disklavier MIDI Out
368.743;000.492;36;000.648;Disklavier MIDI Out
369.236;000.036;79;000.586;Disklavier MIDI Out
369.330;000.079;75;000.648;Disklavier MIDI Out
369.408;000.100;77;000.617;Disklavier MIDI Out
369.499;000.087;75;000.648;Disklavier MIDI Out
369.586;000.093;72;000.602;Disklavier MIDI Out
369.679;000.097;74;000.672;Disklavier MIDI Out
369.766;000.076;72;000.570;Disklavier MIDI Out
369.889;000.029;69;000.398;Disklavier MIDI Out
369.866;000.086;67;000.586;Disklavier MIDI Out
369.960;000.072;68;000.656;Disklavier MIDI Out
370.055;000.038;67;000.570;Disklavier MIDI Out
370.139;000.080;63;000.617;Disklavier MIDI Out
370.221;000.085;65;000.578;Disklavier MIDI Out
370.292;000.049;63;000.648;Disklavier MIDI Out
370.422;000.026;60;000.742;Disklavier MIDI Out
370.418;000.045;72;000.727;Disklavier MIDI Out
370.729;000.031;62;000.727;Disklavier MIDI Out
370.728;000.044;74;000.750;Disklavier MIDI Out
371.021;000.030;63;000.805;Disklavier MIDI Out
371.022;000.030;75;000.789;Disklavier MIDI Out
371.023;000.034;48;000.680;Disklavier MIDI Out
371.028;000.042;36;000.641;Disklavier MIDI Out
371.318;000.031;65;000.766;Disklavier MIDI Out
371.319;000.036;50;000.688;Disklavier MIDI Out
371.321;000.039;38;000.656;Disklavier MIDI Out
371.320;000.043;77;000.781;Disklavier MIDI Out
371.621;000.030;39;000.664;Disklavier MIDI Out
371.620;000.033;51;000.695;Disklavier MIDI Out
371.694;000.060;78;000.062;Disklavier MIDI Out
371.921;000.037;41;000.695;Disklavier MIDI Out
371.916;000.044;53;000.734;Disklavier MIDI Out
371.615;000.392;79;000.805;Disklavier MIDI Out
371.617;000.393;67;000.773;Disklavier MIDI Out
372.222;000.053;67;000.766;Disklavier MIDI Out
372.223;000.067;79;000.758;Disklavier MIDI Out
372.528;000.055;69;000.688;Disklavier MIDI Out
372.218;000.371;55;000.836;Disklavier MIDI Out
372.526;000.075;81;000.711;Disklavier MIDI Out
372.226;000.417;43;000.680;Disklavier MIDI Out
372.815;000.041;71;000.688;Disklavier MIDI Out
372.818;000.040;43;000.664;Disklavier MIDI Out
372.823;000.052;31;000.648;Disklavier MIDI Out
372.810;000.066;83;000.727;Disklavier MIDI Out
373.100;000.035;72;000.680;Disklavier MIDI Out
373.096;000.055;84;000.734;Disklavier MIDI Out
373.094;000.058;45;000.688;Disklavier MIDI Out
373.097;000.063;33;000.641;Disklavier MIDI Out
373.387;000.058;47;000.680;Disklavier MIDI Out
373.393;000.059;35;000.648;Disklavier MIDI Out
373.666;000.051;36;000.672;Disklavier MIDI Out
373.665;000.054;48;000.711;Disklavier MIDI Out
373.377;000.366;86;000.805;Disklavier MIDI Out
373.379;000.396;74;000.773;Disklavier MIDI Out
373.974;000.035;58;000.758;Disklavier MIDI Out
373.976;000.059;70;000.766;Disklavier MIDI Out
374.280;000.039;60;000.641;Disklavier MIDI Out
374.281;000.060;72;000.688;Disklavier MIDI Out
373.979;000.384;49;000.719;Disklavier MIDI Out
373.981;000.481;37;000.641;Disklavier MIDI Out
374.562;000.033;61;000.688;Disklavier MIDI Out
374.559;000.052;73;000.719;Disklavier MIDI Out
374.569;000.056;34;000.609;Disklavier MIDI Out
374.566;000.060;46;000.664;Disklavier MIDI Out
374.629;000.049;74;000.148;Disklavier MIDI Out
374.848;000.034;63;000.695;Disklavier MIDI Out
374.854;000.049;48;000.648;Disklavier MIDI Out
374.860;000.046;36;000.555;Disklavier MIDI Out
374.847;000.067;75;000.734;Disklavier MIDI Out
375.133;000.046;49;000.688;Disklavier MIDI Out
375.136;000.047;37;000.586;Disklavier MIDI Out
375.404;000.052;51;000.711;Disklavier MIDI Out
375.134;000.330;65;000.773;Disklavier MIDI Out
375.403;000.061;39;000.664;Disklavier MIDI Out
375.134;000.332;77;000.711;Disklavier MIDI Out
375.732;000.081;65;000.727;Disklavier MIDI Out
375.730;000.098;77;000.703;Disklavier MIDI Out
376.031;000.059;67;000.688;Disklavier MIDI Out
376.026;000.079;79;000.719;Disklavier MIDI Out
375.742;000.435;41;000.664;Disklavier MIDI Out
375.731;000.446;53;000.750;Disklavier MIDI Out
376.308;000.031;68;000.695;Disklavier MIDI Out
376.305;000.070;80;000.734;Disklavier MIDI Out
376.319;000.056;53;000.641;Disklavier MIDI Out
376.328;000.058;41;000.602;Disklavier MIDI Out
376.581;000.032;70;000.688;Disklavier MIDI Out
376.590;000.056;55;000.664;Disklavier MIDI Out
376.578;000.069;82;000.695;Disklavier MIDI Out
376.594;000.056;43;000.586;Disklavier MIDI Out
376.865;000.044;56;000.648;Disklavier MIDI Out
376.868;000.048;44;000.602;Disklavier MIDI Out
377.151;000.040;58;000.641;Disklavier MIDI Out
377.145;000.050;46;000.672;Disklavier MIDI Out
377.205;000.001;56;000.094;Disklavier MIDI Out
376.867;000.341;84;000.742;Disklavier MIDI Out
376.866;000.354;72;000.727;Disklavier MIDI Out
377.448;000.062;69;000.703;Disklavier MIDI Out
377.446;000.086;81;000.727;Disklavier MIDI Out
377.453;000.332;60;000.727;Disklavier MIDI Out
377.752;000.060;71;000.711;Disklavier MIDI Out
377.458;000.365;48;000.672;Disklavier MIDI Out
377.745;000.082;83;000.703;Disklavier MIDI Out
378.022;000.061;72;000.688;Disklavier MIDI Out
378.026;000.061;57;000.641;Disklavier MIDI Out
378.027;000.065;45;000.625;Disklavier MIDI Out
378.020;000.074;84;000.719;Disklavier MIDI Out
378.295;000.059;74;000.695;Disklavier MIDI Out
378.293;000.063;59;000.609;Disklavier MIDI Out
378.297;000.061;47;000.633;Disklavier MIDI Out
378.292;000.072;86;000.742;Disklavier MIDI Out
378.575;000.054;60;000.688;Disklavier MIDI Out
378.583;000.048;48;000.617;Disklavier MIDI Out
378.563;000.330;87;000.750;Disklavier MIDI Out
378.568;000.328;75;000.734;Disklavier MIDI Out
378.857;000.042;50;000.594;Disklavier MIDI Out
378.848;000.058;62;000.703;Disklavier MIDI Out
379.124;000.082;71;000.711;Disklavier MIDI Out
379.123;000.102;83;000.719;Disklavier MIDI Out
379.189;000.050;54;000.211;Disklavier MIDI Out
379.198;000.052;64;000.164;Disklavier MIDI Out
379.129;000.333;63;000.711;Disklavier MIDI Out
379.425;000.062;72;000.688;Disklavier MIDI Out
379.132;000.369;51;000.641;Disklavier MIDI Out
379.422;000.083;84;000.711;Disklavier MIDI Out
379.479;000.040;82;000.258;Disklavier MIDI Out
379.695;000.055;74;000.680;Disklavier MIDI Out
379.689;000.070;86;000.734;Disklavier MIDI Out
379.694;000.067;59;000.648;Disklavier MIDI Out
379.693;000.069;47;000.633;Disklavier MIDI Out
379.957;000.049;75;000.703;Disklavier MIDI Out
379.964;000.061;60;000.688;Disklavier MIDI Out
379.955;000.072;87;000.773;Disklavier MIDI Out
379.962;000.069;48;000.609;Disklavier MIDI Out
380.234;000.060;77;000.727;Disklavier MIDI Out
380.235;000.063;62;000.711;Disklavier MIDI Out
380.233;000.070;89;000.781;Disklavier MIDI Out
380.237;000.071;50;000.633;Disklavier MIDI Out
380.523;000.055;79;000.766;Disklavier MIDI Out
380.518;000.063;91;000.773;Disklavier MIDI Out
380.521;000.068;63;000.688;Disklavier MIDI Out
380.519;000.077;51;000.633;Disklavier MIDI Out
380.591;000.055;90;000.125;Disklavier MIDI Out
380.841;000.062;65;000.680;Disklavier MIDI Out
380.844;000.075;53;000.672;Disklavier MIDI Out
381.139;000.059;67;000.727;Disklavier MIDI Out
381.142;000.067;55;000.664;Disklavier MIDI Out
380.839;001.035;92;000.914;Disklavier MIDI Out
380.842;001.048;80;000.812;Disklavier MIDI Out
381.958;000.058;79;000.617;Disklavier MIDI Out
381.948;000.072;91;000.672;Disklavier MIDI Out
382.242;000.053;77;000.625;Disklavier MIDI Out
382.238;000.065;89;000.711;Disklavier MIDI Out
381.603;000.743;68;000.805;Disklavier MIDI Out
381.609;000.875;56;000.742;Disklavier MIDI Out
382.511;000.058;75;000.703;Disklavier MIDI Out
382.509;000.066;87;000.695;Disklavier MIDI Out
382.529;000.053;67;000.586;Disklavier MIDI Out
382.536;000.059;55;000.539;Disklavier MIDI Out
382.791;000.061;74;000.688;Disklavier MIDI Out
382.796;000.066;65;000.586;Disklavier MIDI Out
382.790;000.076;86;000.711;Disklavier MIDI Out
382.800;000.068;53;000.609;Disklavier MIDI Out
382.842;000.037;85;000.297;Disklavier MIDI Out
383.069;000.058;51;000.578;Disklavier MIDI Out
383.071;000.058;72;000.617;Disklavier MIDI Out
383.067;000.065;84;000.688;Disklavier MIDI Out
383.063;000.075;63;000.648;Disklavier MIDI Out
383.366;000.055;71;000.688;Disklavier MIDI Out
383.364;000.067;62;000.633;Disklavier MIDI Out
383.366;000.067;83;000.680;Disklavier MIDI Out
383.366;000.075;50;000.594;Disklavier MIDI Out
383.437;000.055;80;000.102;Disklavier MIDI Out
383.653;000.064;60;000.648;Disklavier MIDI Out
383.656;000.064;72;000.656;Disklavier MIDI Out
383.656;000.071;48;000.625;Disklavier MIDI Out
383.654;000.078;84;000.719;Disklavier MIDI Out
383.960;000.059;59;000.711;Disklavier MIDI Out
383.965;000.059;47;000.648;Disklavier MIDI Out
384.329;000.059;60;000.703;Disklavier MIDI Out
384.336;000.083;48;000.641;Disklavier MIDI Out
385.843;000.253;36;000.133;Disklavier MIDI Out
385.819;000.296;55;000.148;Disklavier MIDI Out
385.817;000.335;63;000.180;Disklavier MIDI Out
386.201;000.220;67;000.195;Disklavier MIDI Out
386.443;000.084;36;000.164;Disklavier MIDI Out
386.440;000.090;55;000.234;Disklavier MIDI Out
386.465;000.103;63;000.117;Disklavier MIDI Out
386.652;000.149;67;000.188;Disklavier MIDI Out
386.841;000.080;36;000.211;Disklavier MIDI Out
386.848;000.082;55;000.094;Disklavier MIDI Out
386.813;000.190;63;000.211;Disklavier MIDI Out
387.013;000.115;67;000.328;Disklavier MIDI Out
387.185;000.083;36;000.227;Disklavier MIDI Out
387.196;000.089;55;000.195;Disklavier MIDI Out
387.203;000.132;63;000.258;Disklavier MIDI Out
387.381;000.145;67;000.273;Disklavier MIDI Out
387.570;000.090;36;000.203;Disklavier MIDI Out
387.585;000.098;55;000.117;Disklavier MIDI Out
387.565;000.173;63;000.297;Disklavier MIDI Out
387.743;000.127;67;000.359;Disklavier MIDI Out
387.941;000.078;36;000.273;Disklavier MIDI Out
387.937;000.135;55;000.211;Disklavier MIDI Out
387.945;000.205;63;000.289;Disklavier MIDI Out
388.134;000.176;67;000.312;Disklavier MIDI Out
388.344;000.131;55;000.094;Disklavier MIDI Out
388.326;000.155;62;000.359;Disklavier MIDI Out
388.343;000.159;35;000.234;Disklavier MIDI Out
388.521;000.148;67;000.281;Disklavier MIDI Out
388.713;000.095;35;000.266;Disklavier MIDI Out
388.712;000.107;62;000.344;Disklavier MIDI Out
388.698;000.172;55;000.234;Disklavier MIDI Out
388.889;000.154;67;000.320;Disklavier MIDI Out
389.067;000.113;35;000.273;Disklavier MIDI Out
389.078;000.168;55;000.180;Disklavier MIDI Out
389.081;000.189;62;000.281;Disklavier MIDI Out
389.276;000.182;67;000.273;Disklavier MIDI Out
389.428;000.106;35;000.281;Disklavier MIDI Out
389.453;000.144;55;000.156;Disklavier MIDI Out
389.451;000.149;62;000.320;Disklavier MIDI Out
389.627;000.193;67;000.367;Disklavier MIDI Out
389.815;000.084;35;000.250;Disklavier MIDI Out
389.823;000.153;55;000.266;Disklavier MIDI Out
389.838;000.201;62;000.359;Disklavier MIDI Out
390.008;000.191;67;000.375;Disklavier MIDI Out
390.221;000.152;35;000.297;Disklavier MIDI Out
390.218;000.193;55;000.195;Disklavier MIDI Out
390.210;000.202;62;000.391;Disklavier MIDI Out
390.440;000.190;67;000.367;Disklavier MIDI Out
390.803;000.311;55;000.281;Disklavier MIDI Out
390.788;000.328;64;000.383;Disklavier MIDI Out
390.801;000.320;34;000.305;Disklavier MIDI Out
390.802;000.353;61;000.328;Disklavier MIDI Out
391.139;000.204;67;000.375;Disklavier MIDI Out
391.368;000.085;34;000.328;Disklavier MIDI Out
391.357;000.101;55;000.242;Disklavier MIDI Out
391.351;000.149;64;000.359;Disklavier MIDI Out
391.358;000.151;61;000.328;Disklavier MIDI Out
391.522;000.176;67;000.359;Disklavier MIDI Out
391.714;000.109;34;000.289;Disklavier MIDI Out
391.738;000.128;61;000.297;Disklavier MIDI Out
391.728;000.149;64;000.336;Disklavier MIDI Out
391.892;000.174;67;000.422;Disklavier MIDI Out
392.094;000.083;34;000.258;Disklavier MIDI Out
392.097;000.092;55;000.109;Disklavier MIDI Out
392.101;000.111;61;000.273;Disklavier MIDI Out
392.091;000.142;64;000.352;Disklavier MIDI Out
392.257;000.155;67;000.406;Disklavier MIDI Out
392.452;000.089;34;000.305;Disklavier MIDI Out
392.457;000.093;55;000.227;Disklavier MIDI Out
392.440;000.165;64;000.391;Disklavier MIDI Out
392.453;000.173;61;000.258;Disklavier MIDI Out
392.626;000.163;67;000.383;Disklavier MIDI Out
392.816;000.092;34;000.281;Disklavier MIDI Out
392.813;000.125;61;000.336;Disklavier MIDI Out
392.812;000.152;64;000.391;Disklavier MIDI Out
392.825;000.168;55;000.305;Disklavier MIDI Out
392.979;000.174;67;000.469;Disklavier MIDI Out
393.189;000.146;55;000.320;Disklavier MIDI Out
393.198;000.152;60;000.328;Disklavier MIDI Out
393.168;000.199;64;000.422;Disklavier MIDI Out
393.194;000.178;33;000.312;Disklavier MIDI Out
393.383;000.134;67;000.375;Disklavier MIDI Out
393.579;000.063;33;000.305;Disklavier MIDI Out
393.549;000.110;55;000.312;Disklavier MIDI Out
393.585;000.093;60;000.297;Disklavier MIDI Out
393.558;000.259;64;000.422;Disklavier MIDI Out
393.742;000.188;67;000.391;Disklavier MIDI Out
393.929;000.109;33;000.281;Disklavier MIDI Out
393.930;000.137;55;000.258;Disklavier MIDI Out
393.931;000.142;60;000.258;Disklavier MIDI Out
393.938;000.208;65;000.328;Disklavier MIDI Out
394.097;000.204;67;000.453;Disklavier MIDI Out
394.286;000.080;33;000.336;Disklavier MIDI Out
394.293;000.121;60;000.352;Disklavier MIDI Out
394.280;000.146;55;000.305;Disklavier MIDI Out
394.299;000.153;65;000.414;Disklavier MIDI Out
394.468;000.177;67;000.445;Disklavier MIDI Out
394.654;000.088;33;000.336;Disklavier MIDI Out
394.656;000.095;55;000.281;Disklavier MIDI Out
394.670;000.104;60;000.289;Disklavier MIDI Out
394.649;000.159;65;000.398;Disklavier MIDI Out
394.829;000.156;67;000.469;Disklavier MIDI Out
395.007;000.078;33;000.359;Disklavier MIDI Out
395.012;000.123;55;000.352;Disklavier MIDI Out
395.020;000.141;65;000.391;Disklavier MIDI Out
395.006;000.171;60;000.375;Disklavier MIDI Out
395.177;000.229;67;000.477;Disklavier MIDI Out
395.386;000.166;55;000.336;Disklavier MIDI Out
395.374;000.189;32;000.352;Disklavier MIDI Out
395.383;000.181;60;000.406;Disklavier MIDI Out
395.387;000.206;66;000.461;Disklavier MIDI Out
395.586;000.174;67;000.414;Disklavier MIDI Out
395.751;000.118;32;000.398;Disklavier MIDI Out
395.752;000.147;55;000.375;Disklavier MIDI Out
395.771;000.168;60;000.406;Disklavier MIDI Out
395.785;000.174;66;000.422;Disklavier MIDI Out
395.944;000.159;67;000.500;Disklavier MIDI Out
396.113;000.140;32;000.375;Disklavier MIDI Out
396.117;000.153;55;000.398;Disklavier MIDI Out
396.131;000.161;60;000.422;Disklavier MIDI Out
396.137;000.157;66;000.461;Disklavier MIDI Out
396.293;000.179;67;000.484;Disklavier MIDI Out
396.478;000.104;32;000.391;Disklavier MIDI Out
396.478;000.109;55;000.352;Disklavier MIDI Out
396.486;000.143;60;000.430;Disklavier MIDI Out
396.479;000.169;66;000.469;Disklavier MIDI Out
396.644;000.180;67;000.500;Disklavier MIDI Out
396.824;000.115;32;000.391;Disklavier MIDI Out
396.842;000.134;55;000.383;Disklavier MIDI Out
396.833;000.171;60;000.438;Disklavier MIDI Out
396.823;000.182;66;000.500;Disklavier MIDI Out
397.004;000.185;67;000.531;Disklavier MIDI Out
397.168;000.167;32;000.453;Disklavier MIDI Out
397.188;000.153;55;000.438;Disklavier MIDI Out
397.185;000.167;60;000.469;Disklavier MIDI Out
397.183;000.179;66;000.523;Disklavier MIDI Out
397.350;000.053;67;000.578;Disklavier MIDI Out
397.548;000.124;55;000.453;Disklavier MIDI Out
397.547;000.157;31;000.375;Disklavier MIDI Out
397.553;000.187;59;000.406;Disklavier MIDI Out
397.533;000.210;62;000.539;Disklavier MIDI Out
397.743;000.175;67;000.578;Disklavier MIDI Out
397.918;000.133;55;000.523;Disklavier MIDI Out
397.913;000.149;31;000.492;Disklavier MIDI Out
397.908;000.202;59;000.523;Disklavier MIDI Out
397.911;000.201;62;000.570;Disklavier MIDI Out
398.096;000.082;67;000.609;Disklavier MIDI Out
398.394;000.345;29;000.469;Disklavier MIDI Out
398.391;000.364;55;000.547;Disklavier MIDI Out
398.377;000.451;62;000.617;Disklavier MIDI Out
398.389;000.451;59;000.570;Disklavier MIDI Out
398.793;000.243;68;000.570;Disklavier MIDI Out
399.067;000.119;29;000.352;Disklavier MIDI Out
399.071;000.188;55;000.438;Disklavier MIDI Out
399.064;000.215;62;000.414;Disklavier MIDI Out
399.075;000.213;59;000.375;Disklavier MIDI Out
399.278;000.172;68;000.531;Disklavier MIDI Out
399.501;000.120;29;000.195;Disklavier MIDI Out
399.499;000.183;55;000.227;Disklavier MIDI Out
399.486;000.244;62;000.414;Disklavier MIDI Out
399.520;000.222;59;000.273;Disklavier MIDI Out
399.692;000.162;68;000.461;Disklavier MIDI Out
399.896;000.062;29;000.203;Disklavier MIDI Out
399.891;000.158;55;000.180;Disklavier MIDI Out
399.920;000.166;59;000.102;Disklavier MIDI Out
399.878;000.227;62;000.352;Disklavier MIDI Out
400.078;000.126;68;000.406;Disklavier MIDI Out
400.262;000.104;29;000.242;Disklavier MIDI Out
400.265;000.190;55;000.125;Disklavier MIDI Out
400.266;000.259;59;000.281;Disklavier MIDI Out
400.268;000.283;62;000.211;Disklavier MIDI Out
400.479;000.207;68;000.359;Disklavier MIDI Out
400.653;000.115;29;000.281;Disklavier MIDI Out
400.684;000.084;55;000.047;Disklavier MIDI Out
400.686;000.185;59;000.234;Disklavier MIDI Out
400.833;000.054;68;000.289;Disklavier MIDI Out
400.673;000.247;62;000.242;Disklavier MIDI Out
401.045;000.118;32;000.281;Disklavier MIDI Out
401.067;000.181;55;000.172;Disklavier MIDI Out
401.070;000.248;59;000.227;Disklavier MIDI Out
401.054;000.267;62;000.234;Disklavier MIDI Out
401.242;000.156;65;000.398;Disklavier MIDI Out
401.417;000.093;32;000.312;Disklavier MIDI Out
401.440;000.172;55;000.297;Disklavier MIDI Out
401.413;000.241;59;000.195;Disklavier MIDI Out
401.431;000.272;62;000.250;Disklavier MIDI Out
401.622;000.093;65;000.367;Disklavier MIDI Out
401.832;000.080;55;000.141;Disklavier MIDI Out
401.808;000.142;31;000.289;Disklavier MIDI Out
401.813;000.219;59;000.297;Disklavier MIDI Out
401.802;000.230;62;000.250;Disklavier MIDI Out
402.002;000.132;67;000.445;Disklavier MIDI Out
402.195;000.081;31;000.273;Disklavier MIDI Out
402.213;000.124;55;000.062;Disklavier MIDI Out
402.198;000.142;62;000.352;Disklavier MIDI Out
402.188;000.180;59;000.250;Disklavier MIDI Out
402.378;000.053;67;000.375;Disklavier MIDI Out
402.584;000.177;55;000.164;Disklavier MIDI Out
402.606;000.163;63;000.297;Disklavier MIDI Out
402.616;000.189;60;000.250;Disklavier MIDI Out
402.812;000.161;67;000.328;Disklavier MIDI Out
402.973;000.162;36;000.273;Disklavier MIDI Out
403.001;000.145;60;000.234;Disklavier MIDI Out
402.970;000.189;63;000.344;Disklavier MIDI Out
402.978;000.184;55;000.211;Disklavier MIDI Out
403.161;000.101;67;000.438;Disklavier MIDI Out
403.376;000.101;31;000.266;Disklavier MIDI Out
403.372;000.186;59;000.367;Disklavier MIDI Out
403.358;000.202;55;000.344;Disklavier MIDI Out
403.374;000.187;62;000.328;Disklavier MIDI Out
403.601;000.154;67;000.320;Disklavier MIDI Out
403.786;000.097;31;000.180;Disklavier MIDI Out
403.769;000.162;62;000.336;Disklavier MIDI Out
403.782;000.154;59;000.289;Disklavier MIDI Out
403.790;000.168;55;000.188;Disklavier MIDI Out
403.973;000.046;67;000.352;Disklavier MIDI Out
404.186;000.219;36;000.266;Disklavier MIDI Out
404.205;000.201;55;000.109;Disklavier MIDI Out
404.206;000.221;63;000.312;Disklavier MIDI Out
404.233;000.205;60;000.258;Disklavier MIDI Out
404.459;000.056;67;000.203;Disklavier MIDI Out
404.722;000.125;36;000.109;Disklavier MIDI Out
404.757;000.122;60;000.094;Disklavier MIDI Out
404.706;000.403;63;000.242;Disklavier MIDI Out
405.045;000.107;67;000.305;Disklavier MIDI Out
405.373;000.056;63;000.438;Disklavier MIDI Out
405.571;000.054;67;000.398;Disklavier MIDI Out
405.776;000.044;71;000.406;Disklavier MIDI Out
405.948;000.048;72;000.477;Disklavier MIDI Out
405.967;000.061;67;000.312;Disklavier MIDI Out
405.985;000.056;60;000.281;Disklavier MIDI Out
405.993;000.053;63;000.195;Disklavier MIDI Out
406.139;000.050;72;000.438;Disklavier MIDI Out
406.171;000.043;67;000.297;Disklavier MIDI Out
406.181;000.050;63;000.320;Disklavier MIDI Out
406.178;000.060;60;000.266;Disklavier MIDI Out
406.314;000.048;72;000.477;Disklavier MIDI Out
406.346;000.038;67;000.367;Disklavier MIDI Out
406.333;000.065;60;000.289;Disklavier MIDI Out
406.341;000.059;63;000.312;Disklavier MIDI Out
406.493;000.061;72;000.461;Disklavier MIDI Out
406.698;000.040;74;000.508;Disklavier MIDI Out
406.546;000.274;63;000.336;Disklavier MIDI Out
406.523;000.310;67;000.391;Disklavier MIDI Out
406.536;000.310;60;000.234;Disklavier MIDI Out
406.874;000.045;75;000.523;Disklavier MIDI Out
407.065;000.029;74;000.469;Disklavier MIDI Out
407.252;000.044;71;000.453;Disklavier MIDI Out
407.430;000.048;67;000.414;Disklavier MIDI Out
407.607;000.051;67;000.445;Disklavier MIDI Out
407.621;000.063;62;000.359;Disklavier MIDI Out
407.623;000.065;59;000.320;Disklavier MIDI Out
407.785;000.045;67;000.469;Disklavier MIDI Out
407.815;000.049;62;000.328;Disklavier MIDI Out
407.835;000.047;59;000.242;Disklavier MIDI Out
407.959;000.057;67;000.453;Disklavier MIDI Out
407.974;000.060;62;000.344;Disklavier MIDI Out
407.989;000.052;59;000.367;Disklavier MIDI Out
408.134;000.080;68;000.523;Disklavier MIDI Out
408.154;000.079;67;000.539;Disklavier MIDI Out
408.348;000.046;66;000.492;Disklavier MIDI Out
408.183;000.358;59;000.352;Disklavier MIDI Out
408.188;000.382;62;000.359;Disklavier MIDI Out
408.534;000.043;67;000.516;Disklavier MIDI Out
408.708;000.047;67;000.492;Disklavier MIDI Out
408.902;000.053;70;000.430;Disklavier MIDI Out
409.085;000.037;73;000.531;Disklavier MIDI Out
409.262;000.042;76;000.578;Disklavier MIDI Out
409.259;000.077;73;000.375;Disklavier MIDI Out
409.285;000.057;67;000.328;Disklavier MIDI Out
409.270;000.081;70;000.383;Disklavier MIDI Out
409.453;000.042;76;000.578;Disklavier MIDI Out
409.465;000.056;73;000.391;Disklavier MIDI Out
409.464;000.061;70;000.367;Disklavier MIDI Out
409.476;000.053;67;000.297;Disklavier MIDI Out
409.631;000.038;76;000.539;Disklavier MIDI Out
409.630;000.059;73;000.430;Disklavier MIDI Out
409.640;000.050;67;000.258;Disklavier MIDI Out
409.650;000.049;70;000.391;Disklavier MIDI Out
409.811;000.055;76;000.539;Disklavier MIDI Out
409.999;000.050;77;000.531;Disklavier MIDI Out
409.849;000.208;67;000.383;Disklavier MIDI Out
409.839;000.234;70;000.422;Disklavier MIDI Out
409.838;000.257;73;000.414;Disklavier MIDI Out
410.197;000.036;79;000.508;Disklavier MIDI Out
410.361;000.067;77;000.531;Disklavier MIDI Out
410.553;000.043;81;000.492;Disklavier MIDI Out
410.737;000.051;84;000.492;Disklavier MIDI Out
410.920;000.042;84;000.523;Disklavier MIDI Out
410.924;000.059;77;000.359;Disklavier MIDI Out
410.932;000.053;72;000.312;Disklavier MIDI Out
410.929;000.075;69;000.352;Disklavier MIDI Out
411.092;000.044;84;000.531;Disklavier MIDI Out
411.109;000.052;77;000.445;Disklavier MIDI Out
411.108;000.060;69;000.336;Disklavier MIDI Out
411.132;000.037;72;000.297;Disklavier MIDI Out
411.275;000.044;84;000.516;Disklavier MIDI Out
411.274;000.052;77;000.461;Disklavier MIDI Out
411.291;000.040;69;000.352;Disklavier MIDI Out
411.314;000.034;72;000.289;Disklavier MIDI Out
411.433;000.083;86;000.617;Disklavier MIDI Out
411.452;000.091;84;000.594;Disklavier MIDI Out
411.649;000.050;83;000.516;Disklavier MIDI Out
411.471;000.279;77;000.375;Disklavier MIDI Out
411.478;000.297;69;000.383;Disklavier MIDI Out
411.484;000.299;72;000.406;Disklavier MIDI Out
411.816;000.041;84;000.539;Disklavier MIDI Out
411.999;000.039;78;000.539;Disklavier MIDI Out
412.185;000.075;81;000.570;Disklavier MIDI Out
412.359;000.041;84;000.609;Disklavier MIDI Out
412.531;000.067;87;000.641;Disklavier MIDI Out
412.554;000.049;78;000.461;Disklavier MIDI Out
412.556;000.051;75;000.430;Disklavier MIDI Out
412.582;000.036;72;000.266;Disklavier MIDI Out
412.607;000.067;69;000.117;Disklavier MIDI Out
412.726;000.049;87;000.648;Disklavier MIDI Out
412.731;000.051;75;000.430;Disklavier MIDI Out
412.718;000.068;78;000.492;Disklavier MIDI Out
412.746;000.047;72;000.422;Disklavier MIDI Out
412.739;000.055;69;000.273;Disklavier MIDI Out
412.898;000.056;78;000.500;Disklavier MIDI Out
412.910;000.045;69;000.367;Disklavier MIDI Out
412.896;000.064;87;000.672;Disklavier MIDI Out
412.905;000.057;75;000.445;Disklavier MIDI Out
412.917;000.048;72;000.438;Disklavier MIDI Out
413.060;000.069;89;000.680;Disklavier MIDI Out
413.083;000.091;87;000.719;Disklavier MIDI Out
413.252;000.076;86;000.656;Disklavier MIDI Out
413.092;000.332;69;000.445;Disklavier MIDI Out
413.084;000.344;72;000.453;Disklavier MIDI Out
413.078;000.377;78;000.523;Disklavier MIDI Out
413.082;000.374;75;000.469;Disklavier MIDI Out
413.424;000.076;87;000.695;Disklavier MIDI Out
413.602;000.076;83;000.719;Disklavier MIDI Out
413.778;000.093;86;000.703;Disklavier MIDI Out
413.965;000.064;89;000.719;Disklavier MIDI Out
414.194;000.094;94;000.766;Disklavier MIDI Out
414.216;000.129;92;000.773;Disklavier MIDI Out
414.458;000.072;91;000.781;Disklavier MIDI Out
414.642;000.070;89;000.766;Disklavier MIDI Out
414.214;000.499;80;000.594;Disklavier MIDI Out
414.221;000.492;74;000.531;Disklavier MIDI Out
414.219;000.495;77;000.539;Disklavier MIDI Out
414.210;000.528;71;000.531;Disklavier MIDI Out
414.820;000.072;91;000.758;Disklavier MIDI Out
414.837;000.066;89;000.680;Disklavier MIDI Out
415.015;000.085;87;000.719;Disklavier MIDI Out
415.183;000.057;86;000.680;Disklavier MIDI Out
415.346;000.067;82;000.719;Disklavier MIDI Out
415.372;000.089;80;000.625;Disklavier MIDI Out
415.547;000.066;79;000.695;Disklavier MIDI Out
415.716;000.072;77;000.711;Disklavier MIDI Out
415.883;000.073;79;000.711;Disklavier MIDI Out
415.907;000.074;77;000.664;Disklavier MIDI Out
416.071;000.084;75;000.672;Disklavier MIDI Out
416.240;000.055;74;000.617;Disklavier MIDI Out
416.421;000.079;67;000.688;Disklavier MIDI Out
416.417;000.084;68;000.656;Disklavier MIDI Out
416.611;000.052;65;000.602;Disklavier MIDI Out
416.781;000.061;63;000.594;Disklavier MIDI Out
416.938;000.079;65;000.594;Disklavier MIDI Out
416.979;000.094;63;000.594;Disklavier MIDI Out
417.161;000.047;62;000.578;Disklavier MIDI Out
417.343;000.065;60;000.562;Disklavier MIDI Out
417.497;000.081;53;000.539;Disklavier MIDI Out
417.537;000.083;51;000.469;Disklavier MIDI Out
417.727;000.067;50;000.469;Disklavier MIDI Out
417.938;000.039;48;000.422;Disklavier MIDI Out
418.181;000.077;41;000.367;Disklavier MIDI Out
418.226;000.085;39;000.266;Disklavier MIDI Out
418.522;000.075;38;000.391;Disklavier MIDI Out
418.977;000.260;36;000.203;Disklavier MIDI Out
419.667;000.130;36;000.273;Disklavier MIDI Out
419.839;000.111;67;000.305;Disklavier MIDI Out
419.642;000.319;75;000.367;Disklavier MIDI Out
419.961;000.148;70;000.391;Disklavier MIDI Out
419.999;000.148;68;000.375;Disklavier MIDI Out
420.140;000.147;67;000.445;Disklavier MIDI Out
420.328;000.092;36;000.328;Disklavier MIDI Out
420.329;000.282;75;000.438;Disklavier MIDI Out
420.501;000.140;67;000.344;Disklavier MIDI Out
420.668;000.155;68;000.438;Disklavier MIDI Out
420.641;000.184;70;000.289;Disklavier MIDI Out
420.824;000.156;67;000.461;Disklavier MIDI Out
421.013;000.215;36;000.328;Disklavier MIDI Out
421.007;000.315;75;000.469;Disklavier MIDI Out
421.182;000.143;67;000.406;Disklavier MIDI Out
421.342;000.147;70;000.367;Disklavier MIDI Out
421.348;000.161;68;000.445;Disklavier MIDI Out
421.526;000.135;67;000.375;Disklavier MIDI Out
421.685;000.213;35;000.336;Disklavier MIDI Out
421.694;000.286;74;000.516;Disklavier MIDI Out
421.853;000.144;67;000.430;Disklavier MIDI Out
422.007;000.085;71;000.477;Disklavier MIDI Out
422.066;000.127;69;000.430;Disklavier MIDI Out
422.203;000.160;67;000.484;Disklavier MIDI Out
422.374;000.093;66;000.523;Disklavier MIDI Out
422.521;000.158;67;000.570;Disklavier MIDI Out
422.707;000.123;71;000.555;Disklavier MIDI Out
422.857;000.049;74;000.531;Disklavier MIDI Out
423.030;000.153;79;000.500;Disklavier MIDI Out
423.177;000.221;83;000.539;Disklavier MIDI Out
423.367;000.122;86;000.508;Disklavier MIDI Out
423.505;000.034;79;000.523;Disklavier MIDI Out
423.719;000.134;73;000.500;Disklavier MIDI Out
423.719;000.326;34;000.234;Disklavier MIDI Out
423.899;000.172;64;000.438;Disklavier MIDI Out
424.078;000.084;67;000.383;Disklavier MIDI Out
424.076;000.123;65;000.461;Disklavier MIDI Out
424.239;000.153;64;000.477;Disklavier MIDI Out
424.401;000.195;73;000.539;Disklavier MIDI Out
424.404;000.214;34;000.375;Disklavier MIDI Out
424.573;000.161;64;000.445;Disklavier MIDI Out
424.741;000.103;67;000.281;Disklavier MIDI Out
424.752;000.137;65;000.477;Disklavier MIDI Out
424.912;000.159;64;000.469;Disklavier MIDI Out
425.080;000.182;73;000.547;Disklavier MIDI Out
425.060;000.327;34;000.336;Disklavier MIDI Out
425.245;000.148;64;000.461;Disklavier MIDI Out
425.378;000.118;67;000.484;Disklavier MIDI Out
425.429;000.133;65;000.445;Disklavier MIDI Out
425.582;000.131;64;000.445;Disklavier MIDI Out
425.758;000.284;72;000.531;Disklavier MIDI Out
425.773;000.282;33;000.320;Disklavier MIDI Out
425.934;000.144;65;000.414;Disklavier MIDI Out
426.056;000.133;69;000.422;Disklavier MIDI Out
426.113;000.156;67;000.445;Disklavier MIDI Out
426.270;000.174;65;000.500;Disklavier MIDI Out
426.444;000.102;64;000.562;Disklavier MIDI Out
426.606;000.150;65;000.555;Disklavier MIDI Out
426.772;000.161;69;000.578;Disklavier MIDI Out
426.936;000.077;72;000.547;Disklavier MIDI Out
427.160;000.034;79;000.359;Disklavier MIDI Out
427.112;000.168;77;000.555;Disklavier MIDI Out
427.258;000.219;81;000.617;Disklavier MIDI Out
427.444;000.123;84;000.570;Disklavier MIDI Out
427.592;000.228;77;000.586;Disklavier MIDI Out
427.809;000.306;32;000.414;Disklavier MIDI Out
428.071;000.146;72;000.438;Disklavier MIDI Out
427.793;000.461;78;000.609;Disklavier MIDI Out
428.210;000.177;75;000.555;Disklavier MIDI Out
428.246;000.219;74;000.484;Disklavier MIDI Out
428.375;000.172;72;000.570;Disklavier MIDI Out
428.529;000.259;32;000.391;Disklavier MIDI Out
428.703;000.168;72;000.562;Disklavier MIDI Out
428.524;000.355;78;000.602;Disklavier MIDI Out
428.849;000.184;75;000.586;Disklavier MIDI Out
428.871;000.182;74;000.625;Disklavier MIDI Out
429.027;000.179;72;000.609;Disklavier MIDI Out
429.204;000.273;32;000.445;Disklavier MIDI Out
429.193;000.312;78;000.617;Disklavier MIDI Out
429.365;000.181;72;000.578;Disklavier MIDI Out
429.546;000.176;74;000.656;Disklavier MIDI Out
429.521;000.206;75;000.609;Disklavier MIDI Out
429.693;000.198;72;000.641;Disklavier MIDI Out
430.045;000.084;72;000.609;Disklavier MIDI Out
429.892;000.249;31;000.555;Disklavier MIDI Out
429.867;000.381;79;000.711;Disklavier MIDI Out
430.210;000.171;75;000.656;Disklavier MIDI Out
430.248;000.185;74;000.586;Disklavier MIDI Out
430.397;000.394;72;000.695;Disklavier MIDI Out
430.717;000.427;29;000.555;Disklavier MIDI Out
430.697;000.507;80;000.773;Disklavier MIDI Out
431.090;000.198;72;000.523;Disklavier MIDI Out
431.267;000.178;74;000.602;Disklavier MIDI Out
431.444;000.184;77;000.578;Disklavier MIDI Out
431.610;000.110;80;000.562;Disklavier MIDI Out
431.785;000.164;84;000.453;Disklavier MIDI Out
431.950;000.154;86;000.523;Disklavier MIDI Out
432.119;000.151;89;000.562;Disklavier MIDI Out
432.295;000.255;92;000.562;Disklavier MIDI Out
432.457;000.140;91;000.508;Disklavier MIDI Out
432.628;000.147;89;000.492;Disklavier MIDI Out
432.803;000.132;87;000.422;Disklavier MIDI Out
432.985;000.122;74;000.281;Disklavier MIDI Out
432.994;000.116;72;000.312;Disklavier MIDI Out
433.008;000.104;68;000.297;Disklavier MIDI Out
432.959;000.190;86;000.453;Disklavier MIDI Out
432.990;000.161;65;000.273;Disklavier MIDI Out
433.144;000.159;87;000.484;Disklavier MIDI Out
433.306;000.141;89;000.398;Disklavier MIDI Out
433.477;000.195;84;000.328;Disklavier MIDI Out
433.670;000.096;71;000.367;Disklavier MIDI Out
433.651;000.116;74;000.359;Disklavier MIDI Out
433.660;000.114;67;000.352;Disklavier MIDI Out
433.657;000.184;83;000.445;Disklavier MIDI Out
433.837;000.158;84;000.461;Disklavier MIDI Out
433.996;000.119;86;000.523;Disklavier MIDI Out
434.172;000.153;77;000.367;Disklavier MIDI Out
434.354;000.193;75;000.445;Disklavier MIDI Out
434.360;000.224;72;000.320;Disklavier MIDI Out
434.344;000.304;67;000.344;Disklavier MIDI Out
434.543;000.153;77;000.391;Disklavier MIDI Out
434.387;000.344;63;000.242;Disklavier MIDI Out
434.373;000.381;60;000.297;Disklavier MIDI Out
434.696;000.113;79;000.500;Disklavier MIDI Out
434.858;000.029;72;000.445;Disklavier MIDI Out
435.031;000.212;63;000.539;Disklavier MIDI Out
435.210;000.170;65;000.484;Disklavier MIDI Out
435.368;000.204;67;000.477;Disklavier MIDI Out
435.544;000.159;60;000.492;Disklavier MIDI Out
435.710;000.183;51;000.516;Disklavier MIDI Out
435.879;000.207;53;000.539;Disklavier MIDI Out
436.038;000.177;55;000.562;Disklavier MIDI Out
436.203;000.043;48;000.570;Disklavier MIDI Out
436.510;000.024;81;000.461;Disklavier MIDI Out
436.492;000.053;36;000.609;Disklavier MIDI Out
436.493;000.077;43;000.648;Disklavier MIDI Out
436.485;000.089;39;000.570;Disklavier MIDI Out
436.471;000.104;84;000.742;Disklavier MIDI Out
436.489;000.095;48;000.750;Disklavier MIDI Out
436.472;000.141;79;000.688;Disklavier MIDI Out
436.476;000.156;75;000.750;Disklavier MIDI Out
436.474;000.364;72;000.828;Disklavier MIDI Out
436.885;000.028;59;000.438;Disklavier MIDI Out
436.874;000.050;63;000.477;Disklavier MIDI Out
436.861;000.067;75;000.648;Disklavier MIDI Out
436.864;000.066;79;000.664;Disklavier MIDI Out
436.877;000.060;60;000.500;Disklavier MIDI Out
437.013;000.057;74;000.672;Disklavier MIDI Out
437.030;000.060;65;000.547;Disklavier MIDI Out
437.035;000.057;62;000.508;Disklavier MIDI Out
437.007;000.087;77;000.711;Disklavier MIDI Out
437.164;000.052;72;000.664;Disklavier MIDI Out
437.161;000.063;63;000.562;Disklavier MIDI Out
437.163;000.062;67;000.664;Disklavier MIDI Out
437.165;000.060;75;000.742;Disklavier MIDI Out
437.469;000.057;75;000.727;Disklavier MIDI Out
437.461;000.070;79;000.750;Disklavier MIDI Out
437.468;000.080;60;000.641;Disklavier MIDI Out
437.467;000.081;63;000.633;Disklavier MIDI Out
437.776;000.051;74;000.719;Disklavier MIDI Out
437.777;000.066;65;000.625;Disklavier MIDI Out
437.770;000.077;77;000.719;Disklavier MIDI Out
437.775;000.086;62;000.633;Disklavier MIDI Out
438.084;000.043;67;000.656;Disklavier MIDI Out
438.086;000.042;72;000.617;Disklavier MIDI Out
438.079;000.060;75;000.711;Disklavier MIDI Out
438.090;000.061;63;000.641;Disklavier MIDI Out
438.389;000.056;86;000.680;Disklavier MIDI Out
438.397;000.050;74;000.781;Disklavier MIDI Out
438.415;000.043;43;000.609;Disklavier MIDI Out
438.410;000.055;55;000.766;Disklavier MIDI Out
438.461;000.043;44;000.297;Disklavier MIDI Out
438.738;000.044;71;000.680;Disklavier MIDI Out
438.755;000.032;55;000.391;Disklavier MIDI Out
438.760;000.037;60;000.297;Disklavier MIDI Out
438.734;000.066;74;000.680;Disklavier MIDI Out
438.765;000.041;57;000.453;Disklavier MIDI Out
438.779;000.044;59;000.281;Disklavier MIDI Out
438.879;000.043;69;000.625;Disklavier MIDI Out
438.880;000.064;72;000.656;Disklavier MIDI Out
438.917;000.035;62;000.375;Disklavier MIDI Out
438.932;000.038;60;000.320;Disklavier MIDI Out
439.021;000.041;67;000.641;Disklavier MIDI Out
439.015;000.062;71;000.742;Disklavier MIDI Out
439.007;000.082;59;000.195;Disklavier MIDI Out
439.026;000.065;62;000.578;Disklavier MIDI Out
439.336;000.056;71;000.703;Disklavier MIDI Out
439.342;000.060;59;000.586;Disklavier MIDI Out
439.337;000.069;74;000.688;Disklavier MIDI Out
439.341;000.074;55;000.625;Disklavier MIDI Out
439.633;000.061;69;000.680;Disklavier MIDI Out
439.641;000.069;60;000.609;Disklavier MIDI Out
439.631;000.080;72;000.680;Disklavier MIDI Out
439.643;000.082;57;000.586;Disklavier MIDI Out
439.928;000.036;62;000.648;Disklavier MIDI Out
439.929;000.037;67;000.641;Disklavier MIDI Out
439.936;000.042;59;000.609;Disklavier MIDI Out
439.926;000.053;71;000.672;Disklavier MIDI Out
440.261;000.042;36;000.602;Disklavier MIDI Out
440.255;000.053;88;000.703;Disklavier MIDI Out
440.260;000.055;76;000.805;Disklavier MIDI Out
440.264;000.056;48;000.742;Disklavier MIDI Out
440.603;000.069;70;000.617;Disklavier MIDI Out
440.605;000.072;73;000.656;Disklavier MIDI Out
440.591;000.093;55;000.570;Disklavier MIDI Out
440.606;000.123;58;000.523;Disklavier MIDI Out
440.754;000.044;60;000.539;Disklavier MIDI Out
440.720;000.090;73;000.570;Disklavier MIDI Out
440.741;000.071;68;000.586;Disklavier MIDI Out
440.795;000.032;72;000.320;Disklavier MIDI Out
440.755;000.074;56;000.508;Disklavier MIDI Out
440.877;000.062;67;000.625;Disklavier MIDI Out
440.893;000.053;58;000.547;Disklavier MIDI Out
440.883;000.065;70;000.695;Disklavier MIDI Out
440.885;000.082;61;000.688;Disklavier MIDI Out
441.182;000.063;70;000.672;Disklavier MIDI Out
441.190;000.062;55;000.555;Disklavier MIDI Out
441.180;000.080;73;000.672;Disklavier MIDI Out
441.188;000.096;58;000.586;Disklavier MIDI Out
441.478;000.066;68;000.648;Disklavier MIDI Out
441.469;000.080;72;000.688;Disklavier MIDI Out
441.472;000.086;60;000.578;Disklavier MIDI Out
441.480;000.127;56;000.516;Disklavier MIDI Out
441.773;000.044;67;000.680;Disklavier MIDI Out
441.778;000.049;58;000.555;Disklavier MIDI Out
441.767;000.063;61;000.648;Disklavier MIDI Out
441.768;000.062;70;000.711;Disklavier MIDI Out
442.089;000.050;89;000.695;Disklavier MIDI Out
442.104;000.043;41;000.594;Disklavier MIDI Out
442.094;000.057;77;000.750;Disklavier MIDI Out
442.101;000.061;53;000.742;Disklavier MIDI Out
442.403;000.043;68;000.617;Disklavier MIDI Out
442.394;000.066;72;000.625;Disklavier MIDI Out
442.398;000.067;56;000.555;Disklavier MIDI Out
442.395;000.084;53;000.555;Disklavier MIDI Out
442.535;000.033;67;000.633;Disklavier MIDI Out
442.531;000.071;70;000.672;Disklavier MIDI Out
442.559;000.046;55;000.500;Disklavier MIDI Out
442.545;000.070;58;000.586;Disklavier MIDI Out
442.678;000.064;65;000.664;Disklavier MIDI Out
442.676;000.069;68;000.734;Disklavier MIDI Out
442.688;000.069;60;000.641;Disklavier MIDI Out
442.685;000.074;56;000.633;Disklavier MIDI Out
442.992;000.064;68;000.680;Disklavier MIDI Out
442.999;000.069;56;000.578;Disklavier MIDI Out
442.993;000.079;72;000.641;Disklavier MIDI Out
443.002;000.083;53;000.594;Disklavier MIDI Out
443.302;000.057;67;000.656;Disklavier MIDI Out
443.296;000.085;58;000.602;Disklavier MIDI Out
443.299;000.085;55;000.578;Disklavier MIDI Out
443.295;000.090;70;000.742;Disklavier MIDI Out
443.576;000.034;60;000.625;Disklavier MIDI Out
443.583;000.039;65;000.625;Disklavier MIDI Out
443.581;000.054;56;000.617;Disklavier MIDI Out
443.577;000.072;68;000.719;Disklavier MIDI Out
443.904;000.052;90;000.422;Disklavier MIDI Out
443.909;000.051;38;000.578;Disklavier MIDI Out
443.910;000.051;78;000.758;Disklavier MIDI Out
443.914;000.061;50;000.766;Disklavier MIDI Out
444.242;000.059;72;000.562;Disklavier MIDI Out
444.244;000.061;75;000.625;Disklavier MIDI Out
444.255;000.087;60;000.547;Disklavier MIDI Out
444.247;000.098;57;000.555;Disklavier MIDI Out
444.374;000.042;71;000.656;Disklavier MIDI Out
444.373;000.071;74;000.656;Disklavier MIDI Out
444.390;000.062;62;000.609;Disklavier MIDI Out
444.407;000.067;59;000.477;Disklavier MIDI Out
444.527;000.057;69;000.617;Disklavier MIDI Out
444.518;000.067;72;000.758;Disklavier MIDI Out
444.525;000.078;63;000.672;Disklavier MIDI Out
444.529;000.133;60;000.578;Disklavier MIDI Out
444.822;000.061;72;000.656;Disklavier MIDI Out
444.818;000.072;75;000.695;Disklavier MIDI Out
444.826;000.072;57;000.570;Disklavier MIDI Out
444.827;000.093;60;000.625;Disklavier MIDI Out
445.108;000.070;71;000.703;Disklavier MIDI Out
445.111;000.086;74;000.664;Disklavier MIDI Out
445.104;000.097;62;000.586;Disklavier MIDI Out
445.107;000.109;59;000.508;Disklavier MIDI Out
445.389;000.050;69;000.672;Disklavier MIDI Out
445.386;000.060;72;000.625;Disklavier MIDI Out
445.390;000.060;63;000.656;Disklavier MIDI Out
445.395;000.057;60;000.625;Disklavier MIDI Out
445.723;000.041;43;000.586;Disklavier MIDI Out
445.724;000.049;79;000.734;Disklavier MIDI Out
445.729;000.053;55;000.766;Disklavier MIDI Out
445.717;000.069;91;000.688;Disklavier MIDI Out
446.048;000.058;86;000.648;Disklavier MIDI Out
446.051;000.069;80;000.688;Disklavier MIDI Out
446.047;000.096;77;000.609;Disklavier MIDI Out
446.053;000.122;89;000.633;Disklavier MIDI Out
446.191;000.066;79;000.641;Disklavier MIDI Out
446.183;000.084;91;000.656;Disklavier MIDI Out
446.188;000.089;75;000.641;Disklavier MIDI Out
446.181;000.100;87;000.648;Disklavier MIDI Out
446.332;000.070;89;000.641;Disklavier MIDI Out
446.338;000.068;77;000.594;Disklavier MIDI Out
446.364;000.044;91;000.242;Disklavier MIDI Out
446.334;000.075;74;000.672;Disklavier MIDI Out
446.329;000.081;92;000.781;Disklavier MIDI Out
446.647;000.019;84;000.555;Disklavier MIDI Out
446.620;000.066;74;000.664;Disklavier MIDI Out
446.624;000.064;77;000.641;Disklavier MIDI Out
446.631;000.057;86;000.688;Disklavier MIDI Out
446.627;000.064;83;000.680;Disklavier MIDI Out
446.758;000.070;84;000.648;Disklavier MIDI Out
446.774;000.074;72;000.562;Disklavier MIDI Out
446.759;000.092;87;000.734;Disklavier MIDI Out
446.765;000.088;75;000.680;Disklavier MIDI Out
446.908;000.053;74;000.656;Disklavier MIDI Out
446.913;000.053;86;000.742;Disklavier MIDI Out
446.917;000.050;89;000.727;Disklavier MIDI Out
446.916;000.057;71;000.688;Disklavier MIDI Out
446.923;000.051;88;000.672;Disklavier MIDI Out
447.192;000.044;68;000.602;Disklavier MIDI Out
447.204;000.036;74;000.578;Disklavier MIDI Out
447.193;000.144;77;000.719;Disklavier MIDI Out
447.190;000.185;65;000.594;Disklavier MIDI Out
447.349;000.041;67;000.555;Disklavier MIDI Out
447.329;000.073;79;000.594;Disklavier MIDI Out
447.324;000.093;75;000.633;Disklavier MIDI Out
447.334;000.106;63;000.609;Disklavier MIDI Out
447.468;000.073;80;000.719;Disklavier MIDI Out
447.472;000.077;77;000.633;Disklavier MIDI Out
447.477;000.078;65;000.594;Disklavier MIDI Out
447.487;000.076;62;000.641;Disklavier MIDI Out
447.758;000.046;65;000.602;Disklavier MIDI Out
447.759;000.051;71;000.633;Disklavier MIDI Out
447.756;000.056;74;000.719;Disklavier MIDI Out
447.752;000.071;62;000.672;Disklavier MIDI Out
447.894;000.047;72;000.602;Disklavier MIDI Out
447.881;000.104;75;000.727;Disklavier MIDI Out
447.902;000.085;60;000.539;Disklavier MIDI Out
447.893;000.105;63;000.617;Disklavier MIDI Out
448.032;000.053;62;000.609;Disklavier MIDI Out
448.040;000.057;74;000.703;Disklavier MIDI Out
448.035;000.065;77;000.734;Disklavier MIDI Out
448.039;000.064;59;000.609;Disklavier MIDI Out
448.346;000.044;59;000.656;Disklavier MIDI Out
448.336;000.077;62;000.656;Disklavier MIDI Out
448.342;000.077;56;000.680;Disklavier MIDI Out
448.401;000.076;66;000.148;Disklavier MIDI Out
448.486;000.038;62;000.383;Disklavier MIDI Out
448.495;000.039;54;000.320;Disklavier MIDI Out
448.475;000.061;59;000.727;Disklavier MIDI Out
448.460;000.084;68;000.531;Disklavier MIDI Out
448.347;000.211;65;000.531;Disklavier MIDI Out
448.483;000.082;53;000.680;Disklavier MIDI Out
448.619;000.086;59;000.766;Disklavier MIDI Out
448.633;000.081;50;000.680;Disklavier MIDI Out
448.611;000.121;65;000.562;Disklavier MIDI Out
448.624;000.120;67;000.719;Disklavier MIDI Out
448.908;000.057;65;000.680;Disklavier MIDI Out
448.918;000.053;62;000.656;Disklavier MIDI Out
448.914;000.071;67;000.688;Disklavier MIDI Out
448.917;000.137;47;000.641;Disklavier MIDI Out
449.055;000.038;62;000.641;Disklavier MIDI Out
449.081;000.014;65;000.359;Disklavier MIDI Out
449.048;000.055;71;000.734;Disklavier MIDI Out
449.054;000.071;43;000.609;Disklavier MIDI Out
449.222;000.023;70;000.508;Disklavier MIDI Out
449.214;000.130;48;000.672;Disklavier MIDI Out
449.194;000.153;60;000.727;Disklavier MIDI Out
449.202;000.170;63;000.703;Disklavier MIDI Out
449.184;000.199;72;000.578;Disklavier MIDI Out
449.493;000.032;63;000.648;Disklavier MIDI Out
449.491;000.036;60;000.648;Disklavier MIDI Out
449.501;000.045;72;000.633;Disklavier MIDI Out
449.497;000.078;48;000.633;Disklavier MIDI Out
449.641;000.037;71;000.633;Disklavier MIDI Out
449.631;000.051;62;000.766;Disklavier MIDI Out
449.629;000.060;74;000.734;Disklavier MIDI Out
449.638;000.070;43;000.625;Disklavier MIDI Out
449.649;000.060;70;000.445;Disklavier MIDI Out
449.774;000.097;63;000.781;Disklavier MIDI Out
449.773;000.113;72;000.391;Disklavier MIDI Out
449.771;000.129;75;000.781;Disklavier MIDI Out
449.786;000.137;36;000.602;Disklavier MIDI Out
450.120;000.051;67;000.727;Disklavier MIDI Out
450.123;000.057;75;000.727;Disklavier MIDI Out
450.121;000.065;79;000.750;Disklavier MIDI Out
450.126;000.149;36;000.547;Disklavier MIDI Out
450.298;000.030;71;000.789;Disklavier MIDI Out
450.296;000.040;74;000.781;Disklavier MIDI Out
450.300;000.037;83;000.773;Disklavier MIDI Out
450.301;000.164;31;000.594;Disklavier MIDI Out
450.623;000.068;83;000.102;Disklavier MIDI Out
450.551;000.286;36;000.727;Disklavier MIDI Out
450.554;000.351;84;000.758;Disklavier MIDI Out
450.552;000.402;72;000.797;Disklavier MIDI Out
450.553;000.444;75;000.836;Disklavier MIDI Out
451.251;000.066;36;000.586;Disklavier MIDI Out
451.254;000.079;48;000.789;Disklavier MIDI Out
451.258;000.094;43;000.719;Disklavier MIDI Out
451.260;000.095;39;000.648;Disklavier MIDI Out
451.418;000.040;72;000.578;Disklavier MIDI Out
451.405;000.110;75;000.656;Disklavier MIDI Out
451.541;000.066;69;000.672;Disklavier MIDI Out
451.543;000.085;72;000.695;Disklavier MIDI Out
451.461;000.194;73;000.164;Disklavier MIDI Out
451.682;000.061;71;000.680;Disklavier MIDI Out
451.688;000.070;74;000.695;Disklavier MIDI Out
451.964;000.069;63;000.609;Disklavier MIDI Out
451.974;000.072;60;000.523;Disklavier MIDI Out
451.835;000.215;72;000.680;Disklavier MIDI Out
451.837;000.251;75;000.711;Disklavier MIDI Out
452.123;000.059;57;000.547;Disklavier MIDI Out
452.119;000.096;60;000.594;Disklavier MIDI Out
452.261;000.062;62;000.617;Disklavier MIDI Out
452.278;000.049;59;000.500;Disklavier MIDI Out
452.425;000.113;63;000.727;Disklavier MIDI Out
452.414;000.139;60;000.695;Disklavier MIDI Out
452.562;000.067;84;000.664;Disklavier MIDI Out
452.567;000.099;87;000.719;Disklavier MIDI Out
452.709;000.047;83;000.633;Disklavier MIDI Out
452.703;000.064;86;000.750;Disklavier MIDI Out
452.840;000.061;84;000.742;Disklavier MIDI Out
450.581;002.324;81;000.500;Disklavier MIDI Out
452.842;000.062;81;000.672;Disklavier MIDI Out
453.147;000.048;71;000.719;Disklavier MIDI Out
453.145;000.066;74;000.703;Disklavier MIDI Out
453.290;000.045;67;000.641;Disklavier MIDI Out
453.285;000.054;71;000.719;Disklavier MIDI Out
452.997;000.376;47;000.672;Disklavier MIDI Out
453.001;000.376;43;000.617;Disklavier MIDI Out
452.998;000.388;50;000.688;Disklavier MIDI Out
452.994;000.415;55;000.797;Disklavier MIDI Out
453.423;000.058;69;000.727;Disklavier MIDI Out
453.428;000.065;72;000.656;Disklavier MIDI Out
453.466;000.036;71;000.281;Disklavier MIDI Out
453.722;000.042;62;000.594;Disklavier MIDI Out
453.721;000.058;59;000.609;Disklavier MIDI Out
453.583;000.274;71;000.742;Disklavier MIDI Out
453.578;000.315;74;000.773;Disklavier MIDI Out
453.861;000.066;59;000.609;Disklavier MIDI Out
453.875;000.059;55;000.570;Disklavier MIDI Out
453.991;000.070;59;000.547;Disklavier MIDI Out
454.040;000.031;60;000.406;Disklavier MIDI Out
454.023;000.053;57;000.492;Disklavier MIDI Out
454.168;000.108;57;000.656;Disklavier MIDI Out
454.170;000.119;60;000.656;Disklavier MIDI Out
454.185;000.181;62;000.680;Disklavier MIDI Out
454.311;000.058;83;000.695;Disklavier MIDI Out
454.309;000.083;86;000.695;Disklavier MIDI Out
454.284;000.109;59;000.516;Disklavier MIDI Out
454.468;000.052;86;000.586;Disklavier MIDI Out
454.461;000.066;81;000.672;Disklavier MIDI Out
454.464;000.083;84;000.609;Disklavier MIDI Out
454.603;000.062;83;000.727;Disklavier MIDI Out
454.606;000.063;79;000.656;Disklavier MIDI Out
454.888;000.038;70;000.648;Disklavier MIDI Out
454.876;000.064;76;000.688;Disklavier MIDI Out
454.883;000.072;73;000.617;Disklavier MIDI Out
455.033;000.041;67;000.664;Disklavier MIDI Out
455.034;000.061;70;000.648;Disklavier MIDI Out
455.041;000.056;76;000.672;Disklavier MIDI Out
454.758;000.358;36;000.570;Disklavier MIDI Out
454.749;000.367;40;000.602;Disklavier MIDI Out
454.751;000.372;43;000.625;Disklavier MIDI Out
454.745;000.382;48;000.727;Disklavier MIDI Out
455.168;000.053;68;000.680;Disklavier MIDI Out
455.166;000.063;76;000.625;Disklavier MIDI Out
455.169;000.068;72;000.625;Disklavier MIDI Out
455.452;000.087;61;000.609;Disklavier MIDI Out
455.466;000.083;58;000.531;Disklavier MIDI Out
455.323;000.229;70;000.664;Disklavier MIDI Out
455.319;000.293;76;000.719;Disklavier MIDI Out
455.327;000.293;73;000.648;Disklavier MIDI Out
455.622;000.143;55;000.633;Disklavier MIDI Out
455.624;000.142;58;000.555;Disklavier MIDI Out
455.755;000.055;60;000.672;Disklavier MIDI Out
455.754;000.085;56;000.594;Disklavier MIDI Out
455.910;000.210;61;000.719;Disklavier MIDI Out
456.062;000.059;70;000.641;Disklavier MIDI Out
456.063;000.061;76;000.594;Disklavier MIDI Out
455.906;000.228;58;000.750;Disklavier MIDI Out
456.058;000.104;73;000.633;Disklavier MIDI Out
456.212;000.038;68;000.625;Disklavier MIDI Out
456.206;000.047;76;000.578;Disklavier MIDI Out
456.233;000.036;73;000.305;Disklavier MIDI Out
456.205;000.069;72;000.594;Disklavier MIDI Out
456.357;000.034;67;000.641;Disklavier MIDI Out
456.361;000.034;71;000.484;Disklavier MIDI Out
456.356;000.042;72;000.570;Disklavier MIDI Out
456.351;000.066;76;000.742;Disklavier MIDI Out
456.640;000.046;68;000.602;Disklavier MIDI Out
456.631;000.070;72;000.359;Disklavier MIDI Out
456.626;000.081;77;000.484;Disklavier MIDI Out
456.785;000.034;65;000.617;Disklavier MIDI Out
456.791;000.031;68;000.656;Disklavier MIDI Out
456.786;000.066;77;000.594;Disklavier MIDI Out
456.507;000.394;44;000.523;Disklavier MIDI Out
456.510;000.392;48;000.633;Disklavier MIDI Out
456.514;000.389;41;000.594;Disklavier MIDI Out
456.502;000.403;53;000.711;Disklavier MIDI Out
456.935;000.032;67;000.641;Disklavier MIDI Out
456.936;000.039;70;000.688;Disklavier MIDI Out
456.946;000.031;65;000.367;Disklavier MIDI Out
456.926;000.066;77;000.672;Disklavier MIDI Out
457.231;000.056;60;000.609;Disklavier MIDI Out
457.242;000.051;56;000.562;Disklavier MIDI Out
457.085;000.297;68;000.695;Disklavier MIDI Out
457.081;000.322;72;000.633;Disklavier MIDI Out
457.082;000.330;77;000.703;Disklavier MIDI Out
457.386;000.066;56;000.633;Disklavier MIDI Out
457.390;000.068;53;000.648;Disklavier MIDI Out
457.523;000.070;56;000.609;Disklavier MIDI Out
457.561;000.052;55;000.539;Disklavier MIDI Out
457.586;000.031;58;000.391;Disklavier MIDI Out
457.851;000.048;68;000.625;Disklavier MIDI Out
457.845;000.057;72;000.609;Disklavier MIDI Out
457.847;000.068;77;000.625;Disklavier MIDI Out
457.695;000.267;60;000.727;Disklavier MIDI Out
457.697;000.286;56;000.672;Disklavier MIDI Out
458.001;000.033;70;000.617;Disklavier MIDI Out
457.997;000.039;67;000.648;Disklavier MIDI Out
457.992;000.062;77;000.578;Disklavier MIDI Out
458.050;000.048;75;000.188;Disklavier MIDI Out
458.140;000.037;65;000.633;Disklavier MIDI Out
458.142;000.039;68;000.656;Disklavier MIDI Out
458.137;000.077;77;000.633;Disklavier MIDI Out
458.440;000.069;72;000.609;Disklavier MIDI Out
458.454;000.060;75;000.570;Disklavier MIDI Out
458.439;000.089;78;000.633;Disklavier MIDI Out
458.307;000.308;38;000.578;Disklavier MIDI Out
458.301;000.328;42;000.672;Disklavier MIDI Out
458.294;000.335;45;000.641;Disklavier MIDI Out
458.290;000.345;50;000.734;Disklavier MIDI Out
458.591;000.045;69;000.617;Disklavier MIDI Out
458.575;000.085;78;000.539;Disklavier MIDI Out
458.581;000.082;72;000.578;Disklavier MIDI Out
458.640;000.035;71;000.320;Disklavier MIDI Out
458.737;000.059;71;000.688;Disklavier MIDI Out
458.742;000.056;78;000.594;Disklavier MIDI Out
458.734;000.074;74;000.695;Disklavier MIDI Out
459.025;000.069;63;000.648;Disklavier MIDI Out
459.034;000.070;60;000.570;Disklavier MIDI Out
459.181;000.066;60;000.594;Disklavier MIDI Out
459.183;000.066;57;000.648;Disklavier MIDI Out
459.310;000.043;60;000.438;Disklavier MIDI Out
459.329;000.046;62;000.578;Disklavier MIDI Out
459.321;000.072;59;000.617;Disklavier MIDI Out
458.884;000.522;72;000.578;Disklavier MIDI Out
458.893;000.521;75;000.656;Disklavier MIDI Out
458.879;000.540;78;000.688;Disklavier MIDI Out
459.627;000.080;78;000.664;Disklavier MIDI Out
459.635;000.092;72;000.609;Disklavier MIDI Out
459.650;000.091;75;000.555;Disklavier MIDI Out
459.470;000.327;60;000.664;Disklavier MIDI Out
459.486;000.311;63;000.703;Disklavier MIDI Out
459.791;000.048;71;000.633;Disklavier MIDI Out
459.783;000.068;78;000.609;Disklavier MIDI Out
459.792;000.077;74;000.648;Disklavier MIDI Out
459.940;000.050;69;000.672;Disklavier MIDI Out
459.941;000.061;72;000.547;Disklavier MIDI Out
459.954;000.050;75;000.516;Disklavier MIDI Out
459.943;000.070;78;000.617;Disklavier MIDI Out
460.192;000.085;71;000.680;Disklavier MIDI Out
460.190;000.093;74;000.703;Disklavier MIDI Out
460.186;000.122;79;000.773;Disklavier MIDI Out
460.461;000.059;77;000.703;Disklavier MIDI Out
460.455;000.079;80;000.812;Disklavier MIDI Out
460.647;000.060;74;000.672;Disklavier MIDI Out
460.649;000.069;77;000.727;Disklavier MIDI Out
460.220;000.516;43;000.508;Disklavier MIDI Out
460.210;000.528;47;000.555;Disklavier MIDI Out
460.198;000.552;55;000.688;Disklavier MIDI Out
460.209;000.543;50;000.547;Disklavier MIDI Out
460.814;000.058;75;000.703;Disklavier MIDI Out
460.813;000.069;79;000.734;Disklavier MIDI Out
461.143;000.057;65;000.531;Disklavier MIDI Out
461.131;000.070;68;000.672;Disklavier MIDI Out
460.980;000.274;80;000.750;Disklavier MIDI Out
460.983;000.273;77;000.727;Disklavier MIDI Out
461.284;000.065;65;000.672;Disklavier MIDI Out
461.295;000.086;62;000.586;Disklavier MIDI Out
461.432;000.051;65;000.312;Disklavier MIDI Out
461.439;000.065;67;000.680;Disklavier MIDI Out
461.435;000.097;63;000.656;Disklavier MIDI Out
461.586;000.057;68;000.812;Disklavier MIDI Out
461.587;000.061;65;000.711;Disklavier MIDI Out
461.724;000.053;65;000.719;Disklavier MIDI Out
461.725;000.082;68;000.695;Disklavier MIDI Out
461.872;000.033;62;000.609;Disklavier MIDI Out
461.869;000.073;65;000.703;Disklavier MIDI Out
462.028;000.040;65;000.414;Disklavier MIDI Out
462.015;000.065;63;000.688;Disklavier MIDI Out
462.016;000.086;67;000.641;Disklavier MIDI Out
462.198;000.046;67;000.250;Disklavier MIDI Out
462.158;000.092;65;000.695;Disklavier MIDI Out
462.165;000.125;68;000.703;Disklavier MIDI Out
462.309;000.054;53;000.570;Disklavier MIDI Out
462.297;000.071;56;000.664;Disklavier MIDI Out
462.447;000.082;53;000.703;Disklavier MIDI Out
462.460;000.096;50;000.617;Disklavier MIDI Out
462.600;000.052;55;000.672;Disklavier MIDI Out
462.599;000.099;51;000.555;Disklavier MIDI Out
462.747;000.056;56;000.703;Disklavier MIDI Out
462.752;000.058;53;000.711;Disklavier MIDI Out
462.880;000.065;53;000.656;Disklavier MIDI Out
462.879;000.109;56;000.648;Disklavier MIDI Out
463.030;000.043;50;000.625;Disklavier MIDI Out
463.021;000.078;53;000.672;Disklavier MIDI Out
463.179;000.065;51;000.648;Disklavier MIDI Out
463.218;000.045;53;000.281;Disklavier MIDI Out
463.182;000.082;55;000.656;Disklavier MIDI Out
463.337;000.061;53;000.664;Disklavier MIDI Out
463.329;000.126;56;000.672;Disklavier MIDI Out
463.460;000.087;44;000.648;Disklavier MIDI Out
463.464;000.095;41;000.570;Disklavier MIDI Out
463.618;000.054;53;000.680;Disklavier MIDI Out
463.611;000.069;43;000.688;Disklavier MIDI Out
463.613;000.073;59;000.688;Disklavier MIDI Out
463.650;000.039;41;000.203;Disklavier MIDI Out
463.612;000.079;55;000.648;Disklavier MIDI Out
463.623;000.195;39;000.617;Disklavier MIDI Out
463.772;000.069;41;000.703;Disklavier MIDI Out
463.783;000.093;38;000.633;Disklavier MIDI Out
463.949;000.107;51;000.703;Disklavier MIDI Out
463.943;000.129;55;000.656;Disklavier MIDI Out
463.935;000.149;60;000.695;Disklavier MIDI Out
464.093;000.090;39;000.672;Disklavier MIDI Out
464.256;000.092;38;000.672;Disklavier MIDI Out
464.411;000.097;36;000.656;Disklavier MIDI Out
464.582;000.144;53;000.703;Disklavier MIDI Out
464.583;000.182;55;000.641;Disklavier MIDI Out
464.568;000.197;62;000.680;Disklavier MIDI Out
464.743;000.072;35;000.711;Disklavier MIDI Out
464.914;000.065;33;000.672;Disklavier MIDI Out
465.076;000.090;31;000.719;Disklavier MIDI Out
465.286;000.222;51;000.648;Disklavier MIDI Out
465.274;000.255;60;000.734;Disklavier MIDI Out
465.285;000.246;55;000.672;Disklavier MIDI Out
465.753;000.203;36;000.703;Disklavier MIDI Out
467.214;000.081;79;000.391;Disklavier MIDI Out
467.229;000.109;48;000.289;Disklavier MIDI Out
467.717;000.169;63;000.297;Disklavier MIDI Out
468.117;000.111;63;000.258;Disklavier MIDI Out
467.948;000.366;60;000.281;Disklavier MIDI Out
468.323;000.110;55;000.266;Disklavier MIDI Out
468.485;000.100;63;000.281;Disklavier MIDI Out
468.817;000.116;63;000.289;Disklavier MIDI Out
468.671;000.263;60;000.234;Disklavier MIDI Out
468.294;000.747;87;000.477;Disklavier MIDI Out
468.997;000.088;55;000.297;Disklavier MIDI Out
469.153;000.089;63;000.328;Disklavier MIDI Out
469.324;000.091;60;000.234;Disklavier MIDI Out
469.494;000.028;63;000.406;Disklavier MIDI Out
469.006;000.756;84;000.484;Disklavier MIDI Out
469.749;000.078;43;000.344;Disklavier MIDI Out
470.024;000.098;62;000.312;Disklavier MIDI Out
470.363;000.107;62;000.305;Disklavier MIDI Out
470.203;000.329;59;000.336;Disklavier MIDI Out
469.742;000.805;83;000.484;Disklavier MIDI Out
470.534;000.151;55;000.344;Disklavier MIDI Out
470.706;000.110;62;000.305;Disklavier MIDI Out
470.890;000.235;59;000.289;Disklavier MIDI Out
471.029;000.135;62;000.352;Disklavier MIDI Out
470.516;000.785;86;000.484;Disklavier MIDI Out
471.214;000.120;55;000.312;Disklavier MIDI Out
471.380;000.082;62;000.305;Disklavier MIDI Out
471.565;000.074;59;000.281;Disklavier MIDI Out
471.707;000.161;62;000.391;Disklavier MIDI Out
471.923;000.106;48;000.375;Disklavier MIDI Out
471.204;000.978;79;000.445;Disklavier MIDI Out
472.146;000.137;64;000.453;Disklavier MIDI Out
472.330;000.190;58;000.391;Disklavier MIDI Out
472.495;000.145;64;000.406;Disklavier MIDI Out
471.919;000.766;82;000.477;Disklavier MIDI Out
472.668;000.143;55;000.391;Disklavier MIDI Out
472.850;000.119;64;000.359;Disklavier MIDI Out
473.033;000.180;58;000.297;Disklavier MIDI Out
473.179;000.149;64;000.391;Disklavier MIDI Out
472.647;000.792;85;000.578;Disklavier MIDI Out
473.357;000.158;55;000.305;Disklavier MIDI Out
473.533;000.126;64;000.367;Disklavier MIDI Out
473.712;000.105;58;000.336;Disklavier MIDI Out
473.869;000.117;64;000.320;Disklavier MIDI Out
473.332;000.793;82;000.523;Disklavier MIDI Out
474.201;000.115;65;000.305;Disklavier MIDI Out
474.054;000.576;53;000.242;Disklavier MIDI Out
474.538;000.119;65;000.266;Disklavier MIDI Out
474.379;000.337;60;000.344;Disklavier MIDI Out
474.020;000.721;81;000.500;Disklavier MIDI Out
474.869;000.133;65;000.336;Disklavier MIDI Out
474.708;000.343;57;000.211;Disklavier MIDI Out
475.213;000.153;65;000.320;Disklavier MIDI Out
475.058;000.365;60;000.312;Disklavier MIDI Out
474.710;000.714;84;000.461;Disklavier MIDI Out
475.574;000.100;65;000.375;Disklavier MIDI Out
475.424;000.256;57;000.211;Disklavier MIDI Out
475.749;000.115;60;000.344;Disklavier MIDI Out
475.889;000.048;65;000.352;Disklavier MIDI Out
475.383;000.729;77;000.508;Disklavier MIDI Out
476.253;000.131;60;000.328;Disklavier MIDI Out
476.596;000.092;60;000.320;Disklavier MIDI Out
476.446;000.322;57;000.312;Disklavier MIDI Out
476.930;000.101;60;000.383;Disklavier MIDI Out
476.774;000.269;54;000.297;Disklavier MIDI Out
476.067;001.044;78;000.516;Disklavier MIDI Out
477.109;000.120;57;000.312;Disklavier MIDI Out
477.229;000.111;60;000.375;Disklavier MIDI Out
476.753;000.716;75;000.484;Disklavier MIDI Out
476.078;001.542;50;000.406;Disklavier MIDI Out
477.597;000.100;60;000.359;Disklavier MIDI Out
477.429;000.372;54;000.273;Disklavier MIDI Out
477.791;000.083;57;000.289;Disklavier MIDI Out
477.935;000.035;60;000.305;Disklavier MIDI Out
477.425;000.806;72;000.516;Disklavier MIDI Out
478.144;000.288;43;000.438;Disklavier MIDI Out
478.482;000.146;56;000.367;Disklavier MIDI Out
478.822;000.140;56;000.375;Disklavier MIDI Out
478.669;000.307;53;000.398;Disklavier MIDI Out
479.005;000.119;50;000.336;Disklavier MIDI Out
478.177;000.955;71;000.555;Disklavier MIDI Out
479.160;000.113;56;000.383;Disklavier MIDI Out
479.320;000.117;53;000.359;Disklavier MIDI Out
479.461;000.130;56;000.375;Disklavier MIDI Out
478.991;000.630;68;000.539;Disklavier MIDI Out
479.640;000.159;50;000.328;Disklavier MIDI Out
479.778;000.112;56;000.406;Disklavier MIDI Out
480.084;000.156;56;000.398;Disklavier MIDI Out
479.632;000.671;65;000.500;Disklavier MIDI Out
479.948;000.368;53;000.344;Disklavier MIDI Out
480.428;000.115;56;000.391;Disklavier MIDI Out
480.276;000.369;47;000.398;Disklavier MIDI Out
480.594;000.125;53;000.391;Disklavier MIDI Out
480.746;000.051;56;000.422;Disklavier MIDI Out
480.289;000.876;62;000.555;Disklavier MIDI Out
481.109;000.127;50;000.438;Disklavier MIDI Out
480.929;000.426;44;000.484;Disklavier MIDI Out
481.279;000.158;47;000.438;Disklavier MIDI Out
481.434;000.186;50;000.477;Disklavier MIDI Out
480.941;000.746;53;000.578;Disklavier MIDI Out
481.632;000.143;43;000.391;Disklavier MIDI Out
481.789;000.143;44;000.469;Disklavier MIDI Out
481.955;000.309;43;000.453;Disklavier MIDI Out
482.129;000.211;41;000.430;Disklavier MIDI Out
481.620;000.740;55;000.562;Disklavier MIDI Out
482.344;000.172;39;000.398;Disklavier MIDI Out
482.521;000.148;38;000.430;Disklavier MIDI Out
482.722;000.154;39;000.352;Disklavier MIDI Out
482.910;000.199;36;000.391;Disklavier MIDI Out
482.324;000.872;48;000.484;Disklavier MIDI Out
483.141;000.205;35;000.336;Disklavier MIDI Out
483.389;000.220;31;000.281;Disklavier MIDI Out
483.629;000.207;33;000.352;Disklavier MIDI Out
483.134;000.791;43;000.406;Disklavier MIDI Out
483.882;000.120;35;000.320;Disklavier MIDI Out
484.427;000.509;48;000.273;Disklavier MIDI Out
484.393;000.579;36;000.320;Disklavier MIDI Out
485.730;000.320;39;000.719;Disklavier MIDI Out
485.734;000.318;84;000.766;Disklavier MIDI Out
486.017;000.194;87;000.766;Disklavier MIDI Out
486.018;000.208;36;000.641;Disklavier MIDI Out
486.170;000.122;84;000.727;Disklavier MIDI Out
486.181;000.124;39;000.688;Disklavier MIDI Out
486.310;000.110;79;000.695;Disklavier MIDI Out
486.313;000.115;43;000.641;Disklavier MIDI Out
486.441;000.131;39;000.617;Disklavier MIDI Out
486.436;000.139;84;000.680;Disklavier MIDI Out
486.549;000.107;43;000.602;Disklavier MIDI Out
486.557;000.112;79;000.664;Disklavier MIDI Out
486.656;000.090;48;000.625;Disklavier MIDI Out
486.660;000.094;75;000.617;Disklavier MIDI Out
486.758;000.111;79;000.680;Disklavier MIDI Out
486.771;000.122;43;000.625;Disklavier MIDI Out
486.855;000.073;75;000.688;Disklavier MIDI Out
486.870;000.114;48;000.680;Disklavier MIDI Out
486.948;000.103;72;000.586;Disklavier MIDI Out
487.002;000.060;50;000.516;Disklavier MIDI Out
487.011;000.053;51;000.414;Disklavier MIDI Out
487.052;000.106;75;000.648;Disklavier MIDI Out
487.080;000.109;48;000.617;Disklavier MIDI Out
487.142;000.074;72;000.648;Disklavier MIDI Out
487.184;000.094;51;000.680;Disklavier MIDI Out
487.243;000.058;67;000.594;Disklavier MIDI Out
487.271;000.081;55;000.594;Disklavier MIDI Out
487.349;000.073;72;000.570;Disklavier MIDI Out
487.344;000.086;71;000.547;Disklavier MIDI Out
487.339;000.144;51;000.469;Disklavier MIDI Out
487.423;000.082;67;000.641;Disklavier MIDI Out
487.444;000.103;55;000.555;Disklavier MIDI Out
487.511;000.075;63;000.609;Disklavier MIDI Out
487.547;000.099;60;000.641;Disklavier MIDI Out
487.601;000.094;67;000.602;Disklavier MIDI Out
487.649;000.079;55;000.633;Disklavier MIDI Out
487.680;000.054;63;000.703;Disklavier MIDI Out
487.811;000.032;59;000.695;Disklavier MIDI Out
487.814;000.040;47;000.680;Disklavier MIDI Out
487.808;000.058;67;000.781;Disklavier MIDI Out
487.915;000.078;62;000.672;Disklavier MIDI Out
488.005;000.091;67;000.664;Disklavier MIDI Out
488.093;000.044;55;000.766;Disklavier MIDI Out
488.096;000.044;43;000.695;Disklavier MIDI Out
488.095;000.064;71;000.648;Disklavier MIDI Out
488.202;000.128;67;000.641;Disklavier MIDI Out
488.302;000.078;71;000.648;Disklavier MIDI Out
488.384;000.042;38;000.680;Disklavier MIDI Out
488.380;000.047;50;000.805;Disklavier MIDI Out
488.383;000.066;74;000.680;Disklavier MIDI Out
488.491;000.081;71;000.664;Disklavier MIDI Out
488.581;000.087;74;000.680;Disklavier MIDI Out
488.662;000.046;47;000.805;Disklavier MIDI Out
488.666;000.046;35;000.711;Disklavier MIDI Out
488.697;000.020;77;000.523;Disklavier MIDI Out
488.676;000.068;79;000.625;Disklavier MIDI Out
488.782;000.089;74;000.656;Disklavier MIDI Out
488.901;000.029;77;000.391;Disklavier MIDI Out
488.871;000.085;79;000.664;Disklavier MIDI Out
489.015;000.058;34;000.250;Disklavier MIDI Out
488.978;000.113;83;000.711;Disklavier MIDI Out
489.086;000.077;79;000.688;Disklavier MIDI Out
489.197;000.109;83;000.695;Disklavier MIDI Out
488.964;000.396;31;000.656;Disklavier MIDI Out
488.959;000.424;43;000.805;Disklavier MIDI Out
489.307;000.130;86;000.727;Disklavier MIDI Out
489.424;000.128;83;000.695;Disklavier MIDI Out
489.540;000.042;86;000.664;Disklavier MIDI Out
489.753;000.151;82;000.570;Disklavier MIDI Out
489.756;000.163;37;000.438;Disklavier MIDI Out
489.922;000.129;85;000.547;Disklavier MIDI Out
489.914;000.140;34;000.477;Disklavier MIDI Out
490.057;000.046;82;000.516;Disklavier MIDI Out
490.049;000.076;37;000.469;Disklavier MIDI Out
490.142;000.048;78;000.539;Disklavier MIDI Out
490.150;000.093;42;000.523;Disklavier MIDI Out
490.231;000.081;82;000.570;Disklavier MIDI Out
490.266;000.078;37;000.500;Disklavier MIDI Out
490.308;000.077;78;000.633;Disklavier MIDI Out
490.361;000.046;42;000.375;Disklavier MIDI Out
490.405;000.094;46;000.586;Disklavier MIDI Out
490.401;000.099;73;000.508;Disklavier MIDI Out
490.503;000.110;78;000.648;Disklavier MIDI Out
490.509;000.142;42;000.570;Disklavier MIDI Out
490.583;000.097;73;000.586;Disklavier MIDI Out
490.602;000.089;46;000.516;Disklavier MIDI Out
490.681;000.095;49;000.609;Disklavier MIDI Out
490.675;000.114;70;000.656;Disklavier MIDI Out
490.780;000.149;73;000.695;Disklavier MIDI Out
490.911;000.026;68;000.508;Disklavier MIDI Out
490.769;000.172;46;000.594;Disklavier MIDI Out
490.910;000.045;72;000.227;Disklavier MIDI Out
490.928;000.040;69;000.531;Disklavier MIDI Out
490.942;000.040;70;000.188;Disklavier MIDI Out
490.879;000.114;49;000.602;Disklavier MIDI Out
491.010;000.030;64;000.477;Disklavier MIDI Out
491.008;000.036;65;000.383;Disklavier MIDI Out
490.980;000.091;54;000.625;Disklavier MIDI Out
490.981;000.127;66;000.492;Disklavier MIDI Out
491.131;000.037;71;000.320;Disklavier MIDI Out
491.069;000.140;48;000.562;Disklavier MIDI Out
491.155;000.105;66;000.539;Disklavier MIDI Out
491.198;000.125;54;000.664;Disklavier MIDI Out
491.254;000.086;61;000.688;Disklavier MIDI Out
491.370;000.043;49;000.203;Disklavier MIDI Out
491.353;000.108;66;000.641;Disklavier MIDI Out
491.072;000.390;70;000.688;Disklavier MIDI Out
491.394;000.077;54;000.539;Disklavier MIDI Out
491.448;000.039;61;000.695;Disklavier MIDI Out
491.298;000.192;58;000.617;Disklavier MIDI Out
491.569;000.026;55;000.547;Disklavier MIDI Out
491.541;000.058;57;000.664;Disklavier MIDI Out
491.544;000.069;45;000.695;Disklavier MIDI Out
491.566;000.077;65;000.688;Disklavier MIDI Out
491.543;000.114;66;000.625;Disklavier MIDI Out
491.658;000.082;60;000.648;Disklavier MIDI Out
491.756;000.106;65;000.680;Disklavier MIDI Out
491.836;000.042;53;000.734;Disklavier MIDI Out
491.835;000.063;41;000.695;Disklavier MIDI Out
491.847;000.062;69;000.711;Disklavier MIDI Out
491.988;000.030;67;000.492;Disklavier MIDI Out
491.961;000.084;65;000.617;Disklavier MIDI Out
492.060;000.081;69;000.680;Disklavier MIDI Out
492.134;000.036;47;000.688;Disklavier MIDI Out
492.142;000.047;35;000.648;Disklavier MIDI Out
492.164;000.035;36;000.492;Disklavier MIDI Out
492.140;000.061;72;000.656;Disklavier MIDI Out
492.246;000.085;69;000.648;Disklavier MIDI Out
492.342;000.080;72;000.648;Disklavier MIDI Out
492.413;000.053;45;000.766;Disklavier MIDI Out
492.420;000.047;33;000.664;Disklavier MIDI Out
492.423;000.073;77;000.688;Disklavier MIDI Out
492.548;000.048;74;000.586;Disklavier MIDI Out
492.540;000.068;72;000.555;Disklavier MIDI Out
492.643;000.047;77;000.539;Disklavier MIDI Out
492.644;000.048;79;000.492;Disklavier MIDI Out
492.739;000.038;40;000.406;Disklavier MIDI Out
492.746;000.044;30;000.414;Disklavier MIDI Out
492.755;000.056;34;000.328;Disklavier MIDI Out
492.732;000.084;83;000.555;Disklavier MIDI Out
492.735;000.086;81;000.562;Disklavier MIDI Out
492.824;000.093;77;000.648;Disklavier MIDI Out
492.920;000.093;81;000.656;Disklavier MIDI Out
492.718;000.296;29;000.648;Disklavier MIDI Out
492.716;000.323;41;000.727;Disklavier MIDI Out
493.031;000.104;84;000.633;Disklavier MIDI Out
493.134;000.110;81;000.609;Disklavier MIDI Out
493.242;000.027;84;000.617;Disklavier MIDI Out
493.391;000.079;51;000.484;Disklavier MIDI Out
493.398;000.092;72;000.508;Disklavier MIDI Out
493.508;000.077;66;000.555;Disklavier MIDI Out
493.497;000.093;56;000.555;Disklavier MIDI Out
493.606;000.049;72;000.391;Disklavier MIDI Out
493.618;000.042;51;000.414;Disklavier MIDI Out
493.670;000.057;48;000.508;Disklavier MIDI Out
493.678;000.070;75;000.578;Disklavier MIDI Out
493.764;000.085;51;000.625;Disklavier MIDI Out
493.777;000.105;72;000.570;Disklavier MIDI Out
493.874;000.072;75;000.594;Disklavier MIDI Out
493.889;000.070;47;000.430;Disklavier MIDI Out
493.879;000.083;48;000.453;Disklavier MIDI Out
493.958;000.068;78;000.617;Disklavier MIDI Out
493.968;000.087;44;000.531;Disklavier MIDI Out
494.058;000.087;75;000.633;Disklavier MIDI Out
494.077;000.092;48;000.586;Disklavier MIDI Out
494.145;000.086;78;000.664;Disklavier MIDI Out
494.169;000.082;44;000.633;Disklavier MIDI Out
494.239;000.046;84;000.625;Disklavier MIDI Out
494.260;000.085;39;000.594;Disklavier MIDI Out
494.337;000.089;78;000.680;Disklavier MIDI Out
494.364;000.081;44;000.633;Disklavier MIDI Out
494.441;000.086;39;000.594;Disklavier MIDI Out
494.433;000.107;84;000.570;Disklavier MIDI Out
494.523;000.110;87;000.641;Disklavier MIDI Out
494.532;000.117;36;000.523;Disklavier MIDI Out
494.628;000.104;84;000.625;Disklavier MIDI Out
494.645;000.090;39;000.609;Disklavier MIDI Out
494.726;000.095;87;000.680;Disklavier MIDI Out
494.729;000.103;36;000.523;Disklavier MIDI Out
494.814;000.122;32;000.617;Disklavier MIDI Out
494.828;000.122;90;000.672;Disklavier MIDI Out
494.922;000.110;36;000.539;Disklavier MIDI Out
494.936;000.099;87;000.664;Disklavier MIDI Out
495.037;000.097;90;000.625;Disklavier MIDI Out
495.028;000.110;32;000.531;Disklavier MIDI Out
495.151;000.077;87;000.625;Disklavier MIDI Out
495.138;000.106;36;000.477;Disklavier MIDI Out
495.251;000.077;39;000.484;Disklavier MIDI Out
495.244;000.128;84;000.609;Disklavier MIDI Out
495.344;000.093;87;000.664;Disklavier MIDI Out
495.337;000.106;36;000.398;Disklavier MIDI Out
495.439;000.127;91;000.680;Disklavier MIDI Out
495.436;000.148;31;000.609;Disklavier MIDI Out
495.540;000.084;87;000.672;Disklavier MIDI Out
495.552;000.075;36;000.562;Disklavier MIDI Out
495.719;000.159;86;000.758;Disklavier MIDI Out
495.728;000.156;36;000.664;Disklavier MIDI Out
495.885;000.123;38;000.586;Disklavier MIDI Out
495.880;000.130;84;000.547;Disklavier MIDI Out
496.009;000.090;36;000.602;Disklavier MIDI Out
495.991;000.116;86;000.531;Disklavier MIDI Out
496.106;000.107;92;000.672;Disklavier MIDI Out
496.104;000.123;29;000.586;Disklavier MIDI Out
496.214;000.086;86;000.695;Disklavier MIDI Out
496.207;000.105;36;000.602;Disklavier MIDI Out
496.304;000.135;92;000.719;Disklavier MIDI Out
496.395;000.090;86;000.711;Disklavier MIDI Out
496.396;000.102;36;000.570;Disklavier MIDI Out
496.310;000.277;29;000.586;Disklavier MIDI Out
496.482;000.131;84;000.633;Disklavier MIDI Out
496.493;000.124;38;000.633;Disklavier MIDI Out
496.587;000.096;86;000.695;Disklavier MIDI Out
496.592;000.106;36;000.586;Disklavier MIDI Out
496.677;000.117;92;000.695;Disklavier MIDI Out
496.698;000.132;29;000.625;Disklavier MIDI Out
496.779;000.098;86;000.695;Disklavier MIDI Out
496.785;000.106;36;000.547;Disklavier MIDI Out
496.882;000.144;92;000.758;Disklavier MIDI Out
496.890;000.176;29;000.562;Disklavier MIDI Out
496.982;000.093;86;000.711;Disklavier MIDI Out
496.987;000.096;36;000.594;Disklavier MIDI Out
497.069;000.117;38;000.594;Disklavier MIDI Out
497.070;000.126;84;000.648;Disklavier MIDI Out
497.171;000.096;36;000.539;Disklavier MIDI Out
497.175;000.102;86;000.703;Disklavier MIDI Out
497.278;000.111;92;000.680;Disklavier MIDI Out
497.262;000.131;29;000.570;Disklavier MIDI Out
497.369;000.099;86;000.664;Disklavier MIDI Out
497.368;000.101;36;000.570;Disklavier MIDI Out
497.464;000.153;92;000.656;Disklavier MIDI Out
497.460;000.161;29;000.508;Disklavier MIDI Out
497.563;000.094;36;000.523;Disklavier MIDI Out
497.574;000.090;86;000.656;Disklavier MIDI Out
497.658;000.103;38;000.586;Disklavier MIDI Out
497.672;000.129;84;000.633;Disklavier MIDI Out
497.760;000.091;36;000.594;Disklavier MIDI Out
497.769;000.094;86;000.648;Disklavier MIDI Out
497.859;000.099;89;000.648;Disklavier MIDI Out
497.854;000.114;32;000.531;Disklavier MIDI Out
497.954;000.092;36;000.586;Disklavier MIDI Out
497.958;000.093;86;000.664;Disklavier MIDI Out
498.055;000.120;89;000.664;Disklavier MIDI Out
498.060;000.121;32;000.555;Disklavier MIDI Out
498.151;000.088;86;000.703;Disklavier MIDI Out
498.159;000.096;35;000.602;Disklavier MIDI Out
498.253;000.113;38;000.586;Disklavier MIDI Out
498.246;000.121;83;000.625;Disklavier MIDI Out
498.346;000.103;86;000.695;Disklavier MIDI Out
498.363;000.103;35;000.602;Disklavier MIDI Out
498.450;000.117;91;000.695;Disklavier MIDI Out
498.459;000.198;31;000.578;Disklavier MIDI Out
498.559;000.102;86;000.688;Disklavier MIDI Out
498.592;000.076;35;000.602;Disklavier MIDI Out
498.652;000.058;91;000.695;Disklavier MIDI Out
498.794;000.077;87;000.703;Disklavier MIDI Out
498.816;000.071;38;000.492;Disklavier MIDI Out
498.811;000.086;36;000.461;Disklavier MIDI Out
498.906;000.119;91;000.680;Disklavier MIDI Out
498.903;000.126;39;000.531;Disklavier MIDI Out
499.001;000.083;87;000.648;Disklavier MIDI Out
499.030;000.094;43;000.516;Disklavier MIDI Out
499.092;000.047;79;000.648;Disklavier MIDI Out
499.126;000.134;39;000.516;Disklavier MIDI Out
499.204;000.092;84;000.609;Disklavier MIDI Out
499.224;000.098;43;000.570;Disklavier MIDI Out
499.315;000.032;75;000.602;Disklavier MIDI Out
499.335;000.104;48;000.539;Disklavier MIDI Out
499.420;000.113;77;000.727;Disklavier MIDI Out
499.457;000.119;43;000.570;Disklavier MIDI Out
499.530;000.079;80;000.656;Disklavier MIDI Out
499.553;000.108;47;000.570;Disklavier MIDI Out
499.617;000.061;74;000.594;Disklavier MIDI Out
499.679;000.077;50;000.562;Disklavier MIDI Out
499.726;000.122;74;000.648;Disklavier MIDI Out
499.829;000.112;77;000.664;Disklavier MIDI Out
499.892;000.081;50;000.531;Disklavier MIDI Out
499.970;000.066;53;000.562;Disklavier MIDI Out
499.942;000.122;71;000.617;Disklavier MIDI Out
499.762;000.343;43;000.539;Disklavier MIDI Out
500.055;000.117;72;000.609;Disklavier MIDI Out
500.085;000.159;48;000.492;Disklavier MIDI Out
500.154;000.097;75;000.602;Disklavier MIDI Out
500.212;000.120;51;000.539;Disklavier MIDI Out
500.297;000.050;67;000.516;Disklavier MIDI Out
500.316;000.097;55;000.531;Disklavier MIDI Out
500.420;000.153;48;000.484;Disklavier MIDI Out
500.414;000.186;63;000.609;Disklavier MIDI Out
500.570;000.140;51;000.359;Disklavier MIDI Out
500.548;000.178;67;000.516;Disklavier MIDI Out
500.720;000.171;55;000.375;Disklavier MIDI Out
500.736;000.190;60;000.461;Disklavier MIDI Out
501.759;000.702;55;000.227;Disklavier MIDI Out
501.778;000.840;51;000.211;Disklavier MIDI Out
501.748;000.877;48;000.188;Disklavier MIDI Out
503.052;000.586;55;000.250;Disklavier MIDI Out
503.052;000.631;53;000.266;Disklavier MIDI Out
503.026;000.701;59;000.367;Disklavier MIDI Out
503.032;000.701;50;000.266;Disklavier MIDI Out
504.283;000.420;55;000.273;Disklavier MIDI Out
504.274;000.655;60;000.344;Disklavier MIDI Out
504.277;000.670;48;000.273;Disklavier MIDI Out
504.303;001.032;51;000.320;Disklavier MIDI Out
505.546;000.473;56;000.336;Disklavier MIDI Out
505.553;000.476;47;000.281;Disklavier MIDI Out
505.534;000.596;61;000.398;Disklavier MIDI Out
505.542;000.598;53;000.289;Disklavier MIDI Out
506.719;000.454;62;000.359;Disklavier MIDI Out
506.756;000.486;53;000.266;Disklavier MIDI Out
506.737;000.524;56;000.328;Disklavier MIDI Out
506.763;000.591;47;000.250;Disklavier MIDI Out
507.810;000.333;53;000.281;Disklavier MIDI Out
507.805;000.358;56;000.320;Disklavier MIDI Out
507.784;000.649;47;000.203;Disklavier MIDI Out
507.757;000.789;62;000.336;Disklavier MIDI Out
508.898;000.517;55;000.297;Disklavier MIDI Out
508.919;000.519;46;000.289;Disklavier MIDI Out
508.908;000.541;48;000.305;Disklavier MIDI Out
508.880;000.587;63;000.367;Disklavier MIDI Out
509.949;000.547;64;000.375;Disklavier MIDI Out
509.979;000.528;55;000.359;Disklavier MIDI Out
509.996;000.601;48;000.250;Disklavier MIDI Out
509.992;000.647;46;000.250;Disklavier MIDI Out
511.052;000.455;55;000.266;Disklavier MIDI Out
511.045;000.468;48;000.266;Disklavier MIDI Out
511.044;000.602;46;000.234;Disklavier MIDI Out
511.018;000.629;64;000.352;Disklavier MIDI Out
512.266;000.817;45;000.211;Disklavier MIDI Out
512.268;000.890;48;000.281;Disklavier MIDI Out
512.215;000.945;60;000.453;Disklavier MIDI Out
512.258;001.510;64;000.375;Disklavier MIDI Out
513.668;000.600;48;000.266;Disklavier MIDI Out
513.654;000.624;45;000.219;Disklavier MIDI Out
513.635;000.656;65;000.289;Disklavier MIDI Out
513.651;000.658;60;000.328;Disklavier MIDI Out
514.773;000.406;60;000.328;Disklavier MIDI Out
514.782;000.419;45;000.305;Disklavier MIDI Out
514.753;000.566;65;000.312;Disklavier MIDI Out
514.774;000.774;48;000.250;Disklavier MIDI Out
515.886;000.546;60;000.328;Disklavier MIDI Out
515.873;000.565;66;000.375;Disklavier MIDI Out
515.881;000.566;44;000.336;Disklavier MIDI Out
515.874;000.658;51;000.312;Disklavier MIDI Out
516.952;000.653;62;000.391;Disklavier MIDI Out
516.966;000.669;44;000.328;Disklavier MIDI Out
516.942;000.757;66;000.383;Disklavier MIDI Out
516.959;000.767;50;000.352;Disklavier MIDI Out
518.019;000.656;48;000.344;Disklavier MIDI Out
518.035;000.733;44;000.297;Disklavier MIDI Out
518.022;001.264;63;000.461;Disklavier MIDI Out
518.013;001.304;66;000.461;Disklavier MIDI Out
519.128;000.678;59;000.438;Disklavier MIDI Out
519.122;000.697;67;000.523;Disklavier MIDI Out
519.136;000.715;50;000.344;Disklavier MIDI Out
519.143;000.762;43;000.273;Disklavier MIDI Out
520.482;000.955;68;000.555;Disklavier MIDI Out
520.509;000.972;50;000.367;Disklavier MIDI Out
520.519;000.967;41;000.312;Disklavier MIDI Out
520.504;000.994;59;000.422;Disklavier MIDI Out
521.936;000.478;50;000.281;Disklavier MIDI Out
521.938;000.516;41;000.266;Disklavier MIDI Out
521.927;000.545;68;000.367;Disklavier MIDI Out
521.946;000.580;59;000.258;Disklavier MIDI Out
523.007;000.418;50;000.250;Disklavier MIDI Out
523.011;000.468;59;000.219;Disklavier MIDI Out
522.995;000.546;68;000.344;Disklavier MIDI Out
523.030;000.535;41;000.203;Disklavier MIDI Out
524.075;000.389;50;000.242;Disklavier MIDI Out
524.076;000.426;59;000.234;Disklavier MIDI Out
524.073;000.453;44;000.234;Disklavier MIDI Out
524.061;000.497;65;000.344;Disklavier MIDI Out
525.119;000.380;67;000.352;Disklavier MIDI Out
525.135;000.582;50;000.188;Disklavier MIDI Out
525.121;000.602;59;000.305;Disklavier MIDI Out
525.122;000.707;43;000.234;Disklavier MIDI Out
526.263;000.502;67;000.328;Disklavier MIDI Out
526.272;000.556;51;000.250;Disklavier MIDI Out
526.276;000.697;48;000.266;Disklavier MIDI Out
526.279;001.260;60;000.297;Disklavier MIDI Out
527.433;000.471;43;000.258;Disklavier MIDI Out
527.411;000.573;67;000.344;Disklavier MIDI Out
527.429;000.630;50;000.266;Disklavier MIDI Out
527.432;001.347;59;000.320;Disklavier MIDI Out
528.687;000.553;60;000.328;Disklavier MIDI Out
528.693;000.698;48;000.227;Disklavier MIDI Out
528.660;000.763;67;000.266;Disklavier MIDI Out
528.681;000.806;36;000.242;Disklavier MIDI Out
530.011;000.284;36;000.195;Disklavier MIDI Out
530.223;000.254;39;000.172;Disklavier MIDI Out
530.477;000.115;48;000.195;Disklavier MIDI Out
530.350;000.258;43;000.227;Disklavier MIDI Out
530.606;000.111;36;000.273;Disklavier MIDI Out
530.696;000.239;39;000.266;Disklavier MIDI Out
530.834;000.123;43;000.180;Disklavier MIDI Out
530.915;000.064;48;000.195;Disklavier MIDI Out
530.983;000.141;36;000.289;Disklavier MIDI Out
531.145;000.120;39;000.297;Disklavier MIDI Out
531.309;000.085;48;000.156;Disklavier MIDI Out
531.390;000.092;36;000.320;Disklavier MIDI Out
531.500;000.102;39;000.297;Disklavier MIDI Out
531.633;000.083;43;000.086;Disklavier MIDI Out
531.057;000.683;60;000.211;Disklavier MIDI Out
531.674;000.083;48;000.125;Disklavier MIDI Out
531.770;000.099;36;000.328;Disklavier MIDI Out
531.027;000.890;72;000.367;Disklavier MIDI Out
531.861;000.127;39;000.312;Disklavier MIDI Out
531.997;000.094;43;000.133;Disklavier MIDI Out
532.070;000.056;48;000.133;Disklavier MIDI Out
532.151;000.092;36;000.281;Disklavier MIDI Out
532.227;000.129;39;000.320;Disklavier MIDI Out
532.324;000.112;63;000.422;Disklavier MIDI Out
532.316;000.160;75;000.469;Disklavier MIDI Out
532.340;000.242;43;000.055;Disklavier MIDI Out
532.381;000.258;48;000.289;Disklavier MIDI Out
532.633;000.186;36;000.297;Disklavier MIDI Out
532.758;000.132;38;000.086;Disklavier MIDI Out
532.820;000.174;41;000.281;Disklavier MIDI Out
532.929;000.188;43;000.273;Disklavier MIDI Out
533.009;000.161;47;000.312;Disklavier MIDI Out
532.618;000.606;62;000.289;Disklavier MIDI Out
533.125;000.147;36;000.320;Disklavier MIDI Out
533.214;000.084;38;000.195;Disklavier MIDI Out
533.239;000.233;41;000.273;Disklavier MIDI Out
533.315;000.206;43;000.320;Disklavier MIDI Out
533.384;000.172;47;000.297;Disklavier MIDI Out
533.509;000.096;36;000.344;Disklavier MIDI Out
533.576;000.133;38;000.141;Disklavier MIDI Out
532.601;001.116;74;000.414;Disklavier MIDI Out
533.626;000.185;41;000.258;Disklavier MIDI Out
533.734;000.163;43;000.250;Disklavier MIDI Out
533.790;000.144;47;000.305;Disklavier MIDI Out
533.913;000.094;36;000.297;Disklavier MIDI Out
533.935;000.162;38;000.266;Disklavier MIDI Out
534.017;000.176;41;000.289;Disklavier MIDI Out
534.154;000.124;47;000.367;Disklavier MIDI Out
534.139;000.156;43;000.250;Disklavier MIDI Out
533.472;000.837;67;000.414;Disklavier MIDI Out
534.315;000.107;36;000.211;Disklavier MIDI Out
534.314;000.123;38;000.344;Disklavier MIDI Out
534.387;000.096;41;000.312;Disklavier MIDI Out
534.496;000.099;47;000.344;Disklavier MIDI Out
534.491;000.194;43;000.266;Disklavier MIDI Out
534.674;000.069;38;000.188;Disklavier MIDI Out
534.641;000.150;67;000.461;Disklavier MIDI Out
534.668;000.137;36;000.305;Disklavier MIDI Out
534.735;000.095;41;000.344;Disklavier MIDI Out
534.733;000.102;69;000.461;Disklavier MIDI Out
534.824;000.053;43;000.336;Disklavier MIDI Out
534.788;000.123;71;000.508;Disklavier MIDI Out
534.856;000.077;72;000.375;Disklavier MIDI Out
534.892;000.106;74;000.555;Disklavier MIDI Out
534.916;000.269;47;000.344;Disklavier MIDI Out
535.130;000.310;36;000.312;Disklavier MIDI Out
535.401;000.109;40;000.266;Disklavier MIDI Out
535.485;000.087;43;000.086;Disklavier MIDI Out
535.111;000.473;76;000.625;Disklavier MIDI Out
535.533;000.153;46;000.406;Disklavier MIDI Out
535.611;000.079;48;000.352;Disklavier MIDI Out
535.725;000.123;36;000.414;Disklavier MIDI Out
535.777;000.110;40;000.266;Disklavier MIDI Out
535.869;000.228;43;000.359;Disklavier MIDI Out
535.902;000.219;46;000.430;Disklavier MIDI Out
536.011;000.133;48;000.336;Disklavier MIDI Out
536.134;000.176;36;000.398;Disklavier MIDI Out
536.182;000.183;40;000.234;Disklavier MIDI Out
536.365;000.179;46;000.352;Disklavier MIDI Out
536.310;000.254;43;000.297;Disklavier MIDI Out
536.472;000.092;48;000.359;Disklavier MIDI Out
536.585;000.083;36;000.359;Disklavier MIDI Out
536.598;000.196;40;000.227;Disklavier MIDI Out
536.716;000.174;43;000.070;Disklavier MIDI Out
536.753;000.178;46;000.398;Disklavier MIDI Out
536.839;000.112;48;000.383;Disklavier MIDI Out
536.166;000.856;64;000.422;Disklavier MIDI Out
536.952;000.115;36;000.367;Disklavier MIDI Out
536.967;000.160;40;000.383;Disklavier MIDI Out
536.139;001.038;76;000.570;Disklavier MIDI Out
537.071;000.205;43;000.367;Disklavier MIDI Out
537.216;000.102;48;000.422;Disklavier MIDI Out
537.119;000.208;46;000.445;Disklavier MIDI Out
537.320;000.155;36;000.422;Disklavier MIDI Out
537.348;000.198;40;000.398;Disklavier MIDI Out
537.415;000.204;43;000.359;Disklavier MIDI Out
537.501;000.139;79;000.602;Disklavier MIDI Out
537.509;000.143;67;000.594;Disklavier MIDI Out
537.493;000.179;46;000.445;Disklavier MIDI Out
537.587;000.342;48;000.406;Disklavier MIDI Out
537.817;000.270;36;000.422;Disklavier MIDI Out
537.995;000.175;41;000.375;Disklavier MIDI Out
537.810;000.473;65;000.547;Disklavier MIDI Out
538.209;000.083;48;000.344;Disklavier MIDI Out
537.817;000.477;77;000.531;Disklavier MIDI Out
538.111;000.234;45;000.367;Disklavier MIDI Out
538.314;000.158;36;000.422;Disklavier MIDI Out
538.407;000.198;41;000.391;Disklavier MIDI Out
538.513;000.139;45;000.422;Disklavier MIDI Out
538.583;000.106;48;000.398;Disklavier MIDI Out
538.679;000.230;36;000.445;Disklavier MIDI Out
538.803;000.171;41;000.398;Disklavier MIDI Out
538.971;000.096;48;000.352;Disklavier MIDI Out
538.890;000.203;45;000.305;Disklavier MIDI Out
539.081;000.146;36;000.414;Disklavier MIDI Out
538.680;000.594;65;000.609;Disklavier MIDI Out
539.176;000.126;41;000.391;Disklavier MIDI Out
539.260;000.122;45;000.461;Disklavier MIDI Out
539.329;000.079;48;000.352;Disklavier MIDI Out
539.439;000.115;36;000.453;Disklavier MIDI Out
539.528;000.128;41;000.406;Disklavier MIDI Out
539.583;000.162;45;000.398;Disklavier MIDI Out
539.670;000.077;48;000.328;Disklavier MIDI Out
539.785;000.144;36;000.445;Disklavier MIDI Out
539.791;000.140;72;000.516;Disklavier MIDI Out
539.880;000.117;74;000.547;Disklavier MIDI Out
539.927;000.088;76;000.578;Disklavier MIDI Out
540.005;000.087;77;000.656;Disklavier MIDI Out
539.862;000.250;41;000.398;Disklavier MIDI Out
539.958;000.197;45;000.430;Disklavier MIDI Out
540.003;000.180;48;000.438;Disklavier MIDI Out
540.177;000.307;36;000.414;Disklavier MIDI Out
540.380;000.128;39;000.336;Disklavier MIDI Out
540.153;000.385;78;000.656;Disklavier MIDI Out
540.439;000.152;42;000.430;Disklavier MIDI Out
540.503;000.173;45;000.430;Disklavier MIDI Out
540.583;000.111;48;000.391;Disklavier MIDI Out
540.673;000.181;36;000.484;Disklavier MIDI Out
540.736;000.161;39;000.328;Disklavier MIDI Out
540.794;000.191;42;000.406;Disklavier MIDI Out
540.868;000.202;45;000.430;Disklavier MIDI Out
540.933;000.143;48;000.438;Disklavier MIDI Out
541.056;000.056;78;000.359;Disklavier MIDI Out
541.049;000.208;36;000.516;Disklavier MIDI Out
541.202;000.102;39;000.336;Disklavier MIDI Out
541.231;000.141;42;000.367;Disklavier MIDI Out
541.305;000.153;45;000.438;Disklavier MIDI Out
541.368;000.110;48;000.391;Disklavier MIDI Out
541.457;000.164;36;000.484;Disklavier MIDI Out
541.004;000.630;66;000.648;Disklavier MIDI Out
541.511;000.157;39;000.375;Disklavier MIDI Out
541.587;000.141;42;000.414;Disklavier MIDI Out
541.660;000.133;45;000.430;Disklavier MIDI Out
541.714;000.098;48;000.367;Disklavier MIDI Out
541.806;000.176;36;000.523;Disklavier MIDI Out
541.862;000.142;39;000.414;Disklavier MIDI Out
541.910;000.131;42;000.484;Disklavier MIDI Out
541.981;000.122;45;000.469;Disklavier MIDI Out
542.030;000.110;48;000.453;Disklavier MIDI Out
542.148;000.130;72;000.594;Disklavier MIDI Out
542.172;000.127;39;000.492;Disklavier MIDI Out
542.218;000.102;42;000.477;Disklavier MIDI Out
542.145;000.183;36;000.500;Disklavier MIDI Out
542.228;000.139;74;000.617;Disklavier MIDI Out
542.278;000.114;45;000.492;Disklavier MIDI Out
542.294;000.144;75;000.602;Disklavier MIDI Out
542.372;000.164;78;000.641;Disklavier MIDI Out
542.323;000.242;48;000.492;Disklavier MIDI Out
542.692;000.189;40;000.445;Disklavier MIDI Out
542.542;000.371;67;000.617;Disklavier MIDI Out
542.549;000.365;36;000.445;Disklavier MIDI Out
542.533;000.425;79;000.703;Disklavier MIDI Out
542.769;000.204;43;000.430;Disklavier MIDI Out
542.848;000.169;46;000.578;Disklavier MIDI Out
542.930;000.105;48;000.477;Disklavier MIDI Out
543.020;000.218;36;000.461;Disklavier MIDI Out
543.054;000.194;40;000.531;Disklavier MIDI Out
543.143;000.146;43;000.609;Disklavier MIDI Out
543.201;000.162;46;000.562;Disklavier MIDI Out
543.298;000.477;48;000.578;Disklavier MIDI Out
543.524;000.385;36;000.508;Disklavier MIDI Out
543.798;000.180;41;000.406;Disklavier MIDI Out
543.938;000.143;44;000.320;Disklavier MIDI Out
544.012;000.140;48;000.344;Disklavier MIDI Out
544.132;000.164;36;000.406;Disklavier MIDI Out
544.249;000.092;41;000.344;Disklavier MIDI Out
544.334;000.107;44;000.336;Disklavier MIDI Out
544.439;000.086;48;000.328;Disklavier MIDI Out
544.529;000.108;36;000.391;Disklavier MIDI Out
544.655;000.095;41;000.359;Disklavier MIDI Out
544.754;000.094;44;000.312;Disklavier MIDI Out
544.861;000.049;48;000.266;Disklavier MIDI Out
544.943;000.096;36;000.391;Disklavier MIDI Out
545.052;000.106;41;000.242;Disklavier MIDI Out
545.221;000.059;44;000.023;Disklavier MIDI Out
545.167;000.132;48;000.336;Disklavier MIDI Out
545.330;000.200;36;000.328;Disklavier MIDI Out
545.401;000.154;38;000.289;Disklavier MIDI Out
543.520;002.049;68;000.656;Disklavier MIDI Out
543.511;002.089;80;000.719;Disklavier MIDI Out
545.476;000.172;41;000.336;Disklavier MIDI Out
545.564;000.143;44;000.359;Disklavier MIDI Out
545.648;000.149;47;000.344;Disklavier MIDI Out
545.780;000.107;36;000.352;Disklavier MIDI Out
545.791;000.154;38;000.344;Disklavier MIDI Out
545.946;000.059;80;000.516;Disklavier MIDI Out
545.868;000.149;41;000.398;Disklavier MIDI Out
545.966;000.055;68;000.398;Disklavier MIDI Out
545.953;000.157;44;000.266;Disklavier MIDI Out
546.008;000.189;47;000.383;Disklavier MIDI Out
546.220;000.185;36;000.352;Disklavier MIDI Out
546.302;000.138;38;000.227;Disklavier MIDI Out
546.213;000.261;65;000.422;Disklavier MIDI Out
546.215;000.284;77;000.477;Disklavier MIDI Out
546.382;000.217;41;000.281;Disklavier MIDI Out
546.438;000.212;43;000.352;Disklavier MIDI Out
546.542;000.122;47;000.312;Disklavier MIDI Out
546.663;000.126;36;000.320;Disklavier MIDI Out
546.694;000.188;38;000.281;Disklavier MIDI Out
546.794;000.192;41;000.398;Disklavier MIDI Out
546.868;000.197;43;000.344;Disklavier MIDI Out
546.957;000.137;47;000.305;Disklavier MIDI Out
547.092;000.187;36;000.320;Disklavier MIDI Out
547.176;000.120;38;000.172;Disklavier MIDI Out
547.055;000.317;79;000.492;Disklavier MIDI Out
547.253;000.168;41;000.328;Disklavier MIDI Out
547.074;000.367;67;000.406;Disklavier MIDI Out
547.361;000.203;43;000.219;Disklavier MIDI Out
547.441;000.164;47;000.273;Disklavier MIDI Out
547.639;000.087;38;000.203;Disklavier MIDI Out
547.568;000.162;36;000.305;Disklavier MIDI Out
547.679;000.130;41;000.320;Disklavier MIDI Out
547.795;000.108;43;000.250;Disklavier MIDI Out
547.904;000.174;47;000.289;Disklavier MIDI Out
548.099;000.254;72;000.336;Disklavier MIDI Out
548.063;000.333;36;000.297;Disklavier MIDI Out
548.285;000.132;71;000.383;Disklavier MIDI Out
548.226;000.230;39;000.289;Disklavier MIDI Out
548.422;000.110;69;000.398;Disklavier MIDI Out
548.467;000.097;48;000.297;Disklavier MIDI Out
548.405;000.175;43;000.102;Disklavier MIDI Out
548.547;000.066;67;000.375;Disklavier MIDI Out
548.655;000.053;65;000.367;Disklavier MIDI Out
548.588;000.130;36;000.328;Disklavier MIDI Out
548.722;000.081;39;000.297;Disklavier MIDI Out
548.769;000.093;63;000.422;Disklavier MIDI Out
548.884;000.052;62;000.391;Disklavier MIDI Out
548.826;000.136;43;000.133;Disklavier MIDI Out
548.871;000.111;48;000.328;Disklavier MIDI Out
548.988;000.080;60;000.406;Disklavier MIDI Out
548.991;000.097;36;000.352;Disklavier MIDI Out
549.092;000.090;62;000.438;Disklavier MIDI Out
549.110;000.094;39;000.305;Disklavier MIDI Out
549.197;000.051;63;000.453;Disklavier MIDI Out
549.218;000.091;43;000.234;Disklavier MIDI Out
549.274;000.067;48;000.328;Disklavier MIDI Out
549.316;000.090;65;000.461;Disklavier MIDI Out
549.381;000.094;36;000.391;Disklavier MIDI Out
549.421;000.089;67;000.469;Disklavier MIDI Out
549.507;000.077;39;000.320;Disklavier MIDI Out
549.519;000.104;69;000.438;Disklavier MIDI Out
549.605;000.051;71;000.469;Disklavier MIDI Out
549.579;000.082;43;000.258;Disklavier MIDI Out
549.621;000.094;48;000.414;Disklavier MIDI Out
549.703;000.119;72;000.516;Disklavier MIDI Out
549.732;000.121;36;000.430;Disklavier MIDI Out
549.818;000.082;74;000.531;Disklavier MIDI Out
549.854;000.108;39;000.352;Disklavier MIDI Out
549.916;000.052;75;000.492;Disklavier MIDI Out
549.910;000.123;43;000.344;Disklavier MIDI Out
549.999;000.064;48;000.352;Disklavier MIDI Out
550.029;000.102;77;000.508;Disklavier MIDI Out
550.087;000.087;36;000.406;Disklavier MIDI Out
550.135;000.091;79;000.500;Disklavier MIDI Out
550.178;000.121;39;000.383;Disklavier MIDI Out
550.277;000.105;43;000.312;Disklavier MIDI Out
550.222;000.169;81;000.508;Disklavier MIDI Out
550.324;000.078;48;000.414;Disklavier MIDI Out
550.323;000.089;83;000.492;Disklavier MIDI Out
550.431;000.102;36;000.422;Disklavier MIDI Out
550.419;000.174;84;000.516;Disklavier MIDI Out
550.532;000.123;39;000.383;Disklavier MIDI Out
550.536;000.149;83;000.492;Disklavier MIDI Out
550.631;000.106;43;000.344;Disklavier MIDI Out
550.627;000.117;81;000.555;Disklavier MIDI Out
550.696;000.080;48;000.359;Disklavier MIDI Out
550.725;000.073;79;000.508;Disklavier MIDI Out
550.814;000.061;77;000.477;Disklavier MIDI Out
550.793;000.098;36;000.430;Disklavier MIDI Out
550.893;000.087;39;000.352;Disklavier MIDI Out
550.917;000.103;75;000.492;Disklavier MIDI Out
550.957;000.112;43;000.383;Disklavier MIDI Out
551.011;000.059;74;000.523;Disklavier MIDI Out
551.013;000.069;48;000.375;Disklavier MIDI Out
551.110;000.099;36;000.445;Disklavier MIDI Out
551.111;000.102;72;000.461;Disklavier MIDI Out
551.209;000.092;74;000.555;Disklavier MIDI Out
551.221;000.105;39;000.414;Disklavier MIDI Out
551.307;000.074;75;000.523;Disklavier MIDI Out
551.302;000.092;43;000.344;Disklavier MIDI Out
551.371;000.068;48;000.383;Disklavier MIDI Out
551.434;000.097;77;000.469;Disklavier MIDI Out
551.469;000.084;36;000.430;Disklavier MIDI Out
551.527;000.127;79;000.555;Disklavier MIDI Out
551.554;000.120;39;000.391;Disklavier MIDI Out
551.649;000.080;43;000.352;Disklavier MIDI Out
551.629;000.136;81;000.547;Disklavier MIDI Out
551.694;000.082;48;000.430;Disklavier MIDI Out
551.717;000.069;83;000.500;Disklavier MIDI Out
551.788;000.118;36;000.469;Disklavier MIDI Out
551.795;000.128;84;000.547;Disklavier MIDI Out
551.882;000.115;39;000.445;Disklavier MIDI Out
551.886;000.124;83;000.555;Disklavier MIDI Out
551.981;000.057;43;000.359;Disklavier MIDI Out
551.964;000.098;81;000.602;Disklavier MIDI Out
552.010;000.089;48;000.406;Disklavier MIDI Out
552.045;000.061;79;000.586;Disklavier MIDI Out
552.119;000.044;77;000.539;Disklavier MIDI Out
552.105;000.110;36;000.445;Disklavier MIDI Out
552.178;000.142;39;000.438;Disklavier MIDI Out
552.207;000.117;75;000.562;Disklavier MIDI Out
552.304;000.044;74;000.484;Disklavier MIDI Out
552.256;000.182;43;000.398;Disklavier MIDI Out
552.390;000.133;72;000.523;Disklavier MIDI Out
552.328;000.215;48;000.414;Disklavier MIDI Out
552.467;000.295;36;000.367;Disklavier MIDI Out
552.542;000.220;86;000.547;Disklavier MIDI Out
552.676;000.144;38;000.250;Disklavier MIDI Out
552.701;000.201;84;000.531;Disklavier MIDI Out
552.808;000.131;83;000.531;Disklavier MIDI Out
552.730;000.213;41;000.398;Disklavier MIDI Out
552.908;000.085;80;000.594;Disklavier MIDI Out
552.846;000.148;43;000.359;Disklavier MIDI Out
552.917;000.099;47;000.391;Disklavier MIDI Out
553.013;000.072;79;000.508;Disklavier MIDI Out
553.011;000.133;36;000.445;Disklavier MIDI Out
553.049;000.111;38;000.383;Disklavier MIDI Out
553.095;000.095;77;000.586;Disklavier MIDI Out
553.116;000.146;41;000.461;Disklavier MIDI Out
553.192;000.074;75;000.531;Disklavier MIDI Out
553.186;000.143;43;000.422;Disklavier MIDI Out
553.241;000.106;47;000.453;Disklavier MIDI Out
553.285;000.114;74;000.547;Disklavier MIDI Out
553.390;000.096;75;000.531;Disklavier MIDI Out
553.335;000.173;36;000.477;Disklavier MIDI Out
553.403;000.134;38;000.328;Disklavier MIDI Out
553.486;000.065;77;000.586;Disklavier MIDI Out
553.458;000.143;41;000.422;Disklavier MIDI Out
553.528;000.138;43;000.414;Disklavier MIDI Out
553.606;000.109;79;000.586;Disklavier MIDI Out
553.613;000.103;47;000.422;Disklavier MIDI Out
553.696;000.116;81;000.562;Disklavier MIDI Out
553.703;000.142;36;000.492;Disklavier MIDI Out
553.749;000.140;38;000.367;Disklavier MIDI Out
553.789;000.147;83;000.594;Disklavier MIDI Out
553.799;000.151;41;000.469;Disklavier MIDI Out
553.875;000.095;84;000.539;Disklavier MIDI Out
553.871;000.160;43;000.422;Disklavier MIDI Out
553.944;000.096;47;000.461;Disklavier MIDI Out
553.960;000.142;86;000.625;Disklavier MIDI Out
554.037;000.148;36;000.484;Disklavier MIDI Out
554.055;000.137;84;000.539;Disklavier MIDI Out
554.101;000.127;38;000.344;Disklavier MIDI Out
554.133;000.128;83;000.625;Disklavier MIDI Out
554.143;000.145;41;000.484;Disklavier MIDI Out
554.226;000.077;80;000.594;Disklavier MIDI Out
554.212;000.127;43;000.469;Disklavier MIDI Out
554.292;000.092;47;000.477;Disklavier MIDI Out
554.302;000.104;79;000.562;Disklavier MIDI Out
554.378;000.099;77;000.625;Disklavier MIDI Out
554.409;000.072;38;000.453;Disklavier MIDI Out
554.373;000.119;36;000.516;Disklavier MIDI Out
554.484;000.034;75;000.570;Disklavier MIDI Out
554.458;000.089;41;000.500;Disklavier MIDI Out
554.501;000.102;43;000.500;Disklavier MIDI Out
554.541;000.120;74;000.602;Disklavier MIDI Out
554.560;000.204;47;000.500;Disklavier MIDI Out
554.694;000.242;88;000.562;Disklavier MIDI Out
554.700;000.249;36;000.453;Disklavier MIDI Out
554.857;000.144;40;000.453;Disklavier MIDI Out
554.857;000.174;86;000.547;Disklavier MIDI Out
554.927;000.133;43;000.312;Disklavier MIDI Out
554.967;000.119;84;000.555;Disklavier MIDI Out
555.055;000.085;82;000.555;Disklavier MIDI Out
555.009;000.147;46;000.484;Disklavier MIDI Out
555.067;000.133;48;000.484;Disklavier MIDI Out
555.151;000.080;81;000.523;Disklavier MIDI Out
555.174;000.152;36;000.500;Disklavier MIDI Out
555.199;000.133;40;000.430;Disklavier MIDI Out
555.231;000.132;79;000.586;Disklavier MIDI Out
555.251;000.137;43;000.469;Disklavier MIDI Out
555.329;000.073;77;000.625;Disklavier MIDI Out
555.327;000.151;46;000.547;Disklavier MIDI Out
555.381;000.112;48;000.453;Disklavier MIDI Out
555.430;000.114;76;000.562;Disklavier MIDI Out
555.549;000.060;38;000.141;Disklavier MIDI Out
555.531;000.093;77;000.602;Disklavier MIDI Out
555.493;000.170;36;000.469;Disklavier MIDI Out
555.632;000.051;79;000.602;Disklavier MIDI Out
555.530;000.155;40;000.430;Disklavier MIDI Out
555.586;000.142;43;000.453;Disklavier MIDI Out
555.652;000.178;46;000.484;Disklavier MIDI Out
555.723;000.132;48;000.531;Disklavier MIDI Out
555.724;000.134;81;000.617;Disklavier MIDI Out
555.822;000.113;82;000.594;Disklavier MIDI Out
555.876;000.128;40;000.445;Disklavier MIDI Out
555.835;000.173;36;000.422;Disklavier MIDI Out
555.901;000.166;84;000.617;Disklavier MIDI Out
556.001;000.094;86;000.539;Disklavier MIDI Out
555.914;000.193;43;000.484;Disklavier MIDI Out
555.999;000.140;46;000.516;Disklavier MIDI Out
556.040;000.127;48;000.500;Disklavier MIDI Out
556.081;000.149;88;000.680;Disklavier MIDI Out
556.151;000.171;36;000.547;Disklavier MIDI Out
556.182;000.154;86;000.633;Disklavier MIDI Out
556.188;000.156;40;000.477;Disklavier MIDI Out
556.244;000.123;84;000.625;Disklavier MIDI Out
556.243;000.154;43;000.516;Disklavier MIDI Out
556.343;000.062;82;000.641;Disklavier MIDI Out
556.312;000.127;46;000.578;Disklavier MIDI Out
556.398;000.066;81;000.609;Disklavier MIDI Out
556.367;000.114;48;000.523;Disklavier MIDI Out
556.476;000.109;79;000.703;Disklavier MIDI Out
556.456;000.147;36;000.547;Disklavier MIDI Out
556.490;000.123;40;000.484;Disklavier MIDI Out
556.576;000.040;77;000.617;Disklavier MIDI Out
556.520;000.151;43;000.500;Disklavier MIDI Out
556.636;000.074;76;000.648;Disklavier MIDI Out
556.585;000.134;46;000.586;Disklavier MIDI Out
556.642;000.156;48;000.562;Disklavier MIDI Out
556.760;000.199;89;000.719;Disklavier MIDI Out
556.776;000.259;36;000.500;Disklavier MIDI Out
556.936;000.148;88;000.594;Disklavier MIDI Out
556.923;000.186;41;000.461;Disklavier MIDI Out
557.030;000.093;86;000.664;Disklavier MIDI Out
557.008;000.159;45;000.555;Disklavier MIDI Out
557.089;000.108;48;000.477;Disklavier MIDI Out
557.129;000.107;84;000.617;Disklavier MIDI Out
557.173;000.158;36;000.617;Disklavier MIDI Out
557.230;000.163;82;000.648;Disklavier MIDI Out
557.261;000.182;41;000.578;Disklavier MIDI Out
557.324;000.123;81;000.609;Disklavier MIDI Out
557.334;000.144;45;000.594;Disklavier MIDI Out
557.408;000.081;79;000.688;Disklavier MIDI Out
557.394;000.121;48;000.508;Disklavier MIDI Out
557.499;000.118;77;000.664;Disklavier MIDI Out
557.498;000.169;36;000.594;Disklavier MIDI Out
557.597;000.167;79;000.695;Disklavier MIDI Out
557.595;000.177;41;000.586;Disklavier MIDI Out
557.655;000.139;45;000.531;Disklavier MIDI Out
557.688;000.121;81;000.656;Disklavier MIDI Out
557.726;000.110;48;000.523;Disklavier MIDI Out
557.768;000.069;82;000.633;Disklavier MIDI Out
557.814;000.162;36;000.625;Disklavier MIDI Out
557.858;000.118;84;000.648;Disklavier MIDI Out
557.952;000.123;86;000.672;Disklavier MIDI Out
557.917;000.168;41;000.625;Disklavier MIDI Out
557.974;000.143;45;000.508;Disklavier MIDI Out
558.048;000.094;88;000.680;Disklavier MIDI Out
558.044;000.110;48;000.547;Disklavier MIDI Out
558.136;000.111;89;000.680;Disklavier MIDI Out
558.135;000.177;36;000.602;Disklavier MIDI Out
558.230;000.116;88;000.680;Disklavier MIDI Out
558.228;000.155;41;000.602;Disklavier MIDI Out
558.306;000.079;86;000.703;Disklavier MIDI Out
558.291;000.128;45;000.547;Disklavier MIDI Out
558.360;000.099;48;000.586;Disklavier MIDI Out
558.384;000.096;84;000.656;Disklavier MIDI Out
558.444;000.180;36;000.633;Disklavier MIDI Out
558.469;000.156;82;000.688;Disklavier MIDI Out
558.548;000.109;81;000.617;Disklavier MIDI Out
558.621;000.064;79;000.648;Disklavier MIDI Out
558.691;000.087;77;000.695;Disklavier MIDI Out
558.585;000.205;45;000.555;Disklavier MIDI Out
558.533;000.266;41;000.617;Disklavier MIDI Out
558.660;000.142;48;000.570;Disklavier MIDI Out
558.814;000.211;90;000.695;Disklavier MIDI Out
558.780;000.296;36;000.617;Disklavier MIDI Out
558.955;000.157;39;000.469;Disklavier MIDI Out
558.978;000.136;87;000.664;Disklavier MIDI Out
559.058;000.084;86;000.711;Disklavier MIDI Out
559.011;000.172;42;000.578;Disklavier MIDI Out
559.150;000.045;84;000.594;Disklavier MIDI Out
559.095;000.142;45;000.539;Disklavier MIDI Out
559.149;000.097;48;000.539;Disklavier MIDI Out
559.237;000.131;82;000.688;Disklavier MIDI Out
559.326;000.072;81;000.633;Disklavier MIDI Out
559.232;000.179;36;000.602;Disklavier MIDI Out
559.311;000.118;39;000.469;Disklavier MIDI Out
559.345;000.151;42;000.594;Disklavier MIDI Out
559.403;000.107;79;000.695;Disklavier MIDI Out
559.445;000.084;48;000.594;Disklavier MIDI Out
559.397;000.159;45;000.547;Disklavier MIDI Out
559.504;000.077;78;000.719;Disklavier MIDI Out
559.610;000.098;79;000.656;Disklavier MIDI Out
559.628;000.106;39;000.375;Disklavier MIDI Out
559.537;000.203;36;000.609;Disklavier MIDI Out
559.694;000.095;81;000.695;Disklavier MIDI Out
559.658;000.144;42;000.641;Disklavier MIDI Out
559.781;000.070;48;000.586;Disklavier MIDI Out
559.788;000.066;82;000.688;Disklavier MIDI Out
559.729;000.130;45;000.539;Disklavier MIDI Out
559.890;000.091;84;000.680;Disklavier MIDI Out
559.855;000.202;36;000.656;Disklavier MIDI Out
559.922;000.142;39;000.367;Disklavier MIDI Out
559.971;000.119;86;000.672;Disklavier MIDI Out
559.970;000.180;42;000.641;Disklavier MIDI Out
560.067;000.109;87;000.734;Disklavier MIDI Out
560.094;000.083;48;000.562;Disklavier MIDI Out
560.037;000.146;45;000.469;Disklavier MIDI Out
560.159;000.167;90;000.680;Disklavier MIDI Out
560.270;000.109;87;000.688;Disklavier MIDI Out
560.181;000.201;36;000.641;Disklavier MIDI Out
560.258;000.140;39;000.438;Disklavier MIDI Out
560.340;000.078;86;000.711;Disklavier MIDI Out
560.304;000.136;42;000.633;Disklavier MIDI Out
560.411;000.058;84;000.602;Disklavier MIDI Out
560.359;000.124;45;000.570;Disklavier MIDI Out
560.420;000.103;48;000.586;Disklavier MIDI Out
560.498;000.116;82;000.688;Disklavier MIDI Out
560.562;000.056;38;000.258;Disklavier MIDI Out
560.590;000.065;81;000.609;Disklavier MIDI Out
560.507;000.166;36;000.609;Disklavier MIDI Out
560.538;000.152;39;000.523;Disklavier MIDI Out
560.663;000.097;79;000.594;Disklavier MIDI Out
560.753;000.032;78;000.594;Disklavier MIDI Out
560.697;000.100;48;000.570;Disklavier MIDI Out
560.579;000.222;42;000.562;Disklavier MIDI Out
560.624;000.199;45;000.617;Disklavier MIDI Out
560.870;000.157;91;000.742;Disklavier MIDI Out
560.951;000.160;40;000.531;Disklavier MIDI Out
560.961;000.159;89;000.672;Disklavier MIDI Out
560.836;000.299;36;000.594;Disklavier MIDI Out
561.026;000.134;88;000.664;Disklavier MIDI Out
561.094;000.083;86;000.703;Disklavier MIDI Out
560.987;000.204;43;000.492;Disklavier MIDI Out
561.087;000.138;46;000.617;Disklavier MIDI Out
561.173;000.070;84;000.672;Disklavier MIDI Out
561.142;000.127;48;000.555;Disklavier MIDI Out
561.271;000.107;82;000.680;Disklavier MIDI Out
561.218;000.188;36;000.477;Disklavier MIDI Out
561.265;000.146;40;000.547;Disklavier MIDI Out
561.350;000.077;80;000.672;Disklavier MIDI Out
561.303;000.151;43;000.531;Disklavier MIDI Out
561.375;000.107;46;000.594;Disklavier MIDI Out
561.432;000.096;48;000.578;Disklavier MIDI Out
561.433;000.103;79;000.664;Disklavier MIDI Out
561.530;000.092;80;000.727;Disklavier MIDI Out
561.605;000.070;82;000.664;Disklavier MIDI Out
561.522;000.182;36;000.617;Disklavier MIDI Out
561.612;000.142;41;000.594;Disklavier MIDI Out
561.701;000.097;84;000.680;Disklavier MIDI Out
561.689;000.141;44;000.609;Disklavier MIDI Out
561.749;000.099;48;000.570;Disklavier MIDI Out
561.788;000.070;86;000.727;Disklavier MIDI Out
561.853;000.061;88;000.688;Disklavier MIDI Out
561.836;000.171;36;000.648;Disklavier MIDI Out
561.946;000.137;89;000.711;Disklavier MIDI Out
561.915;000.204;41;000.633;Disklavier MIDI Out
561.994;000.166;44;000.578;Disklavier MIDI Out
562.051;000.115;48;000.586;Disklavier MIDI Out
562.042;000.139;91;000.734;Disklavier MIDI Out
562.220;000.048;93;000.188;Disklavier MIDI Out
562.149;000.180;92;000.797;Disklavier MIDI Out
562.144;000.209;36;000.648;Disklavier MIDI Out
562.278;000.097;91;000.727;Disklavier MIDI Out
562.260;000.147;41;000.688;Disklavier MIDI Out
562.376;000.060;89;000.609;Disklavier MIDI Out
562.330;000.124;44;000.562;Disklavier MIDI Out
562.396;000.101;48;000.641;Disklavier MIDI Out
562.453;000.130;88;000.547;Disklavier MIDI Out
562.542;000.077;86;000.703;Disklavier MIDI Out
562.464;000.175;36;000.641;Disklavier MIDI Out
562.626;000.046;84;000.609;Disklavier MIDI Out
562.706;000.086;82;000.656;Disklavier MIDI Out
562.606;000.264;44;000.578;Disklavier MIDI Out
562.658;000.222;48;000.586;Disklavier MIDI Out
562.769;000.120;80;000.688;Disklavier MIDI Out
562.532;000.367;41;000.539;Disklavier MIDI Out
562.874;000.205;83;000.781;Disklavier MIDI Out
562.856;000.302;36;000.664;Disklavier MIDI Out
563.032;000.149;80;000.641;Disklavier MIDI Out
563.043;000.166;38;000.461;Disklavier MIDI Out
563.129;000.085;79;000.672;Disklavier MIDI Out
563.057;000.217;41;000.414;Disklavier MIDI Out
563.207;000.085;77;000.656;Disklavier MIDI Out
563.161;000.155;44;000.570;Disklavier MIDI Out
563.215;000.127;47;000.578;Disklavier MIDI Out
563.316;000.179;36;000.617;Disklavier MIDI Out
563.304;000.198;75;000.688;Disklavier MIDI Out
563.340;000.167;38;000.516;Disklavier MIDI Out
563.396;000.143;74;000.695;Disklavier MIDI Out
563.405;000.164;41;000.516;Disklavier MIDI Out
563.467;000.115;44;000.594;Disklavier MIDI Out
563.484;000.107;72;000.727;Disklavier MIDI Out
563.518;000.094;47;000.625;Disklavier MIDI Out
563.620;000.053;35;000.398;Disklavier MIDI Out
563.573;000.136;71;000.719;Disklavier MIDI Out
563.605;000.194;36;000.523;Disklavier MIDI Out
563.680;000.141;72;000.680;Disklavier MIDI Out
563.671;000.168;38;000.469;Disklavier MIDI Out
563.778;000.129;74;000.695;Disklavier MIDI Out
563.716;000.205;41;000.570;Disklavier MIDI Out
563.790;000.147;43;000.602;Disklavier MIDI Out
563.858;000.081;75;000.711;Disklavier MIDI Out
563.856;000.106;47;000.578;Disklavier MIDI Out
563.971;000.039;77;000.508;Disklavier MIDI Out
563.993;000.023;76;000.500;Disklavier MIDI Out
564.014;000.123;77;000.273;Disklavier MIDI Out
563.946;000.197;36;000.648;Disklavier MIDI Out
564.011;000.151;38;000.383;Disklavier MIDI Out
564.057;000.107;79;000.703;Disklavier MIDI Out
564.133;000.107;81;000.641;Disklavier MIDI Out
564.116;000.134;43;000.570;Disklavier MIDI Out
564.060;000.193;41;000.641;Disklavier MIDI Out
564.176;000.095;47;000.594;Disklavier MIDI Out
564.188;000.086;83;000.672;Disklavier MIDI Out
564.279;000.203;84;000.703;Disklavier MIDI Out
564.243;000.258;36;000.680;Disklavier MIDI Out
564.358;000.164;38;000.523;Disklavier MIDI Out
564.394;000.135;86;000.727;Disklavier MIDI Out
564.388;000.192;41;000.625;Disklavier MIDI Out
564.581;000.036;88;000.508;Disklavier MIDI Out
564.440;000.179;43;000.539;Disklavier MIDI Out
564.463;000.157;87;000.625;Disklavier MIDI Out
564.519;000.132;47;000.625;Disklavier MIDI Out
564.663;000.111;89;000.594;Disklavier MIDI Out
564.679;000.119;38;000.484;Disklavier MIDI Out
564.633;000.179;36;000.602;Disklavier MIDI Out
564.851;000.001;95;000.188;Disklavier MIDI Out
564.813;000.052;40;000.391;Disklavier MIDI Out
564.806;000.086;43;000.414;Disklavier MIDI Out
564.809;000.094;44;000.328;Disklavier MIDI Out
564.752;000.207;93;000.703;Disklavier MIDI Out
564.963;000.033;95;000.289;Disklavier MIDI Out
564.939;000.082;36;000.695;Disklavier MIDI Out
564.933;000.094;48;000.742;Disklavier MIDI Out
564.938;000.099;43;000.664;Disklavier MIDI Out
564.946;000.097;39;000.734;Disklavier MIDI Out
564.925;000.337;96;000.797;Disklavier MIDI Out
565.221;000.119;91;000.688;Disklavier MIDI Out
565.354;000.082;89;000.633;Disklavier MIDI Out
565.444;000.100;63;000.555;Disklavier MIDI Out
565.458;000.102;67;000.555;Disklavier MIDI Out
565.469;000.134;87;000.688;Disklavier MIDI Out
565.580;000.220;86;000.672;Disklavier MIDI Out
565.691;000.114;84;000.625;Disklavier MIDI Out
565.754;000.141;63;000.547;Disklavier MIDI Out
565.777;000.130;87;000.672;Disklavier MIDI Out
565.893;000.189;91;000.648;Disklavier MIDI Out
565.755;000.396;60;000.578;Disklavier MIDI Out
566.011;000.180;89;000.648;Disklavier MIDI Out
566.109;000.163;67;000.547;Disklavier MIDI Out
566.116;000.172;87;000.680;Disklavier MIDI Out
566.095;000.238;63;000.523;Disklavier MIDI Out
566.212;000.134;86;000.664;Disklavier MIDI Out
566.312;000.149;84;000.664;Disklavier MIDI Out
566.416;000.095;63;000.375;Disklavier MIDI Out
566.421;000.122;87;000.711;Disklavier MIDI Out
566.423;000.219;60;000.516;Disklavier MIDI Out
566.526;000.205;91;000.672;Disklavier MIDI Out
566.730;000.069;63;000.500;Disklavier MIDI Out
566.632;000.177;89;000.641;Disklavier MIDI Out
566.741;000.155;87;000.695;Disklavier MIDI Out
566.825;000.112;86;000.656;Disklavier MIDI Out
566.748;000.241;67;000.508;Disklavier MIDI Out
566.929;000.139;84;000.633;Disklavier MIDI Out
567.046;000.070;62;000.461;Disklavier MIDI Out
567.039;000.126;83;000.711;Disklavier MIDI Out
567.155;000.198;86;000.695;Disklavier MIDI Out
567.262;000.179;84;000.617;Disklavier MIDI Out
567.043;000.416;55;000.523;Disklavier MIDI Out
567.351;000.139;65;000.484;Disklavier MIDI Out
567.346;000.157;62;000.445;Disklavier MIDI Out
567.347;000.161;83;000.633;Disklavier MIDI Out
567.445;000.116;81;000.688;Disklavier MIDI Out
567.551;000.124;79;000.648;Disklavier MIDI Out
567.671;000.079;62;000.531;Disklavier MIDI Out
567.652;000.117;83;000.695;Disklavier MIDI Out
567.682;000.141;55;000.469;Disklavier MIDI Out
567.767;000.153;86;000.664;Disklavier MIDI Out
567.873;000.161;84;000.602;Disklavier MIDI Out
567.969;000.090;65;000.516;Disklavier MIDI Out
567.970;000.095;62;000.500;Disklavier MIDI Out
567.971;000.148;83;000.664;Disklavier MIDI Out
568.071;000.096;81;000.648;Disklavier MIDI Out
568.176;000.129;79;000.656;Disklavier MIDI Out
568.280;000.058;62;000.469;Disklavier MIDI Out
568.288;000.102;77;000.672;Disklavier MIDI Out
568.274;000.138;55;000.539;Disklavier MIDI Out
568.405;000.139;80;000.641;Disklavier MIDI Out
568.585;000.048;65;000.484;Disklavier MIDI Out
568.583;000.060;62;000.492;Disklavier MIDI Out
568.504;000.215;79;000.602;Disklavier MIDI Out
568.601;000.152;77;000.594;Disklavier MIDI Out
568.702;000.120;75;000.641;Disklavier MIDI Out
568.807;000.129;74;000.656;Disklavier MIDI Out
568.891;000.089;51;000.555;Disklavier MIDI Out
568.944;000.041;50;000.273;Disklavier MIDI Out
568.936;000.053;48;000.273;Disklavier MIDI Out
568.909;000.118;75;000.641;Disklavier MIDI Out
569.011;000.207;79;000.633;Disklavier MIDI Out
569.108;000.177;77;000.586;Disklavier MIDI Out
569.214;000.090;51;000.469;Disklavier MIDI Out
569.220;000.101;55;000.531;Disklavier MIDI Out
569.215;000.153;75;000.648;Disklavier MIDI Out
569.305;000.116;74;000.664;Disklavier MIDI Out
569.413;000.123;72;000.570;Disklavier MIDI Out
569.517;000.089;51;000.547;Disklavier MIDI Out
569.514;000.129;75;000.664;Disklavier MIDI Out
569.516;000.130;48;000.570;Disklavier MIDI Out
569.636;000.179;79;000.633;Disklavier MIDI Out
569.733;000.166;77;000.617;Disklavier MIDI Out
569.821;000.089;51;000.609;Disklavier MIDI Out
569.826;000.085;55;000.609;Disklavier MIDI Out
569.838;000.155;75;000.641;Disklavier MIDI Out
569.921;000.118;74;000.641;Disklavier MIDI Out
570.034;000.126;72;000.578;Disklavier MIDI Out
570.138;000.077;51;000.586;Disklavier MIDI Out
570.133;000.111;75;000.641;Disklavier MIDI Out
570.141;000.119;48;000.578;Disklavier MIDI Out
570.236;000.183;79;000.664;Disklavier MIDI Out
570.435;000.060;51;000.594;Disklavier MIDI Out
570.344;000.164;77;000.633;Disklavier MIDI Out
570.450;000.154;75;000.633;Disklavier MIDI Out
570.539;000.099;74;000.641;Disklavier MIDI Out
570.448;000.201;55;000.562;Disklavier MIDI Out
570.642;000.067;72;000.633;Disklavier MIDI Out
570.748;000.073;50;000.539;Disklavier MIDI Out
570.777;000.056;72;000.133;Disklavier MIDI Out
570.747;000.100;43;000.547;Disklavier MIDI Out
570.755;000.115;71;000.688;Disklavier MIDI Out
570.862;000.185;74;000.664;Disklavier MIDI Out
570.970;000.164;72;000.578;Disklavier MIDI Out
571.072;000.088;50;000.523;Disklavier MIDI Out
571.071;000.094;53;000.602;Disklavier MIDI Out
571.059;000.138;71;000.625;Disklavier MIDI Out
571.150;000.103;69;000.594;Disklavier MIDI Out
571.263;000.127;67;000.602;Disklavier MIDI Out
571.391;000.083;50;000.539;Disklavier MIDI Out
571.367;000.117;71;000.641;Disklavier MIDI Out
571.396;000.110;43;000.539;Disklavier MIDI Out
571.486;000.140;74;000.633;Disklavier MIDI Out
571.582;000.167;72;000.609;Disklavier MIDI Out
571.700;000.085;53;000.562;Disklavier MIDI Out
571.697;000.090;50;000.500;Disklavier MIDI Out
571.684;000.135;71;000.656;Disklavier MIDI Out
571.786;000.081;69;000.617;Disklavier MIDI Out
571.894;000.110;67;000.570;Disklavier MIDI Out
571.997;000.076;50;000.516;Disklavier MIDI Out
572.001;000.099;65;000.609;Disklavier MIDI Out
572.118;000.169;68;000.609;Disklavier MIDI Out
572.002;000.307;43;000.531;Disklavier MIDI Out
572.294;000.092;50;000.492;Disklavier MIDI Out
572.219;000.178;67;000.562;Disklavier MIDI Out
572.330;000.135;53;000.492;Disklavier MIDI Out
572.331;000.135;65;000.562;Disklavier MIDI Out
572.416;000.123;63;000.594;Disklavier MIDI Out
572.535;000.132;62;000.617;Disklavier MIDI Out
572.623;000.064;51;000.492;Disklavier MIDI Out
572.639;000.109;63;000.617;Disklavier MIDI Out
572.615;000.134;48;000.523;Disklavier MIDI Out
572.743;000.201;67;000.633;Disklavier MIDI Out
572.846;000.168;65;000.594;Disklavier MIDI Out
572.927;000.105;51;000.570;Disklavier MIDI Out
572.938;000.123;55;000.594;Disklavier MIDI Out
572.947;000.170;63;000.617;Disklavier MIDI Out
573.036;000.125;62;000.633;Disklavier MIDI Out
573.137;000.058;60;000.672;Disklavier MIDI Out
573.576;000.106;57;000.672;Disklavier MIDI Out
573.587;000.118;59;000.609;Disklavier MIDI Out
573.694;000.217;62;000.648;Disklavier MIDI Out
573.827;000.207;65;000.570;Disklavier MIDI Out
573.965;000.263;68;000.672;Disklavier MIDI Out
573.574;000.656;56;000.680;Disklavier MIDI Out
574.110;000.174;65;000.547;Disklavier MIDI Out
574.258;000.093;64;000.547;Disklavier MIDI Out
574.249;000.123;62;000.516;Disklavier MIDI Out
573.240;001.149;43;000.664;Disklavier MIDI Out
573.357;001.051;50;000.633;Disklavier MIDI Out
573.442;001.038;53;000.672;Disklavier MIDI Out
574.350;000.171;67;000.695;Disklavier MIDI Out
574.360;000.233;55;000.586;Disklavier MIDI Out
574.449;000.148;65;000.609;Disklavier MIDI Out
574.541;000.157;62;000.578;Disklavier MIDI Out
574.648;000.086;51;000.594;Disklavier MIDI Out
574.649;000.131;48;000.594;Disklavier MIDI Out
574.675;000.116;63;000.672;Disklavier MIDI Out
574.781;000.179;67;000.625;Disklavier MIDI Out
574.919;000.098;64;000.562;Disklavier MIDI Out
574.906;000.122;65;000.461;Disklavier MIDI Out
574.962;000.107;51;000.570;Disklavier MIDI Out
574.966;000.172;55;000.625;Disklavier MIDI Out
574.986;000.175;63;000.648;Disklavier MIDI Out
575.094;000.108;62;000.562;Disklavier MIDI Out
575.173;000.068;60;000.648;Disklavier MIDI Out
575.391;000.288;49;000.680;Disklavier MIDI Out
575.582;000.098;59;000.688;Disklavier MIDI Out
575.683;000.170;62;000.594;Disklavier MIDI Out
575.793;000.129;65;000.500;Disklavier MIDI Out
575.893;000.183;68;000.633;Disklavier MIDI Out
576.002;000.138;65;000.516;Disklavier MIDI Out
575.592;000.555;56;000.695;Disklavier MIDI Out
576.108;000.126;62;000.586;Disklavier MIDI Out
575.278;000.972;43;000.648;Disklavier MIDI Out
575.429;000.836;50;000.664;Disklavier MIDI Out
575.487;000.827;53;000.633;Disklavier MIDI Out
576.222;000.160;67;000.648;Disklavier MIDI Out
576.314;000.136;65;000.539;Disklavier MIDI Out
576.404;000.075;62;000.586;Disklavier MIDI Out
576.221;000.284;55;000.633;Disklavier MIDI Out
576.522;000.078;51;000.547;Disklavier MIDI Out
576.521;000.119;48;000.555;Disklavier MIDI Out
576.548;000.116;63;000.672;Disklavier MIDI Out
576.658;000.191;67;000.633;Disklavier MIDI Out
576.765;000.152;65;000.586;Disklavier MIDI Out
576.857;000.090;51;000.562;Disklavier MIDI Out
576.869;000.159;63;000.641;Disklavier MIDI Out
576.866;000.196;55;000.617;Disklavier MIDI Out
576.959;000.137;62;000.609;Disklavier MIDI Out
577.075;000.086;60;000.656;Disklavier MIDI Out
577.252;000.221;59;000.703;Disklavier MIDI Out
577.432;000.211;62;000.719;Disklavier MIDI Out
577.590;000.226;65;000.680;Disklavier MIDI Out
577.779;000.244;68;000.672;Disklavier MIDI Out
577.975;000.120;65;000.617;Disklavier MIDI Out
578.103;000.094;62;000.602;Disklavier MIDI Out
578.221;000.100;71;000.641;Disklavier MIDI Out
578.324;000.089;68;000.617;Disklavier MIDI Out
578.424;000.098;65;000.508;Disklavier MIDI Out
578.513;000.117;74;000.648;Disklavier MIDI Out
578.628;000.103;71;000.586;Disklavier MIDI Out
578.728;000.032;68;000.500;Disklavier MIDI Out
578.825;000.078;77;000.648;Disklavier MIDI Out
578.940;000.062;74;000.617;Disklavier MIDI Out
579.023;000.083;71;000.570;Disklavier MIDI Out
579.139;000.092;80;000.625;Disklavier MIDI Out
579.240;000.069;77;000.570;Disklavier MIDI Out
577.781;001.616;56;000.680;Disklavier MIDI Out
579.324;000.094;74;000.602;Disklavier MIDI Out
577.592;001.828;53;000.672;Disklavier MIDI Out
577.434;002.006;50;000.656;Disklavier MIDI Out
577.229;002.230;43;000.594;Disklavier MIDI Out
579.431;000.084;83;000.617;Disklavier MIDI Out
579.527;000.081;80;000.617;Disklavier MIDI Out
579.627;000.094;77;000.617;Disklavier MIDI Out
579.729;000.116;86;000.672;Disklavier MIDI Out
579.843;000.083;83;000.594;Disklavier MIDI Out
579.919;000.034;80;000.547;Disklavier MIDI Out
580.057;000.031;88;000.367;Disklavier MIDI Out
580.018;000.088;89;000.672;Disklavier MIDI Out
580.138;000.100;86;000.680;Disklavier MIDI Out
580.242;000.235;83;000.648;Disklavier MIDI Out
580.419;000.254;92;000.773;Disklavier MIDI Out
580.616;000.184;89;000.688;Disklavier MIDI Out
580.793;000.158;86;000.727;Disklavier MIDI Out
580.997;000.001;84;000.352;Disklavier MIDI Out
580.958;000.192;83;000.711;Disklavier MIDI Out
581.117;000.155;86;000.656;Disklavier MIDI Out
581.266;000.091;89;000.695;Disklavier MIDI Out
581.418;000.106;80;000.641;Disklavier MIDI Out
581.526;000.118;83;000.609;Disklavier MIDI Out
581.633;000.086;86;000.641;Disklavier MIDI Out
581.731;000.117;77;000.617;Disklavier MIDI Out
581.844;000.111;80;000.609;Disklavier MIDI Out
581.948;000.083;83;000.578;Disklavier MIDI Out
582.029;000.105;74;000.602;Disklavier MIDI Out
582.132;000.104;77;000.562;Disklavier MIDI Out
582.235;000.067;80;000.594;Disklavier MIDI Out
582.324;000.139;71;000.594;Disklavier MIDI Out
582.439;000.076;74;000.586;Disklavier MIDI Out
582.547;000.036;77;000.500;Disklavier MIDI Out
582.555;000.034;79;000.352;Disklavier MIDI Out
582.648;000.065;68;000.594;Disklavier MIDI Out
582.775;000.048;71;000.578;Disklavier MIDI Out
582.846;000.108;74;000.500;Disklavier MIDI Out
582.959;000.095;67;000.539;Disklavier MIDI Out
583.082;000.061;68;000.461;Disklavier MIDI Out
583.185;000.067;67;000.500;Disklavier MIDI Out
583.288;000.098;68;000.477;Disklavier MIDI Out
583.399;000.133;70;000.523;Disklavier MIDI Out
583.520;000.074;68;000.539;Disklavier MIDI Out
583.620;000.102;67;000.453;Disklavier MIDI Out
583.730;000.074;68;000.508;Disklavier MIDI Out
583.845;000.072;67;000.508;Disklavier MIDI Out
583.949;000.088;68;000.453;Disklavier MIDI Out
584.050;000.121;70;000.477;Disklavier MIDI Out
584.172;000.091;68;000.484;Disklavier MIDI Out
584.278;000.085;67;000.469;Disklavier MIDI Out
584.395;000.067;68;000.477;Disklavier MIDI Out
584.512;000.068;67;000.484;Disklavier MIDI Out
584.614;000.106;68;000.469;Disklavier MIDI Out
584.730;000.131;70;000.461;Disklavier MIDI Out
584.852;000.077;68;000.461;Disklavier MIDI Out
584.957;000.096;67;000.453;Disklavier MIDI Out
585.068;000.085;68;000.477;Disklavier MIDI Out
585.190;000.080;67;000.500;Disklavier MIDI Out
585.305;000.090;68;000.469;Disklavier MIDI Out
585.403;000.098;70;000.484;Disklavier MIDI Out
585.522;000.090;68;000.492;Disklavier MIDI Out
585.620;000.043;70;000.469;Disklavier MIDI Out
585.694;000.129;69;000.516;Disklavier MIDI Out
585.830;000.086;70;000.500;Disklavier MIDI Out
585.942;000.095;69;000.508;Disklavier MIDI Out
586.052;000.122;70;000.562;Disklavier MIDI Out
586.186;000.114;72;000.492;Disklavier MIDI Out
586.320;000.102;70;000.516;Disklavier MIDI Out
586.441;000.127;71;000.484;Disklavier MIDI Out
586.583;000.142;72;000.422;Disklavier MIDI Out
586.733;000.090;71;000.445;Disklavier MIDI Out
586.873;000.124;67;000.398;Disklavier MIDI Out
587.044;000.106;68;000.289;Disklavier MIDI Out
587.183;000.197;67;000.414;Disklavier MIDI Out
587.485;000.232;72;000.422;Disklavier MIDI Out
587.735;000.083;71;000.391;Disklavier MIDI Out
587.492;000.373;67;000.273;Disklavier MIDI Out
587.536;000.380;63;000.273;Disklavier MIDI Out
587.905;000.042;72;000.453;Disklavier MIDI Out
587.536;000.412;60;000.234;Disklavier MIDI Out
588.076;000.136;74;000.438;Disklavier MIDI Out
588.246;000.045;75;000.469;Disklavier MIDI Out
588.427;000.148;78;000.469;Disklavier MIDI Out
588.597;000.042;79;000.445;Disklavier MIDI Out
588.244;000.538;67;000.320;Disklavier MIDI Out
588.264;000.633;63;000.258;Disklavier MIDI Out
588.260;000.639;60;000.266;Disklavier MIDI Out
588.764;000.143;83;000.484;Disklavier MIDI Out
588.936;000.041;84;000.461;Disklavier MIDI Out
589.107;000.134;86;000.406;Disklavier MIDI Out
589.272;000.028;87;000.414;Disklavier MIDI Out
589.435;000.049;67;000.383;Disklavier MIDI Out
589.457;000.042;72;000.477;Disklavier MIDI Out
589.451;000.055;63;000.297;Disklavier MIDI Out
589.464;000.044;60;000.203;Disklavier MIDI Out
589.645;000.111;74;000.453;Disklavier MIDI Out
589.627;000.336;67;000.359;Disklavier MIDI Out
589.815;000.148;73;000.453;Disklavier MIDI Out
589.626;000.348;62;000.398;Disklavier MIDI Out
589.648;000.330;59;000.375;Disklavier MIDI Out
589.973;000.041;74;000.477;Disklavier MIDI Out
590.164;000.141;76;000.445;Disklavier MIDI Out
590.332;000.027;77;000.422;Disklavier MIDI Out
590.522;000.149;82;000.406;Disklavier MIDI Out
590.331;000.360;67;000.344;Disklavier MIDI Out
590.681;000.031;83;000.469;Disklavier MIDI Out
590.360;000.364;59;000.281;Disklavier MIDI Out
590.349;000.386;62;000.328;Disklavier MIDI Out
590.856;000.156;85;000.469;Disklavier MIDI Out
591.029;000.042;86;000.492;Disklavier MIDI Out
591.199;000.157;88;000.484;Disklavier MIDI Out
591.368;000.035;89;000.469;Disklavier MIDI Out
591.546;000.023;76;000.477;Disklavier MIDI Out
591.539;000.036;59;000.352;Disklavier MIDI Out
591.527;000.051;67;000.469;Disklavier MIDI Out
591.536;000.044;62;000.359;Disklavier MIDI Out
591.760;000.151;77;000.492;Disklavier MIDI Out
591.941;000.044;76;000.438;Disklavier MIDI Out
592.088;000.048;76;000.547;Disklavier MIDI Out
591.718;000.455;67;000.391;Disklavier MIDI Out
591.741;000.446;64;000.422;Disklavier MIDI Out
591.745;000.460;60;000.398;Disklavier MIDI Out
591.772;000.438;58;000.336;Disklavier MIDI Out
592.346;000.170;78;000.578;Disklavier MIDI Out
592.506;000.039;79;000.609;Disklavier MIDI Out
592.682;000.155;83;000.602;Disklavier MIDI Out
592.852;000.032;84;000.508;Disklavier MIDI Out
592.508;000.533;67;000.453;Disklavier MIDI Out
592.546;000.562;58;000.305;Disklavier MIDI Out
592.539;000.585;60;000.359;Disklavier MIDI Out
592.534;000.598;64;000.336;Disklavier MIDI Out
593.038;000.164;87;000.477;Disklavier MIDI Out
593.202;000.035;88;000.578;Disklavier MIDI Out
593.375;000.158;90;000.508;Disklavier MIDI Out
593.544;000.038;91;000.484;Disklavier MIDI Out
593.719;000.038;67;000.305;Disklavier MIDI Out
593.729;000.047;76;000.484;Disklavier MIDI Out
593.728;000.060;60;000.125;Disklavier MIDI Out
593.915;000.168;77;000.531;Disklavier MIDI Out
593.912;000.292;60;000.312;Disklavier MIDI Out
593.890;000.340;65;000.445;Disklavier MIDI Out
594.110;000.126;76;000.492;Disklavier MIDI Out
593.896;000.354;57;000.359;Disklavier MIDI Out
594.247;000.037;77;000.523;Disklavier MIDI Out
594.416;000.168;80;000.516;Disklavier MIDI Out
594.584;000.042;81;000.531;Disklavier MIDI Out
594.756;000.157;83;000.508;Disklavier MIDI Out
594.932;000.026;84;000.461;Disklavier MIDI Out
595.090;000.173;88;000.555;Disklavier MIDI Out
594.606;000.682;65;000.352;Disklavier MIDI Out
595.259;000.030;89;000.578;Disklavier MIDI Out
594.611;000.693;60;000.336;Disklavier MIDI Out
594.627;000.754;57;000.320;Disklavier MIDI Out
595.434;000.166;92;000.508;Disklavier MIDI Out
595.591;000.033;93;000.508;Disklavier MIDI Out
595.751;000.048;65;000.422;Disklavier MIDI Out
595.771;000.037;77;000.547;Disklavier MIDI Out
595.772;000.040;57;000.234;Disklavier MIDI Out
595.770;000.053;60;000.375;Disklavier MIDI Out
595.959;000.202;78;000.516;Disklavier MIDI Out
596.155;000.152;77;000.531;Disklavier MIDI Out
595.956;000.384;66;000.414;Disklavier MIDI Out
595.952;000.398;63;000.352;Disklavier MIDI Out
596.316;000.034;78;000.523;Disklavier MIDI Out
595.972;000.390;56;000.367;Disklavier MIDI Out
595.956;000.407;60;000.359;Disklavier MIDI Out
596.486;000.172;83;000.523;Disklavier MIDI Out
596.664;000.035;84;000.531;Disklavier MIDI Out
596.832;000.167;86;000.570;Disklavier MIDI Out
596.999;000.038;87;000.570;Disklavier MIDI Out
596.657;000.429;66;000.391;Disklavier MIDI Out
597.162;000.207;89;000.648;Disklavier MIDI Out
596.670;000.721;63;000.328;Disklavier MIDI Out
596.663;000.752;60;000.352;Disklavier MIDI Out
597.344;000.071;90;000.664;Disklavier MIDI Out
596.675;000.769;56;000.336;Disklavier MIDI Out
597.509;000.205;89;000.727;Disklavier MIDI Out
597.673;000.070;90;000.672;Disklavier MIDI Out
597.857;000.060;66;000.453;Disklavier MIDI Out
597.847;000.076;90;000.719;Disklavier MIDI Out
597.884;000.045;63;000.312;Disklavier MIDI Out
597.875;000.058;60;000.359;Disklavier MIDI Out
597.889;000.046;56;000.250;Disklavier MIDI Out
598.021;000.059;91;000.664;Disklavier MIDI Out
598.053;000.281;67;000.422;Disklavier MIDI Out
598.058;000.292;63;000.430;Disklavier MIDI Out
598.063;000.291;60;000.406;Disklavier MIDI Out
598.046;000.354;55;000.469;Disklavier MIDI Out
598.208;000.211;79;000.641;Disklavier MIDI Out
598.383;000.083;80;000.625;Disklavier MIDI Out
598.561;000.321;79;000.727;Disklavier MIDI Out
598.877;000.181;65;000.352;Disklavier MIDI Out
598.895;000.201;60;000.320;Disklavier MIDI Out
598.905;000.205;53;000.320;Disklavier MIDI Out
598.929;000.218;56;000.289;Disklavier MIDI Out
598.888;000.383;74;000.500;Disklavier MIDI Out
599.277;000.173;72;000.375;Disklavier MIDI Out
599.496;000.097;74;000.414;Disklavier MIDI Out
599.657;000.163;72;000.320;Disklavier MIDI Out
599.870;000.123;74;000.344;Disklavier MIDI Out
600.036;000.148;72;000.273;Disklavier MIDI Out
600.229;000.099;74;000.320;Disklavier MIDI Out
600.402;000.146;72;000.242;Disklavier MIDI Out
600.601;000.081;74;000.289;Disklavier MIDI Out
600.760;000.127;72;000.281;Disklavier MIDI Out
600.937;000.110;74;000.312;Disklavier MIDI Out
601.111;000.129;72;000.242;Disklavier MIDI Out
601.292;000.102;74;000.328;Disklavier MIDI Out
601.454;000.152;72;000.266;Disklavier MIDI Out
598.859;002.776;80;000.586;Disklavier MIDI Out
601.650;000.086;74;000.320;Disklavier MIDI Out
601.798;000.047;65;000.352;Disklavier MIDI Out
601.796;000.058;72;000.367;Disklavier MIDI Out
601.798;000.066;80;000.414;Disklavier MIDI Out
602.007;000.114;68;000.406;Disklavier MIDI Out
601.997;000.127;74;000.406;Disklavier MIDI Out
601.990;000.170;77;000.414;Disklavier MIDI Out
602.181;000.155;72;000.352;Disklavier MIDI Out
602.378;000.104;74;000.344;Disklavier MIDI Out
602.544;000.144;72;000.273;Disklavier MIDI Out
602.727;000.157;74;000.422;Disklavier MIDI Out
602.741;000.195;67;000.312;Disklavier MIDI Out
602.927;000.140;72;000.297;Disklavier MIDI Out
603.091;000.132;74;000.359;Disklavier MIDI Out
602.723;000.582;79;000.414;Disklavier MIDI Out
603.270;000.147;72;000.336;Disklavier MIDI Out
603.440;000.110;74;000.414;Disklavier MIDI Out
603.626;000.118;72;000.305;Disklavier MIDI Out
603.773;000.122;74;000.367;Disklavier MIDI Out
603.936;000.045;80;000.445;Disklavier MIDI Out
603.942;000.044;72;000.344;Disklavier MIDI Out
603.953;000.053;65;000.320;Disklavier MIDI Out
604.118;000.101;74;000.406;Disklavier MIDI Out
604.153;000.121;68;000.289;Disklavier MIDI Out
604.127;000.155;77;000.445;Disklavier MIDI Out
604.330;000.128;72;000.281;Disklavier MIDI Out
604.497;000.106;74;000.375;Disklavier MIDI Out
604.657;000.142;72;000.352;Disklavier MIDI Out
604.851;000.074;74;000.336;Disklavier MIDI Out
604.867;000.240;67;000.281;Disklavier MIDI Out
605.027;000.131;72;000.312;Disklavier MIDI Out
605.198;000.104;74;000.406;Disklavier MIDI Out
605.359;000.151;72;000.336;Disklavier MIDI Out
604.839;000.672;79;000.430;Disklavier MIDI Out
605.541;000.127;74;000.430;Disklavier MIDI Out
605.710;000.126;72;000.375;Disklavier MIDI Out
605.872;000.141;74;000.375;Disklavier MIDI Out
606.044;000.053;80;000.461;Disklavier MIDI Out
606.045;000.058;72;000.398;Disklavier MIDI Out
606.065;000.076;65;000.273;Disklavier MIDI Out
606.227;000.117;74;000.438;Disklavier MIDI Out
606.233;000.139;77;000.430;Disklavier MIDI Out
606.244;000.150;68;000.344;Disklavier MIDI Out
606.429;000.116;72;000.273;Disklavier MIDI Out
606.577;000.111;74;000.367;Disklavier MIDI Out
606.741;000.119;72;000.359;Disklavier MIDI Out
606.925;000.089;74;000.375;Disklavier MIDI Out
606.937;000.112;67;000.359;Disklavier MIDI Out
607.104;000.121;71;000.359;Disklavier MIDI Out
607.265;000.093;74;000.352;Disklavier MIDI Out
606.917;000.460;79;000.453;Disklavier MIDI Out
607.438;000.164;71;000.359;Disklavier MIDI Out
607.641;000.205;72;000.406;Disklavier MIDI Out
607.829;000.142;75;000.406;Disklavier MIDI Out
607.670;000.323;60;000.227;Disklavier MIDI Out
608.009;000.179;79;000.430;Disklavier MIDI Out
608.164;000.158;75;000.445;Disklavier MIDI Out
608.339;000.151;72;000.414;Disklavier MIDI Out
608.506;000.177;75;000.445;Disklavier MIDI Out
608.678;000.134;72;000.430;Disklavier MIDI Out
608.845;000.170;67;000.445;Disklavier MIDI Out
609.023;000.140;63;000.508;Disklavier MIDI Out
609.196;000.136;67;000.453;Disklavier MIDI Out
609.356;000.152;63;000.406;Disklavier MIDI Out
609.543;000.148;60;000.391;Disklavier MIDI Out
609.717;000.128;62;000.461;Disklavier MIDI Out
609.885;000.155;60;000.367;Disklavier MIDI Out
610.077;000.095;62;000.359;Disklavier MIDI Out
610.233;000.069;44;000.461;Disklavier MIDI Out
610.243;000.115;60;000.367;Disklavier MIDI Out
610.454;000.129;41;000.406;Disklavier MIDI Out
610.433;000.151;62;000.375;Disklavier MIDI Out
610.623;000.095;60;000.328;Disklavier MIDI Out
610.784;000.074;62;000.406;Disklavier MIDI Out
610.956;000.055;68;000.430;Disklavier MIDI Out
610.961;000.072;60;000.375;Disklavier MIDI Out
611.159;000.158;62;000.367;Disklavier MIDI Out
611.163;000.219;43;000.320;Disklavier MIDI Out
611.366;000.121;60;000.336;Disklavier MIDI Out
611.157;000.354;65;000.438;Disklavier MIDI Out
611.540;000.129;62;000.297;Disklavier MIDI Out
611.545;000.268;67;000.367;Disklavier MIDI Out
611.707;000.168;60;000.344;Disklavier MIDI Out
611.887;000.143;62;000.414;Disklavier MIDI Out
612.068;000.135;60;000.367;Disklavier MIDI Out
612.256;000.111;62;000.352;Disklavier MIDI Out
612.397;000.055;44;000.375;Disklavier MIDI Out
612.406;000.071;60;000.406;Disklavier MIDI Out
612.596;000.139;62;000.461;Disklavier MIDI Out
612.599;000.222;41;000.367;Disklavier MIDI Out
612.777;000.099;60;000.398;Disklavier MIDI Out
612.936;000.083;62;000.445;Disklavier MIDI Out
613.093;000.057;68;000.438;Disklavier MIDI Out
613.096;000.056;60;000.414;Disklavier MIDI Out
613.282;000.158;62;000.383;Disklavier MIDI Out
613.277;000.323;65;000.391;Disklavier MIDI Out
613.280;000.338;43;000.336;Disklavier MIDI Out
613.482;000.141;60;000.320;Disklavier MIDI Out
613.663;000.114;62;000.305;Disklavier MIDI Out
613.827;000.147;60;000.367;Disklavier MIDI Out
613.659;000.332;67;000.352;Disklavier MIDI Out
614.004;000.093;62;000.445;Disklavier MIDI Out
614.157;000.146;60;000.383;Disklavier MIDI Out
614.352;000.112;62;000.359;Disklavier MIDI Out
614.507;000.050;44;000.352;Disklavier MIDI Out
614.508;000.074;60;000.398;Disklavier MIDI Out
614.694;000.155;62;000.375;Disklavier MIDI Out
614.705;000.223;41;000.344;Disklavier MIDI Out
614.888;000.141;60;000.273;Disklavier MIDI Out
615.044;000.197;62;000.383;Disklavier MIDI Out
615.206;000.064;60;000.398;Disklavier MIDI Out
615.208;000.063;68;000.406;Disklavier MIDI Out
615.410;000.081;62;000.359;Disklavier MIDI Out
615.592;000.103;60;000.297;Disklavier MIDI Out
615.401;000.362;65;000.375;Disklavier MIDI Out
615.763;000.121;62;000.273;Disklavier MIDI Out
615.936;000.109;60;000.305;Disklavier MIDI Out
616.102;000.152;62;000.344;Disklavier MIDI Out
616.282;000.151;59;000.258;Disklavier MIDI Out
616.471;000.095;62;000.344;Disklavier MIDI Out
616.625;000.051;43;000.359;Disklavier MIDI Out
616.630;000.078;59;000.344;Disklavier MIDI Out
616.817;000.155;62;000.328;Disklavier MIDI Out
616.833;000.239;31;000.320;Disklavier MIDI Out
617.014;000.161;59;000.281;Disklavier MIDI Out
617.189;000.174;62;000.328;Disklavier MIDI Out
617.352;000.056;59;000.266;Disklavier MIDI Out
617.342;000.067;66;000.422;Disklavier MIDI Out
617.574;000.103;62;000.289;Disklavier MIDI Out
617.767;000.112;59;000.289;Disklavier MIDI Out
617.552;000.524;67;000.336;Disklavier MIDI Out
617.961;000.430;62;000.305;Disklavier MIDI Out
618.178;000.220;59;000.312;Disklavier MIDI Out
618.412;000.157;67;000.383;Disklavier MIDI Out
618.432;000.167;36;000.258;Disklavier MIDI Out
618.648;000.072;63;000.172;Disklavier MIDI Out
618.743;000.071;67;000.430;Disklavier MIDI Out
618.870;000.080;63;000.414;Disklavier MIDI Out
618.879;000.088;60;000.211;Disklavier MIDI Out
618.977;000.085;67;000.469;Disklavier MIDI Out
618.963;000.128;43;000.234;Disklavier MIDI Out
619.095;000.060;63;000.453;Disklavier MIDI Out
619.114;000.046;60;000.320;Disklavier MIDI Out
619.201;000.099;67;000.516;Disklavier MIDI Out
619.217;000.112;39;000.461;Disklavier MIDI Out
619.315;000.065;60;000.344;Disklavier MIDI Out
619.321;000.082;63;000.391;Disklavier MIDI Out
619.439;000.070;67;000.461;Disklavier MIDI Out
619.559;000.064;60;000.266;Disklavier MIDI Out
619.551;000.086;63;000.422;Disklavier MIDI Out
619.665;000.091;67;000.523;Disklavier MIDI Out
619.719;000.058;48;000.398;Disklavier MIDI Out
619.797;000.048;60;000.375;Disklavier MIDI Out
619.785;000.068;63;000.484;Disklavier MIDI Out
619.896;000.078;67;000.523;Disklavier MIDI Out
619.881;000.147;43;000.562;Disklavier MIDI Out
620.015;000.054;60;000.336;Disklavier MIDI Out
620.004;000.076;63;000.469;Disklavier MIDI Out
620.128;000.062;67;000.469;Disklavier MIDI Out
620.245;000.061;60;000.234;Disklavier MIDI Out
620.243;000.066;63;000.391;Disklavier MIDI Out
620.339;000.089;67;000.492;Disklavier MIDI Out
620.410;000.061;51;000.516;Disklavier MIDI Out
620.468;000.045;60;000.383;Disklavier MIDI Out
620.448;000.088;63;000.469;Disklavier MIDI Out
620.568;000.095;67;000.547;Disklavier MIDI Out
620.555;000.140;48;000.641;Disklavier MIDI Out
620.696;000.058;60;000.328;Disklavier MIDI Out
620.685;000.105;63;000.500;Disklavier MIDI Out
620.808;000.094;67;000.531;Disklavier MIDI Out
620.934;000.081;60;000.344;Disklavier MIDI Out
620.925;000.098;63;000.508;Disklavier MIDI Out
621.039;000.088;67;000.555;Disklavier MIDI Out
621.074;000.078;55;000.570;Disklavier MIDI Out
621.146;000.038;63;000.531;Disklavier MIDI Out
621.158;000.029;60;000.430;Disklavier MIDI Out
621.280;000.112;72;000.594;Disklavier MIDI Out
621.247;000.167;51;000.656;Disklavier MIDI Out
621.395;000.107;63;000.461;Disklavier MIDI Out
621.404;000.103;67;000.438;Disklavier MIDI Out
621.506;000.103;72;000.531;Disklavier MIDI Out
621.624;000.072;63;000.484;Disklavier MIDI Out
621.608;000.111;67;000.508;Disklavier MIDI Out
621.784;000.043;60;000.578;Disklavier MIDI Out
621.719;000.142;72;000.586;Disklavier MIDI Out
621.826;000.087;63;000.625;Disklavier MIDI Out
621.840;000.115;67;000.594;Disklavier MIDI Out
622.013;000.065;72;000.109;Disklavier MIDI Out
621.962;000.119;71;000.609;Disklavier MIDI Out
621.949;000.149;43;000.672;Disklavier MIDI Out
622.076;000.096;67;000.609;Disklavier MIDI Out
622.082;000.099;62;000.547;Disklavier MIDI Out
622.175;000.114;71;000.602;Disklavier MIDI Out
622.307;000.069;62;000.539;Disklavier MIDI Out
622.290;000.094;67;000.625;Disklavier MIDI Out
622.380;000.105;71;000.625;Disklavier MIDI Out
622.496;000.030;62;000.617;Disklavier MIDI Out
622.489;000.046;67;000.680;Disklavier MIDI Out
622.451;000.085;53;000.578;Disklavier MIDI Out
622.665;000.140;79;000.664;Disklavier MIDI Out
622.618;000.205;48;000.664;Disklavier MIDI Out
622.814;000.062;72;000.414;Disklavier MIDI Out
622.808;000.102;75;000.523;Disklavier MIDI Out
622.921;000.095;79;000.578;Disklavier MIDI Out
623.030;000.064;72;000.453;Disklavier MIDI Out
623.035;000.100;75;000.523;Disklavier MIDI Out
623.171;000.063;55;000.695;Disklavier MIDI Out
623.144;000.119;79;000.625;Disklavier MIDI Out
623.271;000.084;72;000.547;Disklavier MIDI Out
623.270;000.103;75;000.633;Disklavier MIDI Out
623.321;000.165;51;000.680;Disklavier MIDI Out
623.382;000.106;79;000.648;Disklavier MIDI Out
623.497;000.069;72;000.516;Disklavier MIDI Out
623.491;000.098;75;000.578;Disklavier MIDI Out
623.589;000.116;79;000.664;Disklavier MIDI Out
623.705;000.099;75;000.586;Disklavier MIDI Out
623.710;000.099;72;000.547;Disklavier MIDI Out
623.837;000.066;60;000.602;Disklavier MIDI Out
623.799;000.115;79;000.703;Disklavier MIDI Out
623.915;000.091;72;000.570;Disklavier MIDI Out
623.907;000.108;75;000.648;Disklavier MIDI Out
624.009;000.122;79;000.727;Disklavier MIDI Out
624.011;000.184;55;000.719;Disklavier MIDI Out
624.132;000.081;72;000.570;Disklavier MIDI Out
624.123;000.103;75;000.648;Disklavier MIDI Out
624.217;000.120;79;000.703;Disklavier MIDI Out
624.341;000.094;72;000.578;Disklavier MIDI Out
624.334;000.107;75;000.664;Disklavier MIDI Out
624.439;000.122;79;000.719;Disklavier MIDI Out
624.511;000.073;63;000.688;Disklavier MIDI Out
624.563;000.093;72;000.609;Disklavier MIDI Out
624.553;000.110;75;000.695;Disklavier MIDI Out
624.667;000.082;60;000.781;Disklavier MIDI Out
624.657;000.126;79;000.758;Disklavier MIDI Out
624.781;000.097;72;000.609;Disklavier MIDI Out
624.774;000.115;75;000.672;Disklavier MIDI Out
624.879;000.121;79;000.711;Disklavier MIDI Out
625.005;000.078;72;000.586;Disklavier MIDI Out
624.997;000.105;75;000.688;Disklavier MIDI Out
625.101;000.104;79;000.711;Disklavier MIDI Out
625.202;000.030;72;000.562;Disklavier MIDI Out
625.176;000.073;67;000.656;Disklavier MIDI Out
625.193;000.061;75;000.680;Disklavier MIDI Out
625.335;000.138;84;000.750;Disklavier MIDI Out
625.314;000.202;63;000.758;Disklavier MIDI Out
625.466;000.094;75;000.602;Disklavier MIDI Out
625.456;000.121;79;000.562;Disklavier MIDI Out
625.568;000.132;84;000.711;Disklavier MIDI Out
625.694;000.087;75;000.617;Disklavier MIDI Out
625.687;000.129;79;000.633;Disklavier MIDI Out
625.806;000.064;72;000.656;Disklavier MIDI Out
625.790;000.152;84;000.703;Disklavier MIDI Out
625.901;000.087;75;000.703;Disklavier MIDI Out
625.961;000.048;78;000.195;Disklavier MIDI Out
625.916;000.121;79;000.664;Disklavier MIDI Out
626.099;000.051;84;000.141;Disklavier MIDI Out
626.025;000.128;83;000.625;Disklavier MIDI Out
626.135;000.115;79;000.688;Disklavier MIDI Out
626.134;000.119;74;000.664;Disklavier MIDI Out
626.230;000.143;83;000.711;Disklavier MIDI Out
626.013;000.430;55;000.750;Disklavier MIDI Out
626.368;000.093;74;000.680;Disklavier MIDI Out
626.354;000.122;79;000.750;Disklavier MIDI Out
626.482;000.043;65;000.602;Disklavier MIDI Out
626.459;000.162;83;000.742;Disklavier MIDI Out
626.572;000.286;79;000.742;Disklavier MIDI Out
626.571;000.349;74;000.805;Disklavier MIDI Out
627.108;000.129;51;000.578;Disklavier MIDI Out
627.221;000.072;55;000.594;Disklavier MIDI Out
627.292;000.086;60;000.570;Disklavier MIDI Out
626.791;000.640;48;000.711;Disklavier MIDI Out
627.401;000.109;55;000.648;Disklavier MIDI Out
627.508;000.092;51;000.562;Disklavier MIDI Out
627.652;000.045;41;000.344;Disklavier MIDI Out
627.629;000.110;43;000.539;Disklavier MIDI Out
627.720;000.137;51;000.570;Disklavier MIDI Out
627.849;000.083;55;000.586;Disklavier MIDI Out
627.856;000.078;53;000.523;Disklavier MIDI Out
627.943;000.076;60;000.531;Disklavier MIDI Out
626.822;001.403;84;000.750;Disklavier MIDI Out
627.596;000.630;75;000.734;Disklavier MIDI Out
628.132;000.119;51;000.531;Disklavier MIDI Out
628.040;000.229;55;000.602;Disklavier MIDI Out
628.284;000.002;80;000.406;Disklavier MIDI Out
628.364;000.163;51;000.609;Disklavier MIDI Out
628.253;000.302;79;000.727;Disklavier MIDI Out
628.463;000.103;55;000.516;Disklavier MIDI Out
628.555;000.115;60;000.539;Disklavier MIDI Out
628.241;000.493;48;000.664;Disklavier MIDI Out
628.679;000.241;55;000.562;Disklavier MIDI Out
628.769;000.160;51;000.586;Disklavier MIDI Out
629.046;000.119;53;000.609;Disklavier MIDI Out
629.147;000.100;55;000.625;Disklavier MIDI Out
628.916;000.404;50;000.641;Disklavier MIDI Out
629.255;000.109;59;000.508;Disklavier MIDI Out
628.920;000.535;77;000.719;Disklavier MIDI Out
629.365;000.119;55;000.602;Disklavier MIDI Out
629.482;000.090;53;000.617;Disklavier MIDI Out
629.481;000.152;75;000.703;Disklavier MIDI Out
629.610;000.124;43;000.617;Disklavier MIDI Out
629.730;000.131;53;000.578;Disklavier MIDI Out
629.848;000.108;55;000.633;Disklavier MIDI Out
629.961;000.108;59;000.547;Disklavier MIDI Out
630.066;000.168;55;000.648;Disklavier MIDI Out
629.605;000.664;74;000.758;Disklavier MIDI Out
630.183;000.090;53;000.578;Disklavier MIDI Out
630.252;000.235;79;000.766;Disklavier MIDI Out
630.404;000.124;53;000.617;Disklavier MIDI Out
630.269;000.283;50;000.664;Disklavier MIDI Out
630.488;000.098;55;000.609;Disklavier MIDI Out
630.585;000.121;59;000.555;Disklavier MIDI Out
630.710;000.110;55;000.609;Disklavier MIDI Out
630.819;000.231;53;000.602;Disklavier MIDI Out
631.080;000.031;71;000.359;Disklavier MIDI Out
631.051;000.282;60;000.680;Disklavier MIDI Out
631.059;000.339;48;000.539;Disklavier MIDI Out
631.373;000.124;51;000.461;Disklavier MIDI Out
631.507;000.057;55;000.492;Disklavier MIDI Out
631.595;000.068;60;000.430;Disklavier MIDI Out
631.690;000.114;55;000.469;Disklavier MIDI Out
631.831;000.069;51;000.438;Disklavier MIDI Out
631.927;000.072;43;000.500;Disklavier MIDI Out
631.908;000.135;63;000.461;Disklavier MIDI Out
632.038;000.110;51;000.477;Disklavier MIDI Out
632.140;000.092;55;000.531;Disklavier MIDI Out
632.263;000.099;60;000.453;Disklavier MIDI Out
632.381;000.134;55;000.508;Disklavier MIDI Out
632.505;000.099;51;000.500;Disklavier MIDI Out
632.605;000.102;48;000.523;Disklavier MIDI Out
632.721;000.106;51;000.453;Disklavier MIDI Out
632.591;000.287;67;000.570;Disklavier MIDI Out
632.803;000.109;55;000.516;Disklavier MIDI Out
632.916;000.113;60;000.523;Disklavier MIDI Out
633.112;000.157;51;000.516;Disklavier MIDI Out
633.037;000.234;55;000.570;Disklavier MIDI Out
631.031;002.349;72;000.750;Disklavier MIDI Out
633.444;000.120;53;000.531;Disklavier MIDI Out
633.266;000.367;50;000.570;Disklavier MIDI Out
633.558;000.091;55;000.508;Disklavier MIDI Out
633.656;000.129;59;000.508;Disklavier MIDI Out
633.290;000.597;65;000.625;Disklavier MIDI Out
633.788;000.103;55;000.555;Disklavier MIDI Out
633.883;000.080;63;000.617;Disklavier MIDI Out
633.891;000.083;53;000.547;Disklavier MIDI Out
634.023;000.110;43;000.516;Disklavier MIDI Out
634.161;000.123;53;000.398;Disklavier MIDI Out
634.033;000.267;64;000.562;Disklavier MIDI Out
634.267;000.107;55;000.531;Disklavier MIDI Out
634.392;000.097;59;000.500;Disklavier MIDI Out
634.495;000.182;55;000.547;Disklavier MIDI Out
634.586;000.109;53;000.578;Disklavier MIDI Out
634.709;000.190;50;000.602;Disklavier MIDI Out
634.828;000.135;53;000.570;Disklavier MIDI Out
633.277;001.692;71;000.742;Disklavier MIDI Out
634.729;000.242;67;000.703;Disklavier MIDI Out
634.930;000.084;55;000.570;Disklavier MIDI Out
635.023;000.094;59;000.500;Disklavier MIDI Out
635.131;000.052;55;000.555;Disklavier MIDI Out
635.190;000.035;53;000.547;Disklavier MIDI Out
635.396;000.034;36;000.617;Disklavier MIDI Out
635.407;000.038;38;000.570;Disklavier MIDI Out
635.422;000.047;60;000.734;Disklavier MIDI Out
635.735;000.043;50;000.367;Disklavier MIDI Out
635.691;000.176;51;000.438;Disklavier MIDI Out
635.708;000.162;48;000.320;Disklavier MIDI Out
635.868;000.190;55;000.602;Disklavier MIDI Out
635.867;000.207;43;000.547;Disklavier MIDI Out
636.020;000.231;48;000.633;Disklavier MIDI Out
636.019;000.234;51;000.656;Disklavier MIDI Out
636.204;000.213;55;000.672;Disklavier MIDI Out
636.203;000.223;43;000.602;Disklavier MIDI Out
636.381;000.193;51;000.578;Disklavier MIDI Out
636.377;000.199;48;000.586;Disklavier MIDI Out
636.561;000.157;43;000.633;Disklavier MIDI Out
636.554;000.195;55;000.680;Disklavier MIDI Out
636.722;000.188;51;000.633;Disklavier MIDI Out
636.724;000.193;48;000.625;Disklavier MIDI Out
636.198;000.757;72;000.758;Disklavier MIDI Out
636.196;000.808;84;000.727;Disklavier MIDI Out
636.882;000.167;43;000.641;Disklavier MIDI Out
636.885;000.167;55;000.688;Disklavier MIDI Out
637.045;000.160;48;000.586;Disklavier MIDI Out
637.041;000.168;51;000.602;Disklavier MIDI Out
637.202;000.157;55;000.664;Disklavier MIDI Out
637.360;000.040;51;000.531;Disklavier MIDI Out
637.358;000.065;48;000.617;Disklavier MIDI Out
637.352;000.076;87;000.727;Disklavier MIDI Out
637.208;000.223;43;000.594;Disklavier MIDI Out
637.352;000.083;75;000.688;Disklavier MIDI Out
637.572;000.053;36;000.766;Disklavier MIDI Out
637.626;000.034;82;000.320;Disklavier MIDI Out
637.574;000.355;84;000.680;Disklavier MIDI Out
637.572;000.388;72;000.695;Disklavier MIDI Out
637.856;000.169;51;000.539;Disklavier MIDI Out
637.865;000.162;48;000.508;Disklavier MIDI Out
638.039;000.159;43;000.492;Disklavier MIDI Out
638.016;000.194;55;000.609;Disklavier MIDI Out
638.186;000.164;51;000.594;Disklavier MIDI Out
638.182;000.172;48;000.609;Disklavier MIDI Out
638.346;000.151;43;000.562;Disklavier MIDI Out
638.345;000.155;55;000.609;Disklavier MIDI Out
638.506;000.143;48;000.555;Disklavier MIDI Out
638.504;000.146;51;000.570;Disklavier MIDI Out
638.657;000.150;43;000.602;Disklavier MIDI Out
638.658;000.163;55;000.641;Disklavier MIDI Out
638.333;000.550;72;000.695;Disklavier MIDI Out
638.331;000.640;84;000.766;Disklavier MIDI Out
638.812;000.176;48;000.594;Disklavier MIDI Out
638.815;000.174;51;000.570;Disklavier MIDI Out
638.985;000.161;55;000.680;Disklavier MIDI Out
638.986;000.163;43;000.609;Disklavier MIDI Out
639.142;000.168;48;000.586;Disklavier MIDI Out
639.136;000.201;51;000.609;Disklavier MIDI Out
639.297;000.186;55;000.680;Disklavier MIDI Out
639.475;000.037;51;000.570;Disklavier MIDI Out
639.470;000.063;48;000.625;Disklavier MIDI Out
639.457;000.077;75;000.703;Disklavier MIDI Out
639.307;000.240;43;000.602;Disklavier MIDI Out
639.466;000.286;87;000.688;Disklavier MIDI Out
639.753;000.057;31;000.781;Disklavier MIDI Out
640.143;000.149;47;000.547;Disklavier MIDI Out
640.142;000.161;50;000.555;Disklavier MIDI Out
640.317;000.142;55;000.539;Disklavier MIDI Out
640.307;000.155;43;000.531;Disklavier MIDI Out
640.472;000.149;50;000.586;Disklavier MIDI Out
640.464;000.163;47;000.570;Disklavier MIDI Out
639.749;000.917;79;000.758;Disklavier MIDI Out
639.743;000.954;91;000.773;Disklavier MIDI Out
640.620;000.150;43;000.594;Disklavier MIDI Out
640.623;000.170;55;000.609;Disklavier MIDI Out
640.780;000.164;47;000.586;Disklavier MIDI Out
640.778;000.177;50;000.602;Disklavier MIDI Out
640.928;000.033;80;000.711;Disklavier MIDI Out
640.920;000.057;92;000.789;Disklavier MIDI Out
640.941;000.147;43;000.602;Disklavier MIDI Out
640.941;000.147;55;000.633;Disklavier MIDI Out
641.088;000.170;47;000.602;Disklavier MIDI Out
641.093;000.166;50;000.602;Disklavier MIDI Out
641.252;000.050;77;000.688;Disklavier MIDI Out
641.245;000.058;89;000.781;Disklavier MIDI Out
641.249;000.142;55;000.656;Disklavier MIDI Out
641.251;000.145;43;000.609;Disklavier MIDI Out
641.403;000.156;47;000.492;Disklavier MIDI Out
641.405;000.155;50;000.570;Disklavier MIDI Out
641.560;000.033;74;000.703;Disklavier MIDI Out
641.555;000.052;86;000.711;Disklavier MIDI Out
641.558;000.127;55;000.602;Disklavier MIDI Out
641.563;000.179;43;000.547;Disklavier MIDI Out
641.708;000.040;50;000.531;Disklavier MIDI Out
641.707;000.059;47;000.570;Disklavier MIDI Out
641.885;000.053;36;000.641;Disklavier MIDI Out
641.897;000.102;74;000.695;Disklavier MIDI Out
641.898;000.127;86;000.703;Disklavier MIDI Out
642.070;000.143;48;000.555;Disklavier MIDI Out
642.073;000.142;51;000.523;Disklavier MIDI Out
642.233;000.026;87;000.711;Disklavier MIDI Out
642.239;000.029;75;000.648;Disklavier MIDI Out
642.232;000.146;43;000.562;Disklavier MIDI Out
642.232;000.153;55;000.562;Disklavier MIDI Out
642.371;000.194;48;000.555;Disklavier MIDI Out
642.379;000.192;51;000.555;Disklavier MIDI Out
642.561;000.162;43;000.516;Disklavier MIDI Out
642.572;000.155;55;000.531;Disklavier MIDI Out
642.734;000.132;48;000.523;Disklavier MIDI Out
642.740;000.135;51;000.477;Disklavier MIDI Out
642.886;000.136;43;000.531;Disklavier MIDI Out
642.887;000.159;55;000.562;Disklavier MIDI Out
643.049;000.155;48;000.484;Disklavier MIDI Out
643.049;000.156;51;000.516;Disklavier MIDI Out
642.574;000.665;72;000.688;Disklavier MIDI Out
642.575;000.720;84;000.703;Disklavier MIDI Out
643.205;000.164;43;000.570;Disklavier MIDI Out
643.211;000.175;55;000.609;Disklavier MIDI Out
643.374;000.158;48;000.555;Disklavier MIDI Out
643.367;000.198;51;000.594;Disklavier MIDI Out
643.535;000.166;55;000.672;Disklavier MIDI Out
643.696;000.033;51;000.570;Disklavier MIDI Out
643.541;000.214;43;000.586;Disklavier MIDI Out
643.694;000.062;48;000.617;Disklavier MIDI Out
643.691;000.073;75;000.625;Disklavier MIDI Out
643.695;000.246;87;000.664;Disklavier MIDI Out
643.942;000.050;31;000.781;Disklavier MIDI Out
644.278;000.168;50;000.531;Disklavier MIDI Out
644.282;000.166;47;000.516;Disklavier MIDI Out
644.454;000.157;43;000.539;Disklavier MIDI Out
644.446;000.192;55;000.578;Disklavier MIDI Out
644.608;000.174;47;000.641;Disklavier MIDI Out
644.606;000.180;50;000.625;Disklavier MIDI Out
643.940;000.848;79;000.719;Disklavier MIDI Out
643.941;000.876;91;000.711;Disklavier MIDI Out
644.774;000.141;55;000.672;Disklavier MIDI Out
644.770;000.147;43;000.617;Disklavier MIDI Out
644.924;000.173;50;000.625;Disklavier MIDI Out
644.919;000.181;47;000.617;Disklavier MIDI Out
645.072;000.033;80;000.734;Disklavier MIDI Out
645.070;000.044;92;000.758;Disklavier MIDI Out
645.076;000.153;55;000.641;Disklavier MIDI Out
645.082;000.163;43;000.609;Disklavier MIDI Out
645.237;000.164;50;000.617;Disklavier MIDI Out
645.234;000.169;47;000.609;Disklavier MIDI Out
645.396;000.051;77;000.680;Disklavier MIDI Out
645.390;000.062;89;000.797;Disklavier MIDI Out
645.397;000.143;55;000.578;Disklavier MIDI Out
645.399;000.156;43;000.602;Disklavier MIDI Out
645.556;000.154;47;000.578;Disklavier MIDI Out
645.553;000.174;50;000.602;Disklavier MIDI Out
645.701;000.048;74;000.688;Disklavier MIDI Out
645.699;000.067;86;000.727;Disklavier MIDI Out
645.712;000.146;55;000.594;Disklavier MIDI Out
645.715;000.176;43;000.570;Disklavier MIDI Out
645.872;000.039;50;000.562;Disklavier MIDI Out
645.864;000.075;47;000.594;Disklavier MIDI Out
646.052;000.055;36;000.656;Disklavier MIDI Out
646.046;000.094;74;000.773;Disklavier MIDI Out
646.047;000.110;86;000.742;Disklavier MIDI Out
646.253;000.068;47;000.477;Disklavier MIDI Out
646.255;000.136;48;000.461;Disklavier MIDI Out
646.266;000.143;51;000.234;Disklavier MIDI Out
646.383;000.031;75;000.750;Disklavier MIDI Out
646.384;000.047;87;000.789;Disklavier MIDI Out
646.405;000.151;55;000.609;Disklavier MIDI Out
646.399;000.184;43;000.562;Disklavier MIDI Out
646.549;000.169;48;000.539;Disklavier MIDI Out
646.554;000.174;51;000.578;Disklavier MIDI Out
646.726;000.177;43;000.578;Disklavier MIDI Out
646.721;000.183;55;000.609;Disklavier MIDI Out
646.887;000.167;48;000.539;Disklavier MIDI Out
646.893;000.167;51;000.547;Disklavier MIDI Out
647.053;000.162;43;000.594;Disklavier MIDI Out
647.054;000.178;55;000.633;Disklavier MIDI Out
647.220;000.184;51;000.609;Disklavier MIDI Out
647.215;000.197;48;000.586;Disklavier MIDI Out
647.379;000.180;43;000.609;Disklavier MIDI Out
646.723;000.838;72;000.719;Disklavier MIDI Out
647.383;000.189;55;000.680;Disklavier MIDI Out
646.724;000.905;84;000.734;Disklavier MIDI Out
647.548;000.222;51;000.641;Disklavier MIDI Out
647.553;000.223;48;000.602;Disklavier MIDI Out
647.722;000.196;43;000.617;Disklavier MIDI Out
647.723;000.219;55;000.703;Disklavier MIDI Out
647.902;000.056;75;000.703;Disklavier MIDI Out
647.912;000.061;48;000.609;Disklavier MIDI Out
647.898;000.085;87;000.758;Disklavier MIDI Out
647.901;000.091;51;000.641;Disklavier MIDI Out
648.221;000.120;43;000.633;Disklavier MIDI Out
648.215;000.131;55;000.805;Disklavier MIDI Out
648.213;000.150;47;000.508;Disklavier MIDI Out
648.220;000.151;50;000.672;Disklavier MIDI Out
648.205;000.234;79;000.789;Disklavier MIDI Out
648.202;000.247;91;000.781;Disklavier MIDI Out
648.771;000.146;68;000.766;Disklavier MIDI Out
648.776;000.203;56;000.688;Disklavier MIDI Out
649.066;000.058;92;000.727;Disklavier MIDI Out
649.065;000.067;80;000.719;Disklavier MIDI Out
649.266;000.105;65;000.719;Disklavier MIDI Out
649.269;000.133;53;000.664;Disklavier MIDI Out
649.472;000.078;89;000.695;Disklavier MIDI Out
649.482;000.073;77;000.633;Disklavier MIDI Out
649.636;000.071;62;000.734;Disklavier MIDI Out
649.640;000.082;50;000.688;Disklavier MIDI Out
649.800;000.078;74;000.688;Disklavier MIDI Out
649.796;000.085;86;000.688;Disklavier MIDI Out
649.958;000.069;59;000.789;Disklavier MIDI Out
649.962;000.072;47;000.734;Disklavier MIDI Out
650.113;000.078;71;000.633;Disklavier MIDI Out
650.106;000.085;83;000.672;Disklavier MIDI Out
650.276;000.068;56;000.750;Disklavier MIDI Out
650.273;000.085;44;000.703;Disklavier MIDI Out
650.429;000.066;68;000.703;Disklavier MIDI Out
650.430;000.067;80;000.695;Disklavier MIDI Out
650.617;000.033;43;000.484;Disklavier MIDI Out
650.586;000.090;53;000.773;Disklavier MIDI Out
650.585;000.111;41;000.664;Disklavier MIDI Out
650.739;000.080;65;000.664;Disklavier MIDI Out
650.736;000.086;77;000.703;Disklavier MIDI Out
650.904;000.094;50;000.734;Disklavier MIDI Out
650.906;000.111;38;000.672;Disklavier MIDI Out
651.061;000.080;62;000.633;Disklavier MIDI Out
651.060;000.085;74;000.734;Disklavier MIDI Out
651.129;000.053;73;000.164;Disklavier MIDI Out
651.235;000.077;47;000.750;Disklavier MIDI Out
651.239;000.086;35;000.680;Disklavier MIDI Out
651.406;000.070;59;000.695;Disklavier MIDI Out
651.401;000.081;71;000.727;Disklavier MIDI Out
651.593;000.185;44;000.789;Disklavier MIDI Out
651.595;000.208;32;000.680;Disklavier MIDI Out
651.794;000.118;68;000.695;Disklavier MIDI Out
651.797;000.144;56;000.719;Disklavier MIDI Out
652.017;000.116;31;000.648;Disklavier MIDI Out
652.020;000.157;43;000.773;Disklavier MIDI Out
652.255;000.057;55;000.734;Disklavier MIDI Out
652.252;000.074;67;000.688;Disklavier MIDI Out
652.791;000.045;59;000.758;Disklavier MIDI Out
652.786;000.061;71;000.742;Disklavier MIDI Out
652.535;000.315;55;000.781;Disklavier MIDI Out
652.799;000.051;62;000.680;Disklavier MIDI Out
652.534;000.325;50;000.695;Disklavier MIDI Out
652.542;000.318;47;000.680;Disklavier MIDI Out
652.804;000.062;67;000.648;Disklavier MIDI Out
653.372;000.061;69;000.117;Disklavier MIDI Out
653.297;001.047;72;000.750;Disklavier MIDI Out
653.301;001.076;55;000.688;Disklavier MIDI Out
653.303;001.075;48;000.617;Disklavier MIDI Out
653.303;001.076;51;000.688;Disklavier MIDI Out
653.301;001.095;67;000.664;Disklavier MIDI Out
653.296;001.110;60;000.766;Disklavier MIDI Out
653.297;001.118;63;000.703;Disklavier MIDI Out
655.539;000.164;50;000.289;Disklavier MIDI Out
655.541;000.169;55;000.273;Disklavier MIDI Out
655.534;000.182;43;000.242;Disklavier MIDI Out
655.499;000.233;59;000.203;Disklavier MIDI Out
656.733;000.311;36;000.203;Disklavier MIDI Out
656.734;000.312;51;000.164;Disklavier MIDI Out
656.717;000.346;60;000.250;Disklavier MIDI Out
656.742;000.325;55;000.242;Disklavier MIDI Out
