Start;Duration;Pitch;Velocity;Instrument
002.065;001.455;57;000.344;MIDI 01
001.589;001.955;52;000.344;MIDI 01
004.992;000.380;61;000.312;MIDI 01
006.616;000.276;64;000.250;MIDI 01
009.072;000.416;69;000.281;MIDI 01
000.931;009.781;40;000.305;MIDI 01
001.156;009.602;45;000.328;MIDI 01
000.543;010.257;37;000.211;MIDI 01
001.368;009.510;49;000.305;MIDI 01
012.197;000.074;49;000.172;MIDI 01
012.155;000.131;69;000.297;MIDI 01
012.164;000.128;57;000.281;MIDI 01
012.292;000.047;67;000.320;MIDI 01
012.467;000.059;57;000.297;MIDI 01
012.458;000.069;50;000.305;MIDI 01
012.461;000.115;67;000.477;MIDI 01
012.568;000.058;65;000.461;MIDI 01
012.698;000.079;57;000.344;MIDI 01
012.704;000.103;52;000.414;MIDI 01
012.732;000.102;65;000.508;MIDI 01
012.843;000.047;64;000.461;MIDI 01
012.983;000.068;57;000.297;MIDI 01
012.978;000.077;64;000.531;MIDI 01
012.990;000.068;53;000.391;MIDI 01
013.094;000.065;62;000.500;MIDI 01
013.268;000.076;49;000.367;MIDI 01
013.241;000.111;57;000.336;MIDI 01
013.264;000.111;69;000.516;MIDI 01
013.381;000.047;67;000.477;MIDI 01
013.523;000.075;50;000.414;MIDI 01
013.521;000.082;57;000.469;MIDI 01
013.526;000.118;67;000.570;MIDI 01
013.634;000.067;65;000.531;MIDI 01
013.775;000.085;57;000.453;MIDI 01
013.782;000.106;52;000.453;MIDI 01
013.786;000.112;65;000.570;MIDI 01
013.897;000.064;64;000.547;MIDI 01
014.034;000.053;53;000.469;MIDI 01
014.031;000.070;57;000.469;MIDI 01
014.018;000.098;64;000.539;MIDI 01
014.148;000.044;62;000.547;MIDI 01
014.320;000.084;54;000.391;MIDI 01
014.300;000.118;74;000.516;MIDI 01
014.317;000.103;62;000.516;MIDI 01
014.417;000.050;72;000.531;MIDI 01
014.573;000.078;55;000.461;MIDI 01
014.575;000.079;62;000.492;MIDI 01
014.559;000.107;72;000.562;MIDI 01
014.671;000.080;70;000.609;MIDI 01
014.809;000.091;57;000.477;MIDI 01
014.818;000.094;62;000.492;MIDI 01
014.814;000.129;70;000.562;MIDI 01
014.928;000.064;69;000.609;MIDI 01
015.066;000.124;69;000.648;MIDI 01
015.080;000.114;62;000.516;MIDI 01
015.082;000.119;58;000.508;MIDI 01
015.198;000.071;67;000.625;MIDI 01
015.366;000.156;62;000.508;MIDI 01
015.375;000.165;58;000.469;MIDI 01
015.359;000.189;67;000.656;MIDI 01
015.514;000.154;68;000.617;MIDI 01
015.876;001.543;68;000.656;MIDI 01
017.435;000.206;69;000.422;MIDI 01
017.581;000.133;68;000.508;MIDI 01
017.706;000.202;66;000.555;MIDI 01
017.852;000.258;68;000.555;MIDI 01
018.105;000.568;71;000.453;MIDI 01
015.894;003.177;65;000.539;MIDI 01
018.653;000.465;69;000.391;MIDI 01
015.904;003.299;62;000.430;MIDI 01
015.885;003.345;57;000.469;MIDI 01
019.797;002.289;61;000.234;MIDI 01
019.783;002.335;57;000.188;MIDI 01
019.758;002.555;69;000.344;MIDI 01
019.765;002.552;64;000.305;MIDI 01
025.647;002.083;55;000.281;MIDI 01
026.022;001.835;60;000.297;MIDI 01
029.125;000.289;64;000.234;MIDI 01
030.804;000.370;67;000.227;MIDI 01
033.409;000.276;72;000.219;MIDI 01
024.670;010.879;40;000.094;MIDI 01
025.447;010.130;52;000.227;MIDI 01
025.050;010.553;43;000.164;MIDI 01
025.252;010.397;48;000.250;MIDI 01
036.631;000.083;52;000.258;MIDI 01
036.647;000.097;60;000.188;MIDI 01
036.654;000.121;72;000.289;MIDI 01
036.784;000.054;70;000.398;MIDI 01
036.956;000.089;53;000.320;MIDI 01
036.958;000.112;70;000.469;MIDI 01
036.924;000.149;60;000.383;MIDI 01
037.080;000.046;68;000.461;MIDI 01
037.217;000.140;68;000.516;MIDI 01
037.342;000.060;69;000.516;MIDI 01
037.474;000.054;69;000.414;MIDI 01
037.615;000.046;74;000.508;MIDI 01
037.788;000.064;54;000.328;MIDI 01
037.756;000.105;74;000.523;MIDI 01
037.790;000.078;62;000.383;MIDI 01
037.872;000.046;72;000.555;MIDI 01
038.029;000.093;72;000.617;MIDI 01
038.149;000.045;69;000.555;MIDI 01
038.025;000.199;62;000.453;MIDI 01
038.027;000.201;55;000.445;MIDI 01
038.294;000.049;69;000.555;MIDI 01
038.416;000.048;70;000.602;MIDI 01
038.554;000.069;70;000.562;MIDI 01
038.671;000.049;75;000.500;MIDI 01
038.817;000.099;75;000.555;MIDI 01
038.941;000.040;74;000.555;MIDI 01
038.831;000.249;58;000.320;MIDI 01
038.820;000.279;63;000.344;MIDI 01
038.844;000.271;55;000.273;MIDI 01
039.066;000.078;74;000.625;MIDI 01
039.200;000.046;73;000.617;MIDI 01
039.348;000.093;73;000.617;MIDI 01
039.482;000.039;82;000.547;MIDI 01
039.395;000.275;55;000.344;MIDI 01
039.371;000.302;64;000.445;MIDI 01
039.608;000.076;82;000.688;MIDI 01
039.379;000.315;58;000.391;MIDI 01
039.376;000.321;61;000.453;MIDI 01
039.735;000.059;76;000.625;MIDI 01
039.896;000.126;76;000.648;MIDI 01
040.028;000.059;85;000.625;MIDI 01
039.897;000.212;55;000.477;MIDI 01
039.894;000.249;64;000.508;MIDI 01
039.892;000.261;58;000.508;MIDI 01
039.899;000.265;61;000.531;MIDI 01
040.157;000.078;85;000.672;MIDI 01
040.291;000.046;77;000.617;MIDI 01
040.436;000.148;77;000.688;MIDI 01
040.564;000.061;86;000.672;MIDI 01
040.445;000.236;56;000.555;MIDI 01
040.441;000.245;65;000.555;MIDI 01
040.443;000.276;62;000.562;MIDI 01
040.439;000.284;59;000.578;MIDI 01
040.709;000.068;86;000.703;MIDI 01
040.834;000.061;77;000.656;MIDI 01
041.007;000.096;77;000.719;MIDI 01
040.994;000.124;56;000.570;MIDI 01
040.996;000.133;59;000.562;MIDI 01
041.003;000.136;65;000.531;MIDI 01
041.005;000.158;62;000.578;MIDI 01
041.140;000.066;89;000.719;MIDI 01
041.330;000.093;89;000.727;MIDI 01
041.323;000.139;65;000.633;MIDI 01
041.327;000.158;57;000.625;MIDI 01
041.325;000.170;62;000.594;MIDI 01
041.472;000.064;85;000.664;MIDI 01
041.620;000.161;85;000.695;MIDI 01
041.761;000.042;86;000.625;MIDI 01
041.899;000.130;86;000.688;MIDI 01
042.175;000.128;80;000.594;MIDI 01
042.291;000.060;81;000.633;MIDI 01
042.432;000.138;81;000.688;MIDI 01
042.559;000.057;76;000.664;MIDI 01
042.710;000.155;76;000.719;MIDI 01
042.845;000.060;77;000.641;MIDI 01
042.993;000.138;77;000.695;MIDI 01
043.122;000.072;73;000.641;MIDI 01
043.276;000.148;73;000.656;MIDI 01
043.416;000.044;74;000.609;MIDI 01
043.555;000.119;74;000.703;MIDI 01
043.686;000.046;68;000.555;MIDI 01
043.829;000.140;68;000.633;MIDI 01
043.965;000.040;69;000.578;MIDI 01
044.102;000.129;69;000.695;MIDI 01
044.229;000.045;64;000.617;MIDI 01
044.368;000.143;64;000.672;MIDI 01
044.494;000.066;65;000.641;MIDI 01
044.653;000.105;64;000.523;MIDI 01
044.651;000.114;65;000.617;MIDI 01
044.772;000.074;61;000.602;MIDI 01
044.913;000.154;61;000.617;MIDI 01
045.052;000.057;62;000.594;MIDI 01
045.183;000.132;62;000.625;MIDI 01
045.314;000.056;58;000.578;MIDI 01
045.418;000.078;46;000.539;MIDI 01
045.541;000.045;45;000.602;MIDI 01
045.458;000.146;58;000.633;MIDI 01
045.593;000.050;57;000.547;MIDI 01
045.690;000.056;45;000.562;MIDI 01
045.719;000.040;57;000.539;MIDI 01
045.840;000.050;49;000.547;MIDI 01
045.846;000.070;61;000.609;MIDI 01
045.981;000.054;49;000.555;MIDI 01
045.987;000.086;61;000.586;MIDI 01
046.116;000.055;50;000.555;MIDI 01
046.130;000.065;62;000.633;MIDI 01
046.254;000.073;50;000.562;MIDI 01
046.259;000.125;62;000.594;MIDI 01
046.392;000.045;46;000.578;MIDI 01
046.385;000.069;58;000.617;MIDI 01
046.520;000.071;46;000.703;MIDI 01
046.526;000.081;58;000.641;MIDI 01
046.655;000.042;45;000.641;MIDI 01
046.661;000.061;57;000.656;MIDI 01
046.790;000.056;45;000.602;MIDI 01
046.802;000.065;57;000.531;MIDI 01
046.938;000.052;49;000.586;MIDI 01
046.945;000.066;61;000.617;MIDI 01
047.085;000.048;49;000.602;MIDI 01
047.094;000.089;61;000.625;MIDI 01
047.202;000.059;50;000.578;MIDI 01
047.230;000.071;62;000.641;MIDI 01
047.339;000.074;50;000.562;MIDI 01
047.364;000.114;62;000.570;MIDI 01
047.487;000.049;46;000.586;MIDI 01
047.482;000.068;58;000.641;MIDI 01
047.628;000.076;46;000.711;MIDI 01
047.624;000.107;58;000.656;MIDI 01
047.758;000.068;45;000.656;MIDI 01
047.768;000.086;57;000.656;MIDI 01
047.931;000.161;57;000.531;MIDI 01
048.091;000.141;58;000.555;MIDI 01
048.251;000.180;59;000.586;MIDI 01
048.408;000.173;60;000.594;MIDI 01
048.548;000.116;61;000.578;MIDI 01
048.691;000.127;62;000.562;MIDI 01
047.929;000.983;45;000.594;MIDI 01
048.245;000.673;53;000.617;MIDI 01
048.249;000.684;50;000.562;MIDI 01
048.829;000.126;63;000.555;MIDI 01
048.960;000.167;64;000.555;MIDI 01
049.100;000.140;53;000.500;MIDI 01
049.103;000.139;45;000.477;MIDI 01
049.098;000.149;50;000.500;MIDI 01
049.096;000.177;65;000.602;MIDI 01
049.235;000.104;66;000.617;MIDI 01
049.374;000.140;53;000.602;MIDI 01
049.378;000.138;50;000.586;MIDI 01
049.376;000.141;45;000.578;MIDI 01
049.368;000.156;67;000.633;MIDI 01
049.501;000.194;68;000.633;MIDI 01
049.651;000.122;55;000.625;MIDI 01
049.655;000.147;52;000.625;MIDI 01
049.657;000.156;45;000.602;MIDI 01
049.649;000.215;69;000.633;MIDI 01
049.783;000.182;70;000.633;MIDI 01
049.932;000.074;55;000.625;MIDI 01
049.942;000.086;52;000.641;MIDI 01
049.947;000.118;45;000.617;MIDI 01
049.938;000.144;61;000.648;MIDI 01
050.092;000.023;69;000.477;MIDI 01
050.090;000.032;67;000.508;MIDI 01
050.368;000.079;57;000.609;MIDI 01
050.447;000.091;53;000.578;MIDI 01
050.550;000.077;57;000.555;MIDI 01
050.635;000.075;53;000.477;MIDI 01
050.260;000.516;38;000.648;MIDI 01
050.728;000.066;57;000.492;MIDI 01
050.817;000.067;53;000.508;MIDI 01
050.837;000.097;41;000.688;MIDI 01
050.263;000.683;62;000.672;MIDI 01
050.903;000.081;57;000.555;MIDI 01
050.999;000.069;53;000.508;MIDI 01
051.090;000.100;57;000.586;MIDI 01
051.125;000.072;45;000.727;MIDI 01
051.201;000.125;53;000.562;MIDI 01
051.303;000.107;57;000.633;MIDI 01
051.441;000.073;53;000.641;MIDI 01
051.572;000.083;57;000.492;MIDI 01
051.668;000.088;53;000.531;MIDI 01
051.806;000.038;57;000.438;MIDI 01
051.901;000.047;53;000.500;MIDI 01
051.984;000.055;57;000.422;MIDI 01
052.082;000.048;53;000.391;MIDI 01
052.158;000.064;57;000.469;MIDI 01
052.261;000.059;53;000.445;MIDI 01
052.349;000.057;57;000.422;MIDI 01
052.453;000.046;53;000.414;MIDI 01
052.526;000.070;57;000.445;MIDI 01
052.644;000.058;53;000.430;MIDI 01
052.448;000.256;69;000.398;MIDI 01
052.737;000.049;57;000.438;MIDI 01
052.836;000.041;53;000.391;MIDI 01
052.910;000.066;57;000.453;MIDI 01
052.725;000.289;68;000.430;MIDI 01
053.002;000.072;53;000.500;MIDI 01
053.099;000.074;57;000.492;MIDI 01
053.000;000.267;69;000.555;MIDI 01
053.218;000.052;53;000.461;MIDI 01
053.299;000.061;57;000.461;MIDI 01
053.403;000.056;53;000.445;MIDI 01
053.490;000.057;57;000.438;MIDI 01
053.258;000.299;70;000.539;MIDI 01
053.599;000.053;53;000.453;MIDI 01
053.526;000.174;69;000.438;MIDI 01
053.688;000.051;57;000.469;MIDI 01
053.789;000.061;53;000.477;MIDI 01
053.911;000.048;57;000.234;MIDI 01
054.002;000.046;53;000.430;MIDI 01
054.087;000.059;57;000.414;MIDI 01
053.835;000.319;69;000.492;MIDI 01
054.179;000.068;53;000.469;MIDI 01
054.292;000.056;57;000.438;MIDI 01
054.384;000.057;53;000.516;MIDI 01
054.482;000.061;57;000.453;MIDI 01
054.590;000.045;53;000.438;MIDI 01
054.672;000.036;57;000.406;MIDI 01
054.391;000.381;69;000.523;MIDI 01
051.429;003.373;50;000.672;MIDI 01
054.737;000.091;53;000.547;MIDI 01
054.827;000.053;57;000.539;MIDI 01
054.964;000.111;69;000.672;MIDI 01
055.081;000.101;61;000.617;MIDI 01
055.179;000.085;55;000.570;MIDI 01
054.968;000.358;40;000.703;MIDI 01
055.289;000.081;61;000.555;MIDI 01
055.383;000.076;55;000.570;MIDI 01
055.489;000.088;61;000.562;MIDI 01
055.525;000.097;43;000.648;MIDI 01
055.576;000.078;55;000.562;MIDI 01
055.673;000.093;61;000.562;MIDI 01
055.779;000.056;55;000.531;MIDI 01
055.801;000.057;49;000.664;MIDI 01
055.854;000.110;61;000.617;MIDI 01
055.957;000.065;55;000.602;MIDI 01
056.070;000.032;61;000.492;MIDI 01
056.156;000.053;53;000.219;MIDI 01
056.110;000.101;55;000.648;MIDI 01
056.246;000.073;61;000.430;MIDI 01
056.361;000.064;55;000.477;MIDI 01
056.471;000.041;61;000.414;MIDI 01
056.556;000.057;55;000.539;MIDI 01
056.653;000.061;61;000.477;MIDI 01
056.758;000.061;55;000.438;MIDI 01
056.844;000.062;61;000.461;MIDI 01
056.964;000.048;55;000.461;MIDI 01
057.038;000.069;61;000.500;MIDI 01
056.922;000.261;69;000.477;MIDI 01
057.154;000.062;55;000.430;MIDI 01
057.247;000.062;61;000.477;MIDI 01
057.359;000.059;55;000.469;MIDI 01
057.208;000.273;68;000.469;MIDI 01
057.456;000.060;61;000.461;MIDI 01
057.556;000.064;55;000.484;MIDI 01
057.658;000.052;61;000.484;MIDI 01
057.474;000.256;69;000.523;MIDI 01
057.768;000.049;55;000.453;MIDI 01
057.851;000.061;61;000.469;MIDI 01
057.739;000.267;70;000.547;MIDI 01
057.957;000.067;55;000.438;MIDI 01
058.054;000.055;61;000.516;MIDI 01
058.010;000.148;69;000.469;MIDI 01
058.172;000.044;55;000.477;MIDI 01
058.258;000.045;61;000.406;MIDI 01
058.351;000.067;55;000.438;MIDI 01
058.461;000.047;61;000.398;MIDI 01
058.565;000.049;55;000.477;MIDI 01
058.307;000.327;69;000.539;MIDI 01
058.661;000.034;61;000.406;MIDI 01
058.759;000.056;55;000.414;MIDI 01
058.859;000.046;61;000.406;MIDI 01
058.970;000.057;55;000.438;MIDI 01
059.045;000.050;61;000.477;MIDI 01
058.864;000.239;69;000.484;MIDI 01
056.098;003.183;52;000.664;MIDI 01
059.260;000.039;61;000.516;MIDI 01
059.179;000.122;55;000.406;MIDI 01
059.516;000.098;62;000.562;MIDI 01
059.623;000.087;57;000.531;MIDI 01
059.408;000.322;69;000.641;MIDI 01
059.730;000.066;62;000.492;MIDI 01
059.417;000.442;41;000.688;MIDI 01
059.829;000.087;57;000.547;MIDI 01
059.932;000.082;62;000.578;MIDI 01
059.930;000.087;45;000.695;MIDI 01
060.025;000.094;57;000.562;MIDI 01
060.128;000.097;62;000.586;MIDI 01
060.194;000.067;50;000.664;MIDI 01
060.233;000.086;57;000.586;MIDI 01
060.334;000.104;62;000.617;MIDI 01
060.464;000.082;57;000.664;MIDI 01
060.615;000.065;62;000.461;MIDI 01
060.703;000.092;57;000.539;MIDI 01
060.825;000.050;62;000.523;MIDI 01
060.950;000.058;57;000.539;MIDI 01
061.021;000.073;62;000.531;MIDI 01
061.005;000.117;74;000.734;MIDI 01
061.138;000.050;57;000.531;MIDI 01
061.223;000.043;62;000.555;MIDI 01
061.329;000.106;57;000.477;MIDI 01
061.401;000.050;62;000.461;MIDI 01
060.465;000.989;53;000.656;MIDI 01
061.590;000.046;46;000.484;MIDI 01
061.545;000.117;64;000.695;MIDI 01
061.670;000.075;59;000.617;MIDI 01
061.724;000.056;67;000.148;MIDI 01
061.773;000.069;64;000.602;MIDI 01
061.876;000.043;59;000.555;MIDI 01
061.565;000.457;44;000.656;MIDI 01
061.968;000.061;64;000.570;MIDI 01
062.048;000.083;59;000.539;MIDI 01
062.092;000.086;47;000.648;MIDI 01
062.148;000.076;64;000.594;MIDI 01
062.230;000.075;59;000.547;MIDI 01
062.339;000.068;52;000.680;MIDI 01
062.328;000.079;64;000.609;MIDI 01
062.435;000.094;59;000.625;MIDI 01
062.511;000.071;64;000.602;MIDI 01
062.665;000.002;58;000.359;MIDI 01
062.623;000.086;59;000.500;MIDI 01
062.764;000.055;64;000.383;MIDI 01
062.851;000.078;59;000.602;MIDI 01
062.967;000.052;64;000.547;MIDI 01
063.066;000.068;59;000.562;MIDI 01
063.158;000.089;64;000.578;MIDI 01
063.171;000.120;76;000.727;MIDI 01
063.260;000.073;59;000.625;MIDI 01
063.367;000.058;64;000.531;MIDI 01
062.611;000.927;56;000.742;MIDI 01
063.470;000.134;59;000.531;MIDI 01
063.557;000.049;64;000.633;MIDI 01
063.697;000.104;65;000.695;MIDI 01
063.825;000.059;60;000.523;MIDI 01
063.870;000.045;62;000.266;MIDI 01
063.919;000.072;65;000.578;MIDI 01
064.015;000.053;60;000.547;MIDI 01
063.699;000.425;45;000.672;MIDI 01
064.095;000.068;65;000.555;MIDI 01
064.181;000.059;60;000.555;MIDI 01
064.204;000.081;48;000.641;MIDI 01
064.277;000.074;65;000.570;MIDI 01
064.367;000.049;60;000.547;MIDI 01
064.448;000.069;53;000.672;MIDI 01
064.444;000.075;65;000.609;MIDI 01
064.548;000.065;60;000.609;MIDI 01
064.625;000.062;65;000.633;MIDI 01
064.730;000.081;60;000.688;MIDI 01
064.874;000.065;65;000.414;MIDI 01
064.948;000.065;60;000.562;MIDI 01
065.057;000.052;65;000.594;MIDI 01
065.174;000.051;60;000.531;MIDI 01
065.261;000.070;65;000.562;MIDI 01
065.259;000.114;77;000.719;MIDI 01
065.367;000.072;60;000.594;MIDI 01
065.476;000.043;65;000.555;MIDI 01
064.718;000.951;57;000.711;MIDI 01
065.590;000.086;60;000.539;MIDI 01
065.647;000.058;65;000.562;MIDI 01
065.791;000.109;68;000.688;MIDI 01
065.900;000.070;62;000.586;MIDI 01
065.963;000.052;71;000.125;MIDI 01
066.007;000.074;68;000.539;MIDI 01
066.085;000.078;62;000.562;MIDI 01
065.789;000.424;47;000.719;MIDI 01
066.190;000.086;68;000.578;MIDI 01
066.283;000.073;62;000.609;MIDI 01
066.298;000.086;50;000.648;MIDI 01
066.373;000.104;68;000.570;MIDI 01
066.477;000.065;62;000.602;MIDI 01
066.516;000.057;56;000.648;MIDI 01
066.566;000.104;68;000.609;MIDI 01
066.667;000.076;62;000.586;MIDI 01
066.744;000.032;68;000.570;MIDI 01
066.846;000.033;60;000.398;MIDI 01
066.828;000.096;62;000.617;MIDI 01
066.952;000.050;68;000.477;MIDI 01
067.064;000.058;62;000.586;MIDI 01
067.158;000.049;68;000.516;MIDI 01
067.267;000.071;62;000.570;MIDI 01
067.365;000.048;68;000.500;MIDI 01
067.357;000.098;80;000.734;MIDI 01
067.470;000.074;62;000.609;MIDI 01
067.565;000.050;68;000.508;MIDI 01
066.801;000.921;59;000.734;MIDI 01
067.684;000.096;62;000.578;MIDI 01
067.765;000.032;68;000.594;MIDI 01
067.883;000.097;69;000.664;MIDI 01
068.009;000.082;64;000.539;MIDI 01
068.062;000.065;72;000.102;MIDI 01
068.105;000.062;69;000.625;MIDI 01
068.207;000.045;64;000.508;MIDI 01
067.881;000.400;48;000.703;MIDI 01
068.291;000.065;69;000.609;MIDI 01
068.375;000.073;64;000.547;MIDI 01
068.411;000.076;57;000.633;MIDI 01
068.482;000.067;69;000.617;MIDI 01
068.561;000.060;64;000.531;MIDI 01
068.668;000.045;69;000.602;MIDI 01
068.662;000.069;60;000.641;MIDI 01
068.771;000.035;64;000.406;MIDI 01
068.828;000.045;69;000.625;MIDI 01
068.944;000.060;66;000.703;MIDI 01
068.953;000.068;63;000.648;MIDI 01
068.960;000.097;69;000.633;MIDI 01
069.078;000.091;72;000.539;MIDI 01
069.178;000.067;69;000.578;MIDI 01
069.274;000.065;72;000.562;MIDI 01
069.358;000.058;69;000.562;MIDI 01
069.452;000.074;72;000.578;MIDI 01
069.490;000.046;81;000.781;MIDI 01
069.533;000.076;69;000.664;MIDI 01
069.641;000.058;72;000.562;MIDI 01
069.735;000.031;69;000.531;MIDI 01
069.823;000.044;72;000.531;MIDI 01
069.900;000.046;69;000.523;MIDI 01
069.978;000.082;72;000.609;MIDI 01
070.065;000.048;66;000.695;MIDI 01
070.069;000.055;63;000.648;MIDI 01
070.058;000.106;69;000.703;MIDI 01
070.180;000.074;72;000.625;MIDI 01
070.282;000.074;69;000.578;MIDI 01
070.390;000.067;72;000.555;MIDI 01
070.481;000.067;69;000.594;MIDI 01
070.580;000.075;72;000.570;MIDI 01
070.630;000.047;81;000.703;MIDI 01
070.667;000.080;69;000.633;MIDI 01
070.776;000.055;72;000.562;MIDI 01
070.874;000.040;69;000.516;MIDI 01
070.958;000.042;72;000.492;MIDI 01
071.026;000.057;69;000.539;MIDI 01
071.111;000.082;72;000.609;MIDI 01
071.190;000.053;66;000.719;MIDI 01
071.193;000.058;63;000.664;MIDI 01
071.200;000.100;69;000.727;MIDI 01
071.318;000.071;72;000.602;MIDI 01
071.403;000.067;69;000.555;MIDI 01
071.498;000.083;72;000.586;MIDI 01
071.602;000.077;69;000.609;MIDI 01
071.701;000.075;72;000.586;MIDI 01
071.768;000.036;81;000.734;MIDI 01
071.790;000.094;69;000.664;MIDI 01
071.910;000.072;72;000.586;MIDI 01
071.999;000.093;69;000.633;MIDI 01
072.103;000.070;72;000.602;MIDI 01
072.177;000.115;69;000.578;MIDI 01
072.292;000.058;72;000.664;MIDI 01
072.518;000.044;71;000.594;MIDI 01
072.525;000.041;68;000.602;MIDI 01
072.509;000.072;80;000.695;MIDI 01
072.520;000.073;52;000.570;MIDI 01
072.662;000.127;64;000.570;MIDI 01
072.805;000.080;59;000.461;MIDI 01
072.802;000.102;62;000.500;MIDI 01
072.958;000.096;64;000.461;MIDI 01
073.075;000.048;65;000.461;MIDI 01
073.199;000.056;64;000.484;MIDI 01
073.328;000.059;62;000.461;MIDI 01
073.326;000.064;59;000.461;MIDI 01
073.324;000.118;83;000.477;MIDI 01
073.454;000.060;80;000.500;MIDI 01
073.468;000.064;64;000.469;MIDI 01
073.584;000.075;52;000.531;MIDI 01
073.591;000.112;76;000.562;MIDI 01
073.709;000.041;77;000.570;MIDI 01
073.702;000.104;64;000.508;MIDI 01
073.852;000.067;59;000.445;MIDI 01
073.859;000.075;77;000.633;MIDI 01
073.847;000.100;62;000.469;MIDI 01
073.972;000.041;74;000.539;MIDI 01
074.009;000.104;64;000.414;MIDI 01
074.134;000.059;65;000.453;MIDI 01
074.272;000.070;64;000.492;MIDI 01
074.400;000.057;59;000.438;MIDI 01
074.415;000.053;62;000.375;MIDI 01
074.395;000.111;83;000.469;MIDI 01
074.518;000.050;80;000.500;MIDI 01
074.534;000.061;64;000.430;MIDI 01
074.656;000.058;52;000.523;MIDI 01
074.658;000.068;76;000.523;MIDI 01
074.777;000.048;77;000.531;MIDI 01
074.767;000.109;64;000.461;MIDI 01
074.919;000.080;59;000.438;MIDI 01
074.929;000.098;77;000.586;MIDI 01
074.927;000.102;62;000.375;MIDI 01
075.045;000.048;74;000.547;MIDI 01
075.067;000.116;64;000.445;MIDI 01
075.213;000.043;65;000.445;MIDI 01
075.328;000.075;64;000.516;MIDI 01
075.458;000.066;59;000.492;MIDI 01
075.472;000.056;62;000.445;MIDI 01
075.461;000.125;83;000.461;MIDI 01
075.580;000.073;80;000.523;MIDI 01
075.591;000.065;64;000.484;MIDI 01
075.718;000.058;52;000.531;MIDI 01
075.730;000.072;76;000.508;MIDI 01
075.841;000.051;77;000.547;MIDI 01
075.828;000.117;64;000.492;MIDI 01
075.984;000.060;59;000.453;MIDI 01
075.975;000.091;62;000.484;MIDI 01
075.981;000.108;77;000.570;MIDI 01
076.104;000.041;74;000.594;MIDI 01
076.108;000.089;64;000.523;MIDI 01
076.244;000.087;52;000.547;MIDI 01
076.251;000.103;74;000.625;MIDI 01
076.358;000.041;72;000.570;MIDI 01
076.369;000.119;64;000.523;MIDI 01
076.498;000.108;56;000.484;MIDI 01
076.501;000.120;59;000.477;MIDI 01
076.509;000.119;72;000.625;MIDI 01
076.627;000.041;71;000.562;MIDI 01
076.643;000.079;64;000.547;MIDI 01
076.768;000.079;52;000.523;MIDI 01
076.802;000.090;72;000.484;MIDI 01
076.799;000.167;71;000.453;MIDI 01
076.938;000.049;69;000.445;MIDI 01
076.900;000.110;64;000.453;MIDI 01
077.035;000.071;57;000.430;MIDI 01
077.040;000.085;60;000.375;MIDI 01
077.167;000.116;64;000.531;MIDI 01
077.303;000.056;65;000.445;MIDI 01
077.410;000.120;64;000.586;MIDI 01
077.551;000.077;57;000.508;MIDI 01
077.556;000.093;60;000.461;MIDI 01
077.544;000.112;84;000.578;MIDI 01
077.660;000.041;81;000.602;MIDI 01
077.682;000.061;64;000.570;MIDI 01
077.796;000.076;52;000.562;MIDI 01
077.805;000.128;75;000.617;MIDI 01
077.933;000.052;76;000.633;MIDI 01
077.929;000.111;64;000.547;MIDI 01
078.058;000.084;57;000.461;MIDI 01
078.056;000.110;60;000.469;MIDI 01
078.089;000.112;76;000.602;MIDI 01
078.201;000.050;72;000.586;MIDI 01
078.214;000.130;64;000.477;MIDI 01
078.356;000.057;65;000.516;MIDI 01
078.480;000.092;64;000.531;MIDI 01
078.608;000.082;57;000.492;MIDI 01
078.623;000.076;60;000.445;MIDI 01
078.603;000.107;84;000.492;MIDI 01
078.715;000.048;81;000.555;MIDI 01
078.748;000.090;64;000.523;MIDI 01
078.864;000.074;52;000.531;MIDI 01
078.861;000.129;75;000.570;MIDI 01
078.979;000.067;76;000.633;MIDI 01
078.991;000.106;64;000.555;MIDI 01
079.119;000.086;57;000.500;MIDI 01
079.117;000.113;60;000.484;MIDI 01
079.136;000.127;76;000.625;MIDI 01
079.261;000.048;72;000.555;MIDI 01
079.268;000.123;64;000.477;MIDI 01
079.417;000.048;65;000.430;MIDI 01
079.536;000.097;64;000.539;MIDI 01
079.672;000.066;57;000.430;MIDI 01
079.677;000.074;60;000.430;MIDI 01
079.680;000.113;84;000.492;MIDI 01
079.801;000.040;81;000.531;MIDI 01
079.798;000.078;64;000.523;MIDI 01
079.928;000.073;52;000.547;MIDI 01
079.945;000.128;75;000.570;MIDI 01
080.073;000.039;76;000.562;MIDI 01
080.050;000.105;64;000.477;MIDI 01
080.179;000.099;57;000.461;MIDI 01
080.175;000.119;60;000.477;MIDI 01
080.205;000.104;76;000.531;MIDI 01
080.317;000.044;72;000.547;MIDI 01
080.328;000.086;64;000.523;MIDI 01
080.456;000.073;52;000.516;MIDI 01
080.458;000.132;72;000.594;MIDI 01
080.590;000.041;71;000.508;MIDI 01
080.580;000.102;64;000.500;MIDI 01
080.701;000.098;57;000.430;MIDI 01
080.717;000.102;60;000.328;MIDI 01
080.731;000.106;71;000.547;MIDI 01
080.855;000.034;69;000.500;MIDI 01
080.853;000.065;64;000.469;MIDI 01
080.970;000.056;52;000.453;MIDI 01
080.984;000.096;69;000.539;MIDI 01
081.109;000.081;68;000.516;MIDI 01
081.116;000.092;64;000.383;MIDI 01
081.257;000.078;71;000.461;MIDI 01
081.253;000.084;59;000.352;MIDI 01
081.266;000.076;62;000.359;MIDI 01
081.388;000.107;64;000.438;MIDI 01
081.529;000.050;65;000.406;MIDI 01
081.649;000.070;64;000.484;MIDI 01
081.792;000.051;59;000.414;MIDI 01
081.791;000.056;62;000.430;MIDI 01
081.796;000.095;89;000.484;MIDI 01
081.907;000.045;86;000.523;MIDI 01
081.910;000.094;64;000.477;MIDI 01
082.040;000.054;52;000.500;MIDI 01
082.055;000.115;85;000.570;MIDI 01
082.168;000.107;64;000.500;MIDI 01
082.176;000.100;86;000.547;MIDI 01
082.304;000.086;83;000.570;MIDI 01
082.309;000.089;59;000.445;MIDI 01
082.307;000.103;62;000.422;MIDI 01
082.450;000.117;64;000.523;MIDI 01
082.576;000.083;65;000.570;MIDI 01
082.704;000.111;64;000.586;MIDI 01
082.839;000.086;59;000.555;MIDI 01
082.841;000.087;62;000.531;MIDI 01
082.850;000.117;89;000.633;MIDI 01
082.958;000.067;86;000.594;MIDI 01
082.972;000.080;64;000.578;MIDI 01
083.101;000.079;52;000.609;MIDI 01
083.109;000.134;85;000.672;MIDI 01
083.235;000.101;86;000.648;MIDI 01
083.224;000.131;64;000.586;MIDI 01
083.378;000.085;83;000.633;MIDI 01
083.373;000.102;59;000.562;MIDI 01
083.369;000.108;62;000.594;MIDI 01
083.511;000.118;64;000.641;MIDI 01
083.633;000.084;65;000.633;MIDI 01
083.757;000.076;64;000.586;MIDI 01
083.894;000.080;59;000.578;MIDI 01
083.878;000.143;89;000.656;MIDI 01
083.907;000.134;62;000.570;MIDI 01
083.997;000.072;64;000.625;MIDI 01
084.010;000.069;86;000.656;MIDI 01
084.175;000.106;83;000.719;MIDI 01
084.321;000.050;86;000.617;MIDI 01
084.172;000.326;52;000.609;MIDI 01
084.166;000.340;62;000.672;MIDI 01
084.169;000.340;59;000.617;MIDI 01
084.465;000.117;80;000.680;MIDI 01
084.585;000.068;83;000.594;MIDI 01
084.736;000.122;77;000.672;MIDI 01
084.867;000.067;80;000.633;MIDI 01
085.014;000.124;74;000.703;MIDI 01
085.150;000.049;77;000.625;MIDI 01
085.287;000.113;71;000.703;MIDI 01
085.415;000.067;74;000.641;MIDI 01
085.567;000.104;68;000.664;MIDI 01
085.680;000.040;71;000.570;MIDI 01
085.820;000.125;65;000.664;MIDI 01
085.951;000.046;68;000.562;MIDI 01
086.084;000.124;62;000.664;MIDI 01
086.216;000.054;65;000.648;MIDI 01
086.355;000.130;59;000.719;MIDI 01
086.475;000.065;62;000.641;MIDI 01
086.638;000.157;44;000.609;MIDI 01
086.633;000.168;56;000.648;MIDI 01
086.776;000.126;59;000.609;MIDI 01
086.783;000.126;47;000.531;MIDI 01
086.919;000.181;50;000.641;MIDI 01
086.917;000.186;38;000.594;MIDI 01
087.051;000.166;59;000.617;MIDI 01
087.057;000.167;47;000.609;MIDI 01
087.190;000.135;56;000.641;MIDI 01
087.192;000.149;44;000.656;MIDI 01
087.321;000.081;50;000.625;MIDI 01
087.319;000.092;38;000.625;MIDI 01
087.489;000.061;48;000.719;MIDI 01
087.486;000.066;36;000.695;MIDI 01
087.831;000.050;36;000.672;MIDI 01
087.829;000.054;45;000.695;MIDI 01
087.827;000.070;40;000.680;MIDI 01
087.833;000.088;48;000.680;MIDI 01
087.835;000.088;52;000.672;MIDI 01
087.838;000.102;57;000.695;MIDI 01
088.219;000.980;46;000.711;MIDI 01
088.215;001.151;58;000.719;MIDI 01
088.225;001.572;53;000.695;MIDI 01
089.441;000.367;57;000.633;MIDI 01
088.223;001.590;41;000.641;MIDI 01
089.444;000.373;45;000.609;MIDI 01
088.221;001.600;50;000.672;MIDI 01
088.217;001.605;38;000.625;MIDI 01
089.821;000.046;54;000.289;MIDI 01
089.750;000.210;44;000.664;MIDI 01
089.752;000.237;56;000.672;MIDI 01
090.052;000.043;36;000.586;MIDI 01
090.054;000.043;48;000.648;MIDI 01
090.060;000.049;40;000.570;MIDI 01
090.049;000.066;52;000.617;MIDI 01
090.056;000.065;45;000.672;MIDI 01
090.058;000.072;57;000.680;MIDI 01
090.375;000.060;48;000.578;MIDI 01
090.374;000.077;60;000.641;MIDI 01
090.362;000.091;52;000.461;MIDI 01
090.370;000.085;64;000.656;MIDI 01
090.377;000.081;57;000.617;MIDI 01
090.372;000.106;69;000.680;MIDI 01
090.710;000.946;58;000.695;MIDI 01
090.708;001.180;70;000.734;MIDI 01
090.720;001.494;53;000.625;MIDI 01
090.713;001.505;50;000.602;MIDI 01
090.717;001.511;65;000.719;MIDI 01
091.903;000.328;69;000.633;MIDI 01
090.715;001.527;62;000.672;MIDI 01
091.909;000.361;57;000.602;MIDI 01
092.194;000.185;56;000.648;MIDI 01
092.188;000.222;68;000.656;MIDI 01
092.477;000.045;48;000.594;MIDI 01
092.484;000.040;60;000.562;MIDI 01
092.482;000.052;64;000.469;MIDI 01
092.479;000.057;52;000.469;MIDI 01
092.490;000.057;57;000.570;MIDI 01
092.492;000.069;69;000.641;MIDI 01
092.780;000.037;60;000.500;MIDI 01
092.787;000.032;64;000.445;MIDI 01
092.783;000.039;65;000.508;MIDI 01
092.775;000.049;69;000.648;MIDI 01
092.771;000.054;81;000.719;MIDI 01
093.085;000.633;82;000.664;MIDI 01
093.081;000.644;70;000.672;MIDI 01
093.088;000.652;62;000.531;MIDI 01
093.083;000.665;65;000.602;MIDI 01
093.850;000.066;71;000.625;MIDI 01
093.848;000.082;63;000.539;MIDI 01
093.852;000.080;83;000.664;MIDI 01
093.844;000.106;66;000.609;MIDI 01
094.149;000.467;72;000.680;MIDI 01
094.151;000.482;64;000.617;MIDI 01
094.144;000.505;84;000.727;MIDI 01
094.147;000.536;69;000.617;MIDI 01
094.865;000.180;73;000.578;MIDI 01
094.875;000.234;64;000.547;MIDI 01
094.851;000.266;85;000.641;MIDI 01
095.138;000.112;74;000.594;MIDI 01
095.132;000.175;86;000.609;MIDI 01
095.125;000.302;65;000.516;MIDI 01
095.398;000.073;76;000.570;MIDI 01
095.402;000.186;88;000.570;MIDI 01
094.867;000.814;69;000.492;MIDI 01
095.678;000.028;89;000.594;MIDI 01
095.675;000.041;62;000.508;MIDI 01
095.385;000.336;61;000.531;MIDI 01
095.684;000.042;77;000.500;MIDI 01
095.961;000.111;62;000.461;MIDI 01
095.943;000.139;58;000.445;MIDI 01
095.953;000.310;77;000.578;MIDI 01
095.964;000.305;65;000.477;MIDI 01
095.979;000.300;50;000.352;MIDI 01
096.245;000.093;60;000.398;MIDI 01
096.325;000.050;53;000.023;MIDI 01
096.233;000.161;52;000.328;MIDI 01
096.219;000.225;57;000.391;MIDI 01
096.492;000.057;56;000.555;MIDI 01
096.502;000.208;64;000.508;MIDI 01
096.789;000.038;57;000.523;MIDI 01
096.786;000.093;45;000.484;MIDI 01
097.110;000.001;35;000.398;MIDI 01
096.496;000.620;76;000.586;MIDI 01
097.081;000.039;33;000.656;MIDI 01
096.796;000.339;69;000.617;MIDI 01
097.628;000.054;61;000.594;MIDI 01
097.638;000.072;64;000.625;MIDI 01
097.894;000.053;62;000.648;MIDI 01
097.898;000.057;65;000.648;MIDI 01
097.380;001.080;34;000.734;MIDI 01
098.166;000.297;65;000.703;MIDI 01
098.160;000.317;74;000.719;MIDI 01
098.429;000.225;33;000.617;MIDI 01
098.675;000.082;65;000.617;MIDI 01
098.682;000.124;32;000.586;MIDI 01
098.671;000.333;74;000.648;MIDI 01
098.935;000.101;33;000.641;MIDI 01
098.945;000.225;73;000.672;MIDI 01
098.943;000.283;64;000.641;MIDI 01
099.206;000.118;33;000.688;MIDI 01
099.508;000.045;30;000.445;MIDI 01
099.720;000.066;61;000.617;MIDI 01
099.741;000.067;64;000.602;MIDI 01
099.981;000.048;62;000.680;MIDI 01
099.984;000.057;65;000.664;MIDI 01
100.261;000.244;77;000.734;MIDI 01
100.259;000.255;74;000.727;MIDI 01
099.473;001.124;34;000.758;MIDI 01
100.526;000.257;33;000.594;MIDI 01
100.756;000.140;32;000.617;MIDI 01
100.736;000.194;74;000.680;MIDI 01
100.734;000.205;77;000.656;MIDI 01
100.994;000.112;33;000.625;MIDI 01
101.000;000.128;76;000.688;MIDI 01
101.004;000.144;73;000.695;MIDI 01
101.258;000.128;33;000.680;MIDI 01
101.562;000.130;29;000.086;MIDI 01
101.771;000.065;61;000.648;MIDI 01
101.787;000.067;64;000.625;MIDI 01
102.021;000.047;62;000.680;MIDI 01
102.024;000.058;65;000.688;MIDI 01
102.299;000.249;74;000.719;MIDI 01
102.301;000.272;77;000.719;MIDI 01
101.513;001.133;34;000.773;MIDI 01
102.927;000.026;88;000.445;MIDI 01
102.555;000.460;33;000.625;MIDI 01
102.900;000.176;32;000.570;MIDI 01
103.270;000.114;31;000.453;MIDI 01
102.897;000.524;89;000.664;MIDI 01
102.893;000.549;86;000.695;MIDI 01
103.395;000.135;30;000.516;MIDI 01
103.531;000.105;31;000.500;MIDI 01
103.649;000.091;33;000.508;MIDI 01
103.780;000.091;35;000.445;MIDI 01
103.924;000.144;31;000.312;MIDI 01
104.044;000.078;33;000.461;MIDI 01
104.170;000.060;35;000.477;MIDI 01
104.015;000.253;77;000.461;MIDI 01
104.021;000.288;74;000.461;MIDI 01
104.296;000.079;36;000.461;MIDI 01
104.406;000.127;35;000.453;MIDI 01
104.280;000.323;72;000.430;MIDI 01
104.530;000.097;36;000.484;MIDI 01
104.268;000.385;76;000.453;MIDI 01
104.652;000.054;38;000.445;MIDI 01
104.776;000.107;40;000.453;MIDI 01
104.911;000.098;39;000.445;MIDI 01
105.049;000.078;40;000.461;MIDI 01
105.182;000.077;39;000.445;MIDI 01
105.064;000.305;84;000.414;MIDI 01
105.046;000.344;88;000.445;MIDI 01
105.299;000.115;40;000.438;MIDI 01
105.424;000.144;39;000.445;MIDI 01
105.333;000.235;86;000.414;MIDI 01
105.347;000.224;83;000.414;MIDI 01
105.584;000.135;40;000.453;MIDI 01
105.721;000.125;42;000.469;MIDI 01
105.847;000.082;44;000.469;MIDI 01
105.929;000.179;40;000.414;MIDI 01
106.098;000.134;42;000.453;MIDI 01
106.242;000.070;44;000.445;MIDI 01
106.096;000.257;71;000.375;MIDI 01
106.091;000.272;74;000.414;MIDI 01
106.371;000.100;45;000.445;MIDI 01
106.345;000.241;69;000.438;MIDI 01
106.347;000.297;72;000.414;MIDI 01
106.487;000.213;44;000.500;MIDI 01
106.619;000.139;45;000.539;MIDI 01
106.757;000.114;47;000.477;MIDI 01
106.894;000.112;48;000.492;MIDI 01
107.006;000.183;45;000.508;MIDI 01
107.159;000.120;47;000.461;MIDI 01
107.289;000.085;48;000.477;MIDI 01
107.125;000.352;84;000.508;MIDI 01
107.421;000.102;50;000.398;MIDI 01
107.386;000.255;83;000.469;MIDI 01
107.120;000.528;81;000.500;MIDI 01
107.519;000.149;49;000.484;MIDI 01
107.634;000.136;50;000.461;MIDI 01
107.764;000.103;52;000.539;MIDI 01
107.894;000.134;53;000.531;MIDI 01
108.014;000.127;50;000.531;MIDI 01
108.141;000.100;52;000.531;MIDI 01
108.268;000.035;53;000.516;MIDI 01
108.136;000.258;69;000.508;MIDI 01
108.380;000.042;52;000.539;MIDI 01
108.543;000.109;63;000.500;MIDI 01
108.393;000.330;68;000.508;MIDI 01
108.126;000.600;71;000.508;MIDI 01
108.676;000.111;64;000.508;MIDI 01
108.794;000.108;63;000.578;MIDI 01
108.918;000.117;64;000.586;MIDI 01
109.042;000.126;63;000.594;MIDI 01
109.182;000.087;64;000.602;MIDI 01
109.330;000.046;52;000.500;MIDI 01
109.165;000.273;71;000.508;MIDI 01
109.157;000.366;80;000.609;MIDI 01
109.534;000.188;81;000.469;MIDI 01
109.673;000.117;76;000.469;MIDI 01
109.558;000.328;64;000.398;MIDI 01
109.546;000.349;60;000.367;MIDI 01
109.819;000.088;72;000.477;MIDI 01
109.947;000.289;84;000.531;MIDI 01
110.098;000.165;83;000.531;MIDI 01
110.235;000.159;80;000.570;MIDI 01
110.076;000.345;62;000.383;MIDI 01
110.069;000.458;59;000.461;MIDI 01
110.359;000.293;76;000.570;MIDI 01
110.627;000.167;84;000.555;MIDI 01
110.481;000.319;86;000.625;MIDI 01
110.610;000.285;57;000.422;MIDI 01
110.753;000.145;81;000.594;MIDI 01
110.642;000.278;60;000.312;MIDI 01
111.010;000.157;88;000.609;MIDI 01
111.147;000.122;87;000.578;MIDI 01
111.184;000.205;59;000.391;MIDI 01
111.273;000.132;88;000.539;MIDI 01
111.161;000.252;56;000.438;MIDI 01
109.506;001.925;52;000.359;MIDI 01
110.892;000.628;76;000.570;MIDI 01
111.419;000.109;87;000.531;MIDI 01
111.528;000.050;88;000.586;MIDI 01
111.693;000.193;57;000.438;MIDI 01
111.714;000.304;88;000.570;MIDI 01
111.876;000.158;52;000.398;MIDI 01
111.737;000.316;84;000.391;MIDI 01
112.016;000.066;48;000.438;MIDI 01
111.722;000.405;76;000.375;MIDI 01
112.121;000.147;57;000.469;MIDI 01
112.263;000.161;59;000.531;MIDI 01
112.276;000.251;83;000.523;MIDI 01
112.402;000.146;56;000.516;MIDI 01
112.281;000.299;86;000.562;MIDI 01
112.293;000.332;74;000.477;MIDI 01
112.657;000.148;59;000.547;MIDI 01
112.545;000.332;52;000.516;MIDI 01
112.791;000.167;60;000.547;MIDI 01
112.946;000.113;57;000.469;MIDI 01
112.816;000.249;81;000.539;MIDI 01
112.818;000.268;84;000.539;MIDI 01
112.829;000.305;72;000.469;MIDI 01
113.062;000.078;52;000.477;MIDI 01
113.218;000.118;64;000.484;MIDI 01
113.352;000.089;63;000.492;MIDI 01
113.499;000.060;64;000.430;MIDI 01
113.358;000.304;71;000.406;MIDI 01
113.609;000.079;63;000.461;MIDI 01
113.364;000.350;80;000.438;MIDI 01
113.737;000.047;64;000.391;MIDI 01
113.334;000.528;83;000.539;MIDI 01
113.886;000.124;81;000.430;MIDI 01
114.020;000.106;76;000.484;MIDI 01
113.862;000.366;52;000.406;MIDI 01
114.149;000.151;72;000.477;MIDI 01
114.165;000.221;64;000.414;MIDI 01
114.156;000.250;60;000.367;MIDI 01
114.422;000.160;83;000.523;MIDI 01
114.294;000.293;84;000.523;MIDI 01
114.553;000.158;80;000.562;MIDI 01
114.400;000.390;52;000.477;MIDI 01
114.673;000.245;59;000.469;MIDI 01
114.674;000.258;62;000.453;MIDI 01
114.677;000.278;76;000.547;MIDI 01
114.932;000.162;84;000.555;MIDI 01
114.797;000.304;86;000.602;MIDI 01
115.055;000.139;81;000.602;MIDI 01
114.938;000.258;52;000.500;MIDI 01
115.186;000.167;57;000.414;MIDI 01
115.213;000.207;60;000.406;MIDI 01
115.295;000.150;88;000.562;MIDI 01
115.424;000.120;87;000.570;MIDI 01
115.417;000.239;52;000.445;MIDI 01
115.561;000.118;88;000.508;MIDI 01
115.697;000.077;59;000.352;MIDI 01
115.679;000.111;56;000.422;MIDI 01
115.703;000.097;87;000.500;MIDI 01
115.178;000.628;76;000.531;MIDI 01
115.811;000.186;88;000.508;MIDI 01
115.976;000.161;57;000.414;MIDI 01
116.127;000.117;52;000.422;MIDI 01
116.258;000.068;48;000.391;MIDI 01
116.248;000.243;88;000.469;MIDI 01
116.389;000.105;57;000.422;MIDI 01
116.254;000.249;84;000.453;MIDI 01
115.966;000.611;76;000.461;MIDI 01
116.499;000.190;59;000.508;MIDI 01
116.632;000.138;56;000.484;MIDI 01
116.789;000.209;83;000.359;MIDI 01
116.898;000.119;59;000.469;MIDI 01
116.767;000.267;86;000.500;MIDI 01
116.770;000.325;74;000.461;MIDI 01
116.769;000.348;52;000.469;MIDI 01
117.030;000.166;60;000.531;MIDI 01
117.170;000.112;57;000.500;MIDI 01
117.287;000.098;52;000.484;MIDI 01
117.290;000.186;81;000.508;MIDI 01
117.295;000.208;84;000.508;MIDI 01
117.302;000.251;72;000.469;MIDI 01
117.459;000.100;64;000.500;MIDI 01
117.582;000.083;63;000.492;MIDI 01
117.723;000.061;64;000.445;MIDI 01
117.836;000.081;63;000.422;MIDI 01
117.841;000.112;80;000.422;MIDI 01
117.843;000.135;71;000.383;MIDI 01
117.959;000.066;64;000.414;MIDI 01
117.832;000.321;83;000.430;MIDI 01
118.124;000.117;81;000.484;MIDI 01
118.254;000.109;76;000.469;MIDI 01
118.101;000.392;52;000.422;MIDI 01
118.382;000.169;72;000.508;MIDI 01
118.405;000.227;64;000.414;MIDI 01
118.392;000.246;60;000.398;MIDI 01
118.653;000.152;83;000.539;MIDI 01
118.521;000.294;84;000.562;MIDI 01
118.772;000.169;80;000.594;MIDI 01
118.650;000.309;52;000.484;MIDI 01
118.912;000.174;62;000.477;MIDI 01
118.910;000.202;59;000.500;MIDI 01
118.899;000.277;76;000.594;MIDI 01
119.032;000.282;86;000.617;MIDI 01
119.169;000.158;84;000.555;MIDI 01
119.293;000.139;81;000.594;MIDI 01
119.153;000.304;52;000.477;MIDI 01
119.423;000.132;57;000.438;MIDI 01
119.431;000.228;60;000.445;MIDI 01
119.544;000.161;88;000.602;MIDI 01
119.675;000.127;87;000.609;MIDI 01
119.668;000.235;52;000.414;MIDI 01
119.815;000.126;88;000.547;MIDI 01
119.945;000.065;56;000.391;MIDI 01
119.964;000.064;59;000.359;MIDI 01
119.956;000.077;87;000.516;MIDI 01
119.419;000.811;76;000.602;MIDI 01
120.230;000.170;84;000.492;MIDI 01
120.073;000.329;88;000.547;MIDI 01
120.360;000.119;81;000.539;MIDI 01
120.452;000.243;57;000.500;MIDI 01
120.204;000.493;45;000.438;MIDI 01
120.600;000.171;88;000.523;MIDI 01
120.739;000.123;87;000.562;MIDI 01
120.877;000.135;88;000.539;MIDI 01
121.021;000.077;87;000.531;MIDI 01
121.023;000.082;56;000.477;MIDI 01
121.019;000.183;59;000.422;MIDI 01
120.476;000.841;76;000.516;MIDI 01
121.132;000.255;88;000.438;MIDI 01
121.265;000.167;84;000.500;MIDI 01
120.727;000.753;52;000.547;MIDI 01
121.404;000.127;81;000.516;MIDI 01
121.258;000.298;57;000.523;MIDI 01
121.537;000.209;60;000.469;MIDI 01
121.652;000.118;88;000.500;MIDI 01
121.784;000.096;87;000.438;MIDI 01
121.916;000.105;88;000.500;MIDI 01
122.059;000.042;59;000.297;MIDI 01
122.053;000.057;56;000.406;MIDI 01
121.776;000.360;52;000.438;MIDI 01
122.064;000.086;87;000.430;MIDI 01
121.527;000.862;76;000.461;MIDI 01
122.186;000.265;88;000.438;MIDI 01
122.396;000.139;57;000.273;MIDI 01
122.366;000.224;81;000.383;MIDI 01
122.433;000.184;45;000.320;MIDI 01
123.010;000.303;57;000.227;MIDI 01
123.013;000.305;45;000.141;MIDI 01
123.008;000.317;33;000.227;MIDI 01
123.604;000.229;57;000.414;MIDI 01
123.603;000.238;45;000.312;MIDI 01
123.622;000.246;33;000.289;MIDI 01
124.213;000.242;57;000.578;MIDI 01
124.221;000.280;45;000.445;MIDI 01
124.226;000.299;33;000.438;MIDI 01
124.986;001.755;45;000.562;MIDI 01
124.979;001.846;33;000.555;MIDI 01
124.982;002.421;57;000.656;MIDI 01
127.421;000.211;43;000.297;MIDI 01
127.401;000.290;31;000.297;MIDI 01
127.403;000.668;55;000.367;MIDI 01
127.983;000.172;29;000.375;MIDI 01
127.990;000.383;41;000.344;MIDI 01
127.998;000.637;53;000.438;MIDI 01
128.645;000.757;52;000.312;MIDI 01
128.643;000.781;40;000.297;MIDI 01
129.364;000.550;53;000.312;MIDI 01
129.338;000.636;41;000.242;MIDI 01
129.889;000.661;38;000.203;MIDI 01
129.873;000.800;50;000.219;MIDI 01
131.576;002.019;52;000.336;MIDI 01
132.093;001.566;57;000.328;MIDI 01
134.384;000.297;61;000.352;MIDI 01
135.651;000.344;64;000.289;MIDI 01
137.565;001.241;69;000.227;MIDI 01
130.938;008.736;40;000.258;MIDI 01
130.569;009.276;37;000.273;MIDI 01
131.140;008.770;45;000.266;MIDI 01
131.332;008.625;49;000.336;MIDI 01
141.017;000.075;49;000.227;MIDI 01
140.982;000.132;69;000.328;MIDI 01
140.996;000.121;57;000.227;MIDI 01
141.115;000.057;67;000.375;MIDI 01
141.296;000.055;57;000.320;MIDI 01
141.282;000.071;50;000.312;MIDI 01
141.287;000.116;67;000.500;MIDI 01
141.406;000.053;65;000.430;MIDI 01
141.546;000.081;52;000.383;MIDI 01
141.540;000.097;57;000.312;MIDI 01
141.581;000.142;65;000.312;MIDI 01
141.606;000.129;64;000.359;MIDI 01
142.113;000.079;49;000.289;MIDI 01
142.119;000.085;57;000.328;MIDI 01
142.102;000.128;69;000.375;MIDI 01
142.223;000.051;67;000.406;MIDI 01
142.378;000.077;57;000.398;MIDI 01
142.392;000.071;50;000.328;MIDI 01
142.383;000.117;67;000.516;MIDI 01
142.500;000.054;65;000.422;MIDI 01
142.637;000.080;57;000.359;MIDI 01
142.628;000.102;52;000.430;MIDI 01
142.656;000.100;65;000.508;MIDI 01
142.764;000.041;64;000.461;MIDI 01
142.904;000.080;64;000.469;MIDI 01
142.931;000.054;57;000.375;MIDI 01
142.942;000.048;53;000.281;MIDI 01
142.996;000.050;62;000.516;MIDI 01
143.164;000.066;49;000.367;MIDI 01
143.142;000.105;57;000.398;MIDI 01
143.169;000.119;69;000.508;MIDI 01
143.277;000.061;67;000.539;MIDI 01
143.411;000.086;50;000.398;MIDI 01
143.420;000.081;57;000.430;MIDI 01
143.432;000.122;67;000.523;MIDI 01
143.546;000.057;65;000.531;MIDI 01
143.668;000.102;57;000.445;MIDI 01
143.672;000.103;52;000.445;MIDI 01
143.698;000.099;65;000.523;MIDI 01
143.793;000.064;64;000.570;MIDI 01
143.943;000.051;53;000.469;MIDI 01
143.921;000.093;64;000.555;MIDI 01
143.939;000.078;57;000.453;MIDI 01
144.043;000.044;62;000.547;MIDI 01
144.206;000.108;54;000.445;MIDI 01
144.196;000.123;74;000.562;MIDI 01
144.204;000.133;62;000.547;MIDI 01
144.315;000.058;72;000.555;MIDI 01
144.468;000.088;55;000.469;MIDI 01
144.473;000.092;62;000.492;MIDI 01
144.455;000.119;72;000.609;MIDI 01
144.592;000.048;71;000.508;MIDI 01
144.732;000.066;62;000.469;MIDI 01
144.709;000.106;57;000.508;MIDI 01
144.742;000.128;70;000.570;MIDI 01
144.854;000.040;69;000.562;MIDI 01
144.990;000.115;62;000.469;MIDI 01
144.982;000.132;58;000.516;MIDI 01
144.984;000.141;69;000.672;MIDI 01
145.108;000.068;67;000.594;MIDI 01
145.273;000.169;62;000.531;MIDI 01
145.262;000.200;67;000.641;MIDI 01
145.284;000.185;58;000.492;MIDI 01
145.424;000.177;68;000.625;MIDI 01
145.758;001.533;68;000.641;MIDI 01
147.292;000.201;69;000.422;MIDI 01
147.451;000.143;68;000.508;MIDI 01
147.588;000.191;66;000.516;MIDI 01
147.744;000.245;68;000.531;MIDI 01
147.980;000.481;71;000.453;MIDI 01
145.776;002.942;65;000.570;MIDI 01
148.497;000.302;69;000.367;MIDI 01
145.784;003.071;62;000.508;MIDI 01
145.782;003.109;57;000.477;MIDI 01
149.578;002.420;57;000.227;MIDI 01
149.566;002.476;61;000.273;MIDI 01
149.581;003.089;64;000.289;MIDI 01
149.574;003.159;69;000.312;MIDI 01
155.173;001.898;55;000.266;MIDI 01
155.608;001.509;60;000.305;MIDI 01
158.651;000.321;64;000.227;MIDI 01
160.193;000.310;67;000.250;MIDI 01
162.501;000.641;72;000.234;MIDI 01
154.574;009.829;43;000.117;MIDI 01
154.772;009.765;48;000.172;MIDI 01
154.221;010.369;40;000.094;MIDI 01
154.974;009.679;52;000.180;MIDI 01
166.035;000.071;52;000.180;MIDI 01
166.000;000.134;72;000.320;MIDI 01
166.037;000.103;60;000.211;MIDI 01
166.131;000.053;70;000.445;MIDI 01
166.295;000.124;70;000.531;MIDI 01
166.320;000.102;53;000.352;MIDI 01
166.319;000.117;60;000.391;MIDI 01
166.426;000.042;68;000.438;MIDI 01
166.569;000.089;68;000.469;MIDI 01
166.673;000.046;69;000.578;MIDI 01
166.828;000.056;69;000.469;MIDI 01
166.938;000.033;74;000.484;MIDI 01
167.073;000.097;54;000.406;MIDI 01
167.067;000.119;74;000.570;MIDI 01
167.082;000.110;62;000.422;MIDI 01
167.189;000.046;72;000.555;MIDI 01
167.342;000.089;72;000.617;MIDI 01
167.449;000.059;69;000.602;MIDI 01
167.347;000.177;62;000.477;MIDI 01
167.334;000.200;55;000.461;MIDI 01
167.596;000.086;69;000.562;MIDI 01
167.704;000.058;70;000.641;MIDI 01
167.851;000.072;70;000.555;MIDI 01
167.969;000.048;75;000.484;MIDI 01
168.106;000.072;75;000.602;MIDI 01
168.233;000.044;74;000.586;MIDI 01
168.120;000.305;63;000.367;MIDI 01
168.128;000.298;58;000.375;MIDI 01
168.142;000.292;55;000.320;MIDI 01
168.372;000.071;74;000.602;MIDI 01
168.481;000.044;73;000.625;MIDI 01
168.639;000.109;73;000.586;MIDI 01
168.760;000.039;82;000.523;MIDI 01
168.645;000.239;55;000.391;MIDI 01
168.647;000.249;64;000.438;MIDI 01
168.634;000.269;58;000.383;MIDI 01
168.643;000.270;61;000.492;MIDI 01
168.874;000.080;82;000.656;MIDI 01
168.997;000.056;76;000.656;MIDI 01
169.146;000.140;76;000.633;MIDI 01
169.142;000.193;55;000.500;MIDI 01
169.271;000.066;85;000.641;MIDI 01
169.134;000.245;58;000.500;MIDI 01
169.148;000.233;64;000.547;MIDI 01
169.144;000.253;61;000.484;MIDI 01
169.403;000.073;85;000.664;MIDI 01
169.528;000.057;77;000.648;MIDI 01
169.681;000.142;77;000.664;MIDI 01
169.679;000.147;65;000.562;MIDI 01
169.683;000.154;56;000.578;MIDI 01
169.685;000.178;62;000.586;MIDI 01
169.799;000.067;86;000.695;MIDI 01
169.677;000.191;59;000.578;MIDI 01
169.943;000.072;86;000.695;MIDI 01
170.068;000.058;77;000.656;MIDI 01
170.225;000.089;77;000.719;MIDI 01
170.227;000.122;56;000.586;MIDI 01
170.223;000.135;65;000.633;MIDI 01
170.222;000.146;59;000.609;MIDI 01
170.229;000.170;62;000.625;MIDI 01
170.367;000.073;89;000.750;MIDI 01
170.579;000.081;89;000.750;MIDI 01
170.586;000.094;65;000.711;MIDI 01
170.589;000.108;62;000.633;MIDI 01
170.584;000.119;57;000.633;MIDI 01
170.730;000.050;85;000.656;MIDI 01
170.869;000.145;85;000.695;MIDI 01
171.004;000.033;86;000.594;MIDI 01
171.132;000.130;86;000.688;MIDI 01
171.260;000.054;80;000.633;MIDI 01
171.410;000.122;80;000.680;MIDI 01
171.524;000.047;81;000.648;MIDI 01
171.665;000.130;81;000.719;MIDI 01
171.784;000.037;76;000.641;MIDI 01
171.923;000.146;76;000.727;MIDI 01
172.050;000.045;77;000.641;MIDI 01
172.204;000.085;76;000.602;MIDI 01
172.201;000.109;77;000.602;MIDI 01
172.310;000.059;73;000.586;MIDI 01
172.449;000.139;73;000.664;MIDI 01
172.575;000.054;74;000.648;MIDI 01
172.709;000.083;74;000.703;MIDI 01
172.846;000.072;68;000.625;MIDI 01
172.998;000.128;68;000.609;MIDI 01
173.121;000.037;69;000.625;MIDI 01
173.256;000.114;69;000.703;MIDI 01
173.375;000.040;64;000.625;MIDI 01
173.510;000.146;64;000.688;MIDI 01
173.631;000.061;65;000.656;MIDI 01
173.809;000.032;64;000.430;MIDI 01
173.789;000.105;65;000.594;MIDI 01
173.895;000.070;61;000.625;MIDI 01
174.041;000.143;61;000.648;MIDI 01
174.175;000.046;62;000.617;MIDI 01
174.305;000.119;62;000.695;MIDI 01
174.423;000.064;58;000.625;MIDI 01
174.560;000.086;46;000.641;MIDI 01
174.570;000.134;58;000.656;MIDI 01
174.696;000.061;45;000.641;MIDI 01
174.698;000.061;57;000.609;MIDI 01
174.828;000.055;57;000.492;MIDI 01
174.845;000.049;45;000.484;MIDI 01
174.969;000.041;49;000.555;MIDI 01
174.961;000.067;61;000.609;MIDI 01
175.101;000.053;49;000.578;MIDI 01
175.113;000.072;61;000.602;MIDI 01
175.228;000.057;50;000.570;MIDI 01
175.241;000.067;62;000.633;MIDI 01
175.346;000.075;50;000.531;MIDI 01
175.370;000.085;62;000.602;MIDI 01
175.498;000.057;46;000.609;MIDI 01
175.500;000.062;58;000.656;MIDI 01
175.636;000.077;46;000.688;MIDI 01
175.643;000.086;58;000.688;MIDI 01
175.769;000.059;45;000.656;MIDI 01
175.778;000.065;57;000.680;MIDI 01
175.903;000.066;45;000.539;MIDI 01
175.920;000.054;57;000.547;MIDI 01
176.046;000.055;49;000.617;MIDI 01
176.055;000.068;61;000.633;MIDI 01
176.190;000.046;49;000.594;MIDI 01
176.199;000.080;61;000.633;MIDI 01
176.314;000.065;50;000.633;MIDI 01
176.331;000.065;62;000.656;MIDI 01
176.453;000.069;50;000.586;MIDI 01
176.459;000.129;62;000.602;MIDI 01
176.597;000.066;46;000.625;MIDI 01
176.588;000.077;58;000.656;MIDI 01
176.746;000.103;46;000.711;MIDI 01
176.750;000.132;58;000.688;MIDI 01
176.873;000.090;45;000.625;MIDI 01
176.890;000.103;57;000.609;MIDI 01
177.080;000.211;57;000.672;MIDI 01
177.262;000.185;58;000.594;MIDI 01
177.448;000.182;59;000.664;MIDI 01
177.604;000.165;60;000.625;MIDI 01
177.746;000.102;61;000.594;MIDI 01
177.882;000.129;62;000.586;MIDI 01
178.011;000.129;63;000.625;MIDI 01
177.072;001.073;45;000.664;MIDI 01
177.429;000.720;53;000.688;MIDI 01
177.427;000.736;50;000.633;MIDI 01
178.149;000.161;64;000.609;MIDI 01
178.279;000.170;53;000.594;MIDI 01
178.281;000.174;65;000.641;MIDI 01
178.285;000.172;45;000.586;MIDI 01
178.287;000.172;50;000.594;MIDI 01
178.416;000.107;66;000.656;MIDI 01
178.561;000.122;45;000.594;MIDI 01
178.553;000.136;53;000.656;MIDI 01
178.555;000.140;50;000.586;MIDI 01
178.559;000.144;67;000.656;MIDI 01
178.690;000.260;68;000.656;MIDI 01
178.827;000.175;55;000.656;MIDI 01
178.830;000.194;52;000.656;MIDI 01
178.823;000.204;45;000.672;MIDI 01
178.825;000.250;69;000.656;MIDI 01
178.961;000.218;70;000.656;MIDI 01
179.145;000.076;55;000.727;MIDI 01
179.152;000.100;52;000.695;MIDI 01
179.119;000.157;61;000.664;MIDI 01
179.154;000.129;45;000.719;MIDI 01
179.260;000.053;69;000.656;MIDI 01
179.648;000.002;59;000.320;MIDI 01
179.615;000.085;57;000.555;MIDI 01
179.704;000.089;53;000.555;MIDI 01
179.805;000.079;57;000.570;MIDI 01
179.516;000.432;38;000.672;MIDI 01
179.899;000.067;53;000.539;MIDI 01
179.519;000.499;62;000.664;MIDI 01
179.999;000.068;57;000.562;MIDI 01
180.079;000.088;53;000.570;MIDI 01
180.058;000.117;41;000.711;MIDI 01
180.174;000.099;57;000.609;MIDI 01
180.295;000.053;53;000.570;MIDI 01
180.343;000.070;45;000.711;MIDI 01
180.359;000.104;57;000.547;MIDI 01
180.468;000.097;53;000.617;MIDI 01
180.559;000.053;57;000.578;MIDI 01
180.631;000.047;53;000.617;MIDI 01
180.769;000.077;57;000.500;MIDI 01
180.863;000.084;53;000.516;MIDI 01
180.974;000.059;57;000.516;MIDI 01
181.101;000.029;53;000.445;MIDI 01
181.173;000.057;57;000.516;MIDI 01
181.265;000.068;53;000.398;MIDI 01
181.363;000.060;57;000.477;MIDI 01
181.485;000.041;53;000.406;MIDI 01
181.549;000.056;57;000.484;MIDI 01
181.655;000.057;53;000.469;MIDI 01
181.532;000.243;69;000.516;MIDI 01
181.743;000.064;57;000.453;MIDI 01
181.855;000.048;53;000.438;MIDI 01
181.931;000.057;57;000.500;MIDI 01
181.798;000.272;68;000.492;MIDI 01
182.036;000.055;53;000.422;MIDI 01
182.123;000.062;57;000.477;MIDI 01
182.234;000.035;53;000.406;MIDI 01
182.083;000.250;69;000.461;MIDI 01
182.309;000.058;57;000.461;MIDI 01
182.411;000.064;53;000.406;MIDI 01
182.502;000.054;57;000.453;MIDI 01
182.345;000.279;70;000.516;MIDI 01
182.620;000.045;53;000.445;MIDI 01
182.622;000.100;69;000.492;MIDI 01
182.698;000.054;57;000.500;MIDI 01
182.822;000.056;53;000.445;MIDI 01
182.918;000.044;57;000.312;MIDI 01
183.012;000.036;53;000.430;MIDI 01
182.876;000.264;69;000.539;MIDI 01
183.085;000.055;57;000.438;MIDI 01
183.191;000.062;53;000.438;MIDI 01
183.299;000.049;57;000.414;MIDI 01
183.398;000.052;53;000.477;MIDI 01
183.494;000.065;57;000.422;MIDI 01
183.615;000.033;53;000.414;MIDI 01
183.436;000.214;69;000.500;MIDI 01
183.699;000.031;57;000.328;MIDI 01
180.623;003.178;50;000.695;MIDI 01
183.744;000.086;53;000.555;MIDI 01
183.825;000.053;57;000.594;MIDI 01
183.944;000.081;69;000.656;MIDI 01
184.049;000.091;61;000.625;MIDI 01
184.156;000.080;55;000.555;MIDI 01
183.949;000.320;40;000.711;MIDI 01
184.258;000.083;61;000.570;MIDI 01
184.366;000.051;55;000.555;MIDI 01
184.453;000.081;61;000.602;MIDI 01
184.447;000.105;43;000.688;MIDI 01
184.537;000.081;55;000.578;MIDI 01
184.652;000.094;61;000.594;MIDI 01
184.708;000.058;49;000.695;MIDI 01
184.754;000.146;55;000.570;MIDI 01
184.859;000.092;61;000.594;MIDI 01
185.015;000.077;55;000.609;MIDI 01
185.052;000.072;53;000.156;MIDI 01
185.140;000.043;61;000.539;MIDI 01
185.245;000.054;55;000.523;MIDI 01
185.358;000.054;61;000.312;MIDI 01
185.459;000.055;55;000.492;MIDI 01
185.542;000.071;61;000.523;MIDI 01
185.668;000.072;55;000.453;MIDI 01
185.761;000.051;61;000.430;MIDI 01
185.889;000.053;55;000.477;MIDI 01
185.748;000.256;69;000.484;MIDI 01
185.965;000.048;61;000.430;MIDI 01
186.071;000.068;55;000.430;MIDI 01
186.168;000.062;61;000.430;MIDI 01
186.026;000.287;68;000.484;MIDI 01
186.275;000.073;55;000.500;MIDI 01
186.368;000.065;61;000.484;MIDI 01
186.277;000.251;69;000.570;MIDI 01
186.493;000.053;55;000.445;MIDI 01
186.578;000.056;61;000.477;MIDI 01
186.679;000.054;55;000.445;MIDI 01
186.515;000.258;70;000.531;MIDI 01
186.770;000.053;61;000.484;MIDI 01
186.762;000.161;69;000.453;MIDI 01
186.879;000.051;55;000.469;MIDI 01
186.967;000.053;61;000.445;MIDI 01
187.091;000.062;55;000.445;MIDI 01
187.215;000.037;61;000.367;MIDI 01
187.089;000.281;69;000.461;MIDI 01
187.308;000.067;55;000.422;MIDI 01
187.424;000.040;61;000.328;MIDI 01
187.523;000.062;55;000.484;MIDI 01
187.627;000.042;61;000.383;MIDI 01
187.725;000.048;55;000.484;MIDI 01
187.564;000.233;69;000.484;MIDI 01
187.797;000.047;61;000.531;MIDI 01
184.981;002.973;52;000.703;MIDI 01
187.925;000.087;55;000.469;MIDI 01
187.983;000.045;61;000.539;MIDI 01
188.228;000.092;62;000.578;MIDI 01
188.327;000.084;57;000.531;MIDI 01
188.430;000.080;62;000.500;MIDI 01
188.119;000.430;41;000.680;MIDI 01
188.524;000.076;57;000.508;MIDI 01
188.115;000.532;69;000.664;MIDI 01
188.621;000.084;62;000.570;MIDI 01
188.623;000.096;45;000.680;MIDI 01
188.719;000.080;57;000.531;MIDI 01
188.807;000.100;62;000.562;MIDI 01
188.867;000.067;50;000.656;MIDI 01
188.924;000.106;57;000.570;MIDI 01
189.016;000.091;62;000.586;MIDI 01
189.132;000.085;57;000.695;MIDI 01
189.269;000.055;62;000.484;MIDI 01
189.371;000.061;57;000.523;MIDI 01
189.483;000.050;62;000.508;MIDI 01
189.618;000.047;57;000.523;MIDI 01
189.701;000.054;62;000.516;MIDI 01
189.670;000.106;74;000.680;MIDI 01
189.801;000.075;57;000.539;MIDI 01
189.891;000.049;62;000.531;MIDI 01
190.022;000.070;57;000.547;MIDI 01
189.128;000.969;53;000.688;MIDI 01
190.067;000.043;62;000.594;MIDI 01
190.200;000.109;64;000.695;MIDI 01
190.330;000.052;59;000.586;MIDI 01
190.426;000.067;64;000.570;MIDI 01
190.518;000.051;59;000.570;MIDI 01
190.216;000.406;44;000.695;MIDI 01
190.609;000.053;64;000.555;MIDI 01
190.694;000.054;59;000.562;MIDI 01
190.684;000.077;47;000.648;MIDI 01
190.785;000.064;64;000.578;MIDI 01
190.865;000.058;59;000.555;MIDI 01
190.923;000.069;52;000.680;MIDI 01
190.951;000.066;64;000.586;MIDI 01
191.034;000.078;59;000.617;MIDI 01
191.111;000.059;64;000.547;MIDI 01
191.200;000.101;59;000.656;MIDI 01
191.328;000.076;64;000.594;MIDI 01
191.438;000.080;59;000.594;MIDI 01
191.548;000.076;64;000.570;MIDI 01
191.662;000.066;59;000.578;MIDI 01
191.728;000.106;76;000.719;MIDI 01
191.755;000.084;64;000.578;MIDI 01
191.852;000.078;59;000.625;MIDI 01
191.956;000.044;64;000.562;MIDI 01
191.198;000.878;56;000.672;MIDI 01
192.054;000.084;59;000.602;MIDI 01
192.108;000.040;64;000.594;MIDI 01
192.231;000.097;65;000.695;MIDI 01
192.349;000.068;60;000.562;MIDI 01
192.449;000.064;65;000.578;MIDI 01
192.544;000.053;60;000.570;MIDI 01
192.227;000.434;45;000.711;MIDI 01
192.628;000.048;65;000.555;MIDI 01
192.706;000.059;60;000.562;MIDI 01
192.716;000.081;48;000.664;MIDI 01
192.793;000.077;65;000.617;MIDI 01
192.889;000.051;60;000.578;MIDI 01
192.960;000.066;53;000.680;MIDI 01
192.963;000.070;65;000.594;MIDI 01
193.065;000.050;60;000.609;MIDI 01
193.128;000.065;65;000.641;MIDI 01
193.227;000.065;60;000.695;MIDI 01
193.365;000.060;65;000.516;MIDI 01
193.436;000.093;60;000.531;MIDI 01
193.566;000.047;65;000.523;MIDI 01
193.676;000.041;60;000.516;MIDI 01
193.746;000.080;65;000.578;MIDI 01
193.766;000.084;77;000.727;MIDI 01
193.854;000.081;60;000.477;MIDI 01
193.971;000.037;65;000.484;MIDI 01
193.220;000.925;57;000.695;MIDI 01
194.077;000.075;60;000.555;MIDI 01
194.134;000.044;65;000.547;MIDI 01
194.260;000.103;68;000.688;MIDI 01
194.372;000.072;62;000.578;MIDI 01
194.478;000.066;68;000.547;MIDI 01
194.265;000.345;47;000.672;MIDI 01
194.553;000.075;62;000.570;MIDI 01
194.650;000.081;68;000.586;MIDI 01
194.744;000.076;62;000.578;MIDI 01
194.764;000.092;50;000.633;MIDI 01
194.830;000.097;68;000.555;MIDI 01
194.927;000.061;62;000.547;MIDI 01
195.001;000.056;56;000.664;MIDI 01
195.017;000.101;68;000.609;MIDI 01
195.104;000.077;62;000.617;MIDI 01
195.202;000.032;68;000.469;MIDI 01
195.303;000.035;60;000.422;MIDI 01
195.291;000.070;62;000.656;MIDI 01
195.414;000.068;68;000.133;MIDI 01
195.511;000.059;62;000.547;MIDI 01
195.616;000.045;68;000.578;MIDI 01
195.724;000.075;62;000.547;MIDI 01
195.816;000.053;68;000.555;MIDI 01
195.809;000.078;80;000.734;MIDI 01
195.929;000.073;62;000.586;MIDI 01
196.027;000.036;68;000.500;MIDI 01
195.268;000.891;59;000.711;MIDI 01
196.134;000.074;62;000.570;MIDI 01
196.191;000.044;68;000.531;MIDI 01
196.323;000.100;69;000.688;MIDI 01
196.441;000.060;64;000.578;MIDI 01
196.548;000.060;69;000.602;MIDI 01
196.633;000.046;64;000.578;MIDI 01
196.321;000.455;48;000.695;MIDI 01
196.728;000.051;69;000.586;MIDI 01
196.799;000.068;64;000.547;MIDI 01
196.840;000.102;57;000.609;MIDI 01
196.901;000.053;69;000.602;MIDI 01
196.989;000.045;64;000.555;MIDI 01
197.079;000.057;69;000.609;MIDI 01
197.090;000.084;60;000.641;MIDI 01
197.174;000.046;64;000.539;MIDI 01
197.253;000.039;69;000.594;MIDI 01
197.349;000.031;64;000.422;MIDI 01
197.364;000.068;66;000.695;MIDI 01
197.366;000.084;63;000.672;MIDI 01
197.379;000.086;69;000.672;MIDI 01
197.493;000.076;72;000.500;MIDI 01
197.580;000.075;69;000.594;MIDI 01
197.685;000.071;72;000.539;MIDI 01
197.773;000.059;69;000.586;MIDI 01
197.874;000.057;72;000.562;MIDI 01
197.916;000.042;81;000.766;MIDI 01
197.941;000.076;69;000.648;MIDI 01
198.061;000.040;72;000.539;MIDI 01
198.148;000.039;69;000.547;MIDI 01
198.228;000.074;72;000.523;MIDI 01
198.316;000.047;69;000.555;MIDI 01
198.400;000.076;72;000.547;MIDI 01
198.463;000.057;66;000.688;MIDI 01
198.466;000.064;63;000.617;MIDI 01
198.468;000.088;69;000.727;MIDI 01
198.599;000.064;72;000.578;MIDI 01
198.696;000.052;69;000.547;MIDI 01
198.795;000.076;72;000.562;MIDI 01
198.892;000.058;69;000.570;MIDI 01
198.999;000.046;72;000.539;MIDI 01
199.025;000.030;81;000.734;MIDI 01
199.066;000.069;69;000.648;MIDI 01
199.166;000.069;72;000.586;MIDI 01
199.259;000.035;69;000.578;MIDI 01
199.350;000.046;72;000.523;MIDI 01
199.415;000.070;69;000.578;MIDI 01
199.506;000.081;72;000.617;MIDI 01
199.580;000.054;66;000.727;MIDI 01
199.588;000.060;63;000.656;MIDI 01
199.585;000.083;69;000.727;MIDI 01
199.709;000.067;72;000.625;MIDI 01
199.798;000.075;69;000.602;MIDI 01
199.896;000.074;72;000.617;MIDI 01
199.995;000.089;69;000.578;MIDI 01
200.095;000.072;72;000.594;MIDI 01
200.144;000.044;81;000.789;MIDI 01
200.180;000.086;69;000.625;MIDI 01
200.284;000.070;72;000.609;MIDI 01
200.369;000.059;69;000.594;MIDI 01
200.509;000.067;69;000.523;MIDI 01
200.575;000.064;72;000.617;MIDI 01
200.739;000.030;80;000.703;MIDI 01
200.748;000.028;71;000.609;MIDI 01
200.727;000.075;52;000.633;MIDI 01
200.780;000.029;68;000.359;MIDI 01
200.893;000.141;64;000.531;MIDI 01
201.046;000.115;62;000.508;MIDI 01
201.040;000.123;59;000.414;MIDI 01
201.209;000.093;64;000.477;MIDI 01
201.332;000.049;65;000.469;MIDI 01
201.464;000.052;64;000.477;MIDI 01
201.590;000.061;59;000.461;MIDI 01
201.602;000.053;62;000.367;MIDI 01
201.599;000.106;83;000.430;MIDI 01
201.723;000.061;80;000.492;MIDI 01
201.728;000.060;64;000.461;MIDI 01
201.854;000.071;52;000.516;MIDI 01
201.869;000.107;76;000.508;MIDI 01
201.979;000.050;77;000.555;MIDI 01
201.975;000.061;64;000.477;MIDI 01
202.124;000.058;59;000.430;MIDI 01
202.126;000.082;77;000.633;MIDI 01
202.120;000.093;62;000.391;MIDI 01
202.250;000.042;74;000.484;MIDI 01
202.271;000.106;64;000.438;MIDI 01
202.407;000.049;65;000.422;MIDI 01
202.528;000.065;64;000.492;MIDI 01
202.676;000.053;59;000.438;MIDI 01
202.674;000.061;62;000.438;MIDI 01
202.689;000.110;83;000.438;MIDI 01
202.812;000.059;64;000.430;MIDI 01
202.798;000.077;80;000.531;MIDI 01
202.934;000.059;52;000.508;MIDI 01
202.952;000.092;76;000.516;MIDI 01
203.051;000.051;77;000.508;MIDI 01
203.048;000.076;64;000.445;MIDI 01
203.197;000.075;59;000.445;MIDI 01
203.199;000.081;77;000.562;MIDI 01
203.185;000.102;62;000.477;MIDI 01
203.334;000.047;74;000.531;MIDI 01
203.341;000.097;64;000.492;MIDI 01
203.471;000.043;65;000.461;MIDI 01
203.582;000.062;64;000.539;MIDI 01
203.722;000.056;59;000.453;MIDI 01
203.724;000.056;62;000.469;MIDI 01
203.736;000.123;83;000.484;MIDI 01
203.852;000.061;64;000.453;MIDI 01
203.847;000.078;80;000.531;MIDI 01
204.021;000.018;50;000.203;MIDI 01
203.992;000.052;52;000.391;MIDI 01
203.998;000.053;76;000.500;MIDI 01
204.110;000.053;77;000.547;MIDI 01
204.109;000.108;64;000.453;MIDI 01
204.251;000.054;59;000.445;MIDI 01
204.241;000.084;62;000.484;MIDI 01
204.247;000.085;77;000.547;MIDI 01
204.372;000.032;74;000.539;MIDI 01
204.374;000.058;64;000.500;MIDI 01
204.491;000.115;52;000.523;MIDI 01
204.496;000.120;74;000.578;MIDI 01
204.620;000.040;72;000.547;MIDI 01
204.616;000.122;64;000.484;MIDI 01
204.755;000.087;59;000.477;MIDI 01
204.753;000.106;56;000.492;MIDI 01
204.751;000.129;72;000.555;MIDI 01
204.877;000.040;71;000.555;MIDI 01
204.891;000.078;64;000.539;MIDI 01
205.016;000.081;52;000.531;MIDI 01
205.147;000.072;64;000.461;MIDI 01
205.165;000.067;72;000.469;MIDI 01
205.037;000.208;71;000.508;MIDI 01
205.234;000.079;72;000.078;MIDI 01
205.275;000.081;57;000.445;MIDI 01
205.284;000.084;60;000.359;MIDI 01
205.314;000.066;69;000.422;MIDI 01
205.415;000.138;64;000.484;MIDI 01
205.565;000.068;65;000.492;MIDI 01
205.691;000.115;64;000.523;MIDI 01
205.822;000.084;57;000.484;MIDI 01
205.827;000.082;60;000.445;MIDI 01
205.833;000.112;84;000.453;MIDI 01
205.953;000.028;81;000.516;MIDI 01
205.964;000.053;64;000.500;MIDI 01
206.064;000.079;52;000.562;MIDI 01
206.092;000.119;75;000.570;MIDI 01
206.207;000.043;76;000.602;MIDI 01
206.198;000.070;64;000.523;MIDI 01
206.327;000.083;57;000.477;MIDI 01
206.321;000.115;60;000.477;MIDI 01
206.357;000.108;76;000.633;MIDI 01
206.476;000.059;72;000.570;MIDI 01
206.491;000.125;64;000.438;MIDI 01
206.627;000.073;65;000.531;MIDI 01
206.755;000.125;64;000.578;MIDI 01
206.890;000.086;57;000.523;MIDI 01
206.898;000.095;60;000.469;MIDI 01
206.880;000.118;84;000.570;MIDI 01
206.998;000.041;81;000.570;MIDI 01
207.027;000.073;64;000.562;MIDI 01
207.132;000.076;52;000.586;MIDI 01
207.134;000.135;75;000.641;MIDI 01
207.255;000.070;76;000.641;MIDI 01
207.258;000.116;64;000.594;MIDI 01
207.395;000.088;57;000.516;MIDI 01
207.393;000.108;60;000.523;MIDI 01
207.403;000.128;76;000.617;MIDI 01
207.527;000.064;72;000.625;MIDI 01
207.543;000.123;64;000.523;MIDI 01
207.678;000.067;65;000.523;MIDI 01
207.806;000.077;64;000.523;MIDI 01
207.945;000.069;57;000.453;MIDI 01
207.954;000.061;60;000.422;MIDI 01
207.952;000.111;84;000.531;MIDI 01
208.071;000.041;81;000.531;MIDI 01
208.079;000.058;64;000.469;MIDI 01
208.201;000.075;52;000.516;MIDI 01
208.225;000.129;75;000.555;MIDI 01
208.353;000.043;76;000.562;MIDI 01
208.330;000.068;64;000.430;MIDI 01
208.453;000.089;57;000.453;MIDI 01
208.466;000.104;60;000.414;MIDI 01
208.485;000.103;76;000.586;MIDI 01
208.597;000.044;72;000.555;MIDI 01
208.607;000.053;64;000.484;MIDI 01
208.726;000.075;52;000.539;MIDI 01
208.749;000.116;72;000.602;MIDI 01
208.865;000.040;71;000.539;MIDI 01
208.855;000.109;64;000.477;MIDI 01
208.982;000.092;57;000.461;MIDI 01
208.985;000.114;60;000.391;MIDI 01
209.007;000.106;71;000.555;MIDI 01
209.127;000.042;69;000.516;MIDI 01
209.133;000.071;64;000.492;MIDI 01
209.256;000.059;52;000.453;MIDI 01
209.276;000.089;69;000.469;MIDI 01
209.392;000.100;64;000.453;MIDI 01
209.381;000.115;68;000.484;MIDI 01
209.539;000.072;71;000.477;MIDI 01
209.541;000.078;59;000.359;MIDI 01
209.543;000.092;62;000.352;MIDI 01
209.669;000.117;64;000.438;MIDI 01
209.808;000.061;65;000.453;MIDI 01
209.942;000.057;64;000.484;MIDI 01
210.078;000.058;59;000.461;MIDI 01
210.090;000.051;62;000.383;MIDI 01
210.080;000.086;89;000.492;MIDI 01
210.188;000.043;86;000.539;MIDI 01
210.202;000.068;64;000.508;MIDI 01
210.324;000.065;52;000.547;MIDI 01
210.342;000.121;85;000.562;MIDI 01
210.448;000.096;64;000.453;MIDI 01
210.461;000.094;86;000.555;MIDI 01
210.594;000.084;59;000.445;MIDI 01
210.601;000.078;83;000.508;MIDI 01
210.589;000.108;62;000.484;MIDI 01
210.728;000.124;64;000.562;MIDI 01
210.863;000.078;65;000.578;MIDI 01
210.989;000.095;64;000.578;MIDI 01
211.119;000.079;62;000.539;MIDI 01
211.110;000.090;59;000.578;MIDI 01
211.115;000.114;89;000.625;MIDI 01
211.224;000.068;86;000.609;MIDI 01
211.245;000.075;64;000.586;MIDI 01
211.370;000.086;52;000.617;MIDI 01
211.380;000.150;85;000.672;MIDI 01
211.494;000.120;64;000.578;MIDI 01
211.517;000.108;86;000.648;MIDI 01
211.642;000.076;83;000.633;MIDI 01
211.628;000.100;59;000.562;MIDI 01
211.625;000.109;62;000.586;MIDI 01
211.764;000.116;64;000.625;MIDI 01
211.879;000.072;65;000.656;MIDI 01
211.999;000.076;64;000.656;MIDI 01
212.129;000.081;59;000.625;MIDI 01
212.142;000.144;89;000.656;MIDI 01
212.152;000.139;62;000.578;MIDI 01
212.258;000.067;64;000.633;MIDI 01
212.273;000.064;86;000.656;MIDI 01
212.433;000.098;83;000.742;MIDI 01
212.574;000.059;86;000.648;MIDI 01
212.428;000.379;62;000.688;MIDI 01
212.430;000.379;59;000.656;MIDI 01
212.426;000.404;52;000.633;MIDI 01
212.727;000.106;80;000.664;MIDI 01
212.839;000.064;83;000.594;MIDI 01
212.983;000.118;77;000.664;MIDI 01
213.108;000.068;80;000.633;MIDI 01
213.249;000.119;74;000.711;MIDI 01
213.384;000.039;77;000.633;MIDI 01
213.509;000.112;71;000.711;MIDI 01
213.634;000.058;74;000.641;MIDI 01
213.782;000.120;68;000.688;MIDI 01
213.907;000.042;71;000.570;MIDI 01
214.043;000.124;65;000.680;MIDI 01
214.171;000.062;68;000.586;MIDI 01
214.302;000.129;62;000.703;MIDI 01
214.438;000.046;65;000.648;MIDI 01
214.568;000.123;59;000.719;MIDI 01
214.689;000.043;62;000.648;MIDI 01
214.829;000.157;44;000.633;MIDI 01
214.831;000.178;56;000.633;MIDI 01
214.976;000.104;59;000.633;MIDI 01
214.986;000.103;47;000.562;MIDI 01
215.114;000.166;38;000.609;MIDI 01
215.108;000.173;50;000.625;MIDI 01
215.249;000.165;47;000.633;MIDI 01
215.244;000.174;59;000.625;MIDI 01
215.384;000.139;56;000.656;MIDI 01
215.379;000.149;44;000.672;MIDI 01
215.511;000.081;50;000.672;MIDI 01
215.507;000.095;38;000.633;MIDI 01
215.671;000.074;36;000.672;MIDI 01
215.686;000.065;48;000.711;MIDI 01
216.019;000.028;47;000.562;MIDI 01
216.021;000.032;38;000.531;MIDI 01
216.015;000.041;36;000.477;MIDI 01
216.017;000.041;41;000.578;MIDI 01
216.012;000.047;45;000.531;MIDI 01
216.010;000.051;40;000.516;MIDI 01
216.003;000.081;48;000.711;MIDI 01
216.006;000.080;52;000.656;MIDI 01
216.008;000.096;57;000.688;MIDI 01
216.356;000.148;42;000.523;MIDI 01
216.359;000.905;46;000.664;MIDI 01
216.361;001.084;58;000.703;MIDI 01
216.378;001.494;41;000.625;MIDI 01
216.368;001.506;53;000.719;MIDI 01
216.366;001.514;38;000.617;MIDI 01
216.364;001.518;50;000.672;MIDI 01
217.523;000.367;57;000.672;MIDI 01
217.521;000.405;45;000.664;MIDI 01
217.822;000.229;44;000.703;MIDI 01
217.825;000.229;56;000.656;MIDI 01
218.127;000.043;36;000.617;MIDI 01
218.129;000.048;48;000.648;MIDI 01
218.132;000.053;40;000.633;MIDI 01
218.125;000.070;52;000.555;MIDI 01
218.131;000.067;45;000.633;MIDI 01
218.134;000.077;57;000.680;MIDI 01
218.377;000.057;51;000.258;MIDI 01
218.486;000.044;48;000.453;MIDI 01
218.468;000.073;60;000.648;MIDI 01
218.489;000.054;52;000.461;MIDI 01
218.547;000.002;55;000.086;MIDI 01
218.464;000.085;64;000.688;MIDI 01
218.484;000.075;57;000.531;MIDI 01
218.466;000.110;69;000.688;MIDI 01
218.829;000.840;58;000.727;MIDI 01
218.824;001.042;70;000.719;MIDI 01
218.830;001.427;65;000.711;MIDI 01
219.916;000.344;69;000.625;MIDI 01
218.823;001.444;50;000.602;MIDI 01
218.827;001.441;53;000.625;MIDI 01
218.832;001.438;62;000.633;MIDI 01
219.921;000.354;57;000.602;MIDI 01
220.204;000.209;56;000.648;MIDI 01
220.215;000.220;68;000.656;MIDI 01
220.518;000.039;60;000.594;MIDI 01
220.515;000.044;48;000.602;MIDI 01
220.525;000.043;52;000.531;MIDI 01
220.521;000.053;64;000.570;MIDI 01
220.519;000.067;57;000.625;MIDI 01
220.523;000.070;69;000.680;MIDI 01
220.828;000.040;60;000.547;MIDI 01
220.825;000.045;64;000.570;MIDI 01
220.827;000.065;69;000.594;MIDI 01
220.821;000.073;81;000.664;MIDI 01
221.140;000.620;70;000.617;MIDI 01
221.142;000.630;82;000.633;MIDI 01
221.151;000.630;62;000.477;MIDI 01
221.147;000.653;65;000.523;MIDI 01
221.929;000.055;63;000.469;MIDI 01
221.917;000.072;71;000.594;MIDI 01
221.918;000.082;83;000.648;MIDI 01
221.911;000.096;66;000.570;MIDI 01
222.211;000.465;72;000.586;MIDI 01
222.219;000.477;64;000.539;MIDI 01
222.205;000.501;84;000.648;MIDI 01
222.216;000.526;69;000.578;MIDI 01
222.945;000.169;73;000.594;MIDI 01
222.960;000.180;64;000.516;MIDI 01
222.939;000.243;85;000.617;MIDI 01
223.255;000.084;74;000.523;MIDI 01
223.238;000.153;86;000.562;MIDI 01
223.510;000.100;76;000.477;MIDI 01
223.234;000.381;65;000.430;MIDI 01
223.505;000.195;88;000.547;MIDI 01
222.964;000.812;69;000.438;MIDI 01
223.775;000.043;62;000.430;MIDI 01
223.795;000.033;89;000.523;MIDI 01
223.492;000.345;61;000.469;MIDI 01
223.810;000.048;77;000.414;MIDI 01
224.101;000.099;62;000.359;MIDI 01
224.110;000.105;58;000.312;MIDI 01
224.109;000.199;50;000.367;MIDI 01
224.090;000.303;77;000.547;MIDI 01
224.103;000.324;65;000.430;MIDI 01
224.374;000.056;60;000.359;MIDI 01
224.358;000.102;52;000.383;MIDI 01
224.365;000.128;57;000.414;MIDI 01
224.630;000.047;56;000.500;MIDI 01
224.662;000.040;59;000.312;MIDI 01
224.936;000.046;57;000.539;MIDI 01
224.647;000.356;64;000.492;MIDI 01
224.951;000.089;45;000.484;MIDI 01
224.645;000.552;76;000.547;MIDI 01
224.971;000.273;69;000.570;MIDI 01
225.231;000.058;33;000.727;MIDI 01
225.816;000.062;61;000.641;MIDI 01
225.835;000.066;64;000.625;MIDI 01
226.095;000.046;62;000.641;MIDI 01
226.099;000.053;65;000.664;MIDI 01
226.431;000.002;67;000.156;MIDI 01
225.553;001.100;34;000.758;MIDI 01
226.373;000.296;65;000.648;MIDI 01
226.367;000.321;74;000.711;MIDI 01
226.632;000.179;33;000.586;MIDI 01
226.889;000.075;65;000.656;MIDI 01
226.886;000.120;32;000.633;MIDI 01
226.884;000.324;74;000.648;MIDI 01
227.155;000.090;33;000.672;MIDI 01
227.165;000.149;73;000.695;MIDI 01
227.167;000.208;64;000.648;MIDI 01
227.431;000.139;33;000.688;MIDI 01
227.728;000.035;30;000.500;MIDI 01
227.974;000.039;61;000.555;MIDI 01
227.976;000.075;64;000.625;MIDI 01
228.228;000.056;62;000.680;MIDI 01
228.230;000.059;65;000.680;MIDI 01
228.496;000.318;77;000.750;MIDI 01
228.494;000.336;74;000.750;MIDI 01
227.697;001.224;34;000.750;MIDI 01
228.792;000.318;33;000.578;MIDI 01
229.030;000.149;32;000.578;MIDI 01
229.024;000.193;74;000.617;MIDI 01
229.026;000.211;77;000.633;MIDI 01
229.278;000.109;33;000.633;MIDI 01
229.280;000.127;76;000.648;MIDI 01
229.282;000.145;73;000.688;MIDI 01
229.545;000.139;33;000.688;MIDI 01
229.878;000.049;30;000.383;MIDI 01
230.106;000.067;61;000.648;MIDI 01
230.119;000.079;64;000.633;MIDI 01
230.357;000.061;62;000.664;MIDI 01
230.359;000.070;65;000.688;MIDI 01
230.626;000.300;74;000.695;MIDI 01
230.628;000.323;77;000.695;MIDI 01
229.835;001.472;34;000.766;MIDI 01
230.908;000.434;33;000.625;MIDI 01
231.266;000.156;32;000.508;MIDI 01
231.604;000.110;31;000.453;MIDI 01
231.258;000.523;89;000.695;MIDI 01
231.254;000.562;86;000.672;MIDI 01
231.742;000.117;30;000.492;MIDI 01
231.879;000.094;31;000.438;MIDI 01
231.992;000.084;33;000.461;MIDI 01
232.122;000.065;35;000.438;MIDI 01
232.244;000.149;31;000.477;MIDI 01
232.398;000.086;33;000.406;MIDI 01
232.533;000.056;35;000.422;MIDI 01
232.380;000.265;77;000.422;MIDI 01
232.382;000.278;74;000.430;MIDI 01
232.649;000.076;36;000.453;MIDI 01
232.758;000.133;35;000.422;MIDI 01
232.655;000.319;72;000.398;MIDI 01
232.882;000.096;36;000.469;MIDI 01
232.645;000.380;76;000.422;MIDI 01
233.002;000.058;38;000.461;MIDI 01
233.124;000.117;40;000.469;MIDI 01
233.258;000.098;39;000.477;MIDI 01
233.393;000.076;40;000.445;MIDI 01
233.529;000.074;39;000.453;MIDI 01
233.400;000.321;88;000.453;MIDI 01
233.419;000.318;84;000.305;MIDI 01
233.643;000.102;40;000.445;MIDI 01
233.693;000.251;86;000.383;MIDI 01
233.691;000.257;83;000.312;MIDI 01
233.764;000.232;39;000.445;MIDI 01
233.935;000.109;40;000.375;MIDI 01
234.052;000.118;42;000.461;MIDI 01
234.184;000.070;44;000.406;MIDI 01
234.247;000.181;40;000.430;MIDI 01
234.418;000.165;42;000.438;MIDI 01
234.580;000.062;44;000.406;MIDI 01
234.447;000.252;71;000.445;MIDI 01
234.448;000.268;74;000.438;MIDI 01
234.691;000.095;45;000.453;MIDI 01
234.716;000.214;69;000.398;MIDI 01
234.798;000.163;44;000.484;MIDI 01
234.694;000.292;72;000.414;MIDI 01
234.941;000.153;45;000.492;MIDI 01
235.081;000.105;47;000.438;MIDI 01
235.199;000.115;48;000.523;MIDI 01
235.324;000.200;45;000.531;MIDI 01
235.458;000.143;47;000.508;MIDI 01
235.592;000.083;48;000.508;MIDI 01
235.469;000.335;84;000.523;MIDI 01
235.714;000.120;50;000.477;MIDI 01
235.830;000.125;49;000.492;MIDI 01
235.736;000.272;83;000.516;MIDI 01
235.467;000.553;81;000.547;MIDI 01
235.953;000.147;50;000.477;MIDI 01
236.092;000.105;52;000.492;MIDI 01
236.217;000.149;53;000.516;MIDI 01
236.350;000.116;50;000.477;MIDI 01
236.465;000.097;52;000.508;MIDI 01
236.589;000.040;53;000.492;MIDI 01
236.470;000.244;69;000.492;MIDI 01
236.713;000.039;52;000.508;MIDI 01
236.881;000.076;63;000.500;MIDI 01
236.725;000.314;68;000.508;MIDI 01
236.459;000.593;71;000.516;MIDI 01
237.024;000.104;64;000.484;MIDI 01
237.133;000.111;63;000.531;MIDI 01
237.269;000.101;64;000.562;MIDI 01
237.389;000.116;63;000.555;MIDI 01
237.524;000.085;64;000.547;MIDI 01
237.674;000.058;52;000.445;MIDI 01
237.547;000.221;71;000.453;MIDI 01
237.535;000.334;80;000.516;MIDI 01
237.876;000.170;81;000.438;MIDI 01
237.999;000.118;76;000.422;MIDI 01
237.870;000.343;64;000.266;MIDI 01
237.867;000.351;60;000.305;MIDI 01
238.140;000.085;72;000.484;MIDI 01
238.416;000.177;83;000.516;MIDI 01
238.270;000.326;84;000.523;MIDI 01
238.404;000.315;62;000.430;MIDI 01
238.554;000.170;80;000.523;MIDI 01
238.390;000.510;59;000.484;MIDI 01
238.677;000.299;76;000.547;MIDI 01
238.806;000.279;86;000.578;MIDI 01
238.955;000.186;84;000.547;MIDI 01
238.960;000.205;60;000.414;MIDI 01
238.938;000.242;57;000.453;MIDI 01
239.078;000.162;81;000.539;MIDI 01
239.333;000.143;88;000.523;MIDI 01
239.466;000.108;87;000.539;MIDI 01
239.444;000.228;59;000.422;MIDI 01
239.409;000.296;56;000.391;MIDI 01
239.595;000.123;88;000.523;MIDI 01
239.735;000.097;87;000.508;MIDI 01
239.205;000.630;76;000.523;MIDI 01
239.815;000.078;88;000.492;MIDI 01
240.015;000.146;57;000.391;MIDI 01
240.160;000.091;52;000.422;MIDI 01
240.034;000.269;88;000.469;MIDI 01
240.052;000.260;84;000.320;MIDI 01
240.303;000.047;48;000.391;MIDI 01
240.042;000.371;76;000.320;MIDI 01
240.382;000.120;57;000.422;MIDI 01
240.510;000.156;59;000.477;MIDI 01
240.655;000.130;56;000.445;MIDI 01
240.566;000.244;83;000.430;MIDI 01
240.564;000.300;86;000.500;MIDI 01
240.572;000.330;74;000.453;MIDI 01
240.851;000.054;53;000.234;MIDI 01
240.899;000.141;59;000.508;MIDI 01
240.803;000.331;52;000.344;MIDI 01
241.048;000.155;60;000.508;MIDI 01
241.097;000.190;81;000.438;MIDI 01
241.215;000.101;57;000.367;MIDI 01
241.076;000.242;84;000.508;MIDI 01
241.092;000.276;72;000.383;MIDI 01
241.310;000.093;52;000.406;MIDI 01
241.475;000.107;64;000.445;MIDI 01
241.617;000.070;63;000.438;MIDI 01
241.615;000.198;71;000.391;MIDI 01
241.760;000.059;64;000.359;MIDI 01
241.622;000.263;80;000.375;MIDI 01
241.852;000.092;63;000.453;MIDI 01
241.605;000.352;83;000.430;MIDI 01
241.984;000.043;64;000.359;MIDI 01
242.124;000.123;81;000.367;MIDI 01
242.255;000.105;76;000.477;MIDI 01
242.119;000.377;52;000.383;MIDI 01
242.390;000.141;72;000.406;MIDI 01
242.416;000.185;64;000.367;MIDI 01
242.396;000.224;60;000.398;MIDI 01
242.653;000.153;83;000.508;MIDI 01
242.526;000.290;84;000.484;MIDI 01
242.765;000.172;80;000.555;MIDI 01
242.635;000.373;52;000.453;MIDI 01
242.908;000.206;62;000.438;MIDI 01
242.901;000.240;59;000.430;MIDI 01
242.897;000.281;76;000.523;MIDI 01
243.009;000.302;86;000.578;MIDI 01
243.145;000.175;84;000.570;MIDI 01
243.266;000.139;81;000.602;MIDI 01
243.168;000.351;52;000.508;MIDI 01
243.399;000.227;57;000.430;MIDI 01
243.426;000.233;60;000.430;MIDI 01
243.517;000.159;88;000.547;MIDI 01
243.652;000.106;87;000.562;MIDI 01
243.677;000.199;52;000.492;MIDI 01
243.782;000.111;88;000.484;MIDI 01
243.939;000.047;59;000.375;MIDI 01
243.401;000.602;76;000.523;MIDI 01
243.922;000.090;56;000.430;MIDI 01
243.924;000.090;87;000.469;MIDI 01
244.021;000.189;88;000.492;MIDI 01
244.184;000.143;57;000.406;MIDI 01
244.324;000.105;52;000.438;MIDI 01
244.453;000.077;48;000.422;MIDI 01
244.572;000.106;57;000.344;MIDI 01
244.470;000.236;88;000.477;MIDI 01
244.468;000.260;84;000.461;MIDI 01
244.173;000.619;76;000.453;MIDI 01
244.685;000.137;59;000.484;MIDI 01
244.819;000.098;56;000.461;MIDI 01
244.965;000.232;83;000.477;MIDI 01
245.078;000.129;59;000.414;MIDI 01
244.973;000.265;86;000.523;MIDI 01
244.935;000.361;52;000.492;MIDI 01
244.981;000.320;74;000.469;MIDI 01
245.221;000.142;60;000.492;MIDI 01
245.363;000.101;57;000.398;MIDI 01
245.464;000.108;52;000.484;MIDI 01
245.489;000.238;81;000.500;MIDI 01
245.641;000.091;64;000.477;MIDI 01
245.491;000.245;84;000.508;MIDI 01
245.502;000.270;72;000.453;MIDI 01
245.757;000.070;63;000.469;MIDI 01
245.890;000.062;64;000.461;MIDI 01
246.003;000.097;63;000.438;MIDI 01
246.036;000.153;80;000.406;MIDI 01
246.147;000.056;64;000.422;MIDI 01
246.028;000.201;71;000.367;MIDI 01
246.022;000.299;83;000.430;MIDI 01
246.328;000.126;81;000.438;MIDI 01
246.466;000.106;76;000.453;MIDI 01
246.289;000.377;52;000.422;MIDI 01
246.600;000.147;72;000.477;MIDI 01
246.578;000.247;60;000.344;MIDI 01
246.591;000.238;64;000.398;MIDI 01
246.728;000.281;84;000.523;MIDI 01
246.861;000.154;83;000.523;MIDI 01
246.981;000.173;80;000.578;MIDI 01
246.835;000.340;52;000.500;MIDI 01
247.106;000.209;59;000.477;MIDI 01
247.117;000.203;62;000.461;MIDI 01
247.108;000.280;76;000.570;MIDI 01
247.231;000.289;86;000.602;MIDI 01
247.365;000.174;84;000.570;MIDI 01
247.491;000.141;81;000.578;MIDI 01
247.344;000.296;52;000.508;MIDI 01
247.590;000.170;57;000.430;MIDI 01
247.624;000.182;60;000.461;MIDI 01
247.732;000.162;88;000.562;MIDI 01
247.855;000.111;87;000.586;MIDI 01
247.865;000.220;52;000.422;MIDI 01
247.988;000.121;88;000.469;MIDI 01
248.117;000.074;56;000.438;MIDI 01
248.128;000.064;87;000.484;MIDI 01
248.136;000.057;59;000.352;MIDI 01
247.609;000.838;76;000.562;MIDI 01
248.425;000.059;48;000.453;MIDI 01
248.245;000.332;88;000.516;MIDI 01
248.440;000.202;84;000.477;MIDI 01
248.727;000.043;88;000.469;MIDI 01
248.714;000.194;45;000.484;MIDI 01
248.807;000.116;84;000.492;MIDI 01
249.030;000.164;84;000.484;MIDI 01
249.153;000.151;81;000.547;MIDI 01
249.033;000.372;45;000.570;MIDI 01
249.308;000.099;57;000.359;MIDI 01
249.417;000.147;88;000.500;MIDI 01
249.551;000.104;87;000.516;MIDI 01
249.683;000.132;88;000.516;MIDI 01
249.832;000.046;59;000.430;MIDI 01
249.817;000.064;56;000.445;MIDI 01
249.810;000.094;87;000.570;MIDI 01
249.285;000.829;76;000.531;MIDI 01
249.926;000.191;88;000.492;MIDI 01
249.544;000.640;52;000.508;MIDI 01
250.069;000.174;84;000.539;MIDI 01
250.055;000.231;57;000.484;MIDI 01
250.214;000.211;81;000.523;MIDI 01
250.319;000.123;60;000.500;MIDI 01
250.452;000.136;88;000.484;MIDI 01
250.589;000.082;87;000.492;MIDI 01
250.608;000.213;52;000.422;MIDI 01
250.710;000.124;88;000.484;MIDI 01
250.886;000.056;59;000.453;MIDI 01
250.893;000.071;56;000.445;MIDI 01
250.852;000.114;87;000.484;MIDI 01
250.341;000.808;76;000.508;MIDI 01
250.995;000.298;88;000.469;MIDI 01
251.221;000.111;57;000.336;MIDI 01
251.220;000.181;45;000.344;MIDI 01
251.202;000.207;81;000.391;MIDI 01
251.822;000.245;57;000.375;MIDI 01
251.812;000.269;33;000.273;MIDI 01
251.824;000.261;45;000.219;MIDI 01
252.423;000.259;57;000.547;MIDI 01
252.425;000.270;45;000.477;MIDI 01
252.430;000.305;33;000.461;MIDI 01
253.066;000.250;57;000.664;MIDI 01
253.065;000.324;45;000.570;MIDI 01
253.062;000.376;33;000.562;MIDI 01
253.867;000.929;45;000.602;MIDI 01
253.865;001.222;33;000.594;MIDI 01
253.872;001.236;57;000.656;MIDI 01
257.190;001.906;43;000.211;MIDI 01
257.194;001.969;31;000.250;MIDI 01
257.211;002.156;55;000.273;MIDI 01
260.448;000.936;30;000.203;MIDI 01
260.804;000.626;33;000.266;MIDI 01
261.024;000.505;38;000.297;MIDI 01
261.215;000.384;42;000.297;MIDI 01
261.396;000.869;45;000.305;MIDI 01
261.818;000.655;54;000.297;MIDI 01
261.584;000.981;50;000.320;MIDI 01
262.066;000.611;57;000.320;MIDI 01
262.610;000.256;62;000.320;MIDI 01
265.307;000.202;66;000.258;MIDI 01
266.621;000.196;69;000.320;MIDI 01
268.444;000.244;74;000.289;MIDI 01
273.253;000.391;39;000.258;MIDI 01
272.866;000.804;36;000.211;MIDI 01
273.648;000.106;45;000.289;MIDI 01
273.486;000.278;42;000.258;MIDI 01
273.954;000.099;51;000.312;MIDI 01
273.791;000.358;48;000.297;MIDI 01
274.070;000.114;54;000.344;MIDI 01
274.217;000.132;57;000.352;MIDI 01
274.931;000.141;66;000.336;MIDI 01
274.349;003.157;60;000.344;MIDI 01
274.516;003.015;63;000.336;MIDI 01
277.497;000.275;69;000.258;MIDI 01
278.989;000.222;75;000.281;MIDI 01
281.120;000.276;78;000.305;MIDI 01
286.386;001.176;37;000.242;MIDI 01
286.971;000.617;42;000.250;MIDI 01
287.320;000.396;46;000.258;MIDI 01
287.568;000.224;49;000.297;MIDI 01
287.807;000.519;54;000.227;MIDI 01
288.020;000.645;58;000.250;MIDI 01
288.277;000.428;61;000.281;MIDI 01
288.603;000.800;66;000.273;MIDI 01
289.491;000.297;70;000.289;MIDI 01
292.129;000.250;73;000.219;MIDI 01
293.810;000.211;78;000.195;MIDI 01
296.692;000.231;82;000.266;MIDI 01
301.915;000.058;30;000.797;MIDI 01
301.931;000.060;54;000.680;MIDI 01
302.034;000.092;61;000.578;MIDI 01
302.150;000.021;54;000.422;MIDI 01
301.927;000.296;57;000.719;MIDI 01
302.220;000.092;61;000.594;MIDI 01
302.294;000.061;54;000.430;MIDI 01
302.311;000.096;57;000.477;MIDI 01
302.399;000.084;61;000.578;MIDI 01
302.411;000.119;33;000.672;MIDI 01
302.474;000.067;54;000.562;MIDI 01
302.472;000.109;57;000.305;MIDI 01
302.580;000.085;61;000.594;MIDI 01
302.683;000.043;54;000.539;MIDI 01
302.692;000.082;57;000.398;MIDI 01
302.694;000.082;37;000.688;MIDI 01
302.760;000.114;61;000.633;MIDI 01
302.881;000.043;54;000.453;MIDI 01
302.886;000.089;57;000.477;MIDI 01
302.964;000.061;42;000.734;MIDI 01
302.971;000.094;61;000.578;MIDI 01
303.047;000.052;54;000.508;MIDI 01
303.107;000.061;57;000.367;MIDI 01
303.169;000.062;61;000.484;MIDI 01
303.230;000.048;54;000.523;MIDI 01
303.284;000.055;57;000.398;MIDI 01
303.355;000.056;61;000.484;MIDI 01
303.408;000.045;54;000.430;MIDI 01
303.468;000.080;57;000.336;MIDI 01
303.544;000.028;61;000.336;MIDI 01
303.577;000.041;54;000.445;MIDI 01
303.736;000.029;54;000.461;MIDI 01
303.882;000.054;54;000.461;MIDI 01
303.708;000.274;73;000.414;MIDI 01
303.988;000.064;61;000.242;MIDI 01
304.058;000.035;54;000.422;MIDI 01
304.076;000.052;57;000.375;MIDI 01
304.172;000.049;61;000.227;MIDI 01
303.969;000.262;72;000.469;MIDI 01
304.212;000.056;54;000.453;MIDI 01
304.260;000.048;57;000.391;MIDI 01
304.397;000.033;54;000.391;MIDI 01
304.411;000.057;57;000.328;MIDI 01
304.221;000.290;73;000.531;MIDI 01
304.544;000.052;54;000.469;MIDI 01
304.590;000.045;57;000.406;MIDI 01
304.497;000.140;74;000.547;MIDI 01
304.663;000.048;61;000.266;MIDI 01
304.739;000.034;54;000.430;MIDI 01
304.767;000.053;57;000.383;MIDI 01
304.747;000.098;73;000.516;MIDI 01
304.835;000.058;61;000.453;MIDI 01
304.897;000.042;54;000.453;MIDI 01
304.947;000.047;57;000.352;MIDI 01
305.065;000.050;54;000.438;MIDI 01
305.081;000.065;57;000.391;MIDI 01
305.204;000.042;61;000.320;MIDI 01
305.247;000.047;54;000.383;MIDI 01
305.056;000.265;73;000.500;MIDI 01
305.281;000.062;57;000.383;MIDI 01
305.358;000.048;61;000.469;MIDI 01
305.425;000.043;54;000.422;MIDI 01
305.491;000.036;57;000.258;MIDI 01
305.527;000.058;61;000.484;MIDI 01
305.585;000.059;73;000.586;MIDI 01
305.603;000.046;54;000.414;MIDI 01
305.645;000.048;57;000.398;MIDI 01
305.709;000.050;61;000.516;MIDI 01
305.780;000.043;54;000.445;MIDI 01
305.819;000.061;57;000.430;MIDI 01
305.900;000.062;61;000.422;MIDI 01
305.941;000.101;54;000.523;MIDI 01
306.145;000.074;53;000.602;MIDI 01
306.136;000.130;59;000.578;MIDI 01
306.253;000.095;61;000.656;MIDI 01
306.364;000.026;53;000.453;MIDI 01
306.416;000.026;59;000.359;MIDI 01
306.108;000.390;32;000.695;MIDI 01
306.440;000.088;61;000.531;MIDI 01
306.507;000.080;53;000.492;MIDI 01
306.541;000.086;59;000.523;MIDI 01
306.625;000.084;61;000.578;MIDI 01
306.643;000.114;35;000.672;MIDI 01
306.701;000.057;53;000.570;MIDI 01
306.729;000.084;59;000.484;MIDI 01
306.824;000.083;61;000.539;MIDI 01
306.899;000.071;53;000.570;MIDI 01
306.911;000.101;59;000.562;MIDI 01
306.897;000.134;41;000.703;MIDI 01
307.011;000.109;61;000.609;MIDI 01
307.152;000.057;44;000.734;MIDI 01
307.129;000.082;53;000.539;MIDI 01
307.143;000.093;59;000.523;MIDI 01
307.226;000.111;61;000.609;MIDI 01
307.350;000.055;53;000.484;MIDI 01
307.373;000.072;59;000.398;MIDI 01
307.451;000.061;61;000.492;MIDI 01
307.550;000.056;53;000.375;MIDI 01
307.582;000.060;59;000.320;MIDI 01
307.641;000.065;61;000.484;MIDI 01
307.741;000.033;53;000.391;MIDI 01
307.755;000.069;59;000.336;MIDI 01
307.848;000.043;61;000.336;MIDI 01
307.904;000.068;53;000.398;MIDI 01
307.941;000.072;59;000.328;MIDI 01
308.019;000.055;61;000.406;MIDI 01
308.105;000.060;53;000.445;MIDI 01
307.901;000.274;73;000.453;MIDI 01
308.109;000.137;59;000.328;MIDI 01
308.220;000.033;61;000.398;MIDI 01
308.285;000.056;53;000.453;MIDI 01
308.163;000.254;72;000.492;MIDI 01
308.374;000.075;61;000.492;MIDI 01
308.464;000.057;53;000.445;MIDI 01
308.583;000.043;61;000.391;MIDI 01
308.288;000.343;59;000.133;MIDI 01
308.407;000.280;73;000.570;MIDI 01
308.645;000.055;53;000.492;MIDI 01
308.659;000.094;59;000.211;MIDI 01
308.747;000.074;61;000.500;MIDI 01
308.843;000.061;53;000.438;MIDI 01
308.661;000.267;74;000.570;MIDI 01
308.869;000.090;59;000.383;MIDI 01
308.908;000.102;73;000.555;MIDI 01
308.962;000.052;61;000.430;MIDI 01
309.059;000.033;53;000.430;MIDI 01
309.196;000.073;53;000.469;MIDI 01
309.086;000.310;59;000.281;MIDI 01
309.172;000.230;73;000.570;MIDI 01
309.366;000.053;61;000.320;MIDI 01
309.439;000.048;53;000.281;MIDI 01
309.434;000.116;59;000.039;MIDI 01
309.521;000.080;61;000.453;MIDI 01
309.627;000.071;53;000.414;MIDI 01
309.667;000.066;59;000.312;MIDI 01
309.710;000.076;73;000.547;MIDI 01
309.744;000.053;61;000.391;MIDI 01
309.834;000.035;53;000.273;MIDI 01
309.856;000.059;59;000.344;MIDI 01
309.979;000.067;53;000.477;MIDI 01
310.057;000.115;61;000.422;MIDI 01
310.207;000.108;54;000.594;MIDI 01
310.330;000.058;61;000.484;MIDI 01
310.359;000.059;57;000.344;MIDI 01
310.429;000.079;54;000.539;MIDI 01
310.524;000.054;61;000.445;MIDI 01
310.566;000.044;57;000.398;MIDI 01
310.185;000.428;33;000.688;MIDI 01
310.598;000.086;54;000.523;MIDI 01
310.690;000.064;61;000.547;MIDI 01
310.723;000.057;57;000.438;MIDI 01
310.721;000.101;37;000.680;MIDI 01
310.777;000.087;54;000.555;MIDI 01
310.880;000.047;61;000.500;MIDI 01
310.925;000.044;57;000.289;MIDI 01
310.968;000.075;54;000.594;MIDI 01
310.983;000.136;42;000.711;MIDI 01
311.032;000.092;61;000.523;MIDI 01
311.090;000.064;57;000.367;MIDI 01
311.154;000.086;54;000.586;MIDI 01
311.251;000.052;45;000.773;MIDI 01
311.249;000.091;61;000.523;MIDI 01
311.277;000.073;57;000.477;MIDI 01
311.350;000.096;54;000.609;MIDI 01
311.467;000.048;61;000.398;MIDI 01
311.502;000.054;57;000.336;MIDI 01
311.552;000.084;54;000.523;MIDI 01
311.641;000.070;61;000.492;MIDI 01
311.700;000.045;57;000.406;MIDI 01
311.750;000.079;54;000.516;MIDI 01
311.770;000.064;78;000.742;MIDI 01
311.830;000.055;61;000.492;MIDI 01
311.875;000.069;57;000.352;MIDI 01
311.938;000.081;54;000.492;MIDI 01
312.005;000.045;61;000.469;MIDI 01
312.105;000.060;54;000.383;MIDI 01
312.086;000.188;57;000.383;MIDI 01
312.166;000.118;61;000.461;MIDI 01
312.295;000.075;54;000.648;MIDI 01
312.419;000.060;62;000.523;MIDI 01
312.423;000.062;59;000.469;MIDI 01
312.496;000.072;54;000.602;MIDI 01
312.592;000.047;62;000.516;MIDI 01
312.596;000.077;59;000.445;MIDI 01
312.291;000.401;35;000.648;MIDI 01
312.670;000.075;54;000.609;MIDI 01
312.750;000.077;62;000.555;MIDI 01
312.776;000.056;59;000.438;MIDI 01
312.800;000.108;38;000.617;MIDI 01
312.841;000.081;54;000.586;MIDI 01
312.940;000.047;62;000.500;MIDI 01
312.960;000.052;59;000.484;MIDI 01
313.029;000.072;54;000.570;MIDI 01
313.097;000.084;62;000.547;MIDI 01
313.129;000.079;59;000.523;MIDI 01
313.039;000.176;42;000.680;MIDI 01
313.204;000.062;54;000.609;MIDI 01
313.311;000.048;47;000.711;MIDI 01
313.290;000.072;62;000.531;MIDI 01
313.351;000.097;54;000.641;MIDI 01
313.457;000.081;62;000.500;MIDI 01
313.495;000.064;59;000.406;MIDI 01
313.550;000.076;54;000.578;MIDI 01
313.642;000.091;62;000.508;MIDI 01
313.678;000.086;59;000.453;MIDI 01
313.740;000.080;54;000.594;MIDI 01
313.843;000.051;78;000.750;MIDI 01
313.824;000.101;62;000.484;MIDI 01
313.854;000.085;59;000.461;MIDI 01
313.910;000.102;54;000.430;MIDI 01
314.007;000.089;62;000.492;MIDI 01
314.046;000.061;59;000.391;MIDI 01
314.121;000.055;54;000.523;MIDI 01
314.250;000.053;59;000.398;MIDI 01
314.193;000.154;62;000.438;MIDI 01
314.357;000.079;55;000.680;MIDI 01
314.470;000.055;62;000.570;MIDI 01
314.464;000.083;59;000.492;MIDI 01
314.552;000.067;55;000.547;MIDI 01
314.347;000.281;35;000.680;MIDI 01
314.637;000.051;62;000.516;MIDI 01
314.633;000.090;59;000.516;MIDI 01
314.727;000.076;55;000.609;MIDI 01
314.817;000.060;62;000.562;MIDI 01
314.821;000.076;59;000.523;MIDI 01
314.853;000.094;38;000.641;MIDI 01
314.896;000.088;55;000.586;MIDI 01
315.000;000.054;62;000.562;MIDI 01
315.010;000.068;59;000.508;MIDI 01
315.091;000.080;55;000.617;MIDI 01
315.175;000.099;62;000.562;MIDI 01
315.192;000.084;59;000.547;MIDI 01
315.104;000.177;43;000.719;MIDI 01
315.280;000.071;55;000.625;MIDI 01
315.389;000.046;47;000.758;MIDI 01
315.385;000.082;59;000.531;MIDI 01
315.371;000.099;62;000.547;MIDI 01
315.461;000.085;55;000.656;MIDI 01
315.584;000.068;59;000.500;MIDI 01
315.561;000.097;62;000.477;MIDI 01
315.658;000.089;55;000.656;MIDI 01
315.768;000.070;59;000.508;MIDI 01
315.752;000.095;62;000.484;MIDI 01
315.858;000.087;55;000.617;MIDI 01
315.907;000.041;81;000.719;MIDI 01
315.913;000.044;79;000.703;MIDI 01
315.960;000.080;59;000.516;MIDI 01
315.954;000.106;62;000.500;MIDI 01
316.055;000.071;55;000.625;MIDI 01
316.122;000.094;62;000.383;MIDI 01
316.154;000.070;59;000.430;MIDI 01
316.216;000.080;55;000.602;MIDI 01
316.312;000.095;59;000.391;MIDI 01
316.305;000.105;62;000.461;MIDI 01
316.423;000.085;55;000.688;MIDI 01
316.541;000.061;60;000.414;MIDI 01
316.540;000.065;64;000.539;MIDI 01
316.619;000.086;55;000.609;MIDI 01
316.730;000.058;64;000.531;MIDI 01
316.717;000.076;60;000.523;MIDI 01
316.429;000.385;36;000.680;MIDI 01
316.807;000.094;55;000.609;MIDI 01
316.901;000.090;64;000.547;MIDI 01
316.915;000.082;60;000.531;MIDI 01
316.921;000.095;40;000.719;MIDI 01
316.983;000.048;41;000.211;MIDI 01
316.997;000.078;55;000.578;MIDI 01
317.100;000.060;64;000.492;MIDI 01
317.103;000.090;60;000.516;MIDI 01
317.174;000.097;43;000.711;MIDI 01
317.193;000.097;55;000.648;MIDI 01
317.285;000.098;64;000.555;MIDI 01
317.297;000.095;60;000.484;MIDI 01
317.401;000.090;55;000.586;MIDI 01
317.490;000.002;47;000.320;MIDI 01
317.449;000.046;48;000.766;MIDI 01
317.484;000.101;64;000.547;MIDI 01
317.488;000.109;60;000.531;MIDI 01
317.597;000.094;55;000.594;MIDI 01
317.695;000.087;64;000.508;MIDI 01
317.698;000.091;60;000.531;MIDI 01
317.782;000.102;55;000.539;MIDI 01
317.893;000.066;64;000.477;MIDI 01
317.904;000.078;60;000.516;MIDI 01
317.957;000.046;79;000.781;MIDI 01
317.980;000.100;55;000.594;MIDI 01
318.084;000.061;64;000.547;MIDI 01
318.095;000.081;60;000.516;MIDI 01
318.181;000.074;55;000.539;MIDI 01
318.291;000.027;64;000.445;MIDI 01
318.339;000.057;55;000.578;MIDI 01
318.298;000.133;60;000.406;MIDI 01
318.426;000.070;64;000.508;MIDI 01
318.502;000.059;57;000.664;MIDI 01
318.598;000.056;61;000.531;MIDI 01
318.627;000.042;64;000.508;MIDI 01
318.675;000.089;57;000.625;MIDI 01
318.438;000.380;37;000.703;MIDI 01
318.776;000.071;64;000.492;MIDI 01
318.767;000.086;61;000.562;MIDI 01
318.858;000.071;57;000.602;MIDI 01
318.968;000.049;64;000.539;MIDI 01
318.954;000.065;61;000.508;MIDI 01
318.970;000.095;40;000.648;MIDI 01
319.030;000.081;57;000.609;MIDI 01
319.134;000.056;64;000.500;MIDI 01
319.132;000.090;61;000.555;MIDI 01
319.218;000.081;57;000.656;MIDI 01
319.204;000.127;45;000.695;MIDI 01
319.309;000.080;64;000.562;MIDI 01
319.311;000.108;61;000.547;MIDI 01
319.449;000.050;49;000.758;MIDI 01
319.416;000.086;57;000.680;MIDI 01
319.516;000.089;64;000.555;MIDI 01
319.510;000.104;61;000.555;MIDI 01
319.619;000.088;57;000.672;MIDI 01
319.723;000.086;64;000.492;MIDI 01
319.729;000.089;61;000.547;MIDI 01
319.815;000.094;57;000.617;MIDI 01
319.949;000.047;81;000.789;MIDI 01
319.918;000.082;64;000.469;MIDI 01
319.926;000.100;61;000.555;MIDI 01
320.014;000.096;57;000.617;MIDI 01
320.114;000.065;64;000.469;MIDI 01
320.122;000.088;61;000.492;MIDI 01
320.198;000.086;57;000.562;MIDI 01
320.308;000.080;64;000.539;MIDI 01
320.314;000.096;61;000.469;MIDI 01
320.409;000.073;57;000.711;MIDI 01
320.530;000.068;65;000.562;MIDI 01
320.538;000.065;62;000.492;MIDI 01
320.421;000.265;38;000.742;MIDI 01
320.617;000.089;57;000.594;MIDI 01
320.719;000.049;65;000.555;MIDI 01
320.710;000.093;62;000.594;MIDI 01
320.800;000.092;57;000.609;MIDI 01
320.892;000.102;65;000.562;MIDI 01
320.901;000.098;62;000.555;MIDI 01
320.913;000.095;41;000.695;MIDI 01
320.985;000.086;57;000.641;MIDI 01
321.094;000.081;65;000.531;MIDI 01
321.105;000.092;62;000.516;MIDI 01
321.182;000.092;45;000.758;MIDI 01
321.186;000.095;57;000.672;MIDI 01
321.278;000.105;65;000.523;MIDI 01
321.286;000.107;62;000.516;MIDI 01
321.402;000.092;57;000.602;MIDI 01
321.453;000.050;50;000.734;MIDI 01
321.491;000.090;65;000.586;MIDI 01
321.544;000.044;64;000.258;MIDI 01
321.489;000.105;62;000.586;MIDI 01
321.613;000.090;57;000.664;MIDI 01
321.734;000.043;64;000.438;MIDI 01
321.746;000.035;60;000.453;MIDI 01
321.717;000.077;65;000.523;MIDI 01
321.729;000.067;62;000.438;MIDI 01
321.811;000.092;57;000.609;MIDI 01
321.959;000.048;81;000.727;MIDI 01
321.926;000.083;65;000.562;MIDI 01
321.980;000.036;83;000.531;MIDI 01
321.935;000.084;62;000.586;MIDI 01
322.016;000.084;57;000.609;MIDI 01
322.148;000.049;64;000.289;MIDI 01
322.091;000.106;65;000.492;MIDI 01
322.110;000.092;62;000.516;MIDI 01
322.206;000.126;57;000.633;MIDI 01
322.299;000.090;62;000.508;MIDI 01
322.322;000.103;65;000.578;MIDI 01
322.415;000.040;47;000.680;MIDI 01
322.549;000.035;62;000.633;MIDI 01
322.676;000.030;60;000.453;MIDI 01
322.660;000.053;59;000.398;MIDI 01
322.754;000.045;62;000.516;MIDI 01
322.858;000.069;59;000.562;MIDI 01
322.953;000.049;62;000.594;MIDI 01
323.056;000.040;59;000.633;MIDI 01
323.149;000.070;62;000.609;MIDI 01
323.244;000.034;59;000.555;MIDI 01
323.334;000.040;62;000.570;MIDI 01
323.381;000.111;59;000.562;MIDI 01
323.470;000.044;62;000.602;MIDI 01
323.011;000.528;68;000.680;MIDI 01
323.015;000.579;80;000.680;MIDI 01
323.578;000.025;46;000.672;MIDI 01
323.704;000.024;62;000.461;MIDI 01
323.788;000.050;58;000.609;MIDI 01
323.882;000.056;62;000.359;MIDI 01
323.981;000.068;58;000.562;MIDI 01
324.073;000.048;62;000.570;MIDI 01
324.165;000.068;58;000.656;MIDI 01
324.166;000.164;86;000.742;MIDI 01
324.275;000.062;62;000.617;MIDI 01
324.170;000.175;74;000.695;MIDI 01
324.376;000.045;58;000.570;MIDI 01
324.473;000.034;62;000.539;MIDI 01
324.543;000.087;58;000.594;MIDI 01
324.593;000.056;62;000.562;MIDI 01
324.681;000.028;85;000.578;MIDI 01
324.695;000.032;45;000.703;MIDI 01
324.675;000.060;73;000.734;MIDI 01
324.927;000.056;57;000.516;MIDI 01
324.923;000.097;69;000.477;MIDI 01
325.073;000.109;68;000.445;MIDI 01
325.090;000.098;56;000.430;MIDI 01
325.223;000.106;57;000.438;MIDI 01
325.210;000.127;69;000.398;MIDI 01
325.370;000.098;56;000.445;MIDI 01
325.364;000.129;68;000.430;MIDI 01
325.505;000.121;69;000.523;MIDI 01
325.497;000.145;57;000.508;MIDI 01
325.642;000.101;56;000.508;MIDI 01
325.646;000.113;68;000.570;MIDI 01
325.757;000.135;57;000.562;MIDI 01
325.768;000.127;69;000.602;MIDI 01
325.906;000.102;56;000.586;MIDI 01
325.899;000.131;68;000.617;MIDI 01
326.036;000.080;57;000.586;MIDI 01
326.038;000.084;69;000.617;MIDI 01
326.183;000.106;64;000.586;MIDI 01
326.186;000.121;73;000.656;MIDI 01
326.190;000.120;61;000.547;MIDI 01
326.195;000.127;76;000.594;MIDI 01
326.331;000.107;69;000.641;MIDI 01
326.332;000.154;57;000.602;MIDI 01
326.477;000.078;65;000.602;MIDI 01
326.467;000.121;74;000.688;MIDI 01
326.483;000.125;62;000.609;MIDI 01
326.469;000.176;77;000.641;MIDI 01
326.642;000.107;57;000.578;MIDI 01
326.625;000.142;69;000.594;MIDI 01
326.766;000.086;59;000.492;MIDI 01
326.830;000.042;60;000.258;MIDI 01
326.761;000.113;74;000.578;MIDI 01
326.801;000.089;62;000.289;MIDI 01
326.784;000.110;71;000.492;MIDI 01
326.895;000.107;57;000.531;MIDI 01
326.907;000.114;69;000.586;MIDI 01
327.035;000.101;64;000.445;MIDI 01
327.040;000.099;61;000.469;MIDI 01
327.047;000.106;76;000.492;MIDI 01
327.041;000.125;73;000.539;MIDI 01
327.165;000.119;57;000.539;MIDI 01
327.161;000.137;69;000.602;MIDI 01
327.293;000.100;64;000.578;MIDI 01
327.296;000.142;61;000.539;MIDI 01
327.307;000.132;76;000.602;MIDI 01
327.305;000.139;73;000.633;MIDI 01
327.428;000.109;69;000.688;MIDI 01
327.422;000.151;57;000.641;MIDI 01
327.569;000.073;65;000.625;MIDI 01
327.579;000.132;74;000.695;MIDI 01
327.581;000.147;62;000.648;MIDI 01
327.583;000.181;77;000.672;MIDI 01
327.744;000.123;57;000.570;MIDI 01
327.740;000.134;69;000.578;MIDI 01
327.870;000.099;59;000.523;MIDI 01
327.882;000.121;74;000.555;MIDI 01
327.902;000.105;71;000.492;MIDI 01
327.900;000.126;62;000.469;MIDI 01
328.021;000.116;57;000.539;MIDI 01
328.018;000.139;69;000.594;MIDI 01
328.147;000.117;64;000.531;MIDI 01
328.150;000.127;61;000.547;MIDI 01
328.156;000.129;76;000.570;MIDI 01
328.154;000.135;73;000.617;MIDI 01
328.277;000.131;57;000.617;MIDI 01
328.283;000.136;69;000.641;MIDI 01
328.408;000.097;64;000.617;MIDI 01
328.416;000.129;61;000.602;MIDI 01
328.420;000.126;76;000.625;MIDI 01
328.418;000.131;73;000.625;MIDI 01
328.539;000.095;69;000.680;MIDI 01
328.542;000.129;57;000.656;MIDI 01
328.672;000.070;65;000.609;MIDI 01
328.683;000.116;74;000.672;MIDI 01
328.682;000.130;62;000.633;MIDI 01
328.685;000.152;77;000.641;MIDI 01
328.827;000.135;57;000.648;MIDI 01
328.829;000.141;69;000.617;MIDI 01
328.947;000.123;59;000.625;MIDI 01
328.962;000.125;74;000.594;MIDI 01
328.977;000.115;71;000.594;MIDI 01
328.975;000.129;62;000.578;MIDI 01
329.104;000.078;69;000.648;MIDI 01
329.102;000.087;57;000.641;MIDI 01
329.214;000.094;61;000.555;MIDI 01
329.238;000.082;64;000.578;MIDI 01
329.227;000.108;76;000.602;MIDI 01
329.234;000.131;73;000.617;MIDI 01
329.372;000.060;57;000.461;MIDI 01
329.366;000.093;69;000.547;MIDI 01
329.519;000.074;56;000.469;MIDI 01
329.507;000.113;68;000.508;MIDI 01
329.640;000.106;69;000.539;MIDI 01
329.631;000.118;57;000.500;MIDI 01
329.775;000.098;68;000.562;MIDI 01
329.770;000.113;56;000.547;MIDI 01
329.902;000.134;57;000.586;MIDI 01
329.900;000.148;69;000.578;MIDI 01
330.048;000.109;56;000.609;MIDI 01
330.035;000.133;68;000.594;MIDI 01
330.177;000.094;57;000.602;MIDI 01
330.182;000.119;69;000.625;MIDI 01
330.306;000.089;56;000.594;MIDI 01
330.308;000.121;68;000.578;MIDI 01
330.433;000.117;57;000.531;MIDI 01
330.440;000.120;69;000.578;MIDI 01
330.572;000.086;61;000.586;MIDI 01
330.557;000.112;49;000.570;MIDI 01
330.587;000.100;52;000.406;MIDI 01
330.565;000.144;64;000.531;MIDI 01
330.712;000.091;57;000.578;MIDI 01
330.706;000.116;69;000.531;MIDI 01
330.830;000.078;62;000.648;MIDI 01
330.835;000.098;50;000.586;MIDI 01
330.843;000.121;53;000.555;MIDI 01
330.828;000.156;65;000.648;MIDI 01
330.980;000.105;69;000.578;MIDI 01
330.984;000.123;57;000.602;MIDI 01
331.104;000.099;47;000.523;MIDI 01
331.113;000.096;50;000.516;MIDI 01
331.111;000.099;62;000.578;MIDI 01
331.124;000.097;59;000.547;MIDI 01
331.248;000.122;69;000.539;MIDI 01
331.255;000.123;57;000.516;MIDI 01
331.377;000.123;49;000.508;MIDI 01
331.392;000.110;52;000.516;MIDI 01
331.398;000.113;64;000.477;MIDI 01
331.396;000.123;61;000.555;MIDI 01
331.526;000.119;57;000.539;MIDI 01
331.519;000.133;69;000.578;MIDI 01
331.649;000.106;49;000.547;MIDI 01
331.657;000.118;52;000.531;MIDI 01
331.668;000.119;64;000.555;MIDI 01
331.661;000.131;61;000.586;MIDI 01
331.785;000.095;57;000.594;MIDI 01
331.788;000.135;69;000.633;MIDI 01
331.921;000.085;62;000.633;MIDI 01
331.919;000.096;50;000.617;MIDI 01
331.927;000.144;53;000.586;MIDI 01
331.923;000.157;65;000.641;MIDI 01
332.059;000.107;69;000.602;MIDI 01
332.055;000.128;57;000.586;MIDI 01
332.196;000.087;59;000.594;MIDI 01
332.175;000.115;47;000.547;MIDI 01
332.188;000.104;50;000.500;MIDI 01
332.198;000.096;62;000.570;MIDI 01
332.324;000.118;69;000.570;MIDI 01
332.332;000.118;57;000.555;MIDI 01
332.456;000.106;49;000.516;MIDI 01
332.469;000.107;52;000.500;MIDI 01
332.460;000.122;61;000.570;MIDI 01
332.475;000.109;64;000.438;MIDI 01
332.599;000.113;57;000.531;MIDI 01
332.589;000.124;69;000.570;MIDI 01
332.719;000.110;49;000.555;MIDI 01
332.730;000.101;52;000.523;MIDI 01
332.736;000.107;64;000.555;MIDI 01
332.726;000.125;61;000.586;MIDI 01
332.851;000.090;57;000.602;MIDI 01
332.849;000.134;69;000.633;MIDI 01
332.988;000.084;62;000.688;MIDI 01
332.983;000.092;50;000.602;MIDI 01
332.993;000.142;53;000.555;MIDI 01
332.991;000.151;65;000.633;MIDI 01
333.117;000.086;57;000.586;MIDI 01
333.126;000.108;69;000.617;MIDI 01
333.223;000.105;47;000.570;MIDI 01
333.251;000.091;62;000.609;MIDI 01
333.261;000.084;59;000.570;MIDI 01
333.242;000.114;50;000.492;MIDI 01
333.351;000.084;57;000.594;MIDI 01
333.473;000.065;52;000.547;MIDI 01
333.397;000.160;69;000.578;MIDI 01
333.517;000.089;64;000.555;MIDI 01
333.486;000.120;49;000.617;MIDI 01
333.508;000.136;61;000.617;MIDI 01
333.644;000.048;45;000.484;MIDI 01
333.661;000.120;57;000.555;MIDI 01
333.775;000.101;44;000.586;MIDI 01
333.789;000.111;56;000.594;MIDI 01
333.921;000.092;57;000.609;MIDI 01
333.911;000.154;45;000.531;MIDI 01
334.046;000.112;56;000.633;MIDI 01
334.052;000.133;44;000.625;MIDI 01
334.177;000.131;57;000.617;MIDI 01
334.190;000.135;45;000.656;MIDI 01
334.308;000.124;56;000.641;MIDI 01
334.321;000.119;44;000.664;MIDI 01
334.440;000.110;57;000.664;MIDI 01
334.439;000.131;45;000.664;MIDI 01
334.566;000.111;44;000.703;MIDI 01
334.570;000.126;56;000.656;MIDI 01
334.694;000.082;57;000.648;MIDI 01
334.692;000.113;45;000.664;MIDI 01
334.809;000.092;52;000.664;MIDI 01
334.830;000.084;49;000.586;MIDI 01
334.825;000.109;61;000.711;MIDI 01
334.841;000.115;64;000.617;MIDI 01
334.992;000.027;59;000.445;MIDI 01
334.961;000.080;57;000.641;MIDI 01
334.966;000.148;45;000.688;MIDI 01
335.096;000.115;62;000.711;MIDI 01
335.100;000.132;50;000.664;MIDI 01
335.094;000.148;47;000.656;MIDI 01
335.106;000.159;65;000.664;MIDI 01
335.239;000.092;57;000.633;MIDI 01
335.241;000.115;45;000.688;MIDI 01
335.385;000.094;53;000.570;MIDI 01
335.396;000.086;59;000.617;MIDI 01
335.392;000.129;62;000.578;MIDI 01
335.374;000.149;50;000.578;MIDI 01
335.533;000.101;57;000.609;MIDI 01
335.518;000.145;45;000.578;MIDI 01
335.663;000.120;52;000.547;MIDI 01
335.685;000.126;49;000.500;MIDI 01
335.676;000.137;61;000.570;MIDI 01
335.679;000.135;64;000.555;MIDI 01
335.810;000.128;45;000.602;MIDI 01
335.801;000.139;57;000.570;MIDI 01
335.931;000.096;52;000.602;MIDI 01
335.944;000.116;49;000.633;MIDI 01
335.939;000.133;61;000.617;MIDI 01
335.936;000.140;64;000.602;MIDI 01
336.065;000.092;57;000.664;MIDI 01
336.067;000.115;45;000.703;MIDI 01
336.205;000.106;50;000.680;MIDI 01
336.219;000.115;47;000.570;MIDI 01
336.211;000.124;62;000.695;MIDI 01
336.216;000.161;65;000.680;MIDI 01
336.324;000.137;45;000.672;MIDI 01
336.358;000.145;57;000.664;MIDI 01
336.501;000.082;59;000.602;MIDI 01
336.492;000.102;53;000.578;MIDI 01
336.494;000.132;62;000.633;MIDI 01
336.467;000.178;50;000.586;MIDI 01
336.626;000.133;45;000.633;MIDI 01
336.636;000.166;57;000.641;MIDI 01
336.774;000.132;52;000.586;MIDI 01
336.791;000.128;49;000.523;MIDI 01
336.784;000.143;64;000.594;MIDI 01
336.789;000.152;61;000.641;MIDI 01
336.916;000.138;45;000.625;MIDI 01
336.926;000.139;57;000.648;MIDI 01
337.060;000.099;52;000.664;MIDI 01
337.059;000.128;49;000.648;MIDI 01
337.062;000.132;64;000.609;MIDI 01
337.057;000.147;61;000.664;MIDI 01
337.185;000.099;45;000.711;MIDI 01
337.188;000.101;57;000.688;MIDI 01
337.323;000.128;50;000.703;MIDI 01
337.333;000.133;62;000.688;MIDI 01
337.343;000.148;47;000.539;MIDI 01
337.334;000.191;65;000.672;MIDI 01
337.467;000.176;45;000.664;MIDI 01
337.479;000.172;57;000.664;MIDI 01
337.643;000.095;59;000.695;MIDI 01
337.641;000.117;50;000.648;MIDI 01
337.637;000.127;62;000.633;MIDI 01
337.666;000.119;53;000.633;MIDI 01
337.820;000.078;55;000.625;MIDI 01
337.808;000.092;45;000.672;MIDI 01
337.815;000.093;57;000.555;MIDI 01
338.217;000.002;65;000.125;MIDI 01
338.158;000.510;49;000.625;MIDI 01
338.148;000.751;52;000.672;MIDI 01
338.146;000.759;57;000.695;MIDI 01
338.144;000.773;64;000.711;MIDI 01
338.150;000.864;45;000.617;MIDI 01
338.152;000.930;61;000.648;MIDI 01
339.672;000.726;62;000.711;MIDI 01
339.682;000.804;57;000.656;MIDI 01
339.680;000.829;33;000.625;MIDI 01
339.678;000.843;45;000.641;MIDI 01
339.685;000.849;53;000.602;MIDI 01
341.207;000.815;33;000.492;MIDI 01
341.218;000.823;57;000.531;MIDI 01
341.196;000.878;61;000.648;MIDI 01
341.204;000.928;45;000.500;MIDI 01
341.220;000.981;52;000.469;MIDI 01
342.883;000.804;58;000.422;MIDI 01
342.922;000.771;50;000.234;MIDI 01
342.905;000.849;33;000.250;MIDI 01
342.924;000.838;53;000.297;MIDI 01
342.871;000.960;45;000.297;MIDI 01
344.304;001.315;49;000.281;MIDI 01
344.439;001.703;52;000.281;MIDI 01
344.672;003.024;57;000.359;MIDI 01
344.692;003.044;33;000.211;MIDI 01
344.664;003.140;45;000.227;MIDI 01
348.678;000.734;58;000.406;MIDI 01
348.691;000.973;46;000.281;MIDI 01
350.241;000.591;45;000.305;MIDI 01
350.268;000.657;57;000.336;MIDI 01
350.685;000.371;43;000.305;MIDI 01
350.690;000.373;55;000.352;MIDI 01
350.999;000.386;41;000.344;MIDI 01
351.026;000.370;53;000.406;MIDI 01
351.320;000.317;51;000.453;MIDI 01
351.322;000.321;39;000.398;MIDI 01
351.614;000.447;38;000.391;MIDI 01
351.617;000.465;50;000.438;MIDI 01
352.010;000.445;49;000.438;MIDI 01
352.018;000.466;37;000.375;MIDI 01
352.400;000.430;55;000.469;MIDI 01
352.431;000.435;43;000.320;MIDI 01
352.859;000.323;46;000.328;MIDI 01
352.851;000.376;58;000.391;MIDI 01
353.188;000.320;57;000.414;MIDI 01
353.210;000.351;45;000.352;MIDI 01
353.519;000.344;55;000.406;MIDI 01
353.528;000.345;43;000.312;MIDI 01
353.857;000.468;53;000.320;MIDI 01
353.845;000.499;41;000.273;MIDI 01
354.270;000.546;39;000.266;MIDI 01
354.274;000.585;51;000.320;MIDI 01
354.786;000.703;38;000.219;MIDI 01
354.797;000.819;50;000.273;MIDI 01
356.716;002.244;52;000.250;MIDI 01
357.326;001.796;57;000.242;MIDI 01
360.073;000.324;61;000.250;MIDI 01
361.461;000.330;64;000.250;MIDI 01
363.449;002.382;69;000.266;MIDI 01
366.611;000.215;69;000.133;MIDI 01
367.327;000.710;69;000.258;MIDI 01
367.914;000.847;70;000.242;MIDI 01
368.637;001.643;69;000.289;MIDI 01
370.127;001.499;67;000.258;MIDI 01
372.510;000.994;76;000.352;MIDI 01
373.499;000.130;74;000.359;MIDI 01
374.051;001.608;74;000.367;MIDI 01
378.432;000.427;76;000.289;MIDI 01
375.567;005.790;73;000.305;MIDI 01
372.182;009.200;67;000.258;MIDI 01
379.758;003.476;76;000.297;MIDI 01
381.950;003.107;67;000.195;MIDI 01
383.017;002.099;70;000.211;MIDI 01
385.073;001.026;69;000.258;MIDI 01
385.984;001.637;67;000.242;MIDI 01
355.626;034.428;37;000.250;MIDI 01
356.221;034.098;45;000.195;MIDI 01
355.981;034.438;40;000.273;MIDI 01
356.427;034.593;49;000.258;MIDI 01
388.915;002.979;65;000.188;MIDI 01
392.701;000.121;69;000.312;MIDI 01
392.695;000.131;57;000.219;MIDI 01
392.720;000.108;49;000.133;MIDI 01
392.843;000.048;67;000.344;MIDI 01
393.018;000.077;50;000.297;MIDI 01
393.009;000.088;57;000.352;MIDI 01
393.014;000.121;67;000.461;MIDI 01
393.124;000.055;65;000.453;MIDI 01
393.276;000.074;57;000.367;MIDI 01
393.279;000.088;52;000.359;MIDI 01
393.284;000.109;65;000.492;MIDI 01
393.401;000.052;64;000.453;MIDI 01
393.538;000.057;57;000.297;MIDI 01
393.552;000.049;53;000.344;MIDI 01
393.546;000.067;64;000.492;MIDI 01
393.664;000.052;62;000.469;MIDI 01
393.804;000.092;49;000.359;MIDI 01
393.788;000.117;57;000.289;MIDI 01
393.830;000.099;69;000.438;MIDI 01
393.939;000.046;67;000.453;MIDI 01
394.076;000.064;50;000.383;MIDI 01
394.080;000.067;57;000.430;MIDI 01
394.073;000.124;67;000.547;MIDI 01
394.189;000.065;65;000.508;MIDI 01
394.319;000.074;57;000.430;MIDI 01
394.317;000.083;52;000.453;MIDI 01
394.340;000.103;65;000.492;MIDI 01
394.442;000.059;64;000.531;MIDI 01
394.565;000.044;53;000.422;MIDI 01
394.548;000.077;57;000.484;MIDI 01
394.572;000.083;64;000.570;MIDI 01
394.688;000.045;62;000.500;MIDI 01
394.841;000.113;54;000.398;MIDI 01
394.834;000.127;62;000.484;MIDI 01
394.854;000.110;74;000.500;MIDI 01
394.965;000.045;72;000.508;MIDI 01
395.117;000.069;62;000.500;MIDI 01
395.109;000.078;55;000.453;MIDI 01
395.096;000.104;72;000.609;MIDI 01
395.204;000.075;70;000.602;MIDI 01
395.329;000.089;57;000.500;MIDI 01
395.340;000.080;62;000.523;MIDI 01
395.344;000.120;70;000.594;MIDI 01
395.465;000.040;69;000.555;MIDI 01
395.590;000.103;62;000.523;MIDI 01
395.596;000.103;58;000.484;MIDI 01
395.582;000.130;69;000.609;MIDI 01
395.709;000.070;67;000.531;MIDI 01
395.861;000.142;62;000.500;MIDI 01
395.858;000.160;67;000.633;MIDI 01
395.867;000.162;58;000.469;MIDI 01
395.997;000.133;68;000.633;MIDI 01
396.320;001.442;68;000.648;MIDI 01
397.815;000.206;69;000.383;MIDI 01
397.941;000.132;68;000.453;MIDI 01
398.077;000.210;66;000.531;MIDI 01
398.236;000.263;68;000.523;MIDI 01
398.472;000.508;71;000.453;MIDI 01
396.340;002.949;65;000.531;MIDI 01
399.004;000.408;69;000.328;MIDI 01
396.349;003.103;62;000.453;MIDI 01
396.335;003.204;57;000.461;MIDI 01
400.139;002.073;57;000.203;MIDI 01
400.142;002.136;61;000.219;MIDI 01
400.120;002.795;69;000.320;MIDI 01
400.149;002.973;64;000.258;MIDI 01
407.623;002.284;55;000.141;MIDI 01
408.108;001.915;60;000.164;MIDI 01
411.140;000.401;64;000.164;MIDI 01
412.829;000.426;67;000.195;MIDI 01
415.387;002.226;72;000.188;MIDI 01
421.587;002.819;73;000.289;MIDI 01
424.270;001.268;61;000.242;MIDI 01
426.226;000.146;60;000.203;MIDI 01
426.766;001.680;60;000.242;MIDI 01
428.374;002.865;58;000.219;MIDI 01
431.243;000.325;67;000.227;MIDI 01
432.616;000.992;68;000.344;MIDI 01
433.585;001.282;70;000.328;MIDI 01
436.779;002.492;73;000.336;MIDI 01
432.000;007.433;67;000.266;MIDI 01
440.113;002.735;67;000.164;MIDI 01
435.529;007.574;70;000.367;MIDI 01
406.923;037.552;43;000.172;MIDI 01
406.508;038.183;40;000.125;MIDI 01
407.153;037.621;48;000.203;MIDI 01
407.375;037.637;52;000.156;MIDI 01
439.098;006.616;72;000.273;MIDI 01
441.850;006.804;68;000.219;MIDI 01
449.407;000.078;61;000.250;MIDI 01
449.381;000.107;68;000.258;MIDI 01
449.410;000.085;56;000.125;MIDI 01
449.427;000.070;37;000.055;MIDI 01
449.429;000.070;29;000.156;MIDI 01
449.422;000.079;41;000.203;MIDI 01
450.018;000.066;37;000.258;MIDI 01
450.026;000.059;41;000.281;MIDI 01
450.006;000.081;29;000.156;MIDI 01
450.015;000.083;61;000.312;MIDI 01
450.020;000.082;56;000.211;MIDI 01
450.004;000.105;68;000.305;MIDI 01
450.640;000.067;29;000.289;MIDI 01
450.634;000.082;37;000.273;MIDI 01
450.653;000.066;41;000.266;MIDI 01
450.644;000.078;61;000.305;MIDI 01
450.642;000.084;56;000.289;MIDI 01
450.629;000.099;68;000.320;MIDI 01
451.250;000.060;29;000.352;MIDI 01
451.268;000.050;41;000.352;MIDI 01
451.266;000.055;37;000.336;MIDI 01
451.261;000.064;61;000.336;MIDI 01
451.247;000.083;56;000.320;MIDI 01
451.245;000.100;68;000.367;MIDI 01
451.802;000.051;30;000.328;MIDI 01
451.841;000.054;42;000.281;MIDI 01
451.843;000.055;37;000.164;MIDI 01
451.815;000.154;69;000.312;MIDI 01
451.942;000.104;66;000.289;MIDI 01
452.022;000.060;61;000.430;MIDI 01
452.117;000.044;57;000.406;MIDI 01
452.196;000.050;54;000.273;MIDI 01
452.260;000.061;49;000.430;MIDI 01
452.348;000.124;57;000.375;MIDI 01
452.486;000.035;49;000.383;MIDI 01
452.443;000.102;54;000.367;MIDI 01
452.532;000.183;45;000.469;MIDI 01
452.645;000.079;49;000.477;MIDI 01
452.707;000.042;54;000.469;MIDI 01
452.732;000.103;57;000.414;MIDI 01
452.844;000.046;66;000.477;MIDI 01
452.795;000.128;61;000.469;MIDI 01
452.910;000.128;69;000.516;MIDI 01
453.006;000.084;66;000.477;MIDI 01
453.089;000.053;61;000.492;MIDI 01
453.177;000.071;57;000.438;MIDI 01
453.257;000.055;61;000.508;MIDI 01
453.349;000.024;66;000.492;MIDI 01
453.440;000.127;69;000.562;MIDI 01
453.597;000.048;78;000.531;MIDI 01
453.541;000.154;73;000.547;MIDI 01
453.679;000.142;81;000.531;MIDI 01
453.770;000.105;78;000.570;MIDI 01
453.850;000.073;73;000.570;MIDI 01
453.919;000.031;69;000.523;MIDI 01
454.084;000.034;69;000.469;MIDI 01
454.102;000.032;54;000.438;MIDI 01
454.107;000.029;57;000.445;MIDI 01
454.109;000.035;50;000.398;MIDI 01
454.111;000.035;62;000.359;MIDI 01
454.118;000.048;42;000.297;MIDI 01
454.723;000.047;50;000.367;MIDI 01
454.721;000.053;54;000.398;MIDI 01
454.726;000.060;42;000.375;MIDI 01
454.717;000.073;62;000.375;MIDI 01
454.701;000.099;69;000.469;MIDI 01
454.708;000.098;57;000.406;MIDI 01
455.289;000.042;50;000.406;MIDI 01
455.278;000.056;54;000.445;MIDI 01
455.274;000.073;42;000.445;MIDI 01
455.267;000.088;62;000.461;MIDI 01
455.270;000.086;57;000.422;MIDI 01
455.264;000.095;69;000.500;MIDI 01
455.844;000.062;57;000.500;MIDI 01
455.850;000.059;42;000.469;MIDI 01
455.864;000.048;54;000.430;MIDI 01
455.866;000.048;50;000.406;MIDI 01
455.848;000.079;62;000.508;MIDI 01
455.846;000.100;69;000.539;MIDI 01
456.352;000.046;43;000.375;MIDI 01
456.373;000.050;55;000.344;MIDI 01
456.390;000.050;50;000.250;MIDI 01
456.383;000.093;70;000.367;MIDI 01
456.467;000.054;67;000.445;MIDI 01
456.567;000.040;62;000.430;MIDI 01
456.680;000.043;58;000.289;MIDI 01
456.697;000.071;55;000.523;MIDI 01
456.768;000.098;50;000.391;MIDI 01
456.841;000.097;58;000.438;MIDI 01
456.924;000.114;55;000.523;MIDI 01
457.010;000.035;50;000.508;MIDI 01
457.071;000.146;46;000.430;MIDI 01
457.214;000.048;55;000.391;MIDI 01
457.244;000.047;58;000.484;MIDI 01
457.111;000.205;50;000.430;MIDI 01
457.361;000.031;67;000.367;MIDI 01
457.276;000.126;62;000.461;MIDI 01
457.418;000.119;70;000.523;MIDI 01
457.498;000.108;67;000.555;MIDI 01
457.583;000.043;62;000.516;MIDI 01
457.655;000.131;58;000.555;MIDI 01
457.743;000.092;62;000.508;MIDI 01
457.843;000.068;67;000.570;MIDI 01
457.921;000.022;70;000.555;MIDI 01
458.004;000.111;74;000.609;MIDI 01
458.116;000.022;79;000.453;MIDI 01
458.146;000.118;82;000.570;MIDI 01
458.239;000.041;79;000.555;MIDI 01
458.311;000.048;74;000.586;MIDI 01
458.415;000.038;70;000.641;MIDI 01
458.550;000.037;64;000.586;MIDI 01
458.556;000.036;61;000.617;MIDI 01
458.562;000.037;58;000.555;MIDI 01
458.560;000.043;55;000.508;MIDI 01
458.542;000.104;67;000.617;MIDI 01
458.539;000.116;76;000.641;MIDI 01
458.544;000.113;73;000.562;MIDI 01
458.547;000.111;70;000.586;MIDI 01
459.151;000.087;64;000.641;MIDI 01
459.149;000.100;55;000.570;MIDI 01
459.157;000.097;61;000.602;MIDI 01
459.159;000.098;58;000.578;MIDI 01
459.145;000.122;67;000.656;MIDI 01
459.147;000.122;70;000.664;MIDI 01
459.153;000.124;73;000.648;MIDI 01
459.143;000.136;76;000.688;MIDI 01
459.751;000.078;64;000.656;MIDI 01
459.757;000.082;55;000.602;MIDI 01
459.761;000.093;61;000.648;MIDI 01
459.759;000.099;58;000.633;MIDI 01
459.753;000.128;67;000.664;MIDI 01
459.745;000.141;76;000.719;MIDI 01
459.755;000.134;70;000.664;MIDI 01
459.764;000.128;73;000.648;MIDI 01
460.349;000.073;64;000.625;MIDI 01
460.346;000.079;55;000.594;MIDI 01
460.351;000.082;67;000.672;MIDI 01
460.359;000.079;58;000.633;MIDI 01
460.355;000.087;61;000.648;MIDI 01
460.353;000.100;70;000.672;MIDI 01
460.361;000.107;73;000.641;MIDI 01
460.343;000.128;76;000.695;MIDI 01
460.917;000.041;65;000.539;MIDI 01
460.922;000.061;62;000.523;MIDI 01
460.920;000.071;59;000.531;MIDI 01
460.915;000.099;56;000.523;MIDI 01
460.955;000.108;74;000.531;MIDI 01
460.913;000.169;77;000.586;MIDI 01
461.081;000.048;71;000.578;MIDI 01
461.178;000.142;68;000.562;MIDI 01
461.285;000.092;65;000.562;MIDI 01
461.357;000.161;74;000.609;MIDI 01
461.458;000.140;71;000.531;MIDI 01
461.526;000.152;68;000.586;MIDI 01
461.636;000.051;65;000.547;MIDI 01
461.718;000.086;62;000.547;MIDI 01
461.811;000.048;65;000.555;MIDI 01
461.889;000.030;68;000.477;MIDI 01
461.976;000.091;71;000.602;MIDI 01
462.062;000.110;74;000.633;MIDI 01
462.149;000.060;77;000.430;MIDI 01
462.209;000.030;80;000.617;MIDI 01
462.319;000.081;83;000.531;MIDI 01
462.389;000.109;86;000.648;MIDI 01
462.479;000.331;89;000.703;MIDI 01
462.833;000.185;86;000.641;MIDI 01
463.191;000.067;57;000.516;MIDI 01
463.189;000.128;85;000.664;MIDI 01
463.330;000.111;69;000.508;MIDI 01
463.465;000.094;64;000.453;MIDI 01
463.473;000.091;67;000.438;MIDI 01
463.611;000.076;69;000.469;MIDI 01
463.749;000.053;70;000.430;MIDI 01
463.863;000.079;69;000.477;MIDI 01
464.002;000.056;64;000.445;MIDI 01
464.010;000.053;67;000.414;MIDI 01
463.984;000.104;88;000.453;MIDI 01
464.098;000.057;85;000.484;MIDI 01
464.126;000.050;69;000.469;MIDI 01
464.247;000.056;57;000.516;MIDI 01
464.246;000.100;81;000.477;MIDI 01
464.372;000.044;69;000.508;MIDI 01
464.351;000.071;82;000.523;MIDI 01
464.507;000.061;64;000.484;MIDI 01
464.504;000.077;67;000.484;MIDI 01
464.492;000.130;82;000.547;MIDI 01
464.626;000.043;79;000.531;MIDI 01
464.651;000.059;69;000.461;MIDI 01
464.770;000.057;70;000.500;MIDI 01
464.894;000.058;69;000.461;MIDI 01
465.038;000.049;64;000.406;MIDI 01
465.041;000.051;67;000.391;MIDI 01
465.060;000.126;88;000.500;MIDI 01
465.154;000.053;69;000.430;MIDI 01
465.192;000.052;85;000.477;MIDI 01
465.292;000.065;57;000.500;MIDI 01
465.311;000.085;81;000.531;MIDI 01
465.419;000.052;69;000.477;MIDI 01
465.427;000.058;82;000.555;MIDI 01
465.556;000.080;64;000.484;MIDI 01
465.559;000.087;67;000.484;MIDI 01
465.561;000.121;82;000.562;MIDI 01
465.682;000.058;79;000.570;MIDI 01
465.703;000.094;69;000.508;MIDI 01
465.839;000.050;70;000.500;MIDI 01
465.953;000.053;69;000.523;MIDI 01
466.090;000.049;64;000.461;MIDI 01
466.098;000.047;67;000.422;MIDI 01
466.104;000.112;88;000.461;MIDI 01
466.214;000.046;69;000.406;MIDI 01
466.216;000.049;85;000.492;MIDI 01
466.330;000.054;57;000.492;MIDI 01
466.356;000.079;81;000.484;MIDI 01
466.464;000.058;82;000.484;MIDI 01
466.443;000.098;69;000.422;MIDI 01
466.592;000.052;64;000.438;MIDI 01
466.615;000.048;67;000.172;MIDI 01
466.640;000.051;65;000.195;MIDI 01
466.594;000.114;82;000.492;MIDI 01
466.719;000.034;79;000.523;MIDI 01
466.703;000.070;69;000.531;MIDI 01
466.837;000.078;57;000.477;MIDI 01
466.840;000.105;79;000.547;MIDI 01
466.966;000.038;77;000.508;MIDI 01
466.945;000.121;69;000.516;MIDI 01
467.085;000.107;61;000.500;MIDI 01
467.108;000.093;64;000.406;MIDI 01
467.093;000.117;77;000.562;MIDI 01
467.214;000.021;76;000.516;MIDI 01
467.222;000.066;69;000.539;MIDI 01
467.336;000.097;76;000.570;MIDI 01
467.352;000.083;57;000.508;MIDI 01
467.471;000.089;77;000.570;MIDI 01
467.468;000.104;69;000.492;MIDI 01
467.599;000.059;74;000.539;MIDI 01
467.597;000.068;62;000.438;MIDI 01
467.622;000.061;65;000.359;MIDI 01
467.735;000.108;69;000.477;MIDI 01
467.875;000.054;70;000.492;MIDI 01
467.992;000.071;69;000.523;MIDI 01
468.120;000.067;89;000.445;MIDI 01
468.131;000.064;62;000.383;MIDI 01
468.135;000.065;65;000.430;MIDI 01
468.233;000.032;86;000.352;MIDI 01
468.247;000.048;69;000.500;MIDI 01
468.364;000.068;57;000.539;MIDI 01
468.382;000.089;80;000.484;MIDI 01
468.482;000.052;69;000.523;MIDI 01
468.503;000.125;81;000.516;MIDI 01
468.617;000.092;62;000.492;MIDI 01
468.620;000.118;65;000.469;MIDI 01
468.757;000.135;69;000.516;MIDI 01
468.904;000.076;70;000.562;MIDI 01
469.024;000.094;69;000.602;MIDI 01
469.147;000.079;62;000.555;MIDI 01
469.149;000.081;65;000.523;MIDI 01
469.154;000.107;89;000.609;MIDI 01
469.280;000.030;86;000.562;MIDI 01
469.269;000.061;69;000.602;MIDI 01
469.396;000.061;57;000.594;MIDI 01
469.510;000.057;69;000.562;MIDI 01
469.644;000.052;62;000.539;MIDI 01
469.637;000.078;65;000.562;MIDI 01
469.642;000.080;81;000.594;MIDI 01
469.741;000.058;77;000.547;MIDI 01
469.776;000.106;69;000.555;MIDI 01
469.908;000.072;70;000.578;MIDI 01
470.022;000.078;69;000.594;MIDI 01
470.164;000.064;65;000.531;MIDI 01
470.156;000.076;62;000.539;MIDI 01
470.174;000.104;89;000.586;MIDI 01
470.284;000.035;86;000.578;MIDI 01
470.288;000.049;69;000.547;MIDI 01
470.402;000.065;57;000.578;MIDI 01
470.442;000.095;80;000.516;MIDI 01
470.524;000.081;69;000.523;MIDI 01
470.582;000.031;81;000.336;MIDI 01
470.650;000.089;62;000.523;MIDI 01
470.653;000.104;65;000.492;MIDI 01
470.731;000.032;81;000.453;MIDI 01
470.777;000.076;69;000.594;MIDI 01
470.938;000.031;55;000.445;MIDI 01
470.921;000.054;77;000.422;MIDI 01
470.931;000.062;57;000.469;MIDI 01
471.024;000.027;76;000.445;MIDI 01
471.026;000.083;69;000.570;MIDI 01
471.150;000.093;76;000.609;MIDI 01
471.158;000.091;62;000.516;MIDI 01
471.169;000.098;65;000.453;MIDI 01
471.255;000.032;74;000.602;MIDI 01
471.283;000.069;69;000.578;MIDI 01
471.406;000.053;57;000.555;MIDI 01
471.387;000.121;74;000.547;MIDI 01
471.515;000.062;73;000.516;MIDI 01
471.511;000.077;69;000.570;MIDI 01
471.663;000.060;67;000.484;MIDI 01
471.653;000.098;64;000.492;MIDI 01
471.667;000.120;76;000.562;MIDI 01
471.780;000.105;69;000.523;MIDI 01
471.911;000.050;70;000.531;MIDI 01
472.015;000.086;69;000.570;MIDI 01
472.149;000.090;64;000.508;MIDI 01
472.158;000.083;67;000.484;MIDI 01
472.171;000.123;82;000.570;MIDI 01
472.286;000.036;79;000.586;MIDI 01
472.279;000.079;69;000.570;MIDI 01
472.415;000.070;57;000.594;MIDI 01
472.430;000.076;75;000.633;MIDI 01
472.540;000.116;69;000.586;MIDI 01
472.561;000.153;76;000.602;MIDI 01
472.676;000.083;64;000.508;MIDI 01
472.678;000.089;67;000.555;MIDI 01
472.685;000.084;73;000.648;MIDI 01
472.819;000.110;69;000.570;MIDI 01
472.941;000.074;70;000.570;MIDI 01
473.055;000.072;69;000.625;MIDI 01
473.184;000.097;64;000.586;MIDI 01
473.199;000.092;67;000.570;MIDI 01
473.201;000.123;82;000.617;MIDI 01
473.312;000.053;79;000.609;MIDI 01
473.328;000.068;69;000.617;MIDI 01
473.452;000.073;57;000.641;MIDI 01
473.458;000.156;75;000.680;MIDI 01
473.577;000.078;69;000.625;MIDI 01
473.587;000.143;76;000.656;MIDI 01
473.722;000.096;73;000.695;MIDI 01
473.720;000.102;67;000.617;MIDI 01
473.715;000.110;64;000.586;MIDI 01
473.856;000.140;69;000.656;MIDI 01
473.988;000.099;70;000.680;MIDI 01
474.129;000.071;69;000.688;MIDI 01
474.242;000.094;64;000.555;MIDI 01
474.296;000.116;67;000.531;MIDI 01
474.264;000.157;82;000.633;MIDI 01
474.361;000.062;69;000.633;MIDI 01
474.394;000.065;79;000.617;MIDI 01
474.552;000.104;76;000.742;MIDI 01
474.692;000.057;79;000.633;MIDI 01
474.550;000.302;67;000.656;MIDI 01
474.558;000.347;64;000.586;MIDI 01
474.548;000.377;57;000.609;MIDI 01
474.837;000.104;73;000.633;MIDI 01
474.955;000.057;76;000.586;MIDI 01
475.099;000.117;70;000.648;MIDI 01
475.225;000.067;73;000.602;MIDI 01
475.363;000.122;67;000.664;MIDI 01
475.496;000.061;70;000.633;MIDI 01
475.633;000.113;64;000.688;MIDI 01
475.768;000.060;67;000.625;MIDI 01
475.903;000.111;61;000.656;MIDI 01
476.021;000.050;64;000.586;MIDI 01
476.156;000.110;58;000.656;MIDI 01
476.275;000.067;61;000.633;MIDI 01
476.411;000.125;55;000.664;MIDI 01
476.538;000.068;58;000.625;MIDI 01
476.688;000.064;50;000.594;MIDI 01
476.690;000.105;52;000.602;MIDI 01
476.799;000.062;55;000.617;MIDI 01
476.956;000.123;49;000.625;MIDI 01
476.948;000.161;37;000.570;MIDI 01
477.095;000.095;40;000.578;MIDI 01
477.079;000.118;52;000.633;MIDI 01
477.211;000.165;43;000.633;MIDI 01
477.234;000.146;31;000.617;MIDI 01
477.352;000.169;40;000.602;MIDI 01
477.346;000.177;52;000.625;MIDI 01
477.485;000.124;49;000.633;MIDI 01
477.483;000.158;37;000.617;MIDI 01
477.598;000.084;43;000.633;MIDI 01
477.605;000.091;31;000.547;MIDI 01
477.756;000.060;41;000.734;MIDI 01
477.757;000.064;29;000.688;MIDI 01
478.106;000.061;41;000.672;MIDI 01
478.108;000.071;45;000.672;MIDI 01
478.114;000.070;50;000.641;MIDI 01
478.109;000.097;53;000.672;MIDI 01
478.104;000.110;57;000.703;MIDI 01
478.111;000.120;62;000.711;MIDI 01
478.486;000.915;51;000.695;MIDI 01
478.489;001.098;63;000.711;MIDI 01
479.628;000.330;62;000.641;MIDI 01
478.493;001.469;58;000.727;MIDI 01
478.495;001.468;46;000.648;MIDI 01
478.501;001.464;43;000.617;MIDI 01
478.491;001.476;55;000.664;MIDI 01
479.630;000.354;50;000.609;MIDI 01
479.918;000.198;49;000.641;MIDI 01
479.910;000.228;61;000.656;MIDI 01
480.199;000.036;41;000.617;MIDI 01
480.202;000.044;45;000.633;MIDI 01
480.208;000.040;53;000.633;MIDI 01
480.206;000.058;57;000.633;MIDI 01
480.204;000.067;50;000.625;MIDI 01
480.210;000.076;62;000.695;MIDI 01
480.541;000.045;53;000.562;MIDI 01
480.545;000.054;62;000.625;MIDI 01
480.536;000.066;57;000.539;MIDI 01
480.534;000.072;69;000.664;MIDI 01
480.539;000.082;65;000.656;MIDI 01
480.543;000.110;74;000.680;MIDI 01
480.875;000.874;63;000.672;MIDI 01
480.881;000.992;75;000.742;MIDI 01
481.925;000.348;74;000.625;MIDI 01
480.884;001.392;70;000.672;MIDI 01
480.883;001.399;58;000.617;MIDI 01
480.890;001.396;55;000.586;MIDI 01
480.886;001.402;67;000.688;MIDI 01
481.935;000.393;62;000.570;MIDI 01
482.228;000.198;61;000.656;MIDI 01
482.225;000.235;73;000.664;MIDI 01
482.511;000.043;53;000.586;MIDI 01
482.516;000.044;65;000.648;MIDI 01
482.517;000.050;57;000.578;MIDI 01
482.521;000.051;69;000.586;MIDI 01
482.519;000.070;62;000.562;MIDI 01
482.523;000.069;74;000.656;MIDI 01
482.805;000.041;69;000.641;MIDI 01
482.814;000.039;65;000.586;MIDI 01
482.816;000.087;74;000.633;MIDI 01
482.811;000.130;86;000.727;MIDI 01
483.147;000.589;75;000.750;MIDI 01
483.153;000.584;70;000.602;MIDI 01
483.144;000.599;67;000.578;MIDI 01
483.149;000.607;86;000.719;MIDI 01
483.881;000.069;71;000.602;MIDI 01
483.886;000.073;76;000.695;MIDI 01
483.879;000.082;68;000.586;MIDI 01
483.889;000.089;86;000.703;MIDI 01
484.185;000.404;72;000.656;MIDI 01
484.190;000.426;69;000.625;MIDI 01
484.181;000.441;86;000.766;MIDI 01
484.183;000.493;77;000.719;MIDI 01
484.859;000.247;72;000.555;MIDI 01
484.855;000.267;78;000.672;MIDI 01
484.857;000.303;86;000.680;MIDI 01
484.851;000.312;69;000.531;MIDI 01
485.145;000.085;74;000.539;MIDI 01
485.147;000.102;70;000.562;MIDI 01
485.137;000.170;79;000.617;MIDI 01
485.401;000.231;66;000.516;MIDI 01
485.405;000.265;81;000.625;MIDI 01
485.409;000.268;72;000.500;MIDI 01
485.415;000.266;86;000.602;MIDI 01
485.676;000.033;67;000.422;MIDI 01
485.683;000.041;70;000.531;MIDI 01
485.670;000.073;82;000.609;MIDI 01
486.019;000.068;67;000.258;MIDI 01
485.994;000.115;63;000.359;MIDI 01
485.990;000.271;70;000.547;MIDI 01
485.988;000.286;82;000.539;MIDI 01
486.000;000.277;55;000.305;MIDI 01
486.227;000.056;56;000.211;MIDI 01
486.283;000.049;65;000.352;MIDI 01
486.271;000.110;57;000.391;MIDI 01
486.281;000.105;62;000.391;MIDI 01
486.517;000.050;61;000.453;MIDI 01
486.584;000.057;64;000.102;MIDI 01
486.839;000.030;62;000.445;MIDI 01
486.845;000.065;50;000.422;MIDI 01
486.536;000.384;69;000.438;MIDI 01
486.531;000.550;81;000.508;MIDI 01
486.863;000.259;74;000.547;MIDI 01
487.160;000.002;40;000.375;MIDI 01
487.122;000.094;38;000.641;MIDI 01
487.710;000.074;54;000.633;MIDI 01
487.717;000.091;57;000.586;MIDI 01
487.975;000.066;55;000.672;MIDI 01
487.979;000.081;58;000.688;MIDI 01
487.425;001.107;39;000.742;MIDI 01
488.266;000.306;58;000.727;MIDI 01
488.268;000.328;67;000.719;MIDI 01
488.509;000.180;38;000.602;MIDI 01
488.768;000.096;58;000.633;MIDI 01
488.769;000.136;37;000.609;MIDI 01
488.765;000.318;67;000.648;MIDI 01
489.032;000.099;38;000.656;MIDI 01
489.034;000.259;66;000.680;MIDI 01
489.039;000.320;57;000.617;MIDI 01
489.303;000.127;38;000.688;MIDI 01
489.829;000.074;54;000.609;MIDI 01
489.836;000.090;57;000.562;MIDI 01
490.096;000.043;55;000.672;MIDI 01
490.098;000.072;58;000.680;MIDI 01
489.572;001.123;39;000.766;MIDI 01
490.370;000.345;70;000.703;MIDI 01
490.372;000.363;67;000.695;MIDI 01
490.645;000.282;38;000.562;MIDI 01
490.879;000.141;37;000.586;MIDI 01
490.885;000.262;70;000.617;MIDI 01
490.883;000.273;67;000.656;MIDI 01
491.122;000.145;38;000.617;MIDI 01
491.135;000.175;69;000.625;MIDI 01
491.137;000.197;66;000.672;MIDI 01
491.389;000.122;38;000.703;MIDI 01
491.910;000.078;54;000.609;MIDI 01
491.921;000.086;57;000.547;MIDI 01
492.155;000.035;55;000.711;MIDI 01
492.160;000.070;58;000.695;MIDI 01
492.442;000.236;67;000.695;MIDI 01
492.439;000.277;70;000.734;MIDI 01
491.652;001.107;39;000.773;MIDI 01
492.707;000.395;38;000.625;MIDI 01
493.012;000.171;37;000.609;MIDI 01
493.319;000.119;36;000.531;MIDI 01
493.022;000.436;79;000.664;MIDI 01
493.024;000.440;82;000.672;MIDI 01
493.469;000.117;35;000.477;MIDI 01
493.604;000.103;36;000.516;MIDI 01
493.720;000.101;38;000.492;MIDI 01
493.842;000.092;40;000.469;MIDI 01
493.966;000.134;36;000.445;MIDI 01
494.105;000.079;38;000.461;MIDI 01
494.233;000.067;40;000.500;MIDI 01
494.035;000.296;70;000.461;MIDI 01
494.052;000.346;67;000.375;MIDI 01
494.345;000.060;41;000.523;MIDI 01
494.456;000.123;40;000.523;MIDI 01
494.387;000.229;65;000.375;MIDI 01
494.381;000.281;69;000.422;MIDI 01
494.589;000.089;41;000.477;MIDI 01
494.706;000.047;43;000.445;MIDI 01
494.824;000.097;45;000.453;MIDI 01
494.945;000.093;44;000.484;MIDI 01
495.078;000.073;45;000.484;MIDI 01
495.208;000.070;44;000.484;MIDI 01
495.101;000.299;77;000.430;MIDI 01
495.106;000.300;81;000.445;MIDI 01
495.322;000.096;45;000.430;MIDI 01
495.458;000.176;44;000.375;MIDI 01
495.366;000.288;79;000.422;MIDI 01
495.377;000.290;76;000.422;MIDI 01
495.584;000.148;45;000.469;MIDI 01
495.724;000.125;47;000.477;MIDI 01
495.857;000.069;49;000.438;MIDI 01
495.943;000.164;45;000.430;MIDI 01
496.099;000.118;47;000.391;MIDI 01
496.243;000.061;49;000.438;MIDI 01
496.116;000.258;64;000.438;MIDI 01
496.127;000.306;67;000.438;MIDI 01
496.363;000.087;50;000.430;MIDI 01
496.378;000.170;62;000.445;MIDI 01
496.382;000.216;65;000.383;MIDI 01
496.480;000.144;49;000.414;MIDI 01
496.598;000.157;50;000.477;MIDI 01
496.744;000.110;52;000.445;MIDI 01
496.863;000.106;53;000.508;MIDI 01
496.976;000.201;50;000.508;MIDI 01
497.122;000.136;52;000.516;MIDI 01
497.245;000.081;53;000.508;MIDI 01
497.118;000.325;77;000.484;MIDI 01
497.370;000.116;55;000.461;MIDI 01
497.120;000.487;74;000.508;MIDI 01
497.383;000.254;76;000.562;MIDI 01
497.497;000.175;54;000.453;MIDI 01
497.629;000.173;55;000.492;MIDI 01
497.765;000.136;57;000.508;MIDI 01
497.909;000.058;58;000.531;MIDI 01
498.001;000.184;55;000.484;MIDI 01
498.148;000.099;57;000.477;MIDI 01
498.274;000.080;58;000.508;MIDI 01
498.384;000.113;57;000.523;MIDI 01
498.141;000.361;86;000.570;MIDI 01
498.516;000.117;56;000.531;MIDI 01
498.425;000.267;85;000.578;MIDI 01
498.150;000.577;76;000.547;MIDI 01
498.642;000.133;57;000.586;MIDI 01
498.775;000.101;56;000.625;MIDI 01
498.882;000.116;57;000.570;MIDI 01
499.011;000.155;56;000.594;MIDI 01
499.145;000.116;57;000.586;MIDI 01
499.318;000.048;45;000.508;MIDI 01
499.153;000.314;64;000.492;MIDI 01
499.148;000.390;73;000.562;MIDI 01
499.536;000.192;74;000.422;MIDI 01
499.703;000.099;69;000.406;MIDI 01
499.550;000.345;57;000.367;MIDI 01
499.542;000.374;53;000.359;MIDI 01
499.837;000.097;65;000.438;MIDI 01
500.107;000.150;76;000.508;MIDI 01
499.960;000.306;77;000.508;MIDI 01
500.233;000.164;73;000.531;MIDI 01
500.127;000.336;55;000.344;MIDI 01
500.104;000.465;52;000.391;MIDI 01
500.350;000.329;69;000.523;MIDI 01
500.478;000.295;79;000.555;MIDI 01
500.621;000.182;77;000.547;MIDI 01
500.751;000.166;74;000.539;MIDI 01
500.630;000.295;50;000.422;MIDI 01
500.657;000.294;53;000.375;MIDI 01
501.004;000.126;81;000.484;MIDI 01
501.129;000.104;80;000.484;MIDI 01
501.176;000.182;52;000.367;MIDI 01
501.258;000.116;81;000.508;MIDI 01
501.149;000.235;49;000.430;MIDI 01
499.501;001.896;45;000.359;MIDI 01
501.396;000.097;80;000.453;MIDI 01
501.497;000.055;81;000.523;MIDI 01
500.875;000.742;69;000.508;MIDI 01
501.688;000.141;50;000.375;MIDI 01
501.839;000.073;45;000.375;MIDI 01
501.691;000.236;81;000.508;MIDI 01
501.717;000.231;77;000.375;MIDI 01
501.948;000.047;41;000.312;MIDI 01
501.709;000.306;69;000.305;MIDI 01
502.031;000.122;50;000.406;MIDI 01
502.171;000.135;52;000.453;MIDI 01
502.300;000.117;49;000.430;MIDI 01
502.220;000.228;76;000.445;MIDI 01
502.223;000.256;79;000.484;MIDI 01
502.234;000.298;67;000.422;MIDI 01
502.555;000.126;52;000.500;MIDI 01
502.426;000.318;45;000.516;MIDI 01
502.681;000.152;53;000.516;MIDI 01
502.732;000.211;74;000.469;MIDI 01
502.831;000.115;50;000.422;MIDI 01
502.738;000.241;77;000.492;MIDI 01
502.748;000.266;65;000.422;MIDI 01
502.935;000.084;45;000.461;MIDI 01
503.097;000.108;57;000.469;MIDI 01
503.240;000.074;56;000.438;MIDI 01
503.373;000.053;57;000.422;MIDI 01
503.254;000.219;73;000.383;MIDI 01
503.268;000.226;64;000.328;MIDI 01
503.486;000.072;56;000.430;MIDI 01
503.597;000.055;57;000.367;MIDI 01
503.244;000.440;76;000.438;MIDI 01
503.741;000.135;74;000.344;MIDI 01
503.886;000.070;69;000.391;MIDI 01
503.739;000.370;45;000.406;MIDI 01
503.998;000.130;65;000.398;MIDI 01
504.026;000.239;53;000.359;MIDI 01
504.043;000.229;57;000.344;MIDI 01
504.265;000.133;76;000.508;MIDI 01
504.127;000.293;77;000.477;MIDI 01
504.375;000.155;73;000.516;MIDI 01
504.276;000.300;45;000.461;MIDI 01
504.536;000.217;52;000.414;MIDI 01
504.545;000.224;55;000.422;MIDI 01
504.508;000.282;69;000.516;MIDI 01
504.768;000.167;77;000.516;MIDI 01
504.634;000.303;79;000.562;MIDI 01
504.776;000.254;45;000.469;MIDI 01
504.889;000.153;74;000.555;MIDI 01
505.023;000.147;50;000.398;MIDI 01
505.050;000.189;53;000.414;MIDI 01
505.128;000.130;81;000.523;MIDI 01
505.245;000.108;80;000.516;MIDI 01
505.236;000.189;45;000.453;MIDI 01
505.380;000.103;81;000.523;MIDI 01
505.497;000.046;52;000.312;MIDI 01
505.008;000.538;69;000.531;MIDI 01
505.471;000.088;49;000.414;MIDI 01
505.516;000.095;80;000.453;MIDI 01
505.624;000.139;81;000.484;MIDI 01
505.770;000.143;50;000.406;MIDI 01
505.917;000.090;45;000.398;MIDI 01
506.035;000.066;41;000.438;MIDI 01
506.166;000.109;50;000.359;MIDI 01
506.056;000.229;81;000.445;MIDI 01
506.066;000.244;77;000.406;MIDI 01
505.767;000.593;69;000.398;MIDI 01
506.285;000.127;52;000.484;MIDI 01
506.400;000.104;49;000.461;MIDI 01
506.510;000.236;45;000.531;MIDI 01
506.667;000.115;52;000.445;MIDI 01
506.554;000.243;76;000.508;MIDI 01
506.564;000.265;79;000.492;MIDI 01
506.569;000.324;67;000.453;MIDI 01
506.785;000.130;53;000.500;MIDI 01
506.932;000.116;50;000.406;MIDI 01
507.003;000.109;45;000.500;MIDI 01
507.069;000.177;74;000.461;MIDI 01
507.071;000.197;77;000.484;MIDI 01
507.200;000.096;57;000.477;MIDI 01
507.085;000.212;65;000.398;MIDI 01
507.323;000.079;56;000.492;MIDI 01
507.461;000.053;57;000.430;MIDI 01
507.572;000.075;56;000.430;MIDI 01
507.599;000.098;73;000.359;MIDI 01
507.601;000.117;64;000.352;MIDI 01
507.690;000.055;57;000.320;MIDI 01
507.597;000.240;76;000.406;MIDI 01
507.878;000.091;74;000.391;MIDI 01
507.991;000.088;69;000.445;MIDI 01
507.836;000.352;45;000.453;MIDI 01
508.110;000.141;65;000.422;MIDI 01
508.130;000.240;53;000.352;MIDI 01
508.150;000.229;57;000.375;MIDI 01
508.379;000.166;76;000.531;MIDI 01
508.243;000.342;77;000.484;MIDI 01
508.367;000.333;45;000.484;MIDI 01
508.518;000.184;73;000.555;MIDI 01
508.639;000.232;52;000.430;MIDI 01
508.649;000.224;55;000.406;MIDI 01
508.641;000.268;69;000.539;MIDI 01
508.894;000.156;77;000.516;MIDI 01
508.760;000.306;79;000.586;MIDI 01
508.892;000.232;45;000.477;MIDI 01
509.009;000.159;74;000.570;MIDI 01
509.134;000.124;50;000.430;MIDI 01
509.152;000.158;53;000.422;MIDI 01
509.243;000.137;81;000.578;MIDI 01
509.360;000.110;80;000.555;MIDI 01
509.373;000.221;45;000.422;MIDI 01
509.493;000.126;81;000.492;MIDI 01
509.619;000.059;49;000.438;MIDI 01
509.646;000.043;52;000.320;MIDI 01
509.636;000.059;80;000.445;MIDI 01
509.132;000.754;69;000.523;MIDI 01
509.755;000.250;81;000.414;MIDI 01
509.898;000.156;77;000.438;MIDI 01
510.035;000.113;74;000.508;MIDI 01
509.864;000.481;38;000.469;MIDI 01
510.130;000.229;50;000.328;MIDI 01
510.257;000.142;81;000.508;MIDI 01
510.386;000.109;80;000.531;MIDI 01
510.514;000.133;81;000.508;MIDI 01
510.652;000.089;80;000.531;MIDI 01
510.640;000.127;52;000.422;MIDI 01
510.143;000.768;69;000.492;MIDI 01
510.780;000.231;81;000.492;MIDI 01
510.901;000.142;77;000.484;MIDI 01
510.380;000.679;45;000.516;MIDI 01
511.042;000.111;74;000.500;MIDI 01
510.906;000.276;50;000.469;MIDI 01
511.172;000.218;53;000.367;MIDI 01
511.293;000.106;81;000.422;MIDI 01
511.423;000.080;80;000.398;MIDI 01
511.416;000.127;45;000.438;MIDI 01
511.562;000.089;81;000.445;MIDI 01
511.686;000.058;52;000.367;MIDI 01
511.729;000.049;49;000.203;MIDI 01
511.690;000.091;80;000.375;MIDI 01
511.158;000.827;69;000.430;MIDI 01
511.827;000.265;81;000.406;MIDI 01
512.021;000.212;74;000.367;MIDI 01
512.042;000.194;50;000.242;MIDI 01
512.035;000.202;38;000.297;MIDI 01
512.585;000.261;50;000.250;MIDI 01
512.605;000.244;62;000.352;MIDI 01
512.617;000.236;38;000.188;MIDI 01
513.201;000.274;62;000.484;MIDI 01
513.199;000.304;50;000.336;MIDI 01
513.214;000.309;38;000.344;MIDI 01
513.827;000.120;50;000.398;MIDI 01
513.816;000.190;62;000.586;MIDI 01
513.835;000.198;38;000.461;MIDI 01
514.529;000.154;38;000.328;MIDI 01
514.706;000.059;33;000.281;MIDI 01
514.805;000.042;29;000.414;MIDI 01
514.943;000.093;41;000.430;MIDI 01
515.074;000.097;38;000.375;MIDI 01
515.164;000.047;33;000.383;MIDI 01
515.290;000.082;45;000.453;MIDI 01
515.427;000.041;41;000.406;MIDI 01
515.587;000.086;38;000.375;MIDI 01
515.710;000.059;33;000.367;MIDI 01
515.831;000.040;29;000.398;MIDI 01
515.946;000.066;41;000.422;MIDI 01
516.078;000.076;38;000.344;MIDI 01
516.183;000.041;33;000.375;MIDI 01
516.302;000.064;45;000.391;MIDI 01
516.428;000.038;41;000.383;MIDI 01
516.578;000.074;38;000.391;MIDI 01
516.719;000.060;33;000.336;MIDI 01
516.830;000.043;29;000.383;MIDI 01
516.961;000.066;41;000.391;MIDI 01
517.085;000.067;38;000.297;MIDI 01
517.180;000.047;33;000.406;MIDI 01
517.314;000.058;45;000.422;MIDI 01
517.425;000.039;41;000.352;MIDI 01
517.579;000.076;38;000.383;MIDI 01
517.826;000.048;29;000.375;MIDI 01
517.967;000.078;41;000.352;MIDI 01
518.096;000.076;38;000.320;MIDI 01
518.232;000.056;33;000.352;MIDI 01
518.399;000.069;45;000.086;MIDI 01
518.499;000.080;41;000.305;MIDI 01
518.617;000.070;38;000.336;MIDI 01
518.734;000.072;33;000.367;MIDI 01
518.869;000.117;45;000.312;MIDI 01
519.000;000.090;41;000.289;MIDI 01
519.125;000.090;38;000.320;MIDI 01
519.261;000.097;33;000.305;MIDI 01
519.396;000.100;45;000.320;MIDI 01
519.530;000.106;41;000.297;MIDI 01
519.672;000.093;38;000.297;MIDI 01
519.790;000.095;33;000.312;MIDI 01
519.938;000.083;45;000.297;MIDI 01
520.072;000.159;41;000.273;MIDI 01
520.229;000.101;38;000.312;MIDI 01
520.364;000.086;33;000.258;MIDI 01
520.508;000.117;45;000.289;MIDI 01
520.675;000.270;41;000.234;MIDI 01
514.564;007.044;53;000.195;MIDI 01
514.543;007.183;57;000.305;MIDI 01
514.549;007.219;62;000.344;MIDI 01
520.919;000.952;38;000.250;MIDI 01
522.586;000.389;65;000.297;MIDI 01
522.615;000.481;69;000.250;MIDI 01
522.589;000.560;45;000.266;MIDI 01
522.581;000.633;38;000.258;MIDI 01
522.595;000.631;74;000.344;MIDI 01
522.552;000.676;77;000.406;MIDI 01
522.593;000.688;50;000.203;MIDI 01
524.626;004.339;69;000.297;MIDI 01
524.574;004.403;45;000.242;MIDI 01
524.585;004.395;74;000.328;MIDI 01
524.567;004.467;38;000.242;MIDI 01
524.587;004.452;50;000.219;MIDI 01
524.602;004.467;65;000.227;MIDI 01
524.600;004.497;62;000.273;MIDI 01
