Start;Duration;Pitch;Velocity;Instrument
000.448;000.173;77;000.375;MIDI 01
000.284;000.451;69;000.312;MIDI 01
000.588;000.150;76;000.414;MIDI 01
000.760;000.089;74;000.406;MIDI 01
000.735;000.161;50;000.273;MIDI 01
000.896;000.055;57;000.375;MIDI 01
001.182;000.051;65;000.414;MIDI 01
001.043;000.293;62;000.320;MIDI 01
001.209;000.265;69;000.438;MIDI 01
001.346;000.169;77;000.461;MIDI 01
001.471;000.141;76;000.531;MIDI 01
001.620;000.107;74;000.492;MIDI 01
001.635;000.106;50;000.320;MIDI 01
001.753;000.069;57;000.422;MIDI 01
002.024;000.039;65;000.398;MIDI 01
001.897;000.218;62;000.422;MIDI 01
002.023;000.271;69;000.484;MIDI 01
002.168;000.193;77;000.500;MIDI 01
002.294;000.132;76;000.523;MIDI 01
002.436;000.097;50;000.375;MIDI 01
002.439;000.121;74;000.531;MIDI 01
002.547;000.071;57;000.445;MIDI 01
002.695;000.145;62;000.406;MIDI 01
002.815;000.037;65;000.406;MIDI 01
002.834;000.279;69;000.500;MIDI 01
002.978;000.189;77;000.523;MIDI 01
003.096;000.165;74;000.492;MIDI 01
003.258;000.061;45;000.367;MIDI 01
003.272;000.120;76;000.469;MIDI 01
003.410;000.213;57;000.422;MIDI 01
003.547;000.103;61;000.453;MIDI 01
003.697;000.046;64;000.242;MIDI 01
003.654;000.353;57;000.164;MIDI 01
003.816;000.219;79;000.461;MIDI 01
003.690;000.402;69;000.469;MIDI 01
003.933;000.189;77;000.461;MIDI 01
004.111;000.066;45;000.391;MIDI 01
004.104;000.094;76;000.461;MIDI 01
004.253;000.194;57;000.445;MIDI 01
004.382;000.116;61;000.492;MIDI 01
004.502;000.035;64;000.469;MIDI 01
004.486;000.317;57;000.227;MIDI 01
004.634;000.192;79;000.500;MIDI 01
004.497;000.408;69;000.477;MIDI 01
004.754;000.188;77;000.523;MIDI 01
004.912;000.069;45;000.469;MIDI 01
004.905;000.131;76;000.523;MIDI 01
005.190;000.106;61;000.508;MIDI 01
005.302;000.034;64;000.492;MIDI 01
005.053;000.562;57;000.445;MIDI 01
005.420;000.219;79;000.555;MIDI 01
005.539;000.197;77;000.531;MIDI 01
005.284;000.473;69;000.523;MIDI 01
005.709;000.070;45;000.500;MIDI 01
005.692;000.138;76;000.508;MIDI 01
005.978;000.089;61;000.516;MIDI 01
005.842;000.265;57;000.484;MIDI 01
006.072;000.035;64;000.492;MIDI 01
006.101;000.208;69;000.547;MIDI 01
006.234;000.168;79;000.555;MIDI 01
006.357;000.196;76;000.547;MIDI 01
006.519;000.103;77;000.523;MIDI 01
006.517;000.126;50;000.391;MIDI 01
006.654;000.066;57;000.375;MIDI 01
006.784;000.149;62;000.453;MIDI 01
006.936;000.036;65;000.312;MIDI 01
007.061;000.090;81;000.461;MIDI 01
006.939;000.244;74;000.477;MIDI 01
007.181;000.200;86;000.477;MIDI 01
007.356;000.136;82;000.430;MIDI 01
007.640;000.076;67;000.445;MIDI 01
007.524;000.251;62;000.383;MIDI 01
007.371;000.417;55;000.328;MIDI 01
007.760;000.141;70;000.453;MIDI 01
007.880;000.248;74;000.500;MIDI 01
008.006;000.183;82;000.523;MIDI 01
008.141;000.127;79;000.516;MIDI 01
008.432;000.089;63;000.523;MIDI 01
008.156;000.371;51;000.414;MIDI 01
008.305;000.260;58;000.438;MIDI 01
008.556;000.204;67;000.492;MIDI 01
008.671;000.164;70;000.508;MIDI 01
008.796;000.190;79;000.570;MIDI 01
008.954;000.189;76;000.508;MIDI 01
008.956;000.402;49;000.391;MIDI 01
009.252;000.229;61;000.391;MIDI 01
009.375;000.123;64;000.398;MIDI 01
009.133;000.386;57;000.312;MIDI 01
009.497;000.253;69;000.398;MIDI 01
009.637;000.135;76;000.461;MIDI 01
009.785;000.184;77;000.445;MIDI 01
010.068;000.092;62;000.414;MIDI 01
009.938;000.276;57;000.336;MIDI 01
009.787;000.506;50;000.320;MIDI 01
010.189;000.198;65;000.445;MIDI 01
010.320;000.276;69;000.523;MIDI 01
010.449;000.233;77;000.523;MIDI 01
010.581;000.196;74;000.570;MIDI 01
010.727;000.271;53;000.516;MIDI 01
010.863;000.186;57;000.531;MIDI 01
010.583;000.550;45;000.516;MIDI 01
010.960;000.210;62;000.594;MIDI 01
011.098;000.200;69;000.594;MIDI 01
011.218;000.181;74;000.609;MIDI 01
011.356;000.233;73;000.648;MIDI 01
011.617;000.139;55;000.562;MIDI 01
011.496;000.265;52;000.586;MIDI 01
011.749;000.035;57;000.547;MIDI 01
011.354;000.481;45;000.609;MIDI 01
011.760;000.110;61;000.633;MIDI 01
011.878;000.208;69;000.609;MIDI 01
011.993;000.186;73;000.617;MIDI 01
012.130;000.096;38;000.594;MIDI 01
012.136;000.115;74;000.672;MIDI 01
012.262;000.130;50;000.594;MIDI 01
012.708;000.126;65;000.555;MIDI 01
012.827;000.121;69;000.633;MIDI 01
012.948;000.051;74;000.625;MIDI 01
012.400;000.666;53;000.648;MIDI 01
012.540;000.528;57;000.609;MIDI 01
012.686;000.435;62;000.586;MIDI 01
013.072;000.126;77;000.648;MIDI 01
013.195;000.158;81;000.656;MIDI 01
013.326;000.146;77;000.625;MIDI 01
013.456;000.164;86;000.586;MIDI 01
013.596;000.125;81;000.570;MIDI 01
013.864;000.170;82;000.469;MIDI 01
014.206;000.079;67;000.406;MIDI 01
014.070;000.270;62;000.375;MIDI 01
013.867;000.521;55;000.258;MIDI 01
014.320;000.128;70;000.453;MIDI 01
014.439;000.261;74;000.484;MIDI 01
014.557;000.182;82;000.508;MIDI 01
014.689;000.147;79;000.562;MIDI 01
015.000;000.123;63;000.516;MIDI 01
014.710;000.442;51;000.461;MIDI 01
014.863;000.333;58;000.492;MIDI 01
015.119;000.210;67;000.500;MIDI 01
015.227;000.188;70;000.562;MIDI 01
015.372;000.188;79;000.555;MIDI 01
015.522;000.189;76;000.539;MIDI 01
015.550;000.408;49;000.391;MIDI 01
015.710;000.333;57;000.422;MIDI 01
015.855;000.214;61;000.445;MIDI 01
015.953;000.123;64;000.430;MIDI 01
016.090;000.228;69;000.422;MIDI 01
016.220;000.141;76;000.477;MIDI 01
016.366;000.161;77;000.453;MIDI 01
016.654;000.084;62;000.422;MIDI 01
016.507;000.282;57;000.375;MIDI 01
016.359;000.508;50;000.305;MIDI 01
016.758;000.176;65;000.445;MIDI 01
016.882;000.270;69;000.508;MIDI 01
017.009;000.231;77;000.523;MIDI 01
017.144;000.214;74;000.562;MIDI 01
017.296;000.314;53;000.539;MIDI 01
017.423;000.204;57;000.531;MIDI 01
017.151;000.552;45;000.531;MIDI 01
017.530;000.203;62;000.508;MIDI 01
017.661;000.189;69;000.555;MIDI 01
017.769;000.250;74;000.570;MIDI 01
017.909;000.267;73;000.625;MIDI 01
017.889;000.393;45;000.555;MIDI 01
018.035;000.269;52;000.562;MIDI 01
018.158;000.193;55;000.578;MIDI 01
018.304;000.106;57;000.477;MIDI 01
018.301;000.121;61;000.578;MIDI 01
018.421;000.211;69;000.547;MIDI 01
018.530;000.168;73;000.602;MIDI 01
018.642;000.108;74;000.617;MIDI 01
018.878;000.065;69;000.641;MIDI 01
018.799;000.352;53;000.547;MIDI 01
018.665;000.502;50;000.586;MIDI 01
019.012;000.231;57;000.531;MIDI 01
019.183;000.179;62;000.562;MIDI 01
019.606;000.122;80;000.516;MIDI 01
018.993;000.850;81;000.719;MIDI 01
019.734;000.116;79;000.562;MIDI 01
019.858;000.109;78;000.586;MIDI 01
019.979;000.132;77;000.586;MIDI 01
020.100;000.109;76;000.602;MIDI 01
020.222;000.074;75;000.547;MIDI 01
020.403;000.122;74;000.484;MIDI 01
020.693;000.209;57;000.461;MIDI 01
020.551;000.359;53;000.406;MIDI 01
020.384;000.586;45;000.312;MIDI 01
020.802;000.189;62;000.484;MIDI 01
020.922;000.268;69;000.562;MIDI 01
021.057;000.197;74;000.570;MIDI 01
021.169;000.228;73;000.609;MIDI 01
021.182;000.452;45;000.539;MIDI 01
021.321;000.325;52;000.586;MIDI 01
021.446;000.245;55;000.570;MIDI 01
021.583;000.128;61;000.586;MIDI 01
021.570;000.181;57;000.523;MIDI 01
021.695;000.218;69;000.594;MIDI 01
021.803;000.170;73;000.625;MIDI 01
021.925;000.090;74;000.648;MIDI 01
022.175;000.070;74;000.648;MIDI 01
022.048;000.426;53;000.578;MIDI 01
021.932;000.550;50;000.602;MIDI 01
022.214;000.296;57;000.516;MIDI 01
022.420;000.201;62;000.539;MIDI 01
022.836;000.117;85;000.562;MIDI 01
022.283;000.802;86;000.742;MIDI 01
022.960;000.152;84;000.578;MIDI 01
023.090;000.127;83;000.586;MIDI 01
023.210;000.097;82;000.617;MIDI 01
023.337;000.111;81;000.562;MIDI 01
023.461;000.098;80;000.531;MIDI 01
023.617;000.097;81;000.555;MIDI 01
023.640;000.094;45;000.352;MIDI 01
023.904;000.149;57;000.516;MIDI 01
023.783;000.298;53;000.438;MIDI 01
023.739;000.457;45;000.023;MIDI 01
024.028;000.193;62;000.430;MIDI 01
024.132;000.259;69;000.539;MIDI 01
024.269;000.170;74;000.602;MIDI 01
024.387;000.105;73;000.602;MIDI 01
024.404;000.218;45;000.523;MIDI 01
024.528;000.139;52;000.516;MIDI 01
024.653;000.040;55;000.594;MIDI 01
024.812;000.085;73;000.672;MIDI 01
024.815;000.153;33;000.625;MIDI 01
024.954;000.146;41;000.641;MIDI 01
025.081;000.073;40;000.703;MIDI 01
024.930;000.257;81;000.664;MIDI 01
025.044;000.176;85;000.672;MIDI 01
025.203;000.031;40;000.477;MIDI 01
025.185;000.054;86;000.703;MIDI 01
025.205;000.253;38;000.727;MIDI 01
025.422;000.136;50;000.562;MIDI 01
025.548;000.206;53;000.570;MIDI 01
025.668;000.146;57;000.609;MIDI 01
025.683;000.134;33;000.602;MIDI 01
025.803;000.140;41;000.641;MIDI 01
025.805;000.203;62;000.602;MIDI 01
025.914;000.169;40;000.711;MIDI 01
026.045;000.205;38;000.688;MIDI 01
026.251;000.131;50;000.586;MIDI 01
026.382;000.191;53;000.578;MIDI 01
026.507;000.154;57;000.617;MIDI 01
026.505;000.171;33;000.609;MIDI 01
026.622;000.143;41;000.656;MIDI 01
026.644;000.224;62;000.617;MIDI 01
026.736;000.173;40;000.688;MIDI 01
026.873;000.205;38;000.719;MIDI 01
027.070;000.168;50;000.609;MIDI 01
027.202;000.219;53;000.625;MIDI 01
027.334;000.146;57;000.641;MIDI 01
027.321;000.240;33;000.562;MIDI 01
027.440;000.153;41;000.594;MIDI 01
027.474;000.146;62;000.625;MIDI 01
027.615;000.047;36;000.273;MIDI 01
027.559;000.115;38;000.688;MIDI 01
027.755;000.096;43;000.750;MIDI 01
027.758;000.102;31;000.719;MIDI 01
027.766;000.157;50;000.617;MIDI 01
027.905;000.125;53;000.609;MIDI 01
028.035;000.047;59;000.602;MIDI 01
028.166;000.144;62;000.656;MIDI 01
028.285;000.114;65;000.609;MIDI 01
028.403;000.107;71;000.602;MIDI 01
028.561;000.036;36;000.508;MIDI 01
028.555;000.113;60;000.539;MIDI 01
028.569;000.110;48;000.555;MIDI 01
028.701;000.068;72;000.562;MIDI 01
028.834;000.095;64;000.594;MIDI 01
028.959;000.058;76;000.625;MIDI 01
028.828;000.232;52;000.523;MIDI 01
029.086;000.098;67;000.672;MIDI 01
029.209;000.055;79;000.641;MIDI 01
029.069;000.208;55;000.625;MIDI 01
029.346;000.120;72;000.711;MIDI 01
029.476;000.076;84;000.648;MIDI 01
029.333;000.221;60;000.625;MIDI 01
029.615;000.131;76;000.719;MIDI 01
029.619;000.150;64;000.617;MIDI 01
029.738;000.064;88;000.656;MIDI 01
029.882;000.097;72;000.664;MIDI 01
030.015;000.035;84;000.531;MIDI 01
029.860;000.199;60;000.492;MIDI 01
030.154;000.091;67;000.656;MIDI 01
030.134;000.188;55;000.555;MIDI 01
030.284;000.064;79;000.625;MIDI 01
030.430;000.094;64;000.641;MIDI 01
030.554;000.059;76;000.609;MIDI 01
030.417;000.289;52;000.562;MIDI 01
030.680;000.094;67;000.656;MIDI 01
030.809;000.058;79;000.609;MIDI 01
030.694;000.269;55;000.594;MIDI 01
030.946;000.081;64;000.633;MIDI 01
030.954;000.172;52;000.531;MIDI 01
031.065;000.070;76;000.641;MIDI 01
031.195;000.045;48;000.617;MIDI 01
031.230;000.067;60;000.500;MIDI 01
031.334;000.049;72;000.633;MIDI 01
031.339;000.149;31;000.633;MIDI 01
031.467;000.144;40;000.633;MIDI 01
031.591;000.179;38;000.695;MIDI 01
031.733;000.191;36;000.672;MIDI 01
031.918;000.153;48;000.570;MIDI 01
032.050;000.223;52;000.555;MIDI 01
032.173;000.173;55;000.602;MIDI 01
032.193;000.156;31;000.562;MIDI 01
032.311;000.148;40;000.633;MIDI 01
032.326;000.241;60;000.578;MIDI 01
032.434;000.176;38;000.680;MIDI 01
032.571;000.181;36;000.711;MIDI 01
032.756;000.161;48;000.609;MIDI 01
032.878;000.227;52;000.586;MIDI 01
033.004;000.177;55;000.633;MIDI 01
033.022;000.182;31;000.570;MIDI 01
033.141;000.149;40;000.648;MIDI 01
033.151;000.228;60;000.570;MIDI 01
033.261;000.176;38;000.688;MIDI 01
033.394;000.159;36;000.695;MIDI 01
033.576;000.171;48;000.609;MIDI 01
033.702;000.228;52;000.609;MIDI 01
033.835;000.152;55;000.633;MIDI 01
033.833;000.242;31;000.547;MIDI 01
033.947;000.152;40;000.617;MIDI 01
033.984;000.141;60;000.578;MIDI 01
034.070;000.111;36;000.656;MIDI 01
034.129;000.053;35;000.227;MIDI 01
034.279;000.134;50;000.570;MIDI 01
034.271;000.172;57;000.500;MIDI 01
034.450;000.092;62;000.586;MIDI 01
034.565;000.094;50;000.641;MIDI 01
034.273;000.438;29;000.625;MIDI 01
034.572;000.141;57;000.617;MIDI 01
034.268;000.496;41;000.688;MIDI 01
034.740;000.039;60;000.344;MIDI 01
034.684;000.117;62;000.648;MIDI 01
034.835;000.108;57;000.516;MIDI 01
034.830;000.134;51;000.703;MIDI 01
034.941;000.091;63;000.633;MIDI 01
035.125;000.038;40;000.648;MIDI 01
035.122;000.050;56;000.750;MIDI 01
035.127;000.062;52;000.734;MIDI 01
035.129;000.082;64;000.734;MIDI 01
035.612;000.043;77;000.570;MIDI 01
035.604;000.143;62;000.484;MIDI 01
035.598;000.153;59;000.484;MIDI 01
035.686;000.118;79;000.508;MIDI 01
035.772;000.078;64;000.344;MIDI 01
035.774;000.096;77;000.523;MIDI 01
035.882;000.043;76;000.539;MIDI 01
035.881;000.146;56;000.414;MIDI 01
036.036;000.112;64;000.328;MIDI 01
036.165;000.040;77;000.586;MIDI 01
036.200;000.103;62;000.320;MIDI 01
036.174;000.135;59;000.414;MIDI 01
036.233;000.117;79;000.438;MIDI 01
036.328;000.068;64;000.406;MIDI 01
036.325;000.116;77;000.500;MIDI 01
036.430;000.043;76;000.508;MIDI 01
036.450;000.118;56;000.430;MIDI 01
036.602;000.103;64;000.328;MIDI 01
036.731;000.040;77;000.570;MIDI 01
036.746;000.089;62;000.375;MIDI 01
036.749;000.150;59;000.328;MIDI 01
036.802;000.101;79;000.414;MIDI 01
036.882;000.077;64;000.391;MIDI 01
036.877;000.125;77;000.477;MIDI 01
037.002;000.041;76;000.492;MIDI 01
037.022;000.118;56;000.430;MIDI 01
037.152;000.123;64;000.383;MIDI 01
037.298;000.050;77;000.586;MIDI 01
037.310;000.117;59;000.430;MIDI 01
037.308;000.126;62;000.398;MIDI 01
037.374;000.102;79;000.453;MIDI 01
037.452;000.068;64;000.438;MIDI 01
037.459;000.108;77;000.516;MIDI 01
037.568;000.044;76;000.547;MIDI 01
037.580;000.124;56;000.477;MIDI 01
037.712;000.124;64;000.430;MIDI 01
037.864;000.059;77;000.609;MIDI 01
037.861;000.138;59;000.461;MIDI 01
037.872;000.172;62;000.453;MIDI 01
037.941;000.111;79;000.500;MIDI 01
038.003;000.097;64;000.500;MIDI 01
038.019;000.102;77;000.594;MIDI 01
038.120;000.035;76;000.602;MIDI 01
038.151;000.134;56;000.508;MIDI 01
038.284;000.139;64;000.461;MIDI 01
038.413;000.064;77;000.625;MIDI 01
038.433;000.143;59;000.453;MIDI 01
038.436;000.146;62;000.461;MIDI 01
038.481;000.137;79;000.562;MIDI 01
038.577;000.079;64;000.523;MIDI 01
038.582;000.102;77;000.641;MIDI 01
038.668;000.072;76;000.664;MIDI 01
038.704;000.153;56;000.508;MIDI 01
038.842;000.158;64;000.477;MIDI 01
039.019;000.141;62;000.438;MIDI 01
039.010;000.156;59;000.461;MIDI 01
039.181;000.101;64;000.430;MIDI 01
039.358;000.094;56;000.438;MIDI 01
039.457;000.120;64;000.469;MIDI 01
039.615;000.084;59;000.367;MIDI 01
039.612;000.091;62;000.398;MIDI 01
039.745;000.089;64;000.453;MIDI 01
039.015;000.872;77;000.641;MIDI 01
039.883;000.059;76;000.445;MIDI 01
039.892;000.124;56;000.453;MIDI 01
040.016;000.110;64;000.430;MIDI 01
040.152;000.041;74;000.445;MIDI 01
040.167;000.059;59;000.359;MIDI 01
040.159;000.077;62;000.406;MIDI 01
040.306;000.052;64;000.391;MIDI 01
040.408;000.031;72;000.453;MIDI 01
040.438;000.066;57;000.422;MIDI 01
040.474;000.168;74;000.406;MIDI 01
040.555;000.114;72;000.508;MIDI 01
040.530;000.147;64;000.398;MIDI 01
040.668;000.050;71;000.492;MIDI 01
040.670;000.180;60;000.438;MIDI 01
040.846;000.098;64;000.453;MIDI 01
040.955;000.055;69;000.438;MIDI 01
040.962;000.089;57;000.414;MIDI 01
041.103;000.046;64;000.461;MIDI 01
041.205;000.060;68;000.531;MIDI 01
041.222;000.113;52;000.453;MIDI 01
041.333;000.108;62;000.477;MIDI 01
041.480;000.038;69;000.547;MIDI 01
041.473;000.106;59;000.430;MIDI 01
041.591;000.108;62;000.492;MIDI 01
041.749;000.050;71;000.578;MIDI 01
041.739;000.096;52;000.453;MIDI 01
041.874;000.086;62;000.461;MIDI 01
042.025;000.065;69;000.594;MIDI 01
042.023;000.118;57;000.461;MIDI 01
042.035;000.117;60;000.445;MIDI 01
042.177;000.127;64;000.508;MIDI 01
042.302;000.133;59;000.531;MIDI 01
042.304;000.145;77;000.633;MIDI 01
042.326;000.195;62;000.469;MIDI 01
042.443;000.087;89;000.648;MIDI 01
042.441;000.116;64;000.594;MIDI 01
042.567;000.135;76;000.695;MIDI 01
042.564;000.153;56;000.625;MIDI 01
042.702;000.126;88;000.656;MIDI 01
042.694;000.146;64;000.633;MIDI 01
042.826;000.160;77;000.703;MIDI 01
042.819;000.174;59;000.570;MIDI 01
042.828;000.185;62;000.570;MIDI 01
042.976;000.067;89;000.586;MIDI 01
042.982;000.100;64;000.570;MIDI 01
043.100;000.118;76;000.578;MIDI 01
043.102;000.119;56;000.508;MIDI 01
043.231;000.111;64;000.508;MIDI 01
043.243;000.127;88;000.555;MIDI 01
043.350;000.132;59;000.461;MIDI 01
043.354;000.147;62;000.438;MIDI 01
043.361;000.158;77;000.570;MIDI 01
043.506;000.074;89;000.578;MIDI 01
043.495;000.105;64;000.523;MIDI 01
043.625;000.121;76;000.609;MIDI 01
043.623;000.131;56;000.539;MIDI 01
043.746;000.129;64;000.555;MIDI 01
043.767;000.127;88;000.586;MIDI 01
043.875;000.139;59;000.508;MIDI 01
043.886;000.144;77;000.609;MIDI 01
043.884;000.153;62;000.492;MIDI 01
044.030;000.073;89;000.586;MIDI 01
044.021;000.090;64;000.562;MIDI 01
044.148;000.106;76;000.641;MIDI 01
044.138;000.139;56;000.586;MIDI 01
044.280;000.124;88;000.625;MIDI 01
044.260;000.148;64;000.570;MIDI 01
044.400;000.150;59;000.555;MIDI 01
044.402;000.150;77;000.641;MIDI 01
044.404;000.185;62;000.547;MIDI 01
044.548;000.071;89;000.609;MIDI 01
044.544;000.106;64;000.602;MIDI 01
044.667;000.104;76;000.664;MIDI 01
044.664;000.136;56;000.609;MIDI 01
044.795;000.127;88;000.633;MIDI 01
044.790;000.134;64;000.602;MIDI 01
044.909;000.159;59;000.547;MIDI 01
044.918;000.157;77;000.656;MIDI 01
045.056;000.049;89;000.609;MIDI 01
044.923;000.185;62;000.531;MIDI 01
045.061;000.099;64;000.609;MIDI 01
045.199;000.046;76;000.648;MIDI 01
045.194;000.056;88;000.703;MIDI 01
045.197;000.150;56;000.594;MIDI 01
045.333;000.166;64;000.523;MIDI 01
045.496;000.159;59;000.516;MIDI 01
045.507;000.166;62;000.477;MIDI 01
045.659;000.093;64;000.500;MIDI 01
045.818;000.089;56;000.484;MIDI 01
045.911;000.123;64;000.523;MIDI 01
045.499;000.666;89;000.727;MIDI 01
046.049;000.125;59;000.484;MIDI 01
046.067;000.120;62;000.453;MIDI 01
045.502;000.695;77;000.648;MIDI 01
046.194;000.092;64;000.500;MIDI 01
046.332;000.046;88;000.500;MIDI 01
046.335;000.071;76;000.492;MIDI 01
046.328;000.120;56;000.508;MIDI 01
046.444;000.107;64;000.477;MIDI 01
046.573;000.079;59;000.430;MIDI 01
046.603;000.053;86;000.523;MIDI 01
046.591;000.083;62;000.391;MIDI 01
046.606;000.076;74;000.484;MIDI 01
046.727;000.054;64;000.430;MIDI 01
046.860;000.080;57;000.422;MIDI 01
046.873;000.071;84;000.500;MIDI 01
046.875;000.079;72;000.469;MIDI 01
046.960;000.146;64;000.406;MIDI 01
047.147;000.053;83;000.469;MIDI 01
047.149;000.061;71;000.445;MIDI 01
047.121;000.145;60;000.406;MIDI 01
047.279;000.069;64;000.383;MIDI 01
047.381;000.079;57;000.320;MIDI 01
047.411;000.051;81;000.477;MIDI 01
047.418;000.054;69;000.422;MIDI 01
047.507;000.081;64;000.422;MIDI 01
047.666;000.053;68;000.430;MIDI 01
047.656;000.104;80;000.516;MIDI 01
047.660;000.120;52;000.430;MIDI 01
047.780;000.111;62;000.445;MIDI 01
047.942;000.043;69;000.422;MIDI 01
047.934;000.079;81;000.594;MIDI 01
047.920;000.176;59;000.438;MIDI 01
048.048;000.110;62;000.484;MIDI 01
048.200;000.050;83;000.523;MIDI 01
048.206;000.076;71;000.445;MIDI 01
048.196;000.112;52;000.445;MIDI 01
048.333;000.111;62;000.406;MIDI 01
048.480;000.052;69;000.430;MIDI 01
048.482;000.118;81;000.461;MIDI 01
048.511;000.101;53;000.359;MIDI 01
048.641;000.107;60;000.414;MIDI 01
048.764;000.070;77;000.453;MIDI 01
048.761;000.079;89;000.500;MIDI 01
048.775;000.104;57;000.406;MIDI 01
048.909;000.088;60;000.398;MIDI 01
049.038;000.065;53;000.422;MIDI 01
049.027;000.095;77;000.484;MIDI 01
049.026;000.099;89;000.555;MIDI 01
049.157;000.051;60;000.461;MIDI 01
049.294;000.084;89;000.531;MIDI 01
049.301;000.099;77;000.477;MIDI 01
049.279;000.131;50;000.414;MIDI 01
049.429;000.103;58;000.352;MIDI 01
049.585;000.055;88;000.492;MIDI 01
049.589;000.075;76;000.445;MIDI 01
049.696;000.071;58;000.430;MIDI 01
049.845;000.055;86;000.484;MIDI 01
049.566;000.361;53;000.383;MIDI 01
049.842;000.091;74;000.477;MIDI 01
049.836;000.114;50;000.344;MIDI 01
049.928;000.110;58;000.430;MIDI 01
050.085;000.081;84;000.539;MIDI 01
050.083;000.101;72;000.508;MIDI 01
050.065;000.172;52;000.430;MIDI 01
050.220;000.097;60;000.391;MIDI 01
050.343;000.079;83;000.531;MIDI 01
050.349;000.095;71;000.477;MIDI 01
050.339;000.118;57;000.414;MIDI 01
050.472;000.113;60;000.492;MIDI 01
050.608;000.091;69;000.555;MIDI 01
050.605;000.096;81;000.617;MIDI 01
050.592;000.153;52;000.477;MIDI 01
050.737;000.078;60;000.508;MIDI 01
050.866;000.086;68;000.570;MIDI 01
050.859;000.142;50;000.531;MIDI 01
050.861;000.142;80;000.609;MIDI 01
050.991;000.131;59;000.516;MIDI 01
051.131;000.076;69;000.594;MIDI 01
051.128;000.098;81;000.664;MIDI 01
051.117;000.149;52;000.547;MIDI 01
051.260;000.111;59;000.555;MIDI 01
051.385;000.079;83;000.633;MIDI 01
051.388;000.083;71;000.625;MIDI 01
051.382;000.143;50;000.539;MIDI 01
051.518;000.104;59;000.555;MIDI 01
051.643;000.056;69;000.609;MIDI 01
051.641;000.098;81;000.656;MIDI 01
051.648;000.145;48;000.633;MIDI 01
051.792;000.126;57;000.578;MIDI 01
051.903;000.077;89;000.727;MIDI 01
051.905;000.080;77;000.656;MIDI 01
051.907;000.165;47;000.617;MIDI 01
052.048;000.127;57;000.586;MIDI 01
052.163;000.117;77;000.625;MIDI 01
052.166;000.120;89;000.688;MIDI 01
052.160;000.140;48;000.602;MIDI 01
052.300;000.069;57;000.609;MIDI 01
052.423;000.097;89;000.695;MIDI 01
052.426;000.107;77;000.664;MIDI 01
052.414;000.152;50;000.656;MIDI 01
052.571;000.075;59;000.484;MIDI 01
052.561;000.126;57;000.391;MIDI 01
052.696;000.083;88;000.617;MIDI 01
052.700;000.096;76;000.547;MIDI 01
052.692;000.132;48;000.555;MIDI 01
052.829;000.105;59;000.469;MIDI 01
052.843;000.109;57;000.492;MIDI 01
052.945;000.097;86;000.609;MIDI 01
052.962;000.096;50;000.570;MIDI 01
052.948;000.122;74;000.562;MIDI 01
053.081;000.059;59;000.539;MIDI 01
053.087;000.067;57;000.430;MIDI 01
053.199;000.121;52;000.609;MIDI 01
053.214;000.110;84;000.625;MIDI 01
053.211;000.130;72;000.586;MIDI 01
053.320;000.095;60;000.477;MIDI 01
053.304;000.133;57;000.453;MIDI 01
053.455;000.133;51;000.617;MIDI 01
053.474;000.118;83;000.648;MIDI 01
053.477;000.135;71;000.602;MIDI 01
053.583;000.073;60;000.508;MIDI 01
053.589;000.118;57;000.516;MIDI 01
053.781;000.035;71;000.367;MIDI 01
053.706;000.138;52;000.625;MIDI 01
053.748;000.099;69;000.602;MIDI 01
053.740;000.114;81;000.680;MIDI 01
053.833;000.091;60;000.523;MIDI 01
053.843;000.091;57;000.555;MIDI 01
053.995;000.107;68;000.648;MIDI 01
053.977;000.130;52;000.664;MIDI 01
053.994;000.145;80;000.656;MIDI 01
054.103;000.071;62;000.562;MIDI 01
054.107;000.079;59;000.562;MIDI 01
054.244;000.079;69;000.625;MIDI 01
054.242;000.108;81;000.711;MIDI 01
054.230;000.130;52;000.695;MIDI 01
054.358;000.085;60;000.562;MIDI 01
054.350;000.096;57;000.570;MIDI 01
054.499;000.094;83;000.664;MIDI 01
054.501;000.105;71;000.641;MIDI 01
054.490;000.128;52;000.594;MIDI 01
054.615;000.050;59;000.547;MIDI 01
054.631;000.086;56;000.539;MIDI 01
054.817;000.057;45;000.570;MIDI 01
054.806;000.096;81;000.602;MIDI 01
054.814;000.093;69;000.539;MIDI 01
055.000;000.056;60;000.469;MIDI 01
055.156;000.052;57;000.297;MIDI 01
055.260;000.048;60;000.352;MIDI 01
055.391;000.070;52;000.359;MIDI 01
055.426;000.107;69;000.469;MIDI 01
055.506;000.042;60;000.430;MIDI 01
055.665;000.051;45;000.500;MIDI 01
055.554;000.184;81;000.445;MIDI 01
055.691;000.083;72;000.484;MIDI 01
055.846;000.073;60;000.414;MIDI 01
055.974;000.086;57;000.367;MIDI 01
056.089;000.075;60;000.422;MIDI 01
056.241;000.061;52;000.336;MIDI 01
056.328;000.040;60;000.461;MIDI 01
056.255;000.134;72;000.461;MIDI 01
056.385;000.138;84;000.492;MIDI 01
056.492;000.040;45;000.492;MIDI 01
056.522;000.081;76;000.477;MIDI 01
056.666;000.075;60;000.383;MIDI 01
056.775;000.071;57;000.414;MIDI 01
056.903;000.076;60;000.406;MIDI 01
057.035;000.062;52;000.414;MIDI 01
057.049;000.114;76;000.438;MIDI 01
057.142;000.036;60;000.492;MIDI 01
057.154;000.044;88;000.508;MIDI 01
057.288;000.035;45;000.547;MIDI 01
057.323;000.122;72;000.477;MIDI 01
057.456;000.079;60;000.383;MIDI 01
057.568;000.077;57;000.406;MIDI 01
057.705;000.061;60;000.398;MIDI 01
057.823;000.074;52;000.414;MIDI 01
057.826;000.123;72;000.469;MIDI 01
057.923;000.044;60;000.508;MIDI 01
057.947;000.044;84;000.523;MIDI 01
058.080;000.030;40;000.523;MIDI 01
058.127;000.050;41;000.297;MIDI 01
058.264;000.078;60;000.352;MIDI 01
058.370;000.103;57;000.477;MIDI 01
058.507;000.075;60;000.461;MIDI 01
058.628;000.071;52;000.492;MIDI 01
058.733;000.032;60;000.555;MIDI 01
058.103;000.739;69;000.500;MIDI 01
058.864;000.027;41;000.508;MIDI 01
058.908;000.052;40;000.195;MIDI 01
058.372;000.710;81;000.531;MIDI 01
059.015;000.092;62;000.531;MIDI 01
059.143;000.061;71;000.594;MIDI 01
059.140;000.068;83;000.602;MIDI 01
059.125;000.193;59;000.555;MIDI 01
059.254;000.076;62;000.516;MIDI 01
059.403;000.099;68;000.625;MIDI 01
059.371;000.143;52;000.516;MIDI 01
059.466;000.054;78;000.102;MIDI 01
059.481;000.046;62;000.602;MIDI 01
059.399;000.147;80;000.602;MIDI 01
059.630;000.044;45;000.562;MIDI 01
059.649;000.084;81;000.625;MIDI 01
059.655;000.083;69;000.562;MIDI 01
059.797;000.105;60;000.531;MIDI 01
059.941;000.090;57;000.492;MIDI 01
060.086;000.067;60;000.422;MIDI 01
060.076;000.102;69;000.430;MIDI 01
060.216;000.071;52;000.406;MIDI 01
060.193;000.134;81;000.484;MIDI 01
060.326;000.035;60;000.453;MIDI 01
060.337;000.094;69;000.492;MIDI 01
060.448;000.041;45;000.516;MIDI 01
060.467;000.097;72;000.430;MIDI 01
060.617;000.090;60;000.477;MIDI 01
060.746;000.078;57;000.430;MIDI 01
060.882;000.053;60;000.398;MIDI 01
060.897;000.073;72;000.445;MIDI 01
060.992;000.080;52;000.469;MIDI 01
061.112;000.044;60;000.484;MIDI 01
061.016;000.144;84;000.500;MIDI 01
061.133;000.107;72;000.531;MIDI 01
061.237;000.039;45;000.555;MIDI 01
061.251;000.092;76;000.539;MIDI 01
061.411;000.066;60;000.469;MIDI 01
061.516;000.091;57;000.453;MIDI 01
061.654;000.061;60;000.422;MIDI 01
061.669;000.062;76;000.461;MIDI 01
061.770;000.068;52;000.445;MIDI 01
061.790;000.057;88;000.500;MIDI 01
061.885;000.041;60;000.500;MIDI 01
061.896;000.142;76;000.484;MIDI 01
062.010;000.043;45;000.523;MIDI 01
062.052;000.095;72;000.438;MIDI 01
062.195;000.068;60;000.422;MIDI 01
062.293;000.085;57;000.438;MIDI 01
062.424;000.067;60;000.430;MIDI 01
062.426;000.070;72;000.438;MIDI 01
062.533;000.080;52;000.492;MIDI 01
062.535;000.080;84;000.555;MIDI 01
062.641;000.035;60;000.539;MIDI 01
062.661;000.120;72;000.523;MIDI 01
062.820;000.002;40;000.117;MIDI 01
062.788;000.039;41;000.414;MIDI 01
062.942;000.067;60;000.492;MIDI 01
063.062;000.086;57;000.484;MIDI 01
063.185;000.091;60;000.477;MIDI 01
063.309;000.078;52;000.469;MIDI 01
063.419;000.030;60;000.570;MIDI 01
062.794;000.710;69;000.562;MIDI 01
063.536;000.029;40;000.625;MIDI 01
063.073;000.691;81;000.555;MIDI 01
063.695;000.091;62;000.547;MIDI 01
063.814;000.069;83;000.633;MIDI 01
063.821;000.068;71;000.594;MIDI 01
063.934;000.055;62;000.516;MIDI 01
063.804;000.190;59;000.484;MIDI 01
064.051;000.136;52;000.531;MIDI 01
064.088;000.102;68;000.594;MIDI 01
064.149;000.043;62;000.562;MIDI 01
064.079;000.164;80;000.594;MIDI 01
064.352;000.065;45;000.445;MIDI 01
064.374;000.084;69;000.492;MIDI 01
064.377;000.148;81;000.500;MIDI 01
064.505;000.094;57;000.422;MIDI 01
064.641;000.084;56;000.445;MIDI 01
064.651;000.089;71;000.430;MIDI 01
064.777;000.115;57;000.438;MIDI 01
064.647;000.251;83;000.414;MIDI 01
064.904;000.121;73;000.516;MIDI 01
064.907;000.122;55;000.484;MIDI 01
064.910;000.207;85;000.562;MIDI 01
065.034;000.112;57;000.531;MIDI 01
065.166;000.087;86;000.586;MIDI 01
065.174;000.095;74;000.539;MIDI 01
065.180;000.103;53;000.453;MIDI 01
065.291;000.122;57;000.516;MIDI 01
065.431;000.103;84;000.594;MIDI 01
065.426;000.117;52;000.469;MIDI 01
065.429;000.115;72;000.539;MIDI 01
065.556;000.083;57;000.484;MIDI 01
065.670;000.107;51;000.492;MIDI 01
065.701;000.087;71;000.516;MIDI 01
065.697;000.120;83;000.578;MIDI 01
065.796;000.051;57;000.508;MIDI 01
065.958;000.062;84;000.531;MIDI 01
065.971;000.059;72;000.461;MIDI 01
065.926;000.217;52;000.445;MIDI 01
066.080;000.138;57;000.430;MIDI 01
066.218;000.077;68;000.484;MIDI 01
066.197;000.142;59;000.477;MIDI 01
066.210;000.148;80;000.539;MIDI 01
066.306;000.136;52;000.539;MIDI 01
066.432;000.126;60;000.516;MIDI 01
066.474;000.092;69;000.547;MIDI 01
066.471;000.127;81;000.625;MIDI 01
066.571;000.104;52;000.586;MIDI 01
066.695;000.100;62;000.586;MIDI 01
066.733;000.066;83;000.617;MIDI 01
066.736;000.078;71;000.594;MIDI 01
066.828;000.117;52;000.562;MIDI 01
066.996;000.054;66;000.570;MIDI 01
066.960;000.109;60;000.555;MIDI 01
066.992;000.132;78;000.570;MIDI 01
067.092;000.116;52;000.492;MIDI 01
067.204;000.109;59;000.547;MIDI 01
067.260;000.066;68;000.469;MIDI 01
067.253;000.118;80;000.555;MIDI 01
067.368;000.077;52;000.438;MIDI 01
067.454;000.082;45;000.516;MIDI 01
067.497;000.071;69;000.492;MIDI 01
067.601;000.089;57;000.492;MIDI 01
067.619;000.100;81;000.555;MIDI 01
067.724;000.095;56;000.539;MIDI 01
067.763;000.073;71;000.555;MIDI 01
067.843;000.114;57;000.570;MIDI 01
067.872;000.091;83;000.570;MIDI 01
067.978;000.131;55;000.562;MIDI 01
067.994;000.122;73;000.625;MIDI 01
068.100;000.131;57;000.602;MIDI 01
068.122;000.138;85;000.555;MIDI 01
068.249;000.114;74;000.617;MIDI 01
068.241;000.134;53;000.602;MIDI 01
068.385;000.070;86;000.562;MIDI 01
068.379;000.131;57;000.586;MIDI 01
068.516;000.114;52;000.516;MIDI 01
068.529;000.115;72;000.594;MIDI 01
068.640;000.075;84;000.594;MIDI 01
068.648;000.096;57;000.516;MIDI 01
068.797;000.081;71;000.578;MIDI 01
068.771;000.111;51;000.539;MIDI 01
068.886;000.057;57;000.570;MIDI 01
068.904;000.103;83;000.570;MIDI 01
069.035;000.085;72;000.617;MIDI 01
069.005;000.177;52;000.562;MIDI 01
069.155;000.044;84;000.562;MIDI 01
069.153;000.099;55;000.430;MIDI 01
069.157;000.119;57;000.398;MIDI 01
069.274;000.084;65;000.586;MIDI 01
069.291;000.121;68;000.602;MIDI 01
069.418;000.097;80;000.469;MIDI 01
069.422;000.104;52;000.586;MIDI 01
069.540;000.064;69;000.609;MIDI 01
069.530;000.102;64;000.594;MIDI 01
069.660;000.103;81;000.625;MIDI 01
069.647;000.178;52;000.570;MIDI 01
069.792;000.035;64;000.508;MIDI 01
069.787;000.084;71;000.617;MIDI 01
069.785;000.104;62;000.484;MIDI 01
069.909;000.053;83;000.586;MIDI 01
069.906;000.090;52;000.508;MIDI 01
070.027;000.080;60;000.602;MIDI 01
070.055;000.092;66;000.609;MIDI 01
070.172;000.055;50;000.477;MIDI 01
070.168;000.069;52;000.438;MIDI 01
070.181;000.112;78;000.562;MIDI 01
070.276;000.110;59;000.578;MIDI 01
070.284;000.115;68;000.617;MIDI 01
070.416;000.090;80;000.578;MIDI 01
070.386;000.121;52;000.609;MIDI 01
070.523;000.093;45;000.664;MIDI 01
070.550;000.083;69;000.625;MIDI 01
070.672;000.029;81;000.594;MIDI 01
070.680;000.108;57;000.578;MIDI 01
070.822;000.065;68;000.555;MIDI 01
070.817;000.085;56;000.578;MIDI 01
070.945;000.072;57;000.523;MIDI 01
070.963;000.060;69;000.539;MIDI 01
071.064;000.092;45;000.594;MIDI 01
071.073;000.085;81;000.609;MIDI 01
071.202;000.124;57;000.547;MIDI 01
071.210;000.132;69;000.594;MIDI 01
071.334;000.107;68;000.688;MIDI 01
071.327;000.116;56;000.680;MIDI 01
071.467;000.082;57;000.648;MIDI 01
071.481;000.078;69;000.594;MIDI 01
071.609;000.071;81;000.609;MIDI 01
071.607;000.078;45;000.586;MIDI 01
071.743;000.122;57;000.516;MIDI 01
071.736;000.145;69;000.531;MIDI 01
071.879;000.110;56;000.555;MIDI 01
071.885;000.106;68;000.586;MIDI 01
072.006;000.095;57;000.633;MIDI 01
072.014;000.104;69;000.664;MIDI 01
072.146;000.081;45;000.680;MIDI 01
072.154;000.082;81;000.703;MIDI 01
072.294;000.106;69;000.578;MIDI 01
072.299;000.107;57;000.539;MIDI 01
072.427;000.089;56;000.562;MIDI 01
072.438;000.081;68;000.523;MIDI 01
072.554;000.066;69;000.531;MIDI 01
072.552;000.076;57;000.547;MIDI 01
072.672;000.068;45;000.602;MIDI 01
072.678;000.088;81;000.578;MIDI 01
072.807;000.120;57;000.562;MIDI 01
072.817;000.134;69;000.555;MIDI 01
072.938;000.111;56;000.617;MIDI 01
072.947;000.112;68;000.648;MIDI 01
073.066;000.084;57;000.648;MIDI 01
073.080;000.079;69;000.664;MIDI 01
073.197;000.072;81;000.656;MIDI 01
073.188;000.083;45;000.672;MIDI 01
073.321;000.103;57;000.586;MIDI 01
073.324;000.128;69;000.586;MIDI 01
073.457;000.110;56;000.531;MIDI 01
073.470;000.101;68;000.523;MIDI 01
073.582;000.033;57;000.484;MIDI 01
073.627;000.081;69;000.461;MIDI 01
073.880;000.074;70;000.320;MIDI 01
074.023;000.069;69;000.320;MIDI 01
074.171;000.070;70;000.258;MIDI 01
074.301;000.073;69;000.289;MIDI 01
073.908;000.493;67;000.195;MIDI 01
073.901;000.517;64;000.297;MIDI 01
073.905;000.534;61;000.258;MIDI 01
074.431;000.082;70;000.289;MIDI 01
074.565;000.072;69;000.305;MIDI 01
074.695;000.073;70;000.305;MIDI 01
074.821;000.076;69;000.305;MIDI 01
074.958;000.076;70;000.297;MIDI 01
075.089;000.071;69;000.328;MIDI 01
075.219;000.082;70;000.336;MIDI 01
075.354;000.080;69;000.312;MIDI 01
075.483;000.069;70;000.367;MIDI 01
075.608;000.077;69;000.367;MIDI 01
075.734;000.101;70;000.414;MIDI 01
075.868;000.080;69;000.406;MIDI 01
076.000;000.091;73;000.391;MIDI 01
076.121;000.095;69;000.453;MIDI 01
076.258;000.136;74;000.422;MIDI 01
076.410;000.108;69;000.383;MIDI 01
076.566;000.106;76;000.359;MIDI 01
076.872;000.257;77;000.422;MIDI 01
077.028;000.181;76;000.367;MIDI 01
076.715;000.497;69;000.391;MIDI 01
077.226;000.102;74;000.344;MIDI 01
077.216;000.143;50;000.273;MIDI 01
077.362;000.046;57;000.344;MIDI 01
077.633;000.040;65;000.359;MIDI 01
077.520;000.170;62;000.305;MIDI 01
077.763;000.221;77;000.422;MIDI 01
077.883;000.182;76;000.477;MIDI 01
077.617;000.483;69;000.469;MIDI 01
078.049;000.107;74;000.445;MIDI 01
078.064;000.122;50;000.336;MIDI 01
078.185;000.070;57;000.391;MIDI 01
078.471;000.045;65;000.375;MIDI 01
078.323;000.417;62;000.414;MIDI 01
078.444;000.409;69;000.508;MIDI 01
078.574;000.281;77;000.477;MIDI 01
078.698;000.243;76;000.508;MIDI 01
078.849;000.112;74;000.477;MIDI 01
078.883;000.105;50;000.406;MIDI 01
078.996;000.069;57;000.430;MIDI 01
079.118;000.168;62;000.469;MIDI 01
079.257;000.040;65;000.406;MIDI 01
079.410;000.222;77;000.508;MIDI 01
079.522;000.181;74;000.500;MIDI 01
079.277;000.443;69;000.484;MIDI 01
079.669;000.071;45;000.383;MIDI 01
079.711;000.097;76;000.461;MIDI 01
079.952;000.123;61;000.469;MIDI 01
080.085;000.038;64;000.328;MIDI 01
079.822;000.606;57;000.414;MIDI 01
080.210;000.275;79;000.539;MIDI 01
080.092;000.442;69;000.477;MIDI 01
080.338;000.198;77;000.547;MIDI 01
080.484;000.098;45;000.430;MIDI 01
080.501;000.100;76;000.531;MIDI 01
080.773;000.110;61;000.461;MIDI 01
080.903;000.043;64;000.281;MIDI 01
080.628;000.614;57;000.430;MIDI 01
081.029;000.265;79;000.547;MIDI 01
080.892;000.406;69;000.523;MIDI 01
081.143;000.215;77;000.562;MIDI 01
081.292;000.092;45;000.484;MIDI 01
081.294;000.111;76;000.547;MIDI 01
081.573;000.118;61;000.508;MIDI 01
081.691;000.038;64;000.445;MIDI 01
081.436;000.527;57;000.461;MIDI 01
081.830;000.255;79;000.570;MIDI 01
081.695;000.441;69;000.555;MIDI 01
081.940;000.227;77;000.578;MIDI 01
082.106;000.071;45;000.484;MIDI 01
082.096;000.122;76;000.539;MIDI 01
082.375;000.119;61;000.484;MIDI 01
082.245;000.264;57;000.461;MIDI 01
082.472;000.040;64;000.500;MIDI 01
082.509;000.178;69;000.508;MIDI 01
082.628;000.180;79;000.531;MIDI 01
082.758;000.191;76;000.547;MIDI 01
082.920;000.102;77;000.492;MIDI 01
082.931;000.127;50;000.375;MIDI 01
083.062;000.075;57;000.398;MIDI 01
083.204;000.177;62;000.438;MIDI 01
083.355;000.046;65;000.367;MIDI 01
083.335;000.208;74;000.477;MIDI 01
083.473;000.093;81;000.453;MIDI 01
083.598;000.208;86;000.500;MIDI 01
083.770;000.132;82;000.414;MIDI 01
084.048;000.092;67;000.438;MIDI 01
083.922;000.290;62;000.367;MIDI 01
083.801;000.433;55;000.305;MIDI 01
084.176;000.135;70;000.469;MIDI 01
084.299;000.266;74;000.492;MIDI 01
084.426;000.226;82;000.523;MIDI 01
084.562;000.153;79;000.539;MIDI 01
084.855;000.111;63;000.508;MIDI 01
084.575;000.420;51;000.406;MIDI 01
084.729;000.325;58;000.445;MIDI 01
084.967;000.205;67;000.516;MIDI 01
085.096;000.158;70;000.539;MIDI 01
085.223;000.189;79;000.578;MIDI 01
085.362;000.196;76;000.562;MIDI 01
085.383;000.415;49;000.445;MIDI 01
085.551;000.324;57;000.391;MIDI 01
085.680;000.233;61;000.461;MIDI 01
085.802;000.128;64;000.430;MIDI 01
086.048;000.133;76;000.484;MIDI 01
085.934;000.273;69;000.359;MIDI 01
086.204;000.165;77;000.430;MIDI 01
086.464;000.105;62;000.430;MIDI 01
086.326;000.300;57;000.352;MIDI 01
086.175;000.533;50;000.375;MIDI 01
086.596;000.227;65;000.438;MIDI 01
086.724;000.246;69;000.484;MIDI 01
086.847;000.255;77;000.508;MIDI 01
086.966;000.203;74;000.523;MIDI 01
087.249;000.226;57;000.523;MIDI 01
087.128;000.394;53;000.477;MIDI 01
086.979;000.594;45;000.492;MIDI 01
087.361;000.225;62;000.508;MIDI 01
087.492;000.244;69;000.562;MIDI 01
087.615;000.216;74;000.570;MIDI 01
087.753;000.242;73;000.594;MIDI 01
088.009;000.152;55;000.570;MIDI 01
087.890;000.286;52;000.578;MIDI 01
088.134;000.049;57;000.547;MIDI 01
087.747;000.502;45;000.578;MIDI 01
088.129;000.134;61;000.641;MIDI 01
088.255;000.206;69;000.586;MIDI 01
088.372;000.175;73;000.672;MIDI 01
088.510;000.116;74;000.656;MIDI 01
088.523;000.109;38;000.578;MIDI 01
088.657;000.129;50;000.617;MIDI 01
089.098;000.124;65;000.539;MIDI 01
089.215;000.122;69;000.609;MIDI 01
089.346;000.041;74;000.617;MIDI 01
088.801;000.632;53;000.602;MIDI 01
088.948;000.495;57;000.586;MIDI 01
089.125;000.360;62;000.453;MIDI 01
089.473;000.121;77;000.617;MIDI 01
089.593;000.171;81;000.633;MIDI 01
089.729;000.134;77;000.602;MIDI 01
089.845;000.178;86;000.562;MIDI 01
089.973;000.119;81;000.578;MIDI 01
090.188;000.147;82;000.477;MIDI 01
090.467;000.105;67;000.461;MIDI 01
090.342;000.292;62;000.398;MIDI 01
090.179;000.529;55;000.305;MIDI 01
090.603;000.130;70;000.469;MIDI 01
090.720;000.268;74;000.500;MIDI 01
090.829;000.231;82;000.516;MIDI 01
090.970;000.161;79;000.555;MIDI 01
091.271;000.129;63;000.484;MIDI 01
090.994;000.438;51;000.391;MIDI 01
091.151;000.325;58;000.461;MIDI 01
091.397;000.193;67;000.508;MIDI 01
091.523;000.149;70;000.531;MIDI 01
091.636;000.192;79;000.555;MIDI 01
091.790;000.193;76;000.484;MIDI 01
091.814;000.424;49;000.359;MIDI 01
092.098;000.264;61;000.438;MIDI 01
091.975;000.402;57;000.367;MIDI 01
092.225;000.154;64;000.438;MIDI 01
092.370;000.245;69;000.344;MIDI 01
092.476;000.150;76;000.461;MIDI 01
092.630;000.205;77;000.469;MIDI 01
092.897;000.107;62;000.461;MIDI 01
092.763;000.292;57;000.359;MIDI 01
092.612;000.490;50;000.367;MIDI 01
093.022;000.186;65;000.477;MIDI 01
093.151;000.254;69;000.547;MIDI 01
093.273;000.266;77;000.555;MIDI 01
093.400;000.207;74;000.562;MIDI 01
093.697;000.198;57;000.547;MIDI 01
093.559;000.353;53;000.547;MIDI 01
093.785;000.200;62;000.555;MIDI 01
093.419;000.574;45;000.531;MIDI 01
093.930;000.226;69;000.555;MIDI 01
094.019;000.264;74;000.562;MIDI 01
094.165;000.305;73;000.625;MIDI 01
094.326;000.272;52;000.602;MIDI 01
094.194;000.421;45;000.547;MIDI 01
094.433;000.228;55;000.578;MIDI 01
094.591;000.123;61;000.625;MIDI 01
094.576;000.141;57;000.445;MIDI 01
094.709;000.225;69;000.609;MIDI 01
094.829;000.169;73;000.633;MIDI 01
094.949;000.099;74;000.625;MIDI 01
095.185;000.065;69;000.625;MIDI 01
094.933;000.630;50;000.586;MIDI 01
095.065;000.519;53;000.531;MIDI 01
095.286;000.329;57;000.508;MIDI 01
095.484;000.224;62;000.555;MIDI 01
095.924;000.124;80;000.531;MIDI 01
095.299;000.848;81;000.727;MIDI 01
096.053;000.119;79;000.586;MIDI 01
096.186;000.095;78;000.578;MIDI 01
096.303;000.138;77;000.594;MIDI 01
096.433;000.104;76;000.602;MIDI 01
096.546;000.055;75;000.539;MIDI 01
096.744;000.103;74;000.469;MIDI 01
096.987;000.206;57;000.508;MIDI 01
096.855;000.364;53;000.414;MIDI 01
096.696;000.555;45;000.391;MIDI 01
097.112;000.200;62;000.508;MIDI 01
097.237;000.265;69;000.570;MIDI 01
097.368;000.231;74;000.578;MIDI 01
097.491;000.239;73;000.594;MIDI 01
097.484;000.457;45;000.508;MIDI 01
097.622;000.322;52;000.586;MIDI 01
097.736;000.267;55;000.586;MIDI 01
097.900;000.118;61;000.594;MIDI 01
097.862;000.185;57;000.570;MIDI 01
098.022;000.213;69;000.594;MIDI 01
098.134;000.174;73;000.609;MIDI 01
098.249;000.101;74;000.648;MIDI 01
098.493;000.078;74;000.680;MIDI 01
098.247;000.598;50;000.617;MIDI 01
098.375;000.474;53;000.562;MIDI 01
098.589;000.337;57;000.492;MIDI 01
098.770;000.226;62;000.586;MIDI 01
099.155;000.123;85;000.570;MIDI 01
098.603;000.693;86;000.750;MIDI 01
099.286;000.151;84;000.562;MIDI 01
099.416;000.117;83;000.609;MIDI 01
099.536;000.083;82;000.578;MIDI 01
099.656;000.122;81;000.594;MIDI 01
099.789;000.084;80;000.523;MIDI 01
099.935;000.107;81;000.562;MIDI 01
100.193;000.176;57;000.516;MIDI 01
100.092;000.300;53;000.453;MIDI 01
099.938;000.515;45;000.453;MIDI 01
100.335;000.197;62;000.484;MIDI 01
100.460;000.249;69;000.500;MIDI 01
100.583;000.213;74;000.570;MIDI 01
100.724;000.193;73;000.578;MIDI 01
100.786;000.207;52;000.547;MIDI 01
100.954;000.061;55;000.641;MIDI 01
100.702;000.328;45;000.492;MIDI 01
101.177;000.081;73;000.664;MIDI 01
101.168;000.148;33;000.594;MIDI 01
101.304;000.132;41;000.648;MIDI 01
101.302;000.197;81;000.672;MIDI 01
101.420;000.091;40;000.688;MIDI 01
101.575;000.026;40;000.289;MIDI 01
101.415;000.189;85;000.641;MIDI 01
101.564;000.051;86;000.688;MIDI 01
101.561;000.265;38;000.711;MIDI 01
101.801;000.141;50;000.539;MIDI 01
101.931;000.189;53;000.562;MIDI 01
102.048;000.147;33;000.602;MIDI 01
102.046;000.151;57;000.602;MIDI 01
102.173;000.135;41;000.641;MIDI 01
102.180;000.180;62;000.617;MIDI 01
102.284;000.171;40;000.695;MIDI 01
102.416;000.219;38;000.703;MIDI 01
102.601;000.155;50;000.602;MIDI 01
102.735;000.208;53;000.602;MIDI 01
102.862;000.168;57;000.648;MIDI 01
102.872;000.183;33;000.609;MIDI 01
102.990;000.149;41;000.648;MIDI 01
103.004;000.208;62;000.609;MIDI 01
103.108;000.176;40;000.688;MIDI 01
103.243;000.216;38;000.711;MIDI 01
103.417;000.172;50;000.586;MIDI 01
103.546;000.218;53;000.633;MIDI 01
103.674;000.153;57;000.617;MIDI 01
103.676;000.229;33;000.578;MIDI 01
103.797;000.133;41;000.602;MIDI 01
103.820;000.132;62;000.617;MIDI 01
103.926;000.040;36;000.508;MIDI 01
103.908;000.105;38;000.633;MIDI 01
104.088;000.154;43;000.695;MIDI 01
104.093;000.166;31;000.695;MIDI 01
104.114;000.157;50;000.633;MIDI 01
104.252;000.125;53;000.617;MIDI 01
104.378;000.058;59;000.602;MIDI 01
104.518;000.143;62;000.641;MIDI 01
104.644;000.111;65;000.602;MIDI 01
104.759;000.108;71;000.586;MIDI 01
104.912;000.036;36;000.484;MIDI 01
104.919;000.091;60;000.539;MIDI 01
104.917;000.108;48;000.555;MIDI 01
105.054;000.067;72;000.578;MIDI 01
105.186;000.094;64;000.609;MIDI 01
105.315;000.044;76;000.594;MIDI 01
105.169;000.224;52;000.539;MIDI 01
105.440;000.088;67;000.656;MIDI 01
105.566;000.035;79;000.633;MIDI 01
105.420;000.196;55;000.617;MIDI 01
105.688;000.096;72;000.695;MIDI 01
105.820;000.064;84;000.648;MIDI 01
105.676;000.219;60;000.633;MIDI 01
105.948;000.105;76;000.680;MIDI 01
105.953;000.146;64;000.602;MIDI 01
106.071;000.061;88;000.641;MIDI 01
106.214;000.118;72;000.641;MIDI 01
106.195;000.176;60;000.492;MIDI 01
106.329;000.050;84;000.602;MIDI 01
106.513;000.047;53;000.266;MIDI 01
106.482;000.087;67;000.633;MIDI 01
106.473;000.139;55;000.477;MIDI 01
106.611;000.067;79;000.617;MIDI 01
106.758;000.090;64;000.656;MIDI 01
106.891;000.060;76;000.617;MIDI 01
106.745;000.279;52;000.555;MIDI 01
107.006;000.102;67;000.688;MIDI 01
107.140;000.056;79;000.617;MIDI 01
107.008;000.255;55;000.602;MIDI 01
107.275;000.088;64;000.648;MIDI 01
107.274;000.153;52;000.523;MIDI 01
107.397;000.061;76;000.633;MIDI 01
107.504;000.049;48;000.570;MIDI 01
107.545;000.084;60;000.641;MIDI 01
107.667;000.058;72;000.648;MIDI 01
107.657;000.142;31;000.602;MIDI 01
107.791;000.146;40;000.656;MIDI 01
107.918;000.170;38;000.680;MIDI 01
108.057;000.194;36;000.664;MIDI 01
108.229;000.157;48;000.570;MIDI 01
108.364;000.184;52;000.578;MIDI 01
108.494;000.157;55;000.633;MIDI 01
108.491;000.173;31;000.586;MIDI 01
108.614;000.149;40;000.641;MIDI 01
108.640;000.190;60;000.578;MIDI 01
108.736;000.180;38;000.680;MIDI 01
108.870;000.207;36;000.688;MIDI 01
109.061;000.166;48;000.609;MIDI 01
109.183;000.207;52;000.602;MIDI 01
109.321;000.152;31;000.594;MIDI 01
109.310;000.165;55;000.633;MIDI 01
109.443;000.139;40;000.664;MIDI 01
109.463;000.181;60;000.570;MIDI 01
109.562;000.170;38;000.711;MIDI 01
109.693;000.241;36;000.727;MIDI 01
109.854;000.179;48;000.633;MIDI 01
109.980;000.225;52;000.625;MIDI 01
110.105;000.148;55;000.625;MIDI 01
110.130;000.234;31;000.602;MIDI 01
110.251;000.127;60;000.578;MIDI 01
110.253;000.136;40;000.609;MIDI 01
110.360;000.100;36;000.680;MIDI 01
110.417;000.057;35;000.188;MIDI 01
110.550;000.119;50;000.625;MIDI 01
110.555;000.154;57;000.609;MIDI 01
110.715;000.102;62;000.594;MIDI 01
110.827;000.086;50;000.578;MIDI 01
110.537;000.455;29;000.672;MIDI 01
110.953;000.085;62;000.648;MIDI 01
110.532;000.520;41;000.695;MIDI 01
111.016;000.052;60;000.203;MIDI 01
110.844;000.268;57;000.539;MIDI 01
111.116;000.033;57;000.016;MIDI 01
111.086;000.125;51;000.688;MIDI 01
111.182;000.098;63;000.617;MIDI 01
111.402;000.030;40;000.641;MIDI 01
111.388;000.055;56;000.703;MIDI 01
111.400;000.066;52;000.664;MIDI 01
111.395;000.084;64;000.688;MIDI 01
111.814;000.044;77;000.516;MIDI 01
111.794;000.144;62;000.508;MIDI 01
111.791;000.200;59;000.508;MIDI 01
111.886;000.106;79;000.555;MIDI 01
111.955;000.081;64;000.430;MIDI 01
111.972;000.093;77;000.484;MIDI 01
112.065;000.041;76;000.570;MIDI 01
112.069;000.138;56;000.484;MIDI 01
112.206;000.124;64;000.430;MIDI 01
112.336;000.043;77;000.602;MIDI 01
112.350;000.121;62;000.461;MIDI 01
112.406;000.107;79;000.422;MIDI 01
112.341;000.199;59;000.461;MIDI 01
112.497;000.060;64;000.438;MIDI 01
112.489;000.119;77;000.531;MIDI 01
112.603;000.055;76;000.531;MIDI 01
112.607;000.121;56;000.492;MIDI 01
112.736;000.139;64;000.422;MIDI 01
112.899;000.055;77;000.617;MIDI 01
112.906;000.115;62;000.414;MIDI 01
112.901;000.131;59;000.422;MIDI 01
112.968;000.124;79;000.469;MIDI 01
113.036;000.100;64;000.508;MIDI 01
113.061;000.135;77;000.539;MIDI 01
113.173;000.059;76;000.570;MIDI 01
113.171;000.115;56;000.492;MIDI 01
113.290;000.148;64;000.508;MIDI 01
113.484;000.067;77;000.656;MIDI 01
113.463;000.134;59;000.469;MIDI 01
113.468;000.134;62;000.453;MIDI 01
113.567;000.106;79;000.539;MIDI 01
113.597;000.104;64;000.516;MIDI 01
113.643;000.130;77;000.453;MIDI 01
113.748;000.052;76;000.594;MIDI 01
113.744;000.126;56;000.508;MIDI 01
113.865;000.127;64;000.516;MIDI 01
114.064;000.045;77;000.648;MIDI 01
114.043;000.149;59;000.484;MIDI 01
114.052;000.151;62;000.461;MIDI 01
114.129;000.112;79;000.422;MIDI 01
114.181;000.118;64;000.492;MIDI 01
114.211;000.099;77;000.586;MIDI 01
114.307;000.058;76;000.648;MIDI 01
114.336;000.150;56;000.547;MIDI 01
114.468;000.156;64;000.539;MIDI 01
114.624;000.065;77;000.641;MIDI 01
114.622;000.150;59;000.523;MIDI 01
114.631;000.152;62;000.484;MIDI 01
114.702;000.125;79;000.570;MIDI 01
114.777;000.098;64;000.539;MIDI 01
114.797;000.086;77;000.633;MIDI 01
114.876;000.061;76;000.672;MIDI 01
114.927;000.144;56;000.516;MIDI 01
115.056;000.160;64;000.516;MIDI 01
115.234;000.170;62;000.406;MIDI 01
115.224;000.195;59;000.453;MIDI 01
115.390;000.104;64;000.477;MIDI 01
115.552;000.118;56;000.500;MIDI 01
115.664;000.120;64;000.484;MIDI 01
115.806;000.121;59;000.406;MIDI 01
115.819;000.111;62;000.383;MIDI 01
115.953;000.089;64;000.453;MIDI 01
115.226;000.823;77;000.664;MIDI 01
116.075;000.045;76;000.516;MIDI 01
116.092;000.117;56;000.477;MIDI 01
116.223;000.081;64;000.375;MIDI 01
116.354;000.035;74;000.469;MIDI 01
116.357;000.060;59;000.352;MIDI 01
116.352;000.079;62;000.383;MIDI 01
116.501;000.049;64;000.375;MIDI 01
116.611;000.029;72;000.391;MIDI 01
116.629;000.061;57;000.398;MIDI 01
116.661;000.085;74;000.469;MIDI 01
116.717;000.133;64;000.406;MIDI 01
116.747;000.106;72;000.484;MIDI 01
116.854;000.047;71;000.461;MIDI 01
116.870;000.212;60;000.430;MIDI 01
117.020;000.118;64;000.430;MIDI 01
117.135;000.044;69;000.516;MIDI 01
117.147;000.081;57;000.422;MIDI 01
117.299;000.052;64;000.461;MIDI 01
117.384;000.051;68;000.594;MIDI 01
117.406;000.130;52;000.523;MIDI 01
117.535;000.106;62;000.453;MIDI 01
117.678;000.028;69;000.406;MIDI 01
117.661;000.168;59;000.453;MIDI 01
117.787;000.095;62;000.500;MIDI 01
117.942;000.039;71;000.477;MIDI 01
117.927;000.081;52;000.461;MIDI 01
118.049;000.077;62;000.477;MIDI 01
118.189;000.048;69;000.586;MIDI 01
118.211;000.106;60;000.438;MIDI 01
118.197;000.126;57;000.469;MIDI 01
118.343;000.125;64;000.508;MIDI 01
118.455;000.099;77;000.656;MIDI 01
118.465;000.139;59;000.516;MIDI 01
118.596;000.086;89;000.617;MIDI 01
118.489;000.219;62;000.453;MIDI 01
118.603;000.106;64;000.617;MIDI 01
118.728;000.111;76;000.672;MIDI 01
118.726;000.145;56;000.578;MIDI 01
118.856;000.142;64;000.594;MIDI 01
118.868;000.132;88;000.648;MIDI 01
118.973;000.166;59;000.570;MIDI 01
118.984;000.166;77;000.664;MIDI 01
118.989;000.217;62;000.547;MIDI 01
119.144;000.069;89;000.562;MIDI 01
119.146;000.100;64;000.523;MIDI 01
119.267;000.114;56;000.484;MIDI 01
119.271;000.117;76;000.562;MIDI 01
119.393;000.116;64;000.531;MIDI 01
119.409;000.128;88;000.547;MIDI 01
119.524;000.128;59;000.430;MIDI 01
119.526;000.146;62;000.438;MIDI 01
119.532;000.149;77;000.570;MIDI 01
119.681;000.068;89;000.539;MIDI 01
119.668;000.105;64;000.523;MIDI 01
119.801;000.107;76;000.609;MIDI 01
119.796;000.132;56;000.531;MIDI 01
119.939;000.122;88;000.570;MIDI 01
119.928;000.136;64;000.523;MIDI 01
120.051;000.151;59;000.508;MIDI 01
120.060;000.147;77;000.633;MIDI 01
120.199;000.075;89;000.602;MIDI 01
120.065;000.226;62;000.492;MIDI 01
120.207;000.102;64;000.586;MIDI 01
120.322;000.104;76;000.648;MIDI 01
120.318;000.147;56;000.570;MIDI 01
120.449;000.139;88;000.641;MIDI 01
120.451;000.139;64;000.578;MIDI 01
120.575;000.127;77;000.648;MIDI 01
120.574;000.157;59;000.555;MIDI 01
120.583;000.202;62;000.547;MIDI 01
120.723;000.075;89;000.617;MIDI 01
120.731;000.116;64;000.594;MIDI 01
120.847;000.106;76;000.672;MIDI 01
120.842;000.143;56;000.602;MIDI 01
120.976;000.111;88;000.641;MIDI 01
120.969;000.150;64;000.617;MIDI 01
121.105;000.152;77;000.695;MIDI 01
121.102;000.163;59;000.547;MIDI 01
121.112;000.177;62;000.531;MIDI 01
121.237;000.061;89;000.648;MIDI 01
121.254;000.106;64;000.617;MIDI 01
121.398;000.076;76;000.656;MIDI 01
121.396;000.101;88;000.703;MIDI 01
121.399;000.144;56;000.555;MIDI 01
121.534;000.165;64;000.516;MIDI 01
121.688;000.147;62;000.516;MIDI 01
121.681;000.158;59;000.492;MIDI 01
121.855;000.101;64;000.516;MIDI 01
122.007;000.122;56;000.508;MIDI 01
122.119;000.132;64;000.516;MIDI 01
121.705;000.674;89;000.719;MIDI 01
122.244;000.138;59;000.492;MIDI 01
121.707;000.711;77;000.664;MIDI 01
122.260;000.178;62;000.492;MIDI 01
122.404;000.095;64;000.523;MIDI 01
122.514;000.069;88;000.547;MIDI 01
122.516;000.077;76;000.555;MIDI 01
122.521;000.138;56;000.508;MIDI 01
122.654;000.092;64;000.484;MIDI 01
122.759;000.093;59;000.438;MIDI 01
122.795;000.072;86;000.547;MIDI 01
122.781;000.101;62;000.422;MIDI 01
122.800;000.101;74;000.508;MIDI 01
122.921;000.067;64;000.477;MIDI 01
123.069;000.068;57;000.398;MIDI 01
123.074;000.078;84;000.531;MIDI 01
123.075;000.092;72;000.492;MIDI 01
123.152;000.146;64;000.438;MIDI 01
123.353;000.055;83;000.477;MIDI 01
123.358;000.072;71;000.414;MIDI 01
123.315;000.140;60;000.406;MIDI 01
123.472;000.071;64;000.352;MIDI 01
123.573;000.084;57;000.344;MIDI 01
123.624;000.053;81;000.438;MIDI 01
123.625;000.055;69;000.406;MIDI 01
123.703;000.078;64;000.414;MIDI 01
123.865;000.056;68;000.477;MIDI 01
123.858;000.096;80;000.531;MIDI 01
123.856;000.123;52;000.422;MIDI 01
123.979;000.108;62;000.406;MIDI 01
124.154;000.045;69;000.242;MIDI 01
124.128;000.074;81;000.570;MIDI 01
124.107;000.143;59;000.453;MIDI 01
124.254;000.090;62;000.461;MIDI 01
124.384;000.074;83;000.508;MIDI 01
124.391;000.091;71;000.453;MIDI 01
124.389;000.126;52;000.406;MIDI 01
124.521;000.099;62;000.445;MIDI 01
124.656;000.047;69;000.438;MIDI 01
124.660;000.110;81;000.469;MIDI 01
124.685;000.106;53;000.375;MIDI 01
124.808;000.106;60;000.445;MIDI 01
124.922;000.093;77;000.469;MIDI 01
124.921;000.098;89;000.523;MIDI 01
124.945;000.128;57;000.438;MIDI 01
125.069;000.094;60;000.461;MIDI 01
125.201;000.069;53;000.445;MIDI 01
125.190;000.088;89;000.586;MIDI 01
125.192;000.089;77;000.516;MIDI 01
125.322;000.051;60;000.469;MIDI 01
125.447;000.080;89;000.547;MIDI 01
125.453;000.093;77;000.484;MIDI 01
125.431;000.154;50;000.430;MIDI 01
125.590;000.090;58;000.398;MIDI 01
125.717;000.062;88;000.508;MIDI 01
125.722;000.082;76;000.461;MIDI 01
125.835;000.072;58;000.445;MIDI 01
125.977;000.057;86;000.461;MIDI 01
125.981;000.087;74;000.422;MIDI 01
125.986;000.090;50;000.336;MIDI 01
125.695;000.390;53;000.430;MIDI 01
126.065;000.105;58;000.453;MIDI 01
126.228;000.085;84;000.516;MIDI 01
126.230;000.108;72;000.461;MIDI 01
126.211;000.161;52;000.383;MIDI 01
126.353;000.093;60;000.367;MIDI 01
126.492;000.090;83;000.539;MIDI 01
126.475;000.121;57;000.461;MIDI 01
126.498;000.104;71;000.484;MIDI 01
126.602;000.109;60;000.484;MIDI 01
126.753;000.092;69;000.547;MIDI 01
126.748;000.106;81;000.609;MIDI 01
126.721;000.138;52;000.469;MIDI 01
126.862;000.072;60;000.500;MIDI 01
127.005;000.089;68;000.539;MIDI 01
126.998;000.130;50;000.453;MIDI 01
127.002;000.144;80;000.586;MIDI 01
127.128;000.111;59;000.453;MIDI 01
127.266;000.074;69;000.547;MIDI 01
127.267;000.089;81;000.617;MIDI 01
127.237;000.139;52;000.500;MIDI 01
127.373;000.124;59;000.547;MIDI 01
127.515;000.095;83;000.625;MIDI 01
127.520;000.098;71;000.562;MIDI 01
127.502;000.149;50;000.477;MIDI 01
127.642;000.117;59;000.547;MIDI 01
127.771;000.047;69;000.539;MIDI 01
127.773;000.098;81;000.609;MIDI 01
127.783;000.141;48;000.555;MIDI 01
127.930;000.109;57;000.531;MIDI 01
128.039;000.086;77;000.570;MIDI 01
128.034;000.097;89;000.617;MIDI 01
128.176;000.115;57;000.562;MIDI 01
128.036;000.337;47;000.562;MIDI 01
128.285;000.115;89;000.625;MIDI 01
128.286;000.118;77;000.586;MIDI 01
128.280;000.139;48;000.555;MIDI 01
128.424;000.076;57;000.594;MIDI 01
128.555;000.090;89;000.586;MIDI 01
128.561;000.108;77;000.531;MIDI 01
128.539;000.144;50;000.539;MIDI 01
128.713;000.054;59;000.430;MIDI 01
128.670;000.103;57;000.453;MIDI 01
128.830;000.081;88;000.578;MIDI 01
128.834;000.102;76;000.531;MIDI 01
128.810;000.134;48;000.547;MIDI 01
128.952;000.103;59;000.516;MIDI 01
128.943;000.131;57;000.492;MIDI 01
129.082;000.096;86;000.594;MIDI 01
129.084;000.100;50;000.562;MIDI 01
129.080;000.119;74;000.562;MIDI 01
129.203;000.082;59;000.547;MIDI 01
129.210;000.083;57;000.398;MIDI 01
129.340;000.104;84;000.625;MIDI 01
129.326;000.129;52;000.586;MIDI 01
129.338;000.129;72;000.594;MIDI 01
129.461;000.098;60;000.523;MIDI 01
129.448;000.124;57;000.508;MIDI 01
129.600;000.111;83;000.625;MIDI 01
129.591;000.134;51;000.594;MIDI 01
129.604;000.123;71;000.586;MIDI 01
129.739;000.073;60;000.484;MIDI 01
129.731;000.097;57;000.531;MIDI 01
129.869;000.095;69;000.594;MIDI 01
129.866;000.100;81;000.648;MIDI 01
129.848;000.134;52;000.633;MIDI 01
129.992;000.085;60;000.531;MIDI 01
129.980;000.112;57;000.602;MIDI 01
130.125;000.076;68;000.602;MIDI 01
130.123;000.108;52;000.648;MIDI 01
130.119;000.153;80;000.648;MIDI 01
130.253;000.073;62;000.594;MIDI 01
130.265;000.088;59;000.555;MIDI 01
130.394;000.083;69;000.609;MIDI 01
130.392;000.114;81;000.672;MIDI 01
130.382;000.129;52;000.633;MIDI 01
130.509;000.073;60;000.547;MIDI 01
130.502;000.095;57;000.578;MIDI 01
130.654;000.086;83;000.656;MIDI 01
130.642;000.115;52;000.539;MIDI 01
130.659;000.099;71;000.594;MIDI 01
130.756;000.046;59;000.492;MIDI 01
130.776;000.080;56;000.484;MIDI 01
130.965;000.052;45;000.500;MIDI 01
130.984;000.107;81;000.523;MIDI 01
130.999;000.101;69;000.422;MIDI 01
131.152;000.077;60;000.461;MIDI 01
131.266;000.084;57;000.438;MIDI 01
131.400;000.085;60;000.445;MIDI 01
131.542;000.065;52;000.422;MIDI 01
131.557;000.108;69;000.461;MIDI 01
131.651;000.036;60;000.500;MIDI 01
131.682;000.142;81;000.438;MIDI 01
131.790;000.046;45;000.539;MIDI 01
131.802;000.099;72;000.484;MIDI 01
131.966;000.070;60;000.391;MIDI 01
132.071;000.073;57;000.422;MIDI 01
132.214;000.043;60;000.359;MIDI 01
132.320;000.060;52;000.414;MIDI 01
132.342;000.103;72;000.422;MIDI 01
132.416;000.050;60;000.469;MIDI 01
132.465;000.090;84;000.438;MIDI 01
132.560;000.046;45;000.508;MIDI 01
132.583;000.092;76;000.508;MIDI 01
132.720;000.085;60;000.469;MIDI 01
132.827;000.082;57;000.438;MIDI 01
132.970;000.062;60;000.477;MIDI 01
133.094;000.065;52;000.492;MIDI 01
133.080;000.136;76;000.484;MIDI 01
133.196;000.041;60;000.523;MIDI 01
133.198;000.044;88;000.555;MIDI 01
133.327;000.041;45;000.547;MIDI 01
133.364;000.092;72;000.539;MIDI 01
133.472;000.107;60;000.508;MIDI 01
133.601;000.100;57;000.445;MIDI 01
133.746;000.057;60;000.500;MIDI 01
133.852;000.088;52;000.508;MIDI 01
133.841;000.126;72;000.516;MIDI 01
133.948;000.036;60;000.555;MIDI 01
133.961;000.031;84;000.508;MIDI 01
134.086;000.028;40;000.594;MIDI 01
134.156;000.054;41;000.203;MIDI 01
134.252;000.100;60;000.539;MIDI 01
134.391;000.107;57;000.398;MIDI 01
134.507;000.075;60;000.523;MIDI 01
134.637;000.067;52;000.430;MIDI 01
134.731;000.031;60;000.570;MIDI 01
134.100;000.706;69;000.555;MIDI 01
134.880;000.002;40;000.383;MIDI 01
134.866;000.037;41;000.523;MIDI 01
134.365;000.709;81;000.578;MIDI 01
135.006;000.092;62;000.562;MIDI 01
135.133;000.058;71;000.570;MIDI 01
135.124;000.070;83;000.594;MIDI 01
135.126;000.180;59;000.539;MIDI 01
135.251;000.076;62;000.531;MIDI 01
135.367;000.111;52;000.562;MIDI 01
135.383;000.097;68;000.602;MIDI 01
135.474;000.049;62;000.617;MIDI 01
135.378;000.162;80;000.625;MIDI 01
135.622;000.062;45;000.562;MIDI 01
135.659;000.105;69;000.547;MIDI 01
135.656;000.110;81;000.609;MIDI 01
135.797;000.095;60;000.523;MIDI 01
135.923;000.079;57;000.484;MIDI 01
136.065;000.072;69;000.398;MIDI 01
136.074;000.067;60;000.414;MIDI 01
136.190;000.058;52;000.391;MIDI 01
136.185;000.096;81;000.445;MIDI 01
136.311;000.033;60;000.414;MIDI 01
136.302;000.103;69;000.461;MIDI 01
136.436;000.049;45;000.531;MIDI 01
136.443;000.075;72;000.438;MIDI 01
136.614;000.072;60;000.453;MIDI 01
136.708;000.108;57;000.422;MIDI 01
136.861;000.060;60;000.383;MIDI 01
136.864;000.069;72;000.477;MIDI 01
136.975;000.073;52;000.430;MIDI 01
137.088;000.044;60;000.484;MIDI 01
136.992;000.148;84;000.469;MIDI 01
137.091;000.131;72;000.508;MIDI 01
137.218;000.043;45;000.547;MIDI 01
137.222;000.115;76;000.531;MIDI 01
137.384;000.084;60;000.516;MIDI 01
137.492;000.102;57;000.422;MIDI 01
137.633;000.069;60;000.461;MIDI 01
137.646;000.062;76;000.469;MIDI 01
137.758;000.055;88;000.523;MIDI 01
137.755;000.067;52;000.438;MIDI 01
137.856;000.038;60;000.484;MIDI 01
137.858;000.132;76;000.531;MIDI 01
137.992;000.034;45;000.492;MIDI 01
138.014;000.101;72;000.500;MIDI 01
138.148;000.100;60;000.477;MIDI 01
138.267;000.096;57;000.414;MIDI 01
138.411;000.049;60;000.453;MIDI 01
138.391;000.075;72;000.461;MIDI 01
138.511;000.062;84;000.500;MIDI 01
138.519;000.066;52;000.438;MIDI 01
138.610;000.041;60;000.516;MIDI 01
138.620;000.119;72;000.516;MIDI 01
138.758;000.031;40;000.516;MIDI 01
138.780;000.035;41;000.422;MIDI 01
138.908;000.094;60;000.508;MIDI 01
139.028;000.123;57;000.508;MIDI 01
139.169;000.070;60;000.484;MIDI 01
139.293;000.082;52;000.477;MIDI 01
139.405;000.038;60;000.508;MIDI 01
138.762;000.763;69;000.539;MIDI 01
139.530;000.029;40;000.609;MIDI 01
139.600;000.002;41;000.141;MIDI 01
139.035;000.700;81;000.625;MIDI 01
139.689;000.093;62;000.539;MIDI 01
139.801;000.072;83;000.633;MIDI 01
139.810;000.076;71;000.594;MIDI 01
139.786;000.225;59;000.508;MIDI 01
139.938;000.083;62;000.578;MIDI 01
140.064;000.151;52;000.516;MIDI 01
140.104;000.113;68;000.562;MIDI 01
140.190;000.046;62;000.547;MIDI 01
140.094;000.166;80;000.617;MIDI 01
140.381;000.066;45;000.477;MIDI 01
140.399;000.088;69;000.508;MIDI 01
140.402;000.126;81;000.531;MIDI 01
140.542;000.086;57;000.438;MIDI 01
140.653;000.090;56;000.453;MIDI 01
140.676;000.082;71;000.445;MIDI 01
140.795;000.122;57;000.477;MIDI 01
140.670;000.281;83;000.492;MIDI 01
140.947;000.116;73;000.508;MIDI 01
140.933;000.130;55;000.469;MIDI 01
140.955;000.195;85;000.547;MIDI 01
141.068;000.115;57;000.516;MIDI 01
141.208;000.097;86;000.547;MIDI 01
141.205;000.118;53;000.477;MIDI 01
141.216;000.109;74;000.508;MIDI 01
141.335;000.112;57;000.516;MIDI 01
141.459;000.117;52;000.453;MIDI 01
141.472;000.107;84;000.594;MIDI 01
141.474;000.126;72;000.531;MIDI 01
141.586;000.097;57;000.516;MIDI 01
141.706;000.107;51;000.508;MIDI 01
141.743;000.088;71;000.523;MIDI 01
141.742;000.128;83;000.578;MIDI 01
141.838;000.051;57;000.531;MIDI 01
142.006;000.079;84;000.531;MIDI 01
142.018;000.083;72;000.469;MIDI 01
141.970;000.259;52;000.445;MIDI 01
142.114;000.177;57;000.391;MIDI 01
142.273;000.099;68;000.508;MIDI 01
142.241;000.148;59;000.508;MIDI 01
142.267;000.148;80;000.555;MIDI 01
142.379;000.130;52;000.492;MIDI 01
142.495;000.119;60;000.523;MIDI 01
142.521;000.104;69;000.531;MIDI 01
142.517;000.135;81;000.602;MIDI 01
142.642;000.100;52;000.539;MIDI 01
142.755;000.089;62;000.555;MIDI 01
142.786;000.066;83;000.570;MIDI 01
142.793;000.071;71;000.516;MIDI 01
142.891;000.079;52;000.531;MIDI 01
143.036;000.051;66;000.523;MIDI 01
143.001;000.091;60;000.539;MIDI 01
143.043;000.123;78;000.484;MIDI 01
143.125;000.072;52;000.523;MIDI 01
143.241;000.107;59;000.570;MIDI 01
143.290;000.068;68;000.438;MIDI 01
143.286;000.130;80;000.516;MIDI 01
143.374;000.105;52;000.469;MIDI 01
143.490;000.069;45;000.500;MIDI 01
143.536;000.068;69;000.469;MIDI 01
143.630;000.072;57;000.461;MIDI 01
143.661;000.099;81;000.531;MIDI 01
143.756;000.086;56;000.508;MIDI 01
143.795;000.062;71;000.508;MIDI 01
143.873;000.116;57;000.531;MIDI 01
143.917;000.095;83;000.461;MIDI 01
143.923;000.094;81;000.438;MIDI 01
144.011;000.083;73;000.617;MIDI 01
144.003;000.111;55;000.570;MIDI 01
144.127;000.126;57;000.578;MIDI 01
144.316;000.076;69;000.578;MIDI 01
144.310;000.088;45;000.602;MIDI 01
144.441;000.134;57;000.539;MIDI 01
144.445;000.140;81;000.469;MIDI 01
144.575;000.082;56;000.586;MIDI 01
144.609;000.074;71;000.586;MIDI 01
144.709;000.068;57;000.508;MIDI 01
144.728;000.144;81;000.602;MIDI 01
144.823;000.059;45;000.602;MIDI 01
144.879;000.102;73;000.586;MIDI 01
144.921;000.167;57;000.531;MIDI 01
145.043;000.053;81;000.398;MIDI 01
145.184;000.073;45;000.609;MIDI 01
145.186;000.075;69;000.586;MIDI 01
145.325;000.104;81;000.516;MIDI 01
145.323;000.119;57;000.500;MIDI 01
145.464;000.066;71;000.555;MIDI 01
145.460;000.096;56;000.555;MIDI 01
145.616;000.041;83;000.336;MIDI 01
145.618;000.051;81;000.328;MIDI 01
145.604;000.089;57;000.508;MIDI 01
145.760;000.076;45;000.555;MIDI 01
145.773;000.072;69;000.562;MIDI 01
145.933;000.029;83;000.383;MIDI 01
145.884;000.125;57;000.508;MIDI 01
146.047;000.045;71;000.500;MIDI 01
146.027;000.090;56;000.555;MIDI 01
146.139;000.068;83;000.375;MIDI 01
146.162;000.111;57;000.547;MIDI 01
146.280;000.094;55;000.570;MIDI 01
146.274;000.115;73;000.594;MIDI 01
146.389;000.129;85;000.492;MIDI 01
146.410;000.122;57;000.570;MIDI 01
146.522;000.101;74;000.586;MIDI 01
146.543;000.116;53;000.555;MIDI 01
146.651;000.061;86;000.547;MIDI 01
146.672;000.111;57;000.570;MIDI 01
146.782;000.111;52;000.570;MIDI 01
146.795;000.111;72;000.570;MIDI 01
146.905;000.077;84;000.594;MIDI 01
146.911;000.074;57;000.578;MIDI 01
147.058;000.080;71;000.578;MIDI 01
147.026;000.115;51;000.555;MIDI 01
147.132;000.075;57;000.562;MIDI 01
147.196;000.058;84;000.523;MIDI 01
147.199;000.060;83;000.422;MIDI 01
147.303;000.075;72;000.625;MIDI 01
147.272;000.147;52;000.570;MIDI 01
147.419;000.036;84;000.531;MIDI 01
147.523;000.078;65;000.594;MIDI 01
147.554;000.130;68;000.570;MIDI 01
147.378;000.371;57;000.492;MIDI 01
147.666;000.108;52;000.555;MIDI 01
147.680;000.107;80;000.500;MIDI 01
147.782;000.123;64;000.617;MIDI 01
147.816;000.092;69;000.586;MIDI 01
147.940;000.097;81;000.602;MIDI 01
147.922;000.137;52;000.641;MIDI 01
148.064;000.078;71;000.633;MIDI 01
148.052;000.102;62;000.609;MIDI 01
148.189;000.036;83;000.570;MIDI 01
148.175;000.073;52;000.547;MIDI 01
148.355;000.002;59;000.195;MIDI 01
148.292;000.078;60;000.570;MIDI 01
148.331;000.087;66;000.594;MIDI 01
148.422;000.102;52;000.586;MIDI 01
148.455;000.122;78;000.539;MIDI 01
148.547;000.073;59;000.516;MIDI 01
148.566;000.093;68;000.609;MIDI 01
148.627;000.049;57;000.023;MIDI 01
148.699;000.102;80;000.586;MIDI 01
148.672;000.148;52;000.555;MIDI 01
148.820;000.092;45;000.617;MIDI 01
148.842;000.096;69;000.602;MIDI 01
148.958;000.027;81;000.602;MIDI 01
148.976;000.115;57;000.547;MIDI 01
149.111;000.056;68;000.531;MIDI 01
149.122;000.076;56;000.547;MIDI 01
149.238;000.075;69;000.531;MIDI 01
149.235;000.082;57;000.555;MIDI 01
149.357;000.085;81;000.602;MIDI 01
149.365;000.087;45;000.609;MIDI 01
149.505;000.123;57;000.539;MIDI 01
149.496;000.137;69;000.562;MIDI 01
149.633;000.099;68;000.641;MIDI 01
149.631;000.107;56;000.617;MIDI 01
149.765;000.086;57;000.633;MIDI 01
149.767;000.086;69;000.625;MIDI 01
149.906;000.056;43;000.523;MIDI 01
149.922;000.050;45;000.508;MIDI 01
149.898;000.076;81;000.641;MIDI 01
150.026;000.109;57;000.555;MIDI 01
150.021;000.133;69;000.539;MIDI 01
150.146;000.107;56;000.578;MIDI 01
150.160;000.108;68;000.602;MIDI 01
150.278;000.085;57;000.578;MIDI 01
150.292;000.086;69;000.641;MIDI 01
150.402;000.091;45;000.656;MIDI 01
150.421;000.082;81;000.688;MIDI 01
150.550;000.123;57;000.578;MIDI 01
150.545;000.133;69;000.586;MIDI 01
150.683;000.092;56;000.586;MIDI 01
150.696;000.088;68;000.555;MIDI 01
150.815;000.084;57;000.594;MIDI 01
150.817;000.089;69;000.617;MIDI 01
150.941;000.076;45;000.633;MIDI 01
150.947;000.079;81;000.633;MIDI 01
151.078;000.125;57;000.570;MIDI 01
151.073;000.144;69;000.586;MIDI 01
151.203;000.120;56;000.641;MIDI 01
151.210;000.116;68;000.656;MIDI 01
151.336;000.090;57;000.648;MIDI 01
151.347;000.083;69;000.625;MIDI 01
151.486;000.029;43;000.539;MIDI 01
151.472;000.061;81;000.648;MIDI 01
151.481;000.072;45;000.508;MIDI 01
151.597;000.086;57;000.578;MIDI 01
151.586;000.132;69;000.562;MIDI 01
151.747;000.090;56;000.492;MIDI 01
151.757;000.126;68;000.461;MIDI 01
151.846;000.042;57;000.484;MIDI 01
151.912;000.152;69;000.461;MIDI 01
152.097;000.045;63;000.273;MIDI 01
152.135;000.078;70;000.336;MIDI 01
152.429;000.069;70;000.344;MIDI 01
152.549;000.079;69;000.375;MIDI 01
152.688;000.079;70;000.336;MIDI 01
152.819;000.065;69;000.375;MIDI 01
152.148;000.737;67;000.281;MIDI 01
152.142;000.759;61;000.336;MIDI 01
152.165;000.775;64;000.328;MIDI 01
152.948;000.071;70;000.344;MIDI 01
153.090;000.057;69;000.328;MIDI 01
153.205;000.074;70;000.328;MIDI 01
153.330;000.082;69;000.320;MIDI 01
153.473;000.076;70;000.305;MIDI 01
153.604;000.084;69;000.344;MIDI 01
153.742;000.094;70;000.359;MIDI 01
153.879;000.078;69;000.359;MIDI 01
154.008;000.074;70;000.430;MIDI 01
154.125;000.075;69;000.438;MIDI 01
154.252;000.107;73;000.414;MIDI 01
154.377;000.098;69;000.461;MIDI 01
154.521;000.140;74;000.406;MIDI 01
154.651;000.098;69;000.422;MIDI 01
154.815;000.118;76;000.359;MIDI 01
154.936;000.164;69;000.406;MIDI 01
155.100;000.164;77;000.359;MIDI 01
155.244;000.193;76;000.297;MIDI 01
155.442;000.122;75;000.305;MIDI 01
155.421;000.610;66;000.289;MIDI 01
155.595;000.447;69;000.344;MIDI 01
155.855;000.190;75;000.367;MIDI 01
155.753;000.317;72;000.227;MIDI 01
156.008;000.122;81;000.359;MIDI 01
156.134;000.177;82;000.391;MIDI 01
156.277;000.176;84;000.398;MIDI 01
156.285;000.544;66;000.312;MIDI 01
156.586;000.253;72;000.219;MIDI 01
156.465;000.402;69;000.320;MIDI 01
156.713;000.200;75;000.305;MIDI 01
156.866;000.085;81;000.266;MIDI 01
156.980;000.221;82;000.344;MIDI 01
157.132;000.182;84;000.297;MIDI 01
157.126;000.499;66;000.312;MIDI 01
157.277;000.405;69;000.297;MIDI 01
157.430;000.266;72;000.258;MIDI 01
157.702;000.182;81;000.250;MIDI 01
157.834;000.123;82;000.367;MIDI 01
157.982;000.081;84;000.312;MIDI 01
157.585;000.535;75;000.203;MIDI 01
158.229;000.045;72;000.367;MIDI 01
158.094;000.202;69;000.312;MIDI 01
157.966;000.351;66;000.305;MIDI 01
158.535;000.167;84;000.484;MIDI 01
158.659;000.200;81;000.523;MIDI 01
158.809;000.084;82;000.625;MIDI 01
158.380;000.530;74;000.453;MIDI 01
158.785;000.348;31;000.633;MIDI 01
158.948;000.206;34;000.578;MIDI 01
159.084;000.118;38;000.555;MIDI 01
159.198;000.059;43;000.562;MIDI 01
159.229;000.106;46;000.586;MIDI 01
159.347;000.130;50;000.539;MIDI 01
159.453;000.169;55;000.578;MIDI 01
159.600;000.115;58;000.641;MIDI 01
159.605;000.323;43;000.617;MIDI 01
159.745;000.195;46;000.602;MIDI 01
159.863;000.118;50;000.570;MIDI 01
159.985;000.060;55;000.586;MIDI 01
160.004;000.114;58;000.625;MIDI 01
160.121;000.151;62;000.609;MIDI 01
160.232;000.167;67;000.586;MIDI 01
160.384;000.092;70;000.641;MIDI 01
160.396;000.099;53;000.508;MIDI 01
160.390;000.293;55;000.453;MIDI 01
160.506;000.210;58;000.586;MIDI 01
160.614;000.141;62;000.562;MIDI 01
160.739;000.079;67;000.602;MIDI 01
160.766;000.120;70;000.625;MIDI 01
160.885;000.220;74;000.625;MIDI 01
160.996;000.150;79;000.609;MIDI 01
161.142;000.102;82;000.633;MIDI 01
161.130;000.237;67;000.539;MIDI 01
161.293;000.133;70;000.500;MIDI 01
161.422;000.142;74;000.516;MIDI 01
161.568;000.139;72;000.531;MIDI 01
161.542;000.210;77;000.523;MIDI 01
161.706;000.118;71;000.508;MIDI 01
161.689;000.217;83;000.484;MIDI 01
161.841;000.101;69;000.516;MIDI 01
161.834;000.154;85;000.531;MIDI 01
161.994;000.118;86;000.445;MIDI 01
161.985;000.552;68;000.438;MIDI 01
162.164;000.426;71;000.398;MIDI 01
162.284;000.315;74;000.414;MIDI 01
162.690;000.146;84;000.406;MIDI 01
162.555;000.285;83;000.367;MIDI 01
162.406;000.525;77;000.414;MIDI 01
162.834;000.150;86;000.383;MIDI 01
162.841;000.514;68;000.359;MIDI 01
163.122;000.257;74;000.328;MIDI 01
162.974;000.504;71;000.297;MIDI 01
163.391;000.259;83;000.336;MIDI 01
163.514;000.141;84;000.391;MIDI 01
163.255;000.465;77;000.359;MIDI 01
163.654;000.156;86;000.375;MIDI 01
163.643;000.556;68;000.281;MIDI 01
163.934;000.272;74;000.336;MIDI 01
163.808;000.416;71;000.266;MIDI 01
164.341;000.110;84;000.383;MIDI 01
164.193;000.264;83;000.383;MIDI 01
164.104;000.435;77;000.281;MIDI 01
164.463;000.184;86;000.391;MIDI 01
164.707;000.060;74;000.422;MIDI 01
164.569;000.208;71;000.273;MIDI 01
164.456;000.406;68;000.281;MIDI 01
164.993;000.171;86;000.422;MIDI 01
165.105;000.195;83;000.508;MIDI 01
165.248;000.095;84;000.609;MIDI 01
164.863;000.514;76;000.398;MIDI 01
165.380;000.227;36;000.562;MIDI 01
165.254;000.367;33;000.578;MIDI 01
165.503;000.161;40;000.594;MIDI 01
165.649;000.059;45;000.617;MIDI 01
165.708;000.145;48;000.594;MIDI 01
165.820;000.145;52;000.602;MIDI 01
165.941;000.144;57;000.625;MIDI 01
166.076;000.109;60;000.617;MIDI 01
166.217;000.182;48;000.594;MIDI 01
166.084;000.323;45;000.625;MIDI 01
166.328;000.142;52;000.578;MIDI 01
166.465;000.043;57;000.594;MIDI 01
166.482;000.148;60;000.602;MIDI 01
166.597;000.155;64;000.641;MIDI 01
166.710;000.157;69;000.625;MIDI 01
166.835;000.080;72;000.609;MIDI 01
167.197;000.037;69;000.594;MIDI 01
167.080;000.175;64;000.531;MIDI 01
166.856;000.439;57;000.594;MIDI 01
166.972;000.349;60;000.594;MIDI 01
167.234;000.164;72;000.617;MIDI 01
167.347;000.136;76;000.625;MIDI 01
167.453;000.178;81;000.609;MIDI 01
167.586;000.103;84;000.656;MIDI 01
167.679;000.151;45;000.547;MIDI 01
167.831;000.125;46;000.547;MIDI 01
167.956;000.155;43;000.562;MIDI 01
168.076;000.145;52;000.570;MIDI 01
168.195;000.175;50;000.625;MIDI 01
168.338;000.141;49;000.625;MIDI 01
168.495;000.157;58;000.531;MIDI 01
168.620;000.246;64;000.500;MIDI 01
168.751;000.150;67;000.523;MIDI 01
168.887;000.084;70;000.562;MIDI 01
168.882;000.135;55;000.570;MIDI 01
168.762;000.281;49;000.508;MIDI 01
168.995;000.159;53;000.633;MIDI 01
169.118;000.124;52;000.656;MIDI 01
169.292;000.135;61;000.578;MIDI 01
169.408;000.226;67;000.539;MIDI 01
169.522;000.144;70;000.578;MIDI 01
169.648;000.076;73;000.547;MIDI 01
169.671;000.128;58;000.539;MIDI 01
169.520;000.386;52;000.484;MIDI 01
169.768;000.173;57;000.625;MIDI 01
169.903;000.086;55;000.641;MIDI 01
170.041;000.154;70;000.508;MIDI 01
170.153;000.224;73;000.586;MIDI 01
170.280;000.125;76;000.570;MIDI 01
170.397;000.062;79;000.562;MIDI 01
170.404;000.141;64;000.633;MIDI 01
170.260;000.330;55;000.586;MIDI 01
170.520;000.172;62;000.656;MIDI 01
170.637;000.090;61;000.695;MIDI 01
170.779;000.300;76;000.594;MIDI 01
170.907;000.192;82;000.594;MIDI 01
171.045;000.081;81;000.609;MIDI 01
171.049;000.137;41;000.562;MIDI 01
171.173;000.151;45;000.625;MIDI 01
171.300;000.146;43;000.625;MIDI 01
171.442;000.158;41;000.656;MIDI 01
171.611;000.190;62;000.562;MIDI 01
171.742;000.197;65;000.562;MIDI 01
171.838;000.107;41;000.562;MIDI 01
171.856;000.145;69;000.594;MIDI 01
171.981;000.101;74;000.586;MIDI 01
171.985;000.123;53;000.609;MIDI 01
172.105;000.153;52;000.664;MIDI 01
172.230;000.124;50;000.672;MIDI 01
172.386;000.178;65;000.578;MIDI 01
172.500;000.180;69;000.602;MIDI 01
172.620;000.155;74;000.602;MIDI 01
172.752;000.080;77;000.555;MIDI 01
172.635;000.241;50;000.547;MIDI 01
172.757;000.131;57;000.656;MIDI 01
172.874;000.160;55;000.688;MIDI 01
173.000;000.104;53;000.664;MIDI 01
173.165;000.175;69;000.570;MIDI 01
173.273;000.190;74;000.594;MIDI 01
173.373;000.114;53;000.547;MIDI 01
173.389;000.141;77;000.617;MIDI 01
173.500;000.107;81;000.602;MIDI 01
173.523;000.131;65;000.648;MIDI 01
173.645;000.178;64;000.656;MIDI 01
173.775;000.104;62;000.672;MIDI 01
173.904;000.178;65;000.656;MIDI 01
174.042;000.110;68;000.656;MIDI 01
174.174;000.205;80;000.609;MIDI 01
174.296;000.186;74;000.633;MIDI 01
174.426;000.177;75;000.672;MIDI 01
174.556;000.127;77;000.695;MIDI 01
174.678;000.301;38;000.594;MIDI 01
174.801;000.202;41;000.570;MIDI 01
174.930;000.150;44;000.633;MIDI 01
175.089;000.072;47;000.570;MIDI 01
175.103;000.167;71;000.625;MIDI 01
174.978;000.320;77;000.609;MIDI 01
175.221;000.178;72;000.672;MIDI 01
175.353;000.106;74;000.672;MIDI 01
175.476;000.289;41;000.586;MIDI 01
175.582;000.204;44;000.625;MIDI 01
175.714;000.113;47;000.578;MIDI 01
175.849;000.066;50;000.547;MIDI 01
175.754;000.329;74;000.641;MIDI 01
175.873;000.246;65;000.586;MIDI 01
175.986;000.218;67;000.641;MIDI 01
176.120;000.121;68;000.641;MIDI 01
176.228;000.290;47;000.508;MIDI 01
176.329;000.211;50;000.547;MIDI 01
176.454;000.141;53;000.578;MIDI 01
176.601;000.082;56;000.555;MIDI 01
176.540;000.267;68;000.578;MIDI 01
176.642;000.230;62;000.570;MIDI 01
176.756;000.168;63;000.609;MIDI 01
176.866;000.088;65;000.609;MIDI 01
176.986;000.085;56;000.562;MIDI 01
177.090;000.118;55;000.578;MIDI 01
177.206;000.140;53;000.531;MIDI 01
177.333;000.141;51;000.578;MIDI 01
177.275;000.222;79;000.617;MIDI 01
177.469;000.073;50;000.562;MIDI 01
177.384;000.195;72;000.617;MIDI 01
177.511;000.170;74;000.625;MIDI 01
177.640;000.104;75;000.648;MIDI 01
177.629;000.145;48;000.508;MIDI 01
177.781;000.142;40;000.531;MIDI 01
177.919;000.129;43;000.531;MIDI 01
178.052;000.104;48;000.539;MIDI 01
178.066;000.166;75;000.477;MIDI 01
178.139;000.227;67;000.602;MIDI 01
178.275;000.175;71;000.586;MIDI 01
178.400;000.106;72;000.602;MIDI 01
178.520;000.302;43;000.555;MIDI 01
178.633;000.222;48;000.562;MIDI 01
178.787;000.125;51;000.562;MIDI 01
178.906;000.190;63;000.562;MIDI 01
178.781;000.399;72;000.594;MIDI 01
179.022;000.183;65;000.562;MIDI 01
179.151;000.104;67;000.594;MIDI 01
179.498;000.100;55;000.555;MIDI 01
179.392;000.248;51;000.562;MIDI 01
179.250;000.399;48;000.523;MIDI 01
179.509;000.204;67;000.555;MIDI 01
179.622;000.135;60;000.531;MIDI 01
179.744;000.149;62;000.547;MIDI 01
179.872;000.167;63;000.531;MIDI 01
180.005;000.150;60;000.508;MIDI 01
180.129;000.156;55;000.453;MIDI 01
180.253;000.060;36;000.484;MIDI 01
180.359;000.114;48;000.531;MIDI 01
180.477;000.171;46;000.539;MIDI 01
180.607;000.167;45;000.562;MIDI 01
180.774;000.209;54;000.523;MIDI 01
180.886;000.230;60;000.523;MIDI 01
181.010;000.154;63;000.555;MIDI 01
181.144;000.074;66;000.570;MIDI 01
181.159;000.131;51;000.586;MIDI 01
181.029;000.351;45;000.461;MIDI 01
181.274;000.190;49;000.625;MIDI 01
181.398;000.107;48;000.633;MIDI 01
181.530;000.194;57;000.531;MIDI 01
181.652;000.214;63;000.562;MIDI 01
181.756;000.146;66;000.570;MIDI 01
181.878;000.060;69;000.562;MIDI 01
181.902;000.117;54;000.617;MIDI 01
181.784;000.259;48;000.555;MIDI 01
182.004;000.176;53;000.602;MIDI 01
182.135;000.113;51;000.672;MIDI 01
182.273;000.172;66;000.594;MIDI 01
182.399;000.202;69;000.586;MIDI 01
182.515;000.122;72;000.555;MIDI 01
182.633;000.042;75;000.531;MIDI 01
182.523;000.248;51;000.594;MIDI 01
182.642;000.135;60;000.602;MIDI 01
182.750;000.148;58;000.648;MIDI 01
182.865;000.104;57;000.656;MIDI 01
183.007;000.267;72;000.602;MIDI 01
183.147;000.170;78;000.586;MIDI 01
183.280;000.061;77;000.578;MIDI 01
183.274;000.103;37;000.570;MIDI 01
183.393;000.192;49;000.570;MIDI 01
183.515;000.138;48;000.531;MIDI 01
183.620;000.145;46;000.664;MIDI 01
183.759;000.180;61;000.594;MIDI 01
183.873;000.178;65;000.578;MIDI 01
183.996;000.133;70;000.594;MIDI 01
184.121;000.059;73;000.578;MIDI 01
184.032;000.192;46;000.602;MIDI 01
184.158;000.128;53;000.617;MIDI 01
184.266;000.151;51;000.664;MIDI 01
184.394;000.132;49;000.680;MIDI 01
184.541;000.178;65;000.570;MIDI 01
184.655;000.191;70;000.633;MIDI 01
184.772;000.105;73;000.594;MIDI 01
184.794;000.099;49;000.594;MIDI 01
184.853;000.069;77;000.570;MIDI 01
184.899;000.114;61;000.641;MIDI 01
185.010;000.162;60;000.625;MIDI 01
185.136;000.147;58;000.695;MIDI 01
185.293;000.209;70;000.625;MIDI 01
185.402;000.203;73;000.602;MIDI 01
185.499;000.151;77;000.625;MIDI 01
185.646;000.071;82;000.602;MIDI 01
185.551;000.222;58;000.609;MIDI 01
185.660;000.140;65;000.641;MIDI 01
185.773;000.143;63;000.656;MIDI 01
186.160;000.109;70;000.664;MIDI 01
186.029;000.279;65;000.570;MIDI 01
185.901;000.447;61;000.672;MIDI 01
186.472;000.150;82;000.680;MIDI 01
186.316;000.328;89;000.664;MIDI 01
186.593;000.185;84;000.672;MIDI 01
186.730;000.127;85;000.711;MIDI 01
186.865;000.237;39;000.641;MIDI 01
187.003;000.173;42;000.656;MIDI 01
187.140;000.075;46;000.617;MIDI 01
187.261;000.152;78;000.656;MIDI 01
187.150;000.282;85;000.664;MIDI 01
187.374;000.189;80;000.664;MIDI 01
187.503;000.110;82;000.656;MIDI 01
187.622;000.244;42;000.602;MIDI 01
187.772;000.159;46;000.609;MIDI 01
187.918;000.098;51;000.570;MIDI 01
187.907;000.243;82;000.633;MIDI 01
188.022;000.196;73;000.625;MIDI 01
188.140;000.174;77;000.633;MIDI 01
188.277;000.103;78;000.648;MIDI 01
188.407;000.214;46;000.562;MIDI 01
188.536;000.165;51;000.586;MIDI 01
188.693;000.060;54;000.492;MIDI 01
188.804;000.134;70;000.625;MIDI 01
188.690;000.261;78;000.578;MIDI 01
188.914;000.180;72;000.625;MIDI 01
189.041;000.090;73;000.664;MIDI 01
189.156;000.232;51;000.609;MIDI 01
189.421;000.053;58;000.625;MIDI 01
189.293;000.192;54;000.602;MIDI 01
189.575;000.146;82;000.656;MIDI 01
189.447;000.276;89;000.664;MIDI 01
189.690;000.164;84;000.648;MIDI 01
189.821;000.122;85;000.742;MIDI 01
189.949;000.217;41;000.594;MIDI 01
190.073;000.180;46;000.602;MIDI 01
190.215;000.068;49;000.555;MIDI 01
190.217;000.201;85;000.648;MIDI 01
190.320;000.196;77;000.586;MIDI 01
190.435;000.201;81;000.648;MIDI 01
190.573;000.116;82;000.672;MIDI 01
190.671;000.238;46;000.570;MIDI 01
190.800;000.164;49;000.602;MIDI 01
190.944;000.077;53;000.539;MIDI 01
190.958;000.290;82;000.594;MIDI 01
191.079;000.177;73;000.586;MIDI 01
191.175;000.183;75;000.602;MIDI 01
191.306;000.114;77;000.609;MIDI 01
191.428;000.219;49;000.523;MIDI 01
191.537;000.169;53;000.508;MIDI 01
191.722;000.077;58;000.445;MIDI 01
191.817;000.114;70;000.555;MIDI 01
191.672;000.326;77;000.586;MIDI 01
191.926;000.186;72;000.578;MIDI 01
192.052;000.098;73;000.625;MIDI 01
192.183;000.290;53;000.430;MIDI 01
192.446;000.040;61;000.438;MIDI 01
192.321;000.181;58;000.492;MIDI 01
192.448;000.323;85;000.500;MIDI 01
192.570;000.204;82;000.547;MIDI 01
192.680;000.162;84;000.625;MIDI 01
192.789;000.128;85;000.273;MIDI 01
192.922;000.231;42;000.555;MIDI 01
193.056;000.143;46;000.547;MIDI 01
193.185;000.045;49;000.531;MIDI 01
193.180;000.154;73;000.539;MIDI 01
193.292;000.201;70;000.617;MIDI 01
193.390;000.168;72;000.633;MIDI 01
193.512;000.092;73;000.703;MIDI 01
193.655;000.231;54;000.594;MIDI 01
193.795;000.160;58;000.609;MIDI 01
193.912;000.049;61;000.578;MIDI 01
193.935;000.229;85;000.641;MIDI 01
194.054;000.181;82;000.680;MIDI 01
194.169;000.155;84;000.648;MIDI 01
194.286;000.108;85;000.578;MIDI 01
194.417;000.189;43;000.609;MIDI 01
194.550;000.133;46;000.594;MIDI 01
194.675;000.036;51;000.586;MIDI 01
194.683;000.192;73;000.617;MIDI 01
194.810;000.184;70;000.695;MIDI 01
194.916;000.147;72;000.633;MIDI 01
195.030;000.080;73;000.688;MIDI 01
195.146;000.261;55;000.602;MIDI 01
195.290;000.157;58;000.578;MIDI 01
195.403;000.046;63;000.570;MIDI 01
195.428;000.201;84;000.664;MIDI 01
195.554;000.184;80;000.688;MIDI 01
195.673;000.161;82;000.695;MIDI 01
195.790;000.099;84;000.680;MIDI 01
195.934;000.179;44;000.625;MIDI 01
196.040;000.126;48;000.586;MIDI 01
196.160;000.049;51;000.586;MIDI 01
196.172;000.192;72;000.633;MIDI 01
196.301;000.228;68;000.688;MIDI 01
196.422;000.165;70;000.680;MIDI 01
196.537;000.080;72;000.656;MIDI 01
196.647;000.213;56;000.633;MIDI 01
196.776;000.129;60;000.586;MIDI 01
196.901;000.040;63;000.555;MIDI 01
196.945;000.166;87;000.656;MIDI 01
197.059;000.173;84;000.672;MIDI 01
197.188;000.160;85;000.719;MIDI 01
197.311;000.088;87;000.750;MIDI 01
197.418;000.210;45;000.617;MIDI 01
197.543;000.140;48;000.641;MIDI 01
197.679;000.065;53;000.562;MIDI 01
197.702;000.179;75;000.648;MIDI 01
197.831;000.185;72;000.688;MIDI 01
197.968;000.250;73;000.695;MIDI 01
198.122;000.151;75;000.703;MIDI 01
198.250;000.297;57;000.531;MIDI 01
198.454;000.158;60;000.438;MIDI 01
198.967;000.182;73;000.336;MIDI 01
199.115;000.135;72;000.328;MIDI 01
198.822;000.485;65;000.281;MIDI 01
199.259;000.108;70;000.359;MIDI 01
199.270;000.108;46;000.172;MIDI 01
199.591;000.069;58;000.406;MIDI 01
199.719;000.056;61;000.250;MIDI 01
199.446;000.622;53;000.289;MIDI 01
199.828;000.246;73;000.367;MIDI 01
199.950;000.188;72;000.367;MIDI 01
199.695;000.516;65;000.312;MIDI 01
200.122;000.097;46;000.258;MIDI 01
200.118;000.154;70;000.344;MIDI 01
200.420;000.040;58;000.336;MIDI 01
200.507;000.051;61;000.352;MIDI 01
200.645;000.126;73;000.375;MIDI 01
200.265;000.604;53;000.273;MIDI 01
200.762;000.153;72;000.391;MIDI 01
200.509;000.420;65;000.359;MIDI 01
200.902;000.083;46;000.352;MIDI 01
200.920;000.152;70;000.375;MIDI 01
201.175;000.075;58;000.422;MIDI 01
201.271;000.041;61;000.344;MIDI 01
201.040;000.332;53;000.250;MIDI 01
201.423;000.166;73;000.398;MIDI 01
201.535;000.149;70;000.422;MIDI 01
201.702;000.056;41;000.367;MIDI 01
201.704;000.110;72;000.367;MIDI 01
201.292;000.527;65;000.391;MIDI 01
202.001;000.106;57;000.391;MIDI 01
202.111;000.039;60;000.398;MIDI 01
201.853;000.646;53;000.383;MIDI 01
202.265;000.258;75;000.492;MIDI 01
202.134;000.417;65;000.414;MIDI 01
202.385;000.216;73;000.500;MIDI 01
202.551;000.079;41;000.438;MIDI 01
202.549;000.134;72;000.422;MIDI 01
202.833;000.124;57;000.484;MIDI 01
202.950;000.040;60;000.422;MIDI 01
202.691;000.587;53;000.391;MIDI 01
202.957;000.367;65;000.438;MIDI 01
203.088;000.249;75;000.516;MIDI 01
203.219;000.186;73;000.492;MIDI 01
203.371;000.069;41;000.508;MIDI 01
203.368;000.124;72;000.516;MIDI 01
203.637;000.109;57;000.469;MIDI 01
203.764;000.031;60;000.391;MIDI 01
203.496;000.568;53;000.445;MIDI 01
203.896;000.250;75;000.531;MIDI 01
203.761;000.393;65;000.484;MIDI 01
204.017;000.178;73;000.523;MIDI 01
204.177;000.067;41;000.500;MIDI 01
204.160;000.178;72;000.539;MIDI 01
204.441;000.109;57;000.484;MIDI 01
204.307;000.277;53;000.453;MIDI 01
204.547;000.046;60;000.500;MIDI 01
204.696;000.134;75;000.508;MIDI 01
204.559;000.415;65;000.438;MIDI 01
204.825;000.162;72;000.477;MIDI 01
204.983;000.121;73;000.492;MIDI 01
205.008;000.098;46;000.367;MIDI 01
205.291;000.077;58;000.469;MIDI 01
205.456;000.055;61;000.172;MIDI 01
205.558;000.149;73;000.445;MIDI 01
205.155;000.640;53;000.336;MIDI 01
205.443;000.381;65;000.367;MIDI 01
205.694;000.192;77;000.406;MIDI 01
205.847;000.073;46;000.383;MIDI 01
206.113;000.056;58;000.375;MIDI 01
206.200;000.058;61;000.438;MIDI 01
206.341;000.182;73;000.445;MIDI 01
206.214;000.350;65;000.391;MIDI 01
205.973;000.603;53;000.414;MIDI 01
206.478;000.182;77;000.422;MIDI 01
206.615;000.087;46;000.430;MIDI 01
206.878;000.066;58;000.438;MIDI 01
206.973;000.045;61;000.375;MIDI 01
206.980;000.148;65;000.422;MIDI 01
207.108;000.177;73;000.422;MIDI 01
206.736;000.594;53;000.461;MIDI 01
207.232;000.124;77;000.422;MIDI 01
207.382;000.074;46;000.453;MIDI 01
207.650;000.085;58;000.492;MIDI 01
207.774;000.043;61;000.383;MIDI 01
207.776;000.249;66;000.461;MIDI 01
207.900;000.151;73;000.469;MIDI 01
207.528;000.575;54;000.461;MIDI 01
208.004;000.175;78;000.500;MIDI 01
208.156;000.097;46;000.547;MIDI 01
208.430;000.086;58;000.461;MIDI 01
208.514;000.045;61;000.531;MIDI 01
208.550;000.163;66;000.500;MIDI 01
208.662;000.103;73;000.484;MIDI 01
208.278;000.553;54;000.508;MIDI 01
208.746;000.152;78;000.547;MIDI 01
208.893;000.054;46;000.617;MIDI 01
209.312;000.042;64;000.547;MIDI 01
209.215;000.149;61;000.570;MIDI 01
209.054;000.318;55;000.555;MIDI 01
209.334;000.190;67;000.523;MIDI 01
209.453;000.158;73;000.578;MIDI 01
209.666;000.040;46;000.609;MIDI 01
209.559;000.231;79;000.609;MIDI 01
209.823;000.261;55;000.586;MIDI 01
209.977;000.133;61;000.531;MIDI 01
210.068;000.050;64;000.523;MIDI 01
210.083;000.172;67;000.586;MIDI 01
210.216;000.120;73;000.562;MIDI 01
210.283;000.170;79;000.586;MIDI 01
210.426;000.034;46;000.625;MIDI 01
210.710;000.153;62;000.594;MIDI 01
210.841;000.036;65;000.594;MIDI 01
210.572;000.359;56;000.578;MIDI 01
210.855;000.164;68;000.562;MIDI 01
210.963;000.161;74;000.609;MIDI 01
211.196;000.040;46;000.641;MIDI 01
211.082;000.198;80;000.633;MIDI 01
211.464;000.139;62;000.578;MIDI 01
211.588;000.039;65;000.609;MIDI 01
211.341;000.341;56;000.625;MIDI 01
211.608;000.166;68;000.609;MIDI 01
211.730;000.145;74;000.602;MIDI 01
211.939;000.035;46;000.672;MIDI 01
211.821;000.307;80;000.617;MIDI 01
212.222;000.148;62;000.578;MIDI 01
212.344;000.049;65;000.633;MIDI 01
212.078;000.351;56;000.648;MIDI 01
212.363;000.171;68;000.641;MIDI 01
212.479;000.147;74;000.586;MIDI 01
212.688;000.042;46;000.672;MIDI 01
212.577;000.158;80;000.641;MIDI 01
212.956;000.142;62;000.586;MIDI 01
212.834;000.275;56;000.648;MIDI 01
213.088;000.036;65;000.617;MIDI 01
213.085;000.130;68;000.633;MIDI 01
213.214;000.241;74;000.539;MIDI 01
213.311;000.191;80;000.664;MIDI 01
213.454;000.079;45;000.648;MIDI 01
213.452;000.195;81;000.719;MIDI 01
213.581;000.192;57;000.609;MIDI 01
213.725;000.115;61;000.656;MIDI 01
213.847;000.030;65;000.391;MIDI 01
213.852;000.028;64;000.453;MIDI 01
213.989;000.161;76;000.625;MIDI 01
213.974;000.196;81;000.688;MIDI 01
213.854;000.374;69;000.633;MIDI 01
214.122;000.165;73;000.648;MIDI 01
214.232;000.139;50;000.562;MIDI 01
214.269;000.148;77;000.539;MIDI 01
214.355;000.092;57;000.570;MIDI 01
214.250;000.200;80;000.625;MIDI 01
214.489;000.156;62;000.594;MIDI 01
214.607;000.048;65;000.586;MIDI 01
214.764;000.143;77;000.609;MIDI 01
214.755;000.192;80;000.680;MIDI 01
214.895;000.139;74;000.617;MIDI 01
214.625;000.434;69;000.617;MIDI 01
215.020;000.077;45;000.562;MIDI 01
215.040;000.189;76;000.555;MIDI 01
215.030;000.211;81;000.633;MIDI 01
215.158;000.188;57;000.531;MIDI 01
215.294;000.109;61;000.602;MIDI 01
215.424;000.027;64;000.438;MIDI 01
215.542;000.182;76;000.664;MIDI 01
215.551;000.179;81;000.664;MIDI 01
215.673;000.148;73;000.664;MIDI 01
215.436;000.396;69;000.602;MIDI 01
215.848;000.037;78;000.430;MIDI 01
215.810;000.091;50;000.484;MIDI 01
215.912;000.088;57;000.539;MIDI 01
215.841;000.176;77;000.531;MIDI 01
215.817;000.243;80;000.633;MIDI 01
216.051;000.123;62;000.578;MIDI 01
216.157;000.035;65;000.523;MIDI 01
216.159;000.083;69;000.594;MIDI 01
216.286;000.075;77;000.469;MIDI 01
216.283;000.150;80;000.602;MIDI 01
216.403;000.101;74;000.594;MIDI 01
216.582;000.066;45;000.477;MIDI 01
216.593;000.163;81;000.516;MIDI 01
216.615;000.197;73;000.430;MIDI 01
216.599;000.215;76;000.383;MIDI 01
216.730;000.149;57;000.461;MIDI 01
216.876;000.065;61;000.469;MIDI 01
216.960;000.030;64;000.430;MIDI 01
217.004;000.135;73;000.477;MIDI 01
217.140;000.157;76;000.461;MIDI 01
217.251;000.169;79;000.492;MIDI 01
217.403;000.145;70;000.445;MIDI 01
217.656;000.060;64;000.477;MIDI 01
217.546;000.189;57;000.383;MIDI 01
217.400;000.408;55;000.391;MIDI 01
217.795;000.284;70;000.461;MIDI 01
217.917;000.201;73;000.523;MIDI 01
218.047;000.130;76;000.516;MIDI 01
218.192;000.165;67;000.430;MIDI 01
218.196;000.299;49;000.367;MIDI 01
218.339;000.193;52;000.422;MIDI 01
218.488;000.142;57;000.391;MIDI 01
218.602;000.141;70;000.438;MIDI 01
218.736;000.172;69;000.422;MIDI 01
218.861;000.142;67;000.453;MIDI 01
219.041;000.130;65;000.320;MIDI 01
218.978;000.279;50;000.266;MIDI 01
219.131;000.198;53;000.195;MIDI 01
219.265;000.177;57;000.336;MIDI 01
219.398;000.101;65;000.406;MIDI 01
219.528;000.060;64;000.398;MIDI 01
219.640;000.169;62;000.445;MIDI 01
219.758;000.078;45;000.320;MIDI 01
219.790;000.060;61;000.445;MIDI 01
220.056;000.090;61;000.461;MIDI 01
219.905;000.260;57;000.438;MIDI 01
220.166;000.035;64;000.391;MIDI 01
220.175;000.160;73;000.500;MIDI 01
220.308;000.202;76;000.523;MIDI 01
220.441;000.143;79;000.547;MIDI 01
220.584;000.118;70;000.461;MIDI 01
220.582;000.267;55;000.367;MIDI 01
220.820;000.078;64;000.469;MIDI 01
220.697;000.212;57;000.406;MIDI 01
220.961;000.172;70;000.430;MIDI 01
221.092;000.192;73;000.484;MIDI 01
221.220;000.115;76;000.422;MIDI 01
221.346;000.130;67;000.445;MIDI 01
221.348;000.244;49;000.367;MIDI 01
221.504;000.134;52;000.398;MIDI 01
221.657;000.124;57;000.438;MIDI 01
221.761;000.149;70;000.406;MIDI 01
221.882;000.144;69;000.477;MIDI 01
222.011;000.152;67;000.445;MIDI 01
222.178;000.120;65;000.430;MIDI 01
222.086;000.423;50;000.328;MIDI 01
222.247;000.268;53;000.297;MIDI 01
222.384;000.175;57;000.398;MIDI 01
222.541;000.107;65;000.406;MIDI 01
222.672;000.075;64;000.469;MIDI 01
222.787;000.039;62;000.461;MIDI 01
222.989;000.095;50;000.344;MIDI 01
223.017;000.184;78;000.469;MIDI 01
223.285;000.118;66;000.484;MIDI 01
223.150;000.296;62;000.477;MIDI 01
223.403;000.082;69;000.500;MIDI 01
223.396;000.202;78;000.508;MIDI 01
223.533;000.222;81;000.562;MIDI 01
223.660;000.157;84;000.562;MIDI 01
223.808;000.133;75;000.539;MIDI 01
224.073;000.103;69;000.531;MIDI 01
223.942;000.262;62;000.453;MIDI 01
223.843;000.426;60;000.430;MIDI 01
224.210;000.316;75;000.516;MIDI 01
224.332;000.208;78;000.547;MIDI 01
224.453;000.147;81;000.539;MIDI 01
224.600;000.140;72;000.445;MIDI 01
224.617;000.449;54;000.391;MIDI 01
224.748;000.348;57;000.445;MIDI 01
225.009;000.203;75;000.422;MIDI 01
225.136;000.152;74;000.477;MIDI 01
224.896;000.440;62;000.398;MIDI 01
225.259;000.129;72;000.461;MIDI 01
225.418;000.149;70;000.469;MIDI 01
225.394;000.360;55;000.375;MIDI 01
225.547;000.293;58;000.344;MIDI 01
225.789;000.175;70;000.430;MIDI 01
225.933;000.061;69;000.422;MIDI 01
225.672;000.326;62;000.406;MIDI 01
226.048;000.153;67;000.461;MIDI 01
226.201;000.073;66;000.445;MIDI 01
226.199;000.086;50;000.398;MIDI 01
226.492;000.106;66;000.469;MIDI 01
226.633;000.031;69;000.375;MIDI 01
226.344;000.352;62;000.484;MIDI 01
226.620;000.254;78;000.523;MIDI 01
226.753;000.248;81;000.555;MIDI 01
226.872;000.184;84;000.555;MIDI 01
227.034;000.143;75;000.523;MIDI 01
227.290;000.089;69;000.484;MIDI 01
227.173;000.259;62;000.445;MIDI 01
227.061;000.383;60;000.383;MIDI 01
227.436;000.327;75;000.406;MIDI 01
227.566;000.208;78;000.508;MIDI 01
227.699;000.140;81;000.430;MIDI 01
227.836;000.162;72;000.438;MIDI 01
228.000;000.300;57;000.469;MIDI 01
227.851;000.492;54;000.352;MIDI 01
228.251;000.129;75;000.422;MIDI 01
228.371;000.142;74;000.461;MIDI 01
228.142;000.444;62;000.398;MIDI 01
228.491;000.141;72;000.469;MIDI 01
228.658;000.164;70;000.445;MIDI 01
228.929;000.105;62;000.398;MIDI 01
228.643;000.431;55;000.359;MIDI 01
228.815;000.271;58;000.352;MIDI 01
229.041;000.137;70;000.414;MIDI 01
229.173;000.085;69;000.453;MIDI 01
229.282;000.059;67;000.484;MIDI 01
229.519;000.200;82;000.492;MIDI 01
229.683;000.294;52;000.383;MIDI 01
229.508;000.535;49;000.430;MIDI 01
229.949;000.129;82;000.453;MIDI 01
229.824;000.351;57;000.398;MIDI 01
230.068;000.158;81;000.445;MIDI 01
230.192;000.136;79;000.445;MIDI 01
230.336;000.166;77;000.438;MIDI 01
230.502;000.161;53;000.344;MIDI 01
230.372;000.309;50;000.281;MIDI 01
230.643;000.120;57;000.398;MIDI 01
230.755;000.137;77;000.461;MIDI 01
230.893;000.077;76;000.469;MIDI 01
230.997;000.166;74;000.531;MIDI 01
231.140;000.219;75;000.680;MIDI 01
231.262;000.369;57;000.562;MIDI 01
231.120;000.522;54;000.625;MIDI 01
231.552;000.196;75;000.617;MIDI 01
231.404;000.346;62;000.609;MIDI 01
231.677;000.175;74;000.633;MIDI 01
231.789;000.142;72;000.617;MIDI 01
231.925;000.184;70;000.641;MIDI 01
232.192;000.108;62;000.594;MIDI 01
231.939;000.398;55;000.594;MIDI 01
232.071;000.276;58;000.602;MIDI 01
232.306;000.149;70;000.586;MIDI 01
232.435;000.078;69;000.570;MIDI 01
232.561;000.030;67;000.414;MIDI 01
232.755;000.185;82;000.516;MIDI 01
232.769;000.473;49;000.422;MIDI 01
232.941;000.322;52;000.406;MIDI 01
233.174;000.157;82;000.438;MIDI 01
233.066;000.297;57;000.398;MIDI 01
233.296;000.145;81;000.484;MIDI 01
233.411;000.126;79;000.516;MIDI 01
233.554;000.156;77;000.492;MIDI 01
233.601;000.378;50;000.398;MIDI 01
233.720;000.279;53;000.438;MIDI 01
233.829;000.240;57;000.492;MIDI 01
233.959;000.136;77;000.508;MIDI 01
234.083;000.090;76;000.578;MIDI 01
234.213;000.294;74;000.562;MIDI 01
234.361;000.228;82;000.664;MIDI 01
234.359;000.511;49;000.633;MIDI 01
234.505;000.389;52;000.594;MIDI 01
234.800;000.180;82;000.586;MIDI 01
234.660;000.360;57;000.555;MIDI 01
234.930;000.181;81;000.625;MIDI 01
235.052;000.124;79;000.633;MIDI 01
235.181;000.173;77;000.625;MIDI 01
235.206;000.373;50;000.578;MIDI 01
235.330;000.264;53;000.586;MIDI 01
235.442;000.216;57;000.578;MIDI 01
235.556;000.156;77;000.617;MIDI 01
235.685;000.092;76;000.633;MIDI 01
235.808;000.276;74;000.625;MIDI 01
235.961;000.217;82;000.734;MIDI 01
235.953;000.407;49;000.672;MIDI 01
236.091;000.283;52;000.602;MIDI 01
236.241;000.210;57;000.609;MIDI 01
236.371;000.184;82;000.625;MIDI 01
236.482;000.183;81;000.672;MIDI 01
236.602;000.127;79;000.633;MIDI 01
236.723;000.152;77;000.672;MIDI 01
236.750;000.342;50;000.594;MIDI 01
236.979;000.132;57;000.633;MIDI 01
236.861;000.258;53;000.633;MIDI 01
237.096;000.146;77;000.625;MIDI 01
237.228;000.075;76;000.617;MIDI 01
237.349;000.141;74;000.570;MIDI 01
237.514;000.146;82;000.641;MIDI 01
237.659;000.145;79;000.609;MIDI 01
237.804;000.115;78;000.602;MIDI 01
237.521;000.523;55;000.625;MIDI 01
237.923;000.125;79;000.602;MIDI 01
237.527;000.556;49;000.602;MIDI 01
237.525;000.565;52;000.586;MIDI 01
237.523;000.642;45;000.625;MIDI 01
238.055;000.139;82;000.586;MIDI 01
238.178;000.120;79;000.594;MIDI 01
238.318;000.115;78;000.555;MIDI 01
238.440;000.122;79;000.586;MIDI 01
238.570;000.143;82;000.539;MIDI 01
238.690;000.124;79;000.602;MIDI 01
238.824;000.100;78;000.570;MIDI 01
238.953;000.091;79;000.602;MIDI 01
239.073;000.173;75;000.656;MIDI 01
239.203;000.115;76;000.555;MIDI 01
239.326;000.129;79;000.594;MIDI 01
239.453;000.139;76;000.586;MIDI 01
239.601;000.105;75;000.562;MIDI 01
239.724;000.105;76;000.547;MIDI 01
239.834;000.141;79;000.555;MIDI 01
239.957;000.117;76;000.500;MIDI 01
240.070;000.111;75;000.570;MIDI 01
240.206;000.097;76;000.562;MIDI 01
240.309;000.156;79;000.586;MIDI 01
240.435;000.096;76;000.633;MIDI 01
240.560;000.150;72;000.664;MIDI 01
240.697;000.119;73;000.602;MIDI 01
240.831;000.115;76;000.562;MIDI 01
240.941;000.114;73;000.570;MIDI 01
241.073;000.122;72;000.492;MIDI 01
241.192;000.118;73;000.562;MIDI 01
241.320;000.122;76;000.539;MIDI 01
241.430;000.116;73;000.539;MIDI 01
241.557;000.130;72;000.539;MIDI 01
241.688;000.098;73;000.570;MIDI 01
241.805;000.151;76;000.539;MIDI 01
241.943;000.104;73;000.625;MIDI 01
242.075;000.139;69;000.625;MIDI 01
242.204;000.115;70;000.617;MIDI 01
242.326;000.131;73;000.594;MIDI 01
242.444;000.109;70;000.578;MIDI 01
242.568;000.131;69;000.523;MIDI 01
242.696;000.110;70;000.570;MIDI 01
242.821;000.132;73;000.516;MIDI 01
242.943;000.105;70;000.555;MIDI 01
243.068;000.126;69;000.516;MIDI 01
243.192;000.090;70;000.570;MIDI 01
243.309;000.159;73;000.547;MIDI 01
243.433;000.102;70;000.602;MIDI 01
243.559;000.176;66;000.633;MIDI 01
243.702;000.127;67;000.539;MIDI 01
243.829;000.117;70;000.570;MIDI 01
243.953;000.121;67;000.562;MIDI 01
244.095;000.114;66;000.516;MIDI 01
244.217;000.115;67;000.547;MIDI 01
244.345;000.132;70;000.523;MIDI 01
244.471;000.110;67;000.547;MIDI 01
244.593;000.110;66;000.500;MIDI 01
244.720;000.118;67;000.531;MIDI 01
244.843;000.140;70;000.531;MIDI 01
244.961;000.142;67;000.578;MIDI 01
245.102;000.127;66;000.562;MIDI 01
245.239;000.133;67;000.602;MIDI 01
245.366;000.149;70;000.594;MIDI 01
245.481;000.144;67;000.609;MIDI 01
245.621;000.128;66;000.641;MIDI 01
245.749;000.131;67;000.625;MIDI 01
245.869;000.154;70;000.633;MIDI 01
245.993;000.135;67;000.625;MIDI 01
246.124;000.122;66;000.633;MIDI 01
246.260;000.089;67;000.547;MIDI 01
246.335;000.150;70;000.523;MIDI 01
246.502;000.047;67;000.461;MIDI 01
246.624;000.078;66;000.406;MIDI 01
246.756;000.047;67;000.242;MIDI 01
246.856;000.127;70;000.391;MIDI 01
247.008;000.061;67;000.328;MIDI 01
247.124;000.074;66;000.352;MIDI 01
247.242;000.097;67;000.383;MIDI 01
247.366;000.077;70;000.375;MIDI 01
247.485;000.130;73;000.367;MIDI 01
247.616;000.081;70;000.430;MIDI 01
247.759;000.062;67;000.359;MIDI 01
247.882;000.048;66;000.391;MIDI 01
247.999;000.138;67;000.375;MIDI 01
248.125;000.108;70;000.430;MIDI 01
248.246;000.140;73;000.422;MIDI 01
248.364;000.089;76;000.477;MIDI 01
248.508;000.072;67;000.383;MIDI 01
248.634;000.050;66;000.383;MIDI 01
248.750;000.119;67;000.391;MIDI 01
248.887;000.113;70;000.367;MIDI 01
249.028;000.109;73;000.383;MIDI 01
249.190;000.131;76;000.312;MIDI 01
249.546;000.282;77;000.258;MIDI 01
249.696;000.195;76;000.305;MIDI 01
249.366;000.606;69;000.312;MIDI 01
249.870;000.134;74;000.289;MIDI 01
249.860;000.153;50;000.203;MIDI 01
250.009;000.057;57;000.352;MIDI 01
250.307;000.036;65;000.305;MIDI 01
250.166;000.398;62;000.352;MIDI 01
250.410;000.257;77;000.367;MIDI 01
250.517;000.176;76;000.438;MIDI 01
250.266;000.492;69;000.430;MIDI 01
250.691;000.116;50;000.359;MIDI 01
250.686;000.126;74;000.375;MIDI 01
250.820;000.065;57;000.391;MIDI 01
251.093;000.043;65;000.383;MIDI 01
250.960;000.419;62;000.414;MIDI 01
251.210;000.279;77;000.469;MIDI 01
251.329;000.178;76;000.477;MIDI 01
251.068;000.468;69;000.469;MIDI 01
251.485;000.104;50;000.375;MIDI 01
251.490;000.153;74;000.445;MIDI 01
251.614;000.061;57;000.422;MIDI 01
251.746;000.151;62;000.414;MIDI 01
251.867;000.040;65;000.414;MIDI 01
251.999;000.142;77;000.422;MIDI 01
252.120;000.136;74;000.453;MIDI 01
251.850;000.474;69;000.422;MIDI 01
252.273;000.069;45;000.367;MIDI 01
252.266;000.106;76;000.406;MIDI 01
252.572;000.069;61;000.406;MIDI 01
252.658;000.033;64;000.367;MIDI 01
252.412;000.605;57;000.406;MIDI 01
252.811;000.274;79;000.461;MIDI 01
252.685;000.449;69;000.430;MIDI 01
252.928;000.209;77;000.500;MIDI 01
253.076;000.064;45;000.406;MIDI 01
253.093;000.126;76;000.484;MIDI 01
253.365;000.091;61;000.477;MIDI 01
253.472;000.036;64;000.422;MIDI 01
253.213;000.635;57;000.383;MIDI 01
253.630;000.240;79;000.500;MIDI 01
253.496;000.436;69;000.484;MIDI 01
253.735;000.205;77;000.500;MIDI 01
253.900;000.056;45;000.453;MIDI 01
253.882;000.142;76;000.523;MIDI 01
254.178;000.094;61;000.477;MIDI 01
254.278;000.037;64;000.461;MIDI 01
254.034;000.585;57;000.461;MIDI 01
254.418;000.275;79;000.547;MIDI 01
254.282;000.431;69;000.523;MIDI 01
254.536;000.209;77;000.523;MIDI 01
254.676;000.072;45;000.484;MIDI 01
254.678;000.146;76;000.555;MIDI 01
254.953;000.094;61;000.469;MIDI 01
255.046;000.031;64;000.492;MIDI 01
254.815;000.329;57;000.477;MIDI 01
255.081;000.191;69;000.508;MIDI 01
255.210;000.165;79;000.508;MIDI 01
255.325;000.190;76;000.539;MIDI 01
255.482;000.101;77;000.477;MIDI 01
255.478;000.114;50;000.359;MIDI 01
255.606;000.071;57;000.406;MIDI 01
255.744;000.178;62;000.453;MIDI 01
255.896;000.041;65;000.344;MIDI 01
256.014;000.102;81;000.461;MIDI 01
255.890;000.231;74;000.461;MIDI 01
256.146;000.215;86;000.469;MIDI 01
256.302;000.126;82;000.477;MIDI 01
256.597;000.062;67;000.453;MIDI 01
256.475;000.248;62;000.430;MIDI 01
256.339;000.401;55;000.352;MIDI 01
256.721;000.188;70;000.445;MIDI 01
256.834;000.278;74;000.508;MIDI 01
256.950;000.260;82;000.539;MIDI 01
257.090;000.155;79;000.562;MIDI 01
257.375;000.106;63;000.516;MIDI 01
257.113;000.405;51;000.430;MIDI 01
257.252;000.303;58;000.438;MIDI 01
257.500;000.194;67;000.500;MIDI 01
257.627;000.155;70;000.508;MIDI 01
257.751;000.194;79;000.555;MIDI 01
257.908;000.191;76;000.508;MIDI 01
257.925;000.331;49;000.383;MIDI 01
258.076;000.302;57;000.391;MIDI 01
258.204;000.199;61;000.445;MIDI 01
258.332;000.105;64;000.367;MIDI 01
258.579;000.118;76;000.453;MIDI 01
258.452;000.248;69;000.398;MIDI 01
258.704;000.207;77;000.453;MIDI 01
258.974;000.097;62;000.438;MIDI 01
258.843;000.279;57;000.391;MIDI 01
258.719;000.480;50;000.328;MIDI 01
259.095;000.188;65;000.406;MIDI 01
259.217;000.261;69;000.508;MIDI 01
259.342;000.215;77;000.523;MIDI 01
259.471;000.189;74;000.531;MIDI 01
259.734;000.230;57;000.539;MIDI 01
259.608;000.382;53;000.531;MIDI 01
259.482;000.564;45;000.516;MIDI 01
259.852;000.247;62;000.539;MIDI 01
259.990;000.264;69;000.508;MIDI 01
260.095;000.225;74;000.570;MIDI 01
260.247;000.248;73;000.609;MIDI 01
260.359;000.268;52;000.602;MIDI 01
260.486;000.147;55;000.586;MIDI 01
260.603;000.065;57;000.586;MIDI 01
260.231;000.488;45;000.578;MIDI 01
260.631;000.119;61;000.570;MIDI 01
260.868;000.179;73;000.617;MIDI 01
260.750;000.299;69;000.586;MIDI 01
261.012;000.099;38;000.602;MIDI 01
261.001;000.125;74;000.656;MIDI 01
261.139;000.131;50;000.578;MIDI 01
261.583;000.131;65;000.578;MIDI 01
261.704;000.113;69;000.602;MIDI 01
261.827;000.037;74;000.578;MIDI 01
261.275;000.638;53;000.625;MIDI 01
261.422;000.498;57;000.547;MIDI 01
261.573;000.408;62;000.609;MIDI 01
261.947;000.115;77;000.625;MIDI 01
262.079;000.140;81;000.617;MIDI 01
262.204;000.152;77;000.594;MIDI 01
262.330;000.198;86;000.578;MIDI 01
262.464;000.184;81;000.562;MIDI 01
262.643;000.136;82;000.484;MIDI 01
262.941;000.081;67;000.477;MIDI 01
262.803;000.273;62;000.445;MIDI 01
262.659;000.440;55;000.359;MIDI 01
263.069;000.150;70;000.461;MIDI 01
263.184;000.272;74;000.492;MIDI 01
263.299;000.215;82;000.484;MIDI 01
263.445;000.132;79;000.531;MIDI 01
263.747;000.066;63;000.430;MIDI 01
263.624;000.202;58;000.414;MIDI 01
263.484;000.396;51;000.367;MIDI 01
263.849;000.179;67;000.469;MIDI 01
263.977;000.133;70;000.516;MIDI 01
264.090;000.203;79;000.523;MIDI 01
264.248;000.185;75;000.539;MIDI 01
264.511;000.096;60;000.547;MIDI 01
264.378;000.255;55;000.500;MIDI 01
264.231;000.436;48;000.461;MIDI 01
264.653;000.153;63;000.531;MIDI 01
264.770;000.242;67;000.562;MIDI 01
264.877;000.226;75;000.578;MIDI 01
265.019;000.152;72;000.562;MIDI 01
264.994;000.348;45;000.516;MIDI 01
265.275;000.110;57;000.516;MIDI 01
265.141;000.286;53;000.492;MIDI 01
265.402;000.124;60;000.438;MIDI 01
265.663;000.103;72;000.461;MIDI 01
265.512;000.383;65;000.484;MIDI 01
265.784;000.175;74;000.477;MIDI 01
266.080;000.060;58;000.500;MIDI 01
265.956;000.209;53;000.375;MIDI 01
265.805;000.394;46;000.422;MIDI 01
266.185;000.129;62;000.500;MIDI 01
266.291;000.084;65;000.523;MIDI 01
266.385;000.173;74;000.516;MIDI 01
266.515;000.165;75;000.578;MIDI 01
266.509;000.297;39;000.531;MIDI 01
266.766;000.148;51;000.531;MIDI 01
266.661;000.254;48;000.492;MIDI 01
266.908;000.210;63;000.508;MIDI 01
267.032;000.235;67;000.570;MIDI 01
267.147;000.226;75;000.602;MIDI 01
267.285;000.184;72;000.594;MIDI 01
267.401;000.194;48;000.570;MIDI 01
267.527;000.075;53;000.578;MIDI 01
267.289;000.337;41;000.570;MIDI 01
267.665;000.122;60;000.562;MIDI 01
267.778;000.121;69;000.570;MIDI 01
267.885;000.145;72;000.609;MIDI 01
268.039;000.154;77;000.609;MIDI 01
268.034;000.265;38;000.539;MIDI 01
268.182;000.200;46;000.547;MIDI 01
268.331;000.087;50;000.523;MIDI 01
268.458;000.199;65;000.461;MIDI 01
268.572;000.209;70;000.516;MIDI 01
268.698;000.136;77;000.445;MIDI 01
268.811;000.221;74;000.523;MIDI 01
268.856;000.281;43;000.422;MIDI 01
269.117;000.075;55;000.562;MIDI 01
268.990;000.255;46;000.461;MIDI 01
269.217;000.125;62;000.484;MIDI 01
269.331;000.124;70;000.539;MIDI 01
269.431;000.142;74;000.562;MIDI 01
269.577;000.195;75;000.594;MIDI 01
269.594;000.288;39;000.555;MIDI 01
269.726;000.241;48;000.461;MIDI 01
269.832;000.136;51;000.586;MIDI 01
269.957;000.171;63;000.492;MIDI 01
270.059;000.228;67;000.578;MIDI 01
270.183;000.221;75;000.609;MIDI 01
270.304;000.183;72;000.625;MIDI 01
270.314;000.227;41;000.594;MIDI 01
270.440;000.153;48;000.609;MIDI 01
270.564;000.047;53;000.562;MIDI 01
270.677;000.131;60;000.570;MIDI 01
270.799;000.116;69;000.562;MIDI 01
270.905;000.183;72;000.625;MIDI 01
271.075;000.177;34;000.539;MIDI 01
271.028;000.292;70;000.633;MIDI 01
271.197;000.125;41;000.516;MIDI 01
271.306;000.044;46;000.578;MIDI 01
271.435;000.103;29;000.680;MIDI 01
271.573;000.125;37;000.688;MIDI 01
271.688;000.169;36;000.633;MIDI 01
271.822;000.219;34;000.734;MIDI 01
272.041;000.153;46;000.617;MIDI 01
272.168;000.172;49;000.617;MIDI 01
272.290;000.174;53;000.594;MIDI 01
272.301;000.232;29;000.578;MIDI 01
272.422;000.222;37;000.664;MIDI 01
272.440;000.213;58;000.594;MIDI 01
272.540;000.183;36;000.648;MIDI 01
272.678;000.229;34;000.688;MIDI 01
272.841;000.174;46;000.641;MIDI 01
272.961;000.204;49;000.594;MIDI 01
273.075;000.183;53;000.586;MIDI 01
273.241;000.129;37;000.633;MIDI 01
273.136;000.235;29;000.516;MIDI 01
273.226;000.173;58;000.586;MIDI 01
273.353;000.194;36;000.633;MIDI 01
273.545;000.043;32;000.383;MIDI 01
273.493;000.246;34;000.695;MIDI 01
273.673;000.178;46;000.641;MIDI 01
273.790;000.196;49;000.617;MIDI 01
273.901;000.146;53;000.586;MIDI 01
274.046;000.053;58;000.500;MIDI 01
273.943;000.238;29;000.555;MIDI 01
274.060;000.131;37;000.609;MIDI 01
274.205;000.052;33;000.344;MIDI 01
274.159;000.122;34;000.664;MIDI 01
274.363;000.141;43;000.633;MIDI 01
274.482;000.113;46;000.617;MIDI 01
274.601;000.049;52;000.602;MIDI 01
274.730;000.137;55;000.641;MIDI 01
274.316;000.564;36;000.680;MIDI 01
274.846;000.104;58;000.617;MIDI 01
274.950;000.185;64;000.578;MIDI 01
275.099;000.052;29;000.609;MIDI 01
275.105;000.090;53;000.594;MIDI 01
275.115;000.095;41;000.688;MIDI 01
275.245;000.046;65;000.523;MIDI 01
275.373;000.116;56;000.617;MIDI 01
275.484;000.087;68;000.516;MIDI 01
275.377;000.305;44;000.555;MIDI 01
275.625;000.085;60;000.602;MIDI 01
275.745;000.056;72;000.641;MIDI 01
275.627;000.211;48;000.609;MIDI 01
275.887;000.116;65;000.648;MIDI 01
275.994;000.090;77;000.641;MIDI 01
275.885;000.208;53;000.633;MIDI 01
276.146;000.128;68;000.680;MIDI 01
276.144;000.168;56;000.625;MIDI 01
276.259;000.069;80;000.609;MIDI 01
276.397;000.093;65;000.680;MIDI 01
276.521;000.044;77;000.633;MIDI 01
276.370;000.209;53;000.555;MIDI 01
276.669;000.084;60;000.656;MIDI 01
276.802;000.059;72;000.609;MIDI 01
276.648;000.226;48;000.586;MIDI 01
276.952;000.095;56;000.648;MIDI 01
277.077;000.036;68;000.586;MIDI 01
276.917;000.206;44;000.578;MIDI 01
277.192;000.087;60;000.648;MIDI 01
277.308;000.054;72;000.625;MIDI 01
277.169;000.203;48;000.562;MIDI 01
277.441;000.098;56;000.672;MIDI 01
277.415;000.194;44;000.633;MIDI 01
277.570;000.041;68;000.539;MIDI 01
277.700;000.076;53;000.625;MIDI 01
277.657;000.178;41;000.555;MIDI 01
277.822;000.047;65;000.555;MIDI 01
277.834;000.248;36;000.594;MIDI 01
277.957;000.129;44;000.664;MIDI 01
278.077;000.179;43;000.641;MIDI 01
278.218;000.191;41;000.680;MIDI 01
278.360;000.257;53;000.578;MIDI 01
278.480;000.207;56;000.594;MIDI 01
278.606;000.171;60;000.570;MIDI 01
278.652;000.223;36;000.555;MIDI 01
278.761;000.130;44;000.688;MIDI 01
278.743;000.173;65;000.555;MIDI 01
278.879;000.185;43;000.672;MIDI 01
279.016;000.233;41;000.695;MIDI 01
279.188;000.248;53;000.648;MIDI 01
279.301;000.217;56;000.617;MIDI 01
279.426;000.188;60;000.617;MIDI 01
279.470;000.216;36;000.539;MIDI 01
279.568;000.167;44;000.680;MIDI 01
279.579;000.175;65;000.555;MIDI 01
279.682;000.182;43;000.648;MIDI 01
279.823;000.245;41;000.688;MIDI 01
279.981;000.227;53;000.617;MIDI 01
280.096;000.172;56;000.625;MIDI 01
280.212;000.124;60;000.594;MIDI 01
280.332;000.061;65;000.547;MIDI 01
280.245;000.217;36;000.547;MIDI 01
280.356;000.113;44;000.633;MIDI 01
280.455;000.078;41;000.625;MIDI 01
280.642;000.147;50;000.625;MIDI 01
280.632;000.202;31;000.727;MIDI 01
280.630;000.209;43;000.734;MIDI 01
280.768;000.120;53;000.609;MIDI 01
280.892;000.053;59;000.625;MIDI 01
281.029;000.153;62;000.656;MIDI 01
281.146;000.110;65;000.625;MIDI 01
281.259;000.105;71;000.633;MIDI 01
281.396;000.042;36;000.602;MIDI 01
281.404;000.077;60;000.656;MIDI 01
281.394;000.094;48;000.695;MIDI 01
281.569;000.028;72;000.414;MIDI 01
281.701;000.121;63;000.539;MIDI 01
281.815;000.090;75;000.547;MIDI 01
281.742;000.272;51;000.492;MIDI 01
281.955;000.091;67;000.656;MIDI 01
282.072;000.051;79;000.641;MIDI 01
281.959;000.189;55;000.617;MIDI 01
282.201;000.106;72;000.680;MIDI 01
282.319;000.082;84;000.633;MIDI 01
282.188;000.216;60;000.680;MIDI 01
282.461;000.130;75;000.695;MIDI 01
282.464;000.174;63;000.680;MIDI 01
282.569;000.072;87;000.664;MIDI 01
282.717;000.126;72;000.695;MIDI 01
282.843;000.051;84;000.648;MIDI 01
282.699;000.218;60;000.562;MIDI 01
282.986;000.082;67;000.688;MIDI 01
283.117;000.037;79;000.609;MIDI 01
282.957;000.248;55;000.539;MIDI 01
283.245;000.101;63;000.641;MIDI 01
283.367;000.061;75;000.641;MIDI 01
283.241;000.201;51;000.562;MIDI 01
283.492;000.084;67;000.664;MIDI 01
283.614;000.053;79;000.656;MIDI 01
283.489;000.290;55;000.578;MIDI 01
283.752;000.110;63;000.664;MIDI 01
283.749;000.162;51;000.594;MIDI 01
283.883;000.036;75;000.547;MIDI 01
283.966;000.045;48;000.609;MIDI 01
284.010;000.075;60;000.625;MIDI 01
284.117;000.060;72;000.633;MIDI 01
284.131;000.168;31;000.641;MIDI 01
284.262;000.168;39;000.656;MIDI 01
284.385;000.179;38;000.555;MIDI 01
284.523;000.208;36;000.703;MIDI 01
284.682;000.194;48;000.609;MIDI 01
284.804;000.184;51;000.594;MIDI 01
284.930;000.160;55;000.602;MIDI 01
285.081;000.129;39;000.672;MIDI 01
284.974;000.258;31;000.547;MIDI 01
285.067;000.176;60;000.570;MIDI 01
285.193;000.188;38;000.656;MIDI 01
285.336;000.245;36;000.695;MIDI 01
285.490;000.219;48;000.625;MIDI 01
285.614;000.190;51;000.602;MIDI 01
285.739;000.168;55;000.609;MIDI 01
285.789;000.221;31;000.531;MIDI 01
285.877;000.141;39;000.680;MIDI 01
285.881;000.191;60;000.586;MIDI 01
286.174;000.002;37;000.211;MIDI 01
286.000;000.188;38;000.648;MIDI 01
286.143;000.270;36;000.703;MIDI 01
286.286;000.235;48;000.617;MIDI 01
286.410;000.129;51;000.625;MIDI 01
286.521;000.125;55;000.609;MIDI 01
286.640;000.044;60;000.516;MIDI 01
286.567;000.200;31;000.594;MIDI 01
286.671;000.123;39;000.680;MIDI 01
286.791;000.048;35;000.352;MIDI 01
286.761;000.106;36;000.641;MIDI 01
286.983;000.041;43;000.531;MIDI 01
286.975;000.126;45;000.523;MIDI 01
287.082;000.125;48;000.602;MIDI 01
287.207;000.054;54;000.586;MIDI 01
286.915;000.452;38;000.734;MIDI 01
287.339;000.149;57;000.648;MIDI 01
287.454;000.111;60;000.633;MIDI 01
287.565;000.130;66;000.602;MIDI 01
287.678;000.050;31;000.609;MIDI 01
287.693;000.081;43;000.719;MIDI 01
287.710;000.075;55;000.641;MIDI 01
287.884;000.033;67;000.359;MIDI 01
287.986;000.121;58;000.594;MIDI 01
288.111;000.088;70;000.531;MIDI 01
288.006;000.303;46;000.547;MIDI 01
288.238;000.098;62;000.664;MIDI 01
288.359;000.054;74;000.656;MIDI 01
288.240;000.196;50;000.609;MIDI 01
288.491;000.094;67;000.695;MIDI 01
288.615;000.073;79;000.656;MIDI 01
288.475;000.220;55;000.664;MIDI 01
288.742;000.137;70;000.719;MIDI 01
288.745;000.182;58;000.648;MIDI 01
288.859;000.074;82;000.648;MIDI 01
289.001;000.091;67;000.672;MIDI 01
289.133;000.050;79;000.625;MIDI 01
288.986;000.231;55;000.562;MIDI 01
289.269;000.086;62;000.672;MIDI 01
289.394;000.033;74;000.602;MIDI 01
289.246;000.225;50;000.586;MIDI 01
289.522;000.087;58;000.641;MIDI 01
289.635;000.051;70;000.617;MIDI 01
289.516;000.178;46;000.578;MIDI 01
289.761;000.092;62;000.648;MIDI 01
289.755;000.170;50;000.547;MIDI 01
289.876;000.064;74;000.641;MIDI 01
290.011;000.107;58;000.641;MIDI 01
289.999;000.166;46;000.594;MIDI 01
290.142;000.048;70;000.586;MIDI 01
290.274;000.078;55;000.609;MIDI 01
290.233;000.165;43;000.523;MIDI 01
290.374;000.058;67;000.656;MIDI 01
290.391;000.254;38;000.609;MIDI 01
290.529;000.131;46;000.664;MIDI 01
290.645;000.176;45;000.648;MIDI 01
290.789;000.227;43;000.680;MIDI 01
290.944;000.254;50;000.578;MIDI 01
291.068;000.206;55;000.586;MIDI 01
291.206;000.179;58;000.602;MIDI 01
291.215;000.183;38;000.547;MIDI 01
291.329;000.133;46;000.672;MIDI 01
291.337;000.190;62;000.547;MIDI 01
291.441;000.175;45;000.641;MIDI 01
291.577;000.227;43;000.719;MIDI 01
291.765;000.205;50;000.617;MIDI 01
291.886;000.196;55;000.641;MIDI 01
292.018;000.172;58;000.641;MIDI 01
292.040;000.226;38;000.562;MIDI 01
292.160;000.137;46;000.680;MIDI 01
292.148;000.211;62;000.586;MIDI 01
292.276;000.167;45;000.656;MIDI 01
292.408;000.223;43;000.664;MIDI 01
292.573;000.276;50;000.602;MIDI 01
292.692;000.216;55;000.641;MIDI 01
292.830;000.163;58;000.617;MIDI 01
292.828;000.227;38;000.539;MIDI 01
292.940;000.120;46;000.656;MIDI 01
293.045;000.107;43;000.664;MIDI 01
292.961;000.234;62;000.578;MIDI 01
293.265;000.103;50;000.625;MIDI 01
293.262;000.151;56;000.656;MIDI 01
293.418;000.121;62;000.602;MIDI 01
293.562;000.096;50;000.562;MIDI 01
293.560;000.144;56;000.633;MIDI 01
293.691;000.137;62;000.617;MIDI 01
293.244;000.594;46;000.711;MIDI 01
293.256;000.661;34;000.641;MIDI 01
293.842;000.140;50;000.617;MIDI 01
293.835;000.180;56;000.703;MIDI 01
293.967;000.124;62;000.648;MIDI 01
294.160;000.034;33;000.594;MIDI 01
294.167;000.062;45;000.672;MIDI 01
294.169;000.066;52;000.648;MIDI 01
294.158;000.085;57;000.664;MIDI 01
294.175;000.109;61;000.688;MIDI 01
294.640;000.046;70;000.523;MIDI 01
294.642;000.082;55;000.391;MIDI 01
294.629;000.110;52;000.461;MIDI 01
294.731;000.086;72;000.477;MIDI 01
294.788;000.076;57;000.414;MIDI 01
294.805;000.108;70;000.445;MIDI 01
294.913;000.040;69;000.500;MIDI 01
294.907;000.109;49;000.461;MIDI 01
295.040;000.085;57;000.359;MIDI 01
295.183;000.045;70;000.547;MIDI 01
295.197;000.073;55;000.336;MIDI 01
295.184;000.121;52;000.375;MIDI 01
295.259;000.104;72;000.445;MIDI 01
295.326;000.064;57;000.367;MIDI 01
295.344;000.123;70;000.477;MIDI 01
295.450;000.048;69;000.500;MIDI 01
295.446;000.110;49;000.453;MIDI 01
295.586;000.099;57;000.312;MIDI 01
295.740;000.040;70;000.570;MIDI 01
295.748;000.062;55;000.375;MIDI 01
295.738;000.097;52;000.398;MIDI 01
295.801;000.109;72;000.406;MIDI 01
295.872;000.075;57;000.391;MIDI 01
295.876;000.130;70;000.438;MIDI 01
295.999;000.053;69;000.492;MIDI 01
296.012;000.105;49;000.445;MIDI 01
296.142;000.095;57;000.352;MIDI 01
296.316;000.045;70;000.500;MIDI 01
296.336;000.066;55;000.234;MIDI 01
296.343;000.076;52;000.188;MIDI 01
296.390;000.100;72;000.438;MIDI 01
296.440;000.073;57;000.375;MIDI 01
296.470;000.126;70;000.422;MIDI 01
296.595;000.045;69;000.484;MIDI 01
296.591;000.115;49;000.430;MIDI 01
296.718;000.114;57;000.406;MIDI 01
296.880;000.049;70;000.578;MIDI 01
296.887;000.105;55;000.359;MIDI 01
296.875;000.133;52;000.414;MIDI 01
296.962;000.095;72;000.469;MIDI 01
297.006;000.091;57;000.484;MIDI 01
297.044;000.110;70;000.547;MIDI 01
297.141;000.067;69;000.586;MIDI 01
297.154;000.126;49;000.492;MIDI 01
297.280;000.131;57;000.477;MIDI 01
297.427;000.061;70;000.586;MIDI 01
297.446;000.106;55;000.422;MIDI 01
297.434;000.131;52;000.469;MIDI 01
297.500;000.105;72;000.547;MIDI 01
297.570;000.097;57;000.516;MIDI 01
297.589;000.114;70;000.578;MIDI 01
297.682;000.075;69;000.641;MIDI 01
297.711;000.146;49;000.523;MIDI 01
297.843;000.144;57;000.500;MIDI 01
298.008;000.123;55;000.445;MIDI 01
298.001;000.146;52;000.445;MIDI 01
298.158;000.079;57;000.453;MIDI 01
298.308;000.103;49;000.445;MIDI 01
298.410;000.110;57;000.453;MIDI 01
298.557;000.096;55;000.391;MIDI 01
298.555;000.124;52;000.359;MIDI 01
298.699;000.068;57;000.430;MIDI 01
298.010;000.797;70;000.617;MIDI 01
298.816;000.046;69;000.531;MIDI 01
298.836;000.105;49;000.453;MIDI 01
298.958;000.078;57;000.359;MIDI 01
299.090;000.039;67;000.453;MIDI 01
299.093;000.046;52;000.328;MIDI 01
299.101;000.059;55;000.320;MIDI 01
299.231;000.045;57;000.336;MIDI 01
299.340;000.028;65;000.422;MIDI 01
299.361;000.051;50;000.359;MIDI 01
299.399;000.090;67;000.461;MIDI 01
299.449;000.125;57;000.391;MIDI 01
299.480;000.111;65;000.469;MIDI 01
299.598;000.052;64;000.461;MIDI 01
299.596;000.106;53;000.430;MIDI 01
299.749;000.085;57;000.406;MIDI 01
299.867;000.054;62;000.469;MIDI 01
299.864;000.074;50;000.383;MIDI 01
300.006;000.077;57;000.422;MIDI 01
300.140;000.059;61;000.555;MIDI 01
300.148;000.107;45;000.469;MIDI 01
300.279;000.117;55;000.445;MIDI 01
300.435;000.044;62;000.469;MIDI 01
300.421;000.143;52;000.398;MIDI 01
300.564;000.065;55;000.430;MIDI 01
300.711;000.040;45;000.320;MIDI 01
300.707;000.046;64;000.500;MIDI 01
300.810;000.073;55;000.383;MIDI 01
300.972;000.046;62;000.484;MIDI 01
300.979;000.080;53;000.391;MIDI 01
300.967;000.099;50;000.391;MIDI 01
301.096;000.140;57;000.516;MIDI 01
301.229;000.132;52;000.570;MIDI 01
301.234;000.137;70;000.680;MIDI 01
301.251;000.194;55;000.492;MIDI 01
301.361;000.101;57;000.648;MIDI 01
301.377;000.118;82;000.609;MIDI 01
301.500;000.097;69;000.695;MIDI 01
301.485;000.156;49;000.625;MIDI 01
301.605;000.165;57;000.617;MIDI 01
301.630;000.142;81;000.641;MIDI 01
301.740;000.182;52;000.562;MIDI 01
301.748;000.177;70;000.703;MIDI 01
301.745;000.217;55;000.570;MIDI 01
301.908;000.104;57;000.555;MIDI 01
301.900;000.115;82;000.594;MIDI 01
302.029;000.093;69;000.648;MIDI 01
302.024;000.124;49;000.539;MIDI 01
302.158;000.124;81;000.586;MIDI 01
302.148;000.151;57;000.562;MIDI 01
302.281;000.141;70;000.609;MIDI 01
302.277;000.151;52;000.508;MIDI 01
302.422;000.098;82;000.562;MIDI 01
302.286;000.236;55;000.414;MIDI 01
302.445;000.104;57;000.539;MIDI 01
302.539;000.093;69;000.617;MIDI 01
302.549;000.130;49;000.562;MIDI 01
302.664;000.123;81;000.578;MIDI 01
302.672;000.136;57;000.539;MIDI 01
302.786;000.158;70;000.688;MIDI 01
302.791;000.160;52;000.555;MIDI 01
302.798;000.201;55;000.570;MIDI 01
302.920;000.102;82;000.594;MIDI 01
302.943;000.109;57;000.594;MIDI 01
303.043;000.095;69;000.664;MIDI 01
303.046;000.134;49;000.602;MIDI 01
303.167;000.112;81;000.617;MIDI 01
303.171;000.130;57;000.602;MIDI 01
303.289;000.153;70;000.680;MIDI 01
303.283;000.170;52;000.555;MIDI 01
303.297;000.220;55;000.555;MIDI 01
303.422;000.098;82;000.609;MIDI 01
303.464;000.057;79;000.055;MIDI 01
303.439;000.110;57;000.617;MIDI 01
303.539;000.094;69;000.680;MIDI 01
303.543;000.146;49;000.625;MIDI 01
303.659;000.114;81;000.633;MIDI 01
303.669;000.136;57;000.625;MIDI 01
303.699;000.108;79;000.211;MIDI 01
303.777;000.165;70;000.703;MIDI 01
303.783;000.161;52;000.586;MIDI 01
303.910;000.058;76;000.125;MIDI 01
303.914;000.070;82;000.625;MIDI 01
303.793;000.206;55;000.586;MIDI 01
303.942;000.093;57;000.625;MIDI 01
304.066;000.066;69;000.672;MIDI 01
304.055;000.083;81;000.727;MIDI 01
304.064;000.164;49;000.602;MIDI 01
304.212;000.159;57;000.570;MIDI 01
304.351;000.172;52;000.547;MIDI 01
304.363;000.191;55;000.555;MIDI 01
304.523;000.104;57;000.539;MIDI 01
304.660;000.128;49;000.578;MIDI 01
304.776;000.141;57;000.578;MIDI 01
304.375;000.632;70;000.719;MIDI 01
304.377;000.636;82;000.711;MIDI 01
304.902;000.129;52;000.500;MIDI 01
304.905;000.173;55;000.531;MIDI 01
305.060;000.090;57;000.539;MIDI 01
305.167;000.075;81;000.562;MIDI 01
305.169;000.097;69;000.531;MIDI 01
305.163;000.156;49;000.523;MIDI 01
305.295;000.088;57;000.523;MIDI 01
305.377;000.100;52;000.430;MIDI 01
305.446;000.071;79;000.547;MIDI 01
305.409;000.111;55;000.445;MIDI 01
305.450;000.101;67;000.484;MIDI 01
305.549;000.065;57;000.484;MIDI 01
305.685;000.082;50;000.430;MIDI 01
305.700;000.078;77;000.539;MIDI 01
305.702;000.097;65;000.492;MIDI 01
305.789;000.134;57;000.430;MIDI 01
305.975;000.061;76;000.539;MIDI 01
305.977;000.073;64;000.461;MIDI 01
305.935;000.164;53;000.430;MIDI 01
306.080;000.077;57;000.422;MIDI 01
306.197;000.073;50;000.391;MIDI 01
306.244;000.054;74;000.484;MIDI 01
306.247;000.061;62;000.406;MIDI 01
306.321;000.058;57;000.445;MIDI 01
306.489;000.054;61;000.461;MIDI 01
306.467;000.115;45;000.438;MIDI 01
306.476;000.118;73;000.531;MIDI 01
306.585;000.093;55;000.430;MIDI 01
306.765;000.053;62;000.430;MIDI 01
306.767;000.058;74;000.492;MIDI 01
306.729;000.114;52;000.391;MIDI 01
306.847;000.093;55;000.430;MIDI 01
307.024;000.054;76;000.500;MIDI 01
307.031;000.085;64;000.398;MIDI 01
307.002;000.139;45;000.414;MIDI 01
307.136;000.107;55;000.422;MIDI 01
307.282;000.036;62;000.359;MIDI 01
307.289;000.085;74;000.445;MIDI 01
307.302;000.122;46;000.398;MIDI 01
307.435;000.089;53;000.414;MIDI 01
307.556;000.069;70;000.492;MIDI 01
307.554;000.095;82;000.500;MIDI 01
307.692;000.072;53;000.406;MIDI 01
307.552;000.217;50;000.453;MIDI 01
307.803;000.080;46;000.484;MIDI 01
307.809;000.097;82;000.555;MIDI 01
307.819;000.091;70;000.539;MIDI 01
307.923;000.082;53;000.453;MIDI 01
308.077;000.095;70;000.492;MIDI 01
308.074;000.100;82;000.492;MIDI 01
308.069;000.144;43;000.461;MIDI 01
308.208;000.107;51;000.414;MIDI 01
308.345;000.073;81;000.508;MIDI 01
308.343;000.090;69;000.469;MIDI 01
308.473;000.065;51;000.484;MIDI 01
308.607;000.072;79;000.508;MIDI 01
308.614;000.101;43;000.414;MIDI 01
308.610;000.114;67;000.438;MIDI 01
308.316;000.443;46;000.430;MIDI 01
308.701;000.101;51;000.445;MIDI 01
308.836;000.105;45;000.445;MIDI 01
308.871;000.086;77;000.523;MIDI 01
308.875;000.118;65;000.461;MIDI 01
308.975;000.107;53;000.477;MIDI 01
309.100;000.083;50;000.492;MIDI 01
309.128;000.092;76;000.570;MIDI 01
309.135;000.111;64;000.484;MIDI 01
309.240;000.109;53;000.516;MIDI 01
309.404;000.077;74;000.602;MIDI 01
309.405;000.079;62;000.539;MIDI 01
309.371;000.121;45;000.531;MIDI 01
309.514;000.060;53;000.492;MIDI 01
309.639;000.085;61;000.555;MIDI 01
309.636;000.131;73;000.578;MIDI 01
309.647;000.123;43;000.500;MIDI 01
309.765;000.126;52;000.492;MIDI 01
309.902;000.085;62;000.516;MIDI 01
309.900;000.098;74;000.602;MIDI 01
309.887;000.150;45;000.539;MIDI 01
310.030;000.101;52;000.531;MIDI 01
310.161;000.078;76;000.617;MIDI 01
310.164;000.099;64;000.570;MIDI 01
310.154;000.132;43;000.531;MIDI 01
310.284;000.093;52;000.516;MIDI 01
310.422;000.033;62;000.547;MIDI 01
310.424;000.084;74;000.641;MIDI 01
310.418;000.149;41;000.570;MIDI 01
310.554;000.126;50;000.539;MIDI 01
310.686;000.086;70;000.617;MIDI 01
310.684;000.095;82;000.609;MIDI 01
310.678;000.147;40;000.570;MIDI 01
310.821;000.113;50;000.531;MIDI 01
310.951;000.106;70;000.609;MIDI 01
310.924;000.138;41;000.562;MIDI 01
310.949;000.115;82;000.617;MIDI 01
311.072;000.072;50;000.602;MIDI 01
311.222;000.096;70;000.602;MIDI 01
311.200;000.126;43;000.578;MIDI 01
311.224;000.106;82;000.625;MIDI 01
311.361;000.062;52;000.469;MIDI 01
311.330;000.134;50;000.422;MIDI 01
311.493;000.077;81;000.555;MIDI 01
311.501;000.095;69;000.477;MIDI 01
311.472;000.143;41;000.578;MIDI 01
311.626;000.082;52;000.453;MIDI 01
311.624;000.115;50;000.484;MIDI 01
311.747;000.084;79;000.594;MIDI 01
311.752;000.096;43;000.594;MIDI 01
311.749;000.103;67;000.531;MIDI 01
311.867;000.073;52;000.523;MIDI 01
311.877;000.086;50;000.445;MIDI 01
311.995;000.112;45;000.602;MIDI 01
312.014;000.105;77;000.586;MIDI 01
312.011;000.131;65;000.547;MIDI 01
312.111;000.105;53;000.477;MIDI 01
312.118;000.111;50;000.492;MIDI 01
312.276;000.100;76;000.648;MIDI 01
312.244;000.140;44;000.609;MIDI 01
312.282;000.109;64;000.562;MIDI 01
312.391;000.081;53;000.508;MIDI 01
312.383;000.125;50;000.531;MIDI 01
312.543;000.090;74;000.656;MIDI 01
312.545;000.090;62;000.617;MIDI 01
312.514;000.142;45;000.609;MIDI 01
312.659;000.073;53;000.469;MIDI 01
312.655;000.112;50;000.547;MIDI 01
312.805;000.098;61;000.609;MIDI 01
312.796;000.125;45;000.664;MIDI 01
312.801;000.153;73;000.625;MIDI 01
312.921;000.078;55;000.586;MIDI 01
312.940;000.083;52;000.555;MIDI 01
313.070;000.083;62;000.578;MIDI 01
313.068;000.111;74;000.688;MIDI 01
313.056;000.128;45;000.680;MIDI 01
313.184;000.074;53;000.547;MIDI 01
313.176;000.089;50;000.562;MIDI 01
313.342;000.078;76;000.641;MIDI 01
313.316;000.119;45;000.586;MIDI 01
313.347;000.094;64;000.570;MIDI 01
313.428;000.042;52;000.539;MIDI 01
313.441;000.091;49;000.547;MIDI 01
313.649;000.047;38;000.539;MIDI 01
313.660;000.135;62;000.406;MIDI 01
313.652;000.148;74;000.516;MIDI 01
313.835;000.059;53;000.469;MIDI 01
313.946;000.076;50;000.430;MIDI 01
314.083;000.068;53;000.391;MIDI 01
314.209;000.060;45;000.414;MIDI 01
314.229;000.117;62;000.453;MIDI 01
314.321;000.038;53;000.453;MIDI 01
314.470;000.040;38;000.492;MIDI 01
314.350;000.217;74;000.438;MIDI 01
314.483;000.092;65;000.422;MIDI 01
314.634;000.072;53;000.453;MIDI 01
314.738;000.087;50;000.406;MIDI 01
314.882;000.060;53;000.406;MIDI 01
315.016;000.056;45;000.438;MIDI 01
315.044;000.127;65;000.461;MIDI 01
315.124;000.049;53;000.469;MIDI 01
315.266;000.046;38;000.531;MIDI 01
315.171;000.158;77;000.422;MIDI 01
315.301;000.094;69;000.477;MIDI 01
315.446;000.076;53;000.453;MIDI 01
315.539;000.089;50;000.445;MIDI 01
315.692;000.065;53;000.406;MIDI 01
315.820;000.066;45;000.484;MIDI 01
315.828;000.102;69;000.461;MIDI 01
315.939;000.027;81;000.484;MIDI 01
315.927;000.044;53;000.492;MIDI 01
316.062;000.048;38;000.539;MIDI 01
316.098;000.065;65;000.523;MIDI 01
316.230;000.078;53;000.469;MIDI 01
316.335;000.102;50;000.461;MIDI 01
316.484;000.064;53;000.391;MIDI 01
316.607;000.066;45;000.445;MIDI 01
316.709;000.046;53;000.516;MIDI 01
316.640;000.118;65;000.461;MIDI 01
316.755;000.038;77;000.547;MIDI 01
316.859;000.030;33;000.578;MIDI 01
317.035;000.092;53;000.508;MIDI 01
317.159;000.129;50;000.422;MIDI 01
317.289;000.066;53;000.477;MIDI 01
317.418;000.054;45;000.445;MIDI 01
317.512;000.039;53;000.531;MIDI 01
316.901;000.676;62;000.516;MIDI 01
317.642;000.035;33;000.633;MIDI 01
317.689;000.043;35;000.398;MIDI 01
317.165;000.669;74;000.547;MIDI 01
317.814;000.070;55;000.523;MIDI 01
317.929;000.070;76;000.617;MIDI 01
317.936;000.067;64;000.578;MIDI 01
317.911;000.197;52;000.508;MIDI 01
318.052;000.085;55;000.539;MIDI 01
318.196;000.090;61;000.609;MIDI 01
318.184;000.130;45;000.539;MIDI 01
318.186;000.150;73;000.672;MIDI 01
318.295;000.064;55;000.625;MIDI 01
318.454;000.082;38;000.586;MIDI 01
318.471;000.107;74;000.625;MIDI 01
318.475;000.108;62;000.531;MIDI 01
318.632;000.106;53;000.531;MIDI 01
318.762;000.104;50;000.438;MIDI 01
318.877;000.069;62;000.359;MIDI 01
318.905;000.069;53;000.422;MIDI 01
319.032;000.066;45;000.438;MIDI 01
318.994;000.121;74;000.484;MIDI 01
319.144;000.037;53;000.422;MIDI 01
319.134;000.100;62;000.477;MIDI 01
319.267;000.041;38;000.516;MIDI 01
319.280;000.074;65;000.453;MIDI 01
319.436;000.058;53;000.438;MIDI 01
319.540;000.090;50;000.422;MIDI 01
319.684;000.072;53;000.414;MIDI 01
319.711;000.075;65;000.492;MIDI 01
319.814;000.076;45;000.445;MIDI 01
319.928;000.047;53;000.500;MIDI 01
319.840;000.199;77;000.500;MIDI 01
319.942;000.121;65;000.508;MIDI 01
320.067;000.046;38;000.547;MIDI 01
320.074;000.076;69;000.555;MIDI 01
320.231;000.075;53;000.523;MIDI 01
320.329;000.111;50;000.391;MIDI 01
320.469;000.071;53;000.477;MIDI 01
320.484;000.076;69;000.469;MIDI 01
320.600;000.053;81;000.523;MIDI 01
320.594;000.066;45;000.492;MIDI 01
320.701;000.048;53;000.523;MIDI 01
320.714;000.123;69;000.492;MIDI 01
320.831;000.040;38;000.516;MIDI 01
320.848;000.100;65;000.500;MIDI 01
320.995;000.060;53;000.469;MIDI 01
321.092;000.119;50;000.359;MIDI 01
321.247;000.055;53;000.344;MIDI 01
321.249;000.075;65;000.453;MIDI 01
321.345;000.073;45;000.461;MIDI 01
321.370;000.060;77;000.492;MIDI 01
321.444;000.042;53;000.492;MIDI 01
321.490;000.106;65;000.508;MIDI 01
321.591;000.032;33;000.555;MIDI 01
321.654;000.054;35;000.258;MIDI 01
321.756;000.099;53;000.508;MIDI 01
321.880;000.134;50;000.477;MIDI 01
322.015;000.083;53;000.508;MIDI 01
322.144;000.072;45;000.500;MIDI 01
322.250;000.039;53;000.578;MIDI 01
321.620;000.707;62;000.547;MIDI 01
322.384;000.036;33;000.602;MIDI 01
322.433;000.043;35;000.383;MIDI 01
321.898;000.669;74;000.586;MIDI 01
322.554;000.093;55;000.516;MIDI 01
322.647;000.070;76;000.609;MIDI 01
322.651;000.074;64;000.594;MIDI 01
322.667;000.198;52;000.484;MIDI 01
322.812;000.085;55;000.531;MIDI 01
322.919;000.097;45;000.500;MIDI 01
322.952;000.092;61;000.547;MIDI 01
323.051;000.039;55;000.516;MIDI 01
322.936;000.195;73;000.609;MIDI 01
323.210;000.048;62;000.469;MIDI 01
323.208;000.074;50;000.500;MIDI 01
323.224;000.179;74;000.539;MIDI 01
323.361;000.093;62;000.492;MIDI 01
323.485;000.085;61;000.492;MIDI 01
323.624;000.090;62;000.453;MIDI 01
323.512;000.241;76;000.492;MIDI 01
323.760;000.096;60;000.422;MIDI 01
323.896;000.113;62;000.438;MIDI 01
323.781;000.342;78;000.492;MIDI 01
324.048;000.124;58;000.375;MIDI 01
324.055;000.173;79;000.516;MIDI 01
324.176;000.114;62;000.461;MIDI 01
324.305;000.107;57;000.445;MIDI 01
324.324;000.137;77;000.469;MIDI 01
324.326;000.136;86;000.508;MIDI 01
324.434;000.106;62;000.445;MIDI 01
324.589;000.100;76;000.609;MIDI 01
324.562;000.130;56;000.508;MIDI 01
324.595;000.116;86;000.586;MIDI 01
324.708;000.075;62;000.492;MIDI 01
324.843;000.089;77;000.578;MIDI 01
324.858;000.170;86;000.578;MIDI 01
324.841;000.202;57;000.531;MIDI 01
324.980;000.141;62;000.508;MIDI 01
325.120;000.095;73;000.578;MIDI 01
325.117;000.125;64;000.578;MIDI 01
325.113;000.171;85;000.586;MIDI 01
325.241;000.111;57;000.516;MIDI 01
325.413;000.029;84;000.422;MIDI 01
325.381;000.091;74;000.562;MIDI 01
325.360;000.114;65;000.602;MIDI 01
325.376;000.124;86;000.531;MIDI 01
325.490;000.121;57;000.586;MIDI 01
325.640;000.071;88;000.664;MIDI 01
325.618;000.104;67;000.602;MIDI 01
325.643;000.100;76;000.648;MIDI 01
325.754;000.101;57;000.586;MIDI 01
325.906;000.069;71;000.602;MIDI 01
325.881;000.107;65;000.578;MIDI 01
325.903;000.101;83;000.656;MIDI 01
326.015;000.119;57;000.500;MIDI 01
326.124;000.086;64;000.609;MIDI 01
326.151;000.100;73;000.617;MIDI 01
326.154;000.153;85;000.578;MIDI 01
326.281;000.115;57;000.523;MIDI 01
326.396;000.077;50;000.539;MIDI 01
326.420;000.076;74;000.547;MIDI 01
326.540;000.100;62;000.492;MIDI 01
326.551;000.091;86;000.539;MIDI 01
326.664;000.091;61;000.562;MIDI 01
326.679;000.122;76;000.594;MIDI 01
326.798;000.117;62;000.531;MIDI 01
326.801;000.120;86;000.562;MIDI 01
326.913;000.109;60;000.562;MIDI 01
326.930;000.097;78;000.633;MIDI 01
327.064;000.100;86;000.594;MIDI 01
327.057;000.122;62;000.547;MIDI 01
327.184;000.114;79;000.602;MIDI 01
327.191;000.116;58;000.578;MIDI 01
327.320;000.120;62;000.570;MIDI 01
327.470;000.002;58;000.195;MIDI 01
327.328;000.150;86;000.539;MIDI 01
327.474;000.071;57;000.508;MIDI 01
327.457;000.130;77;000.547;MIDI 01
327.574;000.100;62;000.484;MIDI 01
327.648;000.106;86;000.508;MIDI 01
327.694;000.125;56;000.523;MIDI 01
327.824;000.069;62;000.594;MIDI 01
327.855;000.047;77;000.414;MIDI 01
327.875;000.035;76;000.312;MIDI 01
327.998;000.084;77;000.617;MIDI 01
327.965;000.179;57;000.594;MIDI 01
328.110;000.036;62;000.492;MIDI 01
328.258;000.036;86;000.305;MIDI 01
328.266;000.039;62;000.297;MIDI 01
328.256;000.084;57;000.594;MIDI 01
328.469;000.114;77;000.602;MIDI 01
328.460;000.131;57;000.602;MIDI 01
328.620;000.115;86;000.586;MIDI 01
328.582;000.173;62;000.609;MIDI 01
328.755;000.070;65;000.484;MIDI 01
328.750;000.103;64;000.469;MIDI 01
328.776;000.094;73;000.664;MIDI 01
328.921;000.075;86;000.555;MIDI 01
328.874;000.141;57;000.586;MIDI 01
329.032;000.069;74;000.648;MIDI 01
329.015;000.134;65;000.609;MIDI 01
329.155;000.116;86;000.586;MIDI 01
329.153;000.119;57;000.594;MIDI 01
329.296;000.080;76;000.656;MIDI 01
329.294;000.101;67;000.625;MIDI 01
329.406;000.053;88;000.594;MIDI 01
329.431;000.066;57;000.547;MIDI 01
329.555;000.079;73;000.586;MIDI 01
329.568;000.109;62;000.562;MIDI 01
329.717;000.023;48;000.414;MIDI 01
329.696;000.102;50;000.414;MIDI 01
329.669;000.137;85;000.555;MIDI 01
329.831;000.058;62;000.523;MIDI 01
329.815;000.092;74;000.578;MIDI 01
329.968;000.040;86;000.531;MIDI 01
330.059;000.083;50;000.625;MIDI 01
330.069;000.089;74;000.594;MIDI 01
330.202;000.036;86;000.570;MIDI 01
330.217;000.104;62;000.555;MIDI 01
330.365;000.075;73;000.586;MIDI 01
330.374;000.074;61;000.547;MIDI 01
330.480;000.097;62;000.562;MIDI 01
330.506;000.091;74;000.570;MIDI 01
330.630;000.082;86;000.617;MIDI 01
330.616;000.103;50;000.594;MIDI 01
330.750;000.133;62;000.555;MIDI 01
330.752;000.144;74;000.602;MIDI 01
330.891;000.119;73;000.664;MIDI 01
330.893;000.122;61;000.625;MIDI 01
331.027;000.090;62;000.594;MIDI 01
331.030;000.093;74;000.641;MIDI 01
331.156;000.074;50;000.555;MIDI 01
331.170;000.065;86;000.586;MIDI 01
331.273;000.124;62;000.562;MIDI 01
331.271;000.148;74;000.570;MIDI 01
331.417;000.102;73;000.633;MIDI 01
331.409;000.117;61;000.602;MIDI 01
331.541;000.102;62;000.633;MIDI 01
331.543;000.102;74;000.664;MIDI 01
331.674;000.076;50;000.617;MIDI 01
331.684;000.074;86;000.648;MIDI 01
331.820;000.109;62;000.516;MIDI 01
331.804;000.127;74;000.555;MIDI 01
331.946;000.100;61;000.562;MIDI 01
331.948;000.105;73;000.586;MIDI 01
332.066;000.086;62;000.617;MIDI 01
332.073;000.099;74;000.633;MIDI 01
332.186;000.080;50;000.648;MIDI 01
332.204;000.073;86;000.656;MIDI 01
332.315;000.124;62;000.609;MIDI 01
332.320;000.128;74;000.594;MIDI 01
332.448;000.095;73;000.633;MIDI 01
332.435;000.109;61;000.633;MIDI 01
332.581;000.080;74;000.602;MIDI 01
332.570;000.094;62;000.602;MIDI 01
332.692;000.066;86;000.594;MIDI 01
332.681;000.092;50;000.570;MIDI 01
332.810;000.111;74;000.570;MIDI 01
332.845;000.093;62;000.500;MIDI 01
332.933;000.078;61;000.523;MIDI 01
332.950;000.111;73;000.555;MIDI 01
333.086;000.131;74;000.570;MIDI 01
333.298;000.088;75;000.414;MIDI 01
333.432;000.081;74;000.406;MIDI 01
333.574;000.071;75;000.375;MIDI 01
333.324;000.358;66;000.367;MIDI 01
333.296;000.428;69;000.375;MIDI 01
333.308;000.444;72;000.344;MIDI 01
333.709;000.065;74;000.367;MIDI 01
333.842;000.068;75;000.320;MIDI 01
333.985;000.066;74;000.320;MIDI 01
334.116;000.078;75;000.266;MIDI 01
334.254;000.073;74;000.297;MIDI 01
334.374;000.080;75;000.297;MIDI 01
334.526;000.066;74;000.305;MIDI 01
334.642;000.077;75;000.352;MIDI 01
334.791;000.067;74;000.320;MIDI 01
334.919;000.073;75;000.305;MIDI 01
335.061;000.082;74;000.305;MIDI 01
335.191;000.077;75;000.312;MIDI 01
335.330;000.074;74;000.336;MIDI 01
335.449;000.089;75;000.359;MIDI 01
335.597;000.083;74;000.359;MIDI 01
335.722;000.113;75;000.391;MIDI 01
335.871;000.092;74;000.406;MIDI 01
336.005;000.027;75;000.430;MIDI 01
336.140;000.225;75;000.500;MIDI 01
336.323;000.132;81;000.398;MIDI 01
336.468;000.129;82;000.398;MIDI 01
336.603;000.157;84;000.391;MIDI 01
336.628;000.559;66;000.297;MIDI 01
336.936;000.271;72;000.281;MIDI 01
336.792;000.428;69;000.320;MIDI 01
337.059;000.209;75;000.258;MIDI 01
337.185;000.154;81;000.297;MIDI 01
337.330;000.206;82;000.336;MIDI 01
337.472;000.177;84;000.305;MIDI 01
337.482;000.492;66;000.312;MIDI 01
337.767;000.227;72;000.258;MIDI 01
337.643;000.379;69;000.273;MIDI 01
337.936;000.094;75;000.203;MIDI 01
338.065;000.092;81;000.219;MIDI 01
338.194;000.177;82;000.336;MIDI 01
338.325;000.182;84;000.320;MIDI 01
338.297;000.512;66;000.305;MIDI 01
338.471;000.392;69;000.273;MIDI 01
338.616;000.267;72;000.273;MIDI 01
338.890;000.229;81;000.266;MIDI 01
339.028;000.135;82;000.367;MIDI 01
338.786;000.436;75;000.242;MIDI 01
339.182;000.081;84;000.305;MIDI 01
339.420;000.053;72;000.336;MIDI 01
339.299;000.230;69;000.242;MIDI 01
339.153;000.379;66;000.266;MIDI 01
339.744;000.203;84;000.422;MIDI 01
339.893;000.198;81;000.406;MIDI 01
340.091;000.101;82;000.375;MIDI 01
339.569;000.692;74;000.383;MIDI 01
340.380;000.172;62;000.320;MIDI 01
340.073;000.521;55;000.273;MIDI 01
340.248;000.417;58;000.234;MIDI 01
340.672;000.227;70;000.312;MIDI 01
340.526;000.400;67;000.320;MIDI 01
340.808;000.198;74;000.320;MIDI 01
340.907;000.445;55;000.320;MIDI 01
341.191;000.185;61;000.312;MIDI 01
341.045;000.382;58;000.305;MIDI 01
341.580;000.120;73;000.398;MIDI 01
341.450;000.255;70;000.344;MIDI 01
341.311;000.410;67;000.281;MIDI 01
341.830;000.245;58;000.336;MIDI 01
341.961;000.173;62;000.422;MIDI 01
341.691;000.484;55;000.375;MIDI 01
342.214;000.148;70;000.383;MIDI 01
342.109;000.300;67;000.352;MIDI 01
342.352;000.067;74;000.383;MIDI 01
342.456;000.317;55;000.406;MIDI 01
342.596;000.217;61;000.391;MIDI 01
342.733;000.110;64;000.414;MIDI 01
342.865;000.230;67;000.352;MIDI 01
342.990;000.145;70;000.406;MIDI 01
343.185;000.054;76;000.203;MIDI 01
343.308;000.592;68;000.383;MIDI 01
343.466;000.495;71;000.336;MIDI 01
343.606;000.370;74;000.359;MIDI 01
343.944;000.216;83;000.086;MIDI 01
344.019;000.188;85;000.414;MIDI 01
343.722;000.551;77;000.391;MIDI 01
344.186;000.101;86;000.398;MIDI 01
344.166;000.570;68;000.305;MIDI 01
344.477;000.281;74;000.297;MIDI 01
344.335;000.434;71;000.273;MIDI 01
344.753;000.233;83;000.297;MIDI 01
344.902;000.109;85;000.352;MIDI 01
344.622;000.517;77;000.273;MIDI 01
345.045;000.153;86;000.312;MIDI 01
345.042;000.528;68;000.320;MIDI 01
345.343;000.277;74;000.273;MIDI 01
345.205;000.430;71;000.273;MIDI 01
345.757;000.100;85;000.359;MIDI 01
345.613;000.250;83;000.289;MIDI 01
345.508;000.447;77;000.227;MIDI 01
345.892;000.171;86;000.352;MIDI 01
346.170;000.071;74;000.344;MIDI 01
346.049;000.240;71;000.203;MIDI 01
345.895;000.420;68;000.328;MIDI 01
346.472;000.195;86;000.383;MIDI 01
346.605;000.238;83;000.352;MIDI 01
346.812;000.116;85;000.375;MIDI 01
346.309;000.691;76;000.344;MIDI 01
346.841;000.454;57;000.211;MIDI 01
347.126;000.179;64;000.305;MIDI 01
346.980;000.398;61;000.281;MIDI 01
347.395;000.223;73;000.352;MIDI 01
347.265;000.393;69;000.336;MIDI 01
347.546;000.168;76;000.367;MIDI 01
347.650;000.404;57;000.297;MIDI 01
347.932;000.165;63;000.281;MIDI 01
347.785;000.425;61;000.297;MIDI 01
348.317;000.081;75;000.375;MIDI 01
348.175;000.227;73;000.320;MIDI 01
348.065;000.373;69;000.258;MIDI 01
348.430;000.429;57;000.352;MIDI 01
348.701;000.177;64;000.430;MIDI 01
348.570;000.368;61;000.383;MIDI 01
348.957;000.168;73;000.398;MIDI 01
348.825;000.321;69;000.406;MIDI 01
349.085;000.105;76;000.445;MIDI 01
349.219;000.459;57;000.398;MIDI 01
349.476;000.245;66;000.469;MIDI 01
349.340;000.429;61;000.453;MIDI 01
349.725;000.189;73;000.438;MIDI 01
349.611;000.311;69;000.406;MIDI 01
349.873;000.133;78;000.453;MIDI 01
350.003;000.450;57;000.422;MIDI 01
350.270;000.225;67;000.430;MIDI 01
350.137;000.416;61;000.461;MIDI 01
350.544;000.194;73;000.461;MIDI 01
350.406;000.387;69;000.422;MIDI 01
350.700;000.114;79;000.422;MIDI 01
350.812;000.435;57;000.344;MIDI 01
351.066;000.205;66;000.375;MIDI 01
350.930;000.416;61;000.406;MIDI 01
351.331;000.201;73;000.352;MIDI 01
351.198;000.337;69;000.328;MIDI 01
351.471;000.191;78;000.383;MIDI 01
351.886;000.150;67;000.320;MIDI 01
351.615;000.442;57;000.250;MIDI 01
351.719;000.492;61;000.359;MIDI 01
352.172;000.184;73;000.312;MIDI 01
352.041;000.343;69;000.273;MIDI 01
352.332;000.173;79;000.273;MIDI 01
352.441;000.342;57;000.281;MIDI 01
352.714;000.196;65;000.281;MIDI 01
352.575;000.445;61;000.297;MIDI 01
352.985;000.258;73;000.320;MIDI 01
353.154;000.101;77;000.258;MIDI 01
352.860;000.427;69;000.266;MIDI 01
353.248;000.289;57;000.273;MIDI 01
353.507;000.212;64;000.305;MIDI 01
353.383;000.374;61;000.305;MIDI 01
353.789;000.226;73;000.312;MIDI 01
353.624;000.400;69;000.320;MIDI 01
353.914;000.195;76;000.344;MIDI 01
354.030;000.527;57;000.336;MIDI 01
354.292;000.276;63;000.352;MIDI 01
354.144;000.593;61;000.328;MIDI 01
354.717;000.079;75;000.383;MIDI 01
354.459;000.342;69;000.258;MIDI 01
354.579;000.227;73;000.312;MIDI 01
355.101;000.209;64;000.430;MIDI 01
354.864;000.488;57;000.375;MIDI 01
355.006;000.389;61;000.367;MIDI 01
355.347;000.212;73;000.445;MIDI 01
355.227;000.372;69;000.406;MIDI 01
355.481;000.140;76;000.484;MIDI 01
355.647;000.448;57;000.391;MIDI 01
355.902;000.258;66;000.469;MIDI 01
355.760;000.498;61;000.469;MIDI 01
356.027;000.328;69;000.461;MIDI 01
356.160;000.220;73;000.523;MIDI 01
356.309;000.181;78;000.508;MIDI 01
356.456;000.493;57;000.430;MIDI 01
356.718;000.324;67;000.453;MIDI 01
356.566;000.507;61;000.461;MIDI 01
356.870;000.314;69;000.430;MIDI 01
357.014;000.191;73;000.422;MIDI 01
357.180;000.152;79;000.398;MIDI 01
357.320;000.367;57;000.320;MIDI 01
357.565;000.301;67;000.312;MIDI 01
357.427;000.534;61;000.344;MIDI 01
357.709;000.301;69;000.344;MIDI 01
357.861;000.185;73;000.336;MIDI 01
358.010;000.253;79;000.336;MIDI 01
358.116;000.278;57;000.328;MIDI 01
358.385;000.098;67;000.312;MIDI 01
358.247;000.432;61;000.344;MIDI 01
358.689;000.221;73;000.312;MIDI 01
358.535;000.515;69;000.328;MIDI 01
358.847;000.341;79;000.297;MIDI 01
358.975;000.282;57;000.297;MIDI 01
359.144;000.265;61;000.281;MIDI 01
359.290;000.164;64;000.352;MIDI 01
359.493;000.554;69;000.477;MIDI 01
359.692;000.372;77;000.703;MIDI 01
359.833;000.239;76;000.672;MIDI 01
359.696;000.402;81;000.680;MIDI 01
360.008;000.170;74;000.711;MIDI 01
360.012;000.168;50;000.625;MIDI 01
360.151;000.112;57;000.562;MIDI 01
360.290;000.221;62;000.617;MIDI 01
360.432;000.080;65;000.602;MIDI 01
360.575;000.335;77;000.688;MIDI 01
360.715;000.203;76;000.688;MIDI 01
360.434;000.515;69;000.672;MIDI 01
360.579;000.407;81;000.680;MIDI 01
360.867;000.133;74;000.688;MIDI 01
360.865;000.153;50;000.609;MIDI 01
360.990;000.119;57;000.602;MIDI 01
361.139;000.199;62;000.609;MIDI 01
361.278;000.081;65;000.594;MIDI 01
361.473;000.108;62;000.078;MIDI 01
361.416;000.326;77;000.688;MIDI 01
361.549;000.208;76;000.688;MIDI 01
361.273;000.514;69;000.656;MIDI 01
361.420;000.447;81;000.703;MIDI 01
361.714;000.160;50;000.570;MIDI 01
361.707;000.191;74;000.602;MIDI 01
361.841;000.103;57;000.609;MIDI 01
361.978;000.150;62;000.625;MIDI 01
362.095;000.065;65;000.602;MIDI 01
362.373;000.207;74;000.672;MIDI 01
362.236;000.366;77;000.695;MIDI 01
362.530;000.086;45;000.594;MIDI 01
362.242;000.428;81;000.695;MIDI 01
362.106;000.583;69;000.641;MIDI 01
362.535;000.191;76;000.641;MIDI 01
362.805;000.122;61;000.625;MIDI 01
362.931;000.050;64;000.547;MIDI 01
362.670;000.603;57;000.562;MIDI 01
363.082;000.249;79;000.719;MIDI 01
363.220;000.199;77;000.672;MIDI 01
363.365;000.093;45;000.594;MIDI 01
363.084;000.484;81;000.719;MIDI 01
362.945;000.634;69;000.648;MIDI 01
363.368;000.251;76;000.656;MIDI 01
363.645;000.142;61;000.594;MIDI 01
363.778;000.072;64;000.602;MIDI 01
363.925;000.204;81;000.703;MIDI 01
363.920;000.215;79;000.703;MIDI 01
363.501;000.646;57;000.555;MIDI 01
363.786;000.363;69;000.617;MIDI 01
364.058;000.202;77;000.648;MIDI 01
364.218;000.087;45;000.625;MIDI 01
364.215;000.123;76;000.664;MIDI 01
364.496;000.121;61;000.594;MIDI 01
364.615;000.048;64;000.555;MIDI 01
364.727;000.228;79;000.680;MIDI 01
364.356;000.619;57;000.555;MIDI 01
364.860;000.197;77;000.672;MIDI 01
365.025;000.071;45;000.586;MIDI 01
364.593;000.541;69;000.656;MIDI 01
364.732;000.425;81;000.695;MIDI 01
365.001;000.158;76;000.656;MIDI 01
365.279;000.111;61;000.578;MIDI 01
365.147;000.280;57;000.570;MIDI 01
365.386;000.048;64;000.555;MIDI 01
365.423;000.307;69;000.602;MIDI 01
365.674;000.238;76;000.656;MIDI 01
365.533;000.416;79;000.680;MIDI 01
365.541;000.413;81;000.648;MIDI 01
365.834;000.141;50;000.477;MIDI 01
365.839;000.141;77;000.594;MIDI 01
365.962;000.094;57;000.484;MIDI 01
366.096;000.145;62;000.492;MIDI 01
366.236;000.047;65;000.422;MIDI 01
366.269;000.171;74;000.547;MIDI 01
366.413;000.078;81;000.492;MIDI 01
366.528;000.225;86;000.445;MIDI 01
366.704;000.154;82;000.453;MIDI 01
367.009;000.089;67;000.398;MIDI 01
366.863;000.296;62;000.422;MIDI 01
366.723;000.462;55;000.344;MIDI 01
367.124;000.159;70;000.453;MIDI 01
367.249;000.289;74;000.531;MIDI 01
367.507;000.165;79;000.570;MIDI 01
367.365;000.324;82;000.516;MIDI 01
367.793;000.137;63;000.531;MIDI 01
367.536;000.465;51;000.414;MIDI 01
367.672;000.332;58;000.477;MIDI 01
368.071;000.220;70;000.508;MIDI 01
367.922;000.439;67;000.508;MIDI 01
368.197;000.199;79;000.547;MIDI 01
368.346;000.178;76;000.516;MIDI 01
368.364;000.349;49;000.461;MIDI 01
368.650;000.216;61;000.461;MIDI 01
368.509;000.368;57;000.422;MIDI 01
368.779;000.130;64;000.398;MIDI 01
369.025;000.172;76;000.453;MIDI 01
368.905;000.315;69;000.414;MIDI 01
369.189;000.205;77;000.453;MIDI 01
369.444;000.112;62;000.477;MIDI 01
369.303;000.302;57;000.398;MIDI 01
369.172;000.514;50;000.352;MIDI 01
369.586;000.280;65;000.469;MIDI 01
369.708;000.298;69;000.539;MIDI 01
369.826;000.274;77;000.523;MIDI 01
369.950;000.222;74;000.562;MIDI 01
370.125;000.348;53;000.555;MIDI 01
370.260;000.245;57;000.578;MIDI 01
370.000;000.585;45;000.562;MIDI 01
370.366;000.240;62;000.570;MIDI 01
370.511;000.278;69;000.562;MIDI 01
370.637;000.254;74;000.586;MIDI 01
370.779;000.293;73;000.625;MIDI 01
370.914;000.260;52;000.602;MIDI 01
371.032;000.165;55;000.586;MIDI 01
371.158;000.076;57;000.602;MIDI 01
370.772;000.509;45;000.586;MIDI 01
371.171;000.142;61;000.602;MIDI 01
371.312;000.188;69;000.617;MIDI 01
371.414;000.186;73;000.641;MIDI 01
371.568;000.095;38;000.578;MIDI 01
371.553;000.131;74;000.703;MIDI 01
371.690;000.150;50;000.602;MIDI 01
372.136;000.136;65;000.570;MIDI 01
372.264;000.118;69;000.641;MIDI 01
372.387;000.049;74;000.617;MIDI 01
371.837;000.691;53;000.625;MIDI 01
371.982;000.558;57;000.562;MIDI 01
372.134;000.472;62;000.570;MIDI 01
372.514;000.135;77;000.656;MIDI 01
372.642;000.151;81;000.656;MIDI 01
372.780;000.118;77;000.648;MIDI 01
372.924;000.174;86;000.617;MIDI 01
373.069;000.097;81;000.547;MIDI 01
373.269;000.142;82;000.500;MIDI 01
373.547;000.095;67;000.461;MIDI 01
373.415;000.288;62;000.406;MIDI 01
373.265;000.466;55;000.359;MIDI 01
373.719;000.139;70;000.500;MIDI 01
373.839;000.257;74;000.531;MIDI 01
373.960;000.223;82;000.539;MIDI 01
374.094;000.144;79;000.555;MIDI 01
374.399;000.119;63;000.508;MIDI 01
374.146;000.390;51;000.422;MIDI 01
374.269;000.311;58;000.477;MIDI 01
374.522;000.198;67;000.508;MIDI 01
374.643;000.163;70;000.523;MIDI 01
374.766;000.185;79;000.578;MIDI 01
374.914;000.189;76;000.531;MIDI 01
374.928;000.384;49;000.430;MIDI 01
375.069;000.356;57;000.438;MIDI 01
375.205;000.224;61;000.469;MIDI 01
375.346;000.136;64;000.453;MIDI 01
375.470;000.195;69;000.445;MIDI 01
375.600;000.154;76;000.508;MIDI 01
375.753;000.196;77;000.461;MIDI 01
376.009;000.079;62;000.453;MIDI 01
375.863;000.260;57;000.438;MIDI 01
375.746;000.460;50;000.375;MIDI 01
376.134;000.199;65;000.477;MIDI 01
376.271;000.340;69;000.508;MIDI 01
376.393;000.230;77;000.531;MIDI 01
376.531;000.215;74;000.539;MIDI 01
376.668;000.272;53;000.539;MIDI 01
376.798;000.201;57;000.562;MIDI 01
376.534;000.533;45;000.523;MIDI 01
376.906;000.199;62;000.547;MIDI 01
377.052;000.250;69;000.562;MIDI 01
377.149;000.294;74;000.539;MIDI 01
377.290;000.318;73;000.609;MIDI 01
377.294;000.400;45;000.547;MIDI 01
377.429;000.273;52;000.555;MIDI 01
377.526;000.231;55;000.562;MIDI 01
377.682;000.135;61;000.633;MIDI 01
377.686;000.150;57;000.516;MIDI 01
377.806;000.206;69;000.586;MIDI 01
377.906;000.177;73;000.594;MIDI 01
378.039;000.105;74;000.633;MIDI 01
378.275;000.060;69;000.625;MIDI 01
378.180;000.404;53;000.594;MIDI 01
378.044;000.572;50;000.594;MIDI 01
378.396;000.292;57;000.531;MIDI 01
378.566;000.243;62;000.578;MIDI 01
378.938;000.128;80;000.523;MIDI 01
378.384;000.770;81;000.734;MIDI 01
379.074;000.114;79;000.562;MIDI 01
379.199;000.108;78;000.562;MIDI 01
379.321;000.130;77;000.555;MIDI 01
379.459;000.087;76;000.555;MIDI 01
379.577;000.053;75;000.422;MIDI 01
379.772;000.105;74;000.461;MIDI 01
379.893;000.265;53;000.422;MIDI 01
380.015;000.205;57;000.484;MIDI 01
379.747;000.507;45;000.305;MIDI 01
380.126;000.219;62;000.523;MIDI 01
380.258;000.268;69;000.516;MIDI 01
380.384;000.366;74;000.531;MIDI 01
380.507;000.271;73;000.578;MIDI 01
380.515;000.386;45;000.570;MIDI 01
380.649;000.266;52;000.570;MIDI 01
380.754;000.203;55;000.641;MIDI 01
380.901;000.123;57;000.539;MIDI 01
380.915;000.133;61;000.602;MIDI 01
381.024;000.224;69;000.602;MIDI 01
381.127;000.195;73;000.633;MIDI 01
381.266;000.089;74;000.641;MIDI 01
381.500;000.068;74;000.672;MIDI 01
381.744;000.216;62;000.586;MIDI 01
381.401;000.583;53;000.562;MIDI 01
381.577;000.416;57;000.555;MIDI 01
381.264;000.782;50;000.609;MIDI 01
382.122;000.127;85;000.547;MIDI 01
381.620;000.749;86;000.750;MIDI 01
382.253;000.155;84;000.570;MIDI 01
382.387;000.129;83;000.602;MIDI 01
382.517;000.084;82;000.562;MIDI 01
382.643;000.106;81;000.555;MIDI 01
382.759;000.094;80;000.477;MIDI 01
382.907;000.082;81;000.531;MIDI 01
383.035;000.269;53;000.430;MIDI 01
383.154;000.155;57;000.508;MIDI 01
382.904;000.468;45;000.398;MIDI 01
383.283;000.208;62;000.516;MIDI 01
383.410;000.257;69;000.531;MIDI 01
383.543;000.193;74;000.578;MIDI 01
383.674;000.186;73;000.570;MIDI 01
383.915;000.125;55;000.602;MIDI 01
383.791;000.283;52;000.562;MIDI 01
384.032;000.102;57;000.609;MIDI 01
384.048;000.139;61;000.617;MIDI 01
383.672;000.582;45;000.570;MIDI 01
384.169;000.220;69;000.609;MIDI 01
384.370;000.057;50;000.562;MIDI 01
384.292;000.148;73;000.617;MIDI 01
384.401;000.083;74;000.672;MIDI 01
384.711;000.064;74;000.664;MIDI 01
384.874;000.042;89;000.555;MIDI 01
384.859;000.082;91;000.758;MIDI 01
384.845;000.663;77;000.758;MIDI 01
384.920;000.654;89;000.398;MIDI 01
385.528;000.139;76;000.578;MIDI 01
385.529;000.181;88;000.617;MIDI 01
385.692;000.082;75;000.539;MIDI 01
385.686;000.097;87;000.609;MIDI 01
385.818;000.077;86;000.547;MIDI 01
385.821;000.082;74;000.539;MIDI 01
385.942;000.056;73;000.531;MIDI 01
385.944;000.077;85;000.547;MIDI 01
386.053;000.073;72;000.531;MIDI 01
386.057;000.101;84;000.570;MIDI 01
386.181;000.058;71;000.523;MIDI 01
386.184;000.078;83;000.570;MIDI 01
386.266;000.050;70;000.539;MIDI 01
386.292;000.051;82;000.539;MIDI 01
386.382;000.056;81;000.562;MIDI 01
386.372;000.079;69;000.547;MIDI 01
386.481;000.047;68;000.453;MIDI 01
386.478;000.052;80;000.500;MIDI 01
386.562;000.062;79;000.570;MIDI 01
386.579;000.062;67;000.586;MIDI 01
386.667;000.053;78;000.594;MIDI 01
386.685;000.040;66;000.492;MIDI 01
386.762;000.060;65;000.602;MIDI 01
386.750;000.083;77;000.602;MIDI 01
386.842;000.079;76;000.625;MIDI 01
386.849;000.095;64;000.539;MIDI 01
386.921;000.097;63;000.469;MIDI 01
386.926;000.114;75;000.625;MIDI 01
386.964;000.084;62;000.602;MIDI 01
387.010;000.089;74;000.633;MIDI 01
387.078;000.054;69;000.688;MIDI 01
387.094;000.050;81;000.734;MIDI 01
387.788;000.068;69;000.531;MIDI 01
387.777;000.134;57;000.438;MIDI 01
388.268;000.109;50;000.344;MIDI 01
388.257;000.142;74;000.414;MIDI 01
388.399;000.062;57;000.430;MIDI 01
388.548;000.119;62;000.414;MIDI 01
388.643;000.035;65;000.453;MIDI 01
388.799;000.161;77;000.469;MIDI 01
388.678;000.369;69;000.453;MIDI 01
388.919;000.130;74;000.453;MIDI 01
389.057;000.067;45;000.391;MIDI 01
389.053;000.146;73;000.477;MIDI 01
389.198;000.124;57;000.438;MIDI 01
389.326;000.066;61;000.430;MIDI 01
389.431;000.041;64;000.289;MIDI 01
389.458;000.242;69;000.414;MIDI 01
389.704;000.134;73;000.430;MIDI 01
389.597;000.307;76;000.414;MIDI 01
389.860;000.053;74;000.422;MIDI 01
389.834;000.099;50;000.352;MIDI 01
389.965;000.051;57;000.391;MIDI 01
390.084;000.146;62;000.461;MIDI 01
390.257;000.062;65;000.094;MIDI 01
390.352;000.164;89;000.477;MIDI 01
390.464;000.148;86;000.516;MIDI 01
390.231;000.419;81;000.484;MIDI 01
390.607;000.060;45;000.430;MIDI 01
390.599;000.131;85;000.492;MIDI 01
390.741;000.127;57;000.430;MIDI 01
390.883;000.067;61;000.414;MIDI 01
390.982;000.039;64;000.328;MIDI 01
391.137;000.251;88;000.445;MIDI 01
391.230;000.198;85;000.375;MIDI 01
391.001;000.454;81;000.438;MIDI 01
391.394;000.067;86;000.414;MIDI 01
391.383;000.090;50;000.328;MIDI 01
391.511;000.054;57;000.352;MIDI 01
391.647;000.123;62;000.438;MIDI 01
391.777;000.035;65;000.375;MIDI 01
391.782;000.310;69;000.438;MIDI 01
392.017;000.126;74;000.469;MIDI 01
391.902;000.265;77;000.453;MIDI 01
392.136;000.062;45;000.398;MIDI 01
392.151;000.121;73;000.469;MIDI 01
392.428;000.052;61;000.375;MIDI 01
392.291;000.239;57;000.367;MIDI 01
392.517;000.035;64;000.344;MIDI 01
392.550;000.250;69;000.383;MIDI 01
392.792;000.134;73;000.391;MIDI 01
392.691;000.269;76;000.367;MIDI 01
392.941;000.049;74;000.414;MIDI 01
392.932;000.077;50;000.281;MIDI 01
393.046;000.042;57;000.320;MIDI 01
393.173;000.136;62;000.445;MIDI 01
393.298;000.036;65;000.367;MIDI 01
393.429;000.160;89;000.492;MIDI 01
393.549;000.145;86;000.477;MIDI 01
393.677;000.052;45;000.398;MIDI 01
393.309;000.429;81;000.477;MIDI 01
393.693;000.140;85;000.453;MIDI 01
393.820;000.104;57;000.406;MIDI 01
393.961;000.059;61;000.359;MIDI 01
394.047;000.034;64;000.367;MIDI 01
394.227;000.250;88;000.422;MIDI 01
394.366;000.136;85;000.359;MIDI 01
394.089;000.430;81;000.398;MIDI 01
394.483;000.097;50;000.305;MIDI 01
394.527;000.078;86;000.367;MIDI 01
394.635;000.041;57;000.273;MIDI 01
394.877;000.032;65;000.391;MIDI 01
394.749;000.370;62;000.445;MIDI 01
394.904;000.234;89;000.398;MIDI 01
395.027;000.169;81;000.422;MIDI 01
395.151;000.108;86;000.477;MIDI 01
395.302;000.071;50;000.352;MIDI 01
395.298;000.108;77;000.469;MIDI 01
395.416;000.050;57;000.422;MIDI 01
395.664;000.033;65;000.438;MIDI 01
395.685;000.206;86;000.492;MIDI 01
395.543;000.381;62;000.445;MIDI 01
395.800;000.192;77;000.422;MIDI 01
395.917;000.109;81;000.516;MIDI 01
396.062;000.086;50;000.438;MIDI 01
396.058;000.122;74;000.516;MIDI 01
396.176;000.073;57;000.492;MIDI 01
396.413;000.046;65;000.523;MIDI 01
396.297;000.173;62;000.508;MIDI 01
396.441;000.286;81;000.531;MIDI 01
396.571;000.206;74;000.562;MIDI 01
396.691;000.130;77;000.539;MIDI 01
396.828;000.100;50;000.469;MIDI 01
396.826;000.132;69;000.555;MIDI 01
396.946;000.078;57;000.539;MIDI 01
397.065;000.156;62;000.570;MIDI 01
397.186;000.042;65;000.531;MIDI 01
397.197;000.149;77;000.516;MIDI 01
397.336;000.125;69;000.477;MIDI 01
397.461;000.101;74;000.500;MIDI 01
397.598;000.176;65;000.461;MIDI 01
397.730;000.129;74;000.500;MIDI 01
397.878;000.037;69;000.398;MIDI 01
397.600;000.383;50;000.305;MIDI 01
397.971;000.038;65;000.477;MIDI 01
398.111;000.100;62;000.438;MIDI 01
398.233;000.097;57;000.430;MIDI 01
398.364;000.141;53;000.328;MIDI 01
398.489;000.134;62;000.414;MIDI 01
398.648;000.073;57;000.328;MIDI 01
398.748;000.143;53;000.375;MIDI 01
398.884;000.098;50;000.227;MIDI 01
399.008;000.120;45;000.266;MIDI 01
399.127;000.242;41;000.266;MIDI 01
399.333;000.949;38;000.297;MIDI 01
