Start;Duration;Pitch;Velocity;Instrument
002.649;001.646;50;000.273;MIDI 01
003.253;002.108;58;000.336;MIDI 01
002.837;002.670;53;000.273;MIDI 01
002.460;004.864;46;000.289;MIDI 01
001.875;005.521;34;000.141;MIDI 01
002.224;005.241;41;000.266;MIDI 01
008.532;001.092;74;000.344;MIDI 01
010.055;000.044;75;000.289;MIDI 01
010.254;000.680;77;000.336;MIDI 01
012.223;000.619;34;000.172;MIDI 01
012.201;000.805;46;000.117;MIDI 01
012.192;000.826;58;000.250;MIDI 01
012.216;000.810;41;000.148;MIDI 01
012.197;000.831;50;000.180;MIDI 01
012.218;000.883;53;000.211;MIDI 01
014.207;001.909;51;000.180;MIDI 01
014.210;002.459;53;000.266;MIDI 01
014.189;003.417;57;000.273;MIDI 01
014.197;003.869;41;000.164;MIDI 01
014.217;004.120;48;000.172;MIDI 01
014.215;004.302;36;000.117;MIDI 01
019.620;001.017;81;000.383;MIDI 01
021.071;000.059;82;000.398;MIDI 01
021.283;000.580;84;000.430;MIDI 01
023.339;001.053;45;000.258;MIDI 01
023.355;001.132;60;000.242;MIDI 01
023.350;001.161;53;000.258;MIDI 01
023.332;001.293;63;000.336;MIDI 01
025.497;002.494;62;000.258;MIDI 01
028.898;000.425;62;000.164;MIDI 01
029.221;000.233;65;000.211;MIDI 01
029.408;000.088;63;000.234;MIDI 01
029.546;000.207;62;000.242;MIDI 01
029.688;000.119;63;000.336;MIDI 01
029.821;000.046;65;000.367;MIDI 01
029.967;000.117;67;000.406;MIDI 01
030.094;000.114;69;000.406;MIDI 01
030.214;000.079;70;000.453;MIDI 01
025.534;004.934;58;000.180;MIDI 01
025.565;004.906;46;000.109;MIDI 01
025.515;004.987;53;000.180;MIDI 01
030.367;000.314;72;000.461;MIDI 01
030.697;001.182;74;000.453;MIDI 01
032.124;000.076;75;000.445;MIDI 01
032.361;000.865;77;000.492;MIDI 01
034.211;000.706;50;000.398;MIDI 01
034.195;000.864;77;000.570;MIDI 01
034.203;000.905;68;000.531;MIDI 01
034.214;000.914;59;000.383;MIDI 01
036.352;001.521;59;000.172;MIDI 01
036.334;001.597;77;000.328;MIDI 01
036.371;001.763;67;000.258;MIDI 01
037.855;000.327;75;000.344;MIDI 01
036.360;001.846;51;000.180;MIDI 01
037.829;000.431;60;000.258;MIDI 01
038.560;000.218;53;000.273;MIDI 01
038.568;000.300;62;000.289;MIDI 01
038.558;000.356;70;000.398;MIDI 01
038.554;000.397;74;000.406;MIDI 01
039.274;000.240;55;000.320;MIDI 01
039.281;000.288;72;000.422;MIDI 01
039.272;000.304;70;000.414;MIDI 01
039.264;000.324;63;000.328;MIDI 01
039.971;000.308;55;000.383;MIDI 01
039.973;000.364;70;000.539;MIDI 01
039.974;000.365;72;000.523;MIDI 01
039.967;000.433;64;000.422;MIDI 01
040.823;000.199;72;000.516;MIDI 01
041.064;000.089;74;000.398;MIDI 01
041.197;000.031;72;000.352;MIDI 01
041.278;000.035;74;000.328;MIDI 01
041.335;000.041;72;000.492;MIDI 01
041.443;000.031;74;000.375;MIDI 01
041.473;000.066;72;000.539;MIDI 01
041.590;000.070;71;000.445;MIDI 01
041.672;000.166;72;000.477;MIDI 01
041.820;000.235;74;000.438;MIDI 01
042.284;000.178;72;000.359;MIDI 01
040.825;001.674;70;000.484;MIDI 01
040.830;001.786;64;000.359;MIDI 01
043.103;000.434;69;000.266;MIDI 01
040.837;002.717;53;000.328;MIDI 01
043.090;000.544;72;000.273;MIDI 01
043.079;000.556;65;000.242;MIDI 01
045.393;000.410;53;000.328;MIDI 01
045.780;000.339;55;000.406;MIDI 01
045.777;000.490;51;000.375;MIDI 01
046.129;000.242;57;000.484;MIDI 01
046.140;000.254;48;000.375;MIDI 01
046.821;001.069;46;000.336;MIDI 01
046.831;001.148;50;000.352;MIDI 01
048.357;000.084;51;000.367;MIDI 01
048.577;000.673;50;000.281;MIDI 01
048.569;000.848;53;000.336;MIDI 01
046.808;003.671;58;000.430;MIDI 01
046.829;003.684;34;000.320;MIDI 01
050.201;000.504;50;000.289;MIDI 01
050.178;000.548;53;000.320;MIDI 01
051.899;000.250;74;000.383;MIDI 01
052.458;000.042;75;000.305;MIDI 01
052.519;000.062;74;000.383;MIDI 01
052.622;000.036;72;000.391;MIDI 01
052.708;000.578;74;000.367;MIDI 01
053.350;000.040;75;000.352;MIDI 01
053.525;000.362;77;000.344;MIDI 01
051.905;002.082;53;000.180;MIDI 01
051.922;002.258;50;000.203;MIDI 01
051.919;002.368;46;000.250;MIDI 01
055.323;000.423;46;000.258;MIDI 01
055.325;000.646;50;000.188;MIDI 01
055.329;000.718;58;000.289;MIDI 01
055.319;000.737;34;000.242;MIDI 01
055.342;000.799;53;000.242;MIDI 01
057.237;000.901;48;000.273;MIDI 01
057.224;001.022;51;000.367;MIDI 01
058.761;000.070;50;000.344;MIDI 01
058.747;000.095;53;000.391;MIDI 01
058.939;000.964;51;000.438;MIDI 01
058.954;000.958;54;000.430;MIDI 01
057.226;003.600;29;000.305;MIDI 01
057.222;003.685;41;000.312;MIDI 01
060.576;000.406;51;000.414;MIDI 01
060.564;000.503;54;000.484;MIDI 01
057.214;003.903;57;000.398;MIDI 01
062.340;000.350;84;000.586;MIDI 01
062.926;000.069;86;000.430;MIDI 01
062.990;000.082;84;000.516;MIDI 01
063.086;000.066;83;000.500;MIDI 01
063.152;000.496;84;000.523;MIDI 01
062.329;001.465;41;000.383;MIDI 01
063.821;000.064;86;000.500;MIDI 01
062.364;001.526;51;000.414;MIDI 01
062.355;001.539;54;000.359;MIDI 01
064.020;000.560;87;000.508;MIDI 01
065.874;000.435;58;000.203;MIDI 01
065.881;000.621;60;000.188;MIDI 01
065.871;000.728;63;000.352;MIDI 01
065.850;000.848;66;000.422;MIDI 01
067.831;000.907;63;000.242;MIDI 01
067.852;001.403;60;000.188;MIDI 01
067.858;001.535;57;000.156;MIDI 01
069.292;000.111;62;000.289;MIDI 01
069.323;000.160;59;000.070;MIDI 01
069.483;000.562;60;000.219;MIDI 01
069.491;000.660;63;000.305;MIDI 01
067.823;003.458;65;000.312;MIDI 01
071.061;000.569;63;000.328;MIDI 01
071.074;000.658;60;000.297;MIDI 01
072.922;000.341;84;000.445;MIDI 01
073.470;000.058;86;000.375;MIDI 01
073.550;000.062;84;000.422;MIDI 01
073.633;000.054;83;000.461;MIDI 01
073.708;000.502;84;000.539;MIDI 01
074.380;000.054;86;000.469;MIDI 01
072.920;001.770;60;000.312;MIDI 01
074.619;000.592;87;000.414;MIDI 01
072.919;002.616;53;000.312;MIDI 01
074.634;000.984;57;000.281;MIDI 01
072.893;002.749;63;000.297;MIDI 01
076.473;000.332;63;000.305;MIDI 01
076.476;000.354;54;000.320;MIDI 01
076.496;000.392;60;000.320;MIDI 01
076.460;001.177;69;000.508;MIDI 01
076.444;001.218;75;000.586;MIDI 01
078.179;000.392;55;000.180;MIDI 01
078.182;000.446;62;000.211;MIDI 01
078.173;000.481;70;000.266;MIDI 01
078.194;000.472;58;000.195;MIDI 01
078.174;000.535;74;000.328;MIDI 01
081.689;000.211;52;000.508;MIDI 01
081.684;000.218;61;000.531;MIDI 01
081.694;000.214;67;000.617;MIDI 01
081.692;000.228;58;000.531;MIDI 01
081.686;000.248;70;000.578;MIDI 01
081.680;000.264;73;000.602;MIDI 01
080.056;002.622;79;000.672;MIDI 01
085.280;000.175;53;000.117;MIDI 01
085.297;000.160;58;000.094;MIDI 01
085.274;000.191;62;000.172;MIDI 01
085.265;000.214;70;000.219;MIDI 01
085.291;000.198;65;000.180;MIDI 01
085.277;000.273;74;000.266;MIDI 01
083.555;002.681;77;000.328;MIDI 01
087.081;000.204;41;000.156;MIDI 01
087.107;000.188;53;000.188;MIDI 01
087.072;000.229;69;000.219;MIDI 01
087.083;000.228;60;000.156;MIDI 01
087.090;000.243;63;000.188;MIDI 01
089.039;000.174;46;000.078;MIDI 01
089.007;000.208;34;000.031;MIDI 01
089.021;000.209;62;000.211;MIDI 01
088.989;000.246;70;000.234;MIDI 01
089.009;000.229;58;000.102;MIDI 01
090.257;000.057;46;000.164;MIDI 01
090.382;000.056;34;000.195;MIDI 01
090.456;000.081;46;000.281;MIDI 01
090.566;000.058;34;000.352;MIDI 01
091.781;000.053;46;000.117;MIDI 01
091.857;000.064;34;000.312;MIDI 01
092.005;000.061;46;000.070;MIDI 01
092.058;000.086;34;000.391;MIDI 01
093.369;000.058;46;000.281;MIDI 01
093.491;000.056;34;000.250;MIDI 01
093.585;000.071;46;000.258;MIDI 01
093.697;000.132;34;000.297;MIDI 01
093.752;000.942;63;000.266;MIDI 01
093.789;000.938;55;000.102;MIDI 01
093.791;000.966;58;000.164;MIDI 01
095.361;000.850;62;000.312;MIDI 01
095.365;000.907;53;000.188;MIDI 01
095.389;000.997;58;000.297;MIDI 01
097.105;000.671;58;000.367;MIDI 01
097.094;000.703;61;000.406;MIDI 01
097.109;000.726;52;000.266;MIDI 01
098.899;000.877;52;000.203;MIDI 01
098.888;000.960;58;000.336;MIDI 01
098.858;000.997;61;000.414;MIDI 01
100.266;000.051;46;000.227;MIDI 01
100.384;000.062;34;000.258;MIDI 01
100.485;000.105;46;000.242;MIDI 01
100.606;000.205;34;000.273;MIDI 01
100.659;000.250;58;000.180;MIDI 01
100.655;000.282;62;000.227;MIDI 01
100.657;000.296;53;000.211;MIDI 01
101.928;000.050;46;000.172;MIDI 01
102.019;000.064;34;000.336;MIDI 01
102.121;000.064;46;000.281;MIDI 01
102.225;000.125;34;000.414;MIDI 01
103.530;000.053;46;000.156;MIDI 01
103.654;000.060;34;000.148;MIDI 01
103.851;000.136;34;000.375;MIDI 01
103.902;001.044;60;000.312;MIDI 01
104.973;000.182;62;000.289;MIDI 01
105.134;000.170;60;000.375;MIDI 01
105.304;000.233;59;000.438;MIDI 01
105.513;000.804;60;000.383;MIDI 01
106.217;000.165;63;000.367;MIDI 01
103.924;002.518;55;000.227;MIDI 01
103.922;002.617;51;000.148;MIDI 01
106.951;000.919;60;000.391;MIDI 01
106.978;001.015;51;000.250;MIDI 01
107.674;000.358;57;000.383;MIDI 01
106.960;001.094;54;000.344;MIDI 01
108.650;000.945;57;000.367;MIDI 01
108.648;000.993;54;000.320;MIDI 01
108.644;001.053;51;000.297;MIDI 01
108.622;001.176;60;000.422;MIDI 01
110.044;000.052;46;000.195;MIDI 01
110.151;000.061;34;000.281;MIDI 01
110.253;000.079;46;000.273;MIDI 01
110.364;000.236;34;000.297;MIDI 01
110.394;000.343;50;000.180;MIDI 01
110.390;000.352;53;000.234;MIDI 01
110.374;000.415;58;000.312;MIDI 01
111.781;000.062;34;000.094;MIDI 01
111.903;000.073;46;000.047;MIDI 01
111.989;000.114;34;000.383;MIDI 01
113.279;000.053;46;000.258;MIDI 01
113.399;000.055;34;000.250;MIDI 01
113.497;000.072;46;000.242;MIDI 01
113.612;000.164;34;000.242;MIDI 01
113.688;000.935;62;000.234;MIDI 01
113.674;001.713;70;000.312;MIDI 01
115.338;000.857;67;000.398;MIDI 01
115.321;000.948;62;000.352;MIDI 01
115.341;000.959;58;000.273;MIDI 01
117.151;000.825;65;000.414;MIDI 01
117.167;000.906;57;000.273;MIDI 01
117.160;000.930;62;000.375;MIDI 01
120.452;000.056;48;000.289;MIDI 01
120.573;000.050;36;000.297;MIDI 01
120.657;000.061;48;000.344;MIDI 01
120.785;000.045;36;000.297;MIDI 01
119.265;002.044;60;000.125;MIDI 01
119.253;002.079;64;000.242;MIDI 01
119.277;002.080;55;000.086;MIDI 01
121.532;000.169;55;000.328;MIDI 01
121.526;000.201;60;000.195;MIDI 01
121.943;000.039;84;000.273;MIDI 01
122.073;000.048;72;000.203;MIDI 01
121.524;000.617;64;000.234;MIDI 01
122.108;000.077;84;000.414;MIDI 01
122.233;000.083;72;000.391;MIDI 01
122.239;000.402;60;000.273;MIDI 01
122.248;000.427;57;000.250;MIDI 01
122.249;000.621;65;000.375;MIDI 01
122.977;000.404;58;000.391;MIDI 01
122.969;000.458;60;000.297;MIDI 01
122.952;000.485;67;000.445;MIDI 01
123.749;000.520;67;000.500;MIDI 01
123.772;000.639;58;000.344;MIDI 01
124.895;000.057;48;000.398;MIDI 01
125.026;000.054;36;000.352;MIDI 01
124.927;000.177;56;000.352;MIDI 01
125.110;000.058;48;000.383;MIDI 01
124.917;000.299;64;000.406;MIDI 01
125.228;000.060;36;000.438;MIDI 01
123.752;001.915;60;000.422;MIDI 01
125.252;000.507;65;000.422;MIDI 01
125.275;000.518;57;000.312;MIDI 01
126.001;000.157;57;000.352;MIDI 01
125.983;000.223;60;000.438;MIDI 01
125.981;000.414;65;000.430;MIDI 01
126.406;000.046;84;000.422;MIDI 01
126.524;000.048;72;000.406;MIDI 01
126.569;000.064;84;000.492;MIDI 01
126.688;000.062;72;000.555;MIDI 01
126.702;000.457;60;000.430;MIDI 01
126.700;000.495;64;000.461;MIDI 01
126.698;000.514;67;000.508;MIDI 01
127.449;000.431;69;000.602;MIDI 01
127.473;000.451;60;000.414;MIDI 01
127.461;000.469;65;000.492;MIDI 01
128.276;000.750;69;000.594;MIDI 01
128.300;000.820;65;000.492;MIDI 01
129.402;000.048;48;000.430;MIDI 01
129.514;000.050;36;000.438;MIDI 01
129.588;000.048;48;000.414;MIDI 01
129.399;000.255;63;000.422;MIDI 01
129.401;000.294;66;000.445;MIDI 01
129.703;000.057;36;000.516;MIDI 01
129.706;000.372;64;000.461;MIDI 01
129.710;000.495;67;000.523;MIDI 01
128.301;001.966;60;000.477;MIDI 01
130.447;000.438;60;000.484;MIDI 01
130.872;000.043;84;000.461;MIDI 01
130.976;000.058;72;000.508;MIDI 01
130.431;000.635;67;000.555;MIDI 01
130.442;000.629;64;000.492;MIDI 01
131.041;000.050;84;000.484;MIDI 01
131.129;000.077;72;000.609;MIDI 01
131.143;000.445;69;000.586;MIDI 01
131.153;000.443;60;000.453;MIDI 01
131.145;000.507;65;000.492;MIDI 01
131.884;000.442;70;000.641;MIDI 01
131.904;000.431;60;000.508;MIDI 01
131.896;000.457;67;000.578;MIDI 01
132.698;000.782;67;000.594;MIDI 01
132.685;000.862;70;000.680;MIDI 01
133.897;000.060;48;000.477;MIDI 01
134.005;000.053;36;000.523;MIDI 01
134.075;000.059;48;000.555;MIDI 01
133.904;000.282;68;000.516;MIDI 01
133.900;000.289;64;000.500;MIDI 01
134.194;000.062;36;000.555;MIDI 01
134.215;000.420;65;000.523;MIDI 01
134.207;000.546;69;000.578;MIDI 01
132.703;002.131;60;000.555;MIDI 01
134.961;000.206;65;000.570;MIDI 01
134.975;000.242;60;000.516;MIDI 01
134.953;000.455;69;000.625;MIDI 01
135.361;000.055;84;000.539;MIDI 01
135.469;000.061;72;000.555;MIDI 01
135.543;000.042;84;000.539;MIDI 01
135.643;000.052;72;000.586;MIDI 01
135.673;000.579;68;000.570;MIDI 01
135.670;000.589;71;000.641;MIDI 01
135.683;000.608;65;000.523;MIDI 01
135.695;000.599;62;000.477;MIDI 01
136.458;000.287;65;000.508;MIDI 01
136.453;000.302;68;000.555;MIDI 01
136.435;000.366;71;000.664;MIDI 01
136.481;000.331;62;000.469;MIDI 01
136.786;000.057;84;000.477;MIDI 01
136.900;000.048;72;000.453;MIDI 01
137.009;000.096;84;000.484;MIDI 01
137.597;000.454;64;000.266;MIDI 01
137.599;000.498;67;000.227;MIDI 01
137.581;000.802;72;000.328;MIDI 01
138.901;000.071;48;000.258;MIDI 01
139.055;000.064;36;000.086;MIDI 01
139.158;000.143;48;000.250;MIDI 01
138.394;001.302;67;000.312;MIDI 01
138.447;001.268;64;000.195;MIDI 01
138.423;001.299;60;000.195;MIDI 01
139.884;000.216;60;000.289;MIDI 01
139.899;000.207;64;000.297;MIDI 01
140.345;000.044;84;000.234;MIDI 01
139.893;000.521;67;000.328;MIDI 01
140.454;000.100;72;000.391;MIDI 01
140.589;000.047;84;000.320;MIDI 01
140.640;000.119;84;000.086;MIDI 01
140.602;000.502;65;000.273;MIDI 01
140.594;000.557;62;000.281;MIDI 01
140.577;000.833;71;000.398;MIDI 01
141.400;000.359;65;000.336;MIDI 01
141.387;000.410;67;000.367;MIDI 01
141.382;000.447;62;000.297;MIDI 01
142.349;000.509;60;000.227;MIDI 01
142.356;000.513;64;000.250;MIDI 01
142.334;000.731;72;000.359;MIDI 01
143.714;000.077;48;000.297;MIDI 01
143.860;000.106;36;000.273;MIDI 01
143.979;000.153;48;000.367;MIDI 01
143.191;001.316;67;000.352;MIDI 01
143.189;001.359;64;000.289;MIDI 01
143.197;001.378;60;000.258;MIDI 01
144.724;000.401;64;000.336;MIDI 01
144.743;000.412;60;000.359;MIDI 01
144.721;000.491;67;000.383;MIDI 01
145.162;000.073;84;000.336;MIDI 01
145.311;000.069;72;000.344;MIDI 01
145.431;000.215;84;000.438;MIDI 01
145.486;000.438;65;000.320;MIDI 01
145.475;000.532;62;000.328;MIDI 01
145.460;000.764;71;000.336;MIDI 01
146.271;000.365;65;000.273;MIDI 01
146.269;000.407;62;000.180;MIDI 01
146.261;000.433;67;000.344;MIDI 01
147.192;000.375;64;000.203;MIDI 01
147.178;000.415;60;000.211;MIDI 01
147.151;000.757;72;000.289;MIDI 01
148.496;000.064;48;000.227;MIDI 01
148.794;000.102;48;000.102;MIDI 01
147.977;001.182;67;000.328;MIDI 01
147.982;001.194;64;000.281;MIDI 01
148.002;001.218;60;000.172;MIDI 01
150.140;000.073;48;000.250;MIDI 01
150.284;000.086;36;000.195;MIDI 01
150.439;000.089;48;000.156;MIDI 01
149.653;001.136;64;000.289;MIDI 01
149.682;001.124;60;000.297;MIDI 01
149.669;001.218;55;000.242;MIDI 01
151.768;000.068;48;000.180;MIDI 01
151.910;000.147;36;000.148;MIDI 01
152.065;000.176;48;000.117;MIDI 01
151.294;000.997;52;000.242;MIDI 01
151.301;001.106;55;000.273;MIDI 01
151.281;001.225;60;000.258;MIDI 01
153.028;001.278;60;000.219;MIDI 01
153.860;000.558;59;000.234;MIDI 01
154.768;000.353;58;000.164;MIDI 01
155.998;000.065;62;000.266;MIDI 01
156.166;000.064;64;000.344;MIDI 01
155.588;000.727;57;000.281;MIDI 01
154.744;001.686;60;000.258;MIDI 01
156.359;000.099;65;000.422;MIDI 01
156.384;000.185;58;000.188;MIDI 01
156.382;000.195;55;000.211;MIDI 01
156.539;000.092;67;000.523;MIDI 01
156.739;000.084;69;000.523;MIDI 01
156.972;000.134;70;000.469;MIDI 01
157.515;000.327;41;000.234;MIDI 01
158.347;001.029;53;000.188;MIDI 01
159.078;000.967;60;000.219;MIDI 01
159.092;000.975;57;000.164;MIDI 01
159.095;001.277;65;000.258;MIDI 01
157.534;002.845;72;000.359;MIDI 01
160.429;000.078;69;000.359;MIDI 01
159.842;001.104;53;000.211;MIDI 01
160.639;000.950;62;000.219;MIDI 01
160.651;000.990;58;000.195;MIDI 01
160.617;001.240;77;000.477;MIDI 01
161.976;000.194;74;000.289;MIDI 01
161.399;000.994;53;000.273;MIDI 01
160.641;002.470;65;000.344;MIDI 01
162.241;000.881;57;000.125;MIDI 01
162.202;000.967;60;000.211;MIDI 01
162.963;000.969;53;000.188;MIDI 01
162.204;002.251;72;000.352;MIDI 01
163.734;000.781;60;000.203;MIDI 01
163.740;000.805;57;000.219;MIDI 01
164.468;000.192;53;000.211;MIDI 01
163.754;000.941;65;000.211;MIDI 01
165.061;000.154;69;000.203;MIDI 01
165.287;000.933;50;000.227;MIDI 01
166.092;000.185;46;000.188;MIDI 01
165.380;001.219;65;000.297;MIDI 01
166.076;000.710;62;000.242;MIDI 01
165.356;001.538;70;000.258;MIDI 01
166.636;000.273;67;000.273;MIDI 01
166.868;000.274;36;000.227;MIDI 01
167.665;000.297;57;000.250;MIDI 01
167.643;001.117;48;000.234;MIDI 01
168.394;000.970;57;000.188;MIDI 01
168.349;001.047;60;000.344;MIDI 01
168.400;001.035;53;000.195;MIDI 01
166.915;002.768;65;000.328;MIDI 01
169.110;001.071;48;000.297;MIDI 01
169.929;000.765;69;000.367;MIDI 01
170.364;000.336;67;000.438;MIDI 01
169.923;000.923;55;000.211;MIDI 01
169.953;000.936;52;000.125;MIDI 01
170.659;000.318;48;000.289;MIDI 01
170.651;000.349;65;000.445;MIDI 01
170.995;000.146;67;000.516;MIDI 01
169.943;001.210;60;000.203;MIDI 01
171.432;000.940;52;000.203;MIDI 01
171.519;001.234;67;000.438;MIDI 01
172.783;000.179;68;000.359;MIDI 01
172.248;000.748;48;000.250;MIDI 01
173.048;000.368;53;000.242;MIDI 01
173.033;000.545;69;000.320;MIDI 01
171.553;002.027;60;000.258;MIDI 01
171.421;002.161;41;000.273;MIDI 01
173.774;000.848;45;000.320;MIDI 01
174.658;000.048;60;000.250;MIDI 01
174.825;000.070;62;000.383;MIDI 01
174.978;000.067;64;000.477;MIDI 01
174.474;000.760;46;000.344;MIDI 01
175.162;000.091;65;000.438;MIDI 01
175.338;000.080;67;000.523;MIDI 01
175.512;000.079;69;000.523;MIDI 01
175.157;000.543;43;000.352;MIDI 01
175.709;000.116;70;000.539;MIDI 01
176.100;000.265;41;000.203;MIDI 01
177.154;000.338;64;000.281;MIDI 01
176.863;001.135;53;000.227;MIDI 01
177.564;000.948;60;000.172;MIDI 01
177.598;000.956;57;000.102;MIDI 01
176.148;002.696;72;000.367;MIDI 01
178.915;000.162;69;000.344;MIDI 01
178.326;001.159;53;000.172;MIDI 01
179.124;000.960;62;000.156;MIDI 01
179.123;001.004;58;000.156;MIDI 01
179.088;001.242;77;000.383;MIDI 01
180.409;000.181;74;000.289;MIDI 01
179.863;000.972;53;000.211;MIDI 01
180.647;000.858;60;000.109;MIDI 01
180.605;000.975;72;000.344;MIDI 01
177.558;004.145;65;000.305;MIDI 01
181.645;000.445;64;000.258;MIDI 01
181.344;000.854;53;000.109;MIDI 01
182.057;000.740;60;000.117;MIDI 01
182.046;000.753;57;000.156;MIDI 01
182.724;000.195;53;000.195;MIDI 01
182.030;001.010;65;000.281;MIDI 01
183.248;000.091;69;000.203;MIDI 01
183.468;000.523;72;000.406;MIDI 01
183.478;000.773;65;000.328;MIDI 01
183.822;000.774;70;000.445;MIDI 01
184.569;000.052;67;000.391;MIDI 01
184.191;000.471;62;000.352;MIDI 01
183.457;001.633;50;000.219;MIDI 01
184.206;000.928;46;000.266;MIDI 01
185.059;000.490;57;000.320;MIDI 01
185.849;000.304;57;000.328;MIDI 01
185.853;000.354;53;000.359;MIDI 01
186.584;000.251;57;000.375;MIDI 01
185.050;001.804;65;000.398;MIDI 01
186.586;000.331;60;000.445;MIDI 01
185.086;002.036;48;000.289;MIDI 01
187.345;000.227;57;000.484;MIDI 01
187.343;000.303;53;000.484;MIDI 01
188.182;000.586;52;000.484;MIDI 01
188.179;000.900;55;000.500;MIDI 01
188.192;001.134;36;000.297;MIDI 01
189.049;000.322;48;000.477;MIDI 01
189.027;000.359;52;000.547;MIDI 01
188.180;001.381;60;000.531;MIDI 01
190.228;000.527;29;000.164;MIDI 01
190.216;000.550;41;000.164;MIDI 01
190.199;000.579;57;000.281;MIDI 01
190.206;000.595;48;000.227;MIDI 01
190.224;000.604;53;000.211;MIDI 01
191.500;000.054;41;000.297;MIDI 01
191.641;000.061;29;000.102;MIDI 01
191.692;000.086;41;000.398;MIDI 01
191.826;000.193;29;000.258;MIDI 01
192.994;000.057;41;000.156;MIDI 01
193.078;000.054;29;000.258;MIDI 01
193.199;000.057;41;000.297;MIDI 01
193.278;000.083;29;000.383;MIDI 01
194.071;000.238;65;000.234;MIDI 01
194.914;001.027;65;000.367;MIDI 01
196.214;000.053;41;000.266;MIDI 01
196.320;000.056;29;000.281;MIDI 01
196.414;000.077;41;000.344;MIDI 01
196.522;000.069;29;000.375;MIDI 01
197.868;000.051;41;000.336;MIDI 01
197.977;000.055;29;000.320;MIDI 01
198.058;000.061;41;000.414;MIDI 01
198.168;000.045;29;000.430;MIDI 01
196.536;002.160;66;000.375;MIDI 01
196.577;002.370;57;000.148;MIDI 01
196.553;002.443;63;000.297;MIDI 01
196.555;002.455;60;000.297;MIDI 01
198.928;000.521;66;000.336;MIDI 01
201.085;000.047;41;000.297;MIDI 01
201.184;000.075;29;000.359;MIDI 01
201.279;000.108;41;000.391;MIDI 01
201.383;000.058;29;000.469;MIDI 01
202.734;000.045;41;000.375;MIDI 01
202.839;000.054;29;000.398;MIDI 01
202.912;000.081;41;000.445;MIDI 01
203.015;000.039;29;000.531;MIDI 01
201.365;002.207;69;000.477;MIDI 01
199.786;003.983;66;000.445;MIDI 01
201.379;002.450;60;000.336;MIDI 01
201.381;002.500;63;000.359;MIDI 01
203.753;000.604;69;000.547;MIDI 01
205.806;000.047;41;000.445;MIDI 01
205.917;000.058;29;000.461;MIDI 01
205.981;000.074;41;000.508;MIDI 01
206.089;000.080;29;000.625;MIDI 01
207.330;000.045;41;000.469;MIDI 01
207.429;000.075;29;000.539;MIDI 01
207.493;000.081;41;000.570;MIDI 01
207.613;000.068;29;000.672;MIDI 01
206.085;002.086;72;000.641;MIDI 01
204.560;003.806;69;000.586;MIDI 01
206.108;002.266;63;000.508;MIDI 01
206.099;002.334;66;000.531;MIDI 01
208.390;000.457;72;000.648;MIDI 01
209.203;000.958;72;000.680;MIDI 01
210.749;000.044;60;000.258;MIDI 01
210.724;000.087;57;000.461;MIDI 01
210.829;000.066;53;000.477;MIDI 01
210.907;000.050;60;000.523;MIDI 01
210.942;000.056;57;000.469;MIDI 01
211.018;000.130;53;000.539;MIDI 01
210.136;001.529;75;000.633;MIDI 01
211.578;000.207;74;000.406;MIDI 01
211.823;000.235;72;000.461;MIDI 01
212.041;000.264;70;000.445;MIDI 01
212.245;000.228;69;000.477;MIDI 01
212.439;000.158;67;000.469;MIDI 01
212.635;000.207;65;000.445;MIDI 01
212.847;000.169;64;000.406;MIDI 01
213.024;000.327;63;000.453;MIDI 01
213.210;000.160;62;000.477;MIDI 01
213.402;000.172;60;000.438;MIDI 01
213.624;000.199;58;000.359;MIDI 01
213.820;000.260;57;000.352;MIDI 01
214.084;000.304;63;000.297;MIDI 01
214.421;000.208;57;000.227;MIDI 01
216.579;000.142;51;000.289;MIDI 01
216.765;000.861;53;000.297;MIDI 01
215.180;003.367;58;000.266;MIDI 01
215.218;003.350;34;000.172;MIDI 01
215.201;003.472;50;000.211;MIDI 01
215.250;003.456;46;000.117;MIDI 01
218.302;000.671;53;000.258;MIDI 01
219.963;000.351;74;000.383;MIDI 01
220.527;000.050;75;000.281;MIDI 01
220.604;000.037;74;000.320;MIDI 01
220.675;000.045;72;000.414;MIDI 01
220.771;000.495;74;000.461;MIDI 01
221.422;000.052;75;000.328;MIDI 01
221.618;000.378;77;000.320;MIDI 01
219.966;002.252;53;000.156;MIDI 01
219.994;002.329;50;000.148;MIDI 01
219.992;002.458;46;000.180;MIDI 01
223.300;000.514;50;000.281;MIDI 01
223.306;000.572;34;000.250;MIDI 01
223.293;000.602;58;000.344;MIDI 01
223.299;000.707;41;000.250;MIDI 01
223.291;000.809;46;000.266;MIDI 01
226.544;000.088;53;000.344;MIDI 01
226.747;000.805;54;000.414;MIDI 01
225.057;003.473;51;000.398;MIDI 01
225.076;003.553;57;000.375;MIDI 01
225.078;003.579;36;000.305;MIDI 01
228.345;000.330;54;000.453;MIDI 01
225.088;003.592;41;000.227;MIDI 01
225.080;003.623;48;000.266;MIDI 01
230.121;000.328;81;000.555;MIDI 01
230.714;000.072;82;000.445;MIDI 01
230.791;000.058;81;000.430;MIDI 01
230.865;000.071;79;000.523;MIDI 01
230.943;000.489;81;000.523;MIDI 01
231.647;000.054;82;000.430;MIDI 01
230.119;001.736;54;000.414;MIDI 01
231.863;000.593;84;000.438;MIDI 01
230.103;002.446;63;000.367;MIDI 01
230.128;002.539;60;000.375;MIDI 01
231.860;000.905;53;000.297;MIDI 01
233.718;000.749;60;000.305;MIDI 01
233.738;000.746;53;000.219;MIDI 01
233.716;000.795;63;000.375;MIDI 01
233.731;000.796;45;000.234;MIDI 01
237.303;000.094;58;000.344;MIDI 01
237.510;000.825;59;000.453;MIDI 01
235.714;003.610;34;000.258;MIDI 01
235.728;003.628;56;000.344;MIDI 01
235.745;003.614;53;000.227;MIDI 01
239.056;000.327;59;000.562;MIDI 01
235.743;003.650;46;000.211;MIDI 01
235.723;003.717;62;000.367;MIDI 01
240.719;000.347;74;000.555;MIDI 01
241.381;000.074;75;000.414;MIDI 01
241.458;000.062;74;000.430;MIDI 01
241.537;000.071;72;000.523;MIDI 01
241.604;000.506;74;000.484;MIDI 01
242.355;000.036;75;000.352;MIDI 01
240.716;001.812;59;000.422;MIDI 01
240.713;002.357;68;000.398;MIDI 01
240.722;002.404;65;000.398;MIDI 01
242.583;000.801;58;000.312;MIDI 01
242.590;000.891;77;000.438;MIDI 01
244.417;000.533;50;000.336;MIDI 01
244.375;000.780;77;000.602;MIDI 01
244.396;000.874;68;000.477;MIDI 01
244.401;000.935;58;000.352;MIDI 01
246.982;000.539;59;000.250;MIDI 01
246.195;001.493;77;000.352;MIDI 01
247.648;000.233;60;000.227;MIDI 01
246.207;001.686;51;000.250;MIDI 01
247.619;000.305;75;000.391;MIDI 01
246.214;001.741;67;000.305;MIDI 01
246.216;001.753;58;000.250;MIDI 01
248.319;000.224;53;000.305;MIDI 01
248.301;000.281;62;000.336;MIDI 01
248.316;000.301;70;000.430;MIDI 01
248.293;000.335;74;000.461;MIDI 01
249.016;000.228;55;000.328;MIDI 01
249.024;000.251;72;000.461;MIDI 01
249.022;000.259;70;000.430;MIDI 01
249.012;000.324;63;000.320;MIDI 01
249.751;000.279;55;000.367;MIDI 01
249.741;000.319;70;000.562;MIDI 01
249.742;000.323;72;000.547;MIDI 01
249.749;000.352;64;000.406;MIDI 01
250.534;000.097;72;000.469;MIDI 01
250.673;000.056;74;000.438;MIDI 01
250.781;000.031;72;000.414;MIDI 01
250.850;000.039;74;000.453;MIDI 01
250.920;000.042;72;000.531;MIDI 01
251.002;000.051;74;000.484;MIDI 01
251.061;000.067;72;000.531;MIDI 01
251.168;000.084;71;000.391;MIDI 01
251.252;000.166;72;000.344;MIDI 01
251.387;000.206;74;000.430;MIDI 01
251.808;000.159;72;000.391;MIDI 01
250.543;001.474;64;000.312;MIDI 01
250.550;001.526;70;000.344;MIDI 01
252.497;000.319;69;000.320;MIDI 01
252.494;000.349;72;000.297;MIDI 01
250.551;002.352;53;000.281;MIDI 01
252.488;000.471;65;000.242;MIDI 01
254.682;000.162;53;000.141;MIDI 01
254.859;000.246;55;000.344;MIDI 01
255.007;000.118;53;000.359;MIDI 01
255.160;000.216;52;000.359;MIDI 01
255.303;000.140;53;000.461;MIDI 01
255.449;000.122;55;000.438;MIDI 01
255.495;000.179;51;000.289;MIDI 01
255.609;000.071;57;000.453;MIDI 01
255.633;000.052;48;000.414;MIDI 01
255.952;000.675;34;000.320;MIDI 01
255.940;001.040;46;000.352;MIDI 01
255.933;001.264;50;000.336;MIDI 01
257.402;000.068;48;000.375;MIDI 01
257.424;000.051;51;000.227;MIDI 01
257.784;000.108;82;000.359;MIDI 01
257.935;000.120;86;000.398;MIDI 01
258.089;000.118;82;000.312;MIDI 01
258.238;000.146;77;000.359;MIDI 01
258.394;000.051;82;000.367;MIDI 01
257.628;000.922;50;000.242;MIDI 01
258.538;000.035;74;000.312;MIDI 01
257.592;001.016;53;000.336;MIDI 01
258.677;000.056;77;000.422;MIDI 01
258.920;000.054;70;000.141;MIDI 01
259.015;000.156;74;000.344;MIDI 01
259.185;000.150;65;000.297;MIDI 01
258.872;000.472;53;000.344;MIDI 01
258.880;000.473;50;000.289;MIDI 01
259.336;000.046;70;000.320;MIDI 01
255.923;003.464;58;000.445;MIDI 01
259.804;000.064;58;000.344;MIDI 01
259.954;000.093;62;000.289;MIDI 01
260.110;000.178;53;000.312;MIDI 01
260.294;000.053;58;000.336;MIDI 01
260.107;000.269;74;000.414;MIDI 01
260.401;000.047;50;000.328;MIDI 01
260.508;000.071;75;000.422;MIDI 01
260.604;000.035;74;000.320;MIDI 01
260.660;000.050;72;000.414;MIDI 01
260.722;000.098;46;000.375;MIDI 01
260.916;000.049;50;000.281;MIDI 01
261.044;000.066;41;000.391;MIDI 01
260.739;000.471;74;000.516;MIDI 01
261.214;000.211;75;000.484;MIDI 01
261.257;000.193;46;000.180;MIDI 01
261.384;000.097;38;000.375;MIDI 01
261.686;000.147;38;000.367;MIDI 01
261.556;000.279;34;000.367;MIDI 01
261.851;000.079;41;000.383;MIDI 01
261.996;000.052;46;000.375;MIDI 01
261.395;000.693;77;000.477;MIDI 01
262.300;000.298;41;000.414;MIDI 01
262.476;000.147;46;000.422;MIDI 01
262.149;000.481;38;000.430;MIDI 01
262.649;000.172;50;000.398;MIDI 01
262.815;000.099;46;000.383;MIDI 01
262.974;000.091;41;000.344;MIDI 01
263.101;000.072;38;000.344;MIDI 01
262.637;000.765;58;000.453;MIDI 01
263.257;000.171;46;000.352;MIDI 01
263.397;000.171;41;000.383;MIDI 01
263.569;000.095;38;000.344;MIDI 01
263.701;000.183;34;000.328;MIDI 01
263.962;000.496;29;000.320;MIDI 01
263.988;000.859;48;000.164;MIDI 01
263.968;001.108;51;000.320;MIDI 01
265.177;000.079;53;000.320;MIDI 01
265.183;000.093;50;000.305;MIDI 01
265.548;000.148;84;000.312;MIDI 01
265.702;000.117;87;000.367;MIDI 01
265.855;000.101;84;000.297;MIDI 01
266.032;000.046;81;000.219;MIDI 01
266.140;000.109;84;000.383;MIDI 01
266.323;000.070;78;000.398;MIDI 01
265.344;001.059;51;000.312;MIDI 01
265.366;001.051;54;000.375;MIDI 01
266.485;000.130;81;000.391;MIDI 01
266.621;000.134;75;000.344;MIDI 01
266.809;000.049;78;000.359;MIDI 01
266.583;000.279;51;000.328;MIDI 01
266.596;000.285;54;000.375;MIDI 01
263.951;003.042;57;000.344;MIDI 01
266.948;000.076;72;000.398;MIDI 01
267.121;000.041;75;000.242;MIDI 01
267.215;000.054;69;000.430;MIDI 01
267.397;000.070;72;000.281;MIDI 01
267.535;000.060;66;000.352;MIDI 01
267.708;000.152;69;000.312;MIDI 01
267.834;000.154;63;000.273;MIDI 01
268.023;000.055;66;000.398;MIDI 01
267.850;000.256;84;000.508;MIDI 01
268.172;000.071;60;000.359;MIDI 01
268.308;000.055;63;000.375;MIDI 01
268.283;000.093;86;000.508;MIDI 01
268.375;000.040;84;000.438;MIDI 01
268.419;000.060;83;000.492;MIDI 01
268.424;000.065;57;000.453;MIDI 01
268.589;000.111;60;000.445;MIDI 01
268.764;000.072;54;000.344;MIDI 01
268.484;000.358;84;000.578;MIDI 01
268.908;000.144;57;000.414;MIDI 01
268.919;000.194;86;000.547;MIDI 01
269.089;000.152;48;000.344;MIDI 01
269.257;000.093;54;000.352;MIDI 01
269.406;000.132;51;000.398;MIDI 01
269.533;000.083;56;000.414;MIDI 01
269.772;000.044;54;000.219;MIDI 01
269.071;000.777;87;000.562;MIDI 01
269.840;000.133;60;000.344;MIDI 01
269.999;000.104;57;000.383;MIDI 01
270.157;000.091;54;000.312;MIDI 01
270.528;000.068;51;000.312;MIDI 01
270.822;000.098;54;000.344;MIDI 01
270.973;000.110;51;000.383;MIDI 01
270.364;000.835;63;000.359;MIDI 01
270.361;000.845;66;000.391;MIDI 01
270.668;000.566;46;000.367;MIDI 01
271.136;000.117;58;000.305;MIDI 01
270.375;000.928;60;000.328;MIDI 01
271.294;000.066;54;000.273;MIDI 01
271.428;000.102;51;000.266;MIDI 01
271.667;000.235;45;000.305;MIDI 01
271.690;000.272;60;000.273;MIDI 01
271.681;000.561;63;000.289;MIDI 01
272.373;000.308;60;000.336;MIDI 01
272.384;000.307;57;000.266;MIDI 01
272.884;000.060;59;000.359;MIDI 01
272.879;000.079;62;000.391;MIDI 01
273.254;000.185;84;000.336;MIDI 01
273.420;000.111;87;000.422;MIDI 01
273.585;000.095;84;000.336;MIDI 01
273.723;000.039;81;000.359;MIDI 01
273.022;000.969;63;000.336;MIDI 01
273.040;000.954;60;000.344;MIDI 01
274.038;000.044;75;000.352;MIDI 01
274.178;000.170;81;000.383;MIDI 01
274.354;000.139;72;000.383;MIDI 01
274.384;000.133;63;000.367;MIDI 01
274.382;000.146;60;000.305;MIDI 01
274.527;000.067;75;000.367;MIDI 01
271.676;002.971;65;000.336;MIDI 01
274.669;000.039;69;000.383;MIDI 01
274.808;000.093;72;000.422;MIDI 01
274.965;000.059;63;000.344;MIDI 01
275.272;000.125;84;000.508;MIDI 01
275.274;000.188;60;000.383;MIDI 01
275.452;000.098;63;000.359;MIDI 01
275.606;000.056;57;000.352;MIDI 01
275.632;000.253;84;000.562;MIDI 01
275.748;000.159;60;000.430;MIDI 01
276.047;000.089;86;000.484;MIDI 01
276.053;000.084;57;000.461;MIDI 01
275.924;000.224;53;000.359;MIDI 01
276.127;000.046;84;000.453;MIDI 01
276.182;000.056;83;000.508;MIDI 01
276.189;000.066;48;000.461;MIDI 01
276.382;000.105;53;000.203;MIDI 01
276.384;000.121;52;000.219;MIDI 01
276.246;000.432;84;000.609;MIDI 01
276.652;000.125;48;000.445;MIDI 01
276.484;000.341;45;000.469;MIDI 01
276.806;000.089;41;000.477;MIDI 01
276.989;000.156;45;000.414;MIDI 01
277.282;000.140;41;000.539;MIDI 01
276.683;000.785;86;000.555;MIDI 01
277.130;000.352;36;000.453;MIDI 01
276.851;000.652;87;000.609;MIDI 01
277.439;000.099;33;000.469;MIDI 01
277.590;000.205;36;000.477;MIDI 01
277.747;000.182;29;000.539;MIDI 01
277.900;000.183;33;000.578;MIDI 01
278.278;000.132;30;000.531;MIDI 01
278.423;000.082;33;000.492;MIDI 01
278.571;000.058;36;000.461;MIDI 01
278.741;000.077;42;000.484;MIDI 01
278.880;000.061;45;000.469;MIDI 01
279.007;000.170;48;000.438;MIDI 01
279.194;000.046;54;000.258;MIDI 01
278.116;001.281;72;000.539;MIDI 01
278.102;001.355;75;000.641;MIDI 01
279.557;000.194;31;000.344;MIDI 01
279.695;000.135;34;000.383;MIDI 01
279.414;000.466;74;000.383;MIDI 01
279.834;000.059;38;000.406;MIDI 01
279.421;000.516;70;000.344;MIDI 01
278.125;001.889;69;000.500;MIDI 01
279.969;000.106;43;000.398;MIDI 01
280.102;000.117;46;000.492;MIDI 01
280.238;000.067;50;000.547;MIDI 01
280.361;000.043;55;000.562;MIDI 01
280.753;000.246;40;000.453;MIDI 01
280.842;000.182;43;000.445;MIDI 01
281.011;000.083;46;000.523;MIDI 01
281.145;000.116;52;000.453;MIDI 01
281.278;000.146;55;000.469;MIDI 01
281.448;000.117;58;000.484;MIDI 01
281.577;000.119;55;000.539;MIDI 01
281.728;000.119;61;000.508;MIDI 01
281.869;000.106;58;000.508;MIDI 01
281.727;000.257;67;000.469;MIDI 01
282.014;000.038;55;000.375;MIDI 01
282.120;000.107;52;000.445;MIDI 01
282.270;000.130;49;000.438;MIDI 01
280.584;001.871;79;000.633;MIDI 01
282.406;000.086;46;000.391;MIDI 01
281.717;000.783;70;000.508;MIDI 01
281.706;000.802;73;000.555;MIDI 01
282.530;000.200;43;000.406;MIDI 01
282.690;000.141;40;000.391;MIDI 01
283.030;000.182;41;000.312;MIDI 01
283.208;000.084;46;000.289;MIDI 01
283.331;000.059;50;000.328;MIDI 01
283.476;000.116;53;000.305;MIDI 01
283.604;000.169;50;000.266;MIDI 01
283.757;000.139;46;000.320;MIDI 01
283.897;000.082;41;000.328;MIDI 01
284.090;000.155;65;000.211;MIDI 01
284.092;000.165;70;000.250;MIDI 01
284.234;000.097;41;000.312;MIDI 01
284.083;000.282;74;000.398;MIDI 01
284.354;000.180;46;000.375;MIDI 01
284.493;000.100;50;000.391;MIDI 01
282.874;001.770;77;000.469;MIDI 01
284.632;000.114;53;000.422;MIDI 01
284.772;000.134;50;000.398;MIDI 01
284.923;000.114;46;000.398;MIDI 01
285.046;000.089;41;000.430;MIDI 01
285.217;000.049;51;000.406;MIDI 01
285.198;000.129;63;000.312;MIDI 01
285.201;000.215;69;000.391;MIDI 01
285.368;000.052;50;000.211;MIDI 01
285.365;000.060;48;000.273;MIDI 01
285.219;000.229;65;000.320;MIDI 01
285.204;000.262;60;000.281;MIDI 01
285.491;000.084;45;000.414;MIDI 01
285.620;000.097;41;000.359;MIDI 01
285.766;000.061;39;000.414;MIDI 01
285.919;000.052;36;000.391;MIDI 01
286.055;000.091;33;000.383;MIDI 01
286.206;000.124;29;000.359;MIDI 01
286.428;000.224;34;000.281;MIDI 01
286.456;000.275;65;000.250;MIDI 01
286.475;000.262;62;000.203;MIDI 01
286.483;000.259;58;000.023;MIDI 01
286.430;000.331;70;000.320;MIDI 01
287.559;000.056;46;000.055;MIDI 01
287.642;000.054;34;000.258;MIDI 01
287.749;000.081;46;000.320;MIDI 01
287.829;000.201;34;000.391;MIDI 01
288.985;000.044;46;000.281;MIDI 01
289.076;000.059;34;000.352;MIDI 01
289.169;000.074;46;000.359;MIDI 01
289.269;000.159;34;000.453;MIDI 01
290.553;000.058;34;000.336;MIDI 01
290.781;000.140;34;000.281;MIDI 01
290.835;000.968;65;000.312;MIDI 01
290.869;001.000;58;000.211;MIDI 01
290.845;001.055;56;000.195;MIDI 01
292.254;000.692;55;000.250;MIDI 01
292.256;000.799;58;000.297;MIDI 01
292.222;001.092;63;000.383;MIDI 01
293.683;000.854;62;000.422;MIDI 01
293.704;000.834;54;000.305;MIDI 01
293.702;000.839;58;000.352;MIDI 01
295.228;000.833;54;000.281;MIDI 01
295.241;001.307;58;000.320;MIDI 01
296.530;000.052;46;000.234;MIDI 01
296.628;000.074;34;000.297;MIDI 01
296.734;000.107;46;000.297;MIDI 01
295.195;001.711;62;000.430;MIDI 01
296.868;000.194;34;000.352;MIDI 01
296.916;000.675;55;000.156;MIDI 01
296.883;000.738;63;000.352;MIDI 01
296.924;000.701;58;000.203;MIDI 01
298.133;000.048;46;000.273;MIDI 01
298.245;000.055;34;000.305;MIDI 01
298.317;000.082;46;000.383;MIDI 01
298.432;000.183;34;000.469;MIDI 01
299.695;000.052;46;000.273;MIDI 01
299.806;000.053;34;000.305;MIDI 01
299.891;000.068;46;000.328;MIDI 01
299.996;000.085;34;000.383;MIDI 01
300.034;001.028;58;000.344;MIDI 01
300.032;001.378;65;000.383;MIDI 01
300.022;001.497;68;000.406;MIDI 01
301.491;000.868;63;000.344;MIDI 01
301.469;000.927;67;000.445;MIDI 01
301.499;000.944;58;000.305;MIDI 01
303.022;000.847;58;000.305;MIDI 01
303.017;000.876;62;000.383;MIDI 01
302.985;000.955;66;000.500;MIDI 01
304.776;000.832;62;000.367;MIDI 01
306.284;000.054;51;000.328;MIDI 01
306.428;000.059;39;000.234;MIDI 01
306.500;000.092;51;000.344;MIDI 01
304.743;001.876;66;000.469;MIDI 01
306.649;000.090;39;000.352;MIDI 01
307.833;000.052;51;000.234;MIDI 01
307.939;000.070;39;000.336;MIDI 01
308.039;000.069;51;000.305;MIDI 01
308.160;000.054;39;000.375;MIDI 01
306.641;001.907;67;000.305;MIDI 01
304.779;004.095;58;000.312;MIDI 01
306.664;002.264;63;000.250;MIDI 01
308.886;000.334;67;000.383;MIDI 01
309.339;000.074;51;000.328;MIDI 01
309.478;000.064;39;000.312;MIDI 01
309.577;000.101;51;000.352;MIDI 01
309.706;000.125;39;000.359;MIDI 01
309.724;000.885;67;000.344;MIDI 01
309.711;001.520;75;000.445;MIDI 01
311.154;000.769;67;000.398;MIDI 01
311.158;000.836;63;000.367;MIDI 01
311.157;000.847;72;000.500;MIDI 01
312.721;000.800;67;000.492;MIDI 01
312.733;000.830;62;000.445;MIDI 01
312.715;000.865;70;000.523;MIDI 01
315.658;000.058;53;000.328;MIDI 01
315.767;000.062;41;000.352;MIDI 01
315.866;000.043;53;000.367;MIDI 01
315.973;000.056;41;000.320;MIDI 01
314.657;001.780;65;000.172;MIDI 01
314.622;001.879;69;000.266;MIDI 01
314.640;001.868;60;000.156;MIDI 01
316.679;000.193;60;000.336;MIDI 01
316.678;000.241;65;000.227;MIDI 01
316.681;000.276;69;000.305;MIDI 01
317.075;000.032;89;000.359;MIDI 01
317.179;000.056;77;000.383;MIDI 01
317.231;000.069;89;000.445;MIDI 01
317.354;000.045;77;000.438;MIDI 01
317.368;000.439;65;000.375;MIDI 01
317.382;000.458;62;000.289;MIDI 01
317.365;000.660;70;000.414;MIDI 01
318.099;000.435;63;000.383;MIDI 01
318.090;000.475;65;000.352;MIDI 01
318.087;000.546;72;000.461;MIDI 01
318.865;000.529;72;000.484;MIDI 01
318.896;000.533;63;000.359;MIDI 01
320.029;000.056;53;000.359;MIDI 01
320.143;000.055;41;000.359;MIDI 01
320.038;000.185;61;000.367;MIDI 01
320.239;000.049;53;000.336;MIDI 01
320.033;000.364;69;000.445;MIDI 01
320.346;000.062;41;000.438;MIDI 01
318.884;001.881;65;000.391;MIDI 01
320.374;000.468;62;000.312;MIDI 01
320.359;000.492;70;000.430;MIDI 01
321.090;000.134;62;000.398;MIDI 01
321.081;000.205;65;000.422;MIDI 01
321.069;000.395;70;000.461;MIDI 01
321.462;000.035;89;000.430;MIDI 01
321.586;000.042;77;000.383;MIDI 01
321.610;000.071;89;000.523;MIDI 01
321.736;000.046;77;000.508;MIDI 01
321.733;000.353;69;000.500;MIDI 01
321.753;000.442;65;000.414;MIDI 01
321.724;000.660;72;000.516;MIDI 01
322.468;000.443;74;000.570;MIDI 01
322.495;000.472;70;000.477;MIDI 01
322.510;000.467;65;000.375;MIDI 01
323.265;000.508;74;000.617;MIDI 01
323.292;001.035;70;000.492;MIDI 01
324.390;000.047;53;000.430;MIDI 01
324.511;000.042;41;000.344;MIDI 01
324.558;000.066;53;000.508;MIDI 01
324.401;000.261;68;000.453;MIDI 01
324.396;000.297;71;000.469;MIDI 01
324.680;000.049;41;000.469;MIDI 01
324.698;000.334;69;000.484;MIDI 01
324.686;000.522;72;000.539;MIDI 01
323.298;001.927;65;000.422;MIDI 01
325.387;000.431;65;000.477;MIDI 01
325.780;000.041;89;000.469;MIDI 01
325.932;000.047;77;000.203;MIDI 01
325.936;000.066;89;000.531;MIDI 01
325.377;000.674;72;000.578;MIDI 01
326.032;000.076;77;000.547;MIDI 01
325.381;000.746;69;000.562;MIDI 01
326.077;000.439;74;000.609;MIDI 01
326.079;000.440;70;000.547;MIDI 01
326.089;000.468;65;000.500;MIDI 01
326.821;000.356;65;000.422;MIDI 01
326.805;000.414;75;000.633;MIDI 01
326.814;000.438;72;000.547;MIDI 01
327.594;000.684;75;000.648;MIDI 01
327.617;000.675;72;000.555;MIDI 01
327.619;001.131;65;000.508;MIDI 01
328.754;000.052;53;000.469;MIDI 01
328.858;000.059;41;000.516;MIDI 01
328.917;000.071;53;000.547;MIDI 01
329.039;000.053;41;000.578;MIDI 01
328.764;000.342;69;000.523;MIDI 01
328.765;000.351;73;000.539;MIDI 01
329.060;000.360;70;000.555;MIDI 01
329.062;000.520;74;000.625;MIDI 01
328.752;000.917;65;000.078;MIDI 01
329.808;000.371;70;000.539;MIDI 01
329.812;000.400;65;000.484;MIDI 01
330.258;000.030;89;000.445;MIDI 01
330.343;000.079;77;000.562;MIDI 01
329.799;000.647;74;000.641;MIDI 01
330.402;000.062;89;000.547;MIDI 01
330.504;000.039;77;000.516;MIDI 01
330.509;000.620;76;000.641;MIDI 01
330.541;000.629;67;000.422;MIDI 01
330.531;000.668;70;000.445;MIDI 01
330.529;000.675;73;000.500;MIDI 01
331.321;000.262;73;000.500;MIDI 01
331.348;000.241;70;000.445;MIDI 01
331.293;000.374;76;000.664;MIDI 01
331.332;000.351;67;000.422;MIDI 01
331.681;000.032;89;000.422;MIDI 01
331.774;000.046;77;000.438;MIDI 01
331.879;000.093;89;000.406;MIDI 01
332.381;000.470;69;000.312;MIDI 01
332.384;000.508;72;000.273;MIDI 01
332.361;000.827;77;000.375;MIDI 01
333.648;000.081;53;000.367;MIDI 01
333.781;000.103;41;000.422;MIDI 01
333.895;000.130;53;000.391;MIDI 01
333.184;001.197;69;000.344;MIDI 01
333.152;001.253;72;000.352;MIDI 01
333.189;001.307;65;000.320;MIDI 01
334.593;000.156;69;000.344;MIDI 01
334.584;000.221;65;000.297;MIDI 01
334.999;000.047;89;000.375;MIDI 01
334.583;000.597;72;000.492;MIDI 01
335.118;000.101;77;000.406;MIDI 01
335.240;000.198;89;000.359;MIDI 01
335.256;000.469;70;000.391;MIDI 01
335.273;000.493;67;000.336;MIDI 01
335.250;000.816;76;000.508;MIDI 01
336.048;000.316;70;000.375;MIDI 01
336.070;000.374;67;000.273;MIDI 01
336.044;000.465;72;000.383;MIDI 01
336.865;000.371;69;000.242;MIDI 01
336.851;000.455;65;000.297;MIDI 01
336.841;000.817;77;000.367;MIDI 01
338.091;000.062;53;000.328;MIDI 01
338.233;000.055;41;000.219;MIDI 01
338.320;000.144;53;000.391;MIDI 01
337.594;001.304;69;000.383;MIDI 01
337.608;001.305;65;000.320;MIDI 01
337.591;001.332;72;000.398;MIDI 01
339.125;000.209;69;000.273;MIDI 01
339.129;000.297;65;000.258;MIDI 01
339.145;000.457;72;000.328;MIDI 01
339.610;000.043;89;000.266;MIDI 01
339.708;000.120;77;000.414;MIDI 01
339.857;000.154;89;000.148;MIDI 01
339.859;000.555;70;000.281;MIDI 01
339.855;000.583;67;000.281;MIDI 01
339.837;000.808;76;000.375;MIDI 01
340.679;000.347;70;000.250;MIDI 01
340.689;000.385;67;000.195;MIDI 01
340.683;000.458;72;000.359;MIDI 01
341.667;000.466;69;000.141;MIDI 01
341.700;000.464;65;000.156;MIDI 01
341.628;000.791;77;000.367;MIDI 01
342.953;000.072;53;000.273;MIDI 01
343.089;000.082;41;000.328;MIDI 01
343.225;000.124;53;000.289;MIDI 01
342.461;001.084;69;000.289;MIDI 01
342.473;001.157;65;000.227;MIDI 01
342.464;001.458;72;000.359;MIDI 01
344.470;000.047;53;000.023;MIDI 01
344.553;000.111;41;000.297;MIDI 01
344.725;000.083;53;000.188;MIDI 01
343.966;001.135;65;000.250;MIDI 01
343.970;001.136;69;000.312;MIDI 01
343.982;001.203;60;000.250;MIDI 01
346.130;000.111;41;000.172;MIDI 01
346.290;000.167;53;000.102;MIDI 01
345.556;001.005;57;000.211;MIDI 01
345.552;001.124;60;000.258;MIDI 01
345.522;001.201;65;000.289;MIDI 01
347.132;001.246;65;000.172;MIDI 01
347.944;000.598;64;000.195;MIDI 01
348.773;000.399;63;000.203;MIDI 01
350.021;000.082;67;000.266;MIDI 01
350.201;000.068;69;000.367;MIDI 01
349.585;000.726;62;000.289;MIDI 01
350.378;000.086;70;000.453;MIDI 01
348.741;001.739;65;000.289;MIDI 01
350.399;000.206;63;000.227;MIDI 01
350.436;000.173;60;000.148;MIDI 01
350.562;000.096;72;000.516;MIDI 01
350.748;000.093;74;000.547;MIDI 01
350.972;000.114;75;000.469;MIDI 01
351.456;000.233;46;000.172;MIDI 01
352.212;001.046;58;000.180;MIDI 01
352.940;000.880;62;000.219;MIDI 01
352.911;000.930;65;000.227;MIDI 01
352.915;001.161;70;000.320;MIDI 01
351.427;002.769;77;000.438;MIDI 01
354.289;000.111;74;000.344;MIDI 01
353.686;001.086;58;000.227;MIDI 01
354.473;000.896;67;000.250;MIDI 01
354.458;001.095;63;000.250;MIDI 01
355.814;000.150;79;000.336;MIDI 01
354.454;001.523;82;000.438;MIDI 01
355.240;000.868;58;000.258;MIDI 01
354.471;002.232;70;000.344;MIDI 01
356.005;000.808;65;000.234;MIDI 01
356.024;000.799;62;000.258;MIDI 01
356.729;000.906;58;000.211;MIDI 01
357.452;000.710;65;000.172;MIDI 01
357.450;000.750;62;000.227;MIDI 01
358.142;000.167;58;000.250;MIDI 01
355.994;002.411;77;000.398;MIDI 01
357.474;001.184;70;000.281;MIDI 01
358.710;000.106;74;000.242;MIDI 01
358.902;000.895;55;000.312;MIDI 01
359.624;000.197;51;000.258;MIDI 01
358.924;001.244;70;000.289;MIDI 01
358.905;001.356;75;000.398;MIDI 01
359.610;000.658;67;000.352;MIDI 01
360.176;000.218;72;000.391;MIDI 01
360.383;000.266;41;000.250;MIDI 01
361.115;000.358;62;000.281;MIDI 01
361.113;001.092;53;000.219;MIDI 01
361.872;000.961;62;000.195;MIDI 01
361.848;001.023;65;000.336;MIDI 01
360.393;002.578;70;000.367;MIDI 01
361.881;001.178;58;000.156;MIDI 01
362.595;000.920;53;000.211;MIDI 01
363.379;000.540;74;000.344;MIDI 01
363.781;000.352;72;000.438;MIDI 01
363.373;000.899;57;000.219;MIDI 01
363.375;000.942;60;000.219;MIDI 01
364.107;000.293;53;000.312;MIDI 01
364.111;000.373;70;000.477;MIDI 01
363.397;001.183;65;000.234;MIDI 01
364.479;000.116;72;000.516;MIDI 01
364.920;000.778;57;000.273;MIDI 01
364.986;001.290;72;000.406;MIDI 01
366.282;000.145;73;000.336;MIDI 01
365.691;000.759;53;000.250;MIDI 01
366.503;000.305;58;000.172;MIDI 01
364.916;001.949;46;000.281;MIDI 01
366.489;000.661;74;000.367;MIDI 01
365.008;002.307;65;000.266;MIDI 01
367.251;000.780;50;000.297;MIDI 01
368.097;000.059;65;000.398;MIDI 01
368.270;000.050;67;000.469;MIDI 01
368.406;000.089;69;000.531;MIDI 01
367.951;000.698;51;000.258;MIDI 01
368.572;000.079;70;000.594;MIDI 01
368.735;000.088;72;000.578;MIDI 01
368.596;000.389;48;000.375;MIDI 01
368.905;000.085;74;000.602;MIDI 01
369.077;000.112;75;000.547;MIDI 01
369.462;000.246;46;000.227;MIDI 01
370.493;000.255;69;000.336;MIDI 01
370.180;001.095;58;000.242;MIDI 01
370.877;000.821;62;000.234;MIDI 01
370.867;000.922;65;000.203;MIDI 01
369.465;002.685;77;000.453;MIDI 01
372.225;000.144;74;000.375;MIDI 01
371.587;001.151;58;000.250;MIDI 01
372.431;000.927;67;000.234;MIDI 01
372.410;001.106;63;000.281;MIDI 01
373.724;000.135;79;000.336;MIDI 01
372.402;001.469;82;000.453;MIDI 01
373.173;000.843;58;000.203;MIDI 01
370.850;003.718;70;000.320;MIDI 01
373.916;000.779;65;000.117;MIDI 01
373.905;000.815;62;000.227;MIDI 01
374.971;000.381;69;000.242;MIDI 01
374.626;000.927;58;000.188;MIDI 01
375.329;000.702;65;000.195;MIDI 01
375.314;000.732;62;000.266;MIDI 01
376.008;000.110;58;000.250;MIDI 01
373.880;002.377;77;000.359;MIDI 01
375.305;001.183;70;000.297;MIDI 01
376.527;000.210;74;000.305;MIDI 01
376.735;000.840;77;000.414;MIDI 01
376.744;000.909;70;000.328;MIDI 01
377.113;000.710;75;000.445;MIDI 01
377.810;000.044;72;000.406;MIDI 01
377.436;000.458;67;000.352;MIDI 01
377.468;000.819;51;000.141;MIDI 01
376.750;001.593;55;000.289;MIDI 01
378.299;000.488;62;000.352;MIDI 01
379.074;000.364;62;000.383;MIDI 01
379.076;000.430;58;000.297;MIDI 01
379.831;000.303;62;000.414;MIDI 01
379.833;000.320;65;000.461;MIDI 01
378.307;002.250;53;000.250;MIDI 01
378.277;002.406;70;000.391;MIDI 01
380.569;000.230;62;000.516;MIDI 01
380.581;000.315;58;000.461;MIDI 01
381.449;000.414;57;000.422;MIDI 01
381.443;000.966;60;000.477;MIDI 01
382.300;000.248;53;000.398;MIDI 01
382.292;000.284;57;000.469;MIDI 01
381.442;001.149;41;000.383;MIDI 01
381.446;001.186;29;000.359;MIDI 01
381.432;001.278;65;000.523;MIDI 01
383.366;000.416;62;000.211;MIDI 01
383.373;000.439;58;000.211;MIDI 01
383.368;000.467;34;000.156;MIDI 01
383.377;000.460;53;000.141;MIDI 01
384.824;000.070;46;000.070;MIDI 01
384.898;000.205;34;000.242;MIDI 01
385.999;000.050;46;000.188;MIDI 01
386.086;000.065;34;000.312;MIDI 01
386.188;000.087;46;000.305;MIDI 01
386.305;000.175;34;000.336;MIDI 01
387.169;000.252;58;000.195;MIDI 01
389.180;000.058;46;000.172;MIDI 01
389.273;000.066;34;000.320;MIDI 01
387.992;001.387;58;000.266;MIDI 01
389.391;000.065;46;000.289;MIDI 01
389.491;000.076;34;000.367;MIDI 01
390.717;000.061;34;000.383;MIDI 01
390.895;000.053;46;000.023;MIDI 01
390.920;000.081;34;000.438;MIDI 01
389.482;001.990;59;000.305;MIDI 01
389.502;002.201;56;000.188;MIDI 01
389.512;002.225;50;000.188;MIDI 01
389.566;002.225;53;000.141;MIDI 01
391.684;000.430;59;000.344;MIDI 01
393.609;000.050;46;000.227;MIDI 01
393.685;000.069;34;000.391;MIDI 01
393.788;000.064;46;000.398;MIDI 01
393.894;000.052;34;000.453;MIDI 01
395.095;000.046;46;000.383;MIDI 01
395.198;000.059;34;000.453;MIDI 01
395.282;000.048;46;000.430;MIDI 01
395.387;000.052;34;000.469;MIDI 01
393.896;001.972;62;000.430;MIDI 01
392.450;003.644;59;000.469;MIDI 01
393.908;002.198;53;000.320;MIDI 01
393.900;002.243;56;000.344;MIDI 01
396.052;000.446;62;000.492;MIDI 01
397.962;000.041;46;000.375;MIDI 01
398.070;000.074;34;000.453;MIDI 01
398.150;000.064;46;000.461;MIDI 01
398.266;000.059;34;000.539;MIDI 01
398.288;000.735;56;000.438;MIDI 01
398.278;000.773;59;000.453;MIDI 01
398.261;000.829;65;000.562;MIDI 01
396.833;002.280;62;000.508;MIDI 01
399.403;000.046;46;000.438;MIDI 01
399.496;000.071;34;000.508;MIDI 01
399.580;000.059;46;000.500;MIDI 01
399.689;000.076;34;000.641;MIDI 01
399.693;000.772;62;000.539;MIDI 01
399.695;000.782;59;000.469;MIDI 01
399.701;000.783;65;000.516;MIDI 01
399.683;000.866;68;000.609;MIDI 01
400.841;000.049;46;000.445;MIDI 01
400.928;000.098;34;000.555;MIDI 01
401.015;000.096;46;000.547;MIDI 01
401.141;000.211;34;000.648;MIDI 01
402.359;000.047;56;000.406;MIDI 01
402.436;000.090;46;000.492;MIDI 01
402.519;000.118;56;000.523;MIDI 01
402.626;000.105;46;000.570;MIDI 01
403.843;000.055;56;000.391;MIDI 01
403.956;000.050;46;000.383;MIDI 01
404.032;000.057;56;000.414;MIDI 01
401.136;003.051;71;000.641;MIDI 01
402.641;001.555;68;000.516;MIDI 01
404.139;000.124;46;000.469;MIDI 01
404.164;000.754;70;000.523;MIDI 01
402.664;002.634;62;000.469;MIDI 01
402.650;002.650;65;000.523;MIDI 01
404.890;000.421;68;000.438;MIDI 01
407.081;000.048;46;000.258;MIDI 01
405.794;001.443;66;000.422;MIDI 01
407.201;000.055;34;000.273;MIDI 01
407.272;000.068;46;000.336;MIDI 01
407.384;000.082;34;000.391;MIDI 01
408.544;000.045;46;000.258;MIDI 01
408.626;000.071;34;000.414;MIDI 01
408.721;000.056;46;000.367;MIDI 01
408.830;000.059;34;000.500;MIDI 01
407.410;001.993;58;000.227;MIDI 01
407.381;002.241;67;000.328;MIDI 01
407.352;002.296;63;000.266;MIDI 01
409.565;000.385;70;000.531;MIDI 01
411.724;000.048;58;000.305;MIDI 01
411.810;000.089;46;000.438;MIDI 01
411.914;000.097;58;000.344;MIDI 01
412.021;000.101;46;000.453;MIDI 01
413.232;000.049;58;000.195;MIDI 01
413.323;000.058;46;000.359;MIDI 01
413.416;000.052;58;000.359;MIDI 01
412.033;001.533;69;000.461;MIDI 01
410.446;003.130;75;000.570;MIDI 01
413.539;000.102;46;000.328;MIDI 01
413.555;000.845;72;000.398;MIDI 01
414.306;000.367;69;000.453;MIDI 01
412.051;002.697;66;000.383;MIDI 01
412.049;002.766;63;000.375;MIDI 01
416.403;000.056;46;000.117;MIDI 01
416.483;000.061;34;000.305;MIDI 01
416.699;000.078;34;000.336;MIDI 01
415.180;001.649;72;000.406;MIDI 01
416.762;000.792;65;000.203;MIDI 01
416.755;000.863;62;000.195;MIDI 01
417.940;000.053;46;000.023;MIDI 01
417.975;000.076;34;000.375;MIDI 01
418.118;000.055;46;000.195;MIDI 01
416.740;001.473;70;000.344;MIDI 01
418.218;000.128;34;000.383;MIDI 01
418.226;000.855;68;000.398;MIDI 01
418.235;000.933;65;000.320;MIDI 01
418.957;000.781;74;000.516;MIDI 01
419.696;000.670;77;000.531;MIDI 01
420.779;000.047;58;000.250;MIDI 01
420.877;000.056;46;000.352;MIDI 01
420.958;000.083;58;000.352;MIDI 01
421.080;000.081;46;000.398;MIDI 01
421.125;000.768;67;000.352;MIDI 01
420.363;001.535;75;000.492;MIDI 01
421.091;000.825;70;000.445;MIDI 01
422.281;000.061;58;000.109;MIDI 01
422.380;000.058;46;000.258;MIDI 01
422.489;000.070;58;000.289;MIDI 01
421.822;000.791;69;000.406;MIDI 01
422.586;000.130;46;000.305;MIDI 01
421.832;000.913;66;000.391;MIDI 01
422.622;000.392;63;000.297;MIDI 01
422.617;000.735;72;000.359;MIDI 01
423.341;000.355;63;000.281;MIDI 01
423.352;000.378;60;000.258;MIDI 01
423.738;000.058;58;000.266;MIDI 01
423.848;000.105;46;000.367;MIDI 01
423.986;000.080;58;000.312;MIDI 01
423.355;000.715;69;000.352;MIDI 01
423.380;000.755;66;000.242;MIDI 01
424.382;000.603;62;000.148;MIDI 01
424.341;000.686;70;000.258;MIDI 01
424.357;000.685;65;000.289;MIDI 01
424.371;001.349;50;000.203;MIDI 01
425.757;000.136;51;000.297;MIDI 01
425.754;000.204;48;000.273;MIDI 01
425.969;001.392;50;000.234;MIDI 01
425.967;001.403;53;000.320;MIDI 01
427.592;000.048;65;000.234;MIDI 01
427.753;000.052;64;000.367;MIDI 01
427.918;000.052;65;000.414;MIDI 01
428.083;000.058;67;000.445;MIDI 01
428.230;000.052;69;000.461;MIDI 01
428.415;000.055;70;000.469;MIDI 01
424.359;004.232;46;000.180;MIDI 01
427.386;001.252;48;000.242;MIDI 01
427.374;001.294;51;000.266;MIDI 01
428.584;000.152;72;000.492;MIDI 01
428.875;000.315;70;000.383;MIDI 01
428.877;000.965;50;000.227;MIDI 01
428.850;001.002;46;000.094;MIDI 01
429.193;000.792;70;000.117;MIDI 01
428.863;001.389;74;000.453;MIDI 01
430.272;000.067;72;000.375;MIDI 01
430.265;000.178;75;000.422;MIDI 01
430.495;000.811;77;000.445;MIDI 01
430.468;000.864;74;000.406;MIDI 01
428.879;002.535;65;000.289;MIDI 01
432.244;000.053;53;000.375;MIDI 01
432.421;000.060;52;000.359;MIDI 01
432.578;000.052;53;000.375;MIDI 01
432.750;000.044;55;000.359;MIDI 01
432.909;000.066;57;000.453;MIDI 01
433.090;000.053;58;000.469;MIDI 01
432.066;001.151;65;000.258;MIDI 01
433.254;000.111;60;000.445;MIDI 01
432.073;001.346;72;000.328;MIDI 01
432.075;001.419;75;000.297;MIDI 01
433.525;000.789;65;000.242;MIDI 01
433.523;000.833;70;000.328;MIDI 01
433.514;000.917;74;000.367;MIDI 01
433.486;000.949;62;000.391;MIDI 01
434.816;000.109;63;000.320;MIDI 01
434.841;000.122;60;000.352;MIDI 01
433.504;001.575;58;000.320;MIDI 01
435.061;000.694;65;000.344;MIDI 01
435.059;000.833;62;000.391;MIDI 01
436.887;001.122;34;000.367;MIDI 01
439.118;004.136;33;000.180;MIDI 01
443.903;000.336;84;000.406;MIDI 01
444.515;000.044;86;000.258;MIDI 01
444.577;000.054;84;000.398;MIDI 01
444.658;000.036;83;000.359;MIDI 01
444.734;000.492;84;000.508;MIDI 01
445.391;000.116;86;000.469;MIDI 01
445.634;000.444;87;000.398;MIDI 01
447.572;000.744;58;000.203;MIDI 01
447.570;000.816;60;000.141;MIDI 01
447.556;000.840;63;000.250;MIDI 01
447.552;000.953;66;000.336;MIDI 01
449.701;001.657;65;000.227;MIDI 01
451.985;000.245;67;000.188;MIDI 01
452.299;000.081;65;000.109;MIDI 01
452.442;000.111;64;000.203;MIDI 01
452.623;000.159;65;000.297;MIDI 01
452.816;000.069;67;000.289;MIDI 01
452.904;000.100;69;000.414;MIDI 01
453.030;000.033;70;000.398;MIDI 01
453.144;000.083;72;000.461;MIDI 01
453.271;000.062;74;000.438;MIDI 01
453.351;000.033;75;000.469;MIDI 01
453.465;000.066;77;000.477;MIDI 01
453.542;000.125;79;000.500;MIDI 01
453.639;000.060;81;000.398;MIDI 01
453.696;000.075;82;000.539;MIDI 01
449.731;004.128;57;000.078;MIDI 01
449.726;004.147;60;000.125;MIDI 01
449.721;004.179;63;000.211;MIDI 01
453.835;000.348;84;000.516;MIDI 01
454.368;000.050;86;000.383;MIDI 01
454.441;000.060;84;000.445;MIDI 01
454.523;000.056;83;000.422;MIDI 01
454.596;000.381;84;000.555;MIDI 01
455.243;000.082;86;000.414;MIDI 01
455.469;000.355;87;000.445;MIDI 01
457.331;000.457;63;000.320;MIDI 01
457.322;000.522;54;000.391;MIDI 01
457.335;000.584;60;000.375;MIDI 01
457.293;001.798;75;000.617;MIDI 01
457.314;001.817;72;000.531;MIDI 01
457.316;001.948;69;000.523;MIDI 01
459.136;000.426;74;000.305;MIDI 01
459.143;000.422;55;000.156;MIDI 01
459.139;000.430;62;000.227;MIDI 01
459.145;000.474;58;000.148;MIDI 01
459.117;000.529;70;000.281;MIDI 01
461.856;000.197;52;000.562;MIDI 01
461.857;000.198;61;000.594;MIDI 01
461.861;000.206;58;000.555;MIDI 01
462.635;000.228;67;000.539;MIDI 01
462.630;000.280;73;000.539;MIDI 01
462.631;000.284;70;000.539;MIDI 01
461.065;002.777;79;000.617;MIDI 01
465.315;000.174;62;000.219;MIDI 01
465.327;000.172;58;000.188;MIDI 01
465.325;000.188;53;000.195;MIDI 01
466.154;000.191;70;000.195;MIDI 01
466.172;000.177;65;000.125;MIDI 01
466.142;000.250;74;000.289;MIDI 01
466.927;000.133;29;000.211;MIDI 01
466.936;000.137;41;000.203;MIDI 01
464.516;002.896;77;000.375;MIDI 01
467.865;000.194;63;000.148;MIDI 01
467.842;000.225;69;000.289;MIDI 01
467.849;000.232;60;000.172;MIDI 01
468.673;000.207;53;000.203;MIDI 01
468.679;000.292;41;000.172;MIDI 01
469.762;000.205;58;000.055;MIDI 01
469.747;000.316;62;000.234;MIDI 01
469.721;000.379;70;000.203;MIDI 01
470.786;000.275;77;000.258;MIDI 01
470.800;000.271;65;000.242;MIDI 01
471.641;000.227;74;000.336;MIDI 01
472.422;000.272;71;000.273;MIDI 01
472.434;000.320;59;000.164;MIDI 01
473.200;000.299;70;000.266;MIDI 01
473.267;000.255;58;000.023;MIDI 01
473.958;000.275;68;000.289;MIDI 01
473.974;000.278;56;000.219;MIDI 01
469.760;004.523;46;000.117;MIDI 01
469.719;004.589;34;000.148;MIDI 01
474.789;000.380;55;000.297;MIDI 01
474.791;000.534;67;000.250;MIDI 01
475.632;000.273;70;000.344;MIDI 01
475.640;000.357;58;000.258;MIDI 01
476.466;000.365;51;000.250;MIDI 01
476.433;000.678;63;000.336;MIDI 01
477.251;000.221;67;000.352;MIDI 01
477.274;000.285;55;000.273;MIDI 01
478.081;000.293;48;000.234;MIDI 01
478.052;000.491;60;000.281;MIDI 01
478.824;000.132;53;000.203;MIDI 01
478.810;000.191;65;000.328;MIDI 01
479.216;000.133;63;000.398;MIDI 01
474.793;004.579;46;000.172;MIDI 01
479.242;000.194;51;000.312;MIDI 01
474.786;005.033;34;000.203;MIDI 01
479.704;000.204;50;000.242;MIDI 01
479.698;000.299;62;000.320;MIDI 01
480.538;000.849;65;000.297;MIDI 01
481.367;000.221;62;000.242;MIDI 01
482.173;000.340;59;000.164;MIDI 01
482.151;001.021;74;000.367;MIDI 01
482.944;000.402;58;000.242;MIDI 01
483.727;000.114;74;000.289;MIDI 01
483.895;000.050;75;000.328;MIDI 01
484.006;000.035;74;000.328;MIDI 01
483.752;000.303;56;000.195;MIDI 01
479.708;004.369;46;000.258;MIDI 01
484.085;000.043;75;000.438;MIDI 01
484.164;000.030;74;000.422;MIDI 01
484.256;000.060;75;000.375;MIDI 01
484.331;000.162;74;000.445;MIDI 01
484.572;000.875;55;000.203;MIDI 01
484.520;001.022;77;000.406;MIDI 01
485.387;000.539;58;000.234;MIDI 01
485.393;000.936;75;000.320;MIDI 01
486.132;000.917;51;000.258;MIDI 01
487.022;000.979;55;000.180;MIDI 01
486.976;001.069;75;000.344;MIDI 01
488.540;000.053;69;000.188;MIDI 01
488.671;000.100;70;000.297;MIDI 01
487.774;001.101;48;000.250;MIDI 01
488.792;000.097;69;000.180;MIDI 01
484.542;004.440;46;000.258;MIDI 01
488.529;000.472;53;000.219;MIDI 01
488.939;000.078;70;000.391;MIDI 01
489.057;000.060;69;000.359;MIDI 01
488.899;000.234;51;000.242;MIDI 01
489.158;000.189;67;000.391;MIDI 01
489.301;000.270;69;000.336;MIDI 01
489.568;000.445;70;000.297;MIDI 01
489.510;000.921;50;000.195;MIDI 01
489.502;001.404;46;000.086;MIDI 01
490.352;000.667;53;000.234;MIDI 01
490.725;000.361;51;000.289;MIDI 01
490.730;000.645;69;000.297;MIDI 01
491.207;000.670;70;000.336;MIDI 01
491.208;000.926;50;000.281;MIDI 01
491.220;001.275;46;000.172;MIDI 01
492.003;000.568;53;000.297;MIDI 01
492.381;000.305;51;000.305;MIDI 01
492.397;000.416;69;000.383;MIDI 01
492.406;000.459;72;000.430;MIDI 01
492.870;000.557;70;000.430;MIDI 01
492.872;000.574;74;000.406;MIDI 01
492.887;000.860;50;000.352;MIDI 01
492.897;001.379;46;000.289;MIDI 01
493.668;000.681;53;000.438;MIDI 01
494.110;000.305;72;000.422;MIDI 01
494.103;000.454;51;000.375;MIDI 01
494.113;000.650;81;000.555;MIDI 01
494.744;000.380;74;000.438;MIDI 01
494.724;000.525;82;000.547;MIDI 01
494.771;000.530;46;000.312;MIDI 01
494.747;000.558;50;000.328;MIDI 01
495.994;001.122;86;000.578;MIDI 01
497.089;000.142;84;000.422;MIDI 01
497.794;001.409;84;000.367;MIDI 01
500.233;001.469;82;000.312;MIDI 01
501.648;001.655;34;000.078;MIDI 01
