Start;Duration;Pitch;Velocity;Instrument
001.301;000.348;58;000.109;MIDI 01
001.255;000.418;70;000.305;MIDI 01
001.312;000.387;67;000.164;MIDI 01
002.049;000.220;58;000.266;MIDI 01
002.058;000.255;67;000.273;MIDI 01
002.021;000.717;70;000.359;MIDI 01
003.005;000.189;46;000.273;MIDI 01
003.183;000.136;48;000.367;MIDI 01
003.349;000.154;50;000.367;MIDI 01
003.514;000.149;51;000.438;MIDI 01
003.678;000.112;53;000.383;MIDI 01
002.803;001.095;63;000.195;MIDI 01
003.841;000.144;55;000.352;MIDI 01
002.817;001.180;58;000.086;MIDI 01
002.770;001.333;67;000.336;MIDI 01
004.014;000.239;51;000.336;MIDI 01
004.258;000.246;56;000.250;MIDI 01
004.261;000.562;65;000.289;MIDI 01
004.247;000.592;62;000.312;MIDI 01
004.269;000.618;58;000.172;MIDI 01
005.116;000.270;58;000.266;MIDI 01
005.114;000.309;62;000.336;MIDI 01
005.107;000.366;65;000.398;MIDI 01
005.906;000.135;56;000.289;MIDI 01
006.075;000.171;55;000.352;MIDI 01
006.257;000.158;53;000.430;MIDI 01
006.429;000.156;51;000.469;MIDI 01
006.604;000.154;50;000.422;MIDI 01
006.774;000.154;48;000.422;MIDI 01
005.926;001.210;68;000.320;MIDI 01
006.967;000.177;46;000.352;MIDI 01
005.928;001.241;58;000.195;MIDI 01
005.916;001.321;70;000.391;MIDI 01
005.935;001.304;65;000.289;MIDI 01
007.162;000.245;50;000.289;MIDI 01
007.449;000.234;51;000.234;MIDI 01
007.425;000.682;70;000.320;MIDI 01
007.459;000.660;67;000.266;MIDI 01
007.471;000.660;58;000.195;MIDI 01
008.308;000.289;67;000.406;MIDI 01
008.298;000.307;58;000.297;MIDI 01
008.296;000.886;70;000.406;MIDI 01
009.329;000.215;46;000.266;MIDI 01
009.526;000.147;48;000.383;MIDI 01
009.701;000.167;50;000.391;MIDI 01
009.878;000.150;51;000.414;MIDI 01
009.116;000.931;63;000.258;MIDI 01
010.044;000.153;53;000.453;MIDI 01
009.118;001.177;58;000.250;MIDI 01
010.233;000.163;55;000.453;MIDI 01
009.114;001.322;67;000.344;MIDI 01
010.393;000.177;51;000.453;MIDI 01
010.602;000.113;56;000.367;MIDI 01
010.624;000.174;58;000.273;MIDI 01
010.618;000.188;62;000.281;MIDI 01
010.606;000.205;65;000.297;MIDI 01
010.803;000.090;53;000.414;MIDI 01
010.994;000.060;50;000.320;MIDI 01
011.188;000.066;46;000.352;MIDI 01
011.374;000.051;44;000.312;MIDI 01
011.005;000.617;70;000.438;MIDI 01
011.557;000.079;41;000.336;MIDI 01
011.772;000.098;38;000.273;MIDI 01
011.782;000.241;70;000.359;MIDI 01
011.977;000.077;34;000.297;MIDI 01
011.786;000.277;56;000.281;MIDI 01
012.279;001.102;55;000.297;MIDI 01
012.278;001.261;63;000.258;MIDI 01
012.281;001.467;39;000.281;MIDI 01
013.280;000.524;51;000.266;MIDI 01
014.468;000.248;58;000.141;MIDI 01
014.448;000.412;70;000.305;MIDI 01
014.453;000.484;67;000.258;MIDI 01
015.328;000.067;58;000.273;MIDI 01
015.312;000.280;67;000.258;MIDI 01
015.298;000.858;70;000.398;MIDI 01
016.352;000.194;46;000.281;MIDI 01
016.530;000.142;48;000.352;MIDI 01
016.706;000.147;50;000.352;MIDI 01
016.868;000.166;51;000.453;MIDI 01
017.049;000.147;53;000.375;MIDI 01
016.153;001.172;63;000.266;MIDI 01
016.167;001.207;58;000.266;MIDI 01
017.240;000.168;55;000.320;MIDI 01
016.119;001.515;67;000.383;MIDI 01
017.433;000.232;51;000.305;MIDI 01
017.681;000.254;56;000.195;MIDI 01
017.673;000.665;65;000.266;MIDI 01
017.684;000.667;58;000.211;MIDI 01
017.671;000.698;62;000.242;MIDI 01
018.552;000.250;58;000.219;MIDI 01
018.534;000.310;62;000.344;MIDI 01
018.532;000.376;65;000.406;MIDI 01
019.379;000.249;56;000.258;MIDI 01
019.639;000.176;55;000.328;MIDI 01
019.836;000.140;53;000.352;MIDI 01
020.003;000.160;51;000.406;MIDI 01
020.194;000.149;50;000.367;MIDI 01
020.364;000.164;48;000.391;MIDI 01
019.382;001.273;68;000.242;MIDI 01
019.357;001.302;70;000.289;MIDI 01
019.385;001.318;65;000.227;MIDI 01
019.359;001.346;58;000.227;MIDI 01
020.582;000.186;46;000.305;MIDI 01
020.775;000.233;50;000.266;MIDI 01
021.067;000.248;51;000.203;MIDI 01
021.045;000.649;58;000.219;MIDI 01
021.050;000.673;67;000.242;MIDI 01
021.043;000.696;70;000.305;MIDI 01
021.918;000.156;58;000.250;MIDI 01
021.922;000.293;67;000.336;MIDI 01
021.899;000.852;70;000.430;MIDI 01
022.927;000.183;46;000.367;MIDI 01
023.127;000.152;48;000.391;MIDI 01
023.308;000.158;50;000.383;MIDI 01
023.478;000.167;51;000.453;MIDI 01
023.653;000.165;53;000.461;MIDI 01
022.722;001.215;63;000.281;MIDI 01
023.851;000.189;55;000.430;MIDI 01
022.718;001.341;58;000.273;MIDI 01
022.714;001.427;67;000.367;MIDI 01
024.035;000.176;51;000.438;MIDI 01
024.261;000.085;56;000.375;MIDI 01
024.467;000.074;53;000.414;MIDI 01
024.245;000.339;58;000.297;MIDI 01
024.651;000.046;50;000.344;MIDI 01
024.239;000.479;65;000.336;MIDI 01
024.249;000.573;62;000.320;MIDI 01
024.842;000.059;46;000.422;MIDI 01
025.018;000.048;44;000.359;MIDI 01
025.205;000.056;41;000.414;MIDI 01
024.653;000.636;70;000.484;MIDI 01
025.421;000.081;38;000.281;MIDI 01
025.436;000.241;70;000.414;MIDI 01
025.627;000.052;34;000.312;MIDI 01
025.442;000.250;56;000.320;MIDI 01
025.945;001.149;55;000.281;MIDI 01
025.926;001.353;63;000.320;MIDI 01
026.951;000.352;51;000.258;MIDI 01
025.950;001.370;39;000.266;MIDI 01
028.072;000.260;65;000.102;MIDI 01
028.028;000.315;68;000.297;MIDI 01
028.863;000.271;68;000.336;MIDI 01
029.870;000.048;34;000.312;MIDI 01
030.077;000.046;46;000.242;MIDI 01
030.241;000.046;48;000.352;MIDI 01
030.418;000.036;50;000.352;MIDI 01
030.585;000.036;51;000.430;MIDI 01
030.770;000.033;53;000.398;MIDI 01
030.955;000.041;55;000.375;MIDI 01
029.666;001.352;74;000.352;MIDI 01
029.674;001.358;65;000.258;MIDI 01
029.680;001.367;68;000.281;MIDI 01
031.191;000.310;57;000.305;MIDI 01
031.172;000.699;74;000.359;MIDI 01
031.189;000.701;65;000.320;MIDI 01
032.011;000.175;65;000.367;MIDI 01
031.593;000.634;58;000.422;MIDI 01
032.009;000.251;74;000.484;MIDI 01
033.031;000.048;34;000.367;MIDI 01
033.201;000.042;46;000.391;MIDI 01
033.359;000.051;48;000.477;MIDI 01
033.542;000.039;50;000.430;MIDI 01
033.708;000.043;51;000.516;MIDI 01
032.837;001.066;68;000.320;MIDI 01
033.883;000.048;53;000.492;MIDI 01
032.835;001.226;65;000.383;MIDI 01
032.815;001.253;77;000.523;MIDI 01
032.831;001.248;74;000.461;MIDI 01
034.059;000.048;55;000.492;MIDI 01
034.271;000.290;57;000.469;MIDI 01
034.255;000.709;77;000.469;MIDI 01
034.261;000.714;74;000.430;MIDI 01
034.274;000.704;65;000.344;MIDI 01
035.119;000.170;65;000.492;MIDI 01
035.111;000.306;77;000.570;MIDI 01
035.117;000.310;74;000.492;MIDI 01
034.663;001.735;58;000.531;MIDI 01
035.947;000.655;77;000.539;MIDI 01
035.953;000.894;74;000.531;MIDI 01
036.417;000.432;59;000.531;MIDI 01
035.943;001.168;80;000.609;MIDI 01
036.831;000.390;75;000.516;MIDI 01
036.847;000.384;60;000.414;MIDI 01
037.248;000.224;71;000.430;MIDI 01
037.228;000.306;79;000.562;MIDI 01
037.242;000.406;55;000.383;MIDI 01
037.671;000.269;72;000.438;MIDI 01
037.675;000.367;56;000.375;MIDI 01
037.661;000.419;79;000.578;MIDI 01
038.100;000.352;72;000.406;MIDI 01
038.086;000.372;57;000.352;MIDI 01
038.074;000.421;77;000.523;MIDI 01
038.520;000.207;67;000.367;MIDI 01
038.506;000.392;75;000.438;MIDI 01
038.949;000.231;65;000.289;MIDI 01
038.950;000.255;68;000.359;MIDI 01
038.967;000.447;46;000.242;MIDI 01
038.926;000.570;74;000.406;MIDI 01
038.518;001.052;58;000.320;MIDI 01
039.946;000.161;62;000.258;MIDI 01
039.420;000.839;77;000.438;MIDI 01
039.414;001.122;68;000.383;MIDI 01
040.513;000.299;67;000.211;MIDI 01
039.445;001.387;51;000.258;MIDI 01
040.500;000.346;75;000.273;MIDI 01
040.507;000.359;63;000.219;MIDI 01
041.630;000.452;65;000.195;MIDI 01
041.609;000.475;68;000.289;MIDI 01
042.486;000.242;68;000.336;MIDI 01
042.491;000.274;65;000.258;MIDI 01
043.496;000.071;34;000.266;MIDI 01
043.667;000.054;46;000.289;MIDI 01
043.876;000.050;48;000.266;MIDI 01
044.048;000.043;50;000.305;MIDI 01
044.216;000.043;51;000.352;MIDI 01
044.405;000.042;53;000.305;MIDI 01
044.591;000.042;55;000.367;MIDI 01
043.321;001.398;65;000.094;MIDI 01
043.294;001.427;74;000.297;MIDI 01
043.324;001.430;68;000.227;MIDI 01
044.829;000.368;57;000.273;MIDI 01
044.831;000.710;74;000.328;MIDI 01
044.833;000.723;65;000.211;MIDI 01
045.677;000.230;65;000.344;MIDI 01
045.674;000.312;74;000.422;MIDI 01
045.231;000.769;58;000.312;MIDI 01
046.740;000.052;34;000.352;MIDI 01
046.928;000.038;46;000.336;MIDI 01
047.102;000.051;48;000.414;MIDI 01
047.282;000.046;50;000.414;MIDI 01
047.445;000.044;51;000.477;MIDI 01
047.624;000.045;53;000.500;MIDI 01
046.592;001.100;68;000.281;MIDI 01
046.546;001.273;77;000.391;MIDI 01
046.574;001.270;65;000.219;MIDI 01
047.803;000.066;55;000.492;MIDI 01
046.556;001.322;74;000.383;MIDI 01
048.041;000.274;57;000.422;MIDI 01
048.023;000.729;77;000.438;MIDI 01
048.033;000.744;65;000.344;MIDI 01
048.038;000.749;74;000.445;MIDI 01
048.899;000.147;65;000.477;MIDI 01
048.889;000.270;77;000.617;MIDI 01
048.901;000.282;74;000.438;MIDI 01
048.454;001.781;58;000.516;MIDI 01
049.785;000.684;77;000.539;MIDI 01
049.783;000.876;74;000.594;MIDI 01
050.247;000.430;59;000.562;MIDI 01
049.775;001.189;80;000.641;MIDI 01
050.667;000.447;75;000.539;MIDI 01
050.705;000.439;60;000.391;MIDI 01
051.139;000.280;71;000.453;MIDI 01
051.123;000.323;79;000.547;MIDI 01
051.140;000.417;55;000.359;MIDI 01
051.578;000.249;72;000.445;MIDI 01
051.590;000.357;56;000.367;MIDI 01
051.572;000.438;79;000.570;MIDI 01
051.991;000.376;72;000.430;MIDI 01
052.002;000.383;57;000.328;MIDI 01
051.975;000.421;77;000.492;MIDI 01
052.423;000.215;67;000.359;MIDI 01
052.405;000.453;75;000.445;MIDI 01
052.864;000.303;65;000.312;MIDI 01
052.874;000.318;68;000.328;MIDI 01
052.916;000.445;46;000.148;MIDI 01
052.849;000.572;74;000.406;MIDI 01
052.441;001.010;58;000.336;MIDI 01
053.910;000.206;62;000.281;MIDI 01
053.360;000.778;77;000.414;MIDI 01
053.380;001.220;68;000.336;MIDI 01
054.549;000.282;75;000.266;MIDI 01
054.555;000.293;67;000.242;MIDI 01
054.561;000.295;63;000.219;MIDI 01
053.378;001.504;51;000.289;MIDI 01
055.393;000.323;58;000.273;MIDI 01
056.221;000.271;46;000.211;MIDI 01
056.207;000.291;51;000.188;MIDI 01
056.214;000.290;39;000.156;MIDI 01
056.209;000.307;55;000.188;MIDI 01
056.217;000.318;58;000.188;MIDI 01
056.216;000.345;63;000.234;MIDI 01
056.871;000.189;46;000.148;MIDI 01
056.869;000.194;51;000.148;MIDI 01
056.867;000.221;39;000.125;MIDI 01
056.873;000.246;55;000.180;MIDI 01
056.173;000.958;67;000.258;MIDI 01
056.861;000.274;58;000.195;MIDI 01
056.881;000.286;63;000.078;MIDI 01
057.354;000.133;63;000.312;MIDI 01
057.401;000.102;46;000.141;MIDI 01
057.377;000.175;55;000.086;MIDI 01
057.398;000.158;51;000.141;MIDI 01
057.367;000.192;58;000.203;MIDI 01
057.375;000.215;39;000.086;MIDI 01
057.837;000.093;39;000.156;MIDI 01
057.880;000.062;46;000.055;MIDI 01
057.795;000.193;55;000.211;MIDI 01
057.815;000.175;63;000.156;MIDI 01
057.790;000.205;58;000.211;MIDI 01
057.329;000.688;67;000.312;MIDI 01
058.284;000.070;46;000.086;MIDI 01
058.265;000.104;39;000.164;MIDI 01
058.272;000.105;51;000.133;MIDI 01
058.245;000.177;63;000.195;MIDI 01
058.242;000.193;55;000.133;MIDI 01
058.249;000.194;58;000.258;MIDI 01
058.692;000.067;46;000.156;MIDI 01
058.664;000.108;39;000.031;MIDI 01
058.659;000.122;51;000.078;MIDI 01
058.666;000.142;55;000.195;MIDI 01
058.668;000.149;63;000.188;MIDI 01
058.661;000.165;58;000.180;MIDI 01
059.076;000.073;46;000.156;MIDI 01
059.049;000.132;51;000.109;MIDI 01
058.209;001.020;67;000.352;MIDI 01
059.045;000.189;55;000.180;MIDI 01
059.040;000.234;58;000.195;MIDI 01
059.052;000.249;63;000.242;MIDI 01
059.502;000.087;46;000.133;MIDI 01
059.526;000.069;51;000.023;MIDI 01
059.478;000.170;58;000.148;MIDI 01
059.464;000.202;55;000.266;MIDI 01
059.457;000.220;65;000.383;MIDI 01
059.486;000.199;63;000.289;MIDI 01
060.005;000.074;51;000.023;MIDI 01
059.975;000.131;46;000.039;MIDI 01
059.918;000.270;63;000.312;MIDI 01
059.940;000.259;55;000.227;MIDI 01
060.400;000.079;39;000.109;MIDI 01
060.397;000.089;51;000.203;MIDI 01
060.370;000.122;46;000.133;MIDI 01
060.348;000.178;55;000.297;MIDI 01
060.333;000.240;65;000.359;MIDI 01
060.357;000.229;63;000.273;MIDI 01
060.789;000.090;51;000.133;MIDI 01
060.814;000.066;46;000.023;MIDI 01
060.722;000.171;55;000.312;MIDI 01
060.726;000.173;67;000.422;MIDI 01
060.743;000.185;63;000.391;MIDI 01
061.156;000.091;46;000.094;MIDI 01
061.130;000.122;39;000.133;MIDI 01
061.106;000.159;68;000.453;MIDI 01
061.114;000.164;63;000.352;MIDI 01
061.142;000.143;51;000.203;MIDI 01
061.096;000.205;55;000.227;MIDI 01
061.565;000.108;39;000.062;MIDI 01
061.540;000.197;51;000.156;MIDI 01
061.501;000.245;63;000.336;MIDI 01
061.521;000.244;55;000.125;MIDI 01
061.584;000.183;46;000.047;MIDI 01
061.920;000.100;55;000.320;MIDI 01
061.972;000.075;39;000.102;MIDI 01
061.969;000.089;46;000.234;MIDI 01
061.938;000.155;51;000.219;MIDI 01
061.508;000.605;69;000.500;MIDI 01
061.929;000.239;63;000.391;MIDI 01
062.357;000.099;39;000.203;MIDI 01
062.291;000.182;70;000.547;MIDI 01
062.375;000.123;46;000.148;MIDI 01
062.351;000.165;51;000.133;MIDI 01
062.355;000.185;63;000.289;MIDI 01
062.707;000.060;55;000.258;MIDI 01
062.766;000.062;39;000.203;MIDI 01
062.751;000.094;46;000.227;MIDI 01
062.700;000.156;63;000.234;MIDI 01
062.731;000.158;51;000.258;MIDI 01
063.229;000.283;56;000.312;MIDI 01
063.247;000.274;50;000.266;MIDI 01
063.256;000.268;41;000.203;MIDI 01
063.225;000.304;62;000.375;MIDI 01
063.266;000.271;46;000.195;MIDI 01
063.741;000.079;41;000.125;MIDI 01
063.729;000.122;46;000.273;MIDI 01
063.735;000.146;50;000.133;MIDI 01
063.204;000.681;70;000.516;MIDI 01
063.725;000.174;56;000.094;MIDI 01
063.727;000.257;62;000.352;MIDI 01
064.132;000.193;62;000.227;MIDI 01
064.154;000.177;50;000.133;MIDI 01
064.156;000.179;56;000.219;MIDI 01
064.168;000.173;46;000.133;MIDI 01
064.165;000.186;41;000.242;MIDI 01
064.567;000.102;41;000.219;MIDI 01
064.564;000.135;50;000.148;MIDI 01
064.523;000.180;56;000.281;MIDI 01
064.556;000.151;46;000.219;MIDI 01
064.528;000.184;62;000.305;MIDI 01
064.116;000.619;70;000.500;MIDI 01
065.013;000.093;50;000.023;MIDI 01
064.977;000.130;56;000.234;MIDI 01
064.983;000.153;41;000.148;MIDI 01
064.989;000.165;46;000.023;MIDI 01
064.959;000.215;62;000.258;MIDI 01
065.407;000.081;50;000.133;MIDI 01
065.397;000.097;41;000.039;MIDI 01
065.364;000.157;46;000.164;MIDI 01
065.361;000.193;56;000.219;MIDI 01
065.342;000.228;62;000.281;MIDI 01
065.808;000.067;50;000.117;MIDI 01
065.821;000.070;41;000.102;MIDI 01
065.771;000.160;46;000.070;MIDI 01
064.935;001.025;70;000.445;MIDI 01
065.773;000.204;56;000.281;MIDI 01
065.758;000.263;62;000.273;MIDI 01
066.186;000.083;46;000.102;MIDI 01
066.221;000.061;41;000.188;MIDI 01
066.210;000.192;56;000.250;MIDI 01
066.192;000.227;68;000.398;MIDI 01
066.199;000.232;62;000.305;MIDI 01
066.690;000.207;46;000.219;MIDI 01
066.649;000.255;56;000.242;MIDI 01
066.708;000.198;34;000.148;MIDI 01
066.633;000.277;67;000.383;MIDI 01
066.652;000.294;62;000.203;MIDI 01
067.100;000.172;34;000.195;MIDI 01
067.104;000.171;46;000.203;MIDI 01
067.090;000.191;56;000.250;MIDI 01
067.094;000.215;65;000.375;MIDI 01
067.120;000.199;62;000.305;MIDI 01
067.509;000.153;56;000.211;MIDI 01
067.528;000.147;62;000.266;MIDI 01
067.524;000.171;46;000.133;MIDI 01
067.505;000.196;34;000.133;MIDI 01
067.490;000.544;68;000.398;MIDI 01
067.917;000.183;46;000.180;MIDI 01
067.916;000.193;34;000.180;MIDI 01
067.906;000.229;56;000.266;MIDI 01
067.888;000.375;62;000.336;MIDI 01
068.374;000.250;46;000.219;MIDI 01
068.391;000.252;39;000.242;MIDI 01
068.380;000.299;55;000.320;MIDI 01
068.868;000.159;46;000.133;MIDI 01
068.864;000.181;55;000.289;MIDI 01
068.862;000.185;39;000.227;MIDI 01
068.367;000.981;65;000.352;MIDI 01
069.354;000.151;46;000.109;MIDI 01
069.370;000.153;39;000.023;MIDI 01
069.321;000.252;55;000.148;MIDI 01
069.309;000.536;63;000.297;MIDI 01
069.812;000.140;39;000.086;MIDI 01
069.826;000.167;46;000.125;MIDI 01
069.806;000.191;55;000.156;MIDI 01
069.797;000.237;58;000.273;MIDI 01
070.383;000.273;39;000.102;MIDI 01
070.374;000.284;63;000.164;MIDI 01
070.384;000.277;55;000.055;MIDI 01
070.397;000.268;58;000.102;MIDI 01
070.407;000.258;46;000.172;MIDI 01
070.406;000.263;51;000.219;MIDI 01
070.951;000.141;39;000.148;MIDI 01
070.955;000.139;46;000.211;MIDI 01
070.926;000.181;51;000.180;MIDI 01
070.346;000.764;67;000.320;MIDI 01
070.901;000.224;55;000.180;MIDI 01
070.891;000.248;58;000.203;MIDI 01
070.938;000.206;63;000.039;MIDI 01
071.361;000.120;46;000.234;MIDI 01
071.359;000.124;39;000.211;MIDI 01
071.317;000.188;63;000.352;MIDI 01
071.305;000.201;55;000.328;MIDI 01
071.354;000.161;51;000.203;MIDI 01
071.325;000.206;58;000.250;MIDI 01
071.763;000.083;39;000.180;MIDI 01
071.796;000.057;46;000.062;MIDI 01
071.753;000.106;51;000.188;MIDI 01
071.302;000.571;67;000.422;MIDI 01
071.725;000.160;55;000.289;MIDI 01
071.724;000.183;63;000.289;MIDI 01
071.708;000.206;58;000.305;MIDI 01
072.215;000.079;46;000.023;MIDI 01
072.175;000.128;39;000.211;MIDI 01
072.171;000.155;51;000.242;MIDI 01
072.161;000.180;55;000.273;MIDI 01
072.155;000.207;58;000.219;MIDI 01
072.145;000.229;63;000.219;MIDI 01
072.629;000.061;46;000.078;MIDI 01
072.616;000.082;39;000.031;MIDI 01
072.597;000.104;51;000.141;MIDI 01
072.571;000.165;55;000.273;MIDI 01
072.553;000.197;58;000.266;MIDI 01
072.559;000.215;63;000.234;MIDI 01
073.004;000.086;51;000.039;MIDI 01
073.018;000.075;46;000.086;MIDI 01
072.957;000.163;55;000.219;MIDI 01
072.943;000.192;58;000.203;MIDI 01
072.142;000.999;67;000.438;MIDI 01
072.964;000.256;63;000.297;MIDI 01
073.427;000.089;39;000.133;MIDI 01
073.430;000.103;58;000.102;MIDI 01
073.417;000.126;51;000.180;MIDI 01
073.400;000.161;55;000.125;MIDI 01
073.369;000.204;65;000.398;MIDI 01
073.397;000.228;63;000.312;MIDI 01
073.839;000.114;39;000.133;MIDI 01
073.836;000.157;51;000.117;MIDI 01
073.790;000.242;63;000.383;MIDI 01
073.810;000.223;55;000.266;MIDI 01
074.244;000.091;39;000.125;MIDI 01
074.183;000.178;55;000.375;MIDI 01
074.215;000.164;51;000.227;MIDI 01
074.223;000.160;46;000.164;MIDI 01
074.189;000.213;65;000.438;MIDI 01
074.254;000.174;63;000.180;MIDI 01
074.593;000.121;67;000.406;MIDI 01
074.633;000.116;39;000.180;MIDI 01
074.589;000.166;63;000.328;MIDI 01
074.602;000.170;46;000.227;MIDI 01
074.591;000.197;51;000.242;MIDI 01
074.595;000.220;55;000.266;MIDI 01
074.987;000.135;68;000.438;MIDI 01
075.024;000.148;39;000.172;MIDI 01
074.998;000.183;55;000.281;MIDI 01
075.018;000.170;46;000.172;MIDI 01
075.006;000.183;51;000.242;MIDI 01
074.990;000.204;63;000.297;MIDI 01
075.429;000.173;39;000.211;MIDI 01
075.423;000.190;46;000.250;MIDI 01
075.419;000.200;51;000.227;MIDI 01
075.416;000.217;55;000.039;MIDI 01
075.399;000.264;63;000.289;MIDI 01
075.799;000.088;55;000.281;MIDI 01
075.804;000.106;51;000.258;MIDI 01
075.818;000.098;39;000.219;MIDI 01
075.815;000.119;46;000.164;MIDI 01
075.376;000.578;69;000.484;MIDI 01
075.800;000.218;63;000.375;MIDI 01
076.224;000.086;39;000.219;MIDI 01
076.173;000.158;70;000.484;MIDI 01
076.202;000.157;46;000.203;MIDI 01
076.214;000.154;51;000.203;MIDI 01
076.204;000.171;63;000.352;MIDI 01
076.593;000.048;55;000.258;MIDI 01
076.606;000.055;39;000.320;MIDI 01
076.602;000.072;46;000.289;MIDI 01
076.595;000.090;51;000.320;MIDI 01
076.565;000.122;63;000.438;MIDI 01
077.042;000.202;56;000.352;MIDI 01
077.024;000.271;62;000.391;MIDI 01
077.049;000.272;50;000.266;MIDI 01
077.056;000.269;41;000.250;MIDI 01
077.070;000.258;46;000.211;MIDI 01
077.474;000.128;56;000.242;MIDI 01
077.536;000.067;41;000.250;MIDI 01
077.528;000.082;46;000.234;MIDI 01
077.534;000.080;50;000.188;MIDI 01
077.486;000.199;62;000.375;MIDI 01
077.035;000.655;70;000.430;MIDI 01
077.914;000.076;56;000.383;MIDI 01
077.954;000.156;41;000.148;MIDI 01
077.957;000.158;50;000.148;MIDI 01
077.968;000.159;46;000.062;MIDI 01
077.904;000.224;62;000.336;MIDI 01
078.333;000.048;56;000.281;MIDI 01
078.344;000.091;41;000.219;MIDI 01
078.338;000.139;46;000.234;MIDI 01
078.335;000.155;50;000.164;MIDI 01
077.879;000.628;70;000.430;MIDI 01
078.324;000.194;62;000.359;MIDI 01
078.820;000.145;56;000.297;MIDI 01
078.855;000.232;50;000.047;MIDI 01
078.870;000.220;41;000.102;MIDI 01
078.872;000.220;46;000.078;MIDI 01
078.834;000.259;62;000.320;MIDI 01
079.315;000.072;56;000.281;MIDI 01
079.317;000.098;41;000.148;MIDI 01
079.319;000.099;46;000.195;MIDI 01
079.321;000.117;50;000.125;MIDI 01
079.289;000.201;62;000.336;MIDI 01
079.744;000.074;46;000.109;MIDI 01
079.719;000.101;56;000.242;MIDI 01
079.736;000.084;41;000.039;MIDI 01
078.797;001.026;70;000.453;MIDI 01
079.717;000.124;50;000.047;MIDI 01
079.694;000.230;62;000.312;MIDI 01
080.180;000.072;41;000.125;MIDI 01
080.147;000.152;56;000.227;MIDI 01
080.121;000.234;68;000.383;MIDI 01
080.150;000.216;62;000.156;MIDI 01
080.627;000.234;34;000.227;MIDI 01
080.649;000.220;46;000.195;MIDI 01
080.616;000.267;56;000.266;MIDI 01
080.592;000.293;67;000.352;MIDI 01
080.618;000.285;62;000.156;MIDI 01
081.096;000.176;46;000.164;MIDI 01
081.048;000.235;56;000.289;MIDI 01
081.103;000.182;34;000.188;MIDI 01
081.062;000.225;65;000.367;MIDI 01
081.077;000.230;62;000.312;MIDI 01
081.481;000.168;56;000.266;MIDI 01
081.510;000.206;62;000.227;MIDI 01
081.557;000.161;46;000.133;MIDI 01
081.540;000.181;34;000.156;MIDI 01
081.484;000.503;68;000.375;MIDI 01
081.939;000.208;56;000.297;MIDI 01
081.961;000.188;46;000.109;MIDI 01
081.959;000.195;34;000.133;MIDI 01
081.909;000.370;62;000.312;MIDI 01
082.463;000.290;46;000.164;MIDI 01
082.459;000.298;39;000.258;MIDI 01
082.465;000.319;55;000.180;MIDI 01
082.977;000.177;46;000.117;MIDI 01
082.954;000.211;55;000.250;MIDI 01
082.975;000.202;39;000.125;MIDI 01
082.440;000.978;65;000.320;MIDI 01
083.526;000.246;46;000.133;MIDI 01
083.517;000.256;55;000.156;MIDI 01
083.530;000.263;39;000.156;MIDI 01
083.514;000.319;63;000.211;MIDI 01
084.348;000.227;67;000.281;MIDI 01
085.047;000.383;64;000.227;MIDI 01
085.072;000.430;48;000.148;MIDI 01
085.078;000.426;60;000.148;MIDI 01
085.036;000.491;76;000.336;MIDI 01
085.070;000.481;55;000.180;MIDI 01
085.054;000.520;72;000.289;MIDI 01
085.097;000.486;52;000.195;MIDI 01
085.059;000.525;67;000.172;MIDI 01
086.081;000.283;64;000.336;MIDI 01
086.071;000.342;76;000.461;MIDI 01
086.131;000.324;60;000.188;MIDI 01
086.100;000.369;67;000.344;MIDI 01
086.136;000.347;48;000.203;MIDI 01
086.109;000.391;72;000.336;MIDI 01
086.146;000.394;55;000.188;MIDI 01
086.134;000.469;52;000.234;MIDI 01
087.266;001.259;76;000.484;MIDI 01
087.280;001.296;64;000.258;MIDI 01
087.275;001.364;67;000.352;MIDI 01
087.323;001.368;48;000.125;MIDI 01
087.271;001.422;72;000.375;MIDI 01
087.316;001.526;60;000.258;MIDI 01
087.305;001.691;52;000.242;MIDI 01
087.328;001.838;55;000.219;MIDI 01
089.415;000.227;64;000.258;MIDI 01
089.398;000.315;72;000.320;MIDI 01
089.426;000.291;60;000.219;MIDI 01
089.949;000.169;65;000.430;MIDI 01
089.954;000.225;60;000.305;MIDI 01
089.960;000.261;59;000.352;MIDI 01
089.939;000.394;74;000.477;MIDI 01
090.369;000.189;67;000.484;MIDI 01
090.378;000.181;60;000.398;MIDI 01
090.350;000.249;76;000.555;MIDI 01
090.404;000.318;58;000.359;MIDI 01
090.767;000.186;68;000.516;MIDI 01
090.789;000.197;60;000.398;MIDI 01
090.777;000.210;72;000.438;MIDI 01
090.765;000.231;77;000.586;MIDI 01
090.786;000.369;56;000.414;MIDI 01
091.213;000.108;70;000.477;MIDI 01
091.196;000.192;79;000.594;MIDI 01
091.215;000.240;72;000.461;MIDI 01
091.217;000.308;60;000.375;MIDI 01
091.219;000.666;52;000.414;MIDI 01
091.903;000.833;60;000.375;MIDI 01
091.917;000.970;53;000.320;MIDI 01
091.897;002.219;68;000.453;MIDI 01
093.670;000.501;40;000.352;MIDI 01
091.895;002.325;72;000.438;MIDI 01
091.881;002.581;80;000.570;MIDI 01
094.141;000.436;41;000.445;MIDI 01
094.599;000.216;80;000.523;MIDI 01
094.785;000.157;79;000.562;MIDI 01
094.601;000.379;43;000.391;MIDI 01
094.965;000.194;77;000.547;MIDI 01
094.985;000.332;44;000.430;MIDI 01
095.136;000.237;75;000.594;MIDI 01
095.336;000.156;74;000.562;MIDI 01
095.515;000.161;72;000.555;MIDI 01
095.340;000.395;45;000.422;MIDI 01
096.193;000.166;68;000.336;MIDI 01
096.369;000.142;67;000.391;MIDI 01
096.568;000.116;65;000.328;MIDI 01
096.732;000.197;63;000.383;MIDI 01
095.768;001.283;46;000.289;MIDI 01
096.943;000.112;62;000.336;MIDI 01
095.749;001.832;70;000.539;MIDI 01
097.365;000.221;58;000.344;MIDI 01
097.564;000.201;48;000.414;MIDI 01
097.110;000.705;60;000.328;MIDI 01
097.781;000.140;50;000.391;MIDI 01
097.364;000.631;46;000.297;MIDI 01
097.953;000.165;51;000.438;MIDI 01
097.765;000.492;69;000.500;MIDI 01
098.159;000.170;53;000.352;MIDI 01
098.381;000.185;55;000.344;MIDI 01
098.189;000.466;62;000.312;MIDI 01
098.180;000.484;68;000.406;MIDI 01
098.616;000.158;56;000.312;MIDI 01
098.638;000.485;65;000.312;MIDI 01
098.867;000.271;53;000.234;MIDI 01
098.168;001.025;46;000.258;MIDI 01
099.133;000.355;55;000.273;MIDI 01
099.108;000.643;63;000.242;MIDI 01
099.209;001.197;51;000.211;MIDI 01
100.216;000.289;39;000.227;MIDI 01
100.795;000.252;67;000.250;MIDI 01
101.433;000.333;64;000.242;MIDI 01
101.466;000.303;48;000.164;MIDI 01
101.416;000.369;76;000.352;MIDI 01
101.468;000.342;60;000.172;MIDI 01
101.460;000.392;55;000.203;MIDI 01
101.442;000.425;67;000.219;MIDI 01
101.439;000.432;72;000.273;MIDI 01
101.463;000.422;52;000.102;MIDI 01
102.450;000.267;64;000.195;MIDI 01
102.431;000.325;76;000.375;MIDI 01
102.485;000.290;60;000.039;MIDI 01
102.440;000.396;72;000.305;MIDI 01
102.473;000.366;67;000.211;MIDI 01
102.487;000.427;52;000.125;MIDI 01
103.584;000.997;48;000.070;MIDI 01
103.554;001.062;64;000.133;MIDI 01
103.585;001.109;67;000.156;MIDI 01
103.539;001.169;76;000.320;MIDI 01
103.560;001.175;72;000.250;MIDI 01
103.577;001.232;52;000.156;MIDI 01
103.572;001.248;60;000.156;MIDI 01
103.599;001.228;55;000.031;MIDI 01
105.249;000.069;72;000.289;MIDI 01
105.373;000.052;74;000.352;MIDI 01
105.247;000.221;60;000.188;MIDI 01
105.457;000.041;72;000.453;MIDI 01
105.545;000.040;71;000.375;MIDI 01
105.624;000.047;72;000.406;MIDI 01
105.695;000.040;74;000.461;MIDI 01
105.661;000.234;60;000.281;MIDI 01
105.676;000.303;59;000.352;MIDI 01
106.052;000.048;76;000.477;MIDI 01
106.138;000.083;77;000.508;MIDI 01
106.042;000.199;60;000.359;MIDI 01
106.206;000.071;76;000.586;MIDI 01
106.287;000.086;74;000.539;MIDI 01
106.054;000.365;58;000.398;MIDI 01
106.361;000.082;76;000.531;MIDI 01
106.434;000.077;77;000.586;MIDI 01
106.444;000.230;60;000.375;MIDI 01
106.448;000.378;56;000.445;MIDI 01
106.834;000.074;79;000.461;MIDI 01
106.923;000.105;80;000.562;MIDI 01
106.852;000.215;60;000.430;MIDI 01
107.019;000.122;79;000.594;MIDI 01
106.865;000.386;52;000.336;MIDI 01
107.131;000.126;77;000.531;MIDI 01
107.236;000.157;79;000.617;MIDI 01
107.501;000.659;60;000.320;MIDI 01
107.509;000.754;53;000.320;MIDI 01
109.004;000.432;40;000.359;MIDI 01
107.477;002.224;80;000.578;MIDI 01
109.430;000.425;41;000.406;MIDI 01
109.864;000.230;80;000.438;MIDI 01
110.048;000.164;79;000.516;MIDI 01
109.874;000.361;43;000.359;MIDI 01
110.235;000.199;77;000.547;MIDI 01
110.243;000.344;44;000.438;MIDI 01
110.402;000.225;75;000.570;MIDI 01
110.595;000.167;74;000.570;MIDI 01
110.775;000.221;72;000.570;MIDI 01
110.603;000.435;45;000.430;MIDI 01
111.530;000.171;68;000.336;MIDI 01
111.708;000.149;67;000.414;MIDI 01
111.916;000.131;65;000.328;MIDI 01
112.106;000.160;63;000.336;MIDI 01
112.322;000.146;62;000.227;MIDI 01
111.068;001.434;46;000.305;MIDI 01
111.047;001.847;70;000.492;MIDI 01
112.914;000.208;48;000.445;MIDI 01
112.716;000.451;58;000.305;MIDI 01
112.507;000.744;60;000.242;MIDI 01
113.118;000.149;50;000.422;MIDI 01
112.677;000.665;46;000.312;MIDI 01
113.285;000.208;51;000.492;MIDI 01
113.099;000.452;69;000.430;MIDI 01
113.530;000.178;53;000.367;MIDI 01
113.728;000.184;55;000.406;MIDI 01
113.535;000.493;62;000.305;MIDI 01
113.521;000.516;68;000.391;MIDI 01
113.964;000.199;56;000.320;MIDI 01
113.516;000.947;46;000.336;MIDI 01
114.198;000.321;53;000.328;MIDI 01
113.985;000.604;65;000.328;MIDI 01
114.499;000.381;55;000.266;MIDI 01
114.497;000.593;63;000.297;MIDI 01
114.542;001.315;51;000.289;MIDI 01
115.700;000.334;39;000.219;MIDI 01
116.339;000.280;58;000.172;MIDI 01
116.934;000.243;58;000.156;MIDI 01
116.911;000.326;70;000.320;MIDI 01
116.940;000.351;67;000.258;MIDI 01
117.816;000.083;58;000.219;MIDI 01
117.802;000.273;67;000.250;MIDI 01
117.793;000.879;70;000.344;MIDI 01
118.955;000.182;46;000.188;MIDI 01
119.143;000.153;48;000.320;MIDI 01
119.329;000.171;50;000.344;MIDI 01
119.515;000.173;51;000.367;MIDI 01
119.719;000.185;53;000.289;MIDI 01
118.715;001.335;63;000.203;MIDI 01
119.915;000.179;55;000.297;MIDI 01
118.718;001.397;58;000.180;MIDI 01
118.694;001.481;67;000.297;MIDI 01
120.115;000.300;51;000.219;MIDI 01
120.419;000.355;56;000.219;MIDI 01
120.415;000.492;58;000.148;MIDI 01
120.399;000.549;62;000.234;MIDI 01
120.400;000.554;65;000.234;MIDI 01
121.374;000.208;58;000.219;MIDI 01
121.366;000.303;62;000.273;MIDI 01
121.346;000.361;65;000.305;MIDI 01
122.325;000.248;56;000.242;MIDI 01
122.578;000.183;55;000.367;MIDI 01
122.773;000.175;53;000.398;MIDI 01
122.959;000.191;51;000.445;MIDI 01
123.161;000.172;50;000.398;MIDI 01
123.359;000.175;48;000.398;MIDI 01
122.311;001.327;70;000.359;MIDI 01
122.344;001.342;65;000.227;MIDI 01
122.319;001.442;58;000.266;MIDI 01
123.573;000.192;46;000.328;MIDI 01
122.321;001.446;68;000.305;MIDI 01
123.782;000.261;50;000.227;MIDI 01
124.058;000.329;51;000.258;MIDI 01
124.056;000.630;67;000.258;MIDI 01
124.041;000.657;70;000.320;MIDI 01
124.086;000.620;58;000.211;MIDI 01
124.957;000.301;58;000.258;MIDI 01
124.945;000.394;67;000.281;MIDI 01
124.932;000.945;70;000.344;MIDI 01
126.074;000.194;46;000.180;MIDI 01
126.258;000.172;48;000.305;MIDI 01
126.451;000.186;50;000.359;MIDI 01
126.652;000.181;51;000.352;MIDI 01
126.845;000.188;53;000.367;MIDI 01
125.849;001.286;58;000.195;MIDI 01
125.854;001.283;63;000.195;MIDI 01
127.058;000.166;55;000.375;MIDI 01
125.827;001.547;67;000.312;MIDI 01
127.260;000.161;51;000.320;MIDI 01
127.480;000.114;56;000.258;MIDI 01
127.505;000.259;58;000.203;MIDI 01
127.490;000.282;65;000.234;MIDI 01
127.699;000.074;53;000.312;MIDI 01
127.897;000.048;50;000.320;MIDI 01
127.495;000.452;62;000.211;MIDI 01
128.102;000.053;46;000.297;MIDI 01
128.290;000.046;44;000.328;MIDI 01
127.899;000.667;70;000.375;MIDI 01
128.507;000.060;41;000.320;MIDI 01
128.729;000.106;38;000.242;MIDI 01
128.707;000.260;70;000.383;MIDI 01
128.944;000.101;34;000.211;MIDI 01
128.731;000.315;56;000.234;MIDI 01
129.275;001.001;55;000.258;MIDI 01
129.248;001.275;63;000.305;MIDI 01
129.273;001.323;39;000.266;MIDI 01
130.304;000.328;51;000.195;MIDI 01
130.902;000.260;58;000.273;MIDI 01
131.445;000.200;67;000.289;MIDI 01
131.476;000.186;58;000.094;MIDI 01
131.434;000.242;70;000.297;MIDI 01
131.933;000.154;58;000.203;MIDI 01
131.928;000.196;67;000.211;MIDI 01
131.898;000.237;70;000.242;MIDI 01
132.367;000.150;58;000.258;MIDI 01
132.332;000.231;70;000.219;MIDI 01
132.348;000.228;67;000.258;MIDI 01
132.814;000.110;58;000.289;MIDI 01
132.783;000.154;67;000.219;MIDI 01
132.794;000.152;70;000.289;MIDI 01
133.468;000.177;46;000.219;MIDI 01
133.655;000.166;48;000.312;MIDI 01
133.865;000.184;50;000.281;MIDI 01
134.068;000.165;51;000.312;MIDI 01
134.255;000.177;53;000.336;MIDI 01
133.259;001.304;63;000.234;MIDI 01
133.251;001.409;67;000.273;MIDI 01
134.472;000.191;55;000.266;MIDI 01
133.267;001.405;58;000.172;MIDI 01
134.671;000.229;51;000.305;MIDI 01
134.911;000.259;56;000.258;MIDI 01
134.933;000.271;58;000.070;MIDI 01
134.908;000.326;62;000.234;MIDI 01
134.926;000.311;65;000.219;MIDI 01
135.378;000.229;62;000.359;MIDI 01
135.370;000.244;58;000.250;MIDI 01
135.390;000.226;65;000.336;MIDI 01
135.811;000.179;65;000.359;MIDI 01
135.806;000.194;62;000.336;MIDI 01
135.801;000.200;58;000.133;MIDI 01
136.250;000.077;62;000.242;MIDI 01
136.248;000.088;58;000.273;MIDI 01
136.241;000.121;65;000.289;MIDI 01
136.729;000.184;56;000.234;MIDI 01
136.928;000.176;55;000.375;MIDI 01
137.126;000.164;53;000.375;MIDI 01
137.322;000.190;51;000.398;MIDI 01
137.530;000.197;50;000.289;MIDI 01
137.727;000.175;48;000.344;MIDI 01
136.685;001.369;58;000.289;MIDI 01
136.690;001.425;70;000.383;MIDI 01
136.720;001.401;68;000.289;MIDI 01
137.961;000.196;46;000.273;MIDI 01
136.710;001.479;65;000.273;MIDI 01
138.169;000.270;50;000.164;MIDI 01
138.420;000.271;70;000.328;MIDI 01
138.432;000.272;58;000.234;MIDI 01
138.434;000.295;67;000.250;MIDI 01
138.448;000.301;51;000.219;MIDI 01
138.887;000.224;67;000.352;MIDI 01
138.879;000.233;70;000.391;MIDI 01
138.868;000.255;58;000.297;MIDI 01
139.289;000.196;58;000.234;MIDI 01
139.299;000.199;70;000.375;MIDI 01
139.301;000.200;67;000.352;MIDI 01
139.743;000.119;67;000.258;MIDI 01
139.736;000.188;70;000.336;MIDI 01
139.761;000.170;58;000.266;MIDI 01
140.412;000.222;46;000.344;MIDI 01
140.602;000.182;48;000.391;MIDI 01
140.806;000.192;50;000.344;MIDI 01
141.007;000.199;51;000.430;MIDI 01
141.209;000.184;53;000.430;MIDI 01
140.201;001.261;63;000.289;MIDI 01
141.415;000.194;55;000.422;MIDI 01
140.205;001.428;58;000.219;MIDI 01
141.607;000.166;51;000.391;MIDI 01
140.193;001.590;67;000.344;MIDI 01
141.828;000.137;56;000.328;MIDI 01
141.848;000.253;65;000.297;MIDI 01
142.043;000.064;53;000.406;MIDI 01
141.845;000.282;58;000.266;MIDI 01
141.850;000.458;62;000.250;MIDI 01
142.269;000.043;50;000.266;MIDI 01
142.459;000.056;46;000.398;MIDI 01
142.654;000.048;44;000.367;MIDI 01
142.259;000.646;70;000.422;MIDI 01
142.863;000.062;41;000.367;MIDI 01
143.093;000.083;38;000.164;MIDI 01
143.091;000.259;70;000.297;MIDI 01
143.089;000.292;56;000.203;MIDI 01
143.320;000.077;34;000.125;MIDI 01
143.625;001.247;55;000.258;MIDI 01
143.647;001.381;39;000.203;MIDI 01
143.622;001.444;63;000.266;MIDI 01
144.675;000.423;51;000.203;MIDI 01
145.859;000.215;65;000.211;MIDI 01
145.856;000.248;68;000.258;MIDI 01
146.342;000.146;65;000.258;MIDI 01
146.318;000.193;68;000.258;MIDI 01
146.783;000.124;68;000.242;MIDI 01
146.786;000.123;65;000.266;MIDI 01
147.217;000.106;65;000.258;MIDI 01
147.220;000.105;68;000.273;MIDI 01
147.852;000.047;34;000.305;MIDI 01
148.061;000.050;46;000.180;MIDI 01
148.233;000.058;48;000.406;MIDI 01
148.438;000.039;50;000.359;MIDI 01
148.626;000.050;51;000.398;MIDI 01
148.825;000.052;53;000.398;MIDI 01
147.665;001.364;65;000.281;MIDI 01
147.649;001.381;74;000.367;MIDI 01
149.014;000.058;55;000.398;MIDI 01
147.670;001.415;68;000.258;MIDI 01
149.247;000.273;74;000.328;MIDI 01
149.242;000.287;65;000.273;MIDI 01
149.257;000.327;57;000.312;MIDI 01
149.686;000.230;65;000.367;MIDI 01
149.698;000.224;74;000.422;MIDI 01
150.118;000.182;74;000.406;MIDI 01
150.121;000.192;65;000.344;MIDI 01
150.537;000.069;65;000.359;MIDI 01
150.553;000.086;74;000.398;MIDI 01
149.681;000.991;58;000.445;MIDI 01
150.997;000.126;68;000.320;MIDI 01
151.179;000.043;34;000.375;MIDI 01
151.373;000.035;46;000.328;MIDI 01
151.552;000.060;48;000.477;MIDI 01
151.739;000.045;50;000.430;MIDI 01
151.909;000.052;51;000.516;MIDI 01
151.127;000.994;68;000.117;MIDI 01
152.102;000.052;53;000.484;MIDI 01
150.970;001.388;74;000.422;MIDI 01
152.290;000.081;55;000.523;MIDI 01
150.968;001.414;77;000.477;MIDI 01
150.984;001.448;65;000.398;MIDI 01
152.534;000.261;77;000.508;MIDI 01
152.548;000.254;65;000.344;MIDI 01
152.544;000.277;74;000.398;MIDI 01
152.536;000.410;57;000.492;MIDI 01
152.988;000.212;65;000.422;MIDI 01
152.976;000.236;77;000.484;MIDI 01
153.002;000.216;74;000.461;MIDI 01
153.386;000.189;77;000.555;MIDI 01
153.403;000.173;65;000.461;MIDI 01
153.405;000.182;74;000.445;MIDI 01
153.825;000.049;65;000.445;MIDI 01
153.827;000.081;74;000.469;MIDI 01
153.815;000.122;77;000.539;MIDI 01
152.974;001.802;58;000.562;MIDI 01
154.300;000.644;77;000.539;MIDI 01
154.785;000.401;59;000.492;MIDI 01
154.306;000.906;74;000.539;MIDI 01
154.302;001.129;80;000.602;MIDI 01
155.170;000.414;75;000.461;MIDI 01
155.200;000.415;60;000.352;MIDI 01
155.613;000.267;71;000.414;MIDI 01
155.597;000.296;79;000.523;MIDI 01
155.610;000.411;55;000.367;MIDI 01
156.057;000.299;72;000.398;MIDI 01
156.066;000.397;56;000.336;MIDI 01
156.046;000.480;79;000.531;MIDI 01
156.526;000.398;72;000.375;MIDI 01
156.516;000.418;57;000.336;MIDI 01
156.502;000.439;77;000.469;MIDI 01
156.963;000.210;67;000.344;MIDI 01
156.939;000.395;75;000.469;MIDI 01
157.429;000.229;65;000.281;MIDI 01
157.427;000.267;68;000.242;MIDI 01
157.438;000.439;46;000.188;MIDI 01
156.983;000.976;58;000.289;MIDI 01
157.401;000.566;74;000.375;MIDI 01
158.399;000.194;62;000.258;MIDI 01
157.893;000.773;77;000.352;MIDI 01
157.884;001.078;68;000.336;MIDI 01
158.943;000.255;67;000.273;MIDI 01
157.912;001.319;51;000.305;MIDI 01
158.955;000.277;63;000.250;MIDI 01
158.929;000.322;75;000.297;MIDI 01
159.921;000.251;67;000.320;MIDI 01
160.150;000.065;68;000.312;MIDI 01
160.348;000.223;67;000.406;MIDI 01
160.549;000.065;68;000.383;MIDI 01
160.743;000.191;67;000.484;MIDI 01
160.922;000.072;68;000.477;MIDI 01
161.114;000.218;67;000.492;MIDI 01
161.320;000.055;68;000.523;MIDI 01
161.766;000.045;34;000.367;MIDI 01
161.957;000.042;46;000.359;MIDI 01
162.153;000.056;48;000.445;MIDI 01
162.353;000.039;50;000.398;MIDI 01
162.528;000.042;51;000.500;MIDI 01
162.718;000.042;53;000.492;MIDI 01
161.560;001.396;68;000.352;MIDI 01
162.918;000.051;55;000.445;MIDI 01
161.564;001.417;65;000.398;MIDI 01
161.555;001.443;74;000.445;MIDI 01
163.134;000.268;73;000.414;MIDI 01
163.339;000.102;74;000.531;MIDI 01
163.148;000.372;57;000.414;MIDI 01
163.546;000.240;73;000.531;MIDI 01
163.731;000.100;74;000.594;MIDI 01
163.935;000.235;73;000.594;MIDI 01
164.131;000.093;74;000.609;MIDI 01
164.335;000.122;73;000.617;MIDI 01
164.521;000.099;74;000.609;MIDI 01
163.536;001.112;58;000.477;MIDI 01
164.991;000.043;34;000.531;MIDI 01
165.160;000.044;46;000.570;MIDI 01
165.361;000.053;48;000.594;MIDI 01
165.554;000.046;50;000.562;MIDI 01
165.735;000.069;51;000.617;MIDI 01
165.922;000.047;53;000.578;MIDI 01
166.115;000.062;55;000.594;MIDI 01
164.752;001.450;65;000.508;MIDI 01
164.756;001.467;68;000.484;MIDI 01
164.754;001.540;74;000.578;MIDI 01
164.746;001.673;77;000.578;MIDI 01
166.548;000.097;74;000.547;MIDI 01
166.547;000.113;77;000.594;MIDI 01
166.346;000.420;57;000.609;MIDI 01
166.781;000.188;73;000.594;MIDI 01
166.787;000.248;76;000.602;MIDI 01
166.995;000.067;74;000.578;MIDI 01
166.997;000.110;77;000.625;MIDI 01
167.204;000.185;73;000.594;MIDI 01
167.199;000.221;76;000.609;MIDI 01
167.389;000.076;74;000.609;MIDI 01
167.387;000.135;77;000.617;MIDI 01
167.609;000.171;73;000.625;MIDI 01
167.604;000.238;76;000.625;MIDI 01
167.814;000.038;74;000.602;MIDI 01
167.801;000.082;77;000.641;MIDI 01
166.794;001.807;58;000.562;MIDI 01
168.132;000.677;77;000.547;MIDI 01
168.607;000.433;59;000.516;MIDI 01
168.136;000.910;74;000.570;MIDI 01
168.134;001.176;80;000.641;MIDI 01
169.041;000.409;75;000.516;MIDI 01
169.044;000.458;60;000.469;MIDI 01
169.478;000.260;71;000.398;MIDI 01
169.460;000.330;79;000.516;MIDI 01
169.467;000.474;55;000.523;MIDI 01
169.953;000.333;72;000.383;MIDI 01
169.946;000.447;56;000.492;MIDI 01
169.947;000.507;79;000.500;MIDI 01
170.422;000.417;72;000.406;MIDI 01
170.418;000.453;77;000.453;MIDI 01
170.416;000.463;57;000.461;MIDI 01
170.884;000.228;67;000.391;MIDI 01
170.878;000.454;75;000.438;MIDI 01
171.387;000.271;65;000.266;MIDI 01
171.394;000.322;68;000.312;MIDI 01
171.406;000.516;46;000.227;MIDI 01
171.368;000.645;74;000.406;MIDI 01
170.922;001.132;58;000.320;MIDI 01
171.926;000.821;77;000.352;MIDI 01
172.540;000.215;62;000.289;MIDI 01
171.922;001.485;68;000.344;MIDI 01
173.389;000.368;63;000.180;MIDI 01
173.386;000.447;67;000.250;MIDI 01
171.961;001.929;51;000.289;MIDI 01
173.365;000.576;75;000.305;MIDI 01
174.834;000.047;55;000.461;MIDI 01
174.901;000.052;53;000.500;MIDI 01
174.983;000.035;52;000.414;MIDI 01
174.995;000.044;48;000.672;MIDI 01
175.000;000.050;43;000.609;MIDI 01
174.998;000.054;36;000.625;MIDI 01
175.003;000.051;40;000.570;MIDI 01
175.034;000.087;55;000.562;MIDI 01
175.132;000.108;60;000.562;MIDI 01
175.243;000.048;55;000.594;MIDI 01
175.300;000.054;64;000.609;MIDI 01
175.403;000.038;60;000.617;MIDI 01
175.484;000.083;65;000.367;MIDI 01
175.522;000.053;67;000.164;MIDI 01
175.558;000.055;64;000.562;MIDI 01
175.645;000.055;72;000.617;MIDI 01
175.727;000.057;67;000.586;MIDI 01
175.840;000.070;72;000.555;MIDI 01
175.892;000.089;76;000.383;MIDI 01
175.974;000.028;79;000.625;MIDI 01
175.971;000.035;67;000.562;MIDI 01
175.981;000.033;60;000.477;MIDI 01
176.006;000.037;64;000.289;MIDI 01
176.160;000.031;76;000.562;MIDI 01
176.162;000.039;64;000.438;MIDI 01
176.165;000.041;67;000.312;MIDI 01
176.174;000.037;60;000.375;MIDI 01
176.341;000.027;67;000.469;MIDI 01
176.347;000.028;60;000.414;MIDI 01
176.359;000.023;72;000.398;MIDI 01
176.364;000.046;64;000.227;MIDI 01
176.585;000.037;71;000.297;MIDI 01
176.605;000.061;67;000.359;MIDI 01
176.602;000.129;65;000.344;MIDI 01
176.614;000.148;62;000.375;MIDI 01
176.992;000.059;62;000.453;MIDI 01
177.076;000.073;60;000.477;MIDI 01
177.147;000.052;59;000.594;MIDI 01
177.245;000.081;62;000.562;MIDI 01
177.164;000.280;43;000.594;MIDI 01
177.149;000.325;50;000.625;MIDI 01
177.161;000.319;47;000.594;MIDI 01
177.442;000.049;62;000.570;MIDI 01
177.335;000.161;67;000.562;MIDI 01
177.153;000.359;55;000.695;MIDI 01
177.508;000.039;71;000.602;MIDI 01
177.604;000.044;67;000.633;MIDI 01
177.680;000.125;74;000.617;MIDI 01
177.764;000.070;71;000.641;MIDI 01
177.856;000.047;79;000.625;MIDI 01
177.936;000.062;74;000.641;MIDI 01
178.052;000.121;83;000.562;MIDI 01
178.105;000.083;79;000.539;MIDI 01
178.189;000.028;59;000.438;MIDI 01
178.200;000.020;86;000.547;MIDI 01
178.196;000.031;67;000.391;MIDI 01
178.203;000.039;62;000.320;MIDI 01
178.358;000.032;83;000.523;MIDI 01
178.370;000.031;67;000.375;MIDI 01
178.372;000.032;59;000.383;MIDI 01
178.368;000.041;62;000.430;MIDI 01
178.546;000.022;77;000.484;MIDI 01
178.541;000.033;59;000.391;MIDI 01
178.544;000.034;62;000.383;MIDI 01
178.549;000.033;67;000.352;MIDI 01
178.789;000.029;76;000.406;MIDI 01
178.818;000.116;67;000.273;MIDI 01
178.815;000.129;64;000.336;MIDI 01
178.809;000.143;60;000.312;MIDI 01
179.196;000.044;79;000.375;MIDI 01
179.298;000.044;77;000.383;MIDI 01
179.377;000.075;76;000.430;MIDI 01
179.489;000.043;79;000.422;MIDI 01
179.595;000.046;67;000.477;MIDI 01
179.579;000.093;76;000.438;MIDI 01
179.676;000.079;74;000.516;MIDI 01
179.721;000.060;65;000.406;MIDI 01
179.777;000.034;72;000.438;MIDI 01
179.801;000.056;64;000.469;MIDI 01
179.881;000.042;67;000.453;MIDI 01
179.867;000.097;76;000.523;MIDI 01
179.989;000.071;64;000.469;MIDI 01
179.953;000.135;72;000.562;MIDI 01
180.070;000.103;71;000.578;MIDI 01
180.081;000.097;62;000.531;MIDI 01
180.182;000.022;69;000.484;MIDI 01
180.188;000.061;60;000.516;MIDI 01
180.277;000.051;64;000.445;MIDI 01
180.262;000.107;72;000.547;MIDI 01
180.377;000.067;60;000.453;MIDI 01
180.351;000.141;69;000.531;MIDI 01
180.471;000.095;59;000.547;MIDI 01
180.467;000.103;67;000.609;MIDI 01
180.564;000.057;65;000.562;MIDI 01
180.570;000.067;57;000.523;MIDI 01
180.662;000.046;60;000.523;MIDI 01
180.651;000.111;69;000.602;MIDI 01
180.771;000.080;57;000.484;MIDI 01
180.754;000.137;65;000.617;MIDI 01
180.861;000.097;55;000.555;MIDI 01
180.864;000.100;64;000.633;MIDI 01
180.954;000.075;62;000.594;MIDI 01
180.958;000.073;53;000.555;MIDI 01
181.050;000.077;57;000.531;MIDI 01
181.052;000.114;65;000.594;MIDI 01
181.154;000.094;53;000.547;MIDI 01
181.146;000.144;62;000.633;MIDI 01
181.252;000.103;52;000.570;MIDI 01
181.255;000.102;60;000.617;MIDI 01
181.351;000.058;59;000.570;MIDI 01
181.355;000.070;50;000.508;MIDI 01
181.452;000.058;53;000.492;MIDI 01
181.449;000.098;62;000.578;MIDI 01
181.545;000.074;59;000.562;MIDI 01
181.579;000.042;50;000.375;MIDI 01
181.656;000.039;57;000.484;MIDI 01
181.664;000.060;48;000.391;MIDI 01
181.754;000.037;47;000.336;MIDI 01
181.770;000.070;56;000.383;MIDI 01
181.883;000.069;59;000.445;MIDI 01
181.973;000.091;56;000.453;MIDI 01
182.111;000.049;40;000.328;MIDI 01
182.083;000.080;53;000.469;MIDI 01
182.183;000.051;52;000.406;MIDI 01
182.193;000.051;42;000.469;MIDI 01
182.291;000.034;44;000.406;MIDI 01
182.301;000.043;50;000.328;MIDI 01
182.375;000.034;45;000.461;MIDI 01
182.396;000.033;48;000.430;MIDI 01
182.496;000.095;64;000.508;MIDI 01
182.608;000.107;60;000.500;MIDI 01
182.698;000.068;33;000.406;MIDI 01
182.723;000.090;59;000.500;MIDI 01
182.822;000.046;35;000.359;MIDI 01
182.826;000.046;57;000.453;MIDI 01
182.927;000.045;36;000.352;MIDI 01
182.911;000.103;55;000.547;MIDI 01
182.991;000.034;38;000.500;MIDI 01
183.022;000.093;54;000.508;MIDI 01
183.124;000.102;52;000.445;MIDI 01
183.236;000.064;50;000.477;MIDI 01
183.325;000.047;38;000.328;MIDI 01
183.331;000.090;48;000.477;MIDI 01
183.409;000.041;40;000.359;MIDI 01
183.444;000.094;47;000.438;MIDI 01
183.511;000.066;42;000.102;MIDI 01
183.547;000.034;45;000.516;MIDI 01
183.700;000.320;31;000.320;MIDI 01
183.702;000.347;43;000.359;MIDI 01
184.181;000.064;55;000.445;MIDI 01
184.275;000.057;53;000.469;MIDI 01
184.343;000.070;52;000.562;MIDI 01
184.347;000.120;36;000.656;MIDI 01
184.349;000.144;43;000.656;MIDI 01
184.341;000.159;48;000.742;MIDI 01
184.352;000.154;40;000.609;MIDI 01
184.444;000.100;55;000.594;MIDI 01
184.548;000.122;60;000.570;MIDI 01
184.648;000.065;55;000.555;MIDI 01
184.679;000.058;50;000.414;MIDI 01
184.735;000.041;64;000.570;MIDI 01
184.823;000.048;60;000.609;MIDI 01
184.911;000.126;67;000.625;MIDI 01
184.992;000.093;64;000.648;MIDI 01
185.096;000.048;72;000.609;MIDI 01
185.180;000.051;67;000.562;MIDI 01
185.292;000.101;76;000.555;MIDI 01
185.377;000.072;72;000.406;MIDI 01
185.464;000.019;79;000.492;MIDI 01
185.461;000.029;67;000.383;MIDI 01
185.459;000.034;64;000.352;MIDI 01
185.468;000.040;60;000.328;MIDI 01
185.639;000.030;76;000.602;MIDI 01
185.651;000.034;60;000.398;MIDI 01
185.656;000.036;67;000.297;MIDI 01
185.653;000.044;64;000.336;MIDI 01
185.816;000.036;64;000.430;MIDI 01
185.832;000.022;72;000.477;MIDI 01
185.830;000.043;60;000.250;MIDI 01
185.834;000.042;67;000.242;MIDI 01
186.058;000.026;71;000.414;MIDI 01
186.049;000.193;67;000.141;MIDI 01
186.083;000.230;65;000.336;MIDI 01
186.051;000.291;62;000.391;MIDI 01
186.505;000.083;62;000.516;MIDI 01
186.598;000.074;60;000.508;MIDI 01
186.668;000.059;59;000.578;MIDI 01
186.761;000.106;62;000.633;MIDI 01
186.678;000.265;43;000.680;MIDI 01
186.676;000.296;50;000.648;MIDI 01
186.681;000.296;47;000.633;MIDI 01
186.879;000.121;67;000.562;MIDI 01
186.672;000.345;55;000.750;MIDI 01
186.972;000.072;62;000.617;MIDI 01
187.079;000.020;71;000.516;MIDI 01
187.168;000.036;67;000.555;MIDI 01
187.234;000.127;74;000.617;MIDI 01
187.329;000.067;71;000.664;MIDI 01
187.435;000.035;79;000.531;MIDI 01
187.514;000.066;74;000.656;MIDI 01
187.624;000.132;83;000.609;MIDI 01
187.724;000.052;79;000.531;MIDI 01
187.767;000.032;59;000.406;MIDI 01
187.773;000.029;67;000.406;MIDI 01
187.780;000.035;62;000.352;MIDI 01
187.797;000.021;86;000.547;MIDI 01
187.977;000.020;83;000.531;MIDI 01
187.967;000.046;59;000.297;MIDI 01
187.969;000.047;62;000.289;MIDI 01
187.984;000.044;67;000.172;MIDI 01
188.154;000.029;67;000.414;MIDI 01
188.152;000.033;59;000.430;MIDI 01
188.168;000.025;77;000.438;MIDI 01
188.160;000.034;62;000.367;MIDI 01
188.381;000.029;76;000.406;MIDI 01
188.422;000.295;64;000.305;MIDI 01
188.415;000.308;67;000.281;MIDI 01
188.420;000.327;60;000.250;MIDI 01
188.768;000.058;79;000.484;MIDI 01
188.891;000.059;77;000.398;MIDI 01
188.963;000.091;76;000.453;MIDI 01
189.078;000.062;79;000.461;MIDI 01
189.180;000.048;67;000.352;MIDI 01
189.176;000.101;76;000.453;MIDI 01
189.287;000.057;65;000.359;MIDI 01
189.281;000.100;74;000.539;MIDI 01
189.381;000.046;64;000.414;MIDI 01
189.392;000.038;72;000.453;MIDI 01
189.468;000.048;67;000.453;MIDI 01
189.472;000.102;76;000.531;MIDI 01
189.557;000.088;64;000.469;MIDI 01
189.561;000.123;72;000.586;MIDI 01
189.675;000.093;62;000.500;MIDI 01
189.672;000.098;71;000.586;MIDI 01
189.768;000.044;69;000.562;MIDI 01
189.776;000.081;60;000.555;MIDI 01
189.879;000.053;64;000.492;MIDI 01
189.864;000.124;72;000.555;MIDI 01
189.993;000.068;60;000.445;MIDI 01
189.956;000.141;69;000.625;MIDI 01
190.078;000.086;59;000.555;MIDI 01
190.070;000.097;67;000.633;MIDI 01
190.158;000.056;65;000.586;MIDI 01
190.166;000.075;57;000.547;MIDI 01
190.272;000.066;60;000.555;MIDI 01
190.258;000.118;69;000.578;MIDI 01
190.371;000.088;57;000.523;MIDI 01
190.359;000.140;65;000.617;MIDI 01
190.466;000.095;55;000.547;MIDI 01
190.465;000.104;64;000.609;MIDI 01
190.559;000.072;62;000.609;MIDI 01
190.560;000.072;53;000.531;MIDI 01
190.662;000.067;57;000.562;MIDI 01
190.657;000.110;65;000.602;MIDI 01
190.761;000.094;53;000.539;MIDI 01
190.750;000.142;62;000.625;MIDI 01
190.859;000.100;60;000.609;MIDI 01
190.852;000.109;52;000.570;MIDI 01
190.954;000.057;59;000.594;MIDI 01
190.960;000.070;50;000.547;MIDI 01
191.064;000.062;53;000.531;MIDI 01
191.053;000.100;62;000.562;MIDI 01
191.145;000.079;59;000.586;MIDI 01
191.171;000.059;50;000.484;MIDI 01
191.258;000.040;57;000.500;MIDI 01
191.272;000.072;48;000.422;MIDI 01
191.368;000.032;47;000.406;MIDI 01
191.383;000.073;56;000.430;MIDI 01
191.486;000.068;59;000.461;MIDI 01
191.584;000.092;56;000.461;MIDI 01
191.692;000.082;53;000.469;MIDI 01
191.731;000.058;40;000.414;MIDI 01
191.799;000.046;52;000.391;MIDI 01
191.830;000.044;42;000.422;MIDI 01
191.916;000.033;44;000.414;MIDI 01
191.895;000.059;50;000.453;MIDI 01
191.986;000.033;45;000.453;MIDI 01
191.983;000.043;48;000.562;MIDI 01
192.109;000.090;64;000.508;MIDI 01
192.214;000.103;60;000.500;MIDI 01
192.310;000.072;33;000.391;MIDI 01
192.324;000.088;59;000.508;MIDI 01
192.421;000.046;35;000.406;MIDI 01
192.427;000.046;57;000.461;MIDI 01
192.532;000.047;36;000.391;MIDI 01
192.506;000.095;55;000.508;MIDI 01
192.597;000.032;38;000.492;MIDI 01
192.613;000.094;54;000.484;MIDI 01
192.711;000.101;52;000.539;MIDI 01
192.821;000.085;50;000.461;MIDI 01
192.927;000.049;38;000.359;MIDI 01
192.915;000.082;48;000.461;MIDI 01
193.034;000.072;47;000.414;MIDI 01
193.111;000.058;42;000.188;MIDI 01
193.132;000.040;45;000.359;MIDI 01
193.301;000.368;31;000.328;MIDI 01
193.297;000.379;43;000.406;MIDI 01
193.806;000.055;50;000.320;MIDI 01
193.899;000.056;48;000.461;MIDI 01
193.990;000.032;47;000.422;MIDI 01
194.076;000.067;50;000.438;MIDI 01
194.166;000.120;55;000.492;MIDI 01
194.267;000.051;50;000.492;MIDI 01
194.371;000.036;59;000.422;MIDI 01
194.465;000.044;55;000.531;MIDI 01
194.556;000.118;62;000.531;MIDI 01
194.664;000.046;59;000.516;MIDI 01
194.753;000.035;67;000.453;MIDI 01
194.832;000.068;62;000.578;MIDI 01
194.918;000.030;43;000.664;MIDI 01
194.920;000.029;38;000.625;MIDI 01
194.922;000.031;71;000.578;MIDI 01
194.915;000.041;31;000.641;MIDI 01
194.928;000.040;35;000.547;MIDI 01
195.143;000.029;50;000.492;MIDI 01
195.259;000.075;53;000.516;MIDI 01
195.360;000.106;59;000.555;MIDI 01
195.460;000.074;53;000.570;MIDI 01
195.552;000.040;62;000.539;MIDI 01
195.645;000.048;59;000.578;MIDI 01
195.725;000.145;65;000.602;MIDI 01
195.827;000.072;62;000.656;MIDI 01
195.926;000.044;71;000.609;MIDI 01
196.004;000.093;65;000.625;MIDI 01
196.097;000.027;74;000.664;MIDI 01
196.106;000.035;38;000.672;MIDI 01
196.103;000.041;43;000.727;MIDI 01
196.101;000.046;31;000.641;MIDI 01
196.118;000.032;35;000.578;MIDI 01
196.328;000.050;53;000.555;MIDI 01
196.431;000.084;59;000.570;MIDI 01
196.526;000.128;62;000.594;MIDI 01
196.618;000.093;59;000.617;MIDI 01
196.722;000.036;65;000.578;MIDI 01
196.817;000.051;62;000.617;MIDI 01
196.905;000.146;71;000.609;MIDI 01
197.003;000.075;65;000.617;MIDI 01
197.109;000.025;74;000.531;MIDI 01
197.180;000.052;71;000.633;MIDI 01
197.273;000.035;77;000.664;MIDI 01
197.297;000.029;55;000.719;MIDI 01
197.302;000.032;50;000.625;MIDI 01
197.299;000.043;43;000.656;MIDI 01
197.315;000.029;47;000.547;MIDI 01
197.530;000.102;71;000.680;MIDI 01
197.633;000.045;65;000.594;MIDI 01
197.718;000.134;74;000.672;MIDI 01
197.819;000.130;71;000.688;MIDI 01
197.940;000.032;77;000.703;MIDI 01
197.943;000.031;55;000.688;MIDI 01
197.949;000.035;50;000.602;MIDI 01
197.955;000.031;47;000.555;MIDI 01
197.947;000.042;43;000.609;MIDI 01
198.186;000.064;71;000.703;MIDI 01
198.305;000.062;65;000.680;MIDI 01
198.419;000.152;74;000.711;MIDI 01
198.533;000.082;71;000.703;MIDI 01
198.702;000.051;77;000.695;MIDI 01
198.751;000.042;47;000.508;MIDI 01
198.735;000.060;55;000.633;MIDI 01
198.740;000.059;50;000.578;MIDI 01
198.733;000.068;43;000.617;MIDI 01
199.344;000.117;76;000.422;MIDI 01
199.490;000.083;79;000.438;MIDI 01
199.594;000.073;67;000.430;MIDI 01
199.618;000.096;76;000.461;MIDI 01
199.719;000.090;74;000.531;MIDI 01
199.723;000.090;65;000.383;MIDI 01
199.823;000.070;72;000.484;MIDI 01
199.833;000.062;64;000.453;MIDI 01
199.933;000.051;67;000.469;MIDI 01
199.917;000.103;76;000.547;MIDI 01
200.029;000.079;64;000.516;MIDI 01
200.014;000.123;72;000.578;MIDI 01
200.123;000.099;71;000.578;MIDI 01
200.133;000.099;62;000.523;MIDI 01
200.219;000.058;69;000.555;MIDI 01
200.230;000.084;60;000.539;MIDI 01
200.336;000.068;64;000.539;MIDI 01
200.324;000.110;72;000.578;MIDI 01
200.443;000.069;60;000.484;MIDI 01
200.424;000.142;69;000.625;MIDI 01
200.526;000.101;59;000.539;MIDI 01
200.540;000.097;67;000.617;MIDI 01
200.632;000.058;65;000.594;MIDI 01
200.631;000.069;57;000.555;MIDI 01
200.735;000.062;60;000.547;MIDI 01
200.728;000.126;69;000.609;MIDI 01
200.833;000.071;57;000.516;MIDI 01
200.836;000.139;65;000.617;MIDI 01
200.920;000.095;55;000.562;MIDI 01
200.942;000.102;64;000.602;MIDI 01
201.033;000.053;62;000.586;MIDI 01
201.020;000.069;53;000.531;MIDI 01
201.126;000.054;57;000.562;MIDI 01
201.131;000.126;65;000.617;MIDI 01
201.222;000.081;53;000.531;MIDI 01
201.308;000.057;52;000.562;MIDI 01
201.234;000.134;62;000.617;MIDI 01
201.339;000.092;60;000.609;MIDI 01
201.422;000.066;50;000.508;MIDI 01
201.430;000.059;59;000.555;MIDI 01
201.526;000.089;48;000.555;MIDI 01
201.548;000.100;57;000.547;MIDI 01
201.648;000.060;47;000.453;MIDI 01
201.646;000.091;55;000.539;MIDI 01
201.745;000.051;53;000.477;MIDI 01
201.760;000.055;50;000.383;MIDI 01
201.840;000.031;52;000.469;MIDI 01
201.871;000.029;48;000.477;MIDI 01
201.956;000.102;67;000.555;MIDI 01
202.073;000.086;64;000.484;MIDI 01
202.168;000.072;62;000.523;MIDI 01
202.202;000.060;36;000.414;MIDI 01
202.283;000.035;60;000.320;MIDI 01
202.317;000.042;38;000.406;MIDI 01
202.390;000.033;40;000.469;MIDI 01
202.369;000.085;58;000.531;MIDI 01
202.464;000.039;41;000.523;MIDI 01
202.478;000.034;57;000.562;MIDI 01
202.585;000.079;69;000.508;MIDI 01
202.685;000.109;65;000.516;MIDI 01
202.807;000.062;38;000.406;MIDI 01
202.794;000.096;64;000.531;MIDI 01
202.905;000.044;40;000.430;MIDI 01
202.881;000.091;62;000.516;MIDI 01
202.990;000.039;41;000.461;MIDI 01
202.976;000.090;60;000.570;MIDI 01
203.070;000.035;43;000.453;MIDI 01
203.076;000.097;59;000.555;MIDI 01
203.173;000.102;57;000.570;MIDI 01
203.283;000.072;55;000.492;MIDI 01
203.374;000.055;53;000.453;MIDI 01
203.397;000.068;31;000.305;MIDI 01
203.504;000.048;33;000.352;MIDI 01
203.486;000.075;52;000.469;MIDI 01
203.608;000.060;35;000.375;MIDI 01
203.588;000.090;50;000.445;MIDI 01
203.709;000.173;48;000.422;MIDI 01
203.744;000.153;36;000.320;MIDI 01
204.207;000.065;50;000.461;MIDI 01
204.306;000.066;48;000.461;MIDI 01
204.394;000.035;47;000.500;MIDI 01
204.497;000.061;50;000.484;MIDI 01
204.591;000.130;55;000.453;MIDI 01
204.686;000.054;50;000.508;MIDI 01
204.786;000.036;59;000.430;MIDI 01
204.879;000.043;55;000.555;MIDI 01
204.974;000.129;62;000.578;MIDI 01
205.079;000.055;59;000.523;MIDI 01
205.157;000.049;67;000.562;MIDI 01
205.251;000.077;62;000.617;MIDI 01
205.352;000.029;71;000.617;MIDI 01
205.361;000.031;43;000.680;MIDI 01
205.365;000.032;38;000.633;MIDI 01
205.359;000.040;31;000.633;MIDI 01
205.376;000.036;35;000.547;MIDI 01
205.580;000.035;50;000.531;MIDI 01
205.683;000.091;53;000.547;MIDI 01
205.791;000.107;59;000.562;MIDI 01
205.878;000.090;53;000.570;MIDI 01
205.990;000.044;62;000.523;MIDI 01
206.076;000.049;59;000.578;MIDI 01
206.169;000.129;65;000.586;MIDI 01
206.258;000.084;62;000.633;MIDI 01
206.359;000.035;71;000.594;MIDI 01
206.441;000.088;65;000.648;MIDI 01
206.550;000.038;74;000.656;MIDI 01
206.577;000.032;38;000.633;MIDI 01
206.575;000.039;43;000.703;MIDI 01
206.573;000.043;31;000.641;MIDI 01
206.586;000.033;35;000.570;MIDI 01
206.787;000.050;53;000.602;MIDI 01
206.898;000.085;59;000.547;MIDI 01
206.982;000.143;62;000.602;MIDI 01
207.079;000.114;59;000.656;MIDI 01
207.198;000.030;65;000.617;MIDI 01
207.321;000.029;64;000.445;MIDI 01
207.305;000.059;62;000.547;MIDI 01
207.392;000.164;71;000.594;MIDI 01
207.512;000.050;67;000.523;MIDI 01
207.502;000.064;65;000.523;MIDI 01
207.601;000.026;74;000.469;MIDI 01
207.664;000.092;71;000.641;MIDI 01
207.781;000.031;55;000.680;MIDI 01
207.786;000.031;50;000.586;MIDI 01
207.762;000.057;77;000.602;MIDI 01
207.783;000.048;43;000.609;MIDI 01
207.802;000.031;47;000.469;MIDI 01
207.824;000.067;76;000.062;MIDI 01
208.018;000.096;71;000.656;MIDI 01
208.115;000.068;65;000.672;MIDI 01
208.214;000.140;74;000.672;MIDI 01
208.319;000.124;71;000.703;MIDI 01
208.424;000.042;55;000.625;MIDI 01
208.429;000.042;50;000.547;MIDI 01
208.434;000.041;77;000.711;MIDI 01
208.425;000.052;43;000.586;MIDI 01
208.432;000.048;47;000.516;MIDI 01
208.688;000.140;71;000.664;MIDI 01
208.802;000.068;65;000.664;MIDI 01
208.915;000.105;74;000.711;MIDI 01
209.043;000.080;71;000.703;MIDI 01
209.216;000.049;77;000.680;MIDI 01
209.246;000.075;43;000.594;MIDI 01
209.243;000.085;55;000.641;MIDI 01
209.248;000.089;50;000.562;MIDI 01
209.250;000.089;47;000.508;MIDI 01
209.858;000.116;75;000.430;MIDI 01
210.016;000.053;79;000.398;MIDI 01
210.167;000.058;67;000.430;MIDI 01
210.146;000.095;75;000.414;MIDI 01
210.255;000.060;74;000.461;MIDI 01
210.299;000.043;65;000.352;MIDI 01
210.389;000.048;63;000.367;MIDI 01
210.373;000.084;72;000.461;MIDI 01
210.475;000.047;67;000.445;MIDI 01
210.474;000.092;75;000.500;MIDI 01
210.565;000.105;63;000.484;MIDI 01
210.573;000.107;72;000.469;MIDI 01
210.666;000.089;70;000.547;MIDI 01
210.679;000.089;62;000.477;MIDI 01
210.754;000.037;68;000.547;MIDI 01
210.796;000.058;60;000.484;MIDI 01
210.863;000.070;63;000.484;MIDI 01
210.848;000.111;72;000.570;MIDI 01
210.985;000.051;60;000.445;MIDI 01
210.944;000.140;68;000.445;MIDI 01
211.064;000.089;67;000.586;MIDI 01
211.056;000.110;58;000.508;MIDI 01
211.178;000.061;56;000.477;MIDI 01
211.165;000.095;65;000.555;MIDI 01
211.273;000.055;60;000.508;MIDI 01
211.257;000.128;68;000.547;MIDI 01
211.369;000.091;56;000.562;MIDI 01
211.367;000.142;65;000.547;MIDI 01
211.459;000.091;55;000.531;MIDI 01
211.474;000.102;63;000.578;MIDI 01
211.575;000.058;53;000.477;MIDI 01
211.571;000.065;62;000.617;MIDI 01
211.657;000.079;56;000.500;MIDI 01
211.670;000.101;65;000.602;MIDI 01
211.771;000.065;53;000.445;MIDI 01
211.765;000.097;62;000.594;MIDI 01
211.861;000.103;51;000.461;MIDI 01
211.866;000.102;60;000.609;MIDI 01
211.976;000.041;58;000.555;MIDI 01
211.980;000.052;50;000.461;MIDI 01
212.077;000.061;53;000.438;MIDI 01
212.079;000.072;68;000.547;MIDI 01
212.159;000.110;50;000.500;MIDI 01
212.184;000.118;65;000.500;MIDI 01
212.270;000.084;48;000.547;MIDI 01
212.292;000.098;63;000.547;MIDI 01
212.382;000.062;62;000.648;MIDI 01
212.372;000.088;46;000.570;MIDI 01
212.467;000.086;56;000.523;MIDI 01
212.478;000.104;65;000.602;MIDI 01
212.575;000.068;53;000.430;MIDI 01
212.586;000.099;62;000.609;MIDI 01
212.679;000.102;51;000.516;MIDI 01
212.701;000.093;60;000.547;MIDI 01
212.794;000.051;50;000.469;MIDI 01
212.802;000.053;58;000.578;MIDI 01
212.887;000.064;53;000.531;MIDI 01
212.903;000.077;68;000.570;MIDI 01
212.974;000.105;50;000.562;MIDI 01
212.986;000.156;65;000.609;MIDI 01
213.091;000.101;48;000.539;MIDI 01
213.104;000.111;63;000.586;MIDI 01
213.206;000.072;62;000.602;MIDI 01
213.198;000.099;46;000.539;MIDI 01
213.326;000.042;53;000.438;MIDI 01
213.316;000.110;68;000.562;MIDI 01
213.417;000.097;50;000.477;MIDI 01
213.419;000.127;65;000.555;MIDI 01
213.552;000.041;48;000.320;MIDI 01
213.514;000.118;63;000.633;MIDI 01
213.617;000.068;62;000.625;MIDI 01
213.559;000.129;46;000.609;MIDI 01
213.689;000.071;53;000.531;MIDI 01
213.720;000.105;68;000.602;MIDI 01
213.803;000.090;50;000.453;MIDI 01
213.801;000.161;65;000.555;MIDI 01
213.914;000.100;48;000.469;MIDI 01
213.915;000.114;63;000.594;MIDI 01
214.018;000.057;62;000.617;MIDI 01
214.034;000.099;46;000.523;MIDI 01
214.131;000.078;53;000.523;MIDI 01
214.116;000.133;68;000.641;MIDI 01
214.222;000.115;50;000.492;MIDI 01
214.220;000.154;65;000.656;MIDI 01
214.340;000.075;48;000.492;MIDI 01
214.333;000.116;63;000.602;MIDI 01
214.440;000.062;62;000.578;MIDI 01
214.426;000.105;46;000.492;MIDI 01
214.535;000.051;53;000.422;MIDI 01
214.542;000.101;68;000.586;MIDI 01
214.623;000.071;50;000.469;MIDI 01
214.635;000.119;65;000.562;MIDI 01
214.742;000.067;48;000.484;MIDI 01
214.738;000.100;63;000.570;MIDI 01
214.846;000.091;62;000.555;MIDI 01
214.830;000.130;46;000.492;MIDI 01
214.948;000.049;48;000.492;MIDI 01
214.965;000.045;63;000.531;MIDI 01
215.040;000.068;50;000.492;MIDI 01
215.065;000.093;65;000.562;MIDI 01
215.135;000.120;51;000.555;MIDI 01
215.157;000.118;67;000.625;MIDI 01
215.266;000.080;53;000.539;MIDI 01
215.260;000.108;68;000.617;MIDI 01
215.366;000.076;70;000.617;MIDI 01
215.368;000.096;55;000.531;MIDI 01
215.456;000.123;72;000.664;MIDI 01
215.472;000.120;56;000.547;MIDI 01
215.592;000.058;58;000.523;MIDI 01
215.567;000.118;74;000.695;MIDI 01
215.684;000.088;60;000.516;MIDI 01
215.681;000.097;75;000.648;MIDI 01
215.782;000.127;76;000.672;MIDI 01
215.802;000.110;61;000.539;MIDI 01
215.917;000.121;62;000.555;MIDI 01
215.900;000.145;77;000.680;MIDI 01
216.017;000.166;79;000.656;MIDI 01
216.062;000.153;63;000.523;MIDI 01
216.262;002.498;74;000.602;MIDI 01
216.253;002.542;80;000.672;MIDI 01
216.251;003.055;65;000.508;MIDI 01
216.255;003.230;58;000.477;MIDI 01
220.519;000.236;58;000.141;MIDI 01
220.506;000.355;70;000.305;MIDI 01
220.512;000.418;67;000.195;MIDI 01
221.287;000.083;58;000.266;MIDI 01
221.272;000.249;67;000.234;MIDI 01
221.267;000.803;70;000.383;MIDI 01
222.247;000.191;46;000.211;MIDI 01
222.427;000.143;48;000.367;MIDI 01
222.589;000.170;50;000.406;MIDI 01
222.758;000.165;51;000.430;MIDI 01
222.943;000.128;53;000.375;MIDI 01
222.028;001.108;63;000.289;MIDI 01
222.046;001.144;58;000.250;MIDI 01
223.108;000.153;55;000.312;MIDI 01
222.009;001.422;67;000.289;MIDI 01
223.292;000.244;51;000.305;MIDI 01
223.557;000.309;56;000.234;MIDI 01
223.527;000.570;65;000.281;MIDI 01
223.553;000.575;58;000.180;MIDI 01
223.534;000.608;62;000.219;MIDI 01
224.373;000.312;58;000.219;MIDI 01
224.350;000.397;62;000.234;MIDI 01
224.347;000.402;65;000.328;MIDI 01
225.201;000.159;56;000.219;MIDI 01
225.390;000.193;55;000.328;MIDI 01
225.598;000.156;53;000.375;MIDI 01
225.769;000.166;51;000.453;MIDI 01
225.959;000.164;50;000.398;MIDI 01
226.142;000.131;48;000.406;MIDI 01
225.182;001.265;68;000.305;MIDI 01
225.174;001.278;58;000.219;MIDI 01
225.171;001.294;70;000.414;MIDI 01
226.325;000.143;46;000.344;MIDI 01
225.220;001.271;65;000.219;MIDI 01
226.506;000.224;50;000.352;MIDI 01
226.772;000.309;51;000.305;MIDI 01
226.801;000.322;58;000.242;MIDI 01
226.762;000.439;70;000.422;MIDI 01
226.792;000.424;67;000.312;MIDI 01
227.622;000.201;58;000.328;MIDI 01
227.606;000.347;67;000.391;MIDI 01
227.585;000.851;70;000.461;MIDI 01
228.602;000.179;46;000.328;MIDI 01
228.774;000.164;48;000.430;MIDI 01
228.947;000.181;50;000.469;MIDI 01
229.132;000.177;51;000.453;MIDI 01
229.320;000.180;53;000.438;MIDI 01
228.391;001.167;63;000.312;MIDI 01
228.407;001.195;58;000.289;MIDI 01
229.525;000.173;55;000.375;MIDI 01
228.386;001.487;67;000.391;MIDI 01
229.719;000.195;51;000.367;MIDI 01
229.939;000.143;56;000.289;MIDI 01
229.957;000.289;58;000.258;MIDI 01
230.168;000.096;53;000.391;MIDI 01
229.925;000.457;65;000.344;MIDI 01
229.950;000.447;62;000.281;MIDI 01
230.378;000.045;50;000.336;MIDI 01
230.548;000.043;46;000.398;MIDI 01
230.729;000.052;44;000.406;MIDI 01
230.353;000.590;70;000.453;MIDI 01
230.942;000.051;41;000.305;MIDI 01
231.131;000.118;38;000.328;MIDI 01
231.124;000.257;70;000.391;MIDI 01
231.334;000.061;34;000.328;MIDI 01
231.156;000.250;56;000.227;MIDI 01
231.637;001.094;55;000.281;MIDI 01
231.665;001.124;39;000.297;MIDI 01
231.630;001.251;63;000.297;MIDI 01
232.599;000.395;51;000.281;MIDI 01
233.701;000.403;46;000.180;MIDI 01
233.711;000.438;55;000.227;MIDI 01
233.692;000.511;58;000.336;MIDI 01
234.542;000.272;55;000.312;MIDI 01
234.529;000.397;58;000.398;MIDI 01
234.581;000.392;46;000.086;MIDI 01
235.603;000.156;70;000.344;MIDI 01
235.796;000.167;72;000.391;MIDI 01
235.975;000.173;74;000.391;MIDI 01
236.159;000.161;75;000.430;MIDI 01
236.342;000.171;77;000.414;MIDI 01
235.433;001.247;51;000.281;MIDI 01
235.401;001.317;55;000.383;MIDI 01
235.436;001.294;46;000.188;MIDI 01
236.529;000.254;79;000.453;MIDI 01
236.715;000.215;75;000.430;MIDI 01
236.979;000.213;80;000.320;MIDI 01
236.968;000.592;46;000.117;MIDI 01
236.981;000.580;53;000.305;MIDI 01
237.002;000.575;50;000.266;MIDI 01
237.870;000.355;46;000.266;MIDI 01
237.854;000.466;53;000.312;MIDI 01
237.868;000.457;50;000.273;MIDI 01
238.755;000.220;80;000.367;MIDI 01
238.949;000.171;79;000.453;MIDI 01
239.144;000.174;77;000.500;MIDI 01
239.324;000.203;75;000.523;MIDI 01
239.524;000.158;74;000.500;MIDI 01
239.703;000.178;72;000.445;MIDI 01
238.751;001.165;53;000.211;MIDI 01
238.734;001.189;56;000.266;MIDI 01
238.745;001.235;58;000.312;MIDI 01
238.743;001.280;46;000.242;MIDI 01
239.898;000.176;70;000.445;MIDI 01
240.078;000.221;74;000.453;MIDI 01
240.336;000.180;75;000.367;MIDI 01
240.347;000.465;46;000.125;MIDI 01
240.317;000.545;58;000.320;MIDI 01
240.346;000.548;55;000.242;MIDI 01
241.214;000.328;55;000.258;MIDI 01
241.207;000.359;58;000.344;MIDI 01
241.228;000.380;46;000.227;MIDI 01
242.301;000.171;70;000.375;MIDI 01
242.504;000.166;72;000.422;MIDI 01
242.681;000.201;74;000.438;MIDI 01
242.871;000.157;75;000.422;MIDI 01
243.054;000.179;77;000.453;MIDI 01
242.094;001.165;51;000.250;MIDI 01
242.115;001.227;46;000.219;MIDI 01
242.085;001.287;55;000.320;MIDI 01
243.244;000.216;79;000.523;MIDI 01
243.427;000.108;75;000.523;MIDI 01
243.660;000.096;80;000.453;MIDI 01
243.860;000.047;77;000.477;MIDI 01
243.655;000.435;53;000.328;MIDI 01
243.677;000.419;50;000.328;MIDI 01
244.069;000.053;74;000.469;MIDI 01
244.254;000.065;70;000.484;MIDI 01
244.438;000.057;68;000.500;MIDI 01
244.096;000.492;58;000.422;MIDI 01
243.673;000.980;46;000.258;MIDI 01
244.624;000.047;65;000.492;MIDI 01
244.842;000.072;62;000.469;MIDI 01
244.845;000.083;58;000.414;MIDI 01
245.073;000.075;58;000.414;MIDI 01
244.858;000.473;44;000.305;MIDI 01
245.367;000.325;63;000.336;MIDI 01
245.379;000.435;51;000.281;MIDI 01
245.390;000.508;43;000.211;MIDI 01
247.193;000.344;65;000.180;MIDI 01
247.168;000.423;68;000.258;MIDI 01
248.071;000.260;65;000.266;MIDI 01
248.036;000.311;68;000.359;MIDI 01
249.050;000.045;34;000.367;MIDI 01
249.253;000.038;46;000.367;MIDI 01
249.455;000.046;48;000.266;MIDI 01
249.614;000.040;50;000.414;MIDI 01
249.801;000.036;51;000.438;MIDI 01
250.014;000.046;53;000.344;MIDI 01
250.193;000.046;55;000.398;MIDI 01
248.930;001.370;65;000.023;MIDI 01
248.849;001.465;74;000.328;MIDI 01
248.870;001.464;68;000.250;MIDI 01
250.442;000.358;57;000.297;MIDI 01
250.443;000.709;74;000.367;MIDI 01
250.459;000.724;65;000.289;MIDI 01
251.326;000.148;65;000.367;MIDI 01
251.323;000.255;74;000.461;MIDI 01
250.856;000.810;58;000.469;MIDI 01
252.402;000.039;34;000.406;MIDI 01
252.578;000.042;46;000.469;MIDI 01
252.757;000.049;48;000.508;MIDI 01
252.958;000.042;50;000.508;MIDI 01
253.126;000.045;51;000.531;MIDI 01
252.194;001.159;68;000.320;MIDI 01
253.314;000.045;53;000.531;MIDI 01
253.491;000.047;55;000.531;MIDI 01
252.175;001.365;77;000.500;MIDI 01
252.184;001.383;65;000.391;MIDI 01
252.186;001.414;74;000.438;MIDI 01
253.729;000.318;57;000.477;MIDI 01
253.735;000.694;74;000.484;MIDI 01
253.719;000.719;77;000.469;MIDI 01
253.731;000.715;65;000.398;MIDI 01
254.597;000.168;65;000.398;MIDI 01
254.572;000.319;77;000.547;MIDI 01
254.585;000.307;74;000.484;MIDI 01
254.136;001.725;58;000.547;MIDI 01
255.434;000.681;77;000.516;MIDI 01
255.430;000.854;74;000.547;MIDI 01
255.880;000.423;59;000.492;MIDI 01
255.423;001.161;80;000.602;MIDI 01
256.302;000.396;75;000.422;MIDI 01
256.322;000.443;60;000.320;MIDI 01
256.721;000.293;71;000.430;MIDI 01
256.724;000.325;79;000.500;MIDI 01
256.726;000.459;55;000.414;MIDI 01
257.208;000.250;72;000.391;MIDI 01
257.210;000.353;56;000.367;MIDI 01
257.182;000.432;79;000.562;MIDI 01
257.619;000.331;72;000.398;MIDI 01
257.598;000.395;57;000.375;MIDI 01
257.590;000.415;77;000.492;MIDI 01
258.033;000.239;67;000.359;MIDI 01
258.019;000.419;75;000.461;MIDI 01
258.490;000.222;68;000.344;MIDI 01
258.462;000.302;65;000.242;MIDI 01
258.500;000.420;46;000.188;MIDI 01
258.047;000.989;58;000.328;MIDI 01
258.474;000.564;74;000.398;MIDI 01
259.427;000.210;62;000.289;MIDI 01
258.938;000.755;77;000.414;MIDI 01
258.944;001.092;68;000.352;MIDI 01
258.960;001.296;51;000.289;MIDI 01
260.036;000.255;63;000.234;MIDI 01
259.994;000.318;75;000.289;MIDI 01
260.031;000.299;67;000.219;MIDI 01
261.149;000.514;53;000.211;MIDI 01
261.150;000.518;56;000.250;MIDI 01
262.114;000.357;56;000.273;MIDI 01
262.116;000.359;53;000.250;MIDI 01
263.433;000.047;70;000.352;MIDI 01
263.624;000.049;72;000.398;MIDI 01
263.812;000.051;74;000.406;MIDI 01
263.997;000.040;75;000.398;MIDI 01
264.184;000.053;77;000.414;MIDI 01
264.359;000.076;79;000.477;MIDI 01
263.012;001.438;62;000.312;MIDI 01
263.036;001.422;53;000.227;MIDI 01
263.044;001.466;56;000.203;MIDI 01
264.598;000.127;81;000.406;MIDI 01
264.628;000.768;62;000.398;MIDI 01
264.622;000.799;53;000.281;MIDI 01
265.041;000.872;82;000.539;MIDI 01
265.545;000.401;62;000.508;MIDI 01
265.570;000.695;53;000.352;MIDI 01
266.921;000.058;70;000.477;MIDI 01
267.103;000.075;72;000.562;MIDI 01
267.286;000.079;74;000.570;MIDI 01
267.470;000.058;75;000.594;MIDI 01
267.651;000.082;77;000.602;MIDI 01
266.493;001.359;65;000.523;MIDI 01
266.509;001.386;62;000.438;MIDI 01
267.824;000.124;79;000.633;MIDI 01
266.516;001.651;56;000.398;MIDI 01
268.076;000.157;81;000.578;MIDI 01
268.082;000.834;65;000.523;MIDI 01
268.073;000.854;62;000.430;MIDI 01
269.060;000.325;65;000.555;MIDI 01
269.077;000.346;62;000.500;MIDI 01
268.596;001.922;82;000.641;MIDI 01
270.101;000.460;65;000.344;MIDI 01
270.077;000.890;62;000.477;MIDI 01
270.533;000.491;83;000.508;MIDI 01
270.049;001.243;68;000.609;MIDI 01
270.993;000.461;63;000.438;MIDI 01
271.004;000.492;84;000.453;MIDI 01
271.461;000.288;67;000.523;MIDI 01
271.468;000.340;59;000.492;MIDI 01
271.458;000.444;86;000.539;MIDI 01
271.980;000.281;67;000.461;MIDI 01
271.995;000.405;60;000.422;MIDI 01
271.972;000.465;87;000.516;MIDI 01
272.443;000.320;57;000.383;MIDI 01
272.436;000.406;65;000.453;MIDI 01
272.434;000.449;84;000.492;MIDI 01
272.907;000.248;58;000.367;MIDI 01
272.898;000.276;63;000.359;MIDI 01
272.882;000.451;79;000.461;MIDI 01
273.377;000.282;58;000.266;MIDI 01
273.371;000.307;62;000.367;MIDI 01
273.954;000.471;65;000.406;MIDI 01
273.364;001.121;80;000.445;MIDI 01
273.956;001.159;58;000.250;MIDI 01
274.476;000.642;74;000.406;MIDI 01
275.102;000.279;75;000.305;MIDI 01
275.100;000.356;63;000.219;MIDI 01
275.092;000.394;51;000.203;MIDI 01
275.815;000.274;63;000.328;MIDI 01
276.442;000.461;67;000.281;MIDI 01
276.423;000.481;73;000.336;MIDI 01
276.445;000.471;70;000.258;MIDI 01
277.460;000.381;67;000.195;MIDI 01
277.421;000.578;73;000.328;MIDI 01
277.429;000.598;70;000.273;MIDI 01
278.434;001.264;51;000.297;MIDI 01
279.494;000.484;39;000.203;MIDI 01
280.504;000.389;63;000.172;MIDI 01
280.472;000.524;72;000.289;MIDI 01
280.510;000.507;68;000.172;MIDI 01
281.426;000.259;63;000.234;MIDI 01
281.389;000.392;72;000.328;MIDI 01
281.405;000.414;68;000.227;MIDI 01
282.394;001.195;51;000.312;MIDI 01
283.428;000.456;39;000.188;MIDI 01
284.493;000.089;65;000.117;MIDI 01
284.475;000.649;62;000.156;MIDI 01
284.452;000.722;68;000.297;MIDI 01
285.416;000.454;62;000.281;MIDI 01
285.436;000.541;65;000.156;MIDI 01
285.403;000.627;68;000.289;MIDI 01
286.410;001.288;51;000.266;MIDI 01
287.419;000.479;39;000.195;MIDI 01
288.520;001.136;58;000.188;MIDI 01
288.512;001.166;63;000.211;MIDI 01
288.492;001.311;67;000.266;MIDI 01
289.474;000.535;51;000.297;MIDI 01
289.972;000.233;39;000.281;MIDI 01
290.529;001.084;62;000.289;MIDI 01
290.498;001.129;68;000.383;MIDI 01
290.518;001.248;65;000.297;MIDI 01
291.948;000.284;39;000.320;MIDI 01
291.475;000.774;51;000.305;MIDI 01
292.526;001.276;63;000.289;MIDI 01
292.515;001.327;58;000.312;MIDI 01
292.502;001.483;67;000.414;MIDI 01
293.492;000.675;51;000.391;MIDI 01
294.007;000.439;39;000.289;MIDI 01
294.655;001.085;62;000.273;MIDI 01
294.649;001.119;68;000.328;MIDI 01
294.658;001.163;65;000.266;MIDI 01
295.775;000.566;51;000.250;MIDI 01
296.296;000.400;39;000.234;MIDI 01
296.907;001.163;67;000.297;MIDI 01
296.914;001.180;63;000.188;MIDI 01
296.938;001.176;58;000.172;MIDI 01
298.054;000.659;51;000.258;MIDI 01
298.601;000.493;39;000.172;MIDI 01
301.043;001.115;67;000.258;MIDI 01
301.041;001.123;63;000.266;MIDI 01
301.045;001.129;55;000.203;MIDI 01
301.067;001.109;58;000.156;MIDI 01
302.147;000.647;51;000.203;MIDI 01
302.654;000.463;39;000.234;MIDI 01
305.404;005.378;79;000.227;MIDI 01
305.383;005.551;87;000.312;MIDI 01
305.402;005.547;82;000.188;MIDI 01
306.809;004.672;39;000.172;MIDI 01
312.983;000.254;36;000.133;MIDI 01
313.004;000.291;48;000.148;MIDI 01
313.260;000.150;51;000.281;MIDI 01
313.295;000.151;39;000.211;MIDI 01
313.484;000.043;55;000.336;MIDI 01
313.501;000.052;43;000.281;MIDI 01
313.693;000.235;60;000.367;MIDI 01
313.697;000.251;48;000.383;MIDI 01
313.902;000.086;51;000.320;MIDI 01
313.880;000.110;63;000.406;MIDI 01
314.053;000.033;67;000.430;MIDI 01
314.056;000.040;55;000.352;MIDI 01
314.293;000.326;60;000.180;MIDI 01
314.260;000.370;79;000.438;MIDI 01
314.458;000.185;75;000.398;MIDI 01
314.453;000.207;63;000.312;MIDI 01
314.618;000.066;67;000.391;MIDI 01
314.607;000.099;72;000.477;MIDI 01
314.960;000.095;62;000.383;MIDI 01
314.788;000.280;79;000.570;MIDI 01
314.969;000.142;74;000.430;MIDI 01
314.790;000.334;59;000.352;MIDI 01
315.110;000.035;67;000.336;MIDI 01
315.134;000.028;71;000.375;MIDI 01
315.516;000.087;50;000.336;MIDI 01
315.335;000.282;47;000.359;MIDI 01
315.492;000.153;62;000.438;MIDI 01
315.314;000.333;67;000.469;MIDI 01
315.645;000.101;59;000.484;MIDI 01
315.673;000.084;55;000.398;MIDI 01
315.846;000.246;46;000.477;MIDI 01
315.835;000.268;67;000.547;MIDI 01
316.027;000.087;50;000.328;MIDI 01
316.029;000.143;62;000.453;MIDI 01
316.200;000.032;58;000.422;MIDI 01
316.198;000.041;55;000.320;MIDI 01
316.380;000.261;58;000.305;MIDI 01
316.402;000.319;79;000.516;MIDI 01
316.570;000.158;62;000.383;MIDI 01
316.591;000.197;74;000.484;MIDI 01
316.729;000.067;67;000.461;MIDI 01
316.746;000.090;70;000.523;MIDI 01
316.909;000.250;57;000.469;MIDI 01
316.915;000.250;77;000.586;MIDI 01
317.086;000.091;60;000.391;MIDI 01
317.090;000.158;72;000.461;MIDI 01
317.252;000.044;65;000.211;MIDI 01
317.268;000.030;69;000.430;MIDI 01
317.629;000.113;48;000.359;MIDI 01
317.459;000.284;45;000.320;MIDI 01
317.607;000.200;60;000.438;MIDI 01
317.438;000.387;65;000.477;MIDI 01
317.782;000.072;57;000.469;MIDI 01
317.794;000.084;53;000.445;MIDI 01
317.957;000.221;65;000.625;MIDI 01
317.961;000.232;44;000.492;MIDI 01
318.129;000.097;48;000.352;MIDI 01
318.130;000.145;60;000.484;MIDI 01
318.301;000.028;56;000.484;MIDI 01
318.334;000.061;53;000.062;MIDI 01
318.466;000.268;56;000.367;MIDI 01
318.649;000.173;72;000.531;MIDI 01
318.808;000.070;65;000.438;MIDI 01
318.659;000.232;60;000.398;MIDI 01
318.820;000.102;68;000.523;MIDI 01
318.470;000.523;77;000.625;MIDI 01
318.982;000.123;55;000.438;MIDI 01
319.158;000.072;60;000.359;MIDI 01
318.986;000.311;75;000.523;MIDI 01
319.150;000.163;72;000.477;MIDI 01
319.285;000.034;63;000.359;MIDI 01
319.317;000.026;67;000.469;MIDI 01
319.478;000.027;63;000.656;MIDI 01
319.476;000.032;48;000.688;MIDI 01
319.480;000.034;36;000.719;MIDI 01
319.474;000.059;75;000.695;MIDI 01
319.650;000.035;69;000.734;MIDI 01
319.648;000.041;43;000.680;MIDI 01
319.809;000.031;67;000.719;MIDI 01
319.807;000.041;45;000.688;MIDI 01
319.974;000.030;62;000.758;MIDI 01
319.970;000.044;38;000.680;MIDI 01
319.968;000.048;50;000.742;MIDI 01
319.976;000.043;74;000.742;MIDI 01
320.158;000.043;43;000.617;MIDI 01
320.160;000.043;70;000.664;MIDI 01
320.324;000.035;46;000.625;MIDI 01
320.311;000.054;67;000.719;MIDI 01
320.505;000.002;74;000.344;MIDI 01
320.475;000.034;50;000.688;MIDI 01
320.477;000.036;62;000.719;MIDI 01
320.480;000.049;38;000.656;MIDI 01
320.666;000.032;69;000.703;MIDI 01
320.671;000.054;42;000.617;MIDI 01
320.829;000.031;45;000.469;MIDI 01
320.825;000.038;66;000.625;MIDI 01
321.003;000.081;31;000.555;MIDI 01
320.991;000.096;67;000.711;MIDI 01
321.005;000.179;43;000.562;MIDI 01
321.183;000.185;39;000.547;MIDI 01
321.390;000.181;38;000.391;MIDI 01
321.586;000.194;48;000.383;MIDI 01
321.609;000.206;36;000.359;MIDI 01
321.788;000.096;51;000.438;MIDI 01
321.803;000.102;39;000.359;MIDI 01
321.955;000.036;55;000.391;MIDI 01
321.959;000.056;43;000.250;MIDI 01
322.107;000.238;60;000.484;MIDI 01
322.135;000.257;48;000.398;MIDI 01
322.314;000.088;51;000.367;MIDI 01
322.282;000.125;63;000.477;MIDI 01
322.453;000.033;55;000.383;MIDI 01
322.455;000.033;67;000.492;MIDI 01
322.624;000.361;79;000.547;MIDI 01
322.821;000.179;75;000.461;MIDI 01
322.839;000.168;63;000.359;MIDI 01
322.651;000.371;60;000.414;MIDI 01
323.004;000.073;67;000.398;MIDI 01
322.980;000.154;72;000.477;MIDI 01
323.151;000.271;79;000.531;MIDI 01
323.337;000.110;62;000.367;MIDI 01
323.178;000.301;59;000.367;MIDI 01
323.353;000.128;74;000.375;MIDI 01
323.512;000.034;67;000.367;MIDI 01
323.533;000.033;71;000.320;MIDI 01
323.910;000.111;50;000.328;MIDI 01
323.896;000.160;62;000.438;MIDI 01
323.739;000.334;47;000.336;MIDI 01
323.723;000.407;67;000.336;MIDI 01
324.067;000.091;59;000.438;MIDI 01
324.092;000.088;55;000.352;MIDI 01
324.267;000.203;67;000.594;MIDI 01
324.461;000.084;50;000.234;MIDI 01
324.275;000.277;46;000.430;MIDI 01
324.439;000.146;62;000.461;MIDI 01
324.616;000.031;58;000.422;MIDI 01
324.623;000.043;55;000.336;MIDI 01
324.788;000.286;58;000.367;MIDI 01
324.803;000.290;79;000.531;MIDI 01
324.989;000.175;74;000.477;MIDI 01
324.977;000.241;62;000.383;MIDI 01
325.161;000.078;67;000.453;MIDI 01
325.164;000.098;70;000.531;MIDI 01
325.341;000.160;57;000.414;MIDI 01
325.518;000.091;60;000.312;MIDI 01
325.334;000.276;77;000.570;MIDI 01
325.514;000.143;72;000.414;MIDI 01
325.679;000.029;69;000.422;MIDI 01
326.040;000.110;48;000.367;MIDI 01
325.868;000.306;45;000.422;MIDI 01
325.875;000.328;65;000.508;MIDI 01
326.038;000.195;60;000.414;MIDI 01
326.220;000.111;53;000.430;MIDI 01
326.225;000.108;57;000.445;MIDI 01
326.408;000.241;44;000.461;MIDI 01
326.404;000.249;65;000.547;MIDI 01
326.590;000.099;48;000.320;MIDI 01
326.596;000.141;60;000.453;MIDI 01
326.765;000.030;56;000.469;MIDI 01
326.774;000.047;53;000.258;MIDI 01
326.918;000.312;56;000.453;MIDI 01
327.139;000.106;60;000.359;MIDI 01
327.115;000.182;72;000.523;MIDI 01
327.295;000.082;65;000.414;MIDI 01
327.305;000.126;68;000.477;MIDI 01
326.941;000.522;77;000.602;MIDI 01
327.471;000.145;55;000.422;MIDI 01
327.665;000.096;60;000.359;MIDI 01
327.484;000.324;75;000.492;MIDI 01
327.663;000.157;72;000.438;MIDI 01
327.830;000.025;67;000.461;MIDI 01
327.989;000.028;63;000.656;MIDI 01
328.000;000.032;48;000.656;MIDI 01
328.002;000.034;36;000.672;MIDI 01
327.983;000.064;75;000.703;MIDI 01
328.028;000.042;38;000.422;MIDI 01
328.165;000.048;43;000.672;MIDI 01
328.170;000.044;69;000.703;MIDI 01
328.336;000.028;67;000.672;MIDI 01
328.339;000.041;45;000.656;MIDI 01
328.497;000.028;62;000.688;MIDI 01
328.491;000.044;50;000.703;MIDI 01
328.495;000.048;38;000.656;MIDI 01
328.493;000.065;74;000.734;MIDI 01
328.676;000.051;43;000.586;MIDI 01
328.670;000.059;70;000.664;MIDI 01
328.835;000.040;46;000.609;MIDI 01
328.821;000.056;67;000.719;MIDI 01
328.984;000.039;50;000.625;MIDI 01
328.989;000.038;62;000.703;MIDI 01
328.991;000.052;38;000.633;MIDI 01
328.986;000.070;74;000.695;MIDI 01
329.161;000.052;69;000.719;MIDI 01
329.169;000.062;42;000.609;MIDI 01
329.322;000.032;45;000.562;MIDI 01
329.325;000.047;66;000.648;MIDI 01
329.522;000.066;31;000.477;MIDI 01
329.514;000.078;67;000.641;MIDI 01
329.524;000.185;43;000.516;MIDI 01
329.707;000.123;41;000.539;MIDI 01
329.890;000.189;40;000.430;MIDI 01
330.114;000.155;37;000.367;MIDI 01
330.295;000.068;41;000.258;MIDI 01
330.043;000.429;58;000.398;MIDI 01
330.453;000.057;46;000.336;MIDI 01
330.275;000.241;53;000.328;MIDI 01
330.442;000.116;49;000.430;MIDI 01
330.628;000.206;36;000.391;MIDI 01
330.622;000.299;58;000.547;MIDI 01
330.818;000.143;40;000.297;MIDI 01
330.801;000.161;52;000.461;MIDI 01
330.978;000.032;48;000.445;MIDI 01
331.003;000.042;46;000.398;MIDI 01
331.361;000.146;43;000.391;MIDI 01
331.373;000.156;67;000.445;MIDI 01
331.185;000.360;40;000.406;MIDI 01
331.174;000.385;70;000.516;MIDI 01
331.556;000.062;48;000.414;MIDI 01
331.527;000.119;60;000.500;MIDI 01
331.707;000.174;41;000.445;MIDI 01
331.700;000.280;68;000.547;MIDI 01
331.900;000.105;44;000.312;MIDI 01
331.889;000.123;65;000.438;MIDI 01
332.055;000.031;60;000.422;MIDI 01
332.104;000.048;48;000.258;MIDI 01
332.429;000.190;51;000.438;MIDI 01
332.240;000.398;56;000.516;MIDI 01
332.242;000.414;36;000.430;MIDI 01
332.610;000.046;44;000.336;MIDI 01
332.575;000.101;48;000.453;MIDI 01
332.427;000.348;39;000.328;MIDI 01
332.775;000.211;35;000.453;MIDI 01
332.991;000.106;38;000.344;MIDI 01
332.951;000.182;50;000.453;MIDI 01
332.758;000.408;55;000.609;MIDI 01
333.133;000.035;47;000.414;MIDI 01
333.152;000.035;43;000.430;MIDI 01
333.518;000.143;50;000.430;MIDI 01
333.520;000.184;74;000.594;MIDI 01
333.323;000.396;47;000.461;MIDI 01
333.704;000.067;55;000.492;MIDI 01
333.353;000.427;77;000.516;MIDI 01
333.688;000.097;67;000.562;MIDI 01
333.863;000.154;48;000.492;MIDI 01
334.027;000.120;51;000.461;MIDI 01
333.855;000.331;75;000.594;MIDI 01
334.025;000.168;72;000.516;MIDI 01
334.193;000.033;67;000.516;MIDI 01
334.201;000.036;55;000.406;MIDI 01
334.401;000.219;48;000.555;MIDI 01
334.580;000.126;39;000.383;MIDI 01
334.579;000.129;51;000.539;MIDI 01
334.406;000.330;36;000.453;MIDI 01
334.734;000.040;43;000.469;MIDI 01
334.736;000.041;55;000.555;MIDI 01
334.891;000.230;60;000.602;MIDI 01
334.910;000.276;48;000.555;MIDI 01
335.098;000.115;51;000.414;MIDI 01
335.072;000.150;63;000.547;MIDI 01
335.226;000.040;55;000.523;MIDI 01
335.236;000.035;67;000.578;MIDI 01
335.419;000.367;80;000.602;MIDI 01
335.624;000.182;75;000.570;MIDI 01
335.595;000.223;63;000.477;MIDI 01
335.430;000.395;60;000.508;MIDI 01
335.780;000.086;68;000.578;MIDI 01
335.772;000.101;72;000.617;MIDI 01
335.961;000.221;59;000.586;MIDI 01
335.947;000.245;80;000.633;MIDI 01
336.145;000.075;62;000.422;MIDI 01
336.131;000.106;74;000.578;MIDI 01
336.273;000.026;68;000.469;MIDI 01
336.288;000.033;71;000.516;MIDI 01
336.474;000.245;47;000.531;MIDI 01
336.449;000.323;68;000.453;MIDI 01
336.672;000.148;50;000.359;MIDI 01
336.800;000.060;56;000.492;MIDI 01
336.644;000.219;62;000.516;MIDI 01
336.804;000.114;59;000.547;MIDI 01
336.978;000.247;46;000.523;MIDI 01
336.968;000.278;67;000.617;MIDI 01
337.171;000.095;50;000.383;MIDI 01
337.150;000.165;62;000.484;MIDI 01
337.332;000.027;58;000.477;MIDI 01
337.346;000.039;55;000.352;MIDI 01
337.490;000.338;58;000.469;MIDI 01
337.672;000.161;62;000.461;MIDI 01
337.499;000.357;79;000.672;MIDI 01
337.679;000.210;74;000.547;MIDI 01
337.844;000.066;67;000.492;MIDI 01
337.845;000.080;70;000.594;MIDI 01
338.203;000.089;60;000.430;MIDI 01
338.015;000.283;79;000.633;MIDI 01
338.010;000.329;57;000.570;MIDI 01
338.191;000.166;72;000.508;MIDI 01
338.347;000.035;67;000.336;MIDI 01
338.356;000.032;69;000.523;MIDI 01
338.690;000.085;48;000.422;MIDI 01
338.527;000.284;67;000.562;MIDI 01
338.523;000.318;45;000.562;MIDI 01
338.701;000.197;60;000.453;MIDI 01
338.841;000.074;55;000.477;MIDI 01
338.873;000.086;57;000.547;MIDI 01
339.026;000.236;44;000.586;MIDI 01
339.033;000.258;65;000.664;MIDI 01
339.218;000.106;48;000.391;MIDI 01
339.211;000.149;60;000.500;MIDI 01
339.385;000.033;53;000.391;MIDI 01
339.380;000.041;56;000.562;MIDI 01
339.532;000.185;56;000.492;MIDI 01
339.554;000.268;77;000.695;MIDI 01
339.722;000.124;60;000.477;MIDI 01
339.724;000.213;72;000.555;MIDI 01
339.899;000.053;65;000.477;MIDI 01
339.901;000.111;68;000.602;MIDI 01
340.066;000.146;55;000.539;MIDI 01
340.245;000.085;60;000.438;MIDI 01
340.068;000.270;75;000.641;MIDI 01
340.230;000.158;72;000.547;MIDI 01
340.385;000.044;67;000.602;MIDI 01
340.397;000.041;63;000.297;MIDI 01
340.566;000.027;60;000.680;MIDI 01
340.576;000.033;54;000.609;MIDI 01
340.561;000.052;72;000.711;MIDI 01
340.571;000.046;42;000.664;MIDI 01
340.734;000.047;48;000.625;MIDI 01
340.742;000.058;69;000.672;MIDI 01
340.896;000.056;63;000.695;MIDI 01
340.958;000.001;60;000.047;MIDI 01
340.914;000.050;51;000.648;MIDI 01
341.060;000.038;60;000.703;MIDI 01
341.071;000.047;55;000.719;MIDI 01
341.062;000.066;72;000.711;MIDI 01
341.075;000.058;43;000.664;MIDI 01
341.238;000.055;67;000.695;MIDI 01
341.243;000.052;48;000.625;MIDI 01
341.405;000.050;63;000.680;MIDI 01
341.420;000.049;51;000.656;MIDI 01
341.572;000.028;59;000.688;MIDI 01
341.567;000.036;55;000.680;MIDI 01
341.581;000.036;43;000.578;MIDI 01
341.574;000.053;71;000.664;MIDI 01
341.739;000.061;67;000.695;MIDI 01
341.760;000.044;47;000.523;MIDI 01
341.901;000.029;50;000.539;MIDI 01
341.896;000.038;62;000.695;MIDI 01
342.092;000.048;60;000.555;MIDI 01
342.085;000.100;72;000.648;MIDI 01
342.096;000.122;63;000.586;MIDI 01
342.117;000.141;36;000.531;MIDI 01
342.288;000.139;35;000.539;MIDI 01
342.447;000.172;36;000.367;MIDI 01
342.676;000.259;37;000.336;MIDI 01
342.867;000.120;41;000.305;MIDI 01
342.629;000.400;58;000.438;MIDI 01
343.030;000.065;46;000.320;MIDI 01
342.864;000.239;53;000.320;MIDI 01
343.025;000.111;49;000.461;MIDI 01
343.208;000.215;36;000.367;MIDI 01
343.203;000.329;58;000.500;MIDI 01
343.383;000.160;52;000.414;MIDI 01
343.422;000.143;40;000.297;MIDI 01
343.556;000.035;48;000.406;MIDI 01
343.582;000.049;46;000.391;MIDI 01
343.943;000.145;67;000.414;MIDI 01
343.976;000.137;43;000.383;MIDI 01
343.754;000.361;70;000.500;MIDI 01
343.779;000.348;40;000.359;MIDI 01
344.120;000.069;60;000.438;MIDI 01
344.160;000.050;48;000.375;MIDI 01
344.286;000.271;68;000.492;MIDI 01
344.304;000.273;41;000.375;MIDI 01
344.464;000.117;65;000.430;MIDI 01
344.499;000.111;44;000.273;MIDI 01
344.621;000.031;60;000.430;MIDI 01
344.660;000.044;48;000.297;MIDI 01
345.014;000.215;51;000.461;MIDI 01
344.820;000.424;56;000.477;MIDI 01
344.833;000.423;36;000.398;MIDI 01
345.204;000.057;44;000.352;MIDI 01
345.174;000.154;48;000.484;MIDI 01
345.032;000.343;39;000.266;MIDI 01
345.359;000.255;35;000.477;MIDI 01
345.567;000.091;38;000.305;MIDI 01
345.688;000.032;47;000.430;MIDI 01
345.525;000.203;50;000.492;MIDI 01
345.350;000.393;55;000.594;MIDI 01
346.075;000.169;50;000.352;MIDI 01
345.876;000.423;47;000.445;MIDI 01
346.106;000.200;74;000.547;MIDI 01
346.265;000.076;55;000.477;MIDI 01
346.255;000.156;67;000.570;MIDI 01
345.924;000.529;77;000.492;MIDI 01
346.416;000.189;48;000.500;MIDI 01
346.592;000.106;51;000.461;MIDI 01
346.419;000.289;75;000.594;MIDI 01
346.594;000.164;72;000.555;MIDI 01
346.754;000.031;67;000.570;MIDI 01
346.795;000.036;55;000.109;MIDI 01
346.964;000.224;48;000.570;MIDI 01
347.163;000.112;39;000.438;MIDI 01
347.136;000.146;51;000.562;MIDI 01
346.986;000.327;36;000.469;MIDI 01
347.314;000.040;43;000.430;MIDI 01
347.318;000.038;55;000.586;MIDI 01
347.469;000.223;60;000.648;MIDI 01
347.484;000.268;48;000.562;MIDI 01
347.631;000.129;63;000.586;MIDI 01
347.663;000.125;51;000.453;MIDI 01
347.795;000.031;67;000.617;MIDI 01
347.797;000.034;55;000.523;MIDI 01
347.996;000.340;60;000.477;MIDI 01
347.980;000.379;80;000.648;MIDI 01
348.185;000.191;75;000.531;MIDI 01
348.176;000.246;63;000.406;MIDI 01
348.344;000.079;68;000.492;MIDI 01
348.339;000.117;72;000.656;MIDI 01
348.505;000.248;59;000.547;MIDI 01
348.500;000.283;80;000.664;MIDI 01
348.693;000.095;62;000.492;MIDI 01
348.695;000.113;74;000.562;MIDI 01
348.832;000.027;68;000.438;MIDI 01
348.858;000.035;71;000.547;MIDI 01
349.029;000.183;47;000.539;MIDI 01
349.175;000.137;50;000.406;MIDI 01
349.014;000.335;68;000.445;MIDI 01
349.204;000.205;62;000.508;MIDI 01
349.346;000.083;56;000.500;MIDI 01
349.370;000.094;59;000.586;MIDI 01
349.534;000.280;46;000.547;MIDI 01
349.726;000.111;50;000.383;MIDI 01
349.536;000.303;67;000.641;MIDI 01
349.710;000.184;62;000.539;MIDI 01
349.881;000.029;55;000.484;MIDI 01
349.901;000.030;58;000.430;MIDI 01
350.056;000.310;79;000.664;MIDI 01
350.217;000.231;62;000.461;MIDI 01
350.038;000.415;58;000.531;MIDI 01
350.238;000.242;74;000.586;MIDI 01
350.392;000.096;67;000.555;MIDI 01
350.407;000.103;70;000.648;MIDI 01
350.566;000.280;57;000.586;MIDI 01
350.752;000.098;60;000.414;MIDI 01
350.591;000.276;79;000.617;MIDI 01
350.764;000.152;72;000.516;MIDI 01
350.896;000.028;67;000.438;MIDI 01
350.924;000.033;69;000.555;MIDI 01
351.106;000.107;43;000.430;MIDI 01
351.113;000.241;45;000.453;MIDI 01
351.245;000.109;48;000.508;MIDI 01
351.094;000.289;67;000.523;MIDI 01
351.264;000.200;60;000.523;MIDI 01
351.410;000.061;55;000.477;MIDI 01
351.414;000.092;57;000.578;MIDI 01
351.601;000.259;65;000.648;MIDI 01
351.819;000.044;59;000.391;MIDI 01
351.599;000.267;44;000.586;MIDI 01
351.782;000.120;48;000.422;MIDI 01
351.944;000.039;56;000.586;MIDI 01
351.953;000.031;53;000.422;MIDI 01
351.799;000.186;60;000.328;MIDI 01
352.105;000.281;56;000.539;MIDI 01
352.298;000.119;60;000.477;MIDI 01
352.291;000.218;72;000.516;MIDI 01
352.451;000.092;65;000.531;MIDI 01
352.123;000.423;77;000.656;MIDI 01
352.457;000.145;68;000.602;MIDI 01
352.634;000.147;55;000.555;MIDI 01
352.811;000.090;60;000.430;MIDI 01
352.632;000.283;75;000.609;MIDI 01
352.809;000.151;72;000.508;MIDI 01
352.974;000.032;67;000.500;MIDI 01
352.972;000.045;63;000.273;MIDI 01
353.144;000.028;60;000.703;MIDI 01
353.153;000.022;54;000.562;MIDI 01
353.142;000.044;72;000.656;MIDI 01
353.146;000.046;42;000.672;MIDI 01
353.314;000.043;48;000.594;MIDI 01
353.323;000.060;69;000.680;MIDI 01
353.482;000.045;63;000.695;MIDI 01
353.492;000.041;51;000.633;MIDI 01
353.648;000.031;60;000.742;MIDI 01
353.654;000.042;55;000.688;MIDI 01
353.661;000.047;43;000.648;MIDI 01
353.650;000.065;72;000.719;MIDI 01
353.831;000.049;48;000.602;MIDI 01
353.827;000.059;67;000.680;MIDI 01
353.994;000.057;63;000.695;MIDI 01
354.003;000.054;51;000.664;MIDI 01
354.163;000.027;59;000.727;MIDI 01
354.160;000.034;55;000.688;MIDI 01
354.171;000.042;43;000.617;MIDI 01
354.165;000.052;71;000.680;MIDI 01
354.333;000.043;47;000.570;MIDI 01
354.326;000.066;67;000.703;MIDI 01
354.488;000.032;50;000.594;MIDI 01
354.484;000.044;62;000.703;MIDI 01
354.660;000.025;60;000.703;MIDI 01
354.654;000.036;48;000.688;MIDI 01
354.658;000.053;36;000.672;MIDI 01
354.663;000.051;72;000.719;MIDI 01
354.829;000.038;67;000.719;MIDI 01
354.819;000.050;39;000.656;MIDI 01
354.998;000.039;43;000.625;MIDI 01
354.990;000.049;63;000.680;MIDI 01
355.166;000.055;60;000.680;MIDI 01
355.172;000.066;48;000.680;MIDI 01
355.554;000.036;51;000.461;MIDI 01
355.561;000.032;44;000.398;MIDI 01
355.568;000.043;48;000.297;MIDI 01
355.719;000.035;48;000.492;MIDI 01
355.717;000.040;44;000.477;MIDI 01
355.716;000.043;51;000.469;MIDI 01
356.065;000.034;44;000.406;MIDI 01
356.075;000.040;51;000.336;MIDI 01
356.073;000.044;48;000.289;MIDI 01
356.226;000.040;48;000.516;MIDI 01
356.224;000.046;51;000.484;MIDI 01
356.229;000.043;44;000.430;MIDI 01
356.596;000.043;48;000.359;MIDI 01
356.605;000.036;44;000.375;MIDI 01
356.607;000.036;51;000.383;MIDI 01
356.751;000.044;44;000.531;MIDI 01
356.753;000.044;51;000.484;MIDI 01
356.765;000.035;48;000.398;MIDI 01
356.938;000.031;56;000.430;MIDI 01
357.103;000.043;44;000.453;MIDI 01
357.113;000.043;51;000.383;MIDI 01
357.119;000.038;48;000.336;MIDI 01
357.277;000.035;48;000.477;MIDI 01
357.273;000.042;51;000.492;MIDI 01
357.275;000.042;44;000.469;MIDI 01
357.447;000.030;60;000.555;MIDI 01
357.622;000.042;51;000.477;MIDI 01
357.624;000.042;48;000.383;MIDI 01
357.626;000.043;44;000.453;MIDI 01
357.784;000.034;48;000.523;MIDI 01
357.778;000.043;51;000.555;MIDI 01
357.781;000.049;44;000.562;MIDI 01
357.948;000.040;63;000.625;MIDI 01
358.117;000.041;51;000.555;MIDI 01
358.122;000.041;48;000.523;MIDI 01
358.120;000.052;44;000.531;MIDI 01
358.276;000.040;48;000.555;MIDI 01
358.279;000.050;44;000.602;MIDI 01
358.273;000.057;51;000.602;MIDI 01
358.435;000.036;68;000.672;MIDI 01
358.618;000.043;48;000.500;MIDI 01
358.614;000.049;51;000.578;MIDI 01
358.605;000.071;44;000.523;MIDI 01
358.753;000.051;51;000.641;MIDI 01
358.761;000.045;48;000.578;MIDI 01
358.771;000.044;44;000.531;MIDI 01
358.935;000.055;72;000.703;MIDI 01
359.106;000.033;51;000.586;MIDI 01
359.108;000.045;48;000.539;MIDI 01
359.104;000.052;44;000.578;MIDI 01
359.246;000.049;51;000.625;MIDI 01
359.250;000.057;48;000.609;MIDI 01
359.264;000.046;44;000.625;MIDI 01
359.428;000.034;75;000.734;MIDI 01
359.590;000.041;51;000.594;MIDI 01
359.592;000.046;44;000.578;MIDI 01
359.616;000.039;48;000.312;MIDI 01
359.758;000.075;54;000.750;MIDI 01
359.760;000.092;45;000.617;MIDI 01
359.770;000.087;51;000.547;MIDI 01
359.765;000.102;48;000.547;MIDI 01
359.762;000.134;78;000.766;MIDI 01
359.901;000.072;80;000.625;MIDI 01
360.027;000.046;78;000.578;MIDI 01
360.098;000.033;54;000.586;MIDI 01
360.101;000.039;80;000.555;MIDI 01
360.095;000.048;45;000.586;MIDI 01
360.107;000.038;51;000.523;MIDI 01
360.115;000.038;48;000.453;MIDI 01
360.168;000.054;78;000.602;MIDI 01
360.226;000.050;80;000.586;MIDI 01
360.247;000.044;54;000.430;MIDI 01
360.245;000.054;51;000.555;MIDI 01
360.254;000.050;48;000.477;MIDI 01
360.243;000.080;45;000.562;MIDI 01
360.304;000.042;78;000.586;MIDI 01
360.345;000.080;80;000.531;MIDI 01
360.432;000.133;78;000.633;MIDI 01
360.517;000.051;51;000.453;MIDI 01
360.539;000.051;45;000.156;MIDI 01
360.541;000.145;77;000.617;MIDI 01
360.648;000.064;78;000.594;MIDI 01
360.695;000.028;51;000.562;MIDI 01
360.691;000.037;55;000.656;MIDI 01
360.697;000.046;46;000.617;MIDI 01
360.681;000.066;79;000.680;MIDI 01
360.852;000.025;75;000.648;MIDI 01
360.831;000.091;51;000.062;MIDI 01
361.017;000.033;55;000.516;MIDI 01
361.032;000.038;46;000.469;MIDI 01
361.015;000.057;51;000.500;MIDI 01
361.184;000.039;56;000.664;MIDI 01
361.197;000.039;50;000.492;MIDI 01
361.186;000.068;46;000.562;MIDI 01
360.999;000.264;70;000.750;MIDI 01
361.350;000.035;68;000.602;MIDI 01
361.467;000.035;56;000.516;MIDI 01
361.477;000.036;46;000.539;MIDI 01
361.511;000.023;65;000.500;MIDI 01
361.502;000.036;64;000.531;MIDI 01
361.651;000.029;51;000.633;MIDI 01
361.653;000.030;39;000.617;MIDI 01
361.658;000.029;55;000.633;MIDI 01
361.666;000.025;63;000.492;MIDI 01
361.807;000.039;58;000.609;MIDI 01
361.973;000.036;55;000.406;MIDI 01
362.113;000.037;51;000.492;MIDI 01
362.268;000.035;49;000.500;MIDI 01
362.294;000.054;51;000.180;MIDI 01
362.432;000.031;46;000.445;MIDI 01
362.575;000.039;51;000.352;MIDI 01
362.590;000.035;44;000.484;MIDI 01
362.592;000.035;48;000.500;MIDI 01
362.969;000.039;51;000.484;MIDI 01
362.960;000.049;48;000.461;MIDI 01
362.982;000.035;44;000.367;MIDI 01
363.119;000.042;51;000.484;MIDI 01
363.127;000.039;48;000.469;MIDI 01
363.129;000.039;44;000.445;MIDI 01
363.479;000.037;44;000.305;MIDI 01
363.475;000.044;48;000.383;MIDI 01
363.483;000.037;51;000.375;MIDI 01
363.627;000.034;51;000.516;MIDI 01
363.632;000.036;48;000.469;MIDI 01
363.630;000.042;44;000.453;MIDI 01
363.800;000.029;56;000.438;MIDI 01
363.965;000.044;51;000.430;MIDI 01
363.973;000.038;44;000.391;MIDI 01
363.962;000.056;48;000.359;MIDI 01
364.119;000.038;51;000.492;MIDI 01
364.124;000.035;44;000.445;MIDI 01
364.126;000.039;48;000.422;MIDI 01
364.295;000.030;60;000.516;MIDI 01
364.450;000.043;51;000.484;MIDI 01
364.452;000.048;48;000.477;MIDI 01
364.460;000.042;44;000.461;MIDI 01
364.606;000.039;44;000.539;MIDI 01
364.597;000.050;51;000.570;MIDI 01
364.608;000.043;48;000.539;MIDI 01
364.782;000.039;63;000.672;MIDI 01
364.942;000.041;51;000.578;MIDI 01
364.944;000.049;44;000.547;MIDI 01
364.950;000.048;48;000.516;MIDI 01
365.096;000.043;44;000.586;MIDI 01
365.099;000.042;48;000.562;MIDI 01
365.090;000.056;51;000.555;MIDI 01
365.269;000.032;68;000.672;MIDI 01
365.431;000.044;51;000.602;MIDI 01
365.447;000.042;48;000.508;MIDI 01
365.436;000.053;44;000.562;MIDI 01
365.582;000.052;51;000.609;MIDI 01
365.587;000.048;44;000.648;MIDI 01
365.591;000.047;48;000.570;MIDI 01
365.766;000.051;72;000.680;MIDI 01
365.910;000.042;51;000.609;MIDI 01
365.916;000.047;44;000.578;MIDI 01
365.922;000.050;48;000.555;MIDI 01
366.066;000.042;48;000.539;MIDI 01
366.050;000.061;51;000.648;MIDI 01
366.062;000.054;44;000.641;MIDI 01
366.218;000.034;75;000.805;MIDI 01
366.373;000.035;51;000.648;MIDI 01
366.379;000.044;44;000.578;MIDI 01
366.381;000.074;48;000.547;MIDI 01
366.545;000.072;54;000.719;MIDI 01
366.549;000.077;45;000.633;MIDI 01
366.536;000.099;51;000.586;MIDI 01
366.550;000.133;78;000.750;MIDI 01
366.688;000.067;80;000.656;MIDI 01
366.816;000.059;78;000.578;MIDI 01
366.893;000.031;54;000.594;MIDI 01
366.887;000.044;80;000.609;MIDI 01
366.897;000.043;45;000.562;MIDI 01
366.909;000.039;51;000.484;MIDI 01
366.900;000.057;48;000.328;MIDI 01
366.976;000.040;78;000.562;MIDI 01
367.026;000.036;80;000.594;MIDI 01
367.050;000.042;51;000.539;MIDI 01
367.073;000.036;48;000.484;MIDI 01
367.036;000.078;54;000.578;MIDI 01
367.052;000.071;45;000.625;MIDI 01
367.100;000.051;78;000.609;MIDI 01
367.143;000.052;80;000.562;MIDI 01
367.243;000.032;78;000.570;MIDI 01
367.301;000.027;45;000.477;MIDI 01
367.257;000.076;80;000.516;MIDI 01
367.310;000.025;54;000.438;MIDI 01
367.297;000.051;48;000.227;MIDI 01
367.308;000.047;51;000.445;MIDI 01
367.402;000.104;77;000.492;MIDI 01
367.479;000.069;78;000.656;MIDI 01
367.516;000.034;51;000.508;MIDI 01
367.518;000.034;55;000.633;MIDI 01
367.523;000.042;46;000.594;MIDI 01
367.524;000.046;79;000.594;MIDI 01
367.714;000.002;75;000.328;MIDI 01
367.829;000.036;55;000.570;MIDI 01
367.833;000.054;51;000.453;MIDI 01
367.840;000.052;46;000.547;MIDI 01
368.004;000.043;56;000.680;MIDI 01
368.016;000.048;46;000.523;MIDI 01
368.039;000.034;50;000.391;MIDI 01
367.837;000.281;70;000.695;MIDI 01
368.177;000.042;68;000.570;MIDI 01
368.295;000.035;56;000.562;MIDI 01
368.320;000.028;65;000.594;MIDI 01
368.318;000.039;46;000.547;MIDI 01
368.485;000.028;55;000.633;MIDI 01
368.486;000.029;51;000.625;MIDI 01
368.493;000.041;39;000.586;MIDI 01
368.503;000.034;63;000.391;MIDI 01
368.640;000.039;58;000.594;MIDI 01
368.790;000.031;55;000.609;MIDI 01
368.971;000.045;51;000.445;MIDI 01
369.315;000.040;51;000.383;MIDI 01
369.318;000.045;61;000.422;MIDI 01
369.337;000.041;58;000.297;MIDI 01
369.476;000.039;61;000.508;MIDI 01
369.474;000.044;51;000.484;MIDI 01
369.488;000.032;58;000.406;MIDI 01
369.859;000.040;58;000.375;MIDI 01
369.866;000.041;61;000.344;MIDI 01
369.878;000.049;51;000.188;MIDI 01
370.018;000.034;58;000.359;MIDI 01
370.032;000.036;61;000.359;MIDI 01
370.053;000.050;51;000.211;MIDI 01
370.375;000.045;61;000.328;MIDI 01
370.387;000.044;58;000.234;MIDI 01
370.383;000.053;51;000.195;MIDI 01
370.552;000.044;61;000.281;MIDI 01
370.554;000.047;51;000.273;MIDI 01
370.569;000.054;58;000.133;MIDI 01
370.695;000.032;77;000.398;MIDI 01
370.852;000.039;75;000.461;MIDI 01
370.854;000.043;58;000.289;MIDI 01
370.859;000.040;51;000.305;MIDI 01
370.861;000.042;61;000.289;MIDI 01
371.011;000.033;51;000.445;MIDI 01
371.018;000.032;58;000.391;MIDI 01
371.025;000.035;61;000.367;MIDI 01
371.163;000.041;73;000.453;MIDI 01
371.316;000.035;72;000.492;MIDI 01
371.342;000.044;51;000.414;MIDI 01
371.344;000.044;58;000.289;MIDI 01
371.336;000.053;61;000.352;MIDI 01
371.500;000.033;51;000.430;MIDI 01
371.515;000.034;58;000.359;MIDI 01
371.512;000.039;61;000.328;MIDI 01
371.650;000.038;70;000.414;MIDI 01
371.793;000.039;68;000.453;MIDI 01
371.847;000.042;61;000.352;MIDI 01
371.850;000.042;58;000.328;MIDI 01
371.853;000.041;51;000.406;MIDI 01
371.997;000.038;61;000.508;MIDI 01
372.005;000.031;58;000.422;MIDI 01
372.001;000.039;51;000.469;MIDI 01
372.152;000.035;67;000.484;MIDI 01
372.319;000.034;68;000.500;MIDI 01
372.317;000.039;61;000.523;MIDI 01
372.331;000.032;58;000.367;MIDI 01
372.329;000.039;51;000.406;MIDI 01
372.468;000.031;58;000.516;MIDI 01
372.466;000.041;61;000.469;MIDI 01
372.472;000.036;51;000.516;MIDI 01
372.650;000.030;70;000.500;MIDI 01
372.818;000.026;72;000.492;MIDI 01
372.816;000.044;61;000.469;MIDI 01
372.826;000.039;51;000.430;MIDI 01
372.820;000.047;58;000.375;MIDI 01
372.980;000.036;58;000.445;MIDI 01
372.968;000.052;61;000.500;MIDI 01
372.976;000.046;51;000.484;MIDI 01
373.148;000.027;73;000.430;MIDI 01
373.293;000.042;75;000.477;MIDI 01
373.315;000.031;61;000.438;MIDI 01
373.312;000.041;58;000.312;MIDI 01
373.324;000.037;51;000.352;MIDI 01
373.456;000.043;61;000.492;MIDI 01
373.466;000.035;58;000.461;MIDI 01
373.467;000.040;51;000.469;MIDI 01
373.642;000.044;77;000.469;MIDI 01
373.805;000.034;75;000.469;MIDI 01
373.809;000.041;58;000.297;MIDI 01
373.816;000.036;61;000.344;MIDI 01
373.817;000.038;51;000.367;MIDI 01
373.972;000.039;58;000.445;MIDI 01
373.969;000.045;51;000.453;MIDI 01
373.966;000.050;61;000.477;MIDI 01
374.136;000.027;73;000.438;MIDI 01
374.303;000.024;72;000.484;MIDI 01
374.314;000.027;61;000.477;MIDI 01
374.318;000.035;58;000.375;MIDI 01
374.321;000.040;51;000.461;MIDI 01
375.041;000.038;49;000.562;MIDI 01
375.047;000.047;39;000.500;MIDI 01
375.214;000.036;70;000.570;MIDI 01
375.368;000.032;49;000.414;MIDI 01
375.373;000.036;39;000.453;MIDI 01
375.384;000.043;46;000.297;MIDI 01
375.400;000.035;68;000.562;MIDI 01
375.557;000.032;46;000.508;MIDI 01
375.555;000.043;49;000.461;MIDI 01
375.553;000.050;39;000.516;MIDI 01
375.728;000.039;67;000.492;MIDI 01
375.889;000.036;46;000.445;MIDI 01
375.881;000.046;65;000.539;MIDI 01
375.892;000.039;49;000.438;MIDI 01
375.890;000.043;39;000.500;MIDI 01
376.033;000.047;46;000.523;MIDI 01
376.035;000.047;49;000.531;MIDI 01
376.031;000.053;39;000.547;MIDI 01
376.164;000.040;63;000.523;MIDI 01
376.325;000.032;46;000.523;MIDI 01
376.327;000.035;49;000.531;MIDI 01
376.339;000.036;39;000.453;MIDI 01
376.345;000.036;61;000.531;MIDI 01
376.519;000.036;46;000.484;MIDI 01
376.523;000.043;49;000.484;MIDI 01
376.521;000.047;39;000.508;MIDI 01
376.673;000.045;60;000.508;MIDI 01
376.830;000.029;59;000.531;MIDI 01
376.836;000.038;49;000.523;MIDI 01
376.835;000.041;46;000.477;MIDI 01
376.847;000.042;39;000.500;MIDI 01
376.988;000.039;46;000.562;MIDI 01
376.985;000.054;39;000.594;MIDI 01
376.983;000.058;49;000.562;MIDI 01
377.130;000.052;58;000.531;MIDI 01
377.302;000.033;46;000.484;MIDI 01
377.292;000.047;49;000.555;MIDI 01
377.300;000.041;60;000.523;MIDI 01
377.304;000.040;39;000.523;MIDI 01
377.456;000.039;46;000.547;MIDI 01
377.454;000.057;49;000.594;MIDI 01
377.458;000.060;39;000.586;MIDI 01
377.602;000.043;61;000.562;MIDI 01
377.770;000.040;55;000.484;MIDI 01
377.783;000.034;46;000.414;MIDI 01
377.791;000.046;39;000.352;MIDI 01
377.800;000.041;49;000.312;MIDI 01
378.004;000.504;58;000.406;MIDI 01
378.018;000.498;49;000.164;MIDI 01
378.009;000.620;44;000.320;MIDI 01
378.600;000.061;48;000.281;MIDI 01
377.993;000.694;55;000.297;MIDI 01
378.002;000.686;51;000.414;MIDI 01
378.560;000.135;56;000.320;MIDI 01
378.924;000.038;61;000.398;MIDI 01
378.943;000.045;51;000.273;MIDI 01
378.959;000.047;58;000.227;MIDI 01
379.070;000.040;61;000.523;MIDI 01
379.102;000.036;51;000.375;MIDI 01
379.155;000.052;58;000.023;MIDI 01
379.477;000.038;51;000.336;MIDI 01
379.474;000.043;58;000.250;MIDI 01
379.483;000.041;61;000.305;MIDI 01
379.626;000.034;51;000.406;MIDI 01
379.636;000.031;61;000.398;MIDI 01
379.647;000.042;58;000.289;MIDI 01
379.975;000.041;51;000.422;MIDI 01
379.977;000.040;58;000.312;MIDI 01
379.981;000.038;61;000.359;MIDI 01
380.139;000.033;58;000.438;MIDI 01
380.136;000.037;51;000.422;MIDI 01
380.131;000.045;61;000.484;MIDI 01
380.261;000.050;77;000.453;MIDI 01
380.431;000.035;75;000.469;MIDI 01
380.442;000.040;58;000.289;MIDI 01
380.449;000.036;61;000.344;MIDI 01
380.452;000.043;51;000.312;MIDI 01
380.591;000.034;58;000.438;MIDI 01
380.589;000.042;61;000.477;MIDI 01
380.606;000.036;51;000.367;MIDI 01
380.774;000.040;73;000.445;MIDI 01
380.945;000.026;72;000.422;MIDI 01
380.951;000.036;61;000.359;MIDI 01
380.955;000.038;51;000.414;MIDI 01
380.957;000.038;58;000.367;MIDI 01
381.102;000.045;58;000.430;MIDI 01
381.097;000.052;61;000.477;MIDI 01
381.113;000.039;51;000.406;MIDI 01
381.277;000.042;70;000.445;MIDI 01
381.420;000.026;68;000.422;MIDI 01
381.453;000.035;58;000.375;MIDI 01
381.470;000.040;51;000.305;MIDI 01
381.467;000.045;61;000.273;MIDI 01
381.599;000.031;58;000.414;MIDI 01
381.625;000.039;61;000.352;MIDI 01
381.629;000.043;51;000.320;MIDI 01
381.769;000.040;67;000.414;MIDI 01
381.927;000.045;68;000.484;MIDI 01
381.947;000.033;61;000.422;MIDI 01
381.952;000.036;58;000.320;MIDI 01
381.950;000.041;51;000.398;MIDI 01
382.096;000.035;58;000.453;MIDI 01
382.090;000.045;61;000.508;MIDI 01
382.101;000.043;51;000.469;MIDI 01
382.250;000.042;70;000.500;MIDI 01
382.422;000.038;72;000.477;MIDI 01
382.446;000.035;61;000.383;MIDI 01
382.444;000.042;51;000.430;MIDI 01
382.466;000.053;58;000.125;MIDI 01
382.591;000.046;61;000.492;MIDI 01
382.599;000.043;51;000.469;MIDI 01
382.629;000.040;58;000.336;MIDI 01
382.770;000.032;73;000.445;MIDI 01
382.923;000.045;75;000.469;MIDI 01
382.947;000.033;61;000.391;MIDI 01
382.943;000.041;58;000.352;MIDI 01
382.948;000.043;51;000.430;MIDI 01
383.104;000.035;58;000.445;MIDI 01
383.095;000.048;61;000.477;MIDI 01
383.101;000.044;51;000.492;MIDI 01
383.264;000.048;77;000.492;MIDI 01
383.423;000.035;75;000.516;MIDI 01
383.429;000.032;61;000.438;MIDI 01
383.433;000.035;58;000.336;MIDI 01
383.440;000.033;51;000.406;MIDI 01
383.576;000.034;58;000.453;MIDI 01
383.573;000.044;61;000.492;MIDI 01
383.574;000.044;51;000.508;MIDI 01
383.760;000.027;73;000.445;MIDI 01
383.905;000.036;51;000.445;MIDI 01
383.928;000.024;72;000.477;MIDI 01
383.915;000.050;61;000.219;MIDI 01
383.940;000.052;58;000.023;MIDI 01
384.091;000.039;49;000.438;MIDI 01
384.101;000.040;46;000.344;MIDI 01
384.089;000.054;39;000.477;MIDI 01
384.258;000.050;70;000.445;MIDI 01
384.405;000.037;49;000.500;MIDI 01
384.413;000.031;46;000.398;MIDI 01
384.410;000.041;39;000.477;MIDI 01
384.415;000.039;68;000.508;MIDI 01
384.551;000.043;46;000.547;MIDI 01
384.553;000.043;49;000.523;MIDI 01
384.555;000.047;39;000.539;MIDI 01
384.719;000.044;67;000.562;MIDI 01
384.870;000.041;65;000.555;MIDI 01
384.904;000.034;46;000.500;MIDI 01
384.902;000.039;49;000.500;MIDI 01
384.906;000.044;39;000.492;MIDI 01
385.040;000.045;49;000.578;MIDI 01
385.041;000.046;46;000.555;MIDI 01
385.044;000.060;39;000.602;MIDI 01
385.198;000.046;63;000.562;MIDI 01
385.349;000.045;61;000.586;MIDI 01
385.368;000.041;49;000.555;MIDI 01
385.370;000.042;46;000.531;MIDI 01
385.378;000.043;39;000.523;MIDI 01
385.522;000.060;46;000.594;MIDI 01
385.517;000.066;49;000.578;MIDI 01
385.520;000.067;39;000.602;MIDI 01
385.665;000.065;60;000.578;MIDI 01
385.823;000.043;59;000.633;MIDI 01
385.842;000.043;49;000.578;MIDI 01
385.840;000.047;46;000.555;MIDI 01
385.848;000.050;39;000.539;MIDI 01
385.999;000.050;46;000.594;MIDI 01
385.994;000.061;49;000.594;MIDI 01
385.997;000.061;39;000.609;MIDI 01
386.145;000.055;58;000.570;MIDI 01
386.306;000.047;60;000.586;MIDI 01
386.328;000.036;49;000.562;MIDI 01
386.333;000.036;46;000.500;MIDI 01
386.335;000.043;39;000.508;MIDI 01
386.465;000.060;46;000.633;MIDI 01
386.469;000.059;39;000.617;MIDI 01
386.461;000.069;49;000.633;MIDI 01
386.624;000.043;61;000.594;MIDI 01
386.802;000.033;55;000.516;MIDI 01
386.805;000.048;49;000.469;MIDI 01
386.816;000.046;39;000.398;MIDI 01
386.818;000.046;46;000.398;MIDI 01
387.045;000.061;48;000.312;MIDI 01
387.035;000.148;56;000.391;MIDI 01
387.048;000.152;44;000.383;MIDI 01
387.240;000.113;42;000.328;MIDI 01
387.223;000.190;54;000.367;MIDI 01
387.420;000.069;43;000.297;MIDI 01
387.401;000.121;55;000.359;MIDI 01
387.574;000.126;48;000.391;MIDI 01
387.597;000.201;36;000.312;MIDI 01
387.740;000.101;51;000.391;MIDI 01
387.771;000.088;39;000.344;MIDI 01
387.896;000.034;55;000.438;MIDI 01
387.914;000.050;43;000.281;MIDI 01
388.058;000.219;60;000.492;MIDI 01
388.250;000.096;51;000.367;MIDI 01
388.232;000.116;63;000.453;MIDI 01
388.126;000.245;48;000.219;MIDI 01
388.375;000.033;55;000.398;MIDI 01
388.398;000.028;67;000.414;MIDI 01
388.589;000.320;79;000.445;MIDI 01
388.760;000.164;75;000.422;MIDI 01
388.773;000.171;63;000.375;MIDI 01
388.915;000.079;72;000.438;MIDI 01
388.948;000.058;67;000.383;MIDI 01
389.101;000.225;59;000.445;MIDI 01
389.087;000.268;79;000.539;MIDI 01
389.307;000.074;62;000.289;MIDI 01
389.278;000.126;74;000.406;MIDI 01
389.424;000.036;67;000.336;MIDI 01
389.446;000.027;71;000.414;MIDI 01
389.825;000.130;50;000.320;MIDI 01
389.670;000.288;47;000.328;MIDI 01
389.818;000.168;62;000.406;MIDI 01
389.627;000.367;67;000.414;MIDI 01
389.990;000.076;59;000.461;MIDI 01
389.994;000.085;55;000.398;MIDI 01
390.160;000.267;67;000.547;MIDI 01
390.180;000.255;46;000.383;MIDI 01
390.341;000.102;50;000.281;MIDI 01
390.347;000.144;62;000.453;MIDI 01
390.517;000.029;58;000.438;MIDI 01
390.536;000.045;55;000.281;MIDI 01
390.716;000.351;79;000.492;MIDI 01
390.875;000.230;62;000.375;MIDI 01
390.895;000.229;74;000.492;MIDI 01
391.034;000.092;67;000.445;MIDI 01
391.050;000.113;70;000.508;MIDI 01
390.693;000.505;58;000.250;MIDI 01
391.231;000.130;57;000.414;MIDI 01
391.406;000.091;60;000.266;MIDI 01
391.242;000.273;77;000.578;MIDI 01
391.425;000.141;72;000.391;MIDI 01
391.570;000.047;65;000.195;MIDI 01
391.616;000.043;69;000.250;MIDI 01
391.962;000.103;48;000.383;MIDI 01
391.775;000.293;45;000.398;MIDI 01
391.773;000.353;65;000.469;MIDI 01
391.958;000.206;60;000.430;MIDI 01
392.136;000.057;53;000.414;MIDI 01
392.126;000.086;57;000.484;MIDI 01
392.312;000.229;44;000.469;MIDI 01
392.302;000.270;65;000.562;MIDI 01
392.494;000.095;48;000.328;MIDI 01
392.496;000.124;60;000.445;MIDI 01
392.658;000.029;56;000.445;MIDI 01
392.674;000.041;53;000.273;MIDI 01
393.029;000.180;72;000.492;MIDI 01
392.826;000.389;56;000.414;MIDI 01
393.033;000.214;60;000.438;MIDI 01
393.192;000.073;65;000.422;MIDI 01
393.191;000.125;68;000.445;MIDI 01
392.849;000.499;77;000.586;MIDI 01
393.373;000.133;55;000.414;MIDI 01
393.566;000.052;60;000.336;MIDI 01
393.369;000.323;75;000.523;MIDI 01
393.558;000.142;72;000.461;MIDI 01
393.725;000.025;67;000.469;MIDI 01
393.880;000.029;63;000.742;MIDI 01
393.884;000.034;36;000.648;MIDI 01
393.890;000.032;48;000.586;MIDI 01
393.882;000.042;75;000.688;MIDI 01
393.898;000.033;47;000.547;MIDI 01
394.068;000.033;69;000.648;MIDI 01
394.079;000.033;41;000.539;MIDI 01
394.078;000.036;43;000.547;MIDI 01
394.231;000.030;67;000.633;MIDI 01
394.233;000.045;45;000.633;MIDI 01
394.394;000.029;62;000.711;MIDI 01
394.384;000.048;50;000.695;MIDI 01
394.386;000.056;38;000.680;MIDI 01
394.392;000.053;74;000.719;MIDI 01
394.568;000.041;70;000.648;MIDI 01
394.581;000.040;43;000.586;MIDI 01
394.726;000.058;67;000.719;MIDI 01
394.733;000.053;46;000.656;MIDI 01
394.895;000.034;62;000.695;MIDI 01
394.893;000.040;50;000.609;MIDI 01
394.897;000.058;74;000.688;MIDI 01
394.902;000.057;38;000.602;MIDI 01
395.065;000.055;69;000.711;MIDI 01
395.067;000.064;42;000.609;MIDI 01
395.236;000.051;66;000.664;MIDI 01
395.264;000.035;45;000.375;MIDI 01
395.273;000.044;43;000.359;MIDI 01
395.394;000.073;67;000.680;MIDI 01
395.407;000.104;31;000.602;MIDI 01
395.417;000.168;43;000.531;MIDI 01
395.590;000.155;39;000.539;MIDI 01
395.754;000.184;38;000.547;MIDI 01
395.954;000.072;36;000.555;MIDI 01
396.107;000.045;48;000.430;MIDI 01
396.123;000.049;39;000.445;MIDI 01
396.305;000.035;43;000.430;MIDI 01
396.256;000.091;51;000.461;MIDI 01
396.401;000.035;55;000.492;MIDI 01
396.467;000.061;48;000.586;MIDI 01
396.665;000.026;51;000.523;MIDI 01
396.557;000.211;60;000.508;MIDI 01
396.729;000.087;63;000.461;MIDI 01
396.804;000.033;55;000.438;MIDI 01
396.881;000.033;67;000.516;MIDI 01
396.959;000.077;60;000.578;MIDI 01
397.139;000.040;63;000.516;MIDI 01
397.303;000.036;67;000.570;MIDI 01
397.042;000.356;79;000.609;MIDI 01
397.192;000.229;75;000.445;MIDI 01
397.378;000.090;72;000.516;MIDI 01
397.468;000.058;59;000.656;MIDI 01
397.649;000.052;62;000.531;MIDI 01
397.804;000.026;67;000.477;MIDI 01
397.543;000.332;79;000.633;MIDI 01
397.734;000.148;74;000.414;MIDI 01
397.911;000.023;71;000.469;MIDI 01
397.980;000.056;47;000.656;MIDI 01
398.133;000.043;50;000.570;MIDI 01
398.334;000.057;55;000.555;MIDI 01
398.241;000.159;62;000.484;MIDI 01
398.085;000.333;67;000.578;MIDI 01
398.409;000.054;59;000.523;MIDI 01
398.499;000.078;46;000.633;MIDI 01
398.657;000.079;50;000.484;MIDI 01
398.565;000.272;67;000.617;MIDI 01
398.856;000.031;55;000.461;MIDI 01
398.759;000.148;62;000.422;MIDI 01
398.901;000.039;58;000.539;MIDI 01
399.000;000.051;58;000.656;MIDI 01
399.197;000.051;62;000.500;MIDI 01
399.358;000.044;67;000.555;MIDI 01
399.083;000.391;79;000.648;MIDI 01
399.264;000.223;74;000.500;MIDI 01
399.458;000.069;70;000.539;MIDI 01
399.526;000.055;57;000.664;MIDI 01
399.704;000.049;60;000.516;MIDI 01
399.866;000.025;65;000.500;MIDI 01
399.625;000.297;77;000.602;MIDI 01
399.779;000.164;72;000.469;MIDI 01
399.938;000.033;69;000.547;MIDI 01
400.029;000.069;45;000.680;MIDI 01
400.194;000.041;48;000.547;MIDI 01
400.375;000.074;53;000.539;MIDI 01
400.119;000.352;65;000.555;MIDI 01
400.272;000.207;60;000.445;MIDI 01
400.466;000.057;57;000.523;MIDI 01
400.549;000.095;44;000.656;MIDI 01
400.707;000.090;48;000.531;MIDI 01
400.626;000.264;65;000.617;MIDI 01
400.895;000.038;53;000.508;MIDI 01
400.805;000.155;60;000.438;MIDI 01
400.951;000.042;56;000.555;MIDI 01
401.107;000.003;56;000.117;MIDI 01
401.239;000.075;60;000.422;MIDI 01
401.401;000.050;65;000.484;MIDI 01
401.302;000.183;72;000.523;MIDI 01
401.139;000.401;77;000.625;MIDI 01
401.466;000.081;68;000.562;MIDI 01
401.553;000.064;55;000.633;MIDI 01
401.718;000.082;60;000.500;MIDI 01
401.882;000.029;63;000.438;MIDI 01
401.815;000.182;72;000.500;MIDI 01
401.634;000.369;75;000.625;MIDI 01
401.992;000.037;67;000.523;MIDI 01
402.077;000.051;48;000.711;MIDI 01
402.075;000.062;36;000.734;MIDI 01
402.158;000.102;63;000.648;MIDI 01
402.151;000.153;75;000.688;MIDI 01
402.267;000.056;43;000.680;MIDI 01
402.342;000.073;68;000.086;MIDI 01
402.449;000.049;45;000.633;MIDI 01
402.358;000.197;69;000.609;MIDI 01
402.532;000.092;67;000.539;MIDI 01
402.656;000.002;48;000.375;MIDI 01
402.614;000.049;50;000.695;MIDI 01
402.608;000.067;38;000.703;MIDI 01
402.712;000.052;62;000.672;MIDI 01
402.814;000.058;43;000.555;MIDI 01
402.718;000.240;74;000.695;MIDI 01
402.835;000.150;62;000.367;MIDI 01
402.985;000.052;46;000.617;MIDI 01
402.896;000.188;70;000.625;MIDI 01
403.044;000.098;67;000.586;MIDI 01
403.157;000.064;50;000.688;MIDI 01
403.163;000.062;38;000.648;MIDI 01
403.224;000.049;62;000.586;MIDI 01
403.216;000.216;74;000.672;MIDI 01
403.359;000.103;42;000.500;MIDI 01
403.443;000.048;62;000.094;MIDI 01
403.427;000.155;69;000.602;MIDI 01
403.549;000.050;45;000.195;MIDI 01
403.581;000.150;66;000.594;MIDI 01
403.710;000.066;31;000.562;MIDI 01
403.735;000.142;67;000.602;MIDI 01
403.707;000.226;43;000.594;MIDI 01
403.920;000.144;41;000.555;MIDI 01
404.105;000.079;40;000.531;MIDI 01
404.270;000.050;37;000.516;MIDI 01
404.445;000.041;41;000.367;MIDI 01
404.591;000.038;46;000.445;MIDI 01
404.475;000.192;53;000.422;MIDI 01
404.305;000.364;58;000.414;MIDI 01
404.647;000.075;49;000.492;MIDI 01
404.743;000.054;36;000.594;MIDI 01
404.883;000.056;40;000.484;MIDI 01
404.824;000.290;58;000.555;MIDI 01
405.012;000.117;52;000.453;MIDI 01
405.102;000.031;46;000.477;MIDI 01
405.171;000.034;48;000.531;MIDI 01
405.252;000.053;40;000.648;MIDI 01
405.425;000.039;43;000.547;MIDI 01
405.348;000.318;70;000.531;MIDI 01
405.614;000.059;48;000.555;MIDI 01
405.533;000.141;67;000.438;MIDI 01
405.678;000.078;60;000.469;MIDI 01
405.768;000.053;41;000.625;MIDI 01
405.936;000.043;44;000.539;MIDI 01
405.852;000.280;68;000.555;MIDI 01
406.044;000.121;65;000.430;MIDI 01
406.144;000.034;48;000.391;MIDI 01
406.190;000.028;60;000.445;MIDI 01
406.291;000.044;36;000.586;MIDI 01
406.476;000.045;39;000.453;MIDI 01
406.652;000.048;44;000.438;MIDI 01
406.364;000.352;56;000.578;MIDI 01
406.552;000.201;51;000.430;MIDI 01
406.715;000.076;48;000.469;MIDI 01
406.821;000.066;35;000.641;MIDI 01
407.003;000.062;38;000.523;MIDI 01
407.079;000.160;50;000.430;MIDI 01
407.224;000.042;43;000.336;MIDI 01
407.233;000.034;47;000.508;MIDI 01
406.901;000.369;55;000.609;MIDI 01
407.377;000.033;45;000.531;MIDI 01
407.373;000.059;47;000.508;MIDI 01
407.544;000.053;50;000.461;MIDI 01
407.728;000.055;55;000.562;MIDI 01
407.630;000.183;74;000.570;MIDI 01
407.812;000.058;67;000.562;MIDI 01
407.444;000.442;77;000.586;MIDI 01
407.893;000.044;48;000.664;MIDI 01
408.085;000.062;51;000.555;MIDI 01
408.250;000.031;55;000.508;MIDI 01
407.975;000.312;75;000.570;MIDI 01
408.186;000.136;72;000.500;MIDI 01
408.332;000.026;67;000.469;MIDI 01
408.447;000.064;36;000.633;MIDI 01
408.628;000.040;39;000.492;MIDI 01
408.538;000.165;48;000.523;MIDI 01
408.702;000.109;51;000.523;MIDI 01
408.782;000.036;43;000.508;MIDI 01
408.857;000.043;55;000.547;MIDI 01
408.962;000.078;48;000.602;MIDI 01
409.142;000.083;51;000.531;MIDI 01
409.017;000.220;60;000.609;MIDI 01
409.282;000.041;55;000.594;MIDI 01
409.196;000.144;63;000.531;MIDI 01
409.380;000.029;67;000.562;MIDI 01
409.480;000.073;60;000.641;MIDI 01
409.673;000.053;63;000.594;MIDI 01
409.553;000.358;80;000.602;MIDI 01
409.841;000.073;68;000.656;MIDI 01
409.736;000.179;75;000.531;MIDI 01
409.889;000.078;72;000.633;MIDI 01
410.030;000.077;59;000.648;MIDI 01
410.212;000.053;62;000.500;MIDI 01
410.071;000.311;80;000.648;MIDI 01
410.366;000.026;68;000.461;MIDI 01
410.297;000.137;74;000.500;MIDI 01
410.440;000.034;71;000.555;MIDI 01
410.540;000.086;47;000.703;MIDI 01
410.696;000.065;50;000.492;MIDI 01
410.609;000.274;68;000.516;MIDI 01
410.878;000.053;56;000.578;MIDI 01
410.794;000.186;62;000.484;MIDI 01
410.942;000.082;59;000.562;MIDI 01
411.041;000.098;46;000.672;MIDI 01
411.214;000.100;50;000.477;MIDI 01
411.110;000.264;67;000.656;MIDI 01
411.408;000.029;55;000.469;MIDI 01
411.285;000.184;62;000.531;MIDI 01
411.445;000.044;58;000.594;MIDI 01
411.560;000.046;58;000.570;MIDI 01
411.760;000.085;62;000.555;MIDI 01
411.926;000.066;67;000.641;MIDI 01
411.627;000.378;79;000.625;MIDI 01
411.790;000.255;74;000.547;MIDI 01
411.979;000.087;70;000.602;MIDI 01
412.103;000.070;57;000.703;MIDI 01
412.279;000.081;60;000.508;MIDI 01
412.438;000.036;67;000.539;MIDI 01
412.165;000.336;79;000.625;MIDI 01
412.344;000.185;72;000.523;MIDI 01
412.522;000.032;69;000.617;MIDI 01
412.610;000.082;45;000.719;MIDI 01
412.780;000.061;48;000.562;MIDI 01
412.697;000.296;67;000.617;MIDI 01
412.965;000.067;55;000.555;MIDI 01
412.848;000.191;60;000.523;MIDI 01
413.016;000.066;57;000.570;MIDI 01
413.133;000.151;44;000.695;MIDI 01
413.321;000.091;48;000.508;MIDI 01
413.189;000.273;65;000.664;MIDI 01
413.496;000.033;53;000.398;MIDI 01
413.379;000.156;60;000.406;MIDI 01
413.528;000.041;56;000.578;MIDI 01
413.631;000.081;56;000.664;MIDI 01
413.828;000.079;60;000.523;MIDI 01
413.989;000.075;65;000.570;MIDI 01
413.876;000.196;72;000.555;MIDI 01
413.702;000.419;77;000.664;MIDI 01
414.041;000.095;68;000.586;MIDI 01
414.147;000.098;55;000.672;MIDI 01
414.350;000.066;61;000.148;MIDI 01
414.359;000.079;60;000.500;MIDI 01
414.499;000.030;63;000.414;MIDI 01
414.220;000.324;75;000.648;MIDI 01
414.413;000.155;72;000.484;MIDI 01
414.566;000.040;67;000.531;MIDI 01
414.661;000.050;54;000.734;MIDI 01
414.666;000.057;42;000.734;MIDI 01
414.856;000.059;48;000.602;MIDI 01
414.727;000.366;72;000.680;MIDI 01
414.732;000.375;60;000.672;MIDI 01
414.941;000.183;69;000.578;MIDI 01
415.046;000.091;51;000.594;MIDI 01
415.089;000.076;63;000.609;MIDI 01
415.207;000.061;55;000.781;MIDI 01
415.211;000.089;43;000.703;MIDI 01
415.394;000.062;48;000.531;MIDI 01
415.266;000.283;72;000.664;MIDI 01
415.264;000.354;60;000.656;MIDI 01
415.474;000.194;67;000.578;MIDI 01
415.579;000.093;51;000.586;MIDI 01
415.633;000.068;63;000.594;MIDI 01
415.730;000.057;55;000.711;MIDI 01
415.739;000.104;43;000.664;MIDI 01
415.924;000.102;47;000.516;MIDI 01
416.074;000.036;50;000.555;MIDI 01
415.823;000.330;59;000.633;MIDI 01
415.825;000.347;71;000.664;MIDI 01
416.014;000.181;67;000.555;MIDI 01
416.154;000.055;62;000.609;MIDI 01
416.264;000.059;48;000.727;MIDI 01
416.266;000.082;36;000.664;MIDI 01
416.468;000.074;40;000.625;MIDI 01
416.319;000.394;60;000.719;MIDI 01
416.321;000.404;72;000.719;MIDI 01
416.647;000.080;43;000.609;MIDI 01
416.546;000.207;67;000.523;MIDI 01
416.711;000.068;64;000.594;MIDI 01
416.797;000.056;48;000.758;MIDI 01
416.804;000.056;36;000.719;MIDI 01
416.991;000.071;41;000.609;MIDI 01
416.880;000.359;60;000.695;MIDI 01
416.878;000.371;72;000.742;MIDI 01
417.169;000.090;44;000.555;MIDI 01
417.074;000.232;68;000.570;MIDI 01
417.215;000.101;65;000.555;MIDI 01
417.316;000.068;48;000.797;MIDI 01
417.329;000.058;36;000.680;MIDI 01
417.526;000.061;43;000.578;MIDI 01
417.410;000.323;72;000.711;MIDI 01
417.408;000.346;60;000.688;MIDI 01
417.719;000.060;46;000.539;MIDI 01
417.585;000.215;70;000.570;MIDI 01
417.728;000.104;67;000.578;MIDI 01
417.858;000.060;48;000.734;MIDI 01
417.869;000.064;36;000.680;MIDI 01
418.056;000.106;41;000.562;MIDI 01
418.175;000.035;44;000.555;MIDI 01
417.932;000.281;60;000.664;MIDI 01
417.928;000.388;72;000.734;MIDI 01
418.180;000.137;68;000.500;MIDI 01
418.294;000.028;65;000.562;MIDI 01
418.398;000.040;67;000.734;MIDI 01
418.404;000.050;55;000.734;MIDI 01
418.573;000.029;64;000.695;MIDI 01
418.578;000.045;52;000.672;MIDI 01
418.468;000.285;72;000.672;MIDI 01
418.753;000.028;60;000.555;MIDI 01
418.758;000.026;47;000.539;MIDI 01
418.765;000.027;48;000.508;MIDI 01
418.772;000.026;59;000.477;MIDI 01
418.659;000.161;76;000.609;MIDI 01
418.466;000.367;84;000.719;MIDI 01
418.790;000.076;79;000.648;MIDI 01
418.909;000.051;68;000.742;MIDI 01
418.914;000.058;56;000.719;MIDI 01
419.076;000.030;65;000.656;MIDI 01
419.084;000.039;53;000.617;MIDI 01
418.990;000.265;72;000.633;MIDI 01
419.262;000.025;60;000.500;MIDI 01
419.259;000.033;48;000.539;MIDI 01
419.288;000.038;47;000.352;MIDI 01
418.978;000.355;84;000.719;MIDI 01
419.185;000.161;77;000.547;MIDI 01
419.312;000.069;80;000.664;MIDI 01
419.420;000.051;70;000.797;MIDI 01
419.425;000.053;58;000.727;MIDI 01
419.583;000.029;67;000.625;MIDI 01
419.594;000.040;55;000.625;MIDI 01
419.773;000.030;60;000.453;MIDI 01
419.498;000.322;72;000.625;MIDI 01
419.680;000.161;79;000.570;MIDI 01
419.486;000.357;84;000.672;MIDI 01
419.827;000.061;82;000.641;MIDI 01
420.021;000.002;66;000.352;MIDI 01
420.001;000.023;55;000.594;MIDI 01
419.976;000.051;68;000.758;MIDI 01
419.996;000.035;56;000.523;MIDI 01
420.171;000.028;65;000.617;MIDI 01
420.173;000.029;67;000.578;MIDI 01
420.150;000.066;55;000.484;MIDI 01
420.012;000.368;72;000.695;MIDI 01
420.348;000.036;60;000.633;MIDI 01
420.350;000.038;48;000.656;MIDI 01
420.373;000.025;59;000.523;MIDI 01
420.191;000.208;77;000.531;MIDI 01
420.015;000.387;84;000.711;MIDI 01
420.375;000.064;80;000.617;MIDI 01
420.543;000.057;48;000.680;MIDI 01
420.545;000.058;60;000.711;MIDI 01
420.607;000.058;50;000.125;MIDI 01
420.740;000.060;67;000.719;MIDI 01
420.617;000.199;72;000.617;MIDI 01
420.615;000.280;84;000.664;MIDI 01
420.916;000.059;64;000.656;MIDI 01
420.851;000.182;79;000.617;MIDI 01
421.006;000.111;76;000.641;MIDI 01
421.079;000.052;60;000.586;MIDI 01
421.100;000.038;62;000.406;MIDI 01
421.155;000.084;72;000.641;MIDI 01
421.234;000.070;55;000.680;MIDI 01
421.390;000.059;52;000.648;MIDI 01
421.307;000.204;67;000.672;MIDI 01
421.488;000.125;64;000.602;MIDI 01
421.564;000.065;48;000.617;MIDI 01
421.652;000.110;60;000.594;MIDI 01
421.754;000.048;43;000.680;MIDI 01
421.932;000.068;40;000.680;MIDI 01
421.810;000.215;55;000.602;MIDI 01
422.119;000.060;36;000.664;MIDI 01
422.008;000.198;52;000.586;MIDI 01
422.316;000.069;43;000.672;MIDI 01
422.198;000.189;48;000.664;MIDI 01
422.523;000.047;40;000.711;MIDI 01
422.421;000.248;55;000.672;MIDI 01
422.650;000.182;52;000.688;MIDI 01
423.315;004.827;48;000.734;MIDI 01
422.830;005.514;36;000.727;MIDI 01
