Start;Duration;Pitch;Velocity;Instrument
002.189;000.621;69;000.188;MIDI 01
002.156;000.672;77;000.297;MIDI 01
002.150;000.689;81;000.375;MIDI 01
002.178;000.729;45;000.141;MIDI 01
002.175;000.895;50;000.172;MIDI 01
002.181;000.902;38;000.180;MIDI 01
003.458;000.069;46;000.344;MIDI 01
003.448;000.117;70;000.367;MIDI 01
003.474;000.106;82;000.312;MIDI 01
003.476;000.208;79;000.328;MIDI 01
003.756;000.585;81;000.359;MIDI 01
003.765;000.601;69;000.336;MIDI 01
003.782;000.698;38;000.156;MIDI 01
003.741;000.742;77;000.289;MIDI 01
003.784;000.763;45;000.211;MIDI 01
003.749;000.800;50;000.258;MIDI 01
005.308;000.272;74;000.289;MIDI 01
005.334;000.275;65;000.227;MIDI 01
005.328;000.332;41;000.227;MIDI 01
005.343;000.332;38;000.148;MIDI 01
005.348;000.334;50;000.172;MIDI 01
005.294;000.567;77;000.352;MIDI 01
005.884;000.256;67;000.422;MIDI 01
005.925;000.328;38;000.180;MIDI 01
005.907;000.371;50;000.250;MIDI 01
005.935;000.370;43;000.258;MIDI 01
005.885;000.615;76;000.422;MIDI 01
005.882;000.702;79;000.492;MIDI 01
006.539;000.568;81;000.383;MIDI 01
006.567;000.577;50;000.305;MIDI 01
006.549;000.626;69;000.305;MIDI 01
006.532;000.688;77;000.383;MIDI 01
006.556;000.869;38;000.328;MIDI 01
006.552;001.560;45;000.359;MIDI 01
008.118;000.444;50;000.250;MIDI 01
008.106;000.580;41;000.266;MIDI 01
008.110;000.619;62;000.281;MIDI 01
008.113;000.682;65;000.305;MIDI 01
008.108;000.739;38;000.289;MIDI 01
008.099;001.845;74;000.344;MIDI 01
009.835;001.201;76;000.391;MIDI 01
009.860;001.195;64;000.266;MIDI 01
009.852;001.386;69;000.328;MIDI 01
009.887;001.354;33;000.195;MIDI 01
009.892;001.417;45;000.148;MIDI 01
011.903;000.175;33;000.148;MIDI 01
011.864;000.217;45;000.086;MIDI 01
011.877;000.332;57;000.211;MIDI 01
011.849;000.365;69;000.250;MIDI 01
009.877;002.798;40;000.141;MIDI 01
012.519;000.178;45;000.086;MIDI 01
012.530;000.184;33;000.141;MIDI 01
012.535;000.285;57;000.219;MIDI 01
012.524;000.514;69;000.281;MIDI 01
013.860;001.348;64;000.328;MIDI 01
013.846;001.412;76;000.461;MIDI 01
013.873;001.449;52;000.273;MIDI 01
015.183;000.204;57;000.219;MIDI 01
015.177;000.410;45;000.258;MIDI 01
015.160;000.516;69;000.359;MIDI 01
016.751;001.801;52;000.211;MIDI 01
016.716;001.894;64;000.297;MIDI 01
016.756;001.869;40;000.172;MIDI 01
018.472;000.747;45;000.141;MIDI 01
018.470;001.061;33;000.195;MIDI 01
018.436;001.172;57;000.211;MIDI 01
020.629;000.550;45;000.117;MIDI 01
020.617;000.651;69;000.273;MIDI 01
020.640;000.669;38;000.141;MIDI 01
020.635;000.697;50;000.109;MIDI 01
020.609;000.740;81;000.336;MIDI 01
020.601;000.866;77;000.328;MIDI 01
021.786;000.055;46;000.297;MIDI 01
021.789;000.076;70;000.320;MIDI 01
021.769;000.113;82;000.344;MIDI 01
021.791;000.185;79;000.320;MIDI 01
022.057;000.528;81;000.422;MIDI 01
022.060;000.547;69;000.383;MIDI 01
022.055;000.632;77;000.344;MIDI 01
022.064;000.722;45;000.281;MIDI 01
022.070;000.742;50;000.211;MIDI 01
022.053;000.834;38;000.195;MIDI 01
023.432;000.250;74;000.344;MIDI 01
023.440;000.267;65;000.305;MIDI 01
023.461;000.266;50;000.164;MIDI 01
023.466;000.286;41;000.219;MIDI 01
023.451;000.303;38;000.188;MIDI 01
023.410;000.557;77;000.414;MIDI 01
024.000;000.305;67;000.398;MIDI 01
024.019;000.303;38;000.203;MIDI 01
024.017;000.322;50;000.164;MIDI 01
024.028;000.354;43;000.266;MIDI 01
023.980;000.696;76;000.453;MIDI 01
023.990;000.764;79;000.492;MIDI 01
024.711;000.524;38;000.211;MIDI 01
024.659;000.688;81;000.477;MIDI 01
024.686;000.692;69;000.344;MIDI 01
024.689;000.760;77;000.414;MIDI 01
024.720;000.867;50;000.227;MIDI 01
024.709;001.929;45;000.273;MIDI 01
026.637;000.562;62;000.281;MIDI 01
026.629;000.636;70;000.305;MIDI 01
026.609;000.702;74;000.359;MIDI 01
026.625;000.691;50;000.156;MIDI 01
026.652;000.868;46;000.219;MIDI 01
026.643;000.902;43;000.211;MIDI 01
027.875;000.068;51;000.336;MIDI 01
027.868;000.101;63;000.336;MIDI 01
027.856;000.129;75;000.367;MIDI 01
027.890;000.176;72;000.297;MIDI 01
028.174;000.572;74;000.352;MIDI 01
028.183;000.642;50;000.266;MIDI 01
028.196;000.630;62;000.289;MIDI 01
028.223;000.695;46;000.180;MIDI 01
028.198;000.795;70;000.273;MIDI 01
028.233;000.768;43;000.133;MIDI 01
029.628;000.250;58;000.320;MIDI 01
029.667;000.284;43;000.133;MIDI 01
029.656;000.332;46;000.250;MIDI 01
029.636;000.500;67;000.328;MIDI 01
029.623;000.551;70;000.398;MIDI 01
030.260;000.189;45;000.125;MIDI 01
030.227;000.264;48;000.289;MIDI 01
030.203;000.304;72;000.438;MIDI 01
030.220;000.296;60;000.336;MIDI 01
030.231;000.289;43;000.172;MIDI 01
030.205;000.384;69;000.391;MIDI 01
030.946;000.521;50;000.203;MIDI 01
030.909;000.572;74;000.414;MIDI 01
030.922;000.596;62;000.305;MIDI 01
030.929;000.629;70;000.344;MIDI 01
030.948;000.698;43;000.102;MIDI 01
030.957;000.732;46;000.203;MIDI 01
032.536;001.527;67;000.539;MIDI 01
032.549;002.740;51;000.430;MIDI 01
032.547;003.841;55;000.445;MIDI 01
033.833;002.750;61;000.453;MIDI 01
035.055;001.819;46;000.336;MIDI 01
032.561;005.053;39;000.352;MIDI 01
037.547;000.773;49;000.320;MIDI 01
037.521;001.300;61;000.477;MIDI 01
037.552;002.562;46;000.297;MIDI 01
038.757;003.500;62;000.375;MIDI 01
038.780;003.625;50;000.242;MIDI 01
039.998;002.424;41;000.242;MIDI 01
037.550;004.883;34;000.297;MIDI 01
042.171;000.875;56;000.312;MIDI 01
043.771;003.336;49;000.289;MIDI 01
043.779;003.374;45;000.172;MIDI 01
043.727;003.428;57;000.273;MIDI 01
043.767;003.403;33;000.211;MIDI 01
048.392;000.300;34;000.047;MIDI 01
048.364;000.347;65;000.242;MIDI 01
048.390;000.337;46;000.109;MIDI 01
048.374;000.384;70;000.234;MIDI 01
048.321;000.818;74;000.391;MIDI 01
049.173;000.255;69;000.328;MIDI 01
049.167;000.318;63;000.367;MIDI 01
049.184;000.333;48;000.289;MIDI 01
049.199;000.370;36;000.258;MIDI 01
049.157;000.564;72;000.461;MIDI 01
049.860;000.071;50;000.297;MIDI 01
049.871;000.097;62;000.352;MIDI 01
049.880;000.154;65;000.328;MIDI 01
049.843;000.199;70;000.453;MIDI 01
049.867;000.255;38;000.305;MIDI 01
050.186;000.098;36;000.367;MIDI 01
050.179;000.128;48;000.383;MIDI 01
050.152;000.170;63;000.445;MIDI 01
050.163;000.165;69;000.438;MIDI 01
050.147;000.350;72;000.516;MIDI 01
050.530;000.302;60;000.445;MIDI 01
050.541;000.321;66;000.406;MIDI 01
050.556;000.307;38;000.242;MIDI 01
050.543;000.358;50;000.336;MIDI 01
050.505;000.753;69;000.516;MIDI 01
051.273;000.195;55;000.375;MIDI 01
051.281;000.189;58;000.359;MIDI 01
051.258;000.312;67;000.500;MIDI 01
051.290;000.341;43;000.312;MIDI 01
052.124;000.258;65;000.398;MIDI 01
052.132;000.294;34;000.375;MIDI 01
052.116;000.323;70;000.430;MIDI 01
052.130;000.326;46;000.375;MIDI 01
052.097;000.744;74;000.539;MIDI 01
052.823;000.327;69;000.477;MIDI 01
052.821;000.331;63;000.453;MIDI 01
052.826;000.469;48;000.438;MIDI 01
052.817;000.926;72;000.539;MIDI 01
052.824;000.951;36;000.445;MIDI 01
053.733;000.706;50;000.406;MIDI 01
053.724;000.897;60;000.352;MIDI 01
053.728;001.018;66;000.398;MIDI 01
053.742;001.676;38;000.398;MIDI 01
053.715;001.722;69;000.477;MIDI 01
055.336;000.279;67;000.391;MIDI 01
055.339;000.305;58;000.352;MIDI 01
055.357;000.321;43;000.258;MIDI 01
055.354;000.332;31;000.281;MIDI 01
056.000;000.545;58;000.289;MIDI 01
056.022;000.540;43;000.234;MIDI 01
055.992;000.589;67;000.359;MIDI 01
056.017;000.747;31;000.266;MIDI 01
057.344;000.419;27;000.453;MIDI 01
057.354;000.409;63;000.422;MIDI 01
057.350;000.438;39;000.438;MIDI 01
057.356;000.451;58;000.383;MIDI 01
057.333;000.787;67;000.531;MIDI 01
058.127;000.261;62;000.461;MIDI 01
058.129;000.278;56;000.461;MIDI 01
058.149;000.331;41;000.383;MIDI 01
058.151;000.486;29;000.359;MIDI 01
058.118;000.609;65;000.531;MIDI 01
058.795;000.101;43;000.375;MIDI 01
058.792;000.106;55;000.422;MIDI 01
058.780;000.202;63;000.477;MIDI 01
058.804;000.184;58;000.406;MIDI 01
058.806;000.245;31;000.297;MIDI 01
059.102;000.123;62;000.453;MIDI 01
059.084;000.175;56;000.531;MIDI 01
059.124;000.167;29;000.383;MIDI 01
059.121;000.205;41;000.398;MIDI 01
059.082;000.346;65;000.531;MIDI 01
059.486;000.289;31;000.406;MIDI 01
059.462;000.356;59;000.477;MIDI 01
059.495;000.335;43;000.398;MIDI 01
059.470;000.365;53;000.438;MIDI 01
059.453;000.774;62;000.547;MIDI 01
060.202;000.188;51;000.453;MIDI 01
060.210;000.212;48;000.477;MIDI 01
060.193;000.258;60;000.523;MIDI 01
060.214;000.299;36;000.430;MIDI 01
060.957;000.272;63;000.508;MIDI 01
060.954;000.333;27;000.469;MIDI 01
060.969;000.335;58;000.469;MIDI 01
060.948;000.386;39;000.523;MIDI 01
060.950;000.794;67;000.586;MIDI 01
061.763;000.281;56;000.508;MIDI 01
061.759;000.361;29;000.469;MIDI 01
061.760;000.363;62;000.508;MIDI 01
061.765;000.428;41;000.484;MIDI 01
061.752;001.249;65;000.586;MIDI 01
062.831;000.551;31;000.328;MIDI 01
062.818;000.691;43;000.352;MIDI 01
062.816;000.954;62;000.508;MIDI 01
062.811;001.680;58;000.492;MIDI 01
062.798;001.773;70;000.617;MIDI 01
064.089;001.197;45;000.320;MIDI 01
064.800;000.509;57;000.359;MIDI 01
064.086;001.254;33;000.320;MIDI 01
064.789;000.568;69;000.453;MIDI 01
064.034;002.052;61;000.516;MIDI 01
066.007;002.493;45;000.258;MIDI 01
066.019;002.511;57;000.266;MIDI 01
066.020;002.567;33;000.227;MIDI 01
065.998;002.769;69;000.352;MIDI 01
066.006;002.798;64;000.328;MIDI 01
070.367;000.130;45;000.078;MIDI 01
070.339;000.642;69;000.258;MIDI 01
070.312;000.708;81;000.336;MIDI 01
070.359;000.706;50;000.148;MIDI 01
070.355;000.719;38;000.180;MIDI 01
070.327;000.869;77;000.289;MIDI 01
071.542;000.070;46;000.297;MIDI 01
071.521;000.101;70;000.422;MIDI 01
071.533;000.104;82;000.359;MIDI 01
071.526;000.142;79;000.398;MIDI 01
071.856;000.562;69;000.297;MIDI 01
071.839;000.586;81;000.367;MIDI 01
071.855;000.686;50;000.047;MIDI 01
071.843;000.718;77;000.336;MIDI 01
071.861;000.713;45;000.180;MIDI 01
071.841;000.753;38;000.141;MIDI 01
073.251;000.240;74;000.367;MIDI 01
073.260;000.243;65;000.297;MIDI 01
073.276;000.267;41;000.203;MIDI 01
073.279;000.273;50;000.203;MIDI 01
073.286;000.270;38;000.125;MIDI 01
073.243;000.572;77;000.391;MIDI 01
073.815;000.303;67;000.367;MIDI 01
073.856;000.315;38;000.109;MIDI 01
073.844;000.344;50;000.219;MIDI 01
073.839;000.384;43;000.297;MIDI 01
073.810;000.773;76;000.414;MIDI 01
073.812;000.874;79;000.461;MIDI 01
074.508;000.747;81;000.438;MIDI 01
074.553;000.703;45;000.211;MIDI 01
074.568;000.781;50;000.188;MIDI 01
074.550;000.818;38;000.180;MIDI 01
074.537;000.833;69;000.320;MIDI 01
074.521;000.923;77;000.406;MIDI 01
076.047;000.402;38;000.227;MIDI 01
076.060;000.433;50;000.188;MIDI 01
076.044;000.560;62;000.266;MIDI 01
076.059;000.573;41;000.227;MIDI 01
076.037;000.677;65;000.344;MIDI 01
076.006;001.873;74;000.352;MIDI 01
077.791;001.333;76;000.414;MIDI 01
077.818;001.459;64;000.266;MIDI 01
077.854;001.459;33;000.195;MIDI 01
077.823;001.583;69;000.328;MIDI 01
077.840;001.580;45;000.203;MIDI 01
080.027;000.178;33;000.172;MIDI 01
080.032;000.191;45;000.180;MIDI 01
080.008;000.395;69;000.250;MIDI 01
080.011;000.399;57;000.242;MIDI 01
080.699;000.167;33;000.141;MIDI 01
080.701;000.180;45;000.141;MIDI 01
077.856;003.035;40;000.188;MIDI 01
080.718;000.375;57;000.227;MIDI 01
080.716;000.600;69;000.242;MIDI 01
082.246;001.292;64;000.281;MIDI 01
082.232;001.352;76;000.375;MIDI 01
083.508;000.091;45;000.195;MIDI 01
082.272;001.401;52;000.203;MIDI 01
083.493;000.217;57;000.211;MIDI 01
083.491;000.367;69;000.281;MIDI 01
084.917;001.810;52;000.266;MIDI 01
084.932;001.827;40;000.156;MIDI 01
084.903;001.895;64;000.297;MIDI 01
086.598;000.620;57;000.164;MIDI 01
086.617;000.609;33;000.164;MIDI 01
088.701;000.504;45;000.070;MIDI 01
088.679;000.591;69;000.289;MIDI 01
088.657;000.680;81;000.391;MIDI 01
088.693;000.688;38;000.141;MIDI 01
088.670;000.761;77;000.305;MIDI 01
088.714;000.743;50;000.055;MIDI 01
089.749;000.073;46;000.289;MIDI 01
089.753;000.075;70;000.328;MIDI 01
089.739;000.126;82;000.352;MIDI 01
089.751;000.185;79;000.383;MIDI 01
090.044;000.506;81;000.445;MIDI 01
090.051;000.529;69;000.352;MIDI 01
090.048;000.572;77;000.336;MIDI 01
090.056;000.622;50;000.195;MIDI 01
090.068;000.638;45;000.195;MIDI 01
090.076;000.685;38;000.156;MIDI 01
091.400;000.231;65;000.305;MIDI 01
091.395;000.243;74;000.320;MIDI 01
091.410;000.263;41;000.250;MIDI 01
091.420;000.276;50;000.164;MIDI 01
091.417;000.287;38;000.180;MIDI 01
091.368;000.574;77;000.406;MIDI 01
091.956;000.275;38;000.180;MIDI 01
091.966;000.270;67;000.367;MIDI 01
091.972;000.315;50;000.219;MIDI 01
091.987;000.323;43;000.273;MIDI 01
091.959;000.645;76;000.414;MIDI 01
091.948;000.727;79;000.500;MIDI 01
092.633;000.293;38;000.211;MIDI 01
092.588;000.559;69;000.352;MIDI 01
092.583;000.599;81;000.469;MIDI 01
092.595;000.657;77;000.406;MIDI 01
092.631;000.729;50;000.258;MIDI 01
092.635;001.268;45;000.250;MIDI 01
094.407;000.576;62;000.320;MIDI 01
094.431;000.667;50;000.195;MIDI 01
094.409;000.705;70;000.328;MIDI 01
094.394;000.733;74;000.352;MIDI 01
094.440;000.771;43;000.125;MIDI 01
094.442;000.780;46;000.195;MIDI 01
095.605;000.082;51;000.352;MIDI 01
095.624;000.091;63;000.273;MIDI 01
095.608;000.111;75;000.352;MIDI 01
095.645;000.143;72;000.227;MIDI 01
095.931;000.579;74;000.336;MIDI 01
095.943;000.614;62;000.289;MIDI 01
095.956;000.680;50;000.227;MIDI 01
095.972;000.710;46;000.156;MIDI 01
095.929;000.809;70;000.258;MIDI 01
095.969;000.804;43;000.164;MIDI 01
097.367;000.240;58;000.305;MIDI 01
097.376;000.255;43;000.227;MIDI 01
097.378;000.306;46;000.258;MIDI 01
097.352;000.486;70;000.367;MIDI 01
097.358;000.507;67;000.344;MIDI 01
097.947;000.251;48;000.250;MIDI 01
097.930;000.300;72;000.430;MIDI 01
097.934;000.324;60;000.383;MIDI 01
097.970;000.296;43;000.133;MIDI 01
097.964;000.330;45;000.195;MIDI 01
097.927;000.401;69;000.336;MIDI 01
098.578;000.432;50;000.289;MIDI 01
098.547;000.494;74;000.500;MIDI 01
098.559;000.482;62;000.375;MIDI 01
098.562;000.554;70;000.406;MIDI 01
098.588;000.536;43;000.234;MIDI 01
098.597;000.568;46;000.266;MIDI 01
100.115;001.629;67;000.539;MIDI 01
100.131;002.706;51;000.398;MIDI 01
100.122;003.833;55;000.422;MIDI 01
101.449;002.621;61;000.445;MIDI 01
102.706;001.550;46;000.312;MIDI 01
100.134;005.050;39;000.328;MIDI 01
105.167;000.546;49;000.258;MIDI 01
105.147;001.221;61;000.352;MIDI 01
105.178;002.419;46;000.172;MIDI 01
106.295;003.216;62;000.297;MIDI 01
106.327;003.339;50;000.273;MIDI 01
109.499;000.322;58;000.281;MIDI 01
107.419;002.471;41;000.195;MIDI 01
105.182;006.106;34;000.195;MIDI 01
111.167;002.984;29;000.172;MIDI 01
111.160;003.107;45;000.195;MIDI 01
111.169;003.255;48;000.219;MIDI 01
111.143;003.320;53;000.281;MIDI 01
116.036;000.393;62;000.266;MIDI 01
116.050;000.391;65;000.211;MIDI 01
116.040;000.460;70;000.289;MIDI 01
116.907;000.055;60;000.289;MIDI 01
116.917;000.158;69;000.344;MIDI 01
116.902;000.212;63;000.328;MIDI 01
116.966;000.193;60;000.047;MIDI 01
116.894;000.335;72;000.359;MIDI 01
117.573;000.083;58;000.352;MIDI 01
117.562;000.118;65;000.336;MIDI 01
117.560;000.181;74;000.438;MIDI 01
116.058;001.693;46;000.234;MIDI 01
117.557;000.206;70;000.391;MIDI 01
117.891;000.098;69;000.367;MIDI 01
117.876;000.125;63;000.453;MIDI 01
117.874;000.143;60;000.359;MIDI 01
117.855;000.229;72;000.500;MIDI 01
118.206;000.237;65;000.383;MIDI 01
118.197;000.296;74;000.438;MIDI 01
118.202;000.310;70;000.352;MIDI 01
118.220;000.832;58;000.320;MIDI 01
118.856;000.216;67;000.375;MIDI 01
118.868;000.267;70;000.414;MIDI 01
118.842;000.734;79;000.523;MIDI 01
118.873;000.752;51;000.336;MIDI 01
119.554;000.384;62;000.383;MIDI 01
119.550;000.414;67;000.383;MIDI 01
119.541;000.699;70;000.445;MIDI 01
119.576;000.689;55;000.305;MIDI 01
120.237;000.456;67;000.438;MIDI 01
120.228;000.847;60;000.367;MIDI 01
120.233;000.888;72;000.492;MIDI 01
120.263;000.915;51;000.383;MIDI 01
121.134;000.660;66;000.359;MIDI 01
121.156;000.751;57;000.273;MIDI 01
121.117;001.269;74;000.453;MIDI 01
121.167;001.543;50;000.242;MIDI 01
122.630;000.203;67;000.312;MIDI 01
122.644;000.202;62;000.336;MIDI 01
122.666;000.216;58;000.195;MIDI 01
122.693;000.232;55;000.086;MIDI 01
123.205;000.409;62;000.273;MIDI 01
123.207;000.451;67;000.312;MIDI 01
123.211;000.505;58;000.273;MIDI 01
123.219;000.735;55;000.250;MIDI 01
124.497;000.355;58;000.289;MIDI 01
124.472;000.720;63;000.375;MIDI 01
124.507;000.693;55;000.219;MIDI 01
125.176;000.300;56;000.414;MIDI 01
125.197;000.517;62;000.352;MIDI 01
125.216;000.509;53;000.320;MIDI 01
125.169;000.636;65;000.438;MIDI 01
125.791;000.135;58;000.414;MIDI 01
125.780;000.268;67;000.500;MIDI 01
125.789;000.277;63;000.391;MIDI 01
125.812;000.294;51;000.352;MIDI 01
126.080;000.157;56;000.438;MIDI 01
126.066;000.249;62;000.492;MIDI 01
126.058;000.259;65;000.492;MIDI 01
126.070;000.289;53;000.359;MIDI 01
126.446;000.173;58;000.352;MIDI 01
126.412;000.282;67;000.500;MIDI 01
126.402;000.301;63;000.461;MIDI 01
126.438;000.632;51;000.367;MIDI 01
127.049;000.062;60;000.430;MIDI 01
127.042;000.194;72;000.531;MIDI 01
127.116;000.153;60;000.062;MIDI 01
127.058;000.269;63;000.438;MIDI 01
127.060;000.876;44;000.422;MIDI 01
127.881;000.332;60;000.422;MIDI 01
127.877;000.620;55;000.414;MIDI 01
127.873;000.780;63;000.469;MIDI 01
127.906;000.758;48;000.375;MIDI 01
128.664;000.374;58;000.469;MIDI 01
128.653;000.447;62;000.453;MIDI 01
128.644;001.084;65;000.547;MIDI 01
128.678;001.101;46;000.375;MIDI 01
129.708;001.369;58;000.508;MIDI 01
129.710;001.444;62;000.469;MIDI 01
129.726;001.557;50;000.344;MIDI 01
129.728;001.981;43;000.352;MIDI 01
129.694;002.102;67;000.539;MIDI 01
131.683;000.468;69;000.602;MIDI 01
131.709;000.483;45;000.359;MIDI 01
131.728;000.467;38;000.289;MIDI 01
131.697;000.507;57;000.445;MIDI 01
131.699;000.508;62;000.453;MIDI 01
131.721;000.519;50;000.297;MIDI 01
132.853;002.714;50;000.344;MIDI 01
132.864;002.869;45;000.383;MIDI 01
132.839;002.936;57;000.453;MIDI 01
132.851;002.943;38;000.336;MIDI 01
132.825;003.150;69;000.594;MIDI 01
132.823;003.159;62;000.438;MIDI 01
138.064;000.133;66;000.234;MIDI 01
138.051;000.148;74;000.297;MIDI 01
138.043;000.188;78;000.305;MIDI 01
138.374;000.045;66;000.234;MIDI 01
138.363;000.059;78;000.328;MIDI 01
138.383;000.041;74;000.312;MIDI 01
138.567;000.050;66;000.320;MIDI 01
138.574;000.047;74;000.375;MIDI 01
138.572;000.061;78;000.375;MIDI 01
138.086;000.709;50;000.109;MIDI 01
138.784;000.086;78;000.414;MIDI 01
138.795;000.099;74;000.312;MIDI 01
138.793;000.125;66;000.297;MIDI 01
138.792;000.670;52;000.328;MIDI 01
139.431;000.059;45;000.172;MIDI 01
139.433;000.064;38;000.273;MIDI 01
139.651;000.052;45;000.359;MIDI 01
139.649;000.058;38;000.406;MIDI 01
139.451;000.310;54;000.258;MIDI 01
139.856;000.066;38;000.391;MIDI 01
139.860;000.069;45;000.367;MIDI 01
139.760;000.333;52;000.336;MIDI 01
140.120;000.107;38;000.266;MIDI 01
140.123;000.154;45;000.336;MIDI 01
138.089;002.368;57;000.156;MIDI 01
140.126;000.486;54;000.352;MIDI 01
140.807;000.044;66;000.234;MIDI 01
140.792;000.061;74;000.367;MIDI 01
140.770;000.085;78;000.391;MIDI 01
140.779;000.257;50;000.391;MIDI 01
140.982;000.060;66;000.438;MIDI 01
140.993;000.065;74;000.438;MIDI 01
141.000;000.059;78;000.453;MIDI 01
140.768;000.424;62;000.469;MIDI 01
141.182;000.066;66;000.445;MIDI 01
141.194;000.056;74;000.477;MIDI 01
141.180;000.082;78;000.477;MIDI 01
141.394;000.111;66;000.430;MIDI 01
141.414;000.104;78;000.477;MIDI 01
141.395;000.125;74;000.398;MIDI 01
141.397;000.214;64;000.516;MIDI 01
141.402;000.226;52;000.469;MIDI 01
142.098;000.051;45;000.398;MIDI 01
142.104;000.056;38;000.391;MIDI 01
142.071;000.094;66;000.445;MIDI 01
142.100;000.197;54;000.383;MIDI 01
142.293;000.060;45;000.469;MIDI 01
142.302;000.056;38;000.430;MIDI 01
142.373;000.099;64;000.477;MIDI 01
142.391;000.143;52;000.438;MIDI 01
142.520;000.053;45;000.445;MIDI 01
142.518;000.061;38;000.414;MIDI 01
142.723;000.050;38;000.453;MIDI 01
142.714;000.070;45;000.461;MIDI 01
142.701;000.114;66;000.469;MIDI 01
140.774;002.134;57;000.336;MIDI 01
142.723;000.225;54;000.438;MIDI 01
143.414;000.087;66;000.445;MIDI 01
143.433;000.099;74;000.438;MIDI 01
143.416;000.126;78;000.523;MIDI 01
143.634;000.054;67;000.508;MIDI 01
143.647;000.054;76;000.398;MIDI 01
143.629;000.076;79;000.586;MIDI 01
143.418;000.426;45;000.492;MIDI 01
143.824;000.050;78;000.531;MIDI 01
143.818;000.061;81;000.617;MIDI 01
143.834;000.057;69;000.523;MIDI 01
144.056;000.169;76;000.578;MIDI 01
144.067;000.195;64;000.477;MIDI 01
144.062;000.206;69;000.445;MIDI 01
144.069;000.631;47;000.414;MIDI 01
144.736;000.058;40;000.438;MIDI 01
144.734;000.066;33;000.438;MIDI 01
144.939;000.061;33;000.445;MIDI 01
144.941;000.059;40;000.477;MIDI 01
144.744;000.260;49;000.422;MIDI 01
145.132;000.066;33;000.500;MIDI 01
145.134;000.069;40;000.523;MIDI 01
145.024;000.298;47;000.516;MIDI 01
145.346;000.083;33;000.484;MIDI 01
145.349;000.097;40;000.500;MIDI 01
145.338;000.366;49;000.477;MIDI 01
143.410;002.389;57;000.477;MIDI 01
146.031;000.047;66;000.477;MIDI 01
146.034;000.107;74;000.523;MIDI 01
146.031;000.122;78;000.547;MIDI 01
146.234;000.047;67;000.516;MIDI 01
146.242;000.050;76;000.477;MIDI 01
146.230;000.071;79;000.586;MIDI 01
146.015;000.328;45;000.562;MIDI 01
146.008;000.367;50;000.500;MIDI 01
146.405;000.043;81;000.633;MIDI 01
146.012;000.438;57;000.539;MIDI 01
146.415;000.039;78;000.516;MIDI 01
146.428;000.035;69;000.461;MIDI 01
146.641;000.106;64;000.500;MIDI 01
146.633;000.121;76;000.570;MIDI 01
146.636;000.164;69;000.383;MIDI 01
146.624;000.254;59;000.648;MIDI 01
146.629;000.273;47;000.570;MIDI 01
147.292;000.060;33;000.500;MIDI 01
147.283;000.069;40;000.461;MIDI 01
147.266;000.115;61;000.609;MIDI 01
147.293;000.175;49;000.523;MIDI 01
147.491;000.048;40;000.523;MIDI 01
147.484;000.057;33;000.508;MIDI 01
147.565;000.134;59;000.562;MIDI 01
147.676;000.060;33;000.516;MIDI 01
147.569;000.170;47;000.492;MIDI 01
147.673;000.070;40;000.508;MIDI 01
147.878;000.056;33;000.531;MIDI 01
147.887;000.065;40;000.562;MIDI 01
146.379;001.596;50;000.062;MIDI 01
147.890;000.230;49;000.477;MIDI 01
147.894;000.246;61;000.562;MIDI 01
148.583;000.066;66;000.531;MIDI 01
148.598;000.060;74;000.508;MIDI 01
148.581;000.079;78;000.586;MIDI 01
148.556;000.259;50;000.617;MIDI 01
148.777;000.058;66;000.586;MIDI 01
148.776;000.074;78;000.578;MIDI 01
148.779;000.079;74;000.570;MIDI 01
148.552;000.364;62;000.648;MIDI 01
148.938;000.073;66;000.609;MIDI 01
148.935;000.089;78;000.578;MIDI 01
148.933;000.112;74;000.547;MIDI 01
149.141;000.095;74;000.555;MIDI 01
149.145;000.095;78;000.609;MIDI 01
149.143;000.116;66;000.602;MIDI 01
149.121;000.183;64;000.664;MIDI 01
148.556;000.793;57;000.586;MIDI 01
149.128;000.272;52;000.609;MIDI 01
149.781;000.036;62;000.531;MIDI 01
149.789;000.036;47;000.531;MIDI 01
149.793;000.043;35;000.531;MIDI 01
149.777;000.058;54;000.586;MIDI 01
149.775;000.070;66;000.586;MIDI 01
149.947;000.050;47;000.555;MIDI 01
149.950;000.050;35;000.539;MIDI 01
150.047;000.042;52;000.625;MIDI 01
150.051;000.057;61;000.578;MIDI 01
150.055;000.071;64;000.602;MIDI 01
150.150;000.047;47;000.578;MIDI 01
150.148;000.061;35;000.531;MIDI 01
150.399;000.086;54;000.602;MIDI 01
150.424;000.140;35;000.570;MIDI 01
150.399;000.201;66;000.648;MIDI 01
150.393;000.223;62;000.539;MIDI 01
150.421;000.202;47;000.586;MIDI 01
151.058;000.037;47;000.625;MIDI 01
151.054;000.043;59;000.594;MIDI 01
151.070;000.034;66;000.617;MIDI 01
151.071;000.035;75;000.586;MIDI 01
151.068;000.060;78;000.641;MIDI 01
151.289;000.032;61;000.617;MIDI 01
151.294;000.036;49;000.547;MIDI 01
151.301;000.034;64;000.586;MIDI 01
151.289;000.068;76;000.734;MIDI 01
151.458;000.031;66;000.672;MIDI 01
151.464;000.032;63;000.648;MIDI 01
151.468;000.035;51;000.602;MIDI 01
151.463;000.053;78;000.641;MIDI 01
151.600;000.041;70;000.570;MIDI 01
151.631;000.040;67;000.625;MIDI 01
151.622;000.096;79;000.680;MIDI 01
151.653;000.073;71;000.453;MIDI 01
151.630;000.107;64;000.664;MIDI 01
151.633;000.251;52;000.617;MIDI 01
152.127;000.031;68;000.469;MIDI 01
152.142;000.038;56;000.328;MIDI 01
152.160;000.046;66;000.242;MIDI 01
152.194;000.039;28;000.539;MIDI 01
152.197;000.041;40;000.523;MIDI 01
152.233;000.043;52;000.656;MIDI 01
152.230;000.090;64;000.648;MIDI 01
152.382;000.033;28;000.414;MIDI 01
152.377;000.051;40;000.469;MIDI 01
152.481;000.049;51;000.562;MIDI 01
152.551;000.050;28;000.516;MIDI 01
152.553;000.048;40;000.594;MIDI 01
152.476;000.250;63;000.578;MIDI 01
152.772;000.040;52;000.586;MIDI 01
152.779;000.107;28;000.578;MIDI 01
152.774;000.121;64;000.680;MIDI 01
152.776;000.207;40;000.570;MIDI 01
153.416;000.042;68;000.578;MIDI 01
153.418;000.081;71;000.617;MIDI 01
153.412;000.106;80;000.664;MIDI 01
153.406;000.215;52;000.672;MIDI 01
153.399;000.255;64;000.703;MIDI 01
153.615;000.047;68;000.594;MIDI 01
153.613;000.079;80;000.641;MIDI 01
153.618;000.076;71;000.625;MIDI 01
153.772;000.080;68;000.609;MIDI 01
153.774;000.094;80;000.602;MIDI 01
153.770;000.115;71;000.586;MIDI 01
153.988;000.084;68;000.609;MIDI 01
153.985;000.102;80;000.695;MIDI 01
153.968;000.139;65;000.727;MIDI 01
153.996;000.129;71;000.562;MIDI 01
153.975;000.233;53;000.664;MIDI 01
154.583;000.035;49;000.555;MIDI 01
154.580;000.041;37;000.578;MIDI 01
154.585;000.056;53;000.594;MIDI 01
154.579;000.081;65;000.633;MIDI 01
154.588;000.164;61;000.562;MIDI 01
154.749;000.042;49;000.562;MIDI 01
154.750;000.045;37;000.523;MIDI 01
154.857;000.039;51;000.641;MIDI 01
154.916;000.043;49;000.641;MIDI 01
154.852;000.110;63;000.680;MIDI 01
154.918;000.052;37;000.594;MIDI 01
155.152;000.072;53;000.641;MIDI 01
155.175;000.156;37;000.609;MIDI 01
155.156;000.182;65;000.680;MIDI 01
155.147;000.199;61;000.523;MIDI 01
155.174;000.216;49;000.672;MIDI 01
155.802;000.039;68;000.641;MIDI 01
155.797;000.059;49;000.625;MIDI 01
155.791;000.067;61;000.680;MIDI 01
155.799;000.091;80;000.711;MIDI 01
155.812;000.080;73;000.578;MIDI 01
156.019;000.040;66;000.656;MIDI 01
156.023;000.041;52;000.609;MIDI 01
156.024;000.042;64;000.617;MIDI 01
156.035;000.040;73;000.492;MIDI 01
156.016;000.104;78;000.648;MIDI 01
156.192;000.029;68;000.641;MIDI 01
156.188;000.053;73;000.484;MIDI 01
156.230;000.024;54;000.531;MIDI 01
156.224;000.033;66;000.562;MIDI 01
156.194;000.069;80;000.664;MIDI 01
156.305;000.042;68;000.219;MIDI 01
156.367;000.059;69;000.656;MIDI 01
156.372;000.079;66;000.578;MIDI 01
156.376;000.092;54;000.570;MIDI 01
156.356;000.117;81;000.703;MIDI 01
156.363;000.152;73;000.609;MIDI 01
156.889;000.078;68;000.570;MIDI 01
156.930;000.039;42;000.594;MIDI 01
156.938;000.035;30;000.578;MIDI 01
156.922;000.094;54;000.609;MIDI 01
156.912;000.116;66;000.656;MIDI 01
157.095;000.048;42;000.555;MIDI 01
157.095;000.051;30;000.586;MIDI 01
157.194;000.048;53;000.633;MIDI 01
157.196;000.075;65;000.656;MIDI 01
157.267;000.066;42;000.625;MIDI 01
157.269;000.069;30;000.664;MIDI 01
157.492;000.065;54;000.625;MIDI 01
157.491;000.113;30;000.641;MIDI 01
157.482;000.168;42;000.664;MIDI 01
157.482;000.168;66;000.695;MIDI 01
158.137;000.072;66;000.656;MIDI 01
158.132;000.083;70;000.656;MIDI 01
158.142;000.083;54;000.609;MIDI 01
158.147;000.088;61;000.594;MIDI 01
158.133;000.105;82;000.688;MIDI 01
158.130;000.122;78;000.641;MIDI 01
158.323;000.068;66;000.664;MIDI 01
158.335;000.068;70;000.695;MIDI 01
158.330;000.076;54;000.586;MIDI 01
158.326;000.086;61;000.586;MIDI 01
158.334;000.078;78;000.625;MIDI 01
158.343;000.070;82;000.617;MIDI 01
158.482;000.069;66;000.625;MIDI 01
158.489;000.065;70;000.695;MIDI 01
158.491;000.083;54;000.555;MIDI 01
158.481;000.093;61;000.555;MIDI 01
158.486;000.088;78;000.648;MIDI 01
158.493;000.082;82;000.617;MIDI 01
158.657;000.074;66;000.695;MIDI 01
158.655;000.120;82;000.656;MIDI 01
158.659;000.119;70;000.703;MIDI 01
158.668;000.121;61;000.562;MIDI 01
158.670;000.166;54;000.555;MIDI 01
158.655;000.180;78;000.633;MIDI 01
159.236;000.058;54;000.672;MIDI 01
159.253;000.060;42;000.578;MIDI 01
159.265;000.056;40;000.531;MIDI 01
159.230;000.097;66;000.742;MIDI 01
159.424;000.069;40;000.633;MIDI 01
159.422;000.073;42;000.656;MIDI 01
159.524;000.041;52;000.664;MIDI 01
159.526;000.069;64;000.695;MIDI 01
159.607;000.089;42;000.656;MIDI 01
159.610;000.095;40;000.602;MIDI 01
159.832;000.100;54;000.711;MIDI 01
159.822;000.215;42;000.664;MIDI 01
159.826;000.219;66;000.727;MIDI 01
159.832;000.455;40;000.594;MIDI 01
160.492;000.101;51;000.672;MIDI 01
160.502;000.107;42;000.625;MIDI 01
160.514;000.098;39;000.570;MIDI 01
160.503;000.110;71;000.672;MIDI 01
160.500;000.133;83;000.719;MIDI 01
160.511;000.142;78;000.656;MIDI 01
160.701;000.078;51;000.641;MIDI 01
160.724;000.066;71;000.680;MIDI 01
160.718;000.073;39;000.516;MIDI 01
160.713;000.089;42;000.562;MIDI 01
160.717;000.089;83;000.672;MIDI 01
160.720;000.090;78;000.641;MIDI 01
160.871;000.076;51;000.641;MIDI 01
160.890;000.073;71;000.703;MIDI 01
160.893;000.079;83;000.664;MIDI 01
160.887;000.085;39;000.531;MIDI 01
160.879;000.096;42;000.531;MIDI 01
160.892;000.092;78;000.664;MIDI 01
161.062;000.150;71;000.703;MIDI 01
161.060;000.183;51;000.695;MIDI 01
161.057;000.190;83;000.719;MIDI 01
161.065;000.272;78;000.680;MIDI 01
161.069;000.279;42;000.523;MIDI 01
161.070;000.315;39;000.531;MIDI 01
161.651;000.104;49;000.672;MIDI 01
161.653;000.104;73;000.742;MIDI 01
161.658;000.101;37;000.617;MIDI 01
161.657;000.114;85;000.688;MIDI 01
161.662;000.114;78;000.664;MIDI 01
161.660;000.119;42;000.602;MIDI 01
161.664;000.122;82;000.648;MIDI 01
161.847;000.078;49;000.664;MIDI 01
161.860;000.067;73;000.727;MIDI 01
161.851;000.089;37;000.602;MIDI 01
161.864;000.077;78;000.625;MIDI 01
161.869;000.082;85;000.672;MIDI 01
161.854;000.099;42;000.523;MIDI 01
161.865;000.091;82;000.625;MIDI 01
162.018;000.070;73;000.672;MIDI 01
162.024;000.067;49;000.656;MIDI 01
162.024;000.081;37;000.578;MIDI 01
162.028;000.090;42;000.531;MIDI 01
162.016;000.104;85;000.641;MIDI 01
162.026;000.096;78;000.641;MIDI 01
162.024;000.105;82;000.570;MIDI 01
162.208;000.109;49;000.672;MIDI 01
162.195;000.167;73;000.719;MIDI 01
162.195;000.200;85;000.680;MIDI 01
162.210;000.205;42;000.508;MIDI 01
162.196;000.257;78;000.562;MIDI 01
162.198;000.343;37;000.609;MIDI 01
162.808;000.080;47;000.695;MIDI 01
162.819;000.072;75;000.734;MIDI 01
162.819;000.075;35;000.641;MIDI 01
162.195;000.707;82;000.586;MIDI 01
162.822;000.094;42;000.680;MIDI 01
162.824;000.119;78;000.633;MIDI 01
162.820;000.124;87;000.734;MIDI 01
163.027;000.058;75;000.711;MIDI 01
163.016;000.081;47;000.672;MIDI 01
163.034;000.072;35;000.609;MIDI 01
163.022;000.105;42;000.633;MIDI 01
163.025;000.116;78;000.641;MIDI 01
163.024;000.119;87;000.719;MIDI 01
163.200;000.106;47;000.680;MIDI 01
163.209;000.099;75;000.727;MIDI 01
163.207;000.121;42;000.602;MIDI 01
163.218;000.111;35;000.617;MIDI 01
163.201;000.137;87;000.688;MIDI 01
163.203;000.177;78;000.609;MIDI 01
163.505;000.150;35;000.617;MIDI 01
163.506;000.200;47;000.695;MIDI 01
163.515;000.214;42;000.586;MIDI 01
164.118;000.051;61;000.742;MIDI 01
164.124;000.065;49;000.703;MIDI 01
164.400;000.048;59;000.797;MIDI 01
164.405;000.054;47;000.719;MIDI 01
164.717;000.073;61;000.758;MIDI 01
164.724;000.102;49;000.727;MIDI 01
163.515;001.344;78;000.695;MIDI 01
163.508;001.352;75;000.703;MIDI 01
163.505;001.408;87;000.750;MIDI 01
165.330;000.076;45;000.727;MIDI 01
165.343;000.066;33;000.656;MIDI 01
165.336;000.076;76;000.719;MIDI 01
165.334;000.122;88;000.742;MIDI 01
165.339;000.129;81;000.695;MIDI 01
165.343;000.143;85;000.641;MIDI 01
165.559;000.057;76;000.719;MIDI 01
165.565;000.054;33;000.617;MIDI 01
165.557;000.067;45;000.672;MIDI 01
165.564;000.068;88;000.688;MIDI 01
165.567;000.072;81;000.633;MIDI 01
165.564;000.086;85;000.594;MIDI 01
165.733;000.051;33;000.625;MIDI 01
165.722;000.065;76;000.734;MIDI 01
165.730;000.061;45;000.688;MIDI 01
165.724;000.081;88;000.680;MIDI 01
165.726;000.096;81;000.641;MIDI 01
165.720;000.110;85;000.617;MIDI 01
165.897;000.159;88;000.742;MIDI 01
165.899;000.167;76;000.766;MIDI 01
165.905;000.205;81;000.633;MIDI 01
165.905;000.209;45;000.672;MIDI 01
165.895;000.221;85;000.617;MIDI 01
166.498;000.062;45;000.594;MIDI 01
166.511;000.067;43;000.562;MIDI 01
166.479;000.101;57;000.703;MIDI 01
166.473;000.131;69;000.750;MIDI 01
166.696;000.071;45;000.633;MIDI 01
166.700;000.078;43;000.617;MIDI 01
166.764;000.065;55;000.695;MIDI 01
166.766;000.133;67;000.719;MIDI 01
166.893;000.067;45;000.648;MIDI 01
166.893;000.072;43;000.648;MIDI 01
167.070;000.100;57;000.672;MIDI 01
167.080;000.152;45;000.648;MIDI 01
165.908;001.325;33;000.609;MIDI 01
167.067;000.198;69;000.750;MIDI 01
167.088;000.211;43;000.633;MIDI 01
167.773;000.131;42;000.734;MIDI 01
167.767;000.140;78;000.703;MIDI 01
167.775;000.146;30;000.703;MIDI 01
167.771;000.160;90;000.766;MIDI 01
167.769;000.165;86;000.695;MIDI 01
168.008;000.065;78;000.680;MIDI 01
168.012;000.068;42;000.703;MIDI 01
168.018;000.077;30;000.617;MIDI 01
168.002;000.109;90;000.719;MIDI 01
168.008;000.106;86;000.641;MIDI 01
168.188;000.068;78;000.750;MIDI 01
168.196;000.067;42;000.680;MIDI 01
168.195;000.069;30;000.664;MIDI 01
168.181;000.108;90;000.734;MIDI 01
168.190;000.105;86;000.633;MIDI 01
168.363;000.148;78;000.734;MIDI 01
168.375;000.158;42;000.680;MIDI 01
168.366;000.229;86;000.617;MIDI 01
168.378;000.260;30;000.664;MIDI 01
168.359;000.311;90;000.695;MIDI 01
168.951;000.080;79;000.680;MIDI 01
168.951;000.104;40;000.711;MIDI 01
168.945;000.114;91;000.766;MIDI 01
168.956;000.105;28;000.648;MIDI 01
168.953;000.121;86;000.680;MIDI 01
168.947;000.128;88;000.703;MIDI 01
169.150;000.062;79;000.711;MIDI 01
169.154;000.078;40;000.664;MIDI 01
169.159;000.079;28;000.641;MIDI 01
169.150;000.093;91;000.750;MIDI 01
169.152;000.096;86;000.594;MIDI 01
169.150;000.103;88;000.648;MIDI 01
169.315;000.073;79;000.727;MIDI 01
169.310;000.093;91;000.695;MIDI 01
169.323;000.082;40;000.648;MIDI 01
169.327;000.085;28;000.602;MIDI 01
169.312;000.107;86;000.586;MIDI 01
169.308;000.114;88;000.625;MIDI 01
169.509;000.162;40;000.672;MIDI 01
169.494;000.193;79;000.742;MIDI 01
169.493;000.211;91;000.766;MIDI 01
169.498;000.276;86;000.617;MIDI 01
169.489;000.299;88;000.648;MIDI 01
169.506;000.323;28;000.648;MIDI 01
170.121;000.059;81;000.734;MIDI 01
170.125;000.088;38;000.688;MIDI 01
170.120;000.101;93;000.727;MIDI 01
170.136;000.086;26;000.664;MIDI 01
170.123;000.106;86;000.672;MIDI 01
170.118;000.139;90;000.617;MIDI 01
170.323;000.071;81;000.750;MIDI 01
170.329;000.088;38;000.680;MIDI 01
170.336;000.088;26;000.633;MIDI 01
170.320;000.106;93;000.742;MIDI 01
170.325;000.120;86;000.617;MIDI 01
170.323;000.133;90;000.609;MIDI 01
170.522;000.135;81;000.750;MIDI 01
170.526;000.150;38;000.680;MIDI 01
170.517;000.168;93;000.766;MIDI 01
170.533;000.158;26;000.641;MIDI 01
170.515;000.207;86;000.625;MIDI 01
170.512;000.238;90;000.609;MIDI 01
170.843;000.066;26;000.695;MIDI 01
170.839;000.077;38;000.680;MIDI 01
170.826;000.130;93;000.766;MIDI 01
170.828;000.152;81;000.766;MIDI 01
170.833;000.174;86;000.742;MIDI 01
170.832;000.181;90;000.688;MIDI 01
171.456;000.075;64;000.727;MIDI 01
171.469;000.067;69;000.711;MIDI 01
171.472;000.083;81;000.695;MIDI 01
171.464;000.098;52;000.672;MIDI 01
171.476;000.105;78;000.656;MIDI 01
171.665;000.059;69;000.734;MIDI 01
171.669;000.078;81;000.734;MIDI 01
171.668;000.106;78;000.672;MIDI 01
171.751;000.064;62;000.742;MIDI 01
171.754;000.071;50;000.711;MIDI 01
171.852;000.061;69;000.727;MIDI 01
171.857;000.083;81;000.695;MIDI 01
171.854;000.134;78;000.656;MIDI 01
172.069;000.045;69;000.750;MIDI 01
172.075;000.058;66;000.750;MIDI 01
172.085;000.072;54;000.734;MIDI 01
172.072;000.119;81;000.734;MIDI 01
172.070;000.148;78;000.672;MIDI 01
172.733;000.052;81;000.734;MIDI 01
172.743;000.067;26;000.633;MIDI 01
172.736;000.073;38;000.672;MIDI 01
172.723;000.096;93;000.719;MIDI 01
172.729;000.114;90;000.625;MIDI 01
172.932;000.054;81;000.719;MIDI 01
172.930;000.065;26;000.648;MIDI 01
172.928;000.071;93;000.758;MIDI 01
172.927;000.076;38;000.672;MIDI 01
172.927;000.092;90;000.672;MIDI 01
173.099;000.081;81;000.758;MIDI 01
173.105;000.108;38;000.688;MIDI 01
173.101;000.135;93;000.742;MIDI 01
173.111;000.141;26;000.648;MIDI 01
173.103;000.198;90;000.672;MIDI 01
173.368;000.069;26;000.656;MIDI 01
173.364;000.094;38;000.719;MIDI 01
173.364;000.113;93;000.781;MIDI 01
173.364;000.158;81;000.758;MIDI 01
173.355;000.181;90;000.664;MIDI 01
173.946;000.081;64;000.703;MIDI 01
173.961;000.079;69;000.695;MIDI 01
173.953;000.114;52;000.641;MIDI 01
173.970;000.099;81;000.688;MIDI 01
173.968;000.115;78;000.578;MIDI 01
174.171;000.061;69;000.734;MIDI 01
174.177;000.072;81;000.688;MIDI 01
174.177;000.094;78;000.648;MIDI 01
174.267;000.055;62;000.734;MIDI 01
174.267;000.064;50;000.680;MIDI 01
174.363;000.064;69;000.734;MIDI 01
174.368;000.079;81;000.695;MIDI 01
174.371;000.104;78;000.648;MIDI 01
174.596;000.054;69;000.727;MIDI 01
174.603;000.084;66;000.758;MIDI 01
174.599;000.121;81;000.727;MIDI 01
174.611;000.122;54;000.734;MIDI 01
174.601;000.141;78;000.695;MIDI 01
175.309;000.057;26;000.680;MIDI 01
175.302;000.067;81;000.703;MIDI 01
175.300;000.097;38;000.727;MIDI 01
175.297;000.113;93;000.734;MIDI 01
175.309;000.130;89;000.648;MIDI 01
175.510;000.057;81;000.727;MIDI 01
175.516;000.077;93;000.727;MIDI 01
175.528;000.090;41;000.742;MIDI 01
175.516;000.107;89;000.633;MIDI 01
175.691;000.079;45;000.766;MIDI 01
175.694;000.092;81;000.742;MIDI 01
175.695;000.120;93;000.750;MIDI 01
175.692;000.239;89;000.586;MIDI 01
175.985;000.044;34;000.703;MIDI 01
175.976;000.054;46;000.797;MIDI 01
176.034;000.002;90;000.273;MIDI 01
175.978;000.079;94;000.844;MIDI 01
175.982;000.085;82;000.727;MIDI 01
175.983;000.109;89;000.523;MIDI 01
175.988;000.107;86;000.680;MIDI 01
176.571;000.059;60;000.742;MIDI 01
176.576;000.057;65;000.680;MIDI 01
176.578;000.076;48;000.656;MIDI 01
176.569;000.095;77;000.688;MIDI 01
176.567;000.117;74;000.570;MIDI 01
176.762;000.072;65;000.688;MIDI 01
176.767;000.091;77;000.656;MIDI 01
176.760;000.106;74;000.602;MIDI 01
176.877;000.052;58;000.773;MIDI 01
176.883;000.052;46;000.719;MIDI 01
176.967;000.065;65;000.688;MIDI 01
176.971;000.084;77;000.656;MIDI 01
176.969;000.098;74;000.625;MIDI 01
177.169;000.056;65;000.711;MIDI 01
177.169;000.072;62;000.758;MIDI 01
177.173;000.129;77;000.688;MIDI 01
177.175;000.139;74;000.648;MIDI 01
177.171;000.157;50;000.688;MIDI 01
177.838;000.050;26;000.648;MIDI 01
177.838;000.052;81;000.703;MIDI 01
177.830;000.090;93;000.711;MIDI 01
177.828;000.094;38;000.695;MIDI 01
177.838;000.114;89;000.656;MIDI 01
178.030;000.056;81;000.727;MIDI 01
178.043;000.069;41;000.742;MIDI 01
178.032;000.090;93;000.742;MIDI 01
178.028;000.119;89;000.625;MIDI 01
178.208;000.068;45;000.766;MIDI 01
178.219;000.074;81;000.750;MIDI 01
178.221;000.101;93;000.742;MIDI 01
178.223;000.154;89;000.625;MIDI 01
178.497;000.061;46;000.758;MIDI 01
178.545;000.026;90;000.391;MIDI 01
178.506;000.078;34;000.711;MIDI 01
178.499;000.091;94;000.828;MIDI 01
178.506;000.098;82;000.758;MIDI 01
178.514;000.106;89;000.594;MIDI 01
178.509;000.125;86;000.664;MIDI 01
178.916;000.042;75;000.234;MIDI 01
179.080;000.054;60;000.719;MIDI 01
179.116;000.027;47;000.469;MIDI 01
179.105;000.048;48;000.562;MIDI 01
179.088;000.089;65;000.688;MIDI 01
179.085;000.117;77;000.688;MIDI 01
179.083;000.137;74;000.648;MIDI 01
179.314;000.071;65;000.688;MIDI 01
179.321;000.097;77;000.688;MIDI 01
179.316;000.107;74;000.625;MIDI 01
179.392;000.054;58;000.734;MIDI 01
179.397;000.052;46;000.680;MIDI 01
179.511;000.059;65;000.695;MIDI 01
179.516;000.085;74;000.641;MIDI 01
179.514;000.100;77;000.680;MIDI 01
179.751;000.074;65;000.680;MIDI 01
179.741;000.141;62;000.773;MIDI 01
179.753;000.169;77;000.688;MIDI 01
179.749;000.198;74;000.695;MIDI 01
179.746;000.202;50;000.711;MIDI 01
180.545;000.004;78;000.305;MIDI 01
180.512;000.075;26;000.703;MIDI 01
180.502;000.113;38;000.711;MIDI 01
180.800;000.031;43;000.578;MIDI 01
180.492;000.342;86;000.727;MIDI 01
180.790;000.060;41;000.680;MIDI 01
180.498;000.375;74;000.719;MIDI 01
180.494;000.385;77;000.680;MIDI 01
180.500;000.384;82;000.664;MIDI 01
180.968;000.069;46;000.766;MIDI 01
181.182;000.249;84;000.750;MIDI 01
181.195;000.260;36;000.656;MIDI 01
181.182;000.295;72;000.750;MIDI 01
181.185;000.320;75;000.672;MIDI 01
181.193;000.337;48;000.742;MIDI 01
181.787;000.050;70;000.781;MIDI 01
181.786;000.105;50;000.711;MIDI 01
181.792;000.106;77;000.648;MIDI 01
181.794;000.153;82;000.688;MIDI 01
181.790;000.265;38;000.672;MIDI 01
181.193;000.878;81;000.648;MIDI 01
182.093;000.046;81;000.391;MIDI 01
182.085;000.058;36;000.680;MIDI 01
182.081;000.066;48;000.727;MIDI 01
182.079;000.070;84;000.711;MIDI 01
182.083;000.069;75;000.695;MIDI 01
182.091;000.069;72;000.672;MIDI 01
182.421;000.192;50;000.727;MIDI 01
182.415;000.255;81;000.758;MIDI 01
182.426;000.286;38;000.656;MIDI 01
182.421;000.294;78;000.656;MIDI 01
182.412;000.312;72;000.688;MIDI 01
182.417;000.318;69;000.742;MIDI 01
183.123;000.104;31;000.664;MIDI 01
183.116;000.115;43;000.719;MIDI 01
183.375;000.046;33;000.695;MIDI 01
183.367;000.059;45;000.750;MIDI 01
183.111;000.317;67;000.695;MIDI 01
183.114;000.344;70;000.688;MIDI 01
183.109;000.364;74;000.695;MIDI 01
183.109;000.373;79;000.719;MIDI 01
183.812;000.003;78;000.422;MIDI 01
183.781;000.282;86;000.758;MIDI 01
183.569;000.519;34;000.703;MIDI 01
183.789;000.332;82;000.672;MIDI 01
183.786;000.342;74;000.727;MIDI 01
183.786;000.344;77;000.664;MIDI 01
183.565;000.579;46;000.734;MIDI 01
184.429;000.258;84;000.719;MIDI 01
184.439;000.286;81;000.656;MIDI 01
184.440;000.295;36;000.719;MIDI 01
184.430;000.307;72;000.719;MIDI 01
184.439;000.327;48;000.719;MIDI 01
184.433;000.340;75;000.664;MIDI 01
185.177;000.339;38;000.680;MIDI 01
185.167;000.440;50;000.742;MIDI 01
185.171;000.688;81;000.789;MIDI 01
185.169;000.744;72;000.695;MIDI 01
185.175;000.740;78;000.711;MIDI 01
185.173;000.761;69;000.773;MIDI 01
186.207;000.071;55;000.711;MIDI 01
186.209;000.076;43;000.648;MIDI 01
186.217;000.076;50;000.648;MIDI 01
186.197;000.256;74;000.734;MIDI 01
186.203;000.252;70;000.680;MIDI 01
186.199;000.271;79;000.734;MIDI 01
186.201;000.345;67;000.719;MIDI 01
186.674;000.082;55;000.719;MIDI 01
186.682;000.124;50;000.633;MIDI 01
186.679;000.147;43;000.648;MIDI 01
186.665;000.459;74;000.695;MIDI 01
186.661;000.641;79;000.773;MIDI 01
186.666;000.656;67;000.758;MIDI 01
186.674;000.717;70;000.656;MIDI 01
187.467;000.042;27;000.719;MIDI 01
187.466;000.074;39;000.719;MIDI 01
187.728;000.030;46;000.805;MIDI 01
187.456;000.334;79;000.742;MIDI 01
187.464;000.347;75;000.703;MIDI 01
187.784;000.040;45;000.289;MIDI 01
187.459;000.379;67;000.758;MIDI 01
187.454;000.405;70;000.633;MIDI 01
187.942;000.060;51;000.773;MIDI 01
188.246;000.002;52;000.094;MIDI 01
188.156;000.239;77;000.742;MIDI 01
188.178;000.254;41;000.703;MIDI 01
188.158;000.285;65;000.727;MIDI 01
188.164;000.320;68;000.664;MIDI 01
188.173;000.325;53;000.719;MIDI 01
188.782;000.066;63;000.727;MIDI 01
188.780;000.089;55;000.719;MIDI 01
188.778;000.131;70;000.688;MIDI 01
188.786;000.139;75;000.680;MIDI 01
188.789;000.255;43;000.641;MIDI 01
189.094;000.055;41;000.688;MIDI 01
189.086;000.065;53;000.719;MIDI 01
188.161;000.996;74;000.602;MIDI 01
189.097;000.066;65;000.688;MIDI 01
189.091;000.078;77;000.719;MIDI 01
189.109;000.060;68;000.609;MIDI 01
189.450;000.131;55;000.750;MIDI 01
189.455;000.199;43;000.680;MIDI 01
189.444;000.269;74;000.734;MIDI 01
189.446;000.281;71;000.664;MIDI 01
189.442;000.310;62;000.727;MIDI 01
189.452;000.312;65;000.633;MIDI 01
190.133;000.073;24;000.703;MIDI 01
190.131;000.080;36;000.727;MIDI 01
190.123;000.292;60;000.719;MIDI 01
190.379;000.042;26;000.641;MIDI 01
190.369;000.054;38;000.742;MIDI 01
190.129;000.323;63;000.656;MIDI 01
190.410;000.044;28;000.453;MIDI 01
190.125;000.347;67;000.648;MIDI 01
190.119;000.366;72;000.695;MIDI 01
190.601;000.034;30;000.555;MIDI 01
190.849;000.047;69;000.234;MIDI 01
190.786;000.285;79;000.719;MIDI 01
190.581;000.516;27;000.633;MIDI 01
190.789;000.330;75;000.625;MIDI 01
190.791;000.336;67;000.719;MIDI 01
190.794;000.353;70;000.688;MIDI 01
190.571;000.585;39;000.766;MIDI 01
191.446;000.243;77;000.727;MIDI 01
191.450;000.276;65;000.719;MIDI 01
191.444;000.293;74;000.719;MIDI 01
191.455;000.290;29;000.688;MIDI 01
191.454;000.299;41;000.711;MIDI 01
191.452;000.338;68;000.672;MIDI 01
192.223;000.451;31;000.680;MIDI 01
192.219;000.488;43;000.695;MIDI 01
192.213;000.755;74;000.750;MIDI 01
192.221;000.781;71;000.680;MIDI 01
192.215;000.804;62;000.758;MIDI 01
192.217;000.814;65;000.695;MIDI 01
193.185;000.060;68;000.062;MIDI 01
193.320;000.073;48;000.703;MIDI 01
193.324;000.074;36;000.633;MIDI 01
193.333;000.072;43;000.641;MIDI 01
193.318;000.227;67;000.656;MIDI 01
193.322;000.225;63;000.672;MIDI 01
193.316;000.242;60;000.703;MIDI 01
193.314;000.252;72;000.734;MIDI 01
193.795;000.118;48;000.688;MIDI 01
193.799;000.147;36;000.625;MIDI 01
193.807;000.161;43;000.625;MIDI 01
193.791;000.254;60;000.703;MIDI 01
193.793;000.301;63;000.664;MIDI 01
193.789;000.356;72;000.734;MIDI 01
193.785;000.430;67;000.695;MIDI 01
194.783;000.002;44;000.031;MIDI 01
194.696;000.114;34;000.695;MIDI 01
194.677;000.346;65;000.695;MIDI 01
194.975;000.081;34;000.680;MIDI 01
194.679;000.408;68;000.656;MIDI 01
194.689;000.422;46;000.766;MIDI 01
195.189;000.075;34;000.672;MIDI 01
195.250;000.059;37;000.102;MIDI 01
195.159;000.175;46;000.523;MIDI 01
194.671;000.666;74;000.758;MIDI 01
195.391;000.078;34;000.680;MIDI 01
195.464;000.223;63;000.711;MIDI 01
195.509;000.545;48;000.711;MIDI 01
195.465;000.600;72;000.664;MIDI 01
195.459;000.619;68;000.586;MIDI 01
196.100;000.075;65;000.688;MIDI 01
196.098;000.102;68;000.453;MIDI 01
196.102;000.179;50;000.664;MIDI 01
196.394;000.035;48;000.656;MIDI 01
196.096;000.335;70;000.727;MIDI 01
196.406;000.047;68;000.547;MIDI 01
196.409;000.054;63;000.672;MIDI 01
196.402;000.061;72;000.711;MIDI 01
196.661;000.090;34;000.594;MIDI 01
196.804;000.396;50;000.664;MIDI 01
196.802;000.447;58;000.688;MIDI 01
196.798;000.454;68;000.719;MIDI 01
196.800;000.686;65;000.656;MIDI 01
197.481;000.070;51;000.734;MIDI 01
197.486;000.128;58;000.648;MIDI 01
197.497;000.144;63;000.492;MIDI 01
197.471;000.274;67;000.703;MIDI 01
197.730;000.071;34;000.688;MIDI 01
197.926;000.074;34;000.711;MIDI 01
198.146;000.228;65;000.656;MIDI 01
198.155;000.251;34;000.594;MIDI 01
198.148;000.286;68;000.633;MIDI 01
198.142;000.308;46;000.711;MIDI 01
198.137;000.624;74;000.758;MIDI 01
198.839;000.164;48;000.742;MIDI 01
198.836;000.223;72;000.711;MIDI 01
198.841;000.236;63;000.688;MIDI 01
198.847;000.262;68;000.641;MIDI 01
199.454;000.078;34;000.625;MIDI 01
199.591;000.577;50;000.656;MIDI 01
199.559;000.872;58;000.695;MIDI 01
199.554;000.895;68;000.695;MIDI 01
199.561;001.020;65;000.648;MIDI 01
200.557;000.068;51;000.734;MIDI 01
200.569;000.291;58;000.688;MIDI 01
200.562;000.319;67;000.711;MIDI 01
200.576;000.361;63;000.594;MIDI 01
201.008;000.069;51;000.695;MIDI 01
201.001;000.254;58;000.680;MIDI 01
201.002;000.291;67;000.734;MIDI 01
201.004;000.367;63;000.570;MIDI 01
201.796;000.098;27;000.656;MIDI 01
202.059;000.091;27;000.664;MIDI 01
201.779;000.401;63;000.609;MIDI 01
202.286;000.043;27;000.617;MIDI 01
201.776;000.605;58;000.672;MIDI 01
201.773;000.633;67;000.688;MIDI 01
201.785;000.656;39;000.734;MIDI 01
202.474;000.065;27;000.648;MIDI 01
202.532;000.346;56;000.656;MIDI 01
202.528;000.528;62;000.633;MIDI 01
202.586;000.526;41;000.664;MIDI 01
202.530;000.584;65;000.641;MIDI 01
203.168;000.123;58;000.688;MIDI 01
203.158;000.176;43;000.680;MIDI 01
203.161;000.278;63;000.688;MIDI 01
203.469;000.035;41;000.656;MIDI 01
203.473;000.050;62;000.625;MIDI 01
203.479;000.050;56;000.672;MIDI 01
203.470;000.072;65;000.672;MIDI 01
203.692;000.091;27;000.648;MIDI 01
203.879;000.296;62;000.703;MIDI 01
203.881;000.323;53;000.688;MIDI 01
203.879;000.341;59;000.680;MIDI 01
203.875;000.480;43;000.641;MIDI 01
204.602;000.178;48;000.641;MIDI 01
204.598;000.271;51;000.648;MIDI 01
204.596;000.280;60;000.742;MIDI 01
204.830;000.083;27;000.609;MIDI 01
205.032;000.088;27;000.711;MIDI 01
205.272;000.266;58;000.664;MIDI 01
205.283;000.265;27;000.594;MIDI 01
205.283;000.284;63;000.594;MIDI 01
205.278;000.347;39;000.664;MIDI 01
205.274;000.647;67;000.695;MIDI 01
206.031;000.179;41;000.672;MIDI 01
206.019;000.207;56;000.680;MIDI 01
206.031;000.252;62;000.625;MIDI 01
206.643;000.054;27;000.562;MIDI 01
206.019;000.713;65;000.672;MIDI 01
206.786;000.273;43;000.648;MIDI 01
206.760;000.352;63;000.625;MIDI 01
206.764;000.402;58;000.633;MIDI 01
206.751;000.777;70;000.719;MIDI 01
207.706;000.101;27;000.664;MIDI 01
207.482;000.356;65;000.609;MIDI 01
207.486;000.542;38;000.664;MIDI 01
207.933;000.104;27;000.680;MIDI 01
207.471;000.584;58;000.641;MIDI 01
207.473;000.650;68;000.648;MIDI 01
208.197;000.249;27;000.578;MIDI 01
208.168;000.278;58;000.656;MIDI 01
208.164;000.362;63;000.609;MIDI 01
208.185;000.349;39;000.656;MIDI 01
208.159;000.682;67;000.672;MIDI 01
208.947;000.185;41;000.648;MIDI 01
208.933;000.240;56;000.648;MIDI 01
208.935;000.283;62;000.625;MIDI 01
209.575;000.069;27;000.570;MIDI 01
208.933;000.735;65;000.648;MIDI 01
209.714;000.225;43;000.641;MIDI 01
209.688;000.323;63;000.633;MIDI 01
209.685;000.348;58;000.641;MIDI 01
209.677;000.820;70;000.727;MIDI 01
210.463;000.311;65;000.562;MIDI 01
210.682;000.101;27;000.641;MIDI 01
210.924;000.099;27;000.641;MIDI 01
210.455;000.572;38;000.664;MIDI 01
210.450;000.593;58;000.609;MIDI 01
210.450;000.808;68;000.641;MIDI 01
211.200;000.354;27;000.578;MIDI 01
211.193;000.454;39;000.633;MIDI 01
211.200;001.290;63;000.594;MIDI 01
211.189;001.350;58;000.633;MIDI 01
211.191;001.677;67;000.625;MIDI 01
212.030;001.240;29;000.570;MIDI 01
212.024;001.284;41;000.641;MIDI 01
212.824;001.123;62;000.570;MIDI 01
212.833;001.162;56;000.555;MIDI 01
212.832;001.626;65;000.586;MIDI 01
213.597;001.174;43;000.617;MIDI 01
213.606;001.286;31;000.555;MIDI 01
214.449;001.255;55;000.547;MIDI 01
214.445;001.339;63;000.555;MIDI 01
214.452;001.335;58;000.539;MIDI 01
215.361;001.386;27;000.484;MIDI 01
215.361;001.432;39;000.516;MIDI 01
216.213;001.569;58;000.492;MIDI 01
216.202;001.640;62;000.547;MIDI 01
217.206;001.461;28;000.336;MIDI 01
217.200;001.526;40;000.391;MIDI 01
218.140;001.786;58;000.391;MIDI 01
218.119;001.887;61;000.461;MIDI 01
219.147;001.951;41;000.289;MIDI 01
219.149;001.972;29;000.250;MIDI 01
220.401;001.421;57;000.281;MIDI 01
220.399;001.479;60;000.266;MIDI 01
222.014;002.624;52;000.375;MIDI 01
222.031;002.612;46;000.266;MIDI 01
222.037;002.608;49;000.297;MIDI 01
224.627;000.243;41;000.070;MIDI 01
224.609;000.343;45;000.211;MIDI 01
224.591;000.378;48;000.195;MIDI 01
224.589;000.400;53;000.266;MIDI 01
225.790;002.235;46;000.289;MIDI 01
227.920;000.608;45;000.203;MIDI 01
228.434;000.644;43;000.242;MIDI 01
229.002;001.527;41;000.164;MIDI 01
225.768;005.160;52;000.289;MIDI 01
230.384;000.589;40;000.195;MIDI 01
225.772;005.220;49;000.266;MIDI 01
233.664;000.092;45;000.227;MIDI 01
233.283;000.781;69;000.266;MIDI 01
233.242;000.854;81;000.320;MIDI 01
233.245;000.945;77;000.242;MIDI 01
234.334;000.078;70;000.258;MIDI 01
234.315;000.155;82;000.398;MIDI 01
234.336;000.211;79;000.281;MIDI 01
234.545;000.100;81;000.312;MIDI 01
234.889;000.051;46;000.203;MIDI 01
234.648;000.557;81;000.023;MIDI 01
234.535;000.694;77;000.336;MIDI 01
234.554;000.734;69;000.242;MIDI 01
235.230;000.150;45;000.258;MIDI 01
235.561;000.272;74;000.383;MIDI 01
235.585;000.281;65;000.281;MIDI 01
235.912;000.075;41;000.203;MIDI 01
235.555;000.472;77;000.391;MIDI 01
236.099;000.207;67;000.406;MIDI 01
236.306;000.115;43;000.242;MIDI 01
236.083;000.499;76;000.438;MIDI 01
236.070;000.632;79;000.422;MIDI 01
236.969;000.064;46;000.203;MIDI 01
236.603;000.635;81;000.422;MIDI 01
236.615;000.733;77;000.391;MIDI 01
236.621;000.759;69;000.227;MIDI 01
237.343;000.190;45;000.258;MIDI 01
234.098;003.584;38;000.133;MIDI 01
238.064;000.104;41;000.211;MIDI 01
237.733;000.697;62;000.234;MIDI 01
237.711;000.738;65;000.336;MIDI 01
234.084;004.509;50;000.164;MIDI 01
238.474;000.246;38;000.297;MIDI 01
237.705;001.286;74;000.375;MIDI 01
239.356;000.113;41;000.305;MIDI 01
239.760;000.227;40;000.273;MIDI 01
238.926;001.169;76;000.398;MIDI 01
238.961;001.224;69;000.273;MIDI 01
238.969;001.243;64;000.219;MIDI 01
240.525;000.090;37;000.234;MIDI 01
240.689;000.240;69;000.289;MIDI 01
240.686;000.281;57;000.273;MIDI 01
240.919;000.059;33;000.234;MIDI 01
238.981;002.029;45;000.234;MIDI 01
241.233;000.089;57;000.250;MIDI 01
241.550;000.089;65;000.344;MIDI 01
241.872;000.142;64;000.312;MIDI 01
241.228;001.027;69;000.359;MIDI 01
242.543;000.074;53;000.312;MIDI 01
242.902;000.079;52;000.289;MIDI 01
242.225;001.070;64;000.336;MIDI 01
242.213;001.167;76;000.438;MIDI 01
243.601;000.064;49;000.211;MIDI 01
243.231;000.618;69;000.352;MIDI 01
243.258;000.739;57;000.289;MIDI 01
243.976;000.109;45;000.242;MIDI 01
244.694;000.110;41;000.203;MIDI 01
245.075;000.166;40;000.258;MIDI 01
244.350;001.223;52;000.234;MIDI 01
244.333;001.355;64;000.312;MIDI 01
245.906;000.124;37;000.188;MIDI 01
245.448;001.158;57;000.273;MIDI 01
245.457;001.314;45;000.219;MIDI 01
246.512;000.265;33;000.133;MIDI 01
247.795;000.051;45;000.203;MIDI 01
247.406;000.789;69;000.211;MIDI 01
247.386;000.862;81;000.352;MIDI 01
247.399;000.936;77;000.289;MIDI 01
248.454;000.044;70;000.320;MIDI 01
248.454;000.073;82;000.359;MIDI 01
248.955;000.045;46;000.297;MIDI 01
248.629;000.703;81;000.375;MIDI 01
248.636;000.737;77;000.336;MIDI 01
248.648;000.758;69;000.352;MIDI 01
249.299;000.180;45;000.250;MIDI 01
249.644;000.277;74;000.367;MIDI 01
249.657;000.273;65;000.305;MIDI 01
249.951;000.073;41;000.297;MIDI 01
249.621;000.463;77;000.398;MIDI 01
250.124;000.231;67;000.375;MIDI 01
250.355;000.079;43;000.312;MIDI 01
250.130;000.514;76;000.469;MIDI 01
250.105;000.601;79;000.461;MIDI 01
251.002;000.052;46;000.289;MIDI 01
250.661;000.634;81;000.430;MIDI 01
250.676;000.701;77;000.359;MIDI 01
250.679;000.717;69;000.312;MIDI 01
251.357;000.085;45;000.297;MIDI 01
248.199;003.447;38;000.227;MIDI 01
248.197;003.653;50;000.234;MIDI 01
252.085;000.047;38;000.391;MIDI 01
251.731;000.905;62;000.273;MIDI 01
251.729;000.915;65;000.367;MIDI 01
251.703;000.957;74;000.406;MIDI 01
252.852;000.173;77;000.398;MIDI 01
253.101;000.094;72;000.273;MIDI 01
253.428;000.049;41;000.328;MIDI 01
253.067;000.705;76;000.445;MIDI 01
253.197;000.607;72;000.023;MIDI 01
253.089;000.756;64;000.328;MIDI 01
253.772;000.184;40;000.344;MIDI 01
254.137;000.244;69;000.320;MIDI 01
254.147;000.282;60;000.273;MIDI 01
254.456;000.061;36;000.297;MIDI 01
254.109;000.453;72;000.422;MIDI 01
254.630;000.203;62;000.383;MIDI 01
254.843;000.152;38;000.305;MIDI 01
254.622;000.490;71;000.445;MIDI 01
254.601;000.572;74;000.438;MIDI 01
255.480;000.066;41;000.328;MIDI 01
255.135;000.680;76;000.477;MIDI 01
255.147;000.738;72;000.406;MIDI 01
255.161;000.732;64;000.305;MIDI 01
255.848;000.175;40;000.281;MIDI 01
252.594;003.964;33;000.266;MIDI 01
256.574;000.082;36;000.219;MIDI 01
256.231;000.778;57;000.297;MIDI 01
256.210;000.892;69;000.414;MIDI 01
256.223;000.895;60;000.320;MIDI 01
252.590;004.641;45;000.305;MIDI 01
257.046;000.222;33;000.219;MIDI 01
258.017;000.169;45;000.336;MIDI 01
258.022;000.177;33;000.328;MIDI 01
258.504;000.144;31;000.141;MIDI 01
258.523;000.164;43;000.164;MIDI 01
259.455;000.192;45;000.266;MIDI 01
259.457;000.193;33;000.250;MIDI 01
259.960;000.216;31;000.094;MIDI 01
259.974;000.222;43;000.133;MIDI 01
260.834;000.173;33;000.227;MIDI 01
260.824;000.184;45;000.266;MIDI 01
257.594;003.708;70;000.375;MIDI 01
257.599;003.711;58;000.289;MIDI 01
257.613;003.735;64;000.297;MIDI 01
257.601;003.769;61;000.266;MIDI 01
261.280;000.104;43;000.250;MIDI 01
261.274;000.118;31;000.203;MIDI 01
261.716;000.658;57;000.305;MIDI 01
261.718;000.658;69;000.336;MIDI 01
261.720;000.765;64;000.328;MIDI 01
261.735;000.771;61;000.273;MIDI 01
263.498;000.185;45;000.391;MIDI 01
263.507;000.216;33;000.328;MIDI 01
263.924;000.178;46;000.273;MIDI 01
263.957;000.170;34;000.141;MIDI 01
264.816;000.194;45;000.367;MIDI 01
264.817;000.203;33;000.336;MIDI 01
265.266;000.177;46;000.266;MIDI 01
265.315;000.155;34;000.180;MIDI 01
266.192;000.198;45;000.352;MIDI 01
266.194;000.202;33;000.320;MIDI 01
263.126;003.496;64;000.250;MIDI 01
263.128;003.497;55;000.297;MIDI 01
263.119;003.515;67;000.344;MIDI 01
263.135;003.573;61;000.188;MIDI 01
266.672;000.177;34;000.234;MIDI 01
266.656;000.195;46;000.281;MIDI 01
267.547;000.204;46;000.305;MIDI 01
267.560;000.207;34;000.266;MIDI 01
267.980;000.140;45;000.250;MIDI 01
267.978;000.208;33;000.258;MIDI 01
269.060;000.216;58;000.328;MIDI 01
269.527;000.249;57;000.258;MIDI 01
270.434;000.210;58;000.297;MIDI 01
270.893;000.257;57;000.188;MIDI 01
271.810;000.195;58;000.258;MIDI 01
272.231;000.128;57;000.266;MIDI 01
267.123;005.245;62;000.375;MIDI 01
267.139;005.257;54;000.312;MIDI 01
267.121;005.324;66;000.484;MIDI 01
269.073;003.611;26;000.273;MIDI 01
269.068;003.654;38;000.258;MIDI 01
273.101;000.165;45;000.203;MIDI 01
273.099;000.223;33;000.156;MIDI 01
273.560;000.161;44;000.234;MIDI 01
273.548;000.211;32;000.219;MIDI 01
274.559;000.194;57;000.211;MIDI 01
275.023;000.255;56;000.203;MIDI 01
275.902;000.182;57;000.281;MIDI 01
276.341;000.235;56;000.195;MIDI 01
277.268;000.153;57;000.234;MIDI 01
272.679;004.967;65;000.336;MIDI 01
274.571;003.079;26;000.203;MIDI 01
274.569;003.217;38;000.219;MIDI 01
272.693;005.113;53;000.227;MIDI 01
277.692;000.156;56;000.250;MIDI 01
272.696;005.197;62;000.258;MIDI 01
278.514;000.042;42;000.359;MIDI 01
278.123;001.484;55;000.242;MIDI 01
278.144;001.652;58;000.180;MIDI 01
278.115;002.074;64;000.281;MIDI 01
279.007;001.943;43;000.242;MIDI 01
281.226;000.040;43;000.336;MIDI 01
281.757;000.726;44;000.305;MIDI 01
280.823;001.809;53;000.336;MIDI 01
280.809;002.152;59;000.344;MIDI 01
280.807;003.302;62;000.406;MIDI 01
278.129;006.034;38;000.273;MIDI 01
284.036;001.104;45;000.273;MIDI 01
284.029;002.385;33;000.258;MIDI 01
286.291;001.565;41;000.250;MIDI 01
284.015;004.061;61;000.406;MIDI 01
284.027;004.125;52;000.305;MIDI 01
286.294;003.249;29;000.211;MIDI 01
289.413;001.718;62;000.234;MIDI 01
289.417;001.732;53;000.258;MIDI 01
289.421;001.820;26;000.195;MIDI 01
289.419;001.824;38;000.195;MIDI 01
284.025;007.249;57;000.297;MIDI 01
293.180;005.801;50;000.227;MIDI 01
293.183;006.104;38;000.172;MIDI 01
293.178;006.410;26;000.172;MIDI 01
293.153;006.596;53;000.164;MIDI 01
293.133;006.726;62;000.258;MIDI 01
293.159;006.714;57;000.258;MIDI 01
