Start;Duration;Pitch;Velocity;Instrument
001.560;000.326;54;000.188;MIDI 01
001.552;001.372;66;000.242;MIDI 01
002.869;000.096;57;000.250;MIDI 01
002.839;001.178;69;000.320;MIDI 01
003.782;000.252;78;000.422;MIDI 01
003.360;001.287;45;000.156;MIDI 01
003.821;000.898;66;000.227;MIDI 01
004.753;000.156;69;000.328;MIDI 01
002.370;003.019;38;000.117;MIDI 01
004.759;000.967;57;000.273;MIDI 01
005.736;000.145;54;000.227;MIDI 01
004.345;002.146;50;000.156;MIDI 01
005.198;001.360;45;000.195;MIDI 01
005.713;001.075;66;000.367;MIDI 01
006.785;000.083;57;000.188;MIDI 01
006.753;001.428;69;000.289;MIDI 01
007.841;000.490;78;000.336;MIDI 01
007.287;001.717;45;000.133;MIDI 01
007.871;001.880;66;000.211;MIDI 01
009.968;000.155;69;000.375;MIDI 01
006.316;004.013;38;000.172;MIDI 01
010.389;000.076;57;000.141;MIDI 01
010.507;000.164;66;000.305;MIDI 01
010.694;000.273;74;000.469;MIDI 01
010.056;001.118;45;000.117;MIDI 01
008.576;002.877;50;000.133;MIDI 01
011.583;000.135;66;000.445;MIDI 01
011.715;000.103;73;000.539;MIDI 01
011.327;000.501;38;000.242;MIDI 01
012.089;000.073;45;000.336;MIDI 01
012.578;000.239;69;000.445;MIDI 01
012.657;000.346;71;000.461;MIDI 01
013.150;000.065;67;000.398;MIDI 01
012.475;001.214;62;000.398;MIDI 01
013.543;000.204;69;000.445;MIDI 01
013.535;000.246;66;000.430;MIDI 01
013.569;000.425;61;000.352;MIDI 01
012.417;001.603;57;000.336;MIDI 01
013.947;000.203;64;000.398;MIDI 01
013.926;000.247;67;000.492;MIDI 01
013.167;001.009;50;000.172;MIDI 01
013.955;001.453;45;000.289;MIDI 01
014.470;001.265;62;000.352;MIDI 01
014.458;001.291;66;000.422;MIDI 01
014.469;001.425;57;000.359;MIDI 01
016.348;000.113;67;000.375;MIDI 01
016.580;000.055;69;000.453;MIDI 01
016.608;000.040;66;000.352;MIDI 01
016.358;000.295;64;000.312;MIDI 01
015.057;002.602;38;000.258;MIDI 01
016.380;001.597;45;000.203;MIDI 01
016.882;001.149;61;000.320;MIDI 01
016.872;001.379;64;000.266;MIDI 01
018.791;000.103;66;000.312;MIDI 01
018.785;000.202;62;000.281;MIDI 01
019.049;000.066;67;000.352;MIDI 01
019.046;000.084;64;000.297;MIDI 01
019.389;000.743;62;000.219;MIDI 01
019.415;000.835;59;000.289;MIDI 01
019.411;000.902;66;000.320;MIDI 01
018.805;001.536;45;000.164;MIDI 01
017.503;002.876;50;000.133;MIDI 01
020.598;000.290;57;000.352;MIDI 01
020.622;000.323;61;000.305;MIDI 01
020.143;000.850;38;000.242;MIDI 01
020.617;000.430;64;000.359;MIDI 01
020.596;000.564;69;000.430;MIDI 01
021.472;000.391;55;000.250;MIDI 01
021.410;000.482;71;000.500;MIDI 01
021.420;000.503;62;000.375;MIDI 01
021.430;000.542;67;000.375;MIDI 01
021.012;001.421;45;000.312;MIDI 01
022.285;000.517;57;000.320;MIDI 01
022.293;000.598;61;000.281;MIDI 01
022.255;000.846;69;000.430;MIDI 01
022.284;000.976;64;000.312;MIDI 01
023.198;000.529;62;000.281;MIDI 01
023.186;000.564;59;000.297;MIDI 01
023.194;000.587;66;000.328;MIDI 01
022.740;001.084;45;000.273;MIDI 01
021.873;002.030;50;000.219;MIDI 01
024.107;000.354;57;000.266;MIDI 01
023.676;000.843;38;000.211;MIDI 01
024.130;000.446;61;000.250;MIDI 01
024.113;000.572;64;000.297;MIDI 01
024.092;000.597;69;000.344;MIDI 01
025.018;000.500;71;000.352;MIDI 01
025.012;000.609;67;000.281;MIDI 01
025.036;000.589;62;000.258;MIDI 01
025.059;000.597;55;000.156;MIDI 01
024.536;001.789;45;000.258;MIDI 01
026.068;000.586;57;000.172;MIDI 01
026.060;000.751;61;000.227;MIDI 01
026.069;000.859;64;000.250;MIDI 01
026.050;000.944;69;000.281;MIDI 01
025.556;001.470;50;000.258;MIDI 01
027.554;000.204;62;000.273;MIDI 01
027.470;000.361;54;000.164;MIDI 01
027.649;000.242;66;000.320;MIDI 01
026.708;001.975;45;000.148;MIDI 01
027.789;001.207;74;000.453;MIDI 01
029.014;000.259;64;000.289;MIDI 01
029.032;000.267;66;000.336;MIDI 01
028.572;000.809;38;000.219;MIDI 01
029.439;000.119;45;000.305;MIDI 01
029.022;000.875;69;000.414;MIDI 01
029.784;000.243;62;000.398;MIDI 01
029.786;000.336;67;000.414;MIDI 01
029.770;000.766;71;000.516;MIDI 01
030.518;000.248;66;000.445;MIDI 01
030.182;000.631;50;000.289;MIDI 01
030.503;000.331;72;000.547;MIDI 01
030.558;000.396;57;000.266;MIDI 01
031.301;000.114;67;000.352;MIDI 01
031.177;000.363;59;000.352;MIDI 01
031.380;000.182;71;000.453;MIDI 01
031.497;000.379;79;000.594;MIDI 01
030.902;001.197;45;000.320;MIDI 01
032.430;000.050;64;000.305;MIDI 01
032.453;000.047;67;000.266;MIDI 01
032.011;000.690;38;000.398;MIDI 01
032.405;000.454;73;000.602;MIDI 01
032.781;000.124;45;000.383;MIDI 01
032.949;000.017;45;000.133;MIDI 01
033.169;000.147;62;000.383;MIDI 01
033.522;000.079;50;000.359;MIDI 01
033.146;000.464;74;000.562;MIDI 01
033.188;000.442;67;000.328;MIDI 01
033.171;000.474;71;000.391;MIDI 01
033.962;000.175;61;000.375;MIDI 01
033.943;000.336;67;000.398;MIDI 01
033.917;000.386;76;000.516;MIDI 01
033.941;000.392;71;000.438;MIDI 01
034.449;001.619;45;000.297;MIDI 01
034.999;002.108;64;000.383;MIDI 01
036.982;000.277;62;000.266;MIDI 01
037.004;001.546;45;000.250;MIDI 01
037.489;001.126;62;000.297;MIDI 01
035.006;003.630;69;000.375;MIDI 01
035.004;003.760;66;000.367;MIDI 01
038.036;001.578;50;000.242;MIDI 01
035.605;004.077;38;000.234;MIDI 01
039.509;000.325;45;000.180;MIDI 01
040.884;001.073;66;000.203;MIDI 01
040.844;001.141;74;000.312;MIDI 01
041.961;000.115;73;000.336;MIDI 01
041.970;000.384;64;000.250;MIDI 01
042.348;000.124;71;000.336;MIDI 01
042.377;000.288;62;000.297;MIDI 01
042.765;000.531;61;000.297;MIDI 01
042.397;001.065;42;000.219;MIDI 01
042.747;000.803;66;000.336;MIDI 01
043.507;000.334;59;000.359;MIDI 01
041.520;002.554;35;000.180;MIDI 01
043.480;000.696;62;000.406;MIDI 01
044.231;000.126;61;000.336;MIDI 01
044.237;000.360;66;000.336;MIDI 01
043.148;001.503;47;000.242;MIDI 01
043.861;000.814;42;000.227;MIDI 01
044.598;000.138;62;000.375;MIDI 01
044.596;000.195;71;000.469;MIDI 01
044.946;000.043;64;000.406;MIDI 01
045.087;000.059;71;000.352;MIDI 01
045.165;000.208;76;000.422;MIDI 01
045.318;000.105;79;000.492;MIDI 01
045.866;001.699;42;000.242;MIDI 01
046.384;001.475;66;000.352;MIDI 01
046.349;001.549;78;000.445;MIDI 01
046.382;001.597;70;000.344;MIDI 01
046.388;001.664;73;000.367;MIDI 01
044.616;004.194;35;000.258;MIDI 01
047.006;001.809;47;000.148;MIDI 01
049.402;000.107;66;000.266;MIDI 01
049.382;000.432;63;000.242;MIDI 01
049.388;000.491;71;000.336;MIDI 01
048.589;001.805;42;000.203;MIDI 01
049.356;001.321;75;000.398;MIDI 01
050.622;000.137;73;000.414;MIDI 01
050.655;000.444;64;000.242;MIDI 01
051.035;000.134;71;000.422;MIDI 01
051.032;000.333;63;000.383;MIDI 01
051.415;000.494;61;000.375;MIDI 01
051.066;001.024;42;000.227;MIDI 01
051.409;000.778;66;000.406;MIDI 01
052.129;000.419;59;000.422;MIDI 01
050.256;002.420;35;000.023;MIDI 01
052.126;000.689;63;000.359;MIDI 01
052.868;000.139;61;000.383;MIDI 01
052.848;000.368;66;000.438;MIDI 01
052.499;000.819;42;000.367;MIDI 01
051.784;001.535;47;000.336;MIDI 01
053.229;000.096;63;000.359;MIDI 01
053.220;000.173;71;000.453;MIDI 01
053.520;000.095;64;000.461;MIDI 01
053.629;000.107;71;000.453;MIDI 01
053.747;000.145;76;000.484;MIDI 01
053.896;000.128;80;000.586;MIDI 01
054.447;001.592;42;000.297;MIDI 01
053.208;002.860;35;000.359;MIDI 01
054.997;001.113;66;000.406;MIDI 01
055.021;001.212;70;000.320;MIDI 01
055.007;001.283;73;000.383;MIDI 01
054.969;001.784;78;000.555;MIDI 01
055.547;001.672;47;000.281;MIDI 01
057.066;001.292;42;000.234;MIDI 01
057.661;001.179;74;000.430;MIDI 01
057.680;001.195;71;000.320;MIDI 01
057.702;001.185;66;000.266;MIDI 01
057.689;001.215;62;000.258;MIDI 01
059.305;000.041;71;000.258;MIDI 01
059.279;000.087;66;000.344;MIDI 01
059.290;000.116;62;000.367;MIDI 01
059.274;000.148;74;000.453;MIDI 01
058.186;001.336;35;000.180;MIDI 01
059.743;000.349;67;000.383;MIDI 01
059.724;000.379;62;000.406;MIDI 01
059.722;000.416;71;000.469;MIDI 01
059.706;000.536;74;000.523;MIDI 01
060.252;000.079;62;000.375;MIDI 01
059.328;001.054;42;000.250;MIDI 01
060.312;000.204;71;000.516;MIDI 01
060.409;000.212;76;000.570;MIDI 01
060.736;000.095;77;000.461;MIDI 01
060.756;000.081;71;000.375;MIDI 01
060.083;000.776;31;000.398;MIDI 01
061.043;000.059;62;000.375;MIDI 01
060.751;001.596;43;000.430;MIDI 01
061.260;001.511;77;000.586;MIDI 01
061.124;002.169;71;000.531;MIDI 01
062.818;001.485;43;000.367;MIDI 01
063.291;001.140;64;000.383;MIDI 01
063.288;001.178;76;000.477;MIDI 01
063.293;001.231;72;000.406;MIDI 01
063.802;001.303;48;000.305;MIDI 01
061.737;003.961;36;000.477;MIDI 01
065.554;000.869;64;000.383;MIDI 01
065.535;000.901;76;000.562;MIDI 01
065.028;001.440;43;000.250;MIDI 01
065.565;000.961;67;000.398;MIDI 01
065.544;001.082;72;000.453;MIDI 01
067.126;000.129;67;000.422;MIDI 01
067.119;000.141;72;000.414;MIDI 01
067.117;000.150;64;000.438;MIDI 01
067.104;000.215;76;000.562;MIDI 01
066.035;001.340;36;000.422;MIDI 01
067.648;000.399;64;000.477;MIDI 01
067.659;000.417;69;000.453;MIDI 01
067.151;000.950;43;000.320;MIDI 01
067.639;000.492;73;000.516;MIDI 01
067.633;000.561;76;000.633;MIDI 01
068.185;000.026;64;000.445;MIDI 01
068.291;000.204;73;000.578;MIDI 01
068.409;000.204;78;000.617;MIDI 01
068.021;000.742;33;000.422;MIDI 01
068.760;000.097;79;000.609;MIDI 01
068.775;000.121;73;000.461;MIDI 01
069.079;000.065;64;000.383;MIDI 01
068.783;001.679;45;000.453;MIDI 01
069.194;001.458;73;000.508;MIDI 01
069.307;001.821;79;000.625;MIDI 01
069.803;002.386;38;000.477;MIDI 01
071.062;001.264;45;000.352;MIDI 01
071.572;001.009;74;000.391;MIDI 01
071.566;001.061;78;000.414;MIDI 01
071.584;001.716;66;000.336;MIDI 01
072.136;001.411;50;000.289;MIDI 01
073.397;000.503;69;000.352;MIDI 01
074.150;000.208;57;000.203;MIDI 01
074.138;000.290;66;000.289;MIDI 01
073.425;001.481;45;000.227;MIDI 01
074.097;000.847;74;000.461;MIDI 01
074.782;000.702;38;000.289;MIDI 01
075.206;000.303;64;000.375;MIDI 01
075.227;000.290;66;000.336;MIDI 01
075.598;000.122;45;000.336;MIDI 01
075.204;000.851;69;000.430;MIDI 01
075.982;000.278;66;000.344;MIDI 01
075.968;000.298;62;000.352;MIDI 01
075.959;000.817;71;000.547;MIDI 01
076.358;000.572;50;000.297;MIDI 01
075.792;001.149;45;000.023;MIDI 01
076.736;000.306;66;000.391;MIDI 01
076.721;000.409;72;000.516;MIDI 01
076.756;000.411;57;000.289;MIDI 01
077.509;000.100;67;000.328;MIDI 01
077.446;000.308;59;000.320;MIDI 01
077.603;000.171;71;000.422;MIDI 01
077.715;000.431;79;000.547;MIDI 01
077.134;001.164;45;000.336;MIDI 01
078.576;000.072;64;000.430;MIDI 01
078.605;000.132;67;000.344;MIDI 01
078.623;000.200;71;000.281;MIDI 01
078.189;000.677;38;000.359;MIDI 01
078.570;000.485;73;000.555;MIDI 01
079.285;000.121;62;000.453;MIDI 01
078.931;000.609;45;000.445;MIDI 01
079.274;000.393;74;000.578;MIDI 01
079.622;000.060;50;000.398;MIDI 01
079.302;000.426;67;000.391;MIDI 01
079.292;000.454;71;000.469;MIDI 01
080.011;000.091;61;000.438;MIDI 01
080.005;000.328;67;000.430;MIDI 01
079.993;000.422;71;000.461;MIDI 01
080.379;000.042;45;000.383;MIDI 01
079.976;000.449;76;000.602;MIDI 01
080.686;000.100;62;000.398;MIDI 01
080.776;000.058;66;000.445;MIDI 01
080.859;000.036;69;000.547;MIDI 01
080.939;000.142;74;000.492;MIDI 01
081.025;000.168;78;000.508;MIDI 01
081.102;000.229;81;000.578;MIDI 01
081.241;000.494;86;000.586;MIDI 01
082.144;000.186;76;000.453;MIDI 01
082.136;000.359;72;000.461;MIDI 01
082.139;000.448;78;000.469;MIDI 01
082.127;000.484;81;000.586;MIDI 01
082.871;000.305;71;000.438;MIDI 01
082.862;000.348;83;000.570;MIDI 01
082.884;000.483;74;000.438;MIDI 01
082.874;000.576;78;000.430;MIDI 01
083.460;000.058;69;000.406;MIDI 01
082.523;001.126;45;000.500;MIDI 01
083.539;000.119;74;000.469;MIDI 01
083.633;000.100;78;000.406;MIDI 01
083.756;000.643;84;000.578;MIDI 01
084.496;000.093;71;000.492;MIDI 01
084.622;000.126;79;000.477;MIDI 01
084.748;000.114;83;000.523;MIDI 01
081.723;003.377;38;000.523;MIDI 01
085.033;000.154;91;000.609;MIDI 01
083.272;002.463;50;000.359;MIDI 01
084.209;001.560;45;000.367;MIDI 01
086.039;000.095;76;000.430;MIDI 01
086.049;000.122;79;000.383;MIDI 01
086.064;000.124;83;000.344;MIDI 01
086.033;000.658;85;000.547;MIDI 01
086.881;000.159;74;000.422;MIDI 01
086.876;000.196;86;000.508;MIDI 01
086.896;000.198;79;000.359;MIDI 01
086.891;000.474;83;000.375;MIDI 01
086.534;000.968;45;000.289;MIDI 01
087.594;000.045;73;000.344;MIDI 01
087.697;000.198;79;000.406;MIDI 01
087.818;000.216;83;000.406;MIDI 01
087.332;001.174;50;000.180;MIDI 01
085.631;002.889;38;000.328;MIDI 01
088.486;000.059;45;000.258;MIDI 01
087.970;001.501;88;000.500;MIDI 01
089.084;000.406;67;000.367;MIDI 01
089.325;000.196;71;000.391;MIDI 01
089.463;000.118;73;000.406;MIDI 01
089.589;000.030;76;000.414;MIDI 01
089.705;002.024;79;000.406;MIDI 01
089.840;001.944;83;000.398;MIDI 01
089.997;001.973;85;000.367;MIDI 01
090.267;001.737;88;000.469;MIDI 01
090.965;003.890;38;000.281;MIDI 01
092.248;002.693;45;000.273;MIDI 01
093.355;001.666;50;000.258;MIDI 01
094.776;000.475;57;000.281;MIDI 01
096.240;003.309;74;000.391;MIDI 01
096.053;003.511;69;000.305;MIDI 01
095.840;004.054;66;000.328;MIDI 01
097.126;002.775;86;000.320;MIDI 01
096.436;003.583;78;000.375;MIDI 01
095.564;004.481;62;000.227;MIDI 01
096.658;003.407;81;000.383;MIDI 01
101.257;000.030;54;000.438;MIDI 01
101.266;000.044;42;000.367;MIDI 01
101.423;000.044;54;000.422;MIDI 01
101.431;000.042;42;000.477;MIDI 01
101.602;000.043;54;000.398;MIDI 01
101.773;000.031;54;000.414;MIDI 01
101.778;000.058;42;000.172;MIDI 01
102.015;000.170;47;000.414;MIDI 01
102.005;000.230;50;000.406;MIDI 01
101.995;000.303;59;000.508;MIDI 01
102.010;000.337;35;000.422;MIDI 01
102.682;000.043;31;000.508;MIDI 01
102.692;000.038;55;000.484;MIDI 01
102.690;000.043;59;000.516;MIDI 01
102.694;000.040;43;000.391;MIDI 01
102.851;000.043;61;000.508;MIDI 01
102.865;000.038;57;000.461;MIDI 01
102.877;000.042;42;000.359;MIDI 01
102.874;000.050;30;000.352;MIDI 01
103.025;000.034;42;000.469;MIDI 01
103.031;000.037;30;000.500;MIDI 01
103.023;000.051;61;000.484;MIDI 01
103.027;000.053;57;000.477;MIDI 01
103.191;000.043;59;000.492;MIDI 01
103.186;000.051;62;000.500;MIDI 01
103.209;000.047;28;000.391;MIDI 01
103.444;000.217;30;000.469;MIDI 01
103.429;000.266;58;000.516;MIDI 01
103.424;000.326;61;000.547;MIDI 01
103.454;000.321;42;000.461;MIDI 01
104.149;000.028;42;000.586;MIDI 01
104.151;000.037;54;000.625;MIDI 01
104.301;000.056;54;000.484;MIDI 01
104.324;000.043;42;000.492;MIDI 01
104.487;000.033;54;000.523;MIDI 01
104.507;000.035;42;000.469;MIDI 01
104.636;000.040;42;000.578;MIDI 01
104.639;000.055;54;000.539;MIDI 01
104.866;000.278;50;000.508;MIDI 01
104.851;000.351;59;000.641;MIDI 01
104.867;000.371;47;000.531;MIDI 01
104.869;000.447;35;000.523;MIDI 01
105.571;000.029;45;000.523;MIDI 01
105.569;000.040;33;000.570;MIDI 01
105.575;000.036;54;000.547;MIDI 01
105.561;000.073;61;000.617;MIDI 01
105.726;000.038;44;000.609;MIDI 01
105.728;000.038;59;000.570;MIDI 01
105.733;000.041;65;000.539;MIDI 01
105.737;000.039;32;000.477;MIDI 01
105.889;000.043;44;000.484;MIDI 01
105.895;000.040;59;000.555;MIDI 01
105.892;000.049;32;000.531;MIDI 01
105.898;000.052;65;000.516;MIDI 01
106.059;000.031;58;000.609;MIDI 01
106.062;000.034;42;000.562;MIDI 01
106.057;000.042;66;000.602;MIDI 01
106.065;000.041;30;000.555;MIDI 01
106.293;000.264;58;000.617;MIDI 01
106.293;000.319;30;000.484;MIDI 01
106.289;000.330;66;000.703;MIDI 01
106.302;000.416;42;000.492;MIDI 01
107.036;000.033;54;000.648;MIDI 01
107.037;000.034;42;000.562;MIDI 01
107.029;000.061;66;000.695;MIDI 01
107.177;000.050;42;000.562;MIDI 01
107.189;000.041;54;000.617;MIDI 01
107.194;000.038;66;000.617;MIDI 01
107.350;000.038;54;000.578;MIDI 01
107.354;000.037;42;000.523;MIDI 01
107.344;000.057;66;000.633;MIDI 01
107.507;000.033;54;000.484;MIDI 01
107.509;000.041;42;000.547;MIDI 01
107.505;000.057;66;000.680;MIDI 01
107.745;000.145;69;000.539;MIDI 01
107.727;000.288;62;000.656;MIDI 01
107.727;000.303;59;000.656;MIDI 01
107.748;000.334;47;000.531;MIDI 01
107.721;000.376;71;000.695;MIDI 01
107.740;000.463;35;000.562;MIDI 01
108.446;000.029;59;000.578;MIDI 01
108.450;000.045;43;000.641;MIDI 01
108.455;000.047;31;000.609;MIDI 01
108.443;000.062;71;000.633;MIDI 01
108.447;000.091;67;000.578;MIDI 01
108.628;000.032;61;000.656;MIDI 01
108.626;000.035;42;000.633;MIDI 01
108.634;000.036;30;000.594;MIDI 01
108.639;000.043;73;000.570;MIDI 01
108.630;000.061;69;000.586;MIDI 01
108.787;000.036;69;000.609;MIDI 01
108.776;000.056;61;000.180;MIDI 01
108.781;000.054;42;000.617;MIDI 01
108.793;000.043;73;000.570;MIDI 01
108.790;000.051;30;000.586;MIDI 01
108.967;000.027;62;000.680;MIDI 01
108.977;000.026;71;000.578;MIDI 01
108.975;000.036;40;000.680;MIDI 01
108.973;000.042;28;000.648;MIDI 01
108.965;000.061;74;000.711;MIDI 01
109.213;000.249;61;000.703;MIDI 01
109.217;000.250;73;000.664;MIDI 01
109.219;000.295;70;000.656;MIDI 01
109.233;000.302;30;000.641;MIDI 01
109.228;000.401;42;000.695;MIDI 01
109.932;000.034;54;000.695;MIDI 01
109.933;000.052;66;000.703;MIDI 01
109.957;000.030;42;000.656;MIDI 01
110.114;000.033;54;000.625;MIDI 01
110.116;000.033;66;000.664;MIDI 01
110.107;000.044;42;000.547;MIDI 01
110.286;000.032;42;000.578;MIDI 01
110.289;000.039;66;000.523;MIDI 01
110.291;000.040;54;000.336;MIDI 01
110.432;000.031;54;000.641;MIDI 01
110.436;000.041;42;000.570;MIDI 01
110.434;000.060;66;000.641;MIDI 01
110.676;000.141;64;000.492;MIDI 01
110.656;000.269;59;000.633;MIDI 01
110.660;000.293;62;000.570;MIDI 01
110.654;000.304;47;000.609;MIDI 01
110.649;000.366;71;000.773;MIDI 01
110.652;000.465;35;000.602;MIDI 01
111.349;000.029;61;000.664;MIDI 01
111.368;000.024;66;000.516;MIDI 01
111.355;000.041;45;000.664;MIDI 01
111.358;000.047;33;000.648;MIDI 01
111.351;000.076;73;000.695;MIDI 01
111.527;000.034;44;000.664;MIDI 01
111.539;000.028;65;000.625;MIDI 01
111.536;000.031;71;000.617;MIDI 01
111.542;000.032;32;000.555;MIDI 01
111.531;000.058;77;000.703;MIDI 01
111.703;000.042;44;000.617;MIDI 01
111.715;000.034;65;000.469;MIDI 01
111.721;000.031;77;000.695;MIDI 01
111.706;000.053;32;000.539;MIDI 01
111.713;000.054;71;000.656;MIDI 01
111.900;000.035;42;000.664;MIDI 01
111.902;000.035;66;000.664;MIDI 01
111.909;000.036;30;000.617;MIDI 01
111.912;000.039;70;000.586;MIDI 01
111.898;000.086;78;000.719;MIDI 01
112.168;000.159;66;000.695;MIDI 01
112.165;000.177;78;000.742;MIDI 01
112.169;000.246;70;000.688;MIDI 01
112.181;000.280;30;000.562;MIDI 01
112.181;000.426;42;000.680;MIDI 01
112.942;000.048;54;000.734;MIDI 01
112.944;000.053;66;000.742;MIDI 01
112.986;000.033;42;000.547;MIDI 01
113.122;000.042;42;000.547;MIDI 01
113.126;000.040;54;000.664;MIDI 01
113.126;000.042;66;000.680;MIDI 01
113.276;000.040;42;000.516;MIDI 01
113.285;000.042;66;000.648;MIDI 01
113.287;000.044;54;000.586;MIDI 01
113.441;000.035;54;000.609;MIDI 01
113.443;000.047;42;000.555;MIDI 01
113.439;000.067;66;000.688;MIDI 01
113.670;000.208;47;000.656;MIDI 01
113.651;000.346;71;000.750;MIDI 01
113.658;000.371;63;000.664;MIDI 01
113.656;000.646;59;000.688;MIDI 01
113.673;000.679;35;000.617;MIDI 01
114.408;000.076;59;000.664;MIDI 01
114.412;000.077;63;000.602;MIDI 01
114.412;000.096;66;000.648;MIDI 01
114.403;000.227;28;000.672;MIDI 01
114.575;000.077;59;000.656;MIDI 01
114.577;000.084;67;000.664;MIDI 01
114.396;000.270;40;000.711;MIDI 01
114.569;000.099;64;000.688;MIDI 01
114.752;000.074;59;000.656;MIDI 01
114.746;000.082;64;000.594;MIDI 01
114.750;000.081;67;000.695;MIDI 01
114.907;000.088;59;000.672;MIDI 01
114.905;000.114;69;000.695;MIDI 01
114.909;000.118;66;000.672;MIDI 01
115.130;000.093;52;000.602;MIDI 01
115.138;000.122;47;000.539;MIDI 01
115.143;000.731;66;000.641;MIDI 01
115.146;000.749;59;000.656;MIDI 01
115.144;000.817;69;000.695;MIDI 01
115.947;000.047;50;000.547;MIDI 01
115.960;000.038;43;000.508;MIDI 01
115.951;000.049;59;000.492;MIDI 01
115.949;000.053;38;000.523;MIDI 01
115.955;000.052;67;000.625;MIDI 01
115.955;000.054;65;000.609;MIDI 01
116.108;000.037;59;000.648;MIDI 01
116.110;000.041;50;000.617;MIDI 01
116.115;000.047;43;000.539;MIDI 01
116.119;000.045;65;000.594;MIDI 01
116.112;000.056;38;000.594;MIDI 01
116.117;000.061;67;000.609;MIDI 01
116.275;000.040;59;000.656;MIDI 01
116.281;000.040;50;000.602;MIDI 01
116.287;000.042;38;000.547;MIDI 01
116.283;000.048;43;000.578;MIDI 01
116.279;000.060;65;000.656;MIDI 01
116.279;000.062;67;000.641;MIDI 01
116.421;000.057;59;000.719;MIDI 01
116.423;000.058;50;000.594;MIDI 01
116.428;000.077;65;000.602;MIDI 01
116.430;000.077;38;000.586;MIDI 01
116.432;000.086;43;000.617;MIDI 01
116.419;000.103;67;000.656;MIDI 01
116.651;000.218;48;000.680;MIDI 01
116.657;000.234;43;000.609;MIDI 01
116.644;000.266;60;000.633;MIDI 01
116.635;000.293;72;000.742;MIDI 01
116.648;000.346;64;000.609;MIDI 01
116.646;000.350;67;000.609;MIDI 01
116.659;000.734;36;000.633;MIDI 01
117.424;000.078;64;000.633;MIDI 01
117.421;000.092;60;000.680;MIDI 01
117.423;000.140;67;000.695;MIDI 01
117.415;000.204;29;000.695;MIDI 01
117.416;000.254;41;000.695;MIDI 01
117.598;000.076;60;000.641;MIDI 01
117.600;000.098;69;000.680;MIDI 01
117.594;000.116;65;000.664;MIDI 01
117.775;000.068;65;000.445;MIDI 01
117.775;000.071;60;000.656;MIDI 01
117.770;000.109;69;000.633;MIDI 01
117.943;000.036;69;000.438;MIDI 01
117.927;000.083;60;000.648;MIDI 01
117.938;000.098;70;000.633;MIDI 01
117.945;000.113;67;000.570;MIDI 01
118.157;000.098;53;000.594;MIDI 01
118.159;000.139;48;000.562;MIDI 01
118.151;000.444;67;000.523;MIDI 01
118.138;000.460;70;000.688;MIDI 01
118.144;000.460;60;000.641;MIDI 01
118.905;000.035;48;000.453;MIDI 01
118.900;000.064;60;000.562;MIDI 01
118.883;000.095;57;000.562;MIDI 01
119.045;000.060;48;000.586;MIDI 01
119.047;000.068;60;000.578;MIDI 01
119.232;000.033;48;000.547;MIDI 01
119.219;000.061;60;000.648;MIDI 01
119.355;000.096;48;000.594;MIDI 01
119.368;000.085;60;000.664;MIDI 01
118.906;000.849;53;000.469;MIDI 01
119.628;000.144;49;000.539;MIDI 01
119.030;000.790;57;000.375;MIDI 01
118.879;000.972;69;000.602;MIDI 01
119.593;000.315;61;000.719;MIDI 01
118.923;001.077;41;000.406;MIDI 01
120.099;000.057;68;000.109;MIDI 01
120.290;000.038;41;000.578;MIDI 01
120.300;000.035;29;000.547;MIDI 01
120.276;000.122;73;000.703;MIDI 01
120.278;000.129;61;000.672;MIDI 01
120.275;000.169;69;000.570;MIDI 01
120.423;000.055;29;000.633;MIDI 01
120.418;000.073;41;000.609;MIDI 01
120.553;000.033;68;000.375;MIDI 01
120.544;000.061;71;000.672;MIDI 01
120.544;000.071;59;000.711;MIDI 01
120.602;000.026;41;000.484;MIDI 01
120.701;000.124;41;000.680;MIDI 01
120.735;000.114;69;000.680;MIDI 01
121.009;000.233;30;000.672;MIDI 01
121.005;000.288;42;000.688;MIDI 01
120.984;000.452;68;000.695;MIDI 01
120.992;000.470;61;000.609;MIDI 01
120.730;000.890;57;000.680;MIDI 01
121.508;000.118;66;000.609;MIDI 01
121.693;000.034;49;000.461;MIDI 01
121.705;000.044;61;000.578;MIDI 01
121.828;000.084;49;000.594;MIDI 01
121.856;000.066;61;000.641;MIDI 01
122.032;000.049;61;000.625;MIDI 01
122.018;000.072;49;000.602;MIDI 01
122.195;000.065;61;000.641;MIDI 01
122.180;000.088;49;000.562;MIDI 01
121.690;000.749;54;000.508;MIDI 01
122.393;000.168;50;000.531;MIDI 01
121.699;000.915;57;000.586;MIDI 01
121.703;000.935;42;000.508;MIDI 01
122.386;000.324;62;000.656;MIDI 01
123.022;000.035;42;000.609;MIDI 01
123.029;000.037;30;000.609;MIDI 01
123.021;000.112;57;000.656;MIDI 01
123.018;000.129;69;000.711;MIDI 01
123.160;000.057;30;000.609;MIDI 01
123.158;000.062;42;000.602;MIDI 01
123.274;000.045;55;000.648;MIDI 01
123.268;000.069;67;000.664;MIDI 01
123.324;000.045;42;000.578;MIDI 01
123.336;000.044;30;000.539;MIDI 01
123.017;000.377;62;000.609;MIDI 01
123.446;000.071;54;000.656;MIDI 01
123.466;000.064;30;000.664;MIDI 01
123.451;000.083;42;000.641;MIDI 01
123.447;000.089;66;000.680;MIDI 01
123.705;000.136;52;000.656;MIDI 01
123.716;000.130;30;000.633;MIDI 01
123.711;000.197;42;000.648;MIDI 01
123.714;000.214;58;000.594;MIDI 01
123.707;000.223;64;000.672;MIDI 01
124.365;000.043;54;000.477;MIDI 01
124.371;000.087;57;000.562;MIDI 01
124.361;000.132;81;000.742;MIDI 01
124.369;000.135;69;000.711;MIDI 01
124.542;000.024;57;000.398;MIDI 01
124.539;000.078;54;000.633;MIDI 01
124.621;000.047;67;000.688;MIDI 01
124.616;000.066;79;000.672;MIDI 01
124.732;000.033;54;000.461;MIDI 01
124.373;000.454;74;000.609;MIDI 01
124.367;000.488;62;000.562;MIDI 01
124.787;000.074;66;000.711;MIDI 01
124.790;000.093;78;000.680;MIDI 01
124.825;000.082;54;000.609;MIDI 01
125.052;000.067;53;000.547;MIDI 01
125.022;000.101;58;000.672;MIDI 01
125.036;000.146;54;000.461;MIDI 01
125.027;000.285;64;000.703;MIDI 01
125.030;000.301;76;000.734;MIDI 01
125.031;000.473;70;000.672;MIDI 01
125.527;000.031;62;000.641;MIDI 01
125.517;000.053;74;000.711;MIDI 01
125.802;000.041;42;000.664;MIDI 01
125.806;000.044;30;000.609;MIDI 01
125.786;000.120;57;000.719;MIDI 01
125.793;000.122;69;000.734;MIDI 01
125.944;000.053;30;000.633;MIDI 01
125.938;000.066;42;000.617;MIDI 01
126.043;000.046;55;000.555;MIDI 01
126.033;000.071;67;000.656;MIDI 01
126.096;000.029;57;000.258;MIDI 01
125.800;000.359;62;000.586;MIDI 01
126.105;000.064;30;000.641;MIDI 01
126.103;000.083;42;000.648;MIDI 01
126.204;000.047;54;000.641;MIDI 01
126.199;000.081;66;000.680;MIDI 01
126.239;000.071;30;000.617;MIDI 01
126.241;000.071;42;000.578;MIDI 01
126.453;000.083;30;000.680;MIDI 01
126.458;000.094;52;000.727;MIDI 01
126.455;000.117;42;000.617;MIDI 01
126.460;000.144;64;000.703;MIDI 01
126.463;000.166;58;000.641;MIDI 01
127.052;000.109;47;000.570;MIDI 01
127.111;000.130;50;000.500;MIDI 01
127.205;000.060;67;000.727;MIDI 01
127.207;000.074;71;000.672;MIDI 01
127.159;000.125;55;000.578;MIDI 01
127.209;000.081;62;000.734;MIDI 01
127.377;000.062;67;000.695;MIDI 01
127.376;000.077;71;000.727;MIDI 01
127.546;000.056;67;000.680;MIDI 01
127.542;000.067;71;000.680;MIDI 01
127.686;000.055;67;000.656;MIDI 01
127.694;000.067;71;000.680;MIDI 01
127.772;000.104;46;000.562;MIDI 01
127.829;000.120;49;000.539;MIDI 01
127.896;000.069;52;000.445;MIDI 01
127.888;000.101;54;000.570;MIDI 01
127.931;000.059;61;000.758;MIDI 01
127.921;000.156;73;000.672;MIDI 01
127.914;000.207;85;000.742;MIDI 01
127.916;000.223;76;000.742;MIDI 01
127.911;000.280;78;000.734;MIDI 01
128.314;000.040;42;000.695;MIDI 01
128.303;000.052;54;000.742;MIDI 01
128.480;000.034;54;000.719;MIDI 01
128.476;000.060;42;000.594;MIDI 01
128.637;000.048;66;000.734;MIDI 01
128.640;000.053;78;000.758;MIDI 01
128.808;000.033;66;000.773;MIDI 01
128.808;000.048;78;000.789;MIDI 01
128.983;000.033;30;000.656;MIDI 01
128.981;000.039;42;000.680;MIDI 01
129.126;000.049;42;000.617;MIDI 01
129.128;000.053;30;000.586;MIDI 01
129.349;000.272;59;000.727;MIDI 01
129.347;000.298;62;000.719;MIDI 01
129.345;000.348;47;000.648;MIDI 01
129.341;000.392;71;000.812;MIDI 01
129.351;000.383;42;000.586;MIDI 01
129.353;000.422;35;000.586;MIDI 01
130.076;000.055;61;000.695;MIDI 01
130.076;000.059;45;000.703;MIDI 01
130.081;000.068;69;000.609;MIDI 01
130.079;000.071;33;000.656;MIDI 01
130.085;000.082;73;000.664;MIDI 01
130.247;000.032;62;000.711;MIDI 01
130.255;000.035;45;000.617;MIDI 01
130.262;000.031;43;000.586;MIDI 01
130.268;000.036;33;000.570;MIDI 01
130.265;000.041;31;000.492;MIDI 01
130.251;000.065;74;000.703;MIDI 01
130.249;000.069;71;000.641;MIDI 01
130.417;000.032;62;000.641;MIDI 01
130.425;000.040;71;000.594;MIDI 01
130.427;000.050;31;000.602;MIDI 01
130.422;000.058;43;000.594;MIDI 01
130.420;000.062;74;000.703;MIDI 01
130.589;000.028;64;000.688;MIDI 01
130.598;000.033;28;000.688;MIDI 01
130.582;000.051;76;000.758;MIDI 01
130.637;000.002;29;000.320;MIDI 01
130.586;000.064;73;000.695;MIDI 01
130.615;000.037;40;000.438;MIDI 01
130.619;000.036;41;000.375;MIDI 01
130.709;000.056;64;000.133;MIDI 01
130.828;000.032;30;000.664;MIDI 01
130.818;000.045;61;000.805;MIDI 01
130.824;000.043;42;000.711;MIDI 01
130.820;000.110;70;000.727;MIDI 01
130.815;000.120;73;000.758;MIDI 01
131.197;000.051;47;000.641;MIDI 01
131.195;000.055;59;000.727;MIDI 01
131.356;000.045;59;000.742;MIDI 01
131.361;000.060;47;000.688;MIDI 01
131.544;000.047;71;000.719;MIDI 01
131.542;000.059;83;000.758;MIDI 01
131.716;000.030;71;000.719;MIDI 01
131.714;000.050;83;000.750;MIDI 01
131.881;000.040;47;000.594;MIDI 01
131.890;000.035;35;000.531;MIDI 01
132.023;000.045;35;000.617;MIDI 01
132.018;000.058;47;000.641;MIDI 01
132.235;000.293;64;000.766;MIDI 01
132.242;000.357;47;000.617;MIDI 01
132.238;000.366;67;000.734;MIDI 01
132.230;000.442;76;000.828;MIDI 01
132.245;000.447;40;000.633;MIDI 01
132.242;000.455;52;000.641;MIDI 01
133.059;000.002;36;000.414;MIDI 01
133.024;000.056;66;000.734;MIDI 01
133.028;000.057;50;000.625;MIDI 01
133.034;000.068;38;000.578;MIDI 01
133.029;000.077;74;000.664;MIDI 01
133.026;000.121;78;000.695;MIDI 01
133.207;000.035;67;000.695;MIDI 01
133.228;000.034;50;000.539;MIDI 01
133.229;000.035;48;000.555;MIDI 01
133.242;000.026;38;000.539;MIDI 01
133.224;000.047;36;000.547;MIDI 01
133.209;000.071;79;000.711;MIDI 01
133.207;000.081;76;000.648;MIDI 01
133.386;000.031;67;000.695;MIDI 01
133.390;000.051;48;000.609;MIDI 01
133.396;000.052;36;000.617;MIDI 01
133.392;000.058;76;000.664;MIDI 01
133.396;000.055;79;000.711;MIDI 01
133.569;000.029;69;000.719;MIDI 01
133.579;000.041;45;000.672;MIDI 01
133.583;000.050;33;000.680;MIDI 01
133.565;000.077;81;000.742;MIDI 01
133.572;000.152;78;000.680;MIDI 01
133.856;000.158;66;000.781;MIDI 01
133.867;000.197;35;000.656;MIDI 01
133.860;000.257;75;000.680;MIDI 01
133.854;000.266;78;000.727;MIDI 01
133.864;000.259;47;000.703;MIDI 01
134.670;000.084;60;000.703;MIDI 01
134.644;000.115;71;000.633;MIDI 01
134.704;000.119;84;000.742;MIDI 01
134.964;000.067;71;000.680;MIDI 01
134.971;000.077;59;000.719;MIDI 01
134.982;000.075;83;000.742;MIDI 01
135.192;000.060;71;000.672;MIDI 01
134.673;000.603;47;000.672;MIDI 01
135.196;000.092;57;000.656;MIDI 01
135.201;000.089;81;000.750;MIDI 01
135.422;000.069;71;000.727;MIDI 01
135.489;000.003;48;000.250;MIDI 01
135.429;000.141;79;000.750;MIDI 01
135.427;000.156;55;000.719;MIDI 01
135.671;000.080;71;000.680;MIDI 01
135.688;000.096;54;000.633;MIDI 01
135.685;000.122;78;000.703;MIDI 01
135.435;000.433;47;000.594;MIDI 01
135.876;000.032;71;000.648;MIDI 01
135.879;000.081;76;000.680;MIDI 01
135.878;000.124;52;000.617;MIDI 01
136.053;000.043;48;000.602;MIDI 01
136.074;000.066;72;000.656;MIDI 01
136.109;000.041;74;000.422;MIDI 01
136.167;000.079;64;000.719;MIDI 01
136.176;000.070;88;000.758;MIDI 01
136.467;000.015;72;000.547;MIDI 01
136.463;000.074;62;000.688;MIDI 01
136.465;000.076;86;000.742;MIDI 01
136.506;000.041;74;000.320;MIDI 01
136.680;000.002;72;000.383;MIDI 01
136.691;000.036;62;000.484;MIDI 01
136.693;000.046;60;000.531;MIDI 01
136.696;000.071;84;000.734;MIDI 01
136.894;000.046;72;000.594;MIDI 01
136.916;000.026;84;000.672;MIDI 01
136.903;000.057;59;000.664;MIDI 01
136.909;000.054;83;000.633;MIDI 01
136.901;000.065;48;000.680;MIDI 01
137.111;000.050;57;000.656;MIDI 01
137.104;000.059;72;000.719;MIDI 01
137.116;000.058;50;000.625;MIDI 01
137.118;000.057;81;000.727;MIDI 01
137.309;000.058;55;000.695;MIDI 01
137.316;000.053;72;000.719;MIDI 01
137.323;000.074;52;000.617;MIDI 01
137.325;000.083;79;000.703;MIDI 01
137.566;000.052;74;000.719;MIDI 01
137.555;000.070;54;000.711;MIDI 01
137.568;000.062;78;000.773;MIDI 01
137.914;000.040;66;000.703;MIDI 01
137.919;000.043;42;000.648;MIDI 01
137.906;000.057;54;000.711;MIDI 01
137.921;000.045;70;000.641;MIDI 01
137.918;000.080;73;000.680;MIDI 01
138.264;000.037;47;000.625;MIDI 01
138.249;000.055;54;000.688;MIDI 01
138.247;000.059;66;000.711;MIDI 01
138.245;000.065;71;000.602;MIDI 01
138.242;000.069;74;000.680;MIDI 01
138.584;000.025;61;000.703;MIDI 01
138.581;000.048;54;000.742;MIDI 01
138.588;000.046;42;000.664;MIDI 01
138.591;000.043;66;000.641;MIDI 01
138.585;000.080;70;000.664;MIDI 01
138.904;000.052;62;000.703;MIDI 01
138.902;000.058;71;000.703;MIDI 01
138.906;000.065;54;000.688;MIDI 01
138.909;000.066;66;000.633;MIDI 01
138.912;000.068;47;000.609;MIDI 01
139.242;000.061;58;000.734;MIDI 01
139.248;000.058;54;000.703;MIDI 01
139.250;000.057;61;000.664;MIDI 01
139.246;000.068;42;000.664;MIDI 01
139.257;000.075;66;000.680;MIDI 01
139.599;000.049;54;000.664;MIDI 01
139.601;000.052;59;000.688;MIDI 01
139.605;000.059;62;000.680;MIDI 01
139.609;000.065;47;000.602;MIDI 01
139.603;000.077;66;000.695;MIDI 01
139.855;000.052;54;000.070;MIDI 01
139.991;000.055;54;000.727;MIDI 01
139.984;000.065;42;000.688;MIDI 01
139.990;000.085;58;000.680;MIDI 01
139.993;000.095;61;000.656;MIDI 01
140.384;000.059;47;000.695;MIDI 01
140.390;000.067;59;000.562;MIDI 01
140.385;000.071;62;000.664;MIDI 01
140.387;000.070;54;000.680;MIDI 01
140.805;000.030;30;000.672;MIDI 01
140.799;000.039;42;000.719;MIDI 01
140.815;000.057;49;000.711;MIDI 01
140.821;000.066;54;000.609;MIDI 01
140.818;000.082;58;000.688;MIDI 01
142.167;000.043;51;000.438;MIDI 01
142.247;000.030;66;000.547;MIDI 01
142.240;000.041;35;000.406;MIDI 01
142.614;000.033;52;000.406;MIDI 01
142.616;000.034;64;000.516;MIDI 01
142.643;000.042;37;000.336;MIDI 01
142.870;000.031;54;000.328;MIDI 01
142.901;000.040;39;000.391;MIDI 01
142.875;000.077;63;000.375;MIDI 01
143.131;000.033;56;000.414;MIDI 01
143.140;000.032;61;000.406;MIDI 01
143.134;000.040;40;000.414;MIDI 01
143.350;000.030;57;000.422;MIDI 01
143.370;000.040;60;000.422;MIDI 01
143.380;000.053;42;000.438;MIDI 01
143.581;000.034;56;000.414;MIDI 01
143.594;000.045;61;000.430;MIDI 01
143.615;000.046;40;000.328;MIDI 01
143.801;000.029;52;000.461;MIDI 01
143.804;000.052;64;000.477;MIDI 01
143.823;000.053;37;000.414;MIDI 01
144.025;000.027;63;000.461;MIDI 01
144.027;000.028;54;000.438;MIDI 01
144.023;000.042;39;000.453;MIDI 01
144.232;000.053;61;000.492;MIDI 01
144.244;000.044;40;000.422;MIDI 01
144.252;000.039;56;000.336;MIDI 01
144.446;000.034;55;000.406;MIDI 01
144.436;000.062;59;000.477;MIDI 01
144.468;000.040;41;000.391;MIDI 01
144.670;000.035;54;000.359;MIDI 01
144.674;000.041;58;000.375;MIDI 01
144.683;000.049;42;000.328;MIDI 01
144.883;000.039;58;000.297;MIDI 01
144.900;000.040;40;000.375;MIDI 01
144.890;000.056;61;000.461;MIDI 01
145.082;000.037;54;000.477;MIDI 01
145.124;000.041;39;000.469;MIDI 01
145.139;000.033;69;000.578;MIDI 01
145.349;000.039;56;000.336;MIDI 01
145.373;000.036;68;000.555;MIDI 01
145.372;000.041;40;000.469;MIDI 01
145.597;000.001;57;000.164;MIDI 01
145.573;000.034;66;000.531;MIDI 01
145.571;000.045;42;000.430;MIDI 01
145.767;000.044;64;000.484;MIDI 01
145.798;000.039;44;000.352;MIDI 01
145.796;000.044;59;000.258;MIDI 01
145.966;000.033;60;000.438;MIDI 01
145.991;000.047;45;000.375;MIDI 01
146.006;000.042;63;000.289;MIDI 01
146.148;000.034;59;000.500;MIDI 01
146.173;000.047;64;000.430;MIDI 01
146.190;000.053;44;000.359;MIDI 01
146.369;000.040;37;000.492;MIDI 01
146.399;000.036;68;000.578;MIDI 01
146.613;000.036;40;000.422;MIDI 01
146.626;000.031;64;000.398;MIDI 01
146.672;000.064;56;000.070;MIDI 01
142.226;004.636;47;000.492;MIDI 01
146.828;000.040;59;000.484;MIDI 01
146.863;000.035;44;000.406;MIDI 01
146.876;000.042;61;000.281;MIDI 01
147.062;000.043;42;000.531;MIDI 01
147.109;000.037;59;000.297;MIDI 01
147.320;000.041;30;000.523;MIDI 01
147.322;000.042;61;000.523;MIDI 01
147.619;000.047;58;000.227;MIDI 01
147.625;000.043;42;000.383;MIDI 01
147.626;000.056;49;000.078;MIDI 01
147.974;000.036;35;000.430;MIDI 01
147.968;000.050;51;000.195;MIDI 01
148.010;000.039;66;000.539;MIDI 01
148.281;000.030;64;000.453;MIDI 01
148.271;000.043;52;000.289;MIDI 01
148.283;000.045;37;000.398;MIDI 01
148.499;000.053;63;000.445;MIDI 01
148.514;000.044;39;000.438;MIDI 01
148.519;000.042;54;000.281;MIDI 01
148.730;000.039;56;000.438;MIDI 01
148.733;000.039;40;000.461;MIDI 01
148.750;000.030;61;000.375;MIDI 01
148.940;000.036;57;000.359;MIDI 01
148.961;000.035;60;000.359;MIDI 01
148.964;000.047;42;000.414;MIDI 01
149.169;000.047;61;000.453;MIDI 01
149.182;000.036;56;000.328;MIDI 01
149.182;000.044;40;000.328;MIDI 01
149.358;000.030;52;000.453;MIDI 01
149.381;000.042;64;000.445;MIDI 01
149.393;000.049;37;000.398;MIDI 01
149.578;000.032;54;000.516;MIDI 01
149.583;000.040;39;000.398;MIDI 01
149.610;000.052;63;000.180;MIDI 01
149.799;000.046;40;000.422;MIDI 01
149.818;000.036;61;000.352;MIDI 01
149.809;000.049;56;000.430;MIDI 01
149.996;000.039;55;000.500;MIDI 01
150.012;000.047;41;000.391;MIDI 01
150.004;000.085;59;000.445;MIDI 01
150.222;000.032;54;000.414;MIDI 01
150.217;000.040;58;000.430;MIDI 01
150.228;000.048;42;000.375;MIDI 01
150.423;000.040;58;000.320;MIDI 01
150.438;000.035;40;000.422;MIDI 01
150.440;000.046;61;000.453;MIDI 01
150.608;000.034;54;000.508;MIDI 01
150.650;000.044;39;000.500;MIDI 01
150.679;000.033;69;000.594;MIDI 01
150.915;000.042;40;000.453;MIDI 01
150.923;000.038;56;000.391;MIDI 01
150.926;000.046;68;000.578;MIDI 01
151.122;000.027;57;000.461;MIDI 01
151.108;000.045;42;000.508;MIDI 01
151.127;000.042;66;000.547;MIDI 01
151.344;000.031;59;000.383;MIDI 01
151.340;000.044;44;000.500;MIDI 01
151.320;000.066;64;000.523;MIDI 01
151.510;000.036;60;000.562;MIDI 01
151.536;000.043;45;000.469;MIDI 01
151.536;000.051;63;000.469;MIDI 01
151.689;000.043;59;000.562;MIDI 01
151.725;000.047;44;000.461;MIDI 01
151.713;000.068;64;000.523;MIDI 01
151.846;000.034;52;000.531;MIDI 01
151.931;000.043;37;000.461;MIDI 01
151.960;000.041;68;000.594;MIDI 01
152.169;000.041;40;000.422;MIDI 01
152.191;000.029;56;000.438;MIDI 01
152.180;000.045;64;000.516;MIDI 01
147.953;004.467;47;000.570;MIDI 01
152.406;000.045;59;000.391;MIDI 01
152.427;000.036;44;000.336;MIDI 01
152.414;000.060;61;000.453;MIDI 01
152.651;000.033;51;000.445;MIDI 01
152.659;000.037;42;000.406;MIDI 01
152.693;000.048;59;000.188;MIDI 01
152.908;000.037;30;000.438;MIDI 01
152.901;000.056;61;000.469;MIDI 01
153.216;000.042;49;000.273;MIDI 01
153.222;000.037;58;000.305;MIDI 01
153.232;000.040;42;000.414;MIDI 01
153.536;000.027;57;000.453;MIDI 01
153.550;000.030;61;000.422;MIDI 01
153.818;000.028;65;000.359;MIDI 01
153.812;000.040;59;000.297;MIDI 01
153.815;000.053;44;000.500;MIDI 01
154.048;000.040;45;000.383;MIDI 01
154.044;000.047;66;000.445;MIDI 01
154.062;000.049;61;000.180;MIDI 01
154.249;000.040;62;000.367;MIDI 01
154.272;000.036;47;000.352;MIDI 01
154.325;000.049;68;000.141;MIDI 01
154.464;000.045;61;000.438;MIDI 01
154.488;000.034;45;000.320;MIDI 01
154.668;000.040;62;000.352;MIDI 01
154.697;000.039;47;000.328;MIDI 01
154.692;000.046;68;000.445;MIDI 01
154.891;000.033;57;000.359;MIDI 01
154.882;000.051;61;000.477;MIDI 01
154.897;000.042;42;000.445;MIDI 01
155.103;000.050;59;000.234;MIDI 01
155.120;000.037;44;000.352;MIDI 01
155.119;000.045;65;000.188;MIDI 01
155.283;000.031;61;000.406;MIDI 01
155.291;000.045;66;000.477;MIDI 01
155.301;000.047;45;000.461;MIDI 01
153.521;001.827;49;000.562;MIDI 01
155.486;000.032;47;000.438;MIDI 01
155.472;000.047;62;000.547;MIDI 01
155.494;000.037;40;000.477;MIDI 01
155.489;000.061;68;000.570;MIDI 01
155.697;000.030;61;000.406;MIDI 01
155.714;000.045;45;000.477;MIDI 01
155.699;000.067;66;000.484;MIDI 01
155.893;000.044;62;000.516;MIDI 01
155.929;000.037;68;000.312;MIDI 01
155.927;000.044;47;000.383;MIDI 01
156.119;000.035;45;000.438;MIDI 01
156.113;000.044;61;000.477;MIDI 01
156.098;000.067;69;000.531;MIDI 01
156.304;000.033;62;000.500;MIDI 01
156.295;000.062;71;000.594;MIDI 01
156.311;000.051;44;000.438;MIDI 01
155.474;001.018;52;000.586;MIDI 01
156.472;000.037;64;000.555;MIDI 01
156.496;000.034;43;000.523;MIDI 01
156.492;000.074;73;000.562;MIDI 01
156.720;000.010;42;000.156;MIDI 01
156.708;000.026;72;000.430;MIDI 01
156.707;000.033;67;000.375;MIDI 01
156.720;000.023;69;000.391;MIDI 01
156.688;000.062;74;000.539;MIDI 01
156.720;000.042;43;000.320;MIDI 01
156.873;000.049;67;000.461;MIDI 01
156.907;000.044;40;000.477;MIDI 01
156.892;000.059;73;000.562;MIDI 01
157.083;000.042;69;000.492;MIDI 01
157.094;000.042;42;000.438;MIDI 01
157.100;000.062;74;000.516;MIDI 01
157.280;000.040;66;000.484;MIDI 01
157.284;000.043;38;000.445;MIDI 01
157.282;000.045;74;000.555;MIDI 01
157.480;000.032;67;000.469;MIDI 01
157.495;000.042;37;000.414;MIDI 01
157.507;000.035;76;000.398;MIDI 01
157.485;000.057;77;000.445;MIDI 01
156.679;001.005;45;000.586;MIDI 01
157.676;000.028;69;000.445;MIDI 01
157.690;000.040;36;000.453;MIDI 01
157.678;000.070;78;000.578;MIDI 01
157.883;000.040;74;000.562;MIDI 01
157.893;000.043;35;000.469;MIDI 01
157.878;000.089;79;000.609;MIDI 01
158.083;000.042;33;000.477;MIDI 01
158.092;000.036;73;000.469;MIDI 01
158.097;000.053;78;000.422;MIDI 01
158.294;000.035;74;000.492;MIDI 01
158.291;000.045;79;000.492;MIDI 01
158.300;000.043;35;000.438;MIDI 01
158.484;000.058;74;000.414;MIDI 01
158.498;000.058;35;000.375;MIDI 01
158.520;000.043;80;000.578;MIDI 01
158.732;000.029;73;000.414;MIDI 01
158.735;000.042;33;000.398;MIDI 01
158.745;000.042;78;000.438;MIDI 01
158.920;000.022;71;000.477;MIDI 01
158.914;000.036;77;000.539;MIDI 01
158.939;000.043;32;000.438;MIDI 01
159.089;000.024;69;000.492;MIDI 01
159.119;000.035;74;000.344;MIDI 01
159.121;000.035;30;000.453;MIDI 01
159.293;000.031;68;000.398;MIDI 01
159.284;000.044;73;000.516;MIDI 01
159.297;000.041;28;000.414;MIDI 01
159.477;000.026;66;000.453;MIDI 01
159.501;000.038;71;000.273;MIDI 01
159.511;000.075;26;000.352;MIDI 01
157.886;001.708;38;000.516;MIDI 01
159.682;000.034;65;000.477;MIDI 01
159.699;000.029;69;000.422;MIDI 01
159.896;000.025;64;000.438;MIDI 01
159.901;000.026;68;000.430;MIDI 01
160.080;000.042;62;000.500;MIDI 01
160.119;000.039;66;000.281;MIDI 01
160.310;000.032;61;000.375;MIDI 01
160.299;000.050;65;000.453;MIDI 01
160.519;000.028;59;000.430;MIDI 01
160.517;000.043;62;000.477;MIDI 01
159.701;001.091;25;000.367;MIDI 01
160.749;000.043;57;000.438;MIDI 01
160.752;000.051;61;000.414;MIDI 01
160.994;000.028;55;000.469;MIDI 01
161.000;000.046;61;000.484;MIDI 01
161.002;000.049;52;000.469;MIDI 01
161.004;000.181;42;000.492;MIDI 01
161.240;000.027;54;000.414;MIDI 01
161.240;000.053;59;000.406;MIDI 01
161.430;000.051;49;000.445;MIDI 01
161.446;000.042;58;000.477;MIDI 01
161.464;000.027;52;000.398;MIDI 01
161.642;000.026;50;000.484;MIDI 01
161.644;000.032;55;000.484;MIDI 01
161.640;000.039;47;000.336;MIDI 01
161.820;000.044;45;000.406;MIDI 01
161.835;000.037;49;000.453;MIDI 01
161.838;000.048;54;000.453;MIDI 01
162.052;000.031;47;000.391;MIDI 01
162.052;000.036;52;000.359;MIDI 01
162.081;000.052;43;000.180;MIDI 01
161.226;001.064;42;000.273;MIDI 01
162.292;000.056;47;000.094;MIDI 01
162.282;000.067;50;000.359;MIDI 01
162.488;000.049;46;000.391;MIDI 01
162.491;000.055;49;000.383;MIDI 01
162.292;000.403;40;000.391;MIDI 01
162.696;000.041;47;000.477;MIDI 01
162.715;000.055;50;000.422;MIDI 01
162.904;000.057;46;000.492;MIDI 01
162.923;000.053;49;000.453;MIDI 01
162.713;000.390;41;000.422;MIDI 01
163.134;000.033;47;000.438;MIDI 01
163.164;000.048;50;000.352;MIDI 01
163.392;000.044;49;000.305;MIDI 01
163.395;000.047;46;000.195;MIDI 01
163.132;000.483;40;000.359;MIDI 01
163.615;000.041;47;000.352;MIDI 01
163.668;000.045;50;000.258;MIDI 01
163.890;000.048;46;000.289;MIDI 01
163.909;000.061;49;000.328;MIDI 01
164.136;000.046;47;000.344;MIDI 01
164.196;000.045;50;000.289;MIDI 01
164.479;000.060;46;000.086;MIDI 01
163.646;000.906;41;000.297;MIDI 01
164.510;000.062;49;000.188;MIDI 01
164.824;000.058;47;000.156;MIDI 01
164.852;000.066;50;000.273;MIDI 01
165.267;000.082;46;000.172;MIDI 01
165.305;000.150;49;000.148;MIDI 01
166.033;000.081;51;000.148;MIDI 01
164.504;001.827;42;000.094;MIDI 01
166.304;000.174;66;000.320;MIDI 01
166.253;000.231;35;000.164;MIDI 01
166.847;000.125;64;000.359;MIDI 01
166.849;000.154;52;000.266;MIDI 01
166.864;000.190;37;000.289;MIDI 01
167.205;000.266;39;000.320;MIDI 01
167.182;000.293;63;000.422;MIDI 01
167.210;000.303;54;000.336;MIDI 01
167.458;000.268;61;000.414;MIDI 01
167.480;000.264;40;000.328;MIDI 01
167.518;000.249;56;000.305;MIDI 01
167.752;000.186;57;000.367;MIDI 01
167.759;000.217;42;000.336;MIDI 01
167.736;000.247;60;000.422;MIDI 01
167.976;000.084;56;000.414;MIDI 01
168.022;000.258;40;000.273;MIDI 01
167.983;000.297;61;000.445;MIDI 01
168.318;000.182;52;000.289;MIDI 01
168.315;000.284;64;000.398;MIDI 01
168.331;000.300;37;000.281;MIDI 01
168.677;000.050;54;000.352;MIDI 01
168.652;000.221;39;000.359;MIDI 01
168.613;000.377;63;000.484;MIDI 01
168.864;000.135;61;000.445;MIDI 01
168.873;000.190;40;000.414;MIDI 01
168.890;000.256;56;000.430;MIDI 01
169.150;000.081;55;000.375;MIDI 01
169.115;000.242;41;000.336;MIDI 01
169.144;000.268;59;000.430;MIDI 01
169.403;000.156;58;000.430;MIDI 01
169.399;000.235;42;000.398;MIDI 01
169.401;000.282;54;000.445;MIDI 01
169.698;000.066;58;000.422;MIDI 01
169.695;000.106;40;000.336;MIDI 01
169.679;000.141;61;000.500;MIDI 01
166.265;003.680;47;000.023;MIDI 01
170.042;000.077;54;000.508;MIDI 01
170.135;000.315;39;000.359;MIDI 01
170.536;000.120;56;000.492;MIDI 01
170.555;000.249;40;000.430;MIDI 01
170.184;000.630;69;000.445;MIDI 01
170.818;000.211;57;000.453;MIDI 01
170.821;000.235;42;000.391;MIDI 01
171.072;000.236;59;000.445;MIDI 01
171.082;000.270;44;000.367;MIDI 01
170.802;000.662;68;000.562;MIDI 01
171.399;000.231;45;000.305;MIDI 01
171.346;000.307;60;000.430;MIDI 01
171.356;000.358;66;000.508;MIDI 01
171.651;000.287;59;000.445;MIDI 01
171.682;000.260;44;000.352;MIDI 01
172.011;000.178;52;000.391;MIDI 01
172.022;000.293;37;000.352;MIDI 01
172.370;000.299;54;000.344;MIDI 01
172.385;000.293;39;000.320;MIDI 01
172.011;000.758;64;000.375;MIDI 01
172.723;000.342;40;000.258;MIDI 01
172.704;000.394;56;000.320;MIDI 01
172.697;000.883;63;000.344;MIDI 01
173.104;000.537;41;000.219;MIDI 01
173.110;001.142;59;000.312;MIDI 01
173.614;000.669;44;000.148;MIDI 01
173.575;001.024;61;000.328;MIDI 01
174.199;000.438;58;000.203;MIDI 01
170.110;004.656;47;000.359;MIDI 01
174.258;000.602;42;000.188;MIDI 01
175.915;000.039;43;000.375;MIDI 01
176.068;000.037;42;000.430;MIDI 01
175.124;000.996;52;000.258;MIDI 01
175.132;001.047;55;000.258;MIDI 01
176.215;000.043;42;000.453;MIDI 01
176.403;000.038;40;000.391;MIDI 01
175.113;001.492;59;000.336;MIDI 01
176.621;000.824;49;000.273;MIDI 01
176.621;000.853;58;000.359;MIDI 01
176.611;000.884;54;000.133;MIDI 01
178.951;000.053;43;000.281;MIDI 01
179.097;000.040;42;000.477;MIDI 01
178.216;000.981;52;000.289;MIDI 01
179.455;000.037;40;000.398;MIDI 01
178.205;001.421;59;000.336;MIDI 01
178.203;001.677;55;000.320;MIDI 01
179.668;000.902;49;000.328;MIDI 01
179.666;000.979;58;000.320;MIDI 01
179.916;000.743;54;000.344;MIDI 01
182.149;000.054;38;000.398;MIDI 01
182.328;000.036;37;000.398;MIDI 01
181.340;001.179;50;000.273;MIDI 01
182.478;000.053;37;000.445;MIDI 01
182.675;000.042;36;000.336;MIDI 01
182.924;000.957;48;000.273;MIDI 01
181.322;002.601;57;000.320;MIDI 01
181.341;002.711;54;000.250;MIDI 01
185.671;000.105;37;000.195;MIDI 01
184.760;002.041;49;000.219;MIDI 01
184.762;002.160;53;000.211;MIDI 01
184.742;002.184;56;000.273;MIDI 01
187.625;000.043;54;000.250;MIDI 01
187.620;000.050;42;000.273;MIDI 01
187.795;000.034;54;000.359;MIDI 01
187.801;000.050;42;000.305;MIDI 01
187.959;000.039;54;000.398;MIDI 01
187.971;000.042;42;000.367;MIDI 01
188.134;000.032;54;000.344;MIDI 01
188.128;000.047;42;000.406;MIDI 01
188.405;000.320;47;000.297;MIDI 01
188.384;000.360;50;000.289;MIDI 01
188.372;000.413;59;000.414;MIDI 01
188.380;000.465;35;000.305;MIDI 01
189.155;000.052;59;000.422;MIDI 01
189.172;000.039;55;000.344;MIDI 01
189.166;000.050;31;000.383;MIDI 01
189.176;000.053;43;000.250;MIDI 01
189.330;000.049;61;000.484;MIDI 01
189.341;000.042;30;000.383;MIDI 01
189.344;000.041;57;000.453;MIDI 01
189.360;000.064;42;000.180;MIDI 01
189.500;000.033;30;000.477;MIDI 01
189.500;000.056;61;000.484;MIDI 01
189.511;000.052;42;000.180;MIDI 01
189.505;000.092;57;000.414;MIDI 01
189.672;000.036;28;000.453;MIDI 01
189.680;000.043;62;000.492;MIDI 01
189.678;000.048;59;000.383;MIDI 01
189.901;000.292;58;000.367;MIDI 01
189.925;000.285;30;000.305;MIDI 01
189.884;000.341;61;000.477;MIDI 01
189.920;000.359;42;000.359;MIDI 01
190.652;000.028;54;000.430;MIDI 01
190.658;000.042;42;000.359;MIDI 01
190.818;000.039;42;000.445;MIDI 01
190.814;000.046;54;000.414;MIDI 01
190.993;000.042;42;000.391;MIDI 01
190.986;000.049;54;000.461;MIDI 01
191.146;000.044;42;000.516;MIDI 01
191.162;000.043;54;000.469;MIDI 01
191.403;000.351;50;000.406;MIDI 01
191.397;000.398;59;000.500;MIDI 01
191.412;000.466;47;000.391;MIDI 01
191.406;000.614;35;000.406;MIDI 01
192.185;000.031;45;000.469;MIDI 01
192.183;000.035;33;000.492;MIDI 01
192.193;000.027;54;000.438;MIDI 01
192.189;000.046;61;000.539;MIDI 01
192.351;000.031;44;000.484;MIDI 01
192.368;000.035;59;000.422;MIDI 01
192.366;000.040;65;000.438;MIDI 01
192.366;000.048;32;000.367;MIDI 01
192.518;000.050;44;000.453;MIDI 01
192.532;000.041;59;000.492;MIDI 01
192.530;000.051;32;000.469;MIDI 01
192.528;000.058;65;000.477;MIDI 01
192.717;000.025;58;000.484;MIDI 01
192.715;000.037;42;000.430;MIDI 01
192.710;000.044;66;000.539;MIDI 01
192.723;000.043;30;000.414;MIDI 01
192.928;000.236;30;000.344;MIDI 01
192.941;000.279;58;000.461;MIDI 01
192.943;000.336;66;000.484;MIDI 01
192.926;000.422;42;000.320;MIDI 01
193.710;000.034;66;000.586;MIDI 01
193.724;000.030;54;000.469;MIDI 01
193.718;000.039;42;000.469;MIDI 01
193.857;000.053;42;000.570;MIDI 01
193.867;000.048;54;000.539;MIDI 01
193.860;000.065;66;000.492;MIDI 01
194.052;000.029;66;000.570;MIDI 01
194.046;000.036;54;000.531;MIDI 01
194.067;000.033;42;000.484;MIDI 01
194.197;000.031;54;000.523;MIDI 01
194.195;000.043;42;000.570;MIDI 01
194.184;000.075;66;000.555;MIDI 01
194.440;000.338;59;000.703;MIDI 01
194.450;000.396;47;000.633;MIDI 01
194.438;000.428;63;000.672;MIDI 01
194.434;000.440;71;000.797;MIDI 01
194.452;000.478;35;000.656;MIDI 01
195.210;000.043;46;000.672;MIDI 01
195.221;000.046;34;000.641;MIDI 01
195.213;000.056;61;000.727;MIDI 01
195.219;000.076;70;000.680;MIDI 01
195.218;000.101;73;000.688;MIDI 01
195.380;000.047;63;000.711;MIDI 01
195.382;000.047;44;000.680;MIDI 01
195.393;000.048;32;000.562;MIDI 01
195.393;000.077;75;000.648;MIDI 01
195.383;000.106;71;000.656;MIDI 01
195.562;000.031;63;000.664;MIDI 01
195.558;000.042;44;000.633;MIDI 01
195.562;000.049;71;000.586;MIDI 01
195.568;000.069;75;000.695;MIDI 01
195.556;000.084;32;000.602;MIDI 01
195.744;000.027;64;000.664;MIDI 01
195.746;000.037;40;000.656;MIDI 01
195.750;000.043;28;000.656;MIDI 01
195.739;000.073;73;000.688;MIDI 01
195.736;000.077;76;000.727;MIDI 01
196.008;000.273;75;000.711;MIDI 01
196.002;000.286;71;000.688;MIDI 01
196.005;000.328;63;000.734;MIDI 01
196.007;000.340;42;000.758;MIDI 01
196.010;000.659;30;000.711;MIDI 01
196.774;000.037;70;000.625;MIDI 01
196.767;000.058;61;000.719;MIDI 01
196.771;000.073;73;000.648;MIDI 01
196.767;000.213;28;000.727;MIDI 01
196.938;000.046;61;000.672;MIDI 01
196.940;000.062;73;000.625;MIDI 01
196.942;000.072;70;000.586;MIDI 01
196.756;000.292;40;000.750;MIDI 01
197.107;000.046;61;000.664;MIDI 01
197.109;000.054;73;000.648;MIDI 01
197.116;000.053;70;000.578;MIDI 01
197.272;000.042;61;000.680;MIDI 01
197.277;000.084;73;000.680;MIDI 01
197.276;000.099;70;000.641;MIDI 01
197.485;000.214;59;000.695;MIDI 01
197.496;000.233;64;000.703;MIDI 01
197.491;000.264;56;000.664;MIDI 01
197.483;000.291;52;000.703;MIDI 01
197.489;000.294;76;000.789;MIDI 01
197.498;000.320;68;000.656;MIDI 01
198.214;000.059;39;000.727;MIDI 01
198.203;000.070;66;000.742;MIDI 01
198.217;000.080;27;000.680;MIDI 01
198.207;000.120;78;000.680;MIDI 01
198.205;000.140;75;000.703;MIDI 01
198.394;000.048;37;000.688;MIDI 01
198.396;000.065;68;000.680;MIDI 01
198.404;000.057;25;000.648;MIDI 01
198.402;000.078;80;000.688;MIDI 01
198.400;000.088;76;000.625;MIDI 01
198.570;000.040;68;000.750;MIDI 01
198.578;000.039;37;000.656;MIDI 01
198.568;000.074;76;000.711;MIDI 01
198.576;000.084;80;000.719;MIDI 01
198.572;000.094;25;000.664;MIDI 01
198.783;000.084;23;000.734;MIDI 01
198.780;000.090;35;000.680;MIDI 01
198.774;000.406;82;000.750;MIDI 01
198.778;000.452;70;000.758;MIDI 01
198.781;000.499;78;000.703;MIDI 01
199.079;000.601;27;000.719;MIDI 01
199.076;000.628;39;000.758;MIDI 01
199.641;000.414;76;000.672;MIDI 01
199.643;000.582;80;000.781;MIDI 01
199.866;000.369;28;000.711;MIDI 01
199.858;000.389;40;000.758;MIDI 01
199.639;000.634;68;000.695;MIDI 01
200.417;000.352;75;000.664;MIDI 01
200.420;000.374;78;000.742;MIDI 01
200.418;000.445;66;000.742;MIDI 01
200.639;000.289;30;000.734;MIDI 01
200.634;000.399;42;000.781;MIDI 01
201.228;000.041;71;000.609;MIDI 01
201.223;000.076;63;000.688;MIDI 01
201.225;000.094;75;000.695;MIDI 01
201.460;000.030;61;000.672;MIDI 01
201.468;000.033;70;000.609;MIDI 01
201.479;000.025;54;000.523;MIDI 01
201.470;000.044;42;000.648;MIDI 01
201.457;000.058;73;000.688;MIDI 01
201.646;000.044;42;000.672;MIDI 01
201.642;000.054;66;000.688;MIDI 01
201.811;000.044;42;000.641;MIDI 01
201.818;000.052;66;000.672;MIDI 01
201.973;000.053;42;000.656;MIDI 01
201.976;000.067;66;000.719;MIDI 01
202.188;000.189;47;000.688;MIDI 01
202.173;000.395;71;000.742;MIDI 01
202.176;000.432;63;000.695;MIDI 01
202.178;000.517;59;000.703;MIDI 01
202.197;000.649;35;000.594;MIDI 01
202.947;000.070;59;000.656;MIDI 01
202.947;000.088;63;000.625;MIDI 01
202.938;000.101;66;000.641;MIDI 01
203.118;000.052;59;000.586;MIDI 01
202.948;000.247;28;000.703;MIDI 01
203.114;000.100;67;000.641;MIDI 01
203.105;000.118;64;000.648;MIDI 01
202.947;000.311;40;000.719;MIDI 01
203.293;000.068;59;000.664;MIDI 01
203.290;000.078;67;000.625;MIDI 01
203.286;000.089;64;000.531;MIDI 01
203.450;000.078;59;000.695;MIDI 01
203.448;000.106;69;000.688;MIDI 01
203.452;000.116;66;000.648;MIDI 01
203.686;000.106;52;000.688;MIDI 01
203.692;000.134;47;000.625;MIDI 01
203.684;000.546;66;000.672;MIDI 01
203.681;000.640;59;000.703;MIDI 01
203.679;000.700;69;000.719;MIDI 01
204.464;000.049;59;000.672;MIDI 01
204.467;000.048;50;000.625;MIDI 01
204.473;000.044;65;000.594;MIDI 01
204.482;000.040;43;000.547;MIDI 01
204.461;000.064;67;000.648;MIDI 01
204.472;000.056;38;000.602;MIDI 01
204.634;000.042;50;000.602;MIDI 01
204.630;000.060;43;000.531;MIDI 01
204.644;000.049;38;000.555;MIDI 01
204.631;000.064;59;000.680;MIDI 01
204.643;000.057;67;000.688;MIDI 01
204.636;000.065;65;000.617;MIDI 01
204.803;000.042;59;000.664;MIDI 01
204.810;000.036;50;000.594;MIDI 01
204.819;000.034;43;000.570;MIDI 01
204.808;000.057;38;000.547;MIDI 01
204.802;000.068;67;000.625;MIDI 01
204.806;000.066;65;000.617;MIDI 01
204.965;000.042;50;000.648;MIDI 01
204.959;000.066;59;000.680;MIDI 01
204.966;000.060;43;000.562;MIDI 01
204.970;000.070;65;000.602;MIDI 01
204.974;000.069;38;000.625;MIDI 01
204.955;000.116;67;000.688;MIDI 01
205.204;000.040;62;000.445;MIDI 01
205.171;000.232;48;000.742;MIDI 01
205.177;000.234;43;000.672;MIDI 01
205.169;000.253;67;000.664;MIDI 01
205.174;000.341;60;000.602;MIDI 01
205.175;000.340;64;000.633;MIDI 01
205.164;000.480;72;000.773;MIDI 01
205.181;000.694;36;000.672;MIDI 01
205.970;000.085;60;000.688;MIDI 01
205.975;000.088;64;000.625;MIDI 01
205.972;000.130;67;000.695;MIDI 01
206.156;000.072;60;000.633;MIDI 01
205.970;000.266;29;000.695;MIDI 01
206.157;000.118;69;000.656;MIDI 01
206.145;000.153;65;000.641;MIDI 01
205.964;000.344;41;000.742;MIDI 01
206.331;000.072;60;000.648;MIDI 01
206.325;000.102;69;000.570;MIDI 01
206.490;000.099;60;000.711;MIDI 01
206.495;000.126;70;000.695;MIDI 01
206.503;000.150;67;000.641;MIDI 01
206.730;000.108;68;000.641;MIDI 01
206.765;000.091;53;000.680;MIDI 01
206.769;000.122;48;000.625;MIDI 01
206.743;000.446;60;000.695;MIDI 01
206.773;000.416;67;000.633;MIDI 01
206.739;000.458;70;000.742;MIDI 01
207.531;000.046;48;000.586;MIDI 01
207.540;000.074;60;000.648;MIDI 01
207.701;000.050;48;000.531;MIDI 01
207.705;000.071;60;000.633;MIDI 01
207.532;000.280;57;000.602;MIDI 01
207.874;000.051;48;000.617;MIDI 01
207.874;000.061;60;000.656;MIDI 01
208.046;000.089;60;000.688;MIDI 01
208.032;000.141;48;000.633;MIDI 01
207.536;000.854;53;000.562;MIDI 01
208.274;000.134;49;000.492;MIDI 01
207.534;000.991;69;000.641;MIDI 01
208.262;000.269;61;000.711;MIDI 01
207.543;001.131;41;000.531;MIDI 01
208.714;000.033;70;000.344;MIDI 01
208.729;000.060;41;000.023;MIDI 01
208.966;000.034;29;000.570;MIDI 01
208.946;000.064;41;000.555;MIDI 01
208.939;000.100;73;000.703;MIDI 01
208.936;000.111;61;000.711;MIDI 01
208.930;000.160;69;000.602;MIDI 01
209.097;000.070;29;000.594;MIDI 01
209.100;000.073;41;000.648;MIDI 01
209.185;000.061;71;000.664;MIDI 01
209.180;000.070;59;000.680;MIDI 01
209.317;000.043;41;000.344;MIDI 01
209.375;000.093;29;000.594;MIDI 01
209.378;000.107;41;000.555;MIDI 01
209.364;000.127;69;000.727;MIDI 01
209.653;000.309;30;000.656;MIDI 01
209.642;000.382;42;000.711;MIDI 01
209.635;000.516;68;000.727;MIDI 01
209.642;000.528;61;000.664;MIDI 01
209.359;000.887;57;000.703;MIDI 01
210.197;000.111;66;000.625;MIDI 01
210.395;000.039;49;000.484;MIDI 01
210.399;000.064;61;000.648;MIDI 01
210.385;000.109;57;000.617;MIDI 01
210.551;000.055;61;000.625;MIDI 01
210.536;000.073;49;000.570;MIDI 01
210.727;000.055;49;000.586;MIDI 01
210.719;000.067;61;000.656;MIDI 01
210.401;000.435;42;000.539;MIDI 01
210.889;000.065;61;000.680;MIDI 01
210.886;000.085;49;000.617;MIDI 01
210.397;000.751;54;000.547;MIDI 01
211.102;000.180;50;000.516;MIDI 01
210.875;000.503;42;000.305;MIDI 01
211.092;000.364;62;000.688;MIDI 01
211.776;000.042;42;000.625;MIDI 01
211.786;000.036;30;000.625;MIDI 01
211.772;000.122;57;000.648;MIDI 01
211.773;000.129;69;000.695;MIDI 01
211.932;000.047;30;000.609;MIDI 01
211.925;000.057;42;000.609;MIDI 01
212.033;000.068;67;000.648;MIDI 01
212.031;000.076;55;000.656;MIDI 01
212.111;000.029;42;000.555;MIDI 01
212.107;000.048;30;000.547;MIDI 01
211.759;000.402;62;000.523;MIDI 01
212.216;000.083;54;000.664;MIDI 01
212.230;000.076;42;000.672;MIDI 01
212.218;000.097;66;000.711;MIDI 01
212.246;000.078;30;000.664;MIDI 01
212.496;000.129;30;000.602;MIDI 01
212.486;000.142;52;000.711;MIDI 01
212.498;000.196;42;000.555;MIDI 01
212.489;000.209;58;000.633;MIDI 01
212.491;000.240;64;000.711;MIDI 01
213.181;000.047;54;000.461;MIDI 01
213.169;000.151;57;000.562;MIDI 01
213.154;000.171;73;000.727;MIDI 01
213.164;000.177;69;000.727;MIDI 01
213.159;000.190;81;000.766;MIDI 01
213.345;000.034;57;000.383;MIDI 01
213.348;000.069;54;000.633;MIDI 01
213.459;000.064;67;000.695;MIDI 01
213.457;000.095;79;000.758;MIDI 01
213.505;000.050;54;000.594;MIDI 01
213.203;000.508;74;000.484;MIDI 01
213.171;000.578;62;000.578;MIDI 01
213.657;000.094;66;000.711;MIDI 01
213.656;000.120;78;000.719;MIDI 01
213.650;000.130;54;000.648;MIDI 01
213.905;000.132;58;000.672;MIDI 01
213.919;000.188;54;000.523;MIDI 01
213.901;000.269;64;000.750;MIDI 01
213.903;000.275;76;000.766;MIDI 01
213.907;000.440;70;000.641;MIDI 01
214.401;000.033;62;000.695;MIDI 01
214.399;000.047;74;000.734;MIDI 01
214.688;000.035;42;000.594;MIDI 01
214.690;000.043;30;000.609;MIDI 01
214.671;000.118;57;000.734;MIDI 01
214.669;000.130;69;000.758;MIDI 01
214.831;000.060;30;000.617;MIDI 01
214.828;000.064;42;000.625;MIDI 01
214.909;000.058;55;000.688;MIDI 01
214.911;000.061;67;000.703;MIDI 01
214.674;000.360;62;000.680;MIDI 01
214.992;000.056;30;000.594;MIDI 01
214.990;000.058;42;000.633;MIDI 01
215.081;000.060;54;000.703;MIDI 01
215.081;000.079;66;000.727;MIDI 01
215.119;000.073;30;000.656;MIDI 01
215.116;000.079;42;000.578;MIDI 01
215.357;000.096;52;000.719;MIDI 01
215.355;000.107;30;000.648;MIDI 01
215.364;000.140;42;000.617;MIDI 01
215.353;000.158;64;000.766;MIDI 01
215.364;000.177;58;000.648;MIDI 01
215.990;000.108;47;000.602;MIDI 01
216.152;000.055;67;000.688;MIDI 01
216.149;000.075;71;000.703;MIDI 01
216.094;000.146;55;000.602;MIDI 01
216.146;000.098;62;000.750;MIDI 01
216.032;000.232;50;000.492;MIDI 01
216.318;000.055;67;000.734;MIDI 01
216.316;000.082;71;000.727;MIDI 01
216.486;000.058;67;000.711;MIDI 01
216.484;000.066;71;000.688;MIDI 01
216.637;000.044;67;000.695;MIDI 01
216.642;000.054;71;000.742;MIDI 01
216.704;000.100;46;000.602;MIDI 01
216.735;000.153;49;000.500;MIDI 01
216.822;000.092;52;000.438;MIDI 01
216.877;000.062;61;000.758;MIDI 01
216.835;000.107;54;000.516;MIDI 01
216.891;000.218;73;000.672;MIDI 01
216.881;000.266;85;000.773;MIDI 01
216.883;000.300;76;000.734;MIDI 01
216.879;000.329;78;000.742;MIDI 01
217.340;000.040;42;000.688;MIDI 01
217.331;000.050;54;000.773;MIDI 01
217.511;000.046;54;000.742;MIDI 01
217.508;000.068;42;000.633;MIDI 01
217.682;000.052;66;000.750;MIDI 01
217.682;000.056;78;000.797;MIDI 01
217.850;000.054;66;000.781;MIDI 01
217.854;000.056;78;000.758;MIDI 01
217.876;000.054;42;000.242;MIDI 01
218.025;000.048;42;000.695;MIDI 01
218.041;000.033;30;000.602;MIDI 01
218.194;000.031;42;000.609;MIDI 01
218.177;000.054;30;000.633;MIDI 01
218.399;000.290;59;000.711;MIDI 01
218.393;000.308;62;000.750;MIDI 01
218.403;000.339;47;000.641;MIDI 01
218.401;000.386;42;000.516;MIDI 01
218.410;000.411;35;000.609;MIDI 01
218.390;000.455;71;000.750;MIDI 01
218.966;000.046;70;000.219;MIDI 01
219.159;000.058;61;000.750;MIDI 01
219.165;000.055;45;000.688;MIDI 01
219.172;000.050;33;000.664;MIDI 01
219.181;000.043;69;000.586;MIDI 01
219.202;000.031;68;000.391;MIDI 01
219.171;000.076;73;000.680;MIDI 01
219.327;000.050;62;000.680;MIDI 01
219.358;000.033;68;000.305;MIDI 01
219.357;000.039;43;000.664;MIDI 01
219.366;000.032;70;000.312;MIDI 01
219.330;000.073;74;000.695;MIDI 01
219.352;000.053;31;000.633;MIDI 01
219.339;000.077;71;000.594;MIDI 01
219.509;000.036;62;000.664;MIDI 01
219.520;000.033;70;000.344;MIDI 01
219.518;000.042;71;000.594;MIDI 01
219.516;000.052;43;000.555;MIDI 01
219.515;000.061;74;000.703;MIDI 01
219.527;000.057;31;000.586;MIDI 01
219.691;000.028;64;000.703;MIDI 01
219.700;000.035;40;000.641;MIDI 01
219.698;000.048;28;000.703;MIDI 01
219.691;000.057;76;000.734;MIDI 01
219.691;000.101;73;000.703;MIDI 01
219.933;000.066;42;000.750;MIDI 01
219.935;000.071;30;000.703;MIDI 01
219.927;000.104;61;000.773;MIDI 01
219.931;000.186;70;000.727;MIDI 01
219.929;000.190;73;000.727;MIDI 01
220.349;000.037;47;000.711;MIDI 01
220.346;000.045;59;000.734;MIDI 01
220.514;000.055;59;000.758;MIDI 01
220.516;000.062;47;000.695;MIDI 01
220.706;000.048;71;000.742;MIDI 01
220.708;000.075;83;000.758;MIDI 01
220.884;000.051;71;000.734;MIDI 01
220.889;000.057;83;000.734;MIDI 01
221.078;000.054;35;000.633;MIDI 01
221.075;000.057;47;000.641;MIDI 01
221.235;000.040;35;000.648;MIDI 01
221.238;000.045;47;000.641;MIDI 01
221.442;000.304;64;000.711;MIDI 01
221.434;000.375;67;000.766;MIDI 01
221.449;000.424;47;000.594;MIDI 01
221.453;000.431;52;000.625;MIDI 01
221.432;000.480;76;000.781;MIDI 01
221.455;000.521;40;000.633;MIDI 01
222.275;000.057;66;000.719;MIDI 01
222.282;000.062;50;000.672;MIDI 01
222.284;000.072;38;000.648;MIDI 01
222.276;000.095;74;000.695;MIDI 01
222.273;000.101;78;000.727;MIDI 01
222.485;000.026;75;000.477;MIDI 01
222.456;000.056;67;000.727;MIDI 01
222.480;000.059;48;000.719;MIDI 01
222.482;000.067;36;000.688;MIDI 01
222.464;000.090;79;000.688;MIDI 01
222.468;000.103;76;000.578;MIDI 01
222.650;000.045;67;000.711;MIDI 01
222.653;000.044;48;000.703;MIDI 01
222.648;000.077;76;000.641;MIDI 01
222.668;000.061;36;000.648;MIDI 01
222.657;000.074;79;000.688;MIDI 01
222.841;000.032;69;000.719;MIDI 01
222.851;000.050;45;000.703;MIDI 01
222.854;000.050;33;000.680;MIDI 01
222.840;000.075;81;000.734;MIDI 01
222.843;000.164;78;000.695;MIDI 01
223.142;000.201;66;000.758;MIDI 01
223.149;000.232;35;000.672;MIDI 01
223.145;000.287;47;000.695;MIDI 01
223.141;000.302;75;000.719;MIDI 01
223.136;000.351;78;000.734;MIDI 01
223.745;000.048;71;000.219;MIDI 01
224.041;000.040;72;000.336;MIDI 01
223.943;000.150;71;000.523;MIDI 01
224.009;000.119;84;000.789;MIDI 01
223.994;000.135;60;000.734;MIDI 01
224.351;000.002;81;000.297;MIDI 01
224.283;000.083;71;000.633;MIDI 01
224.307;000.086;83;000.750;MIDI 01
224.305;000.105;59;000.719;MIDI 01
224.525;000.072;71;000.656;MIDI 01
224.537;000.104;81;000.703;MIDI 01
224.537;000.109;57;000.664;MIDI 01
223.997;000.664;47;000.688;MIDI 01
224.768;000.130;71;000.711;MIDI 01
224.775;000.160;79;000.742;MIDI 01
224.781;000.157;55;000.734;MIDI 01
225.047;000.080;71;000.727;MIDI 01
225.047;000.115;54;000.602;MIDI 01
225.047;000.144;78;000.727;MIDI 01
224.796;000.457;47;000.641;MIDI 01
225.255;000.058;71;000.664;MIDI 01
225.267;000.091;76;000.664;MIDI 01
225.457;000.049;48;000.578;MIDI 01
225.268;000.252;52;000.594;MIDI 01
225.474;000.059;72;000.672;MIDI 01
225.581;000.067;88;000.805;MIDI 01
225.569;000.089;64;000.750;MIDI 01
225.865;000.047;72;000.578;MIDI 01
225.899;000.029;84;000.516;MIDI 01
225.902;000.028;74;000.445;MIDI 01
225.867;000.076;62;000.711;MIDI 01
225.880;000.064;86;000.773;MIDI 01
226.090;000.056;72;000.664;MIDI 01
226.093;000.067;60;000.672;MIDI 01
226.108;000.064;84;000.727;MIDI 01
226.300;000.059;72;000.688;MIDI 01
226.322;000.042;59;000.633;MIDI 01
226.312;000.074;48;000.688;MIDI 01
226.319;000.068;83;000.758;MIDI 01
226.524;000.052;72;000.727;MIDI 01
226.550;000.032;57;000.523;MIDI 01
226.539;000.047;59;000.594;MIDI 01
226.536;000.051;81;000.750;MIDI 01
226.542;000.075;50;000.594;MIDI 01
226.734;000.052;72;000.719;MIDI 01
226.736;000.067;55;000.672;MIDI 01
226.742;000.072;79;000.727;MIDI 01
226.749;000.111;52;000.555;MIDI 01
226.984;000.048;74;000.711;MIDI 01
226.986;000.055;78;000.789;MIDI 01
226.998;000.066;54;000.672;MIDI 01
227.329;000.045;66;000.719;MIDI 01
227.319;000.058;54;000.711;MIDI 01
227.336;000.045;70;000.664;MIDI 01
227.327;000.064;42;000.656;MIDI 01
227.339;000.073;73;000.664;MIDI 01
227.659;000.055;71;000.641;MIDI 01
227.659;000.057;66;000.727;MIDI 01
227.659;000.058;74;000.727;MIDI 01
227.651;000.072;54;000.688;MIDI 01
227.670;000.068;47;000.594;MIDI 01
227.992;000.051;61;000.750;MIDI 01
227.995;000.055;54;000.703;MIDI 01
227.998;000.056;42;000.680;MIDI 01
228.008;000.054;66;000.609;MIDI 01
227.992;000.103;70;000.562;MIDI 01
228.339;000.050;62;000.727;MIDI 01
228.339;000.052;71;000.727;MIDI 01
228.339;000.079;54;000.695;MIDI 01
228.339;000.079;66;000.711;MIDI 01
228.345;000.075;47;000.633;MIDI 01
228.693;000.069;58;000.727;MIDI 01
228.699;000.069;54;000.734;MIDI 01
228.699;000.069;61;000.633;MIDI 01
228.699;000.079;42;000.688;MIDI 01
228.704;000.076;66;000.719;MIDI 01
229.060;000.060;59;000.727;MIDI 01
229.066;000.066;54;000.680;MIDI 01
229.064;000.070;62;000.703;MIDI 01
229.061;000.090;66;000.742;MIDI 01
229.075;000.082;47;000.641;MIDI 01
229.458;000.061;54;000.703;MIDI 01
229.453;000.075;42;000.727;MIDI 01
229.454;000.103;58;000.688;MIDI 01
229.466;000.092;61;000.695;MIDI 01
229.858;000.060;59;000.633;MIDI 01
229.849;000.074;47;000.727;MIDI 01
229.856;000.069;62;000.664;MIDI 01
229.853;000.078;54;000.703;MIDI 01
230.295;000.035;42;000.711;MIDI 01
230.299;000.035;30;000.680;MIDI 01
230.298;000.057;49;000.719;MIDI 01
230.312;000.072;54;000.625;MIDI 01
230.312;000.072;58;000.625;MIDI 01
231.872;000.046;31;000.422;MIDI 01
231.046;001.043;52;000.359;MIDI 01
232.061;000.038;30;000.469;MIDI 01
232.228;000.035;30;000.406;MIDI 01
232.400;000.041;28;000.391;MIDI 01
231.043;001.579;59;000.367;MIDI 01
231.040;001.688;55;000.359;MIDI 01
232.655;001.003;49;000.219;MIDI 01
232.669;001.035;54;000.258;MIDI 01
232.655;001.060;58;000.273;MIDI 01
235.244;000.055;31;000.398;MIDI 01
235.427;000.035;30;000.414;MIDI 01
234.390;001.109;52;000.328;MIDI 01
235.581;000.073;30;000.422;MIDI 01
235.779;000.040;28;000.305;MIDI 01
234.367;001.635;59;000.352;MIDI 01
234.380;002.726;55;000.320;MIDI 01
236.053;001.064;49;000.188;MIDI 01
236.049;001.175;58;000.297;MIDI 01
237.911;000.050;50;000.266;MIDI 01
238.858;000.062;34;000.281;MIDI 01
237.927;001.037;55;000.305;MIDI 01
239.030;000.047;33;000.406;MIDI 01
239.227;000.051;33;000.312;MIDI 01
239.445;000.061;31;000.172;MIDI 01
237.910;001.804;62;000.258;MIDI 01
237.928;001.874;58;000.273;MIDI 01
239.700;001.002;52;000.211;MIDI 01
239.695;001.080;57;000.234;MIDI 01
239.693;001.089;61;000.281;MIDI 01
242.469;000.055;34;000.297;MIDI 01
242.643;000.053;33;000.414;MIDI 01
241.536;001.367;55;000.297;MIDI 01
242.850;000.055;33;000.336;MIDI 01
243.076;000.062;31;000.250;MIDI 01
241.530;003.099;62;000.289;MIDI 01
245.681;004.657;64;000.258;MIDI 01
243.403;007.001;54;000.242;MIDI 01
245.701;004.716;61;000.266;MIDI 01
241.542;009.078;58;000.320;MIDI 01
247.253;003.700;30;000.227;MIDI 01
252.824;000.589;51;000.141;MIDI 01
252.807;001.553;63;000.203;MIDI 01
254.285;000.192;54;000.250;MIDI 01
255.166;000.243;75;000.383;MIDI 01
254.244;001.173;66;000.273;MIDI 01
254.734;001.246;42;000.219;MIDI 01
255.186;000.882;63;000.219;MIDI 01
256.067;000.194;66;000.336;MIDI 01
253.748;002.865;35;000.086;MIDI 01
256.074;000.914;54;000.273;MIDI 01
256.939;000.296;51;000.203;MIDI 01
255.657;002.134;47;000.117;MIDI 01
256.456;001.351;42;000.281;MIDI 01
256.892;001.058;63;000.352;MIDI 01
257.913;000.106;54;000.234;MIDI 01
258.889;000.954;75;000.328;MIDI 01
257.870;002.052;66;000.352;MIDI 01
258.349;001.633;42;000.258;MIDI 01
258.889;002.081;63;000.258;MIDI 01
260.921;000.337;66;000.383;MIDI 01
257.462;003.928;35;000.320;MIDI 01
261.367;000.047;54;000.273;MIDI 01
261.527;000.142;63;000.273;MIDI 01
261.671;000.192;71;000.453;MIDI 01
260.931;000.941;42;000.219;MIDI 01
259.494;002.909;47;000.180;MIDI 01
262.466;000.052;54;000.273;MIDI 01
262.572;000.140;63;000.391;MIDI 01
262.668;000.148;70;000.508;MIDI 01
262.246;000.575;35;000.258;MIDI 01
263.007;000.119;42;000.320;MIDI 01
263.519;000.251;66;000.422;MIDI 01
263.635;000.489;68;000.469;MIDI 01
264.079;000.124;64;000.414;MIDI 01
264.473;000.206;66;000.492;MIDI 01
263.439;001.304;59;000.328;MIDI 01
264.489;000.267;63;000.383;MIDI 01
263.361;001.540;54;000.281;MIDI 01
264.511;000.417;58;000.305;MIDI 01
264.099;000.851;47;000.273;MIDI 01
264.851;000.202;64;000.484;MIDI 01
264.863;000.255;61;000.398;MIDI 01
264.860;001.467;42;000.297;MIDI 01
265.359;001.110;59;000.336;MIDI 01
265.335;001.514;63;000.422;MIDI 01
267.053;000.068;64;000.352;MIDI 01
267.053;000.092;61;000.328;MIDI 01
267.284;000.055;66;000.375;MIDI 01
267.278;000.070;63;000.328;MIDI 01
267.085;001.498;42;000.258;MIDI 01
267.585;001.141;58;000.320;MIDI 01
265.348;003.562;54;000.375;MIDI 01
267.553;001.469;61;000.344;MIDI 01
269.396;000.114;63;000.320;MIDI 01
265.891;003.707;35;000.305;MIDI 01
269.394;000.241;59;000.297;MIDI 01
269.639;000.069;64;000.367;MIDI 01
269.648;000.102;61;000.320;MIDI 01
269.990;000.568;59;000.164;MIDI 01
269.986;000.573;56;000.266;MIDI 01
269.439;001.317;42;000.211;MIDI 01
268.095;002.681;47;000.195;MIDI 01
269.986;001.114;63;000.320;MIDI 01
270.594;000.654;35;000.273;MIDI 01
271.015;000.283;54;000.320;MIDI 01
271.017;000.414;61;000.375;MIDI 01
271.045;000.388;58;000.250;MIDI 01
270.997;000.476;66;000.453;MIDI 01
271.778;000.406;68;000.414;MIDI 01
271.784;000.412;59;000.375;MIDI 01
271.780;000.446;64;000.375;MIDI 01
271.809;000.474;52;000.398;MIDI 01
271.413;001.412;42;000.352;MIDI 01
272.673;000.424;54;000.250;MIDI 01
272.641;000.518;58;000.266;MIDI 01
272.636;000.720;61;000.336;MIDI 01
272.626;000.845;66;000.352;MIDI 01
273.546;000.585;59;000.305;MIDI 01
273.078;001.083;42;000.227;MIDI 01
273.567;000.620;56;000.273;MIDI 01
273.526;000.850;63;000.328;MIDI 01
272.247;002.568;47;000.273;MIDI 01
274.448;000.375;54;000.203;MIDI 01
274.008;000.834;35;000.266;MIDI 01
274.448;000.467;61;000.289;MIDI 01
274.398;000.517;66;000.344;MIDI 01
274.459;000.465;58;000.195;MIDI 01
275.282;000.443;68;000.352;MIDI 01
275.296;000.454;59;000.312;MIDI 01
275.306;000.475;64;000.273;MIDI 01
275.316;000.747;52;000.289;MIDI 01
274.843;001.302;42;000.266;MIDI 01
276.298;000.574;54;000.188;MIDI 01
276.302;000.698;58;000.289;MIDI 01
275.809;001.211;47;000.234;MIDI 01
276.262;000.807;66;000.320;MIDI 01
276.315;000.767;61;000.273;MIDI 01
277.613;000.256;59;000.258;MIDI 01
277.515;000.370;51;000.242;MIDI 01
277.684;000.341;63;000.227;MIDI 01
276.821;001.897;42;000.250;MIDI 01
277.841;000.986;71;000.414;MIDI 01
278.571;000.577;35;000.234;MIDI 01
279.006;000.244;61;000.320;MIDI 01
278.999;000.336;63;000.336;MIDI 01
279.399;000.131;42;000.352;MIDI 01
278.993;000.875;66;000.383;MIDI 01
279.731;000.265;64;000.430;MIDI 01
279.746;000.372;59;000.336;MIDI 01
279.722;000.665;68;000.492;MIDI 01
280.122;000.356;47;000.328;MIDI 01
280.436;000.247;63;000.406;MIDI 01
280.418;000.396;69;000.516;MIDI 01
280.478;000.389;54;000.305;MIDI 01
281.222;000.195;64;000.344;MIDI 01
281.137;000.297;56;000.336;MIDI 01
281.293;000.297;68;000.414;MIDI 01
281.399;000.304;76;000.562;MIDI 01
280.839;000.882;42;000.328;MIDI 01
282.247;000.179;61;000.352;MIDI 01
281.879;000.578;35;000.398;MIDI 01
282.247;000.224;64;000.414;MIDI 01
282.224;000.253;70;000.523;MIDI 01
282.243;000.249;68;000.422;MIDI 01
282.926;000.242;59;000.445;MIDI 01
282.921;000.312;71;000.531;MIDI 01
282.931;000.328;64;000.391;MIDI 01
282.580;000.704;42;000.375;MIDI 01
282.923;000.361;68;000.445;MIDI 01
283.312;000.479;47;000.336;MIDI 01
283.708;000.227;58;000.406;MIDI 01
283.685;000.333;64;000.391;MIDI 01
283.683;000.354;73;000.484;MIDI 01
283.681;000.415;68;000.422;MIDI 01
284.168;001.635;42;000.398;MIDI 01
284.725;001.969;61;000.406;MIDI 01
286.535;000.224;59;000.328;MIDI 01
286.570;001.432;42;000.242;MIDI 01
287.017;001.131;59;000.320;MIDI 01
284.736;003.463;66;000.398;MIDI 01
284.744;003.547;63;000.352;MIDI 01
287.534;001.537;47;000.195;MIDI 01
285.343;003.822;35;000.289;MIDI 01
288.982;000.347;42;000.219;MIDI 01
290.047;000.898;62;000.148;MIDI 01
290.045;001.213;66;000.242;MIDI 01
290.018;001.322;74;000.328;MIDI 01
291.267;000.116;73;000.367;MIDI 01
291.290;000.393;64;000.195;MIDI 01
291.652;000.139;71;000.352;MIDI 01
291.672;000.266;62;000.281;MIDI 01
292.043;000.486;61;000.328;MIDI 01
291.684;001.051;42;000.227;MIDI 01
292.014;000.761;66;000.398;MIDI 01
292.739;000.387;59;000.383;MIDI 01
292.728;000.670;62;000.438;MIDI 01
290.796;002.681;35;000.227;MIDI 01
293.432;000.101;61;000.383;MIDI 01
293.424;000.363;66;000.438;MIDI 01
293.781;000.085;62;000.375;MIDI 01
293.076;000.836;42;000.344;MIDI 01
293.781;000.161;71;000.430;MIDI 01
294.107;000.061;64;000.398;MIDI 01
294.214;000.071;71;000.383;MIDI 01
294.307;000.160;76;000.469;MIDI 01
294.459;000.112;79;000.492;MIDI 01
292.384;002.511;47;000.266;MIDI 01
295.367;000.870;66;000.352;MIDI 01
294.934;001.376;42;000.281;MIDI 01
295.367;001.092;70;000.352;MIDI 01
295.337;001.170;78;000.445;MIDI 01
295.377;001.152;73;000.344;MIDI 01
295.825;001.666;47;000.258;MIDI 01
293.794;003.767;35;000.305;MIDI 01
298.059;000.373;71;000.289;MIDI 01
298.061;000.454;63;000.148;MIDI 01
298.078;000.478;66;000.234;MIDI 01
297.360;001.520;42;000.242;MIDI 01
298.032;001.149;75;000.406;MIDI 01
299.093;000.122;73;000.453;MIDI 01
299.111;000.402;64;000.289;MIDI 01
299.462;000.167;71;000.500;MIDI 01
299.476;000.258;63;000.391;MIDI 01
299.859;000.407;61;000.359;MIDI 01
299.522;001.040;42;000.273;MIDI 01
299.828;000.786;66;000.484;MIDI 01
300.544;000.394;59;000.453;MIDI 01
300.534;000.683;63;000.477;MIDI 01
298.722;002.532;35;000.164;MIDI 01
301.270;000.116;61;000.445;MIDI 01
301.245;000.378;66;000.508;MIDI 01
300.890;000.815;42;000.391;MIDI 01
300.202;001.547;47;000.352;MIDI 01
301.640;000.140;63;000.438;MIDI 01
301.629;000.209;71;000.484;MIDI 01
301.944;000.092;64;000.477;MIDI 01
302.045;000.109;71;000.453;MIDI 01
302.170;000.191;76;000.508;MIDI 01
302.360;000.139;80;000.578;MIDI 01
301.648;002.777;35;000.328;MIDI 01
303.433;001.075;66;000.406;MIDI 01
302.960;001.590;42;000.320;MIDI 01
303.445;001.164;70;000.383;MIDI 01
303.413;001.255;78;000.508;MIDI 01
303.442;001.317;73;000.398;MIDI 01
303.935;001.742;47;000.273;MIDI 01
305.527;001.431;42;000.234;MIDI 01
306.177;001.177;74;000.391;MIDI 01
306.192;001.181;71;000.336;MIDI 01
306.178;001.209;62;000.336;MIDI 01
306.181;001.214;66;000.281;MIDI 01
307.767;000.068;71;000.297;MIDI 01
307.753;000.114;66;000.328;MIDI 01
307.753;000.156;62;000.367;MIDI 01
307.738;000.172;74;000.469;MIDI 01
306.700;001.221;35;000.297;MIDI 01
308.171;000.468;62;000.414;MIDI 01
308.184;000.475;67;000.406;MIDI 01
308.160;000.535;71;000.453;MIDI 01
308.161;000.629;74;000.562;MIDI 01
308.769;000.070;62;000.445;MIDI 01
307.765;001.259;42;000.297;MIDI 01
308.858;000.183;71;000.547;MIDI 01
308.928;000.230;76;000.547;MIDI 01
309.259;000.118;77;000.562;MIDI 01
309.273;000.157;71;000.406;MIDI 01
308.564;000.904;31;000.430;MIDI 01
309.550;000.080;62;000.484;MIDI 01
309.265;001.451;43;000.508;MIDI 01
309.767;001.259;77;000.555;MIDI 01
309.636;002.077;71;000.477;MIDI 01
310.184;002.418;36;000.477;MIDI 01
311.168;001.529;43;000.367;MIDI 01
311.639;001.229;64;000.367;MIDI 01
311.634;001.277;76;000.438;MIDI 01
311.645;001.335;72;000.375;MIDI 01
312.098;001.252;48;000.281;MIDI 01
313.232;001.446;43;000.266;MIDI 01
313.768;001.178;76;000.500;MIDI 01
313.780;001.171;64;000.383;MIDI 01
313.798;001.164;67;000.367;MIDI 01
313.795;001.170;72;000.430;MIDI 01
315.379;000.133;64;000.406;MIDI 01
315.382;000.132;72;000.422;MIDI 01
315.383;000.133;67;000.375;MIDI 01
315.367;000.183;76;000.516;MIDI 01
314.266;001.361;36;000.352;MIDI 01
315.866;000.365;64;000.484;MIDI 01
315.867;000.412;69;000.453;MIDI 01
315.859;000.471;73;000.492;MIDI 01
315.851;000.528;76;000.578;MIDI 01
316.365;000.028;64;000.430;MIDI 01
315.408;001.082;43;000.320;MIDI 01
316.479;000.175;73;000.562;MIDI 01
316.571;000.204;78;000.555;MIDI 01
316.940;000.114;79;000.609;MIDI 01
316.949;000.175;73;000.469;MIDI 01
316.250;000.903;33;000.406;MIDI 01
317.289;000.060;64;000.141;MIDI 01
317.308;000.048;65;000.195;MIDI 01
316.948;001.678;45;000.469;MIDI 01
317.351;001.532;73;000.500;MIDI 01
317.494;002.173;79;000.602;MIDI 01
318.008;002.359;38;000.430;MIDI 01
319.219;001.203;45;000.328;MIDI 01
319.719;001.025;78;000.422;MIDI 01
319.728;001.035;74;000.391;MIDI 01
319.752;001.967;66;000.312;MIDI 01
320.239;001.550;50;000.219;MIDI 01
321.631;000.692;69;000.375;MIDI 01
322.311;000.184;57;000.227;MIDI 01
322.288;000.222;66;000.352;MIDI 01
321.653;001.354;45;000.242;MIDI 01
322.277;000.751;74;000.461;MIDI 01
323.292;000.268;64;000.344;MIDI 01
323.294;000.326;66;000.344;MIDI 01
322.884;000.761;38;000.305;MIDI 01
323.296;000.910;69;000.414;MIDI 01
324.084;000.380;66;000.414;MIDI 01
324.086;000.438;62;000.352;MIDI 01
324.082;000.754;71;000.531;MIDI 01
323.739;001.178;45;000.172;MIDI 01
324.836;000.267;66;000.469;MIDI 01
324.808;000.347;72;000.547;MIDI 01
324.867;000.330;57;000.320;MIDI 01
324.467;000.732;50;000.312;MIDI 01
325.617;000.098;67;000.453;MIDI 01
325.511;000.305;59;000.352;MIDI 01
325.695;000.165;71;000.477;MIDI 01
325.808;000.342;79;000.562;MIDI 01
325.210;001.116;45;000.398;MIDI 01
326.632;000.069;64;000.430;MIDI 01
326.634;000.106;67;000.430;MIDI 01
326.672;000.186;71;000.336;MIDI 01
326.242;000.715;38;000.406;MIDI 01
326.631;000.419;73;000.570;MIDI 01
327.361;000.113;62;000.367;MIDI 01
326.997;000.649;45;000.469;MIDI 01
327.336;000.432;74;000.609;MIDI 01
327.696;000.092;50;000.375;MIDI 01
327.365;000.424;67;000.414;MIDI 01
327.350;000.449;71;000.484;MIDI 01
328.084;000.101;61;000.430;MIDI 01
328.083;000.343;67;000.438;MIDI 01
328.464;000.037;45;000.398;MIDI 01
328.083;000.427;71;000.469;MIDI 01
328.056;000.485;76;000.586;MIDI 01
328.845;000.093;62;000.352;MIDI 01
328.949;000.059;66;000.469;MIDI 01
329.049;000.025;69;000.469;MIDI 01
329.147;000.354;74;000.469;MIDI 01
329.236;000.348;78;000.508;MIDI 01
329.341;000.438;81;000.586;MIDI 01
329.484;000.531;86;000.586;MIDI 01
330.438;000.155;76;000.461;MIDI 01
330.440;000.415;72;000.430;MIDI 01
330.427;000.493;81;000.555;MIDI 01
330.450;000.511;78;000.461;MIDI 01
331.247;000.277;71;000.438;MIDI 01
331.236;000.341;83;000.523;MIDI 01
331.259;000.474;74;000.422;MIDI 01
331.256;000.531;78;000.422;MIDI 01
331.828;000.047;69;000.328;MIDI 01
330.889;001.026;45;000.391;MIDI 01
331.898;000.100;74;000.430;MIDI 01
332.012;000.124;78;000.438;MIDI 01
332.130;000.691;84;000.492;MIDI 01
332.922;000.083;71;000.422;MIDI 01
333.070;000.128;79;000.422;MIDI 01
333.227;000.098;83;000.477;MIDI 01
330.002;003.474;38;000.445;MIDI 01
333.516;000.184;91;000.578;MIDI 01
331.640;002.599;50;000.281;MIDI 01
332.599;001.688;45;000.273;MIDI 01
334.538;000.155;76;000.367;MIDI 01
334.557;000.276;79;000.320;MIDI 01
334.533;000.374;85;000.453;MIDI 01
334.550;000.385;83;000.344;MIDI 01
335.350;000.093;74;000.391;MIDI 01
335.357;000.185;86;000.453;MIDI 01
335.370;000.231;79;000.336;MIDI 01
335.367;000.259;83;000.312;MIDI 01
336.082;000.069;73;000.312;MIDI 01
335.022;001.217;45;000.242;MIDI 01
336.200;000.114;79;000.367;MIDI 01
336.312;000.209;83;000.414;MIDI 01
336.482;000.130;88;000.406;MIDI 01
335.814;001.346;50;000.195;MIDI 01
334.082;003.107;38;000.328;MIDI 01
338.036;000.493;54;000.398;MIDI 01
337.795;000.800;69;000.266;MIDI 01
337.980;000.690;81;000.344;MIDI 01
337.864;000.831;74;000.328;MIDI 01
337.094;001.988;45;000.180;MIDI 01
339.560;000.969;57;000.320;MIDI 01
338.992;001.679;38;000.234;MIDI 01
340.025;000.949;45;000.148;MIDI 01
340.409;000.796;66;000.367;MIDI 01
341.205;000.052;57;000.352;MIDI 01
340.840;000.551;50;000.156;MIDI 01
341.634;000.253;45;000.312;MIDI 01
341.886;000.059;72;000.312;MIDI 01
341.964;000.066;74;000.359;MIDI 01
342.103;000.179;81;000.367;MIDI 01
342.223;000.163;84;000.414;MIDI 01
342.177;000.249;54;000.398;MIDI 01
342.731;000.692;38;000.305;MIDI 01
343.139;000.866;57;000.391;MIDI 01
343.957;000.372;66;000.406;MIDI 01
343.533;001.030;45;000.258;MIDI 01
344.477;001.170;50;000.195;MIDI 01
345.654;000.040;45;000.406;MIDI 01
345.652;000.507;57;000.367;MIDI 01
346.218;000.105;62;000.453;MIDI 01
346.068;000.474;71;000.258;MIDI 01
346.261;000.339;83;000.352;MIDI 01
346.143;000.497;79;000.352;MIDI 01
347.269;000.879;59;000.477;MIDI 01
347.645;000.967;43;000.344;MIDI 01
348.010;000.807;55;000.492;MIDI 01
348.762;000.164;54;000.477;MIDI 01
348.420;000.724;50;000.312;MIDI 01
346.859;002.464;38;000.328;MIDI 01
349.195;000.765;43;000.258;MIDI 01
349.611;001.040;70;000.266;MIDI 01
349.826;000.896;82;000.383;MIDI 01
349.771;000.977;79;000.328;MIDI 01
349.656;001.128;73;000.352;MIDI 01
349.860;002.133;52;000.453;MIDI 01
352.019;000.252;54;000.227;MIDI 01
352.234;000.534;55;000.352;MIDI 01
352.027;001.561;43;000.211;MIDI 01
352.509;002.030;52;000.383;MIDI 01
353.072;001.558;49;000.305;MIDI 01
354.414;000.239;54;000.203;MIDI 01
354.716;000.039;55;000.312;MIDI 01
355.409;000.081;66;000.289;MIDI 01
354.422;001.485;43;000.250;MIDI 01
350.505;005.444;38;000.273;MIDI 01
355.688;000.909;62;000.344;MIDI 01
355.903;000.846;74;000.398;MIDI 01
355.749;001.039;66;000.320;MIDI 01
355.825;000.999;69;000.312;MIDI 01
356.418;000.900;38;000.344;MIDI 01
356.863;000.997;48;000.430;MIDI 01
355.844;002.341;45;000.383;MIDI 01
357.654;000.923;54;000.367;MIDI 01
358.552;001.123;48;000.367;MIDI 01
358.069;001.677;38;000.297;MIDI 01
359.409;001.465;62;000.305;MIDI 01
359.679;001.224;74;000.320;MIDI 01
359.562;001.354;69;000.328;MIDI 01
359.516;001.447;66;000.172;MIDI 01
360.119;001.090;38;000.352;MIDI 01
360.578;001.531;48;000.422;MIDI 01
359.627;002.595;45;000.406;MIDI 01
361.484;000.806;54;000.383;MIDI 01
363.198;000.796;45;000.352;MIDI 01
362.050;002.040;38;000.297;MIDI 01
363.860;001.092;50;000.414;MIDI 01
364.952;000.980;47;000.445;MIDI 01
364.459;001.762;38;000.328;MIDI 01
365.842;001.007;43;000.430;MIDI 01
363.878;003.287;71;000.336;MIDI 01
363.633;003.545;62;000.211;MIDI 01
363.689;003.507;65;000.305;MIDI 01
363.779;003.504;67;000.312;MIDI 01
366.832;000.455;41;000.391;MIDI 01
366.358;001.122;38;000.305;MIDI 01
367.915;001.960;60;000.211;MIDI 01
368.033;001.852;72;000.336;MIDI 01
367.954;002.049;67;000.289;MIDI 01
368.002;002.248;40;000.422;MIDI 01
370.406;000.297;42;000.281;MIDI 01
370.661;000.218;43;000.336;MIDI 01
368.734;002.479;38;000.289;MIDI 01
370.999;001.559;60;000.289;MIDI 01
371.175;001.421;72;000.289;MIDI 01
371.081;001.593;67;000.328;MIDI 01
373.908;000.261;42;000.266;MIDI 01
371.142;003.100;39;000.367;MIDI 01
371.821;002.429;38;000.289;MIDI 01
374.244;000.060;43;000.195;MIDI 01
375.712;000.276;26;000.258;MIDI 01
374.618;001.945;59;000.242;MIDI 01
374.707;001.952;67;000.305;MIDI 01
374.802;001.900;71;000.312;MIDI 01
377.778;000.350;42;000.242;MIDI 01
378.117;000.306;43;000.258;MIDI 01
374.743;003.993;38;000.320;MIDI 01
379.852;000.264;26;000.219;MIDI 01
378.480;002.316;58;000.234;MIDI 01
378.756;002.184;70;000.258;MIDI 01
378.562;002.391;64;000.289;MIDI 01
378.689;002.353;67;000.250;MIDI 01
382.200;000.473;42;000.195;MIDI 01
378.740;003.944;37;000.219;MIDI 01
382.631;000.158;43;000.242;MIDI 01
383.597;002.698;26;000.234;MIDI 01
384.915;001.757;57;000.203;MIDI 01
384.926;001.760;66;000.250;MIDI 01
384.916;001.875;69;000.266;MIDI 01
384.945;001.884;62;000.266;MIDI 01
383.572;004.501;33;000.289;MIDI 01
389.202;001.060;54;000.125;MIDI 01
389.222;001.174;57;000.141;MIDI 01
389.195;001.336;62;000.273;MIDI 01
389.183;001.418;66;000.203;MIDI 01
387.922;002.850;26;000.234;MIDI 01
387.922;005.154;38;000.203;MIDI 01
392.953;000.481;26;000.203;MIDI 01
395.635;006.222;50;000.062;MIDI 01
395.598;007.102;62;000.227;MIDI 01
395.650;007.405;54;000.188;MIDI 01
392.939;010.150;42;000.305;MIDI 01
395.621;007.574;57;000.227;MIDI 01
395.653;007.768;38;000.180;MIDI 01
