Start;Duration;Pitch;Velocity;Instrument
000.982;000.055;29;000.641;MIDI 01
000.979;000.092;41;000.664;MIDI 01
000.975;000.104;53;000.711;MIDI 01
001.630;000.032;72;000.391;MIDI 01
001.622;000.046;68;000.602;MIDI 01
001.616;000.088;53;000.586;MIDI 01
001.609;000.115;80;000.719;MIDI 01
001.627;000.138;60;000.570;MIDI 01
001.618;000.171;65;000.609;MIDI 01
002.062;000.070;79;000.523;MIDI 01
002.060;000.087;55;000.492;MIDI 01
002.084;000.130;56;000.555;MIDI 01
002.120;000.132;77;000.602;MIDI 01
002.205;000.097;67;000.617;MIDI 01
002.210;000.117;85;000.727;MIDI 01
002.212;000.129;79;000.570;MIDI 01
002.208;000.154;61;000.648;MIDI 01
002.188;000.182;58;000.586;MIDI 01
002.215;000.160;73;000.672;MIDI 01
002.848;000.075;28;000.742;MIDI 01
002.840;000.120;52;000.812;MIDI 01
002.842;000.137;40;000.727;MIDI 01
003.460;000.053;79;000.734;MIDI 01
003.473;000.050;73;000.719;MIDI 01
003.462;000.108;85;000.742;MIDI 01
003.465;000.109;67;000.656;MIDI 01
003.467;000.116;58;000.633;MIDI 01
003.477;000.153;64;000.656;MIDI 01
003.862;000.064;60;000.602;MIDI 01
003.876;000.079;84;000.555;MIDI 01
003.940;000.134;82;000.602;MIDI 01
004.017;000.061;69;000.742;MIDI 01
004.011;000.108;90;000.781;MIDI 01
004.019;000.108;66;000.727;MIDI 01
004.036;000.098;60;000.609;MIDI 01
004.014;000.142;84;000.586;MIDI 01
004.008;000.156;78;000.758;MIDI 01
004.711;000.049;33;000.320;MIDI 01
004.661;000.111;27;000.711;MIDI 01
004.655;000.142;51;000.805;MIDI 01
004.657;000.160;39;000.789;MIDI 01
005.356;000.002;70;000.320;MIDI 01
005.310;000.054;84;000.688;MIDI 01
005.315;000.059;78;000.734;MIDI 01
005.312;000.127;72;000.664;MIDI 01
005.302;000.172;90;000.773;MIDI 01
005.307;000.188;63;000.680;MIDI 01
005.317;000.219;69;000.617;MIDI 01
005.713;000.082;65;000.555;MIDI 01
005.765;000.041;88;000.367;MIDI 01
005.742;000.085;89;000.484;MIDI 01
005.919;000.026;92;000.500;MIDI 01
005.801;000.160;87;000.672;MIDI 01
005.897;000.067;77;000.734;MIDI 01
005.894;000.135;70;000.758;MIDI 01
005.921;000.110;65;000.594;MIDI 01
005.895;000.167;94;000.812;MIDI 01
005.892;000.194;89;000.641;MIDI 01
005.888;000.210;82;000.797;MIDI 01
006.547;000.101;26;000.711;MIDI 01
006.545;000.136;38;000.844;MIDI 01
006.543;000.155;50;000.781;MIDI 01
007.253;000.064;77;000.703;MIDI 01
007.255;000.121;65;000.688;MIDI 01
007.257;000.125;70;000.672;MIDI 01
007.259;000.201;101;000.820;MIDI 01
007.264;000.315;89;000.766;MIDI 01
007.261;000.323;94;000.844;MIDI 01
008.009;000.299;25;000.711;MIDI 01
007.990;000.326;49;000.859;MIDI 01
008.003;000.329;37;000.742;MIDI 01
008.456;000.049;29;000.430;MIDI 01
008.524;000.040;28;000.055;MIDI 01
008.411;000.214;24;000.773;MIDI 01
008.603;000.069;36;000.828;MIDI 01
009.098;000.966;77;000.758;MIDI 01
009.090;000.981;101;000.789;MIDI 01
009.107;001.001;68;000.664;MIDI 01
009.109;001.008;96;000.703;MIDI 01
009.100;001.034;92;000.750;MIDI 01
009.103;001.035;65;000.648;MIDI 01
009.111;001.053;89;000.695;MIDI 01
009.105;001.069;72;000.656;MIDI 01
010.544;000.068;72;000.625;MIDI 01
010.534;000.090;76;000.688;MIDI 01
010.535;000.096;91;000.766;MIDI 01
010.542;000.100;67;000.617;MIDI 01
010.546;000.099;64;000.594;MIDI 01
010.537;000.109;100;000.789;MIDI 01
010.540;000.138;96;000.719;MIDI 01
010.548;000.132;88;000.758;MIDI 01
010.881;000.028;89;000.664;MIDI 01
010.870;000.051;72;000.602;MIDI 01
010.860;000.064;74;000.656;MIDI 01
010.928;000.002;90;000.281;MIDI 01
010.875;000.060;62;000.555;MIDI 01
010.863;000.078;65;000.625;MIDI 01
010.935;000.040;94;000.312;MIDI 01
010.879;000.099;86;000.773;MIDI 01
010.877;000.130;96;000.758;MIDI 01
010.873;000.137;98;000.758;MIDI 01
011.042;000.101;60;000.617;MIDI 01
011.058;000.097;64;000.555;MIDI 01
011.143;000.070;67;000.633;MIDI 01
011.217;000.123;72;000.578;MIDI 01
011.311;000.030;76;000.750;MIDI 01
011.292;000.065;100;000.789;MIDI 01
011.294;000.065;91;000.719;MIDI 01
011.290;000.071;96;000.750;MIDI 01
011.296;000.081;88;000.789;MIDI 01
011.765;000.083;48;000.562;MIDI 01
011.814;000.062;55;000.562;MIDI 01
011.900;000.165;60;000.609;MIDI 01
012.021;000.052;64;000.703;MIDI 01
012.036;000.079;72;000.617;MIDI 01
012.030;000.113;84;000.742;MIDI 01
012.041;000.114;79;000.617;MIDI 01
012.033;000.129;76;000.656;MIDI 01
014.258;000.089;36;000.219;MIDI 01
014.256;000.113;43;000.219;MIDI 01
014.245;000.281;63;000.297;MIDI 01
014.260;000.268;60;000.227;MIDI 01
014.270;000.289;55;000.125;MIDI 01
014.539;000.083;43;000.305;MIDI 01
014.548;000.081;36;000.211;MIDI 01
014.746;000.055;43;000.297;MIDI 01
014.739;000.070;36;000.289;MIDI 01
014.982;000.078;53;000.305;MIDI 01
014.973;000.124;62;000.367;MIDI 01
014.971;000.143;60;000.391;MIDI 01
014.980;000.361;36;000.305;MIDI 01
014.966;000.381;43;000.320;MIDI 01
015.290;000.111;51;000.406;MIDI 01
015.308;000.121;60;000.438;MIDI 01
015.666;000.068;43;000.195;MIDI 01
015.657;000.086;36;000.250;MIDI 01
015.694;000.075;53;000.250;MIDI 01
015.661;000.184;60;000.312;MIDI 01
015.646;000.220;62;000.445;MIDI 01
015.895;000.048;43;000.391;MIDI 01
015.878;000.077;36;000.266;MIDI 01
016.096;000.057;43;000.422;MIDI 01
016.091;000.088;36;000.328;MIDI 01
016.384;000.242;60;000.367;MIDI 01
016.389;000.240;36;000.234;MIDI 01
016.403;000.229;43;000.289;MIDI 01
016.345;000.293;65;000.500;MIDI 01
016.386;000.253;56;000.328;MIDI 01
017.061;000.077;43;000.203;MIDI 01
017.056;000.105;36;000.273;MIDI 01
017.064;000.136;55;000.312;MIDI 01
017.054;000.211;63;000.406;MIDI 01
017.066;000.279;60;000.367;MIDI 01
017.293;000.068;43;000.328;MIDI 01
017.279;000.138;36;000.242;MIDI 01
017.349;000.135;53;000.398;MIDI 01
017.530;000.066;43;000.398;MIDI 01
017.522;000.089;36;000.242;MIDI 01
017.357;000.342;62;000.484;MIDI 01
017.817;000.118;55;000.258;MIDI 01
017.796;000.201;60;000.305;MIDI 01
017.771;000.260;63;000.453;MIDI 01
017.811;000.329;36;000.289;MIDI 01
017.793;000.374;43;000.289;MIDI 01
018.495;000.052;58;000.352;MIDI 01
018.481;000.077;43;000.258;MIDI 01
018.477;000.091;36;000.281;MIDI 01
018.495;000.158;60;000.375;MIDI 01
018.723;000.059;43;000.367;MIDI 01
018.714;000.072;36;000.297;MIDI 01
018.479;000.377;67;000.508;MIDI 01
018.831;000.126;56;000.445;MIDI 01
018.967;000.108;43;000.328;MIDI 01
018.984;000.134;36;000.344;MIDI 01
018.822;000.442;65;000.562;MIDI 01
019.273;000.260;60;000.438;MIDI 01
019.307;000.268;36;000.289;MIDI 01
019.253;000.351;68;000.516;MIDI 01
019.293;000.354;43;000.352;MIDI 01
019.984;000.069;43;000.141;MIDI 01
019.975;000.112;58;000.352;MIDI 01
019.982;000.108;36;000.172;MIDI 01
020.008;000.177;60;000.320;MIDI 01
019.967;000.255;67;000.461;MIDI 01
020.226;000.067;43;000.336;MIDI 01
020.218;000.107;36;000.188;MIDI 01
020.331;000.054;60;000.398;MIDI 01
020.299;000.089;65;000.492;MIDI 01
020.301;000.175;56;000.445;MIDI 01
020.454;000.060;43;000.398;MIDI 01
020.460;000.059;36;000.336;MIDI 01
020.667;000.168;55;000.328;MIDI 01
020.653;000.192;63;000.422;MIDI 01
020.671;000.256;60;000.320;MIDI 01
020.971;000.080;53;000.352;MIDI 01
020.961;000.093;62;000.461;MIDI 01
020.689;000.401;36;000.305;MIDI 01
020.691;000.408;43;000.344;MIDI 01
020.959;000.209;60;000.117;MIDI 01
021.346;000.102;36;000.234;MIDI 01
021.359;000.101;43;000.188;MIDI 01
021.608;000.067;43;000.289;MIDI 01
021.598;000.085;36;000.188;MIDI 01
021.823;000.083;43;000.328;MIDI 01
021.812;000.108;36;000.234;MIDI 01
021.349;000.899;51;000.383;MIDI 01
022.114;000.240;36;000.039;MIDI 01
021.339;001.089;60;000.375;MIDI 01
022.108;000.336;43;000.242;MIDI 01
022.497;000.064;50;000.289;MIDI 01
022.494;000.117;62;000.367;MIDI 01
023.005;000.100;43;000.188;MIDI 01
022.982;000.175;31;000.234;MIDI 01
023.271;000.064;43;000.258;MIDI 01
023.260;000.116;31;000.156;MIDI 01
023.506;000.043;43;000.273;MIDI 01
023.491;000.080;31;000.109;MIDI 01
023.732;000.156;43;000.266;MIDI 01
023.760;000.244;31;000.242;MIDI 01
024.455;000.062;38;000.180;MIDI 01
024.457;000.083;31;000.180;MIDI 01
022.986;001.678;50;000.297;MIDI 01
023.016;001.685;55;000.250;MIDI 01
024.688;000.067;38;000.336;MIDI 01
023.010;001.747;59;000.289;MIDI 01
022.980;001.781;62;000.320;MIDI 01
024.695;000.070;31;000.227;MIDI 01
024.908;000.083;31;000.297;MIDI 01
024.905;000.089;38;000.344;MIDI 01
025.300;000.216;70;000.406;MIDI 01
025.325;000.240;62;000.312;MIDI 01
025.323;000.335;31;000.234;MIDI 01
025.277;000.383;38;000.242;MIDI 01
025.974;000.069;38;000.297;MIDI 01
025.271;000.777;74;000.555;MIDI 01
025.996;000.075;31;000.188;MIDI 01
025.998;000.088;60;000.383;MIDI 01
026.003;000.217;69;000.430;MIDI 01
026.221;000.092;38;000.391;MIDI 01
026.240;000.079;31;000.320;MIDI 01
026.328;000.031;58;000.367;MIDI 01
026.333;000.179;67;000.383;MIDI 01
026.482;000.072;38;000.406;MIDI 01
026.500;000.068;31;000.336;MIDI 01
026.736;000.143;60;000.375;MIDI 01
026.723;000.332;69;000.461;MIDI 01
026.742;000.380;38;000.328;MIDI 01
026.757;000.371;31;000.289;MIDI 01
027.441;000.126;38;000.320;MIDI 01
027.456;000.130;31;000.312;MIDI 01
027.514;000.233;63;000.391;MIDI 01
027.743;000.066;31;000.344;MIDI 01
027.734;000.075;38;000.445;MIDI 01
026.712;001.100;74;000.602;MIDI 01
027.498;000.322;72;000.492;MIDI 01
027.954;000.070;31;000.414;MIDI 01
027.946;000.085;38;000.484;MIDI 01
028.232;000.078;62;000.414;MIDI 01
028.203;000.125;70;000.500;MIDI 01
028.553;000.095;60;000.461;MIDI 01
028.555;000.116;69;000.492;MIDI 01
028.216;000.459;31;000.297;MIDI 01
028.227;000.450;38;000.367;MIDI 01
028.900;000.086;38;000.391;MIDI 01
028.911;000.082;31;000.312;MIDI 01
028.935;000.227;62;000.414;MIDI 01
029.160;000.077;31;000.398;MIDI 01
029.148;000.093;38;000.445;MIDI 01
028.193;001.077;74;000.609;MIDI 01
029.391;000.065;38;000.469;MIDI 01
029.387;000.076;31;000.422;MIDI 01
028.921;000.729;70;000.484;MIDI 01
029.690;000.106;65;000.523;MIDI 01
029.675;000.495;74;000.578;MIDI 01
030.070;000.107;63;000.547;MIDI 01
030.057;000.195;72;000.586;MIDI 01
029.700;000.591;38;000.359;MIDI 01
029.702;000.601;31;000.320;MIDI 01
030.554;000.152;38;000.312;MIDI 01
030.561;000.168;31;000.320;MIDI 01
030.552;000.314;77;000.617;MIDI 01
030.565;000.316;72;000.484;MIDI 01
030.575;000.312;68;000.430;MIDI 01
030.841;000.100;31;000.305;MIDI 01
030.850;000.098;38;000.359;MIDI 01
031.079;000.086;31;000.406;MIDI 01
031.073;000.108;38;000.391;MIDI 01
031.323;000.165;67;000.367;MIDI 01
031.329;000.169;72;000.406;MIDI 01
031.318;000.199;75;000.516;MIDI 01
031.670;000.114;74;000.570;MIDI 01
031.681;000.106;65;000.461;MIDI 01
031.326;000.495;31;000.344;MIDI 01
031.703;000.140;72;000.469;MIDI 01
031.333;000.520;38;000.352;MIDI 01
032.047;000.097;38;000.359;MIDI 01
032.060;000.085;63;000.461;MIDI 01
032.058;000.109;31;000.305;MIDI 01
032.039;000.241;72;000.484;MIDI 01
032.329;000.098;38;000.398;MIDI 01
032.335;000.098;31;000.297;MIDI 01
032.432;000.092;65;000.359;MIDI 01
032.627;000.076;31;000.383;MIDI 01
032.608;000.096;38;000.422;MIDI 01
032.417;000.519;74;000.562;MIDI 01
032.996;000.329;31;000.273;MIDI 01
032.983;000.358;38;000.250;MIDI 01
033.931;000.274;36;000.297;MIDI 01
033.925;000.292;24;000.336;MIDI 01
032.980;001.304;65;000.375;MIDI 01
032.961;001.329;71;000.453;MIDI 01
033.000;001.307;62;000.297;MIDI 01
034.385;000.185;36;000.336;MIDI 01
034.400;000.223;24;000.297;MIDI 01
034.582;000.072;72;000.312;MIDI 01
034.619;000.395;60;000.258;MIDI 01
034.797;000.227;36;000.336;MIDI 01
034.585;000.465;64;000.266;MIDI 01
034.657;000.395;72;000.023;MIDI 01
034.782;000.273;24;000.180;MIDI 01
035.518;001.791;72;000.328;MIDI 01
035.524;001.837;24;000.219;MIDI 01
035.542;001.852;64;000.266;MIDI 01
035.540;001.858;36;000.156;MIDI 01
035.548;001.884;60;000.242;MIDI 01
038.161;000.050;60;000.508;MIDI 01
038.164;000.050;48;000.492;MIDI 01
038.168;000.054;36;000.477;MIDI 01
038.316;000.055;34;000.562;MIDI 01
038.318;000.089;58;000.625;MIDI 01
038.481;000.048;32;000.586;MIDI 01
038.471;000.075;56;000.633;MIDI 01
038.619;000.046;48;000.656;MIDI 01
038.618;000.064;60;000.672;MIDI 01
038.616;000.068;36;000.625;MIDI 01
038.769;000.069;31;000.633;MIDI 01
038.767;000.075;55;000.680;MIDI 01
038.881;000.073;36;000.617;MIDI 01
038.902;000.064;48;000.688;MIDI 01
038.904;000.080;60;000.664;MIDI 01
039.097;000.032;29;000.648;MIDI 01
039.086;000.054;41;000.711;MIDI 01
039.077;000.084;53;000.703;MIDI 01
039.804;000.462;60;000.555;MIDI 01
039.808;000.494;56;000.578;MIDI 01
039.786;000.527;65;000.664;MIDI 01
040.271;000.094;55;000.484;MIDI 01
040.323;000.100;53;000.586;MIDI 01
040.438;000.072;67;000.617;MIDI 01
040.433;000.083;61;000.680;MIDI 01
040.444;000.112;79;000.625;MIDI 01
040.440;000.120;70;000.719;MIDI 01
040.442;000.180;82;000.688;MIDI 01
040.871;000.027;72;000.516;MIDI 01
040.867;000.035;84;000.609;MIDI 01
040.955;000.035;85;000.594;MIDI 01
040.961;000.032;73;000.672;MIDI 01
041.062;000.031;73;000.352;MIDI 01
041.205;000.030;28;000.703;MIDI 01
041.203;000.034;52;000.758;MIDI 01
041.197;000.070;40;000.727;MIDI 01
041.896;000.493;67;000.711;MIDI 01
041.907;000.500;61;000.688;MIDI 01
042.406;000.072;60;000.539;MIDI 01
042.558;000.074;69;000.672;MIDI 01
042.442;000.239;58;000.570;MIDI 01
042.569;000.114;66;000.695;MIDI 01
042.574;000.163;78;000.711;MIDI 01
042.578;000.173;72;000.695;MIDI 01
042.576;000.223;84;000.742;MIDI 01
042.990;000.023;85;000.648;MIDI 01
042.992;000.026;73;000.617;MIDI 01
043.079;000.015;87;000.750;MIDI 01
043.073;000.052;75;000.734;MIDI 01
043.296;000.034;27;000.688;MIDI 01
043.298;000.049;51;000.805;MIDI 01
043.291;000.071;39;000.773;MIDI 01
043.998;000.477;72;000.742;MIDI 01
044.017;000.464;69;000.656;MIDI 01
044.014;000.519;66;000.688;MIDI 01
044.510;000.091;65;000.578;MIDI 01
044.684;000.066;75;000.695;MIDI 01
044.678;000.074;77;000.719;MIDI 01
044.676;000.098;82;000.719;MIDI 01
044.682;000.126;89;000.750;MIDI 01
044.680;000.134;70;000.680;MIDI 01
044.555;000.345;63;000.602;MIDI 01
045.120;000.025;91;000.570;MIDI 01
045.114;000.035;81;000.602;MIDI 01
045.182;000.025;94;000.805;MIDI 01
045.202;000.023;81;000.633;MIDI 01
045.188;000.042;82;000.742;MIDI 01
045.212;000.026;92;000.516;MIDI 01
045.462;000.039;50;000.805;MIDI 01
045.460;000.044;26;000.703;MIDI 01
045.457;000.070;38;000.781;MIDI 01
046.184;000.054;77;000.758;MIDI 01
046.208;000.050;82;000.750;MIDI 01
046.155;000.120;74;000.656;MIDI 01
046.210;000.067;89;000.695;MIDI 01
046.068;000.229;70;000.609;MIDI 01
046.266;000.035;92;000.328;MIDI 01
046.015;000.293;65;000.570;MIDI 01
046.206;000.125;94;000.789;MIDI 01
046.628;000.025;86;000.609;MIDI 01
046.624;000.031;98;000.656;MIDI 01
046.720;000.041;89;000.742;MIDI 01
046.717;000.045;101;000.805;MIDI 01
046.895;000.527;49;000.812;MIDI 01
046.902;000.657;37;000.711;MIDI 01
047.805;000.134;36;000.703;MIDI 01
047.803;000.215;48;000.781;MIDI 01
047.811;000.489;65;000.695;MIDI 01
047.809;000.507;68;000.719;MIDI 01
048.308;000.079;72;000.609;MIDI 01
048.400;000.035;77;000.633;MIDI 01
048.367;000.087;48;000.562;MIDI 01
048.445;000.163;56;000.586;MIDI 01
048.677;000.002;80;000.359;MIDI 01
048.657;000.038;82;000.633;MIDI 01
048.694;000.019;93;000.391;MIDI 01
048.655;000.059;92;000.773;MIDI 01
048.636;000.083;65;000.727;MIDI 01
048.546;000.233;60;000.578;MIDI 01
049.027;000.027;96;000.688;MIDI 01
049.035;000.024;84;000.508;MIDI 01
049.118;000.041;48;000.484;MIDI 01
049.149;000.032;89;000.656;MIDI 01
049.141;000.043;101;000.773;MIDI 01
049.223;000.099;60;000.625;MIDI 01
049.177;000.172;55;000.570;MIDI 01
049.301;000.077;64;000.672;MIDI 01
049.434;000.060;91;000.680;MIDI 01
049.445;000.068;100;000.664;MIDI 01
049.443;000.091;96;000.648;MIDI 01
049.450;000.097;88;000.641;MIDI 01
049.515;000.135;48;000.633;MIDI 01
049.517;000.141;53;000.594;MIDI 01
049.641;000.071;62;000.672;MIDI 01
049.635;000.095;60;000.633;MIDI 01
049.675;000.060;52;000.281;MIDI 01
049.716;000.039;86;000.633;MIDI 01
049.705;000.092;96;000.641;MIDI 01
049.708;000.091;98;000.695;MIDI 01
049.772;000.081;48;000.562;MIDI 01
049.797;000.128;52;000.531;MIDI 01
049.970;000.021;100;000.773;MIDI 01
049.958;000.054;91;000.711;MIDI 01
049.877;000.142;55;000.539;MIDI 01
049.925;000.094;60;000.641;MIDI 01
049.975;000.046;64;000.773;MIDI 01
049.960;000.060;96;000.711;MIDI 01
049.972;000.062;88;000.773;MIDI 01
050.453;000.071;36;000.508;MIDI 01
050.517;000.127;43;000.562;MIDI 01
050.583;000.119;48;000.648;MIDI 01
050.660;000.051;84;000.742;MIDI 01
050.668;000.050;79;000.648;MIDI 01
050.666;000.061;72;000.680;MIDI 01
050.663;000.069;76;000.695;MIDI 01
050.651;000.082;52;000.742;MIDI 01
053.033;000.127;36;000.719;MIDI 01
052.332;001.114;72;000.719;MIDI 01
052.345;001.117;68;000.602;MIDI 01
052.330;001.149;63;000.578;MIDI 01
052.343;001.141;60;000.570;MIDI 01
053.432;000.062;34;000.688;MIDI 01
053.559;000.084;32;000.641;MIDI 01
053.721;000.100;39;000.695;MIDI 01
053.734;000.445;58;000.648;MIDI 01
053.737;000.448;63;000.570;MIDI 01
053.732;000.482;67;000.578;MIDI 01
053.740;000.525;70;000.656;MIDI 01
055.100;000.120;41;000.656;MIDI 01
055.448;000.106;39;000.633;MIDI 01
055.575;000.061;37;000.578;MIDI 01
055.720;000.186;49;000.688;MIDI 01
054.450;001.698;65;000.594;MIDI 01
054.448;001.798;61;000.594;MIDI 01
054.442;001.833;73;000.648;MIDI 01
054.443;001.915;68;000.578;MIDI 01
057.075;000.094;37;000.672;MIDI 01
056.427;001.044;65;000.633;MIDI 01
057.406;000.069;36;000.672;MIDI 01
056.421;001.104;61;000.594;MIDI 01
056.431;001.103;73;000.664;MIDI 01
056.423;001.141;70;000.641;MIDI 01
057.534;000.109;34;000.672;MIDI 01
057.692;000.078;41;000.727;MIDI 01
057.697;000.408;60;000.547;MIDI 01
057.699;000.428;65;000.609;MIDI 01
057.701;000.439;72;000.672;MIDI 01
057.694;000.475;68;000.641;MIDI 01
059.067;000.106;42;000.641;MIDI 01
059.389;000.080;41;000.617;MIDI 01
059.515;000.099;39;000.609;MIDI 01
059.682;000.150;51;000.656;MIDI 01
058.447;001.623;66;000.602;MIDI 01
058.454;001.622;63;000.594;MIDI 01
058.456;001.646;70;000.586;MIDI 01
058.441;001.701;75;000.688;MIDI 01
060.407;000.227;70;000.555;MIDI 01
060.409;000.253;66;000.539;MIDI 01
060.403;000.290;72;000.555;MIDI 01
060.806;000.103;65;000.664;MIDI 01
060.814;000.100;70;000.586;MIDI 01
060.411;000.514;75;000.633;MIDI 01
060.811;000.177;73;000.727;MIDI 01
061.608;000.077;30;000.617;MIDI 01
061.739;000.070;29;000.633;MIDI 01
061.876;000.102;41;000.664;MIDI 01
061.276;000.810;78;000.719;MIDI 01
061.277;000.821;70;000.648;MIDI 01
061.274;000.831;72;000.648;MIDI 01
062.201;000.216;77;000.664;MIDI 01
062.199;000.251;72;000.555;MIDI 01
062.201;000.266;68;000.602;MIDI 01
062.576;000.176;66;000.609;MIDI 01
062.569;000.186;75;000.609;MIDI 01
062.573;000.185;70;000.602;MIDI 01
062.897;000.139;73;000.711;MIDI 01
062.904;000.139;65;000.578;MIDI 01
062.908;000.138;68;000.594;MIDI 01
063.359;000.056;68;000.141;MIDI 01
063.594;000.071;31;000.609;MIDI 01
063.743;000.070;29;000.617;MIDI 01
063.927;000.098;41;000.625;MIDI 01
063.300;000.957;61;000.523;MIDI 01
063.307;001.267;67;000.484;MIDI 01
063.291;001.286;64;000.523;MIDI 01
063.289;001.292;70;000.633;MIDI 01
064.335;000.315;60;000.414;MIDI 01
064.324;000.329;72;000.586;MIDI 01
065.693;000.117;33;000.516;MIDI 01
066.361;000.084;31;000.445;MIDI 01
066.725;000.099;29;000.414;MIDI 01
067.188;000.173;41;000.352;MIDI 01
064.996;003.868;72;000.555;MIDI 01
065.016;003.882;69;000.477;MIDI 01
065.014;003.907;65;000.453;MIDI 01
065.021;003.999;60;000.422;MIDI 01
070.419;000.059;38;000.398;MIDI 01
069.759;001.022;62;000.320;MIDI 01
070.725;000.077;36;000.398;MIDI 01
069.776;001.080;50;000.242;MIDI 01
070.848;000.038;34;000.492;MIDI 01
069.783;001.108;53;000.266;MIDI 01
069.775;001.154;58;000.266;MIDI 01
071.061;000.209;53;000.328;MIDI 01
071.037;000.276;60;000.375;MIDI 01
071.034;000.292;57;000.359;MIDI 01
071.349;000.047;41;000.398;MIDI 01
072.408;000.057;67;000.273;MIDI 01
071.783;000.807;63;000.453;MIDI 01
072.732;000.057;65;000.297;MIDI 01
072.828;000.094;63;000.312;MIDI 01
071.800;001.252;58;000.289;MIDI 01
071.814;001.714;55;000.336;MIDI 01
073.036;000.529;59;000.352;MIDI 01
073.511;000.069;75;000.344;MIDI 01
071.818;001.848;51;000.227;MIDI 01
074.649;000.058;39;000.461;MIDI 01
074.953;000.080;38;000.516;MIDI 01
074.028;001.007;55;000.359;MIDI 01
074.002;001.105;63;000.438;MIDI 01
074.026;001.090;51;000.352;MIDI 01
075.077;000.067;36;000.562;MIDI 01
074.021;001.140;60;000.398;MIDI 01
075.285;000.223;55;000.352;MIDI 01
075.265;000.314;58;000.414;MIDI 01
075.267;000.333;62;000.484;MIDI 01
075.570;000.053;43;000.469;MIDI 01
075.981;000.661;65;000.492;MIDI 01
076.623;000.084;70;000.430;MIDI 01
076.000;000.971;58;000.375;MIDI 01
076.945;000.091;67;000.375;MIDI 01
077.085;000.085;65;000.352;MIDI 01
077.791;000.052;77;000.328;MIDI 01
077.281;000.688;56;000.344;MIDI 01
076.013;002.004;53;000.320;MIDI 01
075.992;002.027;60;000.359;MIDI 01
078.460;000.310;44;000.391;MIDI 01
078.442;000.449;65;000.438;MIDI 01
078.440;000.486;60;000.406;MIDI 01
078.866;000.124;58;000.484;MIDI 01
078.864;000.135;43;000.469;MIDI 01
078.868;000.614;63;000.570;MIDI 01
079.443;000.224;56;000.414;MIDI 01
079.432;000.314;68;000.586;MIDI 01
079.450;000.300;61;000.398;MIDI 01
079.419;000.412;41;000.406;MIDI 01
079.422;000.430;29;000.430;MIDI 01
080.286;000.164;61;000.391;MIDI 01
080.249;000.231;31;000.383;MIDI 01
080.303;000.192;58;000.289;MIDI 01
080.284;000.241;43;000.328;MIDI 01
080.264;000.459;67;000.492;MIDI 01
080.675;000.144;44;000.484;MIDI 01
080.690;000.133;56;000.406;MIDI 01
080.677;000.148;65;000.484;MIDI 01
080.680;000.168;61;000.438;MIDI 01
080.698;000.172;32;000.289;MIDI 01
081.041;000.108;55;000.359;MIDI 01
081.014;000.138;61;000.477;MIDI 01
081.030;000.130;34;000.391;MIDI 01
081.018;000.154;46;000.469;MIDI 01
081.377;000.128;56;000.453;MIDI 01
081.375;000.154;37;000.445;MIDI 01
081.380;000.152;53;000.391;MIDI 01
081.377;000.213;49;000.477;MIDI 01
081.373;000.510;61;000.484;MIDI 01
081.021;000.983;63;000.484;MIDI 01
081.885;000.980;58;000.445;MIDI 01
081.904;001.241;55;000.336;MIDI 01
081.881;001.271;39;000.328;MIDI 01
081.883;001.323;51;000.367;MIDI 01
082.835;000.394;63;000.289;MIDI 01
083.890;000.371;80;000.312;MIDI 01
083.883;000.410;84;000.328;MIDI 01
083.859;000.436;89;000.336;MIDI 01
084.294;000.094;82;000.391;MIDI 01
084.299;000.197;79;000.375;MIDI 01
084.281;000.535;87;000.539;MIDI 01
084.844;000.248;80;000.320;MIDI 01
084.831;000.329;85;000.406;MIDI 01
084.804;000.393;92;000.555;MIDI 01
084.829;000.374;77;000.289;MIDI 01
085.604;000.101;82;000.297;MIDI 01
085.582;000.132;85;000.383;MIDI 01
085.239;000.520;65;000.328;MIDI 01
085.567;000.290;91;000.461;MIDI 01
085.601;000.369;67;000.258;MIDI 01
085.975;000.079;80;000.398;MIDI 01
085.963;000.106;89;000.422;MIDI 01
085.977;000.094;85;000.398;MIDI 01
085.974;000.178;68;000.328;MIDI 01
086.391;000.136;79;000.258;MIDI 01
086.360;000.199;85;000.375;MIDI 01
086.833;000.107;80;000.352;MIDI 01
086.379;000.572;70;000.320;MIDI 01
086.860;000.155;77;000.281;MIDI 01
086.855;000.265;73;000.289;MIDI 01
086.817;000.554;85;000.383;MIDI 01
086.364;001.141;87;000.398;MIDI 01
087.419;001.327;82;000.352;MIDI 01
087.405;001.401;75;000.305;MIDI 01
088.753;000.423;87;000.320;MIDI 01
087.431;001.770;79;000.297;MIDI 01
088.751;000.478;73;000.250;MIDI 01
086.374;003.075;63;000.289;MIDI 01
090.535;000.599;44;000.289;MIDI 01
091.205;000.623;51;000.227;MIDI 01
091.724;000.502;63;000.250;MIDI 01
092.157;000.330;51;000.227;MIDI 01
090.542;002.075;68;000.359;MIDI 01
092.503;000.160;63;000.258;MIDI 01
090.525;002.691;72;000.453;MIDI 01
092.836;000.444;51;000.227;MIDI 01
093.210;000.322;44;000.352;MIDI 01
093.561;000.393;51;000.258;MIDI 01
093.894;000.183;62;000.336;MIDI 01
094.155;000.386;51;000.289;MIDI 01
093.215;001.337;68;000.344;MIDI 01
094.452;000.182;67;000.383;MIDI 01
093.205;001.505;70;000.430;MIDI 01
094.459;000.266;61;000.320;MIDI 01
094.770;000.467;51;000.250;MIDI 01
095.147;000.456;44;000.352;MIDI 01
095.602;000.406;51;000.297;MIDI 01
095.929;000.241;60;000.289;MIDI 01
096.186;000.336;51;000.305;MIDI 01
095.175;001.350;70;000.383;MIDI 01
096.485;000.178;60;000.289;MIDI 01
096.834;000.411;51;000.172;MIDI 01
095.155;002.445;75;000.461;MIDI 01
097.197;000.487;44;000.312;MIDI 01
097.622;000.447;51;000.266;MIDI 01
096.487;001.733;68;000.344;MIDI 01
097.966;000.335;59;000.289;MIDI 01
098.267;000.286;51;000.312;MIDI 01
097.981;000.590;75;000.430;MIDI 01
098.588;000.100;59;000.359;MIDI 01
095.184;003.662;63;000.297;MIDI 01
098.552;000.617;76;000.539;MIDI 01
098.871;000.356;51;000.297;MIDI 01
099.169;000.459;42;000.367;MIDI 01
099.695;000.217;78;000.461;MIDI 01
099.628;000.430;51;000.320;MIDI 01
099.454;000.701;71;000.414;MIDI 01
099.269;001.017;63;000.414;MIDI 01
099.966;000.360;59;000.320;MIDI 01
100.255;000.241;51;000.297;MIDI 01
100.547;000.081;59;000.312;MIDI 01
100.864;000.364;51;000.367;MIDI 01
101.218;000.170;61;000.562;MIDI 01
101.133;000.690;42;000.406;MIDI 01
101.919;000.150;54;000.383;MIDI 01
101.555;000.890;49;000.375;MIDI 01
101.415;001.085;71;000.484;MIDI 01
101.666;000.894;78;000.492;MIDI 01
102.214;000.376;42;000.422;MIDI 01
102.510;000.147;70;000.477;MIDI 01
102.521;000.171;52;000.344;MIDI 01
102.795;000.577;42;000.352;MIDI 01
103.133;000.478;51;000.398;MIDI 01
103.584;000.329;42;000.383;MIDI 01
103.869;000.339;51;000.406;MIDI 01
104.133;000.394;42;000.383;MIDI 01
104.422;000.146;71;000.438;MIDI 01
103.115;001.496;73;000.492;MIDI 01
104.449;000.259;51;000.352;MIDI 01
104.729;000.635;42;000.344;MIDI 01
103.244;002.140;78;000.523;MIDI 01
105.078;000.489;50;000.312;MIDI 01
105.525;000.452;42;000.383;MIDI 01
105.817;000.386;50;000.273;MIDI 01
105.073;001.406;72;000.391;MIDI 01
106.159;000.322;42;000.375;MIDI 01
105.814;000.718;78;000.469;MIDI 01
106.400;000.293;50;000.336;MIDI 01
102.972;003.812;66;000.562;MIDI 01
106.699;000.460;42;000.375;MIDI 01
107.062;000.138;66;000.422;MIDI 01
106.407;000.807;80;000.562;MIDI 01
107.180;000.170;73;000.461;MIDI 01
106.999;000.382;49;000.445;MIDI 01
107.358;000.399;42;000.422;MIDI 01
107.711;000.288;49;000.438;MIDI 01
108.035;000.328;42;000.406;MIDI 01
107.278;001.218;78;000.492;MIDI 01
107.414;001.105;82;000.570;MIDI 01
108.294;000.408;49;000.477;MIDI 01
108.584;000.483;42;000.453;MIDI 01
108.931;000.350;54;000.523;MIDI 01
109.273;000.136;39;000.508;MIDI 01
109.577;000.117;54;000.484;MIDI 01
109.857;000.178;39;000.539;MIDI 01
110.190;000.132;54;000.523;MIDI 01
108.936;001.490;75;000.516;MIDI 01
108.931;001.564;84;000.648;MIDI 01
108.948;001.549;72;000.500;MIDI 01
108.946;001.607;80;000.516;MIDI 01
110.456;000.134;39;000.555;MIDI 01
110.809;000.202;53;000.602;MIDI 01
111.142;000.092;37;000.562;MIDI 01
110.825;000.615;77;000.586;MIDI 01
110.832;000.658;73;000.555;MIDI 01
111.434;000.071;53;000.562;MIDI 01
110.819;000.711;85;000.648;MIDI 01
110.823;000.710;80;000.578;MIDI 01
111.732;000.414;37;000.586;MIDI 01
112.079;000.178;51;000.625;MIDI 01
112.381;000.143;36;000.641;MIDI 01
112.073;000.689;75;000.656;MIDI 01
112.055;000.722;80;000.609;MIDI 01
112.070;000.735;78;000.633;MIDI 01
112.701;000.130;51;000.656;MIDI 01
112.065;000.828;87;000.750;MIDI 01
113.006;000.431;36;000.688;MIDI 01
113.352;000.244;49;000.727;MIDI 01
113.671;000.150;35;000.680;MIDI 01
114.039;000.166;49;000.727;MIDI 01
113.345;001.233;80;000.656;MIDI 01
114.476;000.143;35;000.680;MIDI 01
113.354;001.267;77;000.688;MIDI 01
113.348;001.304;89;000.742;MIDI 01
113.350;001.348;85;000.664;MIDI 01
115.099;000.071;34;000.609;MIDI 01
115.190;000.042;49;000.656;MIDI 01
115.197;000.367;78;000.711;MIDI 01
115.195;000.430;85;000.703;MIDI 01
115.680;000.074;46;000.609;MIDI 01
115.778;000.032;61;000.625;MIDI 01
115.891;000.032;48;000.672;MIDI 01
115.959;000.052;63;000.711;MIDI 01
115.911;000.232;80;000.578;MIDI 01
115.906;000.247;87;000.617;MIDI 01
115.193;000.968;90;000.750;MIDI 01
115.929;000.263;78;000.656;MIDI 01
116.448;000.119;49;000.547;MIDI 01
116.527;000.116;56;000.594;MIDI 01
116.628;000.059;65;000.664;MIDI 01
116.615;000.089;77;000.664;MIDI 01
116.609;000.105;80;000.656;MIDI 01
116.607;000.138;89;000.711;MIDI 01
116.612;000.164;85;000.633;MIDI 01
117.246;000.085;34;000.609;MIDI 01
117.338;000.069;49;000.734;MIDI 01
117.352;000.068;94;000.734;MIDI 01
117.350;000.094;90;000.727;MIDI 01
117.355;000.097;82;000.664;MIDI 01
117.354;000.100;85;000.688;MIDI 01
117.835;000.043;46;000.656;MIDI 01
117.870;000.064;78;000.711;MIDI 01
117.930;000.029;61;000.672;MIDI 01
117.875;000.104;85;000.641;MIDI 01
118.027;000.051;48;000.695;MIDI 01
118.112;000.053;63;000.711;MIDI 01
118.052;000.259;80;000.664;MIDI 01
118.057;000.268;78;000.672;MIDI 01
118.031;000.296;87;000.703;MIDI 01
117.865;000.531;90;000.758;MIDI 01
118.582;000.114;49;000.570;MIDI 01
118.652;000.128;56;000.641;MIDI 01
118.759;000.062;65;000.734;MIDI 01
118.775;000.092;77;000.750;MIDI 01
118.770;000.124;80;000.727;MIDI 01
118.772;000.171;89;000.750;MIDI 01
118.774;000.193;85;000.719;MIDI 01
119.449;000.105;34;000.641;MIDI 01
119.554;000.073;49;000.719;MIDI 01
119.573;000.123;97;000.781;MIDI 01
119.579;000.155;94;000.703;MIDI 01
119.575;000.167;85;000.703;MIDI 01
119.577;000.169;90;000.734;MIDI 01
120.090;000.072;46;000.617;MIDI 01
120.133;000.072;94;000.594;MIDI 01
120.140;000.091;82;000.555;MIDI 01
120.185;000.047;61;000.648;MIDI 01
120.135;000.111;90;000.578;MIDI 01
120.320;000.030;47;000.547;MIDI 01
120.324;000.040;48;000.578;MIDI 01
120.328;000.101;92;000.617;MIDI 01
120.326;000.117;89;000.594;MIDI 01
120.334;000.116;80;000.594;MIDI 01
120.386;000.071;62;000.625;MIDI 01
120.454;000.055;56;000.164;MIDI 01
120.612;000.058;48;000.695;MIDI 01
120.708;000.069;63;000.664;MIDI 01
120.668;000.117;87;000.656;MIDI 01
120.671;000.142;78;000.664;MIDI 01
120.675;000.160;90;000.648;MIDI 01
120.909;000.068;49;000.664;MIDI 01
121.007;000.038;51;000.312;MIDI 01
120.958;000.139;89;000.688;MIDI 01
121.043;000.074;65;000.656;MIDI 01
120.969;000.150;77;000.633;MIDI 01
120.953;000.229;85;000.703;MIDI 01
121.213;000.083;51;000.602;MIDI 01
121.275;000.121;75;000.695;MIDI 01
121.325;000.074;66;000.680;MIDI 01
121.271;000.129;87;000.672;MIDI 01
121.281;000.170;85;000.664;MIDI 01
121.503;000.068;53;000.680;MIDI 01
121.602;000.028;82;000.312;MIDI 01
121.561;000.097;73;000.703;MIDI 01
121.617;000.069;68;000.680;MIDI 01
121.565;000.158;85;000.750;MIDI 01
121.819;000.083;55;000.594;MIDI 01
121.900;000.119;87;000.719;MIDI 01
121.932;000.092;70;000.703;MIDI 01
121.896;000.141;82;000.664;MIDI 01
121.902;000.135;75;000.703;MIDI 01
122.353;000.523;73;000.656;MIDI 01
122.340;000.591;85;000.734;MIDI 01
122.327;001.107;68;000.641;MIDI 01
122.268;001.253;63;000.539;MIDI 01
122.343;001.207;80;000.633;MIDI 01
122.345;001.215;75;000.625;MIDI 01
122.168;001.402;56;000.578;MIDI 01
123.268;000.310;72;000.516;MIDI 01
123.258;000.388;84;000.648;MIDI 01
123.986;000.060;41;000.578;MIDI 01
124.076;000.055;80;000.586;MIDI 01
124.080;000.060;73;000.625;MIDI 01
124.105;000.073;56;000.688;MIDI 01
124.078;000.128;85;000.688;MIDI 01
124.357;000.071;89;000.695;MIDI 01
124.357;000.072;77;000.633;MIDI 01
124.399;000.088;43;000.570;MIDI 01
124.540;000.056;58;000.656;MIDI 01
124.581;000.045;82;000.586;MIDI 01
124.584;000.067;75;000.703;MIDI 01
124.582;000.077;87;000.734;MIDI 01
124.805;000.175;44;000.617;MIDI 01
124.951;000.086;51;000.531;MIDI 01
125.062;000.085;56;000.523;MIDI 01
125.203;000.032;63;000.523;MIDI 01
124.862;000.427;73;000.539;MIDI 01
124.827;000.479;85;000.680;MIDI 01
124.839;001.482;80;000.594;MIDI 01
125.821;000.553;51;000.062;MIDI 01
125.888;000.500;84;000.594;MIDI 01
125.917;000.502;72;000.430;MIDI 01
125.892;000.533;56;000.023;MIDI 01
124.860;001.666;75;000.547;MIDI 01
127.169;000.296;72;000.297;MIDI 01
127.808;000.101;56;000.242;MIDI 01
128.225;000.037;72;000.258;MIDI 01
128.521;000.060;56;000.289;MIDI 01
128.823;000.032;72;000.273;MIDI 01
129.055;000.051;56;000.289;MIDI 01
127.232;002.056;75;000.328;MIDI 01
127.195;002.251;80;000.469;MIDI 01
129.405;000.070;71;000.039;MIDI 01
129.634;000.062;56;000.297;MIDI 01
129.846;000.064;71;000.352;MIDI 01
129.381;000.836;74;000.359;MIDI 01
130.086;000.198;56;000.234;MIDI 01
129.339;000.980;79;000.422;MIDI 01
130.240;000.101;73;000.391;MIDI 01
130.230;000.127;70;000.383;MIDI 01
130.248;000.310;78;000.438;MIDI 01
130.479;000.431;56;000.352;MIDI 01
130.789;000.214;69;000.289;MIDI 01
130.765;000.240;84;000.414;MIDI 01
130.623;000.455;72;000.344;MIDI 01
131.092;000.248;56;000.352;MIDI 01
131.298;000.096;77;000.391;MIDI 01
131.298;000.115;71;000.305;MIDI 01
131.325;000.095;68;000.320;MIDI 01
131.614;000.108;76;000.328;MIDI 01
131.534;000.192;56;000.414;MIDI 01
131.578;000.250;70;000.383;MIDI 01
131.726;000.131;67;000.352;MIDI 01
131.701;000.376;82;000.477;MIDI 01
131.933;000.148;56;000.391;MIDI 01
132.075;000.097;69;000.414;MIDI 01
132.075;000.140;66;000.391;MIDI 01
132.064;000.153;75;000.461;MIDI 01
132.272;000.172;56;000.430;MIDI 01
132.379;000.116;74;000.406;MIDI 01
132.359;000.216;68;000.414;MIDI 01
132.433;000.192;65;000.406;MIDI 01
132.648;000.299;56;000.430;MIDI 01
132.457;000.528;80;000.547;MIDI 01
132.873;000.166;67;000.461;MIDI 01
132.867;000.236;73;000.562;MIDI 01
132.884;000.270;64;000.375;MIDI 01
133.142;000.661;56;000.375;MIDI 01
133.592;000.438;63;000.273;MIDI 01
134.016;000.376;56;000.289;MIDI 01
133.569;000.940;66;000.297;MIDI 01
133.573;001.239;72;000.344;MIDI 01
134.307;000.551;63;000.289;MIDI 01
134.579;000.303;56;000.375;MIDI 01
134.833;000.254;64;000.289;MIDI 01
134.821;000.596;67;000.391;MIDI 01
133.530;001.951;78;000.477;MIDI 01
135.106;000.441;56;000.289;MIDI 01
135.455;000.333;65;000.234;MIDI 01
135.765;000.281;56;000.180;MIDI 01
136.120;000.136;65;000.117;MIDI 01
135.451;001.333;68;000.289;MIDI 01
136.352;000.499;56;000.258;MIDI 01
135.426;001.481;72;000.320;MIDI 01
136.708;000.399;66;000.227;MIDI 01
136.705;000.439;63;000.258;MIDI 01
137.111;000.519;56;000.172;MIDI 01
137.677;000.165;60;000.172;MIDI 01
138.113;000.094;44;000.367;MIDI 01
138.456;000.043;60;000.352;MIDI 01
138.716;000.056;44;000.320;MIDI 01
138.997;000.054;60;000.297;MIDI 01
139.253;000.044;44;000.258;MIDI 01
137.688;001.848;63;000.273;MIDI 01
137.644;002.015;68;000.312;MIDI 01
139.560;000.101;59;000.312;MIDI 01
139.847;000.072;44;000.344;MIDI 01
140.080;000.057;59;000.391;MIDI 01
140.296;000.188;44;000.367;MIDI 01
139.576;000.927;62;000.266;MIDI 01
139.556;001.014;67;000.414;MIDI 01
140.479;000.096;58;000.359;MIDI 01
140.517;000.073;61;000.367;MIDI 01
140.509;000.283;66;000.461;MIDI 01
140.701;000.396;44;000.391;MIDI 01
140.984;000.180;57;000.234;MIDI 01
140.994;000.242;72;000.430;MIDI 01
140.835;000.415;60;000.422;MIDI 01
141.290;000.238;44;000.336;MIDI 01
141.494;000.067;59;000.391;MIDI 01
141.496;000.078;65;000.414;MIDI 01
141.512;000.092;56;000.320;MIDI 01
141.704;000.210;44;000.375;MIDI 01
141.809;000.138;64;000.336;MIDI 01
141.911;000.128;55;000.273;MIDI 01
141.752;000.299;58;000.383;MIDI 01
142.098;000.172;44;000.430;MIDI 01
141.894;000.427;70;000.500;MIDI 01
142.292;000.104;57;000.414;MIDI 01
142.274;000.171;54;000.367;MIDI 01
142.285;000.173;63;000.461;MIDI 01
142.466;000.216;44;000.422;MIDI 01
142.608;000.135;62;000.422;MIDI 01
142.575;000.247;56;000.438;MIDI 01
142.681;000.199;53;000.336;MIDI 01
142.890;000.298;44;000.414;MIDI 01
142.689;000.539;68;000.523;MIDI 01
143.146;000.241;55;000.453;MIDI 01
143.139;000.264;52;000.391;MIDI 01
143.125;000.278;61;000.531;MIDI 01
143.417;000.743;44;000.336;MIDI 01
143.902;000.476;51;000.297;MIDI 01
144.339;000.397;44;000.352;MIDI 01
143.899;001.020;54;000.242;MIDI 01
143.896;001.206;60;000.320;MIDI 01
144.618;000.547;51;000.352;MIDI 01
144.882;000.334;44;000.477;MIDI 01
145.122;000.281;52;000.398;MIDI 01
145.131;000.642;55;000.453;MIDI 01
143.864;001.961;66;000.398;MIDI 01
145.408;000.508;44;000.398;MIDI 01
145.761;000.425;53;000.367;MIDI 01
146.105;000.339;44;000.273;MIDI 01
146.431;000.344;53;000.242;MIDI 01
146.761;000.529;44;000.250;MIDI 01
145.764;001.753;60;000.352;MIDI 01
145.756;001.868;56;000.375;MIDI 01
147.140;000.558;54;000.211;MIDI 01
147.114;000.695;51;000.289;MIDI 01
148.584;001.460;37;000.133;MIDI 01
148.576;001.475;65;000.266;MIDI 01
148.591;001.475;61;000.234;MIDI 01
148.594;001.488;49;000.109;MIDI 01
147.623;002.481;44;000.266;MIDI 01
148.592;001.518;53;000.180;MIDI 01
148.590;001.557;56;000.195;MIDI 01
150.911;001.570;53;000.180;MIDI 01
150.905;001.601;37;000.141;MIDI 01
150.900;001.612;61;000.242;MIDI 01
150.903;001.615;65;000.273;MIDI 01
150.879;001.651;44;000.227;MIDI 01
150.901;001.638;49;000.156;MIDI 01
150.909;001.637;56;000.219;MIDI 01
153.568;002.931;53;000.250;MIDI 01
153.573;003.004;56;000.211;MIDI 01
153.575;003.193;61;000.242;MIDI 01
153.565;003.341;65;000.320;MIDI 01
153.560;003.500;49;000.234;MIDI 01
153.584;003.545;37;000.266;MIDI 01
153.560;003.576;44;000.250;MIDI 01
157.680;000.062;48;000.492;MIDI 01
157.682;000.072;36;000.453;MIDI 01
157.893;000.033;46;000.555;MIDI 01
157.911;000.045;34;000.414;MIDI 01
158.045;000.043;32;000.578;MIDI 01
158.033;000.060;44;000.664;MIDI 01
158.207;000.048;48;000.656;MIDI 01
158.221;000.044;36;000.617;MIDI 01
158.370;000.036;31;000.633;MIDI 01
158.368;000.043;43;000.672;MIDI 01
158.522;000.035;48;000.734;MIDI 01
158.536;000.043;36;000.672;MIDI 01
158.693;000.031;30;000.711;MIDI 01
158.685;000.042;42;000.750;MIDI 01
159.042;000.040;81;000.562;MIDI 01
159.036;000.055;93;000.602;MIDI 01
159.077;000.122;54;000.484;MIDI 01
159.119;000.089;57;000.484;MIDI 01
159.203;000.033;91;000.602;MIDI 01
159.205;000.034;79;000.586;MIDI 01
159.343;000.053;78;000.672;MIDI 01
159.349;000.055;90;000.688;MIDI 01
159.514;000.022;95;000.570;MIDI 01
159.521;000.022;93;000.578;MIDI 01
159.505;000.041;83;000.625;MIDI 01
159.325;000.228;69;000.594;MIDI 01
159.244;000.416;63;000.516;MIDI 01
159.180;000.493;60;000.586;MIDI 01
159.651;000.030;77;000.648;MIDI 01
159.664;000.027;89;000.641;MIDI 01
159.806;000.029;81;000.641;MIDI 01
159.823;000.015;83;000.523;MIDI 01
159.794;000.048;93;000.734;MIDI 01
159.960;000.030;75;000.719;MIDI 01
159.979;000.017;85;000.609;MIDI 01
159.966;000.043;87;000.727;MIDI 01
160.205;000.057;45;000.656;MIDI 01
160.220;000.045;33;000.562;MIDI 01
160.365;000.058;43;000.695;MIDI 01
160.372;000.065;31;000.672;MIDI 01
160.539;000.031;30;000.688;MIDI 01
160.532;000.041;42;000.703;MIDI 01
160.695;000.026;47;000.617;MIDI 01
160.698;000.027;45;000.578;MIDI 01
160.693;000.040;33;000.680;MIDI 01
160.836;000.030;28;000.617;MIDI 01
160.833;000.040;40;000.703;MIDI 01
160.517;000.386;87;000.680;MIDI 01
160.856;000.056;26;000.445;MIDI 01
160.982;000.025;45;000.766;MIDI 01
160.515;000.495;93;000.695;MIDI 01
160.994;000.040;33;000.711;MIDI 01
160.523;000.635;84;000.648;MIDI 01
161.145;000.028;39;000.867;MIDI 01
161.143;000.035;27;000.695;MIDI 01
160.521;000.781;96;000.758;MIDI 01
161.469;000.034;96;000.609;MIDI 01
161.473;000.037;84;000.586;MIDI 01
161.519;000.105;51;000.570;MIDI 01
161.630;000.030;83;000.648;MIDI 01
161.628;000.044;95;000.695;MIDI 01
161.780;000.043;81;000.727;MIDI 01
161.782;000.050;93;000.773;MIDI 01
161.931;000.024;96;000.727;MIDI 01
161.930;000.035;84;000.703;MIDI 01
161.746;000.327;66;000.742;MIDI 01
162.077;000.028;79;000.664;MIDI 01
162.080;000.054;91;000.727;MIDI 01
161.624;000.519;60;000.570;MIDI 01
161.560;000.592;57;000.586;MIDI 01
162.223;000.051;84;000.719;MIDI 01
162.218;000.058;96;000.766;MIDI 01
162.393;000.046;78;000.766;MIDI 01
162.395;000.061;90;000.836;MIDI 01
162.696;000.040;30;000.609;MIDI 01
162.692;000.047;42;000.641;MIDI 01
162.835;000.052;40;000.719;MIDI 01
162.842;000.058;28;000.711;MIDI 01
163.023;000.054;27;000.664;MIDI 01
163.017;000.067;39;000.758;MIDI 01
163.179;000.050;42;000.719;MIDI 01
163.194;000.042;30;000.695;MIDI 01
163.019;000.358;93;000.719;MIDI 01
163.368;000.047;25;000.711;MIDI 01
163.366;000.064;37;000.727;MIDI 01
163.550;000.057;42;000.734;MIDI 01
163.568;000.050;30;000.695;MIDI 01
163.015;000.774;99;000.719;MIDI 01
163.826;000.056;24;000.844;MIDI 01
163.823;000.079;36;000.844;MIDI 01
163.019;000.944;90;000.734;MIDI 01
163.021;001.026;102;000.758;MIDI 01
164.307;000.090;102;000.703;MIDI 01
164.308;000.097;90;000.727;MIDI 01
164.405;000.119;48;000.586;MIDI 01
164.528;000.057;88;000.695;MIDI 01
164.524;000.066;100;000.734;MIDI 01
164.453;000.170;51;000.617;MIDI 01
164.590;000.170;57;000.609;MIDI 01
164.700;000.067;63;000.797;MIDI 01
164.516;000.253;54;000.625;MIDI 01
164.748;000.053;87;000.750;MIDI 01
164.744;000.065;99;000.773;MIDI 01
164.934;000.032;102;000.680;MIDI 01
164.932;000.036;90;000.688;MIDI 01
165.103;000.027;85;000.688;MIDI 01
165.105;000.049;97;000.734;MIDI 01
165.261;000.040;92;000.664;MIDI 01
165.259;000.044;102;000.672;MIDI 01
165.407;000.039;32;000.602;MIDI 01
165.408;000.057;44;000.812;MIDI 01
165.444;000.039;96;000.719;MIDI 01
165.442;000.045;84;000.758;MIDI 01
165.492;000.002;95;000.195;MIDI 01
165.611;000.012;92;000.578;MIDI 01
165.630;000.002;104;000.414;MIDI 01
165.606;000.035;102;000.578;MIDI 01
165.614;000.035;90;000.664;MIDI 01
165.770;000.032;81;000.664;MIDI 01
165.768;000.055;93;000.719;MIDI 01
165.902;000.039;59;000.430;MIDI 01
165.814;000.142;56;000.516;MIDI 01
165.950;000.022;92;000.602;MIDI 01
165.967;000.022;102;000.453;MIDI 01
165.986;000.002;104;000.172;MIDI 01
165.893;000.098;60;000.422;MIDI 01
165.948;000.154;63;000.609;MIDI 01
166.126;000.033;72;000.703;MIDI 01
166.134;000.033;90;000.703;MIDI 01
166.015;000.161;66;000.609;MIDI 01
166.131;000.051;92;000.492;MIDI 01
166.127;000.061;80;000.766;MIDI 01
166.197;000.036;91;000.266;MIDI 01
166.182;000.053;71;000.070;MIDI 01
166.325;000.028;87;000.727;MIDI 01
166.320;000.034;99;000.711;MIDI 01
166.521;000.011;78;000.578;MIDI 01
166.531;000.018;91;000.609;MIDI 01
166.530;000.028;80;000.594;MIDI 01
166.516;000.045;90;000.727;MIDI 01
166.685;000.054;99;000.734;MIDI 01
166.749;000.003;97;000.242;MIDI 01
166.692;000.064;87;000.781;MIDI 01
166.908;000.050;76;000.742;MIDI 01
166.910;000.058;88;000.781;MIDI 01
167.148;000.034;96;000.789;MIDI 01
167.146;000.049;84;000.750;MIDI 01
167.022;000.205;56;000.719;MIDI 01
166.901;000.414;54;000.664;MIDI 01
166.802;000.534;51;000.656;MIDI 01
166.681;000.709;44;000.625;MIDI 01
167.398;000.023;75;000.695;MIDI 01
167.391;000.054;87;000.758;MIDI 01
167.636;000.130;96;000.781;MIDI 01
167.639;000.134;84;000.727;MIDI 01
167.891;000.099;37;000.523;MIDI 01
167.943;000.117;44;000.609;MIDI 01
168.025;000.049;52;000.750;MIDI 01
168.059;000.068;97;000.805;MIDI 01
168.057;000.101;88;000.711;MIDI 01
168.064;000.106;92;000.727;MIDI 01
168.059;000.115;85;000.758;MIDI 01
168.764;000.065;80;000.664;MIDI 01
168.766;000.090;76;000.711;MIDI 01
168.774;000.159;73;000.656;MIDI 01
168.784;000.196;68;000.609;MIDI 01
168.761;000.395;88;000.742;MIDI 01
168.768;000.424;61;000.656;MIDI 01
169.231;000.099;63;000.539;MIDI 01
169.233;000.100;87;000.641;MIDI 01
169.330;000.026;85;000.531;MIDI 01
169.423;000.002;85;000.594;MIDI 01
169.416;000.017;77;000.711;MIDI 01
169.429;000.005;90;000.664;MIDI 01
169.418;000.056;73;000.711;MIDI 01
169.443;000.034;65;000.430;MIDI 01
169.421;000.074;68;000.633;MIDI 01
169.414;000.083;92;000.781;MIDI 01
169.431;000.077;84;000.648;MIDI 01
169.411;000.114;80;000.773;MIDI 01
170.020;000.044;36;000.711;MIDI 01
170.011;000.066;60;000.773;MIDI 01
170.014;000.067;48;000.773;MIDI 01
170.654;000.020;85;000.617;MIDI 01
170.649;000.046;80;000.734;MIDI 01
170.644;000.059;77;000.680;MIDI 01
170.651;000.089;73;000.703;MIDI 01
170.648;000.094;92;000.781;MIDI 01
170.713;000.057;90;000.125;MIDI 01
170.642;000.384;65;000.664;MIDI 01
171.073;000.094;66;000.453;MIDI 01
171.083;000.116;90;000.625;MIDI 01
171.161;000.066;89;000.633;MIDI 01
171.287;000.046;97;000.805;MIDI 01
171.310;000.034;90;000.445;MIDI 01
171.314;000.033;45;000.531;MIDI 01
171.286;000.078;89;000.609;MIDI 01
171.290;000.093;85;000.773;MIDI 01
171.284;000.099;92;000.828;MIDI 01
171.299;000.477;35;000.711;MIDI 01
171.304;000.494;47;000.656;MIDI 01
171.806;000.073;37;000.078;MIDI 01
171.918;000.083;34;000.688;MIDI 01
171.920;000.092;58;000.766;MIDI 01
171.914;000.126;46;000.805;MIDI 01
172.542;000.035;90;000.695;MIDI 01
172.543;000.057;85;000.711;MIDI 01
172.544;000.059;78;000.664;MIDI 01
172.544;000.089;97;000.750;MIDI 01
172.550;000.131;73;000.648;MIDI 01
172.540;000.383;66;000.641;MIDI 01
172.948;000.099;68;000.484;MIDI 01
172.965;000.083;95;000.609;MIDI 01
173.019;000.030;70;000.555;MIDI 01
173.042;000.064;94;000.680;MIDI 01
173.167;000.243;90;000.828;MIDI 01
173.173;000.286;97;000.750;MIDI 01
173.175;000.468;102;000.805;MIDI 01
173.182;000.554;45;000.719;MIDI 01
173.185;000.565;33;000.703;MIDI 01
174.029;000.318;32;000.688;MIDI 01
174.024;000.397;44;000.734;MIDI 01
174.835;000.085;68;000.602;MIDI 01
174.892;000.048;56;000.211;MIDI 01
175.119;000.079;56;000.453;MIDI 01
175.123;000.076;68;000.570;MIDI 01
175.377;000.065;68;000.508;MIDI 01
175.381;000.100;56;000.469;MIDI 01
174.019;001.817;102;000.781;MIDI 01
174.036;001.826;99;000.703;MIDI 01
174.034;001.830;96;000.656;MIDI 01
174.031;001.866;90;000.656;MIDI 01
175.725;000.246;68;000.383;MIDI 01
175.707;000.402;56;000.406;MIDI 01
176.782;000.102;68;000.305;MIDI 01
177.050;000.058;56;000.328;MIDI 01
176.695;000.441;52;000.305;MIDI 01
177.077;000.060;68;000.250;MIDI 01
176.686;000.457;40;000.336;MIDI 01
177.274;000.077;56;000.367;MIDI 01
177.276;000.098;68;000.375;MIDI 01
177.494;000.097;51;000.352;MIDI 01
177.474;000.169;39;000.352;MIDI 01
176.709;001.175;61;000.555;MIDI 01
177.516;000.396;68;000.477;MIDI 01
177.511;000.426;56;000.406;MIDI 01
177.852;000.121;37;000.422;MIDI 01
177.863;000.145;49;000.430;MIDI 01
178.238;000.077;68;000.422;MIDI 01
178.225;000.207;60;000.484;MIDI 01
178.227;000.264;39;000.367;MIDI 01
178.488;000.045;56;000.375;MIDI 01
178.220;000.316;51;000.422;MIDI 01
178.470;000.113;68;000.523;MIDI 01
178.577;000.132;58;000.570;MIDI 01
178.706;000.058;56;000.555;MIDI 01
178.726;000.044;68;000.508;MIDI 01
179.050;000.151;56;000.359;MIDI 01
179.037;000.292;54;000.312;MIDI 01
179.025;000.416;42;000.375;MIDI 01
179.070;000.387;68;000.312;MIDI 01
179.674;000.066;52;000.320;MIDI 01
179.650;000.096;40;000.336;MIDI 01
179.670;000.082;56;000.406;MIDI 01
179.669;000.115;68;000.422;MIDI 01
179.903;000.060;56;000.430;MIDI 01
179.928;000.065;68;000.438;MIDI 01
179.968;000.143;51;000.430;MIDI 01
179.961;000.160;39;000.430;MIDI 01
180.090;000.084;56;000.508;MIDI 01
180.103;000.080;68;000.539;MIDI 01
179.012;001.205;63;000.555;MIDI 01
180.295;000.150;40;000.414;MIDI 01
180.308;000.203;52;000.414;MIDI 01
180.304;000.230;61;000.547;MIDI 01
180.316;000.337;56;000.469;MIDI 01
180.307;000.499;68;000.555;MIDI 01
180.629;000.184;60;000.594;MIDI 01
180.950;000.091;56;000.508;MIDI 01
180.967;000.096;68;000.523;MIDI 01
180.941;000.145;44;000.422;MIDI 01
181.179;000.086;56;000.508;MIDI 01
180.964;000.340;64;000.508;MIDI 01
181.270;000.057;42;000.344;MIDI 01
181.270;000.067;54;000.445;MIDI 01
181.194;000.168;68;000.461;MIDI 01
181.284;000.162;63;000.578;MIDI 01
181.415;000.103;56;000.539;MIDI 01
181.749;000.236;56;000.352;MIDI 01
181.728;000.309;57;000.328;MIDI 01
181.724;000.315;68;000.469;MIDI 01
181.726;000.316;45;000.359;MIDI 01
181.705;000.381;66;000.539;MIDI 01
182.302;000.072;56;000.484;MIDI 01
182.347;000.044;68;000.203;MIDI 01
182.316;000.090;44;000.391;MIDI 01
182.329;000.266;64;000.398;MIDI 01
182.535;000.064;56;000.328;MIDI 01
182.520;000.120;68;000.445;MIDI 01
182.646;000.052;54;000.281;MIDI 01
182.628;000.073;42;000.391;MIDI 01
182.625;000.146;63;000.492;MIDI 01
182.758;000.064;56;000.469;MIDI 01
182.782;000.057;68;000.445;MIDI 01
182.990;000.091;52;000.305;MIDI 01
182.969;000.123;40;000.297;MIDI 01
182.973;000.159;61;000.477;MIDI 01
182.971;000.431;68;000.484;MIDI 01
183.302;000.115;60;000.477;MIDI 01
183.334;000.083;51;000.375;MIDI 01
182.977;000.458;56;000.445;MIDI 01
183.341;000.105;39;000.375;MIDI 01
183.747;000.075;56;000.266;MIDI 01
183.715;000.142;68;000.422;MIDI 01
183.996;000.064;56;000.359;MIDI 01
183.984;000.110;68;000.375;MIDI 01
183.729;000.508;49;000.250;MIDI 01
184.188;000.057;56;000.391;MIDI 01
183.724;000.621;37;000.297;MIDI 01
184.185;000.177;68;000.250;MIDI 01
183.715;000.730;58;000.375;MIDI 01
184.396;000.560;56;000.359;MIDI 01
184.790;000.199;60;000.312;MIDI 01
184.398;000.593;68;000.148;MIDI 01
184.782;000.245;44;000.258;MIDI 01
184.801;000.250;32;000.242;MIDI 01
185.301;000.091;68;000.281;MIDI 01
185.346;000.052;56;000.023;MIDI 01
185.580;000.056;56;000.258;MIDI 01
185.595;000.057;68;000.258;MIDI 01
185.799;000.066;56;000.320;MIDI 01
185.800;000.080;68;000.305;MIDI 01
186.051;000.103;56;000.266;MIDI 01
185.253;000.930;60;000.320;MIDI 01
186.048;000.233;68;000.289;MIDI 01
185.259;001.045;32;000.234;MIDI 01
185.284;001.087;44;000.164;MIDI 01
186.883;000.136;63;000.203;MIDI 01
186.894;000.147;75;000.242;MIDI 01
187.171;000.073;63;000.297;MIDI 01
187.158;000.097;75;000.305;MIDI 01
187.397;000.069;63;000.375;MIDI 01
187.391;000.084;75;000.359;MIDI 01
187.750;000.086;59;000.289;MIDI 01
187.776;000.278;47;000.234;MIDI 01
187.789;000.291;63;000.211;MIDI 01
187.841;000.244;59;000.023;MIDI 01
187.778;000.403;75;000.328;MIDI 01
188.424;000.068;63;000.297;MIDI 01
188.416;000.086;75;000.281;MIDI 01
188.439;000.166;58;000.297;MIDI 01
188.447;000.209;46;000.312;MIDI 01
188.665;000.053;75;000.406;MIDI 01
188.656;000.064;63;000.359;MIDI 01
188.766;000.101;44;000.383;MIDI 01
188.779;000.122;56;000.375;MIDI 01
187.748;001.172;68;000.391;MIDI 01
188.867;000.095;63;000.422;MIDI 01
188.858;000.105;75;000.430;MIDI 01
189.126;000.130;75;000.422;MIDI 01
189.120;000.157;67;000.477;MIDI 01
189.148;000.254;63;000.320;MIDI 01
189.121;000.360;46;000.336;MIDI 01
189.126;000.411;58;000.312;MIDI 01
189.482;000.083;65;000.547;MIDI 01
189.897;000.068;63;000.297;MIDI 01
189.889;000.098;75;000.398;MIDI 01
189.899;000.274;61;000.320;MIDI 01
190.148;000.056;75;000.438;MIDI 01
190.128;000.078;63;000.398;MIDI 01
189.905;000.358;49;000.344;MIDI 01
190.339;000.075;63;000.406;MIDI 01
190.341;000.075;75;000.461;MIDI 01
190.545;000.152;47;000.406;MIDI 01
190.557;000.154;59;000.414;MIDI 01
190.562;000.461;75;000.508;MIDI 01
190.568;000.485;63;000.414;MIDI 01
189.859;001.197;70;000.484;MIDI 01
190.923;000.148;46;000.492;MIDI 01
190.917;000.183;58;000.500;MIDI 01
191.278;000.042;63;000.359;MIDI 01
191.272;000.057;75;000.430;MIDI 01
191.258;000.082;47;000.453;MIDI 01
191.280;000.111;59;000.453;MIDI 01
191.260;000.196;68;000.477;MIDI 01
191.447;000.080;63;000.453;MIDI 01
191.449;000.132;75;000.531;MIDI 01
191.566;000.101;67;000.539;MIDI 01
191.652;000.080;63;000.578;MIDI 01
191.926;000.219;51;000.422;MIDI 01
191.922;000.441;71;000.500;MIDI 01
192.295;000.073;49;000.461;MIDI 01
191.903;000.467;75;000.500;MIDI 01
191.901;000.472;63;000.508;MIDI 01
192.293;000.101;61;000.523;MIDI 01
192.762;000.083;63;000.328;MIDI 01
192.722;000.212;75;000.555;MIDI 01
193.010;000.075;63;000.469;MIDI 01
193.000;000.105;75;000.375;MIDI 01
192.726;000.456;66;000.516;MIDI 01
192.738;000.493;54;000.422;MIDI 01
193.234;000.056;63;000.391;MIDI 01
193.226;000.079;75;000.484;MIDI 01
192.270;001.084;70;000.609;MIDI 01
193.434;000.174;52;000.453;MIDI 01
193.448;000.176;64;000.430;MIDI 01
193.445;000.217;63;000.375;MIDI 01
193.449;000.410;73;000.492;MIDI 01
193.460;000.440;75;000.461;MIDI 01
193.829;000.076;63;000.438;MIDI 01
193.820;000.118;51;000.477;MIDI 01
193.809;000.140;71;000.555;MIDI 01
194.164;000.036;63;000.273;MIDI 01
194.168;000.040;61;000.406;MIDI 01
194.126;000.096;75;000.484;MIDI 01
194.159;000.090;49;000.484;MIDI 01
194.141;000.190;70;000.453;MIDI 01
194.340;000.096;63;000.414;MIDI 01
194.355;000.104;75;000.484;MIDI 01
194.483;000.093;59;000.328;MIDI 01
194.466;000.119;47;000.398;MIDI 01
194.474;000.112;68;000.430;MIDI 01
194.611;000.119;75;000.453;MIDI 01
194.596;000.151;63;000.445;MIDI 01
195.009;000.452;58;000.266;MIDI 01
194.989;000.715;46;000.328;MIDI 01
194.973;001.273;67;000.445;MIDI 01
196.048;000.305;51;000.242;MIDI 01
195.016;001.379;75;000.367;MIDI 01
195.007;001.440;63;000.266;MIDI 01
196.047;000.561;73;000.359;MIDI 01
196.046;000.855;39;000.305;MIDI 01
197.482;000.248;68;000.281;MIDI 01
197.924;000.158;68;000.367;MIDI 01
197.461;001.371;63;000.289;MIDI 01
198.641;000.258;68;000.273;MIDI 01
199.339;000.417;68;000.281;MIDI 01
199.686;000.073;67;000.320;MIDI 01
200.076;000.191;67;000.227;MIDI 01
200.046;000.244;68;000.312;MIDI 01
197.476;003.318;44;000.289;MIDI 01
200.708;000.262;67;000.242;MIDI 01
197.465;003.532;32;000.289;MIDI 01
200.705;000.296;68;000.203;MIDI 01
201.356;000.049;67;000.188;MIDI 01
201.736;000.216;66;000.289;MIDI 01
201.347;000.615;68;000.250;MIDI 01
197.447;004.834;75;000.398;MIDI 01
197.454;004.856;72;000.375;MIDI 01
202.152;000.203;68;000.266;MIDI 01
202.155;000.275;66;000.195;MIDI 01
202.893;000.627;68;000.227;MIDI 01
202.905;000.642;66;000.250;MIDI 01
203.370;000.611;44;000.359;MIDI 01
203.843;000.620;48;000.430;MIDI 01
203.914;000.759;68;000.273;MIDI 01
203.921;000.829;66;000.266;MIDI 01
204.299;000.675;37;000.359;MIDI 01
204.420;000.968;54;000.414;MIDI 01
205.179;000.461;68;000.234;MIDI 01
205.578;000.544;53;000.336;MIDI 01
205.177;000.948;63;000.258;MIDI 01
206.004;000.316;68;000.250;MIDI 01
206.029;000.346;66;000.297;MIDI 01
205.969;000.519;51;000.414;MIDI 01
206.406;000.557;53;000.367;MIDI 01
206.815;000.398;65;000.266;MIDI 01
206.833;000.451;68;000.203;MIDI 01
207.647;000.320;65;000.281;MIDI 01
207.703;000.303;68;000.125;MIDI 01
207.959;000.294;49;000.430;MIDI 01
207.257;001.036;37;000.344;MIDI 01
208.335;000.307;65;000.273;MIDI 01
208.370;000.306;68;000.211;MIDI 01
209.066;000.266;65;000.227;MIDI 01
208.660;000.787;38;000.336;MIDI 01
209.036;000.528;68;000.266;MIDI 01
209.766;000.347;65;000.289;MIDI 01
209.772;000.378;66;000.250;MIDI 01
208.646;001.758;47;000.359;MIDI 01
210.475;000.340;65;000.328;MIDI 01
210.479;000.339;66;000.289;MIDI 01
210.831;000.448;46;000.438;MIDI 01
209.382;001.946;39;000.328;MIDI 01
211.221;000.261;51;000.461;MIDI 01
211.233;000.418;63;000.352;MIDI 01
211.231;000.551;66;000.398;MIDI 01
211.505;000.478;39;000.461;MIDI 01
211.651;000.375;56;000.438;MIDI 01
212.198;000.422;70;000.320;MIDI 01
212.202;000.481;65;000.336;MIDI 01
212.544;000.442;54;000.445;MIDI 01
212.901;000.344;53;000.469;MIDI 01
212.919;000.400;70;000.383;MIDI 01
212.936;000.409;68;000.375;MIDI 01
213.658;000.390;66;000.328;MIDI 01
213.656;000.398;70;000.305;MIDI 01
213.258;001.246;54;000.484;MIDI 01
214.398;000.356;66;000.289;MIDI 01
214.409;000.408;70;000.234;MIDI 01
213.983;000.988;39;000.398;MIDI 01
214.715;000.347;51;000.469;MIDI 01
215.090;000.279;70;000.305;MIDI 01
215.069;000.312;66;000.375;MIDI 01
215.799;000.354;67;000.266;MIDI 01
215.405;000.820;40;000.406;MIDI 01
215.795;000.752;70;000.344;MIDI 01
216.514;000.300;67;000.312;MIDI 01
216.503;000.322;68;000.336;MIDI 01
215.385;001.668;49;000.500;MIDI 01
217.188;000.416;68;000.375;MIDI 01
217.190;000.475;67;000.406;MIDI 01
217.608;000.514;48;000.508;MIDI 01
216.129;002.065;41;000.359;MIDI 01
218.042;000.327;53;000.492;MIDI 01
218.045;000.417;65;000.430;MIDI 01
218.457;000.186;58;000.508;MIDI 01
218.340;000.334;41;000.492;MIDI 01
218.039;000.653;68;000.445;MIDI 01
218.960;000.367;65;000.383;MIDI 01
218.953;000.438;72;000.375;MIDI 01
219.281;000.465;56;000.531;MIDI 01
219.699;000.465;72;000.469;MIDI 01
219.698;000.490;65;000.445;MIDI 01
219.696;000.544;55;000.500;MIDI 01
219.983;000.278;56;000.547;MIDI 01
220.203;000.237;60;000.555;MIDI 01
220.347;000.111;68;000.422;MIDI 01
220.430;000.138;63;000.578;MIDI 01
220.343;000.465;72;000.516;MIDI 01
221.250;000.402;69;000.328;MIDI 01
221.247;000.414;72;000.375;MIDI 01
221.972;000.166;69;000.289;MIDI 01
221.930;000.224;75;000.422;MIDI 01
221.951;000.227;72;000.328;MIDI 01
220.784;001.454;66;000.539;MIDI 01
220.811;001.775;53;000.422;MIDI 01
222.734;000.352;69;000.273;MIDI 01
222.710;000.391;72;000.344;MIDI 01
222.730;000.425;66;000.312;MIDI 01
222.686;000.490;78;000.438;MIDI 01
223.128;000.093;41;000.305;MIDI 01
223.586;000.359;72;000.312;MIDI 01
223.596;000.357;69;000.266;MIDI 01
223.591;000.365;66;000.188;MIDI 01
223.591;000.371;78;000.328;MIDI 01
224.363;000.349;72;000.297;MIDI 01
224.359;000.364;66;000.180;MIDI 01
224.369;000.356;69;000.273;MIDI 01
224.371;000.371;78;000.227;MIDI 01
223.965;000.974;65;000.398;MIDI 01
224.675;000.435;63;000.344;MIDI 01
225.088;000.493;69;000.273;MIDI 01
225.105;000.496;72;000.266;MIDI 01
225.107;000.571;66;000.234;MIDI 01
225.110;000.605;78;000.273;MIDI 01
225.543;000.901;61;000.352;MIDI 01
226.032;000.414;70;000.273;MIDI 01
226.034;000.414;73;000.297;MIDI 01
226.044;000.421;66;000.180;MIDI 01
226.026;000.447;78;000.320;MIDI 01
225.588;000.955;54;000.266;MIDI 01
226.694;000.202;66;000.227;MIDI 01
226.672;000.261;78;000.312;MIDI 01
226.690;000.252;73;000.258;MIDI 01
226.692;000.274;70;000.266;MIDI 01
227.005;000.267;42;000.336;MIDI 01
227.302;000.167;77;000.344;MIDI 01
227.325;000.166;70;000.312;MIDI 01
227.335;000.181;73;000.297;MIDI 01
227.340;000.215;65;000.234;MIDI 01
227.455;000.104;43;000.367;MIDI 01
228.076;000.256;67;000.289;MIDI 01
228.073;000.286;64;000.289;MIDI 01
228.078;000.304;73;000.336;MIDI 01
228.065;000.324;76;000.367;MIDI 01
228.730;000.308;67;000.289;MIDI 01
228.726;000.355;64;000.312;MIDI 01
228.732;000.364;73;000.336;MIDI 01
228.727;000.398;76;000.344;MIDI 01
227.706;001.453;60;000.438;MIDI 01
229.043;000.232;58;000.406;MIDI 01
229.398;000.085;64;000.359;MIDI 01
229.416;000.118;73;000.391;MIDI 01
229.400;000.182;76;000.367;MIDI 01
230.290;000.530;65;000.297;MIDI 01
230.276;000.558;77;000.367;MIDI 01
230.286;000.564;72;000.312;MIDI 01
230.668;000.504;53;000.430;MIDI 01
229.803;001.427;57;000.469;MIDI 01
231.077;000.290;65;000.375;MIDI 01
231.075;000.327;72;000.406;MIDI 01
231.062;000.368;52;000.500;MIDI 01
231.083;000.370;77;000.508;MIDI 01
229.819;001.773;45;000.422;MIDI 01
231.368;000.241;53;000.539;MIDI 01
231.617;000.089;57;000.562;MIDI 01
231.749;000.048;72;000.461;MIDI 01
231.769;000.045;69;000.438;MIDI 01
231.774;000.097;77;000.445;MIDI 01
231.751;000.436;81;000.602;MIDI 01
231.856;000.339;60;000.609;MIDI 01
232.609;000.425;81;000.375;MIDI 01
232.171;000.869;66;000.594;MIDI 01
232.594;000.448;78;000.367;MIDI 01
232.573;000.516;90;000.508;MIDI 01
232.611;000.496;84;000.398;MIDI 01
232.175;000.991;53;000.492;MIDI 01
233.376;000.306;81;000.320;MIDI 01
233.372;000.365;84;000.289;MIDI 01
233.361;000.382;90;000.422;MIDI 01
233.374;000.374;78;000.320;MIDI 01
234.061;000.371;81;000.328;MIDI 01
234.046;000.390;90;000.469;MIDI 01
234.064;000.407;78;000.312;MIDI 01
233.679;000.805;41;000.344;MIDI 01
234.059;000.425;84;000.375;MIDI 01
234.416;000.150;53;000.406;MIDI 01
234.789;000.330;81;000.391;MIDI 01
234.791;000.336;84;000.383;MIDI 01
234.784;000.345;90;000.453;MIDI 01
234.786;000.376;78;000.375;MIDI 01
235.500;000.319;84;000.344;MIDI 01
235.498;000.341;81;000.336;MIDI 01
235.495;000.411;90;000.391;MIDI 01
235.500;000.429;78;000.336;MIDI 01
235.108;000.922;65;000.484;MIDI 01
235.774;000.397;63;000.430;MIDI 01
236.192;000.399;81;000.289;MIDI 01
236.215;000.411;84;000.312;MIDI 01
236.203;000.452;78;000.242;MIDI 01
236.183;000.496;90;000.375;MIDI 01
237.039;000.389;82;000.305;MIDI 01
237.029;000.406;85;000.328;MIDI 01
237.051;000.401;78;000.242;MIDI 01
237.006;000.458;90;000.359;MIDI 01
236.579;000.927;61;000.422;MIDI 01
236.622;000.944;54;000.344;MIDI 01
237.740;000.209;78;000.266;MIDI 01
237.723;000.286;90;000.352;MIDI 01
237.745;000.286;82;000.266;MIDI 01
237.734;000.330;85;000.273;MIDI 01
238.074;000.392;42;000.312;MIDI 01
238.377;000.202;89;000.336;MIDI 01
238.403;000.182;82;000.305;MIDI 01
238.418;000.193;85;000.297;MIDI 01
238.536;000.124;43;000.367;MIDI 01
238.425;000.299;77;000.211;MIDI 01
239.207;000.245;79;000.312;MIDI 01
239.204;000.265;82;000.336;MIDI 01
239.202;000.280;76;000.320;MIDI 01
239.192;000.293;88;000.305;MIDI 01
239.209;000.279;85;000.328;MIDI 01
238.822;001.265;60;000.438;MIDI 01
239.889;000.201;79;000.227;MIDI 01
239.885;000.242;82;000.180;MIDI 01
239.883;000.280;76;000.211;MIDI 01
239.881;000.297;85;000.281;MIDI 01
239.887;000.339;88;000.188;MIDI 01
240.226;000.091;58;000.352;MIDI 01
240.594;000.044;79;000.188;MIDI 01
240.580;000.100;82;000.227;MIDI 01
240.574;000.169;76;000.320;MIDI 01
240.583;000.175;85;000.273;MIDI 01
240.597;000.210;88;000.234;MIDI 01
241.355;000.364;80;000.289;MIDI 01
241.347;000.375;77;000.203;MIDI 01
241.338;000.386;85;000.281;MIDI 01
241.335;000.416;89;000.289;MIDI 01
242.039;000.277;77;000.242;MIDI 01
242.049;000.284;80;000.250;MIDI 01
242.041;000.303;85;000.266;MIDI 01
242.030;000.344;89;000.227;MIDI 01
240.930;001.548;56;000.359;MIDI 01
240.933;001.685;44;000.297;MIDI 01
242.364;000.408;49;000.305;MIDI 01
242.690;000.102;85;000.281;MIDI 01
242.678;000.116;89;000.336;MIDI 01
242.710;000.108;80;000.328;MIDI 01
242.699;000.134;77;000.289;MIDI 01
243.420;000.060;90;000.328;MIDI 01
243.422;000.320;78;000.250;MIDI 01
243.447;000.322;84;000.273;MIDI 01
243.428;000.360;80;000.281;MIDI 01
243.484;000.330;90;000.047;MIDI 01
244.177;000.244;84;000.180;MIDI 01
244.136;000.321;80;000.203;MIDI 01
244.140;000.399;90;000.219;MIDI 01
243.054;001.491;51;000.352;MIDI 01
244.528;000.384;53;000.242;MIDI 01
243.052;001.881;44;000.336;MIDI 01
245.006;000.137;84;000.156;MIDI 01
244.991;000.161;80;000.211;MIDI 01
245.001;000.186;78;000.180;MIDI 01
244.948;000.259;90;000.266;MIDI 01
246.018;000.336;80;000.250;MIDI 01
246.004;000.354;77;000.250;MIDI 01
246.007;000.354;89;000.219;MIDI 01
245.995;000.373;85;000.258;MIDI 01
246.741;000.351;80;000.258;MIDI 01
246.745;000.350;77;000.195;MIDI 01
246.727;000.402;85;000.281;MIDI 01
246.723;000.445;89;000.305;MIDI 01
245.571;001.674;37;000.141;MIDI 01
245.529;001.790;49;000.266;MIDI 01
247.389;000.207;89;000.102;MIDI 01
247.434;000.181;80;000.219;MIDI 01
247.386;000.258;85;000.273;MIDI 01
247.404;000.257;77;000.180;MIDI 01
248.176;000.284;79;000.258;MIDI 01
248.184;000.281;82;000.258;MIDI 01
248.174;000.319;76;000.227;MIDI 01
248.170;000.332;88;000.242;MIDI 01
247.775;000.893;37;000.305;MIDI 01
247.776;001.006;51;000.367;MIDI 01
248.877;000.283;79;000.242;MIDI 01
248.883;000.291;76;000.211;MIDI 01
248.879;000.297;82;000.242;MIDI 01
248.885;000.320;88;000.211;MIDI 01
249.191;000.091;52;000.328;MIDI 01
249.579;000.051;79;000.258;MIDI 01
249.577;000.105;82;000.281;MIDI 01
249.555;000.141;76;000.258;MIDI 01
249.570;000.189;88;000.156;MIDI 01
250.307;000.278;77;000.188;MIDI 01
250.303;000.284;80;000.289;MIDI 01
250.309;000.281;85;000.266;MIDI 01
250.305;000.316;89;000.219;MIDI 01
250.981;000.229;85;000.289;MIDI 01
250.973;000.249;77;000.180;MIDI 01
250.969;000.255;80;000.273;MIDI 01
250.971;000.308;89;000.227;MIDI 01
249.955;001.580;37;000.242;MIDI 01
249.929;001.668;49;000.289;MIDI 01
251.627;000.165;80;000.312;MIDI 01
251.629;000.209;77;000.258;MIDI 01
251.640;000.259;85;000.305;MIDI 01
251.624;000.291;89;000.266;MIDI 01
252.421;000.270;82;000.305;MIDI 01
252.410;000.300;85;000.328;MIDI 01
252.431;000.285;79;000.164;MIDI 01
252.396;000.359;91;000.375;MIDI 01
251.999;000.929;37;000.305;MIDI 01
251.995;001.095;51;000.383;MIDI 01
253.081;000.310;82;000.312;MIDI 01
253.077;000.356;79;000.266;MIDI 01
253.064;000.376;85;000.312;MIDI 01
253.402;000.064;52;000.391;MIDI 01
253.058;000.418;91;000.320;MIDI 01
253.767;000.077;82;000.344;MIDI 01
253.738;000.164;91;000.375;MIDI 01
253.761;000.145;79;000.258;MIDI 01
253.759;000.250;85;000.328;MIDI 01
254.521;000.237;83;000.273;MIDI 01
254.511;000.296;80;000.250;MIDI 01
254.502;000.340;85;000.320;MIDI 01
254.522;000.334;92;000.352;MIDI 01
254.173;001.114;37;000.195;MIDI 01
255.222;000.153;83;000.211;MIDI 01
254.137;001.250;49;000.336;MIDI 01
255.174;000.216;85;000.273;MIDI 01
255.215;000.210;80;000.195;MIDI 01
255.185;000.254;92;000.188;MIDI 01
255.865;000.152;83;000.242;MIDI 01
255.859;000.168;80;000.148;MIDI 01
255.833;000.205;85;000.273;MIDI 01
255.831;000.309;92;000.289;MIDI 01
256.619;000.291;91;000.383;MIDI 01
256.651;000.280;85;000.266;MIDI 01
256.628;000.333;82;000.156;MIDI 01
256.608;000.354;94;000.375;MIDI 01
256.072;000.914;37;000.328;MIDI 01
256.258;000.918;51;000.414;MIDI 01
256.182;001.467;43;000.266;MIDI 01
257.326;000.340;85;000.297;MIDI 01
257.311;000.361;91;000.406;MIDI 01
257.280;000.414;94;000.453;MIDI 01
257.603;000.097;52;000.445;MIDI 01
257.324;000.379;82;000.289;MIDI 01
258.010;000.128;37;000.414;MIDI 01
257.973;000.226;82;000.375;MIDI 01
257.991;000.234;91;000.328;MIDI 01
257.956;000.366;94;000.430;MIDI 01
257.959;000.508;85;000.336;MIDI 01
258.642;000.179;83;000.406;MIDI 01
258.620;000.222;85;000.312;MIDI 01
258.630;000.222;95;000.477;MIDI 01
258.658;000.242;89;000.359;MIDI 01
258.254;001.154;53;000.508;MIDI 01
258.129;001.441;44;000.500;MIDI 01
259.289;000.334;95;000.539;MIDI 01
259.311;000.321;83;000.406;MIDI 01
259.294;000.357;85;000.453;MIDI 01
259.307;000.386;89;000.414;MIDI 01
259.969;000.250;85;000.438;MIDI 01
259.990;000.248;83;000.414;MIDI 01
259.971;000.277;89;000.492;MIDI 01
259.967;000.347;95;000.602;MIDI 01
260.674;000.305;84;000.516;MIDI 01
260.653;000.363;96;000.648;MIDI 01
260.663;000.360;87;000.570;MIDI 01
260.669;000.382;93;000.531;MIDI 01
261.387;000.281;96;000.734;MIDI 01
261.406;000.342;84;000.578;MIDI 01
261.386;000.395;87;000.672;MIDI 01
261.389;000.410;93;000.625;MIDI 01
262.206;000.002;95;000.133;MIDI 01
262.148;000.107;84;000.664;MIDI 01
262.142;000.149;96;000.750;MIDI 01
262.144;000.158;87;000.711;MIDI 01
260.258;002.074;51;000.672;MIDI 01
262.146;000.221;93;000.688;MIDI 01
260.081;002.315;37;000.484;MIDI 01
260.183;002.241;42;000.547;MIDI 01
262.852;000.235;37;000.633;MIDI 01
262.859;000.242;41;000.641;MIDI 01
262.845;000.268;99;000.766;MIDI 01
262.843;000.321;49;000.719;MIDI 01
262.850;000.327;95;000.680;MIDI 01
262.848;000.368;92;000.727;MIDI 01
262.846;000.392;87;000.750;MIDI 01
263.815;000.169;87;000.703;MIDI 01
263.824;000.184;83;000.680;MIDI 01
263.818;000.301;75;000.648;MIDI 01
263.821;000.326;71;000.617;MIDI 01
263.820;000.450;80;000.711;MIDI 01
263.824;000.479;68;000.602;MIDI 01
264.480;000.243;77;000.453;MIDI 01
264.595;000.153;83;000.688;MIDI 01
264.598;000.153;71;000.688;MIDI 01
264.520;000.239;75;000.602;MIDI 01
264.471;000.308;65;000.508;MIDI 01
264.600;000.182;80;000.656;MIDI 01
264.591;000.225;68;000.695;MIDI 01
264.524;000.299;63;000.445;MIDI 01
265.351;000.186;65;000.641;MIDI 01
265.340;000.212;77;000.680;MIDI 01
265.210;000.347;71;000.578;MIDI 01
265.353;000.258;75;000.680;MIDI 01
265.205;000.408;59;000.508;MIDI 01
265.339;000.284;63;000.648;MIDI 01
265.272;000.392;68;000.633;MIDI 01
265.253;000.414;56;000.539;MIDI 01
266.161;000.226;59;000.664;MIDI 01
266.164;000.281;71;000.734;MIDI 01
266.143;000.331;56;000.648;MIDI 01
266.020;000.474;53;000.539;MIDI 01
266.093;000.402;63;000.594;MIDI 01
266.014;000.486;65;000.508;MIDI 01
266.157;000.379;68;000.641;MIDI 01
266.064;000.475;51;000.539;MIDI 01
266.991;000.190;49;000.492;MIDI 01
267.001;000.196;37;000.430;MIDI 01
267.003;000.212;61;000.602;MIDI 01
267.323;000.108;47;000.602;MIDI 01
267.321;000.113;35;000.562;MIDI 01
267.327;000.128;59;000.648;MIDI 01
267.586;000.144;46;000.703;MIDI 01
267.589;000.144;58;000.711;MIDI 01
267.591;000.157;34;000.695;MIDI 01
267.836;000.333;44;000.719;MIDI 01
267.834;000.341;56;000.789;MIDI 01
267.850;000.356;32;000.625;MIDI 01
268.292;000.217;30;000.727;MIDI 01
268.277;000.250;54;000.781;MIDI 01
268.286;000.273;42;000.781;MIDI 01
269.093;000.050;73;000.688;MIDI 01
269.100;000.071;70;000.688;MIDI 01
269.091;000.105;66;000.672;MIDI 01
269.087;000.144;82;000.711;MIDI 01
269.098;000.145;61;000.625;MIDI 01
269.096;000.406;54;000.617;MIDI 01
269.587;000.057;56;000.492;MIDI 01
269.636;000.027;58;000.430;MIDI 01
269.590;000.078;80;000.594;MIDI 01
269.674;000.026;78;000.438;MIDI 01
269.744;000.045;68;000.781;MIDI 01
269.756;000.049;59;000.539;MIDI 01
269.746;000.064;66;000.656;MIDI 01
269.740;000.072;87;000.750;MIDI 01
269.730;000.116;78;000.547;MIDI 01
269.742;000.110;80;000.641;MIDI 01
269.744;000.133;75;000.641;MIDI 01
270.317;000.032;35;000.617;MIDI 01
270.322;000.049;59;000.781;MIDI 01
270.320;000.054;47;000.734;MIDI 01
270.762;000.043;68;000.648;MIDI 01
270.766;000.065;66;000.648;MIDI 01
270.777;000.066;87;000.742;MIDI 01
270.772;000.075;59;000.570;MIDI 01
270.779;000.104;78;000.641;MIDI 01
270.774;000.118;80;000.664;MIDI 01
270.775;000.120;75;000.742;MIDI 01
271.111;000.038;37;000.641;MIDI 01
271.103;000.056;61;000.773;MIDI 01
271.110;000.051;49;000.766;MIDI 01
271.408;000.060;56;000.477;MIDI 01
271.476;000.059;87;000.742;MIDI 01
271.426;000.125;61;000.578;MIDI 01
271.478;000.109;77;000.648;MIDI 01
271.484;000.107;75;000.727;MIDI 01
271.460;000.147;65;000.570;MIDI 01
271.496;000.114;71;000.641;MIDI 01
271.486;000.176;80;000.648;MIDI 01
271.757;000.071;56;000.609;MIDI 01
271.808;000.079;77;000.680;MIDI 01
271.815;000.077;80;000.641;MIDI 01
271.754;000.142;61;000.523;MIDI 01
271.828;000.078;71;000.625;MIDI 01
271.812;000.096;73;000.711;MIDI 01
271.817;000.102;85;000.688;MIDI 01
271.824;000.130;65;000.516;MIDI 01
272.155;000.041;68;000.672;MIDI 01
272.164;000.042;83;000.703;MIDI 01
272.196;000.027;78;000.398;MIDI 01
272.133;000.092;65;000.609;MIDI 01
272.062;000.198;61;000.523;MIDI 01
272.167;000.099;77;000.641;MIDI 01
272.011;000.260;56;000.641;MIDI 01
272.166;000.108;71;000.672;MIDI 01
272.157;000.132;73;000.727;MIDI 01
272.559;000.093;30;000.719;MIDI 01
272.561;000.137;54;000.789;MIDI 01
272.552;000.152;42;000.773;MIDI 01
273.291;000.033;70;000.672;MIDI 01
273.278;000.059;73;000.672;MIDI 01
273.345;000.002;80;000.273;MIDI 01
273.286;000.097;82;000.688;MIDI 01
273.283;000.105;66;000.695;MIDI 01
273.297;000.136;61;000.664;MIDI 01
273.289;000.373;54;000.641;MIDI 01
273.743;000.045;56;000.484;MIDI 01
273.775;000.047;58;000.570;MIDI 01
273.741;000.098;80;000.602;MIDI 01
273.832;000.041;78;000.664;MIDI 01
273.906;000.026;68;000.789;MIDI 01
273.933;000.016;59;000.516;MIDI 01
273.918;000.040;66;000.672;MIDI 01
273.927;000.035;60;000.539;MIDI 01
273.924;000.072;90;000.766;MIDI 01
273.957;000.041;85;000.281;MIDI 01
273.929;000.090;87;000.688;MIDI 01
273.919;000.107;78;000.656;MIDI 01
273.931;000.106;80;000.727;MIDI 01
274.480;000.025;32;000.641;MIDI 01
274.470;000.056;56;000.773;MIDI 01
274.467;000.070;44;000.781;MIDI 01
274.511;000.040;63;000.305;MIDI 01
274.933;000.016;90;000.680;MIDI 01
274.911;000.042;68;000.727;MIDI 01
274.927;000.052;66;000.656;MIDI 01
274.931;000.059;87;000.727;MIDI 01
274.924;000.070;60;000.617;MIDI 01
274.929;000.066;80;000.688;MIDI 01
274.922;000.090;78;000.773;MIDI 01
275.264;000.042;37;000.688;MIDI 01
275.252;000.059;49;000.758;MIDI 01
275.262;000.051;61;000.734;MIDI 01
275.565;000.074;56;000.469;MIDI 01
275.578;000.137;61;000.578;MIDI 01
275.643;000.107;89;000.750;MIDI 01
275.631;000.140;65;000.484;MIDI 01
275.655;000.123;71;000.672;MIDI 01
275.647;000.139;77;000.680;MIDI 01
275.649;000.145;83;000.625;MIDI 01
275.652;000.147;80;000.648;MIDI 01
275.929;000.092;56;000.516;MIDI 01
275.967;000.123;61;000.516;MIDI 01
276.034;000.097;71;000.633;MIDI 01
276.078;000.068;85;000.477;MIDI 01
276.021;000.129;65;000.562;MIDI 01
276.049;000.106;87;000.727;MIDI 01
276.053;000.106;83;000.633;MIDI 01
276.048;000.114;75;000.758;MIDI 01
276.051;000.119;80;000.656;MIDI 01
276.373;000.134;56;000.508;MIDI 01
276.426;000.154;61;000.516;MIDI 01
276.554;000.058;71;000.648;MIDI 01
276.519;000.109;65;000.531;MIDI 01
276.557;000.124;85;000.727;MIDI 01
276.566;000.122;77;000.656;MIDI 01
276.568;000.151;80;000.688;MIDI 01
276.564;000.168;73;000.695;MIDI 01
277.488;000.497;30;000.328;MIDI 01
278.149;000.336;70;000.242;MIDI 01
278.161;000.335;73;000.273;MIDI 01
278.144;000.357;82;000.211;MIDI 01
278.172;000.355;78;000.273;MIDI 01
278.559;000.432;58;000.258;MIDI 01
278.892;000.144;70;000.195;MIDI 01
278.976;000.081;56;000.312;MIDI 01
279.113;000.093;54;000.320;MIDI 01
278.903;000.556;82;000.070;MIDI 01
278.903;000.564;73;000.203;MIDI 01
278.884;000.614;78;000.281;MIDI 01
279.614;000.242;73;000.320;MIDI 01
279.599;000.285;70;000.320;MIDI 01
279.617;000.294;78;000.211;MIDI 01
279.617;000.340;82;000.281;MIDI 01
279.980;000.476;37;000.328;MIDI 01
280.365;000.353;77;000.312;MIDI 01
280.386;000.348;80;000.336;MIDI 01
280.378;000.376;85;000.281;MIDI 01
280.372;000.387;73;000.250;MIDI 01
280.716;000.422;56;000.352;MIDI 01
281.161;000.097;54;000.320;MIDI 01
281.292;000.205;53;000.312;MIDI 01
281.070;000.508;73;000.164;MIDI 01
281.041;000.551;85;000.266;MIDI 01
281.053;000.543;77;000.258;MIDI 01
281.039;000.560;80;000.305;MIDI 01
281.740;000.250;73;000.336;MIDI 01
281.761;000.228;77;000.281;MIDI 01
281.764;000.285;80;000.344;MIDI 01
281.757;000.326;85;000.328;MIDI 01
282.127;000.424;34;000.320;MIDI 01
282.506;000.339;82;000.328;MIDI 01
282.501;000.349;85;000.328;MIDI 01
282.508;000.352;78;000.312;MIDI 01
282.510;000.360;90;000.391;MIDI 01
283.210;000.080;90;000.312;MIDI 01
282.869;000.438;61;000.328;MIDI 01
283.346;000.083;59;000.258;MIDI 01
283.467;000.094;58;000.273;MIDI 01
283.225;000.525;78;000.195;MIDI 01
283.219;000.546;82;000.258;MIDI 01
283.295;000.474;90;000.023;MIDI 01
283.227;000.545;85;000.258;MIDI 01
283.911;000.170;90;000.414;MIDI 01
283.926;000.181;85;000.266;MIDI 01
283.918;000.204;82;000.242;MIDI 01
283.916;000.251;78;000.297;MIDI 01
284.306;000.280;36;000.297;MIDI 01
284.717;000.270;84;000.320;MIDI 01
284.696;000.298;76;000.297;MIDI 01
284.683;000.312;82;000.312;MIDI 01
284.693;000.339;88;000.281;MIDI 01
285.036;000.457;58;000.297;MIDI 01
285.490;000.071;56;000.328;MIDI 01
285.381;000.427;76;000.250;MIDI 01
285.385;000.434;84;000.258;MIDI 01
285.369;000.453;82;000.219;MIDI 01
285.383;000.441;88;000.156;MIDI 01
285.633;000.351;55;000.172;MIDI 01
286.103;000.388;82;000.219;MIDI 01
286.123;000.422;84;000.234;MIDI 01
286.102;000.465;76;000.180;MIDI 01
286.125;000.483;88;000.086;MIDI 01
286.604;000.352;35;000.266;MIDI 01
287.059;000.344;80;000.297;MIDI 01
287.057;000.349;85;000.289;MIDI 01
287.055;000.355;77;000.203;MIDI 01
287.041;000.405;89;000.266;MIDI 01
287.401;000.445;56;000.367;MIDI 01
287.881;000.093;54;000.391;MIDI 01
288.007;000.043;53;000.320;MIDI 01
287.792;000.482;85;000.297;MIDI 01
288.134;000.145;68;000.445;MIDI 01
287.791;000.490;80;000.281;MIDI 01
287.789;000.507;77;000.297;MIDI 01
287.784;000.545;89;000.320;MIDI 01
288.508;000.232;80;000.359;MIDI 01
288.524;000.232;77;000.305;MIDI 01
288.496;000.435;89;000.430;MIDI 01
288.530;000.457;85;000.391;MIDI 01
288.870;000.303;34;000.453;MIDI 01
289.289;000.462;78;000.375;MIDI 01
289.290;000.472;90;000.430;MIDI 01
289.286;000.483;85;000.391;MIDI 01
289.626;000.450;58;000.516;MIDI 01
290.104;000.043;56;000.383;MIDI 01
290.165;000.070;54;000.492;MIDI 01
290.304;000.060;70;000.688;MIDI 01
289.975;000.497;78;000.406;MIDI 01
289.955;000.527;85;000.477;MIDI 01
289.986;000.510;90;000.477;MIDI 01
290.735;000.354;78;000.484;MIDI 01
290.719;000.427;85;000.508;MIDI 01
290.733;000.432;90;000.570;MIDI 01
291.051;000.180;30;000.625;MIDI 01
291.559;000.334;82;000.477;MIDI 01
291.526;000.419;94;000.641;MIDI 01
291.542;000.479;90;000.531;MIDI 01
291.550;000.528;85;000.453;MIDI 01
291.868;000.560;61;000.562;MIDI 01
292.457;000.040;59;000.438;MIDI 01
292.510;000.107;58;000.477;MIDI 01
292.679;000.077;73;000.578;MIDI 01
292.247;000.575;85;000.500;MIDI 01
292.246;000.579;90;000.547;MIDI 01
292.241;000.586;94;000.609;MIDI 01
292.252;000.586;82;000.484;MIDI 01
293.081;000.073;94;000.453;MIDI 01
293.069;000.102;90;000.461;MIDI 01
293.076;000.116;85;000.398;MIDI 01
293.110;000.130;82;000.289;MIDI 01
293.442;000.352;36;000.430;MIDI 01
293.815;000.402;84;000.367;MIDI 01
293.836;000.384;82;000.328;MIDI 01
293.820;000.467;76;000.305;MIDI 01
293.812;000.525;88;000.344;MIDI 01
294.177;000.434;58;000.375;MIDI 01
294.647;000.071;56;000.406;MIDI 01
294.767;000.034;55;000.273;MIDI 01
294.518;000.491;82;000.359;MIDI 01
294.527;000.504;84;000.359;MIDI 01
294.529;000.534;76;000.289;MIDI 01
294.983;000.132;72;000.336;MIDI 01
294.512;000.616;88;000.391;MIDI 01
295.497;000.197;82;000.211;MIDI 01
295.501;000.207;76;000.242;MIDI 01
295.518;000.193;84;000.266;MIDI 01
295.511;000.236;88;000.164;MIDI 01
296.206;000.142;89;000.117;MIDI 01
296.192;000.164;77;000.234;MIDI 01
296.216;000.142;80;000.227;MIDI 01
296.201;000.158;84;000.258;MIDI 01
296.457;000.075;77;000.352;MIDI 01
296.467;000.068;80;000.312;MIDI 01
296.478;000.058;84;000.328;MIDI 01
296.472;000.067;89;000.344;MIDI 01
296.176;000.478;32;000.266;MIDI 01
296.190;000.511;41;000.266;MIDI 01
296.650;000.088;31;000.320;MIDI 01
296.777;000.036;29;000.430;MIDI 01
296.690;000.180;84;000.406;MIDI 01
296.674;000.255;80;000.422;MIDI 01
296.676;000.332;77;000.352;MIDI 01
296.682;000.362;89;000.398;MIDI 01
296.967;000.502;53;000.484;MIDI 01
296.978;000.535;44;000.461;MIDI 01
297.523;000.054;43;000.383;MIDI 01
297.581;000.097;41;000.383;MIDI 01
297.703;000.375;53;000.242;MIDI 01
297.690;000.427;49;000.438;MIDI 01
298.111;000.109;77;000.320;MIDI 01
298.095;000.141;89;000.352;MIDI 01
298.121;000.135;82;000.305;MIDI 01
298.129;000.150;85;000.328;MIDI 01
298.509;000.080;79;000.352;MIDI 01
298.505;000.104;91;000.406;MIDI 01
298.514;000.098;82;000.281;MIDI 01
298.478;000.147;85;000.359;MIDI 01
298.748;000.041;79;000.398;MIDI 01
298.740;000.055;91;000.461;MIDI 01
298.738;000.061;82;000.406;MIDI 01
298.742;000.073;85;000.398;MIDI 01
298.511;000.420;31;000.375;MIDI 01
298.523;000.428;40;000.375;MIDI 01
298.946;000.085;29;000.406;MIDI 01
299.029;000.046;28;000.484;MIDI 01
298.917;000.362;82;000.461;MIDI 01
298.909;000.392;79;000.430;MIDI 01
298.919;000.390;85;000.398;MIDI 01
298.906;000.473;91;000.539;MIDI 01
299.218;000.415;43;000.461;MIDI 01
299.200;000.464;52;000.492;MIDI 01
299.661;000.062;41;000.461;MIDI 01
299.861;000.248;55;000.461;MIDI 01
299.868;000.334;49;000.516;MIDI 01
300.221;000.033;82;000.312;MIDI 01
300.197;000.059;79;000.430;MIDI 01
300.219;000.047;85;000.445;MIDI 01
300.206;000.109;91;000.430;MIDI 01
300.619;000.081;81;000.398;MIDI 01
300.610;000.103;93;000.430;MIDI 01
300.607;000.109;84;000.398;MIDI 01
300.609;000.121;90;000.414;MIDI 01
300.851;000.044;81;000.453;MIDI 01
300.847;000.051;93;000.516;MIDI 01
300.853;000.065;90;000.461;MIDI 01
300.846;000.074;84;000.453;MIDI 01
300.603;000.465;30;000.445;MIDI 01
300.605;000.473;39;000.383;MIDI 01
301.077;000.084;29;000.398;MIDI 01
301.122;000.051;27;000.617;MIDI 01
301.023;000.334;90;000.516;MIDI 01
301.005;000.377;84;000.492;MIDI 01
301.015;000.431;93;000.602;MIDI 01
301.012;000.449;81;000.516;MIDI 01
301.286;000.465;51;000.672;MIDI 01
301.310;000.452;42;000.539;MIDI 01
301.762;000.085;41;000.484;MIDI 01
301.798;000.074;39;000.586;MIDI 01
301.970;000.288;57;000.492;MIDI 01
301.966;000.356;51;000.555;MIDI 01
302.303;000.030;84;000.453;MIDI 01
302.298;000.083;81;000.539;MIDI 01
302.296;000.100;93;000.594;MIDI 01
302.308;000.118;90;000.602;MIDI 01
302.690;000.084;82;000.469;MIDI 01
302.681;000.095;94;000.547;MIDI 01
302.683;000.114;89;000.508;MIDI 01
302.926;000.077;82;000.547;MIDI 01
302.920;000.090;94;000.672;MIDI 01
302.924;000.101;89;000.578;MIDI 01
302.679;000.481;38;000.555;MIDI 01
302.677;000.521;29;000.578;MIDI 01
303.137;000.114;27;000.492;MIDI 01
303.219;000.048;26;000.531;MIDI 01
303.127;000.169;82;000.602;MIDI 01
303.111;000.226;89;000.602;MIDI 01
303.125;000.264;94;000.680;MIDI 01
303.356;000.046;42;000.703;MIDI 01
303.365;000.554;50;000.609;MIDI 01
303.424;000.514;41;000.500;MIDI 01
303.967;000.132;38;000.602;MIDI 01
303.892;000.240;39;000.484;MIDI 01
304.157;000.121;89;000.500;MIDI 01
304.137;000.157;101;000.602;MIDI 01
304.148;000.206;94;000.547;MIDI 01
304.457;000.089;89;000.562;MIDI 01
304.445;000.104;101;000.664;MIDI 01
304.455;000.117;94;000.617;MIDI 01
304.108;000.532;49;000.625;MIDI 01
304.110;000.589;41;000.562;MIDI 01
304.695;000.081;94;000.656;MIDI 01
304.703;000.087;39;000.492;MIDI 01
304.699;000.105;101;000.688;MIDI 01
304.764;000.043;37;000.516;MIDI 01
304.710;000.109;89;000.555;MIDI 01
304.944;000.045;28;000.484;MIDI 01
304.966;000.041;89;000.484;MIDI 01
304.946;000.123;92;000.648;MIDI 01
304.954;000.116;101;000.656;MIDI 01
304.969;000.147;96;000.500;MIDI 01
305.222;000.080;89;000.625;MIDI 01
305.218;000.092;101;000.742;MIDI 01
305.214;000.142;92;000.641;MIDI 01
305.226;000.149;96;000.570;MIDI 01
304.936;000.460;36;000.602;MIDI 01
304.956;000.558;29;000.570;MIDI 01
305.505;000.029;100;000.383;MIDI 01
305.468;000.070;25;000.547;MIDI 01
305.456;000.085;101;000.695;MIDI 01
305.500;000.046;24;000.609;MIDI 01
305.466;000.096;89;000.586;MIDI 01
305.454;000.119;92;000.664;MIDI 01
305.452;000.130;96;000.562;MIDI 01
305.679;000.097;100;000.695;MIDI 01
305.681;000.098;88;000.711;MIDI 01
305.675;000.136;91;000.758;MIDI 01
305.683;000.132;96;000.711;MIDI 01
305.930;000.086;100;000.734;MIDI 01
305.932;000.087;88;000.680;MIDI 01
305.924;000.140;91;000.727;MIDI 01
305.928;000.137;96;000.711;MIDI 01
305.677;000.419;48;000.641;MIDI 01
305.692;000.440;43;000.625;MIDI 01
306.190;000.039;36;000.602;MIDI 01
306.151;000.087;40;000.531;MIDI 01
306.145;000.096;100;000.766;MIDI 01
306.142;000.119;88;000.703;MIDI 01
306.135;000.134;91;000.672;MIDI 01
306.142;000.153;96;000.641;MIDI 01
306.378;000.099;86;000.719;MIDI 01
306.380;000.106;98;000.781;MIDI 01
306.375;000.143;92;000.711;MIDI 01
306.372;000.150;95;000.766;MIDI 01
306.651;000.042;96;000.344;MIDI 01
306.607;000.113;98;000.766;MIDI 01
306.609;000.113;86;000.758;MIDI 01
306.611;000.130;95;000.719;MIDI 01
306.619;000.152;92;000.703;MIDI 01
306.366;000.443;60;000.672;MIDI 01
306.367;000.471;53;000.672;MIDI 01
306.892;000.061;48;000.648;MIDI 01
306.847;000.119;98;000.711;MIDI 01
306.852;000.117;86;000.680;MIDI 01
306.849;000.132;50;000.453;MIDI 01
306.839;000.165;92;000.562;MIDI 01
306.842;000.192;95;000.688;MIDI 01
307.116;000.001;94;000.406;MIDI 01
307.113;000.028;98;000.500;MIDI 01
307.096;000.110;88;000.766;MIDI 01
307.098;000.125;100;000.797;MIDI 01
307.090;000.135;91;000.773;MIDI 01
307.094;000.155;96;000.766;MIDI 01
307.403;000.026;98;000.492;MIDI 01
307.378;000.097;100;000.758;MIDI 01
307.376;000.105;88;000.773;MIDI 01
307.382;000.141;96;000.727;MIDI 01
307.380;000.157;91;000.656;MIDI 01
307.087;000.482;72;000.656;MIDI 01
307.092;000.500;67;000.703;MIDI 01
307.602;000.034;100;000.695;MIDI 01
307.592;000.075;96;000.680;MIDI 01
307.589;000.081;91;000.633;MIDI 01
307.600;000.101;88;000.750;MIDI 01
307.606;000.109;64;000.547;MIDI 01
307.674;000.065;60;000.641;MIDI 01
307.865;000.022;76;000.602;MIDI 01
307.860;000.045;77;000.617;MIDI 01
307.855;000.064;74;000.703;MIDI 01
307.851;000.085;72;000.672;MIDI 01
307.867;000.086;82;000.461;MIDI 01
307.858;000.098;86;000.688;MIDI 01
307.872;000.088;84;000.633;MIDI 01
307.874;000.087;83;000.539;MIDI 01
307.863;000.120;80;000.617;MIDI 01
308.161;000.022;78;000.477;MIDI 01
308.164;000.021;84;000.570;MIDI 01
308.137;000.097;86;000.711;MIDI 01
308.141;000.101;74;000.711;MIDI 01
308.135;000.108;72;000.727;MIDI 01
308.123;000.153;83;000.656;MIDI 01
308.127;000.157;80;000.594;MIDI 01
308.133;000.153;77;000.594;MIDI 01
307.878;000.430;54;000.500;MIDI 01
307.853;000.466;60;000.719;MIDI 01
307.869;000.513;53;000.695;MIDI 01
308.385;000.090;50;000.531;MIDI 01
308.379;000.115;74;000.680;MIDI 01
308.381;000.115;72;000.703;MIDI 01
308.374;000.126;86;000.750;MIDI 01
308.438;000.066;48;000.664;MIDI 01
308.365;000.155;77;000.633;MIDI 01
308.372;000.150;80;000.625;MIDI 01
308.364;000.178;83;000.711;MIDI 01
308.668;000.069;42;000.062;MIDI 01
308.625;000.122;74;000.742;MIDI 01
308.623;000.126;72;000.734;MIDI 01
308.616;000.136;86;000.734;MIDI 01
308.614;000.141;77;000.719;MIDI 01
308.618;000.140;50;000.586;MIDI 01
308.622;000.144;80;000.703;MIDI 01
308.609;000.194;83;000.664;MIDI 01
308.895;000.110;86;000.766;MIDI 01
308.893;000.119;74;000.680;MIDI 01
308.899;000.115;72;000.695;MIDI 01
308.897;000.133;80;000.656;MIDI 01
308.897;000.135;77;000.664;MIDI 01
308.895;000.151;83;000.602;MIDI 01
308.627;000.525;48;000.672;MIDI 01
308.611;000.562;41;000.695;MIDI 01
309.135;000.042;74;000.492;MIDI 01
309.129;000.053;72;000.484;MIDI 01
309.108;000.077;77;000.555;MIDI 01
309.108;000.128;86;000.719;MIDI 01
309.114;000.133;38;000.570;MIDI 01
309.110;000.145;80;000.617;MIDI 01
309.173;000.147;36;000.625;MIDI 01
309.324;000.117;72;000.648;MIDI 01
309.372;000.105;79;000.625;MIDI 01
309.457;000.073;84;000.688;MIDI 01
309.568;000.022;89;000.766;MIDI 01
309.564;000.041;88;000.789;MIDI 01
309.309;000.671;48;000.625;MIDI 01
309.300;000.785;43;000.656;MIDI 01
310.915;000.067;60;000.641;MIDI 01
310.913;000.071;48;000.633;MIDI 01
310.910;000.075;36;000.586;MIDI 01
311.066;000.083;34;000.656;MIDI 01
311.061;000.101;58;000.656;MIDI 01
311.230;000.086;32;000.695;MIDI 01
311.228;000.091;56;000.727;MIDI 01
311.383;000.062;48;000.703;MIDI 01
311.385;000.071;60;000.672;MIDI 01
311.381;000.085;36;000.641;MIDI 01
311.536;000.098;31;000.664;MIDI 01
311.539;000.111;55;000.680;MIDI 01
311.665;000.085;36;000.625;MIDI 01
311.681;000.071;48;000.711;MIDI 01
311.679;000.093;60;000.672;MIDI 01
311.740;000.054;57;000.125;MIDI 01
311.866;000.036;29;000.734;MIDI 01
311.870;000.050;41;000.734;MIDI 01
311.863;000.061;53;000.758;MIDI 01
311.897;000.040;40;000.375;MIDI 01
312.567;000.055;65;000.742;MIDI 01
312.473;000.178;60;000.594;MIDI 01
312.408;000.280;53;000.547;MIDI 01
312.629;000.286;68;000.695;MIDI 01
312.621;000.317;72;000.742;MIDI 01
312.627;000.315;80;000.758;MIDI 01
313.130;000.014;79;000.578;MIDI 01
313.132;000.033;67;000.547;MIDI 01
313.222;000.010;65;000.672;MIDI 01
313.218;000.022;77;000.742;MIDI 01
313.363;000.030;78;000.398;MIDI 01
313.320;000.284;34;000.703;MIDI 01
313.315;000.292;46;000.773;MIDI 01
313.802;000.035;48;000.656;MIDI 01
313.341;000.504;77;000.625;MIDI 01
313.812;000.039;36;000.641;MIDI 01
313.333;000.590;79;000.570;MIDI 01
313.923;000.023;37;000.680;MIDI 01
313.921;000.029;49;000.719;MIDI 01
313.975;000.049;48;000.016;MIDI 01
314.072;000.002;30;000.414;MIDI 01
314.033;000.043;49;000.188;MIDI 01
314.028;000.050;28;000.727;MIDI 01
314.021;000.066;40;000.797;MIDI 01
313.337;000.945;73;000.703;MIDI 01
313.340;001.227;85;000.711;MIDI 01
314.514;000.089;52;000.570;MIDI 01
314.567;000.144;58;000.633;MIDI 01
314.629;000.125;61;000.633;MIDI 01
314.730;000.069;67;000.719;MIDI 01
314.799;000.349;73;000.750;MIDI 01
314.796;000.357;79;000.742;MIDI 01
314.802;000.358;85;000.789;MIDI 01
315.322;000.025;72;000.570;MIDI 01
315.321;000.034;84;000.578;MIDI 01
315.455;000.002;71;000.312;MIDI 01
315.413;000.045;82;000.703;MIDI 01
315.547;000.023;87;000.547;MIDI 01
315.558;000.035;85;000.422;MIDI 01
315.587;000.064;36;000.141;MIDI 01
315.518;000.221;33;000.727;MIDI 01
315.514;000.264;45;000.812;MIDI 01
315.988;000.035;48;000.719;MIDI 01
316.015;000.037;36;000.547;MIDI 01
316.043;000.041;35;000.336;MIDI 01
316.108;000.026;51;000.805;MIDI 01
316.113;000.050;39;000.680;MIDI 01
316.149;000.045;48;000.023;MIDI 01
315.530;000.698;84;000.531;MIDI 01
316.255;000.019;37;000.727;MIDI 01
316.251;000.034;27;000.805;MIDI 01
316.249;000.051;39;000.789;MIDI 01
316.254;000.047;51;000.023;MIDI 01
316.360;000.028;37;000.266;MIDI 01
315.536;000.928;90;000.766;MIDI 01
315.533;001.157;78;000.781;MIDI 01
316.691;000.129;51;000.625;MIDI 01
316.810;000.050;55;000.219;MIDI 01
316.750;000.180;57;000.594;MIDI 01
316.919;000.059;66;000.852;MIDI 01
316.824;000.171;60;000.586;MIDI 01
316.860;000.171;61;000.094;MIDI 01
317.039;000.019;87;000.492;MIDI 01
316.995;000.279;81;000.750;MIDI 01
317.002;000.294;78;000.773;MIDI 01
317.000;000.299;90;000.805;MIDI 01
317.004;000.311;84;000.750;MIDI 01
317.462;000.019;77;000.633;MIDI 01
317.465;000.019;89;000.695;MIDI 01
317.551;000.054;87;000.719;MIDI 01
317.678;000.085;90;000.805;MIDI 01
317.733;000.034;92;000.258;MIDI 01
317.728;000.057;37;000.297;MIDI 01
317.726;000.113;95;000.422;MIDI 01
317.685;000.155;34;000.695;MIDI 01
317.680;000.170;46;000.828;MIDI 01
317.808;000.044;89;000.367;MIDI 01
317.877;000.056;88;000.148;MIDI 01
318.149;000.035;50;000.719;MIDI 01
318.156;000.034;38;000.648;MIDI 01
318.271;000.029;53;000.758;MIDI 01
318.279;000.041;41;000.734;MIDI 01
317.858;000.553;89;000.250;MIDI 01
318.418;000.039;26;000.820;MIDI 01
318.416;000.058;38;000.719;MIDI 01
317.688;000.791;82;000.773;MIDI 01
318.446;000.047;36;000.492;MIDI 01
318.472;000.042;27;000.297;MIDI 01
317.690;000.836;94;000.773;MIDI 01
318.859;000.075;50;000.500;MIDI 01
318.878;000.123;53;000.594;MIDI 01
318.951;000.123;58;000.664;MIDI 01
319.054;000.052;65;000.766;MIDI 01
319.149;000.321;98;000.773;MIDI 01
319.147;000.336;86;000.852;MIDI 01
319.150;000.352;94;000.836;MIDI 01
319.634;000.016;96;000.672;MIDI 01
319.640;000.028;84;000.609;MIDI 01
319.736;000.029;82;000.719;MIDI 01
319.730;000.064;94;000.758;MIDI 01
320.005;000.052;27;000.320;MIDI 01
319.956;000.259;25;000.773;MIDI 01
319.950;000.269;37;000.820;MIDI 01
320.450;000.046;41;000.703;MIDI 01
320.460;000.040;29;000.688;MIDI 01
319.952;000.572;94;000.844;MIDI 01
319.954;000.605;101;000.781;MIDI 01
320.591;000.035;46;000.742;MIDI 01
319.960;000.677;89;000.727;MIDI 01
320.610;000.030;44;000.477;MIDI 01
320.598;000.056;34;000.625;MIDI 01
320.739;000.046;46;000.023;MIDI 01
320.936;000.001;35;000.258;MIDI 01
320.886;000.161;24;000.781;MIDI 01
320.884;000.199;36;000.820;MIDI 01
320.894;000.282;101;000.797;MIDI 01
320.892;000.328;96;000.727;MIDI 01
320.889;000.336;92;000.797;MIDI 01
320.896;000.389;89;000.750;MIDI 01
321.364;000.025;41;000.703;MIDI 01
321.364;000.038;29;000.664;MIDI 01
321.473;000.042;44;000.805;MIDI 01
321.496;000.032;32;000.539;MIDI 01
321.519;000.062;41;000.023;MIDI 01
321.528;000.059;34;000.273;MIDI 01
321.619;000.190;36;000.727;MIDI 01
321.609;000.244;48;000.734;MIDI 01
321.617;000.342;100;000.781;MIDI 01
321.601;000.361;91;000.742;MIDI 01
321.615;000.419;88;000.773;MIDI 01
321.613;000.464;96;000.789;MIDI 01
322.095;000.025;40;000.680;MIDI 01
322.083;000.039;52;000.742;MIDI 01
322.219;000.022;43;000.656;MIDI 01
322.202;000.042;55;000.766;MIDI 01
322.254;000.051;45;000.281;MIDI 01
322.343;000.055;60;000.750;MIDI 01
322.398;000.011;59;000.273;MIDI 01
322.396;000.034;96;000.250;MIDI 01
322.351;000.171;48;000.742;MIDI 01
322.333;000.236;92;000.789;MIDI 01
322.339;000.272;86;000.773;MIDI 01
322.349;000.323;98;000.750;MIDI 01
322.341;000.349;95;000.781;MIDI 01
322.768;000.031;65;000.680;MIDI 01
322.783;000.035;53;000.609;MIDI 01
322.892;000.020;68;000.719;MIDI 01
322.890;000.031;56;000.633;MIDI 01
322.990;000.043;68;000.242;MIDI 01
323.039;000.021;92;000.633;MIDI 01
323.030;000.037;72;000.773;MIDI 01
323.032;000.042;100;000.805;MIDI 01
323.036;000.051;60;000.758;MIDI 01
323.032;000.057;96;000.781;MIDI 01
323.030;000.066;91;000.766;MIDI 01
323.035;000.066;88;000.820;MIDI 01
323.466;000.035;53;000.617;MIDI 01
323.462;000.049;65;000.664;MIDI 01
323.547;000.056;80;000.562;MIDI 01
323.546;000.084;74;000.633;MIDI 01
323.544;000.115;86;000.711;MIDI 01
323.622;000.038;68;000.727;MIDI 01
323.630;000.038;56;000.547;MIDI 01
323.542;000.144;83;000.648;MIDI 01
323.774;000.026;72;000.750;MIDI 01
323.778;000.034;88;000.703;MIDI 01
323.794;000.021;86;000.578;MIDI 01
323.776;000.056;60;000.781;MIDI 01
323.771;000.062;84;000.711;MIDI 01
323.769;000.067;79;000.750;MIDI 01
323.811;000.025;82;000.453;MIDI 01
323.773;000.069;76;000.836;MIDI 01
324.182;000.050;41;000.656;MIDI 01
324.180;000.055;53;000.680;MIDI 01
324.270;000.051;68;000.570;MIDI 01
324.254;000.090;62;000.664;MIDI 01
324.259;000.106;74;000.688;MIDI 01
324.343;000.039;56;000.781;MIDI 01
324.365;000.028;44;000.477;MIDI 01
324.250;000.152;71;000.703;MIDI 01
324.392;000.039;46;000.344;MIDI 01
324.484;000.050;76;000.766;MIDI 01
324.486;000.050;60;000.766;MIDI 01
324.477;000.075;72;000.727;MIDI 01
324.482;000.071;67;000.773;MIDI 01
324.494;000.060;48;000.750;MIDI 01
324.480;000.076;64;000.789;MIDI 01
324.528;000.029;70;000.273;MIDI 01
324.531;000.043;68;000.125;MIDI 01
324.549;000.053;51;000.273;MIDI 01
324.941;000.041;29;000.672;MIDI 01
324.939;000.051;41;000.711;MIDI 01
324.981;000.083;56;000.742;MIDI 01
325.000;000.089;59;000.664;MIDI 01
324.990;000.125;62;000.688;MIDI 01
325.124;000.033;32;000.609;MIDI 01
325.119;000.064;44;000.844;MIDI 01
325.191;000.055;34;000.211;MIDI 01
325.336;000.002;39;000.422;MIDI 01
325.298;000.041;48;000.836;MIDI 01
325.302;000.055;36;000.766;MIDI 01
325.364;000.001;62;000.336;MIDI 01
325.316;000.054;55;000.742;MIDI 01
325.318;000.069;64;000.727;MIDI 01
325.311;000.079;60;000.742;MIDI 01
325.336;000.073;59;000.492;MIDI 01
326.152;000.131;36;000.766;MIDI 01
326.158;000.168;24;000.734;MIDI 01
326.154;000.204;52;000.727;MIDI 01
326.149;000.227;55;000.797;MIDI 01
326.156;000.254;60;000.742;MIDI 01
328.648;000.110;33;000.758;MIDI 01
327.919;001.116;69;000.703;MIDI 01
327.923;001.125;60;000.648;MIDI 01
329.024;000.058;31;000.688;MIDI 01
327.921;001.169;57;000.641;MIDI 01
327.925;001.277;65;000.625;MIDI 01
329.152;000.067;29;000.695;MIDI 01
329.316;000.075;36;000.766;MIDI 01
329.320;000.457;60;000.555;MIDI 01
329.325;000.479;55;000.602;MIDI 01
329.314;000.576;64;000.641;MIDI 01
329.322;000.577;67;000.672;MIDI 01
330.755;000.130;38;000.656;MIDI 01
331.111;000.111;36;000.633;MIDI 01
331.227;000.080;34;000.633;MIDI 01
331.393;000.141;46;000.664;MIDI 01
330.121;001.804;62;000.602;MIDI 01
330.123;001.868;58;000.602;MIDI 01
330.109;001.917;70;000.672;MIDI 01
330.130;001.917;65;000.508;MIDI 01
332.768;000.108;34;000.648;MIDI 01
332.133;001.010;62;000.602;MIDI 01
332.141;001.016;58;000.633;MIDI 01
332.135;001.047;67;000.617;MIDI 01
332.139;001.058;70;000.719;MIDI 01
333.097;000.142;33;000.648;MIDI 01
333.219;000.111;31;000.672;MIDI 01
333.380;000.081;38;000.727;MIDI 01
333.392;000.425;62;000.602;MIDI 01
333.401;000.431;57;000.617;MIDI 01
333.399;000.454;65;000.602;MIDI 01
333.394;000.496;69;000.695;MIDI 01
334.750;000.122;39;000.641;MIDI 01
335.070;000.121;38;000.633;MIDI 01
335.186;000.065;36;000.641;MIDI 01
335.371;000.165;48;000.641;MIDI 01
334.124;001.602;63;000.617;MIDI 01
334.129;001.663;60;000.594;MIDI 01
334.122;001.697;67;000.609;MIDI 01
334.120;001.757;72;000.672;MIDI 01
336.046;000.223;67;000.570;MIDI 01
336.049;000.241;63;000.555;MIDI 01
336.028;000.460;72;000.656;MIDI 01
336.421;000.083;67;000.609;MIDI 01
336.428;000.078;62;000.625;MIDI 01
336.417;000.155;70;000.672;MIDI 01
337.101;000.084;27;000.633;MIDI 01
337.239;000.064;26;000.617;MIDI 01
337.369;000.091;38;000.695;MIDI 01
336.808;000.812;67;000.664;MIDI 01
336.800;000.829;69;000.672;MIDI 01
336.803;000.829;75;000.719;MIDI 01
337.726;000.151;69;000.562;MIDI 01
337.720;000.165;74;000.633;MIDI 01
337.736;000.153;65;000.555;MIDI 01
338.102;000.049;68;000.211;MIDI 01
338.038;000.119;67;000.547;MIDI 01
338.044;000.159;63;000.578;MIDI 01
338.029;000.345;72;000.625;MIDI 01
338.351;000.035;65;000.516;MIDI 01
338.374;000.030;66;000.359;MIDI 01
338.337;000.109;70;000.633;MIDI 01
338.344;000.119;62;000.531;MIDI 01
339.011;000.061;28;000.555;MIDI 01
339.140;000.062;26;000.609;MIDI 01
339.300;000.093;38;000.633;MIDI 01
338.732;000.838;58;000.453;MIDI 01
338.705;001.202;64;000.508;MIDI 01
338.718;001.234;61;000.531;MIDI 01
339.719;000.255;57;000.438;MIDI 01
338.702;001.329;67;000.578;MIDI 01
339.696;000.363;69;000.578;MIDI 01
340.974;000.109;30;000.562;MIDI 01
341.648;000.091;28;000.438;MIDI 01
342.038;000.098;26;000.422;MIDI 01
342.525;000.158;38;000.367;MIDI 01
340.288;003.725;69;000.477;MIDI 01
340.298;003.717;62;000.453;MIDI 01
340.310;003.727;66;000.445;MIDI 01
340.312;003.799;57;000.391;MIDI 01
345.424;000.055;35;000.398;MIDI 01
344.767;001.025;59;000.352;MIDI 01
345.757;000.079;33;000.398;MIDI 01
344.797;001.070;50;000.148;MIDI 01
344.814;001.064;47;000.133;MIDI 01
345.868;000.092;31;000.391;MIDI 01
344.803;001.195;55;000.242;MIDI 01
346.055;000.243;50;000.242;MIDI 01
346.092;000.252;54;000.336;MIDI 01
346.079;000.280;57;000.344;MIDI 01
346.420;000.066;38;000.352;MIDI 01
346.833;000.678;60;000.414;MIDI 01
347.482;000.096;64;000.328;MIDI 01
347.805;000.100;62;000.367;MIDI 01
347.949;000.080;60;000.375;MIDI 01
346.855;001.336;55;000.234;MIDI 01
346.853;001.821;52;000.305;MIDI 01
348.128;000.557;56;000.352;MIDI 01
348.629;000.059;72;000.367;MIDI 01
346.842;001.885;48;000.266;MIDI 01
349.750;000.059;36;000.484;MIDI 01
349.141;000.997;60;000.445;MIDI 01
349.176;000.974;52;000.367;MIDI 01
350.075;000.077;35;000.453;MIDI 01
349.172;001.033;48;000.359;MIDI 01
350.175;000.066;33;000.539;MIDI 01
349.174;001.075;57;000.398;MIDI 01
350.359;000.165;52;000.359;MIDI 01
350.365;000.250;55;000.422;MIDI 01
350.346;000.279;59;000.484;MIDI 01
350.650;000.045;40;000.445;MIDI 01
351.061;000.533;62;000.484;MIDI 01
351.653;000.100;67;000.406;MIDI 01
351.087;000.897;55;000.375;MIDI 01
352.004;000.068;64;000.312;MIDI 01
352.128;000.078;62;000.312;MIDI 01
352.803;000.051;74;000.328;MIDI 01
351.086;001.847;50;000.352;MIDI 01
352.329;000.630;53;000.250;MIDI 01
351.081;001.898;57;000.297;MIDI 01
353.465;000.440;41;000.328;MIDI 01
353.434;000.486;57;000.336;MIDI 01
353.424;000.525;62;000.422;MIDI 01
353.869;000.138;55;000.438;MIDI 01
353.874;000.165;40;000.445;MIDI 01
353.856;000.723;60;000.523;MIDI 01
354.528;000.433;58;000.375;MIDI 01
354.505;000.469;26;000.398;MIDI 01
354.500;000.493;65;000.508;MIDI 01
354.562;000.484;53;000.266;MIDI 01
354.520;000.568;38;000.352;MIDI 01
355.496;000.210;55;000.211;MIDI 01
355.501;000.207;58;000.281;MIDI 01
355.476;000.306;28;000.281;MIDI 01
355.492;000.312;40;000.258;MIDI 01
355.470;000.595;64;000.383;MIDI 01
355.972;000.137;29;000.320;MIDI 01
355.940;000.175;62;000.484;MIDI 01
355.956;000.175;53;000.352;MIDI 01
355.967;000.192;41;000.375;MIDI 01
355.959;000.247;58;000.312;MIDI 01
356.322;000.090;43;000.336;MIDI 01
356.330;000.099;52;000.359;MIDI 01
356.307;000.146;31;000.422;MIDI 01
356.319;000.142;58;000.469;MIDI 01
356.658;000.103;53;000.461;MIDI 01
356.656;000.171;34;000.430;MIDI 01
356.650;000.202;46;000.453;MIDI 01
356.673;000.193;50;000.344;MIDI 01
356.651;000.558;58;000.477;MIDI 01
356.314;000.948;60;000.461;MIDI 01
357.204;001.097;52;000.305;MIDI 01
357.177;001.130;55;000.445;MIDI 01
357.175;001.172;36;000.297;MIDI 01
358.098;000.323;60;000.258;MIDI 01
357.190;001.233;48;000.289;MIDI 01
359.145;000.351;81;000.336;MIDI 01
359.173;000.368;77;000.219;MIDI 01
359.120;000.484;86;000.344;MIDI 01
359.558;000.073;79;000.336;MIDI 01
359.551;000.127;76;000.367;MIDI 01
359.541;000.632;84;000.453;MIDI 01
360.125;000.395;89;000.477;MIDI 01
360.173;000.349;77;000.344;MIDI 01
360.157;000.389;82;000.328;MIDI 01
360.100;000.643;74;000.266;MIDI 01
360.972;000.102;79;000.312;MIDI 01
360.971;000.144;82;000.281;MIDI 01
360.934;000.335;88;000.406;MIDI 01
360.598;000.717;62;000.289;MIDI 01
360.938;000.421;64;000.281;MIDI 01
361.346;000.106;82;000.281;MIDI 01
361.333;000.123;86;000.383;MIDI 01
361.319;000.140;65;000.383;MIDI 01
361.375;000.127;77;000.188;MIDI 01
361.743;000.159;76;000.336;MIDI 01
361.736;000.204;82;000.344;MIDI 01
362.172;000.084;77;000.367;MIDI 01
362.191;000.199;70;000.336;MIDI 01
362.166;000.231;74;000.359;MIDI 01
361.771;000.663;67;000.234;MIDI 01
362.135;000.664;82;000.398;MIDI 01
361.746;001.230;84;000.391;MIDI 01
362.752;001.361;79;000.406;MIDI 01
362.779;001.368;72;000.266;MIDI 01
364.059;000.416;84;000.273;MIDI 01
364.041;000.465;70;000.258;MIDI 01
362.771;001.788;76;000.320;MIDI 01
361.824;002.906;60;000.133;MIDI 01
365.764;000.602;41;000.273;MIDI 01
366.396;000.515;48;000.281;MIDI 01
366.903;000.397;60;000.320;MIDI 01
367.246;000.351;48;000.305;MIDI 01
365.776;001.857;65;000.375;MIDI 01
367.607;000.158;60;000.273;MIDI 01
367.930;000.381;48;000.125;MIDI 01
365.767;002.567;69;000.445;MIDI 01
368.262;000.296;41;000.289;MIDI 01
368.664;000.295;48;000.336;MIDI 01
368.957;000.215;59;000.398;MIDI 01
369.258;000.279;48;000.367;MIDI 01
368.275;001.324;67;000.398;MIDI 01
368.281;001.320;65;000.367;MIDI 01
369.532;000.116;64;000.438;MIDI 01
369.552;000.129;58;000.352;MIDI 01
369.827;000.365;48;000.336;MIDI 01
370.148;000.385;41;000.352;MIDI 01
370.540;000.314;48;000.344;MIDI 01
370.846;000.314;57;000.336;MIDI 01
371.124;000.225;48;000.336;MIDI 01
371.415;000.099;57;000.312;MIDI 01
370.179;001.352;67;000.352;MIDI 01
371.712;000.357;48;000.320;MIDI 01
370.155;002.231;72;000.477;MIDI 01
372.058;000.371;41;000.312;MIDI 01
372.403;000.418;48;000.328;MIDI 01
371.442;001.435;65;000.336;MIDI 01
370.199;002.790;60;000.320;MIDI 01
372.748;000.309;56;000.328;MIDI 01
373.035;000.284;48;000.367;MIDI 01
372.734;000.603;72;000.383;MIDI 01
373.343;000.107;56;000.328;MIDI 01
373.651;000.319;48;000.328;MIDI 01
373.320;000.709;73;000.492;MIDI 01
374.027;000.184;60;000.492;MIDI 01
373.922;000.346;39;000.422;MIDI 01
374.374;000.464;48;000.312;MIDI 01
374.499;000.391;75;000.422;MIDI 01
374.218;000.766;68;000.406;MIDI 01
374.766;000.347;56;000.367;MIDI 01
375.027;000.283;48;000.367;MIDI 01
375.318;000.146;56;000.406;MIDI 01
375.621;000.350;48;000.391;MIDI 01
375.993;000.174;58;000.500;MIDI 01
375.894;000.747;39;000.430;MIDI 01
376.677;000.261;51;000.477;MIDI 01
376.330;000.885;46;000.391;MIDI 01
376.160;001.076;68;000.438;MIDI 01
376.457;000.904;75;000.484;MIDI 01
376.957;000.438;39;000.445;MIDI 01
377.262;000.133;67;000.453;MIDI 01
377.283;000.276;49;000.367;MIDI 01
377.599;000.568;39;000.375;MIDI 01
377.972;000.447;48;000.398;MIDI 01
378.378;000.415;39;000.320;MIDI 01
378.689;000.295;48;000.391;MIDI 01
378.975;000.366;39;000.422;MIDI 01
379.270;000.180;68;000.477;MIDI 01
377.980;001.483;70;000.430;MIDI 01
379.267;000.241;48;000.344;MIDI 01
379.549;000.578;39;000.375;MIDI 01
377.983;002.306;75;000.500;MIDI 01
379.908;000.498;47;000.359;MIDI 01
380.324;000.406;39;000.383;MIDI 01
379.916;000.984;69;000.438;MIDI 01
380.627;000.429;47;000.328;MIDI 01
377.955;003.105;63;000.570;MIDI 01
380.648;000.645;75;000.516;MIDI 01
380.943;000.393;39;000.367;MIDI 01
381.253;000.292;47;000.391;MIDI 01
381.234;000.781;77;000.594;MIDI 01
381.906;000.115;63;000.461;MIDI 01
381.549;000.509;39;000.391;MIDI 01
382.003;000.250;70;000.484;MIDI 01
381.849;000.406;46;000.500;MIDI 01
382.243;000.398;39;000.461;MIDI 01
382.585;000.317;46;000.406;MIDI 01
382.885;000.414;39;000.430;MIDI 01
382.245;001.242;79;000.531;MIDI 01
382.142;001.463;75;000.477;MIDI 01
383.205;000.444;46;000.484;MIDI 01
383.484;000.553;39;000.484;MIDI 01
383.865;000.306;51;000.516;MIDI 01
384.229;000.141;36;000.516;MIDI 01
384.539;000.134;51;000.508;MIDI 01
384.830;000.149;36;000.539;MIDI 01
383.892;001.250;72;000.547;MIDI 01
385.116;000.143;51;000.539;MIDI 01
383.895;001.378;69;000.547;MIDI 01
383.898;001.377;77;000.539;MIDI 01
383.884;001.424;81;000.625;MIDI 01
385.390;000.225;36;000.594;MIDI 01
385.717;000.199;50;000.602;MIDI 01
386.107;000.069;34;000.516;MIDI 01
385.744;000.451;74;000.578;MIDI 01
385.746;000.606;77;000.578;MIDI 01
385.750;000.605;70;000.562;MIDI 01
385.739;000.674;82;000.664;MIDI 01
386.400;000.060;50;000.578;MIDI 01
386.684;000.281;34;000.586;MIDI 01
386.994;000.195;48;000.688;MIDI 01
387.347;000.102;33;000.586;MIDI 01
387.631;000.095;48;000.648;MIDI 01
386.992;000.769;77;000.602;MIDI 01
387.000;000.769;75;000.625;MIDI 01
387.005;000.807;72;000.648;MIDI 01
386.996;000.912;84;000.797;MIDI 01
387.925;000.465;33;000.625;MIDI 01
388.258;000.293;46;000.703;MIDI 01
388.620;000.226;32;000.656;MIDI 01
388.998;000.235;46;000.703;MIDI 01
388.271;001.176;77;000.609;MIDI 01
388.276;001.237;74;000.625;MIDI 01
388.269;001.265;86;000.703;MIDI 01
388.267;001.303;82;000.633;MIDI 01
389.387;000.232;32;000.695;MIDI 01
389.959;000.058;31;000.602;MIDI 01
390.065;000.050;46;000.672;MIDI 01
390.083;000.448;75;000.680;MIDI 01
390.080;000.453;82;000.688;MIDI 01
390.594;000.048;43;000.602;MIDI 01
390.695;000.041;58;000.664;MIDI 01
390.823;000.044;45;000.703;MIDI 01
390.921;000.036;60;000.609;MIDI 01
390.911;000.129;78;000.453;MIDI 01
390.967;000.097;81;000.227;MIDI 01
390.085;001.009;87;000.688;MIDI 01
390.871;000.230;84;000.648;MIDI 01
390.890;000.229;77;000.578;MIDI 01
390.895;000.232;75;000.664;MIDI 01
391.400;000.128;46;000.586;MIDI 01
391.507;000.033;52;000.445;MIDI 01
391.601;000.080;62;000.641;MIDI 01
391.611;000.085;74;000.664;MIDI 01
391.608;000.094;77;000.703;MIDI 01
391.491;000.261;53;000.508;MIDI 01
391.615;000.144;86;000.688;MIDI 01
391.611;000.165;82;000.672;MIDI 01
392.190;000.080;31;000.586;MIDI 01
392.308;000.045;91;000.750;MIDI 01
392.312;000.059;46;000.703;MIDI 01
392.306;000.084;87;000.703;MIDI 01
392.301;000.095;82;000.703;MIDI 01
392.315;000.083;79;000.641;MIDI 01
392.777;000.049;43;000.633;MIDI 01
392.823;000.069;75;000.656;MIDI 01
392.883;000.028;58;000.656;MIDI 01
392.818;000.118;82;000.602;MIDI 01
393.005;000.036;45;000.680;MIDI 01
393.067;000.046;60;000.500;MIDI 01
393.079;000.046;78;000.258;MIDI 01
393.046;000.109;77;000.547;MIDI 01
393.099;000.058;82;000.141;MIDI 01
393.042;000.151;75;000.648;MIDI 01
393.008;000.200;84;000.633;MIDI 01
392.815;000.403;87;000.695;MIDI 01
393.526;000.111;46;000.617;MIDI 01
393.615;000.038;50;000.359;MIDI 01
393.591;000.146;53;000.625;MIDI 01
393.717;000.059;74;000.742;MIDI 01
393.695;000.082;62;000.703;MIDI 01
393.714;000.086;77;000.688;MIDI 01
393.721;000.129;86;000.797;MIDI 01
393.719;000.139;82;000.734;MIDI 01
394.385;000.103;31;000.641;MIDI 01
394.512;000.073;46;000.703;MIDI 01
394.547;000.108;91;000.734;MIDI 01
394.549;000.111;94;000.789;MIDI 01
394.545;000.146;87;000.727;MIDI 01
394.553;000.150;82;000.703;MIDI 01
395.042;000.076;43;000.555;MIDI 01
395.122;000.069;91;000.641;MIDI 01
395.111;000.081;87;000.594;MIDI 01
395.125;000.074;79;000.539;MIDI 01
395.147;000.056;58;000.625;MIDI 01
395.297;000.065;86;000.680;MIDI 01
395.289;000.074;44;000.672;MIDI 01
395.304;000.067;89;000.648;MIDI 01
395.310;000.070;77;000.641;MIDI 01
395.381;000.076;59;000.625;MIDI 01
395.599;000.045;45;000.641;MIDI 01
395.705;000.059;60;000.656;MIDI 01
395.644;000.123;84;000.609;MIDI 01
395.653;000.142;75;000.625;MIDI 01
395.648;000.190;87;000.688;MIDI 01
395.930;000.035;46;000.562;MIDI 01
396.009;000.093;62;000.617;MIDI 01
395.951;000.156;86;000.688;MIDI 01
395.966;000.169;74;000.633;MIDI 01
395.948;000.201;82;000.617;MIDI 01
396.001;000.198;55;000.219;MIDI 01
396.203;000.048;55;000.023;MIDI 01
396.211;000.042;48;000.617;MIDI 01
396.260;000.046;49;000.203;MIDI 01
396.267;000.092;72;000.625;MIDI 01
396.302;000.060;63;000.688;MIDI 01
396.249;000.145;84;000.672;MIDI 01
396.276;000.131;82;000.641;MIDI 01
396.489;000.058;50;000.641;MIDI 01
396.560;000.031;52;000.383;MIDI 01
396.565;000.064;70;000.688;MIDI 01
396.589;000.068;65;000.664;MIDI 01
396.555;000.234;82;000.688;MIDI 01
396.789;000.071;52;000.633;MIDI 01
396.854;000.092;79;000.688;MIDI 01
396.872;000.084;72;000.625;MIDI 01
396.858;000.100;84;000.703;MIDI 01
396.900;000.060;67;000.633;MIDI 01
397.303;000.495;70;000.688;MIDI 01
397.294;000.520;82;000.734;MIDI 01
397.286;001.093;65;000.617;MIDI 01
397.284;001.133;60;000.609;MIDI 01
397.283;001.172;53;000.539;MIDI 01
398.184;000.299;69;000.570;MIDI 01
397.299;001.265;77;000.688;MIDI 01
398.182;000.384;81;000.656;MIDI 01
398.957;000.076;77;000.570;MIDI 01
398.961;000.074;70;000.672;MIDI 01
398.964;000.165;82;000.641;MIDI 01
398.887;000.310;38;000.586;MIDI 01
398.993;000.300;53;000.562;MIDI 01
399.273;000.085;74;000.594;MIDI 01
399.264;000.116;86;000.695;MIDI 01
399.344;000.115;40;000.609;MIDI 01
399.540;000.020;79;000.406;MIDI 01
399.512;000.053;72;000.609;MIDI 01
399.500;000.068;84;000.711;MIDI 01
399.444;000.147;55;000.625;MIDI 01
399.765;000.200;41;000.586;MIDI 01
399.897;000.106;48;000.539;MIDI 01
400.034;000.068;53;000.531;MIDI 01
400.180;000.029;60;000.539;MIDI 01
399.823;000.540;70;000.680;MIDI 01
399.818;000.591;82;000.688;MIDI 01
400.922;000.591;81;000.594;MIDI 01
400.936;000.629;69;000.469;MIDI 01
399.825;001.768;77;000.648;MIDI 01
402.349;000.312;69;000.312;MIDI 01
402.984;000.089;53;000.266;MIDI 01
403.403;000.045;69;000.305;MIDI 01
403.740;000.057;53;000.258;MIDI 01
404.027;000.042;69;000.328;MIDI 01
404.298;000.058;53;000.305;MIDI 01
402.380;002.208;72;000.414;MIDI 01
402.365;002.289;77;000.477;MIDI 01
404.589;000.143;68;000.359;MIDI 01
404.869;000.075;53;000.406;MIDI 01
405.103;000.099;68;000.438;MIDI 01
405.324;000.109;53;000.422;MIDI 01
404.596;000.919;71;000.336;MIDI 01
405.539;000.096;67;000.352;MIDI 01
404.583;001.054;76;000.430;MIDI 01
405.535;000.143;70;000.430;MIDI 01
405.541;000.357;75;000.484;MIDI 01
405.781;000.324;53;000.328;MIDI 01
406.061;000.190;66;000.266;MIDI 01
405.942;000.356;69;000.406;MIDI 01
406.097;000.204;81;000.445;MIDI 01
406.324;000.268;53;000.289;MIDI 01
406.545;000.069;65;000.336;MIDI 01
406.562;000.071;68;000.328;MIDI 01
406.540;000.117;74;000.445;MIDI 01
406.761;000.194;53;000.367;MIDI 01
406.834;000.173;67;000.383;MIDI 01
406.922;000.122;64;000.383;MIDI 01
406.900;000.148;73;000.414;MIDI 01
406.953;000.361;79;000.539;MIDI 01
407.119;000.223;53;000.383;MIDI 01
407.301;000.104;63;000.453;MIDI 01
407.331;000.107;66;000.500;MIDI 01
407.315;000.153;72;000.547;MIDI 01
407.494;000.191;53;000.484;MIDI 01
407.627;000.133;71;000.484;MIDI 01
407.670;000.193;62;000.461;MIDI 01
407.617;000.254;65;000.461;MIDI 01
407.902;000.200;53;000.406;MIDI 01
407.722;000.411;77;000.555;MIDI 01
408.125;000.143;64;000.430;MIDI 01
408.099;000.192;70;000.516;MIDI 01
408.133;000.202;61;000.406;MIDI 01
408.367;000.525;53;000.352;MIDI 01
408.734;000.438;60;000.297;MIDI 01
409.143;000.293;53;000.234;MIDI 01
409.434;000.228;60;000.273;MIDI 01
408.750;000.994;63;000.258;MIDI 01
409.700;000.275;53;000.250;MIDI 01
408.747;001.230;69;000.359;MIDI 01
408.736;001.458;75;000.422;MIDI 01
409.965;000.304;61;000.281;MIDI 01
409.932;000.473;64;000.344;MIDI 01
410.249;000.446;53;000.148;MIDI 01
410.600;000.303;62;000.203;MIDI 01
410.924;000.302;53;000.102;MIDI 01
411.209;000.284;62;000.234;MIDI 01
411.508;000.434;53;000.180;MIDI 01
410.625;001.324;65;000.250;MIDI 01
410.585;001.597;69;000.336;MIDI 01
411.854;000.465;63;000.234;MIDI 01
411.833;000.547;60;000.258;MIDI 01
412.289;000.604;53;000.266;MIDI 01
412.905;000.232;57;000.219;MIDI 01
413.378;000.074;41;000.320;MIDI 01
413.726;000.039;57;000.289;MIDI 01
413.969;000.059;41;000.352;MIDI 01
414.250;000.040;57;000.305;MIDI 01
414.502;000.066;41;000.344;MIDI 01
412.893;001.961;65;000.320;MIDI 01
412.901;001.974;60;000.266;MIDI 01
414.817;000.245;56;000.359;MIDI 01
415.089;000.120;41;000.367;MIDI 01
415.326;000.088;56;000.477;MIDI 01
415.540;000.087;41;000.445;MIDI 01
414.836;000.865;59;000.305;MIDI 01
414.823;000.972;64;000.438;MIDI 01
415.729;000.077;55;000.383;MIDI 01
415.731;000.109;58;000.438;MIDI 01
415.700;000.357;63;000.477;MIDI 01
415.939;000.275;41;000.406;MIDI 01
416.137;000.159;54;000.344;MIDI 01
416.212;000.222;69;000.469;MIDI 01
416.064;000.396;57;000.438;MIDI 01
416.427;000.219;41;000.219;MIDI 01
416.640;000.066;53;000.227;MIDI 01
416.671;000.077;56;000.414;MIDI 01
416.651;000.106;62;000.438;MIDI 01
416.850;000.159;41;000.289;MIDI 01
416.974;000.144;61;000.469;MIDI 01
416.988;000.139;52;000.422;MIDI 01
416.926;000.217;55;000.430;MIDI 01
417.057;000.259;67;000.492;MIDI 01
417.198;000.176;41;000.383;MIDI 01
417.422;000.129;54;000.492;MIDI 01
417.420;000.148;60;000.516;MIDI 01
417.392;000.183;51;000.438;MIDI 01
417.626;000.206;41;000.445;MIDI 01
417.708;000.142;59;000.523;MIDI 01
417.801;000.145;50;000.477;MIDI 01
417.710;000.239;53;000.453;MIDI 01
417.814;000.445;65;000.570;MIDI 01
418.008;000.257;41;000.508;MIDI 01
418.210;000.070;64;000.094;MIDI 01
418.246;000.194;52;000.492;MIDI 01
418.235;000.218;49;000.469;MIDI 01
418.224;000.253;58;000.547;MIDI 01
418.498;000.632;41;000.406;MIDI 01
418.868;000.521;48;000.383;MIDI 01
419.376;000.339;41;000.219;MIDI 01
419.691;000.265;48;000.320;MIDI 01
418.722;001.300;51;000.484;MIDI 01
418.801;001.438;57;000.383;MIDI 01
419.943;000.348;41;000.289;MIDI 01
420.220;000.255;49;000.375;MIDI 01
418.930;001.567;63;000.461;MIDI 01
420.227;000.510;52;000.398;MIDI 01
420.512;000.504;41;000.172;MIDI 01
420.891;000.318;50;000.203;MIDI 01
421.198;000.336;41;000.234;MIDI 01
421.517;000.307;50;000.211;MIDI 01
420.868;001.353;53;000.312;MIDI 01
421.781;000.497;41;000.242;MIDI 01
422.164;000.511;48;000.234;MIDI 01
422.570;000.601;41;000.148;MIDI 01
423.034;000.471;48;000.289;MIDI 01
422.159;001.701;51;000.281;MIDI 01
420.852;003.018;57;000.359;MIDI 01
423.472;000.453;42;000.289;MIDI 01
423.796;000.292;48;000.266;MIDI 01
424.081;000.478;42;000.312;MIDI 01
424.420;000.335;49;000.328;MIDI 01
424.411;000.729;64;000.422;MIDI 01
424.418;000.768;52;000.328;MIDI 01
424.703;000.586;42;000.328;MIDI 01
425.045;000.471;51;000.359;MIDI 01
425.448;000.348;42;000.297;MIDI 01
425.750;000.308;51;000.227;MIDI 01
425.072;001.395;54;000.328;MIDI 01
426.067;000.457;42;000.180;MIDI 01
426.367;000.436;49;000.242;MIDI 01
426.729;000.465;42;000.180;MIDI 01
427.096;000.391;49;000.258;MIDI 01
425.058;002.660;58;000.398;MIDI 01
426.371;001.394;52;000.242;MIDI 01
427.456;000.327;43;000.188;MIDI 01
427.739;000.298;49;000.273;MIDI 01
427.996;000.440;43;000.289;MIDI 01
428.347;000.443;50;000.273;MIDI 01
428.351;000.683;65;000.398;MIDI 01
428.349;000.750;53;000.352;MIDI 01
428.762;000.627;43;000.273;MIDI 01
429.111;000.502;52;000.336;MIDI 01
429.125;000.592;55;000.297;MIDI 01
429.103;000.711;59;000.336;MIDI 01
429.565;000.349;43;000.297;MIDI 01
429.847;000.336;52;000.297;MIDI 01
430.141;000.498;43;000.297;MIDI 01
430.480;000.352;65;000.453;MIDI 01
430.470;000.392;50;000.352;MIDI 01
430.480;000.474;53;000.398;MIDI 01
430.828;000.559;43;000.312;MIDI 01
431.171;000.423;52;000.336;MIDI 01
431.194;000.511;55;000.352;MIDI 01
431.156;000.596;59;000.375;MIDI 01
431.549;000.304;43;000.430;MIDI 01
431.818;000.286;52;000.398;MIDI 01
432.104;000.466;43;000.430;MIDI 01
432.401;000.372;53;000.406;MIDI 01
432.408;000.581;57;000.484;MIDI 01
432.414;000.594;69;000.523;MIDI 01
432.733;000.500;43;000.516;MIDI 01
433.050;000.377;55;000.438;MIDI 01
433.052;000.539;59;000.469;MIDI 01
433.068;000.574;62;000.461;MIDI 01
433.410;000.329;43;000.500;MIDI 01
433.663;000.284;55;000.516;MIDI 01
433.967;000.457;43;000.477;MIDI 01
434.289;000.332;57;000.547;MIDI 01
434.293;000.396;60;000.594;MIDI 01
434.291;000.572;72;000.641;MIDI 01
434.603;000.464;43;000.508;MIDI 01
434.909;000.283;59;000.516;MIDI 01
434.934;000.540;62;000.531;MIDI 01
435.245;000.269;43;000.539;MIDI 01
434.926;000.596;65;000.547;MIDI 01
435.506;000.100;59;000.555;MIDI 01
435.754;000.076;43;000.578;MIDI 01
436.041;000.086;60;000.594;MIDI 01
436.326;000.048;43;000.539;MIDI 01
436.043;000.431;64;000.648;MIDI 01
436.042;000.572;76;000.695;MIDI 01
436.641;000.108;62;000.594;MIDI 01
436.930;000.036;43;000.586;MIDI 01
436.639;000.351;65;000.594;MIDI 01
436.635;000.415;69;000.594;MIDI 01
437.189;000.052;62;000.594;MIDI 01
437.452;000.060;43;000.586;MIDI 01
437.736;000.043;62;000.586;MIDI 01
437.734;000.281;65;000.680;MIDI 01
438.038;000.046;43;000.602;MIDI 01
437.728;000.369;69;000.656;MIDI 01
437.730;000.371;77;000.688;MIDI 01
438.368;000.061;62;000.617;MIDI 01
438.382;000.081;55;000.609;MIDI 01
438.376;000.098;53;000.562;MIDI 01
438.654;000.050;43;000.617;MIDI 01
438.913;000.061;62;000.641;MIDI 01
438.915;000.083;55;000.656;MIDI 01
438.913;000.096;53;000.602;MIDI 01
439.184;000.073;43;000.672;MIDI 01
439.470;000.051;62;000.688;MIDI 01
439.472;000.062;55;000.656;MIDI 01
439.474;000.081;53;000.633;MIDI 01
438.371;001.217;65;000.672;MIDI 01
438.361;001.271;71;000.672;MIDI 01
438.360;001.322;77;000.703;MIDI 01
439.765;000.023;43;000.625;MIDI 01
439.768;000.043;45;000.570;MIDI 01
440.090;000.058;64;000.727;MIDI 01
440.108;000.073;60;000.641;MIDI 01
440.097;000.109;55;000.648;MIDI 01
440.106;000.108;52;000.672;MIDI 01
440.425;000.041;36;000.656;MIDI 01
440.431;000.036;50;000.648;MIDI 01
440.427;000.047;48;000.641;MIDI 01
440.461;000.039;38;000.469;MIDI 01
440.773;000.044;64;000.742;MIDI 01
440.780;000.072;60;000.672;MIDI 01
440.778;000.101;55;000.656;MIDI 01
440.775;000.126;52;000.664;MIDI 01
441.168;000.056;36;000.742;MIDI 01
441.163;000.104;48;000.742;MIDI 01
441.580;000.088;64;000.781;MIDI 01
441.592;000.113;60;000.695;MIDI 01
441.590;000.141;55;000.633;MIDI 01
441.583;000.170;52;000.703;MIDI 01
442.215;000.021;43;000.375;MIDI 01
440.093;002.281;70;000.742;MIDI 01
442.163;000.228;48;000.789;MIDI 01
440.101;002.314;67;000.680;MIDI 01
440.095;002.350;76;000.711;MIDI 01
442.167;000.297;36;000.734;MIDI 01
440.099;002.394;79;000.742;MIDI 01
443.216;000.075;29;000.727;MIDI 01
443.214;000.119;41;000.766;MIDI 01
444.065;000.044;65;000.711;MIDI 01
444.060;000.060;72;000.711;MIDI 01
444.067;000.095;69;000.719;MIDI 01
444.069;000.098;60;000.648;MIDI 01
444.058;000.126;53;000.648;MIDI 01
444.062;000.205;81;000.781;MIDI 01
444.628;000.097;79;000.609;MIDI 01
444.717;000.050;77;000.680;MIDI 01
444.834;000.193;46;000.750;MIDI 01
444.839;000.191;34;000.711;MIDI 01
444.832;000.435;79;000.688;MIDI 01
444.820;000.453;77;000.625;MIDI 01
444.827;000.460;74;000.727;MIDI 01
444.825;000.464;86;000.766;MIDI 01
445.334;000.042;45;000.742;MIDI 01
445.347;000.037;33;000.641;MIDI 01
445.451;000.027;43;000.766;MIDI 01
445.465;000.024;31;000.680;MIDI 01
445.592;000.335;55;000.734;MIDI 01
445.594;000.377;43;000.719;MIDI 01
445.973;000.024;79;000.594;MIDI 01
445.965;000.048;77;000.664;MIDI 01
445.971;000.071;74;000.719;MIDI 01
445.969;000.079;86;000.758;MIDI 01
445.967;000.110;82;000.672;MIDI 01
446.395;000.149;52;000.750;MIDI 01
446.402;000.154;40;000.727;MIDI 01
446.777;000.025;88;000.562;MIDI 01
446.779;000.029;79;000.453;MIDI 01
446.770;000.072;86;000.586;MIDI 01
446.775;000.069;76;000.594;MIDI 01
446.770;000.076;82;000.641;MIDI 01
446.773;000.074;74;000.625;MIDI 01
446.927;000.035;50;000.688;MIDI 01
446.945;000.039;38;000.570;MIDI 01
447.036;000.034;36;000.711;MIDI 01
447.033;000.052;48;000.773;MIDI 01
447.195;000.027;60;000.758;MIDI 01
447.207;000.022;48;000.742;MIDI 01
447.212;000.034;47;000.508;MIDI 01
447.201;000.098;84;000.766;MIDI 01
447.202;000.116;72;000.734;MIDI 01
447.198;000.136;76;000.781;MIDI 01
447.203;000.136;79;000.719;MIDI 01
447.629;000.103;82;000.727;MIDI 01
447.627;000.125;79;000.672;MIDI 01
447.623;000.154;70;000.750;MIDI 01
447.625;000.161;76;000.711;MIDI 01
447.996;000.065;53;000.758;MIDI 01
447.998;000.090;41;000.703;MIDI 01
448.520;000.038;51;000.664;MIDI 01
448.545;000.032;39;000.508;MIDI 01
448.636;000.028;37;000.688;MIDI 01
448.623;000.049;49;000.812;MIDI 01
448.773;000.025;61;000.766;MIDI 01
448.789;000.034;49;000.633;MIDI 01
448.762;000.122;77;000.641;MIDI 01
448.757;000.145;68;000.758;MIDI 01
448.765;000.143;80;000.727;MIDI 01
448.753;000.326;73;000.750;MIDI 01
449.253;000.037;66;000.570;MIDI 01
449.268;000.025;78;000.508;MIDI 01
449.365;000.012;65;000.594;MIDI 01
449.354;000.034;76;000.742;MIDI 01
449.468;000.100;46;000.773;MIDI 01
449.478;000.113;34;000.719;MIDI 01
449.491;000.375;78;000.688;MIDI 01
449.489;000.389;85;000.750;MIDI 01
449.493;000.445;90;000.820;MIDI 01
449.917;000.041;44;000.797;MIDI 01
449.946;000.029;32;000.562;MIDI 01
449.965;000.029;34;000.273;MIDI 01
450.057;000.002;30;000.484;MIDI 01
450.025;000.036;42;000.805;MIDI 01
450.188;000.002;44;000.516;MIDI 01
450.167;000.377;54;000.789;MIDI 01
450.531;000.030;82;000.719;MIDI 01
450.525;000.062;85;000.734;MIDI 01
450.529;000.061;94;000.766;MIDI 01
450.165;000.432;42;000.711;MIDI 01
450.527;000.076;90;000.734;MIDI 01
450.938;000.156;52;000.812;MIDI 01
450.942;000.155;40;000.750;MIDI 01
451.344;000.039;85;000.406;MIDI 01
451.317;000.080;84;000.586;MIDI 01
451.311;000.087;91;000.680;MIDI 01
451.324;000.097;82;000.570;MIDI 01
451.324;000.107;94;000.695;MIDI 01
451.458;000.039;50;000.695;MIDI 01
451.476;000.035;38;000.609;MIDI 01
451.587;000.020;36;000.711;MIDI 01
451.575;000.043;48;000.805;MIDI 01
451.703;000.042;60;000.875;MIDI 01
451.712;000.045;48;000.750;MIDI 01
451.757;000.024;36;000.023;MIDI 01
451.779;000.002;50;000.086;MIDI 01
451.673;000.110;84;000.688;MIDI 01
451.677;000.108;93;000.750;MIDI 01
451.679;000.115;88;000.703;MIDI 01
451.681;000.150;81;000.680;MIDI 01
452.211;000.145;91;000.789;MIDI 01
452.201;000.163;88;000.773;MIDI 01
452.197;000.206;82;000.742;MIDI 01
452.209;000.211;79;000.734;MIDI 01
452.767;000.002;82;000.336;MIDI 01
452.776;000.055;33;000.312;MIDI 01
452.724;000.136;29;000.711;MIDI 01
452.725;000.183;41;000.766;MIDI 01
452.732;000.191;84;000.688;MIDI 01
452.728;000.243;81;000.688;MIDI 01
452.734;000.283;77;000.711;MIDI 01
452.730;000.317;89;000.828;MIDI 01
453.221;000.060;89;000.734;MIDI 01
453.271;000.027;86;000.320;MIDI 01
453.215;000.107;85;000.758;MIDI 01
453.226;000.102;77;000.773;MIDI 01
453.224;000.117;33;000.680;MIDI 01
453.228;000.133;45;000.750;MIDI 01
453.618;000.002;78;000.469;MIDI 01
453.589;000.035;86;000.695;MIDI 01
453.615;000.027;44;000.516;MIDI 01
453.584;000.061;77;000.656;MIDI 01
453.578;000.072;34;000.664;MIDI 01
453.591;000.067;46;000.750;MIDI 01
453.593;000.067;74;000.664;MIDI 01
453.586;000.099;82;000.672;MIDI 01
453.961;000.028;80;000.438;MIDI 01
453.927;000.109;82;000.719;MIDI 01
453.921;000.121;70;000.742;MIDI 01
453.918;000.126;38;000.672;MIDI 01
453.923;000.124;78;000.750;MIDI 01
453.920;000.148;50;000.742;MIDI 01
454.052;000.059;46;000.461;MIDI 01
454.354;000.083;79;000.742;MIDI 01
454.348;000.139;70;000.742;MIDI 01
454.351;000.137;67;000.695;MIDI 01
454.352;000.141;75;000.719;MIDI 01
454.350;000.213;51;000.734;MIDI 01
454.353;000.256;39;000.672;MIDI 01
454.764;000.116;67;000.680;MIDI 01
454.770;000.150;70;000.703;MIDI 01
454.771;000.155;40;000.695;MIDI 01
454.766;000.162;73;000.734;MIDI 01
454.769;000.196;61;000.750;MIDI 01
454.768;000.202;52;000.758;MIDI 01
455.271;000.055;53;000.734;MIDI 01
455.257;000.084;60;000.672;MIDI 01
455.269;000.087;41;000.695;MIDI 01
455.255;000.115;63;000.688;MIDI 01
455.261;000.135;69;000.680;MIDI 01
455.259;000.150;72;000.734;MIDI 01
456.086;000.002;78;000.352;MIDI 01
456.045;000.381;86;000.734;MIDI 01
456.041;000.401;34;000.617;MIDI 01
456.052;000.429;74;000.664;MIDI 01
456.055;000.432;41;000.570;MIDI 01
456.043;000.485;46;000.617;MIDI 01
456.047;000.508;82;000.680;MIDI 01
456.050;000.508;77;000.609;MIDI 01
457.619;000.316;64;000.391;MIDI 01
457.625;000.339;60;000.352;MIDI 01
457.621;000.379;70;000.375;MIDI 01
457.611;000.404;76;000.438;MIDI 01
457.628;000.414;55;000.359;MIDI 01
457.609;000.442;48;000.336;MIDI 01
459.201;000.474;86;000.664;MIDI 01
459.183;000.494;89;000.789;MIDI 01
459.199;000.532;77;000.680;MIDI 01
459.189;000.561;43;000.664;MIDI 01
459.181;000.592;31;000.688;MIDI 01
459.191;000.589;38;000.656;MIDI 01
459.193;000.616;82;000.633;MIDI 01
461.058;000.311;64;000.312;MIDI 01
461.060;000.320;60;000.344;MIDI 01
461.062;000.386;70;000.359;MIDI 01
461.045;000.445;76;000.484;MIDI 01
461.050;000.441;55;000.375;MIDI 01
461.048;000.484;48;000.352;MIDI 01
462.530;000.292;89;000.664;MIDI 01
462.534;000.329;82;000.633;MIDI 01
462.525;000.405;94;000.766;MIDI 01
462.521;000.497;38;000.672;MIDI 01
462.523;000.500;26;000.680;MIDI 01
463.368;000.159;27;000.711;MIDI 01
463.365;000.197;94;000.836;MIDI 01
463.371;000.199;91;000.750;MIDI 01
463.369;000.223;39;000.758;MIDI 01
463.370;000.266;82;000.734;MIDI 01
464.099;000.065;63;000.703;MIDI 01
464.116;000.071;67;000.570;MIDI 01
464.171;000.049;65;000.227;MIDI 01
464.101;000.122;70;000.781;MIDI 01
464.106;000.140;58;000.672;MIDI 01
464.097;000.178;51;000.664;MIDI 01
464.821;000.002;92;000.445;MIDI 01
464.802;000.273;82;000.797;MIDI 01
464.798;000.304;39;000.828;MIDI 01
464.804;000.330;27;000.719;MIDI 01
464.796;000.362;91;000.797;MIDI 01
464.800;000.360;94;000.805;MIDI 01
465.546;000.024;92;000.492;MIDI 01
465.579;000.002;31;000.180;MIDI 01
465.583;000.059;29;000.188;MIDI 01
465.525;000.120;24;000.789;MIDI 01
465.520;000.131;96;000.828;MIDI 01
465.514;000.145;36;000.773;MIDI 01
465.527;000.209;91;000.703;MIDI 01
465.523;000.217;94;000.797;MIDI 01
465.518;000.225;88;000.773;MIDI 01
465.521;000.257;84;000.789;MIDI 01
466.294;000.073;60;000.719;MIDI 01
466.290;000.081;64;000.727;MIDI 01
466.296;000.103;67;000.734;MIDI 01
466.356;000.049;51;000.062;MIDI 01
466.292;000.146;70;000.711;MIDI 01
466.285;000.153;72;000.758;MIDI 01
466.298;000.164;55;000.734;MIDI 01
466.288;000.204;48;000.734;MIDI 01
467.107;000.052;39;000.211;MIDI 01
467.042;000.120;48;000.812;MIDI 01
467.051;000.166;84;000.789;MIDI 01
467.045;000.207;36;000.727;MIDI 01
467.049;000.240;88;000.781;MIDI 01
467.055;000.278;91;000.734;MIDI 01
467.057;000.477;94;000.734;MIDI 01
467.047;000.516;96;000.766;MIDI 01
468.086;000.002;40;000.352;MIDI 01
468.053;000.244;29;000.734;MIDI 01
468.047;000.295;41;000.766;MIDI 01
468.051;000.301;101;000.836;MIDI 01
468.050;000.326;89;000.766;MIDI 01
468.049;000.359;93;000.758;MIDI 01
468.048;000.372;96;000.773;MIDI 01
468.657;000.110;93;000.711;MIDI 01
468.655;000.123;100;000.820;MIDI 01
468.651;000.134;96;000.719;MIDI 01
468.659;000.178;88;000.727;MIDI 01
468.653;000.200;33;000.695;MIDI 01
468.649;000.225;45;000.852;MIDI 01
469.118;000.018;90;000.586;MIDI 01
469.143;000.042;88;000.383;MIDI 01
469.104;000.111;98;000.844;MIDI 01
469.102;000.137;34;000.719;MIDI 01
469.098;000.149;89;000.734;MIDI 01
469.106;000.152;94;000.742;MIDI 01
469.108;000.153;86;000.727;MIDI 01
469.096;000.182;46;000.773;MIDI 01
469.529;000.104;96;000.773;MIDI 01
469.530;000.120;91;000.742;MIDI 01
469.527;000.128;88;000.773;MIDI 01
469.608;000.062;94;000.039;MIDI 01
469.536;000.145;36;000.695;MIDI 01
469.534;000.153;84;000.727;MIDI 01
469.532;000.169;48;000.781;MIDI 01
470.021;000.084;43;000.086;MIDI 01
469.976;000.132;93;000.836;MIDI 01
469.981;000.152;88;000.742;MIDI 01
469.978;000.200;81;000.797;MIDI 01
469.990;000.191;37;000.750;MIDI 01
469.983;000.206;49;000.812;MIDI 01
470.505;000.002;45;000.062;MIDI 01
470.494;000.051;41;000.242;MIDI 01
470.431;000.126;50;000.789;MIDI 01
470.439;000.142;89;000.820;MIDI 01
470.441;000.152;38;000.719;MIDI 01
470.430;000.188;81;000.742;MIDI 01
470.436;000.190;86;000.766;MIDI 01
470.443;000.235;77;000.820;MIDI 01
470.755;000.141;31;000.711;MIDI 01
470.887;000.050;43;000.797;MIDI 01
471.230;000.069;65;000.750;MIDI 01
471.234;000.076;55;000.648;MIDI 01
471.236;000.083;62;000.688;MIDI 01
471.241;000.085;58;000.672;MIDI 01
471.245;001.415;86;000.789;MIDI 01
471.247;001.417;77;000.789;MIDI 01
471.243;001.438;82;000.781;MIDI 01
471.248;001.471;74;000.805;MIDI 01
472.684;000.055;40;000.266;MIDI 01
472.632;000.184;36;000.742;MIDI 01
472.803;000.055;48;000.789;MIDI 01
473.205;000.002;61;000.203;MIDI 01
473.151;000.626;64;000.727;MIDI 01
473.156;000.804;60;000.641;MIDI 01
473.151;000.811;55;000.664;MIDI 01
473.155;000.827;58;000.672;MIDI 01
473.148;001.510;76;000.789;MIDI 01
473.153;001.522;72;000.750;MIDI 01
473.153;001.525;82;000.719;MIDI 01
473.154;001.534;79;000.688;MIDI 01
473.146;001.604;84;000.773;MIDI 01
474.653;000.209;29;000.750;MIDI 01
474.833;000.075;41;000.734;MIDI 01
475.300;001.469;65;000.688;MIDI 01
475.298;001.666;60;000.602;MIDI 01
475.301;001.674;57;000.625;MIDI 01
475.291;001.730;53;000.602;MIDI 01
475.284;002.165;89;000.773;MIDI 01
475.279;002.226;93;000.781;MIDI 01
475.286;002.278;81;000.742;MIDI 01
475.289;002.327;84;000.734;MIDI 01
477.652;000.128;29;000.688;MIDI 01
477.752;000.114;36;000.664;MIDI 01
477.866;000.062;41;000.641;MIDI 01
478.053;000.024;48;000.695;MIDI 01
478.049;001.326;84;000.711;MIDI 01
478.051;001.328;89;000.734;MIDI 01
478.045;001.391;93;000.852;MIDI 01
479.308;000.143;29;000.680;MIDI 01
478.048;001.418;81;000.766;MIDI 01
479.419;000.108;36;000.656;MIDI 01
479.534;000.071;41;000.672;MIDI 01
479.739;000.022;48;000.711;MIDI 01
479.858;000.026;48;000.180;MIDI 01
479.732;000.794;93;000.797;MIDI 01
479.734;000.911;89;000.773;MIDI 01
479.741;000.928;81;000.781;MIDI 01
479.736;000.960;84;000.742;MIDI 01
480.848;000.497;29;000.688;MIDI 01
481.150;000.231;36;000.688;MIDI 01
481.352;000.066;41;000.742;MIDI 01
481.574;000.101;48;000.734;MIDI 01
482.121;000.050;59;000.227;MIDI 01
482.341;000.053;88;000.039;MIDI 01
481.859;005.596;53;000.648;MIDI 01
482.252;005.205;93;000.820;MIDI 01
482.206;005.253;65;000.734;MIDI 01
482.258;005.210;81;000.781;MIDI 01
482.260;005.219;89;000.781;MIDI 01
481.953;005.540;57;000.570;MIDI 01
482.059;005.436;60;000.672;MIDI 01
482.256;005.242;84;000.742;MIDI 01
