Start;Duration;Pitch;Velocity;Instrument
000.927;001.441;59;000.289;MIDI 01
002.193;001.099;56;000.289;MIDI 01
003.102;000.501;47;000.180;MIDI 01
002.210;001.525;64;000.273;MIDI 01
003.529;000.585;63;000.359;MIDI 01
003.541;000.615;56;000.242;MIDI 01
003.966;000.507;64;000.367;MIDI 01
004.027;000.462;47;000.219;MIDI 01
002.208;002.422;40;000.297;MIDI 01
003.058;001.589;59;000.312;MIDI 01
004.537;000.842;57;000.227;MIDI 01
005.213;000.483;47;000.195;MIDI 01
005.162;000.681;59;000.281;MIDI 01
004.517;001.688;35;000.289;MIDI 01
005.688;000.579;57;000.250;MIDI 01
006.127;000.535;47;000.141;MIDI 01
006.078;000.679;59;000.227;MIDI 01
004.474;002.366;66;000.367;MIDI 01
004.515;002.370;63;000.344;MIDI 01
006.546;000.822;57;000.211;MIDI 01
007.152;000.326;68;000.352;MIDI 01
007.209;000.517;47;000.195;MIDI 01
007.166;000.802;59;000.172;MIDI 01
007.764;000.486;63;000.297;MIDI 01
007.724;000.552;68;000.359;MIDI 01
007.749;000.534;57;000.148;MIDI 01
008.171;000.425;66;000.375;MIDI 01
006.582;002.334;35;000.273;MIDI 01
008.202;000.719;47;000.195;MIDI 01
008.169;000.789;59;000.312;MIDI 01
008.771;000.893;56;000.242;MIDI 01
009.501;000.456;47;000.195;MIDI 01
009.471;000.629;59;000.266;MIDI 01
009.947;000.545;56;000.234;MIDI 01
008.795;001.789;40;000.273;MIDI 01
008.775;001.950;64;000.156;MIDI 01
010.369;000.522;59;000.242;MIDI 01
010.391;000.531;47;000.188;MIDI 01
008.743;002.215;68;000.352;MIDI 01
010.826;000.500;56;000.242;MIDI 01
011.330;000.340;69;000.344;MIDI 01
011.373;000.476;47;000.266;MIDI 01
011.375;000.508;64;000.188;MIDI 01
011.810;000.597;69;000.461;MIDI 01
011.821;000.667;59;000.367;MIDI 01
012.331;000.380;64;000.305;MIDI 01
012.318;000.879;68;000.398;MIDI 01
012.336;000.868;47;000.266;MIDI 01
010.817;002.406;40;000.219;MIDI 01
013.042;000.854;73;000.477;MIDI 01
013.056;000.969;63;000.336;MIDI 01
013.975;000.491;47;000.234;MIDI 01
013.081;001.722;35;000.273;MIDI 01
013.916;001.180;69;000.344;MIDI 01
014.841;000.314;71;000.367;MIDI 01
014.387;000.843;59;000.328;MIDI 01
014.858;000.764;47;000.195;MIDI 01
014.852;000.797;63;000.297;MIDI 01
015.511;000.642;69;000.344;MIDI 01
015.502;000.765;59;000.250;MIDI 01
016.113;000.173;64;000.219;MIDI 01
016.064;000.250;68;000.352;MIDI 01
016.139;000.524;47;000.242;MIDI 01
016.568;000.498;63;000.305;MIDI 01
016.570;000.646;56;000.305;MIDI 01
017.018;000.495;64;000.328;MIDI 01
017.021;000.561;47;000.234;MIDI 01
015.554;002.228;40;000.258;MIDI 01
017.570;000.772;61;000.312;MIDI 01
017.586;000.827;57;000.219;MIDI 01
018.223;000.466;63;000.289;MIDI 01
018.293;000.518;47;000.219;MIDI 01
018.245;000.621;59;000.211;MIDI 01
017.595;001.580;35;000.250;MIDI 01
018.689;000.559;61;000.320;MIDI 01
018.683;000.640;57;000.234;MIDI 01
019.142;000.526;47;000.164;MIDI 01
019.135;000.573;63;000.312;MIDI 01
017.527;002.227;66;000.367;MIDI 01
019.147;000.799;59;000.109;MIDI 01
019.569;000.427;61;000.344;MIDI 01
019.594;000.879;57;000.102;MIDI 01
020.202;000.322;68;000.367;MIDI 01
020.205;000.425;59;000.281;MIDI 01
020.208;000.774;63;000.297;MIDI 01
020.266;000.721;47;000.242;MIDI 01
020.805;000.250;57;000.258;MIDI 01
020.825;000.232;61;000.312;MIDI 01
020.762;000.633;68;000.305;MIDI 01
019.602;002.022;35;000.195;MIDI 01
021.411;000.345;66;000.305;MIDI 01
021.424;000.522;59;000.281;MIDI 01
021.461;000.918;47;000.227;MIDI 01
021.479;000.992;63;000.219;MIDI 01
022.253;000.882;56;000.211;MIDI 01
022.995;000.624;59;000.289;MIDI 01
023.025;000.688;47;000.234;MIDI 01
023.526;000.760;56;000.250;MIDI 01
024.136;000.207;59;000.266;MIDI 01
022.256;002.091;64;000.359;MIDI 01
024.170;000.302;47;000.125;MIDI 01
022.277;002.220;40;000.250;MIDI 01
024.981;000.810;62;000.297;MIDI 01
024.956;000.885;68;000.336;MIDI 01
025.681;000.559;52;000.211;MIDI 01
026.049;000.427;62;000.328;MIDI 01
026.036;000.455;66;000.430;MIDI 01
025.614;000.904;69;000.438;MIDI 01
026.459;000.591;52;000.227;MIDI 01
026.461;000.589;68;000.430;MIDI 01
025.009;002.068;40;000.273;MIDI 01
026.496;000.605;64;000.391;MIDI 01
026.972;000.616;61;000.352;MIDI 01
026.998;000.594;69;000.469;MIDI 01
027.467;000.491;64;000.281;MIDI 01
027.465;000.501;52;000.305;MIDI 01
027.410;000.616;71;000.516;MIDI 01
027.804;000.521;61;000.398;MIDI 01
027.785;000.594;68;000.484;MIDI 01
027.012;001.480;45;000.273;MIDI 01
028.224;000.570;52;000.250;MIDI 01
028.195;000.640;64;000.172;MIDI 01
028.182;000.790;69;000.570;MIDI 01
028.730;000.753;61;000.359;MIDI 01
029.373;000.689;64;000.344;MIDI 01
029.394;000.762;54;000.336;MIDI 01
028.701;001.711;73;000.562;MIDI 01
028.750;001.679;45;000.219;MIDI 01
029.913;000.545;61;000.305;MIDI 01
030.440;000.453;54;000.141;MIDI 01
030.403;000.544;64;000.344;MIDI 01
030.853;000.657;59;000.281;MIDI 01
029.872;001.788;66;000.461;MIDI 01
031.330;000.415;54;000.242;MIDI 01
031.299;000.498;64;000.383;MIDI 01
031.628;000.387;70;000.445;MIDI 01
031.699;000.470;59;000.242;MIDI 01
031.727;000.478;68;000.438;MIDI 01
032.118;000.455;54;000.266;MIDI 01
030.857;001.757;47;000.320;MIDI 01
032.084;000.968;66;000.430;MIDI 01
032.529;000.531;58;000.344;MIDI 01
032.961;000.428;54;000.297;MIDI 01
032.954;000.531;64;000.391;MIDI 01
033.259;000.458;70;000.414;MIDI 01
033.326;000.415;58;000.180;MIDI 01
033.332;000.521;68;000.391;MIDI 01
032.538;001.944;49;000.336;MIDI 01
033.793;000.767;54;000.266;MIDI 01
033.757;000.820;66;000.344;MIDI 01
034.438;000.533;57;000.148;MIDI 01
035.199;000.209;59;000.203;MIDI 01
035.254;000.708;54;000.188;MIDI 01
035.775;000.247;57;000.273;MIDI 01
034.406;002.163;71;000.336;MIDI 01
034.404;002.241;63;000.266;MIDI 01
034.480;002.281;47;000.258;MIDI 01
036.480;000.288;54;000.195;MIDI 01
036.422;000.389;59;000.219;MIDI 01
037.526;000.980;56;000.281;MIDI 01
037.540;001.056;64;000.219;MIDI 01
038.366;000.493;47;000.211;MIDI 01
037.501;001.521;68;000.258;MIDI 01
038.350;000.822;59;000.305;MIDI 01
038.906;000.721;56;000.078;MIDI 01
039.297;000.455;64;000.352;MIDI 01
039.330;000.585;47;000.227;MIDI 01
037.556;002.407;40;000.281;MIDI 01
039.841;000.747;57;000.242;MIDI 01
040.539;000.416;47;000.250;MIDI 01
040.513;000.578;59;000.289;MIDI 01
040.962;000.513;57;000.227;MIDI 01
039.839;001.663;35;000.234;MIDI 01
041.402;000.559;47;000.188;MIDI 01
041.386;000.585;59;000.281;MIDI 01
039.798;002.233;66;000.320;MIDI 01
038.856;003.203;63;000.344;MIDI 01
041.829;000.759;57;000.242;MIDI 01
042.425;000.304;68;000.312;MIDI 01
042.496;000.570;47;000.195;MIDI 01
042.436;000.671;59;000.289;MIDI 01
042.989;000.468;57;000.211;MIDI 01
042.938;000.601;68;000.391;MIDI 01
043.408;000.384;66;000.336;MIDI 01
043.423;000.756;47;000.219;MIDI 01
043.395;000.791;59;000.297;MIDI 01
041.833;002.355;35;000.219;MIDI 01
044.044;000.881;56;000.258;MIDI 01
044.795;000.474;47;000.141;MIDI 01
044.765;000.554;59;000.242;MIDI 01
045.210;000.487;56;000.266;MIDI 01
044.084;001.780;40;000.211;MIDI 01
044.082;001.919;64;000.211;MIDI 01
045.633;000.435;59;000.273;MIDI 01
045.645;000.510;47;000.203;MIDI 01
044.047;002.155;68;000.305;MIDI 01
046.061;000.711;56;000.211;MIDI 01
046.583;000.249;69;000.398;MIDI 01
046.616;000.419;64;000.203;MIDI 01
046.611;000.442;47;000.258;MIDI 01
047.018;000.503;69;000.445;MIDI 01
047.026;000.561;59;000.289;MIDI 01
047.521;000.176;64;000.195;MIDI 01
047.464;000.756;68;000.453;MIDI 01
047.508;000.741;47;000.273;MIDI 01
046.080;002.200;40;000.273;MIDI 01
048.100;000.897;73;000.453;MIDI 01
048.124;000.984;63;000.352;MIDI 01
049.024;000.440;47;000.211;MIDI 01
048.993;001.069;69;000.289;MIDI 01
049.931;000.251;71;000.383;MIDI 01
049.472;000.830;59;000.266;MIDI 01
048.149;002.241;35;000.242;MIDI 01
049.966;000.811;47;000.219;MIDI 01
049.939;000.872;63;000.289;MIDI 01
050.644;000.694;69;000.305;MIDI 01
050.634;000.860;59;000.281;MIDI 01
051.260;000.261;68;000.359;MIDI 01
051.317;000.399;47;000.211;MIDI 01
051.778;000.510;63;000.312;MIDI 01
051.811;000.673;56;000.258;MIDI 01
052.257;000.381;47;000.188;MIDI 01
052.223;000.473;64;000.359;MIDI 01
052.807;000.125;61;000.273;MIDI 01
050.699;002.309;40;000.234;MIDI 01
052.826;000.861;57;000.148;MIDI 01
053.487;000.540;63;000.258;MIDI 01
053.573;000.464;47;000.203;MIDI 01
053.514;000.602;59;000.172;MIDI 01
052.809;001.611;35;000.227;MIDI 01
053.935;000.542;61;000.359;MIDI 01
053.983;000.606;57;000.047;MIDI 01
054.408;000.533;47;000.188;MIDI 01
052.761;002.198;66;000.336;MIDI 01
054.383;000.617;63;000.305;MIDI 01
054.836;000.411;61;000.352;MIDI 01
054.841;000.792;57;000.039;MIDI 01
055.405;000.349;68;000.359;MIDI 01
055.428;000.426;63;000.297;MIDI 01
055.486;000.475;47;000.211;MIDI 01
055.450;000.528;59;000.289;MIDI 01
056.039;000.156;61;000.281;MIDI 01
056.014;000.240;57;000.258;MIDI 01
054.869;001.410;35;000.250;MIDI 01
055.954;000.682;68;000.305;MIDI 01
056.535;000.296;66;000.336;MIDI 01
056.547;000.410;59;000.258;MIDI 01
056.611;000.933;47;000.188;MIDI 01
056.595;000.987;63;000.258;MIDI 01
057.408;001.011;56;000.250;MIDI 01
058.242;000.516;47;000.156;MIDI 01
058.201;000.680;59;000.211;MIDI 01
058.772;000.715;56;000.172;MIDI 01
059.325;000.179;59;000.156;MIDI 01
057.390;002.127;64;000.273;MIDI 01
057.407;002.163;40;000.250;MIDI 01
059.370;000.215;47;000.156;MIDI 01
060.304;000.567;62;000.258;MIDI 01
060.295;000.698;71;000.258;MIDI 01
060.316;001.079;66;000.242;MIDI 01
061.184;000.264;64;000.141;MIDI 01
061.150;000.310;73;000.352;MIDI 01
061.188;000.562;52;000.297;MIDI 01
061.717;000.208;73;000.398;MIDI 01
061.749;000.222;62;000.195;MIDI 01
062.206;000.231;64;000.266;MIDI 01
062.184;000.373;68;000.273;MIDI 01
061.773;000.941;66;000.242;MIDI 01
060.337;002.383;40;000.258;MIDI 01
062.181;000.587;71;000.359;MIDI 01
062.216;000.623;52;000.227;MIDI 01
062.689;000.582;69;000.422;MIDI 01
062.721;000.629;61;000.320;MIDI 01
063.244;000.390;52;000.281;MIDI 01
063.296;000.395;64;000.195;MIDI 01
063.191;000.763;71;000.453;MIDI 01
063.600;000.434;61;000.352;MIDI 01
063.596;000.475;68;000.422;MIDI 01
063.990;000.085;64;000.344;MIDI 01
063.977;000.132;69;000.445;MIDI 01
062.719;001.535;45;000.312;MIDI 01
064.019;000.308;52;000.281;MIDI 01
064.573;000.367;66;000.234;MIDI 01
064.531;000.814;75;000.398;MIDI 01
064.575;000.814;72;000.297;MIDI 01
065.154;000.246;68;000.383;MIDI 01
065.126;000.280;76;000.508;MIDI 01
065.196;000.502;56;000.258;MIDI 01
065.593;000.174;66;000.344;MIDI 01
065.600;000.208;70;000.398;MIDI 01
065.975;000.188;68;000.406;MIDI 01
065.978;000.190;72;000.453;MIDI 01
065.558;000.765;76;000.539;MIDI 01
066.015;000.436;56;000.320;MIDI 01
065.955;000.503;75;000.523;MIDI 01
064.579;002.098;44;000.297;MIDI 01
066.366;000.617;73;000.492;MIDI 01
066.373;000.658;64;000.430;MIDI 01
066.796;000.440;56;000.375;MIDI 01
066.795;000.491;75;000.492;MIDI 01
067.203;000.153;64;000.383;MIDI 01
066.798;000.576;68;000.477;MIDI 01
067.200;000.227;72;000.500;MIDI 01
067.675;000.127;68;000.352;MIDI 01
066.404;001.453;49;000.352;MIDI 01
067.714;000.148;56;000.297;MIDI 01
067.691;000.182;64;000.289;MIDI 01
067.656;000.318;73;000.469;MIDI 01
068.252;000.211;64;000.312;MIDI 01
068.241;000.238;76;000.438;MIDI 01
068.287;000.288;58;000.297;MIDI 01
068.295;000.282;54;000.219;MIDI 01
068.254;000.324;49;000.320;MIDI 01
068.247;000.333;70;000.367;MIDI 01
068.280;000.317;52;000.266;MIDI 01
068.792;000.199;78;000.531;MIDI 01
068.832;000.161;66;000.352;MIDI 01
068.802;000.232;52;000.297;MIDI 01
068.805;000.232;70;000.352;MIDI 01
068.880;000.175;58;000.109;MIDI 01
068.821;000.240;49;000.234;MIDI 01
068.835;000.236;54;000.227;MIDI 01
069.226;000.181;49;000.359;MIDI 01
069.253;000.156;58;000.305;MIDI 01
069.236;000.198;54;000.336;MIDI 01
069.251;000.192;63;000.430;MIDI 01
069.240;000.205;52;000.367;MIDI 01
069.228;000.237;70;000.461;MIDI 01
069.223;000.251;75;000.555;MIDI 01
069.655;000.102;64;000.484;MIDI 01
069.640;000.171;76;000.594;MIDI 01
069.664;000.156;58;000.398;MIDI 01
069.644;000.193;54;000.383;MIDI 01
069.649;000.197;52;000.398;MIDI 01
069.646;000.202;70;000.516;MIDI 01
069.642;000.235;49;000.398;MIDI 01
070.129;000.271;54;000.391;MIDI 01
070.127;000.284;48;000.422;MIDI 01
070.122;000.295;70;000.531;MIDI 01
070.124;000.303;66;000.516;MIDI 01
070.105;000.324;78;000.617;MIDI 01
070.133;000.312;58;000.375;MIDI 01
070.156;000.292;52;000.320;MIDI 01
070.596;000.224;80;000.633;MIDI 01
070.595;000.226;48;000.438;MIDI 01
070.597;000.229;58;000.406;MIDI 01
070.620;000.208;52;000.398;MIDI 01
070.598;000.247;54;000.422;MIDI 01
070.603;000.246;68;000.523;MIDI 01
070.599;000.259;70;000.539;MIDI 01
071.060;000.131;64;000.531;MIDI 01
071.051;000.196;76;000.617;MIDI 01
071.074;000.200;48;000.461;MIDI 01
071.076;000.211;52;000.414;MIDI 01
071.066;000.226;58;000.500;MIDI 01
071.045;000.250;70;000.531;MIDI 01
071.057;000.246;54;000.461;MIDI 01
071.567;000.218;66;000.531;MIDI 01
071.553;000.258;78;000.609;MIDI 01
071.604;000.216;52;000.383;MIDI 01
071.571;000.252;70;000.523;MIDI 01
071.588;000.237;58;000.461;MIDI 01
071.590;000.248;54;000.422;MIDI 01
071.595;000.302;48;000.453;MIDI 01
072.448;001.280;68;000.492;MIDI 01
073.551;000.668;71;000.312;MIDI 01
074.119;000.514;68;000.367;MIDI 01
072.423;002.561;80;000.617;MIDI 01
074.566;000.552;71;000.422;MIDI 01
075.002;000.532;68;000.398;MIDI 01
072.469;003.133;76;000.445;MIDI 01
075.494;000.807;78;000.594;MIDI 01
076.120;000.430;76;000.531;MIDI 01
076.167;000.445;68;000.250;MIDI 01
072.456;004.203;56;000.422;MIDI 01
072.467;004.226;59;000.406;MIDI 01
076.560;000.575;73;000.523;MIDI 01
075.521;001.668;71;000.422;MIDI 01
072.479;004.754;52;000.367;MIDI 01
072.463;005.034;47;000.367;MIDI 01
077.140;000.617;63;000.367;MIDI 01
077.741;000.354;66;000.367;MIDI 01
077.749;000.409;59;000.273;MIDI 01
078.141;000.514;63;000.289;MIDI 01
077.149;001.607;54;000.336;MIDI 01
077.125;001.648;75;000.469;MIDI 01
078.601;000.378;59;000.250;MIDI 01
078.604;000.648;66;000.359;MIDI 01
079.173;000.084;64;000.312;MIDI 01
078.165;001.110;47;000.250;MIDI 01
079.261;000.801;64;000.047;MIDI 01
079.819;000.469;75;000.508;MIDI 01
079.154;001.135;76;000.500;MIDI 01
079.189;001.185;49;000.336;MIDI 01
079.859;000.568;56;000.312;MIDI 01
079.830;000.696;68;000.383;MIDI 01
080.243;000.442;73;000.523;MIDI 01
080.229;000.532;64;000.398;MIDI 01
080.744;000.511;56;000.336;MIDI 01
080.681;000.669;68;000.461;MIDI 01
080.284;001.496;44;000.320;MIDI 01
081.228;000.736;59;000.312;MIDI 01
081.795;000.405;63;000.383;MIDI 01
081.829;000.478;56;000.258;MIDI 01
081.255;001.296;51;000.320;MIDI 01
081.200;001.520;71;000.516;MIDI 01
082.207;000.656;59;000.359;MIDI 01
082.735;000.183;56;000.289;MIDI 01
082.253;000.886;44;000.266;MIDI 01
082.718;000.774;63;000.312;MIDI 01
083.365;000.517;73;000.398;MIDI 01
083.376;000.924;61;000.344;MIDI 01
084.091;000.542;71;000.391;MIDI 01
084.132;000.533;52;000.273;MIDI 01
084.612;000.706;69;000.406;MIDI 01
084.636;000.751;61;000.195;MIDI 01
085.242;000.796;64;000.312;MIDI 01
085.296;000.900;52;000.250;MIDI 01
083.405;002.827;45;000.320;MIDI 01
084.633;002.032;40;000.312;MIDI 01
086.061;000.900;56;000.242;MIDI 01
086.804;000.655;59;000.281;MIDI 01
086.817;000.686;52;000.195;MIDI 01
087.393;000.571;56;000.258;MIDI 01
086.105;001.891;47;000.289;MIDI 01
087.838;000.486;59;000.250;MIDI 01
087.893;000.514;52;000.195;MIDI 01
087.432;001.201;40;000.219;MIDI 01
088.303;000.467;56;000.227;MIDI 01
088.758;000.496;59;000.258;MIDI 01
088.328;001.068;47;000.180;MIDI 01
088.767;000.818;52;000.227;MIDI 01
086.043;003.758;68;000.320;MIDI 01
089.211;000.634;56;000.211;MIDI 01
089.733;000.684;59;000.273;MIDI 01
090.644;000.417;66;000.273;MIDI 01
090.292;000.953;68;000.289;MIDI 01
090.310;002.629;56;000.211;MIDI 01
091.008;001.946;64;000.281;MIDI 01
089.254;003.965;40;000.195;MIDI 01
090.365;002.869;52;000.266;MIDI 01
089.822;003.505;47;000.188;MIDI 01
094.235;000.713;76;000.328;MIDI 01
094.229;000.740;68;000.297;MIDI 01
094.895;000.423;66;000.156;MIDI 01
094.868;000.465;75;000.359;MIDI 01
095.236;000.176;76;000.414;MIDI 01
095.243;000.305;68;000.266;MIDI 01
095.527;000.259;71;000.383;MIDI 01
095.543;000.293;63;000.336;MIDI 01
095.786;000.066;42;000.250;MIDI 01
095.784;000.257;75;000.430;MIDI 01
095.819;000.227;66;000.258;MIDI 01
096.064;000.050;58;000.273;MIDI 01
096.051;000.094;64;000.336;MIDI 01
096.053;000.159;73;000.414;MIDI 01
096.268;000.056;42;000.391;MIDI 01
096.282;000.096;75;000.414;MIDI 01
096.339;000.211;66;000.281;MIDI 01
096.528;000.029;59;000.328;MIDI 01
096.545;000.070;63;000.273;MIDI 01
096.537;000.166;68;000.375;MIDI 01
096.744;000.030;42;000.422;MIDI 01
096.771;000.049;64;000.344;MIDI 01
096.766;000.299;71;000.375;MIDI 01
097.031;000.309;70;000.461;MIDI 01
097.037;000.355;61;000.398;MIDI 01
097.349;000.283;68;000.273;MIDI 01
097.347;000.367;59;000.344;MIDI 01
097.661;000.062;58;000.359;MIDI 01
097.314;000.428;73;000.453;MIDI 01
097.671;000.427;66;000.383;MIDI 01
098.098;000.165;64;000.273;MIDI 01
098.017;000.355;70;000.367;MIDI 01
098.105;000.428;68;000.344;MIDI 01
098.533;000.047;63;000.203;MIDI 01
098.494;000.323;66;000.398;MIDI 01
098.531;000.296;54;000.258;MIDI 01
098.095;001.070;47;000.250;MIDI 01
098.716;000.449;70;000.367;MIDI 01
098.799;000.391;68;000.391;MIDI 01
098.805;000.480;59;000.281;MIDI 01
099.179;000.226;66;000.344;MIDI 01
099.189;000.595;63;000.281;MIDI 01
099.815;000.524;76;000.328;MIDI 01
099.818;000.621;68;000.281;MIDI 01
100.305;000.306;75;000.359;MIDI 01
100.327;000.368;66;000.297;MIDI 01
100.616;000.093;76;000.430;MIDI 01
100.624;000.267;68;000.289;MIDI 01
100.875;000.224;71;000.438;MIDI 01
100.877;000.248;63;000.383;MIDI 01
101.107;000.045;42;000.328;MIDI 01
101.140;000.073;66;000.281;MIDI 01
101.114;000.210;75;000.430;MIDI 01
101.345;000.044;58;000.422;MIDI 01
101.357;000.080;64;000.406;MIDI 01
101.359;000.154;73;000.438;MIDI 01
101.567;000.044;42;000.438;MIDI 01
101.576;000.117;75;000.508;MIDI 01
101.612;000.120;66;000.359;MIDI 01
101.798;000.035;59;000.453;MIDI 01
101.826;000.045;63;000.367;MIDI 01
101.823;000.151;68;000.422;MIDI 01
102.035;000.038;42;000.375;MIDI 01
102.037;000.061;64;000.398;MIDI 01
102.045;000.222;71;000.445;MIDI 01
102.310;000.279;70;000.469;MIDI 01
102.325;000.273;61;000.383;MIDI 01
102.595;000.319;68;000.312;MIDI 01
102.599;000.358;59;000.312;MIDI 01
102.927;000.098;58;000.320;MIDI 01
102.556;000.558;73;000.492;MIDI 01
102.930;000.396;66;000.367;MIDI 01
103.357;000.082;64;000.172;MIDI 01
103.261;000.308;70;000.406;MIDI 01
103.336;000.422;68;000.375;MIDI 01
103.771;000.055;63;000.164;MIDI 01
103.713;000.300;66;000.383;MIDI 01
103.768;000.283;54;000.289;MIDI 01
103.960;000.289;70;000.391;MIDI 01
103.339;001.004;47;000.266;MIDI 01
104.050;000.414;59;000.289;MIDI 01
104.027;000.448;68;000.383;MIDI 01
104.422;000.269;66;000.375;MIDI 01
104.421;000.440;63;000.250;MIDI 01
105.078;000.522;78;000.422;MIDI 01
105.093;000.547;69;000.367;MIDI 01
105.516;000.272;76;000.438;MIDI 01
105.548;000.429;68;000.312;MIDI 01
105.792;000.188;78;000.484;MIDI 01
105.862;000.207;69;000.141;MIDI 01
106.085;000.118;64;000.367;MIDI 01
106.305;000.064;44;000.289;MIDI 01
106.080;000.319;73;000.453;MIDI 01
106.321;000.214;76;000.414;MIDI 01
106.596;000.043;60;000.320;MIDI 01
106.364;000.281;68;000.305;MIDI 01
106.578;000.073;66;000.383;MIDI 01
106.583;000.151;75;000.430;MIDI 01
106.798;000.043;44;000.398;MIDI 01
106.802;000.131;76;000.492;MIDI 01
107.020;000.050;61;000.500;MIDI 01
107.062;000.044;64;000.203;MIDI 01
106.812;000.381;68;000.367;MIDI 01
107.040;000.215;70;000.461;MIDI 01
107.248;000.051;44;000.430;MIDI 01
107.300;000.298;66;000.367;MIDI 01
107.275;000.325;73;000.516;MIDI 01
107.533;000.369;72;000.539;MIDI 01
107.828;000.296;75;000.531;MIDI 01
107.535;000.603;63;000.430;MIDI 01
107.881;000.280;69;000.352;MIDI 01
107.851;000.435;61;000.430;MIDI 01
108.167;000.137;60;000.422;MIDI 01
108.156;000.365;68;000.492;MIDI 01
108.520;000.404;71;000.430;MIDI 01
108.596;000.406;69;000.445;MIDI 01
108.920;000.084;64;000.359;MIDI 01
108.894;000.267;68;000.484;MIDI 01
108.929;000.322;56;000.359;MIDI 01
108.557;000.754;49;000.359;MIDI 01
109.199;000.267;61;000.414;MIDI 01
109.132;000.441;71;000.422;MIDI 01
109.201;000.401;69;000.438;MIDI 01
109.521;000.207;68;000.367;MIDI 01
109.533;000.274;64;000.406;MIDI 01
110.075;000.433;78;000.453;MIDI 01
110.094;000.518;69;000.391;MIDI 01
110.458;000.192;76;000.508;MIDI 01
110.481;000.232;68;000.414;MIDI 01
110.722;000.160;78;000.555;MIDI 01
110.768;000.216;69;000.453;MIDI 01
110.984;000.167;64;000.469;MIDI 01
110.967;000.260;73;000.547;MIDI 01
111.199;000.057;44;000.359;MIDI 01
111.191;000.227;76;000.562;MIDI 01
111.206;000.231;68;000.438;MIDI 01
111.477;000.041;60;000.273;MIDI 01
111.467;000.104;66;000.461;MIDI 01
111.455;000.150;75;000.523;MIDI 01
111.666;000.046;44;000.492;MIDI 01
111.695;000.098;68;000.484;MIDI 01
111.670;000.125;76;000.586;MIDI 01
111.889;000.043;61;000.531;MIDI 01
111.919;000.051;64;000.227;MIDI 01
111.911;000.222;70;000.500;MIDI 01
112.132;000.032;44;000.438;MIDI 01
112.146;000.254;66;000.492;MIDI 01
112.140;000.310;73;000.570;MIDI 01
112.407;000.307;72;000.594;MIDI 01
112.440;000.361;63;000.445;MIDI 01
112.668;000.281;75;000.562;MIDI 01
112.700;000.294;69;000.438;MIDI 01
112.704;000.351;61;000.383;MIDI 01
112.994;000.083;60;000.398;MIDI 01
112.989;000.327;68;000.508;MIDI 01
113.402;000.049;66;000.211;MIDI 01
113.329;000.310;71;000.453;MIDI 01
113.376;000.358;69;000.508;MIDI 01
113.721;000.084;64;000.352;MIDI 01
113.357;000.579;49;000.398;MIDI 01
113.702;000.259;68;000.430;MIDI 01
113.717;000.321;56;000.367;MIDI 01
113.982;000.152;71;000.406;MIDI 01
114.059;000.229;61;000.336;MIDI 01
114.055;000.327;69;000.445;MIDI 01
114.441;000.050;64;000.219;MIDI 01
114.386;000.248;49;000.312;MIDI 01
114.379;000.309;68;000.422;MIDI 01
114.773;000.049;66;000.297;MIDI 01
114.760;000.115;47;000.375;MIDI 01
114.736;000.369;71;000.375;MIDI 01
114.780;000.335;69;000.422;MIDI 01
115.061;000.068;64;000.477;MIDI 01
115.068;000.164;62;000.477;MIDI 01
115.040;000.308;68;000.516;MIDI 01
115.382;000.392;66;000.469;MIDI 01
115.410;000.385;52;000.398;MIDI 01
115.702;000.154;68;000.461;MIDI 01
115.369;000.500;69;000.594;MIDI 01
115.725;000.219;47;000.469;MIDI 01
115.706;000.564;71;000.594;MIDI 01
116.723;000.095;61;000.375;MIDI 01
116.692;000.146;64;000.406;MIDI 01
116.746;000.185;52;000.203;MIDI 01
116.202;000.889;45;000.430;MIDI 01
116.219;000.900;69;000.477;MIDI 01
116.197;000.950;73;000.594;MIDI 01
117.023;000.470;66;000.469;MIDI 01
117.369;000.211;69;000.414;MIDI 01
117.344;000.242;73;000.578;MIDI 01
117.029;000.800;52;000.336;MIDI 01
117.025;000.843;62;000.422;MIDI 01
118.147;000.051;62;000.305;MIDI 01
118.119;000.090;66;000.422;MIDI 01
118.151;000.087;52;000.328;MIDI 01
117.746;000.523;68;000.500;MIDI 01
117.388;001.028;40;000.367;MIDI 01
117.742;000.760;71;000.555;MIDI 01
118.719;000.234;71;000.508;MIDI 01
118.753;000.224;68;000.383;MIDI 01
118.416;000.740;64;000.484;MIDI 01
118.744;000.467;40;000.336;MIDI 01
117.754;001.621;47;000.391;MIDI 01
118.430;001.020;52;000.344;MIDI 01
118.418;001.103;62;000.367;MIDI 01
119.773;000.113;64;000.297;MIDI 01
119.811;000.099;52;000.281;MIDI 01
119.795;000.118;60;000.305;MIDI 01
119.371;000.819;72;000.352;MIDI 01
120.389;000.092;72;000.438;MIDI 01
119.342;001.196;69;000.297;MIDI 01
120.125;000.576;65;000.375;MIDI 01
120.122;000.618;52;000.320;MIDI 01
120.126;000.697;62;000.344;MIDI 01
120.727;000.220;68;000.289;MIDI 01
121.029;000.057;65;000.305;MIDI 01
121.031;000.065;62;000.320;MIDI 01
120.442;000.667;40;000.234;MIDI 01
121.065;000.072;52;000.320;MIDI 01
120.719;000.634;71;000.414;MIDI 01
121.314;000.267;64;000.398;MIDI 01
121.593;000.091;71;000.461;MIDI 01
121.627;000.062;68;000.406;MIDI 01
121.605;000.095;64;000.133;MIDI 01
121.638;000.104;40;000.406;MIDI 01
121.297;000.461;62;000.383;MIDI 01
119.369;002.421;45;000.250;MIDI 01
120.729;001.068;47;000.297;MIDI 01
121.330;000.495;52;000.352;MIDI 01
122.143;000.305;43;000.500;MIDI 01
122.146;000.307;64;000.508;MIDI 01
122.141;000.319;61;000.555;MIDI 01
122.148;000.350;71;000.500;MIDI 01
122.145;000.360;55;000.484;MIDI 01
122.134;000.399;73;000.633;MIDI 01
122.964;000.377;55;000.188;MIDI 01
122.961;000.405;59;000.305;MIDI 01
123.301;000.073;61;000.375;MIDI 01
123.323;000.059;64;000.219;MIDI 01
123.321;000.072;67;000.258;MIDI 01
123.323;000.101;71;000.383;MIDI 01
122.968;000.475;73;000.359;MIDI 01
122.952;000.493;76;000.414;MIDI 01
123.610;000.280;64;000.328;MIDI 01
123.591;000.307;73;000.477;MIDI 01
123.846;000.059;76;000.516;MIDI 01
123.826;000.093;61;000.531;MIDI 01
123.615;000.309;71;000.359;MIDI 01
123.593;000.333;67;000.414;MIDI 01
123.839;000.103;79;000.500;MIDI 01
124.072;000.155;83;000.578;MIDI 01
124.092;000.234;64;000.375;MIDI 01
124.098;000.230;61;000.516;MIDI 01
124.108;000.222;79;000.430;MIDI 01
124.325;000.032;73;000.500;MIDI 01
124.339;000.025;71;000.375;MIDI 01
124.323;000.051;76;000.500;MIDI 01
124.331;000.058;67;000.203;MIDI 01
124.541;000.239;76;000.516;MIDI 01
124.778;000.035;64;000.344;MIDI 01
124.545;000.273;79;000.461;MIDI 01
124.537;000.285;71;000.406;MIDI 01
124.775;000.050;67;000.461;MIDI 01
124.532;000.295;73;000.570;MIDI 01
124.764;000.068;83;000.414;MIDI 01
124.760;000.118;85;000.602;MIDI 01
125.000;000.254;67;000.484;MIDI 01
124.996;000.292;71;000.508;MIDI 01
125.245;000.071;79;000.609;MIDI 01
125.250;000.080;76;000.562;MIDI 01
125.235;000.098;73;000.570;MIDI 01
125.241;000.095;83;000.609;MIDI 01
125.006;000.339;85;000.586;MIDI 01
124.993;000.359;88;000.672;MIDI 01
125.497;000.334;79;000.547;MIDI 01
125.490;000.351;83;000.609;MIDI 01
125.787;000.065;88;000.625;MIDI 01
125.492;000.366;85;000.633;MIDI 01
125.775;000.091;91;000.617;MIDI 01
125.501;000.369;76;000.500;MIDI 01
125.818;000.096;71;000.500;MIDI 01
125.797;000.138;73;000.547;MIDI 01
126.356;000.206;54;000.414;MIDI 01
126.352;000.230;70;000.492;MIDI 01
126.361;000.223;64;000.406;MIDI 01
126.354;000.233;61;000.445;MIDI 01
126.333;000.324;79;000.625;MIDI 01
126.805;000.149;70;000.523;MIDI 01
126.778;000.204;61;000.492;MIDI 01
126.792;000.197;54;000.414;MIDI 01
126.783;000.225;64;000.484;MIDI 01
126.781;000.370;78;000.641;MIDI 01
127.104;000.084;76;000.633;MIDI 01
127.123;000.082;64;000.375;MIDI 01
127.125;000.132;70;000.547;MIDI 01
127.130;000.160;61;000.484;MIDI 01
127.139;000.210;54;000.391;MIDI 01
127.564;000.554;59;000.492;MIDI 01
128.028;000.160;63;000.477;MIDI 01
128.008;000.199;66;000.516;MIDI 01
128.061;000.200;54;000.406;MIDI 01
127.568;000.794;71;000.570;MIDI 01
127.560;000.945;75;000.609;MIDI 01
128.350;000.353;68;000.469;MIDI 01
128.641;000.118;75;000.555;MIDI 01
128.632;000.132;71;000.430;MIDI 01
128.377;000.640;54;000.359;MIDI 01
128.356;000.702;64;000.398;MIDI 01
129.318;000.070;64;000.445;MIDI 01
129.326;000.111;54;000.438;MIDI 01
129.297;000.148;68;000.555;MIDI 01
128.634;000.932;42;000.398;MIDI 01
128.944;000.815;73;000.539;MIDI 01
128.944;000.843;70;000.492;MIDI 01
129.959;000.331;70;000.367;MIDI 01
129.948;000.359;73;000.469;MIDI 01
129.000;001.494;49;000.398;MIDI 01
129.976;000.615;42;000.352;MIDI 01
129.640;000.956;54;000.422;MIDI 01
129.627;001.039;66;000.492;MIDI 01
129.622;001.080;64;000.422;MIDI 01
131.052;000.126;66;000.312;MIDI 01
131.058;000.142;62;000.289;MIDI 01
131.100;000.192;54;000.211;MIDI 01
130.516;001.034;74;000.422;MIDI 01
130.507;001.057;71;000.234;MIDI 01
131.697;000.074;74;000.414;MIDI 01
131.436;000.457;67;000.320;MIDI 01
131.431;000.593;54;000.125;MIDI 01
130.571;001.588;47;000.297;MIDI 01
131.394;000.777;64;000.352;MIDI 01
131.729;000.664;42;000.273;MIDI 01
132.385;000.067;64;000.258;MIDI 01
132.412;000.051;67;000.172;MIDI 01
132.415;000.060;54;000.281;MIDI 01
132.058;000.551;70;000.273;MIDI 01
132.045;000.713;73;000.414;MIDI 01
132.661;000.236;66;000.414;MIDI 01
132.974;000.079;70;000.312;MIDI 01
132.964;000.096;73;000.453;MIDI 01
132.670;000.408;64;000.242;MIDI 01
132.674;000.411;54;000.242;MIDI 01
132.979;000.121;42;000.359;MIDI 01
132.069;001.041;49;000.328;MIDI 01
133.474;000.232;45;000.594;MIDI 01
133.483;000.253;63;000.516;MIDI 01
133.485;000.281;66;000.539;MIDI 01
133.473;000.297;57;000.609;MIDI 01
133.481;000.322;73;000.539;MIDI 01
133.468;000.369;75;000.609;MIDI 01
134.311;000.124;75;000.406;MIDI 01
134.305;000.331;61;000.391;MIDI 01
134.307;000.343;57;000.320;MIDI 01
134.630;000.029;66;000.312;MIDI 01
134.628;000.040;63;000.344;MIDI 01
134.619;000.051;73;000.453;MIDI 01
134.277;000.399;78;000.500;MIDI 01
134.853;000.082;73;000.383;MIDI 01
134.841;000.231;75;000.414;MIDI 01
135.068;000.004;75;000.055;MIDI 01
134.864;000.255;66;000.273;MIDI 01
135.090;000.041;61;000.367;MIDI 01
135.077;000.058;78;000.500;MIDI 01
135.086;000.052;81;000.461;MIDI 01
135.097;000.049;63;000.461;MIDI 01
134.855;000.299;69;000.383;MIDI 01
135.389;000.146;81;000.352;MIDI 01
135.328;000.238;66;000.445;MIDI 01
135.550;000.022;75;000.398;MIDI 01
135.336;000.238;63;000.391;MIDI 01
135.558;000.021;69;000.469;MIDI 01
135.574;000.032;73;000.492;MIDI 01
135.547;000.069;78;000.562;MIDI 01
135.314;000.307;85;000.578;MIDI 01
135.753;000.223;75;000.531;MIDI 01
135.782;000.213;81;000.359;MIDI 01
135.991;000.041;69;000.562;MIDI 01
135.979;000.058;75;000.133;MIDI 01
135.755;000.284;78;000.617;MIDI 01
135.986;000.075;85;000.555;MIDI 01
135.767;000.300;73;000.492;MIDI 01
135.984;000.092;87;000.633;MIDI 01
136.431;000.037;81;000.586;MIDI 01
136.203;000.274;69;000.570;MIDI 01
136.222;000.280;73;000.539;MIDI 01
136.448;000.057;78;000.562;MIDI 01
136.223;000.289;87;000.562;MIDI 01
136.441;000.074;75;000.578;MIDI 01
136.429;000.100;85;000.617;MIDI 01
136.209;000.331;90;000.672;MIDI 01
136.666;000.252;85;000.617;MIDI 01
136.679;000.334;78;000.594;MIDI 01
136.664;000.352;87;000.586;MIDI 01
136.955;000.071;90;000.641;MIDI 01
136.946;000.086;93;000.688;MIDI 01
136.681;000.353;81;000.578;MIDI 01
136.977;000.105;73;000.539;MIDI 01
136.964;000.127;75;000.578;MIDI 01
137.520;000.158;72;000.508;MIDI 01
137.524;000.159;56;000.414;MIDI 01
137.526;000.164;66;000.406;MIDI 01
137.522;000.196;63;000.406;MIDI 01
137.496;000.230;81;000.633;MIDI 01
137.949;000.124;72;000.523;MIDI 01
137.941;000.149;66;000.508;MIDI 01
137.934;000.171;56;000.523;MIDI 01
137.924;000.195;63;000.477;MIDI 01
137.919;000.339;80;000.656;MIDI 01
138.231;000.068;78;000.641;MIDI 01
138.244;000.103;66;000.531;MIDI 01
138.233;000.143;72;000.562;MIDI 01
138.236;000.164;63;000.484;MIDI 01
138.253;000.152;56;000.453;MIDI 01
138.639;000.146;71;000.562;MIDI 01
138.619;000.175;77;000.625;MIDI 01
138.636;000.173;65;000.477;MIDI 01
138.624;000.210;62;000.500;MIDI 01
138.628;000.285;56;000.484;MIDI 01
139.176;000.255;74;000.391;MIDI 01
139.213;000.292;59;000.266;MIDI 01
139.236;000.273;53;000.266;MIDI 01
139.229;000.309;68;000.273;MIDI 01
139.470;000.074;67;000.406;MIDI 01
139.491;000.068;73;000.430;MIDI 01
139.496;000.080;58;000.391;MIDI 01
139.504;000.128;52;000.430;MIDI 01
139.703;000.151;78;000.539;MIDI 01
139.733;000.195;57;000.438;MIDI 01
139.741;000.232;51;000.438;MIDI 01
139.912;000.062;71;000.461;MIDI 01
139.903;000.091;77;000.484;MIDI 01
139.943;000.073;56;000.469;MIDI 01
139.938;000.110;50;000.500;MIDI 01
140.127;000.189;82;000.531;MIDI 01
140.153;000.216;55;000.508;MIDI 01
140.338;000.077;81;000.531;MIDI 01
140.336;000.158;54;000.508;MIDI 01
140.335;000.177;75;000.570;MIDI 01
140.155;000.380;49;000.484;MIDI 01
140.360;000.177;48;000.477;MIDI 01
140.565;000.054;53;000.570;MIDI 01
140.574;000.183;80;000.477;MIDI 01
140.554;000.292;47;000.547;MIDI 01
140.556;000.322;86;000.625;MIDI 01
140.834;000.118;79;000.555;MIDI 01
140.832;000.140;85;000.633;MIDI 01
140.830;000.205;52;000.586;MIDI 01
140.828;000.214;46;000.531;MIDI 01
141.342;000.140;52;000.414;MIDI 01
141.345;000.139;73;000.359;MIDI 01
141.345;000.177;58;000.406;MIDI 01
141.375;000.164;67;000.398;MIDI 01
141.592;000.041;72;000.445;MIDI 01
141.590;000.046;66;000.445;MIDI 01
141.588;000.111;57;000.477;MIDI 01
141.597;000.175;51;000.445;MIDI 01
141.792;000.076;56;000.484;MIDI 01
141.796;000.102;50;000.492;MIDI 01
141.789;000.124;77;000.539;MIDI 01
141.994;000.074;70;000.523;MIDI 01
141.988;000.082;76;000.547;MIDI 01
142.001;000.125;55;000.516;MIDI 01
142.003;000.191;49;000.523;MIDI 01
142.208;000.111;75;000.453;MIDI 01
142.189;000.135;54;000.508;MIDI 01
142.194;000.132;81;000.617;MIDI 01
142.211;000.165;48;000.516;MIDI 01
142.389;000.045;80;000.555;MIDI 01
142.391;000.052;74;000.562;MIDI 01
142.423;000.027;53;000.461;MIDI 01
142.404;000.142;47;000.547;MIDI 01
142.594;000.186;52;000.594;MIDI 01
142.605;000.221;46;000.539;MIDI 01
142.851;000.136;78;000.570;MIDI 01
142.831;000.164;45;000.531;MIDI 01
142.845;000.151;84;000.578;MIDI 01
142.844;000.165;51;000.492;MIDI 01
142.575;000.435;85;000.633;MIDI 01
143.368;000.091;66;000.234;MIDI 01
143.309;000.170;57;000.406;MIDI 01
143.320;000.189;72;000.422;MIDI 01
143.327;000.240;51;000.359;MIDI 01
143.542;000.054;71;000.516;MIDI 01
143.554;000.046;65;000.445;MIDI 01
143.525;000.116;50;000.477;MIDI 01
143.575;000.088;56;000.406;MIDI 01
143.736;000.117;76;000.547;MIDI 01
143.757;000.129;55;000.500;MIDI 01
143.793;000.162;70;000.289;MIDI 01
143.928;000.030;69;000.469;MIDI 01
143.926;000.078;75;000.570;MIDI 01
143.753;000.291;49;000.516;MIDI 01
143.928;000.189;54;000.477;MIDI 01
144.081;000.045;48;000.273;MIDI 01
144.140;000.043;53;000.539;MIDI 01
144.126;000.144;47;000.547;MIDI 01
144.113;000.183;80;000.578;MIDI 01
144.307;000.049;79;000.516;MIDI 01
144.303;000.082;73;000.523;MIDI 01
144.308;000.115;52;000.562;MIDI 01
144.303;000.186;46;000.523;MIDI 01
144.507;000.050;51;000.469;MIDI 01
144.504;000.090;78;000.477;MIDI 01
144.494;000.119;45;000.523;MIDI 01
144.499;000.198;84;000.602;MIDI 01
144.694;000.080;83;000.562;MIDI 01
144.681;000.115;50;000.523;MIDI 01
144.692;000.165;44;000.531;MIDI 01
144.690;000.169;77;000.562;MIDI 01
144.883;000.054;49;000.477;MIDI 01
144.879;000.088;43;000.555;MIDI 01
144.878;000.147;88;000.609;MIDI 01
144.889;000.198;82;000.500;MIDI 01
145.073;000.058;48;000.594;MIDI 01
145.082;000.071;81;000.617;MIDI 01
145.084;000.079;87;000.641;MIDI 01
145.080;000.194;42;000.570;MIDI 01
145.266;000.202;41;000.562;MIDI 01
145.264;000.206;92;000.680;MIDI 01
145.445;000.080;91;000.578;MIDI 01
145.457;000.078;46;000.594;MIDI 01
145.252;000.286;47;000.625;MIDI 01
145.455;000.089;85;000.648;MIDI 01
145.457;000.148;40;000.570;MIDI 01
145.676;000.071;45;000.508;MIDI 01
145.679;000.084;43;000.508;MIDI 01
145.678;000.149;90;000.516;MIDI 01
145.644;000.223;96;000.695;MIDI 01
145.930;000.002;91;000.289;MIDI 01
145.667;000.267;39;000.547;MIDI 01
145.887;000.088;44;000.555;MIDI 01
145.892;000.123;38;000.602;MIDI 01
145.874;000.145;95;000.664;MIDI 01
145.882;000.286;89;000.555;MIDI 01
146.194;000.248;42;000.656;MIDI 01
146.202;000.324;37;000.578;MIDI 01
146.185;000.341;94;000.664;MIDI 01
146.176;000.514;100;000.727;MIDI 01
146.651;000.263;95;000.672;MIDI 01
146.640;000.317;99;000.703;MIDI 01
146.654;000.340;42;000.578;MIDI 01
146.652;000.385;35;000.602;MIDI 01
147.331;000.354;95;000.664;MIDI 01
147.350;000.372;87;000.594;MIDI 01
147.668;000.062;81;000.602;MIDI 01
147.659;000.114;90;000.656;MIDI 01
147.891;000.129;83;000.594;MIDI 01
147.894;000.195;75;000.523;MIDI 01
148.107;000.024;78;000.531;MIDI 01
148.109;000.083;69;000.594;MIDI 01
148.331;000.262;63;000.570;MIDI 01
148.561;000.039;57;000.375;MIDI 01
148.328;000.331;71;000.586;MIDI 01
148.772;000.081;59;000.531;MIDI 01
148.533;000.365;66;000.578;MIDI 01
148.771;000.276;51;000.523;MIDI 01
149.046;000.029;54;000.398;MIDI 01
149.030;000.060;45;000.484;MIDI 01
149.463;000.111;48;000.414;MIDI 01
149.502;000.116;64;000.039;MIDI 01
149.446;000.179;57;000.383;MIDI 01
149.444;000.190;69;000.430;MIDI 01
149.467;000.180;36;000.344;MIDI 01
149.476;000.310;66;000.305;MIDI 01
149.810;000.073;47;000.406;MIDI 01
149.827;000.073;64;000.328;MIDI 01
149.814;000.098;59;000.445;MIDI 01
149.812;000.114;71;000.500;MIDI 01
149.819;000.108;35;000.406;MIDI 01
149.816;000.191;66;000.273;MIDI 01
150.100;000.049;60;000.352;MIDI 01
150.079;000.072;33;000.461;MIDI 01
150.103;000.055;45;000.391;MIDI 01
150.083;000.077;72;000.500;MIDI 01
150.144;000.052;64;000.234;MIDI 01
150.085;000.115;66;000.195;MIDI 01
150.334;000.037;35;000.461;MIDI 01
150.320;000.056;59;000.516;MIDI 01
150.326;000.064;47;000.516;MIDI 01
150.308;000.084;71;000.531;MIDI 01
150.343;000.066;66;000.406;MIDI 01
150.345;000.065;64;000.312;MIDI 01
150.559;000.045;66;000.414;MIDI 01
150.528;000.084;48;000.594;MIDI 01
150.579;000.045;64;000.266;MIDI 01
150.539;000.091;57;000.570;MIDI 01
150.533;000.098;36;000.562;MIDI 01
150.531;000.115;69;000.609;MIDI 01
150.767;000.080;47;000.578;MIDI 01
150.769;000.080;59;000.547;MIDI 01
150.774;000.082;35;000.586;MIDI 01
150.762;000.108;71;000.625;MIDI 01
150.776;000.105;64;000.438;MIDI 01
150.772;000.123;66;000.477;MIDI 01
151.007;000.087;64;000.500;MIDI 01
151.005;000.117;33;000.602;MIDI 01
151.003;000.122;72;000.648;MIDI 01
151.003;000.132;60;000.555;MIDI 01
151.009;000.131;45;000.586;MIDI 01
151.007;000.154;66;000.477;MIDI 01
151.335;000.170;59;000.562;MIDI 01
151.340;000.213;63;000.547;MIDI 01
151.331;000.247;66;000.555;MIDI 01
151.327;000.258;71;000.609;MIDI 01
151.330;000.291;35;000.602;MIDI 01
151.333;000.306;47;000.617;MIDI 01
152.390;000.030;87;000.484;MIDI 01
152.039;000.384;99;000.625;MIDI 01
152.059;000.377;93;000.523;MIDI 01
152.375;000.071;95;000.664;MIDI 01
152.572;000.080;87;000.430;MIDI 01
152.577;000.198;78;000.523;MIDI 01
152.792;000.028;81;000.609;MIDI 01
152.803;000.047;71;000.578;MIDI 01
153.019;000.241;69;000.547;MIDI 01
153.011;000.256;75;000.555;MIDI 01
153.227;000.043;63;000.531;MIDI 01
153.213;000.079;71;000.586;MIDI 01
153.422;000.097;63;000.516;MIDI 01
153.431;000.246;54;000.531;MIDI 01
153.689;000.044;47;000.484;MIDI 01
154.105;000.125;48;000.414;MIDI 01
154.071;000.177;57;000.383;MIDI 01
154.062;000.195;69;000.500;MIDI 01
154.107;000.217;36;000.336;MIDI 01
154.113;000.214;64;000.133;MIDI 01
154.085;000.244;66;000.406;MIDI 01
154.448;000.092;47;000.492;MIDI 01
154.442;000.105;59;000.500;MIDI 01
154.456;000.107;35;000.445;MIDI 01
154.477;000.091;64;000.375;MIDI 01
154.439;000.132;71;000.539;MIDI 01
154.444;000.235;66;000.336;MIDI 01
154.727;000.057;60;000.422;MIDI 01
154.720;000.071;33;000.523;MIDI 01
154.724;000.073;45;000.508;MIDI 01
154.714;000.090;72;000.547;MIDI 01
154.707;000.126;66;000.180;MIDI 01
154.960;000.064;35;000.539;MIDI 01
154.943;000.083;59;000.516;MIDI 01
154.947;000.082;47;000.594;MIDI 01
154.940;000.090;71;000.594;MIDI 01
154.955;000.101;66;000.289;MIDI 01
155.172;000.082;48;000.594;MIDI 01
155.174;000.086;36;000.570;MIDI 01
155.170;000.100;57;000.555;MIDI 01
155.222;000.050;66;000.281;MIDI 01
155.157;000.129;69;000.617;MIDI 01
155.225;000.077;64;000.242;MIDI 01
155.431;000.027;59;000.500;MIDI 01
155.433;000.035;64;000.555;MIDI 01
155.423;000.053;66;000.539;MIDI 01
155.427;000.062;71;000.633;MIDI 01
155.429;000.083;47;000.602;MIDI 01
155.435;000.105;35;000.570;MIDI 01
155.785;000.159;33;000.570;MIDI 01
155.782;000.182;76;000.625;MIDI 01
155.780;000.213;45;000.648;MIDI 01
155.789;000.206;72;000.578;MIDI 01
155.770;000.270;78;000.664;MIDI 01
155.783;000.258;66;000.625;MIDI 01
156.303;000.195;66;000.617;MIDI 01
156.292;000.219;71;000.594;MIDI 01
156.300;000.245;35;000.602;MIDI 01
156.294;000.257;75;000.609;MIDI 01
156.302;000.273;47;000.625;MIDI 01
156.280;000.321;78;000.648;MIDI 01
157.070;000.180;62;000.484;MIDI 01
157.059;000.275;95;000.664;MIDI 01
157.061;000.471;86;000.656;MIDI 01
157.503;000.070;89;000.578;MIDI 01
157.072;000.512;71;000.531;MIDI 01
157.515;000.071;77;000.500;MIDI 01
157.517;000.071;68;000.484;MIDI 01
157.521;000.095;80;000.570;MIDI 01
157.844;000.032;74;000.484;MIDI 01
157.819;000.078;77;000.523;MIDI 01
157.821;000.243;86;000.586;MIDI 01
158.108;000.042;83;000.312;MIDI 01
158.094;000.107;68;000.477;MIDI 01
158.074;000.147;92;000.625;MIDI 01
158.184;000.054;59;000.023;MIDI 01
157.825;000.431;65;000.500;MIDI 01
158.363;000.129;60;000.555;MIDI 01
158.366;000.218;93;000.688;MIDI 01
158.373;000.214;69;000.594;MIDI 01
158.370;000.250;84;000.648;MIDI 01
158.697;000.031;87;000.555;MIDI 01
158.717;000.029;78;000.461;MIDI 01
158.704;000.046;75;000.500;MIDI 01
158.710;000.053;66;000.477;MIDI 01
158.942;000.035;72;000.508;MIDI 01
158.923;000.085;75;000.539;MIDI 01
159.160;000.037;57;000.453;MIDI 01
158.940;000.274;63;000.539;MIDI 01
158.929;000.290;84;000.508;MIDI 01
159.158;000.070;66;000.523;MIDI 01
159.156;000.083;90;000.617;MIDI 01
159.395;000.106;60;000.570;MIDI 01
159.398;000.149;69;000.586;MIDI 01
159.370;000.182;93;000.672;MIDI 01
159.383;000.197;84;000.617;MIDI 01
159.664;000.046;66;000.391;MIDI 01
159.685;000.035;78;000.375;MIDI 01
159.688;000.035;75;000.516;MIDI 01
159.642;000.099;87;000.547;MIDI 01
159.859;000.030;77;000.328;MIDI 01
159.863;000.065;74;000.539;MIDI 01
159.841;000.179;86;000.594;MIDI 01
160.066;000.015;83;000.469;MIDI 01
160.075;000.023;59;000.461;MIDI 01
159.876;000.224;66;000.242;MIDI 01
160.035;000.069;92;000.688;MIDI 01
160.072;000.043;60;000.336;MIDI 01
159.880;000.246;65;000.445;MIDI 01
160.064;000.092;68;000.578;MIDI 01
160.253;000.128;91;000.695;MIDI 01
160.259;000.156;58;000.570;MIDI 01
160.266;000.217;82;000.648;MIDI 01
160.479;000.046;76;000.516;MIDI 01
160.460;000.067;85;000.484;MIDI 01
160.490;000.041;73;000.578;MIDI 01
160.280;000.252;67;000.547;MIDI 01
160.503;000.033;64;000.438;MIDI 01
160.686;000.049;72;000.539;MIDI 01
160.673;000.117;75;000.594;MIDI 01
160.702;000.197;84;000.461;MIDI 01
160.898;000.044;57;000.469;MIDI 01
160.684;000.266;63;000.555;MIDI 01
160.891;000.070;66;000.539;MIDI 01
160.894;000.068;90;000.602;MIDI 01
161.145;000.103;60;000.547;MIDI 01
161.136;000.176;93;000.672;MIDI 01
161.150;000.276;69;000.586;MIDI 01
161.140;000.300;84;000.648;MIDI 01
161.411;000.057;87;000.570;MIDI 01
161.459;000.039;75;000.484;MIDI 01
161.461;000.039;78;000.312;MIDI 01
161.450;000.075;66;000.500;MIDI 01
161.646;000.043;72;000.578;MIDI 01
161.623;000.092;75;000.547;MIDI 01
161.630;000.227;84;000.523;MIDI 01
161.855;000.033;57;000.430;MIDI 01
161.651;000.242;63;000.562;MIDI 01
161.836;000.068;66;000.531;MIDI 01
161.842;000.068;90;000.555;MIDI 01
162.078;000.036;60;000.320;MIDI 01
162.037;000.083;59;000.539;MIDI 01
162.043;000.131;83;000.625;MIDI 01
162.041;000.142;68;000.625;MIDI 01
162.018;000.213;92;000.727;MIDI 01
162.265;000.028;74;000.656;MIDI 01
162.245;000.057;86;000.625;MIDI 01
162.281;000.032;65;000.445;MIDI 01
162.268;000.050;66;000.188;MIDI 01
162.291;000.045;77;000.203;MIDI 01
162.451;000.045;74;000.367;MIDI 01
162.453;000.052;71;000.555;MIDI 01
162.446;000.127;83;000.609;MIDI 01
162.640;000.042;80;000.547;MIDI 01
162.648;000.035;89;000.555;MIDI 01
162.448;000.238;62;000.609;MIDI 01
162.656;000.035;56;000.500;MIDI 01
162.623;000.071;65;000.383;MIDI 01
162.853;000.059;59;000.477;MIDI 01
162.861;000.057;60;000.484;MIDI 01
162.818;000.170;92;000.711;MIDI 01
162.840;000.253;68;000.633;MIDI 01
163.055;000.040;74;000.578;MIDI 01
163.060;000.036;77;000.406;MIDI 01
163.041;000.058;86;000.602;MIDI 01
163.067;000.039;65;000.422;MIDI 01
162.849;000.265;83;000.523;MIDI 01
163.243;000.025;76;000.508;MIDI 01
163.236;000.078;73;000.602;MIDI 01
163.407;000.029;67;000.453;MIDI 01
163.213;000.232;64;000.422;MIDI 01
163.239;000.209;85;000.523;MIDI 01
163.411;000.045;91;000.578;MIDI 01
163.416;000.065;82;000.531;MIDI 01
163.448;000.036;58;000.492;MIDI 01
163.605;000.086;57;000.516;MIDI 01
163.595;000.166;90;000.672;MIDI 01
163.608;000.159;81;000.617;MIDI 01
163.812;000.032;72;000.625;MIDI 01
163.824;000.023;84;000.445;MIDI 01
163.815;000.034;75;000.594;MIDI 01
163.610;000.268;66;000.578;MIDI 01
164.021;000.036;74;000.516;MIDI 01
164.026;000.043;71;000.586;MIDI 01
164.010;000.134;83;000.570;MIDI 01
164.228;000.036;80;000.531;MIDI 01
164.008;000.269;62;000.594;MIDI 01
164.229;000.050;65;000.523;MIDI 01
164.218;000.064;89;000.648;MIDI 01
164.234;000.052;56;000.531;MIDI 01
164.496;000.145;59;000.594;MIDI 01
164.488;000.268;92;000.727;MIDI 01
164.508;000.327;83;000.594;MIDI 01
164.811;000.038;74;000.562;MIDI 01
164.822;000.030;65;000.414;MIDI 01
164.498;000.354;68;000.656;MIDI 01
164.814;000.041;77;000.469;MIDI 01
164.779;000.083;86;000.586;MIDI 01
165.059;000.044;84;000.508;MIDI 01
165.069;000.054;74;000.445;MIDI 01
165.073;000.055;76;000.312;MIDI 01
165.067;000.089;71;000.500;MIDI 01
165.107;000.078;84;000.211;MIDI 01
165.071;000.135;83;000.477;MIDI 01
165.266;000.066;80;000.617;MIDI 01
165.271;000.062;89;000.625;MIDI 01
165.057;000.281;62;000.523;MIDI 01
165.290;000.053;65;000.570;MIDI 01
165.304;000.042;56;000.484;MIDI 01
165.500;000.091;57;000.617;MIDI 01
165.496;000.233;90;000.695;MIDI 01
165.511;000.281;81;000.586;MIDI 01
165.772;000.036;84;000.547;MIDI 01
165.786;000.030;72;000.602;MIDI 01
165.792;000.030;75;000.461;MIDI 01
165.795;000.041;63;000.484;MIDI 01
165.510;000.327;66;000.641;MIDI 01
165.997;000.081;72;000.469;MIDI 01
166.010;000.072;69;000.555;MIDI 01
166.022;000.113;59;000.500;MIDI 01
166.083;000.060;67;000.094;MIDI 01
165.994;000.185;81;000.562;MIDI 01
166.231;000.049;78;000.547;MIDI 01
166.257;000.044;63;000.531;MIDI 01
166.248;000.056;87;000.602;MIDI 01
166.023;000.283;60;000.500;MIDI 01
166.267;000.064;54;000.562;MIDI 01
166.580;000.107;57;000.547;MIDI 01
166.572;000.230;90;000.703;MIDI 01
166.582;000.339;81;000.586;MIDI 01
166.878;000.047;75;000.516;MIDI 01
166.869;000.065;72;000.523;MIDI 01
166.577;000.378;66;000.633;MIDI 01
166.856;000.100;84;000.562;MIDI 01
166.875;000.090;63;000.461;MIDI 01
167.114;000.050;74;000.516;MIDI 01
167.119;000.068;71;000.594;MIDI 01
167.100;000.167;83;000.586;MIDI 01
167.315;000.043;80;000.602;MIDI 01
167.108;000.265;62;000.570;MIDI 01
167.314;000.068;89;000.664;MIDI 01
167.314;000.069;65;000.547;MIDI 01
167.329;000.054;56;000.508;MIDI 01
167.517;000.103;55;000.578;MIDI 01
167.520;000.145;79;000.625;MIDI 01
167.512;000.154;88;000.688;MIDI 01
167.520;000.277;64;000.555;MIDI 01
167.766;000.042;70;000.578;MIDI 01
167.752;000.064;61;000.477;MIDI 01
167.797;000.024;73;000.383;MIDI 01
167.745;000.110;82;000.539;MIDI 01
167.948;000.017;72;000.492;MIDI 01
167.943;000.073;69;000.578;MIDI 01
167.944;000.139;81;000.586;MIDI 01
168.158;000.032;78;000.523;MIDI 01
167.945;000.275;60;000.586;MIDI 01
168.139;000.088;87;000.633;MIDI 01
168.164;000.082;63;000.547;MIDI 01
168.172;000.076;54;000.547;MIDI 01
168.371;000.106;53;000.562;MIDI 01
168.369;000.160;86;000.688;MIDI 01
168.378;000.207;77;000.602;MIDI 01
168.656;000.031;71;000.445;MIDI 01
168.382;000.332;62;000.562;MIDI 01
168.673;000.049;59;000.422;MIDI 01
168.649;000.078;68;000.547;MIDI 01
168.637;000.119;80;000.539;MIDI 01
168.930;000.249;67;000.555;MIDI 01
168.946;000.342;70;000.500;MIDI 01
168.939;000.392;79;000.477;MIDI 01
168.935;000.417;58;000.477;MIDI 01
169.321;000.075;52;000.375;MIDI 01
169.323;000.153;85;000.539;MIDI 01
169.317;000.265;61;000.438;MIDI 01
169.309;000.336;76;000.484;MIDI 01
169.626;000.079;70;000.500;MIDI 01
169.621;000.103;67;000.492;MIDI 01
169.624;000.265;79;000.516;MIDI 01
169.616;000.282;58;000.484;MIDI 01
169.875;000.083;52;000.484;MIDI 01
169.864;000.173;85;000.641;MIDI 01
169.865;000.260;76;000.570;MIDI 01
170.085;000.060;70;000.586;MIDI 01
169.878;000.271;61;000.570;MIDI 01
170.092;000.092;67;000.609;MIDI 01
170.076;000.166;79;000.516;MIDI 01
170.105;000.225;58;000.484;MIDI 01
170.310;000.081;84;000.625;MIDI 01
170.323;000.072;76;000.578;MIDI 01
170.325;000.089;52;000.477;MIDI 01
170.341;000.123;60;000.508;MIDI 01
170.606;000.244;66;000.586;MIDI 01
170.608;000.355;70;000.594;MIDI 01
170.603;000.479;58;000.547;MIDI 01
170.602;000.498;78;000.586;MIDI 01
171.070;000.137;52;000.422;MIDI 01
171.057;000.170;84;000.547;MIDI 01
171.090;000.279;60;000.422;MIDI 01
171.059;000.311;76;000.516;MIDI 01
171.418;000.121;66;000.555;MIDI 01
171.416;000.143;70;000.586;MIDI 01
171.411;000.297;78;000.547;MIDI 01
171.412;000.328;58;000.492;MIDI 01
171.693;000.110;52;000.484;MIDI 01
171.697;000.127;84;000.633;MIDI 01
171.702;000.303;76;000.586;MIDI 01
171.717;000.335;60;000.508;MIDI 01
172.020;000.203;66;000.570;MIDI 01
172.016;000.289;69;000.570;MIDI 01
172.018;000.406;57;000.516;MIDI 01
172.000;000.479;78;000.594;MIDI 01
172.428;000.150;52;000.477;MIDI 01
172.428;000.200;84;000.602;MIDI 01
172.430;000.480;76;000.562;MIDI 01
172.432;000.504;60;000.531;MIDI 01
172.885;000.227;66;000.531;MIDI 01
172.890;000.250;57;000.500;MIDI 01
172.873;000.713;78;000.570;MIDI 01
172.887;000.777;69;000.570;MIDI 01
173.606;000.495;59;000.484;MIDI 01
173.600;000.568;47;000.484;MIDI 01
173.594;000.589;75;000.523;MIDI 01
173.585;000.607;83;000.562;MIDI 01
175.601;000.833;71;000.352;MIDI 01
175.597;000.917;62;000.289;MIDI 01
176.407;000.510;68;000.352;MIDI 01
175.598;001.381;52;000.297;MIDI 01
176.892;000.441;61;000.312;MIDI 01
177.291;000.420;64;000.320;MIDI 01
176.883;000.921;45;000.258;MIDI 01
177.652;000.458;57;000.312;MIDI 01
176.893;001.224;71;000.375;MIDI 01
177.996;000.374;64;000.383;MIDI 01
177.655;000.741;48;000.328;MIDI 01
178.377;000.370;47;000.258;MIDI 01
178.326;000.584;57;000.352;MIDI 01
177.283;001.646;69;000.438;MIDI 01
178.771;000.677;63;000.352;MIDI 01
177.630;001.844;66;000.383;MIDI 01
179.340;000.731;62;000.375;MIDI 01
179.394;000.679;52;000.297;MIDI 01
179.338;000.770;71;000.398;MIDI 01
179.988;000.315;54;000.281;MIDI 01
179.965;000.590;68;000.430;MIDI 01
180.254;000.386;52;000.375;MIDI 01
180.041;000.604;64;000.180;MIDI 01
180.536;000.368;61;000.352;MIDI 01
180.506;000.785;71;000.430;MIDI 01
180.893;000.503;64;000.344;MIDI 01
180.560;000.866;45;000.328;MIDI 01
181.248;000.519;57;000.320;MIDI 01
180.886;001.065;69;000.484;MIDI 01
181.271;000.752;48;000.367;MIDI 01
181.627;000.418;64;000.305;MIDI 01
181.239;000.986;66;000.453;MIDI 01
182.003;000.409;47;000.312;MIDI 01
182.006;000.731;57;000.344;MIDI 01
182.461;000.494;63;000.344;MIDI 01
182.938;000.423;57;000.289;MIDI 01
182.933;000.741;68;000.414;MIDI 01
183.585;000.267;59;000.219;MIDI 01
183.539;000.389;66;000.336;MIDI 01
182.964;001.463;35;000.312;MIDI 01
184.235;000.872;56;000.336;MIDI 01
184.918;000.552;64;000.367;MIDI 01
184.265;001.217;40;000.258;MIDI 01
184.207;001.558;66;000.344;MIDI 01
185.380;000.416;55;000.266;MIDI 01
185.351;000.737;61;000.352;MIDI 01
185.773;000.447;59;000.375;MIDI 01
186.129;000.355;64;000.406;MIDI 01
185.378;001.130;47;000.312;MIDI 01
186.133;000.443;54;000.297;MIDI 01
186.491;000.526;63;000.422;MIDI 01
186.504;000.522;59;000.234;MIDI 01
186.886;000.456;35;000.281;MIDI 01
186.869;000.655;68;000.398;MIDI 01
186.920;000.674;57;000.312;MIDI 01
187.340;000.362;66;000.383;MIDI 01
187.330;000.745;37;000.227;MIDI 01
187.646;000.996;35;000.195;MIDI 01
188.039;000.625;40;000.312;MIDI 01
187.995;000.743;56;000.336;MIDI 01
188.523;000.503;64;000.359;MIDI 01
188.567;000.517;59;000.320;MIDI 01
187.988;001.174;66;000.336;MIDI 01
188.986;000.396;55;000.305;MIDI 01
188.961;000.544;61;000.391;MIDI 01
189.358;000.496;59;000.359;MIDI 01
189.725;000.635;54;000.328;MIDI 01
188.978;001.561;47;000.320;MIDI 01
190.135;000.468;59;000.234;MIDI 01
190.120;000.892;63;000.336;MIDI 01
190.539;000.476;40;000.273;MIDI 01
189.715;001.390;64;000.344;MIDI 01
190.536;000.669;55;000.328;MIDI 01
190.958;000.608;61;000.375;MIDI 01
191.021;000.558;59;000.102;MIDI 01
191.231;000.452;40;000.305;MIDI 01
190.999;000.704;42;000.266;MIDI 01
191.598;000.650;54;000.289;MIDI 01
191.602;000.720;35;000.273;MIDI 01
192.074;000.530;59;000.266;MIDI 01
192.519;000.581;55;000.375;MIDI 01
192.052;001.050;63;000.320;MIDI 01
191.583;001.529;64;000.328;MIDI 01
193.004;000.455;61;000.367;MIDI 01
193.055;000.436;59;000.031;MIDI 01
192.566;001.352;47;000.258;MIDI 01
193.485;000.655;54;000.328;MIDI 01
193.978;000.662;59;000.242;MIDI 01
194.634;000.440;40;000.273;MIDI 01
193.478;001.611;64;000.320;MIDI 01
193.980;001.144;63;000.320;MIDI 01
194.549;000.692;55;000.344;MIDI 01
194.989;000.708;61;000.352;MIDI 01
195.320;000.444;40;000.211;MIDI 01
195.074;000.706;42;000.227;MIDI 01
195.006;000.778;59;000.234;MIDI 01
195.683;000.824;54;000.273;MIDI 01
196.291;000.592;59;000.164;MIDI 01
195.714;001.191;47;000.227;MIDI 01
196.253;001.149;63;000.266;MIDI 01
195.685;001.819;64;000.281;MIDI 01
196.809;000.797;55;000.266;MIDI 01
197.365;000.844;61;000.344;MIDI 01
197.381;000.846;59;000.180;MIDI 01
198.091;000.706;64;000.281;MIDI 01
198.101;000.866;54;000.227;MIDI 01
198.751;000.666;59;000.211;MIDI 01
198.759;000.686;63;000.250;MIDI 01
199.295;000.519;64;000.227;MIDI 01
199.303;000.651;54;000.070;MIDI 01
199.779;000.542;63;000.266;MIDI 01
199.776;000.573;59;000.258;MIDI 01
200.229;000.540;64;000.258;MIDI 01
200.739;000.571;61;000.305;MIDI 01
200.733;000.595;63;000.227;MIDI 01
201.270;000.420;42;000.242;MIDI 01
201.217;000.572;64;000.344;MIDI 01
201.281;000.654;54;000.117;MIDI 01
201.694;000.293;44;000.172;MIDI 01
201.657;000.735;63;000.312;MIDI 01
201.693;000.712;61;000.141;MIDI 01
201.967;000.456;42;000.195;MIDI 01
202.330;000.557;64;000.320;MIDI 01
202.318;000.735;54;000.188;MIDI 01
202.347;001.155;35;000.281;MIDI 01
202.935;000.632;63;000.336;MIDI 01
202.950;000.673;57;000.219;MIDI 01
203.497;000.536;64;000.258;MIDI 01
203.529;000.553;54;000.258;MIDI 01
203.985;000.639;63;000.320;MIDI 01
203.970;000.678;57;000.219;MIDI 01
204.523;000.762;64;000.328;MIDI 01
204.569;000.847;54;000.250;MIDI 01
205.223;000.991;63;000.297;MIDI 01
205.240;001.008;59;000.266;MIDI 01
206.033;001.066;61;000.266;MIDI 01
206.086;001.236;54;000.172;MIDI 01
206.977;001.454;63;000.297;MIDI 01
207.027;001.419;59;000.242;MIDI 01
208.321;001.081;56;000.281;MIDI 01
209.344;000.471;47;000.211;MIDI 01
208.266;001.632;64;000.273;MIDI 01
209.830;000.579;63;000.312;MIDI 01
209.871;000.610;56;000.164;MIDI 01
210.292;000.505;64;000.398;MIDI 01
210.367;000.491;47;000.125;MIDI 01
209.320;001.587;59;000.289;MIDI 01
208.299;002.622;40;000.297;MIDI 01
210.864;000.637;57;000.102;MIDI 01
211.442;000.456;47;000.141;MIDI 01
211.373;000.564;59;000.367;MIDI 01
210.853;001.178;35;000.258;MIDI 01
211.810;000.568;57;000.281;MIDI 01
212.322;000.582;47;000.172;MIDI 01
212.266;000.647;59;000.320;MIDI 01
210.832;002.152;63;000.305;MIDI 01
210.780;002.383;66;000.375;MIDI 01
212.779;000.917;57;000.242;MIDI 01
213.463;000.276;68;000.336;MIDI 01
213.488;000.352;47;000.211;MIDI 01
213.476;000.696;59;000.094;MIDI 01
214.008;000.471;63;000.219;MIDI 01
214.001;000.496;57;000.055;MIDI 01
213.939;000.630;68;000.398;MIDI 01
214.392;000.557;66;000.336;MIDI 01
214.428;000.674;47;000.094;MIDI 01
214.393;000.723;59;000.320;MIDI 01
212.790;002.351;35;000.250;MIDI 01
214.999;000.560;64;000.195;MIDI 01
215.001;000.694;56;000.133;MIDI 01
215.628;000.366;47;000.180;MIDI 01
215.592;000.545;59;000.281;MIDI 01
216.026;000.529;56;000.297;MIDI 01
214.984;001.683;40;000.289;MIDI 01
216.472;000.565;59;000.266;MIDI 01
216.501;000.541;47;000.109;MIDI 01
214.976;002.160;68;000.359;MIDI 01
216.945;000.729;56;000.242;MIDI 01
217.539;000.250;69;000.383;MIDI 01
217.560;000.447;47;000.242;MIDI 01
217.545;000.591;64;000.273;MIDI 01
218.003;000.535;69;000.438;MIDI 01
218.035;000.509;59;000.344;MIDI 01
218.509;000.203;64;000.258;MIDI 01
218.506;000.769;47;000.211;MIDI 01
218.465;000.891;68;000.438;MIDI 01
216.941;002.456;40;000.141;MIDI 01
219.146;000.978;73;000.469;MIDI 01
219.201;001.050;63;000.281;MIDI 01
220.075;000.451;47;000.227;MIDI 01
220.068;001.069;69;000.336;MIDI 01
220.940;000.252;71;000.406;MIDI 01
220.522;000.705;59;000.383;MIDI 01
220.998;000.648;47;000.258;MIDI 01
220.972;000.846;63;000.297;MIDI 01
221.531;000.652;69;000.398;MIDI 01
221.539;000.828;59;000.336;MIDI 01
222.120;000.252;68;000.398;MIDI 01
219.221;003.171;35;000.336;MIDI 01
222.169;000.495;47;000.258;MIDI 01
222.578;000.533;63;000.367;MIDI 01
222.623;000.543;56;000.352;MIDI 01
223.027;000.453;64;000.367;MIDI 01
223.050;000.538;47;000.172;MIDI 01
221.575;002.159;40;000.266;MIDI 01
223.549;000.630;61;000.312;MIDI 01
223.551;000.641;57;000.234;MIDI 01
224.056;000.508;63;000.219;MIDI 01
224.128;000.482;47;000.211;MIDI 01
224.100;000.564;59;000.234;MIDI 01
223.546;001.541;35;000.227;MIDI 01
224.504;000.585;61;000.312;MIDI 01
224.534;000.609;57;000.172;MIDI 01
224.983;000.581;47;000.070;MIDI 01
223.481;002.100;66;000.359;MIDI 01
224.953;000.640;63;000.289;MIDI 01
224.982;000.709;59;000.188;MIDI 01
225.430;000.761;61;000.320;MIDI 01
225.436;000.769;57;000.117;MIDI 01
226.011;000.325;68;000.352;MIDI 01
226.074;000.490;47;000.258;MIDI 01
226.054;000.692;59;000.320;MIDI 01
226.611;000.202;61;000.281;MIDI 01
226.594;000.265;57;000.195;MIDI 01
226.535;000.764;68;000.328;MIDI 01
227.193;000.321;66;000.336;MIDI 01
227.192;000.422;59;000.258;MIDI 01
225.433;002.566;35;000.148;MIDI 01
227.218;000.876;47;000.227;MIDI 01
227.225;000.945;63;000.172;MIDI 01
227.999;000.889;56;000.266;MIDI 01
228.780;000.556;47;000.289;MIDI 01
228.752;000.668;59;000.242;MIDI 01
229.330;000.766;56;000.203;MIDI 01
229.900;000.207;59;000.172;MIDI 01
227.969;002.147;64;000.336;MIDI 01
228.036;002.127;40;000.258;MIDI 01
229.945;000.227;47;000.117;MIDI 01
230.814;000.566;71;000.320;MIDI 01
230.834;000.635;62;000.180;MIDI 01
230.829;000.734;66;000.258;MIDI 01
231.697;000.299;68;000.297;MIDI 01
231.690;000.326;73;000.375;MIDI 01
231.750;000.304;64;000.211;MIDI 01
231.727;000.559;52;000.297;MIDI 01
232.254;000.203;73;000.398;MIDI 01
230.818;001.655;40;000.250;MIDI 01
232.277;000.278;62;000.305;MIDI 01
232.741;000.085;68;000.156;MIDI 01
232.701;000.139;64;000.383;MIDI 01
232.671;000.405;71;000.430;MIDI 01
232.305;000.815;66;000.312;MIDI 01
232.716;000.507;52;000.297;MIDI 01
233.134;000.586;69;000.398;MIDI 01
233.120;000.698;61;000.375;MIDI 01
233.696;000.446;64;000.273;MIDI 01
233.650;000.677;52;000.266;MIDI 01
233.635;000.723;71;000.453;MIDI 01
234.047;000.494;68;000.398;MIDI 01
234.058;000.550;61;000.367;MIDI 01
234.466;000.194;64;000.391;MIDI 01
234.464;000.253;69;000.477;MIDI 01
233.170;001.614;45;000.266;MIDI 01
234.470;000.513;52;000.312;MIDI 01
235.168;000.378;66;000.289;MIDI 01
235.143;000.805;75;000.430;MIDI 01
235.779;000.253;68;000.391;MIDI 01
235.153;000.882;72;000.359;MIDI 01
235.755;000.296;76;000.531;MIDI 01
236.244;000.214;66;000.430;MIDI 01
235.806;000.690;56;000.305;MIDI 01
236.251;000.251;70;000.430;MIDI 01
236.667;000.148;68;000.367;MIDI 01
236.656;000.174;72;000.422;MIDI 01
236.228;000.797;76;000.523;MIDI 01
236.640;000.484;75;000.523;MIDI 01
236.671;000.463;56;000.375;MIDI 01
235.170;002.045;44;000.328;MIDI 01
237.070;000.544;73;000.492;MIDI 01
237.080;000.630;64;000.422;MIDI 01
237.493;000.467;75;000.508;MIDI 01
237.535;000.496;56;000.312;MIDI 01
237.892;000.216;64;000.406;MIDI 01
237.495;000.645;68;000.469;MIDI 01
237.896;000.521;72;000.555;MIDI 01
237.105;001.343;49;000.375;MIDI 01
238.333;000.172;68;000.406;MIDI 01
238.345;000.315;56;000.289;MIDI 01
238.325;000.377;64;000.375;MIDI 01
238.329;000.394;73;000.508;MIDI 01
238.928;000.257;64;000.227;MIDI 01
238.912;000.310;76;000.484;MIDI 01
238.919;000.340;70;000.367;MIDI 01
238.972;000.308;58;000.258;MIDI 01
238.974;000.337;54;000.227;MIDI 01
238.970;000.345;49;000.273;MIDI 01
238.942;000.397;52;000.289;MIDI 01
239.483;000.174;78;000.539;MIDI 01
239.507;000.156;66;000.406;MIDI 01
239.493;000.209;49;000.352;MIDI 01
239.493;000.226;70;000.406;MIDI 01
239.509;000.227;52;000.344;MIDI 01
239.526;000.239;58;000.281;MIDI 01
239.505;000.266;54;000.289;MIDI 01
239.953;000.194;49;000.375;MIDI 01
239.950;000.202;54;000.375;MIDI 01
239.935;000.232;63;000.477;MIDI 01
239.941;000.233;58;000.367;MIDI 01
239.960;000.232;52;000.383;MIDI 01
239.922;000.272;70;000.523;MIDI 01
239.928;000.291;75;000.578;MIDI 01
240.361;000.117;64;000.516;MIDI 01
240.350;000.195;76;000.625;MIDI 01
240.357;000.211;70;000.555;MIDI 01
240.352;000.228;58;000.438;MIDI 01
240.364;000.223;49;000.422;MIDI 01
240.359;000.230;54;000.477;MIDI 01
240.359;000.242;52;000.398;MIDI 01
240.797;000.237;66;000.531;MIDI 01
240.806;000.250;58;000.430;MIDI 01
240.804;000.259;48;000.477;MIDI 01
240.793;000.284;54;000.414;MIDI 01
240.819;000.265;52;000.391;MIDI 01
240.795;000.291;70;000.516;MIDI 01
240.791;000.302;78;000.633;MIDI 01
241.279;000.178;68;000.570;MIDI 01
241.265;000.217;80;000.656;MIDI 01
241.270;000.233;70;000.594;MIDI 01
241.267;000.240;58;000.477;MIDI 01
241.261;000.253;48;000.484;MIDI 01
241.282;000.256;52;000.445;MIDI 01
241.264;000.292;54;000.469;MIDI 01
241.732;000.184;64;000.602;MIDI 01
241.724;000.260;76;000.633;MIDI 01
241.739;000.270;70;000.594;MIDI 01
241.753;000.265;48;000.453;MIDI 01
241.751;000.268;58;000.484;MIDI 01
241.755;000.274;52;000.414;MIDI 01
241.741;000.297;54;000.477;MIDI 01
242.280;000.273;66;000.578;MIDI 01
242.266;000.289;78;000.664;MIDI 01
242.301;000.281;48;000.477;MIDI 01
242.294;000.290;54;000.453;MIDI 01
242.296;000.290;58;000.500;MIDI 01
242.282;000.308;70;000.555;MIDI 01
242.307;000.292;52;000.391;MIDI 01
243.242;000.047;71;000.281;MIDI 01
243.190;001.189;68;000.516;MIDI 01
244.232;000.596;71;000.383;MIDI 01
244.753;000.520;68;000.461;MIDI 01
243.166;002.487;80;000.641;MIDI 01
245.227;000.875;71;000.398;MIDI 01
243.199;003.066;76;000.516;MIDI 01
245.621;000.705;68;000.477;MIDI 01
246.123;001.096;78;000.570;MIDI 01
246.744;000.526;68;000.312;MIDI 01
243.200;004.071;56;000.453;MIDI 01
246.698;000.650;76;000.516;MIDI 01
243.191;004.208;59;000.484;MIDI 01
247.143;000.760;73;000.508;MIDI 01
243.203;004.785;52;000.461;MIDI 01
243.194;005.202;47;000.430;MIDI 01
247.759;000.837;63;000.383;MIDI 01
248.541;000.440;66;000.305;MIDI 01
248.536;000.496;59;000.273;MIDI 01
248.964;000.439;63;000.250;MIDI 01
247.733;001.795;75;000.531;MIDI 01
249.370;000.528;59;000.273;MIDI 01
247.769;002.190;54;000.336;MIDI 01
248.970;001.038;47;000.258;MIDI 01
249.375;000.664;66;000.352;MIDI 01
249.904;000.792;64;000.266;MIDI 01
250.536;000.199;68;000.125;MIDI 01
249.867;001.019;76;000.453;MIDI 01
250.466;000.448;56;000.336;MIDI 01
250.440;000.489;75;000.492;MIDI 01
250.875;000.427;73;000.547;MIDI 01
249.908;001.465;49;000.312;MIDI 01
250.870;000.506;64;000.398;MIDI 01
251.370;000.603;56;000.375;MIDI 01
251.317;000.723;68;000.516;MIDI 01
250.911;001.209;44;000.320;MIDI 01
251.905;000.780;59;000.453;MIDI 01
252.503;000.457;63;000.359;MIDI 01
252.521;000.528;56;000.289;MIDI 01
251.957;001.574;51;000.305;MIDI 01
251.891;001.655;71;000.547;MIDI 01
252.979;000.607;59;000.344;MIDI 01
253.470;000.136;56;000.289;MIDI 01
253.434;000.357;63;000.328;MIDI 01
252.965;000.978;44;000.320;MIDI 01
254.072;000.617;73;000.461;MIDI 01
254.074;001.071;61;000.430;MIDI 01
254.961;000.567;52;000.266;MIDI 01
254.911;000.639;71;000.352;MIDI 01
255.427;000.652;69;000.289;MIDI 01
255.445;000.692;61;000.078;MIDI 01
255.938;000.680;64;000.227;MIDI 01
255.973;000.775;52;000.188;MIDI 01
254.106;002.644;45;000.383;MIDI 01
255.449;001.390;40;000.250;MIDI 01
256.609;000.930;56;000.242;MIDI 01
257.421;000.589;59;000.273;MIDI 01
257.449;000.589;52;000.164;MIDI 01
257.887;000.764;56;000.273;MIDI 01
256.675;002.007;47;000.258;MIDI 01
258.384;000.555;59;000.258;MIDI 01
258.401;000.690;52;000.172;MIDI 01
257.885;001.351;40;000.242;MIDI 01
256.587;003.435;68;000.312;MIDI 01
259.072;001.055;57;000.320;MIDI 01
259.978;000.511;52;000.281;MIDI 01
259.954;000.549;66;000.312;MIDI 01
259.976;000.595;60;000.172;MIDI 01
260.491;000.457;57;000.250;MIDI 01
260.489;000.560;64;000.305;MIDI 01
259.095;002.054;48;000.312;MIDI 01
260.968;000.508;52;000.297;MIDI 01
260.498;001.072;40;000.250;MIDI 01
260.953;000.620;60;000.320;MIDI 01
261.470;000.724;56;000.328;MIDI 01
262.096;000.507;59;000.234;MIDI 01
262.114;000.518;52;000.234;MIDI 01
261.515;001.846;47;000.227;MIDI 01
262.564;000.801;56;000.242;MIDI 01
263.066;000.310;52;000.203;MIDI 01
263.066;000.434;59;000.281;MIDI 01
262.532;001.613;40;000.320;MIDI 01
261.443;003.322;68;000.391;MIDI 01
263.816;001.124;57;000.289;MIDI 01
264.682;000.688;66;000.305;MIDI 01
264.698;000.684;52;000.273;MIDI 01
264.696;000.699;60;000.148;MIDI 01
265.308;000.090;40;000.148;MIDI 01
265.249;000.748;64;000.305;MIDI 01
265.300;000.702;57;000.203;MIDI 01
263.843;002.542;48;000.281;MIDI 01
265.921;000.474;52;000.227;MIDI 01
265.879;001.163;60;000.289;MIDI 01
265.402;001.748;40;000.023;MIDI 01
266.895;000.992;56;000.242;MIDI 01
267.792;000.562;59;000.266;MIDI 01
267.798;000.690;52;000.203;MIDI 01
268.328;000.575;56;000.234;MIDI 01
266.933;001.997;47;000.227;MIDI 01
268.818;000.500;59;000.289;MIDI 01
268.842;000.490;52;000.203;MIDI 01
268.331;001.151;40;000.305;MIDI 01
269.271;000.560;56;000.211;MIDI 01
269.767;000.539;52;000.203;MIDI 01
269.765;000.543;59;000.258;MIDI 01
270.211;000.556;56;000.219;MIDI 01
269.307;001.473;47;000.188;MIDI 01
270.755;000.484;52;000.172;MIDI 01
270.706;000.556;59;000.219;MIDI 01
270.266;001.276;40;000.141;MIDI 01
271.188;000.598;56;000.219;MIDI 01
271.729;000.598;52;000.164;MIDI 01
271.705;000.624;59;000.258;MIDI 01
272.246;000.654;56;000.203;MIDI 01
271.190;001.752;47;000.195;MIDI 01
272.848;000.674;52;000.078;MIDI 01
272.805;000.781;59;000.266;MIDI 01
266.882;006.718;68;000.312;MIDI 01
272.244;001.469;40;000.242;MIDI 01
273.521;001.046;56;000.227;MIDI 01
274.324;000.983;66;000.195;MIDI 01
274.334;001.048;59;000.180;MIDI 01
274.337;001.273;52;000.180;MIDI 01
273.528;002.093;47;000.242;MIDI 01
275.239;000.636;64;000.258;MIDI 01
275.261;000.927;56;000.141;MIDI 01
275.259;001.095;40;000.242;MIDI 01
276.235;000.834;59;000.219;MIDI 01
276.234;001.603;47;000.227;MIDI 01
277.717;008.002;56;000.203;MIDI 01
277.730;008.164;64;000.164;MIDI 01
277.747;008.630;40;000.156;MIDI 01
