Start;Duration;Pitch;Velocity;Instrument
001.086;000.240;46;000.188;MIDI 01
001.077;000.262;58;000.258;MIDI 01
001.235;000.165;59;000.320;MIDI 01
001.266;000.166;47;000.273;MIDI 01
001.382;000.100;57;000.336;MIDI 01
001.394;000.106;45;000.336;MIDI 01
001.500;000.207;58;000.398;MIDI 01
001.518;000.206;46;000.281;MIDI 01
001.720;000.331;51;000.297;MIDI 01
001.688;000.377;39;000.312;MIDI 01
002.653;000.055;54;000.141;MIDI 01
002.639;000.072;39;000.266;MIDI 01
002.647;000.067;58;000.258;MIDI 01
002.645;000.071;46;000.234;MIDI 01
002.651;000.067;51;000.195;MIDI 01
002.843;000.071;51;000.203;MIDI 01
002.861;000.059;46;000.172;MIDI 01
002.865;000.078;58;000.203;MIDI 01
002.878;000.077;54;000.156;MIDI 01
002.883;000.124;39;000.023;MIDI 01
003.035;000.098;39;000.117;MIDI 01
003.052;000.083;54;000.148;MIDI 01
003.044;000.100;46;000.211;MIDI 01
003.038;000.126;58;000.203;MIDI 01
003.036;000.134;51;000.203;MIDI 01
003.515;000.067;51;000.234;MIDI 01
003.530;000.053;54;000.203;MIDI 01
003.534;000.057;46;000.164;MIDI 01
003.522;000.073;58;000.234;MIDI 01
003.518;000.083;39;000.219;MIDI 01
003.749;000.049;54;000.312;MIDI 01
003.758;000.059;46;000.305;MIDI 01
003.753;000.070;51;000.250;MIDI 01
003.755;000.071;39;000.172;MIDI 01
003.758;000.078;58;000.227;MIDI 01
004.030;000.056;54;000.188;MIDI 01
004.025;000.065;51;000.273;MIDI 01
004.028;000.072;39;000.289;MIDI 01
004.014;000.092;46;000.266;MIDI 01
004.016;000.109;58;000.234;MIDI 01
004.570;000.076;46;000.180;MIDI 01
004.579;000.070;51;000.141;MIDI 01
004.562;000.089;39;000.211;MIDI 01
004.593;000.065;54;000.078;MIDI 01
004.577;000.092;58;000.180;MIDI 01
004.848;000.068;54;000.234;MIDI 01
004.865;000.073;51;000.188;MIDI 01
004.862;000.109;39;000.281;MIDI 01
004.860;000.139;58;000.234;MIDI 01
004.873;000.139;46;000.172;MIDI 01
005.293;000.076;54;000.148;MIDI 01
005.273;000.125;51;000.070;MIDI 01
005.249;000.260;46;000.211;MIDI 01
005.256;000.255;58;000.227;MIDI 01
005.271;000.272;39;000.148;MIDI 01
006.494;000.153;46;000.266;MIDI 01
006.491;000.193;58;000.328;MIDI 01
006.634;000.073;47;000.305;MIDI 01
006.642;000.070;59;000.359;MIDI 01
006.741;000.090;45;000.336;MIDI 01
006.751;000.081;57;000.344;MIDI 01
006.858;000.096;46;000.359;MIDI 01
006.847;000.164;58;000.445;MIDI 01
006.996;000.224;39;000.359;MIDI 01
007.024;000.265;51;000.297;MIDI 01
007.798;000.061;59;000.367;MIDI 01
007.809;000.051;44;000.352;MIDI 01
007.814;000.050;53;000.219;MIDI 01
007.819;000.047;51;000.234;MIDI 01
007.864;000.115;39;000.023;MIDI 01
007.972;000.043;53;000.336;MIDI 01
007.956;000.069;59;000.414;MIDI 01
008.005;000.040;51;000.305;MIDI 01
008.010;000.037;44;000.320;MIDI 01
008.141;000.060;53;000.461;MIDI 01
008.168;000.052;51;000.297;MIDI 01
008.128;000.093;59;000.367;MIDI 01
008.172;000.051;44;000.398;MIDI 01
008.573;000.045;53;000.328;MIDI 01
008.585;000.052;44;000.336;MIDI 01
008.555;000.083;59;000.422;MIDI 01
008.581;000.058;39;000.258;MIDI 01
008.578;000.064;51;000.297;MIDI 01
008.749;000.060;53;000.414;MIDI 01
008.750;000.090;59;000.453;MIDI 01
008.784;000.058;51;000.398;MIDI 01
008.803;000.056;39;000.312;MIDI 01
008.786;000.074;44;000.414;MIDI 01
009.009;000.058;39;000.281;MIDI 01
008.980;000.090;53;000.391;MIDI 01
008.996;000.086;51;000.383;MIDI 01
008.984;000.115;59;000.484;MIDI 01
009.011;000.093;44;000.406;MIDI 01
009.496;000.068;53;000.445;MIDI 01
009.519;000.057;51;000.375;MIDI 01
009.522;000.076;44;000.391;MIDI 01
009.489;000.113;59;000.492;MIDI 01
009.551;000.051;39;000.211;MIDI 01
009.761;000.075;39;000.367;MIDI 01
009.759;000.080;51;000.422;MIDI 01
009.752;000.100;53;000.508;MIDI 01
009.805;000.061;56;000.164;MIDI 01
009.757;000.111;44;000.469;MIDI 01
009.740;000.155;59;000.578;MIDI 01
010.132;000.169;51;000.391;MIDI 01
010.134;000.188;53;000.469;MIDI 01
010.104;000.314;59;000.508;MIDI 01
010.165;000.317;39;000.320;MIDI 01
010.159;000.341;44;000.359;MIDI 01
011.329;000.102;47;000.375;MIDI 01
011.329;000.118;59;000.391;MIDI 01
011.449;000.097;61;000.430;MIDI 01
011.439;000.111;49;000.461;MIDI 01
011.557;000.052;46;000.391;MIDI 01
011.555;000.091;58;000.453;MIDI 01
011.628;000.125;47;000.398;MIDI 01
011.653;000.104;59;000.469;MIDI 01
011.801;000.119;51;000.398;MIDI 01
011.795;000.167;39;000.445;MIDI 01
012.589;000.039;51;000.320;MIDI 01
012.577;000.054;59;000.414;MIDI 01
012.579;000.058;44;000.344;MIDI 01
012.609;000.051;53;000.234;MIDI 01
012.753;000.036;53;000.336;MIDI 01
012.745;000.048;59;000.500;MIDI 01
012.760;000.036;51;000.406;MIDI 01
012.767;000.047;44;000.445;MIDI 01
012.920;000.054;51;000.461;MIDI 01
012.911;000.068;53;000.461;MIDI 01
012.943;000.044;44;000.438;MIDI 01
012.929;000.068;39;000.109;MIDI 01
012.907;000.093;59;000.523;MIDI 01
013.346;000.039;53;000.398;MIDI 01
013.344;000.054;51;000.406;MIDI 01
013.348;000.060;44;000.414;MIDI 01
013.356;000.055;39;000.320;MIDI 01
013.326;000.088;59;000.523;MIDI 01
013.497;000.069;53;000.484;MIDI 01
013.525;000.060;51;000.492;MIDI 01
013.550;000.047;39;000.273;MIDI 01
013.551;000.048;44;000.453;MIDI 01
013.492;000.109;59;000.492;MIDI 01
013.711;000.052;39;000.445;MIDI 01
013.702;000.097;51;000.516;MIDI 01
013.714;000.095;53;000.523;MIDI 01
013.718;000.109;44;000.484;MIDI 01
013.777;000.062;56;000.164;MIDI 01
013.708;000.137;59;000.570;MIDI 01
014.213;000.068;53;000.500;MIDI 01
014.234;000.058;51;000.484;MIDI 01
014.261;000.045;39;000.352;MIDI 01
014.204;000.104;59;000.555;MIDI 01
014.240;000.085;44;000.477;MIDI 01
014.490;000.065;39;000.383;MIDI 01
014.480;000.076;51;000.523;MIDI 01
014.481;000.077;53;000.547;MIDI 01
014.488;000.073;44;000.516;MIDI 01
014.465;000.129;59;000.633;MIDI 01
014.867;000.227;51;000.500;MIDI 01
014.863;000.305;53;000.523;MIDI 01
014.851;000.391;59;000.617;MIDI 01
014.878;000.435;44;000.438;MIDI 01
014.876;000.458;39;000.453;MIDI 01
015.939;000.139;47;000.594;MIDI 01
015.960;000.131;59;000.664;MIDI 01
016.086;000.103;61;000.492;MIDI 01
016.081;000.134;49;000.562;MIDI 01
016.194;000.095;46;000.523;MIDI 01
016.202;000.101;58;000.562;MIDI 01
016.307;000.098;59;000.555;MIDI 01
016.294;000.117;47;000.547;MIDI 01
016.460;000.056;51;000.617;MIDI 01
016.458;000.096;39;000.641;MIDI 01
016.803;000.041;53;000.516;MIDI 01
016.806;000.045;51;000.453;MIDI 01
016.816;000.041;56;000.414;MIDI 01
016.809;000.051;44;000.469;MIDI 01
016.825;000.043;47;000.391;MIDI 01
016.799;000.073;59;000.609;MIDI 01
016.933;000.027;53;000.555;MIDI 01
016.930;000.043;59;000.438;MIDI 01
016.942;000.050;51;000.547;MIDI 01
016.950;000.052;44;000.539;MIDI 01
016.973;000.031;47;000.461;MIDI 01
017.035;000.053;53;000.531;MIDI 01
017.081;000.027;51;000.500;MIDI 01
017.083;000.027;44;000.430;MIDI 01
017.040;000.073;59;000.688;MIDI 01
017.101;000.050;47;000.336;MIDI 01
017.356;000.038;53;000.688;MIDI 01
017.347;000.051;51;000.492;MIDI 01
017.373;000.027;63;000.484;MIDI 01
017.354;000.052;44;000.484;MIDI 01
017.366;000.043;47;000.391;MIDI 01
017.368;000.043;65;000.594;MIDI 01
017.377;000.038;39;000.312;MIDI 01
017.471;000.043;53;000.609;MIDI 01
017.505;000.021;65;000.398;MIDI 01
017.518;000.015;63;000.414;MIDI 01
017.523;000.019;44;000.430;MIDI 01
017.510;000.050;51;000.539;MIDI 01
017.517;000.048;47;000.484;MIDI 01
017.520;000.071;39;000.414;MIDI 01
017.596;000.024;53;000.625;MIDI 01
017.614;000.040;44;000.539;MIDI 01
017.600;000.074;65;000.633;MIDI 01
017.602;000.073;63;000.664;MIDI 01
017.943;000.020;75;000.609;MIDI 01
017.930;000.038;65;000.742;MIDI 01
017.952;000.018;63;000.445;MIDI 01
017.939;000.038;77;000.625;MIDI 01
017.955;000.035;51;000.352;MIDI 01
017.953;000.040;56;000.469;MIDI 01
017.973;000.048;71;000.258;MIDI 01
018.005;000.073;59;000.117;MIDI 01
018.055;000.039;75;000.547;MIDI 01
018.053;000.049;65;000.664;MIDI 01
018.058;000.055;77;000.602;MIDI 01
018.084;000.032;63;000.508;MIDI 01
018.087;000.047;56;000.578;MIDI 01
018.082;000.062;59;000.344;MIDI 01
018.113;000.081;51;000.344;MIDI 01
018.177;000.052;65;000.727;MIDI 01
018.182;000.049;59;000.492;MIDI 01
018.179;000.061;75;000.664;MIDI 01
018.217;000.035;71;000.297;MIDI 01
018.215;000.043;51;000.266;MIDI 01
018.167;000.093;77;000.641;MIDI 01
018.499;000.033;63;000.570;MIDI 01
018.515;000.020;59;000.438;MIDI 01
018.492;000.044;65;000.719;MIDI 01
018.506;000.032;56;000.508;MIDI 01
018.511;000.027;75;000.492;MIDI 01
018.494;000.054;77;000.641;MIDI 01
018.619;000.038;75;000.617;MIDI 01
018.610;000.053;65;000.680;MIDI 01
018.621;000.046;63;000.602;MIDI 01
018.625;000.045;59;000.586;MIDI 01
018.611;000.060;77;000.594;MIDI 01
018.630;000.044;56;000.617;MIDI 01
018.646;000.030;51;000.273;MIDI 01
018.758;000.032;63;000.664;MIDI 01
018.752;000.051;65;000.734;MIDI 01
018.762;000.044;59;000.586;MIDI 01
018.755;000.057;56;000.625;MIDI 01
018.750;000.081;75;000.656;MIDI 01
018.745;000.093;77;000.672;MIDI 01
018.812;000.049;51;000.172;MIDI 01
019.057;000.044;65;000.758;MIDI 01
019.078;000.031;63;000.570;MIDI 01
019.093;000.020;71;000.391;MIDI 01
019.067;000.049;75;000.703;MIDI 01
019.065;000.056;77;000.695;MIDI 01
019.113;000.018;56;000.336;MIDI 01
019.102;000.033;59;000.383;MIDI 01
019.194;000.046;63;000.539;MIDI 01
019.224;000.025;65;000.734;MIDI 01
019.236;000.021;77;000.664;MIDI 01
019.214;000.066;56;000.586;MIDI 01
019.232;000.052;75;000.711;MIDI 01
019.218;000.073;51;000.039;MIDI 01
019.552;000.093;38;000.633;MIDI 01
019.599;000.048;39;000.305;MIDI 01
019.549;000.123;50;000.680;MIDI 01
019.546;000.307;82;000.727;MIDI 01
019.549;000.314;77;000.609;MIDI 01
019.540;000.347;70;000.258;MIDI 01
020.009;000.039;58;000.539;MIDI 01
020.034;000.017;50;000.406;MIDI 01
020.032;000.028;53;000.469;MIDI 01
020.132;000.051;58;000.594;MIDI 01
020.136;000.053;50;000.586;MIDI 01
020.150;000.042;53;000.586;MIDI 01
020.266;000.048;58;000.602;MIDI 01
020.264;000.055;53;000.547;MIDI 01
020.266;000.062;50;000.516;MIDI 01
020.540;000.030;58;000.516;MIDI 01
020.552;000.036;50;000.430;MIDI 01
020.550;000.041;53;000.445;MIDI 01
020.669;000.039;53;000.578;MIDI 01
020.683;000.030;58;000.359;MIDI 01
020.688;000.031;50;000.477;MIDI 01
020.853;000.177;58;000.438;MIDI 01
020.909;000.132;50;000.273;MIDI 01
020.914;000.166;51;000.367;MIDI 01
020.911;000.179;55;000.422;MIDI 01
021.191;000.047;58;000.492;MIDI 01
021.205;000.050;49;000.414;MIDI 01
021.201;000.062;55;000.438;MIDI 01
020.849;000.422;63;000.711;MIDI 01
021.340;000.032;58;000.492;MIDI 01
021.355;000.047;49;000.492;MIDI 01
021.367;000.047;55;000.227;MIDI 01
021.355;000.068;51;000.430;MIDI 01
021.602;000.083;63;000.562;MIDI 01
021.691;000.102;65;000.570;MIDI 01
021.570;000.234;47;000.453;MIDI 01
021.558;000.258;58;000.461;MIDI 01
021.571;000.269;51;000.484;MIDI 01
021.794;000.057;63;000.531;MIDI 01
021.863;000.068;65;000.484;MIDI 01
021.949;000.043;63;000.523;MIDI 01
021.952;000.052;47;000.484;MIDI 01
021.947;000.059;58;000.516;MIDI 01
021.969;000.044;51;000.445;MIDI 01
022.041;000.035;65;000.289;MIDI 01
022.116;000.030;63;000.414;MIDI 01
022.132;000.049;47;000.539;MIDI 01
022.123;000.072;58;000.570;MIDI 01
022.128;000.073;51;000.500;MIDI 01
022.163;000.053;65;000.492;MIDI 01
022.228;000.084;63;000.578;MIDI 01
022.295;000.062;58;000.594;MIDI 01
022.300;000.060;47;000.523;MIDI 01
022.306;000.056;51;000.516;MIDI 01
022.347;000.039;62;000.516;MIDI 01
022.421;000.032;63;000.508;MIDI 01
022.541;000.029;64;000.484;MIDI 01
022.536;000.069;65;000.398;MIDI 01
022.597;000.109;66;000.570;MIDI 01
022.694;000.045;68;000.539;MIDI 01
022.580;000.170;58;000.547;MIDI 01
022.577;000.183;47;000.430;MIDI 01
022.726;000.041;70;000.555;MIDI 01
022.611;000.228;51;000.469;MIDI 01
022.810;000.046;71;000.562;MIDI 01
022.905;000.053;73;000.594;MIDI 01
022.972;000.040;75;000.570;MIDI 01
023.068;000.069;77;000.641;MIDI 01
022.930;000.211;56;000.578;MIDI 01
022.935;000.250;47;000.500;MIDI 01
023.141;000.097;78;000.570;MIDI 01
023.203;000.079;80;000.586;MIDI 01
022.939;000.353;51;000.414;MIDI 01
023.248;000.061;82;000.586;MIDI 01
023.305;000.079;47;000.594;MIDI 01
023.335;000.074;83;000.641;MIDI 01
023.309;000.113;57;000.625;MIDI 01
023.307;000.148;51;000.484;MIDI 01
023.429;000.107;85;000.672;MIDI 01
023.521;000.081;87;000.688;MIDI 01
023.625;000.035;88;000.367;MIDI 01
023.623;000.142;89;000.727;MIDI 01
023.811;000.044;46;000.586;MIDI 01
023.805;000.090;51;000.664;MIDI 01
023.801;000.100;58;000.711;MIDI 01
023.844;000.059;89;000.109;MIDI 01
023.807;000.114;54;000.602;MIDI 01
023.809;000.448;90;000.773;MIDI 01
024.307;000.035;70;000.609;MIDI 01
024.322;000.035;63;000.477;MIDI 01
024.324;000.035;66;000.461;MIDI 01
024.443;000.049;66;000.578;MIDI 01
024.445;000.050;63;000.578;MIDI 01
024.433;000.066;70;000.555;MIDI 01
024.547;000.052;58;000.164;MIDI 01
024.582;000.028;63;000.562;MIDI 01
024.551;000.068;70;000.539;MIDI 01
024.567;000.062;66;000.625;MIDI 01
024.692;000.040;63;000.250;MIDI 01
024.708;000.171;87;000.672;MIDI 01
024.880;000.054;70;000.625;MIDI 01
024.883;000.057;66;000.469;MIDI 01
024.877;000.082;63;000.500;MIDI 01
024.920;000.042;58;000.281;MIDI 01
024.868;000.149;82;000.656;MIDI 01
025.017;000.075;78;000.664;MIDI 01
025.160;000.157;70;000.578;MIDI 01
025.254;000.076;77;000.555;MIDI 01
025.176;000.219;62;000.469;MIDI 01
025.325;000.096;78;000.609;MIDI 01
025.196;000.232;68;000.531;MIDI 01
025.415;000.076;77;000.555;MIDI 01
025.152;000.344;58;000.352;MIDI 01
025.491;000.119;76;000.617;MIDI 01
025.584;000.114;77;000.680;MIDI 01
025.586;000.171;68;000.570;MIDI 01
025.599;000.214;62;000.438;MIDI 01
025.571;000.269;58;000.336;MIDI 01
025.974;000.196;82;000.586;MIDI 01
026.176;000.349;51;000.367;MIDI 01
026.674;000.095;66;000.375;MIDI 01
026.706;000.273;63;000.242;MIDI 01
026.956;000.212;54;000.461;MIDI 01
027.246;000.152;66;000.391;MIDI 01
027.198;000.345;63;000.273;MIDI 01
026.178;001.380;75;000.492;MIDI 01
027.728;000.114;74;000.469;MIDI 01
027.742;000.127;66;000.289;MIDI 01
027.474;000.512;58;000.414;MIDI 01
027.855;000.204;75;000.500;MIDI 01
027.744;000.324;63;000.305;MIDI 01
028.026;000.131;78;000.477;MIDI 01
028.161;000.062;77;000.531;MIDI 01
028.006;000.344;57;000.359;MIDI 01
028.290;000.106;77;000.422;MIDI 01
028.414;000.099;72;000.492;MIDI 01
028.384;000.160;65;000.109;MIDI 01
028.335;000.334;63;000.312;MIDI 01
028.631;000.276;56;000.367;MIDI 01
028.930;000.175;65;000.320;MIDI 01
028.934;000.245;62;000.336;MIDI 01
028.606;000.618;71;000.516;MIDI 01
029.173;000.165;54;000.438;MIDI 01
029.295;000.104;70;000.477;MIDI 01
029.426;000.100;66;000.305;MIDI 01
029.410;000.124;74;000.516;MIDI 01
029.426;000.282;63;000.336;MIDI 01
029.539;000.172;75;000.539;MIDI 01
029.683;000.127;78;000.508;MIDI 01
029.805;000.054;77;000.555;MIDI 01
029.648;000.339;57;000.438;MIDI 01
029.932;000.127;77;000.516;MIDI 01
030.072;000.174;72;000.602;MIDI 01
030.019;000.230;65;000.289;MIDI 01
029.972;000.431;63;000.297;MIDI 01
030.334;000.276;56;000.359;MIDI 01
030.633;000.199;65;000.156;MIDI 01
030.288;000.593;71;000.531;MIDI 01
030.642;000.276;62;000.281;MIDI 01
030.875;000.189;54;000.453;MIDI 01
030.999;000.091;70;000.438;MIDI 01
031.169;000.071;66;000.250;MIDI 01
031.125;000.126;74;000.461;MIDI 01
031.128;000.151;58;000.305;MIDI 01
031.248;000.082;75;000.578;MIDI 01
031.167;000.375;63;000.297;MIDI 01
031.454;000.126;78;000.547;MIDI 01
031.647;000.055;77;000.523;MIDI 01
031.469;000.270;57;000.461;MIDI 01
031.758;000.036;60;000.398;MIDI 01
031.735;000.074;63;000.406;MIDI 01
031.794;000.041;76;000.383;MIDI 01
031.803;000.038;77;000.391;MIDI 01
031.920;000.057;72;000.508;MIDI 01
032.047;000.131;80;000.555;MIDI 01
032.163;000.077;79;000.539;MIDI 01
032.024;000.241;58;000.477;MIDI 01
032.301;000.047;79;000.406;MIDI 01
032.345;000.085;67;000.195;MIDI 01
032.293;000.188;61;000.398;MIDI 01
032.444;000.077;75;000.539;MIDI 01
032.316;000.234;63;000.344;MIDI 01
032.535;000.139;82;000.578;MIDI 01
032.668;000.047;80;000.555;MIDI 01
032.541;000.334;59;000.422;MIDI 01
032.801;000.081;80;000.562;MIDI 01
032.809;000.098;63;000.352;MIDI 01
032.917;000.082;75;000.547;MIDI 01
032.857;000.225;68;000.281;MIDI 01
033.041;000.156;83;000.586;MIDI 01
033.197;000.044;82;000.453;MIDI 01
033.315;000.079;82;000.586;MIDI 01
033.307;000.125;70;000.453;MIDI 01
033.432;000.098;77;000.562;MIDI 01
033.303;000.271;65;000.438;MIDI 01
033.057;000.530;62;000.492;MIDI 01
033.539;000.139;83;000.594;MIDI 01
033.679;000.036;82;000.602;MIDI 01
033.534;000.322;63;000.516;MIDI 01
033.794;000.096;82;000.602;MIDI 01
033.837;000.116;70;000.359;MIDI 01
033.925;000.132;81;000.562;MIDI 01
033.834;000.230;66;000.422;MIDI 01
034.042;000.133;82;000.555;MIDI 01
034.168;000.088;83;000.641;MIDI 01
034.045;000.255;58;000.516;MIDI 01
034.329;000.116;70;000.398;MIDI 01
034.445;000.105;90;000.672;MIDI 01
034.318;000.254;82;000.633;MIDI 01
034.290;000.361;66;000.367;MIDI 01
034.693;000.174;90;000.602;MIDI 01
034.829;000.060;89;000.570;MIDI 01
034.961;000.111;89;000.562;MIDI 01
035.080;000.053;83;000.570;MIDI 01
034.987;000.156;71;000.297;MIDI 01
034.589;000.788;62;000.539;MIDI 01
034.958;000.427;68;000.406;MIDI 01
035.661;000.200;71;000.438;MIDI 01
035.698;000.298;66;000.391;MIDI 01
035.268;000.735;63;000.422;MIDI 01
035.273;000.801;83;000.594;MIDI 01
035.994;000.230;58;000.508;MIDI 01
036.129;000.101;82;000.508;MIDI 01
036.222;000.139;85;000.547;MIDI 01
036.284;000.123;86;000.445;MIDI 01
036.263;000.154;70;000.398;MIDI 01
036.255;000.306;66;000.312;MIDI 01
036.378;000.186;87;000.594;MIDI 01
036.534;000.119;90;000.586;MIDI 01
036.659;000.051;89;000.594;MIDI 01
036.785;000.103;89;000.547;MIDI 01
036.923;000.067;83;000.578;MIDI 01
036.831;000.204;71;000.281;MIDI 01
036.494;000.576;62;000.477;MIDI 01
036.828;000.340;68;000.391;MIDI 01
037.106;000.398;63;000.359;MIDI 01
037.469;000.246;66;000.359;MIDI 01
037.426;000.378;71;000.398;MIDI 01
037.090;000.766;83;000.562;MIDI 01
037.848;000.058;82;000.383;MIDI 01
037.715;000.265;61;000.422;MIDI 01
038.007;000.087;82;000.531;MIDI 01
038.025;000.107;70;000.312;MIDI 01
038.154;000.094;88;000.500;MIDI 01
038.072;000.310;64;000.188;MIDI 01
038.047;000.423;67;000.266;MIDI 01
038.360;000.139;88;000.555;MIDI 01
038.511;000.043;87;000.547;MIDI 01
038.348;000.341;59;000.438;MIDI 01
038.649;000.110;87;000.594;MIDI 01
038.654;000.143;68;000.375;MIDI 01
038.776;000.090;80;000.578;MIDI 01
038.659;000.285;63;000.422;MIDI 01
038.886;000.136;89;000.656;MIDI 01
039.020;000.066;87;000.648;MIDI 01
038.913;000.314;58;000.523;MIDI 01
039.168;000.096;70;000.555;MIDI 01
039.155;000.160;87;000.602;MIDI 01
039.297;000.091;78;000.633;MIDI 01
039.193;000.316;63;000.469;MIDI 01
039.444;000.173;89;000.680;MIDI 01
039.444;000.209;56;000.609;MIDI 01
039.604;000.099;87;000.664;MIDI 01
039.802;000.225;71;000.570;MIDI 01
039.800;000.302;87;000.688;MIDI 01
039.806;000.309;65;000.500;MIDI 01
039.803;000.370;63;000.438;MIDI 01
040.027;000.191;77;000.617;MIDI 01
041.493;000.039;71;000.078;MIDI 01
041.593;000.195;71;000.141;MIDI 01
041.769;000.076;62;000.398;MIDI 01
041.115;000.798;56;000.203;MIDI 01
041.131;000.922;46;000.156;MIDI 01
042.579;000.331;56;000.242;MIDI 01
041.954;001.218;62;000.414;MIDI 01
042.591;001.390;46;000.164;MIDI 01
043.350;000.649;39;000.188;MIDI 01
043.322;000.714;63;000.273;MIDI 01
043.347;000.714;54;000.172;MIDI 01
044.589;000.125;58;000.281;MIDI 01
044.621;000.183;46;000.195;MIDI 01
044.740;000.101;59;000.312;MIDI 01
044.782;000.081;47;000.219;MIDI 01
044.881;000.084;57;000.289;MIDI 01
044.879;000.105;45;000.281;MIDI 01
045.064;000.092;46;000.078;MIDI 01
045.001;000.222;58;000.312;MIDI 01
045.183;000.289;51;000.281;MIDI 01
045.189;000.328;39;000.258;MIDI 01
046.098;000.059;51;000.242;MIDI 01
046.106;000.057;46;000.203;MIDI 01
046.115;000.052;54;000.164;MIDI 01
046.122;000.051;58;000.180;MIDI 01
046.101;000.075;39;000.219;MIDI 01
046.301;000.053;51;000.188;MIDI 01
046.305;000.051;46;000.281;MIDI 01
046.300;000.069;39;000.203;MIDI 01
046.306;000.067;58;000.281;MIDI 01
046.315;000.062;54;000.141;MIDI 01
046.502;000.064;51;000.273;MIDI 01
046.514;000.057;54;000.227;MIDI 01
046.517;000.062;46;000.227;MIDI 01
046.504;000.095;39;000.164;MIDI 01
046.482;000.177;58;000.227;MIDI 01
046.913;000.049;54;000.289;MIDI 01
046.900;000.077;39;000.266;MIDI 01
046.910;000.069;51;000.258;MIDI 01
046.908;000.081;46;000.289;MIDI 01
046.902;000.100;58;000.242;MIDI 01
047.131;000.048;54;000.289;MIDI 01
047.128;000.057;51;000.195;MIDI 01
047.140;000.064;46;000.250;MIDI 01
047.142;000.068;39;000.188;MIDI 01
047.100;000.212;58;000.172;MIDI 01
047.370;000.067;54;000.273;MIDI 01
047.379;000.068;51;000.266;MIDI 01
047.388;000.085;39;000.234;MIDI 01
047.385;000.138;46;000.305;MIDI 01
047.897;000.056;54;000.188;MIDI 01
047.881;000.078;51;000.195;MIDI 01
047.883;000.078;46;000.250;MIDI 01
047.893;000.083;39;000.164;MIDI 01
047.867;000.224;58;000.164;MIDI 01
048.158;000.082;51;000.211;MIDI 01
048.173;000.097;46;000.203;MIDI 01
048.171;000.101;39;000.211;MIDI 01
048.141;000.139;54;000.305;MIDI 01
048.553;000.253;51;000.219;MIDI 01
048.566;000.285;54;000.203;MIDI 01
048.580;000.296;46;000.195;MIDI 01
048.572;000.320;39;000.227;MIDI 01
049.761;000.145;58;000.422;MIDI 01
049.771;000.140;46;000.336;MIDI 01
049.906;000.064;47;000.352;MIDI 01
049.910;000.085;59;000.406;MIDI 01
049.996;000.090;45;000.344;MIDI 01
050.013;000.080;57;000.375;MIDI 01
050.122;000.076;58;000.422;MIDI 01
050.125;000.080;46;000.375;MIDI 01
050.252;000.224;39;000.336;MIDI 01
050.258;000.281;51;000.344;MIDI 01
050.966;000.046;59;000.352;MIDI 01
050.974;000.040;53;000.312;MIDI 01
050.980;000.047;51;000.297;MIDI 01
050.989;000.053;44;000.320;MIDI 01
050.998;000.120;39;000.109;MIDI 01
051.122;000.065;59;000.406;MIDI 01
051.136;000.061;44;000.367;MIDI 01
051.140;000.059;51;000.352;MIDI 01
051.146;000.055;53;000.289;MIDI 01
051.321;000.064;51;000.398;MIDI 01
051.330;000.066;44;000.414;MIDI 01
051.312;000.086;59;000.422;MIDI 01
051.346;000.055;56;000.227;MIDI 01
051.326;000.087;53;000.375;MIDI 01
051.307;000.133;39;000.164;MIDI 01
051.745;000.062;53;000.375;MIDI 01
051.743;000.066;59;000.422;MIDI 01
051.758;000.052;44;000.375;MIDI 01
051.747;000.066;51;000.383;MIDI 01
051.774;000.048;56;000.250;MIDI 01
051.764;000.060;39;000.289;MIDI 01
051.926;000.064;53;000.398;MIDI 01
051.949;000.049;51;000.406;MIDI 01
051.951;000.060;44;000.391;MIDI 01
051.923;000.098;59;000.469;MIDI 01
051.975;000.048;39;000.281;MIDI 01
051.990;000.051;56;000.164;MIDI 01
052.180;000.066;39;000.344;MIDI 01
052.205;000.043;56;000.297;MIDI 01
052.144;000.106;53;000.398;MIDI 01
052.145;000.115;51;000.430;MIDI 01
052.146;000.139;59;000.430;MIDI 01
052.167;000.121;44;000.422;MIDI 01
052.707;000.041;56;000.258;MIDI 01
052.666;000.097;53;000.414;MIDI 01
052.692;000.082;51;000.297;MIDI 01
052.708;000.069;39;000.266;MIDI 01
052.660;000.120;59;000.469;MIDI 01
052.682;000.101;44;000.398;MIDI 01
052.994;000.059;56;000.180;MIDI 01
052.931;000.153;53;000.508;MIDI 01
052.970;000.130;39;000.359;MIDI 01
052.935;000.183;59;000.555;MIDI 01
052.972;000.149;44;000.469;MIDI 01
052.959;000.167;51;000.406;MIDI 01
053.332;000.264;51;000.367;MIDI 01
053.335;000.291;53;000.406;MIDI 01
053.309;000.390;59;000.469;MIDI 01
053.385;000.356;56;000.211;MIDI 01
053.349;000.460;39;000.320;MIDI 01
053.351;000.506;44;000.328;MIDI 01
054.505;000.137;47;000.375;MIDI 01
054.507;000.152;59;000.352;MIDI 01
054.659;000.081;61;000.422;MIDI 01
054.664;000.082;49;000.406;MIDI 01
054.751;000.061;46;000.375;MIDI 01
054.758;000.077;58;000.422;MIDI 01
054.849;000.099;59;000.453;MIDI 01
054.840;000.120;47;000.398;MIDI 01
054.990;000.109;51;000.391;MIDI 01
055.002;000.172;39;000.305;MIDI 01
055.710;000.035;53;000.344;MIDI 01
055.696;000.054;59;000.422;MIDI 01
055.706;000.046;51;000.352;MIDI 01
055.714;000.046;44;000.344;MIDI 01
055.736;000.084;39;000.125;MIDI 01
055.870;000.028;53;000.414;MIDI 01
055.868;000.044;51;000.438;MIDI 01
055.843;000.071;59;000.508;MIDI 01
055.857;000.080;39;000.156;MIDI 01
055.882;000.059;44;000.375;MIDI 01
056.024;000.067;51;000.492;MIDI 01
056.040;000.054;39;000.305;MIDI 01
056.013;000.099;53;000.500;MIDI 01
056.033;000.083;44;000.453;MIDI 01
056.020;000.114;59;000.500;MIDI 01
056.089;000.047;56;000.211;MIDI 01
056.459;000.053;53;000.445;MIDI 01
056.467;000.052;51;000.414;MIDI 01
056.477;000.055;39;000.312;MIDI 01
056.449;000.086;59;000.516;MIDI 01
056.461;000.077;44;000.422;MIDI 01
056.636;000.079;51;000.484;MIDI 01
056.625;000.093;53;000.523;MIDI 01
056.679;000.049;39;000.414;MIDI 01
056.672;000.060;44;000.461;MIDI 01
056.623;000.111;59;000.555;MIDI 01
056.684;000.066;56;000.078;MIDI 01
056.853;000.061;39;000.484;MIDI 01
056.844;000.085;51;000.508;MIDI 01
056.890;000.048;56;000.344;MIDI 01
056.854;000.085;53;000.539;MIDI 01
056.858;000.117;44;000.453;MIDI 01
056.836;000.139;59;000.602;MIDI 01
057.341;000.050;53;000.523;MIDI 01
057.355;000.075;51;000.555;MIDI 01
057.383;000.050;39;000.414;MIDI 01
057.330;000.106;59;000.617;MIDI 01
057.367;000.085;44;000.477;MIDI 01
057.628;000.054;56;000.430;MIDI 01
057.634;000.059;39;000.406;MIDI 01
057.621;000.099;51;000.609;MIDI 01
057.609;000.122;53;000.617;MIDI 01
057.619;000.125;44;000.570;MIDI 01
057.596;000.174;59;000.641;MIDI 01
058.032;000.316;51;000.617;MIDI 01
058.036;000.375;53;000.578;MIDI 01
058.015;000.436;59;000.672;MIDI 01
058.040;000.439;39;000.523;MIDI 01
058.050;000.503;44;000.469;MIDI 01
059.067;000.138;47;000.625;MIDI 01
059.075;000.133;59;000.664;MIDI 01
059.214;000.111;61;000.523;MIDI 01
059.208;000.127;49;000.570;MIDI 01
059.319;000.099;46;000.492;MIDI 01
059.346;000.087;58;000.555;MIDI 01
059.414;000.114;47;000.539;MIDI 01
059.433;000.100;59;000.602;MIDI 01
059.572;000.086;51;000.656;MIDI 01
059.578;000.124;39;000.648;MIDI 01
059.945;000.039;53;000.539;MIDI 01
059.947;000.044;51;000.500;MIDI 01
059.949;000.048;44;000.508;MIDI 01
059.960;000.039;56;000.383;MIDI 01
059.970;000.032;47;000.359;MIDI 01
059.932;000.073;59;000.609;MIDI 01
060.005;000.084;39;000.102;MIDI 01
060.065;000.029;53;000.578;MIDI 01
060.062;000.033;59;000.508;MIDI 01
060.079;000.040;51;000.625;MIDI 01
060.085;000.042;44;000.555;MIDI 01
060.123;000.054;56;000.258;MIDI 01
060.119;000.064;47;000.477;MIDI 01
060.192;000.021;51;000.523;MIDI 01
060.194;000.028;53;000.500;MIDI 01
060.206;000.033;47;000.391;MIDI 01
060.212;000.029;44;000.531;MIDI 01
060.182;000.064;59;000.719;MIDI 01
060.094;000.197;39;000.164;MIDI 01
060.493;000.028;53;000.625;MIDI 01
060.487;000.038;51;000.562;MIDI 01
060.497;000.031;63;000.570;MIDI 01
060.492;000.043;65;000.609;MIDI 01
060.501;000.040;39;000.406;MIDI 01
060.495;000.048;44;000.469;MIDI 01
060.510;000.035;47;000.430;MIDI 01
060.590;000.053;53;000.648;MIDI 01
060.614;000.033;63;000.555;MIDI 01
060.605;000.048;65;000.516;MIDI 01
060.622;000.034;59;000.242;MIDI 01
060.627;000.036;51;000.570;MIDI 01
060.638;000.040;47;000.562;MIDI 01
060.642;000.042;44;000.523;MIDI 01
060.725;000.025;53;000.617;MIDI 01
060.647;000.106;39;000.469;MIDI 01
060.728;000.046;44;000.539;MIDI 01
060.715;000.082;65;000.562;MIDI 01
060.723;000.075;63;000.695;MIDI 01
060.848;000.035;53;000.156;MIDI 01
061.059;000.023;75;000.594;MIDI 01
061.044;000.049;65;000.711;MIDI 01
061.076;000.020;51;000.430;MIDI 01
061.053;000.048;77;000.656;MIDI 01
061.069;000.034;63;000.484;MIDI 01
061.074;000.039;56;000.508;MIDI 01
061.071;000.044;59;000.477;MIDI 01
061.164;000.046;65;000.648;MIDI 01
061.184;000.027;77;000.484;MIDI 01
061.182;000.043;71;000.188;MIDI 01
061.160;000.067;75;000.602;MIDI 01
061.197;000.040;63;000.617;MIDI 01
061.210;000.031;51;000.438;MIDI 01
061.202;000.042;56;000.562;MIDI 01
061.199;000.047;59;000.586;MIDI 01
061.300;000.052;65;000.734;MIDI 01
061.295;000.061;75;000.617;MIDI 01
061.299;000.062;59;000.531;MIDI 01
061.286;000.087;77;000.695;MIDI 01
061.343;000.043;51;000.234;MIDI 01
061.590;000.038;65;000.695;MIDI 01
061.604;000.025;75;000.547;MIDI 01
061.601;000.039;63;000.609;MIDI 01
061.591;000.050;77;000.656;MIDI 01
061.620;000.028;56;000.516;MIDI 01
061.622;000.033;59;000.477;MIDI 01
061.717;000.024;65;000.719;MIDI 01
061.727;000.026;75;000.508;MIDI 01
061.720;000.055;77;000.641;MIDI 01
061.733;000.067;63;000.625;MIDI 01
061.745;000.073;51;000.055;MIDI 01
061.741;000.160;56;000.625;MIDI 01
061.759;000.144;59;000.562;MIDI 01
061.837;000.068;65;000.734;MIDI 01
061.845;000.074;75;000.664;MIDI 01
061.827;000.111;77;000.633;MIDI 01
062.153;000.032;65;000.719;MIDI 01
062.159;000.031;63;000.617;MIDI 01
062.155;000.039;75;000.703;MIDI 01
062.170;000.040;56;000.539;MIDI 01
062.151;000.064;77;000.688;MIDI 01
062.172;000.045;59;000.523;MIDI 01
062.290;000.045;63;000.461;MIDI 01
062.304;000.038;65;000.734;MIDI 01
062.296;000.050;59;000.539;MIDI 01
062.307;000.068;77;000.672;MIDI 01
062.303;000.080;75;000.727;MIDI 01
062.301;000.093;56;000.531;MIDI 01
062.305;000.096;51;000.195;MIDI 01
062.559;000.058;70;000.148;MIDI 01
062.646;000.104;38;000.633;MIDI 01
062.648;000.107;78;000.672;MIDI 01
062.651;000.146;50;000.672;MIDI 01
062.821;000.286;77;000.312;MIDI 01
063.079;000.045;58;000.602;MIDI 01
063.102;000.027;50;000.445;MIDI 01
062.641;000.493;82;000.664;MIDI 01
063.097;000.040;53;000.484;MIDI 01
062.639;000.512;70;000.625;MIDI 01
063.223;000.036;50;000.523;MIDI 01
063.225;000.036;53;000.578;MIDI 01
063.215;000.052;58;000.656;MIDI 01
063.344;000.033;50;000.492;MIDI 01
063.335;000.047;58;000.562;MIDI 01
063.342;000.057;53;000.555;MIDI 01
063.616;000.041;58;000.477;MIDI 01
063.643;000.025;53;000.359;MIDI 01
063.635;000.039;50;000.336;MIDI 01
063.754;000.041;53;000.539;MIDI 01
063.749;000.053;58;000.578;MIDI 01
063.758;000.046;50;000.547;MIDI 01
063.967;000.208;58;000.531;MIDI 01
063.965;000.214;49;000.547;MIDI 01
064.029;000.179;51;000.406;MIDI 01
063.995;000.226;55;000.492;MIDI 01
064.318;000.057;58;000.562;MIDI 01
064.328;000.064;49;000.523;MIDI 01
064.324;000.070;55;000.453;MIDI 01
064.473;000.043;58;000.508;MIDI 01
064.480;000.076;51;000.555;MIDI 01
063.962;000.601;63;000.719;MIDI 01
064.769;000.074;63;000.547;MIDI 01
064.844;000.116;65;000.594;MIDI 01
064.671;000.295;47;000.578;MIDI 01
064.671;000.298;58;000.461;MIDI 01
064.698;000.275;51;000.516;MIDI 01
064.979;000.044;63;000.508;MIDI 01
065.023;000.081;65;000.516;MIDI 01
065.103;000.054;58;000.555;MIDI 01
065.116;000.044;63;000.547;MIDI 01
065.110;000.051;47;000.484;MIDI 01
065.119;000.060;51;000.484;MIDI 01
065.188;000.059;65;000.477;MIDI 01
065.274;000.042;63;000.477;MIDI 01
065.277;000.043;51;000.531;MIDI 01
065.270;000.054;47;000.484;MIDI 01
065.266;000.067;58;000.570;MIDI 01
065.328;000.074;65;000.484;MIDI 01
065.415;000.064;58;000.531;MIDI 01
065.430;000.050;47;000.477;MIDI 01
065.399;000.085;63;000.516;MIDI 01
065.417;000.091;51;000.539;MIDI 01
065.505;000.045;62;000.547;MIDI 01
065.590;000.027;63;000.500;MIDI 01
065.695;000.085;65;000.555;MIDI 01
065.698;000.153;58;000.539;MIDI 01
065.708;000.169;47;000.469;MIDI 01
065.776;000.110;66;000.531;MIDI 01
065.881;000.039;68;000.547;MIDI 01
065.714;000.217;51;000.453;MIDI 01
065.904;000.036;70;000.555;MIDI 01
065.989;000.039;71;000.602;MIDI 01
066.081;000.059;73;000.578;MIDI 01
066.133;000.048;75;000.586;MIDI 01
066.025;000.185;56;000.609;MIDI 01
066.041;000.175;47;000.531;MIDI 01
066.050;000.216;51;000.477;MIDI 01
066.225;000.076;77;000.625;MIDI 01
066.311;000.076;78;000.617;MIDI 01
066.355;000.077;80;000.594;MIDI 01
066.416;000.045;82;000.555;MIDI 01
066.400;000.087;47;000.586;MIDI 01
066.406;000.085;57;000.586;MIDI 01
066.423;000.129;51;000.617;MIDI 01
066.485;000.083;83;000.633;MIDI 01
066.582;000.101;85;000.695;MIDI 01
066.658;000.079;87;000.688;MIDI 01
066.761;000.189;89;000.742;MIDI 01
066.935;000.044;46;000.617;MIDI 01
066.930;000.091;58;000.656;MIDI 01
066.940;000.086;51;000.625;MIDI 01
066.938;000.108;54;000.641;MIDI 01
066.933;000.414;90;000.781;MIDI 01
067.420;000.025;70;000.602;MIDI 01
067.425;000.039;63;000.500;MIDI 01
067.431;000.042;66;000.453;MIDI 01
067.439;000.043;58;000.352;MIDI 01
067.559;000.035;63;000.562;MIDI 01
067.573;000.030;66;000.562;MIDI 01
067.541;000.074;70;000.539;MIDI 01
067.582;000.057;58;000.492;MIDI 01
067.652;000.067;70;000.539;MIDI 01
067.668;000.057;63;000.555;MIDI 01
067.683;000.044;66;000.641;MIDI 01
067.812;000.159;87;000.672;MIDI 01
067.981;000.064;70;000.562;MIDI 01
067.989;000.058;66;000.469;MIDI 01
067.979;000.091;63;000.531;MIDI 01
068.010;000.061;58;000.352;MIDI 01
067.961;000.144;82;000.648;MIDI 01
068.105;000.070;78;000.617;MIDI 01
068.244;000.124;70;000.562;MIDI 01
068.306;000.080;77;000.547;MIDI 01
068.253;000.168;58;000.352;MIDI 01
068.295;000.133;62;000.414;MIDI 01
068.271;000.184;68;000.469;MIDI 01
068.385;000.100;78;000.617;MIDI 01
068.480;000.082;77;000.602;MIDI 01
068.567;000.091;76;000.625;MIDI 01
068.640;000.119;77;000.672;MIDI 01
068.649;000.191;68;000.508;MIDI 01
068.686;000.212;62;000.477;MIDI 01
068.647;000.332;58;000.367;MIDI 01
069.052;000.256;82;000.602;MIDI 01
069.282;000.353;51;000.391;MIDI 01
069.831;000.119;66;000.352;MIDI 01
069.874;000.265;63;000.195;MIDI 01
070.128;000.250;54;000.430;MIDI 01
070.450;000.147;66;000.352;MIDI 01
069.265;001.423;75;000.516;MIDI 01
070.408;000.291;63;000.211;MIDI 01
070.927;000.102;74;000.414;MIDI 01
070.954;000.194;66;000.273;MIDI 01
070.671;000.500;58;000.352;MIDI 01
071.065;000.202;75;000.438;MIDI 01
070.952;000.323;63;000.234;MIDI 01
071.237;000.125;78;000.391;MIDI 01
071.380;000.072;77;000.492;MIDI 01
071.235;000.323;57;000.336;MIDI 01
071.631;000.061;72;000.531;MIDI 01
071.635;000.061;65;000.102;MIDI 01
071.554;000.293;63;000.312;MIDI 01
071.857;000.253;56;000.352;MIDI 01
072.136;000.176;65;000.336;MIDI 01
072.139;000.255;62;000.328;MIDI 01
071.823;000.578;71;000.484;MIDI 01
072.394;000.150;54;000.461;MIDI 01
072.477;000.099;70;000.445;MIDI 01
072.608;000.122;74;000.492;MIDI 01
072.645;000.114;66;000.328;MIDI 01
072.730;000.144;75;000.547;MIDI 01
072.632;000.248;63;000.328;MIDI 01
072.869;000.118;78;000.523;MIDI 01
072.990;000.046;77;000.539;MIDI 01
072.872;000.296;57;000.438;MIDI 01
073.115;000.099;77;000.562;MIDI 01
073.191;000.207;65;000.258;MIDI 01
073.250;000.156;72;000.602;MIDI 01
073.133;000.407;63;000.312;MIDI 01
073.481;000.278;56;000.391;MIDI 01
073.751;000.211;65;000.273;MIDI 01
073.764;000.235;62;000.336;MIDI 01
073.421;000.630;71;000.578;MIDI 01
073.993;000.188;54;000.445;MIDI 01
074.108;000.122;70;000.414;MIDI 01
074.245;000.132;74;000.469;MIDI 01
074.372;000.084;75;000.547;MIDI 01
074.234;000.229;58;000.328;MIDI 01
074.278;000.393;63;000.320;MIDI 01
074.598;000.123;78;000.539;MIDI 01
074.787;000.053;77;000.516;MIDI 01
074.596;000.272;57;000.414;MIDI 01
074.906;000.028;60;000.359;MIDI 01
074.877;000.065;63;000.383;MIDI 01
074.926;000.055;77;000.461;MIDI 01
075.067;000.077;72;000.477;MIDI 01
075.204;000.083;80;000.570;MIDI 01
075.323;000.085;79;000.586;MIDI 01
075.193;000.229;58;000.484;MIDI 01
075.435;000.091;61;000.344;MIDI 01
075.478;000.070;79;000.336;MIDI 01
075.461;000.157;63;000.344;MIDI 01
075.554;000.069;67;000.047;MIDI 01
075.595;000.049;75;000.508;MIDI 01
075.681;000.131;82;000.578;MIDI 01
075.812;000.048;80;000.539;MIDI 01
075.939;000.080;80;000.562;MIDI 01
075.967;000.064;63;000.383;MIDI 01
075.726;000.325;59;000.305;MIDI 01
076.020;000.130;68;000.164;MIDI 01
076.067;000.085;75;000.562;MIDI 01
076.195;000.140;83;000.578;MIDI 01
076.332;000.040;82;000.602;MIDI 01
076.447;000.085;82;000.570;MIDI 01
076.456;000.101;70;000.414;MIDI 01
076.203;000.464;62;000.469;MIDI 01
076.579;000.118;77;000.539;MIDI 01
076.463;000.262;65;000.406;MIDI 01
076.684;000.146;83;000.586;MIDI 01
076.815;000.047;82;000.602;MIDI 01
076.950;000.075;82;000.500;MIDI 01
076.967;000.125;70;000.367;MIDI 01
076.681;000.483;63;000.523;MIDI 01
077.070;000.102;81;000.555;MIDI 01
076.992;000.189;66;000.414;MIDI 01
077.198;000.118;82;000.531;MIDI 01
077.309;000.102;83;000.609;MIDI 01
077.180;000.316;58;000.500;MIDI 01
077.455;000.185;70;000.414;MIDI 01
077.589;000.111;90;000.688;MIDI 01
077.456;000.358;82;000.633;MIDI 01
077.431;000.393;66;000.367;MIDI 01
077.835;000.165;90;000.633;MIDI 01
077.957;000.056;89;000.570;MIDI 01
078.086;000.122;89;000.594;MIDI 01
078.223;000.055;83;000.633;MIDI 01
078.157;000.153;71;000.180;MIDI 01
077.727;000.799;62;000.531;MIDI 01
078.111;000.438;68;000.391;MIDI 01
078.820;000.164;71;000.445;MIDI 01
078.418;000.679;63;000.422;MIDI 01
078.869;000.304;66;000.344;MIDI 01
078.419;000.756;83;000.602;MIDI 01
079.127;000.201;58;000.492;MIDI 01
079.246;000.126;82;000.500;MIDI 01
079.382;000.139;86;000.469;MIDI 01
079.378;000.161;70;000.391;MIDI 01
079.380;000.345;66;000.352;MIDI 01
079.520;000.230;87;000.609;MIDI 01
079.721;000.130;90;000.562;MIDI 01
079.847;000.049;89;000.461;MIDI 01
079.980;000.093;89;000.625;MIDI 01
080.048;000.144;71;000.117;MIDI 01
080.105;000.087;83;000.547;MIDI 01
080.023;000.311;68;000.352;MIDI 01
079.634;000.702;62;000.430;MIDI 01
080.305;000.457;63;000.328;MIDI 01
080.599;000.334;71;000.461;MIDI 01
080.275;000.709;83;000.516;MIDI 01
080.625;000.373;66;000.375;MIDI 01
081.022;000.040;82;000.453;MIDI 01
080.916;000.236;61;000.430;MIDI 01
081.165;000.085;82;000.539;MIDI 01
081.188;000.105;70;000.344;MIDI 01
081.329;000.069;88;000.500;MIDI 01
081.223;000.319;64;000.242;MIDI 01
081.201;000.425;67;000.359;MIDI 01
081.514;000.119;88;000.523;MIDI 01
081.648;000.051;87;000.539;MIDI 01
081.783;000.111;87;000.531;MIDI 01
081.479;000.420;59;000.453;MIDI 01
081.798;000.190;68;000.336;MIDI 01
081.921;000.071;80;000.523;MIDI 01
081.815;000.275;63;000.336;MIDI 01
082.034;000.155;89;000.602;MIDI 01
082.182;000.049;87;000.594;MIDI 01
082.298;000.086;70;000.516;MIDI 01
082.037;000.401;58;000.562;MIDI 01
082.317;000.134;87;000.578;MIDI 01
082.439;000.116;78;000.570;MIDI 01
082.323;000.364;63;000.336;MIDI 01
082.591;000.192;89;000.656;MIDI 01
082.589;000.259;56;000.594;MIDI 01
082.756;000.107;87;000.688;MIDI 01
082.995;000.367;71;000.539;MIDI 01
082.993;000.370;87;000.719;MIDI 01
083.000;000.458;65;000.516;MIDI 01
082.985;000.518;63;000.422;MIDI 01
083.264;000.240;77;000.609;MIDI 01
084.934;000.071;71;000.094;MIDI 01
085.055;000.217;71;000.312;MIDI 01
084.572;000.721;56;000.242;MIDI 01
085.227;000.075;62;000.492;MIDI 01
084.599;000.832;46;000.156;MIDI 01
085.963;000.365;56;000.281;MIDI 01
085.384;001.380;62;000.477;MIDI 01
086.742;000.789;63;000.258;MIDI 01
086.778;000.765;54;000.156;MIDI 01
085.993;001.554;46;000.211;MIDI 01
086.771;000.778;39;000.195;MIDI 01
088.226;000.088;53;000.211;MIDI 01
088.221;000.148;37;000.250;MIDI 01
088.192;000.178;65;000.352;MIDI 01
088.216;000.168;56;000.234;MIDI 01
088.224;000.179;49;000.258;MIDI 01
089.253;000.034;49;000.336;MIDI 01
089.257;000.035;42;000.430;MIDI 01
089.266;000.036;58;000.312;MIDI 01
089.245;000.061;61;000.477;MIDI 01
089.570;000.042;56;000.500;MIDI 01
089.574;000.048;65;000.445;MIDI 01
089.589;000.037;49;000.438;MIDI 01
089.592;000.037;37;000.359;MIDI 01
089.744;000.001;56;000.164;MIDI 01
089.710;000.078;63;000.500;MIDI 01
089.867;000.033;42;000.500;MIDI 01
089.864;000.046;61;000.531;MIDI 01
089.870;000.047;49;000.297;MIDI 01
090.214;000.048;59;000.453;MIDI 01
090.225;000.041;49;000.422;MIDI 01
090.221;000.050;37;000.359;MIDI 01
090.223;000.056;68;000.508;MIDI 01
090.261;000.064;65;000.086;MIDI 01
090.620;000.026;56;000.430;MIDI 01
090.603;000.047;68;000.523;MIDI 01
090.607;000.045;49;000.453;MIDI 01
090.638;000.042;59;000.297;MIDI 01
090.766;000.032;49;000.523;MIDI 01
090.745;000.053;68;000.570;MIDI 01
090.758;000.042;56;000.531;MIDI 01
090.900;000.033;56;000.523;MIDI 01
090.903;000.032;49;000.500;MIDI 01
090.893;000.105;70;000.602;MIDI 01
091.025;000.099;68;000.586;MIDI 01
091.168;000.002;66;000.359;MIDI 01
091.199;000.028;49;000.422;MIDI 01
091.186;000.043;65;000.508;MIDI 01
091.206;000.031;56;000.320;MIDI 01
091.204;000.035;59;000.352;MIDI 01
091.297;000.072;61;000.594;MIDI 01
091.343;000.036;49;000.531;MIDI 01
091.473;000.042;54;000.469;MIDI 01
091.464;000.078;70;000.484;MIDI 01
091.515;000.045;58;000.211;MIDI 01
091.518;000.061;42;000.203;MIDI 01
091.794;000.030;46;000.414;MIDI 01
091.804;000.041;58;000.492;MIDI 01
091.799;000.053;66;000.562;MIDI 01
092.184;000.050;56;000.453;MIDI 01
092.167;000.132;65;000.469;MIDI 01
092.189;000.120;49;000.438;MIDI 01
092.191;000.144;61;000.391;MIDI 01
093.114;000.047;42;000.422;MIDI 01
093.117;000.046;49;000.328;MIDI 01
093.111;000.057;61;000.461;MIDI 01
093.138;000.052;58;000.305;MIDI 01
093.430;000.024;56;000.383;MIDI 01
093.421;000.035;37;000.508;MIDI 01
093.424;000.036;65;000.383;MIDI 01
093.454;000.040;49;000.336;MIDI 01
093.561;000.066;63;000.461;MIDI 01
093.609;000.054;56;000.133;MIDI 01
093.722;000.040;49;000.312;MIDI 01
093.729;000.035;41;000.414;MIDI 01
093.711;000.073;61;000.531;MIDI 01
093.756;000.068;56;000.078;MIDI 01
093.869;000.030;42;000.492;MIDI 01
094.017;000.034;44;000.508;MIDI 01
094.060;000.049;60;000.312;MIDI 01
094.039;000.079;63;000.453;MIDI 01
094.393;000.040;60;000.453;MIDI 01
094.400;000.034;56;000.438;MIDI 01
094.395;000.042;63;000.430;MIDI 01
094.396;000.043;44;000.383;MIDI 01
094.549;000.035;60;000.344;MIDI 01
094.551;000.036;44;000.500;MIDI 01
094.552;000.038;56;000.508;MIDI 01
094.541;000.051;63;000.547;MIDI 01
094.674;000.056;61;000.508;MIDI 01
094.682;000.052;44;000.547;MIDI 01
094.685;000.050;56;000.492;MIDI 01
094.676;000.074;65;000.516;MIDI 01
094.848;000.042;60;000.359;MIDI 01
094.831;000.133;63;000.469;MIDI 01
094.971;000.037;56;000.500;MIDI 01
094.969;000.042;58;000.523;MIDI 01
094.975;000.040;44;000.484;MIDI 01
094.973;000.056;61;000.523;MIDI 01
095.111;000.042;44;000.547;MIDI 01
095.122;000.036;60;000.367;MIDI 01
095.128;000.042;56;000.352;MIDI 01
095.114;000.070;63;000.508;MIDI 01
095.264;000.030;56;000.562;MIDI 01
095.277;000.037;49;000.445;MIDI 01
095.300;000.029;61;000.375;MIDI 01
095.269;000.106;65;000.484;MIDI 01
095.609;000.031;53;000.516;MIDI 01
095.621;000.027;56;000.414;MIDI 01
095.622;000.034;49;000.477;MIDI 01
095.604;000.054;61;000.445;MIDI 01
095.999;000.055;56;000.352;MIDI 01
096.023;000.049;61;000.414;MIDI 01
096.000;000.089;49;000.391;MIDI 01
096.003;000.103;65;000.547;MIDI 01
097.006;000.036;61;000.430;MIDI 01
097.004;000.041;54;000.492;MIDI 01
096.996;000.051;66;000.523;MIDI 01
097.026;000.040;70;000.328;MIDI 01
096.999;000.069;73;000.523;MIDI 01
097.309;000.034;77;000.422;MIDI 01
097.317;000.030;49;000.531;MIDI 01
097.307;000.041;65;000.516;MIDI 01
097.326;000.026;76;000.461;MIDI 01
097.324;000.032;61;000.516;MIDI 01
097.432;000.085;75;000.633;MIDI 01
097.609;000.033;61;000.477;MIDI 01
097.621;000.028;66;000.352;MIDI 01
097.618;000.038;54;000.547;MIDI 01
097.596;000.080;73;000.656;MIDI 01
097.941;000.048;49;000.547;MIDI 01
097.950;000.044;37;000.523;MIDI 01
097.948;000.051;77;000.539;MIDI 01
097.946;000.062;71;000.562;MIDI 01
097.944;000.104;80;000.594;MIDI 01
098.412;000.019;71;000.406;MIDI 01
098.396;000.047;80;000.531;MIDI 01
098.427;000.036;56;000.305;MIDI 01
098.431;000.069;53;000.109;MIDI 01
098.542;000.040;71;000.492;MIDI 01
098.561;000.027;65;000.383;MIDI 01
098.549;000.047;80;000.562;MIDI 01
098.558;000.045;61;000.289;MIDI 01
098.577;000.032;56;000.406;MIDI 01
098.703;000.020;71;000.398;MIDI 01
098.698;000.029;65;000.484;MIDI 01
098.689;000.059;53;000.242;MIDI 01
098.693;000.116;82;000.609;MIDI 01
098.767;000.052;56;000.133;MIDI 01
098.816;000.119;80;000.570;MIDI 01
098.973;000.030;65;000.508;MIDI 01
098.958;000.060;71;000.172;MIDI 01
099.013;000.065;61;000.289;MIDI 01
098.947;000.137;77;000.594;MIDI 01
099.081;000.052;61;000.320;MIDI 01
099.077;000.073;73;000.641;MIDI 01
099.090;000.065;56;000.203;MIDI 01
099.277;000.026;42;000.531;MIDI 01
099.267;000.036;54;000.555;MIDI 01
099.279;000.036;73;000.297;MIDI 01
099.244;000.105;82;000.547;MIDI 01
099.259;000.095;70;000.508;MIDI 01
099.576;000.036;70;000.586;MIDI 01
099.597;000.024;58;000.578;MIDI 01
099.602;000.025;46;000.539;MIDI 01
099.579;000.050;78;000.555;MIDI 01
099.966;000.058;65;000.562;MIDI 01
099.968;000.060;49;000.555;MIDI 01
099.977;000.080;61;000.555;MIDI 01
099.958;000.122;77;000.602;MIDI 01
099.982;000.108;68;000.453;MIDI 01
100.013;000.085;73;000.375;MIDI 01
100.897;000.045;61;000.500;MIDI 01
100.909;000.044;54;000.508;MIDI 01
100.902;000.054;66;000.562;MIDI 01
100.917;000.050;70;000.492;MIDI 01
100.929;000.093;73;000.516;MIDI 01
101.221;000.034;77;000.570;MIDI 01
101.228;000.029;49;000.609;MIDI 01
101.237;000.022;65;000.492;MIDI 01
101.236;000.039;37;000.492;MIDI 01
101.388;000.032;65;000.320;MIDI 01
101.355;000.082;75;000.570;MIDI 01
101.505;000.028;53;000.602;MIDI 01
101.511;000.024;41;000.570;MIDI 01
101.529;000.028;65;000.406;MIDI 01
101.502;000.099;73;000.555;MIDI 01
101.654;000.034;54;000.625;MIDI 01
101.668;000.039;42;000.531;MIDI 01
101.833;000.049;44;000.570;MIDI 01
101.836;000.050;56;000.617;MIDI 01
101.839;000.070;66;000.586;MIDI 01
101.835;000.114;75;000.617;MIDI 01
102.272;000.041;60;000.422;MIDI 01
102.276;000.045;66;000.523;MIDI 01
102.279;000.046;51;000.359;MIDI 01
102.282;000.049;56;000.391;MIDI 01
102.280;000.055;75;000.516;MIDI 01
102.424;000.043;66;000.469;MIDI 01
102.428;000.047;60;000.477;MIDI 01
102.430;000.047;51;000.500;MIDI 01
102.434;000.052;56;000.461;MIDI 01
102.432;000.056;75;000.547;MIDI 01
102.562;000.045;60;000.500;MIDI 01
102.573;000.036;51;000.508;MIDI 01
102.598;000.034;56;000.438;MIDI 01
102.565;000.076;77;000.578;MIDI 01
102.626;000.054;76;000.219;MIDI 01
102.698;000.079;75;000.586;MIDI 01
102.836;000.042;60;000.562;MIDI 01
102.831;000.051;51;000.555;MIDI 01
102.842;000.048;66;000.555;MIDI 01
102.850;000.044;56;000.375;MIDI 01
102.834;000.104;73;000.594;MIDI 01
102.979;000.058;68;000.531;MIDI 01
102.966;000.089;75;000.578;MIDI 01
102.994;000.080;56;000.609;MIDI 01
103.037;000.057;60;000.094;MIDI 01
103.150;000.036;61;000.586;MIDI 01
103.143;000.050;65;000.609;MIDI 01
103.152;000.045;49;000.617;MIDI 01
103.126;000.081;77;000.664;MIDI 01
103.477;000.043;49;000.695;MIDI 01
103.482;000.058;37;000.641;MIDI 01
103.484;000.060;61;000.633;MIDI 01
103.486;000.059;73;000.688;MIDI 01
103.967;000.168;61;000.633;MIDI 01
103.970;000.168;37;000.625;MIDI 01
103.965;000.219;49;000.672;MIDI 01
103.963;000.223;73;000.703;MIDI 01
104.336;000.058;51;000.625;MIDI 01
104.342;000.066;75;000.609;MIDI 01
104.340;000.121;39;000.547;MIDI 01
104.453;000.096;63;000.594;MIDI 01
104.527;000.080;75;000.609;MIDI 01
104.657;000.072;40;000.586;MIDI 01
104.659;000.123;52;000.633;MIDI 01
104.669;000.231;64;000.664;MIDI 01
104.655;000.252;76;000.680;MIDI 01
105.136;000.028;64;000.523;MIDI 01
105.134;000.047;61;000.500;MIDI 01
105.139;000.045;51;000.438;MIDI 01
105.147;000.039;69;000.391;MIDI 01
105.119;000.079;76;000.570;MIDI 01
105.152;000.048;57;000.383;MIDI 01
105.282;000.026;69;000.555;MIDI 01
105.273;000.042;64;000.516;MIDI 01
105.282;000.042;61;000.562;MIDI 01
105.277;000.049;76;000.531;MIDI 01
105.308;000.030;52;000.375;MIDI 01
105.300;000.043;57;000.508;MIDI 01
105.399;000.042;69;000.539;MIDI 01
105.423;000.039;52;000.578;MIDI 01
105.428;000.038;57;000.562;MIDI 01
105.412;000.061;64;000.609;MIDI 01
105.409;000.071;61;000.570;MIDI 01
105.403;000.108;76;000.633;MIDI 01
105.745;000.019;69;000.500;MIDI 01
105.743;000.026;52;000.414;MIDI 01
105.741;000.041;57;000.500;MIDI 01
105.721;000.062;61;000.570;MIDI 01
105.739;000.047;64;000.562;MIDI 01
105.730;000.114;76;000.625;MIDI 01
106.081;000.029;68;000.531;MIDI 01
106.075;000.046;64;000.609;MIDI 01
106.078;000.059;62;000.508;MIDI 01
106.083;000.073;52;000.516;MIDI 01
106.076;000.104;59;000.523;MIDI 01
106.079;000.105;76;000.602;MIDI 01
106.414;000.032;68;000.562;MIDI 01
106.420;000.033;62;000.500;MIDI 01
106.440;000.025;74;000.438;MIDI 01
106.416;000.056;59;000.477;MIDI 01
106.435;000.041;52;000.398;MIDI 01
106.422;000.075;76;000.578;MIDI 01
106.571;000.033;68;000.406;MIDI 01
106.582;000.039;74;000.383;MIDI 01
106.567;000.057;62;000.531;MIDI 01
106.577;000.050;59;000.547;MIDI 01
106.591;000.043;52;000.477;MIDI 01
106.555;000.085;76;000.508;MIDI 01
106.736;000.034;74;000.375;MIDI 01
106.728;000.047;52;000.516;MIDI 01
106.705;000.076;68;000.586;MIDI 01
106.730;000.066;62;000.516;MIDI 01
106.728;000.071;59;000.461;MIDI 01
106.697;000.144;78;000.625;MIDI 01
106.882;000.021;74;000.461;MIDI 01
106.848;000.076;76;000.578;MIDI 01
106.996;000.034;69;000.617;MIDI 01
107.006;000.026;74;000.586;MIDI 01
107.004;000.030;62;000.516;MIDI 01
106.993;000.053;76;000.469;MIDI 01
107.005;000.044;52;000.453;MIDI 01
107.000;000.061;59;000.531;MIDI 01
107.002;000.061;81;000.617;MIDI 01
107.124;000.044;74;000.469;MIDI 01
107.154;000.020;71;000.531;MIDI 01
107.149;000.028;76;000.430;MIDI 01
107.159;000.036;52;000.477;MIDI 01
107.161;000.050;62;000.430;MIDI 01
107.177;000.036;81;000.430;MIDI 01
107.173;000.045;59;000.406;MIDI 01
107.143;000.076;83;000.586;MIDI 01
107.328;000.029;64;000.547;MIDI 01
107.330;000.033;76;000.453;MIDI 01
107.323;000.070;57;000.578;MIDI 01
107.314;000.083;61;000.625;MIDI 01
107.317;000.082;73;000.664;MIDI 01
107.311;000.108;85;000.688;MIDI 01
107.660;000.034;57;000.680;MIDI 01
107.658;000.061;45;000.672;MIDI 01
107.670;000.058;69;000.711;MIDI 01
107.668;000.071;81;000.719;MIDI 01
108.090;000.166;69;000.672;MIDI 01
108.098;000.186;45;000.703;MIDI 01
108.085;000.207;81;000.695;MIDI 01
108.094;000.224;33;000.633;MIDI 01
108.456;000.074;46;000.562;MIDI 01
108.444;000.091;82;000.617;MIDI 01
108.455;000.103;34;000.594;MIDI 01
108.554;000.113;70;000.656;MIDI 01
108.627;000.101;82;000.617;MIDI 01
108.828;000.138;36;000.633;MIDI 01
108.830;000.180;48;000.641;MIDI 01
108.809;000.205;72;000.641;MIDI 01
108.799;000.239;84;000.672;MIDI 01
109.292;000.037;60;000.547;MIDI 01
109.297;000.035;57;000.469;MIDI 01
109.287;000.047;72;000.562;MIDI 01
109.312;000.027;77;000.359;MIDI 01
109.299;000.046;48;000.406;MIDI 01
109.285;000.071;84;000.586;MIDI 01
109.429;000.035;72;000.562;MIDI 01
109.442;000.031;77;000.500;MIDI 01
109.447;000.050;60;000.484;MIDI 01
109.423;000.078;84;000.477;MIDI 01
109.450;000.071;57;000.477;MIDI 01
109.559;000.046;60;000.445;MIDI 01
109.592;000.027;77;000.469;MIDI 01
109.473;000.183;48;000.367;MIDI 01
109.576;000.082;72;000.570;MIDI 01
109.575;000.118;84;000.555;MIDI 01
109.894;000.043;72;000.609;MIDI 01
109.915;000.026;60;000.477;MIDI 01
109.898;000.052;84;000.617;MIDI 01
109.907;000.045;57;000.500;MIDI 01
109.947;000.047;48;000.195;MIDI 01
110.048;000.052;60;000.500;MIDI 01
110.072;000.033;77;000.352;MIDI 01
110.050;000.058;57;000.562;MIDI 01
110.070;000.044;48;000.305;MIDI 01
110.046;000.070;72;000.578;MIDI 01
110.050;000.068;84;000.602;MIDI 01
110.237;000.055;76;000.539;MIDI 01
110.224;000.106;60;000.570;MIDI 01
110.218;000.115;72;000.656;MIDI 01
110.259;000.076;58;000.414;MIDI 01
110.234;000.115;48;000.500;MIDI 01
110.250;000.128;55;000.531;MIDI 01
110.220;000.164;84;000.633;MIDI 01
110.552;000.049;60;000.469;MIDI 01
110.558;000.045;58;000.414;MIDI 01
110.571;000.034;76;000.453;MIDI 01
110.549;000.061;48;000.414;MIDI 01
110.554;000.058;72;000.594;MIDI 01
110.554;000.060;55;000.461;MIDI 01
110.548;000.088;84;000.609;MIDI 01
110.704;000.044;76;000.539;MIDI 01
110.713;000.047;72;000.547;MIDI 01
110.706;000.055;60;000.570;MIDI 01
110.710;000.054;84;000.484;MIDI 01
110.708;000.057;58;000.492;MIDI 01
110.723;000.044;55;000.461;MIDI 01
110.729;000.043;48;000.445;MIDI 01
110.852;000.047;74;000.594;MIDI 01
110.857;000.047;84;000.539;MIDI 01
110.850;000.058;86;000.469;MIDI 01
110.874;000.039;60;000.430;MIDI 01
110.880;000.032;77;000.406;MIDI 01
110.871;000.053;58;000.547;MIDI 01
110.869;000.059;55;000.547;MIDI 01
110.990;000.042;72;000.656;MIDI 01
111.002;000.031;76;000.523;MIDI 01
110.984;000.070;84;000.570;MIDI 01
111.162;000.034;77;000.609;MIDI 01
111.169;000.030;81;000.484;MIDI 01
111.149;000.059;89;000.727;MIDI 01
111.150;000.065;60;000.547;MIDI 01
111.165;000.062;58;000.461;MIDI 01
111.160;000.081;55;000.461;MIDI 01
111.302;000.026;77;000.398;MIDI 01
111.292;000.052;79;000.703;MIDI 01
111.308;000.037;82;000.664;MIDI 01
111.338;000.033;60;000.352;MIDI 01
111.304;000.075;91;000.688;MIDI 01
111.138;000.250;48;000.523;MIDI 01
111.335;000.054;55;000.391;MIDI 01
111.344;000.067;58;000.438;MIDI 01
111.489;000.048;60;000.633;MIDI 01
111.479;000.067;85;000.617;MIDI 01
111.486;000.070;81;000.633;MIDI 01
111.477;000.081;93;000.742;MIDI 01
111.484;000.081;57;000.648;MIDI 01
111.485;000.097;53;000.617;MIDI 01
111.868;000.050;41;000.641;MIDI 01
111.866;000.054;53;000.672;MIDI 01
111.902;000.031;82;000.305;MIDI 01
111.855;000.082;89;000.727;MIDI 01
111.857;000.093;77;000.734;MIDI 01
111.872;000.119;81;000.578;MIDI 01
112.352;000.082;54;000.578;MIDI 01
112.402;000.064;41;000.219;MIDI 01
112.434;000.071;43;000.031;MIDI 01
112.345;000.225;90;000.766;MIDI 01
112.350;000.224;78;000.719;MIDI 01
112.357;000.231;81;000.664;MIDI 01
112.761;000.070;41;000.602;MIDI 01
112.784;000.050;44;000.359;MIDI 01
112.941;000.039;44;000.453;MIDI 01
112.916;000.092;41;000.594;MIDI 01
112.912;000.102;87;000.523;MIDI 01
112.971;000.084;84;000.547;MIDI 01
113.082;000.033;81;000.508;MIDI 01
113.120;000.043;44;000.398;MIDI 01
113.098;000.102;41;000.633;MIDI 01
113.169;000.135;78;000.625;MIDI 01
113.260;000.081;75;000.539;MIDI 01
113.324;000.046;72;000.484;MIDI 01
113.369;000.053;74;000.234;MIDI 01
113.419;000.029;69;000.469;MIDI 01
113.382;000.129;41;000.586;MIDI 01
113.503;000.138;66;000.617;MIDI 01
113.568;000.120;63;000.578;MIDI 01
113.633;000.103;60;000.594;MIDI 01
113.785;000.053;44;000.281;MIDI 01
113.724;000.136;57;000.648;MIDI 01
113.722;000.165;41;000.578;MIDI 01
112.348;001.623;51;000.641;MIDI 01
114.070;000.260;52;000.680;MIDI 01
114.069;000.293;58;000.641;MIDI 01
114.061;000.412;61;000.633;MIDI 01
114.478;000.159;57;000.422;MIDI 01
114.485;000.182;60;000.469;MIDI 01
114.505;000.176;53;000.398;MIDI 01
114.073;000.626;41;000.602;MIDI 01
114.857;000.043;54;000.594;MIDI 01
114.868;000.034;66;000.594;MIDI 01
114.878;000.027;78;000.609;MIDI 01
114.874;000.035;41;000.492;MIDI 01
115.020;000.024;77;000.602;MIDI 01
115.024;000.022;65;000.594;MIDI 01
115.019;000.041;53;000.539;MIDI 01
115.022;000.046;41;000.570;MIDI 01
115.211;000.057;52;000.266;MIDI 01
115.170;000.106;41;000.484;MIDI 01
115.172;000.124;64;000.531;MIDI 01
115.237;000.080;53;000.055;MIDI 01
115.176;000.165;76;000.508;MIDI 01
115.492;000.025;77;000.586;MIDI 01
115.472;000.046;53;000.531;MIDI 01
115.484;000.034;41;000.477;MIDI 01
115.496;000.025;65;000.570;MIDI 01
115.639;000.031;64;000.570;MIDI 01
115.649;000.026;76;000.578;MIDI 01
115.643;000.037;52;000.570;MIDI 01
115.635;000.078;41;000.539;MIDI 01
115.808;000.074;75;000.578;MIDI 01
115.806;000.098;63;000.562;MIDI 01
115.836;000.105;41;000.391;MIDI 01
115.834;000.109;51;000.430;MIDI 01
116.128;000.033;50;000.508;MIDI 01
116.132;000.040;74;000.625;MIDI 01
116.134;000.042;62;000.617;MIDI 01
116.136;000.043;41;000.469;MIDI 01
116.294;000.034;41;000.508;MIDI 01
116.296;000.034;61;000.555;MIDI 01
116.298;000.041;73;000.570;MIDI 01
116.311;000.033;49;000.484;MIDI 01
116.467;000.040;60;000.602;MIDI 01
116.459;000.072;48;000.578;MIDI 01
116.457;000.080;41;000.445;MIDI 01
116.470;000.076;72;000.586;MIDI 01
116.865;000.040;54;000.742;MIDI 01
116.868;000.046;41;000.680;MIDI 01
116.867;000.096;78;000.727;MIDI 01
116.857;000.195;90;000.742;MIDI 01
117.065;000.042;54;000.688;MIDI 01
117.067;000.054;41;000.578;MIDI 01
117.049;000.129;87;000.586;MIDI 01
117.119;000.090;84;000.508;MIDI 01
117.233;000.032;81;000.516;MIDI 01
117.258;000.033;41;000.531;MIDI 01
117.246;000.052;54;000.617;MIDI 01
117.328;000.135;78;000.586;MIDI 01
117.410;000.057;76;000.547;MIDI 01
117.495;000.041;72;000.320;MIDI 01
117.532;000.029;54;000.656;MIDI 01
117.522;000.051;73;000.141;MIDI 01
117.536;000.043;41;000.438;MIDI 01
117.552;000.045;69;000.500;MIDI 01
117.645;000.142;66;000.609;MIDI 01
117.696;000.129;63;000.531;MIDI 01
117.772;000.096;60;000.625;MIDI 01
117.867;000.123;57;000.609;MIDI 01
117.869;000.173;54;000.609;MIDI 01
117.872;000.175;41;000.539;MIDI 01
118.205;000.279;52;000.617;MIDI 01
118.200;000.344;58;000.625;MIDI 01
118.194;000.399;61;000.625;MIDI 01
118.629;000.198;57;000.344;MIDI 01
118.198;000.650;41;000.609;MIDI 01
118.641;000.221;60;000.445;MIDI 01
118.690;000.195;53;000.336;MIDI 01
119.040;000.040;54;000.516;MIDI 01
119.049;000.032;41;000.469;MIDI 01
119.055;000.028;78;000.609;MIDI 01
119.051;000.034;66;000.609;MIDI 01
119.204;000.037;65;000.555;MIDI 01
119.207;000.035;77;000.531;MIDI 01
119.198;000.051;41;000.508;MIDI 01
119.222;000.046;53;000.328;MIDI 01
119.388;000.091;52;000.406;MIDI 01
119.365;000.116;64;000.531;MIDI 01
119.371;000.118;41;000.445;MIDI 01
119.375;000.117;76;000.484;MIDI 01
119.667;000.033;77;000.578;MIDI 01
119.668;000.034;53;000.539;MIDI 01
119.672;000.032;65;000.531;MIDI 01
119.670;000.039;41;000.492;MIDI 01
119.834;000.021;76;000.562;MIDI 01
119.826;000.034;64;000.578;MIDI 01
119.819;000.043;52;000.547;MIDI 01
119.815;000.065;41;000.500;MIDI 01
119.995;000.090;63;000.547;MIDI 01
119.996;000.119;75;000.539;MIDI 01
119.999;000.125;41;000.500;MIDI 01
120.003;000.134;51;000.500;MIDI 01
120.306;000.038;50;000.484;MIDI 01
120.321;000.032;74;000.570;MIDI 01
120.317;000.040;41;000.453;MIDI 01
120.322;000.035;62;000.531;MIDI 01
120.469;000.042;61;000.539;MIDI 01
120.472;000.046;41;000.484;MIDI 01
120.474;000.047;73;000.484;MIDI 01
120.479;000.046;49;000.500;MIDI 01
120.644;000.062;60;000.461;MIDI 01
120.664;000.077;48;000.367;MIDI 01
120.672;000.072;41;000.367;MIDI 01
120.635;000.110;72;000.500;MIDI 01
120.967;000.032;41;000.508;MIDI 01
120.969;000.032;64;000.570;MIDI 01
120.975;000.029;76;000.492;MIDI 01
120.981;000.029;53;000.398;MIDI 01
120.989;000.029;77;000.359;MIDI 01
120.991;000.041;52;000.305;MIDI 01
121.109;000.034;76;000.570;MIDI 01
121.117;000.029;52;000.531;MIDI 01
121.102;000.046;64;000.461;MIDI 01
121.104;000.048;41;000.539;MIDI 01
121.276;000.090;41;000.500;MIDI 01
121.274;000.096;51;000.531;MIDI 01
121.264;000.146;75;000.594;MIDI 01
121.261;000.152;63;000.578;MIDI 01
121.576;000.043;52;000.547;MIDI 01
121.582;000.045;41;000.500;MIDI 01
121.596;000.043;64;000.586;MIDI 01
121.591;000.055;76;000.617;MIDI 01
121.749;000.044;63;000.578;MIDI 01
121.746;000.048;75;000.602;MIDI 01
121.743;000.052;51;000.555;MIDI 01
121.760;000.036;41;000.391;MIDI 01
121.917;000.049;50;000.484;MIDI 01
121.972;000.002;64;000.055;MIDI 01
121.907;000.078;41;000.508;MIDI 01
121.905;000.091;74;000.609;MIDI 01
121.919;000.086;62;000.547;MIDI 01
122.218;000.027;49;000.578;MIDI 01
122.220;000.030;61;000.586;MIDI 01
122.222;000.029;73;000.586;MIDI 01
122.372;000.031;60;000.602;MIDI 01
122.370;000.037;72;000.641;MIDI 01
122.383;000.046;48;000.555;MIDI 01
122.541;000.052;58;000.594;MIDI 01
122.562;000.034;41;000.336;MIDI 01
122.539;000.108;46;000.578;MIDI 01
122.536;000.127;70;000.641;MIDI 01
122.881;000.029;41;000.516;MIDI 01
122.877;000.040;63;000.633;MIDI 01
122.879;000.053;75;000.656;MIDI 01
122.907;000.050;50;000.312;MIDI 01
123.041;000.038;50;000.547;MIDI 01
123.028;000.052;74;000.625;MIDI 01
123.025;000.059;62;000.664;MIDI 01
123.022;000.065;41;000.500;MIDI 01
123.189;000.043;50;000.461;MIDI 01
123.231;000.002;48;000.281;MIDI 01
123.186;000.078;41;000.586;MIDI 01
123.193;000.105;61;000.680;MIDI 01
123.195;000.152;73;000.672;MIDI 01
123.528;000.027;63;000.625;MIDI 01
123.530;000.027;75;000.680;MIDI 01
123.526;000.033;51;000.586;MIDI 01
123.539;000.036;41;000.508;MIDI 01
123.676;000.054;61;000.656;MIDI 01
123.678;000.057;41;000.531;MIDI 01
123.679;000.058;49;000.609;MIDI 01
123.681;000.058;73;000.602;MIDI 01
123.865;000.084;48;000.617;MIDI 01
123.848;000.102;60;000.648;MIDI 01
123.857;000.097;41;000.562;MIDI 01
123.845;000.111;72;000.688;MIDI 01
124.167;000.031;58;000.609;MIDI 01
124.165;000.040;70;000.656;MIDI 01
124.158;000.054;46;000.555;MIDI 01
124.169;000.046;41;000.453;MIDI 01
124.345;000.042;48;000.547;MIDI 01
124.334;000.055;41;000.531;MIDI 01
124.333;000.092;56;000.711;MIDI 01
124.332;000.096;68;000.625;MIDI 01
124.628;000.111;66;000.594;MIDI 01
124.630;000.133;58;000.602;MIDI 01
124.625;000.167;49;000.719;MIDI 01
124.640;000.167;41;000.578;MIDI 01
124.751;000.100;68;000.539;MIDI 01
124.898;000.035;66;000.406;MIDI 01
124.968;000.076;68;000.422;MIDI 01
125.029;000.057;41;000.539;MIDI 01
125.016;000.072;49;000.656;MIDI 01
125.037;000.052;58;000.531;MIDI 01
125.036;000.100;66;000.547;MIDI 01
125.144;000.100;68;000.531;MIDI 01
125.228;000.039;58;000.539;MIDI 01
125.221;000.049;41;000.531;MIDI 01
125.213;000.062;49;000.703;MIDI 01
125.225;000.076;66;000.453;MIDI 01
125.339;000.073;68;000.406;MIDI 01
125.396;000.056;41;000.516;MIDI 01
125.398;000.069;49;000.742;MIDI 01
125.390;000.096;58;000.492;MIDI 01
125.401;000.097;66;000.531;MIDI 01
125.517;000.085;68;000.453;MIDI 01
125.619;000.053;66;000.430;MIDI 01
125.715;000.070;68;000.367;MIDI 01
125.765;000.064;41;000.586;MIDI 01
125.755;000.089;49;000.711;MIDI 01
125.766;000.107;66;000.562;MIDI 01
125.763;000.114;58;000.211;MIDI 01
125.890;000.234;68;000.539;MIDI 01
125.992;000.260;66;000.438;MIDI 01
126.110;000.155;58;000.523;MIDI 01
126.104;000.261;65;000.602;MIDI 01
126.117;000.291;41;000.539;MIDI 01
126.106;000.315;49;000.672;MIDI 01
126.319;000.256;66;000.609;MIDI 01
126.530;000.282;68;000.664;MIDI 01
126.521;000.331;52;000.648;MIDI 01
126.529;000.326;41;000.562;MIDI 01
126.527;000.331;49;000.547;MIDI 01
126.758;000.119;66;000.625;MIDI 01
126.536;000.346;58;000.633;MIDI 01
127.126;000.415;57;000.617;MIDI 01
127.105;000.444;53;000.617;MIDI 01
127.496;000.071;61;000.172;MIDI 01
127.121;000.474;65;000.625;MIDI 01
127.117;000.496;41;000.578;MIDI 01
127.123;000.555;48;000.586;MIDI 01
127.857;000.062;53;000.500;MIDI 01
127.854;000.078;65;000.555;MIDI 01
128.027;000.067;53;000.641;MIDI 01
128.029;000.075;65;000.578;MIDI 01
128.211;000.283;65;000.594;MIDI 01
128.216;000.286;53;000.586;MIDI 01
128.649;000.210;53;000.578;MIDI 01
128.640;000.225;65;000.602;MIDI 01
129.020;000.201;53;000.570;MIDI 01
129.018;000.208;65;000.594;MIDI 01
129.440;000.116;53;000.555;MIDI 01
129.442;000.158;65;000.531;MIDI 01
131.028;000.374;70;000.461;MIDI 01
131.043;000.430;61;000.320;MIDI 01
130.199;001.810;65;000.594;MIDI 01
130.218;002.426;53;000.492;MIDI 01
131.739;001.214;69;000.445;MIDI 01
131.752;001.309;60;000.398;MIDI 01
133.323;000.380;60;000.305;MIDI 01
132.435;001.279;64;000.500;MIDI 01
133.310;000.804;69;000.438;MIDI 01
132.461;002.513;52;000.430;MIDI 01
134.054;000.970;59;000.352;MIDI 01
134.970;000.254;51;000.242;MIDI 01
134.940;000.325;63;000.328;MIDI 01
135.376;000.061;51;000.367;MIDI 01
135.408;000.049;63;000.359;MIDI 01
134.060;001.514;68;000.445;MIDI 01
135.570;000.046;51;000.383;MIDI 01
135.578;000.084;63;000.461;MIDI 01
135.738;000.072;51;000.398;MIDI 01
135.768;000.298;59;000.398;MIDI 01
136.081;000.044;51;000.336;MIDI 01
135.735;000.603;68;000.453;MIDI 01
136.077;000.315;63;000.336;MIDI 01
136.428;000.082;51;000.344;MIDI 01
136.404;000.479;67;000.414;MIDI 01
136.804;000.128;51;000.320;MIDI 01
136.806;000.214;63;000.344;MIDI 01
136.430;000.595;58;000.328;MIDI 01
137.345;000.926;63;000.273;MIDI 01
137.322;001.041;66;000.391;MIDI 01
137.340;001.098;45;000.250;MIDI 01
137.357;001.096;60;000.305;MIDI 01
138.304;000.822;65;000.258;MIDI 01
138.302;000.833;62;000.266;MIDI 01
138.335;000.826;46;000.211;MIDI 01
139.964;000.907;47;000.281;MIDI 01
139.903;001.056;59;000.383;MIDI 01
140.742;000.782;50;000.258;MIDI 01
140.746;000.789;38;000.188;MIDI 01
142.175;001.064;59;000.258;MIDI 01
142.201;001.135;47;000.148;MIDI 01
143.028;000.755;50;000.094;MIDI 01
143.032;000.763;38;000.148;MIDI 01
144.374;000.971;59;000.242;MIDI 01
144.372;001.019;47;000.227;MIDI 01
145.100;000.950;50;000.258;MIDI 01
145.117;001.048;38;000.398;MIDI 01
145.933;001.030;59;000.367;MIDI 01
145.950;001.061;47;000.289;MIDI 01
146.844;000.868;50;000.258;MIDI 01
146.842;000.931;38;000.219;MIDI 01
149.066;000.237;46;000.117;MIDI 01
149.051;000.265;58;000.211;MIDI 01
149.267;000.092;59;000.289;MIDI 01
149.294;000.082;47;000.070;MIDI 01
149.381;000.095;45;000.289;MIDI 01
149.429;000.080;57;000.258;MIDI 01
149.509;000.196;46;000.234;MIDI 01
149.544;000.198;58;000.180;MIDI 01
149.702;000.335;51;000.305;MIDI 01
149.710;000.358;39;000.266;MIDI 01
150.632;000.061;46;000.102;MIDI 01
150.636;000.060;39;000.172;MIDI 01
150.637;000.068;51;000.102;MIDI 01
150.640;000.067;54;000.086;MIDI 01
150.642;000.067;58;000.102;MIDI 01
150.803;000.072;51;000.086;MIDI 01
150.806;000.071;58;000.219;MIDI 01
150.846;000.072;46;000.062;MIDI 01
150.865;000.126;39;000.023;MIDI 01
151.031;000.069;46;000.125;MIDI 01
151.045;000.059;54;000.133;MIDI 01
151.021;000.090;51;000.227;MIDI 01
151.047;000.070;39;000.023;MIDI 01
151.028;000.108;58;000.180;MIDI 01
151.435;000.067;54;000.234;MIDI 01
151.438;000.066;51;000.203;MIDI 01
151.431;000.074;46;000.219;MIDI 01
151.449;000.067;39;000.156;MIDI 01
151.433;000.095;58;000.188;MIDI 01
151.671;000.051;54;000.219;MIDI 01
151.653;000.072;51;000.211;MIDI 01
151.683;000.065;46;000.109;MIDI 01
151.726;000.059;39;000.023;MIDI 01
151.634;000.207;58;000.195;MIDI 01
151.901;000.056;54;000.312;MIDI 01
151.899;000.079;51;000.227;MIDI 01
151.910;000.093;39;000.180;MIDI 01
151.897;000.115;46;000.258;MIDI 01
152.410;000.049;54;000.211;MIDI 01
152.412;000.069;51;000.172;MIDI 01
152.403;000.086;39;000.219;MIDI 01
152.392;000.100;46;000.242;MIDI 01
152.400;000.111;58;000.242;MIDI 01
152.670;000.098;54;000.195;MIDI 01
152.678;000.093;51;000.281;MIDI 01
152.701;000.078;39;000.242;MIDI 01
152.698;000.083;46;000.219;MIDI 01
152.668;000.142;58;000.258;MIDI 01
153.139;000.104;51;000.133;MIDI 01
153.123;000.220;54;000.234;MIDI 01
153.134;000.252;46;000.109;MIDI 01
153.117;000.274;58;000.102;MIDI 01
153.141;000.290;39;000.156;MIDI 01
154.257;000.162;58;000.359;MIDI 01
154.247;000.205;46;000.289;MIDI 01
154.438;000.052;59;000.352;MIDI 01
154.451;000.052;47;000.219;MIDI 01
154.514;000.098;45;000.352;MIDI 01
154.523;000.093;57;000.359;MIDI 01
154.639;000.086;58;000.383;MIDI 01
154.651;000.082;46;000.281;MIDI 01
154.767;000.229;39;000.359;MIDI 01
154.759;000.251;51;000.406;MIDI 01
155.519;000.044;59;000.312;MIDI 01
155.527;000.048;44;000.352;MIDI 01
155.677;000.067;59;000.469;MIDI 01
155.708;000.048;44;000.406;MIDI 01
155.692;000.066;51;000.258;MIDI 01
155.889;000.050;53;000.391;MIDI 01
155.886;000.059;44;000.414;MIDI 01
155.891;000.057;51;000.406;MIDI 01
155.908;000.056;39;000.164;MIDI 01
155.904;000.066;59;000.367;MIDI 01
155.945;000.061;56;000.086;MIDI 01
156.292;000.073;59;000.453;MIDI 01
156.309;000.057;53;000.359;MIDI 01
156.321;000.048;51;000.344;MIDI 01
156.327;000.056;44;000.375;MIDI 01
156.351;000.058;39;000.172;MIDI 01
156.353;000.062;56;000.094;MIDI 01
156.488;000.059;53;000.453;MIDI 01
156.499;000.068;51;000.453;MIDI 01
156.490;000.079;59;000.500;MIDI 01
156.507;000.077;44;000.438;MIDI 01
156.565;000.071;39;000.188;MIDI 01
156.706;000.078;51;000.469;MIDI 01
156.716;000.073;53;000.422;MIDI 01
156.732;000.083;44;000.438;MIDI 01
156.765;000.056;39;000.211;MIDI 01
156.710;000.120;59;000.555;MIDI 01
157.260;000.070;53;000.492;MIDI 01
157.282;000.062;51;000.445;MIDI 01
157.302;000.059;39;000.312;MIDI 01
157.294;000.068;44;000.422;MIDI 01
157.253;000.112;59;000.547;MIDI 01
157.544;000.088;39;000.352;MIDI 01
157.540;000.098;53;000.531;MIDI 01
157.554;000.084;51;000.453;MIDI 01
157.542;000.098;44;000.453;MIDI 01
157.522;000.164;59;000.586;MIDI 01
157.932;000.270;51;000.469;MIDI 01
157.930;000.274;53;000.508;MIDI 01
157.915;000.394;59;000.570;MIDI 01
157.938;000.447;39;000.391;MIDI 01
157.949;000.471;44;000.438;MIDI 01
159.070;000.111;47;000.500;MIDI 01
159.081;000.135;59;000.539;MIDI 01
159.226;000.085;61;000.484;MIDI 01
159.206;000.116;49;000.469;MIDI 01
159.320;000.075;46;000.383;MIDI 01
159.328;000.103;58;000.453;MIDI 01
159.425;000.093;47;000.336;MIDI 01
159.442;000.077;59;000.438;MIDI 01
159.580;000.097;51;000.477;MIDI 01
159.565;000.195;39;000.414;MIDI 01
160.240;000.053;59;000.477;MIDI 01
160.245;000.053;51;000.336;MIDI 01
160.250;000.049;44;000.375;MIDI 01
160.273;000.039;53;000.289;MIDI 01
160.275;000.058;39;000.172;MIDI 01
160.420;000.036;51;000.484;MIDI 01
160.425;000.031;53;000.352;MIDI 01
160.396;000.064;59;000.508;MIDI 01
160.433;000.030;44;000.422;MIDI 01
160.454;000.074;39;000.148;MIDI 01
160.547;000.039;51;000.508;MIDI 01
160.559;000.050;53;000.484;MIDI 01
160.584;000.027;44;000.430;MIDI 01
160.566;000.076;59;000.562;MIDI 01
160.596;000.062;39;000.023;MIDI 01
160.938;000.033;51;000.422;MIDI 01
160.946;000.032;53;000.430;MIDI 01
160.928;000.052;59;000.523;MIDI 01
160.934;000.049;44;000.469;MIDI 01
160.988;000.114;39;000.125;MIDI 01
161.089;000.049;53;000.492;MIDI 01
161.097;000.048;51;000.508;MIDI 01
161.102;000.049;44;000.531;MIDI 01
161.086;000.076;59;000.562;MIDI 01
161.126;000.058;39;000.164;MIDI 01
161.259;000.081;51;000.508;MIDI 01
161.272;000.071;53;000.516;MIDI 01
161.277;000.068;44;000.469;MIDI 01
161.301;000.046;39;000.312;MIDI 01
161.275;000.107;59;000.625;MIDI 01
161.725;000.041;51;000.492;MIDI 01
161.727;000.041;53;000.477;MIDI 01
161.729;000.047;44;000.453;MIDI 01
161.705;000.085;59;000.586;MIDI 01
161.955;000.048;51;000.516;MIDI 01
161.960;000.056;44;000.469;MIDI 01
161.951;000.090;53;000.500;MIDI 01
161.990;000.052;39;000.258;MIDI 01
162.007;000.037;56;000.297;MIDI 01
161.940;000.119;59;000.625;MIDI 01
162.273;000.205;51;000.531;MIDI 01
162.265;000.258;53;000.531;MIDI 01
162.255;000.324;59;000.602;MIDI 01
162.283;000.347;39;000.406;MIDI 01
162.333;000.299;56;000.094;MIDI 01
162.284;000.389;44;000.453;MIDI 01
163.336;000.127;59;000.680;MIDI 01
163.322;000.146;47;000.617;MIDI 01
163.479;000.123;61;000.516;MIDI 01
163.472;000.141;49;000.594;MIDI 01
163.602;000.099;46;000.570;MIDI 01
163.613;000.129;58;000.617;MIDI 01
163.693;000.137;47;000.562;MIDI 01
163.724;000.108;59;000.633;MIDI 01
163.877;000.088;51;000.680;MIDI 01
163.872;000.118;39;000.656;MIDI 01
164.317;000.027;51;000.461;MIDI 01
164.319;000.025;56;000.484;MIDI 01
164.311;000.040;44;000.477;MIDI 01
164.329;000.024;53;000.430;MIDI 01
164.326;000.032;47;000.383;MIDI 01
164.302;000.069;59;000.586;MIDI 01
164.344;000.055;39;000.227;MIDI 01
164.449;000.034;56;000.477;MIDI 01
164.440;000.045;59;000.453;MIDI 01
164.454;000.031;53;000.547;MIDI 01
164.452;000.044;51;000.484;MIDI 01
164.466;000.032;44;000.516;MIDI 01
164.468;000.032;47;000.516;MIDI 01
164.571;000.027;53;000.539;MIDI 01
164.581;000.023;56;000.477;MIDI 01
164.589;000.036;51;000.500;MIDI 01
164.584;000.043;44;000.539;MIDI 01
164.593;000.041;47;000.547;MIDI 01
164.565;000.072;59;000.633;MIDI 01
164.491;000.167;39;000.281;MIDI 01
164.904;000.020;63;000.438;MIDI 01
164.892;000.034;53;000.578;MIDI 01
164.887;000.045;65;000.562;MIDI 01
164.895;000.042;51;000.453;MIDI 01
164.908;000.041;44;000.469;MIDI 01
164.920;000.035;59;000.281;MIDI 01
164.925;000.037;47;000.344;MIDI 01
164.941;000.097;39;000.086;MIDI 01
165.009;000.037;53;000.602;MIDI 01
165.017;000.032;63;000.461;MIDI 01
165.025;000.041;65;000.430;MIDI 01
165.037;000.036;51;000.555;MIDI 01
165.071;000.019;47;000.414;MIDI 01
165.044;000.078;39;000.180;MIDI 01
165.074;000.050;44;000.328;MIDI 01
165.128;000.024;53;000.648;MIDI 01
165.141;000.036;51;000.578;MIDI 01
165.150;000.043;44;000.398;MIDI 01
165.152;000.049;39;000.250;MIDI 01
165.135;000.067;63;000.656;MIDI 01
165.171;000.033;47;000.398;MIDI 01
165.130;000.076;65;000.648;MIDI 01
165.473;000.032;51;000.508;MIDI 01
165.471;000.039;65;000.688;MIDI 01
165.488;000.022;75;000.539;MIDI 01
165.500;000.028;63;000.359;MIDI 01
165.476;000.057;77;000.625;MIDI 01
165.498;000.037;56;000.445;MIDI 01
165.482;000.056;59;000.508;MIDI 01
165.509;000.046;71;000.281;MIDI 01
165.598;000.033;65;000.633;MIDI 01
165.596;000.040;75;000.539;MIDI 01
165.592;000.055;77;000.531;MIDI 01
165.625;000.028;63;000.641;MIDI 01
165.640;000.028;59;000.602;MIDI 01
165.626;000.050;51;000.453;MIDI 01
165.629;000.049;56;000.555;MIDI 01
165.747;000.026;71;000.453;MIDI 01
165.732;000.047;63;000.641;MIDI 01
165.718;000.066;75;000.664;MIDI 01
165.710;000.077;65;000.641;MIDI 01
165.754;000.035;56;000.633;MIDI 01
165.749;000.044;59;000.594;MIDI 01
165.708;000.097;77;000.664;MIDI 01
165.879;000.039;56;000.188;MIDI 01
166.053;000.024;63;000.578;MIDI 01
166.049;000.028;75;000.570;MIDI 01
166.033;000.053;65;000.742;MIDI 01
166.058;000.030;59;000.500;MIDI 01
166.045;000.048;56;000.516;MIDI 01
166.075;000.021;71;000.367;MIDI 01
166.037;000.060;77;000.672;MIDI 01
166.093;000.069;51;000.180;MIDI 01
166.168;000.045;75;000.570;MIDI 01
166.159;000.058;65;000.680;MIDI 01
166.189;000.038;56;000.578;MIDI 01
166.161;000.065;77;000.586;MIDI 01
166.170;000.071;63;000.578;MIDI 01
166.203;000.040;51;000.273;MIDI 01
166.178;000.070;59;000.562;MIDI 01
166.225;000.033;71;000.234;MIDI 01
166.339;000.023;51;000.414;MIDI 01
166.302;000.064;63;000.617;MIDI 01
166.306;000.067;56;000.602;MIDI 01
166.304;000.071;65;000.766;MIDI 01
166.314;000.071;59;000.586;MIDI 01
166.311;000.075;75;000.688;MIDI 01
166.300;000.103;77;000.727;MIDI 01
166.652;000.039;63;000.578;MIDI 01
166.667;000.047;70;000.594;MIDI 01
166.711;000.002;76;000.297;MIDI 01
166.665;000.051;56;000.500;MIDI 01
166.654;000.064;65;000.727;MIDI 01
166.656;000.066;59;000.539;MIDI 01
166.662;000.066;75;000.648;MIDI 01
166.657;000.090;77;000.633;MIDI 01
166.722;000.058;51;000.164;MIDI 01
166.810;000.037;63;000.539;MIDI 01
166.826;000.033;59;000.523;MIDI 01
166.831;000.032;65;000.750;MIDI 01
166.835;000.039;77;000.641;MIDI 01
166.821;000.062;56;000.523;MIDI 01
166.833;000.056;75;000.664;MIDI 01
166.841;000.064;51;000.453;MIDI 01
167.053;000.027;70;000.391;MIDI 01
167.226;000.040;39;000.328;MIDI 01
167.183;000.114;38;000.648;MIDI 01
167.178;000.146;50;000.703;MIDI 01
167.181;000.376;77;000.578;MIDI 01
167.159;000.415;82;000.672;MIDI 01
167.161;000.430;70;000.781;MIDI 01
167.651;000.035;58;000.586;MIDI 01
167.661;000.028;50;000.492;MIDI 01
167.664;000.037;53;000.508;MIDI 01
167.783;000.054;58;000.578;MIDI 01
167.792;000.048;53;000.594;MIDI 01
167.780;000.071;50;000.547;MIDI 01
167.921;000.051;50;000.516;MIDI 01
167.908;000.066;58;000.648;MIDI 01
167.923;000.055;53;000.570;MIDI 01
168.219;000.025;58;000.531;MIDI 01
168.233;000.028;50;000.445;MIDI 01
168.235;000.029;53;000.438;MIDI 01
168.339;000.049;58;000.469;MIDI 01
168.356;000.036;53;000.562;MIDI 01
168.354;000.046;50;000.570;MIDI 01
168.647;000.250;49;000.562;MIDI 01
168.659;000.253;58;000.484;MIDI 01
168.697;000.236;51;000.406;MIDI 01
168.675;000.275;55;000.430;MIDI 01
168.641;000.427;63;000.711;MIDI 01
169.039;000.057;58;000.555;MIDI 01
169.036;000.075;55;000.469;MIDI 01
169.185;000.041;58;000.531;MIDI 01
169.044;000.184;49;000.500;MIDI 01
169.191;000.067;51;000.547;MIDI 01
169.401;000.090;63;000.594;MIDI 01
169.498;000.091;65;000.570;MIDI 01
169.347;000.272;58;000.398;MIDI 01
169.375;000.250;47;000.539;MIDI 01
169.395;000.238;51;000.500;MIDI 01
169.596;000.056;63;000.500;MIDI 01
169.657;000.080;65;000.492;MIDI 01
169.749;000.052;63;000.531;MIDI 01
169.754;000.052;58;000.547;MIDI 01
169.762;000.052;51;000.500;MIDI 01
169.794;000.039;47;000.250;MIDI 01
169.824;000.048;65;000.445;MIDI 01
169.902;000.037;63;000.438;MIDI 01
169.947;000.031;47;000.508;MIDI 01
169.927;000.061;58;000.547;MIDI 01
169.934;000.066;51;000.508;MIDI 01
169.974;000.056;65;000.539;MIDI 01
170.109;000.052;58;000.625;MIDI 01
170.107;000.061;47;000.531;MIDI 01
170.047;000.126;63;000.516;MIDI 01
170.110;000.071;51;000.586;MIDI 01
170.193;000.040;62;000.508;MIDI 01
170.278;000.042;63;000.477;MIDI 01
170.370;000.078;65;000.594;MIDI 01
170.448;000.093;66;000.555;MIDI 01
170.398;000.176;58;000.523;MIDI 01
170.402;000.179;47;000.492;MIDI 01
170.535;000.056;68;000.562;MIDI 01
170.562;000.044;70;000.594;MIDI 01
170.407;000.225;51;000.383;MIDI 01
170.656;000.031;71;000.609;MIDI 01
170.749;000.052;73;000.547;MIDI 01
170.812;000.023;75;000.445;MIDI 01
170.957;000.002;77;000.070;MIDI 01
170.739;000.225;56;000.578;MIDI 01
170.896;000.074;76;000.547;MIDI 01
170.761;000.222;47;000.422;MIDI 01
170.756;000.268;51;000.477;MIDI 01
170.975;000.077;78;000.633;MIDI 01
171.052;000.067;80;000.625;MIDI 01
171.098;000.036;82;000.469;MIDI 01
171.181;000.046;83;000.586;MIDI 01
171.134;000.107;47;000.523;MIDI 01
171.139;000.118;57;000.516;MIDI 01
171.128;000.169;51;000.453;MIDI 01
171.270;000.079;85;000.641;MIDI 01
171.354;000.045;87;000.523;MIDI 01
171.438;000.158;89;000.648;MIDI 01
171.658;000.054;46;000.602;MIDI 01
171.660;000.089;58;000.641;MIDI 01
171.666;000.099;51;000.594;MIDI 01
171.668;000.100;54;000.555;MIDI 01
171.654;000.430;90;000.750;MIDI 01
172.143;000.036;70;000.586;MIDI 01
172.169;000.033;66;000.391;MIDI 01
172.176;000.031;63;000.375;MIDI 01
172.294;000.043;63;000.547;MIDI 01
172.299;000.040;66;000.547;MIDI 01
172.267;000.074;70;000.555;MIDI 01
172.301;000.051;58;000.328;MIDI 01
172.418;000.036;63;000.484;MIDI 01
172.414;000.045;70;000.594;MIDI 01
172.420;000.062;66;000.594;MIDI 01
172.572;000.167;87;000.656;MIDI 01
172.747;000.041;70;000.523;MIDI 01
172.749;000.056;66;000.484;MIDI 01
172.753;000.054;63;000.484;MIDI 01
172.724;000.145;82;000.641;MIDI 01
172.825;000.050;58;000.023;MIDI 01
172.883;000.072;78;000.609;MIDI 01
173.122;000.046;77;000.516;MIDI 01
173.057;000.154;70;000.500;MIDI 01
173.193;000.081;78;000.539;MIDI 01
173.074;000.228;62;000.414;MIDI 01
173.071;000.246;68;000.461;MIDI 01
173.273;000.071;77;000.531;MIDI 01
173.032;000.414;58;000.359;MIDI 01
173.356;000.095;76;000.609;MIDI 01
173.445;000.140;77;000.664;MIDI 01
173.479;000.223;68;000.453;MIDI 01
173.505;000.251;62;000.352;MIDI 01
173.450;000.356;58;000.102;MIDI 01
173.844;000.273;82;000.555;MIDI 01
174.157;000.328;51;000.359;MIDI 01
174.670;000.074;66;000.250;MIDI 01
174.672;000.269;63;000.281;MIDI 01
174.934;000.266;54;000.469;MIDI 01
175.260;000.178;66;000.312;MIDI 01
175.222;000.309;63;000.305;MIDI 01
174.141;001.446;75;000.469;MIDI 01
175.757;000.109;66;000.312;MIDI 01
175.750;000.128;74;000.391;MIDI 01
175.496;000.598;58;000.383;MIDI 01
175.883;000.221;75;000.445;MIDI 01
175.748;000.375;63;000.266;MIDI 01
176.077;000.151;78;000.445;MIDI 01
176.239;000.061;77;000.438;MIDI 01
176.071;000.322;57;000.359;MIDI 01
176.471;000.082;65;000.180;MIDI 01
176.501;000.059;72;000.477;MIDI 01
176.411;000.286;63;000.211;MIDI 01
176.681;000.272;56;000.320;MIDI 01
176.970;000.217;65;000.297;MIDI 01
176.964;000.258;62;000.266;MIDI 01
176.674;000.571;71;000.453;MIDI 01
177.216;000.156;54;000.430;MIDI 01
177.330;000.071;70;000.438;MIDI 01
177.466;000.086;66;000.305;MIDI 01
177.450;000.106;74;000.477;MIDI 01
177.573;000.157;75;000.500;MIDI 01
177.468;000.282;63;000.320;MIDI 01
177.713;000.141;78;000.508;MIDI 01
177.834;000.048;77;000.539;MIDI 01
177.707;000.290;57;000.406;MIDI 01
177.980;000.098;77;000.539;MIDI 01
178.108;000.107;72;000.547;MIDI 01
178.071;000.196;65;000.234;MIDI 01
177.997;000.403;63;000.227;MIDI 01
178.333;000.306;56;000.359;MIDI 01
178.633;000.220;65;000.227;MIDI 01
178.633;000.266;62;000.336;MIDI 01
178.293;000.636;71;000.500;MIDI 01
178.894;000.188;54;000.453;MIDI 01
178.996;000.098;70;000.422;MIDI 01
179.132;000.132;74;000.492;MIDI 01
179.161;000.105;58;000.297;MIDI 01
179.274;000.060;75;000.508;MIDI 01
179.182;000.316;63;000.320;MIDI 01
179.493;000.129;78;000.539;MIDI 01
179.697;000.046;77;000.516;MIDI 01
179.490;000.268;57;000.414;MIDI 01
179.778;000.059;60;000.367;MIDI 01
179.769;000.084;63;000.344;MIDI 01
179.822;000.069;77;000.531;MIDI 01
179.975;000.084;72;000.500;MIDI 01
180.106;000.125;80;000.508;MIDI 01
180.235;000.075;79;000.531;MIDI 01
180.073;000.261;58;000.469;MIDI 01
180.340;000.091;61;000.406;MIDI 01
180.365;000.085;79;000.398;MIDI 01
180.416;000.086;67;000.031;MIDI 01
180.506;000.059;75;000.570;MIDI 01
180.353;000.278;63;000.320;MIDI 01
180.595;000.134;82;000.547;MIDI 01
180.741;000.040;80;000.484;MIDI 01
180.872;000.050;80;000.508;MIDI 01
180.607;000.333;59;000.430;MIDI 01
180.848;000.158;63;000.367;MIDI 01
180.970;000.076;75;000.539;MIDI 01
180.878;000.183;68;000.391;MIDI 01
181.102;000.130;83;000.539;MIDI 01
181.251;000.026;82;000.484;MIDI 01
181.360;000.074;82;000.539;MIDI 01
181.397;000.074;70;000.320;MIDI 01
181.377;000.192;65;000.375;MIDI 01
181.134;000.446;62;000.430;MIDI 01
181.493;000.097;77;000.508;MIDI 01
181.590;000.146;83;000.578;MIDI 01
181.730;000.037;82;000.617;MIDI 01
181.597;000.293;63;000.461;MIDI 01
181.861;000.085;82;000.594;MIDI 01
181.869;000.122;70;000.336;MIDI 01
181.876;000.167;66;000.367;MIDI 01
181.986;000.131;81;000.586;MIDI 01
182.109;000.128;82;000.531;MIDI 01
182.221;000.088;83;000.633;MIDI 01
182.076;000.265;58;000.508;MIDI 01
182.368;000.126;70;000.414;MIDI 01
182.368;000.149;82;000.625;MIDI 01
182.474;000.093;90;000.664;MIDI 01
182.370;000.297;66;000.367;MIDI 01
182.676;000.123;90;000.625;MIDI 01
182.795;000.072;89;000.539;MIDI 01
182.920;000.088;89;000.461;MIDI 01
183.043;000.057;83;000.586;MIDI 01
182.959;000.192;71;000.359;MIDI 01
182.633;000.611;62;000.508;MIDI 01
182.947;000.362;68;000.398;MIDI 01
183.615;000.197;71;000.438;MIDI 01
183.239;000.675;63;000.383;MIDI 01
183.643;000.291;66;000.367;MIDI 01
183.235;000.714;83;000.617;MIDI 01
183.927;000.223;58;000.500;MIDI 01
184.032;000.120;82;000.484;MIDI 01
184.166;000.130;70;000.438;MIDI 01
184.165;000.133;86;000.516;MIDI 01
184.293;000.165;87;000.555;MIDI 01
184.167;000.366;66;000.305;MIDI 01
184.459;000.130;90;000.531;MIDI 01
184.590;000.045;89;000.492;MIDI 01
184.711;000.104;89;000.484;MIDI 01
184.826;000.036;83;000.523;MIDI 01
184.764;000.191;71;000.312;MIDI 01
184.423;000.731;62;000.430;MIDI 01
184.761;000.401;68;000.367;MIDI 01
185.050;000.495;63;000.289;MIDI 01
185.416;000.213;66;000.273;MIDI 01
185.390;000.309;71;000.320;MIDI 01
185.020;000.745;83;000.484;MIDI 01
185.791;000.053;82;000.469;MIDI 01
185.686;000.197;61;000.430;MIDI 01
185.961;000.065;82;000.555;MIDI 01
185.982;000.076;70;000.352;MIDI 01
186.109;000.100;88;000.500;MIDI 01
186.031;000.345;64;000.125;MIDI 01
185.970;000.439;67;000.312;MIDI 01
186.326;000.110;88;000.578;MIDI 01
186.477;000.046;87;000.586;MIDI 01
186.277;000.408;59;000.391;MIDI 01
186.610;000.099;87;000.586;MIDI 01
186.624;000.141;68;000.422;MIDI 01
186.750;000.088;80;000.547;MIDI 01
186.637;000.270;63;000.375;MIDI 01
186.866;000.148;89;000.648;MIDI 01
187.001;000.071;87;000.633;MIDI 01
186.876;000.334;58;000.539;MIDI 01
187.151;000.083;70;000.586;MIDI 01
187.147;000.165;87;000.625;MIDI 01
187.277;000.116;78;000.633;MIDI 01
187.171;000.314;63;000.484;MIDI 01
187.426;000.200;89;000.703;MIDI 01
187.429;000.232;56;000.641;MIDI 01
187.592;000.116;87;000.664;MIDI 01
187.789;000.502;71;000.602;MIDI 01
187.791;000.541;87;000.680;MIDI 01
187.797;000.621;65;000.539;MIDI 01
188.071;000.352;77;000.602;MIDI 01
187.795;000.676;63;000.477;MIDI 01
189.861;000.040;71;000.328;MIDI 01
190.022;000.119;71;000.461;MIDI 01
190.165;000.073;62;000.469;MIDI 01
189.573;000.727;56;000.242;MIDI 01
189.610;000.907;46;000.117;MIDI 01
190.949;000.395;56;000.266;MIDI 01
190.328;001.352;62;000.508;MIDI 01
191.840;000.619;54;000.164;MIDI 01
191.873;000.747;39;000.148;MIDI 01
191.816;000.821;63;000.289;MIDI 01
190.969;001.670;46;000.211;MIDI 01
193.407;000.080;59;000.266;MIDI 01
193.412;000.086;47;000.211;MIDI 01
193.419;000.082;63;000.242;MIDI 01
193.409;000.131;66;000.289;MIDI 01
194.591;000.049;59;000.305;MIDI 01
194.609;000.049;63;000.195;MIDI 01
194.619;000.048;47;000.180;MIDI 01
194.607;000.075;66;000.320;MIDI 01
195.008;000.058;52;000.352;MIDI 01
195.030;000.043;64;000.203;MIDI 01
195.015;000.059;59;000.305;MIDI 01
195.010;000.083;68;000.391;MIDI 01
195.402;000.062;47;000.359;MIDI 01
195.415;000.055;59;000.336;MIDI 01
195.425;000.061;66;000.320;MIDI 01
195.412;000.092;63;000.375;MIDI 01
195.685;000.041;59;000.438;MIDI 01
195.699;000.030;56;000.367;MIDI 01
195.688;000.045;65;000.453;MIDI 01
195.724;000.060;47;000.070;MIDI 01
195.841;000.025;63;000.383;MIDI 01
195.852;000.032;59;000.336;MIDI 01
195.824;000.072;54;000.469;MIDI 01
195.829;000.069;47;000.250;MIDI 01
195.820;000.102;66;000.453;MIDI 01
196.290;000.050;47;000.312;MIDI 01
196.284;000.071;54;000.297;MIDI 01
196.286;000.073;59;000.195;MIDI 01
196.268;000.104;63;000.336;MIDI 01
197.147;000.044;47;000.359;MIDI 01
197.164;000.056;54;000.312;MIDI 01
197.152;000.083;63;000.367;MIDI 01
197.571;000.064;47;000.391;MIDI 01
197.580;000.067;56;000.414;MIDI 01
197.598;000.059;59;000.273;MIDI 01
197.562;000.108;64;000.453;MIDI 01
197.993;000.049;47;000.398;MIDI 01
197.998;000.088;54;000.414;MIDI 01
198.031;000.062;59;000.172;MIDI 01
198.000;000.118;63;000.430;MIDI 01
198.302;000.035;47;000.328;MIDI 01
198.299;000.041;61;000.422;MIDI 01
198.309;000.032;53;000.383;MIDI 01
198.435;000.025;47;000.539;MIDI 01
198.432;000.067;63;000.461;MIDI 01
198.459;000.055;54;000.086;MIDI 01
198.503;000.046;53;000.023;MIDI 01
198.878;000.079;51;000.367;MIDI 01
198.905;000.073;54;000.094;MIDI 01
198.876;000.148;47;000.289;MIDI 01
198.853;000.192;59;000.336;MIDI 01
199.782;000.081;63;000.320;MIDI 01
199.780;000.085;66;000.312;MIDI 01
199.818;000.076;54;000.188;MIDI 01
199.819;000.078;47;000.148;MIDI 01
200.017;000.061;54;000.469;MIDI 01
200.034;000.047;47;000.406;MIDI 01
200.025;000.058;63;000.336;MIDI 01
199.999;000.095;66;000.516;MIDI 01
200.235;000.255;63;000.422;MIDI 01
200.233;000.301;47;000.375;MIDI 01
200.246;000.312;54;000.367;MIDI 01
200.218;000.573;66;000.516;MIDI 01
200.697;000.259;53;000.398;MIDI 01
200.690;000.378;63;000.461;MIDI 01
200.702;000.486;47;000.406;MIDI 01
200.682;000.548;68;000.562;MIDI 01
201.234;000.301;54;000.273;MIDI 01
201.210;000.334;70;000.531;MIDI 01
201.221;000.326;63;000.414;MIDI 01
201.265;000.294;46;000.305;MIDI 01
201.674;000.064;54;000.391;MIDI 01
201.675;000.068;70;000.516;MIDI 01
201.688;000.062;46;000.352;MIDI 01
201.661;000.100;63;000.492;MIDI 01
201.858;000.059;70;000.570;MIDI 01
201.879;000.046;54;000.398;MIDI 01
201.834;000.107;63;000.398;MIDI 01
201.899;000.047;46;000.328;MIDI 01
202.077;000.249;53;000.492;MIDI 01
202.059;000.294;70;000.602;MIDI 01
202.071;000.283;46;000.484;MIDI 01
202.068;000.291;62;000.578;MIDI 01
202.500;000.132;53;000.484;MIDI 01
202.495;000.140;62;000.656;MIDI 01
202.490;000.208;70;000.609;MIDI 01
202.522;000.205;46;000.469;MIDI 01
202.889;000.094;58;000.461;MIDI 01
202.950;000.547;64;000.469;MIDI 01
203.084;000.433;54;000.477;MIDI 01
203.072;000.492;73;000.594;MIDI 01
202.994;000.584;66;000.531;MIDI 01
203.091;000.911;42;000.469;MIDI 01
204.078;000.179;59;000.320;MIDI 01
204.081;000.230;66;000.352;MIDI 01
204.130;000.193;47;000.266;MIDI 01
204.091;000.233;63;000.328;MIDI 01
204.113;000.216;54;000.266;MIDI 01
205.319;000.046;47;000.344;MIDI 01
205.311;000.054;59;000.336;MIDI 01
205.317;000.067;66;000.430;MIDI 01
205.349;000.054;63;000.188;MIDI 01
205.751;000.067;59;000.328;MIDI 01
205.773;000.049;64;000.312;MIDI 01
205.747;000.095;52;000.414;MIDI 01
205.752;000.114;68;000.414;MIDI 01
206.167;000.046;47;000.320;MIDI 01
206.171;000.067;66;000.375;MIDI 01
206.165;000.075;59;000.398;MIDI 01
206.177;000.068;63;000.344;MIDI 01
206.452;000.044;59;000.422;MIDI 01
206.463;000.041;56;000.352;MIDI 01
206.456;000.060;65;000.469;MIDI 01
206.602;000.040;59;000.391;MIDI 01
206.613;000.042;63;000.281;MIDI 01
206.596;000.059;66;000.438;MIDI 01
206.602;000.081;54;000.406;MIDI 01
207.049;000.070;47;000.312;MIDI 01
207.043;000.078;59;000.289;MIDI 01
207.067;000.057;54;000.148;MIDI 01
207.034;000.224;63;000.297;MIDI 01
207.912;000.081;54;000.344;MIDI 01
207.898;000.130;44;000.359;MIDI 01
207.907;000.133;63;000.383;MIDI 01
208.355;000.078;56;000.445;MIDI 01
208.343;000.124;64;000.484;MIDI 01
208.372;000.104;61;000.352;MIDI 01
208.351;000.137;49;000.438;MIDI 01
208.796;000.096;59;000.352;MIDI 01
208.775;000.125;56;000.484;MIDI 01
208.771;000.136;44;000.453;MIDI 01
208.769;000.161;63;000.469;MIDI 01
209.056;000.049;52;000.344;MIDI 01
209.058;000.049;56;000.469;MIDI 01
209.086;000.033;44;000.320;MIDI 01
209.053;000.069;61;000.484;MIDI 01
209.089;000.035;59;000.266;MIDI 01
209.260;000.050;61;000.234;MIDI 01
209.248;000.067;44;000.430;MIDI 01
209.220;000.102;63;000.453;MIDI 01
209.208;000.116;56;000.484;MIDI 01
209.267;000.062;59;000.141;MIDI 01
209.213;000.119;51;000.461;MIDI 01
209.696;000.168;51;000.133;MIDI 01
209.652;000.274;59;000.344;MIDI 01
209.710;000.232;44;000.328;MIDI 01
210.570;000.069;63;000.273;MIDI 01
210.561;000.079;71;000.352;MIDI 01
210.597;000.069;59;000.180;MIDI 01
210.614;000.075;56;000.039;MIDI 01
210.787;000.076;63;000.359;MIDI 01
210.804;000.061;59;000.375;MIDI 01
210.787;000.092;71;000.453;MIDI 01
210.846;000.043;56;000.266;MIDI 01
211.027;000.303;59;000.320;MIDI 01
211.014;000.360;63;000.406;MIDI 01
211.015;000.383;71;000.516;MIDI 01
211.033;000.541;56;000.359;MIDI 01
211.495;000.258;64;000.500;MIDI 01
211.469;000.314;71;000.531;MIDI 01
211.483;000.310;59;000.414;MIDI 01
211.497;000.300;55;000.422;MIDI 01
211.959;000.162;59;000.469;MIDI 01
211.942;000.213;64;000.516;MIDI 01
211.977;000.208;55;000.438;MIDI 01
211.921;000.376;71;000.648;MIDI 01
212.442;000.210;64;000.492;MIDI 01
212.474;000.241;58;000.383;MIDI 01
212.417;000.323;73;000.625;MIDI 01
212.486;000.295;54;000.383;MIDI 01
212.827;000.091;75;000.633;MIDI 01
212.875;000.049;64;000.250;MIDI 01
213.041;000.468;64;000.477;MIDI 01
213.080;000.519;58;000.281;MIDI 01
213.089;000.771;54;000.289;MIDI 01
213.019;001.062;73;000.555;MIDI 01
214.113;000.324;59;000.320;MIDI 01
214.092;000.365;71;000.328;MIDI 01
214.150;000.312;47;000.203;MIDI 01
214.111;000.380;63;000.266;MIDI 01
215.173;000.141;47;000.242;MIDI 01
215.149;000.182;59;000.273;MIDI 01
215.125;000.208;66;000.383;MIDI 01
215.177;000.159;63;000.250;MIDI 01
215.166;000.183;54;000.258;MIDI 01
216.492;000.054;47;000.273;MIDI 01
216.486;000.061;59;000.336;MIDI 01
216.485;000.068;66;000.336;MIDI 01
216.511;000.055;63;000.188;MIDI 01
216.941;000.105;52;000.461;MIDI 01
216.961;000.086;64;000.336;MIDI 01
216.964;000.095;59;000.289;MIDI 01
216.947;000.153;68;000.422;MIDI 01
217.409;000.069;47;000.352;MIDI 01
217.416;000.089;59;000.391;MIDI 01
217.407;000.119;66;000.445;MIDI 01
217.414;000.137;63;000.430;MIDI 01
217.702;000.043;59;000.453;MIDI 01
217.706;000.041;56;000.438;MIDI 01
217.700;000.051;65;000.484;MIDI 01
217.721;000.051;47;000.266;MIDI 01
217.840;000.041;54;000.516;MIDI 01
217.846;000.036;59;000.461;MIDI 01
217.848;000.040;63;000.422;MIDI 01
217.858;000.047;47;000.383;MIDI 01
217.826;000.091;66;000.562;MIDI 01
218.343;000.060;54;000.219;MIDI 01
218.317;000.089;47;000.352;MIDI 01
218.345;000.077;59;000.125;MIDI 01
218.289;000.144;63;000.422;MIDI 01
219.228;000.049;47;000.359;MIDI 01
219.222;000.057;54;000.398;MIDI 01
219.224;000.067;35;000.328;MIDI 01
219.219;000.111;63;000.391;MIDI 01
219.691;000.072;35;000.391;MIDI 01
219.695;000.072;47;000.391;MIDI 01
219.693;000.118;56;000.430;MIDI 01
219.677;000.149;64;000.477;MIDI 01
220.120;000.071;47;000.398;MIDI 01
220.116;000.093;35;000.406;MIDI 01
220.160;000.067;59;000.250;MIDI 01
220.118;000.122;54;000.469;MIDI 01
220.122;000.152;63;000.469;MIDI 01
220.414;000.041;35;000.422;MIDI 01
220.420;000.039;47;000.414;MIDI 01
220.427;000.033;53;000.469;MIDI 01
220.428;000.046;61;000.461;MIDI 01
220.454;000.049;59;000.289;MIDI 01
220.562;000.036;47;000.539;MIDI 01
220.567;000.046;35;000.508;MIDI 01
220.576;000.045;59;000.227;MIDI 01
220.578;000.056;63;000.414;MIDI 01
220.583;000.059;53;000.180;MIDI 01
221.021;000.093;51;000.336;MIDI 01
221.046;000.105;54;000.188;MIDI 01
221.050;000.122;47;000.180;MIDI 01
221.018;000.157;35;000.289;MIDI 01
221.018;000.220;59;000.328;MIDI 01
222.035;000.065;63;000.219;MIDI 01
222.031;000.080;59;000.227;MIDI 01
222.039;000.082;47;000.250;MIDI 01
222.010;000.113;66;000.336;MIDI 01
222.267;000.092;47;000.414;MIDI 01
222.282;000.078;63;000.352;MIDI 01
222.262;000.117;59;000.414;MIDI 01
222.284;000.103;66;000.391;MIDI 01
222.552;000.284;59;000.453;MIDI 01
222.550;000.334;63;000.367;MIDI 01
222.540;000.367;66;000.523;MIDI 01
222.535;000.560;47;000.453;MIDI 01
223.049;000.308;51;000.406;MIDI 01
223.035;000.324;58;000.438;MIDI 01
223.012;000.357;66;000.492;MIDI 01
223.043;000.330;63;000.445;MIDI 01
223.534;000.211;66;000.406;MIDI 01
223.474;000.290;70;000.562;MIDI 01
223.496;000.271;58;000.414;MIDI 01
223.554;000.228;63;000.289;MIDI 01
223.525;000.274;51;000.438;MIDI 01
223.934;000.047;63;000.359;MIDI 01
223.939;000.047;66;000.367;MIDI 01
223.917;000.078;58;000.508;MIDI 01
223.958;000.055;51;000.398;MIDI 01
223.911;000.111;70;000.586;MIDI 01
224.143;000.064;66;000.352;MIDI 01
224.162;000.046;63;000.227;MIDI 01
224.120;000.107;58;000.586;MIDI 01
224.139;000.131;51;000.461;MIDI 01
224.119;000.154;70;000.609;MIDI 01
224.404;000.269;66;000.383;MIDI 01
224.367;000.336;58;000.594;MIDI 01
224.347;000.385;70;000.617;MIDI 01
224.420;000.366;63;000.180;MIDI 01
224.898;000.168;63;000.398;MIDI 01
224.885;000.227;54;000.539;MIDI 01
224.882;000.261;58;000.586;MIDI 01
224.390;000.771;51;000.547;MIDI 01
224.875;000.317;70;000.656;MIDI 01
224.901;000.293;66;000.516;MIDI 01
225.322;000.090;58;000.484;MIDI 01
225.409;000.546;64;000.461;MIDI 01
225.525;000.476;73;000.617;MIDI 01
225.402;000.624;66;000.508;MIDI 01
225.523;000.525;42;000.562;MIDI 01
225.532;000.526;30;000.570;MIDI 01
226.597;000.225;57;000.320;MIDI 01
226.635;000.200;47;000.258;MIDI 01
226.629;000.209;35;000.273;MIDI 01
226.626;000.224;66;000.414;MIDI 01
226.619;000.241;63;000.281;MIDI 01
228.028;000.084;66;000.383;MIDI 01
228.061;000.057;57;000.156;MIDI 01
228.026;000.095;47;000.242;MIDI 01
228.509;000.044;47;000.453;MIDI 01
228.524;000.068;57;000.250;MIDI 01
228.532;000.074;59;000.234;MIDI 01
228.486;000.189;68;000.500;MIDI 01
228.924;000.036;47;000.359;MIDI 01
228.934;000.075;57;000.359;MIDI 01
228.958;000.059;59;000.188;MIDI 01
228.932;000.111;66;000.414;MIDI 01
229.255;000.051;57;000.391;MIDI 01
229.265;000.045;47;000.375;MIDI 01
229.251;000.060;65;000.422;MIDI 01
229.405;000.046;47;000.516;MIDI 01
229.419;000.052;57;000.398;MIDI 01
229.387;000.086;66;000.531;MIDI 01
229.443;000.089;63;000.023;MIDI 01
229.881;000.068;47;000.328;MIDI 01
229.855;000.111;57;000.352;MIDI 01
229.882;000.111;59;000.305;MIDI 01
229.848;000.203;63;000.391;MIDI 01
230.815;000.230;57;000.375;MIDI 01
230.817;000.282;63;000.422;MIDI 01
230.835;000.293;47;000.266;MIDI 01
230.834;000.310;59;000.359;MIDI 01
231.334;000.328;47;000.375;MIDI 01
231.332;000.349;64;000.516;MIDI 01
231.331;000.356;55;000.500;MIDI 01
231.339;000.360;59;000.305;MIDI 01
231.379;000.333;40;000.406;MIDI 01
231.779;000.133;47;000.414;MIDI 01
231.772;000.158;40;000.406;MIDI 01
231.768;000.165;55;000.500;MIDI 01
231.771;000.215;63;000.523;MIDI 01
232.095;000.033;55;000.445;MIDI 01
232.088;000.045;40;000.297;MIDI 01
232.065;000.077;61;000.578;MIDI 01
232.267;000.059;35;000.344;MIDI 01
232.209;000.121;55;000.539;MIDI 01
232.228;000.120;47;000.031;MIDI 01
232.276;000.074;59;000.156;MIDI 01
232.221;000.143;63;000.477;MIDI 01
232.842;000.129;54;000.102;MIDI 01
232.777;000.200;51;000.227;MIDI 01
232.784;000.210;35;000.266;MIDI 01
232.785;000.211;47;000.070;MIDI 01
232.746;000.283;59;000.383;MIDI 01
233.624;000.053;63;000.273;MIDI 01
233.598;000.082;59;000.305;MIDI 01
233.611;000.072;56;000.219;MIDI 01
233.592;000.116;71;000.391;MIDI 01
233.833;000.041;63;000.375;MIDI 01
233.841;000.048;56;000.414;MIDI 01
233.843;000.062;59;000.367;MIDI 01
233.804;000.123;71;000.375;MIDI 01
234.046;000.136;56;000.391;MIDI 01
234.029;000.251;71;000.516;MIDI 01
234.035;000.252;59;000.500;MIDI 01
234.048;000.242;63;000.383;MIDI 01
234.502;000.295;71;000.555;MIDI 01
234.524;000.275;55;000.477;MIDI 01
234.520;000.286;59;000.531;MIDI 01
234.536;000.280;43;000.422;MIDI 01
234.529;000.334;64;000.469;MIDI 01
234.956;000.166;71;000.602;MIDI 01
234.970;000.160;59;000.617;MIDI 01
234.981;000.168;55;000.516;MIDI 01
234.998;000.159;43;000.484;MIDI 01
234.984;000.205;64;000.453;MIDI 01
235.370;000.068;58;000.438;MIDI 01
235.438;000.181;64;000.500;MIDI 01
235.502;000.238;73;000.602;MIDI 01
235.508;000.279;42;000.531;MIDI 01
235.500;000.343;54;000.539;MIDI 01
235.932;000.027;66;000.477;MIDI 01
235.919;000.041;75;000.570;MIDI 01
236.101;000.568;64;000.461;MIDI 01
236.121;000.701;58;000.391;MIDI 01
236.079;001.023;73;000.617;MIDI 01
237.200;000.632;59;000.266;MIDI 01
237.235;000.663;47;000.242;MIDI 01
237.139;001.059;71;000.391;MIDI 01
237.177;001.470;63;000.312;MIDI 01
238.293;000.389;70;000.312;MIDI 01
238.291;000.395;58;000.227;MIDI 01
238.333;000.357;66;000.195;MIDI 01
238.325;000.383;51;000.219;MIDI 01
236.134;002.582;54;000.344;MIDI 01
239.711;000.067;51;000.164;MIDI 01
239.714;000.072;63;000.203;MIDI 01
239.721;000.073;66;000.188;MIDI 01
239.686;000.110;70;000.367;MIDI 01
240.136;000.197;71;000.359;MIDI 01
240.139;000.222;63;000.320;MIDI 01
240.186;000.191;68;000.227;MIDI 01
240.162;000.254;56;000.281;MIDI 01
240.646;000.058;66;000.266;MIDI 01
240.622;000.132;63;000.391;MIDI 01
240.626;000.141;51;000.328;MIDI 01
240.620;000.157;70;000.422;MIDI 01
240.943;000.054;59;000.250;MIDI 01
240.938;000.062;63;000.406;MIDI 01
240.954;000.054;51;000.367;MIDI 01
240.946;000.065;68;000.438;MIDI 01
241.089;000.060;63;000.453;MIDI 01
241.091;000.062;58;000.438;MIDI 01
241.128;000.053;51;000.312;MIDI 01
241.084;000.105;70;000.469;MIDI 01
241.582;000.190;63;000.312;MIDI 01
241.570;000.244;66;000.312;MIDI 01
241.617;000.200;58;000.070;MIDI 01
241.584;000.242;51;000.273;MIDI 01
242.565;000.145;66;000.328;MIDI 01
242.544;000.183;58;000.312;MIDI 01
242.567;000.175;51;000.289;MIDI 01
242.556;000.218;63;000.297;MIDI 01
243.021;000.121;59;000.391;MIDI 01
243.016;000.147;68;000.445;MIDI 01
243.036;000.170;63;000.266;MIDI 01
243.046;000.254;44;000.383;MIDI 01
243.516;000.140;58;000.367;MIDI 01
243.509;000.155;46;000.461;MIDI 01
243.483;000.186;66;000.469;MIDI 01
243.514;000.168;62;000.398;MIDI 01
243.821;000.047;56;000.438;MIDI 01
243.825;000.049;58;000.422;MIDI 01
243.824;000.056;65;000.469;MIDI 01
243.828;000.060;46;000.391;MIDI 01
243.984;000.072;58;000.453;MIDI 01
243.980;000.081;54;000.414;MIDI 01
244.018;000.046;63;000.227;MIDI 01
243.961;000.131;66;000.508;MIDI 01
243.982;000.116;51;000.422;MIDI 01
244.467;000.216;51;000.328;MIDI 01
244.486;000.246;58;000.188;MIDI 01
244.450;000.310;63;000.328;MIDI 01
245.526;000.069;58;000.203;MIDI 01
245.528;000.069;51;000.273;MIDI 01
245.494;000.105;70;000.336;MIDI 01
245.772;000.059;51;000.359;MIDI 01
245.767;000.066;58;000.273;MIDI 01
245.765;000.075;70;000.391;MIDI 01
245.831;000.082;66;000.070;MIDI 01
246.014;000.094;58;000.305;MIDI 01
246.047;000.073;66;000.219;MIDI 01
245.976;000.147;70;000.430;MIDI 01
246.022;000.108;51;000.320;MIDI 01
246.076;000.059;63;000.023;MIDI 01
246.425;000.091;70;000.422;MIDI 01
246.461;000.055;51;000.328;MIDI 01
246.448;000.074;58;000.305;MIDI 01
246.484;000.048;66;000.219;MIDI 01
246.680;000.067;51;000.391;MIDI 01
246.678;000.073;66;000.359;MIDI 01
246.673;000.082;58;000.406;MIDI 01
246.714;000.055;63;000.109;MIDI 01
246.658;000.113;70;000.484;MIDI 01
246.902;000.149;58;000.445;MIDI 01
246.910;000.159;63;000.398;MIDI 01
246.909;000.179;66;000.414;MIDI 01
246.896;000.195;70;000.500;MIDI 01
246.926;000.198;51;000.344;MIDI 01
247.427;000.053;51;000.312;MIDI 01
247.378;000.108;58;000.461;MIDI 01
247.438;000.051;66;000.250;MIDI 01
247.370;000.130;70;000.523;MIDI 01
247.451;000.060;63;000.094;MIDI 01
247.664;000.056;63;000.383;MIDI 01
247.623;000.108;58;000.523;MIDI 01
247.627;000.142;66;000.422;MIDI 01
247.602;000.177;70;000.539;MIDI 01
247.625;000.159;51;000.398;MIDI 01
247.934;000.215;66;000.453;MIDI 01
247.908;000.286;58;000.555;MIDI 01
247.899;000.303;70;000.656;MIDI 01
247.957;000.316;63;000.266;MIDI 01
248.404;000.277;58;000.562;MIDI 01
248.415;000.269;54;000.547;MIDI 01
248.429;000.297;66;000.516;MIDI 01
247.928;000.818;51;000.547;MIDI 01
248.430;000.331;63;000.430;MIDI 01
248.393;000.455;70;000.625;MIDI 01
248.923;000.093;58;000.414;MIDI 01
249.009;000.585;64;000.461;MIDI 01
249.145;000.470;30;000.547;MIDI 01
249.139;000.482;42;000.562;MIDI 01
249.133;000.493;73;000.594;MIDI 01
249.011;000.657;66;000.523;MIDI 01
250.276;000.247;57;000.305;MIDI 01
250.282;000.254;66;000.391;MIDI 01
250.310;000.234;35;000.273;MIDI 01
250.302;000.274;47;000.297;MIDI 01
250.280;000.306;63;000.297;MIDI 01
251.699;000.051;57;000.266;MIDI 01
251.686;000.066;59;000.312;MIDI 01
251.705;000.059;63;000.203;MIDI 01
251.689;000.081;66;000.328;MIDI 01
251.727;000.057;47;000.102;MIDI 01
252.175;000.051;47;000.258;MIDI 01
252.196;000.061;64;000.242;MIDI 01
252.179;000.080;59;000.227;MIDI 01
252.198;000.064;57;000.055;MIDI 01
252.164;000.131;68;000.422;MIDI 01
252.632;000.061;57;000.258;MIDI 01
252.630;000.072;59;000.359;MIDI 01
252.642;000.071;47;000.219;MIDI 01
252.644;000.072;63;000.305;MIDI 01
252.622;000.121;66;000.398;MIDI 01
252.930;000.044;65;000.438;MIDI 01
252.934;000.042;59;000.375;MIDI 01
252.942;000.035;57;000.305;MIDI 01
252.952;000.051;47;000.148;MIDI 01
252.982;000.047;63;000.023;MIDI 01
253.086;000.029;47;000.414;MIDI 01
253.089;000.032;57;000.484;MIDI 01
253.078;000.045;59;000.523;MIDI 01
253.060;000.086;66;000.516;MIDI 01
253.556;000.070;59;000.367;MIDI 01
253.569;000.060;57;000.328;MIDI 01
253.549;000.130;63;000.398;MIDI 01
253.590;000.107;47;000.219;MIDI 01
254.489;000.275;57;000.352;MIDI 01
254.519;000.396;47;000.281;MIDI 01
254.484;000.448;63;000.375;MIDI 01
254.505;000.496;59;000.328;MIDI 01
255.076;000.347;47;000.383;MIDI 01
255.099;000.341;59;000.312;MIDI 01
255.083;000.376;64;000.523;MIDI 01
255.093;000.369;55;000.461;MIDI 01
255.130;000.354;40;000.406;MIDI 01
255.583;000.122;47;000.484;MIDI 01
255.568;000.140;55;000.508;MIDI 01
255.573;000.161;40;000.430;MIDI 01
255.562;000.218;63;000.609;MIDI 01
255.874;000.040;55;000.500;MIDI 01
255.890;000.033;40;000.383;MIDI 01
255.866;000.083;61;000.508;MIDI 01
255.926;000.050;59;000.141;MIDI 01
256.066;000.071;35;000.391;MIDI 01
256.012;000.130;63;000.547;MIDI 01
256.036;000.108;54;000.469;MIDI 01
256.027;000.123;47;000.188;MIDI 01
256.521;000.159;51;000.367;MIDI 01
256.538;000.170;54;000.281;MIDI 01
256.528;000.209;47;000.273;MIDI 01
256.531;000.209;35;000.281;MIDI 01
256.497;000.270;59;000.414;MIDI 01
257.506;000.065;63;000.125;MIDI 01
257.478;000.097;59;000.258;MIDI 01
257.485;000.093;56;000.250;MIDI 01
257.452;000.133;71;000.367;MIDI 01
257.716;000.056;63;000.359;MIDI 01
257.708;000.085;59;000.375;MIDI 01
257.721;000.079;56;000.383;MIDI 01
257.680;000.144;71;000.391;MIDI 01
257.956;000.159;63;000.375;MIDI 01
257.967;000.191;56;000.414;MIDI 01
257.938;000.264;59;000.484;MIDI 01
257.932;000.301;71;000.531;MIDI 01
258.419;000.253;55;000.469;MIDI 01
258.442;000.235;43;000.438;MIDI 01
258.399;000.282;59;000.516;MIDI 01
258.385;000.298;71;000.609;MIDI 01
258.422;000.327;64;000.461;MIDI 01
258.875;000.178;71;000.617;MIDI 01
258.883;000.173;59;000.594;MIDI 01
258.885;000.214;55;000.469;MIDI 01
258.896;000.228;43;000.438;MIDI 01
258.920;000.234;64;000.414;MIDI 01
259.288;000.064;58;000.445;MIDI 01
259.355;000.418;64;000.438;MIDI 01
259.451;000.357;73;000.602;MIDI 01
259.481;000.333;42;000.547;MIDI 01
259.478;000.401;54;000.578;MIDI 01
259.946;000.034;75;000.562;MIDI 01
259.950;000.031;66;000.562;MIDI 01
260.129;000.616;58;000.406;MIDI 01
260.120;000.672;64;000.547;MIDI 01
260.108;001.052;73;000.648;MIDI 01
261.271;000.529;59;000.266;MIDI 01
261.207;000.646;71;000.438;MIDI 01
260.137;001.839;54;000.344;MIDI 01
261.268;000.711;47;000.297;MIDI 01
261.234;001.400;63;000.352;MIDI 01
262.415;000.283;58;000.328;MIDI 01
262.432;000.287;39;000.258;MIDI 01
262.449;000.278;51;000.281;MIDI 01
262.410;000.395;70;000.398;MIDI 01
262.451;000.384;66;000.203;MIDI 01
263.805;000.065;63;000.172;MIDI 01
263.776;000.108;39;000.305;MIDI 01
263.809;000.077;66;000.188;MIDI 01
263.801;000.092;51;000.195;MIDI 01
263.803;000.095;70;000.297;MIDI 01
264.256;000.114;51;000.227;MIDI 01
264.242;000.157;71;000.328;MIDI 01
264.292;000.134;44;000.219;MIDI 01
264.270;000.176;63;000.273;MIDI 01
264.289;000.217;68;000.266;MIDI 01
264.702;000.076;39;000.398;MIDI 01
264.720;000.070;51;000.297;MIDI 01
264.727;000.065;66;000.312;MIDI 01
264.715;000.084;63;000.320;MIDI 01
264.710;000.128;70;000.445;MIDI 01
265.047;000.035;59;000.398;MIDI 01
265.034;000.049;63;000.430;MIDI 01
265.053;000.051;68;000.391;MIDI 01
265.071;000.039;51;000.305;MIDI 01
265.197;000.053;63;000.430;MIDI 01
265.202;000.054;58;000.398;MIDI 01
265.208;000.058;51;000.352;MIDI 01
265.177;000.092;70;000.500;MIDI 01
265.235;000.052;66;000.203;MIDI 01
265.684;000.100;58;000.227;MIDI 01
265.689;000.111;63;000.258;MIDI 01
265.669;000.161;51;000.227;MIDI 01
265.652;000.219;66;000.258;MIDI 01
266.581;000.093;58;000.344;MIDI 01
266.598;000.077;63;000.273;MIDI 01
266.593;000.084;39;000.148;MIDI 01
266.575;000.110;51;000.352;MIDI 01
266.586;000.132;66;000.344;MIDI 01
267.061;000.073;59;000.383;MIDI 01
267.066;000.087;51;000.359;MIDI 01
267.092;000.067;44;000.430;MIDI 01
267.094;000.117;63;000.398;MIDI 01
267.052;000.188;68;000.445;MIDI 01
267.508;000.056;39;000.414;MIDI 01
267.528;000.076;51;000.422;MIDI 01
267.534;000.077;63;000.281;MIDI 01
267.530;000.119;58;000.453;MIDI 01
267.526;000.141;66;000.484;MIDI 01
267.827;000.039;56;000.406;MIDI 01
267.830;000.053;65;000.469;MIDI 01
267.834;000.055;58;000.398;MIDI 01
267.839;000.055;46;000.312;MIDI 01
267.968;000.091;66;000.500;MIDI 01
267.998;000.067;63;000.320;MIDI 01
267.992;000.093;54;000.383;MIDI 01
268.000;000.090;58;000.320;MIDI 01
268.055;000.048;51;000.312;MIDI 01
268.470;000.157;54;000.234;MIDI 01
268.472;000.212;58;000.250;MIDI 01
268.479;000.210;51;000.258;MIDI 01
268.436;000.300;63;000.289;MIDI 01
269.522;000.067;70;000.305;MIDI 01
269.517;000.082;51;000.234;MIDI 01
269.515;000.096;39;000.289;MIDI 01
269.547;000.066;66;000.148;MIDI 01
269.750;000.045;39;000.328;MIDI 01
269.752;000.057;51;000.320;MIDI 01
269.773;000.043;66;000.266;MIDI 01
269.762;000.055;58;000.336;MIDI 01
269.721;000.121;70;000.484;MIDI 01
269.807;000.050;63;000.023;MIDI 01
269.975;000.084;39;000.367;MIDI 01
270.025;000.045;63;000.320;MIDI 01
269.985;000.088;58;000.367;MIDI 01
269.995;000.084;66;000.273;MIDI 01
269.979;000.114;51;000.414;MIDI 01
269.977;000.130;70;000.445;MIDI 01
270.471;000.067;58;000.383;MIDI 01
270.489;000.059;51;000.383;MIDI 01
270.454;000.103;70;000.445;MIDI 01
270.743;000.043;66;000.273;MIDI 01
270.689;000.099;51;000.453;MIDI 01
270.676;000.111;58;000.477;MIDI 01
270.745;000.048;63;000.219;MIDI 01
270.684;000.127;70;000.539;MIDI 01
270.923;000.146;58;000.523;MIDI 01
270.930;000.150;63;000.359;MIDI 01
270.928;000.166;66;000.367;MIDI 01
270.915;000.181;70;000.547;MIDI 01
270.939;000.182;51;000.508;MIDI 01
271.409;000.045;51;000.430;MIDI 01
271.376;000.092;58;000.484;MIDI 01
271.433;000.047;63;000.156;MIDI 01
271.449;000.048;66;000.219;MIDI 01
271.374;000.124;70;000.531;MIDI 01
271.620;000.126;58;000.562;MIDI 01
271.639;000.109;63;000.336;MIDI 01
271.636;000.139;66;000.391;MIDI 01
271.618;000.160;70;000.594;MIDI 01
271.627;000.168;51;000.508;MIDI 01
271.939;000.214;66;000.461;MIDI 01
271.926;000.233;63;000.461;MIDI 01
271.902;000.259;58;000.594;MIDI 01
271.906;000.265;70;000.641;MIDI 01
272.670;000.058;52;000.492;MIDI 01
272.446;000.284;54;000.562;MIDI 01
271.910;000.841;51;000.609;MIDI 01
272.450;000.303;58;000.555;MIDI 01
272.465;000.295;63;000.484;MIDI 01
272.470;000.340;66;000.500;MIDI 01
272.451;000.456;70;000.594;MIDI 01
272.940;000.075;58;000.492;MIDI 01
273.019;000.652;64;000.461;MIDI 01
273.137;000.564;73;000.617;MIDI 01
273.153;000.564;42;000.555;MIDI 01
273.150;000.569;30;000.539;MIDI 01
273.021;000.715;66;000.508;MIDI 01
274.395;000.108;35;000.281;MIDI 01
274.548;000.055;47;000.258;MIDI 01
274.677;000.056;35;000.211;MIDI 01
274.377;000.369;63;000.289;MIDI 01
274.410;000.350;59;000.195;MIDI 01
274.365;000.417;57;000.336;MIDI 01
274.375;000.425;66;000.398;MIDI 01
274.756;000.054;47;000.352;MIDI 01
274.887;000.051;35;000.266;MIDI 01
274.958;000.050;47;000.344;MIDI 01
275.057;000.048;35;000.312;MIDI 01
275.157;000.049;47;000.328;MIDI 01
275.236;000.058;35;000.391;MIDI 01
275.349;000.049;47;000.344;MIDI 01
275.450;000.050;35;000.336;MIDI 01
275.527;000.050;47;000.383;MIDI 01
275.626;000.048;35;000.273;MIDI 01
275.723;000.050;47;000.383;MIDI 01
275.822;000.059;35;000.406;MIDI 01
275.911;000.071;47;000.414;MIDI 01
275.957;000.078;57;000.133;MIDI 01
275.960;000.077;59;000.094;MIDI 01
276.026;000.035;35;000.312;MIDI 01
275.907;000.240;71;000.453;MIDI 01
275.904;000.284;66;000.359;MIDI 01
276.139;000.052;47;000.312;MIDI 01
276.239;000.059;35;000.336;MIDI 01
276.331;000.085;47;000.375;MIDI 01
276.465;000.049;35;000.359;MIDI 01
276.341;000.264;68;000.461;MIDI 01
276.554;000.058;47;000.398;MIDI 01
276.335;000.295;71;000.492;MIDI 01
276.380;000.252;57;000.211;MIDI 01
276.381;000.253;59;000.219;MIDI 01
276.683;000.079;35;000.336;MIDI 01
276.768;000.083;47;000.430;MIDI 01
276.776;000.093;66;000.406;MIDI 01
276.773;000.119;71;000.492;MIDI 01
277.031;000.064;47;000.289;MIDI 01
277.028;000.071;65;000.461;MIDI 01
276.982;000.119;35;000.391;MIDI 01
277.033;000.118;71;000.500;MIDI 01
277.301;000.069;35;000.391;MIDI 01
277.331;000.064;59;000.227;MIDI 01
277.334;000.079;57;000.211;MIDI 01
277.283;000.139;47;000.352;MIDI 01
277.304;000.119;66;000.438;MIDI 01
277.285;000.176;71;000.492;MIDI 01
277.790;000.174;71;000.406;MIDI 01
277.805;000.178;63;000.344;MIDI 01
277.839;000.169;47;000.258;MIDI 01
277.876;000.169;57;000.023;MIDI 01
277.854;000.205;35;000.211;MIDI 01
278.892;000.175;57;000.320;MIDI 01
278.916;000.225;47;000.219;MIDI 01
278.986;000.179;35;000.188;MIDI 01
278.870;000.306;63;000.398;MIDI 01
279.449;000.364;64;000.523;MIDI 01
279.475;000.348;47;000.352;MIDI 01
279.461;000.375;55;000.484;MIDI 01
279.481;000.360;40;000.391;MIDI 01
278.930;000.932;59;000.172;MIDI 01
279.950;000.115;47;000.398;MIDI 01
279.972;000.135;40;000.406;MIDI 01
279.952;000.177;55;000.531;MIDI 01
279.946;000.220;63;000.547;MIDI 01
280.288;000.035;46;000.383;MIDI 01
280.277;000.064;61;000.539;MIDI 01
280.298;000.047;40;000.320;MIDI 01
280.305;000.042;55;000.398;MIDI 01
280.431;000.092;61;000.375;MIDI 01
280.449;000.085;55;000.523;MIDI 01
280.427;000.117;46;000.500;MIDI 01
280.439;000.141;63;000.445;MIDI 01
280.447;000.134;39;000.391;MIDI 01
280.961;000.224;51;000.312;MIDI 01
280.977;000.229;44;000.336;MIDI 01
280.944;000.298;59;000.438;MIDI 01
281.959;000.064;63;000.227;MIDI 01
281.958;000.072;56;000.242;MIDI 01
281.939;000.094;59;000.297;MIDI 01
281.956;000.080;44;000.266;MIDI 01
281.924;000.130;71;000.367;MIDI 01
282.181;000.071;63;000.352;MIDI 01
282.185;000.071;59;000.406;MIDI 01
282.198;000.059;44;000.375;MIDI 01
282.212;000.047;56;000.312;MIDI 01
282.169;000.126;71;000.477;MIDI 01
282.422;000.136;63;000.430;MIDI 01
282.407;000.202;59;000.547;MIDI 01
282.424;000.202;56;000.406;MIDI 01
282.401;000.251;71;000.602;MIDI 01
282.419;000.505;44;000.383;MIDI 01
282.897;000.265;59;000.570;MIDI 01
282.938;000.244;64;000.406;MIDI 01
282.940;000.253;55;000.398;MIDI 01
282.951;000.253;43;000.445;MIDI 01
282.896;000.315;71;000.664;MIDI 01
283.399;000.215;71;000.625;MIDI 01
283.416;000.205;59;000.586;MIDI 01
283.433;000.223;55;000.461;MIDI 01
283.431;000.240;43;000.477;MIDI 01
283.445;000.245;64;000.469;MIDI 01
283.815;000.053;58;000.500;MIDI 01
283.872;000.174;64;000.516;MIDI 01
283.935;000.220;73;000.625;MIDI 01
283.960;000.238;42;000.500;MIDI 01
283.956;000.316;54;000.516;MIDI 01
284.377;000.038;75;000.586;MIDI 01
284.383;000.040;66;000.555;MIDI 01
284.553;000.782;64;000.523;MIDI 01
284.556;000.793;58;000.359;MIDI 01
284.530;001.321;73;000.641;MIDI 01
284.558;001.473;54;000.359;MIDI 01
285.751;000.595;71;000.336;MIDI 01
285.793;000.566;59;000.133;MIDI 01
285.801;000.559;47;000.133;MIDI 01
285.753;000.610;63;000.258;MIDI 01
287.393;000.347;63;000.297;MIDI 01
287.402;000.404;56;000.172;MIDI 01
287.392;000.454;53;000.227;MIDI 01
287.344;000.603;71;000.438;MIDI 01
287.897;000.218;73;000.516;MIDI 01
288.168;000.957;63;000.422;MIDI 01
288.122;001.249;71;000.531;MIDI 01
288.193;001.870;53;000.250;MIDI 01
288.173;002.026;56;000.297;MIDI 01
289.406;000.850;62;000.172;MIDI 01
289.399;000.950;70;000.312;MIDI 01
289.976;000.422;46;000.180;MIDI 01
291.111;000.319;63;000.219;MIDI 01
291.077;000.436;71;000.336;MIDI 01
291.117;000.423;56;000.078;MIDI 01
291.085;000.468;53;000.211;MIDI 01
291.738;000.107;73;000.438;MIDI 01
292.043;001.016;63;000.289;MIDI 01
291.984;001.306;71;000.477;MIDI 01
292.071;002.055;53;000.219;MIDI 01
292.056;002.097;56;000.266;MIDI 01
293.373;000.783;62;000.195;MIDI 01
293.342;000.964;70;000.344;MIDI 01
293.975;000.556;46;000.219;MIDI 01
295.449;001.116;59;000.367;MIDI 01
296.306;000.480;47;000.430;MIDI 01
295.464;001.415;51;000.328;MIDI 01
295.488;001.460;42;000.219;MIDI 01
296.304;001.472;56;000.500;MIDI 01
297.616;003.743;53;000.461;MIDI 01
297.620;003.771;46;000.438;MIDI 01
297.631;003.766;38;000.398;MIDI 01
297.617;003.785;58;000.523;MIDI 01
302.008;000.212;46;000.117;MIDI 01
301.968;000.258;58;000.242;MIDI 01
302.179;000.101;47;000.125;MIDI 01
302.168;000.119;59;000.273;MIDI 01
302.303;000.091;57;000.297;MIDI 01
302.286;000.172;45;000.297;MIDI 01
302.457;000.123;46;000.062;MIDI 01
302.402;000.229;58;000.344;MIDI 01
302.583;000.360;51;000.211;MIDI 01
302.596;000.403;39;000.258;MIDI 01
303.618;000.053;46;000.195;MIDI 01
303.605;000.068;39;000.242;MIDI 01
303.620;000.058;58;000.188;MIDI 01
303.607;000.075;51;000.250;MIDI 01
303.633;000.068;54;000.109;MIDI 01
303.802;000.077;51;000.273;MIDI 01
303.812;000.070;58;000.297;MIDI 01
303.858;000.115;46;000.039;MIDI 01
304.024;000.073;54;000.156;MIDI 01
304.017;000.086;51;000.289;MIDI 01
304.031;000.079;46;000.023;MIDI 01
304.010;000.144;58;000.188;MIDI 01
304.449;000.061;46;000.234;MIDI 01
304.447;000.066;51;000.242;MIDI 01
304.445;000.075;39;000.211;MIDI 01
304.459;000.062;54;000.164;MIDI 01
304.430;000.173;58;000.305;MIDI 01
304.677;000.054;54;000.219;MIDI 01
304.655;000.079;51;000.273;MIDI 01
304.683;000.072;39;000.102;MIDI 01
304.686;000.070;46;000.180;MIDI 01
304.903;000.067;54;000.289;MIDI 01
304.909;000.065;51;000.273;MIDI 01
304.931;000.075;46;000.211;MIDI 01
304.929;000.107;39;000.234;MIDI 01
304.631;000.500;58;000.109;MIDI 01
305.446;000.062;51;000.203;MIDI 01
305.479;000.056;54;000.125;MIDI 01
305.450;000.091;39;000.188;MIDI 01
305.476;000.069;46;000.086;MIDI 01
305.421;000.165;58;000.289;MIDI 01
305.724;000.059;54;000.195;MIDI 01
305.726;000.081;51;000.289;MIDI 01
305.775;000.053;39;000.203;MIDI 01
305.745;000.084;46;000.125;MIDI 01
305.720;000.172;58;000.203;MIDI 01
306.217;000.255;54;000.094;MIDI 01
306.197;000.278;51;000.117;MIDI 01
306.174;000.320;58;000.164;MIDI 01
306.194;000.309;46;000.125;MIDI 01
306.194;000.333;39;000.188;MIDI 01
307.457;000.166;58;000.422;MIDI 01
307.482;000.145;46;000.328;MIDI 01
307.627;000.070;59;000.383;MIDI 01
307.633;000.131;47;000.367;MIDI 01
307.731;000.094;57;000.336;MIDI 01
307.769;000.082;45;000.305;MIDI 01
307.849;000.109;58;000.359;MIDI 01
307.908;000.064;46;000.258;MIDI 01
307.986;000.218;39;000.375;MIDI 01
307.983;000.227;51;000.352;MIDI 01
308.742;000.053;59;000.383;MIDI 01
308.756;000.045;53;000.258;MIDI 01
308.758;000.047;44;000.336;MIDI 01
308.775;000.051;51;000.203;MIDI 01
308.906;000.055;59;000.383;MIDI 01
308.919;000.049;44;000.406;MIDI 01
308.923;000.047;53;000.273;MIDI 01
308.927;000.044;51;000.352;MIDI 01
309.092;000.050;44;000.477;MIDI 01
309.087;000.056;51;000.414;MIDI 01
309.076;000.073;59;000.438;MIDI 01
309.094;000.060;53;000.352;MIDI 01
309.090;000.067;39;000.180;MIDI 01
309.521;000.055;53;000.359;MIDI 01
309.512;000.067;59;000.422;MIDI 01
309.525;000.056;44;000.375;MIDI 01
309.519;000.065;51;000.352;MIDI 01
309.527;000.060;39;000.297;MIDI 01
309.550;000.046;56;000.188;MIDI 01
309.709;000.072;53;000.430;MIDI 01
309.721;000.062;51;000.430;MIDI 01
309.726;000.064;39;000.344;MIDI 01
309.719;000.075;44;000.414;MIDI 01
309.708;000.088;59;000.477;MIDI 01
309.951;000.070;39;000.383;MIDI 01
309.947;000.096;53;000.430;MIDI 01
309.939;000.110;51;000.422;MIDI 01
309.950;000.119;59;000.500;MIDI 01
309.949;000.122;44;000.422;MIDI 01
310.014;000.064;56;000.094;MIDI 01
310.503;000.065;51;000.352;MIDI 01
310.468;000.111;53;000.445;MIDI 01
310.514;000.069;39;000.312;MIDI 01
310.501;000.097;44;000.391;MIDI 01
310.530;000.071;56;000.062;MIDI 01
310.456;000.145;59;000.523;MIDI 01
310.843;000.052;56;000.023;MIDI 01
310.742;000.155;53;000.516;MIDI 01
310.766;000.155;44;000.461;MIDI 01
310.739;000.191;59;000.594;MIDI 01
310.753;000.186;51;000.398;MIDI 01
310.757;000.190;39;000.375;MIDI 01
311.176;000.276;51;000.383;MIDI 01
311.169;000.345;53;000.508;MIDI 01
311.163;000.436;59;000.586;MIDI 01
311.186;000.485;44;000.367;MIDI 01
311.181;000.495;39;000.336;MIDI 01
312.443;000.143;47;000.430;MIDI 01
312.457;000.144;59;000.500;MIDI 01
312.583;000.096;49;000.469;MIDI 01
312.595;000.090;61;000.469;MIDI 01
312.684;000.072;46;000.453;MIDI 01
312.697;000.091;58;000.453;MIDI 01
312.802;000.079;59;000.438;MIDI 01
312.785;000.104;47;000.359;MIDI 01
312.946;000.133;51;000.430;MIDI 01
312.944;000.160;39;000.383;MIDI 01
313.618;000.056;59;000.445;MIDI 01
313.635;000.042;53;000.344;MIDI 01
313.637;000.054;44;000.367;MIDI 01
313.644;000.051;51;000.289;MIDI 01
313.772;000.045;59;000.523;MIDI 01
313.777;000.050;51;000.430;MIDI 01
313.793;000.043;44;000.391;MIDI 01
313.809;000.055;53;000.281;MIDI 01
313.936;000.034;51;000.484;MIDI 01
313.952;000.051;53;000.359;MIDI 01
313.909;000.108;59;000.539;MIDI 01
313.967;000.068;39;000.094;MIDI 01
313.988;000.049;44;000.219;MIDI 01
314.324;000.047;53;000.445;MIDI 01
314.340;000.042;51;000.375;MIDI 01
314.319;000.069;59;000.516;MIDI 01
314.347;000.064;44;000.359;MIDI 01
314.358;000.054;39;000.305;MIDI 01
314.489;000.064;53;000.516;MIDI 01
314.506;000.061;51;000.453;MIDI 01
314.495;000.080;59;000.562;MIDI 01
314.550;000.037;44;000.422;MIDI 01
314.529;000.059;56;000.133;MIDI 01
314.557;000.052;39;000.273;MIDI 01
314.720;000.049;56;000.422;MIDI 01
314.705;000.071;51;000.516;MIDI 01
314.740;000.041;39;000.367;MIDI 01
314.702;000.080;53;000.531;MIDI 01
314.710;000.081;44;000.461;MIDI 01
314.700;000.114;59;000.648;MIDI 01
315.200;000.049;53;000.547;MIDI 01
315.205;000.051;51;000.523;MIDI 01
315.189;000.077;59;000.617;MIDI 01
315.210;000.060;44;000.461;MIDI 01
315.248;000.045;39;000.227;MIDI 01
315.490;000.039;56;000.352;MIDI 01
315.469;000.064;39;000.430;MIDI 01
315.450;000.084;53;000.586;MIDI 01
315.465;000.072;51;000.555;MIDI 01
315.476;000.079;44;000.484;MIDI 01
315.439;000.124;59;000.656;MIDI 01
315.854;000.159;51;000.562;MIDI 01
315.846;000.339;53;000.602;MIDI 01
315.830;000.411;59;000.672;MIDI 01
315.856;000.390;39;000.539;MIDI 01
315.854;000.433;44;000.477;MIDI 01
316.881;000.159;47;000.609;MIDI 01
316.898;000.149;59;000.695;MIDI 01
317.051;000.119;61;000.547;MIDI 01
317.035;000.150;49;000.602;MIDI 01
317.170;000.115;46;000.570;MIDI 01
317.174;000.120;58;000.562;MIDI 01
317.281;000.089;59;000.609;MIDI 01
317.284;000.099;47;000.555;MIDI 01
317.438;000.079;51;000.656;MIDI 01
317.440;000.096;39;000.656;MIDI 01
317.884;000.039;51;000.352;MIDI 01
317.882;000.043;56;000.406;MIDI 01
317.890;000.041;53;000.391;MIDI 01
317.873;000.059;59;000.516;MIDI 01
317.887;000.048;44;000.391;MIDI 01
317.895;000.050;47;000.336;MIDI 01
317.919;000.031;39;000.062;MIDI 01
318.027;000.035;51;000.453;MIDI 01
318.016;000.050;59;000.500;MIDI 01
318.054;000.039;44;000.367;MIDI 01
318.045;000.049;56;000.297;MIDI 01
318.057;000.049;53;000.305;MIDI 01
318.146;000.045;44;000.312;MIDI 01
318.131;000.067;47;000.219;MIDI 01
318.166;000.034;51;000.461;MIDI 01
318.168;000.042;39;000.023;MIDI 01
318.140;000.074;59;000.586;MIDI 01
318.163;000.054;53;000.234;MIDI 01
318.447;000.029;53;000.570;MIDI 01
318.453;000.033;51;000.438;MIDI 01
318.451;000.044;65;000.562;MIDI 01
318.462;000.045;44;000.414;MIDI 01
318.466;000.044;63;000.367;MIDI 01
318.474;000.042;59;000.266;MIDI 01
318.469;000.056;47;000.328;MIDI 01
318.557;000.044;53;000.602;MIDI 01
318.580;000.034;65;000.477;MIDI 01
318.592;000.036;51;000.508;MIDI 01
318.625;000.073;47;000.383;MIDI 01
318.623;000.079;44;000.398;MIDI 01
318.681;000.036;53;000.633;MIDI 01
318.706;000.034;44;000.375;MIDI 01
318.702;000.045;47;000.312;MIDI 01
318.693;000.064;63;000.570;MIDI 01
318.676;000.086;65;000.617;MIDI 01
318.596;000.170;39;000.070;MIDI 01
319.016;000.040;65;000.695;MIDI 01
319.029;000.028;75;000.547;MIDI 01
319.024;000.036;63;000.477;MIDI 01
319.021;000.044;51;000.445;MIDI 01
319.019;000.056;77;000.656;MIDI 01
319.043;000.046;56;000.438;MIDI 01
319.027;000.066;59;000.508;MIDI 01
319.055;000.040;71;000.328;MIDI 01
319.152;000.021;65;000.633;MIDI 01
319.154;000.021;75;000.555;MIDI 01
319.158;000.033;77;000.516;MIDI 01
319.179;000.045;56;000.578;MIDI 01
319.184;000.044;59;000.570;MIDI 01
319.175;000.057;63;000.547;MIDI 01
319.182;000.054;51;000.414;MIDI 01
319.277;000.040;51;000.273;MIDI 01
319.254;000.066;65;000.648;MIDI 01
319.292;000.029;71;000.477;MIDI 01
319.281;000.043;56;000.562;MIDI 01
319.272;000.060;75;000.633;MIDI 01
319.257;000.093;77;000.727;MIDI 01
319.587;000.027;65;000.711;MIDI 01
319.604;000.014;75;000.539;MIDI 01
319.599;000.028;63;000.562;MIDI 01
319.608;000.033;59;000.445;MIDI 01
319.615;000.030;71;000.367;MIDI 01
319.591;000.059;77;000.680;MIDI 01
319.619;000.034;56;000.344;MIDI 01
319.719;000.033;75;000.531;MIDI 01
319.707;000.047;65;000.711;MIDI 01
319.721;000.046;63;000.625;MIDI 01
319.714;000.057;77;000.594;MIDI 01
319.736;000.036;56;000.633;MIDI 01
319.733;000.042;59;000.641;MIDI 01
319.725;000.054;51;000.203;MIDI 01
319.842;000.050;63;000.672;MIDI 01
319.853;000.041;71;000.039;MIDI 01
319.867;000.034;51;000.414;MIDI 01
319.840;000.064;65;000.750;MIDI 01
319.849;000.056;56;000.633;MIDI 01
319.851;000.058;59;000.570;MIDI 01
319.844;000.070;75;000.641;MIDI 01
319.836;000.107;77;000.664;MIDI 01
320.179;000.032;63;000.594;MIDI 01
320.180;000.036;65;000.766;MIDI 01
320.177;000.045;75;000.680;MIDI 01
320.201;000.031;71;000.406;MIDI 01
320.186;000.048;59;000.484;MIDI 01
320.191;000.046;56;000.469;MIDI 01
320.182;000.060;77;000.688;MIDI 01
320.221;000.033;51;000.336;MIDI 01
320.316;000.029;63;000.500;MIDI 01
320.339;000.030;59;000.422;MIDI 01
320.333;000.038;65;000.711;MIDI 01
320.341;000.036;77;000.664;MIDI 01
320.343;000.045;51;000.586;MIDI 01
320.330;000.059;56;000.547;MIDI 01
320.335;000.059;75;000.695;MIDI 01
320.455;000.048;65;000.242;MIDI 01
320.660;000.108;38;000.672;MIDI 01
320.663;000.136;50;000.695;MIDI 01
320.648;000.321;70;000.547;MIDI 01
320.672;000.317;77;000.617;MIDI 01
320.656;000.345;82;000.750;MIDI 01
321.117;000.043;58;000.570;MIDI 01
321.131;000.039;50;000.430;MIDI 01
321.139;000.041;53;000.461;MIDI 01
321.259;000.039;50;000.594;MIDI 01
321.265;000.039;53;000.617;MIDI 01
321.254;000.059;58;000.594;MIDI 01
321.400;000.033;50;000.516;MIDI 01
321.397;000.039;53;000.594;MIDI 01
321.379;000.086;58;000.602;MIDI 01
321.683;000.035;58;000.539;MIDI 01
321.698;000.034;53;000.469;MIDI 01
321.700;000.034;50;000.375;MIDI 01
321.831;000.032;50;000.500;MIDI 01
321.825;000.041;53;000.562;MIDI 01
321.812;000.054;58;000.453;MIDI 01
322.004;000.233;49;000.539;MIDI 01
321.994;000.246;58;000.562;MIDI 01
322.070;000.196;51;000.383;MIDI 01
322.027;000.243;55;000.469;MIDI 01
322.373;000.055;58;000.555;MIDI 01
322.380;000.078;55;000.461;MIDI 01
321.984;000.512;63;000.750;MIDI 01
322.382;000.174;49;000.523;MIDI 01
322.529;000.043;51;000.562;MIDI 01
322.697;000.095;63;000.680;MIDI 01
322.790;000.109;65;000.578;MIDI 01
322.695;000.246;47;000.531;MIDI 01
322.678;000.266;58;000.609;MIDI 01
322.924;000.047;63;000.500;MIDI 01
322.705;000.268;51;000.484;MIDI 01
322.971;000.085;65;000.547;MIDI 01
323.076;000.046;63;000.516;MIDI 01
323.073;000.053;58;000.516;MIDI 01
323.097;000.032;47;000.398;MIDI 01
323.104;000.033;51;000.328;MIDI 01
323.129;000.058;65;000.477;MIDI 01
323.221;000.026;63;000.406;MIDI 01
323.236;000.054;47;000.523;MIDI 01
323.245;000.048;58;000.500;MIDI 01
323.254;000.044;51;000.555;MIDI 01
323.283;000.073;65;000.555;MIDI 01
323.344;000.096;63;000.484;MIDI 01
323.414;000.032;47;000.484;MIDI 01
323.404;000.053;51;000.531;MIDI 01
323.394;000.073;58;000.594;MIDI 01
323.466;000.042;62;000.562;MIDI 01
323.557;000.029;63;000.469;MIDI 01
323.651;000.054;65;000.469;MIDI 01
323.714;000.118;66;000.539;MIDI 01
323.694;000.169;58;000.492;MIDI 01
323.806;000.062;68;000.539;MIDI 01
323.709;000.162;47;000.422;MIDI 01
323.854;000.031;70;000.586;MIDI 01
323.722;000.205;51;000.461;MIDI 01
323.930;000.048;71;000.594;MIDI 01
324.024;000.056;73;000.578;MIDI 01
324.089;000.041;75;000.539;MIDI 01
324.034;000.192;56;000.547;MIDI 01
324.184;000.065;77;000.602;MIDI 01
324.053;000.212;47;000.414;MIDI 01
324.062;000.222;51;000.469;MIDI 01
324.245;000.098;78;000.625;MIDI 01
324.307;000.084;80;000.617;MIDI 01
324.360;000.052;82;000.586;MIDI 01
324.417;000.070;47;000.609;MIDI 01
324.419;000.078;57;000.617;MIDI 01
324.424;000.094;83;000.617;MIDI 01
324.430;000.128;51;000.625;MIDI 01
324.526;000.102;85;000.711;MIDI 01
324.610;000.054;87;000.641;MIDI 01
324.719;000.048;91;000.648;MIDI 01
324.717;000.081;89;000.680;MIDI 01
324.885;000.034;46;000.578;MIDI 01
324.883;000.065;51;000.633;MIDI 01
324.873;000.076;58;000.672;MIDI 01
324.879;000.084;54;000.633;MIDI 01
324.881;000.358;90;000.805;MIDI 01
325.319;000.037;63;000.484;MIDI 01
325.312;000.046;70;000.555;MIDI 01
325.332;000.032;66;000.367;MIDI 01
325.334;000.040;58;000.352;MIDI 01
325.444;000.036;70;000.633;MIDI 01
325.449;000.035;63;000.547;MIDI 01
325.464;000.041;66;000.547;MIDI 01
325.480;000.037;58;000.414;MIDI 01
325.554;000.050;70;000.641;MIDI 01
325.561;000.062;66;000.602;MIDI 01
325.564;000.062;63;000.570;MIDI 01
325.705;000.158;87;000.680;MIDI 01
325.864;000.055;70;000.586;MIDI 01
325.879;000.047;66;000.461;MIDI 01
325.868;000.081;63;000.531;MIDI 01
325.914;000.053;58;000.172;MIDI 01
325.857;000.145;82;000.664;MIDI 01
326.008;000.061;78;000.617;MIDI 01
326.193;000.068;77;000.625;MIDI 01
326.153;000.160;70;000.500;MIDI 01
326.267;000.092;78;000.586;MIDI 01
326.173;000.188;62;000.438;MIDI 01
326.184;000.204;68;000.477;MIDI 01
326.358;000.078;77;000.594;MIDI 01
326.142;000.307;58;000.359;MIDI 01
326.435;000.134;76;000.609;MIDI 01
326.552;000.291;77;000.688;MIDI 01
326.584;000.370;68;000.484;MIDI 01
326.606;000.386;62;000.469;MIDI 01
326.594;000.410;58;000.367;MIDI 01
327.008;000.188;82;000.508;MIDI 01
327.268;000.303;51;000.336;MIDI 01
327.759;000.090;66;000.227;MIDI 01
327.758;000.301;63;000.266;MIDI 01
328.030;000.232;54;000.453;MIDI 01
328.360;000.114;66;000.336;MIDI 01
327.201;001.395;75;000.492;MIDI 01
328.322;000.309;63;000.211;MIDI 01
328.871;000.120;66;000.281;MIDI 01
328.877;000.123;74;000.398;MIDI 01
328.578;000.512;58;000.422;MIDI 01
329.016;000.218;75;000.453;MIDI 01
328.835;000.419;63;000.234;MIDI 01
329.214;000.117;78;000.492;MIDI 01
329.347;000.121;77;000.477;MIDI 01
329.174;000.381;57;000.352;MIDI 01
329.491;000.084;77;000.305;MIDI 01
329.610;000.077;72;000.477;MIDI 01
329.621;000.094;65;000.062;MIDI 01
329.555;000.286;63;000.242;MIDI 01
329.842;000.268;56;000.312;MIDI 01
330.125;000.198;65;000.258;MIDI 01
330.114;000.264;62;000.297;MIDI 01
329.803;000.580;71;000.477;MIDI 01
330.357;000.150;54;000.445;MIDI 01
330.455;000.080;70;000.453;MIDI 01
330.571;000.139;74;000.492;MIDI 01
330.599;000.118;66;000.320;MIDI 01
330.590;000.308;63;000.352;MIDI 01
330.697;000.203;75;000.562;MIDI 01
330.863;000.140;78;000.500;MIDI 01
331.031;000.032;77;000.422;MIDI 01
330.852;000.352;57;000.422;MIDI 01
331.137;000.068;77;000.555;MIDI 01
331.270;000.106;65;000.102;MIDI 01
331.273;000.122;72;000.484;MIDI 01
331.183;000.323;63;000.258;MIDI 01
331.467;000.261;56;000.359;MIDI 01
331.733;000.232;65;000.305;MIDI 01
331.432;000.572;71;000.508;MIDI 01
331.747;000.301;62;000.281;MIDI 01
332.001;000.183;54;000.445;MIDI 01
332.106;000.115;70;000.414;MIDI 01
332.272;000.075;66;000.328;MIDI 01
332.247;000.117;74;000.484;MIDI 01
332.235;000.131;58;000.328;MIDI 01
332.365;000.086;75;000.539;MIDI 01
332.284;000.321;63;000.359;MIDI 01
332.591;000.116;78;000.531;MIDI 01
332.772;000.052;77;000.539;MIDI 01
332.583;000.266;57;000.477;MIDI 01
332.871;000.041;60;000.352;MIDI 01
332.861;000.057;63;000.352;MIDI 01
332.902;000.079;77;000.531;MIDI 01
333.043;000.074;72;000.477;MIDI 01
333.166;000.104;80;000.531;MIDI 01
333.294;000.070;79;000.562;MIDI 01
333.152;000.241;58;000.516;MIDI 01
333.422;000.078;79;000.305;MIDI 01
333.398;000.109;61;000.430;MIDI 01
333.461;000.139;67;000.289;MIDI 01
333.559;000.074;75;000.570;MIDI 01
333.661;000.035;82;000.570;MIDI 01
333.452;000.278;63;000.297;MIDI 01
333.801;000.035;80;000.523;MIDI 01
333.670;000.325;59;000.469;MIDI 01
333.911;000.090;80;000.602;MIDI 01
333.955;000.077;63;000.320;MIDI 01
333.958;000.166;68;000.383;MIDI 01
334.065;000.085;75;000.484;MIDI 01
334.179;000.144;83;000.594;MIDI 01
334.323;000.035;82;000.555;MIDI 01
334.444;000.086;82;000.539;MIDI 01
334.420;000.131;70;000.484;MIDI 01
334.560;000.095;77;000.492;MIDI 01
334.425;000.296;65;000.414;MIDI 01
334.182;000.543;62;000.539;MIDI 01
334.683;000.125;83;000.508;MIDI 01
334.825;000.061;82;000.414;MIDI 01
334.679;000.316;63;000.453;MIDI 01
334.964;000.079;82;000.469;MIDI 01
334.979;000.085;70;000.211;MIDI 01
335.001;000.165;66;000.289;MIDI 01
335.099;000.093;81;000.445;MIDI 01
335.212;000.128;82;000.492;MIDI 01
335.334;000.075;83;000.547;MIDI 01
335.190;000.244;58;000.453;MIDI 01
335.467;000.080;70;000.367;MIDI 01
335.473;000.113;82;000.562;MIDI 01
335.559;000.081;90;000.625;MIDI 01
335.452;000.324;66;000.359;MIDI 01
335.780;000.145;90;000.602;MIDI 01
335.903;000.076;89;000.570;MIDI 01
336.033;000.093;89;000.547;MIDI 01
336.172;000.044;83;000.625;MIDI 01
336.097;000.174;71;000.344;MIDI 01
335.706;000.731;62;000.531;MIDI 01
336.083;000.380;68;000.391;MIDI 01
336.378;000.500;83;000.531;MIDI 01
336.376;000.504;63;000.328;MIDI 01
336.732;000.169;71;000.383;MIDI 01
336.782;000.272;66;000.305;MIDI 01
337.019;000.218;58;000.477;MIDI 01
337.148;000.116;82;000.438;MIDI 01
337.270;000.130;86;000.508;MIDI 01
337.269;000.133;70;000.367;MIDI 01
337.258;000.308;66;000.289;MIDI 01
337.408;000.190;87;000.508;MIDI 01
337.556;000.152;90;000.523;MIDI 01
337.688;000.044;89;000.484;MIDI 01
337.806;000.111;89;000.523;MIDI 01
337.934;000.059;83;000.609;MIDI 01
337.858;000.199;71;000.258;MIDI 01
337.859;000.425;68;000.312;MIDI 01
337.515;000.775;62;000.461;MIDI 01
338.593;000.254;66;000.375;MIDI 01
338.208;000.670;63;000.359;MIDI 01
338.571;000.350;71;000.484;MIDI 01
338.191;000.797;83;000.547;MIDI 01
338.994;000.075;82;000.508;MIDI 01
338.866;000.275;61;000.477;MIDI 01
339.160;000.123;70;000.383;MIDI 01
339.151;000.170;82;000.492;MIDI 01
339.309;000.092;88;000.578;MIDI 01
339.192;000.354;64;000.344;MIDI 01
339.170;000.431;67;000.375;MIDI 01
339.536;000.134;88;000.625;MIDI 01
339.669;000.062;87;000.586;MIDI 01
339.486;000.410;59;000.492;MIDI 01
339.808;000.133;87;000.547;MIDI 01
339.804;000.141;68;000.469;MIDI 01
339.940;000.102;80;000.586;MIDI 01
339.831;000.304;63;000.453;MIDI 01
340.064;000.152;89;000.656;MIDI 01
340.202;000.073;87;000.656;MIDI 01
340.069;000.371;58;000.570;MIDI 01
340.343;000.104;70;000.602;MIDI 01
340.345;000.169;87;000.656;MIDI 01
340.477;000.120;78;000.641;MIDI 01
340.352;000.379;63;000.477;MIDI 01
340.642;000.226;89;000.688;MIDI 01
340.653;000.240;56;000.609;MIDI 01
340.824;000.142;87;000.719;MIDI 01
341.074;000.428;71;000.594;MIDI 01
341.099;000.430;87;000.719;MIDI 01
341.087;000.523;65;000.508;MIDI 01
341.380;000.269;77;000.594;MIDI 01
341.084;000.583;63;000.492;MIDI 01
343.123;000.041;71;000.336;MIDI 01
343.278;000.116;71;000.453;MIDI 01
343.411;000.082;62;000.422;MIDI 01
342.758;000.765;56;000.219;MIDI 01
342.766;000.952;46;000.203;MIDI 01
344.212;000.345;56;000.250;MIDI 01
343.590;001.372;62;000.492;MIDI 01
345.075;000.829;54;000.258;MIDI 01
345.073;000.841;63;000.227;MIDI 01
344.238;001.679;46;000.211;MIDI 01
345.090;000.834;39;000.203;MIDI 01
346.688;000.091;53;000.125;MIDI 01
346.680;000.117;37;000.219;MIDI 01
346.647;000.173;65;000.359;MIDI 01
346.685;000.185;49;000.172;MIDI 01
346.675;000.214;56;000.211;MIDI 01
347.709;000.037;49;000.383;MIDI 01
347.727;000.033;42;000.383;MIDI 01
347.721;000.054;61;000.422;MIDI 01
347.734;000.051;58;000.312;MIDI 01
348.040;000.045;56;000.461;MIDI 01
348.043;000.044;65;000.414;MIDI 01
348.055;000.040;49;000.500;MIDI 01
348.075;000.036;37;000.352;MIDI 01
348.177;000.061;63;000.531;MIDI 01
348.328;000.036;49;000.414;MIDI 01
348.341;000.028;42;000.477;MIDI 01
348.325;000.046;61;000.547;MIDI 01
348.371;000.056;58;000.148;MIDI 01
348.704;000.032;59;000.430;MIDI 01
348.716;000.031;49;000.430;MIDI 01
348.706;000.056;68;000.477;MIDI 01
348.719;000.046;37;000.328;MIDI 01
348.733;000.044;65;000.234;MIDI 01
349.133;000.041;56;000.391;MIDI 01
349.128;000.048;49;000.391;MIDI 01
349.132;000.045;68;000.453;MIDI 01
349.143;000.039;59;000.336;MIDI 01
349.268;000.050;68;000.547;MIDI 01
349.281;000.041;56;000.477;MIDI 01
349.285;000.039;49;000.469;MIDI 01
349.421;000.034;56;000.500;MIDI 01
349.431;000.033;49;000.484;MIDI 01
349.423;000.102;70;000.539;MIDI 01
349.547;000.122;68;000.383;MIDI 01
349.704;000.030;56;000.398;MIDI 01
349.702;000.040;49;000.398;MIDI 01
349.718;000.027;59;000.398;MIDI 01
349.686;000.074;65;000.539;MIDI 01
349.844;000.040;49;000.570;MIDI 01
349.830;000.067;61;000.625;MIDI 01
349.980;000.049;54;000.539;MIDI 01
350.032;000.049;61;000.188;MIDI 01
349.986;000.106;70;000.562;MIDI 01
350.038;000.061;42;000.219;MIDI 01
350.323;000.051;46;000.406;MIDI 01
350.325;000.056;66;000.492;MIDI 01
350.326;000.059;58;000.508;MIDI 01
350.711;000.095;56;000.430;MIDI 01
350.714;000.102;61;000.383;MIDI 01
350.705;000.120;65;000.469;MIDI 01
350.716;000.132;49;000.477;MIDI 01
351.675;000.025;58;000.422;MIDI 01
351.669;000.038;49;000.445;MIDI 01
351.667;000.046;61;000.508;MIDI 01
351.683;000.034;42;000.438;MIDI 01
351.983;000.026;65;000.398;MIDI 01
351.993;000.028;56;000.391;MIDI 01
351.989;000.046;37;000.477;MIDI 01
352.132;000.035;56;000.406;MIDI 01
352.123;000.079;63;000.461;MIDI 01
352.250;000.033;49;000.500;MIDI 01
352.271;000.042;56;000.500;MIDI 01
352.267;000.048;41;000.461;MIDI 01
352.269;000.102;61;000.570;MIDI 01
352.417;000.057;42;000.492;MIDI 01
352.558;000.048;44;000.602;MIDI 01
352.594;000.043;60;000.438;MIDI 01
352.578;000.092;63;000.500;MIDI 01
352.949;000.030;56;000.477;MIDI 01
352.946;000.042;44;000.438;MIDI 01
352.944;000.045;63;000.461;MIDI 01
352.951;000.042;60;000.438;MIDI 01
353.087;000.045;63;000.523;MIDI 01
353.109;000.040;56;000.422;MIDI 01
353.130;000.046;44;000.250;MIDI 01
353.132;000.062;60;000.094;MIDI 01
353.234;000.040;56;000.586;MIDI 01
353.244;000.039;44;000.516;MIDI 01
353.239;000.046;61;000.477;MIDI 01
353.236;000.073;65;000.477;MIDI 01
353.384;000.088;63;000.508;MIDI 01
353.531;000.036;56;000.539;MIDI 01
353.533;000.038;58;000.500;MIDI 01
353.541;000.052;61;000.484;MIDI 01
353.558;000.036;44;000.375;MIDI 01
353.679;000.041;63;000.422;MIDI 01
353.709;000.071;60;000.047;MIDI 01
353.819;000.044;56;000.438;MIDI 01
353.840;000.027;49;000.539;MIDI 01
353.824;000.045;61;000.578;MIDI 01
353.828;000.047;65;000.516;MIDI 01
354.166;000.042;56;000.508;MIDI 01
354.168;000.042;49;000.492;MIDI 01
354.170;000.047;53;000.516;MIDI 01
354.172;000.054;61;000.469;MIDI 01
354.579;000.061;61;000.469;MIDI 01
354.566;000.095;56;000.352;MIDI 01
354.575;000.091;49;000.328;MIDI 01
354.559;000.135;65;000.531;MIDI 01
355.546;000.032;61;000.492;MIDI 01
355.550;000.036;66;000.547;MIDI 01
355.557;000.031;54;000.469;MIDI 01
355.574;000.028;70;000.438;MIDI 01
355.559;000.088;73;000.562;MIDI 01
355.865;000.034;65;000.578;MIDI 01
355.872;000.042;61;000.562;MIDI 01
355.897;000.022;76;000.414;MIDI 01
355.879;000.042;49;000.508;MIDI 01
355.861;000.069;77;000.578;MIDI 01
356.017;000.064;75;000.609;MIDI 01
356.161;000.040;61;000.523;MIDI 01
356.169;000.043;66;000.461;MIDI 01
356.166;000.066;54;000.562;MIDI 01
356.158;000.075;73;000.617;MIDI 01
356.525;000.044;49;000.594;MIDI 01
356.530;000.042;37;000.523;MIDI 01
356.523;000.062;71;000.602;MIDI 01
356.527;000.061;77;000.531;MIDI 01
356.521;000.101;80;000.672;MIDI 01
357.012;000.028;71;000.461;MIDI 01
357.010;000.035;65;000.391;MIDI 01
357.003;000.046;80;000.547;MIDI 01
357.027;000.028;56;000.367;MIDI 01
357.024;000.038;53;000.320;MIDI 01
357.047;000.056;61;000.219;MIDI 01
357.153;000.018;71;000.438;MIDI 01
357.151;000.037;65;000.539;MIDI 01
357.148;000.050;80;000.562;MIDI 01
357.165;000.044;56;000.500;MIDI 01
357.175;000.040;61;000.289;MIDI 01
357.189;000.051;53;000.281;MIDI 01
357.295;000.027;71;000.445;MIDI 01
357.298;000.031;65;000.477;MIDI 01
357.320;000.032;56;000.453;MIDI 01
357.329;000.042;61;000.406;MIDI 01
357.327;000.049;53;000.258;MIDI 01
357.292;000.114;82;000.648;MIDI 01
357.422;000.127;80;000.570;MIDI 01
357.571;000.028;71;000.414;MIDI 01
357.589;000.025;65;000.430;MIDI 01
357.597;000.044;53;000.219;MIDI 01
357.553;000.090;77;000.586;MIDI 01
357.595;000.086;61;000.211;MIDI 01
357.690;000.052;56;000.492;MIDI 01
357.704;000.052;61;000.273;MIDI 01
357.686;000.073;73;000.617;MIDI 01
357.868;000.034;54;000.594;MIDI 01
357.880;000.026;42;000.562;MIDI 01
357.878;000.077;70;000.523;MIDI 01
357.854;000.105;82;000.555;MIDI 01
358.209;000.030;58;000.570;MIDI 01
358.191;000.052;70;000.562;MIDI 01
358.198;000.053;78;000.539;MIDI 01
358.223;000.033;46;000.453;MIDI 01
358.576;000.049;49;000.531;MIDI 01
358.581;000.047;65;000.531;MIDI 01
358.586;000.058;61;000.516;MIDI 01
358.593;000.092;68;000.477;MIDI 01
358.573;000.123;77;000.586;MIDI 01
358.621;000.105;73;000.414;MIDI 01
359.516;000.032;61;000.492;MIDI 01
359.525;000.041;54;000.500;MIDI 01
359.535;000.041;66;000.562;MIDI 01
359.554;000.031;70;000.414;MIDI 01
359.547;000.064;73;000.477;MIDI 01
359.849;000.021;65;000.500;MIDI 01
359.851;000.023;77;000.430;MIDI 01
359.847;000.032;49;000.586;MIDI 01
359.856;000.039;37;000.484;MIDI 01
359.883;000.046;75;000.148;MIDI 01
359.998;000.025;65;000.430;MIDI 01
359.981;000.085;75;000.547;MIDI 01
360.141;000.029;53;000.531;MIDI 01
360.134;000.042;41;000.531;MIDI 01
360.137;000.072;65;000.320;MIDI 01
360.137;000.107;73;000.508;MIDI 01
360.301;000.040;42;000.477;MIDI 01
360.320;000.040;54;000.320;MIDI 01
360.472;000.029;44;000.461;MIDI 01
360.488;000.028;56;000.391;MIDI 01
360.493;000.053;66;000.477;MIDI 01
360.491;000.089;75;000.492;MIDI 01
360.858;000.035;66;000.469;MIDI 01
360.859;000.039;60;000.438;MIDI 01
360.856;000.047;56;000.391;MIDI 01
360.869;000.044;51;000.359;MIDI 01
360.854;000.060;75;000.508;MIDI 01
360.997;000.049;66;000.531;MIDI 01
361.021;000.034;51;000.445;MIDI 01
361.015;000.048;60;000.438;MIDI 01
361.012;000.056;75;000.555;MIDI 01
361.009;000.062;56;000.484;MIDI 01
361.168;000.036;60;000.531;MIDI 01
361.160;000.045;51;000.500;MIDI 01
361.174;000.039;56;000.516;MIDI 01
361.154;000.079;77;000.539;MIDI 01
361.208;000.034;76;000.328;MIDI 01
361.295;000.090;75;000.617;MIDI 01
361.467;000.028;51;000.500;MIDI 01
361.462;000.033;60;000.508;MIDI 01
361.465;000.042;66;000.508;MIDI 01
361.491;000.033;56;000.281;MIDI 01
361.442;000.086;73;000.594;MIDI 01
361.608;000.036;60;000.430;MIDI 01
361.580;000.067;66;000.531;MIDI 01
361.603;000.046;68;000.484;MIDI 01
361.614;000.038;56;000.602;MIDI 01
361.585;000.081;75;000.555;MIDI 01
361.756;000.037;61;000.648;MIDI 01
361.748;000.058;65;000.617;MIDI 01
361.781;000.026;56;000.281;MIDI 01
361.734;000.075;77;000.641;MIDI 01
361.764;000.048;49;000.586;MIDI 01
362.084;000.065;49;000.695;MIDI 01
362.082;000.076;61;000.664;MIDI 01
362.090;000.071;37;000.641;MIDI 01
362.079;000.094;73;000.688;MIDI 01
362.465;000.121;37;000.633;MIDI 01
362.449;000.144;61;000.688;MIDI 01
362.451;000.146;49;000.703;MIDI 01
362.448;000.186;73;000.742;MIDI 01
362.805;000.069;75;000.656;MIDI 01
362.826;000.081;51;000.641;MIDI 01
362.824;000.123;39;000.594;MIDI 01
362.923;000.090;63;000.609;MIDI 01
362.984;000.098;75;000.594;MIDI 01
363.156;000.091;40;000.500;MIDI 01
363.142;000.161;52;000.594;MIDI 01
363.146;000.233;64;000.578;MIDI 01
363.110;000.294;76;000.609;MIDI 01
363.581;000.037;64;000.500;MIDI 01
363.583;000.041;61;000.453;MIDI 01
363.573;000.056;76;000.594;MIDI 01
363.597;000.046;57;000.328;MIDI 01
363.601;000.050;52;000.273;MIDI 01
363.619;000.089;69;000.180;MIDI 01
363.717;000.036;64;000.523;MIDI 01
363.728;000.034;61;000.570;MIDI 01
363.733;000.033;69;000.328;MIDI 01
363.715;000.060;76;000.523;MIDI 01
363.767;000.053;57;000.352;MIDI 01
363.775;000.072;52;000.211;MIDI 01
363.873;000.024;52;000.375;MIDI 01
363.872;000.028;69;000.539;MIDI 01
363.845;000.068;61;000.625;MIDI 01
363.874;000.045;57;000.461;MIDI 01
363.847;000.077;64;000.516;MIDI 01
363.841;000.125;76;000.555;MIDI 01
364.163;000.050;61;000.531;MIDI 01
364.179;000.035;52;000.383;MIDI 01
364.177;000.042;57;000.453;MIDI 01
364.180;000.041;64;000.562;MIDI 01
364.186;000.036;69;000.344;MIDI 01
364.167;000.099;76;000.617;MIDI 01
364.514;000.044;68;000.508;MIDI 01
364.508;000.064;64;000.562;MIDI 01
364.521;000.082;52;000.484;MIDI 01
364.510;000.106;62;000.484;MIDI 01
364.506;000.118;76;000.578;MIDI 01
364.516;000.143;59;000.516;MIDI 01
364.866;000.034;52;000.375;MIDI 01
364.845;000.059;62;000.492;MIDI 01
364.869;000.038;68;000.500;MIDI 01
364.850;000.058;59;000.477;MIDI 01
364.891;000.024;74;000.398;MIDI 01
364.864;000.082;76;000.586;MIDI 01
365.009;000.041;68;000.398;MIDI 01
365.036;000.022;74;000.383;MIDI 01
365.022;000.040;62;000.523;MIDI 01
365.024;000.040;52;000.477;MIDI 01
365.034;000.043;59;000.469;MIDI 01
365.002;000.080;76;000.484;MIDI 01
365.178;000.039;74;000.344;MIDI 01
365.175;000.051;52;000.453;MIDI 01
365.177;000.051;62;000.484;MIDI 01
365.183;000.054;59;000.500;MIDI 01
365.150;000.153;78;000.609;MIDI 01
365.157;000.178;68;000.555;MIDI 01
365.303;000.064;76;000.578;MIDI 01
365.356;000.075;74;000.188;MIDI 01
365.438;000.031;69;000.609;MIDI 01
365.434;000.049;74;000.336;MIDI 01
365.449;000.043;62;000.547;MIDI 01
365.440;000.054;76;000.398;MIDI 01
365.442;000.064;81;000.633;MIDI 01
365.455;000.053;59;000.477;MIDI 01
365.457;000.057;52;000.492;MIDI 01
365.603;000.017;71;000.492;MIDI 01
365.600;000.022;76;000.477;MIDI 01
365.605;000.020;74;000.469;MIDI 01
365.616;000.024;59;000.430;MIDI 01
365.597;000.044;62;000.508;MIDI 01
365.587;000.072;83;000.633;MIDI 01
365.760;000.034;64;000.477;MIDI 01
365.747;000.067;61;000.633;MIDI 01
365.757;000.061;73;000.711;MIDI 01
365.755;000.072;57;000.539;MIDI 01
365.754;000.079;85;000.703;MIDI 01
366.076;000.035;57;000.664;MIDI 01
366.085;000.050;45;000.633;MIDI 01
366.097;000.046;69;000.703;MIDI 01
366.093;000.076;81;000.703;MIDI 01
366.458;000.155;45;000.719;MIDI 01
366.454;000.160;69;000.711;MIDI 01
366.460;000.164;33;000.648;MIDI 01
366.456;000.173;81;000.750;MIDI 01
366.786;000.077;82;000.609;MIDI 01
366.801;000.078;46;000.555;MIDI 01
366.793;000.125;34;000.562;MIDI 01
366.893;000.104;70;000.625;MIDI 01
366.990;000.061;82;000.609;MIDI 01
367.130;000.088;36;000.617;MIDI 01
367.132;000.134;48;000.664;MIDI 01
367.124;000.159;84;000.727;MIDI 01
367.128;000.167;72;000.672;MIDI 01
367.574;000.034;60;000.484;MIDI 01
367.582;000.033;48;000.477;MIDI 01
367.573;000.046;72;000.578;MIDI 01
367.576;000.047;57;000.508;MIDI 01
367.571;000.066;84;000.570;MIDI 01
367.723;000.042;77;000.367;MIDI 01
367.725;000.042;60;000.516;MIDI 01
367.727;000.042;57;000.523;MIDI 01
367.718;000.051;72;000.586;MIDI 01
367.722;000.050;48;000.508;MIDI 01
367.731;000.051;84;000.539;MIDI 01
367.880;000.030;60;000.500;MIDI 01
367.869;000.050;57;000.531;MIDI 01
367.878;000.043;77;000.523;MIDI 01
367.898;000.031;48;000.391;MIDI 01
367.872;000.069;72;000.625;MIDI 01
367.860;000.123;84;000.578;MIDI 01
368.197;000.029;72;000.594;MIDI 01
368.209;000.024;60;000.500;MIDI 01
368.201;000.046;57;000.531;MIDI 01
368.199;000.067;84;000.594;MIDI 01
368.357;000.033;60;000.414;MIDI 01
368.366;000.027;77;000.398;MIDI 01
368.352;000.051;57;000.547;MIDI 01
368.350;000.071;72;000.609;MIDI 01
368.354;000.073;84;000.609;MIDI 01
368.578;000.049;50;000.234;MIDI 01
368.535;000.099;76;000.531;MIDI 01
368.527;000.114;60;000.484;MIDI 01
368.559;000.083;58;000.453;MIDI 01
368.514;000.131;72;000.672;MIDI 01
368.549;000.098;48;000.375;MIDI 01
368.539;000.120;55;000.523;MIDI 01
368.516;000.174;84;000.633;MIDI 01
368.841;000.054;60;000.484;MIDI 01
368.845;000.056;58;000.508;MIDI 01
368.867;000.036;76;000.500;MIDI 01
368.854;000.051;72;000.570;MIDI 01
368.847;000.060;48;000.445;MIDI 01
368.839;000.076;55;000.484;MIDI 01
368.851;000.074;84;000.586;MIDI 01
369.002;000.041;72;000.555;MIDI 01
369.012;000.034;76;000.516;MIDI 01
369.015;000.044;60;000.547;MIDI 01
369.004;000.056;84;000.453;MIDI 01
369.025;000.036;48;000.445;MIDI 01
369.010;000.052;58;000.516;MIDI 01
369.016;000.051;55;000.477;MIDI 01
369.155;000.028;77;000.500;MIDI 01
369.146;000.044;74;000.633;MIDI 01
369.152;000.051;60;000.539;MIDI 01
369.157;000.048;48;000.523;MIDI 01
369.141;000.065;86;000.672;MIDI 01
369.160;000.048;58;000.539;MIDI 01
369.147;000.067;55;000.492;MIDI 01
369.190;000.034;78;000.242;MIDI 01
369.296;000.016;76;000.555;MIDI 01
369.285;000.032;72;000.609;MIDI 01
369.317;000.029;86;000.492;MIDI 01
369.311;000.046;84;000.258;MIDI 01
369.441;000.037;77;000.672;MIDI 01
369.434;000.067;60;000.531;MIDI 01
369.470;000.033;81;000.375;MIDI 01
369.429;000.075;88;000.719;MIDI 01
369.439;000.068;55;000.469;MIDI 01
369.613;000.028;79;000.609;MIDI 01
369.610;000.034;77;000.562;MIDI 01
369.607;000.040;82;000.656;MIDI 01
369.628;000.025;89;000.539;MIDI 01
369.615;000.051;60;000.547;MIDI 01
369.617;000.054;91;000.625;MIDI 01
369.432;000.255;48;000.492;MIDI 01
369.604;000.107;55;000.539;MIDI 01
369.608;000.108;58;000.258;MIDI 01
369.801;000.027;60;000.641;MIDI 01
369.807;000.025;84;000.477;MIDI 01
369.812;000.028;85;000.414;MIDI 01
369.796;000.065;57;000.672;MIDI 01
369.786;000.076;81;000.711;MIDI 01
369.789;000.074;93;000.734;MIDI 01
369.803;000.077;53;000.602;MIDI 01
370.165;000.054;41;000.648;MIDI 01
370.163;000.060;53;000.656;MIDI 01
370.161;000.078;89;000.703;MIDI 01
370.164;000.079;77;000.719;MIDI 01
370.166;000.138;81;000.617;MIDI 01
370.721;000.025;82;000.398;MIDI 01
370.723;000.099;41;000.188;MIDI 01
370.682;000.147;54;000.586;MIDI 01
370.670;000.274;78;000.719;MIDI 01
370.670;000.276;90;000.789;MIDI 01
370.680;000.278;81;000.609;MIDI 01
371.089;000.057;41;000.578;MIDI 01
371.108;000.046;44;000.375;MIDI 01
371.267;000.031;44;000.430;MIDI 01
371.243;000.068;41;000.617;MIDI 01
371.241;000.119;87;000.492;MIDI 01
371.299;000.077;84;000.531;MIDI 01
371.389;000.046;81;000.562;MIDI 01
371.456;000.044;44;000.359;MIDI 01
371.434;000.090;41;000.633;MIDI 01
371.493;000.133;78;000.633;MIDI 01
371.568;000.093;75;000.555;MIDI 01
371.642;000.039;72;000.539;MIDI 01
371.707;000.043;69;000.547;MIDI 01
371.750;000.035;44;000.320;MIDI 01
371.704;000.142;41;000.617;MIDI 01
371.811;000.134;66;000.617;MIDI 01
371.870;000.114;63;000.586;MIDI 01
371.935;000.108;60;000.609;MIDI 01
372.017;000.167;57;000.648;MIDI 01
372.019;000.223;41;000.586;MIDI 01
372.055;000.229;44;000.422;MIDI 01
370.667;001.729;51;000.625;MIDI 01
372.358;000.306;52;000.648;MIDI 01
372.356;000.323;58;000.664;MIDI 01
372.349;000.399;61;000.633;MIDI 01
372.808;000.194;57;000.445;MIDI 01
372.381;000.665;41;000.578;MIDI 01
372.823;000.225;60;000.453;MIDI 01
372.837;000.219;53;000.406;MIDI 01
373.228;000.026;78;000.609;MIDI 01
373.212;000.044;54;000.562;MIDI 01
373.218;000.042;66;000.625;MIDI 01
373.231;000.029;41;000.414;MIDI 01
373.373;000.028;65;000.617;MIDI 01
373.374;000.029;77;000.586;MIDI 01
373.368;000.039;41;000.523;MIDI 01
373.384;000.024;53;000.477;MIDI 01
373.545;000.096;52;000.422;MIDI 01
373.528;000.115;41;000.461;MIDI 01
373.539;000.130;64;000.523;MIDI 01
373.543;000.146;76;000.508;MIDI 01
373.835;000.029;53;000.555;MIDI 01
373.842;000.031;41;000.492;MIDI 01
373.836;000.041;77;000.586;MIDI 01
373.843;000.040;65;000.555;MIDI 01
373.990;000.040;64;000.586;MIDI 01
373.997;000.039;76;000.570;MIDI 01
373.992;000.048;52;000.508;MIDI 01
373.983;000.066;41;000.508;MIDI 01
374.011;000.040;53;000.344;MIDI 01
374.179;000.146;51;000.523;MIDI 01
374.165;000.166;75;000.547;MIDI 01
374.189;000.145;41;000.414;MIDI 01
374.170;000.174;63;000.508;MIDI 01
374.497;000.043;50;000.531;MIDI 01
374.510;000.036;41;000.469;MIDI 01
374.503;000.046;62;000.586;MIDI 01
374.498;000.051;74;000.633;MIDI 01
374.661;000.045;41;000.492;MIDI 01
374.664;000.045;49;000.555;MIDI 01
374.666;000.044;61;000.539;MIDI 01
374.667;000.049;73;000.539;MIDI 01
374.841;000.077;60;000.570;MIDI 01
374.845;000.099;72;000.570;MIDI 01
374.851;000.095;48;000.492;MIDI 01
374.843;000.121;41;000.352;MIDI 01
375.232;000.060;41;000.633;MIDI 01
375.228;000.080;54;000.688;MIDI 01
375.270;000.067;78;000.602;MIDI 01
375.260;000.111;80;000.625;MIDI 01
375.247;000.153;90;000.766;MIDI 01
375.486;000.069;54;000.656;MIDI 01
375.488;000.070;41;000.617;MIDI 01
375.536;000.040;42;000.281;MIDI 01
375.480;000.145;87;000.609;MIDI 01
375.575;000.083;84;000.531;MIDI 01
375.663;000.033;81;000.562;MIDI 01
375.684;000.048;41;000.586;MIDI 01
375.677;000.074;54;000.656;MIDI 01
375.828;000.083;79;000.422;MIDI 01
375.871;000.056;76;000.555;MIDI 01
375.927;000.062;72;000.523;MIDI 01
375.989;000.041;41;000.562;MIDI 01
376.009;000.034;54;000.430;MIDI 01
376.003;000.064;69;000.594;MIDI 01
376.157;000.047;64;000.398;MIDI 01
376.149;000.062;65;000.398;MIDI 01
376.204;000.075;62;000.594;MIDI 01
376.270;000.080;60;000.477;MIDI 01
376.309;000.055;59;000.180;MIDI 01
376.356;000.149;57;000.625;MIDI 01
376.341;000.224;54;000.594;MIDI 01
376.339;000.234;41;000.516;MIDI 01
376.697;000.268;52;000.609;MIDI 01
376.694;000.340;58;000.602;MIDI 01
376.685;000.438;61;000.562;MIDI 01
377.131;000.197;57;000.414;MIDI 01
377.153;000.215;60;000.453;MIDI 01
376.705;000.665;41;000.594;MIDI 01
377.166;000.217;53;000.344;MIDI 01
377.538;000.045;54;000.539;MIDI 01
377.545;000.039;66;000.602;MIDI 01
377.549;000.038;78;000.641;MIDI 01
377.570;000.029;41;000.383;MIDI 01
377.702;000.029;65;000.602;MIDI 01
377.707;000.026;77;000.570;MIDI 01
377.705;000.038;41;000.492;MIDI 01
377.722;000.039;53;000.320;MIDI 01
377.876;000.102;52;000.445;MIDI 01
377.860;000.122;64;000.539;MIDI 01
377.865;000.120;41;000.477;MIDI 01
377.866;000.147;76;000.539;MIDI 01
378.169;000.035;53;000.547;MIDI 01
378.168;000.039;77;000.586;MIDI 01
378.172;000.046;65;000.562;MIDI 01
378.170;000.050;41;000.484;MIDI 01
378.320;000.040;41;000.555;MIDI 01
378.329;000.032;64;000.586;MIDI 01
378.327;000.036;52;000.477;MIDI 01
378.341;000.025;76;000.547;MIDI 01
378.342;000.026;53;000.383;MIDI 01
378.502;000.129;63;000.562;MIDI 01
378.492;000.159;41;000.422;MIDI 01
378.509;000.157;75;000.547;MIDI 01
378.507;000.162;51;000.508;MIDI 01
378.809;000.034;50;000.484;MIDI 01
378.827;000.032;74;000.586;MIDI 01
378.825;000.035;62;000.562;MIDI 01
378.825;000.041;41;000.375;MIDI 01
378.974;000.045;41;000.469;MIDI 01
378.996;000.027;61;000.445;MIDI 01
379.000;000.027;73;000.383;MIDI 01
378.986;000.045;49;000.492;MIDI 01
379.170;000.071;60;000.422;MIDI 01
379.185;000.074;48;000.422;MIDI 01
379.172;000.106;72;000.414;MIDI 01
379.175;000.130;41;000.328;MIDI 01
379.480;000.043;77;000.625;MIDI 01
379.485;000.042;65;000.578;MIDI 01
379.497;000.031;41;000.531;MIDI 01
379.500;000.033;53;000.500;MIDI 01
379.645;000.026;64;000.539;MIDI 01
379.647;000.028;76;000.570;MIDI 01
379.643;000.041;52;000.523;MIDI 01
379.639;000.058;41;000.492;MIDI 01
379.822;000.077;41;000.477;MIDI 01
379.822;000.111;51;000.531;MIDI 01
379.814;000.122;75;000.531;MIDI 01
379.809;000.131;63;000.547;MIDI 01
380.110;000.033;52;000.539;MIDI 01
380.110;000.039;76;000.578;MIDI 01
380.115;000.041;64;000.500;MIDI 01
380.120;000.047;41;000.469;MIDI 01
380.270;000.038;63;000.523;MIDI 01
380.264;000.048;51;000.539;MIDI 01
380.272;000.043;41;000.523;MIDI 01
380.265;000.051;75;000.508;MIDI 01
380.447;000.092;74;000.508;MIDI 01
380.432;000.115;41;000.422;MIDI 01
380.449;000.102;50;000.430;MIDI 01
380.451;000.101;62;000.492;MIDI 01
380.736;000.028;61;000.562;MIDI 01
380.740;000.031;73;000.547;MIDI 01
380.726;000.048;49;000.602;MIDI 01
380.750;000.030;41;000.453;MIDI 01
380.898;000.030;60;000.531;MIDI 01
380.896;000.034;72;000.562;MIDI 01
380.910;000.068;48;000.469;MIDI 01
380.933;000.127;41;000.195;MIDI 01
381.066;000.053;58;000.430;MIDI 01
381.072;000.123;70;000.492;MIDI 01
381.105;000.094;41;000.039;MIDI 01
381.097;000.202;46;000.359;MIDI 01
381.397;000.027;75;000.586;MIDI 01
381.395;000.031;63;000.547;MIDI 01
381.399;000.035;41;000.438;MIDI 01
381.401;000.035;51;000.516;MIDI 01
381.545;000.036;50;000.445;MIDI 01
381.553;000.033;74;000.633;MIDI 01
381.555;000.033;62;000.578;MIDI 01
381.551;000.043;41;000.438;MIDI 01
381.701;000.116;41;000.492;MIDI 01
381.710;000.109;61;000.648;MIDI 01
381.699;000.125;49;000.570;MIDI 01
381.714;000.167;73;000.641;MIDI 01
382.041;000.021;75;000.609;MIDI 01
382.039;000.031;51;000.570;MIDI 01
382.043;000.029;63;000.586;MIDI 01
382.045;000.030;41;000.477;MIDI 01
382.186;000.056;61;000.625;MIDI 01
382.179;000.068;41;000.555;MIDI 01
382.197;000.061;49;000.570;MIDI 01
382.191;000.077;73;000.594;MIDI 01
382.365;000.073;41;000.555;MIDI 01
382.363;000.080;48;000.625;MIDI 01
382.355;000.099;72;000.664;MIDI 01
382.360;000.106;60;000.633;MIDI 01
382.678;000.029;70;000.648;MIDI 01
382.684;000.027;58;000.609;MIDI 01
382.690;000.035;41;000.500;MIDI 01
382.673;000.062;46;000.586;MIDI 01
382.843;000.034;48;000.625;MIDI 01
382.828;000.062;41;000.578;MIDI 01
382.837;000.093;56;000.680;MIDI 01
382.840;000.093;68;000.664;MIDI 01
383.096;000.115;66;000.625;MIDI 01
383.092;000.131;58;000.641;MIDI 01
383.094;000.154;49;000.781;MIDI 01
383.108;000.149;41;000.641;MIDI 01
383.220;000.093;68;000.547;MIDI 01
383.360;000.055;66;000.375;MIDI 01
383.452;000.043;68;000.398;MIDI 01
383.478;000.056;49;000.602;MIDI 01
383.486;000.052;41;000.492;MIDI 01
383.520;000.050;58;000.469;MIDI 01
383.517;000.084;66;000.539;MIDI 01
383.607;000.086;68;000.570;MIDI 01
383.649;000.055;41;000.586;MIDI 01
383.648;000.059;49;000.695;MIDI 01
383.712;000.042;58;000.242;MIDI 01
383.691;000.097;66;000.484;MIDI 01
383.843;000.043;41;000.531;MIDI 01
383.792;000.100;68;000.562;MIDI 01
383.829;000.079;49;000.734;MIDI 01
383.848;000.078;58;000.562;MIDI 01
383.872;000.098;66;000.508;MIDI 01
383.988;000.076;68;000.461;MIDI 01
384.078;000.067;66;000.398;MIDI 01
384.176;000.053;41;000.578;MIDI 01
384.169;000.074;49;000.672;MIDI 01
384.174;000.209;68;000.586;MIDI 01
384.303;000.203;66;000.398;MIDI 01
384.550;000.073;58;000.398;MIDI 01
384.515;000.269;65;000.617;MIDI 01
384.541;000.299;41;000.508;MIDI 01
384.519;000.325;49;000.688;MIDI 01
384.730;000.244;66;000.609;MIDI 01
384.927;000.280;52;000.664;MIDI 01
384.939;000.271;49;000.594;MIDI 01
384.945;000.266;68;000.633;MIDI 01
384.950;000.269;41;000.594;MIDI 01
385.147;000.125;66;000.648;MIDI 01
384.953;000.347;58;000.586;MIDI 01
385.444;000.385;57;000.609;MIDI 01
385.444;000.406;53;000.648;MIDI 01
385.449;000.434;65;000.656;MIDI 01
385.451;000.453;41;000.492;MIDI 01
385.446;000.553;48;000.602;MIDI 01
386.143;000.057;53;000.453;MIDI 01
386.129;000.090;65;000.477;MIDI 01
386.301;000.052;53;000.562;MIDI 01
386.286;000.097;65;000.508;MIDI 01
386.460;000.260;65;000.531;MIDI 01
386.469;000.258;53;000.602;MIDI 01
386.878;000.212;53;000.516;MIDI 01
386.866;000.229;65;000.578;MIDI 01
387.240;000.255;65;000.609;MIDI 01
387.235;000.269;53;000.570;MIDI 01
387.691;000.119;53;000.539;MIDI 01
387.689;000.173;65;000.516;MIDI 01
389.192;000.423;70;000.398;MIDI 01
389.203;000.521;61;000.328;MIDI 01
388.343;001.764;65;000.539;MIDI 01
388.356;002.436;53;000.469;MIDI 01
389.875;001.072;69;000.484;MIDI 01
389.899;001.135;60;000.359;MIDI 01
391.465;000.253;60;000.281;MIDI 01
390.535;001.189;64;000.531;MIDI 01
391.410;000.944;69;000.414;MIDI 01
390.562;002.548;52;000.453;MIDI 01
393.065;000.233;51;000.242;MIDI 01
392.267;001.033;59;000.281;MIDI 01
393.028;000.274;63;000.344;MIDI 01
393.450;000.053;51;000.328;MIDI 01
393.470;000.052;63;000.391;MIDI 01
393.609;000.049;51;000.516;MIDI 01
393.639;000.041;63;000.430;MIDI 01
392.248;001.452;68;000.414;MIDI 01
393.797;000.181;51;000.391;MIDI 01
393.802;000.390;59;000.484;MIDI 01
394.167;000.041;51;000.359;MIDI 01
393.788;000.430;68;000.352;MIDI 01
394.161;000.246;63;000.391;MIDI 01
394.518;000.206;51;000.344;MIDI 01
394.479;000.415;67;000.438;MIDI 01
394.851;000.182;63;000.391;MIDI 01
394.520;000.523;58;000.352;MIDI 01
394.894;000.151;51;000.352;MIDI 01
395.326;001.052;66;000.391;MIDI 01
395.352;001.077;60;000.266;MIDI 01
395.355;001.080;45;000.234;MIDI 01
395.345;001.123;63;000.281;MIDI 01
396.375;000.743;65;000.281;MIDI 01
396.359;000.776;62;000.297;MIDI 01
396.391;000.761;46;000.102;MIDI 01
397.847;001.136;59;000.438;MIDI 01
397.876;001.134;47;000.328;MIDI 01
398.681;000.711;50;000.266;MIDI 01
398.688;000.746;38;000.266;MIDI 01
400.211;000.954;47;000.055;MIDI 01
400.145;001.036;59;000.328;MIDI 01
400.916;000.684;50;000.141;MIDI 01
400.950;000.654;38;000.133;MIDI 01
402.314;000.980;59;000.148;MIDI 01
402.317;000.995;47;000.109;MIDI 01
403.055;001.000;50;000.234;MIDI 01
403.069;001.047;38;000.281;MIDI 01
403.846;001.194;47;000.289;MIDI 01
403.842;001.203;59;000.336;MIDI 01
404.808;000.923;50;000.219;MIDI 01
404.823;000.920;38;000.203;MIDI 01
407.134;000.269;58;000.242;MIDI 01
407.148;000.275;46;000.164;MIDI 01
407.332;000.095;59;000.312;MIDI 01
407.353;000.172;47;000.188;MIDI 01
407.484;000.100;57;000.289;MIDI 01
407.506;000.137;45;000.250;MIDI 01
407.653;000.192;46;000.164;MIDI 01
407.589;000.277;58;000.305;MIDI 01
407.821;000.335;51;000.227;MIDI 01
407.823;000.379;39;000.273;MIDI 01
408.751;000.065;51;000.172;MIDI 01
408.762;000.065;46;000.203;MIDI 01
408.765;000.065;58;000.172;MIDI 01
408.777;000.062;39;000.219;MIDI 01
408.773;000.071;54;000.039;MIDI 01
408.964;000.057;51;000.227;MIDI 01
408.958;000.074;58;000.289;MIDI 01
408.992;000.055;46;000.188;MIDI 01
409.029;000.107;39;000.023;MIDI 01
409.176;000.059;46;000.219;MIDI 01
409.180;000.065;51;000.320;MIDI 01
409.195;000.083;39;000.023;MIDI 01
409.167;000.257;58;000.164;MIDI 01
409.628;000.052;46;000.234;MIDI 01
409.634;000.056;54;000.164;MIDI 01
409.631;000.071;39;000.203;MIDI 01
409.642;000.067;51;000.141;MIDI 01
409.619;000.158;58;000.188;MIDI 01
409.852;000.052;54;000.234;MIDI 01
409.840;000.067;51;000.234;MIDI 01
409.863;000.059;46;000.195;MIDI 01
409.871;000.068;39;000.180;MIDI 01
410.074;000.055;54;000.266;MIDI 01
410.089;000.060;51;000.297;MIDI 01
410.099;000.060;46;000.258;MIDI 01
410.101;000.071;39;000.164;MIDI 01
410.044;000.211;58;000.094;MIDI 01
410.580;000.069;46;000.195;MIDI 01
410.555;000.096;51;000.266;MIDI 01
410.597;000.060;54;000.109;MIDI 01
410.578;000.089;39;000.195;MIDI 01
410.548;000.230;58;000.188;MIDI 01
410.835;000.066;54;000.211;MIDI 01
410.852;000.075;51;000.109;MIDI 01
410.872;000.080;39;000.266;MIDI 01
410.860;000.110;46;000.172;MIDI 01
410.821;000.185;58;000.109;MIDI 01
411.257;000.241;51;000.227;MIDI 01
411.272;000.251;46;000.109;MIDI 01
411.234;000.291;58;000.164;MIDI 01
411.271;000.269;54;000.227;MIDI 01
411.285;000.266;39;000.164;MIDI 01
412.520;000.223;46;000.336;MIDI 01
412.525;000.231;58;000.398;MIDI 01
412.695;000.078;47;000.273;MIDI 01
412.714;000.065;59;000.336;MIDI 01
412.799;000.099;45;000.305;MIDI 01
412.825;000.076;57;000.281;MIDI 01
412.919;000.091;58;000.359;MIDI 01
412.941;000.134;46;000.258;MIDI 01
413.061;000.146;51;000.391;MIDI 01
413.072;000.247;39;000.312;MIDI 01
413.779;000.049;59;000.422;MIDI 01
413.794;000.050;53;000.273;MIDI 01
413.792;000.055;51;000.281;MIDI 01
413.796;000.056;44;000.312;MIDI 01
413.939;000.048;59;000.430;MIDI 01
413.966;000.038;51;000.375;MIDI 01
413.948;000.058;44;000.391;MIDI 01
413.974;000.040;53;000.250;MIDI 01
414.126;000.035;51;000.352;MIDI 01
414.095;000.070;59;000.477;MIDI 01
414.119;000.048;53;000.336;MIDI 01
414.139;000.046;44;000.320;MIDI 01
414.161;000.050;39;000.023;MIDI 01
414.511;000.037;53;000.375;MIDI 01
414.508;000.048;59;000.406;MIDI 01
414.505;000.055;51;000.391;MIDI 01
414.524;000.040;44;000.344;MIDI 01
414.539;000.059;39;000.141;MIDI 01
414.549;000.060;56;000.094;MIDI 01
414.671;000.055;53;000.422;MIDI 01
414.684;000.049;51;000.484;MIDI 01
414.693;000.054;44;000.477;MIDI 01
414.658;000.095;59;000.555;MIDI 01
414.717;000.048;39;000.266;MIDI 01
414.874;000.047;51;000.414;MIDI 01
414.871;000.061;53;000.453;MIDI 01
414.889;000.058;39;000.383;MIDI 01
414.881;000.071;44;000.422;MIDI 01
414.879;000.082;59;000.516;MIDI 01
415.370;000.056;53;000.422;MIDI 01
415.369;000.060;51;000.438;MIDI 01
415.378;000.058;44;000.383;MIDI 01
415.364;000.076;59;000.539;MIDI 01
415.380;000.061;39;000.344;MIDI 01
415.593;000.068;51;000.477;MIDI 01
415.602;000.068;44;000.414;MIDI 01
415.604;000.071;39;000.391;MIDI 01
415.591;000.097;53;000.469;MIDI 01
415.579;000.141;59;000.594;MIDI 01
415.969;000.270;51;000.414;MIDI 01
415.962;000.279;53;000.492;MIDI 01
415.953;000.349;59;000.555;MIDI 01
415.996;000.385;39;000.367;MIDI 01
415.974;000.410;44;000.367;MIDI 01
417.102;000.135;47;000.445;MIDI 01
417.108;000.172;59;000.523;MIDI 01
417.238;000.105;49;000.484;MIDI 01
417.250;000.111;61;000.508;MIDI 01
417.356;000.078;46;000.438;MIDI 01
417.374;000.085;58;000.469;MIDI 01
417.470;000.099;59;000.445;MIDI 01
417.459;000.124;47;000.406;MIDI 01
417.608;000.178;39;000.438;MIDI 01
417.607;000.288;51;000.445;MIDI 01
418.276;000.049;59;000.477;MIDI 01
418.298;000.034;53;000.344;MIDI 01
418.296;000.037;51;000.359;MIDI 01
418.294;000.046;44;000.422;MIDI 01
418.326;000.054;56;000.125;MIDI 01
418.359;000.031;39;000.023;MIDI 01
418.449;000.029;53;000.438;MIDI 01
418.426;000.054;59;000.555;MIDI 01
418.454;000.036;51;000.508;MIDI 01
418.460;000.042;44;000.477;MIDI 01
418.599;000.048;53;000.469;MIDI 01
418.597;000.054;51;000.523;MIDI 01
418.611;000.059;39;000.188;MIDI 01
418.625;000.053;44;000.461;MIDI 01
418.586;000.094;59;000.625;MIDI 01
418.651;000.049;56;000.203;MIDI 01
418.998;000.046;51;000.500;MIDI 01
418.996;000.049;53;000.500;MIDI 01
419.014;000.043;39;000.398;MIDI 01
418.980;000.083;59;000.602;MIDI 01
418.994;000.077;44;000.469;MIDI 01
419.152;000.081;53;000.547;MIDI 01
419.193;000.047;39;000.445;MIDI 01
419.175;000.079;51;000.531;MIDI 01
419.147;000.109;59;000.625;MIDI 01
419.195;000.070;44;000.547;MIDI 01
419.402;000.051;56;000.445;MIDI 01
419.389;000.071;39;000.453;MIDI 01
419.384;000.097;51;000.586;MIDI 01
419.378;000.105;53;000.602;MIDI 01
419.396;000.099;44;000.484;MIDI 01
419.372;000.149;59;000.680;MIDI 01
419.875;000.043;53;000.555;MIDI 01
419.889;000.041;51;000.531;MIDI 01
419.909;000.033;39;000.391;MIDI 01
419.857;000.095;59;000.680;MIDI 01
419.906;000.067;44;000.438;MIDI 01
420.161;000.045;53;000.625;MIDI 01
420.169;000.043;51;000.602;MIDI 01
420.164;000.066;44;000.523;MIDI 01
420.182;000.051;39;000.352;MIDI 01
420.151;000.112;59;000.680;MIDI 01
420.548;000.203;51;000.562;MIDI 01
420.549;000.255;53;000.570;MIDI 01
420.527;000.369;59;000.695;MIDI 01
420.557;000.345;39;000.523;MIDI 01
420.551;000.398;44;000.523;MIDI 01
421.611;000.140;59;000.711;MIDI 01
421.595;000.158;47;000.641;MIDI 01
421.764;000.128;61;000.578;MIDI 01
421.750;000.151;49;000.609;MIDI 01
421.878;000.117;46;000.602;MIDI 01
421.898;000.181;58;000.609;MIDI 01
422.012;000.101;59;000.594;MIDI 01
421.995;000.142;47;000.578;MIDI 01
422.170;000.191;51;000.672;MIDI 01
422.172;000.191;39;000.688;MIDI 01
422.581;000.033;51;000.508;MIDI 01
422.584;000.041;53;000.508;MIDI 01
422.591;000.038;56;000.406;MIDI 01
422.591;000.040;44;000.461;MIDI 01
422.590;000.045;47;000.422;MIDI 01
422.577;000.067;59;000.617;MIDI 01
422.623;000.051;39;000.188;MIDI 01
422.708;000.027;53;000.539;MIDI 01
422.706;000.039;59;000.438;MIDI 01
422.725;000.043;44;000.516;MIDI 01
422.732;000.041;47;000.508;MIDI 01
422.723;000.079;51;000.562;MIDI 01
422.735;000.119;39;000.359;MIDI 01
422.839;000.026;53;000.523;MIDI 01
422.864;000.021;44;000.508;MIDI 01
422.858;000.027;47;000.500;MIDI 01
422.811;000.076;59;000.680;MIDI 01
423.143;000.034;53;000.656;MIDI 01
423.141;000.042;51;000.555;MIDI 01
423.157;000.028;63;000.508;MIDI 01
423.152;000.037;39;000.406;MIDI 01
423.146;000.049;65;000.594;MIDI 01
423.172;000.031;59;000.352;MIDI 01
423.147;000.064;44;000.406;MIDI 01
423.159;000.055;47;000.383;MIDI 01
423.285;000.030;63;000.500;MIDI 01
423.283;000.034;65;000.570;MIDI 01
423.253;000.067;53;000.516;MIDI 01
423.296;000.031;51;000.555;MIDI 01
423.302;000.046;59;000.383;MIDI 01
423.311;000.042;47;000.531;MIDI 01
423.331;000.028;44;000.414;MIDI 01
423.305;000.059;39;000.484;MIDI 01
423.392;000.033;53;000.555;MIDI 01
423.423;000.023;44;000.484;MIDI 01
423.394;000.068;65;000.672;MIDI 01
423.395;000.078;63;000.633;MIDI 01
423.523;000.022;53;000.195;MIDI 01
423.730;000.030;65;000.711;MIDI 01
423.733;000.036;75;000.578;MIDI 01
423.748;000.028;63;000.430;MIDI 01
423.736;000.042;51;000.430;MIDI 01
423.726;000.058;77;000.609;MIDI 01
423.792;000.045;59;000.281;MIDI 01
423.782;000.056;60;000.164;MIDI 01
423.858;000.023;75;000.492;MIDI 01
423.856;000.033;65;000.672;MIDI 01
423.863;000.034;77;000.586;MIDI 01
423.887;000.044;63;000.508;MIDI 01
423.904;000.044;56;000.477;MIDI 01
423.921;000.059;59;000.266;MIDI 01
423.901;000.117;51;000.336;MIDI 01
423.966;000.059;65;000.633;MIDI 01
423.997;000.038;56;000.570;MIDI 01
423.975;000.065;75;000.625;MIDI 01
423.972;000.086;77;000.727;MIDI 01
423.984;000.076;59;000.422;MIDI 01
424.288;000.036;65;000.680;MIDI 01
424.303;000.021;75;000.539;MIDI 01
424.292;000.036;63;000.594;MIDI 01
424.306;000.028;56;000.492;MIDI 01
424.308;000.030;59;000.484;MIDI 01
424.290;000.060;77;000.648;MIDI 01
424.344;000.080;51;000.188;MIDI 01
424.419;000.041;65;000.680;MIDI 01
424.425;000.037;75;000.562;MIDI 01
424.417;000.058;77;000.555;MIDI 01
424.446;000.033;51;000.375;MIDI 01
424.421;000.070;63;000.641;MIDI 01
424.415;000.080;56;000.523;MIDI 01
424.429;000.068;59;000.641;MIDI 01
424.561;000.039;63;000.617;MIDI 01
424.585;000.022;51;000.430;MIDI 01
424.567;000.043;56;000.523;MIDI 01
424.558;000.061;65;000.750;MIDI 01
424.559;000.062;75;000.664;MIDI 01
424.564;000.065;59;000.570;MIDI 01
424.545;000.102;77;000.648;MIDI 01
424.907;000.040;63;000.625;MIDI 01
424.903;000.050;65;000.750;MIDI 01
424.913;000.043;75;000.641;MIDI 01
424.922;000.036;56;000.508;MIDI 01
424.919;000.042;59;000.516;MIDI 01
424.905;000.071;77;000.703;MIDI 01
424.952;000.033;51;000.352;MIDI 01
425.075;000.028;63;000.516;MIDI 01
425.079;000.033;59;000.523;MIDI 01
425.093;000.022;65;000.664;MIDI 01
425.122;000.001;67;000.422;MIDI 01
425.095;000.028;77;000.664;MIDI 01
425.089;000.053;75;000.703;MIDI 01
425.091;000.052;51;000.555;MIDI 01
425.073;000.076;56;000.531;MIDI 01
425.182;000.033;65;000.336;MIDI 01
425.410;000.020;78;000.664;MIDI 01
425.418;000.121;38;000.688;MIDI 01
425.536;000.002;78;000.102;MIDI 01
425.416;000.142;50;000.664;MIDI 01
425.441;000.403;77;000.648;MIDI 01
425.408;000.448;70;000.680;MIDI 01
425.413;000.458;82;000.750;MIDI 01
425.877;000.028;58;000.523;MIDI 01
425.887;000.029;50;000.398;MIDI 01
425.885;000.033;53;000.422;MIDI 01
426.015;000.034;53;000.555;MIDI 01
426.010;000.041;50;000.516;MIDI 01
425.995;000.060;58;000.617;MIDI 01
426.129;000.038;50;000.539;MIDI 01
426.110;000.068;58;000.578;MIDI 01
426.122;000.066;53;000.578;MIDI 01
426.394;000.040;58;000.578;MIDI 01
426.407;000.031;53;000.469;MIDI 01
426.411;000.032;50;000.305;MIDI 01
426.535;000.045;58;000.484;MIDI 01
426.526;000.065;53;000.477;MIDI 01
426.533;000.074;50;000.555;MIDI 01
426.782;000.294;49;000.531;MIDI 01
426.797;000.284;58;000.492;MIDI 01
426.844;000.259;51;000.469;MIDI 01
426.830;000.291;55;000.516;MIDI 01
427.226;000.050;58;000.500;MIDI 01
427.230;000.048;49;000.484;MIDI 01
427.232;000.053;55;000.422;MIDI 01
427.359;000.048;58;000.547;MIDI 01
426.846;000.570;63;000.656;MIDI 01
427.390;000.045;51;000.477;MIDI 01
427.667;000.052;63;000.508;MIDI 01
427.732;000.099;65;000.562;MIDI 01
427.560;000.285;47;000.523;MIDI 01
427.539;000.333;58;000.391;MIDI 01
427.565;000.328;51;000.445;MIDI 01
427.846;000.049;63;000.500;MIDI 01
427.903;000.083;65;000.547;MIDI 01
427.991;000.043;63;000.516;MIDI 01
428.001;000.050;47;000.461;MIDI 01
427.986;000.080;58;000.516;MIDI 01
427.996;000.078;51;000.406;MIDI 01
428.067;000.047;65;000.469;MIDI 01
428.143;000.039;63;000.414;MIDI 01
428.154;000.055;47;000.508;MIDI 01
428.167;000.045;58;000.555;MIDI 01
428.174;000.046;51;000.492;MIDI 01
428.210;000.061;65;000.500;MIDI 01
428.311;000.048;47;000.547;MIDI 01
428.267;000.098;63;000.578;MIDI 01
428.298;000.082;58;000.594;MIDI 01
428.314;000.073;51;000.562;MIDI 01
428.392;000.035;62;000.578;MIDI 01
428.474;000.026;63;000.461;MIDI 01
428.572;000.064;65;000.484;MIDI 01
428.640;000.059;63;000.023;MIDI 01
428.642;000.100;66;000.500;MIDI 01
428.600;000.153;47;000.508;MIDI 01
428.582;000.174;58;000.547;MIDI 01
428.723;000.053;68;000.578;MIDI 01
428.593;000.246;51;000.453;MIDI 01
428.815;000.090;71;000.195;MIDI 01
428.939;000.047;73;000.602;MIDI 01
428.924;000.218;56;000.602;MIDI 01
429.104;000.050;77;000.461;MIDI 01
428.934;000.253;47;000.477;MIDI 01
429.175;000.073;78;000.555;MIDI 01
428.941;000.351;51;000.453;MIDI 01
429.227;000.067;80;000.570;MIDI 01
429.286;000.032;82;000.562;MIDI 01
429.356;000.083;57;000.602;MIDI 01
429.367;000.074;83;000.594;MIDI 01
429.352;000.091;47;000.586;MIDI 01
429.354;000.145;51;000.492;MIDI 01
429.453;000.110;85;000.664;MIDI 01
429.532;000.113;87;000.688;MIDI 01
429.645;000.164;89;000.750;MIDI 01
429.843;000.057;46;000.641;MIDI 01
429.841;000.081;58;000.672;MIDI 01
429.854;000.080;51;000.609;MIDI 01
429.852;000.100;54;000.602;MIDI 01
429.847;000.449;90;000.766;MIDI 01
430.367;000.030;70;000.570;MIDI 01
430.374;000.040;66;000.430;MIDI 01
430.378;000.039;63;000.414;MIDI 01
430.423;000.080;58;000.039;MIDI 01
430.486;000.046;70;000.578;MIDI 01
430.516;000.029;66;000.531;MIDI 01
430.521;000.034;63;000.547;MIDI 01
430.507;000.056;58;000.078;MIDI 01
430.618;000.036;70;000.688;MIDI 01
430.647;000.023;63;000.562;MIDI 01
430.613;000.071;66;000.586;MIDI 01
430.659;000.079;58;000.055;MIDI 01
430.774;000.178;87;000.664;MIDI 01
430.946;000.064;70;000.602;MIDI 01
430.976;000.043;58;000.328;MIDI 01
430.948;000.086;63;000.469;MIDI 01
430.926;000.153;82;000.656;MIDI 01
431.091;000.073;78;000.648;MIDI 01
431.343;000.054;77;000.492;MIDI 01
431.242;000.179;70;000.508;MIDI 01
431.278;000.206;62;000.422;MIDI 01
431.401;000.092;78;000.602;MIDI 01
431.276;000.222;68;000.500;MIDI 01
431.489;000.075;77;000.570;MIDI 01
431.247;000.393;58;000.375;MIDI 01
431.572;000.111;76;000.570;MIDI 01
431.664;000.144;77;000.664;MIDI 01
431.670;000.207;68;000.539;MIDI 01
431.680;000.227;62;000.445;MIDI 01
431.661;000.265;58;000.359;MIDI 01
432.125;000.210;82;000.586;MIDI 01
432.309;000.286;51;000.453;MIDI 01
432.892;000.064;66;000.242;MIDI 01
432.933;000.253;63;000.250;MIDI 01
433.175;000.272;54;000.477;MIDI 01
433.518;000.210;66;000.289;MIDI 01
433.501;000.301;63;000.195;MIDI 01
432.289;001.552;75;000.570;MIDI 01
434.008;000.103;66;000.305;MIDI 01
434.017;000.105;74;000.414;MIDI 01
433.741;000.513;58;000.391;MIDI 01
434.154;000.144;75;000.461;MIDI 01
434.011;000.363;63;000.266;MIDI 01
434.319;000.159;78;000.469;MIDI 01
434.452;000.050;77;000.469;MIDI 01
434.321;000.319;57;000.367;MIDI 01
434.695;000.060;72;000.484;MIDI 01
434.681;000.177;65;000.234;MIDI 01
434.621;000.355;63;000.289;MIDI 01
434.918;000.277;56;000.367;MIDI 01
435.201;000.213;65;000.312;MIDI 01
435.199;000.239;62;000.344;MIDI 01
434.878;000.603;71;000.461;MIDI 01
435.444;000.166;54;000.461;MIDI 01
435.558;000.085;70;000.438;MIDI 01
435.670;000.153;74;000.539;MIDI 01
435.707;000.133;66;000.281;MIDI 01
435.804;000.248;75;000.570;MIDI 01
435.686;000.367;63;000.359;MIDI 01
435.986;000.168;78;000.531;MIDI 01
436.160;000.070;77;000.562;MIDI 01
435.964;000.419;57;000.383;MIDI 01
436.300;000.148;77;000.508;MIDI 01
436.454;000.118;72;000.555;MIDI 01
436.381;000.199;65;000.234;MIDI 01
436.351;000.304;63;000.336;MIDI 01
436.667;000.265;56;000.312;MIDI 01
436.927;000.236;65;000.273;MIDI 01
436.929;000.296;62;000.305;MIDI 01
436.613;000.642;71;000.484;MIDI 01
437.183;000.197;54;000.445;MIDI 01
437.321;000.097;70;000.453;MIDI 01
437.494;000.086;66;000.164;MIDI 01
437.466;000.124;74;000.461;MIDI 01
437.440;000.210;58;000.344;MIDI 01
437.593;000.074;75;000.562;MIDI 01
437.481;000.477;63;000.289;MIDI 01
437.855;000.143;78;000.531;MIDI 01
438.036;000.058;77;000.547;MIDI 01
437.808;000.325;57;000.484;MIDI 01
438.143;000.050;60;000.430;MIDI 01
438.131;000.074;63;000.406;MIDI 01
438.171;000.077;77;000.492;MIDI 01
438.306;000.072;72;000.523;MIDI 01
438.448;000.133;80;000.594;MIDI 01
438.574;000.074;79;000.594;MIDI 01
438.436;000.253;58;000.531;MIDI 01
438.723;000.062;79;000.477;MIDI 01
438.693;000.145;61;000.422;MIDI 01
438.742;000.097;67;000.195;MIDI 01
438.845;000.086;75;000.594;MIDI 01
438.718;000.280;63;000.406;MIDI 01
438.943;000.150;82;000.594;MIDI 01
439.093;000.041;80;000.531;MIDI 01
439.227;000.066;80;000.508;MIDI 01
438.947;000.371;59;000.484;MIDI 01
439.197;000.219;63;000.359;MIDI 01
439.337;000.089;75;000.555;MIDI 01
439.235;000.272;68;000.391;MIDI 01
439.467;000.195;83;000.602;MIDI 01
439.631;000.067;82;000.594;MIDI 01
439.771;000.119;82;000.570;MIDI 01
439.779;000.180;70;000.492;MIDI 01
439.901;000.130;77;000.594;MIDI 01
439.795;000.274;65;000.453;MIDI 01
439.474;000.601;62;000.516;MIDI 01
440.025;000.137;83;000.602;MIDI 01
440.164;000.035;82;000.570;MIDI 01
440.275;000.081;82;000.570;MIDI 01
440.322;000.113;70;000.359;MIDI 01
440.392;000.118;81;000.594;MIDI 01
440.326;000.195;66;000.406;MIDI 01
440.021;000.532;63;000.508;MIDI 01
440.509;000.134;82;000.570;MIDI 01
440.625;000.100;83;000.625;MIDI 01
440.515;000.289;58;000.555;MIDI 01
440.770;000.124;82;000.633;MIDI 01
440.779;000.153;70;000.516;MIDI 01
440.899;000.074;90;000.625;MIDI 01
440.754;000.320;66;000.438;MIDI 01
441.064;000.117;90;000.648;MIDI 01
441.184;000.071;89;000.562;MIDI 01
441.320;000.108;89;000.555;MIDI 01
441.455;000.062;83;000.625;MIDI 01
441.334;000.206;71;000.453;MIDI 01
441.016;000.657;62;000.555;MIDI 01
441.329;000.439;68;000.445;MIDI 01
441.972;000.082;71;000.320;MIDI 01
441.642;000.476;63;000.430;MIDI 01
442.005;000.221;66;000.320;MIDI 01
441.617;000.611;83;000.594;MIDI 01
442.193;000.192;58;000.477;MIDI 01
442.300;000.111;82;000.492;MIDI 01
442.418;000.098;70;000.375;MIDI 01
442.452;000.127;86;000.531;MIDI 01
442.419;000.327;66;000.320;MIDI 01
442.574;000.247;87;000.531;MIDI 01
442.777;000.143;90;000.555;MIDI 01
442.919;000.065;89;000.445;MIDI 01
443.058;000.081;89;000.570;MIDI 01
443.206;000.044;83;000.539;MIDI 01
443.070;000.229;71;000.312;MIDI 01
442.686;000.767;62;000.414;MIDI 01
443.067;000.423;68;000.422;MIDI 01
443.431;000.495;63;000.352;MIDI 01
443.793;000.231;71;000.344;MIDI 01
443.796;000.265;66;000.289;MIDI 01
443.418;000.716;83;000.461;MIDI 01
444.141;000.034;82;000.383;MIDI 01
444.030;000.246;61;000.406;MIDI 01
444.284;000.131;82;000.484;MIDI 01
444.309;000.151;70;000.320;MIDI 01
444.435;000.050;88;000.484;MIDI 01
444.366;000.239;64;000.227;MIDI 01
444.591;000.100;88;000.578;MIDI 01
444.333;000.365;67;000.289;MIDI 01
444.729;000.074;87;000.602;MIDI 01
444.586;000.344;59;000.477;MIDI 01
444.870;000.135;87;000.516;MIDI 01
444.876;000.189;68;000.445;MIDI 01
445.004;000.104;80;000.609;MIDI 01
444.893;000.254;63;000.469;MIDI 01
445.147;000.145;89;000.656;MIDI 01
445.280;000.068;87;000.656;MIDI 01
445.144;000.241;58;000.602;MIDI 01
445.433;000.056;70;000.586;MIDI 01
445.427;000.123;87;000.672;MIDI 01
445.569;000.105;78;000.656;MIDI 01
445.450;000.281;63;000.547;MIDI 01
445.727;000.171;89;000.688;MIDI 01
445.720;000.181;56;000.656;MIDI 01
445.875;000.113;87;000.711;MIDI 01
446.075;000.160;71;000.625;MIDI 01
446.081;000.219;65;000.555;MIDI 01
446.090;000.228;87;000.711;MIDI 01
446.087;000.254;63;000.539;MIDI 01
446.305;000.113;77;000.680;MIDI 01
447.559;000.034;71;000.383;MIDI 01
447.692;000.072;71;000.516;MIDI 01
447.306;000.517;46;000.273;MIDI 01
447.303;000.520;56;000.266;MIDI 01
447.281;000.562;53;000.336;MIDI 01
447.792;000.059;62;000.539;MIDI 01
448.222;000.059;56;000.680;MIDI 01
448.242;000.062;53;000.594;MIDI 01
448.233;000.105;46;000.586;MIDI 01
448.566;000.048;34;000.680;MIDI 01
448.558;000.062;46;000.742;MIDI 01
447.936;000.748;62;000.641;MIDI 01
450.215;000.061;72;000.594;MIDI 01
449.916;000.569;57;000.516;MIDI 01
450.396;000.097;72;000.695;MIDI 01
449.918;000.576;46;000.492;MIDI 01
449.936;000.616;54;000.445;MIDI 01
450.551;000.044;63;000.648;MIDI 01
450.993;000.048;57;000.680;MIDI 01
450.993;000.080;54;000.664;MIDI 01
450.998;000.100;46;000.633;MIDI 01
451.359;000.072;46;000.734;MIDI 01
451.368;000.081;34;000.656;MIDI 01
450.688;000.795;63;000.719;MIDI 01
453.043;000.152;78;000.695;MIDI 01
453.460;000.412;78;000.695;MIDI 01
453.873;000.078;75;000.031;MIDI 01
453.817;000.146;66;000.656;MIDI 01
454.521;001.855;66;000.664;MIDI 01
457.152;000.469;66;000.227;MIDI 01
457.608;000.462;65;000.266;MIDI 01
458.011;000.299;63;000.305;MIDI 01
458.558;000.892;63;000.266;MIDI 01
459.426;000.425;71;000.297;MIDI 01
460.010;000.780;71;000.414;MIDI 01
460.675;000.629;62;000.352;MIDI 01
463.360;000.786;46;000.180;MIDI 01
463.363;001.231;56;000.211;MIDI 01
463.354;001.397;34;000.211;MIDI 01
461.758;003.658;62;000.453;MIDI 01
465.732;001.318;27;000.180;MIDI 01
465.736;001.334;54;000.203;MIDI 01
465.717;001.371;63;000.289;MIDI 01
465.720;001.380;39;000.219;MIDI 01
