Start;Duration;Pitch;Velocity;Instrument
001.244;000.616;49;000.203;MIDI 01
001.229;000.891;77;000.359;MIDI 01
001.878;000.528;56;000.203;MIDI 01
002.108;000.304;73;000.367;MIDI 01
002.886;000.089;56;000.242;MIDI 01
003.330;000.078;56;000.211;MIDI 01
002.428;001.374;61;000.281;MIDI 01
002.489;001.333;65;000.109;MIDI 01
002.399;001.792;68;000.375;MIDI 01
003.732;000.478;56;000.266;MIDI 01
004.135;000.481;61;000.297;MIDI 01
004.133;000.495;65;000.227;MIDI 01
004.110;000.959;70;000.414;MIDI 01
004.549;000.731;56;000.242;MIDI 01
005.463;000.107;56;000.297;MIDI 01
005.836;000.071;56;000.141;MIDI 01
006.191;000.529;56;000.242;MIDI 01
006.572;000.502;58;000.312;MIDI 01
005.049;002.033;63;000.305;MIDI 01
005.061;002.024;66;000.211;MIDI 01
005.011;002.456;72;000.406;MIDI 01
006.938;000.582;56;000.109;MIDI 01
007.382;000.410;65;000.297;MIDI 01
007.391;000.492;61;000.273;MIDI 01
007.380;000.990;73;000.375;MIDI 01
007.806;000.653;56;000.188;MIDI 01
008.304;000.440;66;000.266;MIDI 01
008.270;000.653;75;000.438;MIDI 01
008.669;000.281;56;000.203;MIDI 01
008.302;000.843;60;000.273;MIDI 01
008.949;000.209;68;000.320;MIDI 01
008.897;000.394;77;000.461;MIDI 01
009.678;000.111;56;000.188;MIDI 01
010.068;000.124;56;000.227;MIDI 01
009.272;001.259;70;000.328;MIDI 01
009.240;001.731;78;000.477;MIDI 01
010.446;000.657;56;000.258;MIDI 01
010.927;000.430;68;000.250;MIDI 01
010.934;000.468;77;000.227;MIDI 01
010.955;000.488;61;000.234;MIDI 01
011.369;000.646;56;000.094;MIDI 01
011.854;000.380;68;000.242;MIDI 01
012.280;000.431;56;000.266;MIDI 01
011.868;001.249;60;000.219;MIDI 01
012.688;000.450;66;000.258;MIDI 01
011.846;001.338;77;000.414;MIDI 01
013.121;000.455;75;000.328;MIDI 01
013.113;000.485;56;000.242;MIDI 01
013.630;000.499;65;000.219;MIDI 01
013.628;000.503;61;000.195;MIDI 01
013.576;000.614;73;000.289;MIDI 01
014.250;000.043;75;000.312;MIDI 01
014.037;000.624;56;000.188;MIDI 01
014.594;000.081;75;000.398;MIDI 01
014.752;000.115;77;000.320;MIDI 01
014.898;000.082;75;000.328;MIDI 01
014.613;000.511;66;000.164;MIDI 01
015.028;000.134;74;000.398;MIDI 01
014.644;000.660;60;000.203;MIDI 01
015.214;000.107;75;000.375;MIDI 01
015.172;000.258;56;000.266;MIDI 01
015.390;000.231;77;000.359;MIDI 01
015.665;000.355;78;000.375;MIDI 01
016.092;000.510;49;000.195;MIDI 01
016.056;000.871;77;000.422;MIDI 01
016.823;000.354;73;000.367;MIDI 01
016.602;000.621;56;000.211;MIDI 01
017.625;000.078;56;000.211;MIDI 01
018.030;000.089;56;000.156;MIDI 01
018.377;000.101;56;000.180;MIDI 01
017.163;001.736;68;000.344;MIDI 01
018.781;000.141;56;000.133;MIDI 01
017.209;002.048;65;000.172;MIDI 01
017.200;002.070;61;000.219;MIDI 01
018.783;001.031;70;000.320;MIDI 01
019.238;000.836;56;000.234;MIDI 01
020.279;000.156;56;000.148;MIDI 01
020.645;000.089;56;000.242;MIDI 01
020.999;000.564;56;000.180;MIDI 01
019.815;002.125;63;000.164;MIDI 01
021.432;000.544;58;000.266;MIDI 01
019.786;002.574;72;000.336;MIDI 01
022.299;000.421;65;000.289;MIDI 01
022.286;000.505;61;000.273;MIDI 01
022.276;001.032;73;000.367;MIDI 01
022.723;000.658;56;000.242;MIDI 01
023.229;000.456;66;000.211;MIDI 01
023.204;000.681;75;000.422;MIDI 01
023.641;000.318;56;000.195;MIDI 01
023.908;000.222;68;000.328;MIDI 01
023.878;000.389;77;000.453;MIDI 01
023.248;001.052;60;000.219;MIDI 01
024.740;000.144;56;000.188;MIDI 01
025.126;000.113;56;000.266;MIDI 01
024.304;001.300;70;000.258;MIDI 01
024.264;001.872;78;000.438;MIDI 01
025.529;000.660;56;000.258;MIDI 01
025.975;000.450;77;000.438;MIDI 01
026.034;000.415;68;000.219;MIDI 01
026.028;000.447;61;000.289;MIDI 01
026.407;000.708;56;000.172;MIDI 01
026.885;000.415;68;000.258;MIDI 01
027.308;000.555;56;000.211;MIDI 01
026.893;001.292;60;000.266;MIDI 01
026.858;001.357;77;000.438;MIDI 01
027.714;000.641;66;000.234;MIDI 01
028.143;000.578;75;000.352;MIDI 01
028.127;000.615;56;000.164;MIDI 01
028.653;000.447;65;000.250;MIDI 01
028.651;000.480;61;000.195;MIDI 01
028.626;000.519;73;000.336;MIDI 01
029.091;000.531;56;000.195;MIDI 01
029.570;000.386;65;000.234;MIDI 01
029.587;000.485;61;000.188;MIDI 01
029.557;000.522;72;000.328;MIDI 01
030.005;000.164;56;000.164;MIDI 01
029.979;000.635;73;000.320;MIDI 01
030.598;000.239;44;000.148;MIDI 01
030.578;000.467;75;000.305;MIDI 01
031.170;000.425;56;000.047;MIDI 01
031.540;000.372;63;000.273;MIDI 01
031.584;000.363;60;000.219;MIDI 01
031.928;000.317;56;000.312;MIDI 01
032.267;000.224;63;000.281;MIDI 01
032.303;000.331;59;000.289;MIDI 01
032.634;000.279;56;000.320;MIDI 01
031.526;001.530;75;000.352;MIDI 01
033.022;000.214;49;000.305;MIDI 01
033.054;000.332;65;000.234;MIDI 01
033.040;000.449;59;000.258;MIDI 01
033.005;000.967;77;000.469;MIDI 01
033.459;000.581;61;000.336;MIDI 01
033.966;000.500;58;000.195;MIDI 01
033.913;000.571;78;000.453;MIDI 01
034.402;000.314;61;000.258;MIDI 01
034.331;000.446;77;000.406;MIDI 01
034.715;000.312;66;000.242;MIDI 01
034.672;000.379;75;000.461;MIDI 01
034.736;000.390;58;000.242;MIDI 01
035.024;000.110;61;000.344;MIDI 01
033.972;001.213;54;000.219;MIDI 01
035.001;000.505;73;000.477;MIDI 01
035.457;000.393;49;000.328;MIDI 01
035.848;000.278;56;000.281;MIDI 01
036.191;000.225;65;000.305;MIDI 01
036.145;000.385;61;000.359;MIDI 01
036.561;000.448;56;000.320;MIDI 01
035.449;001.636;77;000.438;MIDI 01
037.009;000.363;75;000.328;MIDI 01
037.396;000.285;56;000.305;MIDI 01
037.417;000.322;71;000.336;MIDI 01
037.004;000.888;51;000.297;MIDI 01
037.731;000.247;63;000.266;MIDI 01
037.717;000.370;59;000.297;MIDI 01
037.735;000.361;70;000.445;MIDI 01
038.046;000.419;56;000.359;MIDI 01
038.048;000.484;68;000.469;MIDI 01
038.485;000.384;70;000.359;MIDI 01
038.454;000.428;51;000.273;MIDI 01
039.022;000.071;71;000.242;MIDI 01
039.121;000.059;70;000.359;MIDI 01
038.889;000.365;55;000.234;MIDI 01
039.246;000.049;68;000.297;MIDI 01
039.344;000.257;63;000.297;MIDI 01
039.317;000.480;61;000.305;MIDI 01
039.812;000.072;55;000.242;MIDI 01
039.318;000.669;70;000.430;MIDI 01
040.053;000.320;71;000.312;MIDI 01
040.379;000.186;44;000.242;MIDI 01
040.373;000.387;68;000.352;MIDI 01
040.870;000.386;56;000.242;MIDI 01
041.281;000.323;63;000.234;MIDI 01
041.294;000.393;59;000.227;MIDI 01
041.646;000.432;56;000.266;MIDI 01
041.261;000.847;75;000.336;MIDI 01
042.016;000.359;58;000.320;MIDI 01
042.018;000.391;61;000.289;MIDI 01
042.356;000.427;56;000.328;MIDI 01
041.994;000.804;73;000.453;MIDI 01
042.772;000.241;64;000.273;MIDI 01
042.736;000.379;61;000.328;MIDI 01
043.123;000.065;56;000.344;MIDI 01
042.722;000.873;76;000.516;MIDI 01
043.535;000.182;44;000.312;MIDI 01
043.520;000.448;75;000.398;MIDI 01
043.955;000.429;56;000.312;MIDI 01
044.755;000.105;56;000.289;MIDI 01
045.115;000.106;56;000.297;MIDI 01
044.391;001.219;59;000.305;MIDI 01
044.369;001.247;63;000.273;MIDI 01
044.351;001.527;75;000.500;MIDI 01
045.458;000.432;56;000.352;MIDI 01
045.833;000.333;65;000.406;MIDI 01
045.839;000.464;59;000.289;MIDI 01
045.816;000.931;77;000.523;MIDI 01
046.237;000.511;56;000.367;MIDI 01
046.697;000.613;78;000.500;MIDI 01
046.679;000.723;51;000.320;MIDI 01
047.280;000.418;54;000.320;MIDI 01
047.222;000.599;77;000.469;MIDI 01
047.636;000.240;66;000.305;MIDI 01
047.584;000.371;75;000.516;MIDI 01
047.608;000.379;58;000.383;MIDI 01
047.929;000.107;54;000.305;MIDI 01
047.902;000.515;73;000.547;MIDI 01
048.382;000.134;46;000.281;MIDI 01
048.771;000.294;53;000.266;MIDI 01
049.092;000.245;65;000.297;MIDI 01
049.096;000.361;61;000.312;MIDI 01
049.456;000.069;53;000.297;MIDI 01
049.135;000.404;58;000.188;MIDI 01
049.917;000.120;41;000.297;MIDI 01
048.330;002.186;77;000.516;MIDI 01
050.324;000.304;53;000.258;MIDI 01
050.373;000.302;73;000.359;MIDI 01
050.726;000.225;65;000.281;MIDI 01
050.675;000.348;72;000.453;MIDI 01
050.656;000.374;61;000.336;MIDI 01
051.021;000.081;53;000.383;MIDI 01
050.667;000.450;58;000.297;MIDI 01
050.987;000.471;70;000.516;MIDI 01
051.472;000.153;41;000.320;MIDI 01
051.434;000.410;72;000.406;MIDI 01
052.048;000.040;73;000.219;MIDI 01
051.873;000.299;53;000.352;MIDI 01
052.103;000.081;72;000.359;MIDI 01
052.220;000.058;70;000.391;MIDI 01
052.335;000.291;65;000.281;MIDI 01
052.303;000.401;63;000.273;MIDI 01
052.324;000.402;72;000.461;MIDI 01
052.349;000.480;57;000.203;MIDI 01
052.760;000.084;53;000.328;MIDI 01
052.723;000.554;73;000.414;MIDI 01
053.249;000.216;46;000.320;MIDI 01
053.246;000.415;70;000.352;MIDI 01
053.735;000.377;53;000.211;MIDI 01
054.150;000.268;65;000.328;MIDI 01
054.148;000.399;61;000.297;MIDI 01
054.107;000.822;77;000.461;MIDI 01
054.553;000.414;53;000.281;MIDI 01
054.871;000.293;63;000.297;MIDI 01
054.901;000.310;60;000.297;MIDI 01
055.235;000.086;53;000.266;MIDI 01
054.860;000.797;75;000.500;MIDI 01
055.597;000.126;66;000.398;MIDI 01
055.635;000.144;63;000.359;MIDI 01
055.599;000.440;78;000.492;MIDI 01
056.021;000.496;53;000.312;MIDI 01
056.472;000.298;65;000.234;MIDI 01
056.460;000.376;61;000.312;MIDI 01
056.447;000.482;77;000.484;MIDI 01
056.861;000.309;73;000.477;MIDI 01
056.844;000.440;53;000.320;MIDI 01
057.185;000.145;65;000.320;MIDI 01
057.166;000.324;61;000.359;MIDI 01
057.209;000.343;58;000.273;MIDI 01
057.158;000.396;72;000.508;MIDI 01
057.495;000.478;70;000.523;MIDI 01
057.493;000.568;53;000.359;MIDI 01
057.959;000.274;63;000.266;MIDI 01
057.998;000.376;57;000.258;MIDI 01
057.950;000.484;72;000.453;MIDI 01
058.510;000.057;73;000.336;MIDI 01
058.607;000.082;72;000.406;MIDI 01
058.401;000.367;53;000.281;MIDI 01
058.718;000.059;70;000.406;MIDI 01
058.856;000.290;65;000.281;MIDI 01
058.836;000.405;63;000.211;MIDI 01
058.858;000.514;57;000.125;MIDI 01
059.352;000.142;53;000.227;MIDI 01
058.830;000.711;72;000.406;MIDI 01
059.606;000.351;73;000.367;MIDI 01
059.981;000.182;46;000.195;MIDI 01
059.977;000.365;70;000.305;MIDI 01
060.486;000.593;53;000.195;MIDI 01
060.966;000.277;63;000.219;MIDI 01
060.990;000.401;60;000.117;MIDI 01
060.929;000.970;75;000.312;MIDI 01
061.439;000.542;53;000.156;MIDI 01
061.884;000.337;65;000.141;MIDI 01
061.848;000.441;61;000.297;MIDI 01
061.830;000.923;77;000.344;MIDI 01
062.279;000.533;53;000.164;MIDI 01
062.684;000.333;63;000.203;MIDI 01
062.692;000.441;60;000.203;MIDI 01
062.639;001.178;75;000.305;MIDI 01
063.154;000.755;53;000.148;MIDI 01
064.196;000.177;53;000.188;MIDI 01
064.568;000.213;53;000.273;MIDI 01
063.688;001.503;61;000.234;MIDI 01
063.711;001.483;65;000.141;MIDI 01
064.968;000.564;53;000.289;MIDI 01
065.471;000.720;61;000.156;MIDI 01
065.499;000.720;65;000.227;MIDI 01
063.654;003.123;77;000.383;MIDI 01
066.000;001.495;54;000.234;MIDI 01
066.658;000.951;60;000.180;MIDI 01
066.639;000.990;63;000.164;MIDI 01
066.657;001.306;75;000.312;MIDI 01
067.380;000.785;56;000.195;MIDI 01
068.272;000.580;49;000.195;MIDI 01
068.248;000.850;77;000.344;MIDI 01
069.030;000.295;73;000.383;MIDI 01
068.819;000.521;56;000.258;MIDI 01
069.770;000.091;56;000.227;MIDI 01
070.154;000.079;56;000.180;MIDI 01
069.365;001.248;65;000.219;MIDI 01
069.332;001.286;61;000.289;MIDI 01
069.325;001.741;68;000.375;MIDI 01
070.573;000.549;56;000.258;MIDI 01
071.014;000.400;65;000.227;MIDI 01
071.018;000.426;61;000.180;MIDI 01
070.990;000.938;70;000.375;MIDI 01
071.407;000.716;56;000.195;MIDI 01
072.346;000.191;56;000.227;MIDI 01
072.731;000.065;56;000.312;MIDI 01
073.518;000.105;58;000.258;MIDI 01
073.095;000.560;56;000.227;MIDI 01
073.627;000.411;58;000.023;MIDI 01
071.858;002.204;63;000.242;MIDI 01
071.878;002.191;66;000.180;MIDI 01
071.835;002.614;72;000.438;MIDI 01
073.911;000.569;56;000.250;MIDI 01
074.353;000.443;65;000.297;MIDI 01
074.348;000.510;61;000.297;MIDI 01
074.326;000.925;73;000.422;MIDI 01
074.715;000.587;56;000.242;MIDI 01
075.174;000.427;66;000.266;MIDI 01
075.151;000.646;75;000.414;MIDI 01
075.793;000.307;68;000.359;MIDI 01
075.784;000.381;77;000.461;MIDI 01
075.577;000.761;56;000.281;MIDI 01
076.557;000.225;56;000.211;MIDI 01
076.966;000.115;56;000.305;MIDI 01
076.123;001.217;70;000.336;MIDI 01
075.203;002.200;60;000.242;MIDI 01
076.145;001.761;78;000.414;MIDI 01
077.395;000.520;56;000.258;MIDI 01
077.817;000.427;77;000.406;MIDI 01
077.862;000.445;68;000.195;MIDI 01
077.845;000.489;61;000.281;MIDI 01
078.258;000.635;56;000.305;MIDI 01
078.769;000.506;60;000.195;MIDI 01
078.742;000.569;68;000.258;MIDI 01
079.208;000.426;56;000.281;MIDI 01
079.590;000.444;66;000.281;MIDI 01
078.736;001.327;77;000.422;MIDI 01
079.614;000.763;60;000.203;MIDI 01
079.976;000.553;75;000.367;MIDI 01
079.971;000.576;56;000.297;MIDI 01
080.460;000.482;73;000.320;MIDI 01
080.491;000.469;65;000.234;MIDI 01
080.489;000.500;61;000.219;MIDI 01
080.898;000.614;56;000.242;MIDI 01
081.452;000.160;74;000.289;MIDI 01
081.669;000.054;75;000.320;MIDI 01
081.803;000.138;76;000.359;MIDI 01
081.432;000.520;66;000.180;MIDI 01
081.938;000.122;77;000.391;MIDI 01
081.450;000.636;60;000.219;MIDI 01
081.967;000.335;56;000.250;MIDI 01
082.124;000.206;80;000.383;MIDI 01
082.321;000.199;79;000.375;MIDI 01
082.585;000.092;78;000.258;MIDI 01
082.995;000.602;49;000.258;MIDI 01
083.008;000.905;77;000.383;MIDI 01
083.818;000.340;73;000.367;MIDI 01
083.592;000.601;56;000.242;MIDI 01
084.604;000.100;56;000.172;MIDI 01
084.998;000.111;56;000.086;MIDI 01
085.370;000.086;56;000.156;MIDI 01
084.152;001.748;68;000.312;MIDI 01
085.756;000.152;56;000.133;MIDI 01
084.174;002.039;65;000.227;MIDI 01
084.165;002.062;61;000.281;MIDI 01
085.754;000.952;70;000.352;MIDI 01
086.160;000.783;56;000.188;MIDI 01
087.129;000.174;56;000.266;MIDI 01
087.499;000.121;56;000.266;MIDI 01
087.853;000.511;56;000.219;MIDI 01
088.249;000.524;58;000.242;MIDI 01
086.695;002.115;63;000.227;MIDI 01
086.730;002.109;66;000.188;MIDI 01
086.655;002.545;72;000.391;MIDI 01
088.651;000.595;56;000.258;MIDI 01
089.097;000.422;65;000.273;MIDI 01
089.089;000.515;61;000.297;MIDI 01
089.072;000.969;73;000.383;MIDI 01
089.467;000.639;56;000.164;MIDI 01
089.926;000.455;66;000.297;MIDI 01
089.899;000.677;75;000.406;MIDI 01
090.320;000.375;56;000.188;MIDI 01
090.579;000.229;68;000.312;MIDI 01
090.529;000.379;77;000.461;MIDI 01
089.941;001.136;60;000.242;MIDI 01
091.294;000.132;56;000.219;MIDI 01
091.683;000.159;56;000.219;MIDI 01
092.107;000.653;56;000.180;MIDI 01
090.873;002.028;70;000.359;MIDI 01
090.875;002.101;78;000.484;MIDI 01
092.615;000.639;63;000.227;MIDI 01
092.556;001.066;72;000.344;MIDI 01
093.044;000.747;56;000.172;MIDI 01
093.618;000.388;66;000.273;MIDI 01
093.620;000.549;75;000.312;MIDI 01
094.129;000.079;56;000.148;MIDI 01
094.539;000.070;56;000.125;MIDI 01
094.921;000.082;56;000.172;MIDI 01
095.301;000.080;56;000.273;MIDI 01
096.155;000.086;56;000.219;MIDI 01
096.577;000.061;56;000.148;MIDI 01
097.068;000.391;44;000.250;MIDI 01
097.489;000.083;56;000.281;MIDI 01
097.078;000.938;37;000.125;MIDI 01
098.307;000.079;56;000.188;MIDI 01
097.889;000.892;44;000.297;MIDI 01
097.910;000.935;39;000.297;MIDI 01
098.705;000.501;49;000.328;MIDI 01
099.159;000.107;56;000.109;MIDI 01
098.743;000.814;40;000.203;MIDI 01
099.597;000.423;48;000.227;MIDI 01
099.582;000.498;39;000.219;MIDI 01
100.040;000.060;56;000.086;MIDI 01
100.427;000.091;56;000.156;MIDI 01
100.402;000.439;44;000.297;MIDI 01
100.818;000.071;56;000.258;MIDI 01
100.397;000.870;39;000.219;MIDI 01
101.202;000.098;56;000.266;MIDI 01
101.619;000.044;56;000.297;MIDI 01
101.145;000.903;44;000.312;MIDI 01
101.172;000.895;40;000.406;MIDI 01
102.023;000.097;56;000.242;MIDI 01
101.996;000.398;51;000.406;MIDI 01
102.457;000.065;56;000.180;MIDI 01
102.008;000.776;42;000.297;MIDI 01
102.811;000.469;40;000.266;MIDI 01
102.814;000.471;49;000.266;MIDI 01
103.234;000.069;56;000.109;MIDI 01
104.007;000.108;56;000.133;MIDI 01
103.646;000.497;40;000.297;MIDI 01
103.614;000.830;49;000.289;MIDI 01
104.407;000.108;56;000.180;MIDI 01
104.794;000.070;56;000.297;MIDI 01
104.376;000.522;51;000.375;MIDI 01
104.389;000.920;44;000.328;MIDI 01
105.197;000.136;56;000.305;MIDI 01
105.152;000.396;52;000.422;MIDI 01
105.580;000.079;56;000.305;MIDI 01
105.169;000.770;49;000.375;MIDI 01
105.970;000.199;56;000.289;MIDI 01
105.943;000.448;51;000.398;MIDI 01
105.959;000.473;44;000.344;MIDI 01
106.396;000.079;56;000.281;MIDI 01
106.862;000.093;56;000.250;MIDI 01
107.304;000.101;56;000.172;MIDI 01
107.645;000.110;56;000.188;MIDI 01
108.039;000.108;56;000.211;MIDI 01
108.431;000.096;56;000.188;MIDI 01
108.842;000.094;56;000.211;MIDI 01
109.235;000.129;56;000.148;MIDI 01
109.606;000.126;56;000.180;MIDI 01
106.857;003.410;51;000.312;MIDI 01
110.425;000.100;56;000.172;MIDI 01
106.865;004.009;44;000.273;MIDI 01
110.867;000.458;52;000.125;MIDI 01
111.264;000.077;56;000.258;MIDI 01
110.878;000.774;49;000.117;MIDI 01
111.669;000.082;56;000.180;MIDI 01
111.655;000.466;51;000.305;MIDI 01
112.066;000.078;56;000.289;MIDI 01
111.656;000.782;44;000.305;MIDI 01
112.468;000.076;56;000.164;MIDI 01
112.427;000.406;49;000.352;MIDI 01
112.860;000.057;56;000.234;MIDI 01
112.444;000.776;40;000.320;MIDI 01
113.232;000.147;56;000.195;MIDI 01
113.185;000.439;51;000.344;MIDI 01
113.665;000.059;56;000.180;MIDI 01
113.211;000.693;44;000.312;MIDI 01
114.017;000.148;56;000.164;MIDI 01
113.987;000.347;49;000.289;MIDI 01
114.383;000.138;56;000.125;MIDI 01
113.980;000.760;40;000.281;MIDI 01
114.795;000.142;56;000.117;MIDI 01
114.749;000.370;48;000.289;MIDI 01
115.176;000.092;56;000.156;MIDI 01
114.774;000.786;39;000.250;MIDI 01
115.594;000.079;56;000.188;MIDI 01
115.543;000.457;49;000.289;MIDI 01
115.949;000.079;56;000.203;MIDI 01
115.582;000.696;40;000.219;MIDI 01
116.378;000.069;56;000.086;MIDI 01
116.342;000.358;48;000.242;MIDI 01
116.763;000.059;56;000.242;MIDI 01
116.321;000.869;39;000.227;MIDI 01
117.144;000.106;56;000.289;MIDI 01
117.131;000.465;49;000.375;MIDI 01
117.537;000.163;56;000.344;MIDI 01
117.156;000.830;40;000.305;MIDI 01
117.946;000.228;56;000.375;MIDI 01
117.929;000.440;51;000.406;MIDI 01
118.355;000.081;56;000.391;MIDI 01
117.934;000.861;39;000.375;MIDI 01
118.750;000.260;56;000.422;MIDI 01
118.743;000.399;37;000.359;MIDI 01
118.737;000.530;52;000.422;MIDI 01
119.182;000.092;56;000.367;MIDI 01
119.666;000.266;56;000.336;MIDI 01
120.115;000.053;56;000.258;MIDI 01
120.169;000.054;68;000.055;MIDI 01
120.515;000.069;56;000.242;MIDI 01
120.535;000.062;68;000.133;MIDI 01
120.930;000.055;56;000.250;MIDI 01
120.923;000.068;68;000.352;MIDI 01
121.323;000.057;56;000.281;MIDI 01
121.324;000.077;68;000.281;MIDI 01
119.645;001.814;51;000.266;MIDI 01
121.711;000.062;56;000.289;MIDI 01
121.724;000.058;68;000.320;MIDI 01
119.628;002.253;44;000.344;MIDI 01
122.106;000.064;56;000.250;MIDI 01
122.104;000.067;68;000.273;MIDI 01
122.499;000.053;68;000.289;MIDI 01
122.519;000.054;56;000.172;MIDI 01
122.973;000.163;56;000.047;MIDI 01
122.985;000.186;68;000.117;MIDI 01
123.000;000.346;44;000.125;MIDI 01
123.355;000.095;68;000.312;MIDI 01
123.414;000.065;56;000.148;MIDI 01
123.767;000.074;68;000.281;MIDI 01
122.991;000.923;37;000.141;MIDI 01
124.201;000.059;68;000.219;MIDI 01
124.206;000.065;56;000.266;MIDI 01
123.755;000.931;39;000.367;MIDI 01
123.765;000.932;44;000.305;MIDI 01
124.649;000.148;68;000.375;MIDI 01
124.631;000.397;49;000.352;MIDI 01
125.026;000.100;68;000.297;MIDI 01
124.623;000.506;61;000.438;MIDI 01
125.057;000.074;56;000.234;MIDI 01
124.641;000.763;40;000.281;MIDI 01
125.440;000.154;68;000.281;MIDI 01
125.452;000.337;48;000.258;MIDI 01
125.438;000.451;39;000.211;MIDI 01
125.422;000.475;60;000.328;MIDI 01
125.814;000.112;68;000.344;MIDI 01
125.868;000.070;56;000.117;MIDI 01
126.228;000.176;68;000.336;MIDI 01
126.237;000.179;56;000.203;MIDI 01
126.205;000.426;44;000.336;MIDI 01
126.590;000.136;56;000.406;MIDI 01
126.581;000.179;68;000.430;MIDI 01
126.199;000.828;39;000.266;MIDI 01
126.984;000.236;56;000.445;MIDI 01
126.970;000.255;68;000.477;MIDI 01
127.384;000.071;56;000.484;MIDI 01
127.376;000.101;68;000.508;MIDI 01
126.968;000.915;44;000.445;MIDI 01
126.999;000.890;40;000.406;MIDI 01
127.809;000.159;56;000.383;MIDI 01
127.802;000.188;68;000.500;MIDI 01
127.795;000.332;51;000.375;MIDI 01
128.235;000.086;68;000.352;MIDI 01
128.297;000.056;56;000.023;MIDI 01
127.797;000.760;63;000.477;MIDI 01
127.807;000.782;42;000.328;MIDI 01
128.596;000.082;68;000.352;MIDI 01
128.598;000.396;49;000.328;MIDI 01
128.600;000.402;40;000.273;MIDI 01
128.961;000.064;68;000.344;MIDI 01
128.958;000.070;56;000.312;MIDI 01
129.361;000.094;56;000.312;MIDI 01
129.349;000.133;68;000.383;MIDI 01
129.345;000.457;40;000.352;MIDI 01
129.707;000.152;68;000.406;MIDI 01
129.732;000.155;56;000.359;MIDI 01
129.328;000.736;49;000.383;MIDI 01
128.576;001.564;61;000.430;MIDI 01
130.097;000.100;56;000.406;MIDI 01
130.089;000.149;68;000.492;MIDI 01
130.093;000.349;51;000.453;MIDI 01
130.457;000.114;56;000.516;MIDI 01
130.449;000.159;68;000.523;MIDI 01
130.086;000.729;63;000.531;MIDI 01
130.103;000.877;44;000.422;MIDI 01
130.831;000.151;68;000.547;MIDI 01
130.833;000.203;56;000.555;MIDI 01
130.829;000.345;52;000.453;MIDI 01
131.217;000.160;56;000.570;MIDI 01
131.213;000.194;68;000.594;MIDI 01
130.827;000.722;64;000.531;MIDI 01
130.825;000.774;49;000.477;MIDI 01
131.591;000.138;56;000.547;MIDI 01
131.588;000.149;68;000.570;MIDI 01
131.603;000.174;51;000.555;MIDI 01
131.613;000.333;44;000.500;MIDI 01
131.580;000.674;63;000.555;MIDI 01
132.002;000.254;56;000.594;MIDI 01
131.992;000.266;68;000.609;MIDI 01
132.197;000.081;32;000.617;MIDI 01
132.558;000.271;56;000.617;MIDI 01
132.554;000.299;68;000.680;MIDI 01
133.070;000.135;56;000.586;MIDI 01
133.058;000.169;68;000.586;MIDI 01
133.445;000.135;56;000.570;MIDI 01
133.438;000.191;68;000.570;MIDI 01
133.821;000.147;56;000.570;MIDI 01
133.814;000.189;68;000.586;MIDI 01
132.572;001.654;51;000.617;MIDI 01
134.203;000.164;56;000.609;MIDI 01
134.197;000.201;68;000.586;MIDI 01
134.579;000.171;56;000.641;MIDI 01
134.577;000.193;68;000.617;MIDI 01
132.565;002.366;44;000.609;MIDI 01
134.955;000.157;56;000.625;MIDI 01
134.957;000.196;68;000.625;MIDI 01
135.354;000.064;56;000.648;MIDI 01
132.560;002.864;63;000.586;MIDI 01
135.349;000.110;68;000.648;MIDI 01
135.822;000.292;71;000.680;MIDI 01
135.826;000.290;59;000.648;MIDI 01
136.314;000.147;59;000.602;MIDI 01
136.308;000.170;71;000.633;MIDI 01
135.824;000.923;40;000.664;MIDI 01
135.816;000.962;28;000.648;MIDI 01
136.695;000.127;59;000.633;MIDI 01
136.700;000.146;71;000.617;MIDI 01
137.079;000.096;59;000.648;MIDI 01
137.085;000.140;71;000.656;MIDI 01
135.832;001.402;64;000.602;MIDI 01
135.828;001.439;68;000.594;MIDI 01
137.517;000.238;71;000.688;MIDI 01
137.521;000.235;59;000.648;MIDI 01
137.969;000.125;59;000.555;MIDI 01
137.972;000.141;71;000.625;MIDI 01
137.519;000.869;47;000.641;MIDI 01
138.318;000.137;59;000.617;MIDI 01
138.324;000.152;71;000.625;MIDI 01
137.515;001.069;35;000.617;MIDI 01
138.700;000.072;59;000.672;MIDI 01
137.522;001.291;63;000.625;MIDI 01
138.698;000.119;71;000.648;MIDI 01
137.524;001.315;68;000.602;MIDI 01
139.121;000.245;71;000.680;MIDI 01
139.117;000.257;59;000.672;MIDI 01
139.581;000.135;59;000.586;MIDI 01
139.583;000.153;71;000.609;MIDI 01
139.119;000.817;40;000.602;MIDI 01
139.123;000.816;28;000.594;MIDI 01
139.953;000.150;59;000.602;MIDI 01
139.955;000.174;71;000.609;MIDI 01
140.305;000.101;59;000.648;MIDI 01
140.310;000.117;71;000.625;MIDI 01
139.121;001.331;64;000.625;MIDI 01
139.120;001.365;68;000.539;MIDI 01
140.711;000.278;59;000.703;MIDI 01
140.709;000.281;71;000.688;MIDI 01
140.705;000.529;47;000.633;MIDI 01
140.710;000.570;35;000.617;MIDI 01
141.147;000.151;59;000.633;MIDI 01
141.148;000.174;71;000.633;MIDI 01
141.521;000.134;59;000.648;MIDI 01
141.519;000.146;71;000.656;MIDI 01
141.896;000.109;46;000.688;MIDI 01
141.883;000.123;59;000.719;MIDI 01
141.886;000.146;71;000.688;MIDI 01
141.894;000.145;34;000.633;MIDI 01
140.714;001.355;63;000.648;MIDI 01
140.716;001.357;68;000.586;MIDI 01
142.408;000.338;71;000.672;MIDI 01
142.401;000.353;59;000.688;MIDI 01
142.908;000.143;59;000.602;MIDI 01
142.910;000.149;71;000.617;MIDI 01
142.399;000.868;44;000.688;MIDI 01
142.406;000.876;32;000.617;MIDI 01
143.267;000.155;59;000.641;MIDI 01
143.273;000.162;71;000.633;MIDI 01
143.665;000.119;59;000.672;MIDI 01
143.662;000.124;71;000.648;MIDI 01
142.410;001.393;63;000.633;MIDI 01
142.415;001.391;68;000.633;MIDI 01
144.045;000.272;71;000.680;MIDI 01
144.047;000.279;59;000.703;MIDI 01
144.042;000.565;51;000.688;MIDI 01
144.492;000.169;59;000.633;MIDI 01
144.490;000.197;71;000.633;MIDI 01
144.043;000.931;39;000.656;MIDI 01
144.863;000.151;59;000.648;MIDI 01
144.860;000.182;71;000.664;MIDI 01
144.053;001.257;67;000.625;MIDI 01
145.243;000.074;59;000.641;MIDI 01
144.051;001.268;63;000.617;MIDI 01
145.246;000.096;71;000.641;MIDI 01
145.677;000.162;59;000.609;MIDI 01
145.674;000.182;71;000.625;MIDI 01
145.688;000.189;44;000.516;MIDI 01
145.680;000.216;68;000.555;MIDI 01
145.690;000.213;63;000.516;MIDI 01
145.682;000.232;32;000.516;MIDI 01
146.151;000.045;56;000.398;MIDI 01
146.522;000.056;56;000.367;MIDI 01
146.905;000.062;56;000.266;MIDI 01
147.332;000.056;56;000.273;MIDI 01
147.721;000.081;56;000.195;MIDI 01
148.137;000.139;56;000.234;MIDI 01
148.550;000.059;56;000.266;MIDI 01
149.085;000.231;56;000.188;MIDI 01
149.097;000.452;44;000.195;MIDI 01
149.519;000.112;56;000.188;MIDI 01
149.958;000.089;56;000.242;MIDI 01
149.092;001.036;37;000.141;MIDI 01
150.385;000.060;56;000.242;MIDI 01
149.944;000.859;39;000.344;MIDI 01
149.938;000.883;44;000.273;MIDI 01
150.809;000.146;56;000.234;MIDI 01
150.778;000.474;49;000.383;MIDI 01
151.246;000.090;56;000.117;MIDI 01
150.795;000.797;40;000.305;MIDI 01
151.603;000.104;56;000.141;MIDI 01
151.602;000.421;48;000.305;MIDI 01
151.590;000.499;39;000.320;MIDI 01
152.050;000.061;56;000.102;MIDI 01
152.408;000.109;56;000.172;MIDI 01
152.406;000.430;44;000.328;MIDI 01
152.835;000.069;56;000.273;MIDI 01
153.199;000.124;56;000.266;MIDI 01
152.401;000.929;39;000.227;MIDI 01
153.598;000.061;56;000.312;MIDI 01
153.211;000.922;40;000.336;MIDI 01
153.997;000.156;56;000.312;MIDI 01
153.194;000.967;44;000.352;MIDI 01
153.973;000.441;51;000.430;MIDI 01
154.414;000.074;56;000.258;MIDI 01
154.040;000.794;42;000.273;MIDI 01
154.832;000.131;56;000.211;MIDI 01
154.825;000.448;40;000.297;MIDI 01
154.817;000.461;49;000.281;MIDI 01
155.251;000.052;56;000.211;MIDI 01
155.633;000.134;56;000.227;MIDI 01
155.619;000.447;40;000.273;MIDI 01
156.005;000.098;56;000.281;MIDI 01
155.582;000.812;49;000.219;MIDI 01
156.406;000.246;56;000.289;MIDI 01
156.390;000.436;51;000.367;MIDI 01
156.794;000.123;56;000.352;MIDI 01
156.400;000.905;44;000.320;MIDI 01
157.203;000.228;56;000.336;MIDI 01
157.166;000.359;52;000.430;MIDI 01
157.610;000.059;56;000.375;MIDI 01
157.168;000.835;49;000.422;MIDI 01
158.018;000.155;56;000.289;MIDI 01
158.007;000.420;51;000.352;MIDI 01
158.028;000.449;44;000.305;MIDI 01
158.417;000.076;56;000.281;MIDI 01
158.876;000.094;51;000.266;MIDI 01
158.883;000.219;56;000.234;MIDI 01
159.295;000.079;56;000.156;MIDI 01
159.711;000.089;56;000.266;MIDI 01
160.115;000.087;56;000.211;MIDI 01
160.492;000.055;56;000.250;MIDI 01
160.867;000.100;56;000.156;MIDI 01
161.228;000.082;56;000.219;MIDI 01
161.615;000.084;56;000.234;MIDI 01
161.985;000.076;56;000.195;MIDI 01
158.974;003.252;51;000.086;MIDI 01
162.368;000.067;56;000.117;MIDI 01
158.858;003.884;44;000.266;MIDI 01
162.789;000.206;56;000.062;MIDI 01
162.771;000.356;52;000.258;MIDI 01
163.189;000.079;56;000.211;MIDI 01
162.777;000.744;49;000.172;MIDI 01
163.586;000.079;56;000.070;MIDI 01
163.531;000.416;51;000.312;MIDI 01
163.940;000.125;56;000.109;MIDI 01
163.552;000.804;44;000.289;MIDI 01
164.294;000.077;56;000.172;MIDI 01
164.266;000.459;49;000.320;MIDI 01
164.691;000.055;56;000.219;MIDI 01
164.297;000.793;40;000.281;MIDI 01
165.032;000.406;51;000.312;MIDI 01
165.449;000.079;56;000.281;MIDI 01
165.069;000.832;44;000.289;MIDI 01
165.882;000.124;56;000.148;MIDI 01
165.830;000.465;49;000.305;MIDI 01
166.230;000.127;56;000.227;MIDI 01
165.881;000.763;40;000.195;MIDI 01
166.609;000.227;56;000.211;MIDI 01
166.555;000.410;48;000.344;MIDI 01
166.993;000.080;56;000.359;MIDI 01
166.589;000.845;39;000.359;MIDI 01
167.379;000.124;56;000.266;MIDI 01
167.338;000.442;49;000.391;MIDI 01
167.732;000.078;56;000.289;MIDI 01
167.381;000.742;40;000.320;MIDI 01
168.097;000.232;56;000.266;MIDI 01
168.077;000.389;48;000.383;MIDI 01
168.477;000.066;56;000.383;MIDI 01
168.066;000.842;39;000.391;MIDI 01
168.844;000.145;56;000.367;MIDI 01
168.799;000.500;49;000.430;MIDI 01
169.193;000.157;56;000.430;MIDI 01
168.842;000.798;40;000.414;MIDI 01
169.571;000.261;56;000.430;MIDI 01
169.576;000.357;51;000.469;MIDI 01
169.975;000.119;56;000.484;MIDI 01
169.577;000.765;39;000.453;MIDI 01
170.350;000.256;56;000.461;MIDI 01
170.342;000.391;37;000.461;MIDI 01
170.347;000.519;52;000.484;MIDI 01
170.780;000.110;56;000.484;MIDI 01
171.206;000.302;56;000.484;MIDI 01
171.686;000.036;56;000.258;MIDI 01
171.669;000.058;68;000.352;MIDI 01
172.047;000.070;68;000.367;MIDI 01
172.051;000.068;56;000.359;MIDI 01
172.435;000.057;56;000.414;MIDI 01
172.443;000.070;68;000.383;MIDI 01
172.806;000.084;56;000.344;MIDI 01
172.802;000.091;68;000.352;MIDI 01
173.173;000.086;56;000.445;MIDI 01
171.219;002.145;51;000.383;MIDI 01
173.588;000.072;68;000.336;MIDI 01
173.578;000.086;56;000.445;MIDI 01
171.208;002.511;44;000.430;MIDI 01
173.955;000.075;56;000.461;MIDI 01
173.972;000.060;68;000.305;MIDI 01
174.485;000.160;56;000.094;MIDI 01
174.490;000.166;68;000.148;MIDI 01
174.416;000.448;44;000.422;MIDI 01
174.907;000.084;56;000.352;MIDI 01
174.919;000.077;68;000.297;MIDI 01
174.414;000.954;37;000.398;MIDI 01
175.282;000.086;56;000.312;MIDI 01
175.284;000.096;68;000.320;MIDI 01
175.662;000.058;68;000.344;MIDI 01
175.658;000.092;56;000.367;MIDI 01
175.250;000.778;39;000.438;MIDI 01
176.120;000.072;68;000.156;MIDI 01
175.249;000.945;44;000.453;MIDI 01
176.108;000.175;56;000.156;MIDI 01
176.049;000.433;49;000.484;MIDI 01
176.488;000.074;68;000.320;MIDI 01
176.097;000.477;61;000.266;MIDI 01
176.482;000.140;56;000.297;MIDI 01
176.074;000.838;40;000.375;MIDI 01
176.853;000.146;68;000.328;MIDI 01
176.833;000.347;48;000.383;MIDI 01
176.861;000.373;60;000.250;MIDI 01
176.900;000.384;39;000.242;MIDI 01
177.239;000.068;56;000.359;MIDI 01
177.208;000.114;68;000.359;MIDI 01
177.650;000.078;56;000.297;MIDI 01
177.653;000.083;68;000.312;MIDI 01
177.613;000.457;44;000.469;MIDI 01
178.037;000.091;56;000.344;MIDI 01
178.024;000.134;68;000.398;MIDI 01
177.606;000.840;39;000.398;MIDI 01
178.430;000.127;56;000.398;MIDI 01
178.411;000.154;68;000.430;MIDI 01
178.791;000.082;56;000.422;MIDI 01
178.787;000.103;68;000.406;MIDI 01
178.414;000.931;40;000.461;MIDI 01
179.204;000.153;68;000.359;MIDI 01
178.390;000.990;44;000.484;MIDI 01
179.196;000.196;56;000.359;MIDI 01
179.194;000.396;51;000.469;MIDI 01
179.610;000.113;56;000.328;MIDI 01
179.617;000.115;68;000.352;MIDI 01
179.218;000.726;63;000.336;MIDI 01
179.217;000.770;42;000.375;MIDI 01
179.970;000.110;68;000.266;MIDI 01
179.992;000.091;56;000.102;MIDI 01
179.961;000.426;49;000.391;MIDI 01
179.974;000.458;40;000.328;MIDI 01
180.364;000.076;68;000.320;MIDI 01
180.350;000.097;56;000.352;MIDI 01
180.775;000.078;56;000.258;MIDI 01
180.764;000.126;68;000.328;MIDI 01
180.731;000.453;40;000.398;MIDI 01
181.095;000.168;68;000.438;MIDI 01
181.105;000.203;56;000.422;MIDI 01
180.733;000.717;49;000.453;MIDI 01
179.986;001.560;61;000.320;MIDI 01
181.534;000.126;68;000.328;MIDI 01
181.524;000.149;56;000.367;MIDI 01
181.471;000.508;51;000.562;MIDI 01
181.864;000.136;56;000.477;MIDI 01
181.866;000.179;68;000.508;MIDI 01
181.515;000.693;63;000.391;MIDI 01
181.490;000.795;44;000.477;MIDI 01
182.246;000.134;68;000.516;MIDI 01
182.251;000.188;56;000.516;MIDI 01
182.241;000.363;52;000.562;MIDI 01
182.626;000.126;68;000.570;MIDI 01
182.627;000.132;56;000.531;MIDI 01
182.244;000.753;49;000.508;MIDI 01
182.249;000.797;64;000.492;MIDI 01
183.004;000.200;68;000.609;MIDI 01
183.002;000.233;51;000.562;MIDI 01
183.005;000.241;56;000.578;MIDI 01
183.016;000.384;44;000.547;MIDI 01
183.431;000.181;68;000.641;MIDI 01
183.429;000.190;56;000.609;MIDI 01
183.007;000.625;63;000.547;MIDI 01
183.660;000.053;32;000.680;MIDI 01
184.019;000.215;56;000.641;MIDI 01
184.015;000.239;68;000.656;MIDI 01
184.552;000.109;56;000.555;MIDI 01
184.547;000.156;68;000.586;MIDI 01
184.920;000.143;56;000.594;MIDI 01
184.914;000.192;68;000.586;MIDI 01
185.331;000.101;56;000.602;MIDI 01
185.329;000.146;68;000.594;MIDI 01
185.716;000.129;56;000.617;MIDI 01
185.714;000.156;68;000.617;MIDI 01
184.012;002.017;51;000.633;MIDI 01
186.105;000.142;56;000.609;MIDI 01
186.098;000.189;68;000.625;MIDI 01
184.017;002.446;44;000.578;MIDI 01
186.507;000.149;56;000.625;MIDI 01
186.506;000.151;68;000.594;MIDI 01
186.904;000.109;56;000.664;MIDI 01
184.021;003.002;63;000.578;MIDI 01
186.900;000.161;68;000.641;MIDI 01
187.424;000.246;71;000.656;MIDI 01
187.430;000.265;59;000.648;MIDI 01
187.914;000.140;59;000.570;MIDI 01
187.921;000.163;71;000.594;MIDI 01
187.428;000.883;40;000.602;MIDI 01
187.422;000.904;28;000.586;MIDI 01
188.308;000.135;59;000.578;MIDI 01
188.306;000.176;71;000.609;MIDI 01
187.434;001.328;64;000.594;MIDI 01
188.685;000.103;59;000.656;MIDI 01
188.680;000.120;71;000.625;MIDI 01
187.426;001.386;68;000.570;MIDI 01
189.092;000.228;71;000.688;MIDI 01
189.094;000.245;59;000.664;MIDI 01
189.085;000.555;47;000.664;MIDI 01
189.083;000.603;35;000.656;MIDI 01
189.551;000.139;71;000.609;MIDI 01
189.547;000.162;59;000.555;MIDI 01
189.939;000.123;59;000.602;MIDI 01
189.941;000.153;71;000.641;MIDI 01
190.301;000.084;59;000.656;MIDI 01
190.308;000.091;71;000.648;MIDI 01
189.095;001.309;63;000.641;MIDI 01
189.097;001.342;68;000.602;MIDI 01
190.730;000.211;71;000.727;MIDI 01
190.726;000.248;59;000.711;MIDI 01
191.125;000.130;59;000.609;MIDI 01
191.123;000.134;71;000.609;MIDI 01
190.724;000.655;40;000.680;MIDI 01
190.720;000.699;28;000.641;MIDI 01
191.503;000.185;71;000.664;MIDI 01
191.501;000.190;59;000.680;MIDI 01
191.912;000.073;59;000.609;MIDI 01
191.915;000.120;71;000.625;MIDI 01
190.736;001.320;64;000.625;MIDI 01
190.728;001.349;68;000.562;MIDI 01
192.336;000.223;59;000.680;MIDI 01
192.334;000.280;71;000.695;MIDI 01
192.791;000.123;59;000.648;MIDI 01
192.790;000.166;71;000.617;MIDI 01
192.339;000.804;47;000.641;MIDI 01
192.332;000.830;35;000.633;MIDI 01
193.132;000.137;59;000.648;MIDI 01
193.130;000.171;71;000.656;MIDI 01
193.507;000.125;46;000.703;MIDI 01
193.505;000.137;59;000.711;MIDI 01
193.511;000.156;34;000.641;MIDI 01
193.509;000.185;71;000.711;MIDI 01
192.340;001.408;63;000.633;MIDI 01
192.343;001.411;68;000.633;MIDI 01
194.036;000.310;71;000.719;MIDI 01
194.034;000.325;59;000.695;MIDI 01
194.592;000.159;59;000.602;MIDI 01
194.595;000.171;71;000.625;MIDI 01
194.041;000.887;44;000.648;MIDI 01
194.039;000.936;32;000.625;MIDI 01
195.006;000.147;71;000.672;MIDI 01
195.002;000.157;59;000.672;MIDI 01
195.371;000.109;59;000.688;MIDI 01
195.373;000.118;71;000.664;MIDI 01
194.044;001.451;68;000.656;MIDI 01
194.042;001.459;63;000.641;MIDI 01
195.771;000.237;71;000.711;MIDI 01
195.773;000.260;59;000.695;MIDI 01
195.765;000.383;51;000.680;MIDI 01
196.190;000.184;71;000.617;MIDI 01
195.767;000.613;39;000.672;MIDI 01
196.192;000.189;59;000.633;MIDI 01
196.578;000.164;59;000.633;MIDI 01
196.583;000.176;71;000.625;MIDI 01
196.928;000.033;59;000.633;MIDI 01
196.924;000.142;71;000.656;MIDI 01
195.775;001.298;67;000.641;MIDI 01
195.778;001.307;63;000.641;MIDI 01
197.393;000.134;59;000.680;MIDI 01
197.404;000.166;44;000.609;MIDI 01
197.400;000.179;63;000.617;MIDI 01
197.395;000.213;71;000.664;MIDI 01
197.402;000.218;68;000.602;MIDI 01
197.398;000.228;32;000.562;MIDI 01
197.842;000.058;68;000.445;MIDI 01
198.253;000.092;68;000.336;MIDI 01
198.616;000.096;68;000.297;MIDI 01
199.021;000.073;68;000.406;MIDI 01
199.417;000.071;68;000.305;MIDI 01
199.791;000.053;68;000.312;MIDI 01
200.226;000.047;68;000.297;MIDI 01
200.890;000.267;68;000.227;MIDI 01
200.854;000.334;44;000.195;MIDI 01
201.375;000.130;68;000.188;MIDI 01
201.773;000.162;68;000.188;MIDI 01
200.848;001.243;54;000.180;MIDI 01
200.849;001.367;42;000.188;MIDI 01
200.840;001.417;72;000.344;MIDI 01
200.866;001.406;60;000.148;MIDI 01
202.153;000.141;68;000.250;MIDI 01
202.650;000.222;68;000.281;MIDI 01
202.654;000.295;40;000.211;MIDI 01
202.661;000.291;52;000.266;MIDI 01
203.076;000.060;68;000.289;MIDI 01
202.641;000.787;44;000.250;MIDI 01
203.435;000.155;68;000.328;MIDI 01
203.452;000.232;49;000.297;MIDI 01
203.442;000.374;37;000.266;MIDI 01
202.611;001.276;73;000.422;MIDI 01
202.617;001.304;61;000.328;MIDI 01
203.826;000.097;68;000.336;MIDI 01
204.379;000.302;68;000.289;MIDI 01
204.908;000.102;68;000.281;MIDI 01
205.318;000.085;68;000.297;MIDI 01
205.694;000.108;68;000.242;MIDI 01
204.390;001.443;44;000.242;MIDI 01
204.381;001.458;32;000.273;MIDI 01
206.102;000.089;68;000.266;MIDI 01
206.486;000.074;68;000.305;MIDI 01
204.354;002.228;75;000.383;MIDI 01
204.395;002.219;73;000.336;MIDI 01
204.379;002.241;63;000.250;MIDI 01
207.014;000.079;68;000.109;MIDI 01
206.972;000.421;56;000.250;MIDI 01
206.961;000.442;72;000.312;MIDI 01
206.940;000.499;75;000.383;MIDI 01
206.956;000.507;63;000.281;MIDI 01
207.403;000.088;68;000.281;MIDI 01
207.936;000.081;68;000.039;MIDI 01
206.938;001.097;44;000.258;MIDI 01
207.891;000.503;75;000.344;MIDI 01
207.877;000.573;76;000.367;MIDI 01
208.377;000.090;68;000.328;MIDI 01
207.901;000.570;64;000.156;MIDI 01
208.799;000.071;68;000.102;MIDI 01
207.885;001.100;56;000.258;MIDI 01
208.779;000.289;64;000.219;MIDI 01
208.766;000.325;76;000.383;MIDI 01
208.777;000.399;73;000.336;MIDI 01
209.199;000.076;68;000.109;MIDI 01
207.915;001.591;49;000.227;MIDI 01
209.597;000.234;68;000.219;MIDI 01
209.985;000.082;68;000.414;MIDI 01
209.589;000.489;73;000.336;MIDI 01
209.569;000.544;75;000.375;MIDI 01
209.578;000.542;63;000.281;MIDI 01
210.455;000.075;68;000.234;MIDI 01
210.435;000.489;72;000.375;MIDI 01
210.426;000.531;75;000.398;MIDI 01
210.886;000.110;68;000.289;MIDI 01
210.433;000.576;63;000.312;MIDI 01
209.571;001.455;44;000.297;MIDI 01
209.601;001.474;56;000.258;MIDI 01
211.529;000.220;68;000.250;MIDI 01
211.984;000.149;68;000.211;MIDI 01
212.389;000.110;66;000.266;MIDI 01
211.546;001.250;57;000.156;MIDI 01
212.790;000.050;66;000.188;MIDI 01
211.518;001.655;45;000.195;MIDI 01
213.225;000.104;68;000.242;MIDI 01
213.229;000.356;56;000.234;MIDI 01
213.581;000.120;68;000.320;MIDI 01
211.510;002.267;73;000.281;MIDI 01
213.211;000.710;44;000.297;MIDI 01
213.979;000.156;69;000.359;MIDI 01
214.018;000.214;54;000.109;MIDI 01
214.377;000.055;69;000.375;MIDI 01
211.533;002.945;61;000.164;MIDI 01
213.965;000.910;42;000.281;MIDI 01
214.965;000.252;56;000.125;MIDI 01
215.419;000.096;56;000.281;MIDI 01
215.771;000.158;56;000.266;MIDI 01
214.923;001.268;44;000.242;MIDI 01
214.969;001.224;60;000.148;MIDI 01
214.919;001.297;68;000.312;MIDI 01
214.918;001.299;63;000.305;MIDI 01
216.135;000.097;56;000.289;MIDI 01
216.598;000.178;56;000.180;MIDI 01
216.967;000.090;56;000.359;MIDI 01
216.577;000.496;64;000.312;MIDI 01
216.643;000.435;61;000.203;MIDI 01
216.596;000.514;68;000.227;MIDI 01
217.366;000.183;56;000.312;MIDI 01
217.376;000.180;58;000.117;MIDI 01
216.584;001.032;44;000.219;MIDI 01
217.286;000.400;61;000.328;MIDI 01
217.297;000.438;68;000.328;MIDI 01
217.702;000.093;56;000.281;MIDI 01
216.614;001.427;37;000.195;MIDI 01
218.113;000.159;56;000.242;MIDI 01
218.115;000.314;44;000.266;MIDI 01
218.149;000.393;60;000.234;MIDI 01
218.123;000.440;63;000.258;MIDI 01
218.518;000.100;56;000.352;MIDI 01
218.117;000.581;68;000.312;MIDI 01
218.110;000.839;32;000.273;MIDI 01
218.947;000.180;56;000.250;MIDI 01
219.346;000.113;56;000.250;MIDI 01
218.923;000.541;68;000.336;MIDI 01
218.944;000.524;64;000.352;MIDI 01
218.949;000.549;61;000.273;MIDI 01
219.732;000.156;56;000.297;MIDI 01
219.730;000.182;58;000.219;MIDI 01
219.699;000.341;61;000.305;MIDI 01
220.051;000.071;56;000.336;MIDI 01
219.686;000.455;68;000.352;MIDI 01
220.401;000.205;56;000.328;MIDI 01
220.422;000.374;64;000.320;MIDI 01
220.760;000.059;56;000.336;MIDI 01
218.928;001.893;44;000.273;MIDI 01
220.443;000.381;61;000.297;MIDI 01
220.419;000.410;68;000.320;MIDI 01
218.945;001.909;37;000.242;MIDI 01
221.287;000.073;56;000.094;MIDI 01
221.260;000.365;44;000.219;MIDI 01
221.257;000.426;64;000.352;MIDI 01
221.292;000.428;61;000.273;MIDI 01
221.693;000.087;56;000.289;MIDI 01
221.254;000.553;68;000.391;MIDI 01
221.258;000.761;37;000.188;MIDI 01
222.139;000.325;60;000.195;MIDI 01
222.114;000.372;63;000.297;MIDI 01
222.481;000.064;56;000.242;MIDI 01
222.110;000.446;68;000.273;MIDI 01
222.849;000.196;56;000.258;MIDI 01
222.090;001.136;44;000.281;MIDI 01
222.847;000.435;63;000.344;MIDI 01
223.203;000.133;56;000.344;MIDI 01
222.812;000.529;66;000.438;MIDI 01
222.843;000.527;68;000.367;MIDI 01
222.103;001.597;32;000.250;MIDI 01
223.593;000.183;56;000.312;MIDI 01
223.570;000.321;44;000.328;MIDI 01
223.595;000.430;64;000.414;MIDI 01
223.608;000.441;61;000.383;MIDI 01
223.582;000.517;68;000.375;MIDI 01
223.995;000.109;56;000.312;MIDI 01
223.603;000.807;37;000.320;MIDI 01
224.520;000.244;56;000.172;MIDI 01
224.518;000.441;68;000.289;MIDI 01
224.566;000.409;60;000.062;MIDI 01
224.940;000.056;56;000.305;MIDI 01
224.516;000.494;63;000.258;MIDI 01
224.507;000.721;44;000.250;MIDI 01
224.509;000.760;32;000.227;MIDI 01
225.667;000.100;56;000.180;MIDI 01
226.084;000.068;56;000.156;MIDI 01
226.471;000.057;56;000.227;MIDI 01
226.891;000.070;56;000.234;MIDI 01
227.318;000.042;56;000.250;MIDI 01
227.971;000.234;68;000.281;MIDI 01
227.982;000.229;44;000.227;MIDI 01
228.451;000.097;68;000.195;MIDI 01
228.421;000.202;44;000.203;MIDI 01
228.821;000.136;68;000.227;MIDI 01
228.805;000.198;44;000.289;MIDI 01
227.969;001.308;54;000.203;MIDI 01
227.916;001.392;72;000.344;MIDI 01
227.961;001.370;60;000.250;MIDI 01
227.967;001.372;42;000.133;MIDI 01
229.170;000.185;68;000.359;MIDI 01
229.194;000.206;44;000.273;MIDI 01
229.599;000.176;68;000.445;MIDI 01
229.621;000.268;52;000.367;MIDI 01
229.617;000.330;40;000.406;MIDI 01
230.022;000.120;68;000.414;MIDI 01
229.603;000.896;44;000.406;MIDI 01
230.351;000.207;49;000.484;MIDI 01
230.341;000.229;68;000.523;MIDI 01
230.354;000.356;37;000.445;MIDI 01
229.588;001.193;61;000.477;MIDI 01
229.577;001.218;73;000.539;MIDI 01
230.730;000.123;68;000.594;MIDI 01
231.198;000.369;68;000.523;MIDI 01
231.733;000.059;68;000.422;MIDI 01
232.098;000.115;68;000.438;MIDI 01
232.450;000.169;68;000.469;MIDI 01
232.843;000.206;68;000.516;MIDI 01
231.195;002.149;63;000.531;MIDI 01
231.181;002.167;75;000.617;MIDI 01
231.204;002.145;73;000.578;MIDI 01
233.231;000.141;68;000.492;MIDI 01
233.732;000.057;68;000.172;MIDI 01
231.206;002.876;44;000.477;MIDI 01
233.703;000.381;72;000.383;MIDI 01
233.688;000.418;63;000.344;MIDI 01
233.676;000.469;75;000.344;MIDI 01
234.093;000.055;68;000.406;MIDI 01
234.558;000.092;68;000.234;MIDI 01
231.210;003.462;32;000.453;MIDI 01
234.517;000.619;75;000.438;MIDI 01
234.500;000.683;76;000.430;MIDI 01
234.520;000.668;64;000.344;MIDI 01
234.961;000.242;68;000.375;MIDI 01
235.354;000.159;68;000.500;MIDI 01
234.502;001.068;44;000.297;MIDI 01
234.529;001.084;37;000.289;MIDI 01
235.323;000.435;76;000.648;MIDI 01
235.326;000.456;64;000.516;MIDI 01
235.328;000.543;73;000.516;MIDI 01
235.706;000.308;68;000.516;MIDI 01
236.119;000.242;68;000.555;MIDI 01
236.115;000.599;75;000.617;MIDI 01
236.120;000.602;63;000.602;MIDI 01
236.118;000.627;73;000.547;MIDI 01
236.550;000.231;68;000.516;MIDI 01
236.113;000.969;56;000.523;MIDI 01
236.978;000.127;68;000.406;MIDI 01
236.102;001.053;44;000.516;MIDI 01
236.968;000.530;75;000.523;MIDI 01
236.973;000.562;72;000.453;MIDI 01
236.965;000.590;63;000.500;MIDI 01
237.438;000.227;68;000.492;MIDI 01
237.952;000.399;61;000.648;MIDI 01
238.530;000.124;61;000.508;MIDI 01
238.915;000.140;61;000.523;MIDI 01
237.957;001.285;53;000.586;MIDI 01
237.955;001.304;41;000.594;MIDI 01
237.961;001.411;68;000.586;MIDI 01
239.289;000.125;61;000.516;MIDI 01
237.963;001.453;71;000.570;MIDI 01
237.950;001.483;73;000.641;MIDI 01
239.727;000.254;61;000.594;MIDI 01
239.728;000.537;68;000.516;MIDI 01
239.723;000.648;73;000.609;MIDI 01
240.131;000.260;61;000.508;MIDI 01
239.730;000.704;69;000.562;MIDI 01
240.546;000.219;61;000.648;MIDI 01
239.729;001.081;54;000.484;MIDI 01
239.725;001.188;42;000.445;MIDI 01
240.545;000.473;73;000.617;MIDI 01
240.565;000.456;69;000.570;MIDI 01
240.553;000.485;66;000.586;MIDI 01
240.951;000.124;61;000.500;MIDI 01
241.478;000.191;56;000.344;MIDI 01
241.878;000.096;56;000.312;MIDI 01
242.256;000.086;56;000.336;MIDI 01
241.474;000.934;48;000.367;MIDI 01
241.480;001.200;63;000.344;MIDI 01
241.506;001.228;66;000.320;MIDI 01
242.657;000.095;56;000.359;MIDI 01
241.460;001.349;68;000.500;MIDI 01
241.466;001.444;36;000.383;MIDI 01
243.109;000.181;56;000.289;MIDI 01
243.103;000.448;68;000.359;MIDI 01
243.124;000.474;66;000.320;MIDI 01
243.126;000.523;61;000.328;MIDI 01
243.512;000.192;56;000.383;MIDI 01
243.111;000.879;49;000.320;MIDI 01
243.861;000.169;56;000.453;MIDI 01
243.120;001.124;37;000.281;MIDI 01
243.866;000.403;70;000.555;MIDI 01
243.891;000.471;64;000.469;MIDI 01
243.867;000.506;61;000.352;MIDI 01
244.322;000.056;56;000.477;MIDI 01
244.760;000.208;56;000.438;MIDI 01
244.736;000.307;70;000.562;MIDI 01
245.194;000.106;56;000.312;MIDI 01
244.762;000.738;61;000.445;MIDI 01
245.565;000.103;56;000.312;MIDI 01
244.758;001.282;64;000.492;MIDI 01
245.972;000.104;56;000.266;MIDI 01
246.421;000.166;56;000.203;MIDI 01
246.447;000.378;60;000.203;MIDI 01
244.762;002.079;44;000.352;MIDI 01
246.418;000.429;68;000.266;MIDI 01
246.422;000.441;63;000.234;MIDI 01
246.794;000.092;56;000.266;MIDI 01
244.756;002.590;32;000.375;MIDI 01
247.211;000.158;56;000.328;MIDI 01
247.189;000.281;70;000.469;MIDI 01
247.178;000.316;44;000.289;MIDI 01
247.640;000.045;56;000.211;MIDI 01
247.232;000.551;61;000.297;MIDI 01
247.242;000.557;64;000.328;MIDI 01
247.225;000.935;37;000.281;MIDI 01
248.096;000.259;56;000.406;MIDI 01
248.097;000.311;70;000.516;MIDI 01
248.573;000.086;56;000.305;MIDI 01
248.126;000.798;61;000.406;MIDI 01
248.945;000.077;56;000.258;MIDI 01
248.118;001.267;64;000.383;MIDI 01
249.344;000.073;56;000.320;MIDI 01
249.801;000.186;56;000.102;MIDI 01
248.107;002.062;44;000.320;MIDI 01
249.829;000.405;60;000.125;MIDI 01
249.799;000.469;63;000.266;MIDI 01
249.787;000.492;68;000.266;MIDI 01
250.204;000.081;56;000.211;MIDI 01
248.108;002.632;32;000.375;MIDI 01
250.646;000.152;56;000.352;MIDI 01
250.630;000.275;44;000.273;MIDI 01
250.639;000.300;70;000.461;MIDI 01
250.662;000.419;64;000.328;MIDI 01
250.677;000.421;61;000.328;MIDI 01
251.062;000.058;56;000.320;MIDI 01
250.668;000.928;37;000.219;MIDI 01
251.615;000.209;56;000.234;MIDI 01
251.586;000.384;70;000.453;MIDI 01
251.613;000.506;44;000.281;MIDI 01
251.614;000.536;64;000.375;MIDI 01
251.617;000.556;61;000.312;MIDI 01
252.132;000.056;56;000.234;MIDI 01
252.534;000.526;44;000.242;MIDI 01
252.555;000.527;68;000.242;MIDI 01
251.611;001.497;32;000.328;MIDI 01
252.585;000.525;63;000.242;MIDI 01
253.055;000.068;56;000.234;MIDI 01
253.568;000.090;56;000.258;MIDI 01
254.158;000.214;56;000.250;MIDI 01
254.172;000.732;53;000.203;MIDI 01
254.844;000.382;56;000.211;MIDI 01
254.877;000.848;54;000.289;MIDI 01
255.627;000.399;56;000.281;MIDI 01
255.660;001.200;51;000.250;MIDI 01
256.808;000.741;49;000.266;MIDI 01
256.800;001.004;77;000.406;MIDI 01
257.724;000.328;73;000.375;MIDI 01
257.540;000.540;56;000.188;MIDI 01
258.524;000.098;56;000.211;MIDI 01
258.908;000.077;56;000.195;MIDI 01
259.302;000.175;56;000.258;MIDI 01
258.029;001.811;68;000.336;MIDI 01
258.073;001.770;61;000.273;MIDI 01
259.701;000.200;56;000.211;MIDI 01
258.056;002.107;65;000.258;MIDI 01
259.724;000.960;70;000.359;MIDI 01
260.116;000.766;56;000.281;MIDI 01
261.081;000.192;56;000.211;MIDI 01
261.470;000.147;56;000.289;MIDI 01
261.850;000.516;56;000.328;MIDI 01
260.653;002.157;63;000.242;MIDI 01
260.703;002.123;66;000.125;MIDI 01
260.631;002.614;72;000.359;MIDI 01
262.686;000.602;56;000.219;MIDI 01
262.265;001.103;58;000.281;MIDI 01
263.165;000.420;65;000.258;MIDI 01
263.151;000.483;61;000.281;MIDI 01
263.141;000.893;73;000.367;MIDI 01
263.536;000.631;56;000.234;MIDI 01
263.978;000.456;66;000.273;MIDI 01
263.948;000.717;75;000.414;MIDI 01
264.649;000.326;68;000.312;MIDI 01
264.611;000.373;77;000.445;MIDI 01
264.402;000.686;56;000.141;MIDI 01
265.403;000.173;56;000.102;MIDI 01
265.802;000.090;56;000.211;MIDI 01
264.961;001.294;70;000.312;MIDI 01
264.016;002.591;60;000.203;MIDI 01
264.979;001.740;78;000.453;MIDI 01
266.206;000.572;56;000.266;MIDI 01
266.652;000.447;77;000.383;MIDI 01
266.691;000.430;68;000.172;MIDI 01
266.693;000.480;61;000.258;MIDI 01
267.092;000.653;56;000.242;MIDI 01
267.552;000.422;68;000.289;MIDI 01
268.000;000.461;56;000.180;MIDI 01
268.373;000.449;66;000.242;MIDI 01
267.581;001.261;60;000.250;MIDI 01
267.533;001.344;77;000.438;MIDI 01
268.806;000.485;75;000.359;MIDI 01
268.791;000.551;56;000.266;MIDI 01
269.290;000.564;65;000.266;MIDI 01
269.315;000.551;61;000.227;MIDI 01
269.267;000.655;73;000.367;MIDI 01
270.003;000.052;74;000.383;MIDI 01
269.738;000.690;56;000.258;MIDI 01
270.417;000.131;75;000.297;MIDI 01
270.620;000.067;77;000.305;MIDI 01
270.733;000.068;75;000.398;MIDI 01
270.861;000.117;74;000.406;MIDI 01
271.004;000.104;75;000.383;MIDI 01
270.394;000.768;66;000.227;MIDI 01
270.432;000.768;60;000.227;MIDI 01
271.141;000.183;76;000.445;MIDI 01
271.299;000.094;77;000.391;MIDI 01
271.090;000.471;56;000.320;MIDI 01
271.449;000.193;80;000.430;MIDI 01
271.672;000.196;79;000.375;MIDI 01
271.942;000.044;78;000.336;MIDI 01
272.402;000.173;49;000.273;MIDI 01
272.579;000.403;49;000.023;MIDI 01
272.394;000.804;77;000.398;MIDI 01
273.003;000.520;56;000.195;MIDI 01
273.210;000.327;73;000.352;MIDI 01
274.003;000.090;56;000.164;MIDI 01
274.379;000.077;56;000.078;MIDI 01
274.765;000.117;56;000.219;MIDI 01
275.208;000.077;56;000.258;MIDI 01
273.540;001.758;68;000.336;MIDI 01
273.568;002.149;65;000.195;MIDI 01
273.538;002.182;61;000.250;MIDI 01
275.194;001.094;70;000.352;MIDI 01
275.633;000.891;56;000.352;MIDI 01
276.773;000.169;56;000.156;MIDI 01
277.181;000.206;56;000.188;MIDI 01
277.591;000.651;56;000.227;MIDI 01
278.137;000.865;58;000.211;MIDI 01
276.254;002.854;63;000.250;MIDI 01
278.795;000.348;56;000.227;MIDI 01
276.264;002.890;66;000.234;MIDI 01
276.251;003.250;72;000.375;MIDI 01
280.451;002.910;82;000.570;MIDI 01
283.218;001.174;80;000.469;MIDI 01
284.238;001.097;78;000.461;MIDI 01
285.131;001.212;72;000.422;MIDI 01
286.168;001.034;77;000.453;MIDI 01
287.016;001.158;75;000.430;MIDI 01
287.981;001.218;73;000.359;MIDI 01
289.089;000.688;70;000.273;MIDI 01
290.708;000.281;56;000.125;MIDI 01
291.243;000.192;56;000.102;MIDI 01
291.672;000.190;56;000.195;MIDI 01
292.082;000.159;56;000.211;MIDI 01
290.693;001.854;63;000.180;MIDI 01
292.542;000.144;56;000.070;MIDI 01
290.689;002.147;58;000.094;MIDI 01
293.018;000.098;56;000.148;MIDI 01
293.491;000.087;56;000.180;MIDI 01
293.948;000.073;56;000.188;MIDI 01
290.676;003.364;44;000.195;MIDI 01
292.546;001.561;60;000.297;MIDI 01
290.663;003.458;66;000.234;MIDI 01
294.466;000.261;56;000.094;MIDI 01
294.914;000.076;56;000.258;MIDI 01
295.323;000.115;56;000.203;MIDI 01
295.706;000.097;56;000.141;MIDI 01
294.423;001.682;61;000.219;MIDI 01
296.159;000.074;56;000.109;MIDI 01
296.556;000.154;56;000.125;MIDI 01
294.411;002.724;65;000.305;MIDI 01
296.523;000.645;61;000.297;MIDI 01
297.026;000.190;56;000.047;MIDI 01
297.442;000.223;56;000.234;MIDI 01
297.003;000.690;63;000.359;MIDI 01
294.468;003.234;49;000.188;MIDI 01
297.671;000.072;61;000.375;MIDI 01
298.061;000.180;56;000.062;MIDI 01
298.441;000.191;56;000.203;MIDI 01
298.018;000.811;61;000.266;MIDI 01
298.818;000.193;56;000.297;MIDI 01
299.212;000.155;56;000.320;MIDI 01
299.601;000.177;56;000.258;MIDI 01
298.829;001.271;60;000.375;MIDI 01
300.060;000.267;56;000.234;MIDI 01
300.507;000.064;56;000.320;MIDI 01
300.450;000.515;60;000.375;MIDI 01
299.635;001.342;70;000.516;MIDI 01
298.027;002.977;63;000.281;MIDI 01
300.913;000.130;56;000.320;MIDI 01
298.016;003.033;66;000.328;MIDI 01
298.066;003.022;44;000.078;MIDI 01
301.530;000.232;56;000.188;MIDI 01
301.969;000.140;56;000.242;MIDI 01
302.384;000.146;56;000.172;MIDI 01
302.771;000.167;56;000.219;MIDI 01
303.184;000.149;56;000.172;MIDI 01
303.598;000.139;56;000.195;MIDI 01
304.049;000.152;56;000.164;MIDI 01
301.529;002.892;60;000.219;MIDI 01
301.523;002.934;66;000.297;MIDI 01
301.543;002.956;63;000.195;MIDI 01
304.499;000.071;56;000.070;MIDI 01
301.494;003.173;44;000.211;MIDI 01
305.564;000.108;56;000.289;MIDI 01
306.017;000.079;56;000.234;MIDI 01
306.469;000.093;56;000.250;MIDI 01
305.098;001.884;49;000.219;MIDI 01
307.000;000.139;56;000.242;MIDI 01
307.571;000.147;56;000.203;MIDI 01
305.080;002.812;61;000.219;MIDI 01
308.119;000.146;56;000.180;MIDI 01
306.998;002.028;44;000.242;MIDI 01
308.886;000.279;56;000.234;MIDI 01
305.087;004.129;65;000.320;MIDI 01
310.238;006.639;65;000.180;MIDI 01
310.247;006.641;56;000.172;MIDI 01
310.250;006.697;61;000.258;MIDI 01
310.252;006.697;37;000.125;MIDI 01
