Start;Duration;Pitch;Velocity;Instrument
000.278;000.140;56;000.617;MIDI 01
000.264;000.161;68;000.586;MIDI 01
000.261;000.193;80;000.617;MIDI 01
000.375;000.162;78;000.578;MIDI 01
000.462;000.080;76;000.562;MIDI 01
000.287;000.320;44;000.570;MIDI 01
000.549;000.071;75;000.570;MIDI 01
000.662;000.047;37;000.656;MIDI 01
000.660;000.065;49;000.703;MIDI 01
000.635;000.104;73;000.562;MIDI 01
000.653;000.128;85;000.672;MIDI 01
000.754;000.054;75;000.570;MIDI 01
000.827;000.080;72;000.508;MIDI 01
000.967;000.146;73;000.391;MIDI 01
001.092;000.053;69;000.188;MIDI 01
001.077;000.070;66;000.336;MIDI 01
001.056;000.093;75;000.484;MIDI 01
001.145;000.084;76;000.445;MIDI 01
001.229;000.103;73;000.352;MIDI 01
001.321;000.137;75;000.469;MIDI 01
001.418;000.079;64;000.344;MIDI 01
001.400;000.099;76;000.516;MIDI 01
001.404;000.110;68;000.352;MIDI 01
001.502;000.083;78;000.469;MIDI 01
001.573;000.076;75;000.484;MIDI 01
001.670;000.102;76;000.484;MIDI 01
001.772;000.091;66;000.344;MIDI 01
001.755;000.110;78;000.500;MIDI 01
001.769;000.136;63;000.328;MIDI 01
001.848;000.120;80;000.461;MIDI 01
001.942;000.091;76;000.422;MIDI 01
002.030;000.125;78;000.500;MIDI 01
002.136;000.074;61;000.398;MIDI 01
002.126;000.087;80;000.547;MIDI 01
002.134;000.097;64;000.391;MIDI 01
002.231;000.030;81;000.438;MIDI 01
002.304;000.130;80;000.508;MIDI 01
002.427;000.067;85;000.469;MIDI 01
002.491;000.092;78;000.484;MIDI 01
002.509;000.083;66;000.469;MIDI 01
002.530;000.094;57;000.352;MIDI 01
002.519;000.105;61;000.406;MIDI 01
002.597;000.103;80;000.531;MIDI 01
002.690;000.120;78;000.477;MIDI 01
002.775;000.111;85;000.586;MIDI 01
002.878;000.073;76;000.539;MIDI 01
002.874;000.086;61;000.445;MIDI 01
002.872;000.108;64;000.492;MIDI 01
002.894;000.094;56;000.398;MIDI 01
002.980;000.081;78;000.570;MIDI 01
003.086;000.099;76;000.547;MIDI 01
003.171;000.093;85;000.539;MIDI 01
003.246;000.057;75;000.531;MIDI 01
003.249;000.059;54;000.414;MIDI 01
003.251;000.062;63;000.422;MIDI 01
003.253;000.071;61;000.438;MIDI 01
003.337;000.049;76;000.516;MIDI 01
003.442;000.045;75;000.516;MIDI 01
003.470;000.099;49;000.438;MIDI 01
003.558;000.091;56;000.461;MIDI 01
003.523;000.163;85;000.500;MIDI 01
003.648;000.051;64;000.547;MIDI 01
003.646;000.067;73;000.500;MIDI 01
003.739;000.049;80;000.469;MIDI 01
003.784;000.092;88;000.609;MIDI 01
003.874;000.085;44;000.531;MIDI 01
003.908;000.096;81;000.500;MIDI 01
003.989;000.059;72;000.562;MIDI 01
004.020;000.064;60;000.625;MIDI 01
003.951;000.157;54;000.531;MIDI 01
004.088;000.053;78;000.562;MIDI 01
004.149;000.091;87;000.594;MIDI 01
004.252;000.127;80;000.555;MIDI 01
004.367;000.065;61;000.648;MIDI 01
004.361;000.078;68;000.586;MIDI 01
004.369;000.123;52;000.516;MIDI 01
004.365;000.134;49;000.555;MIDI 01
004.469;000.054;76;000.594;MIDI 01
004.566;000.072;85;000.656;MIDI 01
004.676;000.101;78;000.523;MIDI 01
004.746;000.065;56;000.688;MIDI 01
004.748;000.072;68;000.680;MIDI 01
004.744;000.083;44;000.617;MIDI 01
004.857;000.075;75;000.617;MIDI 01
004.942;000.078;84;000.609;MIDI 01
005.026;000.087;76;000.633;MIDI 01
005.141;000.044;37;000.609;MIDI 01
005.140;000.059;49;000.711;MIDI 01
005.156;000.049;85;000.695;MIDI 01
005.148;000.059;73;000.688;MIDI 01
005.350;000.039;57;000.531;MIDI 01
005.343;000.048;45;000.555;MIDI 01
005.333;000.065;69;000.602;MIDI 01
005.433;000.045;81;000.547;MIDI 01
005.528;000.048;56;000.516;MIDI 01
005.532;000.051;44;000.484;MIDI 01
005.530;000.069;68;000.602;MIDI 01
005.620;000.044;80;000.492;MIDI 01
005.692;000.047;55;000.539;MIDI 01
005.695;000.051;43;000.531;MIDI 01
005.701;000.048;67;000.562;MIDI 01
005.799;000.043;79;000.547;MIDI 01
005.880;000.041;56;000.602;MIDI 01
005.884;000.059;68;000.570;MIDI 01
005.899;000.050;44;000.523;MIDI 01
005.982;000.025;80;000.516;MIDI 01
006.091;000.030;37;000.492;MIDI 01
006.081;000.053;49;000.648;MIDI 01
006.086;000.101;61;000.656;MIDI 01
006.170;000.084;73;000.594;MIDI 01
006.281;000.055;51;000.594;MIDI 01
006.294;000.110;67;000.555;MIDI 01
006.296;000.122;70;000.570;MIDI 01
006.298;000.130;75;000.695;MIDI 01
006.300;000.155;61;000.617;MIDI 01
006.390;000.068;49;000.547;MIDI 01
006.501;000.068;47;000.523;MIDI 01
006.289;000.310;39;000.594;MIDI 01
006.625;000.047;45;000.289;MIDI 01
006.729;000.032;71;000.414;MIDI 01
006.727;000.044;68;000.484;MIDI 01
006.720;000.058;59;000.477;MIDI 01
006.733;000.052;63;000.250;MIDI 01
006.699;000.115;44;000.492;MIDI 01
006.811;000.094;46;000.477;MIDI 01
006.902;000.099;43;000.492;MIDI 01
006.991;000.138;44;000.492;MIDI 01
007.088;000.086;46;000.477;MIDI 01
007.119;000.057;61;000.367;MIDI 01
007.128;000.052;63;000.375;MIDI 01
007.115;000.072;67;000.336;MIDI 01
007.223;000.049;47;000.367;MIDI 01
007.295;000.102;44;000.312;MIDI 01
007.353;000.141;46;000.422;MIDI 01
007.479;000.062;47;000.430;MIDI 01
007.500;000.055;63;000.391;MIDI 01
007.516;000.051;59;000.305;MIDI 01
007.494;000.103;68;000.477;MIDI 01
007.612;000.070;49;000.367;MIDI 01
007.673;000.085;46;000.461;MIDI 01
007.764;000.106;47;000.391;MIDI 01
007.886;000.069;49;000.414;MIDI 01
007.906;000.061;58;000.297;MIDI 01
007.891;000.104;68;000.438;MIDI 01
007.896;000.106;64;000.336;MIDI 01
007.955;000.107;51;000.359;MIDI 01
008.048;000.136;47;000.445;MIDI 01
008.159;000.103;49;000.430;MIDI 01
008.272;000.066;51;000.477;MIDI 01
008.274;000.082;63;000.453;MIDI 01
008.276;000.128;68;000.445;MIDI 01
008.377;000.031;52;000.422;MIDI 01
008.471;000.111;51;000.406;MIDI 01
008.550;000.098;56;000.492;MIDI 01
008.656;000.049;61;000.406;MIDI 01
008.654;000.066;64;000.445;MIDI 01
008.660;000.062;49;000.469;MIDI 01
008.632;000.118;68;000.461;MIDI 01
008.749;000.100;51;000.539;MIDI 01
008.849;000.111;49;000.445;MIDI 01
008.916;000.107;56;000.461;MIDI 01
009.029;000.053;47;000.406;MIDI 01
009.023;000.075;63;000.492;MIDI 01
009.008;000.144;68;000.523;MIDI 01
009.116;000.100;49;000.570;MIDI 01
009.225;000.108;47;000.461;MIDI 01
009.278;000.072;56;000.508;MIDI 01
009.390;000.057;46;000.516;MIDI 01
009.410;000.051;61;000.461;MIDI 01
009.402;000.061;63;000.508;MIDI 01
009.392;000.107;70;000.602;MIDI 01
009.491;000.093;47;000.461;MIDI 01
009.583;000.098;46;000.523;MIDI 01
009.658;000.065;55;000.422;MIDI 01
009.766;000.027;59;000.445;MIDI 01
009.769;000.045;63;000.531;MIDI 01
009.768;000.074;68;000.484;MIDI 01
009.771;000.073;71;000.547;MIDI 01
009.764;000.141;44;000.531;MIDI 01
009.883;000.095;52;000.508;MIDI 01
009.986;000.077;59;000.414;MIDI 01
010.086;000.111;51;000.453;MIDI 01
010.199;000.066;43;000.523;MIDI 01
010.264;000.144;52;000.461;MIDI 01
010.386;000.095;58;000.500;MIDI 01
010.170;000.423;87;000.633;MIDI 01
010.184;000.425;82;000.531;MIDI 01
010.189;000.432;75;000.562;MIDI 01
010.579;000.046;80;000.578;MIDI 01
010.567;000.065;83;000.570;MIDI 01
010.497;000.200;51;000.461;MIDI 01
010.586;000.116;44;000.539;MIDI 01
010.692;000.059;52;000.445;MIDI 01
010.779;000.074;59;000.555;MIDI 01
010.857;000.126;51;000.523;MIDI 01
010.973;000.078;43;000.570;MIDI 01
011.021;000.124;52;000.500;MIDI 01
011.182;000.046;58;000.547;MIDI 01
010.969;000.328;63;000.602;MIDI 01
010.961;000.349;75;000.664;MIDI 01
011.228;000.117;51;000.500;MIDI 01
011.365;000.040;44;000.492;MIDI 01
010.971;000.444;70;000.547;MIDI 01
011.372;000.046;56;000.578;MIDI 01
011.377;000.081;68;000.461;MIDI 01
011.365;000.099;71;000.586;MIDI 01
011.576;000.139;64;000.477;MIDI 01
011.691;000.076;67;000.406;MIDI 01
011.579;000.235;61;000.516;MIDI 01
011.752;000.095;63;000.469;MIDI 01
011.844;000.040;68;000.484;MIDI 01
011.786;000.101;59;000.453;MIDI 01
011.942;000.129;67;000.562;MIDI 01
011.946;000.209;64;000.531;MIDI 01
012.066;000.112;70;000.547;MIDI 01
012.146;000.076;66;000.578;MIDI 01
012.142;000.081;63;000.547;MIDI 01
012.222;000.040;71;000.539;MIDI 01
012.310;000.110;69;000.633;MIDI 01
012.424;000.081;72;000.578;MIDI 01
012.323;000.216;66;000.672;MIDI 01
012.515;000.066;64;000.609;MIDI 01
012.505;000.091;68;000.641;MIDI 01
012.605;000.047;73;000.578;MIDI 01
012.726;000.046;66;000.555;MIDI 01
012.722;000.074;63;000.508;MIDI 01
012.711;000.105;72;000.625;MIDI 01
012.725;000.104;56;000.508;MIDI 01
012.828;000.088;75;000.492;MIDI 01
012.952;000.084;73;000.523;MIDI 01
012.964;000.106;64;000.469;MIDI 01
012.969;000.112;61;000.492;MIDI 01
013.066;000.046;75;000.406;MIDI 01
013.127;000.072;72;000.438;MIDI 01
013.218;000.143;73;000.484;MIDI 01
013.325;000.079;75;000.359;MIDI 01
013.370;000.090;66;000.383;MIDI 01
013.374;000.088;69;000.375;MIDI 01
013.408;000.082;76;000.352;MIDI 01
013.501;000.099;73;000.336;MIDI 01
013.598;000.195;75;000.422;MIDI 01
013.704;000.115;76;000.477;MIDI 01
013.742;000.117;68;000.438;MIDI 01
013.751;000.121;64;000.398;MIDI 01
013.804;000.097;78;000.438;MIDI 01
013.929;000.047;75;000.445;MIDI 01
014.012;000.117;76;000.453;MIDI 01
014.123;000.110;66;000.391;MIDI 01
014.101;000.139;78;000.500;MIDI 01
014.127;000.160;63;000.352;MIDI 01
014.226;000.101;80;000.422;MIDI 01
014.301;000.126;76;000.477;MIDI 01
014.405;000.134;78;000.500;MIDI 01
014.514;000.083;80;000.500;MIDI 01
014.507;000.099;61;000.430;MIDI 01
014.505;000.125;64;000.445;MIDI 01
014.611;000.035;81;000.398;MIDI 01
014.683;000.136;80;000.508;MIDI 01
014.823;000.069;85;000.453;MIDI 01
014.867;000.101;78;000.516;MIDI 01
014.892;000.098;66;000.461;MIDI 01
014.897;000.095;57;000.414;MIDI 01
014.903;000.099;61;000.367;MIDI 01
014.981;000.111;80;000.523;MIDI 01
015.093;000.108;78;000.484;MIDI 01
015.177;000.095;85;000.539;MIDI 01
015.260;000.089;76;000.555;MIDI 01
015.257;000.104;61;000.453;MIDI 01
015.260;000.117;64;000.523;MIDI 01
015.272;000.130;56;000.422;MIDI 01
015.368;000.096;78;000.555;MIDI 01
015.489;000.081;76;000.445;MIDI 01
015.561;000.098;85;000.539;MIDI 01
015.635;000.042;75;000.492;MIDI 01
015.643;000.046;63;000.445;MIDI 01
015.624;000.067;54;000.484;MIDI 01
015.641;000.067;61;000.477;MIDI 01
015.713;000.046;76;000.508;MIDI 01
015.826;000.053;75;000.500;MIDI 01
015.863;000.093;49;000.484;MIDI 01
015.908;000.132;85;000.477;MIDI 01
015.944;000.116;56;000.500;MIDI 01
016.015;000.056;64;000.539;MIDI 01
016.024;000.069;73;000.547;MIDI 01
016.119;000.056;80;000.500;MIDI 01
016.172;000.097;88;000.602;MIDI 01
016.248;000.080;44;000.570;MIDI 01
016.289;000.101;81;000.516;MIDI 01
016.373;000.066;72;000.594;MIDI 01
016.387;000.064;60;000.633;MIDI 01
016.332;000.121;54;000.570;MIDI 01
016.484;000.056;78;000.516;MIDI 01
016.541;000.086;87;000.570;MIDI 01
016.599;000.100;45;000.562;MIDI 01
016.639;000.093;80;000.562;MIDI 01
016.665;000.094;52;000.477;MIDI 01
016.747;000.062;69;000.609;MIDI 01
016.771;000.062;61;000.711;MIDI 01
016.853;000.053;75;000.531;MIDI 01
016.921;000.076;85;000.672;MIDI 01
017.046;000.144;76;000.492;MIDI 01
017.129;000.095;68;000.641;MIDI 01
017.135;000.120;59;000.594;MIDI 01
017.131;000.134;62;000.672;MIDI 01
017.128;000.190;65;000.656;MIDI 01
017.243;000.095;73;000.562;MIDI 01
017.130;000.255;53;000.570;MIDI 01
017.335;000.086;83;000.633;MIDI 01
017.433;000.066;74;000.586;MIDI 01
017.551;000.036;66;000.609;MIDI 01
017.560;000.061;54;000.469;MIDI 01
017.545;000.079;57;000.484;MIDI 01
017.547;000.082;61;000.594;MIDI 01
017.525;000.116;69;000.602;MIDI 01
017.749;000.028;62;000.578;MIDI 01
017.655;000.127;73;000.523;MIDI 01
017.731;000.080;50;000.570;MIDI 01
017.723;000.123;81;000.531;MIDI 01
017.840;000.022;78;000.594;MIDI 01
017.927;000.047;61;000.625;MIDI 01
017.929;000.076;49;000.609;MIDI 01
017.959;000.048;78;000.164;MIDI 01
017.946;000.110;81;000.625;MIDI 01
018.048;000.095;85;000.586;MIDI 01
018.126;000.036;57;000.625;MIDI 01
018.123;000.070;45;000.672;MIDI 01
018.116;000.153;93;000.633;MIDI 01
018.207;000.129;90;000.656;MIDI 01
018.314;000.043;54;000.641;MIDI 01
018.319;000.042;85;000.562;MIDI 01
018.317;000.065;42;000.617;MIDI 01
018.386;000.032;81;000.539;MIDI 01
018.499;000.049;49;000.641;MIDI 01
018.496;000.072;37;000.641;MIDI 01
018.479;000.131;78;000.641;MIDI 01
018.595;000.069;73;000.625;MIDI 01
018.701;000.033;69;000.539;MIDI 01
018.789;000.131;66;000.586;MIDI 01
018.898;000.120;62;000.547;MIDI 01
019.016;000.076;57;000.531;MIDI 01
018.710;000.402;50;000.672;MIDI 01
018.708;000.623;38;000.664;MIDI 01
019.266;000.095;41;000.336;MIDI 01
019.401;000.107;42;000.398;MIDI 01
019.516;000.105;40;000.375;MIDI 01
019.585;000.113;41;000.414;MIDI 01
019.279;000.483;68;000.344;MIDI 01
019.690;000.097;42;000.445;MIDI 01
019.804;000.114;44;000.438;MIDI 01
019.883;000.109;41;000.484;MIDI 01
020.000;000.093;42;000.492;MIDI 01
019.667;000.471;66;000.391;MIDI 01
020.075;000.089;44;000.539;MIDI 01
019.283;000.911;59;000.320;MIDI 01
019.300;000.902;62;000.273;MIDI 01
020.181;000.117;45;000.477;MIDI 01
020.266;000.118;42;000.539;MIDI 01
020.070;000.364;65;000.477;MIDI 01
020.372;000.093;44;000.492;MIDI 01
020.464;000.077;45;000.555;MIDI 01
020.448;000.196;57;000.469;MIDI 01
020.571;000.080;47;000.477;MIDI 01
020.455;000.198;62;000.484;MIDI 01
020.441;000.249;66;000.523;MIDI 01
020.664;000.066;45;000.516;MIDI 01
020.760;000.065;47;000.383;MIDI 01
020.868;000.087;41;000.422;MIDI 01
020.980;000.111;42;000.445;MIDI 01
021.098;000.084;40;000.422;MIDI 01
021.177;000.119;41;000.453;MIDI 01
021.279;000.076;42;000.453;MIDI 01
021.385;000.084;44;000.445;MIDI 01
021.465;000.092;41;000.484;MIDI 01
020.866;000.770;68;000.430;MIDI 01
021.556;000.102;42;000.453;MIDI 01
020.870;000.815;62;000.328;MIDI 01
021.255;000.471;66;000.414;MIDI 01
021.667;000.080;44;000.562;MIDI 01
021.780;000.089;45;000.406;MIDI 01
021.843;000.137;42;000.562;MIDI 01
021.954;000.096;44;000.516;MIDI 01
021.626;000.439;65;000.523;MIDI 01
020.878;001.209;59;000.359;MIDI 01
022.044;000.083;45;000.586;MIDI 01
022.036;000.093;61;000.586;MIDI 01
022.033;000.128;66;000.562;MIDI 01
022.159;000.111;47;000.500;MIDI 01
022.260;000.107;45;000.539;MIDI 01
022.342;000.113;47;000.312;MIDI 01
022.473;000.062;48;000.477;MIDI 01
022.574;000.066;49;000.508;MIDI 01
022.655;000.083;47;000.477;MIDI 01
022.746;000.084;48;000.477;MIDI 01
022.843;000.075;49;000.555;MIDI 01
022.950;000.072;51;000.453;MIDI 01
023.017;000.106;48;000.531;MIDI 01
023.113;000.132;49;000.508;MIDI 01
022.845;000.432;73;000.508;MIDI 01
022.451;000.840;75;000.516;MIDI 01
023.225;000.100;51;000.555;MIDI 01
022.474;000.853;69;000.430;MIDI 01
022.476;000.921;66;000.328;MIDI 01
023.348;000.102;52;000.438;MIDI 01
023.220;000.324;72;000.547;MIDI 01
023.400;000.149;49;000.531;MIDI 01
023.515;000.130;51;000.492;MIDI 01
023.615;000.077;52;000.523;MIDI 01
023.610;000.099;64;000.477;MIDI 01
023.735;000.090;54;000.484;MIDI 01
023.814;000.123;51;000.516;MIDI 01
023.611;000.348;68;000.500;MIDI 01
023.894;000.119;52;000.484;MIDI 01
024.004;000.083;54;000.539;MIDI 01
024.099;000.100;56;000.461;MIDI 01
024.189;000.130;52;000.539;MIDI 01
023.990;000.384;69;000.562;MIDI 01
024.304;000.110;54;000.484;MIDI 01
023.595;000.826;73;000.562;MIDI 01
024.008;000.472;63;000.508;MIDI 01
024.401;000.081;56;000.562;MIDI 01
024.397;000.153;68;000.539;MIDI 01
024.497;000.092;57;000.547;MIDI 01
024.613;000.084;56;000.547;MIDI 01
024.686;000.055;54;000.562;MIDI 01
024.789;000.046;64;000.508;MIDI 01
024.393;000.479;72;000.602;MIDI 01
024.792;000.092;68;000.508;MIDI 01
024.784;000.127;52;000.547;MIDI 01
024.778;000.157;73;000.625;MIDI 01
024.910;000.097;51;000.508;MIDI 01
024.989;000.118;49;000.555;MIDI 01
025.090;000.037;47;000.484;MIDI 01
025.193;000.135;45;000.586;MIDI 01
025.182;000.227;85;000.727;MIDI 01
025.189;000.253;73;000.727;MIDI 01
025.326;000.148;44;000.508;MIDI 01
025.413;000.098;42;000.469;MIDI 01
025.520;000.111;40;000.531;MIDI 01
025.635;000.052;39;000.570;MIDI 01
025.599;000.107;67;000.500;MIDI 01
025.712;000.069;68;000.461;MIDI 01
025.804;000.073;65;000.469;MIDI 01
025.904;000.090;67;000.422;MIDI 01
025.998;000.086;68;000.430;MIDI 01
026.094;000.045;70;000.297;MIDI 01
026.027;000.127;63;000.391;MIDI 01
026.023;000.140;59;000.367;MIDI 01
026.163;000.113;67;000.422;MIDI 01
026.285;000.156;68;000.414;MIDI 01
026.381;000.119;70;000.422;MIDI 01
026.409;000.094;61;000.430;MIDI 01
026.474;000.069;71;000.406;MIDI 01
026.418;000.140;58;000.375;MIDI 01
026.576;000.129;68;000.461;MIDI 01
026.697;000.092;70;000.469;MIDI 01
026.788;000.141;59;000.438;MIDI 01
026.795;000.135;56;000.406;MIDI 01
026.786;000.176;71;000.500;MIDI 01
026.905;000.134;73;000.492;MIDI 01
026.986;000.079;70;000.461;MIDI 01
027.107;000.096;71;000.523;MIDI 01
027.203;000.090;73;000.547;MIDI 01
027.207;000.092;51;000.367;MIDI 01
027.180;000.134;55;000.422;MIDI 01
027.188;000.131;58;000.406;MIDI 01
027.311;000.110;75;000.555;MIDI 01
027.420;000.101;73;000.484;MIDI 01
027.483;000.057;82;000.531;MIDI 01
027.585;000.053;51;000.430;MIDI 01
027.580;000.061;71;000.508;MIDI 01
027.573;000.089;56;000.492;MIDI 01
027.579;000.089;59;000.508;MIDI 01
027.668;000.090;73;000.570;MIDI 01
027.777;000.113;71;000.547;MIDI 01
027.853;000.043;80;000.523;MIDI 01
027.935;000.084;70;000.578;MIDI 01
027.964;000.089;58;000.539;MIDI 01
027.960;000.097;51;000.555;MIDI 01
027.957;000.107;61;000.602;MIDI 01
028.044;000.047;71;000.492;MIDI 01
028.128;000.139;70;000.586;MIDI 01
028.235;000.043;79;000.578;MIDI 01
028.340;000.053;68;000.555;MIDI 01
028.336;000.124;64;000.711;MIDI 01
028.443;000.051;70;000.492;MIDI 01
028.342;000.196;52;000.680;MIDI 01
028.515;000.085;68;000.570;MIDI 01
028.618;000.027;80;000.492;MIDI 01
028.797;000.059;73;000.422;MIDI 01
028.804;000.069;64;000.305;MIDI 01
028.798;000.106;43;000.422;MIDI 01
028.925;000.097;44;000.453;MIDI 01
029.022;000.082;41;000.406;MIDI 01
029.104;000.093;43;000.461;MIDI 01
029.194;000.048;71;000.406;MIDI 01
029.206;000.054;63;000.383;MIDI 01
029.204;000.062;68;000.367;MIDI 01
029.201;000.086;44;000.422;MIDI 01
029.315;000.086;46;000.406;MIDI 01
029.393;000.138;43;000.414;MIDI 01
029.478;000.154;44;000.438;MIDI 01
029.580;000.056;67;000.445;MIDI 01
029.596;000.051;70;000.422;MIDI 01
029.602;000.072;61;000.328;MIDI 01
029.589;000.086;46;000.445;MIDI 01
029.704;000.071;47;000.414;MIDI 01
029.775;000.135;44;000.523;MIDI 01
029.873;000.160;46;000.469;MIDI 01
029.997;000.044;59;000.430;MIDI 01
029.979;000.073;47;000.453;MIDI 01
029.983;000.071;68;000.484;MIDI 01
030.005;000.051;63;000.422;MIDI 01
030.104;000.076;49;000.438;MIDI 01
030.179;000.079;46;000.469;MIDI 01
030.244;000.098;47;000.453;MIDI 01
030.353;000.061;49;000.508;MIDI 01
030.379;000.055;67;000.469;MIDI 01
030.382;000.055;64;000.445;MIDI 01
030.396;000.044;58;000.359;MIDI 01
030.433;000.045;51;000.523;MIDI 01
030.534;000.166;49;000.508;MIDI 01
030.641;000.077;58;000.461;MIDI 01
030.768;000.038;59;000.391;MIDI 01
030.766;000.046;63;000.461;MIDI 01
030.754;000.067;68;000.508;MIDI 01
030.736;000.092;47;000.492;MIDI 01
030.844;000.108;49;000.578;MIDI 01
030.961;000.128;47;000.406;MIDI 01
031.017;000.090;56;000.586;MIDI 01
031.133;000.042;61;000.508;MIDI 01
031.147;000.036;63;000.570;MIDI 01
031.142;000.072;46;000.523;MIDI 01
031.139;000.093;70;000.570;MIDI 01
031.252;000.081;47;000.555;MIDI 01
031.331;000.108;46;000.578;MIDI 01
031.416;000.083;55;000.523;MIDI 01
031.527;000.097;45;000.617;MIDI 01
031.538;000.181;87;000.727;MIDI 01
031.625;000.122;46;000.578;MIDI 01
031.549;000.208;75;000.711;MIDI 01
031.661;000.157;45;000.461;MIDI 01
031.802;000.057;54;000.578;MIDI 01
031.930;000.071;69;000.547;MIDI 01
031.940;000.115;41;000.562;MIDI 01
031.971;000.095;53;000.484;MIDI 01
032.066;000.050;70;000.422;MIDI 01
032.158;000.052;68;000.414;MIDI 01
032.244;000.105;69;000.391;MIDI 01
032.332;000.096;65;000.430;MIDI 01
032.342;000.098;70;000.453;MIDI 01
032.340;000.128;61;000.445;MIDI 01
032.455;000.077;72;000.383;MIDI 01
032.519;000.110;69;000.438;MIDI 01
032.646;000.121;70;000.414;MIDI 01
032.732;000.109;63;000.352;MIDI 01
032.746;000.099;72;000.438;MIDI 01
032.734;000.112;60;000.391;MIDI 01
032.841;000.061;73;000.492;MIDI 01
032.939;000.058;70;000.461;MIDI 01
033.031;000.102;72;000.461;MIDI 01
033.122;000.086;61;000.438;MIDI 01
033.129;000.103;73;000.492;MIDI 01
033.126;000.125;58;000.398;MIDI 01
033.215;000.109;75;000.500;MIDI 01
033.314;000.109;72;000.469;MIDI 01
033.419;000.120;73;000.586;MIDI 01
033.503;000.085;75;000.500;MIDI 01
033.522;000.074;53;000.406;MIDI 01
033.527;000.079;60;000.391;MIDI 01
033.513;000.124;57;000.430;MIDI 01
033.605;000.052;77;000.484;MIDI 01
033.706;000.115;75;000.547;MIDI 01
033.810;000.037;84;000.516;MIDI 01
033.886;000.078;73;000.617;MIDI 01
033.919;000.055;53;000.391;MIDI 01
033.893;000.114;58;000.500;MIDI 01
033.903;000.105;61;000.492;MIDI 01
034.002;000.099;75;000.539;MIDI 01
034.089;000.102;73;000.570;MIDI 01
034.166;000.046;82;000.523;MIDI 01
034.269;000.071;72;000.562;MIDI 01
034.285;000.069;53;000.438;MIDI 01
034.283;000.102;63;000.516;MIDI 01
034.279;000.107;60;000.531;MIDI 01
034.364;000.092;73;000.570;MIDI 01
034.481;000.143;72;000.594;MIDI 01
034.559;000.070;81;000.523;MIDI 01
034.680;000.101;70;000.594;MIDI 01
034.678;000.117;66;000.703;MIDI 01
034.682;000.144;54;000.641;MIDI 01
034.795;000.073;72;000.562;MIDI 01
034.893;000.101;70;000.570;MIDI 01
035.155;000.032;75;000.461;MIDI 01
035.167;000.048;66;000.406;MIDI 01
035.151;000.111;45;000.469;MIDI 01
035.297;000.103;46;000.453;MIDI 01
035.404;000.111;44;000.484;MIDI 01
035.545;000.034;65;000.336;MIDI 01
035.522;000.057;73;000.438;MIDI 01
035.506;000.075;45;000.383;MIDI 01
035.534;000.051;70;000.383;MIDI 01
035.584;000.053;46;000.430;MIDI 01
035.667;000.108;48;000.445;MIDI 01
035.742;000.083;45;000.469;MIDI 01
035.832;000.127;46;000.430;MIDI 01
035.908;000.064;72;000.477;MIDI 01
035.933;000.052;69;000.422;MIDI 01
035.928;000.065;63;000.430;MIDI 01
035.947;000.087;48;000.453;MIDI 01
036.061;000.090;49;000.492;MIDI 01
036.126;000.120;46;000.461;MIDI 01
036.209;000.121;48;000.500;MIDI 01
036.321;000.051;65;000.492;MIDI 01
036.308;000.072;70;000.500;MIDI 01
036.335;000.049;49;000.477;MIDI 01
036.329;000.099;61;000.453;MIDI 01
036.395;000.105;51;000.453;MIDI 01
036.493;000.115;48;000.555;MIDI 01
036.578;000.142;49;000.406;MIDI 01
036.719;000.038;59;000.508;MIDI 01
036.715;000.045;65;000.516;MIDI 01
036.690;000.090;50;000.555;MIDI 01
036.704;000.104;68;000.578;MIDI 01
036.816;000.118;51;000.508;MIDI 01
036.889;000.119;49;000.523;MIDI 01
036.991;000.119;50;000.477;MIDI 01
037.107;000.056;63;000.492;MIDI 01
037.092;000.084;66;000.555;MIDI 01
037.105;000.094;51;000.562;MIDI 01
037.109;000.152;58;000.500;MIDI 01
037.211;000.099;53;000.508;MIDI 01
037.285;000.116;50;000.531;MIDI 01
037.385;000.143;51;000.523;MIDI 01
037.522;000.040;64;000.383;MIDI 01
037.483;000.092;53;000.523;MIDI 01
037.499;000.078;58;000.477;MIDI 01
037.501;000.101;61;000.523;MIDI 01
037.491;000.114;65;000.516;MIDI 01
037.612;000.083;54;000.500;MIDI 01
037.696;000.128;52;000.508;MIDI 01
037.791;000.106;53;000.508;MIDI 01
037.893;000.034;58;000.500;MIDI 01
037.888;000.042;60;000.570;MIDI 01
037.885;000.080;64;000.570;MIDI 01
037.894;000.085;54;000.539;MIDI 01
038.010;000.095;56;000.492;MIDI 01
038.095;000.091;53;000.484;MIDI 01
038.298;000.079;57;000.422;MIDI 01
038.273;000.106;60;000.469;MIDI 01
038.271;000.122;53;000.367;MIDI 01
038.283;000.146;65;000.422;MIDI 01
038.388;000.112;66;000.445;MIDI 01
038.504;000.134;64;000.492;MIDI 01
038.594;000.104;65;000.438;MIDI 01
038.670;000.090;66;000.391;MIDI 01
038.668;000.133;52;000.391;MIDI 01
038.670;000.134;61;000.500;MIDI 01
038.673;000.133;58;000.461;MIDI 01
038.777;000.075;68;000.398;MIDI 01
038.858;000.139;65;000.492;MIDI 01
038.952;000.140;66;000.555;MIDI 01
039.050;000.088;61;000.555;MIDI 01
039.048;000.096;58;000.508;MIDI 01
039.054;000.105;51;000.492;MIDI 01
039.067;000.103;67;000.516;MIDI 01
039.132;000.078;68;000.477;MIDI 01
039.243;000.074;66;000.562;MIDI 01
039.332;000.022;67;000.414;MIDI 01
039.446;000.062;80;000.609;MIDI 01
039.473;000.082;68;000.609;MIDI 01
039.453;000.121;44;000.695;MIDI 01
039.455;000.130;56;000.742;MIDI 01
039.633;000.159;70;000.352;MIDI 01
039.803;000.040;68;000.445;MIDI 01
039.843;000.084;63;000.492;MIDI 01
039.849;000.139;60;000.523;MIDI 01
039.856;000.141;56;000.500;MIDI 01
039.955;000.093;70;000.539;MIDI 01
040.041;000.094;67;000.445;MIDI 01
040.122;000.147;68;000.555;MIDI 01
040.208;000.089;69;000.539;MIDI 01
040.230;000.092;64;000.555;MIDI 01
040.228;000.098;55;000.523;MIDI 01
040.226;000.120;61;000.531;MIDI 01
040.307;000.039;70;000.414;MIDI 01
040.481;000.107;69;000.516;MIDI 01
040.362;000.228;68;000.469;MIDI 01
040.589;000.042;64;000.625;MIDI 01
040.586;000.054;61;000.617;MIDI 01
040.597;000.057;54;000.570;MIDI 01
040.521;000.151;70;000.516;MIDI 01
040.650;000.057;71;000.516;MIDI 01
040.773;000.090;69;000.508;MIDI 01
040.862;000.026;70;000.586;MIDI 01
040.990;000.036;83;000.656;MIDI 01
040.994;000.075;71;000.703;MIDI 01
040.987;000.094;47;000.672;MIDI 01
040.983;000.139;59;000.766;MIDI 01
041.144;000.082;72;000.570;MIDI 01
041.225;000.112;70;000.469;MIDI 01
041.361;000.105;71;000.438;MIDI 01
041.502;000.069;72;000.422;MIDI 01
041.421;000.242;66;000.508;MIDI 01
041.606;000.132;70;000.500;MIDI 01
041.422;000.327;63;000.430;MIDI 01
041.430;000.333;59;000.391;MIDI 01
041.731;000.083;71;000.469;MIDI 01
041.792;000.082;72;000.453;MIDI 01
041.889;000.032;73;000.398;MIDI 01
041.793;000.233;59;000.156;MIDI 01
041.807;000.221;67;000.500;MIDI 01
041.819;000.245;64;000.430;MIDI 01
041.971;000.114;71;000.539;MIDI 01
042.090;000.132;72;000.516;MIDI 01
042.207;000.082;73;000.516;MIDI 01
042.301;000.052;74;000.344;MIDI 01
042.228;000.197;65;000.477;MIDI 01
042.230;000.217;59;000.445;MIDI 01
042.225;000.245;68;000.539;MIDI 01
042.366;000.108;72;000.539;MIDI 01
042.474;000.152;73;000.562;MIDI 01
042.544;000.101;74;000.461;MIDI 01
042.631;000.102;75;000.570;MIDI 01
042.624;000.173;59;000.492;MIDI 01
042.607;000.201;66;000.477;MIDI 01
042.748;000.068;73;000.500;MIDI 01
042.603;000.215;69;000.555;MIDI 01
042.847;000.164;74;000.531;MIDI 01
042.956;000.122;75;000.586;MIDI 01
043.081;000.073;76;000.492;MIDI 01
043.001;000.200;67;000.555;MIDI 01
042.983;000.249;59;000.523;MIDI 01
042.996;000.239;70;000.656;MIDI 01
043.142;000.153;74;000.578;MIDI 01
043.284;000.132;75;000.516;MIDI 01
043.397;000.094;76;000.508;MIDI 01
043.408;000.160;71;000.609;MIDI 01
043.485;000.094;77;000.508;MIDI 01
043.416;000.176;59;000.477;MIDI 01
043.406;000.235;68;000.562;MIDI 01
043.699;000.141;76;000.555;MIDI 01
043.583;000.295;75;000.547;MIDI 01
043.801;000.077;77;000.492;MIDI 01
043.812;000.145;72;000.570;MIDI 01
043.883;000.095;78;000.539;MIDI 01
043.822;000.210;59;000.586;MIDI 01
043.824;000.211;69;000.641;MIDI 01
044.018;000.165;76;000.609;MIDI 01
044.098;000.134;77;000.539;MIDI 01
044.216;000.096;78;000.555;MIDI 01
044.235;000.108;73;000.633;MIDI 01
044.227;000.124;59;000.594;MIDI 01
044.230;000.150;70;000.703;MIDI 01
044.342;000.191;79;000.492;MIDI 01
044.419;000.210;78;000.492;MIDI 01
044.554;000.091;76;000.523;MIDI 01
044.670;000.085;75;000.531;MIDI 01
044.640;000.186;59;000.602;MIDI 01
044.642;000.192;71;000.633;MIDI 01
044.761;000.076;76;000.555;MIDI 01
044.853;000.114;74;000.531;MIDI 01
044.969;000.103;75;000.562;MIDI 01
045.029;000.084;67;000.461;MIDI 01
045.051;000.095;76;000.594;MIDI 01
045.014;000.145;71;000.469;MIDI 01
045.119;000.082;78;000.555;MIDI 01
045.125;000.131;66;000.570;MIDI 01
045.222;000.089;75;000.555;MIDI 01
045.248;000.072;67;000.547;MIDI 01
045.320;000.017;76;000.523;MIDI 01
045.308;000.149;59;000.578;MIDI 01
045.432;000.098;81;000.617;MIDI 01
045.425;000.159;60;000.680;MIDI 01
045.600;000.076;80;000.578;MIDI 01
045.534;000.152;83;000.547;MIDI 01
045.680;000.038;81;000.539;MIDI 01
045.411;000.316;76;000.648;MIDI 01
045.824;000.070;74;000.641;MIDI 01
045.829;000.108;66;000.562;MIDI 01
045.891;000.104;76;000.555;MIDI 01
045.809;000.193;69;000.547;MIDI 01
045.948;000.099;65;000.531;MIDI 01
046.010;000.092;73;000.500;MIDI 01
046.102;000.022;74;000.602;MIDI 01
046.038;000.102;66;000.602;MIDI 01
046.140;000.178;57;000.531;MIDI 01
046.237;000.097;79;000.609;MIDI 01
046.234;000.196;59;000.680;MIDI 01
046.328;000.163;81;000.602;MIDI 01
046.417;000.075;78;000.594;MIDI 01
046.202;000.324;74;000.570;MIDI 01
046.491;000.038;79;000.508;MIDI 01
046.634;000.079;72;000.570;MIDI 01
046.626;000.102;64;000.586;MIDI 01
046.630;000.126;67;000.531;MIDI 01
046.706;000.107;74;000.578;MIDI 01
046.755;000.091;63;000.547;MIDI 01
046.822;000.077;71;000.555;MIDI 01
046.837;000.101;64;000.617;MIDI 01
046.904;000.036;72;000.570;MIDI 01
046.936;000.147;55;000.602;MIDI 01
047.035;000.108;78;000.625;MIDI 01
047.136;000.071;79;000.578;MIDI 01
047.036;000.214;57;000.656;MIDI 01
047.227;000.064;77;000.508;MIDI 01
047.010;000.312;72;000.602;MIDI 01
047.286;000.044;78;000.508;MIDI 01
047.424;000.087;71;000.547;MIDI 01
047.476;000.058;63;000.422;MIDI 01
047.442;000.165;66;000.586;MIDI 01
047.532;000.084;72;000.523;MIDI 01
047.574;000.078;62;000.422;MIDI 01
047.652;000.052;63;000.523;MIDI 01
047.600;000.123;70;000.492;MIDI 01
047.702;000.035;71;000.531;MIDI 01
047.708;000.052;54;000.438;MIDI 01
047.856;000.085;55;000.484;MIDI 01
047.846;000.125;71;000.516;MIDI 01
047.844;000.160;76;000.578;MIDI 01
047.966;000.052;72;000.531;MIDI 01
047.983;000.073;57;000.414;MIDI 01
048.041;000.071;69;000.508;MIDI 01
048.072;000.065;54;000.539;MIDI 01
048.136;000.090;71;000.562;MIDI 01
048.197;000.081;55;000.539;MIDI 01
048.219;000.143;74;000.578;MIDI 01
048.263;000.100;69;000.547;MIDI 01
048.355;000.046;71;000.547;MIDI 01
048.285;000.130;54;000.547;MIDI 01
048.401;000.061;55;000.523;MIDI 01
048.426;000.058;67;000.531;MIDI 01
048.458;000.056;52;000.523;MIDI 01
048.522;000.084;69;000.609;MIDI 01
048.573;000.065;54;000.609;MIDI 01
048.620;000.080;72;000.562;MIDI 01
048.623;000.103;67;000.594;MIDI 01
048.719;000.033;69;000.484;MIDI 01
048.685;000.086;52;000.484;MIDI 01
048.795;000.048;66;000.562;MIDI 01
048.784;000.062;54;000.508;MIDI 01
048.847;000.043;50;000.516;MIDI 01
048.902;000.071;67;000.453;MIDI 01
048.932;000.086;52;000.555;MIDI 01
049.002;000.116;66;000.461;MIDI 01
048.977;000.148;71;000.586;MIDI 01
049.014;000.115;50;000.531;MIDI 01
049.096;000.039;67;000.547;MIDI 01
049.129;000.082;52;000.492;MIDI 01
049.178;000.077;64;000.539;MIDI 01
049.211;000.065;48;000.555;MIDI 01
049.277;000.049;66;000.539;MIDI 01
049.317;000.089;50;000.539;MIDI 01
049.356;000.118;64;000.617;MIDI 01
049.358;000.130;69;000.633;MIDI 01
049.402;000.105;48;000.539;MIDI 01
049.441;000.093;66;000.500;MIDI 01
049.504;000.071;50;000.445;MIDI 01
049.532;000.102;62;000.602;MIDI 01
049.582;000.057;47;000.570;MIDI 01
049.647;000.098;64;000.570;MIDI 01
049.702;000.094;48;000.547;MIDI 01
049.749;000.105;62;000.625;MIDI 01
049.742;000.119;67;000.594;MIDI 01
049.855;000.042;64;000.500;MIDI 01
049.791;000.110;47;000.578;MIDI 01
049.896;000.075;48;000.461;MIDI 01
049.921;000.093;60;000.578;MIDI 01
049.981;000.068;45;000.570;MIDI 01
050.018;000.086;62;000.594;MIDI 01
050.092;000.095;47;000.586;MIDI 01
050.121;000.106;60;000.586;MIDI 01
050.129;000.133;66;000.602;MIDI 01
050.225;000.040;62;000.531;MIDI 01
050.191;000.160;45;000.617;MIDI 01
050.310;000.070;47;000.531;MIDI 01
050.293;000.090;59;000.602;MIDI 01
050.357;000.073;43;000.539;MIDI 01
050.382;000.054;60;000.602;MIDI 01
050.500;000.079;45;000.586;MIDI 01
050.505;000.084;59;000.641;MIDI 01
050.585;000.040;60;000.469;MIDI 01
050.503;000.132;64;000.602;MIDI 01
050.677;000.083;57;000.531;MIDI 01
050.691;000.097;42;000.500;MIDI 01
050.583;000.251;43;000.523;MIDI 01
050.788;000.079;45;000.555;MIDI 01
050.751;000.127;59;000.547;MIDI 01
050.905;000.093;56;000.719;MIDI 01
050.911;000.126;62;000.617;MIDI 01
050.918;000.122;41;000.695;MIDI 01
050.909;000.150;68;000.688;MIDI 01
051.386;000.079;49;000.500;MIDI 01
051.475;000.149;50;000.438;MIDI 01
051.598;000.045;48;000.469;MIDI 01
051.376;000.303;59;000.555;MIDI 01
051.669;000.038;49;000.445;MIDI 01
051.370;000.388;68;000.555;MIDI 01
051.372;000.388;71;000.562;MIDI 01
051.796;000.062;49;000.602;MIDI 01
051.962;000.054;48;000.539;MIDI 01
051.902;000.136;50;000.430;MIDI 01
052.039;000.046;49;000.539;MIDI 01
052.171;000.095;49;000.609;MIDI 01
052.307;000.084;50;000.398;MIDI 01
052.370;000.052;48;000.539;MIDI 01
052.446;000.033;49;000.508;MIDI 01
052.175;000.413;68;000.609;MIDI 01
052.168;000.439;71;000.586;MIDI 01
052.556;000.095;49;000.609;MIDI 01
052.165;000.492;80;000.641;MIDI 01
052.676;000.101;50;000.453;MIDI 01
052.748;000.084;48;000.578;MIDI 01
052.828;000.049;49;000.578;MIDI 01
052.964;000.034;71;000.648;MIDI 01
052.966;000.075;80;000.633;MIDI 01
052.968;000.081;83;000.633;MIDI 01
052.970;000.100;49;000.555;MIDI 01
053.159;000.068;48;000.547;MIDI 01
053.091;000.158;50;000.445;MIDI 01
053.241;000.046;49;000.547;MIDI 01
053.380;000.112;49;000.602;MIDI 01
053.525;000.107;50;000.453;MIDI 01
053.584;000.062;48;000.539;MIDI 01
053.652;000.039;49;000.578;MIDI 01
053.374;000.370;92;000.773;MIDI 01
053.390;000.366;80;000.711;MIDI 01
053.376;000.440;83;000.719;MIDI 01
053.775;000.093;49;000.609;MIDI 01
053.880;000.118;50;000.414;MIDI 01
053.968;000.068;78;000.594;MIDI 01
053.958;000.082;83;000.586;MIDI 01
053.951;000.139;90;000.703;MIDI 01
053.964;000.135;48;000.586;MIDI 01
054.062;000.080;49;000.547;MIDI 01
054.214;000.028;76;000.578;MIDI 01
054.228;000.046;82;000.203;MIDI 01
054.202;000.101;50;000.672;MIDI 01
054.201;000.227;77;000.609;MIDI 01
054.197;000.352;83;000.656;MIDI 01
054.196;000.422;89;000.695;MIDI 01
054.657;000.095;80;000.562;MIDI 01
054.661;000.105;83;000.594;MIDI 01
054.761;000.130;85;000.602;MIDI 01
054.764;000.140;74;000.508;MIDI 01
054.870;000.110;83;000.531;MIDI 01
054.872;000.116;71;000.445;MIDI 01
054.940;000.055;92;000.594;MIDI 01
055.013;000.082;77;000.594;MIDI 01
055.036;000.060;80;000.562;MIDI 01
055.141;000.099;82;000.539;MIDI 01
055.143;000.135;71;000.523;MIDI 01
055.321;000.026;89;000.477;MIDI 01
055.247;000.104;80;000.539;MIDI 01
055.245;000.119;68;000.352;MIDI 01
055.406;000.076;74;000.609;MIDI 01
055.392;000.094;77;000.562;MIDI 01
055.326;000.198;62;000.352;MIDI 01
055.498;000.089;78;000.570;MIDI 01
055.522;000.124;68;000.523;MIDI 01
055.600;000.104;65;000.477;MIDI 01
055.597;000.108;77;000.570;MIDI 01
055.686;000.020;86;000.422;MIDI 01
055.757;000.100;74;000.602;MIDI 01
055.768;000.098;71;000.547;MIDI 01
055.714;000.165;59;000.336;MIDI 01
055.864;000.094;76;000.594;MIDI 01
055.878;000.111;65;000.508;MIDI 01
055.973;000.084;74;000.570;MIDI 01
056.038;000.043;83;000.523;MIDI 01
055.971;000.140;62;000.469;MIDI 01
056.126;000.082;71;000.555;MIDI 01
056.084;000.140;56;000.320;MIDI 01
056.147;000.079;68;000.586;MIDI 01
056.221;000.103;73;000.562;MIDI 01
056.265;000.119;62;000.523;MIDI 01
056.333;000.091;71;000.555;MIDI 01
056.404;000.064;80;000.516;MIDI 01
056.369;000.104;59;000.398;MIDI 01
056.480;000.057;53;000.102;MIDI 01
056.495;000.068;68;000.570;MIDI 01
056.510;000.075;65;000.562;MIDI 01
056.597;000.108;70;000.555;MIDI 01
056.631;000.118;59;000.508;MIDI 01
056.714;000.081;56;000.414;MIDI 01
056.705;000.097;68;000.523;MIDI 01
056.781;000.023;77;000.469;MIDI 01
056.782;000.085;50;000.398;MIDI 01
056.847;000.078;65;000.570;MIDI 01
056.862;000.081;62;000.516;MIDI 01
056.948;000.104;56;000.531;MIDI 01
056.950;000.104;66;000.562;MIDI 01
057.034;000.052;53;000.492;MIDI 01
057.043;000.076;65;000.547;MIDI 01
057.091;000.047;47;000.539;MIDI 01
057.112;000.113;74;000.555;MIDI 01
057.216;000.059;64;000.672;MIDI 01
057.223;000.086;43;000.695;MIDI 01
057.222;000.091;70;000.688;MIDI 01
057.212;000.103;73;000.656;MIDI 01
057.678;000.066;51;000.508;MIDI 01
057.793;000.080;52;000.367;MIDI 01
057.867;000.027;50;000.453;MIDI 01
057.921;000.032;51;000.477;MIDI 01
057.660;000.298;61;000.562;MIDI 01
057.664;000.344;70;000.516;MIDI 01
057.659;000.355;73;000.594;MIDI 01
058.046;000.096;51;000.578;MIDI 01
058.239;000.060;50;000.445;MIDI 01
058.165;000.165;52;000.406;MIDI 01
058.314;000.042;51;000.469;MIDI 01
058.446;000.135;51;000.477;MIDI 01
058.659;000.057;50;000.469;MIDI 01
058.590;000.135;52;000.430;MIDI 01
058.725;000.037;51;000.562;MIDI 01
058.472;000.443;70;000.625;MIDI 01
058.464;000.483;73;000.625;MIDI 01
058.860;000.089;51;000.617;MIDI 01
058.466;000.513;82;000.641;MIDI 01
059.057;000.078;50;000.516;MIDI 01
058.992;000.151;52;000.445;MIDI 01
059.141;000.028;51;000.547;MIDI 01
059.261;000.068;73;000.648;MIDI 01
059.269;000.091;51;000.516;MIDI 01
059.252;000.125;82;000.578;MIDI 01
059.245;000.149;85;000.664;MIDI 01
059.456;000.054;50;000.508;MIDI 01
059.383;000.133;52;000.414;MIDI 01
059.524;000.045;51;000.492;MIDI 01
059.672;000.091;51;000.586;MIDI 01
059.861;000.052;50;000.500;MIDI 01
059.805;000.114;52;000.469;MIDI 01
059.923;000.039;51;000.562;MIDI 01
059.675;000.400;94;000.781;MIDI 01
059.676;000.401;82;000.672;MIDI 01
059.674;000.450;85;000.695;MIDI 01
060.058;000.096;51;000.602;MIDI 01
060.170;000.167;52;000.438;MIDI 01
060.273;000.071;80;000.633;MIDI 01
060.275;000.087;85;000.602;MIDI 01
060.264;000.127;92;000.688;MIDI 01
060.250;000.142;50;000.539;MIDI 01
060.344;000.084;51;000.523;MIDI 01
060.490;000.126;52;000.750;MIDI 01
060.494;000.181;79;000.703;MIDI 01
060.487;000.251;91;000.758;MIDI 01
060.492;000.271;85;000.719;MIDI 01
060.974;000.104;85;000.594;MIDI 01
060.971;000.125;79;000.555;MIDI 01
061.084;000.114;87;000.547;MIDI 01
061.101;000.202;73;000.523;MIDI 01
061.257;000.048;94;000.508;MIDI 01
061.244;000.064;70;000.391;MIDI 01
061.194;000.116;85;000.516;MIDI 01
061.342;000.083;82;000.555;MIDI 01
061.356;000.098;76;000.594;MIDI 01
061.453;000.073;84;000.578;MIDI 01
061.466;000.136;70;000.492;MIDI 01
061.548;000.116;82;000.570;MIDI 01
061.646;000.024;91;000.516;MIDI 01
061.556;000.134;67;000.445;MIDI 01
061.722;000.086;79;000.586;MIDI 01
061.742;000.094;73;000.562;MIDI 01
061.691;000.151;61;000.102;MIDI 01
061.824;000.095;80;000.555;MIDI 01
061.851;000.136;67;000.484;MIDI 01
061.940;000.076;79;000.562;MIDI 01
061.987;000.044;88;000.453;MIDI 01
061.973;000.096;64;000.359;MIDI 01
062.085;000.091;76;000.555;MIDI 01
062.043;000.149;58;000.148;MIDI 01
062.104;000.090;70;000.516;MIDI 01
062.189;000.099;78;000.531;MIDI 01
062.232;000.112;64;000.484;MIDI 01
062.303;000.101;76;000.562;MIDI 01
062.319;000.116;61;000.414;MIDI 01
062.368;000.082;85;000.484;MIDI 01
062.476;000.080;73;000.531;MIDI 01
062.485;000.081;67;000.555;MIDI 01
062.584;000.105;75;000.531;MIDI 01
062.684;000.090;73;000.477;MIDI 01
062.594;000.183;61;000.539;MIDI 01
062.708;000.073;58;000.367;MIDI 01
062.766;000.022;82;000.344;MIDI 01
062.831;000.074;70;000.547;MIDI 01
062.853;000.093;64;000.492;MIDI 01
062.941;000.086;72;000.477;MIDI 01
062.954;000.117;58;000.461;MIDI 01
063.044;000.106;70;000.508;MIDI 01
063.138;000.040;79;000.383;MIDI 01
063.039;000.141;55;000.461;MIDI 01
063.210;000.058;67;000.492;MIDI 01
063.227;000.083;61;000.531;MIDI 01
063.324;000.046;68;000.477;MIDI 01
063.346;000.067;55;000.477;MIDI 01
063.419;000.060;67;000.438;MIDI 01
063.431;000.057;52;000.320;MIDI 01
063.487;000.110;46;000.422;MIDI 01
063.479;000.125;76;000.508;MIDI 01
063.602;000.095;63;000.477;MIDI 01
063.647;000.081;47;000.406;MIDI 01
063.732;000.045;51;000.430;MIDI 01
063.712;000.070;75;000.406;MIDI 01
063.828;000.086;55;000.422;MIDI 01
063.790;000.196;76;000.539;MIDI 01
063.921;000.091;56;000.539;MIDI 01
063.910;000.130;75;000.453;MIDI 01
063.993;000.070;73;000.539;MIDI 01
064.020;000.051;58;000.461;MIDI 01
064.088;000.092;59;000.500;MIDI 01
064.090;000.092;71;000.508;MIDI 01
064.194;000.096;70;000.508;MIDI 01
064.196;000.105;61;000.477;MIDI 01
064.280;000.080;63;000.445;MIDI 01
064.301;000.062;68;000.477;MIDI 01
064.384;000.102;67;000.531;MIDI 01
064.399;000.094;64;000.547;MIDI 01
064.503;000.099;68;000.500;MIDI 01
064.529;000.151;58;000.453;MIDI 01
064.621;000.065;67;000.500;MIDI 01
064.655;000.034;76;000.422;MIDI 01
064.628;000.095;55;000.469;MIDI 01
064.755;000.043;64;000.484;MIDI 01
064.780;000.053;49;000.195;MIDI 01
064.777;000.089;61;000.547;MIDI 01
064.857;000.104;66;000.492;MIDI 01
064.886;000.084;55;000.500;MIDI 01
064.925;000.095;64;000.445;MIDI 01
064.970;000.054;52;000.391;MIDI 01
065.021;000.060;73;000.477;MIDI 01
065.121;000.084;63;000.539;MIDI 01
065.106;000.122;47;000.469;MIDI 01
065.222;000.067;51;000.508;MIDI 01
065.228;000.084;75;000.523;MIDI 01
065.329;000.101;55;000.500;MIDI 01
065.326;000.169;76;000.523;MIDI 01
065.426;000.088;56;000.555;MIDI 01
065.430;000.119;75;000.492;MIDI 01
065.520;000.046;58;000.539;MIDI 01
065.514;000.058;73;000.531;MIDI 01
065.595;000.058;59;000.422;MIDI 01
065.591;000.105;71;000.555;MIDI 01
065.706;000.089;70;000.516;MIDI 01
065.673;000.126;61;000.523;MIDI 01
065.761;000.093;63;000.484;MIDI 01
065.795;000.073;68;000.461;MIDI 01
065.878;000.069;69;000.531;MIDI 01
065.879;000.096;66;000.562;MIDI 01
065.975;000.109;70;000.555;MIDI 01
066.021;000.122;60;000.414;MIDI 01
066.100;000.080;69;000.555;MIDI 01
066.160;000.062;78;000.539;MIDI 01
066.107;000.129;57;000.484;MIDI 01
066.275;000.041;51;000.023;MIDI 01
066.266;000.074;63;000.562;MIDI 01
066.263;000.098;66;000.547;MIDI 01
066.386;000.085;57;000.500;MIDI 01
066.364;000.134;68;000.562;MIDI 01
066.470;000.055;54;000.453;MIDI 01
066.472;000.098;66;000.461;MIDI 01
066.560;000.039;75;000.477;MIDI 01
066.568;000.128;48;000.531;MIDI 01
066.648;000.067;65;000.594;MIDI 01
066.682;000.122;49;000.547;MIDI 01
066.755;000.068;54;000.461;MIDI 01
066.871;000.066;57;000.539;MIDI 01
066.741;000.220;78;000.586;MIDI 01
066.978;000.037;58;000.609;MIDI 01
067.009;000.080;75;000.516;MIDI 01
067.085;000.042;73;000.516;MIDI 01
067.095;000.056;60;000.422;MIDI 01
067.168;000.066;72;000.555;MIDI 01
067.171;000.153;61;000.539;MIDI 01
067.278;000.060;70;000.539;MIDI 01
067.261;000.118;63;000.477;MIDI 01
067.360;000.070;65;000.492;MIDI 01
067.358;000.083;71;000.586;MIDI 01
067.441;000.068;68;000.609;MIDI 01
067.470;000.134;73;000.578;MIDI 01
067.593;000.106;62;000.477;MIDI 01
067.608;000.093;71;000.547;MIDI 01
067.658;000.072;80;000.539;MIDI 01
067.677;000.077;59;000.461;MIDI 01
067.759;000.072;68;000.594;MIDI 01
067.785;000.088;65;000.594;MIDI 01
067.873;000.095;70;000.539;MIDI 01
067.903;000.127;59;000.477;MIDI 01
067.963;000.076;68;000.594;MIDI 01
068.018;000.047;56;000.289;MIDI 01
068.044;000.047;50;000.297;MIDI 01
068.050;000.053;77;000.531;MIDI 01
068.153;000.092;72;000.648;MIDI 01
068.167;000.123;69;000.672;MIDI 01
068.271;000.108;73;000.594;MIDI 01
068.290;000.146;63;000.508;MIDI 01
068.392;000.082;72;000.562;MIDI 01
068.443;000.041;81;000.539;MIDI 01
068.374;000.111;60;000.453;MIDI 01
068.524;000.032;54;000.344;MIDI 01
068.536;000.071;69;000.625;MIDI 01
068.540;000.104;66;000.633;MIDI 01
068.638;000.139;70;000.617;MIDI 01
068.737;000.068;69;000.625;MIDI 01
068.639;000.173;60;000.531;MIDI 01
068.769;000.045;51;000.523;MIDI 01
068.714;000.112;57;000.383;MIDI 01
068.832;000.030;78;000.562;MIDI 01
068.934;000.073;70;000.711;MIDI 01
068.943;000.104;73;000.680;MIDI 01
069.062;000.114;75;000.594;MIDI 01
069.043;000.173;64;000.547;MIDI 01
069.167;000.125;73;000.586;MIDI 01
069.231;000.070;82;000.531;MIDI 01
069.158;000.169;61;000.531;MIDI 01
069.331;000.107;70;000.664;MIDI 01
069.340;000.123;67;000.664;MIDI 01
069.463;000.074;72;000.562;MIDI 01
069.458;000.167;61;000.648;MIDI 01
069.598;000.036;52;000.586;MIDI 01
069.534;000.108;58;000.531;MIDI 01
069.532;000.112;70;000.609;MIDI 01
069.649;000.085;79;000.625;MIDI 01
069.882;000.239;72;000.688;MIDI 01
069.877;000.275;69;000.719;MIDI 01
070.069;000.166;75;000.594;MIDI 01
070.196;000.128;78;000.641;MIDI 01
070.307;000.053;81;000.656;MIDI 01
070.442;000.163;84;000.727;MIDI 01
070.567;000.155;87;000.656;MIDI 01
070.665;000.190;90;000.742;MIDI 01
069.871;001.000;56;000.680;MIDI 01
070.769;000.125;93;000.641;MIDI 01
070.445;000.451;68;000.680;MIDI 01
069.873;001.071;63;000.641;MIDI 01
069.875;001.074;66;000.648;MIDI 01
070.858;000.103;96;000.625;MIDI 01
070.936;000.092;87;000.656;MIDI 01
071.036;000.069;88;000.594;MIDI 01
071.118;000.126;92;000.609;MIDI 01
071.225;000.033;90;000.594;MIDI 01
071.293;000.069;84;000.609;MIDI 01
071.316;000.072;72;000.438;MIDI 01
071.406;000.081;85;000.555;MIDI 01
071.392;000.119;73;000.500;MIDI 01
071.487;000.106;76;000.531;MIDI 01
071.490;000.135;88;000.578;MIDI 01
071.604;000.079;75;000.602;MIDI 01
071.585;000.100;87;000.625;MIDI 01
071.704;000.033;78;000.555;MIDI 01
071.678;000.148;66;000.523;MIDI 01
071.806;000.085;80;000.594;MIDI 01
071.810;000.102;68;000.570;MIDI 01
071.923;000.044;71;000.500;MIDI 01
071.901;000.086;83;000.477;MIDI 01
071.985;000.031;81;000.531;MIDI 01
072.021;000.038;69;000.430;MIDI 01
072.069;000.032;72;000.555;MIDI 01
072.077;000.090;60;000.531;MIDI 01
072.183;000.070;73;000.555;MIDI 01
072.210;000.099;61;000.500;MIDI 01
072.253;000.108;76;000.492;MIDI 01
072.298;000.084;64;000.453;MIDI 01
072.352;000.068;75;000.555;MIDI 01
072.401;000.075;63;000.477;MIDI 01
072.448;000.047;66;000.547;MIDI 01
072.461;000.121;54;000.562;MIDI 01
072.568;000.079;68;000.516;MIDI 01
072.586;000.096;56;000.547;MIDI 01
072.635;000.142;71;000.508;MIDI 01
072.699;000.080;59;000.531;MIDI 01
072.719;000.107;69;000.570;MIDI 01
072.787;000.061;57;000.484;MIDI 01
072.821;000.056;66;000.555;MIDI 01
072.855;000.041;54;000.461;MIDI 01
072.917;000.094;62;000.539;MIDI 01
072.953;000.065;50;000.516;MIDI 01
073.010;000.026;61;000.625;MIDI 01
073.018;000.066;49;000.633;MIDI 01
073.195;000.035;48;000.781;MIDI 01
073.197;000.122;56;000.672;MIDI 01
073.203;000.211;63;000.586;MIDI 01
073.193;000.314;36;000.734;MIDI 01
073.181;000.333;68;000.609;MIDI 01
073.198;000.423;66;000.625;MIDI 01
073.616;000.078;63;000.531;MIDI 01
073.710;000.138;64;000.492;MIDI 01
073.805;000.067;65;000.516;MIDI 01
073.858;000.077;66;000.375;MIDI 01
073.959;000.119;65;000.516;MIDI 01
074.078;000.118;66;000.555;MIDI 01
074.131;000.082;67;000.531;MIDI 01
074.225;000.052;68;000.500;MIDI 01
074.297;000.085;66;000.477;MIDI 01
074.384;000.136;67;000.531;MIDI 01
074.450;000.121;68;000.477;MIDI 01
074.537;000.061;69;000.508;MIDI 01
074.615;000.046;63;000.469;MIDI 01
074.713;000.090;64;000.461;MIDI 01
074.824;000.077;60;000.609;MIDI 01
074.821;000.082;54;000.734;MIDI 01
074.823;000.107;51;000.664;MIDI 01
074.819;000.114;44;000.680;MIDI 01
074.822;000.140;65;000.539;MIDI 01
074.940;000.088;66;000.516;MIDI 01
075.125;000.134;65;000.516;MIDI 01
075.046;000.225;64;000.570;MIDI 01
075.225;000.103;66;000.484;MIDI 01
075.295;000.076;67;000.477;MIDI 01
075.378;000.108;65;000.539;MIDI 01
075.486;000.128;66;000.531;MIDI 01
075.556;000.097;67;000.531;MIDI 01
075.649;000.062;68;000.438;MIDI 01
075.739;000.074;66;000.516;MIDI 01
075.817;000.151;67;000.523;MIDI 01
075.882;000.156;68;000.461;MIDI 01
075.989;000.059;69;000.445;MIDI 01
076.065;000.057;63;000.508;MIDI 01
076.162;000.086;64;000.523;MIDI 01
076.275;000.083;60;000.602;MIDI 01
076.268;000.118;54;000.742;MIDI 01
076.264;000.130;65;000.531;MIDI 01
076.266;000.136;44;000.695;MIDI 01
076.272;000.133;51;000.711;MIDI 01
076.376;000.103;66;000.547;MIDI 01
076.479;000.214;64;000.602;MIDI 01
076.565;000.134;65;000.562;MIDI 01
076.657;000.091;66;000.516;MIDI 01
076.735;000.086;67;000.500;MIDI 01
076.819;000.085;65;000.477;MIDI 01
076.911;000.125;66;000.523;MIDI 01
076.990;000.076;67;000.477;MIDI 01
077.056;000.077;68;000.484;MIDI 01
077.160;000.080;66;000.539;MIDI 01
077.255;000.115;67;000.477;MIDI 01
077.346;000.084;68;000.492;MIDI 01
077.414;000.076;69;000.492;MIDI 01
077.509;000.097;67;000.477;MIDI 01
077.608;000.142;68;000.477;MIDI 01
077.676;000.107;69;000.500;MIDI 01
077.781;000.075;70;000.508;MIDI 01
077.856;000.075;68;000.516;MIDI 01
077.967;000.112;69;000.500;MIDI 01
078.061;000.086;70;000.578;MIDI 01
078.143;000.067;71;000.500;MIDI 01
078.206;000.132;69;000.531;MIDI 01
078.305;000.157;70;000.602;MIDI 01
078.409;000.104;71;000.500;MIDI 01
078.479;000.067;72;000.523;MIDI 01
078.559;000.053;70;000.477;MIDI 01
078.635;000.120;71;000.609;MIDI 01
078.742;000.118;44;000.578;MIDI 01
078.745;000.122;72;000.625;MIDI 01
078.840;000.069;42;000.602;MIDI 01
078.852;000.071;73;000.586;MIDI 01
078.922;000.124;40;000.641;MIDI 01
078.934;000.114;71;000.531;MIDI 01
079.014;000.131;72;000.578;MIDI 01
079.041;000.107;39;000.586;MIDI 01
079.123;000.076;37;000.680;MIDI 01
079.102;000.119;73;000.594;MIDI 01
079.199;000.087;75;000.531;MIDI 01
079.295;000.131;72;000.531;MIDI 01
079.440;000.172;73;000.500;MIDI 01
079.579;000.060;75;000.430;MIDI 01
079.583;000.140;69;000.203;MIDI 01
079.662;000.062;76;000.328;MIDI 01
079.581;000.220;66;000.281;MIDI 01
079.764;000.092;73;000.383;MIDI 01
079.862;000.102;75;000.391;MIDI 01
079.953;000.090;64;000.227;MIDI 01
079.932;000.112;68;000.328;MIDI 01
079.947;000.108;76;000.453;MIDI 01
080.064;000.062;78;000.406;MIDI 01
080.141;000.057;75;000.445;MIDI 01
080.223;000.105;76;000.453;MIDI 01
080.312;000.118;78;000.469;MIDI 01
080.316;000.142;66;000.398;MIDI 01
080.310;000.177;63;000.391;MIDI 01
080.406;000.112;80;000.430;MIDI 01
080.504;000.135;76;000.406;MIDI 01
080.593;000.141;78;000.477;MIDI 01
080.702;000.090;80;000.477;MIDI 01
080.722;000.092;61;000.344;MIDI 01
080.714;000.134;64;000.375;MIDI 01
080.800;000.051;81;000.453;MIDI 01
080.888;000.162;80;000.445;MIDI 01
081.005;000.088;85;000.461;MIDI 01
081.100;000.068;78;000.445;MIDI 01
081.102;000.133;66;000.383;MIDI 01
081.114;000.132;57;000.305;MIDI 01
081.098;000.166;61;000.391;MIDI 01
081.204;000.127;80;000.523;MIDI 01
081.302;000.135;78;000.484;MIDI 01
081.388;000.114;85;000.500;MIDI 01
081.483;000.117;76;000.531;MIDI 01
081.501;000.119;64;000.477;MIDI 01
081.487;000.134;61;000.406;MIDI 01
081.520;000.141;56;000.375;MIDI 01
081.595;000.108;78;000.539;MIDI 01
081.701;000.121;76;000.492;MIDI 01
081.787;000.106;85;000.531;MIDI 01
081.870;000.085;54;000.445;MIDI 01
081.874;000.081;63;000.445;MIDI 01
081.880;000.094;61;000.406;MIDI 01
081.876;000.131;75;000.523;MIDI 01
082.003;000.030;76;000.328;MIDI 01
082.065;000.075;75;000.438;MIDI 01
082.128;000.111;49;000.469;MIDI 01
082.204;000.098;56;000.492;MIDI 01
082.172;000.138;85;000.477;MIDI 01
082.294;000.072;64;000.539;MIDI 01
082.282;000.100;73;000.562;MIDI 01
082.392;000.081;80;000.484;MIDI 01
082.460;000.079;88;000.570;MIDI 01
082.568;000.091;44;000.492;MIDI 01
082.578;000.149;81;000.445;MIDI 01
082.666;000.066;72;000.578;MIDI 01
082.699;000.079;60;000.617;MIDI 01
082.628;000.158;54;000.547;MIDI 01
082.787;000.049;78;000.484;MIDI 01
082.827;000.094;87;000.602;MIDI 01
083.033;000.076;61;000.648;MIDI 01
083.035;000.089;52;000.516;MIDI 01
082.951;000.175;80;000.523;MIDI 01
083.042;000.085;68;000.586;MIDI 01
083.030;000.119;49;000.508;MIDI 01
083.144;000.086;76;000.594;MIDI 01
083.246;000.075;85;000.648;MIDI 01
083.329;000.143;78;000.539;MIDI 01
083.416;000.060;56;000.734;MIDI 01
083.414;000.091;44;000.633;MIDI 01
083.427;000.098;68;000.648;MIDI 01
083.534;000.075;75;000.602;MIDI 01
083.617;000.073;84;000.609;MIDI 01
083.713;000.134;76;000.555;MIDI 01
083.821;000.053;37;000.688;MIDI 01
083.823;000.055;49;000.766;MIDI 01
083.825;000.055;85;000.719;MIDI 01
083.818;000.065;73;000.734;MIDI 01
084.016;000.043;69;000.609;MIDI 01
084.027;000.035;57;000.633;MIDI 01
084.025;000.045;45;000.625;MIDI 01
084.117;000.050;81;000.516;MIDI 01
084.224;000.044;56;000.641;MIDI 01
084.213;000.060;68;000.633;MIDI 01
084.240;000.040;44;000.508;MIDI 01
084.309;000.037;80;000.555;MIDI 01
084.395;000.050;67;000.594;MIDI 01
084.399;000.050;55;000.617;MIDI 01
084.398;000.059;43;000.578;MIDI 01
084.493;000.048;79;000.562;MIDI 01
084.592;000.033;56;000.703;MIDI 01
084.577;000.081;68;000.648;MIDI 01
084.605;000.065;44;000.602;MIDI 01
084.693;000.017;80;000.539;MIDI 01
084.793;000.049;37;000.562;MIDI 01
084.785;000.068;49;000.703;MIDI 01
084.790;000.113;61;000.672;MIDI 01
084.866;000.098;73;000.617;MIDI 01
084.986;000.065;51;000.664;MIDI 01
085.005;000.124;67;000.594;MIDI 01
084.989;000.170;70;000.609;MIDI 01
085.003;000.157;75;000.688;MIDI 01
085.030;000.139;63;000.414;MIDI 01
085.116;000.085;49;000.625;MIDI 01
084.998;000.211;61;000.711;MIDI 01
085.229;000.087;47;000.508;MIDI 01
084.993;000.354;39;000.609;MIDI 01
085.332;000.111;46;000.508;MIDI 01
085.419;000.057;68;000.398;MIDI 01
085.448;000.043;71;000.203;MIDI 01
085.442;000.053;59;000.281;MIDI 01
085.451;000.046;63;000.273;MIDI 01
085.453;000.117;44;000.477;MIDI 01
085.620;000.106;43;000.492;MIDI 01
085.726;000.138;44;000.516;MIDI 01
085.827;000.056;67;000.344;MIDI 01
085.845;000.050;61;000.297;MIDI 01
085.825;000.080;46;000.445;MIDI 01
085.835;000.078;63;000.391;MIDI 01
085.925;000.058;47;000.359;MIDI 01
085.976;000.168;44;000.375;MIDI 01
086.073;000.158;46;000.422;MIDI 01
086.206;000.061;63;000.359;MIDI 01
086.208;000.068;59;000.281;MIDI 01
086.199;000.080;68;000.398;MIDI 01
086.211;000.077;47;000.422;MIDI 01
086.328;000.075;49;000.453;MIDI 01
086.407;000.079;46;000.477;MIDI 01
086.493;000.108;47;000.383;MIDI 01
086.581;000.061;64;000.469;MIDI 01
086.598;000.047;58;000.320;MIDI 01
086.584;000.062;68;000.414;MIDI 01
086.610;000.080;49;000.484;MIDI 01
086.691;000.078;51;000.367;MIDI 01
086.764;000.154;47;000.492;MIDI 01
086.884;000.101;49;000.461;MIDI 01
086.984;000.055;59;000.320;MIDI 01
086.970;000.092;63;000.453;MIDI 01
086.992;000.073;51;000.508;MIDI 01
086.956;000.156;68;000.492;MIDI 01
087.076;000.047;52;000.414;MIDI 01
087.151;000.142;51;000.445;MIDI 01
087.265;000.107;56;000.539;MIDI 01
087.359;000.054;61;000.422;MIDI 01
087.364;000.081;64;000.430;MIDI 01
087.361;000.095;49;000.523;MIDI 01
087.338;000.128;68;000.469;MIDI 01
087.451;000.109;51;000.578;MIDI 01
087.554;000.107;49;000.438;MIDI 01
087.645;000.079;56;000.422;MIDI 01
087.727;000.071;47;000.469;MIDI 01
087.730;000.071;63;000.500;MIDI 01
087.729;000.123;68;000.555;MIDI 01
087.822;000.120;49;000.555;MIDI 01
087.948;000.095;47;000.453;MIDI 01
088.018;000.077;56;000.398;MIDI 01
088.090;000.104;46;000.492;MIDI 01
088.124;000.162;61;000.484;MIDI 01
088.201;000.093;47;000.508;MIDI 01
088.106;000.214;70;000.547;MIDI 01
088.126;000.196;63;000.445;MIDI 01
088.297;000.105;46;000.469;MIDI 01
088.361;000.077;55;000.508;MIDI 01
088.504;000.022;59;000.484;MIDI 01
088.495;000.058;63;000.531;MIDI 01
088.500;000.091;68;000.539;MIDI 01
088.498;000.096;71;000.602;MIDI 01
088.475;000.129;44;000.586;MIDI 01
088.600;000.092;52;000.516;MIDI 01
088.685;000.086;59;000.438;MIDI 01
088.799;000.108;51;000.570;MIDI 01
088.901;000.075;43;000.539;MIDI 01
088.964;000.160;52;000.484;MIDI 01
089.112;000.067;58;000.492;MIDI 01
088.906;000.408;82;000.570;MIDI 01
088.896;000.423;87;000.695;MIDI 01
088.911;000.421;75;000.594;MIDI 01
089.299;000.039;80;000.586;MIDI 01
089.284;000.069;83;000.570;MIDI 01
089.220;000.139;51;000.430;MIDI 01
089.312;000.091;44;000.523;MIDI 01
089.397;000.096;52;000.516;MIDI 01
089.504;000.080;59;000.539;MIDI 01
089.690;000.075;43;000.602;MIDI 01
089.583;000.186;51;000.516;MIDI 01
089.735;000.143;52;000.484;MIDI 01
089.674;000.282;63;000.641;MIDI 01
089.886;000.074;58;000.516;MIDI 01
089.670;000.330;75;000.680;MIDI 01
089.948;000.102;51;000.508;MIDI 01
089.676;000.395;70;000.602;MIDI 01
090.056;000.046;44;000.523;MIDI 01
090.080;000.057;56;000.562;MIDI 01
090.091;000.066;68;000.500;MIDI 01
090.086;000.076;71;000.555;MIDI 01
090.291;000.147;64;000.523;MIDI 01
090.396;000.058;67;000.414;MIDI 01
090.296;000.246;61;000.555;MIDI 01
090.458;000.092;63;000.547;MIDI 01
090.546;000.047;68;000.523;MIDI 01
090.492;000.118;59;000.469;MIDI 01
090.641;000.118;67;000.594;MIDI 01
090.749;000.106;70;000.602;MIDI 01
090.644;000.216;64;000.570;MIDI 01
090.834;000.070;63;000.602;MIDI 01
090.841;000.085;66;000.602;MIDI 01
090.918;000.043;71;000.570;MIDI 01
091.023;000.110;69;000.648;MIDI 01
091.129;000.092;72;000.586;MIDI 01
091.031;000.217;66;000.703;MIDI 01
091.221;000.071;64;000.641;MIDI 01
091.217;000.091;68;000.641;MIDI 01
091.321;000.028;73;000.594;MIDI 01
091.422;000.095;66;000.617;MIDI 01
091.424;000.103;63;000.578;MIDI 01
091.412;000.127;72;000.641;MIDI 01
091.431;000.110;56;000.586;MIDI 01
091.547;000.107;75;000.516;MIDI 01
091.703;000.064;61;000.406;MIDI 01
091.684;000.090;73;000.438;MIDI 01
091.713;000.072;64;000.375;MIDI 01
091.782;000.058;75;000.258;MIDI 01
091.858;000.092;72;000.398;MIDI 01
091.952;000.191;73;000.438;MIDI 01
092.057;000.121;75;000.359;MIDI 01
092.115;000.082;66;000.312;MIDI 01
092.117;000.081;69;000.320;MIDI 01
092.157;000.108;76;000.375;MIDI 01
092.269;000.147;73;000.266;MIDI 01
092.365;000.150;75;000.406;MIDI 01
092.481;000.109;76;000.484;MIDI 01
092.490;000.117;64;000.352;MIDI 01
092.479;000.129;68;000.391;MIDI 01
092.589;000.064;78;000.430;MIDI 01
092.666;000.083;75;000.414;MIDI 01
092.759;000.120;76;000.492;MIDI 01
092.852;000.132;78;000.469;MIDI 01
092.864;000.125;66;000.414;MIDI 01
092.859;000.177;63;000.359;MIDI 01
092.953;000.147;80;000.453;MIDI 01
093.050;000.154;76;000.477;MIDI 01
093.160;000.144;78;000.500;MIDI 01
093.259;000.095;80;000.539;MIDI 01
093.251;000.118;61;000.516;MIDI 01
093.369;000.034;81;000.391;MIDI 01
093.266;000.155;64;000.391;MIDI 01
093.440;000.134;80;000.508;MIDI 01
093.554;000.086;85;000.492;MIDI 01
093.629;000.099;78;000.508;MIDI 01
093.641;000.119;57;000.422;MIDI 01
093.631;000.135;66;000.484;MIDI 01
093.639;000.145;61;000.430;MIDI 01
093.733;000.109;80;000.539;MIDI 01
093.840;000.121;78;000.523;MIDI 01
093.930;000.102;85;000.562;MIDI 01
094.020;000.098;76;000.562;MIDI 01
094.023;000.135;61;000.422;MIDI 01
094.027;000.133;64;000.508;MIDI 01
094.118;000.095;78;000.594;MIDI 01
094.036;000.180;56;000.445;MIDI 01
094.220;000.114;76;000.602;MIDI 01
094.301;000.095;85;000.578;MIDI 01
094.402;000.086;54;000.508;MIDI 01
094.418;000.075;61;000.430;MIDI 01
094.405;000.090;75;000.562;MIDI 01
094.407;000.090;63;000.477;MIDI 01
094.489;000.061;76;000.539;MIDI 01
094.586;000.062;75;000.516;MIDI 01
094.632;000.107;49;000.539;MIDI 01
094.697;000.125;85;000.492;MIDI 01
094.720;000.120;56;000.516;MIDI 01
094.803;000.058;64;000.586;MIDI 01
094.800;000.090;73;000.570;MIDI 01
094.894;000.085;80;000.500;MIDI 01
094.967;000.105;88;000.625;MIDI 01
095.034;000.108;44;000.547;MIDI 01
095.088;000.095;81;000.422;MIDI 01
095.167;000.079;72;000.648;MIDI 01
095.202;000.055;60;000.656;MIDI 01
095.132;000.142;54;000.594;MIDI 01
095.285;000.071;78;000.539;MIDI 01
095.356;000.083;87;000.609;MIDI 01
095.420;000.098;45;000.609;MIDI 01
095.444;000.101;80;000.578;MIDI 01
095.460;000.108;52;000.523;MIDI 01
095.566;000.049;69;000.578;MIDI 01
095.578;000.065;61;000.734;MIDI 01
095.666;000.052;75;000.523;MIDI 01
095.727;000.099;85;000.633;MIDI 01
095.844;000.213;76;000.500;MIDI 01
095.960;000.110;68;000.656;MIDI 01
095.954;000.125;59;000.641;MIDI 01
095.950;000.157;62;000.703;MIDI 01
095.958;000.178;65;000.719;MIDI 01
096.079;000.095;73;000.531;MIDI 01
095.955;000.270;53;000.641;MIDI 01
096.164;000.096;83;000.633;MIDI 01
096.264;000.033;56;000.320;MIDI 01
096.275;000.072;74;000.555;MIDI 01
096.388;000.050;66;000.562;MIDI 01
096.378;000.077;61;000.562;MIDI 01
096.382;000.078;57;000.547;MIDI 01
096.395;000.070;54;000.469;MIDI 01
096.376;000.116;69;000.586;MIDI 01
096.599;000.038;62;000.609;MIDI 01
096.515;000.124;73;000.531;MIDI 01
096.594;000.067;50;000.617;MIDI 01
096.592;000.107;81;000.531;MIDI 01
096.683;000.033;78;000.617;MIDI 01
096.774;000.040;61;000.641;MIDI 01
096.776;000.074;49;000.633;MIDI 01
096.814;000.064;78;000.070;MIDI 01
096.787;000.117;81;000.625;MIDI 01
096.890;000.102;85;000.609;MIDI 01
096.960;000.036;57;000.633;MIDI 01
096.957;000.073;45;000.680;MIDI 01
096.960;000.145;93;000.672;MIDI 01
097.050;000.128;90;000.656;MIDI 01
097.148;000.038;54;000.680;MIDI 01
097.150;000.065;42;000.633;MIDI 01
097.170;000.047;85;000.594;MIDI 01
097.227;000.028;81;000.602;MIDI 01
097.334;000.045;49;000.648;MIDI 01
097.330;000.071;37;000.656;MIDI 01
097.320;000.141;78;000.672;MIDI 01
097.442;000.065;73;000.641;MIDI 01
097.540;000.030;69;000.531;MIDI 01
097.627;000.111;66;000.594;MIDI 01
097.732;000.134;62;000.555;MIDI 01
097.876;000.077;57;000.555;MIDI 01
097.545;000.487;50;000.703;MIDI 01
097.542;000.676;38;000.688;MIDI 01
098.168;000.126;41;000.367;MIDI 01
098.317;000.121;42;000.398;MIDI 01
098.433;000.142;40;000.375;MIDI 01
098.170;000.456;68;000.367;MIDI 01
098.504;000.129;41;000.406;MIDI 01
098.617;000.095;42;000.453;MIDI 01
098.739;000.103;44;000.406;MIDI 01
098.808;000.129;41;000.500;MIDI 01
098.176;000.851;59;000.289;MIDI 01
098.570;000.476;66;000.414;MIDI 01
098.915;000.135;42;000.516;MIDI 01
098.181;000.874;62;000.320;MIDI 01
099.022;000.086;44;000.547;MIDI 01
099.118;000.106;45;000.477;MIDI 01
099.195;000.122;42;000.602;MIDI 01
098.955;000.364;65;000.508;MIDI 01
099.296;000.098;44;000.594;MIDI 01
099.388;000.079;45;000.594;MIDI 01
099.332;000.151;62;000.555;MIDI 01
099.336;000.175;57;000.516;MIDI 01
099.332;000.215;66;000.586;MIDI 01
099.476;000.076;47;000.516;MIDI 01
099.588;000.033;45;000.453;MIDI 01
099.642;000.074;47;000.367;MIDI 01
099.752;000.099;41;000.492;MIDI 01
099.857;000.112;42;000.484;MIDI 01
099.963;000.110;40;000.477;MIDI 01
100.048;000.096;41;000.438;MIDI 01
099.733;000.452;68;000.461;MIDI 01
100.136;000.097;42;000.508;MIDI 01
100.271;000.070;44;000.438;MIDI 01
100.331;000.116;41;000.445;MIDI 01
100.419;000.134;42;000.516;MIDI 01
100.120;000.435;66;000.469;MIDI 01
099.755;000.802;62;000.367;MIDI 01
100.537;000.094;44;000.539;MIDI 01
100.652;000.096;45;000.430;MIDI 01
100.717;000.155;42;000.562;MIDI 01
100.520;000.430;65;000.531;MIDI 01
100.828;000.126;44;000.539;MIDI 01
099.757;001.199;59;000.383;MIDI 01
100.930;000.062;45;000.547;MIDI 01
100.916;000.089;61;000.570;MIDI 01
100.914;000.123;66;000.594;MIDI 01
101.008;000.152;47;000.531;MIDI 01
101.128;000.110;45;000.594;MIDI 01
101.198;000.095;47;000.320;MIDI 01
101.320;000.065;48;000.492;MIDI 01
101.328;000.068;66;000.406;MIDI 01
101.428;000.067;49;000.484;MIDI 01
101.502;000.091;47;000.484;MIDI 01
101.590;000.116;48;000.461;MIDI 01
101.702;000.056;49;000.523;MIDI 01
101.793;000.082;51;000.422;MIDI 01
101.860;000.146;48;000.523;MIDI 01
101.972;000.128;49;000.539;MIDI 01
101.690;000.430;73;000.508;MIDI 01
101.306;000.832;75;000.516;MIDI 01
102.067;000.103;51;000.547;MIDI 01
101.331;000.870;69;000.398;MIDI 01
102.199;000.091;52;000.414;MIDI 01
102.254;000.161;49;000.594;MIDI 01
102.361;000.124;51;000.508;MIDI 01
102.074;000.414;72;000.562;MIDI 01
102.469;000.090;52;000.578;MIDI 01
102.471;000.105;64;000.539;MIDI 01
102.473;000.166;69;000.539;MIDI 01
102.585;000.071;54;000.508;MIDI 01
102.456;000.207;73;000.609;MIDI 01
102.670;000.071;52;000.500;MIDI 01
102.766;000.077;54;000.422;MIDI 01
102.878;000.096;48;000.469;MIDI 01
102.978;000.100;49;000.539;MIDI 01
103.081;000.102;47;000.461;MIDI 01
103.155;000.091;48;000.438;MIDI 01
103.244;000.093;49;000.523;MIDI 01
103.371;000.071;51;000.438;MIDI 01
103.438;000.129;48;000.508;MIDI 01
103.545;000.131;49;000.492;MIDI 01
102.882;000.800;66;000.422;MIDI 01
103.274;000.410;73;000.484;MIDI 01
102.889;000.809;69;000.383;MIDI 01
102.862;000.838;75;000.492;MIDI 01
103.641;000.094;72;000.594;MIDI 01
103.647;000.105;51;000.531;MIDI 01
103.784;000.065;52;000.406;MIDI 01
103.823;000.143;49;000.562;MIDI 01
103.916;000.156;51;000.523;MIDI 01
104.027;000.086;61;000.617;MIDI 01
104.035;000.098;53;000.539;MIDI 01
104.029;000.124;68;000.586;MIDI 01
104.020;000.160;73;000.602;MIDI 01
104.140;000.050;54;000.492;MIDI 01
104.022;000.193;71;000.625;MIDI 01
104.236;000.139;52;000.508;MIDI 01
104.331;000.120;53;000.492;MIDI 01
104.444;000.077;61;000.461;MIDI 01
104.446;000.077;54;000.492;MIDI 01
104.440;000.130;69;000.453;MIDI 01
104.456;000.119;66;000.414;MIDI 01
104.442;000.176;73;000.500;MIDI 01
104.557;000.081;56;000.484;MIDI 01
104.630;000.129;53;000.484;MIDI 01
104.739;000.111;54;000.461;MIDI 01
104.824;000.081;65;000.461;MIDI 01
104.836;000.088;71;000.477;MIDI 01
104.839;000.099;56;000.562;MIDI 01
104.815;000.234;73;000.539;MIDI 01
104.958;000.097;57;000.461;MIDI 01
105.027;000.141;54;000.531;MIDI 01
105.119;000.113;56;000.523;MIDI 01
105.216;000.066;57;000.570;MIDI 01
105.227;000.072;66;000.539;MIDI 01
105.219;000.168;69;000.555;MIDI 01
105.311;000.108;59;000.531;MIDI 01
105.211;000.235;73;000.609;MIDI 01
105.394;000.188;56;000.570;MIDI 01
105.505;000.099;57;000.523;MIDI 01
105.598;000.075;60;000.570;MIDI 01
105.614;000.100;69;000.484;MIDI 01
105.612;000.177;66;000.555;MIDI 01
105.721;000.084;61;000.523;MIDI 01
105.603;000.271;75;000.625;MIDI 01
105.790;000.143;59;000.531;MIDI 01
105.883;000.145;60;000.484;MIDI 01
105.984;000.061;64;000.617;MIDI 01
106.005;000.079;61;000.594;MIDI 01
105.975;000.114;68;000.617;MIDI 01
105.971;000.197;76;000.672;MIDI 01
106.112;000.081;63;000.516;MIDI 01
106.186;000.142;60;000.523;MIDI 01
106.297;000.130;61;000.484;MIDI 01
106.380;000.090;68;000.594;MIDI 01
106.374;000.128;72;000.562;MIDI 01
106.395;000.112;63;000.578;MIDI 01
106.519;000.099;64;000.516;MIDI 01
106.369;000.295;78;000.633;MIDI 01
106.581;000.175;61;000.578;MIDI 01
106.694;000.135;63;000.531;MIDI 01
106.769;000.088;68;000.656;MIDI 01
106.805;000.093;64;000.570;MIDI 01
106.767;000.169;73;000.648;MIDI 01
106.935;000.062;66;000.484;MIDI 01
106.760;000.290;80;000.672;MIDI 01
106.985;000.159;63;000.555;MIDI 01
107.095;000.107;64;000.539;MIDI 01
107.166;000.083;73;000.641;MIDI 01
107.200;000.073;66;000.578;MIDI 01
107.174;000.108;75;000.578;MIDI 01
107.281;000.100;68;000.531;MIDI 01
107.156;000.282;81;000.695;MIDI 01
107.389;000.114;64;000.539;MIDI 01
107.489;000.118;66;000.547;MIDI 01
107.576;000.107;68;000.594;MIDI 01
107.706;000.080;69;000.562;MIDI 01
107.558;000.329;76;000.680;MIDI 01
107.808;000.089;68;000.539;MIDI 01
107.560;000.340;73;000.648;MIDI 01
107.556;000.353;80;000.688;MIDI 01
107.888;000.036;66;000.531;MIDI 01
107.953;000.111;64;000.602;MIDI 01
108.086;000.109;63;000.492;MIDI 01
108.165;000.081;61;000.625;MIDI 01
108.276;000.124;59;000.539;MIDI 01
108.336;000.135;73;000.656;MIDI 01
108.332;000.157;76;000.672;MIDI 01
108.334;000.186;80;000.641;MIDI 01
108.419;000.116;57;000.500;MIDI 01
108.329;000.233;85;000.680;MIDI 01
108.521;000.103;56;000.531;MIDI 01
108.576;000.050;54;000.500;MIDI 01
108.781;000.002;77;000.352;MIDI 01
108.729;000.075;76;000.734;MIDI 01
108.680;000.128;52;000.594;MIDI 01
108.730;000.109;80;000.680;MIDI 01
108.727;000.131;85;000.719;MIDI 01
108.725;000.135;88;000.742;MIDI 01
108.804;000.127;51;000.555;MIDI 01
108.919;000.067;49;000.617;MIDI 01
109.015;000.136;47;000.586;MIDI 01
109.108;000.081;80;000.758;MIDI 01
109.106;000.097;88;000.719;MIDI 01
109.109;000.095;85;000.703;MIDI 01
109.104;000.150;92;000.719;MIDI 01
109.143;000.142;45;000.609;MIDI 01
109.307;000.054;42;000.594;MIDI 01
109.258;000.103;44;000.578;MIDI 01
109.418;000.140;40;000.641;MIDI 01
109.504;000.099;97;000.758;MIDI 01
109.500;000.111;92;000.734;MIDI 01
109.506;000.107;88;000.703;MIDI 01
109.504;000.148;85;000.734;MIDI 01
109.543;000.117;39;000.586;MIDI 01
109.644;000.041;37;000.602;MIDI 01
109.726;000.061;35;000.633;MIDI 01
109.810;000.096;33;000.555;MIDI 01
109.871;000.053;32;000.555;MIDI 01
109.997;000.096;93;000.797;MIDI 01
110.006;000.108;87;000.742;MIDI 01
110.004;000.119;85;000.750;MIDI 01
110.002;000.124;81;000.766;MIDI 01
110.070;000.058;32;000.250;MIDI 01
110.008;000.199;30;000.680;MIDI 01
110.019;000.221;42;000.711;MIDI 01
110.480;000.170;44;000.812;MIDI 01
110.482;000.185;66;000.703;MIDI 01
110.478;000.192;68;000.672;MIDI 01
110.471;000.211;60;000.773;MIDI 01
110.475;000.209;72;000.727;MIDI 01
110.484;000.230;32;000.734;MIDI 01
111.017;000.109;61;000.727;MIDI 01
111.021;000.130;64;000.648;MIDI 01
111.019;000.143;68;000.633;MIDI 01
111.021;000.150;37;000.703;MIDI 01
111.116;000.056;27;000.023;MIDI 01
111.016;000.170;73;000.703;MIDI 01
111.023;000.172;25;000.672;MIDI 01
111.804;000.062;56;000.664;MIDI 01
111.819;000.088;44;000.570;MIDI 01
111.789;000.138;80;000.703;MIDI 01
111.910;000.066;81;000.602;MIDI 01
112.049;000.048;37;000.586;MIDI 01
112.009;000.091;80;000.578;MIDI 01
112.088;000.075;88;000.625;MIDI 01
112.220;000.042;58;000.703;MIDI 01
112.196;000.102;79;000.648;MIDI 01
112.229;000.077;46;000.648;MIDI 01
112.297;000.083;80;000.602;MIDI 01
112.399;000.044;37;000.641;MIDI 01
112.395;000.068;79;000.562;MIDI 01
112.459;000.058;39;000.203;MIDI 01
112.497;000.031;88;000.422;MIDI 01
112.578;000.047;57;000.711;MIDI 01
112.596;000.041;46;000.578;MIDI 01
112.616;000.043;47;000.406;MIDI 01
112.589;000.074;45;000.570;MIDI 01
112.581;000.089;78;000.625;MIDI 01
112.683;000.102;80;000.586;MIDI 01
112.769;000.049;37;000.664;MIDI 01
112.774;000.124;78;000.594;MIDI 01
112.844;000.076;87;000.602;MIDI 01
112.957;000.052;56;000.727;MIDI 01
112.955;000.073;44;000.688;MIDI 01
112.959;000.070;77;000.648;MIDI 01
113.056;000.096;78;000.609;MIDI 01
113.134;000.042;37;000.656;MIDI 01
113.149;000.101;77;000.586;MIDI 01
113.234;000.031;86;000.484;MIDI 01
113.326;000.058;55;000.695;MIDI 01
113.319;000.082;76;000.625;MIDI 01
113.330;000.093;44;000.648;MIDI 01
113.401;000.122;78;000.539;MIDI 01
113.540;000.040;37;000.617;MIDI 01
113.520;000.094;76;000.609;MIDI 01
113.610;000.046;85;000.492;MIDI 01
113.699;000.057;54;000.672;MIDI 01
113.685;000.092;75;000.602;MIDI 01
113.702;000.091;44;000.672;MIDI 01
113.778;000.066;76;000.594;MIDI 01
113.905;000.069;37;000.648;MIDI 01
113.907;000.067;75;000.609;MIDI 01
114.018;000.045;85;000.484;MIDI 01
114.079;000.060;51;000.727;MIDI 01
114.081;000.074;44;000.703;MIDI 01
114.090;000.074;75;000.602;MIDI 01
114.195;000.060;76;000.430;MIDI 01
114.267;000.079;37;000.656;MIDI 01
114.277;000.072;75;000.602;MIDI 01
114.372;000.067;84;000.508;MIDI 01
114.459;000.064;52;000.656;MIDI 01
114.469;000.082;73;000.664;MIDI 01
114.461;000.094;44;000.648;MIDI 01
114.559;000.050;75;000.414;MIDI 01
114.634;000.035;73;000.562;MIDI 01
114.640;000.054;37;000.680;MIDI 01
114.702;000.076;85;000.562;MIDI 01
114.835;000.047;56;000.750;MIDI 01
114.833;000.082;44;000.695;MIDI 01
114.838;000.080;80;000.680;MIDI 01
114.980;000.028;81;000.328;MIDI 01
115.025;000.035;37;000.648;MIDI 01
114.993;000.125;80;000.594;MIDI 01
115.118;000.068;88;000.617;MIDI 01
115.206;000.057;58;000.742;MIDI 01
115.203;000.077;46;000.656;MIDI 01
115.194;000.094;79;000.656;MIDI 01
115.314;000.075;80;000.578;MIDI 01
115.406;000.030;37;000.672;MIDI 01
115.385;000.085;79;000.625;MIDI 01
115.483;000.037;88;000.523;MIDI 01
115.577;000.055;57;000.727;MIDI 01
115.572;000.083;45;000.703;MIDI 01
115.574;000.094;78;000.641;MIDI 01
115.700;000.092;80;000.602;MIDI 01
115.776;000.042;37;000.703;MIDI 01
115.782;000.112;78;000.641;MIDI 01
115.867;000.052;87;000.539;MIDI 01
115.941;000.050;56;000.766;MIDI 01
115.943;000.070;44;000.680;MIDI 01
115.947;000.086;77;000.656;MIDI 01
116.059;000.093;78;000.617;MIDI 01
116.130;000.058;37;000.672;MIDI 01
116.147;000.106;77;000.617;MIDI 01
116.215;000.047;86;000.562;MIDI 01
116.311;000.045;55;000.664;MIDI 01
116.316;000.072;44;000.695;MIDI 01
116.309;000.092;76;000.656;MIDI 01
116.406;000.099;78;000.602;MIDI 01
116.497;000.068;37;000.648;MIDI 01
116.521;000.097;76;000.609;MIDI 01
116.589;000.071;85;000.594;MIDI 01
116.690;000.048;54;000.688;MIDI 01
116.698;000.074;44;000.648;MIDI 01
116.692;000.093;75;000.570;MIDI 01
116.787;000.038;76;000.586;MIDI 01
116.869;000.072;37;000.656;MIDI 01
116.900;000.064;75;000.586;MIDI 01
117.007;000.040;85;000.484;MIDI 01
117.073;000.062;51;000.711;MIDI 01
117.070;000.070;44;000.703;MIDI 01
117.079;000.075;75;000.617;MIDI 01
117.181;000.038;76;000.516;MIDI 01
117.250;000.050;37;000.562;MIDI 01
117.263;000.076;75;000.617;MIDI 01
117.344;000.078;84;000.547;MIDI 01
117.452;000.003;50;000.484;MIDI 01
117.428;000.072;52;000.727;MIDI 01
117.422;000.085;37;000.594;MIDI 01
117.426;000.081;44;000.688;MIDI 01
117.449;000.065;73;000.680;MIDI 01
117.510;000.058;75;000.539;MIDI 01
117.617;000.035;73;000.539;MIDI 01
117.696;000.071;85;000.516;MIDI 01
117.865;000.082;80;000.586;MIDI 01
117.866;000.092;68;000.539;MIDI 01
117.974;000.040;81;000.445;MIDI 01
117.976;000.062;67;000.430;MIDI 01
118.057;000.060;68;000.547;MIDI 01
118.036;000.128;80;000.547;MIDI 01
118.156;000.049;88;000.539;MIDI 01
118.168;000.054;56;000.469;MIDI 01
118.216;000.085;79;000.594;MIDI 01
118.243;000.078;67;000.562;MIDI 01
118.336;000.075;80;000.531;MIDI 01
118.334;000.101;66;000.516;MIDI 01
118.435;000.043;67;000.492;MIDI 01
118.428;000.092;79;000.578;MIDI 01
118.508;000.033;88;000.547;MIDI 01
118.520;000.098;56;000.562;MIDI 01
118.618;000.058;66;000.555;MIDI 01
118.586;000.134;78;000.586;MIDI 01
118.698;000.048;79;000.492;MIDI 01
118.700;000.074;65;000.438;MIDI 01
118.797;000.049;66;000.516;MIDI 01
118.782;000.095;78;000.469;MIDI 01
118.883;000.048;87;000.555;MIDI 01
118.889;000.070;56;000.477;MIDI 01
118.963;000.061;77;000.617;MIDI 01
118.967;000.136;65;000.594;MIDI 01
119.066;000.051;64;000.492;MIDI 01
119.068;000.071;78;000.516;MIDI 01
119.128;000.073;65;000.266;MIDI 01
119.152;000.092;77;000.578;MIDI 01
119.245;000.021;86;000.438;MIDI 01
119.241;000.079;56;000.484;MIDI 01
119.311;000.068;76;000.625;MIDI 01
119.326;000.079;64;000.602;MIDI 01
119.405;000.097;78;000.539;MIDI 01
119.510;000.058;64;000.469;MIDI 01
119.435;000.152;63;000.492;MIDI 01
119.508;000.096;76;000.578;MIDI 01
119.598;000.062;85;000.547;MIDI 01
119.611;000.105;56;000.523;MIDI 01
119.717;000.054;63;000.562;MIDI 01
119.683;000.105;75;000.555;MIDI 01
119.777;000.057;76;000.523;MIDI 01
119.793;000.094;62;000.453;MIDI 01
119.883;000.077;63;000.539;MIDI 01
119.867;000.097;75;000.484;MIDI 01
119.964;000.039;84;000.523;MIDI 01
120.014;000.064;56;000.422;MIDI 01
120.041;000.066;74;000.641;MIDI 01
120.054;000.066;62;000.578;MIDI 01
120.141;000.080;75;000.539;MIDI 01
120.168;000.115;61;000.453;MIDI 01
120.225;000.059;62;000.531;MIDI 01
120.234;000.059;74;000.609;MIDI 01
120.302;000.031;83;000.508;MIDI 01
120.327;000.050;56;000.516;MIDI 01
120.411;000.046;61;000.578;MIDI 01
120.395;000.066;73;000.547;MIDI 01
120.468;000.025;60;000.438;MIDI 01
120.483;000.043;74;000.484;MIDI 01
120.530;000.026;61;000.594;MIDI 01
120.556;000.080;73;000.562;MIDI 01
120.636;000.060;44;000.625;MIDI 01
120.654;000.059;82;000.547;MIDI 01
120.732;000.062;72;000.602;MIDI 01
120.822;000.025;59;000.445;MIDI 01
120.772;000.129;60;000.609;MIDI 01
120.844;000.060;73;000.562;MIDI 01
120.926;000.080;72;000.547;MIDI 01
120.994;000.039;81;000.516;MIDI 01
120.999;000.056;44;000.555;MIDI 01
121.064;000.061;71;000.586;MIDI 01
121.115;000.077;59;000.531;MIDI 01
121.155;000.042;72;000.578;MIDI 01
121.171;000.037;58;000.539;MIDI 01
121.254;000.039;59;000.367;MIDI 01
121.246;000.095;71;000.547;MIDI 01
121.331;000.071;80;000.594;MIDI 01
121.341;000.064;44;000.617;MIDI 01
121.460;000.068;58;000.609;MIDI 01
121.421;000.109;70;000.617;MIDI 01
121.515;000.062;71;000.531;MIDI 01
121.545;000.035;57;000.453;MIDI 01
121.551;000.055;56;000.250;MIDI 01
121.616;000.046;58;000.562;MIDI 01
121.591;000.111;70;000.625;MIDI 01
121.693;000.034;79;000.578;MIDI 01
121.727;000.051;44;000.617;MIDI 01
121.764;000.067;69;000.688;MIDI 01
121.809;000.080;57;000.633;MIDI 01
121.859;000.080;70;000.609;MIDI 01
121.898;000.051;56;000.555;MIDI 01
121.978;000.035;57;000.539;MIDI 01
121.953;000.092;69;000.594;MIDI 01
122.037;000.073;78;000.570;MIDI 01
122.066;000.065;44;000.562;MIDI 01
122.156;000.094;56;000.656;MIDI 01
122.132;000.130;68;000.703;MIDI 01
122.258;000.057;55;000.500;MIDI 01
122.302;000.021;69;000.492;MIDI 01
122.347;000.079;56;000.578;MIDI 01
122.332;000.125;68;000.562;MIDI 01
122.441;000.066;77;000.594;MIDI 01
122.480;000.042;44;000.570;MIDI 01
122.515;000.045;46;000.250;MIDI 01
122.510;000.108;67;000.672;MIDI 01
122.531;000.100;55;000.703;MIDI 01
122.619;000.086;68;000.633;MIDI 01
122.642;000.083;54;000.555;MIDI 01
122.709;000.066;55;000.547;MIDI 01
122.720;000.077;67;000.570;MIDI 01
122.794;000.049;76;000.586;MIDI 01
122.902;000.078;54;000.664;MIDI 01
122.843;000.141;44;000.609;MIDI 01
122.880;000.133;66;000.703;MIDI 01
122.985;000.048;53;000.367;MIDI 01
123.041;000.044;44;000.203;MIDI 01
122.991;000.114;68;000.562;MIDI 01
123.066;000.100;66;000.469;MIDI 01
123.127;000.090;75;000.594;MIDI 01
123.204;000.083;37;000.672;MIDI 01
123.248;000.082;44;000.469;MIDI 01
123.253;000.090;73;000.688;MIDI 01
123.349;000.002;46;000.320;MIDI 01
123.320;000.031;50;000.430;MIDI 01
123.298;000.058;52;000.742;MIDI 01
123.267;000.093;64;000.633;MIDI 01
123.628;000.030;64;000.508;MIDI 01
123.537;000.123;56;000.555;MIDI 01
123.671;000.036;61;000.594;MIDI 01
123.770;000.061;61;000.648;MIDI 01
123.861;000.130;68;000.602;MIDI 01
123.939;000.055;76;000.562;MIDI 01
124.001;000.045;73;000.578;MIDI 01
124.105;000.044;73;000.641;MIDI 01
124.194;000.002;80;000.422;MIDI 01
124.249;000.044;86;000.508;MIDI 01
124.304;000.041;85;000.648;MIDI 01
124.423;000.083;85;000.602;MIDI 01
124.491;000.145;92;000.609;MIDI 01
124.511;000.157;49;000.562;MIDI 01
124.604;000.082;56;000.609;MIDI 01
124.583;000.104;97;000.641;MIDI 01
124.679;000.043;64;000.789;MIDI 01
124.727;000.055;58;000.297;MIDI 01
124.665;000.121;100;000.766;MIDI 01
124.774;000.064;92;000.719;MIDI 01
124.864;000.040;85;000.586;MIDI 01
124.975;000.096;85;000.648;MIDI 01
125.069;000.076;88;000.594;MIDI 01
125.141;000.028;80;000.594;MIDI 01
125.222;000.036;73;000.516;MIDI 01
125.424;000.042;76;000.602;MIDI 01
125.339;000.156;73;000.594;MIDI 01
125.544;000.043;67;000.266;MIDI 01
125.578;000.040;61;000.531;MIDI 01
125.755;000.055;64;000.523;MIDI 01
125.693;000.174;61;000.602;MIDI 01
125.852;000.071;56;000.602;MIDI 01
125.944;000.049;49;000.633;MIDI 01
126.046;000.041;49;000.734;MIDI 01
126.120;000.365;37;000.727;MIDI 01
126.918;000.084;49;000.555;MIDI 01
126.952;000.067;56;000.586;MIDI 01
127.013;000.034;64;000.773;MIDI 01
127.008;000.083;73;000.828;MIDI 01
127.001;000.121;76;000.742;MIDI 01
126.996;000.128;85;000.750;MIDI 01
127.006;000.132;80;000.734;MIDI 01
128.080;000.027;49;000.578;MIDI 01
128.082;000.028;61;000.500;MIDI 01
128.078;000.041;37;000.672;MIDI 01
128.076;000.051;25;000.648;MIDI 01
128.182;002.742;49;000.758;MIDI 01
128.177;002.747;61;000.727;MIDI 01
128.194;002.757;37;000.703;MIDI 01
128.192;002.764;25;000.719;MIDI 01
