Start;Duration;Pitch;Velocity;Instrument
000.740;000.335;36;000.234;MIDI 01
000.734;000.349;48;000.250;MIDI 01
001.955;000.438;67;000.258;MIDI 01
001.958;000.498;55;000.297;MIDI 01
001.942;000.545;63;000.250;MIDI 01
001.903;001.670;79;000.383;MIDI 01
003.370;000.420;36;000.359;MIDI 01
003.381;000.424;48;000.375;MIDI 01
004.716;000.405;68;000.164;MIDI 01
004.695;000.486;63;000.258;MIDI 01
004.683;000.548;56;000.250;MIDI 01
004.654;001.636;80;000.375;MIDI 01
006.101;000.748;35;000.312;MIDI 01
006.104;000.795;47;000.305;MIDI 01
007.614;000.507;67;000.164;MIDI 01
007.600;000.553;62;000.250;MIDI 01
007.605;000.567;65;000.141;MIDI 01
007.579;000.706;55;000.211;MIDI 01
006.781;001.958;79;000.422;MIDI 01
008.979;000.816;36;000.258;MIDI 01
008.232;001.591;74;000.367;MIDI 01
009.479;000.414;75;000.391;MIDI 01
008.981;000.933;48;000.266;MIDI 01
009.808;000.436;77;000.461;MIDI 01
010.079;000.293;75;000.492;MIDI 01
010.384;000.467;74;000.461;MIDI 01
010.438;000.529;67;000.164;MIDI 01
010.425;000.602;63;000.320;MIDI 01
010.477;000.623;60;000.250;MIDI 01
010.511;000.633;55;000.352;MIDI 01
010.724;000.431;75;000.508;MIDI 01
010.960;000.330;77;000.531;MIDI 01
011.229;000.525;79;000.500;MIDI 01
011.654;000.493;32;000.383;MIDI 01
011.670;000.581;44;000.383;MIDI 01
011.636;001.118;72;000.492;MIDI 01
012.993;000.408;68;000.297;MIDI 01
012.978;000.496;63;000.273;MIDI 01
012.976;000.500;60;000.289;MIDI 01
012.936;000.749;72;000.383;MIDI 01
013.932;000.414;72;000.359;MIDI 01
014.290;000.407;29;000.250;MIDI 01
014.286;000.490;41;000.258;MIDI 01
014.283;001.402;74;000.414;MIDI 01
015.647;000.366;62;000.062;MIDI 01
015.624;000.519;53;000.133;MIDI 01
015.649;000.531;60;000.195;MIDI 01
015.576;001.030;72;000.359;MIDI 01
016.451;000.400;68;000.375;MIDI 01
016.882;000.624;31;000.258;MIDI 01
016.894;000.630;43;000.250;MIDI 01
016.859;001.895;67;000.398;MIDI 01
018.255;000.590;59;000.258;MIDI 01
018.261;000.671;53;000.242;MIDI 01
018.672;000.443;70;000.352;MIDI 01
018.731;000.390;68;000.430;MIDI 01
019.039;000.279;67;000.461;MIDI 01
019.331;000.499;62;000.445;MIDI 01
019.756;000.598;24;000.344;MIDI 01
019.760;000.596;36;000.320;MIDI 01
019.728;000.694;63;000.414;MIDI 01
020.250;001.176;60;000.359;MIDI 01
021.219;000.645;55;000.203;MIDI 01
021.196;000.690;51;000.266;MIDI 01
022.735;000.375;27;000.250;MIDI 01
022.733;000.407;39;000.297;MIDI 01
023.928;000.375;67;000.164;MIDI 01
023.901;000.483;63;000.297;MIDI 01
023.900;000.623;55;000.266;MIDI 01
023.919;000.635;58;000.258;MIDI 01
023.875;001.276;79;000.461;MIDI 01
025.103;000.493;44;000.367;MIDI 01
025.101;000.504;32;000.336;MIDI 01
026.252;000.463;63;000.305;MIDI 01
026.258;000.641;60;000.328;MIDI 01
026.274;000.634;53;000.289;MIDI 01
027.514;000.498;34;000.383;MIDI 01
027.518;000.620;46;000.383;MIDI 01
026.210;001.964;80;000.555;MIDI 01
028.840;000.225;68;000.250;MIDI 01
028.842;000.354;58;000.266;MIDI 01
028.828;000.384;62;000.312;MIDI 01
028.129;001.304;79;000.523;MIDI 01
029.839;000.167;35;000.328;MIDI 01
029.843;000.219;47;000.312;MIDI 01
029.442;001.354;77;000.445;MIDI 01
030.245;000.721;36;000.414;MIDI 01
030.243;000.830;48;000.406;MIDI 01
030.754;000.416;75;000.461;MIDI 01
031.135;000.250;77;000.422;MIDI 01
031.395;000.083;75;000.391;MIDI 01
031.538;000.044;77;000.422;MIDI 01
031.581;000.347;75;000.391;MIDI 01
031.923;000.394;74;000.453;MIDI 01
031.945;000.400;67;000.344;MIDI 01
031.944;000.510;63;000.344;MIDI 01
031.952;000.566;57;000.305;MIDI 01
032.236;000.415;75;000.484;MIDI 01
032.481;000.373;77;000.555;MIDI 01
032.748;000.337;79;000.578;MIDI 01
033.108;000.649;38;000.352;MIDI 01
033.112;000.717;50;000.328;MIDI 01
033.085;001.007;74;000.516;MIDI 01
034.711;000.190;67;000.281;MIDI 01
034.731;000.299;58;000.312;MIDI 01
033.980;001.475;62;000.414;MIDI 01
035.396;000.381;72;000.508;MIDI 01
035.123;000.700;67;000.414;MIDI 01
035.671;000.599;74;000.555;MIDI 01
036.165;000.546;26;000.281;MIDI 01
036.185;000.582;38;000.281;MIDI 01
037.406;000.456;60;000.273;MIDI 01
037.408;000.508;57;000.266;MIDI 01
036.143;002.385;75;000.508;MIDI 01
038.369;000.212;66;000.375;MIDI 01
038.768;000.478;31;000.258;MIDI 01
038.770;000.527;43;000.266;MIDI 01
040.086;000.432;50;000.227;MIDI 01
040.108;000.470;58;000.211;MIDI 01
038.759;002.564;66;000.406;MIDI 01
040.983;000.502;67;000.305;MIDI 01
041.472;000.225;69;000.414;MIDI 01
041.276;000.501;70;000.375;MIDI 01
041.312;000.473;38;000.289;MIDI 01
041.769;000.468;43;000.203;MIDI 01
041.775;000.470;31;000.188;MIDI 01
041.724;001.669;67;000.336;MIDI 01
043.140;000.484;62;000.188;MIDI 01
043.130;000.555;58;000.195;MIDI 01
043.123;000.760;50;000.180;MIDI 01
044.507;000.471;30;000.375;MIDI 01
044.509;000.496;42;000.344;MIDI 01
045.862;000.408;63;000.195;MIDI 01
045.854;000.527;60;000.234;MIDI 01
045.865;000.576;54;000.219;MIDI 01
045.856;000.681;56;000.289;MIDI 01
047.180;000.465;29;000.281;MIDI 01
047.167;000.556;41;000.312;MIDI 01
045.807;002.546;68;000.383;MIDI 01
048.434;000.306;65;000.203;MIDI 01
048.432;000.400;53;000.250;MIDI 01
048.422;000.424;61;000.336;MIDI 01
048.405;000.446;56;000.312;MIDI 01
047.778;001.427;73;000.500;MIDI 01
048.388;000.845;77;000.492;MIDI 01
048.970;000.941;82;000.555;MIDI 01
049.716;000.483;24;000.305;MIDI 01
049.718;000.614;36;000.344;MIDI 01
049.688;001.658;80;000.539;MIDI 01
051.115;000.656;63;000.227;MIDI 01
051.694;000.174;68;000.336;MIDI 01
051.104;000.817;51;000.281;MIDI 01
051.118;000.870;56;000.273;MIDI 01
051.891;000.290;75;000.414;MIDI 01
052.110;000.402;80;000.516;MIDI 01
052.425;000.277;78;000.461;MIDI 01
051.434;001.335;66;000.289;MIDI 01
052.736;000.226;77;000.422;MIDI 01
053.341;000.435;25;000.328;MIDI 01
053.348;000.445;37;000.258;MIDI 01
053.043;001.783;65;000.328;MIDI 01
053.146;001.721;68;000.414;MIDI 01
053.232;001.704;73;000.367;MIDI 01
054.660;000.380;61;000.242;MIDI 01
054.658;000.479;56;000.234;MIDI 01
054.654;000.505;53;000.219;MIDI 01
053.324;002.047;77;000.438;MIDI 01
055.790;000.155;48;000.375;MIDI 01
055.788;000.209;36;000.312;MIDI 01
056.169;000.531;35;000.453;MIDI 01
056.165;000.538;47;000.461;MIDI 01
057.467;000.357;65;000.305;MIDI 01
057.469;000.406;55;000.250;MIDI 01
057.477;000.487;62;000.297;MIDI 01
058.401;000.069;68;000.375;MIDI 01
057.420;001.129;67;000.430;MIDI 01
058.519;000.120;70;000.406;MIDI 01
058.618;000.526;68;000.406;MIDI 01
058.704;000.574;48;000.367;MIDI 01
058.711;000.589;36;000.328;MIDI 01
059.139;000.461;67;000.461;MIDI 01
059.450;000.333;71;000.492;MIDI 01
059.712;000.229;72;000.547;MIDI 01
059.984;000.244;67;000.398;MIDI 01
059.993;000.289;55;000.359;MIDI 01
059.969;000.318;74;000.547;MIDI 01
059.990;000.358;60;000.375;MIDI 01
060.224;000.371;75;000.594;MIDI 01
060.950;000.375;80;000.539;MIDI 01
060.500;000.925;84;000.578;MIDI 01
061.318;000.501;50;000.367;MIDI 01
061.307;000.529;38;000.367;MIDI 01
061.290;001.444;79;000.570;MIDI 01
062.903;000.238;73;000.453;MIDI 01
062.602;000.875;55;000.273;MIDI 01
062.600;000.943;67;000.258;MIDI 01
062.591;000.954;65;000.195;MIDI 01
063.168;000.417;74;000.516;MIDI 01
062.596;001.021;59;000.266;MIDI 01
063.465;000.564;79;000.578;MIDI 01
063.779;000.269;77;000.609;MIDI 01
064.028;000.112;75;000.547;MIDI 01
064.311;000.501;39;000.375;MIDI 01
064.308;000.547;51;000.375;MIDI 01
064.301;001.376;75;000.555;MIDI 01
065.688;000.441;67;000.273;MIDI 01
065.697;000.535;60;000.266;MIDI 01
065.681;000.565;55;000.289;MIDI 01
066.912;000.189;39;000.328;MIDI 01
066.925;000.234;51;000.305;MIDI 01
067.294;000.594;41;000.445;MIDI 01
067.301;000.654;53;000.375;MIDI 01
068.583;000.381;68;000.320;MIDI 01
068.581;000.542;56;000.359;MIDI 01
068.596;000.570;62;000.297;MIDI 01
069.735;000.584;39;000.414;MIDI 01
069.728;000.694;51;000.438;MIDI 01
068.525;002.092;71;000.531;MIDI 01
070.391;000.743;72;000.484;MIDI 01
071.076;000.304;67;000.297;MIDI 01
071.066;000.346;55;000.305;MIDI 01
071.096;000.360;60;000.336;MIDI 01
071.022;000.723;74;000.492;MIDI 01
072.039;000.095;48;000.375;MIDI 01
072.032;000.170;36;000.375;MIDI 01
071.677;000.844;75;000.477;MIDI 01
072.362;000.562;35;000.477;MIDI 01
072.360;000.606;47;000.469;MIDI 01
073.636;000.364;65;000.336;MIDI 01
073.639;000.366;67;000.328;MIDI 01
073.632;000.383;55;000.336;MIDI 01
073.647;000.397;62;000.391;MIDI 01
074.931;000.603;36;000.414;MIDI 01
074.919;000.640;48;000.430;MIDI 01
073.600;002.163;74;000.547;MIDI 01
075.576;000.706;75;000.516;MIDI 01
076.225;000.338;67;000.391;MIDI 01
076.244;000.322;55;000.344;MIDI 01
076.246;000.399;60;000.398;MIDI 01
076.257;000.395;63;000.312;MIDI 01
076.219;000.856;77;000.555;MIDI 01
076.921;000.552;79;000.477;MIDI 01
077.358;000.503;36;000.375;MIDI 01
077.807;000.447;29;000.289;MIDI 01
077.811;000.474;41;000.281;MIDI 01
077.750;000.832;79;000.398;MIDI 01
078.463;000.616;77;000.438;MIDI 01
079.126;000.487;68;000.039;MIDI 01
079.032;000.724;60;000.242;MIDI 01
079.072;000.785;53;000.250;MIDI 01
079.045;000.874;80;000.461;MIDI 01
079.650;000.831;72;000.438;MIDI 01
080.353;000.555;32;000.258;MIDI 01
080.364;000.622;44;000.281;MIDI 01
080.291;000.814;74;000.430;MIDI 01
080.992;000.167;75;000.375;MIDI 01
081.279;000.068;75;000.336;MIDI 01
081.411;000.118;77;000.438;MIDI 01
081.518;000.053;75;000.336;MIDI 01
081.614;000.083;74;000.383;MIDI 01
081.705;000.123;75;000.453;MIDI 01
081.819;000.720;68;000.320;MIDI 01
081.780;000.862;60;000.273;MIDI 01
081.812;000.960;53;000.180;MIDI 01
081.857;001.509;79;000.461;MIDI 01
082.496;000.896;77;000.422;MIDI 01
083.335;000.488;34;000.281;MIDI 01
083.347;000.558;46;000.305;MIDI 01
084.648;000.056;53;000.258;MIDI 01
084.677;000.407;68;000.250;MIDI 01
084.708;000.389;53;000.102;MIDI 01
084.679;000.460;62;000.141;MIDI 01
084.693;000.525;58;000.305;MIDI 01
083.287;002.593;74;000.375;MIDI 01
085.698;000.268;34;000.391;MIDI 01
085.711;000.266;46;000.367;MIDI 01
086.060;000.531;35;000.461;MIDI 01
086.048;000.618;47;000.430;MIDI 01
087.438;000.296;62;000.328;MIDI 01
087.434;000.317;67;000.273;MIDI 01
087.427;000.333;65;000.258;MIDI 01
087.407;000.365;55;000.359;MIDI 01
088.876;000.171;31;000.297;MIDI 01
088.889;000.179;43;000.273;MIDI 01
089.359;000.389;48;000.414;MIDI 01
089.386;000.372;36;000.367;MIDI 01
090.570;000.432;70;000.320;MIDI 01
090.602;000.472;64;000.234;MIDI 01
090.576;000.522;60;000.328;MIDI 01
090.561;000.801;79;000.453;MIDI 01
091.822;000.465;29;000.383;MIDI 01
091.844;000.458;41;000.336;MIDI 01
093.096;000.318;68;000.289;MIDI 01
093.090;000.481;63;000.266;MIDI 01
093.099;000.474;60;000.312;MIDI 01
093.059;000.790;80;000.477;MIDI 01
094.464;000.420;34;000.352;MIDI 01
094.453;000.513;46;000.352;MIDI 01
095.752;000.574;68;000.281;MIDI 01
095.760;000.690;62;000.195;MIDI 01
095.729;000.802;58;000.312;MIDI 01
095.732;000.834;53;000.188;MIDI 01
095.075;002.022;79;000.469;MIDI 01
096.450;001.269;77;000.453;MIDI 01
097.686;000.324;75;000.383;MIDI 01
098.016;000.200;77;000.383;MIDI 01
097.211;001.058;39;000.336;MIDI 01
097.218;001.098;51;000.297;MIDI 01
098.231;000.098;75;000.406;MIDI 01
098.367;000.069;77;000.477;MIDI 01
098.445;000.329;75;000.383;MIDI 01
098.838;000.417;67;000.297;MIDI 01
098.860;000.438;55;000.227;MIDI 01
098.798;000.503;74;000.445;MIDI 01
098.858;000.516;58;000.273;MIDI 01
098.841;000.539;62;000.266;MIDI 01
099.099;000.627;75;000.500;MIDI 01
099.367;000.391;77;000.500;MIDI 01
099.662;000.251;79;000.508;MIDI 01
100.081;000.150;79;000.445;MIDI 01
100.138;000.510;32;000.297;MIDI 01
100.112;000.565;44;000.336;MIDI 01
101.449;000.473;67;000.305;MIDI 01
101.453;000.514;60;000.266;MIDI 01
101.472;000.575;56;000.273;MIDI 01
100.214;002.682;72;000.430;MIDI 01
102.818;000.504;38;000.180;MIDI 01
102.798;000.526;50;000.227;MIDI 01
104.112;000.476;65;000.203;MIDI 01
104.126;000.573;56;000.250;MIDI 01
104.128;000.652;60;000.219;MIDI 01
105.486;000.392;31;000.297;MIDI 01
105.483;000.448;43;000.289;MIDI 01
105.218;000.787;71;000.289;MIDI 01
104.064;002.523;77;000.352;MIDI 01
106.812;000.546;65;000.109;MIDI 01
106.802;000.589;55;000.258;MIDI 01
106.806;000.659;59;000.234;MIDI 01
105.457;002.920;75;000.406;MIDI 01
107.583;001.467;74;000.367;MIDI 01
108.976;000.394;72;000.336;MIDI 01
109.318;000.145;74;000.297;MIDI 01
108.422;001.162;32;000.289;MIDI 01
109.469;000.122;72;000.344;MIDI 01
108.415;001.201;44;000.297;MIDI 01
109.611;000.070;74;000.438;MIDI 01
109.694;000.442;72;000.352;MIDI 01
110.134;000.492;71;000.414;MIDI 01
110.158;000.597;51;000.383;MIDI 01
110.148;000.615;63;000.297;MIDI 01
110.145;000.682;56;000.266;MIDI 01
110.774;000.410;74;000.547;MIDI 01
110.491;000.779;72;000.500;MIDI 01
111.571;000.631;27;000.352;MIDI 01
111.566;000.638;39;000.375;MIDI 01
111.086;001.249;75;000.523;MIDI 01
111.568;000.814;67;000.547;MIDI 01
113.102;000.494;60;000.383;MIDI 01
113.103;000.535;55;000.344;MIDI 01
113.120;000.653;51;000.320;MIDI 01
114.757;000.863;29;000.344;MIDI 01
113.076;002.609;84;000.625;MIDI 01
114.741;001.007;41;000.359;MIDI 01
115.331;000.420;83;000.531;MIDI 01
115.680;000.336;82;000.555;MIDI 01
116.011;000.308;81;000.586;MIDI 01
116.371;000.358;61;000.352;MIDI 01
116.617;000.243;77;000.539;MIDI 01
116.356;000.536;49;000.375;MIDI 01
116.316;000.582;80;000.547;MIDI 01
116.348;000.560;56;000.422;MIDI 01
116.888;000.345;68;000.508;MIDI 01
117.185;000.539;73;000.492;MIDI 01
117.605;000.520;31;000.469;MIDI 01
117.608;000.536;43;000.422;MIDI 01
117.604;000.646;64;000.469;MIDI 01
118.051;000.341;72;000.547;MIDI 01
118.327;000.147;75;000.531;MIDI 01
118.386;000.240;73;000.547;MIDI 01
118.635;000.260;72;000.586;MIDI 01
118.907;000.202;60;000.430;MIDI 01
118.893;000.293;75;000.570;MIDI 01
118.907;000.327;58;000.469;MIDI 01
118.910;000.389;52;000.438;MIDI 01
119.170;000.320;76;000.430;MIDI 01
119.453;000.429;80;000.609;MIDI 01
119.844;000.330;79;000.578;MIDI 01
120.200;000.522;65;000.523;MIDI 01
120.214;000.540;32;000.430;MIDI 01
120.216;000.586;44;000.461;MIDI 01
120.565;000.601;72;000.578;MIDI 01
120.840;000.330;77;000.562;MIDI 01
121.104;000.330;79;000.625;MIDI 01
121.464;000.693;60;000.500;MIDI 01
121.477;000.767;53;000.453;MIDI 01
121.449;000.884;82;000.609;MIDI 01
121.971;000.379;80;000.641;MIDI 01
122.278;000.345;72;000.562;MIDI 01
122.583;000.495;74;000.648;MIDI 01
123.021;000.568;31;000.430;MIDI 01
123.024;000.574;43;000.461;MIDI 01
123.011;001.458;75;000.633;MIDI 01
124.402;000.644;60;000.375;MIDI 01
124.392;000.702;55;000.375;MIDI 01
124.404;000.750;51;000.367;MIDI 01
125.472;000.255;72;000.609;MIDI 01
125.693;000.180;74;000.656;MIDI 01
125.847;000.114;72;000.633;MIDI 01
126.018;000.549;43;000.508;MIDI 01
126.022;000.559;31;000.438;MIDI 01
125.997;001.439;67;000.664;MIDI 01
127.430;000.960;59;000.336;MIDI 01
127.431;000.996;50;000.328;MIDI 01
127.442;001.004;55;000.367;MIDI 01
128.358;000.409;67;000.523;MIDI 01
128.721;000.298;68;000.586;MIDI 01
128.961;000.331;67;000.562;MIDI 01
130.629;001.060;58;000.414;MIDI 01
130.656;001.283;55;000.391;MIDI 01
132.040;000.971;54;000.289;MIDI 01
132.029;001.367;57;000.336;MIDI 01
129.345;004.628;24;000.375;MIDI 01
133.480;000.965;56;000.273;MIDI 01
133.477;000.970;53;000.234;MIDI 01
129.333;007.997;36;000.398;MIDI 01
135.209;002.169;48;000.289;MIDI 01
135.203;002.303;64;000.289;MIDI 01
135.197;002.358;52;000.234;MIDI 01
135.200;002.359;55;000.266;MIDI 01
129.305;008.285;60;000.570;MIDI 01
138.412;000.933;62;000.297;MIDI 01
138.431;000.917;53;000.188;MIDI 01
138.439;000.914;31;000.266;MIDI 01
138.459;000.899;55;000.164;MIDI 01
138.449;000.939;59;000.273;MIDI 01
138.457;001.203;43;000.195;MIDI 01
140.159;000.664;53;000.062;MIDI 01
140.142;000.703;59;000.203;MIDI 01
140.131;000.716;55;000.172;MIDI 01
140.121;000.762;64;000.258;MIDI 01
140.173;000.817;43;000.242;MIDI 01
141.289;000.183;65;000.344;MIDI 01
141.356;000.181;53;000.023;MIDI 01
141.314;000.244;43;000.266;MIDI 01
141.846;001.059;55;000.109;MIDI 01
141.851;001.062;52;000.211;MIDI 01
141.852;001.065;60;000.289;MIDI 01
141.874;001.111;36;000.273;MIDI 01
141.878;001.116;48;000.266;MIDI 01
141.841;001.240;64;000.289;MIDI 01
143.402;000.961;48;000.188;MIDI 01
143.392;001.050;52;000.156;MIDI 01
143.430;001.032;36;000.172;MIDI 01
143.383;001.216;55;000.195;MIDI 01
144.804;000.675;60;000.281;MIDI 01
144.807;000.801;52;000.180;MIDI 01
144.820;000.960;36;000.133;MIDI 01
144.903;001.074;43;000.203;MIDI 01
146.270;000.598;55;000.305;MIDI 01
146.257;000.665;64;000.289;MIDI 01
146.272;000.688;60;000.305;MIDI 01
146.309;000.791;48;000.211;MIDI 01
146.316;000.856;36;000.102;MIDI 01
148.012;001.940;36;000.203;MIDI 01
147.933;002.031;55;000.266;MIDI 01
147.909;002.076;67;000.383;MIDI 01
147.961;002.042;52;000.203;MIDI 01
147.926;002.137;60;000.320;MIDI 01
147.939;002.189;43;000.273;MIDI 01
151.093;000.753;52;000.164;MIDI 01
151.071;000.939;57;000.242;MIDI 01
151.085;000.931;45;000.242;MIDI 01
151.054;001.104;64;000.305;MIDI 01
151.079;001.615;60;000.289;MIDI 01
152.684;000.150;64;000.344;MIDI 01
152.729;000.785;52;000.188;MIDI 01
152.804;000.722;62;000.336;MIDI 01
152.801;000.727;33;000.242;MIDI 01
152.775;000.818;57;000.164;MIDI 01
152.802;000.818;45;000.266;MIDI 01
154.359;000.243;52;000.344;MIDI 01
154.389;000.620;33;000.234;MIDI 01
154.385;002.870;45;000.266;MIDI 01
154.335;002.975;60;000.375;MIDI 01
154.391;002.956;57;000.117;MIDI 01
154.830;002.520;62;000.422;MIDI 01
154.843;002.544;50;000.344;MIDI 01
154.836;002.554;54;000.320;MIDI 01
154.880;002.512;38;000.305;MIDI 01
158.297;000.725;55;000.156;MIDI 01
158.289;000.773;59;000.211;MIDI 01
158.308;000.779;43;000.141;MIDI 01
158.286;000.823;62;000.234;MIDI 01
158.281;000.859;31;000.242;MIDI 01
160.030;000.647;65;000.281;MIDI 01
160.065;000.615;53;000.141;MIDI 01
160.052;000.639;59;000.250;MIDI 01
160.041;000.673;63;000.281;MIDI 01
160.050;000.975;43;000.219;MIDI 01
160.039;001.499;55;000.172;MIDI 01
160.012;001.635;67;000.359;MIDI 01
161.422;000.339;36;000.297;MIDI 01
161.628;000.141;43;000.359;MIDI 01
161.796;000.177;48;000.344;MIDI 01
162.119;000.392;55;000.305;MIDI 01
162.080;002.602;76;000.438;MIDI 01
164.633;000.069;43;000.328;MIDI 01
162.144;002.562;64;000.258;MIDI 01
164.445;000.269;36;000.266;MIDI 01
162.132;002.715;67;000.211;MIDI 01
164.851;000.229;53;000.273;MIDI 01
165.055;000.150;55;000.328;MIDI 01
165.061;001.173;62;000.250;MIDI 01
165.088;001.196;67;000.219;MIDI 01
165.054;001.231;74;000.383;MIDI 01
166.069;000.260;36;000.242;MIDI 01
166.221;000.110;43;000.344;MIDI 01
166.370;000.084;48;000.375;MIDI 01
166.597;000.051;55;000.289;MIDI 01
166.580;000.463;64;000.273;MIDI 01
166.559;000.523;76;000.461;MIDI 01
166.961;000.147;36;000.352;MIDI 01
167.054;000.070;43;000.352;MIDI 01
166.578;000.645;67;000.344;MIDI 01
167.191;000.081;50;000.383;MIDI 01
167.390;000.042;55;000.406;MIDI 01
167.378;000.129;67;000.219;MIDI 01
167.351;000.542;77;000.484;MIDI 01
167.367;000.528;65;000.359;MIDI 01
167.765;000.248;36;000.406;MIDI 01
167.903;000.136;43;000.312;MIDI 01
168.071;000.259;48;000.406;MIDI 01
168.396;000.289;55;000.383;MIDI 01
168.392;000.548;76;000.508;MIDI 01
168.098;000.859;64;000.359;MIDI 01
168.295;000.665;72;000.438;MIDI 01
168.189;000.810;67;000.406;MIDI 01
169.908;000.464;43;000.242;MIDI 01
169.910;000.471;55;000.156;MIDI 01
169.914;000.533;52;000.227;MIDI 01
169.912;000.539;36;000.320;MIDI 01
169.902;000.631;60;000.305;MIDI 01
169.896;000.731;64;000.305;MIDI 01
169.892;000.784;67;000.344;MIDI 01
171.333;000.692;57;000.430;MIDI 01
171.331;000.700;60;000.375;MIDI 01
171.336;000.706;45;000.398;MIDI 01
171.342;000.771;52;000.406;MIDI 01
171.340;000.794;64;000.391;MIDI 01
171.347;000.875;69;000.352;MIDI 01
171.314;000.978;72;000.492;MIDI 01
172.654;000.215;40;000.398;MIDI 01
172.829;000.183;52;000.383;MIDI 01
173.156;000.073;59;000.383;MIDI 01
172.999;001.201;67;000.391;MIDI 01
174.273;000.072;43;000.398;MIDI 01
174.055;000.296;36;000.359;MIDI 01
173.072;001.294;71;000.406;MIDI 01
173.151;001.230;76;000.445;MIDI 01
174.415;000.036;48;000.414;MIDI 01
172.918;001.629;64;000.367;MIDI 01
174.551;000.092;52;000.445;MIDI 01
174.691;000.046;64;000.398;MIDI 01
174.662;000.106;55;000.383;MIDI 01
174.809;000.110;60;000.383;MIDI 01
174.914;002.599;72;000.516;MIDI 01
175.086;002.457;79;000.562;MIDI 01
174.986;002.581;76;000.469;MIDI 01
174.793;002.811;67;000.492;MIDI 01
177.461;000.246;40;000.320;MIDI 01
177.646;000.395;47;000.328;MIDI 01
177.967;000.354;56;000.352;MIDI 01
177.921;000.602;76;000.453;MIDI 01
177.972;000.584;64;000.180;MIDI 01
177.938;000.619;71;000.352;MIDI 01
177.953;000.611;68;000.305;MIDI 01
179.652;000.550;41;000.320;MIDI 01
179.639;000.584;50;000.227;MIDI 01
179.678;000.656;57;000.195;MIDI 01
179.645;000.734;69;000.320;MIDI 01
179.626;000.763;74;000.398;MIDI 01
179.649;000.745;60;000.188;MIDI 01
179.647;000.768;62;000.188;MIDI 01
181.041;000.181;59;000.102;MIDI 01
180.997;000.350;67;000.359;MIDI 01
181.015;000.573;43;000.289;MIDI 01
181.048;000.550;50;000.164;MIDI 01
181.031;000.569;55;000.242;MIDI 01
181.950;000.409;55;000.172;MIDI 01
181.940;000.497;50;000.234;MIDI 01
181.924;001.959;43;000.297;MIDI 01
183.482;000.500;31;000.258;MIDI 01
181.508;002.827;65;000.367;MIDI 01
181.599;002.926;67;000.344;MIDI 01
181.898;002.694;74;000.445;MIDI 01
181.373;003.256;59;000.367;MIDI 01
184.645;000.082;43;000.297;MIDI 01
184.448;000.281;36;000.328;MIDI 01
184.787;000.096;48;000.336;MIDI 01
184.958;000.067;55;000.438;MIDI 01
185.030;001.173;60;000.305;MIDI 01
185.115;001.433;64;000.359;MIDI 01
185.244;001.914;72;000.375;MIDI 01
188.103;000.101;48;000.359;MIDI 01
187.914;000.314;41;000.344;MIDI 01
188.283;000.142;53;000.156;MIDI 01
188.551;000.107;60;000.234;MIDI 01
188.471;002.180;81;000.492;MIDI 01
188.503;002.210;72;000.344;MIDI 01
188.555;002.165;69;000.164;MIDI 01
191.090;000.686;55;000.312;MIDI 01
190.748;001.124;40;000.312;MIDI 01
190.924;001.032;48;000.273;MIDI 01
191.076;001.321;67;000.281;MIDI 01
191.067;001.332;72;000.328;MIDI 01
191.026;001.391;79;000.484;MIDI 01
192.319;000.210;39;000.352;MIDI 01
192.509;000.092;48;000.344;MIDI 01
192.676;000.122;72;000.281;MIDI 01
192.713;000.323;57;000.359;MIDI 01
192.662;000.721;81;000.438;MIDI 01
192.748;000.641;69;000.148;MIDI 01
192.801;000.685;72;000.023;MIDI 01
192.716;001.017;67;000.180;MIDI 01
193.701;000.271;38;000.367;MIDI 01
193.845;000.129;45;000.320;MIDI 01
193.998;000.121;50;000.305;MIDI 01
194.169;000.252;57;000.453;MIDI 01
194.105;000.510;78;000.453;MIDI 01
194.129;000.561;74;000.406;MIDI 01
194.137;000.614;66;000.312;MIDI 01
195.632;000.106;42;000.367;MIDI 01
195.675;000.322;57;000.133;MIDI 01
195.641;000.591;50;000.320;MIDI 01
195.636;000.621;60;000.250;MIDI 01
195.743;000.520;42;000.023;MIDI 01
195.639;000.626;69;000.344;MIDI 01
195.604;000.680;74;000.367;MIDI 01
196.577;000.075;58;000.258;MIDI 01
196.557;000.161;42;000.297;MIDI 01
196.552;000.171;50;000.336;MIDI 01
196.569;000.194;62;000.312;MIDI 01
196.549;000.222;74;000.367;MIDI 01
196.554;000.267;70;000.406;MIDI 01
197.102;000.692;50;000.273;MIDI 01
197.078;000.792;43;000.375;MIDI 01
197.076;000.801;71;000.375;MIDI 01
197.153;000.725;59;000.094;MIDI 01
197.072;000.862;62;000.305;MIDI 01
197.055;000.882;74;000.422;MIDI 01
198.531;000.627;62;000.250;MIDI 01
198.542;000.689;60;000.211;MIDI 01
198.516;000.719;66;000.289;MIDI 01
198.571;000.745;50;000.211;MIDI 01
198.522;000.841;74;000.328;MIDI 01
198.559;000.973;45;000.281;MIDI 01
199.974;000.062;50;000.336;MIDI 01
199.805;000.278;43;000.297;MIDI 01
200.114;000.055;55;000.242;MIDI 01
200.317;000.418;62;000.141;MIDI 01
200.739;000.198;62;000.094;MIDI 01
200.270;002.489;71;000.438;MIDI 01
200.239;002.604;83;000.555;MIDI 01
200.266;002.579;74;000.438;MIDI 01
202.714;000.315;42;000.320;MIDI 01
203.078;000.147;74;000.367;MIDI 01
202.890;000.472;50;000.328;MIDI 01
203.085;000.282;57;000.336;MIDI 01
203.071;001.239;69;000.352;MIDI 01
203.043;001.283;81;000.516;MIDI 01
204.126;000.241;41;000.336;MIDI 01
204.564;000.163;71;000.211;MIDI 01
204.321;000.480;47;000.305;MIDI 01
204.558;000.249;59;000.344;MIDI 01
204.536;000.321;51;000.367;MIDI 01
204.551;000.645;69;000.203;MIDI 01
204.508;000.805;83;000.508;MIDI 01
204.528;000.920;75;000.367;MIDI 01
205.665;000.316;40;000.383;MIDI 01
205.867;000.141;47;000.328;MIDI 01
206.033;000.142;52;000.320;MIDI 01
206.011;000.261;71;000.367;MIDI 01
206.279;000.244;59;000.359;MIDI 01
205.905;002.652;68;000.344;MIDI 01
206.192;002.375;80;000.453;MIDI 01
208.510;000.222;40;000.328;MIDI 01
208.678;000.097;47;000.320;MIDI 01
208.831;000.096;52;000.227;MIDI 01
206.095;002.872;76;000.367;MIDI 01
209.027;000.301;59;000.406;MIDI 01
208.984;000.758;79;000.469;MIDI 01
209.034;000.732;67;000.234;MIDI 01
208.997;000.826;76;000.102;MIDI 01
210.649;000.897;79;000.367;MIDI 01
210.713;001.099;59;000.219;MIDI 01
210.719;001.145;50;000.141;MIDI 01
210.707;001.210;65;000.273;MIDI 01
210.707;001.233;67;000.281;MIDI 01
210.711;001.577;43;000.320;MIDI 01
211.450;001.144;77;000.398;MIDI 01
210.684;001.954;74;000.352;MIDI 01
212.443;000.699;76;000.344;MIDI 01
212.812;000.394;36;000.258;MIDI 01
213.056;000.192;43;000.266;MIDI 01
213.183;000.303;64;000.266;MIDI 01
213.282;000.232;48;000.289;MIDI 01
213.725;000.050;55;000.172;MIDI 01
213.519;002.494;76;000.422;MIDI 01
213.361;002.689;72;000.359;MIDI 01
213.795;002.338;79;000.414;MIDI 01
215.995;000.230;36;000.336;MIDI 01
216.215;000.047;43;000.281;MIDI 01
216.539;000.094;55;000.352;MIDI 01
216.484;001.146;79;000.398;MIDI 01
216.551;001.139;65;000.219;MIDI 01
217.644;000.053;43;000.312;MIDI 01
217.496;000.216;36;000.305;MIDI 01
216.555;001.158;67;000.117;MIDI 01
216.514;001.205;71;000.281;MIDI 01
216.492;001.300;74;000.344;MIDI 01
217.927;000.040;55;000.336;MIDI 01
217.908;000.172;65;000.227;MIDI 01
217.912;000.171;67;000.180;MIDI 01
217.933;000.180;71;000.227;MIDI 01
217.892;000.431;76;000.406;MIDI 01
217.895;000.505;79;000.391;MIDI 01
218.286;000.116;36;000.305;MIDI 01
218.430;000.049;43;000.281;MIDI 01
218.636;000.058;55;000.344;MIDI 01
218.641;000.079;71;000.062;MIDI 01
218.632;000.511;67;000.258;MIDI 01
218.622;000.527;65;000.266;MIDI 01
219.222;000.073;43;000.352;MIDI 01
218.592;000.705;79;000.375;MIDI 01
219.068;000.241;36;000.383;MIDI 01
218.603;000.749;77;000.438;MIDI 01
219.361;000.108;48;000.359;MIDI 01
219.661;000.233;55;000.367;MIDI 01
219.348;000.860;64;000.305;MIDI 01
219.704;000.522;79;000.312;MIDI 01
219.568;000.692;76;000.391;MIDI 01
219.446;000.817;72;000.359;MIDI 01
221.239;000.586;43;000.250;MIDI 01
221.221;000.640;55;000.258;MIDI 01
221.226;000.667;36;000.305;MIDI 01
221.252;000.681;52;000.164;MIDI 01
221.231;000.729;60;000.250;MIDI 01
221.193;000.775;67;000.352;MIDI 01
221.204;000.794;64;000.258;MIDI 01
222.716;000.501;60;000.383;MIDI 01
222.717;000.629;64;000.391;MIDI 01
222.696;000.728;72;000.492;MIDI 01
222.735;000.719;69;000.359;MIDI 01
222.743;000.902;45;000.320;MIDI 01
222.738;000.982;52;000.367;MIDI 01
222.740;001.334;57;000.375;MIDI 01
223.924;000.258;43;000.438;MIDI 01
224.293;000.336;60;000.445;MIDI 01
224.097;000.544;52;000.445;MIDI 01
224.256;000.479;64;000.430;MIDI 01
224.269;000.519;67;000.375;MIDI 01
224.243;000.629;76;000.531;MIDI 01
224.271;000.621;72;000.398;MIDI 01
226.020;000.306;76;000.445;MIDI 01
226.031;000.320;72;000.383;MIDI 01
226.007;000.346;79;000.516;MIDI 01
226.025;000.387;67;000.312;MIDI 01
226.023;000.480;43;000.375;MIDI 01
226.028;000.488;31;000.352;MIDI 01
227.234;000.091;30;000.148;MIDI 01
227.220;000.108;54;000.227;MIDI 01
227.200;000.183;66;000.305;MIDI 01
227.208;000.198;42;000.305;MIDI 01
227.527;000.061;55;000.289;MIDI 01
227.511;000.079;67;000.312;MIDI 01
227.525;000.069;31;000.281;MIDI 01
227.711;000.039;67;000.359;MIDI 01
227.750;000.026;55;000.031;MIDI 01
227.718;000.064;43;000.109;MIDI 01
227.886;000.043;67;000.359;MIDI 01
227.905;000.057;43;000.109;MIDI 01
228.062;000.033;56;000.422;MIDI 01
228.057;000.043;68;000.477;MIDI 01
228.064;000.041;44;000.461;MIDI 01
228.069;000.055;32;000.375;MIDI 01
228.221;000.039;56;000.406;MIDI 01
228.221;000.044;68;000.422;MIDI 01
228.226;000.047;44;000.383;MIDI 01
228.379;000.059;56;000.375;MIDI 01
228.370;000.088;68;000.438;MIDI 01
228.427;000.046;44;000.273;MIDI 01
228.577;000.049;55;000.328;MIDI 01
228.384;000.255;32;000.242;MIDI 01
228.570;000.072;67;000.336;MIDI 01
228.596;000.064;31;000.289;MIDI 01
228.600;000.065;43;000.250;MIDI 01
228.777;000.117;55;000.383;MIDI 01
228.812;000.085;31;000.375;MIDI 01
228.811;000.197;43;000.344;MIDI 01
228.772;000.259;67;000.477;MIDI 01
229.326;000.143;43;000.430;MIDI 01
229.603;000.471;60;000.500;MIDI 01
229.441;000.732;50;000.344;MIDI 01
229.534;000.700;53;000.320;MIDI 01
229.610;001.198;64;000.469;MIDI 01
229.585;001.248;76;000.648;MIDI 01
229.616;001.232;67;000.422;MIDI 01
231.195;000.192;59;000.406;MIDI 01
231.197;000.230;74;000.539;MIDI 01
231.208;000.233;67;000.445;MIDI 01
231.222;000.245;53;000.289;MIDI 01
231.228;000.244;50;000.328;MIDI 01
231.215;000.290;62;000.406;MIDI 01
231.233;000.416;43;000.352;MIDI 01
232.016;000.274;31;000.320;MIDI 01
232.018;000.274;43;000.336;MIDI 01
232.014;000.317;55;000.305;MIDI 01
232.055;000.290;62;000.250;MIDI 01
232.007;000.366;65;000.383;MIDI 01
231.984;000.417;67;000.367;MIDI 01
232.975;000.315;59;000.492;MIDI 01
232.983;000.310;43;000.453;MIDI 01
232.981;000.335;50;000.430;MIDI 01
232.947;000.374;74;000.625;MIDI 01
232.968;000.359;65;000.508;MIDI 01
232.965;000.376;62;000.523;MIDI 01
232.994;000.352;53;000.344;MIDI 01
232.970;000.383;67;000.477;MIDI 01
234.314;000.083;54;000.039;MIDI 01
234.296;000.164;30;000.172;MIDI 01
234.298;000.178;42;000.203;MIDI 01
234.281;000.197;66;000.312;MIDI 01
234.575;000.061;67;000.375;MIDI 01
234.597;000.053;55;000.258;MIDI 01
234.582;000.078;31;000.320;MIDI 01
234.619;000.070;43;000.094;MIDI 01
234.765;000.054;67;000.422;MIDI 01
234.793;000.032;55;000.312;MIDI 01
234.789;000.052;43;000.195;MIDI 01
234.777;000.066;31;000.359;MIDI 01
234.961;000.064;56;000.352;MIDI 01
234.973;000.072;44;000.461;MIDI 01
234.978;000.071;32;000.422;MIDI 01
234.964;000.199;68;000.445;MIDI 01
235.141;000.077;69;000.414;MIDI 01
235.170;000.049;57;000.289;MIDI 01
235.183;000.080;33;000.234;MIDI 01
235.189;000.081;45;000.219;MIDI 01
235.298;000.046;45;000.344;MIDI 01
235.291;000.061;69;000.352;MIDI 01
235.296;000.064;33;000.297;MIDI 01
235.323;000.055;57;000.250;MIDI 01
235.474;000.044;58;000.469;MIDI 01
235.489;000.065;46;000.508;MIDI 01
235.501;000.085;34;000.406;MIDI 01
235.476;000.178;70;000.523;MIDI 01
235.637;000.040;59;000.453;MIDI 01
235.632;000.051;71;000.477;MIDI 01
235.660;000.041;47;000.406;MIDI 01
235.683;000.071;35;000.211;MIDI 01
235.795;000.078;59;000.523;MIDI 01
235.817;000.065;47;000.445;MIDI 01
235.785;000.106;35;000.328;MIDI 01
235.789;000.116;71;000.562;MIDI 01
236.065;001.446;36;000.516;MIDI 01
236.073;001.731;48;000.523;MIDI 01
236.075;001.753;60;000.453;MIDI 01
236.062;001.892;64;000.461;MIDI 01
236.050;002.130;72;000.570;MIDI 01
238.350;000.310;41;000.469;MIDI 01
238.557;000.132;48;000.406;MIDI 01
238.772;000.065;53;000.195;MIDI 01
238.909;000.224;60;000.508;MIDI 01
238.896;000.303;81;000.633;MIDI 01
238.914;000.301;72;000.570;MIDI 01
238.911;000.307;69;000.547;MIDI 01
239.899;000.086;35;000.266;MIDI 01
239.893;000.097;59;000.273;MIDI 01
239.906;000.109;47;000.273;MIDI 01
239.873;000.155;71;000.398;MIDI 01
240.205;000.049;48;000.352;MIDI 01
240.197;000.059;60;000.352;MIDI 01
240.208;000.055;36;000.359;MIDI 01
240.180;000.085;72;000.445;MIDI 01
240.373;000.041;60;000.320;MIDI 01
240.360;000.064;72;000.367;MIDI 01
240.376;000.079;48;000.438;MIDI 01
240.526;000.043;60;000.422;MIDI 01
240.512;000.062;72;000.406;MIDI 01
240.702;000.056;73;000.531;MIDI 01
240.715;000.048;61;000.422;MIDI 01
240.424;000.342;36;000.289;MIDI 01
240.725;000.043;49;000.430;MIDI 01
240.731;000.049;37;000.352;MIDI 01
240.885;000.036;49;000.414;MIDI 01
240.857;000.068;73;000.500;MIDI 01
240.908;000.044;61;000.203;MIDI 01
241.015;000.049;61;000.406;MIDI 01
240.903;000.198;37;000.367;MIDI 01
241.020;000.088;49;000.492;MIDI 01
241.206;000.039;50;000.422;MIDI 01
241.208;000.040;62;000.312;MIDI 01
241.188;000.062;74;000.500;MIDI 01
241.210;000.069;38;000.422;MIDI 01
241.368;000.033;63;000.438;MIDI 01
241.373;000.050;39;000.477;MIDI 01
241.373;000.052;75;000.531;MIDI 01
241.387;000.040;51;000.461;MIDI 01
241.781;000.369;63;000.500;MIDI 01
241.783;000.369;60;000.477;MIDI 01
241.783;000.375;55;000.477;MIDI 01
241.748;000.469;79;000.648;MIDI 01
241.764;000.464;72;000.602;MIDI 01
241.771;000.492;51;000.500;MIDI 01
241.769;000.526;67;000.562;MIDI 01
242.658;000.047;72;000.375;MIDI 01
242.664;000.057;48;000.312;MIDI 01
242.668;000.055;60;000.273;MIDI 01
242.866;000.046;73;000.469;MIDI 01
242.878;000.047;49;000.477;MIDI 01
242.642;000.293;36;000.398;MIDI 01
242.886;000.050;37;000.414;MIDI 01
242.884;000.055;61;000.344;MIDI 01
243.019;000.057;73;000.484;MIDI 01
243.041;000.052;49;000.391;MIDI 01
243.203;000.042;49;000.445;MIDI 01
243.182;000.094;73;000.508;MIDI 01
243.358;000.065;74;000.508;MIDI 01
243.387;000.054;50;000.266;MIDI 01
243.403;000.053;38;000.203;MIDI 01
243.523;000.034;74;000.406;MIDI 01
243.519;000.066;62;000.047;MIDI 01
243.540;000.053;38;000.266;MIDI 01
243.567;000.039;50;000.258;MIDI 01
243.684;000.032;62;000.469;MIDI 01
243.670;000.064;50;000.508;MIDI 01
243.665;000.075;74;000.570;MIDI 01
243.679;000.076;38;000.461;MIDI 01
243.876;000.040;51;000.531;MIDI 01
243.892;000.031;63;000.445;MIDI 01
243.878;000.048;39;000.430;MIDI 01
243.881;000.051;75;000.594;MIDI 01
244.213;000.032;69;000.508;MIDI 01
244.204;000.053;67;000.500;MIDI 01
244.206;000.062;72;000.453;MIDI 01
244.182;000.097;81;000.688;MIDI 01
244.231;000.055;57;000.352;MIDI 01
244.215;000.097;51;000.492;MIDI 01
244.208;000.105;63;000.516;MIDI 01
244.217;000.108;55;000.461;MIDI 01
244.569;000.402;78;000.648;MIDI 01
244.593;000.419;57;000.398;MIDI 01
244.582;000.448;62;000.523;MIDI 01
244.588;000.443;74;000.555;MIDI 01
244.578;000.472;69;000.570;MIDI 01
244.584;000.474;66;000.562;MIDI 01
244.580;000.542;50;000.500;MIDI 01
245.611;000.075;61;000.312;MIDI 01
245.623;000.078;49;000.266;MIDI 01
245.611;000.093;37;000.266;MIDI 01
245.598;000.129;73;000.367;MIDI 01
245.857;000.055;74;000.461;MIDI 01
245.887;000.035;62;000.328;MIDI 01
245.901;000.052;38;000.297;MIDI 01
246.053;000.030;74;000.383;MIDI 01
246.067;000.109;62;000.250;MIDI 01
246.194;000.048;62;000.273;MIDI 01
246.192;000.056;50;000.117;MIDI 01
246.175;000.079;38;000.117;MIDI 01
246.211;000.045;74;000.352;MIDI 01
246.370;000.036;75;000.469;MIDI 01
246.377;000.033;63;000.359;MIDI 01
246.384;000.030;51;000.391;MIDI 01
246.382;000.041;39;000.383;MIDI 01
246.517;000.035;75;000.469;MIDI 01
246.545;000.033;63;000.367;MIDI 01
246.553;000.036;51;000.312;MIDI 01
246.693;000.036;63;000.469;MIDI 01
246.668;000.064;75;000.508;MIDI 01
246.698;000.035;51;000.453;MIDI 01
246.674;000.061;39;000.328;MIDI 01
246.834;000.028;64;000.406;MIDI 01
246.822;000.047;76;000.500;MIDI 01
246.841;000.030;40;000.422;MIDI 01
246.843;000.032;52;000.383;MIDI 01
246.973;000.037;76;000.492;MIDI 01
246.978;000.037;64;000.406;MIDI 01
246.980;000.047;52;000.469;MIDI 01
246.975;000.075;40;000.516;MIDI 01
247.118;000.033;64;000.523;MIDI 01
247.126;000.042;52;000.500;MIDI 01
247.131;000.039;40;000.359;MIDI 01
247.113;000.059;76;000.516;MIDI 01
247.286;000.042;53;000.492;MIDI 01
247.289;000.041;77;000.555;MIDI 01
247.300;000.030;65;000.445;MIDI 01
247.295;000.040;41;000.453;MIDI 01
247.435;000.042;53;000.461;MIDI 01
247.448;000.033;65;000.430;MIDI 01
247.443;000.046;77;000.555;MIDI 01
247.438;000.059;41;000.500;MIDI 01
247.570;000.045;53;000.516;MIDI 01
247.572;000.044;65;000.562;MIDI 01
247.568;000.050;77;000.508;MIDI 01
247.731;000.045;78;000.539;MIDI 01
247.748;000.030;66;000.438;MIDI 01
247.740;000.041;54;000.508;MIDI 01
247.751;000.042;42;000.430;MIDI 01
247.772;000.039;41;000.094;MIDI 01
247.861;000.045;54;000.562;MIDI 01
247.872;000.051;66;000.539;MIDI 01
247.865;000.067;78;000.508;MIDI 01
247.927;000.081;42;000.289;MIDI 01
248.026;000.071;66;000.516;MIDI 01
248.022;000.093;54;000.477;MIDI 01
248.012;000.115;42;000.180;MIDI 01
248.039;000.111;78;000.570;MIDI 01
248.208;000.039;67;000.500;MIDI 01
248.213;000.046;55;000.539;MIDI 01
248.200;000.073;79;000.578;MIDI 01
248.220;000.062;43;000.469;MIDI 01
248.390;000.038;68;000.516;MIDI 01
248.402;000.036;56;000.484;MIDI 01
248.408;000.033;44;000.438;MIDI 01
248.383;000.062;80;000.602;MIDI 01
248.558;000.089;68;000.531;MIDI 01
248.552;000.109;56;000.570;MIDI 01
248.564;000.161;44;000.547;MIDI 01
248.738;000.045;69;000.586;MIDI 01
248.740;000.054;57;000.562;MIDI 01
248.743;000.053;45;000.547;MIDI 01
248.568;000.231;80;000.633;MIDI 01
248.735;000.083;81;000.609;MIDI 01
248.956;000.041;70;000.609;MIDI 01
248.949;000.052;58;000.562;MIDI 01
248.947;000.106;46;000.555;MIDI 01
248.945;000.117;82;000.617;MIDI 01
249.342;000.358;59;000.531;MIDI 01
249.325;000.399;83;000.711;MIDI 01
249.340;000.405;71;000.648;MIDI 01
249.339;000.411;74;000.664;MIDI 01
249.348;000.451;50;000.469;MIDI 01
249.346;000.558;43;000.492;MIDI 01
250.282;000.039;61;000.320;MIDI 01
250.271;000.052;73;000.422;MIDI 01
250.268;000.070;37;000.289;MIDI 01
250.300;000.054;49;000.258;MIDI 01
250.446;000.046;74;000.469;MIDI 01
250.468;000.051;38;000.359;MIDI 01
250.492;000.049;50;000.188;MIDI 01
250.606;000.030;74;000.430;MIDI 01
250.621;000.041;38;000.312;MIDI 01
250.740;000.036;74;000.555;MIDI 01
250.743;000.046;38;000.430;MIDI 01
250.738;000.054;50;000.320;MIDI 01
250.745;000.053;62;000.297;MIDI 01
250.910;000.040;75;000.492;MIDI 01
250.921;000.032;63;000.398;MIDI 01
250.919;000.040;51;000.484;MIDI 01
250.914;000.052;39;000.500;MIDI 01
251.064;000.029;63;000.430;MIDI 01
251.054;000.041;51;000.516;MIDI 01
251.071;000.026;75;000.391;MIDI 01
251.192;000.047;63;000.438;MIDI 01
251.198;000.070;75;000.547;MIDI 01
251.196;000.091;51;000.508;MIDI 01
251.194;000.129;39;000.359;MIDI 01
251.338;000.040;64;000.516;MIDI 01
251.339;000.048;76;000.539;MIDI 01
251.366;000.033;52;000.438;MIDI 01
251.519;000.033;65;000.516;MIDI 01
251.517;000.040;41;000.414;MIDI 01
251.505;000.069;77;000.633;MIDI 01
251.525;000.059;53;000.570;MIDI 01
251.543;000.053;43;000.312;MIDI 01
252.037;000.301;65;000.555;MIDI 01
252.034;000.319;62;000.500;MIDI 01
252.043;000.334;59;000.469;MIDI 01
252.028;000.355;74;000.633;MIDI 01
252.041;000.345;57;000.469;MIDI 01
252.039;000.348;71;000.562;MIDI 01
252.018;000.374;81;000.711;MIDI 01
252.036;000.376;69;000.578;MIDI 01
252.039;000.392;53;000.484;MIDI 01
252.832;000.073;74;000.422;MIDI 01
252.844;000.064;50;000.281;MIDI 01
252.830;000.077;62;000.383;MIDI 01
253.078;000.037;75;000.477;MIDI 01
253.096;000.036;63;000.297;MIDI 01
252.833;000.301;38;000.188;MIDI 01
253.110;000.036;51;000.352;MIDI 01
253.119;000.057;39;000.320;MIDI 01
253.226;000.049;75;000.547;MIDI 01
253.252;000.025;63;000.406;MIDI 01
253.264;000.042;51;000.312;MIDI 01
253.394;000.035;63;000.477;MIDI 01
253.384;000.058;75;000.523;MIDI 01
253.398;000.049;51;000.477;MIDI 01
253.389;000.190;39;000.133;MIDI 01
253.554;000.028;64;000.438;MIDI 01
253.556;000.034;52;000.508;MIDI 01
253.554;000.042;40;000.461;MIDI 01
253.529;000.075;76;000.570;MIDI 01
253.693;000.034;64;000.477;MIDI 01
253.691;000.041;76;000.484;MIDI 01
253.697;000.040;52;000.523;MIDI 01
253.701;000.039;40;000.492;MIDI 01
253.835;000.054;64;000.508;MIDI 01
253.858;000.034;40;000.492;MIDI 01
253.847;000.058;76;000.523;MIDI 01
253.832;000.079;52;000.523;MIDI 01
254.028;000.032;65;000.531;MIDI 01
254.025;000.055;53;000.570;MIDI 01
254.020;000.068;77;000.594;MIDI 01
254.055;000.037;41;000.352;MIDI 01
254.380;000.003;65;000.336;MIDI 01
254.347;000.101;75;000.648;MIDI 01
254.346;000.109;83;000.680;MIDI 01
254.371;000.092;63;000.609;MIDI 01
254.375;000.095;53;000.484;MIDI 01
254.361;000.114;71;000.609;MIDI 01
254.387;000.090;57;000.508;MIDI 01
254.390;000.100;59;000.531;MIDI 01
254.351;000.172;69;000.609;MIDI 01
254.746;000.361;64;000.625;MIDI 01
254.749;000.382;68;000.602;MIDI 01
254.751;000.382;59;000.508;MIDI 01
254.729;000.422;80;000.633;MIDI 01
254.747;000.420;71;000.523;MIDI 01
254.753;000.453;52;000.578;MIDI 01
254.741;000.493;76;000.586;MIDI 01
255.720;000.233;63;000.391;MIDI 01
255.732;000.267;51;000.344;MIDI 01
255.738;000.271;39;000.289;MIDI 01
255.697;000.373;75;000.492;MIDI 01
256.087;000.050;64;000.375;MIDI 01
256.080;000.062;76;000.422;MIDI 01
256.085;000.060;40;000.367;MIDI 01
256.109;000.054;52;000.242;MIDI 01
256.270;000.024;64;000.406;MIDI 01
256.254;000.064;76;000.508;MIDI 01
256.429;000.043;52;000.250;MIDI 01
256.429;000.045;64;000.273;MIDI 01
256.435;000.048;76;000.328;MIDI 01
256.582;000.045;77;000.523;MIDI 01
256.596;000.039;65;000.352;MIDI 01
256.607;000.042;53;000.391;MIDI 01
256.609;000.049;41;000.320;MIDI 01
256.746;000.029;65;000.422;MIDI 01
256.729;000.054;77;000.492;MIDI 01
256.751;000.036;53;000.445;MIDI 01
256.790;000.076;41;000.227;MIDI 01
256.867;000.044;65;000.500;MIDI 01
256.878;000.036;53;000.516;MIDI 01
256.873;000.047;77;000.414;MIDI 01
256.870;000.068;41;000.117;MIDI 01
257.029;000.044;78;000.539;MIDI 01
257.027;000.048;66;000.531;MIDI 01
257.045;000.040;54;000.516;MIDI 01
257.061;000.049;42;000.414;MIDI 01
257.174;000.044;54;000.555;MIDI 01
257.188;000.032;66;000.445;MIDI 01
257.172;000.050;78;000.484;MIDI 01
257.226;000.078;42;000.219;MIDI 01
257.321;000.050;66;000.484;MIDI 01
257.310;000.068;54;000.523;MIDI 01
257.308;000.076;42;000.164;MIDI 01
257.317;000.091;78;000.570;MIDI 01
257.491;000.026;67;000.445;MIDI 01
257.480;000.039;79;000.508;MIDI 01
257.484;000.038;55;000.539;MIDI 01
257.493;000.034;43;000.453;MIDI 01
257.624;000.033;67;000.523;MIDI 01
257.635;000.026;55;000.469;MIDI 01
257.621;000.046;79;000.523;MIDI 01
257.658;000.042;43;000.391;MIDI 01
257.769;000.035;55;000.539;MIDI 01
257.778;000.047;43;000.539;MIDI 01
257.784;000.046;67;000.414;MIDI 01
257.800;000.036;79;000.531;MIDI 01
257.940;000.034;67;000.523;MIDI 01
257.931;000.065;79;000.531;MIDI 01
257.943;000.055;77;000.531;MIDI 01
257.941;000.066;44;000.547;MIDI 01
257.938;000.074;56;000.586;MIDI 01
258.097;000.033;57;000.602;MIDI 01
258.103;000.040;45;000.508;MIDI 01
258.092;000.054;67;000.500;MIDI 01
258.099;000.048;79;000.469;MIDI 01
258.097;000.060;77;000.594;MIDI 01
258.268;000.029;67;000.539;MIDI 01
258.259;000.050;79;000.453;MIDI 01
258.251;000.074;58;000.609;MIDI 01
258.261;000.070;77;000.555;MIDI 01
258.241;000.149;46;000.461;MIDI 01
258.417;000.035;59;000.570;MIDI 01
258.409;000.048;79;000.555;MIDI 01
258.407;000.053;67;000.523;MIDI 01
258.401;000.071;47;000.570;MIDI 01
258.413;000.071;77;000.555;MIDI 01
258.572;000.025;48;000.617;MIDI 01
258.584;000.023;60;000.586;MIDI 01
258.582;000.027;67;000.594;MIDI 01
258.586;000.034;79;000.539;MIDI 01
258.578;000.064;77;000.531;MIDI 01
258.742;000.051;67;000.562;MIDI 01
258.738;000.064;49;000.602;MIDI 01
258.732;000.071;61;000.688;MIDI 01
258.740;000.072;79;000.461;MIDI 01
258.744;000.071;77;000.594;MIDI 01
258.904;000.049;62;000.680;MIDI 01
258.909;000.047;67;000.586;MIDI 01
258.902;000.057;50;000.586;MIDI 01
258.897;000.072;79;000.523;MIDI 01
258.895;000.081;77;000.539;MIDI 01
259.087;000.020;67;000.578;MIDI 01
259.094;000.051;77;000.609;MIDI 01
259.096;000.061;63;000.641;MIDI 01
259.098;000.065;79;000.586;MIDI 01
259.092;000.079;51;000.586;MIDI 01
259.582;000.342;64;000.539;MIDI 01
259.552;000.391;88;000.734;MIDI 01
259.555;000.408;79;000.742;MIDI 01
259.568;000.401;76;000.719;MIDI 01
259.538;000.444;60;000.539;MIDI 01
259.497;000.548;55;000.453;MIDI 01
259.346;000.792;48;000.578;MIDI 01
260.500;000.087;54;000.406;MIDI 01
260.516;000.193;42;000.359;MIDI 01
260.705;000.076;45;000.109;MIDI 01
260.745;000.043;57;000.430;MIDI 01
260.751;000.056;43;000.375;MIDI 01
260.831;000.046;55;000.258;MIDI 01
260.860;000.051;45;000.195;MIDI 01
260.897;000.034;57;000.508;MIDI 01
260.971;000.055;55;000.414;MIDI 01
260.996;000.055;45;000.367;MIDI 01
261.026;000.043;57;000.516;MIDI 01
261.123;000.044;55;000.430;MIDI 01
261.137;000.052;45;000.477;MIDI 01
260.994;000.218;43;000.023;MIDI 01
261.188;000.036;57;000.492;MIDI 01
261.216;000.052;43;000.219;MIDI 01
261.258;000.047;55;000.469;MIDI 01
261.290;000.040;45;000.398;MIDI 01
261.329;000.024;57;000.469;MIDI 01
261.392;000.044;43;000.297;MIDI 01
261.408;000.054;55;000.461;MIDI 01
261.432;000.051;45;000.422;MIDI 01
261.456;000.052;57;000.477;MIDI 01
261.534;000.071;43;000.273;MIDI 01
261.570;000.036;55;000.328;MIDI 01
261.577;000.048;45;000.445;MIDI 01
261.611;000.028;57;000.508;MIDI 01
261.670;000.036;43;000.266;MIDI 01
261.700;000.046;55;000.461;MIDI 01
261.719;000.052;45;000.430;MIDI 01
261.735;000.044;57;000.461;MIDI 01
261.845;000.030;55;000.352;MIDI 01
261.848;000.046;43;000.227;MIDI 01
261.871;000.042;57;000.516;MIDI 01
261.860;000.086;45;000.516;MIDI 01
261.982;000.028;55;000.359;MIDI 01
262.005;000.056;57;000.469;MIDI 01
262.034;000.094;45;000.469;MIDI 01
261.980;000.211;43;000.383;MIDI 01
262.178;000.045;54;000.508;MIDI 01
262.137;000.135;42;000.531;MIDI 01
262.733;000.260;31;000.586;MIDI 01
262.288;000.757;43;000.375;MIDI 01
262.740;000.433;79;000.633;MIDI 01
262.729;000.445;88;000.727;MIDI 01
262.749;000.683;76;000.648;MIDI 01
263.436;000.071;55;000.555;MIDI 01
263.500;000.074;62;000.312;MIDI 01
263.590;000.111;71;000.562;MIDI 01
263.520;000.204;65;000.477;MIDI 01
263.547;000.297;86;000.641;MIDI 01
263.559;000.304;74;000.656;MIDI 01
263.565;000.369;79;000.602;MIDI 01
263.889;000.096;55;000.547;MIDI 01
264.078;000.084;72;000.617;MIDI 01
263.968;000.235;64;000.555;MIDI 01
264.070;000.384;76;000.672;MIDI 01
264.068;000.435;88;000.742;MIDI 01
264.061;000.446;79;000.664;MIDI 01
264.357;000.171;55;000.570;MIDI 01
264.502;000.085;62;000.539;MIDI 01
264.580;000.072;67;000.625;MIDI 01
264.718;000.044;74;000.773;MIDI 01
264.720;000.102;79;000.656;MIDI 01
264.722;000.102;83;000.641;MIDI 01
264.724;000.102;77;000.727;MIDI 01
264.710;000.130;89;000.750;MIDI 01
265.401;000.291;48;000.641;MIDI 01
265.594;000.102;55;000.469;MIDI 01
265.744;000.052;60;000.477;MIDI 01
265.818;000.206;76;000.766;MIDI 01
265.846;000.200;67;000.711;MIDI 01
265.808;000.240;79;000.750;MIDI 01
265.815;000.248;84;000.734;MIDI 01
265.801;000.289;88;000.742;MIDI 01
266.810;000.127;60;000.500;MIDI 01
266.812;000.137;72;000.547;MIDI 01
266.799;000.198;84;000.602;MIDI 01
266.796;000.226;96;000.641;MIDI 01
267.291;000.097;86;000.609;MIDI 01
267.294;000.098;74;000.547;MIDI 01
267.286;000.109;98;000.656;MIDI 01
267.297;000.101;62;000.523;MIDI 01
267.599;000.075;72;000.641;MIDI 01
267.613;000.069;84;000.641;MIDI 01
267.607;000.085;96;000.695;MIDI 01
267.609;000.084;60;000.602;MIDI 01
267.908;000.058;55;000.523;MIDI 01
267.906;000.062;79;000.578;MIDI 01
267.909;000.065;67;000.508;MIDI 01
267.904;000.074;91;000.617;MIDI 01
268.153;000.040;81;000.539;MIDI 01
268.149;000.046;69;000.570;MIDI 01
268.155;000.047;57;000.523;MIDI 01
268.139;000.073;93;000.586;MIDI 01
268.346;000.048;79;000.562;MIDI 01
268.350;000.046;67;000.594;MIDI 01
268.353;000.051;55;000.555;MIDI 01
268.337;000.069;91;000.625;MIDI 01
268.559;000.030;76;000.562;MIDI 01
268.552;000.041;88;000.594;MIDI 01
268.556;000.040;52;000.570;MIDI 01
268.554;000.047;64;000.555;MIDI 01
268.733;000.030;89;000.602;MIDI 01
268.746;000.020;77;000.484;MIDI 01
268.743;000.028;65;000.562;MIDI 01
268.745;000.033;53;000.562;MIDI 01
268.895;000.029;64;000.609;MIDI 01
268.902;000.026;88;000.594;MIDI 01
268.897;000.035;52;000.617;MIDI 01
268.907;000.027;76;000.547;MIDI 01
269.068;000.023;72;000.547;MIDI 01
269.066;000.035;84;000.555;MIDI 01
269.064;000.044;48;000.586;MIDI 01
269.079;000.032;60;000.406;MIDI 01
269.220;000.042;86;000.602;MIDI 01
269.234;000.031;62;000.547;MIDI 01
269.224;000.044;74;000.562;MIDI 01
269.229;000.044;50;000.555;MIDI 01
269.385;000.019;84;000.602;MIDI 01
269.372;000.036;60;000.516;MIDI 01
269.383;000.027;72;000.562;MIDI 01
269.392;000.025;48;000.578;MIDI 01
269.533;000.036;55;000.625;MIDI 01
269.549;000.023;79;000.547;MIDI 01
269.548;000.026;43;000.586;MIDI 01
269.546;000.030;67;000.578;MIDI 01
269.697;000.027;69;000.609;MIDI 01
269.699;000.029;81;000.594;MIDI 01
269.704;000.031;57;000.625;MIDI 01
269.711;000.030;45;000.562;MIDI 01
269.841;000.032;55;000.609;MIDI 01
269.853;000.024;79;000.500;MIDI 01
269.861;000.029;43;000.477;MIDI 01
269.855;000.037;67;000.430;MIDI 01
269.997;000.019;76;000.531;MIDI 01
269.982;000.040;55;000.109;MIDI 01
270.006;000.023;64;000.430;MIDI 01
270.004;000.032;40;000.586;MIDI 01
270.002;000.036;52;000.609;MIDI 01
270.132;000.037;77;000.539;MIDI 01
270.144;000.031;65;000.406;MIDI 01
270.165;000.031;55;000.375;MIDI 01
270.149;000.052;43;000.414;MIDI 01
270.196;000.040;53;000.242;MIDI 01
270.293;000.026;64;000.531;MIDI 01
270.289;000.033;53;000.422;MIDI 01
270.286;000.038;76;000.602;MIDI 01
270.322;000.038;41;000.336;MIDI 01
270.441;000.031;60;000.594;MIDI 01
270.444;000.036;72;000.555;MIDI 01
270.446;000.036;36;000.617;MIDI 01
270.448;000.035;48;000.602;MIDI 01
270.602;000.034;62;000.547;MIDI 01
270.606;000.035;50;000.531;MIDI 01
270.610;000.033;38;000.531;MIDI 01
270.614;000.032;74;000.484;MIDI 01
270.755;000.022;72;000.523;MIDI 01
270.743;000.042;48;000.586;MIDI 01
270.748;000.038;60;000.555;MIDI 01
270.750;000.060;36;000.531;MIDI 01
270.925;000.021;57;000.547;MIDI 01
270.928;000.035;45;000.680;MIDI 01
270.940;000.038;33;000.555;MIDI 01
270.962;000.051;69;000.164;MIDI 01
271.143;000.022;52;000.469;MIDI 01
271.136;000.030;64;000.516;MIDI 01
271.139;000.038;40;000.555;MIDI 01
271.147;000.041;50;000.367;MIDI 01
271.153;000.049;26;000.359;MIDI 01
271.176;000.032;38;000.297;MIDI 01
271.212;000.059;28;000.023;MIDI 01
271.492;000.194;55;000.633;MIDI 01
271.494;000.230;60;000.602;MIDI 01
271.488;000.258;64;000.609;MIDI 01
271.496;000.264;31;000.625;MIDI 01
271.498;000.269;43;000.656;MIDI 01
271.485;000.284;67;000.664;MIDI 01
272.274;000.290;51;000.586;MIDI 01
272.272;000.311;75;000.695;MIDI 01
272.270;000.319;63;000.594;MIDI 01
272.261;000.374;87;000.711;MIDI 01
272.688;000.067;74;000.633;MIDI 01
272.696;000.064;62;000.586;MIDI 01
272.698;000.079;50;000.500;MIDI 01
272.685;000.117;86;000.625;MIDI 01
272.959;000.087;61;000.609;MIDI 01
272.977;000.083;73;000.617;MIDI 01
272.961;000.111;49;000.578;MIDI 01
272.968;000.108;85;000.609;MIDI 01
273.157;000.045;60;000.555;MIDI 01
273.168;000.048;72;000.531;MIDI 01
273.165;000.055;48;000.531;MIDI 01
273.159;000.067;84;000.578;MIDI 01
273.335;000.028;71;000.500;MIDI 01
273.332;000.035;59;000.547;MIDI 01
273.320;000.050;47;000.602;MIDI 01
273.330;000.046;83;000.562;MIDI 01
273.485;000.041;70;000.625;MIDI 01
273.483;000.047;58;000.586;MIDI 01
273.482;000.081;82;000.586;MIDI 01
273.498;000.078;46;000.539;MIDI 01
273.648;000.031;57;000.547;MIDI 01
273.642;000.039;81;000.523;MIDI 01
273.651;000.031;69;000.438;MIDI 01
273.640;000.054;45;000.547;MIDI 01
273.795;000.031;68;000.531;MIDI 01
273.789;000.047;80;000.586;MIDI 01
273.797;000.047;56;000.625;MIDI 01
273.945;000.032;67;000.555;MIDI 01
273.939;000.049;79;000.586;MIDI 01
273.941;000.055;55;000.625;MIDI 01
273.946;000.068;43;000.625;MIDI 01
273.800;000.232;44;000.570;MIDI 01
274.105;000.035;66;000.508;MIDI 01
274.100;000.042;78;000.602;MIDI 01
274.102;000.074;54;000.602;MIDI 01
274.109;000.157;42;000.570;MIDI 01
274.256;000.032;65;000.430;MIDI 01
274.238;000.061;77;000.633;MIDI 01
274.265;000.051;53;000.562;MIDI 01
274.273;000.082;41;000.562;MIDI 01
274.550;000.110;40;000.625;MIDI 01
274.552;000.110;52;000.656;MIDI 01
274.822;000.075;51;000.609;MIDI 01
274.820;000.086;39;000.570;MIDI 01
275.002;000.060;50;000.570;MIDI 01
275.000;000.080;38;000.602;MIDI 01
274.543;000.601;88;000.742;MIDI 01
274.546;000.600;80;000.703;MIDI 01
275.191;000.072;49;000.688;MIDI 01
275.200;000.088;37;000.586;MIDI 01
274.548;000.808;76;000.711;MIDI 01
275.381;000.037;48;000.594;MIDI 01
275.399;000.027;36;000.500;MIDI 01
275.540;000.043;47;000.531;MIDI 01
275.538;000.059;35;000.492;MIDI 01
275.753;000.001;78;000.203;MIDI 01
275.698;000.080;46;000.672;MIDI 01
275.694;000.112;86;000.664;MIDI 01
275.707;000.105;34;000.594;MIDI 01
275.696;000.131;77;000.562;MIDI 01
275.699;000.140;74;000.688;MIDI 01
275.907;000.048;33;000.586;MIDI 01
275.897;000.061;45;000.625;MIDI 01
276.054;000.085;44;000.688;MIDI 01
276.074;000.068;32;000.602;MIDI 01
276.244;000.078;43;000.641;MIDI 01
276.253;000.075;31;000.586;MIDI 01
276.469;000.073;42;000.617;MIDI 01
276.467;000.081;30;000.625;MIDI 01
276.715;000.055;35;000.609;MIDI 01
276.756;000.025;45;000.359;MIDI 01
276.720;000.071;47;000.641;MIDI 01
276.250;000.670;67;000.547;MIDI 01
276.248;000.685;74;000.602;MIDI 01
276.246;000.693;65;000.555;MIDI 01
276.235;000.740;79;000.648;MIDI 01
277.337;000.134;76;000.523;MIDI 01
277.351;000.290;80;000.320;MIDI 01
277.310;000.361;74;000.680;MIDI 01
277.326;000.371;77;000.508;MIDI 01
276.951;000.760;43;000.680;MIDI 01
277.321;000.392;79;000.555;MIDI 01
277.135;000.591;50;000.578;MIDI 01
277.341;000.387;59;000.578;MIDI 01
277.306;000.424;83;000.633;MIDI 01
277.239;000.496;53;000.328;MIDI 01
277.308;000.452;86;000.672;MIDI 01
278.148;000.200;76;000.688;MIDI 01
278.150;000.209;100;000.734;MIDI 01
278.153;000.215;88;000.664;MIDI 01
278.147;000.225;64;000.625;MIDI 01
278.585;000.061;74;000.641;MIDI 01
278.583;000.076;86;000.664;MIDI 01
278.576;000.086;98;000.703;MIDI 01
278.591;000.089;62;000.617;MIDI 01
278.933;000.073;69;000.695;MIDI 01
278.927;000.089;81;000.641;MIDI 01
278.931;000.096;93;000.703;MIDI 01
278.931;000.117;57;000.641;MIDI 01
279.217;000.055;79;000.648;MIDI 01
279.211;000.070;91;000.703;MIDI 01
279.219;000.065;67;000.648;MIDI 01
279.222;000.065;55;000.609;MIDI 01
279.587;000.030;62;000.352;MIDI 01
279.535;000.116;76;000.719;MIDI 01
279.538;000.117;64;000.648;MIDI 01
279.556;000.107;50;000.547;MIDI 01
279.525;000.146;88;000.711;MIDI 01
279.559;000.135;52;000.531;MIDI 01
279.867;000.064;74;000.695;MIDI 01
279.855;000.077;62;000.625;MIDI 01
279.866;000.069;86;000.672;MIDI 01
279.859;000.079;50;000.562;MIDI 01
280.189;000.101;57;000.648;MIDI 01
280.191;000.104;69;000.672;MIDI 01
280.186;000.122;81;000.719;MIDI 01
280.184;000.176;45;000.609;MIDI 01
280.553;000.051;79;000.664;MIDI 01
280.551;000.064;67;000.695;MIDI 01
280.575;000.043;55;000.492;MIDI 01
280.595;000.028;53;000.461;MIDI 01
280.597;000.047;43;000.383;MIDI 01
280.599;000.048;41;000.406;MIDI 01
281.021;000.099;43;000.648;MIDI 01
281.024;000.136;31;000.625;MIDI 01
281.022;000.247;59;000.555;MIDI 01
281.020;000.272;65;000.531;MIDI 01
281.009;000.295;55;000.641;MIDI 01
281.001;000.339;67;000.648;MIDI 01
281.751;000.227;24;000.602;MIDI 01
281.752;000.290;36;000.602;MIDI 01
282.521;000.153;31;000.320;MIDI 01
282.518;000.222;43;000.391;MIDI 01
282.894;000.080;31;000.375;MIDI 01
282.897;000.078;43;000.320;MIDI 01
281.746;001.488;60;000.609;MIDI 01
283.175;000.061;43;000.344;MIDI 01
283.173;000.068;31;000.250;MIDI 01
281.748;001.528;72;000.641;MIDI 01
281.748;001.544;64;000.594;MIDI 01
283.425;000.073;48;000.445;MIDI 01
283.434;000.066;36;000.398;MIDI 01
283.647;000.052;48;000.375;MIDI 01
283.669;000.073;36;000.320;MIDI 01
283.819;000.056;36;000.125;MIDI 01
283.835;000.049;48;000.344;MIDI 01
284.058;000.035;55;000.438;MIDI 01
284.060;000.048;43;000.406;MIDI 01
284.274;000.049;43;000.336;MIDI 01
284.250;000.085;55;000.406;MIDI 01
284.442;000.054;43;000.305;MIDI 01
284.458;000.074;55;000.312;MIDI 01
284.729;000.068;48;000.359;MIDI 01
284.731;000.074;60;000.336;MIDI 01
284.970;000.062;48;000.359;MIDI 01
284.968;000.081;60;000.414;MIDI 01
285.202;000.086;48;000.414;MIDI 01
285.208;000.283;60;000.398;MIDI 01
285.598;000.142;67;000.344;MIDI 01
285.607;000.197;75;000.383;MIDI 01
285.632;000.269;51;000.273;MIDI 01
285.901;000.053;63;000.133;MIDI 01
285.604;000.353;60;000.180;MIDI 01
285.836;000.199;67;000.359;MIDI 01
285.923;000.208;55;000.188;MIDI 01
286.073;000.075;67;000.141;MIDI 01
285.829;000.329;75;000.289;MIDI 01
286.085;000.078;51;000.305;MIDI 01
286.304;000.066;75;000.414;MIDI 01
286.316;000.056;67;000.305;MIDI 01
286.099;000.304;60;000.336;MIDI 01
286.301;000.120;63;000.305;MIDI 01
286.079;000.376;79;000.492;MIDI 01
286.340;000.222;55;000.273;MIDI 01
286.517;000.067;67;000.359;MIDI 01
286.507;000.080;51;000.328;MIDI 01
286.522;000.081;75;000.344;MIDI 01
286.814;000.081;41;000.422;MIDI 01
286.840;000.105;72;000.281;MIDI 01
286.845;000.102;53;000.219;MIDI 01
286.821;000.128;75;000.328;MIDI 01
286.835;000.116;68;000.266;MIDI 01
287.133;000.033;68;000.312;MIDI 01
287.124;000.045;75;000.344;MIDI 01
287.306;000.058;68;000.320;MIDI 01
287.301;000.132;63;000.438;MIDI 01
287.117;000.322;60;000.391;MIDI 01
287.309;000.274;75;000.484;MIDI 01
287.566;000.057;68;000.117;MIDI 01
287.377;000.264;56;000.242;MIDI 01
287.525;000.195;53;000.391;MIDI 01
287.568;000.241;60;000.289;MIDI 01
287.765;000.049;63;000.320;MIDI 01
287.771;000.045;68;000.289;MIDI 01
287.759;000.084;75;000.453;MIDI 01
287.524;000.455;80;000.586;MIDI 01
287.769;000.231;56;000.422;MIDI 01
287.966;000.039;53;000.328;MIDI 01
287.942;000.076;68;000.375;MIDI 01
287.964;000.058;60;000.258;MIDI 01
287.947;000.123;75;000.359;MIDI 01
288.274;000.108;35;000.414;MIDI 01
288.300;000.130;47;000.320;MIDI 01
288.271;000.191;74;000.438;MIDI 01
288.291;000.191;65;000.367;MIDI 01
288.294;000.190;67;000.375;MIDI 01
288.643;000.069;67;000.102;MIDI 01
288.634;000.083;65;000.164;MIDI 01
288.610;000.296;74;000.438;MIDI 01
288.878;000.080;62;000.211;MIDI 01
288.637;000.322;55;000.297;MIDI 01
289.064;000.053;47;000.398;MIDI 01
289.080;000.101;74;000.508;MIDI 01
288.853;000.386;79;000.578;MIDI 01
289.098;000.211;55;000.391;MIDI 01
289.274;000.068;74;000.367;MIDI 01
289.298;000.052;50;000.336;MIDI 01
289.549;000.040;67;000.359;MIDI 01
289.538;000.062;65;000.414;MIDI 01
289.557;000.098;47;000.414;MIDI 01
289.836;000.087;63;000.359;MIDI 01
289.876;000.053;36;000.234;MIDI 01
289.798;000.155;67;000.227;MIDI 01
289.879;000.099;48;000.258;MIDI 01
289.530;000.499;74;000.500;MIDI 01
290.318;000.105;48;000.305;MIDI 01
290.133;000.377;75;000.484;MIDI 01
290.146;000.387;67;000.383;MIDI 01
290.323;000.298;55;000.414;MIDI 01
290.644;000.041;67;000.344;MIDI 01
290.623;000.088;63;000.406;MIDI 01
290.424;000.316;77;000.594;MIDI 01
290.614;000.210;75;000.508;MIDI 01
290.826;000.031;67;000.328;MIDI 01
290.616;000.260;51;000.414;MIDI 01
290.843;000.181;55;000.391;MIDI 01
290.986;000.055;67;000.406;MIDI 01
291.035;000.044;63;000.438;MIDI 01
291.030;000.053;72;000.156;MIDI 01
290.792;000.329;74;000.578;MIDI 01
290.978;000.249;75;000.555;MIDI 01
291.174;000.055;67;000.477;MIDI 01
291.177;000.080;77;000.508;MIDI 01
291.250;000.103;55;000.336;MIDI 01
291.336;000.069;48;000.336;MIDI 01
291.367;000.080;79;000.555;MIDI 01
291.056;000.394;51;000.328;MIDI 01
291.394;000.085;67;000.344;MIDI 01
291.673;000.111;32;000.406;MIDI 01
291.483;000.303;67;000.172;MIDI 01
291.692;000.111;44;000.359;MIDI 01
291.654;000.204;68;000.406;MIDI 01
292.052;000.066;68;000.414;MIDI 01
292.069;000.054;63;000.336;MIDI 01
292.275;000.058;63;000.328;MIDI 01
291.639;000.713;72;000.469;MIDI 01
292.061;000.308;56;000.344;MIDI 01
292.256;000.226;60;000.430;MIDI 01
292.481;000.051;63;000.352;MIDI 01
292.267;000.276;68;000.391;MIDI 01
292.357;000.206;51;000.258;MIDI 01
292.498;000.070;48;000.344;MIDI 01
292.529;000.182;56;000.289;MIDI 01
292.482;000.296;72;000.523;MIDI 01
292.742;000.047;63;000.195;MIDI 01
292.712;000.094;60;000.234;MIDI 01
292.882;000.044;56;000.430;MIDI 01
292.921;000.045;48;000.359;MIDI 01
292.738;000.239;51;000.391;MIDI 01
292.710;000.356;68;000.430;MIDI 01
293.009;000.059;63;000.297;MIDI 01
293.204;000.070;29;000.492;MIDI 01
293.218;000.057;62;000.422;MIDI 01
293.209;000.097;41;000.453;MIDI 01
293.004;000.330;72;000.508;MIDI 01
293.510;000.082;68;000.461;MIDI 01
293.548;000.060;62;000.141;MIDI 01
293.521;000.223;56;000.445;MIDI 01
293.753;000.034;62;000.336;MIDI 01
293.210;000.595;74;000.578;MIDI 01
293.722;000.087;60;000.430;MIDI 01
293.708;000.250;68;000.445;MIDI 01
293.932;000.058;62;000.383;MIDI 01
293.939;000.070;53;000.328;MIDI 01
293.941;000.070;56;000.359;MIDI 01
294.161;000.060;68;000.422;MIDI 01
294.183;000.045;60;000.297;MIDI 01
294.172;000.061;62;000.172;MIDI 01
294.346;000.032;56;000.391;MIDI 01
294.165;000.238;53;000.352;MIDI 01
294.376;000.052;68;000.359;MIDI 01
294.382;000.053;50;000.203;MIDI 01
293.935;000.606;72;000.523;MIDI 01
294.539;000.050;68;000.484;MIDI 01
294.807;000.068;31;000.320;MIDI 01
294.821;000.099;43;000.305;MIDI 01
294.809;000.152;62;000.305;MIDI 01
294.816;000.153;65;000.234;MIDI 01
294.806;000.195;60;000.320;MIDI 01
295.127;000.043;65;000.289;MIDI 01
295.150;000.050;62;000.203;MIDI 01
295.153;000.059;60;000.078;MIDI 01
295.345;000.035;65;000.312;MIDI 01
295.347;000.035;62;000.383;MIDI 01
295.343;000.042;60;000.383;MIDI 01
295.129;000.259;50;000.234;MIDI 01
295.341;000.053;55;000.445;MIDI 01
294.790;000.802;67;000.367;MIDI 01
295.565;000.060;65;000.328;MIDI 01
295.562;000.073;59;000.359;MIDI 01
295.557;000.098;62;000.328;MIDI 01
295.619;000.066;43;000.203;MIDI 01
295.585;000.207;50;000.359;MIDI 01
295.822;000.081;70;000.438;MIDI 01
295.855;000.100;68;000.438;MIDI 01
295.878;000.091;55;000.352;MIDI 01
295.839;000.142;59;000.305;MIDI 01
296.076;000.051;67;000.508;MIDI 01
296.101;000.051;59;000.234;MIDI 01
296.165;000.049;50;000.305;MIDI 01
296.156;000.074;43;000.297;MIDI 01
296.308;000.083;62;000.477;MIDI 01
296.356;000.052;55;000.266;MIDI 01
296.341;000.083;53;000.328;MIDI 01
296.707;000.220;36;000.352;MIDI 01
296.697;000.266;48;000.383;MIDI 01
296.683;000.352;51;000.391;MIDI 01
297.007;000.093;55;000.211;MIDI 01
296.674;000.672;63;000.383;MIDI 01
297.258;000.093;48;000.125;MIDI 01
296.962;000.422;60;000.383;MIDI 01
297.198;000.275;51;000.367;MIDI 01
297.471;000.097;55;000.375;MIDI 01
297.751;000.092;48;000.328;MIDI 01
297.754;000.172;51;000.289;MIDI 01
298.026;000.152;55;000.305;MIDI 01
298.337;000.054;51;000.312;MIDI 01
298.364;000.057;43;000.219;MIDI 01
298.915;000.080;51;000.289;MIDI 01
298.904;000.146;58;000.297;MIDI 01
298.858;000.208;39;000.438;MIDI 01
298.868;000.217;27;000.391;MIDI 01
299.486;000.067;67;000.172;MIDI 01
299.495;000.059;70;000.211;MIDI 01
299.497;000.062;75;000.234;MIDI 01
299.483;000.319;58;000.289;MIDI 01
299.465;000.341;51;000.312;MIDI 01
299.738;000.070;67;000.273;MIDI 01
299.731;000.101;70;000.367;MIDI 01
299.785;000.080;63;000.250;MIDI 01
299.788;000.260;55;000.312;MIDI 01
299.728;000.339;75;000.406;MIDI 01
299.998;000.108;51;000.328;MIDI 01
300.006;000.209;58;000.367;MIDI 01
300.226;000.048;70;000.438;MIDI 01
300.210;000.065;75;000.453;MIDI 01
300.249;000.048;67;000.195;MIDI 01
300.233;000.070;63;000.414;MIDI 01
300.231;000.197;55;000.344;MIDI 01
300.433;000.046;67;000.352;MIDI 01
300.439;000.048;51;000.328;MIDI 01
300.435;000.053;58;000.281;MIDI 01
300.441;000.054;75;000.359;MIDI 01
300.429;000.067;70;000.359;MIDI 01
300.768;000.101;32;000.250;MIDI 01
300.791;000.099;44;000.172;MIDI 01
300.749;000.168;75;000.375;MIDI 01
300.755;000.171;68;000.367;MIDI 01
300.786;000.176;72;000.281;MIDI 01
299.981;001.160;79;000.539;MIDI 01
301.104;000.051;75;000.375;MIDI 01
301.124;000.039;68;000.234;MIDI 01
301.334;000.055;68;000.273;MIDI 01
301.132;000.305;60;000.406;MIDI 01
301.386;000.064;72;000.094;MIDI 01
301.336;000.218;63;000.320;MIDI 01
301.402;000.220;56;000.352;MIDI 01
301.319;000.311;75;000.453;MIDI 01
301.607;000.170;53;000.289;MIDI 01
301.786;000.074;75;000.414;MIDI 01
301.785;000.086;63;000.352;MIDI 01
301.829;000.047;68;000.234;MIDI 01
301.580;000.389;60;000.328;MIDI 01
302.002;000.046;60;000.219;MIDI 01
301.805;000.280;56;000.359;MIDI 01
302.014;000.078;68;000.375;MIDI 01
302.010;000.086;75;000.398;MIDI 01
302.081;000.057;53;000.133;MIDI 01
302.358;000.069;68;000.375;MIDI 01
302.348;000.160;74;000.406;MIDI 01
302.340;000.172;70;000.422;MIDI 01
302.372;000.146;34;000.375;MIDI 01
302.390;000.176;46;000.312;MIDI 01
302.725;000.059;68;000.250;MIDI 01
301.552;001.238;80;000.609;MIDI 01
302.718;000.107;46;000.266;MIDI 01
302.723;000.296;56;000.367;MIDI 01
302.982;000.041;62;000.422;MIDI 01
302.689;000.360;74;000.477;MIDI 01
302.706;000.449;70;000.227;MIDI 01
303.196;000.043;68;000.438;MIDI 01
303.223;000.036;46;000.344;MIDI 01
303.011;000.269;53;000.312;MIDI 01
303.193;000.098;74;000.484;MIDI 01
303.178;000.137;70;000.156;MIDI 01
302.952;000.428;79;000.586;MIDI 01
303.205;000.197;56;000.453;MIDI 01
303.418;000.046;53;000.375;MIDI 01
303.423;000.074;68;000.328;MIDI 01
303.675;000.069;35;000.453;MIDI 01
303.399;000.355;74;000.391;MIDI 01
303.722;000.069;47;000.305;MIDI 01
303.668;000.139;68;000.391;MIDI 01
304.031;000.101;36;000.227;MIDI 01
304.021;000.150;48;000.312;MIDI 01
303.994;000.189;67;000.453;MIDI 01
303.659;000.653;77;000.516;MIDI 01
304.378;000.090;67;000.164;MIDI 01
304.477;000.111;48;000.312;MIDI 01
304.326;000.353;75;000.461;MIDI 01
304.625;000.062;67;000.367;MIDI 01
304.516;000.291;55;000.336;MIDI 01
304.821;000.056;63;000.305;MIDI 01
304.828;000.071;67;000.430;MIDI 01
304.812;000.201;51;000.312;MIDI 01
304.610;000.415;77;000.555;MIDI 01
304.819;000.228;75;000.539;MIDI 01
305.038;000.029;67;000.328;MIDI 01
305.014;000.055;48;000.406;MIDI 01
305.022;000.232;55;000.359;MIDI 01
305.194;000.070;67;000.445;MIDI 01
304.993;000.302;74;000.562;MIDI 01
305.252;000.067;63;000.375;MIDI 01
303.995;001.382;72;000.422;MIDI 01
305.193;000.259;75;000.602;MIDI 01
305.405;000.055;67;000.492;MIDI 01
305.397;000.099;77;000.539;MIDI 01
305.430;000.122;55;000.352;MIDI 01
305.523;000.065;48;000.328;MIDI 01
305.248;000.366;51;000.359;MIDI 01
305.625;000.074;79;000.531;MIDI 01
305.666;000.061;69;000.273;MIDI 01
305.675;000.054;67;000.344;MIDI 01
305.977;000.147;38;000.367;MIDI 01
305.997;000.232;50;000.344;MIDI 01
306.003;000.240;62;000.375;MIDI 01
306.012;000.258;67;000.367;MIDI 01
306.419;000.041;62;000.305;MIDI 01
306.472;000.261;46;000.086;MIDI 01
306.406;000.419;55;000.406;MIDI 01
306.692;000.216;58;000.367;MIDI 01
306.417;000.550;67;000.352;MIDI 01
306.762;000.270;50;000.273;MIDI 01
306.024;001.045;70;000.352;MIDI 01
306.996;000.158;46;000.211;MIDI 01
305.979;001.391;74;000.500;MIDI 01
307.309;000.071;50;000.266;MIDI 01
307.011;000.373;55;000.281;MIDI 01
306.695;000.892;62;000.523;MIDI 01
307.496;000.180;72;000.469;MIDI 01
307.686;000.042;50;000.383;MIDI 01
307.255;000.541;67;000.414;MIDI 01
307.692;000.154;74;000.516;MIDI 01
307.697;000.181;62;000.391;MIDI 01
308.118;000.110;26;000.445;MIDI 01
308.116;000.178;38;000.375;MIDI 01
308.100;000.298;63;000.328;MIDI 01
308.105;000.315;67;000.320;MIDI 01
308.594;000.054;63;000.289;MIDI 01
308.603;000.070;67;000.344;MIDI 01
308.610;000.296;57;000.336;MIDI 01
308.871;000.047;67;000.297;MIDI 01
308.858;000.062;63;000.266;MIDI 01
308.074;000.876;75;000.461;MIDI 01
308.868;000.197;60;000.344;MIDI 01
309.085;000.071;63;000.320;MIDI 01
309.104;000.064;66;000.406;MIDI 01
309.113;000.254;57;000.312;MIDI 01
309.332;000.072;63;000.367;MIDI 01
309.348;000.065;66;000.328;MIDI 01
309.360;000.078;60;000.391;MIDI 01
309.627;000.035;57;000.305;MIDI 01
309.665;000.054;50;000.234;MIDI 01
309.661;000.059;63;000.219;MIDI 01
309.623;000.164;66;000.414;MIDI 01
309.629;000.189;60;000.320;MIDI 01
310.102;000.200;31;000.297;MIDI 01
310.105;000.223;43;000.273;MIDI 01
310.071;000.290;58;000.320;MIDI 01
310.552;000.089;58;000.227;MIDI 01
310.568;000.090;62;000.312;MIDI 01
310.561;000.445;50;000.281;MIDI 01
310.857;000.151;58;000.195;MIDI 01
310.822;000.194;55;000.273;MIDI 01
310.024;001.078;66;000.398;MIDI 01
311.141;000.047;62;000.375;MIDI 01
311.331;000.078;62;000.352;MIDI 01
311.381;000.045;58;000.258;MIDI 01
311.171;000.258;50;000.273;MIDI 01
311.101;000.339;43;000.203;MIDI 01
311.387;000.066;55;000.094;MIDI 01
311.601;000.052;58;000.273;MIDI 01
311.599;000.065;62;000.406;MIDI 01
311.633;000.243;38;000.289;MIDI 01
311.845;000.064;31;000.328;MIDI 01
311.849;000.078;43;000.344;MIDI 01
311.825;000.111;58;000.297;MIDI 01
311.830;000.116;62;000.297;MIDI 01
312.104;000.064;59;000.391;MIDI 01
312.128;000.060;62;000.250;MIDI 01
310.881;001.496;67;000.375;MIDI 01
312.311;000.087;59;000.406;MIDI 01
312.301;000.130;55;000.391;MIDI 01
312.305;000.315;62;000.492;MIDI 01
312.593;000.062;59;000.320;MIDI 01
312.116;000.639;50;000.312;MIDI 01
312.927;000.068;62;000.406;MIDI 01
312.938;000.067;59;000.266;MIDI 01
312.585;000.428;43;000.289;MIDI 01
312.954;000.062;50;000.172;MIDI 01
313.240;000.089;62;000.344;MIDI 01
313.267;000.066;43;000.312;MIDI 01
313.256;000.091;31;000.352;MIDI 01
313.250;000.153;59;000.242;MIDI 01
313.677;000.200;30;000.344;MIDI 01
313.684;000.221;42;000.281;MIDI 01
313.629;000.296;59;000.273;MIDI 01
313.645;000.282;62;000.336;MIDI 01
314.134;000.055;60;000.227;MIDI 01
314.106;000.085;63;000.383;MIDI 01
312.567;001.837;67;000.523;MIDI 01
314.120;000.327;51;000.383;MIDI 01
314.345;000.104;60;000.391;MIDI 01
314.365;000.115;56;000.320;MIDI 01
314.367;000.264;48;000.375;MIDI 01
314.347;000.345;63;000.469;MIDI 01
314.630;000.068;60;000.258;MIDI 01
314.834;000.052;60;000.430;MIDI 01
314.846;000.050;63;000.453;MIDI 01
314.627;000.279;51;000.398;MIDI 01
314.650;000.284;42;000.242;MIDI 01
315.042;000.039;60;000.344;MIDI 01
315.044;000.090;63;000.422;MIDI 01
315.102;000.051;30;000.469;MIDI 01
315.103;000.052;42;000.375;MIDI 01
315.324;000.094;29;000.461;MIDI 01
315.310;000.115;56;000.461;MIDI 01
315.308;000.126;61;000.461;MIDI 01
315.326;000.143;41;000.430;MIDI 01
315.598;000.031;61;000.445;MIDI 01
314.592;001.041;68;000.539;MIDI 01
315.659;000.052;48;000.258;MIDI 01
315.844;000.071;61;000.422;MIDI 01
315.902;000.046;56;000.383;MIDI 01
315.837;000.220;73;000.609;MIDI 01
316.133;000.061;41;000.469;MIDI 01
316.143;000.074;68;000.414;MIDI 01
316.149;000.082;65;000.477;MIDI 01
316.149;000.086;49;000.469;MIDI 01
316.390;000.047;56;000.258;MIDI 01
316.409;000.066;65;000.398;MIDI 01
316.429;000.069;68;000.344;MIDI 01
316.110;000.387;77;000.617;MIDI 01
316.411;000.151;73;000.453;MIDI 01
316.765;000.097;29;000.492;MIDI 01
316.796;000.132;41;000.391;MIDI 01
316.782;000.199;70;000.555;MIDI 01
316.768;000.222;82;000.617;MIDI 01
316.794;000.245;73;000.469;MIDI 01
317.290;000.292;66;000.484;MIDI 01
317.283;000.300;68;000.375;MIDI 01
317.347;000.273;36;000.305;MIDI 01
317.288;000.334;48;000.461;MIDI 01
317.798;000.035;66;000.273;MIDI 01
317.800;000.070;75;000.367;MIDI 01
317.867;000.072;48;000.320;MIDI 01
318.060;000.048;66;000.344;MIDI 01
317.854;000.266;56;000.195;MIDI 01
318.052;000.095;75;000.398;MIDI 01
318.108;000.197;51;000.242;MIDI 01
318.300;000.075;48;000.359;MIDI 01
318.345;000.096;75;000.320;MIDI 01
318.342;000.107;66;000.281;MIDI 01
318.357;000.281;56;000.266;MIDI 01
317.254;001.419;80;000.641;MIDI 01
318.645;000.041;51;000.305;MIDI 01
318.647;000.097;75;000.352;MIDI 01
318.620;000.144;66;000.320;MIDI 01
319.021;000.105;66;000.281;MIDI 01
318.960;000.216;36;000.227;MIDI 01
318.996;000.198;48;000.273;MIDI 01
319.198;000.075;77;000.398;MIDI 01
318.958;000.345;78;000.430;MIDI 01
319.529;000.131;37;000.328;MIDI 01
319.495;000.208;68;000.359;MIDI 01
319.536;000.184;49;000.305;MIDI 01
319.929;000.052;73;000.266;MIDI 01
319.908;000.079;68;000.312;MIDI 01
320.051;000.073;57;000.078;MIDI 01
319.916;000.295;49;000.188;MIDI 01
320.183;000.049;65;000.312;MIDI 01
320.161;000.084;73;000.383;MIDI 01
320.188;000.097;61;000.375;MIDI 01
320.406;000.065;73;000.367;MIDI 01
320.447;000.048;68;000.320;MIDI 01
320.414;000.140;56;000.391;MIDI 01
320.221;000.424;53;000.266;MIDI 01
320.404;000.273;49;000.273;MIDI 01
320.643;000.041;61;000.102;MIDI 01
320.633;000.053;73;000.367;MIDI 01
320.677;000.047;68;000.227;MIDI 01
320.681;000.046;65;000.164;MIDI 01
320.876;000.069;73;000.336;MIDI 01
320.874;000.085;65;000.406;MIDI 01
320.908;000.053;48;000.219;MIDI 01
320.910;000.060;36;000.180;MIDI 01
321.171;000.079;35;000.406;MIDI 01
321.183;000.074;67;000.188;MIDI 01
321.193;000.140;47;000.250;MIDI 01
321.153;000.180;65;000.219;MIDI 01
321.142;000.230;74;000.438;MIDI 01
321.494;000.048;74;000.367;MIDI 01
319.470;002.192;77;000.422;MIDI 01
321.684;000.031;74;000.492;MIDI 01
321.696;000.078;62;000.320;MIDI 01
321.490;000.355;55;000.297;MIDI 01
322.052;000.083;47;000.219;MIDI 01
322.080;000.157;62;000.234;MIDI 01
322.076;000.217;55;000.273;MIDI 01
322.277;000.053;50;000.352;MIDI 01
322.286;000.054;65;000.438;MIDI 01
322.522;000.041;65;000.391;MIDI 01
322.520;000.045;62;000.398;MIDI 01
322.028;000.540;67;000.578;MIDI 01
322.525;000.105;47;000.375;MIDI 01
322.848;000.080;36;000.383;MIDI 01
322.857;000.135;48;000.375;MIDI 01
322.834;000.176;68;000.438;MIDI 01
322.830;000.200;63;000.414;MIDI 01
323.137;000.067;63;000.125;MIDI 01
323.256;000.093;48;000.289;MIDI 01
323.368;000.051;63;000.203;MIDI 01
323.253;000.355;55;000.430;MIDI 01
323.558;000.089;60;000.422;MIDI 01
323.581;000.066;63;000.281;MIDI 01
323.348;000.304;71;000.516;MIDI 01
323.125;000.592;67;000.547;MIDI 01
323.569;000.239;72;000.547;MIDI 01
323.574;000.300;51;000.336;MIDI 01
323.789;000.095;48;000.500;MIDI 01
323.785;000.134;74;000.602;MIDI 01
323.875;000.111;55;000.203;MIDI 01
324.001;000.029;65;000.477;MIDI 01
323.995;000.097;75;000.609;MIDI 01
324.091;000.053;55;000.258;MIDI 01
324.117;000.030;51;000.508;MIDI 01
324.273;000.094;75;000.523;MIDI 01
324.276;000.112;72;000.516;MIDI 01
324.262;000.220;84;000.648;MIDI 01
324.471;000.080;36;000.430;MIDI 01
324.584;000.072;72;000.500;MIDI 01
324.480;000.182;48;000.453;MIDI 01
324.557;000.127;80;000.617;MIDI 01
324.894;000.127;38;000.523;MIDI 01
324.897;000.171;50;000.461;MIDI 01
324.887;000.238;67;000.523;MIDI 01
324.892;000.247;65;000.539;MIDI 01
325.262;000.058;71;000.406;MIDI 01
325.475;000.085;71;000.484;MIDI 01
325.481;000.220;62;000.445;MIDI 01
325.736;000.052;65;000.289;MIDI 01
325.693;000.131;55;000.367;MIDI 01
324.869;001.036;79;000.625;MIDI 01
325.915;000.089;73;000.531;MIDI 01
325.956;000.126;65;000.039;MIDI 01
325.712;000.379;71;000.484;MIDI 01
326.067;000.053;62;000.117;MIDI 01
326.052;000.101;55;000.445;MIDI 01
326.095;000.107;71;000.109;MIDI 01
325.731;000.476;50;000.344;MIDI 01
326.098;000.142;65;000.172;MIDI 01
326.100;000.255;74;000.586;MIDI 01
326.322;000.051;71;000.227;MIDI 01
326.497;000.143;38;000.500;MIDI 01
326.498;000.198;50;000.461;MIDI 01
326.480;000.229;77;000.539;MIDI 01
326.279;000.439;79;000.625;MIDI 01
326.482;000.239;71;000.516;MIDI 01
326.727;000.020;71;000.023;MIDI 01
326.704;000.099;75;000.555;MIDI 01
326.746;000.060;67;000.039;MIDI 01
327.001;000.163;39;000.438;MIDI 01
326.988;000.190;51;000.477;MIDI 01
326.993;000.207;72;000.375;MIDI 01
326.966;000.240;67;000.492;MIDI 01
327.405;000.055;67;000.328;MIDI 01
327.403;000.059;72;000.391;MIDI 01
327.403;000.090;51;000.297;MIDI 01
327.436;000.305;60;000.328;MIDI 01
327.690;000.052;72;000.281;MIDI 01
327.666;000.078;63;000.320;MIDI 01
327.693;000.055;67;000.281;MIDI 01
327.952;000.094;72;000.188;MIDI 01
327.953;000.095;67;000.219;MIDI 01
328.227;000.049;63;000.297;MIDI 01
327.950;000.344;60;000.305;MIDI 01
328.221;000.088;72;000.359;MIDI 01
328.230;000.083;67;000.320;MIDI 01
328.281;000.077;55;000.039;MIDI 01
327.964;000.422;51;000.273;MIDI 01
328.618;000.036;72;000.289;MIDI 01
326.968;001.722;75;000.562;MIDI 01
328.630;000.060;67;000.188;MIDI 01
328.616;000.112;39;000.383;MIDI 01
328.595;000.196;51;000.352;MIDI 01
329.092;000.181;41;000.336;MIDI 01
329.130;000.223;53;000.188;MIDI 01
329.116;000.255;62;000.320;MIDI 01
329.113;000.272;68;000.305;MIDI 01
329.514;000.077;68;000.398;MIDI 01
329.570;000.057;62;000.172;MIDI 01
329.554;000.177;59;000.273;MIDI 01
329.779;000.098;62;000.391;MIDI 01
329.766;000.144;68;000.445;MIDI 01
330.001;000.061;53;000.328;MIDI 01
330.023;000.059;59;000.375;MIDI 01
330.246;000.034;59;000.305;MIDI 01
330.211;000.071;53;000.297;MIDI 01
330.242;000.070;68;000.469;MIDI 01
330.473;000.033;41;000.461;MIDI 01
330.502;000.056;62;000.266;MIDI 01
330.476;000.093;68;000.414;MIDI 01
330.769;000.125;39;000.445;MIDI 01
330.790;000.116;51;000.391;MIDI 01
330.792;000.130;63;000.352;MIDI 01
330.785;000.144;67;000.391;MIDI 01
330.007;000.966;71;000.555;MIDI 01
331.170;000.053;63;000.023;MIDI 01
331.106;000.350;55;000.312;MIDI 01
331.404;000.073;60;000.320;MIDI 01
331.659;000.061;55;000.414;MIDI 01
331.367;000.354;63;000.445;MIDI 01
331.398;000.325;72;000.492;MIDI 01
331.100;000.643;67;000.438;MIDI 01
331.639;000.231;48;000.359;MIDI 01
331.860;000.029;55;000.352;MIDI 01
331.615;000.289;74;000.609;MIDI 01
331.876;000.054;63;000.445;MIDI 01
331.872;000.322;67;000.547;MIDI 01
332.161;000.114;48;000.367;MIDI 01
332.163;000.139;63;000.430;MIDI 01
332.159;000.195;36;000.320;MIDI 01
332.567;000.140;35;000.367;MIDI 01
332.581;000.144;47;000.312;MIDI 01
332.552;000.207;65;000.430;MIDI 01
332.569;000.217;67;000.391;MIDI 01
332.157;000.790;75;000.523;MIDI 01
332.935;000.064;65;000.383;MIDI 01
332.951;000.062;67;000.328;MIDI 01
333.158;000.068;62;000.469;MIDI 01
332.947;000.357;55;000.328;MIDI 01
333.163;000.156;65;000.430;MIDI 01
333.380;000.050;47;000.484;MIDI 01
333.160;000.322;67;000.438;MIDI 01
333.421;000.232;55;000.320;MIDI 01
333.611;000.045;50;000.438;MIDI 01
333.627;000.034;65;000.438;MIDI 01
333.640;000.039;67;000.461;MIDI 01
333.824;000.072;65;000.469;MIDI 01
333.855;000.081;47;000.492;MIDI 01
333.868;000.085;67;000.258;MIDI 01
334.097;000.047;36;000.508;MIDI 01
334.102;000.070;48;000.469;MIDI 01
334.101;000.078;63;000.469;MIDI 01
333.393;000.789;74;000.586;MIDI 01
334.100;000.099;67;000.461;MIDI 01
334.345;000.038;63;000.367;MIDI 01
334.361;000.069;67;000.430;MIDI 01
334.567;000.038;63;000.414;MIDI 01
334.595;000.028;67;000.359;MIDI 01
334.573;000.101;75;000.578;MIDI 01
334.601;000.074;60;000.391;MIDI 01
334.343;000.372;55;000.445;MIDI 01
334.822;000.092;48;000.406;MIDI 01
334.877;000.218;67;000.484;MIDI 01
335.149;000.043;63;000.414;MIDI 01
334.891;000.315;55;000.500;MIDI 01
335.159;000.086;51;000.492;MIDI 01
335.147;000.135;67;000.383;MIDI 01
334.854;000.466;77;000.625;MIDI 01
335.161;000.241;75;000.555;MIDI 01
335.516;000.069;48;000.430;MIDI 01
335.483;000.122;36;000.406;MIDI 01
335.502;000.151;67;000.484;MIDI 01
335.562;000.097;72;000.094;MIDI 01
335.496;000.180;79;000.547;MIDI 01
336.046;000.247;29;000.422;MIDI 01
336.035;000.290;41;000.430;MIDI 01
336.044;000.330;68;000.477;MIDI 01
336.050;000.400;72;000.484;MIDI 01
336.598;000.094;68;000.344;MIDI 01
336.025;000.718;79;000.586;MIDI 01
336.595;000.267;75;000.477;MIDI 01
336.917;000.058;72;000.328;MIDI 01
336.891;000.127;68;000.422;MIDI 01
336.886;000.146;63;000.344;MIDI 01
336.915;000.181;56;000.445;MIDI 01
337.024;000.087;53;000.094;MIDI 01
337.205;000.093;68;000.430;MIDI 01
337.259;000.079;56;000.328;MIDI 01
337.226;000.194;72;000.312;MIDI 01
337.196;000.258;80;000.625;MIDI 01
337.245;000.212;63;000.445;MIDI 01
336.622;000.864;60;000.453;MIDI 01
337.472;000.023;56;000.352;MIDI 01
336.884;000.618;77;000.539;MIDI 01
337.483;000.041;68;000.398;MIDI 01
337.486;000.065;75;000.078;MIDI 01
337.770;000.033;29;000.305;MIDI 01
337.767;000.094;41;000.406;MIDI 01
337.774;000.100;65;000.414;MIDI 01
337.761;000.169;68;000.180;MIDI 01
337.759;000.270;72;000.477;MIDI 01
338.092;000.096;32;000.438;MIDI 01
338.100;000.109;44;000.406;MIDI 01
338.075;000.143;68;000.227;MIDI 01
338.072;000.157;65;000.336;MIDI 01
338.069;000.300;74;000.547;MIDI 01
338.389;000.042;65;000.398;MIDI 01
338.377;000.074;68;000.328;MIDI 01
338.363;000.271;72;000.352;MIDI 01
338.604;000.036;65;000.297;MIDI 01
338.614;000.107;75;000.500;MIDI 01
338.631;000.128;63;000.445;MIDI 01
338.871;000.077;68;000.438;MIDI 01
338.932;000.067;56;000.266;MIDI 01
338.873;000.253;75;000.523;MIDI 01
338.449;000.688;60;000.242;MIDI 01
339.081;000.058;68;000.422;MIDI 01
339.125;000.075;72;000.336;MIDI 01
339.062;000.167;77;000.547;MIDI 01
339.243;000.040;63;000.445;MIDI 01
339.233;000.071;60;000.211;MIDI 01
339.258;000.050;68;000.438;MIDI 01
338.870;000.447;53;000.375;MIDI 01
339.247;000.114;75;000.570;MIDI 01
339.245;000.133;56;000.422;MIDI 01
339.276;000.125;72;000.258;MIDI 01
339.424;000.067;68;000.531;MIDI 01
339.421;000.278;74;000.547;MIDI 01
339.608;000.093;75;000.570;MIDI 01
339.624;000.096;68;000.461;MIDI 01
339.426;000.305;72;000.312;MIDI 01
339.672;000.182;32;000.500;MIDI 01
339.820;000.097;79;000.602;MIDI 01
339.866;000.056;72;000.289;MIDI 01
339.678;000.247;44;000.484;MIDI 01
339.873;000.064;68;000.164;MIDI 01
340.091;000.045;72;000.305;MIDI 01
340.094;000.048;75;000.273;MIDI 01
340.040;000.117;77;000.562;MIDI 01
340.061;000.096;68;000.484;MIDI 01
340.465;000.194;68;000.320;MIDI 01
340.444;000.347;46;000.367;MIDI 01
340.460;000.359;34;000.320;MIDI 01
340.439;000.428;65;000.414;MIDI 01
340.462;000.415;70;000.344;MIDI 01
341.041;000.056;70;000.391;MIDI 01
341.062;000.042;68;000.273;MIDI 01
341.079;000.059;65;000.078;MIDI 01
341.023;000.291;56;000.414;MIDI 01
341.285;000.053;65;000.375;MIDI 01
341.296;000.053;68;000.195;MIDI 01
341.270;000.217;70;000.320;MIDI 01
341.524;000.053;46;000.312;MIDI 01
341.499;000.084;65;000.383;MIDI 01
341.323;000.274;53;000.148;MIDI 01
341.491;000.114;68;000.430;MIDI 01
341.524;000.219;56;000.430;MIDI 01
341.728;000.041;53;000.391;MIDI 01
341.746;000.047;65;000.391;MIDI 01
341.751;000.059;62;000.102;MIDI 01
341.748;000.171;70;000.406;MIDI 01
341.970;000.061;65;000.367;MIDI 01
341.969;000.084;46;000.523;MIDI 01
341.975;000.080;34;000.461;MIDI 01
341.976;000.109;68;000.516;MIDI 01
341.959;000.140;70;000.195;MIDI 01
342.247;000.066;65;000.422;MIDI 01
342.241;000.096;67;000.531;MIDI 01
342.220;000.159;35;000.594;MIDI 01
342.227;000.167;47;000.578;MIDI 01
342.527;000.052;67;000.477;MIDI 01
342.790;000.026;65;000.336;MIDI 01
342.758;000.059;67;000.508;MIDI 01
342.770;000.059;62;000.547;MIDI 01
342.808;000.099;50;000.305;MIDI 01
342.982;000.058;65;000.336;MIDI 01
342.996;000.050;47;000.516;MIDI 01
342.975;000.175;67;000.516;MIDI 01
343.261;000.041;62;000.578;MIDI 01
343.271;000.041;65;000.375;MIDI 01
343.011;000.311;55;000.484;MIDI 01
343.276;000.071;50;000.508;MIDI 01
343.273;000.281;68;000.547;MIDI 01
343.219;000.409;70;000.477;MIDI 01
340.420;003.246;74;000.586;MIDI 01
343.666;000.073;65;000.453;MIDI 01
343.639;000.191;35;000.609;MIDI 01
343.643;000.254;47;000.578;MIDI 01
343.646;000.321;67;000.539;MIDI 01
344.113;000.135;67;000.523;MIDI 01
344.108;000.178;72;000.492;MIDI 01
344.106;000.192;36;000.523;MIDI 01
344.104;000.226;64;000.547;MIDI 01
344.102;000.239;48;000.594;MIDI 01
344.115;000.258;76;000.500;MIDI 01
344.525;000.075;70;000.500;MIDI 01
344.540;000.071;67;000.391;MIDI 01
344.550;000.078;72;000.430;MIDI 01
344.527;000.111;76;000.555;MIDI 01
344.793;000.031;76;000.422;MIDI 01
344.779;000.055;72;000.312;MIDI 01
344.795;000.043;67;000.258;MIDI 01
344.816;000.036;70;000.211;MIDI 01
344.544;000.333;60;000.391;MIDI 01
344.548;000.344;58;000.398;MIDI 01
344.781;000.122;64;000.500;MIDI 01
344.558;000.353;55;000.352;MIDI 01
345.059;000.052;70;000.484;MIDI 01
345.056;000.072;58;000.477;MIDI 01
345.067;000.070;55;000.289;MIDI 01
345.060;000.095;60;000.445;MIDI 01
345.101;000.094;73;000.172;MIDI 01
345.291;000.046;58;000.477;MIDI 01
345.334;000.030;70;000.445;MIDI 01
345.358;000.032;72;000.398;MIDI 01
345.360;000.052;76;000.289;MIDI 01
345.590;000.071;72;000.391;MIDI 01
345.613;000.051;36;000.250;MIDI 01
345.606;000.059;48;000.391;MIDI 01
345.569;000.099;70;000.492;MIDI 01
345.571;000.106;76;000.445;MIDI 01
345.930;000.106;41;000.594;MIDI 01
345.933;000.137;68;000.539;MIDI 01
345.938;000.141;53;000.531;MIDI 01
345.951;000.173;72;000.461;MIDI 01
345.935;000.252;76;000.469;MIDI 01
345.033;001.312;79;000.688;MIDI 01
346.291;000.067;68;000.469;MIDI 01
346.304;000.078;76;000.508;MIDI 01
346.314;000.070;72;000.398;MIDI 01
346.332;000.096;56;000.352;MIDI 01
346.525;000.048;68;000.406;MIDI 01
346.505;000.103;64;000.492;MIDI 01
346.283;000.340;60;000.414;MIDI 01
346.554;000.071;56;000.164;MIDI 01
346.535;000.108;76;000.461;MIDI 01
346.578;000.070;72;000.086;MIDI 01
346.750;000.113;56;000.469;MIDI 01
346.744;000.134;68;000.531;MIDI 01
346.725;000.276;53;000.422;MIDI 01
346.999;000.002;53;000.070;MIDI 01
346.773;000.275;60;000.477;MIDI 01
347.012;000.045;65;000.320;MIDI 01
346.996;000.086;56;000.508;MIDI 01
347.023;000.062;68;000.383;MIDI 01
347.053;000.060;72;000.305;MIDI 01
347.062;000.099;77;000.328;MIDI 01
347.304;000.058;41;000.523;MIDI 01
347.306;000.059;68;000.414;MIDI 01
347.335;000.043;53;000.344;MIDI 01
347.712;000.154;34;000.547;MIDI 01
347.715;000.157;46;000.539;MIDI 01
347.720;000.286;75;000.547;MIDI 01
347.321;000.704;77;000.461;MIDI 01
347.722;000.305;72;000.523;MIDI 01
346.732;001.303;80;000.688;MIDI 01
347.718;000.324;68;000.516;MIDI 01
348.297;000.071;72;000.320;MIDI 01
348.247;000.132;68;000.438;MIDI 01
348.559;000.031;68;000.367;MIDI 01
348.252;000.343;75;000.500;MIDI 01
348.539;000.074;56;000.258;MIDI 01
348.398;000.264;63;000.125;MIDI 01
348.249;000.548;60;000.500;MIDI 01
348.760;000.041;72;000.359;MIDI 01
348.509;000.295;79;000.664;MIDI 01
348.724;000.090;68;000.383;MIDI 01
348.743;000.075;75;000.555;MIDI 01
348.801;000.042;60;000.023;MIDI 01
348.552;000.472;53;000.477;MIDI 01
349.029;000.033;62;000.352;MIDI 01
349.027;000.048;58;000.406;MIDI 01
348.771;000.325;56;000.414;MIDI 01
349.021;000.103;68;000.359;MIDI 01
349.030;000.292;70;000.359;MIDI 01
349.023;000.301;74;000.375;MIDI 01
349.375;000.045;46;000.383;MIDI 01
349.383;000.041;34;000.266;MIDI 01
349.353;000.231;68;000.406;MIDI 01
349.742;000.150;39;000.391;MIDI 01
349.746;000.157;51;000.375;MIDI 01
349.720;000.218;67;000.453;MIDI 01
349.722;000.310;74;000.375;MIDI 01
349.332;000.756;77;000.516;MIDI 01
350.070;000.379;75;000.547;MIDI 01
350.246;000.216;55;000.398;MIDI 01
350.047;000.430;67;000.422;MIDI 01
350.264;000.288;51;000.336;MIDI 01
350.052;000.535;70;000.266;MIDI 01
350.592;000.105;70;000.156;MIDI 01
350.372;000.329;77;000.609;MIDI 01
350.256;000.458;58;000.453;MIDI 01
350.595;000.137;67;000.562;MIDI 01
350.568;000.183;75;000.633;MIDI 01
350.542;000.214;62;000.375;MIDI 01
350.751;000.082;67;000.344;MIDI 01
350.762;000.083;70;000.367;MIDI 01
350.753;000.155;74;000.641;MIDI 01
350.978;000.052;67;000.570;MIDI 01
351.018;000.042;62;000.320;MIDI 01
350.976;000.127;75;000.617;MIDI 01
350.736;000.376;51;000.281;MIDI 01
350.994;000.124;58;000.516;MIDI 01
350.719;000.424;55;000.312;MIDI 01
351.183;000.113;67;000.578;MIDI 01
351.194;000.126;70;000.555;MIDI 01
351.177;000.146;77;000.641;MIDI 01
351.387;000.044;51;000.562;MIDI 01
351.404;000.033;39;000.461;MIDI 01
351.458;000.169;79;000.648;MIDI 01
351.467;000.173;67;000.484;MIDI 01
351.806;000.035;72;000.391;MIDI 01
351.759;000.110;79;000.656;MIDI 01
351.770;000.218;44;000.523;MIDI 01
351.768;000.225;32;000.477;MIDI 01
351.791;000.294;67;000.523;MIDI 01
352.003;000.127;68;000.477;MIDI 01
351.988;000.323;72;000.477;MIDI 01
352.271;000.042;67;000.273;MIDI 01
352.258;000.077;68;000.438;MIDI 01
352.347;000.077;48;000.023;MIDI 01
352.516;000.050;67;000.336;MIDI 01
352.506;000.080;68;000.414;MIDI 01
352.274;000.317;56;000.438;MIDI 01
352.543;000.092;60;000.398;MIDI 01
352.779;000.066;56;000.398;MIDI 01
352.800;000.061;67;000.203;MIDI 01
352.776;000.160;68;000.398;MIDI 01
352.835;000.113;51;000.172;MIDI 01
352.788;000.241;48;000.328;MIDI 01
353.018;000.050;56;000.359;MIDI 01
352.760;000.365;72;000.523;MIDI 01
353.065;000.074;67;000.406;MIDI 01
353.359;000.060;67;000.500;MIDI 01
353.384;000.049;32;000.359;MIDI 01
353.390;000.048;44;000.406;MIDI 01
353.053;000.405;68;000.305;MIDI 01
353.350;000.220;72;000.586;MIDI 01
353.780;000.048;68;000.312;MIDI 01
353.736;000.117;38;000.445;MIDI 01
353.753;000.140;50;000.430;MIDI 01
353.743;000.229;65;000.508;MIDI 01
354.143;000.040;65;000.375;MIDI 01
354.095;000.132;68;000.539;MIDI 01
354.131;000.274;50;000.312;MIDI 01
354.148;000.271;56;000.359;MIDI 01
354.348;000.086;65;000.508;MIDI 01
354.140;000.318;53;000.391;MIDI 01
354.345;000.115;60;000.492;MIDI 01
354.353;000.110;68;000.422;MIDI 01
353.748;000.753;72;000.555;MIDI 01
354.645;000.040;65;000.172;MIDI 01
354.600;000.095;56;000.523;MIDI 01
354.590;000.326;53;000.477;MIDI 01
354.586;000.333;77;000.711;MIDI 01
354.865;000.060;56;000.508;MIDI 01
354.868;000.070;65;000.398;MIDI 01
354.592;000.347;50;000.469;MIDI 01
354.880;000.062;60;000.227;MIDI 01
354.867;000.107;68;000.453;MIDI 01
355.195;000.036;38;000.430;MIDI 01
355.201;000.044;50;000.383;MIDI 01
355.222;000.045;68;000.156;MIDI 01
354.882;000.391;72;000.492;MIDI 01
355.188;000.122;65;000.477;MIDI 01
355.161;000.193;75;000.609;MIDI 01
355.605;000.114;31;000.578;MIDI 01
355.621;000.113;43;000.562;MIDI 01
355.616;000.241;65;000.562;MIDI 01
355.623;000.246;68;000.539;MIDI 01
355.635;000.292;72;000.516;MIDI 01
356.086;000.105;65;000.461;MIDI 01
356.113;000.086;56;000.391;MIDI 01
356.097;000.105;68;000.422;MIDI 01
356.098;000.196;72;000.398;MIDI 01
356.102;000.314;50;000.406;MIDI 01
356.379;000.049;60;000.453;MIDI 01
356.357;000.073;65;000.461;MIDI 01
356.100;000.339;53;000.359;MIDI 01
356.375;000.076;56;000.461;MIDI 01
356.634;000.099;71;000.328;MIDI 01
356.627;000.114;55;000.398;MIDI 01
356.602;000.166;65;000.445;MIDI 01
356.600;000.214;67;000.461;MIDI 01
356.604;000.280;50;000.422;MIDI 01
356.889;000.043;55;000.414;MIDI 01
356.923;000.065;59;000.086;MIDI 01
356.907;000.101;67;000.375;MIDI 01
356.905;000.105;65;000.352;MIDI 01
355.607;001.405;75;000.625;MIDI 01
356.381;000.651;68;000.375;MIDI 01
356.914;000.184;71;000.414;MIDI 01
357.242;000.036;67;000.312;MIDI 01
357.229;000.098;65;000.258;MIDI 01
357.236;000.102;43;000.367;MIDI 01
357.226;000.161;31;000.375;MIDI 01
357.637;000.233;63;000.391;MIDI 01
357.666;000.297;44;000.414;MIDI 01
357.691;000.307;32;000.336;MIDI 01
357.218;000.839;74;000.492;MIDI 01
358.042;000.151;63;000.414;MIDI 01
358.033;000.360;72;000.500;MIDI 01
358.398;000.095;63;000.492;MIDI 01
358.270;000.303;48;000.336;MIDI 01
358.254;000.414;56;000.438;MIDI 01
358.385;000.366;74;000.586;MIDI 01
358.648;000.106;63;000.523;MIDI 01
358.580;000.227;60;000.375;MIDI 01
357.640;001.184;68;000.406;MIDI 01
358.604;000.283;51;000.383;MIDI 01
358.874;000.066;63;000.398;MIDI 01
358.653;000.294;72;000.578;MIDI 01
359.073;000.116;63;000.570;MIDI 01
359.238;000.032;60;000.461;MIDI 01
358.860;000.424;56;000.445;MIDI 01
358.866;000.422;48;000.445;MIDI 01
358.853;000.490;71;000.562;MIDI 01
359.244;000.110;51;000.539;MIDI 01
359.351;000.154;74;000.609;MIDI 01
359.081;000.426;72;000.602;MIDI 01
359.354;000.165;63;000.586;MIDI 01
359.391;000.163;68;000.188;MIDI 01
359.584;000.159;44;000.602;MIDI 01
359.692;000.054;75;000.641;MIDI 01
359.590;000.171;32;000.547;MIDI 01
359.690;000.073;63;000.633;MIDI 01
360.164;000.188;27;000.539;MIDI 01
360.153;000.218;39;000.586;MIDI 01
360.149;000.316;60;000.602;MIDI 01
360.143;000.345;55;000.617;MIDI 01
360.677;000.074;55;000.422;MIDI 01
360.685;000.093;60;000.438;MIDI 01
360.134;000.651;67;000.672;MIDI 01
360.683;000.243;51;000.352;MIDI 01
360.996;000.041;60;000.578;MIDI 01
361.045;000.464;55;000.406;MIDI 01
361.043;000.490;63;000.469;MIDI 01
361.459;000.145;51;000.406;MIDI 01
361.498;000.149;60;000.422;MIDI 01
361.467;000.327;72;000.695;MIDI 01
361.952;000.043;67;000.516;MIDI 01
361.950;000.101;60;000.477;MIDI 01
361.933;000.146;55;000.516;MIDI 01
361.940;000.322;72;000.578;MIDI 01
361.959;000.311;79;000.492;MIDI 01
361.456;001.117;84;000.711;MIDI 01
362.431;000.144;72;000.547;MIDI 01
362.427;000.167;79;000.555;MIDI 01
362.449;000.389;39;000.469;MIDI 01
362.425;000.415;27;000.469;MIDI 01
363.166;000.316;29;000.469;MIDI 01
363.175;000.318;41;000.445;MIDI 01
363.148;000.371;72;000.609;MIDI 01
363.159;000.359;74;000.633;MIDI 01
363.711;000.229;74;000.555;MIDI 01
363.703;000.253;72;000.539;MIDI 01
363.140;000.981;84;000.695;MIDI 01
363.695;000.445;83;000.648;MIDI 01
364.097;000.103;74;000.508;MIDI 01
364.100;000.107;72;000.500;MIDI 01
363.960;000.258;60;000.477;MIDI 01
364.091;000.181;82;000.664;MIDI 01
363.951;000.371;62;000.469;MIDI 01
363.955;000.377;53;000.438;MIDI 01
364.296;000.152;65;000.516;MIDI 01
364.310;000.165;60;000.359;MIDI 01
364.424;000.191;74;000.477;MIDI 01
364.378;000.292;81;000.680;MIDI 01
364.398;000.283;72;000.508;MIDI 01
364.630;000.107;80;000.664;MIDI 01
364.632;000.121;60;000.352;MIDI 01
364.635;000.295;62;000.445;MIDI 01
364.915;000.045;68;000.516;MIDI 01
364.900;000.114;77;000.633;MIDI 01
364.644;000.373;53;000.453;MIDI 01
365.038;000.030;68;000.508;MIDI 01
365.046;000.051;62;000.469;MIDI 01
365.044;000.065;60;000.414;MIDI 01
365.229;000.170;65;000.594;MIDI 01
365.227;000.286;72;000.602;MIDI 01
365.481;000.140;29;000.422;MIDI 01
365.478;000.275;41;000.438;MIDI 01
365.594;000.196;65;000.516;MIDI 01
365.583;000.254;68;000.547;MIDI 01
365.591;000.322;74;000.578;MIDI 01
366.035;000.244;31;000.492;MIDI 01
366.053;000.249;70;000.539;MIDI 01
366.044;000.260;43;000.516;MIDI 01
366.048;000.258;64;000.570;MIDI 01
366.041;000.274;76;000.602;MIDI 01
366.052;000.304;72;000.531;MIDI 01
366.470;000.169;77;000.641;MIDI 01
366.476;000.167;65;000.547;MIDI 01
366.472;000.173;70;000.570;MIDI 01
366.636;000.178;60;000.469;MIDI 01
366.649;000.206;55;000.406;MIDI 01
366.798;000.080;64;000.516;MIDI 01
366.789;000.099;76;000.617;MIDI 01
366.667;000.239;58;000.367;MIDI 01
366.786;000.152;70;000.602;MIDI 01
367.005;000.040;67;000.539;MIDI 01
367.027;000.065;74;000.562;MIDI 01
367.011;000.099;62;000.602;MIDI 01
367.025;000.126;70;000.383;MIDI 01
367.269;000.080;60;000.422;MIDI 01
367.242;000.113;70;000.508;MIDI 01
367.258;000.136;58;000.453;MIDI 01
367.256;000.150;76;000.625;MIDI 01
367.523;000.058;70;000.578;MIDI 01
367.511;000.260;77;000.625;MIDI 01
367.700;000.084;67;000.555;MIDI 01
367.751;000.050;61;000.312;MIDI 01
367.712;000.115;60;000.383;MIDI 01
367.265;000.591;55;000.500;MIDI 01
367.707;000.150;58;000.523;MIDI 01
367.926;000.072;76;000.312;MIDI 01
367.877;000.222;70;000.641;MIDI 01
367.899;000.261;72;000.438;MIDI 01
367.856;000.328;80;000.672;MIDI 01
368.002;000.282;76;000.141;MIDI 01
368.147;000.152;31;000.477;MIDI 01
368.170;000.190;43;000.461;MIDI 01
368.262;000.148;70;000.602;MIDI 01
368.254;000.223;79;000.641;MIDI 01
368.595;000.216;32;000.562;MIDI 01
368.593;000.250;44;000.609;MIDI 01
368.604;000.247;72;000.516;MIDI 01
368.606;000.322;65;000.617;MIDI 01
368.947;000.242;72;000.594;MIDI 01
368.943;000.343;76;000.633;MIDI 01
369.210;000.132;72;000.508;MIDI 01
369.227;000.170;77;000.633;MIDI 01
369.119;000.324;60;000.516;MIDI 01
369.139;000.367;53;000.422;MIDI 01
369.397;000.171;65;000.586;MIDI 01
369.593;000.053;75;000.188;MIDI 01
369.532;000.155;79;000.656;MIDI 01
369.526;000.284;72;000.586;MIDI 01
369.967;000.045;72;000.477;MIDI 01
369.934;000.370;82;000.727;MIDI 01
369.748;000.597;60;000.539;MIDI 01
370.274;000.073;80;000.672;MIDI 01
370.289;000.097;72;000.672;MIDI 01
369.808;000.631;53;000.320;MIDI 01
370.445;000.101;68;000.570;MIDI 01
370.484;000.071;60;000.234;MIDI 01
370.377;000.306;62;000.250;MIDI 01
370.767;000.058;60;000.117;MIDI 01
370.650;000.206;65;000.617;MIDI 01
370.646;000.370;72;000.688;MIDI 01
370.958;000.165;74;000.648;MIDI 01
370.968;000.182;65;000.664;MIDI 01
371.091;000.130;44;000.469;MIDI 01
371.078;000.240;32;000.430;MIDI 01
371.528;000.272;43;000.461;MIDI 01
371.524;000.280;31;000.508;MIDI 01
371.524;000.439;63;000.625;MIDI 01
371.522;000.509;67;000.586;MIDI 01
371.526;000.526;72;000.555;MIDI 01
372.262;000.105;63;000.297;MIDI 01
372.275;000.164;72;000.320;MIDI 01
372.255;000.225;67;000.289;MIDI 01
372.658;000.053;63;000.180;MIDI 01
372.665;000.117;67;000.289;MIDI 01
372.650;000.165;72;000.305;MIDI 01
372.260;000.556;55;000.336;MIDI 01
372.620;000.274;60;000.375;MIDI 01
372.985;000.070;63;000.414;MIDI 01
372.997;000.119;67;000.281;MIDI 01
372.977;000.141;72;000.430;MIDI 01
371.522;001.761;75;000.625;MIDI 01
372.975;000.310;48;000.188;MIDI 01
373.265;000.050;72;000.438;MIDI 01
372.994;000.366;55;000.328;MIDI 01
373.276;000.158;63;000.508;MIDI 01
373.290;000.294;60;000.523;MIDI 01
373.599;000.110;63;000.578;MIDI 01
373.593;000.119;55;000.578;MIDI 01
373.603;000.172;48;000.531;MIDI 01
373.596;000.352;72;000.578;MIDI 01
373.861;000.095;63;000.547;MIDI 01
373.854;000.210;74;000.625;MIDI 01
374.056;000.081;72;000.617;MIDI 01
374.054;000.092;63;000.570;MIDI 01
374.370;000.332;31;000.539;MIDI 01
374.364;000.342;43;000.547;MIDI 01
374.383;000.395;62;000.508;MIDI 01
374.366;000.423;60;000.586;MIDI 01
374.979;000.130;62;000.359;MIDI 01
374.977;000.153;60;000.375;MIDI 01
375.351;000.103;60;000.352;MIDI 01
375.371;000.120;62;000.203;MIDI 01
374.996;000.552;50;000.406;MIDI 01
375.400;000.382;55;000.266;MIDI 01
375.730;000.181;59;000.391;MIDI 01
375.698;000.233;50;000.398;MIDI 01
375.711;000.229;62;000.398;MIDI 01
376.117;000.037;55;000.438;MIDI 01
376.139;000.094;50;000.367;MIDI 01
375.707;000.576;43;000.352;MIDI 01
374.354;001.985;67;000.641;MIDI 01
376.111;000.294;59;000.367;MIDI 01
376.114;000.312;62;000.484;MIDI 01
376.591;000.231;59;000.492;MIDI 01
376.576;000.255;67;000.586;MIDI 01
376.570;000.431;31;000.562;MIDI 01
376.934;000.100;59;000.484;MIDI 01
376.569;000.493;43;000.594;MIDI 01
376.922;000.154;68;000.625;MIDI 01
377.142;000.062;67;000.602;MIDI 01
377.157;000.070;59;000.617;MIDI 01
377.600;000.534;30;000.562;MIDI 01
377.591;000.582;42;000.570;MIDI 01
377.586;000.674;51;000.570;MIDI 01
377.603;000.704;56;000.461;MIDI 01
378.526;000.442;42;000.312;MIDI 01
378.495;000.603;51;000.383;MIDI 01
378.968;000.280;56;000.359;MIDI 01
378.990;000.356;48;000.375;MIDI 01
379.717;000.061;56;000.320;MIDI 01
379.720;000.095;48;000.383;MIDI 01
379.360;000.456;51;000.422;MIDI 01
379.345;000.549;42;000.359;MIDI 01
380.179;000.316;42;000.500;MIDI 01
380.172;000.376;30;000.461;MIDI 01
380.751;000.380;29;000.469;MIDI 01
380.757;000.434;41;000.422;MIDI 01
377.577;003.760;60;000.641;MIDI 01
381.276;000.350;61;000.609;MIDI 01
381.560;000.218;49;000.484;MIDI 01
381.558;000.232;41;000.414;MIDI 01
381.906;000.186;56;000.461;MIDI 01
381.657;000.470;65;000.586;MIDI 01
381.910;000.223;49;000.367;MIDI 01
381.978;000.335;68;000.617;MIDI 01
382.252;000.213;73;000.656;MIDI 01
382.280;000.236;49;000.477;MIDI 01
382.286;000.244;41;000.383;MIDI 01
382.793;000.110;56;000.492;MIDI 01
382.776;000.191;49;000.461;MIDI 01
382.546;000.439;76;000.703;MIDI 01
382.921;000.485;77;000.641;MIDI 01
383.334;000.175;80;000.688;MIDI 01
383.297;000.568;29;000.469;MIDI 01
383.312;000.581;41;000.453;MIDI 01
384.076;000.377;31;000.445;MIDI 01
384.078;000.390;43;000.469;MIDI 01
384.921;000.223;50;000.281;MIDI 01
385.311;000.170;50;000.367;MIDI 01
384.919;000.581;43;000.250;MIDI 01
385.320;000.262;53;000.359;MIDI 01
385.786;000.234;56;000.398;MIDI 01
385.808;000.247;53;000.219;MIDI 01
386.198;000.229;56;000.344;MIDI 01
386.222;000.210;53;000.344;MIDI 01
386.659;000.137;56;000.328;MIDI 01
386.682;000.195;53;000.297;MIDI 01
387.302;000.043;43;000.422;MIDI 01
387.317;000.408;31;000.367;MIDI 01
387.781;000.531;68;000.523;MIDI 01
384.039;004.280;59;000.703;MIDI 01
388.084;000.336;50;000.359;MIDI 01
388.115;000.451;43;000.281;MIDI 01
388.544;000.072;53;000.328;MIDI 01
388.521;000.099;50;000.258;MIDI 01
388.245;000.428;67;000.633;MIDI 01
388.668;000.451;66;000.625;MIDI 01
389.114;000.355;53;000.320;MIDI 01
389.092;000.403;59;000.414;MIDI 01
389.060;000.560;65;000.570;MIDI 01
389.494;000.442;55;000.508;MIDI 01
389.679;000.351;53;000.328;MIDI 01
389.682;000.384;59;000.375;MIDI 01
390.373;000.066;59;000.328;MIDI 01
390.371;000.160;53;000.336;MIDI 01
389.927;000.686;65;000.602;MIDI 01
390.557;000.898;63;000.547;MIDI 01
391.401;000.494;24;000.359;MIDI 01
392.350;000.303;43;000.297;MIDI 01
392.919;000.242;51;000.328;MIDI 01
393.372;000.260;51;000.227;MIDI 01
393.407;000.242;55;000.312;MIDI 01
393.868;000.085;55;000.273;MIDI 01
393.878;000.102;51;000.305;MIDI 01
392.917;001.109;43;000.125;MIDI 01
394.453;000.864;31;000.336;MIDI 01
395.142;000.303;36;000.281;MIDI 01
395.797;000.295;43;000.297;MIDI 01
396.315;000.233;51;000.273;MIDI 01
396.894;000.277;51;000.172;MIDI 01
396.913;000.281;55;000.117;MIDI 01
397.470;000.181;51;000.156;MIDI 01
396.322;001.398;43;000.203;MIDI 01
398.361;001.079;31;000.211;MIDI 01
391.374;008.994;60;000.508;MIDI 01
400.226;000.936;55;000.273;MIDI 01
399.327;001.921;24;000.234;MIDI 01
401.056;000.545;60;000.305;MIDI 01
401.543;000.619;62;000.406;MIDI 01
401.947;000.731;63;000.398;MIDI 01
402.404;000.631;66;000.336;MIDI 01
402.932;000.899;68;000.320;MIDI 01
403.722;001.054;67;000.336;MIDI 01
404.393;000.577;71;000.297;MIDI 01
404.826;000.493;74;000.344;MIDI 01
405.230;000.712;72;000.359;MIDI 01
405.668;000.730;75;000.344;MIDI 01
406.266;000.953;78;000.266;MIDI 01
407.007;000.749;79;000.344;MIDI 01
407.598;000.255;82;000.219;MIDI 01
407.727;001.822;80;000.336;MIDI 01
409.364;001.185;79;000.266;MIDI 01
410.303;002.714;84;000.211;MIDI 01
415.696;000.990;48;000.148;MIDI 01
415.675;001.271;36;000.211;MIDI 01
415.678;001.315;60;000.266;MIDI 01
415.677;001.369;55;000.219;MIDI 01
415.663;001.406;63;000.250;MIDI 01
418.142;000.914;48;000.234;MIDI 01
418.114;001.158;51;000.188;MIDI 01
418.124;001.355;36;000.242;MIDI 01
418.121;001.424;60;000.273;MIDI 01
418.106;001.564;63;000.281;MIDI 01
418.119;001.575;55;000.234;MIDI 01
420.886;005.537;51;000.219;MIDI 01
420.922;005.625;48;000.242;MIDI 01
420.895;005.939;60;000.297;MIDI 01
420.897;005.993;55;000.273;MIDI 01
420.921;006.215;43;000.227;MIDI 01
420.876;006.387;63;000.297;MIDI 01
420.919;006.894;36;000.258;MIDI 01
