Start;Duration;Pitch;Velocity;Instrument
000.799;000.122;61;000.648;MIDI 01
000.827;000.133;37;000.547;MIDI 01
000.831;000.151;49;000.641;MIDI 01
000.935;000.069;40;000.508;MIDI 01
000.877;000.214;52;000.602;MIDI 01
000.876;000.218;64;000.664;MIDI 01
001.296;000.077;47;000.664;MIDI 01
001.254;000.125;59;000.672;MIDI 01
001.302;000.089;35;000.641;MIDI 01
001.378;000.069;40;000.547;MIDI 01
001.333;000.174;52;000.672;MIDI 01
001.328;000.201;64;000.703;MIDI 01
001.723;000.049;33;000.570;MIDI 01
001.704;000.070;45;000.602;MIDI 01
001.682;000.115;57;000.680;MIDI 01
001.757;000.078;40;000.586;MIDI 01
001.748;000.175;52;000.648;MIDI 01
001.740;000.210;64;000.664;MIDI 01
002.110;000.079;44;000.648;MIDI 01
002.108;000.083;32;000.531;MIDI 01
002.157;000.067;40;000.578;MIDI 01
002.089;000.146;56;000.703;MIDI 01
002.183;000.109;52;000.719;MIDI 01
002.185;000.140;64;000.680;MIDI 01
002.580;000.086;43;000.617;MIDI 01
002.561;000.109;31;000.570;MIDI 01
002.624;000.071;40;000.609;MIDI 01
002.546;000.160;55;000.703;MIDI 01
002.639;000.070;52;000.688;MIDI 01
002.633;000.106;64;000.695;MIDI 01
003.545;000.022;67;000.656;MIDI 01
003.543;000.029;64;000.586;MIDI 01
003.538;000.048;88;000.727;MIDI 01
003.533;000.054;85;000.523;MIDI 01
003.539;000.059;61;000.609;MIDI 01
003.543;000.059;82;000.617;MIDI 01
003.542;000.066;76;000.719;MIDI 01
003.545;000.072;55;000.641;MIDI 01
003.881;000.024;55;000.586;MIDI 01
003.885;000.022;43;000.602;MIDI 01
003.883;000.033;64;000.656;MIDI 01
003.886;000.041;70;000.586;MIDI 01
003.849;000.094;73;000.430;MIDI 01
003.879;000.066;76;000.609;MIDI 01
004.004;000.030;64;000.734;MIDI 01
004.007;000.029;56;000.711;MIDI 01
003.996;000.050;76;000.695;MIDI 01
004.009;000.039;44;000.742;MIDI 01
004.018;000.060;68;000.609;MIDI 01
004.013;000.073;73;000.617;MIDI 01
004.452;000.021;32;000.648;MIDI 01
004.450;000.026;44;000.719;MIDI 01
004.445;000.045;66;000.672;MIDI 01
004.443;000.075;72;000.594;MIDI 01
004.458;000.066;68;000.656;MIDI 01
004.442;000.089;75;000.672;MIDI 01
004.620;000.034;44;000.023;MIDI 01
004.911;000.025;37;000.633;MIDI 01
004.907;000.035;49;000.703;MIDI 01
004.910;000.074;64;000.656;MIDI 01
004.906;000.140;68;000.641;MIDI 01
004.908;000.174;73;000.734;MIDI 01
005.322;000.098;49;000.562;MIDI 01
005.467;000.058;73;000.586;MIDI 01
005.481;000.070;76;000.664;MIDI 01
005.395;000.166;56;000.539;MIDI 01
005.490;000.074;64;000.656;MIDI 01
005.492;000.080;80;000.664;MIDI 01
005.496;000.089;85;000.703;MIDI 01
006.403;000.450;68;000.609;MIDI 01
006.822;000.033;37;000.594;MIDI 01
006.824;000.041;25;000.578;MIDI 01
007.206;000.036;66;000.570;MIDI 01
007.204;000.049;56;000.461;MIDI 01
007.223;000.043;60;000.438;MIDI 01
007.339;000.023;66;000.570;MIDI 01
007.340;000.034;56;000.547;MIDI 01
007.372;000.066;60;000.422;MIDI 01
007.434;000.037;66;000.625;MIDI 01
007.447;000.042;60;000.484;MIDI 01
006.841;000.910;75;000.633;MIDI 01
007.765;000.051;66;000.453;MIDI 01
007.783;000.037;60;000.281;MIDI 01
007.781;000.080;56;000.469;MIDI 01
007.767;000.116;73;000.547;MIDI 01
007.899;000.165;75;000.609;MIDI 01
008.060;000.116;49;000.477;MIDI 01
008.065;000.267;77;000.539;MIDI 01
008.446;000.051;59;000.344;MIDI 01
008.426;000.073;65;000.406;MIDI 01
008.412;000.097;75;000.508;MIDI 01
008.428;000.089;56;000.234;MIDI 01
008.459;000.058;61;000.305;MIDI 01
008.516;000.162;77;000.539;MIDI 01
008.649;000.217;78;000.633;MIDI 01
008.662;000.221;54;000.547;MIDI 01
008.897;000.047;66;000.477;MIDI 01
008.895;000.088;57;000.477;MIDI 01
008.889;000.128;77;000.609;MIDI 01
009.012;000.146;78;000.648;MIDI 01
008.932;000.244;61;000.414;MIDI 01
009.133;000.123;53;000.516;MIDI 01
009.131;000.260;80;000.609;MIDI 01
009.436;000.043;68;000.391;MIDI 01
009.429;000.079;61;000.430;MIDI 01
009.464;000.051;59;000.203;MIDI 01
009.399;000.139;78;000.555;MIDI 01
009.532;000.161;80;000.594;MIDI 01
009.710;000.276;81;000.508;MIDI 01
009.749;000.368;54;000.367;MIDI 01
010.093;000.062;66;000.305;MIDI 01
010.114;000.070;61;000.273;MIDI 01
010.127;000.091;57;000.289;MIDI 01
010.129;000.253;69;000.422;MIDI 01
010.617;000.329;44;000.328;MIDI 01
010.568;000.905;68;000.453;MIDI 01
011.246;000.232;60;000.344;MIDI 01
011.407;000.123;70;000.469;MIDI 01
011.519;000.165;56;000.375;MIDI 01
011.629;000.092;72;000.492;MIDI 01
010.986;000.775;51;000.367;MIDI 01
011.823;000.183;73;000.516;MIDI 01
012.003;000.079;75;000.555;MIDI 01
011.779;000.398;61;000.438;MIDI 01
011.783;000.436;52;000.398;MIDI 01
012.119;000.109;55;000.375;MIDI 01
012.194;000.160;76;000.586;MIDI 01
012.506;000.248;44;000.383;MIDI 01
012.816;000.166;51;000.352;MIDI 01
013.057;000.138;60;000.375;MIDI 01
012.488;001.004;75;000.453;MIDI 01
013.303;000.426;56;000.398;MIDI 01
013.671;000.107;68;000.375;MIDI 01
014.546;000.157;32;000.227;MIDI 01
014.501;000.223;75;000.352;MIDI 01
014.549;000.192;44;000.258;MIDI 01
014.871;000.055;75;000.422;MIDI 01
014.978;000.073;56;000.406;MIDI 01
015.077;000.083;75;000.461;MIDI 01
015.294;000.045;75;000.461;MIDI 01
015.285;000.074;60;000.328;MIDI 01
015.289;000.097;66;000.336;MIDI 01
015.592;000.045;73;000.398;MIDI 01
015.593;000.175;56;000.328;MIDI 01
015.715;000.128;75;000.445;MIDI 01
015.760;000.095;49;000.453;MIDI 01
015.880;000.098;59;000.438;MIDI 01
015.874;000.179;77;000.430;MIDI 01
015.990;000.102;65;000.469;MIDI 01
016.181;000.082;75;000.508;MIDI 01
016.212;000.085;61;000.477;MIDI 01
016.322;000.136;77;000.531;MIDI 01
016.445;000.209;78;000.555;MIDI 01
016.423;000.233;66;000.414;MIDI 01
016.421;000.293;54;000.352;MIDI 01
016.443;000.288;57;000.328;MIDI 01
016.712;000.089;77;000.523;MIDI 01
016.730;000.162;61;000.469;MIDI 01
016.882;000.070;53;000.492;MIDI 01
016.808;000.146;78;000.562;MIDI 01
017.071;000.080;68;000.500;MIDI 01
016.972;000.234;59;000.484;MIDI 01
016.949;000.314;80;000.562;MIDI 01
017.272;000.110;78;000.477;MIDI 01
017.319;000.121;61;000.367;MIDI 01
017.499;000.070;54;000.414;MIDI 01
017.447;000.196;80;000.438;MIDI 01
017.576;000.130;57;000.344;MIDI 01
017.716;000.178;69;000.398;MIDI 01
017.686;000.329;81;000.469;MIDI 01
018.110;000.070;61;000.375;MIDI 01
018.117;000.168;80;000.398;MIDI 01
018.325;000.234;81;000.461;MIDI 01
018.590;000.254;83;000.391;MIDI 01
018.868;000.093;81;000.422;MIDI 01
018.942;000.169;61;000.305;MIDI 01
019.051;000.065;79;000.391;MIDI 01
019.148;000.055;78;000.445;MIDI 01
019.229;000.066;79;000.531;MIDI 01
019.174;000.235;62;000.281;MIDI 01
019.288;000.147;78;000.516;MIDI 01
019.474;000.069;64;000.312;MIDI 01
019.476;000.106;76;000.461;MIDI 01
019.643;000.045;78;000.461;MIDI 01
019.821;000.136;78;000.328;MIDI 01
018.616;001.631;54;000.234;MIDI 01
018.604;001.680;57;000.312;MIDI 01
019.906;000.380;66;000.312;MIDI 01
019.953;000.385;69;000.336;MIDI 01
020.300;000.494;74;000.398;MIDI 01
020.792;000.205;64;000.258;MIDI 01
020.764;000.245;73;000.383;MIDI 01
021.032;000.175;63;000.312;MIDI 01
021.221;000.222;76;000.398;MIDI 01
021.235;000.214;68;000.367;MIDI 01
020.779;000.999;56;000.211;MIDI 01
021.524;000.575;66;000.266;MIDI 01
021.503;001.141;75;000.273;MIDI 01
021.020;001.666;72;000.391;MIDI 01
022.009;000.686;56;000.234;MIDI 01
022.621;000.314;73;000.289;MIDI 01
022.633;000.303;64;000.227;MIDI 01
022.619;000.404;61;000.273;MIDI 01
023.616;000.103;61;000.648;MIDI 01
023.634;000.098;49;000.594;MIDI 01
023.637;000.103;37;000.562;MIDI 01
023.728;000.032;40;000.484;MIDI 01
023.678;000.200;52;000.508;MIDI 01
023.689;000.222;64;000.594;MIDI 01
024.099;000.051;47;000.633;MIDI 01
024.097;000.055;35;000.609;MIDI 01
024.060;000.103;59;000.672;MIDI 01
024.144;000.069;39;000.477;MIDI 01
024.136;000.161;52;000.672;MIDI 01
024.128;000.219;64;000.680;MIDI 01
024.480;000.057;45;000.609;MIDI 01
024.489;000.067;33;000.602;MIDI 01
024.457;000.100;57;000.711;MIDI 01
024.551;000.050;40;000.430;MIDI 01
024.510;000.125;64;000.695;MIDI 01
024.523;000.155;52;000.617;MIDI 01
024.850;000.041;44;000.617;MIDI 01
024.864;000.040;32;000.477;MIDI 01
024.858;000.059;40;000.625;MIDI 01
024.819;000.134;56;000.359;MIDI 01
024.918;000.077;52;000.672;MIDI 01
024.895;000.119;64;000.625;MIDI 01
025.271;000.030;43;000.609;MIDI 01
025.259;000.051;31;000.594;MIDI 01
025.265;000.051;40;000.648;MIDI 01
025.326;000.028;52;000.703;MIDI 01
025.243;000.131;55;000.719;MIDI 01
025.315;000.091;64;000.703;MIDI 01
025.449;000.020;52;000.242;MIDI 01
026.136;000.027;67;000.641;MIDI 01
026.152;000.030;64;000.523;MIDI 01
026.134;000.050;61;000.555;MIDI 01
026.143;000.045;76;000.703;MIDI 01
026.150;000.040;88;000.734;MIDI 01
026.139;000.055;85;000.602;MIDI 01
026.144;000.052;82;000.641;MIDI 01
026.146;000.066;55;000.641;MIDI 01
026.471;000.027;55;000.516;MIDI 01
026.469;000.037;43;000.609;MIDI 01
026.473;000.044;64;000.562;MIDI 01
026.471;000.049;70;000.555;MIDI 01
026.473;000.059;76;000.602;MIDI 01
026.409;000.134;73;000.266;MIDI 01
026.599;000.025;64;000.672;MIDI 01
026.601;000.031;56;000.695;MIDI 01
026.590;000.054;76;000.695;MIDI 01
026.605;000.058;44;000.711;MIDI 01
026.616;000.076;68;000.609;MIDI 01
026.603;000.094;73;000.586;MIDI 01
027.020;000.026;32;000.625;MIDI 01
027.016;000.033;44;000.727;MIDI 01
027.012;000.246;66;000.672;MIDI 01
027.014;000.284;75;000.719;MIDI 01
027.009;000.320;72;000.594;MIDI 01
027.029;000.392;68;000.586;MIDI 01
027.533;000.047;37;000.602;MIDI 01
027.535;000.087;49;000.680;MIDI 01
027.524;000.143;64;000.672;MIDI 01
027.515;000.217;68;000.602;MIDI 01
027.521;000.256;73;000.727;MIDI 01
027.970;000.085;49;000.516;MIDI 01
028.101;000.061;73;000.586;MIDI 01
028.113;000.086;76;000.586;MIDI 01
028.134;000.071;64;000.586;MIDI 01
028.040;000.179;56;000.531;MIDI 01
028.120;000.108;80;000.617;MIDI 01
028.136;000.094;85;000.727;MIDI 01
029.003;000.373;68;000.594;MIDI 01
029.358;000.040;37;000.570;MIDI 01
029.360;000.040;25;000.594;MIDI 01
029.714;000.036;66;000.484;MIDI 01
029.706;000.046;56;000.438;MIDI 01
029.720;000.048;60;000.383;MIDI 01
029.824;000.023;66;000.594;MIDI 01
029.846;000.026;60;000.391;MIDI 01
029.857;000.060;56;000.414;MIDI 01
029.934;000.033;66;000.516;MIDI 01
029.931;000.046;56;000.469;MIDI 01
029.959;000.028;60;000.508;MIDI 01
029.366;000.888;75;000.625;MIDI 01
030.269;000.095;66;000.453;MIDI 01
030.288;000.086;60;000.367;MIDI 01
030.276;000.127;73;000.539;MIDI 01
030.289;000.152;56;000.398;MIDI 01
030.417;000.169;75;000.547;MIDI 01
030.591;000.085;49;000.555;MIDI 01
030.585;000.250;77;000.547;MIDI 01
030.925;000.068;75;000.508;MIDI 01
030.919;000.089;56;000.312;MIDI 01
030.923;000.090;65;000.383;MIDI 01
030.948;000.067;59;000.320;MIDI 01
030.926;000.106;61;000.375;MIDI 01
031.030;000.162;77;000.477;MIDI 01
031.155;000.226;78;000.570;MIDI 01
031.183;000.266;54;000.469;MIDI 01
031.403;000.054;66;000.453;MIDI 01
031.422;000.069;57;000.422;MIDI 01
031.440;000.076;61;000.375;MIDI 01
031.407;000.122;77;000.594;MIDI 01
031.517;000.148;78;000.641;MIDI 01
031.655;000.121;53;000.500;MIDI 01
031.633;000.252;80;000.633;MIDI 01
031.933;000.053;68;000.438;MIDI 01
031.953;000.053;61;000.375;MIDI 01
031.902;000.151;78;000.594;MIDI 01
031.945;000.128;59;000.328;MIDI 01
032.033;000.190;80;000.594;MIDI 01
032.234;000.228;81;000.508;MIDI 01
032.254;000.345;54;000.391;MIDI 01
032.553;000.051;66;000.312;MIDI 01
032.556;000.082;61;000.289;MIDI 01
032.580;000.087;57;000.297;MIDI 01
032.582;000.166;69;000.484;MIDI 01
033.022;000.318;44;000.312;MIDI 01
032.989;000.477;68;000.445;MIDI 01
033.638;000.223;60;000.305;MIDI 01
033.773;000.115;70;000.438;MIDI 01
033.992;000.117;72;000.508;MIDI 01
033.388;000.761;51;000.352;MIDI 01
033.927;000.244;56;000.305;MIDI 01
034.186;000.135;73;000.508;MIDI 01
034.381;000.121;75;000.531;MIDI 01
034.190;000.438;61;000.359;MIDI 01
034.478;000.183;55;000.359;MIDI 01
034.185;000.524;52;000.281;MIDI 01
034.609;000.188;76;000.531;MIDI 01
034.921;000.299;44;000.320;MIDI 01
035.261;000.206;51;000.320;MIDI 01
035.491;000.184;60;000.344;MIDI 01
036.073;000.118;68;000.391;MIDI 01
035.722;000.476;56;000.422;MIDI 01
034.927;001.287;75;000.461;MIDI 01
036.894;000.146;32;000.227;MIDI 01
036.877;000.197;75;000.312;MIDI 01
036.900;000.181;44;000.273;MIDI 01
037.210;000.124;75;000.477;MIDI 01
037.352;000.056;56;000.414;MIDI 01
037.466;000.060;75;000.438;MIDI 01
037.671;000.062;75;000.445;MIDI 01
037.655;000.210;66;000.320;MIDI 01
037.688;000.253;60;000.250;MIDI 01
037.979;000.044;73;000.391;MIDI 01
037.970;000.195;56;000.328;MIDI 01
038.165;000.075;49;000.438;MIDI 01
038.110;000.134;75;000.414;MIDI 01
038.274;000.109;59;000.469;MIDI 01
038.279;000.174;77;000.438;MIDI 01
038.388;000.125;65;000.453;MIDI 01
038.599;000.059;75;000.406;MIDI 01
038.643;000.093;61;000.414;MIDI 01
038.726;000.141;77;000.484;MIDI 01
038.839;000.194;66;000.352;MIDI 01
038.850;000.189;78;000.555;MIDI 01
038.841;000.272;54;000.297;MIDI 01
038.847;000.272;57;000.375;MIDI 01
039.123;000.058;77;000.469;MIDI 01
039.117;000.203;61;000.469;MIDI 01
039.273;000.080;53;000.508;MIDI 01
039.230;000.130;78;000.477;MIDI 01
039.486;000.080;68;000.445;MIDI 01
039.360;000.235;59;000.438;MIDI 01
039.374;000.275;80;000.531;MIDI 01
039.730;000.110;78;000.414;MIDI 01
039.915;000.056;54;000.430;MIDI 01
039.899;000.122;80;000.383;MIDI 01
040.031;000.079;57;000.070;MIDI 01
039.749;000.364;61;000.352;MIDI 01
040.110;000.130;69;000.422;MIDI 01
040.083;000.286;81;000.453;MIDI 01
040.446;000.049;61;000.352;MIDI 01
040.424;000.176;80;000.391;MIDI 01
040.605;000.234;81;000.438;MIDI 01
040.850;000.216;83;000.406;MIDI 01
041.085;000.068;81;000.438;MIDI 01
041.258;000.023;79;000.383;MIDI 01
041.153;000.159;61;000.297;MIDI 01
041.331;000.057;78;000.422;MIDI 01
040.881;000.569;54;000.234;MIDI 01
041.392;000.087;79;000.500;MIDI 01
041.366;000.225;62;000.359;MIDI 01
041.478;000.115;78;000.523;MIDI 01
041.673;000.055;64;000.328;MIDI 01
041.652;000.098;76;000.461;MIDI 01
041.794;000.042;78;000.469;MIDI 01
041.950;000.116;78;000.430;MIDI 01
040.870;001.474;57;000.273;MIDI 01
042.100;000.296;66;000.273;MIDI 01
042.067;000.380;69;000.359;MIDI 01
042.424;000.494;74;000.406;MIDI 01
042.868;000.193;64;000.281;MIDI 01
042.864;000.258;73;000.359;MIDI 01
043.120;000.171;63;000.328;MIDI 01
043.337;000.219;68;000.320;MIDI 01
043.322;000.260;76;000.391;MIDI 01
042.870;000.982;56;000.234;MIDI 01
043.628;000.550;66;000.305;MIDI 01
043.622;001.203;75;000.312;MIDI 01
043.122;001.790;72;000.367;MIDI 01
044.095;000.821;56;000.273;MIDI 01
044.785;000.354;64;000.172;MIDI 01
044.807;000.371;73;000.297;MIDI 01
044.816;000.411;61;000.211;MIDI 01
046.067;000.105;32;000.141;MIDI 01
046.658;000.372;51;000.203;MIDI 01
046.631;000.401;44;000.234;MIDI 01
046.642;000.445;56;000.242;MIDI 01
046.629;000.486;60;000.258;MIDI 01
047.405;000.182;44;000.203;MIDI 01
047.400;000.191;51;000.211;MIDI 01
047.398;000.215;60;000.211;MIDI 01
047.410;000.213;56;000.242;MIDI 01
047.735;000.080;60;000.320;MIDI 01
047.769;000.055;51;000.266;MIDI 01
047.756;000.073;56;000.273;MIDI 01
047.783;000.049;44;000.203;MIDI 01
048.010;000.033;56;000.336;MIDI 01
048.008;000.038;60;000.344;MIDI 01
048.021;000.052;44;000.250;MIDI 01
048.006;000.069;51;000.344;MIDI 01
048.286;000.074;52;000.195;MIDI 01
048.237;000.171;55;000.336;MIDI 01
048.397;000.047;58;000.328;MIDI 01
048.252;000.208;44;000.219;MIDI 01
048.466;000.028;61;000.492;MIDI 01
048.701;000.055;67;000.133;MIDI 01
048.729;000.062;70;000.438;MIDI 01
048.776;000.048;73;000.406;MIDI 01
048.810;000.043;32;000.297;MIDI 01
048.834;000.029;76;000.461;MIDI 01
049.273;000.918;67;000.359;MIDI 01
049.335;000.979;52;000.266;MIDI 01
049.268;001.064;61;000.383;MIDI 01
050.261;000.278;60;000.195;MIDI 01
050.279;000.265;51;000.227;MIDI 01
050.251;000.319;68;000.320;MIDI 01
049.321;001.283;44;000.219;MIDI 01
050.961;000.110;32;000.391;MIDI 01
051.426;000.216;56;000.297;MIDI 01
051.407;000.255;44;000.195;MIDI 01
051.422;000.276;51;000.266;MIDI 01
051.379;000.340;60;000.414;MIDI 01
052.119;000.084;56;000.320;MIDI 01
052.104;000.108;51;000.328;MIDI 01
052.109;000.143;44;000.234;MIDI 01
052.085;000.191;60;000.375;MIDI 01
052.418;000.042;44;000.406;MIDI 01
052.411;000.050;51;000.383;MIDI 01
052.426;000.060;56;000.406;MIDI 01
052.430;000.070;60;000.406;MIDI 01
052.636;000.055;51;000.383;MIDI 01
052.651;000.043;56;000.391;MIDI 01
052.646;000.057;44;000.344;MIDI 01
052.652;000.106;60;000.398;MIDI 01
052.873;000.067;57;000.477;MIDI 01
052.883;000.110;54;000.438;MIDI 01
052.971;000.046;60;000.477;MIDI 01
053.041;000.030;63;000.469;MIDI 01
053.075;000.026;66;000.461;MIDI 01
052.888;000.219;44;000.305;MIDI 01
053.173;000.050;69;000.555;MIDI 01
053.260;000.049;72;000.492;MIDI 01
053.303;000.090;75;000.461;MIDI 01
053.372;000.058;78;000.391;MIDI 01
053.408;000.034;81;000.625;MIDI 01
053.429;000.039;32;000.461;MIDI 01
053.844;000.840;69;000.617;MIDI 01
053.859;000.851;60;000.508;MIDI 01
053.873;000.864;54;000.469;MIDI 01
054.733;000.095;52;000.422;MIDI 01
054.696;000.149;68;000.508;MIDI 01
054.710;000.145;61;000.461;MIDI 01
053.880;001.011;44;000.391;MIDI 01
055.124;000.058;32;000.664;MIDI 01
055.534;000.274;52;000.500;MIDI 01
055.513;000.298;56;000.570;MIDI 01
055.532;000.311;44;000.453;MIDI 01
055.495;000.402;61;000.703;MIDI 01
056.168;000.065;52;000.461;MIDI 01
056.163;000.072;56;000.484;MIDI 01
056.166;000.073;44;000.406;MIDI 01
056.148;000.147;61;000.555;MIDI 01
056.444;000.044;52;000.516;MIDI 01
056.442;000.067;44;000.516;MIDI 01
056.447;000.065;56;000.562;MIDI 01
056.438;000.115;61;000.609;MIDI 01
056.667;000.044;44;000.555;MIDI 01
056.660;000.064;52;000.539;MIDI 01
056.663;000.083;56;000.602;MIDI 01
056.672;000.146;61;000.523;MIDI 01
056.834;000.069;58;000.570;MIDI 01
056.869;000.047;52;000.523;MIDI 01
056.867;000.118;44;000.531;MIDI 01
057.036;000.087;64;000.617;MIDI 01
057.122;000.095;67;000.641;MIDI 01
057.197;000.073;70;000.508;MIDI 01
057.261;000.028;32;000.516;MIDI 01
057.270;000.035;73;000.609;MIDI 01
057.386;000.083;76;000.672;MIDI 01
057.460;000.073;79;000.617;MIDI 01
057.481;000.099;82;000.594;MIDI 01
057.557;000.060;85;000.641;MIDI 01
057.580;000.040;88;000.711;MIDI 01
057.941;000.222;61;000.594;MIDI 01
057.943;000.268;58;000.570;MIDI 01
057.951;000.301;52;000.562;MIDI 01
057.945;000.399;67;000.664;MIDI 01
057.947;000.483;44;000.570;MIDI 01
058.399;000.046;60;000.609;MIDI 01
058.401;000.047;51;000.594;MIDI 01
058.405;000.075;68;000.594;MIDI 01
058.419;000.089;56;000.586;MIDI 01
058.625;000.069;52;000.648;MIDI 01
058.609;000.096;58;000.602;MIDI 01
058.705;000.035;61;000.633;MIDI 01
058.628;000.118;44;000.625;MIDI 01
058.842;000.077;64;000.570;MIDI 01
058.915;000.101;67;000.641;MIDI 01
059.007;000.032;32;000.727;MIDI 01
058.999;000.073;70;000.586;MIDI 01
059.059;000.049;73;000.633;MIDI 01
059.182;000.097;76;000.664;MIDI 01
059.283;000.107;79;000.609;MIDI 01
059.333;000.102;82;000.578;MIDI 01
059.435;000.026;88;000.656;MIDI 01
059.400;000.071;85;000.656;MIDI 01
059.775;000.259;61;000.633;MIDI 01
059.794;000.320;58;000.555;MIDI 01
059.779;000.436;52;000.672;MIDI 01
059.782;000.508;67;000.672;MIDI 01
060.492;000.022;56;000.492;MIDI 01
060.473;000.073;60;000.555;MIDI 01
060.483;000.112;68;000.648;MIDI 01
060.498;000.106;51;000.641;MIDI 01
059.777;000.854;44;000.633;MIDI 01
061.069;000.024;39;000.688;MIDI 01
061.073;000.025;27;000.664;MIDI 01
061.130;000.167;67;000.078;MIDI 01
061.071;000.303;75;000.695;MIDI 01
061.431;000.011;58;000.586;MIDI 01
061.429;000.033;51;000.602;MIDI 01
061.440;000.032;61;000.477;MIDI 01
061.427;000.067;67;000.625;MIDI 01
061.552;000.033;61;000.633;MIDI 01
061.556;000.031;51;000.469;MIDI 01
061.558;000.030;58;000.484;MIDI 01
061.540;000.094;67;000.508;MIDI 01
061.657;000.043;58;000.648;MIDI 01
061.654;000.053;61;000.492;MIDI 01
061.659;000.050;51;000.625;MIDI 01
061.653;000.095;67;000.508;MIDI 01
062.025;000.024;58;000.609;MIDI 01
062.033;000.034;51;000.469;MIDI 01
062.032;000.132;61;000.516;MIDI 01
062.021;000.190;67;000.617;MIDI 01
062.420;000.067;51;000.453;MIDI 01
062.432;000.058;61;000.188;MIDI 01
062.397;000.095;58;000.352;MIDI 01
062.384;000.138;67;000.531;MIDI 01
062.391;000.457;72;000.594;MIDI 01
062.891;000.065;58;000.289;MIDI 01
062.908;000.070;51;000.320;MIDI 01
062.890;000.155;61;000.438;MIDI 01
062.856;000.291;67;000.469;MIDI 01
062.858;000.490;70;000.508;MIDI 01
063.404;000.162;44;000.430;MIDI 01
063.552;000.274;68;000.383;MIDI 01
061.413;002.419;75;000.148;MIDI 01
063.518;000.422;51;000.398;MIDI 01
063.700;000.281;60;000.422;MIDI 01
064.398;000.364;75;000.500;MIDI 01
065.343;000.374;75;000.383;MIDI 01
066.416;000.257;75;000.297;MIDI 01
067.217;000.307;35;000.266;MIDI 01
067.336;001.252;75;000.391;MIDI 01
068.001;000.614;59;000.281;MIDI 01
068.477;000.316;69;000.203;MIDI 01
068.487;000.321;63;000.242;MIDI 01
068.800;000.299;59;000.312;MIDI 01
068.431;000.731;81;000.469;MIDI 01
069.057;000.355;80;000.492;MIDI 01
069.093;000.322;64;000.281;MIDI 01
069.092;000.349;69;000.242;MIDI 01
069.412;000.218;81;000.477;MIDI 01
069.552;000.255;80;000.578;MIDI 01
069.420;000.401;59;000.328;MIDI 01
070.085;000.064;59;000.305;MIDI 01
069.710;000.672;78;000.477;MIDI 01
070.372;000.067;59;000.250;MIDI 01
069.745;000.896;66;000.258;MIDI 01
069.743;000.949;69;000.188;MIDI 01
070.360;000.562;75;000.469;MIDI 01
070.619;000.322;59;000.320;MIDI 01
070.897;000.350;73;000.453;MIDI 01
070.947;000.335;64;000.273;MIDI 01
070.896;000.395;69;000.234;MIDI 01
071.236;000.175;75;000.453;MIDI 01
071.404;000.239;73;000.492;MIDI 01
071.274;000.382;59;000.227;MIDI 01
072.066;000.118;59;000.203;MIDI 01
071.628;000.763;71;000.352;MIDI 01
072.429;000.082;59;000.219;MIDI 01
071.624;001.120;69;000.250;MIDI 01
071.639;001.203;63;000.234;MIDI 01
072.441;000.511;81;000.375;MIDI 01
072.720;000.278;59;000.305;MIDI 01
072.980;000.284;80;000.383;MIDI 01
072.990;000.303;69;000.156;MIDI 01
073.005;000.305;64;000.258;MIDI 01
073.297;000.142;81;000.414;MIDI 01
073.323;000.154;59;000.281;MIDI 01
073.448;000.191;80;000.406;MIDI 01
073.982;000.058;59;000.281;MIDI 01
073.636;000.622;78;000.344;MIDI 01
074.297;000.060;59;000.188;MIDI 01
073.639;000.945;66;000.227;MIDI 01
073.643;000.943;69;000.219;MIDI 01
074.253;000.571;75;000.352;MIDI 01
074.536;000.336;59;000.242;MIDI 01
074.825;000.236;73;000.328;MIDI 01
075.011;000.134;75;000.328;MIDI 01
075.179;000.066;73;000.391;MIDI 01
074.882;000.395;64;000.234;MIDI 01
074.855;000.428;69;000.078;MIDI 01
075.291;000.070;72;000.375;MIDI 01
075.381;000.083;73;000.406;MIDI 01
075.497;000.092;75;000.414;MIDI 01
075.614;000.104;76;000.414;MIDI 01
075.270;000.458;59;000.281;MIDI 01
075.745;000.237;71;000.336;MIDI 01
076.302;000.056;59;000.234;MIDI 01
076.693;000.059;59;000.266;MIDI 01
075.740;001.306;69;000.250;MIDI 01
076.978;000.150;59;000.242;MIDI 01
075.763;001.372;63;000.242;MIDI 01
076.675;000.630;57;000.414;MIDI 01
077.270;000.306;64;000.305;MIDI 01
077.254;000.338;69;000.219;MIDI 01
077.234;000.365;56;000.484;MIDI 01
077.567;000.206;57;000.492;MIDI 01
077.733;000.220;56;000.570;MIDI 01
077.594;000.420;59;000.297;MIDI 01
078.255;000.060;59;000.336;MIDI 01
077.925;000.624;54;000.508;MIDI 01
078.540;000.065;59;000.367;MIDI 01
077.951;000.877;66;000.289;MIDI 01
077.953;000.901;69;000.281;MIDI 01
078.524;000.594;51;000.531;MIDI 01
078.819;000.304;59;000.266;MIDI 01
079.088;000.373;49;000.523;MIDI 01
079.135;000.358;64;000.305;MIDI 01
079.127;000.410;69;000.234;MIDI 01
079.467;000.157;51;000.461;MIDI 01
079.460;000.417;59;000.328;MIDI 01
079.620;000.329;49;000.539;MIDI 01
079.919;000.431;63;000.250;MIDI 01
080.354;000.312;66;000.289;MIDI 01
080.689;000.289;63;000.273;MIDI 01
079.906;001.261;47;000.375;MIDI 01
080.987;000.275;66;000.297;MIDI 01
081.273;000.264;63;000.281;MIDI 01
081.549;000.048;66;000.367;MIDI 01
079.921;001.680;69;000.148;MIDI 01
081.855;000.170;47;000.281;MIDI 01
082.014;000.096;48;000.398;MIDI 01
081.827;000.364;63;000.273;MIDI 01
082.146;000.058;49;000.398;MIDI 01
081.789;000.461;69;000.266;MIDI 01
082.239;000.040;48;000.438;MIDI 01
082.323;000.040;49;000.477;MIDI 01
082.399;000.053;48;000.492;MIDI 01
082.188;000.293;66;000.352;MIDI 01
082.480;000.037;49;000.516;MIDI 01
082.566;000.031;48;000.383;MIDI 01
082.465;000.180;63;000.336;MIDI 01
082.615;000.050;49;000.516;MIDI 01
082.696;000.047;48;000.445;MIDI 01
082.753;000.044;49;000.406;MIDI 01
082.817;000.048;48;000.492;MIDI 01
082.665;000.218;66;000.367;MIDI 01
082.895;000.035;49;000.391;MIDI 01
082.941;000.041;48;000.562;MIDI 01
083.058;000.019;48;000.523;MIDI 01
083.013;000.129;49;000.242;MIDI 01
082.934;000.229;63;000.422;MIDI 01
082.936;000.235;68;000.500;MIDI 01
083.146;000.088;48;000.555;MIDI 01
083.233;000.132;46;000.594;MIDI 01
083.189;000.417;66;000.438;MIDI 01
083.373;000.261;48;000.617;MIDI 01
083.641;000.227;49;000.578;MIDI 01
084.135;000.276;68;000.492;MIDI 01
083.649;000.784;64;000.469;MIDI 01
084.471;000.277;75;000.547;MIDI 01
084.433;000.369;60;000.555;MIDI 01
084.752;000.125;73;000.570;MIDI 01
084.766;000.188;68;000.469;MIDI 01
084.778;000.182;66;000.422;MIDI 01
084.883;000.136;75;000.633;MIDI 01
084.997;000.190;76;000.664;MIDI 01
084.993;000.275;61;000.578;MIDI 01
085.275;000.069;64;000.500;MIDI 01
085.268;000.090;68;000.523;MIDI 01
085.250;000.131;75;000.602;MIDI 01
085.361;000.148;76;000.602;MIDI 01
085.483;000.229;78;000.648;MIDI 01
085.485;000.264;57;000.555;MIDI 01
085.768;000.061;66;000.562;MIDI 01
085.754;000.131;76;000.648;MIDI 01
085.766;000.248;61;000.539;MIDI 01
085.862;000.180;78;000.656;MIDI 01
086.014;000.314;80;000.641;MIDI 01
086.028;000.353;56;000.523;MIDI 01
086.338;000.133;64;000.477;MIDI 01
086.318;000.181;78;000.656;MIDI 01
086.350;000.343;61;000.445;MIDI 01
086.455;000.273;80;000.680;MIDI 01
086.710;000.386;81;000.633;MIDI 01
087.106;000.051;63;000.359;MIDI 01
087.101;000.081;61;000.352;MIDI 01
086.698;000.526;54;000.406;MIDI 01
087.138;000.452;69;000.523;MIDI 01
087.625;000.391;44;000.391;MIDI 01
087.585;000.629;68;000.547;MIDI 01
088.456;000.107;70;000.508;MIDI 01
088.303;000.276;60;000.375;MIDI 01
088.670;000.114;72;000.531;MIDI 01
088.054;000.750;51;000.414;MIDI 01
088.603;000.211;56;000.398;MIDI 01
088.854;000.195;73;000.516;MIDI 01
089.045;000.101;75;000.586;MIDI 01
088.859;000.304;61;000.469;MIDI 01
088.856;000.340;52;000.398;MIDI 01
089.146;000.054;55;000.422;MIDI 01
089.247;000.175;76;000.641;MIDI 01
089.523;000.260;44;000.391;MIDI 01
089.839;000.169;51;000.414;MIDI 01
090.067;000.159;60;000.438;MIDI 01
089.524;001.046;75;000.523;MIDI 01
090.673;000.101;68;000.523;MIDI 01
090.304;000.485;56;000.484;MIDI 01
091.504;000.148;32;000.297;MIDI 01
091.501;000.176;75;000.406;MIDI 01
091.496;000.190;44;000.359;MIDI 01
091.799;000.076;75;000.453;MIDI 01
092.018;000.076;75;000.500;MIDI 01
092.227;000.057;75;000.484;MIDI 01
091.924;000.385;56;000.297;MIDI 01
092.223;000.086;66;000.336;MIDI 01
092.225;000.091;60;000.328;MIDI 01
092.535;000.042;73;000.406;MIDI 01
092.496;000.186;56;000.352;MIDI 01
092.697;000.074;49;000.445;MIDI 01
092.665;000.134;75;000.469;MIDI 01
092.792;000.105;59;000.453;MIDI 01
092.809;000.143;77;000.508;MIDI 01
092.915;000.072;65;000.461;MIDI 01
093.110;000.057;75;000.484;MIDI 01
093.155;000.114;61;000.453;MIDI 01
093.237;000.132;77;000.461;MIDI 01
093.351;000.182;66;000.461;MIDI 01
093.347;000.191;78;000.555;MIDI 01
093.367;000.241;57;000.383;MIDI 01
093.365;000.249;54;000.352;MIDI 01
093.611;000.092;77;000.523;MIDI 01
093.623;000.149;61;000.453;MIDI 01
093.767;000.081;53;000.508;MIDI 01
093.714;000.172;78;000.531;MIDI 01
093.992;000.103;68;000.461;MIDI 01
093.852;000.292;59;000.453;MIDI 01
093.870;000.314;80;000.594;MIDI 01
094.291;000.087;61;000.383;MIDI 01
094.247;000.155;78;000.477;MIDI 01
094.513;000.080;54;000.391;MIDI 01
094.411;000.243;80;000.461;MIDI 01
094.624;000.062;57;000.305;MIDI 01
094.749;000.152;69;000.344;MIDI 01
094.678;000.447;81;000.484;MIDI 01
095.158;000.051;61;000.344;MIDI 01
095.161;000.231;80;000.406;MIDI 01
095.383;000.244;81;000.445;MIDI 01
095.676;000.244;83;000.398;MIDI 01
095.939;000.067;81;000.422;MIDI 01
096.103;000.031;79;000.422;MIDI 01
096.014;000.219;61;000.289;MIDI 01
096.202;000.039;78;000.336;MIDI 01
096.237;000.086;79;000.492;MIDI 01
096.328;000.155;78;000.469;MIDI 01
096.260;000.284;62;000.258;MIDI 01
096.578;000.058;64;000.297;MIDI 01
096.522;000.119;76;000.438;MIDI 01
096.705;000.035;78;000.359;MIDI 01
096.851;000.141;78;000.430;MIDI 01
095.686;001.660;54;000.188;MIDI 01
095.693;001.716;57;000.227;MIDI 01
096.998;000.441;69;000.359;MIDI 01
097.046;000.420;66;000.219;MIDI 01
097.422;000.531;74;000.383;MIDI 01
097.942;000.248;64;000.195;MIDI 01
097.919;000.305;73;000.328;MIDI 01
098.206;000.229;63;000.289;MIDI 01
098.440;000.216;68;000.320;MIDI 01
098.410;000.249;76;000.359;MIDI 01
097.940;001.039;56;000.117;MIDI 01
098.197;000.860;72;000.367;MIDI 01
098.718;000.592;66;000.258;MIDI 01
098.698;001.260;75;000.266;MIDI 01
099.226;000.793;56;000.234;MIDI 01
099.965;000.337;64;000.156;MIDI 01
099.980;000.330;73;000.273;MIDI 01
099.985;000.417;61;000.234;MIDI 01
101.177;000.092;32;000.203;MIDI 01
101.711;000.410;44;000.234;MIDI 01
101.688;000.434;56;000.266;MIDI 01
101.703;000.422;51;000.195;MIDI 01
101.681;000.503;60;000.336;MIDI 01
102.504;000.189;51;000.156;MIDI 01
102.507;000.188;44;000.141;MIDI 01
102.493;000.225;56;000.266;MIDI 01
102.474;000.246;60;000.180;MIDI 01
102.872;000.064;51;000.289;MIDI 01
102.888;000.050;56;000.344;MIDI 01
102.883;000.056;44;000.312;MIDI 01
102.857;000.091;60;000.320;MIDI 01
103.128;000.047;60;000.414;MIDI 01
103.134;000.052;56;000.242;MIDI 01
103.132;000.060;44;000.312;MIDI 01
103.126;000.089;51;000.344;MIDI 01
103.376;000.106;55;000.367;MIDI 01
103.427;000.073;52;000.250;MIDI 01
103.520;000.045;58;000.367;MIDI 01
103.400;000.211;44;000.219;MIDI 01
103.601;000.040;61;000.430;MIDI 01
103.705;000.065;64;000.461;MIDI 01
103.797;000.045;67;000.445;MIDI 01
103.839;000.098;70;000.477;MIDI 01
103.926;000.060;73;000.445;MIDI 01
103.983;000.037;76;000.531;MIDI 01
103.952;000.080;32;000.289;MIDI 01
104.428;000.939;67;000.383;MIDI 01
104.454;000.999;52;000.273;MIDI 01
104.422;001.052;61;000.398;MIDI 01
105.457;000.273;60;000.109;MIDI 01
105.449;000.295;51;000.180;MIDI 01
105.421;000.339;68;000.312;MIDI 01
104.444;001.347;44;000.211;MIDI 01
106.178;000.199;32;000.336;MIDI 01
106.668;000.279;56;000.344;MIDI 01
106.653;000.323;44;000.320;MIDI 01
106.621;000.446;60;000.477;MIDI 01
106.651;000.460;51;000.328;MIDI 01
107.367;000.084;51;000.305;MIDI 01
107.386;000.092;56;000.359;MIDI 01
107.374;000.121;44;000.281;MIDI 01
107.364;000.195;60;000.422;MIDI 01
107.669;000.056;44;000.453;MIDI 01
107.671;000.059;51;000.414;MIDI 01
107.675;000.081;56;000.430;MIDI 01
107.675;000.091;60;000.430;MIDI 01
107.917;000.034;56;000.398;MIDI 01
107.888;000.066;51;000.414;MIDI 01
107.905;000.065;44;000.359;MIDI 01
107.906;000.176;60;000.492;MIDI 01
108.129;000.100;57;000.500;MIDI 01
108.145;000.155;54;000.516;MIDI 01
108.242;000.069;60;000.516;MIDI 01
108.308;000.052;63;000.461;MIDI 01
108.358;000.037;66;000.508;MIDI 01
108.147;000.251;44;000.398;MIDI 01
108.464;000.071;69;000.586;MIDI 01
108.542;000.079;72;000.508;MIDI 01
108.594;000.108;75;000.539;MIDI 01
108.656;000.077;78;000.523;MIDI 01
108.669;000.070;32;000.438;MIDI 01
108.695;000.060;81;000.641;MIDI 01
109.139;000.900;69;000.641;MIDI 01
109.152;000.895;60;000.539;MIDI 01
109.185;000.873;54;000.352;MIDI 01
110.071;000.122;52;000.398;MIDI 01
110.059;000.166;68;000.477;MIDI 01
110.055;000.177;61;000.414;MIDI 01
109.180;001.079;44;000.375;MIDI 01
110.513;000.071;32;000.648;MIDI 01
110.910;000.283;52;000.500;MIDI 01
110.899;000.299;56;000.641;MIDI 01
110.912;000.293;44;000.461;MIDI 01
110.892;000.381;61;000.695;MIDI 01
111.567;000.085;52;000.500;MIDI 01
111.564;000.091;56;000.523;MIDI 01
111.569;000.092;44;000.531;MIDI 01
111.561;000.165;61;000.602;MIDI 01
111.847;000.052;52;000.578;MIDI 01
111.852;000.062;56;000.562;MIDI 01
111.845;000.076;44;000.578;MIDI 01
111.842;000.110;61;000.641;MIDI 01
112.065;000.051;52;000.586;MIDI 01
112.062;000.067;44;000.617;MIDI 01
112.061;000.075;56;000.570;MIDI 01
112.064;000.139;61;000.570;MIDI 01
112.223;000.069;58;000.570;MIDI 01
112.287;000.029;52;000.477;MIDI 01
112.325;000.026;61;000.539;MIDI 01
112.285;000.074;44;000.570;MIDI 01
112.427;000.072;64;000.609;MIDI 01
112.497;000.079;67;000.625;MIDI 01
112.552;000.080;70;000.539;MIDI 01
112.615;000.030;73;000.617;MIDI 01
112.630;000.031;32;000.562;MIDI 01
112.718;000.079;76;000.664;MIDI 01
112.800;000.093;79;000.656;MIDI 01
112.827;000.107;82;000.586;MIDI 01
112.893;000.058;85;000.641;MIDI 01
112.921;000.044;88;000.766;MIDI 01
113.259;000.173;61;000.570;MIDI 01
113.276;000.244;58;000.617;MIDI 01
113.273;000.281;52;000.648;MIDI 01
113.266;000.392;67;000.688;MIDI 01
113.698;000.039;60;000.602;MIDI 01
113.705;000.033;51;000.539;MIDI 01
113.700;000.067;68;000.609;MIDI 01
113.720;000.076;56;000.594;MIDI 01
113.271;000.533;44;000.609;MIDI 01
113.915;000.046;52;000.625;MIDI 01
113.919;000.061;44;000.695;MIDI 01
113.898;000.100;58;000.609;MIDI 01
113.996;000.039;61;000.500;MIDI 01
114.115;000.083;64;000.594;MIDI 01
114.258;000.033;32;000.719;MIDI 01
114.197;000.108;67;000.617;MIDI 01
114.267;000.080;70;000.586;MIDI 01
114.331;000.043;73;000.617;MIDI 01
114.440;000.095;76;000.680;MIDI 01
114.528;000.108;79;000.703;MIDI 01
114.574;000.103;82;000.602;MIDI 01
114.642;000.073;85;000.688;MIDI 01
114.677;000.048;88;000.727;MIDI 01
115.034;000.198;61;000.594;MIDI 01
115.046;000.251;58;000.594;MIDI 01
115.027;000.305;52;000.711;MIDI 01
115.033;000.533;67;000.617;MIDI 01
115.709;000.030;56;000.547;MIDI 01
115.695;000.062;60;000.625;MIDI 01
115.713;000.064;51;000.688;MIDI 01
115.028;000.752;44;000.664;MIDI 01
115.702;000.100;68;000.664;MIDI 01
116.246;000.029;39;000.742;MIDI 01
116.248;000.030;27;000.719;MIDI 01
116.259;000.044;67;000.039;MIDI 01
116.252;000.362;75;000.742;MIDI 01
116.658;000.020;58;000.609;MIDI 01
116.670;000.017;61;000.578;MIDI 01
116.667;000.031;51;000.570;MIDI 01
116.655;000.062;67;000.648;MIDI 01
116.767;000.042;61;000.617;MIDI 01
116.771;000.054;67;000.508;MIDI 01
116.786;000.045;51;000.594;MIDI 01
116.785;000.048;58;000.602;MIDI 01
116.819;000.055;73;000.148;MIDI 01
116.896;000.029;61;000.516;MIDI 01
116.911;000.039;58;000.516;MIDI 01
116.918;000.041;51;000.469;MIDI 01
116.892;000.092;67;000.578;MIDI 01
117.292;000.036;58;000.641;MIDI 01
117.298;000.032;51;000.531;MIDI 01
117.296;000.174;61;000.492;MIDI 01
117.276;000.230;67;000.625;MIDI 01
117.680;000.040;61;000.359;MIDI 01
117.690;000.054;51;000.453;MIDI 01
117.677;000.080;58;000.523;MIDI 01
117.654;000.192;67;000.586;MIDI 01
117.659;000.434;72;000.602;MIDI 01
118.157;000.068;58;000.328;MIDI 01
118.175;000.067;51;000.344;MIDI 01
118.141;000.197;61;000.414;MIDI 01
118.125;000.275;67;000.508;MIDI 01
118.122;000.491;70;000.547;MIDI 01
118.638;000.176;44;000.422;MIDI 01
116.633;002.323;75;000.312;MIDI 01
118.784;000.188;68;000.414;MIDI 01
118.779;000.396;51;000.430;MIDI 01
118.951;000.281;60;000.438;MIDI 01
119.604;000.452;75;000.461;MIDI 01
120.589;000.447;75;000.406;MIDI 01
121.676;000.235;75;000.344;MIDI 01
122.440;000.271;35;000.266;MIDI 01
123.159;000.126;59;000.227;MIDI 01
122.519;001.282;75;000.336;MIDI 01
123.573;000.257;69;000.258;MIDI 01
123.601;000.260;63;000.188;MIDI 01
123.539;000.650;81;000.469;MIDI 01
123.885;000.316;59;000.281;MIDI 01
124.130;000.312;80;000.469;MIDI 01
124.174;000.293;64;000.258;MIDI 01
124.185;000.283;69;000.203;MIDI 01
124.457;000.164;81;000.516;MIDI 01
124.591;000.200;80;000.555;MIDI 01
124.480;000.405;59;000.281;MIDI 01
125.141;000.055;59;000.258;MIDI 01
124.752;000.619;78;000.422;MIDI 01
125.402;000.076;59;000.258;MIDI 01
124.803;000.874;66;000.227;MIDI 01
124.792;000.921;69;000.242;MIDI 01
125.665;000.315;59;000.297;MIDI 01
125.410;000.573;75;000.445;MIDI 01
125.956;000.329;73;000.383;MIDI 01
125.977;000.367;69;000.156;MIDI 01
125.983;000.361;64;000.281;MIDI 01
126.342;000.135;75;000.352;MIDI 01
126.494;000.215;73;000.352;MIDI 01
126.340;000.385;59;000.227;MIDI 01
127.078;000.065;59;000.219;MIDI 01
126.678;000.619;71;000.336;MIDI 01
127.416;000.058;59;000.258;MIDI 01
126.715;000.969;69;000.242;MIDI 01
126.713;001.135;63;000.219;MIDI 01
127.396;000.473;81;000.336;MIDI 01
127.647;000.286;59;000.273;MIDI 01
127.918;000.262;80;000.367;MIDI 01
127.939;000.288;64;000.273;MIDI 01
127.923;000.305;69;000.180;MIDI 01
128.232;000.106;81;000.367;MIDI 01
128.368;000.138;80;000.383;MIDI 01
128.238;000.298;59;000.312;MIDI 01
128.817;000.058;59;000.273;MIDI 01
128.519;000.564;78;000.344;MIDI 01
129.148;000.052;59;000.219;MIDI 01
129.115;000.206;75;000.336;MIDI 01
128.547;000.871;66;000.172;MIDI 01
128.555;000.893;69;000.188;MIDI 01
129.400;000.303;59;000.242;MIDI 01
129.697;000.180;73;000.250;MIDI 01
129.902;000.084;75;000.297;MIDI 01
130.012;000.093;73;000.445;MIDI 01
129.719;000.405;64;000.234;MIDI 01
129.707;000.432;69;000.078;MIDI 01
130.140;000.079;72;000.430;MIDI 01
130.250;000.072;73;000.320;MIDI 01
130.357;000.082;75;000.391;MIDI 01
130.469;000.124;76;000.383;MIDI 01
130.105;000.528;59;000.219;MIDI 01
130.611;000.286;71;000.297;MIDI 01
131.145;000.059;59;000.281;MIDI 01
131.543;000.078;59;000.297;MIDI 01
130.647;001.274;69;000.227;MIDI 01
130.653;001.298;63;000.156;MIDI 01
131.864;000.286;59;000.328;MIDI 01
131.551;000.603;57;000.375;MIDI 01
132.122;000.291;56;000.500;MIDI 01
132.144;000.304;64;000.344;MIDI 01
132.126;000.341;69;000.258;MIDI 01
132.432;000.134;57;000.453;MIDI 01
132.573;000.118;56;000.516;MIDI 01
132.454;000.363;59;000.344;MIDI 01
133.170;000.057;59;000.344;MIDI 01
132.832;000.652;54;000.422;MIDI 01
133.477;000.068;59;000.305;MIDI 01
132.817;000.953;66;000.305;MIDI 01
132.808;000.983;69;000.242;MIDI 01
133.458;000.570;51;000.500;MIDI 01
133.727;000.307;59;000.305;MIDI 01
134.005;000.322;49;000.539;MIDI 01
134.031;000.326;64;000.312;MIDI 01
134.005;000.408;69;000.250;MIDI 01
134.327;000.153;51;000.469;MIDI 01
134.361;000.269;59;000.281;MIDI 01
134.479;000.252;49;000.578;MIDI 01
134.770;000.430;63;000.266;MIDI 01
135.219;000.279;66;000.258;MIDI 01
135.539;000.300;63;000.258;MIDI 01
134.741;001.129;47;000.445;MIDI 01
135.839;000.263;66;000.328;MIDI 01
136.120;000.276;63;000.297;MIDI 01
134.782;001.674;69;000.219;MIDI 01
136.405;000.141;66;000.344;MIDI 01
136.667;000.138;47;000.398;MIDI 01
136.863;000.079;48;000.375;MIDI 01
136.674;000.351;63;000.211;MIDI 01
136.982;000.052;49;000.383;MIDI 01
136.662;000.433;69;000.305;MIDI 01
137.074;000.055;48;000.438;MIDI 01
137.162;000.048;49;000.500;MIDI 01
137.031;000.249;66;000.312;MIDI 01
137.247;000.060;48;000.453;MIDI 01
137.319;000.055;49;000.508;MIDI 01
137.418;000.035;48;000.375;MIDI 01
137.295;000.211;63;000.359;MIDI 01
137.474;000.042;49;000.547;MIDI 01
137.568;000.029;48;000.414;MIDI 01
137.599;000.044;49;000.531;MIDI 01
137.665;000.073;48;000.445;MIDI 01
137.526;000.214;66;000.359;MIDI 01
137.729;000.046;49;000.516;MIDI 01
137.790;000.056;48;000.523;MIDI 01
137.845;000.062;49;000.438;MIDI 01
137.768;000.226;68;000.422;MIDI 01
137.773;000.247;63;000.398;MIDI 01
137.915;000.108;48;000.594;MIDI 01
138.031;000.115;46;000.531;MIDI 01
138.175;000.219;48;000.578;MIDI 01
138.027;000.368;66;000.453;MIDI 01
138.394;000.222;49;000.555;MIDI 01
138.849;000.183;68;000.523;MIDI 01
138.417;000.841;64;000.508;MIDI 01
139.209;000.298;75;000.477;MIDI 01
139.219;000.403;60;000.500;MIDI 01
139.569;000.122;73;000.531;MIDI 01
139.573;000.205;68;000.477;MIDI 01
139.571;000.226;66;000.414;MIDI 01
139.683;000.149;75;000.555;MIDI 01
139.795;000.201;76;000.609;MIDI 01
139.804;000.281;61;000.617;MIDI 01
140.061;000.074;75;000.625;MIDI 01
140.081;000.105;68;000.555;MIDI 01
140.085;000.184;64;000.523;MIDI 01
140.172;000.158;76;000.633;MIDI 01
140.301;000.193;78;000.648;MIDI 01
140.293;000.257;57;000.562;MIDI 01
140.557;000.118;76;000.617;MIDI 01
140.558;000.125;66;000.539;MIDI 01
140.556;000.217;61;000.523;MIDI 01
140.645;000.165;78;000.672;MIDI 01
140.775;000.276;80;000.656;MIDI 01
140.778;000.298;56;000.547;MIDI 01
141.066;000.073;64;000.477;MIDI 01
141.044;000.168;78;000.633;MIDI 01
141.071;000.332;61;000.477;MIDI 01
141.175;000.231;80;000.656;MIDI 01
141.369;000.341;81;000.641;MIDI 01
141.716;000.050;63;000.406;MIDI 01
141.710;000.074;61;000.406;MIDI 01
141.371;000.450;54;000.445;MIDI 01
141.735;000.300;69;000.633;MIDI 01
142.188;000.391;44;000.406;MIDI 01
142.152;000.861;68;000.562;MIDI 01
142.805;000.240;60;000.492;MIDI 01
142.946;000.130;70;000.570;MIDI 01
143.080;000.191;56;000.523;MIDI 01
142.578;000.695;51;000.484;MIDI 01
143.153;000.136;72;000.586;MIDI 01
143.344;000.227;73;000.562;MIDI 01
143.552;000.137;75;000.602;MIDI 01
143.326;000.367;61;000.531;MIDI 01
143.328;000.393;52;000.469;MIDI 01
143.634;000.089;55;000.484;MIDI 01
143.760;000.203;76;000.633;MIDI 01
144.098;000.306;44;000.375;MIDI 01
144.439;000.179;51;000.430;MIDI 01
144.667;000.193;60;000.422;MIDI 01
144.901;000.398;56;000.477;MIDI 01
145.238;000.094;68;000.492;MIDI 01
144.090;001.276;75;000.562;MIDI 01
146.035;000.132;32;000.312;MIDI 01
146.017;000.154;75;000.406;MIDI 01
146.037;000.190;44;000.281;MIDI 01
146.311;000.078;75;000.445;MIDI 01
146.530;000.047;75;000.461;MIDI 01
146.428;000.191;56;000.375;MIDI 01
146.738;000.064;60;000.312;MIDI 01
146.716;000.088;75;000.461;MIDI 01
146.723;000.093;66;000.367;MIDI 01
147.042;000.047;73;000.414;MIDI 01
147.054;000.145;56;000.336;MIDI 01
147.236;000.099;49;000.422;MIDI 01
147.193;000.158;75;000.383;MIDI 01
147.351;000.108;59;000.484;MIDI 01
147.371;000.171;77;000.422;MIDI 01
147.486;000.084;65;000.367;MIDI 01
147.694;000.051;75;000.422;MIDI 01
147.718;000.116;61;000.438;MIDI 01
147.797;000.123;77;000.547;MIDI 01
147.932;000.169;66;000.391;MIDI 01
147.914;000.202;78;000.562;MIDI 01
147.934;000.256;54;000.352;MIDI 01
147.966;000.279;57;000.289;MIDI 01
148.195;000.060;77;000.508;MIDI 01
148.207;000.189;61;000.453;MIDI 01
148.299;000.141;78;000.469;MIDI 01
148.369;000.077;53;000.492;MIDI 01
148.566;000.089;68;000.477;MIDI 01
148.458;000.271;59;000.438;MIDI 01
148.444;000.297;80;000.531;MIDI 01
148.820;000.060;61;000.352;MIDI 01
148.780;000.106;78;000.461;MIDI 01
149.017;000.044;54;000.367;MIDI 01
149.072;000.059;57;000.328;MIDI 01
148.931;000.202;80;000.438;MIDI 01
149.213;000.135;69;000.375;MIDI 01
149.175;000.272;81;000.453;MIDI 01
149.604;000.060;61;000.359;MIDI 01
149.588;000.181;80;000.406;MIDI 01
149.792;000.261;81;000.453;MIDI 01
150.073;000.230;83;000.422;MIDI 01
150.340;000.076;81;000.430;MIDI 01
150.505;000.034;79;000.398;MIDI 01
150.422;000.221;61;000.305;MIDI 01
150.627;000.042;78;000.391;MIDI 01
150.678;000.085;79;000.453;MIDI 01
150.756;000.159;78;000.500;MIDI 01
150.660;000.290;62;000.328;MIDI 01
151.012;000.060;64;000.336;MIDI 01
150.982;000.106;76;000.422;MIDI 01
151.164;000.030;78;000.438;MIDI 01
151.312;000.142;78;000.367;MIDI 01
150.097;001.702;54;000.203;MIDI 01
150.086;001.736;57;000.250;MIDI 01
151.454;000.409;66;000.273;MIDI 01
151.450;000.453;69;000.328;MIDI 01
151.876;000.527;74;000.398;MIDI 01
152.385;000.234;64;000.234;MIDI 01
152.360;000.295;73;000.336;MIDI 01
152.659;000.243;63;000.297;MIDI 01
152.898;000.274;76;000.383;MIDI 01
152.938;000.289;68;000.336;MIDI 01
152.383;001.158;56;000.211;MIDI 01
153.269;000.666;66;000.266;MIDI 01
153.244;001.516;75;000.266;MIDI 01
152.656;002.151;72;000.352;MIDI 01
153.842;001.054;56;000.250;MIDI 01
154.773;000.385;64;000.141;MIDI 01
154.771;000.421;73;000.289;MIDI 01
154.782;000.458;61;000.227;MIDI 01
156.647;000.246;37;000.117;MIDI 01
157.584;000.279;49;000.250;MIDI 01
157.574;000.292;56;000.195;MIDI 01
157.567;000.320;65;000.273;MIDI 01
158.153;000.191;56;000.289;MIDI 01
158.160;000.207;49;000.219;MIDI 01
158.144;000.266;65;000.273;MIDI 01
158.600;000.088;49;000.188;MIDI 01
158.602;000.148;65;000.305;MIDI 01
158.602;000.199;57;000.406;MIDI 01
156.710;002.430;77;000.359;MIDI 01
159.115;000.285;58;000.336;MIDI 01
159.139;000.279;49;000.266;MIDI 01
159.132;000.347;66;000.336;MIDI 01
159.134;000.412;75;000.438;MIDI 01
159.592;000.074;49;000.289;MIDI 01
159.620;000.082;60;000.297;MIDI 01
159.489;000.373;73;000.414;MIDI 01
159.759;000.182;70;000.516;MIDI 01
159.641;000.314;66;000.344;MIDI 01
160.136;000.317;65;000.359;MIDI 01
160.149;000.363;49;000.258;MIDI 01
160.147;000.390;61;000.266;MIDI 01
160.767;000.202;49;000.227;MIDI 01
160.765;000.208;65;000.320;MIDI 01
160.802;000.193;61;000.203;MIDI 01
161.241;000.184;49;000.227;MIDI 01
161.269;000.172;61;000.180;MIDI 01
161.211;000.231;65;000.289;MIDI 01
160.131;001.360;68;000.398;MIDI 01
161.649;000.103;65;000.273;MIDI 01
161.824;000.072;68;000.312;MIDI 01
161.653;000.317;61;000.211;MIDI 01
161.633;000.367;49;000.211;MIDI 01
161.916;000.092;70;000.461;MIDI 01
162.037;000.049;68;000.445;MIDI 01
162.107;000.061;67;000.445;MIDI 01
162.193;000.090;68;000.484;MIDI 01
162.343;000.338;64;000.391;MIDI 01
162.334;000.348;61;000.266;MIDI 01
162.348;000.343;55;000.273;MIDI 01
162.924;000.103;61;000.273;MIDI 01
162.907;000.155;64;000.289;MIDI 01
162.336;000.796;72;000.391;MIDI 01
162.911;000.258;55;000.156;MIDI 01
163.179;000.236;70;000.422;MIDI 01
163.446;000.307;61;000.367;MIDI 01
163.478;000.343;56;000.242;MIDI 01
164.007;000.115;61;000.320;MIDI 01
164.006;000.196;56;000.219;MIDI 01
164.453;000.102;61;000.352;MIDI 01
164.423;000.141;56;000.266;MIDI 01
163.449;001.225;63;000.344;MIDI 01
164.825;000.077;56;000.281;MIDI 01
164.863;000.072;61;000.117;MIDI 01
164.852;000.182;63;000.422;MIDI 01
164.997;000.143;65;000.406;MIDI 01
165.154;000.055;66;000.500;MIDI 01
165.418;000.219;56;000.242;MIDI 01
165.380;000.272;60;000.375;MIDI 01
165.373;000.479;70;000.453;MIDI 01
165.410;000.526;44;000.180;MIDI 01
165.878;000.062;56;000.297;MIDI 01
166.055;000.058;65;000.461;MIDI 01
165.395;000.740;66;000.328;MIDI 01
165.865;000.285;60;000.359;MIDI 01
166.046;000.116;68;000.492;MIDI 01
166.308;000.291;60;000.305;MIDI 01
166.331;000.270;56;000.250;MIDI 01
166.785;000.134;60;000.391;MIDI 01
166.831;000.095;56;000.258;MIDI 01
166.298;000.653;66;000.430;MIDI 01
166.324;000.660;44;000.258;MIDI 01
166.326;000.696;63;000.391;MIDI 01
167.004;000.085;68;000.391;MIDI 01
167.148;000.079;66;000.406;MIDI 01
167.363;000.296;56;000.281;MIDI 01
167.360;000.342;61;000.297;MIDI 01
167.318;000.711;65;000.320;MIDI 01
167.939;000.160;56;000.188;MIDI 01
167.892;000.307;61;000.273;MIDI 01
167.372;001.374;49;000.273;MIDI 01
168.473;000.297;59;000.258;MIDI 01
168.445;000.368;61;000.266;MIDI 01
169.125;000.161;61;000.195;MIDI 01
169.142;000.191;59;000.047;MIDI 01
169.946;000.245;66;000.211;MIDI 01
169.916;000.346;61;000.211;MIDI 01
169.930;000.347;58;000.195;MIDI 01
169.870;000.476;73;000.367;MIDI 01
170.590;000.095;73;000.375;MIDI 01
170.526;000.175;61;000.211;MIDI 01
170.508;000.258;58;000.031;MIDI 01
170.521;000.250;66;000.156;MIDI 01
170.745;000.072;75;000.359;MIDI 01
170.857;000.037;73;000.359;MIDI 01
170.936;000.058;72;000.383;MIDI 01
170.993;000.069;73;000.500;MIDI 01
171.181;000.166;73;000.406;MIDI 01
171.165;000.287;61;000.250;MIDI 01
171.185;000.299;57;000.195;MIDI 01
171.772;000.095;66;000.328;MIDI 01
171.760;000.150;73;000.344;MIDI 01
171.757;000.196;57;000.133;MIDI 01
171.767;000.201;61;000.273;MIDI 01
171.150;001.060;78;000.430;MIDI 01
172.233;000.228;68;000.250;MIDI 01
172.221;000.247;73;000.398;MIDI 01
172.219;000.269;61;000.266;MIDI 01
172.257;000.236;56;000.273;MIDI 01
172.714;000.058;68;000.320;MIDI 01
172.695;000.079;73;000.352;MIDI 01
172.721;000.073;61;000.312;MIDI 01
172.709;000.104;56;000.328;MIDI 01
172.207;000.881;77;000.492;MIDI 01
173.116;000.270;63;000.312;MIDI 01
173.137;000.257;70;000.344;MIDI 01
173.143;000.285;55;000.234;MIDI 01
173.100;000.348;74;000.469;MIDI 01
173.322;000.147;75;000.492;MIDI 01
173.445;000.152;77;000.531;MIDI 01
173.602;000.134;75;000.586;MIDI 01
173.614;000.155;55;000.312;MIDI 01
173.613;000.160;63;000.375;MIDI 01
173.736;000.134;74;000.586;MIDI 01
173.866;000.091;75;000.648;MIDI 01
174.036;000.207;54;000.328;MIDI 01
174.029;000.230;72;000.547;MIDI 01
174.025;000.236;63;000.359;MIDI 01
174.053;000.216;56;000.344;MIDI 01
174.465;000.059;72;000.562;MIDI 01
174.472;000.062;63;000.453;MIDI 01
174.488;000.050;56;000.359;MIDI 01
174.485;000.065;54;000.406;MIDI 01
174.821;000.172;61;000.570;MIDI 01
174.816;000.207;56;000.320;MIDI 01
174.022;001.033;82;000.609;MIDI 01
174.829;000.249;53;000.422;MIDI 01
174.819;000.261;73;000.617;MIDI 01
175.221;000.089;61;000.586;MIDI 01
175.244;000.069;73;000.539;MIDI 01
175.222;000.140;56;000.484;MIDI 01
175.218;000.159;52;000.555;MIDI 01
175.238;000.184;80;000.680;MIDI 01
175.890;000.062;73;000.484;MIDI 01
175.878;000.156;39;000.578;MIDI 01
175.874;000.238;79;000.562;MIDI 01
175.872;000.267;51;000.578;MIDI 01
175.869;000.304;85;000.719;MIDI 01
176.633;000.224;79;000.570;MIDI 01
176.644;000.241;73;000.453;MIDI 01
176.641;000.246;63;000.422;MIDI 01
176.655;000.233;70;000.398;MIDI 01
177.210;000.110;63;000.336;MIDI 01
177.230;000.096;70;000.328;MIDI 01
177.234;000.135;73;000.312;MIDI 01
176.610;000.866;89;000.695;MIDI 01
177.220;000.301;79;000.469;MIDI 01
177.411;000.139;88;000.609;MIDI 01
177.673;000.083;70;000.297;MIDI 01
177.644;000.115;63;000.289;MIDI 01
177.664;000.104;73;000.328;MIDI 01
177.649;000.126;79;000.492;MIDI 01
177.650;000.235;87;000.594;MIDI 01
177.857;000.049;79;000.312;MIDI 01
177.838;000.101;86;000.641;MIDI 01
178.028;000.077;63;000.383;MIDI 01
178.041;000.069;70;000.375;MIDI 01
178.035;000.077;73;000.422;MIDI 01
178.024;000.092;79;000.547;MIDI 01
178.020;000.227;89;000.625;MIDI 01
178.380;000.026;73;000.430;MIDI 01
178.384;000.040;70;000.438;MIDI 01
178.193;000.240;87;000.680;MIDI 01
178.355;000.108;79;000.617;MIDI 01
178.382;000.097;63;000.445;MIDI 01
178.360;000.203;86;000.617;MIDI 01
178.545;000.075;85;000.656;MIDI 01
178.858;000.193;44;000.398;MIDI 01
178.870;000.343;84;000.562;MIDI 01
179.281;000.106;78;000.562;MIDI 01
179.442;000.039;66;000.367;MIDI 01
179.463;000.036;63;000.383;MIDI 01
179.440;000.071;56;000.422;MIDI 01
179.420;000.146;84;000.562;MIDI 01
179.569;000.085;85;000.617;MIDI 01
179.123;000.550;72;000.586;MIDI 01
179.704;000.135;84;000.617;MIDI 01
179.833;000.078;44;000.531;MIDI 01
179.835;000.165;82;000.516;MIDI 01
180.143;000.147;78;000.469;MIDI 01
180.316;000.046;63;000.266;MIDI 01
180.318;000.049;66;000.234;MIDI 01
180.294;000.088;56;000.336;MIDI 01
180.310;000.131;82;000.461;MIDI 01
180.467;000.135;84;000.523;MIDI 01
179.968;000.802;72;000.484;MIDI 01
180.624;000.178;82;000.477;MIDI 01
180.842;000.124;32;000.383;MIDI 01
180.844;000.235;77;000.312;MIDI 01
180.824;000.431;80;000.461;MIDI 01
181.060;000.219;72;000.445;MIDI 01
181.248;000.154;77;000.391;MIDI 01
181.549;000.166;68;000.312;MIDI 01
181.566;000.203;75;000.273;MIDI 01
181.522;000.269;78;000.422;MIDI 01
181.560;000.307;56;000.281;MIDI 01
181.829;000.304;80;000.406;MIDI 01
181.815;000.338;77;000.367;MIDI 01
182.173;000.202;75;000.273;MIDI 01
182.170;000.686;78;000.375;MIDI 01
182.830;000.272;25;000.227;MIDI 01
183.676;000.251;56;000.258;MIDI 01
183.678;000.252;49;000.242;MIDI 01
183.639;000.328;65;000.273;MIDI 01
184.214;000.209;49;000.195;MIDI 01
184.211;000.234;65;000.297;MIDI 01
184.215;000.244;56;000.273;MIDI 01
184.677;000.092;65;000.305;MIDI 01
184.690;000.155;57;000.336;MIDI 01
184.649;000.200;49;000.188;MIDI 01
182.816;002.371;77;000.375;MIDI 01
185.180;000.190;74;000.359;MIDI 01
185.223;000.249;66;000.164;MIDI 01
185.431;000.077;75;000.359;MIDI 01
185.216;000.309;49;000.195;MIDI 01
185.249;000.310;58;000.219;MIDI 01
185.565;000.056;77;000.508;MIDI 01
185.703;000.084;75;000.344;MIDI 01
185.783;000.052;66;000.305;MIDI 01
185.858;000.126;78;000.414;MIDI 01
185.994;000.103;77;000.430;MIDI 01
185.890;000.243;60;000.242;MIDI 01
186.118;000.092;75;000.461;MIDI 01
186.227;000.061;73;000.461;MIDI 01
185.899;000.450;49;000.078;MIDI 01
186.338;000.046;72;000.406;MIDI 01
186.427;000.129;70;000.430;MIDI 01
186.640;000.355;65;000.297;MIDI 01
186.665;000.389;61;000.250;MIDI 01
187.300;000.087;65;000.320;MIDI 01
187.327;000.193;61;000.234;MIDI 01
186.608;001.286;68;000.367;MIDI 01
187.853;000.295;61;000.250;MIDI 01
187.859;000.316;64;000.273;MIDI 01
188.346;000.108;64;000.391;MIDI 01
188.352;000.282;61;000.297;MIDI 01
188.797;000.231;62;000.320;MIDI 01
188.799;000.255;60;000.383;MIDI 01
188.767;000.302;66;000.430;MIDI 01
189.231;000.074;62;000.281;MIDI 01
189.220;000.096;66;000.430;MIDI 01
187.833;001.522;69;000.422;MIDI 01
189.229;000.260;60;000.391;MIDI 01
189.845;000.336;62;000.219;MIDI 01
189.833;000.359;59;000.227;MIDI 01
189.826;000.374;67;000.297;MIDI 01
190.396;000.078;67;000.336;MIDI 01
190.374;000.166;62;000.258;MIDI 01
190.372;000.361;59;000.281;MIDI 01
189.808;001.016;74;000.312;MIDI 01
190.830;000.261;67;000.305;MIDI 01
190.856;000.296;64;000.266;MIDI 01
190.835;000.378;58;000.289;MIDI 01
191.296;000.150;64;000.398;MIDI 01
191.258;000.215;67;000.445;MIDI 01
191.292;000.213;57;000.367;MIDI 01
190.819;000.690;73;000.422;MIDI 01
191.634;000.202;65;000.422;MIDI 01
191.646;000.245;68;000.375;MIDI 01
191.665;000.332;56;000.359;MIDI 01
192.035;000.076;64;000.445;MIDI 01
191.621;000.578;73;000.555;MIDI 01
192.040;000.211;70;000.516;MIDI 01
192.054;000.331;55;000.359;MIDI 01
192.549;000.270;63;000.375;MIDI 01
192.581;000.287;69;000.359;MIDI 01
192.571;000.329;54;000.250;MIDI 01
192.543;000.364;73;000.469;MIDI 01
192.990;000.053;63;000.445;MIDI 01
193.055;000.084;69;000.414;MIDI 01
192.979;000.176;72;000.516;MIDI 01
193.129;000.064;73;000.570;MIDI 01
193.062;000.286;54;000.297;MIDI 01
193.312;000.154;69;000.391;MIDI 01
193.329;000.174;66;000.352;MIDI 01
193.321;000.211;72;000.422;MIDI 01
193.698;000.125;72;000.508;MIDI 01
193.714;000.148;66;000.383;MIDI 01
193.697;000.167;68;000.492;MIDI 01
193.296;000.574;75;000.547;MIDI 01
194.130;000.215;68;000.336;MIDI 01
194.116;000.232;73;000.391;MIDI 01
194.128;000.266;65;000.352;MIDI 01
194.085;000.542;77;000.562;MIDI 01
194.582;000.050;68;000.312;MIDI 01
194.606;000.072;65;000.336;MIDI 01
194.589;000.140;73;000.383;MIDI 01
195.200;000.180;70;000.359;MIDI 01
195.194;000.211;66;000.289;MIDI 01
195.188;000.247;63;000.266;MIDI 01
195.153;000.527;78;000.500;MIDI 01
195.645;000.058;63;000.266;MIDI 01
195.654;000.055;66;000.273;MIDI 01
195.674;000.091;70;000.320;MIDI 01
195.652;000.144;73;000.391;MIDI 01
195.801;000.137;75;000.453;MIDI 01
195.978;000.097;69;000.305;MIDI 01
195.981;000.111;65;000.391;MIDI 01
195.986;000.124;53;000.164;MIDI 01
195.947;000.283;77;000.469;MIDI 01
196.317;000.052;53;000.320;MIDI 01
196.332;000.053;63;000.359;MIDI 01
196.335;000.053;69;000.172;MIDI 01
196.302;000.129;72;000.438;MIDI 01
196.708;000.130;62;000.305;MIDI 01
196.676;000.184;68;000.344;MIDI 01
196.698;000.166;58;000.203;MIDI 01
196.662;000.243;77;000.391;MIDI 01
197.079;000.043;62;000.258;MIDI 01
197.086;000.056;58;000.305;MIDI 01
197.083;000.109;68;000.281;MIDI 01
197.085;000.140;72;000.344;MIDI 01
197.242;000.082;74;000.422;MIDI 01
197.500;000.182;67;000.242;MIDI 01
197.476;000.216;51;000.266;MIDI 01
197.459;000.242;61;000.203;MIDI 01
197.448;000.450;75;000.367;MIDI 01
197.934;000.097;67;000.250;MIDI 01
197.936;000.154;51;000.172;MIDI 01
197.943;000.158;61;000.227;MIDI 01
197.919;000.191;70;000.344;MIDI 01
198.473;000.278;66;000.242;MIDI 01
198.476;000.277;60;000.203;MIDI 01
198.497;000.259;56;000.133;MIDI 01
198.459;000.489;75;000.336;MIDI 01
199.035;000.123;60;000.211;MIDI 01
199.031;000.202;66;000.227;MIDI 01
199.017;000.377;70;000.312;MIDI 01
199.299;000.102;72;000.359;MIDI 01
199.747;000.240;73;000.336;MIDI 01
199.635;000.551;61;000.242;MIDI 01
199.453;000.738;49;000.320;MIDI 01
200.005;000.211;75;000.422;MIDI 01
199.700;000.568;65;000.266;MIDI 01
199.569;000.705;56;000.164;MIDI 01
200.173;000.155;73;000.461;MIDI 01
200.332;000.122;72;000.492;MIDI 01
200.468;000.100;73;000.508;MIDI 01
200.785;000.084;63;000.336;MIDI 01
200.698;000.376;61;000.320;MIDI 01
200.906;000.207;70;000.312;MIDI 01
200.624;000.565;55;000.273;MIDI 01
201.086;000.858;77;000.398;MIDI 01
202.732;000.211;75;000.320;MIDI 01
202.870;000.271;44;000.250;MIDI 01
203.718;000.268;56;000.203;MIDI 01
203.703;000.294;61;000.242;MIDI 01
203.719;000.312;63;000.180;MIDI 01
203.707;000.389;66;000.242;MIDI 01
204.309;000.127;56;000.102;MIDI 01
204.280;000.161;61;000.266;MIDI 01
204.248;000.255;66;000.336;MIDI 01
204.274;000.232;63;000.148;MIDI 01
202.910;001.603;68;000.289;MIDI 01
204.626;000.048;70;000.367;MIDI 01
204.667;000.134;63;000.312;MIDI 01
204.702;000.103;56;000.180;MIDI 01
204.722;000.095;66;000.297;MIDI 01
204.678;000.158;68;000.422;MIDI 01
204.684;000.155;61;000.250;MIDI 01
204.961;000.066;69;000.461;MIDI 01
205.010;000.080;63;000.383;MIDI 01
205.039;000.064;56;000.258;MIDI 01
205.018;000.089;66;000.383;MIDI 01
205.032;000.076;61;000.344;MIDI 01
205.022;000.126;68;000.461;MIDI 01
205.299;000.085;70;000.461;MIDI 01
205.373;000.040;61;000.266;MIDI 01
205.379;000.051;56;000.281;MIDI 01
205.405;000.056;66;000.281;MIDI 01
205.382;000.081;63;000.391;MIDI 01
205.378;000.097;68;000.445;MIDI 01
205.749;000.066;69;000.414;MIDI 01
205.892;000.062;32;000.297;MIDI 01
205.901;000.054;60;000.312;MIDI 01
205.875;000.118;66;000.234;MIDI 01
205.877;000.134;68;000.336;MIDI 01
206.292;000.069;69;000.383;MIDI 01
206.431;000.266;70;000.367;MIDI 01
206.446;000.504;63;000.266;MIDI 01
206.697;000.275;72;000.461;MIDI 01
206.440;000.535;56;000.258;MIDI 01
207.677;000.207;60;000.203;MIDI 01
207.703;000.335;66;000.156;MIDI 01
207.691;001.083;56;000.172;MIDI 01
207.673;001.133;68;000.258;MIDI 01
207.024;001.834;75;000.398;MIDI 01
208.696;000.382;61;000.203;MIDI 01
208.705;000.398;73;000.273;MIDI 01
208.722;000.461;49;000.164;MIDI 01
208.713;000.476;65;000.156;MIDI 01
210.569;000.290;37;000.109;MIDI 01
211.571;000.256;65;000.242;MIDI 01
211.536;000.293;49;000.203;MIDI 01
211.529;000.305;56;000.086;MIDI 01
212.155;000.183;49;000.039;MIDI 01
212.132;000.210;56;000.305;MIDI 01
212.123;000.230;65;000.297;MIDI 01
212.596;000.139;65;000.312;MIDI 01
212.615;000.177;57;000.336;MIDI 01
210.572;002.685;77;000.391;MIDI 01
213.217;000.265;58;000.258;MIDI 01
213.219;000.293;49;000.195;MIDI 01
213.228;000.371;66;000.266;MIDI 01
213.197;000.510;75;000.391;MIDI 01
213.707;000.114;49;000.227;MIDI 01
213.755;000.076;60;000.188;MIDI 01
213.582;000.359;73;000.422;MIDI 01
213.877;000.157;70;000.469;MIDI 01
213.749;000.320;66;000.312;MIDI 01
214.286;000.349;65;000.266;MIDI 01
214.323;000.319;49;000.164;MIDI 01
214.289;000.398;61;000.250;MIDI 01
214.972;000.181;61;000.125;MIDI 01
214.961;000.203;49;000.227;MIDI 01
214.974;000.248;65;000.219;MIDI 01
215.448;000.153;49;000.086;MIDI 01
215.474;000.137;61;000.211;MIDI 01
215.440;000.242;65;000.273;MIDI 01
214.271;001.468;68;000.328;MIDI 01
215.882;000.136;65;000.227;MIDI 01
216.054;000.064;68;000.203;MIDI 01
215.911;000.214;61;000.141;MIDI 01
216.158;000.084;70;000.398;MIDI 01
216.269;000.054;68;000.398;MIDI 01
216.345;000.065;67;000.398;MIDI 01
216.447;000.141;68;000.422;MIDI 01
216.699;000.301;64;000.273;MIDI 01
216.628;000.417;61;000.203;MIDI 01
216.666;000.389;55;000.133;MIDI 01
217.184;000.074;64;000.344;MIDI 01
217.221;000.184;61;000.312;MIDI 01
216.631;000.789;72;000.398;MIDI 01
217.231;000.233;55;000.266;MIDI 01
217.434;000.245;70;000.469;MIDI 01
217.740;000.312;61;000.336;MIDI 01
217.743;000.406;56;000.266;MIDI 01
218.391;000.210;61;000.312;MIDI 01
218.368;000.269;56;000.164;MIDI 01
218.827;000.183;61;000.219;MIDI 01
218.825;000.197;56;000.258;MIDI 01
217.725;001.361;63;000.312;MIDI 01
219.226;000.182;56;000.219;MIDI 01
219.224;000.208;61;000.195;MIDI 01
219.444;000.185;65;000.383;MIDI 01
219.236;000.409;63;000.383;MIDI 01
219.598;000.105;66;000.539;MIDI 01
219.912;000.241;56;000.195;MIDI 01
219.895;000.309;60;000.266;MIDI 01
219.859;000.602;70;000.430;MIDI 01
219.891;000.625;44;000.234;MIDI 01
220.434;000.113;56;000.195;MIDI 01
220.621;000.055;65;000.422;MIDI 01
219.893;000.810;66;000.344;MIDI 01
220.386;000.319;60;000.344;MIDI 01
220.607;000.102;68;000.453;MIDI 01
220.875;000.241;56;000.219;MIDI 01
220.849;000.291;60;000.297;MIDI 01
220.873;000.527;44;000.172;MIDI 01
221.322;000.114;56;000.195;MIDI 01
220.867;000.587;63;000.258;MIDI 01
220.835;000.636;66;000.445;MIDI 01
221.317;000.176;60;000.281;MIDI 01
221.468;000.098;68;000.406;MIDI 01
221.643;000.060;66;000.320;MIDI 01
221.752;000.304;56;000.242;MIDI 01
221.743;000.315;61;000.312;MIDI 01
221.751;000.722;65;000.219;MIDI 01
221.759;000.751;49;000.211;MIDI 01
222.299;000.225;61;000.273;MIDI 01
222.292;000.400;56;000.211;MIDI 01
222.834;000.278;59;000.242;MIDI 01
222.791;000.398;61;000.297;MIDI 01
223.371;000.193;61;000.258;MIDI 01
223.410;000.177;59;000.188;MIDI 01
224.206;000.283;66;000.320;MIDI 01
224.220;000.328;61;000.242;MIDI 01
224.236;000.330;58;000.195;MIDI 01
224.188;000.508;73;000.406;MIDI 01
224.786;000.076;66;000.289;MIDI 01
224.884;000.095;73;000.398;MIDI 01
224.798;000.203;61;000.242;MIDI 01
225.037;000.061;75;000.359;MIDI 01
224.772;000.331;58;000.195;MIDI 01
225.144;000.043;73;000.438;MIDI 01
225.256;000.067;72;000.336;MIDI 01
225.318;000.053;73;000.453;MIDI 01
225.549;000.070;66;000.164;MIDI 01
225.509;000.132;73;000.352;MIDI 01
225.488;000.285;61;000.250;MIDI 01
225.507;000.295;57;000.195;MIDI 01
226.084;000.088;66;000.219;MIDI 01
226.049;000.125;73;000.352;MIDI 01
226.069;000.164;57;000.148;MIDI 01
226.061;000.177;61;000.297;MIDI 01
225.481;001.004;78;000.516;MIDI 01
226.496;000.201;68;000.398;MIDI 01
226.485;000.232;73;000.438;MIDI 01
226.498;000.248;61;000.305;MIDI 01
226.520;000.277;56;000.273;MIDI 01
226.944;000.030;68;000.344;MIDI 01
226.909;000.067;73;000.469;MIDI 01
226.938;000.081;61;000.352;MIDI 01
226.966;000.054;56;000.383;MIDI 01
226.463;000.852;77;000.539;MIDI 01
227.364;000.196;70;000.336;MIDI 01
227.339;000.258;63;000.344;MIDI 01
227.366;000.274;55;000.203;MIDI 01
227.539;000.157;75;000.539;MIDI 01
227.315;000.400;74;000.523;MIDI 01
227.661;000.150;77;000.578;MIDI 01
227.838;000.052;70;000.391;MIDI 01
227.816;000.135;75;000.578;MIDI 01
227.841;000.154;63;000.367;MIDI 01
227.843;000.193;55;000.258;MIDI 01
227.966;000.125;74;000.562;MIDI 01
228.085;000.071;75;000.641;MIDI 01
228.278;000.235;54;000.297;MIDI 01
228.275;000.246;72;000.492;MIDI 01
228.280;000.246;56;000.312;MIDI 01
228.255;000.273;63;000.367;MIDI 01
228.766;000.097;63;000.406;MIDI 01
228.760;000.104;72;000.555;MIDI 01
228.787;000.083;56;000.320;MIDI 01
228.785;000.101;54;000.359;MIDI 01
229.133;000.182;61;000.484;MIDI 01
229.141;000.208;56;000.359;MIDI 01
229.123;000.246;53;000.477;MIDI 01
229.135;000.296;73;000.641;MIDI 01
228.257;001.194;82;000.570;MIDI 01
229.608;000.065;73;000.562;MIDI 01
229.578;000.109;61;000.508;MIDI 01
229.560;000.188;56;000.422;MIDI 01
229.557;000.194;52;000.492;MIDI 01
229.594;000.242;80;000.688;MIDI 01
230.238;000.080;73;000.594;MIDI 01
230.208;000.149;39;000.562;MIDI 01
230.211;000.246;51;000.594;MIDI 01
230.240;000.245;79;000.516;MIDI 01
230.232;000.318;85;000.688;MIDI 01
230.993;000.094;79;000.508;MIDI 01
230.998;000.186;70;000.367;MIDI 01
230.981;000.205;63;000.359;MIDI 01
230.990;000.207;73;000.383;MIDI 01
231.547;000.089;70;000.258;MIDI 01
231.520;000.189;63;000.266;MIDI 01
231.541;000.172;73;000.273;MIDI 01
230.970;000.819;89;000.688;MIDI 01
231.506;000.316;79;000.453;MIDI 01
231.719;000.201;88;000.633;MIDI 01
232.001;000.139;63;000.234;MIDI 01
232.044;000.104;70;000.250;MIDI 01
232.021;000.175;73;000.312;MIDI 01
232.003;000.222;87;000.602;MIDI 01
232.005;000.284;79;000.531;MIDI 01
232.195;000.129;86;000.633;MIDI 01
232.389;000.085;63;000.312;MIDI 01
232.411;000.069;70;000.289;MIDI 01
232.400;000.093;73;000.336;MIDI 01
232.428;000.072;79;000.477;MIDI 01
232.395;000.181;89;000.617;MIDI 01
232.569;000.209;87;000.633;MIDI 01
232.768;000.033;70;000.305;MIDI 01
232.776;000.039;73;000.266;MIDI 01
232.778;000.068;63;000.352;MIDI 01
232.770;000.195;86;000.547;MIDI 01
232.772;000.211;79;000.516;MIDI 01
232.951;000.074;85;000.586;MIDI 01
233.279;000.220;44;000.398;MIDI 01
233.274;000.386;84;000.484;MIDI 01
233.772;000.128;78;000.469;MIDI 01
233.931;000.059;66;000.297;MIDI 01
233.935;000.075;63;000.328;MIDI 01
233.909;000.144;56;000.305;MIDI 01
233.944;000.144;84;000.461;MIDI 01
234.085;000.114;85;000.578;MIDI 01
233.585;000.693;72;000.477;MIDI 01
234.220;000.173;84;000.609;MIDI 01
234.372;000.061;44;000.422;MIDI 01
234.374;000.128;82;000.500;MIDI 01
234.643;000.117;78;000.477;MIDI 01
234.803;000.051;66;000.336;MIDI 01
234.818;000.056;63;000.312;MIDI 01
234.801;000.114;56;000.344;MIDI 01
234.807;000.127;82;000.430;MIDI 01
234.972;000.126;84;000.461;MIDI 01
235.133;000.191;82;000.375;MIDI 01
234.492;000.844;72;000.492;MIDI 01
235.361;000.113;32;000.336;MIDI 01
235.375;000.205;77;000.219;MIDI 01
235.354;000.426;80;000.414;MIDI 01
235.579;000.224;72;000.391;MIDI 01
235.791;000.070;77;000.367;MIDI 01
236.096;000.130;68;000.266;MIDI 01
236.092;000.188;75;000.336;MIDI 01
236.067;000.251;78;000.391;MIDI 01
236.083;000.264;56;000.297;MIDI 01
236.379;000.278;77;000.336;MIDI 01
236.380;000.322;80;000.375;MIDI 01
236.720;000.153;78;000.320;MIDI 01
236.755;000.169;75;000.117;MIDI 01
236.881;000.430;78;000.031;MIDI 01
237.289;000.246;25;000.258;MIDI 01
238.115;000.210;56;000.281;MIDI 01
238.079;000.248;65;000.320;MIDI 01
238.119;000.246;49;000.266;MIDI 01
238.678;000.214;56;000.328;MIDI 01
238.668;000.227;49;000.164;MIDI 01
238.652;000.247;65;000.328;MIDI 01
239.128;000.110;65;000.320;MIDI 01
239.152;000.108;49;000.102;MIDI 01
239.134;000.237;57;000.375;MIDI 01
237.274;002.382;77;000.359;MIDI 01
239.629;000.215;74;000.398;MIDI 01
239.672;000.250;66;000.250;MIDI 01
239.681;000.270;49;000.234;MIDI 01
239.889;000.074;75;000.383;MIDI 01
239.674;000.318;58;000.367;MIDI 01
240.008;000.076;77;000.492;MIDI 01
240.152;000.066;75;000.383;MIDI 01
240.223;000.053;66;000.266;MIDI 01
240.287;000.146;78;000.438;MIDI 01
240.432;000.100;77;000.406;MIDI 01
240.301;000.247;49;000.258;MIDI 01
240.336;000.231;60;000.320;MIDI 01
240.544;000.120;75;000.453;MIDI 01
240.688;000.072;73;000.383;MIDI 01
240.807;000.054;72;000.367;MIDI 01
240.927;000.079;70;000.375;MIDI 01
241.114;000.283;65;000.273;MIDI 01
241.075;000.460;61;000.273;MIDI 01
241.093;000.457;49;000.141;MIDI 01
241.821;000.105;65;000.320;MIDI 01
241.818;000.261;61;000.273;MIDI 01
241.089;001.278;68;000.312;MIDI 01
242.357;000.300;64;000.289;MIDI 01
242.366;000.293;61;000.234;MIDI 01
242.825;000.076;64;000.383;MIDI 01
242.815;000.193;61;000.375;MIDI 01
243.227;000.260;66;000.375;MIDI 01
243.246;000.246;62;000.305;MIDI 01
243.219;000.279;60;000.328;MIDI 01
243.679;000.105;66;000.375;MIDI 01
243.692;000.121;62;000.266;MIDI 01
242.348;001.470;69;000.414;MIDI 01
243.694;000.279;60;000.336;MIDI 01
244.281;000.349;62;000.234;MIDI 01
244.271;000.364;59;000.227;MIDI 01
244.261;000.410;67;000.312;MIDI 01
244.819;000.107;62;000.281;MIDI 01
244.828;000.101;67;000.344;MIDI 01
244.823;000.306;59;000.281;MIDI 01
244.259;001.036;74;000.352;MIDI 01
245.330;000.226;67;000.148;MIDI 01
245.336;000.256;64;000.180;MIDI 01
245.327;000.284;58;000.242;MIDI 01
245.732;000.159;64;000.430;MIDI 01
245.716;000.193;67;000.430;MIDI 01
245.274;000.680;73;000.422;MIDI 01
245.753;000.238;57;000.344;MIDI 01
246.142;000.194;65;000.328;MIDI 01
246.116;000.243;68;000.414;MIDI 01
246.127;000.356;56;000.383;MIDI 01
246.533;000.081;64;000.359;MIDI 01
246.110;000.553;73;000.531;MIDI 01
246.542;000.233;70;000.406;MIDI 01
246.558;000.509;55;000.367;MIDI 01
247.083;000.349;54;000.258;MIDI 01
247.102;000.339;63;000.289;MIDI 01
247.105;000.349;69;000.359;MIDI 01
247.061;000.467;73;000.398;MIDI 01
247.609;000.039;63;000.297;MIDI 01
247.644;000.095;69;000.406;MIDI 01
247.615;000.164;72;000.375;MIDI 01
247.773;000.062;73;000.453;MIDI 01
247.634;000.331;54;000.312;MIDI 01
247.993;000.154;69;000.281;MIDI 01
247.983;000.195;72;000.297;MIDI 01
247.990;000.237;66;000.344;MIDI 01
247.946;000.503;75;000.500;MIDI 01
248.374;000.084;68;000.336;MIDI 01
248.340;000.125;72;000.430;MIDI 01
248.399;000.068;66;000.406;MIDI 01
248.799;000.209;65;000.320;MIDI 01
248.785;000.227;68;000.344;MIDI 01
248.787;000.230;73;000.352;MIDI 01
249.255;000.060;68;000.312;MIDI 01
249.262;000.058;65;000.328;MIDI 01
248.758;000.567;77;000.430;MIDI 01
249.243;000.128;73;000.336;MIDI 01
249.817;000.225;70;000.344;MIDI 01
249.823;000.273;66;000.227;MIDI 01
249.829;000.273;63;000.242;MIDI 01
249.795;000.399;78;000.422;MIDI 01
250.283;000.048;63;000.336;MIDI 01
250.294;000.065;66;000.250;MIDI 01
250.287;000.144;73;000.375;MIDI 01
250.330;000.117;70;000.172;MIDI 01
250.436;000.153;75;000.438;MIDI 01
250.606;000.156;65;000.352;MIDI 01
250.616;000.190;53;000.289;MIDI 01
250.632;000.206;69;000.344;MIDI 01
250.594;000.352;77;000.430;MIDI 01
250.974;000.066;69;000.461;MIDI 01
251.015;000.029;53;000.305;MIDI 01
250.991;000.115;63;000.414;MIDI 01
250.965;000.155;72;000.477;MIDI 01
251.360;000.183;68;000.344;MIDI 01
251.350;000.220;58;000.258;MIDI 01
251.356;000.227;62;000.398;MIDI 01
251.780;000.051;65;000.320;MIDI 01
251.753;000.132;68;000.344;MIDI 01
251.753;000.179;72;000.391;MIDI 01
251.326;000.617;77;000.438;MIDI 01
251.749;000.215;58;000.289;MIDI 01
251.940;000.103;74;000.484;MIDI 01
252.233;000.176;49;000.227;MIDI 01
252.190;000.235;61;000.336;MIDI 01
252.194;000.238;67;000.305;MIDI 01
252.171;000.484;75;000.383;MIDI 01
252.653;000.118;67;000.320;MIDI 01
252.655;000.208;70;000.375;MIDI 01
252.647;000.242;61;000.273;MIDI 01
252.660;000.309;51;000.352;MIDI 01
253.155;000.221;60;000.297;MIDI 01
253.134;000.256;66;000.352;MIDI 01
253.171;000.231;56;000.219;MIDI 01
253.626;000.103;60;000.273;MIDI 01
253.131;000.652;75;000.367;MIDI 01
253.615;000.173;66;000.281;MIDI 01
253.629;000.219;70;000.352;MIDI 01
253.885;000.104;72;000.328;MIDI 01
254.339;000.208;73;000.367;MIDI 01
254.570;000.178;75;000.359;MIDI 01
254.034;000.752;49;000.234;MIDI 01
254.186;000.602;61;000.320;MIDI 01
254.287;000.520;65;000.281;MIDI 01
254.752;000.131;73;000.375;MIDI 01
254.118;000.835;56;000.211;MIDI 01
254.910;000.134;72;000.398;MIDI 01
255.055;000.068;73;000.453;MIDI 01
255.386;000.091;63;000.328;MIDI 01
255.352;000.350;61;000.242;MIDI 01
255.492;000.230;70;000.320;MIDI 01
255.257;000.527;55;000.258;MIDI 01
255.706;000.809;77;000.398;MIDI 01
257.344;000.135;75;000.289;MIDI 01
257.446;000.280;44;000.250;MIDI 01
258.254;000.268;61;000.219;MIDI 01
258.249;000.276;56;000.211;MIDI 01
258.264;000.266;63;000.219;MIDI 01
258.258;000.328;66;000.281;MIDI 01
258.867;000.097;61;000.258;MIDI 01
258.894;000.073;56;000.078;MIDI 01
258.859;000.110;63;000.281;MIDI 01
257.462;001.579;68;000.305;MIDI 01
258.822;000.225;66;000.141;MIDI 01
259.231;000.053;70;000.414;MIDI 01
259.310;000.108;61;000.320;MIDI 01
259.327;000.094;56;000.234;MIDI 01
259.316;000.116;63;000.328;MIDI 01
259.304;000.193;68;000.375;MIDI 01
259.330;000.191;66;000.164;MIDI 01
259.613;000.071;69;000.461;MIDI 01
259.694;000.062;61;000.320;MIDI 01
259.693;000.066;56;000.242;MIDI 01
259.659;000.101;63;000.391;MIDI 01
259.683;000.100;66;000.391;MIDI 01
259.667;000.162;68;000.523;MIDI 01
259.932;000.099;70;000.469;MIDI 01
259.989;000.047;61;000.352;MIDI 01
259.999;000.052;56;000.352;MIDI 01
260.035;000.076;66;000.336;MIDI 01
260.027;000.091;63;000.297;MIDI 01
259.996;000.127;68;000.516;MIDI 01
260.339;000.100;69;000.383;MIDI 01
260.479;000.043;60;000.344;MIDI 01
260.477;000.054;32;000.297;MIDI 01
260.447;000.104;66;000.258;MIDI 01
260.428;000.127;68;000.336;MIDI 01
260.832;000.091;69;000.430;MIDI 01
260.973;000.247;70;000.406;MIDI 01
260.982;000.346;63;000.266;MIDI 01
260.962;000.386;56;000.281;MIDI 01
261.252;000.252;72;000.438;MIDI 01
262.107;000.181;60;000.219;MIDI 01
262.119;000.233;66;000.234;MIDI 01
262.087;000.854;68;000.242;MIDI 01
262.127;000.833;56;000.141;MIDI 01
261.534;001.446;75;000.430;MIDI 01
262.870;000.353;65;000.203;MIDI 01
262.882;000.391;61;000.242;MIDI 01
262.861;000.424;73;000.320;MIDI 01
262.902;000.385;49;000.195;MIDI 01
265.114;000.217;66;000.195;MIDI 01
265.076;000.284;69;000.266;MIDI 01
264.372;001.327;73;000.328;MIDI 01
265.711;000.179;66;000.156;MIDI 01
265.652;000.241;69;000.188;MIDI 01
264.328;001.595;63;000.328;MIDI 01
265.889;000.138;65;000.422;MIDI 01
266.043;000.174;63;000.422;MIDI 01
266.203;000.045;66;000.289;MIDI 01
266.217;000.198;62;000.508;MIDI 01
265.665;000.754;72;000.297;MIDI 01
266.201;000.238;69;000.164;MIDI 01
266.398;000.287;63;000.508;MIDI 01
266.678;000.206;69;000.289;MIDI 01
266.694;000.415;66;000.445;MIDI 01
266.655;000.480;73;000.367;MIDI 01
267.081;000.070;69;000.469;MIDI 01
267.225;000.118;61;000.555;MIDI 01
267.521;000.094;66;000.289;MIDI 01
267.468;000.244;69;000.391;MIDI 01
267.971;000.076;66;000.398;MIDI 01
267.940;000.113;69;000.477;MIDI 01
267.471;000.611;61;000.531;MIDI 01
268.113;000.168;60;000.492;MIDI 01
267.469;000.851;77;000.523;MIDI 01
268.329;000.217;66;000.359;MIDI 01
268.333;000.228;69;000.336;MIDI 01
268.327;000.361;63;000.414;MIDI 01
268.839;000.084;69;000.273;MIDI 01
268.853;000.071;66;000.312;MIDI 01
268.311;001.016;75;000.461;MIDI 01
269.314;000.276;69;000.344;MIDI 01
269.333;000.266;66;000.273;MIDI 01
269.311;000.544;73;000.375;MIDI 01
269.785;000.076;69;000.398;MIDI 01
269.789;000.099;66;000.258;MIDI 01
270.225;000.284;39;000.438;MIDI 01
270.247;000.274;66;000.367;MIDI 01
270.251;000.301;69;000.383;MIDI 01
270.565;000.054;51;000.445;MIDI 01
270.797;000.145;66;000.430;MIDI 01
270.781;000.161;54;000.422;MIDI 01
270.779;000.218;69;000.391;MIDI 01
270.229;000.850;73;000.477;MIDI 01
270.947;000.173;56;000.578;MIDI 01
271.131;000.126;66;000.445;MIDI 01
271.108;000.169;57;000.555;MIDI 01
271.115;000.192;69;000.469;MIDI 01
271.276;000.151;54;000.547;MIDI 01
271.447;000.066;66;000.438;MIDI 01
271.436;000.146;51;000.594;MIDI 01
271.449;000.207;69;000.516;MIDI 01
271.101;000.567;72;000.547;MIDI 01
271.594;000.102;63;000.641;MIDI 01
271.873;000.203;69;000.422;MIDI 01
271.850;000.487;73;000.562;MIDI 01
272.319;000.058;69;000.484;MIDI 01
271.848;000.539;66;000.547;MIDI 01
272.450;000.122;61;000.594;MIDI 01
272.745;000.233;66;000.367;MIDI 01
272.728;000.306;69;000.453;MIDI 01
273.326;000.048;66;000.352;MIDI 01
273.293;000.090;69;000.422;MIDI 01
272.739;000.718;61;000.453;MIDI 01
273.475;000.134;60;000.391;MIDI 01
272.720;000.941;77;000.500;MIDI 01
273.680;000.198;66;000.359;MIDI 01
273.660;000.245;69;000.359;MIDI 01
273.658;000.472;63;000.328;MIDI 01
274.119;000.046;66;000.344;MIDI 01
274.094;000.073;69;000.422;MIDI 01
273.665;000.948;75;000.484;MIDI 01
274.577;000.309;66;000.289;MIDI 01
274.550;000.366;69;000.344;MIDI 01
275.234;000.121;66;000.242;MIDI 01
274.547;000.924;73;000.438;MIDI 01
275.200;000.310;69;000.258;MIDI 01
275.475;000.090;72;000.375;MIDI 01
275.917;000.320;65;000.258;MIDI 01
275.932;000.330;68;000.242;MIDI 01
276.459;000.100;65;000.266;MIDI 01
276.451;000.147;68;000.266;MIDI 01
275.908;000.974;72;000.312;MIDI 01
276.892;000.259;68;000.266;MIDI 01
276.941;000.228;65;000.156;MIDI 01
277.387;000.159;65;000.141;MIDI 01
277.382;000.192;62;000.281;MIDI 01
277.370;000.264;68;000.281;MIDI 01
276.913;000.823;71;000.266;MIDI 01
277.611;000.293;63;000.352;MIDI 01
277.939;000.208;68;000.250;MIDI 01
277.934;000.256;67;000.273;MIDI 01
278.184;000.160;65;000.352;MIDI 01
278.378;000.087;68;000.375;MIDI 01
277.930;000.539;72;000.344;MIDI 01
278.384;000.149;62;000.375;MIDI 01
278.573;000.051;60;000.445;MIDI 01
278.817;000.305;68;000.312;MIDI 01
278.814;000.717;75;000.375;MIDI 01
279.342;000.234;68;000.281;MIDI 01
278.858;000.729;60;000.289;MIDI 01
279.387;000.216;65;000.289;MIDI 01
279.593;000.220;59;000.344;MIDI 01
279.818;000.264;65;000.242;MIDI 01
279.814;000.289;68;000.250;MIDI 01
279.817;000.521;62;000.297;MIDI 01
280.260;000.081;65;000.328;MIDI 01
280.262;000.092;68;000.344;MIDI 01
279.839;000.832;74;000.312;MIDI 01
280.649;000.215;68;000.312;MIDI 01
280.651;000.225;65;000.297;MIDI 01
281.062;000.056;65;000.328;MIDI 01
280.635;000.490;72;000.445;MIDI 01
281.061;000.066;68;000.375;MIDI 01
281.520;000.236;38;000.406;MIDI 01
281.535;000.268;65;000.336;MIDI 01
281.538;000.274;68;000.352;MIDI 01
281.816;000.045;50;000.445;MIDI 01
282.058;000.130;53;000.359;MIDI 01
282.060;000.142;65;000.375;MIDI 01
282.039;000.166;68;000.344;MIDI 01
281.512;000.857;72;000.453;MIDI 01
282.215;000.184;55;000.453;MIDI 01
282.410;000.185;65;000.414;MIDI 01
282.413;000.192;68;000.398;MIDI 01
282.415;000.197;58;000.492;MIDI 01
282.596;000.161;56;000.547;MIDI 01
282.779;000.116;65;000.414;MIDI 01
282.774;000.151;53;000.469;MIDI 01
282.772;000.177;68;000.445;MIDI 01
282.935;000.072;50;000.570;MIDI 01
282.404;000.707;71;000.453;MIDI 01
283.215;000.123;68;000.359;MIDI 01
283.208;000.569;65;000.523;MIDI 01
283.684;000.110;68;000.398;MIDI 01
283.874;000.123;60;000.461;MIDI 01
283.206;000.816;72;000.523;MIDI 01
284.231;000.272;65;000.273;MIDI 01
284.215;000.312;68;000.281;MIDI 01
284.815;000.118;65;000.281;MIDI 01
284.776;000.190;68;000.211;MIDI 01
284.203;000.799;60;000.320;MIDI 01
284.999;000.217;59;000.344;MIDI 01
284.181;001.319;74;000.422;MIDI 01
285.256;000.270;65;000.203;MIDI 01
285.238;000.349;68;000.203;MIDI 01
285.828;000.176;65;000.344;MIDI 01
285.250;000.759;58;000.297;MIDI 01
285.842;000.209;68;000.125;MIDI 01
285.806;000.404;74;000.477;MIDI 01
286.402;000.257;63;000.305;MIDI 01
286.384;000.281;68;000.203;MIDI 01
286.369;000.302;72;000.391;MIDI 01
287.108;000.256;62;000.281;MIDI 01
287.106;000.374;68;000.250;MIDI 01
287.100;000.426;70;000.273;MIDI 01
288.149;000.225;63;000.141;MIDI 01
288.123;000.333;67;000.266;MIDI 01
288.143;000.357;34;000.125;MIDI 01
288.623;000.060;46;000.234;MIDI 01
288.932;000.196;51;000.312;MIDI 01
288.116;001.067;75;000.297;MIDI 01
288.901;000.283;67;000.320;MIDI 01
288.927;000.264;63;000.266;MIDI 01
289.164;000.219;53;000.289;MIDI 01
289.389;000.206;67;000.305;MIDI 01
289.397;000.209;55;000.273;MIDI 01
289.391;000.230;63;000.297;MIDI 01
289.595;000.159;53;000.211;MIDI 01
289.781;000.120;63;000.312;MIDI 01
289.812;000.096;51;000.242;MIDI 01
289.777;000.134;67;000.344;MIDI 01
289.386;000.824;74;000.430;MIDI 01
289.979;000.273;46;000.281;MIDI 01
290.253;000.246;63;000.211;MIDI 01
290.244;000.261;67;000.219;MIDI 01
290.251;000.256;58;000.266;MIDI 01
290.221;000.626;72;000.352;MIDI 01
290.758;000.114;67;000.227;MIDI 01
290.777;000.102;63;000.188;MIDI 01
291.309;000.330;34;000.180;MIDI 01
291.361;000.386;68;000.273;MIDI 01
291.708;000.042;46;000.281;MIDI 01
291.359;000.406;62;000.281;MIDI 01
291.965;000.207;68;000.320;MIDI 01
292.007;000.176;53;000.312;MIDI 01
291.999;000.220;62;000.281;MIDI 01
292.182;000.164;55;000.406;MIDI 01
292.370;000.128;56;000.414;MIDI 01
292.366;000.139;68;000.367;MIDI 01
292.372;000.174;62;000.375;MIDI 01
292.534;000.141;55;000.422;MIDI 01
292.722;000.114;53;000.391;MIDI 01
292.716;000.124;68;000.305;MIDI 01
292.721;000.146;62;000.438;MIDI 01
291.334;001.787;72;000.344;MIDI 01
292.887;000.315;46;000.422;MIDI 01
293.149;000.160;58;000.352;MIDI 01
293.142;000.184;68;000.305;MIDI 01
293.109;000.259;62;000.281;MIDI 01
293.511;000.067;62;000.406;MIDI 01
293.120;000.492;70;000.414;MIDI 01
293.509;000.138;68;000.445;MIDI 01
294.002;000.132;63;000.359;MIDI 01
293.916;000.249;34;000.445;MIDI 01
293.973;000.284;67;000.406;MIDI 01
294.220;000.040;46;000.461;MIDI 01
294.445;000.126;63;000.422;MIDI 01
294.455;000.126;51;000.414;MIDI 01
294.427;000.185;67;000.477;MIDI 01
294.592;000.150;53;000.523;MIDI 01
293.952;000.817;75;000.562;MIDI 01
294.764;000.159;55;000.477;MIDI 01
294.761;000.179;63;000.328;MIDI 01
294.766;000.181;67;000.484;MIDI 01
294.918;000.129;53;000.547;MIDI 01
295.072;000.131;51;000.562;MIDI 01
295.100;000.116;63;000.414;MIDI 01
295.104;000.207;67;000.500;MIDI 01
294.758;000.620;69;000.477;MIDI 01
295.230;000.162;60;000.586;MIDI 01
295.456;000.240;58;000.531;MIDI 01
295.489;000.210;63;000.406;MIDI 01
295.480;000.281;67;000.438;MIDI 01
295.898;000.083;63;000.406;MIDI 01
295.459;000.616;70;000.516;MIDI 01
295.897;000.332;67;000.461;MIDI 01
296.336;000.282;68;000.484;MIDI 01
296.343;000.281;62;000.492;MIDI 01
296.277;000.365;34;000.617;MIDI 01
296.689;000.062;46;000.562;MIDI 01
296.977;000.206;53;000.562;MIDI 01
296.990;000.232;62;000.422;MIDI 01
296.973;000.268;68;000.453;MIDI 01
297.192;000.166;54;000.570;MIDI 01
297.376;000.140;62;000.508;MIDI 01
297.364;000.154;55;000.586;MIDI 01
297.369;000.163;68;000.469;MIDI 01
297.514;000.117;56;000.609;MIDI 01
297.679;000.099;62;000.500;MIDI 01
297.653;000.140;57;000.633;MIDI 01
297.674;000.145;68;000.555;MIDI 01
297.791;000.171;58;000.625;MIDI 01
296.321;001.689;72;000.570;MIDI 01
297.954;000.157;60;000.602;MIDI 01
297.960;000.206;68;000.555;MIDI 01
298.116;000.160;62;000.648;MIDI 01
297.957;000.454;70;000.555;MIDI 01
298.291;000.150;68;000.609;MIDI 01
298.273;000.179;63;000.641;MIDI 01
298.458;000.127;65;000.711;MIDI 01
298.776;000.515;67;000.719;MIDI 01
299.368;000.128;61;000.406;MIDI 01
299.750;000.115;61;000.555;MIDI 01
299.761;000.254;67;000.438;MIDI 01
300.164;000.050;61;000.445;MIDI 01
300.190;000.145;67;000.422;MIDI 01
300.501;000.025;61;000.453;MIDI 01
300.503;000.133;67;000.492;MIDI 01
299.721;001.088;64;000.688;MIDI 01
300.803;000.049;61;000.484;MIDI 01
300.779;000.100;63;000.617;MIDI 01
300.792;000.147;67;000.555;MIDI 01
298.796;002.236;70;000.680;MIDI 01
301.134;000.159;61;000.602;MIDI 01
301.142;000.243;67;000.484;MIDI 01
301.503;000.073;61;000.555;MIDI 01
301.533;000.064;67;000.438;MIDI 01
301.123;000.500;70;000.680;MIDI 01
301.129;000.536;64;000.695;MIDI 01
301.666;000.070;63;000.539;MIDI 01
301.799;000.085;70;000.555;MIDI 01
301.891;000.120;71;000.562;MIDI 01
301.733;000.516;61;000.367;MIDI 01
301.723;000.569;67;000.492;MIDI 01
301.968;000.354;70;000.641;MIDI 01
302.490;000.136;61;000.586;MIDI 01
302.496;000.197;67;000.500;MIDI 01
302.481;000.257;69;000.594;MIDI 01
302.822;000.114;61;000.633;MIDI 01
302.831;000.152;67;000.586;MIDI 01
301.965;001.039;64;000.719;MIDI 01
302.816;000.190;70;000.664;MIDI 01
303.106;000.081;63;000.602;MIDI 01
303.117;000.079;61;000.578;MIDI 01
303.119;000.099;67;000.555;MIDI 01
303.111;000.123;71;000.680;MIDI 01
303.546;000.185;66;000.609;MIDI 01
303.556;000.197;63;000.602;MIDI 01
304.035;000.219;63;000.594;MIDI 01
304.031;000.256;66;000.617;MIDI 01
303.540;000.865;57;000.664;MIDI 01
304.382;000.116;66;000.500;MIDI 01
304.380;000.141;63;000.656;MIDI 01
304.378;000.230;45;000.633;MIDI 01
304.804;000.057;66;000.586;MIDI 01
303.542;001.326;72;000.695;MIDI 01
304.802;000.068;63;000.680;MIDI 01
304.373;000.507;73;000.734;MIDI 01
305.247;000.285;63;000.688;MIDI 01
305.245;000.290;66;000.672;MIDI 01
305.240;000.310;71;000.641;MIDI 01
305.705;000.045;42;000.438;MIDI 01
305.242;000.537;74;000.750;MIDI 01
305.690;000.128;32;000.672;MIDI 01
305.676;000.146;71;000.555;MIDI 01
305.682;000.143;44;000.664;MIDI 01
305.680;000.189;63;000.648;MIDI 01
305.688;000.220;66;000.617;MIDI 01
306.033;000.238;63;000.648;MIDI 01
306.024;000.289;66;000.562;MIDI 01
306.022;000.333;45;000.703;MIDI 01
306.029;000.358;33;000.648;MIDI 01
306.444;000.110;63;000.672;MIDI 01
306.452;000.157;66;000.625;MIDI 01
306.630;000.036;44;000.742;MIDI 01
306.631;000.054;32;000.695;MIDI 01
306.021;001.095;75;000.695;MIDI 01
306.823;000.308;63;000.648;MIDI 01
306.035;001.098;72;000.617;MIDI 01
306.817;000.395;66;000.672;MIDI 01
306.815;000.615;45;000.719;MIDI 01
307.334;000.180;71;000.578;MIDI 01
307.336;000.203;63;000.664;MIDI 01
307.329;000.227;74;000.734;MIDI 01
306.820;000.787;33;000.672;MIDI 01
307.332;000.279;66;000.648;MIDI 01
307.768;000.132;63;000.648;MIDI 01
307.760;000.197;75;000.727;MIDI 01
307.762;000.222;66;000.641;MIDI 01
307.764;000.240;72;000.672;MIDI 01
308.116;000.098;63;000.594;MIDI 01
308.167;000.160;66;000.578;MIDI 01
308.242;000.200;72;000.570;MIDI 01
308.308;000.156;44;000.758;MIDI 01
308.320;000.190;76;000.672;MIDI 01
308.316;000.249;32;000.672;MIDI 01
309.091;000.289;25;000.664;MIDI 01
309.089;000.359;65;000.695;MIDI 01
309.421;000.059;30;000.109;MIDI 01
309.087;000.395;37;000.711;MIDI 01
309.092;000.745;73;000.711;MIDI 01
309.834;000.246;49;000.531;MIDI 01
309.830;000.296;56;000.617;MIDI 01
309.837;000.311;65;000.641;MIDI 01
310.307;000.154;56;000.609;MIDI 01
310.303;000.169;65;000.680;MIDI 01
310.301;000.176;49;000.531;MIDI 01
310.660;000.116;49;000.539;MIDI 01
310.694;000.125;65;000.672;MIDI 01
310.675;000.198;57;000.594;MIDI 01
309.087;002.166;77;000.734;MIDI 01
311.249;000.199;66;000.508;MIDI 01
311.198;000.279;49;000.484;MIDI 01
311.207;000.292;58;000.531;MIDI 01
311.212;000.411;75;000.672;MIDI 01
311.688;000.086;49;000.383;MIDI 01
311.734;000.054;60;000.398;MIDI 01
311.577;000.346;73;000.664;MIDI 01
311.736;000.225;66;000.516;MIDI 01
311.856;000.135;70;000.633;MIDI 01
312.177;000.265;65;000.484;MIDI 01
312.193;000.302;49;000.391;MIDI 01
312.180;000.322;61;000.430;MIDI 01
312.740;000.110;49;000.320;MIDI 01
312.755;000.108;61;000.336;MIDI 01
312.715;000.183;65;000.469;MIDI 01
313.157;000.103;49;000.344;MIDI 01
313.165;000.100;61;000.375;MIDI 01
313.136;000.181;65;000.484;MIDI 01
312.163;001.195;68;000.617;MIDI 01
313.515;000.099;65;000.461;MIDI 01
313.633;000.118;68;000.477;MIDI 01
313.548;000.288;61;000.359;MIDI 01
313.520;000.321;49;000.320;MIDI 01
313.759;000.089;70;000.516;MIDI 01
313.848;000.083;68;000.562;MIDI 01
313.936;000.115;67;000.562;MIDI 01
314.035;000.136;68;000.617;MIDI 01
314.167;000.328;61;000.320;MIDI 01
314.197;000.300;64;000.484;MIDI 01
314.183;000.359;55;000.312;MIDI 01
314.723;000.066;64;000.438;MIDI 01
314.714;000.123;61;000.328;MIDI 01
314.155;000.809;72;000.578;MIDI 01
314.716;000.267;55;000.297;MIDI 01
314.946;000.307;70;000.586;MIDI 01
315.236;000.310;61;000.430;MIDI 01
315.271;000.354;56;000.344;MIDI 01
315.228;000.496;63;000.492;MIDI 01
315.846;000.143;61;000.359;MIDI 01
315.843;000.183;56;000.336;MIDI 01
316.238;000.087;61;000.406;MIDI 01
316.240;000.141;56;000.344;MIDI 01
315.784;000.682;63;000.078;MIDI 01
316.603;000.073;61;000.375;MIDI 01
316.632;000.087;56;000.289;MIDI 01
316.605;000.262;63;000.453;MIDI 01
316.757;000.151;65;000.469;MIDI 01
316.900;000.099;66;000.547;MIDI 01
317.176;000.195;56;000.250;MIDI 01
317.158;000.236;60;000.383;MIDI 01
317.148;000.522;70;000.469;MIDI 01
317.668;000.062;56;000.289;MIDI 01
317.174;000.564;44;000.266;MIDI 01
317.820;000.084;65;000.492;MIDI 01
317.168;000.760;66;000.383;MIDI 01
317.809;000.121;68;000.547;MIDI 01
317.621;000.315;60;000.398;MIDI 01
318.089;000.286;60;000.398;MIDI 01
318.143;000.273;56;000.234;MIDI 01
318.593;000.115;60;000.336;MIDI 01
318.616;000.164;56;000.227;MIDI 01
318.121;000.661;44;000.141;MIDI 01
318.091;000.697;66;000.445;MIDI 01
318.106;000.692;63;000.352;MIDI 01
318.794;000.088;68;000.391;MIDI 01
318.941;000.061;66;000.391;MIDI 01
319.090;000.317;61;000.320;MIDI 01
319.124;000.293;56;000.250;MIDI 01
319.075;000.629;65;000.383;MIDI 01
319.619;000.194;61;000.383;MIDI 01
319.627;000.298;56;000.383;MIDI 01
319.145;001.231;49;000.203;MIDI 01
320.132;000.297;59;000.266;MIDI 01
320.113;000.322;61;000.367;MIDI 01
320.703;000.172;59;000.273;MIDI 01
320.698;000.195;61;000.312;MIDI 01
321.504;000.282;66;000.258;MIDI 01
321.484;000.363;61;000.203;MIDI 01
321.490;000.369;58;000.219;MIDI 01
321.453;000.634;73;000.398;MIDI 01
322.092;000.171;66;000.336;MIDI 01
322.252;000.041;73;000.367;MIDI 01
322.110;000.198;61;000.250;MIDI 01
322.126;000.228;58;000.102;MIDI 01
322.344;000.081;75;000.406;MIDI 01
322.430;000.066;73;000.430;MIDI 01
322.552;000.062;72;000.406;MIDI 01
322.799;000.082;66;000.156;MIDI 01
322.637;000.290;73;000.414;MIDI 01
322.736;000.277;61;000.234;MIDI 01
322.760;000.281;57;000.242;MIDI 01
323.299;000.151;61;000.320;MIDI 01
323.320;000.152;66;000.258;MIDI 01
323.307;000.171;73;000.367;MIDI 01
323.322;000.160;57;000.195;MIDI 01
322.747;000.969;78;000.508;MIDI 01
323.699;000.174;68;000.477;MIDI 01
323.722;000.225;56;000.375;MIDI 01
323.701;000.277;73;000.430;MIDI 01
323.724;000.258;61;000.359;MIDI 01
324.164;000.041;73;000.406;MIDI 01
324.156;000.071;61;000.445;MIDI 01
324.158;000.072;68;000.312;MIDI 01
324.163;000.087;56;000.359;MIDI 01
323.697;000.851;77;000.539;MIDI 01
324.538;000.256;63;000.359;MIDI 01
324.573;000.246;70;000.273;MIDI 01
324.554;000.276;55;000.305;MIDI 01
324.529;000.352;74;000.500;MIDI 01
324.744;000.147;75;000.508;MIDI 01
324.880;000.141;77;000.539;MIDI 01
325.030;000.060;70;000.344;MIDI 01
325.023;000.126;63;000.453;MIDI 01
325.021;000.133;75;000.594;MIDI 01
325.025;000.140;55;000.352;MIDI 01
325.149;000.129;74;000.578;MIDI 01
325.270;000.094;75;000.609;MIDI 01
325.428;000.208;72;000.547;MIDI 01
325.443;000.196;54;000.336;MIDI 01
325.433;000.219;63;000.469;MIDI 01
325.454;000.205;56;000.367;MIDI 01
325.841;000.052;72;000.570;MIDI 01
325.839;000.068;63;000.531;MIDI 01
325.846;000.086;54;000.438;MIDI 01
325.853;000.081;56;000.438;MIDI 01
326.183;000.175;61;000.594;MIDI 01
326.185;000.192;56;000.477;MIDI 01
326.185;000.211;53;000.484;MIDI 01
326.175;000.282;73;000.680;MIDI 01
325.413;001.072;82;000.602;MIDI 01
326.543;000.064;61;000.602;MIDI 01
326.548;000.099;56;000.539;MIDI 01
326.598;000.051;73;000.602;MIDI 01
326.545;000.108;52;000.562;MIDI 01
326.586;000.165;80;000.711;MIDI 01
327.163;000.045;73;000.648;MIDI 01
327.166;000.128;39;000.594;MIDI 01
327.169;000.194;51;000.625;MIDI 01
327.159;000.238;79;000.602;MIDI 01
327.161;000.311;85;000.727;MIDI 01
327.860;000.132;79;000.570;MIDI 01
327.858;000.176;70;000.430;MIDI 01
327.846;000.196;63;000.422;MIDI 01
327.848;000.196;73;000.461;MIDI 01
328.361;000.096;63;000.359;MIDI 01
328.379;000.083;70;000.352;MIDI 01
328.364;000.101;73;000.383;MIDI 01
327.831;000.767;89;000.719;MIDI 01
328.373;000.260;79;000.539;MIDI 01
328.558;000.158;88;000.641;MIDI 01
328.829;000.096;63;000.289;MIDI 01
328.846;000.079;70;000.297;MIDI 01
328.833;000.094;73;000.383;MIDI 01
328.799;000.233;87;000.562;MIDI 01
328.810;000.281;79;000.484;MIDI 01
328.993;000.114;86;000.625;MIDI 01
329.214;000.035;79;000.445;MIDI 01
329.209;000.074;73;000.445;MIDI 01
329.193;000.095;63;000.398;MIDI 01
329.211;000.077;70;000.359;MIDI 01
329.177;000.226;89;000.633;MIDI 01
329.351;000.167;87;000.672;MIDI 01
329.544;000.023;73;000.422;MIDI 01
329.549;000.036;70;000.461;MIDI 01
329.567;000.050;63;000.328;MIDI 01
329.538;000.112;79;000.547;MIDI 01
329.515;000.200;86;000.625;MIDI 01
329.711;000.064;85;000.625;MIDI 01
330.009;000.165;44;000.461;MIDI 01
330.030;000.208;84;000.516;MIDI 01
330.420;000.096;78;000.539;MIDI 01
330.577;000.023;66;000.422;MIDI 01
330.589;000.040;63;000.352;MIDI 01
330.587;000.059;56;000.398;MIDI 01
330.570;000.135;84;000.492;MIDI 01
330.256;000.450;72;000.555;MIDI 01
330.705;000.098;85;000.570;MIDI 01
330.847;000.103;84;000.555;MIDI 01
330.981;000.044;32;000.469;MIDI 01
330.970;000.144;82;000.500;MIDI 01
331.271;000.108;78;000.461;MIDI 01
331.397;000.045;66;000.445;MIDI 01
331.417;000.035;63;000.422;MIDI 01
331.410;000.050;56;000.297;MIDI 01
331.430;000.124;82;000.430;MIDI 01
331.575;000.107;84;000.508;MIDI 01
331.120;000.707;72;000.508;MIDI 01
331.711;000.173;82;000.477;MIDI 01
331.920;000.125;44;000.344;MIDI 01
331.897;000.209;77;000.414;MIDI 01
331.922;000.396;80;000.438;MIDI 01
332.152;000.182;72;000.375;MIDI 01
332.333;000.098;77;000.375;MIDI 01
332.607;000.165;68;000.242;MIDI 01
332.571;000.248;78;000.398;MIDI 01
332.596;000.229;75;000.250;MIDI 01
332.605;000.285;56;000.281;MIDI 01
332.825;000.123;77;000.438;MIDI 01
332.858;000.259;80;000.406;MIDI 01
333.143;000.109;75;000.352;MIDI 01
333.135;000.471;78;000.391;MIDI 01
333.642;000.248;25;000.250;MIDI 01
334.425;000.269;65;000.258;MIDI 01
334.459;000.245;49;000.258;MIDI 01
334.468;000.239;56;000.281;MIDI 01
334.995;000.194;49;000.273;MIDI 01
335.010;000.189;56;000.352;MIDI 01
334.988;000.214;65;000.336;MIDI 01
335.433;000.107;65;000.320;MIDI 01
335.480;000.080;49;000.133;MIDI 01
335.473;000.144;57;000.398;MIDI 01
333.616;002.327;77;000.406;MIDI 01
335.933;000.176;74;000.344;MIDI 01
335.928;000.269;66;000.281;MIDI 01
336.146;000.092;75;000.391;MIDI 01
335.935;000.323;49;000.273;MIDI 01
335.972;000.291;58;000.227;MIDI 01
336.280;000.091;77;000.484;MIDI 01
336.408;000.099;75;000.438;MIDI 01
336.534;000.052;66;000.141;MIDI 01
336.559;000.152;78;000.438;MIDI 01
336.709;000.108;77;000.406;MIDI 01
336.608;000.315;60;000.242;MIDI 01
336.841;000.119;75;000.453;MIDI 01
336.592;000.373;49;000.188;MIDI 01
336.970;000.076;73;000.414;MIDI 01
337.074;000.055;72;000.453;MIDI 01
337.205;000.108;70;000.398;MIDI 01
337.395;000.316;65;000.289;MIDI 01
337.390;000.401;61;000.250;MIDI 01
337.398;000.459;49;000.062;MIDI 01
338.071;000.110;65;000.250;MIDI 01
338.090;000.194;61;000.234;MIDI 01
337.366;001.192;68;000.359;MIDI 01
338.580;000.268;64;000.281;MIDI 01
338.589;000.273;61;000.203;MIDI 01
339.026;000.097;64;000.398;MIDI 01
339.030;000.248;61;000.344;MIDI 01
339.491;000.232;62;000.297;MIDI 01
339.479;000.274;66;000.336;MIDI 01
339.484;000.297;60;000.281;MIDI 01
339.944;000.091;66;000.406;MIDI 01
339.939;000.147;62;000.305;MIDI 01
338.550;001.547;69;000.391;MIDI 01
339.948;000.456;60;000.320;MIDI 01
340.597;000.356;62;000.141;MIDI 01
340.581;000.375;67;000.250;MIDI 01
340.564;000.398;59;000.227;MIDI 01
341.216;000.132;62;000.305;MIDI 01
341.176;000.194;67;000.266;MIDI 01
340.558;001.056;74;000.344;MIDI 01
341.166;000.469;59;000.266;MIDI 01
341.663;000.239;67;000.297;MIDI 01
341.690;000.244;64;000.227;MIDI 01
341.664;000.323;58;000.289;MIDI 01
342.077;000.203;64;000.391;MIDI 01
342.068;000.244;67;000.344;MIDI 01
341.631;000.709;73;000.414;MIDI 01
342.083;000.328;57;000.391;MIDI 01
342.468;000.220;65;000.352;MIDI 01
342.457;000.246;68;000.445;MIDI 01
342.472;000.359;56;000.438;MIDI 01
342.855;000.176;64;000.406;MIDI 01
342.438;000.603;73;000.547;MIDI 01
342.867;000.247;70;000.445;MIDI 01
342.896;000.520;55;000.352;MIDI 01
343.431;000.288;63;000.305;MIDI 01
343.435;000.336;69;000.328;MIDI 01
343.415;000.376;73;000.414;MIDI 01
343.439;000.363;54;000.289;MIDI 01
344.003;000.061;63;000.102;MIDI 01
343.991;000.101;69;000.312;MIDI 01
343.949;000.183;72;000.438;MIDI 01
344.109;000.081;73;000.523;MIDI 01
343.989;000.312;54;000.312;MIDI 01
344.314;000.095;69;000.328;MIDI 01
344.311;000.200;72;000.359;MIDI 01
344.345;000.208;66;000.320;MIDI 01
344.309;000.529;75;000.461;MIDI 01
344.776;000.082;68;000.289;MIDI 01
344.728;000.142;72;000.352;MIDI 01
344.754;000.141;66;000.312;MIDI 01
345.207;000.282;68;000.266;MIDI 01
345.191;000.310;73;000.352;MIDI 01
345.211;000.295;65;000.273;MIDI 01
345.719;000.089;68;000.242;MIDI 01
345.175;000.667;77;000.391;MIDI 01
345.743;000.100;65;000.227;MIDI 01
345.721;000.210;73;000.312;MIDI 01
346.326;000.251;70;000.258;MIDI 01
346.357;000.225;63;000.211;MIDI 01
346.349;000.249;66;000.227;MIDI 01
346.282;000.534;78;000.359;MIDI 01
346.807;000.061;63;000.281;MIDI 01
346.817;000.071;66;000.234;MIDI 01
346.803;000.143;73;000.352;MIDI 01
346.832;000.148;70;000.219;MIDI 01
346.980;000.102;75;000.406;MIDI 01
347.166;000.109;65;000.281;MIDI 01
347.197;000.126;53;000.164;MIDI 01
347.185;000.148;69;000.258;MIDI 01
347.156;000.289;77;000.375;MIDI 01
347.530;000.055;53;000.211;MIDI 01
347.557;000.070;63;000.320;MIDI 01
347.528;000.104;69;000.227;MIDI 01
347.525;000.134;72;000.367;MIDI 01
347.930;000.135;58;000.273;MIDI 01
347.921;000.154;62;000.312;MIDI 01
347.905;000.185;68;000.359;MIDI 01
347.898;000.425;77;000.383;MIDI 01
348.273;000.060;65;000.375;MIDI 01
348.271;000.073;68;000.344;MIDI 01
348.268;000.080;58;000.297;MIDI 01
348.270;000.140;72;000.344;MIDI 01
348.425;000.092;74;000.477;MIDI 01
348.673;000.145;67;000.195;MIDI 01
348.634;000.186;63;000.273;MIDI 01
348.677;000.177;51;000.180;MIDI 01
348.610;000.448;75;000.414;MIDI 01
349.062;000.144;51;000.195;MIDI 01
349.098;000.121;67;000.141;MIDI 01
349.070;000.203;70;000.352;MIDI 01
349.105;000.170;61;000.227;MIDI 01
349.581;000.291;66;000.242;MIDI 01
349.611;000.272;56;000.172;MIDI 01
349.613;000.276;60;000.211;MIDI 01
350.190;000.141;63;000.164;MIDI 01
349.579;000.770;75;000.273;MIDI 01
350.159;000.214;56;000.141;MIDI 01
350.161;000.293;66;000.211;MIDI 01
350.122;000.363;70;000.336;MIDI 01
350.468;000.114;72;000.344;MIDI 01
350.779;000.099;56;000.156;MIDI 01
350.952;000.200;73;000.359;MIDI 01
350.865;000.427;61;000.297;MIDI 01
350.706;000.604;49;000.234;MIDI 01
350.889;000.449;65;000.273;MIDI 01
351.183;000.155;75;000.367;MIDI 01
351.342;000.146;73;000.414;MIDI 01
351.498;000.116;72;000.438;MIDI 01
351.623;000.129;73;000.453;MIDI 01
351.906;000.095;63;000.352;MIDI 01
351.854;000.333;61;000.305;MIDI 01
351.799;000.474;55;000.031;MIDI 01
352.050;000.236;70;000.242;MIDI 01
352.241;000.904;77;000.422;MIDI 01
353.819;000.193;75;000.359;MIDI 01
353.940;000.281;44;000.180;MIDI 01
354.702;000.170;61;000.266;MIDI 01
354.727;000.168;56;000.133;MIDI 01
354.698;000.219;63;000.203;MIDI 01
354.666;000.332;66;000.289;MIDI 01
355.240;000.061;61;000.305;MIDI 01
355.269;000.051;56;000.180;MIDI 01
355.242;000.104;63;000.281;MIDI 01
355.192;000.229;66;000.234;MIDI 01
353.978;001.444;68;000.328;MIDI 01
355.548;000.046;70;000.289;MIDI 01
355.617;000.068;61;000.328;MIDI 01
355.616;000.071;63;000.352;MIDI 01
355.654;000.067;56;000.117;MIDI 01
355.606;000.125;66;000.227;MIDI 01
355.594;000.146;68;000.375;MIDI 01
355.904;000.045;69;000.367;MIDI 01
355.957;000.042;61;000.359;MIDI 01
355.959;000.051;56;000.297;MIDI 01
355.965;000.065;63;000.398;MIDI 01
355.980;000.053;66;000.141;MIDI 01
355.949;000.099;68;000.438;MIDI 01
356.260;000.108;70;000.406;MIDI 01
356.317;000.057;56;000.281;MIDI 01
356.330;000.050;61;000.266;MIDI 01
356.369;000.044;63;000.375;MIDI 01
356.373;000.062;68;000.398;MIDI 01
356.731;000.067;69;000.312;MIDI 01
356.895;000.067;60;000.266;MIDI 01
356.920;000.056;32;000.211;MIDI 01
356.829;000.181;68;000.328;MIDI 01
356.837;000.200;66;000.156;MIDI 01
357.268;000.095;69;000.367;MIDI 01
357.416;000.256;70;000.367;MIDI 01
357.658;000.289;72;000.445;MIDI 01
357.453;000.667;63;000.273;MIDI 01
357.443;000.722;56;000.211;MIDI 01
358.684;000.223;60;000.211;MIDI 01
358.669;000.365;66;000.250;MIDI 01
357.971;001.761;75;000.383;MIDI 01
358.690;001.061;56;000.180;MIDI 01
358.653;001.109;68;000.242;MIDI 01
359.644;000.385;61;000.203;MIDI 01
359.654;000.435;65;000.211;MIDI 01
359.642;000.490;73;000.297;MIDI 01
359.652;000.502;49;000.219;MIDI 01
361.198;000.087;61;000.375;MIDI 01
361.223;000.069;37;000.305;MIDI 01
361.223;000.074;49;000.273;MIDI 01
361.274;000.057;64;000.406;MIDI 01
361.296;000.039;52;000.320;MIDI 01
361.310;000.042;40;000.125;MIDI 01
361.712;000.030;47;000.508;MIDI 01
361.719;000.034;35;000.438;MIDI 01
361.732;000.047;40;000.453;MIDI 01
361.685;000.125;59;000.531;MIDI 01
361.784;000.084;52;000.469;MIDI 01
361.744;000.200;64;000.586;MIDI 01
362.100;000.026;45;000.602;MIDI 01
362.106;000.040;40;000.531;MIDI 01
362.102;000.048;33;000.523;MIDI 01
362.091;000.090;57;000.602;MIDI 01
362.159;000.125;52;000.602;MIDI 01
362.139;000.232;64;000.625;MIDI 01
362.450;000.032;44;000.602;MIDI 01
362.449;000.042;40;000.594;MIDI 01
362.479;000.047;32;000.430;MIDI 01
362.444;000.117;56;000.750;MIDI 01
362.528;000.093;52;000.625;MIDI 01
362.510;000.158;64;000.625;MIDI 01
362.809;000.030;31;000.648;MIDI 01
362.812;000.028;40;000.648;MIDI 01
362.819;000.026;43;000.648;MIDI 01
362.817;000.129;55;000.656;MIDI 01
362.900;000.052;52;000.703;MIDI 01
362.887;000.097;64;000.688;MIDI 01
363.670;000.017;67;000.703;MIDI 01
363.676;000.026;64;000.602;MIDI 01
363.675;000.034;61;000.609;MIDI 01
363.684;000.031;88;000.727;MIDI 01
363.688;000.032;76;000.648;MIDI 01
363.678;000.056;85;000.555;MIDI 01
363.680;000.057;55;000.633;MIDI 01
363.682;000.059;82;000.617;MIDI 01
363.999;000.034;55;000.570;MIDI 01
364.002;000.038;43;000.602;MIDI 01
364.008;000.035;64;000.688;MIDI 01
364.022;000.032;70;000.547;MIDI 01
363.988;000.085;73;000.602;MIDI 01
364.003;000.072;76;000.664;MIDI 01
364.120;000.033;64;000.680;MIDI 01
364.126;000.035;56;000.789;MIDI 01
364.128;000.042;44;000.742;MIDI 01
364.116;000.060;76;000.688;MIDI 01
364.130;000.067;68;000.688;MIDI 01
364.134;000.082;73;000.633;MIDI 01
364.545;000.032;44;000.742;MIDI 01
364.551;000.032;32;000.688;MIDI 01
364.549;000.058;66;000.664;MIDI 01
364.547;000.086;72;000.625;MIDI 01
364.555;000.096;68;000.609;MIDI 01
364.543;000.116;75;000.695;MIDI 01
365.011;000.034;49;000.703;MIDI 01
365.019;000.037;37;000.570;MIDI 01
365.022;000.069;64;000.688;MIDI 01
365.016;000.140;68;000.648;MIDI 01
365.020;000.169;73;000.703;MIDI 01
365.168;000.040;49;000.023;MIDI 01
365.410;000.109;49;000.477;MIDI 01
365.498;000.118;56;000.500;MIDI 01
365.555;000.065;73;000.617;MIDI 01
365.568;000.072;76;000.617;MIDI 01
365.591;000.050;64;000.688;MIDI 01
365.583;000.075;80;000.688;MIDI 01
365.601;000.065;85;000.750;MIDI 01
366.814;000.030;25;000.656;MIDI 01
366.816;000.034;37;000.664;MIDI 01
366.454;000.398;68;000.656;MIDI 01
367.195;000.030;66;000.578;MIDI 01
367.210;000.035;56;000.422;MIDI 01
367.207;000.049;60;000.461;MIDI 01
367.309;000.031;66;000.578;MIDI 01
367.336;000.033;56;000.555;MIDI 01
367.345;000.029;60;000.516;MIDI 01
367.427;000.028;66;000.625;MIDI 01
367.446;000.032;56;000.531;MIDI 01
367.464;000.027;60;000.469;MIDI 01
366.834;000.776;75;000.711;MIDI 01
367.750;000.077;66;000.375;MIDI 01
367.760;000.072;60;000.039;MIDI 01
367.752;000.126;73;000.594;MIDI 01
367.869;000.171;75;000.602;MIDI 01
368.030;000.095;49;000.609;MIDI 01
368.023;000.247;77;000.586;MIDI 01
368.386;000.039;67;000.273;MIDI 01
368.396;000.039;65;000.273;MIDI 01
368.354;000.093;75;000.539;MIDI 01
368.461;000.131;77;000.555;MIDI 01
368.620;000.051;54;000.227;MIDI 01
368.569;000.233;78;000.625;MIDI 01
368.855;000.030;66;000.453;MIDI 01
368.843;000.102;77;000.602;MIDI 01
368.903;000.051;61;000.227;MIDI 01
368.923;000.081;57;000.055;MIDI 01
368.954;000.135;78;000.578;MIDI 01
369.084;000.077;53;000.547;MIDI 01
369.070;000.239;80;000.617;MIDI 01
369.318;000.065;68;000.523;MIDI 01
369.329;000.100;59;000.398;MIDI 01
369.368;000.064;61;000.359;MIDI 01
369.333;000.145;78;000.562;MIDI 01
369.456;000.200;80;000.570;MIDI 01
369.644;000.344;54;000.391;MIDI 01
369.677;000.381;81;000.359;MIDI 01
370.027;000.042;57;000.305;MIDI 01
370.058;000.259;69;000.508;MIDI 01
370.431;000.255;44;000.352;MIDI 01
370.981;000.115;60;000.328;MIDI 01
370.422;000.718;68;000.500;MIDI 01
371.144;000.126;70;000.469;MIDI 01
370.753;000.602;51;000.367;MIDI 01
371.269;000.210;56;000.398;MIDI 01
371.363;000.123;72;000.492;MIDI 01
371.567;000.175;73;000.492;MIDI 01
371.765;000.104;75;000.531;MIDI 01
371.542;000.350;61;000.414;MIDI 01
371.856;000.055;55;000.398;MIDI 01
371.543;000.387;52;000.367;MIDI 01
371.978;000.179;76;000.570;MIDI 01
372.289;000.260;44;000.312;MIDI 01
372.624;000.142;51;000.344;MIDI 01
372.865;000.178;60;000.375;MIDI 01
372.317;001.086;75;000.469;MIDI 01
373.132;000.342;56;000.336;MIDI 01
373.515;000.084;68;000.391;MIDI 01
374.331;000.123;32;000.234;MIDI 01
374.305;000.190;75;000.312;MIDI 01
374.337;000.186;44;000.234;MIDI 01
374.632;000.062;75;000.406;MIDI 01
374.844;000.072;75;000.430;MIDI 01
374.768;000.160;56;000.320;MIDI 01
375.077;000.148;75;000.367;MIDI 01
375.062;000.181;66;000.344;MIDI 01
375.080;000.190;60;000.289;MIDI 01
375.392;000.051;73;000.375;MIDI 01
375.361;000.146;56;000.336;MIDI 01
375.564;000.046;49;000.375;MIDI 01
375.523;000.127;75;000.438;MIDI 01
375.656;000.086;59;000.359;MIDI 01
375.676;000.144;77;000.438;MIDI 01
375.739;000.095;65;000.445;MIDI 01
375.964;000.052;75;000.422;MIDI 01
375.998;000.088;61;000.430;MIDI 01
376.074;000.143;77;000.484;MIDI 01
376.191;000.159;66;000.430;MIDI 01
376.196;000.173;78;000.539;MIDI 01
376.198;000.173;54;000.344;MIDI 01
376.216;000.278;57;000.398;MIDI 01
376.472;000.064;77;000.461;MIDI 01
376.470;000.166;61;000.438;MIDI 01
376.584;000.080;53;000.469;MIDI 01
376.581;000.162;78;000.469;MIDI 01
376.800;000.059;68;000.477;MIDI 01
376.702;000.205;59;000.352;MIDI 01
376.724;000.259;80;000.555;MIDI 01
377.061;000.137;78;000.430;MIDI 01
377.236;000.102;54;000.336;MIDI 01
377.164;000.247;61;000.352;MIDI 01
377.235;000.183;80;000.375;MIDI 01
377.486;000.156;69;000.414;MIDI 01
377.457;000.276;81;000.445;MIDI 01
377.902;000.061;61;000.375;MIDI 01
377.893;000.145;80;000.430;MIDI 01
378.113;000.229;81;000.438;MIDI 01
378.387;000.211;83;000.406;MIDI 01
378.643;000.047;81;000.445;MIDI 01
378.802;000.034;79;000.289;MIDI 01
378.746;000.165;61;000.312;MIDI 01
378.871;000.057;78;000.469;MIDI 01
378.941;000.091;79;000.508;MIDI 01
379.014;000.120;78;000.438;MIDI 01
378.965;000.239;62;000.273;MIDI 01
379.195;000.104;76;000.438;MIDI 01
379.257;000.054;64;000.352;MIDI 01
379.316;000.052;78;000.461;MIDI 01
379.501;000.141;78;000.383;MIDI 01
378.422;001.455;54;000.172;MIDI 01
378.408;001.536;57;000.258;MIDI 01
379.666;000.308;66;000.305;MIDI 01
379.655;000.456;69;000.375;MIDI 01
380.069;000.517;74;000.359;MIDI 01
380.549;000.206;64;000.258;MIDI 01
380.543;000.231;73;000.344;MIDI 01
380.782;000.184;63;000.320;MIDI 01
381.010;000.219;68;000.312;MIDI 01
380.985;000.288;76;000.391;MIDI 01
380.545;000.930;56;000.211;MIDI 01
381.278;000.731;66;000.281;MIDI 01
381.262;001.204;75;000.297;MIDI 01
381.789;000.698;56;000.250;MIDI 01
380.774;001.732;72;000.352;MIDI 01
382.480;000.290;64;000.234;MIDI 01
382.465;000.308;73;000.289;MIDI 01
382.484;000.359;61;000.281;MIDI 01
383.506;000.061;49;000.641;MIDI 01
383.504;000.076;37;000.594;MIDI 01
383.494;000.094;61;000.633;MIDI 01
383.584;000.036;40;000.398;MIDI 01
383.566;000.176;52;000.555;MIDI 01
383.555;000.189;64;000.656;MIDI 01
383.945;000.054;47;000.680;MIDI 01
383.947;000.053;35;000.625;MIDI 01
383.977;000.029;39;000.508;MIDI 01
383.918;000.118;59;000.703;MIDI 01
384.015;000.045;40;000.406;MIDI 01
384.002;000.155;52;000.656;MIDI 01
383.991;000.174;64;000.734;MIDI 01
384.347;000.029;45;000.672;MIDI 01
384.364;000.029;33;000.539;MIDI 01
384.356;000.051;40;000.648;MIDI 01
384.317;000.116;57;000.688;MIDI 01
384.396;000.116;52;000.664;MIDI 01
384.387;000.199;64;000.688;MIDI 01
384.720;000.024;44;000.672;MIDI 01
384.720;000.035;32;000.578;MIDI 01
384.718;000.039;40;000.641;MIDI 01
384.701;000.126;56;000.719;MIDI 01
384.788;000.123;52;000.672;MIDI 01
384.779;000.157;64;000.641;MIDI 01
385.113;000.044;31;000.648;MIDI 01
385.120;000.040;40;000.680;MIDI 01
385.123;000.038;43;000.664;MIDI 01
385.102;000.161;55;000.672;MIDI 01
385.218;000.068;52;000.695;MIDI 01
385.214;000.096;64;000.711;MIDI 01
386.020;000.022;67;000.664;MIDI 01
386.020;000.035;64;000.586;MIDI 01
386.026;000.033;76;000.664;MIDI 01
386.017;000.058;61;000.602;MIDI 01
386.019;000.059;82;000.703;MIDI 01
386.022;000.057;88;000.750;MIDI 01
386.024;000.057;85;000.688;MIDI 01
386.017;000.078;55;000.625;MIDI 01
386.369;000.019;43;000.602;MIDI 01
386.378;000.019;55;000.531;MIDI 01
386.358;000.041;64;000.641;MIDI 01
386.361;000.048;70;000.602;MIDI 01
386.356;000.066;76;000.680;MIDI 01
386.330;000.094;73;000.211;MIDI 01
386.481;000.034;64;000.711;MIDI 01
386.485;000.032;56;000.742;MIDI 01
386.488;000.035;44;000.727;MIDI 01
386.472;000.055;76;000.680;MIDI 01
386.490;000.071;68;000.672;MIDI 01
386.491;000.074;73;000.594;MIDI 01
386.922;000.035;44;000.703;MIDI 01
386.929;000.032;32;000.672;MIDI 01
386.931;000.059;66;000.703;MIDI 01
386.933;000.076;72;000.555;MIDI 01
386.936;000.078;68;000.594;MIDI 01
386.934;000.101;75;000.695;MIDI 01
387.414;000.028;37;000.625;MIDI 01
387.408;000.041;49;000.703;MIDI 01
387.420;000.055;64;000.680;MIDI 01
387.416;000.126;68;000.609;MIDI 01
387.418;000.176;73;000.695;MIDI 01
387.574;000.080;49;000.023;MIDI 01
387.854;000.105;49;000.523;MIDI 01
387.927;000.115;56;000.500;MIDI 01
388.011;000.044;64;000.680;MIDI 01
387.996;000.062;73;000.633;MIDI 01
388.007;000.066;76;000.672;MIDI 01
388.014;000.088;80;000.664;MIDI 01
388.020;000.083;85;000.742;MIDI 01
388.956;000.398;68;000.586;MIDI 01
389.365;000.032;25;000.641;MIDI 01
389.367;000.032;37;000.664;MIDI 01
389.726;000.026;66;000.477;MIDI 01
389.708;000.058;56;000.531;MIDI 01
389.746;000.036;60;000.352;MIDI 01
389.849;000.032;66;000.547;MIDI 01
389.856;000.027;56;000.445;MIDI 01
389.872;000.079;60;000.391;MIDI 01
389.948;000.043;66;000.570;MIDI 01
389.973;000.028;60;000.398;MIDI 01
389.968;000.035;56;000.523;MIDI 01
389.363;000.850;75;000.672;MIDI 01
390.272;000.034;66;000.477;MIDI 01
390.292;000.047;60;000.281;MIDI 01
390.283;000.059;56;000.477;MIDI 01
390.274;000.110;73;000.562;MIDI 01
390.384;000.161;75;000.602;MIDI 01
390.526;000.061;49;000.586;MIDI 01
390.530;000.219;77;000.578;MIDI 01
390.828;000.066;65;000.422;MIDI 01
390.825;000.077;56;000.438;MIDI 01
390.812;000.092;75;000.562;MIDI 01
390.848;000.066;61;000.336;MIDI 01
390.873;000.128;59;000.219;MIDI 01
390.913;000.169;77;000.570;MIDI 01
391.076;000.066;56;000.383;MIDI 01
391.093;000.051;55;000.336;MIDI 01
391.036;000.234;78;000.602;MIDI 01
391.303;000.052;66;000.547;MIDI 01
391.339;000.066;57;000.367;MIDI 01
391.326;000.083;61;000.469;MIDI 01
391.310;000.103;77;000.547;MIDI 01
391.409;000.156;78;000.625;MIDI 01
391.564;000.085;53;000.562;MIDI 01
391.541;000.260;80;000.602;MIDI 01
391.816;000.036;68;000.484;MIDI 01
391.831;000.054;61;000.430;MIDI 01
391.852;000.050;59;000.297;MIDI 01
391.824;000.126;78;000.523;MIDI 01
391.945;000.151;80;000.586;MIDI 01
392.097;000.240;54;000.430;MIDI 01
392.107;000.270;81;000.523;MIDI 01
392.401;000.037;66;000.367;MIDI 01
392.427;000.036;61;000.320;MIDI 01
392.423;000.067;57;000.359;MIDI 01
392.439;000.220;69;000.523;MIDI 01
392.818;000.261;44;000.391;MIDI 01
392.798;000.524;68;000.500;MIDI 01
393.374;000.144;60;000.289;MIDI 01
393.546;000.118;70;000.469;MIDI 01
393.758;000.097;72;000.523;MIDI 01
393.645;000.228;56;000.375;MIDI 01
393.146;000.740;51;000.383;MIDI 01
393.925;000.122;73;000.531;MIDI 01
393.913;000.271;61;000.453;MIDI 01
394.103;000.094;75;000.555;MIDI 01
394.183;000.064;55;000.438;MIDI 01
393.906;000.344;52;000.391;MIDI 01
394.293;000.184;76;000.609;MIDI 01
394.559;000.236;44;000.398;MIDI 01
394.859;000.180;51;000.414;MIDI 01
395.121;000.140;60;000.375;MIDI 01
395.360;000.218;56;000.422;MIDI 01
395.721;000.056;68;000.445;MIDI 01
394.564;001.278;75;000.477;MIDI 01
396.496;000.089;32;000.250;MIDI 01
396.456;000.170;75;000.336;MIDI 01
396.490;000.145;44;000.242;MIDI 01
396.743;000.058;75;000.375;MIDI 01
396.874;000.176;56;000.352;MIDI 01
396.946;000.110;75;000.461;MIDI 01
397.152;000.067;66;000.383;MIDI 01
397.189;000.066;60;000.305;MIDI 01
397.172;000.084;75;000.477;MIDI 01
397.497;000.042;73;000.328;MIDI 01
397.467;000.156;56;000.305;MIDI 01
397.605;000.127;75;000.359;MIDI 01
397.674;000.072;49;000.430;MIDI 01
397.776;000.081;59;000.367;MIDI 01
397.762;000.151;77;000.422;MIDI 01
397.891;000.064;65;000.398;MIDI 01
398.061;000.078;75;000.406;MIDI 01
398.130;000.092;61;000.406;MIDI 01
398.178;000.152;77;000.477;MIDI 01
398.297;000.159;66;000.445;MIDI 01
398.291;000.172;78;000.562;MIDI 01
398.307;000.228;54;000.289;MIDI 01
398.330;000.211;57;000.406;MIDI 01
398.567;000.068;77;000.430;MIDI 01
398.677;000.101;53;000.500;MIDI 01
398.583;000.197;61;000.422;MIDI 01
398.660;000.167;78;000.461;MIDI 01
398.904;000.061;68;000.484;MIDI 01
398.795;000.192;80;000.562;MIDI 01
398.783;000.254;59;000.461;MIDI 01
399.099;000.120;78;000.516;MIDI 01
399.277;000.143;80;000.469;MIDI 01
399.324;000.098;54;000.430;MIDI 01
399.177;000.288;61;000.383;MIDI 01
399.557;000.150;69;000.438;MIDI 01
399.470;000.240;81;000.461;MIDI 01
399.931;000.047;61;000.383;MIDI 01
399.902;000.156;80;000.461;MIDI 01
400.087;000.211;81;000.516;MIDI 01
400.329;000.217;83;000.461;MIDI 01
400.594;000.034;81;000.375;MIDI 01
400.723;000.031;79;000.336;MIDI 01
400.671;000.130;61;000.336;MIDI 01
400.816;000.055;78;000.414;MIDI 01
400.871;000.091;79;000.484;MIDI 01
400.966;000.111;78;000.523;MIDI 01
400.883;000.277;62;000.297;MIDI 01
401.137;000.096;76;000.461;MIDI 01
401.201;000.046;64;000.289;MIDI 01
401.265;000.048;78;000.484;MIDI 01
401.457;000.146;78;000.406;MIDI 01
400.358;001.465;54;000.172;MIDI 01
400.344;001.540;57;000.305;MIDI 01
401.603;000.338;66;000.289;MIDI 01
401.586;000.408;69;000.383;MIDI 01
401.964;000.480;74;000.406;MIDI 01
402.444;000.197;64;000.258;MIDI 01
402.421;000.243;73;000.352;MIDI 01
402.685;000.179;63;000.328;MIDI 01
402.902;000.240;68;000.312;MIDI 01
402.895;000.278;76;000.344;MIDI 01
402.440;001.033;56;000.242;MIDI 01
403.226;000.559;66;000.234;MIDI 01
403.198;001.216;75;000.250;MIDI 01
402.683;001.738;72;000.344;MIDI 01
403.735;000.733;56;000.242;MIDI 01
404.396;000.281;64;000.148;MIDI 01
404.377;000.323;73;000.281;MIDI 01
404.404;000.357;61;000.195;MIDI 01
405.580;000.110;32;000.156;MIDI 01
406.074;000.440;44;000.211;MIDI 01
406.093;000.423;51;000.250;MIDI 01
406.090;000.464;56;000.250;MIDI 01
406.071;000.512;60;000.320;MIDI 01
406.870;000.141;51;000.188;MIDI 01
406.868;000.172;44;000.180;MIDI 01
406.866;000.176;56;000.273;MIDI 01
406.861;000.213;60;000.211;MIDI 01
407.211;000.064;60;000.344;MIDI 01
407.234;000.054;56;000.281;MIDI 01
407.232;000.066;44;000.305;MIDI 01
407.226;000.078;51;000.258;MIDI 01
407.454;000.049;60;000.344;MIDI 01
407.459;000.049;56;000.336;MIDI 01
407.485;000.050;51;000.320;MIDI 01
407.502;000.062;44;000.188;MIDI 01
407.688;000.123;55;000.359;MIDI 01
407.756;000.070;52;000.227;MIDI 01
407.849;000.054;58;000.391;MIDI 01
407.746;000.172;44;000.297;MIDI 01
407.930;000.026;61;000.492;MIDI 01
408.045;000.053;64;000.461;MIDI 01
408.132;000.042;67;000.477;MIDI 01
408.172;000.104;70;000.445;MIDI 01
408.256;000.048;73;000.375;MIDI 01
408.281;000.052;32;000.344;MIDI 01
408.317;000.022;76;000.484;MIDI 01
408.729;000.902;67;000.422;MIDI 01
408.741;001.003;52;000.297;MIDI 01
408.734;001.023;61;000.430;MIDI 01
409.725;000.261;60;000.227;MIDI 01
409.679;000.342;68;000.328;MIDI 01
409.734;000.298;51;000.211;MIDI 01
408.749;001.351;44;000.234;MIDI 01
410.408;000.083;32;000.391;MIDI 01
410.909;000.211;44;000.273;MIDI 01
410.889;000.242;56;000.312;MIDI 01
410.907;000.227;51;000.289;MIDI 01
410.843;000.323;60;000.406;MIDI 01
411.557;000.085;44;000.211;MIDI 01
411.555;000.094;51;000.289;MIDI 01
411.623;000.056;56;000.172;MIDI 01
411.539;000.193;60;000.398;MIDI 01
411.843;000.054;44;000.352;MIDI 01
411.848;000.051;51;000.398;MIDI 01
411.852;000.061;56;000.367;MIDI 01
411.850;000.102;60;000.461;MIDI 01
412.069;000.054;51;000.391;MIDI 01
412.099;000.032;56;000.367;MIDI 01
412.074;000.062;60;000.484;MIDI 01
412.079;000.073;44;000.352;MIDI 01
412.288;000.077;57;000.469;MIDI 01
412.292;000.132;54;000.461;MIDI 01
412.398;000.059;60;000.484;MIDI 01
412.332;000.173;44;000.234;MIDI 01
412.474;000.033;63;000.430;MIDI 01
412.521;000.031;66;000.453;MIDI 01
412.623;000.022;69;000.500;MIDI 01
412.702;000.060;72;000.469;MIDI 01
412.761;000.041;32;000.391;MIDI 01
412.744;000.077;75;000.516;MIDI 01
412.790;000.053;78;000.469;MIDI 01
412.839;000.031;81;000.586;MIDI 01
413.226;000.905;69;000.609;MIDI 01
413.232;000.942;60;000.531;MIDI 01
413.234;000.958;54;000.461;MIDI 01
414.171;000.234;68;000.406;MIDI 01
414.174;000.248;61;000.336;MIDI 01
414.220;000.215;52;000.281;MIDI 01
413.243;001.223;44;000.422;MIDI 01
414.732;000.111;32;000.562;MIDI 01
415.159;000.325;56;000.547;MIDI 01
415.170;000.352;52;000.406;MIDI 01
415.157;000.387;44;000.383;MIDI 01
415.150;000.467;61;000.672;MIDI 01
415.886;000.134;56;000.375;MIDI 01
415.863;000.193;44;000.188;MIDI 01
415.878;000.201;52;000.344;MIDI 01
415.845;000.236;61;000.500;MIDI 01
416.188;000.069;52;000.484;MIDI 01
416.183;000.096;56;000.461;MIDI 01
416.161;000.159;61;000.555;MIDI 01
416.175;000.151;44;000.516;MIDI 01
416.424;000.150;52;000.539;MIDI 01
416.426;000.178;44;000.492;MIDI 01
416.434;000.186;61;000.461;MIDI 01
416.402;000.244;56;000.586;MIDI 01
416.682;000.039;52;000.594;MIDI 01
416.611;000.142;58;000.523;MIDI 01
416.684;000.084;44;000.492;MIDI 01
416.767;000.045;61;000.539;MIDI 01
416.880;000.091;64;000.523;MIDI 01
416.973;000.080;67;000.625;MIDI 01
417.052;000.039;70;000.453;MIDI 01
417.108;000.023;73;000.570;MIDI 01
417.077;000.081;32;000.469;MIDI 01
417.197;000.064;76;000.672;MIDI 01
417.291;000.052;79;000.508;MIDI 01
417.314;000.074;82;000.578;MIDI 01
417.374;000.035;85;000.562;MIDI 01
417.397;000.050;88;000.703;MIDI 01
417.742;000.200;61;000.500;MIDI 01
417.765;000.235;58;000.438;MIDI 01
417.740;000.305;52;000.594;MIDI 01
417.753;000.365;67;000.578;MIDI 01
417.736;000.441;44;000.578;MIDI 01
418.189;000.039;60;000.586;MIDI 01
418.191;000.042;51;000.555;MIDI 01
418.189;000.064;68;000.570;MIDI 01
418.214;000.061;56;000.508;MIDI 01
418.399;000.036;52;000.609;MIDI 01
418.368;000.096;58;000.602;MIDI 01
418.397;000.081;44;000.609;MIDI 01
418.476;000.034;61;000.547;MIDI 01
418.611;000.054;64;000.492;MIDI 01
418.701;000.036;32;000.695;MIDI 01
418.676;000.082;67;000.625;MIDI 01
418.733;000.075;70;000.586;MIDI 01
418.798;000.035;73;000.602;MIDI 01
418.907;000.077;76;000.641;MIDI 01
418.979;000.091;79;000.656;MIDI 01
419.019;000.087;82;000.578;MIDI 01
419.078;000.070;85;000.633;MIDI 01
419.117;000.041;88;000.734;MIDI 01
419.506;000.271;61;000.633;MIDI 01
419.521;000.320;58;000.578;MIDI 01
419.514;000.605;67;000.633;MIDI 01
419.511;000.706;52;000.664;MIDI 01
420.209;000.034;56;000.547;MIDI 01
420.194;000.072;60;000.594;MIDI 01
420.207;000.118;68;000.641;MIDI 01
420.211;000.276;51;000.672;MIDI 01
419.510;001.039;44;000.625;MIDI 01
420.895;000.034;27;000.648;MIDI 01
420.890;000.042;39;000.648;MIDI 01
421.279;000.016;61;000.555;MIDI 01
421.288;000.016;58;000.602;MIDI 01
421.285;000.033;51;000.508;MIDI 01
421.281;000.040;67;000.586;MIDI 01
421.386;000.035;61;000.594;MIDI 01
421.400;000.039;51;000.602;MIDI 01
421.398;000.048;58;000.570;MIDI 01
421.384;000.064;67;000.672;MIDI 01
421.505;000.033;51;000.586;MIDI 01
421.503;000.037;58;000.609;MIDI 01
421.503;000.041;61;000.531;MIDI 01
421.507;000.076;67;000.531;MIDI 01
421.904;000.046;51;000.516;MIDI 01
421.915;000.038;58;000.500;MIDI 01
421.917;000.089;61;000.531;MIDI 01
421.899;000.168;67;000.602;MIDI 01
422.301;000.044;61;000.445;MIDI 01
422.314;000.046;58;000.406;MIDI 01
422.316;000.046;51;000.391;MIDI 01
422.290;000.105;67;000.547;MIDI 01
422.278;000.346;72;000.641;MIDI 01
422.750;000.041;58;000.336;MIDI 01
422.746;000.068;61;000.477;MIDI 01
422.750;000.069;51;000.312;MIDI 01
422.718;000.268;67;000.555;MIDI 01
422.727;000.481;70;000.531;MIDI 01
423.212;000.145;44;000.438;MIDI 01
420.884;002.642;75;000.734;MIDI 01
423.343;000.191;68;000.445;MIDI 01
423.327;000.398;51;000.438;MIDI 01
423.482;000.258;60;000.453;MIDI 01
424.171;000.418;75;000.508;MIDI 01
425.001;000.425;75;000.445;MIDI 01
425.955;000.188;75;000.367;MIDI 01
426.597;000.233;35;000.266;MIDI 01
427.637;000.146;63;000.109;MIDI 01
426.670;001.161;75;000.414;MIDI 01
427.633;000.276;69;000.273;MIDI 01
427.951;000.320;59;000.266;MIDI 01
427.584;000.690;81;000.469;MIDI 01
428.223;000.283;80;000.477;MIDI 01
428.235;000.305;69;000.289;MIDI 01
428.261;000.287;64;000.242;MIDI 01
428.571;000.118;81;000.445;MIDI 01
428.689;000.177;80;000.453;MIDI 01
428.557;000.399;59;000.312;MIDI 01
429.188;000.059;59;000.266;MIDI 01
428.852;000.589;78;000.398;MIDI 01
429.491;000.057;59;000.281;MIDI 01
428.892;000.871;66;000.195;MIDI 01
428.898;000.897;69;000.242;MIDI 01
429.479;000.594;75;000.398;MIDI 01
429.745;000.344;59;000.242;MIDI 01
430.044;000.324;73;000.383;MIDI 01
430.073;000.336;69;000.164;MIDI 01
430.079;000.339;64;000.234;MIDI 01
430.422;000.134;75;000.320;MIDI 01
430.551;000.169;73;000.414;MIDI 01
430.404;000.340;59;000.273;MIDI 01
431.069;000.041;59;000.344;MIDI 01
430.736;000.648;71;000.359;MIDI 01
431.332;000.054;59;000.328;MIDI 01
430.777;000.825;69;000.234;MIDI 01
430.765;001.012;63;000.250;MIDI 01
431.321;000.493;81;000.484;MIDI 01
431.576;000.254;59;000.352;MIDI 01
431.818;000.292;80;000.508;MIDI 01
431.834;000.298;69;000.312;MIDI 01
431.842;000.296;64;000.328;MIDI 01
432.131;000.145;81;000.453;MIDI 01
432.262;000.212;80;000.555;MIDI 01
432.137;000.354;59;000.375;MIDI 01
432.802;000.039;59;000.297;MIDI 01
432.466;000.519;78;000.500;MIDI 01
433.070;000.060;59;000.273;MIDI 01
432.483;000.846;66;000.273;MIDI 01
432.474;000.892;69;000.273;MIDI 01
433.011;000.541;75;000.477;MIDI 01
433.292;000.379;59;000.344;MIDI 01
433.571;000.214;73;000.445;MIDI 01
433.778;000.135;75;000.500;MIDI 01
433.920;000.090;73;000.516;MIDI 01
433.613;000.457;64;000.297;MIDI 01
433.577;000.526;69;000.250;MIDI 01
434.053;000.096;72;000.477;MIDI 01
434.169;000.106;73;000.484;MIDI 01
434.274;000.135;75;000.492;MIDI 01
434.413;000.147;76;000.445;MIDI 01
434.009;000.600;59;000.281;MIDI 01
434.608;000.301;71;000.352;MIDI 01
435.132;000.074;59;000.336;MIDI 01
435.573;000.054;59;000.289;MIDI 01
434.620;001.321;69;000.211;MIDI 01
434.622;001.433;63;000.242;MIDI 01
435.882;000.260;59;000.383;MIDI 01
435.570;000.590;57;000.508;MIDI 01
436.135;000.301;56;000.516;MIDI 01
436.152;000.301;69;000.305;MIDI 01
436.158;000.309;64;000.352;MIDI 01
436.448;000.136;57;000.484;MIDI 01
436.467;000.259;59;000.391;MIDI 01
436.585;000.158;56;000.500;MIDI 01
437.051;000.050;59;000.352;MIDI 01
436.770;000.599;54;000.445;MIDI 01
437.356;000.059;59;000.320;MIDI 01
436.782;000.929;66;000.312;MIDI 01
436.776;000.946;69;000.320;MIDI 01
437.351;000.637;51;000.398;MIDI 01
437.663;000.328;59;000.297;MIDI 01
437.961;000.352;49;000.336;MIDI 01
438.004;000.347;64;000.250;MIDI 01
437.969;000.393;69;000.141;MIDI 01
438.320;000.120;59;000.297;MIDI 01
438.316;000.147;51;000.352;MIDI 01
438.468;000.285;49;000.422;MIDI 01
438.738;000.307;63;000.242;MIDI 01
439.085;000.238;66;000.320;MIDI 01
439.359;000.253;63;000.344;MIDI 01
439.643;000.305;66;000.344;MIDI 01
438.729;001.477;47;000.305;MIDI 01
439.941;000.293;63;000.273;MIDI 01
438.743;001.579;69;000.242;MIDI 01
440.246;000.139;66;000.289;MIDI 01
440.543;000.147;47;000.289;MIDI 01
440.715;000.085;48;000.336;MIDI 01
440.851;000.050;49;000.367;MIDI 01
440.554;000.349;63;000.297;MIDI 01
440.538;000.428;69;000.258;MIDI 01
440.947;000.050;48;000.391;MIDI 01
441.021;000.041;49;000.484;MIDI 01
440.913;000.239;66;000.352;MIDI 01
441.120;000.049;48;000.398;MIDI 01
441.181;000.048;49;000.539;MIDI 01
441.299;000.045;48;000.281;MIDI 01
441.191;000.195;63;000.391;MIDI 01
441.344;000.044;49;000.508;MIDI 01
441.417;000.053;48;000.484;MIDI 01
441.480;000.037;49;000.516;MIDI 01
441.544;000.047;48;000.484;MIDI 01
441.417;000.215;66;000.484;MIDI 01
441.619;000.023;49;000.445;MIDI 01
441.653;000.055;48;000.547;MIDI 01
441.743;000.108;49;000.359;MIDI 01
441.834;000.046;47;000.219;MIDI 01
441.676;000.211;63;000.438;MIDI 01
441.679;000.216;68;000.422;MIDI 01
441.810;000.125;48;000.375;MIDI 01
441.952;000.109;46;000.477;MIDI 01
441.911;000.386;66;000.445;MIDI 01
442.081;000.246;48;000.625;MIDI 01
442.327;000.217;49;000.547;MIDI 01
442.777;000.172;68;000.555;MIDI 01
442.335;000.748;64;000.500;MIDI 01
443.108;000.279;75;000.586;MIDI 01
443.095;000.355;60;000.508;MIDI 01
443.411;000.089;73;000.547;MIDI 01
443.426;000.199;66;000.445;MIDI 01
443.436;000.212;68;000.406;MIDI 01
443.531;000.140;75;000.594;MIDI 01
443.647;000.201;76;000.602;MIDI 01
443.649;000.262;61;000.570;MIDI 01
443.899;000.087;75;000.625;MIDI 01
443.930;000.060;68;000.547;MIDI 01
443.928;000.135;64;000.492;MIDI 01
444.015;000.142;76;000.625;MIDI 01
444.147;000.188;78;000.609;MIDI 01
444.130;000.235;57;000.547;MIDI 01
444.400;000.050;66;000.562;MIDI 01
444.396;000.129;76;000.625;MIDI 01
444.394;000.229;61;000.523;MIDI 01
444.499;000.166;78;000.594;MIDI 01
444.639;000.292;80;000.648;MIDI 01
444.629;000.315;56;000.578;MIDI 01
444.942;000.091;64;000.492;MIDI 01
444.944;000.169;78;000.602;MIDI 01
444.946;000.335;61;000.438;MIDI 01
445.071;000.242;80;000.656;MIDI 01
445.282;000.365;81;000.617;MIDI 01
445.615;000.043;63;000.422;MIDI 01
445.617;000.050;61;000.391;MIDI 01
445.270;000.434;54;000.430;MIDI 01
445.627;000.472;69;000.641;MIDI 01
446.078;000.373;44;000.438;MIDI 01
446.057;000.580;68;000.570;MIDI 01
446.721;000.268;60;000.430;MIDI 01
446.877;000.130;70;000.508;MIDI 01
447.087;000.094;72;000.562;MIDI 01
447.007;000.210;56;000.422;MIDI 01
446.464;000.770;51;000.438;MIDI 01
447.262;000.135;73;000.570;MIDI 01
447.430;000.094;75;000.578;MIDI 01
447.256;000.335;61;000.492;MIDI 01
447.260;000.354;52;000.438;MIDI 01
447.541;000.091;55;000.453;MIDI 01
447.615;000.160;76;000.609;MIDI 01
447.882;000.269;44;000.438;MIDI 01
448.178;000.200;51;000.445;MIDI 01
448.413;000.203;60;000.453;MIDI 01
448.646;000.338;56;000.523;MIDI 01
449.026;000.092;68;000.492;MIDI 01
447.890;001.297;75;000.508;MIDI 01
449.816;000.117;32;000.297;MIDI 01
449.812;000.175;44;000.234;MIDI 01
449.810;000.180;75;000.359;MIDI 01
450.125;000.078;75;000.406;MIDI 01
450.321;000.067;75;000.453;MIDI 01
450.228;000.278;56;000.422;MIDI 01
450.516;000.052;75;000.477;MIDI 01
450.506;000.071;66;000.383;MIDI 01
450.536;000.070;60;000.305;MIDI 01
450.826;000.064;73;000.398;MIDI 01
450.841;000.131;56;000.352;MIDI 01
451.005;000.099;49;000.430;MIDI 01
450.986;000.125;75;000.367;MIDI 01
451.132;000.123;59;000.508;MIDI 01
451.150;000.142;77;000.453;MIDI 01
451.251;000.091;65;000.406;MIDI 01
451.495;000.091;75;000.469;MIDI 01
451.518;000.115;61;000.406;MIDI 01
451.630;000.164;77;000.523;MIDI 01
451.753;000.181;78;000.562;MIDI 01
451.762;000.217;66;000.414;MIDI 01
451.774;000.261;57;000.352;MIDI 01
451.772;000.275;54;000.344;MIDI 01
452.035;000.090;77;000.492;MIDI 01
452.033;000.190;61;000.453;MIDI 01
452.164;000.142;78;000.492;MIDI 01
452.215;000.105;53;000.445;MIDI 01
452.449;000.078;68;000.453;MIDI 01
452.327;000.248;80;000.484;MIDI 01
452.337;000.255;59;000.422;MIDI 01
452.733;000.079;78;000.477;MIDI 01
452.804;000.055;61;000.312;MIDI 01
452.887;000.252;80;000.469;MIDI 01
453.109;000.086;54;000.398;MIDI 01
453.148;000.158;57;000.359;MIDI 01
453.206;000.315;81;000.391;MIDI 01
453.345;000.179;69;000.414;MIDI 01
453.775;000.086;61;000.359;MIDI 01
453.799;000.182;80;000.398;MIDI 01
454.030;000.231;81;000.438;MIDI 01
454.353;000.282;83;000.422;MIDI 01
454.652;000.081;81;000.430;MIDI 01
454.756;000.231;61;000.359;MIDI 01
454.869;000.180;79;000.391;MIDI 01
455.049;000.062;78;000.414;MIDI 01
455.190;000.044;79;000.445;MIDI 01
455.244;000.118;78;000.484;MIDI 01
455.059;000.339;62;000.312;MIDI 01
455.429;000.136;64;000.375;MIDI 01
455.402;000.172;76;000.438;MIDI 01
455.616;000.043;78;000.453;MIDI 01
455.837;000.161;78;000.297;MIDI 01
454.386;001.929;54;000.219;MIDI 01
455.977;000.504;69;000.367;MIDI 01
455.995;000.498;66;000.258;MIDI 01
454.372;002.184;57;000.273;MIDI 01
456.479;000.131;74;000.391;MIDI 01
457.111;000.283;64;000.242;MIDI 01
457.089;000.345;73;000.344;MIDI 01
457.432;000.235;63;000.211;MIDI 01
457.650;000.318;76;000.367;MIDI 01
457.690;000.280;68;000.289;MIDI 01
457.116;001.241;56;000.250;MIDI 01
458.008;000.750;66;000.273;MIDI 01
457.413;002.308;72;000.344;MIDI 01
457.996;001.826;75;000.312;MIDI 01
458.666;001.163;56;000.250;MIDI 01
459.728;000.653;73;000.211;MIDI 01
459.706;000.747;64;000.203;MIDI 01
459.721;000.814;61;000.203;MIDI 01
