Start;Duration;Pitch;Velocity;Instrument
001.045;000.163;56;000.195;MIDI 01
001.060;000.173;60;000.172;MIDI 01
001.092;000.145;51;000.156;MIDI 01
001.062;000.205;63;000.117;MIDI 01
001.516;000.070;60;000.211;MIDI 01
001.526;000.086;51;000.109;MIDI 01
001.495;000.155;56;000.203;MIDI 01
001.483;000.183;63;000.203;MIDI 01
001.853;000.071;60;000.219;MIDI 01
001.855;000.079;63;000.234;MIDI 01
001.860;000.076;56;000.289;MIDI 01
001.857;000.096;51;000.195;MIDI 01
002.168;000.080;60;000.297;MIDI 01
002.182;000.090;56;000.242;MIDI 01
002.180;000.094;51;000.227;MIDI 01
002.170;000.115;63;000.203;MIDI 01
002.453;000.085;60;000.344;MIDI 01
002.485;000.062;63;000.250;MIDI 01
002.490;000.074;56;000.312;MIDI 01
002.494;000.075;51;000.219;MIDI 01
002.719;000.077;60;000.398;MIDI 01
002.724;000.074;63;000.336;MIDI 01
002.736;000.071;56;000.359;MIDI 01
002.739;000.092;51;000.250;MIDI 01
002.989;000.088;60;000.406;MIDI 01
002.997;000.084;63;000.320;MIDI 01
002.995;000.093;56;000.289;MIDI 01
002.999;000.108;51;000.242;MIDI 01
003.254;000.076;60;000.453;MIDI 01
003.275;000.062;63;000.344;MIDI 01
003.286;000.067;56;000.383;MIDI 01
003.278;000.090;51;000.273;MIDI 01
003.504;000.090;60;000.453;MIDI 01
003.524;000.090;63;000.375;MIDI 01
003.553;000.072;56;000.352;MIDI 01
003.545;000.093;51;000.266;MIDI 01
003.816;000.059;51;000.289;MIDI 01
003.785;000.103;60;000.453;MIDI 01
003.806;000.095;63;000.344;MIDI 01
003.819;000.085;56;000.328;MIDI 01
004.093;000.075;63;000.289;MIDI 01
004.076;000.095;60;000.391;MIDI 01
004.108;000.070;56;000.273;MIDI 01
004.126;000.076;51;000.062;MIDI 01
004.454;000.064;51;000.156;MIDI 01
004.436;000.099;60;000.297;MIDI 01
004.886;000.245;39;000.359;MIDI 01
004.886;000.316;61;000.398;MIDI 01
005.353;000.176;61;000.305;MIDI 01
005.371;000.294;67;000.398;MIDI 01
005.722;000.046;63;000.250;MIDI 01
005.669;000.133;51;000.062;MIDI 01
005.440;000.371;58;000.242;MIDI 01
005.692;000.176;61;000.328;MIDI 01
005.656;000.227;72;000.500;MIDI 01
005.925;000.054;63;000.391;MIDI 01
005.949;000.069;51;000.234;MIDI 01
005.970;000.050;58;000.297;MIDI 01
005.914;000.192;73;000.500;MIDI 01
006.153;000.097;58;000.383;MIDI 01
006.197;000.056;51;000.258;MIDI 01
005.894;000.411;61;000.195;MIDI 01
006.157;000.205;65;000.508;MIDI 01
006.389;000.061;51;000.445;MIDI 01
006.391;000.134;67;000.531;MIDI 01
006.701;000.175;44;000.406;MIDI 01
007.055;000.071;66;000.352;MIDI 01
007.084;000.053;60;000.180;MIDI 01
007.068;000.076;63;000.328;MIDI 01
007.107;000.058;56;000.297;MIDI 01
007.102;000.076;51;000.211;MIDI 01
006.688;000.614;70;000.500;MIDI 01
007.301;000.080;60;000.305;MIDI 01
007.333;000.061;63;000.281;MIDI 01
007.323;000.078;56;000.352;MIDI 01
007.292;000.125;66;000.414;MIDI 01
007.545;000.065;63;000.398;MIDI 01
007.570;000.048;60;000.219;MIDI 01
007.564;000.056;56;000.320;MIDI 01
007.779;000.054;63;000.383;MIDI 01
007.782;000.069;66;000.430;MIDI 01
007.799;000.056;56;000.312;MIDI 01
007.801;000.056;60;000.164;MIDI 01
008.030;000.115;60;000.297;MIDI 01
008.028;000.181;66;000.414;MIDI 01
008.033;000.256;56;000.352;MIDI 01
008.190;000.174;60;000.203;MIDI 01
007.529;000.896;68;000.508;MIDI 01
008.339;000.180;49;000.461;MIDI 01
008.680;000.081;68;000.281;MIDI 01
008.694;000.080;61;000.375;MIDI 01
008.700;000.076;65;000.234;MIDI 01
008.746;000.074;56;000.062;MIDI 01
008.956;000.046;65;000.242;MIDI 01
008.908;000.096;68;000.328;MIDI 01
008.936;000.078;61;000.336;MIDI 01
008.976;000.064;56;000.141;MIDI 01
008.894;000.241;79;000.516;MIDI 01
009.150;000.074;65;000.383;MIDI 01
009.176;000.064;61;000.336;MIDI 01
009.133;000.120;82;000.602;MIDI 01
009.199;000.066;56;000.289;MIDI 01
008.636;000.778;73;000.477;MIDI 01
009.420;000.061;61;000.250;MIDI 01
009.415;000.069;65;000.344;MIDI 01
009.382;000.112;68;000.383;MIDI 01
009.419;000.078;56;000.352;MIDI 01
009.374;000.204;80;000.523;MIDI 01
009.665;000.026;56;000.070;MIDI 01
009.609;000.088;68;000.289;MIDI 01
009.611;000.098;77;000.555;MIDI 01
009.622;000.266;61;000.430;MIDI 01
009.880;000.162;51;000.477;MIDI 01
010.133;000.059;70;000.375;MIDI 01
010.143;000.071;61;000.312;MIDI 01
010.175;000.039;67;000.273;MIDI 01
010.127;000.089;63;000.328;MIDI 01
010.173;000.058;58;000.195;MIDI 01
009.858;000.554;75;000.570;MIDI 01
010.376;000.048;61;000.297;MIDI 01
010.411;000.046;58;000.250;MIDI 01
010.340;000.124;70;000.469;MIDI 01
010.584;000.131;49;000.453;MIDI 01
010.861;000.064;65;000.344;MIDI 01
010.856;000.079;73;000.398;MIDI 01
010.899;000.073;68;000.391;MIDI 01
010.923;000.234;56;000.219;MIDI 01
011.127;000.269;65;000.312;MIDI 01
011.154;000.244;61;000.391;MIDI 01
011.122;000.336;73;000.367;MIDI 01
011.407;000.172;51;000.445;MIDI 01
010.575;001.077;77;000.508;MIDI 01
011.719;000.122;58;000.266;MIDI 01
011.699;000.232;61;000.367;MIDI 01
011.684;000.324;70;000.477;MIDI 01
011.949;000.080;63;000.391;MIDI 01
011.959;000.086;67;000.328;MIDI 01
011.995;000.090;58;000.211;MIDI 01
011.946;000.167;75;000.500;MIDI 01
011.947;000.200;61;000.266;MIDI 01
012.278;000.114;67;000.344;MIDI 01
012.291;000.146;61;000.375;MIDI 01
012.295;000.225;58;000.281;MIDI 01
012.253;000.337;79;000.523;MIDI 01
012.566;000.064;61;000.289;MIDI 01
012.577;000.077;67;000.359;MIDI 01
012.514;000.236;77;000.547;MIDI 01
012.779;000.045;70;000.367;MIDI 01
012.748;000.088;73;000.547;MIDI 01
012.775;000.268;61;000.461;MIDI 01
012.554;000.491;58;000.156;MIDI 01
013.308;000.061;60;000.336;MIDI 01
013.315;000.071;63;000.273;MIDI 01
013.332;000.074;65;000.102;MIDI 01
013.306;000.102;69;000.375;MIDI 01
013.043;000.523;72;000.516;MIDI 01
013.529;000.039;60;000.359;MIDI 01
013.033;000.561;53;000.406;MIDI 01
013.560;000.057;69;000.438;MIDI 01
013.805;000.114;46;000.398;MIDI 01
014.101;000.050;65;000.312;MIDI 01
014.107;000.046;61;000.328;MIDI 01
014.105;000.056;68;000.383;MIDI 01
014.102;000.074;58;000.383;MIDI 01
014.151;000.124;53;000.094;MIDI 01
014.378;000.264;68;000.383;MIDI 01
014.393;000.366;58;000.398;MIDI 01
014.392;000.409;61;000.273;MIDI 01
014.678;000.195;51;000.516;MIDI 01
014.975;000.044;65;000.320;MIDI 01
013.791;001.278;73;000.492;MIDI 01
014.973;000.111;61;000.469;MIDI 01
014.981;000.138;58;000.391;MIDI 01
015.243;000.022;63;000.422;MIDI 01
014.983;000.297;68;000.453;MIDI 01
015.248;000.057;58;000.430;MIDI 01
015.265;000.177;61;000.414;MIDI 01
015.233;000.381;70;000.555;MIDI 01
015.491;000.149;44;000.492;MIDI 01
015.484;000.199;61;000.094;MIDI 01
015.499;000.199;73;000.594;MIDI 01
015.804;000.078;63;000.430;MIDI 01
015.833;000.056;56;000.359;MIDI 01
015.784;000.109;60;000.445;MIDI 01
015.848;000.070;51;000.133;MIDI 01
015.761;000.240;72;000.594;MIDI 01
016.042;000.045;56;000.375;MIDI 01
016.051;000.060;51;000.453;MIDI 01
016.055;000.089;60;000.336;MIDI 01
016.064;000.365;65;000.375;MIDI 01
016.039;000.439;68;000.578;MIDI 01
016.428;000.235;39;000.477;MIDI 01
016.906;000.057;58;000.328;MIDI 01
016.897;000.073;67;000.359;MIDI 01
016.931;000.055;51;000.164;MIDI 01
016.932;000.059;63;000.070;MIDI 01
017.165;000.065;63;000.289;MIDI 01
017.163;000.069;67;000.328;MIDI 01
017.178;000.060;58;000.320;MIDI 01
017.152;000.089;51;000.344;MIDI 01
017.419;000.074;63;000.250;MIDI 01
017.417;000.078;67;000.328;MIDI 01
017.415;000.082;58;000.289;MIDI 01
017.458;000.054;51;000.172;MIDI 01
017.690;000.051;58;000.305;MIDI 01
017.680;000.062;63;000.281;MIDI 01
017.678;000.069;67;000.320;MIDI 01
017.697;000.061;51;000.219;MIDI 01
018.001;000.044;51;000.352;MIDI 01
018.005;000.460;67;000.336;MIDI 01
018.012;000.511;58;000.305;MIDI 01
016.444;002.196;70;000.531;MIDI 01
018.379;000.274;39;000.609;MIDI 01
018.904;000.132;61;000.391;MIDI 01
018.938;000.158;58;000.375;MIDI 01
018.924;000.177;51;000.359;MIDI 01
018.887;000.310;67;000.438;MIDI 01
018.864;000.409;70;000.500;MIDI 01
019.211;000.079;51;000.297;MIDI 01
019.207;000.145;58;000.328;MIDI 01
019.214;000.146;63;000.461;MIDI 01
019.209;000.159;61;000.523;MIDI 01
019.176;000.242;72;000.609;MIDI 01
019.446;000.094;63;000.414;MIDI 01
019.476;000.071;51;000.430;MIDI 01
019.483;000.083;58;000.438;MIDI 01
019.443;000.126;61;000.406;MIDI 01
019.432;000.177;73;000.625;MIDI 01
019.717;000.038;61;000.352;MIDI 01
019.693;000.075;51;000.477;MIDI 01
019.707;000.071;58;000.500;MIDI 01
019.664;000.188;65;000.609;MIDI 01
019.915;000.041;58;000.461;MIDI 01
019.913;000.080;51;000.523;MIDI 01
019.893;000.146;67;000.625;MIDI 01
020.173;000.186;44;000.602;MIDI 01
020.489;000.046;60;000.438;MIDI 01
020.494;000.050;66;000.398;MIDI 01
020.522;000.072;51;000.297;MIDI 01
020.556;000.051;56;000.188;MIDI 01
020.558;000.055;63;000.125;MIDI 01
020.188;000.553;70;000.625;MIDI 01
020.723;000.030;60;000.297;MIDI 01
020.747;000.044;63;000.352;MIDI 01
020.747;000.056;56;000.406;MIDI 01
020.702;000.109;66;000.445;MIDI 01
020.784;000.073;51;000.047;MIDI 01
020.949;000.077;63;000.430;MIDI 01
020.961;000.080;56;000.383;MIDI 01
021.005;000.040;51;000.281;MIDI 01
021.173;000.068;60;000.469;MIDI 01
021.199;000.054;51;000.344;MIDI 01
021.202;000.057;63;000.391;MIDI 01
021.171;000.115;66;000.508;MIDI 01
021.239;000.053;56;000.305;MIDI 01
021.432;000.034;56;000.391;MIDI 01
021.441;000.032;51;000.422;MIDI 01
021.456;000.167;66;000.461;MIDI 01
021.458;000.408;60;000.453;MIDI 01
020.930;001.001;68;000.602;MIDI 01
021.775;000.188;37;000.641;MIDI 01
022.210;000.081;65;000.391;MIDI 01
022.200;000.095;68;000.523;MIDI 01
022.236;000.061;53;000.297;MIDI 01
022.226;000.107;61;000.422;MIDI 01
022.230;000.110;56;000.438;MIDI 01
022.500;000.101;65;000.500;MIDI 01
022.539;000.066;53;000.234;MIDI 01
022.520;000.087;61;000.461;MIDI 01
022.523;000.096;56;000.445;MIDI 01
022.496;000.127;68;000.461;MIDI 01
022.478;000.285;79;000.609;MIDI 01
022.778;000.065;65;000.492;MIDI 01
022.793;000.071;53;000.281;MIDI 01
022.798;000.070;61;000.391;MIDI 01
022.811;000.060;56;000.344;MIDI 01
022.762;000.144;82;000.625;MIDI 01
022.208;000.719;73;000.625;MIDI 01
023.057;000.031;68;000.328;MIDI 01
023.055;000.059;65;000.422;MIDI 01
023.062;000.065;73;000.070;MIDI 01
023.083;000.055;61;000.227;MIDI 01
023.015;000.146;80;000.672;MIDI 01
023.245;000.058;68;000.430;MIDI 01
023.050;000.292;56;000.398;MIDI 01
023.234;000.118;77;000.609;MIDI 01
023.261;000.238;61;000.547;MIDI 01
023.480;000.146;51;000.539;MIDI 01
023.727;000.051;63;000.469;MIDI 01
023.752;000.031;67;000.336;MIDI 01
023.728;000.061;61;000.430;MIDI 01
023.724;000.084;70;000.484;MIDI 01
023.789;000.075;58;000.031;MIDI 01
023.925;000.070;61;000.430;MIDI 01
023.485;000.541;75;000.586;MIDI 01
023.977;000.059;58;000.367;MIDI 01
023.950;000.129;70;000.523;MIDI 01
024.165;000.121;49;000.562;MIDI 01
024.426;000.051;65;000.438;MIDI 01
024.418;000.079;73;000.430;MIDI 01
024.457;000.058;68;000.398;MIDI 01
024.454;000.123;56;000.398;MIDI 01
024.688;000.225;65;000.344;MIDI 01
024.658;000.276;61;000.344;MIDI 01
024.655;000.376;73;000.500;MIDI 01
024.925;000.198;51;000.578;MIDI 01
024.170;000.969;77;000.531;MIDI 01
025.200;000.094;58;000.367;MIDI 01
025.193;000.135;61;000.398;MIDI 01
025.198;000.230;70;000.523;MIDI 01
025.417;000.067;67;000.352;MIDI 01
025.419;000.084;63;000.469;MIDI 01
025.470;000.045;58;000.273;MIDI 01
025.419;000.100;61;000.328;MIDI 01
025.411;000.137;75;000.562;MIDI 01
025.677;000.049;61;000.391;MIDI 01
025.651;000.075;67;000.461;MIDI 01
025.654;000.082;58;000.320;MIDI 01
025.635;000.171;79;000.578;MIDI 01
025.870;000.062;67;000.453;MIDI 01
025.902;000.058;58;000.352;MIDI 01
025.854;000.219;77;000.602;MIDI 01
026.040;000.058;61;000.391;MIDI 01
026.073;000.060;73;000.570;MIDI 01
026.107;000.036;70;000.398;MIDI 01
026.363;000.130;41;000.477;MIDI 01
026.696;000.046;63;000.211;MIDI 01
026.719;000.040;65;000.289;MIDI 01
026.663;000.098;69;000.461;MIDI 01
026.722;000.047;60;000.297;MIDI 01
026.877;000.043;60;000.422;MIDI 01
026.880;000.058;53;000.344;MIDI 01
026.894;000.058;63;000.336;MIDI 01
026.374;000.583;72;000.523;MIDI 01
026.913;000.050;69;000.430;MIDI 01
027.154;000.131;46;000.508;MIDI 01
027.451;000.057;65;000.414;MIDI 01
027.451;000.071;58;000.406;MIDI 01
027.465;000.060;61;000.250;MIDI 01
027.445;000.089;68;000.414;MIDI 01
027.474;000.067;53;000.336;MIDI 01
027.726;000.363;68;000.430;MIDI 01
027.729;000.398;58;000.453;MIDI 01
027.724;000.499;61;000.359;MIDI 01
028.050;000.225;51;000.508;MIDI 01
027.156;001.272;73;000.547;MIDI 01
028.395;000.069;65;000.461;MIDI 01
028.401;000.091;58;000.391;MIDI 01
028.391;000.157;61;000.555;MIDI 01
028.649;000.078;58;000.516;MIDI 01
028.682;000.438;61;000.430;MIDI 01
028.664;000.506;68;000.578;MIDI 01
028.958;000.322;39;000.531;MIDI 01
029.101;000.242;72;000.594;MIDI 01
029.709;000.066;63;000.258;MIDI 01
029.701;000.083;51;000.078;MIDI 01
029.665;000.136;67;000.406;MIDI 01
029.646;000.181;61;000.398;MIDI 01
029.624;000.379;70;000.539;MIDI 01
029.973;000.048;51;000.398;MIDI 01
030.007;000.078;58;000.031;MIDI 01
029.955;000.168;67;000.531;MIDI 01
029.966;000.225;61;000.094;MIDI 01
030.090;000.167;68;000.562;MIDI 01
030.330;000.323;44;000.484;MIDI 01
030.913;000.074;60;000.320;MIDI 01
030.918;000.089;63;000.289;MIDI 01
030.925;000.134;56;000.328;MIDI 01
031.178;000.078;60;000.375;MIDI 01
031.197;000.070;63;000.375;MIDI 01
031.203;000.070;56;000.312;MIDI 01
031.440;000.057;63;000.375;MIDI 01
031.431;000.083;60;000.430;MIDI 01
031.433;000.084;56;000.406;MIDI 01
031.480;000.069;51;000.094;MIDI 01
031.701;000.064;63;000.320;MIDI 01
031.693;000.082;60;000.406;MIDI 01
031.696;000.083;51;000.305;MIDI 01
031.705;000.077;56;000.367;MIDI 01
031.968;000.050;56;000.156;MIDI 01
030.444;001.594;68;000.516;MIDI 01
031.992;000.062;51;000.109;MIDI 01
031.976;000.093;60;000.352;MIDI 01
032.548;000.319;40;000.312;MIDI 01
033.195;000.095;62;000.297;MIDI 01
033.247;000.070;52;000.234;MIDI 01
033.261;000.059;64;000.172;MIDI 01
032.643;000.680;68;000.391;MIDI 01
033.182;000.186;59;000.297;MIDI 01
033.493;000.071;64;000.273;MIDI 01
033.510;000.064;62;000.320;MIDI 01
033.505;000.071;59;000.273;MIDI 01
033.776;000.100;59;000.305;MIDI 01
033.796;000.094;62;000.234;MIDI 01
033.812;000.082;52;000.109;MIDI 01
033.764;000.206;68;000.430;MIDI 01
034.076;000.077;59;000.352;MIDI 01
034.096;000.098;52;000.211;MIDI 01
034.085;000.149;62;000.406;MIDI 01
034.071;000.283;66;000.508;MIDI 01
034.311;000.044;64;000.500;MIDI 01
034.311;000.050;59;000.352;MIDI 01
034.319;000.049;52;000.312;MIDI 01
034.606;000.181;45;000.453;MIDI 01
034.990;000.062;61;000.336;MIDI 01
034.983;000.072;69;000.398;MIDI 01
035.019;000.072;64;000.180;MIDI 01
035.013;000.080;52;000.320;MIDI 01
035.013;000.137;57;000.352;MIDI 01
035.269;000.043;53;000.320;MIDI 01
035.243;000.075;69;000.391;MIDI 01
035.248;000.077;65;000.445;MIDI 01
035.232;000.095;61;000.445;MIDI 01
035.245;000.115;57;000.336;MIDI 01
035.453;000.058;65;000.461;MIDI 01
035.447;000.072;53;000.438;MIDI 01
035.465;000.072;57;000.430;MIDI 01
035.486;000.077;61;000.461;MIDI 01
035.470;000.123;69;000.469;MIDI 01
034.617;001.136;73;000.492;MIDI 01
035.676;000.099;66;000.586;MIDI 01
035.705;000.072;61;000.500;MIDI 01
035.701;000.078;54;000.469;MIDI 01
035.695;000.099;57;000.469;MIDI 01
035.689;000.127;69;000.547;MIDI 01
035.933;000.065;57;000.477;MIDI 01
035.930;000.079;55;000.461;MIDI 01
035.920;000.333;69;000.555;MIDI 01
035.929;000.404;61;000.555;MIDI 01
036.210;000.178;44;000.547;MIDI 01
036.212;000.343;73;000.602;MIDI 01
036.545;000.054;60;000.344;MIDI 01
036.531;000.112;68;000.492;MIDI 01
036.615;000.055;63;000.219;MIDI 01
036.620;000.053;56;000.211;MIDI 01
036.742;000.093;60;000.500;MIDI 01
036.776;000.061;68;000.430;MIDI 01
036.796;000.053;66;000.336;MIDI 01
036.809;000.050;56;000.328;MIDI 01
036.806;000.089;63;000.398;MIDI 01
036.744;000.155;72;000.609;MIDI 01
037.004;000.062;56;000.414;MIDI 01
037.002;000.067;66;000.484;MIDI 01
036.996;000.090;60;000.570;MIDI 01
037.026;000.061;63;000.438;MIDI 01
037.067;000.057;68;000.055;MIDI 01
036.981;000.209;72;000.594;MIDI 01
037.263;000.065;66;000.477;MIDI 01
037.267;000.078;63;000.445;MIDI 01
037.267;000.080;56;000.422;MIDI 01
037.247;000.109;60;000.562;MIDI 01
037.230;000.247;69;000.633;MIDI 01
037.498;000.067;63;000.570;MIDI 01
037.503;000.085;56;000.531;MIDI 01
037.477;000.406;68;000.656;MIDI 01
037.806;000.284;49;000.617;MIDI 01
038.303;000.053;55;000.312;MIDI 01
038.314;000.068;73;000.375;MIDI 01
038.269;000.131;64;000.438;MIDI 01
038.321;000.100;61;000.438;MIDI 01
038.554;000.066;64;000.438;MIDI 01
038.547;000.086;56;000.438;MIDI 01
038.536;000.107;73;000.492;MIDI 01
038.543;000.108;68;000.492;MIDI 01
038.557;000.111;61;000.422;MIDI 01
038.771;000.082;56;000.523;MIDI 01
038.766;000.098;68;000.461;MIDI 01
038.781;000.089;64;000.477;MIDI 01
038.775;000.120;73;000.570;MIDI 01
038.773;000.131;61;000.445;MIDI 01
039.021;000.068;57;000.547;MIDI 01
039.025;000.068;69;000.562;MIDI 01
039.019;000.154;61;000.430;MIDI 01
039.042;000.141;64;000.547;MIDI 01
037.906;001.326;76;000.633;MIDI 01
039.036;000.228;73;000.586;MIDI 01
039.294;000.045;70;000.578;MIDI 01
039.323;000.055;60;000.453;MIDI 01
039.300;000.105;58;000.516;MIDI 01
039.321;000.396;64;000.609;MIDI 01
039.310;000.409;72;000.625;MIDI 01
039.699;000.226;47;000.633;MIDI 01
040.195;000.048;69;000.344;MIDI 01
040.205;000.059;59;000.328;MIDI 01
039.737;000.536;76;000.617;MIDI 01
040.159;000.120;71;000.484;MIDI 01
040.191;000.109;66;000.406;MIDI 01
040.413;000.080;59;000.445;MIDI 01
040.443;000.052;71;000.242;MIDI 01
040.405;000.091;69;000.461;MIDI 01
040.398;000.137;75;000.602;MIDI 01
040.500;000.047;63;000.156;MIDI 01
040.400;000.158;66;000.406;MIDI 01
040.677;000.046;59;000.367;MIDI 01
040.649;000.094;69;000.539;MIDI 01
040.686;000.078;63;000.430;MIDI 01
040.652;000.118;71;000.508;MIDI 01
040.642;000.135;66;000.352;MIDI 01
040.651;000.188;75;000.641;MIDI 01
040.951;000.042;71;000.297;MIDI 01
040.906;000.143;69;000.516;MIDI 01
040.900;000.227;73;000.680;MIDI 01
040.903;000.249;59;000.438;MIDI 01
040.916;000.254;61;000.547;MIDI 01
041.184;000.057;71;000.656;MIDI 01
041.180;000.098;59;000.211;MIDI 01
041.198;000.090;61;000.266;MIDI 01
041.202;000.090;63;000.609;MIDI 01
041.553;000.282;52;000.578;MIDI 01
042.085;000.070;59;000.398;MIDI 01
042.094;000.064;71;000.352;MIDI 01
042.108;000.116;68;000.398;MIDI 01
042.105;000.125;64;000.422;MIDI 01
041.649;000.614;80;000.641;MIDI 01
042.094;000.316;74;000.492;MIDI 01
042.424;000.059;70;000.516;MIDI 01
042.461;000.085;64;000.312;MIDI 01
042.454;000.170;58;000.391;MIDI 01
042.426;000.243;80;000.594;MIDI 01
042.476;000.225;68;000.391;MIDI 01
042.448;000.525;74;000.117;MIDI 01
042.875;000.167;51;000.469;MIDI 01
042.885;000.214;80;000.578;MIDI 01
043.231;000.073;67;000.445;MIDI 01
043.234;000.070;70;000.414;MIDI 01
043.237;000.083;63;000.391;MIDI 01
043.205;000.148;79;000.570;MIDI 01
043.466;000.049;63;000.477;MIDI 01
043.462;000.055;58;000.383;MIDI 01
043.457;000.136;75;000.633;MIDI 01
043.735;000.100;50;000.492;MIDI 01
044.015;000.028;69;000.414;MIDI 01
044.004;000.078;66;000.430;MIDI 01
043.737;000.347;78;000.602;MIDI 01
044.030;000.077;62;000.398;MIDI 01
043.999;000.117;72;000.469;MIDI 01
044.249;000.054;68;000.227;MIDI 01
044.251;000.062;62;000.195;MIDI 01
044.264;000.096;56;000.391;MIDI 01
044.237;000.146;78;000.562;MIDI 01
044.290;000.106;66;000.281;MIDI 01
044.541;000.152;49;000.469;MIDI 01
044.575;000.192;78;000.469;MIDI 01
044.898;000.044;65;000.305;MIDI 01
044.901;000.059;68;000.320;MIDI 01
044.919;000.059;61;000.266;MIDI 01
044.864;000.166;77;000.523;MIDI 01
045.119;000.047;61;000.461;MIDI 01
045.140;000.099;65;000.328;MIDI 01
045.115;000.283;73;000.594;MIDI 01
045.345;000.111;48;000.531;MIDI 01
045.362;000.253;76;000.609;MIDI 01
045.651;000.040;67;000.359;MIDI 01
045.661;000.064;60;000.477;MIDI 01
045.691;000.050;55;000.242;MIDI 01
045.664;000.100;63;000.477;MIDI 01
045.645;000.191;75;000.586;MIDI 01
045.642;000.286;70;000.547;MIDI 01
045.919;000.049;64;000.594;MIDI 01
045.964;000.030;66;000.336;MIDI 01
045.908;000.091;76;000.641;MIDI 01
045.921;000.083;60;000.438;MIDI 01
045.935;000.102;54;000.383;MIDI 01
046.242;000.164;47;000.586;MIDI 01
046.255;000.370;80;000.672;MIDI 01
046.645;000.045;71;000.320;MIDI 01
046.599;000.097;68;000.531;MIDI 01
046.648;000.057;59;000.328;MIDI 01
046.636;000.292;64;000.484;MIDI 01
046.932;000.043;69;000.273;MIDI 01
046.928;000.054;63;000.461;MIDI 01
046.934;000.080;59;000.359;MIDI 01
046.578;000.458;76;000.555;MIDI 01
046.913;000.211;78;000.609;MIDI 01
046.926;000.328;66;000.547;MIDI 01
046.924;000.464;71;000.508;MIDI 01
047.332;000.243;40;000.617;MIDI 01
047.857;000.055;64;000.289;MIDI 01
047.854;000.087;71;000.297;MIDI 01
047.895;000.056;56;000.242;MIDI 01
047.903;000.051;68;000.273;MIDI 01
047.958;000.053;59;000.211;MIDI 01
048.109;000.066;71;000.398;MIDI 01
048.124;000.062;64;000.289;MIDI 01
048.135;000.080;56;000.336;MIDI 01
048.121;000.097;68;000.336;MIDI 01
048.145;000.076;59;000.422;MIDI 01
048.369;000.058;68;000.312;MIDI 01
048.352;000.075;71;000.336;MIDI 01
048.364;000.069;64;000.250;MIDI 01
048.371;000.077;59;000.422;MIDI 01
048.355;000.097;56;000.469;MIDI 01
048.579;000.075;64;000.438;MIDI 01
048.610;000.067;56;000.445;MIDI 01
048.581;000.098;71;000.438;MIDI 01
048.615;000.067;59;000.391;MIDI 01
048.595;000.089;68;000.422;MIDI 01
048.817;000.041;59;000.453;MIDI 01
048.834;000.038;56;000.375;MIDI 01
048.837;000.236;64;000.359;MIDI 01
048.831;000.245;71;000.445;MIDI 01
049.070;000.137;52;000.508;MIDI 01
047.354;001.884;76;000.578;MIDI 01
049.375;000.067;64;000.406;MIDI 01
049.401;000.048;69;000.297;MIDI 01
049.399;000.072;57;000.375;MIDI 01
049.368;000.117;76;000.516;MIDI 01
049.420;000.081;60;000.383;MIDI 01
049.388;000.168;72;000.391;MIDI 01
049.682;000.047;57;000.219;MIDI 01
049.631;000.112;63;000.547;MIDI 01
049.629;000.146;69;000.375;MIDI 01
049.664;000.116;60;000.359;MIDI 01
049.973;000.080;57;000.320;MIDI 01
049.951;000.145;60;000.414;MIDI 01
049.943;000.175;66;000.531;MIDI 01
049.926;000.205;78;000.625;MIDI 01
049.961;000.176;72;000.211;MIDI 01
049.623;000.531;75;000.609;MIDI 01
050.272;000.092;64;000.469;MIDI 01
050.310;000.070;57;000.352;MIDI 01
050.331;000.058;72;000.102;MIDI 01
050.284;000.117;60;000.445;MIDI 01
050.251;000.192;76;000.586;MIDI 01
050.518;000.039;60;000.422;MIDI 01
050.523;000.043;57;000.430;MIDI 01
050.534;000.295;64;000.461;MIDI 01
050.516;000.383;72;000.586;MIDI 01
050.854;000.191;40;000.539;MIDI 01
051.362;000.055;71;000.227;MIDI 01
051.380;000.081;68;000.234;MIDI 01
051.384;000.079;56;000.234;MIDI 01
051.422;000.077;59;000.250;MIDI 01
051.607;000.055;64;000.344;MIDI 01
051.599;000.069;71;000.297;MIDI 01
051.627;000.052;68;000.297;MIDI 01
051.645;000.055;59;000.305;MIDI 01
051.663;000.061;56;000.109;MIDI 01
051.836;000.067;71;000.359;MIDI 01
051.844;000.068;64;000.227;MIDI 01
051.850;000.067;68;000.320;MIDI 01
051.874;000.060;59;000.305;MIDI 01
051.897;000.074;56;000.148;MIDI 01
052.078;000.044;64;000.336;MIDI 01
052.080;000.060;71;000.375;MIDI 01
052.083;000.070;68;000.391;MIDI 01
052.112;000.064;59;000.258;MIDI 01
052.126;000.064;56;000.195;MIDI 01
052.317;000.069;59;000.391;MIDI 01
052.315;000.225;71;000.398;MIDI 01
052.330;000.214;64;000.312;MIDI 01
052.552;000.121;52;000.469;MIDI 01
050.878;001.834;76;000.562;MIDI 01
052.861;000.071;64;000.359;MIDI 01
052.848;000.124;76;000.445;MIDI 01
052.910;000.069;69;000.062;MIDI 01
052.904;000.093;60;000.320;MIDI 01
052.874;000.205;72;000.320;MIDI 01
053.123;000.073;69;000.414;MIDI 01
053.135;000.089;60;000.234;MIDI 01
053.119;000.107;63;000.461;MIDI 01
053.420;000.050;57;000.312;MIDI 01
053.376;000.128;60;000.406;MIDI 01
053.112;000.400;75;000.562;MIDI 01
053.393;000.125;66;000.461;MIDI 01
053.353;000.170;78;000.602;MIDI 01
053.644;000.058;57;000.352;MIDI 01
053.631;000.082;64;000.547;MIDI 01
053.639;000.104;60;000.406;MIDI 01
053.627;000.189;76;000.602;MIDI 01
053.913;000.049;60;000.461;MIDI 01
053.941;000.047;57;000.336;MIDI 01
053.920;000.447;64;000.492;MIDI 01
053.910;000.536;72;000.617;MIDI 01
054.303;000.293;40;000.594;MIDI 01
054.918;000.073;71;000.352;MIDI 01
054.939;000.056;68;000.281;MIDI 01
054.920;000.081;64;000.266;MIDI 01
054.918;000.104;56;000.391;MIDI 01
055.189;000.072;64;000.352;MIDI 01
055.186;000.080;71;000.367;MIDI 01
055.206;000.107;68;000.305;MIDI 01
055.431;000.067;71;000.445;MIDI 01
055.433;000.066;64;000.375;MIDI 01
055.406;000.096;68;000.352;MIDI 01
055.429;000.109;59;000.469;MIDI 01
055.657;000.071;68;000.359;MIDI 01
055.644;000.086;71;000.430;MIDI 01
055.640;000.094;64;000.383;MIDI 01
055.639;000.107;59;000.328;MIDI 01
055.879;000.064;68;000.352;MIDI 01
055.892;000.059;64;000.375;MIDI 01
055.904;000.068;59;000.367;MIDI 01
055.876;000.100;71;000.445;MIDI 01
056.121;000.072;59;000.406;MIDI 01
056.095;000.109;68;000.461;MIDI 01
056.105;000.109;71;000.406;MIDI 01
056.099;000.125;64;000.523;MIDI 01
055.176;001.121;56;000.484;MIDI 01
056.366;000.067;68;000.375;MIDI 01
056.374;000.072;59;000.344;MIDI 01
056.341;000.107;64;000.547;MIDI 01
054.399;002.225;76;000.602;MIDI 01
056.333;000.306;56;000.211;MIDI 01
056.578;000.076;68;000.430;MIDI 01
056.576;000.080;64;000.547;MIDI 01
056.628;000.047;59;000.289;MIDI 01
056.822;000.075;68;000.477;MIDI 01
056.849;000.059;56;000.266;MIDI 01
056.810;000.099;63;000.516;MIDI 01
056.824;000.108;71;000.469;MIDI 01
056.832;000.107;59;000.359;MIDI 01
057.070;000.057;68;000.422;MIDI 01
057.068;000.085;63;000.492;MIDI 01
057.090;000.066;56;000.188;MIDI 01
056.792;000.366;75;000.664;MIDI 01
057.065;000.105;71;000.516;MIDI 01
057.143;000.046;59;000.250;MIDI 01
057.329;000.082;68;000.555;MIDI 01
057.342;000.097;56;000.312;MIDI 01
057.325;000.133;63;000.547;MIDI 01
057.353;000.142;59;000.398;MIDI 01
057.350;000.147;71;000.461;MIDI 01
057.303;000.218;75;000.633;MIDI 01
057.809;000.181;56;000.453;MIDI 01
057.804;000.193;68;000.523;MIDI 01
057.788;000.224;63;000.609;MIDI 01
057.823;000.193;71;000.398;MIDI 01
057.829;000.222;59;000.414;MIDI 01
058.170;000.067;68;000.531;MIDI 01
058.173;000.079;63;000.516;MIDI 01
058.190;000.065;71;000.469;MIDI 01
058.174;000.091;56;000.461;MIDI 01
058.236;000.043;59;000.352;MIDI 01
058.402;000.074;68;000.555;MIDI 01
058.419;000.069;56;000.477;MIDI 01
058.407;000.086;63;000.547;MIDI 01
058.409;000.095;59;000.461;MIDI 01
058.400;000.106;71;000.492;MIDI 01
058.621;000.057;68;000.547;MIDI 01
058.639;000.052;63;000.516;MIDI 01
058.612;000.094;56;000.523;MIDI 01
058.656;000.052;59;000.422;MIDI 01
058.627;000.087;71;000.445;MIDI 01
058.843;000.053;68;000.484;MIDI 01
058.850;000.057;59;000.422;MIDI 01
058.848;000.061;56;000.500;MIDI 01
058.832;000.092;63;000.516;MIDI 01
058.841;000.108;71;000.516;MIDI 01
059.068;000.071;68;000.508;MIDI 01
059.057;000.086;56;000.492;MIDI 01
059.070;000.094;59;000.430;MIDI 01
059.059;000.128;71;000.539;MIDI 01
059.066;000.134;63;000.570;MIDI 01
057.770;001.442;75;000.695;MIDI 01
059.288;000.035;68;000.625;MIDI 01
059.312;000.071;59;000.492;MIDI 01
059.299;000.090;56;000.562;MIDI 01
059.322;000.085;62;000.570;MIDI 01
059.310;000.161;74;000.641;MIDI 01
059.587;000.024;53;000.586;MIDI 01
059.591;000.034;41;000.547;MIDI 01
059.593;000.049;62;000.477;MIDI 01
059.595;000.085;71;000.500;MIDI 01
059.805;000.023;50;000.633;MIDI 01
059.810;000.037;38;000.617;MIDI 01
059.819;000.061;62;000.500;MIDI 01
059.824;000.096;71;000.555;MIDI 01
059.972;000.049;50;000.023;MIDI 01
060.034;000.031;47;000.656;MIDI 01
060.036;000.043;35;000.680;MIDI 01
060.065;000.033;68;000.383;MIDI 01
060.044;000.071;62;000.570;MIDI 01
060.046;000.083;71;000.594;MIDI 01
060.259;000.043;44;000.680;MIDI 01
060.282;000.053;68;000.344;MIDI 01
060.308;000.035;45;000.352;MIDI 01
060.261;000.084;32;000.648;MIDI 01
060.276;000.071;62;000.586;MIDI 01
060.312;000.056;34;000.273;MIDI 01
060.274;000.109;71;000.609;MIDI 01
060.542;000.040;41;000.711;MIDI 01
060.546;000.048;29;000.672;MIDI 01
060.548;000.048;62;000.547;MIDI 01
060.533;000.087;71;000.617;MIDI 01
060.594;000.052;30;000.250;MIDI 01
060.966;000.132;27;000.703;MIDI 01
060.968;000.140;39;000.711;MIDI 01
060.983;000.143;61;000.602;MIDI 01
060.981;000.239;67;000.625;MIDI 01
061.461;000.061;61;000.555;MIDI 01
061.468;000.061;51;000.508;MIDI 01
061.470;000.075;58;000.531;MIDI 01
061.435;000.268;67;000.625;MIDI 01
061.755;000.065;51;000.453;MIDI 01
061.736;000.113;63;000.586;MIDI 01
061.745;000.107;61;000.570;MIDI 01
061.743;000.112;58;000.516;MIDI 01
061.710;000.225;72;000.656;MIDI 01
061.990;000.069;51;000.461;MIDI 01
061.976;000.098;63;000.539;MIDI 01
061.999;000.081;58;000.555;MIDI 01
061.972;000.120;61;000.500;MIDI 01
061.954;000.140;73;000.656;MIDI 01
062.221;000.048;51;000.461;MIDI 01
062.211;000.080;58;000.555;MIDI 01
062.178;000.167;65;000.633;MIDI 01
062.382;000.044;58;000.492;MIDI 01
062.380;000.082;51;000.523;MIDI 01
062.392;000.183;67;000.625;MIDI 01
062.639;000.075;32;000.602;MIDI 01
062.665;000.050;34;000.312;MIDI 01
062.627;000.091;44;000.688;MIDI 01
062.901;000.031;60;000.453;MIDI 01
062.897;000.046;66;000.484;MIDI 01
062.947;000.034;63;000.469;MIDI 01
062.959;000.040;51;000.352;MIDI 01
062.624;000.392;70;000.641;MIDI 01
063.124;000.038;51;000.445;MIDI 01
063.119;000.056;63;000.445;MIDI 01
063.108;000.074;60;000.430;MIDI 01
063.144;000.056;56;000.383;MIDI 01
063.110;000.125;66;000.508;MIDI 01
063.332;000.045;51;000.406;MIDI 01
063.312;000.085;63;000.547;MIDI 01
063.317;000.122;56;000.523;MIDI 01
063.573;000.052;51;000.281;MIDI 01
063.547;000.080;63;000.578;MIDI 01
063.570;000.059;60;000.352;MIDI 01
063.564;000.087;56;000.414;MIDI 01
063.540;000.126;66;000.547;MIDI 01
063.782;000.013;63;000.469;MIDI 01
063.798;000.044;56;000.484;MIDI 01
063.785;000.077;51;000.461;MIDI 01
063.794;000.111;66;000.562;MIDI 01
063.793;000.330;60;000.531;MIDI 01
064.154;000.099;25;000.641;MIDI 01
063.302;000.962;68;000.664;MIDI 01
064.164;000.116;65;000.633;MIDI 01
064.156;000.127;37;000.609;MIDI 01
064.620;000.061;65;000.375;MIDI 01
064.583;000.114;68;000.523;MIDI 01
064.615;000.103;61;000.414;MIDI 01
064.636;000.107;56;000.398;MIDI 01
064.873;000.060;65;000.445;MIDI 01
064.871;000.073;53;000.406;MIDI 01
064.838;000.109;68;000.570;MIDI 01
064.890;000.059;56;000.398;MIDI 01
064.886;000.066;61;000.438;MIDI 01
064.827;000.250;79;000.625;MIDI 01
065.112;000.054;53;000.391;MIDI 01
065.100;000.072;65;000.531;MIDI 01
065.122;000.052;56;000.383;MIDI 01
065.115;000.076;61;000.453;MIDI 01
065.150;000.043;80;000.227;MIDI 01
065.081;000.114;82;000.641;MIDI 01
064.570;000.666;73;000.531;MIDI 01
065.305;000.070;73;000.344;MIDI 01
065.346;000.034;68;000.359;MIDI 01
065.330;000.060;65;000.492;MIDI 01
065.338;000.060;61;000.445;MIDI 01
065.335;000.073;53;000.359;MIDI 01
065.298;000.149;80;000.648;MIDI 01
065.517;000.036;61;000.500;MIDI 01
065.522;000.064;56;000.453;MIDI 01
065.524;000.065;68;000.492;MIDI 01
065.519;000.128;77;000.664;MIDI 01
065.768;000.044;27;000.625;MIDI 01
065.775;000.053;39;000.508;MIDI 01
066.022;000.036;63;000.445;MIDI 01
066.048;000.036;67;000.469;MIDI 01
066.018;000.070;70;000.484;MIDI 01
066.083;000.094;55;000.203;MIDI 01
066.214;000.046;58;000.414;MIDI 01
066.207;000.055;55;000.266;MIDI 01
065.764;000.618;75;000.641;MIDI 01
066.227;000.255;70;000.570;MIDI 01
066.458;000.051;25;000.594;MIDI 01
066.456;000.065;37;000.562;MIDI 01
066.728;000.033;65;000.461;MIDI 01
066.723;000.047;73;000.453;MIDI 01
066.754;000.043;64;000.375;MIDI 01
066.773;000.050;61;000.242;MIDI 01
066.949;000.036;61;000.523;MIDI 01
066.968;000.053;56;000.508;MIDI 01
066.966;000.083;65;000.484;MIDI 01
066.961;000.384;73;000.539;MIDI 01
067.286;000.088;27;000.570;MIDI 01
067.278;000.118;39;000.617;MIDI 01
067.299;000.134;70;000.523;MIDI 01
066.454;001.121;77;000.625;MIDI 01
067.718;000.049;55;000.250;MIDI 01
067.708;000.071;58;000.359;MIDI 01
067.669;000.267;70;000.539;MIDI 01
067.960;000.044;67;000.422;MIDI 01
067.979;000.049;61;000.383;MIDI 01
067.906;000.133;63;000.531;MIDI 01
067.949;000.093;58;000.367;MIDI 01
067.911;000.134;75;000.547;MIDI 01
067.945;000.143;55;000.328;MIDI 01
068.203;000.100;67;000.438;MIDI 01
068.239;000.068;63;000.375;MIDI 01
068.244;000.069;55;000.281;MIDI 01
068.263;000.055;61;000.258;MIDI 01
068.253;000.072;58;000.336;MIDI 01
068.174;000.289;79;000.578;MIDI 01
068.478;000.058;63;000.359;MIDI 01
068.452;000.086;67;000.508;MIDI 01
068.497;000.044;58;000.328;MIDI 01
068.494;000.052;61;000.148;MIDI 01
068.471;000.078;55;000.359;MIDI 01
068.421;000.240;77;000.609;MIDI 01
068.660;000.041;63;000.414;MIDI 01
068.670;000.035;61;000.547;MIDI 01
068.684;000.036;58;000.320;MIDI 01
068.677;000.062;70;000.555;MIDI 01
068.658;000.083;73;000.586;MIDI 01
068.984;000.099;29;000.555;MIDI 01
068.985;000.146;41;000.547;MIDI 01
069.291;000.060;63;000.414;MIDI 01
069.343;000.047;60;000.445;MIDI 01
069.289;000.103;69;000.445;MIDI 01
069.504;000.041;60;000.430;MIDI 01
069.536;000.030;53;000.391;MIDI 01
069.542;000.135;63;000.328;MIDI 01
069.550;000.166;69;000.469;MIDI 01
068.986;000.804;72;000.609;MIDI 01
069.776;000.084;34;000.570;MIDI 01
069.779;000.091;46;000.523;MIDI 01
070.074;000.064;68;000.391;MIDI 01
070.100;000.044;61;000.273;MIDI 01
070.096;000.052;65;000.430;MIDI 01
070.124;000.095;53;000.148;MIDI 01
070.319;000.049;53;000.188;MIDI 01
070.345;000.041;58;000.438;MIDI 01
070.686;000.182;39;000.484;MIDI 01
070.694;000.182;51;000.438;MIDI 01
070.356;000.554;61;000.336;MIDI 01
070.368;000.545;68;000.430;MIDI 01
071.069;000.085;61;000.477;MIDI 01
071.124;000.042;65;000.297;MIDI 01
071.083;000.084;68;000.430;MIDI 01
071.109;000.066;53;000.328;MIDI 01
071.131;000.076;58;000.367;MIDI 01
069.765;001.486;73;000.594;MIDI 01
071.346;000.050;58;000.477;MIDI 01
071.388;000.047;51;000.375;MIDI 01
071.373;000.109;61;000.477;MIDI 01
071.367;000.366;70;000.562;MIDI 01
071.652;000.140;44;000.531;MIDI 01
071.639;000.200;73;000.578;MIDI 01
071.655;000.217;61;000.359;MIDI 01
071.943;000.094;60;000.492;MIDI 01
071.973;000.068;63;000.391;MIDI 01
072.007;000.062;56;000.266;MIDI 01
072.000;000.074;70;000.250;MIDI 01
071.929;000.235;72;000.602;MIDI 01
072.267;000.049;56;000.430;MIDI 01
072.259;000.067;51;000.453;MIDI 01
072.270;000.065;60;000.398;MIDI 01
072.291;000.070;65;000.273;MIDI 01
072.242;000.218;68;000.586;MIDI 01
072.748;000.058;67;000.344;MIDI 01
072.711;000.279;39;000.523;MIDI 01
073.275;000.073;51;000.359;MIDI 01
073.272;000.080;67;000.328;MIDI 01
073.270;000.086;58;000.281;MIDI 01
073.309;000.056;63;000.125;MIDI 01
073.536;000.088;58;000.352;MIDI 01
073.546;000.083;51;000.320;MIDI 01
073.548;000.088;63;000.219;MIDI 01
073.534;000.114;67;000.367;MIDI 01
073.800;000.059;63;000.320;MIDI 01
073.807;000.064;67;000.367;MIDI 01
073.822;000.056;58;000.234;MIDI 01
073.822;000.066;51;000.234;MIDI 01
074.046;000.057;51;000.234;MIDI 01
074.026;000.083;63;000.367;MIDI 01
074.044;000.097;67;000.305;MIDI 01
074.032;000.118;58;000.297;MIDI 01
074.340;000.048;51;000.312;MIDI 01
072.714;001.726;70;000.570;MIDI 01
074.369;000.089;58;000.164;MIDI 01
074.329;000.745;67;000.367;MIDI 01
074.895;000.427;39;000.320;MIDI 01
075.701;000.094;66;000.297;MIDI 01
075.730;000.104;63;000.156;MIDI 01
075.760;000.100;51;000.047;MIDI 01
075.764;000.140;57;000.352;MIDI 01
075.059;000.856;71;000.406;MIDI 01
075.746;000.251;59;000.258;MIDI 01
076.042;000.048;63;000.273;MIDI 01
076.005;000.119;66;000.367;MIDI 01
076.078;000.066;57;000.102;MIDI 01
076.031;000.226;59;000.211;MIDI 01
076.263;000.071;71;000.352;MIDI 01
076.356;000.122;73;000.445;MIDI 01
076.463;000.098;63;000.234;MIDI 01
076.435;000.149;59;000.398;MIDI 01
076.532;000.092;57;000.078;MIDI 01
076.466;000.275;71;000.492;MIDI 01
076.757;000.084;63;000.398;MIDI 01
076.754;000.221;70;000.539;MIDI 01
076.799;000.178;51;000.172;MIDI 01
076.994;000.051;59;000.508;MIDI 01
077.015;000.041;66;000.383;MIDI 01
076.983;000.078;71;000.594;MIDI 01
076.759;000.303;57;000.320;MIDI 01
077.306;000.115;40;000.461;MIDI 01
077.627;000.029;64;000.383;MIDI 01
077.635;000.046;56;000.328;MIDI 01
077.594;000.123;68;000.422;MIDI 01
077.285;000.579;73;000.555;MIDI 01
077.850;000.047;64;000.383;MIDI 01
077.857;000.057;56;000.289;MIDI 01
077.856;000.060;61;000.422;MIDI 01
077.843;000.082;68;000.414;MIDI 01
078.080;000.065;59;000.461;MIDI 01
078.084;000.074;56;000.398;MIDI 01
078.124;000.053;52;000.195;MIDI 01
078.350;000.052;63;000.555;MIDI 01
078.341;000.064;59;000.508;MIDI 01
078.362;000.065;68;000.414;MIDI 01
078.357;000.073;52;000.211;MIDI 01
078.346;000.100;56;000.469;MIDI 01
078.624;000.030;56;000.500;MIDI 01
078.621;000.036;61;000.477;MIDI 01
078.629;000.050;52;000.312;MIDI 01
078.646;000.367;59;000.477;MIDI 01
078.642;000.377;68;000.477;MIDI 01
078.078;001.001;71;000.523;MIDI 01
078.989;000.115;35;000.539;MIDI 01
078.995;000.169;47;000.547;MIDI 01
079.416;000.048;66;000.328;MIDI 01
079.445;000.060;63;000.336;MIDI 01
079.444;000.064;69;000.266;MIDI 01
079.660;000.077;69;000.391;MIDI 01
079.388;000.361;71;000.516;MIDI 01
079.648;000.138;63;000.430;MIDI 01
079.900;000.042;66;000.445;MIDI 01
079.630;000.314;73;000.578;MIDI 01
079.902;000.065;69;000.445;MIDI 01
079.877;000.148;63;000.414;MIDI 01
079.869;000.166;75;000.625;MIDI 01
080.115;000.078;66;000.555;MIDI 01
080.098;000.104;76;000.641;MIDI 01
080.121;000.168;61;000.508;MIDI 01
080.119;000.231;59;000.469;MIDI 01
080.134;000.226;69;000.430;MIDI 01
080.376;000.050;63;000.516;MIDI 01
080.385;000.051;61;000.242;MIDI 01
080.391;000.075;59;000.031;MIDI 01
080.360;000.345;78;000.672;MIDI 01
080.695;000.119;40;000.547;MIDI 01
080.704;000.178;52;000.531;MIDI 01
081.082;000.056;71;000.453;MIDI 01
081.100;000.043;68;000.227;MIDI 01
081.099;000.061;64;000.367;MIDI 01
081.059;000.109;76;000.477;MIDI 01
081.125;000.051;59;000.188;MIDI 01
081.300;000.068;68;000.406;MIDI 01
081.315;000.059;59;000.438;MIDI 01
081.293;000.091;71;000.539;MIDI 01
081.308;000.085;64;000.438;MIDI 01
081.316;000.096;76;000.516;MIDI 01
081.521;000.040;64;000.523;MIDI 01
081.519;000.080;59;000.500;MIDI 01
081.526;000.077;68;000.531;MIDI 01
081.530;000.075;71;000.453;MIDI 01
081.533;000.132;76;000.531;MIDI 01
081.768;000.051;51;000.609;MIDI 01
081.785;000.064;39;000.570;MIDI 01
081.778;000.094;68;000.539;MIDI 01
081.812;000.061;71;000.352;MIDI 01
081.803;000.123;76;000.531;MIDI 01
082.047;000.049;50;000.602;MIDI 01
082.052;000.054;38;000.578;MIDI 01
082.065;000.144;71;000.391;MIDI 01
082.054;000.158;68;000.492;MIDI 01
080.682;001.858;80;000.656;MIDI 01
082.405;000.151;37;000.617;MIDI 01
082.411;000.178;49;000.633;MIDI 01
082.049;000.557;76;000.555;MIDI 01
082.857;000.152;61;000.570;MIDI 01
082.900;000.116;58;000.352;MIDI 01
082.957;000.068;53;000.156;MIDI 01
083.177;000.083;61;000.555;MIDI 01
083.185;000.095;65;000.430;MIDI 01
083.175;000.139;73;000.594;MIDI 01
083.183;000.150;53;000.398;MIDI 01
083.188;000.207;59;000.492;MIDI 01
083.427;000.104;73;000.500;MIDI 01
083.540;000.165;75;000.586;MIDI 01
083.659;000.173;53;000.391;MIDI 01
083.652;000.185;65;000.461;MIDI 01
083.748;000.098;68;000.172;MIDI 01
083.648;000.201;59;000.453;MIDI 01
083.695;000.157;61;000.398;MIDI 01
083.650;000.207;73;000.656;MIDI 01
083.980;000.039;60;000.469;MIDI 01
083.982;000.068;68;000.414;MIDI 01
083.957;000.095;72;000.602;MIDI 01
083.984;000.070;59;000.453;MIDI 01
084.031;000.055;53;000.211;MIDI 01
084.199;000.037;61;000.477;MIDI 01
084.216;000.042;53;000.383;MIDI 01
084.190;000.090;73;000.648;MIDI 01
084.429;000.151;42;000.586;MIDI 01
084.783;000.036;66;000.336;MIDI 01
084.761;000.066;58;000.477;MIDI 01
084.442;000.396;75;000.648;MIDI 01
084.726;000.115;70;000.445;MIDI 01
084.744;000.104;61;000.430;MIDI 01
084.956;000.065;66;000.484;MIDI 01
084.985;000.041;54;000.320;MIDI 01
084.980;000.060;61;000.414;MIDI 01
084.983;000.076;58;000.406;MIDI 01
084.965;000.107;70;000.508;MIDI 01
085.210;000.061;54;000.305;MIDI 01
085.223;000.051;61;000.406;MIDI 01
085.208;000.075;66;000.547;MIDI 01
085.221;000.080;58;000.383;MIDI 01
085.459;000.065;65;000.633;MIDI 01
085.466;000.085;54;000.461;MIDI 01
085.480;000.082;61;000.547;MIDI 01
085.497;000.078;70;000.391;MIDI 01
085.486;000.150;58;000.414;MIDI 01
085.758;000.042;63;000.625;MIDI 01
085.767;000.077;54;000.586;MIDI 01
085.776;000.466;61;000.570;MIDI 01
085.790;000.499;70;000.523;MIDI 01
086.162;000.133;37;000.594;MIDI 01
085.192;001.129;73;000.609;MIDI 01
086.166;000.188;49;000.664;MIDI 01
086.658;000.068;56;000.383;MIDI 01
086.650;000.139;68;000.484;MIDI 01
086.690;000.121;59;000.367;MIDI 01
086.648;000.192;65;000.516;MIDI 01
086.668;000.185;61;000.445;MIDI 01
086.676;000.231;71;000.367;MIDI 01
086.635;000.379;73;000.594;MIDI 01
086.975;000.078;65;000.477;MIDI 01
087.006;000.049;59;000.344;MIDI 01
086.949;000.111;68;000.531;MIDI 01
086.981;000.111;61;000.359;MIDI 01
086.942;000.196;75;000.641;MIDI 01
087.201;000.069;68;000.570;MIDI 01
087.199;000.093;65;000.625;MIDI 01
087.186;000.111;77;000.656;MIDI 01
087.255;000.081;59;000.195;MIDI 01
087.227;000.175;61;000.352;MIDI 01
087.455;000.079;56;000.391;MIDI 01
087.448;000.102;66;000.578;MIDI 01
087.489;000.065;59;000.422;MIDI 01
087.453;000.102;63;000.516;MIDI 01
087.458;000.111;71;000.430;MIDI 01
087.444;000.146;78;000.641;MIDI 01
087.455;000.204;73;000.539;MIDI 01
087.446;000.263;61;000.172;MIDI 01
087.733;000.026;65;000.555;MIDI 01
087.728;000.056;73;000.477;MIDI 01
087.759;000.044;59;000.383;MIDI 01
087.783;000.026;78;000.336;MIDI 01
087.731;000.081;61;000.352;MIDI 01
087.736;000.083;68;000.625;MIDI 01
087.734;000.104;56;000.469;MIDI 01
087.739;000.115;80;000.602;MIDI 01
088.159;000.233;42;000.656;MIDI 01
088.655;000.069;66;000.477;MIDI 01
088.680;000.048;70;000.336;MIDI 01
088.677;000.053;54;000.297;MIDI 01
088.660;000.078;61;000.445;MIDI 01
088.668;000.098;78;000.430;MIDI 01
088.901;000.049;61;000.492;MIDI 01
088.897;000.075;54;000.453;MIDI 01
088.929;000.045;66;000.258;MIDI 01
088.895;000.083;70;000.508;MIDI 01
088.957;000.036;73;000.297;MIDI 01
088.917;000.102;78;000.539;MIDI 01
089.139;000.060;54;000.633;MIDI 01
089.143;000.103;42;000.633;MIDI 01
089.149;000.100;70;000.531;MIDI 01
089.158;000.114;73;000.383;MIDI 01
089.164;000.136;78;000.586;MIDI 01
089.412;000.055;53;000.656;MIDI 01
089.422;000.068;41;000.625;MIDI 01
089.433;000.116;70;000.555;MIDI 01
089.454;000.142;73;000.453;MIDI 01
089.446;000.155;78;000.570;MIDI 01
088.190;001.494;82;000.664;MIDI 01
089.749;000.071;52;000.656;MIDI 01
089.747;000.077;40;000.625;MIDI 01
089.755;000.101;70;000.570;MIDI 01
089.749;000.159;78;000.586;MIDI 01
090.392;000.317;39;000.555;MIDI 01
090.394;000.380;51;000.594;MIDI 01
091.101;000.081;66;000.367;MIDI 01
091.114;000.088;59;000.336;MIDI 01
091.092;000.123;78;000.398;MIDI 01
090.396;000.945;83;000.672;MIDI 01
091.390;000.094;78;000.492;MIDI 01
091.407;000.078;71;000.156;MIDI 01
091.422;000.065;69;000.219;MIDI 01
091.397;000.336;59;000.367;MIDI 01
091.755;000.169;52;000.477;MIDI 01
091.746;000.458;80;000.594;MIDI 01
092.170;000.055;76;000.352;MIDI 01
092.181;000.056;64;000.328;MIDI 01
092.189;000.068;59;000.234;MIDI 01
092.203;000.055;68;000.148;MIDI 01
092.382;000.043;64;000.422;MIDI 01
092.392;000.048;68;000.453;MIDI 01
092.399;000.055;76;000.484;MIDI 01
092.649;000.118;50;000.484;MIDI 01
092.651;000.210;82;000.578;MIDI 01
092.950;000.049;68;000.414;MIDI 01
092.970;000.077;65;000.352;MIDI 01
092.930;000.136;77;000.477;MIDI 01
093.197;000.041;58;000.320;MIDI 01
093.207;000.035;68;000.281;MIDI 01
093.177;000.150;77;000.406;MIDI 01
093.412;000.124;51;000.469;MIDI 01
093.711;000.061;67;000.281;MIDI 01
093.720;000.069;70;000.359;MIDI 01
093.700;000.093;75;000.352;MIDI 01
093.737;000.059;58;000.164;MIDI 01
093.718;000.094;63;000.359;MIDI 01
093.406;000.460;79;000.547;MIDI 01
093.966;000.046;58;000.391;MIDI 01
093.976;000.040;67;000.336;MIDI 01
093.987;000.193;75;000.445;MIDI 01
094.284;000.228;49;000.484;MIDI 01
094.374;000.340;81;000.555;MIDI 01
094.854;000.062;69;000.156;MIDI 01
094.844;000.080;67;000.250;MIDI 01
094.811;000.149;64;000.344;MIDI 01
094.826;000.143;76;000.352;MIDI 01
095.121;000.044;64;000.383;MIDI 01
095.105;000.077;76;000.398;MIDI 01
095.165;000.051;57;000.180;MIDI 01
095.107;000.225;67;000.391;MIDI 01
095.490;000.176;50;000.352;MIDI 01
095.956;000.040;66;000.250;MIDI 01
095.933;000.082;69;000.289;MIDI 01
095.954;000.081;62;000.352;MIDI 01
095.900;000.323;74;000.344;MIDI 01
096.211;000.067;69;000.359;MIDI 01
096.226;000.066;57;000.320;MIDI 01
096.214;000.093;62;000.414;MIDI 01
096.216;000.093;73;000.422;MIDI 01
096.209;000.152;66;000.258;MIDI 01
095.470;000.993;78;000.523;MIDI 01
096.492;000.035;62;000.344;MIDI 01
096.489;000.043;72;000.453;MIDI 01
096.486;000.058;57;000.367;MIDI 01
096.510;000.099;66;000.164;MIDI 01
096.791;000.028;50;000.398;MIDI 01
096.789;000.038;38;000.461;MIDI 01
096.792;000.068;66;000.281;MIDI 01
096.844;000.060;69;000.117;MIDI 01
096.763;000.272;72;000.414;MIDI 01
097.044;000.064;49;000.461;MIDI 01
097.055;000.092;66;000.375;MIDI 01
097.043;000.108;37;000.516;MIDI 01
097.107;000.064;69;000.078;MIDI 01
097.037;000.176;73;000.539;MIDI 01
097.322;000.083;48;000.586;MIDI 01
097.320;000.119;36;000.586;MIDI 01
097.330;000.110;66;000.453;MIDI 01
097.324;000.152;74;000.570;MIDI 01
097.614;000.079;48;000.664;MIDI 01
097.611;000.103;36;000.625;MIDI 01
097.667;000.056;69;000.281;MIDI 01
097.616;000.126;66;000.516;MIDI 01
097.609;000.185;74;000.633;MIDI 01
097.984;000.062;47;000.688;MIDI 01
097.982;000.078;35;000.672;MIDI 01
097.993;000.089;66;000.594;MIDI 01
097.987;000.099;75;000.617;MIDI 01
098.576;000.245;34;000.656;MIDI 01
098.580;000.289;46;000.688;MIDI 01
099.148;000.110;67;000.461;MIDI 01
099.151;000.119;75;000.461;MIDI 01
099.203;000.073;70;000.344;MIDI 01
099.168;000.124;63;000.422;MIDI 01
099.200;000.095;58;000.422;MIDI 01
098.589;000.861;79;000.648;MIDI 01
099.426;000.123;58;000.445;MIDI 01
099.428;000.133;70;000.469;MIDI 01
099.429;000.175;67;000.508;MIDI 01
099.443;000.259;63;000.516;MIDI 01
099.414;000.370;75;000.641;MIDI 01
099.718;000.104;58;000.453;MIDI 01
099.710;000.148;70;000.578;MIDI 01
099.722;000.157;67;000.492;MIDI 01
099.716;000.196;64;000.500;MIDI 01
099.708;000.245;73;000.648;MIDI 01
100.059;000.081;67;000.477;MIDI 01
100.074;000.083;58;000.414;MIDI 01
100.083;000.096;64;000.453;MIDI 01
100.065;000.120;70;000.555;MIDI 01
100.040;000.242;80;000.641;MIDI 01
100.086;000.271;73;000.445;MIDI 01
100.420;000.046;64;000.352;MIDI 01
100.416;000.079;58;000.562;MIDI 01
100.399;000.405;73;000.258;MIDI 01
100.419;000.407;67;000.586;MIDI 01
100.401;000.461;76;000.609;MIDI 01
100.782;000.247;46;000.609;MIDI 01
100.861;000.294;79;000.609;MIDI 01
101.179;000.085;77;000.539;MIDI 01
101.290;000.117;79;000.547;MIDI 01
101.423;000.052;74;000.352;MIDI 01
101.374;000.115;68;000.320;MIDI 01
101.380;000.121;70;000.453;MIDI 01
101.365;000.142;58;000.375;MIDI 01
101.372;000.160;65;000.414;MIDI 01
101.358;000.297;77;000.617;MIDI 01
101.656;000.080;68;000.398;MIDI 01
101.659;000.096;70;000.484;MIDI 01
101.668;000.097;58;000.430;MIDI 01
101.631;000.140;74;000.539;MIDI 01
101.686;000.121;65;000.422;MIDI 01
101.622;000.325;76;000.633;MIDI 01
101.923;000.136;68;000.469;MIDI 01
101.936;000.125;58;000.461;MIDI 01
101.928;000.154;70;000.484;MIDI 01
101.932;000.183;74;000.602;MIDI 01
101.948;000.186;65;000.430;MIDI 01
101.921;000.396;77;000.672;MIDI 01
102.296;000.122;68;000.438;MIDI 01
102.298;000.139;70;000.414;MIDI 01
102.309;000.134;58;000.391;MIDI 01
102.312;000.139;65;000.414;MIDI 01
102.295;000.194;74;000.539;MIDI 01
102.273;000.445;79;000.617;MIDI 01
102.658;000.067;65;000.422;MIDI 01
102.662;000.143;58;000.414;MIDI 01
102.653;000.189;74;000.617;MIDI 01
103.085;000.325;39;000.469;MIDI 01
103.682;000.061;70;000.375;MIDI 01
103.716;000.055;63;000.125;MIDI 01
103.703;000.081;67;000.383;MIDI 01
103.741;000.072;55;000.117;MIDI 01
103.766;000.065;58;000.094;MIDI 01
103.970;000.073;63;000.258;MIDI 01
103.979;000.066;58;000.391;MIDI 01
103.982;000.065;67;000.266;MIDI 01
103.990;000.067;70;000.328;MIDI 01
104.000;000.067;55;000.133;MIDI 01
104.222;000.061;63;000.352;MIDI 01
104.219;000.067;70;000.406;MIDI 01
104.227;000.068;67;000.352;MIDI 01
104.234;000.062;58;000.312;MIDI 01
104.251;000.055;55;000.258;MIDI 01
104.469;000.067;63;000.359;MIDI 01
104.464;000.073;67;000.422;MIDI 01
104.494;000.053;70;000.352;MIDI 01
104.472;000.077;58;000.297;MIDI 01
104.510;000.077;55;000.102;MIDI 01
104.747;000.107;63;000.141;MIDI 01
104.704;000.292;58;000.430;MIDI 01
104.711;000.550;70;000.391;MIDI 01
105.029;000.234;51;000.469;MIDI 01
103.171;002.141;75;000.562;MIDI 01
105.449;000.126;75;000.445;MIDI 01
105.430;000.149;63;000.430;MIDI 01
105.514;000.074;71;000.211;MIDI 01
105.521;000.069;56;000.047;MIDI 01
105.715;000.059;62;000.531;MIDI 01
105.743;000.064;56;000.336;MIDI 01
105.740;000.078;68;000.305;MIDI 01
105.765;000.057;59;000.305;MIDI 01
105.729;000.161;74;000.531;MIDI 01
105.994;000.056;65;000.438;MIDI 01
105.963;000.102;77;000.539;MIDI 01
106.022;000.048;56;000.195;MIDI 01
105.998;000.079;59;000.352;MIDI 01
105.983;000.097;68;000.453;MIDI 01
106.258;000.064;63;000.414;MIDI 01
106.251;000.081;56;000.367;MIDI 01
106.249;000.090;59;000.438;MIDI 01
106.272;000.071;71;000.359;MIDI 01
106.219;000.171;75;000.586;MIDI 01
106.522;000.040;59;000.328;MIDI 01
106.490;000.076;56;000.414;MIDI 01
106.518;000.139;63;000.438;MIDI 01
106.477;000.404;71;000.578;MIDI 01
106.808;000.240;39;000.500;MIDI 01
107.263;000.054;63;000.164;MIDI 01
107.278;000.055;67;000.320;MIDI 01
107.280;000.061;70;000.273;MIDI 01
107.513;000.067;63;000.195;MIDI 01
107.500;000.087;70;000.328;MIDI 01
107.529;000.062;67;000.195;MIDI 01
107.518;000.097;58;000.227;MIDI 01
107.749;000.058;67;000.375;MIDI 01
107.747;000.069;63;000.336;MIDI 01
107.769;000.061;70;000.336;MIDI 01
107.776;000.057;58;000.297;MIDI 01
107.985;000.066;67;000.359;MIDI 01
107.976;000.082;58;000.438;MIDI 01
107.990;000.074;63;000.391;MIDI 01
107.987;000.078;70;000.367;MIDI 01
108.003;000.069;55;000.219;MIDI 01
108.233;000.050;67;000.273;MIDI 01
108.231;000.265;58;000.445;MIDI 01
106.834;001.751;75;000.539;MIDI 01
108.219;000.399;70;000.461;MIDI 01
108.474;000.146;51;000.547;MIDI 01
108.222;000.431;63;000.430;MIDI 01
108.746;000.071;63;000.438;MIDI 01
108.737;000.115;75;000.562;MIDI 01
108.795;000.067;71;000.297;MIDI 01
108.991;000.057;62;000.578;MIDI 01
109.011;000.056;68;000.289;MIDI 01
109.008;000.061;56;000.359;MIDI 01
109.013;000.065;59;000.406;MIDI 01
108.998;000.230;74;000.594;MIDI 01
109.287;000.045;65;000.414;MIDI 01
109.291;000.069;56;000.281;MIDI 01
109.249;000.122;77;000.594;MIDI 01
109.297;000.076;59;000.328;MIDI 01
109.270;000.105;68;000.445;MIDI 01
109.547;000.100;56;000.383;MIDI 01
109.570;000.080;71;000.281;MIDI 01
109.551;000.106;63;000.445;MIDI 01
109.552;000.109;59;000.383;MIDI 01
109.515;000.210;75;000.570;MIDI 01
109.865;000.027;59;000.367;MIDI 01
109.850;000.079;56;000.359;MIDI 01
109.845;000.186;63;000.430;MIDI 01
109.815;000.441;71;000.547;MIDI 01
110.186;000.302;39;000.547;MIDI 01
110.741;000.073;63;000.273;MIDI 01
110.769;000.057;70;000.281;MIDI 01
110.768;000.126;67;000.242;MIDI 01
110.804;000.092;58;000.250;MIDI 01
111.027;000.076;63;000.273;MIDI 01
111.057;000.053;67;000.258;MIDI 01
111.053;000.066;58;000.297;MIDI 01
111.040;000.084;70;000.148;MIDI 01
111.287;000.064;63;000.312;MIDI 01
111.294;000.062;70;000.320;MIDI 01
111.292;000.075;58;000.297;MIDI 01
111.303;000.065;67;000.250;MIDI 01
111.524;000.075;63;000.352;MIDI 01
111.552;000.053;67;000.258;MIDI 01
111.532;000.075;70;000.250;MIDI 01
111.573;000.057;58;000.203;MIDI 01
111.766;000.073;63;000.328;MIDI 01
111.772;000.069;70;000.305;MIDI 01
111.780;000.064;67;000.258;MIDI 01
111.804;000.066;58;000.305;MIDI 01
112.024;000.050;67;000.305;MIDI 01
112.026;000.050;70;000.312;MIDI 01
112.016;000.075;63;000.367;MIDI 01
112.042;000.062;58;000.273;MIDI 01
112.224;000.080;70;000.383;MIDI 01
112.252;000.070;67;000.250;MIDI 01
112.250;000.074;63;000.328;MIDI 01
112.268;000.065;58;000.281;MIDI 01
112.475;000.075;67;000.344;MIDI 01
112.469;000.084;63;000.352;MIDI 01
112.487;000.068;70;000.352;MIDI 01
112.498;000.060;58;000.320;MIDI 01
112.742;000.062;58;000.336;MIDI 01
112.739;000.068;70;000.328;MIDI 01
112.718;000.091;63;000.414;MIDI 01
112.725;000.084;67;000.367;MIDI 01
112.746;000.070;55;000.258;MIDI 01
112.973;000.070;58;000.352;MIDI 01
112.969;000.075;67;000.359;MIDI 01
112.981;000.065;70;000.328;MIDI 01
112.983;000.074;55;000.289;MIDI 01
112.975;000.090;63;000.430;MIDI 01
113.204;000.086;67;000.352;MIDI 01
113.223;000.075;58;000.359;MIDI 01
113.215;000.086;63;000.398;MIDI 01
113.232;000.071;70;000.336;MIDI 01
113.246;000.059;55;000.148;MIDI 01
113.477;000.060;67;000.344;MIDI 01
113.483;000.064;55;000.297;MIDI 01
113.481;000.072;58;000.352;MIDI 01
113.496;000.059;70;000.273;MIDI 01
113.465;000.096;63;000.445;MIDI 01
113.722;000.084;63;000.375;MIDI 01
113.724;000.084;67;000.320;MIDI 01
113.737;000.073;70;000.289;MIDI 01
113.753;000.066;58;000.320;MIDI 01
113.781;000.076;55;000.031;MIDI 01
113.980;000.074;63;000.375;MIDI 01
113.990;000.072;67;000.258;MIDI 01
113.999;000.067;70;000.234;MIDI 01
114.018;000.061;58;000.211;MIDI 01
114.032;000.070;55;000.102;MIDI 01
114.244;000.067;67;000.312;MIDI 01
114.214;000.105;63;000.383;MIDI 01
114.248;000.073;70;000.227;MIDI 01
114.254;000.071;58;000.328;MIDI 01
114.265;000.069;55;000.188;MIDI 01
110.206;004.220;75;000.555;MIDI 01
114.504;000.057;67;000.242;MIDI 01
114.479;000.089;63;000.367;MIDI 01
114.506;000.072;58;000.312;MIDI 01
114.501;000.079;55;000.250;MIDI 01
114.530;000.059;70;000.164;MIDI 01
114.751;000.067;67;000.266;MIDI 01
114.742;000.084;63;000.359;MIDI 01
114.773;000.058;58;000.273;MIDI 01
114.783;000.058;70;000.180;MIDI 01
115.014;000.069;67;000.289;MIDI 01
115.021;000.068;58;000.305;MIDI 01
115.002;000.102;63;000.383;MIDI 01
115.037;000.074;55;000.148;MIDI 01
115.050;000.073;70;000.094;MIDI 01
115.301;000.062;67;000.156;MIDI 01
115.298;000.068;58;000.266;MIDI 01
115.277;000.097;63;000.312;MIDI 01
115.315;000.061;70;000.234;MIDI 01
115.311;000.092;55;000.039;MIDI 01
115.553;000.062;67;000.258;MIDI 01
115.560;000.076;58;000.211;MIDI 01
115.528;000.112;63;000.305;MIDI 01
115.555;000.088;55;000.094;MIDI 01
115.571;000.074;70;000.117;MIDI 01
115.812;000.079;67;000.266;MIDI 01
115.820;000.078;58;000.297;MIDI 01
115.796;000.120;63;000.234;MIDI 01
115.872;000.082;70;000.062;MIDI 01
116.125;000.064;67;000.172;MIDI 01
116.130;000.070;58;000.203;MIDI 01
116.117;000.098;55;000.094;MIDI 01
116.106;000.121;63;000.188;MIDI 01
116.530;000.050;67;000.164;MIDI 01
116.576;000.082;58;000.086;MIDI 01
116.561;000.160;70;000.094;MIDI 01
117.321;000.400;32;000.477;MIDI 01
116.494;001.246;63;000.289;MIDI 01
118.126;000.081;63;000.266;MIDI 01
118.134;000.105;44;000.180;MIDI 01
118.117;000.179;51;000.336;MIDI 01
118.098;000.284;70;000.250;MIDI 01
118.425;000.100;63;000.266;MIDI 01
118.428;000.102;51;000.242;MIDI 01
118.474;000.071;44;000.055;MIDI 01
118.447;000.200;72;000.289;MIDI 01
118.817;000.109;63;000.312;MIDI 01
118.802;000.184;73;000.445;MIDI 01
118.791;000.229;44;000.297;MIDI 01
118.827;000.212;58;000.250;MIDI 01
118.826;000.247;51;000.195;MIDI 01
119.185;000.064;61;000.273;MIDI 01
119.206;000.064;51;000.281;MIDI 01
119.189;000.083;58;000.273;MIDI 01
119.169;000.201;65;000.430;MIDI 01
119.447;000.048;51;000.398;MIDI 01
119.449;000.066;58;000.383;MIDI 01
119.443;000.083;61;000.320;MIDI 01
119.451;000.086;67;000.422;MIDI 01
119.881;000.088;60;000.281;MIDI 01
119.858;000.185;56;000.273;MIDI 01
119.835;000.216;63;000.219;MIDI 01
119.876;000.215;51;000.156;MIDI 01
120.177;000.075;60;000.320;MIDI 01
120.189;000.072;63;000.242;MIDI 01
120.431;000.050;60;000.305;MIDI 01
120.452;000.043;63;000.258;MIDI 01
120.475;000.060;56;000.148;MIDI 01
119.822;000.793;70;000.414;MIDI 01
120.684;000.072;63;000.250;MIDI 01
120.699;000.082;56;000.367;MIDI 01
120.941;000.058;63;000.344;MIDI 01
120.957;000.049;60;000.203;MIDI 01
120.980;000.051;56;000.211;MIDI 01
121.228;000.039;51;000.336;MIDI 01
121.629;000.154;32;000.469;MIDI 01
121.210;000.579;60;000.234;MIDI 01
120.646;001.163;68;000.453;MIDI 01
122.161;000.091;68;000.164;MIDI 01
122.183;000.090;61;000.188;MIDI 01
122.435;000.124;61;000.188;MIDI 01
122.399;000.177;68;000.312;MIDI 01
122.420;000.236;79;000.445;MIDI 01
122.152;000.520;56;000.195;MIDI 01
122.682;000.094;82;000.484;MIDI 01
122.763;000.057;61;000.172;MIDI 01
122.713;000.200;56;000.062;MIDI 01
122.993;000.045;68;000.242;MIDI 01
123.003;000.060;61;000.195;MIDI 01
122.931;000.145;80;000.516;MIDI 01
123.030;000.050;65;000.023;MIDI 01
122.139;000.972;73;000.367;MIDI 01
123.200;000.042;68;000.312;MIDI 01
123.186;000.072;77;000.531;MIDI 01
123.230;000.061;61;000.141;MIDI 01
122.976;000.377;56;000.023;MIDI 01
123.575;000.059;63;000.219;MIDI 01
123.530;000.190;61;000.031;MIDI 01
123.560;000.162;58;000.234;MIDI 01
123.836;000.043;67;000.273;MIDI 01
123.841;000.048;70;000.320;MIDI 01
123.803;000.101;63;000.344;MIDI 01
123.876;000.071;58;000.023;MIDI 01
124.072;000.058;61;000.250;MIDI 01
124.097;000.080;58;000.047;MIDI 01
124.068;000.118;70;000.320;MIDI 01
124.119;000.070;63;000.039;MIDI 01
123.503;000.694;75;000.500;MIDI 01
124.369;000.078;65;000.164;MIDI 01
124.392;000.080;73;000.211;MIDI 01
124.378;000.106;68;000.297;MIDI 01
124.405;000.090;56;000.086;MIDI 01
124.350;000.209;61;000.195;MIDI 01
124.619;000.075;65;000.312;MIDI 01
124.638;000.060;73;000.391;MIDI 01
124.662;000.045;68;000.258;MIDI 01
124.665;000.048;56;000.266;MIDI 01
124.645;000.074;61;000.297;MIDI 01
124.932;000.042;61;000.344;MIDI 01
124.943;000.056;56;000.367;MIDI 01
124.959;000.135;73;000.305;MIDI 01
124.945;000.509;65;000.281;MIDI 01
125.360;000.164;32;000.469;MIDI 01
124.326;001.345;77;000.430;MIDI 01
125.888;000.093;67;000.188;MIDI 01
125.920;000.064;58;000.180;MIDI 01
125.856;000.346;70;000.367;MIDI 01
126.153;000.069;63;000.297;MIDI 01
126.168;000.062;58;000.258;MIDI 01
126.161;000.144;75;000.398;MIDI 01
126.450;000.077;67;000.305;MIDI 01
126.487;000.066;55;000.133;MIDI 01
126.453;000.118;58;000.180;MIDI 01
126.427;000.224;79;000.492;MIDI 01
126.718;000.068;67;000.312;MIDI 01
126.748;000.064;58;000.266;MIDI 01
126.692;000.236;77;000.484;MIDI 01
126.944;000.059;73;000.492;MIDI 01
126.972;000.049;70;000.344;MIDI 01
126.952;000.078;58;000.430;MIDI 01
127.404;000.112;63;000.273;MIDI 01
127.366;000.174;66;000.305;MIDI 01
127.369;000.201;56;000.305;MIDI 01
127.375;000.242;60;000.289;MIDI 01
127.696;000.076;68;000.375;MIDI 01
127.710;000.097;66;000.375;MIDI 01
127.766;000.058;60;000.211;MIDI 01
127.761;000.092;56;000.188;MIDI 01
127.974;000.033;60;000.359;MIDI 01
127.972;000.047;66;000.258;MIDI 01
127.326;000.695;72;000.469;MIDI 01
128.011;000.041;63;000.234;MIDI 01
127.977;000.086;68;000.383;MIDI 01
128.268;000.092;68;000.258;MIDI 01
128.276;000.126;53;000.188;MIDI 01
128.283;000.125;61;000.242;MIDI 01
128.261;000.156;65;000.281;MIDI 01
128.256;000.242;56;000.203;MIDI 01
128.540;000.069;65;000.297;MIDI 01
128.556;000.057;61;000.219;MIDI 01
128.548;000.073;68;000.352;MIDI 01
128.527;000.098;56;000.227;MIDI 01
128.845;000.038;56;000.344;MIDI 01
129.240;000.145;32;000.430;MIDI 01
128.836;000.557;61;000.250;MIDI 01
128.848;000.575;68;000.258;MIDI 01
129.802;000.061;56;000.227;MIDI 01
128.232;001.645;73;000.445;MIDI 01
129.717;000.195;61;000.430;MIDI 01
130.067;000.065;63;000.234;MIDI 01
130.055;000.079;56;000.344;MIDI 01
129.999;000.156;61;000.219;MIDI 01
130.042;000.154;68;000.367;MIDI 01
130.404;000.201;63;000.180;MIDI 01
130.366;000.245;73;000.445;MIDI 01
130.420;000.195;68;000.234;MIDI 01
130.402;000.223;56;000.219;MIDI 01
130.398;000.230;60;000.289;MIDI 01
130.773;000.057;63;000.297;MIDI 01
130.749;000.089;60;000.367;MIDI 01
130.795;000.047;56;000.312;MIDI 01
130.793;000.062;51;000.109;MIDI 01
130.740;000.258;72;000.438;MIDI 01
131.017;000.067;60;000.375;MIDI 01
131.026;000.068;63;000.289;MIDI 01
131.053;000.060;51;000.117;MIDI 01
131.029;000.100;56;000.344;MIDI 01
131.099;000.061;65;000.148;MIDI 01
131.011;000.226;68;000.422;MIDI 01
131.455;000.125;58;000.242;MIDI 01
131.415;000.196;63;000.180;MIDI 01
131.408;000.204;51;000.320;MIDI 01
131.431;000.199;67;000.289;MIDI 01
131.791;000.055;67;000.281;MIDI 01
131.786;000.061;58;000.266;MIDI 01
131.772;000.097;63;000.250;MIDI 01
131.793;000.078;51;000.234;MIDI 01
132.040;000.062;67;000.273;MIDI 01
132.062;000.059;58;000.242;MIDI 01
132.056;000.076;51;000.273;MIDI 01
132.029;000.122;63;000.328;MIDI 01
132.303;000.083;51;000.352;MIDI 01
132.315;000.080;58;000.242;MIDI 01
132.311;000.086;67;000.320;MIDI 01
132.301;000.109;63;000.320;MIDI 01
132.582;000.076;63;000.273;MIDI 01
132.597;000.065;51;000.242;MIDI 01
132.599;000.068;67;000.320;MIDI 01
132.592;000.108;58;000.312;MIDI 01
132.887;000.045;51;000.438;MIDI 01
132.879;000.550;67;000.297;MIDI 01
132.885;000.549;58;000.312;MIDI 01
133.352;000.172;32;000.578;MIDI 01
131.370;002.275;70;000.414;MIDI 01
133.953;000.074;63;000.203;MIDI 01
133.949;000.124;51;000.219;MIDI 01
133.934;000.143;61;000.172;MIDI 01
133.951;000.261;67;000.258;MIDI 01
133.890;000.347;70;000.336;MIDI 01
134.208;000.114;63;000.352;MIDI 01
134.182;000.162;72;000.477;MIDI 01
134.217;000.130;61;000.406;MIDI 01
134.199;000.186;51;000.297;MIDI 01
134.469;000.072;63;000.406;MIDI 01
134.445;000.144;73;000.492;MIDI 01
134.466;000.139;51;000.297;MIDI 01
134.448;000.194;61;000.289;MIDI 01
134.703;000.081;51;000.312;MIDI 01
134.722;000.068;63;000.312;MIDI 01
134.769;000.075;61;000.031;MIDI 01
134.677;000.184;65;000.492;MIDI 01
134.965;000.079;63;000.375;MIDI 01
134.928;000.155;67;000.516;MIDI 01
135.334;000.111;66;000.258;MIDI 01
135.292;000.192;63;000.266;MIDI 01
135.324;000.184;56;000.328;MIDI 01
135.297;000.222;61;000.273;MIDI 01
135.647;000.061;66;000.344;MIDI 01
135.677;000.057;63;000.211;MIDI 01
135.683;000.054;61;000.273;MIDI 01
135.702;000.051;56;000.172;MIDI 01
135.900;000.043;63;000.305;MIDI 01
135.906;000.057;56;000.312;MIDI 01
135.902;000.064;66;000.367;MIDI 01
135.898;000.080;61;000.359;MIDI 01
135.266;000.716;70;000.492;MIDI 01
136.175;000.080;60;000.305;MIDI 01
136.150;000.116;63;000.266;MIDI 01
136.180;000.093;51;000.188;MIDI 01
136.152;000.128;66;000.352;MIDI 01
136.156;000.143;56;000.227;MIDI 01
136.463;000.050;60;000.234;MIDI 01
136.465;000.052;63;000.297;MIDI 01
136.478;000.044;66;000.266;MIDI 01
136.748;000.045;51;000.320;MIDI 01
136.757;000.158;60;000.203;MIDI 01
136.734;000.290;66;000.172;MIDI 01
137.117;000.102;32;000.508;MIDI 01
136.145;001.076;68;000.391;MIDI 01
137.541;000.093;65;000.211;MIDI 01
137.558;000.076;68;000.258;MIDI 01
137.773;000.122;68;000.258;MIDI 01
137.771;000.328;79;000.484;MIDI 01
138.072;000.061;65;000.219;MIDI 01
138.036;000.111;82;000.523;MIDI 01
137.565;000.694;56;000.195;MIDI 01
138.338;000.053;68;000.281;MIDI 01
138.312;000.081;65;000.305;MIDI 01
138.291;000.175;80;000.547;MIDI 01
138.377;000.097;61;000.055;MIDI 01
137.498;001.089;73;000.438;MIDI 01
138.559;000.068;68;000.383;MIDI 01
138.592;000.056;65;000.102;MIDI 01
138.527;000.151;77;000.555;MIDI 01
138.922;000.086;63;000.312;MIDI 01
138.959;000.109;55;000.188;MIDI 01
138.918;000.161;67;000.180;MIDI 01
138.938;000.170;58;000.227;MIDI 01
138.920;000.208;61;000.141;MIDI 01
139.217;000.062;70;000.336;MIDI 01
139.225;000.058;67;000.266;MIDI 01
139.199;000.091;63;000.266;MIDI 01
139.438;000.055;58;000.141;MIDI 01
139.444;000.054;61;000.219;MIDI 01
139.447;000.105;70;000.359;MIDI 01
138.860;000.750;75;000.484;MIDI 01
139.753;000.089;65;000.062;MIDI 01
139.744;000.109;68;000.250;MIDI 01
139.759;000.102;73;000.273;MIDI 01
139.733;000.207;61;000.180;MIDI 01
140.014;000.072;65;000.281;MIDI 01
140.031;000.056;73;000.359;MIDI 01
140.036;000.054;68;000.289;MIDI 01
140.045;000.050;56;000.258;MIDI 01
140.043;000.081;61;000.203;MIDI 01
140.305;000.044;61;000.344;MIDI 01
140.330;000.053;56;000.242;MIDI 01
140.299;000.481;65;000.328;MIDI 01
140.698;000.169;32;000.438;MIDI 01
140.312;000.639;73;000.211;MIDI 01
139.700;001.331;77;000.453;MIDI 01
141.182;000.099;67;000.328;MIDI 01
141.242;000.073;58;000.195;MIDI 01
141.493;000.058;63;000.328;MIDI 01
141.170;000.390;70;000.398;MIDI 01
141.509;000.075;67;000.297;MIDI 01
141.531;000.069;58;000.273;MIDI 01
141.500;000.132;75;000.414;MIDI 01
141.905;000.053;70;000.188;MIDI 01
141.875;000.131;67;000.297;MIDI 01
141.842;000.233;79;000.453;MIDI 01
141.910;000.195;55;000.023;MIDI 01
141.897;000.231;58;000.250;MIDI 01
142.171;000.071;67;000.328;MIDI 01
142.174;000.071;70;000.172;MIDI 01
142.162;000.090;58;000.188;MIDI 01
142.128;000.233;77;000.492;MIDI 01
142.406;000.049;73;000.484;MIDI 01
142.408;000.057;58;000.398;MIDI 01
142.403;000.065;70;000.414;MIDI 01
142.848;000.137;68;000.305;MIDI 01
142.800;000.237;66;000.414;MIDI 01
142.842;000.234;63;000.297;MIDI 01
142.845;000.276;60;000.297;MIDI 01
142.827;000.296;56;000.328;MIDI 01
143.238;000.051;66;000.320;MIDI 01
143.246;000.045;63;000.250;MIDI 01
143.208;000.087;68;000.281;MIDI 01
143.266;000.052;60;000.227;MIDI 01
143.242;000.219;56;000.039;MIDI 01
142.786;000.712;72;000.477;MIDI 01
143.474;000.045;66;000.312;MIDI 01
143.468;000.074;60;000.336;MIDI 01
143.482;000.077;63;000.172;MIDI 01
143.479;000.140;68;000.336;MIDI 01
143.792;000.065;61;000.203;MIDI 01
143.790;000.075;68;000.258;MIDI 01
143.783;000.117;53;000.250;MIDI 01
143.766;000.157;65;000.352;MIDI 01
143.764;000.261;56;000.188;MIDI 01
144.047;000.089;61;000.273;MIDI 01
144.054;000.084;65;000.242;MIDI 01
144.048;000.091;68;000.305;MIDI 01
144.052;000.135;56;000.086;MIDI 01
144.355;000.040;56;000.438;MIDI 01
144.392;000.069;53;000.062;MIDI 01
144.647;000.120;32;000.414;MIDI 01
144.340;000.497;61;000.305;MIDI 01
144.345;000.567;68;000.312;MIDI 01
143.736;001.325;73;000.422;MIDI 01
145.065;000.064;64;000.164;MIDI 01
145.015;000.118;61;000.359;MIDI 01
145.072;000.062;56;000.203;MIDI 01
145.284;000.079;64;000.297;MIDI 01
145.320;000.062;56;000.258;MIDI 01
145.574;000.060;64;000.305;MIDI 01
145.589;000.068;56;000.312;MIDI 01
145.295;000.370;68;000.391;MIDI 01
145.576;000.095;61;000.336;MIDI 01
145.537;000.331;72;000.445;MIDI 01
145.852;000.058;64;000.266;MIDI 01
145.852;000.059;56;000.289;MIDI 01
145.822;000.105;61;000.359;MIDI 01
145.801;000.347;70;000.508;MIDI 01
146.090;000.098;56;000.344;MIDI 01
146.067;000.374;68;000.547;MIDI 01
146.505;000.268;60;000.250;MIDI 01
146.493;000.282;56;000.250;MIDI 01
146.515;000.270;63;000.242;MIDI 01
146.544;000.243;51;000.125;MIDI 01
146.932;000.061;63;000.234;MIDI 01
146.876;000.133;60;000.297;MIDI 01
146.936;000.077;56;000.289;MIDI 01
146.964;000.076;51;000.078;MIDI 01
147.177;000.070;63;000.273;MIDI 01
147.174;000.099;60;000.359;MIDI 01
147.215;000.069;56;000.320;MIDI 01
147.451;000.048;63;000.273;MIDI 01
147.454;000.055;60;000.320;MIDI 01
147.716;000.090;60;000.344;MIDI 01
147.783;000.058;56;000.242;MIDI 01
147.756;000.089;63;000.094;MIDI 01
148.012;000.040;56;000.312;MIDI 01
148.017;000.080;60;000.305;MIDI 01
148.065;000.049;51;000.203;MIDI 01
148.512;000.216;32;000.352;MIDI 01
148.555;000.258;61;000.383;MIDI 01
149.110;000.091;64;000.273;MIDI 01
149.150;000.073;56;000.266;MIDI 01
149.080;000.165;61;000.344;MIDI 01
146.432;002.899;72;000.469;MIDI 01
149.441;000.052;61;000.266;MIDI 01
149.406;000.091;64;000.289;MIDI 01
149.439;000.104;56;000.289;MIDI 01
149.398;000.433;68;000.336;MIDI 01
149.806;000.111;64;000.250;MIDI 01
149.789;000.139;61;000.305;MIDI 01
149.814;000.176;52;000.188;MIDI 01
149.799;000.209;56;000.258;MIDI 01
150.145;000.051;64;000.242;MIDI 01
150.118;000.100;61;000.383;MIDI 01
149.757;000.556;72;000.391;MIDI 01
150.143;000.317;70;000.352;MIDI 01
150.427;000.053;61;000.328;MIDI 01
150.447;000.069;56;000.281;MIDI 01
150.431;000.221;68;000.383;MIDI 01
150.806;000.221;63;000.273;MIDI 01
150.820;000.219;51;000.195;MIDI 01
150.796;000.249;56;000.094;MIDI 01
150.798;000.282;60;000.281;MIDI 01
151.148;000.083;56;000.211;MIDI 01
151.111;000.140;60;000.234;MIDI 01
151.410;000.048;60;000.297;MIDI 01
151.430;000.053;56;000.227;MIDI 01
151.433;000.061;63;000.102;MIDI 01
151.681;000.076;64;000.328;MIDI 01
151.698;000.079;52;000.195;MIDI 01
151.664;000.132;61;000.375;MIDI 01
151.661;000.170;56;000.250;MIDI 01
151.975;000.055;64;000.211;MIDI 01
151.991;000.071;56;000.297;MIDI 01
151.995;000.072;52;000.125;MIDI 01
150.761;001.339;72;000.383;MIDI 01
151.960;000.188;61;000.398;MIDI 01
151.946;000.205;70;000.430;MIDI 01
152.202;000.055;52;000.328;MIDI 01
152.201;000.061;64;000.320;MIDI 01
152.242;000.082;56;000.406;MIDI 01
152.217;000.336;68;000.500;MIDI 01
152.620;000.205;60;000.352;MIDI 01
152.610;000.242;63;000.305;MIDI 01
152.636;000.218;56;000.305;MIDI 01
152.641;000.227;51;000.219;MIDI 01
152.984;000.088;60;000.328;MIDI 01
152.980;000.092;63;000.305;MIDI 01
153.004;000.077;56;000.312;MIDI 01
153.022;000.066;51;000.133;MIDI 01
153.258;000.069;63;000.367;MIDI 01
153.244;000.097;60;000.438;MIDI 01
153.293;000.052;51;000.211;MIDI 01
153.271;000.078;56;000.352;MIDI 01
153.546;000.066;63;000.328;MIDI 01
153.557;000.074;56;000.344;MIDI 01
153.533;000.175;60;000.422;MIDI 01
153.856;000.083;63;000.312;MIDI 01
153.874;000.068;56;000.320;MIDI 01
153.858;000.088;51;000.133;MIDI 01
153.872;000.115;60;000.398;MIDI 01
152.584;001.406;72;000.453;MIDI 01
153.859;000.500;70;000.422;MIDI 01
154.297;000.249;63;000.281;MIDI 01
154.328;000.276;56;000.312;MIDI 01
154.298;000.320;68;000.438;MIDI 01
154.340;000.330;51;000.227;MIDI 01
154.326;000.850;60;000.250;MIDI 01
155.008;000.325;32;000.453;MIDI 01
155.801;000.080;63;000.047;MIDI 01
155.787;000.096;60;000.281;MIDI 01
155.797;000.250;56;000.234;MIDI 01
156.086;000.074;63;000.312;MIDI 01
156.100;000.067;60;000.297;MIDI 01
156.089;000.164;56;000.117;MIDI 01
156.342;000.096;63;000.344;MIDI 01
156.382;000.092;56;000.102;MIDI 01
156.352;000.179;60;000.336;MIDI 01
156.665;000.050;56;000.297;MIDI 01
156.670;000.074;51;000.117;MIDI 01
155.075;001.784;68;000.469;MIDI 01
156.603;000.264;58;000.445;MIDI 01
156.909;000.062;61;000.297;MIDI 01
156.900;000.104;56;000.336;MIDI 01
156.889;000.181;65;000.445;MIDI 01
157.390;000.248;56;000.305;MIDI 01
157.366;000.274;63;000.289;MIDI 01
157.382;000.276;60;000.258;MIDI 01
157.404;000.267;51;000.219;MIDI 01
157.802;000.061;63;000.266;MIDI 01
157.794;000.076;60;000.367;MIDI 01
157.838;000.057;56;000.281;MIDI 01
158.048;000.071;60;000.344;MIDI 01
158.043;000.078;63;000.312;MIDI 01
158.048;000.081;56;000.297;MIDI 01
158.287;000.055;63;000.336;MIDI 01
158.343;000.061;56;000.219;MIDI 01
158.290;000.142;60;000.344;MIDI 01
158.581;000.055;61;000.234;MIDI 01
158.559;000.089;56;000.281;MIDI 01
158.606;000.072;51;000.094;MIDI 01
158.551;000.231;58;000.406;MIDI 01
157.353;001.494;68;000.414;MIDI 01
158.843;000.067;56;000.344;MIDI 01
158.827;000.131;65;000.414;MIDI 01
159.232;000.126;56;000.297;MIDI 01
159.234;000.129;63;000.266;MIDI 01
159.553;000.067;63;000.258;MIDI 01
159.555;000.083;56;000.383;MIDI 01
159.217;000.626;60;000.289;MIDI 01
159.781;000.070;58;000.406;MIDI 01
159.211;000.642;68;000.336;MIDI 01
159.785;000.079;55;000.359;MIDI 01
160.074;000.083;56;000.336;MIDI 01
160.081;000.078;63;000.219;MIDI 01
160.347;000.058;63;000.250;MIDI 01
160.331;000.127;56;000.344;MIDI 01
160.059;000.470;51;000.242;MIDI 01
160.593;000.050;63;000.219;MIDI 01
160.583;000.061;55;000.406;MIDI 01
160.585;000.087;58;000.414;MIDI 01
160.054;000.622;60;000.359;MIDI 01
160.052;000.634;68;000.391;MIDI 01
160.908;000.083;56;000.320;MIDI 01
160.899;000.095;63;000.258;MIDI 01
160.898;000.216;51;000.094;MIDI 01
161.196;000.048;63;000.266;MIDI 01
161.172;000.128;56;000.367;MIDI 01
161.458;000.072;63;000.078;MIDI 01
161.454;000.102;58;000.359;MIDI 01
160.856;000.706;60;000.344;MIDI 01
160.865;000.718;68;000.359;MIDI 01
161.444;000.154;51;000.273;MIDI 01
161.475;000.139;55;000.297;MIDI 01
161.836;000.067;63;000.211;MIDI 01
161.826;000.099;56;000.312;MIDI 01
161.805;000.231;51;000.211;MIDI 01
162.190;000.097;63;000.273;MIDI 01
162.155;000.249;56;000.320;MIDI 01
161.783;000.810;60;000.344;MIDI 01
162.595;000.245;55;000.297;MIDI 01
162.598;000.317;51;000.281;MIDI 01
162.600;000.850;58;000.242;MIDI 01
161.785;001.769;68;000.352;MIDI 01
163.318;000.281;32;000.453;MIDI 01
164.108;000.117;60;000.141;MIDI 01
164.114;000.124;63;000.188;MIDI 01
164.103;000.211;56;000.297;MIDI 01
164.517;000.085;63;000.195;MIDI 01
164.504;000.104;60;000.320;MIDI 01
164.508;000.140;56;000.344;MIDI 01
164.867;000.090;63;000.273;MIDI 01
164.873;000.124;56;000.336;MIDI 01
164.839;000.162;60;000.359;MIDI 01
165.171;000.076;63;000.289;MIDI 01
165.173;000.092;60;000.398;MIDI 01
165.191;000.086;56;000.312;MIDI 01
165.489;000.095;63;000.312;MIDI 01
165.479;000.121;60;000.414;MIDI 01
165.490;000.140;56;000.312;MIDI 01
165.805;000.107;63;000.297;MIDI 01
165.826;000.120;56;000.359;MIDI 01
165.791;000.170;60;000.445;MIDI 01
166.175;000.089;63;000.266;MIDI 01
166.140;000.156;60;000.445;MIDI 01
166.197;000.101;56;000.281;MIDI 01
166.566;000.095;63;000.312;MIDI 01
166.568;000.166;56;000.281;MIDI 01
166.542;000.225;60;000.391;MIDI 01
167.101;000.086;63;000.328;MIDI 01
167.120;000.208;56;000.164;MIDI 01
167.090;000.659;60;000.383;MIDI 01
167.607;000.244;63;000.336;MIDI 01
167.859;000.294;51;000.188;MIDI 01
167.810;000.360;56;000.312;MIDI 01
167.779;000.879;61;000.438;MIDI 01
168.706;000.600;51;000.180;MIDI 01
168.678;000.680;63;000.211;MIDI 01
168.661;000.781;60;000.344;MIDI 01
168.661;000.786;56;000.242;MIDI 01
170.317;006.182;51;000.266;MIDI 01
170.294;006.273;56;000.297;MIDI 01
170.268;006.301;60;000.375;MIDI 01
170.296;006.335;63;000.297;MIDI 01
