Start;Duration;Pitch;Velocity;Instrument
000.411;000.035;63;000.297;MIDI 01
000.515;000.100;44;000.344;MIDI 01
000.481;000.211;65;000.281;MIDI 01
000.606;000.206;63;000.328;MIDI 01
000.911;000.112;62;000.359;MIDI 01
000.904;000.126;60;000.258;MIDI 01
001.093;000.061;51;000.227;MIDI 01
001.071;000.128;63;000.406;MIDI 01
001.225;000.074;50;000.312;MIDI 01
001.249;000.131;72;000.484;MIDI 01
001.372;000.053;60;000.211;MIDI 01
001.407;000.123;70;000.445;MIDI 01
001.495;000.102;51;000.367;MIDI 01
001.544;000.098;68;000.469;MIDI 01
001.680;000.044;46;000.258;MIDI 01
001.682;000.165;67;000.523;MIDI 01
001.828;000.120;61;000.414;MIDI 01
001.823;000.128;77;000.523;MIDI 01
001.980;000.082;51;000.422;MIDI 01
001.948;000.151;76;000.531;MIDI 01
002.104;000.049;75;000.539;MIDI 01
002.138;000.050;50;000.297;MIDI 01
002.218;000.045;61;000.344;MIDI 01
002.355;000.101;51;000.398;MIDI 01
002.476;000.036;63;000.367;MIDI 01
002.517;000.059;44;000.406;MIDI 01
002.522;000.100;65;000.430;MIDI 01
002.634;000.087;63;000.492;MIDI 01
002.778;000.069;60;000.359;MIDI 01
002.791;000.091;62;000.383;MIDI 01
002.920;000.040;51;000.352;MIDI 01
002.905;000.095;63;000.453;MIDI 01
003.061;000.052;50;000.180;MIDI 01
003.055;000.106;72;000.500;MIDI 01
003.156;000.044;60;000.281;MIDI 01
003.188;000.114;70;000.469;MIDI 01
003.276;000.066;51;000.289;MIDI 01
003.318;000.076;68;000.445;MIDI 01
003.456;000.078;67;000.438;MIDI 01
003.549;000.077;61;000.383;MIDI 01
003.590;000.083;77;000.445;MIDI 01
003.677;000.065;51;000.336;MIDI 01
003.695;000.133;76;000.477;MIDI 01
003.819;000.051;50;000.344;MIDI 01
003.855;000.028;75;000.344;MIDI 01
003.899;000.072;61;000.445;MIDI 01
004.042;000.047;51;000.352;MIDI 01
004.078;000.058;75;000.453;MIDI 01
004.162;000.050;48;000.500;MIDI 01
004.174;000.101;77;000.562;MIDI 01
004.248;000.109;75;000.648;MIDI 01
004.390;000.069;63;000.461;MIDI 01
004.392;000.201;74;000.586;MIDI 01
004.544;000.128;75;000.555;MIDI 01
004.537;000.136;56;000.461;MIDI 01
004.711;000.051;48;000.453;MIDI 01
004.731;000.169;84;000.562;MIDI 01
004.923;000.048;64;000.461;MIDI 01
004.903;000.130;79;000.508;MIDI 01
005.055;000.093;56;000.375;MIDI 01
005.059;000.155;82;000.539;MIDI 01
005.190;000.058;49;000.234;MIDI 01
005.179;000.120;80;000.555;MIDI 01
005.280;000.061;56;000.039;MIDI 01
005.312;000.089;76;000.555;MIDI 01
005.342;000.062;65;000.430;MIDI 01
005.409;000.076;65;000.188;MIDI 01
005.463;000.090;79;000.492;MIDI 01
005.507;000.049;58;000.383;MIDI 01
005.549;000.086;77;000.516;MIDI 01
005.586;000.080;56;000.328;MIDI 01
005.672;000.073;65;000.359;MIDI 01
005.678;000.091;72;000.539;MIDI 01
005.818;000.062;58;000.266;MIDI 01
005.806;000.105;75;000.469;MIDI 01
005.916;000.099;73;000.516;MIDI 01
006.054;000.108;61;000.422;MIDI 01
006.046;000.135;65;000.445;MIDI 01
005.940;000.292;49;000.359;MIDI 01
006.197;000.075;67;000.461;MIDI 01
006.171;000.105;58;000.445;MIDI 01
006.308;000.114;68;000.492;MIDI 01
006.428;000.100;61;000.391;MIDI 01
006.440;000.101;72;000.508;MIDI 01
006.318;000.258;53;000.305;MIDI 01
006.568;000.085;58;000.297;MIDI 01
006.557;000.133;70;000.469;MIDI 01
006.695;000.095;68;000.430;MIDI 01
006.826;000.080;65;000.445;MIDI 01
006.838;000.071;61;000.352;MIDI 01
006.965;000.080;68;000.430;MIDI 01
006.969;000.125;58;000.336;MIDI 01
007.078;000.181;67;000.477;MIDI 01
007.240;000.110;62;000.375;MIDI 01
007.117;000.265;55;000.289;MIDI 01
007.246;000.140;61;000.328;MIDI 01
007.375;000.043;65;000.375;MIDI 01
007.428;000.040;58;000.328;MIDI 01
006.688;000.802;51;000.359;MIDI 01
007.644;000.054;63;000.438;MIDI 01
007.698;000.092;44;000.391;MIDI 01
007.740;000.054;65;000.281;MIDI 01
007.794;000.093;63;000.516;MIDI 01
007.986;000.074;60;000.383;MIDI 01
007.971;000.100;62;000.477;MIDI 01
008.096;000.083;63;000.461;MIDI 01
008.151;000.052;51;000.320;MIDI 01
008.264;000.048;50;000.305;MIDI 01
008.223;000.118;72;000.531;MIDI 01
008.350;000.040;60;000.344;MIDI 01
008.363;000.109;70;000.500;MIDI 01
008.488;000.081;51;000.320;MIDI 01
008.477;000.093;68;000.508;MIDI 01
008.609;000.064;46;000.367;MIDI 01
008.600;000.162;67;000.547;MIDI 01
008.768;000.047;61;000.422;MIDI 01
008.735;000.119;77;000.547;MIDI 01
008.887;000.083;51;000.414;MIDI 01
008.863;000.112;76;000.492;MIDI 01
008.984;000.037;75;000.477;MIDI 01
009.041;000.050;50;000.336;MIDI 01
009.122;000.042;61;000.344;MIDI 01
009.273;000.076;51;000.297;MIDI 01
009.340;000.054;63;000.453;MIDI 01
009.402;000.039;44;000.320;MIDI 01
009.431;000.069;65;000.289;MIDI 01
009.511;000.080;63;000.484;MIDI 01
009.618;000.081;60;000.430;MIDI 01
009.639;000.111;62;000.484;MIDI 01
009.758;000.053;51;000.367;MIDI 01
009.760;000.100;63;000.516;MIDI 01
009.867;000.071;50;000.398;MIDI 01
009.901;000.109;72;000.531;MIDI 01
010.036;000.101;70;000.500;MIDI 01
010.116;000.068;51;000.359;MIDI 01
010.143;000.088;68;000.438;MIDI 01
010.259;000.114;67;000.508;MIDI 01
010.406;000.068;77;000.445;MIDI 01
010.385;000.095;61;000.375;MIDI 01
010.512;000.066;51;000.414;MIDI 01
010.493;000.132;76;000.453;MIDI 01
010.640;000.044;75;000.477;MIDI 01
010.651;000.051;50;000.289;MIDI 01
010.739;000.043;61;000.375;MIDI 01
010.944;000.034;75;000.328;MIDI 01
010.878;000.117;51;000.336;MIDI 01
011.017;000.053;47;000.297;MIDI 01
011.033;000.099;77;000.438;MIDI 01
011.125;000.110;75;000.469;MIDI 01
011.239;000.140;63;000.367;MIDI 01
011.304;000.078;74;000.461;MIDI 01
011.420;000.069;75;000.445;MIDI 01
011.394;000.103;57;000.367;MIDI 01
011.566;000.105;76;000.523;MIDI 01
011.618;000.088;63;000.344;MIDI 01
011.535;000.180;54;000.398;MIDI 01
011.677;000.122;77;000.508;MIDI 01
011.807;000.089;78;000.578;MIDI 01
011.936;000.072;46;000.414;MIDI 01
012.171;000.125;63;000.469;MIDI 01
011.967;000.345;79;000.539;MIDI 01
012.173;000.163;91;000.602;MIDI 01
012.333;000.111;58;000.469;MIDI 01
012.335;000.137;86;000.555;MIDI 01
012.477;000.114;87;000.594;MIDI 01
012.453;000.146;55;000.484;MIDI 01
012.562;000.088;63;000.398;MIDI 01
012.607;000.086;83;000.508;MIDI 01
012.676;000.044;58;000.383;MIDI 01
012.744;000.103;84;000.578;MIDI 01
012.816;000.046;46;000.367;MIDI 01
012.891;000.067;79;000.539;MIDI 01
012.993;000.064;62;000.367;MIDI 01
012.974;000.147;82;000.477;MIDI 01
013.070;000.147;58;000.383;MIDI 01
013.113;000.110;80;000.508;MIDI 01
013.231;000.068;77;000.469;MIDI 01
013.246;000.059;56;000.281;MIDI 01
013.341;000.094;62;000.367;MIDI 01
013.380;000.118;72;000.430;MIDI 01
013.498;000.149;58;000.180;MIDI 01
013.518;000.156;74;000.453;MIDI 01
013.647;000.042;51;000.328;MIDI 01
013.694;000.070;75;000.383;MIDI 01
013.841;000.068;70;000.445;MIDI 01
013.870;000.066;67;000.305;MIDI 01
014.000;000.056;63;000.164;MIDI 01
013.993;000.066;71;000.422;MIDI 01
014.123;000.067;72;000.305;MIDI 01
014.096;000.190;58;000.312;MIDI 01
014.215;000.073;73;000.438;MIDI 01
014.217;000.073;67;000.359;MIDI 01
014.352;000.057;74;000.438;MIDI 01
014.338;000.077;63;000.289;MIDI 01
014.475;000.070;75;000.477;MIDI 01
014.477;000.096;60;000.336;MIDI 01
014.596;000.105;76;000.523;MIDI 01
014.577;000.130;66;000.422;MIDI 01
014.711;000.102;77;000.469;MIDI 01
014.724;000.106;63;000.289;MIDI 01
014.851;000.153;58;000.375;MIDI 01
014.977;000.086;66;000.367;MIDI 01
015.086;000.122;63;000.344;MIDI 01
014.851;000.475;78;000.500;MIDI 01
015.228;000.192;57;000.391;MIDI 01
015.360;000.101;65;000.352;MIDI 01
015.373;000.108;76;000.461;MIDI 01
015.481;000.098;77;000.516;MIDI 01
015.497;000.141;63;000.320;MIDI 01
015.651;000.136;58;000.398;MIDI 01
015.780;000.084;66;000.367;MIDI 01
015.891;000.108;63;000.320;MIDI 01
015.625;000.566;84;000.508;MIDI 01
016.176;000.045;75;000.391;MIDI 01
016.038;000.210;57;000.281;MIDI 01
016.289;000.070;77;000.438;MIDI 01
016.154;000.206;65;000.398;MIDI 01
016.402;000.078;80;000.406;MIDI 01
016.468;000.060;78;000.453;MIDI 01
016.424;000.133;53;000.430;MIDI 01
016.574;000.046;77;000.422;MIDI 01
016.536;000.155;65;000.367;MIDI 01
016.700;000.074;60;000.328;MIDI 01
016.722;000.074;75;000.352;MIDI 01
016.823;000.082;77;000.406;MIDI 01
016.834;000.190;58;000.281;MIDI 01
016.929;000.113;65;000.320;MIDI 01
016.942;000.114;72;000.422;MIDI 01
017.071;000.093;61;000.344;MIDI 01
017.078;000.106;75;000.422;MIDI 01
017.222;000.159;56;000.336;MIDI 01
017.353;000.088;64;000.312;MIDI 01
017.488;000.067;58;000.305;MIDI 01
017.214;000.495;73;000.383;MIDI 01
017.597;000.242;55;000.328;MIDI 01
017.723;000.134;63;000.383;MIDI 01
017.745;000.129;72;000.414;MIDI 01
017.869;000.121;58;000.297;MIDI 01
017.863;000.148;73;000.469;MIDI 01
018.041;000.179;56;000.422;MIDI 01
018.175;000.102;64;000.383;MIDI 01
018.295;000.061;59;000.367;MIDI 01
018.021;000.441;76;000.523;MIDI 01
018.457;000.159;55;000.297;MIDI 01
018.553;000.101;63;000.383;MIDI 01
018.524;000.132;74;000.477;MIDI 01
018.660;000.137;75;000.508;MIDI 01
018.701;000.133;58;000.258;MIDI 01
018.851;000.222;53;000.352;MIDI 01
019.024;000.151;62;000.422;MIDI 01
019.182;000.093;56;000.312;MIDI 01
018.818;000.498;82;000.508;MIDI 01
019.298;000.134;52;000.383;MIDI 01
019.414;000.078;73;000.469;MIDI 01
019.438;000.159;61;000.422;MIDI 01
019.567;000.073;75;000.469;MIDI 01
019.617;000.048;56;000.250;MIDI 01
019.658;000.042;79;000.422;MIDI 01
019.671;000.137;51;000.461;MIDI 01
019.689;000.146;77;000.492;MIDI 01
019.777;000.098;61;000.453;MIDI 01
019.808;000.109;75;000.516;MIDI 01
019.883;000.042;55;000.320;MIDI 01
019.934;000.066;73;000.422;MIDI 01
020.043;000.045;44;000.500;MIDI 01
020.078;000.113;75;000.477;MIDI 01
020.252;000.109;70;000.438;MIDI 01
020.250;000.164;60;000.477;MIDI 01
020.393;000.099;56;000.352;MIDI 01
020.399;000.169;73;000.469;MIDI 01
020.542;000.164;52;000.375;MIDI 01
020.649;000.157;60;000.406;MIDI 01
020.784;000.117;56;000.406;MIDI 01
020.527;000.508;72;000.477;MIDI 01
020.911;000.222;53;000.438;MIDI 01
021.048;000.090;60;000.359;MIDI 01
021.046;000.134;67;000.453;MIDI 01
021.180;000.026;56;000.414;MIDI 01
021.189;000.109;68;000.484;MIDI 01
021.328;000.033;46;000.430;MIDI 01
021.380;000.052;71;000.258;MIDI 01
021.347;000.159;72;000.195;MIDI 01
021.490;000.128;70;000.469;MIDI 01
021.535;000.093;62;000.430;MIDI 01
021.624;000.095;56;000.336;MIDI 01
021.642;000.091;68;000.461;MIDI 01
021.762;000.085;67;000.422;MIDI 01
021.770;000.139;51;000.383;MIDI 01
021.903;000.074;70;000.492;MIDI 01
021.883;000.110;63;000.484;MIDI 01
022.027;000.103;58;000.344;MIDI 01
022.042;000.126;72;000.516;MIDI 01
022.179;000.113;73;000.539;MIDI 01
022.131;000.264;55;000.492;MIDI 01
022.297;000.135;77;000.531;MIDI 01
022.258;000.183;63;000.430;MIDI 01
022.413;000.129;58;000.414;MIDI 01
022.415;000.167;75;000.469;MIDI 01
022.542;000.105;72;000.523;MIDI 01
022.644;000.102;63;000.406;MIDI 01
022.569;000.179;56;000.484;MIDI 01
022.702;000.114;67;000.461;MIDI 01
022.788;000.052;61;000.180;MIDI 01
022.812;000.084;60;000.430;MIDI 01
022.815;000.108;68;000.531;MIDI 01
022.932;000.136;72;000.516;MIDI 01
022.924;000.168;53;000.516;MIDI 01
023.061;000.129;62;000.453;MIDI 01
023.069;000.147;70;000.531;MIDI 01
023.186;000.098;58;000.422;MIDI 01
023.195;000.095;68;000.508;MIDI 01
023.298;000.109;67;000.531;MIDI 01
023.306;000.173;51;000.516;MIDI 01
023.435;000.068;70;000.555;MIDI 01
023.431;000.130;63;000.523;MIDI 01
023.568;000.117;58;000.414;MIDI 01
023.583;000.114;72;000.539;MIDI 01
023.701;000.121;73;000.531;MIDI 01
023.697;000.225;55;000.438;MIDI 01
023.831;000.118;77;000.555;MIDI 01
023.791;000.215;63;000.438;MIDI 01
023.938;000.151;58;000.414;MIDI 01
023.991;000.147;75;000.398;MIDI 01
024.137;000.114;72;000.445;MIDI 01
024.147;000.240;56;000.367;MIDI 01
024.242;000.158;63;000.406;MIDI 01
024.281;000.140;71;000.469;MIDI 01
024.421;000.121;72;000.508;MIDI 01
024.427;000.144;60;000.398;MIDI 01
024.565;000.189;76;000.586;MIDI 01
024.576;000.268;56;000.438;MIDI 01
024.744;000.136;70;000.492;MIDI 01
024.742;000.199;64;000.414;MIDI 01
024.903;000.068;71;000.453;MIDI 01
024.947;000.057;59;000.391;MIDI 01
025.015;000.145;75;000.516;MIDI 01
025.042;000.193;55;000.422;MIDI 01
025.164;000.118;69;000.477;MIDI 01
025.164;000.136;63;000.438;MIDI 01
025.307;000.046;70;000.367;MIDI 01
025.334;000.056;58;000.305;MIDI 01
025.399;000.197;74;000.531;MIDI 01
025.439;000.193;54;000.438;MIDI 01
025.555;000.107;62;000.445;MIDI 01
025.540;000.130;68;000.477;MIDI 01
025.677;000.059;57;000.383;MIDI 01
025.699;000.041;69;000.453;MIDI 01
025.780;000.152;73;000.547;MIDI 01
025.795;000.177;53;000.383;MIDI 01
025.907;000.128;67;000.477;MIDI 01
025.901;000.136;61;000.445;MIDI 01
026.075;000.040;56;000.297;MIDI 01
026.059;000.058;68;000.484;MIDI 01
026.167;000.148;74;000.570;MIDI 01
026.165;000.168;54;000.461;MIDI 01
026.261;000.135;62;000.484;MIDI 01
026.303;000.110;68;000.516;MIDI 01
026.414;000.070;57;000.383;MIDI 01
026.450;000.076;69;000.477;MIDI 01
026.544;000.150;73;000.539;MIDI 01
026.532;000.196;53;000.414;MIDI 01
026.643;000.099;61;000.477;MIDI 01
026.674;000.128;67;000.492;MIDI 01
026.818;000.047;68;000.328;MIDI 01
026.802;000.086;56;000.391;MIDI 01
026.919;000.170;72;000.547;MIDI 01
026.946;000.178;52;000.328;MIDI 01
027.015;000.123;60;000.438;MIDI 01
027.076;000.092;66;000.477;MIDI 01
027.169;000.053;55;000.305;MIDI 01
027.222;000.050;67;000.422;MIDI 01
027.322;000.114;71;000.484;MIDI 01
027.283;000.239;51;000.406;MIDI 01
027.453;000.115;65;000.484;MIDI 01
027.397;000.176;59;000.398;MIDI 01
027.554;000.076;54;000.375;MIDI 01
027.624;000.047;66;000.328;MIDI 01
027.692;000.167;72;000.539;MIDI 01
027.702;000.173;52;000.422;MIDI 01
027.792;000.121;60;000.406;MIDI 01
027.826;000.140;66;000.477;MIDI 01
027.936;000.075;55;000.344;MIDI 01
027.994;000.057;67;000.445;MIDI 01
028.104;000.089;71;000.375;MIDI 01
028.064;000.254;51;000.398;MIDI 01
028.232;000.116;65;000.469;MIDI 01
028.183;000.171;59;000.398;MIDI 01
028.354;000.096;54;000.344;MIDI 01
028.391;000.074;66;000.445;MIDI 01
028.517;000.084;70;000.430;MIDI 01
028.501;000.211;50;000.289;MIDI 01
028.610;000.133;58;000.352;MIDI 01
028.620;000.133;64;000.453;MIDI 01
028.770;000.038;65;000.438;MIDI 01
028.774;000.097;53;000.305;MIDI 01
028.926;000.118;65;000.477;MIDI 01
028.909;000.192;49;000.438;MIDI 01
029.050;000.099;58;000.414;MIDI 01
029.051;000.119;67;000.508;MIDI 01
029.168;000.095;53;000.328;MIDI 01
029.181;000.133;68;000.547;MIDI 01
029.273;000.076;46;000.500;MIDI 01
029.298;000.089;70;000.586;MIDI 01
029.456;000.064;61;000.445;MIDI 01
029.432;000.155;72;000.555;MIDI 01
029.617;000.084;53;000.375;MIDI 01
029.574;000.156;73;000.516;MIDI 01
029.924;000.143;60;000.398;MIDI 01
029.740;000.340;51;000.461;MIDI 01
030.106;000.124;56;000.352;MIDI 01
029.736;000.503;72;000.555;MIDI 01
030.220;000.121;70;000.461;MIDI 01
030.428;000.091;61;000.398;MIDI 01
030.261;000.266;51;000.398;MIDI 01
030.542;000.037;55;000.359;MIDI 01
030.665;000.041;63;000.422;MIDI 01
030.732;000.078;65;000.406;MIDI 01
030.841;000.104;44;000.453;MIDI 01
030.815;000.136;63;000.477;MIDI 01
031.120;000.068;60;000.406;MIDI 01
031.033;000.163;62;000.445;MIDI 01
031.203;000.090;63;000.406;MIDI 01
031.253;000.071;51;000.383;MIDI 01
031.382;000.054;50;000.359;MIDI 01
031.344;000.110;72;000.508;MIDI 01
031.485;000.044;60;000.320;MIDI 01
031.482;000.100;70;000.492;MIDI 01
031.601;000.079;51;000.391;MIDI 01
031.595;000.092;68;000.477;MIDI 01
031.707;000.060;46;000.477;MIDI 01
031.726;000.148;67;000.539;MIDI 01
031.869;000.093;61;000.438;MIDI 01
031.870;000.104;77;000.562;MIDI 01
032.015;000.073;51;000.383;MIDI 01
031.986;000.119;76;000.492;MIDI 01
032.109;000.036;75;000.547;MIDI 01
032.172;000.046;50;000.305;MIDI 01
032.219;000.040;61;000.438;MIDI 01
032.378;000.062;51;000.281;MIDI 01
032.440;000.043;63;000.500;MIDI 01
032.460;000.050;44;000.469;MIDI 01
032.497;000.083;65;000.305;MIDI 01
032.567;000.095;63;000.531;MIDI 01
032.661;000.141;60;000.438;MIDI 01
032.696;000.121;62;000.531;MIDI 01
032.797;000.061;51;000.438;MIDI 01
032.808;000.125;63;000.570;MIDI 01
032.920;000.118;50;000.414;MIDI 01
032.948;000.142;72;000.570;MIDI 01
033.022;000.112;60;000.391;MIDI 01
033.090;000.135;70;000.562;MIDI 01
033.139;000.098;51;000.469;MIDI 01
033.196;000.106;68;000.531;MIDI 01
033.282;000.047;48;000.453;MIDI 01
033.310;000.195;69;000.594;MIDI 01
033.465;000.134;63;000.539;MIDI 01
033.466;000.147;78;000.531;MIDI 01
033.620;000.109;57;000.438;MIDI 01
033.595;000.139;76;000.555;MIDI 01
033.731;000.054;77;000.594;MIDI 01
033.827;000.049;63;000.453;MIDI 01
033.729;000.155;53;000.461;MIDI 01
033.997;000.077;70;000.586;MIDI 01
033.954;000.128;57;000.375;MIDI 01
034.090;000.045;50;000.547;MIDI 01
034.078;000.099;72;000.484;MIDI 01
034.159;000.108;70;000.484;MIDI 01
034.297;000.085;65;000.492;MIDI 01
034.300;000.100;69;000.586;MIDI 01
034.417;000.069;58;000.406;MIDI 01
034.405;000.092;70;000.586;MIDI 01
034.534;000.041;51;000.492;MIDI 01
034.532;000.156;80;000.617;MIDI 01
034.674;000.135;78;000.562;MIDI 01
034.684;000.127;67;000.492;MIDI 01
034.803;000.051;79;000.570;MIDI 01
034.829;000.146;58;000.430;MIDI 01
034.962;000.052;52;000.562;MIDI 01
034.960;000.056;72;000.602;MIDI 01
035.038;000.099;73;000.500;MIDI 01
035.120;000.092;72;000.586;MIDI 01
035.126;000.112;67;000.523;MIDI 01
035.227;000.086;71;000.555;MIDI 01
035.253;000.115;60;000.484;MIDI 01
035.315;000.108;72;000.562;MIDI 01
035.448;000.042;53;000.562;MIDI 01
035.456;000.157;82;000.547;MIDI 01
035.621;000.102;68;000.492;MIDI 01
035.623;000.149;79;000.594;MIDI 01
035.776;000.140;80;000.641;MIDI 01
035.767;000.173;60;000.258;MIDI 01
035.954;000.030;55;000.516;MIDI 01
035.950;000.171;74;000.578;MIDI 01
036.128;000.079;75;000.594;MIDI 01
036.152;000.107;73;000.539;MIDI 01
036.288;000.102;77;000.555;MIDI 01
036.272;000.123;67;000.445;MIDI 01
036.389;000.115;79;000.578;MIDI 01
036.516;000.075;80;000.609;MIDI 01
036.511;000.083;73;000.477;MIDI 01
036.395;000.205;63;000.484;MIDI 01
036.631;000.084;67;000.367;MIDI 01
036.633;000.094;81;000.562;MIDI 01
036.721;000.043;58;000.516;MIDI 01
036.768;000.064;82;000.562;MIDI 01
036.868;000.098;73;000.539;MIDI 01
036.890;000.084;84;000.586;MIDI 01
037.013;000.092;85;000.578;MIDI 01
036.993;000.123;67;000.477;MIDI 01
037.122;000.164;86;000.617;MIDI 01
037.237;000.092;73;000.438;MIDI 01
037.120;000.247;63;000.477;MIDI 01
037.249;000.137;89;000.602;MIDI 01
037.386;000.032;67;000.297;MIDI 01
037.376;000.084;87;000.656;MIDI 01
037.546;000.083;56;000.555;MIDI 01
037.575;000.201;87;000.648;MIDI 01
037.791;000.132;96;000.617;MIDI 01
037.773;000.168;72;000.492;MIDI 01
037.949;000.060;85;000.609;MIDI 01
037.924;000.118;68;000.406;MIDI 01
038.159;000.033;72;000.398;MIDI 01
038.052;000.157;63;000.477;MIDI 01
038.071;000.142;94;000.641;MIDI 01
038.200;000.066;84;000.586;MIDI 01
038.230;000.042;68;000.328;MIDI 01
038.375;000.034;48;000.516;MIDI 01
038.311;000.108;92;000.664;MIDI 01
038.460;000.068;82;000.523;MIDI 01
038.556;000.080;64;000.438;MIDI 01
038.568;000.094;91;000.586;MIDI 01
038.710;000.031;80;000.539;MIDI 01
038.666;000.114;60;000.453;MIDI 01
038.841;000.035;58;000.312;MIDI 01
038.810;000.170;89;000.594;MIDI 01
038.893;000.131;64;000.445;MIDI 01
038.944;000.120;79;000.578;MIDI 01
039.065;000.116;60;000.352;MIDI 01
039.069;000.144;88;000.633;MIDI 01
039.217;000.144;84;000.555;MIDI 01
039.211;000.230;53;000.477;MIDI 01
039.362;000.119;92;000.664;MIDI 01
039.350;000.149;65;000.500;MIDI 01
039.497;000.066;82;000.578;MIDI 01
039.475;000.106;60;000.430;MIDI 01
039.607;000.119;91;000.617;MIDI 01
039.608;000.175;56;000.453;MIDI 01
039.730;000.056;65;000.391;MIDI 01
039.786;000.023;80;000.391;MIDI 01
039.804;000.033;60;000.398;MIDI 01
039.926;000.043;88;000.461;MIDI 01
039.908;000.067;89;000.352;MIDI 01
039.979;000.034;45;000.570;MIDI 01
040.033;000.065;78;000.508;MIDI 01
040.181;000.108;60;000.375;MIDI 01
040.195;000.147;87;000.539;MIDI 01
040.319;000.082;54;000.383;MIDI 01
040.342;000.070;77;000.414;MIDI 01
040.464;000.103;85;000.492;MIDI 01
040.624;000.089;75;000.453;MIDI 01
040.605;000.109;60;000.375;MIDI 01
040.461;000.266;51;000.312;MIDI 01
040.792;000.181;84;000.422;MIDI 01
040.797;000.184;54;000.289;MIDI 01
041.028;000.068;46;000.336;MIDI 01
041.034;000.179;87;000.422;MIDI 01
041.243;000.069;61;000.398;MIDI 01
041.249;000.079;85;000.375;MIDI 01
041.431;000.056;53;000.164;MIDI 01
041.384;000.113;89;000.453;MIDI 01
041.529;000.050;48;000.289;MIDI 01
041.534;000.075;85;000.469;MIDI 01
041.670;000.082;63;000.469;MIDI 01
041.659;000.101;84;000.469;MIDI 01
041.780;000.108;87;000.484;MIDI 01
041.843;000.053;57;000.180;MIDI 01
041.893;000.046;49;000.406;MIDI 01
041.914;000.066;84;000.469;MIDI 01
042.040;000.075;82;000.508;MIDI 01
042.072;000.100;65;000.430;MIDI 01
042.170;000.081;58;000.391;MIDI 01
042.159;000.141;85;000.469;MIDI 01
042.292;000.043;56;000.336;MIDI 01
042.281;000.091;82;000.469;MIDI 01
042.388;000.039;65;000.297;MIDI 01
042.411;000.035;80;000.391;MIDI 01
042.480;000.070;58;000.344;MIDI 01
042.573;000.039;49;000.461;MIDI 01
042.501;000.130;84;000.508;MIDI 01
042.620;000.106;80;000.430;MIDI 01
042.761;000.084;79;000.500;MIDI 01
042.751;000.111;65;000.461;MIDI 01
042.881;000.069;58;000.391;MIDI 01
042.869;000.099;82;000.438;MIDI 01
042.974;000.065;56;000.383;MIDI 01
042.972;000.073;79;000.484;MIDI 01
043.097;000.041;65;000.258;MIDI 01
043.099;000.094;77;000.508;MIDI 01
043.182;000.061;58;000.227;MIDI 01
043.214;000.076;80;000.477;MIDI 01
043.272;000.039;49;000.406;MIDI 01
043.303;000.079;77;000.477;MIDI 01
043.425;000.025;75;000.500;MIDI 01
043.442;000.106;65;000.367;MIDI 01
043.529;000.128;79;000.477;MIDI 01
043.584;000.082;58;000.398;MIDI 01
043.639;000.077;56;000.352;MIDI 01
043.607;000.153;75;000.375;MIDI 01
043.776;000.052;65;000.320;MIDI 01
043.760;000.070;73;000.453;MIDI 01
043.879;000.057;58;000.273;MIDI 01
043.901;000.114;77;000.438;MIDI 01
044.046;000.105;73;000.477;MIDI 01
044.169;000.042;63;000.445;MIDI 01
044.026;000.214;51;000.383;MIDI 01
044.198;000.085;72;000.461;MIDI 01
044.307;000.066;56;000.344;MIDI 01
044.334;000.100;75;000.414;MIDI 01
044.424;000.104;72;000.469;MIDI 01
044.411;000.130;50;000.438;MIDI 01
044.542;000.058;64;000.219;MIDI 01
044.546;000.097;71;000.492;MIDI 01
044.648;000.131;56;000.469;MIDI 01
044.673;000.109;76;000.555;MIDI 01
044.814;000.092;73;000.461;MIDI 01
044.840;000.125;51;000.328;MIDI 01
044.911;000.093;63;000.461;MIDI 01
044.934;000.125;72;000.508;MIDI 01
045.070;000.097;56;000.406;MIDI 01
045.073;000.123;75;000.461;MIDI 01
045.200;000.085;72;000.469;MIDI 01
045.164;000.146;50;000.539;MIDI 01
045.298;000.070;64;000.375;MIDI 01
045.322;000.096;71;000.508;MIDI 01
045.431;000.103;76;000.539;MIDI 01
045.418;000.122;56;000.469;MIDI 01
045.556;000.084;73;000.508;MIDI 01
045.569;000.104;51;000.398;MIDI 01
045.669;000.035;63;000.414;MIDI 01
045.679;000.102;72;000.500;MIDI 01
045.769;000.083;56;000.367;MIDI 01
045.796;000.177;75;000.508;MIDI 01
045.916;000.086;72;000.453;MIDI 01
045.860;000.144;50;000.477;MIDI 01
045.990;000.075;64;000.422;MIDI 01
046.027;000.106;71;000.492;MIDI 01
046.117;000.081;56;000.367;MIDI 01
046.149;000.125;76;000.547;MIDI 01
046.285;000.108;73;000.500;MIDI 01
046.384;000.040;63;000.391;MIDI 01
046.418;000.088;72;000.484;MIDI 01
046.501;000.087;56;000.406;MIDI 01
046.531;000.143;75;000.469;MIDI 01
046.664;000.071;72;000.406;MIDI 01
046.594;000.148;50;000.461;MIDI 01
046.768;000.050;64;000.023;MIDI 01
046.766;000.095;71;000.453;MIDI 01
046.875;000.064;56;000.352;MIDI 01
046.900;000.116;76;000.516;MIDI 01
047.042;000.113;73;000.461;MIDI 01
047.030;000.144;51;000.375;MIDI 01
047.164;000.047;63;000.320;MIDI 01
047.191;000.097;72;000.461;MIDI 01
047.283;000.077;56;000.359;MIDI 01
047.372;000.143;50;000.352;MIDI 01
047.288;000.259;75;000.586;MIDI 01
047.432;000.128;72;000.562;MIDI 01
047.523;000.059;64;000.383;MIDI 01
047.567;000.107;71;000.539;MIDI 01
047.638;000.074;56;000.352;MIDI 01
047.678;000.149;76;000.586;MIDI 01
047.799;000.130;73;000.562;MIDI 01
047.807;000.129;51;000.359;MIDI 01
047.934;000.029;63;000.367;MIDI 01
047.961;000.089;72;000.484;MIDI 01
048.035;000.089;56;000.289;MIDI 01
048.076;000.126;75;000.422;MIDI 01
048.202;000.096;72;000.461;MIDI 01
048.159;000.149;50;000.344;MIDI 01
048.298;000.083;64;000.164;MIDI 01
048.331;000.103;71;000.438;MIDI 01
048.429;000.073;56;000.352;MIDI 01
048.466;000.121;76;000.500;MIDI 01
048.616;000.121;73;000.492;MIDI 01
048.734;000.064;63;000.352;MIDI 01
048.599;000.216;51;000.367;MIDI 01
048.764;000.093;72;000.422;MIDI 01
048.884;000.125;56;000.352;MIDI 01
048.878;000.146;75;000.414;MIDI 01
049.019;000.130;72;000.430;MIDI 01
049.188;000.109;71;000.367;MIDI 01
049.185;000.129;64;000.234;MIDI 01
049.339;000.265;76;000.336;MIDI 01
049.345;000.310;56;000.344;MIDI 01
049.611;000.265;77;000.297;MIDI 01
049.647;000.256;65;000.312;MIDI 01
051.027;000.169;67;000.312;MIDI 01
051.062;000.173;58;000.156;MIDI 01
051.032;000.230;61;000.273;MIDI 01
051.045;000.222;51;000.250;MIDI 01
051.629;000.092;44;000.289;MIDI 01
051.654;000.106;60;000.258;MIDI 01
051.645;000.140;68;000.281;MIDI 01
051.889;000.082;60;000.344;MIDI 01
052.060;000.068;51;000.352;MIDI 01
052.192;000.114;67;000.359;MIDI 01
052.204;000.106;50;000.336;MIDI 01
052.200;000.128;72;000.391;MIDI 01
052.334;000.043;61;000.352;MIDI 01
052.342;000.085;73;000.500;MIDI 01
052.476;000.041;70;000.445;MIDI 01
052.517;000.053;51;000.219;MIDI 01
052.626;000.035;44;000.320;MIDI 01
052.631;000.066;68;000.461;MIDI 01
052.775;000.035;63;000.367;MIDI 01
052.628;000.211;75;000.453;MIDI 01
052.817;000.054;60;000.391;MIDI 01
052.875;000.119;68;000.422;MIDI 01
052.956;000.050;51;000.266;MIDI 01
053.041;000.083;50;000.391;MIDI 01
053.010;000.142;72;000.539;MIDI 01
053.068;000.121;67;000.438;MIDI 01
053.184;000.045;61;000.234;MIDI 01
053.177;000.083;73;000.508;MIDI 01
053.281;000.050;70;000.547;MIDI 01
053.326;000.053;51;000.234;MIDI 01
053.398;000.033;44;000.461;MIDI 01
053.422;000.085;68;000.492;MIDI 01
053.534;000.042;63;000.500;MIDI 01
053.424;000.191;75;000.484;MIDI 01
053.572;000.066;60;000.438;MIDI 01
053.649;000.124;68;000.461;MIDI 01
053.730;000.067;51;000.117;MIDI 01
053.777;000.101;50;000.430;MIDI 01
053.766;000.128;72;000.602;MIDI 01
053.905;000.025;61;000.438;MIDI 01
053.811;000.141;67;000.477;MIDI 01
053.898;000.105;73;000.578;MIDI 01
054.020;000.051;70;000.555;MIDI 01
054.041;000.061;51;000.289;MIDI 01
054.136;000.053;44;000.523;MIDI 01
054.148;000.102;68;000.586;MIDI 01
054.264;000.035;63;000.531;MIDI 01
054.153;000.190;75;000.547;MIDI 01
054.311;000.079;60;000.461;MIDI 01
054.438;000.057;51;000.305;MIDI 01
054.391;000.110;68;000.492;MIDI 01
054.501;000.129;72;000.578;MIDI 01
054.528;000.104;50;000.469;MIDI 01
054.651;000.033;61;000.461;MIDI 01
054.567;000.150;67;000.516;MIDI 01
054.641;000.121;73;000.539;MIDI 01
054.767;000.036;70;000.578;MIDI 01
054.780;000.028;51;000.469;MIDI 01
054.958;000.044;80;000.328;MIDI 01
054.960;000.055;43;000.242;MIDI 01
054.895;000.123;44;000.562;MIDI 01
055.016;000.121;51;000.531;MIDI 01
055.146;000.036;60;000.445;MIDI 01
055.152;000.144;68;000.547;MIDI 01
055.151;000.268;80;000.523;MIDI 01
055.443;000.145;77;000.484;MIDI 01
055.587;000.104;75;000.500;MIDI 01
055.691;000.093;73;000.492;MIDI 01
055.922;000.134;70;000.508;MIDI 01
056.018;000.092;68;000.453;MIDI 01
056.180;000.045;65;000.320;MIDI 01
056.282;000.093;63;000.469;MIDI 01
056.416;000.082;61;000.531;MIDI 01
056.530;000.103;60;000.477;MIDI 01
056.676;000.127;58;000.469;MIDI 01
056.793;000.096;56;000.516;MIDI 01
056.931;000.114;53;000.453;MIDI 01
057.061;000.144;51;000.508;MIDI 01
057.201;000.111;49;000.539;MIDI 01
057.323;000.199;48;000.547;MIDI 01
057.510;000.260;46;000.555;MIDI 01
057.752;000.357;44;000.562;MIDI 01
058.330;000.434;43;000.484;MIDI 01
059.376;000.089;41;000.367;MIDI 01
058.891;000.951;60;000.477;MIDI 01
059.839;000.110;56;000.344;MIDI 01
059.862;000.388;48;000.328;MIDI 01
060.210;000.043;41;000.430;MIDI 01
059.817;000.804;65;000.531;MIDI 01
060.617;000.091;58;000.328;MIDI 01
060.627;000.100;52;000.328;MIDI 01
060.593;000.180;48;000.359;MIDI 01
060.971;000.052;36;000.508;MIDI 01
060.581;000.836;67;000.578;MIDI 01
061.411;000.103;56;000.352;MIDI 01
061.382;000.151;53;000.375;MIDI 01
061.422;000.143;48;000.297;MIDI 01
061.751;000.092;41;000.383;MIDI 01
061.360;000.793;68;000.578;MIDI 01
062.483;000.050;39;000.391;MIDI 01
062.116;000.844;70;000.555;MIDI 01
062.948;000.090;61;000.367;MIDI 01
062.957;000.109;55;000.281;MIDI 01
062.978;000.180;51;000.273;MIDI 01
063.319;000.046;39;000.461;MIDI 01
062.928;000.599;68;000.492;MIDI 01
063.523;000.208;70;000.492;MIDI 01
063.772;000.095;60;000.273;MIDI 01
063.774;000.116;56;000.312;MIDI 01
063.785;000.157;51;000.250;MIDI 01
064.149;000.046;44;000.398;MIDI 01
063.731;000.505;72;000.484;MIDI 01
064.679;000.099;65;000.250;MIDI 01
064.649;000.148;62;000.297;MIDI 01
064.670;000.221;55;000.266;MIDI 01
065.111;000.061;43;000.258;MIDI 01
064.601;000.870;71;000.453;MIDI 01
065.828;000.046;48;000.359;MIDI 01
066.222;000.059;65;000.258;MIDI 01
066.243;000.069;59;000.281;MIDI 01
065.465;000.850;72;000.445;MIDI 01
066.245;000.110;55;000.266;MIDI 01
066.569;000.039;43;000.352;MIDI 01
066.196;000.586;74;000.500;MIDI 01
066.746;000.250;75;000.500;MIDI 01
066.976;000.125;63;000.391;MIDI 01
066.985;000.364;55;000.398;MIDI 01
067.332;000.066;48;000.445;MIDI 01
066.966;000.446;72;000.539;MIDI 01
067.757;000.113;63;000.328;MIDI 01
067.791;000.110;57;000.266;MIDI 01
067.771;000.204;53;000.289;MIDI 01
068.191;000.112;41;000.312;MIDI 01
067.734;000.871;73;000.555;MIDI 01
068.949;000.053;46;000.344;MIDI 01
068.591;000.787;70;000.477;MIDI 01
069.349;000.075;63;000.344;MIDI 01
069.361;000.065;57;000.289;MIDI 01
069.347;000.145;53;000.359;MIDI 01
069.325;000.314;72;000.461;MIDI 01
069.650;000.084;75;000.398;MIDI 01
069.727;000.083;41;000.359;MIDI 01
069.729;000.427;73;000.422;MIDI 01
070.151;000.165;61;000.281;MIDI 01
070.161;000.169;58;000.203;MIDI 01
070.185;000.169;53;000.203;MIDI 01
070.555;000.041;46;000.352;MIDI 01
070.156;000.859;70;000.414;MIDI 01
071.009;000.114;58;000.242;MIDI 01
071.033;000.097;60;000.203;MIDI 01
071.015;000.208;52;000.250;MIDI 01
071.440;000.060;48;000.320;MIDI 01
070.966;000.721;68;000.383;MIDI 01
071.691;000.357;67;000.398;MIDI 01
072.401;000.066;41;000.383;MIDI 01
072.010;000.718;60;000.406;MIDI 01
072.782;000.089;56;000.305;MIDI 01
072.825;000.330;48;000.234;MIDI 01
073.123;000.046;41;000.414;MIDI 01
072.759;000.773;65;000.500;MIDI 01
073.521;000.093;58;000.352;MIDI 01
073.527;000.109;52;000.367;MIDI 01
073.495;000.181;48;000.352;MIDI 01
073.882;000.046;36;000.461;MIDI 01
073.489;000.840;67;000.539;MIDI 01
074.329;000.098;56;000.352;MIDI 01
074.316;000.124;53;000.383;MIDI 01
074.314;000.157;48;000.398;MIDI 01
074.651;000.069;41;000.438;MIDI 01
074.275;000.828;68;000.578;MIDI 01
075.487;000.051;39;000.375;MIDI 01
075.068;000.500;70;000.531;MIDI 01
075.916;000.049;70;000.344;MIDI 01
075.964;000.053;61;000.227;MIDI 01
075.990;000.099;51;000.250;MIDI 01
076.128;000.041;70;000.352;MIDI 01
076.305;000.073;70;000.422;MIDI 01
076.499;000.070;39;000.375;MIDI 01
076.501;000.106;72;000.320;MIDI 01
076.616;000.069;70;000.414;MIDI 01
076.741;000.075;68;000.352;MIDI 01
076.833;000.118;70;000.406;MIDI 01
077.006;000.098;60;000.312;MIDI 01
077.005;000.136;56;000.328;MIDI 01
077.004;000.159;51;000.312;MIDI 01
077.407;000.043;44;000.445;MIDI 01
076.978;000.887;72;000.430;MIDI 01
077.900;000.100;62;000.258;MIDI 01
077.884;000.126;59;000.320;MIDI 01
077.892;000.169;53;000.266;MIDI 01
078.312;000.049;44;000.336;MIDI 01
077.843;001.006;74;000.508;MIDI 01
078.861;000.112;62;000.242;MIDI 01
078.848;000.131;59;000.242;MIDI 01
078.836;000.186;52;000.297;MIDI 01
079.268;000.057;44;000.375;MIDI 01
078.808;001.004;76;000.453;MIDI 01
079.825;000.125;60;000.172;MIDI 01
079.796;000.158;57;000.281;MIDI 01
079.769;000.245;52;000.312;MIDI 01
080.200;000.052;45;000.383;MIDI 01
079.740;000.650;74;000.461;MIDI 01
080.404;000.334;72;000.391;MIDI 01
080.769;000.154;62;000.273;MIDI 01
080.768;000.226;57;000.227;MIDI 01
080.782;000.246;53;000.250;MIDI 01
081.341;000.122;41;000.305;MIDI 01
080.733;001.459;74;000.398;MIDI 01
082.016;000.206;67;000.297;MIDI 01
082.031;000.377;65;000.273;MIDI 01
082.424;000.058;67;000.242;MIDI 01
082.035;000.460;59;000.242;MIDI 01
082.037;000.466;55;000.266;MIDI 01
082.543;000.085;69;000.359;MIDI 01
082.639;000.103;67;000.359;MIDI 01
082.781;000.090;66;000.398;MIDI 01
082.931;000.124;67;000.430;MIDI 01
083.243;000.211;83;000.367;MIDI 01
083.492;000.123;81;000.367;MIDI 01
083.642;000.168;79;000.344;MIDI 01
083.790;000.073;77;000.281;MIDI 01
083.284;000.645;43;000.320;MIDI 01
083.939;000.068;74;000.391;MIDI 01
084.104;000.192;76;000.352;MIDI 01
084.310;000.159;69;000.328;MIDI 01
084.535;000.403;71;000.352;MIDI 01
084.948;000.497;64;000.211;MIDI 01
084.956;000.586;55;000.273;MIDI 01
084.965;000.582;60;000.227;MIDI 01
085.498;000.434;48;000.305;MIDI 01
085.915;000.405;60;000.266;MIDI 01
085.919;000.402;56;000.352;MIDI 01
085.917;000.446;65;000.359;MIDI 01
086.319;000.395;48;000.391;MIDI 01
086.703;000.382;53;000.375;MIDI 01
086.723;000.376;62;000.430;MIDI 01
086.718;000.427;60;000.391;MIDI 01
087.076;000.403;48;000.391;MIDI 01
087.471;000.272;60;000.422;MIDI 01
087.479;000.284;65;000.445;MIDI 01
084.906;002.920;72;000.367;MIDI 01
087.475;000.419;56;000.367;MIDI 01
087.910;000.118;48;000.484;MIDI 01
088.121;000.414;72;000.578;MIDI 01
088.498;000.185;36;000.461;MIDI 01
088.485;000.443;73;000.641;MIDI 01
089.014;000.040;62;000.297;MIDI 01
088.991;000.386;60;000.250;MIDI 01
088.946;000.466;72;000.570;MIDI 01
089.375;000.332;55;000.398;MIDI 01
089.377;000.369;58;000.383;MIDI 01
089.350;000.420;64;000.398;MIDI 01
089.341;000.441;77;000.570;MIDI 01
089.727;000.158;60;000.422;MIDI 01
089.733;000.481;79;000.594;MIDI 01
090.173;000.308;56;000.328;MIDI 01
090.516;000.345;60;000.352;MIDI 01
090.922;000.399;65;000.211;MIDI 01
091.268;000.056;72;000.391;MIDI 01
090.909;000.433;56;000.234;MIDI 01
090.157;001.206;53;000.336;MIDI 01
090.159;001.211;80;000.570;MIDI 01
091.267;000.156;60;000.320;MIDI 01
091.545;000.028;73;000.367;MIDI 01
091.619;000.062;75;000.453;MIDI 01
091.700;000.330;73;000.461;MIDI 01
091.642;000.431;58;000.367;MIDI 01
092.070;000.467;60;000.328;MIDI 01
092.054;000.520;72;000.477;MIDI 01
092.585;000.267;74;000.445;MIDI 01
092.858;000.255;76;000.461;MIDI 01
092.500;000.657;64;000.312;MIDI 01
091.727;001.432;55;000.047;MIDI 01
092.472;000.708;58;000.289;MIDI 01
091.671;001.635;53;000.281;MIDI 01
093.144;000.295;77;000.469;MIDI 01
093.098;000.362;60;000.273;MIDI 01
093.368;000.323;79;000.477;MIDI 01
093.674;000.402;56;000.289;MIDI 01
094.095;000.355;60;000.336;MIDI 01
094.477;000.339;65;000.375;MIDI 01
094.879;000.085;60;000.430;MIDI 01
094.450;000.561;56;000.367;MIDI 01
093.686;001.332;53;000.195;MIDI 01
093.676;001.672;80;000.492;MIDI 01
095.342;000.143;37;000.430;MIDI 01
095.316;000.508;79;000.570;MIDI 01
095.812;000.382;58;000.414;MIDI 01
095.804;000.405;77;000.602;MIDI 01
096.220;000.263;65;000.398;MIDI 01
096.193;000.441;56;000.398;MIDI 01
096.596;000.068;58;000.398;MIDI 01
096.605;000.501;70;000.523;MIDI 01
097.098;000.151;39;000.359;MIDI 01
096.195;001.351;68;000.539;MIDI 01
097.093;000.513;72;000.453;MIDI 01
097.534;000.083;51;000.305;MIDI 01
097.924;000.076;68;000.312;MIDI 01
097.893;000.353;72;000.477;MIDI 01
097.899;000.363;75;000.500;MIDI 01
097.918;000.365;60;000.352;MIDI 01
098.281;000.062;51;000.406;MIDI 01
098.882;000.161;39;000.406;MIDI 01
098.688;000.728;67;000.406;MIDI 01
098.757;000.969;72;000.477;MIDI 01
099.347;000.386;51;000.414;MIDI 01
098.890;000.964;75;000.570;MIDI 01
099.726;000.277;63;000.391;MIDI 01
099.724;000.414;58;000.391;MIDI 01
100.107;000.070;51;000.414;MIDI 01
099.733;000.628;70;000.477;MIDI 01
099.714;000.658;73;000.508;MIDI 01
100.336;000.057;72;000.422;MIDI 01
100.330;000.088;68;000.469;MIDI 01
100.656;000.085;60;000.484;MIDI 01
100.629;000.160;32;000.484;MIDI 01
100.844;000.108;60;000.391;MIDI 01
100.968;000.101;63;000.492;MIDI 01
101.056;000.139;68;000.492;MIDI 01
101.141;000.359;51;000.445;MIDI 01
101.148;000.431;72;000.555;MIDI 01
101.543;000.366;60;000.359;MIDI 01
101.528;000.416;56;000.359;MIDI 01
101.518;000.456;48;000.422;MIDI 01
101.911;000.078;51;000.453;MIDI 01
102.142;000.033;72;000.484;MIDI 01
102.531;000.261;36;000.453;MIDI 01
102.456;000.476;73;000.547;MIDI 01
102.978;000.314;60;000.438;MIDI 01
102.942;000.406;72;000.555;MIDI 01
103.344;000.361;64;000.383;MIDI 01
103.371;000.350;55;000.344;MIDI 01
103.346;000.397;58;000.352;MIDI 01
103.321;000.460;77;000.586;MIDI 01
103.698;000.133;60;000.430;MIDI 01
103.694;000.434;79;000.594;MIDI 01
104.122;000.327;56;000.367;MIDI 01
104.473;000.325;60;000.359;MIDI 01
104.089;001.000;80;000.570;MIDI 01
104.825;000.369;56;000.297;MIDI 01
104.855;000.345;65;000.227;MIDI 01
104.107;001.123;53;000.406;MIDI 01
105.205;000.068;60;000.320;MIDI 01
105.345;000.058;72;000.422;MIDI 01
105.539;000.036;73;000.367;MIDI 01
105.627;000.099;75;000.359;MIDI 01
105.715;000.123;73;000.430;MIDI 01
105.885;000.076;72;000.445;MIDI 01
105.624;000.520;58;000.211;MIDI 01
106.061;000.146;84;000.414;MIDI 01
106.206;000.077;83;000.391;MIDI 01
106.324;000.096;82;000.344;MIDI 01
106.424;000.059;79;000.414;MIDI 01
106.147;000.439;60;000.297;MIDI 01
106.560;000.027;76;000.422;MIDI 01
106.694;000.057;73;000.406;MIDI 01
106.817;000.083;72;000.477;MIDI 01
106.612;000.371;64;000.281;MIDI 01
105.631;001.357;55;000.250;MIDI 01
106.626;000.370;58;000.273;MIDI 01
106.955;000.110;74;000.352;MIDI 01
107.055;000.058;76;000.492;MIDI 01
107.178;000.142;77;000.469;MIDI 01
106.987;000.482;60;000.344;MIDI 01
107.331;000.188;79;000.461;MIDI 01
107.518;000.298;80;000.453;MIDI 01
107.484;000.349;65;000.305;MIDI 01
107.470;000.405;56;000.320;MIDI 01
105.604;002.289;53;000.289;MIDI 01
107.877;000.039;60;000.336;MIDI 01
108.334;000.081;66;000.312;MIDI 01
108.344;000.182;79;000.477;MIDI 01
108.554;000.062;81;000.438;MIDI 01
108.648;000.088;82;000.461;MIDI 01
108.420;000.319;66;000.031;MIDI 01
108.354;000.386;57;000.367;MIDI 01
108.765;000.064;60;000.430;MIDI 01
108.761;000.070;81;000.547;MIDI 01
108.336;000.500;51;000.422;MIDI 01
108.841;000.052;82;000.500;MIDI 01
108.935;000.064;81;000.516;MIDI 01
109.004;000.131;82;000.578;MIDI 01
109.052;000.116;50;000.508;MIDI 01
109.109;000.083;81;000.547;MIDI 01
109.186;000.117;79;000.547;MIDI 01
109.343;000.151;81;000.594;MIDI 01
109.481;000.077;82;000.523;MIDI 01
109.279;000.295;65;000.602;MIDI 01
109.141;000.446;53;000.547;MIDI 01
109.603;000.100;84;000.484;MIDI 01
109.585;000.136;58;000.461;MIDI 01
109.715;000.073;82;000.516;MIDI 01
109.757;000.064;56;000.461;MIDI 01
109.794;000.099;84;000.516;MIDI 01
109.831;000.124;49;000.570;MIDI 01
109.883;000.081;82;000.500;MIDI 01
109.979;000.092;81;000.570;MIDI 01
110.088;000.085;82;000.570;MIDI 01
110.206;000.073;83;000.594;MIDI 01
110.294;000.073;84;000.547;MIDI 01
110.059;000.317;65;000.523;MIDI 01
109.926;000.468;56;000.570;MIDI 01
110.381;000.066;83;000.586;MIDI 01
110.456;000.082;84;000.602;MIDI 01
110.417;000.131;59;000.406;MIDI 01
110.573;000.101;48;000.547;MIDI 01
110.547;000.167;83;000.633;MIDI 01
110.667;000.139;82;000.523;MIDI 01
110.682;000.140;56;000.609;MIDI 01
110.786;000.157;83;000.555;MIDI 01
110.930;000.341;84;000.672;MIDI 01
110.869;000.407;65;000.570;MIDI 01
111.678;000.390;68;000.578;MIDI 01
111.294;000.846;60;000.578;MIDI 01
112.075;000.068;65;000.531;MIDI 01
111.660;001.015;85;000.734;MIDI 01
112.599;000.127;36;000.508;MIDI 01
113.010;000.311;60;000.438;MIDI 01
112.583;000.773;73;000.664;MIDI 01
113.390;000.397;64;000.391;MIDI 01
113.423;000.366;55;000.375;MIDI 01
113.388;000.420;58;000.375;MIDI 01
113.781;000.105;60;000.461;MIDI 01
113.371;000.871;72;000.609;MIDI 01
114.194;000.336;56;000.352;MIDI 01
114.558;000.318;60;000.344;MIDI 01
114.175;001.129;77;000.547;MIDI 01
114.935;000.394;65;000.258;MIDI 01
114.916;000.417;56;000.297;MIDI 01
114.185;001.157;53;000.312;MIDI 01
115.291;000.064;72;000.414;MIDI 01
115.309;000.066;60;000.289;MIDI 01
115.579;000.030;73;000.383;MIDI 01
115.655;000.076;75;000.438;MIDI 01
115.725;000.332;73;000.500;MIDI 01
115.666;000.449;58;000.188;MIDI 01
116.114;000.371;60;000.320;MIDI 01
116.093;000.433;72;000.469;MIDI 01
115.689;001.193;55;000.281;MIDI 01
116.519;000.399;64;000.281;MIDI 01
116.477;000.443;77;000.453;MIDI 01
116.484;000.444;58;000.273;MIDI 01
115.668;001.279;53;000.281;MIDI 01
116.896;000.138;60;000.305;MIDI 01
116.868;000.545;79;000.461;MIDI 01
117.390;000.367;56;000.266;MIDI 01
117.795;000.321;60;000.242;MIDI 01
118.147;000.340;65;000.273;MIDI 01
118.134;000.440;56;000.227;MIDI 01
117.394;001.209;53;000.211;MIDI 01
118.557;000.061;60;000.117;MIDI 01
117.348;001.418;80;000.453;MIDI 01
118.745;000.220;72;000.289;MIDI 01
119.001;000.125;73;000.336;MIDI 01
119.188;000.118;72;000.391;MIDI 01
119.026;000.410;58;000.047;MIDI 01
119.345;000.093;74;000.391;MIDI 01
119.490;000.094;72;000.406;MIDI 01
119.608;000.069;75;000.477;MIDI 01
119.416;000.369;60;000.328;MIDI 01
119.743;000.086;72;000.438;MIDI 01
119.850;000.058;76;000.484;MIDI 01
119.978;000.118;72;000.469;MIDI 01
120.100;000.103;77;000.492;MIDI 01
119.819;000.450;64;000.258;MIDI 01
119.832;000.444;58;000.258;MIDI 01
118.979;001.330;53;000.172;MIDI 01
120.223;000.097;60;000.289;MIDI 01
120.255;000.082;72;000.477;MIDI 01
120.382;000.066;79;000.438;MIDI 01
120.513;000.286;72;000.438;MIDI 01
120.768;000.383;56;000.281;MIDI 01
121.160;000.371;60;000.266;MIDI 01
121.546;000.350;65;000.242;MIDI 01
122.023;000.110;60;000.219;MIDI 01
120.778;001.401;53;000.188;MIDI 01
121.537;000.644;56;000.266;MIDI 01
120.743;001.633;80;000.438;MIDI 01
122.353;000.161;79;000.344;MIDI 01
122.761;000.215;79;000.281;MIDI 01
122.780;000.212;37;000.289;MIDI 01
123.016;000.216;80;000.383;MIDI 01
123.172;000.128;79;000.375;MIDI 01
123.306;000.104;78;000.336;MIDI 01
123.470;000.052;79;000.336;MIDI 01
123.596;000.154;82;000.328;MIDI 01
123.733;000.079;80;000.352;MIDI 01
123.427;000.394;58;000.328;MIDI 01
123.882;000.067;76;000.352;MIDI 01
124.004;000.123;79;000.461;MIDI 01
124.123;000.053;77;000.336;MIDI 01
123.816;000.375;65;000.273;MIDI 01
124.236;000.079;72;000.438;MIDI 01
124.282;000.055;58;000.328;MIDI 01
123.820;000.530;56;000.320;MIDI 01
124.376;000.089;75;000.422;MIDI 01
124.466;000.094;73;000.500;MIDI 01
124.600;000.135;65;000.461;MIDI 01
124.735;000.155;67;000.477;MIDI 01
124.895;000.139;39;000.375;MIDI 01
124.930;000.319;68;000.422;MIDI 01
124.902;000.381;72;000.445;MIDI 01
125.318;000.106;51;000.430;MIDI 01
125.711;000.056;68;000.438;MIDI 01
125.716;000.219;84;000.609;MIDI 01
125.727;000.210;75;000.586;MIDI 01
125.751;000.349;60;000.453;MIDI 01
126.132;000.062;51;000.500;MIDI 01
126.548;000.105;74;000.578;MIDI 01
126.557;000.128;39;000.492;MIDI 01
126.546;000.219;83;000.586;MIDI 01
126.896;000.050;73;000.562;MIDI 01
126.889;000.092;82;000.586;MIDI 01
127.135;000.081;70;000.594;MIDI 01
127.138;000.106;79;000.555;MIDI 01
127.023;000.323;51;000.477;MIDI 01
127.390;000.078;73;000.547;MIDI 01
127.374;000.115;77;000.586;MIDI 01
127.583;000.080;75;000.609;MIDI 01
127.607;000.086;67;000.492;MIDI 01
127.360;000.335;63;000.398;MIDI 01
127.384;000.390;58;000.422;MIDI 01
127.761;000.057;51;000.531;MIDI 01
127.945;000.074;70;000.570;MIDI 01
127.943;000.083;73;000.570;MIDI 01
128.264;000.071;60;000.539;MIDI 01
128.225;000.133;32;000.586;MIDI 01
128.422;000.107;60;000.406;MIDI 01
128.528;000.105;63;000.547;MIDI 01
128.608;000.125;68;000.555;MIDI 01
128.653;000.367;51;000.500;MIDI 01
128.689;000.344;72;000.602;MIDI 01
129.074;000.368;56;000.438;MIDI 01
129.080;000.403;60;000.352;MIDI 01
129.064;000.424;48;000.445;MIDI 01
129.427;000.068;51;000.492;MIDI 01
129.646;000.030;72;000.484;MIDI 01
129.824;000.041;73;000.508;MIDI 01
129.925;000.050;75;000.539;MIDI 01
129.981;000.052;73;000.516;MIDI 01
130.068;000.082;75;000.578;MIDI 01
130.061;000.163;36;000.570;MIDI 01
130.119;000.280;73;000.578;MIDI 01
130.416;000.248;72;000.578;MIDI 01
130.524;000.328;60;000.492;MIDI 01
130.653;000.273;74;000.609;MIDI 01
130.879;000.240;76;000.617;MIDI 01
130.868;000.414;55;000.453;MIDI 01
130.857;000.426;58;000.484;MIDI 01
130.858;000.435;64;000.461;MIDI 01
131.248;000.124;60;000.484;MIDI 01
131.126;000.294;77;000.617;MIDI 01
131.379;000.298;79;000.609;MIDI 01
131.640;000.315;56;000.445;MIDI 01
131.631;000.621;80;000.656;MIDI 01
131.968;000.309;60;000.469;MIDI 01
132.297;000.333;65;000.492;MIDI 01
132.287;000.351;56;000.445;MIDI 01
131.618;001.053;53;000.398;MIDI 01
132.619;000.121;60;000.492;MIDI 01
132.777;000.244;72;000.625;MIDI 01
132.999;000.106;84;000.633;MIDI 01
133.137;000.113;72;000.555;MIDI 01
133.258;000.060;73;000.562;MIDI 01
133.011;000.387;58;000.453;MIDI 01
133.380;000.074;74;000.602;MIDI 01
133.495;000.041;86;000.555;MIDI 01
133.657;000.030;75;000.320;MIDI 01
133.424;000.309;60;000.406;MIDI 01
133.641;000.165;87;000.586;MIDI 01
133.774;000.077;88;000.656;MIDI 01
133.892;000.151;76;000.609;MIDI 01
133.005;001.073;55;000.500;MIDI 01
133.757;000.351;58;000.469;MIDI 01
133.747;000.378;64;000.445;MIDI 01
134.024;000.103;77;000.586;MIDI 01
134.136;000.056;78;000.602;MIDI 01
134.241;000.138;79;000.602;MIDI 01
134.382;000.067;91;000.656;MIDI 01
134.125;000.461;60;000.414;MIDI 01
134.605;000.290;92;000.758;MIDI 01
134.611;000.295;80;000.703;MIDI 01
134.597;000.345;65;000.523;MIDI 01
132.991;001.970;53;000.508;MIDI 01
134.595;000.386;56;000.523;MIDI 01
134.979;000.110;60;000.477;MIDI 01
135.326;000.180;79;000.633;MIDI 01
135.501;000.085;81;000.562;MIDI 01
135.304;000.362;66;000.492;MIDI 01
135.596;000.083;82;000.539;MIDI 01
135.332;000.353;57;000.445;MIDI 01
135.692;000.055;60;000.539;MIDI 01
135.698;000.067;81;000.586;MIDI 01
135.335;000.446;51;000.484;MIDI 01
135.770;000.070;82;000.586;MIDI 01
135.859;000.075;81;000.586;MIDI 01
135.933;000.117;82;000.586;MIDI 01
135.939;000.126;50;000.453;MIDI 01
136.020;000.103;81;000.531;MIDI 01
136.118;000.097;80;000.578;MIDI 01
136.244;000.151;81;000.617;MIDI 01
136.346;000.098;82;000.586;MIDI 01
136.147;000.316;65;000.586;MIDI 01
136.035;000.431;53;000.586;MIDI 01
136.459;000.104;84;000.578;MIDI 01
136.463;000.137;58;000.492;MIDI 01
136.574;000.065;82;000.594;MIDI 01
136.637;000.085;84;000.539;MIDI 01
136.713;000.084;82;000.547;MIDI 01
136.700;000.106;49;000.609;MIDI 01
136.796;000.101;81;000.594;MIDI 01
136.911;000.096;82;000.578;MIDI 01
137.027;000.089;83;000.609;MIDI 01
137.128;000.057;84;000.562;MIDI 01
136.904;000.324;65;000.555;MIDI 01
136.784;000.451;56;000.461;MIDI 01
137.210;000.079;83;000.570;MIDI 01
137.248;000.107;59;000.469;MIDI 01
137.296;000.075;84;000.562;MIDI 01
137.370;000.145;83;000.562;MIDI 01
137.422;000.127;48;000.594;MIDI 01
137.480;000.139;82;000.586;MIDI 01
137.552;000.173;56;000.617;MIDI 01
137.601;000.146;83;000.625;MIDI 01
137.752;000.049;84;000.617;MIDI 01
137.738;000.339;65;000.578;MIDI 01
137.904;000.312;84;000.688;MIDI 01
138.030;000.266;96;000.727;MIDI 01
138.666;000.316;85;000.742;MIDI 01
138.669;000.338;97;000.758;MIDI 01
138.669;000.366;68;000.562;MIDI 01
138.260;000.814;60;000.578;MIDI 01
139.059;000.025;65;000.484;MIDI 01
139.377;000.296;48;000.570;MIDI 01
139.379;000.397;84;000.641;MIDI 01
139.723;000.211;96;000.664;MIDI 01
139.931;000.134;95;000.609;MIDI 01
140.039;000.128;94;000.531;MIDI 01
140.131;000.091;91;000.547;MIDI 01
140.252;000.014;88;000.500;MIDI 01
139.992;000.404;64;000.531;MIDI 01
140.374;000.093;84;000.539;MIDI 01
139.805;000.670;58;000.570;MIDI 01
140.455;000.101;83;000.523;MIDI 01
140.525;000.082;82;000.500;MIDI 01
140.613;000.049;79;000.500;MIDI 01
140.684;000.030;76;000.477;MIDI 01
139.602;001.135;55;000.500;MIDI 01
140.812;000.080;72;000.555;MIDI 01
140.893;000.091;71;000.477;MIDI 01
140.965;000.083;70;000.523;MIDI 01
141.062;000.039;67;000.383;MIDI 01
141.136;000.041;64;000.492;MIDI 01
141.268;000.046;61;000.492;MIDI 01
141.379;000.078;60;000.523;MIDI 01
141.459;000.070;61;000.461;MIDI 01
141.545;000.069;60;000.492;MIDI 01
141.621;000.058;61;000.547;MIDI 01
141.706;000.057;60;000.547;MIDI 01
141.769;000.051;61;000.555;MIDI 01
141.855;000.045;60;000.508;MIDI 01
141.909;000.053;61;000.539;MIDI 01
141.988;000.055;60;000.484;MIDI 01
142.045;000.050;61;000.570;MIDI 01
142.148;000.039;60;000.484;MIDI 01
142.192;000.048;61;000.523;MIDI 01
142.279;000.048;60;000.438;MIDI 01
142.347;000.093;61;000.570;MIDI 01
142.435;000.108;60;000.508;MIDI 01
142.548;000.097;59;000.461;MIDI 01
142.705;000.126;60;000.477;MIDI 01
142.841;000.080;61;000.461;MIDI 01
142.943;000.061;63;000.492;MIDI 01
143.047;000.041;61;000.523;MIDI 01
143.133;000.057;63;000.516;MIDI 01
143.208;000.070;61;000.477;MIDI 01
143.300;000.061;63;000.516;MIDI 01
143.377;000.050;61;000.453;MIDI 01
143.466;000.080;60;000.453;MIDI 01
143.573;000.079;61;000.492;MIDI 01
143.711;000.064;62;000.477;MIDI 01
143.816;000.037;63;000.398;MIDI 01
143.905;000.044;62;000.469;MIDI 01
143.970;000.049;63;000.484;MIDI 01
144.066;000.043;62;000.500;MIDI 01
144.133;000.029;63;000.500;MIDI 01
144.200;000.074;62;000.461;MIDI 01
144.257;000.105;63;000.383;MIDI 01
144.367;000.169;62;000.430;MIDI 01
144.534;000.318;61;000.438;MIDI 01
144.840;000.090;62;000.344;MIDI 01
145.159;000.064;63;000.406;MIDI 01
145.283;000.085;65;000.219;MIDI 01
145.303;000.100;44;000.359;MIDI 01
145.347;000.156;63;000.453;MIDI 01
145.631;000.070;60;000.344;MIDI 01
145.597;000.134;62;000.391;MIDI 01
145.752;000.098;63;000.398;MIDI 01
145.819;000.042;51;000.305;MIDI 01
145.926;000.045;50;000.219;MIDI 01
145.900;000.117;72;000.477;MIDI 01
146.055;000.055;60;000.094;MIDI 01
146.040;000.111;70;000.492;MIDI 01
146.143;000.071;51;000.367;MIDI 01
146.155;000.100;68;000.500;MIDI 01
146.294;000.035;46;000.297;MIDI 01
146.286;000.158;67;000.539;MIDI 01
146.422;000.101;61;000.461;MIDI 01
146.415;000.118;77;000.586;MIDI 01
146.574;000.083;51;000.438;MIDI 01
146.531;000.137;76;000.555;MIDI 01
146.673;000.067;75;000.555;MIDI 01
146.720;000.036;50;000.328;MIDI 01
146.792;000.046;61;000.414;MIDI 01
146.932;000.071;51;000.352;MIDI 01
147.032;000.053;63;000.477;MIDI 01
147.054;000.059;44;000.453;MIDI 01
147.125;000.061;65;000.320;MIDI 01
147.196;000.084;63;000.453;MIDI 01
147.305;000.067;60;000.359;MIDI 01
147.326;000.111;62;000.445;MIDI 01
147.454;000.034;51;000.281;MIDI 01
147.445;000.091;63;000.484;MIDI 01
147.526;000.068;50;000.352;MIDI 01
147.598;000.104;72;000.438;MIDI 01
147.764;000.070;51;000.367;MIDI 01
147.730;000.105;70;000.477;MIDI 01
147.833;000.094;68;000.430;MIDI 01
147.894;000.039;46;000.281;MIDI 01
147.948;000.118;67;000.531;MIDI 01
148.048;000.058;61;000.406;MIDI 01
148.081;000.087;77;000.477;MIDI 01
148.177;000.066;51;000.414;MIDI 01
148.183;000.132;76;000.508;MIDI 01
148.307;000.051;50;000.352;MIDI 01
148.318;000.049;75;000.516;MIDI 01
148.400;000.044;61;000.461;MIDI 01
148.534;000.070;51;000.336;MIDI 01
148.557;000.050;75;000.492;MIDI 01
148.653;000.051;48;000.484;MIDI 01
148.651;000.094;77;000.508;MIDI 01
148.732;000.092;75;000.562;MIDI 01
148.841;000.051;63;000.438;MIDI 01
148.803;000.181;51;000.070;MIDI 01
148.864;000.169;74;000.562;MIDI 01
148.973;000.135;56;000.453;MIDI 01
149.002;000.129;75;000.539;MIDI 01
149.165;000.042;48;000.461;MIDI 01
149.182;000.161;84;000.578;MIDI 01
149.364;000.060;64;000.477;MIDI 01
149.354;000.131;79;000.516;MIDI 01
149.490;000.049;56;000.406;MIDI 01
149.592;000.031;49;000.445;MIDI 01
149.509;000.127;82;000.523;MIDI 01
149.659;000.062;56;000.414;MIDI 01
149.616;000.107;80;000.586;MIDI 01
149.776;000.056;65;000.406;MIDI 01
149.756;000.088;76;000.570;MIDI 01
149.836;000.079;65;000.242;MIDI 01
149.940;000.044;58;000.367;MIDI 01
149.887;000.098;79;000.492;MIDI 01
149.997;000.067;56;000.453;MIDI 01
149.970;000.101;77;000.430;MIDI 01
150.109;000.046;65;000.375;MIDI 01
150.131;000.068;72;000.477;MIDI 01
150.230;000.069;58;000.344;MIDI 01
150.232;000.114;75;000.469;MIDI 01
150.350;000.110;73;000.531;MIDI 01
150.473;000.110;61;000.406;MIDI 01
150.517;000.092;65;000.344;MIDI 01
150.546;000.073;67;000.172;MIDI 01
150.583;000.119;58;000.391;MIDI 01
150.352;000.356;49;000.391;MIDI 01
150.623;000.095;67;000.070;MIDI 01
150.772;000.089;68;000.406;MIDI 01
150.848;000.133;61;000.336;MIDI 01
150.741;000.245;53;000.375;MIDI 01
150.925;000.136;72;000.312;MIDI 01
151.003;000.083;58;000.344;MIDI 01
151.045;000.116;70;000.461;MIDI 01
151.160;000.110;68;000.477;MIDI 01
151.261;000.108;61;000.344;MIDI 01
151.303;000.086;65;000.430;MIDI 01
151.448;000.081;68;000.406;MIDI 01
151.414;000.119;58;000.312;MIDI 01
151.564;000.140;67;000.469;MIDI 01
151.714;000.135;62;000.383;MIDI 01
151.716;000.183;61;000.336;MIDI 01
151.573;000.384;55;000.375;MIDI 01
151.115;000.955;51;000.359;MIDI 01
151.949;000.123;58;000.422;MIDI 01
151.999;000.143;65;000.555;MIDI 01
152.421;000.038;63;000.359;MIDI 01
152.488;000.103;44;000.414;MIDI 01
152.526;000.067;65;000.367;MIDI 01
152.591;000.163;63;000.445;MIDI 01
152.792;000.114;60;000.453;MIDI 01
152.804;000.148;62;000.492;MIDI 01
152.981;000.062;51;000.383;MIDI 01
152.967;000.199;63;000.453;MIDI 01
153.148;000.200;50;000.430;MIDI 01
153.155;000.213;72;000.430;MIDI 01
153.300;000.117;60;000.359;MIDI 01
153.356;000.148;70;000.469;MIDI 01
153.470;000.147;51;000.430;MIDI 01
153.508;000.111;68;000.508;MIDI 01
153.641;000.146;46;000.461;MIDI 01
153.660;000.133;67;000.508;MIDI 01
153.804;000.067;61;000.469;MIDI 01
153.793;000.142;77;000.570;MIDI 01
153.954;000.083;51;000.453;MIDI 01
153.939;000.138;76;000.555;MIDI 01
154.077;000.032;75;000.570;MIDI 01
154.075;000.070;50;000.422;MIDI 01
154.169;000.049;61;000.453;MIDI 01
154.307;000.071;51;000.398;MIDI 01
154.393;000.052;63;000.438;MIDI 01
154.444;000.044;44;000.422;MIDI 01
154.460;000.077;65;000.367;MIDI 01
154.547;000.077;63;000.484;MIDI 01
154.661;000.077;60;000.438;MIDI 01
154.675;000.112;62;000.469;MIDI 01
154.803;000.051;51;000.281;MIDI 01
154.795;000.094;63;000.469;MIDI 01
154.895;000.070;50;000.344;MIDI 01
154.925;000.124;72;000.516;MIDI 01
155.032;000.040;60;000.289;MIDI 01
155.067;000.115;70;000.484;MIDI 01
155.135;000.093;51;000.422;MIDI 01
155.172;000.097;68;000.492;MIDI 01
155.324;000.020;46;000.023;MIDI 01
155.296;000.140;67;000.547;MIDI 01
155.410;000.091;61;000.484;MIDI 01
155.433;000.118;77;000.531;MIDI 01
155.562;000.066;51;000.438;MIDI 01
155.558;000.118;76;000.484;MIDI 01
155.672;000.037;75;000.516;MIDI 01
155.680;000.064;50;000.398;MIDI 01
155.773;000.052;61;000.477;MIDI 01
155.918;000.051;75;000.492;MIDI 01
155.910;000.078;51;000.320;MIDI 01
156.045;000.027;47;000.461;MIDI 01
156.023;000.089;77;000.484;MIDI 01
156.101;000.120;75;000.508;MIDI 01
156.269;000.104;74;000.508;MIDI 01
156.250;000.125;63;000.406;MIDI 01
156.397;000.077;75;000.523;MIDI 01
156.419;000.073;57;000.312;MIDI 01
156.539;000.114;76;000.555;MIDI 01
156.633;000.071;63;000.344;MIDI 01
156.520;000.203;54;000.453;MIDI 01
156.744;000.031;57;000.352;MIDI 01
156.653;000.141;77;000.531;MIDI 01
156.789;000.118;78;000.602;MIDI 01
156.944;000.052;46;000.414;MIDI 01
156.968;000.286;79;000.570;MIDI 01
157.184;000.132;63;000.453;MIDI 01
157.176;000.164;91;000.609;MIDI 01
157.334;000.099;58;000.461;MIDI 01
157.338;000.124;86;000.531;MIDI 01
157.466;000.114;55;000.414;MIDI 01
157.484;000.097;87;000.516;MIDI 01
157.561;000.100;63;000.359;MIDI 01
157.588;000.106;83;000.523;MIDI 01
157.691;000.034;58;000.344;MIDI 01
157.732;000.096;84;000.555;MIDI 01
157.826;000.027;46;000.375;MIDI 01
157.894;000.048;79;000.492;MIDI 01
158.004;000.082;62;000.359;MIDI 01
157.988;000.112;82;000.438;MIDI 01
158.104;000.095;80;000.492;MIDI 01
158.075;000.143;58;000.406;MIDI 01
158.207;000.077;77;000.477;MIDI 01
158.227;000.076;56;000.336;MIDI 01
158.355;000.069;62;000.352;MIDI 01
158.371;000.109;72;000.438;MIDI 01
158.509;000.123;58;000.328;MIDI 01
158.497;000.140;74;000.477;MIDI 01
158.645;000.043;51;000.422;MIDI 01
158.664;000.107;75;000.414;MIDI 01
158.824;000.066;70;000.438;MIDI 01
158.865;000.093;67;000.359;MIDI 01
159.000;000.058;63;000.242;MIDI 01
158.976;000.097;71;000.438;MIDI 01
159.105;000.098;72;000.445;MIDI 01
159.220;000.085;73;000.500;MIDI 01
159.226;000.134;67;000.398;MIDI 01
159.089;000.285;58;000.398;MIDI 01
159.365;000.079;74;000.477;MIDI 01
159.379;000.102;63;000.391;MIDI 01
159.496;000.081;75;000.547;MIDI 01
159.502;000.223;60;000.469;MIDI 01
159.616;000.117;76;000.562;MIDI 01
159.632;000.119;66;000.430;MIDI 01
159.736;000.124;77;000.555;MIDI 01
159.756;000.117;63;000.391;MIDI 01
159.884;000.169;58;000.469;MIDI 01
160.020;000.084;66;000.406;MIDI 01
160.104;000.139;63;000.398;MIDI 01
159.867;000.485;78;000.586;MIDI 01
160.270;000.207;57;000.414;MIDI 01
160.400;000.117;76;000.484;MIDI 01
160.387;000.144;65;000.453;MIDI 01
160.527;000.116;77;000.484;MIDI 01
160.552;000.146;63;000.430;MIDI 01
160.719;000.143;58;000.445;MIDI 01
160.838;000.076;66;000.398;MIDI 01
160.943;000.094;63;000.359;MIDI 01
160.688;000.536;84;000.531;MIDI 01
161.199;000.060;75;000.430;MIDI 01
161.081;000.218;57;000.391;MIDI 01
161.224;000.153;65;000.422;MIDI 01
161.367;000.042;63;000.273;MIDI 01
161.304;000.106;77;000.453;MIDI 01
161.431;000.094;80;000.469;MIDI 01
161.506;000.060;78;000.438;MIDI 01
161.485;000.119;53;000.445;MIDI 01
161.589;000.079;77;000.461;MIDI 01
161.608;000.144;65;000.406;MIDI 01
161.746;000.080;60;000.383;MIDI 01
161.742;000.107;75;000.414;MIDI 01
161.868;000.126;77;000.477;MIDI 01
161.875;000.182;58;000.406;MIDI 01
161.994;000.124;65;000.344;MIDI 01
162.006;000.113;72;000.477;MIDI 01
162.137;000.079;61;000.336;MIDI 01
162.140;000.103;75;000.461;MIDI 01
162.258;000.184;56;000.375;MIDI 01
162.389;000.122;64;000.398;MIDI 01
162.520;000.084;58;000.391;MIDI 01
162.256;000.442;73;000.484;MIDI 01
162.627;000.225;55;000.492;MIDI 01
162.759;000.169;63;000.453;MIDI 01
162.768;000.162;72;000.500;MIDI 01
162.892;000.116;58;000.398;MIDI 01
162.894;000.160;73;000.539;MIDI 01
163.043;000.207;56;000.414;MIDI 01
163.205;000.101;64;000.406;MIDI 01
163.319;000.084;59;000.320;MIDI 01
163.450;000.061;55;000.375;MIDI 01
163.030;000.520;76;000.594;MIDI 01
163.592;000.119;63;000.359;MIDI 01
163.611;000.121;74;000.484;MIDI 01
163.736;000.173;58;000.336;MIDI 01
163.742;000.195;75;000.469;MIDI 01
163.940;000.229;53;000.367;MIDI 01
164.095;000.169;62;000.391;MIDI 01
163.936;000.438;82;000.422;MIDI 01
164.272;000.104;56;000.281;MIDI 01
164.419;000.076;52;000.305;MIDI 01
164.499;000.089;73;000.391;MIDI 01
164.542;000.165;61;000.414;MIDI 01
164.648;000.084;75;000.422;MIDI 01
164.743;000.067;79;000.445;MIDI 01
164.767;000.139;51;000.414;MIDI 01
164.804;000.146;77;000.492;MIDI 01
164.899;000.067;61;000.438;MIDI 01
164.942;000.110;75;000.445;MIDI 01
165.010;000.049;55;000.180;MIDI 01
165.072;000.085;73;000.477;MIDI 01
165.247;000.046;44;000.023;MIDI 01
165.253;000.149;75;000.375;MIDI 01
165.485;000.174;70;000.391;MIDI 01
165.378;000.390;60;000.383;MIDI 01
165.559;000.290;56;000.297;MIDI 01
165.707;000.209;73;000.414;MIDI 01
165.819;000.290;52;000.391;MIDI 01
166.084;000.265;60;000.430;MIDI 01
166.280;000.178;56;000.398;MIDI 01
165.921;000.782;72;000.523;MIDI 01
166.465;000.344;53;000.391;MIDI 01
166.685;000.170;60;000.359;MIDI 01
166.711;000.147;67;000.461;MIDI 01
166.891;000.042;56;000.305;MIDI 01
166.902;000.128;68;000.391;MIDI 01
167.066;000.031;46;000.453;MIDI 01
167.075;000.203;72;000.398;MIDI 01
167.293;000.112;62;000.430;MIDI 01
167.283;000.148;70;000.422;MIDI 01
167.430;000.090;56;000.352;MIDI 01
167.435;000.098;68;000.422;MIDI 01
167.576;000.070;67;000.406;MIDI 01
167.723;000.052;70;000.430;MIDI 01
167.595;000.263;51;000.359;MIDI 01
167.724;000.134;63;000.359;MIDI 01
167.860;000.111;72;000.492;MIDI 01
167.867;000.115;58;000.414;MIDI 01
167.991;000.118;73;000.500;MIDI 01
168.012;000.223;55;000.430;MIDI 01
168.132;000.148;77;000.469;MIDI 01
168.113;000.234;63;000.414;MIDI 01
168.271;000.111;58;000.414;MIDI 01
168.247;000.178;75;000.430;MIDI 01
168.369;000.106;72;000.484;MIDI 01
168.502;000.086;63;000.445;MIDI 01
168.401;000.203;56;000.469;MIDI 01
168.526;000.125;67;000.469;MIDI 01
168.646;000.090;60;000.406;MIDI 01
168.655;000.098;68;000.508;MIDI 01
168.777;000.121;72;000.523;MIDI 01
168.769;000.186;53;000.500;MIDI 01
168.901;000.127;62;000.445;MIDI 01
168.894;000.142;70;000.562;MIDI 01
169.028;000.093;58;000.383;MIDI 01
169.020;000.111;68;000.508;MIDI 01
169.145;000.090;67;000.531;MIDI 01
169.160;000.149;51;000.508;MIDI 01
169.282;000.045;70;000.523;MIDI 01
169.287;000.126;63;000.492;MIDI 01
169.406;000.116;58;000.445;MIDI 01
169.430;000.098;72;000.539;MIDI 01
169.540;000.131;73;000.562;MIDI 01
169.514;000.258;55;000.484;MIDI 01
169.679;000.133;77;000.570;MIDI 01
169.628;000.194;63;000.430;MIDI 01
169.769;000.147;58;000.445;MIDI 01
169.807;000.169;75;000.492;MIDI 01
169.934;000.100;72;000.508;MIDI 01
169.942;000.209;56;000.484;MIDI 01
170.017;000.153;63;000.438;MIDI 01
170.054;000.142;71;000.539;MIDI 01
170.174;000.135;60;000.406;MIDI 01
170.185;000.128;72;000.547;MIDI 01
170.333;000.180;76;000.602;MIDI 01
170.323;000.269;56;000.469;MIDI 01
170.488;000.145;64;000.422;MIDI 01
170.494;000.141;70;000.516;MIDI 01
170.661;000.059;71;000.469;MIDI 01
170.625;000.105;59;000.422;MIDI 01
170.762;000.135;75;000.539;MIDI 01
170.754;000.223;55;000.438;MIDI 01
170.870;000.129;63;000.477;MIDI 01
170.890;000.125;69;000.523;MIDI 01
171.040;000.054;70;000.430;MIDI 01
171.043;000.067;58;000.336;MIDI 01
171.133;000.136;74;000.547;MIDI 01
171.156;000.185;54;000.430;MIDI 01
171.270;000.124;68;000.500;MIDI 01
171.268;000.128;62;000.430;MIDI 01
171.433;000.040;69;000.430;MIDI 01
171.402;000.073;57;000.398;MIDI 01
171.528;000.139;73;000.531;MIDI 01
171.526;000.209;53;000.422;MIDI 01
171.649;000.126;67;000.453;MIDI 01
171.654;000.160;61;000.453;MIDI 01
171.794;000.055;68;000.461;MIDI 01
171.812;000.055;56;000.266;MIDI 01
171.901;000.142;74;000.547;MIDI 01
171.903;000.197;54;000.453;MIDI 01
172.024;000.121;62;000.438;MIDI 01
172.051;000.107;68;000.484;MIDI 01
172.168;000.051;57;000.344;MIDI 01
172.198;000.053;69;000.430;MIDI 01
172.293;000.111;73;000.500;MIDI 01
172.289;000.195;53;000.320;MIDI 01
172.391;000.104;61;000.453;MIDI 01
172.427;000.115;67;000.469;MIDI 01
172.559;000.069;56;000.336;MIDI 01
172.591;000.051;68;000.148;MIDI 01
172.665;000.143;72;000.508;MIDI 01
172.695;000.154;52;000.359;MIDI 01
172.768;000.136;60;000.398;MIDI 01
172.807;000.130;66;000.453;MIDI 01
172.931;000.055;55;000.305;MIDI 01
172.986;000.042;67;000.320;MIDI 01
173.069;000.101;71;000.438;MIDI 01
173.049;000.240;51;000.398;MIDI 01
173.202;000.120;65;000.453;MIDI 01
173.181;000.159;59;000.359;MIDI 01
173.326;000.072;54;000.336;MIDI 01
173.366;000.048;66;000.367;MIDI 01
173.468;000.128;52;000.406;MIDI 01
173.447;000.161;72;000.523;MIDI 01
173.548;000.111;60;000.336;MIDI 01
173.594;000.122;66;000.406;MIDI 01
173.703;000.060;55;000.289;MIDI 01
173.773;000.044;67;000.352;MIDI 01
173.861;000.086;71;000.414;MIDI 01
174.003;000.100;65;000.430;MIDI 01
173.829;000.310;51;000.383;MIDI 01
173.970;000.180;59;000.336;MIDI 01
174.135;000.068;54;000.336;MIDI 01
174.144;000.069;66;000.430;MIDI 01
174.274;000.094;70;000.461;MIDI 01
174.267;000.203;50;000.305;MIDI 01
174.399;000.110;64;000.422;MIDI 01
174.394;000.167;58;000.305;MIDI 01
174.536;000.036;65;000.391;MIDI 01
174.588;000.068;53;000.086;MIDI 01
174.699;000.110;65;000.461;MIDI 01
174.685;000.170;49;000.438;MIDI 01
174.821;000.079;58;000.320;MIDI 01
174.840;000.092;67;000.461;MIDI 01
174.922;000.093;53;000.297;MIDI 01
174.950;000.149;68;000.469;MIDI 01
175.054;000.075;46;000.477;MIDI 01
175.083;000.090;70;000.578;MIDI 01
175.225;000.054;61;000.469;MIDI 01
175.224;000.141;72;000.547;MIDI 01
175.366;000.081;53;000.336;MIDI 01
175.374;000.144;73;000.484;MIDI 01
175.514;000.335;51;000.391;MIDI 01
175.666;000.203;60;000.320;MIDI 01
175.843;000.101;56;000.344;MIDI 01
175.525;000.480;72;000.461;MIDI 01
176.003;000.067;70;000.477;MIDI 01
176.149;000.096;61;000.359;MIDI 01
176.001;000.271;51;000.414;MIDI 01
176.265;000.032;55;000.375;MIDI 01
176.416;000.040;63;000.383;MIDI 01
176.466;000.097;65;000.445;MIDI 01
176.529;000.098;44;000.484;MIDI 01
176.572;000.108;63;000.469;MIDI 01
176.804;000.071;60;000.391;MIDI 01
176.766;000.110;62;000.453;MIDI 01
176.917;000.077;63;000.461;MIDI 01
176.953;000.049;51;000.344;MIDI 01
177.069;000.050;50;000.344;MIDI 01
177.058;000.103;72;000.516;MIDI 01
177.161;000.046;60;000.336;MIDI 01
177.183;000.115;70;000.469;MIDI 01
177.287;000.096;51;000.359;MIDI 01
177.312;000.094;68;000.469;MIDI 01
177.431;000.037;46;000.320;MIDI 01
177.434;000.141;67;000.539;MIDI 01
177.568;000.078;61;000.453;MIDI 01
177.581;000.086;77;000.516;MIDI 01
177.722;000.056;51;000.367;MIDI 01
177.696;000.123;76;000.484;MIDI 01
177.819;000.043;75;000.516;MIDI 01
177.826;000.062;50;000.383;MIDI 01
177.939;000.027;61;000.383;MIDI 01
178.040;000.074;51;000.391;MIDI 01
178.122;000.051;63;000.516;MIDI 01
178.160;000.034;44;000.445;MIDI 01
178.174;000.113;65;000.336;MIDI 01
178.285;000.065;63;000.492;MIDI 01
178.382;000.083;60;000.406;MIDI 01
178.397;000.131;62;000.508;MIDI 01
178.492;000.059;51;000.422;MIDI 01
178.523;000.084;63;000.508;MIDI 01
178.620;000.086;50;000.359;MIDI 01
178.659;000.114;72;000.562;MIDI 01
178.748;000.076;60;000.383;MIDI 01
178.793;000.110;70;000.531;MIDI 01
178.845;000.085;51;000.438;MIDI 01
178.890;000.097;68;000.547;MIDI 01
178.996;000.044;48;000.414;MIDI 01
179.022;000.148;69;000.586;MIDI 01
179.174;000.114;78;000.547;MIDI 01
179.181;000.111;63;000.438;MIDI 01
179.297;000.124;76;000.516;MIDI 01
179.333;000.098;57;000.383;MIDI 01
179.409;000.057;77;000.570;MIDI 01
179.431;000.157;53;000.445;MIDI 01
179.555;000.050;63;000.469;MIDI 01
179.647;000.079;70;000.531;MIDI 01
179.688;000.096;57;000.367;MIDI 01
179.803;000.045;50;000.531;MIDI 01
179.746;000.104;72;000.461;MIDI 01
179.840;000.089;70;000.539;MIDI 01
179.991;000.059;65;000.477;MIDI 01
179.954;000.124;69;000.570;MIDI 01
180.073;000.090;70;000.594;MIDI 01
180.129;000.052;58;000.367;MIDI 01
180.233;000.032;51;000.398;MIDI 01
180.210;000.135;80;000.594;MIDI 01
180.369;000.104;67;000.492;MIDI 01
180.338;000.137;78;000.547;MIDI 01
180.442;000.065;79;000.531;MIDI 01
180.530;000.096;58;000.422;MIDI 01
180.625;000.067;72;000.594;MIDI 01
180.627;000.072;52;000.516;MIDI 01
180.705;000.083;73;000.500;MIDI 01
180.753;000.074;58;000.102;MIDI 01
180.776;000.096;72;000.547;MIDI 01
180.800;000.107;67;000.453;MIDI 01
180.911;000.012;67;000.023;MIDI 01
180.898;000.066;71;000.570;MIDI 01
180.925;000.083;60;000.414;MIDI 01
180.997;000.074;72;000.508;MIDI 01
181.089;000.043;53;000.539;MIDI 01
181.115;000.141;82;000.531;MIDI 01
181.269;000.100;68;000.508;MIDI 01
181.291;000.158;79;000.555;MIDI 01
181.447;000.142;60;000.352;MIDI 01
181.449;000.142;80;000.609;MIDI 01
181.594;000.049;55;000.531;MIDI 01
181.622;000.168;74;000.562;MIDI 01
181.805;000.073;75;000.594;MIDI 01
181.784;000.147;73;000.539;MIDI 01
181.925;000.134;67;000.461;MIDI 01
181.952;000.114;77;000.547;MIDI 01
182.069;000.100;79;000.555;MIDI 01
182.166;000.091;73;000.484;MIDI 01
182.071;000.192;63;000.469;MIDI 01
182.184;000.082;80;000.578;MIDI 01
182.303;000.095;67;000.359;MIDI 01
182.300;000.099;81;000.547;MIDI 01
182.412;000.064;58;000.516;MIDI 01
182.424;000.075;82;000.570;MIDI 01
182.556;000.103;73;000.547;MIDI 01
182.568;000.093;84;000.570;MIDI 01
182.695;000.077;85;000.547;MIDI 01
182.699;000.123;67;000.469;MIDI 01
182.807;000.168;86;000.602;MIDI 01
182.948;000.095;73;000.414;MIDI 01
182.821;000.257;63;000.438;MIDI 01
182.939;000.142;89;000.625;MIDI 01
183.076;000.029;67;000.453;MIDI 01
183.074;000.085;87;000.688;MIDI 01
183.269;000.096;56;000.586;MIDI 01
183.293;000.155;87;000.633;MIDI 01
183.474;000.107;96;000.617;MIDI 01
183.499;000.150;72;000.516;MIDI 01
183.627;000.030;85;000.586;MIDI 01
183.631;000.119;68;000.438;MIDI 01
183.735;000.120;94;000.633;MIDI 01
183.775;000.151;63;000.492;MIDI 01
183.879;000.052;72;000.445;MIDI 01
183.881;000.078;84;000.594;MIDI 01
183.939;000.032;68;000.430;MIDI 01
183.990;000.100;92;000.633;MIDI 01
184.124;000.040;48;000.328;MIDI 01
184.140;000.035;82;000.539;MIDI 01
184.247;000.094;91;000.641;MIDI 01
184.296;000.067;64;000.438;MIDI 01
184.417;000.039;80;000.273;MIDI 01
184.389;000.108;60;000.422;MIDI 01
184.526;000.076;58;000.375;MIDI 01
184.645;000.117;79;000.570;MIDI 01
184.650;000.125;64;000.406;MIDI 01
184.507;000.277;89;000.578;MIDI 01
184.814;000.091;60;000.359;MIDI 01
184.798;000.138;88;000.586;MIDI 01
184.953;000.157;84;000.555;MIDI 01
184.935;000.245;53;000.406;MIDI 01
185.090;000.158;65;000.461;MIDI 01
185.102;000.159;92;000.609;MIDI 01
185.258;000.091;82;000.562;MIDI 01
185.253;000.100;60;000.359;MIDI 01
185.393;000.127;91;000.594;MIDI 01
185.508;000.065;65;000.336;MIDI 01
185.418;000.158;56;000.266;MIDI 01
185.558;000.059;80;000.445;MIDI 01
185.671;000.089;89;000.531;MIDI 01
185.753;000.027;45;000.562;MIDI 01
185.848;000.042;78;000.453;MIDI 01
185.952;000.101;60;000.422;MIDI 01
185.986;000.124;87;000.445;MIDI 01
186.103;000.070;54;000.359;MIDI 01
186.130;000.062;77;000.422;MIDI 01
186.254;000.135;85;000.523;MIDI 01
186.387;000.104;60;000.391;MIDI 01
186.431;000.085;75;000.484;MIDI 01
186.257;000.274;51;000.312;MIDI 01
186.572;000.124;54;000.328;MIDI 01
186.613;000.197;84;000.469;MIDI 01
186.827;000.074;46;000.352;MIDI 01
186.852;000.210;87;000.445;MIDI 01
187.075;000.069;61;000.375;MIDI 01
187.101;000.092;85;000.359;MIDI 01
187.256;000.125;89;000.469;MIDI 01
187.416;000.095;85;000.492;MIDI 01
187.577;000.077;63;000.391;MIDI 01
187.559;000.121;84;000.453;MIDI 01
187.765;000.035;57;000.117;MIDI 01
187.705;000.100;87;000.477;MIDI 01
187.823;000.079;49;000.266;MIDI 01
187.839;000.074;84;000.438;MIDI 01
187.975;000.085;82;000.508;MIDI 01
188.028;000.160;65;000.273;MIDI 01
188.113;000.128;85;000.406;MIDI 01
188.130;000.120;58;000.375;MIDI 01
188.229;000.081;82;000.430;MIDI 01
188.280;000.062;56;000.289;MIDI 01
188.364;000.030;80;000.430;MIDI 01
188.358;000.049;65;000.281;MIDI 01
188.469;000.040;58;000.383;MIDI 01
188.473;000.141;84;000.438;MIDI 01
188.569;000.048;49;000.406;MIDI 01
188.613;000.092;80;000.430;MIDI 01
188.750;000.096;79;000.492;MIDI 01
188.748;000.118;65;000.438;MIDI 01
188.849;000.115;82;000.477;MIDI 01
188.857;000.110;58;000.383;MIDI 01
188.984;000.059;56;000.445;MIDI 01
188.995;000.051;79;000.375;MIDI 01
189.103;000.047;65;000.234;MIDI 01
189.093;000.111;77;000.406;MIDI 01
189.170;000.068;58;000.422;MIDI 01
189.216;000.073;80;000.484;MIDI 01
189.271;000.037;49;000.461;MIDI 01
189.308;000.076;77;000.453;MIDI 01
189.434;000.030;75;000.477;MIDI 01
189.439;000.135;65;000.375;MIDI 01
189.572;000.080;58;000.383;MIDI 01
189.541;000.142;79;000.477;MIDI 01
189.652;000.106;56;000.445;MIDI 01
189.643;000.132;75;000.359;MIDI 01
189.783;000.043;65;000.297;MIDI 01
189.775;000.082;73;000.477;MIDI 01
189.856;000.075;58;000.242;MIDI 01
189.906;000.135;77;000.492;MIDI 01
190.040;000.065;73;000.453;MIDI 01
190.006;000.147;51;000.445;MIDI 01
190.136;000.027;63;000.438;MIDI 01
190.179;000.064;72;000.453;MIDI 01
190.261;000.057;56;000.320;MIDI 01
190.283;000.113;75;000.422;MIDI 01
190.364;000.117;50;000.430;MIDI 01
190.385;000.100;72;000.484;MIDI 01
190.494;000.058;64;000.273;MIDI 01
190.511;000.083;71;000.523;MIDI 01
190.599;000.083;56;000.383;MIDI 01
190.644;000.112;76;000.516;MIDI 01
190.738;000.116;51;000.414;MIDI 01
190.771;000.094;73;000.484;MIDI 01
190.851;000.030;63;000.398;MIDI 01
190.904;000.076;72;000.469;MIDI 01
190.963;000.079;56;000.352;MIDI 01
191.017;000.170;75;000.453;MIDI 01
191.139;000.071;72;000.383;MIDI 01
191.071;000.164;50;000.414;MIDI 01
191.186;000.083;64;000.227;MIDI 01
191.232;000.079;71;000.492;MIDI 01
191.302;000.073;56;000.414;MIDI 01
191.359;000.103;76;000.531;MIDI 01
191.491;000.090;73;000.508;MIDI 01
191.463;000.124;51;000.406;MIDI 01
191.565;000.041;63;000.367;MIDI 01
191.604;000.104;72;000.492;MIDI 01
191.702;000.095;56;000.430;MIDI 01
191.742;000.114;75;000.453;MIDI 01
191.860;000.083;72;000.492;MIDI 01
191.841;000.138;50;000.359;MIDI 01
191.931;000.091;64;000.477;MIDI 01
191.955;000.096;71;000.477;MIDI 01
192.085;000.085;56;000.438;MIDI 01
192.094;000.106;76;000.516;MIDI 01
192.229;000.085;73;000.484;MIDI 01
192.245;000.124;51;000.453;MIDI 01
192.333;000.052;63;000.391;MIDI 01
192.352;000.082;72;000.453;MIDI 01
192.492;000.093;56;000.375;MIDI 01
192.478;000.119;75;000.406;MIDI 01
192.596;000.078;72;000.438;MIDI 01
192.627;000.089;50;000.258;MIDI 01
192.688;000.083;64;000.281;MIDI 01
192.714;000.098;71;000.430;MIDI 01
192.850;000.057;56;000.336;MIDI 01
192.848;000.128;76;000.469;MIDI 01
193.006;000.107;73;000.469;MIDI 01
192.996;000.154;51;000.336;MIDI 01
193.102;000.070;63;000.344;MIDI 01
193.167;000.119;72;000.461;MIDI 01
193.261;000.083;56;000.305;MIDI 01
193.351;000.137;50;000.414;MIDI 01
193.280;000.258;75;000.562;MIDI 01
193.521;000.051;64;000.305;MIDI 01
193.451;000.125;72;000.492;MIDI 01
193.576;000.106;71;000.508;MIDI 01
193.617;000.068;56;000.422;MIDI 01
193.679;000.151;76;000.586;MIDI 01
193.777;000.153;51;000.391;MIDI 01
193.831;000.108;73;000.539;MIDI 01
193.908;000.043;63;000.359;MIDI 01
193.977;000.095;72;000.461;MIDI 01
194.046;000.080;56;000.352;MIDI 01
194.076;000.190;75;000.500;MIDI 01
194.159;000.108;50;000.367;MIDI 01
194.214;000.110;72;000.477;MIDI 01
194.314;000.079;64;000.250;MIDI 01
194.350;000.097;71;000.453;MIDI 01
194.446;000.094;56;000.375;MIDI 01
194.489;000.125;76;000.508;MIDI 01
194.623;000.131;73;000.477;MIDI 01
194.611;000.200;51;000.336;MIDI 01
194.759;000.054;63;000.328;MIDI 01
194.779;000.076;72;000.422;MIDI 01
194.903;000.109;56;000.305;MIDI 01
194.911;000.123;75;000.414;MIDI 01
195.065;000.058;50;000.219;MIDI 01
195.041;000.110;72;000.422;MIDI 01
195.219;000.098;64;000.180;MIDI 01
195.204;000.121;71;000.398;MIDI 01
195.366;000.289;56;000.305;MIDI 01
195.378;000.356;76;000.328;MIDI 01
195.650;000.322;77;000.266;MIDI 01
195.666;000.338;65;000.203;MIDI 01
197.073;000.185;67;000.297;MIDI 01
197.098;000.188;58;000.117;MIDI 01
197.080;000.223;61;000.242;MIDI 01
197.095;000.275;51;000.234;MIDI 01
197.682;000.100;44;000.297;MIDI 01
197.703;000.150;68;000.258;MIDI 01
197.711;000.150;60;000.242;MIDI 01
197.975;000.095;60;000.258;MIDI 01
198.148;000.083;51;000.359;MIDI 01
198.299;000.084;50;000.336;MIDI 01
198.309;000.129;67;000.344;MIDI 01
198.315;000.156;72;000.367;MIDI 01
198.443;000.042;61;000.359;MIDI 01
198.491;000.066;73;000.469;MIDI 01
198.620;000.031;70;000.352;MIDI 01
198.601;000.056;51;000.336;MIDI 01
198.739;000.036;44;000.422;MIDI 01
198.783;000.068;68;000.430;MIDI 01
198.939;000.033;63;000.336;MIDI 01
198.953;000.045;60;000.375;MIDI 01
198.781;000.231;75;000.430;MIDI 01
199.030;000.123;68;000.406;MIDI 01
199.113;000.047;51;000.242;MIDI 01
199.183;000.060;50;000.422;MIDI 01
199.171;000.143;72;000.539;MIDI 01
199.209;000.135;67;000.406;MIDI 01
199.319;000.029;61;000.430;MIDI 01
199.322;000.106;73;000.508;MIDI 01
199.464;000.053;51;000.250;MIDI 01
199.457;000.066;70;000.453;MIDI 01
199.553;000.066;44;000.523;MIDI 01
199.599;000.068;68;000.492;MIDI 01
199.729;000.046;63;000.438;MIDI 01
199.598;000.219;75;000.461;MIDI 01
199.766;000.092;60;000.438;MIDI 01
199.917;000.041;51;000.375;MIDI 01
199.820;000.144;68;000.508;MIDI 01
199.958;000.136;72;000.562;MIDI 01
199.997;000.104;50;000.469;MIDI 01
199.991;000.157;67;000.508;MIDI 01
200.126;000.038;61;000.414;MIDI 01
200.099;000.115;73;000.562;MIDI 01
200.230;000.049;70;000.539;MIDI 01
200.247;000.073;51;000.430;MIDI 01
200.351;000.062;44;000.570;MIDI 01
200.358;000.095;68;000.578;MIDI 01
200.475;000.052;63;000.531;MIDI 01
200.375;000.198;75;000.531;MIDI 01
200.531;000.088;60;000.453;MIDI 01
200.678;000.054;51;000.258;MIDI 01
200.602;000.134;68;000.523;MIDI 01
200.726;000.132;72;000.594;MIDI 01
200.750;000.121;50;000.484;MIDI 01
200.878;000.050;61;000.430;MIDI 01
200.758;000.223;67;000.500;MIDI 01
200.870;000.117;73;000.539;MIDI 01
200.997;000.048;70;000.547;MIDI 01
201.010;000.129;51;000.469;MIDI 01
201.173;000.066;44;000.492;MIDI 01
201.290;000.093;51;000.422;MIDI 01
201.432;000.041;60;000.344;MIDI 01
201.417;000.062;68;000.391;MIDI 01
201.398;000.089;80;000.422;MIDI 01
202.004;000.202;60;000.102;MIDI 01
201.977;000.231;67;000.352;MIDI 01
202.008;000.210;64;000.258;MIDI 01
201.993;000.499;48;000.234;MIDI 01
202.479;000.061;53;000.133;MIDI 01
202.425;000.184;60;000.258;MIDI 01
202.450;000.190;65;000.289;MIDI 01
202.463;000.230;41;000.344;MIDI 01
202.445;000.250;68;000.367;MIDI 01
202.939;000.101;51;000.203;MIDI 01
202.927;000.124;67;000.266;MIDI 01
202.914;000.179;70;000.336;MIDI 01
202.942;000.207;61;000.219;MIDI 01
202.916;000.265;39;000.305;MIDI 01
203.438;000.129;32;000.281;MIDI 01
203.447;000.123;44;000.305;MIDI 01
203.427;000.162;72;000.391;MIDI 01
203.457;000.149;68;000.250;MIDI 01
203.429;000.247;60;000.273;MIDI 01
203.925;000.160;48;000.289;MIDI 01
203.927;000.159;64;000.344;MIDI 01
203.921;000.186;67;000.375;MIDI 01
203.935;000.194;36;000.250;MIDI 01
203.925;000.232;60;000.211;MIDI 01
204.458;000.127;53;000.102;MIDI 01
204.431;000.184;60;000.273;MIDI 01
204.455;000.190;65;000.211;MIDI 01
204.423;000.241;41;000.336;MIDI 01
204.433;000.255;68;000.359;MIDI 01
204.938;000.118;67;000.320;MIDI 01
204.957;000.147;70;000.312;MIDI 01
204.959;000.154;61;000.297;MIDI 01
204.951;000.168;51;000.242;MIDI 01
204.965;000.247;39;000.273;MIDI 01
205.600;000.134;32;000.219;MIDI 01
205.608;000.143;60;000.211;MIDI 01
205.594;000.178;68;000.250;MIDI 01
205.586;000.204;44;000.258;MIDI 01
205.602;000.246;72;000.305;MIDI 01
206.242;000.081;44;000.352;MIDI 01
206.272;000.204;72;000.352;MIDI 01
206.262;000.228;67;000.320;MIDI 01
206.533;000.075;61;000.336;MIDI 01
206.503;000.141;73;000.438;MIDI 01
206.702;000.060;70;000.422;MIDI 01
206.746;000.077;51;000.211;MIDI 01
206.896;000.052;44;000.367;MIDI 01
206.923;000.128;68;000.367;MIDI 01
207.094;000.068;63;000.336;MIDI 01
206.911;000.299;75;000.367;MIDI 01
207.128;000.094;60;000.359;MIDI 01
207.307;000.067;51;000.312;MIDI 01
207.236;000.179;68;000.414;MIDI 01
207.439;000.103;50;000.391;MIDI 01
207.416;000.144;72;000.484;MIDI 01
207.441;000.159;67;000.422;MIDI 01
207.559;000.044;61;000.430;MIDI 01
207.579;000.102;73;000.500;MIDI 01
207.715;000.052;70;000.453;MIDI 01
207.736;000.042;51;000.312;MIDI 01
207.827;000.064;44;000.516;MIDI 01
207.873;000.067;68;000.438;MIDI 01
207.973;000.061;63;000.469;MIDI 01
207.867;000.189;75;000.469;MIDI 01
208.024;000.076;60;000.391;MIDI 01
208.178;000.051;51;000.367;MIDI 01
208.103;000.159;68;000.453;MIDI 01
208.268;000.124;50;000.461;MIDI 01
208.257;000.135;72;000.555;MIDI 01
208.404;000.045;61;000.398;MIDI 01
208.293;000.177;67;000.508;MIDI 01
208.406;000.126;73;000.523;MIDI 01
208.546;000.047;70;000.500;MIDI 01
208.542;000.088;51;000.406;MIDI 01
208.671;000.064;44;000.562;MIDI 01
208.685;000.094;68;000.531;MIDI 01
208.811;000.041;63;000.461;MIDI 01
208.683;000.215;75;000.516;MIDI 01
208.861;000.100;60;000.461;MIDI 01
208.942;000.079;68;000.445;MIDI 01
209.043;000.052;51;000.258;MIDI 01
209.079;000.168;72;000.555;MIDI 01
209.092;000.164;50;000.492;MIDI 01
209.233;000.078;61;000.461;MIDI 01
209.110;000.236;67;000.500;MIDI 01
209.253;000.134;73;000.523;MIDI 01
209.395;000.054;70;000.484;MIDI 01
209.411;000.123;51;000.367;MIDI 01
209.555;000.060;44;000.406;MIDI 01
209.669;000.092;51;000.344;MIDI 01
209.748;000.060;68;000.391;MIDI 01
209.789;000.047;60;000.352;MIDI 01
209.909;000.086;75;000.398;MIDI 01
210.043;000.055;84;000.445;MIDI 01
210.693;000.170;64;000.297;MIDI 01
210.671;000.235;60;000.250;MIDI 01
210.666;000.255;67;000.336;MIDI 01
210.653;000.559;48;000.289;MIDI 01
211.169;000.178;53;000.219;MIDI 01
211.135;000.228;60;000.258;MIDI 01
211.167;000.245;41;000.320;MIDI 01
211.158;000.267;68;000.352;MIDI 01
211.183;000.244;65;000.234;MIDI 01
211.726;000.083;51;000.039;MIDI 01
211.673;000.159;67;000.344;MIDI 01
211.704;000.174;70;000.289;MIDI 01
211.710;000.209;61;000.242;MIDI 01
211.676;000.581;39;000.328;MIDI 01
212.269;000.090;32;000.273;MIDI 01
212.238;000.160;72;000.352;MIDI 01
212.229;000.174;44;000.234;MIDI 01
212.224;000.199;68;000.273;MIDI 01
212.226;000.247;60;000.250;MIDI 01
212.740;000.162;64;000.312;MIDI 01
212.789;000.127;48;000.078;MIDI 01
212.748;000.193;36;000.289;MIDI 01
212.724;000.217;67;000.359;MIDI 01
212.752;000.246;60;000.133;MIDI 01
213.268;000.171;53;000.227;MIDI 01
213.260;000.200;60;000.258;MIDI 01
213.253;000.251;41;000.336;MIDI 01
213.297;000.222;65;000.242;MIDI 01
213.276;000.253;68;000.312;MIDI 01
213.875;000.167;51;000.133;MIDI 01
213.843;000.201;67;000.320;MIDI 01
213.863;000.243;61;000.320;MIDI 01
213.867;000.259;70;000.266;MIDI 01
213.849;000.446;39;000.266;MIDI 01
214.597;000.406;72;000.250;MIDI 01
214.583;000.483;60;000.211;MIDI 01
214.606;000.465;68;000.242;MIDI 01
214.592;000.482;32;000.227;MIDI 01
214.603;000.491;44;000.188;MIDI 01
218.269;000.193;67;000.289;MIDI 01
218.281;000.198;36;000.203;MIDI 01
218.265;000.219;64;000.242;MIDI 01
218.267;000.219;48;000.219;MIDI 01
218.272;000.252;60;000.148;MIDI 01
218.803;000.197;53;000.273;MIDI 01
218.808;000.245;60;000.203;MIDI 01
218.831;000.259;65;000.273;MIDI 01
218.815;000.278;68;000.328;MIDI 01
218.828;000.276;41;000.266;MIDI 01
219.409;000.195;51;000.289;MIDI 01
219.401;000.209;67;000.352;MIDI 01
219.412;000.269;70;000.312;MIDI 01
219.427;000.278;61;000.234;MIDI 01
219.417;000.372;39;000.305;MIDI 01
220.125;000.659;32;000.211;MIDI 01
220.134;000.668;60;000.164;MIDI 01
220.143;000.671;68;000.242;MIDI 01
220.147;000.679;72;000.219;MIDI 01
220.121;000.721;44;000.188;MIDI 01
224.609;000.177;53;000.133;MIDI 01
224.614;000.177;60;000.125;MIDI 01
224.621;000.194;65;000.227;MIDI 01
224.578;000.253;41;000.219;MIDI 01
224.597;000.239;68;000.258;MIDI 01
225.218;000.226;51;000.203;MIDI 01
225.221;000.264;67;000.266;MIDI 01
225.215;000.308;70;000.336;MIDI 01
225.228;000.300;61;000.250;MIDI 01
225.207;000.397;39;000.289;MIDI 01
226.064;000.097;72;000.258;MIDI 01
226.094;000.706;32;000.219;MIDI 01
226.088;000.779;44;000.203;MIDI 01
226.101;000.793;60;000.164;MIDI 01
226.099;000.820;68;000.234;MIDI 01
226.167;000.756;72;000.023;MIDI 01
228.603;000.640;72;000.320;MIDI 01
228.614;000.656;44;000.234;MIDI 01
228.635;000.638;60;000.133;MIDI 01
228.616;000.680;51;000.258;MIDI 01
228.610;000.689;68;000.258;MIDI 01
230.296;001.152;44;000.242;MIDI 01
230.258;001.207;72;000.312;MIDI 01
230.303;001.164;60;000.164;MIDI 01
230.318;001.181;68;000.266;MIDI 01
230.294;001.216;51;000.273;MIDI 01
233.072;009.692;44;000.289;MIDI 01
233.059;009.779;72;000.297;MIDI 01
233.065;009.855;51;000.258;MIDI 01
233.070;009.891;60;000.203;MIDI 01
233.057;009.916;68;000.219;MIDI 01
