Start;Duration;Pitch;Velocity;Instrument
001.104;001.475;56;000.633;MIDI 01
001.102;001.654;44;000.617;MIDI 01
004.050;000.294;37;000.469;MIDI 01
004.051;000.358;49;000.508;MIDI 01
004.657;000.186;56;000.297;MIDI 01
004.896;000.097;61;000.328;MIDI 01
005.092;000.061;64;000.312;MIDI 01
005.235;000.057;61;000.188;MIDI 01
005.372;000.041;56;000.219;MIDI 01
005.485;000.078;49;000.297;MIDI 01
005.622;000.070;56;000.281;MIDI 01
005.840;000.067;61;000.102;MIDI 01
005.904;000.062;64;000.281;MIDI 01
006.160;000.040;56;000.227;MIDI 01
006.266;000.076;49;000.359;MIDI 01
006.389;000.070;56;000.266;MIDI 01
006.552;000.040;61;000.305;MIDI 01
006.630;000.077;64;000.336;MIDI 01
006.760;000.039;61;000.297;MIDI 01
006.895;000.050;56;000.195;MIDI 01
007.009;000.059;49;000.320;MIDI 01
007.140;000.080;56;000.234;MIDI 01
007.336;000.058;61;000.117;MIDI 01
007.400;000.061;64;000.305;MIDI 01
007.671;000.047;56;000.250;MIDI 01
007.795;000.056;49;000.344;MIDI 01
007.930;000.042;68;000.312;MIDI 01
007.904;000.124;56;000.273;MIDI 01
008.026;000.055;69;000.352;MIDI 01
008.102;000.051;68;000.438;MIDI 01
008.110;000.078;61;000.070;MIDI 01
008.214;000.032;67;000.328;MIDI 01
008.256;000.072;68;000.445;MIDI 01
008.346;000.054;61;000.203;MIDI 01
008.369;000.072;73;000.406;MIDI 01
008.397;000.088;56;000.359;MIDI 01
008.476;000.093;76;000.422;MIDI 01
008.184;000.466;64;000.312;MIDI 01
008.509;000.149;52;000.406;MIDI 01
008.605;000.068;75;000.430;MIDI 01
008.723;000.029;73;000.383;MIDI 01
008.664;000.112;56;000.406;MIDI 01
008.801;000.043;61;000.383;MIDI 01
008.806;000.053;75;000.375;MIDI 01
008.864;000.050;73;000.500;MIDI 01
008.896;000.051;64;000.281;MIDI 01
008.947;000.049;72;000.438;MIDI 01
008.985;000.052;61;000.359;MIDI 01
009.011;000.070;73;000.516;MIDI 01
009.131;000.051;76;000.430;MIDI 01
009.135;000.068;56;000.305;MIDI 01
009.201;000.030;80;000.523;MIDI 01
009.273;000.095;49;000.414;MIDI 01
009.418;000.091;56;000.328;MIDI 01
009.451;000.065;68;000.406;MIDI 01
009.571;000.033;69;000.391;MIDI 01
009.644;000.032;68;000.422;MIDI 01
009.728;000.046;67;000.289;MIDI 01
009.775;000.048;68;000.508;MIDI 01
009.762;000.146;61;000.266;MIDI 01
009.877;000.049;73;000.438;MIDI 01
009.883;000.095;56;000.375;MIDI 01
009.975;000.055;76;000.367;MIDI 01
009.659;000.435;64;000.312;MIDI 01
010.083;000.036;75;000.367;MIDI 01
010.005;000.123;52;000.391;MIDI 01
010.170;000.031;73;000.398;MIDI 01
010.157;000.081;56;000.422;MIDI 01
010.243;000.071;75;000.445;MIDI 01
010.280;000.036;61;000.391;MIDI 01
010.314;000.036;73;000.461;MIDI 01
010.327;000.068;64;000.383;MIDI 01
010.384;000.059;72;000.453;MIDI 01
010.433;000.062;61;000.469;MIDI 01
010.461;000.075;73;000.516;MIDI 01
010.549;000.052;76;000.406;MIDI 01
010.552;000.057;56;000.383;MIDI 01
010.623;000.104;80;000.477;MIDI 01
010.664;000.114;51;000.406;MIDI 01
010.777;000.050;69;000.477;MIDI 01
010.800;000.068;57;000.375;MIDI 01
010.858;000.054;73;000.461;MIDI 01
010.909;000.048;61;000.383;MIDI 01
010.960;000.036;78;000.492;MIDI 01
010.997;000.070;66;000.391;MIDI 01
011.067;000.031;81;000.508;MIDI 01
011.091;000.076;61;000.453;MIDI 01
011.147;000.066;85;000.531;MIDI 01
011.244;000.015;87;000.500;MIDI 01
011.200;000.093;57;000.352;MIDI 01
011.310;000.127;95;000.578;MIDI 01
011.336;000.108;54;000.398;MIDI 01
011.451;000.072;93;000.562;MIDI 01
011.489;000.061;61;000.383;MIDI 01
011.545;000.086;92;000.523;MIDI 01
011.609;000.037;63;000.297;MIDI 01
011.635;000.032;90;000.484;MIDI 01
011.681;000.053;69;000.430;MIDI 01
011.694;000.055;88;000.539;MIDI 01
011.766;000.077;63;000.430;MIDI 01
011.799;000.052;87;000.484;MIDI 01
011.836;000.044;61;000.492;MIDI 01
011.877;000.089;90;000.516;MIDI 01
011.975;000.054;85;000.461;MIDI 01
012.060;000.054;84;000.508;MIDI 01
012.041;000.135;44;000.445;MIDI 01
012.147;000.064;87;000.477;MIDI 01
012.223;000.051;51;000.336;MIDI 01
012.253;000.047;81;000.500;MIDI 01
012.341;000.054;54;000.266;MIDI 01
012.357;000.044;80;000.453;MIDI 01
012.420;000.047;60;000.352;MIDI 01
012.450;000.035;78;000.484;MIDI 01
012.527;000.023;81;000.430;MIDI 01
012.518;000.088;54;000.367;MIDI 01
012.605;000.045;76;000.516;MIDI 01
012.673;000.039;51;000.305;MIDI 01
012.693;000.054;75;000.438;MIDI 01
012.766;000.074;78;000.469;MIDI 01
012.792;000.107;44;000.391;MIDI 01
012.873;000.051;73;000.414;MIDI 01
012.973;000.036;72;000.430;MIDI 01
012.916;000.099;51;000.219;MIDI 01
013.055;000.050;54;000.219;MIDI 01
013.057;000.050;75;000.461;MIDI 01
013.130;000.054;60;000.336;MIDI 01
013.150;000.054;69;000.406;MIDI 01
013.260;000.045;68;000.398;MIDI 01
013.266;000.075;54;000.273;MIDI 01
013.346;000.098;71;000.391;MIDI 01
013.393;000.071;51;000.219;MIDI 01
013.490;000.076;69;000.367;MIDI 01
013.546;000.079;49;000.328;MIDI 01
013.633;000.042;68;000.312;MIDI 01
013.704;000.060;56;000.336;MIDI 01
013.724;000.048;69;000.391;MIDI 01
013.789;000.051;68;000.469;MIDI 01
013.892;000.051;67;000.430;MIDI 01
013.901;000.052;64;000.305;MIDI 01
013.982;000.022;68;000.328;MIDI 01
013.993;000.077;61;000.055;MIDI 01
014.054;000.053;73;000.414;MIDI 01
014.074;000.101;56;000.359;MIDI 01
014.152;000.057;76;000.398;MIDI 01
014.206;000.098;52;000.445;MIDI 01
014.258;000.075;75;000.461;MIDI 01
014.375;000.036;73;000.375;MIDI 01
014.348;000.065;56;000.383;MIDI 01
014.458;000.044;61;000.383;MIDI 01
014.429;000.075;75;000.383;MIDI 01
014.508;000.043;73;000.539;MIDI 01
014.549;000.050;64;000.383;MIDI 01
014.585;000.058;72;000.492;MIDI 01
014.643;000.040;61;000.383;MIDI 01
014.648;000.060;73;000.484;MIDI 01
014.733;000.088;76;000.461;MIDI 01
014.820;000.025;80;000.523;MIDI 01
014.758;000.090;56;000.352;MIDI 01
014.914;000.092;49;000.453;MIDI 01
015.020;000.069;56;000.375;MIDI 01
015.045;000.048;68;000.438;MIDI 01
015.128;000.039;58;000.383;MIDI 01
015.150;000.056;70;000.453;MIDI 01
015.223;000.044;68;000.391;MIDI 01
015.218;000.067;64;000.398;MIDI 01
015.289;000.032;67;000.406;MIDI 01
015.360;000.041;68;000.477;MIDI 01
015.308;000.108;58;000.328;MIDI 01
015.443;000.058;56;000.266;MIDI 01
015.431;000.072;73;000.500;MIDI 01
015.523;000.061;76;000.477;MIDI 01
015.643;000.046;75;000.445;MIDI 01
015.727;000.036;73;000.422;MIDI 01
015.682;000.105;56;000.281;MIDI 01
015.824;000.039;58;000.289;MIDI 01
015.530;000.339;52;000.438;MIDI 01
015.802;000.086;75;000.477;MIDI 01
015.869;000.074;73;000.523;MIDI 01
015.976;000.023;72;000.445;MIDI 01
015.988;000.085;58;000.398;MIDI 01
016.035;000.047;73;000.391;MIDI 01
016.105;000.044;76;000.500;MIDI 01
016.089;000.110;56;000.391;MIDI 01
015.867;000.357;61;000.398;MIDI 01
016.194;000.040;80;000.453;MIDI 01
016.254;000.081;75;000.539;MIDI 01
016.372;000.069;76;000.492;MIDI 01
016.367;000.106;56;000.438;MIDI 01
016.464;000.042;75;000.508;MIDI 01
016.478;000.038;59;000.391;MIDI 01
016.223;000.359;51;000.484;MIDI 01
016.542;000.051;74;000.539;MIDI 01
016.522;000.135;63;000.469;MIDI 01
016.605;000.092;75;000.586;MIDI 01
016.648;000.139;59;000.445;MIDI 01
016.709;000.097;83;000.539;MIDI 01
016.806;000.110;82;000.555;MIDI 01
016.780;000.145;56;000.414;MIDI 01
016.889;000.092;80;000.594;MIDI 01
017.018;000.077;79;000.609;MIDI 01
016.949;000.168;51;000.453;MIDI 01
017.136;000.078;88;000.602;MIDI 01
017.143;000.114;58;000.461;MIDI 01
017.279;000.054;61;000.445;MIDI 01
017.214;000.122;87;000.570;MIDI 01
017.316;000.068;85;000.570;MIDI 01
017.373;000.064;67;000.469;MIDI 01
017.392;000.060;83;000.578;MIDI 01
017.461;000.106;61;000.453;MIDI 01
017.502;000.095;82;000.539;MIDI 01
017.572;000.028;58;000.461;MIDI 01
017.597;000.084;80;000.531;MIDI 01
017.680;000.095;79;000.555;MIDI 01
017.797;000.130;44;000.469;MIDI 01
017.899;000.071;80;000.477;MIDI 01
017.793;000.188;82;000.562;MIDI 01
017.935;000.080;51;000.430;MIDI 01
017.977;000.082;83;000.547;MIDI 01
018.057;000.098;56;000.438;MIDI 01
018.098;000.060;74;000.562;MIDI 01
018.183;000.056;59;000.438;MIDI 01
018.181;000.104;76;000.539;MIDI 01
018.309;000.064;56;000.422;MIDI 01
018.293;000.093;75;000.578;MIDI 01
018.395;000.049;80;000.547;MIDI 01
018.467;000.056;51;000.352;MIDI 01
018.501;000.047;70;000.445;MIDI 01
018.598;000.085;73;000.453;MIDI 01
018.577;000.120;44;000.445;MIDI 01
018.707;000.064;71;000.445;MIDI 01
018.697;000.095;51;000.328;MIDI 01
018.815;000.043;75;000.469;MIDI 01
018.852;000.103;56;000.367;MIDI 01
018.907;000.073;67;000.477;MIDI 01
018.981;000.067;59;000.383;MIDI 01
019.038;000.105;70;000.438;MIDI 01
019.149;000.083;68;000.430;MIDI 01
019.132;000.143;56;000.383;MIDI 01
019.303;000.080;67;000.328;MIDI 01
019.413;000.050;68;000.445;MIDI 01
019.358;000.146;51;000.312;MIDI 01
019.508;000.124;51;000.078;MIDI 01
019.656;000.209;45;000.336;MIDI 01
019.842;000.055;80;000.422;MIDI 01
019.646;000.328;68;000.461;MIDI 01
019.903;000.077;49;000.336;MIDI 01
020.041;000.036;72;000.312;MIDI 01
020.071;000.056;54;000.148;MIDI 01
020.077;000.076;73;000.469;MIDI 01
020.126;000.053;57;000.328;MIDI 01
020.231;000.041;54;000.336;MIDI 01
020.151;000.154;66;000.516;MIDI 01
020.250;000.097;78;000.484;MIDI 01
020.335;000.064;49;000.289;MIDI 01
020.353;000.069;72;000.461;MIDI 01
020.407;000.064;73;000.484;MIDI 01
020.447;000.101;45;000.438;MIDI 01
020.465;000.108;65;000.594;MIDI 01
020.572;000.090;77;000.492;MIDI 01
020.560;000.104;49;000.367;MIDI 01
020.624;000.117;72;000.477;MIDI 01
020.720;000.049;54;000.227;MIDI 01
020.715;000.098;73;000.516;MIDI 01
020.757;000.073;57;000.469;MIDI 01
020.761;000.121;66;000.586;MIDI 01
020.882;000.050;54;000.383;MIDI 01
020.878;000.072;78;000.492;MIDI 01
020.902;000.082;72;000.508;MIDI 01
020.975;000.057;73;000.547;MIDI 01
020.967;000.083;49;000.383;MIDI 01
021.080;000.102;47;000.477;MIDI 01
021.073;000.150;61;000.602;MIDI 01
021.204;000.071;73;000.367;MIDI 01
021.260;000.077;54;000.352;MIDI 01
021.294;000.065;66;000.391;MIDI 01
021.384;000.038;57;000.297;MIDI 01
021.442;000.052;59;000.430;MIDI 01
021.405;000.120;69;000.344;MIDI 01
021.400;000.186;63;000.516;MIDI 01
021.558;000.041;57;000.422;MIDI 01
021.613;000.034;54;000.484;MIDI 01
021.564;000.197;75;000.492;MIDI 01
021.651;000.126;66;000.383;MIDI 01
021.752;000.052;69;000.406;MIDI 01
021.845;000.108;40;000.469;MIDI 01
021.828;000.163;64;000.531;MIDI 01
021.989;000.103;47;000.383;MIDI 01
021.986;000.115;76;000.500;MIDI 01
022.105;000.045;68;000.406;MIDI 01
022.146;000.073;52;000.391;MIDI 01
022.181;000.045;71;000.492;MIDI 01
022.286;000.059;56;000.367;MIDI 01
022.271;000.111;68;000.555;MIDI 01
022.381;000.100;52;000.406;MIDI 01
022.396;000.088;80;000.461;MIDI 01
022.490;000.073;71;000.398;MIDI 01
022.544;000.148;47;000.297;MIDI 01
022.598;000.125;76;000.484;MIDI 01
022.676;000.155;45;000.469;MIDI 01
022.771;000.096;80;000.484;MIDI 01
022.712;000.183;68;000.453;MIDI 01
022.873;000.080;49;000.375;MIDI 01
022.938;000.069;72;000.336;MIDI 01
023.007;000.097;73;000.477;MIDI 01
023.071;000.069;57;000.414;MIDI 01
023.043;000.105;54;000.141;MIDI 01
023.164;000.066;54;000.289;MIDI 01
023.101;000.145;66;000.508;MIDI 01
023.186;000.129;78;000.492;MIDI 01
023.289;000.076;49;000.344;MIDI 01
023.290;000.090;72;000.445;MIDI 01
023.343;000.093;73;000.484;MIDI 01
023.405;000.100;45;000.477;MIDI 01
023.423;000.135;65;000.578;MIDI 01
023.530;000.090;77;000.477;MIDI 01
023.518;000.132;49;000.414;MIDI 01
023.685;000.034;54;000.320;MIDI 01
023.593;000.152;72;000.531;MIDI 01
023.699;000.108;73;000.562;MIDI 01
023.734;000.100;57;000.453;MIDI 01
023.845;000.094;54;000.484;MIDI 01
023.764;000.177;66;000.578;MIDI 01
023.863;000.140;78;000.547;MIDI 01
023.947;000.128;49;000.438;MIDI 01
023.953;000.126;72;000.484;MIDI 01
024.025;000.116;73;000.500;MIDI 01
024.100;000.112;47;000.500;MIDI 01
024.107;000.184;65;000.547;MIDI 01
024.228;000.081;77;000.523;MIDI 01
024.252;000.110;51;000.383;MIDI 01
024.310;000.119;71;000.500;MIDI 01
024.386;000.049;57;000.391;MIDI 01
024.415;000.082;75;000.508;MIDI 01
024.466;000.103;59;000.438;MIDI 01
024.477;000.188;66;000.609;MIDI 01
024.575;000.093;57;000.406;MIDI 01
024.696;000.036;51;000.398;MIDI 01
024.720;000.089;71;000.422;MIDI 01
024.619;000.216;78;000.516;MIDI 01
024.845;000.090;75;000.453;MIDI 01
024.939;000.147;40;000.469;MIDI 01
024.941;000.158;69;000.523;MIDI 01
025.094;000.050;81;000.508;MIDI 01
025.125;000.091;47;000.406;MIDI 01
025.264;000.057;71;000.391;MIDI 01
025.254;000.095;52;000.406;MIDI 01
025.361;000.059;76;000.422;MIDI 01
025.410;000.066;56;000.375;MIDI 01
025.441;000.096;68;000.492;MIDI 01
025.548;000.048;52;000.336;MIDI 01
025.541;000.092;80;000.508;MIDI 01
025.671;000.050;71;000.336;MIDI 01
025.676;000.126;47;000.289;MIDI 01
025.792;000.035;76;000.289;MIDI 01
025.842;000.106;68;000.406;MIDI 01
025.820;000.182;45;000.359;MIDI 01
025.935;000.110;80;000.516;MIDI 01
026.000;000.097;49;000.414;MIDI 01
026.096;000.119;72;000.336;MIDI 01
026.188;000.045;54;000.289;MIDI 01
026.207;000.081;73;000.422;MIDI 01
026.254;000.048;57;000.336;MIDI 01
026.298;000.086;66;000.398;MIDI 01
026.359;000.030;54;000.398;MIDI 01
026.354;000.105;78;000.547;MIDI 01
026.444;000.086;49;000.398;MIDI 01
026.459;000.074;72;000.422;MIDI 01
026.521;000.089;73;000.500;MIDI 01
026.593;000.099;45;000.461;MIDI 01
026.633;000.069;65;000.508;MIDI 01
026.652;000.128;77;000.539;MIDI 01
026.709;000.113;49;000.414;MIDI 01
026.861;000.036;54;000.344;MIDI 01
026.775;000.148;72;000.508;MIDI 01
026.834;000.138;73;000.516;MIDI 01
026.914;000.067;57;000.438;MIDI 01
026.929;000.091;66;000.492;MIDI 01
027.017;000.071;54;000.508;MIDI 01
026.986;000.160;78;000.602;MIDI 01
027.143;000.046;72;000.320;MIDI 01
027.144;000.085;73;000.562;MIDI 01
027.117;000.132;49;000.445;MIDI 01
027.265;000.123;47;000.469;MIDI 01
027.283;000.106;61;000.516;MIDI 01
027.340;000.132;73;000.562;MIDI 01
027.472;000.081;54;000.312;MIDI 01
027.520;000.084;66;000.359;MIDI 01
027.575;000.041;57;000.383;MIDI 01
027.534;000.173;69;000.414;MIDI 01
027.659;000.053;59;000.398;MIDI 01
027.628;000.105;63;000.508;MIDI 01
027.733;000.081;57;000.461;MIDI 01
027.834;000.046;54;000.445;MIDI 01
027.699;000.210;75;000.562;MIDI 01
027.840;000.106;66;000.477;MIDI 01
027.905;000.059;69;000.422;MIDI 01
027.991;000.059;64;000.516;MIDI 01
028.050;000.081;40;000.430;MIDI 01
028.086;000.117;76;000.586;MIDI 01
028.255;000.032;68;000.328;MIDI 01
028.196;000.096;47;000.328;MIDI 01
028.307;000.048;71;000.477;MIDI 01
028.337;000.054;52;000.344;MIDI 01
028.403;000.055;68;000.547;MIDI 01
028.424;000.058;56;000.414;MIDI 01
028.491;000.094;80;000.555;MIDI 01
028.542;000.084;52;000.375;MIDI 01
028.604;000.059;71;000.445;MIDI 01
028.680;000.106;47;000.344;MIDI 01
028.690;000.135;76;000.523;MIDI 01
028.818;000.114;45;000.430;MIDI 01
028.793;000.178;68;000.508;MIDI 01
028.850;000.128;80;000.586;MIDI 01
028.967;000.099;49;000.453;MIDI 01
028.995;000.135;72;000.484;MIDI 01
029.125;000.046;54;000.258;MIDI 01
029.093;000.094;73;000.438;MIDI 01
029.154;000.079;57;000.469;MIDI 01
029.148;000.130;66;000.547;MIDI 01
029.281;000.126;54;000.438;MIDI 01
029.365;000.043;72;000.359;MIDI 01
029.414;000.044;73;000.516;MIDI 01
029.230;000.257;78;000.586;MIDI 01
029.425;000.247;49;000.406;MIDI 01
029.706;000.148;87;000.602;MIDI 01
029.599;000.257;75;000.570;MIDI 01
029.648;000.216;45;000.406;MIDI 01
029.882;000.060;78;000.375;MIDI 01
029.864;000.141;51;000.383;MIDI 01
029.999;000.066;81;000.414;MIDI 01
030.130;000.050;57;000.320;MIDI 01
030.125;000.094;73;000.352;MIDI 01
030.180;000.152;85;000.477;MIDI 01
030.248;000.092;54;000.312;MIDI 01
030.326;000.052;78;000.344;MIDI 01
030.370;000.089;51;000.328;MIDI 01
030.365;000.116;81;000.430;MIDI 01
030.466;000.097;73;000.430;MIDI 01
030.516;000.115;44;000.445;MIDI 01
030.539;000.144;85;000.531;MIDI 01
030.654;000.070;51;000.312;MIDI 01
030.693;000.041;75;000.406;MIDI 01
030.760;000.052;78;000.422;MIDI 01
030.789;000.041;54;000.273;MIDI 01
030.867;000.043;60;000.406;MIDI 01
030.833;000.086;72;000.500;MIDI 01
030.972;000.076;54;000.312;MIDI 01
030.917;000.133;84;000.531;MIDI 01
031.038;000.036;75;000.406;MIDI 01
031.087;000.064;78;000.438;MIDI 01
031.113;000.052;51;000.180;MIDI 01
031.151;000.051;72;000.461;MIDI 01
031.188;000.076;44;000.453;MIDI 01
031.221;000.134;84;000.562;MIDI 01
031.305;000.070;51;000.398;MIDI 01
031.360;000.029;75;000.453;MIDI 01
031.420;000.044;54;000.359;MIDI 01
031.390;000.086;78;000.453;MIDI 01
031.480;000.078;72;000.492;MIDI 01
031.508;000.059;60;000.438;MIDI 01
031.542;000.116;84;000.570;MIDI 01
031.606;000.094;54;000.391;MIDI 01
031.665;000.050;75;000.477;MIDI 01
031.718;000.064;78;000.453;MIDI 01
031.730;000.070;51;000.367;MIDI 01
031.793;000.092;72;000.500;MIDI 01
031.845;000.103;45;000.438;MIDI 01
031.877;000.107;84;000.539;MIDI 01
032.009;000.052;75;000.367;MIDI 01
031.999;000.067;51;000.281;MIDI 01
032.074;000.062;78;000.359;MIDI 01
032.106;000.049;54;000.289;MIDI 01
032.163;000.033;71;000.344;MIDI 01
032.196;000.038;59;000.352;MIDI 01
032.229;000.090;83;000.500;MIDI 01
032.281;000.093;54;000.359;MIDI 01
032.368;000.052;75;000.234;MIDI 01
032.417;000.051;78;000.312;MIDI 01
032.434;000.053;51;000.273;MIDI 01
032.487;000.040;71;000.398;MIDI 01
032.568;000.083;83;000.469;MIDI 01
032.541;000.139;46;000.336;MIDI 01
032.677;000.053;75;000.469;MIDI 01
032.651;000.085;51;000.297;MIDI 01
032.757;000.060;78;000.375;MIDI 01
032.844;000.046;70;000.383;MIDI 01
032.842;000.074;58;000.352;MIDI 01
032.974;000.059;54;000.344;MIDI 01
032.924;000.113;82;000.477;MIDI 01
033.038;000.053;75;000.398;MIDI 01
033.086;000.080;51;000.297;MIDI 01
033.100;000.069;78;000.352;MIDI 01
033.169;000.103;70;000.438;MIDI 01
033.256;000.134;82;000.500;MIDI 01
033.385;000.053;75;000.453;MIDI 01
033.355;000.115;51;000.266;MIDI 01
033.215;000.295;48;000.367;MIDI 01
033.434;000.095;78;000.461;MIDI 01
033.490;000.046;54;000.297;MIDI 01
033.577;000.039;57;000.352;MIDI 01
033.542;000.089;69;000.469;MIDI 01
033.628;000.103;81;000.461;MIDI 01
033.669;000.083;54;000.367;MIDI 01
033.737;000.059;75;000.430;MIDI 01
033.805;000.049;51;000.297;MIDI 01
033.808;000.059;78;000.422;MIDI 01
033.899;000.073;69;000.453;MIDI 01
033.971;000.115;81;000.523;MIDI 01
034.034;000.110;51;000.203;MIDI 01
034.091;000.072;75;000.367;MIDI 01
034.173;000.034;54;000.305;MIDI 01
033.901;000.314;48;000.391;MIDI 01
034.154;000.077;78;000.383;MIDI 01
034.261;000.051;57;000.344;MIDI 01
034.242;000.078;69;000.453;MIDI 01
034.317;000.148;81;000.469;MIDI 01
034.334;000.134;54;000.359;MIDI 01
034.446;000.065;75;000.328;MIDI 01
034.528;000.065;51;000.320;MIDI 01
034.541;000.091;78;000.328;MIDI 01
034.671;000.159;45;000.305;MIDI 01
034.861;000.048;84;000.273;MIDI 01
034.877;000.078;51;000.281;MIDI 01
034.683;000.308;72;000.430;MIDI 01
035.021;000.055;54;000.172;MIDI 01
035.070;000.054;78;000.320;MIDI 01
035.098;000.043;59;000.297;MIDI 01
035.155;000.079;71;000.359;MIDI 01
035.240;000.053;54;000.164;MIDI 01
035.266;000.089;83;000.367;MIDI 01
035.350;000.059;51;000.250;MIDI 01
035.349;000.076;75;000.312;MIDI 01
035.425;000.059;78;000.312;MIDI 01
035.513;000.080;71;000.344;MIDI 01
035.479;000.125;46;000.328;MIDI 01
035.577;000.050;83;000.336;MIDI 01
035.628;000.073;51;000.102;MIDI 01
035.684;000.044;75;000.367;MIDI 01
035.772;000.051;78;000.258;MIDI 01
035.844;000.052;58;000.258;MIDI 01
035.835;000.096;70;000.438;MIDI 01
035.966;000.060;54;000.141;MIDI 01
035.961;000.070;82;000.336;MIDI 01
036.043;000.091;75;000.352;MIDI 01
036.086;000.062;51;000.242;MIDI 01
036.143;000.047;78;000.258;MIDI 01
036.199;000.142;70;000.414;MIDI 01
036.217;000.199;47;000.328;MIDI 01
036.330;000.100;82;000.320;MIDI 01
036.449;000.043;75;000.289;MIDI 01
036.401;000.099;51;000.164;MIDI 01
036.513;000.048;78;000.281;MIDI 01
036.611;000.098;69;000.406;MIDI 01
036.642;000.070;57;000.258;MIDI 01
036.791;000.060;54;000.094;MIDI 01
036.826;000.065;81;000.078;MIDI 01
036.811;000.095;75;000.266;MIDI 01
036.905;000.081;51;000.266;MIDI 01
036.905;000.126;78;000.359;MIDI 01
037.031;000.169;48;000.320;MIDI 01
037.047;000.201;69;000.328;MIDI 01
037.150;000.132;81;000.305;MIDI 01
037.297;000.072;75;000.312;MIDI 01
037.270;000.158;51;000.242;MIDI 01
037.428;000.068;78;000.359;MIDI 01
037.481;000.045;54;000.234;MIDI 01
037.589;000.119;68;000.367;MIDI 01
037.607;000.106;56;000.250;MIDI 01
037.760;000.161;80;000.305;MIDI 01
037.758;000.225;54;000.094;MIDI 01
037.993;000.067;75;000.039;MIDI 01
038.132;000.030;78;000.336;MIDI 01
038.043;000.288;51;000.195;MIDI 01
038.425;000.274;49;000.141;MIDI 01
038.661;000.057;68;000.195;MIDI 01
038.724;000.079;56;000.289;MIDI 01
038.751;000.073;69;000.344;MIDI 01
038.847;000.044;68;000.383;MIDI 01
038.944;000.050;67;000.398;MIDI 01
038.967;000.042;64;000.305;MIDI 01
039.018;000.050;68;000.383;MIDI 01
039.058;000.062;61;000.203;MIDI 01
039.109;000.070;73;000.375;MIDI 01
039.159;000.072;56;000.320;MIDI 01
039.216;000.076;76;000.398;MIDI 01
039.329;000.058;75;000.414;MIDI 01
039.443;000.033;73;000.398;MIDI 01
039.296;000.206;52;000.336;MIDI 01
039.445;000.092;56;000.320;MIDI 01
039.524;000.072;75;000.453;MIDI 01
039.556;000.044;61;000.359;MIDI 01
039.597;000.061;73;000.484;MIDI 01
039.648;000.049;64;000.375;MIDI 01
039.696;000.053;72;000.445;MIDI 01
039.739;000.041;61;000.367;MIDI 01
039.791;000.045;73;000.469;MIDI 01
039.879;000.048;76;000.398;MIDI 01
039.866;000.064;56;000.305;MIDI 01
039.943;000.020;80;000.469;MIDI 01
040.015;000.080;49;000.398;MIDI 01
040.136;000.065;56;000.336;MIDI 01
040.178;000.058;68;000.445;MIDI 01
040.277;000.040;61;000.312;MIDI 01
040.293;000.046;69;000.445;MIDI 01
040.374;000.029;68;000.398;MIDI 01
040.439;000.039;67;000.367;MIDI 01
040.435;000.118;61;000.422;MIDI 01
040.521;000.040;68;000.477;MIDI 01
040.360;000.281;64;000.359;MIDI 01
040.601;000.054;73;000.406;MIDI 01
040.582;000.093;56;000.359;MIDI 01
040.698;000.091;76;000.438;MIDI 01
040.707;000.147;52;000.414;MIDI 01
040.820;000.057;75;000.430;MIDI 01
040.861;000.080;56;000.391;MIDI 01
040.940;000.022;73;000.383;MIDI 01
040.960;000.047;61;000.406;MIDI 01
041.033;000.044;75;000.391;MIDI 01
041.031;000.052;64;000.328;MIDI 01
041.075;000.055;73;000.484;MIDI 01
041.119;000.054;61;000.430;MIDI 01
041.181;000.040;72;000.438;MIDI 01
041.244;000.062;73;000.500;MIDI 01
041.242;000.070;56;000.352;MIDI 01
041.317;000.064;76;000.422;MIDI 01
041.365;000.128;51;000.438;MIDI 01
041.400;000.098;80;000.523;MIDI 01
041.506;000.065;57;000.391;MIDI 01
041.516;000.059;69;000.477;MIDI 01
041.595;000.043;73;000.484;MIDI 01
041.619;000.040;61;000.359;MIDI 01
041.647;000.030;75;000.406;MIDI 01
041.690;000.033;78;000.508;MIDI 01
041.682;000.068;66;000.375;MIDI 01
041.795;000.044;81;000.562;MIDI 01
041.781;000.064;61;000.445;MIDI 01
041.898;000.062;85;000.539;MIDI 01
041.896;000.086;57;000.289;MIDI 01
041.976;000.049;87;000.516;MIDI 01
042.036;000.123;54;000.406;MIDI 01
042.068;000.119;95;000.523;MIDI 01
042.180;000.072;93;000.547;MIDI 01
042.203;000.065;61;000.406;MIDI 01
042.316;000.034;63;000.320;MIDI 01
042.272;000.083;92;000.523;MIDI 01
042.350;000.058;90;000.547;MIDI 01
042.396;000.057;69;000.398;MIDI 01
042.425;000.064;88;000.508;MIDI 01
042.472;000.079;63;000.414;MIDI 01
042.516;000.060;87;000.508;MIDI 01
042.560;000.032;61;000.469;MIDI 01
042.593;000.097;90;000.555;MIDI 01
042.684;000.077;85;000.547;MIDI 01
042.769;000.055;84;000.516;MIDI 01
042.753;000.118;44;000.438;MIDI 01
042.837;000.081;87;000.531;MIDI 01
042.908;000.062;51;000.406;MIDI 01
042.949;000.043;81;000.516;MIDI 01
043.058;000.060;80;000.438;MIDI 01
043.119;000.052;60;000.391;MIDI 01
043.136;000.051;78;000.500;MIDI 01
043.224;000.037;81;000.406;MIDI 01
043.271;000.052;54;000.125;MIDI 01
043.303;000.039;76;000.500;MIDI 01
043.360;000.049;51;000.281;MIDI 01
043.399;000.046;75;000.406;MIDI 01
043.467;000.068;78;000.438;MIDI 01
043.471;000.111;44;000.398;MIDI 01
043.554;000.070;73;000.461;MIDI 01
043.610;000.086;51;000.258;MIDI 01
043.668;000.033;72;000.422;MIDI 01
043.732;000.036;54;000.328;MIDI 01
043.739;000.068;75;000.461;MIDI 01
043.820;000.050;60;000.383;MIDI 01
043.844;000.062;69;000.445;MIDI 01
043.944;000.050;68;000.445;MIDI 01
043.928;000.108;54;000.352;MIDI 01
044.041;000.082;71;000.414;MIDI 01
044.092;000.075;51;000.312;MIDI 01
044.167;000.096;69;000.414;MIDI 01
044.307;000.046;68;000.328;MIDI 01
044.231;000.152;49;000.430;MIDI 01
044.418;000.066;69;000.414;MIDI 01
044.421;000.074;56;000.367;MIDI 01
044.494;000.051;68;000.445;MIDI 01
044.581;000.055;67;000.469;MIDI 01
044.609;000.072;64;000.383;MIDI 01
044.675;000.039;68;000.359;MIDI 01
044.706;000.077;61;000.219;MIDI 01
044.734;000.083;73;000.461;MIDI 01
044.801;000.097;56;000.383;MIDI 01
044.845;000.068;76;000.461;MIDI 01
044.944;000.070;75;000.508;MIDI 01
044.925;000.117;52;000.469;MIDI 01
045.070;000.022;73;000.414;MIDI 01
045.065;000.106;56;000.453;MIDI 01
045.119;000.100;75;000.484;MIDI 01
045.180;000.047;61;000.406;MIDI 01
045.204;000.050;73;000.508;MIDI 01
045.260;000.096;64;000.469;MIDI 01
045.283;000.082;72;000.547;MIDI 01
045.375;000.078;73;000.570;MIDI 01
045.361;000.118;61;000.477;MIDI 01
045.479;000.080;76;000.500;MIDI 01
045.495;000.130;56;000.391;MIDI 01
045.571;000.092;80;000.547;MIDI 01
045.675;000.106;76;000.555;MIDI 01
045.653;000.136;54;000.477;MIDI 01
045.790;000.065;75;000.523;MIDI 01
045.827;000.100;61;000.438;MIDI 01
045.878;000.103;76;000.500;MIDI 01
045.926;000.076;63;000.445;MIDI 01
045.981;000.053;75;000.570;MIDI 01
046.026;000.092;69;000.484;MIDI 01
046.054;000.083;74;000.594;MIDI 01
046.150;000.064;75;000.586;MIDI 01
046.161;000.104;63;000.477;MIDI 01
046.224;000.090;78;000.523;MIDI 01
046.304;000.056;61;000.375;MIDI 01
046.320;000.073;81;000.539;MIDI 01
046.389;000.086;78;000.562;MIDI 01
046.399;000.117;56;000.508;MIDI 01
046.495;000.061;77;000.508;MIDI 01
046.515;000.129;61;000.391;MIDI 01
046.571;000.125;78;000.539;MIDI 01
046.672;000.055;77;000.469;MIDI 01
046.657;000.093;65;000.438;MIDI 01
046.747;000.083;76;000.547;MIDI 01
046.802;000.059;71;000.406;MIDI 01
046.854;000.059;77;000.477;MIDI 01
046.914;000.087;65;000.406;MIDI 01
046.936;000.072;80;000.508;MIDI 01
047.019;000.041;85;000.523;MIDI 01
047.024;000.083;61;000.375;MIDI 01
047.136;000.096;57;000.430;MIDI 01
047.275;000.045;73;000.453;MIDI 01
047.279;000.051;61;000.414;MIDI 01
047.370;000.045;66;000.359;MIDI 01
047.364;000.060;74;000.438;MIDI 01
047.447;000.051;73;000.438;MIDI 01
047.459;000.060;69;000.406;MIDI 01
047.521;000.045;72;000.438;MIDI 01
047.593;000.033;73;000.477;MIDI 01
047.554;000.082;66;000.383;MIDI 01
047.663;000.079;78;000.453;MIDI 01
047.695;000.069;61;000.375;MIDI 01
047.776;000.041;81;000.414;MIDI 01
047.848;000.065;78;000.414;MIDI 01
047.827;000.107;56;000.438;MIDI 01
047.943;000.046;77;000.430;MIDI 01
047.941;000.097;61;000.391;MIDI 01
048.036;000.125;78;000.469;MIDI 01
048.062;000.104;65;000.414;MIDI 01
048.121;000.082;77;000.484;MIDI 01
048.216;000.065;71;000.406;MIDI 01
048.228;000.079;76;000.500;MIDI 01
048.328;000.035;77;000.398;MIDI 01
048.330;000.077;65;000.414;MIDI 01
048.396;000.076;80;000.500;MIDI 01
048.438;000.095;61;000.414;MIDI 01
048.498;000.101;85;000.531;MIDI 01
048.549;000.104;57;000.438;MIDI 01
048.596;000.059;80;000.531;MIDI 01
048.698;000.051;78;000.508;MIDI 01
048.691;000.114;61;000.445;MIDI 01
048.815;000.058;66;000.422;MIDI 01
048.780;000.111;80;000.539;MIDI 01
048.877;000.046;78;000.492;MIDI 01
048.910;000.101;69;000.469;MIDI 01
048.950;000.084;77;000.539;MIDI 01
049.016;000.095;66;000.461;MIDI 01
049.041;000.074;78;000.516;MIDI 01
049.104;000.051;61;000.508;MIDI 01
049.136;000.089;81;000.492;MIDI 01
049.229;000.103;85;000.570;MIDI 01
049.318;000.102;48;000.484;MIDI 01
049.351;000.094;81;000.523;MIDI 01
049.450;000.074;80;000.547;MIDI 01
049.482;000.110;54;000.398;MIDI 01
049.540;000.086;81;000.523;MIDI 01
049.606;000.054;56;000.422;MIDI 01
049.632;000.056;80;000.508;MIDI 01
049.695;000.065;63;000.414;MIDI 01
049.709;000.052;79;000.516;MIDI 01
049.795;000.037;80;000.477;MIDI 01
049.790;000.109;56;000.469;MIDI 01
049.849;000.114;84;000.516;MIDI 01
049.905;000.078;54;000.422;MIDI 01
049.952;000.085;87;000.609;MIDI 01
050.066;000.099;80;000.609;MIDI 01
050.049;000.141;49;000.555;MIDI 01
050.190;000.102;81;000.523;MIDI 01
050.206;000.135;56;000.484;MIDI 01
050.292;000.067;80;000.633;MIDI 01
050.351;000.066;61;000.477;MIDI 01
050.383;000.084;79;000.617;MIDI 01
050.451;000.084;64;000.523;MIDI 01
050.473;000.078;80;000.656;MIDI 01
050.554;000.124;61;000.516;MIDI 01
050.555;000.131;88;000.648;MIDI 01
050.667;000.121;87;000.617;MIDI 01
050.692;000.107;56;000.430;MIDI 01
050.777;000.117;86;000.578;MIDI 01
050.873;000.080;85;000.570;MIDI 01
050.848;000.126;51;000.531;MIDI 01
050.960;000.070;84;000.570;MIDI 01
050.989;000.089;56;000.422;MIDI 01
051.053;000.106;83;000.523;MIDI 01
051.086;000.105;60;000.453;MIDI 01
051.164;000.029;82;000.531;MIDI 01
051.225;000.047;81;000.531;MIDI 01
051.197;000.092;66;000.492;MIDI 01
051.314;000.085;60;000.461;MIDI 01
051.325;000.079;80;000.547;MIDI 01
051.409;000.086;79;000.523;MIDI 01
051.409;000.122;56;000.469;MIDI 01
051.492;000.073;78;000.547;MIDI 01
051.586;000.095;76;000.539;MIDI 01
051.549;000.134;52;000.547;MIDI 01
051.678;000.122;56;000.531;MIDI 01
051.694;000.128;78;000.547;MIDI 01
051.790;000.079;76;000.500;MIDI 01
051.793;000.079;61;000.477;MIDI 01
051.849;000.074;75;000.609;MIDI 01
051.929;000.056;76;000.562;MIDI 01
051.889;000.101;64;000.531;MIDI 01
052.041;000.081;88;000.664;MIDI 01
052.013;000.126;61;000.555;MIDI 01
052.105;000.140;87;000.633;MIDI 01
052.147;000.126;56;000.461;MIDI 01
052.220;000.126;86;000.586;MIDI 01
052.324;000.080;85;000.586;MIDI 01
052.290;000.149;54;000.578;MIDI 01
052.403;000.077;84;000.586;MIDI 01
052.447;000.116;61;000.539;MIDI 01
052.506;000.128;83;000.562;MIDI 01
052.552;000.100;63;000.547;MIDI 01
052.624;000.060;82;000.578;MIDI 01
052.664;000.096;69;000.508;MIDI 01
052.701;000.077;81;000.531;MIDI 01
052.788;000.040;63;000.500;MIDI 01
052.786;000.095;80;000.617;MIDI 01
052.834;000.069;61;000.531;MIDI 01
052.886;000.075;79;000.547;MIDI 01
052.957;000.069;78;000.648;MIDI 01
053.070;000.152;80;000.773;MIDI 01
053.065;000.604;56;000.602;MIDI 01
053.061;000.608;61;000.555;MIDI 01
053.066;000.614;64;000.523;MIDI 01
053.064;000.618;68;000.648;MIDI 01
053.554;000.167;92;000.758;MIDI 01
053.705;000.131;91;000.609;MIDI 01
053.810;000.078;90;000.633;MIDI 01
053.901;000.073;89;000.594;MIDI 01
053.985;000.121;88;000.633;MIDI 01
054.084;000.086;87;000.641;MIDI 01
054.176;000.111;86;000.625;MIDI 01
054.279;000.131;85;000.641;MIDI 01
054.393;000.054;84;000.609;MIDI 01
054.474;000.089;83;000.555;MIDI 01
054.572;000.094;82;000.570;MIDI 01
054.646;000.093;81;000.555;MIDI 01
054.728;000.075;80;000.633;MIDI 01
054.824;000.070;79;000.578;MIDI 01
054.184;000.780;69;000.711;MIDI 01
054.893;000.127;78;000.602;MIDI 01
054.194;000.840;64;000.656;MIDI 01
055.009;000.032;77;000.578;MIDI 01
054.181;000.873;61;000.656;MIDI 01
054.196;000.935;55;000.633;MIDI 01
055.080;000.094;76;000.609;MIDI 01
055.172;000.106;75;000.578;MIDI 01
055.254;000.102;74;000.578;MIDI 01
055.351;000.071;73;000.609;MIDI 01
055.443;000.083;72;000.570;MIDI 01
055.535;000.096;71;000.570;MIDI 01
055.638;000.032;70;000.594;MIDI 01
055.706;000.093;69;000.586;MIDI 01
055.797;000.140;68;000.609;MIDI 01
055.879;000.108;67;000.586;MIDI 01
055.962;000.076;66;000.664;MIDI 01
056.056;000.072;64;000.602;MIDI 01
056.155;000.099;63;000.578;MIDI 01
056.224;000.092;61;000.633;MIDI 01
056.353;000.046;44;000.711;MIDI 01
056.349;000.062;32;000.648;MIDI 01
056.345;000.092;56;000.711;MIDI 01
056.973;000.146;93;000.656;MIDI 01
056.977;000.204;76;000.727;MIDI 01
056.981;000.236;64;000.672;MIDI 01
057.138;000.126;92;000.664;MIDI 01
057.263;000.072;100;000.688;MIDI 01
057.370;000.104;88;000.609;MIDI 01
057.479;000.098;73;000.695;MIDI 01
057.474;000.125;90;000.633;MIDI 01
057.476;000.179;61;000.672;MIDI 01
057.608;000.109;88;000.633;MIDI 01
057.700;000.066;97;000.562;MIDI 01
057.815;000.077;85;000.562;MIDI 01
057.906;000.056;68;000.641;MIDI 01
057.910;000.099;56;000.602;MIDI 01
057.909;000.111;87;000.578;MIDI 01
058.028;000.101;85;000.578;MIDI 01
058.094;000.072;92;000.602;MIDI 01
058.185;000.041;80;000.547;MIDI 01
058.277;000.068;64;000.617;MIDI 01
058.294;000.075;81;000.594;MIDI 01
058.280;000.097;52;000.617;MIDI 01
058.381;000.076;80;000.562;MIDI 01
058.477;000.061;88;000.609;MIDI 01
058.572;000.080;76;000.570;MIDI 01
058.631;000.074;61;000.625;MIDI 01
058.663;000.102;78;000.562;MIDI 01
058.632;000.133;49;000.570;MIDI 01
058.764;000.120;76;000.570;MIDI 01
058.858;000.033;85;000.500;MIDI 01
058.939;000.056;73;000.602;MIDI 01
059.009;000.069;56;000.625;MIDI 01
059.011;000.113;44;000.656;MIDI 01
059.049;000.089;75;000.555;MIDI 01
059.145;000.081;73;000.570;MIDI 01
059.201;000.075;80;000.555;MIDI 01
059.289;000.039;68;000.516;MIDI 01
059.391;000.033;52;000.648;MIDI 01
059.386;000.076;40;000.695;MIDI 01
059.394;000.082;69;000.570;MIDI 01
059.485;000.085;68;000.328;MIDI 01
059.580;000.046;76;000.539;MIDI 01
059.660;000.062;64;000.586;MIDI 01
059.735;000.047;49;000.641;MIDI 01
059.743;000.069;37;000.594;MIDI 01
059.760;000.086;66;000.570;MIDI 01
059.853;000.134;64;000.570;MIDI 01
059.956;000.070;73;000.516;MIDI 01
060.069;000.099;61;000.570;MIDI 01
060.208;000.140;63;000.453;MIDI 01
060.216;000.213;44;000.453;MIDI 01
060.353;000.112;61;000.500;MIDI 01
060.210;000.268;32;000.445;MIDI 01
060.474;000.065;68;000.523;MIDI 01
060.569;000.079;56;000.547;MIDI 01
060.653;000.103;63;000.508;MIDI 01
060.617;000.211;44;000.539;MIDI 01
060.750;000.096;61;000.516;MIDI 01
060.638;000.209;32;000.547;MIDI 01
060.842;000.090;68;000.555;MIDI 01
060.918;000.079;56;000.531;MIDI 01
060.995;000.087;63;000.508;MIDI 01
061.087;000.087;61;000.523;MIDI 01
061.014;000.181;45;000.617;MIDI 01
061.179;000.070;69;000.555;MIDI 01
061.016;000.331;33;000.602;MIDI 01
061.272;000.081;57;000.586;MIDI 01
061.370;000.101;63;000.562;MIDI 01
061.373;000.185;44;000.586;MIDI 01
061.470;000.103;61;000.578;MIDI 01
061.567;000.092;68;000.570;MIDI 01
061.372;000.327;32;000.500;MIDI 01
061.658;000.086;56;000.594;MIDI 01
061.749;000.117;63;000.531;MIDI 01
061.870;000.109;61;000.555;MIDI 01
061.788;000.205;43;000.594;MIDI 01
061.983;000.099;67;000.578;MIDI 01
062.101;000.118;55;000.547;MIDI 01
061.781;000.461;31;000.594;MIDI 01
062.225;000.248;63;000.562;MIDI 01
062.440;000.202;61;000.531;MIDI 01
062.231;000.508;44;000.570;MIDI 01
062.601;000.145;68;000.516;MIDI 01
062.241;000.678;32;000.508;MIDI 01
062.746;000.292;56;000.547;MIDI 01
062.905;000.405;63;000.547;MIDI 01
063.107;000.250;60;000.516;MIDI 01
063.317;000.370;68;000.539;MIDI 01
063.593;000.283;54;000.539;MIDI 01
063.936;000.461;25;000.523;MIDI 01
064.098;000.386;37;000.586;MIDI 01
064.771;000.297;44;000.375;MIDI 01
065.042;000.161;49;000.344;MIDI 01
065.257;000.160;53;000.359;MIDI 01
065.482;000.222;56;000.422;MIDI 01
065.702;000.203;61;000.414;MIDI 01
065.925;000.190;65;000.398;MIDI 01
066.148;000.197;61;000.352;MIDI 01
066.414;000.093;56;000.367;MIDI 01
066.682;000.125;55;000.273;MIDI 01
066.873;000.155;49;000.383;MIDI 01
067.128;000.208;44;000.312;MIDI 01
067.402;000.191;37;000.305;MIDI 01
067.662;000.207;44;000.273;MIDI 01
067.915;000.145;49;000.328;MIDI 01
068.160;000.202;53;000.273;MIDI 01
068.385;000.211;56;000.344;MIDI 01
068.627;000.232;61;000.328;MIDI 01
068.904;000.185;65;000.312;MIDI 01
069.164;000.222;61;000.312;MIDI 01
069.420;000.123;56;000.289;MIDI 01
069.650;000.301;53;000.305;MIDI 01
069.985;000.332;49;000.367;MIDI 01
070.347;000.725;44;000.336;MIDI 01
070.987;000.403;37;000.242;MIDI 01
071.676;000.215;56;000.250;MIDI 01
071.959;000.077;60;000.312;MIDI 01
072.182;000.266;63;000.250;MIDI 01
070.961;001.489;68;000.383;MIDI 01
072.467;000.199;60;000.281;MIDI 01
072.936;000.040;70;000.281;MIDI 01
072.734;000.250;56;000.266;MIDI 01
073.017;000.053;72;000.344;MIDI 01
072.995;000.355;49;000.305;MIDI 01
073.105;000.364;70;000.445;MIDI 01
073.341;000.210;56;000.305;MIDI 01
073.614;000.176;60;000.312;MIDI 01
073.469;000.342;68;000.453;MIDI 01
073.823;000.145;66;000.312;MIDI 01
073.799;000.439;73;000.500;MIDI 01
074.005;000.235;60;000.297;MIDI 01
074.263;000.240;56;000.336;MIDI 01
074.131;000.448;75;000.531;MIDI 01
074.566;000.367;49;000.352;MIDI 01
074.941;000.117;56;000.305;MIDI 01
075.162;000.109;61;000.320;MIDI 01
075.365;000.184;65;000.289;MIDI 01
075.595;000.197;61;000.320;MIDI 01
075.824;000.209;56;000.281;MIDI 01
074.560;001.546;77;000.508;MIDI 01
076.091;000.242;49;000.273;MIDI 01
076.324;000.109;56;000.281;MIDI 01
076.529;000.147;65;000.352;MIDI 01
076.760;000.118;68;000.312;MIDI 01
076.989;000.219;65;000.266;MIDI 01
076.041;001.592;80;000.500;MIDI 01
077.247;000.507;56;000.320;MIDI 01
077.586;000.281;66;000.195;MIDI 01
077.860;000.247;63;000.227;MIDI 01
077.539;000.847;78;000.375;MIDI 01
078.317;000.145;65;000.352;MIDI 01
078.089;000.397;56;000.258;MIDI 01
078.529;000.174;61;000.328;MIDI 01
078.296;000.721;77;000.469;MIDI 01
078.757;000.409;56;000.281;MIDI 01
078.974;000.247;63;000.273;MIDI 01
079.202;000.171;60;000.320;MIDI 01
079.427;000.257;56;000.266;MIDI 01
078.936;000.791;75;000.461;MIDI 01
079.707;000.310;61;000.320;MIDI 01
080.014;000.382;56;000.258;MIDI 01
080.370;000.083;53;000.219;MIDI 01
079.654;000.999;77;000.453;MIDI 01
080.549;000.293;73;000.359;MIDI 01
080.830;000.320;44;000.180;MIDI 01
081.182;000.177;51;000.320;MIDI 01
081.409;000.134;56;000.297;MIDI 01
081.621;000.154;60;000.336;MIDI 01
081.848;000.147;56;000.344;MIDI 01
082.085;000.058;51;000.250;MIDI 01
080.792;001.657;68;000.406;MIDI 01
082.373;000.261;42;000.273;MIDI 01
082.685;000.102;54;000.281;MIDI 01
082.895;000.171;58;000.344;MIDI 01
083.119;000.205;61;000.359;MIDI 01
083.357;000.241;58;000.297;MIDI 01
083.599;000.045;54;000.312;MIDI 01
083.904;000.225;46;000.320;MIDI 01
084.171;000.100;53;000.219;MIDI 01
084.389;000.201;58;000.266;MIDI 01
084.605;000.216;62;000.281;MIDI 01
082.335;002.691;70;000.477;MIDI 01
084.866;000.163;58;000.266;MIDI 01
085.086;000.047;53;000.188;MIDI 01
085.250;000.070;71;000.383;MIDI 01
085.366;000.110;73;000.391;MIDI 01
085.420;000.257;46;000.266;MIDI 01
085.446;000.332;71;000.445;MIDI 01
085.721;000.103;58;000.344;MIDI 01
085.918;000.066;62;000.367;MIDI 01
085.771;000.309;70;000.516;MIDI 01
086.105;000.190;68;000.344;MIDI 01
086.064;000.369;75;000.531;MIDI 01
086.330;000.153;62;000.336;MIDI 01
086.556;000.214;58;000.297;MIDI 01
086.379;000.516;77;000.562;MIDI 01
086.852;000.193;51;000.328;MIDI 01
087.170;000.079;66;000.289;MIDI 01
087.375;000.241;58;000.102;MIDI 01
086.819;000.820;78;000.469;MIDI 01
087.546;000.335;53;000.320;MIDI 01
087.767;000.307;65;000.336;MIDI 01
087.960;000.147;57;000.320;MIDI 01
087.561;000.620;77;000.469;MIDI 01
088.166;000.383;54;000.344;MIDI 01
088.355;000.387;63;000.352;MIDI 01
088.145;000.627;75;000.531;MIDI 01
088.579;000.228;58;000.328;MIDI 01
089.013;000.143;66;000.352;MIDI 01
088.772;000.538;56;000.320;MIDI 01
089.279;000.047;60;000.227;MIDI 01
088.732;000.831;77;000.492;MIDI 01
089.555;000.305;49;000.312;MIDI 01
089.541;000.516;73;000.430;MIDI 01
089.890;000.174;56;000.312;MIDI 01
090.112;000.150;61;000.344;MIDI 01
090.323;000.227;65;000.336;MIDI 01
090.506;000.177;72;000.430;MIDI 01
090.591;000.216;61;000.352;MIDI 01
090.691;000.139;73;000.508;MIDI 01
090.838;000.166;75;000.492;MIDI 01
090.879;000.382;56;000.266;MIDI 01
091.002;000.277;73;000.555;MIDI 01
091.283;000.295;51;000.328;MIDI 01
091.584;000.289;55;000.273;MIDI 01
091.853;000.183;61;000.352;MIDI 01
092.104;000.278;63;000.305;MIDI 01
091.258;001.282;77;000.516;MIDI 01
092.383;000.361;61;000.375;MIDI 01
092.791;000.055;55;000.297;MIDI 01
092.487;000.381;75;000.508;MIDI 01
093.193;000.453;44;000.328;MIDI 01
093.646;000.215;51;000.297;MIDI 01
093.902;000.205;56;000.281;MIDI 01
094.121;000.182;60;000.242;MIDI 01
094.307;000.149;56;000.320;MIDI 01
094.541;000.176;51;000.336;MIDI 01
094.755;000.200;44;000.375;MIDI 01
095.020;000.222;51;000.188;MIDI 01
095.241;000.286;54;000.289;MIDI 01
095.492;000.271;58;000.375;MIDI 01
095.798;000.220;54;000.281;MIDI 01
096.062;000.277;51;000.312;MIDI 01
093.157;003.336;75;000.508;MIDI 01
096.380;000.383;44;000.281;MIDI 01
096.802;000.125;51;000.211;MIDI 01
097.033;000.171;56;000.281;MIDI 01
097.236;000.224;60;000.289;MIDI 01
096.409;001.157;68;000.328;MIDI 01
097.484;000.141;56;000.320;MIDI 01
097.710;000.049;51;000.328;MIDI 01
097.931;000.099;70;000.203;MIDI 01
097.979;000.079;72;000.406;MIDI 01
098.010;000.172;44;000.297;MIDI 01
098.054;000.327;70;000.328;MIDI 01
098.308;000.124;56;000.281;MIDI 01
098.520;000.067;60;000.344;MIDI 01
098.414;000.292;68;000.406;MIDI 01
098.759;000.186;66;000.305;MIDI 01
098.726;000.360;73;000.438;MIDI 01
098.978;000.205;60;000.266;MIDI 01
099.226;000.209;56;000.156;MIDI 01
099.061;000.381;75;000.461;MIDI 01
099.502;000.271;49;000.297;MIDI 01
099.803;000.127;56;000.289;MIDI 01
100.027;000.087;61;000.242;MIDI 01
100.232;000.066;65;000.141;MIDI 01
100.406;000.090;61;000.281;MIDI 01
100.604;000.108;56;000.242;MIDI 01
099.466;001.408;77;000.406;MIDI 01
100.839;000.198;49;000.227;MIDI 01
101.058;000.066;56;000.281;MIDI 01
101.260;000.188;65;000.242;MIDI 01
101.491;000.115;68;000.203;MIDI 01
101.675;000.218;65;000.211;MIDI 01
100.815;001.521;80;000.461;MIDI 01
101.967;000.460;56;000.148;MIDI 01
102.263;000.285;66;000.172;MIDI 01
102.531;000.248;63;000.180;MIDI 01
102.244;000.777;78;000.336;MIDI 01
102.941;000.140;65;000.336;MIDI 01
102.725;000.393;56;000.250;MIDI 01
103.171;000.152;61;000.320;MIDI 01
102.928;000.665;77;000.438;MIDI 01
103.583;000.183;63;000.312;MIDI 01
103.367;000.428;56;000.281;MIDI 01
103.570;000.306;75;000.414;MIDI 01
103.799;000.104;60;000.305;MIDI 01
103.915;000.083;77;000.359;MIDI 01
104.033;000.048;75;000.375;MIDI 01
104.132;000.045;73;000.383;MIDI 01
103.985;000.348;56;000.305;MIDI 01
104.226;000.114;75;000.453;MIDI 01
104.372;000.325;61;000.305;MIDI 01
104.677;000.391;56;000.297;MIDI 01
105.050;000.070;53;000.227;MIDI 01
104.353;000.935;77;000.430;MIDI 01
105.218;000.299;73;000.352;MIDI 01
105.525;000.312;44;000.164;MIDI 01
105.854;000.128;51;000.289;MIDI 01
106.119;000.086;56;000.180;MIDI 01
106.286;000.178;60;000.211;MIDI 01
106.516;000.068;56;000.195;MIDI 01
106.723;000.057;51;000.141;MIDI 01
105.485;001.506;68;000.328;MIDI 01
107.014;000.204;42;000.258;MIDI 01
107.303;000.112;54;000.297;MIDI 01
107.545;000.090;58;000.109;MIDI 01
107.730;000.198;61;000.305;MIDI 01
107.950;000.169;58;000.250;MIDI 01
108.156;000.056;54;000.273;MIDI 01
108.454;000.229;46;000.180;MIDI 01
108.723;000.075;53;000.242;MIDI 01
108.921;000.190;58;000.266;MIDI 01
109.145;000.226;62;000.289;MIDI 01
106.992;002.508;70;000.406;MIDI 01
109.398;000.130;58;000.273;MIDI 01
109.600;000.053;53;000.211;MIDI 01
109.767;000.052;71;000.305;MIDI 01
109.853;000.097;73;000.383;MIDI 01
109.899;000.274;46;000.312;MIDI 01
109.958;000.307;71;000.391;MIDI 01
110.184;000.124;58;000.336;MIDI 01
110.431;000.069;62;000.289;MIDI 01
110.270;000.283;70;000.461;MIDI 01
110.638;000.195;68;000.305;MIDI 01
110.557;000.391;75;000.500;MIDI 01
110.875;000.136;62;000.344;MIDI 01
111.114;000.225;58;000.289;MIDI 01
110.895;000.477;77;000.562;MIDI 01
111.398;000.178;51;000.305;MIDI 01
111.709;000.083;66;000.305;MIDI 01
111.909;000.254;58;000.281;MIDI 01
111.357;000.826;78;000.445;MIDI 01
112.109;000.353;53;000.344;MIDI 01
112.295;000.285;65;000.336;MIDI 01
112.503;000.133;57;000.305;MIDI 01
112.079;000.655;77;000.461;MIDI 01
112.715;000.390;54;000.320;MIDI 01
112.880;000.401;63;000.359;MIDI 01
112.697;000.649;75;000.453;MIDI 01
113.128;000.220;58;000.273;MIDI 01
113.603;000.118;66;000.297;MIDI 01
113.346;000.583;56;000.312;MIDI 01
113.905;000.054;60;000.250;MIDI 01
113.336;000.967;77;000.406;MIDI 01
114.271;000.344;49;000.289;MIDI 01
114.646;000.146;56;000.266;MIDI 01
114.245;000.550;73;000.344;MIDI 01
114.874;000.156;61;000.297;MIDI 01
115.089;000.218;65;000.250;MIDI 01
115.370;000.107;67;000.297;MIDI 01
115.354;000.236;61;000.312;MIDI 01
115.546;000.093;68;000.297;MIDI 01
115.707;000.144;70;000.383;MIDI 01
115.903;000.191;68;000.391;MIDI 01
115.664;000.496;56;000.250;MIDI 01
116.189;000.341;49;000.297;MIDI 01
116.552;000.133;56;000.266;MIDI 01
116.771;000.191;60;000.273;MIDI 01
117.013;000.237;66;000.297;MIDI 01
116.182;001.306;77;000.414;MIDI 01
117.283;000.250;60;000.250;MIDI 01
117.410;000.237;75;000.367;MIDI 01
117.618;000.252;56;000.188;MIDI 01
117.928;000.316;49;000.281;MIDI 01
118.285;000.127;56;000.273;MIDI 01
118.497;000.142;60;000.250;MIDI 01
118.708;000.141;66;000.289;MIDI 01
118.945;000.127;60;000.203;MIDI 01
119.134;000.109;56;000.266;MIDI 01
117.957;001.430;75;000.391;MIDI 01
119.351;000.214;49;000.281;MIDI 01
119.568;000.117;56;000.305;MIDI 01
119.780;000.104;61;000.328;MIDI 01
119.927;000.148;65;000.359;MIDI 01
119.339;000.948;73;000.289;MIDI 01
120.079;000.214;61;000.391;MIDI 01
120.388;000.067;56;000.336;MIDI 01
120.245;000.471;80;000.602;MIDI 01
120.715;000.269;44;000.383;MIDI 01
121.017;000.199;51;000.352;MIDI 01
120.679;000.605;68;000.602;MIDI 01
121.224;000.145;56;000.328;MIDI 01
121.417;000.121;60;000.359;MIDI 01
121.576;000.138;56;000.359;MIDI 01
121.794;000.161;51;000.320;MIDI 01
121.923;000.044;70;000.438;MIDI 01
122.005;000.081;72;000.469;MIDI 01
122.015;000.171;44;000.359;MIDI 01
122.219;000.246;51;000.266;MIDI 01
122.073;000.485;70;000.461;MIDI 01
122.441;000.202;55;000.375;MIDI 01
122.581;000.148;69;000.484;MIDI 01
122.701;000.217;61;000.375;MIDI 01
122.934;000.168;55;000.430;MIDI 01
122.682;000.576;70;000.609;MIDI 01
123.136;000.237;51;000.414;MIDI 01
123.245;000.143;72;000.570;MIDI 01
123.409;000.197;44;000.398;MIDI 01
123.380;000.256;68;000.625;MIDI 01
123.610;000.240;51;000.500;MIDI 01
123.835;000.366;56;000.602;MIDI 01
124.188;000.245;60;000.461;MIDI 01
124.424;000.246;56;000.422;MIDI 01
124.670;000.345;51;000.484;MIDI 01
125.011;000.379;49;000.508;MIDI 01
124.171;001.382;84;000.656;MIDI 01
125.404;000.208;56;000.375;MIDI 01
125.305;000.410;82;000.547;MIDI 01
125.580;000.184;80;000.547;MIDI 01
125.629;000.160;61;000.406;MIDI 01
125.770;000.170;76;000.578;MIDI 01
125.844;000.316;64;000.383;MIDI 01
125.947;000.243;73;000.594;MIDI 01
126.132;000.161;61;000.414;MIDI 01
126.139;000.156;70;000.594;MIDI 01
126.354;000.094;56;000.430;MIDI 01
126.567;000.112;80;000.609;MIDI 01
126.997;000.289;39;000.352;MIDI 01
127.362;000.130;51;000.352;MIDI 01
126.989;000.570;63;000.594;MIDI 01
127.610;000.156;56;000.328;MIDI 01
127.825;000.226;60;000.297;MIDI 01
128.051;000.151;56;000.297;MIDI 01
128.260;000.047;51;000.352;MIDI 01
128.507;000.094;72;000.383;MIDI 01
128.615;000.204;39;000.344;MIDI 01
128.896;000.108;51;000.336;MIDI 01
128.617;000.607;70;000.492;MIDI 01
129.134;000.156;55;000.320;MIDI 01
129.284;000.199;69;000.438;MIDI 01
129.458;000.306;61;000.312;MIDI 01
129.780;000.252;55;000.312;MIDI 01
129.444;000.969;70;000.461;MIDI 01
130.082;000.582;51;000.297;MIDI 01
130.358;000.318;75;000.367;MIDI 01
130.682;000.408;44;000.281;MIDI 01
131.097;000.217;51;000.297;MIDI 01
131.351;000.157;56;000.289;MIDI 01
131.576;000.237;60;000.273;MIDI 01
131.851;000.208;56;000.266;MIDI 01
132.169;000.052;51;000.164;MIDI 01
130.671;001.905;68;000.312;MIDI 01
132.613;000.346;42;000.219;MIDI 01
133.016;000.226;54;000.258;MIDI 01
133.341;000.134;58;000.242;MIDI 01
132.580;001.093;70;000.344;MIDI 01
133.699;000.368;61;000.266;MIDI 01
133.718;000.378;73;000.320;MIDI 01
134.118;000.310;58;000.133;MIDI 01
134.067;000.438;72;000.320;MIDI 01
134.459;000.103;54;000.242;MIDI 01
134.474;000.510;70;000.320;MIDI 01
134.984;000.363;44;000.258;MIDI 01
135.435;000.169;56;000.273;MIDI 01
135.727;000.109;60;000.094;MIDI 01
136.002;000.327;63;000.234;MIDI 01
135.012;001.408;68;000.289;MIDI 01
136.325;000.179;60;000.125;MIDI 01
136.550;000.204;56;000.227;MIDI 01
136.764;000.078;70;000.133;MIDI 01
136.841;000.052;72;000.305;MIDI 01
136.802;000.344;51;000.234;MIDI 01
136.909;000.317;70;000.289;MIDI 01
137.118;000.248;56;000.266;MIDI 01
137.273;000.270;68;000.359;MIDI 01
137.389;000.164;60;000.211;MIDI 01
137.617;000.185;66;000.312;MIDI 01
137.568;000.416;73;000.430;MIDI 01
137.856;000.221;60;000.242;MIDI 01
138.101;000.212;56;000.242;MIDI 01
137.903;000.415;75;000.461;MIDI 01
138.365;000.241;49;000.266;MIDI 01
138.657;000.073;56;000.258;MIDI 01
138.868;000.116;61;000.227;MIDI 01
139.054;000.097;65;000.273;MIDI 01
139.246;000.181;61;000.250;MIDI 01
139.467;000.122;56;000.273;MIDI 01
138.318;001.421;77;000.422;MIDI 01
139.686;000.142;49;000.328;MIDI 01
139.874;000.120;56;000.305;MIDI 01
140.086;000.164;65;000.312;MIDI 01
140.311;000.140;68;000.305;MIDI 01
140.523;000.209;65;000.281;MIDI 01
139.669;001.588;80;000.508;MIDI 01
140.795;000.549;56;000.312;MIDI 01
141.132;000.347;66;000.227;MIDI 01
141.403;000.344;63;000.258;MIDI 01
141.121;000.819;78;000.414;MIDI 01
141.780;000.165;65;000.375;MIDI 01
141.605;000.393;56;000.219;MIDI 01
142.016;000.179;61;000.359;MIDI 01
141.773;000.721;77;000.484;MIDI 01
142.222;000.370;56;000.297;MIDI 01
142.456;000.196;63;000.312;MIDI 01
142.448;000.324;75;000.367;MIDI 01
142.682;000.119;60;000.320;MIDI 01
142.838;000.048;77;000.320;MIDI 01
142.923;000.044;75;000.422;MIDI 01
143.016;000.051;73;000.352;MIDI 01
142.861;000.261;56;000.266;MIDI 01
143.088;000.118;75;000.445;MIDI 01
143.147;000.325;61;000.320;MIDI 01
143.210;000.510;77;000.469;MIDI 01
143.502;000.320;56;000.305;MIDI 01
143.931;000.040;53;000.273;MIDI 01
143.667;000.628;73;000.492;MIDI 01
144.309;000.268;44;000.273;MIDI 01
144.631;000.191;51;000.250;MIDI 01
144.845;000.175;56;000.297;MIDI 01
145.085;000.192;60;000.242;MIDI 01
145.299;000.169;56;000.234;MIDI 01
145.525;000.058;51;000.289;MIDI 01
144.274;001.610;68;000.414;MIDI 01
145.876;000.258;42;000.203;MIDI 01
146.207;000.088;54;000.266;MIDI 01
146.459;000.074;58;000.141;MIDI 01
146.642;000.241;61;000.312;MIDI 01
146.912;000.200;58;000.266;MIDI 01
147.121;000.056;54;000.242;MIDI 01
147.398;000.205;46;000.289;MIDI 01
147.646;000.072;53;000.219;MIDI 01
147.838;000.203;58;000.297;MIDI 01
148.070;000.201;62;000.258;MIDI 01
145.845;002.445;70;000.422;MIDI 01
148.276;000.188;58;000.273;MIDI 01
148.520;000.044;53;000.195;MIDI 01
148.676;000.050;71;000.352;MIDI 01
148.774;000.065;73;000.344;MIDI 01
148.833;000.231;46;000.258;MIDI 01
148.847;000.294;71;000.305;MIDI 01
149.113;000.112;58;000.328;MIDI 01
149.308;000.076;62;000.344;MIDI 01
149.150;000.296;70;000.469;MIDI 01
149.507;000.183;68;000.375;MIDI 01
149.453;000.369;75;000.516;MIDI 01
149.732;000.136;62;000.352;MIDI 01
149.934;000.213;58;000.312;MIDI 01
149.771;000.429;77;000.547;MIDI 01
150.200;000.158;51;000.359;MIDI 01
150.481;000.082;66;000.305;MIDI 01
150.713;000.139;58;000.219;MIDI 01
150.197;000.729;78;000.453;MIDI 01
150.860;000.296;53;000.336;MIDI 01
151.233;000.128;57;000.352;MIDI 01
151.065;000.315;65;000.305;MIDI 01
150.858;000.588;77;000.500;MIDI 01
151.423;000.473;54;000.391;MIDI 01
151.631;000.369;63;000.328;MIDI 01
151.859;000.168;58;000.375;MIDI 01
151.412;000.628;75;000.547;MIDI 01
152.328;000.103;66;000.273;MIDI 01
152.052;000.548;56;000.328;MIDI 01
152.557;000.045;60;000.305;MIDI 01
152.005;000.882;77;000.484;MIDI 01
152.819;000.321;49;000.336;MIDI 01
152.798;000.471;73;000.398;MIDI 01
153.135;000.145;56;000.328;MIDI 01
153.371;000.144;61;000.297;MIDI 01
153.590;000.234;65;000.297;MIDI 01
153.855;000.146;67;000.312;MIDI 01
154.028;000.108;68;000.344;MIDI 01
153.884;000.275;61;000.312;MIDI 01
154.193;000.152;70;000.414;MIDI 01
154.191;000.482;56;000.289;MIDI 01
154.372;000.312;68;000.414;MIDI 01
154.707;000.328;49;000.281;MIDI 01
155.046;000.159;56;000.266;MIDI 01
155.289;000.104;60;000.273;MIDI 01
155.534;000.232;66;000.297;MIDI 01
154.705;001.269;77;000.359;MIDI 01
155.840;000.300;60;000.203;MIDI 01
155.917;000.264;75;000.375;MIDI 01
156.192;000.243;56;000.211;MIDI 01
156.525;000.309;49;000.227;MIDI 01
156.910;000.085;56;000.148;MIDI 01
157.105;000.166;60;000.188;MIDI 01
157.341;000.234;66;000.297;MIDI 01
157.614;000.120;60;000.227;MIDI 01
157.840;000.112;56;000.117;MIDI 01
156.478;001.598;75;000.430;MIDI 01
158.053;000.186;49;000.281;MIDI 01
158.294;000.107;56;000.266;MIDI 01
158.480;000.147;61;000.305;MIDI 01
158.658;000.149;65;000.359;MIDI 01
158.014;001.058;73;000.367;MIDI 01
158.838;000.243;61;000.383;MIDI 01
159.161;000.062;56;000.344;MIDI 01
159.050;000.430;80;000.586;MIDI 01
159.494;000.249;44;000.344;MIDI 01
159.792;000.151;51;000.352;MIDI 01
159.450;000.610;68;000.594;MIDI 01
159.993;000.164;56;000.336;MIDI 01
160.189;000.176;60;000.383;MIDI 01
160.394;000.132;56;000.383;MIDI 01
160.717;000.043;70;000.445;MIDI 01
160.586;000.243;51;000.359;MIDI 01
160.802;000.097;72;000.461;MIDI 01
160.841;000.197;44;000.414;MIDI 01
161.057;000.251;51;000.320;MIDI 01
160.864;000.521;70;000.500;MIDI 01
161.262;000.197;55;000.375;MIDI 01
161.389;000.183;69;000.508;MIDI 01
161.515;000.216;61;000.367;MIDI 01
161.755;000.173;55;000.453;MIDI 01
161.519;000.610;70;000.609;MIDI 01
161.958;000.240;51;000.422;MIDI 01
162.086;000.164;72;000.531;MIDI 01
162.245;000.223;44;000.422;MIDI 01
162.232;000.249;68;000.609;MIDI 01
162.481;000.317;51;000.531;MIDI 01
162.707;000.423;56;000.539;MIDI 01
163.096;000.315;60;000.438;MIDI 01
163.340;000.354;56;000.406;MIDI 01
163.665;000.674;51;000.398;MIDI 01
163.052;001.956;84;000.703;MIDI 01
164.307;000.764;49;000.344;MIDI 01
164.884;000.506;82;000.391;MIDI 01
165.078;000.348;56;000.281;MIDI 01
165.282;000.170;80;000.406;MIDI 01
165.502;000.119;76;000.453;MIDI 01
165.464;000.205;61;000.289;MIDI 01
165.689;000.146;73;000.398;MIDI 01
165.874;000.049;70;000.375;MIDI 01
165.708;000.237;64;000.258;MIDI 01
166.003;000.084;61;000.273;MIDI 01
166.196;000.061;56;000.211;MIDI 01
166.453;000.034;80;000.430;MIDI 01
166.946;000.356;39;000.234;MIDI 01
167.387;000.138;51;000.266;MIDI 01
167.686;000.194;56;000.086;MIDI 01
166.949;000.953;63;000.336;MIDI 01
167.912;000.198;60;000.266;MIDI 01
168.139;000.154;56;000.289;MIDI 01
168.393;000.052;51;000.242;MIDI 01
168.605;000.058;72;000.312;MIDI 01
168.735;000.219;39;000.289;MIDI 01
169.023;000.111;51;000.344;MIDI 01
168.699;000.677;70;000.438;MIDI 01
169.271;000.266;55;000.227;MIDI 01
169.393;000.218;69;000.438;MIDI 01
169.586;000.297;61;000.320;MIDI 01
169.877;000.275;55;000.344;MIDI 01
169.551;000.965;70;000.531;MIDI 01
170.223;000.522;51;000.320;MIDI 01
170.450;000.317;75;000.422;MIDI 01
170.785;000.381;44;000.273;MIDI 01
171.206;000.186;51;000.180;MIDI 01
171.465;000.190;56;000.281;MIDI 01
171.716;000.228;60;000.203;MIDI 01
171.988;000.120;56;000.266;MIDI 01
172.268;000.061;51;000.109;MIDI 01
170.774;001.879;68;000.375;MIDI 01
172.704;000.334;42;000.266;MIDI 01
173.110;000.224;54;000.242;MIDI 01
173.455;000.148;58;000.164;MIDI 01
172.667;001.224;70;000.344;MIDI 01
173.933;000.536;61;000.250;MIDI 01
173.903;000.659;73;000.359;MIDI 01
174.507;000.287;58;000.164;MIDI 01
174.435;000.396;72;000.344;MIDI 01
174.806;000.066;54;000.234;MIDI 01
174.805;000.412;70;000.367;MIDI 01
175.226;000.347;44;000.180;MIDI 01
175.596;000.209;51;000.219;MIDI 01
175.872;000.182;56;000.273;MIDI 01
176.108;000.184;60;000.258;MIDI 01
176.369;000.128;56;000.219;MIDI 01
175.203;001.321;68;000.297;MIDI 01
176.820;000.053;70;000.234;MIDI 01
176.905;000.064;72;000.289;MIDI 01
176.879;000.243;44;000.211;MIDI 01
176.991;000.311;70;000.383;MIDI 01
177.210;000.129;56;000.312;MIDI 01
177.468;000.061;60;000.289;MIDI 01
177.334;000.325;68;000.375;MIDI 01
177.703;000.245;66;000.289;MIDI 01
177.677;000.376;73;000.453;MIDI 01
177.971;000.235;60;000.281;MIDI 01
178.221;000.242;56;000.266;MIDI 01
177.992;000.473;75;000.453;MIDI 01
178.501;000.276;49;000.289;MIDI 01
178.844;000.073;56;000.148;MIDI 01
179.058;000.151;61;000.258;MIDI 01
179.267;000.180;65;000.258;MIDI 01
179.486;000.136;61;000.281;MIDI 01
179.693;000.137;56;000.242;MIDI 01
178.476;001.484;77;000.383;MIDI 01
179.944;000.207;49;000.258;MIDI 01
180.176;000.074;56;000.266;MIDI 01
180.390;000.214;65;000.289;MIDI 01
180.629;000.117;68;000.266;MIDI 01
180.827;000.226;65;000.211;MIDI 01
179.916;001.586;80;000.391;MIDI 01
181.077;000.518;56;000.289;MIDI 01
181.455;000.260;66;000.047;MIDI 01
181.688;000.259;63;000.242;MIDI 01
181.405;000.799;78;000.312;MIDI 01
182.090;000.137;65;000.320;MIDI 01
181.881;000.378;56;000.203;MIDI 01
182.323;000.197;61;000.289;MIDI 01
182.103;000.643;77;000.422;MIDI 01
182.534;000.351;56;000.289;MIDI 01
182.745;000.199;63;000.320;MIDI 01
182.750;000.249;75;000.406;MIDI 01
182.981;000.103;60;000.227;MIDI 01
183.057;000.078;77;000.352;MIDI 01
183.167;000.041;75;000.391;MIDI 01
183.262;000.056;73;000.383;MIDI 01
183.342;000.152;75;000.391;MIDI 01
183.148;000.369;56;000.289;MIDI 01
183.549;000.387;61;000.250;MIDI 01
183.524;000.555;77;000.430;MIDI 01
183.890;000.447;56;000.258;MIDI 01
184.336;000.057;53;000.234;MIDI 01
184.066;000.735;73;000.367;MIDI 01
184.749;000.373;44;000.273;MIDI 01
185.144;000.211;51;000.289;MIDI 01
185.399;000.136;56;000.266;MIDI 01
185.631;000.156;60;000.234;MIDI 01
185.839;000.116;56;000.250;MIDI 01
186.056;000.050;51;000.297;MIDI 01
184.732;001.742;68;000.336;MIDI 01
186.407;000.189;42;000.188;MIDI 01
186.693;000.122;54;000.312;MIDI 01
186.927;000.084;58;000.227;MIDI 01
187.141;000.241;61;000.320;MIDI 01
187.374;000.222;58;000.312;MIDI 01
187.600;000.046;54;000.258;MIDI 01
187.891;000.259;46;000.250;MIDI 01
188.183;000.066;53;000.172;MIDI 01
188.400;000.159;58;000.203;MIDI 01
188.602;000.177;62;000.289;MIDI 01
186.345;002.564;70;000.367;MIDI 01
188.823;000.170;58;000.312;MIDI 01
189.059;000.048;53;000.188;MIDI 01
189.267;000.027;71;000.312;MIDI 01
189.344;000.064;73;000.352;MIDI 01
189.293;000.289;46;000.297;MIDI 01
189.419;000.325;71;000.398;MIDI 01
189.628;000.118;58;000.367;MIDI 01
189.832;000.083;62;000.328;MIDI 01
189.774;000.290;70;000.422;MIDI 01
190.115;000.216;68;000.172;MIDI 01
190.076;000.369;75;000.500;MIDI 01
190.343;000.121;62;000.289;MIDI 01
190.546;000.224;58;000.297;MIDI 01
190.397;000.419;77;000.516;MIDI 01
190.827;000.207;51;000.312;MIDI 01
191.162;000.152;66;000.281;MIDI 01
190.804;000.767;78;000.438;MIDI 01
191.379;000.216;58;000.273;MIDI 01
191.570;000.324;53;000.344;MIDI 01
191.967;000.127;57;000.320;MIDI 01
191.782;000.331;65;000.297;MIDI 01
191.543;000.590;77;000.469;MIDI 01
192.160;000.451;54;000.344;MIDI 01
192.147;000.651;75;000.438;MIDI 01
192.624;000.200;58;000.266;MIDI 01
192.379;000.451;63;000.328;MIDI 01
193.114;000.140;66;000.305;MIDI 01
193.408;000.057;60;000.227;MIDI 01
192.811;000.659;56;000.297;MIDI 01
192.805;001.001;77;000.391;MIDI 01
193.787;000.402;49;000.211;MIDI 01
193.777;000.558;73;000.352;MIDI 01
194.199;000.216;56;000.266;MIDI 01
194.458;000.174;61;000.297;MIDI 01
194.691;000.266;65;000.250;MIDI 01
194.972;000.160;67;000.328;MIDI 01
194.998;000.283;61;000.297;MIDI 01
195.176;000.124;68;000.328;MIDI 01
195.350;000.147;70;000.375;MIDI 01
195.515;000.280;68;000.383;MIDI 01
195.310;000.554;56;000.266;MIDI 01
195.881;000.411;49;000.258;MIDI 01
196.324;000.189;56;000.289;MIDI 01
196.555;000.196;60;000.281;MIDI 01
196.803;000.289;66;000.289;MIDI 01
195.865;001.440;77;000.453;MIDI 01
197.255;000.198;75;000.352;MIDI 01
197.126;000.385;60;000.250;MIDI 01
197.529;000.387;56;000.234;MIDI 01
197.952;000.440;49;000.250;MIDI 01
198.445;000.220;56;000.227;MIDI 01
198.709;000.169;60;000.102;MIDI 01
198.974;000.221;66;000.242;MIDI 01
199.260;000.150;60;000.227;MIDI 01
199.467;000.198;56;000.266;MIDI 01
199.731;000.222;49;000.266;MIDI 01
200.030;000.223;56;000.180;MIDI 01
200.281;000.257;60;000.133;MIDI 01
197.946;002.598;75;000.359;MIDI 01
200.608;000.226;66;000.188;MIDI 01
200.912;000.216;60;000.188;MIDI 01
201.191;000.322;56;000.242;MIDI 01
201.620;000.231;49;000.234;MIDI 01
201.858;000.051;68;000.250;MIDI 01
201.997;000.062;69;000.203;MIDI 01
201.915;000.150;56;000.250;MIDI 01
202.072;000.071;68;000.344;MIDI 01
202.127;000.060;61;000.273;MIDI 01
202.213;000.056;67;000.375;MIDI 01
202.300;000.050;68;000.398;MIDI 01
202.372;000.062;61;000.305;MIDI 01
202.407;000.058;73;000.375;MIDI 01
202.479;000.099;56;000.383;MIDI 01
202.509;000.095;76;000.414;MIDI 01
202.648;000.062;75;000.398;MIDI 01
202.771;000.028;73;000.344;MIDI 01
202.609;000.202;52;000.438;MIDI 01
202.268;000.546;64;000.344;MIDI 01
202.782;000.117;56;000.352;MIDI 01
202.848;000.064;75;000.445;MIDI 01
202.919;000.054;73;000.453;MIDI 01
202.945;000.048;61;000.289;MIDI 01
203.022;000.053;72;000.406;MIDI 01
203.006;000.081;64;000.320;MIDI 01
203.092;000.071;73;000.469;MIDI 01
203.115;000.078;61;000.398;MIDI 01
203.207;000.065;76;000.422;MIDI 01
203.290;000.039;80;000.477;MIDI 01
203.267;000.097;56;000.336;MIDI 01
203.433;000.130;49;000.430;MIDI 01
203.564;000.048;68;000.383;MIDI 01
203.586;000.082;56;000.352;MIDI 01
203.664;000.056;69;000.391;MIDI 01
203.739;000.045;68;000.414;MIDI 01
203.749;000.042;61;000.266;MIDI 01
203.832;000.037;67;000.391;MIDI 01
203.899;000.033;68;000.383;MIDI 01
203.930;000.086;61;000.336;MIDI 01
203.983;000.064;73;000.391;MIDI 01
204.039;000.107;56;000.352;MIDI 01
204.103;000.053;76;000.367;MIDI 01
204.211;000.049;75;000.391;MIDI 01
203.826;000.498;64;000.391;MIDI 01
204.302;000.039;73;000.375;MIDI 01
204.168;000.235;52;000.391;MIDI 01
204.389;000.053;75;000.391;MIDI 01
204.334;000.111;56;000.359;MIDI 01
204.447;000.050;73;000.453;MIDI 01
204.457;000.046;61;000.375;MIDI 01
204.533;000.057;64;000.344;MIDI 01
204.559;000.045;72;000.375;MIDI 01
204.643;000.035;61;000.383;MIDI 01
204.609;000.078;73;000.438;MIDI 01
204.721;000.050;76;000.406;MIDI 01
204.771;000.036;56;000.258;MIDI 01
204.803;000.095;80;000.406;MIDI 01
204.823;000.126;51;000.414;MIDI 01
204.946;000.059;69;000.461;MIDI 01
204.961;000.084;57;000.391;MIDI 01
205.025;000.066;73;000.453;MIDI 01
205.100;000.048;61;000.367;MIDI 01
205.145;000.024;78;000.477;MIDI 01
205.183;000.079;66;000.375;MIDI 01
205.243;000.048;81;000.539;MIDI 01
205.280;000.081;61;000.398;MIDI 01
205.335;000.078;85;000.516;MIDI 01
205.445;000.037;87;000.461;MIDI 01
205.405;000.107;57;000.328;MIDI 01
205.530;000.130;95;000.516;MIDI 01
205.541;000.125;54;000.438;MIDI 01
205.665;000.081;93;000.523;MIDI 01
205.711;000.080;61;000.414;MIDI 01
205.762;000.084;92;000.516;MIDI 01
205.830;000.050;63;000.359;MIDI 01
205.847;000.038;90;000.492;MIDI 01
205.919;000.055;88;000.516;MIDI 01
205.933;000.049;69;000.430;MIDI 01
206.010;000.085;63;000.406;MIDI 01
206.012;000.085;87;000.500;MIDI 01
206.089;000.031;61;000.477;MIDI 01
206.106;000.078;90;000.555;MIDI 01
206.184;000.081;85;000.523;MIDI 01
206.282;000.036;84;000.492;MIDI 01
206.286;000.114;44;000.469;MIDI 01
206.357;000.079;87;000.539;MIDI 01
206.436;000.062;51;000.398;MIDI 01
206.461;000.048;81;000.492;MIDI 01
206.567;000.048;80;000.461;MIDI 01
206.600;000.057;54;000.141;MIDI 01
206.647;000.035;60;000.406;MIDI 01
206.641;000.068;78;000.539;MIDI 01
206.739;000.021;81;000.469;MIDI 01
206.783;000.052;54;000.305;MIDI 01
206.817;000.043;76;000.508;MIDI 01
206.885;000.054;51;000.328;MIDI 01
206.901;000.060;75;000.461;MIDI 01
206.978;000.095;78;000.500;MIDI 01
206.996;000.107;44;000.492;MIDI 01
207.082;000.084;73;000.477;MIDI 01
207.110;000.101;51;000.352;MIDI 01
207.194;000.052;72;000.461;MIDI 01
207.254;000.050;54;000.312;MIDI 01
207.289;000.055;75;000.469;MIDI 01
207.359;000.049;60;000.383;MIDI 01
207.385;000.049;69;000.375;MIDI 01
207.485;000.046;68;000.391;MIDI 01
207.479;000.075;54;000.195;MIDI 01
207.560;000.097;71;000.398;MIDI 01
207.634;000.065;51;000.156;MIDI 01
207.692;000.136;69;000.375;MIDI 01
207.766;000.088;49;000.375;MIDI 01
207.866;000.055;68;000.328;MIDI 01
207.921;000.059;56;000.336;MIDI 01
207.990;000.050;69;000.398;MIDI 01
208.057;000.068;68;000.422;MIDI 01
208.083;000.055;61;000.172;MIDI 01
208.167;000.049;67;000.477;MIDI 01
208.256;000.031;68;000.406;MIDI 01
208.282;000.054;61;000.336;MIDI 01
208.317;000.080;73;000.438;MIDI 01
208.133;000.319;64;000.375;MIDI 01
208.335;000.121;56;000.391;MIDI 01
208.420;000.094;76;000.453;MIDI 01
208.477;000.141;52;000.453;MIDI 01
208.549;000.077;75;000.469;MIDI 01
208.652;000.040;73;000.453;MIDI 01
208.626;000.111;56;000.461;MIDI 01
208.726;000.089;75;000.461;MIDI 01
208.754;000.071;61;000.398;MIDI 01
208.803;000.045;73;000.500;MIDI 01
208.843;000.071;64;000.398;MIDI 01
208.896;000.058;72;000.508;MIDI 01
208.954;000.049;61;000.438;MIDI 01
208.969;000.069;73;000.453;MIDI 01
209.058;000.081;76;000.445;MIDI 01
209.071;000.088;56;000.352;MIDI 01
209.147;000.034;80;000.492;MIDI 01
209.218;000.123;49;000.453;MIDI 01
209.334;000.098;56;000.375;MIDI 01
209.394;000.045;68;000.375;MIDI 01
209.460;000.047;58;000.344;MIDI 01
209.488;000.070;70;000.430;MIDI 01
209.573;000.022;68;000.391;MIDI 01
209.629;000.045;67;000.453;MIDI 01
209.569;000.107;64;000.414;MIDI 01
209.685;000.083;68;000.555;MIDI 01
209.674;000.146;58;000.352;MIDI 01
209.791;000.069;73;000.477;MIDI 01
209.829;000.062;56;000.398;MIDI 01
209.882;000.092;76;000.500;MIDI 01
209.998;000.070;75;000.500;MIDI 01
210.099;000.051;73;000.500;MIDI 01
210.072;000.126;56;000.320;MIDI 01
210.208;000.044;58;000.398;MIDI 01
210.181;000.100;75;000.484;MIDI 01
210.257;000.051;73;000.500;MIDI 01
209.908;000.428;52;000.445;MIDI 01
210.343;000.069;72;000.516;MIDI 01
210.417;000.073;73;000.547;MIDI 01
210.382;000.117;58;000.383;MIDI 01
210.509;000.074;76;000.500;MIDI 01
210.507;000.109;56;000.422;MIDI 01
210.599;000.082;80;000.508;MIDI 01
210.275;000.496;61;000.391;MIDI 01
210.692;000.095;75;000.555;MIDI 01
210.812;000.101;76;000.508;MIDI 01
210.931;000.047;75;000.547;MIDI 01
210.786;000.203;56;000.461;MIDI 01
210.936;000.125;59;000.461;MIDI 01
211.009;000.062;74;000.523;MIDI 01
211.080;000.090;75;000.594;MIDI 01
211.058;000.120;63;000.438;MIDI 01
210.635;000.569;51;000.477;MIDI 01
211.174;000.113;83;000.523;MIDI 01
211.168;000.150;59;000.406;MIDI 01
211.276;000.125;82;000.555;MIDI 01
211.326;000.123;56;000.422;MIDI 01
211.365;000.096;80;000.547;MIDI 01
211.493;000.086;79;000.609;MIDI 01
211.484;000.165;51;000.508;MIDI 01
211.615;000.102;88;000.602;MIDI 01
211.646;000.126;58;000.477;MIDI 01
211.703;000.124;87;000.578;MIDI 01
211.777;000.093;61;000.492;MIDI 01
211.791;000.098;85;000.578;MIDI 01
211.889;000.080;83;000.570;MIDI 01
211.896;000.085;67;000.508;MIDI 01
212.004;000.088;61;000.414;MIDI 01
211.992;000.106;82;000.547;MIDI 01
212.105;000.032;58;000.500;MIDI 01
212.089;000.103;80;000.562;MIDI 01
212.192;000.101;79;000.555;MIDI 01
212.309;000.153;44;000.484;MIDI 01
212.311;000.180;82;000.562;MIDI 01
212.422;000.080;80;000.508;MIDI 01
212.468;000.097;51;000.453;MIDI 01
212.502;000.099;83;000.578;MIDI 01
212.624;000.078;74;000.547;MIDI 01
212.593;000.114;56;000.453;MIDI 01
212.728;000.076;59;000.469;MIDI 01
212.724;000.098;76;000.539;MIDI 01
212.822;000.103;75;000.602;MIDI 01
212.863;000.113;56;000.508;MIDI 01
212.939;000.086;80;000.562;MIDI 01
213.017;000.059;51;000.438;MIDI 01
213.029;000.094;70;000.547;MIDI 01
213.141;000.097;73;000.547;MIDI 01
213.123;000.141;44;000.531;MIDI 01
213.245;000.085;71;000.516;MIDI 01
213.273;000.109;51;000.430;MIDI 01
213.340;000.098;75;000.531;MIDI 01
213.442;000.115;56;000.445;MIDI 01
213.465;000.101;67;000.523;MIDI 01
213.581;000.078;59;000.492;MIDI 01
213.597;000.129;70;000.516;MIDI 01
213.724;000.106;68;000.477;MIDI 01
213.730;000.148;56;000.438;MIDI 01
213.873;000.102;67;000.430;MIDI 01
213.992;000.046;68;000.523;MIDI 01
213.932;000.304;51;000.391;MIDI 01
214.258;000.280;45;000.391;MIDI 01
214.468;000.088;80;000.438;MIDI 01
214.261;000.360;68;000.570;MIDI 01
214.544;000.100;49;000.328;MIDI 01
214.640;000.056;72;000.367;MIDI 01
214.720;000.043;54;000.273;MIDI 01
214.700;000.100;73;000.477;MIDI 01
214.781;000.055;57;000.344;MIDI 01
214.881;000.067;54;000.430;MIDI 01
214.800;000.155;66;000.547;MIDI 01
214.902;000.124;78;000.508;MIDI 01
215.014;000.052;49;000.328;MIDI 01
215.016;000.084;72;000.461;MIDI 01
215.061;000.078;73;000.422;MIDI 01
215.102;000.135;45;000.516;MIDI 01
215.128;000.126;65;000.586;MIDI 01
215.238;000.090;77;000.539;MIDI 01
215.247;000.132;49;000.391;MIDI 01
215.294;000.123;72;000.492;MIDI 01
215.410;000.050;54;000.281;MIDI 01
215.403;000.072;73;000.492;MIDI 01
215.460;000.075;57;000.477;MIDI 01
215.426;000.134;66;000.617;MIDI 01
215.572;000.066;54;000.469;MIDI 01
215.544;000.111;78;000.523;MIDI 01
215.590;000.102;72;000.484;MIDI 01
215.691;000.044;73;000.508;MIDI 01
215.675;000.076;49;000.422;MIDI 01
215.775;000.103;47;000.492;MIDI 01
215.759;000.143;61;000.602;MIDI 01
215.867;000.105;73;000.469;MIDI 01
215.957;000.072;54;000.398;MIDI 01
215.975;000.074;66;000.461;MIDI 01
216.071;000.040;57;000.367;MIDI 01
216.036;000.089;69;000.430;MIDI 01
216.123;000.073;59;000.484;MIDI 01
216.095;000.176;63;000.602;MIDI 01
216.220;000.093;57;000.453;MIDI 01
216.330;000.026;54;000.477;MIDI 01
216.324;000.084;66;000.500;MIDI 01
216.206;000.221;75;000.570;MIDI 01
216.397;000.079;69;000.484;MIDI 01
216.516;000.118;40;000.477;MIDI 01
216.490;000.161;64;000.555;MIDI 01
216.631;000.097;76;000.477;MIDI 01
216.679;000.090;47;000.422;MIDI 01
216.743;000.059;68;000.398;MIDI 01
216.850;000.028;71;000.414;MIDI 01
216.832;000.049;52;000.406;MIDI 01
216.952;000.061;56;000.414;MIDI 01
216.927;000.095;68;000.523;MIDI 01
217.072;000.083;80;000.453;MIDI 01
217.062;000.104;52;000.328;MIDI 01
217.206;000.041;71;000.312;MIDI 01
217.290;000.107;76;000.430;MIDI 01
217.219;000.180;47;000.328;MIDI 01
217.369;000.158;45;000.453;MIDI 01
217.491;000.099;80;000.422;MIDI 01
217.415;000.202;68;000.438;MIDI 01
217.562;000.082;49;000.414;MIDI 01
217.645;000.070;72;000.367;MIDI 01
217.722;000.062;54;000.195;MIDI 01
217.715;000.102;73;000.445;MIDI 01
217.765;000.059;57;000.430;MIDI 01
217.854;000.064;54;000.352;MIDI 01
217.802;000.146;66;000.484;MIDI 01
217.859;000.148;78;000.500;MIDI 01
217.971;000.073;49;000.367;MIDI 01
217.986;000.069;72;000.461;MIDI 01
218.012;000.109;73;000.500;MIDI 01
218.083;000.131;45;000.492;MIDI 01
218.106;000.156;65;000.586;MIDI 01
218.204;000.093;77;000.523;MIDI 01
218.220;000.140;49;000.414;MIDI 01
218.284;000.128;72;000.570;MIDI 01
218.367;000.058;54;000.398;MIDI 01
218.372;000.134;73;000.586;MIDI 01
218.445;000.074;57;000.461;MIDI 01
218.443;000.169;66;000.602;MIDI 01
218.546;000.079;54;000.500;MIDI 01
218.523;000.153;78;000.578;MIDI 01
218.620;000.105;72;000.492;MIDI 01
218.625;000.123;49;000.477;MIDI 01
218.670;000.122;73;000.531;MIDI 01
218.772;000.150;47;000.492;MIDI 01
218.768;000.178;65;000.578;MIDI 01
218.878;000.103;77;000.570;MIDI 01
218.927;000.102;51;000.430;MIDI 01
218.980;000.109;71;000.523;MIDI 01
219.050;000.046;57;000.438;MIDI 01
219.089;000.062;75;000.523;MIDI 01
219.132;000.081;59;000.461;MIDI 01
219.223;000.081;57;000.445;MIDI 01
219.153;000.190;66;000.594;MIDI 01
219.342;000.041;51;000.453;MIDI 01
219.420;000.069;71;000.398;MIDI 01
219.296;000.201;78;000.508;MIDI 01
219.523;000.102;75;000.477;MIDI 01
219.606;000.141;40;000.500;MIDI 01
219.625;000.179;69;000.555;MIDI 01
219.781;000.065;81;000.484;MIDI 01
219.810;000.112;47;000.391;MIDI 01
219.957;000.060;71;000.367;MIDI 01
219.945;000.080;52;000.391;MIDI 01
220.094;000.053;76;000.336;MIDI 01
220.092;000.099;56;000.398;MIDI 01
220.154;000.075;68;000.438;MIDI 01
220.214;000.092;52;000.352;MIDI 01
220.238;000.089;80;000.461;MIDI 01
220.378;000.047;71;000.352;MIDI 01
220.373;000.070;47;000.344;MIDI 01
220.479;000.046;76;000.289;MIDI 01
220.536;000.162;45;000.430;MIDI 01
220.554;000.157;68;000.453;MIDI 01
220.649;000.113;80;000.562;MIDI 01
220.736;000.104;49;000.383;MIDI 01
220.801;000.093;72;000.406;MIDI 01
220.898;000.080;73;000.438;MIDI 01
220.958;000.060;57;000.383;MIDI 01
221.003;000.089;66;000.438;MIDI 01
221.046;000.067;54;000.328;MIDI 01
221.058;000.141;78;000.562;MIDI 01
221.191;000.068;72;000.453;MIDI 01
221.188;000.074;49;000.305;MIDI 01
221.242;000.085;73;000.484;MIDI 01
221.334;000.074;65;000.531;MIDI 01
221.306;000.112;45;000.477;MIDI 01
221.363;000.103;77;000.547;MIDI 01
221.431;000.140;49;000.406;MIDI 01
221.466;000.124;72;000.531;MIDI 01
221.542;000.114;73;000.500;MIDI 01
221.618;000.054;54;000.156;MIDI 01
221.625;000.084;66;000.516;MIDI 01
221.637;000.082;57;000.469;MIDI 01
221.743;000.082;54;000.375;MIDI 01
221.684;000.169;78;000.594;MIDI 01
221.804;000.068;72;000.352;MIDI 01
221.851;000.087;73;000.531;MIDI 01
221.850;000.101;49;000.398;MIDI 01
221.978;000.109;61;000.570;MIDI 01
221.976;000.128;47;000.492;MIDI 01
222.061;000.120;73;000.578;MIDI 01
222.172;000.080;54;000.367;MIDI 01
222.243;000.074;66;000.422;MIDI 01
222.287;000.037;57;000.352;MIDI 01
222.223;000.195;69;000.461;MIDI 01
222.377;000.054;59;000.453;MIDI 01
222.332;000.116;63;000.531;MIDI 01
222.457;000.098;57;000.453;MIDI 01
222.575;000.035;54;000.469;MIDI 01
222.415;000.206;75;000.586;MIDI 01
222.555;000.124;66;000.508;MIDI 01
222.610;000.094;69;000.453;MIDI 01
222.723;000.082;64;000.562;MIDI 01
222.793;000.114;40;000.477;MIDI 01
222.826;000.131;76;000.586;MIDI 01
222.957;000.064;68;000.430;MIDI 01
222.938;000.095;47;000.438;MIDI 01
223.037;000.057;71;000.477;MIDI 01
223.095;000.060;52;000.242;MIDI 01
223.135;000.073;68;000.594;MIDI 01
223.203;000.052;56;000.406;MIDI 01
223.238;000.093;80;000.594;MIDI 01
223.341;000.068;71;000.438;MIDI 01
223.304;000.106;52;000.406;MIDI 01
223.463;000.089;47;000.383;MIDI 01
223.439;000.121;76;000.539;MIDI 01
223.544;000.130;68;000.555;MIDI 01
223.574;000.137;45;000.484;MIDI 01
223.604;000.125;80;000.617;MIDI 01
223.729;000.110;49;000.477;MIDI 01
223.720;000.153;72;000.523;MIDI 01
223.852;000.046;54;000.352;MIDI 01
223.840;000.084;73;000.477;MIDI 01
223.918;000.083;57;000.492;MIDI 01
223.896;000.127;66;000.570;MIDI 01
224.016;000.139;54;000.508;MIDI 01
224.075;000.109;72;000.492;MIDI 01
224.167;000.052;73;000.547;MIDI 01
223.973;000.277;78;000.617;MIDI 01
224.165;000.303;49;000.438;MIDI 01
224.485;000.200;87;000.594;MIDI 01
224.434;000.257;45;000.398;MIDI 01
224.358;000.392;75;000.539;MIDI 01
224.750;000.044;78;000.359;MIDI 01
224.726;000.127;51;000.344;MIDI 01
224.851;000.075;81;000.391;MIDI 01
225.014;000.054;57;000.219;MIDI 01
224.973;000.133;73;000.422;MIDI 01
225.049;000.131;85;000.469;MIDI 01
225.080;000.134;54;000.125;MIDI 01
225.151;000.066;78;000.445;MIDI 01
225.235;000.068;51;000.352;MIDI 01
225.238;000.110;81;000.430;MIDI 01
225.323;000.100;73;000.430;MIDI 01
225.381;000.117;44;000.445;MIDI 01
225.407;000.150;85;000.539;MIDI 01
225.518;000.086;51;000.336;MIDI 01
225.573;000.053;75;000.445;MIDI 01
225.653;000.050;78;000.430;MIDI 01
225.664;000.047;54;000.305;MIDI 01
225.719;000.070;72;000.461;MIDI 01
225.761;000.041;60;000.422;MIDI 01
225.784;000.086;84;000.570;MIDI 01
225.845;000.082;54;000.398;MIDI 01
225.919;000.051;75;000.477;MIDI 01
225.974;000.052;78;000.453;MIDI 01
225.998;000.044;51;000.320;MIDI 01
226.035;000.081;72;000.492;MIDI 01
226.076;000.102;44;000.484;MIDI 01
226.111;000.111;84;000.602;MIDI 01
226.228;000.058;75;000.477;MIDI 01
226.190;000.099;51;000.383;MIDI 01
226.286;000.074;78;000.461;MIDI 01
226.330;000.047;54;000.383;MIDI 01
226.368;000.096;72;000.500;MIDI 01
226.427;000.049;60;000.445;MIDI 01
226.457;000.109;84;000.562;MIDI 01
226.510;000.106;54;000.422;MIDI 01
226.567;000.052;75;000.469;MIDI 01
226.632;000.070;78;000.414;MIDI 01
226.637;000.069;51;000.414;MIDI 01
226.702;000.101;72;000.461;MIDI 01
226.761;000.101;45;000.445;MIDI 01
226.786;000.094;84;000.523;MIDI 01
226.918;000.046;75;000.383;MIDI 01
226.927;000.053;51;000.320;MIDI 01
226.975;000.055;78;000.367;MIDI 01
227.008;000.053;54;000.312;MIDI 01
227.088;000.053;71;000.367;MIDI 01
227.114;000.035;59;000.328;MIDI 01
227.162;000.062;83;000.266;MIDI 01
227.205;000.076;54;000.359;MIDI 01
227.274;000.037;75;000.242;MIDI 01
227.314;000.053;78;000.398;MIDI 01
227.326;000.043;51;000.336;MIDI 01
227.408;000.041;71;000.438;MIDI 01
227.417;000.088;46;000.414;MIDI 01
227.494;000.091;83;000.469;MIDI 01
227.508;000.095;51;000.375;MIDI 01
227.599;000.051;75;000.492;MIDI 01
227.644;000.039;54;000.320;MIDI 01
227.635;000.095;78;000.352;MIDI 01
227.725;000.054;58;000.398;MIDI 01
227.812;000.090;54;000.453;MIDI 01
227.830;000.075;82;000.477;MIDI 01
227.933;000.035;75;000.344;MIDI 01
227.931;000.091;51;000.367;MIDI 01
227.995;000.062;70;000.500;MIDI 01
228.061;000.104;48;000.398;MIDI 01
228.107;000.103;82;000.477;MIDI 01
228.221;000.039;75;000.281;MIDI 01
228.215;000.083;51;000.352;MIDI 01
228.251;000.077;78;000.422;MIDI 01
228.361;000.080;54;000.289;MIDI 01
228.390;000.054;57;000.336;MIDI 01
228.369;000.083;69;000.484;MIDI 01
228.467;000.075;54;000.297;MIDI 01
228.456;000.100;81;000.508;MIDI 01
228.574;000.044;75;000.320;MIDI 01
228.600;000.060;51;000.320;MIDI 01
228.618;000.062;78;000.422;MIDI 01
228.700;000.092;69;000.477;MIDI 01
228.786;000.104;81;000.484;MIDI 01
228.821;000.079;51;000.367;MIDI 01
228.906;000.046;75;000.359;MIDI 01
228.936;000.054;54;000.352;MIDI 01
228.943;000.096;78;000.445;MIDI 01
228.698;000.390;48;000.406;MIDI 01
229.053;000.043;57;000.336;MIDI 01
229.059;000.060;69;000.438;MIDI 01
229.107;000.139;81;000.484;MIDI 01
229.134;000.116;54;000.406;MIDI 01
229.259;000.048;75;000.273;MIDI 01
229.290;000.086;51;000.367;MIDI 01
229.323;000.106;78;000.391;MIDI 01
229.461;000.126;45;000.430;MIDI 01
229.631;000.045;84;000.297;MIDI 01
229.649;000.060;51;000.281;MIDI 01
229.478;000.262;72;000.461;MIDI 01
229.778;000.049;54;000.219;MIDI 01
229.839;000.045;78;000.320;MIDI 01
229.848;000.054;59;000.375;MIDI 01
229.907;000.066;71;000.445;MIDI 01
229.986;000.044;54;000.266;MIDI 01
230.031;000.093;83;000.453;MIDI 01
230.099;000.048;51;000.281;MIDI 01
230.095;000.088;75;000.289;MIDI 01
230.196;000.048;78;000.305;MIDI 01
230.218;000.139;46;000.375;MIDI 01
230.272;000.110;71;000.336;MIDI 01
230.341;000.059;83;000.336;MIDI 01
230.347;000.090;51;000.195;MIDI 01
230.472;000.058;75;000.352;MIDI 01
230.474;000.103;78;000.211;MIDI 01
230.581;000.061;58;000.273;MIDI 01
230.599;000.058;70;000.438;MIDI 01
230.691;000.066;54;000.141;MIDI 01
230.727;000.059;82;000.391;MIDI 01
230.791;000.080;51;000.312;MIDI 01
230.897;000.042;78;000.266;MIDI 01
230.953;000.107;70;000.414;MIDI 01
230.939;000.196;47;000.375;MIDI 01
231.044;000.139;82;000.375;MIDI 01
231.079;000.171;51;000.242;MIDI 01
231.235;000.058;78;000.383;MIDI 01
231.334;000.064;57;000.320;MIDI 01
231.340;000.096;69;000.453;MIDI 01
231.475;000.066;81;000.352;MIDI 01
231.441;000.110;54;000.141;MIDI 01
231.534;000.103;75;000.266;MIDI 01
231.593;000.080;51;000.320;MIDI 01
231.623;000.080;78;000.367;MIDI 01
231.718;000.163;48;000.352;MIDI 01
231.724;000.183;69;000.414;MIDI 01
231.840;000.149;81;000.367;MIDI 01
231.988;000.064;75;000.336;MIDI 01
231.932;000.191;51;000.297;MIDI 01
232.107;000.107;78;000.383;MIDI 01
232.156;000.060;54;000.242;MIDI 01
232.292;000.136;68;000.414;MIDI 01
232.310;000.157;56;000.312;MIDI 01
232.458;000.207;80;000.367;MIDI 01
232.504;000.223;54;000.258;MIDI 01
232.713;000.135;75;000.250;MIDI 01
232.885;000.036;78;000.234;MIDI 01
232.781;000.317;51;000.242;MIDI 01
233.159;000.232;49;000.242;MIDI 01
233.376;000.051;68;000.234;MIDI 01
233.433;000.081;56;000.305;MIDI 01
233.470;000.051;69;000.328;MIDI 01
233.550;000.054;68;000.375;MIDI 01
233.595;000.043;61;000.281;MIDI 01
233.654;000.061;67;000.406;MIDI 01
233.750;000.034;68;000.297;MIDI 01
233.783;000.069;61;000.336;MIDI 01
233.814;000.074;73;000.391;MIDI 01
233.864;000.091;56;000.375;MIDI 01
233.919;000.086;76;000.461;MIDI 01
234.042;000.061;75;000.445;MIDI 01
233.686;000.454;64;000.352;MIDI 01
233.996;000.151;52;000.344;MIDI 01
234.152;000.035;73;000.414;MIDI 01
234.147;000.103;56;000.383;MIDI 01
234.243;000.054;75;000.398;MIDI 01
234.277;000.041;61;000.344;MIDI 01
234.297;000.056;73;000.484;MIDI 01
234.344;000.055;64;000.383;MIDI 01
234.397;000.055;72;000.445;MIDI 01
234.443;000.047;61;000.445;MIDI 01
234.476;000.069;73;000.406;MIDI 01
234.568;000.055;76;000.391;MIDI 01
234.574;000.054;56;000.320;MIDI 01
234.641;000.041;80;000.469;MIDI 01
234.694;000.106;49;000.406;MIDI 01
234.810;000.110;56;000.328;MIDI 01
234.879;000.044;68;000.383;MIDI 01
234.948;000.047;61;000.367;MIDI 01
234.956;000.055;69;000.438;MIDI 01
235.045;000.042;68;000.414;MIDI 01
235.108;000.055;67;000.422;MIDI 01
235.047;000.147;64;000.414;MIDI 01
235.210;000.024;68;000.414;MIDI 01
235.143;000.104;61;000.375;MIDI 01
235.257;000.068;73;000.445;MIDI 01
235.261;000.073;56;000.344;MIDI 01
235.361;000.068;76;000.438;MIDI 01
235.375;000.131;52;000.352;MIDI 01
235.453;000.071;75;000.477;MIDI 01
235.496;000.114;56;000.422;MIDI 01
235.569;000.045;73;000.453;MIDI 01
235.614;000.062;61;000.438;MIDI 01
235.641;000.120;75;000.422;MIDI 01
235.724;000.060;64;000.422;MIDI 01
235.796;000.048;72;000.500;MIDI 01
235.824;000.050;61;000.438;MIDI 01
235.860;000.160;73;000.227;MIDI 01
235.943;000.081;56;000.359;MIDI 01
236.002;000.049;76;000.305;MIDI 01
236.066;000.147;80;000.492;MIDI 01
236.068;000.159;51;000.430;MIDI 01
236.214;000.098;57;000.422;MIDI 01
236.248;000.081;69;000.500;MIDI 01
236.329;000.073;61;000.453;MIDI 01
236.346;000.069;73;000.500;MIDI 01
236.425;000.036;75;000.430;MIDI 01
236.480;000.043;78;000.508;MIDI 01
236.461;000.074;66;000.367;MIDI 01
236.564;000.068;61;000.406;MIDI 01
236.599;000.057;81;000.523;MIDI 01
236.710;000.058;85;000.492;MIDI 01
236.818;000.055;87;000.500;MIDI 01
236.668;000.207;57;000.312;MIDI 01
236.889;000.170;54;000.352;MIDI 01
236.941;000.141;95;000.508;MIDI 01
237.090;000.088;93;000.484;MIDI 01
237.120;000.064;61;000.344;MIDI 01
237.256;000.040;63;000.297;MIDI 01
237.196;000.102;92;000.500;MIDI 01
237.319;000.020;90;000.453;MIDI 01
237.355;000.058;69;000.398;MIDI 01
237.363;000.072;88;000.508;MIDI 01
237.429;000.098;63;000.430;MIDI 01
237.472;000.061;87;000.516;MIDI 01
237.521;000.026;61;000.516;MIDI 01
237.541;000.117;90;000.516;MIDI 01
237.652;000.069;85;000.484;MIDI 01
237.753;000.040;84;000.469;MIDI 01
237.739;000.118;44;000.438;MIDI 01
237.818;000.078;87;000.516;MIDI 01
237.914;000.053;81;000.516;MIDI 01
237.893;000.108;51;000.312;MIDI 01
238.001;000.052;54;000.375;MIDI 01
238.028;000.051;80;000.445;MIDI 01
238.102;000.051;60;000.359;MIDI 01
238.099;000.072;78;000.500;MIDI 01
238.178;000.045;81;000.453;MIDI 01
238.193;000.102;54;000.391;MIDI 01
238.270;000.051;76;000.484;MIDI 01
238.321;000.077;51;000.383;MIDI 01
238.353;000.060;75;000.477;MIDI 01
238.439;000.090;78;000.516;MIDI 01
238.457;000.104;44;000.492;MIDI 01
238.532;000.076;73;000.484;MIDI 01
238.636;000.045;72;000.461;MIDI 01
238.559;000.124;51;000.391;MIDI 01
238.698;000.050;54;000.383;MIDI 01
238.700;000.075;75;000.477;MIDI 01
238.812;000.049;69;000.469;MIDI 01
238.815;000.049;60;000.391;MIDI 01
238.915;000.053;68;000.438;MIDI 01
238.920;000.094;54;000.297;MIDI 01
238.997;000.119;71;000.469;MIDI 01
239.080;000.090;51;000.328;MIDI 01
239.147;000.124;69;000.391;MIDI 01
239.229;000.116;49;000.422;MIDI 01
239.308;000.054;68;000.312;MIDI 01
239.402;000.057;56;000.359;MIDI 01
239.447;000.025;69;000.328;MIDI 01
239.482;000.048;68;000.508;MIDI 01
239.525;000.042;61;000.352;MIDI 01
239.572;000.053;67;000.500;MIDI 01
239.581;000.067;64;000.414;MIDI 01
239.669;000.024;68;000.352;MIDI 01
239.675;000.070;61;000.508;MIDI 01
239.698;000.086;73;000.484;MIDI 01
239.770;000.082;56;000.398;MIDI 01
239.810;000.067;76;000.477;MIDI 01
239.899;000.078;75;000.555;MIDI 01
239.875;000.104;52;000.461;MIDI 01
240.031;000.027;73;000.391;MIDI 01
239.998;000.130;56;000.461;MIDI 01
240.070;000.105;75;000.492;MIDI 01
240.140;000.062;61;000.398;MIDI 01
240.158;000.071;73;000.578;MIDI 01
240.229;000.106;64;000.438;MIDI 01
240.249;000.089;72;000.523;MIDI 01
240.358;000.041;73;000.508;MIDI 01
240.343;000.109;61;000.422;MIDI 01
240.414;000.081;76;000.445;MIDI 01
240.452;000.100;56;000.391;MIDI 01
240.496;000.091;80;000.539;MIDI 01
240.615;000.084;76;000.477;MIDI 01
240.574;000.128;54;000.484;MIDI 01
240.708;000.058;75;000.547;MIDI 01
240.719;000.108;61;000.453;MIDI 01
240.795;000.097;76;000.500;MIDI 01
240.820;000.101;63;000.461;MIDI 01
240.889;000.048;75;000.562;MIDI 01
240.941;000.079;69;000.469;MIDI 01
240.958;000.085;74;000.594;MIDI 01
241.051;000.062;75;000.570;MIDI 01
241.064;000.101;63;000.445;MIDI 01
241.121;000.098;78;000.469;MIDI 01
241.204;000.048;61;000.297;MIDI 01
241.223;000.069;81;000.547;MIDI 01
241.296;000.089;78;000.539;MIDI 01
241.291;000.112;56;000.508;MIDI 01
241.416;000.049;77;000.508;MIDI 01
241.396;000.139;61;000.461;MIDI 01
241.479;000.094;78;000.539;MIDI 01
241.572;000.058;77;000.555;MIDI 01
241.548;000.092;65;000.469;MIDI 01
241.650;000.073;76;000.531;MIDI 01
241.672;000.068;71;000.461;MIDI 01
241.760;000.035;77;000.289;MIDI 01
241.784;000.085;80;000.547;MIDI 01
241.790;000.113;65;000.430;MIDI 01
241.883;000.033;85;000.555;MIDI 01
241.931;000.069;61;000.320;MIDI 01
242.016;000.117;57;000.453;MIDI 01
242.151;000.094;73;000.445;MIDI 01
242.149;000.115;61;000.445;MIDI 01
242.252;000.053;74;000.523;MIDI 01
242.268;000.075;66;000.414;MIDI 01
242.335;000.043;73;000.453;MIDI 01
242.368;000.077;69;000.430;MIDI 01
242.408;000.069;72;000.516;MIDI 01
242.493;000.035;73;000.492;MIDI 01
242.491;000.057;66;000.453;MIDI 01
242.554;000.092;78;000.477;MIDI 01
242.593;000.067;61;000.352;MIDI 01
242.666;000.057;81;000.477;MIDI 01
242.707;000.099;56;000.492;MIDI 01
242.732;000.078;78;000.531;MIDI 01
242.830;000.054;77;000.500;MIDI 01
242.806;000.143;61;000.469;MIDI 01
242.894;000.133;78;000.516;MIDI 01
242.955;000.096;65;000.445;MIDI 01
243.015;000.085;77;000.477;MIDI 01
243.089;000.069;71;000.406;MIDI 01
243.106;000.058;76;000.484;MIDI 01
243.207;000.022;77;000.352;MIDI 01
243.205;000.099;65;000.391;MIDI 01
243.265;000.084;80;000.477;MIDI 01
243.322;000.065;61;000.367;MIDI 01
243.367;000.102;85;000.516;MIDI 01
243.404;000.121;57;000.484;MIDI 01
243.469;000.066;80;000.516;MIDI 01
243.559;000.059;78;000.539;MIDI 01
243.528;000.105;61;000.484;MIDI 01
243.633;000.091;66;000.500;MIDI 01
243.644;000.101;80;000.508;MIDI 01
243.769;000.039;78;000.320;MIDI 01
243.743;000.107;69;000.523;MIDI 01
243.795;000.088;77;000.570;MIDI 01
243.876;000.074;66;000.508;MIDI 01
243.934;000.042;61;000.516;MIDI 01
243.892;000.093;78;000.586;MIDI 01
244.000;000.081;81;000.516;MIDI 01
244.093;000.103;85;000.531;MIDI 01
244.148;000.087;48;000.461;MIDI 01
244.214;000.095;81;000.484;MIDI 01
244.317;000.061;80;000.555;MIDI 01
244.293;000.096;54;000.406;MIDI 01
244.398;000.067;56;000.422;MIDI 01
244.400;000.079;81;000.406;MIDI 01
244.488;000.049;80;000.484;MIDI 01
244.517;000.082;63;000.477;MIDI 01
244.537;000.071;79;000.516;MIDI 01
244.621;000.052;80;000.523;MIDI 01
244.608;000.106;56;000.414;MIDI 01
244.685;000.100;84;000.484;MIDI 01
244.716;000.102;54;000.453;MIDI 01
244.774;000.077;87;000.586;MIDI 01
244.868;000.085;80;000.648;MIDI 01
244.839;000.133;49;000.609;MIDI 01
244.978;000.097;81;000.570;MIDI 01
244.994;000.119;56;000.531;MIDI 01
245.086;000.062;80;000.617;MIDI 01
245.122;000.071;61;000.508;MIDI 01
245.173;000.078;79;000.578;MIDI 01
245.217;000.094;64;000.531;MIDI 01
245.256;000.077;80;000.641;MIDI 01
245.329;000.142;61;000.547;MIDI 01
245.333;000.141;88;000.680;MIDI 01
245.477;000.093;56;000.461;MIDI 01
245.456;000.123;87;000.617;MIDI 01
245.550;000.128;86;000.594;MIDI 01
245.610;000.120;51;000.625;MIDI 01
245.640;000.098;85;000.641;MIDI 01
245.744;000.066;84;000.570;MIDI 01
245.738;000.094;56;000.484;MIDI 01
245.829;000.099;60;000.508;MIDI 01
245.838;000.099;83;000.555;MIDI 01
245.942;000.028;82;000.555;MIDI 01
245.954;000.057;66;000.438;MIDI 01
245.991;000.062;81;000.547;MIDI 01
246.053;000.078;60;000.461;MIDI 01
246.093;000.090;80;000.578;MIDI 01
246.181;000.070;79;000.539;MIDI 01
246.146;000.120;56;000.453;MIDI 01
246.251;000.069;78;000.594;MIDI 01
246.286;000.126;52;000.555;MIDI 01
246.338;000.094;76;000.586;MIDI 01
246.418;000.115;56;000.516;MIDI 01
246.432;000.136;78;000.562;MIDI 01
246.531;000.084;76;000.492;MIDI 01
246.516;000.103;61;000.508;MIDI 01
246.598;000.080;75;000.633;MIDI 01
246.632;000.105;64;000.516;MIDI 01
246.689;000.054;76;000.594;MIDI 01
246.794;000.106;88;000.688;MIDI 01
246.764;000.139;61;000.539;MIDI 01
246.900;000.109;87;000.602;MIDI 01
246.906;000.115;56;000.484;MIDI 01
246.988;000.136;86;000.617;MIDI 01
247.107;000.071;85;000.609;MIDI 01
247.045;000.150;54;000.594;MIDI 01
247.190;000.048;84;000.570;MIDI 01
247.195;000.105;61;000.539;MIDI 01
247.272;000.109;83;000.555;MIDI 01
247.279;000.115;63;000.555;MIDI 01
247.381;000.029;82;000.602;MIDI 01
247.402;000.085;69;000.492;MIDI 01
247.427;000.066;81;000.570;MIDI 01
247.488;000.054;63;000.461;MIDI 01
247.527;000.084;61;000.539;MIDI 01
247.524;000.095;80;000.594;MIDI 01
247.616;000.065;79;000.555;MIDI 01
247.680;000.058;78;000.656;MIDI 01
247.776;000.103;80;000.734;MIDI 01
247.780;000.636;56;000.594;MIDI 01
247.787;000.631;64;000.523;MIDI 01
247.782;000.638;61;000.570;MIDI 01
247.778;000.644;68;000.664;MIDI 01
248.242;000.204;92;000.734;MIDI 01
248.422;000.123;91;000.602;MIDI 01
248.526;000.079;90;000.648;MIDI 01
248.619;000.037;89;000.547;MIDI 01
248.713;000.108;88;000.578;MIDI 01
248.798;000.091;87;000.664;MIDI 01
248.896;000.091;86;000.633;MIDI 01
248.991;000.120;85;000.625;MIDI 01
249.086;000.069;84;000.617;MIDI 01
249.176;000.083;83;000.547;MIDI 01
249.265;000.104;82;000.578;MIDI 01
249.346;000.095;81;000.578;MIDI 01
249.438;000.062;80;000.617;MIDI 01
249.514;000.073;79;000.562;MIDI 01
248.889;000.718;69;000.680;MIDI 01
248.894;000.772;64;000.656;MIDI 01
248.872;000.827;61;000.445;MIDI 01
249.585;000.124;78;000.578;MIDI 01
249.693;000.036;77;000.578;MIDI 01
248.892;000.871;55;000.633;MIDI 01
249.767;000.100;76;000.609;MIDI 01
249.865;000.114;75;000.562;MIDI 01
249.939;000.103;74;000.586;MIDI 01
250.021;000.074;73;000.625;MIDI 01
250.104;000.069;72;000.570;MIDI 01
250.194;000.099;71;000.586;MIDI 01
250.293;000.036;70;000.594;MIDI 01
250.366;000.078;69;000.602;MIDI 01
250.451;000.158;68;000.586;MIDI 01
250.539;000.130;67;000.609;MIDI 01
250.641;000.095;66;000.648;MIDI 01
250.746;000.114;64;000.609;MIDI 01
250.867;000.139;63;000.625;MIDI 01
250.971;000.149;61;000.648;MIDI 01
251.153;000.089;56;000.703;MIDI 01
251.166;000.080;44;000.719;MIDI 01
251.164;000.092;32;000.680;MIDI 01
251.845;000.038;74;000.336;MIDI 01
251.796;000.157;93;000.703;MIDI 01
251.802;000.221;76;000.703;MIDI 01
251.799;000.264;64;000.641;MIDI 01
251.963;000.120;92;000.656;MIDI 01
252.100;000.073;100;000.680;MIDI 01
252.217;000.082;88;000.586;MIDI 01
252.300;000.073;73;000.688;MIDI 01
252.314;000.102;90;000.602;MIDI 01
252.306;000.111;61;000.703;MIDI 01
252.434;000.109;88;000.609;MIDI 01
252.524;000.085;97;000.625;MIDI 01
252.643;000.066;85;000.586;MIDI 01
252.706;000.067;68;000.648;MIDI 01
252.721;000.093;56;000.633;MIDI 01
252.739;000.096;87;000.617;MIDI 01
252.838;000.099;85;000.625;MIDI 01
252.908;000.076;92;000.594;MIDI 01
252.983;000.048;80;000.594;MIDI 01
253.082;000.041;64;000.672;MIDI 01
253.086;000.064;52;000.672;MIDI 01
253.101;000.076;81;000.562;MIDI 01
253.186;000.070;80;000.648;MIDI 01
253.273;000.067;88;000.641;MIDI 01
253.359;000.088;76;000.609;MIDI 01
253.439;000.048;61;000.672;MIDI 01
253.451;000.070;49;000.641;MIDI 01
253.464;000.088;78;000.617;MIDI 01
253.556;000.115;76;000.609;MIDI 01
253.649;000.061;85;000.602;MIDI 01
253.740;000.041;73;000.617;MIDI 01
253.817;000.033;56;000.641;MIDI 01
253.819;000.065;44;000.664;MIDI 01
253.835;000.084;75;000.594;MIDI 01
253.931;000.097;73;000.586;MIDI 01
253.998;000.057;80;000.539;MIDI 01
254.085;000.031;68;000.562;MIDI 01
254.170;000.028;52;000.633;MIDI 01
254.172;000.050;40;000.672;MIDI 01
254.195;000.070;69;000.547;MIDI 01
254.276;000.084;68;000.227;MIDI 01
254.348;000.065;76;000.617;MIDI 01
254.495;000.048;49;000.625;MIDI 01
254.463;000.087;64;000.586;MIDI 01
254.501;000.084;37;000.609;MIDI 01
254.543;000.105;66;000.602;MIDI 01
254.652;000.148;64;000.562;MIDI 01
254.759;000.078;73;000.484;MIDI 01
254.853;000.129;61;000.594;MIDI 01
254.991;000.123;63;000.492;MIDI 01
254.945;000.217;44;000.531;MIDI 01
254.943;000.269;32;000.516;MIDI 01
255.118;000.102;61;000.555;MIDI 01
255.232;000.083;68;000.586;MIDI 01
255.325;000.092;56;000.578;MIDI 01
255.408;000.113;63;000.570;MIDI 01
255.384;000.190;44;000.547;MIDI 01
255.506;000.108;61;000.578;MIDI 01
255.387;000.239;32;000.547;MIDI 01
255.591;000.114;68;000.570;MIDI 01
255.675;000.080;56;000.578;MIDI 01
255.759;000.085;63;000.531;MIDI 01
255.851;000.096;61;000.562;MIDI 01
255.778;000.186;45;000.617;MIDI 01
255.951;000.070;69;000.586;MIDI 01
256.054;000.074;57;000.586;MIDI 01
255.783;000.358;33;000.609;MIDI 01
256.141;000.122;63;000.609;MIDI 01
256.155;000.189;44;000.602;MIDI 01
256.267;000.107;61;000.602;MIDI 01
256.157;000.270;32;000.547;MIDI 01
256.363;000.095;68;000.555;MIDI 01
256.447;000.100;56;000.609;MIDI 01
256.551;000.119;63;000.547;MIDI 01
256.564;000.159;43;000.602;MIDI 01
256.558;000.197;31;000.625;MIDI 01
256.653;000.132;61;000.562;MIDI 01
256.779;000.083;67;000.570;MIDI 01
256.871;000.134;55;000.539;MIDI 01
257.010;000.211;63;000.594;MIDI 01
257.015;000.337;44;000.641;MIDI 01
257.201;000.182;61;000.555;MIDI 01
257.017;000.411;32;000.609;MIDI 01
257.373;000.125;68;000.508;MIDI 01
257.506;000.136;56;000.531;MIDI 01
257.634;000.125;63;000.477;MIDI 01
257.777;000.101;60;000.469;MIDI 01
257.906;000.104;68;000.461;MIDI 01
258.058;000.094;56;000.445;MIDI 01
258.176;000.149;63;000.422;MIDI 01
258.199;000.171;37;000.375;MIDI 01
258.331;000.115;61;000.453;MIDI 01
258.450;000.067;68;000.484;MIDI 01
258.486;000.139;52;000.438;MIDI 01
258.661;000.045;68;000.312;MIDI 01
258.689;000.056;69;000.516;MIDI 01
258.796;000.062;68;000.484;MIDI 01
258.688;000.194;49;000.469;MIDI 01
258.886;000.078;76;000.609;MIDI 01
258.917;000.122;44;000.461;MIDI 01
259.028;000.074;64;000.477;MIDI 01
259.117;000.071;69;000.539;MIDI 01
259.127;000.110;37;000.477;MIDI 01
259.238;000.041;68;000.523;MIDI 01
259.324;000.071;76;000.648;MIDI 01
259.357;000.123;54;000.383;MIDI 01
259.462;000.038;64;000.422;MIDI 01
259.535;000.076;69;000.562;MIDI 01
259.660;000.054;68;000.547;MIDI 01
259.527;000.197;48;000.461;MIDI 01
259.755;000.070;44;000.453;MIDI 01
259.762;000.072;75;000.562;MIDI 01
259.883;000.064;63;000.477;MIDI 01
259.999;000.078;69;000.500;MIDI 01
259.989;000.106;37;000.547;MIDI 01
260.110;000.072;68;000.508;MIDI 01
260.205;000.066;75;000.602;MIDI 01
260.318;000.047;63;000.516;MIDI 01
260.225;000.142;52;000.508;MIDI 01
260.414;000.083;69;000.539;MIDI 01
260.419;000.118;49;000.469;MIDI 01
260.528;000.060;68;000.500;MIDI 01
260.611;000.064;44;000.406;MIDI 01
260.608;000.083;73;000.531;MIDI 01
260.738;000.044;61;000.445;MIDI 01
260.866;000.073;64;000.406;MIDI 01
260.854;000.101;37;000.461;MIDI 01
261.003;000.050;63;000.320;MIDI 01
261.095;000.068;68;000.430;MIDI 01
261.126;000.129;54;000.336;MIDI 01
261.211;000.054;56;000.242;MIDI 01
261.316;000.058;64;000.305;MIDI 01
261.298;000.130;48;000.336;MIDI 01
261.409;000.064;63;000.375;MIDI 01
261.486;000.055;44;000.352;MIDI 01
261.504;000.070;68;000.430;MIDI 01
261.644;000.047;56;000.312;MIDI 01
261.703;000.101;63;000.414;MIDI 01
261.705;000.126;37;000.445;MIDI 01
261.840;000.050;61;000.406;MIDI 01
261.905;000.052;68;000.492;MIDI 01
261.935;000.120;52;000.414;MIDI 01
262.014;000.053;56;000.180;MIDI 01
262.100;000.078;69;000.500;MIDI 01
262.083;000.183;49;000.477;MIDI 01
262.203;000.072;68;000.414;MIDI 01
262.294;000.077;76;000.633;MIDI 01
262.298;000.116;44;000.391;MIDI 01
262.428;000.062;64;000.469;MIDI 01
262.521;000.077;69;000.586;MIDI 01
262.534;000.096;37;000.508;MIDI 01
262.637;000.064;68;000.469;MIDI 01
262.726;000.067;76;000.641;MIDI 01
262.755;000.131;54;000.453;MIDI 01
262.850;000.057;64;000.461;MIDI 01
262.942;000.095;69;000.523;MIDI 01
262.918;000.182;48;000.461;MIDI 01
263.072;000.052;68;000.523;MIDI 01
263.130;000.072;44;000.484;MIDI 01
263.154;000.075;75;000.609;MIDI 01
263.276;000.070;63;000.484;MIDI 01
263.389;000.071;69;000.492;MIDI 01
263.363;000.130;37;000.523;MIDI 01
263.497;000.068;68;000.500;MIDI 01
263.575;000.071;75;000.617;MIDI 01
263.580;000.160;52;000.500;MIDI 01
263.686;000.060;63;000.531;MIDI 01
263.797;000.105;69;000.516;MIDI 01
263.785;000.134;49;000.453;MIDI 01
263.920;000.078;68;000.531;MIDI 01
263.964;000.087;44;000.398;MIDI 01
263.997;000.094;73;000.586;MIDI 01
264.152;000.051;61;000.438;MIDI 01
264.262;000.074;64;000.414;MIDI 01
264.241;000.108;37;000.375;MIDI 01
264.393;000.048;63;000.406;MIDI 01
264.488;000.072;68;000.438;MIDI 01
264.592;000.052;56;000.305;MIDI 01
264.514;000.185;54;000.312;MIDI 01
264.689;000.074;64;000.359;MIDI 01
264.708;000.121;48;000.383;MIDI 01
264.793;000.070;63;000.406;MIDI 01
264.884;000.056;44;000.414;MIDI 01
264.886;000.094;68;000.508;MIDI 01
265.031;000.043;56;000.320;MIDI 01
265.097;000.086;37;000.492;MIDI 01
265.089;000.112;63;000.430;MIDI 01
265.226;000.057;61;000.406;MIDI 01
265.280;000.051;68;000.516;MIDI 01
265.405;000.052;56;000.188;MIDI 01
265.317;000.146;52;000.477;MIDI 01
265.484;000.083;69;000.531;MIDI 01
265.503;000.154;49;000.477;MIDI 01
265.600;000.059;68;000.469;MIDI 01
265.671;000.084;76;000.602;MIDI 01
265.709;000.098;44;000.422;MIDI 01
265.805;000.048;64;000.562;MIDI 01
265.911;000.085;66;000.539;MIDI 01
265.916;000.083;37;000.492;MIDI 01
266.028;000.121;64;000.508;MIDI 01
266.131;000.101;73;000.578;MIDI 01
266.129;000.108;56;000.500;MIDI 01
266.246;000.049;61;000.539;MIDI 01
266.343;000.066;69;000.523;MIDI 01
266.320;000.147;49;000.453;MIDI 01
266.465;000.025;68;000.375;MIDI 01
266.498;000.048;44;000.469;MIDI 01
266.541;000.058;76;000.570;MIDI 01
266.661;000.026;64;000.453;MIDI 01
266.770;000.057;63;000.477;MIDI 01
266.753;000.116;37;000.430;MIDI 01
266.887;000.070;61;000.477;MIDI 01
266.973;000.057;68;000.578;MIDI 01
266.982;000.169;52;000.469;MIDI 01
267.104;000.051;56;000.289;MIDI 01
267.199;000.068;69;000.445;MIDI 01
267.189;000.136;49;000.461;MIDI 01
267.323;000.034;68;000.406;MIDI 01
267.391;000.067;76;000.641;MIDI 01
267.389;000.109;44;000.398;MIDI 01
267.525;000.039;64;000.516;MIDI 01
267.606;000.102;37;000.500;MIDI 01
267.616;000.115;66;000.523;MIDI 01
267.741;000.106;64;000.523;MIDI 01
267.843;000.117;73;000.547;MIDI 01
267.847;000.142;56;000.469;MIDI 01
267.979;000.049;61;000.523;MIDI 01
268.076;000.084;69;000.492;MIDI 01
268.193;000.038;68;000.461;MIDI 01
268.047;000.185;49;000.477;MIDI 01
268.252;000.050;44;000.469;MIDI 01
268.278;000.077;76;000.562;MIDI 01
268.423;000.059;64;000.492;MIDI 01
268.538;000.077;66;000.438;MIDI 01
268.500;000.144;37;000.484;MIDI 01
268.679;000.053;64;000.391;MIDI 01
268.771;000.083;73;000.453;MIDI 01
268.760;000.162;52;000.406;MIDI 01
268.880;000.056;61;000.453;MIDI 01
268.979;000.041;70;000.289;MIDI 01
269.048;000.046;69;000.352;MIDI 01
268.975;000.165;49;000.406;MIDI 01
269.134;000.061;68;000.320;MIDI 01
269.190;000.053;44;000.414;MIDI 01
269.216;000.061;73;000.453;MIDI 01
269.339;000.070;61;000.352;MIDI 01
269.430;000.069;66;000.359;MIDI 01
269.426;000.125;37;000.508;MIDI 01
269.562;000.065;64;000.383;MIDI 01
269.658;000.072;73;000.422;MIDI 01
269.766;000.072;61;000.422;MIDI 01
269.684;000.154;52;000.406;MIDI 01
269.892;000.119;49;000.391;MIDI 01
269.857;000.160;69;000.398;MIDI 01
269.995;000.078;68;000.391;MIDI 01
270.077;000.057;44;000.375;MIDI 01
270.107;000.071;73;000.422;MIDI 01
270.207;000.091;61;000.398;MIDI 01
270.342;000.067;66;000.305;MIDI 01
270.327;000.096;37;000.391;MIDI 01
270.451;000.091;64;000.359;MIDI 01
270.582;000.056;73;000.336;MIDI 01
270.552;000.156;52;000.344;MIDI 01
270.676;000.062;61;000.367;MIDI 01
270.786;000.150;69;000.336;MIDI 01
270.779;000.170;49;000.305;MIDI 01
270.938;000.065;68;000.297;MIDI 01
270.967;000.056;44;000.367;MIDI 01
271.021;000.075;73;000.367;MIDI 01
271.139;000.085;61;000.297;MIDI 01
271.246;000.060;37;000.359;MIDI 01
271.268;000.052;66;000.297;MIDI 01
271.381;000.077;64;000.320;MIDI 01
271.507;000.086;73;000.344;MIDI 01
271.613;000.096;61;000.297;MIDI 01
271.518;000.241;52;000.305;MIDI 01
271.747;000.128;69;000.336;MIDI 01
271.775;000.227;49;000.336;MIDI 01
271.913;000.157;68;000.367;MIDI 01
272.107;000.069;73;000.328;MIDI 01
272.030;000.397;44;000.258;MIDI 01
272.249;000.195;61;000.336;MIDI 01
272.496;000.159;63;000.297;MIDI 01
272.675;000.101;61;000.297;MIDI 01
272.841;000.061;68;000.273;MIDI 01
272.979;000.051;56;000.172;MIDI 01
272.499;000.626;37;000.258;MIDI 01
273.066;000.090;63;000.297;MIDI 01
273.200;000.062;61;000.352;MIDI 01
273.321;000.049;68;000.312;MIDI 01
273.431;000.072;56;000.297;MIDI 01
273.524;000.074;63;000.297;MIDI 01
273.653;000.083;61;000.352;MIDI 01
273.769;000.062;68;000.336;MIDI 01
273.877;000.096;56;000.281;MIDI 01
273.984;000.067;63;000.328;MIDI 01
274.091;000.090;61;000.391;MIDI 01
274.224;000.066;68;000.328;MIDI 01
274.307;000.079;56;000.312;MIDI 01
274.417;000.072;63;000.352;MIDI 01
274.546;000.051;61;000.320;MIDI 01
274.646;000.058;68;000.352;MIDI 01
274.755;000.062;56;000.234;MIDI 01
274.840;000.062;63;000.344;MIDI 01
274.960;000.065;61;000.359;MIDI 01
275.087;000.033;68;000.297;MIDI 01
275.168;000.068;56;000.320;MIDI 01
275.273;000.069;63;000.328;MIDI 01
275.402;000.062;61;000.367;MIDI 01
275.516;000.043;68;000.320;MIDI 01
275.615;000.078;56;000.359;MIDI 01
275.721;000.058;63;000.344;MIDI 01
275.866;000.047;61;000.273;MIDI 01
275.941;000.066;68;000.305;MIDI 01
276.074;000.122;56;000.312;MIDI 01
276.241;000.092;63;000.289;MIDI 01
276.438;000.057;61;000.180;MIDI 01
276.528;000.053;68;000.312;MIDI 01
276.684;000.051;56;000.164;MIDI 01
276.751;000.058;63;000.273;MIDI 01
276.856;000.060;61;000.344;MIDI 01
276.977;000.057;68;000.352;MIDI 01
277.070;000.085;56;000.305;MIDI 01
277.192;000.045;63;000.227;MIDI 01
277.281;000.069;61;000.359;MIDI 01
277.403;000.051;68;000.352;MIDI 01
276.230;001.337;37;000.273;MIDI 01
277.496;000.113;56;000.344;MIDI 01
277.623;000.059;63;000.273;MIDI 01
277.732;000.076;61;000.352;MIDI 01
277.864;000.046;68;000.219;MIDI 01
277.968;000.111;56;000.328;MIDI 01
278.105;000.080;63;000.258;MIDI 01
276.224;001.979;44;000.312;MIDI 01
278.248;000.082;61;000.320;MIDI 01
278.373;000.058;68;000.359;MIDI 01
278.505;000.082;56;000.312;MIDI 01
278.069;000.571;46;000.438;MIDI 01
278.635;000.067;63;000.336;MIDI 01
278.759;000.056;61;000.344;MIDI 01
278.847;000.075;68;000.344;MIDI 01
278.613;000.429;44;000.469;MIDI 01
278.960;000.091;56;000.344;MIDI 01
279.075;000.101;63;000.336;MIDI 01
279.203;000.097;61;000.430;MIDI 01
279.325;000.055;68;000.367;MIDI 01
279.392;000.113;56;000.414;MIDI 01
279.029;000.484;49;000.523;MIDI 01
279.509;000.127;63;000.453;MIDI 01
279.652;000.092;61;000.414;MIDI 01
279.758;000.055;68;000.398;MIDI 01
279.874;000.152;56;000.375;MIDI 01
279.450;000.641;51;000.523;MIDI 01
280.081;000.115;63;000.336;MIDI 01
280.235;000.092;61;000.352;MIDI 01
280.371;000.076;68;000.344;MIDI 01
280.494;000.071;56;000.297;MIDI 01
280.625;000.047;63;000.250;MIDI 01
280.727;000.073;61;000.336;MIDI 01
280.844;000.047;68;000.312;MIDI 01
280.955;000.073;56;000.250;MIDI 01
281.046;000.070;63;000.281;MIDI 01
281.186;000.051;61;000.281;MIDI 01
280.026;001.294;53;000.445;MIDI 01
281.288;000.053;68;000.328;MIDI 01
281.398;000.078;56;000.289;MIDI 01
281.521;000.059;63;000.250;MIDI 01
281.620;000.120;61;000.336;MIDI 01
281.766;000.052;68;000.266;MIDI 01
281.865;000.031;56;000.344;MIDI 01
282.030;000.152;56;000.469;MIDI 01
282.128;000.076;63;000.312;MIDI 01
282.277;000.059;61;000.312;MIDI 01
282.385;000.066;68;000.352;MIDI 01
282.523;000.069;56;000.297;MIDI 01
282.649;000.048;63;000.258;MIDI 01
282.759;000.054;61;000.305;MIDI 01
282.884;000.045;68;000.312;MIDI 01
282.985;000.053;56;000.305;MIDI 01
283.097;000.058;63;000.312;MIDI 01
283.216;000.053;61;000.336;MIDI 01
283.340;000.047;68;000.305;MIDI 01
283.445;000.075;56;000.352;MIDI 01
283.565;000.053;63;000.266;MIDI 01
283.671;000.064;61;000.352;MIDI 01
283.795;000.046;68;000.312;MIDI 01
283.910;000.124;56;000.312;MIDI 01
284.082;000.062;63;000.258;MIDI 01
284.212;000.062;61;000.312;MIDI 01
284.344;000.069;68;000.344;MIDI 01
284.472;000.068;56;000.250;MIDI 01
284.568;000.071;63;000.297;MIDI 01
284.700;000.070;61;000.328;MIDI 01
284.817;000.045;68;000.273;MIDI 01
284.910;000.147;56;000.273;MIDI 01
285.077;000.086;63;000.250;MIDI 01
284.054;001.133;54;000.445;MIDI 01
285.229;000.065;61;000.289;MIDI 01
285.348;000.066;68;000.359;MIDI 01
285.471;000.072;56;000.297;MIDI 01
285.577;000.066;63;000.305;MIDI 01
285.692;000.081;61;000.367;MIDI 01
285.814;000.046;68;000.328;MIDI 01
285.922;000.106;56;000.383;MIDI 01
285.094;001.032;53;000.438;MIDI 01
286.061;000.084;63;000.320;MIDI 01
286.203;000.089;61;000.336;MIDI 01
286.327;000.074;68;000.305;MIDI 01
286.448;000.091;56;000.352;MIDI 01
286.572;000.074;63;000.344;MIDI 01
286.690;000.069;61;000.367;MIDI 01
286.791;000.098;68;000.367;MIDI 01
286.932;000.140;56;000.312;MIDI 01
286.066;001.009;51;000.469;MIDI 01
287.078;000.149;63;000.312;MIDI 01
287.254;000.080;61;000.359;MIDI 01
287.384;000.082;68;000.383;MIDI 01
287.534;000.093;56;000.328;MIDI 01
287.067;000.647;53;000.414;MIDI 01
287.675;000.074;63;000.289;MIDI 01
287.810;000.105;61;000.336;MIDI 01
287.975;000.091;68;000.305;MIDI 01
288.137;000.225;56;000.359;MIDI 01
287.628;000.762;49;000.422;MIDI 01
288.408;000.169;63;000.344;MIDI 01
288.640;000.117;61;000.297;MIDI 01
288.775;000.045;68;000.352;MIDI 01
288.919;000.043;53;000.344;MIDI 01
289.100;000.044;63;000.266;MIDI 01
289.226;000.059;61;000.273;MIDI 01
289.307;000.056;68;000.359;MIDI 01
289.454;000.048;53;000.391;MIDI 01
289.593;000.090;63;000.328;MIDI 01
289.758;000.058;61;000.250;MIDI 01
289.863;000.034;68;000.312;MIDI 01
289.983;000.056;53;000.375;MIDI 01
290.117;000.124;63;000.359;MIDI 01
288.395;001.969;44;000.367;MIDI 01
290.283;000.105;61;000.320;MIDI 01
290.420;000.052;68;000.359;MIDI 01
290.567;000.108;53;000.336;MIDI 01
290.822;000.182;65;000.367;MIDI 01
291.079;000.099;63;000.242;MIDI 01
291.211;000.125;68;000.328;MIDI 01
291.395;000.145;54;000.320;MIDI 01
291.572;000.134;65;000.266;MIDI 01
291.729;000.184;63;000.336;MIDI 01
291.902;000.053;68;000.242;MIDI 01
292.017;000.126;54;000.312;MIDI 01
292.200;000.158;65;000.344;MIDI 01
292.394;000.278;63;000.328;MIDI 01
292.583;000.238;68;000.344;MIDI 01
292.772;000.270;54;000.289;MIDI 01
290.814;002.311;44;000.367;MIDI 01
293.017;000.260;65;000.234;MIDI 01
290.824;002.555;32;000.375;MIDI 01
293.525;000.478;68;000.305;MIDI 01
293.260;000.801;63;000.328;MIDI 01
293.866;001.320;54;000.312;MIDI 01
294.470;005.349;37;000.227;MIDI 01
295.103;004.729;44;000.281;MIDI 01
295.955;004.015;60;000.336;MIDI 01
295.395;004.779;54;000.242;MIDI 01
296.535;005.264;63;000.383;MIDI 01
301.584;007.492;53;000.234;MIDI 01
295.696;013.445;56;000.281;MIDI 01
300.609;008.559;37;000.203;MIDI 01
301.036;008.179;44;000.281;MIDI 01
302.556;006.663;61;000.281;MIDI 01
