Start;Duration;Pitch;Velocity;Instrument
000.840;000.161;39;000.383;MIDI 01
000.912;000.106;43;000.430;MIDI 01
000.948;000.093;46;000.516;MIDI 01
001.001;000.100;51;000.656;MIDI 01
000.998;000.217;55;000.602;MIDI 01
000.994;000.291;58;000.570;MIDI 01
000.983;000.343;63;000.586;MIDI 01
001.751;000.230;39;000.484;MIDI 01
001.738;000.341;49;000.602;MIDI 01
001.735;000.352;63;000.516;MIDI 01
001.730;000.359;61;000.602;MIDI 01
001.749;000.343;46;000.500;MIDI 01
001.728;000.372;67;000.633;MIDI 01
001.750;000.385;43;000.461;MIDI 01
002.254;000.054;61;000.594;MIDI 01
002.249;000.065;49;000.648;MIDI 01
002.275;000.064;43;000.461;MIDI 01
002.307;000.040;39;000.305;MIDI 01
002.254;000.202;67;000.641;MIDI 01
002.413;000.452;68;000.656;MIDI 01
002.406;000.546;60;000.672;MIDI 01
002.256;000.792;63;000.555;MIDI 01
002.440;001.045;44;000.484;MIDI 01
003.399;000.122;68;000.461;MIDI 01
002.417;001.119;48;000.617;MIDI 01
003.460;000.085;67;000.531;MIDI 01
003.542;000.041;65;000.539;MIDI 01
003.587;000.027;63;000.562;MIDI 01
003.795;000.180;56;000.422;MIDI 01
003.803;000.214;58;000.383;MIDI 01
003.740;000.315;62;000.555;MIDI 01
003.778;000.472;41;000.414;MIDI 01
003.807;000.453;50;000.367;MIDI 01
002.464;002.003;39;000.516;MIDI 01
003.825;000.735;44;000.320;MIDI 01
004.479;000.188;50;000.422;MIDI 01
004.491;000.209;62;000.484;MIDI 01
004.277;000.429;65;000.562;MIDI 01
004.492;000.272;41;000.328;MIDI 01
004.487;000.294;39;000.234;MIDI 01
004.464;000.533;70;000.625;MIDI 01
005.007;000.122;68;000.578;MIDI 01
005.260;000.276;58;000.328;MIDI 01
005.257;000.373;46;000.289;MIDI 01
005.216;000.440;51;000.375;MIDI 01
005.265;000.403;43;000.289;MIDI 01
005.241;000.452;63;000.422;MIDI 01
005.196;000.581;67;000.547;MIDI 01
005.259;000.577;39;000.258;MIDI 01
006.648;000.132;68;000.172;MIDI 01
006.665;000.125;58;000.094;MIDI 01
006.655;000.154;65;000.062;MIDI 01
006.646;000.626;74;000.273;MIDI 01
007.166;000.167;77;000.344;MIDI 01
007.366;000.123;68;000.219;MIDI 01
007.369;000.134;65;000.227;MIDI 01
007.382;000.163;58;000.172;MIDI 01
007.343;000.491;82;000.422;MIDI 01
007.874;000.139;80;000.430;MIDI 01
007.916;000.112;62;000.219;MIDI 01
008.073;000.300;79;000.359;MIDI 01
008.079;000.308;63;000.289;MIDI 01
009.004;000.049;80;000.203;MIDI 01
008.985;000.108;58;000.258;MIDI 01
008.964;000.220;84;000.383;MIDI 01
009.158;000.074;60;000.328;MIDI 01
009.177;000.057;79;000.180;MIDI 01
009.140;000.126;82;000.445;MIDI 01
009.270;000.077;80;000.461;MIDI 01
009.299;000.113;62;000.344;MIDI 01
009.510;000.093;75;000.328;MIDI 01
009.465;000.167;79;000.453;MIDI 01
009.483;000.221;63;000.297;MIDI 01
010.432;000.044;80;000.336;MIDI 01
010.424;000.109;58;000.250;MIDI 01
010.434;000.164;84;000.383;MIDI 01
010.599;000.083;60;000.359;MIDI 01
010.628;000.055;79;000.211;MIDI 01
010.588;000.146;82;000.484;MIDI 01
010.747;000.054;80;000.461;MIDI 01
010.764;000.052;77;000.203;MIDI 01
010.762;000.129;62;000.352;MIDI 01
010.969;000.118;63;000.273;MIDI 01
010.981;000.160;75;000.352;MIDI 01
010.940;000.210;79;000.477;MIDI 01
012.009;000.041;80;000.445;MIDI 01
012.155;000.039;79;000.477;MIDI 01
011.981;000.217;84;000.555;MIDI 01
012.142;000.166;82;000.586;MIDI 01
012.283;000.045;77;000.477;MIDI 01
012.302;000.067;80;000.586;MIDI 01
012.471;000.033;75;000.461;MIDI 01
012.451;000.092;79;000.555;MIDI 01
012.620;000.028;80;000.508;MIDI 01
012.614;000.077;84;000.562;MIDI 01
012.777;000.029;79;000.516;MIDI 01
012.770;000.070;82;000.602;MIDI 01
012.924;000.035;77;000.500;MIDI 01
012.919;000.043;80;000.633;MIDI 01
013.090;000.033;75;000.508;MIDI 01
013.074;000.051;79;000.609;MIDI 01
013.265;000.033;79;000.602;MIDI 01
013.267;000.078;82;000.578;MIDI 01
013.420;000.024;80;000.609;MIDI 01
013.420;000.034;77;000.555;MIDI 01
013.571;000.034;75;000.555;MIDI 01
013.570;000.062;79;000.586;MIDI 01
013.722;000.044;74;000.562;MIDI 01
013.728;000.054;77;000.578;MIDI 01
013.876;000.040;75;000.508;MIDI 01
013.886;000.040;72;000.484;MIDI 01
014.047;000.033;70;000.516;MIDI 01
014.043;000.042;74;000.539;MIDI 01
014.200;000.034;68;000.430;MIDI 01
014.198;000.044;72;000.508;MIDI 01
014.353;000.041;70;000.500;MIDI 01
014.371;000.027;67;000.367;MIDI 01
014.514;000.032;68;000.414;MIDI 01
014.510;000.041;65;000.453;MIDI 01
014.676;000.042;67;000.461;MIDI 01
014.713;000.049;63;000.195;MIDI 01
014.827;000.031;65;000.430;MIDI 01
014.825;000.034;62;000.430;MIDI 01
015.079;000.120;48;000.242;MIDI 01
015.270;000.075;56;000.203;MIDI 01
015.405;000.115;48;000.328;MIDI 01
015.577;000.109;56;000.203;MIDI 01
015.034;000.763;63;000.469;MIDI 01
015.741;000.115;48;000.320;MIDI 01
015.919;000.120;56;000.289;MIDI 01
016.084;000.161;48;000.289;MIDI 01
016.250;000.060;65;000.391;MIDI 01
016.322;000.048;63;000.391;MIDI 01
016.284;000.087;56;000.273;MIDI 01
016.451;000.149;46;000.195;MIDI 01
016.606;000.117;56;000.289;MIDI 01
016.399;000.358;62;000.398;MIDI 01
016.762;000.159;46;000.328;MIDI 01
016.922;000.126;56;000.359;MIDI 01
017.120;000.127;46;000.312;MIDI 01
017.295;000.093;55;000.289;MIDI 01
017.454;000.132;46;000.266;MIDI 01
017.086;000.685;61;000.516;MIDI 01
017.625;000.155;55;000.273;MIDI 01
017.802;000.128;44;000.305;MIDI 01
017.980;000.153;55;000.281;MIDI 01
018.144;000.100;44;000.320;MIDI 01
018.322;000.078;55;000.328;MIDI 01
018.480;000.115;44;000.273;MIDI 01
018.665;000.093;53;000.289;MIDI 01
017.780;001.056;60;000.367;MIDI 01
018.799;000.143;44;000.336;MIDI 01
018.975;000.040;62;000.359;MIDI 01
019.039;000.031;60;000.375;MIDI 01
018.981;000.116;53;000.273;MIDI 01
019.161;000.102;43;000.250;MIDI 01
019.120;000.207;58;000.375;MIDI 01
019.304;000.100;53;000.289;MIDI 01
019.483;000.153;43;000.336;MIDI 01
019.633;000.069;53;000.305;MIDI 01
019.658;000.046;60;000.398;MIDI 01
019.709;000.127;62;000.453;MIDI 01
019.830;000.115;43;000.297;MIDI 01
019.989;000.087;51;000.398;MIDI 01
019.810;000.269;63;000.500;MIDI 01
020.135;000.131;43;000.445;MIDI 01
020.314;000.099;51;000.328;MIDI 01
020.337;000.081;65;000.484;MIDI 01
020.380;000.188;67;000.539;MIDI 01
020.493;000.135;41;000.398;MIDI 01
020.665;000.099;50;000.359;MIDI 01
020.827;000.085;41;000.398;MIDI 01
020.974;000.182;50;000.359;MIDI 01
020.479;000.810;68;000.578;MIDI 01
021.182;000.260;39;000.398;MIDI 01
021.354;000.208;43;000.461;MIDI 01
021.522;000.108;46;000.492;MIDI 01
021.171;000.461;67;000.523;MIDI 01
021.684;000.046;51;000.375;MIDI 01
021.904;000.030;44;000.398;MIDI 01
021.906;000.069;65;000.438;MIDI 01
021.936;000.041;62;000.234;MIDI 01
022.639;000.045;46;000.336;MIDI 01
022.633;000.068;62;000.359;MIDI 01
022.646;000.064;56;000.289;MIDI 01
022.663;000.069;53;000.125;MIDI 01
023.401;000.220;67;000.523;MIDI 01
023.409;000.220;63;000.492;MIDI 01
023.394;000.243;51;000.438;MIDI 01
023.399;000.308;70;000.539;MIDI 01
023.416;000.334;58;000.430;MIDI 01
023.391;000.377;75;000.594;MIDI 01
023.420;000.413;55;000.383;MIDI 01
024.171;000.200;51;000.430;MIDI 01
024.168;000.241;73;000.500;MIDI 01
024.179;000.254;58;000.375;MIDI 01
024.164;000.299;75;000.469;MIDI 01
024.177;000.346;55;000.383;MIDI 01
024.156;000.386;61;000.516;MIDI 01
024.133;000.647;79;000.656;MIDI 01
024.674;000.264;75;000.609;MIDI 01
024.879;000.305;72;000.609;MIDI 01
024.877;000.751;80;000.648;MIDI 01
025.677;000.109;84;000.562;MIDI 01
025.749;000.114;82;000.555;MIDI 01
025.818;000.084;80;000.602;MIDI 01
025.898;000.065;79;000.641;MIDI 01
024.931;001.070;56;000.383;MIDI 01
024.938;001.071;51;000.375;MIDI 01
025.974;000.078;77;000.562;MIDI 01
026.052;000.073;75;000.617;MIDI 01
024.881;001.251;60;000.594;MIDI 01
026.130;000.038;74;000.625;MIDI 01
026.207;000.078;72;000.562;MIDI 01
026.279;000.070;62;000.594;MIDI 01
026.299;000.073;58;000.477;MIDI 01
026.283;000.098;70;000.578;MIDI 01
026.303;000.118;56;000.500;MIDI 01
026.385;000.067;68;000.547;MIDI 01
026.458;000.042;67;000.594;MIDI 01
026.545;000.049;65;000.539;MIDI 01
026.619;000.043;63;000.516;MIDI 01
026.692;000.028;62;000.539;MIDI 01
026.757;000.059;60;000.523;MIDI 01
026.301;000.611;53;000.523;MIDI 01
026.853;000.062;58;000.508;MIDI 01
026.930;000.051;56;000.516;MIDI 01
026.994;000.043;55;000.531;MIDI 01
027.076;000.038;53;000.484;MIDI 01
027.140;000.041;51;000.516;MIDI 01
027.198;000.027;50;000.539;MIDI 01
027.259;000.049;48;000.547;MIDI 01
027.326;000.054;46;000.531;MIDI 01
027.376;000.041;44;000.586;MIDI 01
027.421;000.053;43;000.555;MIDI 01
027.490;000.033;41;000.625;MIDI 01
027.595;000.450;39;000.594;MIDI 01
028.710;000.146;84;000.297;MIDI 01
028.876;000.113;79;000.328;MIDI 01
028.722;000.450;75;000.312;MIDI 01
029.036;000.171;84;000.375;MIDI 01
029.219;000.042;77;000.367;MIDI 01
029.248;000.072;79;000.289;MIDI 01
029.294;000.051;75;000.328;MIDI 01
029.371;000.141;84;000.406;MIDI 01
029.561;000.112;77;000.398;MIDI 01
029.725;000.132;84;000.336;MIDI 01
029.885;000.120;77;000.391;MIDI 01
030.060;000.144;82;000.375;MIDI 01
029.389;000.957;74;000.344;MIDI 01
030.228;000.136;77;000.367;MIDI 01
030.409;000.129;82;000.398;MIDI 01
030.576;000.086;77;000.328;MIDI 01
030.743;000.144;82;000.359;MIDI 01
030.067;000.822;73;000.406;MIDI 01
030.933;000.123;76;000.367;MIDI 01
031.107;000.114;82;000.359;MIDI 01
031.250;000.133;76;000.414;MIDI 01
031.444;000.131;80;000.383;MIDI 01
031.609;000.119;75;000.391;MIDI 01
030.747;001.069;72;000.422;MIDI 01
031.779;000.155;80;000.430;MIDI 01
031.951;000.031;74;000.367;MIDI 01
032.004;000.099;72;000.422;MIDI 01
031.970;000.138;75;000.406;MIDI 01
032.143;000.116;80;000.375;MIDI 01
032.309;000.100;74;000.398;MIDI 01
032.478;000.098;80;000.375;MIDI 01
032.618;000.100;74;000.430;MIDI 01
032.803;000.134;79;000.453;MIDI 01
032.975;000.125;73;000.367;MIDI 01
032.127;001.041;70;000.422;MIDI 01
033.125;000.142;79;000.453;MIDI 01
033.307;000.035;72;000.414;MIDI 01
033.321;000.127;73;000.414;MIDI 01
033.364;000.102;70;000.461;MIDI 01
033.474;000.123;79;000.383;MIDI 01
033.647;000.122;72;000.391;MIDI 01
033.479;000.329;69;000.461;MIDI 01
033.819;000.186;79;000.406;MIDI 01
033.975;000.145;72;000.445;MIDI 01
034.188;000.128;77;000.438;MIDI 01
034.343;000.111;72;000.406;MIDI 01
034.525;000.129;77;000.414;MIDI 01
034.179;000.491;68;000.508;MIDI 01
034.715;000.033;70;000.406;MIDI 01
034.708;000.104;72;000.406;MIDI 01
034.778;000.059;68;000.375;MIDI 01
034.864;000.139;77;000.383;MIDI 01
035.056;000.147;70;000.430;MIDI 01
035.230;000.134;77;000.375;MIDI 01
035.396;000.148;70;000.406;MIDI 01
035.581;000.149;75;000.406;MIDI 01
034.866;000.922;67;000.414;MIDI 01
035.747;000.152;70;000.422;MIDI 01
035.924;000.123;75;000.406;MIDI 01
036.076;000.129;70;000.438;MIDI 01
036.254;000.113;75;000.375;MIDI 01
035.561;000.933;66;000.461;MIDI 01
036.425;000.118;69;000.406;MIDI 01
036.590;000.163;75;000.375;MIDI 01
036.756;000.119;69;000.320;MIDI 01
036.250;000.828;65;000.453;MIDI 01
036.952;000.129;73;000.383;MIDI 01
036.940;000.280;64;000.375;MIDI 01
037.142;000.121;70;000.328;MIDI 01
037.303;000.137;73;000.352;MIDI 01
037.451;000.095;70;000.352;MIDI 01
037.628;000.178;69;000.336;MIDI 01
037.816;000.127;72;000.383;MIDI 01
037.638;000.464;65;000.234;MIDI 01
037.992;000.112;77;000.414;MIDI 01
038.138;000.106;72;000.438;MIDI 01
038.503;000.085;69;000.508;MIDI 01
038.327;000.272;78;000.500;MIDI 01
038.340;000.321;63;000.383;MIDI 01
038.678;000.118;81;000.586;MIDI 01
038.866;000.038;65;000.305;MIDI 01
038.868;000.090;72;000.461;MIDI 01
038.920;000.079;63;000.445;MIDI 01
039.025;000.156;82;000.555;MIDI 01
039.185;000.117;70;000.492;MIDI 01
039.020;000.349;61;000.422;MIDI 01
039.373;000.140;78;000.477;MIDI 01
039.525;000.102;70;000.359;MIDI 01
039.379;000.265;58;000.352;MIDI 01
039.705;000.177;77;000.422;MIDI 01
039.882;000.084;70;000.375;MIDI 01
039.704;000.323;60;000.320;MIDI 01
037.651;002.506;53;000.250;MIDI 01
040.085;000.232;61;000.297;MIDI 01
040.061;000.270;76;000.359;MIDI 01
040.247;000.126;70;000.375;MIDI 01
040.427;000.131;77;000.305;MIDI 01
040.614;000.103;69;000.266;MIDI 01
040.771;000.183;72;000.320;MIDI 01
040.950;000.090;69;000.336;MIDI 01
040.410;000.884;60;000.188;MIDI 01
041.133;000.226;78;000.344;MIDI 01
041.299;000.074;69;000.211;MIDI 01
041.458;000.060;81;000.438;MIDI 01
041.127;000.403;63;000.273;MIDI 01
041.655;000.044;65;000.211;MIDI 01
041.647;000.090;72;000.391;MIDI 01
041.711;000.085;63;000.391;MIDI 01
041.826;000.104;82;000.359;MIDI 01
041.992;000.085;70;000.398;MIDI 01
041.831;000.442;61;000.383;MIDI 01
042.164;000.165;78;000.469;MIDI 01
042.334;000.076;70;000.422;MIDI 01
042.666;000.097;70;000.453;MIDI 01
042.167;000.632;58;000.367;MIDI 01
042.505;000.346;77;000.484;MIDI 01
042.510;000.420;60;000.469;MIDI 01
040.417;002.628;53;000.102;MIDI 01
043.005;000.137;70;000.469;MIDI 01
042.855;000.382;76;000.547;MIDI 01
042.852;000.517;61;000.500;MIDI 01
043.215;000.272;77;000.523;MIDI 01
043.400;000.183;69;000.445;MIDI 01
043.210;000.417;60;000.398;MIDI 01
043.553;000.231;72;000.453;MIDI 01
043.745;000.193;69;000.531;MIDI 01
043.932;000.175;77;000.484;MIDI 01
044.074;000.138;72;000.523;MIDI 01
044.175;000.122;69;000.492;MIDI 01
044.285;000.145;77;000.594;MIDI 01
044.409;000.095;72;000.531;MIDI 01
044.504;000.116;69;000.500;MIDI 01
043.948;000.731;57;000.477;MIDI 01
043.934;000.833;60;000.414;MIDI 01
044.628;000.160;76;000.617;MIDI 01
044.742;000.134;70;000.531;MIDI 01
044.859;000.104;67;000.508;MIDI 01
044.956;000.107;76;000.547;MIDI 01
045.080;000.093;70;000.477;MIDI 01
044.619;000.614;61;000.500;MIDI 01
044.602;000.657;58;000.492;MIDI 01
045.200;000.065;67;000.422;MIDI 01
045.310;000.121;75;000.430;MIDI 01
045.459;000.086;72;000.383;MIDI 01
045.579;000.078;65;000.398;MIDI 01
045.326;000.373;60;000.234;MIDI 01
045.334;000.444;57;000.312;MIDI 01
045.683;000.101;75;000.406;MIDI 01
043.211;002.647;53;000.414;MIDI 01
045.826;000.078;72;000.383;MIDI 01
045.949;000.022;65;000.406;MIDI 01
046.259;000.246;62;000.516;MIDI 01
046.274;000.242;46;000.461;MIDI 01
046.252;000.277;65;000.461;MIDI 01
046.249;000.328;58;000.539;MIDI 01
046.251;000.404;70;000.609;MIDI 01
046.277;000.400;53;000.422;MIDI 01
046.283;000.454;50;000.383;MIDI 01
047.036;000.279;70;000.531;MIDI 01
047.061;000.265;46;000.445;MIDI 01
047.071;000.260;53;000.375;MIDI 01
047.049;000.327;68;000.484;MIDI 01
047.065;000.518;50;000.367;MIDI 01
047.027;000.671;74;000.688;MIDI 01
047.035;000.665;56;000.602;MIDI 01
047.590;000.296;70;000.633;MIDI 01
047.793;000.381;67;000.594;MIDI 01
047.784;000.896;75;000.641;MIDI 01
048.735;000.098;79;000.484;MIDI 01
048.817;000.078;77;000.531;MIDI 01
048.864;000.078;75;000.555;MIDI 01
047.788;001.195;55;000.625;MIDI 01
048.961;000.025;74;000.578;MIDI 01
047.819;001.271;51;000.430;MIDI 01
049.025;000.079;72;000.547;MIDI 01
047.828;001.309;46;000.453;MIDI 01
049.111;000.047;70;000.586;MIDI 01
049.197;000.064;69;000.602;MIDI 01
049.272;000.059;70;000.547;MIDI 01
049.362;000.079;72;000.555;MIDI 01
049.442;000.073;74;000.594;MIDI 01
049.523;000.026;75;000.594;MIDI 01
049.612;000.068;77;000.570;MIDI 01
049.672;000.115;79;000.578;MIDI 01
049.758;000.045;81;000.523;MIDI 01
049.800;000.034;82;000.562;MIDI 01
049.889;000.112;84;000.578;MIDI 01
050.019;000.140;87;000.617;MIDI 01
049.957;000.252;86;000.625;MIDI 01
049.211;001.000;46;000.484;MIDI 01
049.204;001.014;51;000.500;MIDI 01
049.194;001.025;57;000.648;MIDI 01
050.117;000.191;89;000.664;MIDI 01
049.206;001.138;48;000.555;MIDI 01
050.298;000.116;87;000.633;MIDI 01
050.476;000.090;86;000.500;MIDI 01
050.663;000.069;84;000.492;MIDI 01
050.836;000.050;82;000.445;MIDI 01
051.008;000.054;81;000.383;MIDI 01
050.538;000.593;46;000.273;MIDI 01
050.518;000.639;50;000.242;MIDI 01
050.495;000.717;58;000.312;MIDI 01
050.505;000.724;53;000.234;MIDI 01
051.178;000.053;79;000.445;MIDI 01
051.351;000.048;77;000.430;MIDI 01
051.534;000.043;75;000.461;MIDI 01
051.707;000.051;74;000.453;MIDI 01
051.873;000.082;72;000.539;MIDI 01
052.009;000.094;70;000.477;MIDI 01
052.121;000.047;69;000.523;MIDI 01
052.208;000.033;70;000.359;MIDI 01
052.258;000.053;72;000.555;MIDI 01
052.324;000.053;74;000.555;MIDI 01
052.389;000.037;75;000.539;MIDI 01
052.467;000.042;77;000.547;MIDI 01
052.514;000.105;79;000.594;MIDI 01
052.594;000.040;81;000.516;MIDI 01
052.631;000.027;82;000.578;MIDI 01
052.716;000.076;84;000.633;MIDI 01
052.769;000.070;86;000.602;MIDI 01
052.811;000.118;87;000.641;MIDI 01
052.899;000.056;89;000.688;MIDI 01
051.853;001.129;57;000.625;MIDI 01
051.885;001.125;51;000.461;MIDI 01
051.900;001.212;46;000.391;MIDI 01
051.882;001.235;48;000.500;MIDI 01
053.082;000.045;87;000.695;MIDI 01
053.231;000.034;86;000.586;MIDI 01
053.271;000.077;87;000.617;MIDI 01
053.333;000.069;86;000.562;MIDI 01
053.431;000.027;84;000.531;MIDI 01
053.593;000.031;82;000.594;MIDI 01
053.648;000.076;84;000.414;MIDI 01
053.723;000.044;82;000.609;MIDI 01
053.797;000.023;81;000.531;MIDI 01
053.255;000.694;50;000.336;MIDI 01
053.252;000.710;46;000.406;MIDI 01
053.265;000.701;53;000.336;MIDI 01
053.948;000.038;79;000.594;MIDI 01
053.259;000.792;58;000.367;MIDI 01
053.990;000.076;81;000.461;MIDI 01
054.070;000.064;79;000.609;MIDI 01
054.163;000.024;77;000.484;MIDI 01
054.318;000.035;75;000.617;MIDI 01
054.374;000.070;77;000.406;MIDI 01
054.447;000.055;75;000.570;MIDI 01
054.528;000.019;74;000.477;MIDI 01
054.942;000.176;74;000.352;MIDI 01
054.882;000.322;51;000.289;MIDI 01
055.185;000.148;55;000.289;MIDI 01
055.166;000.192;77;000.406;MIDI 01
055.381;000.098;57;000.344;MIDI 01
054.884;000.597;79;000.445;MIDI 01
055.364;000.129;75;000.406;MIDI 01
055.540;000.141;59;000.383;MIDI 01
055.527;000.216;74;000.414;MIDI 01
055.892;000.049;82;000.430;MIDI 01
056.053;000.104;81;000.547;MIDI 01
055.731;000.461;60;000.258;MIDI 01
055.686;000.770;75;000.406;MIDI 01
056.252;000.216;58;000.312;MIDI 01
056.429;000.126;57;000.312;MIDI 01
056.230;000.392;79;000.555;MIDI 01
056.593;000.072;74;000.508;MIDI 01
056.615;000.126;65;000.398;MIDI 01
056.405;000.578;77;000.539;MIDI 01
056.927;000.058;72;000.500;MIDI 01
056.775;000.222;67;000.500;MIDI 01
056.777;000.343;75;000.469;MIDI 01
056.945;000.364;69;000.477;MIDI 01
057.317;000.232;82;000.461;MIDI 01
057.135;000.554;70;000.492;MIDI 01
057.125;000.594;74;000.445;MIDI 01
057.476;000.290;81;000.539;MIDI 01
057.659;000.234;79;000.539;MIDI 01
057.850;000.155;77;000.508;MIDI 01
058.022;000.189;76;000.445;MIDI 01
058.210;000.164;79;000.438;MIDI 01
058.401;000.173;77;000.391;MIDI 01
057.891;000.966;67;000.320;MIDI 01
057.844;001.212;72;000.438;MIDI 01
057.857;001.255;70;000.258;MIDI 01
058.594;000.587;76;000.391;MIDI 01
058.753;000.458;82;000.461;MIDI 01
058.933;000.336;81;000.531;MIDI 01
059.117;000.231;79;000.531;MIDI 01
059.294;000.158;77;000.539;MIDI 01
059.474;000.158;76;000.484;MIDI 01
059.652;000.159;79;000.469;MIDI 01
059.816;000.184;77;000.461;MIDI 01
060.008;000.210;76;000.445;MIDI 01
060.184;000.189;82;000.422;MIDI 01
060.374;000.143;81;000.438;MIDI 01
060.530;000.168;79;000.453;MIDI 01
060.698;000.141;77;000.406;MIDI 01
059.292;001.636;73;000.609;MIDI 01
060.874;000.165;76;000.398;MIDI 01
061.077;000.132;79;000.398;MIDI 01
061.223;000.151;77;000.367;MIDI 01
060.725;000.827;72;000.398;MIDI 01
061.419;000.174;76;000.352;MIDI 01
061.609;000.145;82;000.352;MIDI 01
061.784;000.115;79;000.398;MIDI 01
059.347;002.676;67;000.398;MIDI 01
061.952;000.181;76;000.391;MIDI 01
061.424;000.739;70;000.328;MIDI 01
062.138;000.160;79;000.383;MIDI 01
062.324;000.141;77;000.422;MIDI 01
062.514;000.149;76;000.414;MIDI 01
062.126;000.546;69;000.242;MIDI 01
062.124;000.596;65;000.242;MIDI 01
062.678;000.116;77;000.414;MIDI 01
062.859;000.152;76;000.406;MIDI 01
063.036;000.078;77;000.297;MIDI 01
063.127;000.060;55;000.367;MIDI 01
063.141;000.098;58;000.453;MIDI 01
063.164;000.082;63;000.422;MIDI 01
063.220;000.049;67;000.484;MIDI 01
063.188;000.104;70;000.516;MIDI 01
063.210;000.098;75;000.516;MIDI 01
063.256;000.146;79;000.500;MIDI 01
063.283;000.154;82;000.602;MIDI 01
063.426;000.047;75;000.562;MIDI 01
063.603;000.173;75;000.500;MIDI 01
063.790;000.117;74;000.492;MIDI 01
063.977;000.103;73;000.422;MIDI 01
063.599;000.518;69;000.344;MIDI 01
063.625;000.575;65;000.234;MIDI 01
064.157;000.153;74;000.430;MIDI 01
064.327;000.076;73;000.438;MIDI 01
064.477;000.058;74;000.453;MIDI 01
064.599;000.095;55;000.414;MIDI 01
064.581;000.133;51;000.430;MIDI 01
064.646;000.078;60;000.492;MIDI 01
064.681;000.091;72;000.484;MIDI 01
064.630;000.145;67;000.562;MIDI 01
064.732;000.110;75;000.602;MIDI 01
064.775;000.134;79;000.609;MIDI 01
064.920;000.027;72;000.492;MIDI 01
065.095;000.181;72;000.320;MIDI 01
065.282;000.145;70;000.461;MIDI 01
065.075;000.404;65;000.312;MIDI 01
065.084;000.472;62;000.281;MIDI 01
065.473;000.158;69;000.414;MIDI 01
065.643;000.145;70;000.414;MIDI 01
065.828;000.153;69;000.391;MIDI 01
065.978;000.045;70;000.438;MIDI 01
066.158;000.059;65;000.344;MIDI 01
066.181;000.128;62;000.344;MIDI 01
066.217;000.096;70;000.445;MIDI 01
066.046;000.280;50;000.312;MIDI 01
066.304;000.055;74;000.359;MIDI 01
066.342;000.055;77;000.422;MIDI 01
066.134;000.271;58;000.266;MIDI 01
066.125;000.307;53;000.281;MIDI 01
066.579;000.050;70;000.430;MIDI 01
066.823;000.051;69;000.312;MIDI 01
066.908;000.094;79;000.430;MIDI 01
066.995;000.066;77;000.438;MIDI 01
066.838;000.276;51;000.281;MIDI 01
066.860;000.261;57;000.180;MIDI 01
067.079;000.044;75;000.422;MIDI 01
066.849;000.290;60;000.227;MIDI 01
066.858;000.294;53;000.219;MIDI 01
067.146;000.021;74;000.469;MIDI 01
067.225;000.033;72;000.438;MIDI 01
067.306;000.045;70;000.484;MIDI 01
067.396;000.045;69;000.500;MIDI 01
067.466;000.037;70;000.438;MIDI 01
067.585;000.086;79;000.477;MIDI 01
067.511;000.189;50;000.109;MIDI 01
067.502;000.200;62;000.195;MIDI 01
067.671;000.078;77;000.469;MIDI 01
067.500;000.280;58;000.273;MIDI 01
067.511;000.308;53;000.258;MIDI 01
067.749;000.073;75;000.516;MIDI 01
067.845;000.035;74;000.469;MIDI 01
067.933;000.033;72;000.469;MIDI 01
068.045;000.046;70;000.422;MIDI 01
068.149;000.084;69;000.500;MIDI 01
068.260;000.040;70;000.445;MIDI 01
068.343;000.092;79;000.453;MIDI 01
068.131;000.317;51;000.305;MIDI 01
068.143;000.307;57;000.227;MIDI 01
068.121;000.359;60;000.336;MIDI 01
068.434;000.056;77;000.438;MIDI 01
068.147;000.375;53;000.250;MIDI 01
068.502;000.048;75;000.523;MIDI 01
068.589;000.028;74;000.367;MIDI 01
068.649;000.018;72;000.461;MIDI 01
068.725;000.035;70;000.547;MIDI 01
068.801;000.034;69;000.547;MIDI 01
068.866;000.033;70;000.500;MIDI 01
068.941;000.060;72;000.555;MIDI 01
068.821;000.259;62;000.328;MIDI 01
069.017;000.066;74;000.594;MIDI 01
068.822;000.262;50;000.297;MIDI 01
069.089;000.026;75;000.586;MIDI 01
068.833;000.294;58;000.320;MIDI 01
068.840;000.326;53;000.328;MIDI 01
069.168;000.076;77;000.531;MIDI 01
069.241;000.081;79;000.531;MIDI 01
069.320;000.067;80;000.555;MIDI 01
069.407;000.083;82;000.492;MIDI 01
069.502;000.093;80;000.602;MIDI 01
069.609;000.088;82;000.570;MIDI 01
069.715;000.108;84;000.555;MIDI 01
069.780;000.117;82;000.523;MIDI 01
069.864;000.068;80;000.578;MIDI 01
069.940;000.036;79;000.602;MIDI 01
070.020;000.070;77;000.523;MIDI 01
070.104;000.045;75;000.578;MIDI 01
070.192;000.097;74;000.562;MIDI 01
070.271;000.061;75;000.547;MIDI 01
070.345;000.106;77;000.539;MIDI 01
070.443;000.059;75;000.578;MIDI 01
069.525;000.982;50;000.430;MIDI 01
070.524;000.025;74;000.570;MIDI 01
069.516;001.099;58;000.508;MIDI 01
069.518;001.101;62;000.508;MIDI 01
069.656;000.965;56;000.242;MIDI 01
070.601;000.040;72;000.523;MIDI 01
069.514;001.161;53;000.516;MIDI 01
070.691;000.051;70;000.477;MIDI 01
070.776;000.048;68;000.422;MIDI 01
070.881;000.034;67;000.414;MIDI 01
071.090;000.025;79;000.414;MIDI 01
071.266;000.048;78;000.344;MIDI 01
071.432;000.048;81;000.422;MIDI 01
070.904;000.653;55;000.289;MIDI 01
070.905;000.661;58;000.031;MIDI 01
070.896;000.721;51;000.266;MIDI 01
071.620;000.037;79;000.406;MIDI 01
070.893;000.804;63;000.250;MIDI 01
071.786;000.061;82;000.383;MIDI 01
071.975;000.038;78;000.391;MIDI 01
072.141;000.052;81;000.484;MIDI 01
072.331;000.034;79;000.477;MIDI 01
072.502;000.071;82;000.531;MIDI 01
072.685;000.069;78;000.578;MIDI 01
072.697;000.064;66;000.414;MIDI 01
072.873;000.037;69;000.523;MIDI 01
072.858;000.071;81;000.648;MIDI 01
073.057;000.036;67;000.508;MIDI 01
073.042;000.071;79;000.664;MIDI 01
073.260;000.033;70;000.508;MIDI 01
073.235;000.115;82;000.617;MIDI 01
073.494;000.064;67;000.461;MIDI 01
073.479;000.141;79;000.586;MIDI 01
073.639;000.093;63;000.453;MIDI 01
073.627;000.106;75;000.625;MIDI 01
073.777;000.025;60;000.430;MIDI 01
073.760;000.364;72;000.641;MIDI 01
074.051;000.461;70;000.539;MIDI 01
074.592;000.051;72;000.414;MIDI 01
074.654;000.037;70;000.508;MIDI 01
074.723;000.035;69;000.508;MIDI 01
074.785;000.036;70;000.555;MIDI 01
074.869;000.216;69;000.453;MIDI 01
074.064;001.055;62;000.336;MIDI 01
074.895;000.474;63;000.320;MIDI 01
074.066;001.407;53;000.328;MIDI 01
074.876;000.617;74;000.578;MIDI 01
075.500;000.221;72;000.445;MIDI 01
075.893;000.378;62;000.117;MIDI 01
075.878;000.426;58;000.164;MIDI 01
075.836;000.591;70;000.352;MIDI 01
077.030;000.067;89;000.367;MIDI 01
077.073;000.057;74;000.328;MIDI 01
077.097;000.039;86;000.336;MIDI 01
077.082;000.066;70;000.258;MIDI 01
077.361;000.092;89;000.430;MIDI 01
077.439;000.036;65;000.250;MIDI 01
077.432;000.045;72;000.219;MIDI 01
077.444;000.036;84;000.414;MIDI 01
077.722;000.068;89;000.391;MIDI 01
077.789;000.041;82;000.398;MIDI 01
077.822;000.259;62;000.211;MIDI 01
077.808;000.321;70;000.234;MIDI 01
078.096;000.078;89;000.367;MIDI 01
078.153;000.026;77;000.336;MIDI 01
078.436;000.084;89;000.367;MIDI 01
078.503;000.041;86;000.477;MIDI 01
078.507;000.068;74;000.375;MIDI 01
078.509;000.069;70;000.273;MIDI 01
078.811;000.082;89;000.383;MIDI 01
078.871;000.031;65;000.289;MIDI 01
078.874;000.030;84;000.469;MIDI 01
078.872;000.039;72;000.227;MIDI 01
079.168;000.059;89;000.344;MIDI 01
079.239;000.038;82;000.461;MIDI 01
079.245;000.336;62;000.219;MIDI 01
079.252;000.341;70;000.203;MIDI 01
079.522;000.078;89;000.391;MIDI 01
079.615;000.034;77;000.438;MIDI 01
079.888;000.093;89;000.375;MIDI 01
079.979;000.031;80;000.492;MIDI 01
079.970;000.065;70;000.203;MIDI 01
079.972;000.080;62;000.258;MIDI 01
080.270;000.089;89;000.375;MIDI 01
080.343;000.042;78;000.477;MIDI 01
080.345;000.066;62;000.305;MIDI 01
080.357;000.055;70;000.320;MIDI 01
080.631;000.082;89;000.336;MIDI 01
080.716;000.054;79;000.352;MIDI 01
081.059;000.069;83;000.305;MIDI 01
080.735;000.474;70;000.250;MIDI 01
081.117;000.099;84;000.477;MIDI 01
081.399;000.105;86;000.492;MIDI 01
081.483;000.109;87;000.594;MIDI 01
080.744;000.965;63;000.250;MIDI 01
081.772;000.058;86;000.477;MIDI 01
081.850;000.061;84;000.477;MIDI 01
081.142;000.899;67;000.352;MIDI 01
082.143;000.089;82;000.367;MIDI 01
082.217;000.085;81;000.383;MIDI 01
081.847;000.518;64;000.352;MIDI 01
082.474;000.082;79;000.469;MIDI 01
082.556;000.106;77;000.500;MIDI 01
082.209;000.613;65;000.383;MIDI 01
081.487;001.345;72;000.414;MIDI 01
082.831;000.096;76;000.508;MIDI 01
082.919;000.131;77;000.531;MIDI 01
082.945;000.145;69;000.555;MIDI 01
082.576;000.534;67;000.523;MIDI 01
083.226;000.082;79;000.461;MIDI 01
083.300;000.042;77;000.570;MIDI 01
083.307;000.092;65;000.477;MIDI 01
083.303;000.271;57;000.547;MIDI 01
083.567;000.027;75;000.445;MIDI 01
083.667;000.051;73;000.484;MIDI 01
083.669;000.127;61;000.547;MIDI 01
083.664;000.145;58;000.539;MIDI 01
083.727;000.127;75;000.508;MIDI 01
083.817;000.088;73;000.547;MIDI 01
083.844;000.106;65;000.477;MIDI 01
083.910;000.060;72;000.570;MIDI 01
084.007;000.030;70;000.539;MIDI 01
084.018;000.104;61;000.383;MIDI 01
084.011;000.125;58;000.406;MIDI 01
084.166;000.047;70;000.531;MIDI 01
084.186;000.069;65;000.469;MIDI 01
084.372;000.075;75;000.617;MIDI 01
084.366;000.090;60;000.461;MIDI 01
084.353;000.104;57;000.539;MIDI 01
084.450;000.136;77;000.609;MIDI 01
084.543;000.099;65;000.461;MIDI 01
084.541;000.103;75;000.570;MIDI 01
084.629;000.071;73;000.578;MIDI 01
084.706;000.031;72;000.562;MIDI 01
084.727;000.100;60;000.398;MIDI 01
084.882;000.060;72;000.422;MIDI 01
084.895;000.141;65;000.406;MIDI 01
084.709;000.370;57;000.484;MIDI 01
085.096;000.042;73;000.445;MIDI 01
085.092;000.120;58;000.383;MIDI 01
085.094;000.138;61;000.367;MIDI 01
085.186;000.094;75;000.523;MIDI 01
085.253;000.071;73;000.547;MIDI 01
085.259;000.118;65;000.375;MIDI 01
085.328;000.076;72;000.562;MIDI 01
085.422;000.042;70;000.516;MIDI 01
085.455;000.116;58;000.367;MIDI 01
085.438;000.150;61;000.391;MIDI 01
085.594;000.030;70;000.547;MIDI 01
085.605;000.111;65;000.430;MIDI 01
085.798;000.059;75;000.594;MIDI 01
085.803;000.067;60;000.430;MIDI 01
085.796;000.091;57;000.453;MIDI 01
085.891;000.118;77;000.562;MIDI 01
085.981;000.059;65;000.453;MIDI 01
085.973;000.079;75;000.594;MIDI 01
086.045;000.077;73;000.586;MIDI 01
086.136;000.035;72;000.570;MIDI 01
086.172;000.115;57;000.398;MIDI 01
086.158;000.151;60;000.438;MIDI 01
086.321;000.021;65;000.484;MIDI 01
086.329;000.051;72;000.422;MIDI 01
086.536;000.033;73;000.430;MIDI 01
086.534;000.077;61;000.422;MIDI 01
086.551;000.151;49;000.336;MIDI 01
086.626;000.088;75;000.484;MIDI 01
086.697;000.079;73;000.477;MIDI 01
086.786;000.048;72;000.539;MIDI 01
086.877;000.035;70;000.516;MIDI 01
086.879;000.046;58;000.453;MIDI 01
086.893;000.170;46;000.430;MIDI 01
086.966;000.106;72;000.523;MIDI 01
087.042;000.094;70;000.500;MIDI 01
087.132;000.062;68;000.586;MIDI 01
087.211;000.065;66;000.578;MIDI 01
087.218;000.074;54;000.500;MIDI 01
087.304;000.119;68;000.594;MIDI 01
087.222;000.211;42;000.477;MIDI 01
087.389;000.090;66;000.617;MIDI 01
087.475;000.073;65;000.594;MIDI 01
087.557;000.036;63;000.547;MIDI 01
087.571;000.043;51;000.547;MIDI 01
087.642;000.135;65;000.609;MIDI 01
087.569;000.259;39;000.578;MIDI 01
087.715;000.119;63;000.461;MIDI 01
087.805;000.091;61;000.602;MIDI 01
087.911;000.077;60;000.586;MIDI 01
087.910;000.154;48;000.633;MIDI 01
087.999;000.075;61;000.547;MIDI 01
088.080;000.104;63;000.555;MIDI 01
088.180;000.073;61;000.516;MIDI 01
088.267;000.080;60;000.531;MIDI 01
088.355;000.069;61;000.516;MIDI 01
088.439;000.092;63;000.539;MIDI 01
088.543;000.061;61;000.531;MIDI 01
087.908;000.756;36;000.641;MIDI 01
088.627;000.081;60;000.516;MIDI 01
088.734;000.059;61;000.516;MIDI 01
088.828;000.085;63;000.523;MIDI 01
088.632;000.327;46;000.555;MIDI 01
088.929;000.046;61;000.523;MIDI 01
089.009;000.061;60;000.484;MIDI 01
089.093;000.052;61;000.477;MIDI 01
089.184;000.062;63;000.461;MIDI 01
089.269;000.056;61;000.477;MIDI 01
089.361;000.062;60;000.453;MIDI 01
088.619;000.843;34;000.570;MIDI 01
089.453;000.055;61;000.477;MIDI 01
089.371;000.160;45;000.336;MIDI 01
089.548;000.068;63;000.438;MIDI 01
089.631;000.053;61;000.469;MIDI 01
089.727;000.045;60;000.406;MIDI 01
089.798;000.051;61;000.445;MIDI 01
089.907;000.048;63;000.398;MIDI 01
089.976;000.055;61;000.453;MIDI 01
089.364;000.722;33;000.484;MIDI 01
090.072;000.056;60;000.414;MIDI 01
090.154;000.068;61;000.445;MIDI 01
090.258;000.055;63;000.414;MIDI 01
090.345;000.048;61;000.453;MIDI 01
090.444;000.047;60;000.359;MIDI 01
090.507;000.062;61;000.438;MIDI 01
090.624;000.047;63;000.359;MIDI 01
090.074;000.662;42;000.320;MIDI 01
090.691;000.049;61;000.398;MIDI 01
090.801;000.039;60;000.383;MIDI 01
090.879;000.051;61;000.414;MIDI 01
090.071;000.869;30;000.406;MIDI 01
090.983;000.047;63;000.336;MIDI 01
091.053;000.049;61;000.422;MIDI 01
091.157;000.037;60;000.375;MIDI 01
091.231;000.050;61;000.445;MIDI 01
091.333;000.049;63;000.375;MIDI 01
091.405;000.049;61;000.406;MIDI 01
091.514;000.037;60;000.391;MIDI 01
091.592;000.045;61;000.438;MIDI 01
091.689;000.055;63;000.391;MIDI 01
091.766;000.053;61;000.422;MIDI 01
091.883;000.041;60;000.391;MIDI 01
091.950;000.052;61;000.445;MIDI 01
092.061;000.041;63;000.352;MIDI 01
092.126;000.047;61;000.406;MIDI 01
092.228;000.037;60;000.445;MIDI 01
092.314;000.041;62;000.398;MIDI 01
092.409;000.043;63;000.312;MIDI 01
092.466;000.049;62;000.500;MIDI 01
090.831;001.736;41;000.125;MIDI 01
092.562;000.043;60;000.453;MIDI 01
092.635;000.058;62;000.438;MIDI 01
092.746;000.031;63;000.445;MIDI 01
092.817;000.039;62;000.469;MIDI 01
092.901;000.068;60;000.461;MIDI 01
092.975;000.067;62;000.461;MIDI 01
093.060;000.043;63;000.500;MIDI 01
090.819;002.304;29;000.336;MIDI 01
093.143;000.092;65;000.531;MIDI 01
093.225;000.091;67;000.570;MIDI 01
093.304;000.089;69;000.539;MIDI 01
093.370;000.097;70;000.547;MIDI 01
093.466;000.058;72;000.578;MIDI 01
093.907;000.105;70;000.297;MIDI 01
093.825;000.214;74;000.586;MIDI 01
093.836;000.222;65;000.266;MIDI 01
093.842;000.743;58;000.305;MIDI 01
093.840;000.747;62;000.297;MIDI 01
094.652;000.148;57;000.367;MIDI 01
094.638;000.170;65;000.414;MIDI 01
094.650;000.249;60;000.352;MIDI 01
094.678;000.231;72;000.469;MIDI 01
094.622;000.655;77;000.641;MIDI 01
095.473;000.094;70;000.445;MIDI 01
095.544;000.104;75;000.555;MIDI 01
095.636;000.218;82;000.617;MIDI 01
095.244;000.681;55;000.422;MIDI 01
095.440;000.798;63;000.469;MIDI 01
095.360;000.986;58;000.445;MIDI 01
097.150;000.060;81;000.391;MIDI 01
097.220;000.044;79;000.391;MIDI 01
097.291;000.044;77;000.430;MIDI 01
097.381;000.207;70;000.219;MIDI 01
097.369;000.241;75;000.438;MIDI 01
097.371;000.245;67;000.242;MIDI 01
097.912;000.038;74;000.477;MIDI 01
097.939;000.042;70;000.250;MIDI 01
097.928;000.074;65;000.305;MIDI 01
098.123;000.077;70;000.320;MIDI 01
098.130;000.089;79;000.500;MIDI 01
098.152;000.076;63;000.336;MIDI 01
098.707;000.033;70;000.383;MIDI 01
098.692;000.054;77;000.445;MIDI 01
098.688;000.070;61;000.383;MIDI 01
099.010;000.207;67;000.188;MIDI 01
098.972;000.261;70;000.273;MIDI 01
098.970;000.272;76;000.352;MIDI 01
098.963;000.341;60;000.219;MIDI 01
100.286;000.031;75;000.391;MIDI 01
100.271;000.054;79;000.484;MIDI 01
100.452;000.032;74;000.484;MIDI 01
100.455;000.044;77;000.445;MIDI 01
100.603;000.033;72;000.398;MIDI 01
100.604;000.034;75;000.516;MIDI 01
100.963;000.034;65;000.367;MIDI 01
100.969;000.043;62;000.383;MIDI 01
100.797;000.244;70;000.445;MIDI 01
101.144;000.036;63;000.398;MIDI 01
101.142;000.042;60;000.438;MIDI 01
101.308;000.033;58;000.500;MIDI 01
101.319;000.025;62;000.422;MIDI 01
100.778;000.619;74;000.477;MIDI 01
101.666;000.031;75;000.461;MIDI 01
101.659;000.040;79;000.469;MIDI 01
101.834;000.035;77;000.570;MIDI 01
101.845;000.029;74;000.445;MIDI 01
101.999;000.036;75;000.539;MIDI 01
102.021;000.035;72;000.352;MIDI 01
101.502;000.622;57;000.469;MIDI 01
101.479;000.721;60;000.469;MIDI 01
102.346;000.032;65;000.453;MIDI 01
102.344;000.055;62;000.500;MIDI 01
102.195;000.232;70;000.508;MIDI 01
102.533;000.032;63;000.461;MIDI 01
102.526;000.043;60;000.500;MIDI 01
102.177;000.463;74;000.555;MIDI 01
102.691;000.030;62;000.547;MIDI 01
102.699;000.037;58;000.531;MIDI 01
102.909;000.026;57;000.398;MIDI 01
102.877;000.071;60;000.508;MIDI 01
103.069;000.064;75;000.438;MIDI 01
103.056;000.096;65;000.477;MIDI 01
103.047;000.219;79;000.516;MIDI 01
103.239;000.046;74;000.516;MIDI 01
103.235;000.124;67;000.602;MIDI 01
103.222;000.188;77;000.562;MIDI 01
103.414;000.032;72;000.547;MIDI 01
103.407;000.078;75;000.594;MIDI 01
103.397;000.172;69;000.609;MIDI 01
103.575;000.034;74;000.617;MIDI 01
103.580;000.183;70;000.586;MIDI 01
103.805;000.088;74;000.406;MIDI 01
103.812;000.092;77;000.539;MIDI 01
103.791;000.128;82;000.672;MIDI 01
103.998;000.052;75;000.688;MIDI 01
103.994;000.070;81;000.656;MIDI 01
104.003;000.062;72;000.578;MIDI 01
104.152;000.045;74;000.625;MIDI 01
104.151;000.053;70;000.625;MIDI 01
104.149;000.064;79;000.617;MIDI 01
104.309;000.040;77;000.609;MIDI 01
104.315;000.044;72;000.609;MIDI 01
104.327;000.043;69;000.609;MIDI 01
104.492;000.020;75;000.594;MIDI 01
104.498;000.028;67;000.586;MIDI 01
104.508;000.038;70;000.562;MIDI 01
104.678;000.029;69;000.508;MIDI 01
104.665;000.048;65;000.539;MIDI 01
104.662;000.065;74;000.672;MIDI 01
104.836;000.033;72;000.688;MIDI 01
104.846;000.028;67;000.555;MIDI 01
104.853;000.034;63;000.516;MIDI 01
105.047;000.615;62;000.523;MIDI 01
105.027;000.669;71;000.703;MIDI 01
105.044;000.748;65;000.516;MIDI 01
105.819;000.099;72;000.492;MIDI 01
105.882;000.065;67;000.266;MIDI 01
105.848;000.146;63;000.273;MIDI 01
106.739;000.084;69;000.484;MIDI 01
106.774;000.640;60;000.266;MIDI 01
106.750;000.740;63;000.297;MIDI 01
107.582;000.184;62;000.281;MIDI 01
107.557;000.211;70;000.336;MIDI 01
106.748;001.026;65;000.391;MIDI 01
110.058;000.290;55;000.219;MIDI 01
110.050;000.740;67;000.258;MIDI 01
111.747;000.904;54;000.188;MIDI 01
111.763;000.976;42;000.188;MIDI 01
111.714;001.500;66;000.242;MIDI 01
111.753;001.535;30;000.227;MIDI 01
113.393;000.035;53;000.586;MIDI 01
113.391;000.082;65;000.617;MIDI 01
113.403;000.117;29;000.562;MIDI 01
113.513;000.085;41;000.523;MIDI 01
113.595;000.110;29;000.477;MIDI 01
113.705;000.065;41;000.430;MIDI 01
113.763;000.046;65;000.430;MIDI 01
113.773;000.051;74;000.406;MIDI 01
113.770;000.072;70;000.453;MIDI 01
113.751;000.127;77;000.586;MIDI 01
113.775;000.113;29;000.445;MIDI 01
113.892;000.067;41;000.508;MIDI 01
113.969;000.106;29;000.461;MIDI 01
114.080;000.060;41;000.516;MIDI 01
114.140;000.048;74;000.539;MIDI 01
114.149;000.041;77;000.430;MIDI 01
114.162;000.081;29;000.531;MIDI 01
114.128;000.121;82;000.570;MIDI 01
114.256;000.060;41;000.555;MIDI 01
114.344;000.082;29;000.562;MIDI 01
114.430;000.045;41;000.539;MIDI 01
114.500;000.058;77;000.586;MIDI 01
114.518;000.086;29;000.602;MIDI 01
114.505;000.128;82;000.570;MIDI 01
114.622;000.052;41;000.516;MIDI 01
114.719;000.041;29;000.484;MIDI 01
114.502;000.261;86;000.602;MIDI 01
114.804;000.052;86;000.117;MIDI 01
114.819;000.043;41;000.273;MIDI 01
114.891;000.130;77;000.633;MIDI 01
114.883;000.231;89;000.688;MIDI 01
114.882;000.240;86;000.492;MIDI 01
114.872;000.270;29;000.633;MIDI 01
114.879;000.288;82;000.562;MIDI 01
115.655;000.090;65;000.594;MIDI 01
115.657;000.103;75;000.578;MIDI 01
115.672;000.117;60;000.484;MIDI 01
115.668;000.150;77;000.547;MIDI 01
115.659;000.230;53;000.539;MIDI 01
115.670;000.253;57;000.500;MIDI 01
115.662;000.263;72;000.547;MIDI 01
115.644;000.338;81;000.656;MIDI 01
116.414;000.082;82;000.531;MIDI 01
116.404;000.149;58;000.562;MIDI 01
116.411;000.209;53;000.508;MIDI 01
116.404;000.226;46;000.492;MIDI 01
116.509;000.128;86;000.578;MIDI 01
116.595;000.099;84;000.562;MIDI 01
116.406;000.290;50;000.492;MIDI 01
116.674;000.083;82;000.555;MIDI 01
116.755;000.047;81;000.578;MIDI 01
116.842;000.048;79;000.562;MIDI 01
116.917;000.050;77;000.531;MIDI 01
117.004;000.074;76;000.562;MIDI 01
117.097;000.075;57;000.602;MIDI 01
117.107;000.071;75;000.562;MIDI 01
117.117;000.084;51;000.492;MIDI 01
117.115;000.202;48;000.547;MIDI 01
117.188;000.146;79;000.578;MIDI 01
117.104;000.271;46;000.578;MIDI 01
117.287;000.098;77;000.586;MIDI 01
117.371;000.090;75;000.523;MIDI 01
117.471;000.026;74;000.492;MIDI 01
117.545;000.046;72;000.523;MIDI 01
117.656;000.042;70;000.461;MIDI 01
117.733;000.044;69;000.531;MIDI 01
117.817;000.085;70;000.555;MIDI 01
117.811;000.111;58;000.578;MIDI 01
117.831;000.175;53;000.477;MIDI 01
117.912;000.139;74;000.594;MIDI 01
117.822;000.244;46;000.523;MIDI 01
117.833;000.263;50;000.469;MIDI 01
117.998;000.115;72;000.547;MIDI 01
118.077;000.086;70;000.555;MIDI 01
118.182;000.030;69;000.570;MIDI 01
118.251;000.039;67;000.523;MIDI 01
118.351;000.034;65;000.539;MIDI 01
118.419;000.056;64;000.531;MIDI 01
118.516;000.036;57;000.539;MIDI 01
118.535;000.047;51;000.438;MIDI 01
118.509;000.078;63;000.547;MIDI 01
118.543;000.092;48;000.469;MIDI 01
118.604;000.124;67;000.594;MIDI 01
118.704;000.084;65;000.539;MIDI 01
118.514;000.285;46;000.578;MIDI 01
118.776;000.070;63;000.539;MIDI 01
118.874;000.041;62;000.523;MIDI 01
118.936;000.051;60;000.484;MIDI 01
119.031;000.054;58;000.523;MIDI 01
119.128;000.054;57;000.445;MIDI 01
119.211;000.053;34;000.344;MIDI 01
119.223;000.051;58;000.469;MIDI 01
119.219;000.058;46;000.305;MIDI 01
119.298;000.076;57;000.453;MIDI 01
119.386;000.052;58;000.516;MIDI 01
119.471;000.030;53;000.383;MIDI 01
119.571;000.038;38;000.391;MIDI 01
119.567;000.045;50;000.414;MIDI 01
119.562;000.055;62;000.461;MIDI 01
119.647;000.068;61;000.453;MIDI 01
119.729;000.040;62;000.523;MIDI 01
119.826;000.023;58;000.453;MIDI 01
119.908;000.026;53;000.539;MIDI 01
119.919;000.031;41;000.445;MIDI 01
119.900;000.085;65;000.516;MIDI 01
120.002;000.055;64;000.508;MIDI 01
120.057;000.044;65;000.367;MIDI 01
120.154;000.048;62;000.523;MIDI 01
120.243;000.036;58;000.570;MIDI 01
120.248;000.040;46;000.484;MIDI 01
120.250;000.054;70;000.539;MIDI 01
120.342;000.089;69;000.531;MIDI 01
120.425;000.062;70;000.594;MIDI 01
120.504;000.047;65;000.484;MIDI 01
120.590;000.032;62;000.648;MIDI 01
120.593;000.033;50;000.484;MIDI 01
120.583;000.084;74;000.570;MIDI 01
120.683;000.061;73;000.523;MIDI 01
120.767;000.039;74;000.516;MIDI 01
120.849;000.034;70;000.539;MIDI 01
120.941;000.028;65;000.656;MIDI 01
120.944;000.040;53;000.531;MIDI 01
120.938;000.084;77;000.555;MIDI 01
121.026;000.078;76;000.609;MIDI 01
121.122;000.033;77;000.383;MIDI 01
121.205;000.030;74;000.555;MIDI 01
121.294;000.026;70;000.625;MIDI 01
121.300;000.023;58;000.477;MIDI 01
121.298;000.066;82;000.555;MIDI 01
121.384;000.076;81;000.570;MIDI 01
121.466;000.081;82;000.539;MIDI 01
121.565;000.055;77;000.516;MIDI 01
121.658;000.017;65;000.477;MIDI 01
121.656;000.022;75;000.562;MIDI 01
121.661;000.074;84;000.641;MIDI 01
121.760;000.079;83;000.562;MIDI 01
121.851;000.058;84;000.484;MIDI 01
121.940;000.062;77;000.508;MIDI 01
122.027;000.018;74;000.453;MIDI 01
122.033;000.031;70;000.484;MIDI 01
122.022;000.066;82;000.516;MIDI 01
122.110;000.066;81;000.492;MIDI 01
122.200;000.065;82;000.523;MIDI 01
122.287;000.044;77;000.508;MIDI 01
122.373;000.021;75;000.586;MIDI 01
122.378;000.033;65;000.453;MIDI 01
122.375;000.085;84;000.617;MIDI 01
122.468;000.080;83;000.578;MIDI 01
122.553;000.053;84;000.547;MIDI 01
122.643;000.054;77;000.523;MIDI 01
122.727;000.030;74;000.406;MIDI 01
122.718;000.046;82;000.539;MIDI 01
122.746;000.026;70;000.359;MIDI 01
122.810;000.064;81;000.523;MIDI 01
122.890;000.075;82;000.555;MIDI 01
122.984;000.061;77;000.523;MIDI 01
123.078;000.035;75;000.414;MIDI 01
123.084;000.036;65;000.352;MIDI 01
123.069;000.083;84;000.586;MIDI 01
123.161;000.079;83;000.539;MIDI 01
123.241;000.066;84;000.516;MIDI 01
123.322;000.064;77;000.484;MIDI 01
123.444;000.052;70;000.328;MIDI 01
123.537;000.054;74;000.375;MIDI 01
123.405;000.241;82;000.461;MIDI 01
123.623;000.060;70;000.500;MIDI 01
123.726;000.043;74;000.438;MIDI 01
123.812;000.021;82;000.398;MIDI 01
123.785;000.053;86;000.555;MIDI 01
123.817;000.067;70;000.516;MIDI 01
123.899;000.074;74;000.531;MIDI 01
124.001;000.039;70;000.523;MIDI 01
124.080;000.048;74;000.469;MIDI 01
124.158;000.031;86;000.578;MIDI 01
124.140;000.057;89;000.672;MIDI 01
124.176;000.052;70;000.477;MIDI 01
124.252;000.064;74;000.547;MIDI 01
124.331;000.070;70;000.562;MIDI 01
124.436;000.044;74;000.570;MIDI 01
124.532;000.026;82;000.586;MIDI 01
124.515;000.052;70;000.562;MIDI 01
124.517;000.052;86;000.688;MIDI 01
124.616;000.038;74;000.398;MIDI 01
124.678;000.065;70;000.539;MIDI 01
124.779;000.043;74;000.539;MIDI 01
124.899;000.019;86;000.672;MIDI 01
124.892;000.037;89;000.734;MIDI 01
124.896;000.078;70;000.586;MIDI 01
125.898;000.026;82;000.344;MIDI 01
125.892;000.034;74;000.320;MIDI 01
125.872;000.056;86;000.398;MIDI 01
125.900;000.035;70;000.281;MIDI 01
126.763;000.068;82;000.359;MIDI 01
126.791;000.062;70;000.250;MIDI 01
126.785;000.091;77;000.258;MIDI 01
126.786;000.124;74;000.211;MIDI 01
128.767;000.150;39;000.375;MIDI 01
128.865;000.054;43;000.344;MIDI 01
128.883;000.081;46;000.484;MIDI 01
128.936;000.066;51;000.664;MIDI 01
128.924;000.315;55;000.531;MIDI 01
128.905;000.377;58;000.547;MIDI 01
128.894;000.462;63;000.586;MIDI 01
129.696;000.327;39;000.500;MIDI 01
129.680;000.421;61;000.555;MIDI 01
129.674;000.429;63;000.570;MIDI 01
129.700;000.405;46;000.492;MIDI 01
129.682;000.425;49;000.594;MIDI 01
129.669;000.457;67;000.648;MIDI 01
129.716;000.424;43;000.438;MIDI 01
130.249;000.071;61;000.617;MIDI 01
130.240;000.082;49;000.703;MIDI 01
130.254;000.070;39;000.508;MIDI 01
130.258;000.073;43;000.445;MIDI 01
130.244;000.169;67;000.664;MIDI 01
130.419;000.539;68;000.664;MIDI 01
130.422;000.614;60;000.664;MIDI 01
130.246;000.906;63;000.586;MIDI 01
130.424;001.224;48;000.648;MIDI 01
130.443;001.214;44;000.500;MIDI 01
131.540;000.134;68;000.523;MIDI 01
131.604;000.098;67;000.586;MIDI 01
131.680;000.070;65;000.609;MIDI 01
131.755;000.031;63;000.562;MIDI 01
131.935;000.208;56;000.523;MIDI 01
131.958;000.218;58;000.414;MIDI 01
131.895;000.318;62;000.633;MIDI 01
131.912;000.493;50;000.445;MIDI 01
131.905;000.508;41;000.484;MIDI 01
130.445;002.133;39;000.555;MIDI 01
131.907;000.721;44;000.406;MIDI 01
132.644;000.240;50;000.492;MIDI 01
132.652;000.243;62;000.492;MIDI 01
132.439;000.482;65;000.609;MIDI 01
132.657;000.351;41;000.430;MIDI 01
132.634;000.490;70;000.648;MIDI 01
132.646;000.487;39;000.445;MIDI 01
133.196;000.119;68;000.523;MIDI 01
133.456;000.323;58;000.352;MIDI 01
133.426;000.368;51;000.398;MIDI 01
133.442;000.366;43;000.336;MIDI 01
133.449;000.360;46;000.328;MIDI 01
133.427;000.568;63;000.500;MIDI 01
133.417;000.690;67;000.578;MIDI 01
133.452;000.656;39;000.328;MIDI 01
135.090;000.118;68;000.188;MIDI 01
135.110;000.099;65;000.164;MIDI 01
135.103;000.109;58;000.203;MIDI 01
135.094;000.614;74;000.289;MIDI 01
135.647;000.177;77;000.320;MIDI 01
135.864;000.209;68;000.242;MIDI 01
135.876;000.203;65;000.227;MIDI 01
135.866;000.279;58;000.234;MIDI 01
135.858;000.519;82;000.438;MIDI 01
136.408;000.132;80;000.391;MIDI 01
136.439;000.190;62;000.195;MIDI 01
136.603;000.311;79;000.344;MIDI 01
136.645;000.283;63;000.234;MIDI 01
137.579;000.036;80;000.312;MIDI 01
137.568;000.096;58;000.234;MIDI 01
137.573;000.126;84;000.312;MIDI 01
137.767;000.044;79;000.258;MIDI 01
137.756;000.075;60;000.289;MIDI 01
137.734;000.126;82;000.438;MIDI 01
137.900;000.081;80;000.430;MIDI 01
137.907;000.139;62;000.344;MIDI 01
138.137;000.043;75;000.344;MIDI 01
138.114;000.098;63;000.320;MIDI 01
138.098;000.155;79;000.477;MIDI 01
139.153;000.065;80;000.391;MIDI 01
139.157;000.086;58;000.281;MIDI 01
139.149;000.138;84;000.391;MIDI 01
139.338;000.042;79;000.352;MIDI 01
139.328;000.093;60;000.336;MIDI 01
139.330;000.141;82;000.445;MIDI 01
139.512;000.045;77;000.188;MIDI 01
139.493;000.091;80;000.453;MIDI 01
139.481;000.168;62;000.367;MIDI 01
139.695;000.221;79;000.438;MIDI 01
139.745;000.203;75;000.297;MIDI 01
139.708;000.254;63;000.344;MIDI 01
140.975;000.035;80;000.312;MIDI 01
141.113;000.042;79;000.453;MIDI 01
140.909;000.264;84;000.562;MIDI 01
141.106;000.177;82;000.547;MIDI 01
141.254;000.033;77;000.461;MIDI 01
141.269;000.079;80;000.484;MIDI 01
141.448;000.037;75;000.453;MIDI 01
141.429;000.105;79;000.555;MIDI 01
141.607;000.042;80;000.594;MIDI 01
141.613;000.073;84;000.609;MIDI 01
141.790;000.026;79;000.602;MIDI 01
141.783;000.064;82;000.625;MIDI 01
141.949;000.035;77;000.562;MIDI 01
141.935;000.069;80;000.664;MIDI 01
142.119;000.032;75;000.594;MIDI 01
142.105;000.067;79;000.641;MIDI 01
142.326;000.067;79;000.656;MIDI 01
142.328;000.099;82;000.633;MIDI 01
142.523;000.041;77;000.594;MIDI 01
142.507;000.058;80;000.656;MIDI 01
142.689;000.036;75;000.578;MIDI 01
142.673;000.073;79;000.625;MIDI 01
142.845;000.030;74;000.617;MIDI 01
142.842;000.068;77;000.617;MIDI 01
142.997;000.027;75;000.602;MIDI 01
143.003;000.044;72;000.555;MIDI 01
143.169;000.042;70;000.562;MIDI 01
143.167;000.052;74;000.555;MIDI 01
143.330;000.040;68;000.531;MIDI 01
143.321;000.056;72;000.570;MIDI 01
143.507;000.031;67;000.516;MIDI 01
143.493;000.050;70;000.570;MIDI 01
143.659;000.040;68;000.523;MIDI 01
143.668;000.039;65;000.508;MIDI 01
143.844;000.039;63;000.477;MIDI 01
143.830;000.055;67;000.523;MIDI 01
143.994;000.042;65;000.547;MIDI 01
144.022;000.025;62;000.430;MIDI 01
144.285;000.121;48;000.227;MIDI 01
144.467;000.146;56;000.219;MIDI 01
144.634;000.120;48;000.297;MIDI 01
144.820;000.097;56;000.289;MIDI 01
144.251;000.774;63;000.492;MIDI 01
144.998;000.108;48;000.289;MIDI 01
145.180;000.106;56;000.289;MIDI 01
145.521;000.051;65;000.391;MIDI 01
145.342;000.235;48;000.312;MIDI 01
145.590;000.054;63;000.445;MIDI 01
145.556;000.097;56;000.242;MIDI 01
145.705;000.183;46;000.258;MIDI 01
145.876;000.110;56;000.289;MIDI 01
145.689;000.341;62;000.414;MIDI 01
146.060;000.092;46;000.320;MIDI 01
146.203;000.149;56;000.367;MIDI 01
146.433;000.090;46;000.211;MIDI 01
146.578;000.098;55;000.320;MIDI 01
146.754;000.174;46;000.297;MIDI 01
146.384;000.707;61;000.539;MIDI 01
146.932;000.167;55;000.312;MIDI 01
147.122;000.130;44;000.336;MIDI 01
147.290;000.118;55;000.320;MIDI 01
147.472;000.087;44;000.305;MIDI 01
147.632;000.101;55;000.328;MIDI 01
147.833;000.101;44;000.297;MIDI 01
147.099;000.995;60;000.406;MIDI 01
148.009;000.119;53;000.312;MIDI 01
148.160;000.141;44;000.328;MIDI 01
148.354;000.043;62;000.336;MIDI 01
148.356;000.103;53;000.258;MIDI 01
148.429;000.040;60;000.375;MIDI 01
148.534;000.119;43;000.250;MIDI 01
148.514;000.198;58;000.398;MIDI 01
148.701;000.131;53;000.234;MIDI 01
148.866;000.134;43;000.367;MIDI 01
149.059;000.049;60;000.359;MIDI 01
149.028;000.120;53;000.336;MIDI 01
149.116;000.111;62;000.438;MIDI 01
149.227;000.149;43;000.336;MIDI 01
149.407;000.098;51;000.375;MIDI 01
149.202;000.305;63;000.492;MIDI 01
149.567;000.111;43;000.422;MIDI 01
149.732;000.056;65;000.461;MIDI 01
149.748;000.110;51;000.320;MIDI 01
149.798;000.186;67;000.469;MIDI 01
149.931;000.144;41;000.375;MIDI 01
150.088;000.094;50;000.391;MIDI 01
150.248;000.128;41;000.461;MIDI 01
150.452;000.184;50;000.422;MIDI 01
149.893;000.832;68;000.562;MIDI 01
150.633;000.258;39;000.438;MIDI 01
150.619;000.306;67;000.562;MIDI 01
150.814;000.186;43;000.531;MIDI 01
150.981;000.128;46;000.539;MIDI 01
151.099;000.053;51;000.469;MIDI 01
151.331;000.044;56;000.445;MIDI 01
151.335;000.047;44;000.398;MIDI 01
151.348;000.051;60;000.398;MIDI 01
151.324;000.077;65;000.430;MIDI 01
152.146;000.068;62;000.305;MIDI 01
152.164;000.065;46;000.242;MIDI 01
152.155;000.076;56;000.266;MIDI 01
152.166;000.072;53;000.305;MIDI 01
153.089;000.250;51;000.453;MIDI 01
153.076;000.269;63;000.547;MIDI 01
153.079;000.288;67;000.562;MIDI 01
153.073;000.363;70;000.555;MIDI 01
153.065;000.415;75;000.617;MIDI 01
153.091;000.400;55;000.445;MIDI 01
153.086;000.440;58;000.484;MIDI 01
153.844;000.215;51;000.555;MIDI 01
153.836;000.296;75;000.555;MIDI 01
153.842;000.373;73;000.562;MIDI 01
153.839;000.391;58;000.492;MIDI 01
153.832;000.641;61;000.609;MIDI 01
153.823;000.685;79;000.664;MIDI 01
153.843;000.704;55;000.500;MIDI 01
154.395;000.308;75;000.688;MIDI 01
154.611;000.410;72;000.594;MIDI 01
154.598;000.849;80;000.664;MIDI 01
155.473;000.140;84;000.531;MIDI 01
155.564;000.128;82;000.562;MIDI 01
155.641;000.091;80;000.609;MIDI 01
155.717;000.072;79;000.641;MIDI 01
154.657;001.148;51;000.414;MIDI 01
154.632;001.176;56;000.461;MIDI 01
155.805;000.080;77;000.586;MIDI 01
155.893;000.066;75;000.586;MIDI 01
155.963;000.033;74;000.633;MIDI 01
154.609;001.396;60;000.625;MIDI 01
156.042;000.088;72;000.570;MIDI 01
156.127;000.095;70;000.578;MIDI 01
156.133;000.165;62;000.641;MIDI 01
156.215;000.112;68;000.547;MIDI 01
156.139;000.192;58;000.523;MIDI 01
156.144;000.209;56;000.531;MIDI 01
156.298;000.065;67;000.602;MIDI 01
156.389;000.076;65;000.586;MIDI 01
156.470;000.070;63;000.555;MIDI 01
156.553;000.029;62;000.555;MIDI 01
156.630;000.077;60;000.555;MIDI 01
156.723;000.062;58;000.508;MIDI 01
156.805;000.076;56;000.508;MIDI 01
156.141;000.780;53;000.555;MIDI 01
156.894;000.037;55;000.516;MIDI 01
156.971;000.048;53;000.344;MIDI 01
157.046;000.044;51;000.508;MIDI 01
157.106;000.036;50;000.547;MIDI 01
157.172;000.070;48;000.586;MIDI 01
157.242;000.075;46;000.547;MIDI 01
157.302;000.059;44;000.578;MIDI 01
157.367;000.045;43;000.578;MIDI 01
157.423;000.033;41;000.578;MIDI 01
157.512;000.440;39;000.586;MIDI 01
158.634;000.160;84;000.281;MIDI 01
158.812;000.117;79;000.312;MIDI 01
158.637;000.473;75;000.320;MIDI 01
159.001;000.140;84;000.359;MIDI 01
159.167;000.049;77;000.367;MIDI 01
159.195;000.095;79;000.281;MIDI 01
159.248;000.053;75;000.352;MIDI 01
159.324;000.164;84;000.414;MIDI 01
159.517;000.141;77;000.391;MIDI 01
159.699;000.141;84;000.375;MIDI 01
159.877;000.119;77;000.336;MIDI 01
160.054;000.132;82;000.359;MIDI 01
159.334;000.966;74;000.344;MIDI 01
160.219;000.136;77;000.367;MIDI 01
160.401;000.133;82;000.383;MIDI 01
160.564;000.114;77;000.375;MIDI 01
160.748;000.147;82;000.359;MIDI 01
160.043;000.859;73;000.438;MIDI 01
160.922;000.109;76;000.398;MIDI 01
161.108;000.122;82;000.352;MIDI 01
161.256;000.141;76;000.398;MIDI 01
161.461;000.133;80;000.398;MIDI 01
161.634;000.107;75;000.359;MIDI 01
160.764;001.142;72;000.398;MIDI 01
161.801;000.154;80;000.406;MIDI 01
161.989;000.036;74;000.344;MIDI 01
162.061;000.055;72;000.328;MIDI 01
161.998;000.134;75;000.398;MIDI 01
162.156;000.132;80;000.383;MIDI 01
162.334;000.126;74;000.406;MIDI 01
162.502;000.121;80;000.383;MIDI 01
162.661;000.184;74;000.430;MIDI 01
162.844;000.151;79;000.445;MIDI 01
162.157;000.923;70;000.422;MIDI 01
163.018;000.137;73;000.422;MIDI 01
163.190;000.136;79;000.438;MIDI 01
163.352;000.047;72;000.367;MIDI 01
163.424;000.076;70;000.461;MIDI 01
163.372;000.153;73;000.398;MIDI 01
163.533;000.141;79;000.383;MIDI 01
163.713;000.092;72;000.445;MIDI 01
163.524;000.307;69;000.453;MIDI 01
163.880;000.190;79;000.453;MIDI 01
164.035;000.152;72;000.445;MIDI 01
164.235;000.131;77;000.461;MIDI 01
164.392;000.117;72;000.430;MIDI 01
164.216;000.489;68;000.516;MIDI 01
164.568;000.142;77;000.438;MIDI 01
164.751;000.039;70;000.383;MIDI 01
164.762;000.096;72;000.383;MIDI 01
164.807;000.060;68;000.383;MIDI 01
164.917;000.151;77;000.391;MIDI 01
165.096;000.132;70;000.398;MIDI 01
165.268;000.136;77;000.398;MIDI 01
165.442;000.107;70;000.359;MIDI 01
165.648;000.145;75;000.359;MIDI 01
164.894;000.916;67;000.398;MIDI 01
165.825;000.114;70;000.398;MIDI 01
165.989;000.114;75;000.414;MIDI 01
166.158;000.149;70;000.328;MIDI 01
166.343;000.108;75;000.328;MIDI 01
165.635;000.884;66;000.398;MIDI 01
166.523;000.132;69;000.359;MIDI 01
166.704;000.177;75;000.336;MIDI 01
166.861;000.180;69;000.359;MIDI 01
166.336;000.830;65;000.398;MIDI 01
167.048;000.120;73;000.375;MIDI 01
167.055;000.264;64;000.336;MIDI 01
167.229;000.108;70;000.359;MIDI 01
167.414;000.110;73;000.359;MIDI 01
167.561;000.106;70;000.328;MIDI 01
167.768;000.195;69;000.234;MIDI 01
167.957;000.151;72;000.344;MIDI 01
167.793;000.408;65;000.180;MIDI 01
168.144;000.110;77;000.398;MIDI 01
168.296;000.124;72;000.422;MIDI 01
168.669;000.083;69;000.445;MIDI 01
168.488;000.270;78;000.461;MIDI 01
168.492;000.306;63;000.320;MIDI 01
168.840;000.112;81;000.555;MIDI 01
169.019;000.041;65;000.258;MIDI 01
169.018;000.118;72;000.461;MIDI 01
169.085;000.083;63;000.414;MIDI 01
169.188;000.161;82;000.539;MIDI 01
169.353;000.124;70;000.484;MIDI 01
169.181;000.403;61;000.438;MIDI 01
169.545;000.161;78;000.516;MIDI 01
169.694;000.129;70;000.445;MIDI 01
169.553;000.282;58;000.375;MIDI 01
169.895;000.193;77;000.438;MIDI 01
170.056;000.135;70;000.352;MIDI 01
169.891;000.334;60;000.320;MIDI 01
167.786;002.547;53;000.242;MIDI 01
170.275;000.229;61;000.297;MIDI 01
170.251;000.259;76;000.383;MIDI 01
170.412;000.156;70;000.328;MIDI 01
170.620;000.141;77;000.312;MIDI 01
170.802;000.141;69;000.289;MIDI 01
170.991;000.134;72;000.266;MIDI 01
170.608;000.598;60;000.203;MIDI 01
171.159;000.130;69;000.312;MIDI 01
171.498;000.074;69;000.305;MIDI 01
171.351;000.291;78;000.352;MIDI 01
171.327;000.417;63;000.273;MIDI 01
171.701;000.079;81;000.367;MIDI 01
171.902;000.045;65;000.227;MIDI 01
171.884;000.108;72;000.359;MIDI 01
171.959;000.066;63;000.336;MIDI 01
172.048;000.125;82;000.391;MIDI 01
172.234;000.089;70;000.383;MIDI 01
172.075;000.419;61;000.312;MIDI 01
172.410;000.158;78;000.430;MIDI 01
172.579;000.096;70;000.422;MIDI 01
172.900;000.091;70;000.477;MIDI 01
172.408;000.596;58;000.352;MIDI 01
172.746;000.354;60;000.453;MIDI 01
172.752;000.476;77;000.523;MIDI 01
170.631;002.666;53;000.203;MIDI 01
173.267;000.152;70;000.508;MIDI 01
173.104;000.491;76;000.609;MIDI 01
173.115;000.562;61;000.430;MIDI 01
173.485;000.263;60;000.375;MIDI 01
173.637;000.141;69;000.516;MIDI 01
173.471;000.451;77;000.609;MIDI 01
173.824;000.260;72;000.547;MIDI 01
173.986;000.148;69;000.492;MIDI 01
174.159;000.218;77;000.617;MIDI 01
174.303;000.159;72;000.508;MIDI 01
174.402;000.122;69;000.500;MIDI 01
174.510;000.193;77;000.617;MIDI 01
174.634;000.119;72;000.562;MIDI 01
174.170;000.662;57;000.500;MIDI 01
174.745;000.136;69;000.531;MIDI 01
174.166;000.848;60;000.469;MIDI 01
174.867;000.176;76;000.617;MIDI 01
174.995;000.120;70;000.547;MIDI 01
175.119;000.100;67;000.438;MIDI 01
175.213;000.098;76;000.508;MIDI 01
175.333;000.099;70;000.469;MIDI 01
174.881;000.588;61;000.422;MIDI 01
175.469;000.054;67;000.422;MIDI 01
174.869;000.664;58;000.367;MIDI 01
175.574;000.098;75;000.422;MIDI 01
175.697;000.090;72;000.438;MIDI 01
175.814;000.076;65;000.414;MIDI 01
175.589;000.374;60;000.258;MIDI 01
175.926;000.093;75;000.438;MIDI 01
175.598;000.484;57;000.273;MIDI 01
173.455;002.661;53;000.320;MIDI 01
176.057;000.069;72;000.391;MIDI 01
176.177;000.023;65;000.391;MIDI 01
176.474;000.226;46;000.492;MIDI 01
176.468;000.244;62;000.586;MIDI 01
176.469;000.280;58;000.586;MIDI 01
176.454;000.304;65;000.430;MIDI 01
176.481;000.370;53;000.445;MIDI 01
176.485;000.409;50;000.406;MIDI 01
176.458;000.439;70;000.648;MIDI 01
177.241;000.347;70;000.531;MIDI 01
177.252;000.350;68;000.523;MIDI 01
177.264;000.351;46;000.453;MIDI 01
177.261;000.357;53;000.445;MIDI 01
177.243;000.626;56;000.602;MIDI 01
177.228;000.679;74;000.688;MIDI 01
177.253;000.685;50;000.406;MIDI 01
177.802;000.364;70;000.641;MIDI 01
178.014;000.433;67;000.617;MIDI 01
178.011;000.975;75;000.641;MIDI 01
179.020;000.120;79;000.508;MIDI 01
179.096;000.103;77;000.562;MIDI 01
178.009;001.241;55;000.625;MIDI 01
179.153;000.098;75;000.547;MIDI 01
179.247;000.034;74;000.586;MIDI 01
178.048;001.301;51;000.445;MIDI 01
179.314;000.092;72;000.578;MIDI 01
178.054;001.356;46;000.438;MIDI 01
179.409;000.075;70;000.578;MIDI 01
179.493;000.071;69;000.617;MIDI 01
179.576;000.045;70;000.523;MIDI 01
179.653;000.081;72;000.586;MIDI 01
179.739;000.072;74;000.586;MIDI 01
179.815;000.041;75;000.594;MIDI 01
179.909;000.070;77;000.594;MIDI 01
179.964;000.119;79;000.602;MIDI 01
180.051;000.053;81;000.539;MIDI 01
180.104;000.032;82;000.562;MIDI 01
180.195;000.128;84;000.617;MIDI 01
180.334;000.141;87;000.648;MIDI 01
180.255;000.240;86;000.617;MIDI 01
179.468;001.096;57;000.625;MIDI 01
179.484;001.136;51;000.555;MIDI 01
180.423;000.208;89;000.648;MIDI 01
179.478;001.177;46;000.430;MIDI 01
179.482;001.192;48;000.578;MIDI 01
180.600;000.154;87;000.664;MIDI 01
180.801;000.102;86;000.484;MIDI 01
180.996;000.069;84;000.484;MIDI 01
181.164;000.057;82;000.492;MIDI 01
181.333;000.081;81;000.500;MIDI 01
180.819;000.728;50;000.258;MIDI 01
180.802;000.747;58;000.383;MIDI 01
180.832;000.742;46;000.297;MIDI 01
180.817;000.759;53;000.266;MIDI 01
181.523;000.064;79;000.508;MIDI 01
181.700;000.042;77;000.461;MIDI 01
181.881;000.057;75;000.453;MIDI 01
182.057;000.049;74;000.422;MIDI 01
182.242;000.050;72;000.508;MIDI 01
182.377;000.082;70;000.484;MIDI 01
182.482;000.051;69;000.523;MIDI 01
182.617;000.059;72;000.570;MIDI 01
182.690;000.048;74;000.562;MIDI 01
182.747;000.036;75;000.562;MIDI 01
182.828;000.072;77;000.570;MIDI 01
182.885;000.079;79;000.617;MIDI 01
182.967;000.036;81;000.492;MIDI 01
183.000;000.028;82;000.594;MIDI 01
183.116;000.024;82;000.188;MIDI 01
183.085;000.070;84;000.641;MIDI 01
183.135;000.090;86;000.633;MIDI 01
183.204;000.039;87;000.500;MIDI 01
183.243;000.045;88;000.484;MIDI 01
183.277;000.065;89;000.648;MIDI 01
182.207;001.174;57;000.617;MIDI 01
182.244;001.154;51;000.461;MIDI 01
182.239;001.232;46;000.445;MIDI 01
182.238;001.249;48;000.523;MIDI 01
183.466;000.027;87;000.648;MIDI 01
183.616;000.037;86;000.656;MIDI 01
183.678;000.072;87;000.523;MIDI 01
183.761;000.034;86;000.562;MIDI 01
183.826;000.027;84;000.461;MIDI 01
183.980;000.048;82;000.547;MIDI 01
184.039;000.072;84;000.484;MIDI 01
184.115;000.077;82;000.555;MIDI 01
184.196;000.033;81;000.469;MIDI 01
183.643;000.738;50;000.336;MIDI 01
183.657;000.725;46;000.352;MIDI 01
184.340;000.045;79;000.633;MIDI 01
183.666;000.722;53;000.297;MIDI 01
184.401;000.071;81;000.375;MIDI 01
184.485;000.045;79;000.578;MIDI 01
184.557;000.022;77;000.422;MIDI 01
183.644;000.946;58;000.367;MIDI 01
184.710;000.039;75;000.594;MIDI 01
184.757;000.080;77;000.469;MIDI 01
184.841;000.073;75;000.562;MIDI 01
184.931;000.033;74;000.484;MIDI 01
185.314;000.184;74;000.273;MIDI 01
185.274;000.296;51;000.312;MIDI 01
185.570;000.200;55;000.266;MIDI 01
185.568;000.205;77;000.383;MIDI 01
185.269;000.631;79;000.469;MIDI 01
185.779;000.128;57;000.320;MIDI 01
185.773;000.153;75;000.414;MIDI 01
185.964;000.144;59;000.383;MIDI 01
185.944;000.266;74;000.453;MIDI 01
186.304;000.067;82;000.492;MIDI 01
186.484;000.174;81;000.547;MIDI 01
186.136;000.536;60;000.297;MIDI 01
186.706;000.157;58;000.344;MIDI 01
186.123;000.782;75;000.422;MIDI 01
186.647;000.282;79;000.602;MIDI 01
186.879;000.119;57;000.344;MIDI 01
187.015;000.101;74;000.500;MIDI 01
187.041;000.129;65;000.398;MIDI 01
187.360;000.056;72;000.469;MIDI 01
187.214;000.267;67;000.492;MIDI 01
187.203;000.281;75;000.445;MIDI 01
186.838;000.666;77;000.555;MIDI 01
187.368;000.414;69;000.562;MIDI 01
187.584;000.536;70;000.500;MIDI 01
187.574;000.571;74;000.469;MIDI 01
187.751;000.408;82;000.461;MIDI 01
187.939;000.320;81;000.523;MIDI 01
188.114;000.216;79;000.500;MIDI 01
188.297;000.168;77;000.484;MIDI 01
188.474;000.184;76;000.453;MIDI 01
188.662;000.172;79;000.453;MIDI 01
188.834;000.185;77;000.414;MIDI 01
188.357;001.001;67;000.344;MIDI 01
188.304;001.177;70;000.344;MIDI 01
189.033;000.460;76;000.414;MIDI 01
188.284;001.261;72;000.477;MIDI 01
189.216;000.397;82;000.430;MIDI 01
189.396;000.253;81;000.508;MIDI 01
189.578;000.194;79;000.500;MIDI 01
189.760;000.160;77;000.484;MIDI 01
189.955;000.153;76;000.453;MIDI 01
190.132;000.176;79;000.461;MIDI 01
190.308;000.199;77;000.469;MIDI 01
190.492;000.208;76;000.453;MIDI 01
190.672;000.182;82;000.430;MIDI 01
190.858;000.214;81;000.477;MIDI 01
191.041;000.194;79;000.469;MIDI 01
191.220;000.170;77;000.422;MIDI 01
189.777;001.693;73;000.586;MIDI 01
191.401;000.164;76;000.438;MIDI 01
191.590;000.144;79;000.438;MIDI 01
191.751;000.167;77;000.438;MIDI 01
191.204;000.882;72;000.391;MIDI 01
191.946;000.156;76;000.367;MIDI 01
192.121;000.175;82;000.383;MIDI 01
192.309;000.119;79;000.406;MIDI 01
189.820;002.780;67;000.406;MIDI 01
192.479;000.161;76;000.430;MIDI 01
191.925;000.807;70;000.352;MIDI 01
192.670;000.151;79;000.406;MIDI 01
192.852;000.141;77;000.414;MIDI 01
193.045;000.157;76;000.422;MIDI 01
192.672;000.595;69;000.273;MIDI 01
192.676;000.633;65;000.266;MIDI 01
193.218;000.142;77;000.422;MIDI 01
193.405;000.161;76;000.422;MIDI 01
193.567;000.113;77;000.391;MIDI 01
193.697;000.072;55;000.406;MIDI 01
193.699;000.135;58;000.492;MIDI 01
193.714;000.123;63;000.484;MIDI 01
193.731;000.114;70;000.562;MIDI 01
193.773;000.079;67;000.531;MIDI 01
193.778;000.078;75;000.523;MIDI 01
193.761;000.215;79;000.281;MIDI 01
193.843;000.154;82;000.602;MIDI 01
193.984;000.045;75;000.555;MIDI 01
194.173;000.148;75;000.508;MIDI 01
194.358;000.123;74;000.445;MIDI 01
194.557;000.119;73;000.422;MIDI 01
194.177;000.541;69;000.328;MIDI 01
194.184;000.606;65;000.320;MIDI 01
194.724;000.140;74;000.461;MIDI 01
194.934;000.146;73;000.398;MIDI 01
195.084;000.041;74;000.398;MIDI 01
195.186;000.125;51;000.469;MIDI 01
195.210;000.115;55;000.453;MIDI 01
195.241;000.107;67;000.555;MIDI 01
195.290;000.078;60;000.438;MIDI 01
195.287;000.092;72;000.508;MIDI 01
195.333;000.136;75;000.555;MIDI 01
195.387;000.113;79;000.578;MIDI 01
195.512;000.040;72;000.570;MIDI 01
195.714;000.149;72;000.344;MIDI 01
195.897;000.109;70;000.453;MIDI 01
195.708;000.452;65;000.352;MIDI 01
195.710;000.508;62;000.344;MIDI 01
196.088;000.139;69;000.406;MIDI 01
196.266;000.164;70;000.430;MIDI 01
196.463;000.145;69;000.359;MIDI 01
196.596;000.047;70;000.477;MIDI 01
196.801;000.074;65;000.461;MIDI 01
196.867;000.077;70;000.516;MIDI 01
196.901;000.077;74;000.508;MIDI 01
196.847;000.135;62;000.367;MIDI 01
196.722;000.315;50;000.359;MIDI 01
196.948;000.091;77;000.555;MIDI 01
196.803;000.247;58;000.406;MIDI 01
196.751;000.322;53;000.391;MIDI 01
197.185;000.030;70;000.414;MIDI 01
197.484;000.046;69;000.359;MIDI 01
197.568;000.096;79;000.500;MIDI 01
197.671;000.048;77;000.438;MIDI 01
197.498;000.268;57;000.219;MIDI 01
197.734;000.047;75;000.445;MIDI 01
197.501;000.295;51;000.227;MIDI 01
197.510;000.287;53;000.258;MIDI 01
197.491;000.311;60;000.289;MIDI 01
197.819;000.020;74;000.445;MIDI 01
197.886;000.033;72;000.430;MIDI 01
197.986;000.029;70;000.453;MIDI 01
198.073;000.043;69;000.500;MIDI 01
198.144;000.039;70;000.438;MIDI 01
198.253;000.040;77;000.445;MIDI 01
198.165;000.188;62;000.312;MIDI 01
198.177;000.217;50;000.266;MIDI 01
198.171;000.242;58;000.312;MIDI 01
198.317;000.098;79;000.531;MIDI 01
198.182;000.258;53;000.352;MIDI 01
198.404;000.068;77;000.484;MIDI 01
198.482;000.050;75;000.453;MIDI 01
198.570;000.029;74;000.461;MIDI 01
198.642;000.046;72;000.484;MIDI 01
198.741;000.033;70;000.453;MIDI 01
198.829;000.029;69;000.430;MIDI 01
198.900;000.091;79;000.453;MIDI 01
198.979;000.073;77;000.500;MIDI 01
198.817;000.274;57;000.305;MIDI 01
198.834;000.265;51;000.305;MIDI 01
198.821;000.301;60;000.367;MIDI 01
199.042;000.090;75;000.523;MIDI 01
198.832;000.325;53;000.336;MIDI 01
199.137;000.044;74;000.539;MIDI 01
199.213;000.091;72;000.523;MIDI 01
199.311;000.082;70;000.562;MIDI 01
199.400;000.079;69;000.570;MIDI 01
199.537;000.030;70;000.352;MIDI 01
199.579;000.076;72;000.523;MIDI 01
199.498;000.217;62;000.516;MIDI 01
199.661;000.072;74;000.625;MIDI 01
199.507;000.253;50;000.438;MIDI 01
199.746;000.040;75;000.594;MIDI 01
199.496;000.340;58;000.484;MIDI 01
199.509;000.349;53;000.469;MIDI 01
199.833;000.077;77;000.586;MIDI 01
199.912;000.074;79;000.547;MIDI 01
199.997;000.080;80;000.547;MIDI 01
200.085;000.087;82;000.555;MIDI 01
200.188;000.079;80;000.586;MIDI 01
200.274;000.084;82;000.539;MIDI 01
200.370;000.119;84;000.562;MIDI 01
200.454;000.108;82;000.570;MIDI 01
200.542;000.081;80;000.609;MIDI 01
200.621;000.051;79;000.594;MIDI 01
200.704;000.070;77;000.555;MIDI 01
200.778;000.070;75;000.617;MIDI 01
200.887;000.080;74;000.578;MIDI 01
200.978;000.052;75;000.547;MIDI 01
201.042;000.100;77;000.570;MIDI 01
200.183;000.975;50;000.547;MIDI 01
201.126;000.081;75;000.594;MIDI 01
201.214;000.037;74;000.625;MIDI 01
200.185;001.110;56;000.570;MIDI 01
200.173;001.134;62;000.625;MIDI 01
200.177;001.164;58;000.578;MIDI 01
201.289;000.066;72;000.523;MIDI 01
201.383;000.040;70;000.523;MIDI 01
200.189;001.249;53;000.555;MIDI 01
201.476;000.051;68;000.477;MIDI 01
201.598;000.054;67;000.414;MIDI 01
201.891;000.045;79;000.344;MIDI 01
202.073;000.041;78;000.367;MIDI 01
202.266;000.030;81;000.344;MIDI 01
201.621;000.743;51;000.281;MIDI 01
201.623;000.744;55;000.289;MIDI 01
201.599;000.769;63;000.328;MIDI 01
201.578;000.793;58;000.258;MIDI 01
202.441;000.034;79;000.352;MIDI 01
202.622;000.029;82;000.367;MIDI 01
202.790;000.037;78;000.430;MIDI 01
202.958;000.049;81;000.516;MIDI 01
203.153;000.035;79;000.555;MIDI 01
203.325;000.068;82;000.531;MIDI 01
203.506;000.049;78;000.586;MIDI 01
203.508;000.069;66;000.453;MIDI 01
203.704;000.038;69;000.516;MIDI 01
203.688;000.069;81;000.680;MIDI 01
203.881;000.049;67;000.531;MIDI 01
203.880;000.061;79;000.664;MIDI 01
204.101;000.044;70;000.531;MIDI 01
204.076;000.081;82;000.656;MIDI 01
204.346;000.088;67;000.453;MIDI 01
204.339;000.114;79;000.586;MIDI 01
204.529;000.102;63;000.414;MIDI 01
204.510;000.135;75;000.617;MIDI 01
204.659;000.034;60;000.453;MIDI 01
204.657;000.367;72;000.641;MIDI 01
204.942;000.516;70;000.586;MIDI 01
205.522;000.047;72;000.430;MIDI 01
205.579;000.038;70;000.547;MIDI 01
205.658;000.036;69;000.500;MIDI 01
205.702;000.090;70;000.570;MIDI 01
205.819;000.228;69;000.414;MIDI 01
204.959;001.136;62;000.383;MIDI 01
205.826;000.514;63;000.414;MIDI 01
204.964;001.535;53;000.367;MIDI 01
205.803;000.711;74;000.617;MIDI 01
206.434;000.320;72;000.516;MIDI 01
206.818;000.370;62;000.211;MIDI 01
206.761;000.521;70;000.398;MIDI 01
206.816;000.475;58;000.227;MIDI 01
207.791;000.098;89;000.367;MIDI 01
207.877;000.031;86;000.430;MIDI 01
207.900;000.046;74;000.281;MIDI 01
207.898;000.050;70;000.297;MIDI 01
208.177;000.074;89;000.352;MIDI 01
208.228;000.037;72;000.305;MIDI 01
208.235;000.038;84;000.484;MIDI 01
208.232;000.044;65;000.305;MIDI 01
208.524;000.085;89;000.391;MIDI 01
208.622;000.019;82;000.398;MIDI 01
208.608;000.309;62;000.258;MIDI 01
208.916;000.065;89;000.406;MIDI 01
208.626;000.360;70;000.188;MIDI 01
208.984;000.034;77;000.406;MIDI 01
209.275;000.056;89;000.375;MIDI 01
209.329;000.029;86;000.500;MIDI 01
209.345;000.062;74;000.383;MIDI 01
209.351;000.067;70;000.328;MIDI 01
209.627;000.082;89;000.453;MIDI 01
209.702;000.026;84;000.484;MIDI 01
209.705;000.031;72;000.305;MIDI 01
209.703;000.036;65;000.312;MIDI 01
209.989;000.067;89;000.391;MIDI 01
210.074;000.027;82;000.414;MIDI 01
210.360;000.064;89;000.375;MIDI 01
210.082;000.357;62;000.164;MIDI 01
210.083;000.366;70;000.227;MIDI 01
210.444;000.027;77;000.391;MIDI 01
210.715;000.094;89;000.383;MIDI 01
210.805;000.027;80;000.484;MIDI 01
210.808;000.048;70;000.305;MIDI 01
210.804;000.056;62;000.312;MIDI 01
211.086;000.096;89;000.383;MIDI 01
211.171;000.042;78;000.453;MIDI 01
211.173;000.047;70;000.375;MIDI 01
211.176;000.047;62;000.312;MIDI 01
211.457;000.070;89;000.312;MIDI 01
211.535;000.052;79;000.375;MIDI 01
211.846;000.042;83;000.406;MIDI 01
211.932;000.051;84;000.484;MIDI 01
211.548;000.467;70;000.281;MIDI 01
212.207;000.109;86;000.547;MIDI 01
212.303;000.097;87;000.609;MIDI 01
211.567;000.977;63;000.109;MIDI 01
212.606;000.055;86;000.398;MIDI 01
212.667;000.049;84;000.461;MIDI 01
211.936;000.946;67;000.359;MIDI 01
212.956;000.091;82;000.406;MIDI 01
213.037;000.080;81;000.438;MIDI 01
212.672;000.506;64;000.336;MIDI 01
213.311;000.057;79;000.430;MIDI 01
213.380;000.083;77;000.453;MIDI 01
213.044;000.567;65;000.414;MIDI 01
212.312;001.383;72;000.383;MIDI 01
213.686;000.099;76;000.484;MIDI 01
213.755;000.104;77;000.531;MIDI 01
213.765;000.145;69;000.570;MIDI 01
213.394;000.532;67;000.531;MIDI 01
214.053;000.092;79;000.508;MIDI 01
214.143;000.039;77;000.594;MIDI 01
214.140;000.056;65;000.492;MIDI 01
214.134;000.126;57;000.531;MIDI 01
214.411;000.047;75;000.477;MIDI 01
214.494;000.065;73;000.555;MIDI 01
214.499;000.131;58;000.477;MIDI 01
214.508;000.132;61;000.508;MIDI 01
214.571;000.115;75;000.523;MIDI 01
214.670;000.073;73;000.570;MIDI 01
214.692;000.131;65;000.453;MIDI 01
214.750;000.076;72;000.508;MIDI 01
214.831;000.030;70;000.562;MIDI 01
214.873;000.105;61;000.391;MIDI 01
214.875;000.110;58;000.398;MIDI 01
215.020;000.043;70;000.461;MIDI 01
215.039;000.097;65;000.461;MIDI 01
215.202;000.086;75;000.625;MIDI 01
215.200;000.128;60;000.484;MIDI 01
215.191;000.140;57;000.531;MIDI 01
215.297;000.134;77;000.625;MIDI 01
215.393;000.097;75;000.609;MIDI 01
215.391;000.109;65;000.469;MIDI 01
215.482;000.071;73;000.562;MIDI 01
215.553;000.033;72;000.609;MIDI 01
215.561;000.117;60;000.398;MIDI 01
215.736;000.046;72;000.438;MIDI 01
215.739;000.181;65;000.477;MIDI 01
215.557;000.367;57;000.430;MIDI 01
215.928;000.058;73;000.594;MIDI 01
215.924;000.128;58;000.445;MIDI 01
215.920;000.144;61;000.469;MIDI 01
216.009;000.125;75;000.602;MIDI 01
216.096;000.085;73;000.594;MIDI 01
216.094;000.119;65;000.398;MIDI 01
216.177;000.067;72;000.625;MIDI 01
216.275;000.027;70;000.555;MIDI 01
216.272;000.145;61;000.430;MIDI 01
216.285;000.133;58;000.367;MIDI 01
216.443;000.043;70;000.477;MIDI 01
216.469;000.107;65;000.453;MIDI 01
216.633;000.079;75;000.633;MIDI 01
216.631;000.100;57;000.516;MIDI 01
216.636;000.098;60;000.523;MIDI 01
216.728;000.126;77;000.578;MIDI 01
216.824;000.071;65;000.469;MIDI 01
216.822;000.083;75;000.586;MIDI 01
216.899;000.083;73;000.586;MIDI 01
216.990;000.022;72;000.578;MIDI 01
216.997;000.065;57;000.469;MIDI 01
216.992;000.072;60;000.492;MIDI 01
217.170;000.031;65;000.430;MIDI 01
217.182;000.032;57;000.320;MIDI 01
217.168;000.055;72;000.398;MIDI 01
217.380;000.035;73;000.367;MIDI 01
217.369;000.059;61;000.430;MIDI 01
217.463;000.099;75;000.477;MIDI 01
217.420;000.144;49;000.266;MIDI 01
217.544;000.103;73;000.477;MIDI 01
217.639;000.045;72;000.484;MIDI 01
217.724;000.039;70;000.547;MIDI 01
217.726;000.062;58;000.445;MIDI 01
217.740;000.184;46;000.375;MIDI 01
217.806;000.128;72;000.547;MIDI 01
217.882;000.110;70;000.523;MIDI 01
217.985;000.067;68;000.586;MIDI 01
218.078;000.036;54;000.523;MIDI 01
218.067;000.069;66;000.570;MIDI 01
218.076;000.165;42;000.523;MIDI 01
218.156;000.132;68;000.578;MIDI 01
218.241;000.099;66;000.617;MIDI 01
218.319;000.085;65;000.609;MIDI 01
218.405;000.028;51;000.609;MIDI 01
218.409;000.044;63;000.586;MIDI 01
218.399;000.079;39;000.633;MIDI 01
218.503;000.123;65;000.609;MIDI 01
218.583;000.099;63;000.547;MIDI 01
218.661;000.083;61;000.578;MIDI 01
218.758;000.081;60;000.578;MIDI 01
218.847;000.077;61;000.508;MIDI 01
218.749;000.193;48;000.617;MIDI 01
218.942;000.085;63;000.523;MIDI 01
219.023;000.057;61;000.469;MIDI 01
219.110;000.065;60;000.531;MIDI 01
219.211;000.050;61;000.523;MIDI 01
219.296;000.085;63;000.531;MIDI 01
219.379;000.058;61;000.562;MIDI 01
218.743;000.758;36;000.656;MIDI 01
219.475;000.073;60;000.516;MIDI 01
219.581;000.061;61;000.516;MIDI 01
219.665;000.078;63;000.492;MIDI 01
219.753;000.070;61;000.523;MIDI 01
219.461;000.427;46;000.586;MIDI 01
219.854;000.049;60;000.492;MIDI 01
219.923;000.076;61;000.492;MIDI 01
220.023;000.074;63;000.500;MIDI 01
220.094;000.062;61;000.484;MIDI 01
220.184;000.081;60;000.484;MIDI 01
219.456;000.884;34;000.586;MIDI 01
220.297;000.053;61;000.461;MIDI 01
220.206;000.210;45;000.492;MIDI 01
220.380;000.081;63;000.461;MIDI 01
220.461;000.065;61;000.484;MIDI 01
220.560;000.046;60;000.445;MIDI 01
220.652;000.045;61;000.430;MIDI 01
220.744;000.049;63;000.422;MIDI 01
220.820;000.050;61;000.430;MIDI 01
220.916;000.061;60;000.414;MIDI 01
220.217;000.774;33;000.547;MIDI 01
221.002;000.071;61;000.438;MIDI 01
221.121;000.053;63;000.398;MIDI 01
221.201;000.053;61;000.406;MIDI 01
221.301;000.039;60;000.398;MIDI 01
221.375;000.057;61;000.445;MIDI 01
220.927;000.565;42;000.328;MIDI 01
221.479;000.053;63;000.383;MIDI 01
221.555;000.053;61;000.398;MIDI 01
221.649;000.048;60;000.383;MIDI 01
220.918;000.835;30;000.438;MIDI 01
221.736;000.054;61;000.406;MIDI 01
221.838;000.054;63;000.359;MIDI 01
221.918;000.054;61;000.406;MIDI 01
222.011;000.037;60;000.383;MIDI 01
222.092;000.042;61;000.422;MIDI 01
222.185;000.045;63;000.383;MIDI 01
222.250;000.058;61;000.430;MIDI 01
222.354;000.053;60;000.398;MIDI 01
222.433;000.053;61;000.422;MIDI 01
222.546;000.050;63;000.375;MIDI 01
222.618;000.049;61;000.414;MIDI 01
222.705;000.045;60;000.406;MIDI 01
222.785;000.051;61;000.445;MIDI 01
222.891;000.052;63;000.367;MIDI 01
222.961;000.045;61;000.453;MIDI 01
223.056;000.039;60;000.453;MIDI 01
223.151;000.040;62;000.391;MIDI 01
223.234;000.041;63;000.414;MIDI 01
223.320;000.043;62;000.461;MIDI 01
223.411;000.043;60;000.430;MIDI 01
223.491;000.054;62;000.453;MIDI 01
221.639;001.953;41;000.305;MIDI 01
223.574;000.045;63;000.453;MIDI 01
223.662;000.035;62;000.461;MIDI 01
223.754;000.049;60;000.414;MIDI 01
223.827;000.057;62;000.453;MIDI 01
223.904;000.037;63;000.492;MIDI 01
221.669;002.350;29;000.328;MIDI 01
223.990;000.083;65;000.531;MIDI 01
224.064;000.098;67;000.562;MIDI 01
224.146;000.082;69;000.539;MIDI 01
224.204;000.083;70;000.555;MIDI 01
224.292;000.059;72;000.586;MIDI 01
224.709;000.078;70;000.391;MIDI 01
224.656;000.231;65;000.297;MIDI 01
224.648;000.260;74;000.602;MIDI 01
224.667;000.688;58;000.336;MIDI 01
224.679;000.683;62;000.242;MIDI 01
225.447;000.193;57;000.344;MIDI 01
225.444;000.229;65;000.359;MIDI 01
225.456;000.302;72;000.469;MIDI 01
225.458;000.302;60;000.312;MIDI 01
225.426;000.875;77;000.648;MIDI 01
226.301;000.096;70;000.469;MIDI 01
226.378;000.132;75;000.555;MIDI 01
226.047;000.621;55;000.461;MIDI 01
226.471;000.210;82;000.602;MIDI 01
226.157;000.812;58;000.461;MIDI 01
226.224;000.864;63;000.461;MIDI 01
228.094;000.059;81;000.367;MIDI 01
228.171;000.030;79;000.359;MIDI 01
228.232;000.035;77;000.438;MIDI 01
228.325;000.166;75;000.414;MIDI 01
228.306;000.253;70;000.266;MIDI 01
228.332;000.281;67;000.125;MIDI 01
228.886;000.042;74;000.484;MIDI 01
228.906;000.032;70;000.289;MIDI 01
228.908;000.064;65;000.273;MIDI 01
229.093;000.074;70;000.312;MIDI 01
229.103;000.073;79;000.523;MIDI 01
229.119;000.068;63;000.359;MIDI 01
229.690;000.055;70;000.406;MIDI 01
229.678;000.070;77;000.453;MIDI 01
229.695;000.057;61;000.352;MIDI 01
229.718;000.044;65;000.281;MIDI 01
230.035;000.128;76;000.359;MIDI 01
230.048;000.127;70;000.266;MIDI 01
230.078;000.207;60;000.125;MIDI 01
230.083;000.250;67;000.164;MIDI 01
231.457;000.042;79;000.438;MIDI 01
231.486;000.035;75;000.273;MIDI 01
231.636;000.035;74;000.383;MIDI 01
231.628;000.056;77;000.492;MIDI 01
231.804;000.031;75;000.406;MIDI 01
231.806;000.043;72;000.312;MIDI 01
232.139;000.029;65;000.367;MIDI 01
232.148;000.032;62;000.383;MIDI 01
231.997;000.227;70;000.375;MIDI 01
232.320;000.033;60;000.438;MIDI 01
232.329;000.027;63;000.398;MIDI 01
232.494;000.028;62;000.383;MIDI 01
232.488;000.039;58;000.453;MIDI 01
231.972;000.579;74;000.469;MIDI 01
232.851;000.024;75;000.367;MIDI 01
232.831;000.047;79;000.453;MIDI 01
233.008;000.037;77;000.531;MIDI 01
233.011;000.036;74;000.469;MIDI 01
233.177;000.029;72;000.469;MIDI 01
233.161;000.047;75;000.562;MIDI 01
232.676;000.680;57;000.445;MIDI 01
232.666;000.709;60;000.414;MIDI 01
233.524;000.040;65;000.484;MIDI 01
233.527;000.050;62;000.500;MIDI 01
233.364;000.250;70;000.516;MIDI 01
233.713;000.032;63;000.477;MIDI 01
233.709;000.037;60;000.469;MIDI 01
233.350;000.504;74;000.531;MIDI 01
233.866;000.037;62;000.492;MIDI 01
233.870;000.047;58;000.500;MIDI 01
234.059;000.045;57;000.445;MIDI 01
234.054;000.069;60;000.445;MIDI 01
234.242;000.068;75;000.383;MIDI 01
234.228;000.083;65;000.422;MIDI 01
234.220;000.198;79;000.477;MIDI 01
234.411;000.034;74;000.500;MIDI 01
234.397;000.097;67;000.562;MIDI 01
234.394;000.138;77;000.555;MIDI 01
234.578;000.029;72;000.570;MIDI 01
234.570;000.072;75;000.594;MIDI 01
234.568;000.165;69;000.633;MIDI 01
234.739;000.035;74;000.648;MIDI 01
234.745;000.199;70;000.586;MIDI 01
235.012;000.082;74;000.508;MIDI 01
234.992;000.105;77;000.578;MIDI 01
234.978;000.121;82;000.664;MIDI 01
235.192;000.050;75;000.664;MIDI 01
235.197;000.076;72;000.586;MIDI 01
235.180;000.101;81;000.664;MIDI 01
235.363;000.035;74;000.648;MIDI 01
235.350;000.068;70;000.609;MIDI 01
235.354;000.076;79;000.656;MIDI 01
235.523;000.027;77;000.586;MIDI 01
235.521;000.045;72;000.617;MIDI 01
235.536;000.034;69;000.609;MIDI 01
235.694;000.042;67;000.633;MIDI 01
235.684;000.058;75;000.625;MIDI 01
235.699;000.046;70;000.625;MIDI 01
235.879;000.027;69;000.562;MIDI 01
235.870;000.052;65;000.594;MIDI 01
235.865;000.066;74;000.680;MIDI 01
236.047;000.029;67;000.578;MIDI 01
236.034;000.053;72;000.719;MIDI 01
236.046;000.045;63;000.531;MIDI 01
236.221;000.292;71;000.688;MIDI 01
236.244;000.614;65;000.508;MIDI 01
236.251;000.638;62;000.508;MIDI 01
237.033;000.076;72;000.578;MIDI 01
237.052;000.078;67;000.391;MIDI 01
237.054;000.147;63;000.336;MIDI 01
237.976;000.136;69;000.469;MIDI 01
237.994;000.508;63;000.234;MIDI 01
237.989;000.696;60;000.258;MIDI 01
238.854;000.161;70;000.297;MIDI 01
237.998;001.052;65;000.328;MIDI 01
238.860;000.198;62;000.219;MIDI 01
241.414;000.172;55;000.195;MIDI 01
241.385;000.639;67;000.273;MIDI 01
243.151;000.511;54;000.125;MIDI 01
243.175;000.575;42;000.180;MIDI 01
243.165;001.526;30;000.219;MIDI 01
243.141;001.567;66;000.188;MIDI 01
244.839;000.031;53;000.539;MIDI 01
244.841;000.051;65;000.594;MIDI 01
244.843;000.071;29;000.555;MIDI 01
244.961;000.059;41;000.492;MIDI 01
245.041;000.089;29;000.594;MIDI 01
245.134;000.054;41;000.484;MIDI 01
245.205;000.049;65;000.500;MIDI 01
245.226;000.042;74;000.391;MIDI 01
245.217;000.059;70;000.492;MIDI 01
245.207;000.096;77;000.555;MIDI 01
245.215;000.112;29;000.562;MIDI 01
245.300;000.101;41;000.461;MIDI 01
245.408;000.088;29;000.430;MIDI 01
245.496;000.056;41;000.461;MIDI 01
245.573;000.057;77;000.492;MIDI 01
245.562;000.073;74;000.570;MIDI 01
245.589;000.069;29;000.500;MIDI 01
245.558;000.131;82;000.625;MIDI 01
245.680;000.055;41;000.547;MIDI 01
245.775;000.057;29;000.586;MIDI 01
245.849;000.060;41;000.570;MIDI 01
245.933;000.096;29;000.641;MIDI 01
245.935;000.106;77;000.625;MIDI 01
245.946;000.144;82;000.586;MIDI 01
246.049;000.054;41;000.547;MIDI 01
245.944;000.182;86;000.617;MIDI 01
246.140;000.054;29;000.531;MIDI 01
246.202;000.047;41;000.492;MIDI 01
246.336;000.054;82;000.555;MIDI 01
246.334;000.059;77;000.641;MIDI 01
246.339;000.108;86;000.570;MIDI 01
246.324;000.241;29;000.641;MIDI 01
246.326;000.254;89;000.703;MIDI 01
247.110;000.129;65;000.594;MIDI 01
247.126;000.181;60;000.484;MIDI 01
247.117;000.216;77;000.578;MIDI 01
247.108;000.231;75;000.586;MIDI 01
247.119;000.241;53;000.562;MIDI 01
247.111;000.254;72;000.602;MIDI 01
247.126;000.293;57;000.516;MIDI 01
247.094;000.330;81;000.695;MIDI 01
247.884;000.109;82;000.531;MIDI 01
247.879;000.219;58;000.555;MIDI 01
247.889;000.234;53;000.508;MIDI 01
247.882;000.246;46;000.531;MIDI 01
247.999;000.132;86;000.578;MIDI 01
247.897;000.251;50;000.422;MIDI 01
248.083;000.104;84;000.562;MIDI 01
248.158;000.088;82;000.562;MIDI 01
248.241;000.044;81;000.594;MIDI 01
248.324;000.055;79;000.547;MIDI 01
248.412;000.040;77;000.547;MIDI 01
248.503;000.086;76;000.562;MIDI 01
248.590;000.091;75;000.594;MIDI 01
248.584;000.117;57;000.602;MIDI 01
248.595;000.113;51;000.492;MIDI 01
248.588;000.217;48;000.570;MIDI 01
248.679;000.154;79;000.586;MIDI 01
248.586;000.281;46;000.625;MIDI 01
248.793;000.092;77;000.539;MIDI 01
248.874;000.074;75;000.539;MIDI 01
248.956;000.044;74;000.547;MIDI 01
249.046;000.049;72;000.531;MIDI 01
249.153;000.043;70;000.461;MIDI 01
249.219;000.057;69;000.516;MIDI 01
249.304;000.075;70;000.523;MIDI 01
249.298;000.122;58;000.594;MIDI 01
249.302;000.186;53;000.516;MIDI 01
249.383;000.135;74;000.617;MIDI 01
249.297;000.248;46;000.516;MIDI 01
249.307;000.240;50;000.453;MIDI 01
249.489;000.094;72;000.539;MIDI 01
249.554;000.091;70;000.570;MIDI 01
249.655;000.045;69;000.555;MIDI 01
249.733;000.045;67;000.531;MIDI 01
249.821;000.044;65;000.516;MIDI 01
249.906;000.047;64;000.555;MIDI 01
249.990;000.041;57;000.594;MIDI 01
249.988;000.078;63;000.516;MIDI 01
250.005;000.075;48;000.531;MIDI 01
250.041;000.055;51;000.188;MIDI 01
250.070;000.131;67;000.586;MIDI 01
250.169;000.088;65;000.531;MIDI 01
249.992;000.270;46;000.586;MIDI 01
250.243;000.082;63;000.539;MIDI 01
250.334;000.054;62;000.547;MIDI 01
250.430;000.042;60;000.484;MIDI 01
250.509;000.048;58;000.523;MIDI 01
250.605;000.053;57;000.484;MIDI 01
250.675;000.055;34;000.328;MIDI 01
250.701;000.049;58;000.422;MIDI 01
250.699;000.055;46;000.273;MIDI 01
250.762;000.071;57;000.469;MIDI 01
250.844;000.057;58;000.539;MIDI 01
250.938;000.026;53;000.445;MIDI 01
251.018;000.030;38;000.445;MIDI 01
251.014;000.036;50;000.484;MIDI 01
251.032;000.049;62;000.461;MIDI 01
251.124;000.052;61;000.414;MIDI 01
251.190;000.044;62;000.469;MIDI 01
251.271;000.033;58;000.508;MIDI 01
251.353;000.041;53;000.586;MIDI 01
251.360;000.040;41;000.500;MIDI 01
251.357;000.092;65;000.516;MIDI 01
251.464;000.056;64;000.531;MIDI 01
251.510;000.046;65;000.359;MIDI 01
251.615;000.046;62;000.508;MIDI 01
251.715;000.035;46;000.508;MIDI 01
251.708;000.044;58;000.594;MIDI 01
251.705;000.076;70;000.555;MIDI 01
251.811;000.077;69;000.523;MIDI 01
251.881;000.077;70;000.594;MIDI 01
251.979;000.050;65;000.508;MIDI 01
252.078;000.037;50;000.398;MIDI 01
252.069;000.083;74;000.547;MIDI 01
252.058;000.106;62;000.562;MIDI 01
252.169;000.050;73;000.492;MIDI 01
252.250;000.039;74;000.508;MIDI 01
252.334;000.037;70;000.547;MIDI 01
252.416;000.046;65;000.664;MIDI 01
252.435;000.035;53;000.461;MIDI 01
252.426;000.088;77;000.555;MIDI 01
252.519;000.070;76;000.594;MIDI 01
252.580;000.045;77;000.453;MIDI 01
252.677;000.048;74;000.586;MIDI 01
252.776;000.044;70;000.703;MIDI 01
252.802;000.039;58;000.406;MIDI 01
252.771;000.076;82;000.602;MIDI 01
252.854;000.097;81;000.602;MIDI 01
252.944;000.082;82;000.594;MIDI 01
253.037;000.093;77;000.570;MIDI 01
253.142;000.031;65;000.492;MIDI 01
253.130;000.047;75;000.602;MIDI 01
253.134;000.092;84;000.633;MIDI 01
253.235;000.086;83;000.562;MIDI 01
253.326;000.074;84;000.492;MIDI 01
253.406;000.083;77;000.523;MIDI 01
253.505;000.028;74;000.461;MIDI 01
253.516;000.032;70;000.406;MIDI 01
253.498;000.070;82;000.516;MIDI 01
253.591;000.093;81;000.508;MIDI 01
253.688;000.060;82;000.555;MIDI 01
253.779;000.043;77;000.570;MIDI 01
253.851;000.026;75;000.562;MIDI 01
253.854;000.034;65;000.430;MIDI 01
253.859;000.097;84;000.586;MIDI 01
253.966;000.080;83;000.570;MIDI 01
254.056;000.078;84;000.539;MIDI 01
254.149;000.052;77;000.492;MIDI 01
254.228;000.032;70;000.406;MIDI 01
254.226;000.059;82;000.508;MIDI 01
254.234;000.053;74;000.219;MIDI 01
254.329;000.057;81;000.492;MIDI 01
254.397;000.075;82;000.555;MIDI 01
254.502;000.047;77;000.516;MIDI 01
254.568;000.021;75;000.578;MIDI 01
254.570;000.033;65;000.461;MIDI 01
254.565;000.090;84;000.594;MIDI 01
254.668;000.075;83;000.523;MIDI 01
254.740;000.043;84;000.539;MIDI 01
254.840;000.055;77;000.453;MIDI 01
254.940;000.052;70;000.297;MIDI 01
254.912;000.115;82;000.500;MIDI 01
255.009;000.061;74;000.398;MIDI 01
255.119;000.044;70;000.453;MIDI 01
255.204;000.029;74;000.453;MIDI 01
255.275;000.052;86;000.586;MIDI 01
255.304;000.036;82;000.359;MIDI 01
255.281;000.062;70;000.445;MIDI 01
255.368;000.062;74;000.438;MIDI 01
255.459;000.061;70;000.508;MIDI 01
255.555;000.055;74;000.484;MIDI 01
255.667;000.022;86;000.539;MIDI 01
255.656;000.046;89;000.633;MIDI 01
255.659;000.049;70;000.492;MIDI 01
255.739;000.057;74;000.445;MIDI 01
255.833;000.057;70;000.492;MIDI 01
255.928;000.028;74;000.492;MIDI 01
256.007;000.054;86;000.711;MIDI 01
256.023;000.050;70;000.484;MIDI 01
256.046;000.029;82;000.438;MIDI 01
256.082;000.060;74;000.492;MIDI 01
256.168;000.077;70;000.555;MIDI 01
256.291;000.034;74;000.516;MIDI 01
256.398;000.025;86;000.641;MIDI 01
256.390;000.049;89;000.742;MIDI 01
256.392;000.055;70;000.633;MIDI 01
257.442;000.040;82;000.305;MIDI 01
257.445;000.047;70;000.219;MIDI 01
257.396;000.098;86;000.312;MIDI 01
257.440;000.056;74;000.289;MIDI 01
258.321;000.057;70;000.258;MIDI 01
258.314;000.068;82;000.305;MIDI 01
258.319;000.072;74;000.305;MIDI 01
258.347;000.051;77;000.195;MIDI 01
260.766;000.457;62;000.281;MIDI 01
260.771;000.713;46;000.281;MIDI 01
260.752;000.933;65;000.336;MIDI 01
260.768;001.725;34;000.305;MIDI 01
262.414;000.632;60;000.430;MIDI 01
262.411;001.355;44;000.359;MIDI 01
262.409;001.733;32;000.383;MIDI 01
262.382;002.007;66;000.516;MIDI 01
264.978;001.924;43;000.047;MIDI 01
264.924;002.051;59;000.219;MIDI 01
264.929;002.744;67;000.234;MIDI 01
264.976;002.792;31;000.172;MIDI 01
268.853;000.096;79;000.312;MIDI 01
268.928;000.030;76;000.344;MIDI 01
268.923;000.048;64;000.227;MIDI 01
268.931;000.055;60;000.180;MIDI 01
269.201;000.071;79;000.359;MIDI 01
269.264;000.042;74;000.391;MIDI 01
269.276;000.033;62;000.289;MIDI 01
269.283;000.042;55;000.266;MIDI 01
269.562;000.056;79;000.320;MIDI 01
269.619;000.024;72;000.359;MIDI 01
269.647;000.299;52;000.227;MIDI 01
269.673;000.309;60;000.141;MIDI 01
269.942;000.060;79;000.344;MIDI 01
269.999;000.037;67;000.328;MIDI 01
270.293;000.055;79;000.375;MIDI 01
270.331;000.049;76;000.477;MIDI 01
270.344;000.054;64;000.297;MIDI 01
270.348;000.071;60;000.227;MIDI 01
270.644;000.057;79;000.375;MIDI 01
270.697;000.038;74;000.477;MIDI 01
270.714;000.039;62;000.281;MIDI 01
270.723;000.042;55;000.250;MIDI 01
271.002;000.064;79;000.336;MIDI 01
271.072;000.027;72;000.375;MIDI 01
271.087;000.227;52;000.195;MIDI 01
271.098;000.265;60;000.133;MIDI 01
271.361;000.091;79;000.391;MIDI 01
271.444;000.041;67;000.336;MIDI 01
271.710;000.074;60;000.258;MIDI 01
271.730;000.079;84;000.328;MIDI 01
271.783;000.036;79;000.438;MIDI 01
271.794;000.052;64;000.359;MIDI 01
272.087;000.035;60;000.258;MIDI 01
272.074;000.066;84;000.438;MIDI 01
272.130;000.036;81;000.461;MIDI 01
272.152;000.030;65;000.352;MIDI 01
272.392;000.103;84;000.453;MIDI 01
272.443;000.055;60;000.125;MIDI 01
272.466;000.044;82;000.508;MIDI 01
272.482;000.038;67;000.430;MIDI 01
272.760;000.065;60;000.352;MIDI 01
272.751;000.099;84;000.484;MIDI 01
272.815;000.043;81;000.586;MIDI 01
272.840;000.048;69;000.484;MIDI 01
273.098;000.070;60;000.422;MIDI 01
273.104;000.096;84;000.508;MIDI 01
273.164;000.041;79;000.586;MIDI 01
273.178;000.044;70;000.555;MIDI 01
273.457;000.059;60;000.445;MIDI 01
273.464;000.057;84;000.406;MIDI 01
273.525;000.027;76;000.508;MIDI 01
273.521;000.042;70;000.406;MIDI 01
273.856;000.074;60;000.266;MIDI 01
273.812;000.129;84;000.336;MIDI 01
273.965;000.041;77;000.305;MIDI 01
274.055;000.040;84;000.320;MIDI 01
273.972;000.241;69;000.305;MIDI 01
274.128;000.086;86;000.453;MIDI 01
274.211;000.058;84;000.469;MIDI 01
273.988;000.307;65;000.250;MIDI 01
274.292;000.057;82;000.453;MIDI 01
274.380;000.031;81;000.453;MIDI 01
274.451;000.028;79;000.461;MIDI 01
274.539;000.025;77;000.445;MIDI 01
274.627;000.049;76;000.477;MIDI 01
274.699;000.050;79;000.336;MIDI 01
274.775;000.052;82;000.484;MIDI 01
274.609;000.233;70;000.320;MIDI 01
274.621;000.289;60;000.258;MIDI 01
274.883;000.087;86;000.508;MIDI 01
274.978;000.055;84;000.477;MIDI 01
275.027;000.089;82;000.539;MIDI 01
275.128;000.044;81;000.508;MIDI 01
275.199;000.059;79;000.469;MIDI 01
275.296;000.049;77;000.492;MIDI 01
275.317;000.151;69;000.305;MIDI 01
275.383;000.086;76;000.562;MIDI 01
275.309;000.241;62;000.297;MIDI 01
275.466;000.086;77;000.500;MIDI 01
275.547;000.085;79;000.531;MIDI 01
275.642;000.072;81;000.523;MIDI 01
275.710;000.051;77;000.531;MIDI 01
275.807;000.039;76;000.547;MIDI 01
275.896;000.044;74;000.508;MIDI 01
275.984;000.029;73;000.438;MIDI 01
276.067;000.035;76;000.422;MIDI 01
276.155;000.078;79;000.492;MIDI 01
275.990;000.280;67;000.297;MIDI 01
275.986;000.286;57;000.367;MIDI 01
276.250;000.094;82;000.516;MIDI 01
276.333;000.097;81;000.547;MIDI 01
276.404;000.073;79;000.500;MIDI 01
276.489;000.038;77;000.516;MIDI 01
276.569;000.056;76;000.500;MIDI 01
276.679;000.099;74;000.492;MIDI 01
276.776;000.076;76;000.414;MIDI 01
276.673;000.223;65;000.336;MIDI 01
276.852;000.059;77;000.469;MIDI 01
276.677;000.329;58;000.391;MIDI 01
276.933;000.106;79;000.547;MIDI 01
277.018;000.068;77;000.547;MIDI 01
277.121;000.023;74;000.562;MIDI 01
277.190;000.021;72;000.438;MIDI 01
277.272;000.044;70;000.562;MIDI 01
277.367;000.072;69;000.539;MIDI 01
277.446;000.102;72;000.414;MIDI 01
277.532;000.091;75;000.562;MIDI 01
277.358;000.320;63;000.406;MIDI 01
277.353;000.357;53;000.438;MIDI 01
277.632;000.107;79;000.562;MIDI 01
277.710;000.105;77;000.609;MIDI 01
277.782;000.083;75;000.578;MIDI 01
277.866;000.047;74;000.602;MIDI 01
277.947;000.053;72;000.547;MIDI 01
278.034;000.055;70;000.555;MIDI 01
278.115;000.126;69;000.594;MIDI 01
278.222;000.059;70;000.562;MIDI 01
278.045;000.281;62;000.477;MIDI 01
278.296;000.085;72;000.547;MIDI 01
278.043;000.384;55;000.516;MIDI 01
278.381;000.092;74;000.602;MIDI 01
278.461;000.069;70;000.578;MIDI 01
278.545;000.034;69;000.602;MIDI 01
278.625;000.033;67;000.562;MIDI 01
278.725;000.042;66;000.430;MIDI 01
278.789;000.089;69;000.539;MIDI 01
278.899;000.080;72;000.539;MIDI 01
278.729;000.294;60;000.578;MIDI 01
278.985;000.114;75;000.617;MIDI 01
278.727;000.387;50;000.562;MIDI 01
279.071;000.145;74;000.594;MIDI 01
279.149;000.095;72;000.578;MIDI 01
279.227;000.075;70;000.594;MIDI 01
279.306;000.116;69;000.516;MIDI 01
279.416;000.061;51;000.422;MIDI 01
279.411;000.105;67;000.555;MIDI 01
279.515;000.047;55;000.398;MIDI 01
279.606;000.059;51;000.477;MIDI 01
279.689;000.064;55;000.477;MIDI 01
279.808;000.040;51;000.453;MIDI 01
279.894;000.041;55;000.445;MIDI 01
279.957;000.064;51;000.477;MIDI 01
280.043;000.059;55;000.484;MIDI 01
280.136;000.066;51;000.508;MIDI 01
280.248;000.045;55;000.430;MIDI 01
279.785;000.584;82;000.672;MIDI 01
279.816;000.556;70;000.492;MIDI 01
280.317;000.069;51;000.508;MIDI 01
280.411;000.052;55;000.406;MIDI 01
280.524;000.043;51;000.461;MIDI 01
280.484;000.109;81;000.594;MIDI 01
280.600;000.050;55;000.484;MIDI 01
280.532;000.146;69;000.445;MIDI 01
280.669;000.084;51;000.500;MIDI 01
280.769;000.048;55;000.453;MIDI 01
280.881;000.047;51;000.406;MIDI 01
280.868;000.086;79;000.531;MIDI 01
280.911;000.107;67;000.438;MIDI 01
280.977;000.053;55;000.398;MIDI 01
281.044;000.085;51;000.500;MIDI 01
281.153;000.060;55;000.477;MIDI 01
281.251;000.051;51;000.469;MIDI 01
281.350;000.040;55;000.508;MIDI 01
281.229;000.242;75;000.586;MIDI 01
281.270;000.224;63;000.438;MIDI 01
281.419;000.078;51;000.555;MIDI 01
281.506;000.048;55;000.508;MIDI 01
281.587;000.076;51;000.523;MIDI 01
281.618;000.099;62;000.508;MIDI 01
281.673;000.066;55;000.508;MIDI 01
281.583;000.229;74;000.648;MIDI 01
281.758;000.071;51;000.539;MIDI 01
281.851;000.061;55;000.547;MIDI 01
281.970;000.042;61;000.531;MIDI 01
281.959;000.058;51;000.547;MIDI 01
282.124;000.045;51;000.180;MIDI 01
281.953;000.236;73;000.656;MIDI 01
282.154;000.046;50;000.250;MIDI 01
282.194;000.057;55;000.531;MIDI 01
282.341;000.114;74;000.469;MIDI 01
282.554;000.246;86;000.555;MIDI 01
282.358;000.547;54;000.383;MIDI 01
282.738;000.230;85;000.562;MIDI 01
282.910;000.235;88;000.594;MIDI 01
283.079;000.192;86;000.570;MIDI 01
283.259;000.144;82;000.500;MIDI 01
283.277;000.129;55;000.281;MIDI 01
283.443;000.122;54;000.391;MIDI 01
283.431;000.154;81;000.492;MIDI 01
283.626;000.122;57;000.406;MIDI 01
283.604;000.201;84;000.508;MIDI 01
283.789;000.130;82;000.492;MIDI 01
283.795;000.298;55;000.469;MIDI 01
283.967;000.190;79;000.516;MIDI 01
283.964;000.197;58;000.531;MIDI 01
284.151;000.154;78;000.531;MIDI 01
284.149;000.175;57;000.562;MIDI 01
284.311;000.211;60;000.562;MIDI 01
284.323;000.217;81;000.586;MIDI 01
284.500;000.099;58;000.570;MIDI 01
284.495;000.188;79;000.555;MIDI 01
284.671;000.133;75;000.523;MIDI 01
284.865;000.135;74;000.516;MIDI 01
284.868;000.137;55;000.453;MIDI 01
282.337;002.677;50;000.328;MIDI 01
285.041;000.114;73;000.477;MIDI 01
285.229;000.046;74;000.430;MIDI 01
285.406;000.121;86;000.414;MIDI 01
285.231;000.381;50;000.148;MIDI 01
285.254;000.391;54;000.219;MIDI 01
285.586;000.146;85;000.453;MIDI 01
285.749;000.120;88;000.461;MIDI 01
285.928;000.136;86;000.453;MIDI 01
286.099;000.136;82;000.398;MIDI 01
286.115;000.158;67;000.266;MIDI 01
286.307;000.098;66;000.328;MIDI 01
286.294;000.141;81;000.375;MIDI 01
286.471;000.088;69;000.375;MIDI 01
286.473;000.175;84;000.391;MIDI 01
286.652;000.103;82;000.422;MIDI 01
286.657;000.128;67;000.352;MIDI 01
286.811;000.085;70;000.430;MIDI 01
286.822;000.156;79;000.453;MIDI 01
287.011;000.123;69;000.469;MIDI 01
287.015;000.144;78;000.461;MIDI 01
287.167;000.097;81;000.484;MIDI 01
287.164;000.139;72;000.500;MIDI 01
287.335;000.046;79;000.453;MIDI 01
287.369;000.127;70;000.453;MIDI 01
287.525;000.193;87;000.578;MIDI 01
287.568;000.153;67;000.406;MIDI 01
287.708;000.167;86;000.531;MIDI 01
287.746;000.134;66;000.430;MIDI 01
287.902;000.115;69;000.445;MIDI 01
287.876;000.201;84;000.516;MIDI 01
288.069;000.045;67;000.438;MIDI 01
288.071;000.093;82;000.492;MIDI 01
288.251;000.070;75;000.562;MIDI 01
288.232;000.189;79;000.516;MIDI 01
288.431;000.031;75;000.484;MIDI 01
288.434;000.155;78;000.477;MIDI 01
288.611;000.056;81;000.406;MIDI 01
288.613;000.101;72;000.414;MIDI 01
288.769;000.085;79;000.414;MIDI 01
288.792;000.107;70;000.430;MIDI 01
288.950;000.079;87;000.469;MIDI 01
288.970;000.086;67;000.398;MIDI 01
289.131;000.144;86;000.516;MIDI 01
289.136;000.143;66;000.445;MIDI 01
289.316;000.101;69;000.453;MIDI 01
289.309;000.161;84;000.523;MIDI 01
289.476;000.053;67;000.414;MIDI 01
289.478;000.115;82;000.508;MIDI 01
289.674;000.060;75;000.539;MIDI 01
289.645;000.185;79;000.508;MIDI 01
289.856;000.072;74;000.422;MIDI 01
289.836;000.152;78;000.508;MIDI 01
290.011;000.134;81;000.500;MIDI 01
290.030;000.160;72;000.406;MIDI 01
290.200;000.121;70;000.383;MIDI 01
290.191;000.190;79;000.477;MIDI 01
290.389;000.334;67;000.359;MIDI 01
290.354;000.375;82;000.453;MIDI 01
290.555;000.216;72;000.469;MIDI 01
290.545;000.247;76;000.531;MIDI 01
290.704;000.168;79;000.477;MIDI 01
290.720;000.185;70;000.453;MIDI 01
290.905;000.147;68;000.398;MIDI 01
290.892;000.189;77;000.484;MIDI 01
291.067;000.133;65;000.352;MIDI 01
291.074;000.148;80;000.477;MIDI 01
291.265;000.144;70;000.469;MIDI 01
291.253;000.167;74;000.453;MIDI 01
291.420;000.153;77;000.430;MIDI 01
291.418;000.180;68;000.383;MIDI 01
291.632;000.103;67;000.305;MIDI 01
291.607;000.141;75;000.422;MIDI 01
291.774;000.152;79;000.414;MIDI 01
291.799;000.224;63;000.320;MIDI 01
291.954;000.147;72;000.367;MIDI 01
292.003;000.117;68;000.289;MIDI 01
292.160;000.121;67;000.266;MIDI 01
292.133;000.186;75;000.375;MIDI 01
292.316;000.123;74;000.383;MIDI 01
292.351;000.090;65;000.242;MIDI 01
292.483;000.162;62;000.336;MIDI 01
292.494;000.290;77;000.383;MIDI 01
292.681;000.113;71;000.352;MIDI 01
292.680;000.156;67;000.328;MIDI 01
292.852;000.117;74;000.406;MIDI 01
292.859;000.136;65;000.297;MIDI 01
293.028;000.078;72;000.367;MIDI 01
293.054;000.147;63;000.297;MIDI 01
293.278;000.115;60;000.273;MIDI 01
293.233;000.197;80;000.445;MIDI 01
293.424;000.149;79;000.430;MIDI 01
293.444;000.132;59;000.336;MIDI 01
293.590;000.133;62;000.398;MIDI 01
293.595;000.202;77;000.453;MIDI 01
293.781;000.047;60;000.297;MIDI 01
293.792;000.126;75;000.438;MIDI 01
293.981;000.151;68;000.430;MIDI 01
293.961;000.180;72;000.445;MIDI 01
294.164;000.102;67;000.422;MIDI 01
294.164;000.134;71;000.391;MIDI 01
294.336;000.122;74;000.406;MIDI 01
294.323;000.160;65;000.391;MIDI 01
294.523;000.066;72;000.375;MIDI 01
294.521;000.191;63;000.305;MIDI 01
294.708;000.139;80;000.523;MIDI 01
294.706;000.145;60;000.320;MIDI 01
294.889;000.128;79;000.438;MIDI 01
294.895;000.131;59;000.359;MIDI 01
295.070;000.125;62;000.375;MIDI 01
295.051;000.184;77;000.438;MIDI 01
295.253;000.046;60;000.258;MIDI 01
295.249;000.122;75;000.414;MIDI 01
295.434;000.170;72;000.398;MIDI 01
295.422;000.259;68;000.406;MIDI 01
295.610;000.140;67;000.398;MIDI 01
295.624;000.130;71;000.352;MIDI 01
295.797;000.100;74;000.406;MIDI 01
295.793;000.274;65;000.336;MIDI 01
295.986;000.142;72;000.344;MIDI 01
295.978;000.360;63;000.336;MIDI 01
296.336;000.090;71;000.375;MIDI 01
296.158;000.349;79;000.398;MIDI 01
296.500;000.259;74;000.445;MIDI 01
296.534;000.319;65;000.352;MIDI 01
296.522;000.332;68;000.336;MIDI 01
296.706;000.162;72;000.352;MIDI 01
296.744;000.364;63;000.398;MIDI 01
296.739;000.381;67;000.391;MIDI 01
297.090;000.098;71;000.375;MIDI 01
296.911;000.335;79;000.438;MIDI 01
297.264;000.107;68;000.266;MIDI 01
297.258;000.273;74;000.375;MIDI 01
297.266;000.270;65;000.289;MIDI 01
297.451;000.138;72;000.359;MIDI 01
297.472;000.322;63;000.234;MIDI 01
297.474;000.322;67;000.289;MIDI 01
297.823;000.082;71;000.359;MIDI 01
297.642;000.266;79;000.375;MIDI 01
297.983;000.118;68;000.219;MIDI 01
297.976;000.208;74;000.383;MIDI 01
298.002;000.224;65;000.219;MIDI 01
298.181;000.158;72;000.344;MIDI 01
298.368;000.120;79;000.359;MIDI 01
298.553;000.167;72;000.320;MIDI 01
298.741;000.133;79;000.359;MIDI 01
298.930;000.130;72;000.352;MIDI 01
298.232;000.908;67;000.180;MIDI 01
299.110;000.095;79;000.336;MIDI 01
298.219;001.116;63;000.273;MIDI 01
299.297;000.177;72;000.305;MIDI 01
299.484;000.053;79;000.359;MIDI 01
299.691;000.119;67;000.203;MIDI 01
299.645;000.216;72;000.344;MIDI 01
299.685;000.197;63;000.227;MIDI 01
299.860;000.076;79;000.281;MIDI 01
299.831;000.133;84;000.406;MIDI 01
299.881;000.139;60;000.266;MIDI 01
300.064;000.078;63;000.336;MIDI 01
300.024;000.118;72;000.406;MIDI 01
300.052;000.093;67;000.242;MIDI 01
300.219;000.072;79;000.445;MIDI 01
300.216;000.124;60;000.367;MIDI 01
300.218;000.182;84;000.477;MIDI 01
300.424;000.075;67;000.383;MIDI 01
300.400;000.120;63;000.398;MIDI 01
300.394;000.207;72;000.500;MIDI 01
300.579;000.094;79;000.500;MIDI 01
300.582;000.129;60;000.438;MIDI 01
300.575;000.197;84;000.539;MIDI 01
300.756;000.093;72;000.562;MIDI 01
300.791;000.081;67;000.398;MIDI 01
300.781;000.222;63;000.414;MIDI 01
300.981;000.030;60;000.336;MIDI 01
300.989;000.072;79;000.562;MIDI 01
300.986;000.076;84;000.531;MIDI 01
301.369;000.236;68;000.320;MIDI 01
301.360;000.406;79;000.539;MIDI 01
301.637;000.135;72;000.367;MIDI 01
301.849;000.089;68;000.375;MIDI 01
302.022;000.091;80;000.523;MIDI 01
302.046;000.094;72;000.383;MIDI 01
302.100;000.114;79;000.492;MIDI 01
302.227;000.133;68;000.391;MIDI 01
302.183;000.261;77;000.570;MIDI 01
302.389;000.136;72;000.492;MIDI 01
301.365;001.196;84;000.508;MIDI 01
302.594;000.099;77;000.609;MIDI 01
302.594;000.116;68;000.445;MIDI 01
302.756;000.057;72;000.391;MIDI 01
302.976;000.125;67;000.406;MIDI 01
302.993;000.272;77;000.531;MIDI 01
303.134;000.178;70;000.375;MIDI 01
303.317;000.142;67;000.406;MIDI 01
303.529;000.046;79;000.445;MIDI 01
303.525;000.094;70;000.391;MIDI 01
303.597;000.068;77;000.492;MIDI 01
303.733;000.111;60;000.258;MIDI 01
303.695;000.196;76;000.469;MIDI 01
303.898;000.076;70;000.406;MIDI 01
304.090;000.119;60;000.211;MIDI 01
304.077;000.146;76;000.375;MIDI 01
302.958;001.285;85;000.641;MIDI 01
304.264;000.047;70;000.312;MIDI 01
304.062;000.285;82;000.445;MIDI 01
304.245;000.170;79;000.477;MIDI 01
304.447;000.135;80;000.438;MIDI 01
304.445;000.281;65;000.266;MIDI 01
304.633;000.136;72;000.359;MIDI 01
304.817;000.130;80;000.367;MIDI 01
304.995;000.256;72;000.297;MIDI 01
305.248;000.191;80;000.297;MIDI 01
305.448;000.168;73;000.344;MIDI 01
305.254;000.529;41;000.305;MIDI 01
305.631;000.214;80;000.406;MIDI 01
305.829;000.038;43;000.320;MIDI 01
305.897;000.075;41;000.312;MIDI 01
305.844;000.134;73;000.367;MIDI 01
306.005;000.181;79;000.398;MIDI 01
306.009;000.251;40;000.375;MIDI 01
306.189;000.136;73;000.328;MIDI 01
306.364;000.151;79;000.352;MIDI 01
306.551;000.212;73;000.305;MIDI 01
306.731;000.167;79;000.336;MIDI 01
306.920;000.143;72;000.344;MIDI 01
306.761;000.459;63;000.328;MIDI 01
307.100;000.172;79;000.359;MIDI 01
307.273;000.045;65;000.375;MIDI 01
307.357;000.059;63;000.383;MIDI 01
307.293;000.147;72;000.336;MIDI 01
307.484;000.143;77;000.422;MIDI 01
307.447;000.249;62;000.383;MIDI 01
307.658;000.141;72;000.344;MIDI 01
307.856;000.121;77;000.391;MIDI 01
308.023;000.152;72;000.406;MIDI 01
308.211;000.178;77;000.414;MIDI 01
308.395;000.141;70;000.445;MIDI 01
308.223;000.496;37;000.438;MIDI 01
308.578;000.153;77;000.484;MIDI 01
308.757;000.047;39;000.422;MIDI 01
308.831;000.095;37;000.438;MIDI 01
308.770;000.167;70;000.445;MIDI 01
308.956;000.175;75;000.461;MIDI 01
308.936;000.220;36;000.492;MIDI 01
309.153;000.127;70;000.422;MIDI 01
309.328;000.149;75;000.469;MIDI 01
309.511;000.129;70;000.445;MIDI 01
309.677;000.175;75;000.469;MIDI 01
309.849;000.109;68;000.477;MIDI 01
309.669;000.491;60;000.562;MIDI 01
310.030;000.193;75;000.469;MIDI 01
310.207;000.069;61;000.484;MIDI 01
310.221;000.138;68;000.438;MIDI 01
310.303;000.079;60;000.430;MIDI 01
310.389;000.163;73;000.500;MIDI 01
310.392;000.255;58;000.547;MIDI 01
310.625;000.026;67;000.375;MIDI 01
310.785;000.109;73;000.414;MIDI 01
310.961;000.053;67;000.469;MIDI 01
311.151;000.115;73;000.469;MIDI 01
311.306;000.104;67;000.461;MIDI 01
311.140;000.441;34;000.578;MIDI 01
311.489;000.166;73;000.508;MIDI 01
311.642;000.065;36;000.430;MIDI 01
311.738;000.087;34;000.531;MIDI 01
311.742;000.118;67;000.383;MIDI 01
311.882;000.067;72;000.414;MIDI 01
311.831;000.197;32;000.539;MIDI 01
311.958;000.073;75;000.477;MIDI 01
312.044;000.064;77;000.484;MIDI 01
312.117;000.084;75;000.477;MIDI 01
312.214;000.050;73;000.523;MIDI 01
312.300;000.035;72;000.477;MIDI 01
312.374;000.050;70;000.516;MIDI 01
312.455;000.051;68;000.516;MIDI 01
312.554;000.046;67;000.539;MIDI 01
312.649;000.059;77;000.461;MIDI 01
312.518;000.229;61;000.453;MIDI 01
312.542;000.257;51;000.391;MIDI 01
312.715;000.089;75;000.500;MIDI 01
312.803;000.045;73;000.516;MIDI 01
312.539;000.312;58;000.328;MIDI 01
312.890;000.032;72;000.477;MIDI 01
312.969;000.049;70;000.477;MIDI 01
313.051;000.050;68;000.445;MIDI 01
313.134;000.053;67;000.469;MIDI 01
313.238;000.060;68;000.422;MIDI 01
313.333;000.029;70;000.492;MIDI 01
313.417;000.057;72;000.547;MIDI 01
313.235;000.252;60;000.227;MIDI 01
313.493;000.059;73;000.562;MIDI 01
313.567;000.052;75;000.578;MIDI 01
313.231;000.398;56;000.258;MIDI 01
313.648;000.114;77;000.609;MIDI 01
313.726;000.091;79;000.602;MIDI 01
313.804;000.117;80;000.617;MIDI 01
313.904;000.082;82;000.539;MIDI 01
313.986;000.138;84;000.625;MIDI 01
313.921;000.244;58;000.383;MIDI 01
314.081;000.118;82;000.602;MIDI 01
313.916;000.292;63;000.430;MIDI 01
314.152;000.087;80;000.602;MIDI 01
314.248;000.034;79;000.602;MIDI 01
314.325;000.044;77;000.484;MIDI 01
313.925;000.549;55;000.414;MIDI 01
314.421;000.057;75;000.492;MIDI 01
314.543;000.021;73;000.375;MIDI 01
314.603;000.053;72;000.453;MIDI 01
314.702;000.031;75;000.406;MIDI 01
314.788;000.067;77;000.438;MIDI 01
314.616;000.275;60;000.219;MIDI 01
314.611;000.312;63;000.172;MIDI 01
314.852;000.074;75;000.508;MIDI 01
314.621;000.336;56;000.266;MIDI 01
314.957;000.044;73;000.461;MIDI 01
315.047;000.026;72;000.359;MIDI 01
315.116;000.045;70;000.469;MIDI 01
315.224;000.030;68;000.367;MIDI 01
315.303;000.054;67;000.414;MIDI 01
315.401;000.058;77;000.422;MIDI 01
315.493;000.061;75;000.469;MIDI 01
315.584;000.036;73;000.422;MIDI 01
315.322;000.360;58;000.195;MIDI 01
315.660;000.034;72;000.422;MIDI 01
315.301;000.396;63;000.234;MIDI 01
315.284;000.452;61;000.219;MIDI 01
315.746;000.033;70;000.398;MIDI 01
315.805;000.052;68;000.445;MIDI 01
315.917;000.045;67;000.461;MIDI 01
315.996;000.069;68;000.383;MIDI 01
316.084;000.055;70;000.469;MIDI 01
316.176;000.068;72;000.539;MIDI 01
315.998;000.318;60;000.273;MIDI 01
316.265;000.071;73;000.547;MIDI 01
316.344;000.033;75;000.578;MIDI 01
315.993;000.407;63;000.250;MIDI 01
316.432;000.073;77;000.586;MIDI 01
316.501;000.085;79;000.531;MIDI 01
316.583;000.081;80;000.602;MIDI 01
316.671;000.083;82;000.555;MIDI 01
316.759;000.126;84;000.562;MIDI 01
316.669;000.272;55;000.320;MIDI 01
316.858;000.098;82;000.539;MIDI 01
316.665;000.300;58;000.320;MIDI 01
316.655;000.333;63;000.312;MIDI 01
316.938;000.075;80;000.531;MIDI 01
317.019;000.043;79;000.531;MIDI 01
317.113;000.044;77;000.445;MIDI 01
317.209;000.044;75;000.445;MIDI 01
317.305;000.034;73;000.367;MIDI 01
317.377;000.052;72;000.461;MIDI 01
317.391;000.057;68;000.352;MIDI 01
317.461;000.064;73;000.477;MIDI 01
317.575;000.044;75;000.422;MIDI 01
317.652;000.052;73;000.445;MIDI 01
317.757;000.037;72;000.406;MIDI 01
317.746;000.052;63;000.391;MIDI 01
317.828;000.047;73;000.422;MIDI 01
317.934;000.029;75;000.375;MIDI 01
317.998;000.059;73;000.461;MIDI 01
318.099;000.064;72;000.445;MIDI 01
318.123;000.047;60;000.258;MIDI 01
318.204;000.038;73;000.398;MIDI 01
318.292;000.046;75;000.406;MIDI 01
318.371;000.052;73;000.430;MIDI 01
318.464;000.048;72;000.430;MIDI 01
318.460;000.057;56;000.352;MIDI 01
318.543;000.050;73;000.445;MIDI 01
318.649;000.038;75;000.406;MIDI 01
318.719;000.050;73;000.430;MIDI 01
318.816;000.048;72;000.430;MIDI 01
318.840;000.042;66;000.352;MIDI 01
318.889;000.065;73;000.445;MIDI 01
318.990;000.052;75;000.430;MIDI 01
319.075;000.058;73;000.438;MIDI 01
319.185;000.040;63;000.445;MIDI 01
319.188;000.043;72;000.414;MIDI 01
319.266;000.061;73;000.438;MIDI 01
319.370;000.048;75;000.430;MIDI 01
319.451;000.050;73;000.438;MIDI 01
319.545;000.047;60;000.383;MIDI 01
319.536;000.057;72;000.461;MIDI 01
319.622;000.066;73;000.453;MIDI 01
319.724;000.050;75;000.445;MIDI 01
319.812;000.052;73;000.453;MIDI 01
319.899;000.029;54;000.438;MIDI 01
319.915;000.048;72;000.422;MIDI 01
319.995;000.059;73;000.445;MIDI 01
320.099;000.049;75;000.422;MIDI 01
320.168;000.054;73;000.469;MIDI 01
320.261;000.071;72;000.523;MIDI 01
320.339;000.070;74;000.539;MIDI 01
320.444;000.066;75;000.484;MIDI 01
320.534;000.058;74;000.492;MIDI 01
320.628;000.066;72;000.523;MIDI 01
320.730;000.052;74;000.516;MIDI 01
320.819;000.053;75;000.531;MIDI 01
320.909;000.039;74;000.523;MIDI 01
320.980;000.082;72;000.547;MIDI 01
321.061;000.070;74;000.516;MIDI 01
321.145;000.051;75;000.562;MIDI 01
321.233;000.060;74;000.570;MIDI 01
321.326;000.050;72;000.500;MIDI 01
321.390;000.030;75;000.578;MIDI 01
320.250;001.258;42;000.656;MIDI 01
321.481;000.046;74;000.602;MIDI 01
320.241;001.290;30;000.672;MIDI 01
321.547;000.033;72;000.484;MIDI 01
321.632;000.046;71;000.570;MIDI 01
321.749;000.035;67;000.492;MIDI 01
321.668;000.160;31;000.461;MIDI 01
321.663;000.182;43;000.391;MIDI 01
321.819;000.053;71;000.484;MIDI 01
321.886;000.064;74;000.578;MIDI 01
321.986;000.070;79;000.555;MIDI 01
322.060;000.046;74;000.531;MIDI 01
322.148;000.026;71;000.547;MIDI 01
322.241;000.073;67;000.516;MIDI 01
322.322;000.034;66;000.562;MIDI 01
322.419;000.047;67;000.539;MIDI 01
322.310;000.170;51;000.578;MIDI 01
322.321;000.239;43;000.539;MIDI 01
322.308;000.282;55;000.602;MIDI 01
322.499;000.096;72;000.523;MIDI 01
322.314;000.320;48;000.539;MIDI 01
322.591;000.077;75;000.555;MIDI 01
322.682;000.094;79;000.570;MIDI 01
322.766;000.066;75;000.547;MIDI 01
322.846;000.032;72;000.516;MIDI 01
322.928;000.055;67;000.461;MIDI 01
323.019;000.047;66;000.555;MIDI 01
323.136;000.026;67;000.461;MIDI 01
323.198;000.058;71;000.531;MIDI 01
323.043;000.279;50;000.305;MIDI 01
323.279;000.051;74;000.586;MIDI 01
323.044;000.308;43;000.297;MIDI 01
323.016;000.347;55;000.375;MIDI 01
323.038;000.326;47;000.344;MIDI 01
323.379;000.068;79;000.508;MIDI 01
323.447;000.046;74;000.562;MIDI 01
323.535;000.033;71;000.547;MIDI 01
323.635;000.062;67;000.516;MIDI 01
323.715;000.024;66;000.570;MIDI 01
323.795;000.077;67;000.570;MIDI 01
323.718;000.182;51;000.609;MIDI 01
323.885;000.100;72;000.539;MIDI 01
323.718;000.273;43;000.539;MIDI 01
323.721;000.278;55;000.578;MIDI 01
323.720;000.314;48;000.531;MIDI 01
323.985;000.086;75;000.570;MIDI 01
324.082;000.107;79;000.570;MIDI 01
324.159;000.093;75;000.539;MIDI 01
324.252;000.051;72;000.531;MIDI 01
324.323;000.090;67;000.500;MIDI 01
324.445;000.072;43;000.438;MIDI 01
324.531;000.051;47;000.453;MIDI 01
324.600;000.041;50;000.453;MIDI 01
324.686;000.091;55;000.484;MIDI 01
324.436;000.366;79;000.562;MIDI 01
324.801;000.027;56;000.500;MIDI 01
324.876;000.061;55;000.500;MIDI 01
324.969;000.060;50;000.516;MIDI 01
325.085;000.057;47;000.438;MIDI 01
325.168;000.069;43;000.508;MIDI 01
325.186;000.066;67;000.516;MIDI 01
325.178;000.111;75;000.531;MIDI 01
325.262;000.046;48;000.453;MIDI 01
325.208;000.106;72;000.367;MIDI 01
325.348;000.030;51;000.492;MIDI 01
325.426;000.059;55;000.461;MIDI 01
325.159;000.374;79;000.680;MIDI 01
325.521;000.031;56;000.469;MIDI 01
325.597;000.036;55;000.547;MIDI 01
325.699;000.035;51;000.523;MIDI 01
325.793;000.051;48;000.469;MIDI 01
325.895;000.069;43;000.469;MIDI 01
325.984;000.052;47;000.523;MIDI 01
325.938;000.140;71;000.117;MIDI 01
326.097;000.064;50;000.148;MIDI 01
325.897;000.302;67;000.398;MIDI 01
326.160;000.054;55;000.461;MIDI 01
325.897;000.349;74;000.398;MIDI 01
325.883;000.367;79;000.508;MIDI 01
326.256;000.035;56;000.461;MIDI 01
326.316;000.052;55;000.570;MIDI 01
326.421;000.062;50;000.539;MIDI 01
326.545;000.057;47;000.344;MIDI 01
326.609;000.078;43;000.516;MIDI 01
326.625;000.110;67;000.547;MIDI 01
326.700;000.069;48;000.383;MIDI 01
326.623;000.173;75;000.500;MIDI 01
326.801;000.034;51;000.484;MIDI 01
326.875;000.079;55;000.539;MIDI 01
326.599;000.363;79;000.672;MIDI 01
326.631;000.339;72;000.492;MIDI 01
326.968;000.044;56;000.516;MIDI 01
327.047;000.053;55;000.531;MIDI 01
327.147;000.065;51;000.578;MIDI 01
327.257;000.093;48;000.547;MIDI 01
327.360;000.073;67;000.586;MIDI 01
327.368;000.099;71;000.500;MIDI 01
327.354;000.151;74;000.570;MIDI 01
327.363;000.276;43;000.602;MIDI 01
327.340;000.346;79;000.680;MIDI 01
328.193;000.077;79;000.578;MIDI 01
328.199;000.073;74;000.578;MIDI 01
328.191;000.108;55;000.562;MIDI 01
328.182;000.139;50;000.539;MIDI 01
328.188;000.161;43;000.578;MIDI 01
328.178;000.226;83;000.688;MIDI 01
328.195;000.285;47;000.562;MIDI 01
329.349;001.584;47;000.539;MIDI 01
329.347;001.942;43;000.539;MIDI 01
329.343;002.825;50;000.539;MIDI 01
329.337;002.996;55;000.609;MIDI 01
329.341;003.035;31;000.594;MIDI 01
333.606;000.095;83;000.297;MIDI 01
333.696;000.046;80;000.289;MIDI 01
333.689;000.066;68;000.234;MIDI 01
333.701;000.067;64;000.148;MIDI 01
333.992;000.078;83;000.391;MIDI 01
334.043;000.041;66;000.305;MIDI 01
334.045;000.043;59;000.320;MIDI 01
334.047;000.043;78;000.438;MIDI 01
334.336;000.084;83;000.367;MIDI 01
334.408;000.029;76;000.414;MIDI 01
334.449;000.253;56;000.227;MIDI 01
334.438;000.271;64;000.250;MIDI 01
334.719;000.060;83;000.352;MIDI 01
334.779;000.040;71;000.289;MIDI 01
335.059;000.073;83;000.305;MIDI 01
335.132;000.045;80;000.484;MIDI 01
335.149;000.050;68;000.312;MIDI 01
335.177;000.049;64;000.203;MIDI 01
335.469;000.062;83;000.359;MIDI 01
335.529;000.034;66;000.297;MIDI 01
335.531;000.034;78;000.445;MIDI 01
335.547;000.040;59;000.242;MIDI 01
335.845;000.057;83;000.328;MIDI 01
335.908;000.039;76;000.438;MIDI 01
335.932;000.243;56;000.156;MIDI 01
335.927;000.265;64;000.188;MIDI 01
336.201;000.084;83;000.383;MIDI 01
336.278;000.035;71;000.375;MIDI 01
336.565;000.055;64;000.219;MIDI 01
336.585;000.069;88;000.367;MIDI 01
336.634;000.044;83;000.438;MIDI 01
336.636;000.045;68;000.383;MIDI 01
336.946;000.041;64;000.227;MIDI 01
336.944;000.047;88;000.258;MIDI 01
336.989;000.040;85;000.469;MIDI 01
336.991;000.057;69;000.430;MIDI 01
337.290;000.051;64;000.320;MIDI 01
337.277;000.079;88;000.469;MIDI 01
337.344;000.033;86;000.477;MIDI 01
337.369;000.048;71;000.406;MIDI 01
337.647;000.053;64;000.344;MIDI 01
337.631;000.079;88;000.492;MIDI 01
337.695;000.034;85;000.516;MIDI 01
337.706;000.039;73;000.516;MIDI 01
338.033;000.049;64;000.133;MIDI 01
337.978;000.107;88;000.492;MIDI 01
338.065;000.031;74;000.625;MIDI 01
338.067;000.041;83;000.492;MIDI 01
338.359;000.049;64;000.508;MIDI 01
338.339;000.100;88;000.516;MIDI 01
338.430;000.022;80;000.594;MIDI 01
338.432;000.052;74;000.656;MIDI 01
338.724;000.041;64;000.398;MIDI 01
338.709;000.095;88;000.383;MIDI 01
338.783;000.036;81;000.484;MIDI 01
338.804;000.272;73;000.617;MIDI 01
339.078;000.068;85;000.438;MIDI 01
339.159;000.031;76;000.445;MIDI 01
339.439;000.096;76;000.312;MIDI 01
339.514;000.042;61;000.352;MIDI 01
339.523;000.035;57;000.281;MIDI 01
339.530;000.040;73;000.352;MIDI 01
339.814;000.064;76;000.359;MIDI 01
339.870;000.047;59;000.281;MIDI 01
339.876;000.049;52;000.266;MIDI 01
339.896;000.038;71;000.336;MIDI 01
340.160;000.083;76;000.320;MIDI 01
340.257;000.043;69;000.328;MIDI 01
340.278;000.298;57;000.141;MIDI 01
340.269;000.315;49;000.172;MIDI 01
340.543;000.099;76;000.375;MIDI 01
340.636;000.032;64;000.406;MIDI 01
340.919;000.086;76;000.391;MIDI 01
341.010;000.027;73;000.359;MIDI 01
341.005;000.053;61;000.359;MIDI 01
341.028;000.043;57;000.219;MIDI 01
341.285;000.105;76;000.430;MIDI 01
341.361;000.049;59;000.320;MIDI 01
341.385;000.035;71;000.398;MIDI 01
341.383;000.046;52;000.320;MIDI 01
341.656;000.098;76;000.414;MIDI 01
341.761;000.044;69;000.406;MIDI 01
341.769;000.210;57;000.219;MIDI 01
342.121;000.129;76;000.391;MIDI 01
342.243;000.043;64;000.211;MIDI 01
341.786;000.588;49;000.211;MIDI 01
342.511;000.087;81;000.523;MIDI 01
342.615;000.045;69;000.227;MIDI 01
342.859;000.108;85;000.539;MIDI 01
342.950;000.029;73;000.336;MIDI 01
343.346;000.069;79;000.336;MIDI 01
343.226;000.193;88;000.422;MIDI 01
343.750;000.022;79;000.383;MIDI 01
343.659;000.116;88;000.422;MIDI 01
343.409;000.647;76;000.312;MIDI 01
343.385;000.706;73;000.211;MIDI 01
344.017;000.214;88;000.445;MIDI 01
344.115;000.133;79;000.414;MIDI 01
344.387;000.114;88;000.531;MIDI 01
344.480;000.043;79;000.445;MIDI 01
344.132;000.644;71;000.375;MIDI 01
344.117;000.742;74;000.430;MIDI 01
344.746;000.244;88;000.461;MIDI 01
344.857;000.182;78;000.422;MIDI 01
344.864;000.252;70;000.297;MIDI 01
344.861;000.334;73;000.320;MIDI 01
345.150;000.140;88;000.484;MIDI 01
345.224;000.133;79;000.508;MIDI 01
345.252;000.292;71;000.398;MIDI 01
345.209;000.449;74;000.469;MIDI 01
345.592;000.070;70;000.414;MIDI 01
345.492;000.185;88;000.516;MIDI 01
345.600;000.118;78;000.617;MIDI 01
345.605;000.289;73;000.445;MIDI 01
345.894;000.127;88;000.492;MIDI 01
345.986;000.099;85;000.547;MIDI 01
346.006;000.248;70;000.352;MIDI 01
346.034;000.576;66;000.312;MIDI 01
346.398;000.315;88;000.461;MIDI 01
346.673;000.274;71;000.195;MIDI 01
346.666;000.426;86;000.367;MIDI 01
346.972;000.170;74;000.234;MIDI 01
347.142;000.209;71;000.336;MIDI 01
347.332;000.176;74;000.297;MIDI 01
347.534;000.147;71;000.266;MIDI 01
347.717;000.182;74;000.273;MIDI 01
347.521;000.485;79;000.367;MIDI 01
347.909;000.125;71;000.273;MIDI 01
348.085;000.065;81;000.422;MIDI 01
348.076;000.153;74;000.320;MIDI 01
348.157;000.075;79;000.469;MIDI 01
348.257;000.109;70;000.289;MIDI 01
348.431;000.150;73;000.320;MIDI 01
348.622;000.095;70;000.352;MIDI 01
348.804;000.145;73;000.281;MIDI 01
348.265;000.695;78;000.367;MIDI 01
348.983;000.093;71;000.320;MIDI 01
349.166;000.147;74;000.320;MIDI 01
349.374;000.057;71;000.352;MIDI 01
349.536;000.109;74;000.328;MIDI 01
348.959;000.735;77;000.406;MIDI 01
349.739;000.122;70;000.305;MIDI 01
349.727;000.246;78;000.375;MIDI 01
349.933;000.090;73;000.305;MIDI 01
350.130;000.140;70;000.305;MIDI 01
350.314;000.033;73;000.273;MIDI 01
350.527;000.211;86;000.328;MIDI 01
350.749;000.121;79;000.375;MIDI 01
350.553;000.425;71;000.375;MIDI 01
350.905;000.162;86;000.375;MIDI 01
351.116;000.025;73;000.367;MIDI 01
351.134;000.092;79;000.305;MIDI 01
351.167;000.173;71;000.422;MIDI 01
351.306;000.167;85;000.406;MIDI 01
351.488;000.127;79;000.375;MIDI 01
351.667;000.140;85;000.422;MIDI 01
351.845;000.111;79;000.391;MIDI 01
351.299;000.898;70;000.484;MIDI 01
352.032;000.166;84;000.445;MIDI 01
352.212;000.135;78;000.375;MIDI 01
352.396;000.148;84;000.406;MIDI 01
352.571;000.150;78;000.438;MIDI 01
352.018;000.878;69;000.516;MIDI 01
352.768;000.175;83;000.438;MIDI 01
352.961;000.040;76;000.453;MIDI 01
353.165;000.086;83;000.297;MIDI 01
352.782;000.478;68;000.500;MIDI 01
353.345;000.029;76;000.359;MIDI 01
353.568;000.089;83;000.359;MIDI 01
353.705;000.093;76;000.367;MIDI 01
353.542;000.465;67;000.500;MIDI 01
353.896;000.133;83;000.398;MIDI 01
354.062;000.027;69;000.398;MIDI 01
354.100;000.068;76;000.328;MIDI 01
354.152;000.066;67;000.383;MIDI 01
354.256;000.158;82;000.398;MIDI 01
354.432;000.152;76;000.375;MIDI 01
354.626;000.148;82;000.391;MIDI 01
354.802;000.130;76;000.391;MIDI 01
354.996;000.238;82;000.422;MIDI 01
355.172;000.120;76;000.469;MIDI 01
355.350;000.139;83;000.461;MIDI 01
354.254;001.270;66;000.438;MIDI 01
355.334;000.220;67;000.484;MIDI 01
355.524;000.163;76;000.484;MIDI 01
355.734;000.161;82;000.445;MIDI 01
355.897;000.142;76;000.391;MIDI 01
356.098;000.143;82;000.398;MIDI 01
356.262;000.134;76;000.383;MIDI 01
356.446;000.221;82;000.430;MIDI 01
356.616;000.134;76;000.430;MIDI 01
355.711;001.254;66;000.547;MIDI 01
356.818;000.149;83;000.445;MIDI 01
356.816;000.208;67;000.492;MIDI 01
356.978;000.153;76;000.469;MIDI 01
357.190;000.143;82;000.453;MIDI 01
357.358;000.130;76;000.430;MIDI 01
357.554;000.133;82;000.398;MIDI 01
357.727;000.119;76;000.344;MIDI 01
357.913;000.102;82;000.359;MIDI 01
358.070;000.122;76;000.352;MIDI 01
358.269;000.116;82;000.391;MIDI 01
358.448;000.172;76;000.289;MIDI 01
358.668;000.101;81;000.305;MIDI 01
357.171;001.615;66;000.539;MIDI 01
358.846;000.134;75;000.281;MIDI 01
359.026;000.091;81;000.328;MIDI 01
359.191;000.156;75;000.289;MIDI 01
359.398;000.076;81;000.320;MIDI 01
358.635;000.874;65;000.289;MIDI 01
359.561;000.155;75;000.273;MIDI 01
359.767;000.058;81;000.336;MIDI 01
359.920;000.161;75;000.281;MIDI 01
360.133;000.115;80;000.328;MIDI 01
360.328;000.167;74;000.297;MIDI 01
360.506;000.114;80;000.312;MIDI 01
360.683;000.175;74;000.273;MIDI 01
360.156;000.793;58;000.164;MIDI 01
360.892;000.106;80;000.375;MIDI 01
361.043;000.190;74;000.352;MIDI 01
361.253;000.124;80;000.344;MIDI 01
360.142;001.265;65;000.203;MIDI 01
361.225;000.189;59;000.406;MIDI 01
361.424;000.079;75;000.383;MIDI 01
361.621;000.132;80;000.367;MIDI 01
361.797;000.133;74;000.391;MIDI 01
361.983;000.136;80;000.383;MIDI 01
362.159;000.148;74;000.430;MIDI 01
362.359;000.137;80;000.438;MIDI 01
361.623;000.965;58;000.438;MIDI 01
362.525;000.100;74;000.406;MIDI 01
361.616;001.162;65;000.398;MIDI 01
362.707;000.110;80;000.438;MIDI 01
362.711;000.139;59;000.414;MIDI 01
362.886;000.050;75;000.383;MIDI 01
363.094;000.045;80;000.352;MIDI 01
363.097;000.183;65;000.289;MIDI 01
363.279;000.031;74;000.344;MIDI 01
363.448;000.045;77;000.359;MIDI 01
363.609;000.046;68;000.391;MIDI 01
363.806;000.028;72;000.344;MIDI 01
363.087;000.843;58;000.281;MIDI 01
363.979;000.041;65;000.320;MIDI 01
364.151;000.035;68;000.344;MIDI 01
364.331;000.046;62;000.297;MIDI 01
364.503;000.330;65;000.336;MIDI 01
364.697;000.276;56;000.383;MIDI 01
364.890;000.380;60;000.453;MIDI 01
365.064;000.305;53;000.492;MIDI 01
365.255;000.202;56;000.562;MIDI 01
365.414;000.250;46;000.531;MIDI 01
365.620;000.226;48;000.594;MIDI 01
365.847;000.144;50;000.578;MIDI 01
366.255;000.271;55;000.555;MIDI 01
366.271;000.302;39;000.492;MIDI 01
366.253;000.356;51;000.602;MIDI 01
366.273;000.339;43;000.445;MIDI 01
366.247;000.372;58;000.555;MIDI 01
366.240;000.461;63;000.617;MIDI 01
366.265;000.465;46;000.508;MIDI 01
367.068;000.408;61;000.602;MIDI 01
367.075;000.418;39;000.523;MIDI 01
367.066;000.461;63;000.547;MIDI 01
367.077;000.482;46;000.523;MIDI 01
367.061;000.498;49;000.586;MIDI 01
367.079;000.483;43;000.469;MIDI 01
367.065;000.522;67;000.641;MIDI 01
367.661;000.055;61;000.562;MIDI 01
367.703;000.039;39;000.383;MIDI 01
367.651;000.107;49;000.602;MIDI 01
367.670;000.115;43;000.406;MIDI 01
367.653;000.136;63;000.602;MIDI 01
367.641;000.203;67;000.516;MIDI 01
367.842;000.498;68;000.648;MIDI 01
367.844;000.648;60;000.672;MIDI 01
367.840;001.300;48;000.633;MIDI 01
369.038;000.117;68;000.492;MIDI 01
367.851;001.307;44;000.531;MIDI 01
369.108;000.108;67;000.516;MIDI 01
369.200;000.035;65;000.547;MIDI 01
369.240;000.043;63;000.555;MIDI 01
367.848;001.508;39;000.523;MIDI 01
369.438;000.212;56;000.477;MIDI 01
369.448;000.209;58;000.375;MIDI 01
369.386;000.331;62;000.609;MIDI 01
369.398;000.522;41;000.430;MIDI 01
369.402;000.527;50;000.406;MIDI 01
369.427;000.621;44;000.367;MIDI 01
370.167;000.243;50;000.508;MIDI 01
370.169;000.250;44;000.297;MIDI 01
369.950;000.514;65;000.562;MIDI 01
370.174;000.347;41;000.484;MIDI 01
370.165;000.561;70;000.625;MIDI 01
370.174;000.627;39;000.406;MIDI 01
370.733;000.158;68;000.570;MIDI 01
370.999;000.398;58;000.414;MIDI 01
370.978;000.560;39;000.461;MIDI 01
370.988;000.634;63;000.469;MIDI 01
370.981;000.658;46;000.406;MIDI 01
370.990;000.653;43;000.398;MIDI 01
370.955;000.734;67;000.562;MIDI 01
370.975;000.761;51;000.430;MIDI 01
372.827;000.115;65;000.156;MIDI 01
372.811;000.145;68;000.094;MIDI 01
372.802;000.181;58;000.172;MIDI 01
372.794;000.635;74;000.273;MIDI 01
373.361;000.129;77;000.352;MIDI 01
373.611;000.084;65;000.117;MIDI 01
373.574;000.124;68;000.258;MIDI 01
373.577;000.128;58;000.258;MIDI 01
373.571;000.495;82;000.398;MIDI 01
374.127;000.144;80;000.430;MIDI 01
374.145;000.141;62;000.242;MIDI 01
374.353;000.244;63;000.250;MIDI 01
374.344;000.268;79;000.383;MIDI 01
375.369;000.054;80;000.211;MIDI 01
375.355;000.083;58;000.266;MIDI 01
375.339;000.216;84;000.391;MIDI 01
375.543;000.026;79;000.328;MIDI 01
375.522;000.085;60;000.336;MIDI 01
375.519;000.140;82;000.445;MIDI 01
375.671;000.098;80;000.445;MIDI 01
375.702;000.119;62;000.312;MIDI 01
375.946;000.045;75;000.305;MIDI 01
375.904;000.091;63;000.266;MIDI 01
375.879;000.128;79;000.492;MIDI 01
377.072;000.054;80;000.281;MIDI 01
377.035;000.143;58;000.211;MIDI 01
377.041;000.195;84;000.352;MIDI 01
377.256;000.080;60;000.258;MIDI 01
377.242;000.113;82;000.375;MIDI 01
377.423;000.202;80;000.297;MIDI 01
377.438;000.283;62;000.227;MIDI 01
377.832;000.061;75;000.227;MIDI 01
377.816;000.193;63;000.109;MIDI 01
377.788;000.258;79;000.305;MIDI 01
379.317;000.042;80;000.422;MIDI 01
379.484;000.045;79;000.477;MIDI 01
379.295;000.239;84;000.547;MIDI 01
379.471;000.175;82;000.578;MIDI 01
379.635;000.041;77;000.484;MIDI 01
379.641;000.094;80;000.539;MIDI 01
379.826;000.018;75;000.445;MIDI 01
379.808;000.079;79;000.547;MIDI 01
379.985;000.039;80;000.516;MIDI 01
379.976;000.058;84;000.547;MIDI 01
380.151;000.035;79;000.562;MIDI 01
380.149;000.075;82;000.602;MIDI 01
380.318;000.029;77;000.477;MIDI 01
380.302;000.054;80;000.625;MIDI 01
380.472;000.049;79;000.602;MIDI 01
380.488;000.039;75;000.500;MIDI 01
380.705;000.043;79;000.586;MIDI 01
380.694;000.081;82;000.602;MIDI 01
380.883;000.024;80;000.602;MIDI 01
380.892;000.024;77;000.562;MIDI 01
381.051;000.026;75;000.586;MIDI 01
381.049;000.043;79;000.570;MIDI 01
381.212;000.043;74;000.609;MIDI 01
381.208;000.059;77;000.617;MIDI 01
381.371;000.033;75;000.562;MIDI 01
381.378;000.029;72;000.555;MIDI 01
381.548;000.030;70;000.555;MIDI 01
381.540;000.058;74;000.555;MIDI 01
381.697;000.039;68;000.562;MIDI 01
381.699;000.047;72;000.555;MIDI 01
381.856;000.056;70;000.555;MIDI 01
381.880;000.041;67;000.492;MIDI 01
382.040;000.029;68;000.531;MIDI 01
382.047;000.032;65;000.492;MIDI 01
382.223;000.040;63;000.477;MIDI 01
382.214;000.051;67;000.492;MIDI 01
382.382;000.029;65;000.492;MIDI 01
382.406;000.030;62;000.375;MIDI 01
382.605;000.092;48;000.305;MIDI 01
382.773;000.113;56;000.234;MIDI 01
382.954;000.095;48;000.312;MIDI 01
383.106;000.097;56;000.305;MIDI 01
383.295;000.104;48;000.344;MIDI 01
382.565;000.886;63;000.539;MIDI 01
383.481;000.094;56;000.297;MIDI 01
383.663;000.132;48;000.352;MIDI 01
383.829;000.048;65;000.406;MIDI 01
383.871;000.070;56;000.242;MIDI 01
383.896;000.052;63;000.422;MIDI 01
384.010;000.179;46;000.227;MIDI 01
384.179;000.116;56;000.250;MIDI 01
383.973;000.459;62;000.453;MIDI 01
384.359;000.097;46;000.352;MIDI 01
384.521;000.128;56;000.344;MIDI 01
384.729;000.119;46;000.281;MIDI 01
384.885;000.126;55;000.320;MIDI 01
385.050;000.137;46;000.305;MIDI 01
385.231;000.146;55;000.359;MIDI 01
384.679;000.734;61;000.531;MIDI 01
385.439;000.092;44;000.320;MIDI 01
385.607;000.155;55;000.320;MIDI 01
385.810;000.088;44;000.336;MIDI 01
385.957;000.114;55;000.344;MIDI 01
386.154;000.093;44;000.297;MIDI 01
386.320;000.111;53;000.336;MIDI 01
385.427;001.014;60;000.406;MIDI 01
386.479;000.130;44;000.320;MIDI 01
386.668;000.044;62;000.398;MIDI 01
386.731;000.056;60;000.414;MIDI 01
386.651;000.159;53;000.297;MIDI 01
386.834;000.105;43;000.266;MIDI 01
386.818;000.210;58;000.398;MIDI 01
386.991;000.119;53;000.289;MIDI 01
387.178;000.123;43;000.359;MIDI 01
387.360;000.054;60;000.422;MIDI 01
387.331;000.101;53;000.344;MIDI 01
387.413;000.154;62;000.469;MIDI 01
387.516;000.137;43;000.344;MIDI 01
387.511;000.333;63;000.477;MIDI 01
387.700;000.163;51;000.391;MIDI 01
387.873;000.110;43;000.391;MIDI 01
388.044;000.082;51;000.406;MIDI 01
388.070;000.058;65;000.484;MIDI 01
388.120;000.202;67;000.500;MIDI 01
388.231;000.137;41;000.414;MIDI 01
388.403;000.089;50;000.406;MIDI 01
388.574;000.102;41;000.391;MIDI 01
388.770;000.131;50;000.367;MIDI 01
388.218;000.846;68;000.570;MIDI 01
388.967;000.251;39;000.422;MIDI 01
389.121;000.170;43;000.469;MIDI 01
389.280;000.140;46;000.484;MIDI 01
388.933;000.701;67;000.508;MIDI 01
389.470;000.193;51;000.406;MIDI 01
389.682;000.142;65;000.281;MIDI 01
390.025;000.097;70;000.328;MIDI 01
389.699;000.462;46;000.281;MIDI 01
390.203;000.137;69;000.352;MIDI 01
390.363;000.144;72;000.375;MIDI 01
390.526;000.129;70;000.383;MIDI 01
390.711;000.094;74;000.391;MIDI 01
390.717;000.268;58;000.344;MIDI 01
390.926;000.156;57;000.305;MIDI 01
390.893;000.195;72;000.344;MIDI 01
391.100;000.136;60;000.297;MIDI 01
391.072;000.184;75;000.445;MIDI 01
391.281;000.064;58;000.336;MIDI 01
391.244;000.140;74;000.422;MIDI 01
391.422;000.101;77;000.477;MIDI 01
391.426;000.137;62;000.375;MIDI 01
391.605;000.167;60;000.375;MIDI 01
391.604;000.182;76;000.492;MIDI 01
391.779;000.096;63;000.414;MIDI 01
391.781;000.157;79;000.469;MIDI 01
391.945;000.173;77;000.492;MIDI 01
391.947;000.208;62;000.469;MIDI 01
392.137;000.111;80;000.500;MIDI 01
392.128;000.193;65;000.484;MIDI 01
392.306;000.174;64;000.477;MIDI 01
392.321;000.224;79;000.508;MIDI 01
392.495;000.259;82;000.500;MIDI 01
392.478;000.372;67;000.555;MIDI 01
392.673;000.207;80;000.516;MIDI 01
392.854;000.124;79;000.508;MIDI 01
393.035;000.133;77;000.461;MIDI 01
393.189;000.137;75;000.422;MIDI 01
393.389;000.169;74;000.383;MIDI 01
393.597;000.153;84;000.359;MIDI 01
393.780;000.134;82;000.375;MIDI 01
393.945;000.110;80;000.367;MIDI 01
392.660;001.432;65;000.508;MIDI 01
393.381;000.853;58;000.219;MIDI 01
394.128;000.164;79;000.336;MIDI 01
394.139;000.260;67;000.078;MIDI 01
394.320;000.168;80;000.312;MIDI 01
394.194;000.368;63;000.023;MIDI 01
394.522;000.189;82;000.297;MIDI 01
394.736;000.263;83;000.234;MIDI 01
395.069;000.184;84;000.273;MIDI 01
395.273;000.107;79;000.297;MIDI 01
395.091;000.480;75;000.297;MIDI 01
395.450;000.171;84;000.312;MIDI 01
395.626;000.033;77;000.312;MIDI 01
395.636;000.110;79;000.328;MIDI 01
395.710;000.050;75;000.359;MIDI 01
395.778;000.179;84;000.328;MIDI 01
395.800;000.161;74;000.344;MIDI 01
395.972;000.140;77;000.344;MIDI 01
396.129;000.214;84;000.398;MIDI 01
396.322;000.126;77;000.336;MIDI 01
396.530;000.142;82;000.367;MIDI 01
396.709;000.135;77;000.305;MIDI 01
396.525;000.468;37;000.352;MIDI 01
396.896;000.145;82;000.375;MIDI 01
397.061;000.057;39;000.320;MIDI 01
397.065;000.122;77;000.352;MIDI 01
397.136;000.060;37;000.352;MIDI 01
397.242;000.149;82;000.383;MIDI 01
397.248;000.227;36;000.391;MIDI 01
397.440;000.129;76;000.352;MIDI 01
397.634;000.114;82;000.383;MIDI 01
397.785;000.178;76;000.406;MIDI 01
398.002;000.154;80;000.383;MIDI 01
398.185;000.177;75;000.422;MIDI 01
397.991;000.477;72;000.430;MIDI 01
398.359;000.171;80;000.414;MIDI 01
398.529;000.036;73;000.367;MIDI 01
398.591;000.082;72;000.367;MIDI 01
398.570;000.131;75;000.383;MIDI 01
398.738;000.139;80;000.375;MIDI 01
398.717;000.192;70;000.391;MIDI 01
398.921;000.191;74;000.344;MIDI 01
399.080;000.120;80;000.398;MIDI 01
399.264;000.139;74;000.430;MIDI 01
399.455;000.165;79;000.406;MIDI 01
399.630;000.160;74;000.406;MIDI 01
399.440;000.511;34;000.492;MIDI 01
399.816;000.172;79;000.422;MIDI 01
399.993;000.050;36;000.375;MIDI 01
400.095;000.057;34;000.445;MIDI 01
400.006;000.207;74;000.422;MIDI 01
400.161;000.149;79;000.398;MIDI 01
400.176;000.202;32;000.477;MIDI 01
400.356;000.143;72;000.406;MIDI 01
400.538;000.199;79;000.438;MIDI 01
400.703;000.133;72;000.406;MIDI 01
400.898;000.136;77;000.461;MIDI 01
401.055;000.132;72;000.438;MIDI 01
400.890;000.481;68;000.492;MIDI 01
401.240;000.148;77;000.477;MIDI 01
401.413;000.040;70;000.461;MIDI 01
401.427;000.123;72;000.438;MIDI 01
401.474;000.080;68;000.414;MIDI 01
401.608;000.157;77;000.484;MIDI 01
401.558;000.233;67;000.547;MIDI 01
401.774;000.198;70;000.445;MIDI 01
401.972;000.186;77;000.492;MIDI 01
402.135;000.151;70;000.500;MIDI 01
402.339;000.142;75;000.484;MIDI 01
402.496;000.126;70;000.477;MIDI 01
402.322;000.463;31;000.555;MIDI 01
402.679;000.197;75;000.461;MIDI 01
402.860;000.083;32;000.438;MIDI 01
402.891;000.129;70;000.484;MIDI 01
402.931;000.193;31;000.531;MIDI 01
403.048;000.120;74;000.477;MIDI 01
403.051;000.277;29;000.531;MIDI 01
403.236;000.096;70;000.461;MIDI 01
403.396;000.154;38;000.547;MIDI 01
403.403;000.184;80;000.539;MIDI 01
403.581;000.102;70;000.414;MIDI 01
403.759;000.215;79;000.539;MIDI 01
403.745;000.240;39;000.578;MIDI 01
403.930;000.091;70;000.430;MIDI 01
404.125;000.167;75;000.531;MIDI 01
404.128;000.199;43;000.586;MIDI 01
404.291;000.108;70;000.438;MIDI 01
404.491;000.155;46;000.555;MIDI 01
404.494;000.322;74;000.516;MIDI 01
405.062;000.106;53;000.273;MIDI 01
405.057;000.160;82;000.328;MIDI 01
405.039;000.240;74;000.328;MIDI 01
405.204;000.196;46;000.328;MIDI 01
405.404;000.181;54;000.391;MIDI 01
405.419;000.197;75;000.391;MIDI 01
405.400;000.264;81;000.438;MIDI 01
405.566;000.141;46;000.453;MIDI 01
405.765;000.099;75;000.445;MIDI 01
405.759;000.123;57;000.469;MIDI 01
405.747;000.256;78;000.500;MIDI 01
405.904;000.141;46;000.461;MIDI 01
406.108;000.098;58;000.422;MIDI 01
406.120;000.192;74;000.461;MIDI 01
406.098;000.331;77;000.477;MIDI 01
406.276;000.159;46;000.414;MIDI 01
406.485;000.121;53;000.453;MIDI 01
406.457;000.186;82;000.484;MIDI 01
406.490;000.233;74;000.453;MIDI 01
406.634;000.166;46;000.477;MIDI 01
406.833;000.168;54;000.484;MIDI 01
406.840;000.166;75;000.430;MIDI 01
406.993;000.150;46;000.516;MIDI 01
406.807;000.346;81;000.555;MIDI 01
407.188;000.125;57;000.477;MIDI 01
407.174;000.149;75;000.469;MIDI 01
407.177;000.214;78;000.508;MIDI 01
407.337;000.146;46;000.438;MIDI 01
407.575;000.129;74;000.383;MIDI 01
407.551;000.169;58;000.375;MIDI 01
407.721;000.158;46;000.430;MIDI 01
407.528;000.441;77;000.461;MIDI 01
407.920;000.195;58;000.445;MIDI 01
407.942;000.212;76;000.477;MIDI 01
408.091;000.164;46;000.508;MIDI 01
407.900;000.459;79;000.562;MIDI 01
408.283;000.204;58;000.516;MIDI 01
408.281;000.259;77;000.562;MIDI 01
408.275;000.326;80;000.594;MIDI 01
408.453;000.171;46;000.516;MIDI 01
408.663;000.125;76;000.539;MIDI 01
408.653;000.209;58;000.547;MIDI 01
408.650;000.215;79;000.648;MIDI 01
408.852;000.201;46;000.539;MIDI 01
409.091;000.185;58;000.469;MIDI 01
409.097;000.394;79;000.617;MIDI 01
409.314;000.179;46;000.508;MIDI 01
409.515;000.193;58;000.602;MIDI 01
409.076;000.733;82;000.672;MIDI 01
409.690;000.136;46;000.555;MIDI 01
409.872;000.111;77;000.555;MIDI 01
409.891;000.153;58;000.539;MIDI 01
409.868;000.178;80;000.633;MIDI 01
410.081;000.126;46;000.562;MIDI 01
410.286;000.044;74;000.617;MIDI 01
410.276;000.068;77;000.648;MIDI 01
410.274;000.128;58;000.523;MIDI 01
410.510;000.041;46;000.484;MIDI 01
410.853;000.258;51;000.539;MIDI 01
410.855;000.273;67;000.594;MIDI 01
410.857;000.352;70;000.570;MIDI 01
410.846;000.399;58;000.602;MIDI 01
410.848;000.446;75;000.641;MIDI 01
410.864;000.510;55;000.508;MIDI 01
411.698;000.356;51;000.547;MIDI 01
411.691;000.366;73;000.594;MIDI 01
411.682;000.440;61;000.594;MIDI 01
411.693;000.431;55;000.406;MIDI 01
411.700;000.427;58;000.531;MIDI 01
411.671;000.459;79;000.672;MIDI 01
411.685;000.471;75;000.570;MIDI 01
412.302;000.054;51;000.406;MIDI 01
412.299;000.082;55;000.438;MIDI 01
412.271;000.120;61;000.648;MIDI 01
412.284;000.122;73;000.625;MIDI 01
412.282;000.182;75;000.617;MIDI 01
412.276;000.240;79;000.656;MIDI 01
412.495;000.318;75;000.383;MIDI 01
412.503;000.431;72;000.648;MIDI 01
412.497;000.946;80;000.695;MIDI 01
413.527;000.074;82;000.484;MIDI 01
413.626;000.111;84;000.539;MIDI 01
412.516;001.289;56;000.523;MIDI 01
413.698;000.118;82;000.555;MIDI 01
413.788;000.074;80;000.578;MIDI 01
412.501;001.367;60;000.648;MIDI 01
413.860;000.057;79;000.625;MIDI 01
413.935;000.074;77;000.531;MIDI 01
412.508;001.532;51;000.500;MIDI 01
414.018;000.068;75;000.617;MIDI 01
414.106;000.075;74;000.609;MIDI 01
414.205;000.029;75;000.562;MIDI 01
414.281;000.072;77;000.578;MIDI 01
414.357;000.069;79;000.562;MIDI 01
414.431;000.064;80;000.648;MIDI 01
414.518;000.051;79;000.625;MIDI 01
414.604;000.067;77;000.555;MIDI 01
414.688;000.054;75;000.570;MIDI 01
414.775;000.082;74;000.609;MIDI 01
414.861;000.069;75;000.578;MIDI 01
414.936;000.100;77;000.594;MIDI 01
415.023;000.060;75;000.586;MIDI 01
415.104;000.035;74;000.625;MIDI 01
414.061;001.103;62;000.617;MIDI 01
414.075;001.139;56;000.508;MIDI 01
415.189;000.049;72;000.539;MIDI 01
414.073;001.217;51;000.328;MIDI 01
414.071;001.240;53;000.539;MIDI 01
415.280;000.041;70;000.469;MIDI 01
415.352;000.031;68;000.539;MIDI 01
415.433;000.026;67;000.492;MIDI 01
415.434;000.167;51;000.438;MIDI 01
415.547;000.083;82;000.531;MIDI 01
415.446;000.223;55;000.320;MIDI 01
415.431;000.257;58;000.375;MIDI 01
415.643;000.128;84;000.625;MIDI 01
415.727;000.124;82;000.586;MIDI 01
415.801;000.082;80;000.633;MIDI 01
415.883;000.044;79;000.570;MIDI 01
415.436;000.525;63;000.430;MIDI 01
415.951;000.052;77;000.539;MIDI 01
416.086;000.039;75;000.273;MIDI 01
416.125;000.109;74;000.445;MIDI 01
416.131;000.182;65;000.562;MIDI 01
416.253;000.112;84;000.531;MIDI 01
416.319;000.108;82;000.531;MIDI 01
416.404;000.064;80;000.539;MIDI 01
416.166;000.308;58;000.406;MIDI 01
416.170;000.341;56;000.414;MIDI 01
416.473;000.042;79;000.539;MIDI 01
416.544;000.050;77;000.547;MIDI 01
416.653;000.030;75;000.516;MIDI 01
416.739;000.043;74;000.555;MIDI 01
416.809;000.044;75;000.398;MIDI 01
416.931;000.051;82;000.469;MIDI 01
417.032;000.076;84;000.492;MIDI 01
416.821;000.346;63;000.312;MIDI 01
417.121;000.057;82;000.477;MIDI 01
416.823;000.417;58;000.289;MIDI 01
417.188;000.055;80;000.477;MIDI 01
416.851;000.428;55;000.258;MIDI 01
417.272;000.030;79;000.430;MIDI 01
417.337;000.055;77;000.422;MIDI 01
417.424;000.041;75;000.492;MIDI 01
417.532;000.076;74;000.578;MIDI 01
417.642;000.100;84;000.508;MIDI 01
417.533;000.211;65;000.320;MIDI 01
417.710;000.117;82;000.484;MIDI 01
417.799;000.072;80;000.477;MIDI 01
417.880;000.028;79;000.508;MIDI 01
417.548;000.387;60;000.250;MIDI 01
417.530;000.504;56;000.352;MIDI 01
417.953;000.086;77;000.500;MIDI 01
418.044;000.053;75;000.523;MIDI 01
418.149;000.056;74;000.500;MIDI 01
418.249;000.030;75;000.430;MIDI 01
418.335;000.071;77;000.492;MIDI 01
418.417;000.081;79;000.531;MIDI 01
418.482;000.077;80;000.555;MIDI 01
418.572;000.041;82;000.531;MIDI 01
418.666;000.068;84;000.594;MIDI 01
418.744;000.050;86;000.570;MIDI 01
418.828;000.069;87;000.602;MIDI 01
418.908;000.066;85;000.641;MIDI 01
418.993;000.089;84;000.555;MIDI 01
418.248;000.847;63;000.219;MIDI 01
419.069;000.092;82;000.617;MIDI 01
419.158;000.065;80;000.594;MIDI 01
418.246;000.982;58;000.273;MIDI 01
419.233;000.033;79;000.555;MIDI 01
419.308;000.051;77;000.547;MIDI 01
418.243;001.172;55;000.242;MIDI 01
419.381;000.040;75;000.500;MIDI 01
419.464;000.040;73;000.523;MIDI 01
419.568;000.057;72;000.492;MIDI 01
419.866;000.043;84;000.391;MIDI 01
420.051;000.031;83;000.406;MIDI 01
419.625;000.542;60;000.211;MIDI 01
420.217;000.044;86;000.406;MIDI 01
419.609;000.672;63;000.211;MIDI 01
419.611;000.676;56;000.258;MIDI 01
420.393;000.042;84;000.445;MIDI 01
420.567;000.051;87;000.453;MIDI 01
420.741;000.038;83;000.414;MIDI 01
420.922;000.048;86;000.453;MIDI 01
421.127;000.038;84;000.461;MIDI 01
421.295;000.058;87;000.484;MIDI 01
421.486;000.060;83;000.562;MIDI 01
421.496;000.053;71;000.414;MIDI 01
421.691;000.034;74;000.500;MIDI 01
421.664;000.080;86;000.633;MIDI 01
421.872;000.041;72;000.500;MIDI 01
421.853;000.071;84;000.664;MIDI 01
422.059;000.035;75;000.523;MIDI 01
422.040;000.095;87;000.672;MIDI 01
422.295;000.079;72;000.461;MIDI 01
422.276;000.165;84;000.609;MIDI 01
422.456;000.094;68;000.438;MIDI 01
422.438;000.129;80;000.633;MIDI 01
422.594;000.023;65;000.430;MIDI 01
422.572;000.350;77;000.617;MIDI 01
422.846;000.471;75;000.555;MIDI 01
423.417;000.036;77;000.344;MIDI 01
423.457;000.038;75;000.508;MIDI 01
423.532;000.029;74;000.492;MIDI 01
423.589;000.074;75;000.547;MIDI 01
422.872;000.874;67;000.352;MIDI 01
423.679;000.236;74;000.445;MIDI 01
423.729;000.441;68;000.383;MIDI 01
423.684;000.591;79;000.547;MIDI 01
422.881;001.547;58;000.320;MIDI 01
424.284;000.169;77;000.469;MIDI 01
424.615;000.469;63;000.148;MIDI 01
424.641;000.460;67;000.148;MIDI 01
424.601;000.591;75;000.336;MIDI 01
425.599;000.066;82;000.305;MIDI 01
425.665;000.027;79;000.406;MIDI 01
425.673;000.050;67;000.242;MIDI 01
425.677;000.061;63;000.219;MIDI 01
425.953;000.067;82;000.352;MIDI 01
426.024;000.025;65;000.297;MIDI 01
426.026;000.027;77;000.422;MIDI 01
426.020;000.045;58;000.336;MIDI 01
426.315;000.081;82;000.359;MIDI 01
426.390;000.023;75;000.367;MIDI 01
426.406;000.264;55;000.211;MIDI 01
426.405;000.307;63;000.203;MIDI 01
426.677;000.090;82;000.352;MIDI 01
426.762;000.029;70;000.359;MIDI 01
427.031;000.071;82;000.305;MIDI 01
427.115;000.031;79;000.484;MIDI 01
427.121;000.044;67;000.344;MIDI 01
427.132;000.058;63;000.172;MIDI 01
427.420;000.075;82;000.375;MIDI 01
427.484;000.030;65;000.328;MIDI 01
427.488;000.036;77;000.453;MIDI 01
427.490;000.043;58;000.336;MIDI 01
427.780;000.091;82;000.344;MIDI 01
427.856;000.039;75;000.398;MIDI 01
427.886;000.310;55;000.180;MIDI 01
427.876;000.331;63;000.172;MIDI 01
428.144;000.100;82;000.383;MIDI 01
428.227;000.035;70;000.414;MIDI 01
428.527;000.102;82;000.367;MIDI 01
428.604;000.041;73;000.453;MIDI 01
428.619;000.045;63;000.297;MIDI 01
428.616;000.055;55;000.320;MIDI 01
428.904;000.091;82;000.406;MIDI 01
428.976;000.039;71;000.469;MIDI 01
428.991;000.041;55;000.320;MIDI 01
428.996;000.044;63;000.312;MIDI 01
429.302;000.145;82;000.352;MIDI 01
429.426;000.086;72;000.305;MIDI 01
429.924;000.140;76;000.336;MIDI 01
430.020;000.075;77;000.398;MIDI 01
429.423;000.781;63;000.078;MIDI 01
430.432;000.087;79;000.336;MIDI 01
430.529;000.057;80;000.383;MIDI 01
429.433;001.401;56;000.195;MIDI 01
430.897;000.086;79;000.383;MIDI 01
430.993;000.033;77;000.445;MIDI 01
430.040;001.139;60;000.172;MIDI 01
431.307;000.048;75;000.461;MIDI 01
431.391;000.032;74;000.430;MIDI 01
430.578;001.092;65;000.281;MIDI 01
431.690;000.061;84;000.391;MIDI 01
431.749;000.062;82;000.555;MIDI 01
431.004;000.905;57;000.258;MIDI 01
432.046;000.067;81;000.617;MIDI 01
432.113;000.059;82;000.625;MIDI 01
431.382;000.865;58;000.258;MIDI 01
431.755;000.663;60;000.312;MIDI 01
432.110;000.309;62;000.375;MIDI 01
432.398;000.084;84;000.594;MIDI 01
432.455;000.053;82;000.664;MIDI 01
432.453;000.274;70;000.492;MIDI 01
432.724;000.059;80;000.609;MIDI 01
432.820;000.068;78;000.602;MIDI 01
432.817;000.148;63;000.398;MIDI 01
432.802;000.165;66;000.477;MIDI 01
432.907;000.101;80;000.594;MIDI 01
432.978;000.073;78;000.602;MIDI 01
433.024;000.100;70;000.453;MIDI 01
433.047;000.079;77;000.602;MIDI 01
433.143;000.030;75;000.602;MIDI 01
433.177;000.116;63;000.352;MIDI 01
433.192;000.123;66;000.328;MIDI 01
433.322;000.034;75;000.508;MIDI 01
433.353;000.074;70;000.375;MIDI 01
433.504;000.071;80;000.656;MIDI 01
433.506;000.107;62;000.461;MIDI 01
433.519;000.112;65;000.453;MIDI 01
433.589;000.165;82;000.602;MIDI 01
433.686;000.075;70;000.430;MIDI 01
433.688;000.089;80;000.641;MIDI 01
433.766;000.078;78;000.633;MIDI 01
433.848;000.033;77;000.594;MIDI 01
433.837;000.151;65;000.414;MIDI 01
433.835;000.167;62;000.422;MIDI 01
434.036;000.043;77;000.203;MIDI 01
434.044;000.080;70;000.438;MIDI 01
434.289;000.051;78;000.195;MIDI 01
434.359;000.054;80;000.406;MIDI 01
434.246;000.180;63;000.289;MIDI 01
434.270;000.194;66;000.188;MIDI 01
434.453;000.053;78;000.336;MIDI 01
434.451;000.088;70;000.320;MIDI 01
434.525;000.034;77;000.367;MIDI 01
434.600;000.020;75;000.406;MIDI 01
434.615;000.107;63;000.336;MIDI 01
434.620;000.156;66;000.172;MIDI 01
434.775;000.039;75;000.367;MIDI 01
434.803;000.111;70;000.359;MIDI 01
434.978;000.032;80;000.422;MIDI 01
434.989;000.083;62;000.188;MIDI 01
434.986;000.102;65;000.281;MIDI 01
435.062;000.095;82;000.445;MIDI 01
435.132;000.091;80;000.445;MIDI 01
435.171;000.068;70;000.352;MIDI 01
435.221;000.067;78;000.453;MIDI 01
435.307;000.030;77;000.438;MIDI 01
435.334;000.101;65;000.312;MIDI 01
435.347;000.093;62;000.305;MIDI 01
435.501;000.034;70;000.414;MIDI 01
435.496;000.054;77;000.422;MIDI 01
435.700;000.033;78;000.461;MIDI 01
435.709;000.026;66;000.320;MIDI 01
435.711;000.101;54;000.312;MIDI 01
435.784;000.125;80;000.508;MIDI 01
435.866;000.084;78;000.477;MIDI 01
435.948;000.051;77;000.539;MIDI 01
436.047;000.026;75;000.508;MIDI 01
436.059;000.029;63;000.477;MIDI 01
436.056;000.075;51;000.555;MIDI 01
436.147;000.109;77;000.539;MIDI 01
436.215;000.085;75;000.547;MIDI 01
436.315;000.042;73;000.555;MIDI 01
436.389;000.035;59;000.453;MIDI 01
436.382;000.064;47;000.586;MIDI 01
436.391;000.077;71;000.531;MIDI 01
436.473;000.109;73;000.594;MIDI 01
436.548;000.105;71;000.578;MIDI 01
436.639;000.078;70;000.633;MIDI 01
436.722;000.028;56;000.570;MIDI 01
436.717;000.044;44;000.625;MIDI 01
436.724;000.086;68;000.594;MIDI 01
436.810;000.126;70;000.633;MIDI 01
436.895;000.099;68;000.570;MIDI 01
436.981;000.081;66;000.602;MIDI 01
437.078;000.079;65;000.578;MIDI 01
437.062;000.154;53;000.586;MIDI 01
437.161;000.072;66;000.539;MIDI 01
437.251;000.085;68;000.531;MIDI 01
437.336;000.075;66;000.531;MIDI 01
437.436;000.066;65;000.531;MIDI 01
437.522;000.065;66;000.516;MIDI 01
437.600;000.096;68;000.531;MIDI 01
437.057;000.653;41;000.641;MIDI 01
437.705;000.054;66;000.484;MIDI 01
437.800;000.061;65;000.523;MIDI 01
437.875;000.079;66;000.516;MIDI 01
437.973;000.090;68;000.500;MIDI 01
438.053;000.078;66;000.500;MIDI 01
437.766;000.368;51;000.609;MIDI 01
438.163;000.058;65;000.516;MIDI 01
438.235;000.079;66;000.500;MIDI 01
438.332;000.083;68;000.523;MIDI 01
438.428;000.066;66;000.492;MIDI 01
437.756;000.820;39;000.609;MIDI 01
438.530;000.062;65;000.516;MIDI 01
438.618;000.069;66;000.523;MIDI 01
438.510;000.205;50;000.508;MIDI 01
438.711;000.075;68;000.516;MIDI 01
438.798;000.058;66;000.438;MIDI 01
438.890;000.052;65;000.516;MIDI 01
438.973;000.058;66;000.508;MIDI 01
439.065;000.049;68;000.500;MIDI 01
439.151;000.044;66;000.492;MIDI 01
438.512;000.697;38;000.570;MIDI 01
439.241;000.044;65;000.477;MIDI 01
439.250;000.108;47;000.445;MIDI 01
439.305;000.071;66;000.500;MIDI 01
439.407;000.055;68;000.430;MIDI 01
439.497;000.046;66;000.430;MIDI 01
439.589;000.050;65;000.477;MIDI 01
439.247;000.423;35;000.477;MIDI 01
439.677;000.064;66;000.461;MIDI 01
439.788;000.050;68;000.398;MIDI 01
439.878;000.046;66;000.406;MIDI 01
439.975;000.058;65;000.391;MIDI 01
440.060;000.055;66;000.406;MIDI 01
440.184;000.039;68;000.320;MIDI 01
440.246;000.057;66;000.398;MIDI 01
440.345;000.052;65;000.398;MIDI 01
440.417;000.065;66;000.438;MIDI 01
440.542;000.031;68;000.336;MIDI 01
440.598;000.048;66;000.430;MIDI 01
440.695;000.046;65;000.422;MIDI 01
440.772;000.064;66;000.430;MIDI 01
440.886;000.044;68;000.398;MIDI 01
440.956;000.049;66;000.445;MIDI 01
441.055;000.058;65;000.453;MIDI 01
441.132;000.057;66;000.430;MIDI 01
441.235;000.053;68;000.383;MIDI 01
441.318;000.045;66;000.414;MIDI 01
441.405;000.048;65;000.438;MIDI 01
441.486;000.059;67;000.430;MIDI 01
441.572;000.032;68;000.438;MIDI 01
441.650;000.052;67;000.484;MIDI 01
441.751;000.049;65;000.477;MIDI 01
439.974;001.878;46;000.320;MIDI 01
441.837;000.044;67;000.453;MIDI 01
441.911;000.059;68;000.508;MIDI 01
442.000;000.051;67;000.438;MIDI 01
442.096;000.052;65;000.469;MIDI 01
442.160;000.094;67;000.453;MIDI 01
439.990;002.275;34;000.312;MIDI 01
442.229;000.092;68;000.516;MIDI 01
442.321;000.023;70;000.516;MIDI 01
442.404;000.085;72;000.586;MIDI 01
442.485;000.088;74;000.578;MIDI 01
442.560;000.072;75;000.508;MIDI 01
442.645;000.059;77;000.570;MIDI 01
443.012;000.122;75;000.453;MIDI 01
442.995;000.206;70;000.391;MIDI 01
442.954;000.265;79;000.625;MIDI 01
442.985;000.706;67;000.336;MIDI 01
442.993;000.709;63;000.336;MIDI 01
443.811;000.143;77;000.469;MIDI 01
443.802;000.164;62;000.383;MIDI 01
443.791;000.177;70;000.422;MIDI 01
443.818;000.258;65;000.352;MIDI 01
443.775;000.372;82;000.656;MIDI 01
444.738;000.122;75;000.562;MIDI 01
444.740;000.126;80;000.531;MIDI 01
444.744;000.273;68;000.398;MIDI 01
444.735;000.334;60;000.445;MIDI 01
444.711;000.432;87;000.680;MIDI 01
444.750;000.748;63;000.398;MIDI 01
446.448;000.067;86;000.391;MIDI 01
446.520;000.044;84;000.398;MIDI 01
446.589;000.048;82;000.461;MIDI 01
446.684;000.133;80;000.414;MIDI 01
446.693;000.173;75;000.094;MIDI 01
446.671;000.223;72;000.227;MIDI 01
447.240;000.040;79;000.469;MIDI 01
447.254;000.041;75;000.281;MIDI 01
447.242;000.079;70;000.297;MIDI 01
447.457;000.057;75;000.297;MIDI 01
447.454;000.070;84;000.516;MIDI 01
447.489;000.054;68;000.352;MIDI 01
448.066;000.030;75;000.398;MIDI 01
448.052;000.072;66;000.352;MIDI 01
448.044;000.082;82;000.547;MIDI 01
448.081;000.061;70;000.273;MIDI 01
448.290;000.116;81;000.625;MIDI 01
448.302;000.129;75;000.414;MIDI 01
448.325;000.373;72;000.391;MIDI 01
448.331;000.424;65;000.344;MIDI 01
449.704;000.036;80;000.336;MIDI 01
449.710;000.045;84;000.328;MIDI 01
449.869;000.055;82;000.430;MIDI 01
449.890;000.036;79;000.312;MIDI 01
450.040;000.035;80;000.445;MIDI 01
450.057;000.032;77;000.305;MIDI 01
450.403;000.031;70;000.344;MIDI 01
450.239;000.234;75;000.414;MIDI 01
450.434;000.052;67;000.148;MIDI 01
450.575;000.042;65;000.383;MIDI 01
450.584;000.052;68;000.211;MIDI 01
450.767;000.027;67;000.328;MIDI 01
450.759;000.044;63;000.406;MIDI 01
450.220;000.586;79;000.445;MIDI 01
451.108;000.042;80;000.492;MIDI 01
451.103;000.050;84;000.445;MIDI 01
451.300;000.032;79;000.398;MIDI 01
451.294;000.043;82;000.500;MIDI 01
451.448;000.050;80;000.516;MIDI 01
451.476;000.026;77;000.344;MIDI 01
450.953;000.647;62;000.344;MIDI 01
450.932;000.725;65;000.391;MIDI 01
451.657;000.202;75;000.477;MIDI 01
451.818;000.048;70;000.469;MIDI 01
451.836;000.042;67;000.406;MIDI 01
451.996;000.028;68;000.445;MIDI 01
451.998;000.042;65;000.469;MIDI 01
451.635;000.470;79;000.500;MIDI 01
452.177;000.044;67;000.453;MIDI 01
452.174;000.048;63;000.477;MIDI 01
452.371;000.045;62;000.406;MIDI 01
452.363;000.107;65;000.430;MIDI 01
452.551;000.035;70;000.367;MIDI 01
452.540;000.096;80;000.438;MIDI 01
452.728;000.033;79;000.477;MIDI 01
452.529;000.249;84;000.477;MIDI 01
452.725;000.082;72;000.539;MIDI 01
452.718;000.135;82;000.531;MIDI 01
452.900;000.034;77;000.547;MIDI 01
452.895;000.058;80;000.602;MIDI 01
452.893;000.129;74;000.617;MIDI 01
453.079;000.022;79;000.656;MIDI 01
453.077;000.219;75;000.562;MIDI 01
453.334;000.076;82;000.547;MIDI 01
453.354;000.076;79;000.516;MIDI 01
453.320;000.113;87;000.680;MIDI 01
453.540;000.041;80;000.664;MIDI 01
453.534;000.080;86;000.672;MIDI 01
453.544;000.078;77;000.586;MIDI 01
453.717;000.035;79;000.648;MIDI 01
453.707;000.056;75;000.594;MIDI 01
453.705;000.072;84;000.609;MIDI 01
453.883;000.034;77;000.625;MIDI 01
453.885;000.034;82;000.625;MIDI 01
453.892;000.033;74;000.586;MIDI 01
454.048;000.042;72;000.633;MIDI 01
454.064;000.027;75;000.586;MIDI 01
454.046;000.047;80;000.648;MIDI 01
454.239;000.026;74;000.562;MIDI 01
454.230;000.036;70;000.578;MIDI 01
454.226;000.059;79;000.664;MIDI 01
454.398;000.042;72;000.547;MIDI 01
454.399;000.049;68;000.516;MIDI 01
454.395;000.055;77;000.680;MIDI 01
454.616;000.579;67;000.523;MIDI 01
454.599;000.669;76;000.719;MIDI 01
454.618;000.679;70;000.469;MIDI 01
455.414;000.102;77;000.516;MIDI 01
455.431;000.104;72;000.320;MIDI 01
455.441;000.146;68;000.234;MIDI 01
456.353;000.059;74;000.414;MIDI 01
456.397;000.361;68;000.250;MIDI 01
456.401;000.546;65;000.266;MIDI 01
457.253;000.171;67;000.242;MIDI 01
457.242;000.209;75;000.305;MIDI 01
456.374;001.079;70;000.305;MIDI 01
459.989;000.587;60;000.242;MIDI 01
459.970;000.661;72;000.273;MIDI 01
461.553;000.607;71;000.227;MIDI 01
461.577;000.618;47;000.156;MIDI 01
461.557;000.673;59;000.172;MIDI 01
461.551;001.060;35;000.242;MIDI 01
463.186;000.583;57;000.117;MIDI 01
463.176;001.207;69;000.203;MIDI 01
463.210;001.468;33;000.180;MIDI 01
464.750;000.174;32;000.305;MIDI 01
464.748;000.195;44;000.305;MIDI 01
464.784;000.206;56;000.281;MIDI 01
464.731;000.447;68;000.414;MIDI 01
465.640;000.292;33;000.188;MIDI 01
465.568;000.485;69;000.352;MIDI 01
465.603;000.496;57;000.156;MIDI 01
465.626;000.700;45;000.219;MIDI 01
466.504;000.124;34;000.531;MIDI 01
466.526;000.179;58;000.531;MIDI 01
466.661;000.057;46;000.477;MIDI 01
466.800;000.046;34;000.391;MIDI 01
466.522;000.351;63;000.539;MIDI 01
466.524;000.351;67;000.523;MIDI 01
466.868;000.051;46;000.383;MIDI 01
466.502;000.471;70;000.641;MIDI 01
466.947;000.095;34;000.477;MIDI 01
467.060;000.089;46;000.414;MIDI 01
467.170;000.071;34;000.461;MIDI 01
467.269;000.042;46;000.430;MIDI 01
467.277;000.086;67;000.422;MIDI 01
467.286;000.097;70;000.453;MIDI 01
467.369;000.046;34;000.477;MIDI 01
467.267;000.157;75;000.531;MIDI 01
467.423;000.072;46;000.508;MIDI 01
467.523;000.073;34;000.594;MIDI 01
467.619;000.033;46;000.531;MIDI 01
467.644;000.071;70;000.602;MIDI 01
467.650;000.095;75;000.539;MIDI 01
467.674;000.086;34;000.547;MIDI 01
467.648;000.121;79;000.609;MIDI 01
467.777;000.046;46;000.547;MIDI 01
467.821;000.096;34;000.391;MIDI 01
467.917;000.034;46;000.539;MIDI 01
468.040;000.155;34;000.703;MIDI 01
468.028;000.195;75;000.648;MIDI 01
468.045;000.180;79;000.570;MIDI 01
468.024;000.225;82;000.656;MIDI 01
468.628;000.037;75;000.508;MIDI 01
468.622;000.046;79;000.594;MIDI 01
468.631;000.039;67;000.453;MIDI 01
468.642;000.035;63;000.297;MIDI 01
468.804;000.044;67;000.492;MIDI 01
468.807;000.043;70;000.547;MIDI 01
468.819;000.041;79;000.461;MIDI 01
468.806;000.078;82;000.602;MIDI 01
468.990;000.031;75;000.570;MIDI 01
468.984;000.041;63;000.547;MIDI 01
468.986;000.042;67;000.508;MIDI 01
468.972;000.062;79;000.602;MIDI 01
469.168;000.026;70;000.617;MIDI 01
469.175;000.029;79;000.555;MIDI 01
469.160;000.047;67;000.523;MIDI 01
469.161;000.072;82;000.648;MIDI 01
469.340;000.037;75;000.602;MIDI 01
469.337;000.055;67;000.609;MIDI 01
469.325;000.080;79;000.516;MIDI 01
469.546;000.074;70;000.602;MIDI 01
469.530;000.217;82;000.703;MIDI 01
469.538;000.249;79;000.664;MIDI 01
469.551;000.249;67;000.516;MIDI 01
470.337;000.130;58;000.578;MIDI 01
470.334;000.209;65;000.586;MIDI 01
470.345;000.216;46;000.531;MIDI 01
470.343;000.241;68;000.555;MIDI 01
470.351;000.249;70;000.531;MIDI 01
470.360;000.242;50;000.461;MIDI 01
470.349;000.272;53;000.523;MIDI 01
470.331;000.316;74;000.664;MIDI 01
471.140;000.089;75;000.500;MIDI 01
471.158;000.181;55;000.461;MIDI 01
471.246;000.120;79;000.547;MIDI 01
471.150;000.266;51;000.469;MIDI 01
471.339;000.089;77;000.531;MIDI 01
471.411;000.075;75;000.531;MIDI 01
471.497;000.038;74;000.531;MIDI 01
471.580;000.038;72;000.523;MIDI 01
471.690;000.048;70;000.516;MIDI 01
471.769;000.074;69;000.562;MIDI 01
471.868;000.054;68;000.562;MIDI 01
471.880;000.104;53;000.500;MIDI 01
471.879;000.136;46;000.516;MIDI 01
471.955;000.127;72;000.523;MIDI 01
472.042;000.119;70;000.578;MIDI 01
472.126;000.075;68;000.562;MIDI 01
472.218;000.036;67;000.555;MIDI 01
472.290;000.052;65;000.484;MIDI 01
472.385;000.060;63;000.555;MIDI 01
472.490;000.020;62;000.484;MIDI 01
472.579;000.090;63;000.594;MIDI 01
472.667;000.122;79;000.539;MIDI 01
472.599;000.229;55;000.453;MIDI 01
472.757;000.102;77;000.547;MIDI 01
472.583;000.339;51;000.547;MIDI 01
472.848;000.086;75;000.555;MIDI 01
472.934;000.044;74;000.562;MIDI 01
473.009;000.051;72;000.523;MIDI 01
473.108;000.035;70;000.539;MIDI 01
473.195;000.054;69;000.586;MIDI 01
473.292;000.077;68;000.531;MIDI 01
473.301;000.123;53;000.453;MIDI 01
473.383;000.126;72;000.586;MIDI 01
473.304;000.254;46;000.469;MIDI 01
473.489;000.092;70;000.547;MIDI 01
473.557;000.071;68;000.484;MIDI 01
473.653;000.023;67;000.445;MIDI 01
473.723;000.042;65;000.461;MIDI 01
473.826;000.046;63;000.492;MIDI 01
473.938;000.032;62;000.391;MIDI 01
473.994;000.067;63;000.492;MIDI 01
474.038;000.065;39;000.406;MIDI 01
474.044;000.082;51;000.367;MIDI 01
474.086;000.076;62;000.477;MIDI 01
474.196;000.031;63;000.547;MIDI 01
474.294;000.053;67;000.383;MIDI 01
474.369;000.026;67;000.516;MIDI 01
474.367;000.030;43;000.445;MIDI 01
474.358;000.043;55;000.500;MIDI 01
474.459;000.030;66;000.539;MIDI 01
474.536;000.057;67;000.406;MIDI 01
474.649;000.039;70;000.391;MIDI 01
474.717;000.043;58;000.562;MIDI 01
474.724;000.036;46;000.453;MIDI 01
474.692;000.071;70;000.336;MIDI 01
474.796;000.057;69;000.570;MIDI 01
474.869;000.034;70;000.617;MIDI 01
474.972;000.037;75;000.500;MIDI 01
475.059;000.041;63;000.602;MIDI 01
475.085;000.022;75;000.492;MIDI 01
475.087;000.026;51;000.398;MIDI 01
475.135;000.061;74;000.594;MIDI 01
475.229;000.058;75;000.562;MIDI 01
475.310;000.024;79;000.539;MIDI 01
475.413;000.035;79;000.633;MIDI 01
475.416;000.036;67;000.594;MIDI 01
475.429;000.027;55;000.445;MIDI 01
475.516;000.035;78;000.609;MIDI 01
475.605;000.048;79;000.602;MIDI 01
475.705;000.025;82;000.477;MIDI 01
475.778;000.030;70;000.609;MIDI 01
475.794;000.023;58;000.430;MIDI 01
475.788;000.031;82;000.609;MIDI 01
475.876;000.054;81;000.617;MIDI 01
475.928;000.102;82;000.492;MIDI 01
476.029;000.022;87;000.609;MIDI 01
476.135;000.034;75;000.570;MIDI 01
476.151;000.037;63;000.508;MIDI 01
476.133;000.095;87;000.641;MIDI 01
476.247;000.077;82;000.578;MIDI 01
476.336;000.056;81;000.586;MIDI 01
476.424;000.079;82;000.492;MIDI 01
476.509;000.043;58;000.359;MIDI 01
476.511;000.086;86;000.578;MIDI 01
476.604;000.065;82;000.477;MIDI 01
476.688;000.084;81;000.594;MIDI 01
476.793;000.067;82;000.523;MIDI 01
476.878;000.034;63;000.461;MIDI 01
476.891;000.035;67;000.281;MIDI 01
476.881;000.094;87;000.570;MIDI 01
476.993;000.078;82;000.516;MIDI 01
477.079;000.085;81;000.570;MIDI 01
477.178;000.075;82;000.508;MIDI 01
477.249;000.035;68;000.438;MIDI 01
477.261;000.048;58;000.312;MIDI 01
477.259;000.110;86;000.609;MIDI 01
477.356;000.080;82;000.547;MIDI 01
477.444;000.091;81;000.602;MIDI 01
477.529;000.093;82;000.586;MIDI 01
477.611;000.036;67;000.523;MIDI 01
477.633;000.042;63;000.469;MIDI 01
477.622;000.124;87;000.664;MIDI 01
477.724;000.092;82;000.586;MIDI 01
477.820;000.079;81;000.633;MIDI 01
477.899;000.092;82;000.562;MIDI 01
477.975;000.045;68;000.531;MIDI 01
477.989;000.035;58;000.453;MIDI 01
477.991;000.115;86;000.672;MIDI 01
478.171;000.093;81;000.594;MIDI 01
478.086;000.288;82;000.602;MIDI 01
478.357;000.062;63;000.430;MIDI 01
478.351;000.078;87;000.719;MIDI 01
478.467;000.067;67;000.469;MIDI 01
478.575;000.051;63;000.406;MIDI 01
478.684;000.031;67;000.383;MIDI 01
478.765;000.064;63;000.422;MIDI 01
478.849;000.059;67;000.398;MIDI 01
478.714;000.242;79;000.477;MIDI 01
478.759;000.232;75;000.352;MIDI 01
478.951;000.045;63;000.438;MIDI 01
479.041;000.031;67;000.430;MIDI 01
479.116;000.055;63;000.430;MIDI 01
479.121;000.057;79;000.477;MIDI 01
479.104;000.112;82;000.508;MIDI 01
479.191;000.069;67;000.484;MIDI 01
479.277;000.061;63;000.523;MIDI 01
479.367;000.043;67;000.469;MIDI 01
479.464;000.041;63;000.484;MIDI 01
479.485;000.041;75;000.516;MIDI 01
479.466;000.086;79;000.602;MIDI 01
479.535;000.064;67;000.438;MIDI 01
479.619;000.076;63;000.562;MIDI 01
479.738;000.044;67;000.516;MIDI 01
479.836;000.024;82;000.617;MIDI 01
479.842;000.028;79;000.555;MIDI 01
479.825;000.058;63;000.539;MIDI 01
479.925;000.068;67;000.484;MIDI 01
480.021;000.052;63;000.516;MIDI 01
480.136;000.053;67;000.477;MIDI 01
480.207;000.042;50;000.492;MIDI 01
480.215;000.043;51;000.633;MIDI 01
480.230;000.048;63;000.445;MIDI 01
480.330;000.049;67;000.438;MIDI 01
480.417;000.082;63;000.477;MIDI 01
480.506;000.067;67;000.484;MIDI 01
480.583;000.044;45;000.555;MIDI 01
480.594;000.043;46;000.648;MIDI 01
480.618;000.047;63;000.477;MIDI 01
480.706;000.053;67;000.516;MIDI 01
480.783;000.082;63;000.508;MIDI 01
480.874;000.074;67;000.492;MIDI 01
480.972;000.041;42;000.617;MIDI 01
480.990;000.043;43;000.641;MIDI 01
480.986;000.088;63;000.500;MIDI 01
481.106;000.096;67;000.516;MIDI 01
481.219;000.037;63;000.516;MIDI 01
481.375;000.318;39;000.695;MIDI 01
481.377;000.415;63;000.500;MIDI 01
482.229;000.302;63;000.602;MIDI 01
482.226;000.404;87;000.664;MIDI 01
482.249;000.384;79;000.594;MIDI 01
482.240;000.430;58;000.547;MIDI 01
482.231;000.454;82;000.578;MIDI 01
482.242;000.467;55;000.508;MIDI 01
482.235;000.506;51;000.547;MIDI 01
483.168;000.510;39;000.555;MIDI 01
483.163;000.569;55;000.594;MIDI 01
483.177;000.597;46;000.531;MIDI 01
483.179;000.597;43;000.516;MIDI 01
483.170;000.655;51;000.562;MIDI 01
483.174;000.657;58;000.547;MIDI 01
483.151;000.709;63;000.594;MIDI 01
