Start;Duration;Pitch;Velocity;Instrument
001.182;000.031;67;000.375;MIDI 01
001.336;000.046;67;000.430;MIDI 01
001.496;000.044;67;000.453;MIDI 01
001.659;000.045;67;000.453;MIDI 01
001.828;000.034;67;000.469;MIDI 01
002.175;000.036;51;000.375;MIDI 01
001.989;000.260;67;000.391;MIDI 01
002.345;000.046;51;000.375;MIDI 01
002.337;000.061;70;000.391;MIDI 01
002.530;000.044;51;000.234;MIDI 01
002.502;000.101;63;000.406;MIDI 01
002.705;000.098;51;000.078;MIDI 01
002.670;000.135;62;000.414;MIDI 01
002.833;000.035;51;000.273;MIDI 01
002.826;000.087;65;000.445;MIDI 01
002.995;000.041;51;000.406;MIDI 01
002.993;000.101;68;000.469;MIDI 01
002.021;001.126;39;000.328;MIDI 01
003.136;000.075;62;000.469;MIDI 01
003.168;000.062;51;000.328;MIDI 01
003.314;000.145;63;000.461;MIDI 01
003.502;000.037;51;000.344;MIDI 01
003.477;000.065;67;000.445;MIDI 01
003.635;000.058;58;000.398;MIDI 01
003.650;000.052;51;000.430;MIDI 01
003.820;000.034;51;000.414;MIDI 01
003.807;000.065;58;000.461;MIDI 01
003.981;000.034;51;000.414;MIDI 01
003.989;000.158;56;000.398;MIDI 01
004.135;000.033;51;000.430;MIDI 01
004.144;000.078;62;000.445;MIDI 01
004.291;000.043;51;000.438;MIDI 01
004.296;000.085;65;000.438;MIDI 01
003.319;001.136;39;000.305;MIDI 01
004.438;000.059;51;000.500;MIDI 01
004.459;000.143;62;000.469;MIDI 01
004.624;000.115;63;000.422;MIDI 01
004.804;000.041;51;000.367;MIDI 01
004.784;000.090;67;000.391;MIDI 01
004.958;000.042;51;000.438;MIDI 01
004.968;000.036;58;000.352;MIDI 01
005.133;000.038;51;000.414;MIDI 01
005.135;000.060;58;000.461;MIDI 01
005.294;000.036;51;000.453;MIDI 01
005.297;000.090;56;000.453;MIDI 01
005.438;000.047;51;000.461;MIDI 01
005.449;000.104;62;000.477;MIDI 01
004.640;000.966;39;000.328;MIDI 01
005.627;000.037;51;000.289;MIDI 01
005.623;000.140;65;000.445;MIDI 01
005.763;000.040;51;000.375;MIDI 01
005.786;000.103;62;000.406;MIDI 01
005.997;000.245;39;000.219;MIDI 01
005.964;000.295;63;000.336;MIDI 01
007.240;000.026;68;000.336;MIDI 01
007.392;000.039;68;000.398;MIDI 01
007.553;000.041;68;000.422;MIDI 01
007.736;000.026;68;000.367;MIDI 01
007.896;000.032;68;000.430;MIDI 01
008.247;000.034;53;000.320;MIDI 01
008.056;000.303;68;000.422;MIDI 01
008.398;000.050;53;000.414;MIDI 01
008.396;000.062;72;000.422;MIDI 01
008.562;000.044;53;000.422;MIDI 01
008.570;000.103;65;000.430;MIDI 01
008.740;000.048;53;000.414;MIDI 01
008.743;000.196;64;000.445;MIDI 01
008.911;000.039;53;000.414;MIDI 01
008.900;000.111;67;000.453;MIDI 01
009.071;000.043;53;000.430;MIDI 01
009.057;000.122;70;000.492;MIDI 01
009.226;000.053;53;000.484;MIDI 01
008.101;001.194;41;000.258;MIDI 01
009.228;000.165;64;000.508;MIDI 01
009.404;000.147;65;000.453;MIDI 01
009.565;000.040;53;000.438;MIDI 01
009.570;000.116;68;000.422;MIDI 01
009.731;000.038;53;000.430;MIDI 01
009.733;000.040;60;000.438;MIDI 01
009.899;000.040;53;000.445;MIDI 01
009.884;000.086;60;000.492;MIDI 01
010.070;000.041;53;000.438;MIDI 01
010.067;000.165;58;000.461;MIDI 01
010.219;000.047;53;000.477;MIDI 01
010.216;000.089;64;000.477;MIDI 01
010.391;000.033;53;000.406;MIDI 01
010.393;000.082;67;000.453;MIDI 01
010.548;000.043;53;000.469;MIDI 01
009.422;001.181;41;000.391;MIDI 01
010.550;000.235;64;000.461;MIDI 01
010.726;000.183;65;000.422;MIDI 01
010.884;000.039;53;000.406;MIDI 01
010.887;000.128;68;000.430;MIDI 01
011.055;000.035;53;000.414;MIDI 01
011.065;000.035;60;000.414;MIDI 01
011.217;000.049;53;000.406;MIDI 01
011.199;000.097;60;000.508;MIDI 01
011.387;000.043;53;000.422;MIDI 01
011.401;000.126;58;000.445;MIDI 01
011.537;000.032;53;000.469;MIDI 01
011.561;000.085;64;000.414;MIDI 01
011.722;000.050;53;000.289;MIDI 01
011.727;000.121;67;000.430;MIDI 01
010.747;001.132;41;000.367;MIDI 01
011.894;000.115;64;000.398;MIDI 01
012.071;000.458;65;000.336;MIDI 01
012.069;000.585;41;000.258;MIDI 01
013.348;000.031;46;000.594;MIDI 01
013.346;000.043;34;000.609;MIDI 01
013.499;000.044;46;000.578;MIDI 01
013.502;000.048;34;000.602;MIDI 01
013.651;000.045;46;000.688;MIDI 01
013.662;000.039;34;000.664;MIDI 01
013.818;000.046;46;000.688;MIDI 01
013.812;000.064;34;000.656;MIDI 01
013.986;000.035;46;000.711;MIDI 01
013.995;000.039;34;000.672;MIDI 01
013.981;000.124;84;000.602;MIDI 01
014.126;000.032;34;000.523;MIDI 01
014.069;000.113;82;000.578;MIDI 01
014.124;000.064;46;000.336;MIDI 01
014.134;000.084;80;000.594;MIDI 01
014.220;000.027;79;000.570;MIDI 01
014.286;000.056;77;000.570;MIDI 01
014.380;000.047;75;000.539;MIDI 01
014.458;000.094;53;000.492;MIDI 01
014.464;000.097;74;000.539;MIDI 01
014.573;000.024;75;000.422;MIDI 01
014.635;000.047;77;000.516;MIDI 01
014.662;000.120;44;000.414;MIDI 01
014.731;000.070;74;000.453;MIDI 01
014.812;000.055;75;000.375;MIDI 01
014.814;000.134;43;000.398;MIDI 01
014.884;000.105;79;000.484;MIDI 01
014.985;000.070;77;000.469;MIDI 01
015.046;000.052;75;000.461;MIDI 01
014.997;000.103;46;000.344;MIDI 01
015.132;000.026;74;000.445;MIDI 01
015.154;000.098;51;000.477;MIDI 01
015.218;000.039;72;000.430;MIDI 01
015.295;000.057;70;000.523;MIDI 01
015.397;000.019;75;000.453;MIDI 01
015.297;000.213;43;000.398;MIDI 01
015.467;000.056;74;000.547;MIDI 01
015.469;000.124;44;000.477;MIDI 01
015.537;000.092;75;000.484;MIDI 01
015.623;000.105;77;000.570;MIDI 01
015.618;000.123;50;000.516;MIDI 01
015.716;000.081;79;000.547;MIDI 01
015.779;000.104;80;000.562;MIDI 01
015.774;000.111;53;000.539;MIDI 01
015.880;000.046;77;000.469;MIDI 01
015.957;000.036;75;000.469;MIDI 01
015.953;000.137;44;000.406;MIDI 01
016.043;000.053;74;000.500;MIDI 01
016.139;000.052;75;000.430;MIDI 01
016.121;000.125;43;000.367;MIDI 01
016.229;000.106;79;000.492;MIDI 01
016.319;000.087;77;000.469;MIDI 01
016.294;000.131;46;000.312;MIDI 01
016.400;000.046;75;000.500;MIDI 01
016.470;000.027;74;000.438;MIDI 01
016.478;000.095;51;000.438;MIDI 01
016.545;000.041;72;000.477;MIDI 01
016.622;000.056;70;000.555;MIDI 01
016.707;000.038;75;000.531;MIDI 01
016.620;000.215;43;000.391;MIDI 01
016.796;000.060;74;000.539;MIDI 01
016.798;000.119;44;000.477;MIDI 01
016.875;000.092;75;000.492;MIDI 01
016.958;000.090;77;000.578;MIDI 01
016.950;000.126;50;000.484;MIDI 01
017.048;000.080;79;000.547;MIDI 01
017.105;000.087;80;000.555;MIDI 01
017.128;000.132;53;000.492;MIDI 01
017.188;000.076;77;000.555;MIDI 01
017.278;000.045;75;000.477;MIDI 01
017.355;000.055;74;000.500;MIDI 01
017.305;000.111;44;000.469;MIDI 01
017.460;000.036;75;000.477;MIDI 01
017.560;000.056;77;000.492;MIDI 01
017.466;000.221;43;000.422;MIDI 01
017.637;000.109;79;000.547;MIDI 01
017.732;000.053;77;000.469;MIDI 01
017.783;000.065;75;000.531;MIDI 01
017.656;000.200;46;000.406;MIDI 01
017.871;000.040;74;000.523;MIDI 01
017.837;000.143;51;000.406;MIDI 01
017.961;000.046;72;000.484;MIDI 01
018.035;000.036;70;000.516;MIDI 01
017.980;000.128;55;000.391;MIDI 01
018.106;000.046;72;000.586;MIDI 01
018.204;000.076;75;000.555;MIDI 01
018.108;000.206;44;000.555;MIDI 01
018.289;000.104;77;000.594;MIDI 01
018.374;000.080;75;000.586;MIDI 01
018.468;000.034;74;000.555;MIDI 01
018.284;000.230;48;000.508;MIDI 01
018.470;000.116;53;000.461;MIDI 01
018.535;000.066;72;000.547;MIDI 01
018.626;000.042;56;000.531;MIDI 01
018.623;000.077;70;000.578;MIDI 01
018.700;000.086;68;000.578;MIDI 01
018.786;000.042;58;000.625;MIDI 01
018.794;000.050;67;000.578;MIDI 01
018.880;000.078;70;000.555;MIDI 01
018.940;000.060;58;000.570;MIDI 01
018.981;000.041;67;000.508;MIDI 01
019.070;000.055;70;000.398;MIDI 01
019.125;000.030;58;000.547;MIDI 01
019.151;000.032;65;000.461;MIDI 01
019.224;000.059;68;000.500;MIDI 01
019.282;000.060;58;000.453;MIDI 01
019.306;000.055;65;000.469;MIDI 01
019.391;000.056;68;000.508;MIDI 01
019.489;000.039;63;000.555;MIDI 01
019.470;000.069;46;000.633;MIDI 01
019.582;000.057;67;000.422;MIDI 01
019.642;000.057;46;000.602;MIDI 01
019.645;000.075;63;000.445;MIDI 01
019.734;000.050;67;000.508;MIDI 01
019.825;000.033;62;000.539;MIDI 01
019.808;000.057;46;000.570;MIDI 01
019.919;000.048;65;000.469;MIDI 01
019.994;000.055;62;000.469;MIDI 01
019.983;000.172;46;000.484;MIDI 01
020.119;000.042;65;000.234;MIDI 01
020.178;000.044;63;000.430;MIDI 01
020.200;000.099;51;000.367;MIDI 01
020.270;000.052;58;000.453;MIDI 01
020.348;000.066;63;000.516;MIDI 01
020.374;000.070;55;000.352;MIDI 01
020.441;000.054;58;000.531;MIDI 01
020.517;000.064;63;000.555;MIDI 01
020.546;000.055;51;000.320;MIDI 01
020.599;000.073;58;000.562;MIDI 01
020.666;000.050;55;000.359;MIDI 01
020.676;000.061;63;000.555;MIDI 01
020.771;000.044;58;000.555;MIDI 01
020.891;000.316;63;000.562;MIDI 01
020.929;000.357;51;000.328;MIDI 01
021.895;000.049;79;000.336;MIDI 01
022.082;000.134;80;000.336;MIDI 01
022.258;000.185;81;000.430;MIDI 01
022.439;000.140;82;000.461;MIDI 01
022.605;000.119;83;000.438;MIDI 01
022.989;000.091;79;000.305;MIDI 01
022.996;000.099;67;000.258;MIDI 01
022.784;000.315;84;000.414;MIDI 01
022.792;000.530;63;000.234;MIDI 01
023.175;000.160;72;000.273;MIDI 01
023.319;000.036;79;000.336;MIDI 01
023.319;000.129;67;000.305;MIDI 01
023.680;000.094;77;000.484;MIDI 01
023.682;000.144;67;000.367;MIDI 01
023.473;000.439;79;000.398;MIDI 01
023.541;000.428;62;000.250;MIDI 01
023.857;000.116;80;000.477;MIDI 01
023.864;000.116;71;000.414;MIDI 01
024.023;000.035;77;000.453;MIDI 01
024.016;000.123;67;000.406;MIDI 01
024.189;000.166;77;000.422;MIDI 01
024.421;000.076;75;000.352;MIDI 01
024.414;000.148;63;000.328;MIDI 01
024.241;000.409;60;000.320;MIDI 01
024.624;000.135;67;000.391;MIDI 01
024.774;000.058;79;000.438;MIDI 01
024.773;000.171;63;000.305;MIDI 01
024.976;000.134;80;000.430;MIDI 01
025.142;000.142;63;000.352;MIDI 01
025.144;000.166;81;000.531;MIDI 01
025.342;000.124;67;000.422;MIDI 01
025.333;000.191;82;000.562;MIDI 01
024.988;000.543;58;000.250;MIDI 01
025.497;000.134;83;000.586;MIDI 01
025.493;000.158;63;000.422;MIDI 01
025.681;000.047;84;000.523;MIDI 01
025.839;000.034;86;000.508;MIDI 01
025.870;000.042;84;000.547;MIDI 01
025.933;000.024;83;000.461;MIDI 01
025.877;000.111;60;000.414;MIDI 01
025.984;000.079;84;000.602;MIDI 01
025.688;000.400;57;000.477;MIDI 01
026.057;000.064;86;000.609;MIDI 01
026.055;000.099;65;000.430;MIDI 01
026.281;000.064;60;000.453;MIDI 01
026.110;000.424;87;000.664;MIDI 01
026.555;000.055;86;000.492;MIDI 01
026.647;000.078;84;000.531;MIDI 01
026.644;000.089;60;000.438;MIDI 01
026.725;000.090;82;000.602;MIDI 01
026.802;000.070;81;000.625;MIDI 01
026.798;000.090;65;000.383;MIDI 01
026.880;000.062;79;000.641;MIDI 01
026.956;000.052;77;000.648;MIDI 01
026.466;000.554;57;000.438;MIDI 01
026.947;000.164;60;000.336;MIDI 01
027.061;000.052;75;000.609;MIDI 01
027.150;000.024;74;000.594;MIDI 01
027.153;000.280;58;000.414;MIDI 01
027.467;000.100;62;000.383;MIDI 01
027.644;000.117;60;000.430;MIDI 01
027.445;000.347;89;000.656;MIDI 01
027.819;000.054;63;000.469;MIDI 01
027.995;000.081;62;000.523;MIDI 01
028.157;000.036;65;000.422;MIDI 01
027.803;000.406;81;000.656;MIDI 01
028.369;000.066;50;000.398;MIDI 01
028.543;000.095;58;000.461;MIDI 01
028.159;000.540;82;000.648;MIDI 01
028.719;000.120;51;000.477;MIDI 01
028.903;000.072;58;000.477;MIDI 01
028.523;000.466;80;000.625;MIDI 01
029.075;000.145;53;000.523;MIDI 01
028.876;000.372;79;000.609;MIDI 01
029.261;000.065;58;000.477;MIDI 01
029.430;000.086;55;000.555;MIDI 01
029.248;000.365;77;000.531;MIDI 01
029.621;000.064;58;000.445;MIDI 01
029.780;000.119;54;000.523;MIDI 01
029.609;000.331;76;000.484;MIDI 01
029.967;000.071;58;000.445;MIDI 01
030.131;000.094;53;000.492;MIDI 01
029.965;000.284;75;000.422;MIDI 01
030.324;000.068;58;000.422;MIDI 01
030.508;000.089;52;000.398;MIDI 01
030.320;000.436;74;000.398;MIDI 01
030.680;000.115;58;000.531;MIDI 01
030.870;000.102;52;000.555;MIDI 01
030.698;000.306;73;000.523;MIDI 01
031.043;000.092;60;000.562;MIDI 01
031.208;000.092;52;000.531;MIDI 01
031.053;000.359;72;000.562;MIDI 01
031.392;000.098;61;000.609;MIDI 01
031.400;000.250;70;000.562;MIDI 01
031.584;000.102;53;000.445;MIDI 01
031.772;000.100;60;000.445;MIDI 01
031.764;000.310;69;000.469;MIDI 01
031.950;000.143;52;000.422;MIDI 01
032.128;000.067;61;000.438;MIDI 01
032.319;000.081;53;000.352;MIDI 01
032.124;000.299;70;000.391;MIDI 01
032.486;000.078;60;000.359;MIDI 01
032.506;000.256;69;000.383;MIDI 01
032.668;000.154;52;000.406;MIDI 01
032.866;000.064;61;000.312;MIDI 01
032.852;000.100;70;000.359;MIDI 01
033.051;000.038;69;000.359;MIDI 01
033.224;000.037;77;000.352;MIDI 01
033.061;000.292;60;000.297;MIDI 01
033.089;000.332;53;000.164;MIDI 01
033.404;000.025;77;000.406;MIDI 01
033.568;000.024;77;000.625;MIDI 01
033.758;000.025;77;000.445;MIDI 01
033.926;000.022;77;000.414;MIDI 01
034.110;000.040;77;000.438;MIDI 01
034.285;000.021;76;000.664;MIDI 01
034.281;000.027;77;000.617;MIDI 01
034.411;000.018;76;000.102;MIDI 01
034.479;000.028;77;000.500;MIDI 01
034.472;000.047;76;000.094;MIDI 01
034.643;000.039;76;000.562;MIDI 01
034.644;000.043;77;000.461;MIDI 01
034.824;000.036;76;000.523;MIDI 01
034.818;000.045;77;000.547;MIDI 01
034.980;000.028;77;000.656;MIDI 01
034.991;000.021;75;000.602;MIDI 01
035.001;000.042;65;000.539;MIDI 01
035.167;000.047;77;000.523;MIDI 01
035.165;000.052;75;000.320;MIDI 01
035.185;000.121;66;000.422;MIDI 01
035.351;000.031;75;000.477;MIDI 01
035.335;000.060;77;000.461;MIDI 01
035.347;000.146;67;000.461;MIDI 01
035.517;000.046;75;000.523;MIDI 01
035.528;000.043;77;000.508;MIDI 01
035.522;000.051;68;000.516;MIDI 01
035.705;000.017;75;000.461;MIDI 01
035.696;000.028;69;000.633;MIDI 01
035.684;000.043;77;000.586;MIDI 01
035.877;000.027;77;000.578;MIDI 01
035.889;000.034;74;000.398;MIDI 01
035.879;000.157;70;000.562;MIDI 01
036.051;000.045;74;000.453;MIDI 01
036.049;000.049;77;000.484;MIDI 01
036.247;000.024;74;000.445;MIDI 01
036.245;000.030;77;000.523;MIDI 01
036.438;000.062;65;000.469;MIDI 01
036.440;000.074;62;000.438;MIDI 01
036.469;000.047;88;000.312;MIDI 01
036.434;000.083;58;000.477;MIDI 01
036.477;000.048;82;000.273;MIDI 01
036.430;000.099;77;000.469;MIDI 01
036.432;000.100;89;000.547;MIDI 01
036.441;000.099;86;000.430;MIDI 01
036.618;000.040;65;000.641;MIDI 01
036.622;000.041;82;000.586;MIDI 01
036.626;000.038;62;000.547;MIDI 01
036.616;000.055;86;000.555;MIDI 01
036.624;000.049;58;000.570;MIDI 01
036.614;000.061;77;000.688;MIDI 01
036.607;000.070;89;000.656;MIDI 01
036.791;000.036;82;000.562;MIDI 01
036.793;000.036;62;000.523;MIDI 01
036.799;000.033;86;000.562;MIDI 01
036.779;000.055;77;000.688;MIDI 01
036.777;000.060;65;000.664;MIDI 01
036.784;000.057;89;000.648;MIDI 01
036.782;000.066;58;000.617;MIDI 01
036.965;000.031;65;000.680;MIDI 01
036.964;000.036;82;000.617;MIDI 01
036.961;000.046;77;000.734;MIDI 01
036.969;000.041;86;000.555;MIDI 01
036.961;000.051;62;000.531;MIDI 01
036.967;000.048;58;000.586;MIDI 01
036.967;000.055;89;000.719;MIDI 01
037.133;000.021;89;000.680;MIDI 01
037.125;000.039;77;000.719;MIDI 01
037.131;000.034;86;000.523;MIDI 01
037.140;000.027;62;000.453;MIDI 01
037.127;000.040;65;000.641;MIDI 01
037.138;000.034;82;000.602;MIDI 01
037.135;000.085;58;000.500;MIDI 01
037.340;000.055;75;000.602;MIDI 01
037.348;000.089;60;000.523;MIDI 01
037.330;000.270;53;000.562;MIDI 01
037.323;000.423;81;000.664;MIDI 01
037.735;000.036;62;000.398;MIDI 01
037.740;000.036;58;000.406;MIDI 01
037.741;000.040;74;000.484;MIDI 01
037.732;000.061;82;000.516;MIDI 01
037.900;000.032;74;000.594;MIDI 01
037.907;000.059;62;000.422;MIDI 01
037.902;000.068;77;000.625;MIDI 01
037.904;000.073;58;000.461;MIDI 01
038.098;000.038;75;000.633;MIDI 01
038.121;000.157;53;000.484;MIDI 01
038.108;000.320;60;000.539;MIDI 01
038.084;000.405;81;000.688;MIDI 01
038.480;000.047;62;000.445;MIDI 01
038.496;000.036;74;000.492;MIDI 01
038.489;000.048;58;000.398;MIDI 01
038.472;000.080;82;000.562;MIDI 01
038.646;000.046;74;000.570;MIDI 01
038.671;000.039;62;000.461;MIDI 01
038.655;000.060;77;000.586;MIDI 01
038.673;000.051;58;000.461;MIDI 01
038.872;000.153;75;000.523;MIDI 01
038.876;000.304;53;000.453;MIDI 01
038.874;000.355;60;000.477;MIDI 01
039.298;000.061;62;000.453;MIDI 01
038.837;000.526;81;000.656;MIDI 01
039.294;000.099;74;000.492;MIDI 01
039.296;000.119;58;000.422;MIDI 01
039.260;000.160;82;000.602;MIDI 01
039.557;000.119;74;000.586;MIDI 01
039.539;000.160;83;000.672;MIDI 01
039.555;000.221;65;000.500;MIDI 01
039.549;000.268;56;000.492;MIDI 01
040.008;000.157;65;000.484;MIDI 01
040.048;000.196;74;000.492;MIDI 01
039.991;000.874;83;000.648;MIDI 01
040.014;001.330;56;000.477;MIDI 01
040.817;000.570;63;000.453;MIDI 01
040.819;000.577;84;000.594;MIDI 01
040.871;000.598;72;000.406;MIDI 01
041.314;000.565;54;000.445;MIDI 01
041.290;000.771;82;000.664;MIDI 01
042.002;000.548;72;000.484;MIDI 01
041.978;000.966;63;000.430;MIDI 01
041.971;001.732;53;000.422;MIDI 01
041.933;001.812;81;000.664;MIDI 01
044.342;000.489;62;000.180;MIDI 01
044.328;000.913;55;000.203;MIDI 01
044.308;000.944;70;000.234;MIDI 01
044.300;001.124;82;000.258;MIDI 01
046.368;000.114;70;000.156;MIDI 01
046.339;000.146;78;000.305;MIDI 01
046.370;000.141;74;000.266;MIDI 01
046.898;000.701;78;000.383;MIDI 01
046.911;000.817;74;000.336;MIDI 01
047.743;000.160;75;000.258;MIDI 01
047.726;000.289;79;000.297;MIDI 01
046.921;001.152;70;000.273;MIDI 01
048.270;000.027;63;000.547;MIDI 01
048.272;000.028;51;000.547;MIDI 01
048.273;000.059;71;000.492;MIDI 01
048.268;000.081;79;000.531;MIDI 01
048.704;000.301;71;000.594;MIDI 01
049.466;000.154;74;000.422;MIDI 01
049.641;000.167;72;000.531;MIDI 01
048.689;001.290;79;000.633;MIDI 01
049.806;000.257;75;000.570;MIDI 01
049.975;000.226;74;000.586;MIDI 01
050.167;000.203;77;000.586;MIDI 01
050.342;000.067;75;000.562;MIDI 01
050.527;000.118;77;000.453;MIDI 01
050.523;000.251;80;000.453;MIDI 01
050.689;000.112;75;000.484;MIDI 01
050.718;000.149;79;000.461;MIDI 01
050.876;000.051;78;000.500;MIDI 01
050.880;000.139;74;000.406;MIDI 01
051.059;000.060;75;000.492;MIDI 01
048.706;002.531;51;000.602;MIDI 01
051.040;000.216;79;000.539;MIDI 01
048.709;002.556;63;000.586;MIDI 01
051.248;000.065;74;000.516;MIDI 01
051.413;000.024;72;000.469;MIDI 01
051.225;000.211;77;000.633;MIDI 01
051.383;000.223;75;000.617;MIDI 01
051.599;000.160;65;000.539;MIDI 01
051.625;000.384;70;000.461;MIDI 01
051.594;000.420;74;000.609;MIDI 01
051.604;000.416;53;000.555;MIDI 01
052.174;000.058;74;000.461;MIDI 01
052.164;000.087;77;000.508;MIDI 01
052.373;000.081;53;000.391;MIDI 01
052.367;000.168;74;000.508;MIDI 01
052.353;000.232;77;000.508;MIDI 01
052.540;000.074;75;000.594;MIDI 01
052.534;000.184;72;000.547;MIDI 01
052.371;000.375;41;000.555;MIDI 01
052.715;000.113;70;000.586;MIDI 01
052.706;000.169;74;000.570;MIDI 01
052.882;000.065;72;000.555;MIDI 01
052.896;000.054;69;000.508;MIDI 01
053.070;000.073;70;000.602;MIDI 01
053.171;000.114;77;000.531;MIDI 01
053.242;000.071;74;000.547;MIDI 01
053.312;000.071;70;000.539;MIDI 01
053.403;000.054;65;000.484;MIDI 01
053.508;000.027;62;000.484;MIDI 01
053.550;000.122;58;000.383;MIDI 01
053.654;000.084;62;000.492;MIDI 01
053.764;000.064;69;000.609;MIDI 01
053.835;000.172;77;000.547;MIDI 01
053.933;000.150;75;000.578;MIDI 01
054.035;000.060;72;000.484;MIDI 01
054.094;000.083;69;000.586;MIDI 01
054.185;000.030;65;000.508;MIDI 01
054.276;000.086;60;000.359;MIDI 01
054.354;000.053;63;000.453;MIDI 01
054.481;000.083;70;000.484;MIDI 01
054.579;000.065;77;000.422;MIDI 01
054.652;000.048;74;000.508;MIDI 01
054.732;000.041;70;000.531;MIDI 01
054.800;000.053;65;000.508;MIDI 01
054.905;000.027;62;000.539;MIDI 01
054.970;000.090;58;000.430;MIDI 01
055.056;000.052;62;000.461;MIDI 01
055.167;000.057;69;000.586;MIDI 01
055.239;000.175;77;000.531;MIDI 01
055.350;000.136;75;000.570;MIDI 01
055.430;000.076;72;000.492;MIDI 01
055.495;000.073;69;000.555;MIDI 01
055.596;000.032;65;000.453;MIDI 01
055.630;000.074;60;000.398;MIDI 01
055.742;000.032;63;000.430;MIDI 01
055.853;000.100;77;000.383;MIDI 01
055.950;000.036;70;000.359;MIDI 01
056.003;000.110;62;000.367;MIDI 01
056.103;000.031;70;000.398;MIDI 01
056.179;000.095;79;000.484;MIDI 01
056.258;000.040;70;000.461;MIDI 01
056.340;000.060;63;000.398;MIDI 01
056.420;000.033;70;000.445;MIDI 01
056.497;000.097;81;000.539;MIDI 01
056.581;000.057;70;000.422;MIDI 01
056.650;000.075;65;000.406;MIDI 01
056.748;000.039;70;000.438;MIDI 01
056.825;000.114;82;000.469;MIDI 01
056.909;000.042;70;000.461;MIDI 01
057.002;000.060;67;000.359;MIDI 01
057.068;000.048;70;000.398;MIDI 01
057.151;000.142;77;000.445;MIDI 01
057.245;000.049;70;000.414;MIDI 01
057.327;000.100;62;000.383;MIDI 01
057.427;000.039;70;000.367;MIDI 01
057.585;000.059;70;000.438;MIDI 01
057.499;000.152;79;000.453;MIDI 01
057.668;000.071;63;000.375;MIDI 01
057.763;000.028;70;000.359;MIDI 01
057.833;000.103;81;000.469;MIDI 01
057.923;000.053;70;000.398;MIDI 01
058.005;000.049;65;000.375;MIDI 01
058.118;000.049;70;000.148;MIDI 01
058.159;000.138;82;000.445;MIDI 01
058.295;000.027;70;000.367;MIDI 01
058.355;000.032;67;000.352;MIDI 01
058.521;000.127;85;000.516;MIDI 01
058.644;000.020;73;000.430;MIDI 01
058.720;000.032;66;000.312;MIDI 01
058.775;000.036;70;000.375;MIDI 01
058.877;000.124;82;000.500;MIDI 01
058.964;000.049;70;000.344;MIDI 01
059.050;000.048;66;000.430;MIDI 01
059.117;000.039;70;000.477;MIDI 01
059.243;000.069;88;000.617;MIDI 01
059.317;000.040;76;000.570;MIDI 01
059.405;000.048;66;000.477;MIDI 01
059.484;000.035;70;000.391;MIDI 01
059.597;000.121;82;000.516;MIDI 01
059.695;000.044;70;000.398;MIDI 01
059.770;000.040;66;000.359;MIDI 01
059.850;000.032;70;000.391;MIDI 01
059.957;000.058;81;000.523;MIDI 01
060.059;000.035;69;000.406;MIDI 01
060.134;000.043;65;000.445;MIDI 01
060.223;000.032;53;000.492;MIDI 01
060.316;000.074;77;000.547;MIDI 01
060.411;000.041;65;000.500;MIDI 01
060.479;000.066;60;000.547;MIDI 01
060.574;000.028;48;000.547;MIDI 01
060.660;000.074;72;000.586;MIDI 01
060.743;000.032;60;000.609;MIDI 01
060.818;000.072;57;000.594;MIDI 01
060.909;000.034;45;000.602;MIDI 01
060.995;000.054;69;000.688;MIDI 01
061.079;000.027;57;000.594;MIDI 01
061.164;000.071;53;000.570;MIDI 01
061.254;000.419;41;000.594;MIDI 01
061.547;002.316;29;000.633;MIDI 01
064.499;000.050;63;000.242;MIDI 01
064.690;000.036;63;000.273;MIDI 01
064.865;000.031;63;000.312;MIDI 01
065.017;000.046;63;000.352;MIDI 01
065.167;000.043;72;000.484;MIDI 01
065.193;000.027;63;000.344;MIDI 01
065.359;000.052;63;000.312;MIDI 01
065.357;000.130;65;000.383;MIDI 01
065.556;000.030;63;000.320;MIDI 01
065.526;000.146;66;000.453;MIDI 01
065.720;000.029;65;000.375;MIDI 01
065.716;000.040;63;000.398;MIDI 01
065.882;000.052;75;000.484;MIDI 01
065.889;000.048;63;000.414;MIDI 01
066.074;000.035;63;000.359;MIDI 01
066.071;000.138;69;000.453;MIDI 01
066.241;000.045;63;000.438;MIDI 01
066.235;000.144;70;000.484;MIDI 01
066.422;000.023;69;000.414;MIDI 01
066.421;000.036;63;000.445;MIDI 01
066.583;000.034;78;000.562;MIDI 01
066.593;000.042;63;000.461;MIDI 01
066.765;000.046;63;000.430;MIDI 01
066.763;000.182;72;000.508;MIDI 01
066.938;000.048;63;000.477;MIDI 01
066.933;000.125;73;000.516;MIDI 01
067.105;000.043;72;000.555;MIDI 01
067.124;000.035;63;000.445;MIDI 01
067.291;000.033;63;000.492;MIDI 01
067.269;000.060;81;000.656;MIDI 01
067.457;000.043;63;000.484;MIDI 01
067.457;000.157;77;000.547;MIDI 01
067.623;000.049;63;000.477;MIDI 01
067.621;000.106;78;000.555;MIDI 01
067.800;000.032;77;000.570;MIDI 01
067.810;000.029;63;000.469;MIDI 01
067.967;000.023;89;000.656;MIDI 01
067.973;000.040;63;000.492;MIDI 01
068.162;000.025;62;000.406;MIDI 01
068.341;000.039;86;000.344;MIDI 01
068.333;000.048;89;000.453;MIDI 01
068.508;000.024;63;000.414;MIDI 01
068.686;000.027;87;000.398;MIDI 01
068.691;000.025;84;000.367;MIDI 01
068.858;000.039;65;000.414;MIDI 01
069.049;000.025;82;000.359;MIDI 01
069.043;000.040;86;000.391;MIDI 01
069.213;000.046;65;000.477;MIDI 01
069.386;000.027;81;000.328;MIDI 01
069.378;000.038;84;000.375;MIDI 01
069.551;000.021;82;000.406;MIDI 01
069.746;000.028;63;000.359;MIDI 01
069.907;000.043;63;000.398;MIDI 01
069.558;000.496;58;000.406;MIDI 01
070.077;000.040;63;000.414;MIDI 01
070.271;000.029;63;000.352;MIDI 01
070.442;000.042;63;000.344;MIDI 01
070.622;000.026;63;000.383;MIDI 01
070.778;000.028;48;000.539;MIDI 01
070.780;000.031;63;000.492;MIDI 01
070.965;000.040;63;000.328;MIDI 01
070.953;000.118;41;000.461;MIDI 01
071.132;000.039;63;000.406;MIDI 01
071.131;000.153;42;000.359;MIDI 01
071.294;000.053;41;000.367;MIDI 01
071.320;000.039;63;000.336;MIDI 01
071.473;000.035;63;000.453;MIDI 01
071.479;000.031;51;000.555;MIDI 01
071.649;000.052;63;000.398;MIDI 01
071.661;000.100;45;000.445;MIDI 01
071.831;000.042;63;000.406;MIDI 01
071.829;000.092;46;000.438;MIDI 01
072.002;000.033;45;000.430;MIDI 01
072.008;000.045;63;000.430;MIDI 01
072.174;000.036;54;000.562;MIDI 01
072.178;000.041;63;000.508;MIDI 01
072.355;000.048;63;000.445;MIDI 01
072.364;000.126;48;000.461;MIDI 01
072.527;000.049;63;000.461;MIDI 01
072.520;000.085;49;000.484;MIDI 01
072.689;000.045;48;000.492;MIDI 01
072.709;000.038;63;000.508;MIDI 01
072.864;000.043;57;000.648;MIDI 01
072.869;000.046;63;000.547;MIDI 01
073.051;000.033;63;000.539;MIDI 01
073.039;000.101;53;000.539;MIDI 01
073.211;000.053;63;000.438;MIDI 01
073.209;000.070;54;000.508;MIDI 01
073.392;000.048;63;000.539;MIDI 01
073.390;000.054;53;000.586;MIDI 01
073.550;000.030;57;000.688;MIDI 01
073.564;000.076;63;000.539;MIDI 01
073.742;000.050;62;000.500;MIDI 01
073.748;000.061;58;000.461;MIDI 01
073.841;000.032;70;000.406;MIDI 01
073.894;000.050;46;000.477;MIDI 01
073.921;000.033;62;000.453;MIDI 01
073.992;000.050;70;000.500;MIDI 01
074.083;000.039;63;000.492;MIDI 01
074.085;000.045;58;000.422;MIDI 01
074.185;000.043;69;000.453;MIDI 01
074.241;000.064;46;000.461;MIDI 01
074.244;000.066;63;000.516;MIDI 01
074.324;000.031;69;000.445;MIDI 01
074.426;000.061;58;000.453;MIDI 01
074.479;000.046;71;000.258;MIDI 01
074.480;000.048;69;000.188;MIDI 01
074.529;000.046;75;000.469;MIDI 01
074.598;000.055;46;000.469;MIDI 01
074.611;000.043;69;000.539;MIDI 01
074.678;000.074;75;000.508;MIDI 01
074.773;000.042;70;000.555;MIDI 01
074.785;000.040;58;000.461;MIDI 01
074.867;000.051;74;000.516;MIDI 01
074.948;000.056;46;000.531;MIDI 01
074.950;000.066;70;000.539;MIDI 01
075.020;000.021;74;000.453;MIDI 01
075.120;000.041;74;000.633;MIDI 01
075.119;000.057;58;000.523;MIDI 01
075.215;000.064;82;000.570;MIDI 01
075.303;000.048;46;000.539;MIDI 01
075.305;000.057;74;000.539;MIDI 01
075.373;000.071;82;000.516;MIDI 01
075.475;000.050;58;000.594;MIDI 01
075.474;000.054;75;000.617;MIDI 01
075.571;000.070;81;000.625;MIDI 01
075.648;000.043;46;000.562;MIDI 01
075.670;000.057;75;000.602;MIDI 01
075.714;000.040;81;000.516;MIDI 01
075.832;000.040;58;000.602;MIDI 01
075.833;000.051;81;000.617;MIDI 01
075.916;000.077;87;000.648;MIDI 01
076.016;000.036;81;000.594;MIDI 01
076.007;000.085;46;000.555;MIDI 01
076.068;000.094;87;000.555;MIDI 01
076.178;000.072;82;000.609;MIDI 01
076.188;000.067;58;000.586;MIDI 01
076.263;000.102;86;000.648;MIDI 01
076.365;000.076;82;000.672;MIDI 01
076.432;000.153;86;000.539;MIDI 01
076.516;000.115;50;000.516;MIDI 01
076.679;000.023;82;000.555;MIDI 01
076.685;000.025;77;000.570;MIDI 01
076.689;000.029;62;000.703;MIDI 01
076.667;000.058;89;000.672;MIDI 01
076.650;000.103;58;000.484;MIDI 01
076.578;000.370;53;000.477;MIDI 01
077.044;000.035;79;000.688;MIDI 01
076.999;000.103;55;000.406;MIDI 01
077.066;000.039;84;000.375;MIDI 01
077.006;000.103;51;000.547;MIDI 01
077.042;000.074;87;000.742;MIDI 01
077.056;000.072;60;000.688;MIDI 01
077.422;000.034;62;000.664;MIDI 01
077.429;000.028;77;000.609;MIDI 01
077.428;000.039;53;000.586;MIDI 01
077.433;000.037;58;000.594;MIDI 01
077.407;000.069;86;000.719;MIDI 01
077.424;000.056;82;000.625;MIDI 01
077.807;000.029;60;000.594;MIDI 01
077.805;000.036;53;000.570;MIDI 01
077.815;000.030;72;000.633;MIDI 01
077.812;000.037;57;000.578;MIDI 01
077.819;000.042;75;000.625;MIDI 01
077.801;000.064;81;000.695;MIDI 01
078.189;000.080;58;000.531;MIDI 01
078.284;000.061;57;000.430;MIDI 01
078.207;000.215;77;000.547;MIDI 01
078.379;000.051;58;000.531;MIDI 01
078.184;000.259;82;000.680;MIDI 01
078.198;000.252;74;000.586;MIDI 01
078.467;000.050;57;000.484;MIDI 01
078.548;000.056;58;000.547;MIDI 01
078.629;000.054;57;000.508;MIDI 01
078.717;000.065;58;000.523;MIDI 01
078.750;000.034;75;000.477;MIDI 01
078.746;000.043;79;000.492;MIDI 01
078.808;000.048;57;000.430;MIDI 01
078.903;000.061;58;000.492;MIDI 01
078.999;000.055;57;000.469;MIDI 01
078.927;000.150;74;000.523;MIDI 01
078.919;000.207;77;000.547;MIDI 01
079.093;000.050;58;000.523;MIDI 01
079.081;000.064;75;000.586;MIDI 01
079.077;000.141;72;000.539;MIDI 01
079.171;000.061;57;000.531;MIDI 01
079.267;000.070;58;000.562;MIDI 01
079.278;000.112;70;000.570;MIDI 01
079.269;000.144;74;000.570;MIDI 01
079.359;000.067;57;000.547;MIDI 01
079.432;000.059;72;000.531;MIDI 01
079.445;000.062;58;000.578;MIDI 01
079.469;000.052;69;000.523;MIDI 01
079.562;000.083;57;000.500;MIDI 01
079.644;000.052;70;000.562;MIDI 01
079.724;000.078;69;000.508;MIDI 01
079.651;000.178;58;000.586;MIDI 01
079.821;000.056;70;000.500;MIDI 01
079.905;000.065;69;000.500;MIDI 01
079.995;000.065;70;000.531;MIDI 01
080.068;000.050;69;000.453;MIDI 01
080.195;000.024;55;000.438;MIDI 01
080.173;000.048;70;000.492;MIDI 01
080.183;000.043;51;000.469;MIDI 01
080.250;000.057;69;000.500;MIDI 01
080.356;000.081;70;000.492;MIDI 01
080.364;000.136;50;000.484;MIDI 01
080.366;000.147;53;000.469;MIDI 01
080.458;000.079;69;000.523;MIDI 01
080.546;000.094;55;000.516;MIDI 01
080.572;000.071;70;000.539;MIDI 01
080.551;000.098;51;000.523;MIDI 01
080.655;000.062;69;000.531;MIDI 01
080.730;000.065;53;000.477;MIDI 01
080.740;000.077;70;000.570;MIDI 01
080.725;000.097;50;000.516;MIDI 01
080.834;000.040;69;000.562;MIDI 01
080.931;000.031;48;000.477;MIDI 01
080.918;000.058;70;000.578;MIDI 01
080.934;000.053;51;000.516;MIDI 01
081.000;000.102;69;000.531;MIDI 01
081.099;000.051;70;000.648;MIDI 01
081.108;000.046;46;000.555;MIDI 01
081.102;000.054;50;000.570;MIDI 01
081.536;000.317;53;000.539;MIDI 01
081.540;000.370;50;000.508;MIDI 01
081.526;000.406;46;000.617;MIDI 01
081.528;000.451;58;000.578;MIDI 01
081.524;000.457;74;000.648;MIDI 01
081.520;000.468;82;000.648;MIDI 01
081.531;000.493;77;000.570;MIDI 01
082.938;000.037;67;000.398;MIDI 01
083.114;000.038;67;000.375;MIDI 01
083.277;000.032;67;000.414;MIDI 01
083.468;000.037;67;000.398;MIDI 01
083.631;000.046;67;000.430;MIDI 01
083.997;000.050;51;000.336;MIDI 01
083.815;000.292;67;000.383;MIDI 01
084.159;000.051;70;000.430;MIDI 01
084.174;000.048;51;000.406;MIDI 01
084.348;000.040;51;000.438;MIDI 01
084.344;000.095;63;000.445;MIDI 01
084.511;000.043;51;000.406;MIDI 01
084.504;000.126;62;000.398;MIDI 01
084.681;000.030;51;000.398;MIDI 01
084.683;000.098;65;000.453;MIDI 01
084.831;000.038;51;000.461;MIDI 01
084.845;000.103;68;000.500;MIDI 01
083.852;001.182;39;000.266;MIDI 01
085.014;000.064;51;000.367;MIDI 01
085.008;000.107;62;000.469;MIDI 01
085.186;000.148;63;000.445;MIDI 01
085.381;000.029;51;000.367;MIDI 01
085.359;000.067;67;000.430;MIDI 01
085.194;000.372;39;000.344;MIDI 01
085.550;000.040;51;000.391;MIDI 01
085.554;000.049;58;000.367;MIDI 01
085.569;000.126;39;000.031;MIDI 01
085.716;000.049;51;000.430;MIDI 01
085.717;000.068;58;000.484;MIDI 01
085.764;000.144;39;000.023;MIDI 01
085.897;000.042;51;000.406;MIDI 01
085.910;000.117;56;000.430;MIDI 01
086.059;000.034;51;000.461;MIDI 01
086.062;000.082;62;000.477;MIDI 01
086.224;000.044;51;000.430;MIDI 01
086.232;000.114;65;000.500;MIDI 01
086.283;000.085;39;000.023;MIDI 01
086.406;000.061;51;000.414;MIDI 01
086.410;000.184;62;000.492;MIDI 01
086.582;000.195;63;000.469;MIDI 01
086.747;000.037;51;000.422;MIDI 01
086.757;000.090;67;000.453;MIDI 01
086.921;000.053;51;000.422;MIDI 01
086.928;000.060;58;000.461;MIDI 01
087.105;000.037;51;000.406;MIDI 01
087.091;000.094;58;000.523;MIDI 01
087.270;000.040;51;000.445;MIDI 01
087.276;000.070;56;000.484;MIDI 01
087.429;000.041;51;000.477;MIDI 01
087.443;000.095;62;000.453;MIDI 01
086.595;000.972;39;000.344;MIDI 01
087.601;000.104;65;000.500;MIDI 01
087.617;000.098;39;000.086;MIDI 01
087.742;000.078;51;000.273;MIDI 01
087.774;000.133;62;000.422;MIDI 01
087.960;000.305;63;000.352;MIDI 01
088.000;000.297;39;000.281;MIDI 01
089.321;000.056;68;000.188;MIDI 01
089.660;000.054;68;000.203;MIDI 01
089.828;000.036;68;000.406;MIDI 01
089.984;000.049;68;000.414;MIDI 01
090.377;000.040;53;000.266;MIDI 01
090.177;000.292;68;000.414;MIDI 01
090.543;000.040;53;000.398;MIDI 01
090.532;000.064;72;000.406;MIDI 01
090.714;000.040;53;000.391;MIDI 01
090.705;000.101;65;000.430;MIDI 01
090.888;000.035;53;000.383;MIDI 01
090.875;000.124;64;000.430;MIDI 01
091.047;000.043;53;000.406;MIDI 01
091.050;000.117;67;000.414;MIDI 01
091.224;000.039;53;000.367;MIDI 01
091.213;000.111;70;000.477;MIDI 01
090.210;001.215;41;000.305;MIDI 01
091.386;000.067;53;000.453;MIDI 01
091.384;000.142;64;000.430;MIDI 01
091.568;000.143;65;000.422;MIDI 01
091.727;000.038;53;000.383;MIDI 01
091.742;000.128;68;000.391;MIDI 01
091.909;000.042;53;000.375;MIDI 01
091.915;000.053;60;000.391;MIDI 01
092.083;000.043;53;000.383;MIDI 01
092.086;000.061;60;000.422;MIDI 01
092.261;000.041;53;000.406;MIDI 01
092.258;000.166;58;000.391;MIDI 01
092.430;000.038;53;000.391;MIDI 01
092.424;000.091;64;000.398;MIDI 01
092.603;000.030;53;000.383;MIDI 01
092.600;000.065;67;000.406;MIDI 01
091.577;001.223;41;000.367;MIDI 01
092.764;000.052;53;000.422;MIDI 01
092.761;000.168;64;000.445;MIDI 01
092.943;000.184;65;000.414;MIDI 01
093.104;000.027;53;000.383;MIDI 01
093.109;000.116;68;000.422;MIDI 01
093.276;000.042;53;000.383;MIDI 01
093.281;000.054;60;000.391;MIDI 01
093.454;000.032;53;000.367;MIDI 01
093.456;000.051;60;000.445;MIDI 01
093.628;000.045;53;000.391;MIDI 01
093.628;000.151;58;000.391;MIDI 01
093.791;000.046;53;000.414;MIDI 01
093.790;000.093;64;000.430;MIDI 01
093.972;000.047;53;000.383;MIDI 01
093.970;000.073;67;000.430;MIDI 01
092.949;001.197;41;000.391;MIDI 01
094.141;000.046;53;000.344;MIDI 01
094.126;000.088;64;000.430;MIDI 01
094.329;000.474;65;000.320;MIDI 01
094.332;000.516;41;000.258;MIDI 01
095.621;000.037;46;000.594;MIDI 01
095.616;000.053;34;000.633;MIDI 01
095.780;000.043;46;000.570;MIDI 01
095.782;000.052;34;000.648;MIDI 01
095.938;000.042;46;000.648;MIDI 01
095.939;000.052;34;000.641;MIDI 01
096.107;000.051;46;000.680;MIDI 01
096.105;000.064;34;000.648;MIDI 01
096.282;000.031;46;000.672;MIDI 01
096.292;000.033;34;000.641;MIDI 01
096.294;000.126;84;000.570;MIDI 01
096.439;000.035;34;000.547;MIDI 01
096.377;000.114;82;000.570;MIDI 01
096.441;000.054;46;000.648;MIDI 01
096.433;000.087;80;000.586;MIDI 01
096.522;000.040;79;000.602;MIDI 01
096.597;000.073;77;000.547;MIDI 01
096.696;000.071;75;000.508;MIDI 01
096.765;000.110;53;000.461;MIDI 01
096.780;000.126;74;000.547;MIDI 01
096.950;000.084;77;000.508;MIDI 01
096.960;000.143;44;000.445;MIDI 01
097.059;000.098;74;000.477;MIDI 01
097.140;000.089;75;000.477;MIDI 01
097.142;000.100;43;000.406;MIDI 01
097.246;000.114;79;000.477;MIDI 01
097.353;000.055;77;000.391;MIDI 01
097.315;000.099;46;000.250;MIDI 01
097.396;000.079;75;000.500;MIDI 01
097.502;000.021;74;000.438;MIDI 01
097.456;000.117;51;000.398;MIDI 01
097.582;000.048;72;000.469;MIDI 01
097.658;000.054;70;000.539;MIDI 01
097.751;000.015;75;000.477;MIDI 01
097.640;000.235;43;000.375;MIDI 01
097.817;000.070;74;000.586;MIDI 01
097.803;000.130;44;000.445;MIDI 01
097.884;000.104;75;000.469;MIDI 01
097.976;000.116;77;000.562;MIDI 01
097.972;000.125;50;000.430;MIDI 01
098.075;000.087;79;000.508;MIDI 01
098.133;000.104;80;000.547;MIDI 01
098.155;000.097;53;000.508;MIDI 01
098.233;000.040;77;000.500;MIDI 01
098.291;000.049;75;000.492;MIDI 01
098.331;000.122;44;000.406;MIDI 01
098.395;000.060;74;000.469;MIDI 01
098.487;000.046;75;000.453;MIDI 01
098.481;000.131;43;000.398;MIDI 01
098.582;000.110;79;000.531;MIDI 01
098.677;000.080;77;000.539;MIDI 01
098.675;000.147;46;000.336;MIDI 01
098.750;000.074;75;000.547;MIDI 01
098.832;000.028;74;000.555;MIDI 01
098.853;000.105;51;000.461;MIDI 01
098.900;000.061;72;000.500;MIDI 01
098.993;000.072;70;000.531;MIDI 01
099.086;000.027;75;000.484;MIDI 01
099.002;000.222;43;000.430;MIDI 01
099.169;000.084;74;000.523;MIDI 01
099.177;000.135;44;000.461;MIDI 01
099.256;000.084;75;000.492;MIDI 01
099.341;000.115;77;000.500;MIDI 01
099.335;000.143;50;000.469;MIDI 01
099.424;000.098;79;000.500;MIDI 01
099.496;000.101;80;000.508;MIDI 01
099.520;000.106;53;000.547;MIDI 01
099.591;000.051;77;000.484;MIDI 01
099.677;000.051;75;000.422;MIDI 01
099.689;000.138;44;000.508;MIDI 01
099.757;000.095;74;000.445;MIDI 01
099.862;000.064;75;000.438;MIDI 01
099.969;000.044;77;000.453;MIDI 01
099.843;000.271;43;000.492;MIDI 01
100.040;000.124;79;000.570;MIDI 01
100.128;000.076;77;000.500;MIDI 01
100.190;000.070;75;000.586;MIDI 01
100.031;000.235;46;000.469;MIDI 01
100.273;000.031;74;000.516;MIDI 01
100.214;000.145;51;000.531;MIDI 01
100.342;000.064;72;000.508;MIDI 01
100.358;000.081;55;000.438;MIDI 01
100.435;000.047;70;000.523;MIDI 01
100.513;000.055;72;000.578;MIDI 01
100.611;000.077;75;000.547;MIDI 01
100.518;000.198;44;000.578;MIDI 01
100.700;000.097;77;000.602;MIDI 01
100.786;000.078;75;000.578;MIDI 01
100.878;000.032;74;000.570;MIDI 01
100.711;000.246;48;000.500;MIDI 01
100.882;000.110;53;000.508;MIDI 01
100.947;000.048;72;000.531;MIDI 01
101.067;000.033;56;000.531;MIDI 01
101.036;000.086;70;000.578;MIDI 01
101.123;000.078;68;000.562;MIDI 01
101.216;000.043;58;000.617;MIDI 01
101.206;000.061;67;000.555;MIDI 01
101.298;000.066;70;000.516;MIDI 01
101.383;000.045;58;000.492;MIDI 01
101.396;000.056;67;000.484;MIDI 01
101.501;000.029;70;000.398;MIDI 01
101.562;000.042;65;000.469;MIDI 01
101.596;000.031;58;000.445;MIDI 01
101.648;000.060;68;000.469;MIDI 01
101.730;000.054;65;000.430;MIDI 01
101.763;000.027;58;000.422;MIDI 01
101.801;000.083;68;000.516;MIDI 01
101.924;000.030;63;000.500;MIDI 01
101.912;000.048;46;000.602;MIDI 01
102.005;000.050;67;000.477;MIDI 01
102.091;000.046;46;000.523;MIDI 01
102.078;000.081;63;000.430;MIDI 01
102.197;000.034;67;000.445;MIDI 01
102.272;000.045;46;000.516;MIDI 01
102.276;000.047;62;000.469;MIDI 01
102.384;000.042;65;000.406;MIDI 01
102.434;000.068;62;000.508;MIDI 01
102.525;000.055;65;000.531;MIDI 01
102.431;000.208;46;000.516;MIDI 01
102.626;000.047;63;000.422;MIDI 01
102.666;000.095;51;000.352;MIDI 01
102.704;000.058;58;000.445;MIDI 01
102.795;000.058;63;000.492;MIDI 01
102.799;000.090;55;000.320;MIDI 01
102.879;000.062;58;000.484;MIDI 01
102.954;000.054;51;000.414;MIDI 01
102.956;000.076;63;000.547;MIDI 01
103.061;000.041;58;000.508;MIDI 01
103.126;000.049;55;000.328;MIDI 01
103.127;000.050;63;000.508;MIDI 01
103.202;000.052;58;000.547;MIDI 01
103.346;000.318;63;000.562;MIDI 01
103.377;000.345;51;000.383;MIDI 01
104.377;000.043;79;000.305;MIDI 01
104.543;000.131;80;000.352;MIDI 01
104.721;000.219;81;000.414;MIDI 01
104.898;000.178;82;000.469;MIDI 01
105.072;000.133;83;000.414;MIDI 01
105.256;000.207;84;000.422;MIDI 01
105.454;000.078;79;000.336;MIDI 01
105.474;000.126;67;000.250;MIDI 01
105.250;000.551;63;000.273;MIDI 01
105.797;000.035;79;000.438;MIDI 01
105.660;000.179;72;000.273;MIDI 01
105.815;000.138;67;000.297;MIDI 01
106.192;000.076;77;000.508;MIDI 01
106.194;000.114;67;000.328;MIDI 01
105.979;000.420;79;000.430;MIDI 01
106.383;000.124;80;000.484;MIDI 01
106.033;000.500;62;000.227;MIDI 01
106.395;000.173;71;000.375;MIDI 01
106.537;000.059;77;000.438;MIDI 01
106.543;000.137;67;000.391;MIDI 01
106.713;000.139;77;000.453;MIDI 01
106.922;000.050;75;000.375;MIDI 01
106.935;000.121;63;000.320;MIDI 01
106.751;000.441;60;000.289;MIDI 01
107.120;000.155;67;000.383;MIDI 01
107.271;000.062;79;000.461;MIDI 01
107.279;000.150;63;000.336;MIDI 01
107.475;000.122;80;000.422;MIDI 01
107.646;000.139;81;000.469;MIDI 01
107.640;000.162;63;000.367;MIDI 01
107.841;000.121;82;000.523;MIDI 01
107.848;000.129;67;000.461;MIDI 01
107.478;000.544;58;000.328;MIDI 01
108.005;000.098;83;000.555;MIDI 01
108.022;000.153;63;000.445;MIDI 01
108.196;000.053;84;000.523;MIDI 01
108.350;000.047;86;000.492;MIDI 01
108.391;000.024;84;000.531;MIDI 01
108.440;000.026;83;000.453;MIDI 01
108.397;000.102;60;000.422;MIDI 01
108.202;000.351;57;000.445;MIDI 01
108.483;000.075;84;000.609;MIDI 01
108.565;000.056;86;000.617;MIDI 01
108.562;000.114;65;000.406;MIDI 01
108.784;000.069;60;000.461;MIDI 01
108.614;000.392;87;000.680;MIDI 01
109.058;000.044;86;000.516;MIDI 01
109.153;000.056;84;000.500;MIDI 01
109.241;000.076;82;000.531;MIDI 01
109.142;000.193;60;000.375;MIDI 01
109.306;000.073;81;000.578;MIDI 01
109.284;000.107;65;000.383;MIDI 01
109.388;000.037;79;000.625;MIDI 01
108.969;000.529;57;000.430;MIDI 01
109.477;000.059;77;000.609;MIDI 01
109.496;000.117;60;000.383;MIDI 01
109.565;000.060;75;000.578;MIDI 01
109.650;000.039;74;000.555;MIDI 01
109.677;000.209;58;000.375;MIDI 01
109.963;000.083;62;000.328;MIDI 01
110.146;000.079;60;000.422;MIDI 01
109.942;000.366;89;000.656;MIDI 01
110.320;000.084;63;000.438;MIDI 01
110.507;000.093;62;000.414;MIDI 01
110.680;000.045;65;000.453;MIDI 01
110.303;000.433;81;000.672;MIDI 01
110.885;000.119;50;000.477;MIDI 01
111.074;000.101;58;000.508;MIDI 01
110.684;000.535;82;000.641;MIDI 01
111.233;000.145;51;000.492;MIDI 01
111.429;000.060;58;000.484;MIDI 01
111.051;000.460;80;000.625;MIDI 01
111.412;000.390;79;000.594;MIDI 01
111.599;000.205;53;000.539;MIDI 01
111.783;000.071;58;000.492;MIDI 01
111.960;000.140;55;000.523;MIDI 01
111.767;000.381;77;000.555;MIDI 01
112.149;000.089;58;000.461;MIDI 01
112.312;000.151;54;000.547;MIDI 01
112.142;000.353;76;000.484;MIDI 01
112.507;000.070;58;000.461;MIDI 01
112.518;000.270;75;000.391;MIDI 01
112.670;000.124;53;000.477;MIDI 01
112.874;000.061;58;000.422;MIDI 01
113.046;000.177;52;000.414;MIDI 01
112.860;000.373;74;000.391;MIDI 01
113.216;000.150;58;000.523;MIDI 01
113.402;000.132;52;000.523;MIDI 01
113.240;000.316;73;000.430;MIDI 01
113.575;000.121;60;000.594;MIDI 01
113.783;000.073;52;000.422;MIDI 01
113.595;000.428;72;000.523;MIDI 01
113.938;000.140;61;000.586;MIDI 01
113.953;000.241;70;000.539;MIDI 01
114.132;000.100;53;000.438;MIDI 01
114.327;000.092;60;000.375;MIDI 01
114.296;000.312;69;000.430;MIDI 01
114.489;000.154;52;000.406;MIDI 01
114.678;000.059;61;000.414;MIDI 01
114.858;000.094;53;000.359;MIDI 01
114.647;000.320;70;000.398;MIDI 01
115.031;000.075;60;000.367;MIDI 01
115.056;000.230;69;000.359;MIDI 01
115.203;000.141;52;000.391;MIDI 01
115.388;000.054;61;000.367;MIDI 01
115.395;000.093;70;000.336;MIDI 01
115.574;000.062;69;000.352;MIDI 01
115.739;000.046;77;000.406;MIDI 01
115.592;000.280;60;000.242;MIDI 01
115.586;000.353;53;000.266;MIDI 01
115.940;000.032;77;000.391;MIDI 01
116.105;000.026;77;000.594;MIDI 01
116.282;000.055;77;000.492;MIDI 01
116.478;000.021;77;000.484;MIDI 01
116.641;000.044;77;000.430;MIDI 01
116.818;000.027;77;000.617;MIDI 01
116.829;000.024;76;000.586;MIDI 01
117.000;000.035;77;000.531;MIDI 01
116.996;000.045;76;000.250;MIDI 01
117.174;000.043;76;000.523;MIDI 01
117.171;000.047;77;000.445;MIDI 01
117.351;000.041;76;000.461;MIDI 01
117.346;000.048;77;000.578;MIDI 01
117.506;000.043;65;000.578;MIDI 01
117.516;000.035;75;000.602;MIDI 01
117.504;000.049;77;000.633;MIDI 01
117.697;000.035;75;000.414;MIDI 01
117.695;000.039;77;000.547;MIDI 01
117.703;000.097;66;000.484;MIDI 01
117.870;000.045;75;000.477;MIDI 01
117.862;000.054;77;000.547;MIDI 01
117.865;000.106;67;000.461;MIDI 01
118.046;000.047;77;000.555;MIDI 01
118.049;000.045;75;000.516;MIDI 01
118.056;000.039;68;000.492;MIDI 01
118.213;000.034;69;000.633;MIDI 01
118.219;000.035;75;000.594;MIDI 01
118.223;000.033;77;000.602;MIDI 01
118.385;000.047;77;000.578;MIDI 01
118.408;000.031;74;000.445;MIDI 01
118.400;000.172;70;000.523;MIDI 01
118.564;000.037;74;000.461;MIDI 01
118.572;000.031;77;000.516;MIDI 01
118.741;000.032;74;000.430;MIDI 01
118.735;000.041;77;000.430;MIDI 01
118.939;000.071;65;000.438;MIDI 01
118.941;000.078;58;000.461;MIDI 01
118.948;000.073;62;000.398;MIDI 01
118.940;000.092;77;000.469;MIDI 01
118.991;000.044;82;000.344;MIDI 01
118.938;000.099;89;000.562;MIDI 01
118.951;000.095;86;000.406;MIDI 01
119.141;000.029;82;000.586;MIDI 01
119.124;000.049;65;000.609;MIDI 01
119.133;000.042;62;000.570;MIDI 01
119.136;000.043;86;000.570;MIDI 01
119.138;000.045;58;000.578;MIDI 01
119.131;000.053;77;000.688;MIDI 01
119.126;000.060;89;000.664;MIDI 01
119.314;000.030;86;000.586;MIDI 01
119.309;000.039;82;000.492;MIDI 01
119.311;000.040;62;000.586;MIDI 01
119.303;000.052;65;000.641;MIDI 01
119.300;000.057;77;000.719;MIDI 01
119.307;000.051;89;000.656;MIDI 01
119.305;000.057;58;000.586;MIDI 01
119.477;000.041;65;000.664;MIDI 01
119.483;000.036;82;000.617;MIDI 01
119.475;000.047;77;000.711;MIDI 01
119.485;000.039;86;000.555;MIDI 01
119.481;000.050;62;000.508;MIDI 01
119.489;000.045;58;000.578;MIDI 01
119.479;000.056;89;000.695;MIDI 01
119.639;000.025;89;000.672;MIDI 01
119.643;000.024;77;000.664;MIDI 01
119.649;000.025;86;000.391;MIDI 01
119.647;000.041;82;000.609;MIDI 01
119.645;000.045;65;000.625;MIDI 01
119.658;000.034;62;000.391;MIDI 01
119.641;000.098;58;000.484;MIDI 01
119.851;000.045;75;000.602;MIDI 01
119.855;000.153;60;000.555;MIDI 01
119.839;000.296;53;000.555;MIDI 01
119.825;000.420;81;000.664;MIDI 01
120.217;000.041;58;000.430;MIDI 01
120.234;000.036;62;000.383;MIDI 01
120.232;000.043;74;000.523;MIDI 01
120.221;000.084;82;000.539;MIDI 01
120.394;000.036;74;000.594;MIDI 01
120.391;000.045;77;000.609;MIDI 01
120.412;000.056;62;000.469;MIDI 01
120.410;000.102;58;000.453;MIDI 01
120.615;000.049;75;000.578;MIDI 01
120.610;000.145;53;000.445;MIDI 01
120.612;000.182;60;000.500;MIDI 01
120.597;000.403;81;000.672;MIDI 01
120.993;000.041;62;000.469;MIDI 01
121.000;000.037;74;000.523;MIDI 01
120.996;000.043;58;000.469;MIDI 01
120.979;000.070;82;000.594;MIDI 01
121.156;000.034;74;000.547;MIDI 01
121.181;000.039;62;000.445;MIDI 01
121.161;000.060;77;000.633;MIDI 01
121.180;000.057;58;000.469;MIDI 01
121.393;000.097;75;000.500;MIDI 01
121.383;000.305;60;000.469;MIDI 01
121.386;000.419;53;000.453;MIDI 01
121.362;000.486;81;000.656;MIDI 01
121.797;000.083;62;000.430;MIDI 01
121.811;000.074;74;000.500;MIDI 01
121.772;000.142;82;000.586;MIDI 01
121.794;000.152;58;000.406;MIDI 01
122.091;000.093;74;000.617;MIDI 01
122.055;000.165;83;000.664;MIDI 01
122.076;000.241;65;000.500;MIDI 01
122.072;000.285;56;000.477;MIDI 01
122.555;000.171;65;000.422;MIDI 01
122.576;000.235;74;000.461;MIDI 01
122.524;000.885;83;000.664;MIDI 01
122.544;001.311;56;000.484;MIDI 01
123.351;000.574;84;000.602;MIDI 01
123.348;000.623;63;000.438;MIDI 01
123.400;000.623;72;000.406;MIDI 01
123.835;000.555;54;000.469;MIDI 01
123.819;000.832;82;000.664;MIDI 01
124.525;000.699;72;000.438;MIDI 01
124.504;001.195;63;000.383;MIDI 01
124.508;001.673;53;000.414;MIDI 01
124.472;001.733;81;000.664;MIDI 01
126.810;000.561;62;000.219;MIDI 01
126.838;000.956;55;000.172;MIDI 01
126.806;001.006;70;000.250;MIDI 01
126.789;001.257;82;000.281;MIDI 01
128.827;000.102;74;000.305;MIDI 01
128.834;000.118;70;000.164;MIDI 01
128.827;000.127;78;000.273;MIDI 01
129.254;000.626;78;000.344;MIDI 01
129.283;000.650;74;000.312;MIDI 01
130.014;000.037;75;000.297;MIDI 01
129.985;000.139;79;000.352;MIDI 01
129.289;000.903;70;000.219;MIDI 01
130.396;000.028;51;000.516;MIDI 01
130.406;000.021;63;000.477;MIDI 01
130.408;000.030;71;000.555;MIDI 01
130.400;000.060;79;000.578;MIDI 01
130.827;000.332;71;000.641;MIDI 01
131.582;000.178;74;000.398;MIDI 01
131.781;000.194;72;000.508;MIDI 01
130.816;001.367;79;000.656;MIDI 01
131.945;000.261;75;000.594;MIDI 01
132.121;000.202;74;000.617;MIDI 01
132.294;000.158;77;000.602;MIDI 01
132.476;000.067;75;000.586;MIDI 01
132.665;000.114;77;000.484;MIDI 01
132.647;000.134;80;000.516;MIDI 01
132.827;000.144;75;000.500;MIDI 01
132.851;000.149;79;000.547;MIDI 01
133.025;000.052;78;000.453;MIDI 01
133.027;000.084;74;000.391;MIDI 01
133.222;000.055;75;000.484;MIDI 01
130.831;002.574;51;000.625;MIDI 01
133.191;000.236;79;000.539;MIDI 01
130.839;002.596;63;000.625;MIDI 01
133.392;000.084;74;000.570;MIDI 01
133.536;000.051;72;000.523;MIDI 01
133.370;000.221;77;000.648;MIDI 01
133.544;000.244;75;000.617;MIDI 01
133.747;000.132;65;000.578;MIDI 01
133.744;000.406;53;000.594;MIDI 01
133.776;000.396;70;000.508;MIDI 01
133.739;000.436;74;000.625;MIDI 01
134.318;000.053;74;000.523;MIDI 01
134.315;000.065;77;000.516;MIDI 01
134.518;000.079;53;000.461;MIDI 01
134.520;000.164;74;000.531;MIDI 01
134.514;000.208;77;000.594;MIDI 01
134.681;000.084;75;000.586;MIDI 01
134.697;000.167;72;000.562;MIDI 01
134.506;000.475;41;000.578;MIDI 01
134.882;000.101;70;000.570;MIDI 01
134.881;000.145;74;000.500;MIDI 01
135.047;000.045;72;000.508;MIDI 01
135.069;000.037;69;000.438;MIDI 01
135.233;000.077;70;000.578;MIDI 01
135.324;000.128;77;000.562;MIDI 01
135.414;000.057;74;000.562;MIDI 01
135.466;000.070;70;000.586;MIDI 01
135.576;000.036;65;000.477;MIDI 01
135.671;000.028;62;000.547;MIDI 01
135.732;000.095;58;000.398;MIDI 01
135.812;000.070;62;000.469;MIDI 01
135.932;000.077;69;000.641;MIDI 01
136.007;000.170;77;000.562;MIDI 01
136.099;000.152;75;000.594;MIDI 01
136.198;000.079;72;000.508;MIDI 01
136.255;000.078;69;000.594;MIDI 01
136.347;000.043;65;000.508;MIDI 01
136.410;000.118;60;000.398;MIDI 01
136.528;000.059;63;000.430;MIDI 01
136.648;000.067;70;000.492;MIDI 01
136.746;000.057;77;000.383;MIDI 01
136.818;000.044;74;000.469;MIDI 01
136.887;000.042;70;000.531;MIDI 01
136.973;000.051;65;000.469;MIDI 01
137.065;000.041;62;000.523;MIDI 01
137.111;000.099;58;000.438;MIDI 01
137.211;000.060;62;000.508;MIDI 01
137.326;000.066;69;000.609;MIDI 01
137.397;000.166;77;000.562;MIDI 01
137.497;000.131;75;000.570;MIDI 01
137.590;000.050;72;000.484;MIDI 01
137.640;000.077;69;000.570;MIDI 01
137.733;000.029;65;000.469;MIDI 01
137.779;000.071;60;000.422;MIDI 01
137.895;000.024;63;000.406;MIDI 01
137.985;000.102;77;000.461;MIDI 01
138.085;000.032;70;000.422;MIDI 01
138.142;000.077;62;000.375;MIDI 01
138.227;000.050;70;000.438;MIDI 01
138.309;000.106;79;000.469;MIDI 01
138.394;000.048;70;000.453;MIDI 01
138.470;000.048;63;000.422;MIDI 01
138.559;000.028;70;000.445;MIDI 01
138.633;000.096;81;000.508;MIDI 01
138.725;000.051;70;000.414;MIDI 01
138.785;000.060;65;000.398;MIDI 01
138.892;000.033;70;000.391;MIDI 01
138.970;000.111;82;000.461;MIDI 01
139.047;000.051;70;000.414;MIDI 01
139.131;000.055;67;000.367;MIDI 01
139.213;000.049;70;000.453;MIDI 01
139.384;000.050;70;000.445;MIDI 01
139.299;000.137;77;000.445;MIDI 01
139.460;000.069;62;000.398;MIDI 01
139.548;000.036;70;000.461;MIDI 01
139.637;000.034;80;000.312;MIDI 01
139.664;000.111;79;000.484;MIDI 01
139.717;000.060;70;000.445;MIDI 01
139.786;000.074;63;000.438;MIDI 01
139.885;000.034;70;000.438;MIDI 01
139.984;000.102;81;000.531;MIDI 01
140.072;000.050;70;000.391;MIDI 01
140.144;000.054;65;000.461;MIDI 01
140.240;000.029;70;000.422;MIDI 01
140.340;000.103;82;000.508;MIDI 01
140.421;000.041;70;000.414;MIDI 01
140.492;000.041;67;000.445;MIDI 01
140.573;000.020;70;000.461;MIDI 01
140.695;000.109;85;000.578;MIDI 01
140.799;000.023;73;000.414;MIDI 01
140.864;000.032;66;000.430;MIDI 01
140.946;000.035;70;000.375;MIDI 01
141.047;000.107;82;000.508;MIDI 01
141.132;000.031;70;000.391;MIDI 01
141.215;000.027;66;000.500;MIDI 01
141.280;000.029;70;000.461;MIDI 01
141.402;000.080;88;000.648;MIDI 01
141.482;000.042;76;000.602;MIDI 01
141.583;000.041;66;000.539;MIDI 01
141.701;000.036;70;000.273;MIDI 01
141.759;000.115;82;000.531;MIDI 01
141.848;000.031;70;000.547;MIDI 01
141.936;000.034;66;000.375;MIDI 01
142.011;000.032;70;000.344;MIDI 01
142.111;000.062;81;000.523;MIDI 01
142.220;000.031;69;000.445;MIDI 01
142.271;000.050;65;000.422;MIDI 01
142.369;000.030;53;000.500;MIDI 01
142.474;000.053;77;000.523;MIDI 01
142.569;000.027;65;000.516;MIDI 01
142.621;000.054;60;000.539;MIDI 01
142.715;000.036;48;000.547;MIDI 01
142.812;000.072;72;000.633;MIDI 01
142.897;000.040;60;000.570;MIDI 01
142.958;000.073;57;000.609;MIDI 01
143.059;000.036;45;000.594;MIDI 01
143.149;000.050;69;000.664;MIDI 01
143.226;000.025;57;000.617;MIDI 01
143.302;000.066;53;000.586;MIDI 01
143.346;000.047;57;000.195;MIDI 01
143.391;000.535;41;000.562;MIDI 01
143.719;002.417;29;000.648;MIDI 01
146.797;000.041;63;000.375;MIDI 01
146.978;000.046;63;000.375;MIDI 01
147.158;000.046;63;000.367;MIDI 01
147.330;000.037;63;000.414;MIDI 01
147.469;000.040;72;000.531;MIDI 01
147.499;000.031;63;000.406;MIDI 01
147.658;000.054;63;000.352;MIDI 01
147.651;000.123;65;000.414;MIDI 01
147.849;000.030;63;000.352;MIDI 01
147.805;000.150;66;000.422;MIDI 01
148.006;000.029;65;000.391;MIDI 01
148.004;000.053;63;000.398;MIDI 01
148.161;000.047;75;000.547;MIDI 01
148.169;000.051;63;000.461;MIDI 01
148.357;000.039;63;000.359;MIDI 01
148.344;000.133;69;000.445;MIDI 01
148.526;000.045;63;000.445;MIDI 01
148.523;000.188;70;000.445;MIDI 01
148.703;000.029;63;000.398;MIDI 01
148.710;000.027;69;000.438;MIDI 01
148.866;000.042;63;000.453;MIDI 01
148.855;000.061;78;000.586;MIDI 01
149.048;000.038;63;000.375;MIDI 01
149.032;000.149;72;000.500;MIDI 01
149.218;000.043;63;000.461;MIDI 01
149.203;000.136;73;000.477;MIDI 01
149.386;000.046;72;000.406;MIDI 01
149.394;000.046;63;000.453;MIDI 01
149.558;000.042;63;000.477;MIDI 01
149.553;000.055;81;000.664;MIDI 01
149.740;000.052;63;000.414;MIDI 01
149.742;000.122;77;000.539;MIDI 01
149.903;000.051;63;000.469;MIDI 01
149.905;000.106;78;000.539;MIDI 01
150.089;000.040;63;000.484;MIDI 01
150.083;000.049;77;000.531;MIDI 01
150.250;000.049;89;000.703;MIDI 01
150.259;000.054;63;000.484;MIDI 01
150.438;000.047;62;000.508;MIDI 01
150.631;000.029;86;000.414;MIDI 01
150.615;000.053;89;000.477;MIDI 01
150.801;000.023;63;000.406;MIDI 01
150.975;000.032;84;000.398;MIDI 01
150.971;000.048;87;000.469;MIDI 01
151.157;000.032;65;000.359;MIDI 01
151.331;000.036;82;000.359;MIDI 01
151.326;000.045;86;000.430;MIDI 01
151.510;000.039;65;000.438;MIDI 01
151.678;000.024;81;000.414;MIDI 01
151.681;000.057;84;000.391;MIDI 01
151.833;000.036;82;000.508;MIDI 01
152.050;000.034;63;000.320;MIDI 01
152.205;000.064;63;000.367;MIDI 01
152.394;000.025;63;000.422;MIDI 01
151.870;000.614;58;000.414;MIDI 01
152.560;000.047;63;000.398;MIDI 01
152.748;000.034;63;000.352;MIDI 01
152.915;000.039;63;000.344;MIDI 01
153.082;000.039;48;000.508;MIDI 01
153.089;000.037;63;000.414;MIDI 01
153.269;000.050;63;000.359;MIDI 01
153.262;000.108;41;000.438;MIDI 01
153.451;000.036;63;000.398;MIDI 01
153.436;000.169;42;000.359;MIDI 01
153.604;000.036;41;000.383;MIDI 01
153.628;000.035;63;000.453;MIDI 01
153.785;000.041;63;000.445;MIDI 01
153.785;000.060;51;000.586;MIDI 01
153.966;000.038;63;000.406;MIDI 01
153.984;000.089;45;000.414;MIDI 01
154.133;000.068;63;000.391;MIDI 01
154.145;000.098;46;000.406;MIDI 01
154.327;000.030;45;000.422;MIDI 01
154.331;000.033;63;000.461;MIDI 01
154.480;000.040;63;000.523;MIDI 01
154.485;000.070;54;000.602;MIDI 01
154.653;000.067;63;000.391;MIDI 01
154.675;000.124;48;000.445;MIDI 01
154.844;000.041;63;000.477;MIDI 01
154.846;000.091;49;000.453;MIDI 01
155.005;000.035;48;000.484;MIDI 01
155.015;000.046;63;000.492;MIDI 01
155.174;000.046;63;000.539;MIDI 01
155.165;000.061;57;000.641;MIDI 01
155.353;000.043;63;000.516;MIDI 01
155.355;000.088;53;000.508;MIDI 01
155.507;000.053;63;000.516;MIDI 01
155.522;000.065;54;000.492;MIDI 01
155.694;000.037;63;000.523;MIDI 01
155.692;000.055;53;000.609;MIDI 01
155.855;000.028;57;000.672;MIDI 01
155.869;000.061;63;000.508;MIDI 01
156.033;000.062;62;000.477;MIDI 01
156.055;000.061;58;000.547;MIDI 01
156.132;000.028;70;000.445;MIDI 01
156.220;000.033;62;000.492;MIDI 01
156.223;000.049;46;000.445;MIDI 01
156.271;000.077;70;000.508;MIDI 01
156.378;000.041;63;000.531;MIDI 01
156.393;000.044;58;000.438;MIDI 01
156.470;000.046;69;000.523;MIDI 01
156.542;000.055;63;000.469;MIDI 01
156.561;000.050;46;000.445;MIDI 01
156.616;000.043;69;000.367;MIDI 01
156.741;000.032;69;000.516;MIDI 01
156.729;000.058;58;000.461;MIDI 01
156.808;000.054;75;000.516;MIDI 01
156.907;000.044;46;000.469;MIDI 01
156.897;000.060;69;000.469;MIDI 01
156.992;000.039;75;000.461;MIDI 01
157.073;000.035;70;000.555;MIDI 01
157.090;000.041;58;000.461;MIDI 01
157.164;000.060;74;000.508;MIDI 01
157.257;000.055;46;000.477;MIDI 01
157.232;000.085;70;000.492;MIDI 01
157.322;000.030;74;000.422;MIDI 01
157.440;000.033;74;000.555;MIDI 01
157.435;000.047;58;000.516;MIDI 01
157.531;000.045;82;000.508;MIDI 01
157.606;000.064;46;000.539;MIDI 01
157.611;000.062;74;000.445;MIDI 01
157.678;000.075;82;000.539;MIDI 01
157.780;000.045;58;000.570;MIDI 01
157.789;000.043;75;000.602;MIDI 01
157.889;000.068;81;000.602;MIDI 01
157.955;000.054;46;000.539;MIDI 01
157.970;000.059;75;000.602;MIDI 01
158.030;000.028;81;000.414;MIDI 01
158.129;000.051;58;000.609;MIDI 01
158.150;000.032;81;000.617;MIDI 01
158.223;000.081;87;000.648;MIDI 01
158.312;000.057;81;000.570;MIDI 01
158.317;000.073;46;000.562;MIDI 01
158.390;000.079;87;000.508;MIDI 01
158.475;000.053;82;000.594;MIDI 01
158.480;000.081;58;000.602;MIDI 01
158.576;000.060;86;000.594;MIDI 01
158.664;000.189;82;000.625;MIDI 01
158.756;000.126;86;000.625;MIDI 01
158.785;000.136;50;000.500;MIDI 01
158.970;000.041;77;000.648;MIDI 01
158.967;000.047;82;000.570;MIDI 01
158.992;000.031;87;000.422;MIDI 01
158.966;000.059;62;000.695;MIDI 01
158.970;000.056;89;000.727;MIDI 01
158.915;000.135;58;000.438;MIDI 01
158.875;000.364;53;000.422;MIDI 01
159.287;000.089;55;000.438;MIDI 01
159.348;000.037;79;000.672;MIDI 01
159.284;000.112;51;000.523;MIDI 01
159.352;000.057;60;000.711;MIDI 01
159.385;000.027;84;000.367;MIDI 01
159.332;000.085;87;000.719;MIDI 01
159.735;000.033;62;000.664;MIDI 01
159.746;000.024;53;000.594;MIDI 01
159.744;000.028;82;000.609;MIDI 01
159.751;000.023;77;000.562;MIDI 01
159.728;000.047;86;000.711;MIDI 01
159.747;000.035;58;000.617;MIDI 01
160.123;000.031;60;000.617;MIDI 01
160.127;000.040;53;000.578;MIDI 01
160.129;000.040;72;000.664;MIDI 01
160.131;000.040;57;000.625;MIDI 01
160.125;000.059;81;000.711;MIDI 01
160.133;000.055;75;000.617;MIDI 01
160.504;000.081;58;000.562;MIDI 01
160.628;000.055;57;000.477;MIDI 01
160.512;000.233;77;000.586;MIDI 01
160.497;000.269;82;000.680;MIDI 01
160.706;000.070;58;000.562;MIDI 01
160.789;000.059;57;000.562;MIDI 01
160.510;000.340;74;000.633;MIDI 01
160.881;000.058;58;000.578;MIDI 01
160.971;000.058;57;000.523;MIDI 01
161.062;000.034;75;000.523;MIDI 01
161.059;000.043;79;000.484;MIDI 01
161.055;000.067;58;000.562;MIDI 01
161.146;000.060;57;000.508;MIDI 01
161.253;000.069;58;000.461;MIDI 01
161.338;000.073;57;000.484;MIDI 01
161.267;000.146;74;000.523;MIDI 01
161.250;000.199;77;000.555;MIDI 01
161.418;000.068;75;000.555;MIDI 01
161.441;000.052;58;000.516;MIDI 01
161.511;000.077;57;000.578;MIDI 01
161.422;000.188;72;000.523;MIDI 01
161.601;000.077;58;000.523;MIDI 01
161.609;000.094;70;000.555;MIDI 01
161.594;000.125;74;000.547;MIDI 01
161.703;000.061;57;000.570;MIDI 01
161.777;000.044;72;000.516;MIDI 01
161.787;000.065;69;000.539;MIDI 01
161.778;000.076;58;000.602;MIDI 01
161.881;000.110;57;000.531;MIDI 01
161.983;000.046;70;000.555;MIDI 01
162.067;000.070;69;000.484;MIDI 01
161.985;000.168;58;000.609;MIDI 01
162.160;000.055;70;000.508;MIDI 01
162.260;000.034;69;000.523;MIDI 01
162.341;000.061;70;000.508;MIDI 01
162.432;000.048;69;000.453;MIDI 01
162.524;000.051;70;000.484;MIDI 01
162.545;000.037;55;000.305;MIDI 01
162.526;000.058;51;000.461;MIDI 01
162.620;000.050;69;000.492;MIDI 01
162.703;000.084;70;000.430;MIDI 01
162.711;000.095;50;000.484;MIDI 01
162.722;000.090;53;000.484;MIDI 01
162.810;000.051;69;000.477;MIDI 01
162.883;000.073;70;000.523;MIDI 01
162.889;000.086;55;000.531;MIDI 01
162.894;000.103;51;000.531;MIDI 01
162.966;000.073;69;000.555;MIDI 01
163.065;000.076;70;000.578;MIDI 01
163.083;000.076;53;000.539;MIDI 01
163.076;000.111;50;000.523;MIDI 01
163.155;000.035;69;000.562;MIDI 01
163.219;000.061;70;000.539;MIDI 01
163.286;000.042;48;000.516;MIDI 01
163.279;000.089;51;000.508;MIDI 01
163.294;000.122;69;000.609;MIDI 01
163.404;000.033;70;000.602;MIDI 01
163.521;000.043;50;000.531;MIDI 01
163.519;000.052;46;000.578;MIDI 01
163.950;000.102;58;000.562;MIDI 01
163.946;000.133;53;000.484;MIDI 01
163.943;000.195;50;000.414;MIDI 01
163.938;000.330;77;000.578;MIDI 01
163.945;000.341;74;000.617;MIDI 01
163.933;000.356;82;000.672;MIDI 01
163.948;000.357;46;000.523;MIDI 01
165.246;000.035;65;000.289;MIDI 01
165.438;000.164;56;000.422;MIDI 01
165.440;000.248;48;000.430;MIDI 01
165.605;000.093;58;000.430;MIDI 01
165.817;000.059;56;000.312;MIDI 01
165.973;000.045;65;000.359;MIDI 01
165.447;000.704;36;000.414;MIDI 01
166.177;000.077;47;000.320;MIDI 01
166.175;000.128;35;000.391;MIDI 01
166.192;000.119;55;000.297;MIDI 01
166.365;000.094;56;000.359;MIDI 01
166.534;000.031;55;000.398;MIDI 01
166.692;000.057;60;000.414;MIDI 01
166.727;000.024;68;000.383;MIDI 01
166.907;000.153;59;000.328;MIDI 01
166.894;000.186;67;000.461;MIDI 01
167.076;000.119;60;000.406;MIDI 01
167.061;000.163;68;000.492;MIDI 01
167.252;000.092;67;000.453;MIDI 01
167.247;000.143;59;000.391;MIDI 01
167.429;000.168;65;000.367;MIDI 01
167.432;000.197;62;000.312;MIDI 01
167.621;000.043;63;000.367;MIDI 01
167.627;000.148;60;000.289;MIDI 01
167.796;000.039;72;000.336;MIDI 01
167.971;000.033;72;000.383;MIDI 01
168.144;000.036;72;000.484;MIDI 01
168.136;000.047;63;000.508;MIDI 01
168.336;000.032;72;000.312;MIDI 01
168.325;000.104;64;000.438;MIDI 01
168.497;000.052;72;000.375;MIDI 01
168.488;000.179;65;000.375;MIDI 01
168.695;000.027;72;000.367;MIDI 01
168.691;000.137;66;000.359;MIDI 01
168.863;000.043;72;000.328;MIDI 01
168.871;000.152;67;000.359;MIDI 01
169.053;000.030;72;000.359;MIDI 01
169.235;000.040;72;000.328;MIDI 01
169.424;000.026;72;000.359;MIDI 01
169.057;000.410;68;000.281;MIDI 01
169.570;000.051;74;000.617;MIDI 01
169.576;000.058;72;000.438;MIDI 01
169.586;000.159;65;000.461;MIDI 01
169.769;000.062;72;000.344;MIDI 01
169.775;000.093;75;000.430;MIDI 01
169.778;000.108;66;000.344;MIDI 01
169.975;000.037;72;000.227;MIDI 01
169.941;000.128;76;000.422;MIDI 01
169.924;000.150;67;000.359;MIDI 01
170.139;000.046;72;000.359;MIDI 01
170.114;000.135;77;000.430;MIDI 01
170.326;000.032;72;000.297;MIDI 01
170.110;000.314;68;000.375;MIDI 01
170.280;000.215;78;000.445;MIDI 01
170.501;000.043;72;000.344;MIDI 01
170.285;000.282;69;000.367;MIDI 01
170.686;000.041;72;000.445;MIDI 01
170.872;000.050;72;000.406;MIDI 01
170.499;000.441;70;000.461;MIDI 01
170.507;000.450;79;000.438;MIDI 01
171.045;000.050;72;000.484;MIDI 01
171.052;000.043;76;000.539;MIDI 01
171.041;000.144;67;000.508;MIDI 01
171.235;000.050;72;000.328;MIDI 01
171.218;000.070;77;000.469;MIDI 01
171.399;000.120;79;000.422;MIDI 01
171.242;000.279;68;000.383;MIDI 01
171.614;000.050;72;000.305;MIDI 01
171.402;000.336;64;000.367;MIDI 01
171.595;000.224;80;000.500;MIDI 01
171.589;000.317;65;000.516;MIDI 01
171.770;000.320;82;000.547;MIDI 01
171.768;000.432;67;000.523;MIDI 01
172.097;000.105;72;000.266;MIDI 01
172.252;000.069;72;000.375;MIDI 01
172.451;000.033;72;000.500;MIDI 01
172.046;000.485;68;000.422;MIDI 01
172.035;000.514;84;000.531;MIDI 01
172.597;000.035;72;000.469;MIDI 01
172.594;000.054;80;000.539;MIDI 01
172.603;000.072;65;000.453;MIDI 01
172.793;000.067;72;000.414;MIDI 01
173.005;000.023;72;000.391;MIDI 01
173.158;000.030;72;000.508;MIDI 01
172.812;000.461;67;000.461;MIDI 01
172.782;000.543;82;000.586;MIDI 01
173.322;000.044;72;000.492;MIDI 01
173.325;000.059;79;000.555;MIDI 01
173.335;000.055;64;000.477;MIDI 01
173.531;000.051;72;000.398;MIDI 01
173.709;000.043;72;000.461;MIDI 01
173.896;000.037;72;000.453;MIDI 01
174.068;000.049;72;000.469;MIDI 01
174.252;000.055;73;000.578;MIDI 01
174.442;000.029;73;000.516;MIDI 01
174.603;000.037;73;000.469;MIDI 01
174.771;000.051;73;000.453;MIDI 01
173.512;001.324;80;000.578;MIDI 01
174.974;000.047;73;000.391;MIDI 01
173.533;001.571;65;000.438;MIDI 01
175.134;000.065;73;000.492;MIDI 01
174.977;000.358;64;000.312;MIDI 01
175.331;000.023;72;000.469;MIDI 01
175.491;000.039;72;000.391;MIDI 01
175.333;000.334;63;000.367;MIDI 01
175.673;000.050;72;000.453;MIDI 01
174.972;000.806;79;000.500;MIDI 01
175.864;000.048;72;000.438;MIDI 01
175.685;000.325;62;000.352;MIDI 01
176.062;000.022;71;000.422;MIDI 01
176.209;000.069;71;000.422;MIDI 01
176.068;000.265;61;000.344;MIDI 01
175.689;000.781;77;000.422;MIDI 01
176.428;000.049;60;000.234;MIDI 01
176.414;000.122;72;000.305;MIDI 01
176.515;000.049;59;000.352;MIDI 01
176.409;000.182;76;000.375;MIDI 01
176.592;000.045;60;000.445;MIDI 01
176.696;000.040;59;000.445;MIDI 01
176.753;000.043;60;000.484;MIDI 01
176.836;000.051;59;000.484;MIDI 01
176.928;000.031;80;000.414;MIDI 01
176.917;000.044;84;000.398;MIDI 01
176.919;000.056;60;000.438;MIDI 01
177.028;000.036;59;000.367;MIDI 01
177.103;000.048;60;000.383;MIDI 01
177.139;000.077;79;000.336;MIDI 01
177.115;000.127;82;000.422;MIDI 01
177.220;000.041;59;000.344;MIDI 01
177.280;000.054;60;000.438;MIDI 01
177.293;000.084;80;000.430;MIDI 01
177.385;000.042;59;000.422;MIDI 01
177.295;000.206;84;000.438;MIDI 01
177.450;000.055;60;000.453;MIDI 01
177.490;000.053;79;000.422;MIDI 01
177.551;000.064;59;000.477;MIDI 01
177.484;000.190;82;000.469;MIDI 01
177.642;000.045;60;000.500;MIDI 01
177.665;000.031;77;000.398;MIDI 01
177.647;000.133;80;000.508;MIDI 01
177.743;000.048;59;000.398;MIDI 01
177.819;000.047;60;000.453;MIDI 01
177.866;000.058;76;000.359;MIDI 01
177.842;000.084;79;000.453;MIDI 01
177.920;000.053;59;000.461;MIDI 01
177.999;000.051;60;000.453;MIDI 01
178.097;000.056;59;000.453;MIDI 01
178.170;000.066;60;000.469;MIDI 01
178.300;000.046;59;000.375;MIDI 01
178.378;000.043;44;000.359;MIDI 01
178.351;000.072;48;000.422;MIDI 01
178.373;000.064;60;000.445;MIDI 01
178.496;000.053;59;000.383;MIDI 01
178.574;000.062;60;000.414;MIDI 01
178.562;000.151;43;000.406;MIDI 01
178.671;000.060;59;000.469;MIDI 01
178.549;000.196;46;000.438;MIDI 01
178.721;000.073;44;000.578;MIDI 01
178.761;000.059;60;000.492;MIDI 01
178.735;000.099;41;000.539;MIDI 01
178.865;000.069;59;000.523;MIDI 01
178.938;000.054;60;000.516;MIDI 01
178.938;000.084;40;000.609;MIDI 01
178.921;000.126;43;000.609;MIDI 01
179.071;000.067;59;000.508;MIDI 01
179.103;000.056;38;000.602;MIDI 01
179.104;000.128;41;000.617;MIDI 01
179.314;000.204;36;000.656;MIDI 01
179.314;000.278;40;000.688;MIDI 01
179.317;000.309;60;000.570;MIDI 01
180.629;000.071;84;000.453;MIDI 01
180.821;000.070;84;000.562;MIDI 01
180.989;000.070;84;000.641;MIDI 01
181.173;000.058;84;000.688;MIDI 01
181.352;000.144;84;000.680;MIDI 01
181.566;000.119;85;000.500;MIDI 01
181.576;000.117;56;000.234;MIDI 01
181.675;000.072;84;000.523;MIDI 01
181.564;000.206;60;000.258;MIDI 01
181.727;000.126;63;000.383;MIDI 01
181.747;000.150;82;000.578;MIDI 01
181.833;000.156;84;000.602;MIDI 01
181.912;000.204;56;000.328;MIDI 01
181.907;000.259;60;000.398;MIDI 01
181.935;000.290;87;000.641;MIDI 01
182.118;000.141;63;000.445;MIDI 01
182.114;000.247;80;000.648;MIDI 01
182.324;000.158;58;000.367;MIDI 01
182.314;000.178;56;000.359;MIDI 01
182.275;000.249;79;000.586;MIDI 01
182.304;000.259;61;000.422;MIDI 01
182.477;000.152;63;000.461;MIDI 01
182.466;000.318;82;000.648;MIDI 01
182.690;000.131;58;000.352;MIDI 01
182.681;000.152;56;000.430;MIDI 01
182.661;000.230;85;000.633;MIDI 01
182.675;000.230;61;000.383;MIDI 01
182.848;000.159;63;000.453;MIDI 01
182.830;000.204;79;000.594;MIDI 01
183.030;000.151;56;000.430;MIDI 01
183.040;000.149;60;000.438;MIDI 01
183.028;000.223;80;000.578;MIDI 01
183.210;000.136;84;000.539;MIDI 01
183.206;000.164;63;000.422;MIDI 01
183.396;000.053;75;000.523;MIDI 01
183.398;000.150;56;000.367;MIDI 01
183.395;000.159;60;000.422;MIDI 01
183.564;000.110;75;000.562;MIDI 01
183.561;000.152;63;000.461;MIDI 01
183.779;000.121;58;000.352;MIDI 01
183.769;000.165;56;000.305;MIDI 01
183.756;000.191;73;000.484;MIDI 01
183.771;000.231;61;000.391;MIDI 01
183.927;000.131;63;000.445;MIDI 01
183.921;000.150;79;000.531;MIDI 01
184.134;000.098;56;000.391;MIDI 01
184.144;000.102;58;000.258;MIDI 01
184.141;000.142;61;000.367;MIDI 01
184.110;000.174;82;000.555;MIDI 01
184.296;000.106;79;000.508;MIDI 01
184.303;000.124;63;000.438;MIDI 01
184.507;000.085;80;000.477;MIDI 01
184.608;000.057;82;000.500;MIDI 01
184.498;000.253;60;000.383;MIDI 01
184.701;000.085;84;000.516;MIDI 01
184.495;000.352;56;000.367;MIDI 01
184.770;000.093;82;000.523;MIDI 01
184.844;000.075;80;000.570;MIDI 01
184.928;000.036;79;000.562;MIDI 01
185.004;000.062;77;000.500;MIDI 01
185.102;000.061;75;000.484;MIDI 01
185.189;000.030;73;000.484;MIDI 01
185.161;000.111;61;000.391;MIDI 01
185.270;000.046;72;000.492;MIDI 01
185.174;000.209;58;000.375;MIDI 01
185.169;000.247;55;000.375;MIDI 01
185.361;000.078;70;000.500;MIDI 01
185.441;000.052;68;000.445;MIDI 01
185.150;000.345;51;000.438;MIDI 01
185.522;000.035;67;000.547;MIDI 01
185.611;000.036;65;000.492;MIDI 01
185.700;000.036;63;000.430;MIDI 01
185.781;000.036;61;000.469;MIDI 01
185.869;000.052;60;000.477;MIDI 01
185.945;000.067;61;000.438;MIDI 01
185.870;000.147;44;000.344;MIDI 01
185.876;000.199;56;000.328;MIDI 01
186.045;000.047;63;000.445;MIDI 01
186.125;000.033;61;000.508;MIDI 01
186.220;000.036;60;000.430;MIDI 01
186.310;000.057;72;000.453;MIDI 01
186.402;000.047;70;000.422;MIDI 01
186.383;000.079;56;000.359;MIDI 01
186.501;000.053;68;000.398;MIDI 01
186.589;000.046;67;000.461;MIDI 01
186.675;000.053;68;000.438;MIDI 01
186.595;000.156;61;000.359;MIDI 01
186.597;000.184;58;000.281;MIDI 01
186.757;000.053;70;000.461;MIDI 01
186.840;000.054;68;000.500;MIDI 01
186.942;000.054;67;000.477;MIDI 01
187.044;000.049;77;000.445;MIDI 01
187.117;000.049;75;000.453;MIDI 01
187.125;000.043;55;000.281;MIDI 01
187.115;000.070;58;000.406;MIDI 01
187.202;000.052;73;000.484;MIDI 01
187.305;000.051;72;000.469;MIDI 01
187.318;000.125;60;000.359;MIDI 01
187.385;000.059;73;000.453;MIDI 01
187.344;000.132;56;000.352;MIDI 01
187.484;000.046;75;000.461;MIDI 01
187.568;000.040;73;000.484;MIDI 01
187.669;000.052;72;000.484;MIDI 01
187.770;000.064;84;000.469;MIDI 01
187.858;000.067;82;000.430;MIDI 01
187.873;000.065;56;000.305;MIDI 01
187.855;000.118;60;000.367;MIDI 01
187.953;000.059;80;000.445;MIDI 01
188.041;000.051;79;000.461;MIDI 01
188.140;000.044;80;000.492;MIDI 01
188.039;000.156;61;000.344;MIDI 01
188.031;000.207;58;000.352;MIDI 01
188.235;000.052;82;000.461;MIDI 01
188.309;000.053;80;000.477;MIDI 01
188.414;000.053;79;000.461;MIDI 01
188.531;000.064;89;000.477;MIDI 01
188.593;000.082;58;000.312;MIDI 01
188.602;000.075;87;000.445;MIDI 01
188.710;000.062;85;000.430;MIDI 01
188.817;000.049;84;000.406;MIDI 01
188.900;000.062;85;000.477;MIDI 01
188.772;000.266;56;000.289;MIDI 01
188.976;000.083;87;000.539;MIDI 01
188.766;000.338;60;000.367;MIDI 01
189.058;000.066;85;000.562;MIDI 01
189.169;000.056;84;000.469;MIDI 01
189.241;000.100;82;000.547;MIDI 01
189.300;000.059;61;000.398;MIDI 01
189.330;000.055;80;000.523;MIDI 01
189.303;000.173;58;000.383;MIDI 01
189.410;000.123;79;000.516;MIDI 01
189.533;000.076;80;000.531;MIDI 01
189.523;000.165;60;000.375;MIDI 01
189.616;000.084;82;000.539;MIDI 01
189.521;000.225;63;000.375;MIDI 01
189.710;000.131;84;000.555;MIDI 01
189.792;000.119;82;000.508;MIDI 01
189.883;000.068;80;000.547;MIDI 01
189.957;000.042;79;000.539;MIDI 01
190.056;000.041;77;000.398;MIDI 01
190.086;000.035;59;000.312;MIDI 01
190.089;000.035;68;000.352;MIDI 01
190.152;000.042;75;000.500;MIDI 01
190.269;000.052;74;000.469;MIDI 01
190.334;000.071;75;000.445;MIDI 01
190.422;000.085;77;000.469;MIDI 01
190.239;000.273;68;000.406;MIDI 01
190.511;000.074;75;000.492;MIDI 01
190.271;000.321;58;000.328;MIDI 01
190.608;000.090;74;000.523;MIDI 01
190.720;000.094;80;000.500;MIDI 01
190.787;000.044;59;000.352;MIDI 01
190.811;000.036;68;000.281;MIDI 01
190.818;000.067;77;000.453;MIDI 01
190.904;000.074;75;000.484;MIDI 01
190.990;000.086;74;000.555;MIDI 01
191.093;000.075;75;000.508;MIDI 01
191.180;000.092;77;000.539;MIDI 01
190.978;000.308;68;000.430;MIDI 01
190.988;000.339;58;000.438;MIDI 01
191.259;000.088;75;000.570;MIDI 01
191.355;000.091;74;000.578;MIDI 01
191.441;000.110;80;000.523;MIDI 01
191.519;000.047;59;000.492;MIDI 01
191.541;000.036;68;000.430;MIDI 01
191.527;000.085;77;000.562;MIDI 01
191.617;000.079;75;000.578;MIDI 01
191.704;000.097;74;000.602;MIDI 01
191.817;000.090;77;000.539;MIDI 01
191.910;000.067;75;000.578;MIDI 01
191.998;000.031;79;000.539;MIDI 01
192.074;000.092;77;000.594;MIDI 01
192.174;000.091;80;000.625;MIDI 01
191.714;000.630;68;000.602;MIDI 01
192.276;000.082;79;000.594;MIDI 01
192.354;000.111;82;000.562;MIDI 01
192.430;000.093;80;000.562;MIDI 01
192.519;000.073;79;000.586;MIDI 01
192.622;000.080;77;000.555;MIDI 01
192.708;000.056;75;000.578;MIDI 01
192.443;000.337;62;000.500;MIDI 01
192.792;000.044;74;000.602;MIDI 01
191.723;001.129;58;000.617;MIDI 01
192.877;000.051;72;000.523;MIDI 01
192.975;000.059;70;000.523;MIDI 01
193.046;000.056;68;000.516;MIDI 01
193.148;000.089;67;000.547;MIDI 01
193.160;000.139;63;000.578;MIDI 01
193.242;000.093;70;000.531;MIDI 01
193.173;000.268;58;000.523;MIDI 01
193.339;000.121;72;000.578;MIDI 01
193.180;000.290;55;000.477;MIDI 01
193.166;000.370;51;000.539;MIDI 01
193.428;000.113;70;000.531;MIDI 01
193.514;000.076;68;000.547;MIDI 01
193.581;000.073;67;000.570;MIDI 01
193.679;000.067;65;000.539;MIDI 01
193.774;000.060;63;000.531;MIDI 01
193.865;000.091;62;000.539;MIDI 01
193.886;000.140;56;000.625;MIDI 01
193.944;000.089;63;000.578;MIDI 01
194.044;000.111;65;000.562;MIDI 01
193.884;000.346;46;000.617;MIDI 01
194.149;000.083;63;000.570;MIDI 01
194.238;000.046;62;000.555;MIDI 01
194.320;000.058;60;000.508;MIDI 01
194.411;000.064;58;000.523;MIDI 01
194.512;000.052;56;000.500;MIDI 01
194.596;000.076;55;000.539;MIDI 01
194.675;000.062;56;000.492;MIDI 01
194.602;000.146;51;000.633;MIDI 01
194.598;000.157;39;000.633;MIDI 01
194.773;000.048;58;000.500;MIDI 01
194.846;000.053;56;000.523;MIDI 01
194.934;000.043;55;000.500;MIDI 01
195.044;000.052;67;000.445;MIDI 01
195.156;000.045;65;000.320;MIDI 01
195.178;000.105;51;000.305;MIDI 01
195.240;000.064;63;000.422;MIDI 01
195.356;000.042;62;000.367;MIDI 01
195.431;000.039;63;000.375;MIDI 01
195.494;000.056;65;000.461;MIDI 01
195.365;000.195;53;000.266;MIDI 01
195.586;000.048;63;000.492;MIDI 01
195.371;000.283;56;000.266;MIDI 01
195.680;000.045;62;000.461;MIDI 01
195.777;000.039;72;000.367;MIDI 01
195.852;000.051;70;000.430;MIDI 01
195.849;000.069;53;000.258;MIDI 01
195.873;000.053;50;000.156;MIDI 01
195.964;000.044;68;000.352;MIDI 01
196.036;000.053;67;000.438;MIDI 01
196.130;000.033;68;000.391;MIDI 01
196.022;000.197;51;000.320;MIDI 01
196.039;000.184;55;000.297;MIDI 01
196.199;000.054;70;000.469;MIDI 01
196.266;000.053;68;000.477;MIDI 01
196.360;000.035;67;000.453;MIDI 01
196.465;000.049;79;000.461;MIDI 01
196.534;000.061;77;000.414;MIDI 01
196.533;000.081;63;000.344;MIDI 01
196.624;000.051;75;000.484;MIDI 01
196.710;000.057;74;000.500;MIDI 01
196.797;000.046;75;000.445;MIDI 01
196.721;000.197;65;000.289;MIDI 01
196.883;000.064;77;000.500;MIDI 01
196.742;000.269;68;000.398;MIDI 01
196.969;000.047;75;000.484;MIDI 01
197.060;000.035;74;000.453;MIDI 01
197.155;000.054;84;000.438;MIDI 01
197.256;000.045;80;000.367;MIDI 01
197.321;000.028;77;000.344;MIDI 01
197.514;000.076;79;000.344;MIDI 01
197.629;000.062;75;000.188;MIDI 01
197.650;000.076;74;000.391;MIDI 01
197.773;000.043;75;000.172;MIDI 01
197.835;000.073;79;000.391;MIDI 01
197.953;000.036;75;000.328;MIDI 01
198.098;000.028;75;000.430;MIDI 01
198.191;000.116;80;000.375;MIDI 01
198.262;000.068;75;000.359;MIDI 01
198.377;000.037;72;000.305;MIDI 01
198.445;000.039;75;000.375;MIDI 01
198.543;000.104;80;000.430;MIDI 01
198.632;000.057;75;000.359;MIDI 01
198.714;000.059;72;000.375;MIDI 01
198.823;000.025;75;000.344;MIDI 01
198.903;000.121;82;000.406;MIDI 01
198.976;000.067;75;000.391;MIDI 01
199.075;000.059;67;000.281;MIDI 01
199.167;000.040;75;000.297;MIDI 01
199.256;000.126;82;000.367;MIDI 01
199.340;000.050;75;000.406;MIDI 01
199.431;000.052;67;000.352;MIDI 01
199.507;000.041;75;000.305;MIDI 01
199.597;000.109;84;000.461;MIDI 01
199.680;000.043;75;000.391;MIDI 01
199.761;000.058;68;000.375;MIDI 01
199.852;000.039;75;000.328;MIDI 01
199.950;000.131;82;000.398;MIDI 01
200.033;000.050;75;000.344;MIDI 01
200.129;000.051;66;000.344;MIDI 01
200.301;000.122;81;000.391;MIDI 01
200.427;000.030;75;000.242;MIDI 01
200.484;000.035;65;000.289;MIDI 01
200.575;000.029;75;000.305;MIDI 01
200.667;000.126;82;000.375;MIDI 01
200.734;000.062;75;000.375;MIDI 01
200.853;000.041;66;000.320;MIDI 01
200.930;000.026;75;000.391;MIDI 01
201.009;000.082;81;000.461;MIDI 01
201.101;000.055;75;000.352;MIDI 01
201.203;000.030;65;000.320;MIDI 01
201.289;000.030;75;000.320;MIDI 01
201.355;000.100;84;000.500;MIDI 01
201.442;000.050;75;000.422;MIDI 01
201.535;000.045;69;000.266;MIDI 01
201.600;000.030;75;000.422;MIDI 01
201.685;000.107;77;000.445;MIDI 01
201.787;000.032;74;000.422;MIDI 01
201.876;000.048;70;000.391;MIDI 01
201.938;000.031;74;000.492;MIDI 01
202.035;000.117;79;000.477;MIDI 01
202.143;000.020;75;000.414;MIDI 01
202.192;000.048;70;000.500;MIDI 01
202.267;000.042;75;000.531;MIDI 01
202.372;000.080;80;000.547;MIDI 01
202.452;000.033;77;000.406;MIDI 01
202.520;000.059;70;000.523;MIDI 01
202.618;000.135;77;000.469;MIDI 01
202.799;000.019;74;000.492;MIDI 01
202.892;000.031;70;000.430;MIDI 01
202.949;000.031;74;000.484;MIDI 01
203.078;000.160;79;000.414;MIDI 01
203.188;000.058;70;000.297;MIDI 01
203.289;000.037;63;000.250;MIDI 01
203.382;000.031;70;000.344;MIDI 01
203.562;000.040;68;000.344;MIDI 01
203.458;000.177;77;000.438;MIDI 01
203.630;000.045;63;000.375;MIDI 01
203.713;000.029;68;000.406;MIDI 01
203.886;000.046;67;000.453;MIDI 01
203.799;000.165;75;000.445;MIDI 01
203.958;000.049;63;000.453;MIDI 01
204.044;000.022;67;000.453;MIDI 01
204.135;000.123;79;000.539;MIDI 01
204.234;000.046;70;000.508;MIDI 01
204.298;000.074;63;000.484;MIDI 01
204.391;000.029;70;000.531;MIDI 01
204.566;000.075;72;000.469;MIDI 01
204.485;000.165;80;000.602;MIDI 01
204.678;000.029;63;000.320;MIDI 01
204.725;000.037;72;000.531;MIDI 01
204.838;000.132;79;000.469;MIDI 01
204.945;000.054;70;000.445;MIDI 01
205.017;000.059;63;000.391;MIDI 01
205.117;000.036;70;000.430;MIDI 01
205.202;000.138;77;000.430;MIDI 01
205.307;000.033;68;000.383;MIDI 01
205.363;000.052;63;000.422;MIDI 01
205.478;000.025;68;000.328;MIDI 01
205.666;000.061;72;000.461;MIDI 01
205.554;000.186;80;000.586;MIDI 01
205.727;000.036;63;000.398;MIDI 01
205.795;000.045;72;000.570;MIDI 01
205.903;000.158;79;000.578;MIDI 01
206.020;000.043;70;000.492;MIDI 01
206.067;000.077;63;000.508;MIDI 01
206.168;000.032;70;000.477;MIDI 01
206.278;000.140;77;000.492;MIDI 01
206.384;000.041;68;000.430;MIDI 01
206.434;000.051;63;000.398;MIDI 01
206.566;000.065;68;000.062;MIDI 01
206.615;000.094;75;000.461;MIDI 01
206.705;000.036;67;000.375;MIDI 01
206.773;000.077;63;000.438;MIDI 01
206.866;000.051;67;000.477;MIDI 01
206.972;000.119;82;000.594;MIDI 01
207.072;000.028;79;000.477;MIDI 01
207.159;000.056;75;000.461;MIDI 01
207.222;000.040;79;000.461;MIDI 01
207.336;000.122;82;000.641;MIDI 01
207.430;000.036;77;000.516;MIDI 01
207.524;000.049;74;000.461;MIDI 01
207.585;000.043;77;000.438;MIDI 01
207.698;000.119;82;000.617;MIDI 01
207.779;000.042;75;000.508;MIDI 01
207.865;000.082;72;000.500;MIDI 01
207.958;000.039;75;000.438;MIDI 01
208.071;000.119;82;000.617;MIDI 01
208.161;000.043;74;000.508;MIDI 01
208.232;000.094;70;000.477;MIDI 01
208.330;000.056;74;000.430;MIDI 01
208.459;000.098;82;000.391;MIDI 01
208.557;000.028;79;000.320;MIDI 01
208.635;000.056;75;000.312;MIDI 01
208.705;000.030;79;000.461;MIDI 01
208.810;000.121;82;000.430;MIDI 01
208.896;000.042;77;000.461;MIDI 01
208.973;000.050;74;000.500;MIDI 01
209.043;000.045;77;000.453;MIDI 01
209.142;000.115;82;000.500;MIDI 01
209.224;000.034;75;000.445;MIDI 01
209.309;000.050;72;000.484;MIDI 01
209.377;000.036;75;000.461;MIDI 01
209.492;000.119;82;000.477;MIDI 01
209.594;000.023;74;000.383;MIDI 01
209.734;000.031;74;000.445;MIDI 01
209.637;000.130;70;000.406;MIDI 01
209.908;000.071;74;000.359;MIDI 01
209.834;000.149;82;000.414;MIDI 01
209.997;000.127;68;000.414;MIDI 01
210.106;000.052;74;000.414;MIDI 01
210.188;000.129;83;000.430;MIDI 01
210.285;000.048;74;000.453;MIDI 01
210.373;000.074;67;000.453;MIDI 01
210.459;000.055;74;000.461;MIDI 01
210.532;000.106;83;000.555;MIDI 01
210.619;000.042;74;000.531;MIDI 01
210.699;000.068;67;000.547;MIDI 01
210.774;000.045;74;000.375;MIDI 01
210.967;000.061;75;000.469;MIDI 01
210.871;000.171;84;000.602;MIDI 01
211.027;000.082;66;000.469;MIDI 01
211.169;000.030;75;000.430;MIDI 01
211.228;000.132;84;000.445;MIDI 01
211.328;000.052;75;000.430;MIDI 01
211.417;000.048;66;000.336;MIDI 01
211.498;000.031;75;000.367;MIDI 01
211.599;000.125;83;000.445;MIDI 01
211.684;000.051;74;000.391;MIDI 01
211.842;000.036;74;000.484;MIDI 01
211.928;000.125;83;000.539;MIDI 01
212.027;000.043;74;000.438;MIDI 01
212.091;000.059;67;000.477;MIDI 01
212.185;000.029;74;000.516;MIDI 01
212.393;000.028;75;000.492;MIDI 01
212.297;000.134;84;000.594;MIDI 01
212.453;000.061;66;000.492;MIDI 01
212.551;000.039;75;000.469;MIDI 01
212.636;000.134;84;000.617;MIDI 01
212.727;000.047;75;000.508;MIDI 01
212.812;000.052;66;000.461;MIDI 01
212.892;000.014;75;000.445;MIDI 01
213.021;000.048;83;000.500;MIDI 01
213.048;000.047;84;000.164;MIDI 01
213.101;000.028;71;000.508;MIDI 01
213.184;000.035;67;000.461;MIDI 01
213.268;000.031;55;000.477;MIDI 01
213.363;000.067;79;000.570;MIDI 01
213.467;000.025;67;000.555;MIDI 01
213.517;000.082;62;000.570;MIDI 01
213.615;000.030;50;000.570;MIDI 01
213.702;000.071;74;000.688;MIDI 01
213.785;000.035;62;000.617;MIDI 01
213.850;000.069;59;000.625;MIDI 01
213.953;000.037;47;000.594;MIDI 01
214.058;000.053;71;000.672;MIDI 01
214.127;000.037;59;000.633;MIDI 01
214.204;000.108;55;000.625;MIDI 01
214.294;003.055;43;000.570;MIDI 01
214.685;002.714;31;000.617;MIDI 01
218.196;000.035;67;000.391;MIDI 01
218.376;000.051;67;000.328;MIDI 01
218.569;000.039;67;000.266;MIDI 01
218.752;000.056;67;000.172;MIDI 01
218.895;000.033;68;000.531;MIDI 01
218.902;000.031;67;000.461;MIDI 01
219.067;000.040;67;000.367;MIDI 01
219.056;000.057;68;000.375;MIDI 01
219.247;000.041;68;000.438;MIDI 01
219.245;000.045;67;000.422;MIDI 01
219.416;000.054;67;000.438;MIDI 01
219.420;000.052;68;000.414;MIDI 01
219.583;000.034;53;000.594;MIDI 01
219.586;000.045;68;000.547;MIDI 01
219.603;000.030;65;000.508;MIDI 01
219.766;000.050;68;000.492;MIDI 01
219.764;000.054;65;000.383;MIDI 01
219.784;000.120;63;000.430;MIDI 01
219.966;000.033;68;000.383;MIDI 01
219.960;000.041;65;000.391;MIDI 01
219.958;000.112;62;000.422;MIDI 01
220.141;000.043;65;000.336;MIDI 01
220.126;000.059;68;000.438;MIDI 01
220.136;000.130;61;000.328;MIDI 01
220.305;000.059;68;000.406;MIDI 01
220.333;000.046;65;000.203;MIDI 01
220.325;000.143;60;000.289;MIDI 01
220.533;000.169;65;000.250;MIDI 01
220.531;000.346;67;000.281;MIDI 01
220.527;000.473;59;000.242;MIDI 01
221.122;000.039;72;000.570;MIDI 01
221.292;000.055;72;000.305;MIDI 01
221.484;000.042;72;000.438;MIDI 01
221.662;000.045;72;000.445;MIDI 01
221.824;000.032;72;000.570;MIDI 01
221.821;000.052;73;000.617;MIDI 01
222.008;000.048;72;000.312;MIDI 01
222.004;000.054;73;000.539;MIDI 01
222.181;000.046;72;000.484;MIDI 01
222.183;000.049;73;000.445;MIDI 01
222.353;000.043;73;000.469;MIDI 01
222.350;000.052;72;000.461;MIDI 01
222.514;000.054;73;000.594;MIDI 01
222.542;000.037;51;000.547;MIDI 01
222.540;000.040;70;000.523;MIDI 01
222.716;000.034;73;000.539;MIDI 01
222.718;000.040;70;000.414;MIDI 01
222.713;000.103;52;000.531;MIDI 01
222.880;000.050;70;000.477;MIDI 01
222.874;000.058;73;000.414;MIDI 01
222.886;000.183;53;000.445;MIDI 01
223.061;000.040;73;000.516;MIDI 01
223.070;000.039;70;000.406;MIDI 01
223.075;000.126;54;000.406;MIDI 01
223.234;000.051;70;000.414;MIDI 01
223.220;000.068;73;000.469;MIDI 01
223.252;000.130;55;000.391;MIDI 01
223.440;000.043;68;000.406;MIDI 01
223.438;000.054;72;000.406;MIDI 01
223.621;000.035;68;000.344;MIDI 01
223.614;000.046;72;000.469;MIDI 01
223.435;000.259;56;000.352;MIDI 01
223.795;000.026;68;000.375;MIDI 01
223.804;000.032;72;000.336;MIDI 01
223.985;000.075;56;000.445;MIDI 01
223.978;000.095;63;000.477;MIDI 01
224.007;000.074;75;000.461;MIDI 01
223.988;000.103;60;000.422;MIDI 01
223.998;000.101;80;000.523;MIDI 01
223.982;000.119;84;000.500;MIDI 01
224.174;000.050;63;000.547;MIDI 01
224.162;000.068;75;000.633;MIDI 01
224.176;000.056;56;000.531;MIDI 01
224.170;000.067;84;000.539;MIDI 01
224.172;000.083;60;000.484;MIDI 01
224.165;000.093;80;000.562;MIDI 01
224.336;000.046;63;000.594;MIDI 01
224.329;000.055;75;000.664;MIDI 01
224.334;000.054;56;000.516;MIDI 01
224.332;000.069;84;000.555;MIDI 01
224.327;000.085;60;000.531;MIDI 01
224.339;000.078;80;000.562;MIDI 01
224.519;000.026;63;000.594;MIDI 01
224.512;000.042;75;000.664;MIDI 01
224.521;000.036;56;000.531;MIDI 01
224.515;000.060;84;000.617;MIDI 01
224.509;000.075;60;000.539;MIDI 01
224.517;000.070;80;000.570;MIDI 01
224.689;000.046;63;000.508;MIDI 01
224.681;000.054;75;000.656;MIDI 01
224.683;000.062;56;000.508;MIDI 01
224.677;000.071;84;000.617;MIDI 01
224.691;000.069;80;000.555;MIDI 01
224.693;000.084;60;000.570;MIDI 01
224.883;000.119;63;000.625;MIDI 01
224.880;000.124;73;000.711;MIDI 01
224.876;000.183;79;000.656;MIDI 01
224.871;000.317;58;000.656;MIDI 01
225.280;000.035;80;000.484;MIDI 01
225.287;000.030;72;000.336;MIDI 01
225.294;000.097;63;000.359;MIDI 01
225.282;000.174;60;000.406;MIDI 01
225.476;000.045;87;000.453;MIDI 01
225.474;000.051;84;000.453;MIDI 01
225.649;000.042;84;000.484;MIDI 01
225.651;000.042;87;000.461;MIDI 01
225.830;000.045;87;000.477;MIDI 01
225.832;000.046;84;000.516;MIDI 01
226.032;000.033;87;000.469;MIDI 01
226.029;000.042;84;000.445;MIDI 01
226.197;000.051;87;000.508;MIDI 01
226.245;000.071;84;000.055;MIDI 01
226.389;000.166;82;000.555;MIDI 01
226.407;000.227;75;000.445;MIDI 01
226.783;000.033;80;000.352;MIDI 01
226.785;000.037;84;000.320;MIDI 01
226.762;000.132;68;000.344;MIDI 01
226.930;000.046;80;000.445;MIDI 01
226.925;000.053;84;000.508;MIDI 01
227.116;000.046;84;000.523;MIDI 01
227.123;000.041;80;000.453;MIDI 01
227.305;000.030;80;000.453;MIDI 01
227.292;000.046;84;000.422;MIDI 01
227.493;000.032;84;000.383;MIDI 01
227.489;000.044;80;000.430;MIDI 01
227.648;000.059;84;000.469;MIDI 01
227.686;000.030;80;000.305;MIDI 01
227.899;000.089;76;000.359;MIDI 01
227.867;000.322;79;000.422;MIDI 01
227.897;000.478;72;000.289;MIDI 01
228.488;000.238;77;000.219;MIDI 01
228.465;000.299;80;000.266;MIDI 01
228.486;000.282;65;000.234;MIDI 01
230.061;000.024;77;000.367;MIDI 01
230.081;000.034;80;000.281;MIDI 01
230.064;000.057;65;000.359;MIDI 01
230.221;000.054;77;000.422;MIDI 01
230.221;000.055;80;000.445;MIDI 01
230.245;000.118;64;000.359;MIDI 01
230.420;000.020;77;000.406;MIDI 01
230.397;000.057;80;000.500;MIDI 01
230.412;000.107;63;000.406;MIDI 01
230.579;000.039;77;000.414;MIDI 01
230.577;000.051;80;000.547;MIDI 01
230.585;000.168;62;000.445;MIDI 01
230.741;000.042;77;000.477;MIDI 01
230.739;000.052;80;000.508;MIDI 01
230.757;000.188;61;000.484;MIDI 01
230.942;000.145;60;000.500;MIDI 01
230.936;000.217;77;000.438;MIDI 01
230.933;000.222;80;000.477;MIDI 01
231.101;000.114;59;000.508;MIDI 01
231.271;000.026;79;000.430;MIDI 01
231.289;000.026;76;000.406;MIDI 01
231.278;000.043;60;000.430;MIDI 01
231.476;000.032;75;000.391;MIDI 01
231.474;000.043;78;000.344;MIDI 01
231.479;000.088;63;000.375;MIDI 01
231.640;000.048;75;000.391;MIDI 01
231.634;000.055;78;000.438;MIDI 01
231.675;000.119;62;000.359;MIDI 01
231.816;000.045;75;000.438;MIDI 01
231.815;000.049;78;000.445;MIDI 01
231.827;000.110;61;000.430;MIDI 01
231.999;000.030;75;000.445;MIDI 01
231.996;000.041;78;000.453;MIDI 01
232.009;000.097;60;000.445;MIDI 01
232.174;000.047;75;000.469;MIDI 01
232.176;000.053;78;000.453;MIDI 01
232.178;000.104;59;000.414;MIDI 01
232.368;000.122;58;000.430;MIDI 01
232.358;000.215;78;000.469;MIDI 01
232.370;000.211;75;000.445;MIDI 01
232.541;000.142;57;000.398;MIDI 01
232.728;000.017;77;000.430;MIDI 01
232.721;000.031;58;000.359;MIDI 01
232.736;000.044;74;000.320;MIDI 01
232.915;000.028;73;000.492;MIDI 01
232.901;000.045;82;000.492;MIDI 01
232.951;000.052;70;000.188;MIDI 01
233.098;000.045;73;000.359;MIDI 01
233.113;000.034;70;000.406;MIDI 01
233.264;000.047;73;000.492;MIDI 01
233.260;000.060;70;000.492;MIDI 01
233.447;000.037;73;000.484;MIDI 01
233.459;000.032;70;000.531;MIDI 01
233.258;000.235;80;000.625;MIDI 01
233.080;000.416;81;000.531;MIDI 01
233.440;000.208;79;000.602;MIDI 01
233.616;000.040;73;000.477;MIDI 01
233.606;000.060;70;000.484;MIDI 01
233.621;000.282;78;000.578;MIDI 01
233.807;000.136;73;000.453;MIDI 01
233.817;000.128;77;000.500;MIDI 01
233.986;000.091;76;000.469;MIDI 01
233.822;000.277;70;000.477;MIDI 01
234.179;000.034;72;000.297;MIDI 01
234.171;000.047;77;000.438;MIDI 01
234.181;000.039;69;000.398;MIDI 01
234.339;000.044;80;000.453;MIDI 01
234.346;000.043;68;000.430;MIDI 01
234.355;000.035;71;000.391;MIDI 01
234.519;000.031;71;000.375;MIDI 01
234.521;000.046;68;000.414;MIDI 01
234.530;000.164;79;000.484;MIDI 01
234.692;000.033;71;000.375;MIDI 01
234.694;000.047;68;000.398;MIDI 01
234.699;000.153;78;000.492;MIDI 01
234.871;000.034;71;000.336;MIDI 01
234.881;000.036;68;000.375;MIDI 01
234.886;000.105;77;000.461;MIDI 01
235.053;000.046;71;000.391;MIDI 01
235.050;000.054;68;000.398;MIDI 01
235.054;000.120;76;000.453;MIDI 01
235.260;000.147;75;000.445;MIDI 01
235.254;000.349;68;000.328;MIDI 01
235.258;000.366;71;000.320;MIDI 01
235.468;000.192;74;000.375;MIDI 01
235.731;000.100;75;000.297;MIDI 01
235.721;000.321;67;000.164;MIDI 01
235.736;000.324;70;000.203;MIDI 01
236.151;000.289;87;000.609;MIDI 01
236.520;000.320;86;000.625;MIDI 01
236.785;000.220;85;000.727;MIDI 01
237.044;000.284;84;000.680;MIDI 01
237.350;000.213;83;000.672;MIDI 01
237.979;000.382;60;000.320;MIDI 01
237.960;000.566;63;000.398;MIDI 01
237.938;001.035;82;000.688;MIDI 01
240.091;000.150;72;000.469;MIDI 01
239.605;000.636;60;000.391;MIDI 01
240.141;000.132;75;000.539;MIDI 01
240.196;000.118;77;000.547;MIDI 01
239.859;000.485;63;000.430;MIDI 01
239.976;000.375;65;000.477;MIDI 01
240.037;000.546;69;000.477;MIDI 01
240.285;000.365;81;000.617;MIDI 01
243.335;000.205;80;000.305;MIDI 01
243.647;000.194;79;000.430;MIDI 01
243.920;000.122;78;000.539;MIDI 01
244.129;000.110;77;000.531;MIDI 01
244.350;000.219;76;000.445;MIDI 01
244.860;001.751;75;000.445;MIDI 01
246.662;000.381;74;000.266;MIDI 01
244.893;002.451;58;000.211;MIDI 01
244.890;002.484;65;000.266;MIDI 01
244.878;002.519;68;000.227;MIDI 01
247.548;000.404;84;000.570;MIDI 01
248.116;000.267;83;000.578;MIDI 01
248.495;000.227;82;000.602;MIDI 01
248.792;000.166;81;000.664;MIDI 01
249.074;000.169;80;000.672;MIDI 01
249.351;000.161;79;000.641;MIDI 01
249.693;000.172;78;000.672;MIDI 01
250.089;000.222;77;000.664;MIDI 01
250.610;000.183;76;000.688;MIDI 01
251.637;002.799;75;000.641;MIDI 01
254.223;000.580;74;000.430;MIDI 01
254.730;000.247;75;000.461;MIDI 01
255.016;000.213;77;000.398;MIDI 01
255.226;000.160;75;000.344;MIDI 01
255.416;000.211;74;000.406;MIDI 01
255.683;000.402;77;000.344;MIDI 01
256.115;000.475;75;000.289;MIDI 01
256.622;000.672;74;000.281;MIDI 01
257.863;000.114;74;000.297;MIDI 01
251.659;009.059;58;000.312;MIDI 01
251.645;009.085;68;000.375;MIDI 01
251.652;009.146;65;000.359;MIDI 01
261.777;000.036;67;000.344;MIDI 01
261.949;000.045;67;000.359;MIDI 01
262.115;000.040;67;000.383;MIDI 01
262.276;000.043;67;000.398;MIDI 01
262.451;000.044;67;000.422;MIDI 01
262.814;000.040;51;000.367;MIDI 01
262.624;000.249;67;000.430;MIDI 01
262.964;000.066;70;000.383;MIDI 01
262.991;000.042;51;000.328;MIDI 01
263.151;000.035;51;000.367;MIDI 01
263.131;000.106;63;000.422;MIDI 01
263.317;000.047;51;000.367;MIDI 01
263.314;000.083;62;000.398;MIDI 01
263.501;000.036;51;000.297;MIDI 01
263.472;000.125;65;000.438;MIDI 01
263.668;000.032;51;000.336;MIDI 01
263.642;000.114;68;000.453;MIDI 01
262.644;001.182;39;000.320;MIDI 01
263.820;000.047;51;000.406;MIDI 01
263.808;000.105;62;000.438;MIDI 01
263.977;000.132;63;000.430;MIDI 01
264.143;000.042;51;000.336;MIDI 01
264.145;000.064;67;000.406;MIDI 01
264.300;000.045;51;000.438;MIDI 01
264.322;000.042;58;000.438;MIDI 01
264.476;000.048;51;000.391;MIDI 01
264.472;000.074;58;000.484;MIDI 01
264.651;000.040;51;000.422;MIDI 01
264.661;000.075;56;000.438;MIDI 01
264.816;000.034;51;000.453;MIDI 01
264.828;000.066;62;000.438;MIDI 01
264.985;000.042;51;000.398;MIDI 01
264.988;000.077;65;000.391;MIDI 01
263.981;001.149;39;000.414;MIDI 01
265.137;000.044;51;000.438;MIDI 01
265.154;000.058;62;000.453;MIDI 01
265.317;000.090;63;000.422;MIDI 01
265.492;000.053;51;000.273;MIDI 01
265.474;000.073;67;000.398;MIDI 01
265.653;000.029;51;000.414;MIDI 01
265.655;000.034;58;000.375;MIDI 01
265.797;000.046;51;000.445;MIDI 01
265.806;000.065;58;000.484;MIDI 01
265.973;000.036;51;000.422;MIDI 01
265.983;000.073;56;000.430;MIDI 01
266.124;000.045;51;000.469;MIDI 01
266.149;000.070;62;000.438;MIDI 01
266.316;000.032;51;000.336;MIDI 01
265.297;001.121;39;000.375;MIDI 01
266.314;000.129;65;000.469;MIDI 01
266.461;000.045;51;000.453;MIDI 01
266.484;000.094;62;000.438;MIDI 01
266.667;000.550;63;000.344;MIDI 01
266.676;000.640;39;000.219;MIDI 01
268.003;000.042;68;000.328;MIDI 01
268.159;000.050;68;000.430;MIDI 01
268.335;000.039;68;000.430;MIDI 01
268.502;000.050;68;000.438;MIDI 01
268.667;000.052;68;000.477;MIDI 01
268.831;000.074;70;000.445;MIDI 01
268.919;000.060;68;000.406;MIDI 01
268.978;000.043;53;000.391;MIDI 01
268.994;000.093;67;000.477;MIDI 01
269.082;000.061;68;000.477;MIDI 01
269.148;000.025;53;000.422;MIDI 01
269.143;000.083;72;000.500;MIDI 01
269.301;000.038;65;000.531;MIDI 01
268.815;000.557;41;000.406;MIDI 01
269.298;000.076;53;000.469;MIDI 01
269.458;000.231;64;000.562;MIDI 01
269.648;000.046;55;000.422;MIDI 01
269.650;000.118;67;000.422;MIDI 01
269.808;000.052;55;000.484;MIDI 01
269.469;000.401;61;000.539;MIDI 01
269.806;000.069;70;000.438;MIDI 01
269.477;000.545;41;000.438;MIDI 01
269.981;000.054;55;000.461;MIDI 01
269.983;000.069;64;000.445;MIDI 01
270.155;000.079;41;000.320;MIDI 01
270.164;000.179;60;000.391;MIDI 01
270.159;000.199;65;000.438;MIDI 01
270.330;000.051;56;000.523;MIDI 01
270.311;000.137;68;000.453;MIDI 01
270.504;000.026;60;000.547;MIDI 01
270.509;000.032;56;000.469;MIDI 01
270.642;000.047;60;000.508;MIDI 01
270.652;000.044;56;000.469;MIDI 01
270.848;000.067;41;000.445;MIDI 01
271.014;000.047;55;000.422;MIDI 01
270.815;000.294;64;000.547;MIDI 01
271.005;000.152;67;000.508;MIDI 01
271.189;000.045;55;000.461;MIDI 01
270.821;000.421;61;000.578;MIDI 01
271.185;000.068;70;000.469;MIDI 01
271.331;000.054;55;000.469;MIDI 01
271.365;000.056;64;000.430;MIDI 01
271.538;000.040;41;000.367;MIDI 01
271.543;000.145;65;000.336;MIDI 01
271.698;000.047;56;000.469;MIDI 01
271.540;000.217;60;000.352;MIDI 01
271.709;000.077;68;000.398;MIDI 01
271.878;000.035;56;000.406;MIDI 01
271.903;000.038;60;000.438;MIDI 01
272.030;000.043;56;000.453;MIDI 01
272.052;000.034;60;000.430;MIDI 01
272.258;000.075;41;000.258;MIDI 01
272.253;000.210;64;000.289;MIDI 01
272.450;000.047;55;000.312;MIDI 01
272.402;000.162;67;000.375;MIDI 01
272.251;000.376;61;000.383;MIDI 01
272.635;000.050;55;000.359;MIDI 01
272.597;000.132;70;000.375;MIDI 01
272.772;000.044;64;000.430;MIDI 01
272.815;000.151;55;000.352;MIDI 01
273.116;000.332;60;000.219;MIDI 01
273.106;000.357;65;000.273;MIDI 01
273.150;000.330;41;000.195;MIDI 01
273.148;000.336;56;000.125;MIDI 01
274.622;000.033;46;000.578;MIDI 01
274.624;000.043;34;000.602;MIDI 01
274.785;000.045;46;000.555;MIDI 01
274.779;000.058;34;000.594;MIDI 01
274.945;000.044;46;000.641;MIDI 01
274.949;000.050;34;000.656;MIDI 01
275.110;000.049;46;000.578;MIDI 01
275.117;000.053;34;000.641;MIDI 01
275.304;000.034;46;000.648;MIDI 01
275.306;000.043;34;000.633;MIDI 01
275.286;000.143;84;000.547;MIDI 01
275.445;000.034;34;000.625;MIDI 01
275.441;000.056;46;000.609;MIDI 01
275.377;000.122;82;000.555;MIDI 01
275.449;000.083;80;000.539;MIDI 01
275.523;000.045;79;000.578;MIDI 01
275.602;000.081;77;000.539;MIDI 01
275.698;000.069;75;000.547;MIDI 01
275.805;000.099;53;000.477;MIDI 01
275.790;000.122;74;000.562;MIDI 01
275.899;000.038;75;000.445;MIDI 01
275.968;000.084;77;000.523;MIDI 01
275.999;000.136;44;000.453;MIDI 01
276.076;000.079;74;000.484;MIDI 01
276.164;000.069;75;000.500;MIDI 01
276.161;000.119;43;000.484;MIDI 01
276.240;000.139;79;000.523;MIDI 01
276.365;000.055;77;000.406;MIDI 01
276.403;000.076;75;000.508;MIDI 01
276.328;000.155;46;000.375;MIDI 01
276.499;000.021;74;000.453;MIDI 01
276.519;000.094;51;000.477;MIDI 01
276.589;000.044;72;000.492;MIDI 01
276.663;000.061;70;000.523;MIDI 01
276.761;000.037;75;000.469;MIDI 01
276.673;000.211;43;000.477;MIDI 01
276.851;000.082;74;000.516;MIDI 01
276.849;000.149;44;000.594;MIDI 01
276.938;000.085;75;000.469;MIDI 01
277.023;000.104;77;000.539;MIDI 01
277.023;000.139;50;000.578;MIDI 01
277.100;000.124;79;000.516;MIDI 01
277.186;000.100;80;000.469;MIDI 01
277.215;000.087;53;000.570;MIDI 01
277.271;000.048;77;000.531;MIDI 01
277.355;000.040;75;000.461;MIDI 01
277.443;000.072;74;000.438;MIDI 01
277.379;000.146;44;000.477;MIDI 01
277.557;000.050;75;000.391;MIDI 01
277.558;000.159;43;000.430;MIDI 01
277.648;000.119;79;000.492;MIDI 01
277.738;000.080;77;000.508;MIDI 01
277.814;000.072;75;000.508;MIDI 01
277.756;000.133;46;000.445;MIDI 01
277.897;000.027;74;000.477;MIDI 01
277.979;000.051;72;000.484;MIDI 01
277.930;000.104;51;000.477;MIDI 01
278.069;000.060;70;000.516;MIDI 01
278.168;000.032;75;000.477;MIDI 01
278.074;000.199;43;000.500;MIDI 01
278.250;000.070;74;000.492;MIDI 01
278.244;000.131;44;000.531;MIDI 01
278.324;000.120;75;000.523;MIDI 01
278.420;000.096;77;000.531;MIDI 01
278.394;000.151;50;000.508;MIDI 01
278.507;000.103;79;000.508;MIDI 01
278.567;000.093;80;000.539;MIDI 01
278.657;000.044;77;000.539;MIDI 01
278.579;000.126;53;000.570;MIDI 01
278.731;000.039;75;000.492;MIDI 01
278.814;000.061;74;000.508;MIDI 01
278.747;000.130;44;000.539;MIDI 01
278.925;000.043;75;000.445;MIDI 01
279.025;000.050;77;000.500;MIDI 01
278.902;000.216;43;000.492;MIDI 01
279.101;000.102;79;000.555;MIDI 01
279.193;000.060;77;000.469;MIDI 01
279.095;000.214;46;000.461;MIDI 01
279.251;000.059;75;000.523;MIDI 01
279.344;000.026;74;000.492;MIDI 01
279.261;000.190;51;000.461;MIDI 01
279.427;000.040;72;000.516;MIDI 01
279.507;000.029;70;000.461;MIDI 01
279.425;000.159;55;000.422;MIDI 01
279.579;000.036;72;000.594;MIDI 01
279.673;000.066;75;000.539;MIDI 01
279.577;000.178;44;000.516;MIDI 01
279.753;000.093;77;000.602;MIDI 01
279.844;000.069;75;000.570;MIDI 01
279.747;000.196;48;000.492;MIDI 01
279.930;000.033;74;000.562;MIDI 01
279.928;000.137;53;000.367;MIDI 01
279.999;000.070;72;000.523;MIDI 01
280.100;000.032;56;000.453;MIDI 01
280.079;000.085;70;000.586;MIDI 01
280.181;000.060;68;000.539;MIDI 01
280.265;000.037;58;000.594;MIDI 01
280.262;000.053;67;000.578;MIDI 01
280.356;000.051;70;000.500;MIDI 01
280.431;000.045;58;000.477;MIDI 01
280.460;000.045;67;000.461;MIDI 01
280.542;000.036;70;000.445;MIDI 01
280.611;000.031;58;000.461;MIDI 01
280.625;000.033;65;000.461;MIDI 01
280.707;000.057;68;000.445;MIDI 01
280.768;000.054;58;000.477;MIDI 01
280.796;000.050;65;000.430;MIDI 01
280.865;000.064;68;000.492;MIDI 01
280.951;000.046;46;000.609;MIDI 01
280.974;000.030;63;000.500;MIDI 01
281.054;000.052;67;000.477;MIDI 01
281.127;000.044;46;000.531;MIDI 01
281.125;000.076;63;000.477;MIDI 01
281.239;000.036;67;000.477;MIDI 01
281.307;000.042;46;000.484;MIDI 01
281.316;000.042;62;000.508;MIDI 01
281.408;000.050;65;000.469;MIDI 01
281.465;000.085;62;000.508;MIDI 01
281.462;000.122;46;000.508;MIDI 01
281.568;000.062;65;000.359;MIDI 01
281.658;000.050;63;000.469;MIDI 01
281.674;000.119;51;000.359;MIDI 01
281.741;000.058;58;000.477;MIDI 01
281.827;000.068;63;000.523;MIDI 01
281.848;000.080;55;000.320;MIDI 01
281.918;000.058;58;000.523;MIDI 01
282.001;000.056;63;000.547;MIDI 01
281.998;000.076;51;000.398;MIDI 01
282.083;000.058;58;000.539;MIDI 01
282.163;000.040;63;000.539;MIDI 01
282.146;000.067;55;000.422;MIDI 01
282.244;000.039;58;000.562;MIDI 01
282.361;000.230;63;000.398;MIDI 01
282.382;000.309;51;000.352;MIDI 01
283.342;000.046;79;000.297;MIDI 01
283.504;000.152;80;000.430;MIDI 01
283.689;000.204;81;000.500;MIDI 01
283.870;000.098;82;000.578;MIDI 01
284.030;000.079;83;000.602;MIDI 01
284.443;000.092;79;000.438;MIDI 01
284.231;000.331;84;000.586;MIDI 01
284.435;000.155;67;000.383;MIDI 01
284.248;000.355;63;000.320;MIDI 01
284.607;000.170;63;000.148;MIDI 01
284.626;000.182;72;000.445;MIDI 01
284.793;000.033;79;000.609;MIDI 01
284.791;000.143;67;000.398;MIDI 01
285.170;000.126;77;000.578;MIDI 01
285.174;000.149;67;000.430;MIDI 01
284.986;000.388;79;000.539;MIDI 01
285.002;000.476;62;000.383;MIDI 01
285.359;000.121;80;000.562;MIDI 01
285.373;000.139;71;000.453;MIDI 01
285.535;000.051;77;000.547;MIDI 01
285.529;000.141;67;000.453;MIDI 01
285.716;000.156;77;000.547;MIDI 01
285.904;000.057;75;000.445;MIDI 01
285.925;000.111;63;000.406;MIDI 01
285.734;000.408;60;000.398;MIDI 01
286.111;000.172;67;000.367;MIDI 01
286.282;000.033;75;000.375;MIDI 01
286.292;000.207;63;000.273;MIDI 01
286.532;000.213;76;000.344;MIDI 01
286.729;000.123;77;000.398;MIDI 01
286.747;000.121;61;000.344;MIDI 01
286.544;000.364;58;000.305;MIDI 01
286.929;000.110;67;000.344;MIDI 01
286.917;000.172;78;000.406;MIDI 01
287.099;000.145;79;000.445;MIDI 01
287.094;000.157;61;000.375;MIDI 01
287.293;000.220;80;000.422;MIDI 01
287.476;000.070;75;000.344;MIDI 01
287.317;000.271;56;000.258;MIDI 01
287.481;000.218;60;000.305;MIDI 01
287.825;000.040;75;000.453;MIDI 01
287.821;000.054;56;000.312;MIDI 01
287.669;000.308;63;000.367;MIDI 01
288.007;000.139;55;000.367;MIDI 01
288.004;000.160;75;000.430;MIDI 01
288.190;000.085;58;000.359;MIDI 01
288.192;000.142;73;000.430;MIDI 01
288.363;000.137;77;000.461;MIDI 01
288.375;000.142;63;000.344;MIDI 01
288.527;000.086;73;000.445;MIDI 01
288.557;000.141;55;000.375;MIDI 01
288.714;000.028;72;000.469;MIDI 01
288.728;000.096;56;000.367;MIDI 01
288.921;000.075;63;000.359;MIDI 01
288.907;000.231;84;000.562;MIDI 01
289.096;000.078;55;000.359;MIDI 01
289.143;000.166;84;000.039;MIDI 01
289.270;000.074;64;000.391;MIDI 01
289.439;000.084;53;000.438;MIDI 01
289.624;000.046;65;000.312;MIDI 01
289.246;000.441;82;000.555;MIDI 01
289.793;000.069;55;000.438;MIDI 01
289.624;000.359;80;000.555;MIDI 01
289.972;000.049;58;000.422;MIDI 01
290.163;000.079;56;000.445;MIDI 01
289.988;000.289;79;000.539;MIDI 01
290.344;000.073;60;000.414;MIDI 01
290.517;000.123;57;000.477;MIDI 01
290.342;000.326;77;000.469;MIDI 01
290.710;000.048;65;000.469;MIDI 01
290.876;000.099;58;000.477;MIDI 01
291.068;000.044;65;000.453;MIDI 01
290.699;000.429;75;000.477;MIDI 01
291.076;000.267;74;000.461;MIDI 01
291.232;000.115;60;000.461;MIDI 01
291.416;000.065;63;000.453;MIDI 01
291.598;000.123;62;000.430;MIDI 01
291.407;000.329;72;000.445;MIDI 01
291.775;000.070;65;000.391;MIDI 01
291.969;000.110;63;000.445;MIDI 01
291.793;000.293;70;000.406;MIDI 01
292.139;000.092;66;000.438;MIDI 01
292.306;000.166;62;000.375;MIDI 01
292.142;000.332;69;000.391;MIDI 01
292.535;000.073;65;000.297;MIDI 01
292.529;000.291;70;000.391;MIDI 01
292.703;000.119;63;000.352;MIDI 01
292.897;000.070;66;000.359;MIDI 01
292.884;000.285;69;000.383;MIDI 01
293.056;000.126;62;000.383;MIDI 01
293.239;000.080;65;000.367;MIDI 01
293.425;000.087;63;000.359;MIDI 01
293.259;000.275;70;000.391;MIDI 01
293.604;000.048;66;000.320;MIDI 01
293.625;000.083;69;000.344;MIDI 01
293.789;000.024;70;000.391;MIDI 01
293.792;000.196;65;000.312;MIDI 01
293.966;000.033;82;000.391;MIDI 01
294.145;000.030;82;000.422;MIDI 01
293.774;000.448;62;000.281;MIDI 01
294.312;000.028;82;000.633;MIDI 01
294.488;000.041;82;000.492;MIDI 01
294.650;000.038;82;000.453;MIDI 01
294.822;000.040;82;000.477;MIDI 01
295.003;000.030;81;000.609;MIDI 01
294.990;000.046;82;000.602;MIDI 01
295.180;000.041;82;000.508;MIDI 01
295.179;000.047;81;000.047;MIDI 01
295.349;000.050;81;000.469;MIDI 01
295.347;000.054;82;000.430;MIDI 01
295.535;000.030;81;000.438;MIDI 01
295.532;000.038;82;000.461;MIDI 01
295.694;000.035;82;000.594;MIDI 01
295.701;000.030;80;000.586;MIDI 01
295.692;000.045;70;000.625;MIDI 01
295.879;000.039;82;000.539;MIDI 01
295.864;000.057;80;000.281;MIDI 01
295.884;000.110;71;000.516;MIDI 01
296.057;000.035;80;000.562;MIDI 01
296.043;000.053;82;000.398;MIDI 01
296.055;000.115;72;000.492;MIDI 01
296.219;000.056;82;000.539;MIDI 01
296.227;000.051;80;000.453;MIDI 01
296.225;000.056;73;000.570;MIDI 01
296.401;000.033;80;000.570;MIDI 01
296.405;000.033;82;000.578;MIDI 01
296.397;000.052;74;000.688;MIDI 01
296.571;000.042;79;000.555;MIDI 01
296.565;000.055;82;000.539;MIDI 01
296.574;000.148;75;000.594;MIDI 01
296.730;000.058;79;000.398;MIDI 01
296.762;000.030;82;000.508;MIDI 01
296.917;000.032;82;000.406;MIDI 01
297.122;000.064;51;000.445;MIDI 01
297.111;000.083;63;000.492;MIDI 01
297.137;000.062;58;000.367;MIDI 01
297.125;000.079;70;000.562;MIDI 01
297.141;000.070;75;000.453;MIDI 01
297.108;000.106;79;000.430;MIDI 01
297.127;000.095;55;000.422;MIDI 01
297.301;000.050;63;000.641;MIDI 01
297.303;000.051;51;000.578;MIDI 01
297.311;000.045;58;000.578;MIDI 01
297.286;000.072;70;000.641;MIDI 01
297.282;000.078;79;000.555;MIDI 01
297.291;000.083;75;000.547;MIDI 01
297.309;000.084;55;000.445;MIDI 01
297.464;000.061;70;000.680;MIDI 01
297.479;000.048;51;000.586;MIDI 01
297.468;000.061;58;000.508;MIDI 01
297.461;000.070;63;000.656;MIDI 01
297.466;000.068;79;000.578;MIDI 01
297.470;000.074;75;000.547;MIDI 01
297.472;000.096;55;000.469;MIDI 01
297.653;000.034;63;000.633;MIDI 01
297.647;000.043;70;000.664;MIDI 01
297.651;000.051;51;000.570;MIDI 01
297.658;000.045;58;000.531;MIDI 01
297.655;000.054;79;000.594;MIDI 01
297.657;000.057;75;000.555;MIDI 01
297.651;000.077;55;000.500;MIDI 01
297.821;000.038;70;000.664;MIDI 01
297.819;000.054;63;000.617;MIDI 01
297.833;000.042;51;000.500;MIDI 01
297.812;000.065;79;000.648;MIDI 01
297.824;000.055;75;000.539;MIDI 01
297.835;000.064;55;000.461;MIDI 01
297.815;000.115;58;000.531;MIDI 01
298.002;000.132;68;000.680;MIDI 01
298.011;000.125;62;000.625;MIDI 01
298.020;000.246;53;000.539;MIDI 01
298.008;000.259;74;000.609;MIDI 01
298.018;000.273;70;000.586;MIDI 01
298.016;000.283;58;000.461;MIDI 01
298.014;000.340;56;000.547;MIDI 01
298.383;000.040;75;000.508;MIDI 01
298.386;000.040;63;000.547;MIDI 01
298.381;000.049;55;000.516;MIDI 01
298.390;000.043;67;000.359;MIDI 01
298.575;000.021;75;000.414;MIDI 01
298.557;000.092;79;000.602;MIDI 01
298.773;000.083;74;000.609;MIDI 01
298.771;000.099;65;000.555;MIDI 01
298.764;000.251;77;000.547;MIDI 01
298.753;000.323;80;000.641;MIDI 01
298.758;000.330;58;000.555;MIDI 01
299.143;000.025;79;000.570;MIDI 01
299.148;000.028;75;000.523;MIDI 01
299.157;000.036;67;000.461;MIDI 01
299.155;000.060;63;000.484;MIDI 01
299.314;000.043;79;000.352;MIDI 01
299.316;000.053;82;000.633;MIDI 01
299.550;000.084;80;000.484;MIDI 01
299.544;000.152;77;000.523;MIDI 01
299.527;000.267;58;000.469;MIDI 01
299.523;000.353;65;000.508;MIDI 01
299.519;000.398;86;000.680;MIDI 01
299.929;000.052;67;000.422;MIDI 01
299.933;000.057;79;000.562;MIDI 01
299.916;000.134;87;000.656;MIDI 01
299.939;000.173;63;000.406;MIDI 01
300.238;000.072;79;000.594;MIDI 01
300.197;000.173;88;000.688;MIDI 01
300.231;000.210;70;000.484;MIDI 01
300.223;000.257;61;000.477;MIDI 01
300.698;000.219;70;000.461;MIDI 01
300.716;000.221;79;000.539;MIDI 01
300.651;000.897;88;000.711;MIDI 01
300.671;001.289;61;000.469;MIDI 01
301.476;000.574;89;000.617;MIDI 01
301.491;000.571;68;000.422;MIDI 01
301.529;000.588;77;000.492;MIDI 01
301.964;000.403;59;000.477;MIDI 01
301.947;000.725;87;000.688;MIDI 01
302.698;000.668;77;000.414;MIDI 01
302.639;000.738;68;000.375;MIDI 01
302.619;001.719;86;000.664;MIDI 01
302.636;001.755;58;000.398;MIDI 01
304.863;000.514;67;000.195;MIDI 01
304.899;001.020;60;000.172;MIDI 01
304.859;001.082;75;000.211;MIDI 01
304.849;001.146;87;000.297;MIDI 01
306.896;000.060;79;000.297;MIDI 01
306.907;000.051;75;000.258;MIDI 01
306.874;000.094;83;000.305;MIDI 01
307.315;000.685;79;000.273;MIDI 01
307.303;000.807;83;000.383;MIDI 01
308.104;000.048;80;000.344;MIDI 01
308.091;000.278;84;000.336;MIDI 01
307.332;001.075;75;000.242;MIDI 01
308.498;000.030;68;000.555;MIDI 01
308.495;000.036;56;000.539;MIDI 01
308.496;000.097;76;000.594;MIDI 01
308.492;000.113;84;000.617;MIDI 01
309.000;000.361;76;000.648;MIDI 01
309.773;000.192;79;000.422;MIDI 01
309.960;000.206;77;000.492;MIDI 01
310.142;000.221;80;000.602;MIDI 01
308.991;001.487;84;000.664;MIDI 01
310.317;000.233;79;000.633;MIDI 01
310.482;000.198;82;000.602;MIDI 01
310.661;000.071;80;000.586;MIDI 01
310.844;000.046;82;000.484;MIDI 01
310.848;000.054;85;000.492;MIDI 01
311.042;000.015;80;000.492;MIDI 01
311.031;000.040;84;000.523;MIDI 01
311.184;000.041;83;000.570;MIDI 01
311.206;000.041;79;000.477;MIDI 01
311.368;000.040;80;000.594;MIDI 01
311.366;000.069;84;000.594;MIDI 01
311.560;000.024;79;000.492;MIDI 01
311.549;000.058;82;000.656;MIDI 01
309.002;002.709;56;000.594;MIDI 01
311.727;000.039;77;000.539;MIDI 01
311.711;000.070;80;000.664;MIDI 01
308.998;002.785;68;000.633;MIDI 01
311.906;000.344;79;000.625;MIDI 01
311.921;000.490;75;000.562;MIDI 01
312.479;000.072;82;000.461;MIDI 01
312.484;000.069;79;000.516;MIDI 01
312.675;000.071;79;000.555;MIDI 01
312.671;000.101;82;000.539;MIDI 01
312.848;000.048;80;000.609;MIDI 01
312.855;000.045;77;000.578;MIDI 01
311.920;001.081;70;000.578;MIDI 01
313.038;000.036;75;000.586;MIDI 01
313.021;000.074;79;000.609;MIDI 01
313.178;000.040;78;000.609;MIDI 01
313.215;000.028;74;000.516;MIDI 01
311.917;001.389;58;000.547;MIDI 01
313.376;000.056;75;000.594;MIDI 01
313.473;000.082;79;000.531;MIDI 01
313.551;000.079;75;000.586;MIDI 01
313.641;000.033;70;000.539;MIDI 01
313.698;000.051;67;000.555;MIDI 01
313.795;000.026;63;000.539;MIDI 01
313.873;000.091;51;000.508;MIDI 01
313.959;000.059;63;000.500;MIDI 01
314.042;000.062;74;000.625;MIDI 01
314.111;000.105;80;000.469;MIDI 01
314.201;000.067;77;000.562;MIDI 01
314.282;000.024;74;000.531;MIDI 01
314.373;000.064;70;000.578;MIDI 01
314.450;000.042;68;000.508;MIDI 01
314.503;000.089;62;000.414;MIDI 01
314.611;000.060;65;000.453;MIDI 01
314.773;000.034;75;000.469;MIDI 01
314.868;000.054;79;000.406;MIDI 01
314.933;000.059;75;000.508;MIDI 01
315.030;000.036;70;000.492;MIDI 01
315.098;000.042;67;000.438;MIDI 01
315.193;000.035;63;000.383;MIDI 01
315.260;000.053;51;000.383;MIDI 01
315.341;000.040;63;000.477;MIDI 01
315.457;000.053;74;000.531;MIDI 01
315.536;000.060;80;000.438;MIDI 01
315.610;000.038;77;000.516;MIDI 01
315.697;000.027;74;000.469;MIDI 01
315.791;000.042;70;000.555;MIDI 01
315.873;000.045;68;000.453;MIDI 01
315.933;000.077;62;000.328;MIDI 01
316.032;000.038;65;000.375;MIDI 01
316.151;000.095;82;000.375;MIDI 01
316.244;000.040;75;000.312;MIDI 01
316.311;000.095;67;000.250;MIDI 01
316.396;000.032;75;000.430;MIDI 01
316.477;000.100;84;000.406;MIDI 01
316.546;000.052;75;000.445;MIDI 01
316.628;000.048;68;000.383;MIDI 01
316.715;000.030;75;000.422;MIDI 01
316.789;000.097;86;000.492;MIDI 01
316.879;000.043;75;000.430;MIDI 01
316.964;000.052;70;000.344;MIDI 01
317.048;000.035;75;000.344;MIDI 01
317.126;000.069;87;000.422;MIDI 01
317.195;000.049;75;000.430;MIDI 01
317.283;000.054;72;000.344;MIDI 01
317.368;000.036;75;000.406;MIDI 01
317.466;000.110;82;000.352;MIDI 01
317.542;000.047;75;000.406;MIDI 01
317.621;000.070;67;000.359;MIDI 01
317.710;000.035;75;000.406;MIDI 01
317.864;000.056;75;000.422;MIDI 01
317.808;000.118;84;000.430;MIDI 01
317.959;000.056;68;000.383;MIDI 01
318.058;000.039;75;000.312;MIDI 01
318.122;000.108;86;000.484;MIDI 01
318.210;000.056;75;000.430;MIDI 01
318.311;000.042;70;000.336;MIDI 01
318.397;000.022;75;000.367;MIDI 01
318.484;000.110;87;000.461;MIDI 01
318.559;000.054;75;000.383;MIDI 01
318.681;000.051;72;000.312;MIDI 01
318.762;000.068;75;000.367;MIDI 01
319.014;000.084;75;000.336;MIDI 01
318.916;000.196;85;000.383;MIDI 01
319.141;000.133;67;000.336;MIDI 01
319.269;000.034;75;000.258;MIDI 01
319.327;000.124;84;000.430;MIDI 01
319.418;000.041;75;000.383;MIDI 01
319.495;000.059;68;000.352;MIDI 01
319.593;000.040;75;000.219;MIDI 01
319.732;000.045;72;000.414;MIDI 01
319.631;000.169;82;000.430;MIDI 01
319.816;000.065;64;000.445;MIDI 01
319.908;000.029;72;000.414;MIDI 01
319.983;000.128;80;000.492;MIDI 01
320.066;000.057;72;000.484;MIDI 01
320.146;000.073;65;000.531;MIDI 01
320.246;000.040;72;000.469;MIDI 01
320.399;000.048;72;000.500;MIDI 01
320.302;000.147;76;000.578;MIDI 01
320.490;000.082;67;000.523;MIDI 01
320.576;000.040;72;000.547;MIDI 01
320.643;000.133;77;000.594;MIDI 01
320.733;000.048;72;000.430;MIDI 01
320.806;000.086;68;000.492;MIDI 01
320.924;000.017;72;000.469;MIDI 01
321.082;000.047;75;000.555;MIDI 01
320.997;000.134;84;000.617;MIDI 01
321.169;000.042;69;000.484;MIDI 01
321.248;000.032;75;000.516;MIDI 01
321.431;000.029;75;000.570;MIDI 01
321.347;000.125;87;000.641;MIDI 01
321.507;000.040;69;000.586;MIDI 01
321.594;000.014;75;000.461;MIDI 01
321.714;000.022;88;000.406;MIDI 01
321.703;000.058;86;000.492;MIDI 01
321.790;000.033;74;000.562;MIDI 01
321.870;000.078;70;000.461;MIDI 01
321.972;000.041;58;000.477;MIDI 01
322.047;000.105;82;000.492;MIDI 01
322.142;000.028;70;000.523;MIDI 01
322.219;000.044;65;000.508;MIDI 01
322.316;000.036;53;000.461;MIDI 01
322.371;000.090;77;000.547;MIDI 01
322.476;000.041;65;000.555;MIDI 01
322.453;000.072;76;000.047;MIDI 01
322.547;000.059;62;000.594;MIDI 01
322.655;000.028;50;000.492;MIDI 01
322.731;000.070;74;000.633;MIDI 01
322.777;000.026;72;000.375;MIDI 01
322.801;000.042;62;000.633;MIDI 01
322.892;000.110;58;000.578;MIDI 01
323.276;002.283;34;000.664;MIDI 01
322.994;002.776;46;000.492;MIDI 01
326.300;000.045;56;000.305;MIDI 01
326.473;000.045;56;000.352;MIDI 01
326.650;000.048;56;000.375;MIDI 01
326.830;000.030;56;000.359;MIDI 01
326.988;000.026;65;000.352;MIDI 01
326.994;000.030;56;000.367;MIDI 01
327.153;000.047;56;000.367;MIDI 01
327.176;000.107;58;000.383;MIDI 01
327.344;000.036;56;000.352;MIDI 01
327.334;000.092;59;000.445;MIDI 01
327.511;000.049;56;000.359;MIDI 01
327.518;000.044;58;000.414;MIDI 01
327.689;000.044;56;000.414;MIDI 01
327.683;000.056;68;000.492;MIDI 01
327.859;000.056;56;000.391;MIDI 01
327.861;000.143;62;000.438;MIDI 01
328.042;000.048;56;000.414;MIDI 01
328.033;000.164;63;000.398;MIDI 01
328.204;000.042;62;000.445;MIDI 01
328.216;000.051;56;000.422;MIDI 01
328.381;000.048;71;000.570;MIDI 01
328.392;000.040;56;000.453;MIDI 01
328.570;000.037;56;000.414;MIDI 01
328.572;000.104;65;000.508;MIDI 01
328.722;000.051;56;000.500;MIDI 01
328.730;000.107;66;000.469;MIDI 01
328.919;000.029;65;000.500;MIDI 01
328.917;000.035;56;000.484;MIDI 01
329.076;000.033;74;000.664;MIDI 01
329.084;000.041;56;000.531;MIDI 01
329.255;000.034;56;000.492;MIDI 01
329.248;000.093;70;000.562;MIDI 01
329.422;000.044;56;000.539;MIDI 01
329.427;000.072;71;000.547;MIDI 01
329.582;000.056;56;000.555;MIDI 01
329.603;000.046;70;000.555;MIDI 01
329.766;000.041;56;000.594;MIDI 01
329.759;000.057;82;000.688;MIDI 01
330.102;000.046;79;000.562;MIDI 01
329.941;000.229;55;000.586;MIDI 01
330.098;000.075;82;000.570;MIDI 01
330.304;000.043;56;000.555;MIDI 01
330.326;000.040;57;000.555;MIDI 01
330.472;000.043;77;000.578;MIDI 01
330.474;000.050;80;000.602;MIDI 01
330.656;000.052;58;000.656;MIDI 01
330.830;000.053;75;000.562;MIDI 01
330.822;000.077;79;000.594;MIDI 01
331.002;000.039;46;000.617;MIDI 01
331.170;000.038;74;000.430;MIDI 01
331.158;000.069;77;000.477;MIDI 01
331.350;000.043;75;000.461;MIDI 01
331.527;000.033;68;000.414;MIDI 01
331.692;000.060;68;000.414;MIDI 01
331.879;000.036;68;000.430;MIDI 01
331.359;000.601;51;000.383;MIDI 01
332.042;000.045;68;000.383;MIDI 01
332.225;000.030;68;000.375;MIDI 01
332.390;000.050;68;000.414;MIDI 01
332.565;000.040;53;000.477;MIDI 01
332.562;000.045;68;000.492;MIDI 01
332.722;000.059;68;000.414;MIDI 01
332.846;000.049;70;000.258;MIDI 01
332.748;000.150;46;000.344;MIDI 01
332.904;000.041;68;000.422;MIDI 01
332.917;000.117;47;000.328;MIDI 01
333.046;000.053;68;000.445;MIDI 01
333.062;000.045;46;000.344;MIDI 01
333.192;000.046;68;000.422;MIDI 01
333.220;000.040;56;000.562;MIDI 01
333.291;000.046;70;000.211;MIDI 01
333.341;000.047;68;000.484;MIDI 01
333.448;000.047;70;000.203;MIDI 01
333.486;000.049;68;000.445;MIDI 01
333.406;000.131;50;000.375;MIDI 01
333.581;000.037;70;000.273;MIDI 01
333.631;000.054;68;000.453;MIDI 01
333.575;000.163;51;000.414;MIDI 01
333.724;000.035;70;000.383;MIDI 01
333.731;000.032;50;000.391;MIDI 01
333.777;000.050;68;000.477;MIDI 01
333.868;000.029;70;000.391;MIDI 01
333.913;000.043;59;000.641;MIDI 01
333.919;000.061;68;000.500;MIDI 01
334.023;000.037;70;000.383;MIDI 01
334.080;000.052;68;000.484;MIDI 01
334.100;000.115;53;000.516;MIDI 01
334.194;000.026;70;000.391;MIDI 01
334.245;000.047;68;000.484;MIDI 01
334.335;000.050;70;000.469;MIDI 01
334.273;000.145;54;000.492;MIDI 01
334.414;000.052;68;000.484;MIDI 01
334.422;000.052;53;000.500;MIDI 01
334.494;000.048;70;000.484;MIDI 01
334.585;000.055;68;000.508;MIDI 01
334.618;000.036;62;000.664;MIDI 01
334.676;000.048;70;000.352;MIDI 01
334.767;000.034;68;000.484;MIDI 01
334.781;000.104;58;000.547;MIDI 01
334.864;000.035;70;000.391;MIDI 01
334.905;000.048;68;000.508;MIDI 01
335.006;000.049;70;000.453;MIDI 01
334.961;000.100;59;000.531;MIDI 01
335.062;000.045;68;000.508;MIDI 01
335.135;000.059;58;000.609;MIDI 01
335.148;000.093;70;000.500;MIDI 01
335.292;000.037;62;000.688;MIDI 01
335.236;000.119;68;000.445;MIDI 01
335.494;000.046;63;000.562;MIDI 01
335.490;000.053;67;000.445;MIDI 01
335.583;000.056;75;000.477;MIDI 01
335.654;000.056;51;000.414;MIDI 01
335.686;000.042;67;000.461;MIDI 01
335.748;000.050;75;000.469;MIDI 01
335.839;000.040;63;000.430;MIDI 01
335.853;000.035;68;000.461;MIDI 01
335.941;000.049;74;000.477;MIDI 01
336.003;000.053;51;000.453;MIDI 01
336.010;000.065;68;000.484;MIDI 01
336.080;000.044;74;000.508;MIDI 01
336.172;000.045;63;000.469;MIDI 01
336.204;000.035;74;000.586;MIDI 01
336.296;000.057;80;000.508;MIDI 01
336.358;000.045;51;000.469;MIDI 01
336.371;000.065;74;000.500;MIDI 01
336.453;000.052;80;000.484;MIDI 01
336.530;000.048;63;000.461;MIDI 01
336.561;000.028;75;000.398;MIDI 01
336.630;000.046;79;000.492;MIDI 01
336.711;000.042;75;000.477;MIDI 01
336.719;000.045;51;000.438;MIDI 01
336.791;000.018;79;000.469;MIDI 01
336.873;000.057;63;000.469;MIDI 01
336.878;000.055;80;000.586;MIDI 01
336.985;000.074;84;000.523;MIDI 01
337.070;000.039;51;000.422;MIDI 01
337.066;000.069;80;000.594;MIDI 01
337.149;000.069;84;000.516;MIDI 01
337.222;000.052;63;000.492;MIDI 01
337.240;000.075;79;000.578;MIDI 01
337.339;000.050;82;000.586;MIDI 01
337.409;000.025;51;000.523;MIDI 01
337.420;000.065;79;000.578;MIDI 01
337.506;000.081;82;000.602;MIDI 01
337.575;000.036;63;000.547;MIDI 01
337.591;000.068;80;000.617;MIDI 01
337.675;000.060;86;000.562;MIDI 01
337.740;000.054;51;000.586;MIDI 01
337.760;000.051;80;000.609;MIDI 01
337.829;000.043;86;000.555;MIDI 01
337.927;000.032;63;000.594;MIDI 01
337.919;000.064;79;000.609;MIDI 01
338.019;000.047;87;000.609;MIDI 01
338.101;000.044;79;000.625;MIDI 01
338.086;000.066;51;000.508;MIDI 01
338.183;000.106;87;000.500;MIDI 01
338.379;000.105;63;000.508;MIDI 01
338.411;000.281;80;000.539;MIDI 01
338.372;000.323;84;000.641;MIDI 01
338.375;000.387;56;000.492;MIDI 01
339.238;000.093;58;000.508;MIDI 01
339.246;000.252;65;000.500;MIDI 01
339.201;000.356;74;000.656;MIDI 01
339.224;000.340;46;000.562;MIDI 01
339.240;000.333;68;000.484;MIDI 01
340.085;000.067;63;000.367;MIDI 01
340.186;000.048;62;000.445;MIDI 01
340.103;000.136;67;000.500;MIDI 01
340.101;000.170;70;000.477;MIDI 01
340.282;000.043;63;000.492;MIDI 01
340.069;000.258;75;000.609;MIDI 01
340.357;000.076;62;000.523;MIDI 01
340.448;000.061;63;000.555;MIDI 01
340.536;000.049;62;000.453;MIDI 01
340.617;000.060;63;000.500;MIDI 01
340.640;000.037;84;000.516;MIDI 01
340.637;000.042;80;000.562;MIDI 01
340.707;000.055;62;000.469;MIDI 01
340.815;000.070;63;000.492;MIDI 01
340.911;000.062;62;000.484;MIDI 01
340.839;000.141;79;000.531;MIDI 01
340.822;000.220;82;000.555;MIDI 01
341.012;000.052;63;000.508;MIDI 01
340.978;000.089;80;000.578;MIDI 01
341.104;000.050;62;000.531;MIDI 01
341.002;000.182;77;000.547;MIDI 01
341.189;000.072;63;000.562;MIDI 01
341.183;000.115;75;000.586;MIDI 01
341.181;000.142;79;000.531;MIDI 01
341.283;000.053;62;000.547;MIDI 01
341.353;000.059;77;000.516;MIDI 01
341.368;000.071;63;000.555;MIDI 01
341.386;000.069;74;000.547;MIDI 01
341.481;000.075;62;000.508;MIDI 01
341.562;000.053;75;000.531;MIDI 01
341.645;000.079;74;000.555;MIDI 01
341.573;000.206;63;000.578;MIDI 01
341.747;000.054;75;000.523;MIDI 01
341.823;000.058;74;000.508;MIDI 01
341.919;000.047;75;000.531;MIDI 01
341.999;000.056;74;000.492;MIDI 01
342.128;000.030;60;000.469;MIDI 01
342.126;000.039;56;000.477;MIDI 01
342.094;000.074;75;000.531;MIDI 01
342.180;000.086;74;000.508;MIDI 01
342.293;000.078;75;000.531;MIDI 01
342.314;000.059;58;000.477;MIDI 01
342.305;000.091;55;000.531;MIDI 01
342.402;000.057;74;000.523;MIDI 01
342.494;000.060;75;000.539;MIDI 01
342.498;000.059;56;000.508;MIDI 01
342.482;000.080;60;000.516;MIDI 01
342.582;000.049;74;000.555;MIDI 01
342.666;000.081;75;000.570;MIDI 01
342.667;000.089;58;000.555;MIDI 01
342.669;000.102;55;000.508;MIDI 01
342.762;000.051;74;000.547;MIDI 01
342.843;000.036;53;000.414;MIDI 01
342.843;000.041;56;000.477;MIDI 01
342.845;000.066;75;000.570;MIDI 01
342.929;000.051;74;000.539;MIDI 01
343.060;000.107;51;000.531;MIDI 01
343.050;000.391;55;000.500;MIDI 01
343.052;000.391;75;000.617;MIDI 01
343.911;000.280;51;000.570;MIDI 01
343.915;000.330;79;000.594;MIDI 01
343.889;000.365;87;000.656;MIDI 01
343.909;000.379;39;000.578;MIDI 01
343.914;000.385;82;000.570;MIDI 01
343.919;000.391;46;000.531;MIDI 01
343.921;000.430;43;000.500;MIDI 01
344.929;000.587;39;000.570;MIDI 01
344.936;000.589;55;000.578;MIDI 01
344.930;000.651;46;000.523;MIDI 01
344.931;000.656;51;000.578;MIDI 01
344.940;000.650;43;000.484;MIDI 01
344.908;000.695;63;000.586;MIDI 01
344.934;000.676;58;000.500;MIDI 01
