Start;Duration;Pitch;Velocity;Instrument
001.012;000.255;67;000.453;MIDI 01
001.273;000.037;72;000.531;MIDI 01
001.286;000.031;64;000.375;MIDI 01
001.291;000.031;60;000.383;MIDI 01
001.508;000.032;72;000.453;MIDI 01
001.524;000.042;64;000.328;MIDI 01
001.526;000.043;60;000.383;MIDI 01
001.725;000.035;72;000.500;MIDI 01
001.733;000.033;64;000.367;MIDI 01
001.741;000.032;60;000.398;MIDI 01
001.944;000.035;60;000.516;MIDI 01
001.949;000.033;65;000.578;MIDI 01
001.935;000.061;72;000.516;MIDI 01
001.994;000.065;71;000.586;MIDI 01
002.071;000.053;69;000.523;MIDI 01
002.128;000.052;71;000.375;MIDI 01
002.217;000.033;65;000.367;MIDI 01
002.225;000.034;60;000.352;MIDI 01
002.185;000.080;74;000.531;MIDI 01
002.270;000.111;71;000.539;MIDI 01
002.405;000.029;65;000.414;MIDI 01
002.410;000.032;60;000.406;MIDI 01
002.413;000.233;67;000.531;MIDI 01
002.689;000.043;64;000.398;MIDI 01
002.692;000.049;60;000.320;MIDI 01
002.665;000.114;72;000.477;MIDI 01
002.773;000.145;76;000.594;MIDI 01
002.939;000.040;64;000.312;MIDI 01
002.936;000.055;60;000.320;MIDI 01
002.890;000.142;74;000.602;MIDI 01
002.991;000.151;72;000.602;MIDI 01
003.141;000.049;64;000.398;MIDI 01
003.157;000.041;60;000.406;MIDI 01
003.108;000.121;71;000.609;MIDI 01
003.226;000.129;69;000.578;MIDI 01
003.379;000.037;62;000.414;MIDI 01
003.374;000.053;59;000.445;MIDI 01
003.628;000.043;62;000.398;MIDI 01
003.630;000.044;59;000.422;MIDI 01
003.851;000.032;62;000.375;MIDI 01
003.866;000.040;59;000.367;MIDI 01
003.359;000.698;67;000.516;MIDI 01
004.104;000.024;65;000.500;MIDI 01
004.351;000.205;65;000.469;MIDI 01
004.118;000.441;57;000.383;MIDI 01
004.120;000.471;60;000.422;MIDI 01
004.536;000.060;67;000.445;MIDI 01
004.588;000.044;64;000.477;MIDI 01
004.585;000.070;59;000.430;MIDI 01
004.617;000.072;55;000.383;MIDI 01
004.817;000.033;62;000.562;MIDI 01
005.062;000.160;62;000.469;MIDI 01
004.835;000.417;57;000.375;MIDI 01
004.843;000.412;53;000.367;MIDI 01
005.217;000.095;64;000.445;MIDI 01
005.287;000.042;60;000.523;MIDI 01
005.299;000.035;55;000.375;MIDI 01
005.311;000.044;52;000.406;MIDI 01
005.506;000.036;59;000.562;MIDI 01
005.517;000.037;53;000.477;MIDI 01
005.529;000.034;50;000.438;MIDI 01
005.729;000.033;62;000.500;MIDI 01
005.732;000.034;47;000.500;MIDI 01
005.731;000.036;65;000.469;MIDI 01
005.940;000.043;64;000.484;MIDI 01
005.953;000.034;60;000.430;MIDI 01
005.966;000.032;48;000.398;MIDI 01
006.228;000.078;59;000.297;MIDI 01
006.273;000.047;43;000.273;MIDI 01
006.218;000.132;62;000.359;MIDI 01
006.802;000.250;79;000.273;MIDI 01
007.057;000.027;84;000.383;MIDI 01
007.042;000.084;72;000.336;MIDI 01
007.164;000.057;76;000.367;MIDI 01
007.273;000.040;84;000.438;MIDI 01
007.276;000.067;72;000.438;MIDI 01
007.377;000.066;76;000.422;MIDI 01
007.489;000.033;84;000.531;MIDI 01
007.491;000.069;72;000.438;MIDI 01
007.587;000.054;76;000.453;MIDI 01
007.707;000.052;72;000.492;MIDI 01
007.692;000.076;84;000.562;MIDI 01
007.774;000.056;83;000.578;MIDI 01
007.804;000.058;77;000.469;MIDI 01
007.836;000.056;81;000.555;MIDI 01
007.890;000.050;83;000.391;MIDI 01
007.910;000.067;72;000.445;MIDI 01
007.944;000.086;86;000.539;MIDI 01
008.021;000.062;77;000.430;MIDI 01
008.034;000.092;83;000.578;MIDI 01
008.146;000.030;79;000.508;MIDI 01
008.150;000.064;72;000.367;MIDI 01
008.241;000.054;77;000.461;MIDI 01
008.315;000.032;79;000.555;MIDI 01
008.358;000.058;84;000.609;MIDI 01
008.374;000.106;72;000.461;MIDI 01
008.525;000.092;76;000.383;MIDI 01
008.392;000.268;88;000.688;MIDI 01
008.667;000.061;72;000.367;MIDI 01
008.659;000.116;86;000.570;MIDI 01
008.781;000.046;76;000.422;MIDI 01
008.742;000.145;84;000.633;MIDI 01
008.886;000.053;72;000.406;MIDI 01
008.852;000.119;83;000.641;MIDI 01
008.975;000.080;76;000.492;MIDI 01
008.963;000.128;81;000.641;MIDI 01
009.110;000.064;71;000.414;MIDI 01
009.219;000.084;74;000.461;MIDI 01
009.332;000.090;71;000.383;MIDI 01
009.457;000.064;74;000.516;MIDI 01
009.607;000.054;71;000.391;MIDI 01
009.676;000.073;74;000.484;MIDI 01
009.083;000.671;79;000.602;MIDI 01
009.844;000.062;76;000.398;MIDI 01
009.969;000.103;77;000.469;MIDI 01
009.849;000.239;72;000.406;MIDI 01
009.859;000.303;69;000.312;MIDI 01
010.085;000.094;81;000.531;MIDI 01
010.183;000.110;77;000.508;MIDI 01
010.291;000.029;76;000.586;MIDI 01
010.304;000.043;71;000.430;MIDI 01
010.329;000.035;67;000.391;MIDI 01
010.569;000.070;73;000.492;MIDI 01
010.689;000.098;74;000.461;MIDI 01
010.568;000.321;69;000.422;MIDI 01
010.796;000.100;77;000.523;MIDI 01
010.562;000.383;65;000.383;MIDI 01
010.912;000.103;74;000.547;MIDI 01
011.023;000.036;72;000.508;MIDI 01
011.051;000.031;67;000.352;MIDI 01
011.049;000.046;64;000.430;MIDI 01
011.257;000.042;76;000.570;MIDI 01
011.290;000.070;74;000.641;MIDI 01
011.269;000.154;69;000.602;MIDI 01
011.266;000.180;65;000.594;MIDI 01
011.369;000.090;73;000.578;MIDI 01
011.450;000.048;74;000.539;MIDI 01
011.497;000.105;77;000.594;MIDI 01
011.602;000.096;74;000.617;MIDI 01
011.711;000.036;71;000.602;MIDI 01
011.730;000.029;55;000.453;MIDI 01
011.728;000.034;65;000.477;MIDI 01
011.822;000.035;67;000.570;MIDI 01
011.988;000.114;72;000.461;MIDI 01
011.995;000.139;64;000.422;MIDI 01
011.990;000.168;60;000.383;MIDI 01
012.525;000.046;60;000.430;MIDI 01
012.533;000.047;48;000.359;MIDI 01
012.621;000.074;49;000.469;MIDI 01
012.625;000.101;61;000.461;MIDI 01
012.748;000.269;50;000.469;MIDI 01
012.741;000.282;62;000.578;MIDI 01
013.058;000.067;53;000.391;MIDI 01
013.060;000.099;65;000.469;MIDI 01
013.177;000.046;50;000.375;MIDI 01
013.173;000.118;62;000.547;MIDI 01
013.271;000.083;47;000.414;MIDI 01
013.282;000.104;59;000.523;MIDI 01
013.402;000.040;55;000.445;MIDI 01
013.397;000.065;43;000.422;MIDI 01
013.525;000.111;64;000.508;MIDI 01
013.650;000.066;60;000.484;MIDI 01
013.758;000.040;55;000.445;MIDI 01
013.527;000.404;48;000.406;MIDI 01
013.876;000.100;67;000.586;MIDI 01
013.985;000.082;64;000.547;MIDI 01
014.099;000.040;60;000.516;MIDI 01
014.239;000.259;69;000.477;MIDI 01
014.530;000.098;72;000.508;MIDI 01
014.644;000.125;69;000.594;MIDI 01
014.245;000.602;53;000.445;MIDI 01
014.255;000.601;48;000.391;MIDI 01
014.759;000.107;65;000.547;MIDI 01
014.861;000.053;60;000.555;MIDI 01
014.998;000.128;67;000.539;MIDI 01
015.119;000.068;64;000.539;MIDI 01
015.232;000.044;60;000.562;MIDI 01
015.347;000.132;72;000.625;MIDI 01
015.017;000.468;52;000.438;MIDI 01
015.006;000.503;48;000.391;MIDI 01
015.466;000.085;67;000.586;MIDI 01
015.574;000.064;64;000.617;MIDI 01
015.711;000.251;74;000.625;MIDI 01
016.015;000.123;77;000.594;MIDI 01
015.720;000.471;53;000.516;MIDI 01
015.723;000.520;59;000.523;MIDI 01
015.714;000.547;48;000.492;MIDI 01
016.121;000.145;74;000.641;MIDI 01
015.718;000.560;50;000.453;MIDI 01
016.243;000.091;71;000.562;MIDI 01
016.341;000.041;67;000.531;MIDI 01
016.473;000.179;76;000.617;MIDI 01
016.616;000.095;72;000.539;MIDI 01
016.730;000.048;67;000.570;MIDI 01
016.844;000.146;79;000.688;MIDI 01
016.973;000.098;76;000.602;MIDI 01
017.079;000.060;72;000.633;MIDI 01
017.199;000.182;84;000.680;MIDI 01
016.468;000.940;60;000.484;MIDI 01
016.481;000.946;55;000.398;MIDI 01
016.477;000.955;52;000.406;MIDI 01
017.329;000.116;79;000.586;MIDI 01
016.466;000.984;48;000.438;MIDI 01
017.438;000.062;76;000.609;MIDI 01
017.556;000.135;88;000.641;MIDI 01
017.666;000.124;84;000.609;MIDI 01
017.781;000.118;79;000.641;MIDI 01
017.899;000.117;84;000.617;MIDI 01
018.009;000.102;79;000.547;MIDI 01
018.111;000.054;76;000.602;MIDI 01
018.231;000.096;79;000.609;MIDI 01
018.332;000.120;76;000.625;MIDI 01
018.450;000.121;72;000.633;MIDI 01
018.565;000.131;76;000.672;MIDI 01
018.682;000.076;72;000.578;MIDI 01
018.784;000.036;67;000.570;MIDI 01
018.886;000.036;60;000.555;MIDI 01
018.893;000.119;72;000.648;MIDI 01
019.024;000.046;55;000.484;MIDI 01
019.005;000.109;67;000.641;MIDI 01
019.107;000.044;64;000.617;MIDI 01
019.120;000.076;52;000.492;MIDI 01
019.235;000.056;55;000.531;MIDI 01
019.231;000.116;67;000.680;MIDI 01
019.341;000.109;52;000.594;MIDI 01
019.334;000.117;64;000.641;MIDI 01
019.447;000.057;60;000.602;MIDI 01
019.460;000.054;48;000.586;MIDI 01
019.592;000.039;52;000.570;MIDI 01
019.568;000.126;64;000.711;MIDI 01
019.690;000.079;48;000.523;MIDI 01
019.683;000.120;60;000.625;MIDI 01
019.791;000.058;55;000.656;MIDI 01
019.824;000.043;43;000.461;MIDI 01
019.931;000.051;48;000.555;MIDI 01
019.914;000.127;60;000.703;MIDI 01
020.052;000.071;43;000.492;MIDI 01
020.027;000.121;55;000.656;MIDI 01
020.136;000.050;52;000.648;MIDI 01
020.176;000.041;40;000.484;MIDI 01
020.270;000.050;43;000.609;MIDI 01
020.260;000.139;55;000.688;MIDI 01
020.381;000.129;52;000.609;MIDI 01
020.400;000.113;40;000.531;MIDI 01
020.491;000.055;48;000.633;MIDI 01
020.525;000.041;36;000.500;MIDI 01
020.733;001.572;31;000.344;MIDI 01
020.693;001.654;43;000.664;MIDI 01
023.504;000.281;50;000.258;MIDI 01
023.785;000.030;55;000.438;MIDI 01
024.044;000.040;55;000.336;MIDI 01
024.253;000.037;55;000.352;MIDI 01
024.259;000.184;62;000.414;MIDI 01
024.471;000.025;69;000.461;MIDI 01
024.492;000.195;54;000.336;MIDI 01
024.702;000.035;69;000.445;MIDI 01
024.709;000.062;57;000.398;MIDI 01
024.834;000.050;54;000.445;MIDI 01
024.909;000.034;69;000.477;MIDI 01
024.935;000.215;50;000.406;MIDI 01
025.130;000.049;69;000.523;MIDI 01
025.156;000.028;59;000.453;MIDI 01
025.197;000.056;67;000.516;MIDI 01
025.264;000.056;66;000.586;MIDI 01
025.328;000.046;67;000.492;MIDI 01
025.404;000.040;59;000.328;MIDI 01
025.382;000.074;71;000.523;MIDI 01
025.471;000.092;67;000.547;MIDI 01
025.609;000.031;59;000.414;MIDI 01
025.599;000.204;62;000.516;MIDI 01
025.835;000.031;72;000.633;MIDI 01
025.849;000.193;57;000.508;MIDI 01
026.092;000.048;60;000.414;MIDI 01
026.118;000.028;72;000.453;MIDI 01
026.196;000.057;57;000.375;MIDI 01
026.312;000.034;72;000.461;MIDI 01
026.326;000.153;54;000.344;MIDI 01
026.499;000.035;62;000.516;MIDI 01
026.503;000.072;72;000.570;MIDI 01
026.579;000.069;71;000.570;MIDI 01
026.656;000.047;69;000.508;MIDI 01
026.708;000.044;71;000.406;MIDI 01
026.722;000.047;62;000.438;MIDI 01
026.757;000.081;74;000.539;MIDI 01
026.844;000.086;71;000.531;MIDI 01
026.967;000.040;62;000.352;MIDI 01
026.965;000.212;67;000.484;MIDI 01
027.206;000.034;76;000.523;MIDI 01
027.199;000.065;62;000.500;MIDI 01
027.317;000.089;55;000.523;MIDI 01
027.411;000.038;76;000.562;MIDI 01
027.429;000.057;60;000.547;MIDI 01
027.531;000.073;59;000.539;MIDI 01
027.647;000.022;76;000.562;MIDI 01
027.650;000.090;57;000.516;MIDI 01
027.766;000.085;55;000.508;MIDI 01
027.899;000.047;54;000.438;MIDI 01
027.886;000.230;76;000.508;MIDI 01
028.173;000.036;54;000.367;MIDI 01
028.159;000.141;81;000.539;MIDI 01
027.893;000.483;69;000.484;MIDI 01
028.255;000.143;79;000.594;MIDI 01
028.384;000.058;54;000.352;MIDI 01
028.380;000.098;78;000.602;MIDI 01
028.474;000.034;76;000.508;MIDI 01
028.579;000.059;69;000.484;MIDI 01
028.610;000.060;59;000.461;MIDI 01
028.605;000.109;74;000.633;MIDI 01
028.732;000.047;47;000.516;MIDI 01
028.842;000.052;59;000.500;MIDI 01
028.833;000.127;74;000.594;MIDI 01
028.960;000.069;57;000.484;MIDI 01
028.930;000.143;72;000.578;MIDI 01
029.066;000.084;71;000.508;MIDI 01
029.077;000.077;55;000.461;MIDI 01
029.161;000.030;69;000.477;MIDI 01
029.192;000.091;54;000.453;MIDI 01
029.294;000.032;52;000.531;MIDI 01
029.304;000.186;74;000.602;MIDI 01
029.312;000.250;67;000.484;MIDI 01
029.596;000.033;52;000.422;MIDI 01
029.557;000.161;79;000.523;MIDI 01
029.672;000.118;78;000.570;MIDI 01
029.786;000.054;52;000.383;MIDI 01
029.775;000.115;76;000.562;MIDI 01
029.885;000.030;74;000.539;MIDI 01
029.998;000.051;67;000.547;MIDI 01
030.021;000.069;57;000.484;MIDI 01
030.014;000.133;72;000.609;MIDI 01
030.135;000.052;45;000.492;MIDI 01
030.247;000.049;57;000.516;MIDI 01
030.261;000.089;72;000.562;MIDI 01
030.365;000.061;55;000.461;MIDI 01
030.374;000.103;71;000.500;MIDI 01
030.484;000.059;54;000.438;MIDI 01
030.491;000.074;69;000.531;MIDI 01
030.596;000.059;67;000.469;MIDI 01
030.609;000.102;52;000.430;MIDI 01
030.730;000.043;66;000.461;MIDI 01
030.829;000.066;69;000.562;MIDI 01
030.948;000.118;72;000.555;MIDI 01
030.984;000.156;52;000.469;MIDI 01
031.074;000.121;76;000.578;MIDI 01
031.188;000.124;74;000.594;MIDI 01
031.305;000.092;72;000.586;MIDI 01
031.202;000.202;54;000.438;MIDI 01
031.401;000.054;71;000.578;MIDI 01
031.438;000.159;55;000.438;MIDI 01
031.523;000.141;74;000.609;MIDI 01
031.645;000.116;57;000.477;MIDI 01
031.632;000.144;72;000.602;MIDI 01
031.750;000.113;71;000.570;MIDI 01
031.863;000.039;59;000.469;MIDI 01
030.743;001.160;50;000.383;MIDI 01
031.855;000.093;69;000.602;MIDI 01
031.972;000.044;67;000.531;MIDI 01
032.098;000.053;73;000.586;MIDI 01
032.214;000.123;76;000.641;MIDI 01
032.335;000.124;79;000.633;MIDI 01
032.434;000.137;76;000.609;MIDI 01
032.103;000.498;52;000.469;MIDI 01
032.095;000.513;55;000.586;MIDI 01
032.105;000.546;50;000.422;MIDI 01
032.547;000.106;74;000.633;MIDI 01
032.657;000.078;73;000.562;MIDI 01
032.766;000.101;74;000.609;MIDI 01
032.873;000.115;78;000.609;MIDI 01
032.998;000.136;81;000.633;MIDI 01
032.778;000.445;57;000.617;MIDI 01
033.111;000.119;78;000.641;MIDI 01
032.792;000.531;50;000.539;MIDI 01
033.217;000.108;76;000.648;MIDI 01
032.785;000.546;54;000.555;MIDI 01
033.324;000.042;74;000.633;MIDI 01
033.449;000.047;76;000.727;MIDI 01
033.562;000.110;79;000.656;MIDI 01
033.674;000.126;83;000.633;MIDI 01
033.462;000.403;55;000.516;MIDI 01
033.785;000.116;79;000.664;MIDI 01
033.452;000.455;61;000.648;MIDI 01
033.465;000.446;50;000.508;MIDI 01
033.901;000.099;78;000.641;MIDI 01
034.000;000.033;76;000.625;MIDI 01
034.123;000.045;78;000.633;MIDI 01
034.230;000.149;81;000.602;MIDI 01
034.343;000.148;85;000.641;MIDI 01
034.114;000.458;62;000.664;MIDI 01
034.449;000.125;86;000.641;MIDI 01
034.560;000.117;81;000.680;MIDI 01
034.674;000.038;78;000.625;MIDI 01
034.117;000.685;50;000.500;MIDI 01
034.124;000.699;54;000.539;MIDI 01
034.824;000.338;74;000.656;MIDI 01
035.356;000.251;75;000.508;MIDI 01
034.837;000.819;62;000.516;MIDI 01
035.646;000.231;76;000.438;MIDI 01
035.668;000.459;61;000.367;MIDI 01
035.898;000.245;77;000.469;MIDI 01
036.184;000.110;60;000.297;MIDI 01
036.177;000.193;78;000.398;MIDI 01
036.453;000.027;79;000.617;MIDI 01
036.455;000.182;59;000.648;MIDI 01
036.693;000.027;79;000.523;MIDI 01
036.642;000.255;59;000.070;MIDI 01
036.909;000.028;79;000.594;MIDI 01
036.918;000.179;58;000.516;MIDI 01
037.118;000.074;79;000.422;MIDI 01
037.188;000.066;78;000.617;MIDI 01
037.258;000.080;76;000.547;MIDI 01
037.337;000.070;78;000.531;MIDI 01
037.135;000.364;57;000.531;MIDI 01
037.395;000.115;81;000.547;MIDI 01
037.494;000.091;78;000.516;MIDI 01
036.457;001.184;50;000.531;MIDI 01
037.630;000.035;54;000.367;MIDI 01
037.601;000.274;74;000.492;MIDI 01
037.861;000.033;83;000.547;MIDI 01
037.866;000.033;79;000.531;MIDI 01
037.876;000.068;55;000.523;MIDI 01
038.004;000.090;54;000.508;MIDI 01
038.087;000.029;79;000.508;MIDI 01
038.092;000.028;83;000.586;MIDI 01
038.098;000.069;55;000.555;MIDI 01
038.192;000.091;57;000.523;MIDI 01
038.308;000.045;79;000.438;MIDI 01
038.305;000.050;83;000.492;MIDI 01
038.326;000.048;59;000.438;MIDI 01
038.439;000.061;55;000.422;MIDI 01
038.556;000.172;78;000.461;MIDI 01
038.536;000.220;81;000.492;MIDI 01
038.796;000.099;84;000.500;MIDI 01
037.883;001.096;50;000.367;MIDI 01
038.558;000.426;60;000.469;MIDI 01
038.903;000.095;81;000.586;MIDI 01
038.998;000.043;78;000.562;MIDI 01
039.246;000.029;86;000.633;MIDI 01
039.476;000.042;86;000.664;MIDI 01
039.250;000.355;62;000.648;MIDI 01
039.236;000.461;59;000.586;MIDI 01
039.706;000.040;86;000.680;MIDI 01
039.710;000.152;57;000.562;MIDI 01
039.696;000.203;60;000.609;MIDI 01
039.948;000.048;85;000.547;MIDI 01
040.059;000.104;86;000.625;MIDI 01
040.181;000.105;88;000.594;MIDI 01
040.284;000.110;86;000.641;MIDI 01
039.946;000.462;59;000.609;MIDI 01
039.951;000.495;56;000.555;MIDI 01
040.402;000.114;89;000.625;MIDI 01
039.240;001.279;50;000.555;MIDI 01
040.501;000.114;86;000.633;MIDI 01
040.609;000.039;84;000.586;MIDI 01
040.860;000.043;84;000.617;MIDI 01
040.640;000.291;60;000.648;MIDI 01
040.638;000.438;57;000.570;MIDI 01
041.084;000.042;84;000.586;MIDI 01
041.091;000.174;55;000.500;MIDI 01
041.075;000.229;59;000.508;MIDI 01
041.333;000.047;83;000.508;MIDI 01
041.457;000.072;84;000.547;MIDI 01
041.565;000.105;86;000.578;MIDI 01
041.668;000.104;84;000.602;MIDI 01
041.339;000.475;57;000.484;MIDI 01
041.358;000.457;54;000.406;MIDI 01
040.646;001.214;50;000.570;MIDI 01
041.794;000.076;88;000.586;MIDI 01
041.880;000.032;84;000.523;MIDI 01
042.013;000.119;84;000.547;MIDI 01
042.010;000.228;59;000.547;MIDI 01
042.134;000.105;83;000.578;MIDI 01
042.032;000.232;55;000.430;MIDI 01
042.266;000.097;86;000.523;MIDI 01
042.380;000.096;83;000.547;MIDI 01
042.494;000.044;62;000.453;MIDI 01
042.489;000.051;59;000.422;MIDI 01
042.480;000.071;81;000.531;MIDI 01
042.566;000.026;79;000.461;MIDI 01
042.677;000.103;79;000.602;MIDI 01
042.785;000.104;78;000.578;MIDI 01
042.688;000.204;60;000.477;MIDI 01
042.685;000.230;57;000.438;MIDI 01
042.900;000.120;81;000.586;MIDI 01
043.020;000.108;78;000.570;MIDI 01
043.154;000.042;54;000.375;MIDI 01
043.128;000.076;57;000.414;MIDI 01
043.119;000.092;76;000.562;MIDI 01
043.228;000.034;74;000.539;MIDI 01
043.331;000.114;72;000.625;MIDI 01
043.445;000.106;71;000.578;MIDI 01
043.343;000.223;59;000.531;MIDI 01
043.341;000.253;55;000.516;MIDI 01
043.551;000.115;74;000.578;MIDI 01
043.677;000.069;71;000.484;MIDI 01
043.759;000.045;69;000.547;MIDI 01
043.774;000.043;62;000.430;MIDI 01
043.780;000.040;59;000.367;MIDI 01
043.879;000.031;67;000.609;MIDI 01
043.981;000.115;67;000.633;MIDI 01
043.968;000.180;60;000.438;MIDI 01
043.967;000.217;57;000.391;MIDI 01
044.103;000.101;66;000.547;MIDI 01
044.224;000.092;69;000.492;MIDI 01
044.325;000.065;66;000.453;MIDI 01
044.409;000.057;57;000.273;MIDI 01
044.425;000.044;62;000.477;MIDI 01
044.467;000.055;54;000.148;MIDI 01
044.531;000.028;72;000.516;MIDI 01
042.034;002.551;50;000.398;MIDI 01
044.642;000.040;72;000.602;MIDI 01
044.777;000.039;71;000.438;MIDI 01
044.867;000.038;76;000.570;MIDI 01
044.985;000.039;74;000.531;MIDI 01
044.665;000.414;55;000.438;MIDI 01
045.094;000.064;79;000.562;MIDI 01
045.204;000.040;78;000.453;MIDI 01
045.304;000.150;81;000.562;MIDI 01
045.431;000.095;79;000.516;MIDI 01
045.547;000.103;83;000.484;MIDI 01
045.644;000.106;81;000.578;MIDI 01
045.758;000.091;79;000.516;MIDI 01
045.865;000.101;78;000.523;MIDI 01
045.990;000.097;79;000.492;MIDI 01
046.105;000.041;78;000.516;MIDI 01
046.208;000.047;76;000.484;MIDI 01
046.324;000.065;74;000.398;MIDI 01
046.441;000.065;72;000.391;MIDI 01
046.581;000.041;71;000.219;MIDI 01
046.693;000.033;69;000.359;MIDI 01
046.697;000.070;61;000.344;MIDI 01
046.845;000.045;64;000.266;MIDI 01
046.928;000.039;69;000.266;MIDI 01
046.926;000.068;61;000.398;MIDI 01
047.028;000.069;64;000.359;MIDI 01
047.133;000.034;69;000.352;MIDI 01
047.136;000.068;61;000.398;MIDI 01
047.237;000.062;64;000.461;MIDI 01
047.357;000.031;70;000.477;MIDI 01
047.384;000.043;62;000.344;MIDI 01
047.456;000.064;65;000.430;MIDI 01
047.585;000.038;70;000.312;MIDI 01
047.562;000.070;62;000.383;MIDI 01
047.676;000.067;65;000.367;MIDI 01
047.783;000.040;70;000.430;MIDI 01
047.785;000.045;62;000.391;MIDI 01
047.877;000.036;65;000.375;MIDI 01
048.006;000.024;71;000.453;MIDI 01
048.010;000.065;63;000.391;MIDI 01
048.135;000.055;66;000.422;MIDI 01
048.216;000.028;71;000.375;MIDI 01
048.233;000.062;63;000.438;MIDI 01
048.350;000.062;66;000.430;MIDI 01
048.442;000.032;71;000.328;MIDI 01
048.457;000.091;63;000.477;MIDI 01
048.557;000.081;66;000.492;MIDI 01
048.655;000.025;72;000.539;MIDI 01
048.668;000.071;64;000.531;MIDI 01
048.784;000.084;67;000.516;MIDI 01
048.867;000.036;72;000.453;MIDI 01
048.896;000.070;64;000.469;MIDI 01
048.997;000.075;67;000.539;MIDI 01
049.081;000.034;72;000.516;MIDI 01
049.107;000.051;64;000.484;MIDI 01
049.198;000.048;67;000.484;MIDI 01
049.298;000.031;73;000.570;MIDI 01
049.274;000.081;64;000.531;MIDI 01
049.370;000.053;67;000.570;MIDI 01
049.448;000.058;69;000.477;MIDI 01
049.510;000.031;73;000.469;MIDI 01
049.513;000.087;64;000.523;MIDI 01
049.583;000.119;67;000.469;MIDI 01
049.728;000.023;73;000.492;MIDI 01
049.756;000.066;64;000.547;MIDI 01
049.693;000.175;69;000.406;MIDI 01
049.852;000.073;67;000.516;MIDI 01
049.920;000.204;62;000.617;MIDI 01
050.135;000.049;67;000.375;MIDI 01
050.192;000.027;71;000.430;MIDI 01
050.194;000.035;74;000.516;MIDI 01
050.260;000.051;79;000.523;MIDI 01
050.388;000.080;86;000.617;MIDI 01
050.324;000.186;83;000.531;MIDI 01
050.510;000.028;81;000.406;MIDI 01
050.494;000.060;79;000.539;MIDI 01
050.554;000.021;74;000.523;MIDI 01
050.785;000.069;83;000.664;MIDI 01
050.903;000.044;81;000.586;MIDI 01
051.000;000.033;83;000.547;MIDI 01
051.078;000.035;81;000.570;MIDI 01
051.114;000.046;83;000.555;MIDI 01
051.185;000.051;81;000.578;MIDI 01
050.783;000.460;60;000.609;MIDI 01
051.241;000.046;83;000.516;MIDI 01
050.790;000.573;50;000.516;MIDI 01
051.305;000.065;81;000.578;MIDI 01
050.788;000.623;54;000.555;MIDI 01
051.379;000.045;79;000.531;MIDI 01
051.469;000.083;81;000.477;MIDI 01
051.562;000.128;79;000.555;MIDI 01
051.580;000.128;59;000.430;MIDI 01
051.584;000.131;55;000.359;MIDI 01
052.305;000.002;71;000.312;MIDI 01
052.294;000.030;74;000.422;MIDI 01
052.612;000.040;74;000.312;MIDI 01
052.600;000.114;71;000.445;MIDI 01
052.668;000.094;76;000.562;MIDI 01
052.761;000.033;72;000.508;MIDI 01
052.799;000.027;69;000.406;MIDI 01
053.003;000.030;67;000.578;MIDI 01
053.005;000.031;71;000.578;MIDI 01
053.267;000.057;71;000.414;MIDI 01
053.263;000.113;67;000.438;MIDI 01
053.343;000.082;72;000.531;MIDI 01
053.434;000.033;69;000.547;MIDI 01
053.453;000.036;62;000.461;MIDI 01
053.685;000.035;67;000.531;MIDI 01
053.688;000.035;59;000.539;MIDI 01
053.921;000.031;67;000.508;MIDI 01
053.919;000.035;59;000.453;MIDI 01
054.145;000.029;69;000.562;MIDI 01
054.151;000.026;62;000.508;MIDI 01
054.400;000.239;72;000.516;MIDI 01
054.408;000.234;69;000.406;MIDI 01
054.639;000.043;71;000.469;MIDI 01
054.647;000.036;67;000.438;MIDI 01
054.901;000.028;69;000.398;MIDI 01
054.926;000.045;62;000.234;MIDI 01
055.166;000.022;71;000.500;MIDI 01
055.161;000.029;74;000.586;MIDI 01
055.409;000.065;86;000.594;MIDI 01
055.413;000.126;74;000.523;MIDI 01
055.436;000.157;71;000.430;MIDI 01
055.511;000.090;88;000.516;MIDI 01
055.518;000.094;76;000.547;MIDI 01
055.590;000.033;86;000.586;MIDI 01
055.592;000.033;69;000.562;MIDI 01
055.594;000.033;72;000.570;MIDI 01
055.821;000.028;67;000.633;MIDI 01
055.823;000.034;71;000.625;MIDI 01
056.070;000.071;86;000.578;MIDI 01
056.069;000.102;71;000.547;MIDI 01
056.066;000.117;67;000.438;MIDI 01
056.156;000.090;88;000.539;MIDI 01
056.147;000.103;72;000.586;MIDI 01
056.250;000.020;86;000.562;MIDI 01
056.227;000.056;69;000.602;MIDI 01
056.254;000.040;62;000.539;MIDI 01
056.495;000.036;67;000.609;MIDI 01
056.506;000.026;59;000.516;MIDI 01
056.746;000.079;86;000.594;MIDI 01
056.742;000.096;59;000.547;MIDI 01
056.875;000.068;88;000.414;MIDI 01
056.954;000.019;86;000.539;MIDI 01
056.744;000.248;67;000.625;MIDI 01
056.965;000.031;62;000.586;MIDI 01
056.964;000.044;69;000.617;MIDI 01
057.210;000.235;69;000.578;MIDI 01
057.197;000.260;72;000.625;MIDI 01
057.429;000.033;67;000.547;MIDI 01
057.431;000.039;71;000.555;MIDI 01
057.433;000.057;86;000.555;MIDI 01
057.544;000.116;88;000.438;MIDI 01
057.640;000.023;86;000.562;MIDI 01
057.644;000.033;69;000.586;MIDI 01
057.653;000.033;62;000.516;MIDI 01
057.888;000.034;69;000.594;MIDI 01
057.892;000.033;62;000.508;MIDI 01
058.140;000.057;86;000.516;MIDI 01
058.121;000.172;62;000.539;MIDI 01
058.245;000.091;88;000.484;MIDI 01
058.116;000.245;69;000.625;MIDI 01
058.351;000.025;67;000.469;MIDI 01
058.345;000.034;86;000.570;MIDI 01
058.347;000.049;71;000.578;MIDI 01
058.612;000.256;71;000.555;MIDI 01
058.604;000.272;74;000.578;MIDI 01
058.845;000.050;86;000.516;MIDI 01
058.835;000.078;69;000.594;MIDI 01
058.826;000.104;72;000.578;MIDI 01
058.979;000.099;88;000.383;MIDI 01
059.052;000.036;71;000.602;MIDI 01
059.069;000.022;86;000.477;MIDI 01
059.061;000.032;67;000.547;MIDI 01
059.580;000.044;86;000.500;MIDI 01
059.324;000.448;62;000.555;MIDI 01
059.681;000.099;88;000.531;MIDI 01
059.779;000.034;86;000.547;MIDI 01
059.316;000.509;69;000.594;MIDI 01
059.791;000.251;67;000.516;MIDI 01
059.781;000.294;71;000.594;MIDI 01
060.325;000.049;86;000.570;MIDI 01
060.428;000.078;88;000.562;MIDI 01
060.519;000.024;86;000.508;MIDI 01
060.056;000.494;69;000.562;MIDI 01
060.040;000.525;72;000.594;MIDI 01
060.542;000.044;67;000.477;MIDI 01
060.534;000.067;71;000.492;MIDI 01
060.808;000.325;62;000.398;MIDI 01
061.115;000.035;86;000.305;MIDI 01
060.805;000.372;69;000.445;MIDI 01
061.186;000.090;88;000.398;MIDI 01
061.269;000.054;86;000.461;MIDI 01
061.252;000.073;71;000.422;MIDI 01
061.296;000.043;67;000.273;MIDI 01
061.801;000.030;86;000.445;MIDI 01
061.510;000.378;72;000.367;MIDI 01
061.490;000.408;69;000.414;MIDI 01
061.903;000.053;88;000.297;MIDI 01
061.985;000.032;71;000.391;MIDI 01
061.977;000.043;86;000.406;MIDI 01
061.999;000.033;67;000.352;MIDI 01
062.260;000.283;62;000.328;MIDI 01
062.495;000.056;86;000.453;MIDI 01
062.252;000.355;66;000.367;MIDI 01
062.254;000.357;69;000.398;MIDI 01
062.711;000.038;86;000.492;MIDI 01
062.616;000.135;88;000.398;MIDI 01
062.721;000.054;67;000.391;MIDI 01
062.695;000.086;71;000.477;MIDI 01
063.229;000.062;86;000.516;MIDI 01
062.975;000.351;62;000.461;MIDI 01
063.344;000.076;88;000.398;MIDI 01
062.968;000.465;69;000.539;MIDI 01
062.972;000.468;66;000.469;MIDI 01
063.444;000.023;86;000.453;MIDI 01
063.421;000.196;71;000.539;MIDI 01
063.446;000.231;67;000.469;MIDI 01
064.020;000.065;86;000.461;MIDI 01
063.734;000.395;62;000.391;MIDI 01
063.723;000.499;69;000.477;MIDI 01
064.140;000.114;88;000.352;MIDI 01
063.722;000.558;66;000.453;MIDI 01
064.259;000.028;86;000.445;MIDI 01
064.230;000.232;71;000.391;MIDI 01
064.261;000.336;67;000.359;MIDI 01
064.699;001.824;62;000.250;MIDI 01
064.667;001.901;69;000.312;MIDI 01
064.669;001.914;66;000.273;MIDI 01
067.317;000.142;70;000.664;MIDI 01
067.441;000.117;65;000.602;MIDI 01
067.557;000.057;62;000.586;MIDI 01
067.668;000.144;74;000.656;MIDI 01
067.785;000.092;70;000.562;MIDI 01
067.884;000.055;65;000.656;MIDI 01
067.993;000.124;77;000.656;MIDI 01
068.112;000.074;74;000.602;MIDI 01
068.227;000.055;70;000.656;MIDI 01
068.348;000.109;82;000.602;MIDI 01
068.457;000.106;77;000.578;MIDI 01
068.572;000.045;74;000.641;MIDI 01
068.685;000.139;86;000.656;MIDI 01
068.802;000.094;82;000.609;MIDI 01
068.906;000.065;77;000.625;MIDI 01
069.015;000.140;89;000.688;MIDI 01
067.323;001.834;53;000.531;MIDI 01
067.331;001.872;50;000.469;MIDI 01
067.311;001.898;58;000.680;MIDI 01
067.319;001.921;46;000.578;MIDI 01
069.127;000.115;86;000.617;MIDI 01
069.236;000.053;82;000.625;MIDI 01
069.357;000.126;87;000.695;MIDI 01
069.506;000.022;83;000.484;MIDI 01
069.487;000.070;84;000.523;MIDI 01
069.586;000.054;81;000.664;MIDI 01
069.707;000.131;84;000.648;MIDI 01
069.822;000.098;81;000.641;MIDI 01
069.935;000.091;75;000.586;MIDI 01
070.052;000.074;81;000.617;MIDI 01
070.168;000.052;75;000.586;MIDI 01
070.273;000.075;72;000.562;MIDI 01
070.378;000.111;75;000.578;MIDI 01
070.496;000.094;72;000.586;MIDI 01
070.605;000.049;69;000.625;MIDI 01
070.723;000.120;72;000.609;MIDI 01
070.829;000.105;69;000.633;MIDI 01
070.939;000.111;63;000.602;MIDI 01
069.355;001.798;51;000.562;MIDI 01
069.343;001.824;57;000.664;MIDI 01
071.056;000.115;69;000.602;MIDI 01
069.353;001.869;48;000.523;MIDI 01
071.179;000.075;63;000.562;MIDI 01
069.350;001.949;46;000.555;MIDI 01
071.270;000.041;60;000.570;MIDI 01
071.412;000.221;70;000.656;MIDI 01
071.586;000.102;65;000.508;MIDI 01
071.710;000.046;62;000.547;MIDI 01
071.816;000.179;74;000.680;MIDI 01
071.939;000.117;70;000.562;MIDI 01
072.075;000.057;65;000.594;MIDI 01
072.183;000.147;77;000.688;MIDI 01
072.312;000.086;74;000.594;MIDI 01
072.446;000.039;70;000.555;MIDI 01
072.533;000.181;82;000.656;MIDI 01
072.660;000.125;77;000.531;MIDI 01
072.794;000.062;74;000.594;MIDI 01
072.909;000.174;86;000.695;MIDI 01
073.035;000.121;82;000.562;MIDI 01
073.166;000.066;77;000.602;MIDI 01
073.276;000.140;89;000.719;MIDI 01
071.418;002.009;58;000.617;MIDI 01
071.440;001.992;50;000.422;MIDI 01
071.442;002.008;53;000.438;MIDI 01
071.423;002.056;46;000.516;MIDI 01
073.406;000.124;86;000.609;MIDI 01
073.530;000.039;82;000.570;MIDI 01
073.656;000.156;87;000.711;MIDI 01
073.798;000.112;84;000.531;MIDI 01
073.924;000.040;81;000.594;MIDI 01
074.050;000.128;84;000.633;MIDI 01
074.166;000.107;81;000.617;MIDI 01
074.287;000.059;75;000.531;MIDI 01
074.399;000.125;81;000.625;MIDI 01
074.519;000.084;75;000.594;MIDI 01
074.658;000.054;72;000.516;MIDI 01
074.761;000.148;75;000.547;MIDI 01
074.896;000.083;72;000.453;MIDI 01
075.016;000.036;69;000.547;MIDI 01
075.134;000.121;72;000.586;MIDI 01
075.263;000.117;69;000.578;MIDI 01
075.399;000.071;63;000.484;MIDI 01
075.526;000.111;69;000.484;MIDI 01
073.659;002.058;57;000.539;MIDI 01
073.654;002.072;46;000.516;MIDI 01
075.636;000.092;63;000.477;MIDI 01
073.669;002.075;48;000.430;MIDI 01
073.681;002.065;51;000.438;MIDI 01
075.776;000.033;60;000.375;MIDI 01
075.933;000.222;70;000.609;MIDI 01
076.100;000.136;65;000.500;MIDI 01
076.214;000.053;62;000.547;MIDI 01
075.940;000.537;58;000.586;MIDI 01
076.335;000.144;74;000.664;MIDI 01
076.445;000.119;70;000.609;MIDI 01
075.942;000.632;46;000.547;MIDI 01
076.558;000.047;65;000.617;MIDI 01
076.684;000.195;70;000.672;MIDI 01
076.803;000.146;65;000.586;MIDI 01
076.915;000.083;62;000.617;MIDI 01
076.664;000.541;57;000.609;MIDI 01
077.041;000.179;74;000.656;MIDI 01
077.169;000.120;70;000.617;MIDI 01
077.273;000.057;65;000.602;MIDI 01
076.661;000.679;45;000.562;MIDI 01
077.416;000.181;71;000.648;MIDI 01
077.562;000.133;65;000.547;MIDI 01
077.689;000.047;62;000.547;MIDI 01
077.404;000.468;56;000.625;MIDI 01
077.823;000.095;74;000.523;MIDI 01
077.933;000.085;71;000.461;MIDI 01
078.037;000.031;65;000.453;MIDI 01
077.408;000.698;44;000.570;MIDI 01
078.234;000.175;71;000.398;MIDI 01
078.404;000.110;65;000.375;MIDI 01
078.524;000.040;62;000.383;MIDI 01
078.221;000.392;55;000.320;MIDI 01
078.619;000.121;74;000.555;MIDI 01
078.749;000.096;71;000.469;MIDI 01
078.220;000.669;43;000.281;MIDI 01
078.859;000.047;65;000.438;MIDI 01
079.004;000.109;71;000.484;MIDI 01
079.106;000.105;66;000.508;MIDI 01
079.231;000.048;62;000.516;MIDI 01
078.968;000.372;54;000.289;MIDI 01
079.346;000.110;74;000.531;MIDI 01
078.974;000.541;42;000.273;MIDI 01
079.473;000.070;71;000.461;MIDI 01
079.557;000.045;66;000.500;MIDI 01
079.713;000.101;71;000.469;MIDI 01
079.814;000.107;68;000.461;MIDI 01
079.695;000.281;53;000.359;MIDI 01
079.938;000.066;62;000.484;MIDI 01
079.704;000.360;41;000.281;MIDI 01
080.077;000.108;74;000.531;MIDI 01
080.190;000.101;71;000.484;MIDI 01
080.281;000.068;68;000.570;MIDI 01
080.456;000.190;71;000.586;MIDI 01
080.596;000.148;68;000.539;MIDI 01
080.701;000.061;62;000.586;MIDI 01
080.810;000.156;74;000.688;MIDI 01
080.922;000.124;71;000.578;MIDI 01
081.023;000.064;68;000.602;MIDI 01
081.155;000.164;77;000.656;MIDI 01
081.275;000.112;74;000.625;MIDI 01
081.381;000.066;71;000.586;MIDI 01
080.402;001.120;47;000.594;MIDI 01
080.369;001.174;44;000.617;MIDI 01
080.433;001.184;52;000.664;MIDI 01
080.346;001.281;40;000.516;MIDI 01
081.482;000.185;83;000.688;MIDI 01
081.616;000.097;80;000.555;MIDI 01
081.711;000.038;74;000.586;MIDI 01
081.883;000.190;72;000.703;MIDI 01
082.027;000.125;69;000.562;MIDI 01
082.147;000.051;64;000.594;MIDI 01
082.266;000.172;76;000.703;MIDI 01
082.398;000.126;72;000.562;MIDI 01
082.524;000.045;69;000.609;MIDI 01
082.635;000.231;81;000.711;MIDI 01
082.778;000.146;76;000.523;MIDI 01
082.894;000.075;72;000.617;MIDI 01
081.878;001.237;45;000.570;MIDI 01
081.871;001.259;48;000.625;MIDI 01
081.875;001.289;52;000.664;MIDI 01
083.009;000.168;84;000.688;MIDI 01
081.880;001.376;40;000.609;MIDI 01
083.130;000.136;81;000.617;MIDI 01
083.256;000.048;76;000.617;MIDI 01
083.399;000.149;81;000.695;MIDI 01
083.532;000.104;78;000.602;MIDI 01
083.641;000.104;75;000.609;MIDI 01
083.763;000.106;78;000.625;MIDI 01
083.876;000.066;75;000.555;MIDI 01
083.970;000.069;72;000.547;MIDI 01
084.086;000.103;75;000.594;MIDI 01
084.189;000.109;72;000.570;MIDI 01
084.302;000.035;69;000.609;MIDI 01
083.407;001.110;45;000.516;MIDI 01
083.409;001.115;42;000.539;MIDI 01
084.414;000.134;72;000.602;MIDI 01
083.390;001.180;51;000.703;MIDI 01
083.405;001.167;40;000.562;MIDI 01
084.534;000.108;69;000.625;MIDI 01
084.636;000.055;66;000.641;MIDI 01
084.777;000.130;76;000.688;MIDI 01
084.917;000.111;71;000.578;MIDI 01
085.027;000.122;68;000.625;MIDI 01
085.153;000.103;71;000.602;MIDI 01
085.261;000.086;68;000.594;MIDI 01
085.378;000.060;64;000.562;MIDI 01
085.489;000.105;68;000.562;MIDI 01
085.593;000.096;64;000.570;MIDI 01
085.713;000.041;59;000.578;MIDI 01
085.834;000.119;64;000.594;MIDI 01
084.776;001.198;52;000.602;MIDI 01
084.783;001.281;40;000.508;MIDI 01
084.786;001.284;47;000.500;MIDI 01
085.950;000.123;59;000.586;MIDI 01
084.791;001.289;44;000.500;MIDI 01
086.069;000.059;56;000.656;MIDI 01
086.239;001.916;52;000.633;MIDI 01
086.259;001.918;40;000.469;MIDI 01
088.464;000.108;53;000.273;MIDI 01
088.500;000.089;41;000.266;MIDI 01
088.713;000.054;54;000.352;MIDI 01
088.733;000.058;42;000.289;MIDI 01
088.945;000.043;55;000.375;MIDI 01
088.966;000.058;43;000.156;MIDI 01
089.159;000.042;44;000.297;MIDI 01
089.155;000.048;56;000.383;MIDI 01
089.432;000.433;45;000.234;MIDI 01
089.417;000.517;57;000.352;MIDI 01
089.882;000.207;58;000.234;MIDI 01
089.880;000.245;46;000.211;MIDI 01
090.145;000.168;47;000.266;MIDI 01
090.122;000.234;59;000.336;MIDI 01
090.342;000.216;48;000.305;MIDI 01
090.351;000.275;60;000.320;MIDI 01
090.589;000.210;61;000.344;MIDI 01
090.580;000.240;49;000.320;MIDI 01
090.855;000.446;50;000.250;MIDI 01
090.864;000.469;62;000.320;MIDI 01
091.308;000.198;63;000.281;MIDI 01
091.305;000.247;51;000.297;MIDI 01
091.558;000.158;52;000.273;MIDI 01
091.541;000.195;64;000.352;MIDI 01
091.771;000.189;65;000.305;MIDI 01
091.748;000.244;53;000.305;MIDI 01
091.984;000.218;66;000.328;MIDI 01
092.011;000.236;54;000.258;MIDI 01
092.290;000.427;55;000.156;MIDI 01
092.260;000.458;67;000.281;MIDI 01
092.723;000.226;68;000.242;MIDI 01
092.739;000.252;56;000.234;MIDI 01
092.995;000.230;69;000.258;MIDI 01
092.998;000.232;57;000.273;MIDI 01
093.225;000.253;70;000.281;MIDI 01
093.237;000.279;58;000.203;MIDI 01
093.471;000.073;59;000.312;MIDI 01
093.495;000.068;71;000.234;MIDI 01
093.722;000.029;72;000.453;MIDI 01
093.755;000.038;64;000.312;MIDI 01
093.761;000.041;60;000.266;MIDI 01
093.950;000.036;72;000.414;MIDI 01
093.959;000.052;60;000.305;MIDI 01
093.955;000.058;64;000.328;MIDI 01
094.158;000.048;72;000.438;MIDI 01
094.174;000.043;64;000.367;MIDI 01
094.193;000.040;60;000.289;MIDI 01
094.377;000.045;60;000.344;MIDI 01
094.405;000.037;65;000.320;MIDI 01
094.396;000.062;71;000.430;MIDI 01
094.640;000.040;60;000.273;MIDI 01
094.615;000.084;74;000.461;MIDI 01
094.646;000.060;65;000.102;MIDI 01
094.717;000.076;71;000.492;MIDI 01
094.811;000.039;67;000.453;MIDI 01
094.838;000.033;65;000.352;MIDI 01
094.835;000.040;60;000.297;MIDI 01
095.075;000.058;64;000.430;MIDI 01
095.090;000.046;60;000.219;MIDI 01
095.044;000.107;72;000.391;MIDI 01
095.154;000.091;76;000.438;MIDI 01
095.301;000.051;60;000.297;MIDI 01
095.304;000.049;64;000.320;MIDI 01
095.259;000.111;74;000.500;MIDI 01
095.380;000.114;72;000.477;MIDI 01
095.489;000.054;64;000.414;MIDI 01
095.509;000.048;60;000.375;MIDI 01
095.493;000.098;71;000.500;MIDI 01
095.601;000.117;69;000.492;MIDI 01
095.740;000.038;62;000.359;MIDI 01
095.744;000.043;59;000.328;MIDI 01
095.956;000.057;62;000.328;MIDI 01
095.966;000.061;59;000.289;MIDI 01
096.192;000.049;62;000.383;MIDI 01
096.203;000.061;59;000.344;MIDI 01
095.736;000.624;67;000.438;MIDI 01
096.424;000.026;65;000.445;MIDI 01
096.654;000.210;65;000.375;MIDI 01
096.430;000.438;60;000.398;MIDI 01
096.459;000.418;57;000.297;MIDI 01
096.828;000.054;67;000.398;MIDI 01
096.882;000.046;64;000.492;MIDI 01
096.903;000.034;59;000.367;MIDI 01
096.920;000.044;55;000.344;MIDI 01
097.101;000.044;62;000.523;MIDI 01
097.334;000.202;62;000.484;MIDI 01
097.117;000.424;57;000.383;MIDI 01
097.133;000.420;53;000.328;MIDI 01
097.509;000.053;64;000.391;MIDI 01
097.553;000.044;60;000.484;MIDI 01
097.575;000.048;52;000.398;MIDI 01
097.765;000.029;59;000.453;MIDI 01
097.770;000.053;53;000.398;MIDI 01
097.800;000.041;50;000.312;MIDI 01
097.994;000.029;65;000.406;MIDI 01
097.985;000.041;62;000.461;MIDI 01
098.006;000.034;47;000.375;MIDI 01
098.203;000.041;64;000.445;MIDI 01
098.215;000.032;60;000.367;MIDI 01
098.221;000.032;48;000.391;MIDI 01
098.494;000.059;59;000.297;MIDI 01
098.516;000.066;43;000.297;MIDI 01
098.478;000.115;62;000.312;MIDI 01
099.073;000.225;79;000.320;MIDI 01
099.308;000.027;84;000.391;MIDI 01
099.518;000.036;84;000.453;MIDI 01
099.526;000.030;75;000.367;MIDI 01
099.525;000.042;68;000.359;MIDI 01
099.723;000.036;84;000.562;MIDI 01
099.739;000.030;66;000.414;MIDI 01
099.725;000.053;75;000.375;MIDI 01
099.942;000.044;84;000.484;MIDI 01
099.993;000.057;83;000.562;MIDI 01
100.090;000.029;81;000.500;MIDI 01
099.960;000.239;74;000.414;MIDI 01
099.979;000.254;67;000.344;MIDI 01
100.189;000.050;86;000.523;MIDI 01
100.254;000.119;83;000.398;MIDI 01
100.402;000.058;79;000.461;MIDI 01
100.411;000.216;67;000.445;MIDI 01
100.656;000.029;72;000.398;MIDI 01
100.763;000.084;84;000.430;MIDI 01
100.888;000.035;72;000.328;MIDI 01
100.873;000.090;83;000.422;MIDI 01
100.989;000.050;82;000.461;MIDI 01
101.080;000.043;72;000.375;MIDI 01
101.075;000.070;81;000.445;MIDI 01
101.181;000.122;80;000.469;MIDI 01
101.335;000.213;71;000.297;MIDI 01
101.556;000.068;74;000.430;MIDI 01
101.315;000.319;79;000.383;MIDI 01
101.684;000.048;71;000.477;MIDI 01
101.775;000.239;67;000.469;MIDI 01
102.036;000.023;72;000.484;MIDI 01
102.041;000.045;76;000.508;MIDI 01
102.148;000.127;88;000.641;MIDI 01
102.261;000.037;72;000.531;MIDI 01
102.255;000.133;84;000.688;MIDI 01
102.370;000.078;81;000.656;MIDI 01
102.464;000.039;72;000.508;MIDI 01
102.468;000.119;79;000.617;MIDI 01
102.580;000.093;78;000.594;MIDI 01
102.672;000.046;79;000.570;MIDI 01
102.692;000.199;71;000.562;MIDI 01
102.925;000.028;79;000.609;MIDI 01
102.929;000.052;74;000.523;MIDI 01
103.042;000.066;71;000.492;MIDI 01
103.111;000.051;79;000.391;MIDI 01
103.155;000.174;67;000.469;MIDI 01
103.366;000.025;69;000.656;MIDI 01
103.368;000.046;72;000.602;MIDI 01
103.473;000.103;84;000.602;MIDI 01
103.591;000.031;69;000.531;MIDI 01
103.580;000.125;81;000.586;MIDI 01
103.698;000.072;77;000.609;MIDI 01
103.814;000.031;69;000.586;MIDI 01
103.798;000.114;76;000.594;MIDI 01
103.911;000.106;75;000.578;MIDI 01
104.013;000.032;76;000.586;MIDI 01
104.023;000.219;67;000.664;MIDI 01
104.266;000.030;76;000.609;MIDI 01
104.273;000.057;71;000.523;MIDI 01
104.377;000.069;67;000.547;MIDI 01
104.468;000.034;76;000.461;MIDI 01
104.489;000.146;64;000.547;MIDI 01
104.717;000.025;65;000.688;MIDI 01
104.722;000.047;69;000.586;MIDI 01
104.832;000.047;65;000.188;MIDI 01
104.826;000.109;81;000.594;MIDI 01
104.950;000.032;65;000.617;MIDI 01
104.935;000.128;77;000.617;MIDI 01
105.052;000.106;74;000.602;MIDI 01
105.156;000.031;65;000.484;MIDI 01
105.158;000.059;72;000.609;MIDI 01
105.268;000.089;71;000.586;MIDI 01
105.354;000.029;72;000.617;MIDI 01
105.382;000.228;64;000.625;MIDI 01
105.621;000.030;72;000.602;MIDI 01
105.634;000.076;67;000.500;MIDI 01
105.754;000.066;64;000.445;MIDI 01
105.857;000.037;60;000.500;MIDI 01
105.853;000.116;76;000.609;MIDI 01
105.952;000.096;72;000.578;MIDI 01
106.054;000.031;69;000.578;MIDI 01
106.098;000.030;65;000.602;MIDI 01
106.302;000.064;62;000.586;MIDI 01
106.305;000.139;77;000.602;MIDI 01
106.398;000.115;74;000.617;MIDI 01
106.513;000.039;67;000.594;MIDI 01
106.517;000.037;71;000.617;MIDI 01
106.747;000.071;64;000.641;MIDI 01
106.758;000.132;79;000.641;MIDI 01
106.854;000.116;76;000.609;MIDI 01
106.959;000.038;73;000.656;MIDI 01
106.969;000.045;69;000.688;MIDI 01
107.200;000.065;65;000.633;MIDI 01
107.211;000.159;81;000.672;MIDI 01
107.316;000.114;77;000.680;MIDI 01
107.468;000.186;74;000.617;MIDI 01
107.752;000.096;82;000.609;MIDI 01
107.469;000.494;70;000.711;MIDI 01
107.848;000.141;81;000.656;MIDI 01
107.960;000.100;79;000.672;MIDI 01
108.055;000.059;77;000.625;MIDI 01
108.168;000.126;76;000.703;MIDI 01
108.284;000.117;77;000.656;MIDI 01
108.401;000.128;79;000.648;MIDI 01
108.180;000.351;67;000.617;MIDI 01
108.175;000.407;70;000.641;MIDI 01
108.505;000.120;77;000.609;MIDI 01
108.611;000.095;76;000.633;MIDI 01
108.716;000.042;74;000.602;MIDI 01
108.847;000.105;69;000.484;MIDI 01
108.963;000.082;70;000.531;MIDI 01
109.090;000.064;69;000.539;MIDI 01
108.834;000.416;73;000.609;MIDI 01
109.194;000.095;67;000.547;MIDI 01
109.311;000.082;65;000.523;MIDI 01
109.330;000.123;69;000.492;MIDI 01
109.432;000.081;64;000.500;MIDI 01
109.545;000.094;62;000.547;MIDI 01
109.564;000.100;74;000.578;MIDI 01
109.662;000.101;60;000.531;MIDI 01
109.771;000.085;58;000.562;MIDI 01
109.776;000.089;74;000.602;MIDI 01
109.883;000.095;57;000.562;MIDI 01
110.056;000.002;53;000.047;MIDI 01
109.984;000.078;74;000.641;MIDI 01
109.993;000.106;55;000.547;MIDI 01
110.110;000.105;53;000.148;MIDI 01
110.194;000.073;74;000.641;MIDI 01
110.198;000.078;76;000.586;MIDI 01
110.220;000.075;55;000.633;MIDI 01
110.322;000.113;57;000.555;MIDI 01
110.429;000.040;76;000.570;MIDI 01
110.418;000.069;74;000.617;MIDI 01
110.439;000.088;58;000.594;MIDI 01
110.548;000.086;57;000.555;MIDI 01
110.669;000.048;76;000.430;MIDI 01
110.641;000.085;74;000.547;MIDI 01
110.659;000.086;55;000.555;MIDI 01
110.772;000.096;53;000.539;MIDI 01
110.878;000.055;79;000.508;MIDI 01
110.883;000.051;73;000.547;MIDI 01
110.900;000.104;52;000.516;MIDI 01
111.004;000.055;53;000.555;MIDI 01
111.110;000.052;73;000.586;MIDI 01
111.097;000.076;55;000.594;MIDI 01
111.108;000.077;79;000.555;MIDI 01
111.211;000.103;45;000.570;MIDI 01
111.319;000.081;76;000.633;MIDI 01
111.321;000.081;47;000.531;MIDI 01
111.315;000.090;79;000.641;MIDI 01
111.423;000.109;49;000.633;MIDI 01
111.530;000.069;76;000.633;MIDI 01
111.532;000.089;77;000.625;MIDI 01
111.536;000.106;50;000.594;MIDI 01
111.661;000.117;48;000.633;MIDI 01
111.765;000.058;74;000.539;MIDI 01
111.770;000.100;46;000.633;MIDI 01
111.772;000.100;77;000.508;MIDI 01
111.882;000.089;45;000.609;MIDI 01
112.004;000.049;74;000.492;MIDI 01
111.986;000.118;43;000.602;MIDI 01
112.008;000.098;77;000.547;MIDI 01
112.112;000.098;41;000.609;MIDI 01
112.219;000.062;43;000.609;MIDI 01
112.224;000.072;74;000.602;MIDI 01
112.231;000.102;82;000.586;MIDI 01
112.305;000.127;45;000.586;MIDI 01
112.443;000.059;74;000.617;MIDI 01
112.433;000.079;46;000.594;MIDI 01
112.458;000.093;82;000.516;MIDI 01
112.545;000.082;45;000.570;MIDI 01
112.659;000.044;74;000.594;MIDI 01
112.664;000.079;43;000.555;MIDI 01
112.691;000.054;82;000.469;MIDI 01
112.773;000.099;41;000.539;MIDI 01
112.880;000.092;79;000.586;MIDI 01
112.882;000.101;82;000.578;MIDI 01
112.896;000.107;40;000.562;MIDI 01
113.010;000.068;41;000.570;MIDI 01
113.105;000.056;43;000.570;MIDI 01
113.111;000.091;79;000.578;MIDI 01
113.114;000.094;82;000.617;MIDI 01
113.213;000.114;36;000.539;MIDI 01
113.332;000.080;79;000.570;MIDI 01
113.319;000.096;82;000.609;MIDI 01
113.334;000.099;38;000.562;MIDI 01
113.450;000.082;40;000.594;MIDI 01
113.544;000.062;41;000.586;MIDI 01
113.546;000.082;79;000.672;MIDI 01
113.558;000.074;81;000.609;MIDI 01
113.667;000.101;40;000.539;MIDI 01
113.773;000.068;77;000.602;MIDI 01
113.768;000.079;81;000.633;MIDI 01
113.780;000.070;41;000.594;MIDI 01
113.894;000.052;43;000.523;MIDI 01
113.983;000.070;77;000.602;MIDI 01
113.982;000.073;81;000.641;MIDI 01
113.990;000.106;45;000.578;MIDI 01
114.108;000.090;46;000.578;MIDI 01
114.198;000.065;79;000.672;MIDI 01
114.196;000.071;77;000.664;MIDI 01
114.216;000.086;48;000.578;MIDI 01
114.319;000.116;47;000.609;MIDI 01
114.415;000.035;76;000.617;MIDI 01
114.408;000.061;79;000.625;MIDI 01
114.440;000.073;48;000.633;MIDI 01
114.532;000.064;50;000.555;MIDI 01
114.628;000.027;79;000.656;MIDI 01
114.636;000.031;70;000.578;MIDI 01
114.640;000.079;52;000.617;MIDI 01
114.760;000.100;48;000.547;MIDI 01
114.860;000.030;69;000.656;MIDI 01
114.854;000.097;53;000.594;MIDI 01
114.984;000.097;52;000.562;MIDI 01
115.092;000.025;77;000.656;MIDI 01
115.097;000.022;69;000.578;MIDI 01
115.086;000.070;53;000.586;MIDI 01
115.177;000.070;55;000.523;MIDI 01
115.286;000.042;77;000.398;MIDI 01
115.309;000.033;69;000.359;MIDI 01
115.291;000.080;57;000.531;MIDI 01
115.416;000.073;53;000.531;MIDI 01
115.510;000.026;76;000.695;MIDI 01
115.518;000.026;67;000.633;MIDI 01
115.516;000.031;60;000.562;MIDI 01
115.761;000.045;60;000.570;MIDI 01
115.855;000.087;62;000.477;MIDI 01
115.934;000.028;60;000.594;MIDI 01
115.938;000.027;69;000.641;MIDI 01
115.943;000.031;77;000.672;MIDI 01
116.173;000.022;79;000.688;MIDI 01
116.180;000.019;70;000.609;MIDI 01
116.429;000.040;60;000.492;MIDI 01
116.514;000.077;62;000.492;MIDI 01
116.591;000.029;60;000.523;MIDI 01
116.604;000.026;69;000.641;MIDI 01
116.608;000.026;77;000.641;MIDI 01
116.845;000.032;76;000.625;MIDI 01
116.854;000.025;67;000.531;MIDI 01
117.111;000.039;60;000.383;MIDI 01
117.190;000.061;62;000.461;MIDI 01
117.269;000.033;60;000.523;MIDI 01
117.289;000.023;77;000.500;MIDI 01
117.292;000.025;69;000.461;MIDI 01
117.514;000.030;79;000.578;MIDI 01
117.516;000.035;70;000.586;MIDI 01
117.779;000.037;60;000.352;MIDI 01
117.861;000.062;62;000.398;MIDI 01
117.935;000.028;60;000.469;MIDI 01
117.948;000.030;69;000.484;MIDI 01
117.957;000.029;77;000.477;MIDI 01
118.208;000.086;67;000.406;MIDI 01
118.213;000.119;76;000.438;MIDI 01
118.450;000.041;60;000.305;MIDI 01
118.551;000.058;62;000.367;MIDI 01
118.619;000.030;60;000.406;MIDI 01
118.627;000.035;69;000.430;MIDI 01
118.640;000.030;77;000.383;MIDI 01
118.907;000.094;67;000.359;MIDI 01
118.904;000.147;76;000.438;MIDI 01
119.150;000.040;60;000.258;MIDI 01
119.246;000.062;62;000.320;MIDI 01
119.312;000.036;60;000.422;MIDI 01
119.343;000.045;77;000.336;MIDI 01
119.365;000.048;69;000.203;MIDI 01
119.629;000.186;67;000.281;MIDI 01
119.840;000.094;60;000.320;MIDI 01
119.611;000.332;76;000.375;MIDI 01
119.958;000.073;64;000.430;MIDI 01
120.050;000.065;62;000.508;MIDI 01
120.152;000.037;65;000.438;MIDI 01
120.229;000.111;64;000.531;MIDI 01
120.360;000.097;67;000.539;MIDI 01
120.457;000.059;65;000.547;MIDI 01
120.556;000.068;69;000.469;MIDI 01
120.620;000.029;72;000.570;MIDI 01
120.636;000.093;67;000.539;MIDI 01
120.759;000.084;70;000.578;MIDI 01
120.855;000.024;77;000.617;MIDI 01
120.853;000.074;69;000.562;MIDI 01
120.945;000.080;72;000.586;MIDI 01
121.058;000.032;77;000.469;MIDI 01
121.070;000.042;69;000.578;MIDI 01
121.150;000.080;72;000.586;MIDI 01
121.271;000.027;77;000.586;MIDI 01
121.269;000.049;69;000.578;MIDI 01
121.348;000.122;72;000.594;MIDI 01
121.465;000.085;70;000.664;MIDI 01
121.470;000.082;76;000.695;MIDI 01
121.569;000.095;72;000.531;MIDI 01
121.690;000.053;70;000.547;MIDI 01
121.695;000.151;79;000.562;MIDI 01
121.799;000.057;72;000.516;MIDI 01
121.829;000.048;76;000.594;MIDI 01
121.861;000.029;84;000.594;MIDI 01
121.914;000.049;70;000.508;MIDI 01
121.999;000.108;72;000.531;MIDI 01
122.101;000.034;53;000.578;MIDI 01
122.107;000.074;69;000.570;MIDI 01
122.211;000.089;72;000.469;MIDI 01
122.328;000.030;53;000.531;MIDI 01
122.325;000.042;69;000.523;MIDI 01
122.422;000.083;72;000.461;MIDI 01
122.548;000.031;53;000.516;MIDI 01
122.523;000.058;69;000.484;MIDI 01
122.617;000.108;72;000.445;MIDI 01
122.729;000.072;53;000.586;MIDI 01
122.733;000.076;70;000.555;MIDI 01
122.774;000.091;52;000.609;MIDI 01
122.856;000.071;50;000.562;MIDI 01
122.819;000.121;72;000.508;MIDI 01
122.917;000.034;52;000.383;MIDI 01
122.956;000.067;70;000.547;MIDI 01
122.959;000.078;55;000.508;MIDI 01
123.037;000.102;52;000.578;MIDI 01
123.055;000.094;72;000.508;MIDI 01
123.165;000.030;48;000.445;MIDI 01
123.167;000.042;70;000.492;MIDI 01
123.265;000.082;72;000.422;MIDI 01
123.424;000.029;77;000.539;MIDI 01
123.426;000.052;68;000.359;MIDI 01
123.501;000.059;72;000.430;MIDI 01
123.634;000.059;68;000.328;MIDI 01
123.677;000.042;77;000.266;MIDI 01
123.717;000.071;72;000.398;MIDI 01
123.870;000.031;77;000.414;MIDI 01
123.855;000.056;68;000.383;MIDI 01
123.943;000.088;72;000.414;MIDI 01
124.088;000.051;70;000.430;MIDI 01
124.073;000.081;76;000.469;MIDI 01
124.180;000.049;72;000.422;MIDI 01
124.316;000.054;70;000.344;MIDI 01
124.303;000.172;79;000.430;MIDI 01
124.405;000.082;72;000.398;MIDI 01
124.422;000.070;76;000.430;MIDI 01
124.498;000.024;84;000.453;MIDI 01
124.528;000.035;70;000.359;MIDI 01
124.634;000.059;72;000.391;MIDI 01
124.749;000.044;68;000.375;MIDI 01
124.761;000.032;53;000.398;MIDI 01
124.833;000.073;72;000.461;MIDI 01
124.972;000.039;53;000.469;MIDI 01
124.956;000.058;68;000.297;MIDI 01
125.059;000.061;72;000.414;MIDI 01
125.188;000.034;53;000.438;MIDI 01
125.174;000.054;68;000.383;MIDI 01
125.266;000.084;72;000.398;MIDI 01
125.381;000.046;53;000.523;MIDI 01
125.389;000.055;70;000.477;MIDI 01
125.420;000.075;52;000.586;MIDI 01
125.495;000.079;50;000.547;MIDI 01
125.489;000.093;72;000.477;MIDI 01
125.574;000.036;52;000.453;MIDI 01
125.624;000.051;70;000.438;MIDI 01
125.620;000.065;55;000.453;MIDI 01
125.706;000.086;52;000.562;MIDI 01
125.739;000.056;72;000.430;MIDI 01
125.800;000.034;48;000.586;MIDI 01
125.824;000.046;70;000.422;MIDI 01
125.935;000.064;72;000.422;MIDI 01
126.061;000.024;77;000.672;MIDI 01
126.067;000.041;68;000.414;MIDI 01
126.130;000.100;72;000.531;MIDI 01
126.204;000.051;77;000.023;MIDI 01
126.282;000.028;77;000.578;MIDI 01
126.280;000.048;68;000.328;MIDI 01
126.364;000.070;72;000.539;MIDI 01
126.489;000.028;77;000.602;MIDI 01
126.493;000.052;68;000.438;MIDI 01
126.577;000.103;72;000.500;MIDI 01
126.708;000.052;70;000.516;MIDI 01
126.796;000.077;72;000.516;MIDI 01
126.698;000.189;76;000.703;MIDI 01
126.940;000.050;70;000.422;MIDI 01
127.031;000.065;72;000.492;MIDI 01
126.943;000.165;79;000.547;MIDI 01
127.050;000.093;76;000.594;MIDI 01
127.141;000.021;84;000.516;MIDI 01
127.136;000.047;70;000.445;MIDI 01
127.237;000.090;72;000.492;MIDI 01
127.364;000.022;53;000.586;MIDI 01
127.352;000.081;68;000.555;MIDI 01
127.439;000.082;72;000.547;MIDI 01
127.581;000.028;53;000.609;MIDI 01
127.575;000.062;68;000.555;MIDI 01
127.671;000.077;72;000.547;MIDI 01
127.782;000.036;53;000.602;MIDI 01
127.776;000.072;68;000.578;MIDI 01
127.884;000.094;72;000.570;MIDI 01
128.011;000.062;68;000.578;MIDI 01
128.025;000.054;66;000.555;MIDI 01
128.007;000.202;51;000.727;MIDI 01
128.117;000.110;72;000.594;MIDI 01
128.260;000.062;68;000.453;MIDI 01
128.262;000.097;66;000.484;MIDI 01
128.258;000.124;54;000.539;MIDI 01
128.364;000.105;51;000.578;MIDI 01
128.372;000.098;72;000.562;MIDI 01
128.453;000.044;48;000.602;MIDI 01
128.489;000.032;68;000.391;MIDI 01
128.491;000.049;66;000.438;MIDI 01
128.549;000.060;72;000.477;MIDI 01
128.676;000.033;49;000.625;MIDI 01
128.673;000.103;65;000.570;MIDI 01
128.810;000.095;68;000.547;MIDI 01
128.894;000.032;53;000.594;MIDI 01
128.923;000.054;65;000.508;MIDI 01
129.042;000.074;68;000.508;MIDI 01
129.128;000.085;65;000.562;MIDI 01
129.234;000.096;68;000.578;MIDI 01
129.124;000.208;56;000.562;MIDI 01
129.214;000.128;53;000.594;MIDI 01
129.351;000.095;65;000.523;MIDI 01
129.324;000.152;61;000.641;MIDI 01
129.471;000.094;68;000.547;MIDI 01
129.583;000.084;65;000.492;MIDI 01
129.700;000.069;68;000.500;MIDI 01
129.816;000.068;65;000.453;MIDI 01
129.921;000.072;68;000.469;MIDI 01
130.050;000.031;73;000.523;MIDI 01
130.034;000.052;65;000.438;MIDI 01
130.131;000.110;68;000.500;MIDI 01
130.272;000.030;77;000.594;MIDI 01
130.260;000.092;65;000.453;MIDI 01
130.395;000.069;68;000.453;MIDI 01
130.490;000.061;65;000.508;MIDI 01
130.488;000.188;80;000.586;MIDI 01
130.594;000.092;68;000.508;MIDI 01
130.585;000.105;77;000.586;MIDI 01
130.681;000.085;85;000.633;MIDI 01
130.709;000.090;65;000.484;MIDI 01
130.817;000.104;68;000.469;MIDI 01
130.950;000.076;65;000.430;MIDI 01
131.077;000.059;68;000.477;MIDI 01
131.185;000.048;65;000.414;MIDI 01
131.283;000.072;68;000.430;MIDI 01
131.381;000.036;49;000.469;MIDI 01
131.422;000.042;64;000.352;MIDI 01
131.507;000.090;68;000.367;MIDI 01
131.632;000.041;52;000.320;MIDI 01
131.634;000.057;64;000.305;MIDI 01
131.755;000.073;68;000.375;MIDI 01
131.855;000.085;64;000.391;MIDI 01
131.927;000.082;52;000.422;MIDI 01
131.860;000.166;56;000.320;MIDI 01
131.975;000.081;68;000.445;MIDI 01
132.049;000.064;61;000.484;MIDI 01
132.121;000.053;64;000.312;MIDI 01
132.210;000.079;68;000.445;MIDI 01
132.311;000.097;64;000.422;MIDI 01
132.442;000.074;68;000.438;MIDI 01
132.562;000.043;64;000.438;MIDI 01
132.640;000.095;68;000.539;MIDI 01
132.769;000.034;73;000.500;MIDI 01
132.765;000.052;64;000.414;MIDI 01
132.871;000.074;68;000.531;MIDI 01
132.978;000.028;76;000.633;MIDI 01
132.982;000.057;64;000.547;MIDI 01
133.091;000.097;68;000.547;MIDI 01
133.196;000.066;64;000.602;MIDI 01
133.206;000.203;80;000.648;MIDI 01
133.309;000.101;68;000.594;MIDI 01
133.299;000.123;76;000.641;MIDI 01
133.409;000.076;64;000.602;MIDI 01
133.397;000.103;85;000.672;MIDI 01
133.527;000.096;68;000.609;MIDI 01
133.627;000.079;64;000.617;MIDI 01
133.728;000.104;68;000.633;MIDI 01
133.831;000.072;64;000.625;MIDI 01
133.945;000.094;68;000.617;MIDI 01
134.039;000.024;74;000.703;MIDI 01
134.036;000.045;86;000.711;MIDI 01
134.044;000.075;64;000.625;MIDI 01
134.169;000.102;68;000.602;MIDI 01
134.275;000.032;74;000.664;MIDI 01
134.277;000.050;86;000.719;MIDI 01
134.272;000.098;64;000.594;MIDI 01
134.411;000.086;68;000.555;MIDI 01
134.475;000.029;74;000.664;MIDI 01
134.476;000.056;86;000.711;MIDI 01
134.504;000.075;64;000.562;MIDI 01
134.607;000.034;68;000.516;MIDI 01
134.683;000.075;86;000.648;MIDI 01
134.716;000.065;64;000.539;MIDI 01
134.750;000.088;85;000.617;MIDI 01
134.815;000.085;69;000.602;MIDI 01
134.833;000.094;83;000.555;MIDI 01
134.914;000.052;85;000.555;MIDI 01
134.925;000.093;64;000.586;MIDI 01
134.949;000.129;88;000.617;MIDI 01
135.029;000.089;69;000.594;MIDI 01
135.034;000.128;85;000.578;MIDI 01
135.134;000.080;64;000.508;MIDI 01
135.122;000.117;83;000.625;MIDI 01
135.236;000.051;69;000.531;MIDI 01
135.239;000.107;81;000.648;MIDI 01
135.334;000.052;80;000.695;MIDI 01
135.338;000.080;64;000.617;MIDI 01
135.445;000.066;71;000.555;MIDI 01
135.568;000.043;64;000.531;MIDI 01
135.566;000.047;80;000.648;MIDI 01
135.654;000.055;71;000.562;MIDI 01
135.769;000.057;80;000.648;MIDI 01
135.759;000.069;64;000.523;MIDI 01
135.847;000.067;71;000.539;MIDI 01
135.976;000.071;83;000.633;MIDI 01
135.974;000.080;64;000.578;MIDI 01
136.044;000.082;81;000.633;MIDI 01
136.077;000.073;73;000.609;MIDI 01
136.124;000.120;80;000.641;MIDI 01
136.197;000.075;64;000.578;MIDI 01
136.258;000.080;85;000.609;MIDI 01
136.295;000.072;73;000.602;MIDI 01
136.333;000.116;81;000.438;MIDI 01
136.449;000.061;76;000.625;MIDI 01
136.440;000.091;64;000.477;MIDI 01
136.490;000.054;73;000.555;MIDI 01
136.683;000.091;80;000.625;MIDI 01
136.800;000.089;83;000.547;MIDI 01
136.904;000.106;86;000.617;MIDI 01
136.693;000.361;64;000.594;MIDI 01
136.689;000.374;71;000.648;MIDI 01
137.025;000.114;83;000.547;MIDI 01
137.117;000.080;80;000.617;MIDI 01
137.229;000.036;74;000.562;MIDI 01
137.353;000.069;69;000.578;MIDI 01
137.340;000.084;73;000.625;MIDI 01
137.351;000.096;64;000.469;MIDI 01
137.441;000.099;76;000.609;MIDI 01
137.556;000.103;81;000.586;MIDI 01
137.664;000.114;76;000.617;MIDI 01
137.770;000.080;73;000.586;MIDI 01
137.883;000.025;69;000.469;MIDI 01
138.000;000.099;68;000.625;MIDI 01
138.118;000.070;71;000.523;MIDI 01
138.226;000.097;74;000.539;MIDI 01
138.003;000.344;52;000.438;MIDI 01
137.997;000.359;59;000.492;MIDI 01
138.339;000.093;71;000.547;MIDI 01
138.434;000.050;68;000.523;MIDI 01
138.544;000.038;62;000.453;MIDI 01
138.680;000.055;61;000.430;MIDI 01
138.666;000.154;57;000.383;MIDI 01
138.658;000.213;52;000.305;MIDI 01
138.775;000.098;64;000.477;MIDI 01
138.902;000.078;69;000.469;MIDI 01
139.006;000.092;64;000.430;MIDI 01
139.108;000.070;61;000.492;MIDI 01
139.220;000.038;57;000.445;MIDI 01
139.470;004.128;52;000.266;MIDI 01
139.463;004.548;40;000.266;MIDI 01
148.390;000.038;77;000.492;MIDI 01
148.403;000.030;74;000.398;MIDI 01
148.697;000.096;77;000.469;MIDI 01
148.721;000.171;74;000.445;MIDI 01
148.808;000.097;79;000.484;MIDI 01
148.905;000.033;75;000.516;MIDI 01
148.924;000.029;72;000.398;MIDI 01
149.155;000.034;74;000.523;MIDI 01
149.167;000.029;70;000.406;MIDI 01
149.408;000.052;74;000.352;MIDI 01
149.420;000.136;70;000.375;MIDI 01
149.531;000.053;75;000.508;MIDI 01
149.630;000.031;65;000.430;MIDI 01
149.623;000.044;72;000.430;MIDI 01
149.875;000.032;70;000.484;MIDI 01
149.880;000.032;62;000.398;MIDI 01
150.109;000.036;62;000.430;MIDI 01
150.118;000.049;70;000.453;MIDI 01
150.352;000.031;65;000.422;MIDI 01
150.353;000.046;72;000.477;MIDI 01
150.622;000.240;75;000.508;MIDI 01
150.629;000.250;72;000.391;MIDI 01
150.900;000.030;70;000.383;MIDI 01
150.889;000.052;74;000.477;MIDI 01
151.181;000.030;65;000.375;MIDI 01
151.177;000.037;72;000.281;MIDI 01
146.697;004.608;41;000.148;MIDI 01
146.719;004.666;53;000.164;MIDI 01
151.492;000.027;62;000.500;MIDI 01
151.496;000.032;65;000.523;MIDI 01
151.806;000.039;77;000.461;MIDI 01
151.800;000.097;65;000.438;MIDI 01
151.824;000.124;62;000.391;MIDI 01
151.917;000.055;79;000.422;MIDI 01
151.903;000.095;67;000.523;MIDI 01
151.984;000.033;77;000.555;MIDI 01
151.990;000.035;60;000.453;MIDI 01
151.958;000.078;63;000.484;MIDI 01
152.235;000.036;62;000.523;MIDI 01
152.245;000.034;58;000.391;MIDI 01
152.483;000.061;62;000.312;MIDI 01
152.510;000.058;77;000.453;MIDI 01
152.491;000.117;58;000.312;MIDI 01
152.579;000.084;63;000.539;MIDI 01
152.623;000.069;79;000.391;MIDI 01
152.659;000.062;60;000.461;MIDI 01
152.699;000.026;77;000.422;MIDI 01
152.690;000.037;53;000.492;MIDI 01
152.927;000.030;50;000.461;MIDI 01
152.929;000.030;58;000.477;MIDI 01
153.167;000.080;50;000.352;MIDI 01
153.200;000.061;77;000.469;MIDI 01
153.297;000.096;79;000.453;MIDI 01
153.172;000.236;58;000.406;MIDI 01
153.398;000.025;77;000.461;MIDI 01
153.404;000.032;53;000.438;MIDI 01
153.406;000.041;60;000.461;MIDI 01
153.650;000.227;63;000.555;MIDI 01
153.654;000.229;60;000.367;MIDI 01
153.873;000.037;58;000.477;MIDI 01
153.876;000.043;62;000.469;MIDI 01
153.889;000.067;77;000.492;MIDI 01
154.024;000.097;79;000.328;MIDI 01
154.093;000.031;77;000.586;MIDI 01
154.095;000.032;60;000.469;MIDI 01
154.132;000.044;53;000.266;MIDI 01
154.333;000.036;53;000.477;MIDI 01
154.327;000.045;60;000.531;MIDI 01
154.598;000.079;77;000.531;MIDI 01
154.565;000.176;53;000.492;MIDI 01
154.703;000.095;79;000.469;MIDI 01
154.570;000.231;60;000.555;MIDI 01
154.805;000.022;77;000.508;MIDI 01
154.794;000.035;58;000.523;MIDI 01
154.790;000.050;62;000.562;MIDI 01
155.040;000.231;62;000.500;MIDI 01
155.030;000.247;65;000.570;MIDI 01
155.271;000.047;60;000.469;MIDI 01
155.258;000.075;63;000.547;MIDI 01
155.267;000.075;77;000.539;MIDI 01
155.480;000.035;77;000.586;MIDI 01
155.423;000.097;79;000.266;MIDI 01
155.484;000.042;62;000.578;MIDI 01
155.499;000.033;58;000.516;MIDI 01
156.057;000.069;77;000.477;MIDI 01
155.771;000.357;53;000.453;MIDI 01
156.161;000.092;79;000.508;MIDI 01
155.755;000.509;60;000.562;MIDI 01
156.244;000.032;77;000.586;MIDI 01
156.234;000.110;58;000.492;MIDI 01
156.225;000.144;62;000.539;MIDI 01
156.759;000.060;77;000.500;MIDI 01
156.467;000.366;63;000.578;MIDI 01
156.843;000.090;79;000.516;MIDI 01
156.478;000.497;60;000.508;MIDI 01
156.968;000.026;77;000.492;MIDI 01
156.970;000.044;58;000.422;MIDI 01
156.960;000.057;62;000.484;MIDI 01
157.273;000.282;53;000.242;MIDI 01
157.504;000.057;77;000.398;MIDI 01
157.240;000.368;60;000.359;MIDI 01
157.611;000.105;79;000.297;MIDI 01
157.698;000.032;77;000.469;MIDI 01
157.713;000.050;58;000.398;MIDI 01
157.708;000.058;62;000.414;MIDI 01
157.970;000.315;63;000.430;MIDI 01
158.257;000.052;77;000.367;MIDI 01
157.975;000.459;60;000.320;MIDI 01
158.363;000.079;79;000.328;MIDI 01
158.441;000.036;77;000.469;MIDI 01
158.439;000.046;58;000.414;MIDI 01
158.428;000.058;62;000.391;MIDI 01
159.006;000.055;77;000.414;MIDI 01
158.719;000.347;60;000.383;MIDI 01
158.732;000.352;53;000.273;MIDI 01
158.717;000.377;57;000.320;MIDI 01
159.114;000.083;79;000.367;MIDI 01
159.194;000.034;77;000.508;MIDI 01
159.168;000.066;62;000.469;MIDI 01
159.189;000.048;58;000.398;MIDI 01
159.748;000.054;77;000.586;MIDI 01
159.457;000.381;53;000.398;MIDI 01
159.442;000.452;60;000.492;MIDI 01
159.445;000.478;57;000.438;MIDI 01
159.861;000.066;79;000.438;MIDI 01
159.960;000.020;77;000.484;MIDI 01
159.957;000.060;58;000.484;MIDI 01
159.955;000.088;62;000.523;MIDI 01
160.535;000.047;77;000.539;MIDI 01
160.680;000.082;79;000.227;MIDI 01
160.749;000.040;77;000.523;MIDI 01
160.230;000.565;53;000.508;MIDI 01
160.220;000.580;60;000.555;MIDI 01
160.227;000.579;57;000.508;MIDI 01
160.769;000.096;58;000.539;MIDI 01
160.768;000.110;62;000.570;MIDI 01
161.190;001.405;53;000.469;MIDI 01
161.171;001.473;60;000.531;MIDI 01
161.174;001.476;57;000.477;MIDI 01
163.797;000.059;43;000.461;MIDI 01
163.889;000.078;45;000.531;MIDI 01
163.977;000.054;43;000.617;MIDI 01
163.478;000.605;53;000.539;MIDI 01
163.467;000.775;59;000.602;MIDI 01
164.544;000.077;67;000.570;MIDI 01
164.633;000.096;69;000.617;MIDI 01
164.724;000.037;67;000.656;MIDI 01
164.242;000.545;53;000.539;MIDI 01
164.223;000.801;62;000.648;MIDI 01
165.289;000.085;36;000.500;MIDI 01
165.009;000.460;52;000.547;MIDI 01
165.392;000.086;38;000.531;MIDI 01
165.478;000.036;36;000.617;MIDI 01
164.997;000.779;58;000.609;MIDI 01
166.059;000.071;72;000.594;MIDI 01
166.154;000.076;74;000.523;MIDI 01
166.228;000.030;72;000.633;MIDI 01
165.772;000.523;52;000.516;MIDI 01
165.759;000.779;55;000.602;MIDI 01
166.827;000.084;41;000.562;MIDI 01
166.945;000.059;43;000.539;MIDI 01
166.554;000.459;51;000.500;MIDI 01
167.014;000.033;41;000.570;MIDI 01
166.529;000.776;57;000.594;MIDI 01
167.617;000.062;65;000.492;MIDI 01
167.701;000.083;67;000.500;MIDI 01
167.793;000.025;65;000.492;MIDI 01
167.327;000.494;51;000.414;MIDI 01
167.305;000.755;60;000.539;MIDI 01
168.391;000.059;46;000.461;MIDI 01
168.491;000.058;48;000.453;MIDI 01
168.564;000.028;46;000.516;MIDI 01
168.101;000.493;50;000.328;MIDI 01
168.089;000.821;56;000.500;MIDI 01
169.235;000.060;68;000.375;MIDI 01
168.909;000.487;50;000.352;MIDI 01
169.318;000.091;70;000.438;MIDI 01
169.426;000.043;68;000.445;MIDI 01
168.901;000.835;53;000.398;MIDI 01
169.782;000.034;51;000.391;MIDI 01
169.807;000.058;67;000.398;MIDI 01
169.923;000.070;70;000.383;MIDI 01
170.021;000.037;51;000.352;MIDI 01
170.012;000.081;67;000.422;MIDI 01
170.160;000.040;70;000.297;MIDI 01
170.222;000.040;51;000.391;MIDI 01
170.257;000.033;67;000.344;MIDI 01
170.322;000.100;70;000.391;MIDI 01
170.452;000.072;68;000.453;MIDI 01
170.432;000.169;50;000.500;MIDI 01
170.571;000.054;70;000.391;MIDI 01
170.677;000.056;68;000.406;MIDI 01
170.760;000.053;50;000.453;MIDI 01
170.695;000.155;53;000.367;MIDI 01
170.778;000.076;70;000.375;MIDI 01
170.878;000.031;58;000.445;MIDI 01
170.885;000.064;68;000.367;MIDI 01
171.037;000.050;70;000.172;MIDI 01
171.096;000.072;67;000.414;MIDI 01
171.214;000.056;70;000.344;MIDI 01
171.322;000.025;87;000.445;MIDI 01
171.343;000.039;67;000.328;MIDI 01
171.421;000.064;70;000.359;MIDI 01
171.527;000.043;87;000.625;MIDI 01
171.522;000.068;67;000.359;MIDI 01
171.622;000.078;70;000.406;MIDI 01
171.757;000.071;68;000.414;MIDI 01
171.858;000.076;70;000.406;MIDI 01
171.759;000.181;86;000.562;MIDI 01
171.984;000.064;68;000.375;MIDI 01
171.994;000.091;89;000.500;MIDI 01
172.098;000.071;70;000.391;MIDI 01
172.103;000.070;86;000.477;MIDI 01
172.196;000.022;82;000.469;MIDI 01
172.202;000.069;68;000.359;MIDI 01
172.346;000.056;70;000.336;MIDI 01
172.427;000.058;67;000.398;MIDI 01
172.547;000.078;70;000.398;MIDI 01
172.625;000.029;51;000.531;MIDI 01
172.639;000.061;67;000.414;MIDI 01
172.771;000.048;70;000.406;MIDI 01
172.848;000.030;51;000.562;MIDI 01
172.858;000.046;67;000.484;MIDI 01
172.947;000.104;70;000.500;MIDI 01
173.069;000.079;68;000.578;MIDI 01
173.071;000.173;50;000.547;MIDI 01
173.195;000.067;70;000.484;MIDI 01
173.301;000.056;68;000.508;MIDI 01
173.399;000.082;50;000.492;MIDI 01
173.409;000.080;70;000.523;MIDI 01
173.316;000.193;53;000.445;MIDI 01
173.507;000.033;58;000.547;MIDI 01
173.514;000.058;68;000.477;MIDI 01
173.634;000.059;70;000.516;MIDI 01
173.727;000.077;67;000.586;MIDI 01
173.844;000.075;70;000.531;MIDI 01
173.910;000.029;87;000.680;MIDI 01
173.948;000.048;67;000.531;MIDI 01
174.052;000.084;70;000.555;MIDI 01
174.136;000.029;87;000.695;MIDI 01
174.141;000.056;67;000.570;MIDI 01
174.243;000.092;70;000.539;MIDI 01
174.346;000.065;87;000.641;MIDI 01
174.355;000.057;68;000.648;MIDI 01
174.399;000.069;86;000.594;MIDI 01
174.450;000.078;70;000.570;MIDI 01
174.476;000.072;84;000.578;MIDI 01
174.537;000.062;86;000.562;MIDI 01
174.548;000.071;68;000.594;MIDI 01
174.592;000.082;89;000.555;MIDI 01
174.658;000.072;70;000.555;MIDI 01
174.669;000.105;86;000.578;MIDI 01
174.768;000.029;82;000.594;MIDI 01
174.754;000.067;68;000.516;MIDI 01
174.866;000.093;70;000.539;MIDI 01
174.969;000.078;67;000.570;MIDI 01
175.090;000.074;70;000.539;MIDI 01
175.214;000.030;87;000.734;MIDI 01
175.177;000.082;67;000.539;MIDI 01
175.296;000.062;70;000.539;MIDI 01
175.432;000.025;87;000.664;MIDI 01
175.406;000.079;67;000.477;MIDI 01
175.506;000.070;70;000.508;MIDI 01
175.648;000.081;65;000.516;MIDI 01
175.753;000.068;68;000.516;MIDI 01
175.867;000.034;86;000.719;MIDI 01
175.859;000.078;65;000.453;MIDI 01
175.969;000.072;68;000.500;MIDI 01
176.086;000.036;86;000.711;MIDI 01
176.096;000.065;65;000.422;MIDI 01
176.182;000.086;68;000.492;MIDI 01
176.325;000.058;63;000.445;MIDI 01
176.416;000.073;67;000.484;MIDI 01
176.537;000.029;84;000.688;MIDI 01
176.535;000.070;63;000.430;MIDI 01
176.648;000.069;67;000.453;MIDI 01
176.772;000.031;84;000.578;MIDI 01
176.757;000.091;63;000.445;MIDI 01
176.866;000.085;67;000.477;MIDI 01
176.997;000.074;62;000.477;MIDI 01
177.105;000.086;65;000.484;MIDI 01
177.210;000.030;83;000.547;MIDI 01
177.223;000.054;62;000.469;MIDI 01
177.329;000.052;65;000.445;MIDI 01
177.426;000.027;83;000.406;MIDI 01
177.420;000.075;62;000.438;MIDI 01
177.522;000.040;65;000.500;MIDI 01
177.669;000.113;84;000.594;MIDI 01
177.773;000.064;79;000.477;MIDI 01
177.886;000.031;75;000.617;MIDI 01
177.891;000.100;84;000.516;MIDI 01
178.002;000.091;79;000.547;MIDI 01
178.094;000.027;75;000.641;MIDI 01
178.121;000.085;84;000.531;MIDI 01
178.210;000.069;79;000.586;MIDI 01
178.317;000.091;82;000.586;MIDI 01
178.411;000.080;77;000.609;MIDI 01
178.536;000.036;74;000.625;MIDI 01
178.527;000.094;82;000.562;MIDI 01
178.626;000.094;77;000.617;MIDI 01
178.734;000.037;74;000.641;MIDI 01
178.743;000.081;82;000.594;MIDI 01
178.840;000.064;77;000.594;MIDI 01
178.945;000.108;80;000.633;MIDI 01
179.059;000.091;75;000.570;MIDI 01
179.204;000.033;72;000.578;MIDI 01
179.166;000.093;80;000.539;MIDI 01
179.279;000.076;75;000.578;MIDI 01
179.395;000.030;72;000.531;MIDI 01
179.392;000.101;80;000.516;MIDI 01
179.492;000.094;75;000.648;MIDI 01
179.603;000.103;79;000.586;MIDI 01
179.702;000.083;74;000.633;MIDI 01
179.849;000.030;71;000.641;MIDI 01
179.823;000.100;79;000.633;MIDI 01
179.930;000.075;74;000.633;MIDI 01
180.060;000.027;71;000.555;MIDI 01
180.049;000.076;79;000.609;MIDI 01
180.148;000.075;74;000.617;MIDI 01
180.257;000.112;80;000.641;MIDI 01
180.370;000.096;75;000.609;MIDI 01
180.511;000.034;72;000.570;MIDI 01
180.485;000.081;80;000.547;MIDI 01
180.601;000.055;75;000.539;MIDI 01
180.689;000.048;72;000.484;MIDI 01
180.704;000.105;80;000.539;MIDI 01
180.799;000.088;75;000.609;MIDI 01
180.908;000.111;79;000.594;MIDI 01
181.020;000.074;74;000.633;MIDI 01
181.131;000.033;70;000.609;MIDI 01
181.133;000.094;79;000.625;MIDI 01
181.235;000.079;74;000.648;MIDI 01
181.353;000.035;70;000.547;MIDI 01
181.344;000.114;79;000.648;MIDI 01
181.446;000.067;74;000.656;MIDI 01
181.554;000.110;77;000.664;MIDI 01
181.657;000.075;72;000.617;MIDI 01
181.779;000.027;69;000.617;MIDI 01
181.767;000.105;77;000.664;MIDI 01
181.872;000.091;72;000.703;MIDI 01
182.016;000.024;69;000.422;MIDI 01
181.985;000.103;77;000.648;MIDI 01
182.084;000.114;72;000.672;MIDI 01
182.192;000.120;78;000.672;MIDI 01
182.311;000.090;72;000.680;MIDI 01
182.412;000.029;68;000.664;MIDI 01
182.416;000.110;78;000.633;MIDI 01
182.525;000.080;72;000.672;MIDI 01
182.634;000.029;68;000.641;MIDI 01
182.622;000.104;78;000.625;MIDI 01
182.726;000.069;72;000.648;MIDI 01
182.785;000.052;68;000.023;MIDI 01
182.842;000.118;74;000.680;MIDI 01
182.838;000.124;79;000.648;MIDI 01
182.948;000.074;71;000.680;MIDI 01
183.067;000.032;67;000.664;MIDI 01
183.072;000.035;55;000.648;MIDI 01
183.065;000.079;79;000.586;MIDI 01
183.059;000.114;74;000.695;MIDI 01
183.168;000.090;71;000.672;MIDI 01
183.269;000.035;67;000.695;MIDI 01
183.271;000.051;55;000.633;MIDI 01
183.290;000.122;79;000.633;MIDI 01
183.292;000.123;74;000.695;MIDI 01
183.402;000.114;71;000.680;MIDI 01
183.504;000.117;78;000.633;MIDI 01
183.512;000.115;75;000.648;MIDI 01
183.621;000.077;72;000.664;MIDI 01
183.713;000.034;67;000.664;MIDI 01
183.717;000.041;55;000.680;MIDI 01
183.731;000.091;78;000.570;MIDI 01
183.720;000.109;75;000.633;MIDI 01
183.828;000.106;72;000.719;MIDI 01
183.914;000.033;67;000.688;MIDI 01
183.918;000.035;55;000.664;MIDI 01
183.940;000.093;78;000.570;MIDI 01
183.930;000.106;75;000.594;MIDI 01
184.026;000.065;72;000.648;MIDI 01
184.140;000.105;74;000.695;MIDI 01
184.142;000.106;79;000.633;MIDI 01
184.235;000.120;71;000.648;MIDI 01
184.364;000.082;67;000.688;MIDI 01
184.348;000.100;79;000.578;MIDI 01
184.368;000.082;55;000.672;MIDI 01
184.345;000.113;74;000.695;MIDI 01
184.455;000.073;71;000.672;MIDI 01
184.576;000.051;67;000.742;MIDI 01
184.581;000.050;55;000.672;MIDI 01
184.578;000.110;74;000.680;MIDI 01
184.572;000.123;79;000.664;MIDI 01
184.679;000.076;71;000.688;MIDI 01
184.801;000.107;78;000.594;MIDI 01
184.795;000.117;75;000.656;MIDI 01
184.898;000.116;72;000.680;MIDI 01
185.023;000.040;55;000.672;MIDI 01
185.018;000.052;67;000.734;MIDI 01
185.014;000.099;78;000.555;MIDI 01
185.000;000.118;75;000.633;MIDI 01
185.113;000.117;72;000.648;MIDI 01
185.219;000.045;67;000.711;MIDI 01
185.221;000.055;55;000.672;MIDI 01
185.236;000.100;78;000.562;MIDI 01
185.217;000.148;75;000.656;MIDI 01
185.319;000.059;72;000.648;MIDI 01
185.456;000.155;71;000.711;MIDI 01
185.454;000.171;79;000.719;MIDI 01
185.709;000.096;67;000.617;MIDI 01
185.711;000.098;55;000.617;MIDI 01
185.975;000.134;79;000.406;MIDI 01
186.004;000.177;71;000.438;MIDI 01
186.219;000.086;83;000.461;MIDI 01
186.245;000.067;79;000.359;MIDI 01
186.454;000.079;55;000.359;MIDI 01
186.460;000.083;67;000.398;MIDI 01
186.691;000.109;83;000.422;MIDI 01
186.693;000.111;79;000.398;MIDI 01
186.936;000.071;83;000.305;MIDI 01
186.922;000.098;86;000.477;MIDI 01
187.227;000.128;67;000.328;MIDI 01
187.218;000.160;55;000.281;MIDI 01
187.498;000.056;83;000.289;MIDI 01
187.493;000.105;86;000.398;MIDI 01
187.797;000.118;86;000.633;MIDI 01
187.799;000.151;89;000.672;MIDI 01
187.899;000.125;88;000.609;MIDI 01
187.912;000.132;84;000.625;MIDI 01
188.036;000.024;86;000.453;MIDI 01
188.030;000.035;83;000.594;MIDI 01
188.156;000.084;81;000.648;MIDI 01
188.153;000.141;84;000.617;MIDI 01
188.241;000.105;83;000.523;MIDI 01
188.254;000.108;79;000.602;MIDI 01
188.342;000.023;81;000.484;MIDI 01
188.357;000.030;77;000.578;MIDI 01
188.504;000.066;74;000.398;MIDI 01
188.479;000.100;76;000.578;MIDI 01
188.474;000.141;79;000.594;MIDI 01
188.558;000.118;77;000.336;MIDI 01
188.583;000.117;74;000.492;MIDI 01
188.683;000.034;72;000.578;MIDI 01
188.810;000.115;71;000.594;MIDI 01
188.795;000.143;74;000.578;MIDI 01
188.900;000.141;72;000.539;MIDI 01
188.935;000.128;69;000.617;MIDI 01
189.041;000.045;67;000.578;MIDI 01
189.151;000.030;65;000.617;MIDI 01
189.168;000.030;69;000.562;MIDI 01
189.380;000.034;64;000.578;MIDI 01
189.385;000.032;67;000.539;MIDI 01
189.596;000.029;63;000.594;MIDI 01
189.604;000.033;66;000.547;MIDI 01
189.829;000.089;43;000.484;MIDI 01
189.838;000.111;47;000.445;MIDI 01
189.831;000.171;62;000.555;MIDI 01
189.825;000.184;65;000.586;MIDI 01
189.969;000.103;48;000.523;MIDI 01
189.954;000.132;45;000.516;MIDI 01
190.077;000.046;50;000.523;MIDI 01
190.167;000.065;52;000.617;MIDI 01
190.155;000.100;48;000.609;MIDI 01
190.285;000.088;50;000.562;MIDI 01
190.290;000.103;53;000.562;MIDI 01
190.393;000.034;55;000.555;MIDI 01
190.391;000.040;52;000.547;MIDI 01
190.502;000.033;57;000.555;MIDI 01
190.505;000.033;53;000.547;MIDI 01
190.745;000.031;59;000.578;MIDI 01
190.755;000.031;55;000.602;MIDI 01
190.960;000.029;60;000.609;MIDI 01
190.963;000.029;57;000.562;MIDI 01
191.177;000.042;59;000.578;MIDI 01
191.175;000.052;62;000.648;MIDI 01
191.391;000.033;64;000.656;MIDI 01
191.402;000.036;60;000.586;MIDI 01
191.615;000.029;65;000.656;MIDI 01
191.624;000.028;62;000.594;MIDI 01
191.607;000.050;79;000.711;MIDI 01
191.866;000.026;84;000.656;MIDI 01
191.852;000.077;64;000.719;MIDI 01
191.867;000.080;60;000.625;MIDI 01
191.977;000.047;69;000.516;MIDI 01
191.980;000.092;67;000.516;MIDI 01
192.089;000.029;84;000.586;MIDI 01
192.083;000.045;60;000.555;MIDI 01
192.069;000.078;64;000.594;MIDI 01
192.174;000.088;67;000.578;MIDI 01
192.289;000.045;84;000.594;MIDI 01
192.261;000.074;60;000.531;MIDI 01
192.256;000.107;64;000.547;MIDI 01
192.376;000.050;67;000.531;MIDI 01
192.497;000.074;64;000.336;MIDI 01
192.482;000.091;84;000.688;MIDI 01
192.490;000.090;60;000.539;MIDI 01
192.590;000.032;64;000.336;MIDI 01
192.547;000.124;83;000.625;MIDI 01
192.632;000.073;81;000.555;MIDI 01
192.695;000.037;83;000.273;MIDI 01
192.765;000.042;59;000.289;MIDI 01
192.753;000.055;60;000.312;MIDI 01
192.705;000.110;86;000.641;MIDI 01
192.703;000.160;65;000.047;MIDI 01
192.792;000.098;83;000.594;MIDI 01
192.881;000.047;79;000.664;MIDI 01
192.875;000.076;67;000.586;MIDI 01
192.949;000.033;60;000.367;MIDI 01
192.955;000.040;65;000.422;MIDI 01
193.069;000.040;79;000.648;MIDI 01
193.101;000.061;84;000.602;MIDI 01
193.115;000.095;60;000.531;MIDI 01
193.113;000.107;64;000.617;MIDI 01
193.233;000.096;67;000.523;MIDI 01
193.134;000.232;88;000.711;MIDI 01
193.373;000.058;64;000.508;MIDI 01
193.371;000.082;60;000.477;MIDI 01
193.375;000.130;86;000.633;MIDI 01
193.476;000.082;67;000.523;MIDI 01
193.465;000.139;84;000.633;MIDI 01
193.569;000.057;64;000.547;MIDI 01
193.579;000.072;60;000.492;MIDI 01
193.573;000.107;83;000.680;MIDI 01
193.672;000.098;67;000.539;MIDI 01
193.675;000.109;81;000.641;MIDI 01
193.782;000.081;62;000.578;MIDI 01
193.784;000.083;59;000.555;MIDI 01
193.901;000.098;67;000.570;MIDI 01
194.018;000.062;62;000.508;MIDI 01
194.021;000.087;59;000.477;MIDI 01
194.121;000.095;67;000.523;MIDI 01
194.229;000.068;62;000.516;MIDI 01
194.254;000.053;59;000.461;MIDI 01
193.776;000.556;79;000.656;MIDI 01
194.341;000.070;67;000.555;MIDI 01
194.432;000.027;77;000.617;MIDI 01
194.439;000.023;72;000.516;MIDI 01
194.449;000.040;60;000.508;MIDI 01
194.442;000.081;57;000.547;MIDI 01
194.568;000.064;69;000.539;MIDI 01
194.659;000.065;60;000.430;MIDI 01
194.674;000.081;57;000.531;MIDI 01
194.653;000.108;72;000.523;MIDI 01
194.648;000.133;77;000.594;MIDI 01
194.759;000.035;69;000.539;MIDI 01
194.762;000.110;79;000.625;MIDI 01
194.869;000.030;76;000.602;MIDI 01
194.873;000.033;71;000.562;MIDI 01
194.870;000.071;59;000.570;MIDI 01
194.877;000.082;55;000.531;MIDI 01
194.983;000.044;67;000.523;MIDI 01
195.089;000.025;69;000.633;MIDI 01
195.083;000.034;74;000.688;MIDI 01
195.096;000.058;57;000.469;MIDI 01
195.092;000.096;53;000.562;MIDI 01
195.201;000.044;65;000.539;MIDI 01
195.292;000.080;57;000.508;MIDI 01
195.306;000.076;53;000.539;MIDI 01
195.302;000.127;69;000.492;MIDI 01
195.372;000.059;65;000.547;MIDI 01
195.304;000.131;74;000.656;MIDI 01
195.409;000.122;76;000.641;MIDI 01
195.504;000.060;72;000.641;MIDI 01
195.585;000.002;65;000.195;MIDI 01
195.501;000.090;55;000.570;MIDI 01
195.509;000.100;52;000.508;MIDI 01
195.607;000.049;64;000.602;MIDI 01
195.732;000.031;65;000.672;MIDI 01
195.738;000.034;71;000.656;MIDI 01
195.734;000.101;50;000.555;MIDI 01
195.744;000.094;53;000.531;MIDI 01
195.849;000.065;62;000.547;MIDI 01
195.954;000.026;71;000.625;MIDI 01
195.956;000.059;77;000.641;MIDI 01
195.976;000.076;53;000.492;MIDI 01
195.972;000.083;50;000.523;MIDI 01
196.043;000.049;62;000.578;MIDI 01
196.183;000.032;72;000.625;MIDI 01
196.185;000.042;76;000.641;MIDI 01
196.178;000.142;52;000.539;MIDI 01
196.180;000.146;48;000.547;MIDI 01
196.302;000.031;60;000.586;MIDI 01
196.501;000.074;55;000.641;MIDI 01
196.511;000.076;43;000.578;MIDI 01
196.507;000.094;47;000.578;MIDI 01
196.503;000.186;74;000.641;MIDI 01
196.509;000.182;71;000.625;MIDI 01
196.505;000.189;67;000.586;MIDI 01
197.229;000.251;55;000.305;MIDI 01
197.493;000.034;60;000.344;MIDI 01
197.720;000.026;75;000.383;MIDI 01
197.705;000.043;80;000.469;MIDI 01
197.718;000.043;60;000.289;MIDI 01
197.912;000.048;75;000.375;MIDI 01
197.933;000.039;78;000.398;MIDI 01
197.938;000.054;60;000.312;MIDI 01
198.153;000.196;74;000.398;MIDI 01
198.189;000.210;59;000.328;MIDI 01
198.150;000.293;79;000.406;MIDI 01
198.419;000.059;62;000.398;MIDI 01
198.526;000.052;59;000.445;MIDI 01
198.645;000.186;55;000.398;MIDI 01
198.872;000.038;60;000.375;MIDI 01
199.077;000.052;80;000.453;MIDI 01
199.075;000.066;87;000.469;MIDI 01
199.115;000.046;60;000.297;MIDI 01
199.317;000.046;60;000.336;MIDI 01
199.319;000.082;78;000.500;MIDI 01
199.315;000.116;87;000.523;MIDI 01
199.628;000.184;59;000.305;MIDI 01
199.584;000.235;79;000.391;MIDI 01
199.575;000.274;86;000.477;MIDI 01
199.849;000.050;62;000.391;MIDI 01
199.951;000.057;59;000.477;MIDI 01
200.071;000.203;55;000.430;MIDI 01
200.293;000.057;60;000.547;MIDI 01
200.519;000.040;75;000.531;MIDI 01
200.514;000.047;60;000.531;MIDI 01
200.510;000.079;80;000.578;MIDI 01
200.730;000.056;60;000.461;MIDI 01
200.738;000.070;75;000.555;MIDI 01
200.732;000.098;78;000.547;MIDI 01
200.979;000.208;59;000.484;MIDI 01
200.958;000.239;74;000.523;MIDI 01
200.960;000.285;79;000.547;MIDI 01
201.219;000.065;62;000.508;MIDI 01
201.344;000.050;59;000.461;MIDI 01
201.415;000.043;74;000.492;MIDI 01
201.419;000.044;77;000.461;MIDI 01
201.421;000.056;55;000.500;MIDI 01
201.695;000.151;56;000.430;MIDI 01
201.914;000.066;60;000.398;MIDI 01
202.009;000.062;56;000.508;MIDI 01
202.111;000.033;72;000.500;MIDI 01
201.659;000.491;75;000.539;MIDI 01
201.662;000.492;74;000.453;MIDI 01
202.131;000.049;51;000.438;MIDI 01
202.389;000.184;53;000.367;MIDI 01
202.615;000.067;56;000.367;MIDI 01
202.346;000.423;72;000.422;MIDI 01
202.715;000.077;53;000.484;MIDI 01
202.339;000.465;74;000.492;MIDI 01
202.838;000.035;50;000.383;MIDI 01
203.070;000.218;71;000.453;MIDI 01
203.077;000.238;55;000.422;MIDI 01
203.066;000.270;74;000.469;MIDI 01
203.295;000.076;62;000.414;MIDI 01
203.419;000.066;59;000.430;MIDI 01
203.512;000.030;77;000.484;MIDI 01
203.515;000.036;55;000.469;MIDI 01
203.520;000.047;86;000.539;MIDI 01
203.824;000.283;75;000.406;MIDI 01
204.091;000.039;67;000.391;MIDI 01
203.812;000.436;60;000.367;MIDI 01
204.172;000.099;63;000.484;MIDI 01
203.790;000.493;86;000.562;MIDI 01
204.271;000.080;84;000.570;MIDI 01
204.310;000.089;68;000.508;MIDI 01
204.500;000.241;77;000.539;MIDI 01
204.493;000.280;84;000.625;MIDI 01
204.771;000.045;82;000.516;MIDI 01
204.753;000.092;68;000.500;MIDI 01
204.519;000.417;62;000.500;MIDI 01
204.954;000.045;65;000.242;MIDI 01
205.009;000.039;80;000.492;MIDI 01
205.035;000.062;70;000.453;MIDI 01
205.260;000.026;79;000.617;MIDI 01
205.272;000.049;63;000.398;MIDI 01
205.357;000.083;70;000.469;MIDI 01
205.486;000.030;75;000.539;MIDI 01
205.478;000.065;67;000.422;MIDI 01
205.598;000.065;70;000.438;MIDI 01
205.695;000.033;75;000.523;MIDI 01
205.688;000.052;67;000.461;MIDI 01
205.793;000.098;70;000.477;MIDI 01
205.916;000.058;68;000.492;MIDI 01
205.901;000.117;74;000.586;MIDI 01
206.039;000.049;70;000.438;MIDI 01
206.127;000.054;68;000.438;MIDI 01
206.232;000.067;70;000.414;MIDI 01
206.140;000.171;77;000.430;MIDI 01
206.216;000.097;74;000.484;MIDI 01
206.322;000.022;82;000.500;MIDI 01
206.335;000.054;68;000.375;MIDI 01
206.445;000.066;70;000.414;MIDI 01
206.545;000.050;67;000.438;MIDI 01
206.651;000.071;70;000.422;MIDI 01
206.750;000.029;51;000.508;MIDI 01
206.765;000.051;67;000.344;MIDI 01
206.863;000.069;70;000.430;MIDI 01
206.965;000.034;51;000.469;MIDI 01
206.957;000.071;67;000.438;MIDI 01
207.074;000.068;70;000.438;MIDI 01
207.151;000.071;51;000.516;MIDI 01
207.181;000.051;68;000.445;MIDI 01
207.214;000.083;50;000.523;MIDI 01
207.274;000.075;70;000.500;MIDI 01
207.301;000.078;48;000.547;MIDI 01
207.379;000.055;68;000.438;MIDI 01
207.377;000.076;53;000.531;MIDI 01
207.480;000.064;70;000.500;MIDI 01
207.443;000.172;50;000.047;MIDI 01
207.649;000.002;46;000.086;MIDI 01
207.583;000.069;68;000.414;MIDI 01
207.703;000.074;70;000.469;MIDI 01
207.856;000.049;66;000.375;MIDI 01
207.946;000.064;70;000.406;MIDI 01
208.070;000.024;75;000.445;MIDI 01
208.056;000.058;66;000.352;MIDI 01
208.155;000.059;70;000.414;MIDI 01
208.285;000.040;75;000.438;MIDI 01
208.281;000.064;66;000.336;MIDI 01
208.389;000.059;70;000.422;MIDI 01
208.539;000.034;68;000.359;MIDI 01
208.496;000.118;74;000.516;MIDI 01
208.618;000.035;71;000.367;MIDI 01
208.739;000.050;77;000.414;MIDI 01
208.722;000.080;68;000.406;MIDI 01
208.811;000.044;74;000.539;MIDI 01
208.931;000.028;89;000.586;MIDI 01
208.883;000.089;71;000.344;MIDI 01
208.972;000.039;68;000.281;MIDI 01
209.168;000.044;66;000.359;MIDI 01
209.251;000.060;70;000.359;MIDI 01
209.372;000.066;66;000.367;MIDI 01
209.401;000.041;51;000.336;MIDI 01
209.516;000.046;70;000.250;MIDI 01
209.616;000.036;51;000.398;MIDI 01
209.646;000.050;66;000.164;MIDI 01
209.714;000.094;70;000.234;MIDI 01
209.856;000.057;68;000.406;MIDI 01
209.831;000.127;50;000.453;MIDI 01
209.982;000.043;71;000.367;MIDI 01
210.099;000.045;68;000.312;MIDI 01
210.172;000.055;50;000.375;MIDI 01
210.104;000.175;53;000.281;MIDI 01
210.270;000.034;59;000.477;MIDI 01
210.279;000.073;68;000.422;MIDI 01
210.533;000.044;66;000.375;MIDI 01
210.635;000.059;70;000.359;MIDI 01
210.728;000.021;75;000.492;MIDI 01
210.732;000.057;66;000.367;MIDI 01
210.836;000.067;70;000.406;MIDI 01
210.957;000.024;75;000.461;MIDI 01
210.947;000.062;66;000.391;MIDI 01
211.054;000.085;70;000.422;MIDI 01
211.177;000.053;66;000.375;MIDI 01
211.297;000.061;70;000.398;MIDI 01
211.396;000.027;51;000.523;MIDI 01
211.398;000.053;66;000.359;MIDI 01
211.507;000.072;70;000.391;MIDI 01
211.623;000.057;66;000.344;MIDI 01
211.659;000.044;51;000.336;MIDI 01
211.727;000.082;70;000.430;MIDI 01
211.852;000.055;66;000.344;MIDI 01
211.957;000.077;70;000.445;MIDI 01
212.073;000.035;75;000.508;MIDI 01
212.064;000.059;66;000.359;MIDI 01
212.182;000.069;70;000.391;MIDI 01
212.309;000.023;75;000.461;MIDI 01
212.291;000.062;66;000.312;MIDI 01
212.398;000.096;70;000.406;MIDI 01
212.519;000.053;66;000.383;MIDI 01
212.624;000.076;70;000.430;MIDI 01
212.740;000.028;51;000.531;MIDI 01
212.729;000.052;66;000.398;MIDI 01
212.836;000.073;70;000.422;MIDI 01
212.954;000.056;66;000.375;MIDI 01
212.974;000.039;51;000.391;MIDI 01
213.066;000.077;70;000.438;MIDI 01
213.184;000.053;66;000.406;MIDI 01
213.281;000.082;70;000.477;MIDI 01
213.385;000.036;75;000.516;MIDI 01
213.390;000.058;66;000.398;MIDI 01
213.515;000.070;70;000.422;MIDI 01
213.623;000.021;75;000.500;MIDI 01
213.614;000.065;66;000.359;MIDI 01
213.730;000.083;70;000.398;MIDI 01
213.839;000.054;66;000.406;MIDI 01
213.956;000.073;70;000.406;MIDI 01
214.065;000.033;51;000.516;MIDI 01
214.061;000.050;66;000.344;MIDI 01
214.174;000.073;70;000.383;MIDI 01
214.281;000.070;66;000.359;MIDI 01
214.309;000.044;51;000.352;MIDI 01
214.410;000.082;70;000.375;MIDI 01
214.524;000.053;66;000.391;MIDI 01
214.640;000.072;70;000.398;MIDI 01
214.732;000.019;75;000.570;MIDI 01
214.743;000.049;66;000.359;MIDI 01
214.850;000.068;70;000.391;MIDI 01
214.970;000.022;75;000.539;MIDI 01
214.942;000.076;66;000.391;MIDI 01
215.070;000.103;70;000.430;MIDI 01
215.188;000.049;66;000.469;MIDI 01
215.272;000.116;70;000.484;MIDI 01
215.410;000.035;39;000.805;MIDI 01
215.404;000.072;66;000.570;MIDI 01
215.507;000.125;70;000.539;MIDI 01
215.669;000.028;39;000.758;MIDI 01
215.636;000.093;66;000.570;MIDI 01
215.791;000.035;39;000.195;MIDI 01
215.750;000.129;70;000.602;MIDI 01
215.879;000.092;66;000.625;MIDI 01
215.997;000.121;70;000.562;MIDI 01
216.097;000.044;75;000.758;MIDI 01
216.115;000.081;66;000.602;MIDI 01
216.229;000.120;70;000.531;MIDI 01
216.341;000.033;75;000.680;MIDI 01
216.349;000.074;66;000.547;MIDI 01
216.469;000.096;70;000.508;MIDI 01
216.580;000.059;66;000.516;MIDI 01
216.709;000.061;70;000.438;MIDI 01
216.791;000.024;75;000.461;MIDI 01
216.794;000.062;66;000.469;MIDI 01
216.915;000.083;70;000.414;MIDI 01
217.018;000.040;75;000.438;MIDI 01
217.022;000.062;66;000.406;MIDI 01
217.142;000.071;70;000.445;MIDI 01
217.246;000.057;66;000.430;MIDI 01
217.360;000.077;70;000.422;MIDI 01
217.490;000.025;75;000.445;MIDI 01
217.474;000.056;66;000.391;MIDI 01
217.586;000.074;70;000.383;MIDI 01
217.700;000.039;75;000.438;MIDI 01
217.705;000.067;66;000.336;MIDI 01
217.817;000.079;70;000.383;MIDI 01
217.925;000.049;66;000.430;MIDI 01
218.034;000.071;70;000.438;MIDI 01
218.141;000.044;66;000.547;MIDI 01
218.165;000.031;75;000.680;MIDI 01
218.244;000.096;70;000.555;MIDI 01
218.373;000.041;75;000.680;MIDI 01
218.378;000.049;66;000.602;MIDI 01
218.486;000.064;70;000.570;MIDI 01
218.569;000.075;78;000.625;MIDI 01
218.595;000.072;66;000.625;MIDI 01
218.623;000.070;76;000.633;MIDI 01
218.686;000.077;70;000.609;MIDI 01
218.679;000.091;75;000.523;MIDI 01
218.761;000.049;76;000.430;MIDI 01
218.810;000.050;66;000.570;MIDI 01
218.803;000.094;80;000.633;MIDI 01
218.907;000.074;70;000.586;MIDI 01
218.892;000.110;76;000.602;MIDI 01
219.011;000.031;73;000.539;MIDI 01
219.014;000.078;66;000.516;MIDI 01
219.118;000.058;70;000.586;MIDI 01
219.239;000.029;75;000.594;MIDI 01
219.231;000.069;66;000.570;MIDI 01
219.326;000.067;71;000.508;MIDI 01
219.449;000.035;78;000.570;MIDI 01
219.450;000.064;66;000.516;MIDI 01
219.541;000.073;71;000.562;MIDI 01
219.659;000.027;83;000.578;MIDI 01
219.665;000.067;66;000.516;MIDI 01
219.724;000.039;71;000.555;MIDI 01
219.878;000.096;82;000.586;MIDI 01
219.880;000.188;76;000.617;MIDI 01
220.023;000.100;85;000.594;MIDI 01
220.131;000.110;88;000.602;MIDI 01
219.883;000.384;73;000.703;MIDI 01
219.894;000.376;66;000.547;MIDI 01
220.238;000.142;85;000.609;MIDI 01
220.339;000.082;82;000.555;MIDI 01
220.424;000.037;76;000.594;MIDI 01
220.548;000.079;75;000.641;MIDI 01
220.555;000.083;71;000.555;MIDI 01
220.559;000.144;66;000.531;MIDI 01
220.639;000.110;78;000.609;MIDI 01
220.754;000.103;83;000.602;MIDI 01
220.869;000.111;78;000.594;MIDI 01
220.967;000.073;75;000.508;MIDI 01
221.068;000.023;71;000.461;MIDI 01
221.179;000.067;70;000.578;MIDI 01
221.287;000.100;73;000.578;MIDI 01
221.405;000.100;76;000.531;MIDI 01
221.189;000.343;61;000.477;MIDI 01
221.209;000.348;54;000.375;MIDI 01
221.511;000.109;73;000.531;MIDI 01
221.604;000.070;70;000.523;MIDI 01
221.722;000.032;64;000.359;MIDI 01
221.845;000.052;63;000.422;MIDI 01
221.846;000.129;59;000.430;MIDI 01
221.944;000.107;66;000.508;MIDI 01
221.850;000.226;54;000.344;MIDI 01
222.070;000.090;71;000.484;MIDI 01
222.170;000.141;66;000.523;MIDI 01
222.278;000.081;63;000.500;MIDI 01
222.378;000.033;59;000.516;MIDI 01
222.524;000.072;46;000.570;MIDI 01
222.507;000.117;58;000.648;MIDI 01
222.646;000.062;49;000.555;MIDI 01
222.619;000.126;61;000.641;MIDI 01
222.745;000.077;52;000.539;MIDI 01
222.734;000.124;64;000.672;MIDI 01
222.838;000.097;49;000.602;MIDI 01
222.840;000.155;61;000.648;MIDI 01
222.970;000.082;46;000.562;MIDI 01
222.950;000.119;58;000.641;MIDI 01
223.065;000.039;52;000.625;MIDI 01
223.067;000.054;40;000.594;MIDI 01
223.183;000.073;51;000.703;MIDI 01
223.215;000.105;39;000.609;MIDI 01
223.318;000.085;42;000.578;MIDI 01
223.296;000.124;54;000.641;MIDI 01
223.429;000.056;47;000.562;MIDI 01
223.408;000.129;59;000.695;MIDI 01
223.532;000.140;54;000.648;MIDI 01
223.546;000.161;42;000.602;MIDI 01
223.653;000.156;51;000.656;MIDI 01
223.690;000.128;39;000.539;MIDI 01
223.789;000.057;47;000.656;MIDI 01
223.809;000.046;35;000.562;MIDI 01
224.021;003.756;42;000.680;MIDI 01
224.033;003.872;30;000.594;MIDI 01
233.896;000.032;79;000.469;MIDI 01
233.905;000.025;76;000.445;MIDI 01
234.197;000.044;79;000.398;MIDI 01
234.274;000.080;81;000.430;MIDI 01
234.241;000.119;76;000.250;MIDI 01
234.369;000.035;77;000.477;MIDI 01
234.389;000.027;74;000.422;MIDI 01
234.607;000.023;76;000.516;MIDI 01
234.615;000.028;72;000.414;MIDI 01
234.831;000.086;76;000.398;MIDI 01
234.857;000.120;72;000.289;MIDI 01
234.945;000.068;77;000.484;MIDI 01
235.028;000.028;74;000.445;MIDI 01
235.042;000.027;67;000.430;MIDI 01
235.265;000.026;72;000.500;MIDI 01
235.274;000.032;64;000.398;MIDI 01
235.494;000.043;72;000.445;MIDI 01
235.522;000.055;64;000.141;MIDI 01
235.711;000.035;74;000.547;MIDI 01
235.727;000.030;67;000.398;MIDI 01
235.974;000.252;77;000.523;MIDI 01
236.006;000.224;74;000.367;MIDI 01
236.230;000.023;72;000.469;MIDI 01
236.223;000.042;76;000.500;MIDI 01
236.445;000.042;74;000.469;MIDI 01
231.977;004.529;31;000.156;MIDI 01
236.485;000.029;67;000.383;MIDI 01
231.979;004.559;43;000.234;MIDI 01
236.749;000.032;64;000.406;MIDI 01
236.752;000.031;67;000.375;MIDI 01
237.066;000.033;79;000.344;MIDI 01
237.029;000.082;67;000.352;MIDI 01
237.046;000.127;64;000.281;MIDI 01
237.144;000.059;81;000.438;MIDI 01
237.135;000.078;69;000.469;MIDI 01
237.195;000.054;65;000.477;MIDI 01
237.222;000.040;79;000.492;MIDI 01
237.241;000.031;62;000.414;MIDI 01
237.455;000.037;64;000.484;MIDI 01
237.508;000.049;60;000.023;MIDI 01
237.722;000.038;79;000.367;MIDI 01
237.688;000.095;64;000.367;MIDI 01
237.683;000.131;60;000.430;MIDI 01
237.792;000.070;81;000.453;MIDI 01
237.810;000.059;65;000.469;MIDI 01
237.874;000.022;79;000.492;MIDI 01
237.849;000.050;62;000.469;MIDI 01
237.896;000.037;55;000.391;MIDI 01
238.104;000.035;60;000.484;MIDI 01
238.137;000.044;52;000.289;MIDI 01
238.340;000.041;52;000.391;MIDI 01
238.354;000.037;60;000.320;MIDI 01
238.368;000.041;79;000.406;MIDI 01
238.449;000.080;81;000.438;MIDI 01
238.551;000.028;79;000.406;MIDI 01
238.546;000.038;62;000.477;MIDI 01
238.579;000.052;55;000.234;MIDI 01
238.796;000.120;65;000.453;MIDI 01
238.802;000.136;62;000.359;MIDI 01
239.027;000.030;60;000.414;MIDI 01
239.028;000.034;64;000.375;MIDI 01
239.052;000.044;79;000.422;MIDI 01
239.186;000.064;81;000.273;MIDI 01
239.235;000.033;79;000.469;MIDI 01
239.238;000.034;62;000.508;MIDI 01
239.250;000.032;55;000.422;MIDI 01
239.483;000.039;55;000.398;MIDI 01
239.485;000.040;62;000.430;MIDI 01
239.709;000.061;55;000.414;MIDI 01
239.728;000.053;79;000.469;MIDI 01
239.705;000.090;62;000.438;MIDI 01
239.832;000.059;81;000.344;MIDI 01
239.935;000.022;79;000.484;MIDI 01
239.927;000.044;64;000.523;MIDI 01
239.939;000.035;60;000.445;MIDI 01
240.179;000.108;67;000.508;MIDI 01
240.177;000.118;64;000.484;MIDI 01
240.412;000.031;62;000.414;MIDI 01
240.408;000.046;65;000.445;MIDI 01
240.418;000.052;79;000.438;MIDI 01
240.510;000.126;81;000.391;MIDI 01
240.620;000.039;64;000.484;MIDI 01
240.625;000.039;60;000.469;MIDI 01
240.627;000.039;79;000.438;MIDI 01
240.884;000.212;55;000.414;MIDI 01
240.868;000.240;62;000.484;MIDI 01
241.128;000.046;79;000.422;MIDI 01
241.230;000.114;81;000.352;MIDI 01
241.318;000.042;79;000.461;MIDI 01
241.323;000.041;64;000.438;MIDI 01
241.336;000.033;60;000.344;MIDI 01
241.581;000.251;62;000.430;MIDI 01
241.596;000.244;65;000.398;MIDI 01
241.861;000.039;79;000.375;MIDI 01
241.947;000.058;81;000.320;MIDI 01
242.045;000.033;79;000.430;MIDI 01
242.047;000.033;60;000.414;MIDI 01
242.043;000.041;64;000.430;MIDI 01
242.301;000.253;62;000.430;MIDI 01
242.323;000.234;55;000.281;MIDI 01
242.601;000.032;79;000.328;MIDI 01
242.677;000.056;81;000.328;MIDI 01
242.760;000.034;79;000.445;MIDI 01
242.754;000.042;64;000.422;MIDI 01
242.769;000.034;60;000.328;MIDI 01
243.034;000.225;65;000.375;MIDI 01
243.020;000.250;62;000.430;MIDI 01
243.336;000.035;79;000.336;MIDI 01
243.428;000.073;81;000.320;MIDI 01
243.499;000.039;79;000.477;MIDI 01
243.508;000.035;60;000.352;MIDI 01
243.501;000.045;64;000.414;MIDI 01
243.771;000.249;55;000.328;MIDI 01
243.769;000.267;62;000.344;MIDI 01
243.766;000.276;59;000.305;MIDI 01
244.040;000.034;79;000.375;MIDI 01
244.136;000.058;81;000.242;MIDI 01
244.207;000.037;79;000.438;MIDI 01
244.216;000.049;60;000.406;MIDI 01
244.233;000.056;64;000.367;MIDI 01
244.511;000.255;55;000.266;MIDI 01
244.499;000.272;62;000.352;MIDI 01
244.497;000.280;59;000.297;MIDI 01
244.772;000.033;79;000.312;MIDI 01
244.840;000.071;81;000.383;MIDI 01
244.932;000.042;79;000.422;MIDI 01
244.971;000.058;60;000.398;MIDI 01
244.972;000.084;64;000.422;MIDI 01
245.260;000.273;55;000.328;MIDI 01
245.265;000.292;59;000.312;MIDI 01
245.262;000.298;62;000.352;MIDI 01
245.527;000.035;79;000.375;MIDI 01
245.704;000.041;79;000.430;MIDI 01
245.623;000.136;81;000.227;MIDI 01
245.741;000.051;60;000.344;MIDI 01
245.743;000.056;64;000.359;MIDI 01
246.092;001.285;55;000.258;MIDI 01
246.074;001.334;62;000.297;MIDI 01
246.081;001.349;59;000.234;MIDI 01
247.872;000.129;73;000.656;MIDI 01
247.996;000.108;67;000.578;MIDI 01
248.104;000.041;64;000.586;MIDI 01
248.219;000.145;76;000.641;MIDI 01
248.339;000.073;73;000.547;MIDI 01
248.433;000.049;67;000.594;MIDI 01
248.556;000.120;79;000.625;MIDI 01
248.674;000.090;76;000.602;MIDI 01
248.792;000.058;73;000.602;MIDI 01
248.920;000.149;85;000.594;MIDI 01
249.041;000.105;79;000.570;MIDI 01
249.150;000.046;76;000.570;MIDI 01
249.256;000.166;88;000.688;MIDI 01
249.387;000.114;85;000.586;MIDI 01
249.497;000.091;79;000.586;MIDI 01
249.617;000.123;85;000.625;MIDI 01
249.729;000.053;79;000.586;MIDI 01
249.829;000.046;76;000.586;MIDI 01
249.947;000.116;79;000.594;MIDI 01
250.052;000.125;76;000.633;MIDI 01
250.173;000.114;73;000.617;MIDI 01
250.284;000.123;76;000.633;MIDI 01
247.877;002.556;52;000.562;MIDI 01
247.870;002.580;55;000.656;MIDI 01
250.392;000.081;73;000.547;MIDI 01
250.492;000.033;67;000.578;MIDI 01
247.884;002.649;49;000.531;MIDI 01
247.878;002.657;45;000.562;MIDI 01
250.655;000.242;74;000.719;MIDI 01
250.887;000.092;71;000.609;MIDI 01
251.028;000.034;65;000.602;MIDI 01
250.668;000.561;45;000.578;MIDI 01
250.658;000.573;53;000.617;MIDI 01
250.662;000.575;50;000.578;MIDI 01
251.299;000.168;74;000.688;MIDI 01
251.448;000.093;69;000.586;MIDI 01
251.568;000.034;65;000.570;MIDI 01
251.683;000.140;77;000.672;MIDI 01
251.822;000.087;74;000.578;MIDI 01
251.918;000.046;69;000.562;MIDI 01
252.035;000.164;81;000.680;MIDI 01
252.166;000.101;77;000.594;MIDI 01
252.275;000.055;74;000.617;MIDI 01
252.392;000.175;86;000.703;MIDI 01
252.536;000.124;81;000.562;MIDI 01
252.648;000.051;77;000.617;MIDI 01
252.775;000.141;89;000.664;MIDI 01
252.894;000.119;86;000.641;MIDI 01
253.008;000.123;81;000.633;MIDI 01
253.128;000.101;86;000.633;MIDI 01
253.229;000.072;81;000.523;MIDI 01
253.327;000.058;77;000.617;MIDI 01
253.443;000.114;81;000.648;MIDI 01
253.550;000.113;77;000.609;MIDI 01
253.669;000.122;74;000.625;MIDI 01
251.309;002.550;53;000.570;MIDI 01
253.789;000.110;77;000.625;MIDI 01
251.312;002.617;45;000.539;MIDI 01
251.320;002.629;50;000.492;MIDI 01
253.903;000.076;74;000.562;MIDI 01
254.036;000.033;67;000.367;MIDI 01
254.169;000.230;74;000.672;MIDI 01
254.361;000.092;71;000.516;MIDI 01
254.470;000.034;65;000.547;MIDI 01
254.594;000.167;77;000.695;MIDI 01
254.728;000.098;74;000.570;MIDI 01
254.836;000.034;71;000.555;MIDI 01
254.943;000.166;83;000.664;MIDI 01
255.089;000.088;77;000.516;MIDI 01
255.195;000.045;74;000.617;MIDI 01
255.311;000.154;86;000.688;MIDI 01
255.451;000.104;83;000.492;MIDI 01
255.561;000.045;77;000.586;MIDI 01
255.688;000.134;89;000.641;MIDI 01
255.801;000.117;86;000.633;MIDI 01
255.915;000.126;83;000.609;MIDI 01
256.036;000.098;86;000.625;MIDI 01
256.131;000.072;83;000.477;MIDI 01
256.230;000.061;77;000.594;MIDI 01
256.383;000.036;81;000.344;MIDI 01
256.349;000.093;83;000.555;MIDI 01
256.442;000.118;77;000.633;MIDI 01
256.559;000.111;74;000.609;MIDI 01
254.156;002.600;50;000.555;MIDI 01
254.158;002.629;53;000.656;MIDI 01
256.675;000.127;77;000.617;MIDI 01
254.172;002.675;47;000.461;MIDI 01
256.792;000.090;74;000.594;MIDI 01
254.164;002.734;43;000.562;MIDI 01
256.902;000.039;71;000.547;MIDI 01
257.049;000.189;72;000.703;MIDI 01
257.238;000.096;67;000.500;MIDI 01
257.349;000.045;64;000.578;MIDI 01
257.456;000.148;76;000.703;MIDI 01
257.589;000.089;72;000.586;MIDI 01
257.706;000.037;67;000.562;MIDI 01
257.809;000.150;79;000.672;MIDI 01
257.957;000.087;76;000.570;MIDI 01
258.080;000.039;72;000.586;MIDI 01
258.210;000.164;84;000.664;MIDI 01
258.354;000.118;79;000.570;MIDI 01
258.467;000.043;76;000.594;MIDI 01
258.579;000.139;88;000.664;MIDI 01
258.699;000.115;84;000.586;MIDI 01
258.814;000.108;79;000.578;MIDI 01
258.926;000.110;84;000.609;MIDI 01
259.041;000.069;79;000.555;MIDI 01
259.139;000.056;76;000.609;MIDI 01
259.250;000.113;79;000.648;MIDI 01
259.357;000.110;76;000.625;MIDI 01
259.476;000.117;72;000.586;MIDI 01
257.051;002.633;52;000.625;MIDI 01
259.594;000.106;76;000.586;MIDI 01
257.054;002.653;43;000.547;MIDI 01
257.057;002.672;48;000.578;MIDI 01
259.700;000.075;72;000.531;MIDI 01
259.812;000.040;67;000.523;MIDI 01
259.985;000.176;72;000.406;MIDI 01
260.139;000.098;67;000.484;MIDI 01
260.264;000.031;63;000.406;MIDI 01
260.367;000.133;75;000.602;MIDI 01
260.482;000.122;72;000.492;MIDI 01
260.590;000.047;67;000.516;MIDI 01
260.718;000.128;79;000.602;MIDI 01
260.837;000.108;75;000.570;MIDI 01
260.955;000.097;72;000.531;MIDI 01
259.998;001.122;43;000.273;MIDI 01
260.004;001.118;48;000.227;MIDI 01
261.077;000.086;75;000.578;MIDI 01
259.995;001.188;51;000.336;MIDI 01
261.186;000.067;72;000.531;MIDI 01
261.280;000.046;67;000.578;MIDI 01
261.416;000.148;72;000.602;MIDI 01
261.565;000.105;68;000.602;MIDI 01
261.681;000.051;63;000.547;MIDI 01
261.805;000.202;75;000.625;MIDI 01
261.933;000.146;72;000.555;MIDI 01
262.059;000.071;68;000.578;MIDI 01
262.159;000.124;80;000.641;MIDI 01
262.277;000.141;75;000.633;MIDI 01
262.414;000.050;73;000.203;MIDI 01
261.413;001.095;56;000.617;MIDI 01
262.418;000.109;72;000.562;MIDI 01
261.422;001.116;44;000.523;MIDI 01
261.429;001.157;48;000.391;MIDI 01
261.424;001.189;51;000.398;MIDI 01
262.531;000.099;75;000.594;MIDI 01
262.630;000.110;72;000.555;MIDI 01
262.745;000.039;68;000.562;MIDI 01
262.875;000.126;72;000.656;MIDI 01
263.010;000.103;69;000.586;MIDI 01
263.126;000.052;66;000.609;MIDI 01
263.244;000.196;75;000.648;MIDI 01
263.370;000.142;72;000.578;MIDI 01
263.479;000.081;69;000.562;MIDI 01
263.594;000.154;78;000.656;MIDI 01
263.727;000.122;75;000.625;MIDI 01
262.884;001.065;51;000.500;MIDI 01
262.880;001.073;45;000.547;MIDI 01
262.873;001.088;54;000.672;MIDI 01
262.890;001.078;48;000.453;MIDI 01
263.849;000.135;72;000.594;MIDI 01
263.984;000.106;75;000.633;MIDI 01
264.089;000.116;72;000.562;MIDI 01
264.210;000.041;69;000.547;MIDI 01
264.391;000.218;72;000.672;MIDI 01
264.567;000.108;67;000.562;MIDI 01
264.701;000.043;64;000.562;MIDI 01
264.811;000.154;76;000.695;MIDI 01
264.944;000.103;72;000.570;MIDI 01
265.044;000.054;67;000.625;MIDI 01
265.157;000.154;79;000.750;MIDI 01
265.285;000.113;76;000.625;MIDI 01
265.398;000.067;72;000.656;MIDI 01
265.517;000.159;84;000.664;MIDI 01
264.320;001.389;43;000.578;MIDI 01
264.402;001.319;55;000.680;MIDI 01
265.641;000.097;79;000.570;MIDI 01
264.359;001.384;52;000.633;MIDI 01
264.339;001.408;48;000.570;MIDI 01
265.736;000.031;76;000.578;MIDI 01
265.985;000.021;84;000.516;MIDI 01
265.988;000.023;88;000.586;MIDI 01
266.275;000.041;88;000.258;MIDI 01
266.315;000.107;89;000.531;MIDI 01
266.288;000.145;84;000.430;MIDI 01
266.421;000.030;86;000.570;MIDI 01
266.442;000.029;83;000.484;MIDI 01
266.647;000.021;81;000.516;MIDI 01
266.642;000.031;84;000.555;MIDI 01
266.859;000.108;84;000.438;MIDI 01
266.875;000.163;81;000.391;MIDI 01
266.966;000.083;86;000.547;MIDI 01
267.032;000.036;83;000.508;MIDI 01
267.074;000.023;79;000.422;MIDI 01
267.266;000.022;77;000.508;MIDI 01
267.268;000.031;81;000.555;MIDI 01
267.486;000.079;81;000.438;MIDI 01
267.491;000.162;77;000.398;MIDI 01
267.573;000.083;83;000.508;MIDI 01
267.656;000.033;79;000.469;MIDI 01
267.681;000.026;76;000.453;MIDI 01
267.885;000.034;77;000.508;MIDI 01
267.900;000.028;74;000.398;MIDI 01
268.107;000.104;77;000.430;MIDI 01
268.223;000.056;79;000.469;MIDI 01
268.144;000.143;74;000.180;MIDI 01
268.294;000.036;76;000.461;MIDI 01
268.309;000.040;72;000.336;MIDI 01
268.584;000.264;71;000.367;MIDI 01
268.614;000.249;68;000.250;MIDI 01
268.633;000.345;65;000.211;MIDI 01
268.575;000.699;74;000.430;MIDI 01
269.284;000.074;72;000.328;MIDI 01
269.311;000.064;67;000.281;MIDI 01
269.309;000.079;64;000.289;MIDI 01
269.271;000.120;76;000.383;MIDI 01
269.994;000.052;81;000.375;MIDI 01
270.008;000.042;77;000.289;MIDI 01
270.027;000.043;65;000.258;MIDI 01
270.015;000.059;57;000.242;MIDI 01
270.034;000.042;53;000.211;MIDI 01
270.750;000.038;62;000.344;MIDI 01
270.746;000.056;71;000.297;MIDI 01
270.762;000.053;55;000.203;MIDI 01
270.769;000.049;65;000.281;MIDI 01
271.371;000.232;55;000.359;MIDI 01
271.614;000.035;60;000.336;MIDI 01
271.844;000.030;60;000.398;MIDI 01
272.070;000.040;60;000.305;MIDI 01
272.041;000.198;67;000.414;MIDI 01
272.252;000.029;74;000.461;MIDI 01
272.281;000.182;59;000.430;MIDI 01
272.490;000.028;74;000.562;MIDI 01
272.492;000.054;62;000.445;MIDI 01
272.592;000.054;59;000.461;MIDI 01
272.688;000.044;74;000.469;MIDI 01
272.707;000.171;55;000.414;MIDI 01
272.913;000.032;64;000.484;MIDI 01
272.910;000.040;74;000.523;MIDI 01
272.961;000.094;72;000.547;MIDI 01
273.055;000.035;71;000.492;MIDI 01
273.110;000.016;72;000.164;MIDI 01
273.153;000.038;64;000.312;MIDI 01
273.144;000.065;76;000.531;MIDI 01
273.208;000.100;72;000.547;MIDI 01
273.352;000.029;64;000.398;MIDI 01
273.339;000.158;67;000.523;MIDI 01
273.575;000.030;77;000.570;MIDI 01
273.593;000.174;62;000.492;MIDI 01
273.810;000.034;77;000.531;MIDI 01
273.795;000.064;65;000.453;MIDI 01
273.919;000.052;62;000.406;MIDI 01
274.031;000.034;77;000.484;MIDI 01
274.029;000.191;59;000.406;MIDI 01
274.221;000.026;67;000.469;MIDI 01
274.233;000.061;77;000.445;MIDI 01
274.296;000.070;76;000.602;MIDI 01
274.375;000.047;74;000.555;MIDI 01
274.421;000.048;76;000.359;MIDI 01
274.440;000.031;67;000.359;MIDI 01
274.480;000.051;79;000.539;MIDI 01
274.541;000.104;76;000.414;MIDI 01
274.683;000.039;67;000.320;MIDI 01
274.675;000.224;72;000.516;MIDI 01
274.919;000.031;81;000.555;MIDI 01
274.908;000.062;67;000.469;MIDI 01
275.025;000.062;60;000.492;MIDI 01
275.134;000.033;81;000.492;MIDI 01
275.144;000.043;65;000.484;MIDI 01
275.228;000.072;64;000.516;MIDI 01
275.361;000.022;81;000.477;MIDI 01
275.359;000.056;62;000.438;MIDI 01
275.466;000.078;60;000.430;MIDI 01
275.579;000.028;59;000.445;MIDI 01
275.570;000.229;81;000.547;MIDI 01
275.855;000.048;59;000.289;MIDI 01
275.575;000.392;74;000.516;MIDI 01
275.842;000.128;86;000.500;MIDI 01
275.949;000.120;84;000.562;MIDI 01
276.062;000.035;59;000.336;MIDI 01
276.058;000.094;83;000.555;MIDI 01
276.147;000.031;81;000.562;MIDI 01
276.256;000.059;74;000.516;MIDI 01
276.297;000.031;81;000.391;MIDI 01
276.282;000.076;64;000.500;MIDI 01
276.286;000.105;79;000.555;MIDI 01
276.414;000.040;52;000.492;MIDI 01
276.516;000.044;64;000.477;MIDI 01
276.518;000.120;79;000.602;MIDI 01
276.619;000.061;62;000.500;MIDI 01
276.617;000.118;77;000.547;MIDI 01
276.747;000.057;60;000.383;MIDI 01
276.743;000.086;76;000.492;MIDI 01
276.833;000.035;74;000.500;MIDI 01
276.842;000.070;59;000.453;MIDI 01
276.953;000.038;57;000.547;MIDI 01
276.974;000.051;72;000.539;MIDI 01
276.976;000.075;79;000.633;MIDI 01
277.090;000.104;83;000.578;MIDI 01
277.185;000.042;57;000.336;MIDI 01
277.199;000.136;84;000.594;MIDI 01
277.318;000.113;83;000.562;MIDI 01
277.430;000.036;57;000.312;MIDI 01
277.424;000.103;81;000.578;MIDI 01
277.535;000.025;79;000.469;MIDI 01
277.649;000.045;72;000.477;MIDI 01
277.673;000.059;62;000.469;MIDI 01
277.676;000.092;77;000.570;MIDI 01
277.796;000.051;50;000.523;MIDI 01
277.790;000.094;76;000.586;MIDI 01
277.910;000.052;62;000.508;MIDI 01
277.903;000.092;77;000.578;MIDI 01
278.020;000.055;60;000.492;MIDI 01
277.995;000.114;76;000.617;MIDI 01
278.119;000.040;74;000.461;MIDI 01
278.136;000.076;59;000.484;MIDI 01
278.226;000.044;72;000.500;MIDI 01
278.249;000.062;57;000.430;MIDI 01
278.356;000.028;55;000.531;MIDI 01
278.354;000.041;71;000.516;MIDI 01
278.366;000.083;77;000.531;MIDI 01
278.473;000.145;81;000.516;MIDI 01
278.610;000.038;57;000.484;MIDI 01
278.587;000.106;79;000.586;MIDI 01
278.694;000.117;77;000.555;MIDI 01
278.844;000.042;59;000.273;MIDI 01
278.805;000.100;76;000.594;MIDI 01
278.905;000.086;74;000.586;MIDI 01
279.026;000.046;76;000.523;MIDI 01
279.053;000.086;60;000.477;MIDI 01
279.165;000.094;64;000.539;MIDI 01
279.273;000.028;77;000.617;MIDI 01
279.269;000.071;62;000.547;MIDI 01
279.371;000.052;65;000.508;MIDI 01
279.482;000.026;79;000.625;MIDI 01
279.484;000.092;64;000.516;MIDI 01
279.619;000.089;67;000.492;MIDI 01
279.719;000.074;65;000.492;MIDI 01
279.714;000.170;79;000.438;MIDI 01
279.831;000.101;69;000.484;MIDI 01
279.935;000.027;72;000.438;MIDI 01
279.968;000.049;65;000.430;MIDI 01
280.083;000.059;69;000.445;MIDI 01
280.163;000.055;72;000.430;MIDI 01
280.172;000.052;65;000.445;MIDI 01
280.267;000.088;69;000.547;MIDI 01
280.394;000.049;65;000.539;MIDI 01
280.380;000.079;72;000.555;MIDI 01
280.481;000.097;69;000.547;MIDI 01
280.497;000.108;74;000.578;MIDI 01
280.602;000.053;65;000.562;MIDI 01
280.608;000.078;76;000.625;MIDI 01
280.695;000.099;69;000.578;MIDI 01
280.709;000.098;77;000.609;MIDI 01
280.805;000.068;65;000.570;MIDI 01
280.814;000.115;79;000.656;MIDI 01
280.915;000.105;69;000.594;MIDI 01
280.919;000.163;80;000.641;MIDI 01
281.034;000.071;65;000.602;MIDI 01
281.139;000.103;69;000.602;MIDI 01
281.277;000.034;74;000.578;MIDI 01
281.262;000.055;65;000.594;MIDI 01
281.049;000.271;81;000.680;MIDI 01
281.368;000.102;69;000.586;MIDI 01
281.493;000.050;74;000.555;MIDI 01
281.483;000.070;65;000.578;MIDI 01
281.583;000.114;69;000.609;MIDI 01
281.712;000.077;66;000.641;MIDI 01
281.721;000.190;84;000.695;MIDI 01
281.826;000.099;69;000.602;MIDI 01
281.941;000.031;75;000.648;MIDI 01
281.945;000.070;66;000.586;MIDI 01
282.057;000.076;69;000.570;MIDI 01
282.153;000.026;75;000.680;MIDI 01
282.161;000.068;66;000.594;MIDI 01
282.271;000.032;69;000.578;MIDI 01
282.411;000.046;55;000.562;MIDI 01
282.391;000.073;84;000.727;MIDI 01
282.512;000.038;76;000.648;MIDI 01
282.517;000.051;67;000.539;MIDI 01
282.634;000.048;66;000.523;MIDI 01
282.619;000.073;79;000.602;MIDI 01
282.715;000.050;76;000.625;MIDI 01
282.728;000.064;67;000.562;MIDI 01
282.841;000.039;66;000.477;MIDI 01
282.821;000.077;84;000.656;MIDI 01
282.923;000.038;67;000.500;MIDI 01
282.925;000.054;76;000.680;MIDI 01
283.039;000.053;55;000.641;MIDI 01
283.044;000.094;83;000.633;MIDI 01
283.137;000.046;74;000.625;MIDI 01
283.148;000.064;67;000.492;MIDI 01
283.280;000.044;66;000.516;MIDI 01
283.264;000.062;77;000.570;MIDI 01
283.367;000.043;74;000.617;MIDI 01
283.365;000.067;67;000.539;MIDI 01
283.481;000.041;66;000.430;MIDI 01
283.474;000.070;83;000.633;MIDI 01
283.556;000.039;67;000.531;MIDI 01
283.577;000.036;74;000.609;MIDI 01
283.683;000.046;55;000.609;MIDI 01
283.691;000.091;81;000.656;MIDI 01
283.777;000.039;72;000.594;MIDI 01
283.801;000.055;67;000.461;MIDI 01
283.892;000.074;76;000.594;MIDI 01
283.930;000.039;66;000.461;MIDI 01
284.006;000.041;72;000.586;MIDI 01
284.022;000.056;67;000.492;MIDI 01
284.134;000.047;66;000.430;MIDI 01
284.109;000.081;81;000.625;MIDI 01
284.208;000.038;67;000.594;MIDI 01
284.207;000.045;72;000.617;MIDI 01
284.342;000.041;55;000.594;MIDI 01
284.340;000.073;79;000.617;MIDI 01
284.431;000.040;71;000.570;MIDI 01
284.439;000.059;67;000.531;MIDI 01
284.574;000.044;66;000.469;MIDI 01
284.550;000.079;74;000.562;MIDI 01
284.669;000.038;71;000.516;MIDI 01
284.666;000.053;67;000.445;MIDI 01
284.783;000.043;66;000.414;MIDI 01
284.755;000.082;79;000.594;MIDI 01
284.842;000.058;67;000.523;MIDI 01
284.871;000.057;71;000.531;MIDI 01
285.001;000.032;55;000.523;MIDI 01
284.986;000.068;78;000.539;MIDI 01
285.095;000.040;69;000.523;MIDI 01
285.084;000.062;67;000.492;MIDI 01
285.223;000.045;66;000.445;MIDI 01
285.195;000.100;72;000.547;MIDI 01
285.306;000.044;69;000.516;MIDI 01
285.323;000.042;67;000.375;MIDI 01
285.418;000.048;66;000.414;MIDI 01
285.420;000.074;78;000.500;MIDI 01
285.509;000.050;67;000.391;MIDI 01
285.531;000.038;69;000.383;MIDI 01
285.644;000.042;55;000.406;MIDI 01
285.660;000.054;77;000.430;MIDI 01
285.758;000.036;71;000.430;MIDI 01
285.730;000.079;67;000.422;MIDI 01
285.902;000.037;66;000.328;MIDI 01
285.874;000.079;74;000.453;MIDI 01
285.980;000.042;67;000.398;MIDI 01
285.978;000.047;71;000.375;MIDI 01
286.078;000.052;66;000.359;MIDI 01
286.096;000.056;77;000.406;MIDI 01
286.184;000.059;67;000.336;MIDI 01
286.197;000.054;71;000.414;MIDI 01
286.324;000.034;55;000.383;MIDI 01
286.312;000.064;77;000.406;MIDI 01
286.409;000.064;67;000.406;MIDI 01
286.423;000.058;71;000.391;MIDI 01
286.529;000.105;74;000.445;MIDI 01
286.598;000.056;66;000.125;MIDI 01
286.664;000.048;71;000.352;MIDI 01
286.683;000.053;67;000.141;MIDI 01
286.778;000.065;77;000.367;MIDI 01
286.804;000.057;66;000.125;MIDI 01
286.871;000.054;67;000.352;MIDI 01
286.889;000.057;71;000.305;MIDI 01
287.056;000.074;55;000.227;MIDI 01
287.018;000.122;77;000.336;MIDI 01
287.303;000.056;74;000.359;MIDI 01
287.328;000.044;77;000.250;MIDI 01
287.530;000.073;74;000.406;MIDI 01
287.525;000.089;77;000.305;MIDI 01
287.782;000.062;77;000.375;MIDI 01
287.771;000.076;74;000.336;MIDI 01
288.010;000.067;77;000.336;MIDI 01
287.999;000.080;74;000.445;MIDI 01
288.251;000.054;74;000.375;MIDI 01
288.241;000.074;77;000.367;MIDI 01
288.479;000.062;77;000.375;MIDI 01
288.474;000.074;74;000.344;MIDI 01
288.731;000.049;65;000.242;MIDI 01
288.709;000.074;74;000.367;MIDI 01
288.753;000.042;80;000.234;MIDI 01
288.942;000.072;80;000.305;MIDI 01
288.955;000.061;74;000.383;MIDI 01
288.974;000.050;71;000.297;MIDI 01
288.967;000.060;65;000.211;MIDI 01
289.183;000.060;80;000.391;MIDI 01
289.196;000.051;71;000.273;MIDI 01
289.200;000.051;65;000.281;MIDI 01
289.185;000.069;74;000.328;MIDI 01
289.425;000.060;80;000.297;MIDI 01
289.419;000.074;74;000.328;MIDI 01
289.444;000.051;65;000.227;MIDI 01
289.428;000.071;71;000.328;MIDI 01
289.663;000.059;74;000.359;MIDI 01
289.665;000.059;80;000.328;MIDI 01
289.683;000.043;71;000.281;MIDI 01
289.681;000.056;65;000.203;MIDI 01
289.884;000.045;74;000.477;MIDI 01
289.891;000.058;71;000.375;MIDI 01
289.906;000.050;65;000.352;MIDI 01
289.899;000.062;80;000.422;MIDI 01
290.099;000.032;77;000.633;MIDI 01
290.095;000.038;68;000.586;MIDI 01
290.102;000.034;65;000.430;MIDI 01
290.097;000.042;70;000.625;MIDI 01
290.091;000.059;80;000.625;MIDI 01
290.084;000.073;62;000.602;MIDI 01
290.093;000.073;82;000.672;MIDI 01
290.309;000.033;77;000.602;MIDI 01
290.316;000.036;70;000.609;MIDI 01
290.310;000.046;62;000.578;MIDI 01
290.314;000.058;68;000.469;MIDI 01
290.307;000.067;80;000.609;MIDI 01
290.305;000.071;82;000.594;MIDI 01
290.329;000.049;65;000.344;MIDI 01
290.529;000.036;84;000.555;MIDI 01
290.542;000.026;70;000.523;MIDI 01
290.533;000.045;62;000.562;MIDI 01
290.534;000.047;68;000.469;MIDI 01
290.540;000.051;65;000.336;MIDI 01
290.560;000.053;82;000.531;MIDI 01
290.614;000.078;81;000.531;MIDI 01
290.671;000.078;82;000.555;MIDI 01
290.719;000.039;68;000.539;MIDI 01
290.725;000.039;65;000.445;MIDI 01
290.714;000.055;70;000.586;MIDI 01
290.710;000.074;62;000.602;MIDI 01
290.705;000.083;84;000.539;MIDI 01
290.940;000.043;80;000.703;MIDI 01
290.967;000.025;62;000.469;MIDI 01
290.971;000.031;70;000.578;MIDI 01
290.973;000.043;68;000.406;MIDI 01
290.977;000.049;65;000.188;MIDI 01
291.223;000.054;70;000.664;MIDI 01
291.218;000.078;63;000.609;MIDI 01
291.221;000.077;67;000.586;MIDI 01
291.215;000.118;79;000.695;MIDI 01
291.508;000.095;87;000.594;MIDI 01
291.602;000.100;86;000.602;MIDI 01
291.702;000.123;89;000.617;MIDI 01
291.800;000.120;87;000.664;MIDI 01
291.896;000.072;86;000.609;MIDI 01
292.001;000.102;84;000.578;MIDI 01
292.098;000.127;82;000.594;MIDI 01
292.200;000.121;80;000.641;MIDI 01
292.303;000.089;79;000.602;MIDI 01
292.397;000.045;77;000.531;MIDI 01
292.504;000.062;75;000.555;MIDI 01
292.593;000.134;79;000.586;MIDI 01
292.698;000.128;77;000.617;MIDI 01
292.796;000.120;75;000.625;MIDI 01
292.899;000.048;74;000.594;MIDI 01
292.994;000.107;72;000.586;MIDI 01
293.105;000.101;70;000.633;MIDI 01
293.216;000.124;75;000.578;MIDI 01
293.308;000.101;74;000.570;MIDI 01
293.400;000.106;72;000.562;MIDI 01
293.491;000.102;70;000.594;MIDI 01
293.598;000.034;68;000.500;MIDI 01
293.694;000.122;67;000.633;MIDI 01
293.821;000.054;60;000.578;MIDI 01
293.816;000.141;72;000.648;MIDI 01
293.943;000.088;58;000.531;MIDI 01
293.917;000.149;70;000.617;MIDI 01
294.035;000.074;56;000.578;MIDI 01
294.012;000.137;68;000.609;MIDI 01
294.132;000.054;55;000.570;MIDI 01
294.119;000.104;67;000.609;MIDI 01
294.223;000.053;65;000.602;MIDI 01
294.250;000.092;53;000.578;MIDI 01
294.329;000.039;63;000.633;MIDI 01
294.352;000.077;51;000.555;MIDI 01
294.394;000.037;62;000.367;MIDI 01
294.442;000.093;55;000.570;MIDI 01
294.425;000.155;67;000.633;MIDI 01
294.553;000.064;53;000.539;MIDI 01
294.534;000.144;65;000.625;MIDI 01
294.645;000.064;51;000.562;MIDI 01
294.635;000.131;63;000.625;MIDI 01
294.744;000.072;50;000.531;MIDI 01
294.741;000.081;62;000.609;MIDI 01
294.852;000.056;48;000.539;MIDI 01
294.859;000.091;60;000.508;MIDI 01
294.951;000.101;46;000.570;MIDI 01
294.954;000.119;58;000.664;MIDI 01
295.057;000.060;51;000.578;MIDI 01
295.069;000.155;63;000.594;MIDI 01
295.152;000.101;50;000.547;MIDI 01
295.165;000.131;62;000.570;MIDI 01
295.265;000.075;48;000.555;MIDI 01
295.271;000.131;60;000.602;MIDI 01
295.365;000.108;46;000.547;MIDI 01
295.367;000.114;58;000.586;MIDI 01
295.481;000.032;56;000.539;MIDI 01
295.484;000.085;44;000.555;MIDI 01
295.559;000.079;43;000.508;MIDI 01
295.565;000.116;55;000.664;MIDI 01
295.673;000.081;48;000.602;MIDI 01
295.675;000.154;60;000.602;MIDI 01
295.779;000.103;46;000.570;MIDI 01
295.773;000.171;58;000.586;MIDI 01
295.881;000.084;44;000.602;MIDI 01
295.872;000.163;56;000.625;MIDI 01
295.989;000.079;43;000.617;MIDI 01
295.982;000.119;55;000.609;MIDI 01
296.099;000.036;53;000.547;MIDI 01
296.117;000.089;41;000.562;MIDI 01
296.204;000.132;51;000.688;MIDI 01
296.206;000.214;39;000.633;MIDI 01
296.324;000.118;55;000.609;MIDI 01
296.435;000.097;50;000.562;MIDI 01
296.432;000.206;38;000.578;MIDI 01
296.536;000.105;55;000.547;MIDI 01
296.637;000.121;49;000.594;MIDI 01
296.654;000.152;37;000.523;MIDI 01
296.755;000.081;55;000.555;MIDI 01
296.830;000.118;48;000.469;MIDI 01
296.936;000.102;51;000.609;MIDI 01
297.049;000.100;56;000.555;MIDI 01
296.889;000.314;36;000.461;MIDI 01
297.153;000.125;60;000.539;MIDI 01
297.262;000.111;56;000.633;MIDI 01
297.358;000.097;55;000.578;MIDI 01
297.453;000.048;53;000.602;MIDI 01
297.429;000.224;41;000.688;MIDI 01
297.576;000.100;57;000.625;MIDI 01
297.669;000.109;52;000.602;MIDI 01
297.699;000.126;40;000.656;MIDI 01
297.782;000.104;57;000.648;MIDI 01
297.899;000.055;39;000.586;MIDI 01
297.891;000.107;51;000.641;MIDI 01
298.005;000.072;57;000.570;MIDI 01
298.094;000.071;50;000.602;MIDI 01
298.197;000.120;53;000.633;MIDI 01
298.106;000.270;38;000.695;MIDI 01
298.308;000.108;58;000.602;MIDI 01
298.416;000.136;62;000.562;MIDI 01
298.521;000.108;58;000.617;MIDI 01
298.592;000.064;57;000.594;MIDI 01
298.724;000.047;55;000.648;MIDI 01
298.704;000.233;43;000.734;MIDI 01
298.829;000.110;59;000.633;MIDI 01
298.934;000.123;54;000.578;MIDI 01
298.972;000.118;42;000.586;MIDI 01
299.049;000.105;59;000.625;MIDI 01
299.189;000.039;41;000.594;MIDI 01
299.151;000.125;53;000.609;MIDI 01
299.261;000.108;59;000.602;MIDI 01
299.361;000.086;51;000.562;MIDI 01
299.466;000.081;55;000.641;MIDI 01
299.398;000.154;39;000.672;MIDI 01
299.589;000.110;60;000.625;MIDI 01
299.697;000.139;63;000.633;MIDI 01
299.806;000.094;62;000.664;MIDI 01
299.899;000.028;60;000.609;MIDI 01
300.137;000.114;61;000.602;MIDI 01
300.245;000.128;60;000.602;MIDI 01
300.347;000.191;61;000.633;MIDI 01
300.015;000.541;53;000.633;MIDI 01
300.447;000.127;68;000.586;MIDI 01
300.019;000.567;56;000.656;MIDI 01
300.545;000.072;65;000.594;MIDI 01
300.771;000.117;65;000.656;MIDI 01
300.874;000.128;64;000.641;MIDI 01
301.017;000.033;68;000.359;MIDI 01
300.993;000.101;67;000.594;MIDI 01
300.656;000.514;58;000.656;MIDI 01
300.660;000.540;55;000.648;MIDI 01
301.085;000.132;70;000.672;MIDI 01
301.194;000.060;67;000.664;MIDI 01
301.428;000.108;67;000.633;MIDI 01
301.534;000.127;65;000.617;MIDI 01
301.650;000.114;68;000.625;MIDI 01
301.310;000.534;60;000.672;MIDI 01
301.759;000.118;72;000.648;MIDI 01
301.314;000.586;56;000.648;MIDI 01
301.866;000.076;68;000.656;MIDI 01
302.091;000.133;68;000.641;MIDI 01
302.224;000.121;67;000.617;MIDI 01
302.340;000.104;70;000.633;MIDI 01
302.444;000.199;73;000.633;MIDI 01
302.549;000.136;72;000.594;MIDI 01
302.653;000.141;70;000.664;MIDI 01
301.980;000.819;61;000.680;MIDI 01
301.992;000.840;58;000.594;MIDI 01
302.764;000.109;68;000.602;MIDI 01
302.871;000.040;67;000.609;MIDI 01
302.980;000.111;68;000.578;MIDI 01
303.102;000.039;59;000.539;MIDI 01
303.085;000.144;67;000.594;MIDI 01
303.215;000.109;65;000.586;MIDI 01
303.324;000.041;64;000.547;MIDI 01
303.348;000.062;48;000.617;MIDI 01
303.465;000.059;60;000.625;MIDI 01
303.428;000.102;72;000.633;MIDI 01
303.579;000.055;59;000.547;MIDI 01
303.530;000.124;71;000.609;MIDI 01
303.654;000.072;60;000.594;MIDI 01
303.654;000.106;72;000.672;MIDI 01
303.777;000.081;55;000.617;MIDI 01
303.758;000.125;67;000.641;MIDI 01
303.871;000.076;64;000.586;MIDI 01
303.903;000.091;52;000.453;MIDI 01
304.010;000.105;60;000.547;MIDI 01
304.044;000.110;48;000.508;MIDI 01
304.558;000.204;72;000.469;MIDI 01
304.814;000.032;77;000.438;MIDI 01
304.824;000.029;69;000.422;MIDI 01
304.827;000.032;65;000.375;MIDI 01
305.047;000.029;89;000.602;MIDI 01
305.066;000.031;69;000.352;MIDI 01
305.072;000.042;65;000.305;MIDI 01
305.271;000.031;77;000.531;MIDI 01
305.261;000.046;65;000.430;MIDI 01
305.273;000.036;69;000.328;MIDI 01
305.492;000.027;65;000.445;MIDI 01
305.486;000.035;70;000.562;MIDI 01
305.493;000.046;77;000.445;MIDI 01
305.551;000.074;76;000.562;MIDI 01
305.617;000.054;74;000.500;MIDI 01
305.735;000.040;79;000.391;MIDI 01
305.800;000.050;70;000.023;MIDI 01
305.797;000.111;76;000.492;MIDI 01
305.941;000.033;65;000.484;MIDI 01
305.932;000.047;72;000.484;MIDI 01
306.197;000.028;69;000.438;MIDI 01
306.201;000.040;65;000.344;MIDI 01
306.174;000.104;77;000.477;MIDI 01
306.285;000.123;81;000.547;MIDI 01
306.420;000.036;69;000.328;MIDI 01
306.416;000.043;65;000.391;MIDI 01
306.397;000.115;79;000.547;MIDI 01
306.494;000.131;77;000.586;MIDI 01
306.610;000.038;69;000.383;MIDI 01
306.623;000.040;65;000.367;MIDI 01
306.608;000.105;76;000.609;MIDI 01
306.707;000.118;74;000.562;MIDI 01
306.832;000.032;72;000.555;MIDI 01
307.057;000.022;84;000.539;MIDI 01
306.841;000.247;67;000.383;MIDI 01
306.846;000.251;64;000.375;MIDI 01
307.312;000.231;67;000.375;MIDI 01
307.310;000.236;72;000.398;MIDI 01
307.321;000.227;64;000.328;MIDI 01
307.555;000.039;70;000.531;MIDI 01
307.592;000.089;65;000.383;MIDI 01
307.594;000.135;62;000.336;MIDI 01
307.791;000.021;82;000.469;MIDI 01
308.025;000.213;60;000.414;MIDI 01
308.008;000.246;64;000.383;MIDI 01
308.029;000.244;69;000.484;MIDI 01
308.270;000.024;67;000.469;MIDI 01
308.285;000.135;62;000.406;MIDI 01
308.283;000.194;58;000.328;MIDI 01
308.499;000.023;79;000.477;MIDI 01
308.738;000.184;57;000.352;MIDI 01
308.724;000.216;65;000.508;MIDI 01
308.723;000.229;60;000.367;MIDI 01
308.956;000.034;64;000.508;MIDI 01
308.975;000.040;58;000.297;MIDI 01
308.990;000.038;55;000.344;MIDI 01
309.181;000.044;70;000.531;MIDI 01
309.186;000.041;67;000.531;MIDI 01
309.202;000.031;52;000.438;MIDI 01
309.428;000.030;53;000.484;MIDI 01
309.422;000.038;65;000.578;MIDI 01
309.425;000.037;69;000.523;MIDI 01
309.664;000.035;64;000.516;MIDI 01
309.666;000.035;67;000.531;MIDI 01
309.934;000.027;76;000.508;MIDI 01
309.927;000.038;84;000.539;MIDI 01
309.672;000.300;48;000.453;MIDI 01
310.271;000.195;72;000.461;MIDI 01
310.538;000.025;77;000.445;MIDI 01
310.554;000.070;65;000.367;MIDI 01
310.669;000.071;69;000.469;MIDI 01
310.794;000.030;77;000.531;MIDI 01
310.785;000.076;65;000.398;MIDI 01
310.900;000.043;69;000.453;MIDI 01
311.012;000.033;77;000.469;MIDI 01
311.020;000.050;65;000.398;MIDI 01
311.078;000.046;69;000.453;MIDI 01
311.218;000.054;65;000.383;MIDI 01
311.214;000.071;77;000.539;MIDI 01
311.281;000.057;76;000.602;MIDI 01
311.289;000.061;70;000.539;MIDI 01
311.357;000.044;74;000.516;MIDI 01
311.420;000.030;76;000.336;MIDI 01
311.431;000.053;65;000.227;MIDI 01
311.449;000.072;79;000.594;MIDI 01
311.520;000.048;70;000.414;MIDI 01
311.518;000.096;76;000.477;MIDI 01
311.623;000.039;72;000.508;MIDI 01
311.629;000.068;65;000.367;MIDI 01
311.718;000.072;70;000.453;MIDI 01
311.809;000.040;72;000.516;MIDI 01
311.849;000.062;77;000.562;MIDI 01
311.872;000.067;65;000.414;MIDI 01
311.981;000.061;69;000.422;MIDI 01
311.895;000.233;81;000.664;MIDI 01
312.152;000.051;65;000.383;MIDI 01
312.150;000.090;79;000.508;MIDI 01
312.278;000.002;76;000.281;MIDI 01
312.239;000.071;69;000.461;MIDI 01
312.234;000.113;77;000.492;MIDI 01
312.333;000.093;76;000.430;MIDI 01
312.352;000.086;65;000.352;MIDI 01
312.432;000.101;74;000.578;MIDI 01
312.446;000.097;69;000.484;MIDI 01
312.559;000.100;67;000.469;MIDI 01
312.698;000.052;70;000.453;MIDI 01
312.784;000.059;69;000.492;MIDI 01
312.908;000.060;67;000.469;MIDI 01
312.551;000.519;73;000.586;MIDI 01
313.019;000.083;65;000.484;MIDI 01
313.133;000.080;64;000.445;MIDI 01
313.265;000.052;74;000.430;MIDI 01
313.375;000.104;81;000.516;MIDI 01
313.254;000.268;65;000.430;MIDI 01
313.479;000.123;79;000.570;MIDI 01
313.585;000.125;77;000.586;MIDI 01
313.692;000.103;76;000.625;MIDI 01
313.794;000.084;74;000.578;MIDI 01
313.919;000.098;65;000.477;MIDI 01
314.036;000.066;68;000.484;MIDI 01
313.908;000.261;72;000.547;MIDI 01
314.141;000.096;67;000.508;MIDI 01
314.272;000.069;65;000.445;MIDI 01
314.160;000.277;71;000.406;MIDI 01
314.379;000.081;64;000.477;MIDI 01
314.497;000.097;62;000.484;MIDI 01
314.634;000.062;72;000.461;MIDI 01
314.747;000.120;79;000.555;MIDI 01
314.854;000.153;77;000.586;MIDI 01
314.965;000.130;76;000.602;MIDI 01
314.613;000.484;64;000.484;MIDI 01
315.067;000.101;74;000.586;MIDI 01
315.165;000.058;72;000.555;MIDI 01
315.283;000.128;81;000.594;MIDI 01
315.266;000.160;65;000.641;MIDI 01
315.402;000.139;79;000.586;MIDI 01
315.512;000.132;77;000.570;MIDI 01
315.625;000.113;76;000.602;MIDI 01
315.759;000.070;54;000.664;MIDI 01
315.762;000.080;42;000.641;MIDI 01
315.753;000.192;74;000.539;MIDI 01
315.901;000.221;72;000.484;MIDI 01
316.129;000.208;71;000.484;MIDI 01
316.100;000.593;43;000.648;MIDI 01
316.635;000.069;67;000.555;MIDI 01
316.095;000.627;55;000.672;MIDI 01
316.902;000.031;72;000.578;MIDI 01
316.953;000.001;45;000.211;MIDI 01
317.135;000.037;72;000.578;MIDI 01
316.886;000.365;52;000.633;MIDI 01
317.370;000.037;72;000.641;MIDI 01
316.892;000.562;55;000.609;MIDI 01
316.895;000.595;43;000.539;MIDI 01
317.369;000.133;51;000.633;MIDI 01
317.607;000.074;72;000.594;MIDI 01
317.676;000.074;71;000.602;MIDI 01
317.765;000.055;69;000.539;MIDI 01
317.609;000.247;53;000.562;MIDI 01
317.831;000.029;71;000.375;MIDI 01
317.620;000.290;50;000.508;MIDI 01
317.873;000.067;74;000.562;MIDI 01
317.947;000.111;71;000.516;MIDI 01
317.625;000.494;43;000.531;MIDI 01
318.092;000.053;50;000.477;MIDI 01
318.119;000.036;47;000.406;MIDI 01
318.090;000.247;67;000.516;MIDI 01
318.363;000.031;72;000.539;MIDI 01
318.361;000.034;76;000.547;MIDI 01
318.407;000.083;48;000.523;MIDI 01
318.510;000.116;47;000.578;MIDI 01
318.594;000.034;72;000.523;MIDI 01
318.594;000.040;76;000.523;MIDI 01
318.626;000.075;48;000.633;MIDI 01
318.705;000.081;50;000.562;MIDI 01
318.821;000.038;76;000.586;MIDI 01
318.820;000.040;72;000.477;MIDI 01
318.808;000.089;52;000.594;MIDI 01
318.942;000.067;48;000.477;MIDI 01
319.052;000.235;74;000.547;MIDI 01
319.068;000.244;71;000.469;MIDI 01
319.354;000.096;77;000.305;MIDI 01
319.422;000.104;74;000.594;MIDI 01
318.365;001.201;43;000.562;MIDI 01
319.548;000.031;71;000.539;MIDI 01
319.059;000.522;53;000.453;MIDI 01
319.796;000.026;79;000.617;MIDI 01
320.017;000.041;79;000.562;MIDI 01
319.786;000.311;55;000.656;MIDI 01
319.784;000.446;52;000.602;MIDI 01
320.255;000.035;79;000.641;MIDI 01
320.245;000.134;53;000.586;MIDI 01
320.252;000.145;50;000.555;MIDI 01
320.499;000.053;78;000.578;MIDI 01
320.608;000.084;79;000.609;MIDI 01
320.720;000.100;81;000.602;MIDI 01
320.493;000.392;52;000.547;MIDI 01
320.820;000.105;79;000.609;MIDI 01
320.504;000.461;49;000.516;MIDI 01
319.782;001.200;43;000.555;MIDI 01
320.948;000.101;82;000.531;MIDI 01
321.059;000.104;79;000.586;MIDI 01
321.175;000.035;77;000.492;MIDI 01
321.195;000.250;53;000.562;MIDI 01
321.420;000.032;77;000.531;MIDI 01
321.192;000.407;50;000.500;MIDI 01
321.653;000.042;77;000.461;MIDI 01
321.642;000.103;52;000.469;MIDI 01
321.668;000.082;48;000.461;MIDI 01
321.898;000.065;76;000.500;MIDI 01
322.009;000.073;77;000.508;MIDI 01
322.113;000.098;79;000.531;MIDI 01
321.903;000.383;50;000.391;MIDI 01
322.220;000.093;77;000.562;MIDI 01
321.917;000.439;47;000.391;MIDI 01
321.200;001.177;43;000.508;MIDI 01
322.341;000.062;81;000.555;MIDI 01
322.435;000.034;77;000.508;MIDI 01
322.561;000.112;77;000.602;MIDI 01
322.682;000.090;76;000.570;MIDI 01
322.567;000.220;52;000.500;MIDI 01
322.581;000.259;48;000.430;MIDI 01
322.794;000.094;79;000.508;MIDI 01
322.902;000.113;76;000.586;MIDI 01
323.015;000.041;55;000.484;MIDI 01
323.011;000.053;52;000.406;MIDI 01
323.012;000.081;74;000.578;MIDI 01
323.104;000.026;72;000.492;MIDI 01
323.212;000.116;72;000.688;MIDI 01
323.320;000.115;71;000.609;MIDI 01
323.205;000.235;53;000.523;MIDI 01
323.215;000.236;50;000.469;MIDI 01
323.439;000.113;74;000.625;MIDI 01
323.561;000.064;71;000.461;MIDI 01
323.636;000.045;67;000.586;MIDI 01
323.666;000.044;50;000.391;MIDI 01
323.689;000.039;47;000.367;MIDI 01
323.762;000.034;77;000.523;MIDI 01
323.860;000.076;77;000.695;MIDI 01
323.974;000.126;76;000.664;MIDI 01
323.858;000.247;52;000.508;MIDI 01
323.856;000.276;48;000.492;MIDI 01
324.095;000.106;79;000.625;MIDI 01
324.204;000.089;76;000.586;MIDI 01
324.299;000.046;72;000.594;MIDI 01
324.307;000.042;55;000.523;MIDI 01
324.301;000.051;52;000.477;MIDI 01
324.406;000.029;84;000.617;MIDI 01
324.506;000.142;84;000.727;MIDI 01
324.501;000.213;50;000.469;MIDI 01
324.503;000.230;53;000.477;MIDI 01
324.618;000.121;83;000.664;MIDI 01
324.743;000.104;86;000.586;MIDI 01
324.844;000.110;83;000.586;MIDI 01
324.939;000.076;50;000.328;MIDI 01
324.946;000.084;81;000.594;MIDI 01
324.961;000.110;47;000.312;MIDI 01
325.072;000.026;79;000.414;MIDI 01
322.565;002.639;43;000.430;MIDI 01
325.209;000.031;79;000.336;MIDI 01
325.193;000.051;77;000.367;MIDI 01
325.272;000.068;76;000.633;MIDI 01
325.381;000.034;81;000.586;MIDI 01
325.490;000.033;79;000.570;MIDI 01
325.200;000.444;48;000.375;MIDI 01
325.589;000.099;84;000.555;MIDI 01
325.684;000.052;83;000.602;MIDI 01
325.786;000.106;86;000.609;MIDI 01
325.891;000.116;84;000.570;MIDI 01
326.023;000.071;88;000.516;MIDI 01
326.117;000.103;86;000.531;MIDI 01
326.232;000.085;84;000.492;MIDI 01
326.332;000.099;83;000.469;MIDI 01
326.452;000.102;84;000.492;MIDI 01
326.568;000.084;83;000.469;MIDI 01
326.671;000.053;81;000.500;MIDI 01
326.784;000.065;79;000.438;MIDI 01
326.899;000.073;77;000.438;MIDI 01
327.024;000.041;76;000.398;MIDI 01
327.161;000.070;66;000.297;MIDI 01
327.327;000.055;69;000.141;MIDI 01
327.413;000.076;66;000.344;MIDI 01
327.506;000.055;74;000.164;MIDI 01
327.534;000.062;69;000.305;MIDI 01
327.652;000.047;66;000.352;MIDI 01
327.671;000.030;74;000.430;MIDI 01
327.740;000.046;69;000.367;MIDI 01
327.863;000.031;75;000.523;MIDI 01
327.853;000.083;67;000.461;MIDI 01
327.995;000.060;70;000.383;MIDI 01
328.076;000.024;75;000.453;MIDI 01
328.106;000.056;67;000.383;MIDI 01
328.218;000.052;70;000.406;MIDI 01
328.293;000.030;75;000.367;MIDI 01
328.295;000.100;67;000.477;MIDI 01
328.420;000.070;70;000.375;MIDI 01
328.517;000.022;76;000.492;MIDI 01
328.545;000.057;68;000.406;MIDI 01
328.646;000.058;71;000.391;MIDI 01
328.726;000.037;76;000.477;MIDI 01
328.753;000.077;68;000.391;MIDI 01
328.881;000.066;71;000.367;MIDI 01
328.943;000.031;76;000.508;MIDI 01
328.981;000.056;68;000.469;MIDI 01
329.087;000.064;71;000.484;MIDI 01
329.161;000.036;77;000.586;MIDI 01
329.207;000.047;69;000.430;MIDI 01
329.285;000.080;72;000.500;MIDI 01
329.396;000.038;77;000.484;MIDI 01
329.393;000.082;69;000.453;MIDI 01
329.520;000.056;72;000.461;MIDI 01
329.599;000.045;77;000.508;MIDI 01
329.629;000.041;69;000.445;MIDI 01
329.698;000.051;72;000.469;MIDI 01
329.810;000.030;78;000.586;MIDI 01
329.785;000.091;69;000.531;MIDI 01
329.901;000.047;72;000.523;MIDI 01
329.986;000.043;74;000.484;MIDI 01
330.007;000.044;78;000.461;MIDI 01
330.035;000.065;69;000.477;MIDI 01
330.105;000.083;72;000.539;MIDI 01
330.216;000.030;78;000.570;MIDI 01
330.221;000.031;74;000.352;MIDI 01
330.246;000.077;69;000.578;MIDI 01
330.333;000.073;72;000.594;MIDI 01
330.395;000.080;74;000.469;MIDI 01
330.462;000.218;67;000.625;MIDI 01
330.703;000.038;72;000.477;MIDI 01
330.750;000.023;76;000.492;MIDI 01
330.759;000.033;79;000.445;MIDI 01
330.828;000.046;84;000.484;MIDI 01
330.892;000.053;88;000.586;MIDI 01
330.944;000.079;84;000.523;MIDI 01
331.034;000.282;79;000.594;MIDI 01
331.246;000.212;67;000.570;MIDI 01
331.489;000.023;71;000.469;MIDI 01
331.518;000.030;74;000.398;MIDI 01
331.560;000.051;77;000.438;MIDI 01
331.621;000.068;83;000.547;MIDI 01
331.689;000.073;86;000.594;MIDI 01
331.729;000.106;83;000.469;MIDI 01
331.819;000.033;43;000.656;MIDI 01
331.826;000.042;31;000.625;MIDI 01
331.828;000.172;77;000.625;MIDI 01
332.625;000.062;47;000.633;MIDI 01
332.617;000.141;59;000.688;MIDI 01
332.979;000.073;50;000.273;MIDI 01
332.128;001.026;32;000.586;MIDI 01
332.118;001.056;44;000.680;MIDI 01
332.928;000.423;48;000.508;MIDI 01
333.389;000.074;52;000.734;MIDI 01
333.391;000.074;40;000.688;MIDI 01
332.919;000.893;60;000.625;MIDI 01
334.212;000.001;60;000.344;MIDI 01
334.178;000.035;62;000.633;MIDI 01
334.174;000.060;74;000.695;MIDI 01
333.691;001.003;53;000.625;MIDI 01
333.693;001.031;41;000.609;MIDI 01
334.930;000.039;42;000.641;MIDI 01
334.923;000.052;54;000.680;MIDI 01
334.473;000.782;63;000.578;MIDI 01
335.280;000.002;45;000.219;MIDI 01
334.465;001.034;75;000.656;MIDI 01
335.218;000.466;55;000.688;MIDI 01
335.710;000.029;64;000.641;MIDI 01
335.702;000.061;76;000.703;MIDI 01
335.222;000.575;43;000.625;MIDI 01
335.999;000.159;44;000.617;MIDI 01
335.997;000.190;56;000.672;MIDI 01
336.007;000.186;65;000.625;MIDI 01
336.001;000.420;77;000.742;MIDI 01
336.545;000.031;66;000.656;MIDI 01
336.549;000.051;60;000.555;MIDI 01
336.534;000.072;63;000.641;MIDI 01
336.551;000.069;57;000.555;MIDI 01
336.543;000.104;78;000.719;MIDI 01
336.875;000.284;67;000.672;MIDI 01
336.870;000.500;79;000.711;MIDI 01
336.877;000.599;60;000.547;MIDI 01
337.434;000.058;68;000.609;MIDI 01
336.873;000.627;64;000.648;MIDI 01
336.879;000.690;55;000.586;MIDI 01
337.429;000.226;80;000.695;MIDI 01
337.698;000.073;69;000.641;MIDI 01
337.691;000.203;81;000.703;MIDI 01
337.935;000.065;70;000.664;MIDI 01
337.681;000.414;62;000.625;MIDI 01
337.933;000.178;82;000.672;MIDI 01
337.684;000.493;59;000.578;MIDI 01
337.695;000.499;55;000.562;MIDI 01
338.168;000.033;71;000.648;MIDI 01
337.689;000.518;53;000.578;MIDI 01
338.164;000.068;83;000.711;MIDI 01
338.245;000.078;72;000.039;MIDI 01
338.425;000.024;72;000.672;MIDI 01
338.423;000.030;84;000.680;MIDI 01
338.421;000.081;60;000.594;MIDI 01
338.433;000.185;55;000.523;MIDI 01
338.427;000.234;52;000.562;MIDI 01
338.652;000.020;72;000.555;MIDI 01
338.642;000.033;62;000.602;MIDI 01
338.650;000.027;84;000.672;MIDI 01
338.648;000.043;57;000.555;MIDI 01
338.640;000.136;53;000.578;MIDI 01
338.871;000.026;84;000.719;MIDI 01
338.867;000.032;72;000.594;MIDI 01
338.861;000.054;63;000.625;MIDI 01
338.858;000.059;57;000.477;MIDI 01
338.869;000.083;54;000.555;MIDI 01
339.079;000.028;59;000.555;MIDI 01
339.076;000.033;62;000.641;MIDI 01
339.089;000.024;71;000.625;MIDI 01
339.091;000.032;55;000.625;MIDI 01
339.093;000.046;83;000.688;MIDI 01
339.210;000.035;71;000.172;MIDI 01
339.366;000.052;74;000.547;MIDI 01
339.337;000.081;86;000.648;MIDI 01
339.394;000.131;72;000.602;MIDI 01
339.396;000.136;84;000.633;MIDI 01
339.441;000.108;83;000.648;MIDI 01
339.472;000.084;71;000.578;MIDI 01
339.489;000.080;81;000.664;MIDI 01
339.549;000.028;67;000.578;MIDI 01
339.547;000.032;79;000.641;MIDI 01
339.814;000.022;65;000.508;MIDI 01
339.816;000.031;77;000.562;MIDI 01
339.822;000.183;57;000.469;MIDI 01
339.811;000.218;60;000.500;MIDI 01
340.048;000.024;77;000.453;MIDI 01
340.058;000.037;65;000.336;MIDI 01
340.068;000.148;61;000.344;MIDI 01
340.062;000.155;58;000.398;MIDI 01
340.250;000.038;65;000.523;MIDI 01
340.252;000.038;77;000.508;MIDI 01
340.248;000.046;62;000.469;MIDI 01
340.280;000.035;59;000.438;MIDI 01
340.489;000.036;76;000.508;MIDI 01
340.510;000.053;64;000.211;MIDI 01
340.508;000.060;60;000.445;MIDI 01
340.729;000.057;79;000.477;MIDI 01
340.756;000.044;67;000.250;MIDI 01
340.784;000.097;77;000.547;MIDI 01
340.792;000.099;65;000.445;MIDI 01
340.833;000.084;76;000.547;MIDI 01
340.867;000.055;64;000.445;MIDI 01
340.874;000.068;74;000.594;MIDI 01
340.918;000.032;72;000.609;MIDI 01
340.916;000.036;60;000.477;MIDI 01
341.408;000.029;74;000.703;MIDI 01
341.411;000.028;62;000.664;MIDI 01
341.629;000.032;62;000.633;MIDI 01
341.174;000.493;41;000.695;MIDI 01
341.634;000.034;74;000.742;MIDI 01
341.172;000.519;45;000.672;MIDI 01
341.170;000.533;53;000.703;MIDI 01
341.908;000.002;45;000.180;MIDI 01
341.858;000.061;43;000.680;MIDI 01
341.861;000.071;47;000.633;MIDI 01
341.856;000.093;53;000.703;MIDI 01
342.087;000.105;74;000.562;MIDI 01
342.205;000.042;62;000.289;MIDI 01
342.152;000.121;72;000.609;MIDI 01
342.186;000.089;71;000.617;MIDI 01
342.189;000.095;60;000.578;MIDI 01
342.232;000.062;69;000.648;MIDI 01
342.241;000.067;59;000.570;MIDI 01
342.271;000.039;55;000.570;MIDI 01
342.261;000.059;67;000.656;MIDI 01
342.604;000.023;60;000.664;MIDI 01
342.606;000.030;72;000.703;MIDI 01
342.608;000.078;43;000.586;MIDI 01
342.615;000.074;40;000.523;MIDI 01
342.602;000.092;48;000.672;MIDI 01
342.601;000.096;36;000.633;MIDI 01
343.125;000.029;76;000.570;MIDI 01
343.139;000.021;72;000.531;MIDI 01
343.386;000.030;79;000.570;MIDI 01
343.391;000.033;76;000.516;MIDI 01
343.851;000.039;64;000.430;MIDI 01
343.859;000.034;60;000.453;MIDI 01
344.117;000.037;64;000.406;MIDI 01
344.122;000.035;67;000.445;MIDI 01
344.596;000.039;52;000.336;MIDI 01
344.598;000.043;48;000.266;MIDI 01
344.920;000.038;55;000.367;MIDI 01
344.924;000.041;52;000.242;MIDI 01
346.788;000.049;64;000.273;MIDI 01
346.803;000.057;67;000.258;MIDI 01
346.799;000.134;76;000.312;MIDI 01
346.783;000.293;84;000.320;MIDI 01
347.080;000.051;88;000.328;MIDI 01
347.089;000.054;79;000.344;MIDI 01
347.070;000.087;64;000.164;MIDI 01
347.131;000.051;60;000.156;MIDI 01
347.672;000.045;65;000.273;MIDI 01
347.691;000.056;69;000.109;MIDI 01
347.646;000.121;77;000.281;MIDI 01
347.653;000.304;86;000.344;MIDI 01
347.991;000.046;89;000.250;MIDI 01
347.980;000.061;81;000.352;MIDI 01
348.010;000.047;62;000.242;MIDI 01
347.990;000.070;65;000.242;MIDI 01
348.572;000.024;77;000.648;MIDI 01
348.570;000.028;74;000.664;MIDI 01
348.576;000.028;67;000.609;MIDI 01
348.574;000.036;55;000.641;MIDI 01
348.568;000.045;83;000.688;MIDI 01
348.855;000.027;60;000.664;MIDI 01
348.857;000.030;55;000.672;MIDI 01
348.865;000.025;72;000.703;MIDI 01
348.859;000.032;48;000.633;MIDI 01
348.861;000.032;79;000.734;MIDI 01
348.852;000.050;76;000.578;MIDI 01
348.872;000.035;52;000.555;MIDI 01
348.864;000.054;84;000.734;MIDI 01
