Start;Duration;Pitch;Velocity;Instrument
002.227;000.027;69;000.648;MIDI 01
002.230;000.032;57;000.602;MIDI 01
002.321;000.811;69;000.734;MIDI 01
002.323;001.052;57;000.719;MIDI 01
004.015;000.032;63;000.672;MIDI 01
004.028;000.025;51;000.578;MIDI 01
004.127;000.327;63;000.742;MIDI 01
004.125;000.700;51;000.742;MIDI 01
005.638;000.035;57;000.648;MIDI 01
005.652;000.027;45;000.562;MIDI 01
005.753;000.067;57;000.711;MIDI 01
005.756;000.127;45;000.734;MIDI 01
006.315;000.032;51;000.641;MIDI 01
006.336;000.033;39;000.484;MIDI 01
006.409;000.094;51;000.711;MIDI 01
006.419;000.149;39;000.672;MIDI 01
007.030;000.034;45;000.688;MIDI 01
007.041;000.030;33;000.609;MIDI 01
007.131;000.140;45;000.758;MIDI 01
007.136;000.287;33;000.734;MIDI 01
008.015;000.036;39;000.688;MIDI 01
008.028;000.031;27;000.602;MIDI 01
011.157;001.259;48;000.523;MIDI 01
011.154;001.295;45;000.477;MIDI 01
011.145;001.532;54;000.578;MIDI 01
013.136;001.179;46;000.633;MIDI 01
013.128;001.192;55;000.688;MIDI 01
013.139;001.244;49;000.641;MIDI 01
015.127;000.627;47;000.672;MIDI 01
015.120;001.039;56;000.711;MIDI 01
015.125;001.126;51;000.688;MIDI 01
008.132;009.784;39;000.703;MIDI 01
008.134;009.801;27;000.711;MIDI 01
018.386;000.360;28;000.688;MIDI 01
018.383;000.378;40;000.727;MIDI 01
017.245;001.973;56;000.672;MIDI 01
017.246;001.976;58;000.625;MIDI 01
019.176;000.084;42;000.719;MIDI 01
019.184;000.106;30;000.719;MIDI 01
019.455;000.714;40;000.680;MIDI 01
019.453;000.756;28;000.688;MIDI 01
017.231;004.137;63;000.711;MIDI 01
017.243;004.136;51;000.695;MIDI 01
020.928;000.632;27;000.664;MIDI 01
020.925;000.768;39;000.688;MIDI 01
019.450;003.103;58;000.648;MIDI 01
019.446;003.125;55;000.688;MIDI 01
022.095;000.581;51;000.586;MIDI 01
022.080;000.606;63;000.734;MIDI 01
022.938;003.204;51;000.602;MIDI 01
023.072;003.853;60;000.539;MIDI 01
022.989;004.133;56;000.617;MIDI 01
023.118;004.040;63;000.734;MIDI 01
022.436;004.833;32;000.656;MIDI 01
022.817;004.462;44;000.695;MIDI 01
022.691;004.616;39;000.625;MIDI 01
028.257;000.027;72;000.703;MIDI 01
028.271;000.031;60;000.578;MIDI 01
028.361;000.228;72;000.789;MIDI 01
028.364;000.436;60;000.750;MIDI 01
030.009;000.029;66;000.695;MIDI 01
030.018;000.036;54;000.594;MIDI 01
030.102;000.262;66;000.750;MIDI 01
030.108;000.622;54;000.727;MIDI 01
031.521;000.036;60;000.664;MIDI 01
031.532;000.029;48;000.586;MIDI 01
031.624;000.120;60;000.727;MIDI 01
031.626;000.236;48;000.719;MIDI 01
032.160;000.038;54;000.633;MIDI 01
032.195;000.042;42;000.414;MIDI 01
032.263;000.120;54;000.727;MIDI 01
032.260;000.222;42;000.539;MIDI 01
032.875;000.025;36;000.633;MIDI 01
032.864;000.039;48;000.688;MIDI 01
032.968;000.175;48;000.727;MIDI 01
032.970;000.453;36;000.719;MIDI 01
033.828;000.038;42;000.672;MIDI 01
033.840;000.035;30;000.586;MIDI 01
036.649;001.231;57;000.578;MIDI 01
036.675;001.263;51;000.469;MIDI 01
036.682;001.260;48;000.414;MIDI 01
038.526;001.195;58;000.695;MIDI 01
038.532;001.196;49;000.648;MIDI 01
038.528;001.321;52;000.641;MIDI 01
040.491;000.975;50;000.664;MIDI 01
040.481;001.125;59;000.750;MIDI 01
040.492;001.185;54;000.680;MIDI 01
033.927;009.595;42;000.695;MIDI 01
033.933;009.660;30;000.703;MIDI 01
043.873;000.481;31;000.641;MIDI 01
043.870;000.523;43;000.672;MIDI 01
042.741;001.957;59;000.641;MIDI 01
042.743;001.978;61;000.648;MIDI 01
044.666;000.236;45;000.695;MIDI 01
044.668;000.291;33;000.656;MIDI 01
045.074;000.835;43;000.680;MIDI 01
045.076;000.909;31;000.656;MIDI 01
046.736;000.859;30;000.602;MIDI 01
042.729;004.880;66;000.727;MIDI 01
042.745;004.867;54;000.641;MIDI 01
046.733;001.081;42;000.594;MIDI 01
045.065;003.907;61;000.625;MIDI 01
045.068;003.941;58;000.617;MIDI 01
048.224;000.876;54;000.547;MIDI 01
048.195;000.913;66;000.703;MIDI 01
049.311;005.023;54;000.570;MIDI 01
048.623;005.758;35;000.641;MIDI 01
048.976;005.451;42;000.656;MIDI 01
049.152;005.281;47;000.625;MIDI 01
049.386;005.101;59;000.570;MIDI 01
049.552;004.953;66;000.742;MIDI 01
049.487;005.067;63;000.586;MIDI 01
055.179;000.028;75;000.594;MIDI 01
055.177;000.031;63;000.539;MIDI 01
055.190;000.022;87;000.539;MIDI 01
055.270;000.031;87;000.742;MIDI 01
055.267;000.048;75;000.719;MIDI 01
055.265;000.067;63;000.742;MIDI 01
055.901;000.031;57;000.578;MIDI 01
055.903;000.030;69;000.586;MIDI 01
055.911;000.023;81;000.516;MIDI 01
055.991;000.046;57;000.750;MIDI 01
055.996;000.056;69;000.773;MIDI 01
056.002;000.052;81;000.758;MIDI 01
056.509;000.038;69;000.578;MIDI 01
056.529;000.021;81;000.492;MIDI 01
056.540;000.027;93;000.406;MIDI 01
056.602;000.032;93;000.633;MIDI 01
056.617;000.030;81;000.688;MIDI 01
056.605;000.054;69;000.734;MIDI 01
056.874;000.021;87;000.664;MIDI 01
056.864;000.034;63;000.570;MIDI 01
056.871;000.029;75;000.633;MIDI 01
056.971;000.024;87;000.648;MIDI 01
056.964;000.050;63;000.727;MIDI 01
056.967;000.051;75;000.727;MIDI 01
057.636;000.047;35;000.648;MIDI 01
057.629;000.058;47;000.680;MIDI 01
057.633;000.070;54;000.625;MIDI 01
057.631;000.077;57;000.641;MIDI 01
057.634;000.106;63;000.633;MIDI 01
058.048;000.060;34;000.680;MIDI 01
058.046;000.065;46;000.742;MIDI 01
058.044;000.071;54;000.727;MIDI 01
058.042;000.087;58;000.695;MIDI 01
058.040;000.101;66;000.758;MIDI 01
058.050;000.100;63;000.664;MIDI 01
059.657;000.036;63;000.539;MIDI 01
059.667;000.030;75;000.578;MIDI 01
059.676;000.023;87;000.531;MIDI 01
059.752;000.027;87;000.664;MIDI 01
059.754;000.026;75;000.719;MIDI 01
059.750;000.036;63;000.734;MIDI 01
060.341;000.019;82;000.570;MIDI 01
060.336;000.030;70;000.617;MIDI 01
060.350;000.027;58;000.453;MIDI 01
060.423;000.040;58;000.633;MIDI 01
060.431;000.069;82;000.727;MIDI 01
060.938;000.021;94;000.523;MIDI 01
060.932;000.028;70;000.555;MIDI 01
060.930;000.032;82;000.578;MIDI 01
061.023;000.027;94;000.742;MIDI 01
061.014;000.053;82;000.719;MIDI 01
061.016;000.058;70;000.742;MIDI 01
061.272;000.033;63;000.555;MIDI 01
061.305;000.019;87;000.555;MIDI 01
061.300;000.031;75;000.578;MIDI 01
061.386;000.025;87;000.727;MIDI 01
061.371;000.059;63;000.711;MIDI 01
061.380;000.053;75;000.820;MIDI 01
061.995;000.044;54;000.703;MIDI 01
061.997;000.052;58;000.633;MIDI 01
062.000;000.069;46;000.734;MIDI 01
062.008;000.067;63;000.586;MIDI 01
062.002;000.077;66;000.688;MIDI 01
062.010;000.076;34;000.727;MIDI 01
062.370;000.029;33;000.719;MIDI 01
062.358;000.046;60;000.680;MIDI 01
062.360;000.049;45;000.797;MIDI 01
062.356;000.061;63;000.625;MIDI 01
062.362;000.071;66;000.602;MIDI 01
062.354;000.083;72;000.758;MIDI 01
062.667;000.028;96;000.641;MIDI 01
062.669;000.031;72;000.562;MIDI 01
062.671;000.031;84;000.555;MIDI 01
062.682;000.029;60;000.445;MIDI 01
062.748;000.036;72;000.734;MIDI 01
062.750;000.048;96;000.797;MIDI 01
062.746;000.066;60;000.641;MIDI 01
062.754;000.059;84;000.773;MIDI 01
063.032;000.029;63;000.656;MIDI 01
063.036;000.027;75;000.602;MIDI 01
063.039;000.029;87;000.641;MIDI 01
063.056;000.029;51;000.453;MIDI 01
063.122;000.041;63;000.734;MIDI 01
063.126;000.044;87;000.812;MIDI 01
063.120;000.059;75;000.758;MIDI 01
063.131;000.057;51;000.719;MIDI 01
063.750;000.027;31;000.711;MIDI 01
063.746;000.036;60;000.727;MIDI 01
063.748;000.052;43;000.797;MIDI 01
063.744;000.061;63;000.680;MIDI 01
063.753;000.056;67;000.648;MIDI 01
063.751;000.076;72;000.773;MIDI 01
063.818;000.044;33;000.227;MIDI 01
064.068;000.027;72;000.586;MIDI 01
064.084;000.029;60;000.422;MIDI 01
064.122;000.029;84;000.195;MIDI 01
064.151;000.043;72;000.734;MIDI 01
064.144;000.055;96;000.648;MIDI 01
064.157;000.052;60;000.688;MIDI 01
064.155;000.056;84;000.234;MIDI 01
064.166;000.060;86;000.094;MIDI 01
064.485;000.026;63;000.703;MIDI 01
064.498;000.024;75;000.641;MIDI 01
064.500;000.024;87;000.688;MIDI 01
064.508;000.027;51;000.500;MIDI 01
064.591;000.040;63;000.727;MIDI 01
064.586;000.051;75;000.766;MIDI 01
064.604;000.040;51;000.766;MIDI 01
064.595;000.051;87;000.828;MIDI 01
065.701;000.077;42;000.711;MIDI 01
065.697;000.098;87;000.766;MIDI 01
065.699;000.101;99;000.812;MIDI 01
065.705;000.100;30;000.703;MIDI 01
065.707;000.123;36;000.594;MIDI 01
065.695;000.138;93;000.727;MIDI 01
065.905;000.054;30;000.750;MIDI 01
065.903;000.076;99;000.828;MIDI 01
065.899;000.088;42;000.789;MIDI 01
065.901;000.087;87;000.789;MIDI 01
065.949;000.052;34;000.336;MIDI 01
065.908;000.097;36;000.609;MIDI 01
065.897;000.121;93;000.727;MIDI 01
066.744;000.033;48;000.656;MIDI 01
066.748;000.032;42;000.664;MIDI 01
066.750;000.032;36;000.609;MIDI 01
066.740;000.049;93;000.750;MIDI 01
066.746;000.045;81;000.703;MIDI 01
066.742;000.054;87;000.750;MIDI 01
066.866;000.046;93;000.758;MIDI 01
066.859;000.060;36;000.695;MIDI 01
066.853;000.083;48;000.711;MIDI 01
066.861;000.091;42;000.727;MIDI 01
066.857;000.107;87;000.734;MIDI 01
066.864;000.108;81;000.773;MIDI 01
067.598;000.027;75;000.633;MIDI 01
067.592;000.035;81;000.664;MIDI 01
067.600;000.028;87;000.656;MIDI 01
067.594;000.036;54;000.633;MIDI 01
067.602;000.035;42;000.562;MIDI 01
067.596;000.046;48;000.609;MIDI 01
067.706;000.042;42;000.648;MIDI 01
067.704;000.054;87;000.766;MIDI 01
067.708;000.052;48;000.703;MIDI 01
067.711;000.055;81;000.680;MIDI 01
067.695;000.074;54;000.688;MIDI 01
067.703;000.081;75;000.688;MIDI 01
068.013;000.029;60;000.578;MIDI 01
068.022;000.022;48;000.500;MIDI 01
068.026;000.020;54;000.492;MIDI 01
068.028;000.020;81;000.594;MIDI 01
068.019;000.031;69;000.594;MIDI 01
068.024;000.028;75;000.578;MIDI 01
068.126;000.032;81;000.664;MIDI 01
068.120;000.041;48;000.633;MIDI 01
068.116;000.060;60;000.688;MIDI 01
068.118;000.060;54;000.609;MIDI 01
068.122;000.059;75;000.742;MIDI 01
068.124;000.067;69;000.711;MIDI 01
068.408;000.032;63;000.602;MIDI 01
068.412;000.035;69;000.602;MIDI 01
068.418;000.034;66;000.570;MIDI 01
068.421;000.032;60;000.438;MIDI 01
068.429;000.028;54;000.414;MIDI 01
068.441;000.021;75;000.406;MIDI 01
068.530;000.031;75;000.609;MIDI 01
068.529;000.034;60;000.547;MIDI 01
068.503;000.071;63;000.719;MIDI 01
068.518;000.060;69;000.672;MIDI 01
068.515;000.066;66;000.656;MIDI 01
068.525;000.061;54;000.602;MIDI 01
068.782;000.026;57;000.492;MIDI 01
068.790;000.026;54;000.398;MIDI 01
068.787;000.030;63;000.633;MIDI 01
068.785;000.034;60;000.625;MIDI 01
068.803;000.023;69;000.508;MIDI 01
068.792;000.035;48;000.391;MIDI 01
068.876;000.034;57;000.688;MIDI 01
068.899;000.028;69;000.656;MIDI 01
068.886;000.042;54;000.664;MIDI 01
068.880;000.064;48;000.578;MIDI 01
068.884;000.061;60;000.719;MIDI 01
068.882;000.071;63;000.773;MIDI 01
069.170;000.034;51;000.570;MIDI 01
069.172;000.034;42;000.562;MIDI 01
069.177;000.031;54;000.625;MIDI 01
069.184;000.026;63;000.531;MIDI 01
069.174;000.039;57;000.602;MIDI 01
069.195;000.029;48;000.430;MIDI 01
069.273;000.066;51;000.773;MIDI 01
069.285;000.060;57;000.695;MIDI 01
069.300;000.048;48;000.602;MIDI 01
069.275;000.076;54;000.594;MIDI 01
069.282;000.070;63;000.727;MIDI 01
069.279;000.083;42;000.695;MIDI 01
069.703;000.036;45;000.648;MIDI 01
069.704;000.037;48;000.648;MIDI 01
069.706;000.038;51;000.648;MIDI 01
069.708;000.038;42;000.594;MIDI 01
069.716;000.032;57;000.602;MIDI 01
069.713;000.037;36;000.555;MIDI 01
069.825;000.479;57;000.727;MIDI 01
069.830;000.505;36;000.695;MIDI 01
069.823;000.561;51;000.758;MIDI 01
069.821;000.575;48;000.750;MIDI 01
069.827;000.587;42;000.656;MIDI 01
069.818;000.649;45;000.688;MIDI 01
070.744;000.446;57;000.703;MIDI 01
070.753;000.544;35;000.672;MIDI 01
070.751;000.611;51;000.727;MIDI 01
070.749;000.671;45;000.719;MIDI 01
070.747;000.700;47;000.773;MIDI 01
070.755;000.768;42;000.688;MIDI 01
071.941;000.263;45;000.703;MIDI 01
071.939;000.345;42;000.703;MIDI 01
071.933;000.357;34;000.703;MIDI 01
071.929;000.369;50;000.680;MIDI 01
071.936;000.400;46;000.719;MIDI 01
071.932;000.722;57;000.711;MIDI 01
072.614;000.844;42;000.750;MIDI 01
072.619;000.908;54;000.695;MIDI 01
073.605;001.734;43;000.703;MIDI 01
072.622;002.761;46;000.742;MIDI 01
073.598;001.800;55;000.727;MIDI 01
072.626;002.783;38;000.633;MIDI 01
072.621;002.795;50;000.703;MIDI 01
072.616;002.803;34;000.672;MIDI 01
078.620;000.177;33;000.195;MIDI 01
078.952;000.067;34;000.328;MIDI 01
079.071;000.054;46;000.242;MIDI 01
079.172;000.059;37;000.391;MIDI 01
079.299;000.060;49;000.320;MIDI 01
079.360;000.054;40;000.445;MIDI 01
079.494;000.045;52;000.430;MIDI 01
079.535;000.053;41;000.484;MIDI 01
079.652;000.048;53;000.461;MIDI 01
079.740;000.077;43;000.492;MIDI 01
079.829;000.059;55;000.469;MIDI 01
079.940;000.062;45;000.469;MIDI 01
080.023;000.065;57;000.445;MIDI 01
080.160;000.080;46;000.406;MIDI 01
080.289;000.149;58;000.320;MIDI 01
080.499;000.419;37;000.141;MIDI 01
080.739;000.192;49;000.148;MIDI 01
084.153;000.237;53;000.195;MIDI 01
084.378;000.094;65;000.281;MIDI 01
084.575;000.112;52;000.305;MIDI 01
084.699;000.065;64;000.266;MIDI 01
084.802;000.053;50;000.367;MIDI 01
084.934;000.040;62;000.312;MIDI 01
085.002;000.062;47;000.453;MIDI 01
085.109;000.057;59;000.406;MIDI 01
085.194;000.065;44;000.453;MIDI 01
085.280;000.096;56;000.477;MIDI 01
085.388;000.065;41;000.500;MIDI 01
085.484;000.075;53;000.328;MIDI 01
085.580;000.076;40;000.500;MIDI 01
085.689;000.060;52;000.430;MIDI 01
085.835;000.134;38;000.227;MIDI 01
085.998;000.191;50;000.234;MIDI 01
086.576;000.362;44;000.219;MIDI 01
086.255;000.699;32;000.227;MIDI 01
090.153;000.133;45;000.148;MIDI 01
090.160;000.151;33;000.156;MIDI 01
090.506;000.100;33;000.234;MIDI 01
090.496;000.150;45;000.258;MIDI 01
090.750;000.059;53;000.258;MIDI 01
090.758;000.052;50;000.195;MIDI 01
090.961;000.054;50;000.320;MIDI 01
090.957;000.080;53;000.258;MIDI 01
091.093;000.042;46;000.352;MIDI 01
091.108;000.066;34;000.211;MIDI 01
091.261;000.086;46;000.406;MIDI 01
091.265;000.131;34;000.266;MIDI 01
091.392;000.037;50;000.352;MIDI 01
091.416;000.091;53;000.242;MIDI 01
091.536;000.039;50;000.312;MIDI 01
091.535;000.066;53;000.195;MIDI 01
091.656;000.035;45;000.391;MIDI 01
091.671;000.053;33;000.297;MIDI 01
091.800;000.066;45;000.477;MIDI 01
091.812;000.057;33;000.328;MIDI 01
091.898;000.046;50;000.398;MIDI 01
091.920;000.050;53;000.289;MIDI 01
092.017;000.039;50;000.320;MIDI 01
092.031;000.040;53;000.273;MIDI 01
092.130;000.034;44;000.438;MIDI 01
092.169;000.075;32;000.164;MIDI 01
092.271;000.060;44;000.477;MIDI 01
092.247;000.094;32;000.070;MIDI 01
092.348;000.033;50;000.422;MIDI 01
092.374;000.095;53;000.273;MIDI 01
092.495;000.032;50;000.359;MIDI 01
092.493;000.047;53;000.250;MIDI 01
092.570;000.039;43;000.383;MIDI 01
092.588;000.086;31;000.266;MIDI 01
092.708;000.047;43;000.492;MIDI 01
092.695;000.077;31;000.375;MIDI 01
092.782;000.036;52;000.461;MIDI 01
092.790;000.039;50;000.328;MIDI 01
092.921;000.035;52;000.414;MIDI 01
092.932;000.047;50;000.250;MIDI 01
093.011;000.036;42;000.422;MIDI 01
093.037;000.067;30;000.258;MIDI 01
093.119;000.064;42;000.508;MIDI 01
093.108;000.093;30;000.172;MIDI 01
093.236;000.033;52;000.438;MIDI 01
093.246;000.041;50;000.328;MIDI 01
093.359;000.049;50;000.297;MIDI 01
093.376;000.035;52;000.391;MIDI 01
093.440;000.039;41;000.383;MIDI 01
093.559;000.041;41;000.523;MIDI 01
093.658;000.030;52;000.438;MIDI 01
093.660;000.033;50;000.422;MIDI 01
093.782;000.035;50;000.367;MIDI 01
093.790;000.034;52;000.453;MIDI 01
093.870;000.047;40;000.289;MIDI 01
093.977;000.039;40;000.492;MIDI 01
093.967;000.057;28;000.352;MIDI 01
094.071;000.032;52;000.383;MIDI 01
094.073;000.039;50;000.367;MIDI 01
094.182;000.035;52;000.383;MIDI 01
094.289;000.047;39;000.336;MIDI 01
094.385;000.054;39;000.453;MIDI 01
094.502;000.035;51;000.453;MIDI 01
094.627;000.040;51;000.438;MIDI 01
094.741;000.040;39;000.398;MIDI 01
094.744;000.051;27;000.359;MIDI 01
094.892;000.052;39;000.414;MIDI 01
094.875;000.080;27;000.375;MIDI 01
094.980;000.043;51;000.406;MIDI 01
095.109;000.076;51;000.398;MIDI 01
096.336;000.050;34;000.250;MIDI 01
096.497;000.065;34;000.312;MIDI 01
096.624;000.094;46;000.383;MIDI 01
096.737;000.058;46;000.305;MIDI 01
096.857;000.045;34;000.375;MIDI 01
097.000;000.058;34;000.414;MIDI 01
097.119;000.043;46;000.273;MIDI 01
097.275;000.155;46;000.312;MIDI 01
098.756;000.055;37;000.023;MIDI 01
098.729;000.120;25;000.148;MIDI 01
099.021;000.181;37;000.133;MIDI 01
099.035;000.221;25;000.273;MIDI 01
099.311;000.073;49;000.266;MIDI 01
099.631;000.118;49;000.195;MIDI 01
100.748;000.160;33;000.227;MIDI 01
101.576;000.237;45;000.172;MIDI 01
102.272;000.229;45;000.227;MIDI 01
101.152;001.691;33;000.258;MIDI 01
107.930;000.322;69;000.242;MIDI 01
107.948;000.327;57;000.117;MIDI 01
108.811;000.167;26;000.234;MIDI 01
108.776;000.234;38;000.227;MIDI 01
108.843;000.228;57;000.281;MIDI 01
108.844;000.309;69;000.297;MIDI 01
109.535;000.057;53;000.180;MIDI 01
109.529;000.070;45;000.156;MIDI 01
109.545;000.067;50;000.156;MIDI 01
109.778;000.082;53;000.258;MIDI 01
109.793;000.079;50;000.203;MIDI 01
109.786;000.093;45;000.188;MIDI 01
109.953;000.053;70;000.305;MIDI 01
109.955;000.060;58;000.297;MIDI 01
110.164;000.098;70;000.359;MIDI 01
110.178;000.097;58;000.320;MIDI 01
110.287;000.067;46;000.367;MIDI 01
110.312;000.053;53;000.148;MIDI 01
110.335;000.097;50;000.062;MIDI 01
110.492;000.066;46;000.125;MIDI 01
110.490;000.079;53;000.211;MIDI 01
110.622;000.041;69;000.320;MIDI 01
110.631;000.045;57;000.234;MIDI 01
110.786;000.047;69;000.406;MIDI 01
110.777;000.083;57;000.266;MIDI 01
110.881;000.057;45;000.320;MIDI 01
110.893;000.048;53;000.211;MIDI 01
110.895;000.051;50;000.211;MIDI 01
111.040;000.051;45;000.258;MIDI 01
111.070;000.065;50;000.352;MIDI 01
111.082;000.055;53;000.219;MIDI 01
111.170;000.035;56;000.430;MIDI 01
111.181;000.034;68;000.328;MIDI 01
111.339;000.050;56;000.359;MIDI 01
111.347;000.044;68;000.336;MIDI 01
111.432;000.045;53;000.164;MIDI 01
111.434;000.047;50;000.328;MIDI 01
111.440;000.101;44;000.180;MIDI 01
111.594;000.041;53;000.250;MIDI 01
111.567;000.086;44;000.211;MIDI 01
111.611;000.051;50;000.312;MIDI 01
111.698;000.039;55;000.344;MIDI 01
111.704;000.036;67;000.328;MIDI 01
111.845;000.046;67;000.375;MIDI 01
111.859;000.051;55;000.266;MIDI 01
111.944;000.041;50;000.320;MIDI 01
111.974;000.023;45;000.094;MIDI 01
112.105;000.050;50;000.258;MIDI 01
111.977;000.180;43;000.086;MIDI 01
112.215;000.040;54;000.312;MIDI 01
112.227;000.030;66;000.219;MIDI 01
112.328;000.064;54;000.359;MIDI 01
112.310;000.101;66;000.273;MIDI 01
112.439;000.049;42;000.312;MIDI 01
112.448;000.062;50;000.172;MIDI 01
112.562;000.058;50;000.328;MIDI 01
112.596;000.049;42;000.289;MIDI 01
112.699;000.034;65;000.344;MIDI 01
112.697;000.042;53;000.289;MIDI 01
112.820;000.051;65;000.398;MIDI 01
112.855;000.050;53;000.156;MIDI 01
112.917;000.044;41;000.391;MIDI 01
112.925;000.043;45;000.344;MIDI 01
113.083;000.047;45;000.414;MIDI 01
113.117;000.051;41;000.102;MIDI 01
113.150;000.035;52;000.430;MIDI 01
113.158;000.033;64;000.383;MIDI 01
113.316;000.037;64;000.320;MIDI 01
113.311;000.055;52;000.297;MIDI 01
113.357;000.048;45;000.367;MIDI 01
113.364;000.048;41;000.227;MIDI 01
113.375;000.045;40;000.344;MIDI 01
113.549;000.044;40;000.297;MIDI 01
113.545;000.051;45;000.344;MIDI 01
113.562;000.047;41;000.273;MIDI 01
113.620;000.033;51;000.430;MIDI 01
113.626;000.034;63;000.391;MIDI 01
113.770;000.049;51;000.414;MIDI 01
113.765;000.074;63;000.461;MIDI 01
113.869;000.045;45;000.344;MIDI 01
113.880;000.046;39;000.336;MIDI 01
113.878;000.050;41;000.266;MIDI 01
114.048;000.049;39;000.336;MIDI 01
114.040;000.071;45;000.406;MIDI 01
114.051;000.062;41;000.297;MIDI 01
114.123;000.034;62;000.391;MIDI 01
114.127;000.044;50;000.312;MIDI 01
114.258;000.054;62;000.422;MIDI 01
114.269;000.070;50;000.273;MIDI 01
114.362;000.044;45;000.297;MIDI 01
114.376;000.047;41;000.250;MIDI 01
114.373;000.051;38;000.273;MIDI 01
114.521;000.059;38;000.289;MIDI 01
114.537;000.045;45;000.281;MIDI 01
114.541;000.054;41;000.336;MIDI 01
114.625;000.035;49;000.391;MIDI 01
114.632;000.038;61;000.352;MIDI 01
114.780;000.052;49;000.398;MIDI 01
114.790;000.058;61;000.391;MIDI 01
114.867;000.043;45;000.344;MIDI 01
114.892;000.054;41;000.227;MIDI 01
115.024;000.052;45;000.453;MIDI 01
115.047;000.044;41;000.234;MIDI 01
114.871;000.231;37;000.328;MIDI 01
115.123;000.034;62;000.375;MIDI 01
115.119;000.047;50;000.367;MIDI 01
115.248;000.068;62;000.453;MIDI 01
115.246;000.078;50;000.328;MIDI 01
115.339;000.039;45;000.367;MIDI 01
115.333;000.055;38;000.383;MIDI 01
115.352;000.043;41;000.172;MIDI 01
115.507;000.052;45;000.352;MIDI 01
115.487;000.082;38;000.289;MIDI 01
115.527;000.054;41;000.180;MIDI 01
115.580;000.039;51;000.422;MIDI 01
115.598;000.078;63;000.320;MIDI 01
115.705;000.047;51;000.398;MIDI 01
115.693;000.092;63;000.391;MIDI 01
115.794;000.036;45;000.297;MIDI 01
115.792;000.051;41;000.227;MIDI 01
115.796;000.049;39;000.375;MIDI 01
115.919;000.064;39;000.367;MIDI 01
115.944;000.048;45;000.422;MIDI 01
115.952;000.056;41;000.375;MIDI 01
116.021;000.039;64;000.461;MIDI 01
116.023;000.039;52;000.422;MIDI 01
116.164;000.042;64;000.469;MIDI 01
116.188;000.042;52;000.266;MIDI 01
116.233;000.054;45;000.305;MIDI 01
116.249;000.049;40;000.289;MIDI 01
116.237;000.070;41;000.281;MIDI 01
116.373;000.034;40;000.336;MIDI 01
116.367;000.043;41;000.359;MIDI 01
116.377;000.051;45;000.414;MIDI 01
116.467;000.034;53;000.430;MIDI 01
116.473;000.030;65;000.422;MIDI 01
116.592;000.029;65;000.422;MIDI 01
116.610;000.042;53;000.242;MIDI 01
116.685;000.034;50;000.383;MIDI 01
116.706;000.041;45;000.195;MIDI 01
116.674;000.093;41;000.406;MIDI 01
116.829;000.042;50;000.430;MIDI 01
116.835;000.058;45;000.422;MIDI 01
116.906;000.026;66;000.492;MIDI 01
116.903;000.032;54;000.500;MIDI 01
117.049;000.048;54;000.445;MIDI 01
117.029;000.076;66;000.555;MIDI 01
117.105;000.041;50;000.430;MIDI 01
117.144;000.033;45;000.258;MIDI 01
117.247;000.057;50;000.469;MIDI 01
117.237;000.085;45;000.258;MIDI 01
117.114;000.211;42;000.453;MIDI 01
117.357;000.028;67;000.406;MIDI 01
117.355;000.035;55;000.383;MIDI 01
117.480;000.028;67;000.523;MIDI 01
117.493;000.040;55;000.406;MIDI 01
117.555;000.041;50;000.461;MIDI 01
117.561;000.043;45;000.367;MIDI 01
117.566;000.045;43;000.359;MIDI 01
117.704;000.046;45;000.500;MIDI 01
117.702;000.053;50;000.461;MIDI 01
117.735;000.047;43;000.188;MIDI 01
117.795;000.032;56;000.422;MIDI 01
117.799;000.030;68;000.391;MIDI 01
117.919;000.047;56;000.516;MIDI 01
117.917;000.068;68;000.539;MIDI 01
118.005;000.030;53;000.461;MIDI 01
118.025;000.033;50;000.383;MIDI 01
118.015;000.052;44;000.445;MIDI 01
118.133;000.128;44;000.422;MIDI 01
118.164;000.108;50;000.547;MIDI 01
118.151;000.127;53;000.461;MIDI 01
118.240;000.041;69;000.547;MIDI 01
118.245;000.043;57;000.492;MIDI 01
118.392;000.085;57;000.508;MIDI 01
118.499;000.042;53;000.391;MIDI 01
118.494;000.067;50;000.430;MIDI 01
118.497;000.070;45;000.430;MIDI 01
118.381;000.201;69;000.586;MIDI 01
118.838;000.142;62;000.453;MIDI 01
118.660;000.321;53;000.469;MIDI 01
118.839;000.165;74;000.516;MIDI 01
118.679;000.382;50;000.383;MIDI 01
118.671;000.406;45;000.414;MIDI 01
119.207;000.558;74;000.500;MIDI 01
119.232;000.551;62;000.383;MIDI 01
120.138;000.327;72;000.414;MIDI 01
120.145;000.352;60;000.352;MIDI 01
120.661;000.076;26;000.297;MIDI 01
120.645;000.165;38;000.320;MIDI 01
120.797;000.256;72;000.398;MIDI 01
120.807;000.335;60;000.305;MIDI 01
121.216;000.090;48;000.141;MIDI 01
121.214;000.099;55;000.156;MIDI 01
121.338;000.066;55;000.227;MIDI 01
121.334;000.098;48;000.188;MIDI 01
121.507;000.036;59;000.320;MIDI 01
121.515;000.032;71;000.336;MIDI 01
121.664;000.044;71;000.352;MIDI 01
121.668;000.084;59;000.352;MIDI 01
121.765;000.037;52;000.375;MIDI 01
121.768;000.044;55;000.336;MIDI 01
121.781;000.048;47;000.281;MIDI 01
121.940;000.039;55;000.398;MIDI 01
121.922;000.070;47;000.336;MIDI 01
121.934;000.066;52;000.391;MIDI 01
122.034;000.030;70;000.383;MIDI 01
122.032;000.036;58;000.445;MIDI 01
122.168;000.072;58;000.422;MIDI 01
122.176;000.078;70;000.477;MIDI 01
122.265;000.041;55;000.328;MIDI 01
122.289;000.083;52;000.281;MIDI 01
122.398;000.043;55;000.445;MIDI 01
122.393;000.071;52;000.328;MIDI 01
122.509;000.027;57;000.406;MIDI 01
122.503;000.035;69;000.500;MIDI 01
122.630;000.070;69;000.516;MIDI 01
122.647;000.075;57;000.469;MIDI 01
122.718;000.050;52;000.391;MIDI 01
122.730;000.087;45;000.344;MIDI 01
122.737;000.094;46;000.188;MIDI 01
122.839;000.075;45;000.352;MIDI 01
122.852;000.078;46;000.336;MIDI 01
122.868;000.065;52;000.391;MIDI 01
122.963;000.034;68;000.453;MIDI 01
122.958;000.049;56;000.500;MIDI 01
123.086;000.078;68;000.523;MIDI 01
123.147;000.049;52;000.477;MIDI 01
123.161;000.042;46;000.398;MIDI 01
123.155;000.052;44;000.469;MIDI 01
123.308;000.078;52;000.562;MIDI 01
123.324;000.093;44;000.500;MIDI 01
123.318;000.109;46;000.500;MIDI 01
123.407;000.032;67;000.484;MIDI 01
123.405;000.039;55;000.469;MIDI 01
123.532;000.069;67;000.531;MIDI 01
123.534;000.084;55;000.461;MIDI 01
123.612;000.031;46;000.500;MIDI 01
123.630;000.042;42;000.422;MIDI 01
123.787;000.049;42;000.500;MIDI 01
123.755;000.091;46;000.500;MIDI 01
123.856;000.030;54;000.422;MIDI 01
123.861;000.029;66;000.398;MIDI 01
123.998;000.035;54;000.422;MIDI 01
123.978;000.113;66;000.531;MIDI 01
124.076;000.054;46;000.445;MIDI 01
124.105;000.037;41;000.398;MIDI 01
124.245;000.058;46;000.398;MIDI 01
124.264;000.064;41;000.383;MIDI 01
124.312;000.040;65;000.438;MIDI 01
124.316;000.041;53;000.406;MIDI 01
124.456;000.089;65;000.484;MIDI 01
124.465;000.120;53;000.359;MIDI 01
124.553;000.035;46;000.406;MIDI 01
124.564;000.096;40;000.328;MIDI 01
124.585;000.095;43;000.250;MIDI 01
124.711;000.036;46;000.359;MIDI 01
124.690;000.074;40;000.188;MIDI 01
124.706;000.090;43;000.273;MIDI 01
124.786;000.033;64;000.391;MIDI 01
124.784;000.049;52;000.422;MIDI 01
124.909;000.072;64;000.484;MIDI 01
124.902;000.095;52;000.359;MIDI 01
125.013;000.050;46;000.414;MIDI 01
125.035;000.044;43;000.320;MIDI 01
125.021;000.089;39;000.406;MIDI 01
125.160;000.077;46;000.422;MIDI 01
125.179;000.059;43;000.391;MIDI 01
125.251;000.028;63;000.453;MIDI 01
125.253;000.031;51;000.492;MIDI 01
125.397;000.052;51;000.469;MIDI 01
125.375;000.108;63;000.531;MIDI 01
125.482;000.047;46;000.430;MIDI 01
125.502;000.040;43;000.398;MIDI 01
125.494;000.073;40;000.375;MIDI 01
125.665;000.045;43;000.328;MIDI 01
125.691;000.027;64;000.477;MIDI 01
125.634;000.094;40;000.289;MIDI 01
125.653;000.079;46;000.406;MIDI 01
125.689;000.045;52;000.500;MIDI 01
125.828;000.061;52;000.547;MIDI 01
125.815;000.097;64;000.547;MIDI 01
125.920;000.056;46;000.469;MIDI 01
125.935;000.043;41;000.438;MIDI 01
126.102;000.045;46;000.445;MIDI 01
126.136;000.033;65;000.500;MIDI 01
126.140;000.034;53;000.477;MIDI 01
126.094;000.084;41;000.484;MIDI 01
126.279;000.059;53;000.445;MIDI 01
126.259;000.086;65;000.562;MIDI 01
126.372;000.039;46;000.453;MIDI 01
126.369;000.049;42;000.461;MIDI 01
126.507;000.061;42;000.516;MIDI 01
126.514;000.057;46;000.492;MIDI 01
126.576;000.027;66;000.547;MIDI 01
126.578;000.042;54;000.531;MIDI 01
126.720;000.044;54;000.508;MIDI 01
126.697;000.096;66;000.578;MIDI 01
126.791;000.067;52;000.516;MIDI 01
126.820;000.043;46;000.336;MIDI 01
126.811;000.052;43;000.430;MIDI 01
126.977;000.039;67;000.516;MIDI 01
126.975;000.043;55;000.547;MIDI 01
126.939;000.081;43;000.383;MIDI 01
126.936;000.085;52;000.445;MIDI 01
126.958;000.071;46;000.539;MIDI 01
127.112;000.083;55;000.555;MIDI 01
127.110;000.109;67;000.578;MIDI 01
127.225;000.047;44;000.461;MIDI 01
127.242;000.033;46;000.414;MIDI 01
127.210;000.067;52;000.547;MIDI 01
127.377;000.090;44;000.555;MIDI 01
127.428;000.041;56;000.547;MIDI 01
127.431;000.040;68;000.516;MIDI 01
127.374;000.111;46;000.539;MIDI 01
127.383;000.126;52;000.523;MIDI 01
127.546;000.093;56;000.594;MIDI 01
127.550;000.105;68;000.617;MIDI 01
127.697;000.032;55;000.391;MIDI 01
127.666;000.079;45;000.586;MIDI 01
127.682;000.069;52;000.523;MIDI 01
127.821;000.052;55;000.570;MIDI 01
127.826;000.065;52;000.531;MIDI 01
127.888;000.040;57;000.500;MIDI 01
127.890;000.040;69;000.516;MIDI 01
127.853;000.101;46;000.500;MIDI 01
128.024;000.124;57;000.523;MIDI 01
128.020;000.142;69;000.602;MIDI 01
128.178;000.048;37;000.539;MIDI 01
128.188;000.086;25;000.539;MIDI 01
128.400;000.049;58;000.578;MIDI 01
128.403;000.053;70;000.578;MIDI 01
128.844;000.027;34;000.633;MIDI 01
128.857;000.055;22;000.484;MIDI 01
129.082;000.031;55;000.375;MIDI 01
129.080;000.035;46;000.438;MIDI 01
128.850;000.326;70;000.617;MIDI 01
128.855;000.335;58;000.562;MIDI 01
129.206;000.103;46;000.547;MIDI 01
129.211;000.126;55;000.523;MIDI 01
129.323;000.028;57;000.516;MIDI 01
129.331;000.025;69;000.500;MIDI 01
129.216;000.147;52;000.023;MIDI 01
129.440;000.044;57;000.586;MIDI 01
129.442;000.109;69;000.656;MIDI 01
129.546;000.059;55;000.430;MIDI 01
129.543;000.128;45;000.484;MIDI 01
129.529;000.169;52;000.508;MIDI 01
129.621;000.086;55;000.492;MIDI 01
129.769;000.031;82;000.609;MIDI 01
129.771;000.032;70;000.625;MIDI 01
129.891;000.108;70;000.531;MIDI 01
129.894;000.126;82;000.570;MIDI 01
130.008;000.026;67;000.438;MIDI 01
129.985;000.065;58;000.508;MIDI 01
130.030;000.054;64;000.266;MIDI 01
130.113;000.066;64;000.297;MIDI 01
130.156;000.042;67;000.211;MIDI 01
130.126;000.093;57;000.516;MIDI 01
130.248;000.057;81;000.570;MIDI 01
130.253;000.059;69;000.523;MIDI 01
130.442;000.084;81;000.547;MIDI 01
130.451;000.122;69;000.477;MIDI 01
130.840;000.048;64;000.516;MIDI 01
130.848;000.042;76;000.500;MIDI 01
130.999;000.035;38;000.555;MIDI 01
131.077;000.093;64;000.469;MIDI 01
131.083;000.104;76;000.516;MIDI 01
131.225;000.037;44;000.430;MIDI 01
131.232;000.039;52;000.367;MIDI 01
131.267;000.089;47;000.094;MIDI 01
131.340;000.075;44;000.484;MIDI 01
131.359;000.070;47;000.266;MIDI 01
131.352;000.081;52;000.516;MIDI 01
131.422;000.034;77;000.555;MIDI 01
131.424;000.037;65;000.539;MIDI 01
131.534;000.059;77;000.586;MIDI 01
131.537;000.075;65;000.586;MIDI 01
131.626;000.035;53;000.547;MIDI 01
131.630;000.044;44;000.469;MIDI 01
131.623;000.055;47;000.492;MIDI 01
131.759;000.034;44;000.547;MIDI 01
131.766;000.036;47;000.516;MIDI 01
131.752;000.085;53;000.578;MIDI 01
131.847;000.040;61;000.625;MIDI 01
131.857;000.034;73;000.516;MIDI 01
131.971;000.066;61;000.625;MIDI 01
131.969;000.073;73;000.648;MIDI 01
132.048;000.041;56;000.547;MIDI 01
132.074;000.030;59;000.422;MIDI 01
132.171;000.049;65;000.523;MIDI 01
132.182;000.080;59;000.578;MIDI 01
132.169;000.117;56;000.555;MIDI 01
132.301;000.039;62;000.508;MIDI 01
132.303;000.039;74;000.578;MIDI 01
132.433;000.083;74;000.523;MIDI 01
132.439;000.138;62;000.500;MIDI 01
132.780;000.043;56;000.578;MIDI 01
132.783;000.042;68;000.539;MIDI 01
132.927;000.036;37;000.570;MIDI 01
132.933;000.052;25;000.422;MIDI 01
132.961;000.103;56;000.523;MIDI 01
132.964;000.110;68;000.484;MIDI 01
133.118;000.042;52;000.602;MIDI 01
133.129;000.051;44;000.539;MIDI 01
133.268;000.030;69;000.586;MIDI 01
133.265;000.039;57;000.547;MIDI 01
133.249;000.058;52;000.555;MIDI 01
133.385;000.030;57;000.570;MIDI 01
133.376;000.102;69;000.617;MIDI 01
133.491;000.044;45;000.531;MIDI 01
133.489;000.050;52;000.539;MIDI 01
133.603;000.039;45;000.641;MIDI 01
133.606;000.065;52;000.594;MIDI 01
133.705;000.037;70;000.633;MIDI 01
133.716;000.030;82;000.555;MIDI 01
133.841;000.098;70;000.641;MIDI 01
133.831;000.136;82;000.570;MIDI 01
133.952;000.031;67;000.562;MIDI 01
133.948;000.047;64;000.516;MIDI 01
133.946;000.067;58;000.539;MIDI 01
134.083;000.040;67;000.500;MIDI 01
134.093;000.066;64;000.586;MIDI 01
134.098;000.114;57;000.555;MIDI 01
134.208;000.067;81;000.633;MIDI 01
134.210;000.077;69;000.609;MIDI 01
134.398;000.094;81;000.680;MIDI 01
134.402;000.121;69;000.625;MIDI 01
134.790;000.119;64;000.617;MIDI 01
134.792;000.119;76;000.656;MIDI 01
134.994;000.047;26;000.469;MIDI 01
135.001;000.054;38;000.570;MIDI 01
135.098;000.182;64;000.578;MIDI 01
135.100;000.227;76;000.633;MIDI 01
135.286;000.048;52;000.484;MIDI 01
135.304;000.053;47;000.414;MIDI 01
135.276;000.092;44;000.539;MIDI 01
135.460;000.053;44;000.367;MIDI 01
135.444;000.082;52;000.602;MIDI 01
135.472;000.057;49;000.383;MIDI 01
135.477;000.057;47;000.398;MIDI 01
135.514;000.032;77;000.570;MIDI 01
135.499;000.049;46;000.203;MIDI 01
135.518;000.034;65;000.555;MIDI 01
135.629;000.062;77;000.578;MIDI 01
135.634;000.081;65;000.594;MIDI 01
135.706;000.045;53;000.539;MIDI 01
135.713;000.051;47;000.430;MIDI 01
135.710;000.057;44;000.461;MIDI 01
135.849;000.036;44;000.492;MIDI 01
135.859;000.047;47;000.555;MIDI 01
135.847;000.079;53;000.555;MIDI 01
135.968;000.035;61;000.602;MIDI 01
135.975;000.032;73;000.492;MIDI 01
136.078;000.080;61;000.578;MIDI 01
136.090;000.079;73;000.602;MIDI 01
136.169;000.048;56;000.523;MIDI 01
136.175;000.047;59;000.508;MIDI 01
136.295;000.047;65;000.469;MIDI 01
136.309;000.076;59;000.539;MIDI 01
136.303;000.106;56;000.555;MIDI 01
136.434;000.044;74;000.570;MIDI 01
136.436;000.044;62;000.523;MIDI 01
136.591;000.146;74;000.531;MIDI 01
136.598;000.183;62;000.477;MIDI 01
137.089;000.043;68;000.344;MIDI 01
137.091;000.046;56;000.328;MIDI 01
137.252;000.096;56;000.375;MIDI 01
137.241;000.130;68;000.398;MIDI 01
137.376;000.039;52;000.391;MIDI 01
137.392;000.066;49;000.297;MIDI 01
137.482;000.062;49;000.289;MIDI 01
137.515;000.047;52;000.398;MIDI 01
137.603;000.033;57;000.461;MIDI 01
137.615;000.030;69;000.398;MIDI 01
137.757;000.037;57;000.367;MIDI 01
137.750;000.050;69;000.516;MIDI 01
137.828;000.037;49;000.453;MIDI 01
137.826;000.044;52;000.453;MIDI 01
137.967;000.052;52;000.531;MIDI 01
137.981;000.052;49;000.461;MIDI 01
138.078;000.041;58;000.523;MIDI 01
138.089;000.040;70;000.484;MIDI 01
138.227;000.120;58;000.430;MIDI 01
138.230;000.123;70;000.492;MIDI 01
138.322;000.033;54;000.438;MIDI 01
138.331;000.044;51;000.445;MIDI 01
138.341;000.046;48;000.383;MIDI 01
138.478;000.067;54;000.492;MIDI 01
138.512;000.043;48;000.422;MIDI 01
138.491;000.067;51;000.484;MIDI 01
138.571;000.035;69;000.492;MIDI 01
138.567;000.043;57;000.500;MIDI 01
138.708;000.050;57;000.516;MIDI 01
138.704;000.115;69;000.578;MIDI 01
138.785;000.040;54;000.453;MIDI 01
138.794;000.040;48;000.391;MIDI 01
138.791;000.049;51;000.477;MIDI 01
138.939;000.081;54;000.516;MIDI 01
138.943;000.082;51;000.578;MIDI 01
138.935;000.118;48;000.539;MIDI 01
139.046;000.040;61;000.594;MIDI 01
139.053;000.036;73;000.578;MIDI 01
139.188;000.088;61;000.477;MIDI 01
139.192;000.096;73;000.477;MIDI 01
139.264;000.050;57;000.492;MIDI 01
139.275;000.046;47;000.375;MIDI 01
139.279;000.045;54;000.469;MIDI 01
139.273;000.055;50;000.438;MIDI 01
139.412;000.074;57;000.539;MIDI 01
139.423;000.069;47;000.453;MIDI 01
139.436;000.059;50;000.523;MIDI 01
139.428;000.086;54;000.555;MIDI 01
139.506;000.043;62;000.562;MIDI 01
139.515;000.036;74;000.523;MIDI 01
139.624;000.078;62;000.594;MIDI 01
139.626;000.089;74;000.641;MIDI 01
139.715;000.048;57;000.539;MIDI 01
139.735;000.034;50;000.477;MIDI 01
139.728;000.044;54;000.500;MIDI 01
139.720;000.068;47;000.438;MIDI 01
139.848;000.093;47;000.547;MIDI 01
139.860;000.085;57;000.648;MIDI 01
139.863;000.120;50;000.523;MIDI 01
139.865;000.121;54;000.609;MIDI 01
139.966;000.039;75;000.609;MIDI 01
139.958;000.060;63;000.633;MIDI 01
140.111;000.077;63;000.523;MIDI 01
140.110;000.084;75;000.578;MIDI 01
140.195;000.051;57;000.555;MIDI 01
140.193;000.071;46;000.508;MIDI 01
140.186;000.082;50;000.500;MIDI 01
140.358;000.067;57;000.531;MIDI 01
140.382;000.045;59;000.289;MIDI 01
140.354;000.113;50;000.484;MIDI 01
140.343;000.128;46;000.508;MIDI 01
140.447;000.035;74;000.570;MIDI 01
140.441;000.044;62;000.617;MIDI 01
140.573;000.076;62;000.633;MIDI 01
140.643;000.058;46;000.484;MIDI 01
140.645;000.062;50;000.516;MIDI 01
140.641;000.069;55;000.547;MIDI 01
140.567;000.150;74;000.672;MIDI 01
140.795;000.117;50;000.609;MIDI 01
140.786;000.133;55;000.609;MIDI 01
140.876;000.052;48;000.133;MIDI 01
140.792;000.145;46;000.633;MIDI 01
140.911;000.056;79;000.711;MIDI 01
140.907;000.067;67;000.688;MIDI 01
141.081;000.040;67;000.539;MIDI 01
141.083;000.041;79;000.594;MIDI 01
141.192;000.054;55;000.539;MIDI 01
141.197;000.057;50;000.500;MIDI 01
141.195;000.072;45;000.484;MIDI 01
141.346;000.075;55;000.602;MIDI 01
141.356;000.101;50;000.547;MIDI 01
141.349;000.116;45;000.531;MIDI 01
141.444;000.034;64;000.547;MIDI 01
141.454;000.025;76;000.484;MIDI 01
141.441;000.041;65;000.508;MIDI 01
141.448;000.035;77;000.430;MIDI 01
141.564;000.091;65;000.672;MIDI 01
141.650;000.053;45;000.531;MIDI 01
141.654;000.050;53;000.578;MIDI 01
141.648;000.067;50;000.586;MIDI 01
141.566;000.151;77;000.703;MIDI 01
141.787;000.108;53;000.656;MIDI 01
141.794;000.124;45;000.656;MIDI 01
141.792;000.143;50;000.625;MIDI 01
141.911;000.052;86;000.766;MIDI 01
141.907;000.059;74;000.727;MIDI 01
142.075;000.033;86;000.664;MIDI 01
142.073;000.050;74;000.703;MIDI 01
142.205;000.046;50;000.516;MIDI 01
142.190;000.071;53;000.523;MIDI 01
142.203;000.064;47;000.531;MIDI 01
142.192;000.086;44;000.539;MIDI 01
142.368;000.091;53;000.531;MIDI 01
142.367;000.117;50;000.547;MIDI 01
142.355;000.145;44;000.477;MIDI 01
142.374;000.129;47;000.539;MIDI 01
142.475;000.042;74;000.672;MIDI 01
142.470;000.057;62;000.680;MIDI 01
142.604;000.060;62;000.633;MIDI 01
142.608;000.113;74;000.695;MIDI 01
142.702;000.046;50;000.523;MIDI 01
142.689;000.061;53;000.555;MIDI 01
142.686;000.078;44;000.539;MIDI 01
142.692;000.078;47;000.547;MIDI 01
142.820;000.133;53;000.609;MIDI 01
142.824;000.161;47;000.539;MIDI 01
142.830;000.160;50;000.609;MIDI 01
142.946;000.055;74;000.734;MIDI 01
142.948;000.054;86;000.750;MIDI 01
142.811;000.209;44;000.516;MIDI 01
143.104;000.049;86;000.703;MIDI 01
143.103;000.060;74;000.711;MIDI 01
143.228;000.070;53;000.539;MIDI 01
143.231;000.070;50;000.523;MIDI 01
143.230;000.073;43;000.562;MIDI 01
143.233;000.075;46;000.562;MIDI 01
143.392;000.110;53;000.602;MIDI 01
143.393;000.125;50;000.578;MIDI 01
143.395;000.124;43;000.539;MIDI 01
143.397;000.134;46;000.570;MIDI 01
143.503;000.040;74;000.695;MIDI 01
143.497;000.062;62;000.672;MIDI 01
143.614;000.069;62;000.617;MIDI 01
143.621;000.114;74;000.711;MIDI 01
143.714;000.050;43;000.586;MIDI 01
143.717;000.057;50;000.602;MIDI 01
143.718;000.058;53;000.641;MIDI 01
143.720;000.058;46;000.602;MIDI 01
143.845;000.114;53;000.680;MIDI 01
143.846;000.116;43;000.695;MIDI 01
143.850;000.132;50;000.664;MIDI 01
143.854;000.136;46;000.633;MIDI 01
143.961;000.049;89;000.766;MIDI 01
143.957;000.057;77;000.734;MIDI 01
144.110;000.161;89;000.781;MIDI 01
144.108;000.170;77;000.695;MIDI 01
144.216;000.070;53;000.641;MIDI 01
144.219;000.073;44;000.633;MIDI 01
144.217;000.077;50;000.648;MIDI 01
144.227;000.073;47;000.586;MIDI 01
144.464;000.052;89;000.711;MIDI 01
144.361;000.157;53;000.617;MIDI 01
144.466;000.059;77;000.680;MIDI 01
144.354;000.174;44;000.594;MIDI 01
144.358;000.181;50;000.555;MIDI 01
144.368;000.175;47;000.555;MIDI 01
144.618;000.119;76;000.773;MIDI 01
144.620;000.125;88;000.758;MIDI 01
144.741;000.071;53;000.758;MIDI 01
144.784;000.040;45;000.398;MIDI 01
144.753;000.089;44;000.641;MIDI 01
144.751;000.094;47;000.648;MIDI 01
144.914;000.103;47;000.609;MIDI 01
144.906;000.128;44;000.586;MIDI 01
144.904;000.132;52;000.703;MIDI 01
145.059;000.054;74;000.781;MIDI 01
145.064;000.074;86;000.789;MIDI 01
145.399;000.032;43;000.492;MIDI 01
145.389;000.098;81;000.766;MIDI 01
145.537;000.082;93;000.641;MIDI 01
145.656;000.085;82;000.656;MIDI 01
145.372;000.440;45;000.625;MIDI 01
145.766;000.065;94;000.648;MIDI 01
145.366;000.472;57;000.750;MIDI 01
145.849;000.056;81;000.648;MIDI 01
145.368;000.547;52;000.695;MIDI 01
145.364;000.573;49;000.672;MIDI 01
145.933;000.065;93;000.672;MIDI 01
146.031;000.070;82;000.609;MIDI 01
146.130;000.057;94;000.617;MIDI 01
146.208;000.058;81;000.641;MIDI 01
146.251;000.047;57;000.547;MIDI 01
146.247;000.085;45;000.562;MIDI 01
146.302;000.037;93;000.586;MIDI 01
146.352;000.098;88;000.312;MIDI 01
146.393;000.070;82;000.609;MIDI 01
146.420;000.045;58;000.625;MIDI 01
146.422;000.047;46;000.562;MIDI 01
146.479;000.071;94;000.641;MIDI 01
146.591;000.038;85;000.570;MIDI 01
146.596;000.039;49;000.594;MIDI 01
146.581;000.069;81;000.602;MIDI 01
146.589;000.064;61;000.695;MIDI 01
146.628;000.043;87;000.258;MIDI 01
146.626;000.058;88;000.445;MIDI 01
146.671;000.067;93;000.648;MIDI 01
146.766;000.052;64;000.680;MIDI 01
146.768;000.055;52;000.656;MIDI 01
146.770;000.073;82;000.656;MIDI 01
146.858;000.066;94;000.680;MIDI 01
146.940;000.037;53;000.617;MIDI 01
146.931;000.056;65;000.703;MIDI 01
146.936;000.056;81;000.664;MIDI 01
147.020;000.034;93;000.578;MIDI 01
147.101;000.037;55;000.680;MIDI 01
147.092;000.057;67;000.742;MIDI 01
147.039;000.115;91;000.398;MIDI 01
147.096;000.067;82;000.656;MIDI 01
147.099;000.080;88;000.289;MIDI 01
147.153;000.057;89;000.070;MIDI 01
147.157;000.070;91;000.070;MIDI 01
147.204;000.042;92;000.367;MIDI 01
147.186;000.066;94;000.633;MIDI 01
147.276;000.033;57;000.688;MIDI 01
147.268;000.058;69;000.758;MIDI 01
147.262;000.066;81;000.703;MIDI 01
147.369;000.033;93;000.547;MIDI 01
147.384;000.031;92;000.414;MIDI 01
147.400;000.076;88;000.312;MIDI 01
147.440;000.067;58;000.641;MIDI 01
147.431;000.077;70;000.750;MIDI 01
147.433;000.083;82;000.711;MIDI 01
147.476;000.043;89;000.281;MIDI 01
147.355;000.202;91;000.516;MIDI 01
147.523;000.068;94;000.648;MIDI 01
147.610;000.024;57;000.734;MIDI 01
147.645;000.002;85;000.406;MIDI 01
147.603;000.050;69;000.805;MIDI 01
147.613;000.100;86;000.750;MIDI 01
147.606;000.110;81;000.727;MIDI 01
147.753;000.105;93;000.625;MIDI 01
147.902;000.059;77;000.695;MIDI 01
147.905;000.072;65;000.711;MIDI 01
147.897;000.086;82;000.703;MIDI 01
147.783;000.205;91;000.297;MIDI 01
147.615;000.430;89;000.750;MIDI 01
148.004;000.098;94;000.664;MIDI 01
148.116;000.061;76;000.711;MIDI 01
148.121;000.064;64;000.664;MIDI 01
148.119;000.069;81;000.680;MIDI 01
148.170;000.061;83;000.062;MIDI 01
148.222;000.032;93;000.586;MIDI 01
148.291;000.054;74;000.711;MIDI 01
148.298;000.061;62;000.703;MIDI 01
148.307;000.075;82;000.680;MIDI 01
148.226;000.160;91;000.367;MIDI 01
148.329;000.107;89;000.117;MIDI 01
148.391;000.054;91;000.156;MIDI 01
148.309;000.158;88;000.156;MIDI 01
148.412;000.066;94;000.617;MIDI 01
148.498;000.029;69;000.641;MIDI 01
148.501;000.030;67;000.586;MIDI 01
148.510;000.023;57;000.594;MIDI 01
148.496;000.043;55;000.625;MIDI 01
148.491;000.058;81;000.688;MIDI 01
148.584;000.020;93;000.539;MIDI 01
148.644;000.002;92;000.062;MIDI 01
148.662;000.051;65;000.727;MIDI 01
148.637;000.088;88;000.273;MIDI 01
148.667;000.061;53;000.695;MIDI 01
148.665;000.069;82;000.703;MIDI 01
148.693;000.053;89;000.273;MIDI 01
148.567;000.183;91;000.547;MIDI 01
148.754;000.029;91;000.117;MIDI 01
148.783;000.031;92;000.375;MIDI 01
148.742;000.079;94;000.672;MIDI 01
148.821;000.040;65;000.703;MIDI 01
148.819;000.049;53;000.688;MIDI 01
148.875;000.002;64;000.281;MIDI 01
148.836;000.065;81;000.695;MIDI 01
148.955;000.002;92;000.312;MIDI 01
148.901;000.059;93;000.648;MIDI 01
149.011;000.031;63;000.625;MIDI 01
149.019;000.041;49;000.516;MIDI 01
148.998;000.069;61;000.750;MIDI 01
149.009;000.088;82;000.695;MIDI 01
149.056;000.054;51;000.203;MIDI 01
149.085;000.064;88;000.219;MIDI 01
148.915;000.236;91;000.625;MIDI 01
149.031;000.122;89;000.273;MIDI 01
149.110;000.075;94;000.672;MIDI 01
149.137;000.059;92;000.477;MIDI 01
149.167;000.072;58;000.695;MIDI 01
149.176;000.071;46;000.688;MIDI 01
149.193;000.071;81;000.672;MIDI 01
149.286;000.073;93;000.648;MIDI 01
149.349;000.072;57;000.734;MIDI 01
149.354;000.096;45;000.742;MIDI 01
149.445;000.015;87;000.086;MIDI 01
149.305;000.181;91;000.453;MIDI 01
149.375;000.122;82;000.758;MIDI 01
149.392;000.130;88;000.195;MIDI 01
149.491;000.054;91;000.125;MIDI 01
149.522;000.076;92;000.578;MIDI 01
149.492;000.121;94;000.680;MIDI 01
149.566;000.060;55;000.727;MIDI 01
149.570;000.078;43;000.750;MIDI 01
149.590;000.123;81;000.625;MIDI 01
149.685;000.028;93;000.594;MIDI 01
149.779;000.065;52;000.766;MIDI 01
149.781;000.107;40;000.750;MIDI 01
149.938;000.055;81;000.734;MIDI 01
149.941;000.065;69;000.672;MIDI 01
150.361;000.042;50;000.523;MIDI 01
150.170;000.243;69;000.578;MIDI 01
150.373;000.042;38;000.430;MIDI 01
150.178;000.239;81;000.680;MIDI 01
150.357;000.061;45;000.562;MIDI 01
150.175;000.247;77;000.609;MIDI 01
150.359;000.065;41;000.531;MIDI 01
150.173;000.253;74;000.625;MIDI 01
150.508;000.043;45;000.578;MIDI 01
150.511;000.043;41;000.594;MIDI 01
150.520;000.041;38;000.453;MIDI 01
150.497;000.082;50;000.609;MIDI 01
150.639;000.036;70;000.609;MIDI 01
150.643;000.036;82;000.531;MIDI 01
150.649;000.048;77;000.523;MIDI 01
150.635;000.064;74;000.586;MIDI 01
150.783;000.096;77;000.570;MIDI 01
150.768;000.115;74;000.555;MIDI 01
150.766;000.120;70;000.539;MIDI 01
150.771;000.140;82;000.586;MIDI 01
150.872;000.049;65;000.609;MIDI 01
150.873;000.056;62;000.586;MIDI 01
150.875;000.080;57;000.484;MIDI 01
150.992;000.030;65;000.531;MIDI 01
150.990;000.055;62;000.555;MIDI 01
151.132;000.023;81;000.523;MIDI 01
151.128;000.034;77;000.547;MIDI 01
151.122;000.045;69;000.578;MIDI 01
151.124;000.045;74;000.617;MIDI 01
151.252;000.080;69;000.578;MIDI 01
151.247;000.091;81;000.617;MIDI 01
151.249;000.097;74;000.625;MIDI 01
151.250;000.097;77;000.570;MIDI 01
151.368;000.040;50;000.562;MIDI 01
151.383;000.040;38;000.461;MIDI 01
151.377;000.048;45;000.484;MIDI 01
151.381;000.048;41;000.500;MIDI 01
151.504;000.043;38;000.445;MIDI 01
151.510;000.039;41;000.547;MIDI 01
151.490;000.067;45;000.570;MIDI 01
151.500;000.065;50;000.594;MIDI 01
151.616;000.035;68;000.516;MIDI 01
151.605;000.048;74;000.594;MIDI 01
151.631;000.025;80;000.414;MIDI 01
151.624;000.034;77;000.477;MIDI 01
151.740;000.094;74;000.578;MIDI 01
151.724;000.117;68;000.633;MIDI 01
151.738;000.115;80;000.625;MIDI 01
151.819;000.040;65;000.672;MIDI 01
151.833;000.040;62;000.531;MIDI 01
151.831;000.047;57;000.539;MIDI 01
151.943;000.021;65;000.461;MIDI 01
151.930;000.052;62;000.656;MIDI 01
152.057;000.033;79;000.625;MIDI 01
152.062;000.035;69;000.531;MIDI 01
152.071;000.030;67;000.516;MIDI 01
152.054;000.057;74;000.609;MIDI 01
152.182;000.058;69;000.633;MIDI 01
152.167;000.081;74;000.547;MIDI 01
152.171;000.078;79;000.641;MIDI 01
152.186;000.069;67;000.539;MIDI 01
152.292;000.039;50;000.562;MIDI 01
152.287;000.054;45;000.586;MIDI 01
152.307;000.042;41;000.469;MIDI 01
152.314;000.052;38;000.375;MIDI 01
152.428;000.041;38;000.430;MIDI 01
152.420;000.060;45;000.562;MIDI 01
152.447;000.036;41;000.516;MIDI 01
152.422;000.075;50;000.570;MIDI 01
152.556;000.024;78;000.453;MIDI 01
152.550;000.036;66;000.539;MIDI 01
152.543;000.050;69;000.562;MIDI 01
152.552;000.043;74;000.562;MIDI 01
152.681;000.084;69;000.539;MIDI 01
152.671;000.097;66;000.578;MIDI 01
152.689;000.090;74;000.578;MIDI 01
152.678;000.102;78;000.562;MIDI 01
152.747;000.035;62;000.602;MIDI 01
152.755;000.031;53;000.492;MIDI 01
152.749;000.046;57;000.555;MIDI 01
152.852;000.048;62;000.594;MIDI 01
152.874;000.041;57;000.594;MIDI 01
152.877;000.074;53;000.594;MIDI 01
152.974;000.044;65;000.555;MIDI 01
152.972;000.052;74;000.570;MIDI 01
152.995;000.031;77;000.375;MIDI 01
152.968;000.061;69;000.570;MIDI 01
153.121;000.034;77;000.484;MIDI 01
153.102;000.082;69;000.500;MIDI 01
153.097;000.112;74;000.539;MIDI 01
153.099;000.116;65;000.594;MIDI 01
153.209;000.043;50;000.594;MIDI 01
153.219;000.044;45;000.531;MIDI 01
153.215;000.050;41;000.531;MIDI 01
153.228;000.041;38;000.430;MIDI 01
153.365;000.036;38;000.492;MIDI 01
153.356;000.050;45;000.602;MIDI 01
153.360;000.052;41;000.516;MIDI 01
153.355;000.068;50;000.586;MIDI 01
153.427;000.037;76;000.602;MIDI 01
153.429;000.039;64;000.547;MIDI 01
153.422;000.048;69;000.594;MIDI 01
153.548;000.070;76;000.602;MIDI 01
153.550;000.071;64;000.555;MIDI 01
153.553;000.081;69;000.625;MIDI 01
153.656;000.039;57;000.547;MIDI 01
153.671;000.060;53;000.398;MIDI 01
153.750;000.078;53;000.523;MIDI 01
153.868;000.036;63;000.562;MIDI 01
153.871;000.035;69;000.555;MIDI 01
153.876;000.036;75;000.500;MIDI 01
153.986;000.068;69;000.633;MIDI 01
153.984;000.081;63;000.523;MIDI 01
153.994;000.080;75;000.586;MIDI 01
154.106;000.040;50;000.539;MIDI 01
154.110;000.040;45;000.508;MIDI 01
154.125;000.036;41;000.422;MIDI 01
154.265;000.040;41;000.523;MIDI 01
154.232;000.079;45;000.570;MIDI 01
154.242;000.082;50;000.523;MIDI 01
154.339;000.042;62;000.547;MIDI 01
154.343;000.040;69;000.547;MIDI 01
154.346;000.039;74;000.523;MIDI 01
154.467;000.069;74;000.594;MIDI 01
154.469;000.073;62;000.531;MIDI 01
154.479;000.072;69;000.602;MIDI 01
154.564;000.039;57;000.523;MIDI 01
154.591;000.027;53;000.297;MIDI 01
154.676;000.040;57;000.555;MIDI 01
154.680;000.054;53;000.586;MIDI 01
154.810;000.037;61;000.516;MIDI 01
154.822;000.028;73;000.391;MIDI 01
154.820;000.032;69;000.438;MIDI 01
154.941;000.051;61;000.523;MIDI 01
154.949;000.048;69;000.445;MIDI 01
154.951;000.090;73;000.547;MIDI 01
155.051;000.032;50;000.516;MIDI 01
155.068;000.040;41;000.453;MIDI 01
155.066;000.044;45;000.461;MIDI 01
155.091;000.073;38;000.227;MIDI 01
155.168;000.051;38;000.250;MIDI 01
155.186;000.036;45;000.453;MIDI 01
155.202;000.049;41;000.414;MIDI 01
155.175;000.082;50;000.516;MIDI 01
155.275;000.034;69;000.555;MIDI 01
155.283;000.042;62;000.484;MIDI 01
155.300;000.031;74;000.375;MIDI 01
155.414;000.033;62;000.453;MIDI 01
155.416;000.046;74;000.469;MIDI 01
155.397;000.083;69;000.562;MIDI 01
155.480;000.043;57;000.594;MIDI 01
155.499;000.028;53;000.445;MIDI 01
155.606;000.039;53;000.609;MIDI 01
155.611;000.035;57;000.492;MIDI 01
155.723;000.037;63;000.609;MIDI 01
155.724;000.044;69;000.570;MIDI 01
155.731;000.039;75;000.516;MIDI 01
155.865;000.021;63;000.469;MIDI 01
155.867;000.027;75;000.570;MIDI 01
155.863;000.069;69;000.586;MIDI 01
155.953;000.029;50;000.539;MIDI 01
155.955;000.042;45;000.523;MIDI 01
155.961;000.040;41;000.492;MIDI 01
156.001;000.049;38;000.125;MIDI 01
156.075;000.038;41;000.531;MIDI 01
156.054;000.060;38;000.156;MIDI 01
156.073;000.044;45;000.570;MIDI 01
156.056;000.074;50;000.625;MIDI 01
156.158;000.039;64;000.602;MIDI 01
156.172;000.028;76;000.562;MIDI 01
156.170;000.032;69;000.570;MIDI 01
156.275;000.083;64;000.625;MIDI 01
156.285;000.097;69;000.609;MIDI 01
156.278;000.109;76;000.641;MIDI 01
156.379;000.037;53;000.508;MIDI 01
156.381;000.037;62;000.602;MIDI 01
156.375;000.046;57;000.570;MIDI 01
156.508;000.028;57;000.633;MIDI 01
156.505;000.033;62;000.555;MIDI 01
156.491;000.082;53;000.562;MIDI 01
156.597;000.033;65;000.594;MIDI 01
156.599;000.033;77;000.562;MIDI 01
156.589;000.046;69;000.617;MIDI 01
156.605;000.035;74;000.523;MIDI 01
156.725;000.073;77;000.594;MIDI 01
156.713;000.091;65;000.531;MIDI 01
156.723;000.085;69;000.633;MIDI 01
156.721;000.098;74;000.633;MIDI 01
156.839;000.037;50;000.617;MIDI 01
156.844;000.047;45;000.594;MIDI 01
156.854;000.039;38;000.484;MIDI 01
156.856;000.039;41;000.484;MIDI 01
156.971;000.033;38;000.562;MIDI 01
156.969;000.050;45;000.641;MIDI 01
156.989;000.032;41;000.578;MIDI 01
156.967;000.068;50;000.602;MIDI 01
157.059;000.025;78;000.500;MIDI 01
157.053;000.039;69;000.578;MIDI 01
157.061;000.036;66;000.531;MIDI 01
157.055;000.052;74;000.578;MIDI 01
157.185;000.062;69;000.656;MIDI 01
157.188;000.075;74;000.555;MIDI 01
157.180;000.102;66;000.625;MIDI 01
157.178;000.118;78;000.609;MIDI 01
157.262;000.035;62;000.641;MIDI 01
157.269;000.033;53;000.539;MIDI 01
157.267;000.039;57;000.609;MIDI 01
157.390;000.032;62;000.672;MIDI 01
157.384;000.058;57;000.617;MIDI 01
157.387;000.077;53;000.609;MIDI 01
157.447;000.049;55;000.258;MIDI 01
157.476;000.040;67;000.609;MIDI 01
157.478;000.040;79;000.609;MIDI 01
157.473;000.050;74;000.609;MIDI 01
157.605;000.080;67;000.688;MIDI 01
157.599;000.092;79;000.688;MIDI 01
157.609;000.083;74;000.641;MIDI 01
157.716;000.044;45;000.625;MIDI 01
157.731;000.034;41;000.539;MIDI 01
157.709;000.058;50;000.539;MIDI 01
157.733;000.039;38;000.500;MIDI 01
157.845;000.038;38;000.547;MIDI 01
157.854;000.051;41;000.617;MIDI 01
157.836;000.071;45;000.641;MIDI 01
157.833;000.084;50;000.609;MIDI 01
157.949;000.032;68;000.570;MIDI 01
157.951;000.034;80;000.562;MIDI 01
157.942;000.049;74;000.617;MIDI 01
158.058;000.101;74;000.609;MIDI 01
158.050;000.114;68;000.602;MIDI 01
158.055;000.132;80;000.656;MIDI 01
158.164;000.030;57;000.570;MIDI 01
158.159;000.037;62;000.578;MIDI 01
158.177;000.025;60;000.461;MIDI 01
158.151;000.058;53;000.594;MIDI 01
158.280;000.021;62;000.539;MIDI 01
158.257;000.057;57;000.672;MIDI 01
158.265;000.082;53;000.516;MIDI 01
158.347;000.029;55;000.047;MIDI 01
158.394;000.037;81;000.672;MIDI 01
158.392;000.042;69;000.625;MIDI 01
158.387;000.061;74;000.648;MIDI 01
158.390;000.061;77;000.648;MIDI 01
158.533;000.089;69;000.742;MIDI 01
158.535;000.105;74;000.656;MIDI 01
158.539;000.121;77;000.656;MIDI 01
158.531;000.141;81;000.742;MIDI 01
158.672;000.049;38;000.570;MIDI 01
158.666;000.057;50;000.625;MIDI 01
158.668;000.062;41;000.586;MIDI 01
158.664;000.069;45;000.633;MIDI 01
158.801;000.046;38;000.586;MIDI 01
158.807;000.076;41;000.570;MIDI 01
158.797;000.090;45;000.547;MIDI 01
158.799;000.101;50;000.570;MIDI 01
158.981;000.098;86;000.750;MIDI 01
158.988;000.104;74;000.719;MIDI 01
158.983;000.123;77;000.641;MIDI 01
158.985;000.129;81;000.695;MIDI 01
159.200;000.123;86;000.805;MIDI 01
159.206;000.128;74;000.719;MIDI 01
159.214;000.144;81;000.641;MIDI 01
159.208;000.157;77;000.695;MIDI 01
159.361;000.061;65;000.672;MIDI 01
159.366;000.077;62;000.617;MIDI 01
159.364;000.096;57;000.570;MIDI 01
159.534;000.039;65;000.633;MIDI 01
159.532;000.081;62;000.672;MIDI 01
159.529;000.112;57;000.562;MIDI 01
159.716;000.159;84;000.750;MIDI 01
159.719;000.173;72;000.711;MIDI 01
160.037;000.190;84;000.734;MIDI 01
160.040;000.256;72;000.711;MIDI 01
160.243;000.064;52;000.594;MIDI 01
160.045;000.264;79;000.648;MIDI 01
160.233;000.078;38;000.602;MIDI 01
160.043;000.273;76;000.703;MIDI 01
160.256;000.067;43;000.531;MIDI 01
160.250;000.075;46;000.578;MIDI 01
160.421;000.029;38;000.344;MIDI 01
160.412;000.050;43;000.547;MIDI 01
160.400;000.095;46;000.570;MIDI 01
160.402;000.095;52;000.633;MIDI 01
160.547;000.049;71;000.633;MIDI 01
160.552;000.047;76;000.625;MIDI 01
160.548;000.054;83;000.641;MIDI 01
160.549;000.055;79;000.609;MIDI 01
160.688;000.078;71;000.617;MIDI 01
160.693;000.082;79;000.547;MIDI 01
160.684;000.092;83;000.625;MIDI 01
160.685;000.093;76;000.617;MIDI 01
160.791;000.050;67;000.664;MIDI 01
160.794;000.067;64;000.633;MIDI 01
160.799;000.094;58;000.531;MIDI 01
160.921;000.035;67;000.516;MIDI 01
160.916;000.062;64;000.547;MIDI 01
160.915;000.080;58;000.461;MIDI 01
161.035;000.041;70;000.656;MIDI 01
161.052;000.034;82;000.500;MIDI 01
161.044;000.056;79;000.555;MIDI 01
161.032;000.070;76;000.617;MIDI 01
161.176;000.088;70;000.656;MIDI 01
161.178;000.096;76;000.586;MIDI 01
161.180;000.105;82;000.602;MIDI 01
161.264;000.024;52;000.562;MIDI 01
161.268;000.036;46;000.570;MIDI 01
161.261;000.053;43;000.523;MIDI 01
161.280;000.095;38;000.398;MIDI 01
161.398;000.030;38;000.273;MIDI 01
161.399;000.033;43;000.539;MIDI 01
161.385;000.075;46;000.609;MIDI 01
161.380;000.090;52;000.609;MIDI 01
161.503;000.041;69;000.609;MIDI 01
161.508;000.037;81;000.586;MIDI 01
161.501;000.050;76;000.617;MIDI 01
161.636;000.039;69;000.602;MIDI 01
161.627;000.054;81;000.609;MIDI 01
161.625;000.086;76;000.633;MIDI 01
161.716;000.028;67;000.602;MIDI 01
161.719;000.033;64;000.570;MIDI 01
161.721;000.036;58;000.531;MIDI 01
161.824;000.031;67;000.508;MIDI 01
161.826;000.065;64;000.633;MIDI 01
161.839;000.064;58;000.609;MIDI 01
161.942;000.031;68;000.594;MIDI 01
161.944;000.031;80;000.609;MIDI 01
161.961;000.026;76;000.453;MIDI 01
161.964;000.028;77;000.414;MIDI 01
162.079;000.032;76;000.633;MIDI 01
162.054;000.092;68;000.570;MIDI 01
162.064;000.118;80;000.617;MIDI 01
162.174;000.024;52;000.453;MIDI 01
162.167;000.056;46;000.555;MIDI 01
162.178;000.125;38;000.430;MIDI 01
162.180;000.145;43;000.562;MIDI 01
162.275;000.090;52;000.656;MIDI 01
162.420;000.033;67;000.562;MIDI 01
162.414;000.042;70;000.625;MIDI 01
162.422;000.035;76;000.578;MIDI 01
162.443;000.029;79;000.359;MIDI 01
162.569;000.024;79;000.477;MIDI 01
162.541;000.073;70;000.664;MIDI 01
162.536;000.079;67;000.578;MIDI 01
162.539;000.079;76;000.609;MIDI 01
162.628;000.031;64;000.570;MIDI 01
162.624;000.045;58;000.547;MIDI 01
162.630;000.042;55;000.484;MIDI 01
162.738;000.028;64;000.570;MIDI 01
162.745;000.050;55;000.570;MIDI 01
162.734;000.073;58;000.641;MIDI 01
162.851;000.021;78;000.508;MIDI 01
162.844;000.030;70;000.570;MIDI 01
162.842;000.035;66;000.586;MIDI 01
162.954;000.059;70;000.555;MIDI 01
162.953;000.070;66;000.562;MIDI 01
162.956;000.101;78;000.625;MIDI 01
163.077;000.035;52;000.375;MIDI 01
163.073;000.130;38;000.430;MIDI 01
163.044;000.184;42;000.289;MIDI 01
163.194;000.036;43;000.375;MIDI 01
163.156;000.078;52;000.523;MIDI 01
163.109;000.146;46;000.109;MIDI 01
163.286;000.033;70;000.641;MIDI 01
163.298;000.024;77;000.555;MIDI 01
163.294;000.033;65;000.547;MIDI 01
163.458;000.050;56;000.570;MIDI 01
163.416;000.095;77;000.625;MIDI 01
163.409;000.107;70;000.555;MIDI 01
163.414;000.110;65;000.617;MIDI 01
163.589;000.053;58;000.258;MIDI 01
163.617;000.029;56;000.422;MIDI 01
163.639;000.027;55;000.469;MIDI 01
163.627;000.053;54;000.133;MIDI 01
163.730;000.031;70;000.609;MIDI 01
163.743;000.023;76;000.508;MIDI 01
163.734;000.037;64;000.531;MIDI 01
163.870;000.042;76;000.602;MIDI 01
163.867;000.053;64;000.594;MIDI 01
163.857;000.076;70;000.508;MIDI 01
163.984;000.037;46;000.391;MIDI 01
163.986;000.039;43;000.383;MIDI 01
163.981;000.053;38;000.344;MIDI 01
164.001;000.050;52;000.203;MIDI 01
164.119;000.039;52;000.328;MIDI 01
164.134;000.028;43;000.422;MIDI 01
164.117;000.060;46;000.484;MIDI 01
164.129;000.057;38;000.086;MIDI 01
164.257;000.034;63;000.383;MIDI 01
164.266;000.083;70;000.289;MIDI 01
164.354;000.059;63;000.469;MIDI 01
164.366;000.052;70;000.406;MIDI 01
164.448;000.039;55;000.375;MIDI 01
164.453;000.080;58;000.414;MIDI 01
164.554;000.040;58;000.414;MIDI 01
164.570;000.031;55;000.508;MIDI 01
164.678;000.028;70;000.477;MIDI 01
164.684;000.034;64;000.414;MIDI 01
164.713;000.076;76;000.203;MIDI 01
164.789;000.036;64;000.469;MIDI 01
164.795;000.037;70;000.570;MIDI 01
164.793;000.057;76;000.312;MIDI 01
164.900;000.029;52;000.531;MIDI 01
164.912;000.030;43;000.453;MIDI 01
164.906;000.043;38;000.438;MIDI 01
164.919;000.038;46;000.344;MIDI 01
165.041;000.042;43;000.562;MIDI 01
165.043;000.049;38;000.266;MIDI 01
165.029;000.065;52;000.516;MIDI 01
165.039;000.074;46;000.570;MIDI 01
165.130;000.032;70;000.602;MIDI 01
165.127;000.037;65;000.609;MIDI 01
165.132;000.034;77;000.586;MIDI 01
165.262;000.045;65;000.586;MIDI 01
165.258;000.056;77;000.523;MIDI 01
165.257;000.068;70;000.586;MIDI 01
165.320;000.030;58;000.469;MIDI 01
165.335;000.046;55;000.398;MIDI 01
165.416;000.042;58;000.695;MIDI 01
165.425;000.046;55;000.508;MIDI 01
165.551;000.018;78;000.523;MIDI 01
165.549;000.031;70;000.531;MIDI 01
165.547;000.039;66;000.508;MIDI 01
165.659;000.084;70;000.586;MIDI 01
165.665;000.094;66;000.633;MIDI 01
165.660;000.145;78;000.602;MIDI 01
165.775;000.031;52;000.609;MIDI 01
165.777;000.054;46;000.586;MIDI 01
165.785;000.048;38;000.461;MIDI 01
165.773;000.068;43;000.562;MIDI 01
165.909;000.031;43;000.539;MIDI 01
165.893;000.073;46;000.562;MIDI 01
165.891;000.080;52;000.594;MIDI 01
166.011;000.025;67;000.531;MIDI 01
165.994;000.053;70;000.672;MIDI 01
166.000;000.056;76;000.625;MIDI 01
166.033;000.032;79;000.352;MIDI 01
166.120;000.076;70;000.641;MIDI 01
166.137;000.076;79;000.602;MIDI 01
166.122;000.094;67;000.633;MIDI 01
166.135;000.089;76;000.539;MIDI 01
166.214;000.039;64;000.695;MIDI 01
166.224;000.037;58;000.570;MIDI 01
166.220;000.050;55;000.578;MIDI 01
166.359;000.027;64;000.625;MIDI 01
166.354;000.058;55;000.578;MIDI 01
166.345;000.072;58;000.617;MIDI 01
166.450;000.025;75;000.578;MIDI 01
166.452;000.035;68;000.664;MIDI 01
166.457;000.034;80;000.609;MIDI 01
166.475;000.032;76;000.578;MIDI 01
166.491;000.050;64;000.141;MIDI 01
166.582;000.104;68;000.625;MIDI 01
166.577;000.119;76;000.664;MIDI 01
166.688;000.046;52;000.680;MIDI 01
166.695;000.049;46;000.594;MIDI 01
166.580;000.166;80;000.617;MIDI 01
166.701;000.047;38;000.484;MIDI 01
166.691;000.067;43;000.625;MIDI 01
166.849;000.036;38;000.500;MIDI 01
166.846;000.049;43;000.570;MIDI 01
166.835;000.084;52;000.695;MIDI 01
166.840;000.085;46;000.641;MIDI 01
166.964;000.061;81;000.688;MIDI 01
166.968;000.059;69;000.656;MIDI 01
166.966;000.064;76;000.703;MIDI 01
167.125;000.073;69;000.719;MIDI 01
167.127;000.108;76;000.703;MIDI 01
167.214;000.032;67;000.602;MIDI 01
167.123;000.125;81;000.750;MIDI 01
167.209;000.042;58;000.531;MIDI 01
167.204;000.064;64;000.656;MIDI 01
167.331;000.058;67;000.648;MIDI 01
167.340;000.078;64;000.664;MIDI 01
167.341;000.119;58;000.617;MIDI 01
167.527;000.096;70;000.727;MIDI 01
167.524;000.114;82;000.727;MIDI 01
167.529;000.131;76;000.672;MIDI 01
167.533;000.129;79;000.641;MIDI 01
167.782;000.034;80;000.375;MIDI 01
167.733;000.170;76;000.688;MIDI 01
167.742;000.164;79;000.602;MIDI 01
167.855;000.052;49;000.625;MIDI 01
167.863;000.054;37;000.523;MIDI 01
167.860;000.066;45;000.586;MIDI 01
167.735;000.199;70;000.750;MIDI 01
167.738;000.210;82;000.773;MIDI 01
168.015;000.039;37;000.578;MIDI 01
168.023;000.050;45;000.539;MIDI 01
168.012;000.080;49;000.672;MIDI 01
168.153;000.036;79;000.586;MIDI 01
168.159;000.035;81;000.531;MIDI 01
168.144;000.053;69;000.633;MIDI 01
168.149;000.055;76;000.602;MIDI 01
168.279;000.033;69;000.586;MIDI 01
168.275;000.076;76;000.586;MIDI 01
168.281;000.086;79;000.609;MIDI 01
168.273;000.101;81;000.656;MIDI 01
168.364;000.027;67;000.578;MIDI 01
168.361;000.031;57;000.531;MIDI 01
168.357;000.037;64;000.609;MIDI 01
168.466;000.071;67;000.648;MIDI 01
168.495;000.047;65;000.648;MIDI 01
168.492;000.078;64;000.594;MIDI 01
168.488;000.111;57;000.578;MIDI 01
168.643;000.078;82;000.750;MIDI 01
168.640;000.098;94;000.766;MIDI 01
168.646;000.106;88;000.703;MIDI 01
168.650;000.108;91;000.695;MIDI 01
168.713;000.077;92;000.172;MIDI 01
168.831;000.117;91;000.625;MIDI 01
168.825;000.125;88;000.664;MIDI 01
168.827;000.146;82;000.734;MIDI 01
168.936;000.052;49;000.648;MIDI 01
168.944;000.055;45;000.609;MIDI 01
168.946;000.058;37;000.578;MIDI 01
168.829;000.177;94;000.766;MIDI 01
169.089;000.035;37;000.539;MIDI 01
169.091;000.052;45;000.586;MIDI 01
169.084;000.072;49;000.656;MIDI 01
169.215;000.031;93;000.578;MIDI 01
169.208;000.045;81;000.648;MIDI 01
169.210;000.052;88;000.594;MIDI 01
169.202;000.062;91;000.633;MIDI 01
169.343;000.032;93;000.438;MIDI 01
169.363;000.033;91;000.508;MIDI 01
169.340;000.069;88;000.562;MIDI 01
169.348;000.081;81;000.625;MIDI 01
169.423;000.043;67;000.641;MIDI 01
169.426;000.051;64;000.609;MIDI 01
169.454;000.035;57;000.359;MIDI 01
169.569;000.021;67;000.469;MIDI 01
169.547;000.073;64;000.625;MIDI 01
169.568;000.079;57;000.633;MIDI 01
169.657;000.045;76;000.680;MIDI 01
169.706;000.002;86;000.328;MIDI 01
169.659;000.053;88;000.664;MIDI 01
169.804;000.075;76;000.602;MIDI 01
169.798;000.119;80;000.617;MIDI 01
169.802;000.116;88;000.609;MIDI 01
169.811;000.127;83;000.570;MIDI 01
169.903;000.042;50;000.547;MIDI 01
169.901;000.051;38;000.586;MIDI 01
169.897;000.066;47;000.617;MIDI 01
170.040;000.039;38;000.547;MIDI 01
170.045;000.065;47;000.594;MIDI 01
170.037;000.080;50;000.578;MIDI 01
170.160;000.025;77;000.523;MIDI 01
170.166;000.022;80;000.484;MIDI 01
170.158;000.031;89;000.586;MIDI 01
170.151;000.054;83;000.547;MIDI 01
170.272;000.030;89;000.617;MIDI 01
170.264;000.079;83;000.508;MIDI 01
170.268;000.080;77;000.641;MIDI 01
170.270;000.092;80;000.609;MIDI 01
170.352;000.037;56;000.562;MIDI 01
170.360;000.032;65;000.586;MIDI 01
170.354;000.041;59;000.578;MIDI 01
170.468;000.055;65;000.617;MIDI 01
170.512;000.033;60;000.438;MIDI 01
170.484;000.066;59;000.570;MIDI 01
170.470;000.106;56;000.586;MIDI 01
170.586;000.030;73;000.602;MIDI 01
170.590;000.033;83;000.602;MIDI 01
170.605;000.021;80;000.477;MIDI 01
170.607;000.025;85;000.422;MIDI 01
170.609;000.042;82;000.234;MIDI 01
170.697;000.088;73;000.609;MIDI 01
170.707;000.084;80;000.641;MIDI 01
170.713;000.105;83;000.648;MIDI 01
170.721;000.123;85;000.594;MIDI 01
170.826;000.039;50;000.547;MIDI 01
170.822;000.049;38;000.594;MIDI 01
170.816;000.065;47;000.594;MIDI 01
170.966;000.033;38;000.602;MIDI 01
170.964;000.071;47;000.609;MIDI 01
170.960;000.083;50;000.562;MIDI 01
171.077;000.031;83;000.594;MIDI 01
171.074;000.037;74;000.586;MIDI 01
171.081;000.033;86;000.586;MIDI 01
171.073;000.044;80;000.617;MIDI 01
171.197;000.032;86;000.625;MIDI 01
171.205;000.041;83;000.594;MIDI 01
171.195;000.076;80;000.672;MIDI 01
171.193;000.084;74;000.641;MIDI 01
171.275;000.036;56;000.523;MIDI 01
171.277;000.044;59;000.484;MIDI 01
171.284;000.037;65;000.578;MIDI 01
171.306;000.035;60;000.359;MIDI 01
171.392;000.028;65;000.586;MIDI 01
171.403;000.071;59;000.641;MIDI 01
171.387;000.109;56;000.648;MIDI 01
171.530;000.069;68;000.641;MIDI 01
171.545;000.075;76;000.578;MIDI 01
171.528;000.093;80;000.648;MIDI 01
171.542;000.089;77;000.484;MIDI 01
171.760;000.031;80;000.453;MIDI 01
171.840;000.041;49;000.586;MIDI 01
171.747;000.135;79;000.531;MIDI 01
171.842;000.054;37;000.523;MIDI 01
171.730;000.168;70;000.633;MIDI 01
171.732;000.170;76;000.578;MIDI 01
171.838;000.075;46;000.578;MIDI 01
171.726;000.189;82;000.602;MIDI 01
171.982;000.049;37;000.617;MIDI 01
171.984;000.069;45;000.633;MIDI 01
171.975;000.093;49;000.570;MIDI 01
172.097;000.039;69;000.633;MIDI 01
172.113;000.029;81;000.500;MIDI 01
172.094;000.053;79;000.625;MIDI 01
172.088;000.064;76;000.641;MIDI 01
172.214;000.034;69;000.586;MIDI 01
172.219;000.050;76;000.531;MIDI 01
172.216;000.077;79;000.578;MIDI 01
172.221;000.082;81;000.688;MIDI 01
172.299;000.035;64;000.648;MIDI 01
172.301;000.035;67;000.672;MIDI 01
172.308;000.036;57;000.539;MIDI 01
172.417;000.029;67;000.680;MIDI 01
172.421;000.061;64;000.773;MIDI 01
172.419;000.093;57;000.656;MIDI 01
172.583;000.002;92;000.258;MIDI 01
172.527;000.064;90;000.680;MIDI 01
172.539;000.067;82;000.617;MIDI 01
172.536;000.092;94;000.680;MIDI 01
172.595;000.035;91;000.562;MIDI 01
172.541;000.094;88;000.656;MIDI 01
172.708;000.104;88;000.523;MIDI 01
172.716;000.099;91;000.609;MIDI 01
172.706;000.111;82;000.656;MIDI 01
172.713;000.155;94;000.656;MIDI 01
172.825;000.049;49;000.602;MIDI 01
172.832;000.054;37;000.539;MIDI 01
172.830;000.060;46;000.570;MIDI 01
172.994;000.041;37;000.398;MIDI 01
172.972;000.066;46;000.562;MIDI 01
172.974;000.066;49;000.609;MIDI 01
173.095;000.030;93;000.547;MIDI 01
173.089;000.039;88;000.578;MIDI 01
173.091;000.039;81;000.578;MIDI 01
173.079;000.052;91;000.617;MIDI 01
173.218;000.020;93;000.484;MIDI 01
173.226;000.030;91;000.445;MIDI 01
173.216;000.058;88;000.586;MIDI 01
173.214;000.069;81;000.602;MIDI 01
173.278;000.028;67;000.617;MIDI 01
173.274;000.037;64;000.609;MIDI 01
173.280;000.045;57;000.578;MIDI 01
173.399;000.039;67;000.570;MIDI 01
173.397;000.064;64;000.617;MIDI 01
173.408;000.081;57;000.570;MIDI 01
173.526;000.020;88;000.516;MIDI 01
173.528;000.022;74;000.484;MIDI 01
173.534;000.021;76;000.508;MIDI 01
173.536;000.021;86;000.516;MIDI 01
173.652;000.048;76;000.555;MIDI 01
173.671;000.048;80;000.500;MIDI 01
173.650;000.095;88;000.633;MIDI 01
173.755;000.032;50;000.555;MIDI 01
173.751;000.047;47;000.602;MIDI 01
173.753;000.048;38;000.578;MIDI 01
173.889;000.027;38;000.516;MIDI 01
173.878;000.072;47;000.562;MIDI 01
173.880;000.078;50;000.578;MIDI 01
173.993;000.031;77;000.539;MIDI 01
173.998;000.039;89;000.570;MIDI 01
174.113;000.020;89;000.523;MIDI 01
174.121;000.056;83;000.555;MIDI 01
174.119;000.076;80;000.586;MIDI 01
174.110;000.094;77;000.539;MIDI 01
174.204;000.042;56;000.453;MIDI 01
174.226;000.042;59;000.258;MIDI 01
174.224;000.056;65;000.508;MIDI 01
174.316;000.062;59;000.539;MIDI 01
174.485;000.028;76;000.492;MIDI 01
174.481;000.041;64;000.547;MIDI 01
174.532;000.043;74;000.250;MIDI 01
174.610;000.068;64;000.477;MIDI 01
174.622;000.089;68;000.516;MIDI 01
174.616;000.102;76;000.555;MIDI 01
174.639;000.097;71;000.500;MIDI 01
174.728;000.035;49;000.539;MIDI 01
174.732;000.042;44;000.516;MIDI 01
174.735;000.047;37;000.469;MIDI 01
174.848;000.074;49;000.625;MIDI 01
174.871;000.062;44;000.570;MIDI 01
174.846;000.125;37;000.539;MIDI 01
174.959;000.026;77;000.516;MIDI 01
174.951;000.039;65;000.633;MIDI 01
175.001;000.040;76;000.266;MIDI 01
175.071;000.035;68;000.523;MIDI 01
175.084;000.056;73;000.602;MIDI 01
175.069;000.074;77;000.641;MIDI 01
175.169;000.043;47;000.625;MIDI 01
175.171;000.044;35;000.586;MIDI 01
175.167;000.067;44;000.609;MIDI 01
175.305;000.094;47;000.672;MIDI 01
175.303;000.107;44;000.547;MIDI 01
175.299;000.120;35;000.664;MIDI 01
175.410;000.039;77;000.617;MIDI 01
175.405;000.059;89;000.688;MIDI 01
175.532;000.093;89;000.656;MIDI 01
175.539;000.091;77;000.672;MIDI 01
175.547;000.124;85;000.672;MIDI 01
175.669;000.060;45;000.641;MIDI 01
175.675;000.057;33;000.633;MIDI 01
175.677;000.065;42;000.594;MIDI 01
175.815;000.039;33;000.602;MIDI 01
175.812;000.084;45;000.656;MIDI 01
175.819;000.082;42;000.586;MIDI 01
175.918;000.031;90;000.688;MIDI 01
175.924;000.031;78;000.594;MIDI 01
175.926;000.032;85;000.594;MIDI 01
175.972;000.002;87;000.117;MIDI 01
176.027;000.057;90;000.680;MIDI 01
176.030;000.092;85;000.656;MIDI 01
176.025;000.100;78;000.633;MIDI 01
176.135;000.024;61;000.562;MIDI 01
176.132;000.032;66;000.641;MIDI 01
176.149;000.040;54;000.414;MIDI 01
176.242;000.052;66;000.516;MIDI 01
176.262;000.082;61;000.594;MIDI 01
176.277;000.089;54;000.602;MIDI 01
176.384;000.029;66;000.617;MIDI 01
176.378;000.044;73;000.562;MIDI 01
176.374;000.061;78;000.602;MIDI 01
176.567;000.018;77;000.344;MIDI 01
176.521;000.098;67;000.656;MIDI 01
176.518;000.111;79;000.688;MIDI 01
176.609;000.040;41;000.547;MIDI 01
176.516;000.139;73;000.688;MIDI 01
176.627;000.039;36;000.438;MIDI 01
176.633;000.051;29;000.367;MIDI 01
176.639;000.054;28;000.391;MIDI 01
176.659;000.054;40;000.211;MIDI 01
176.731;000.056;29;000.570;MIDI 01
176.724;000.092;41;000.719;MIDI 01
176.741;000.090;37;000.648;MIDI 01
176.881;000.029;73;000.633;MIDI 01
176.879;000.033;68;000.617;MIDI 01
176.883;000.031;80;000.602;MIDI 01
176.985;000.048;68;000.594;MIDI 01
176.993;000.091;73;000.688;MIDI 01
176.991;000.106;80;000.680;MIDI 01
177.077;000.032;61;000.656;MIDI 01
177.082;000.032;68;000.602;MIDI 01
177.092;000.042;56;000.461;MIDI 01
177.205;000.030;68;000.508;MIDI 01
177.233;000.027;66;000.477;MIDI 01
177.211;000.092;61;000.539;MIDI 01
177.214;000.095;56;000.695;MIDI 01
177.326;000.036;80;000.688;MIDI 01
177.343;000.023;90;000.492;MIDI 01
177.329;000.046;92;000.711;MIDI 01
177.328;000.066;85;000.664;MIDI 01
177.552;000.027;42;000.594;MIDI 01
177.549;000.045;30;000.656;MIDI 01
177.475;000.127;80;000.648;MIDI 01
177.478;000.153;85;000.664;MIDI 01
177.602;000.055;37;000.070;MIDI 01
177.470;000.195;92;000.797;MIDI 01
177.628;000.040;32;000.023;MIDI 01
177.673;000.081;30;000.742;MIDI 01
177.671;000.092;42;000.672;MIDI 01
177.681;000.109;37;000.422;MIDI 01
177.825;000.040;93;000.750;MIDI 01
177.827;000.039;85;000.688;MIDI 01
177.829;000.040;81;000.555;MIDI 01
177.863;000.024;83;000.414;MIDI 01
177.969;000.023;93;000.492;MIDI 01
177.996;000.028;83;000.367;MIDI 01
177.949;000.077;85;000.711;MIDI 01
177.957;000.073;81;000.547;MIDI 01
178.036;000.045;69;000.711;MIDI 01
178.047;000.036;61;000.586;MIDI 01
178.044;000.049;57;000.555;MIDI 01
178.171;000.021;69;000.734;MIDI 01
178.168;000.091;61;000.664;MIDI 01
178.175;000.085;57;000.648;MIDI 01
178.271;000.035;73;000.672;MIDI 01
178.286;000.022;81;000.516;MIDI 01
178.278;000.036;69;000.648;MIDI 01
178.398;000.094;69;000.680;MIDI 01
178.394;000.107;81;000.703;MIDI 01
178.492;000.035;52;000.703;MIDI 01
178.499;000.035;42;000.680;MIDI 01
178.397;000.139;73;000.695;MIDI 01
178.530;000.041;40;000.359;MIDI 01
178.540;000.048;38;000.320;MIDI 01
178.635;000.052;40;000.641;MIDI 01
178.628;000.081;42;000.625;MIDI 01
178.623;000.100;52;000.773;MIDI 01
178.748;000.041;70;000.711;MIDI 01
178.752;000.037;73;000.633;MIDI 01
178.769;000.022;82;000.516;MIDI 01
178.771;000.023;80;000.484;MIDI 01
178.873;000.030;70;000.625;MIDI 01
178.867;000.085;73;000.688;MIDI 01
178.870;000.108;82;000.727;MIDI 01
178.975;000.037;70;000.648;MIDI 01
178.972;000.046;66;000.664;MIDI 01
178.978;000.043;61;000.547;MIDI 01
178.998;000.034;58;000.383;MIDI 01
179.096;000.074;70;000.680;MIDI 01
179.117;000.098;66;000.695;MIDI 01
179.120;000.110;61;000.586;MIDI 01
179.129;000.124;58;000.602;MIDI 01
179.259;000.057;82;000.750;MIDI 01
179.282;000.046;92;000.445;MIDI 01
179.261;000.074;94;000.766;MIDI 01
179.257;000.104;90;000.758;MIDI 01
179.504;000.099;92;000.133;MIDI 01
179.455;000.175;82;000.734;MIDI 01
179.597;000.035;51;000.750;MIDI 01
179.607;000.030;42;000.609;MIDI 01
179.611;000.031;39;000.641;MIDI 01
179.458;000.244;94;000.734;MIDI 01
179.459;000.283;90;000.727;MIDI 01
179.724;000.080;39;000.672;MIDI 01
179.726;000.095;51;000.711;MIDI 01
179.730;000.096;42;000.594;MIDI 01
179.876;000.035;95;000.633;MIDI 01
179.872;000.051;83;000.711;MIDI 01
179.866;000.059;90;000.773;MIDI 01
180.019;000.089;83;000.719;MIDI 01
180.017;000.113;95;000.711;MIDI 01
180.021;000.121;90;000.727;MIDI 01
180.122;000.034;71;000.656;MIDI 01
180.129;000.035;66;000.625;MIDI 01
180.161;000.040;59;000.305;MIDI 01
180.249;000.036;71;000.750;MIDI 01
180.274;000.028;60;000.492;MIDI 01
180.245;000.088;66;000.648;MIDI 01
180.259;000.097;59;000.578;MIDI 01
180.386;000.039;95;000.672;MIDI 01
180.381;000.062;83;000.711;MIDI 01
180.375;000.071;90;000.758;MIDI 01
180.558;000.100;83;000.680;MIDI 01
180.553;000.116;95;000.664;MIDI 01
180.654;000.035;50;000.602;MIDI 01
180.669;000.035;42;000.547;MIDI 01
180.667;000.040;38;000.516;MIDI 01
180.556;000.181;90;000.734;MIDI 01
180.773;000.095;50;000.664;MIDI 01
180.786;000.106;38;000.680;MIDI 01
180.793;000.122;42;000.688;MIDI 01
180.887;000.031;95;000.672;MIDI 01
180.883;000.048;83;000.688;MIDI 01
180.877;000.058;90;000.719;MIDI 01
181.020;000.110;95;000.672;MIDI 01
181.025;000.107;83;000.750;MIDI 01
181.122;000.043;49;000.750;MIDI 01
181.139;000.039;37;000.586;MIDI 01
181.141;000.046;42;000.609;MIDI 01
181.027;000.202;90;000.773;MIDI 01
181.260;000.069;49;000.734;MIDI 01
181.267;000.150;42;000.703;MIDI 01
181.420;000.018;83;000.555;MIDI 01
181.258;000.181;37;000.680;MIDI 01
181.401;000.065;81;000.688;MIDI 01
181.396;000.072;93;000.758;MIDI 01
181.393;000.104;90;000.781;MIDI 01
181.789;000.064;47;000.672;MIDI 01
181.793;000.062;35;000.602;MIDI 01
181.620;000.238;93;000.789;MIDI 01
181.795;000.075;38;000.617;MIDI 01
181.621;000.283;81;000.789;MIDI 01
181.623;000.328;90;000.750;MIDI 01
181.950;000.032;35;000.664;MIDI 01
181.955;000.064;38;000.609;MIDI 01
181.945;000.099;47;000.734;MIDI 01
182.091;000.026;90;000.672;MIDI 01
182.089;000.030;92;000.609;MIDI 01
182.095;000.028;80;000.641;MIDI 01
182.201;000.054;80;000.641;MIDI 01
182.204;000.097;90;000.641;MIDI 01
182.197;000.118;92;000.641;MIDI 01
182.308;000.034;62;000.641;MIDI 01
182.319;000.031;54;000.500;MIDI 01
182.320;000.034;56;000.516;MIDI 01
182.427;000.069;62;000.633;MIDI 01
182.433;000.114;56;000.672;MIDI 01
182.438;000.110;54;000.641;MIDI 01
182.545;000.050;98;000.766;MIDI 01
182.543;000.054;90;000.734;MIDI 01
182.547;000.051;86;000.688;MIDI 01
182.718;000.026;98;000.633;MIDI 01
182.749;000.028;96;000.422;MIDI 01
182.713;000.072;86;000.672;MIDI 01
182.710;000.098;90;000.750;MIDI 01
182.873;000.040;35;000.484;MIDI 01
182.866;000.049;47;000.578;MIDI 01
182.849;000.081;37;000.617;MIDI 01
183.005;000.049;35;000.625;MIDI 01
183.018;000.077;38;000.641;MIDI 01
183.012;000.106;47;000.648;MIDI 01
183.119;000.028;90;000.641;MIDI 01
183.132;000.022;92;000.547;MIDI 01
183.124;000.032;80;000.656;MIDI 01
183.234;000.097;80;000.695;MIDI 01
183.232;000.117;90;000.625;MIDI 01
183.236;000.142;92;000.758;MIDI 01
183.356;000.035;62;000.688;MIDI 01
183.366;000.035;54;000.539;MIDI 01
183.364;000.046;56;000.555;MIDI 01
183.486;000.045;62;000.648;MIDI 01
183.490;000.084;56;000.664;MIDI 01
183.484;000.094;54;000.578;MIDI 01
183.572;000.026;90;000.672;MIDI 01
183.578;000.029;93;000.609;MIDI 01
183.575;000.034;81;000.672;MIDI 01
183.695;000.092;93;000.711;MIDI 01
183.697;000.134;81;000.727;MIDI 01
183.693;000.143;90;000.641;MIDI 01
183.816;000.041;47;000.656;MIDI 01
183.829;000.043;35;000.531;MIDI 01
183.812;000.061;38;000.656;MIDI 01
183.932;000.058;35;000.625;MIDI 01
183.940;000.079;38;000.594;MIDI 01
183.942;000.097;47;000.719;MIDI 01
184.050;000.026;90;000.688;MIDI 01
184.053;000.033;80;000.672;MIDI 01
184.059;000.034;92;000.617;MIDI 01
184.173;000.046;80;000.758;MIDI 01
184.171;000.092;90;000.688;MIDI 01
184.169;000.108;92;000.758;MIDI 01
184.262;000.028;66;000.703;MIDI 01
184.267;000.035;62;000.625;MIDI 01
184.273;000.049;56;000.523;MIDI 01
184.285;000.039;54;000.383;MIDI 01
184.310;000.048;58;000.219;MIDI 01
184.379;000.070;66;000.688;MIDI 01
184.407;000.049;62;000.617;MIDI 01
184.403;000.094;56;000.586;MIDI 01
184.414;000.107;54;000.648;MIDI 01
184.534;000.023;99;000.461;MIDI 01
184.514;000.045;102;000.688;MIDI 01
184.507;000.054;90;000.758;MIDI 01
184.510;000.067;92;000.711;MIDI 01
184.577;000.058;96;000.078;MIDI 01
184.664;000.058;102;000.781;MIDI 01
184.660;000.098;90;000.773;MIDI 01
184.667;000.103;92;000.711;MIDI 01
184.796;000.048;47;000.633;MIDI 01
184.819;000.035;37;000.438;MIDI 01
184.804;000.052;38;000.539;MIDI 01
184.809;000.051;35;000.516;MIDI 01
184.929;000.054;35;000.617;MIDI 01
184.933;000.093;38;000.617;MIDI 01
184.931;000.127;47;000.664;MIDI 01
185.101;000.018;90;000.609;MIDI 01
185.097;000.028;80;000.703;MIDI 01
185.096;000.039;92;000.695;MIDI 01
185.217;000.102;80;000.633;MIDI 01
185.224;000.110;90;000.688;MIDI 01
185.319;000.027;66;000.719;MIDI 01
185.219;000.133;92;000.688;MIDI 01
185.328;000.039;56;000.578;MIDI 01
185.339;000.033;54;000.469;MIDI 01
185.433;000.064;66;000.648;MIDI 01
185.444;000.086;56;000.641;MIDI 01
185.450;000.086;54;000.641;MIDI 01
185.547;000.027;90;000.734;MIDI 01
185.567;000.021;91;000.578;MIDI 01
185.557;000.035;93;000.539;MIDI 01
185.545;000.054;81;000.750;MIDI 01
185.660;000.057;93;000.734;MIDI 01
185.664;000.091;81;000.727;MIDI 01
185.746;000.033;48;000.727;MIDI 01
185.668;000.116;90;000.727;MIDI 01
185.754;000.034;39;000.711;MIDI 01
185.758;000.033;36;000.633;MIDI 01
185.823;000.042;38;000.117;MIDI 01
185.865;000.062;36;000.703;MIDI 01
185.869;000.077;39;000.688;MIDI 01
185.861;000.086;48;000.773;MIDI 01
185.992;000.021;90;000.758;MIDI 01
186.002;000.017;92;000.594;MIDI 01
185.990;000.032;80;000.766;MIDI 01
186.100;000.046;80;000.750;MIDI 01
186.093;000.098;90;000.539;MIDI 01
186.098;000.097;92;000.750;MIDI 01
186.188;000.029;66;000.695;MIDI 01
186.195;000.037;54;000.547;MIDI 01
186.236;000.002;61;000.180;MIDI 01
186.225;000.034;62;000.383;MIDI 01
186.190;000.072;56;000.648;MIDI 01
186.318;000.071;66;000.727;MIDI 01
186.328;000.098;63;000.539;MIDI 01
186.333;000.123;56;000.641;MIDI 01
186.330;000.140;54;000.609;MIDI 01
186.455;000.048;92;000.883;MIDI 01
186.457;000.048;104;000.773;MIDI 01
186.453;000.065;102;000.852;MIDI 01
186.661;000.002;104;000.383;MIDI 01
186.628;000.067;92;000.844;MIDI 01
186.630;000.072;102;000.914;MIDI 01
186.791;000.039;36;000.641;MIDI 01
186.781;000.057;48;000.773;MIDI 01
186.784;000.062;39;000.570;MIDI 01
186.925;000.036;36;000.602;MIDI 01
186.934;000.071;39;000.711;MIDI 01
186.927;000.081;48;000.758;MIDI 01
187.065;000.029;80;000.797;MIDI 01
187.069;000.041;92;000.781;MIDI 01
187.067;000.045;90;000.750;MIDI 01
187.214;000.066;80;000.789;MIDI 01
187.217;000.096;92;000.773;MIDI 01
187.211;000.103;90;000.820;MIDI 01
187.331;000.028;63;000.453;MIDI 01
187.329;000.048;68;000.664;MIDI 01
187.356;000.026;64;000.430;MIDI 01
187.359;000.035;56;000.398;MIDI 01
187.325;000.072;66;000.562;MIDI 01
187.366;000.033;61;000.391;MIDI 01
187.374;000.034;67;000.328;MIDI 01
187.364;000.053;58;000.211;MIDI 01
187.486;000.096;63;000.609;MIDI 01
187.482;000.102;68;000.680;MIDI 01
187.492;000.094;66;000.664;MIDI 01
187.490;000.098;56;000.617;MIDI 01
187.645;000.046;93;000.828;MIDI 01
187.643;000.052;81;000.828;MIDI 01
188.091;000.056;69;000.727;MIDI 01
188.093;000.056;57;000.695;MIDI 01
187.912;000.245;93;000.852;MIDI 01
187.910;000.273;81;000.852;MIDI 01
188.240;000.064;69;000.867;MIDI 01
188.246;000.084;57;000.805;MIDI 01
188.422;000.032;87;000.703;MIDI 01
188.416;000.049;75;000.688;MIDI 01
188.568;000.060;87;000.719;MIDI 01
188.566;000.068;75;000.742;MIDI 01
188.688;000.039;63;000.664;MIDI 01
188.706;000.031;51;000.547;MIDI 01
188.820;000.059;63;000.695;MIDI 01
188.818;000.108;51;000.680;MIDI 01
188.916;000.051;69;000.734;MIDI 01
188.920;000.051;81;000.703;MIDI 01
189.054;000.051;69;000.820;MIDI 01
189.057;000.053;81;000.805;MIDI 01
189.125;000.002;71;000.109;MIDI 01
189.205;000.042;45;000.656;MIDI 01
189.198;000.054;57;000.688;MIDI 01
189.322;000.073;57;000.727;MIDI 01
189.327;000.106;45;000.766;MIDI 01
189.454;000.027;75;000.672;MIDI 01
189.451;000.037;63;000.656;MIDI 01
189.561;000.062;75;000.555;MIDI 01
189.572;000.071;63;000.664;MIDI 01
189.691;000.039;51;000.656;MIDI 01
189.738;000.049;39;000.312;MIDI 01
189.808;000.072;51;000.695;MIDI 01
189.811;000.124;39;000.516;MIDI 01
189.918;000.043;69;000.648;MIDI 01
189.911;000.052;57;000.680;MIDI 01
190.053;000.060;69;000.758;MIDI 01
190.050;000.079;57;000.758;MIDI 01
190.176;000.049;33;000.641;MIDI 01
190.168;000.059;45;000.703;MIDI 01
190.307;000.077;45;000.672;MIDI 01
190.316;000.125;33;000.680;MIDI 01
190.466;000.036;51;000.664;MIDI 01
190.474;000.031;63;000.570;MIDI 01
190.602;000.090;63;000.203;MIDI 01
190.627;000.089;51;000.633;MIDI 01
190.774;000.040;39;000.555;MIDI 01
190.791;000.051;27;000.453;MIDI 01
190.934;000.046;39;000.445;MIDI 01
190.960;000.052;27;000.484;MIDI 01
191.101;000.041;51;000.414;MIDI 01
191.104;000.039;42;000.453;MIDI 01
191.093;000.059;45;000.477;MIDI 01
191.261;000.043;42;000.406;MIDI 01
191.264;000.047;45;000.438;MIDI 01
191.250;000.080;51;000.477;MIDI 01
191.375;000.043;36;000.484;MIDI 01
191.382;000.050;24;000.430;MIDI 01
191.515;000.057;36;000.562;MIDI 01
191.506;000.088;24;000.484;MIDI 01
191.617;000.034;46;000.469;MIDI 01
191.619;000.037;52;000.461;MIDI 01
191.633;000.042;43;000.336;MIDI 01
191.751;000.043;46;000.516;MIDI 01
191.747;000.057;43;000.477;MIDI 01
191.753;000.058;52;000.555;MIDI 01
191.855;000.042;36;000.547;MIDI 01
191.868;000.047;24;000.516;MIDI 01
191.986;000.047;36;000.602;MIDI 01
191.976;000.082;24;000.508;MIDI 01
192.093;000.036;44;000.562;MIDI 01
192.096;000.036;53;000.508;MIDI 01
192.091;000.044;48;000.562;MIDI 01
192.224;000.053;44;000.609;MIDI 01
192.219;000.072;48;000.562;MIDI 01
192.221;000.095;53;000.594;MIDI 01
192.342;000.064;36;000.617;MIDI 01
192.345;000.094;24;000.609;MIDI 01
192.476;000.056;36;000.617;MIDI 01
192.579;000.041;45;000.680;MIDI 01
192.586;000.037;54;000.562;MIDI 01
192.577;000.049;51;000.633;MIDI 01
192.700;000.061;45;000.680;MIDI 01
192.713;000.078;51;000.648;MIDI 01
192.709;000.107;54;000.555;MIDI 01
192.849;000.065;36;000.656;MIDI 01
192.851;000.072;24;000.641;MIDI 01
192.981;000.067;36;000.625;MIDI 01
192.983;000.072;24;000.539;MIDI 01
193.074;000.040;46;000.695;MIDI 01
193.076;000.044;55;000.609;MIDI 01
193.072;000.070;52;000.656;MIDI 01
193.205;000.067;46;000.734;MIDI 01
193.208;000.072;52;000.586;MIDI 01
193.211;000.075;55;000.648;MIDI 01
193.340;000.061;36;000.680;MIDI 01
193.338;000.068;24;000.656;MIDI 01
193.469;000.081;36;000.727;MIDI 01
193.472;000.094;24;000.672;MIDI 01
193.572;000.042;56;000.641;MIDI 01
193.566;000.050;47;000.602;MIDI 01
193.574;000.065;53;000.594;MIDI 01
193.636;000.002;54;000.070;MIDI 01
193.700;000.067;47;000.742;MIDI 01
193.704;000.094;53;000.617;MIDI 01
193.702;000.103;56;000.734;MIDI 01
193.847;000.057;36;000.711;MIDI 01
193.851;000.057;24;000.711;MIDI 01
193.979;000.079;24;000.641;MIDI 01
193.981;000.100;36;000.680;MIDI 01
194.110;000.036;48;000.695;MIDI 01
194.121;000.041;54;000.547;MIDI 01
194.114;000.051;57;000.641;MIDI 01
194.111;000.060;51;000.664;MIDI 01
194.250;000.071;48;000.672;MIDI 01
194.259;000.064;54;000.594;MIDI 01
194.246;000.091;51;000.664;MIDI 01
194.253;000.125;57;000.711;MIDI 01
194.371;000.039;45;000.688;MIDI 01
194.378;000.042;33;000.695;MIDI 01
194.492;000.140;45;000.719;MIDI 01
194.490;000.172;33;000.727;MIDI 01
194.614;000.069;57;000.719;MIDI 01
194.757;000.086;56;000.797;MIDI 01
194.870;000.064;44;000.758;MIDI 01
194.877;000.085;32;000.648;MIDI 01
195.034;000.074;30;000.711;MIDI 01
195.025;000.114;42;000.727;MIDI 01
195.150;000.058;54;000.781;MIDI 01
195.475;000.040;39;000.398;MIDI 01
195.441;000.082;61;000.766;MIDI 01
195.565;000.065;73;000.594;MIDI 01
195.651;000.065;60;000.656;MIDI 01
195.431;000.378;49;000.750;MIDI 01
195.751;000.075;72;000.617;MIDI 01
195.847;000.069;61;000.641;MIDI 01
195.446;000.485;37;000.625;MIDI 01
195.952;000.051;73;000.555;MIDI 01
196.033;000.060;60;000.617;MIDI 01
196.136;000.046;72;000.547;MIDI 01
196.253;000.033;36;000.477;MIDI 01
196.241;000.048;48;000.555;MIDI 01
196.234;000.056;61;000.594;MIDI 01
196.333;000.048;73;000.531;MIDI 01
196.418;000.064;60;000.602;MIDI 01
196.428;000.061;37;000.547;MIDI 01
196.416;000.076;49;000.648;MIDI 01
196.515;000.082;72;000.609;MIDI 01
196.609;000.043;50;000.703;MIDI 01
196.621;000.035;38;000.641;MIDI 01
196.629;000.053;66;000.523;MIDI 01
196.613;000.071;61;000.695;MIDI 01
196.717;000.052;73;000.594;MIDI 01
196.804;000.035;54;000.680;MIDI 01
196.793;000.055;60;000.680;MIDI 01
196.815;000.040;42;000.539;MIDI 01
196.770;000.127;70;000.031;MIDI 01
196.887;000.050;72;000.625;MIDI 01
196.925;000.045;71;000.391;MIDI 01
196.969;000.065;61;000.680;MIDI 01
196.976;000.059;59;000.695;MIDI 01
196.978;000.072;47;000.641;MIDI 01
197.024;000.052;67;000.180;MIDI 01
197.060;000.035;71;000.273;MIDI 01
197.068;000.059;73;000.594;MIDI 01
196.955;000.202;69;000.219;MIDI 01
197.156;000.053;60;000.648;MIDI 01
197.162;000.081;48;000.602;MIDI 01
197.243;000.059;72;000.602;MIDI 01
197.296;000.060;71;000.070;MIDI 01
197.332;000.062;61;000.633;MIDI 01
197.348;000.083;49;000.695;MIDI 01
197.431;000.044;73;000.547;MIDI 01
197.511;000.066;60;000.625;MIDI 01
197.518;000.065;50;000.672;MIDI 01
197.608;000.078;72;000.617;MIDI 01
197.708;000.067;61;000.688;MIDI 01
197.710;000.070;51;000.727;MIDI 01
197.719;000.100;39;000.703;MIDI 01
197.804;000.077;73;000.656;MIDI 01
197.711;000.191;67;000.547;MIDI 01
197.902;000.060;60;000.617;MIDI 01
197.775;000.199;69;000.273;MIDI 01
197.989;000.078;72;000.625;MIDI 01
198.037;000.045;71;000.297;MIDI 01
198.082;000.067;61;000.664;MIDI 01
198.009;000.171;69;000.094;MIDI 01
198.011;000.188;67;000.117;MIDI 01
198.174;000.068;73;000.609;MIDI 01
198.272;000.056;60;000.594;MIDI 01
198.361;000.060;72;000.562;MIDI 01
198.471;000.044;50;000.562;MIDI 01
198.491;000.035;38;000.438;MIDI 01
198.459;000.069;61;000.594;MIDI 01
198.568;000.044;73;000.523;MIDI 01
198.640;000.072;51;000.617;MIDI 01
198.642;000.071;60;000.594;MIDI 01
198.649;000.070;39;000.523;MIDI 01
198.739;000.080;72;000.578;MIDI 01
198.778;000.045;71;000.328;MIDI 01
198.840;000.032;40;000.578;MIDI 01
198.829;000.055;52;000.680;MIDI 01
198.845;000.073;61;000.648;MIDI 01
198.849;000.110;68;000.500;MIDI 01
198.948;000.046;73;000.570;MIDI 01
199.021;000.060;60;000.648;MIDI 01
199.035;000.051;44;000.586;MIDI 01
199.024;000.064;56;000.734;MIDI 01
199.115;000.045;72;000.617;MIDI 01
199.196;000.044;59;000.680;MIDI 01
199.201;000.061;61;000.680;MIDI 01
199.171;000.094;71;000.289;MIDI 01
199.194;000.085;47;000.672;MIDI 01
199.240;000.048;67;000.336;MIDI 01
199.292;000.057;71;000.102;MIDI 01
199.287;000.064;73;000.625;MIDI 01
199.377;000.061;60;000.633;MIDI 01
199.365;000.096;48;000.672;MIDI 01
199.465;000.069;72;000.625;MIDI 01
199.488;000.051;71;000.461;MIDI 01
199.551;000.096;49;000.664;MIDI 01
199.554;000.095;61;000.672;MIDI 01
199.491;000.241;67;000.195;MIDI 01
199.666;000.071;73;000.578;MIDI 01
199.743;000.088;52;000.688;MIDI 01
199.752;000.080;60;000.602;MIDI 01
199.851;000.100;72;000.562;MIDI 01
199.901;000.054;71;000.273;MIDI 01
199.979;000.079;61;000.633;MIDI 01
199.990;000.112;68;000.430;MIDI 01
199.984;000.152;53;000.602;MIDI 01
200.091;000.075;73;000.578;MIDI 01
199.992;000.181;41;000.609;MIDI 01
200.181;000.061;60;000.609;MIDI 01
200.278;000.065;72;000.617;MIDI 01
200.339;000.043;71;000.336;MIDI 01
200.364;000.084;61;000.680;MIDI 01
200.390;000.105;67;000.227;MIDI 01
200.461;000.079;73;000.641;MIDI 01
200.568;000.065;60;000.648;MIDI 01
200.626;000.046;68;000.250;MIDI 01
200.664;000.060;72;000.586;MIDI 01
200.713;000.035;71;000.359;MIDI 01
200.578;000.192;54;000.750;MIDI 01
200.755;000.067;61;000.695;MIDI 01
200.869;000.053;73;000.547;MIDI 01
200.597;000.336;69;000.414;MIDI 01
200.896;000.049;71;000.180;MIDI 01
200.583;000.370;42;000.664;MIDI 01
200.933;000.064;62;000.633;MIDI 01
201.034;000.080;74;000.656;MIDI 01
201.144;000.075;63;000.695;MIDI 01
201.154;000.118;73;000.586;MIDI 01
201.142;000.183;43;000.719;MIDI 01
201.260;000.070;75;000.648;MIDI 01
201.140;000.211;55;000.766;MIDI 01
201.348;000.068;46;000.070;MIDI 01
201.358;000.062;64;000.625;MIDI 01
201.363;000.099;73;000.516;MIDI 01
201.458;000.070;76;000.656;MIDI 01
201.552;000.065;65;000.625;MIDI 01
201.559;000.088;73;000.562;MIDI 01
201.557;000.109;56;000.672;MIDI 01
201.562;000.106;44;000.602;MIDI 01
201.646;000.082;77;000.672;MIDI 01
201.757;000.065;66;000.672;MIDI 01
201.766;000.065;57;000.688;MIDI 01
201.774;000.075;45;000.672;MIDI 01
201.759;000.095;73;000.648;MIDI 01
201.866;000.104;78;000.680;MIDI 01
201.946;000.076;68;000.664;MIDI 01
201.988;000.045;73;000.594;MIDI 01
201.984;000.070;56;000.656;MIDI 01
201.990;000.080;44;000.711;MIDI 01
202.041;000.048;54;000.219;MIDI 01
202.074;000.040;80;000.578;MIDI 01
202.150;000.061;69;000.633;MIDI 01
202.184;000.045;54;000.695;MIDI 01
202.195;000.036;42;000.633;MIDI 01
202.152;000.081;73;000.656;MIDI 01
202.252;000.036;81;000.664;MIDI 01
202.371;000.024;73;000.805;MIDI 01
202.378;000.027;37;000.680;MIDI 01
202.367;000.047;49;000.742;MIDI 01
202.373;000.043;85;000.781;MIDI 01
202.578;000.091;49;000.664;MIDI 01
202.677;000.069;61;000.625;MIDI 01
202.791;000.054;48;000.641;MIDI 01
202.863;000.069;60;000.602;MIDI 01
202.974;000.094;49;000.648;MIDI 01
203.059;000.046;61;000.656;MIDI 01
203.164;000.079;48;000.664;MIDI 01
203.209;000.070;72;000.617;MIDI 01
203.206;000.076;84;000.641;MIDI 01
203.247;000.062;60;000.594;MIDI 01
203.415;000.059;61;000.758;MIDI 01
203.365;000.120;49;000.688;MIDI 01
203.395;000.094;73;000.695;MIDI 01
203.404;000.120;85;000.656;MIDI 01
203.586;000.030;38;000.703;MIDI 01
203.589;000.030;50;000.664;MIDI 01
203.591;000.030;48;000.633;MIDI 01
203.597;000.032;74;000.562;MIDI 01
203.616;000.035;78;000.359;MIDI 01
203.584;000.071;86;000.719;MIDI 01
203.644;000.042;76;000.266;MIDI 01
203.746;000.077;49;000.672;MIDI 01
203.780;000.054;51;000.453;MIDI 01
203.774;000.066;78;000.641;MIDI 01
203.785;000.071;90;000.688;MIDI 01
203.834;000.062;61;000.594;MIDI 01
203.940;000.057;48;000.727;MIDI 01
203.984;000.021;93;000.531;MIDI 01
203.967;000.048;83;000.633;MIDI 01
203.972;000.047;95;000.633;MIDI 01
204.015;000.061;60;000.578;MIDI 01
204.019;000.099;55;000.375;MIDI 01
204.158;000.039;84;000.617;MIDI 01
204.110;000.092;49;000.734;MIDI 01
204.148;000.060;96;000.742;MIDI 01
204.183;000.049;53;000.164;MIDI 01
204.192;000.069;61;000.719;MIDI 01
204.302;000.069;48;000.695;MIDI 01
204.331;000.066;85;000.664;MIDI 01
204.333;000.085;97;000.719;MIDI 01
204.381;000.054;60;000.633;MIDI 01
204.501;000.029;96;000.625;MIDI 01
204.507;000.041;86;000.820;MIDI 01
204.530;000.048;61;000.781;MIDI 01
204.497;000.119;49;000.695;MIDI 01
204.597;000.059;51;000.125;MIDI 01
204.705;000.025;55;000.758;MIDI 01
204.711;000.025;49;000.703;MIDI 01
204.714;000.045;61;000.688;MIDI 01
204.724;000.039;39;000.578;MIDI 01
204.736;000.031;50;000.492;MIDI 01
204.709;000.068;63;000.766;MIDI 01
204.827;000.042;55;000.188;MIDI 01
204.868;000.094;49;000.047;MIDI 01
204.955;000.075;61;000.664;MIDI 01
205.076;000.061;48;000.617;MIDI 01
205.149;000.064;60;000.625;MIDI 01
205.254;000.095;49;000.680;MIDI 01
205.333;000.060;61;000.648;MIDI 01
205.443;000.072;48;000.672;MIDI 01
205.480;000.057;74;000.617;MIDI 01
205.478;000.072;86;000.633;MIDI 01
205.526;000.060;60;000.633;MIDI 01
205.681;000.054;61;000.742;MIDI 01
205.659;000.079;75;000.672;MIDI 01
205.640;000.104;49;000.680;MIDI 01
205.662;000.105;87;000.648;MIDI 01
205.735;000.066;51;000.039;MIDI 01
205.841;000.025;80;000.680;MIDI 01
205.849;000.025;40;000.680;MIDI 01
205.847;000.029;52;000.680;MIDI 01
205.843;000.035;76;000.594;MIDI 01
205.853;000.026;50;000.594;MIDI 01
205.845;000.056;88;000.773;MIDI 01
205.901;000.060;38;000.102;MIDI 01
206.015;000.069;80;000.523;MIDI 01
206.000;000.096;49;000.703;MIDI 01
206.066;000.032;90;000.375;MIDI 01
206.025;000.078;92;000.703;MIDI 01
206.113;000.048;61;000.641;MIDI 01
206.205;000.055;48;000.664;MIDI 01
206.210;000.057;95;000.719;MIDI 01
206.215;000.057;83;000.656;MIDI 01
206.177;000.116;56;000.141;MIDI 01
206.286;000.048;60;000.586;MIDI 01
206.279;000.129;55;000.258;MIDI 01
206.399;000.048;84;000.742;MIDI 01
206.401;000.051;96;000.781;MIDI 01
206.377;000.105;49;000.734;MIDI 01
206.456;000.055;51;000.172;MIDI 01
206.476;000.055;53;000.148;MIDI 01
206.469;000.065;61;000.688;MIDI 01
206.573;000.062;85;000.727;MIDI 01
206.571;000.071;48;000.703;MIDI 01
206.576;000.090;97;000.773;MIDI 01
206.651;000.069;60;000.625;MIDI 01
206.777;000.018;100;000.555;MIDI 01
206.762;000.034;88;000.742;MIDI 01
206.816;000.002;89;000.227;MIDI 01
206.826;000.058;61;000.695;MIDI 01
206.769;000.141;49;000.695;MIDI 01
207.077;000.036;53;000.641;MIDI 01
207.091;000.039;41;000.547;MIDI 01
207.105;000.102;68;000.570;MIDI 01
207.104;000.120;65;000.562;MIDI 01
207.100;000.159;77;000.617;MIDI 01
207.111;000.172;73;000.555;MIDI 01
207.295;000.030;62;000.641;MIDI 01
207.309;000.025;50;000.508;MIDI 01
207.452;000.039;61;000.750;MIDI 01
207.460;000.070;49;000.578;MIDI 01
207.656;000.029;54;000.672;MIDI 01
207.674;000.032;42;000.539;MIDI 01
207.653;000.066;69;000.641;MIDI 01
207.684;000.040;44;000.414;MIDI 01
207.655;000.107;66;000.688;MIDI 01
207.660;000.124;73;000.641;MIDI 01
207.658;000.160;78;000.688;MIDI 01
207.850;000.028;60;000.633;MIDI 01
207.857;000.034;48;000.609;MIDI 01
208.008;000.046;61;000.773;MIDI 01
208.014;000.075;49;000.648;MIDI 01
208.202;000.027;55;000.750;MIDI 01
208.216;000.029;43;000.578;MIDI 01
208.209;000.131;67;000.703;MIDI 01
208.211;000.161;79;000.734;MIDI 01
208.205;000.191;73;000.766;MIDI 01
208.384;000.042;63;000.641;MIDI 01
208.390;000.045;51;000.625;MIDI 01
208.414;000.032;61;000.414;MIDI 01
208.545;000.052;64;000.703;MIDI 01
208.554;000.064;52;000.664;MIDI 01
208.733;000.026;56;000.742;MIDI 01
208.744;000.033;44;000.602;MIDI 01
208.772;000.035;46;000.398;MIDI 01
208.731;000.113;73;000.719;MIDI 01
208.734;000.117;68;000.688;MIDI 01
208.736;000.173;80;000.727;MIDI 01
208.923;000.032;64;000.641;MIDI 01
208.944;000.028;62;000.438;MIDI 01
208.942;000.037;52;000.508;MIDI 01
209.085;000.046;65;000.664;MIDI 01
209.090;000.092;53;000.664;MIDI 01
209.297;000.031;57;000.664;MIDI 01
209.305;000.027;45;000.617;MIDI 01
209.293;000.089;72;000.578;MIDI 01
209.303;000.091;81;000.617;MIDI 01
209.295;000.111;69;000.633;MIDI 01
209.299;000.118;75;000.609;MIDI 01
209.301;000.132;78;000.609;MIDI 01
209.495;000.027;66;000.680;MIDI 01
209.506;000.034;54;000.594;MIDI 01
209.684;000.029;56;000.688;MIDI 01
209.647;000.084;73;000.422;MIDI 01
209.703;000.033;46;000.516;MIDI 01
209.667;000.128;76;000.641;MIDI 01
209.675;000.125;79;000.617;MIDI 01
209.673;000.148;70;000.742;MIDI 01
209.671;000.173;82;000.758;MIDI 01
209.811;000.039;56;000.156;MIDI 01
209.885;000.029;65;000.664;MIDI 01
209.908;000.026;53;000.516;MIDI 01
209.907;000.039;55;000.523;MIDI 01
210.091;000.032;59;000.758;MIDI 01
210.095;000.032;47;000.656;MIDI 01
210.080;000.211;74;000.727;MIDI 01
210.085;000.253;77;000.664;MIDI 01
210.324;000.025;68;000.773;MIDI 01
210.328;000.037;56;000.727;MIDI 01
210.082;000.292;71;000.750;MIDI 01
210.083;000.309;80;000.711;MIDI 01
210.093;000.343;83;000.711;MIDI 01
210.860;000.092;60;000.688;MIDI 01
210.857;000.121;48;000.680;MIDI 01
210.865;000.119;72;000.719;MIDI 01
210.867;000.131;84;000.719;MIDI 01
211.141;000.099;49;000.672;MIDI 01
211.143;000.122;73;000.789;MIDI 01
211.136;000.136;61;000.734;MIDI 01
211.139;000.162;85;000.781;MIDI 01
211.500;000.081;62;000.781;MIDI 01
211.502;000.100;86;000.797;MIDI 01
211.505;000.118;74;000.797;MIDI 01
211.504;000.124;50;000.711;MIDI 01
212.434;000.084;26;000.664;MIDI 01
212.429;000.257;50;000.797;MIDI 01
212.433;000.283;62;000.734;MIDI 01
212.431;000.329;38;000.703;MIDI 01
212.748;000.186;53;000.648;MIDI 01
212.736;000.199;41;000.648;MIDI 01
212.920;000.155;44;000.664;MIDI 01
212.907;000.189;56;000.641;MIDI 01
213.054;000.076;59;000.641;MIDI 01
213.067;000.099;47;000.672;MIDI 01
213.198;000.073;50;000.609;MIDI 01
213.203;000.152;62;000.672;MIDI 01
213.329;000.116;53;000.594;MIDI 01
213.322;000.160;65;000.672;MIDI 01
213.434;000.077;56;000.625;MIDI 01
213.435;000.098;68;000.617;MIDI 01
213.528;000.028;71;000.578;MIDI 01
213.518;000.044;59;000.383;MIDI 01
213.580;000.090;62;000.578;MIDI 01
213.693;000.029;65;000.336;MIDI 01
213.631;000.114;74;000.680;MIDI 01
213.718;000.103;68;000.625;MIDI 01
213.710;000.117;77;000.641;MIDI 01
213.797;000.067;80;000.609;MIDI 01
213.814;000.057;71;000.680;MIDI 01
213.844;000.122;83;000.562;MIDI 01
213.919;000.105;86;000.781;MIDI 01
213.920;000.111;74;000.672;MIDI 01
214.075;000.060;73;000.633;MIDI 01
214.192;000.033;72;000.664;MIDI 01
214.198;000.031;84;000.594;MIDI 01
214.276;000.050;71;000.578;MIDI 01
214.364;000.036;82;000.578;MIDI 01
214.353;000.061;70;000.656;MIDI 01
214.463;000.030;69;000.602;MIDI 01
214.537;000.030;80;000.594;MIDI 01
214.529;000.041;68;000.648;MIDI 01
214.633;000.029;67;000.602;MIDI 01
214.701;000.031;78;000.570;MIDI 01
214.689;000.048;66;000.633;MIDI 01
214.765;000.044;65;000.688;MIDI 01
214.849;000.035;76;000.664;MIDI 01
214.836;000.057;64;000.711;MIDI 01
214.946;000.033;63;000.656;MIDI 01
215.018;000.026;74;000.656;MIDI 01
215.008;000.044;62;000.695;MIDI 01
215.072;000.001;64;000.203;MIDI 01
215.098;000.053;61;000.672;MIDI 01
215.157;000.032;60;000.719;MIDI 01
215.146;000.050;74;000.156;MIDI 01
215.159;000.082;72;000.688;MIDI 01
215.234;000.074;59;000.781;MIDI 01
215.643;000.032;65;000.711;MIDI 01
215.653;000.044;89;000.805;MIDI 01
215.651;000.060;77;000.812;MIDI 01
215.650;000.065;53;000.664;MIDI 01
216.298;000.107;29;000.672;MIDI 01
216.292;000.283;65;000.727;MIDI 01
216.294;000.328;41;000.742;MIDI 01
216.297;000.357;53;000.734;MIDI 01
216.596;000.189;44;000.648;MIDI 01
216.606;000.220;56;000.625;MIDI 01
216.770;000.120;59;000.586;MIDI 01
216.760;000.154;47;000.625;MIDI 01
216.874;000.078;62;000.609;MIDI 01
216.890;000.070;50;000.625;MIDI 01
217.010;000.119;53;000.586;MIDI 01
217.029;000.145;65;000.594;MIDI 01
217.129;000.132;68;000.641;MIDI 01
217.113;000.152;56;000.617;MIDI 01
217.242;000.032;59;000.539;MIDI 01
217.221;000.066;71;000.547;MIDI 01
217.278;000.034;62;000.453;MIDI 01
217.292;000.033;60;000.398;MIDI 01
217.280;000.048;74;000.625;MIDI 01
217.339;000.073;65;000.602;MIDI 01
217.429;000.020;68;000.508;MIDI 01
217.395;000.105;77;000.641;MIDI 01
217.469;000.066;71;000.555;MIDI 01
217.460;000.107;80;000.656;MIDI 01
217.534;000.038;83;000.547;MIDI 01
217.524;000.056;74;000.688;MIDI 01
217.603;000.029;84;000.406;MIDI 01
217.577;000.097;86;000.586;MIDI 01
217.631;000.070;89;000.711;MIDI 01
217.636;000.083;77;000.602;MIDI 01
217.758;000.061;76;000.648;MIDI 01
217.866;000.043;87;000.672;MIDI 01
217.864;000.055;75;000.648;MIDI 01
217.970;000.030;74;000.578;MIDI 01
218.043;000.033;85;000.578;MIDI 01
218.039;000.041;73;000.648;MIDI 01
218.104;000.032;72;000.633;MIDI 01
218.198;000.034;83;000.641;MIDI 01
218.191;000.044;71;000.648;MIDI 01
218.287;000.030;70;000.664;MIDI 01
218.346;000.035;69;000.695;MIDI 01
218.354;000.029;81;000.648;MIDI 01
218.427;000.034;68;000.648;MIDI 01
218.500;000.033;67;000.703;MIDI 01
218.510;000.027;79;000.633;MIDI 01
218.572;000.051;66;000.664;MIDI 01
218.655;000.027;77;000.672;MIDI 01
218.644;000.051;65;000.719;MIDI 01
218.750;000.036;64;000.742;MIDI 01
218.799;000.030;63;000.633;MIDI 01
218.801;000.056;75;000.672;MIDI 01
218.874;000.055;62;000.789;MIDI 01
218.934;000.034;63;000.086;MIDI 01
219.255;000.026;68;000.688;MIDI 01
219.269;000.029;56;000.625;MIDI 01
219.264;000.043;92;000.828;MIDI 01
219.261;000.056;80;000.844;MIDI 01
219.978;000.089;32;000.680;MIDI 01
219.976;000.143;44;000.766;MIDI 01
219.981;000.208;56;000.805;MIDI 01
219.983;000.223;68;000.711;MIDI 01
220.244;000.172;47;000.641;MIDI 01
220.269;000.149;59;000.625;MIDI 01
220.416;000.059;62;000.633;MIDI 01
220.411;000.066;50;000.594;MIDI 01
220.534;000.144;53;000.547;MIDI 01
220.561;000.159;65;000.609;MIDI 01
220.613;000.129;67;000.258;MIDI 01
220.645;000.161;56;000.664;MIDI 01
220.675;000.142;68;000.641;MIDI 01
220.798;000.026;59;000.492;MIDI 01
220.769;000.069;71;000.586;MIDI 01
220.803;000.036;62;000.586;MIDI 01
220.831;000.054;74;000.602;MIDI 01
220.899;000.046;65;000.578;MIDI 01
220.980;000.068;68;000.500;MIDI 01
220.946;000.116;77;000.656;MIDI 01
221.067;000.037;72;000.586;MIDI 01
221.022;000.101;80;000.641;MIDI 01
221.079;000.057;83;000.555;MIDI 01
221.119;000.074;86;000.664;MIDI 01
221.158;000.058;89;000.672;MIDI 01
221.206;000.021;76;000.523;MIDI 01
221.183;000.050;77;000.602;MIDI 01
221.323;000.043;80;000.656;MIDI 01
221.318;000.068;92;000.727;MIDI 01
221.446;000.036;79;000.609;MIDI 01
221.530;000.033;90;000.578;MIDI 01
221.524;000.042;78;000.594;MIDI 01
221.609;000.035;77;000.688;MIDI 01
221.688;000.045;88;000.664;MIDI 01
221.756;000.062;76;000.062;MIDI 01
221.779;000.042;75;000.703;MIDI 01
221.857;000.050;95;000.773;MIDI 01
221.859;000.051;83;000.664;MIDI 01
221.894;000.032;84;000.375;MIDI 01
221.968;000.030;82;000.656;MIDI 01
222.030;000.032;93;000.703;MIDI 01
222.025;000.045;81;000.656;MIDI 01
222.098;000.002;83;000.172;MIDI 01
222.117;000.053;80;000.672;MIDI 01
222.179;000.018;79;000.586;MIDI 01
222.177;000.052;91;000.695;MIDI 01
222.190;000.069;78;000.070;MIDI 01
222.262;000.034;78;000.547;MIDI 01
222.350;000.029;98;000.711;MIDI 01
222.345;000.057;86;000.719;MIDI 01
222.438;000.029;85;000.711;MIDI 01
222.508;000.031;96;000.727;MIDI 01
222.504;000.050;84;000.719;MIDI 01
222.593;000.021;83;000.711;MIDI 01
222.654;000.029;93;000.688;MIDI 01
222.690;000.033;83;000.320;MIDI 01
222.730;000.045;80;000.734;MIDI 01
222.839;000.017;103;000.570;MIDI 01
222.822;000.035;89;000.727;MIDI 01
222.831;000.028;101;000.617;MIDI 01
222.843;000.026;91;000.469;MIDI 01
222.917;000.047;88;000.727;MIDI 01
222.996;000.027;99;000.672;MIDI 01
222.992;000.035;87;000.719;MIDI 01
223.089;000.026;86;000.664;MIDI 01
223.155;000.039;85;000.648;MIDI 01
223.167;000.029;97;000.578;MIDI 01
223.215;000.040;84;000.680;MIDI 01
223.258;000.032;80;000.359;MIDI 01
223.307;000.035;95;000.703;MIDI 01
223.318;000.030;83;000.602;MIDI 01
223.406;000.019;82;000.531;MIDI 01
223.472;000.026;93;000.648;MIDI 01
223.464;000.035;81;000.617;MIDI 01
223.544;000.026;80;000.648;MIDI 01
223.621;000.027;91;000.648;MIDI 01
223.617;000.032;79;000.617;MIDI 01
223.684;000.034;78;000.664;MIDI 01
223.765;000.027;89;000.664;MIDI 01
223.760;000.034;77;000.664;MIDI 01
223.853;000.026;76;000.664;MIDI 01
223.915;000.035;87;000.680;MIDI 01
223.912;000.049;75;000.648;MIDI 01
223.978;000.046;76;000.195;MIDI 01
224.017;000.020;74;000.594;MIDI 01
224.093;000.024;85;000.523;MIDI 01
224.083;000.035;73;000.594;MIDI 01
224.142;000.027;72;000.664;MIDI 01
224.227;000.027;83;000.648;MIDI 01
224.225;000.031;71;000.641;MIDI 01
224.273;000.042;72;000.305;MIDI 01
224.311;000.027;70;000.664;MIDI 01
224.380;000.019;69;000.695;MIDI 01
224.383;000.028;81;000.625;MIDI 01
224.479;000.023;68;000.500;MIDI 01
224.526;000.031;67;000.711;MIDI 01
224.541;000.021;79;000.578;MIDI 01
224.602;000.037;66;000.617;MIDI 01
224.676;000.034;65;000.688;MIDI 01
224.689;000.030;77;000.594;MIDI 01
224.766;000.029;64;000.648;MIDI 01
224.839;000.022;75;000.617;MIDI 01
224.833;000.033;63;000.625;MIDI 01
224.921;000.028;62;000.633;MIDI 01
224.994;000.034;61;000.625;MIDI 01
224.999;000.032;73;000.570;MIDI 01
225.056;000.034;60;000.688;MIDI 01
225.132;000.023;59;000.703;MIDI 01
225.136;000.028;71;000.672;MIDI 01
225.249;000.025;58;000.531;MIDI 01
225.268;000.042;57;000.680;MIDI 01
225.272;000.053;69;000.641;MIDI 01
225.346;000.051;56;000.719;MIDI 01
225.549;000.045;56;000.398;MIDI 01
225.855;000.046;56;000.422;MIDI 01
225.840;000.064;68;000.352;MIDI 01
226.007;000.041;56;000.383;MIDI 01
226.017;000.040;68;000.320;MIDI 01
226.168;000.043;68;000.398;MIDI 01
226.173;000.040;56;000.383;MIDI 01
226.325;000.040;68;000.406;MIDI 01
226.322;000.046;56;000.492;MIDI 01
226.472;000.047;56;000.523;MIDI 01
226.474;000.046;68;000.430;MIDI 01
226.626;000.045;68;000.477;MIDI 01
226.624;000.051;56;000.531;MIDI 01
226.774;000.037;59;000.492;MIDI 01
226.783;000.032;50;000.430;MIDI 01
226.790;000.032;56;000.375;MIDI 01
226.781;000.045;62;000.461;MIDI 01
226.760;000.071;68;000.523;MIDI 01
226.939;000.033;56;000.453;MIDI 01
227.097;000.052;56;000.500;MIDI 01
227.129;000.088;68;000.289;MIDI 01
227.236;000.036;59;000.477;MIDI 01
227.232;000.044;44;000.445;MIDI 01
227.244;000.035;51;000.398;MIDI 01
227.234;000.056;56;000.586;MIDI 01
227.229;000.068;68;000.477;MIDI 01
227.239;000.066;63;000.531;MIDI 01
227.402;000.043;56;000.586;MIDI 01
227.404;000.046;68;000.516;MIDI 01
227.546;000.044;56;000.484;MIDI 01
227.564;000.039;68;000.422;MIDI 01
227.695;000.031;62;000.555;MIDI 01
227.708;000.026;59;000.492;MIDI 01
227.697;000.040;65;000.562;MIDI 01
227.699;000.040;71;000.602;MIDI 01
227.731;000.042;53;000.289;MIDI 01
227.863;000.035;59;000.508;MIDI 01
227.874;000.035;71;000.547;MIDI 01
228.017;000.036;59;000.484;MIDI 01
228.023;000.036;71;000.453;MIDI 01
228.164;000.044;62;000.547;MIDI 01
228.152;000.077;71;000.609;MIDI 01
228.155;000.082;59;000.539;MIDI 01
228.174;000.066;66;000.547;MIDI 01
228.190;000.173;54;000.492;MIDI 01
228.345;000.045;71;000.523;MIDI 01
228.211;000.180;47;000.344;MIDI 01
228.336;000.059;59;000.578;MIDI 01
228.508;000.036;71;000.500;MIDI 01
228.510;000.044;59;000.523;MIDI 01
228.652;000.044;59;000.578;MIDI 01
228.650;000.049;71;000.516;MIDI 01
228.827;000.025;71;000.461;MIDI 01
228.814;000.041;59;000.562;MIDI 01
228.959;000.048;71;000.484;MIDI 01
228.955;000.059;59;000.516;MIDI 01
229.123;000.046;59;000.523;MIDI 01
229.121;000.050;71;000.492;MIDI 01
229.273;000.051;59;000.523;MIDI 01
229.282;000.044;71;000.438;MIDI 01
229.446;000.028;71;000.438;MIDI 01
229.441;000.036;59;000.500;MIDI 01
229.580;000.049;59;000.547;MIDI 01
229.593;000.039;53;000.461;MIDI 01
229.582;000.051;71;000.531;MIDI 01
229.595;000.046;65;000.523;MIDI 01
229.613;000.040;62;000.328;MIDI 01
229.758;000.025;59;000.500;MIDI 01
229.779;000.034;71;000.320;MIDI 01
229.883;000.050;59;000.578;MIDI 01
229.922;000.027;71;000.414;MIDI 01
230.047;000.042;59;000.586;MIDI 01
230.058;000.031;62;000.414;MIDI 01
230.037;000.059;71;000.594;MIDI 01
230.061;000.036;66;000.484;MIDI 01
230.049;000.052;54;000.500;MIDI 01
230.054;000.050;47;000.453;MIDI 01
230.200;000.033;59;000.602;MIDI 01
230.202;000.038;71;000.547;MIDI 01
230.328;000.044;59;000.547;MIDI 01
230.338;000.039;71;000.555;MIDI 01
230.485;000.043;62;000.562;MIDI 01
230.493;000.036;65;000.508;MIDI 01
230.486;000.045;74;000.625;MIDI 01
230.491;000.045;68;000.578;MIDI 01
230.502;000.061;56;000.562;MIDI 01
230.632;000.040;62;000.602;MIDI 01
230.642;000.039;74;000.547;MIDI 01
230.785;000.040;74;000.523;MIDI 01
230.776;000.060;62;000.609;MIDI 01
230.940;000.030;65;000.523;MIDI 01
230.938;000.057;50;000.492;MIDI 01
230.942;000.054;57;000.539;MIDI 01
230.928;000.071;62;000.562;MIDI 01
230.916;000.084;74;000.609;MIDI 01
230.930;000.072;69;000.602;MIDI 01
231.100;000.049;62;000.617;MIDI 01
231.108;000.048;74;000.547;MIDI 01
231.268;000.033;62;000.570;MIDI 01
231.277;000.026;74;000.492;MIDI 01
231.410;000.045;74;000.555;MIDI 01
231.400;000.057;62;000.516;MIDI 01
231.575;000.035;62;000.523;MIDI 01
231.579;000.036;74;000.531;MIDI 01
231.708;000.049;62;000.539;MIDI 01
231.713;000.048;74;000.562;MIDI 01
231.871;000.031;62;000.555;MIDI 01
231.886;000.025;74;000.461;MIDI 01
232.010;000.039;74;000.570;MIDI 01
232.003;000.048;62;000.547;MIDI 01
232.152;000.039;62;000.609;MIDI 01
232.155;000.041;74;000.594;MIDI 01
232.318;000.032;71;000.555;MIDI 01
232.315;000.039;65;000.609;MIDI 01
232.324;000.039;77;000.586;MIDI 01
232.340;000.028;68;000.406;MIDI 01
232.303;000.077;59;000.578;MIDI 01
232.470;000.038;65;000.547;MIDI 01
232.475;000.039;77;000.500;MIDI 01
232.618;000.035;77;000.492;MIDI 01
232.609;000.067;65;000.594;MIDI 01
232.757;000.039;68;000.547;MIDI 01
232.750;000.061;65;000.422;MIDI 01
232.746;000.070;77;000.586;MIDI 01
232.764;000.054;53;000.508;MIDI 01
232.753;000.074;72;000.562;MIDI 01
232.767;000.068;60;000.570;MIDI 01
232.918;000.035;65;000.547;MIDI 01
232.920;000.040;77;000.539;MIDI 01
233.045;000.039;65;000.523;MIDI 01
233.050;000.057;77;000.547;MIDI 01
233.200;000.037;68;000.602;MIDI 01
233.215;000.034;74;000.539;MIDI 01
233.208;000.044;80;000.672;MIDI 01
233.198;000.058;62;000.531;MIDI 01
233.220;000.039;71;000.531;MIDI 01
233.355;000.042;68;000.547;MIDI 01
233.350;000.070;80;000.617;MIDI 01
233.490;000.037;71;000.430;MIDI 01
233.488;000.050;80;000.555;MIDI 01
233.508;000.040;68;000.523;MIDI 01
233.510;000.040;63;000.531;MIDI 01
233.523;000.033;75;000.516;MIDI 01
233.525;000.034;56;000.375;MIDI 01
233.651;000.032;74;000.641;MIDI 01
233.654;000.032;77;000.586;MIDI 01
233.652;000.039;71;000.547;MIDI 01
233.649;000.044;83;000.641;MIDI 01
233.659;000.043;65;000.594;MIDI 01
233.804;000.033;65;000.516;MIDI 01
233.801;000.040;74;000.555;MIDI 01
233.787;000.056;77;000.344;MIDI 01
233.798;000.050;71;000.562;MIDI 01
233.800;000.050;83;000.633;MIDI 01
233.930;000.031;74;000.641;MIDI 01
233.932;000.034;83;000.609;MIDI 01
233.950;000.020;59;000.531;MIDI 01
233.944;000.028;71;000.578;MIDI 01
233.942;000.035;66;000.617;MIDI 01
233.948;000.031;78;000.633;MIDI 01
234.079;000.036;77;000.633;MIDI 01
234.081;000.041;80;000.633;MIDI 01
234.092;000.036;68;000.578;MIDI 01
234.098;000.032;72;000.422;MIDI 01
234.073;000.059;74;000.492;MIDI 01
234.083;000.051;86;000.656;MIDI 01
234.166;000.055;66;000.016;MIDI 01
234.234;000.034;74;000.555;MIDI 01
234.220;000.052;68;000.523;MIDI 01
234.228;000.046;77;000.562;MIDI 01
234.240;000.040;86;000.523;MIDI 01
234.236;000.046;80;000.555;MIDI 01
234.355;000.056;74;000.609;MIDI 01
234.374;000.049;62;000.547;MIDI 01
234.384;000.041;69;000.508;MIDI 01
234.386;000.041;86;000.492;MIDI 01
234.395;000.036;77;000.516;MIDI 01
234.389;000.058;81;000.586;MIDI 01
234.520;000.043;74;000.578;MIDI 01
234.522;000.047;77;000.609;MIDI 01
234.530;000.041;80;000.641;MIDI 01
234.528;000.045;68;000.477;MIDI 01
234.524;000.050;86;000.602;MIDI 01
234.671;000.039;77;000.602;MIDI 01
234.650;000.062;74;000.633;MIDI 01
234.668;000.049;86;000.609;MIDI 01
234.652;000.068;68;000.594;MIDI 01
234.666;000.058;80;000.695;MIDI 01
234.802;000.040;74;000.648;MIDI 01
234.815;000.034;62;000.562;MIDI 01
234.806;000.045;69;000.617;MIDI 01
234.804;000.057;86;000.625;MIDI 01
234.808;000.057;77;000.656;MIDI 01
234.812;000.055;81;000.664;MIDI 01
234.943;000.067;74;000.703;MIDI 01
234.953;000.059;68;000.641;MIDI 01
234.949;000.066;77;000.633;MIDI 01
234.951;000.065;86;000.633;MIDI 01
234.955;000.062;80;000.703;MIDI 01
235.106;000.044;86;000.617;MIDI 01
235.104;000.048;77;000.633;MIDI 01
235.092;000.067;68;000.633;MIDI 01
235.094;000.067;74;000.648;MIDI 01
235.101;000.069;80;000.672;MIDI 01
235.268;000.043;62;000.477;MIDI 01
235.245;000.085;69;000.602;MIDI 01
235.264;000.088;81;000.664;MIDI 01
235.247;000.117;74;000.586;MIDI 01
235.261;000.105;77;000.625;MIDI 01
235.266;000.107;86;000.594;MIDI 01
235.551;000.083;82;000.523;MIDI 01
235.545;000.095;77;000.555;MIDI 01
235.549;000.111;86;000.562;MIDI 01
235.774;000.040;82;000.469;MIDI 01
235.772;000.045;77;000.445;MIDI 01
235.762;000.067;86;000.445;MIDI 01
235.525;000.371;74;000.547;MIDI 01
235.927;000.058;77;000.445;MIDI 01
235.922;000.074;82;000.516;MIDI 01
235.527;000.479;70;000.539;MIDI 01
235.931;000.078;86;000.500;MIDI 01
236.000;000.036;74;000.594;MIDI 01
236.113;000.038;77;000.586;MIDI 01
236.115;000.037;82;000.562;MIDI 01
236.110;000.062;86;000.539;MIDI 01
236.264;000.045;77;000.523;MIDI 01
236.267;000.046;82;000.555;MIDI 01
236.273;000.054;86;000.461;MIDI 01
236.423;000.033;77;000.578;MIDI 01
236.435;000.036;82;000.578;MIDI 01
236.427;000.047;86;000.594;MIDI 01
236.593;000.036;79;000.555;MIDI 01
236.598;000.033;83;000.422;MIDI 01
236.600;000.033;86;000.508;MIDI 01
236.595;000.054;91;000.555;MIDI 01
236.624;000.035;84;000.328;MIDI 01
236.753;000.027;91;000.508;MIDI 01
236.749;000.039;79;000.484;MIDI 01
236.742;000.048;83;000.570;MIDI 01
236.751;000.040;86;000.539;MIDI 01
236.108;000.772;74;000.742;MIDI 01
236.909;000.039;83;000.562;MIDI 01
236.900;000.051;91;000.492;MIDI 01
236.902;000.053;79;000.500;MIDI 01
236.905;000.054;86;000.531;MIDI 01
236.955;000.037;67;000.578;MIDI 01
237.078;000.045;83;000.562;MIDI 01
237.082;000.043;91;000.523;MIDI 01
237.088;000.042;86;000.539;MIDI 01
237.076;000.067;79;000.633;MIDI 01
237.245;000.047;79;000.469;MIDI 01
237.257;000.036;83;000.500;MIDI 01
237.254;000.044;86;000.469;MIDI 01
237.256;000.049;91;000.477;MIDI 01
237.401;000.047;86;000.523;MIDI 01
237.395;000.055;83;000.500;MIDI 01
237.393;000.059;79;000.547;MIDI 01
237.421;000.052;91;000.180;MIDI 01
237.580;000.024;82;000.422;MIDI 01
237.556;000.052;77;000.633;MIDI 01
237.560;000.060;86;000.586;MIDI 01
237.714;000.047;82;000.531;MIDI 01
237.727;000.034;77;000.492;MIDI 01
237.719;000.050;86;000.523;MIDI 01
237.050;000.786;67;000.656;MIDI 01
237.873;000.049;77;000.438;MIDI 01
237.881;000.043;82;000.570;MIDI 01
237.875;000.067;86;000.602;MIDI 01
237.934;000.039;62;000.602;MIDI 01
238.036;000.060;77;000.570;MIDI 01
238.043;000.056;86;000.609;MIDI 01
238.039;000.066;82;000.602;MIDI 01
238.220;000.032;82;000.461;MIDI 01
238.222;000.039;86;000.500;MIDI 01
238.235;000.029;77;000.352;MIDI 01
238.356;000.036;77;000.531;MIDI 01
238.344;000.057;82;000.547;MIDI 01
238.346;000.070;86;000.641;MIDI 01
238.514;000.058;79;000.641;MIDI 01
238.509;000.068;83;000.586;MIDI 01
238.507;000.077;86;000.617;MIDI 01
238.516;000.082;91;000.625;MIDI 01
238.673;000.042;79;000.531;MIDI 01
238.676;000.044;83;000.523;MIDI 01
238.685;000.037;91;000.312;MIDI 01
238.683;000.043;86;000.508;MIDI 01
238.024;000.717;62;000.641;MIDI 01
238.833;000.051;91;000.555;MIDI 01
238.829;000.064;79;000.539;MIDI 01
238.840;000.055;83;000.586;MIDI 01
238.838;000.062;86;000.570;MIDI 01
238.916;000.040;55;000.594;MIDI 01
239.006;000.044;83;000.531;MIDI 01
239.012;000.043;86;000.492;MIDI 01
239.001;000.056;91;000.562;MIDI 01
239.017;000.043;55;000.680;MIDI 01
238.996;000.068;79;000.562;MIDI 01
239.173;000.032;83;000.516;MIDI 01
239.165;000.044;79;000.492;MIDI 01
239.167;000.048;86;000.438;MIDI 01
239.185;000.031;91;000.422;MIDI 01
239.324;000.040;86;000.539;MIDI 01
239.307;000.064;83;000.461;MIDI 01
239.301;000.082;79;000.539;MIDI 01
239.407;000.034;62;000.570;MIDI 01
239.419;000.030;50;000.469;MIDI 01
239.505;000.055;62;000.688;MIDI 01
239.509;000.055;82;000.539;MIDI 01
239.497;000.070;77;000.586;MIDI 01
239.507;000.080;86;000.367;MIDI 01
239.514;000.089;50;000.602;MIDI 01
239.686;000.042;82;000.539;MIDI 01
239.696;000.048;86;000.477;MIDI 01
239.818;000.059;82;000.516;MIDI 01
239.816;000.064;77;000.125;MIDI 01
239.830;000.060;86;000.586;MIDI 01
239.877;000.034;55;000.594;MIDI 01
239.894;000.034;43;000.469;MIDI 01
239.985;000.034;43;000.594;MIDI 01
239.979;000.060;55;000.727;MIDI 01
240.005;000.041;83;000.586;MIDI 01
240.003;000.046;91;000.617;MIDI 01
239.998;000.066;79;000.625;MIDI 01
240.000;000.069;86;000.656;MIDI 01
240.173;000.032;83;000.555;MIDI 01
240.175;000.033;91;000.523;MIDI 01
240.171;000.045;79;000.500;MIDI 01
240.188;000.035;86;000.492;MIDI 01
240.317;000.031;91;000.406;MIDI 01
240.319;000.059;86;000.531;MIDI 01
240.306;000.077;83;000.523;MIDI 01
240.321;000.065;79;000.516;MIDI 01
240.399;000.027;50;000.523;MIDI 01
240.383;000.046;62;000.703;MIDI 01
240.497;000.048;62;000.719;MIDI 01
240.506;000.046;82;000.562;MIDI 01
240.495;000.065;77;000.633;MIDI 01
240.499;000.071;86;000.625;MIDI 01
240.504;000.073;50;000.695;MIDI 01
240.680;000.029;77;000.484;MIDI 01
240.682;000.040;86;000.555;MIDI 01
240.665;000.065;82;000.617;MIDI 01
240.810;000.070;77;000.516;MIDI 01
240.817;000.076;82;000.531;MIDI 01
240.820;000.086;86;000.594;MIDI 01
240.917;000.031;43;000.562;MIDI 01
240.900;000.051;55;000.688;MIDI 01
241.008;000.074;79;000.617;MIDI 01
241.023;000.064;55;000.664;MIDI 01
241.014;000.075;91;000.586;MIDI 01
241.010;000.086;83;000.594;MIDI 01
241.006;000.101;86;000.602;MIDI 01
241.024;000.097;43;000.695;MIDI 01
241.215;000.053;79;000.617;MIDI 01
241.219;000.054;91;000.641;MIDI 01
241.217;000.060;83;000.609;MIDI 01
241.221;000.065;86;000.570;MIDI 01
241.380;000.110;83;000.594;MIDI 01
241.373;000.130;91;000.648;MIDI 01
241.394;000.111;86;000.539;MIDI 01
241.489;000.042;51;000.609;MIDI 01
241.383;000.154;79;000.586;MIDI 01
241.491;000.049;39;000.664;MIDI 01
241.525;000.040;49;000.359;MIDI 01
241.618;000.158;39;000.750;MIDI 01
241.641;000.161;91;000.695;MIDI 01
241.647;000.172;82;000.602;MIDI 01
241.651;000.171;79;000.562;MIDI 01
241.614;000.221;51;000.742;MIDI 01
241.644;000.213;87;000.648;MIDI 01
241.950;000.085;91;000.633;MIDI 01
241.968;000.072;79;000.570;MIDI 01
241.954;000.094;82;000.570;MIDI 01
241.947;000.107;87;000.578;MIDI 01
242.158;000.088;91;000.625;MIDI 01
242.150;000.099;79;000.562;MIDI 01
242.153;000.139;87;000.578;MIDI 01
242.160;000.134;82;000.539;MIDI 01
242.254;000.044;70;000.719;MIDI 01
242.271;000.030;58;000.547;MIDI 01
242.370;000.058;70;000.750;MIDI 01
242.368;000.085;58;000.719;MIDI 01
242.440;000.040;89;000.305;MIDI 01
242.384;000.102;79;000.680;MIDI 01
242.389;000.100;91;000.648;MIDI 01
242.459;000.050;85;000.211;MIDI 01
242.386;000.130;87;000.625;MIDI 01
242.391;000.146;82;000.555;MIDI 01
242.641;000.041;91;000.516;MIDI 01
242.632;000.077;79;000.586;MIDI 01
242.637;000.082;82;000.523;MIDI 01
242.627;000.094;87;000.625;MIDI 01
242.833;000.027;79;000.469;MIDI 01
242.831;000.047;82;000.492;MIDI 01
242.819;000.061;91;000.578;MIDI 01
242.829;000.072;87;000.555;MIDI 01
242.993;000.051;79;000.562;MIDI 01
243.002;000.044;91;000.578;MIDI 01
243.015;000.040;87;000.531;MIDI 01
243.000;000.060;82;000.586;MIDI 01
243.160;000.027;91;000.523;MIDI 01
243.162;000.033;79;000.539;MIDI 01
243.165;000.046;82;000.523;MIDI 01
243.167;000.046;87;000.562;MIDI 01
243.296;000.071;91;000.617;MIDI 01
243.293;000.079;79;000.570;MIDI 01
243.300;000.083;82;000.594;MIDI 01
243.315;000.076;87;000.609;MIDI 01
243.368;000.031;51;000.586;MIDI 01
243.366;000.036;63;000.617;MIDI 01
243.463;000.056;63;000.742;MIDI 01
243.491;000.040;91;000.609;MIDI 01
243.460;000.082;51;000.688;MIDI 01
243.483;000.072;79;000.633;MIDI 01
243.488;000.090;82;000.594;MIDI 01
243.493;000.090;87;000.562;MIDI 01
243.678;000.037;79;000.562;MIDI 01
243.685;000.035;91;000.422;MIDI 01
243.689;000.049;87;000.477;MIDI 01
243.676;000.071;82;000.531;MIDI 01
243.833;000.041;79;000.562;MIDI 01
243.836;000.040;91;000.562;MIDI 01
243.857;000.033;87;000.555;MIDI 01
243.839;000.054;82;000.555;MIDI 01
243.986;000.035;79;000.578;MIDI 01
243.994;000.030;91;000.539;MIDI 01
243.998;000.036;82;000.562;MIDI 01
243.984;000.072;87;000.531;MIDI 01
244.144;000.035;79;000.555;MIDI 01
244.150;000.037;91;000.438;MIDI 01
244.154;000.040;87;000.531;MIDI 01
244.136;000.067;82;000.547;MIDI 01
244.291;000.032;91;000.562;MIDI 01
244.284;000.053;79;000.539;MIDI 01
244.293;000.055;82;000.508;MIDI 01
244.289;000.072;87;000.547;MIDI 01
244.355;000.031;58;000.555;MIDI 01
244.386;000.047;46;000.297;MIDI 01
244.444;000.053;58;000.727;MIDI 01
244.461;000.044;79;000.578;MIDI 01
244.483;000.033;91;000.375;MIDI 01
244.438;000.098;46;000.391;MIDI 01
244.473;000.065;87;000.531;MIDI 01
244.468;000.072;82;000.578;MIDI 01
244.501;000.043;89;000.266;MIDI 01
244.648;000.024;91;000.469;MIDI 01
244.650;000.024;79;000.422;MIDI 01
244.646;000.042;82;000.516;MIDI 01
244.658;000.042;87;000.492;MIDI 01
244.793;000.046;79;000.430;MIDI 01
244.794;000.051;91;000.508;MIDI 01
244.800;000.054;82;000.531;MIDI 01
244.830;000.036;81;000.289;MIDI 01
244.796;000.077;87;000.570;MIDI 01
244.886;000.029;51;000.602;MIDI 01
244.901;000.033;39;000.523;MIDI 01
244.980;000.036;79;000.555;MIDI 01
244.993;000.026;91;000.531;MIDI 01
244.983;000.042;82;000.609;MIDI 01
244.992;000.046;87;000.570;MIDI 01
244.985;000.150;51;000.742;MIDI 01
244.988;000.150;39;000.633;MIDI 01
245.148;000.037;79;000.539;MIDI 01
245.152;000.046;91;000.523;MIDI 01
245.150;000.066;82;000.586;MIDI 01
245.154;000.072;87;000.648;MIDI 01
245.310;000.067;91;000.547;MIDI 01
245.301;000.078;79;000.516;MIDI 01
245.312;000.080;82;000.570;MIDI 01
245.315;000.090;87;000.578;MIDI 01
245.377;000.029;38;000.555;MIDI 01
245.370;000.039;50;000.602;MIDI 01
245.483;000.069;50;000.766;MIDI 01
245.497;000.060;79;000.656;MIDI 01
245.499;000.061;91;000.641;MIDI 01
245.481;000.085;38;000.719;MIDI 01
245.502;000.073;82;000.594;MIDI 01
245.504;000.079;87;000.570;MIDI 01
245.672;000.039;91;000.641;MIDI 01
245.674;000.040;79;000.578;MIDI 01
245.669;000.065;82;000.586;MIDI 01
245.667;000.078;87;000.594;MIDI 01
245.829;000.066;91;000.602;MIDI 01
245.827;000.070;82;000.578;MIDI 01
245.822;000.080;79;000.547;MIDI 01
245.902;000.040;49;000.672;MIDI 01
245.831;000.116;87;000.578;MIDI 01
245.907;000.044;37;000.648;MIDI 01
246.136;000.002;90;000.133;MIDI 01
246.081;000.121;80;000.633;MIDI 01
246.072;000.145;92;000.742;MIDI 01
246.079;000.158;85;000.617;MIDI 01
246.030;000.226;37;000.703;MIDI 01
246.086;000.173;89;000.562;MIDI 01
246.032;000.283;49;000.750;MIDI 01
246.342;000.091;80;000.648;MIDI 01
246.348;000.100;92;000.656;MIDI 01
246.354;000.106;85;000.594;MIDI 01
246.346;000.126;89;000.531;MIDI 01
246.548;000.102;80;000.625;MIDI 01
246.546;000.109;92;000.664;MIDI 01
246.625;000.033;73;000.680;MIDI 01
246.644;000.027;61;000.516;MIDI 01
246.554;000.141;85;000.555;MIDI 01
246.552;000.145;89;000.500;MIDI 01
246.734;000.062;73;000.789;MIDI 01
246.748;000.099;61;000.773;MIDI 01
246.770;000.102;80;000.711;MIDI 01
246.772;000.126;92;000.719;MIDI 01
246.779;000.126;85;000.508;MIDI 01
246.776;000.148;89;000.531;MIDI 01
247.006;000.064;80;000.633;MIDI 01
247.032;000.054;85;000.492;MIDI 01
247.015;000.077;92;000.594;MIDI 01
247.030;000.069;89;000.383;MIDI 01
247.056;000.049;90;000.180;MIDI 01
247.185;000.035;80;000.617;MIDI 01
247.199;000.044;85;000.547;MIDI 01
247.179;000.066;92;000.641;MIDI 01
247.204;000.055;89;000.539;MIDI 01
247.353;000.032;80;000.586;MIDI 01
247.350;000.044;92;000.664;MIDI 01
247.357;000.044;85;000.570;MIDI 01
247.366;000.040;89;000.578;MIDI 01
247.510;000.042;80;000.594;MIDI 01
247.514;000.048;92;000.555;MIDI 01
247.519;000.047;85;000.586;MIDI 01
247.511;000.075;89;000.609;MIDI 01
247.668;000.044;92;000.594;MIDI 01
247.668;000.048;80;000.586;MIDI 01
247.679;000.057;85;000.570;MIDI 01
247.709;000.029;68;000.602;MIDI 01
247.715;000.028;56;000.555;MIDI 01
247.672;000.077;89;000.516;MIDI 01
247.800;000.064;68;000.680;MIDI 01
247.827;000.067;80;000.719;MIDI 01
247.806;000.089;56;000.703;MIDI 01
247.825;000.090;92;000.672;MIDI 01
247.843;000.084;85;000.586;MIDI 01
247.840;000.099;89;000.539;MIDI 01
248.026;000.056;80;000.625;MIDI 01
248.040;000.067;85;000.516;MIDI 01
248.029;000.078;92;000.617;MIDI 01
248.035;000.093;89;000.484;MIDI 01
248.205;000.041;80;000.617;MIDI 01
248.214;000.050;92;000.570;MIDI 01
248.225;000.044;85;000.523;MIDI 01
248.216;000.079;89;000.508;MIDI 01
248.373;000.043;80;000.609;MIDI 01
248.377;000.043;92;000.602;MIDI 01
248.383;000.053;89;000.531;MIDI 01
248.375;000.064;85;000.531;MIDI 01
248.540;000.036;80;000.539;MIDI 01
248.528;000.060;92;000.609;MIDI 01
248.550;000.041;85;000.508;MIDI 01
248.552;000.042;89;000.516;MIDI 01
248.689;000.047;80;000.547;MIDI 01
248.698;000.073;85;000.516;MIDI 01
248.690;000.083;92;000.625;MIDI 01
248.700;000.079;89;000.562;MIDI 01
248.755;000.030;61;000.578;MIDI 01
248.771;000.028;49;000.445;MIDI 01
248.851;000.055;61;000.680;MIDI 01
248.870;000.048;49;000.609;MIDI 01
248.872;000.059;80;000.633;MIDI 01
248.906;000.045;85;000.461;MIDI 01
248.884;000.069;92;000.562;MIDI 01
248.901;000.054;89;000.469;MIDI 01
249.054;000.061;80;000.609;MIDI 01
249.064;000.076;85;000.516;MIDI 01
249.056;000.084;92;000.633;MIDI 01
249.061;000.090;89;000.547;MIDI 01
249.241;000.049;92;000.539;MIDI 01
249.239;000.053;80;000.570;MIDI 01
249.261;000.044;85;000.469;MIDI 01
249.251;000.056;89;000.453;MIDI 01
249.274;000.035;56;000.586;MIDI 01
249.295;000.031;44;000.461;MIDI 01
249.369;000.056;56;000.680;MIDI 01
249.397;000.052;80;000.617;MIDI 01
249.372;000.089;44;000.617;MIDI 01
249.419;000.044;89;000.523;MIDI 01
249.400;000.073;85;000.555;MIDI 01
249.387;000.089;92;000.633;MIDI 01
249.557;000.042;80;000.594;MIDI 01
249.567;000.047;85;000.508;MIDI 01
249.553;000.062;92;000.602;MIDI 01
249.564;000.068;89;000.586;MIDI 01
249.713;000.061;80;000.586;MIDI 01
249.709;000.067;92;000.625;MIDI 01
249.718;000.079;85;000.562;MIDI 01
249.719;000.082;89;000.523;MIDI 01
249.790;000.028;49;000.625;MIDI 01
249.809;000.054;37;000.438;MIDI 01
249.878;000.064;49;000.703;MIDI 01
249.880;000.064;80;000.664;MIDI 01
249.882;000.077;92;000.711;MIDI 01
249.886;000.079;85;000.562;MIDI 01
249.884;000.083;37;000.555;MIDI 01
249.890;000.080;89;000.508;MIDI 01
250.053;000.046;92;000.570;MIDI 01
250.047;000.062;80;000.641;MIDI 01
250.049;000.074;85;000.531;MIDI 01
250.052;000.074;89;000.516;MIDI 01
250.217;000.040;80;000.578;MIDI 01
250.204;000.075;92;000.648;MIDI 01
250.214;000.075;85;000.555;MIDI 01
250.219;000.078;89;000.531;MIDI 01
250.293;000.035;50;000.672;MIDI 01
250.302;000.029;38;000.633;MIDI 01
250.379;000.066;80;000.672;MIDI 01
250.401;000.053;50;000.711;MIDI 01
250.399;000.060;38;000.703;MIDI 01
250.386;000.077;92;000.703;MIDI 01
250.391;000.085;85;000.602;MIDI 01
250.393;000.088;89;000.555;MIDI 01
250.565;000.069;80;000.703;MIDI 01
250.570;000.070;92;000.703;MIDI 01
250.579;000.075;85;000.570;MIDI 01
250.560;000.106;90;000.742;MIDI 01
250.787;000.036;85;000.328;MIDI 01
250.750;000.076;80;000.703;MIDI 01
250.796;000.032;90;000.406;MIDI 01
250.756;000.082;92;000.641;MIDI 01
250.766;000.092;89;000.531;MIDI 01
250.843;000.026;37;000.625;MIDI 01
250.832;000.039;49;000.727;MIDI 01
250.944;000.079;80;000.734;MIDI 01
250.950;000.092;85;000.609;MIDI 01
250.993;000.051;90;000.211;MIDI 01
250.946;000.100;92;000.727;MIDI 01
250.931;000.119;49;000.773;MIDI 01
250.929;000.123;37;000.680;MIDI 01
250.948;000.113;89;000.625;MIDI 01
251.151;000.027;90;000.492;MIDI 01
251.129;000.067;80;000.719;MIDI 01
251.127;000.089;92;000.719;MIDI 01
251.135;000.084;85;000.594;MIDI 01
251.134;000.101;89;000.562;MIDI 01
251.359;000.037;51;000.711;MIDI 01
251.376;000.028;39;000.609;MIDI 01
251.310;000.096;80;000.711;MIDI 01
251.318;000.108;89;000.516;MIDI 01
251.307;000.121;92;000.742;MIDI 01
251.327;000.111;85;000.547;MIDI 01
251.510;000.092;93;000.773;MIDI 01
251.512;000.095;81;000.703;MIDI 01
251.509;000.139;85;000.617;MIDI 01
251.515;000.146;88;000.719;MIDI 01
251.486;000.242;51;000.789;MIDI 01
251.484;000.291;39;000.703;MIDI 01
251.728;000.078;81;000.734;MIDI 01
251.732;000.088;93;000.680;MIDI 01
251.782;000.040;91;000.273;MIDI 01
251.725;000.116;85;000.656;MIDI 01
251.726;000.128;88;000.609;MIDI 01
251.922;000.111;81;000.742;MIDI 01
251.924;000.115;93;000.758;MIDI 01
252.033;000.034;49;000.719;MIDI 01
251.920;000.165;85;000.656;MIDI 01
252.054;000.039;37;000.570;MIDI 01
251.918;000.184;88;000.617;MIDI 01
252.091;000.050;39;000.203;MIDI 01
252.149;000.080;49;000.789;MIDI 01
252.158;000.084;37;000.719;MIDI 01
252.226;000.051;36;000.219;MIDI 01
252.173;000.113;81;000.773;MIDI 01
252.175;000.119;93;000.773;MIDI 01
252.179;000.156;85;000.664;MIDI 01
252.178;000.195;88;000.625;MIDI 01
252.470;000.073;86;000.469;MIDI 01
252.436;000.115;93;000.766;MIDI 01
252.472;000.085;85;000.391;MIDI 01
252.433;000.126;81;000.766;MIDI 01
252.434;000.182;88;000.586;MIDI 01
252.678;000.120;81;000.773;MIDI 01
252.676;000.136;93;000.742;MIDI 01
252.680;000.181;85;000.656;MIDI 01
252.670;000.231;88;000.547;MIDI 01
252.827;000.105;42;000.703;MIDI 01
252.829;000.147;30;000.711;MIDI 01
253.220;000.001;89;000.359;MIDI 01
253.224;000.002;86;000.312;MIDI 01
253.200;000.026;92;000.516;MIDI 01
253.171;000.065;30;000.727;MIDI 01
253.233;000.002;84;000.211;MIDI 01
253.169;000.097;42;000.789;MIDI 01
253.180;000.259;90;000.750;MIDI 01
253.176;000.269;82;000.742;MIDI 01
253.172;000.275;94;000.797;MIDI 01
253.610;000.045;70;000.578;MIDI 01
253.620;000.068;58;000.531;MIDI 01
253.174;000.590;85;000.750;MIDI 01
253.835;000.042;78;000.594;MIDI 01
253.846;000.037;66;000.555;MIDI 01
253.847;000.043;90;000.516;MIDI 01
253.863;000.039;54;000.508;MIDI 01
254.028;000.029;75;000.586;MIDI 01
254.026;000.033;63;000.547;MIDI 01
254.030;000.033;87;000.570;MIDI 01
254.037;000.031;51;000.523;MIDI 01
254.175;000.033;85;000.594;MIDI 01
254.178;000.032;73;000.617;MIDI 01
254.186;000.028;49;000.547;MIDI 01
254.181;000.035;61;000.531;MIDI 01
254.312;000.035;58;000.617;MIDI 01
254.329;000.024;82;000.633;MIDI 01
254.325;000.030;46;000.508;MIDI 01
254.327;000.030;70;000.664;MIDI 01
254.452;000.030;44;000.617;MIDI 01
254.447;000.037;56;000.633;MIDI 01
254.466;000.028;80;000.617;MIDI 01
254.461;000.034;68;000.680;MIDI 01
254.585;000.030;54;000.648;MIDI 01
254.603;000.019;78;000.562;MIDI 01
254.595;000.029;42;000.570;MIDI 01
254.596;000.030;66;000.664;MIDI 01
254.702;000.035;66;000.266;MIDI 01
254.723;000.026;63;000.688;MIDI 01
254.720;000.031;51;000.703;MIDI 01
254.726;000.027;75;000.664;MIDI 01
254.738;000.032;39;000.547;MIDI 01
254.866;000.028;61;000.688;MIDI 01
254.861;000.034;49;000.695;MIDI 01
254.872;000.033;73;000.602;MIDI 01
254.886;000.032;37;000.461;MIDI 01
255.012;000.017;70;000.648;MIDI 01
255.001;000.046;58;000.695;MIDI 01
254.998;000.054;46;000.742;MIDI 01
255.033;000.039;34;000.414;MIDI 01
255.171;000.026;54;000.641;MIDI 01
255.167;000.040;66;000.727;MIDI 01
255.169;000.040;39;000.594;MIDI 01
255.204;000.035;67;000.570;MIDI 01
255.284;000.034;54;000.219;MIDI 01
255.476;000.032;28;000.688;MIDI 01
255.473;000.059;40;000.812;MIDI 01
255.532;000.043;94;000.352;MIDI 01
255.506;000.226;92;000.766;MIDI 01
255.501;000.260;95;000.773;MIDI 01
255.504;000.266;83;000.820;MIDI 01
255.499;000.295;88;000.797;MIDI 01
255.770;000.054;71;000.656;MIDI 01
255.789;000.040;59;000.492;MIDI 01
255.817;000.036;60;000.328;MIDI 01
255.967;000.034;92;000.625;MIDI 01
255.969;000.034;68;000.570;MIDI 01
255.973;000.034;80;000.555;MIDI 01
255.983;000.030;56;000.492;MIDI 01
256.135;000.037;66;000.625;MIDI 01
256.142;000.033;78;000.562;MIDI 01
256.144;000.034;90;000.578;MIDI 01
256.150;000.039;54;000.516;MIDI 01
256.291;000.030;64;000.586;MIDI 01
256.308;000.022;76;000.492;MIDI 01
256.314;000.022;88;000.492;MIDI 01
256.311;000.045;52;000.430;MIDI 01
256.439;000.023;61;000.562;MIDI 01
256.442;000.024;49;000.562;MIDI 01
256.435;000.034;73;000.602;MIDI 01
256.447;000.034;85;000.453;MIDI 01
256.583;000.022;83;000.492;MIDI 01
256.577;000.031;59;000.656;MIDI 01
256.584;000.026;72;000.477;MIDI 01
256.586;000.026;71;000.500;MIDI 01
256.579;000.035;47;000.602;MIDI 01
256.724;000.020;80;000.547;MIDI 01
256.716;000.031;68;000.680;MIDI 01
256.714;000.035;56;000.609;MIDI 01
256.711;000.040;44;000.641;MIDI 01
256.851;000.039;54;000.648;MIDI 01
256.857;000.034;66;000.648;MIDI 01
256.864;000.032;42;000.609;MIDI 01
256.845;000.053;68;000.086;MIDI 01
256.861;000.043;78;000.594;MIDI 01
256.991;000.031;40;000.641;MIDI 01
256.993;000.031;52;000.633;MIDI 01
257.011;000.021;76;000.508;MIDI 01
257.018;000.025;64;000.523;MIDI 01
257.032;000.031;77;000.383;MIDI 01
257.043;000.043;65;000.250;MIDI 01
257.133;000.031;49;000.641;MIDI 01
257.141;000.039;37;000.594;MIDI 01
257.152;000.037;61;000.633;MIDI 01
257.154;000.038;73;000.539;MIDI 01
257.274;000.034;47;000.664;MIDI 01
257.289;000.026;45;000.508;MIDI 01
257.280;000.043;49;000.023;MIDI 01
257.308;000.040;35;000.383;MIDI 01
257.296;000.087;59;000.562;MIDI 01
257.337;000.054;60;000.195;MIDI 01
257.291;000.168;71;000.672;MIDI 01
257.454;000.019;56;000.609;MIDI 01
257.465;000.025;44;000.477;MIDI 01
257.452;000.147;68;000.586;MIDI 01
257.589;000.035;54;000.672;MIDI 01
257.599;000.040;44;000.500;MIDI 01
257.603;000.038;42;000.547;MIDI 01
257.595;000.168;66;000.648;MIDI 01
257.729;000.050;52;000.672;MIDI 01
257.731;000.070;42;000.609;MIDI 01
257.734;000.121;64;000.664;MIDI 01
257.875;000.069;61;000.719;MIDI 01
257.877;000.105;49;000.688;MIDI 01
258.024;000.026;59;000.711;MIDI 01
258.009;000.043;47;000.633;MIDI 01
258.015;000.040;48;000.562;MIDI 01
258.252;000.043;42;000.188;MIDI 01
258.383;000.029;30;000.711;MIDI 01
258.370;000.054;42;000.836;MIDI 01
258.393;000.186;90;000.727;MIDI 01
258.389;000.195;94;000.797;MIDI 01
258.386;000.200;82;000.766;MIDI 01
258.640;000.039;70;000.641;MIDI 01
258.385;000.298;85;000.672;MIDI 01
258.667;000.029;58;000.461;MIDI 01
258.795;000.032;78;000.664;MIDI 01
258.806;000.030;90;000.578;MIDI 01
258.815;000.034;66;000.531;MIDI 01
258.834;000.026;54;000.422;MIDI 01
258.940;000.027;87;000.719;MIDI 01
258.942;000.034;63;000.609;MIDI 01
258.956;000.027;51;000.539;MIDI 01
258.961;000.023;76;000.500;MIDI 01
259.097;000.028;85;000.641;MIDI 01
259.095;000.032;73;000.672;MIDI 01
259.102;000.034;61;000.641;MIDI 01
259.137;000.030;49;000.359;MIDI 01
259.225;000.031;58;000.680;MIDI 01
259.243;000.028;70;000.672;MIDI 01
259.245;000.046;46;000.586;MIDI 01
259.247;000.059;82;000.680;MIDI 01
259.552;000.048;37;000.672;MIDI 01
259.577;000.034;43;000.500;MIDI 01
259.561;000.067;44;000.523;MIDI 01
259.549;000.081;49;000.703;MIDI 01
259.573;000.246;80;000.727;MIDI 01
259.569;000.258;92;000.852;MIDI 01
259.579;000.269;90;000.766;MIDI 01
259.869;000.043;68;000.586;MIDI 01
259.882;000.045;56;000.492;MIDI 01
259.571;000.385;85;000.711;MIDI 01
260.055;000.039;66;000.609;MIDI 01
260.077;000.033;54;000.484;MIDI 01
260.075;000.038;78;000.602;MIDI 01
260.094;000.021;90;000.492;MIDI 01
260.230;000.035;63;000.570;MIDI 01
260.250;000.029;75;000.594;MIDI 01
260.259;000.022;87;000.539;MIDI 01
260.252;000.031;51;000.453;MIDI 01
260.377;000.033;61;000.648;MIDI 01
260.389;000.032;49;000.578;MIDI 01
260.392;000.031;73;000.672;MIDI 01
260.398;000.030;85;000.617;MIDI 01
260.527;000.034;58;000.633;MIDI 01
260.536;000.027;70;000.648;MIDI 01
260.538;000.028;82;000.594;MIDI 01
260.516;000.052;73;000.148;MIDI 01
260.555;000.033;46;000.414;MIDI 01
260.660;000.030;56;000.680;MIDI 01
260.675;000.024;80;000.648;MIDI 01
260.673;000.028;68;000.633;MIDI 01
260.684;000.035;44;000.461;MIDI 01
260.776;000.032;68;000.281;MIDI 01
260.808;000.026;66;000.656;MIDI 01
260.805;000.033;54;000.641;MIDI 01
260.818;000.023;78;000.562;MIDI 01
260.796;000.049;80;000.133;MIDI 01
260.820;000.027;42;000.547;MIDI 01
260.916;000.042;66;000.258;MIDI 01
260.942;000.029;63;000.656;MIDI 01
260.940;000.033;51;000.664;MIDI 01
260.945;000.032;75;000.664;MIDI 01
260.977;000.041;39;000.375;MIDI 01
261.078;000.027;73;000.680;MIDI 01
261.074;000.033;49;000.680;MIDI 01
261.076;000.035;61;000.703;MIDI 01
261.068;000.054;63;000.125;MIDI 01
261.194;000.041;73;000.211;MIDI 01
261.214;000.029;58;000.703;MIDI 01
261.217;000.028;70;000.680;MIDI 01
261.207;000.046;46;000.680;MIDI 01
261.229;000.064;37;000.211;MIDI 01
261.367;000.033;56;000.578;MIDI 01
261.369;000.035;68;000.625;MIDI 01
261.341;000.070;44;000.711;MIDI 01
261.635;000.042;37;000.648;MIDI 01
261.632;000.066;41;000.477;MIDI 01
261.637;000.080;49;000.688;MIDI 01
261.640;000.093;44;000.680;MIDI 01
261.677;000.178;89;000.703;MIDI 01
261.671;000.211;85;000.742;MIDI 01
261.673;000.214;80;000.734;MIDI 01
261.667;000.222;92;000.836;MIDI 01
261.896;000.034;68;000.578;MIDI 01
261.913;000.035;56;000.492;MIDI 01
262.047;000.031;65;000.656;MIDI 01
262.066;000.024;53;000.523;MIDI 01
262.064;000.029;77;000.609;MIDI 01
262.067;000.028;89;000.633;MIDI 01
262.221;000.033;63;000.648;MIDI 01
262.239;000.018;87;000.578;MIDI 01
262.228;000.030;75;000.625;MIDI 01
262.236;000.026;51;000.555;MIDI 01
262.380;000.020;61;000.633;MIDI 01
262.377;000.031;73;000.664;MIDI 01
262.392;000.023;49;000.555;MIDI 01
262.383;000.033;85;000.570;MIDI 01
262.530;000.029;70;000.680;MIDI 01
262.541;000.021;82;000.531;MIDI 01
262.535;000.036;58;000.617;MIDI 01
262.542;000.033;46;000.602;MIDI 01
262.555;000.030;56;000.484;MIDI 01
262.667;000.027;44;000.648;MIDI 01
262.663;000.033;68;000.680;MIDI 01
262.670;000.028;80;000.578;MIDI 01
262.668;000.032;56;000.625;MIDI 01
262.692;000.029;54;000.438;MIDI 01
262.706;000.040;78;000.266;MIDI 01
262.788;000.037;56;000.164;MIDI 01
262.806;000.023;77;000.680;MIDI 01
262.796;000.040;44;000.141;MIDI 01
262.799;000.039;53;000.641;MIDI 01
262.809;000.032;41;000.570;MIDI 01
262.814;000.032;65;000.562;MIDI 01
262.816;000.032;67;000.469;MIDI 01
262.954;000.019;75;000.578;MIDI 01
262.922;000.053;77;000.195;MIDI 01
262.941;000.036;51;000.680;MIDI 01
262.948;000.031;63;000.609;MIDI 01
263.033;000.053;39;000.023;MIDI 01
263.076;000.031;61;000.688;MIDI 01
263.070;000.041;49;000.664;MIDI 01
263.083;000.029;73;000.609;MIDI 01
263.208;000.031;70;000.703;MIDI 01
263.205;000.044;58;000.719;MIDI 01
263.203;000.054;46;000.695;MIDI 01
263.343;000.049;44;000.719;MIDI 01
263.368;000.031;56;000.562;MIDI 01
263.356;000.058;68;000.711;MIDI 01
263.704;000.103;39;000.688;MIDI 01
263.702;000.115;51;000.742;MIDI 01
263.981;000.035;54;000.562;MIDI 01
264.022;000.002;56;000.289;MIDI 01
263.996;000.040;42;000.438;MIDI 01
264.127;000.031;58;000.703;MIDI 01
264.139;000.026;46;000.594;MIDI 01
263.721;000.473;87;000.711;MIDI 01
263.719;000.558;82;000.711;MIDI 01
264.281;000.036;63;000.773;MIDI 01
264.298;000.030;51;000.523;MIDI 01
263.711;000.648;90;000.789;MIDI 01
263.715;000.659;78;000.727;MIDI 01
264.448;000.048;66;000.789;MIDI 01
264.462;000.045;54;000.625;MIDI 01
264.506;000.047;56;000.289;MIDI 01
264.851;000.058;41;000.695;MIDI 01
264.849;000.074;53;000.734;MIDI 01
265.067;000.028;45;000.664;MIDI 01
265.060;000.047;57;000.648;MIDI 01
265.256;000.028;48;000.641;MIDI 01
265.243;000.053;60;000.750;MIDI 01
265.480;000.029;65;000.680;MIDI 01
265.485;000.032;64;000.578;MIDI 01
265.501;000.032;52;000.516;MIDI 01
265.506;000.033;53;000.477;MIDI 01
264.858;000.795;89;000.742;MIDI 01
264.855;000.805;84;000.719;MIDI 01
264.857;000.864;77;000.758;MIDI 01
265.705;000.050;69;000.773;MIDI 01
265.716;000.065;57;000.711;MIDI 01
264.853;000.938;81;000.727;MIDI 01
266.161;000.071;75;000.703;MIDI 01
266.164;000.079;87;000.727;MIDI 01
266.446;000.002;78;000.406;MIDI 01
266.386;000.089;34;000.695;MIDI 01
266.384;000.125;46;000.789;MIDI 01
266.419;000.193;74;000.648;MIDI 01
266.415;000.255;77;000.648;MIDI 01
266.410;000.276;86;000.727;MIDI 01
266.417;000.309;82;000.664;MIDI 01
266.769;000.052;53;000.281;MIDI 01
266.773;000.057;62;000.453;MIDI 01
266.741;000.091;65;000.531;MIDI 01
266.764;000.073;58;000.453;MIDI 01
266.952;000.065;53;000.484;MIDI 01
266.966;000.058;65;000.484;MIDI 01
266.988;000.039;58;000.453;MIDI 01
266.950;000.086;62;000.523;MIDI 01
267.165;000.032;53;000.453;MIDI 01
267.157;000.043;65;000.516;MIDI 01
267.169;000.040;62;000.523;MIDI 01
267.145;000.072;77;000.602;MIDI 01
267.167;000.054;58;000.383;MIDI 01
267.139;000.100;82;000.641;MIDI 01
267.143;000.115;89;000.680;MIDI 01
267.141;000.128;86;000.664;MIDI 01
267.329;000.044;65;000.555;MIDI 01
267.337;000.046;58;000.531;MIDI 01
267.328;000.057;53;000.492;MIDI 01
267.321;000.068;62;000.547;MIDI 01
267.482;000.046;65;000.578;MIDI 01
267.498;000.038;53;000.492;MIDI 01
267.500;000.048;58;000.484;MIDI 01
267.491;000.061;62;000.586;MIDI 01
267.644;000.053;65;000.602;MIDI 01
267.663;000.039;58;000.492;MIDI 01
267.642;000.065;53;000.562;MIDI 01
267.648;000.065;62;000.602;MIDI 01
267.636;000.079;82;000.727;MIDI 01
267.637;000.096;86;000.680;MIDI 01
267.646;000.096;89;000.609;MIDI 01
267.639;000.141;94;000.742;MIDI 01
267.828;000.046;53;000.562;MIDI 01
267.822;000.067;65;000.648;MIDI 01
267.825;000.065;58;000.461;MIDI 01
267.819;000.073;62;000.648;MIDI 01
267.992;000.070;65;000.680;MIDI 01
267.990;000.083;62;000.680;MIDI 01
267.996;000.082;53;000.602;MIDI 01
268.005;000.082;58;000.609;MIDI 01
268.161;000.070;86;000.742;MIDI 01
268.170;000.070;65;000.695;MIDI 01
268.196;000.052;58;000.516;MIDI 01
268.172;000.078;53;000.594;MIDI 01
268.174;000.083;62;000.672;MIDI 01
268.156;000.107;89;000.734;MIDI 01
268.159;000.158;94;000.727;MIDI 01
268.164;000.165;98;000.750;MIDI 01
268.364;000.072;65;000.672;MIDI 01
268.368;000.071;53;000.586;MIDI 01
268.370;000.098;58;000.547;MIDI 01
268.363;000.107;62;000.648;MIDI 01
268.559;000.051;65;000.734;MIDI 01
268.562;000.059;62;000.672;MIDI 01
268.576;000.081;58;000.648;MIDI 01
268.565;000.114;53;000.672;MIDI 01
268.940;000.078;29;000.711;MIDI 01
268.934;000.111;41;000.695;MIDI 01
269.426;000.080;53;000.500;MIDI 01
269.475;000.043;55;000.320;MIDI 01
269.428;000.092;63;000.555;MIDI 01
269.421;000.111;58;000.586;MIDI 01
269.420;000.115;67;000.602;MIDI 01
269.646;000.069;53;000.539;MIDI 01
269.629;000.113;67;000.695;MIDI 01
269.636;000.118;58;000.609;MIDI 01
269.648;000.108;63;000.617;MIDI 01
268.944;000.949;103;000.781;MIDI 01
269.911;000.002;55;000.281;MIDI 01
269.847;000.084;67;000.742;MIDI 01
268.950;000.988;99;000.734;MIDI 01
269.853;000.086;53;000.617;MIDI 01
268.946;001.006;91;000.781;MIDI 01
269.858;000.139;63;000.625;MIDI 01
268.942;001.076;94;000.750;MIDI 01
269.856;000.163;58;000.633;MIDI 01
270.620;000.154;63;000.672;MIDI 01
270.622;000.304;75;000.656;MIDI 01
271.028;000.111;67;000.680;MIDI 01
271.025;000.157;79;000.734;MIDI 01
271.305;000.151;69;000.719;MIDI 01
271.307;000.254;81;000.781;MIDI 01
271.663;000.345;57;000.547;MIDI 01
271.536;000.663;51;000.570;MIDI 01
271.440;000.922;41;000.555;MIDI 01
271.731;000.694;86;000.703;MIDI 01
271.738;000.745;74;000.703;MIDI 01
272.692;000.086;72;000.625;MIDI 01
272.683;000.226;84;000.703;MIDI 01
272.965;000.169;82;000.688;MIDI 01
272.976;000.240;70;000.680;MIDI 01
272.962;000.618;34;000.539;MIDI 01
272.957;000.663;46;000.602;MIDI 01
273.584;000.057;58;000.375;MIDI 01
273.571;000.077;65;000.445;MIDI 01
273.556;000.094;53;000.445;MIDI 01
273.561;000.100;62;000.422;MIDI 01
273.809;000.056;53;000.438;MIDI 01
273.807;000.060;65;000.445;MIDI 01
273.795;000.103;58;000.445;MIDI 01
273.814;000.090;62;000.516;MIDI 01
274.033;000.058;53;000.484;MIDI 01
274.028;000.088;38;000.617;MIDI 01
274.060;000.066;62;000.484;MIDI 01
274.036;000.094;65;000.508;MIDI 01
274.041;000.093;58;000.539;MIDI 01
274.030;000.122;50;000.656;MIDI 01
274.277;000.034;65;000.430;MIDI 01
274.294;000.028;62;000.367;MIDI 01
274.259;000.071;53;000.438;MIDI 01
274.261;000.076;58;000.539;MIDI 01
274.431;000.054;65;000.469;MIDI 01
274.427;000.069;58;000.570;MIDI 01
274.429;000.073;62;000.523;MIDI 01
274.582;000.058;53;000.711;MIDI 01
274.585;000.057;41;000.641;MIDI 01
274.610;000.052;65;000.531;MIDI 01
274.608;000.060;58;000.625;MIDI 01
274.619;000.052;62;000.500;MIDI 01
274.779;000.038;58;000.648;MIDI 01
274.794;000.032;62;000.539;MIDI 01
274.781;000.050;65;000.539;MIDI 01
274.931;000.036;65;000.562;MIDI 01
274.922;000.060;58;000.648;MIDI 01
274.924;000.070;62;000.438;MIDI 01
275.045;000.061;58;000.680;MIDI 01
275.079;000.055;53;000.641;MIDI 01
275.068;000.071;65;000.625;MIDI 01
275.064;000.083;46;000.641;MIDI 01
275.077;000.083;62;000.609;MIDI 01
275.254;000.036;65;000.641;MIDI 01
275.249;000.055;53;000.695;MIDI 01
275.251;000.077;62;000.641;MIDI 01
275.409;000.018;53;000.531;MIDI 01
275.400;000.058;62;000.641;MIDI 01
275.402;000.062;65;000.586;MIDI 01
275.502;000.002;53;000.375;MIDI 01
275.670;000.103;30;000.734;MIDI 01
275.672;000.131;42;000.750;MIDI 01
275.989;000.036;54;000.656;MIDI 01
276.002;000.034;42;000.500;MIDI 01
275.725;000.458;76;000.742;MIDI 01
276.156;000.033;58;000.695;MIDI 01
276.189;000.038;46;000.383;MIDI 01
276.308;000.033;61;000.719;MIDI 01
276.318;000.030;49;000.594;MIDI 01
275.729;000.650;85;000.742;MIDI 01
275.731;000.704;73;000.750;MIDI 01
276.440;000.044;64;000.773;MIDI 01
276.464;000.051;53;000.609;MIDI 01
276.455;000.062;52;000.617;MIDI 01
276.778;000.034;31;000.719;MIDI 01
276.775;000.040;43;000.734;MIDI 01
277.010;000.030;55;000.688;MIDI 01
277.048;000.035;53;000.344;MIDI 01
276.769;000.341;84;000.781;MIDI 01
277.067;000.046;43;000.320;MIDI 01
276.767;000.384;72;000.727;MIDI 01
276.762;000.395;76;000.781;MIDI 01
277.161;000.027;58;000.664;MIDI 01
277.156;000.034;46;000.625;MIDI 01
277.269;000.026;58;000.281;MIDI 01
277.307;000.040;49;000.562;MIDI 01
277.288;000.061;61;000.789;MIDI 01
277.433;000.044;64;000.711;MIDI 01
277.438;000.078;52;000.727;MIDI 01
277.607;000.091;82;000.719;MIDI 01
277.605;000.117;70;000.703;MIDI 01
277.604;000.125;76;000.727;MIDI 01
277.812;000.032;32;000.695;MIDI 01
277.802;000.045;44;000.812;MIDI 01
277.851;000.050;34;000.359;MIDI 01
277.810;000.158;78;000.727;MIDI 01
277.819;000.160;68;000.766;MIDI 01
277.822;000.226;80;000.727;MIDI 01
278.101;000.046;65;000.555;MIDI 01
278.117;000.043;56;000.453;MIDI 01
278.096;000.067;61;000.570;MIDI 01
278.281;000.040;61;000.555;MIDI 01
278.261;000.066;65;000.570;MIDI 01
278.277;000.060;53;000.352;MIDI 01
278.264;000.082;56;000.562;MIDI 01
278.450;000.039;65;000.656;MIDI 01
278.436;000.055;77;000.625;MIDI 01
278.432;000.066;73;000.695;MIDI 01
278.446;000.058;61;000.469;MIDI 01
278.460;000.048;53;000.555;MIDI 01
278.458;000.052;56;000.562;MIDI 01
278.434;000.090;80;000.695;MIDI 01
278.439;000.109;85;000.688;MIDI 01
278.610;000.050;65;000.672;MIDI 01
278.630;000.032;61;000.562;MIDI 01
278.623;000.042;53;000.484;MIDI 01
278.626;000.042;56;000.578;MIDI 01
278.774;000.040;65;000.656;MIDI 01
278.770;000.050;61;000.508;MIDI 01
278.776;000.046;53;000.477;MIDI 01
278.772;000.071;56;000.555;MIDI 01
278.926;000.039;61;000.703;MIDI 01
278.897;000.075;80;000.727;MIDI 01
278.906;000.070;77;000.680;MIDI 01
278.922;000.056;53;000.555;MIDI 01
278.916;000.064;65;000.711;MIDI 01
278.928;000.053;56;000.578;MIDI 01
278.904;000.099;85;000.672;MIDI 01
278.901;000.114;89;000.750;MIDI 01
279.083;000.053;53;000.594;MIDI 01
279.079;000.065;65;000.711;MIDI 01
279.081;000.065;61;000.641;MIDI 01
279.087;000.060;56;000.617;MIDI 01
279.265;000.042;53;000.523;MIDI 01
279.253;000.066;61;000.625;MIDI 01
279.244;000.078;65;000.664;MIDI 01
279.256;000.093;56;000.586;MIDI 01
279.422;000.076;65;000.656;MIDI 01
279.424;000.080;53;000.539;MIDI 01
279.428;000.083;61;000.688;MIDI 01
279.426;000.103;56;000.570;MIDI 01
279.629;000.050;53;000.547;MIDI 01
279.614;000.080;65;000.680;MIDI 01
279.617;000.089;61;000.664;MIDI 01
279.619;000.106;56;000.578;MIDI 01
279.406;000.418;80;000.742;MIDI 01
279.409;000.417;89;000.664;MIDI 01
279.407;000.432;85;000.719;MIDI 01
279.801;000.046;65;000.750;MIDI 01
279.808;000.068;61;000.695;MIDI 01
279.404;000.490;92;000.812;MIDI 01
279.810;000.088;53;000.547;MIDI 01
279.812;000.087;56;000.609;MIDI 01
279.898;000.054;58;000.141;MIDI 01
280.145;000.042;44;000.789;MIDI 01
280.153;000.035;32;000.719;MIDI 01
280.635;000.072;69;000.641;MIDI 01
280.639;000.083;57;000.578;MIDI 01
280.641;000.091;66;000.633;MIDI 01
280.643;000.099;61;000.609;MIDI 01
280.867;000.113;57;000.625;MIDI 01
280.859;000.122;69;000.711;MIDI 01
280.872;000.122;66;000.656;MIDI 01
280.869;000.139;61;000.688;MIDI 01
280.139;001.118;93;000.797;MIDI 01
281.118;000.141;69;000.781;MIDI 01
280.141;001.131;81;000.742;MIDI 01
280.143;001.154;90;000.727;MIDI 01
280.136;001.198;85;000.773;MIDI 01
281.128;000.265;66;000.719;MIDI 01
281.122;000.365;57;000.695;MIDI 01
281.126;000.379;61;000.695;MIDI 01
282.019;000.430;54;000.711;MIDI 01
282.495;000.265;54;000.477;MIDI 01
282.483;000.317;57;000.727;MIDI 01
283.025;000.117;32;000.688;MIDI 01
282.808;000.443;60;000.703;MIDI 01
283.506;000.072;48;000.617;MIDI 01
283.512;001.061;54;000.609;MIDI 01
283.491;001.127;65;000.766;MIDI 01
283.495;001.297;57;000.680;MIDI 01
284.910;000.176;63;000.711;MIDI 01
285.170;000.106;53;000.672;MIDI 01
285.179;000.114;49;000.688;MIDI 01
285.166;000.130;61;000.766;MIDI 01
285.173;000.130;56;000.703;MIDI 01
285.184;000.128;44;000.625;MIDI 01
285.182;000.150;37;000.633;MIDI 01
286.461;000.031;62;000.656;MIDI 01
286.473;000.028;50;000.555;MIDI 01
286.570;000.141;62;000.734;MIDI 01
286.572;000.507;50;000.703;MIDI 01
288.105;000.035;56;000.648;MIDI 01
288.103;000.039;44;000.633;MIDI 01
288.217;000.191;56;000.758;MIDI 01
288.210;000.470;44;000.711;MIDI 01
289.481;000.036;50;000.625;MIDI 01
289.495;000.036;38;000.555;MIDI 01
289.593;000.102;50;000.672;MIDI 01
289.608;000.209;38;000.656;MIDI 01
290.166;000.033;44;000.672;MIDI 01
290.185;000.035;32;000.555;MIDI 01
290.278;000.147;44;000.742;MIDI 01
290.289;000.289;32;000.641;MIDI 01
291.110;000.043;38;000.664;MIDI 01
291.121;000.037;26;000.617;MIDI 01
293.170;000.957;47;000.570;MIDI 01
293.149;001.127;53;000.633;MIDI 01
293.174;001.116;44;000.539;MIDI 01
294.704;000.967;45;000.594;MIDI 01
294.700;000.972;48;000.680;MIDI 01
294.696;001.068;54;000.680;MIDI 01
296.276;000.199;46;000.688;MIDI 01
296.274;000.260;50;000.688;MIDI 01
296.270;000.354;55;000.688;MIDI 01
291.233;005.990;38;000.672;MIDI 01
291.240;006.034;26;000.672;MIDI 01
297.051;000.490;55;000.617;MIDI 01
297.040;000.734;62;000.711;MIDI 01
297.049;000.867;50;000.531;MIDI 01
297.525;000.465;39;000.727;MIDI 01
297.532;000.483;27;000.680;MIDI 01
298.191;000.078;26;000.680;MIDI 01
297.858;000.427;54;000.719;MIDI 01
298.189;000.122;38;000.719;MIDI 01
297.044;001.286;57;000.625;MIDI 01
298.367;000.132;50;000.688;MIDI 01
298.365;000.168;62;000.719;MIDI 01
298.703;000.103;43;000.719;MIDI 01
298.705;000.103;31;000.719;MIDI 01
298.698;000.122;50;000.695;MIDI 01
298.700;000.144;55;000.711;MIDI 01
298.696;000.158;62;000.703;MIDI 01
298.701;000.167;59;000.688;MIDI 01
299.908;000.030;71;000.680;MIDI 01
299.918;000.029;59;000.586;MIDI 01
300.019;000.053;71;000.797;MIDI 01
300.017;000.092;59;000.688;MIDI 01
301.579;000.031;65;000.641;MIDI 01
301.590;000.027;53;000.555;MIDI 01
301.677;000.454;65;000.711;MIDI 01
301.689;000.804;53;000.719;MIDI 01
303.133;000.039;59;000.602;MIDI 01
303.135;000.042;47;000.562;MIDI 01
303.243;000.121;59;000.672;MIDI 01
303.252;000.223;47;000.633;MIDI 01
303.814;000.034;53;000.594;MIDI 01
303.830;000.035;41;000.500;MIDI 01
303.917;000.302;53;000.688;MIDI 01
303.925;000.471;41;000.641;MIDI 01
304.717;000.030;47;000.641;MIDI 01
304.730;000.040;35;000.562;MIDI 01
304.816;000.173;47;000.680;MIDI 01
304.829;000.320;35;000.680;MIDI 01
305.633;000.046;41;000.625;MIDI 01
305.637;000.044;29;000.617;MIDI 01
306.932;000.960;50;000.500;MIDI 01
306.943;001.016;47;000.461;MIDI 01
306.913;001.527;56;000.617;MIDI 01
308.503;000.848;51;000.555;MIDI 01
308.501;001.001;48;000.570;MIDI 01
308.478;001.715;57;000.656;MIDI 01
310.232;000.276;49;000.391;MIDI 01
310.230;000.326;53;000.414;MIDI 01
310.199;000.536;58;000.562;MIDI 01
305.753;005.846;29;000.648;MIDI 01
305.752;005.858;41;000.672;MIDI 01
311.249;000.635;58;000.219;MIDI 01
312.046;001.142;42;000.352;MIDI 01
312.039;001.248;30;000.383;MIDI 01
311.233;003.236;53;000.281;MIDI 01
311.193;003.420;65;000.484;MIDI 01
313.725;001.112;29;000.203;MIDI 01
312.678;002.259;57;000.328;MIDI 01
313.718;001.226;41;000.164;MIDI 01
311.252;003.735;60;000.250;MIDI 01
314.849;000.274;53;000.305;MIDI 01
314.855;000.294;65;000.258;MIDI 01
316.339;002.354;53;000.227;MIDI 01
316.349;002.353;34;000.109;MIDI 01
316.380;002.385;46;000.148;MIDI 01
316.354;002.457;58;000.195;MIDI 01
316.341;002.533;61;000.258;MIDI 01
316.324;002.551;65;000.281;MIDI 01
323.474;000.240;65;000.219;MIDI 01
323.469;000.269;77;000.289;MIDI 01
324.400;000.069;37;000.188;MIDI 01
324.442;000.179;65;000.336;MIDI 01
324.444;000.672;77;000.328;MIDI 01
325.365;000.493;59;000.289;MIDI 01
325.363;000.507;56;000.219;MIDI 01
325.372;000.525;65;000.227;MIDI 01
325.877;000.170;87;000.344;MIDI 01
325.885;000.172;75;000.250;MIDI 01
326.339;000.128;87;000.398;MIDI 01
326.356;000.202;75;000.297;MIDI 01
326.742;000.311;59;000.227;MIDI 01
326.728;000.351;56;000.203;MIDI 01
326.722;000.360;65;000.219;MIDI 01
327.007;000.120;86;000.352;MIDI 01
327.045;000.091;74;000.227;MIDI 01
327.314;000.120;86;000.406;MIDI 01
327.324;000.115;74;000.344;MIDI 01
327.808;000.089;85;000.422;MIDI 01
327.825;000.074;73;000.328;MIDI 01
327.590;000.325;65;000.203;MIDI 01
327.608;000.317;56;000.156;MIDI 01
327.598;000.337;59;000.250;MIDI 01
328.064;000.143;85;000.492;MIDI 01
328.069;000.146;73;000.422;MIDI 01
328.339;000.306;56;000.234;MIDI 01
328.565;000.084;72;000.359;MIDI 01
328.543;000.125;84;000.453;MIDI 01
328.336;000.334;59;000.266;MIDI 01
328.341;000.343;65;000.188;MIDI 01
328.837;000.110;84;000.461;MIDI 01
328.855;000.169;72;000.328;MIDI 01
329.348;000.140;83;000.344;MIDI 01
329.364;000.175;71;000.289;MIDI 01
329.115;000.584;56;000.211;MIDI 01
329.096;000.613;59;000.219;MIDI 01
329.092;000.619;65;000.250;MIDI 01
329.699;000.201;71;000.320;MIDI 01
329.679;000.335;83;000.367;MIDI 01
330.259;000.085;70;000.320;MIDI 01
330.255;000.094;82;000.359;MIDI 01
330.012;000.680;56;000.219;MIDI 01
330.004;000.698;65;000.258;MIDI 01
330.015;000.721;59;000.273;MIDI 01
330.749;000.460;82;000.367;MIDI 01
330.775;000.444;70;000.281;MIDI 01
331.141;001.081;59;000.203;MIDI 01
331.143;001.197;65;000.164;MIDI 01
331.131;001.323;56;000.164;MIDI 01
331.823;001.495;69;000.242;MIDI 01
331.815;001.640;81;000.273;MIDI 01
333.925;000.333;80;000.305;MIDI 01
333.927;000.355;68;000.156;MIDI 01
334.551;000.210;37;000.203;MIDI 01
334.699;000.165;68;000.328;MIDI 01
334.696;000.656;80;000.352;MIDI 01
336.055;000.137;80;000.336;MIDI 01
336.040;000.215;92;000.422;MIDI 01
335.485;000.842;56;000.180;MIDI 01
335.561;000.769;65;000.352;MIDI 01
335.489;000.949;59;000.211;MIDI 01
336.591;000.164;80;000.352;MIDI 01
336.564;000.239;92;000.414;MIDI 01
337.171;000.072;79;000.266;MIDI 01
337.134;000.131;91;000.375;MIDI 01
336.919;000.393;56;000.141;MIDI 01
336.885;000.451;65;000.219;MIDI 01
336.936;000.426;59;000.211;MIDI 01
337.429;000.106;91;000.500;MIDI 01
337.427;000.120;79;000.383;MIDI 01
337.905;000.059;78;000.406;MIDI 01
337.897;000.098;90;000.453;MIDI 01
337.705;000.321;56;000.211;MIDI 01
337.689;000.358;65;000.227;MIDI 01
337.715;000.354;59;000.227;MIDI 01
338.151;000.121;90;000.484;MIDI 01
338.139;000.192;78;000.430;MIDI 01
338.382;000.273;56;000.266;MIDI 01
338.597;000.083;77;000.398;MIDI 01
338.581;000.120;89;000.469;MIDI 01
338.416;000.318;59;000.242;MIDI 01
338.385;000.351;65;000.281;MIDI 01
338.849;000.139;89;000.539;MIDI 01
338.858;000.173;77;000.445;MIDI 01
339.368;000.092;76;000.445;MIDI 01
339.143;000.323;56;000.258;MIDI 01
339.130;000.339;65;000.195;MIDI 01
339.365;000.108;88;000.484;MIDI 01
339.141;000.379;59;000.203;MIDI 01
339.703;000.160;88;000.492;MIDI 01
339.712;000.197;76;000.445;MIDI 01
340.316;000.156;75;000.391;MIDI 01
340.310;000.172;87;000.453;MIDI 01
340.916;000.622;87;000.352;MIDI 01
340.925;000.625;75;000.250;MIDI 01
340.016;001.782;59;000.250;MIDI 01
339.994;001.829;65;000.203;MIDI 01
340.003;001.850;56;000.195;MIDI 01
342.385;001.574;86;000.289;MIDI 01
342.410;001.568;74;000.227;MIDI 01
344.438;000.198;74;000.266;MIDI 01
344.426;000.254;86;000.344;MIDI 01
345.165;000.197;40;000.180;MIDI 01
345.306;000.249;74;000.336;MIDI 01
345.321;000.892;86;000.352;MIDI 01
346.940;000.177;85;000.297;MIDI 01
346.141;001.001;59;000.234;MIDI 01
346.945;000.219;97;000.320;MIDI 01
346.166;001.151;68;000.148;MIDI 01
346.199;001.129;62;000.203;MIDI 01
347.405;000.132;97;000.250;MIDI 01
347.403;000.175;85;000.305;MIDI 01
348.061;000.126;95;000.328;MIDI 01
348.082;000.122;83;000.273;MIDI 01
347.796;000.448;59;000.172;MIDI 01
347.783;000.483;68;000.078;MIDI 01
347.818;000.534;62;000.172;MIDI 01
348.363;000.102;95;000.391;MIDI 01
348.369;000.122;83;000.328;MIDI 01
348.873;000.073;81;000.297;MIDI 01
348.849;000.101;93;000.406;MIDI 01
348.649;000.364;68;000.148;MIDI 01
348.643;000.376;59;000.227;MIDI 01
348.660;000.433;62;000.133;MIDI 01
349.110;000.104;93;000.430;MIDI 01
349.114;000.132;81;000.406;MIDI 01
349.358;000.062;62;000.188;MIDI 01
349.374;000.049;68;000.188;MIDI 01
349.366;000.073;59;000.242;MIDI 01
349.645;000.137;80;000.391;MIDI 01
349.634;000.153;92;000.469;MIDI 01
349.927;000.090;40;000.312;MIDI 01
350.023;000.169;92;000.477;MIDI 01
350.031;000.192;80;000.289;MIDI 01
350.758;000.067;78;000.336;MIDI 01
350.740;000.097;90;000.453;MIDI 01
350.518;000.466;64;000.242;MIDI 01
350.526;000.464;69;000.258;MIDI 01
350.548;000.464;61;000.297;MIDI 01
350.990;000.102;90;000.469;MIDI 01
350.980;000.127;78;000.430;MIDI 01
351.453;000.066;76;000.367;MIDI 01
351.436;000.095;88;000.430;MIDI 01
351.232;000.420;64;000.219;MIDI 01
351.222;000.436;61;000.289;MIDI 01
351.241;000.436;69;000.320;MIDI 01
351.699;000.101;88;000.469;MIDI 01
351.708;000.159;76;000.367;MIDI 01
352.186;000.064;73;000.359;MIDI 01
352.182;000.085;85;000.398;MIDI 01
351.950;000.430;69;000.250;MIDI 01
351.951;000.464;64;000.227;MIDI 01
351.924;000.515;61;000.258;MIDI 01
352.499;000.114;85;000.375;MIDI 01
352.527;000.093;73;000.344;MIDI 01
352.807;000.066;64;000.203;MIDI 01
352.770;000.141;61;000.273;MIDI 01
353.119;000.149;81;000.305;MIDI 01
353.122;000.201;69;000.297;MIDI 01
353.395;000.058;40;000.320;MIDI 01
353.498;000.108;81;000.344;MIDI 01
353.510;000.116;69;000.359;MIDI 01
353.755;000.079;59;000.352;MIDI 01
353.981;000.072;68;000.375;MIDI 01
353.973;000.084;80;000.445;MIDI 01
354.155;000.055;41;000.367;MIDI 01
354.211;000.132;80;000.500;MIDI 01
354.215;000.153;68;000.398;MIDI 01
354.427;000.031;62;000.398;MIDI 01
354.429;000.057;59;000.469;MIDI 01
354.627;000.068;67;000.430;MIDI 01
354.613;000.086;79;000.500;MIDI 01
354.799;000.069;42;000.484;MIDI 01
354.856;000.099;79;000.539;MIDI 01
354.873;000.156;67;000.398;MIDI 01
355.065;000.033;62;000.391;MIDI 01
355.061;000.066;59;000.500;MIDI 01
355.247;000.091;66;000.531;MIDI 01
355.242;000.105;78;000.531;MIDI 01
355.441;000.048;43;000.398;MIDI 01
355.509;000.217;78;000.539;MIDI 01
355.518;000.220;66;000.492;MIDI 01
355.748;000.092;59;000.359;MIDI 01
355.995;000.169;77;000.523;MIDI 01
356.008;000.204;65;000.422;MIDI 01
356.244;000.191;44;000.406;MIDI 01
356.405;000.188;65;000.422;MIDI 01
356.395;000.429;77;000.516;MIDI 01
357.129;000.041;75;000.398;MIDI 01
357.131;000.066;87;000.438;MIDI 01
356.886;000.499;61;000.305;MIDI 01
356.880;000.519;59;000.258;MIDI 01
356.895;000.515;53;000.305;MIDI 01
357.365;000.168;75;000.453;MIDI 01
357.360;000.197;87;000.531;MIDI 01
357.552;000.043;61;000.422;MIDI 01
357.562;000.038;59;000.398;MIDI 01
357.574;000.052;53;000.352;MIDI 01
357.777;000.142;75;000.492;MIDI 01
357.765;000.156;87;000.555;MIDI 01
357.941;000.153;46;000.570;MIDI 01
358.094;000.253;75;000.531;MIDI 01
358.089;000.298;87;000.578;MIDI 01
358.636;000.046;75;000.516;MIDI 01
358.629;000.091;87;000.602;MIDI 01
358.464;000.352;55;000.406;MIDI 01
358.453;000.408;64;000.391;MIDI 01
358.448;000.459;61;000.430;MIDI 01
358.881;000.241;75;000.578;MIDI 01
358.874;000.264;87;000.625;MIDI 01
359.158;000.048;64;000.406;MIDI 01
359.156;000.104;61;000.492;MIDI 01
359.171;000.093;55;000.383;MIDI 01
359.492;000.098;75;000.508;MIDI 01
359.477;000.154;87;000.609;MIDI 01
359.953;000.542;47;000.281;MIDI 01
361.012;000.059;61;000.297;MIDI 01
360.991;000.090;65;000.281;MIDI 01
361.003;000.081;56;000.266;MIDI 01
360.120;001.457;87;000.492;MIDI 01
360.132;001.541;75;000.383;MIDI 01
362.231;000.205;85;000.273;MIDI 01
362.253;000.231;73;000.227;MIDI 01
361.294;001.286;65;000.281;MIDI 01
362.674;000.058;83;000.312;MIDI 01
362.690;000.076;71;000.297;MIDI 01
361.283;001.516;61;000.258;MIDI 01
361.288;001.517;56;000.312;MIDI 01
362.967;000.040;82;000.375;MIDI 01
362.971;000.048;70;000.406;MIDI 01
363.205;000.040;80;000.367;MIDI 01
363.193;000.061;68;000.461;MIDI 01
363.423;000.117;78;000.438;MIDI 01
363.421;000.127;66;000.453;MIDI 01
363.679;000.098;47;000.273;MIDI 01
363.761;000.129;65;000.273;MIDI 01
363.742;000.235;77;000.383;MIDI 01
364.300;000.052;75;000.469;MIDI 01
364.302;000.061;87;000.492;MIDI 01
364.106;000.444;61;000.336;MIDI 01
364.116;000.435;56;000.375;MIDI 01
364.095;000.470;65;000.359;MIDI 01
364.558;000.183;75;000.523;MIDI 01
364.550;000.208;87;000.578;MIDI 01
364.740;000.036;65;000.445;MIDI 01
364.756;000.048;61;000.469;MIDI 01
364.754;000.067;56;000.430;MIDI 01
364.997;000.200;75;000.602;MIDI 01
364.989;000.222;87;000.617;MIDI 01
365.209;000.175;40;000.531;MIDI 01
365.380;000.314;75;000.539;MIDI 01
365.375;000.356;87;000.625;MIDI 01
365.926;000.057;73;000.484;MIDI 01
365.922;000.232;85;000.555;MIDI 01
365.730;000.451;67;000.469;MIDI 01
365.746;000.470;61;000.461;MIDI 01
365.743;000.495;58;000.414;MIDI 01
366.174;000.190;75;000.594;MIDI 01
366.424;000.044;67;000.453;MIDI 01
366.172;000.315;87;000.656;MIDI 01
366.427;000.099;61;000.508;MIDI 01
366.425;000.104;58;000.492;MIDI 01
366.742;000.115;73;000.578;MIDI 01
366.728;000.290;85;000.633;MIDI 01
367.399;000.429;41;000.367;MIDI 01
368.497;000.076;68;000.250;MIDI 01
368.521;000.064;59;000.273;MIDI 01
368.523;000.064;61;000.250;MIDI 01
367.493;002.168;94;000.602;MIDI 01
367.507;002.281;82;000.500;MIDI 01
370.265;000.222;80;000.258;MIDI 01
370.243;000.257;92;000.336;MIDI 01
370.794;000.133;78;000.344;MIDI 01
370.797;000.208;90;000.336;MIDI 01
371.135;000.093;89;000.438;MIDI 01
371.148;000.128;77;000.344;MIDI 01
368.821;002.481;68;000.258;MIDI 01
368.800;002.668;61;000.266;MIDI 01
368.804;002.669;59;000.297;MIDI 01
371.557;000.180;72;000.344;MIDI 01
371.559;000.637;84;000.367;MIDI 01
372.164;000.402;73;000.312;MIDI 01
372.133;000.809;85;000.367;MIDI 01
373.453;000.297;87;000.367;MIDI 01
373.038;000.735;75;000.305;MIDI 01
373.283;000.548;37;000.195;MIDI 01
374.882;000.114;68;000.234;MIDI 01
374.906;000.107;53;000.164;MIDI 01
374.908;000.115;59;000.195;MIDI 01
374.903;000.126;61;000.156;MIDI 01
375.229;000.098;68;000.273;MIDI 01
375.276;002.416;59;000.227;MIDI 01
375.279;002.503;53;000.117;MIDI 01
375.248;002.626;61;000.250;MIDI 01
377.997;000.223;85;000.273;MIDI 01
378.015;000.261;73;000.234;MIDI 01
378.656;000.247;83;000.281;MIDI 01
378.681;000.268;71;000.258;MIDI 01
379.409;000.396;79;000.320;MIDI 01
379.442;000.385;67;000.242;MIDI 01
380.401;000.779;80;000.273;MIDI 01
380.447;000.774;68;000.164;MIDI 01
382.509;000.928;81;000.242;MIDI 01
382.560;000.898;69;000.117;MIDI 01
387.248;000.355;61;000.234;MIDI 01
386.968;000.695;54;000.234;MIDI 01
386.752;001.029;58;000.188;MIDI 01
387.614;000.366;66;000.266;MIDI 01
386.512;001.506;49;000.156;MIDI 01
385.970;002.185;42;000.078;MIDI 01
387.920;000.240;61;000.250;MIDI 01
386.733;001.778;70;000.352;MIDI 01
388.214;000.316;58;000.219;MIDI 01
388.539;000.455;66;000.312;MIDI 01
388.848;000.472;40;000.266;MIDI 01
389.228;000.177;47;000.242;MIDI 01
389.379;000.266;64;000.344;MIDI 01
389.003;000.741;59;000.297;MIDI 01
389.468;000.420;52;000.289;MIDI 01
389.664;000.281;68;000.289;MIDI 01
389.730;000.250;56;000.266;MIDI 01
389.936;000.229;64;000.250;MIDI 01
390.190;000.324;59;000.258;MIDI 01
390.445;000.328;68;000.258;MIDI 01
390.689;000.225;64;000.258;MIDI 01
391.161;000.226;64;000.125;MIDI 01
390.945;000.478;59;000.266;MIDI 01
388.982;002.530;71;000.414;MIDI 01
391.451;000.299;68;000.109;MIDI 01
392.027;000.178;59;000.273;MIDI 01
391.729;000.539;64;000.180;MIDI 01
392.472;000.450;58;000.352;MIDI 01
392.866;000.237;61;000.359;MIDI 01
393.017;000.150;54;000.227;MIDI 01
392.735;000.571;49;000.219;MIDI 01
393.131;000.255;66;000.312;MIDI 01
392.348;001.043;42;000.266;MIDI 01
392.458;001.201;70;000.453;MIDI 01
393.584;000.254;58;000.281;MIDI 01
393.326;000.735;61;000.320;MIDI 01
393.839;000.286;66;000.320;MIDI 01
394.014;000.414;37;000.328;MIDI 01
394.384;000.183;44;000.305;MIDI 01
394.622;000.102;49;000.258;MIDI 01
394.555;000.212;61;000.320;MIDI 01
394.176;000.731;56;000.305;MIDI 01
394.784;000.265;66;000.336;MIDI 01
395.031;000.255;61;000.328;MIDI 01
395.264;000.385;56;000.281;MIDI 01
395.500;000.364;66;000.320;MIDI 01
395.721;000.218;61;000.383;MIDI 01
394.942;001.485;54;000.281;MIDI 01
396.192;000.314;61;000.352;MIDI 01
395.977;000.624;56;000.383;MIDI 01
396.533;000.501;53;000.188;MIDI 01
394.728;002.379;49;000.062;MIDI 01
396.515;000.600;65;000.320;MIDI 01
394.139;003.165;68;000.492;MIDI 01
397.273;000.219;56;000.219;MIDI 01
396.866;001.075;61;000.281;MIDI 01
398.410;000.208;58;000.180;MIDI 01
397.984;000.805;54;000.227;MIDI 01
398.630;000.298;63;000.305;MIDI 01
397.976;001.251;46;000.109;MIDI 01
397.952;001.387;66;000.336;MIDI 01
397.954;001.486;51;000.078;MIDI 01
397.922;001.539;39;000.180;MIDI 01
399.119;000.368;54;000.297;MIDI 01
399.369;000.338;63;000.352;MIDI 01
398.861;000.934;58;000.273;MIDI 01
399.733;000.382;45;000.266;MIDI 01
399.732;000.470;41;000.297;MIDI 01
400.124;000.185;57;000.320;MIDI 01
399.802;000.622;53;000.375;MIDI 01
399.780;000.843;65;000.492;MIDI 01
400.354;000.294;60;000.383;MIDI 01
400.576;000.217;57;000.391;MIDI 01
400.859;000.309;53;000.430;MIDI 01
401.218;000.334;51;000.422;MIDI 01
401.556;000.235;50;000.406;MIDI 01
401.409;000.567;34;000.344;MIDI 01
402.214;000.196;58;000.172;MIDI 01
402.225;000.421;65;000.258;MIDI 01
402.535;000.129;62;000.336;MIDI 01
403.084;000.209;62;000.266;MIDI 01
403.092;000.267;70;000.336;MIDI 01
403.298;000.086;65;000.383;MIDI 01
403.745;000.191;65;000.328;MIDI 01
403.739;000.292;74;000.375;MIDI 01
403.969;000.098;70;000.414;MIDI 01
403.502;001.067;58;000.469;MIDI 01
404.235;000.377;62;000.477;MIDI 01
402.812;001.839;53;000.375;MIDI 01
404.532;000.326;70;000.320;MIDI 01
404.521;000.400;77;000.336;MIDI 01
404.746;000.191;74;000.391;MIDI 01
405.822;000.096;79;000.195;MIDI 01
405.415;000.620;67;000.500;MIDI 01
405.824;000.222;70;000.328;MIDI 01
405.127;001.055;63;000.438;MIDI 01
404.977;001.240;58;000.453;MIDI 01
406.160;000.165;75;000.312;MIDI 01
406.404;000.170;70;000.312;MIDI 01
404.870;001.940;53;000.273;MIDI 01
406.654;000.172;63;000.312;MIDI 01
406.906;000.075;55;000.375;MIDI 01
407.618;000.790;57;000.359;MIDI 01
408.424;000.380;58;000.359;MIDI 01
408.712;000.228;57;000.430;MIDI 01
408.931;000.175;55;000.422;MIDI 01
409.122;000.451;57;000.469;MIDI 01
407.386;002.971;51;000.312;MIDI 01
407.210;003.384;41;000.312;MIDI 01
409.583;001.393;62;000.422;MIDI 01
411.014;000.604;60;000.328;MIDI 01
412.555;000.080;34;000.195;MIDI 01
413.085;000.131;50;000.211;MIDI 01
413.203;000.329;62;000.305;MIDI 01
413.577;000.228;65;000.273;MIDI 01
413.193;000.644;70;000.320;MIDI 01
413.983;000.080;37;000.273;MIDI 01
413.836;000.507;62;000.297;MIDI 01
411.600;002.768;58;000.297;MIDI 01
414.247;000.210;52;000.352;MIDI 01
414.233;000.284;70;000.328;MIDI 01
414.217;000.408;64;000.281;MIDI 01
414.584;000.346;67;000.375;MIDI 01
414.797;000.310;64;000.414;MIDI 01
415.035;000.144;58;000.500;MIDI 01
415.417;000.137;69;000.438;MIDI 01
415.415;000.367;64;000.391;MIDI 01
415.659;000.129;67;000.445;MIDI 01
415.847;000.303;57;000.508;MIDI 01
416.161;000.120;54;000.453;MIDI 01
415.994;000.390;38;000.383;MIDI 01
416.636;000.270;62;000.289;MIDI 01
416.631;000.324;69;000.328;MIDI 01
416.893;000.077;66;000.344;MIDI 01
417.391;000.123;66;000.375;MIDI 01
417.580;000.049;69;000.398;MIDI 01
417.389;000.256;74;000.398;MIDI 01
418.046;000.177;69;000.367;MIDI 01
418.058;000.202;78;000.383;MIDI 01
418.238;000.122;74;000.445;MIDI 01
417.794;000.749;62;000.516;MIDI 01
418.448;000.255;66;000.547;MIDI 01
417.134;001.591;57;000.461;MIDI 01
418.722;000.361;74;000.352;MIDI 01
418.896;000.202;78;000.453;MIDI 01
418.735;000.385;81;000.367;MIDI 01
419.611;000.602;71;000.523;MIDI 01
420.000;000.221;83;000.406;MIDI 01
420.004;000.253;74;000.391;MIDI 01
419.224;001.156;67;000.547;MIDI 01
419.078;001.320;62;000.508;MIDI 01
420.381;000.156;79;000.391;MIDI 01
420.637;000.122;74;000.367;MIDI 01
418.995;001.997;57;000.461;MIDI 01
420.882;000.197;67;000.336;MIDI 01
421.106;000.102;59;000.461;MIDI 01
422.031;001.015;61;000.398;MIDI 01
423.054;000.572;62;000.344;MIDI 01
423.529;000.356;61;000.375;MIDI 01
423.849;000.297;59;000.344;MIDI 01
421.660;004.305;55;000.391;MIDI 01
424.133;001.942;61;000.344;MIDI 01
421.467;004.961;45;000.352;MIDI 01
425.250;002.097;66;000.297;MIDI 01
427.269;000.822;64;000.273;MIDI 01
428.061;001.406;62;000.289;MIDI 01
429.373;000.159;54;000.219;MIDI 01
430.056;000.344;74;000.258;MIDI 01
430.417;000.046;69;000.273;MIDI 01
430.418;000.097;78;000.359;MIDI 01
429.348;001.379;38;000.227;MIDI 01
430.700;000.117;36;000.305;MIDI 01
430.956;000.162;74;000.344;MIDI 01
430.980;000.212;81;000.281;MIDI 01
431.208;000.104;78;000.344;MIDI 01
431.204;000.165;86;000.266;MIDI 01
432.098;000.264;87;000.305;MIDI 01
432.096;000.299;78;000.328;MIDI 01
431.636;000.902;63;000.438;MIDI 01
432.479;000.144;81;000.328;MIDI 01
432.483;000.207;75;000.289;MIDI 01
431.448;001.541;57;000.336;MIDI 01
432.974;000.079;62;000.328;MIDI 01
431.330;001.775;54;000.328;MIDI 01
434.470;000.056;54;000.258;MIDI 01
433.302;001.281;62;000.359;MIDI 01
435.023;000.065;66;000.203;MIDI 01
435.007;000.260;74;000.312;MIDI 01
435.292;000.035;69;000.352;MIDI 01
435.301;000.069;78;000.383;MIDI 01
434.420;001.196;38;000.188;MIDI 01
435.536;000.096;36;000.344;MIDI 01
435.769;000.226;81;000.398;MIDI 01
435.771;000.259;74;000.367;MIDI 01
435.974;000.247;86;000.438;MIDI 01
435.958;000.345;78;000.453;MIDI 01
436.405;000.533;63;000.516;MIDI 01
436.773;000.209;78;000.469;MIDI 01
436.782;000.234;87;000.414;MIDI 01
436.218;000.862;57;000.391;MIDI 01
437.005;000.102;81;000.469;MIDI 01
436.119;001.006;54;000.391;MIDI 01
437.012;000.134;75;000.461;MIDI 01
437.152;000.044;62;000.531;MIDI 01
437.702;000.145;62;000.523;MIDI 01
437.400;000.923;46;000.430;MIDI 01
437.539;000.802;55;000.453;MIDI 01
438.420;000.351;94;000.375;MIDI 01
438.424;000.385;86;000.398;MIDI 01
438.831;000.085;91;000.430;MIDI 01
438.829;000.181;82;000.422;MIDI 01
439.032;000.065;70;000.422;MIDI 01
439.244;000.405;70;000.484;MIDI 01
439.551;000.164;91;000.414;MIDI 01
439.533;000.204;82;000.453;MIDI 01
439.775;000.060;86;000.391;MIDI 01
439.783;000.139;79;000.406;MIDI 01
439.890;000.048;69;000.430;MIDI 01
440.048;000.284;69;000.516;MIDI 01
440.332;000.152;79;000.359;MIDI 01
440.328;000.169;86;000.406;MIDI 01
440.551;000.096;82;000.344;MIDI 01
440.651;000.054;68;000.453;MIDI 01
440.564;000.164;74;000.406;MIDI 01
440.811;000.068;68;000.492;MIDI 01
441.422;000.101;67;000.477;MIDI 01
441.499;000.153;48;000.414;MIDI 01
441.648;000.085;67;000.531;MIDI 01
441.822;000.223;57;000.297;MIDI 01
441.682;000.404;55;000.414;MIDI 01
441.972;000.183;63;000.375;MIDI 01
442.096;000.224;91;000.406;MIDI 01
442.120;000.231;84;000.312;MIDI 01
442.335;000.076;87;000.430;MIDI 01
442.337;000.145;79;000.375;MIDI 01
442.444;000.041;66;000.430;MIDI 01
442.854;000.162;87;000.477;MIDI 01
442.593;000.443;66;000.531;MIDI 01
442.865;000.196;79;000.438;MIDI 01
443.070;000.071;84;000.430;MIDI 01
443.085;000.129;75;000.398;MIDI 01
443.201;000.043;65;000.469;MIDI 01
443.343;000.448;65;000.570;MIDI 01
443.608;000.229;75;000.414;MIDI 01
443.950;000.048;64;000.477;MIDI 01
443.610;000.582;84;000.414;MIDI 01
443.832;000.630;79;000.406;MIDI 01
444.108;000.374;64;000.477;MIDI 01
443.830;000.707;72;000.375;MIDI 01
444.776;000.105;63;000.438;MIDI 01
445.110;000.489;63;000.352;MIDI 01
445.443;000.158;82;000.367;MIDI 01
445.470;000.196;74;000.367;MIDI 01
445.658;000.079;79;000.406;MIDI 01
445.778;000.045;62;000.453;MIDI 01
445.670;000.167;70;000.391;MIDI 01
445.929;000.250;62;000.492;MIDI 01
445.168;001.130;55;000.344;MIDI 01
445.161;001.139;58;000.336;MIDI 01
445.159;001.143;50;000.258;MIDI 01
446.210;000.201;70;000.461;MIDI 01
446.221;000.210;79;000.406;MIDI 01
446.431;000.097;74;000.398;MIDI 01
446.439;000.210;67;000.367;MIDI 01
446.517;000.140;58;000.445;MIDI 01
446.830;000.523;58;000.531;MIDI 01
447.174;000.201;66;000.430;MIDI 01
447.181;000.260;74;000.406;MIDI 01
447.407;000.182;69;000.445;MIDI 01
447.543;000.079;57;000.477;MIDI 01
447.415;000.268;62;000.414;MIDI 01
447.780;000.631;58;000.445;MIDI 01
446.653;001.771;48;000.492;MIDI 01
446.745;001.737;54;000.477;MIDI 01
448.764;000.200;60;000.344;MIDI 01
449.085;000.364;56;000.195;MIDI 01
449.104;000.369;47;000.188;MIDI 01
449.099;000.376;53;000.195;MIDI 01
449.087;000.651;62;000.344;MIDI 01
450.552;000.066;65;000.211;MIDI 01
450.550;000.217;74;000.227;MIDI 01
450.784;000.065;68;000.367;MIDI 01
450.836;000.046;77;000.242;MIDI 01
450.158;000.947;35;000.258;MIDI 01
451.023;000.111;36;000.406;MIDI 01
451.280;000.109;74;000.367;MIDI 01
451.268;000.184;81;000.453;MIDI 01
451.472;000.149;78;000.453;MIDI 01
451.477;000.185;86;000.461;MIDI 01
451.852;000.485;63;000.492;MIDI 01
452.225;000.179;78;000.414;MIDI 01
452.227;000.216;87;000.391;MIDI 01
451.683;000.811;57;000.453;MIDI 01
452.473;000.109;81;000.406;MIDI 01
451.579;001.010;54;000.398;MIDI 01
452.495;000.129;75;000.367;MIDI 01
452.590;000.043;62;000.539;MIDI 01
452.964;000.292;56;000.328;MIDI 01
452.988;000.311;53;000.344;MIDI 01
452.957;000.364;47;000.352;MIDI 01
452.945;000.722;62;000.492;MIDI 01
454.302;000.141;65;000.430;MIDI 01
454.304;000.229;74;000.438;MIDI 01
454.533;000.073;68;000.516;MIDI 01
454.541;000.116;77;000.523;MIDI 01
453.981;000.789;35;000.398;MIDI 01
454.730;000.121;36;000.562;MIDI 01
454.998;000.224;74;000.500;MIDI 01
454.983;000.249;81;000.531;MIDI 01
455.192;000.215;78;000.555;MIDI 01
455.190;000.269;86;000.523;MIDI 01
455.560;000.474;63;000.609;MIDI 01
455.909;000.172;87;000.594;MIDI 01
455.385;000.776;57;000.539;MIDI 01
455.905;000.257;78;000.586;MIDI 01
455.300;000.928;54;000.422;MIDI 01
456.133;000.097;81;000.594;MIDI 01
456.135;000.130;75;000.562;MIDI 01
456.270;000.038;62;000.617;MIDI 01
456.764;000.127;62;000.617;MIDI 01
456.600;000.713;55;000.570;MIDI 01
456.483;000.840;46;000.555;MIDI 01
457.496;000.507;98;000.531;MIDI 01
457.499;000.544;91;000.477;MIDI 01
457.948;000.183;86;000.461;MIDI 01
457.945;000.201;94;000.539;MIDI 01
458.141;000.069;74;000.484;MIDI 01
458.333;000.351;74;000.594;MIDI 01
458.647;000.200;94;000.492;MIDI 01
458.660;000.228;86;000.500;MIDI 01
458.895;000.061;91;000.461;MIDI 01
458.893;000.156;82;000.430;MIDI 01
459.018;000.038;73;000.461;MIDI 01
459.423;000.178;91;000.500;MIDI 01
459.160;000.443;73;000.562;MIDI 01
459.430;000.284;82;000.453;MIDI 01
459.649;000.079;86;000.438;MIDI 01
459.661;000.135;79;000.391;MIDI 01
459.770;000.032;72;000.430;MIDI 01
459.915;000.091;72;000.586;MIDI 01
460.536;000.091;71;000.508;MIDI 01
460.611;000.156;48;000.453;MIDI 01
460.752;000.093;71;000.562;MIDI 01
460.795;000.357;55;000.398;MIDI 01
460.936;000.224;57;000.305;MIDI 01
461.075;000.148;63;000.375;MIDI 01
461.224;000.224;91;000.406;MIDI 01
461.227;000.266;84;000.352;MIDI 01
461.465;000.091;87;000.477;MIDI 01
461.564;000.036;70;000.445;MIDI 01
461.468;000.134;79;000.375;MIDI 01
462.023;000.190;87;000.461;MIDI 01
462.035;000.200;79;000.406;MIDI 01
461.705;000.534;70;000.555;MIDI 01
462.260;000.154;84;000.422;MIDI 01
462.394;000.039;69;000.484;MIDI 01
462.253;000.254;75;000.414;MIDI 01
462.532;000.835;69;000.539;MIDI 01
463.414;000.133;68;000.453;MIDI 01
463.780;002.580;68;000.484;MIDI 01
466.324;001.306;67;000.383;MIDI 01
467.498;000.873;75;000.422;MIDI 01
468.395;000.643;74;000.391;MIDI 01
468.973;000.424;72;000.367;MIDI 01
469.336;000.328;70;000.445;MIDI 01
469.673;000.463;69;000.445;MIDI 01
470.109;000.605;67;000.383;MIDI 01
470.653;000.425;66;000.328;MIDI 01
471.047;000.289;67;000.438;MIDI 01
471.268;000.270;66;000.453;MIDI 01
471.510;000.330;65;000.430;MIDI 01
471.809;000.833;66;000.398;MIDI 01
472.602;003.960;69;000.375;MIDI 01
476.541;000.887;67;000.281;MIDI 01
477.291;000.564;63;000.250;MIDI 01
477.854;000.680;60;000.266;MIDI 01
478.459;000.868;57;000.258;MIDI 01
479.240;000.698;55;000.250;MIDI 01
480.960;002.227;51;000.227;MIDI 01
484.967;000.881;50;000.172;MIDI 01
487.396;000.353;70;000.258;MIDI 01
487.364;000.474;49;000.250;MIDI 01
488.132;000.218;87;000.406;MIDI 01
488.624;000.099;78;000.297;MIDI 01
488.436;000.543;66;000.266;MIDI 01
488.988;000.056;70;000.109;MIDI 01
489.228;000.117;86;000.422;MIDI 01
488.948;000.677;61;000.258;MIDI 01
489.557;000.119;78;000.281;MIDI 01
489.404;000.382;58;000.219;MIDI 01
489.741;000.058;70;000.297;MIDI 01
489.952;000.105;86;000.430;MIDI 01
490.225;000.102;78;000.297;MIDI 01
490.106;000.330;66;000.258;MIDI 01
490.393;000.058;70;000.250;MIDI 01
490.395;000.304;61;000.281;MIDI 01
490.579;000.155;85;000.414;MIDI 01
490.716;000.086;58;000.180;MIDI 01
490.815;000.062;78;000.273;MIDI 01
490.966;000.043;70;000.273;MIDI 01
491.131;000.135;85;000.367;MIDI 01
491.332;000.070;78;000.273;MIDI 01
491.502;000.043;70;000.250;MIDI 01
491.258;000.375;66;000.203;MIDI 01
491.668;000.128;84;000.359;MIDI 01
491.500;000.330;61;000.281;MIDI 01
491.864;000.077;78;000.344;MIDI 01
492.012;000.043;70;000.250;MIDI 01
492.165;000.096;84;000.391;MIDI 01
491.810;000.483;58;000.156;MIDI 01
492.357;000.065;78;000.328;MIDI 01
492.291;000.278;66;000.312;MIDI 01
492.529;000.059;70;000.242;MIDI 01
492.578;000.296;61;000.281;MIDI 01
492.887;000.052;58;000.242;MIDI 01
492.685;000.422;83;000.406;MIDI 01
492.952;000.256;78;000.289;MIDI 01
493.208;000.259;49;000.305;MIDI 01
493.328;000.223;71;000.266;MIDI 01
493.633;000.240;83;000.336;MIDI 01
493.899;000.068;77;000.219;MIDI 01
493.705;000.328;65;000.273;MIDI 01
494.044;000.056;71;000.305;MIDI 01
494.206;000.134;82;000.383;MIDI 01
494.377;000.091;77;000.328;MIDI 01
494.027;000.443;61;000.281;MIDI 01
494.370;000.207;59;000.289;MIDI 01
494.545;000.122;71;000.289;MIDI 01
494.676;000.148;82;000.398;MIDI 01
494.845;000.073;77;000.367;MIDI 01
494.847;000.296;65;000.234;MIDI 01
495.050;000.205;71;000.195;MIDI 01
495.174;000.158;81;000.445;MIDI 01
495.074;000.277;61;000.297;MIDI 01
495.355;000.140;59;000.273;MIDI 01
495.351;000.239;77;000.367;MIDI 01
495.517;000.290;71;000.328;MIDI 01
495.651;000.250;81;000.438;MIDI 01
495.772;000.203;65;000.273;MIDI 01
495.853;000.256;77;000.281;MIDI 01
495.979;000.280;71;000.359;MIDI 01
495.994;000.277;61;000.297;MIDI 01
496.132;000.205;79;000.398;MIDI 01
496.241;000.216;59;000.297;MIDI 01
496.301;000.248;77;000.297;MIDI 01
496.481;000.242;71;000.289;MIDI 01
496.682;000.235;79;000.359;MIDI 01
496.736;000.230;65;000.266;MIDI 01
496.885;000.267;77;000.359;MIDI 01
497.102;000.227;71;000.305;MIDI 01
497.446;000.106;59;000.242;MIDI 01
497.066;000.501;61;000.250;MIDI 01
497.332;000.445;80;000.328;MIDI 01
497.651;000.445;77;000.289;MIDI 01
498.188;000.127;70;000.289;MIDI 01
498.016;000.311;49;000.344;MIDI 01
498.564;000.213;87;000.375;MIDI 01
498.874;000.081;78;000.305;MIDI 01
499.072;000.035;70;000.109;MIDI 01
498.731;000.378;66;000.242;MIDI 01
499.235;000.091;86;000.414;MIDI 01
499.462;000.070;78;000.344;MIDI 01
499.629;000.045;70;000.234;MIDI 01
499.040;000.723;61;000.250;MIDI 01
499.785;000.074;86;000.406;MIDI 01
499.403;000.482;58;000.164;MIDI 01
499.961;000.100;78;000.297;MIDI 01
499.932;000.316;66;000.258;MIDI 01
500.264;000.145;85;000.367;MIDI 01
500.200;000.296;61;000.305;MIDI 01
500.451;000.077;78;000.328;MIDI 01
500.568;000.042;70;000.273;MIDI 01
500.723;000.136;85;000.430;MIDI 01
500.468;000.395;58;000.188;MIDI 01
500.886;000.068;78;000.383;MIDI 01
501.014;000.042;70;000.344;MIDI 01
500.877;000.265;66;000.273;MIDI 01
501.166;000.123;84;000.375;MIDI 01
501.331;000.089;78;000.391;MIDI 01
501.142;000.318;61;000.328;MIDI 01
501.481;000.048;70;000.289;MIDI 01
501.623;000.105;84;000.438;MIDI 01
501.405;000.352;58;000.227;MIDI 01
501.795;000.077;78;000.398;MIDI 01
501.764;000.182;66;000.289;MIDI 01
501.934;000.111;70;000.367;MIDI 01
501.979;000.217;61;000.297;MIDI 01
502.169;000.050;58;000.227;MIDI 01
502.097;000.291;83;000.438;MIDI 01
502.273;000.141;78;000.430;MIDI 01
502.423;000.116;49;000.328;MIDI 01
502.464;000.256;71;000.383;MIDI 01
502.741;000.105;65;000.352;MIDI 01
502.647;000.217;83;000.461;MIDI 01
502.830;000.127;77;000.430;MIDI 01
502.980;000.066;71;000.359;MIDI 01
502.989;000.196;61;000.328;MIDI 01
503.121;000.192;82;000.469;MIDI 01
503.206;000.200;59;000.312;MIDI 01
503.419;000.076;71;000.398;MIDI 01
503.275;000.239;77;000.469;MIDI 01
503.538;000.193;82;000.484;MIDI 01
503.646;000.101;65;000.352;MIDI 01
503.700;000.109;77;000.414;MIDI 01
503.850;000.110;61;000.359;MIDI 01
504.010;000.041;59;000.305;MIDI 01
503.885;000.310;71;000.336;MIDI 01
504.031;000.270;81;000.469;MIDI 01
504.255;000.155;50;000.391;MIDI 01
504.179;000.370;77;000.484;MIDI 01
504.377;000.323;71;000.398;MIDI 01
504.564;000.217;81;000.477;MIDI 01
504.648;000.176;65;000.391;MIDI 01
504.722;000.181;77;000.414;MIDI 01
504.851;000.260;71;000.484;MIDI 01
504.878;000.242;62;000.250;MIDI 01
504.975;000.207;79;000.523;MIDI 01
505.092;000.231;59;000.352;MIDI 01
505.118;000.223;77;000.477;MIDI 01
505.280;000.276;71;000.477;MIDI 01
505.425;000.236;79;000.438;MIDI 01
505.501;000.172;65;000.391;MIDI 01
505.617;000.310;77;000.500;MIDI 01
505.761;000.170;71;000.359;MIDI 01
505.739;000.244;62;000.297;MIDI 01
505.976;000.081;59;000.367;MIDI 01
505.981;000.254;80;000.469;MIDI 01
506.182;000.206;77;000.398;MIDI 01
506.480;000.089;72;000.406;MIDI 01
506.394;000.244;51;000.297;MIDI 01
506.810;000.102;89;000.445;MIDI 01
507.053;000.062;80;000.344;MIDI 01
506.955;000.248;68;000.266;MIDI 01
507.171;000.035;72;000.336;MIDI 01
507.333;000.096;88;000.445;MIDI 01
507.478;000.111;80;000.461;MIDI 01
507.615;000.026;72;000.422;MIDI 01
507.185;000.503;63;000.344;MIDI 01
507.446;000.253;60;000.273;MIDI 01
507.750;000.090;88;000.523;MIDI 01
507.905;000.075;80;000.445;MIDI 01
507.844;000.171;68;000.352;MIDI 01
508.019;000.029;72;000.375;MIDI 01
508.085;000.123;63;000.344;MIDI 01
508.241;000.035;60;000.359;MIDI 01
508.181;000.185;87;000.477;MIDI 01
508.322;000.131;80;000.461;MIDI 01
508.458;000.068;73;000.414;MIDI 01
508.450;000.091;51;000.438;MIDI 01
508.601;000.153;87;000.484;MIDI 01
508.707;000.081;67;000.422;MIDI 01
508.752;000.134;79;000.500;MIDI 01
508.886;000.083;73;000.453;MIDI 01
508.898;000.131;61;000.438;MIDI 01
509.005;000.159;86;000.570;MIDI 01
509.055;000.130;58;000.383;MIDI 01
509.211;000.064;52;000.492;MIDI 01
509.145;000.255;79;000.492;MIDI 01
509.294;000.150;73;000.492;MIDI 01
509.505;000.115;70;000.398;MIDI 01
509.557;000.166;79;000.523;MIDI 01
509.696;000.099;67;000.406;MIDI 01
509.700;000.132;73;000.477;MIDI 01
509.816;000.035;61;000.336;MIDI 01
509.418;000.562;85;000.555;MIDI 01
509.865;000.196;82;000.500;MIDI 01
509.996;000.098;79;000.477;MIDI 01
510.111;000.039;53;000.281;MIDI 01
510.135;000.033;74;000.508;MIDI 01
510.347;000.109;91;000.508;MIDI 01
510.446;000.141;70;000.375;MIDI 01
510.524;000.107;82;000.484;MIDI 01
510.637;000.029;74;000.414;MIDI 01
510.651;000.201;65;000.414;MIDI 01
510.775;000.131;90;000.547;MIDI 01
510.913;000.097;82;000.484;MIDI 01
511.008;000.033;74;000.492;MIDI 01
510.879;000.178;62;000.422;MIDI 01
511.156;000.121;90;000.578;MIDI 01
511.303;000.084;82;000.484;MIDI 01
511.259;000.130;70;000.422;MIDI 01
511.417;000.036;74;000.492;MIDI 01
511.460;000.094;65;000.398;MIDI 01
511.595;000.035;62;000.336;MIDI 01
511.565;000.132;89;000.539;MIDI 01
511.718;000.115;82;000.500;MIDI 01
511.802;000.095;53;000.328;MIDI 01
511.855;000.048;75;000.453;MIDI 01
511.990;000.116;89;000.547;MIDI 01
512.099;000.092;69;000.438;MIDI 01
512.145;000.116;81;000.484;MIDI 01
512.258;000.119;75;000.469;MIDI 01
512.302;000.128;63;000.422;MIDI 01
512.371;000.159;88;000.555;MIDI 01
512.455;000.131;60;000.438;MIDI 01
512.625;000.042;54;000.398;MIDI 01
512.489;000.186;81;000.500;MIDI 01
512.632;000.217;75;000.461;MIDI 01
512.889;000.105;72;000.383;MIDI 01
512.933;000.243;81;000.422;MIDI 01
513.059;000.140;75;000.406;MIDI 01
513.053;000.158;69;000.359;MIDI 01
513.222;000.047;63;000.328;MIDI 01
512.768;000.547;87;000.523;MIDI 01
513.249;000.274;84;000.430;MIDI 01
513.395;000.164;81;000.422;MIDI 01
513.520;000.111;55;000.383;MIDI 01
513.608;000.050;76;000.492;MIDI 01
513.828;000.105;93;000.516;MIDI 01
514.005;000.094;84;000.461;MIDI 01
513.919;000.203;72;000.367;MIDI 01
514.129;000.050;76;000.453;MIDI 01
514.274;000.109;91;000.570;MIDI 01
514.151;000.251;67;000.344;MIDI 01
514.407;000.119;84;000.516;MIDI 01
514.526;000.033;76;000.516;MIDI 01
514.369;000.325;64;000.312;MIDI 01
514.654;000.118;91;000.586;MIDI 01
514.812;000.081;84;000.445;MIDI 01
514.917;000.046;76;000.516;MIDI 01
514.759;000.267;72;000.375;MIDI 01
514.994;000.129;86;000.234;MIDI 01
515.080;000.134;90;000.531;MIDI 01
514.956;000.292;67;000.359;MIDI 01
515.232;000.082;84;000.430;MIDI 01
515.230;000.173;64;000.203;MIDI 01
515.361;000.046;76;000.469;MIDI 01
515.535;000.132;90;000.516;MIDI 01
515.681;000.091;84;000.438;MIDI 01
515.779;000.041;76;000.492;MIDI 01
515.628;000.206;72;000.367;MIDI 01
515.799;000.210;67;000.438;MIDI 01
515.924;000.120;91;000.578;MIDI 01
516.078;000.095;84;000.477;MIDI 01
516.173;000.052;76;000.539;MIDI 01
516.004;000.289;64;000.398;MIDI 01
516.328;000.155;91;000.523;MIDI 01
516.468;000.034;84;000.516;MIDI 01
516.395;000.130;72;000.375;MIDI 01
516.634;000.070;84;000.359;MIDI 01
516.623;000.208;67;000.383;MIDI 01
515.401;001.602;60;000.312;MIDI 01
516.949;000.068;64;000.312;MIDI 01
516.841;000.184;100;000.539;MIDI 01
517.232;000.126;56;000.445;MIDI 01
517.286;000.074;84;000.438;MIDI 01
517.040;000.399;91;000.430;MIDI 01
517.490;000.089;100;000.539;MIDI 01
517.684;000.120;89;000.422;MIDI 01
517.566;000.241;72;000.375;MIDI 01
517.781;000.081;84;000.477;MIDI 01
517.825;000.166;65;000.312;MIDI 01
517.921;000.156;98;000.570;MIDI 01
518.180;000.081;84;000.547;MIDI 01
518.064;000.226;89;000.531;MIDI 01
518.018;000.307;62;000.344;MIDI 01
518.317;000.170;98;000.586;MIDI 01
518.381;000.126;72;000.445;MIDI 01
518.445;000.207;89;000.539;MIDI 01
518.578;000.079;84;000.484;MIDI 01
518.576;000.120;65;000.398;MIDI 01
518.715;000.130;97;000.547;MIDI 01
518.750;000.174;62;000.352;MIDI 01
518.830;000.136;89;000.484;MIDI 01
518.959;000.045;83;000.469;MIDI 01
518.966;000.134;56;000.383;MIDI 01
519.124;000.089;97;000.492;MIDI 01
519.231;000.136;71;000.375;MIDI 01
519.269;000.130;89;000.445;MIDI 01
519.396;000.029;83;000.391;MIDI 01
519.453;000.110;65;000.391;MIDI 01
519.681;000.060;89;000.398;MIDI 01
519.541;000.211;98;000.516;MIDI 01
519.633;000.160;62;000.352;MIDI 01
519.831;000.053;86;000.430;MIDI 01
519.835;000.081;55;000.359;MIDI 01
520.017;000.097;101;000.516;MIDI 01
520.160;000.088;71;000.336;MIDI 01
520.430;000.054;77;000.391;MIDI 01
520.399;000.192;65;000.359;MIDI 01
520.600;000.167;91;000.453;MIDI 01
520.812;000.135;83;000.391;MIDI 01
520.685;000.281;62;000.281;MIDI 01
521.056;000.060;76;000.422;MIDI 01
520.961;000.207;55;000.297;MIDI 01
521.306;000.089;93;000.461;MIDI 01
521.520;000.062;84;000.406;MIDI 01
521.445;000.252;72;000.281;MIDI 01
521.672;000.041;76;000.281;MIDI 01
521.805;000.109;91;000.516;MIDI 01
521.745;000.263;67;000.156;MIDI 01
521.959;000.074;84;000.406;MIDI 01
522.083;000.046;76;000.477;MIDI 01
521.974;000.354;64;000.242;MIDI 01
522.231;000.107;91;000.555;MIDI 01
522.369;000.097;84;000.461;MIDI 01
522.487;000.028;76;000.453;MIDI 01
522.349;000.209;72;000.289;MIDI 01
522.596;000.079;86;000.125;MIDI 01
522.649;000.143;90;000.508;MIDI 01
522.538;000.310;67;000.352;MIDI 01
522.802;000.069;84;000.359;MIDI 01
522.948;000.032;76;000.344;MIDI 01
522.807;000.227;64;000.219;MIDI 01
523.118;000.082;90;000.477;MIDI 01
523.273;000.070;84;000.383;MIDI 01
523.244;000.174;72;000.281;MIDI 01
523.392;000.042;76;000.391;MIDI 01
523.416;000.177;67;000.344;MIDI 01
523.538;000.106;91;000.531;MIDI 01
523.699;000.090;84;000.438;MIDI 01
523.809;000.048;76;000.508;MIDI 01
523.636;000.328;64;000.312;MIDI 01
523.956;000.176;91;000.547;MIDI 01
524.108;000.036;84;000.461;MIDI 01
524.052;000.115;72;000.383;MIDI 01
524.290;000.069;84;000.422;MIDI 01
524.265;000.211;67;000.375;MIDI 01
524.496;000.168;100;000.547;MIDI 01
524.615;000.058;64;000.266;MIDI 01
522.979;001.716;60;000.250;MIDI 01
524.933;000.159;56;000.398;MIDI 01
525.005;000.120;84;000.406;MIDI 01
524.727;000.521;91;000.414;MIDI 01
525.263;000.104;100;000.570;MIDI 01
525.377;000.261;72;000.344;MIDI 01
525.628;000.076;84;000.477;MIDI 01
525.497;000.295;89;000.430;MIDI 01
525.692;000.173;65;000.203;MIDI 01
525.776;000.138;98;000.586;MIDI 01
525.942;000.180;89;000.516;MIDI 01
526.054;000.089;84;000.555;MIDI 01
525.877;000.342;62;000.328;MIDI 01
526.246;000.128;72;000.406;MIDI 01
526.192;000.201;98;000.633;MIDI 01
526.486;000.076;84;000.477;MIDI 01
526.343;000.229;89;000.586;MIDI 01
526.465;000.120;65;000.391;MIDI 01
526.612;000.243;93;000.180;MIDI 01
526.636;000.231;97;000.562;MIDI 01
526.630;000.310;62;000.398;MIDI 01
526.790;000.183;89;000.492;MIDI 01
526.997;000.077;83;000.492;MIDI 01
526.890;000.221;56;000.398;MIDI 01
527.208;000.176;97;000.539;MIDI 01
527.431;000.178;89;000.398;MIDI 01
527.614;000.041;83;000.414;MIDI 01
527.800;000.217;98;000.469;MIDI 01
527.335;000.721;73;000.469;MIDI 01
528.069;000.243;89;000.406;MIDI 01
527.602;000.753;65;000.375;MIDI 01
528.421;000.070;83;000.406;MIDI 01
528.733;000.092;99;000.453;MIDI 01
527.897;001.090;61;000.406;MIDI 01
529.006;000.168;89;000.375;MIDI 01
528.347;000.943;75;000.484;MIDI 01
529.219;000.082;83;000.336;MIDI 01
528.852;000.842;65;000.320;MIDI 01
529.523;000.228;97;000.430;MIDI 01
529.711;000.178;73;000.359;MIDI 01
529.217;000.876;61;000.273;MIDI 01
530.114;000.179;89;000.336;MIDI 01
530.862;000.341;54;000.242;MIDI 01
531.033;000.312;83;000.297;MIDI 01
531.358;000.161;95;000.344;MIDI 01
531.624;000.168;85;000.359;MIDI 01
531.860;000.263;90;000.344;MIDI 01
532.058;000.086;78;000.328;MIDI 01
532.209;000.083;85;000.344;MIDI 01
531.585;000.791;71;000.328;MIDI 01
532.365;000.078;82;000.344;MIDI 01
532.033;000.428;66;000.234;MIDI 01
532.540;000.160;94;000.375;MIDI 01
532.690;000.153;85;000.422;MIDI 01
532.719;000.248;70;000.422;MIDI 01
533.003;000.031;66;000.344;MIDI 01
533.014;000.042;78;000.266;MIDI 01
532.379;000.698;61;000.297;MIDI 01
532.868;000.229;90;000.367;MIDI 01
533.139;000.124;85;000.406;MIDI 01
533.244;000.034;46;000.383;MIDI 01
533.261;000.059;80;000.383;MIDI 01
533.392;000.067;92;000.391;MIDI 01
533.553;000.098;82;000.477;MIDI 01
533.817;000.078;74;000.320;MIDI 01
533.723;000.185;86;000.320;MIDI 01
533.975;000.054;82;000.375;MIDI 01
533.825;000.229;62;000.328;MIDI 01
533.517;000.556;68;000.461;MIDI 01
534.077;000.065;78;000.414;MIDI 01
534.207;000.100;90;000.406;MIDI 01
534.330;000.091;82;000.453;MIDI 01
534.091;000.342;58;000.398;MIDI 01
534.328;000.107;66;000.484;MIDI 01
534.469;000.039;86;000.414;MIDI 01
534.536;000.031;62;000.391;MIDI 01
534.573;000.057;74;000.367;MIDI 01
534.705;000.140;82;000.367;MIDI 01
534.770;000.078;47;000.438;MIDI 01
534.818;000.054;77;000.320;MIDI 01
534.946;000.048;89;000.211;MIDI 01
535.083;000.087;79;000.391;MIDI 01
535.210;000.120;83;000.430;MIDI 01
535.316;000.036;71;000.391;MIDI 01
535.435;000.056;79;000.375;MIDI 01
535.036;000.477;65;000.484;MIDI 01
535.542;000.069;75;000.391;MIDI 01
535.334;000.302;59;000.383;MIDI 01
535.665;000.073;87;000.406;MIDI 01
535.773;000.082;80;000.461;MIDI 01
535.783;000.184;63;000.477;MIDI 01
535.921;000.057;83;000.336;MIDI 01
535.959;000.049;59;000.445;MIDI 01
535.997;000.030;71;000.453;MIDI 01
535.583;000.461;56;000.406;MIDI 01
536.117;000.038;80;000.469;MIDI 01
536.191;000.032;44;000.500;MIDI 01
536.217;000.041;73;000.422;MIDI 01
536.323;000.052;85;000.359;MIDI 01
536.431;000.085;75;000.484;MIDI 01
536.620;000.041;68;000.344;MIDI 01
536.564;000.189;80;000.414;MIDI 01
536.735;000.036;75;000.359;MIDI 01
536.425;000.403;61;000.539;MIDI 01
536.669;000.207;56;000.383;MIDI 01
536.839;000.042;71;000.398;MIDI 01
536.947;000.120;83;000.445;MIDI 01
537.082;000.092;75;000.477;MIDI 01
537.102;000.102;59;000.492;MIDI 01
537.193;000.143;80;000.508;MIDI 01
537.296;000.041;56;000.461;MIDI 01
536.876;000.478;51;000.445;MIDI 01
537.322;000.034;68;000.344;MIDI 01
537.398;000.065;75;000.422;MIDI 01
537.521;000.057;71;000.469;MIDI 01
537.535;000.049;37;000.398;MIDI 01
537.647;000.052;83;000.391;MIDI 01
537.766;000.108;73;000.469;MIDI 01
537.930;000.089;78;000.375;MIDI 01
538.007;000.031;66;000.406;MIDI 01
537.797;000.298;59;000.469;MIDI 01
538.107;000.058;73;000.453;MIDI 01
538.019;000.176;54;000.391;MIDI 01
538.210;000.073;70;000.461;MIDI 01
538.329;000.090;82;000.430;MIDI 01
538.436;000.121;73;000.484;MIDI 01
538.673;000.041;66;000.398;MIDI 01
538.585;000.130;78;000.414;MIDI 01
538.205;000.528;49;000.469;MIDI 01
538.419;000.333;58;000.492;MIDI 01
538.790;000.038;73;000.438;MIDI 01
538.689;000.229;54;000.398;MIDI 01
538.934;000.073;75;000.445;MIDI 01
538.939;000.111;46;000.508;MIDI 01
539.092;000.072;87;000.430;MIDI 01
539.205;000.095;78;000.461;MIDI 01
539.418;000.029;70;000.383;MIDI 01
539.349;000.141;82;000.367;MIDI 01
539.193;000.390;63;000.531;MIDI 01
539.510;000.082;78;000.453;MIDI 01
539.433;000.210;58;000.445;MIDI 01
539.609;000.049;73;000.477;MIDI 01
539.716;000.114;85;000.492;MIDI 01
539.845;000.070;78;000.500;MIDI 01
539.821;000.172;61;000.578;MIDI 01
540.015;000.044;58;000.508;MIDI 01
539.634;000.452;54;000.492;MIDI 01
539.945;000.149;82;000.531;MIDI 01
540.074;000.033;70;000.367;MIDI 01
540.143;000.080;78;000.539;MIDI 01
540.252;000.047;37;000.484;MIDI 01
540.249;000.067;70;000.414;MIDI 01
540.349;000.061;82;000.477;MIDI 01
540.485;000.058;73;000.531;MIDI 01
540.645;000.047;77;000.305;MIDI 01
540.479;000.239;58;000.562;MIDI 01
540.675;000.059;65;000.516;MIDI 01
540.802;000.057;73;000.477;MIDI 01
540.689;000.246;53;000.523;MIDI 01
540.906;000.101;68;000.469;MIDI 01
541.005;000.109;80;000.484;MIDI 01
541.139;000.109;73;000.539;MIDI 01
541.364;000.032;65;000.398;MIDI 01
541.283;000.128;77;000.469;MIDI 01
541.461;000.032;73;000.352;MIDI 01
541.136;000.365;56;000.570;MIDI 01
540.916;000.589;47;000.531;MIDI 01
541.361;000.198;53;000.469;MIDI 01
541.574;000.060;74;000.508;MIDI 01
541.686;000.086;86;000.523;MIDI 01
541.864;000.145;77;000.430;MIDI 01
542.102;000.035;68;000.352;MIDI 01
542.075;000.075;80;000.289;MIDI 01
542.204;000.145;77;000.398;MIDI 01
541.853;000.515;62;000.523;MIDI 01
542.344;000.075;73;000.391;MIDI 01
542.124;000.309;56;000.375;MIDI 01
542.462;000.123;85;000.391;MIDI 01
542.605;000.144;77;000.406;MIDI 01
542.766;000.055;80;000.398;MIDI 01
542.603;000.298;61;000.492;MIDI 01
542.881;000.062;56;000.383;MIDI 01
542.342;000.623;53;000.383;MIDI 01
542.911;000.073;68;000.344;MIDI 01
543.062;000.034;73;000.359;MIDI 01
543.314;000.209;42;000.430;MIDI 01
543.492;000.146;83;000.375;MIDI 01
543.656;000.080;95;000.375;MIDI 01
543.828;000.132;85;000.406;MIDI 01
544.110;000.048;78;000.297;MIDI 01
544.013;000.149;90;000.336;MIDI 01
543.812;000.466;71;000.406;MIDI 01
544.209;000.095;85;000.414;MIDI 01
544.106;000.284;66;000.320;MIDI 01
544.350;000.060;82;000.406;MIDI 01
544.466;000.089;94;000.453;MIDI 01
544.583;000.094;85;000.508;MIDI 01
544.568;000.118;70;000.539;MIDI 01
544.779;000.040;66;000.477;MIDI 01
544.803;000.032;78;000.406;MIDI 01
544.354;000.486;61;000.414;MIDI 01
544.698;000.180;90;000.484;MIDI 01
544.891;000.124;85;000.500;MIDI 01
544.995;000.032;46;000.523;MIDI 01
545.013;000.060;80;000.453;MIDI 01
545.106;000.071;92;000.531;MIDI 01
545.260;000.084;82;000.508;MIDI 01
545.435;000.044;74;000.438;MIDI 01
545.429;000.054;86;000.227;MIDI 01
545.232;000.383;68;000.523;MIDI 01
545.562;000.058;82;000.438;MIDI 01
545.457;000.198;62;000.445;MIDI 01
545.650;000.079;78;000.500;MIDI 01
545.752;000.102;90;000.500;MIDI 01
545.858;000.075;82;000.539;MIDI 01
545.901;000.111;66;000.531;MIDI 01
545.696;000.365;58;000.461;MIDI 01
546.049;000.033;62;000.484;MIDI 01
546.032;000.066;74;000.539;MIDI 01
545.979;000.145;86;000.414;MIDI 01
546.139;000.092;82;000.453;MIDI 01
546.242;000.032;47;000.539;MIDI 01
546.250;000.071;77;000.508;MIDI 01
546.333;000.033;89;000.555;MIDI 01
546.462;000.076;79;000.586;MIDI 01
546.627;000.035;71;000.508;MIDI 01
546.602;000.071;83;000.414;MIDI 01
546.478;000.286;65;000.523;MIDI 01
546.724;000.109;79;000.500;MIDI 01
546.840;000.062;75;000.453;MIDI 01
546.681;000.232;59;000.516;MIDI 01
546.925;000.103;87;000.555;MIDI 01
547.041;000.078;80;000.578;MIDI 01
547.066;000.157;63;000.562;MIDI 01
546.885;000.357;56;000.547;MIDI 01
547.164;000.104;83;000.500;MIDI 01
547.228;000.044;71;000.508;MIDI 01
547.211;000.075;59;000.547;MIDI 01
547.337;000.064;80;000.555;MIDI 01
547.430;000.040;44;000.617;MIDI 01
547.433;000.088;73;000.555;MIDI 01
547.543;000.088;85;000.508;MIDI 01
547.669;000.084;75;000.555;MIDI 01
547.850;000.046;68;000.422;MIDI 01
547.789;000.158;80;000.477;MIDI 01
547.694;000.257;61;000.586;MIDI 01
547.930;000.061;75;000.492;MIDI 01
547.906;000.188;56;000.531;MIDI 01
548.041;000.075;71;000.562;MIDI 01
548.159;000.107;83;000.539;MIDI 01
548.267;000.102;75;000.578;MIDI 01
548.279;000.109;59;000.594;MIDI 01
548.462;000.048;56;000.578;MIDI 01
548.079;000.455;51;000.570;MIDI 01
548.471;000.067;68;000.453;MIDI 01
548.381;000.184;80;000.547;MIDI 01
548.551;000.102;75;000.555;MIDI 01
548.680;000.043;37;000.555;MIDI 01
548.685;000.073;71;000.570;MIDI 01
548.811;000.065;83;000.508;MIDI 01
548.925;000.092;73;000.555;MIDI 01
549.110;000.041;66;000.516;MIDI 01
549.040;000.157;78;000.477;MIDI 01
548.923;000.298;59;000.586;MIDI 01
549.189;000.053;73;000.516;MIDI 01
549.118;000.202;54;000.531;MIDI 01
549.299;000.076;70;000.562;MIDI 01
549.392;000.097;82;000.508;MIDI 01
549.498;000.094;73;000.609;MIDI 01
549.308;000.388;49;000.586;MIDI 01
549.692;000.024;66;000.453;MIDI 01
549.614;000.104;78;000.539;MIDI 01
549.508;000.215;58;000.656;MIDI 01
549.773;000.023;73;000.445;MIDI 01
549.697;000.159;54;000.539;MIDI 01
549.869;000.070;46;000.602;MIDI 01
549.893;000.051;75;000.539;MIDI 01
549.984;000.095;87;000.570;MIDI 01
550.103;000.092;78;000.562;MIDI 01
550.310;000.030;70;000.469;MIDI 01
550.124;000.258;63;000.633;MIDI 01
550.225;000.177;82;000.469;MIDI 01
550.406;000.101;78;000.484;MIDI 01
550.372;000.162;58;000.461;MIDI 01
550.505;000.048;73;000.516;MIDI 01
550.603;000.114;85;000.539;MIDI 01
550.714;000.094;78;000.555;MIDI 01
550.692;000.123;61;000.656;MIDI 01
550.530;000.342;54;000.484;MIDI 01
550.862;000.068;58;000.578;MIDI 01
550.911;000.040;70;000.516;MIDI 01
550.814;000.166;82;000.547;MIDI 01
550.979;000.097;78;000.547;MIDI 01
551.084;000.038;37;000.516;MIDI 01
551.080;000.082;70;000.547;MIDI 01
551.174;000.082;82;000.555;MIDI 01
551.308;000.086;73;000.562;MIDI 01
551.289;000.188;58;000.672;MIDI 01
551.445;000.043;77;000.359;MIDI 01
551.443;000.069;65;000.523;MIDI 01
551.553;000.103;73;000.562;MIDI 01
551.487;000.180;53;000.555;MIDI 01
551.653;000.104;68;000.562;MIDI 01
551.748;000.095;80;000.562;MIDI 01
551.858;000.110;73;000.594;MIDI 01
552.025;000.051;65;000.547;MIDI 01
551.852;000.244;56;000.719;MIDI 01
551.656;000.456;47;000.594;MIDI 01
551.984;000.130;77;000.516;MIDI 01
552.061;000.099;53;000.562;MIDI 01
552.139;000.033;73;000.477;MIDI 01
552.237;000.073;74;000.578;MIDI 01
552.348;000.072;86;000.586;MIDI 01
552.456;000.149;77;000.539;MIDI 01
552.665;000.064;68;000.555;MIDI 01
552.598;000.205;80;000.555;MIDI 01
552.439;000.376;62;000.695;MIDI 01
552.720;000.219;56;000.602;MIDI 01
552.760;000.194;77;000.586;MIDI 01
552.897;000.145;73;000.672;MIDI 01
553.130;000.027;78;000.438;MIDI 01
553.010;000.159;85;000.602;MIDI 01
553.146;000.130;77;000.625;MIDI 01
553.127;000.178;61;000.750;MIDI 01
553.271;000.082;80;000.562;MIDI 01
552.901;000.495;53;000.594;MIDI 01
553.350;000.062;56;000.617;MIDI 01
553.406;000.114;68;000.609;MIDI 01
553.518;000.073;73;000.617;MIDI 01
553.731;000.118;42;000.680;MIDI 01
553.837;000.127;83;000.680;MIDI 01
554.014;000.104;95;000.609;MIDI 01
554.170;000.123;85;000.609;MIDI 01
554.389;000.048;78;000.586;MIDI 01
554.297;000.145;90;000.578;MIDI 01
554.145;000.310;71;000.648;MIDI 01
554.460;000.123;85;000.555;MIDI 01
554.379;000.213;66;000.555;MIDI 01
554.566;000.084;82;000.656;MIDI 01
554.674;000.106;94;000.609;MIDI 01
554.790;000.100;85;000.617;MIDI 01
554.805;000.125;70;000.625;MIDI 01
554.962;000.048;66;000.547;MIDI 01
554.580;000.446;61;000.594;MIDI 01
554.978;000.064;78;000.570;MIDI 01
554.898;000.222;90;000.586;MIDI 01
555.154;000.033;46;000.633;MIDI 01
555.048;000.155;85;000.570;MIDI 01
555.158;000.080;80;000.680;MIDI 01
555.255;000.083;92;000.625;MIDI 01
555.411;000.070;82;000.562;MIDI 01
555.572;000.052;74;000.523;MIDI 01
555.397;000.242;68;000.617;MIDI 01
555.530;000.194;86;000.477;MIDI 01
555.590;000.167;62;000.562;MIDI 01
555.666;000.096;82;000.570;MIDI 01
555.761;000.093;78;000.641;MIDI 01
555.852;000.043;90;000.578;MIDI 01
555.957;000.080;82;000.562;MIDI 01
556.064;000.002;87;000.383;MIDI 01
555.980;000.107;66;000.547;MIDI 01
556.098;000.038;86;000.297;MIDI 01
556.094;000.049;62;000.531;MIDI 01
555.778;000.374;58;000.594;MIDI 01
556.109;000.074;74;000.602;MIDI 01
556.204;000.078;82;000.516;MIDI 01
556.290;000.029;47;000.641;MIDI 01
556.303;000.065;77;000.648;MIDI 01
556.356;000.052;48;000.195;MIDI 01
556.392;000.049;89;000.633;MIDI 01
556.518;000.070;79;000.586;MIDI 01
556.647;000.042;71;000.500;MIDI 01
556.657;000.045;72;000.188;MIDI 01
556.516;000.216;65;000.570;MIDI 01
556.728;000.105;79;000.602;MIDI 01
556.683;000.193;59;000.523;MIDI 01
556.833;000.097;75;000.656;MIDI 01
556.919;000.109;87;000.609;MIDI 01
557.035;000.084;80;000.594;MIDI 01
557.060;000.126;63;000.531;MIDI 01
557.207;000.044;71;000.555;MIDI 01
557.183;000.071;59;000.555;MIDI 01
557.136;000.129;83;000.531;MIDI 01
556.870;000.404;56;000.641;MIDI 01
557.296;000.054;80;000.562;MIDI 01
557.385;000.033;44;000.641;MIDI 01
557.382;000.074;73;000.672;MIDI 01
557.481;000.085;85;000.586;MIDI 01
557.585;000.105;75;000.617;MIDI 01
557.746;000.074;68;000.555;MIDI 01
557.607;000.223;61;000.656;MIDI 01
557.714;000.177;80;000.523;MIDI 01
557.854;000.079;75;000.500;MIDI 01
557.781;000.178;56;000.602;MIDI 01
557.932;000.081;71;000.602;MIDI 01
558.046;000.131;83;000.594;MIDI 01
558.170;000.094;75;000.609;MIDI 01
558.168;000.123;59;000.531;MIDI 01
558.333;000.052;56;000.578;MIDI 01
557.951;000.453;51;000.633;MIDI 01
558.356;000.081;68;000.555;MIDI 01
558.273;000.194;80;000.523;MIDI 01
558.422;000.099;75;000.586;MIDI 01
558.552;000.030;37;000.570;MIDI 01
558.554;000.073;71;000.641;MIDI 01
558.604;000.049;39;000.297;MIDI 01
558.685;000.074;83;000.523;MIDI 01
558.811;000.103;73;000.617;MIDI 01
558.994;000.069;66;000.570;MIDI 01
558.809;000.265;59;000.609;MIDI 01
558.928;000.194;78;000.547;MIDI 01
559.074;000.095;73;000.594;MIDI 01
558.979;000.210;54;000.539;MIDI 01
559.173;000.084;70;000.672;MIDI 01
559.261;000.099;82;000.602;MIDI 01
559.165;000.306;49;000.602;MIDI 01
559.377;000.103;73;000.609;MIDI 01
559.365;000.172;58;000.641;MIDI 01
559.545;000.062;66;000.586;MIDI 01
559.527;000.135;54;000.562;MIDI 01
559.495;000.170;78;000.523;MIDI 01
559.634;000.040;73;000.547;MIDI 01
559.721;000.072;71;000.648;MIDI 01
559.698;000.127;46;000.672;MIDI 01
559.793;000.111;83;000.578;MIDI 01
559.859;000.065;81;000.188;MIDI 01
559.901;000.097;59;000.633;MIDI 01
559.920;000.084;73;000.633;MIDI 01
560.076;000.043;66;000.602;MIDI 01
560.023;000.101;78;000.516;MIDI 01
560.058;000.073;54;000.656;MIDI 01
560.135;000.035;73;000.508;MIDI 01
560.232;000.024;42;000.633;MIDI 01
560.244;000.062;72;000.633;MIDI 01
560.377;000.039;86;000.281;MIDI 01
560.345;000.103;84;000.586;MIDI 01
560.426;000.095;60;000.656;MIDI 01
560.441;000.113;78;000.625;MIDI 01
560.615;000.069;54;000.641;MIDI 01
560.603;000.098;70;000.641;MIDI 01
560.550;000.192;82;000.586;MIDI 01
560.701;000.147;78;000.633;MIDI 01
560.818;000.031;37;000.664;MIDI 01
560.804;000.099;73;000.688;MIDI 01
560.925;000.160;85;000.672;MIDI 01
561.051;000.076;61;000.711;MIDI 01
561.059;000.114;78;000.672;MIDI 01
561.254;000.073;54;000.594;MIDI 01
561.223;000.109;70;000.641;MIDI 01
561.163;000.223;82;000.562;MIDI 01
561.339;000.134;78;000.633;MIDI 01
561.413;000.106;54;000.609;MIDI 01
561.473;000.096;62;000.578;MIDI 01
561.559;000.058;69;000.758;MIDI 01
561.623;000.171;74;000.680;MIDI 01
561.740;000.140;78;000.656;MIDI 01
561.845;000.192;86;000.633;MIDI 01
561.950;000.133;81;000.633;MIDI 01
562.036;000.123;78;000.641;MIDI 01
562.145;000.060;74;000.648;MIDI 01
562.209;000.124;69;000.586;MIDI 01
562.314;000.079;66;000.625;MIDI 01
562.406;000.035;62;000.562;MIDI 01
562.496;000.150;57;000.648;MIDI 01
562.659;000.142;50;000.594;MIDI 01
562.761;000.135;45;000.773;MIDI 01
562.576;000.374;54;000.586;MIDI 01
562.749;000.249;37;000.664;MIDI 01
562.983;000.108;50;000.523;MIDI 01
562.995;000.106;42;000.523;MIDI 01
563.105;000.045;54;000.562;MIDI 01
563.100;000.069;45;000.547;MIDI 01
563.222;000.067;50;000.594;MIDI 01
563.219;000.120;57;000.625;MIDI 01
563.355;000.075;54;000.594;MIDI 01
563.349;000.111;62;000.656;MIDI 01
563.476;000.050;57;000.641;MIDI 01
563.465;000.064;66;000.641;MIDI 01
563.595;000.070;62;000.625;MIDI 01
563.593;000.135;69;000.680;MIDI 01
563.717;000.095;74;000.688;MIDI 01
563.720;000.097;66;000.609;MIDI 01
563.826;000.036;78;000.609;MIDI 01
563.822;000.056;69;000.633;MIDI 01
563.944;000.067;74;000.641;MIDI 01
563.936;000.104;81;000.695;MIDI 01
564.057;000.089;78;000.602;MIDI 01
564.069;000.079;86;000.688;MIDI 01
564.152;000.054;81;000.617;MIDI 01
564.160;000.057;90;000.586;MIDI 01
564.250;000.041;91;000.672;MIDI 01
564.272;000.035;86;000.656;MIDI 01
564.362;001.071;90;000.805;MIDI 01
564.354;001.184;98;000.797;MIDI 01
566.261;000.267;74;000.680;MIDI 01
566.258;000.379;86;000.734;MIDI 01
566.846;000.169;83;000.703;MIDI 01
566.844;000.175;95;000.758;MIDI 01
566.840;000.320;71;000.547;MIDI 01
567.201;000.078;93;000.734;MIDI 01
567.203;000.089;81;000.703;MIDI 01
567.215;000.180;69;000.516;MIDI 01
566.264;001.164;62;000.500;MIDI 01
567.457;000.058;91;000.773;MIDI 01
567.460;000.058;79;000.695;MIDI 01
567.448;000.233;67;000.539;MIDI 01
567.668;000.058;78;000.656;MIDI 01
567.670;000.058;90;000.664;MIDI 01
567.666;000.156;66;000.516;MIDI 01
567.839;000.032;88;000.734;MIDI 01
567.841;000.032;76;000.609;MIDI 01
567.836;000.124;64;000.547;MIDI 01
568.003;000.027;84;000.617;MIDI 01
568.001;000.032;74;000.555;MIDI 01
567.979;000.111;62;000.570;MIDI 01
568.152;000.044;78;000.672;MIDI 01
568.150;000.048;90;000.773;MIDI 01
568.178;000.026;80;000.453;MIDI 01
568.154;000.119;66;000.633;MIDI 01
568.381;000.030;69;000.680;MIDI 01
568.381;000.048;81;000.711;MIDI 01
568.365;000.132;57;000.609;MIDI 01
568.592;000.046;86;000.789;MIDI 01
568.594;000.053;74;000.719;MIDI 01
568.580;000.097;62;000.688;MIDI 01
568.881;000.026;85;000.656;MIDI 01
568.879;000.029;73;000.664;MIDI 01
568.888;000.033;61;000.617;MIDI 01
568.985;000.061;61;000.703;MIDI 01
568.978;000.150;85;000.633;MIDI 01
568.981;000.190;73;000.523;MIDI 01
569.200;000.026;37;000.641;MIDI 01
569.549;000.367;50;000.648;MIDI 01
569.553;000.400;54;000.648;MIDI 01
569.547;000.441;59;000.711;MIDI 01
569.557;000.593;78;000.734;MIDI 01
569.555;000.647;71;000.719;MIDI 01
569.551;000.708;83;000.812;MIDI 01
570.690;000.095;71;000.719;MIDI 01
570.685;000.164;83;000.734;MIDI 01
571.080;000.065;79;000.703;MIDI 01
571.082;000.064;91;000.750;MIDI 01
571.078;000.293;67;000.586;MIDI 01
571.355;000.057;78;000.711;MIDI 01
571.358;000.058;90;000.750;MIDI 01
570.673;000.876;59;000.633;MIDI 01
571.360;000.191;66;000.570;MIDI 01
571.585;000.051;88;000.750;MIDI 01
571.587;000.051;76;000.688;MIDI 01
571.602;000.194;64;000.578;MIDI 01
571.773;000.033;86;000.688;MIDI 01
571.772;000.040;74;000.688;MIDI 01
571.783;000.149;62;000.570;MIDI 01
571.936;000.026;85;000.648;MIDI 01
571.932;000.032;73;000.672;MIDI 01
571.928;000.144;61;000.609;MIDI 01
572.073;000.023;71;000.656;MIDI 01
572.056;000.049;85;000.156;MIDI 01
572.071;000.040;83;000.695;MIDI 01
572.069;000.090;59;000.609;MIDI 01
572.216;000.017;88;000.594;MIDI 01
572.219;000.028;74;000.609;MIDI 01
572.221;000.028;76;000.570;MIDI 01
572.232;000.022;86;000.484;MIDI 01
572.227;000.043;71;000.023;MIDI 01
572.207;000.119;62;000.617;MIDI 01
572.396;000.031;66;000.688;MIDI 01
572.398;000.046;78;000.695;MIDI 01
572.394;000.091;54;000.547;MIDI 01
572.618;000.048;83;000.719;MIDI 01
572.616;000.054;71;000.711;MIDI 01
572.614;000.081;59;000.617;MIDI 01
572.902;000.030;69;000.648;MIDI 01
572.898;000.038;81;000.711;MIDI 01
572.900;000.038;57;000.664;MIDI 01
572.999;000.056;57;000.711;MIDI 01
573.009;000.146;81;000.797;MIDI 01
573.011;000.215;69;000.734;MIDI 01
573.212;000.027;37;000.656;MIDI 01
573.585;000.397;50;000.648;MIDI 01
573.590;000.417;55;000.672;MIDI 01
573.583;000.489;59;000.695;MIDI 01
573.592;000.566;74;000.742;MIDI 01
573.594;000.685;67;000.734;MIDI 01
573.587;000.810;79;000.797;MIDI 01
574.726;000.124;67;000.570;MIDI 01
574.716;000.226;79;000.664;MIDI 01
575.169;000.092;76;000.609;MIDI 01
575.163;000.110;88;000.664;MIDI 01
575.153;000.357;64;000.648;MIDI 01
575.459;000.075;74;000.680;MIDI 01
575.457;000.080;86;000.711;MIDI 01
574.675;000.996;55;000.656;MIDI 01
575.455;000.325;62;000.594;MIDI 01
575.742;000.072;73;000.727;MIDI 01
575.745;000.072;85;000.695;MIDI 01
575.734;000.246;61;000.617;MIDI 01
576.020;000.039;71;000.633;MIDI 01
576.018;000.054;83;000.703;MIDI 01
576.195;000.027;81;000.656;MIDI 01
576.016;000.208;59;000.578;MIDI 01
576.201;000.033;69;000.555;MIDI 01
576.214;000.023;71;000.445;MIDI 01
576.200;000.171;57;000.594;MIDI 01
576.339;000.043;67;000.664;MIDI 01
576.341;000.052;79;000.727;MIDI 01
576.355;000.093;55;000.625;MIDI 01
576.499;000.036;83;000.711;MIDI 01
576.503;000.051;71;000.664;MIDI 01
576.542;000.030;72;000.406;MIDI 01
576.495;000.144;59;000.648;MIDI 01
576.710;000.034;62;000.648;MIDI 01
576.708;000.049;74;000.719;MIDI 01
576.698;000.218;50;000.617;MIDI 01
576.927;000.042;79;000.750;MIDI 01
576.925;000.053;67;000.734;MIDI 01
576.923;000.068;55;000.664;MIDI 01
577.435;000.031;50;000.633;MIDI 01
577.440;000.036;54;000.617;MIDI 01
577.446;000.032;37;000.594;MIDI 01
577.438;000.043;66;000.633;MIDI 01
577.433;000.060;59;000.609;MIDI 01
577.571;000.304;59;000.633;MIDI 01
577.566;000.317;66;000.727;MIDI 01
577.562;000.352;54;000.648;MIDI 01
577.568;000.473;50;000.516;MIDI 01
577.570;000.484;37;000.633;MIDI 01
578.383;000.739;65;000.719;MIDI 01
578.411;000.748;50;000.609;MIDI 01
578.399;000.832;53;000.633;MIDI 01
578.396;000.878;59;000.672;MIDI 01
578.409;000.867;44;000.648;MIDI 01
578.404;000.911;37;000.625;MIDI 01
579.865;000.545;65;000.758;MIDI 01
579.875;000.617;50;000.648;MIDI 01
579.873;000.673;44;000.664;MIDI 01
579.871;000.779;37;000.625;MIDI 01
579.878;000.778;53;000.695;MIDI 01
579.877;000.878;59;000.703;MIDI 01
581.464;000.603;65;000.656;MIDI 01
581.485;000.605;59;000.562;MIDI 01
581.497;000.621;53;000.523;MIDI 01
581.493;000.638;44;000.477;MIDI 01
581.495;000.638;37;000.445;MIDI 01
581.498;000.641;50;000.422;MIDI 01
582.591;000.509;50;000.281;MIDI 01
582.577;000.582;65;000.469;MIDI 01
582.579;000.600;44;000.359;MIDI 01
582.593;000.611;53;000.398;MIDI 01
582.574;000.654;37;000.344;MIDI 01
582.548;000.715;59;000.523;MIDI 01
584.051;000.875;50;000.180;MIDI 01
584.032;000.922;37;000.266;MIDI 01
584.053;000.954;44;000.234;MIDI 01
583.993;001.321;53;000.375;MIDI 01
584.013;001.366;65;000.320;MIDI 01
584.027;001.354;59;000.312;MIDI 01
585.590;000.144;44;000.133;MIDI 01
585.607;000.131;50;000.102;MIDI 01
585.581;000.201;37;000.094;MIDI 01
585.993;000.093;44;000.109;MIDI 01
586.002;000.085;37;000.156;MIDI 01
585.979;000.126;50;000.156;MIDI 01
586.314;000.065;50;000.195;MIDI 01
586.316;000.068;44;000.133;MIDI 01
586.311;000.080;37;000.141;MIDI 01
586.586;000.065;44;000.219;MIDI 01
586.579;000.074;50;000.172;MIDI 01
586.584;000.082;37;000.203;MIDI 01
586.847;000.070;50;000.195;MIDI 01
586.866;000.059;44;000.195;MIDI 01
586.851;000.087;37;000.203;MIDI 01
587.106;000.062;50;000.219;MIDI 01
587.115;000.065;44;000.227;MIDI 01
587.110;000.077;37;000.172;MIDI 01
587.355;000.072;50;000.195;MIDI 01
587.361;000.081;37;000.188;MIDI 01
587.381;000.064;44;000.125;MIDI 01
587.484;000.050;77;000.438;MIDI 01
587.498;000.045;71;000.367;MIDI 01
587.636;000.058;44;000.117;MIDI 01
587.632;000.065;37;000.133;MIDI 01
587.639;000.067;50;000.062;MIDI 01
587.631;000.132;77;000.461;MIDI 01
587.627;000.186;71;000.312;MIDI 01
587.892;000.061;50;000.156;MIDI 01
587.894;000.061;44;000.195;MIDI 01
587.902;000.067;37;000.164;MIDI 01
588.163;000.075;44;000.117;MIDI 01
588.349;000.073;44;000.133;MIDI 01
588.323;000.108;50;000.141;MIDI 01
588.355;000.089;37;000.023;MIDI 01
588.491;000.043;71;000.305;MIDI 01
588.492;000.089;65;000.273;MIDI 01
588.605;000.055;50;000.148;MIDI 01
588.609;000.057;71;000.430;MIDI 01
588.621;000.056;44;000.188;MIDI 01
588.599;000.103;65;000.289;MIDI 01
588.580;000.178;37;000.133;MIDI 01
588.836;000.058;50;000.164;MIDI 01
588.862;000.065;44;000.188;MIDI 01
589.034;000.055;50;000.234;MIDI 01
589.047;000.049;44;000.156;MIDI 01
588.991;000.211;37;000.039;MIDI 01
589.255;000.066;44;000.289;MIDI 01
589.249;000.082;50;000.297;MIDI 01
589.436;000.042;65;000.352;MIDI 01
589.439;000.054;59;000.312;MIDI 01
589.516;000.068;44;000.219;MIDI 01
589.513;000.081;50;000.102;MIDI 01
589.573;000.068;65;000.430;MIDI 01
589.567;000.123;59;000.367;MIDI 01
589.682;000.067;50;000.070;MIDI 01
589.698;000.057;44;000.062;MIDI 01
589.896;000.050;50;000.312;MIDI 01
589.919;000.057;44;000.234;MIDI 01
589.473;000.573;37;000.023;MIDI 01
590.107;000.069;50;000.328;MIDI 01
590.139;000.053;44;000.344;MIDI 01
590.354;000.044;44;000.336;MIDI 01
590.348;000.055;50;000.328;MIDI 01
590.389;000.057;59;000.383;MIDI 01
590.395;000.055;53;000.312;MIDI 01
590.565;000.047;44;000.305;MIDI 01
590.555;000.066;50;000.352;MIDI 01
590.784;000.045;50;000.312;MIDI 01
590.794;000.057;44;000.203;MIDI 01
590.772;000.157;37;000.164;MIDI 01
590.977;000.056;50;000.375;MIDI 01
591.016;000.050;44;000.320;MIDI 01
590.967;000.112;37;000.117;MIDI 01
591.211;000.052;50;000.242;MIDI 01
591.226;000.053;44;000.312;MIDI 01
591.194;000.091;37;000.109;MIDI 01
590.500;000.909;59;000.414;MIDI 01
590.508;000.905;53;000.375;MIDI 01
591.443;000.036;44;000.266;MIDI 01
591.436;000.050;50;000.156;MIDI 01
591.414;000.089;37;000.148;MIDI 01
591.636;000.049;44;000.289;MIDI 01
591.642;000.046;50;000.305;MIDI 01
591.623;000.090;37;000.195;MIDI 01
591.867;000.075;44;000.258;MIDI 01
591.861;000.085;37;000.266;MIDI 01
591.855;000.097;50;000.289;MIDI 01
592.149;000.046;44;000.195;MIDI 01
592.155;000.056;50;000.148;MIDI 01
592.127;000.158;37;000.023;MIDI 01
591.878;000.565;59;000.391;MIDI 01
591.905;000.540;53;000.305;MIDI 01
592.386;000.068;44;000.180;MIDI 01
592.389;000.072;50;000.125;MIDI 01
592.587;000.069;50;000.234;MIDI 01
592.618;000.059;44;000.109;MIDI 01
592.870;000.077;44;000.273;MIDI 01
592.865;000.096;50;000.219;MIDI 01
592.862;000.243;59;000.383;MIDI 01
592.886;000.249;53;000.289;MIDI 01
593.192;000.068;50;000.125;MIDI 01
593.188;000.091;44;000.266;MIDI 01
593.700;000.173;44;000.195;MIDI 01
594.001;000.097;44;000.258;MIDI 01
594.005;000.095;50;000.312;MIDI 01
594.003;000.107;36;000.258;MIDI 01
593.690;000.532;53;000.250;MIDI 01
594.266;000.039;44;000.312;MIDI 01
594.240;000.075;50;000.242;MIDI 01
593.670;000.647;60;000.336;MIDI 01
594.266;000.092;36;000.023;MIDI 01
594.477;000.044;44;000.289;MIDI 01
594.477;000.054;50;000.172;MIDI 01
594.477;000.062;36;000.086;MIDI 01
594.700;000.046;44;000.258;MIDI 01
594.695;000.059;50;000.258;MIDI 01
594.725;000.062;36;000.023;MIDI 01
594.919;000.064;50;000.250;MIDI 01
594.942;000.056;44;000.203;MIDI 01
595.141;000.058;50;000.227;MIDI 01
595.175;000.051;44;000.195;MIDI 01
595.357;000.074;50;000.195;MIDI 01
595.392;000.059;44;000.164;MIDI 01
595.478;000.033;84;000.398;MIDI 01
595.491;000.042;77;000.297;MIDI 01
595.624;000.051;50;000.117;MIDI 01
595.605;000.074;84;000.508;MIDI 01
595.638;000.045;44;000.242;MIDI 01
595.622;000.071;36;000.047;MIDI 01
595.603;000.095;77;000.406;MIDI 01
595.850;000.067;50;000.250;MIDI 01
595.855;000.068;44;000.258;MIDI 01
596.085;000.059;50;000.266;MIDI 01
596.130;000.054;44;000.172;MIDI 01
596.312;000.068;44;000.305;MIDI 01
596.292;000.105;50;000.289;MIDI 01
596.443;000.034;77;000.414;MIDI 01
596.449;000.042;72;000.359;MIDI 01
596.572;000.059;72;000.406;MIDI 01
596.590;000.047;44;000.312;MIDI 01
596.567;000.071;77;000.539;MIDI 01
596.580;000.069;50;000.297;MIDI 01
596.587;000.073;36;000.117;MIDI 01
596.820;000.068;44;000.297;MIDI 01
596.822;000.073;50;000.297;MIDI 01
596.840;000.064;36;000.172;MIDI 01
597.065;000.042;44;000.273;MIDI 01
597.038;000.075;50;000.297;MIDI 01
597.079;000.058;36;000.125;MIDI 01
597.265;000.057;44;000.344;MIDI 01
597.288;000.065;36;000.125;MIDI 01
597.241;000.122;50;000.289;MIDI 01
597.374;000.046;65;000.383;MIDI 01
597.360;000.061;72;000.445;MIDI 01
597.500;000.079;72;000.516;MIDI 01
597.510;000.078;65;000.406;MIDI 01
597.541;000.055;44;000.289;MIDI 01
597.531;000.077;50;000.336;MIDI 01
597.549;000.066;36;000.156;MIDI 01
597.771;000.057;50;000.328;MIDI 01
597.777;000.053;44;000.312;MIDI 01
597.791;000.061;36;000.141;MIDI 01
597.983;000.068;50;000.336;MIDI 01
597.997;000.064;44;000.305;MIDI 01
598.042;000.074;36;000.031;MIDI 01
598.205;000.046;44;000.305;MIDI 01
598.183;000.075;50;000.305;MIDI 01
598.290;000.034;65;000.359;MIDI 01
598.283;000.060;60;000.352;MIDI 01
598.425;000.054;50;000.312;MIDI 01
598.433;000.053;44;000.219;MIDI 01
598.468;000.052;36;000.023;MIDI 01
598.422;000.121;65;000.477;MIDI 01
598.413;000.186;60;000.375;MIDI 01
598.665;000.056;44;000.344;MIDI 01
598.649;000.074;50;000.297;MIDI 01
598.680;000.062;36;000.062;MIDI 01
598.894;000.067;50;000.305;MIDI 01
598.910;000.052;44;000.250;MIDI 01
598.932;000.068;36;000.086;MIDI 01
599.127;000.052;44;000.328;MIDI 01
599.109;000.087;50;000.289;MIDI 01
599.122;000.085;36;000.195;MIDI 01
599.226;000.046;60;000.398;MIDI 01
599.228;000.047;53;000.320;MIDI 01
599.397;000.068;44;000.266;MIDI 01
599.403;000.074;36;000.305;MIDI 01
599.375;000.126;50;000.328;MIDI 01
599.710;000.068;44;000.203;MIDI 01
599.716;000.072;36;000.078;MIDI 01
599.693;000.105;50;000.320;MIDI 01
599.966;000.048;44;000.250;MIDI 01
599.955;000.062;50;000.141;MIDI 01
599.964;000.073;36;000.117;MIDI 01
599.395;000.820;53;000.406;MIDI 01
600.164;000.053;50;000.234;MIDI 01
600.214;000.068;44;000.086;MIDI 01
599.391;000.901;60;000.461;MIDI 01
600.433;000.049;44;000.273;MIDI 01
600.413;000.085;50;000.109;MIDI 01
600.686;000.069;44;000.133;MIDI 01
600.692;000.067;50;000.141;MIDI 01
600.934;000.061;50;000.219;MIDI 01
600.982;000.061;44;000.094;MIDI 01
600.978;000.072;36;000.023;MIDI 01
600.922;000.308;53;000.305;MIDI 01
600.910;000.378;60;000.359;MIDI 01
601.250;000.307;44;000.250;MIDI 01
601.737;000.062;53;000.375;MIDI 01
601.744;000.071;56;000.406;MIDI 01
601.835;000.041;62;000.312;MIDI 01
601.904;000.066;53;000.312;MIDI 01
601.919;000.062;56;000.375;MIDI 01
602.003;000.038;62;000.352;MIDI 01
601.753;000.293;50;000.344;MIDI 01
602.065;000.041;53;000.281;MIDI 01
601.646;000.517;44;000.289;MIDI 01
602.151;000.044;62;000.305;MIDI 01
601.544;000.678;35;000.406;MIDI 01
602.243;000.035;53;000.281;MIDI 01
602.285;000.042;62;000.344;MIDI 01
602.366;000.044;56;000.281;MIDI 01
602.431;000.042;62;000.305;MIDI 01
602.506;000.051;56;000.352;MIDI 01
602.429;000.140;53;000.023;MIDI 01
602.581;000.054;62;000.305;MIDI 01
602.700;000.047;62;000.297;MIDI 01
602.643;000.106;56;000.281;MIDI 01
602.670;000.097;53;000.062;MIDI 01
602.771;000.064;53;000.062;MIDI 01
602.777;000.060;56;000.172;MIDI 01
602.823;000.054;62;000.422;MIDI 01
602.971;000.035;62;000.422;MIDI 01
602.921;000.093;56;000.219;MIDI 01
602.940;000.098;53;000.078;MIDI 01
603.069;000.060;53;000.133;MIDI 01
603.111;000.035;62;000.461;MIDI 01
603.051;000.115;56;000.117;MIDI 01
603.192;000.052;56;000.203;MIDI 01
603.254;000.032;62;000.469;MIDI 01
603.196;000.104;53;000.258;MIDI 01
603.327;000.053;53;000.258;MIDI 01
603.391;000.039;62;000.492;MIDI 01
603.542;000.027;62;000.469;MIDI 01
603.501;000.084;53;000.211;MIDI 01
603.608;000.060;53;000.297;MIDI 01
603.376;000.310;56;000.305;MIDI 01
603.669;000.040;62;000.492;MIDI 01
603.773;000.050;53;000.219;MIDI 01
603.832;000.035;62;000.398;MIDI 01
603.820;000.052;56;000.375;MIDI 01
603.923;000.082;53;000.195;MIDI 01
603.999;000.076;62;000.078;MIDI 01
604.024;000.055;56;000.266;MIDI 01
604.036;000.054;53;000.172;MIDI 01
604.079;000.076;62;000.172;MIDI 01
604.236;000.055;62;000.391;MIDI 01
604.311;000.059;56;000.172;MIDI 01
604.389;000.030;62;000.398;MIDI 01
604.485;000.045;53;000.211;MIDI 01
604.487;000.060;56;000.273;MIDI 01
604.521;000.050;62;000.516;MIDI 01
604.677;000.060;62;000.508;MIDI 01
604.763;000.052;53;000.102;MIDI 01
604.841;000.022;62;000.453;MIDI 01
604.911;000.060;34;000.453;MIDI 01
604.940;000.042;56;000.281;MIDI 01
604.947;000.041;53;000.328;MIDI 01
604.985;000.039;62;000.406;MIDI 01
605.070;000.043;35;000.523;MIDI 01
605.108;000.036;53;000.336;MIDI 01
605.121;000.041;56;000.289;MIDI 01
605.151;000.044;62;000.445;MIDI 01
605.215;000.052;38;000.570;MIDI 01
605.260;000.036;53;000.344;MIDI 01
605.271;000.035;56;000.359;MIDI 01
605.327;000.040;62;000.367;MIDI 01
605.374;000.034;41;000.523;MIDI 01
605.402;000.033;53;000.430;MIDI 01
605.426;000.042;56;000.398;MIDI 01
605.478;000.053;62;000.453;MIDI 01
605.513;000.040;44;000.555;MIDI 01
605.561;000.042;53;000.391;MIDI 01
605.584;000.047;56;000.391;MIDI 01
605.646;000.048;62;000.461;MIDI 01
605.675;000.038;45;000.523;MIDI 01
605.728;000.035;53;000.383;MIDI 01
605.764;000.037;56;000.312;MIDI 01
605.805;000.052;62;000.477;MIDI 01
605.817;000.051;46;000.555;MIDI 01
605.910;000.048;53;000.250;MIDI 01
605.944;000.047;56;000.250;MIDI 01
605.958;000.044;47;000.547;MIDI 01
605.974;000.054;62;000.484;MIDI 01
606.149;000.040;62;000.375;MIDI 01
606.104;000.087;53;000.125;MIDI 01
606.205;000.057;56;000.211;MIDI 01
606.220;000.049;53;000.242;MIDI 01
606.314;000.035;62;000.391;MIDI 01
606.400;000.062;53;000.352;MIDI 01
606.151;000.328;38;000.484;MIDI 01
606.396;000.089;56;000.273;MIDI 01
606.456;000.049;62;000.484;MIDI 01
606.529;000.061;53;000.328;MIDI 01
606.514;000.089;56;000.281;MIDI 01
606.615;000.044;62;000.453;MIDI 01
606.690;000.049;53;000.367;MIDI 01
606.695;000.057;56;000.289;MIDI 01
606.776;000.046;62;000.477;MIDI 01
606.859;000.036;53;000.352;MIDI 01
606.858;000.108;56;000.383;MIDI 01
606.913;000.086;62;000.523;MIDI 01
607.019;000.034;53;000.438;MIDI 01
607.038;000.023;74;000.477;MIDI 01
607.083;000.081;62;000.414;MIDI 01
607.143;000.040;74;000.641;MIDI 01
607.171;000.039;53;000.461;MIDI 01
607.165;000.075;56;000.344;MIDI 01
607.252;000.073;62;000.422;MIDI 01
607.330;000.056;53;000.391;MIDI 01
607.353;000.049;56;000.398;MIDI 01
607.427;000.052;62;000.406;MIDI 01
607.519;000.040;53;000.359;MIDI 01
607.525;000.047;56;000.383;MIDI 01
607.593;000.050;62;000.453;MIDI 01
607.681;000.028;53;000.375;MIDI 01
607.683;000.046;56;000.398;MIDI 01
607.763;000.046;62;000.422;MIDI 01
607.831;000.050;53;000.375;MIDI 01
607.844;000.050;56;000.445;MIDI 01
607.928;000.052;62;000.430;MIDI 01
607.945;000.038;68;000.492;MIDI 01
608.020;000.032;56;000.320;MIDI 01
608.018;000.048;53;000.289;MIDI 01
608.064;000.035;68;000.617;MIDI 01
608.143;000.033;53;000.375;MIDI 01
608.164;000.046;56;000.414;MIDI 01
608.209;000.095;62;000.195;MIDI 01
608.369;000.054;56;000.383;MIDI 01
608.545;000.041;54;000.516;MIDI 01
608.553;000.054;56;000.477;MIDI 01
608.681;000.051;53;000.562;MIDI 01
608.350;000.422;59;000.406;MIDI 01
608.745;000.043;56;000.320;MIDI 01
608.823;000.057;51;000.602;MIDI 01
608.685;000.218;62;000.273;MIDI 01
608.962;000.028;48;000.570;MIDI 01
608.973;000.033;54;000.328;MIDI 01
608.999;000.067;57;000.148;MIDI 01
609.106;000.047;45;000.594;MIDI 01
609.124;000.053;54;000.430;MIDI 01
609.127;000.056;63;000.141;MIDI 01
609.192;000.114;57;000.070;MIDI 01
609.267;000.049;42;000.547;MIDI 01
609.314;000.045;54;000.398;MIDI 01
609.337;000.078;57;000.078;MIDI 01
609.428;000.041;41;000.523;MIDI 01
609.448;000.059;63;000.070;MIDI 01
609.495;000.062;54;000.398;MIDI 01
609.545;000.046;57;000.227;MIDI 01
609.564;000.040;39;000.492;MIDI 01
609.630;000.043;63;000.352;MIDI 01
609.710;000.052;54;000.383;MIDI 01
609.815;000.050;63;000.375;MIDI 01
609.745;000.135;57;000.273;MIDI 01
609.754;000.163;48;000.438;MIDI 01
609.908;000.039;54;000.352;MIDI 01
610.004;000.031;63;000.367;MIDI 01
609.933;000.108;57;000.102;MIDI 01
610.075;000.039;54;000.344;MIDI 01
610.144;000.045;63;000.484;MIDI 01
610.085;000.123;57;000.094;MIDI 01
610.216;000.040;54;000.367;MIDI 01
610.291;000.067;63;000.484;MIDI 01
610.382;000.036;54;000.445;MIDI 01
610.433;000.028;72;000.516;MIDI 01
610.212;000.257;57;000.094;MIDI 01
610.481;000.033;63;000.359;MIDI 01
610.548;000.046;54;000.445;MIDI 01
610.546;000.050;72;000.617;MIDI 01
610.454;000.154;66;000.391;MIDI 01
610.550;000.083;57;000.312;MIDI 01
610.626;000.098;63;000.516;MIDI 01
610.708;000.070;54;000.484;MIDI 01
610.732;000.084;57;000.352;MIDI 01
610.865;000.023;78;000.516;MIDI 01
610.859;000.030;72;000.523;MIDI 01
610.835;000.056;63;000.344;MIDI 01
610.921;000.032;54;000.430;MIDI 01
610.919;000.083;57;000.297;MIDI 01
610.980;000.025;72;000.602;MIDI 01
610.977;000.060;78;000.633;MIDI 01
610.999;000.086;63;000.516;MIDI 01
611.067;000.071;54;000.477;MIDI 01
611.090;000.093;57;000.359;MIDI 01
611.199;000.068;63;000.383;MIDI 01
611.288;000.036;54;000.414;MIDI 01
611.305;000.032;84;000.633;MIDI 01
611.322;000.022;78;000.492;MIDI 01
611.319;000.056;57;000.352;MIDI 01
611.399;000.048;63;000.422;MIDI 01
611.424;000.067;78;000.711;MIDI 01
611.436;000.077;54;000.523;MIDI 01
611.500;000.050;57;000.430;MIDI 01
611.572;000.050;63;000.406;MIDI 01
611.643;000.035;54;000.391;MIDI 01
611.677;000.061;57;000.383;MIDI 01
611.739;000.064;63;000.492;MIDI 01
611.800;000.069;54;000.477;MIDI 01
611.867;000.053;57;000.383;MIDI 01
611.942;000.038;63;000.406;MIDI 01
612.004;000.043;54;000.461;MIDI 01
612.041;000.056;35;000.555;MIDI 01
612.077;000.050;57;000.273;MIDI 01
612.089;000.058;63;000.453;MIDI 01
612.175;000.046;54;000.469;MIDI 01
612.204;000.042;36;000.500;MIDI 01
612.273;000.055;63;000.445;MIDI 01
612.254;000.126;57;000.109;MIDI 01
612.343;000.040;39;000.586;MIDI 01
612.349;000.051;54;000.469;MIDI 01
612.408;000.064;57;000.102;MIDI 01
612.455;000.051;63;000.430;MIDI 01
612.498;000.042;42;000.586;MIDI 01
612.523;000.049;54;000.453;MIDI 01
612.593;000.058;57;000.148;MIDI 01
612.627;000.049;63;000.453;MIDI 01
612.633;000.047;45;000.586;MIDI 01
612.696;000.062;54;000.445;MIDI 01
612.778;000.039;46;000.594;MIDI 01
612.773;000.058;57;000.141;MIDI 01
612.803;000.067;63;000.438;MIDI 01
612.902;000.045;54;000.430;MIDI 01
612.904;000.046;47;000.625;MIDI 01
612.964;000.047;57;000.266;MIDI 01
613.018;000.040;63;000.312;MIDI 01
613.043;000.054;48;000.586;MIDI 01
613.087;000.046;54;000.414;MIDI 01
613.186;000.062;63;000.430;MIDI 01
613.269;000.056;54;000.422;MIDI 01
613.386;000.051;63;000.406;MIDI 01
613.235;000.237;39;000.516;MIDI 01
613.461;000.053;54;000.430;MIDI 01
613.505;000.071;57;000.227;MIDI 01
613.566;000.052;63;000.430;MIDI 01
613.645;000.038;54;000.438;MIDI 01
613.685;000.057;57;000.227;MIDI 01
613.742;000.046;63;000.445;MIDI 01
613.798;000.058;54;000.484;MIDI 01
613.829;000.075;57;000.359;MIDI 01
613.896;000.089;63;000.477;MIDI 01
613.996;000.024;78;000.547;MIDI 01
614.001;000.031;54;000.430;MIDI 01
614.019;000.064;57;000.344;MIDI 01
614.086;000.059;63;000.398;MIDI 01
614.092;000.060;78;000.719;MIDI 01
614.146;000.065;54;000.500;MIDI 01
614.189;000.062;57;000.344;MIDI 01
614.267;000.061;63;000.453;MIDI 01
614.366;000.033;54;000.398;MIDI 01
614.418;000.044;57;000.250;MIDI 01
614.456;000.055;63;000.438;MIDI 01
614.531;000.046;54;000.398;MIDI 01
614.630;000.060;63;000.422;MIDI 01
614.603;000.111;57;000.289;MIDI 01
614.710;000.044;54;000.383;MIDI 01
614.732;000.069;57;000.273;MIDI 01
614.809;000.052;63;000.469;MIDI 01
614.827;000.043;72;000.508;MIDI 01
614.884;000.033;54;000.422;MIDI 01
614.918;000.048;57;000.336;MIDI 01
614.931;000.051;72;000.727;MIDI 01
614.966;000.059;63;000.461;MIDI 01
615.039;000.054;54;000.477;MIDI 01
615.089;000.044;57;000.375;MIDI 01
615.132;000.094;63;000.500;MIDI 01
615.249;000.055;57;000.461;MIDI 01
615.263;000.079;60;000.445;MIDI 01
615.351;000.068;63;000.445;MIDI 01
615.432;000.043;57;000.422;MIDI 01
615.459;000.039;55;000.508;MIDI 01
615.489;000.039;60;000.328;MIDI 01
615.542;000.059;63;000.469;MIDI 01
615.597;000.041;54;000.562;MIDI 01
615.617;000.069;57;000.414;MIDI 01
615.660;000.085;60;000.383;MIDI 01
615.733;000.053;52;000.594;MIDI 01
615.728;000.098;63;000.492;MIDI 01
615.869;000.045;55;000.445;MIDI 01
615.877;000.053;49;000.586;MIDI 01
615.862;000.072;58;000.461;MIDI 01
615.987;000.056;64;000.453;MIDI 01
616.031;000.030;46;000.539;MIDI 01
616.070;000.058;55;000.391;MIDI 01
616.098;000.051;58;000.328;MIDI 01
616.157;000.040;43;000.547;MIDI 01
616.174;000.060;64;000.484;MIDI 01
616.280;000.054;55;000.398;MIDI 01
616.284;000.052;58;000.422;MIDI 01
616.300;000.054;42;000.531;MIDI 01
616.381;000.049;64;000.430;MIDI 01
616.429;000.047;40;000.570;MIDI 01
616.472;000.052;55;000.391;MIDI 01
616.480;000.050;58;000.320;MIDI 01
616.558;000.057;64;000.398;MIDI 01
616.679;000.050;55;000.289;MIDI 01
616.673;000.058;58;000.320;MIDI 01
616.616;000.145;49;000.500;MIDI 01
616.749;000.044;64;000.391;MIDI 01
616.844;000.056;58;000.289;MIDI 01
616.834;000.072;55;000.336;MIDI 01
616.909;000.044;64;000.445;MIDI 01
616.989;000.059;58;000.320;MIDI 01
616.978;000.073;55;000.312;MIDI 01
617.067;000.044;64;000.477;MIDI 01
617.142;000.069;55;000.227;MIDI 01
617.215;000.061;64;000.492;MIDI 01
617.150;000.128;58;000.359;MIDI 01
617.269;000.045;67;000.555;MIDI 01
617.288;000.034;73;000.492;MIDI 01
617.322;000.042;55;000.297;MIDI 01
617.300;000.083;58;000.359;MIDI 01
617.392;000.046;64;000.523;MIDI 01
617.389;000.054;73;000.688;MIDI 01
617.482;000.035;55;000.430;MIDI 01
617.453;000.108;58;000.359;MIDI 01
617.547;000.097;64;000.523;MIDI 01
617.682;000.045;55;000.289;MIDI 01
617.677;000.064;58;000.336;MIDI 01
617.711;000.031;79;000.602;MIDI 01
617.726;000.023;73;000.492;MIDI 01
617.747;000.083;64;000.492;MIDI 01
617.824;000.059;73;000.680;MIDI 01
617.822;000.064;79;000.711;MIDI 01
617.851;000.053;55;000.469;MIDI 01
617.854;000.081;58;000.508;MIDI 01
617.934;000.091;64;000.469;MIDI 01
618.044;000.049;55;000.367;MIDI 01
618.055;000.084;58;000.438;MIDI 01
618.157;000.052;64;000.445;MIDI 01
618.233;000.040;79;000.516;MIDI 01
618.235;000.040;85;000.562;MIDI 01
618.232;000.060;55;000.438;MIDI 01
618.256;000.074;58;000.422;MIDI 01
618.334;000.061;64;000.477;MIDI 01
618.341;000.057;79;000.672;MIDI 01
618.344;000.072;85;000.617;MIDI 01
618.431;000.046;55;000.406;MIDI 01
618.455;000.061;58;000.383;MIDI 01
618.536;000.058;64;000.430;MIDI 01
618.642;000.060;55;000.297;MIDI 01
618.733;000.049;64;000.367;MIDI 01
618.685;000.121;58;000.258;MIDI 01
618.818;000.060;55;000.273;MIDI 01
618.926;000.039;64;000.344;MIDI 01
619.006;000.058;55;000.219;MIDI 01
619.097;000.046;64;000.422;MIDI 01
619.302;000.052;48;000.289;MIDI 01
619.315;000.051;36;000.227;MIDI 01
619.211;000.393;55;000.047;MIDI 01
619.308;000.300;64;000.281;MIDI 01
619.914;000.056;58;000.172;MIDI 01
619.878;000.098;64;000.258;MIDI 01
619.918;000.073;55;000.055;MIDI 01
619.568;000.460;36;000.156;MIDI 01
619.570;000.460;48;000.164;MIDI 01
620.099;000.073;55;000.273;MIDI 01
620.124;000.059;58;000.312;MIDI 01
620.144;000.099;64;000.211;MIDI 01
620.296;000.046;49;000.234;MIDI 01
620.315;000.083;37;000.141;MIDI 01
620.603;000.036;70;000.375;MIDI 01
620.465;000.186;49;000.328;MIDI 01
620.615;000.041;76;000.273;MIDI 01
620.434;000.236;37;000.117;MIDI 01
620.624;000.049;67;000.234;MIDI 01
620.779;000.033;70;000.344;MIDI 01
620.782;000.060;76;000.422;MIDI 01
620.897;000.062;36;000.336;MIDI 01
620.911;000.056;48;000.273;MIDI 01
621.031;000.119;48;000.367;MIDI 01
621.184;000.030;79;000.320;MIDI 01
621.182;000.034;82;000.305;MIDI 01
621.186;000.033;88;000.320;MIDI 01
621.036;000.185;36;000.352;MIDI 01
621.433;000.032;47;000.414;MIDI 01
621.447;000.044;35;000.375;MIDI 01
621.576;000.072;47;000.484;MIDI 01
621.604;000.048;35;000.367;MIDI 01
621.698;000.036;64;000.438;MIDI 01
621.706;000.042;55;000.375;MIDI 01
621.719;000.042;58;000.320;MIDI 01
621.834;000.047;64;000.461;MIDI 01
621.831;000.064;58;000.422;MIDI 01
621.924;000.031;46;000.398;MIDI 01
622.154;000.050;65;000.430;MIDI 01
622.058;000.150;46;000.555;MIDI 01
622.173;000.038;61;000.383;MIDI 01
622.166;000.047;56;000.430;MIDI 01
622.331;000.041;61;000.453;MIDI 01
622.310;000.068;65;000.484;MIDI 01
622.381;000.048;45;000.516;MIDI 01
622.391;000.046;33;000.477;MIDI 01
622.532;000.118;45;000.531;MIDI 01
622.645;000.024;68;000.453;MIDI 01
622.650;000.025;73;000.391;MIDI 01
622.552;000.135;33;000.547;MIDI 01
622.775;000.031;68;000.422;MIDI 01
622.776;000.079;73;000.555;MIDI 01
622.766;000.093;77;000.422;MIDI 01
622.881;000.042;44;000.539;MIDI 01
622.899;000.048;32;000.453;MIDI 01
623.051;000.125;32;000.484;MIDI 01
623.152;000.028;89;000.508;MIDI 01
623.148;000.035;80;000.516;MIDI 01
623.158;000.031;85;000.453;MIDI 01
623.030;000.184;44;000.523;MIDI 01
623.303;000.024;89;000.500;MIDI 01
623.312;000.060;85;000.477;MIDI 01
623.306;000.080;80;000.469;MIDI 01
623.434;000.039;49;000.523;MIDI 01
623.456;000.042;37;000.406;MIDI 01
623.710;000.058;59;000.539;MIDI 01
623.752;000.060;65;000.188;MIDI 01
623.605;000.216;37;000.562;MIDI 01
623.580;000.243;49;000.539;MIDI 01
623.760;000.080;56;000.211;MIDI 01
623.836;000.057;59;000.438;MIDI 01
623.845;000.061;56;000.273;MIDI 01
623.834;000.106;65;000.352;MIDI 01
623.970;000.040;50;000.562;MIDI 01
623.983;000.041;38;000.508;MIDI 01
624.102;000.117;38;000.539;MIDI 01
624.097;000.132;50;000.570;MIDI 01
624.211;000.028;66;000.398;MIDI 01
624.203;000.054;60;000.500;MIDI 01
624.214;000.048;57;000.375;MIDI 01
624.332;000.097;66;000.609;MIDI 01
624.429;000.031;51;000.531;MIDI 01
624.441;000.038;39;000.445;MIDI 01
624.649;000.024;78;000.508;MIDI 01
624.665;000.039;72;000.453;MIDI 01
624.658;000.055;69;000.438;MIDI 01
624.580;000.144;39;000.586;MIDI 01
624.562;000.165;51;000.570;MIDI 01
624.807;000.027;72;000.414;MIDI 01
624.772;000.097;78;000.570;MIDI 01
624.874;000.046;50;000.578;MIDI 01
624.882;000.044;38;000.539;MIDI 01
625.020;000.105;50;000.617;MIDI 01
625.093;000.038;90;000.570;MIDI 01
625.102;000.032;81;000.430;MIDI 01
625.091;000.057;84;000.523;MIDI 01
625.016;000.198;38;000.602;MIDI 01
625.206;000.031;90;000.602;MIDI 01
625.233;000.034;84;000.352;MIDI 01
625.272;000.035;81;000.312;MIDI 01
625.319;000.041;49;000.609;MIDI 01
625.341;000.043;37;000.461;MIDI 01
625.459;000.137;49;000.578;MIDI 01
625.555;000.044;60;000.570;MIDI 01
625.576;000.027;66;000.445;MIDI 01
625.484;000.125;37;000.602;MIDI 01
625.567;000.045;57;000.406;MIDI 01
625.710;000.053;60;000.406;MIDI 01
625.747;000.044;57;000.266;MIDI 01
625.702;000.091;66;000.562;MIDI 01
625.745;000.051;61;000.195;MIDI 01
625.777;000.052;48;000.625;MIDI 01
625.786;000.045;36;000.562;MIDI 01
625.984;000.030;67;000.516;MIDI 01
625.982;000.042;58;000.586;MIDI 01
625.989;000.040;63;000.484;MIDI 01
625.923;000.135;48;000.633;MIDI 01
625.926;000.177;36;000.594;MIDI 01
626.121;000.029;58;000.352;MIDI 01
626.123;000.047;63;000.570;MIDI 01
626.111;000.072;67;000.578;MIDI 01
626.226;000.048;35;000.578;MIDI 01
626.212;000.064;47;000.648;MIDI 01
626.408;000.032;70;000.672;MIDI 01
626.414;000.035;79;000.578;MIDI 01
626.422;000.035;75;000.492;MIDI 01
626.360;000.111;47;000.609;MIDI 01
626.358;000.125;35;000.633;MIDI 01
626.536;000.031;70;000.531;MIDI 01
626.544;000.072;75;000.688;MIDI 01
626.534;000.088;79;000.602;MIDI 01
626.628;000.050;46;000.680;MIDI 01
626.646;000.034;34;000.570;MIDI 01
626.852;000.040;82;000.617;MIDI 01
626.859;000.035;87;000.578;MIDI 01
626.861;000.036;91;000.562;MIDI 01
626.780;000.137;34;000.594;MIDI 01
626.783;000.147;46;000.695;MIDI 01
626.984;000.031;91;000.570;MIDI 01
626.998;000.046;87;000.594;MIDI 01
626.982;000.078;82;000.555;MIDI 01
627.111;000.046;51;000.617;MIDI 01
627.119;000.055;39;000.602;MIDI 01
627.377;000.030;58;000.492;MIDI 01
627.365;000.050;61;000.555;MIDI 01
627.406;000.048;67;000.195;MIDI 01
627.260;000.198;51;000.688;MIDI 01
627.259;000.205;39;000.688;MIDI 01
627.499;000.040;58;000.547;MIDI 01
627.485;000.098;67;000.445;MIDI 01
627.601;000.050;40;000.633;MIDI 01
627.596;000.060;52;000.672;MIDI 01
627.733;000.115;40;000.656;MIDI 01
627.833;000.023;68;000.523;MIDI 01
627.831;000.039;62;000.562;MIDI 01
627.837;000.035;59;000.469;MIDI 01
627.731;000.146;52;000.609;MIDI 01
627.942;000.040;62;000.602;MIDI 01
627.956;000.034;59;000.352;MIDI 01
627.939;000.097;68;000.641;MIDI 01
628.047;000.040;41;000.602;MIDI 01
628.035;000.059;53;000.672;MIDI 01
628.171;000.105;53;000.617;MIDI 01
628.250;000.030;80;000.648;MIDI 01
628.258;000.041;71;000.594;MIDI 01
628.259;000.042;74;000.594;MIDI 01
628.167;000.149;41;000.625;MIDI 01
628.383;000.028;74;000.609;MIDI 01
628.368;000.094;80;000.648;MIDI 01
628.450;000.033;40;000.617;MIDI 01
628.436;000.052;52;000.688;MIDI 01
628.509;000.049;74;000.203;MIDI 01
628.559;000.114;52;000.672;MIDI 01
628.661;000.020;92;000.625;MIDI 01
628.556;000.132;40;000.664;MIDI 01
628.664;000.033;83;000.539;MIDI 01
628.659;000.040;86;000.594;MIDI 01
628.772;000.021;92;000.523;MIDI 01
628.790;000.027;86;000.500;MIDI 01
628.784;000.034;83;000.570;MIDI 01
628.835;000.036;51;000.656;MIDI 01
628.852;000.036;39;000.516;MIDI 01
628.953;000.128;51;000.680;MIDI 01
628.968;000.131;39;000.688;MIDI 01
629.078;000.022;68;000.516;MIDI 01
629.067;000.038;62;000.633;MIDI 01
629.077;000.042;59;000.492;MIDI 01
629.182;000.043;62;000.633;MIDI 01
629.184;000.073;68;000.609;MIDI 01
629.257;000.045;38;000.641;MIDI 01
629.250;000.055;50;000.680;MIDI 01
629.379;000.121;50;000.664;MIDI 01
629.465;000.038;68;000.570;MIDI 01
629.471;000.035;71;000.547;MIDI 01
629.456;000.054;62;000.664;MIDI 01
629.382;000.134;38;000.711;MIDI 01
629.584;000.061;71;000.664;MIDI 01
629.586;000.070;68;000.609;MIDI 01
629.631;000.039;62;000.141;MIDI 01
629.650;000.047;49;000.711;MIDI 01
629.670;000.036;37;000.539;MIDI 01
629.696;000.056;39;000.312;MIDI 01
629.855;000.026;80;000.672;MIDI 01
629.875;000.021;83;000.477;MIDI 01
629.878;000.023;76;000.484;MIDI 01
629.865;000.048;74;000.594;MIDI 01
629.776;000.139;49;000.695;MIDI 01
629.780;000.136;37;000.703;MIDI 01
629.976;000.040;83;000.656;MIDI 01
629.960;000.061;80;000.562;MIDI 01
630.047;000.040;36;000.578;MIDI 01
630.031;000.058;48;000.719;MIDI 01
630.073;000.025;38;000.484;MIDI 01
630.247;000.028;92;000.727;MIDI 01
630.223;000.053;38;000.125;MIDI 01
630.154;000.135;48;000.742;MIDI 01
630.259;000.032;95;000.594;MIDI 01
630.252;000.042;86;000.625;MIDI 01
630.160;000.158;36;000.750;MIDI 01
630.342;000.064;86;000.641;MIDI 01
630.345;000.062;92;000.633;MIDI 01
630.453;000.052;47;000.711;MIDI 01
630.465;000.045;35;000.656;MIDI 01
630.578;000.111;35;000.711;MIDI 01
630.658;000.038;62;000.719;MIDI 01
630.701;000.001;66;000.289;MIDI 01
630.670;000.034;68;000.562;MIDI 01
630.581;000.125;47;000.703;MIDI 01
630.704;000.032;71;000.266;MIDI 01
630.723;000.061;69;000.188;MIDI 01
630.796;000.033;62;000.523;MIDI 01
630.777;000.077;71;000.484;MIDI 01
630.772;000.084;68;000.648;MIDI 01
630.789;000.070;69;000.320;MIDI 01
630.874;000.042;40;000.656;MIDI 01
630.862;000.055;52;000.750;MIDI 01
630.992;000.122;40;000.664;MIDI 01
630.995;000.125;52;000.758;MIDI 01
631.101;000.025;68;000.555;MIDI 01
631.094;000.035;62;000.633;MIDI 01
631.098;000.034;71;000.609;MIDI 01
631.105;000.035;74;000.594;MIDI 01
631.222;000.016;62;000.617;MIDI 01
631.229;000.055;71;000.617;MIDI 01
631.220;000.067;68;000.617;MIDI 01
631.214;000.085;74;000.656;MIDI 01
631.303;000.038;41;000.625;MIDI 01
631.294;000.055;53;000.711;MIDI 01
631.347;000.048;62;000.102;MIDI 01
631.417;000.092;53;000.719;MIDI 01
631.513;000.019;83;000.531;MIDI 01
631.504;000.030;80;000.602;MIDI 01
631.414;000.125;41;000.719;MIDI 01
631.525;000.023;72;000.477;MIDI 01
631.543;000.031;86;000.281;MIDI 01
631.518;000.061;74;000.469;MIDI 01
631.595;000.064;80;000.695;MIDI 01
631.610;000.057;83;000.648;MIDI 01
631.600;000.089;86;000.453;MIDI 01
631.697;000.029;40;000.633;MIDI 01
631.683;000.054;52;000.742;MIDI 01
631.800;000.106;52;000.727;MIDI 01
631.874;000.048;42;000.359;MIDI 01
631.886;000.038;86;000.648;MIDI 01
631.889;000.036;92;000.695;MIDI 01
631.802;000.125;40;000.727;MIDI 01
631.902;000.027;94;000.453;MIDI 01
631.905;000.026;98;000.508;MIDI 01
631.898;000.035;95;000.586;MIDI 01
631.922;000.038;96;000.305;MIDI 01
631.998;000.031;95;000.555;MIDI 01
632.002;000.035;86;000.617;MIDI 01
631.986;000.064;92;000.734;MIDI 01
632.042;000.046;98;000.227;MIDI 01
632.074;000.036;51;000.742;MIDI 01
632.085;000.030;39;000.672;MIDI 01
632.192;000.130;39;000.695;MIDI 01
632.196;000.127;51;000.758;MIDI 01
632.304;000.031;68;000.625;MIDI 01
632.306;000.036;62;000.602;MIDI 01
632.309;000.037;74;000.609;MIDI 01
632.333;000.027;71;000.375;MIDI 01
632.347;000.046;70;000.227;MIDI 01
632.410;000.045;62;000.594;MIDI 01
632.442;000.026;64;000.438;MIDI 01
632.404;000.080;68;000.586;MIDI 01
632.416;000.070;74;000.648;MIDI 01
632.430;000.060;71;000.602;MIDI 01
632.484;000.041;38;000.664;MIDI 01
632.476;000.053;50;000.742;MIDI 01
632.596;000.109;50;000.734;MIDI 01
632.690;000.035;65;000.641;MIDI 01
632.597;000.131;38;000.742;MIDI 01
632.698;000.031;77;000.578;MIDI 01
632.685;000.046;68;000.680;MIDI 01
632.684;000.051;71;000.703;MIDI 01
632.806;000.027;68;000.602;MIDI 01
632.827;000.024;65;000.328;MIDI 01
632.801;000.051;71;000.578;MIDI 01
632.798;000.068;77;000.625;MIDI 01
632.888;000.027;37;000.656;MIDI 01
632.875;000.051;49;000.727;MIDI 01
632.902;000.028;39;000.539;MIDI 01
632.901;000.031;68;000.367;MIDI 01
633.027;000.079;39;000.531;MIDI 01
633.082;000.035;77;000.688;MIDI 01
633.093;000.026;89;000.680;MIDI 01
633.084;000.036;80;000.703;MIDI 01
633.003;000.152;37;000.648;MIDI 01
633.005;000.157;49;000.781;MIDI 01
633.203;000.038;80;000.727;MIDI 01
633.229;000.022;77;000.398;MIDI 01
633.201;000.069;89;000.734;MIDI 01
633.302;000.044;36;000.695;MIDI 01
633.293;000.058;48;000.773;MIDI 01
633.556;000.025;89;000.711;MIDI 01
633.559;000.024;101;000.742;MIDI 01
633.554;000.056;92;000.773;MIDI 01
633.435;000.215;48;000.805;MIDI 01
633.440;000.260;36;000.758;MIDI 01
633.697;000.030;92;000.648;MIDI 01
633.704;000.071;101;000.656;MIDI 01
633.699;000.102;100;000.672;MIDI 01
633.691;000.121;89;000.703;MIDI 01
633.810;000.037;35;000.719;MIDI 01
633.805;000.061;47;000.773;MIDI 01
633.969;000.053;99;000.141;MIDI 01
633.982;000.043;59;000.781;MIDI 01
633.989;000.077;47;000.766;MIDI 01
634.152;000.032;101;000.672;MIDI 01
634.144;000.050;89;000.680;MIDI 01
634.141;000.061;98;000.711;MIDI 01
634.241;000.036;46;000.336;MIDI 01
634.286;000.037;101;000.680;MIDI 01
634.310;000.030;97;000.398;MIDI 01
634.291;000.075;98;000.695;MIDI 01
634.289;000.107;89;000.695;MIDI 01
634.416;000.031;34;000.648;MIDI 01
634.408;000.057;46;000.766;MIDI 01
634.572;000.042;58;000.797;MIDI 01
634.578;000.050;46;000.750;MIDI 01
634.705;000.019;89;000.562;MIDI 01
634.700;000.026;86;000.680;MIDI 01
634.712;000.023;77;000.461;MIDI 01
634.721;000.019;76;000.547;MIDI 01
634.740;000.028;88;000.383;MIDI 01
634.828;000.031;89;000.602;MIDI 01
634.823;000.069;86;000.633;MIDI 01
634.826;000.074;77;000.672;MIDI 01
634.927;000.041;45;000.648;MIDI 01
634.929;000.041;33;000.617;MIDI 01
634.934;000.037;47;000.648;MIDI 01
634.968;000.031;35;000.406;MIDI 01
635.069;000.042;57;000.773;MIDI 01
635.070;000.078;45;000.758;MIDI 01
635.172;000.033;65;000.672;MIDI 01
635.179;000.030;77;000.586;MIDI 01
635.168;000.044;74;000.719;MIDI 01
635.295;000.019;65;000.609;MIDI 01
635.329;000.033;67;000.422;MIDI 01
635.297;000.080;74;000.688;MIDI 01
635.288;000.106;77;000.609;MIDI 01
635.421;000.001;42;000.469;MIDI 01
635.394;000.039;32;000.688;MIDI 01
635.390;000.044;44;000.742;MIDI 01
635.541;000.028;56;000.812;MIDI 01
635.557;000.022;54;000.609;MIDI 01
635.561;000.031;46;000.586;MIDI 01
635.546;000.072;44;000.734;MIDI 01
635.634;000.026;86;000.703;MIDI 01
635.642;000.024;89;000.641;MIDI 01
635.630;000.050;77;000.695;MIDI 01
635.759;000.030;77;000.688;MIDI 01
635.754;000.078;86;000.672;MIDI 01
635.752;000.093;89;000.711;MIDI 01
635.822;000.036;45;000.766;MIDI 01
635.837;000.026;33;000.648;MIDI 01
635.840;000.035;31;000.555;MIDI 01
635.980;000.002;41;000.531;MIDI 01
635.964;000.041;55;000.836;MIDI 01
635.990;000.030;53;000.391;MIDI 01
635.968;000.084;43;000.367;MIDI 01
636.060;000.023;101;000.688;MIDI 01
636.062;000.024;89;000.641;MIDI 01
636.052;000.049;98;000.773;MIDI 01
636.163;000.048;101;000.672;MIDI 01
636.173;000.056;98;000.719;MIDI 01
636.235;000.002;97;000.062;MIDI 01
636.166;000.084;89;000.727;MIDI 01
636.268;000.024;42;000.734;MIDI 01
636.273;000.026;30;000.703;MIDI 01
636.284;000.036;44;000.625;MIDI 01
636.289;000.034;32;000.547;MIDI 01
636.416;000.019;44;000.672;MIDI 01
636.405;000.045;54;000.781;MIDI 01
636.397;000.095;42;000.234;MIDI 01
636.497;000.026;78;000.688;MIDI 01
636.516;000.022;90;000.477;MIDI 01
636.498;000.042;86;000.703;MIDI 01
636.612;000.050;90;000.789;MIDI 01
636.617;000.061;86;000.719;MIDI 01
636.605;000.098;78;000.648;MIDI 01
636.723;000.025;31;000.688;MIDI 01
636.717;000.033;43;000.750;MIDI 01
636.774;000.001;29;000.141;MIDI 01
636.857;000.042;53;000.805;MIDI 01
636.855;000.080;41;000.406;MIDI 01
636.997;000.043;66;000.734;MIDI 01
636.995;000.059;78;000.711;MIDI 01
636.993;000.072;74;000.703;MIDI 01
637.134;000.097;74;000.633;MIDI 01
637.130;000.119;66;000.719;MIDI 01
637.231;000.041;28;000.703;MIDI 01
637.246;000.035;29;000.625;MIDI 01
637.225;000.062;40;000.805;MIDI 01
637.128;000.184;78;000.711;MIDI 01
637.439;000.029;38;000.562;MIDI 01
637.418;000.110;52;000.828;MIDI 01
637.425;000.113;40;000.719;MIDI 01
637.597;000.107;67;000.719;MIDI 01
637.593;000.116;70;000.703;MIDI 01
637.599;000.116;79;000.773;MIDI 01
637.595;000.123;73;000.781;MIDI 01
637.856;000.104;79;000.750;MIDI 01
637.853;000.133;67;000.836;MIDI 01
637.858;000.141;73;000.766;MIDI 01
637.855;000.149;70;000.805;MIDI 01
638.969;000.223;51;000.680;MIDI 01
638.974;000.221;39;000.672;MIDI 01
638.982;000.217;27;000.570;MIDI 01
638.971;000.246;63;000.648;MIDI 01
639.356;000.061;28;000.641;MIDI 01
639.335;000.092;52;000.680;MIDI 01
639.358;000.080;40;000.680;MIDI 01
639.340;000.119;64;000.711;MIDI 01
639.617;000.050;43;000.719;MIDI 01
639.626;000.048;31;000.633;MIDI 01
639.624;000.074;55;000.711;MIDI 01
639.628;000.072;67;000.711;MIDI 01
639.842;000.072;46;000.734;MIDI 01
639.852;000.064;34;000.617;MIDI 01
639.850;000.068;58;000.703;MIDI 01
639.848;000.120;70;000.703;MIDI 01
640.046;000.064;73;000.688;MIDI 01
640.041;000.071;61;000.656;MIDI 01
640.039;000.075;49;000.758;MIDI 01
640.044;000.083;37;000.633;MIDI 01
640.109;000.056;63;000.102;MIDI 01
640.215;000.053;50;000.688;MIDI 01
640.236;000.033;36;000.547;MIDI 01
640.220;000.052;74;000.734;MIDI 01
640.230;000.044;38;000.539;MIDI 01
640.219;000.058;62;000.703;MIDI 01
640.370;000.070;63;000.656;MIDI 01
640.372;000.070;51;000.719;MIDI 01
640.379;000.072;39;000.625;MIDI 01
640.376;000.078;75;000.641;MIDI 01
640.532;000.035;64;000.641;MIDI 01
640.545;000.031;40;000.609;MIDI 01
640.534;000.049;76;000.695;MIDI 01
640.538;000.055;52;000.719;MIDI 01
640.716;000.029;55;000.758;MIDI 01
640.712;000.036;79;000.695;MIDI 01
640.710;000.041;67;000.680;MIDI 01
640.734;000.028;43;000.531;MIDI 01
640.867;000.030;58;000.719;MIDI 01
640.865;000.037;70;000.664;MIDI 01
640.876;000.035;46;000.562;MIDI 01
640.862;000.090;82;000.656;MIDI 01
641.030;000.042;49;000.570;MIDI 01
641.010;000.066;73;000.695;MIDI 01
641.017;000.064;85;000.672;MIDI 01
641.020;000.069;61;000.727;MIDI 01
641.175;000.031;50;000.648;MIDI 01
641.169;000.044;62;000.742;MIDI 01
641.165;000.051;86;000.719;MIDI 01
641.167;000.051;74;000.688;MIDI 01
641.319;000.053;51;000.672;MIDI 01
641.307;000.067;75;000.719;MIDI 01
641.311;000.065;63;000.766;MIDI 01
641.309;000.081;87;000.680;MIDI 01
641.465;000.050;64;000.742;MIDI 01
641.461;000.060;76;000.750;MIDI 01
641.473;000.054;89;000.648;MIDI 01
641.471;000.061;88;000.672;MIDI 01
641.467;000.072;52;000.734;MIDI 01
641.682;000.046;49;000.688;MIDI 01
641.676;000.054;93;000.727;MIDI 01
641.674;000.058;61;000.727;MIDI 01
641.678;000.056;81;000.695;MIDI 01
641.857;000.035;46;000.641;MIDI 01
641.847;000.048;82;000.672;MIDI 01
641.842;000.058;58;000.711;MIDI 01
641.844;000.077;94;000.742;MIDI 01
642.004;000.038;57;000.750;MIDI 01
642.010;000.034;45;000.758;MIDI 01
642.002;000.055;97;000.695;MIDI 01
641.997;000.066;85;000.711;MIDI 01
642.164;000.027;56;000.633;MIDI 01
642.155;000.041;98;000.773;MIDI 01
642.159;000.041;54;000.617;MIDI 01
642.153;000.053;86;000.742;MIDI 01
642.157;000.069;44;000.742;MIDI 01
642.298;000.040;53;000.703;MIDI 01
642.323;000.028;40;000.562;MIDI 01
642.309;000.044;56;000.016;MIDI 01
642.307;000.049;41;000.625;MIDI 01
642.296;000.075;87;000.727;MIDI 01
642.294;000.089;99;000.727;MIDI 01
642.445;000.047;100;000.828;MIDI 01
642.450;000.044;88;000.805;MIDI 01
642.447;000.049;52;000.789;MIDI 01
642.515;000.002;99;000.102;MIDI 01
642.448;000.073;40;000.727;MIDI 01
643.023;000.079;75;000.656;MIDI 01
643.029;000.084;51;000.594;MIDI 01
643.025;000.098;87;000.680;MIDI 01
643.038;000.090;39;000.594;MIDI 01
643.203;000.055;76;000.688;MIDI 01
643.201;000.065;88;000.734;MIDI 01
643.212;000.061;50;000.648;MIDI 01
643.224;000.064;38;000.570;MIDI 01
643.379;000.057;89;000.773;MIDI 01
643.381;000.057;77;000.727;MIDI 01
643.383;000.062;49;000.680;MIDI 01
643.391;000.059;37;000.656;MIDI 01
643.540;000.054;48;000.742;MIDI 01
643.544;000.058;36;000.648;MIDI 01
643.546;000.081;78;000.727;MIDI 01
643.542;000.107;90;000.742;MIDI 01
643.718;000.104;46;000.711;MIDI 01
643.708;000.121;79;000.758;MIDI 01
643.710;000.134;91;000.773;MIDI 01
643.724;000.214;34;000.703;MIDI 01
643.910;000.080;84;000.281;MIDI 01
644.039;000.017;90;000.562;MIDI 01
644.013;000.210;92;000.836;MIDI 01
644.008;000.264;84;000.617;MIDI 01
644.015;000.276;80;000.805;MIDI 01
644.010;000.312;32;000.688;MIDI 01
644.017;000.349;39;000.680;MIDI 01
644.003;000.374;44;000.711;MIDI 01
644.581;000.016;68;000.672;MIDI 01
644.673;000.052;68;000.766;MIDI 01
645.055;000.033;63;000.656;MIDI 01
645.156;000.076;63;000.727;MIDI 01
645.513;000.033;56;000.711;MIDI 01
645.624;000.049;56;000.766;MIDI 01
645.970;000.042;51;000.664;MIDI 01
646.094;000.080;51;000.766;MIDI 01
646.423;000.032;75;000.641;MIDI 01
646.419;000.044;63;000.680;MIDI 01
646.548;000.139;75;000.758;MIDI 01
646.551;000.202;63;000.734;MIDI 01
646.908;000.030;68;000.617;MIDI 01
646.906;000.039;56;000.688;MIDI 01
647.023;000.075;56;000.742;MIDI 01
647.011;000.089;68;000.617;MIDI 01
646.534;000.628;44;000.648;MIDI 01
646.553;000.800;43;000.578;MIDI 01
647.337;000.029;63;000.625;MIDI 01
647.330;000.041;51;000.695;MIDI 01
647.413;000.072;44;000.695;MIDI 01
647.429;000.093;42;000.633;MIDI 01
647.448;000.094;51;000.742;MIDI 01
647.438;000.114;63;000.508;MIDI 01
647.747;000.032;56;000.719;MIDI 01
647.753;000.039;48;000.672;MIDI 01
647.776;000.031;60;000.398;MIDI 01
647.792;000.041;62;000.312;MIDI 01
647.856;000.032;48;000.703;MIDI 01
647.862;000.068;60;000.688;MIDI 01
647.858;000.080;56;000.633;MIDI 01
647.817;000.130;50;000.031;MIDI 01
648.195;000.026;80;000.609;MIDI 01
648.198;000.028;73;000.609;MIDI 01
648.204;000.028;85;000.570;MIDI 01
648.202;000.043;53;000.625;MIDI 01
648.200;000.048;41;000.625;MIDI 01
648.292;000.077;85;000.766;MIDI 01
648.312;000.065;53;000.695;MIDI 01
648.294;000.089;80;000.633;MIDI 01
648.290;000.105;73;000.711;MIDI 01
648.316;000.080;41;000.688;MIDI 01
648.600;000.035;52;000.617;MIDI 01
648.608;000.029;68;000.609;MIDI 01
648.610;000.029;73;000.617;MIDI 01
648.623;000.020;80;000.523;MIDI 01
648.618;000.031;40;000.484;MIDI 01
648.695;000.060;52;000.781;MIDI 01
648.699;000.097;40;000.648;MIDI 01
648.702;000.100;68;000.711;MIDI 01
648.710;000.098;73;000.711;MIDI 01
648.712;000.130;80;000.805;MIDI 01
649.026;000.035;43;000.688;MIDI 01
649.032;000.033;31;000.617;MIDI 01
649.043;000.030;69;000.617;MIDI 01
649.046;000.029;81;000.633;MIDI 01
649.042;000.035;73;000.617;MIDI 01
649.048;000.035;76;000.555;MIDI 01
649.133;000.086;43;000.727;MIDI 01
649.135;000.086;81;000.703;MIDI 01
649.142;000.085;69;000.727;MIDI 01
649.140;000.102;73;000.688;MIDI 01
649.145;000.115;76;000.672;MIDI 01
649.138;000.137;31;000.742;MIDI 01
649.454;000.030;42;000.664;MIDI 01
649.456;000.036;30;000.625;MIDI 01
649.462;000.036;73;000.578;MIDI 01
649.482;000.024;82;000.438;MIDI 01
649.471;000.038;70;000.562;MIDI 01
649.473;000.038;76;000.539;MIDI 01
649.567;000.053;30;000.758;MIDI 01
649.569;000.070;82;000.695;MIDI 01
649.557;000.086;42;000.727;MIDI 01
649.571;000.090;76;000.656;MIDI 01
649.559;000.121;73;000.688;MIDI 01
649.562;000.121;70;000.766;MIDI 01
649.884;000.039;42;000.680;MIDI 01
649.877;000.048;54;000.703;MIDI 01
650.210;000.032;58;000.586;MIDI 01
650.214;000.057;70;000.594;MIDI 01
650.355;000.039;61;000.625;MIDI 01
650.365;000.035;73;000.609;MIDI 01
650.047;000.416;43;000.719;MIDI 01
650.049;000.430;55;000.734;MIDI 01
650.518;000.032;64;000.570;MIDI 01
650.516;000.043;76;000.711;MIDI 01
650.653;000.043;58;000.625;MIDI 01
650.666;000.045;46;000.570;MIDI 01
650.684;000.032;67;000.633;MIDI 01
650.686;000.036;79;000.695;MIDI 01
650.825;000.033;55;000.641;MIDI 01
650.841;000.033;70;000.625;MIDI 01
650.843;000.034;82;000.625;MIDI 01
650.847;000.032;41;000.500;MIDI 01
650.846;000.035;43;000.523;MIDI 01
650.890;000.053;53;000.156;MIDI 01
650.990;000.029;53;000.539;MIDI 01
650.987;000.036;41;000.547;MIDI 01
650.983;000.043;73;000.625;MIDI 01
650.985;000.045;85;000.688;MIDI 01
651.006;000.033;40;000.500;MIDI 01
651.010;000.049;52;000.352;MIDI 01
651.128;000.038;49;000.750;MIDI 01
651.136;000.039;76;000.680;MIDI 01
651.132;000.052;88;000.812;MIDI 01
651.156;000.032;37;000.484;MIDI 01
651.149;000.051;39;000.508;MIDI 01
651.280;000.025;79;000.695;MIDI 01
651.276;000.034;48;000.711;MIDI 01
651.277;000.043;91;000.781;MIDI 01
651.273;000.049;36;000.703;MIDI 01
651.425;000.022;95;000.805;MIDI 01
651.451;000.002;36;000.531;MIDI 01
651.421;000.033;35;000.727;MIDI 01
651.416;000.044;47;000.797;MIDI 01
651.423;000.045;87;000.789;MIDI 01
651.427;000.043;83;000.742;MIDI 01
651.590;000.023;35;000.047;MIDI 01
651.799;000.023;71;000.750;MIDI 01
651.889;000.049;71;000.703;MIDI 01
652.226;000.031;66;000.656;MIDI 01
652.316;000.073;66;000.750;MIDI 01
652.652;000.026;59;000.688;MIDI 01
652.743;000.043;59;000.734;MIDI 01
653.081;000.036;54;000.633;MIDI 01
653.194;000.065;54;000.719;MIDI 01
653.515;000.035;78;000.609;MIDI 01
653.510;000.042;66;000.656;MIDI 01
653.629;000.121;78;000.625;MIDI 01
653.636;000.164;66;000.719;MIDI 01
653.985;000.028;73;000.633;MIDI 01
653.981;000.034;61;000.680;MIDI 01
654.079;000.071;73;000.680;MIDI 01
654.087;000.080;61;000.758;MIDI 01
653.651;000.655;46;000.578;MIDI 01
653.645;000.667;47;000.562;MIDI 01
654.386;000.035;54;000.633;MIDI 01
654.394;000.030;66;000.602;MIDI 01
654.490;000.060;47;000.656;MIDI 01
654.498;000.058;45;000.695;MIDI 01
654.496;000.105;66;000.742;MIDI 01
654.493;000.124;54;000.680;MIDI 01
654.805;000.034;51;000.633;MIDI 01
654.817;000.026;63;000.484;MIDI 01
654.796;000.064;59;000.648;MIDI 01
654.902;000.030;51;000.695;MIDI 01
654.918;000.055;59;000.562;MIDI 01
654.923;000.067;63;000.695;MIDI 01
655.253;000.019;88;000.539;MIDI 01
655.234;000.040;56;000.656;MIDI 01
655.244;000.032;76;000.609;MIDI 01
655.236;000.051;44;000.578;MIDI 01
655.263;000.027;83;000.406;MIDI 01
655.271;000.035;84;000.305;MIDI 01
655.341;000.053;88;000.781;MIDI 01
655.351;000.056;83;000.688;MIDI 01
655.335;000.077;76;000.703;MIDI 01
655.347;000.089;56;000.766;MIDI 01
655.349;000.107;44;000.680;MIDI 01
655.657;000.030;76;000.656;MIDI 01
655.676;000.019;83;000.523;MIDI 01
655.665;000.034;55;000.633;MIDI 01
655.677;000.024;71;000.430;MIDI 01
655.679;000.033;43;000.492;MIDI 01
655.727;000.075;69;000.062;MIDI 01
655.760;000.055;55;000.719;MIDI 01
655.790;000.036;45;000.492;MIDI 01
655.777;000.067;43;000.641;MIDI 01
655.773;000.073;71;000.742;MIDI 01
655.763;000.125;83;000.797;MIDI 01
655.765;000.125;76;000.719;MIDI 01
656.102;000.030;46;000.656;MIDI 01
656.119;000.024;84;000.617;MIDI 01
656.118;000.029;72;000.602;MIDI 01
656.115;000.034;34;000.578;MIDI 01
656.112;000.039;79;000.578;MIDI 01
656.107;000.046;76;000.648;MIDI 01
656.205;000.110;84;000.703;MIDI 01
656.210;000.110;72;000.727;MIDI 01
656.211;000.126;76;000.688;MIDI 01
656.219;000.127;79;000.711;MIDI 01
656.214;000.139;34;000.742;MIDI 01
656.197;000.157;46;000.797;MIDI 01
656.580;000.042;33;000.602;MIDI 01
656.575;000.049;45;000.680;MIDI 01
656.591;000.035;85;000.562;MIDI 01
656.587;000.043;73;000.641;MIDI 01
656.596;000.040;79;000.492;MIDI 01
656.569;000.077;76;000.461;MIDI 01
656.697;000.056;33;000.750;MIDI 01
656.686;000.085;45;000.758;MIDI 01
656.696;000.086;85;000.742;MIDI 01
656.704;000.106;79;000.711;MIDI 01
656.699;000.117;73;000.742;MIDI 01
656.694;000.134;76;000.664;MIDI 01
657.016;000.053;57;000.719;MIDI 01
657.022;000.068;45;000.719;MIDI 01
657.397;000.043;61;000.641;MIDI 01
657.399;000.071;73;000.641;MIDI 01
657.569;000.036;64;000.578;MIDI 01
657.587;000.025;74;000.516;MIDI 01
657.581;000.033;76;000.562;MIDI 01
657.218;000.516;46;000.742;MIDI 01
657.215;000.532;58;000.781;MIDI 01
657.737;000.028;67;000.594;MIDI 01
657.740;000.028;79;000.641;MIDI 01
657.893;000.044;61;000.641;MIDI 01
657.906;000.032;70;000.633;MIDI 01
657.908;000.035;49;000.539;MIDI 01
657.904;000.067;82;000.641;MIDI 01
658.058;000.039;73;000.617;MIDI 01
658.067;000.035;58;000.570;MIDI 01
658.060;000.044;85;000.664;MIDI 01
658.075;000.035;46;000.594;MIDI 01
658.229;000.021;76;000.555;MIDI 01
658.222;000.030;55;000.641;MIDI 01
658.227;000.036;43;000.633;MIDI 01
658.220;000.045;88;000.734;MIDI 01
658.258;000.030;77;000.383;MIDI 01
658.381;000.030;53;000.555;MIDI 01
658.383;000.030;79;000.695;MIDI 01
658.379;000.035;91;000.773;MIDI 01
658.388;000.032;52;000.531;MIDI 01
658.398;000.038;41;000.453;MIDI 01
658.404;000.036;40;000.406;MIDI 01
658.525;000.025;82;000.562;MIDI 01
658.513;000.069;51;000.766;MIDI 01
658.521;000.076;39;000.727;MIDI 01
658.515;000.084;94;000.750;MIDI 01
658.670;000.043;98;000.844;MIDI 01
658.667;000.062;38;000.766;MIDI 01
658.668;000.076;50;000.797;MIDI 01
658.665;000.089;90;000.828;MIDI 01
658.673;000.090;86;000.727;MIDI 01
659.064;000.024;69;000.664;MIDI 01
659.071;000.026;74;000.586;MIDI 01
659.153;000.048;69;000.727;MIDI 01
659.158;000.057;74;000.742;MIDI 01
659.482;000.044;69;000.641;MIDI 01
659.500;000.028;62;000.453;MIDI 01
659.578;000.048;69;000.664;MIDI 01
659.595;000.083;62;000.695;MIDI 01
659.903;000.031;57;000.648;MIDI 01
659.907;000.031;62;000.609;MIDI 01
660.015;000.034;57;000.688;MIDI 01
660.017;000.070;62;000.703;MIDI 01
660.345;000.041;57;000.617;MIDI 01
660.364;000.031;50;000.484;MIDI 01
660.447;000.040;57;000.641;MIDI 01
660.456;000.061;50;000.695;MIDI 01
660.775;000.028;93;000.602;MIDI 01
660.771;000.036;86;000.617;MIDI 01
660.777;000.032;81;000.602;MIDI 01
660.874;000.051;93;000.680;MIDI 01
660.870;000.059;38;000.672;MIDI 01
660.872;000.065;48;000.703;MIDI 01
660.881;000.071;86;000.719;MIDI 01
660.878;000.094;81;000.719;MIDI 01
661.211;000.027;81;000.648;MIDI 01
661.219;000.026;88;000.617;MIDI 01
661.216;000.031;76;000.617;MIDI 01
661.312;000.031;88;000.672;MIDI 01
661.307;000.065;81;000.664;MIDI 01
661.309;000.073;76;000.727;MIDI 01
661.364;000.038;60;000.367;MIDI 01
661.632;000.031;74;000.664;MIDI 01
661.627;000.039;60;000.555;MIDI 01
661.645;000.025;81;000.562;MIDI 01
661.641;000.031;50;000.438;MIDI 01
661.638;000.036;69;000.625;MIDI 01
661.740;000.044;81;000.703;MIDI 01
661.753;000.038;69;000.609;MIDI 01
661.732;000.074;74;000.656;MIDI 01
661.730;000.096;60;000.719;MIDI 01
661.746;000.098;50;000.594;MIDI 01
662.041;000.031;78;000.547;MIDI 01
662.036;000.039;66;000.570;MIDI 01
662.030;000.047;74;000.609;MIDI 01
662.039;000.041;60;000.602;MIDI 01
662.069;000.038;50;000.344;MIDI 01
662.166;000.031;67;000.695;MIDI 01
662.178;000.025;74;000.672;MIDI 01
662.159;000.052;59;000.680;MIDI 01
662.169;000.060;79;000.734;MIDI 01
662.161;000.083;50;000.609;MIDI 01
662.299;000.040;74;000.195;MIDI 01
662.436;000.028;49;000.586;MIDI 01
662.434;000.036;37;000.602;MIDI 01
662.496;000.026;83;000.617;MIDI 01
662.510;000.026;86;000.555;MIDI 01
662.526;000.025;79;000.406;MIDI 01
662.586;000.041;38;000.680;MIDI 01
662.589;000.041;50;000.688;MIDI 01
662.592;000.040;91;000.250;MIDI 01
662.594;000.055;83;000.703;MIDI 01
662.601;000.056;86;000.719;MIDI 01
662.605;000.058;79;000.602;MIDI 01
662.744;000.043;54;000.711;MIDI 01
662.753;000.045;42;000.594;MIDI 01
662.898;000.034;55;000.664;MIDI 01
662.905;000.039;43;000.625;MIDI 01
662.918;000.032;79;000.648;MIDI 01
662.950;000.048;74;000.398;MIDI 01
663.002;000.033;74;000.547;MIDI 01
663.011;000.027;79;000.719;MIDI 01
663.007;000.066;82;000.391;MIDI 01
663.028;000.056;56;000.734;MIDI 01
662.982;000.106;86;000.062;MIDI 01
663.030;000.067;44;000.664;MIDI 01
663.179;000.033;57;000.648;MIDI 01
663.177;000.051;45;000.680;MIDI 01
663.318;000.071;46;000.641;MIDI 01
663.320;000.071;58;000.688;MIDI 01
663.386;000.021;98;000.531;MIDI 01
663.376;000.033;86;000.609;MIDI 01
663.378;000.033;91;000.594;MIDI 01
663.380;000.033;94;000.586;MIDI 01
663.485;000.028;94;000.648;MIDI 01
663.466;000.051;59;000.711;MIDI 01
663.470;000.049;47;000.703;MIDI 01
663.479;000.059;86;000.703;MIDI 01
663.473;000.071;91;000.789;MIDI 01
663.477;000.070;98;000.789;MIDI 01
663.619;000.053;60;000.719;MIDI 01
663.617;000.082;48;000.711;MIDI 01
663.760;000.073;61;000.758;MIDI 01
663.763;000.073;49;000.625;MIDI 01
663.799;000.040;51;000.375;MIDI 01
663.815;000.029;88;000.398;MIDI 01
663.789;000.064;94;000.633;MIDI 01
663.833;000.032;91;000.383;MIDI 01
663.900;000.044;94;000.727;MIDI 01
663.907;000.053;102;000.766;MIDI 01
663.923;000.067;93;000.719;MIDI 01
663.917;000.097;90;000.750;MIDI 01
663.905;000.262;50;000.742;MIDI 01
663.902;000.344;62;000.766;MIDI 01
664.283;000.029;74;000.617;MIDI 01
664.294;000.024;69;000.508;MIDI 01
664.303;000.026;67;000.453;MIDI 01
664.382;000.049;69;000.773;MIDI 01
664.372;000.072;74;000.703;MIDI 01
664.701;000.034;69;000.578;MIDI 01
664.711;000.034;62;000.484;MIDI 01
664.795;000.026;69;000.688;MIDI 01
664.805;000.080;62;000.703;MIDI 01
665.126;000.030;57;000.625;MIDI 01
665.129;000.029;62;000.586;MIDI 01
665.215;000.052;57;000.688;MIDI 01
665.217;000.075;62;000.688;MIDI 01
665.555;000.039;57;000.625;MIDI 01
665.579;000.027;50;000.438;MIDI 01
665.655;000.052;57;000.734;MIDI 01
665.673;000.064;50;000.711;MIDI 01
666.029;000.029;93;000.672;MIDI 01
666.034;000.033;81;000.625;MIDI 01
666.023;000.054;86;000.688;MIDI 01
666.153;000.052;93;000.750;MIDI 01
666.145;000.064;38;000.648;MIDI 01
666.149;000.068;48;000.695;MIDI 01
666.155;000.084;86;000.734;MIDI 01
666.151;000.099;81;000.758;MIDI 01
666.483;000.024;88;000.672;MIDI 01
666.472;000.039;81;000.695;MIDI 01
666.481;000.032;76;000.617;MIDI 01
666.589;000.035;88;000.594;MIDI 01
666.612;000.023;86;000.500;MIDI 01
666.601;000.050;76;000.625;MIDI 01
666.603;000.051;74;000.594;MIDI 01
666.592;000.069;81;000.734;MIDI 01
666.898;000.030;74;000.672;MIDI 01
666.905;000.026;81;000.648;MIDI 01
666.903;000.032;69;000.602;MIDI 01
666.900;000.051;50;000.547;MIDI 01
666.890;000.068;60;000.656;MIDI 01
667.017;000.060;81;000.633;MIDI 01
667.023;000.069;74;000.758;MIDI 01
667.021;000.074;69;000.672;MIDI 01
667.030;000.078;60;000.672;MIDI 01
667.039;000.084;50;000.656;MIDI 01
667.358;000.027;68;000.445;MIDI 01
667.323;000.083;74;000.711;MIDI 01
667.329;000.078;66;000.680;MIDI 01
667.328;000.099;60;000.742;MIDI 01
667.326;000.114;78;000.711;MIDI 01
667.335;000.132;50;000.617;MIDI 01
667.668;000.003;73;000.273;MIDI 01
667.631;000.049;67;000.719;MIDI 01
667.630;000.056;59;000.711;MIDI 01
667.626;000.062;50;000.625;MIDI 01
667.634;000.068;74;000.742;MIDI 01
667.635;000.078;79;000.734;MIDI 01
667.940;000.049;54;000.555;MIDI 01
667.927;000.067;66;000.656;MIDI 01
668.042;000.034;83;000.609;MIDI 01
668.055;000.033;86;000.531;MIDI 01
668.071;000.023;79;000.406;MIDI 01
668.084;000.049;91;000.258;MIDI 01
668.129;000.056;67;000.664;MIDI 01
668.169;000.019;84;000.562;MIDI 01
668.131;000.068;55;000.648;MIDI 01
668.138;000.076;91;000.477;MIDI 01
668.194;000.029;81;000.398;MIDI 01
668.155;000.071;83;000.570;MIDI 01
668.158;000.075;86;000.641;MIDI 01
668.160;000.090;79;000.578;MIDI 01
668.355;000.032;62;000.633;MIDI 01
668.361;000.036;50;000.594;MIDI 01
668.530;000.055;59;000.664;MIDI 01
668.532;000.068;47;000.672;MIDI 01
668.609;000.023;83;000.477;MIDI 01
668.618;000.024;86;000.484;MIDI 01
668.611;000.036;74;000.523;MIDI 01
668.596;000.055;79;000.617;MIDI 01
668.702;000.031;74;000.719;MIDI 01
668.724;000.026;56;000.508;MIDI 01
668.700;000.061;79;000.594;MIDI 01
668.716;000.048;58;000.633;MIDI 01
668.708;000.079;46;000.711;MIDI 01
668.712;000.078;82;000.711;MIDI 01
668.710;000.082;86;000.664;MIDI 01
668.890;000.051;57;000.672;MIDI 01
668.891;000.062;45;000.672;MIDI 01
669.040;000.069;55;000.734;MIDI 01
669.043;000.078;43;000.688;MIDI 01
669.126;000.032;86;000.641;MIDI 01
669.120;000.052;98;000.703;MIDI 01
669.118;000.067;91;000.680;MIDI 01
669.121;000.067;94;000.664;MIDI 01
669.237;000.064;54;000.750;MIDI 01
669.243;000.079;42;000.727;MIDI 01
669.260;000.121;86;000.734;MIDI 01
669.264;000.142;98;000.789;MIDI 01
669.267;000.166;94;000.656;MIDI 01
669.261;000.197;91;000.711;MIDI 01
669.421;000.066;52;000.711;MIDI 01
669.426;000.084;40;000.711;MIDI 01
669.544;000.066;91;000.727;MIDI 01
669.552;000.092;88;000.695;MIDI 01
669.548;000.112;100;000.758;MIDI 01
669.554;000.131;94;000.727;MIDI 01
669.685;000.066;50;000.680;MIDI 01
669.690;000.095;38;000.719;MIDI 01
670.258;000.057;49;000.492;MIDI 01
670.249;000.073;37;000.523;MIDI 01
669.961;000.520;102;000.828;MIDI 01
670.458;000.029;50;000.438;MIDI 01
670.468;000.032;48;000.445;MIDI 01
670.460;000.044;36;000.406;MIDI 01
669.960;000.547;93;000.719;MIDI 01
670.497;000.048;38;000.227;MIDI 01
669.967;000.584;90;000.812;MIDI 01
670.626;000.040;54;000.594;MIDI 01
670.641;000.042;42;000.477;MIDI 01
670.792;000.040;55;000.586;MIDI 01
670.799;000.124;43;000.562;MIDI 01
670.945;000.084;56;000.680;MIDI 01
670.943;000.090;44;000.633;MIDI 01
671.017;000.021;90;000.492;MIDI 01
671.007;000.034;78;000.578;MIDI 01
670.999;000.059;81;000.594;MIDI 01
671.003;000.077;86;000.594;MIDI 01
671.125;000.053;45;000.680;MIDI 01
671.123;000.057;57;000.664;MIDI 01
671.103;000.108;81;000.539;MIDI 01
671.115;000.152;90;000.672;MIDI 01
671.307;000.049;46;000.562;MIDI 01
671.299;000.061;58;000.609;MIDI 01
671.455;000.043;47;000.609;MIDI 01
671.452;000.053;59;000.641;MIDI 01
671.608;000.045;48;000.648;MIDI 01
671.605;000.051;60;000.680;MIDI 01
671.746;000.071;61;000.766;MIDI 01
671.751;000.072;49;000.672;MIDI 01
671.888;000.062;62;000.750;MIDI 01
671.891;000.114;50;000.711;MIDI 01
672.060;000.196;91;000.750;MIDI 01
672.240;000.028;47;000.570;MIDI 01
672.244;000.038;35;000.562;MIDI 01
672.056;000.229;88;000.719;MIDI 01
672.058;000.233;84;000.695;MIDI 01
672.062;000.345;79;000.711;MIDI 01
672.379;000.039;48;000.641;MIDI 01
672.388;000.036;36;000.586;MIDI 01
672.530;000.038;52;000.656;MIDI 01
672.557;000.041;40;000.414;MIDI 01
672.683;000.056;53;000.633;MIDI 01
672.689;000.069;41;000.617;MIDI 01
672.869;000.021;53;000.375;MIDI 01
672.857;000.036;55;000.391;MIDI 01
673.002;000.035;43;000.508;MIDI 01
673.033;000.036;44;000.102;MIDI 01
673.067;000.052;54;000.023;MIDI 01
673.150;000.031;55;000.570;MIDI 01
673.160;000.028;43;000.391;MIDI 01
673.158;000.031;45;000.469;MIDI 01
672.932;000.354;67;000.625;MIDI 01
672.928;000.376;72;000.633;MIDI 01
673.298;000.026;56;000.531;MIDI 01
672.930;000.397;76;000.656;MIDI 01
673.308;000.023;58;000.516;MIDI 01
673.295;000.041;46;000.656;MIDI 01
672.939;000.423;79;000.586;MIDI 01
673.422;000.036;57;000.703;MIDI 01
673.434;000.030;45;000.633;MIDI 01
673.586;000.023;60;000.562;MIDI 01
673.594;000.025;59;000.516;MIDI 01
673.604;000.042;47;000.406;MIDI 01
673.697;000.043;60;000.719;MIDI 01
673.695;000.096;48;000.531;MIDI 01
674.006;000.026;45;000.680;MIDI 01
674.024;000.034;33;000.547;MIDI 01
673.854;000.232;94;000.781;MIDI 01
673.860;000.232;89;000.672;MIDI 01
673.858;000.241;86;000.719;MIDI 01
673.856;000.291;82;000.711;MIDI 01
674.142;000.027;46;000.648;MIDI 01
674.161;000.042;34;000.422;MIDI 01
674.277;000.034;50;000.672;MIDI 01
674.283;000.046;38;000.648;MIDI 01
674.426;000.079;51;000.656;MIDI 01
674.424;000.083;39;000.641;MIDI 01
674.572;000.046;52;000.656;MIDI 01
674.574;000.046;40;000.641;MIDI 01
674.605;000.021;82;000.492;MIDI 01
674.585;000.042;74;000.633;MIDI 01
674.599;000.034;77;000.508;MIDI 01
674.601;000.034;70;000.539;MIDI 01
674.724;000.031;53;000.648;MIDI 01
674.699;000.062;74;000.609;MIDI 01
674.726;000.046;41;000.664;MIDI 01
674.701;000.073;70;000.641;MIDI 01
674.710;000.066;77;000.586;MIDI 01
674.703;000.109;82;000.617;MIDI 01
674.859;000.035;54;000.664;MIDI 01
674.868;000.036;42;000.539;MIDI 01
674.999;000.044;43;000.680;MIDI 01
674.992;000.054;55;000.711;MIDI 01
675.125;000.046;56;000.703;MIDI 01
675.129;000.061;44;000.648;MIDI 01
675.264;000.053;57;000.695;MIDI 01
675.272;000.078;45;000.664;MIDI 01
675.405;000.061;58;000.703;MIDI 01
675.421;000.097;46;000.555;MIDI 01
675.606;000.022;84;000.477;MIDI 01
675.595;000.079;75;000.547;MIDI 01
675.597;000.080;80;000.555;MIDI 01
675.605;000.100;72;000.531;MIDI 01
675.731;000.032;43;000.523;MIDI 01
675.744;000.172;31;000.453;MIDI 01
675.868;000.050;32;000.453;MIDI 01
675.870;000.053;44;000.594;MIDI 01
676.056;000.083;60;000.469;MIDI 01
676.045;000.109;63;000.547;MIDI 01
676.064;000.103;68;000.492;MIDI 01
676.052;000.117;72;000.578;MIDI 01
676.191;000.043;55;000.594;MIDI 01
676.196;000.107;43;000.578;MIDI 01
676.333;000.083;56;000.617;MIDI 01
676.317;000.110;44;000.602;MIDI 01
676.487;000.038;61;000.594;MIDI 01
676.485;000.083;66;000.602;MIDI 01
676.484;000.109;70;000.641;MIDI 01
676.490;000.117;73;000.625;MIDI 01
676.611;000.052;53;000.648;MIDI 01
676.618;000.098;41;000.633;MIDI 01
676.759;000.035;54;000.656;MIDI 01
676.753;000.108;42;000.641;MIDI 01
676.915;000.076;73;000.672;MIDI 01
676.911;000.096;78;000.688;MIDI 01
676.910;000.105;82;000.570;MIDI 01
676.907;000.140;85;000.773;MIDI 01
677.023;000.041;41;000.656;MIDI 01
677.034;000.042;29;000.555;MIDI 01
677.100;000.072;28;000.055;MIDI 01
677.172;000.032;30;000.570;MIDI 01
677.158;000.069;42;000.742;MIDI 01
677.239;000.064;32;000.156;MIDI 01
677.321;000.059;88;000.734;MIDI 01
677.326;000.086;83;000.617;MIDI 01
677.330;000.098;80;000.633;MIDI 01
677.333;000.116;76;000.609;MIDI 01
677.459;000.056;39;000.555;MIDI 01
677.453;000.071;51;000.617;MIDI 01
677.596;000.051;40;000.570;MIDI 01
677.594;000.069;52;000.641;MIDI 01
677.745;000.094;71;000.602;MIDI 01
677.751;000.127;76;000.641;MIDI 01
677.757;000.126;68;000.578;MIDI 01
677.865;000.073;63;000.602;MIDI 01
677.882;000.062;51;000.531;MIDI 01
678.006;000.071;64;000.641;MIDI 01
678.010;000.106;52;000.617;MIDI 01
678.125;000.035;66;000.633;MIDI 01
678.117;000.067;69;000.602;MIDI 01
678.127;000.090;74;000.602;MIDI 01
678.134;000.106;78;000.617;MIDI 01
678.276;000.041;49;000.531;MIDI 01
678.256;000.066;61;000.680;MIDI 01
678.315;000.054;51;000.234;MIDI 01
678.391;000.048;82;000.445;MIDI 01
678.399;000.053;62;000.680;MIDI 01
678.403;000.095;50;000.648;MIDI 01
678.516;000.076;81;000.664;MIDI 01
678.526;000.082;86;000.641;MIDI 01
678.524;000.098;78;000.656;MIDI 01
678.528;000.115;90;000.711;MIDI 01
678.643;000.038;49;000.719;MIDI 01
678.661;000.035;37;000.562;MIDI 01
678.668;000.039;39;000.484;MIDI 01
678.805;000.033;36;000.516;MIDI 01
678.784;000.055;50;000.672;MIDI 01
678.792;000.079;38;000.633;MIDI 01
678.929;000.021;85;000.578;MIDI 01
678.905;000.057;91;000.789;MIDI 01
678.907;000.075;88;000.680;MIDI 01
678.986;000.002;81;000.125;MIDI 01
678.914;000.092;84;000.656;MIDI 01
678.916;000.103;79;000.664;MIDI 01
679.054;000.031;47;000.680;MIDI 01
679.065;000.030;35;000.602;MIDI 01
679.190;000.038;36;000.664;MIDI 01
679.184;000.062;48;000.734;MIDI 01
679.305;000.034;72;000.586;MIDI 01
679.323;000.026;65;000.516;MIDI 01
679.319;000.047;67;000.469;MIDI 01
679.321;000.061;77;000.586;MIDI 01
679.314;000.074;79;000.602;MIDI 01
679.284;000.107;75;000.508;MIDI 01
679.440;000.028;59;000.664;MIDI 01
679.450;000.028;47;000.539;MIDI 01
679.571;000.056;60;000.711;MIDI 01
679.571;000.076;48;000.672;MIDI 01
679.681;000.051;70;000.695;MIDI 01
679.676;000.066;74;000.648;MIDI 01
679.688;000.076;77;000.617;MIDI 01
679.683;000.106;82;000.719;MIDI 01
679.795;000.031;57;000.672;MIDI 01
679.802;000.040;45;000.703;MIDI 01
679.929;000.049;58;000.711;MIDI 01
679.949;000.040;86;000.445;MIDI 01
679.935;000.084;46;000.672;MIDI 01
680.075;000.069;86;000.727;MIDI 01
680.082;000.068;82;000.695;MIDI 01
680.080;000.091;89;000.625;MIDI 01
680.078;000.127;94;000.773;MIDI 01
680.200;000.036;45;000.695;MIDI 01
680.211;000.038;33;000.672;MIDI 01
680.326;000.077;46;000.797;MIDI 01
680.331;000.096;34;000.688;MIDI 01
680.510;000.042;96;000.789;MIDI 01
680.509;000.082;92;000.766;MIDI 01
680.502;000.096;87;000.680;MIDI 01
680.513;000.100;84;000.734;MIDI 01
680.673;000.029;43;000.648;MIDI 01
680.677;000.108;31;000.641;MIDI 01
680.807;000.049;44;000.766;MIDI 01
680.828;000.034;32;000.477;MIDI 01
680.961;000.031;72;000.586;MIDI 01
680.948;000.068;75;000.695;MIDI 01
680.958;000.085;80;000.656;MIDI 01
680.959;000.097;84;000.656;MIDI 01
681.080;000.027;50;000.641;MIDI 01
681.085;000.115;38;000.641;MIDI 01
681.216;000.066;39;000.625;MIDI 01
681.208;000.075;51;000.734;MIDI 01
681.261;000.072;92;000.055;MIDI 01
681.349;000.028;96;000.742;MIDI 01
681.337;000.081;92;000.492;MIDI 01
681.347;000.080;87;000.750;MIDI 01
681.345;000.093;84;000.727;MIDI 01
681.458;000.037;55;000.633;MIDI 01
681.468;000.130;43;000.641;MIDI 01
681.592;000.062;44;000.617;MIDI 01
681.589;000.081;56;000.711;MIDI 01
681.754;000.001;71;000.383;MIDI 01
681.730;000.038;72;000.547;MIDI 01
681.748;000.024;83;000.555;MIDI 01
681.720;000.071;75;000.773;MIDI 01
681.732;000.093;80;000.656;MIDI 01
681.734;000.101;84;000.625;MIDI 01
681.850;000.033;50;000.641;MIDI 01
681.841;000.045;62;000.703;MIDI 01
681.983;000.076;51;000.664;MIDI 01
681.979;000.109;63;000.789;MIDI 01
682.154;000.024;86;000.531;MIDI 01
682.132;000.051;96;000.766;MIDI 01
682.170;000.033;87;000.297;MIDI 01
682.178;000.028;93;000.383;MIDI 01
682.141;000.069;88;000.633;MIDI 01
682.131;000.080;92;000.750;MIDI 01
682.129;000.102;84;000.719;MIDI 01
682.293;000.029;67;000.633;MIDI 01
682.299;000.048;55;000.594;MIDI 01
682.419;000.058;68;000.695;MIDI 01
682.417;000.097;56;000.641;MIDI 01
682.541;000.033;72;000.578;MIDI 01
682.543;000.047;75;000.656;MIDI 01
682.551;000.065;80;000.648;MIDI 01
682.545;000.087;84;000.656;MIDI 01
682.657;000.030;62;000.672;MIDI 01
682.665;000.032;50;000.625;MIDI 01
682.779;000.057;63;000.734;MIDI 01
682.802;000.044;92;000.297;MIDI 01
682.786;000.090;51;000.648;MIDI 01
682.919;000.036;96;000.750;MIDI 01
682.923;000.062;92;000.742;MIDI 01
682.914;000.080;87;000.766;MIDI 01
682.916;000.092;84;000.719;MIDI 01
683.035;000.039;55;000.688;MIDI 01
683.042;000.052;43;000.703;MIDI 01
683.171;000.070;56;000.805;MIDI 01
683.217;000.041;46;000.422;MIDI 01
683.182;000.098;44;000.664;MIDI 01
683.336;000.068;72;000.672;MIDI 01
683.333;000.099;75;000.742;MIDI 01
683.341;000.127;80;000.680;MIDI 01
683.339;000.140;84;000.727;MIDI 01
683.485;000.038;50;000.672;MIDI 01
683.484;000.078;38;000.695;MIDI 01
683.648;000.053;51;000.812;MIDI 01
683.659;000.086;39;000.688;MIDI 01
684.003;000.052;96;000.797;MIDI 01
684.007;000.051;32;000.680;MIDI 01
684.034;000.027;90;000.484;MIDI 01
683.997;000.079;44;000.805;MIDI 01
684.005;000.095;92;000.797;MIDI 01
684.001;000.107;84;000.742;MIDI 01
683.995;000.127;87;000.805;MIDI 01
684.517;000.036;68;000.648;MIDI 01
684.523;000.035;63;000.672;MIDI 01
684.509;000.059;75;000.727;MIDI 01
684.531;000.041;56;000.602;MIDI 01
684.646;000.054;63;000.750;MIDI 01
684.649;000.083;56;000.750;MIDI 01
684.629;000.470;75;000.773;MIDI 01
684.634;000.502;68;000.758;MIDI 01
685.691;000.038;56;000.633;MIDI 01
685.696;000.036;63;000.625;MIDI 01
685.703;000.036;51;000.586;MIDI 01
685.698;000.054;68;000.656;MIDI 01
685.812;000.054;56;000.742;MIDI 01
685.810;000.093;51;000.734;MIDI 01
685.811;000.107;63;000.773;MIDI 01
685.816;000.117;68;000.703;MIDI 01
686.737;000.041;51;000.617;MIDI 01
686.745;000.038;44;000.609;MIDI 01
686.751;000.038;56;000.672;MIDI 01
686.754;000.041;63;000.656;MIDI 01
686.857;000.056;51;000.703;MIDI 01
686.859;000.095;44;000.703;MIDI 01
686.873;000.083;56;000.773;MIDI 01
686.871;000.088;63;000.695;MIDI 01
687.188;000.034;44;000.695;MIDI 01
687.205;000.031;39;000.570;MIDI 01
687.201;000.037;51;000.656;MIDI 01
687.203;000.044;56;000.664;MIDI 01
687.316;000.062;44;000.797;MIDI 01
687.331;000.067;51;000.773;MIDI 01
687.331;000.079;56;000.797;MIDI 01
687.320;000.110;39;000.703;MIDI 01
687.744;000.035;39;000.727;MIDI 01
687.749;000.044;44;000.734;MIDI 01
687.751;000.043;32;000.695;MIDI 01
687.747;000.064;51;000.711;MIDI 01
687.883;000.084;44;000.781;MIDI 01
687.880;000.110;51;000.773;MIDI 01
687.889;000.108;32;000.734;MIDI 01
687.885;000.121;39;000.734;MIDI 01
688.446;000.029;45;000.844;MIDI 01
688.442;000.076;51;000.930;MIDI 01
688.445;000.103;39;000.719;MIDI 01
688.452;000.109;33;000.594;MIDI 01
688.725;000.034;45;000.859;MIDI 01
688.727;000.084;51;000.859;MIDI 01
689.168;000.055;59;000.727;MIDI 01
689.166;000.062;71;000.750;MIDI 01
688.707;000.622;39;000.695;MIDI 01
688.717;000.629;33;000.625;MIDI 01
689.421;000.058;60;000.711;MIDI 01
689.423;000.064;72;000.727;MIDI 01
689.646;000.062;63;000.703;MIDI 01
689.647;000.099;75;000.758;MIDI 01
689.825;000.060;66;000.703;MIDI 01
689.828;000.064;78;000.719;MIDI 01
690.003;000.028;69;000.625;MIDI 01
690.000;000.047;81;000.758;MIDI 01
690.035;000.023;71;000.453;MIDI 01
690.171;000.027;72;000.688;MIDI 01
690.172;000.028;84;000.711;MIDI 01
690.316;000.026;75;000.688;MIDI 01
690.311;000.068;87;000.766;MIDI 01
689.634;000.817;45;000.648;MIDI 01
689.644;000.822;33;000.602;MIDI 01
689.639;000.852;42;000.609;MIDI 01
690.487;000.019;91;000.578;MIDI 01
689.649;000.870;39;000.523;MIDI 01
690.475;000.045;93;000.711;MIDI 01
690.473;000.049;81;000.703;MIDI 01
689.655;000.869;36;000.516;MIDI 01
690.605;000.045;33;000.672;MIDI 01
690.658;000.002;90;000.406;MIDI 01
690.607;000.065;36;000.523;MIDI 01
690.621;000.064;80;000.703;MIDI 01
690.618;000.076;92;000.758;MIDI 01
690.609;000.093;39;000.594;MIDI 01
690.614;000.095;42;000.664;MIDI 01
690.611;000.101;45;000.766;MIDI 01
690.782;000.039;91;000.742;MIDI 01
690.780;000.043;79;000.719;MIDI 01
690.922;000.025;78;000.688;MIDI 01
690.930;000.032;90;000.617;MIDI 01
691.061;000.022;89;000.695;MIDI 01
691.059;000.031;77;000.672;MIDI 01
691.209;000.032;76;000.641;MIDI 01
691.215;000.029;88;000.641;MIDI 01
691.351;000.028;75;000.625;MIDI 01
691.349;000.034;69;000.602;MIDI 01
691.360;000.025;87;000.484;MIDI 01
691.357;000.037;63;000.523;MIDI 01
691.353;000.044;60;000.562;MIDI 01
691.478;000.024;69;000.586;MIDI 01
691.490;000.028;86;000.641;MIDI 01
691.487;000.032;74;000.633;MIDI 01
691.477;000.047;60;000.531;MIDI 01
691.468;000.061;63;000.656;MIDI 01
691.629;000.035;73;000.570;MIDI 01
691.632;000.046;85;000.531;MIDI 01
691.765;000.033;63;000.664;MIDI 01
691.763;000.037;72;000.633;MIDI 01
691.769;000.034;84;000.648;MIDI 01
691.780;000.033;57;000.531;MIDI 01
691.771;000.050;54;000.562;MIDI 01
691.904;000.036;57;000.562;MIDI 01
691.892;000.057;63;000.617;MIDI 01
691.917;000.040;71;000.672;MIDI 01
691.919;000.040;83;000.648;MIDI 01
691.895;000.079;54;000.617;MIDI 01
692.072;000.038;70;000.617;MIDI 01
692.074;000.044;82;000.570;MIDI 01
692.211;000.040;57;000.625;MIDI 01
692.218;000.035;51;000.539;MIDI 01
692.209;000.050;48;000.555;MIDI 01
692.222;000.041;69;000.672;MIDI 01
692.224;000.046;81;000.688;MIDI 01
692.334;000.057;57;000.727;MIDI 01
692.374;000.049;68;000.609;MIDI 01
692.378;000.057;80;000.602;MIDI 01
692.342;000.096;51;000.617;MIDI 01
692.350;000.090;48;000.656;MIDI 01
692.520;000.029;79;000.625;MIDI 01
692.522;000.029;67;000.602;MIDI 01
692.638;000.070;78;000.609;MIDI 01
692.645;000.068;66;000.641;MIDI 01
692.798;000.053;72;000.648;MIDI 01
692.790;000.064;77;000.727;MIDI 01
692.796;000.062;65;000.719;MIDI 01
692.970;000.038;64;000.641;MIDI 01
692.968;000.048;76;000.711;MIDI 01
692.784;000.321;33;000.695;MIDI 01
692.779;000.351;45;000.734;MIDI 01
693.126;000.041;65;000.648;MIDI 01
693.121;000.054;77;000.727;MIDI 01
692.794;000.396;36;000.578;MIDI 01
692.781;000.419;41;000.680;MIDI 01
692.788;000.418;39;000.633;MIDI 01
693.311;000.051;81;000.742;MIDI 01
693.315;000.054;69;000.719;MIDI 01
693.508;000.029;72;000.656;MIDI 01
693.505;000.047;84;000.711;MIDI 01
693.651;000.032;75;000.672;MIDI 01
693.649;000.057;87;000.656;MIDI 01
693.717;000.058;85;000.125;MIDI 01
693.793;000.030;76;000.625;MIDI 01
693.788;000.051;88;000.703;MIDI 01
693.930;000.027;77;000.711;MIDI 01
693.932;000.029;89;000.727;MIDI 01
693.290;000.718;33;000.625;MIDI 01
693.278;000.757;45;000.688;MIDI 01
693.286;000.797;36;000.578;MIDI 01
693.282;000.808;39;000.570;MIDI 01
693.284;000.833;41;000.500;MIDI 01
694.062;000.057;78;000.711;MIDI 01
694.060;000.067;90;000.711;MIDI 01
694.168;000.041;33;000.656;MIDI 01
694.174;000.057;36;000.562;MIDI 01
694.176;000.076;41;000.547;MIDI 01
694.206;000.047;89;000.766;MIDI 01
694.204;000.051;77;000.734;MIDI 01
694.166;000.092;39;000.617;MIDI 01
694.170;000.090;45;000.773;MIDI 01
694.360;000.032;76;000.758;MIDI 01
694.364;000.031;88;000.695;MIDI 01
694.504;000.025;75;000.617;MIDI 01
694.502;000.038;87;000.617;MIDI 01
694.640;000.030;74;000.656;MIDI 01
694.638;000.034;86;000.711;MIDI 01
694.782;000.028;73;000.586;MIDI 01
694.778;000.049;85;000.594;MIDI 01
694.921;000.031;84;000.609;MIDI 01
694.919;000.034;72;000.570;MIDI 01
694.911;000.045;69;000.633;MIDI 01
694.925;000.036;63;000.562;MIDI 01
694.914;000.064;60;000.562;MIDI 01
695.046;000.023;69;000.656;MIDI 01
695.051;000.044;71;000.648;MIDI 01
695.044;000.053;60;000.516;MIDI 01
695.053;000.046;83;000.648;MIDI 01
695.035;000.070;63;000.703;MIDI 01
695.201;000.035;70;000.633;MIDI 01
695.206;000.052;82;000.555;MIDI 01
695.347;000.031;63;000.617;MIDI 01
695.356;000.027;69;000.641;MIDI 01
695.364;000.029;53;000.430;MIDI 01
695.353;000.042;57;000.562;MIDI 01
695.355;000.042;81;000.680;MIDI 01
695.482;000.030;57;000.617;MIDI 01
695.462;000.055;63;000.633;MIDI 01
695.486;000.043;68;000.672;MIDI 01
695.493;000.059;80;000.602;MIDI 01
695.475;000.079;53;000.664;MIDI 01
695.631;000.041;67;000.617;MIDI 01
695.629;000.049;79;000.680;MIDI 01
695.703;000.045;49;000.250;MIDI 01
695.775;000.040;66;000.617;MIDI 01
695.785;000.036;57;000.648;MIDI 01
695.791;000.033;51;000.586;MIDI 01
695.772;000.054;78;000.609;MIDI 01
695.793;000.042;48;000.539;MIDI 01
695.907;000.029;77;000.633;MIDI 01
695.904;000.036;65;000.594;MIDI 01
695.890;000.057;57;000.680;MIDI 01
695.906;000.074;48;000.703;MIDI 01
695.895;000.088;51;000.664;MIDI 01
696.047;000.035;64;000.594;MIDI 01
696.042;000.052;76;000.695;MIDI 01
696.175;000.043;63;000.680;MIDI 01
696.178;000.055;75;000.633;MIDI 01
696.323;000.028;66;000.633;MIDI 01
696.321;000.032;62;000.633;MIDI 01
696.315;000.056;74;000.711;MIDI 01
696.296;000.090;45;000.742;MIDI 01
696.304;000.118;33;000.664;MIDI 01
696.302;000.122;42;000.680;MIDI 01
696.310;000.117;36;000.625;MIDI 01
696.308;000.122;38;000.633;MIDI 01
696.436;000.031;66;000.219;MIDI 01
696.466;000.033;61;000.602;MIDI 01
696.468;000.051;73;000.625;MIDI 01
696.608;000.019;62;000.609;MIDI 01
696.601;000.038;74;000.688;MIDI 01
696.677;000.066;64;000.078;MIDI 01
696.741;000.029;66;000.719;MIDI 01
696.743;000.056;62;000.047;MIDI 01
696.736;000.065;78;000.781;MIDI 01
696.869;000.051;66;000.102;MIDI 01
696.892;000.030;69;000.625;MIDI 01
696.890;000.039;81;000.719;MIDI 01
697.027;000.036;72;000.695;MIDI 01
697.029;000.037;84;000.719;MIDI 01
697.168;000.031;73;000.609;MIDI 01
697.161;000.054;85;000.688;MIDI 01
697.295;000.029;74;000.648;MIDI 01
697.301;000.027;86;000.672;MIDI 01
696.716;000.676;42;000.664;MIDI 01
696.727;000.680;33;000.680;MIDI 01
696.712;000.719;45;000.773;MIDI 01
697.420;000.037;75;000.719;MIDI 01
696.725;000.745;36;000.641;MIDI 01
697.422;000.065;87;000.734;MIDI 01
696.710;000.798;38;000.328;MIDI 01
697.547;000.034;33;000.695;MIDI 01
697.549;000.057;36;000.547;MIDI 01
697.564;000.052;86;000.758;MIDI 01
697.566;000.052;74;000.711;MIDI 01
697.536;000.089;38;000.398;MIDI 01
697.545;000.098;42;000.711;MIDI 01
697.543;000.106;45;000.781;MIDI 01
697.714;000.032;73;000.664;MIDI 01
697.718;000.035;85;000.570;MIDI 01
697.841;000.031;72;000.695;MIDI 01
697.843;000.036;84;000.703;MIDI 01
697.978;000.033;71;000.641;MIDI 01
697.976;000.051;83;000.695;MIDI 01
698.124;000.032;70;000.633;MIDI 01
698.139;000.028;82;000.453;MIDI 01
698.253;000.036;62;000.594;MIDI 01
698.268;000.028;69;000.602;MIDI 01
698.270;000.028;81;000.625;MIDI 01
698.257;000.043;60;000.523;MIDI 01
698.260;000.042;54;000.492;MIDI 01
698.397;000.025;81;000.414;MIDI 01
698.382;000.044;62;000.703;MIDI 01
698.380;000.053;60;000.648;MIDI 01
698.390;000.046;68;000.648;MIDI 01
698.392;000.052;80;000.625;MIDI 01
698.388;000.067;54;000.625;MIDI 01
698.535;000.031;67;000.609;MIDI 01
698.538;000.031;79;000.633;MIDI 01
698.666;000.048;66;000.664;MIDI 01
698.672;000.044;78;000.594;MIDI 01
698.681;000.036;57;000.617;MIDI 01
698.694;000.031;50;000.508;MIDI 01
698.676;000.051;48;000.562;MIDI 01
698.783;000.052;57;000.719;MIDI 01
698.806;000.036;50;000.672;MIDI 01
698.798;000.048;77;000.688;MIDI 01
698.804;000.044;48;000.633;MIDI 01
698.800;000.051;65;000.680;MIDI 01
698.947;000.049;64;000.656;MIDI 01
698.949;000.051;76;000.734;MIDI 01
699.096;000.036;45;000.648;MIDI 01
699.094;000.041;63;000.664;MIDI 01
699.100;000.036;75;000.586;MIDI 01
699.098;000.050;50;000.695;MIDI 01
699.089;000.070;42;000.555;MIDI 01
699.215;000.051;50;000.672;MIDI 01
699.224;000.048;45;000.680;MIDI 01
699.231;000.043;74;000.703;MIDI 01
699.227;000.048;62;000.703;MIDI 01
699.210;000.092;42;000.594;MIDI 01
699.373;000.045;61;000.672;MIDI 01
699.361;000.074;73;000.680;MIDI 01
699.496;000.045;60;000.672;MIDI 01
699.498;000.054;72;000.703;MIDI 01
699.635;000.032;59;000.703;MIDI 01
699.642;000.028;63;000.625;MIDI 01
699.638;000.052;71;000.719;MIDI 01
699.627;000.101;45;000.727;MIDI 01
699.640;000.093;39;000.680;MIDI 01
699.631;000.117;42;000.695;MIDI 01
699.625;000.140;33;000.656;MIDI 01
699.633;000.136;35;000.641;MIDI 01
699.769;000.034;63;000.141;MIDI 01
699.781;000.036;58;000.695;MIDI 01
699.792;000.044;70;000.578;MIDI 01
699.803;000.043;33;000.211;MIDI 01
699.920;000.031;60;000.664;MIDI 01
699.936;000.021;72;000.594;MIDI 01
700.062;000.030;63;000.719;MIDI 01
700.092;000.023;76;000.500;MIDI 01
700.065;000.053;75;000.648;MIDI 01
700.211;000.035;66;000.625;MIDI 01
700.221;000.031;78;000.633;MIDI 01
700.354;000.038;69;000.664;MIDI 01
700.352;000.047;81;000.719;MIDI 01
700.482;000.036;70;000.695;MIDI 01
700.484;000.036;82;000.656;MIDI 01
700.071;000.452;36;000.477;MIDI 01
700.050;000.520;39;000.602;MIDI 01
700.615;000.025;71;000.742;MIDI 01
700.612;000.045;83;000.703;MIDI 01
700.052;000.678;33;000.672;MIDI 01
700.044;000.697;45;000.797;MIDI 01
700.056;000.696;35;000.500;MIDI 01
700.748;000.049;84;000.727;MIDI 01
700.740;000.065;72;000.477;MIDI 01
700.047;000.771;42;000.586;MIDI 01
700.900;000.046;83;000.773;MIDI 01
700.898;000.050;71;000.750;MIDI 01
700.925;000.072;43;000.312;MIDI 01
701.065;000.031;70;000.672;MIDI 01
701.067;000.031;82;000.602;MIDI 01
701.201;000.028;69;000.656;MIDI 01
701.205;000.028;81;000.695;MIDI 01
700.870;000.478;42;000.617;MIDI 01
701.345;000.023;68;000.516;MIDI 01
701.348;000.022;80;000.461;MIDI 01
700.880;000.602;35;000.617;MIDI 01
701.460;000.024;79;000.664;MIDI 01
701.453;000.034;67;000.703;MIDI 01
700.877;000.619;33;000.648;MIDI 01
700.872;000.653;45;000.719;MIDI 01
700.875;000.692;39;000.641;MIDI 01
701.591;000.040;79;000.211;MIDI 01
701.601;000.032;66;000.547;MIDI 01
701.599;000.036;78;000.508;MIDI 01
701.719;000.033;77;000.695;MIDI 01
701.712;000.044;65;000.688;MIDI 01
701.701;000.117;41;000.672;MIDI 01
701.703;000.184;45;000.617;MIDI 01
701.846;000.044;64;000.695;MIDI 01
701.848;000.049;76;000.695;MIDI 01
701.710;000.230;33;000.625;MIDI 01
701.708;000.285;36;000.586;MIDI 01
701.982;000.037;63;000.672;MIDI 01
701.989;000.044;75;000.594;MIDI 01
702.117;000.033;62;000.711;MIDI 01
702.121;000.031;74;000.727;MIDI 01
702.143;000.067;36;000.250;MIDI 01
702.082;000.134;45;000.703;MIDI 01
702.089;000.185;38;000.664;MIDI 01
702.241;000.040;61;000.742;MIDI 01
702.247;000.043;73;000.617;MIDI 01
702.286;000.003;74;000.258;MIDI 01
702.091;000.232;42;000.672;MIDI 01
702.093;000.249;33;000.664;MIDI 01
702.376;000.031;72;000.688;MIDI 01
702.370;000.040;60;000.680;MIDI 01
702.517;000.040;71;000.742;MIDI 01
702.511;000.050;59;000.711;MIDI 01
702.648;000.043;58;000.703;MIDI 01
702.663;000.036;70;000.602;MIDI 01
702.790;000.031;57;000.680;MIDI 01
702.794;000.029;69;000.703;MIDI 01
702.913;000.035;56;000.703;MIDI 01
702.925;000.034;68;000.555;MIDI 01
702.948;000.032;69;000.281;MIDI 01
702.495;000.504;42;000.633;MIDI 01
703.048;000.036;67;000.672;MIDI 01
703.038;000.053;55;000.680;MIDI 01
702.501;000.633;45;000.773;MIDI 01
702.497;000.648;39;000.641;MIDI 01
702.503;000.649;33;000.625;MIDI 01
703.177;000.044;54;000.656;MIDI 01
703.180;000.047;66;000.594;MIDI 01
703.301;000.051;53;000.695;MIDI 01
703.303;000.050;65;000.688;MIDI 01
703.284;000.183;41;000.672;MIDI 01
703.452;000.030;52;000.750;MIDI 01
703.454;000.041;64;000.695;MIDI 01
703.280;000.264;45;000.695;MIDI 01
703.296;000.286;33;000.609;MIDI 01
703.291;000.323;36;000.609;MIDI 01
703.580;000.054;51;000.656;MIDI 01
703.592;000.044;63;000.531;MIDI 01
703.717;000.044;62;000.680;MIDI 01
703.709;000.056;50;000.688;MIDI 01
703.856;000.073;61;000.641;MIDI 01
703.712;000.220;38;000.594;MIDI 01
703.859;000.075;49;000.680;MIDI 01
703.719;000.260;33;000.602;MIDI 01
703.721;000.270;42;000.594;MIDI 01
703.715;000.286;45;000.656;MIDI 01
703.998;000.031;60;000.641;MIDI 01
703.997;000.034;48;000.703;MIDI 01
704.120;000.067;47;000.742;MIDI 01
704.122;000.081;59;000.672;MIDI 01
704.290;000.073;58;000.641;MIDI 01
704.317;000.053;59;000.156;MIDI 01
704.420;000.075;57;000.695;MIDI 01
704.544;000.076;56;000.680;MIDI 01
704.656;000.058;55;000.680;MIDI 01
704.106;000.662;45;000.656;MIDI 01
704.102;000.670;33;000.617;MIDI 01
704.104;000.690;42;000.656;MIDI 01
704.107;000.702;39;000.617;MIDI 01
704.783;000.062;54;000.664;MIDI 01
704.950;000.034;48;000.383;MIDI 01
704.919;000.137;53;000.664;MIDI 01
704.925;000.156;41;000.484;MIDI 01
704.947;000.221;33;000.469;MIDI 01
704.921;000.250;45;000.586;MIDI 01
705.055;000.133;52;000.641;MIDI 01
704.927;000.278;36;000.508;MIDI 01
705.183;000.052;51;000.656;MIDI 01
705.303;000.131;45;000.695;MIDI 01
705.296;000.148;50;000.750;MIDI 01
705.312;000.188;33;000.586;MIDI 01
705.298;000.216;38;000.609;MIDI 01
705.308;000.245;42;000.617;MIDI 01
705.434;000.131;49;000.727;MIDI 01
705.549;000.059;48;000.750;MIDI 01
705.674;000.055;47;000.734;MIDI 01
705.663;000.095;45;000.703;MIDI 01
705.665;000.123;42;000.680;MIDI 01
705.667;000.123;33;000.664;MIDI 01
705.670;000.134;39;000.664;MIDI 01
705.811;000.087;47;000.742;MIDI 01
705.939;000.070;47;000.586;MIDI 01
706.086;000.141;41;000.594;MIDI 01
706.082;000.160;53;000.633;MIDI 01
706.096;000.172;45;000.562;MIDI 01
706.098;000.195;33;000.539;MIDI 01
706.221;000.130;52;000.664;MIDI 01
706.100;000.253;36;000.516;MIDI 01
706.340;000.065;51;000.703;MIDI 01
706.465;000.122;45;000.703;MIDI 01
706.472;000.140;50;000.742;MIDI 01
706.469;000.161;38;000.648;MIDI 01
706.474;000.212;42;000.648;MIDI 01
706.476;000.216;33;000.633;MIDI 01
706.606;000.132;49;000.734;MIDI 01
706.726;000.044;48;000.727;MIDI 01
706.853;000.053;47;000.703;MIDI 01
706.843;000.076;45;000.734;MIDI 01
706.835;000.108;42;000.688;MIDI 01
706.848;000.102;33;000.664;MIDI 01
706.841;000.118;39;000.719;MIDI 01
706.986;000.056;47;000.734;MIDI 01
707.111;000.059;47;000.641;MIDI 01
707.221;000.097;41;000.742;MIDI 01
707.226;000.100;45;000.812;MIDI 01
707.225;000.151;36;000.688;MIDI 01
707.230;000.149;33;000.680;MIDI 01
707.246;000.182;53;000.719;MIDI 01
707.396;000.135;52;000.711;MIDI 01
707.474;000.059;38;000.336;MIDI 01
707.519;000.060;51;000.727;MIDI 01
707.677;000.029;36;000.305;MIDI 01
707.631;000.095;45;000.828;MIDI 01
707.640;000.110;33;000.703;MIDI 01
707.633;000.130;38;000.734;MIDI 01
707.655;000.118;50;000.750;MIDI 01
707.635;000.144;42;000.742;MIDI 01
707.803;000.108;49;000.727;MIDI 01
707.978;000.032;53;000.430;MIDI 01
707.946;000.103;48;000.773;MIDI 01
708.121;000.059;45;000.773;MIDI 01
708.119;000.064;33;000.672;MIDI 01
708.123;000.095;39;000.656;MIDI 01
708.117;000.103;42;000.680;MIDI 01
708.139;000.111;47;000.758;MIDI 01
708.200;000.052;35;000.023;MIDI 01
708.380;000.099;47;000.688;MIDI 01
708.571;000.090;47;000.648;MIDI 01
708.650;000.047;63;000.805;MIDI 01
708.638;000.079;50;000.070;MIDI 01
708.765;000.064;63;000.781;MIDI 01
708.782;000.096;47;000.680;MIDI 01
709.059;000.067;47;000.633;MIDI 01
709.227;000.038;47;000.555;MIDI 01
709.377;000.039;47;000.664;MIDI 01
709.522;000.045;47;000.625;MIDI 01
709.666;000.035;47;000.609;MIDI 01
709.799;000.038;47;000.656;MIDI 01
709.943;000.044;47;000.641;MIDI 01
710.090;000.041;47;000.586;MIDI 01
710.159;000.036;33;000.547;MIDI 01
710.166;000.055;45;000.586;MIDI 01
710.172;000.062;39;000.539;MIDI 01
710.163;000.080;42;000.547;MIDI 01
710.204;000.056;47;000.688;MIDI 01
710.251;000.043;49;000.312;MIDI 01
710.209;000.103;51;000.672;MIDI 01
710.372;000.086;47;000.617;MIDI 01
710.503;000.068;47;000.461;MIDI 01
710.558;000.029;66;000.641;MIDI 01
710.566;000.030;63;000.523;MIDI 01
710.515;000.122;51;000.547;MIDI 01
710.628;000.065;66;000.852;MIDI 01
710.649;000.081;63;000.672;MIDI 01
710.671;000.095;47;000.617;MIDI 01
710.883;000.026;47;000.328;MIDI 01
710.854;000.113;51;000.508;MIDI 01
711.011;000.060;47;000.531;MIDI 01
711.197;000.034;47;000.133;MIDI 01
711.164;000.072;51;000.461;MIDI 01
711.326;000.041;47;000.500;MIDI 01
711.466;000.027;47;000.414;MIDI 01
711.451;000.070;51;000.438;MIDI 01
711.585;000.070;47;000.531;MIDI 01
711.706;000.115;51;000.469;MIDI 01
711.782;000.158;33;000.438;MIDI 01
711.822;000.181;39;000.500;MIDI 01
711.896;000.114;42;000.516;MIDI 01
711.862;000.150;47;000.500;MIDI 01
711.950;000.065;45;000.578;MIDI 01
712.022;000.099;51;000.500;MIDI 01
712.024;000.135;54;000.500;MIDI 01
712.189;000.138;47;000.531;MIDI 01
712.385;000.018;71;000.578;MIDI 01
712.401;000.029;66;000.430;MIDI 01
712.341;000.097;51;000.461;MIDI 01
712.407;000.043;63;000.328;MIDI 01
712.343;000.129;54;000.445;MIDI 01
712.494;000.169;47;000.547;MIDI 01
712.689;000.102;51;000.445;MIDI 01
712.683;000.130;54;000.344;MIDI 01
712.484;000.343;71;000.672;MIDI 01
712.503;000.336;63;000.477;MIDI 01
712.505;000.356;66;000.602;MIDI 01
712.839;000.120;47;000.516;MIDI 01
712.996;000.085;51;000.422;MIDI 01
713.001;000.107;54;000.414;MIDI 01
713.141;000.127;47;000.422;MIDI 01
713.324;000.023;75;000.508;MIDI 01
713.348;000.033;71;000.367;MIDI 01
713.278;000.128;51;000.398;MIDI 01
713.365;000.064;66;000.258;MIDI 01
713.298;000.142;54;000.391;MIDI 01
713.451;000.165;47;000.539;MIDI 01
713.667;000.096;51;000.352;MIDI 01
713.658;000.179;54;000.312;MIDI 01
713.440;000.446;75;000.586;MIDI 01
713.465;000.425;63;000.305;MIDI 01
713.489;000.407;71;000.430;MIDI 01
713.806;000.114;47;000.445;MIDI 01
713.453;000.499;66;000.328;MIDI 01
713.951;000.083;51;000.383;MIDI 01
713.991;000.080;54;000.289;MIDI 01
714.111;000.101;47;000.367;MIDI 01
714.217;000.034;75;000.492;MIDI 01
714.259;000.033;71;000.320;MIDI 01
714.269;000.042;66;000.266;MIDI 01
714.245;000.084;51;000.359;MIDI 01
714.256;000.106;54;000.367;MIDI 01
714.410;000.070;71;000.445;MIDI 01
714.392;000.142;47;000.445;MIDI 01
714.600;000.086;51;000.328;MIDI 01
714.597;000.127;54;000.281;MIDI 01
714.749;000.131;47;000.375;MIDI 01
714.384;000.542;63;000.195;MIDI 01
714.367;000.575;75;000.547;MIDI 01
714.401;000.598;66;000.391;MIDI 01
714.946;000.076;51;000.312;MIDI 01
714.942;000.109;54;000.312;MIDI 01
715.093;000.204;47;000.352;MIDI 01
715.297;000.125;75;000.445;MIDI 01
715.367;000.074;71;000.305;MIDI 01
715.361;000.091;66;000.328;MIDI 01
715.326;000.384;54;000.219;MIDI 01
715.321;000.405;51;000.281;MIDI 01
715.749;000.246;47;000.383;MIDI 01
716.050;000.070;54;000.125;MIDI 01
716.016;000.119;51;000.273;MIDI 01
716.160;000.104;47;000.328;MIDI 01
716.331;000.072;51;000.273;MIDI 01
716.322;000.128;54;000.227;MIDI 01
716.477;000.079;47;000.234;MIDI 01
715.734;000.949;71;000.297;MIDI 01
716.629;000.086;51;000.133;MIDI 01
715.732;001.004;63;000.391;MIDI 01
716.646;000.125;54;000.070;MIDI 01
715.715;001.073;66;000.273;MIDI 01
715.705;001.110;75;000.461;MIDI 01
716.778;000.132;47;000.258;MIDI 01
716.932;000.097;51;000.195;MIDI 01
716.975;000.080;54;000.023;MIDI 01
717.086;000.080;47;000.328;MIDI 01
717.231;000.100;51;000.242;MIDI 01
717.260;000.099;54;000.266;MIDI 01
717.397;000.159;47;000.320;MIDI 01
717.547;000.192;51;000.336;MIDI 01
717.653;000.196;54;000.125;MIDI 01
717.830;000.290;45;000.398;MIDI 01
718.120;000.095;49;000.320;MIDI 01
718.106;000.120;57;000.297;MIDI 01
718.273;000.122;45;000.266;MIDI 01
718.424;000.067;49;000.219;MIDI 01
718.433;000.084;57;000.297;MIDI 01
718.567;000.061;45;000.273;MIDI 01
718.697;000.062;57;000.344;MIDI 01
718.700;000.064;49;000.156;MIDI 01
718.803;000.072;45;000.320;MIDI 01
718.943;000.076;57;000.289;MIDI 01
718.949;000.071;49;000.227;MIDI 01
719.069;000.056;45;000.328;MIDI 01
719.206;000.073;57;000.305;MIDI 01
719.218;000.066;49;000.227;MIDI 01
719.318;000.108;45;000.320;MIDI 01
719.469;000.089;57;000.320;MIDI 01
719.473;000.089;49;000.242;MIDI 01
719.628;000.056;45;000.242;MIDI 01
719.748;000.056;49;000.250;MIDI 01
719.750;000.069;57;000.320;MIDI 01
717.789;002.132;76;000.461;MIDI 01
719.860;000.082;45;000.297;MIDI 01
717.809;002.179;64;000.359;MIDI 01
717.832;002.218;69;000.391;MIDI 01
717.828;002.243;73;000.391;MIDI 01
720.002;000.073;57;000.328;MIDI 01
720.007;000.070;49;000.156;MIDI 01
720.147;000.086;45;000.305;MIDI 01
720.281;000.071;57;000.297;MIDI 01
720.280;000.079;49;000.242;MIDI 01
720.439;000.057;45;000.258;MIDI 01
720.546;000.084;49;000.320;MIDI 01
720.571;000.062;57;000.266;MIDI 01
720.715;000.096;45;000.211;MIDI 01
720.830;000.086;49;000.266;MIDI 01
720.861;000.113;57;000.211;MIDI 01
721.002;000.067;45;000.391;MIDI 01
721.307;000.238;47;000.312;MIDI 01
721.601;000.067;51;000.133;MIDI 01
721.608;000.071;54;000.055;MIDI 01
721.707;000.098;47;000.375;MIDI 01
721.849;000.077;51;000.227;MIDI 01
721.875;000.071;54;000.242;MIDI 01
721.996;000.069;47;000.344;MIDI 01
722.131;000.075;51;000.219;MIDI 01
722.135;000.082;54;000.250;MIDI 01
721.318;000.991;63;000.297;MIDI 01
721.298;001.022;75;000.375;MIDI 01
721.345;000.981;66;000.336;MIDI 01
722.263;000.084;47;000.305;MIDI 01
721.362;000.991;71;000.328;MIDI 01
722.415;000.067;54;000.273;MIDI 01
722.420;000.067;51;000.188;MIDI 01
722.544;000.156;47;000.320;MIDI 01
722.686;000.073;54;000.281;MIDI 01
722.691;000.072;51;000.156;MIDI 01
722.864;000.072;47;000.281;MIDI 01
723.006;000.126;54;000.250;MIDI 01
722.966;000.215;51;000.281;MIDI 01
723.163;000.302;73;000.461;MIDI 01
723.094;000.388;71;000.391;MIDI 01
723.220;000.303;47;000.328;MIDI 01
722.969;000.570;66;000.422;MIDI 01
723.517;000.096;54;000.250;MIDI 01
722.959;000.660;61;000.281;MIDI 01
723.546;000.080;49;000.188;MIDI 01
723.696;000.078;47;000.312;MIDI 01
723.815;000.100;49;000.281;MIDI 01
723.833;000.089;54;000.297;MIDI 01
723.981;000.091;47;000.312;MIDI 01
724.141;000.079;49;000.227;MIDI 01
724.150;000.073;54;000.203;MIDI 01
724.246;000.066;30;000.266;MIDI 01
724.237;000.080;37;000.219;MIDI 01
724.258;000.084;42;000.188;MIDI 01
724.275;000.085;47;000.359;MIDI 01
724.455;000.068;54;000.156;MIDI 01
724.441;000.095;49;000.250;MIDI 01
724.573;000.086;47;000.328;MIDI 01
724.728;000.076;54;000.266;MIDI 01
724.721;000.113;49;000.352;MIDI 01
724.869;000.094;47;000.320;MIDI 01
725.041;000.092;49;000.297;MIDI 01
725.021;000.196;54;000.266;MIDI 01
725.260;000.208;46;000.312;MIDI 01
725.169;000.352;73;000.477;MIDI 01
725.205;000.348;70;000.406;MIDI 01
725.203;000.351;64;000.398;MIDI 01
725.482;000.078;49;000.266;MIDI 01
725.194;000.384;61;000.383;MIDI 01
725.487;000.140;54;000.148;MIDI 01
725.625;000.087;46;000.352;MIDI 01
725.765;000.076;49;000.258;MIDI 01
725.821;000.064;54;000.094;MIDI 01
725.901;000.105;46;000.367;MIDI 01
726.068;000.072;49;000.117;MIDI 01
726.070;000.090;54;000.203;MIDI 01
726.205;000.079;30;000.281;MIDI 01
726.196;000.091;37;000.234;MIDI 01
726.214;000.102;42;000.188;MIDI 01
726.203;000.131;46;000.375;MIDI 01
726.410;000.083;49;000.078;MIDI 01
726.389;000.110;54;000.172;MIDI 01
726.542;000.144;46;000.336;MIDI 01
726.782;000.095;54;000.023;MIDI 01
726.767;000.139;49;000.133;MIDI 01
726.927;000.234;46;000.305;MIDI 01
727.208;000.360;54;000.289;MIDI 01
727.189;000.464;49;000.023;MIDI 01
727.985;000.257;50;000.250;MIDI 01
728.153;000.150;47;000.266;MIDI 01
727.656;000.778;55;000.297;MIDI 01
728.328;000.228;43;000.203;MIDI 01
728.428;000.247;50;000.273;MIDI 01
728.579;000.190;47;000.273;MIDI 01
727.646;001.360;62;000.352;MIDI 01
727.621;001.396;59;000.367;MIDI 01
728.830;000.189;50;000.383;MIDI 01
727.629;001.422;67;000.359;MIDI 01
728.719;000.345;55;000.273;MIDI 01
728.954;000.119;47;000.312;MIDI 01
727.597;001.508;71;000.445;MIDI 01
729.109;000.174;43;000.305;MIDI 01
729.386;000.108;47;000.383;MIDI 01
729.234;000.300;50;000.305;MIDI 01
729.584;000.231;57;000.414;MIDI 01
729.815;000.095;53;000.359;MIDI 01
729.935;000.064;48;000.344;MIDI 01
730.036;000.064;41;000.430;MIDI 01
730.234;000.075;53;000.336;MIDI 01
730.315;000.136;48;000.406;MIDI 01
730.455;000.136;57;000.344;MIDI 01
730.586;000.095;53;000.328;MIDI 01
730.688;000.080;48;000.367;MIDI 01
730.829;000.049;41;000.391;MIDI 01
730.997;000.168;53;000.383;MIDI 01
731.129;000.104;48;000.352;MIDI 01
731.260;000.132;57;000.320;MIDI 01
731.385;000.078;53;000.336;MIDI 01
731.511;000.082;48;000.391;MIDI 01
731.649;000.042;41;000.367;MIDI 01
731.820;000.105;53;000.352;MIDI 01
729.543;002.483;72;000.461;MIDI 01
731.949;000.124;48;000.312;MIDI 01
729.597;002.572;69;000.359;MIDI 01
732.066;000.135;57;000.289;MIDI 01
729.590;002.655;65;000.336;MIDI 01
732.189;000.074;53;000.281;MIDI 01
729.561;002.771;60;000.352;MIDI 01
732.309;000.111;48;000.328;MIDI 01
732.489;000.075;41;000.312;MIDI 01
732.678;000.306;53;000.305;MIDI 01
732.834;000.308;48;000.305;MIDI 01
733.090;000.070;59;000.328;MIDI 01
733.429;000.166;50;000.211;MIDI 01
733.595;000.094;47;000.219;MIDI 01
733.139;000.706;55;000.273;MIDI 01
733.717;000.276;43;000.305;MIDI 01
733.888;000.196;50;000.148;MIDI 01
733.056;001.080;71;000.438;MIDI 01
734.003;000.174;47;000.266;MIDI 01
733.095;001.108;67;000.336;MIDI 01
733.127;001.175;62;000.320;MIDI 01
733.164;001.190;59;000.031;MIDI 01
734.253;000.247;50;000.344;MIDI 01
734.407;000.195;47;000.250;MIDI 01
734.579;000.142;43;000.203;MIDI 01
734.134;000.638;55;000.219;MIDI 01
734.728;000.326;50;000.250;MIDI 01
734.921;000.209;47;000.289;MIDI 01
735.097;000.404;69;000.383;MIDI 01
735.100;000.407;67;000.359;MIDI 01
735.124;000.461;62;000.289;MIDI 01
735.114;000.500;57;000.234;MIDI 01
735.440;000.180;50;000.266;MIDI 01
735.612;000.157;45;000.266;MIDI 01
735.786;000.171;50;000.289;MIDI 01
735.947;000.121;45;000.312;MIDI 01
736.115;000.120;50;000.289;MIDI 01
736.224;000.068;33;000.156;MIDI 01
736.174;000.159;26;000.312;MIDI 01
736.215;000.180;38;000.203;MIDI 01
736.261;000.142;45;000.312;MIDI 01
736.423;000.128;50;000.305;MIDI 01
736.583;000.089;45;000.352;MIDI 01
736.747;000.071;50;000.312;MIDI 01
735.136;001.707;55;000.312;MIDI 01
736.870;000.204;45;000.312;MIDI 01
736.999;000.220;50;000.297;MIDI 01
737.203;000.208;69;000.438;MIDI 01
737.121;000.357;66;000.398;MIDI 01
737.049;000.450;62;000.359;MIDI 01
736.985;000.567;57;000.219;MIDI 01
737.523;000.142;50;000.289;MIDI 01
737.690;000.104;45;000.180;MIDI 01
737.833;000.051;50;000.281;MIDI 01
737.982;000.079;45;000.281;MIDI 01
738.110;000.110;50;000.250;MIDI 01
738.212;000.070;26;000.242;MIDI 01
738.206;000.097;33;000.227;MIDI 01
738.218;000.115;38;000.211;MIDI 01
738.283;000.197;45;000.258;MIDI 01
738.496;000.139;50;000.219;MIDI 01
738.654;000.172;45;000.320;MIDI 01
738.814;000.188;50;000.305;MIDI 01
737.263;001.818;54;000.328;MIDI 01
739.000;000.290;45;000.375;MIDI 01
739.175;000.420;50;000.305;MIDI 01
739.639;000.336;51;000.375;MIDI 01
739.376;000.703;55;000.312;MIDI 01
739.962;000.189;47;000.336;MIDI 01
739.622;000.567;67;000.477;MIDI 01
739.515;000.824;63;000.438;MIDI 01
739.428;000.970;59;000.414;MIDI 01
740.158;000.285;43;000.234;MIDI 01
740.417;000.118;51;000.383;MIDI 01
740.577;000.169;47;000.266;MIDI 01
740.286;000.489;55;000.273;MIDI 01
740.746;000.275;51;000.328;MIDI 01
740.920;000.214;47;000.273;MIDI 01
741.201;000.148;55;000.289;MIDI 01
741.076;000.374;43;000.188;MIDI 01
741.343;000.140;51;000.367;MIDI 01
741.506;000.068;35;000.328;MIDI 01
741.504;000.105;27;000.258;MIDI 01
741.544;000.071;47;000.094;MIDI 01
741.513;000.107;39;000.234;MIDI 01
741.672;000.355;51;000.406;MIDI 01
741.818;000.302;47;000.242;MIDI 01
742.218;000.122;51;000.336;MIDI 01
741.640;000.776;27;000.156;MIDI 01
741.656;000.775;35;000.227;MIDI 01
741.648;000.792;39;000.211;MIDI 01
742.397;000.078;47;000.172;MIDI 01
741.993;000.546;43;000.180;MIDI 01
742.096;000.520;55;000.320;MIDI 01
742.539;000.303;51;000.383;MIDI 01
742.671;000.343;47;000.266;MIDI 01
742.809;000.365;43;000.320;MIDI 01
743.130;000.074;51;000.242;MIDI 01
742.978;000.261;55;000.289;MIDI 01
743.256;000.174;47;000.156;MIDI 01
743.514;000.250;52;000.297;MIDI 01
743.748;000.082;48;000.297;MIDI 01
743.479;000.517;55;000.281;MIDI 01
743.757;000.307;67;000.430;MIDI 01
743.477;000.656;64;000.375;MIDI 01
743.498;000.704;60;000.328;MIDI 01
744.191;000.105;52;000.352;MIDI 01
744.375;000.060;48;000.281;MIDI 01
743.876;000.731;43;000.344;MIDI 01
744.495;000.147;52;000.344;MIDI 01
744.028;000.616;55;000.141;MIDI 01
744.607;000.151;48;000.383;MIDI 01
744.812;000.163;43;000.133;MIDI 01
745.061;000.094;52;000.305;MIDI 01
745.127;000.106;36;000.305;MIDI 01
745.141;000.129;24;000.195;MIDI 01
745.355;000.107;52;000.320;MIDI 01
744.911;000.585;55;000.281;MIDI 01
745.274;000.253;24;000.023;MIDI 01
745.497;000.085;48;000.352;MIDI 01
745.260;000.352;36;000.203;MIDI 01
745.904;000.098;52;000.312;MIDI 01
746.054;000.076;48;000.320;MIDI 01
745.611;000.683;43;000.375;MIDI 01
746.196;000.127;52;000.359;MIDI 01
745.789;000.550;55;000.273;MIDI 01
746.295;000.297;48;000.391;MIDI 01
746.576;000.210;55;000.320;MIDI 01
746.748;000.100;52;000.055;MIDI 01
746.460;000.460;43;000.305;MIDI 01
746.822;000.272;48;000.312;MIDI 01
747.065;000.184;53;000.414;MIDI 01
747.297;000.062;50;000.297;MIDI 01
747.084;000.325;58;000.250;MIDI 01
747.459;000.095;46;000.336;MIDI 01
747.071;000.620;70;000.352;MIDI 01
747.114;000.683;65;000.219;MIDI 01
747.125;000.706;62;000.203;MIDI 01
747.778;000.061;53;000.336;MIDI 01
747.903;000.061;50;000.266;MIDI 01
747.587;000.661;58;000.352;MIDI 01
748.045;000.214;53;000.266;MIDI 01
748.194;000.230;50;000.258;MIDI 01
748.736;000.126;53;000.305;MIDI 01
748.878;000.047;38;000.281;MIDI 01
748.876;000.051;34;000.312;MIDI 01
748.547;000.397;58;000.320;MIDI 01
748.889;000.101;50;000.305;MIDI 01
748.383;000.750;46;000.289;MIDI 01
749.086;000.122;53;000.312;MIDI 01
749.244;000.230;50;000.250;MIDI 01
749.533;000.221;58;000.273;MIDI 01
749.684;000.153;53;000.281;MIDI 01
749.858;000.082;50;000.258;MIDI 01
749.422;000.704;46;000.172;MIDI 01
750.030;000.120;53;000.289;MIDI 01
749.052;001.460;38;000.375;MIDI 01
749.085;001.477;34;000.328;MIDI 01
750.190;000.376;50;000.211;MIDI 01
750.574;000.271;58;000.250;MIDI 01
750.798;000.216;53;000.234;MIDI 01
750.979;000.073;38;000.141;MIDI 01
750.992;000.096;34;000.109;MIDI 01
751.023;000.226;50;000.203;MIDI 01
750.360;001.031;46;000.219;MIDI 01
751.325;000.261;30;000.312;MIDI 01
751.345;000.270;53;000.219;MIDI 01
751.629;000.103;34;000.102;MIDI 01
751.615;000.207;50;000.227;MIDI 01
751.805;000.185;30;000.281;MIDI 01
751.995;000.165;31;000.141;MIDI 01
751.982;000.179;58;000.219;MIDI 01
752.155;000.120;53;000.312;MIDI 01
752.166;000.120;30;000.320;MIDI 01
751.319;001.016;38;000.109;MIDI 01
751.807;000.569;46;000.227;MIDI 01
752.349;000.095;31;000.250;MIDI 01
752.326;000.125;50;000.258;MIDI 01
752.324;000.167;34;000.070;MIDI 01
752.506;000.149;30;000.367;MIDI 01
752.491;000.221;53;000.320;MIDI 01
752.689;000.094;34;000.195;MIDI 01
752.670;000.136;31;000.305;MIDI 01
752.644;000.209;50;000.312;MIDI 01
752.839;000.123;30;000.383;MIDI 01
753.024;000.081;34;000.188;MIDI 01
752.969;000.140;58;000.328;MIDI 01
753.005;000.105;31;000.344;MIDI 01
753.133;000.124;53;000.375;MIDI 01
753.159;000.101;30;000.414;MIDI 01
752.812;000.456;46;000.320;MIDI 01
752.509;000.784;38;000.320;MIDI 01
753.282;000.106;50;000.367;MIDI 01
753.309;000.095;31;000.281;MIDI 01
753.312;000.107;34;000.219;MIDI 01
753.459;000.140;30;000.422;MIDI 01
753.452;000.154;53;000.391;MIDI 01
753.669;000.092;34;000.203;MIDI 01
753.630;000.177;31;000.242;MIDI 01
753.611;000.205;50;000.312;MIDI 01
753.814;000.150;30;000.305;MIDI 01
754.028;000.087;34;000.094;MIDI 01
753.968;000.189;58;000.242;MIDI 01
753.985;000.177;31;000.273;MIDI 01
753.464;000.896;38;000.328;MIDI 01
753.776;000.598;46;000.320;MIDI 01
754.156;000.220;53;000.297;MIDI 01
754.194;000.184;30;000.164;MIDI 01
754.374;000.135;50;000.203;MIDI 01
754.392;000.221;31;000.047;MIDI 01
754.619;000.214;30;000.305;MIDI 01
754.593;000.247;53;000.172;MIDI 01
754.882;000.202;34;000.141;MIDI 01
754.876;000.215;31;000.078;MIDI 01
754.834;000.275;50;000.281;MIDI 01
755.094;000.282;30;000.320;MIDI 01
755.465;000.312;34;000.023;MIDI 01
755.414;000.381;31;000.133;MIDI 01
755.396;000.418;58;000.156;MIDI 01
755.786;000.703;53;000.172;MIDI 01
755.796;000.776;30;000.242;MIDI 01
754.623;002.221;38;000.102;MIDI 01
755.099;001.761;46;000.258;MIDI 01
756.482;000.654;50;000.188;MIDI 01
756.489;000.650;31;000.094;MIDI 01
760.360;000.183;30;000.195;MIDI 01
760.816;000.189;31;000.219;MIDI 01
761.154;000.143;34;000.312;MIDI 01
761.443;000.111;37;000.352;MIDI 01
761.697;000.170;38;000.359;MIDI 01
762.005;000.153;39;000.352;MIDI 01
762.381;000.208;40;000.297;MIDI 01
762.983;000.320;41;000.266;MIDI 01
766.824;000.324;53;000.133;MIDI 01
767.298;000.229;52;000.328;MIDI 01
767.632;000.214;50;000.398;MIDI 01
767.965;000.297;47;000.375;MIDI 01
768.329;000.359;44;000.422;MIDI 01
768.785;000.503;41;000.391;MIDI 01
769.346;000.501;40;000.391;MIDI 01
768.585;002.155;32;000.250;MIDI 01
768.754;002.032;35;000.250;MIDI 01
770.164;000.661;38;000.305;MIDI 01
771.642;000.503;33;000.305;MIDI 01
773.818;000.188;81;000.242;MIDI 01
773.075;000.941;45;000.195;MIDI 01
773.803;000.217;69;000.242;MIDI 01
773.083;000.952;52;000.242;MIDI 01
773.060;000.993;49;000.258;MIDI 01
773.059;001.007;57;000.180;MIDI 01
774.383;000.155;69;000.281;MIDI 01
774.365;000.232;81;000.312;MIDI 01
775.150;000.111;70;000.273;MIDI 01
775.124;000.178;82;000.297;MIDI 01
774.806;000.507;57;000.125;MIDI 01
774.821;000.501;52;000.141;MIDI 01
774.804;000.529;49;000.117;MIDI 01
774.795;000.546;45;000.188;MIDI 01
775.454;000.126;70;000.398;MIDI 01
775.449;000.136;82;000.398;MIDI 01
776.022;000.071;69;000.297;MIDI 01
776.002;000.098;81;000.398;MIDI 01
775.773;000.506;57;000.180;MIDI 01
775.812;000.481;52;000.156;MIDI 01
775.775;000.533;45;000.180;MIDI 01
775.815;000.500;49;000.109;MIDI 01
776.279;000.171;81;000.477;MIDI 01
776.294;000.174;69;000.398;MIDI 01
776.573;000.211;57;000.328;MIDI 01
776.818;000.066;68;000.398;MIDI 01
776.803;000.110;80;000.453;MIDI 01
776.569;000.367;49;000.172;MIDI 01
776.571;000.381;45;000.219;MIDI 01
776.575;000.390;52;000.211;MIDI 01
777.135;000.522;68;000.391;MIDI 01
777.114;000.557;80;000.438;MIDI 01
777.817;000.084;67;000.320;MIDI 01
777.788;000.120;79;000.422;MIDI 01
777.476;000.680;45;000.273;MIDI 01
777.464;000.695;58;000.305;MIDI 01
777.491;000.699;49;000.305;MIDI 01
777.480;000.713;52;000.266;MIDI 01
778.079;000.266;79;000.453;MIDI 01
778.097;000.328;67;000.281;MIDI 01
778.614;000.072;66;000.375;MIDI 01
778.598;000.100;78;000.391;MIDI 01
778.391;000.418;45;000.117;MIDI 01
778.370;000.470;52;000.242;MIDI 01
778.350;000.502;58;000.180;MIDI 01
778.378;000.527;49;000.234;MIDI 01
778.850;000.296;66;000.391;MIDI 01
778.845;000.324;78;000.422;MIDI 01
779.100;000.223;58;000.266;MIDI 01
779.094;000.284;49;000.305;MIDI 01
779.368;000.083;65;000.336;MIDI 01
779.345;000.119;77;000.430;MIDI 01
779.129;000.416;45;000.297;MIDI 01
779.642;000.484;77;000.422;MIDI 01
779.658;000.542;65;000.320;MIDI 01
779.966;000.345;49;000.141;MIDI 01
779.968;000.379;55;000.203;MIDI 01
779.972;000.407;45;000.117;MIDI 01
780.400;000.177;76;000.336;MIDI 01
780.396;000.195;64;000.289;MIDI 01
780.805;000.433;64;000.266;MIDI 01
780.808;000.680;76;000.273;MIDI 01
781.523;000.095;75;000.312;MIDI 01
781.522;000.148;63;000.258;MIDI 01
781.170;000.536;45;000.227;MIDI 01
781.219;000.558;58;000.023;MIDI 01
781.222;000.574;53;000.109;MIDI 01
781.214;000.634;50;000.125;MIDI 01
781.815;000.215;75;000.414;MIDI 01
781.843;000.214;63;000.367;MIDI 01
782.348;000.092;74;000.406;MIDI 01
782.361;000.087;62;000.336;MIDI 01
782.115;000.351;45;000.219;MIDI 01
782.104;000.434;58;000.227;MIDI 01
782.120;000.482;53;000.266;MIDI 01
782.123;000.532;50;000.141;MIDI 01
782.629;000.211;62;000.383;MIDI 01
782.615;000.409;74;000.445;MIDI 01
783.109;000.092;61;000.328;MIDI 01
783.112;000.104;73;000.398;MIDI 01
782.891;000.462;45;000.219;MIDI 01
782.886;000.508;58;000.250;MIDI 01
782.896;000.526;53;000.258;MIDI 01
782.876;000.595;50;000.211;MIDI 01
783.344;000.318;73;000.445;MIDI 01
783.366;000.329;61;000.430;MIDI 01
783.589;000.135;53;000.375;MIDI 01
783.583;000.168;50;000.148;MIDI 01
783.578;000.189;58;000.289;MIDI 01
783.808;000.096;74;000.477;MIDI 01
783.812;000.103;62;000.438;MIDI 01
784.089;000.179;62;000.414;MIDI 01
784.065;000.440;74;000.547;MIDI 01
784.552;000.123;63;000.453;MIDI 01
784.548;000.143;75;000.523;MIDI 01
784.344;000.518;53;000.328;MIDI 01
784.349;000.549;59;000.320;MIDI 01
784.351;000.571;45;000.305;MIDI 01
784.353;000.583;47;000.328;MIDI 01
784.347;000.608;56;000.312;MIDI 01
784.828;000.275;63;000.484;MIDI 01
785.094;000.120;45;000.312;MIDI 01
784.809;000.408;75;000.578;MIDI 01
785.064;000.188;53;000.398;MIDI 01
785.067;000.228;56;000.234;MIDI 01
785.055;000.253;59;000.422;MIDI 01
785.091;000.268;47;000.242;MIDI 01
785.326;000.109;64;000.430;MIDI 01
785.307;000.161;76;000.594;MIDI 01
785.609;000.285;64;000.477;MIDI 01
785.603;000.350;76;000.594;MIDI 01
786.185;000.175;65;000.352;MIDI 01
786.156;000.240;77;000.492;MIDI 01
785.899;000.728;59;000.289;MIDI 01
785.902;000.727;53;000.250;MIDI 01
785.933;000.701;50;000.266;MIDI 01
785.889;000.749;45;000.273;MIDI 01
786.567;000.269;77;000.461;MIDI 01
786.585;000.302;65;000.305;MIDI 01
787.014;000.182;59;000.266;MIDI 01
787.045;000.237;53;000.195;MIDI 01
787.026;000.307;50;000.188;MIDI 01
787.346;000.075;56;000.336;MIDI 01
787.340;000.108;68;000.352;MIDI 01
787.011;000.448;45;000.195;MIDI 01
787.630;000.315;56;000.398;MIDI 01
787.625;000.357;68;000.453;MIDI 01
788.116;000.096;57;000.422;MIDI 01
788.112;000.104;69;000.500;MIDI 01
787.895;000.433;52;000.383;MIDI 01
787.882;000.449;49;000.359;MIDI 01
787.874;000.469;45;000.352;MIDI 01
788.370;000.066;57;000.523;MIDI 01
788.362;000.173;69;000.586;MIDI 01
788.865;000.140;69;000.477;MIDI 01
788.854;000.168;81;000.547;MIDI 01
788.620;000.611;45;000.312;MIDI 01
788.599;000.643;52;000.391;MIDI 01
788.592;000.689;49;000.383;MIDI 01
789.186;000.114;69;000.500;MIDI 01
789.179;000.261;81;000.594;MIDI 01
789.999;000.265;82;000.500;MIDI 01
789.994;000.300;94;000.547;MIDI 01
789.565;001.000;52;000.195;MIDI 01
789.571;000.997;57;000.297;MIDI 01
789.569;001.002;49;000.148;MIDI 01
789.596;001.000;45;000.281;MIDI 01
790.508;000.360;94;000.578;MIDI 01
790.528;000.347;82;000.469;MIDI 01
790.921;000.220;45;000.188;MIDI 01
790.883;000.291;57;000.266;MIDI 01
790.917;000.399;49;000.242;MIDI 01
790.922;000.410;52;000.258;MIDI 01
791.225;000.170;93;000.492;MIDI 01
791.248;000.149;81;000.406;MIDI 01
791.770;000.241;81;000.289;MIDI 01
791.742;000.780;93;000.430;MIDI 01
792.547;000.107;80;000.344;MIDI 01
792.541;000.151;92;000.406;MIDI 01
792.212;000.717;45;000.266;MIDI 01
792.241;000.706;52;000.242;MIDI 01
792.210;000.758;58;000.242;MIDI 01
792.231;000.756;49;000.227;MIDI 01
792.846;000.282;92;000.516;MIDI 01
792.857;000.321;80;000.391;MIDI 01
793.383;000.066;79;000.359;MIDI 01
793.360;000.125;91;000.422;MIDI 01
793.170;000.462;52;000.250;MIDI 01
793.166;000.474;45;000.102;MIDI 01
793.168;000.500;58;000.266;MIDI 01
793.147;000.541;49;000.219;MIDI 01
793.672;000.149;79;000.273;MIDI 01
793.646;000.247;91;000.492;MIDI 01
793.918;000.182;58;000.305;MIDI 01
793.894;000.241;49;000.203;MIDI 01
793.962;000.234;45;000.117;MIDI 01
794.174;000.087;78;000.344;MIDI 01
794.170;000.107;90;000.406;MIDI 01
794.497;000.610;78;000.320;MIDI 01
794.483;000.667;90;000.383;MIDI 01
794.829;000.327;49;000.219;MIDI 01
794.834;000.361;55;000.203;MIDI 01
794.848;000.368;45;000.211;MIDI 01
795.237;000.118;77;000.320;MIDI 01
795.228;000.184;89;000.375;MIDI 01
795.735;000.516;89;000.234;MIDI 01
795.748;000.508;77;000.297;MIDI 01
796.592;000.179;88;000.305;MIDI 01
796.618;000.168;76;000.219;MIDI 01
796.226;000.622;45;000.125;MIDI 01
796.227;000.647;58;000.172;MIDI 01
796.284;000.642;53;000.188;MIDI 01
796.255;000.691;50;000.195;MIDI 01
796.958;000.087;76;000.352;MIDI 01
796.919;000.149;88;000.336;MIDI 01
797.198;000.323;45;000.195;MIDI 01
797.471;000.068;75;000.305;MIDI 01
797.200;000.345;58;000.188;MIDI 01
797.462;000.120;87;000.367;MIDI 01
797.241;000.389;53;000.164;MIDI 01
797.728;000.046;87;000.453;MIDI 01
797.718;000.080;75;000.383;MIDI 01
798.228;000.059;85;000.367;MIDI 01
798.218;000.072;73;000.406;MIDI 01
797.987;000.448;58;000.211;MIDI 01
797.961;000.491;45;000.320;MIDI 01
798.044;000.411;53;000.156;MIDI 01
798.026;000.493;50;000.133;MIDI 01
798.473;000.173;73;000.438;MIDI 01
798.468;000.190;85;000.469;MIDI 01
798.734;000.093;53;000.242;MIDI 01
798.726;000.111;50;000.273;MIDI 01
798.729;000.125;58;000.305;MIDI 01
798.957;000.098;74;000.414;MIDI 01
798.953;000.106;86;000.445;MIDI 01
799.256;000.323;74;000.430;MIDI 01
799.243;000.368;86;000.477;MIDI 01
799.853;000.062;75;000.352;MIDI 01
799.829;000.120;87;000.477;MIDI 01
799.569;000.530;59;000.211;MIDI 01
799.601;000.519;45;000.297;MIDI 01
799.561;000.569;53;000.273;MIDI 01
799.603;000.529;47;000.250;MIDI 01
799.574;000.596;56;000.297;MIDI 01
800.103;000.195;87;000.516;MIDI 01
800.112;000.217;75;000.375;MIDI 01
800.371;000.172;53;000.258;MIDI 01
800.380;000.185;56;000.266;MIDI 01
800.369;000.242;59;000.273;MIDI 01
800.641;000.087;76;000.406;MIDI 01
800.621;000.128;88;000.516;MIDI 01
801.036;000.320;76;000.328;MIDI 01
800.999;000.371;88;000.484;MIDI 01
801.629;000.158;77;000.352;MIDI 01
801.631;000.181;89;000.383;MIDI 01
801.323;000.841;53;000.227;MIDI 01
801.335;000.861;50;000.211;MIDI 01
801.307;000.900;59;000.211;MIDI 01
801.276;000.957;45;000.266;MIDI 01
802.058;000.427;89;000.359;MIDI 01
802.083;000.511;77;000.289;MIDI 01
802.540;000.362;59;000.195;MIDI 01
802.547;000.467;53;000.125;MIDI 01
802.551;000.466;50;000.172;MIDI 01
802.987;000.105;68;000.250;MIDI 01
802.975;000.146;80;000.297;MIDI 01
803.378;000.610;68;000.320;MIDI 01
803.383;000.626;80;000.320;MIDI 01
803.761;000.427;45;000.086;MIDI 01
803.757;000.478;49;000.133;MIDI 01
803.746;000.511;52;000.164;MIDI 01
804.211;000.074;69;000.273;MIDI 01
804.201;000.112;81;000.336;MIDI 01
803.774;000.546;57;000.148;MIDI 01
804.493;000.127;81;000.398;MIDI 01
804.534;000.121;69;000.305;MIDI 01
804.789;000.314;61;000.281;MIDI 01
804.790;000.361;57;000.250;MIDI 01
805.047;000.134;64;000.289;MIDI 01
805.034;000.152;76;000.383;MIDI 01
805.352;000.286;64;000.328;MIDI 01
805.342;000.317;76;000.375;MIDI 01
805.597;000.273;62;000.227;MIDI 01
805.611;000.276;59;000.227;MIDI 01
805.625;000.264;57;000.172;MIDI 01
805.915;000.078;65;000.281;MIDI 01
805.893;000.102;77;000.305;MIDI 01
806.186;000.054;77;000.320;MIDI 01
806.192;000.088;65;000.320;MIDI 01
806.778;000.067;56;000.266;MIDI 01
806.760;000.087;68;000.344;MIDI 01
806.522;000.339;53;000.211;MIDI 01
806.480;000.427;45;000.195;MIDI 01
806.498;000.446;50;000.195;MIDI 01
807.085;000.542;68;000.344;MIDI 01
807.091;000.555;56;000.289;MIDI 01
807.790;000.110;69;000.336;MIDI 01
807.796;000.112;57;000.289;MIDI 01
807.414;000.668;45;000.211;MIDI 01
807.434;000.661;52;000.188;MIDI 01
807.444;000.672;49;000.172;MIDI 01
808.094;000.132;69;000.375;MIDI 01
808.112;000.191;57;000.258;MIDI 01
808.650;000.119;64;000.344;MIDI 01
808.664;000.119;52;000.273;MIDI 01
808.366;000.659;45;000.273;MIDI 01
808.359;000.676;49;000.172;MIDI 01
809.066;000.328;52;000.227;MIDI 01
809.051;000.430;64;000.297;MIDI 01
809.906;000.269;53;000.188;MIDI 01
809.890;000.294;65;000.273;MIDI 01
810.701;000.616;53;000.141;MIDI 01
810.667;000.704;65;000.234;MIDI 01
809.469;001.909;47;000.102;MIDI 01
809.434;002.064;45;000.164;MIDI 01
809.465;002.062;50;000.164;MIDI 01
814.322;000.275;44;000.219;MIDI 01
814.324;000.279;56;000.211;MIDI 01
814.895;000.326;44;000.258;MIDI 01
814.890;000.340;56;000.250;MIDI 01
816.521;000.267;57;000.180;MIDI 01
816.526;000.274;45;000.266;MIDI 01
817.197;000.275;57;000.203;MIDI 01
817.209;000.316;45;000.219;MIDI 01
819.791;000.101;58;000.242;MIDI 01
819.795;000.114;46;000.266;MIDI 01
820.098;000.069;46;000.305;MIDI 01
820.071;000.152;58;000.336;MIDI 01
824.038;000.168;39;000.281;MIDI 01
824.058;000.149;51;000.242;MIDI 01
824.459;000.333;39;000.258;MIDI 01
824.455;001.868;51;000.281;MIDI 01
828.723;000.161;46;000.195;MIDI 01
828.747;000.166;34;000.172;MIDI 01
828.721;000.239;22;000.242;MIDI 01
829.242;000.408;46;000.242;MIDI 01
832.489;002.490;52;000.227;MIDI 01
829.258;006.106;34;000.180;MIDI 01
832.514;002.894;55;000.281;MIDI 01
829.230;006.492;22;000.266;MIDI 01
832.472;003.613;61;000.320;MIDI 01
838.637;000.217;45;000.195;MIDI 01
838.627;000.236;33;000.211;MIDI 01
838.608;000.317;21;000.227;MIDI 01
848.576;000.195;86;000.305;MIDI 01
848.597;000.203;81;000.203;MIDI 01
848.833;000.142;90;000.258;MIDI 01
849.019;000.078;81;000.102;MIDI 01
849.021;000.102;86;000.250;MIDI 01
849.150;000.071;90;000.328;MIDI 01
849.289;000.052;86;000.344;MIDI 01
849.276;000.067;81;000.242;MIDI 01
849.390;000.064;90;000.320;MIDI 01
849.495;000.064;86;000.359;MIDI 01
849.520;000.050;81;000.172;MIDI 01
849.725;000.036;86;000.320;MIDI 01
849.720;000.044;81;000.227;MIDI 01
847.561;002.285;74;000.195;MIDI 01
849.777;000.099;90;000.312;MIDI 01
849.894;000.043;81;000.375;MIDI 01
849.896;000.062;86;000.422;MIDI 01
848.255;001.751;78;000.352;MIDI 01
849.985;000.056;90;000.398;MIDI 01
850.073;000.033;81;000.352;MIDI 01
850.084;000.049;86;000.352;MIDI 01
850.154;000.052;90;000.391;MIDI 01
850.222;000.027;81;000.414;MIDI 01
850.239;000.061;86;000.367;MIDI 01
850.357;000.092;81;000.492;MIDI 01
850.379;000.106;86;000.383;MIDI 01
850.501;000.102;90;000.375;MIDI 01
850.754;000.102;84;000.391;MIDI 01
850.759;000.122;88;000.438;MIDI 01
850.919;000.077;91;000.422;MIDI 01
851.044;000.036;88;000.336;MIDI 01
851.046;000.042;84;000.281;MIDI 01
851.124;000.054;91;000.414;MIDI 01
851.223;000.038;84;000.328;MIDI 01
851.206;000.056;88;000.438;MIDI 01
851.304;000.045;91;000.445;MIDI 01
851.385;000.033;84;000.398;MIDI 01
851.387;000.046;88;000.445;MIDI 01
851.472;000.044;91;000.414;MIDI 01
851.538;000.040;84;000.445;MIDI 01
851.552;000.042;88;000.453;MIDI 01
851.701;000.044;84;000.438;MIDI 01
851.661;000.084;91;000.148;MIDI 01
851.704;000.049;88;000.477;MIDI 01
851.766;000.068;91;000.281;MIDI 01
851.873;000.027;84;000.391;MIDI 01
851.866;000.045;88;000.438;MIDI 01
851.927;000.057;91;000.500;MIDI 01
852.014;000.065;84;000.438;MIDI 01
852.036;000.044;88;000.430;MIDI 01
852.087;000.079;91;000.531;MIDI 01
852.214;000.036;84;000.305;MIDI 01
852.209;000.045;88;000.414;MIDI 01
852.260;000.065;91;000.445;MIDI 01
852.367;000.047;84;000.422;MIDI 01
852.381;000.037;88;000.352;MIDI 01
852.445;000.064;91;000.461;MIDI 01
852.550;000.044;84;000.383;MIDI 01
852.555;000.041;88;000.391;MIDI 01
852.627;000.049;91;000.383;MIDI 01
852.728;000.036;84;000.367;MIDI 01
852.736;000.046;88;000.367;MIDI 01
852.806;000.046;91;000.312;MIDI 01
852.892;000.054;84;000.398;MIDI 01
852.904;000.064;88;000.344;MIDI 01
850.615;002.378;79;000.531;MIDI 01
852.984;000.050;91;000.344;MIDI 01
850.490;002.605;72;000.391;MIDI 01
853.104;000.039;84;000.312;MIDI 01
853.102;000.059;88;000.266;MIDI 01
853.160;000.064;91;000.484;MIDI 01
853.275;000.035;84;000.359;MIDI 01
853.318;000.039;88;000.258;MIDI 01
853.352;000.066;91;000.492;MIDI 01
853.494;000.033;88;000.375;MIDI 01
853.455;000.089;84;000.344;MIDI 01
853.549;000.068;91;000.461;MIDI 01
853.790;000.103;81;000.438;MIDI 01
853.812;000.137;86;000.422;MIDI 01
853.980;000.053;90;000.367;MIDI 01
854.070;000.033;81;000.352;MIDI 01
854.072;000.074;86;000.297;MIDI 01
854.158;000.058;90;000.508;MIDI 01
854.228;000.060;81;000.430;MIDI 01
854.245;000.083;86;000.375;MIDI 01
854.339;000.045;90;000.438;MIDI 01
854.418;000.036;81;000.422;MIDI 01
854.396;000.137;86;000.336;MIDI 01
854.504;000.042;90;000.477;MIDI 01
854.579;000.052;81;000.469;MIDI 01
854.559;000.127;86;000.281;MIDI 01
854.669;000.035;90;000.484;MIDI 01
853.472;001.246;74;000.328;MIDI 01
853.650;001.106;78;000.531;MIDI 01
854.745;000.048;81;000.461;MIDI 01
854.721;000.106;86;000.219;MIDI 01
854.825;000.059;90;000.516;MIDI 01
854.903;000.047;81;000.484;MIDI 01
854.909;000.072;86;000.328;MIDI 01
855.007;000.060;90;000.516;MIDI 01
855.072;000.070;81;000.438;MIDI 01
855.102;000.096;86;000.414;MIDI 01
855.389;000.076;81;000.430;MIDI 01
855.413;000.101;86;000.375;MIDI 01
855.529;000.059;88;000.422;MIDI 01
855.644;000.040;81;000.305;MIDI 01
855.666;000.051;86;000.195;MIDI 01
855.718;000.049;88;000.492;MIDI 01
855.828;000.036;81;000.312;MIDI 01
855.832;000.048;86;000.219;MIDI 01
855.878;000.069;88;000.547;MIDI 01
855.994;000.048;86;000.336;MIDI 01
856.042;000.085;88;000.516;MIDI 01
856.134;000.054;81;000.258;MIDI 01
856.172;000.032;86;000.375;MIDI 01
856.200;000.084;88;000.516;MIDI 01
856.325;000.029;81;000.383;MIDI 01
856.331;000.038;86;000.328;MIDI 01
856.378;000.069;88;000.484;MIDI 01
856.461;000.049;81;000.445;MIDI 01
856.496;000.064;86;000.414;MIDI 01
856.557;000.080;88;000.531;MIDI 01
856.649;000.050;81;000.453;MIDI 01
856.666;000.094;85;000.508;MIDI 01
856.747;000.059;88;000.438;MIDI 01
856.837;000.040;81;000.383;MIDI 01
856.846;000.072;85;000.383;MIDI 01
856.922;000.061;88;000.531;MIDI 01
857.000;000.042;81;000.453;MIDI 01
857.027;000.049;85;000.406;MIDI 01
857.082;000.059;88;000.453;MIDI 01
857.159;000.045;81;000.453;MIDI 01
857.191;000.046;85;000.461;MIDI 01
857.243;000.058;88;000.531;MIDI 01
857.362;000.052;79;000.406;MIDI 01
857.349;000.081;85;000.445;MIDI 01
857.448;000.068;88;000.500;MIDI 01
857.559;000.062;79;000.398;MIDI 01
857.571;000.065;85;000.367;MIDI 01
857.660;000.055;88;000.438;MIDI 01
857.776;000.032;79;000.352;MIDI 01
857.786;000.046;85;000.391;MIDI 01
855.245;002.642;76;000.578;MIDI 01
857.848;000.053;88;000.508;MIDI 01
855.105;002.854;69;000.422;MIDI 01
857.949;000.152;79;000.336;MIDI 01
857.974;000.133;85;000.383;MIDI 01
858.047;000.073;88;000.422;MIDI 01
858.429;000.074;78;000.320;MIDI 01
858.461;000.156;83;000.234;MIDI 01
858.572;000.065;86;000.391;MIDI 01
858.678;000.055;78;000.398;MIDI 01
858.702;000.110;83;000.219;MIDI 01
858.777;000.046;86;000.453;MIDI 01
858.869;000.039;78;000.406;MIDI 01
858.948;000.042;86;000.484;MIDI 01
858.275;000.761;74;000.484;MIDI 01
858.127;000.936;71;000.375;MIDI 01
859.025;000.045;78;000.477;MIDI 01
859.111;000.036;86;000.461;MIDI 01
858.857;000.309;83;000.062;MIDI 01
859.195;000.032;78;000.398;MIDI 01
859.262;000.043;86;000.516;MIDI 01
859.348;000.024;78;000.445;MIDI 01
859.411;000.051;86;000.508;MIDI 01
859.495;000.030;78;000.414;MIDI 01
859.171;000.396;83;000.109;MIDI 01
859.574;000.042;86;000.570;MIDI 01
859.653;000.029;78;000.375;MIDI 01
859.734;000.090;86;000.523;MIDI 01
859.663;000.196;83;000.344;MIDI 01
859.956;000.055;80;000.359;MIDI 01
859.945;000.077;77;000.344;MIDI 01
860.054;000.059;85;000.414;MIDI 01
860.156;000.060;80;000.406;MIDI 01
860.182;000.038;77;000.281;MIDI 01
860.245;000.056;85;000.477;MIDI 01
860.346;000.034;77;000.320;MIDI 01
860.378;000.074;80;000.117;MIDI 01
860.407;000.050;85;000.477;MIDI 01
860.494;000.034;77;000.383;MIDI 01
860.480;000.057;80;000.195;MIDI 01
859.890;000.724;73;000.508;MIDI 01
860.559;000.055;85;000.469;MIDI 01
860.646;000.032;77;000.398;MIDI 01
860.643;000.041;80;000.344;MIDI 01
860.709;000.051;85;000.484;MIDI 01
860.798;000.043;77;000.398;MIDI 01
860.860;000.053;85;000.461;MIDI 01
860.826;000.093;80;000.258;MIDI 01
860.944;000.066;80;000.219;MIDI 01
861.030;000.035;85;000.336;MIDI 01
860.985;000.098;77;000.133;MIDI 01
860.990;000.197;71;000.359;MIDI 01
861.107;000.169;77;000.234;MIDI 01
859.784;001.530;68;000.453;MIDI 01
861.172;000.182;85;000.539;MIDI 01
859.699;001.686;61;000.414;MIDI 01
861.445;000.058;73;000.422;MIDI 01
861.577;000.033;82;000.391;MIDI 01
861.281;000.386;66;000.406;MIDI 01
861.672;000.030;73;000.344;MIDI 01
861.401;000.329;70;000.516;MIDI 01
861.742;000.059;82;000.484;MIDI 01
861.822;000.055;73;000.469;MIDI 01
861.842;000.094;78;000.242;MIDI 01
861.948;000.074;82;000.438;MIDI 01
861.968;000.158;66;000.492;MIDI 01
862.059;000.101;70;000.438;MIDI 01
862.155;000.041;78;000.453;MIDI 01
862.130;000.075;73;000.570;MIDI 01
862.193;000.031;82;000.375;MIDI 01
862.270;000.029;85;000.430;MIDI 01
862.323;000.040;78;000.445;MIDI 01
862.343;000.038;82;000.445;MIDI 01
862.415;000.044;85;000.508;MIDI 01
862.497;000.034;78;000.445;MIDI 01
862.499;000.047;82;000.477;MIDI 01
862.587;000.030;85;000.391;MIDI 01
862.640;000.042;78;000.531;MIDI 01
862.651;000.052;82;000.508;MIDI 01
862.730;000.042;85;000.547;MIDI 01
862.747;000.139;73;000.484;MIDI 01
862.882;000.025;82;000.453;MIDI 01
862.690;000.228;70;000.469;MIDI 01
862.839;000.116;78;000.562;MIDI 01
862.900;000.058;85;000.508;MIDI 01
862.989;000.025;90;000.461;MIDI 01
863.060;000.029;82;000.398;MIDI 01
863.080;000.029;85;000.469;MIDI 01
863.125;000.077;90;000.578;MIDI 01
863.226;000.025;82;000.406;MIDI 01
863.222;000.047;85;000.539;MIDI 01
863.312;000.029;90;000.477;MIDI 01
863.373;000.037;82;000.492;MIDI 01
863.385;000.042;85;000.539;MIDI 01
863.470;000.051;90;000.531;MIDI 01
863.650;000.057;85;000.477;MIDI 01
863.667;000.087;90;000.508;MIDI 01
863.772;000.070;94;000.555;MIDI 01
863.431;000.436;73;000.500;MIDI 01
863.487;000.438;78;000.500;MIDI 01
863.581;000.347;82;000.594;MIDI 01
863.902;000.028;85;000.375;MIDI 01
863.908;000.026;90;000.461;MIDI 01
863.979;000.047;94;000.547;MIDI 01
864.056;000.045;85;000.445;MIDI 01
864.058;000.062;90;000.523;MIDI 01
864.152;000.064;94;000.547;MIDI 01
864.256;000.040;90;000.453;MIDI 01
864.220;000.078;85;000.531;MIDI 01
864.326;000.074;94;000.586;MIDI 01
864.404;000.151;86;000.555;MIDI 01
864.486;000.152;89;000.547;MIDI 01
864.598;000.126;98;000.617;MIDI 01
864.575;000.208;80;000.391;MIDI 01
864.567;000.244;77;000.406;MIDI 01
864.565;000.267;74;000.391;MIDI 01
864.819;000.148;83;000.414;MIDI 01
865.012;000.040;74;000.320;MIDI 01
865.007;000.062;80;000.336;MIDI 01
865.005;000.067;77;000.383;MIDI 01
865.135;000.064;83;000.430;MIDI 01
865.257;000.045;80;000.359;MIDI 01
865.248;000.058;74;000.227;MIDI 01
865.274;000.042;77;000.281;MIDI 01
865.342;000.069;83;000.445;MIDI 01
865.455;000.040;74;000.320;MIDI 01
865.464;000.048;80;000.266;MIDI 01
865.470;000.045;77;000.273;MIDI 01
865.543;000.078;83;000.461;MIDI 01
865.669;000.045;77;000.211;MIDI 01
865.658;000.075;80;000.406;MIDI 01
865.674;000.085;74;000.031;MIDI 01
865.740;000.055;83;000.422;MIDI 01
865.850;000.042;80;000.258;MIDI 01
865.828;000.072;74;000.273;MIDI 01
865.918;000.062;83;000.484;MIDI 01
865.998;000.066;74;000.289;MIDI 01
866.025;000.057;80;000.391;MIDI 01
866.101;000.062;83;000.422;MIDI 01
866.202;000.046;74;000.273;MIDI 01
866.216;000.042;80;000.398;MIDI 01
866.225;000.041;77;000.250;MIDI 01
865.936;000.365;59;000.328;MIDI 01
866.291;000.058;83;000.445;MIDI 01
866.384;000.048;74;000.367;MIDI 01
866.392;000.057;77;000.438;MIDI 01
866.400;000.052;80;000.367;MIDI 01
866.476;000.061;83;000.484;MIDI 01
866.565;000.068;74;000.453;MIDI 01
866.593;000.046;77;000.367;MIDI 01
866.583;000.067;80;000.453;MIDI 01
866.308;000.357;62;000.469;MIDI 01
866.664;000.083;83;000.516;MIDI 01
866.770;000.055;74;000.430;MIDI 01
866.803;000.045;77;000.227;MIDI 01
866.808;000.049;80;000.492;MIDI 01
866.857;000.062;83;000.445;MIDI 01
866.645;000.384;65;000.508;MIDI 01
866.982;000.085;77;000.375;MIDI 01
866.952;000.122;74;000.484;MIDI 01
867.066;000.139;83;000.430;MIDI 01
867.246;000.076;73;000.438;MIDI 01
867.268;000.060;77;000.195;MIDI 01
867.370;000.116;83;000.414;MIDI 01
867.504;000.618;77;000.344;MIDI 01
867.699;000.447;83;000.320;MIDI 01
867.502;000.691;73;000.352;MIDI 01
867.014;001.215;70;000.453;MIDI 01
868.281;000.143;68;000.336;MIDI 01
868.531;000.235;73;000.336;MIDI 01
868.574;000.202;78;000.211;MIDI 01
868.503;000.284;66;000.352;MIDI 01
868.776;000.083;82;000.281;MIDI 01
868.930;000.038;78;000.297;MIDI 01
868.957;000.056;73;000.086;MIDI 01
869.014;000.053;82;000.430;MIDI 01
869.116;000.054;78;000.320;MIDI 01
869.221;000.030;82;000.406;MIDI 01
869.315;000.052;78;000.391;MIDI 01
869.393;000.029;82;000.367;MIDI 01
869.547;000.041;70;000.289;MIDI 01
869.642;000.034;78;000.430;MIDI 01
869.707;000.031;70;000.391;MIDI 01
869.743;000.045;73;000.391;MIDI 01
869.815;000.050;78;000.391;MIDI 01
869.881;000.059;70;000.312;MIDI 01
869.914;000.056;73;000.469;MIDI 01
870.007;000.034;78;000.445;MIDI 01
870.084;000.048;70;000.477;MIDI 01
870.119;000.033;73;000.414;MIDI 01
870.165;000.031;78;000.336;MIDI 01
870.275;000.053;70;000.414;MIDI 01
870.297;000.039;66;000.305;MIDI 01
870.413;000.036;73;000.312;MIDI 01
870.453;000.036;66;000.367;MIDI 01
870.469;000.038;70;000.414;MIDI 01
870.556;000.031;73;000.484;MIDI 01
870.651;000.046;70;000.414;MIDI 01
870.622;000.082;66;000.398;MIDI 01
870.710;000.074;73;000.523;MIDI 01
870.835;000.043;70;000.438;MIDI 01
871.093;000.051;78;000.406;MIDI 01
871.099;000.108;82;000.367;MIDI 01
871.226;000.071;90;000.484;MIDI 01
871.343;000.027;78;000.383;MIDI 01
871.381;000.031;82;000.383;MIDI 01
870.990;000.430;70;000.477;MIDI 01
870.893;000.550;64;000.344;MIDI 01
871.041;000.429;73;000.500;MIDI 01
871.447;000.044;90;000.547;MIDI 01
871.530;000.035;78;000.266;MIDI 01
871.646;000.043;90;000.242;MIDI 01
871.526;000.191;82;000.508;MIDI 01
871.666;000.086;78;000.578;MIDI 01
871.721;000.078;82;000.078;MIDI 01
871.794;000.125;90;000.586;MIDI 01
871.767;000.192;63;000.492;MIDI 01
872.032;000.102;81;000.484;MIDI 01
872.035;000.120;84;000.438;MIDI 01
872.176;000.073;93;000.438;MIDI 01
872.312;000.026;81;000.414;MIDI 01
872.329;000.026;84;000.367;MIDI 01
872.042;000.371;78;000.484;MIDI 01
872.400;000.028;93;000.508;MIDI 01
872.468;000.046;81;000.453;MIDI 01
872.470;000.053;84;000.477;MIDI 01
872.568;000.023;93;000.477;MIDI 01
871.929;000.666;72;000.484;MIDI 01
871.859;000.741;69;000.516;MIDI 01
872.644;000.027;84;000.414;MIDI 01
872.639;000.034;81;000.453;MIDI 01
872.719;000.034;93;000.492;MIDI 01
872.780;000.043;84;000.500;MIDI 01
872.788;000.039;81;000.484;MIDI 01
872.867;000.033;93;000.531;MIDI 01
872.929;000.036;81;000.531;MIDI 01
872.923;000.045;84;000.461;MIDI 01
873.001;000.043;93;000.531;MIDI 01
873.070;000.043;84;000.469;MIDI 01
873.072;000.043;81;000.531;MIDI 01
873.168;000.021;93;000.539;MIDI 01
873.230;000.032;84;000.375;MIDI 01
873.246;000.021;81;000.469;MIDI 01
873.301;000.047;93;000.523;MIDI 01
873.382;000.042;81;000.445;MIDI 01
873.396;000.039;84;000.367;MIDI 01
873.577;000.026;79;000.398;MIDI 01
873.590;000.062;83;000.367;MIDI 01
873.665;000.036;91;000.492;MIDI 01
873.739;000.054;79;000.375;MIDI 01
873.754;000.055;83;000.367;MIDI 01
873.841;000.027;91;000.484;MIDI 01
873.917;000.028;79;000.492;MIDI 01
873.365;000.587;63;000.438;MIDI 01
873.934;000.029;83;000.414;MIDI 01
873.443;000.565;69;000.430;MIDI 01
873.991;000.045;91;000.555;MIDI 01
873.503;000.538;71;000.469;MIDI 01
874.085;000.028;83;000.383;MIDI 01
874.055;000.067;79;000.531;MIDI 01
874.128;000.105;91;000.602;MIDI 01
874.294;000.047;78;000.500;MIDI 01
874.296;000.071;84;000.430;MIDI 01
874.409;000.049;90;000.539;MIDI 01
874.489;000.035;78;000.477;MIDI 01
874.512;000.045;84;000.406;MIDI 01
874.126;000.504;63;000.492;MIDI 01
874.571;000.072;90;000.609;MIDI 01
874.265;000.392;72;000.555;MIDI 01
874.643;000.043;78;000.500;MIDI 01
874.670;000.035;84;000.477;MIDI 01
874.190;000.518;69;000.461;MIDI 01
874.742;000.057;90;000.547;MIDI 01
874.823;000.060;78;000.445;MIDI 01
874.836;000.117;84;000.438;MIDI 01
874.930;000.106;90;000.594;MIDI 01
875.185;000.061;76;000.438;MIDI 01
875.183;000.082;85;000.438;MIDI 01
874.940;000.395;64;000.445;MIDI 01
875.302;000.050;88;000.508;MIDI 01
875.002;000.366;69;000.500;MIDI 01
875.424;000.034;85;000.430;MIDI 01
875.428;000.032;76;000.375;MIDI 01
875.101;000.372;73;000.562;MIDI 01
875.494;000.050;88;000.562;MIDI 01
875.586;000.049;76;000.477;MIDI 01
875.587;000.064;85;000.453;MIDI 01
875.743;000.204;69;000.477;MIDI 01
875.819;000.176;73;000.523;MIDI 01
875.968;000.038;81;000.469;MIDI 01
875.991;000.037;85;000.484;MIDI 01
875.929;000.133;76;000.477;MIDI 01
876.105;000.048;93;000.219;MIDI 01
876.140;000.047;81;000.492;MIDI 01
876.152;000.048;85;000.500;MIDI 01
876.248;000.019;93;000.516;MIDI 01
876.308;000.025;81;000.508;MIDI 01
876.315;000.044;85;000.477;MIDI 01
876.386;000.028;93;000.484;MIDI 01
876.449;000.040;81;000.508;MIDI 01
876.458;000.059;85;000.523;MIDI 01
876.525;000.057;93;000.562;MIDI 01
876.489;000.226;73;000.492;MIDI 01
876.676;000.041;85;000.547;MIDI 01
876.715;000.048;88;000.523;MIDI 01
876.564;000.209;76;000.469;MIDI 01
876.628;000.180;81;000.602;MIDI 01
876.784;000.058;97;000.555;MIDI 01
876.873;000.030;85;000.453;MIDI 01
876.893;000.044;88;000.508;MIDI 01
876.968;000.046;97;000.633;MIDI 01
877.040;000.028;85;000.453;MIDI 01
877.044;000.047;88;000.547;MIDI 01
877.158;000.034;97;000.312;MIDI 01
877.188;000.042;85;000.508;MIDI 01
877.221;000.025;88;000.414;MIDI 01
877.276;000.071;97;000.680;MIDI 01
877.469;000.078;88;000.484;MIDI 01
877.465;000.101;93;000.523;MIDI 01
877.581;000.074;100;000.594;MIDI 01
877.697;000.024;88;000.461;MIDI 01
877.427;000.298;85;000.617;MIDI 01
877.698;000.048;93;000.453;MIDI 01
877.299;000.501;76;000.484;MIDI 01
877.775;000.031;100;000.602;MIDI 01
877.348;000.460;81;000.500;MIDI 01
877.839;000.041;88;000.508;MIDI 01
877.848;000.056;93;000.508;MIDI 01
877.927;000.037;100;000.547;MIDI 01
877.987;000.052;88;000.555;MIDI 01
878.015;000.077;93;000.500;MIDI 01
878.083;000.084;100;000.617;MIDI 01
878.164;000.197;89;000.586;MIDI 01
878.264;000.201;92;000.641;MIDI 01
878.410;000.100;101;000.695;MIDI 01
878.359;000.210;80;000.453;MIDI 01
878.340;000.249;77;000.445;MIDI 01
878.339;000.256;74;000.438;MIDI 01
878.607;000.107;83;000.422;MIDI 01
878.783;000.070;74;000.344;MIDI 01
878.793;000.071;80;000.367;MIDI 01
878.791;000.075;77;000.352;MIDI 01
878.906;000.072;83;000.391;MIDI 01
879.031;000.049;77;000.383;MIDI 01
879.041;000.045;74;000.250;MIDI 01
879.034;000.053;80;000.391;MIDI 01
879.130;000.055;83;000.406;MIDI 01
879.222;000.040;74;000.352;MIDI 01
879.239;000.035;80;000.375;MIDI 01
879.248;000.045;77;000.242;MIDI 01
879.311;000.074;83;000.461;MIDI 01
879.420;000.034;77;000.375;MIDI 01
879.400;000.062;80;000.430;MIDI 01
879.392;000.171;74;000.398;MIDI 01
879.516;000.050;83;000.406;MIDI 01
879.594;000.049;77;000.359;MIDI 01
879.599;000.060;80;000.516;MIDI 01
879.682;000.072;83;000.484;MIDI 01
879.784;000.034;77;000.344;MIDI 01
879.781;000.051;74;000.305;MIDI 01
879.798;000.036;80;000.336;MIDI 01
879.872;000.065;83;000.430;MIDI 01
879.977;000.039;74;000.305;MIDI 01
879.972;000.046;77;000.320;MIDI 01
879.951;000.080;80;000.469;MIDI 01
880.061;000.067;83;000.484;MIDI 01
879.761;000.380;62;000.438;MIDI 01
880.137;000.068;74;000.422;MIDI 01
880.152;000.055;77;000.453;MIDI 01
880.168;000.050;80;000.508;MIDI 01
880.269;000.056;83;000.438;MIDI 01
880.350;000.030;77;000.383;MIDI 01
880.348;000.044;74;000.391;MIDI 01
880.346;000.062;80;000.445;MIDI 01
880.440;000.053;83;000.516;MIDI 01
880.189;000.360;65;000.539;MIDI 01
880.519;000.041;77;000.391;MIDI 01
880.511;000.049;74;000.477;MIDI 01
880.533;000.046;80;000.492;MIDI 01
880.629;000.035;83;000.383;MIDI 01
880.685;000.037;74;000.430;MIDI 01
880.694;000.049;77;000.438;MIDI 01
880.704;000.046;80;000.469;MIDI 01
880.794;000.052;83;000.445;MIDI 01
880.882;000.049;74;000.398;MIDI 01
880.505;000.432;68;000.570;MIDI 01
880.895;000.046;77;000.484;MIDI 01
880.900;000.056;80;000.469;MIDI 01
881.010;000.066;83;000.453;MIDI 01
881.080;000.054;74;000.445;MIDI 01
881.095;000.050;77;000.453;MIDI 01
881.118;000.043;80;000.484;MIDI 01
881.200;000.059;83;000.516;MIDI 01
881.253;000.081;74;000.570;MIDI 01
881.276;000.072;77;000.562;MIDI 01
881.294;000.073;80;000.539;MIDI 01
881.387;000.053;83;000.656;MIDI 01
880.906;001.320;73;000.656;MIDI 01
882.297;000.145;71;000.672;MIDI 01
882.743;000.189;57;000.656;MIDI 01
882.745;000.266;81;000.727;MIDI 01
882.751;000.261;52;000.648;MIDI 01
882.741;000.317;45;000.656;MIDI 01
882.749;000.315;69;000.695;MIDI 01
882.747;000.327;73;000.695;MIDI 01
883.556;000.147;44;000.586;MIDI 01
883.566;000.143;32;000.516;MIDI 01
883.564;000.150;56;000.617;MIDI 01
883.570;000.209;68;000.609;MIDI 01
883.861;000.042;33;000.562;MIDI 01
883.858;000.057;57;000.539;MIDI 01
883.856;000.061;45;000.617;MIDI 01
883.866;000.064;69;000.625;MIDI 01
884.077;000.047;49;000.633;MIDI 01
884.092;000.040;37;000.500;MIDI 01
884.086;000.071;61;000.648;MIDI 01
884.090;000.081;73;000.633;MIDI 01
884.284;000.030;52;000.602;MIDI 01
884.289;000.029;64;000.570;MIDI 01
884.291;000.043;76;000.656;MIDI 01
884.314;000.043;40;000.336;MIDI 01
884.361;000.020;38;000.023;MIDI 01
884.470;000.026;54;000.586;MIDI 01
884.477;000.050;68;000.641;MIDI 01
884.508;000.039;56;000.336;MIDI 01
884.479;000.079;80;000.633;MIDI 01
884.520;000.044;44;000.242;MIDI 01
884.512;000.055;42;000.219;MIDI 01
884.647;000.031;57;000.617;MIDI 01
884.649;000.032;45;000.609;MIDI 01
884.660;000.031;69;000.570;MIDI 01
884.663;000.030;83;000.578;MIDI 01
884.670;000.026;81;000.562;MIDI 01
884.667;000.031;71;000.461;MIDI 01
884.810;000.035;61;000.703;MIDI 01
884.819;000.039;49;000.539;MIDI 01
884.821;000.041;73;000.648;MIDI 01
884.817;000.076;85;000.711;MIDI 01
884.976;000.033;64;000.586;MIDI 01
884.979;000.032;76;000.617;MIDI 01
884.981;000.050;88;000.727;MIDI 01
884.977;000.071;52;000.641;MIDI 01
885.150;000.078;80;000.641;MIDI 01
885.142;000.141;92;000.750;MIDI 01
885.358;000.021;93;000.797;MIDI 01
885.354;000.049;86;000.789;MIDI 01
885.352;000.053;58;000.703;MIDI 01
885.362;000.051;50;000.617;MIDI 01
885.360;000.055;81;000.734;MIDI 01
885.350;000.092;46;000.656;MIDI 01
885.875;000.044;45;000.547;MIDI 01
885.883;000.044;33;000.508;MIDI 01
885.898;000.034;69;000.570;MIDI 01
885.893;000.042;57;000.508;MIDI 01
886.051;000.035;46;000.578;MIDI 01
886.064;000.040;58;000.539;MIDI 01
886.068;000.041;34;000.422;MIDI 01
886.070;000.046;70;000.578;MIDI 01
886.229;000.029;38;000.586;MIDI 01
886.231;000.030;62;000.570;MIDI 01
886.227;000.035;50;000.609;MIDI 01
886.232;000.037;74;000.688;MIDI 01
886.397;000.029;65;000.641;MIDI 01
886.399;000.029;53;000.617;MIDI 01
886.401;000.041;77;000.664;MIDI 01
886.414;000.035;41;000.469;MIDI 01
886.555;000.033;57;000.648;MIDI 01
886.559;000.031;45;000.641;MIDI 01
886.564;000.029;69;000.664;MIDI 01
886.561;000.040;81;000.711;MIDI 01
886.712;000.035;70;000.727;MIDI 01
886.709;000.043;58;000.688;MIDI 01
886.727;000.036;46;000.516;MIDI 01
886.718;000.060;82;000.688;MIDI 01
886.873;000.029;50;000.633;MIDI 01
886.875;000.031;74;000.664;MIDI 01
886.870;000.040;62;000.680;MIDI 01
886.877;000.053;86;000.742;MIDI 01
887.015;000.033;65;000.688;MIDI 01
887.044;000.025;77;000.672;MIDI 01
887.021;000.065;53;000.664;MIDI 01
887.046;000.045;89;000.766;MIDI 01
887.190;000.050;80;000.688;MIDI 01
887.182;000.101;92;000.773;MIDI 01
887.358;000.018;93;000.812;MIDI 01
887.349;000.029;59;000.711;MIDI 01
887.360;000.035;51;000.680;MIDI 01
887.357;000.042;81;000.820;MIDI 01
887.355;000.048;87;000.820;MIDI 01
887.353;000.053;47;000.664;MIDI 01
887.818;000.044;58;000.539;MIDI 01
887.814;000.050;46;000.562;MIDI 01
887.820;000.046;34;000.539;MIDI 01
887.816;000.075;70;000.539;MIDI 01
887.977;000.030;35;000.531;MIDI 01
887.979;000.030;71;000.586;MIDI 01
887.975;000.037;48;000.578;MIDI 01
887.984;000.038;59;000.477;MIDI 01
887.994;000.039;47;000.430;MIDI 01
888.006;000.041;60;000.320;MIDI 01
888.128;000.032;51;000.664;MIDI 01
888.132;000.036;63;000.586;MIDI 01
888.130;000.046;75;000.648;MIDI 01
888.158;000.047;39;000.383;MIDI 01
888.274;000.035;54;000.688;MIDI 01
888.284;000.031;66;000.641;MIDI 01
888.276;000.046;42;000.625;MIDI 01
888.282;000.043;78;000.703;MIDI 01
888.433;000.041;70;000.703;MIDI 01
888.435;000.041;58;000.656;MIDI 01
888.441;000.038;46;000.547;MIDI 01
888.436;000.064;82;000.695;MIDI 01
888.580;000.033;72;000.766;MIDI 01
888.591;000.025;47;000.586;MIDI 01
888.589;000.039;84;000.680;MIDI 01
888.582;000.052;59;000.734;MIDI 01
888.640;000.044;48;000.234;MIDI 01
888.730;000.028;63;000.773;MIDI 01
888.724;000.039;75;000.734;MIDI 01
888.743;000.033;51;000.531;MIDI 01
888.726;000.062;87;000.758;MIDI 01
888.861;000.030;66;000.742;MIDI 01
888.873;000.035;54;000.664;MIDI 01
888.892;000.031;78;000.695;MIDI 01
888.890;000.053;90;000.742;MIDI 01
889.043;000.061;92;000.805;MIDI 01
889.039;000.069;80;000.531;MIDI 01
889.093;000.045;82;000.219;MIDI 01
889.237;000.053;60;000.711;MIDI 01
889.289;000.002;87;000.438;MIDI 01
889.258;000.034;93;000.812;MIDI 01
889.248;000.060;48;000.672;MIDI 01
889.250;000.059;57;000.680;MIDI 01
889.285;000.026;90;000.453;MIDI 01
889.252;000.061;88;000.766;MIDI 01
889.254;000.066;81;000.812;MIDI 01
889.256;000.067;52;000.664;MIDI 01
889.769;000.061;71;000.680;MIDI 01
889.767;000.066;59;000.641;MIDI 01
889.771;000.064;35;000.609;MIDI 01
889.773;000.064;47;000.641;MIDI 01
889.969;000.033;48;000.672;MIDI 01
889.967;000.047;60;000.633;MIDI 01
889.980;000.036;36;000.594;MIDI 01
889.965;000.054;72;000.664;MIDI 01
890.117;000.053;51;000.703;MIDI 01
890.131;000.048;39;000.555;MIDI 01
890.125;000.058;63;000.672;MIDI 01
890.128;000.067;75;000.664;MIDI 01
890.289;000.028;53;000.625;MIDI 01
890.290;000.030;76;000.680;MIDI 01
890.294;000.032;41;000.555;MIDI 01
890.296;000.033;64;000.555;MIDI 01
890.306;000.025;65;000.508;MIDI 01
890.310;000.031;40;000.422;MIDI 01
890.429;000.040;56;000.672;MIDI 01
890.440;000.031;44;000.508;MIDI 01
890.438;000.043;68;000.648;MIDI 01
890.435;000.061;80;000.672;MIDI 01
890.582;000.027;45;000.648;MIDI 01
890.589;000.026;69;000.641;MIDI 01
890.584;000.032;57;000.664;MIDI 01
890.590;000.048;81;000.727;MIDI 01
890.737;000.031;72;000.672;MIDI 01
890.735;000.038;60;000.742;MIDI 01
890.742;000.033;48;000.648;MIDI 01
890.739;000.048;84;000.734;MIDI 01
890.891;000.030;64;000.734;MIDI 01
890.898;000.035;76;000.711;MIDI 01
890.895;000.041;52;000.680;MIDI 01
890.900;000.044;88;000.742;MIDI 01
891.072;000.018;82;000.602;MIDI 01
891.103;000.002;93;000.398;MIDI 01
891.056;000.056;92;000.805;MIDI 01
891.062;000.058;80;000.625;MIDI 01
891.260;000.061;49;000.695;MIDI 01
891.257;000.067;61;000.797;MIDI 01
891.262;000.066;57;000.695;MIDI 01
891.284;000.093;79;000.641;MIDI 01
891.286;000.093;81;000.648;MIDI 01
891.272;000.118;85;000.688;MIDI 01
891.281;000.151;88;000.656;MIDI 01
891.421;000.066;93;000.656;MIDI 01
891.544;000.026;79;000.430;MIDI 01
891.552;000.025;81;000.391;MIDI 01
891.546;000.036;85;000.500;MIDI 01
891.608;000.032;88;000.406;MIDI 01
891.619;000.056;93;000.641;MIDI 01
891.696;000.042;79;000.500;MIDI 01
891.692;000.047;81;000.461;MIDI 01
891.694;000.059;85;000.508;MIDI 01
891.736;000.048;55;000.562;MIDI 01
891.734;000.052;67;000.586;MIDI 01
891.720;000.098;88;000.367;MIDI 01
891.778;000.078;93;000.625;MIDI 01
891.871;000.038;79;000.469;MIDI 01
891.868;000.044;81;000.430;MIDI 01
891.866;000.057;85;000.547;MIDI 01
891.930;000.040;66;000.609;MIDI 01
891.944;000.044;54;000.586;MIDI 01
891.942;000.074;93;000.602;MIDI 01
892.028;000.030;79;000.469;MIDI 01
892.021;000.040;81;000.484;MIDI 01
892.023;000.049;85;000.555;MIDI 01
892.089;000.036;64;000.625;MIDI 01
892.096;000.042;52;000.625;MIDI 01
892.091;000.072;93;000.586;MIDI 01
892.176;000.032;81;000.500;MIDI 01
892.184;000.030;79;000.453;MIDI 01
892.172;000.049;85;000.539;MIDI 01
892.239;000.032;62;000.680;MIDI 01
892.246;000.034;50;000.633;MIDI 01
892.241;000.070;93;000.570;MIDI 01
891.852;000.464;88;000.148;MIDI 01
892.327;000.029;79;000.484;MIDI 01
892.320;000.039;81;000.492;MIDI 01
892.307;000.053;91;000.195;MIDI 01
892.325;000.048;85;000.539;MIDI 01
892.340;000.083;88;000.195;MIDI 01
892.389;000.047;49;000.562;MIDI 01
892.371;000.068;61;000.711;MIDI 01
892.391;000.072;93;000.641;MIDI 01
892.482;000.025;79;000.453;MIDI 01
892.469;000.046;85;000.523;MIDI 01
892.467;000.057;81;000.523;MIDI 01
892.522;000.048;59;000.711;MIDI 01
892.524;000.056;47;000.688;MIDI 01
892.455;000.145;88;000.227;MIDI 01
892.535;000.080;93;000.594;MIDI 01
892.621;000.040;79;000.414;MIDI 01
892.616;000.052;81;000.531;MIDI 01
892.609;000.071;85;000.578;MIDI 01
892.604;000.115;88;000.203;MIDI 01
892.684;000.036;45;000.711;MIDI 01
892.679;000.049;57;000.727;MIDI 01
892.680;000.082;93;000.586;MIDI 01
892.748;000.053;91;000.211;MIDI 01
892.771;000.034;79;000.469;MIDI 01
892.769;000.039;81;000.500;MIDI 01
892.755;000.075;85;000.508;MIDI 01
892.837;000.027;44;000.562;MIDI 01
892.822;000.045;56;000.758;MIDI 01
892.759;000.126;88;000.070;MIDI 01
892.835;000.079;93;000.617;MIDI 01
892.919;000.030;79;000.531;MIDI 01
892.910;000.051;81;000.523;MIDI 01
892.913;000.051;85;000.523;MIDI 01
892.915;000.062;88;000.242;MIDI 01
892.971;000.048;59;000.672;MIDI 01
892.973;000.053;47;000.688;MIDI 01
892.981;000.077;93;000.617;MIDI 01
893.062;000.034;79;000.406;MIDI 01
893.055;000.048;81;000.477;MIDI 01
893.056;000.049;85;000.508;MIDI 01
893.065;000.056;88;000.375;MIDI 01
893.131;000.037;57;000.703;MIDI 01
893.136;000.040;45;000.680;MIDI 01
893.134;000.062;93;000.539;MIDI 01
893.215;000.025;81;000.461;MIDI 01
893.205;000.043;85;000.539;MIDI 01
893.222;000.028;79;000.391;MIDI 01
893.254;000.045;88;000.180;MIDI 01
893.279;000.045;55;000.695;MIDI 01
893.285;000.042;43;000.656;MIDI 01
893.275;000.078;93;000.617;MIDI 01
893.349;000.029;79;000.562;MIDI 01
893.344;000.042;81;000.500;MIDI 01
893.358;000.038;88;000.398;MIDI 01
893.334;000.067;85;000.555;MIDI 01
893.423;000.055;54;000.664;MIDI 01
893.436;000.051;42;000.594;MIDI 01
893.425;000.069;93;000.586;MIDI 01
893.501;000.030;79;000.375;MIDI 01
893.485;000.055;81;000.617;MIDI 01
893.511;000.031;88;000.477;MIDI 01
893.487;000.070;85;000.562;MIDI 01
893.571;000.045;40;000.664;MIDI 01
893.566;000.052;52;000.742;MIDI 01
893.569;000.079;93;000.602;MIDI 01
893.643;000.043;79;000.422;MIDI 01
893.641;000.047;81;000.516;MIDI 01
893.654;000.041;88;000.500;MIDI 01
893.630;000.075;85;000.516;MIDI 01
893.710;000.038;38;000.680;MIDI 01
893.705;000.051;50;000.719;MIDI 01
893.730;000.064;93;000.570;MIDI 01
893.782;000.052;79;000.594;MIDI 01
893.779;000.057;81;000.539;MIDI 01
893.785;000.056;88;000.562;MIDI 01
893.770;000.081;85;000.531;MIDI 01
893.842;000.055;49;000.727;MIDI 01
893.850;000.049;37;000.695;MIDI 01
893.868;000.092;93;000.602;MIDI 01
893.953;000.041;79;000.508;MIDI 01
893.955;000.041;81;000.406;MIDI 01
893.943;000.055;88;000.477;MIDI 01
893.930;000.093;85;000.531;MIDI 01
893.978;000.048;47;000.688;MIDI 01
893.983;000.045;35;000.688;MIDI 01
894.023;000.095;93;000.562;MIDI 01
894.106;000.034;88;000.547;MIDI 01
894.103;000.060;79;000.570;MIDI 01
894.098;000.068;81;000.539;MIDI 01
894.129;000.044;33;000.711;MIDI 01
894.122;000.055;45;000.742;MIDI 01
894.105;000.089;85;000.547;MIDI 01
894.200;000.076;93;000.531;MIDI 01
894.256;000.071;81;000.336;MIDI 01
894.257;000.072;79;000.453;MIDI 01
894.265;000.068;44;000.750;MIDI 01
894.270;000.073;32;000.695;MIDI 01
894.312;000.039;42;000.328;MIDI 01
894.259;000.112;85;000.438;MIDI 01
894.320;000.056;34;000.219;MIDI 01
894.235;000.150;88;000.641;MIDI 01
894.440;000.144;81;000.742;MIDI 01
894.444;000.144;79;000.750;MIDI 01
894.438;000.201;93;000.773;MIDI 01
894.431;000.242;45;000.750;MIDI 01
894.433;000.288;85;000.719;MIDI 01
894.430;000.299;33;000.758;MIDI 01
894.435;000.296;88;000.695;MIDI 01
894.860;000.052;83;000.656;MIDI 01
894.858;000.056;95;000.742;MIDI 01
894.854;000.076;44;000.625;MIDI 01
894.862;000.074;32;000.570;MIDI 01
895.034;000.044;43;000.680;MIDI 01
895.040;000.054;31;000.656;MIDI 01
895.032;000.070;85;000.711;MIDI 01
895.038;000.073;97;000.703;MIDI 01
895.202;000.033;86;000.688;MIDI 01
895.209;000.029;98;000.727;MIDI 01
895.180;000.068;42;000.703;MIDI 01
895.191;000.071;30;000.680;MIDI 01
895.283;000.052;32;000.055;MIDI 01
895.325;000.043;40;000.688;MIDI 01
895.331;000.039;88;000.734;MIDI 01
895.333;000.053;100;000.781;MIDI 01
895.327;000.064;28;000.695;MIDI 01
895.493;000.001;99;000.508;MIDI 01
895.470;000.030;26;000.727;MIDI 01
895.464;000.046;90;000.852;MIDI 01
895.466;000.048;102;000.883;MIDI 01
895.462;000.062;38;000.789;MIDI 01
895.953;000.017;78;000.508;MIDI 01
895.940;000.032;66;000.633;MIDI 01
895.951;000.030;74;000.523;MIDI 01
895.949;000.038;57;000.500;MIDI 01
895.955;000.034;62;000.500;MIDI 01
895.965;000.031;69;000.375;MIDI 01
896.028;000.064;66;000.672;MIDI 01
896.038;000.059;78;000.758;MIDI 01
896.047;000.056;62;000.695;MIDI 01
896.052;000.069;69;000.664;MIDI 01
896.054;000.075;57;000.586;MIDI 01
896.050;000.081;74;000.680;MIDI 01
896.355;000.029;57;000.555;MIDI 01
896.359;000.027;66;000.609;MIDI 01
896.357;000.031;62;000.633;MIDI 01
896.365;000.034;50;000.469;MIDI 01
896.373;000.039;54;000.367;MIDI 01
896.395;000.036;69;000.289;MIDI 01
896.451;000.056;57;000.680;MIDI 01
896.471;000.039;69;000.609;MIDI 01
896.465;000.052;54;000.648;MIDI 01
896.461;000.057;62;000.766;MIDI 01
896.459;000.072;50;000.617;MIDI 01
896.458;000.079;66;000.727;MIDI 01
896.695;000.039;63;000.297;MIDI 01
896.812;000.035;45;000.531;MIDI 01
896.818;000.031;54;000.633;MIDI 01
896.809;000.042;42;000.578;MIDI 01
896.822;000.033;62;000.586;MIDI 01
896.801;000.058;50;000.641;MIDI 01
896.816;000.046;57;000.508;MIDI 01
896.914;000.027;54;000.602;MIDI 01
896.918;000.043;57;000.609;MIDI 01
896.911;000.051;50;000.688;MIDI 01
896.909;000.070;62;000.734;MIDI 01
896.920;000.066;45;000.695;MIDI 01
896.916;000.092;42;000.742;MIDI 01
897.019;000.031;54;000.297;MIDI 01
897.414;000.043;24;000.719;MIDI 01
897.409;000.067;36;000.828;MIDI 01
897.427;000.059;91;000.797;MIDI 01
897.425;000.118;79;000.828;MIDI 01
897.817;000.027;76;000.656;MIDI 01
897.820;000.033;72;000.617;MIDI 01
897.833;000.023;79;000.500;MIDI 01
897.823;000.034;67;000.609;MIDI 01
897.834;000.029;64;000.453;MIDI 01
897.815;000.053;60;000.586;MIDI 01
897.931;000.026;79;000.641;MIDI 01
897.925;000.038;67;000.641;MIDI 01
897.933;000.045;64;000.656;MIDI 01
897.914;000.069;76;000.656;MIDI 01
897.918;000.067;72;000.711;MIDI 01
897.916;000.082;60;000.531;MIDI 01
898.200;000.024;67;000.609;MIDI 01
898.193;000.033;60;000.586;MIDI 01
898.214;000.018;72;000.516;MIDI 01
898.198;000.035;52;000.531;MIDI 01
898.204;000.031;64;000.586;MIDI 01
898.206;000.034;55;000.492;MIDI 01
898.302;000.034;72;000.688;MIDI 01
898.295;000.048;60;000.711;MIDI 01
898.291;000.065;67;000.672;MIDI 01
898.297;000.061;64;000.680;MIDI 01
898.308;000.051;55;000.602;MIDI 01
898.306;000.055;52;000.617;MIDI 01
898.397;000.049;53;000.117;MIDI 01
898.598;000.032;55;000.594;MIDI 01
898.603;000.030;64;000.594;MIDI 01
898.605;000.029;60;000.578;MIDI 01
898.614;000.028;67;000.531;MIDI 01
898.607;000.036;48;000.500;MIDI 01
898.691;000.059;55;000.695;MIDI 01
898.718;000.036;67;000.695;MIDI 01
898.702;000.059;60;000.656;MIDI 01
898.706;000.067;52;000.508;MIDI 01
898.704;000.073;64;000.672;MIDI 01
898.714;000.073;48;000.617;MIDI 01
899.109;000.023;60;000.539;MIDI 01
899.103;000.034;52;000.547;MIDI 01
899.101;000.039;55;000.578;MIDI 01
899.105;000.038;40;000.570;MIDI 01
899.107;000.045;48;000.641;MIDI 01
899.119;000.047;44;000.266;MIDI 01
899.160;000.052;43;000.148;MIDI 01
899.204;000.054;52;000.758;MIDI 01
899.210;000.066;48;000.789;MIDI 01
899.208;000.081;55;000.758;MIDI 01
899.212;000.090;40;000.711;MIDI 01
899.197;000.112;60;000.719;MIDI 01
899.217;000.106;43;000.227;MIDI 01
899.917;000.041;26;000.719;MIDI 01
899.913;000.069;38;000.812;MIDI 01
899.935;000.056;90;000.805;MIDI 01
899.934;000.081;78;000.820;MIDI 01
900.335;000.033;78;000.562;MIDI 01
900.333;000.037;74;000.594;MIDI 01
900.343;000.036;69;000.492;MIDI 01
900.352;000.029;66;000.672;MIDI 01
900.375;000.043;62;000.477;MIDI 01
900.435;000.040;69;000.750;MIDI 01
900.431;000.052;66;000.648;MIDI 01
900.433;000.067;74;000.703;MIDI 01
900.441;000.070;62;000.547;MIDI 01
900.365;000.160;57;000.539;MIDI 01
900.429;000.098;78;000.773;MIDI 01
900.931;000.042;33;000.680;MIDI 01
900.933;000.067;38;000.633;MIDI 01
900.935;000.072;40;000.703;MIDI 01
900.938;000.078;88;000.789;MIDI 01
900.973;000.045;36;000.406;MIDI 01
900.928;000.097;45;000.781;MIDI 01
900.940;000.095;86;000.758;MIDI 01
900.942;000.106;81;000.773;MIDI 01
900.944;000.114;76;000.805;MIDI 01
901.025;000.057;85;000.023;MIDI 01
901.359;000.032;74;000.586;MIDI 01
901.357;000.041;64;000.586;MIDI 01
901.378;000.026;76;000.414;MIDI 01
901.367;000.044;57;000.547;MIDI 01
901.377;000.035;69;000.359;MIDI 01
901.384;000.030;62;000.461;MIDI 01
901.472;000.041;64;000.609;MIDI 01
901.484;000.044;76;000.688;MIDI 01
901.480;000.050;62;000.664;MIDI 01
901.467;000.066;74;000.617;MIDI 01
901.482;000.052;69;000.719;MIDI 01
901.766;000.025;52;000.461;MIDI 01
901.765;000.028;64;000.531;MIDI 01
901.763;000.032;62;000.562;MIDI 01
901.760;000.036;50;000.469;MIDI 01
901.754;000.045;57;000.602;MIDI 01
901.782;000.033;71;000.320;MIDI 01
901.816;000.048;69;000.141;MIDI 01
901.873;000.039;52;000.656;MIDI 01
901.852;000.060;57;000.656;MIDI 01
901.868;000.049;69;000.352;MIDI 01
901.865;000.054;64;000.703;MIDI 01
901.859;000.061;62;000.656;MIDI 01
901.870;000.059;50;000.617;MIDI 01
902.152;000.030;57;000.586;MIDI 01
902.154;000.034;64;000.578;MIDI 01
902.156;000.035;62;000.578;MIDI 01
902.158;000.035;52;000.539;MIDI 01
902.182;000.027;45;000.359;MIDI 01
902.254;000.040;57;000.531;MIDI 01
902.249;000.058;52;000.719;MIDI 01
902.263;000.049;48;000.602;MIDI 01
902.268;000.051;62;000.719;MIDI 01
902.266;000.057;50;000.594;MIDI 01
902.260;000.071;64;000.680;MIDI 01
902.275;000.065;45;000.641;MIDI 01
902.305;000.038;59;000.250;MIDI 01
902.303;000.048;43;000.297;MIDI 01
902.504;000.043;39;000.414;MIDI 01
902.703;000.044;33;000.656;MIDI 01
902.710;000.059;88;000.797;MIDI 01
902.705;000.079;37;000.633;MIDI 01
902.702;000.091;45;000.727;MIDI 01
902.700;000.100;40;000.711;MIDI 01
902.717;000.097;76;000.789;MIDI 01
902.715;000.103;85;000.781;MIDI 01
902.712;000.107;81;000.797;MIDI 01
903.082;000.031;73;000.586;MIDI 01
903.084;000.033;61;000.500;MIDI 01
903.091;000.030;69;000.562;MIDI 01
903.094;000.033;64;000.523;MIDI 01
903.096;000.039;57;000.398;MIDI 01
903.118;000.034;76;000.312;MIDI 01
903.184;000.042;64;000.688;MIDI 01
903.198;000.035;76;000.500;MIDI 01
903.186;000.064;69;000.750;MIDI 01
903.189;000.064;61;000.688;MIDI 01
903.181;000.076;57;000.562;MIDI 01
903.177;000.082;73;000.711;MIDI 01
903.442;000.036;49;000.555;MIDI 01
903.445;000.035;52;000.547;MIDI 01
903.447;000.039;57;000.508;MIDI 01
903.478;000.019;61;000.477;MIDI 01
903.473;000.029;69;000.500;MIDI 01
903.454;000.049;64;000.609;MIDI 01
903.549;000.065;57;000.688;MIDI 01
903.559;000.064;61;000.781;MIDI 01
903.557;000.069;52;000.617;MIDI 01
903.587;000.041;53;000.406;MIDI 01
903.566;000.064;69;000.734;MIDI 01
903.561;000.076;64;000.586;MIDI 01
903.551;000.100;49;000.656;MIDI 01
903.854;000.025;57;000.688;MIDI 01
903.860;000.022;52;000.508;MIDI 01
903.855;000.029;61;000.617;MIDI 01
903.857;000.034;45;000.531;MIDI 01
903.872;000.025;64;000.492;MIDI 01
903.897;000.039;49;000.141;MIDI 01
903.892;000.049;50;000.242;MIDI 01
903.956;000.031;57;000.562;MIDI 01
903.946;000.056;52;000.766;MIDI 01
903.967;000.051;64;000.727;MIDI 01
903.952;000.072;61;000.672;MIDI 01
903.965;000.061;49;000.531;MIDI 01
903.962;000.070;45;000.695;MIDI 01
904.424;000.080;35;000.672;MIDI 01
904.447;000.066;86;000.758;MIDI 01
904.426;000.090;38;000.609;MIDI 01
904.445;000.097;83;000.734;MIDI 01
904.430;000.114;42;000.688;MIDI 01
904.428;000.118;47;000.703;MIDI 01
904.449;000.118;78;000.750;MIDI 01
904.450;000.138;74;000.758;MIDI 01
904.806;000.033;66;000.664;MIDI 01
904.811;000.032;62;000.602;MIDI 01
904.820;000.028;71;000.555;MIDI 01
904.824;000.030;50;000.406;MIDI 01
904.814;000.131;59;000.516;MIDI 01
904.909;000.052;62;000.680;MIDI 01
904.906;000.068;50;000.594;MIDI 01
904.890;000.087;54;000.367;MIDI 01
904.915;000.076;71;000.750;MIDI 01
904.904;000.091;66;000.734;MIDI 01
904.959;000.043;53;000.242;MIDI 01
905.346;000.090;37;000.641;MIDI 01
905.348;000.104;41;000.602;MIDI 01
905.351;000.112;85;000.773;MIDI 01
905.355;000.113;73;000.828;MIDI 01
905.353;000.118;44;000.703;MIDI 01
905.417;000.058;40;000.156;MIDI 01
905.343;000.136;49;000.758;MIDI 01
905.357;000.125;77;000.742;MIDI 01
905.359;000.131;80;000.742;MIDI 01
905.825;000.041;61;000.656;MIDI 01
905.834;000.033;68;000.617;MIDI 01
905.841;000.034;65;000.602;MIDI 01
905.837;000.044;53;000.484;MIDI 01
905.832;000.051;56;000.531;MIDI 01
905.859;000.032;73;000.375;MIDI 01
905.946;000.030;64;000.586;MIDI 01
905.943;000.044;65;000.617;MIDI 01
905.929;000.059;61;000.742;MIDI 01
905.931;000.083;68;000.703;MIDI 01
905.933;000.096;73;000.664;MIDI 01
905.940;000.092;53;000.648;MIDI 01
905.951;000.094;56;000.672;MIDI 01
906.317;000.065;71;000.719;MIDI 01
906.315;000.084;83;000.734;MIDI 01
906.551;000.055;30;000.719;MIDI 01
906.569;000.057;82;000.742;MIDI 01
906.544;000.090;42;000.719;MIDI 01
906.615;000.034;80;000.305;MIDI 01
906.571;000.086;70;000.812;MIDI 01
906.624;000.066;32;000.086;MIDI 01
906.922;000.028;61;000.578;MIDI 01
906.917;000.041;58;000.641;MIDI 01
906.919;000.065;66;000.602;MIDI 01
906.940;000.052;54;000.555;MIDI 01
906.931;000.076;70;000.609;MIDI 01
906.929;000.087;49;000.578;MIDI 01
907.215;000.032;34;000.633;MIDI 01
907.204;000.062;46;000.758;MIDI 01
907.208;000.066;85;000.750;MIDI 01
907.210;000.091;73;000.703;MIDI 01
907.506;000.039;66;000.531;MIDI 01
907.486;000.062;61;000.625;MIDI 01
907.490;000.061;70;000.633;MIDI 01
907.494;000.071;58;000.430;MIDI 01
907.504;000.071;73;000.648;MIDI 01
907.501;000.082;54;000.500;MIDI 01
907.753;000.030;37;000.617;MIDI 01
907.750;000.043;90;000.773;MIDI 01
907.741;000.056;49;000.742;MIDI 01
907.747;000.077;78;000.750;MIDI 01
908.044;000.027;70;000.625;MIDI 01
908.040;000.038;73;000.641;MIDI 01
908.028;000.054;66;000.656;MIDI 01
908.046;000.068;78;000.664;MIDI 01
908.051;000.066;61;000.555;MIDI 01
908.042;000.081;58;000.562;MIDI 01
908.349;000.028;42;000.680;MIDI 01
908.360;000.031;92;000.625;MIDI 01
908.343;000.053;54;000.742;MIDI 01
908.353;000.045;94;000.766;MIDI 01
908.351;000.067;82;000.836;MIDI 01
908.383;000.038;44;000.406;MIDI 01
908.700;000.031;73;000.695;MIDI 01
908.689;000.047;70;000.750;MIDI 01
908.702;000.051;78;000.711;MIDI 01
908.712;000.044;66;000.578;MIDI 01
908.698;000.075;61;000.695;MIDI 01
908.704;000.071;82;000.727;MIDI 01
909.152;000.045;47;000.258;MIDI 01
909.103;000.130;38;000.695;MIDI 01
909.108;000.145;50;000.672;MIDI 01
909.257;000.126;44;000.594;MIDI 01
909.375;000.071;47;000.539;MIDI 01
909.110;000.395;98;000.789;MIDI 01
909.480;000.046;53;000.531;MIDI 01
909.112;000.468;86;000.797;MIDI 01
909.586;000.118;56;000.570;MIDI 01
909.672;000.074;59;000.586;MIDI 01
909.786;000.090;65;000.625;MIDI 01
909.896;000.100;59;000.594;MIDI 01
910.006;000.033;56;000.602;MIDI 01
910.092;000.073;59;000.594;MIDI 01
910.089;000.084;71;000.641;MIDI 01
910.123;000.055;53;000.438;MIDI 01
910.130;000.076;52;000.422;MIDI 01
910.282;000.085;44;000.594;MIDI 01
910.197;000.214;47;000.594;MIDI 01
910.354;000.075;62;000.680;MIDI 01
910.357;000.094;74;000.703;MIDI 01
910.378;000.107;37;000.547;MIDI 01
910.485;000.101;44;000.602;MIDI 01
910.565;000.084;47;000.594;MIDI 01
910.624;000.056;65;000.703;MIDI 01
910.622;000.079;77;000.734;MIDI 01
910.669;000.080;53;000.555;MIDI 01
910.804;000.103;56;000.609;MIDI 01
910.907;000.079;59;000.609;MIDI 01
911.046;000.103;65;000.555;MIDI 01
911.018;000.242;82;000.719;MIDI 01
911.016;000.270;70;000.711;MIDI 01
911.184;000.103;59;000.531;MIDI 01
911.301;000.049;56;000.570;MIDI 01
911.424;000.113;53;000.562;MIDI 01
911.517;000.073;80;000.633;MIDI 01
911.515;000.114;68;000.656;MIDI 01
911.536;000.145;47;000.609;MIDI 01
911.667;000.152;44;000.656;MIDI 01
911.785;000.164;42;000.656;MIDI 01
911.797;000.190;66;000.617;MIDI 01
911.790;000.199;78;000.680;MIDI 01
911.802;000.257;73;000.547;MIDI 01
911.792;000.270;70;000.625;MIDI 01
912.177;000.096;66;000.594;MIDI 01
912.176;000.102;78;000.609;MIDI 01
912.193;000.118;70;000.586;MIDI 01
912.199;000.127;73;000.555;MIDI 01
912.426;000.049;66;000.609;MIDI 01
912.430;000.072;63;000.641;MIDI 01
912.424;000.099;78;000.641;MIDI 01
912.433;000.094;70;000.602;MIDI 01
912.445;000.084;51;000.602;MIDI 01
912.444;000.099;73;000.516;MIDI 01
912.700;000.060;61;000.695;MIDI 01
912.704;000.062;82;000.617;MIDI 01
912.710;000.058;49;000.641;MIDI 01
912.699;000.074;70;000.617;MIDI 01
912.703;000.098;73;000.594;MIDI 01
912.706;000.113;78;000.578;MIDI 01
912.948;000.048;70;000.594;MIDI 01
912.952;000.051;82;000.547;MIDI 01
912.936;000.069;58;000.680;MIDI 01
912.949;000.067;46;000.625;MIDI 01
912.956;000.066;73;000.578;MIDI 01
912.966;000.061;78;000.539;MIDI 01
913.141;000.033;70;000.531;MIDI 01
913.140;000.041;73;000.562;MIDI 01
913.136;000.047;56;000.664;MIDI 01
913.145;000.052;44;000.609;MIDI 01
913.150;000.050;78;000.523;MIDI 01
913.133;000.092;82;000.641;MIDI 01
913.322;000.035;54;000.648;MIDI 01
913.325;000.039;85;000.617;MIDI 01
913.315;000.050;73;000.672;MIDI 01
913.324;000.047;42;000.641;MIDI 01
913.336;000.040;78;000.516;MIDI 01
913.330;000.056;82;000.531;MIDI 01
913.485;000.043;73;000.664;MIDI 01
913.490;000.045;39;000.617;MIDI 01
913.474;000.064;51;000.695;MIDI 01
913.492;000.047;78;000.539;MIDI 01
913.481;000.068;85;000.648;MIDI 01
913.496;000.054;82;000.570;MIDI 01
913.643;000.022;73;000.664;MIDI 01
913.646;000.030;78;000.648;MIDI 01
913.649;000.048;37;000.672;MIDI 01
913.639;000.060;49;000.711;MIDI 01
913.641;000.060;85;000.727;MIDI 01
913.648;000.074;82;000.641;MIDI 01
913.743;000.034;73;000.289;MIDI 01
913.837;000.002;87;000.484;MIDI 01
913.819;000.041;90;000.773;MIDI 01
913.806;000.056;46;000.789;MIDI 01
913.821;000.046;34;000.680;MIDI 01
913.810;000.061;78;000.102;MIDI 01
913.829;000.045;82;000.578;MIDI 01
913.825;000.073;85;000.609;MIDI 01
913.999;000.028;46;000.633;MIDI 01
914.001;000.039;34;000.586;MIDI 01
913.987;000.055;90;000.742;MIDI 01
913.985;000.060;44;000.727;MIDI 01
913.983;000.065;78;000.750;MIDI 01
914.003;000.057;32;000.609;MIDI 01
913.990;000.082;82;000.633;MIDI 01
913.998;000.081;85;000.609;MIDI 01
914.178;000.028;32;000.586;MIDI 01
914.163;000.054;78;000.719;MIDI 01
914.167;000.054;82;000.648;MIDI 01
914.173;000.066;85;000.641;MIDI 01
914.165;000.082;90;000.836;MIDI 01
914.159;000.107;42;000.773;MIDI 01
914.170;000.120;30;000.719;MIDI 01
914.408;000.075;33;000.102;MIDI 01
914.493;000.044;31;000.469;MIDI 01
914.526;000.038;90;000.320;MIDI 01
914.467;000.117;28;000.742;MIDI 01
914.469;000.129;40;000.734;MIDI 01
914.769;000.033;31;000.594;MIDI 01
914.763;000.046;43;000.664;MIDI 01
914.479;000.410;91;000.758;MIDI 01
914.834;000.068;33;000.164;MIDI 01
914.931;000.043;35;000.664;MIDI 01
914.925;000.051;47;000.750;MIDI 01
914.481;000.539;95;000.781;MIDI 01
914.475;000.550;86;000.562;MIDI 01
914.483;000.626;83;000.758;MIDI 01
915.104;000.024;50;000.578;MIDI 01
915.102;000.031;40;000.617;MIDI 01
915.092;000.053;52;000.742;MIDI 01
915.124;000.034;38;000.461;MIDI 01
915.242;000.036;40;000.117;MIDI 01
915.251;000.045;55;000.766;MIDI 01
915.260;000.086;43;000.703;MIDI 01
915.566;000.030;33;000.680;MIDI 01
915.603;000.002;35;000.398;MIDI 01
915.552;000.055;45;000.758;MIDI 01
915.748;000.040;49;000.750;MIDI 01
915.754;000.035;37;000.602;MIDI 01
915.561;000.330;93;000.781;MIDI 01
915.568;000.335;81;000.727;MIDI 01
915.572;000.336;90;000.734;MIDI 01
915.901;000.031;40;000.633;MIDI 01
915.888;000.055;52;000.734;MIDI 01
915.564;000.431;85;000.750;MIDI 01
916.054;000.028;45;000.695;MIDI 01
916.047;000.045;57;000.781;MIDI 01
916.194;000.070;61;000.820;MIDI 01
916.197;000.073;49;000.711;MIDI 01
916.235;000.040;51;000.375;MIDI 01
916.390;000.081;88;000.719;MIDI 01
916.384;000.091;91;000.727;MIDI 01
916.388;000.101;79;000.727;MIDI 01
916.623;000.090;62;000.695;MIDI 01
916.634;000.112;78;000.641;MIDI 01
916.633;000.121;90;000.711;MIDI 01
916.631;000.144;86;000.633;MIDI 01
916.629;000.150;50;000.648;MIDI 01
916.869;000.066;78;000.664;MIDI 01
916.873;000.072;90;000.656;MIDI 01
916.864;000.101;86;000.633;MIDI 01
916.949;000.059;50;000.711;MIDI 01
916.956;000.055;38;000.672;MIDI 01
917.051;000.042;90;000.672;MIDI 01
917.047;000.067;86;000.594;MIDI 01
917.049;000.071;78;000.695;MIDI 01
917.208;000.044;37;000.648;MIDI 01
917.202;000.069;49;000.773;MIDI 01
917.265;000.017;88;000.633;MIDI 01
917.251;000.050;78;000.625;MIDI 01
917.247;000.072;74;000.641;MIDI 01
917.288;000.033;76;000.336;MIDI 01
917.249;000.074;86;000.641;MIDI 01
917.443;000.040;74;000.633;MIDI 01
917.434;000.059;78;000.641;MIDI 01
917.440;000.068;86;000.648;MIDI 01
917.526;000.026;51;000.586;MIDI 01
917.499;000.074;61;000.766;MIDI 01
917.514;000.069;49;000.602;MIDI 01
917.599;000.035;74;000.617;MIDI 01
917.601;000.049;78;000.695;MIDI 01
917.597;000.073;86;000.703;MIDI 01
917.751;000.061;59;000.719;MIDI 01
917.807;000.043;48;000.352;MIDI 01
917.783;000.070;78;000.648;MIDI 01
917.758;000.099;47;000.656;MIDI 01
917.788;000.086;86;000.641;MIDI 01
917.779;000.099;90;000.727;MIDI 01
917.966;000.062;78;000.703;MIDI 01
917.964;000.075;90;000.680;MIDI 01
917.974;000.071;86;000.609;MIDI 01
918.036;000.053;47;000.734;MIDI 01
918.043;000.062;35;000.695;MIDI 01
918.103;000.002;36;000.164;MIDI 01
918.133;000.061;78;000.719;MIDI 01
918.139;000.069;86;000.664;MIDI 01
918.135;000.095;90;000.703;MIDI 01
918.277;000.066;33;000.727;MIDI 01
918.273;000.103;45;000.773;MIDI 01
918.319;000.071;85;000.711;MIDI 01
918.317;000.075;81;000.688;MIDI 01
918.314;000.081;93;000.773;MIDI 01
918.328;000.086;90;000.695;MIDI 01
918.504;000.071;81;000.680;MIDI 01
918.500;000.077;93;000.750;MIDI 01
918.502;000.089;85;000.711;MIDI 01
918.513;000.081;90;000.602;MIDI 01
918.602;000.050;57;000.734;MIDI 01
918.606;000.068;45;000.734;MIDI 01
918.696;000.098;81;000.680;MIDI 01
918.692;000.120;85;000.656;MIDI 01
918.694;000.125;93;000.727;MIDI 01
918.704;000.141;90;000.641;MIDI 01
918.979;000.002;51;000.242;MIDI 01
918.956;000.084;46;000.422;MIDI 01
918.942;000.110;83;000.648;MIDI 01
918.938;000.119;95;000.773;MIDI 01
918.939;000.141;86;000.664;MIDI 01
918.944;000.149;90;000.680;MIDI 01
918.922;000.189;56;000.836;MIDI 01
919.114;000.046;46;000.023;MIDI 01
918.928;000.253;44;000.734;MIDI 01
919.185;000.076;83;000.680;MIDI 01
919.181;000.083;95;000.695;MIDI 01
919.191;000.092;86;000.633;MIDI 01
919.189;000.105;90;000.625;MIDI 01
919.373;000.076;95;000.742;MIDI 01
919.371;000.083;83;000.656;MIDI 01
919.375;000.099;86;000.602;MIDI 01
919.376;000.109;90;000.648;MIDI 01
919.552;000.076;95;000.781;MIDI 01
919.549;000.089;83;000.719;MIDI 01
919.554;000.107;86;000.617;MIDI 01
919.557;000.115;90;000.594;MIDI 01
919.499;000.209;32;000.680;MIDI 01
919.490;000.258;44;000.734;MIDI 01
919.794;000.002;87;000.305;MIDI 01
919.746;000.073;95;000.781;MIDI 01
919.744;000.082;83;000.703;MIDI 01
919.748;000.100;86;000.594;MIDI 01
919.751;000.102;90;000.641;MIDI 01
919.922;000.073;95;000.750;MIDI 01
919.920;000.094;83;000.688;MIDI 01
919.915;000.121;86;000.641;MIDI 01
919.924;000.121;90;000.633;MIDI 01
920.111;000.048;34;000.328;MIDI 01
920.061;000.105;31;000.680;MIDI 01
920.114;000.084;95;000.719;MIDI 01
920.065;000.136;43;000.844;MIDI 01
920.118;000.093;83;000.695;MIDI 01
920.109;000.128;86;000.641;MIDI 01
920.120;000.120;89;000.641;MIDI 01
920.321;000.082;95;000.742;MIDI 01
920.319;000.092;83;000.703;MIDI 01
920.317;000.115;89;000.641;MIDI 01
920.311;000.122;86;000.656;MIDI 01
920.516;000.086;95;000.781;MIDI 01
920.518;000.105;83;000.672;MIDI 01
920.521;000.115;89;000.633;MIDI 01
920.511;000.135;86;000.656;MIDI 01
920.681;000.049;55;000.805;MIDI 01
920.685;000.104;43;000.711;MIDI 01
920.730;000.108;83;000.734;MIDI 01
920.728;000.118;95;000.797;MIDI 01
920.726;000.141;86;000.680;MIDI 01
920.737;000.131;89;000.680;MIDI 01
920.955;000.117;95;000.781;MIDI 01
920.957;000.117;83;000.742;MIDI 01
920.950;000.161;86;000.672;MIDI 01
920.959;000.156;89;000.641;MIDI 01
921.201;000.066;83;000.773;MIDI 01
921.197;000.081;86;000.719;MIDI 01
921.205;000.085;89;000.656;MIDI 01
921.199;000.107;95;000.797;MIDI 01
921.546;000.108;30;000.781;MIDI 01
921.614;000.056;33;000.188;MIDI 01
921.544;000.141;42;000.844;MIDI 01
921.561;000.141;87;000.742;MIDI 01
921.556;000.211;95;000.781;MIDI 01
921.784;000.148;99;000.633;MIDI 01
921.958;000.057;96;000.461;MIDI 01
921.954;000.069;87;000.602;MIDI 01
921.956;000.069;95;000.570;MIDI 01
922.083;000.104;99;000.609;MIDI 01
922.182;000.062;87;000.594;MIDI 01
922.170;000.118;95;000.594;MIDI 01
922.263;000.027;69;000.688;MIDI 01
922.274;000.026;57;000.602;MIDI 01
922.286;000.114;99;000.641;MIDI 01
922.361;000.041;69;000.797;MIDI 01
922.357;000.064;57;000.750;MIDI 01
922.379;000.077;87;000.711;MIDI 01
922.374;000.131;95;000.664;MIDI 01
922.516;000.082;99;000.633;MIDI 01
922.645;000.040;87;000.555;MIDI 01
922.643;000.090;95;000.523;MIDI 01
922.732;000.064;99;000.625;MIDI 01
922.831;000.036;87;000.555;MIDI 01
922.824;000.070;95;000.500;MIDI 01
922.921;000.044;99;000.609;MIDI 01
923.005;000.029;87;000.508;MIDI 01
922.998;000.056;95;000.547;MIDI 01
923.074;000.048;99;000.578;MIDI 01
923.153;000.044;87;000.531;MIDI 01
923.143;000.068;95;000.523;MIDI 01
923.223;000.062;99;000.617;MIDI 01
923.322;000.034;87;000.547;MIDI 01
923.334;000.030;63;000.586;MIDI 01
923.351;000.033;51;000.445;MIDI 01
923.304;000.082;95;000.438;MIDI 01
923.377;000.089;99;000.617;MIDI 01
923.425;000.056;63;000.711;MIDI 01
923.438;000.072;51;000.617;MIDI 01
923.456;000.064;87;000.602;MIDI 01
923.543;000.070;99;000.602;MIDI 01
923.656;000.064;95;000.469;MIDI 01
923.685;000.037;87;000.281;MIDI 01
923.720;000.047;99;000.617;MIDI 01
923.741;000.029;57;000.578;MIDI 01
923.767;000.041;45;000.391;MIDI 01
923.814;000.030;87;000.547;MIDI 01
923.799;000.083;95;000.516;MIDI 01
923.811;000.085;45;000.328;MIDI 01
923.870;000.096;99;000.672;MIDI 01
923.952;000.057;87;000.609;MIDI 01
923.960;000.099;95;000.531;MIDI 01
924.046;000.079;99;000.586;MIDI 01
924.117;000.030;51;000.633;MIDI 01
924.134;000.033;87;000.578;MIDI 01
924.143;000.041;39;000.445;MIDI 01
924.147;000.072;95;000.469;MIDI 01
924.207;000.060;51;000.727;MIDI 01
924.204;000.085;99;000.602;MIDI 01
924.216;000.086;39;000.602;MIDI 01
924.268;000.071;87;000.672;MIDI 01
924.296;000.096;95;000.438;MIDI 01
924.371;000.096;99;000.602;MIDI 01
924.459;000.035;87;000.633;MIDI 01
924.478;000.032;45;000.711;MIDI 01
924.491;000.035;33;000.602;MIDI 01
924.476;000.073;95;000.484;MIDI 01
924.538;000.072;99;000.570;MIDI 01
924.579;000.059;45;000.766;MIDI 01
924.602;000.061;87;000.695;MIDI 01
924.594;000.075;33;000.758;MIDI 01
924.621;000.086;95;000.531;MIDI 01
924.707;000.064;99;000.609;MIDI 01
924.777;000.028;87;000.641;MIDI 01
924.791;000.071;95;000.516;MIDI 01
924.849;000.101;99;000.531;MIDI 01
924.925;000.057;87;000.609;MIDI 01
924.950;000.048;95;000.539;MIDI 01
925.017;000.101;99;000.641;MIDI 01
925.051;000.073;42;000.734;MIDI 01
925.081;000.056;87;000.742;MIDI 01
925.053;000.091;38;000.656;MIDI 01
925.059;000.092;33;000.641;MIDI 01
925.055;000.108;30;000.703;MIDI 01
925.091;000.075;95;000.664;MIDI 01
925.179;000.107;99;000.586;MIDI 01
925.259;000.058;87;000.742;MIDI 01
925.264;000.095;95;000.703;MIDI 01
925.353;000.103;99;000.625;MIDI 01
925.442;000.088;87;000.711;MIDI 01
925.439;000.119;95;000.641;MIDI 01
925.541;000.097;99;000.664;MIDI 01
925.689;000.024;97;000.516;MIDI 01
925.696;000.019;89;000.602;MIDI 01
925.671;000.046;28;000.727;MIDI 01
925.667;000.085;31;000.688;MIDI 01
925.665;000.091;40;000.773;MIDI 01
925.704;000.053;99;000.461;MIDI 01
925.711;000.053;33;000.312;MIDI 01
925.669;000.104;36;000.719;MIDI 01
925.679;000.135;88;000.727;MIDI 01
925.672;000.182;96;000.773;MIDI 01
925.847;000.132;100;000.672;MIDI 01
925.996;000.079;88;000.594;MIDI 01
925.989;000.129;96;000.625;MIDI 01
926.107;000.120;100;000.703;MIDI 01
926.218;000.071;88;000.617;MIDI 01
926.263;000.028;70;000.695;MIDI 01
926.281;000.024;58;000.516;MIDI 01
926.216;000.111;96;000.609;MIDI 01
926.364;000.052;70;000.742;MIDI 01
926.323;000.096;100;000.672;MIDI 01
926.375;000.056;58;000.758;MIDI 01
926.399;000.079;88;000.688;MIDI 01
926.404;000.106;96;000.609;MIDI 01
926.527;000.074;100;000.617;MIDI 01
926.623;000.042;88;000.578;MIDI 01
926.633;000.056;96;000.586;MIDI 01
926.717;000.074;100;000.648;MIDI 01
926.804;000.034;88;000.578;MIDI 01
926.802;000.076;96;000.648;MIDI 01
926.905;000.070;100;000.594;MIDI 01
926.968;000.039;88;000.609;MIDI 01
926.975;000.072;96;000.633;MIDI 01
927.126;000.047;88;000.625;MIDI 01
927.074;000.138;100;000.531;MIDI 01
927.138;000.093;96;000.609;MIDI 01
927.229;000.038;100;000.438;MIDI 01
927.297;000.034;64;000.625;MIDI 01
927.302;000.033;88;000.594;MIDI 01
927.308;000.033;52;000.586;MIDI 01
927.305;000.089;96;000.508;MIDI 01
927.398;000.045;64;000.703;MIDI 01
927.407;000.067;52;000.680;MIDI 01
927.384;000.092;100;000.648;MIDI 01
927.453;000.068;88;000.625;MIDI 01
927.466;000.104;96;000.531;MIDI 01
927.570;000.096;100;000.609;MIDI 01
927.655;000.046;88;000.602;MIDI 01
927.699;000.029;58;000.641;MIDI 01
927.717;000.027;46;000.523;MIDI 01
927.666;000.086;96;000.578;MIDI 01
927.743;000.087;100;000.578;MIDI 01
927.795;000.066;58;000.672;MIDI 01
927.807;000.070;46;000.703;MIDI 01
927.814;000.066;88;000.672;MIDI 01
927.828;000.099;96;000.562;MIDI 01
927.924;000.101;100;000.609;MIDI 01
928.011;000.052;88;000.609;MIDI 01
928.056;000.030;52;000.664;MIDI 01
928.078;000.030;40;000.492;MIDI 01
928.024;000.087;96;000.594;MIDI 01
928.095;000.095;100;000.578;MIDI 01
928.146;000.060;52;000.758;MIDI 01
928.152;000.077;40;000.648;MIDI 01
928.169;000.069;88;000.695;MIDI 01
928.183;000.104;96;000.570;MIDI 01
928.286;000.090;100;000.602;MIDI 01
928.373;000.052;88;000.633;MIDI 01
928.425;000.030;46;000.664;MIDI 01
928.384;000.084;96;000.578;MIDI 01
928.473;000.050;34;000.281;MIDI 01
928.474;000.061;100;000.562;MIDI 01
928.523;000.059;46;000.812;MIDI 01
928.530;000.066;88;000.742;MIDI 01
928.527;000.082;34;000.508;MIDI 01
928.535;000.115;96;000.633;MIDI 01
928.703;000.002;98;000.133;MIDI 01
928.642;000.098;100;000.555;MIDI 01
928.721;000.056;88;000.695;MIDI 01
928.730;000.095;96;000.602;MIDI 01
928.815;000.107;100;000.633;MIDI 01
928.903;000.058;88;000.680;MIDI 01
928.905;000.094;96;000.648;MIDI 01
928.999;000.112;100;000.578;MIDI 01
929.071;000.050;28;000.656;MIDI 01
929.066;000.057;40;000.719;MIDI 01
929.080;000.073;88;000.766;MIDI 01
929.064;000.093;36;000.703;MIDI 01
929.068;000.106;31;000.664;MIDI 01
929.082;000.116;96;000.734;MIDI 01
929.203;000.106;100;000.633;MIDI 01
929.285;000.074;88;000.727;MIDI 01
929.288;000.124;96;000.719;MIDI 01
929.403;000.119;100;000.695;MIDI 01
929.506;000.094;88;000.695;MIDI 01
929.508;000.125;96;000.734;MIDI 01
929.618;000.141;100;000.758;MIDI 01
929.895;000.028;26;000.695;MIDI 01
929.899;000.041;29;000.641;MIDI 01
929.915;000.036;34;000.523;MIDI 01
929.902;000.054;101;000.828;MIDI 01
929.886;000.083;38;000.789;MIDI 01
929.896;000.079;32;000.664;MIDI 01
929.893;000.084;35;000.664;MIDI 01
929.898;000.080;89;000.805;MIDI 01
929.890;000.106;95;000.586;MIDI 01
929.883;000.138;92;000.383;MIDI 01
930.442;000.035;74;000.672;MIDI 01
930.449;000.029;86;000.625;MIDI 01
930.434;000.055;62;000.656;MIDI 01
930.532;000.064;86;000.742;MIDI 01
930.536;000.066;62;000.672;MIDI 01
930.543;000.073;74;000.781;MIDI 01
930.857;000.032;68;000.617;MIDI 01
930.870;000.021;80;000.547;MIDI 01
930.862;000.032;56;000.602;MIDI 01
930.946;000.070;56;000.781;MIDI 01
930.959;000.057;80;000.758;MIDI 01
930.944;000.092;68;000.680;MIDI 01
931.022;000.053;49;000.023;MIDI 01
931.235;000.027;74;000.617;MIDI 01
931.230;000.034;62;000.555;MIDI 01
931.227;000.056;50;000.594;MIDI 01
931.317;000.048;74;000.719;MIDI 01
931.322;000.053;62;000.773;MIDI 01
931.610;000.028;56;000.625;MIDI 01
931.611;000.030;68;000.609;MIDI 01
931.614;000.045;44;000.430;MIDI 01
931.675;000.073;44;000.617;MIDI 01
931.744;000.031;66;000.344;MIDI 01
931.703;000.083;68;000.672;MIDI 01
931.690;000.099;56;000.742;MIDI 01
932.007;000.028;50;000.633;MIDI 01
932.026;000.024;62;000.625;MIDI 01
932.023;000.032;38;000.547;MIDI 01
932.099;000.054;50;000.719;MIDI 01
932.105;000.053;62;000.734;MIDI 01
932.115;000.060;38;000.758;MIDI 01
932.553;000.028;44;000.656;MIDI 01
932.555;000.030;56;000.719;MIDI 01
932.585;000.034;32;000.367;MIDI 01
932.647;000.074;56;000.672;MIDI 01
932.658;000.082;32;000.656;MIDI 01
932.650;000.127;44;000.773;MIDI 01
933.176;000.132;56;000.578;MIDI 01
933.231;000.152;62;000.625;MIDI 01
933.358;000.054;71;000.758;MIDI 01
933.296;000.125;65;000.586;MIDI 01
933.442;000.002;90;000.188;MIDI 01
933.388;000.532;89;000.703;MIDI 01
933.381;000.593;86;000.766;MIDI 01
933.377;000.655;95;000.797;MIDI 01
933.383;000.679;83;000.797;MIDI 01
934.482;000.148;56;000.422;MIDI 01
934.491;000.142;65;000.398;MIDI 01
934.498;000.160;62;000.430;MIDI 01
934.508;000.168;86;000.492;MIDI 01
934.503;000.175;89;000.508;MIDI 01
934.496;000.213;95;000.578;MIDI 01
934.510;000.229;83;000.469;MIDI 01
934.862;000.098;63;000.539;MIDI 01
934.851;000.121;57;000.539;MIDI 01
934.858;000.116;66;000.523;MIDI 01
934.871;000.126;90;000.625;MIDI 01
934.865;000.145;87;000.648;MIDI 01
934.878;000.140;83;000.578;MIDI 01
934.860;000.159;95;000.633;MIDI 01
935.133;000.099;67;000.578;MIDI 01
935.129;000.109;58;000.547;MIDI 01
935.131;000.109;64;000.555;MIDI 01
935.138;000.120;91;000.648;MIDI 01
935.143;000.121;88;000.633;MIDI 01
935.150;000.120;83;000.633;MIDI 01
935.141;000.143;95;000.703;MIDI 01
935.364;000.116;89;000.656;MIDI 01
935.361;000.120;65;000.555;MIDI 01
935.372;000.118;59;000.578;MIDI 01
935.378;000.124;83;000.625;MIDI 01
935.368;000.142;68;000.609;MIDI 01
935.374;000.139;92;000.695;MIDI 01
935.370;000.146;95;000.664;MIDI 01
935.603;000.070;69;000.625;MIDI 01
935.616;000.092;66;000.539;MIDI 01
935.605;000.103;60;000.578;MIDI 01
935.620;000.091;95;000.586;MIDI 01
935.618;000.101;90;000.641;MIDI 01
935.628;000.100;83;000.586;MIDI 01
935.614;000.119;93;000.641;MIDI 01
935.818;000.076;68;000.578;MIDI 01
935.872;000.029;90;000.406;MIDI 01
935.823;000.080;59;000.586;MIDI 01
935.829;000.078;65;000.539;MIDI 01
935.835;000.085;95;000.672;MIDI 01
935.845;000.078;83;000.539;MIDI 01
935.833;000.093;92;000.625;MIDI 01
935.841;000.098;89;000.516;MIDI 01
936.015;000.079;67;000.625;MIDI 01
936.020;000.077;58;000.586;MIDI 01
936.027;000.072;89;000.508;MIDI 01
936.062;000.040;88;000.289;MIDI 01
936.013;000.091;64;000.625;MIDI 01
936.032;000.078;91;000.586;MIDI 01
936.022;000.100;95;000.680;MIDI 01
936.029;000.097;83;000.594;MIDI 01
936.284;000.002;93;000.148;MIDI 01
936.207;000.095;66;000.625;MIDI 01
936.226;000.089;90;000.648;MIDI 01
936.210;000.106;57;000.602;MIDI 01
936.224;000.096;63;000.594;MIDI 01
936.218;000.105;87;000.656;MIDI 01
936.222;000.107;83;000.602;MIDI 01
936.220;000.114;95;000.688;MIDI 01
936.449;000.022;93;000.469;MIDI 01
936.424;000.070;65;000.617;MIDI 01
936.420;000.084;56;000.625;MIDI 01
936.414;000.095;62;000.633;MIDI 01
936.418;000.093;86;000.656;MIDI 01
936.426;000.096;95;000.656;MIDI 01
936.422;000.102;89;000.664;MIDI 01
936.430;000.096;83;000.602;MIDI 01
936.612;000.101;57;000.648;MIDI 01
936.615;000.110;87;000.711;MIDI 01
936.617;000.110;63;000.641;MIDI 01
936.609;000.120;95;000.719;MIDI 01
936.621;000.110;90;000.695;MIDI 01
936.611;000.122;66;000.664;MIDI 01
936.619;000.119;83;000.633;MIDI 01
936.822;000.097;67;000.648;MIDI 01
936.811;000.112;91;000.711;MIDI 01
936.814;000.116;58;000.680;MIDI 01
936.820;000.126;64;000.633;MIDI 01
936.818;000.130;88;000.656;MIDI 01
936.816;000.135;83;000.586;MIDI 01
936.809;000.151;95;000.688;MIDI 01
937.049;000.119;59;000.633;MIDI 01
937.047;000.123;89;000.719;MIDI 01
937.041;000.131;65;000.648;MIDI 01
937.043;000.131;92;000.727;MIDI 01
937.036;000.140;68;000.695;MIDI 01
937.045;000.143;83;000.672;MIDI 01
937.039;000.157;95;000.711;MIDI 01
937.315;000.032;59;000.523;MIDI 01
937.285;000.072;69;000.672;MIDI 01
937.301;000.080;60;000.477;MIDI 01
937.305;000.078;95;000.594;MIDI 01
937.297;000.095;66;000.609;MIDI 01
937.303;000.096;83;000.602;MIDI 01
937.288;000.117;93;000.695;MIDI 01
937.299;000.111;90;000.680;MIDI 01
937.496;000.082;65;000.641;MIDI 01
937.491;000.093;68;000.680;MIDI 01
937.489;000.097;59;000.539;MIDI 01
937.502;000.092;95;000.773;MIDI 01
937.508;000.089;83;000.680;MIDI 01
937.506;000.093;91;000.703;MIDI 01
937.498;000.123;89;000.773;MIDI 01
937.727;000.024;88;000.492;MIDI 01
937.699;000.060;64;000.617;MIDI 01
937.710;000.057;89;000.586;MIDI 01
937.685;000.085;67;000.703;MIDI 01
937.705;000.085;91;000.727;MIDI 01
937.707;000.105;83;000.688;MIDI 01
937.695;000.120;58;000.680;MIDI 01
937.703;000.128;95;000.750;MIDI 01
937.997;000.085;95;000.781;MIDI 01
938.005;000.083;83;000.742;MIDI 01
938.001;000.104;87;000.789;MIDI 01
938.003;000.105;90;000.773;MIDI 01
937.995;000.116;57;000.656;MIDI 01
937.993;000.124;66;000.750;MIDI 01
937.999;000.148;63;000.633;MIDI 01
938.480;000.116;56;000.531;MIDI 01
938.530;000.108;62;000.594;MIDI 01
938.584;000.072;65;000.547;MIDI 01
938.638;000.051;71;000.766;MIDI 01
938.640;000.077;95;000.789;MIDI 01
938.647;000.086;83;000.781;MIDI 01
938.643;000.111;86;000.773;MIDI 01
938.645;000.118;89;000.773;MIDI 01
940.106;000.086;44;000.727;MIDI 01
940.104;000.111;83;000.664;MIDI 01
940.098;000.130;89;000.672;MIDI 01
940.102;000.148;95;000.719;MIDI 01
940.119;000.170;32;000.656;MIDI 01
940.096;000.194;86;000.680;MIDI 01
940.494;000.042;33;000.695;MIDI 01
940.491;000.079;45;000.797;MIDI 01
940.510;000.076;95;000.766;MIDI 01
940.506;000.105;83;000.758;MIDI 01
940.502;000.140;90;000.727;MIDI 01
940.508;000.217;86;000.742;MIDI 01
940.993;000.081;70;000.781;MIDI 01
941.005;000.098;62;000.578;MIDI 01
941.008;000.098;66;000.602;MIDI 01
941.038;000.097;82;000.609;MIDI 01
941.032;000.169;86;000.617;MIDI 01
941.191;000.126;94;000.594;MIDI 01
941.346;000.089;82;000.500;MIDI 01
941.350;000.111;86;000.523;MIDI 01
941.455;000.113;94;000.578;MIDI 01
941.572;000.092;69;000.695;MIDI 01
941.599;000.077;81;000.617;MIDI 01
941.574;000.131;66;000.641;MIDI 01
941.582;000.132;62;000.602;MIDI 01
941.597;000.122;86;000.562;MIDI 01
941.578;000.197;57;000.586;MIDI 01
941.719;000.071;93;000.594;MIDI 01
941.816;000.059;81;000.578;MIDI 01
941.827;000.086;86;000.445;MIDI 01
941.914;000.093;93;000.609;MIDI 01
942.049;000.041;80;000.586;MIDI 01
942.039;000.100;86;000.609;MIDI 01
942.147;000.102;92;000.641;MIDI 01
942.043;000.243;57;000.578;MIDI 01
942.041;000.246;62;000.625;MIDI 01
942.035;000.253;68;000.680;MIDI 01
942.249;000.064;80;000.516;MIDI 01
942.256;000.077;86;000.484;MIDI 01
942.344;000.071;92;000.609;MIDI 01
942.466;000.033;79;000.477;MIDI 01
942.440;000.067;62;000.617;MIDI 01
942.446;000.062;67;000.570;MIDI 01
942.442;000.069;86;000.461;MIDI 01
942.444;000.074;57;000.617;MIDI 01
942.529;000.069;91;000.594;MIDI 01
942.656;000.034;58;000.305;MIDI 01
942.630;000.065;79;000.523;MIDI 01
942.654;000.047;55;000.531;MIDI 01
942.638;000.075;67;000.664;MIDI 01
942.642;000.081;85;000.562;MIDI 01
942.661;000.086;57;000.555;MIDI 01
942.658;000.092;61;000.602;MIDI 01
942.763;000.054;89;000.422;MIDI 01
942.730;000.104;91;000.641;MIDI 01
942.865;000.067;78;000.617;MIDI 01
942.858;000.101;85;000.570;MIDI 01
942.964;000.128;90;000.656;MIDI 01
943.092;000.059;78;000.531;MIDI 01
942.856;000.298;61;000.656;MIDI 01
942.854;000.317;55;000.570;MIDI 01
942.842;000.331;66;000.734;MIDI 01
943.098;000.093;85;000.539;MIDI 01
942.851;000.348;57;000.625;MIDI 01
943.177;000.115;90;000.594;MIDI 01
943.319;000.074;77;000.547;MIDI 01
943.307;000.120;85;000.570;MIDI 01
943.425;000.073;89;000.617;MIDI 01
943.312;000.201;65;000.656;MIDI 01
943.536;000.040;77;000.539;MIDI 01
943.317;000.263;55;000.633;MIDI 01
943.311;000.291;61;000.609;MIDI 01
943.535;000.090;85;000.531;MIDI 01
943.322;000.309;57;000.586;MIDI 01
943.612;000.065;89;000.648;MIDI 01
943.746;000.038;75;000.562;MIDI 01
943.731;000.102;85;000.555;MIDI 01
943.824;000.110;87;000.680;MIDI 01
943.752;000.278;55;000.555;MIDI 01
943.944;000.094;75;000.547;MIDI 01
943.750;000.297;61;000.625;MIDI 01
943.729;000.324;63;000.750;MIDI 01
943.947;000.115;85;000.508;MIDI 01
943.754;000.316;57;000.586;MIDI 01
944.022;000.100;87;000.617;MIDI 01
944.152;000.053;64;000.648;MIDI 01
944.140;000.078;76;000.688;MIDI 01
944.159;000.067;61;000.648;MIDI 01
944.209;000.025;57;000.375;MIDI 01
944.168;000.076;55;000.602;MIDI 01
944.142;000.118;85;000.586;MIDI 01
944.243;000.056;88;000.695;MIDI 01
944.392;000.002;87;000.578;MIDI 01
944.396;000.023;33;000.727;MIDI 01
944.388;000.049;45;000.758;MIDI 01
944.400;000.085;95;000.766;MIDI 01
944.402;000.098;83;000.719;MIDI 01
944.404;000.117;90;000.773;MIDI 01
944.398;000.144;86;000.742;MIDI 01
944.533;000.023;33;000.094;MIDI 01
944.665;000.041;68;000.312;MIDI 01
944.689;000.022;33;000.039;MIDI 01
944.792;000.069;70;000.695;MIDI 01
944.806;000.065;82;000.586;MIDI 01
944.812;000.078;66;000.562;MIDI 01
944.804;000.094;62;000.547;MIDI 01
944.815;000.099;86;000.586;MIDI 01
944.918;000.098;94;000.625;MIDI 01
945.016;000.084;82;000.555;MIDI 01
945.027;000.097;86;000.523;MIDI 01
945.122;000.093;94;000.602;MIDI 01
945.245;000.051;81;000.602;MIDI 01
945.237;000.097;86;000.539;MIDI 01
945.226;000.132;69;000.703;MIDI 01
945.228;000.166;66;000.656;MIDI 01
945.230;000.172;62;000.602;MIDI 01
945.331;000.079;93;000.625;MIDI 01
945.224;000.235;57;000.633;MIDI 01
945.431;000.058;81;000.594;MIDI 01
945.442;000.074;86;000.461;MIDI 01
945.565;000.032;91;000.398;MIDI 01
945.525;000.076;93;000.648;MIDI 01
945.646;000.034;80;000.594;MIDI 01
945.628;000.082;86;000.586;MIDI 01
945.722;000.102;92;000.672;MIDI 01
945.830;000.045;80;000.508;MIDI 01
945.644;000.246;62;000.625;MIDI 01
945.639;000.253;57;000.570;MIDI 01
945.638;000.258;68;000.695;MIDI 01
945.828;000.082;86;000.531;MIDI 01
945.906;000.085;92;000.609;MIDI 01
946.030;000.036;79;000.547;MIDI 01
946.023;000.067;67;000.617;MIDI 01
946.021;000.072;86;000.500;MIDI 01
946.025;000.072;57;000.633;MIDI 01
946.027;000.075;62;000.641;MIDI 01
946.097;000.074;91;000.641;MIDI 01
946.195;000.059;79;000.609;MIDI 01
946.212;000.060;85;000.602;MIDI 01
946.209;000.083;55;000.609;MIDI 01
946.205;000.096;67;000.695;MIDI 01
946.219;000.110;61;000.633;MIDI 01
946.216;000.120;57;000.617;MIDI 01
946.324;000.038;89;000.367;MIDI 01
946.278;000.085;91;000.648;MIDI 01
946.401;000.062;78;000.609;MIDI 01
946.388;000.119;85;000.602;MIDI 01
946.427;000.181;55;000.641;MIDI 01
946.494;000.127;90;000.711;MIDI 01
946.417;000.208;61;000.633;MIDI 01
946.406;000.224;66;000.734;MIDI 01
946.615;000.043;78;000.547;MIDI 01
946.415;000.248;57;000.594;MIDI 01
946.625;000.085;85;000.570;MIDI 01
946.697;000.117;90;000.617;MIDI 01
946.759;000.055;65;000.703;MIDI 01
946.767;000.073;61;000.695;MIDI 01
946.765;000.081;55;000.641;MIDI 01
946.783;000.065;57;000.578;MIDI 01
946.801;000.085;77;000.656;MIDI 01
946.794;000.139;85;000.656;MIDI 01
946.925;000.107;89;000.680;MIDI 01
947.013;000.022;34;000.711;MIDI 01
947.004;000.032;46;000.797;MIDI 01
947.015;000.078;77;000.695;MIDI 01
947.022;000.137;85;000.656;MIDI 01
947.153;000.026;34;000.148;MIDI 01
947.127;000.069;89;000.617;MIDI 01
947.273;000.052;75;000.602;MIDI 01
947.276;000.095;85;000.461;MIDI 01
947.365;000.131;87;000.680;MIDI 01
947.302;000.251;61;000.531;MIDI 01
947.308;000.249;55;000.617;MIDI 01
947.306;000.259;63;000.641;MIDI 01
947.485;000.098;75;000.625;MIDI 01
947.489;000.122;85;000.602;MIDI 01
947.583;000.124;87;000.648;MIDI 01
947.678;000.051;64;000.672;MIDI 01
947.688;000.065;61;000.703;MIDI 01
947.701;000.064;76;000.727;MIDI 01
947.686;000.084;55;000.656;MIDI 01
947.708;000.117;85;000.664;MIDI 01
947.815;000.025;87;000.477;MIDI 01
947.803;000.051;88;000.688;MIDI 01
948.019;000.036;35;000.688;MIDI 01
948.014;000.073;47;000.812;MIDI 01
948.036;000.107;85;000.719;MIDI 01
948.029;000.118;97;000.773;MIDI 01
948.024;000.132;88;000.625;MIDI 01
948.031;000.151;92;000.805;MIDI 01
948.411;000.068;72;000.648;MIDI 01
948.426;000.084;84;000.656;MIDI 01
948.414;000.100;64;000.602;MIDI 01
948.417;000.099;68;000.586;MIDI 01
948.430;000.123;88;000.602;MIDI 01
948.547;000.089;96;000.633;MIDI 01
948.647;000.069;84;000.633;MIDI 01
948.649;000.105;88;000.516;MIDI 01
948.760;000.020;96;000.578;MIDI 01
948.851;000.060;83;000.602;MIDI 01
948.835;000.107;88;000.562;MIDI 01
948.837;000.125;71;000.672;MIDI 01
948.842;000.148;68;000.594;MIDI 01
948.848;000.150;64;000.625;MIDI 01
948.943;000.064;95;000.641;MIDI 01
948.989;000.040;93;000.273;MIDI 01
948.841;000.196;59;000.617;MIDI 01
949.034;000.053;83;000.602;MIDI 01
949.036;000.094;88;000.477;MIDI 01
949.153;000.036;93;000.438;MIDI 01
949.116;000.091;95;000.680;MIDI 01
949.243;000.052;82;000.617;MIDI 01
949.230;000.104;88;000.594;MIDI 01
949.256;000.168;59;000.578;MIDI 01
949.249;000.177;70;000.703;MIDI 01
949.260;000.183;64;000.625;MIDI 01
949.327;000.124;94;000.688;MIDI 01
949.438;000.058;82;000.594;MIDI 01
949.440;000.093;88;000.531;MIDI 01
949.510;000.081;94;000.586;MIDI 01
949.590;000.076;69;000.664;MIDI 01
949.592;000.084;64;000.633;MIDI 01
949.590;000.090;59;000.625;MIDI 01
949.632;000.050;81;000.539;MIDI 01
949.600;000.104;88;000.523;MIDI 01
949.712;000.062;93;000.602;MIDI 01
949.802;000.069;81;000.656;MIDI 01
949.816;000.074;87;000.648;MIDI 01
949.818;000.077;57;000.562;MIDI 01
949.800;000.098;69;000.727;MIDI 01
949.820;000.103;63;000.617;MIDI 01
949.804;000.148;59;000.695;MIDI 01
949.894;000.095;93;000.680;MIDI 01
949.918;000.076;91;000.500;MIDI 01
950.015;000.061;80;000.617;MIDI 01
950.008;000.104;87;000.633;MIDI 01
950.033;000.166;57;000.570;MIDI 01
950.031;000.183;63;000.648;MIDI 01
950.018;000.199;68;000.719;MIDI 01
950.153;000.066;90;000.352;MIDI 01
950.111;000.117;92;000.719;MIDI 01
950.020;000.239;59;000.547;MIDI 01
950.223;000.050;80;000.625;MIDI 01
950.237;000.086;87;000.633;MIDI 01
950.357;000.056;67;000.664;MIDI 01
950.312;000.106;92;000.664;MIDI 01
950.368;000.074;63;000.656;MIDI 01
950.390;000.056;59;000.602;MIDI 01
950.370;000.078;57;000.562;MIDI 01
950.414;000.092;79;000.625;MIDI 01
950.405;000.150;87;000.648;MIDI 01
950.614;000.028;36;000.773;MIDI 01
950.532;000.111;91;000.711;MIDI 01
950.606;000.053;48;000.750;MIDI 01
950.641;000.081;79;000.719;MIDI 01
950.639;000.131;87;000.703;MIDI 01
950.767;000.016;36;000.023;MIDI 01
950.754;000.065;91;000.688;MIDI 01
950.900;000.028;36;000.227;MIDI 01
950.879;000.070;77;000.664;MIDI 01
950.881;000.155;87;000.633;MIDI 01
950.869;000.188;65;000.727;MIDI 01
950.981;000.088;89;000.703;MIDI 01
950.873;000.218;57;000.648;MIDI 01
950.872;000.229;63;000.672;MIDI 01
951.073;000.058;77;000.664;MIDI 01
951.068;000.127;87;000.500;MIDI 01
951.186;000.065;89;000.680;MIDI 01
951.245;000.055;66;000.711;MIDI 01
951.255;000.079;63;000.641;MIDI 01
951.275;000.069;78;000.703;MIDI 01
951.257;000.087;57;000.578;MIDI 01
951.279;000.111;87;000.617;MIDI 01
951.375;000.066;90;000.719;MIDI 01
951.556;000.030;37;000.734;MIDI 01
951.549;000.052;49;000.836;MIDI 01
951.593;000.026;97;000.477;MIDI 01
951.678;000.025;37;000.227;MIDI 01
951.570;000.135;94;000.680;MIDI 01
951.564;000.145;90;000.758;MIDI 01
951.566;000.149;99;000.781;MIDI 01
951.572;000.149;87;000.758;MIDI 01
951.909;000.060;86;000.656;MIDI 01
951.914;000.096;90;000.688;MIDI 01
951.971;000.055;68;000.117;MIDI 01
951.902;000.157;74;000.680;MIDI 01
952.030;000.066;98;000.641;MIDI 01
951.907;000.205;66;000.594;MIDI 01
951.911;000.239;70;000.641;MIDI 01
952.108;000.065;86;000.602;MIDI 01
952.124;000.073;90;000.586;MIDI 01
952.211;000.059;98;000.617;MIDI 01
952.271;000.045;95;000.227;MIDI 01
952.322;000.046;85;000.633;MIDI 01
952.314;000.071;90;000.641;MIDI 01
952.324;000.184;70;000.648;MIDI 01
952.410;000.107;97;000.641;MIDI 01
952.326;000.204;73;000.734;MIDI 01
952.328;000.229;61;000.648;MIDI 01
952.337;000.247;66;000.602;MIDI 01
952.502;000.084;85;000.602;MIDI 01
952.515;000.078;90;000.586;MIDI 01
952.593;000.098;97;000.578;MIDI 01
952.719;000.068;84;000.594;MIDI 01
952.721;000.071;90;000.609;MIDI 01
952.809;000.085;96;000.664;MIDI 01
952.708;000.210;72;000.672;MIDI 01
952.917;000.051;84;000.523;MIDI 01
952.703;000.267;61;000.688;MIDI 01
952.723;000.249;66;000.688;MIDI 01
952.919;000.060;90;000.594;MIDI 01
953.002;000.073;96;000.625;MIDI 01
953.105;000.039;63;000.320;MIDI 01
953.075;000.071;71;000.656;MIDI 01
953.083;000.066;61;000.625;MIDI 01
953.112;000.050;83;000.570;MIDI 01
953.078;000.095;66;000.664;MIDI 01
953.107;000.090;90;000.555;MIDI 01
953.195;000.070;95;000.625;MIDI 01
953.292;000.047;83;000.594;MIDI 01
953.280;000.095;71;000.719;MIDI 01
953.290;000.095;59;000.656;MIDI 01
953.288;000.107;89;000.625;MIDI 01
953.282;000.122;65;000.688;MIDI 01
953.285;000.124;61;000.664;MIDI 01
953.422;000.030;93;000.406;MIDI 01
953.379;000.075;95;000.672;MIDI 01
953.481;000.076;82;000.656;MIDI 01
953.459;000.132;89;000.531;MIDI 01
953.590;000.054;93;000.484;MIDI 01
953.476;000.192;70;000.734;MIDI 01
953.489;000.191;59;000.625;MIDI 01
953.580;000.108;94;000.703;MIDI 01
953.479;000.226;65;000.609;MIDI 01
953.478;000.267;61;000.570;MIDI 01
953.685;000.074;82;000.609;MIDI 01
953.675;000.096;89;000.570;MIDI 01
953.768;000.101;94;000.641;MIDI 01
953.833;000.056;69;000.680;MIDI 01
953.843;000.059;65;000.664;MIDI 01
953.845;000.084;59;000.641;MIDI 01
953.869;000.068;61;000.586;MIDI 01
953.922;000.033;88;000.336;MIDI 01
953.879;000.085;81;000.609;MIDI 01
953.864;000.126;89;000.609;MIDI 01
953.973;000.128;93;000.664;MIDI 01
954.094;000.031;38;000.758;MIDI 01
954.086;000.060;50;000.773;MIDI 01
954.100;000.115;81;000.727;MIDI 01
954.098;000.138;89;000.766;MIDI 01
954.220;000.090;93;000.688;MIDI 01
954.365;000.072;79;000.664;MIDI 01
954.355;000.145;89;000.570;MIDI 01
954.362;000.152;67;000.711;MIDI 01
954.358;000.210;59;000.680;MIDI 01
954.452;000.120;91;000.680;MIDI 01
954.367;000.243;65;000.656;MIDI 01
954.554;000.069;79;000.703;MIDI 01
954.549;000.128;89;000.531;MIDI 01
954.636;000.070;87;000.078;MIDI 01
954.664;000.067;91;000.703;MIDI 01
954.754;000.061;68;000.688;MIDI 01
954.770;000.067;65;000.633;MIDI 01
954.766;000.079;80;000.695;MIDI 01
954.768;000.096;59;000.578;MIDI 01
954.755;000.111;89;000.609;MIDI 01
954.858;000.054;92;000.789;MIDI 01
955.157;000.034;39;000.734;MIDI 01
955.152;000.048;51;000.773;MIDI 01
955.150;000.134;89;000.789;MIDI 01
955.143;000.159;92;000.727;MIDI 01
955.148;000.232;101;000.789;MIDI 01
955.154;000.381;96;000.742;MIDI 01
955.568;000.073;88;000.656;MIDI 01
955.609;000.033;70;000.383;MIDI 01
955.560;000.105;92;000.695;MIDI 01
955.562;000.145;76;000.688;MIDI 01
955.572;000.186;68;000.578;MIDI 01
955.691;000.073;100;000.664;MIDI 01
955.566;000.207;72;000.633;MIDI 01
955.781;000.060;88;000.578;MIDI 01
955.790;000.074;92;000.633;MIDI 01
955.879;000.069;100;000.680;MIDI 01
955.944;000.056;98;000.078;MIDI 01
955.985;000.055;87;000.672;MIDI 01
955.987;000.066;92;000.688;MIDI 01
955.980;000.098;75;000.656;MIDI 01
955.983;000.129;72;000.633;MIDI 01
955.992;000.176;68;000.586;MIDI 01
956.128;000.056;97;000.211;MIDI 01
956.084;000.102;99;000.625;MIDI 01
955.982;000.229;63;000.617;MIDI 01
956.178;000.067;87;000.633;MIDI 01
956.180;000.092;92;000.633;MIDI 01
956.267;000.070;99;000.609;MIDI 01
956.361;000.036;72;000.656;MIDI 01
956.367;000.077;68;000.617;MIDI 01
956.390;000.072;84;000.641;MIDI 01
956.365;000.100;63;000.625;MIDI 01
956.392;000.131;92;000.688;MIDI 01
956.516;000.060;96;000.648;MIDI 01
956.594;000.112;84;000.633;MIDI 01
956.712;000.022;96;000.539;MIDI 01
956.598;000.144;92;000.602;MIDI 01
956.815;000.085;51;000.531;MIDI 01
956.812;000.101;39;000.531;MIDI 01
956.928;000.051;84;000.453;MIDI 01
956.942;000.046;80;000.453;MIDI 01
956.932;000.057;87;000.484;MIDI 01
956.922;000.085;92;000.586;MIDI 01
957.020;000.090;39;000.570;MIDI 01
957.025;000.087;51;000.602;MIDI 01
957.120;000.042;92;000.578;MIDI 01
957.122;000.047;82;000.555;MIDI 01
957.107;000.070;80;000.586;MIDI 01
957.124;000.055;85;000.547;MIDI 01
957.155;000.045;90;000.227;MIDI 01
957.211;000.056;40;000.680;MIDI 01
957.208;000.061;52;000.703;MIDI 01
957.285;000.032;91;000.688;MIDI 01
957.310;000.024;81;000.484;MIDI 01
957.290;000.049;79;000.586;MIDI 01
957.315;000.028;83;000.375;MIDI 01
957.377;000.052;41;000.695;MIDI 01
957.370;000.061;53;000.719;MIDI 01
957.458;000.047;78;000.609;MIDI 01
957.466;000.042;85;000.422;MIDI 01
957.471;000.038;82;000.508;MIDI 01
957.451;000.068;90;000.711;MIDI 01
957.532;000.075;54;000.742;MIDI 01
957.538;000.078;42;000.656;MIDI 01
957.639;000.031;79;000.508;MIDI 01
957.630;000.043;77;000.562;MIDI 01
957.632;000.043;89;000.570;MIDI 01
957.626;000.051;85;000.516;MIDI 01
957.642;000.038;82;000.273;MIDI 01
957.689;000.057;83;000.047;MIDI 01
957.712;000.036;43;000.625;MIDI 01
957.708;000.057;55;000.695;MIDI 01
957.830;000.028;85;000.430;MIDI 01
957.824;000.036;76;000.539;MIDI 01
957.826;000.037;88;000.508;MIDI 01
957.837;000.030;89;000.430;MIDI 01
957.808;000.074;82;000.492;MIDI 01
957.913;000.055;63;000.680;MIDI 01
957.915;000.072;51;000.641;MIDI 01
958.004;000.065;75;000.641;MIDI 01
958.006;000.073;87;000.680;MIDI 01
958.069;000.064;64;000.750;MIDI 01
958.073;000.065;52;000.688;MIDI 01
958.164;000.059;76;000.680;MIDI 01
958.166;000.062;88;000.742;MIDI 01
958.244;000.055;63;000.742;MIDI 01
958.251;000.098;51;000.719;MIDI 01
958.358;000.002;75;000.461;MIDI 01
958.340;000.058;87;000.742;MIDI 01
958.414;000.051;88;000.172;MIDI 01
958.578;000.040;39;000.711;MIDI 01
958.616;000.002;49;000.367;MIDI 01
958.609;000.021;97;000.492;MIDI 01
958.572;000.060;51;000.781;MIDI 01
958.583;000.052;95;000.023;MIDI 01
958.628;000.023;99;000.398;MIDI 01
958.586;000.103;89;000.750;MIDI 01
958.591;000.121;92;000.773;MIDI 01
958.593;000.184;101;000.844;MIDI 01
958.600;000.252;96;000.641;MIDI 01
958.922;000.061;76;000.617;MIDI 01
958.940;000.060;88;000.664;MIDI 01
958.938;000.081;92;000.672;MIDI 01
958.920;000.109;72;000.609;MIDI 01
958.928;000.114;68;000.586;MIDI 01
959.065;000.062;100;000.617;MIDI 01
959.132;000.060;88;000.609;MIDI 01
959.144;000.052;92;000.617;MIDI 01
959.244;000.060;100;000.625;MIDI 01
959.328;000.066;75;000.672;MIDI 01
959.343;000.061;87;000.633;MIDI 01
959.336;000.081;92;000.695;MIDI 01
959.331;000.092;72;000.625;MIDI 01
959.341;000.125;68;000.547;MIDI 01
959.339;000.174;63;000.570;MIDI 01
959.446;000.089;99;000.641;MIDI 01
959.486;000.058;97;000.188;MIDI 01
959.545;000.048;87;000.594;MIDI 01
959.543;000.096;92;000.633;MIDI 01
959.628;000.060;99;000.617;MIDI 01
959.722;000.027;72;000.609;MIDI 01
959.727;000.069;68;000.641;MIDI 01
959.725;000.097;63;000.641;MIDI 01
959.755;000.075;84;000.633;MIDI 01
959.760;000.124;92;000.680;MIDI 01
959.874;000.072;96;000.656;MIDI 01
959.966;000.138;92;000.547;MIDI 01
960.055;000.051;96;000.625;MIDI 01
959.954;000.167;84;000.617;MIDI 01
960.163;000.098;51;000.578;MIDI 01
960.165;000.116;39;000.578;MIDI 01
960.301;000.036;80;000.484;MIDI 01
960.303;000.043;84;000.484;MIDI 01
960.307;000.056;87;000.469;MIDI 01
960.292;000.096;92;000.562;MIDI 01
960.386;000.092;51;000.625;MIDI 01
960.382;000.100;39;000.594;MIDI 01
960.491;000.041;80;000.508;MIDI 01
960.493;000.046;82;000.570;MIDI 01
960.500;000.051;85;000.523;MIDI 01
960.495;000.062;92;000.602;MIDI 01
960.596;000.055;40;000.680;MIDI 01
960.591;000.069;52;000.688;MIDI 01
960.664;000.038;91;000.648;MIDI 01
960.665;000.047;79;000.562;MIDI 01
960.669;000.044;85;000.539;MIDI 01
960.657;000.066;82;000.609;MIDI 01
960.795;000.032;40;000.508;MIDI 01
960.771;000.059;53;000.672;MIDI 01
960.778;000.056;41;000.602;MIDI 01
960.860;000.039;82;000.523;MIDI 01
960.868;000.039;85;000.406;MIDI 01
960.843;000.067;78;000.617;MIDI 01
960.845;000.067;90;000.656;MIDI 01
960.942;000.073;42;000.617;MIDI 01
960.935;000.081;54;000.664;MIDI 01
961.021;000.045;89;000.656;MIDI 01
961.023;000.055;77;000.562;MIDI 01
961.028;000.052;85;000.492;MIDI 01
961.013;000.074;82;000.547;MIDI 01
961.120;000.067;55;000.633;MIDI 01
961.124;000.079;43;000.641;MIDI 01
961.221;000.031;88;000.617;MIDI 01
961.223;000.035;76;000.555;MIDI 01
961.331;000.043;52;000.602;MIDI 01
961.337;000.051;40;000.578;MIDI 01
961.445;000.032;79;000.453;MIDI 01
961.438;000.047;91;000.570;MIDI 01
961.589;000.049;37;000.492;MIDI 01
961.580;000.064;49;000.539;MIDI 01
961.703;000.076;82;000.438;MIDI 01
961.705;000.081;94;000.453;MIDI 01
961.895;000.119;57;000.398;MIDI 01
961.891;000.251;45;000.438;MIDI 01
962.058;000.139;93;000.523;MIDI 01
962.077;000.135;81;000.414;MIDI 01
962.448;000.074;38;000.375;MIDI 01
962.469;000.126;50;000.328;MIDI 01
962.619;000.050;91;000.555;MIDI 01
962.642;000.079;79;000.500;MIDI 01
962.866;000.112;62;000.375;MIDI 01
962.975;000.031;69;000.398;MIDI 01
962.995;000.052;74;000.414;MIDI 01
963.124;000.033;66;000.344;MIDI 01
963.133;000.068;57;000.383;MIDI 01
963.269;000.043;78;000.422;MIDI 01
963.250;000.065;90;000.562;MIDI 01
963.383;000.039;42;000.539;MIDI 01
963.476;000.020;88;000.562;MIDI 01
963.485;000.045;76;000.578;MIDI 01
963.654;000.054;58;000.375;MIDI 01
963.742;000.041;70;000.445;MIDI 01
963.753;000.043;66;000.258;MIDI 01
963.829;000.082;54;000.477;MIDI 01
963.959;000.031;86;000.570;MIDI 01
963.954;000.040;74;000.578;MIDI 01
964.065;000.061;43;000.586;MIDI 01
964.181;000.022;85;000.477;MIDI 01
964.177;000.044;73;000.609;MIDI 01
964.312;000.051;61;000.531;MIDI 01
964.344;000.051;55;000.359;MIDI 01
964.383;000.027;63;000.484;MIDI 01
964.406;000.032;67;000.477;MIDI 01
964.476;000.029;59;000.422;MIDI 01
964.484;000.052;51;000.484;MIDI 01
964.602;000.031;83;000.562;MIDI 01
964.617;000.032;71;000.367;MIDI 01
964.679;000.051;40;000.609;MIDI 01
964.810;000.041;69;000.570;MIDI 01
964.821;000.031;81;000.359;MIDI 01
964.941;000.041;57;000.438;MIDI 01
965.041;000.046;64;000.484;MIDI 01
964.981;000.121;52;000.211;MIDI 01
965.086;000.038;55;000.375;MIDI 01
965.091;000.061;47;000.438;MIDI 01
965.249;000.036;67;000.430;MIDI 01
965.255;000.031;79;000.438;MIDI 01
965.332;000.041;33;000.492;MIDI 01
965.331;000.066;45;000.531;MIDI 01
965.471;000.058;67;000.523;MIDI 01
965.568;000.047;55;000.484;MIDI 01
965.572;000.077;50;000.477;MIDI 01
965.681;000.031;57;000.445;MIDI 01
965.683;000.045;62;000.562;MIDI 01
965.765;000.084;45;000.586;MIDI 01
965.876;000.032;68;000.570;MIDI 01
965.768;000.146;54;000.555;MIDI 01
965.914;000.033;80;000.336;MIDI 01
965.940;000.052;78;000.125;MIDI 01
965.991;000.100;59;000.633;MIDI 01
966.109;000.025;83;000.445;MIDI 01
966.105;000.036;71;000.570;MIDI 01
966.205;000.080;54;000.453;MIDI 01
966.199;000.122;50;000.500;MIDI 01
966.303;000.050;66;000.531;MIDI 01
966.375;000.040;57;000.578;MIDI 01
966.379;000.078;45;000.578;MIDI 01
966.494;000.039;69;000.633;MIDI 01
966.496;000.038;81;000.609;MIDI 01
966.601;000.024;45;000.484;MIDI 01
966.586;000.041;47;000.562;MIDI 01
966.608;000.039;35;000.438;MIDI 01
966.604;000.052;33;000.383;MIDI 01
966.690;000.023;66;000.586;MIDI 01
966.812;000.045;53;000.383;MIDI 01
966.797;000.078;49;000.602;MIDI 01
966.839;000.042;52;000.375;MIDI 01
966.885;000.034;57;000.391;MIDI 01
966.866;000.056;61;000.617;MIDI 01
966.969;000.082;45;000.641;MIDI 01
967.056;000.032;64;000.641;MIDI 01
967.070;000.023;76;000.523;MIDI 01
967.118;000.052;74;000.180;MIDI 01
967.201;000.033;57;000.484;MIDI 01
967.178;000.072;59;000.586;MIDI 01
967.273;000.039;71;000.641;MIDI 01
967.302;000.043;83;000.266;MIDI 01
967.388;000.095;52;000.453;MIDI 01
967.379;000.122;49;000.445;MIDI 01
967.499;000.027;61;000.453;MIDI 01
967.497;000.036;64;000.516;MIDI 01
967.596;000.041;57;000.477;MIDI 01
967.598;000.103;45;000.492;MIDI 01
967.786;000.031;71;000.367;MIDI 01
967.782;000.045;69;000.297;MIDI 01
967.760;000.074;81;000.508;MIDI 01
967.868;000.047;38;000.523;MIDI 01
967.874;000.082;50;000.516;MIDI 01
968.047;000.036;79;000.602;MIDI 01
968.060;000.033;91;000.352;MIDI 01
968.133;000.097;61;000.492;MIDI 01
968.270;000.031;74;000.555;MIDI 01
968.298;000.062;69;000.133;MIDI 01
968.335;000.041;66;000.594;MIDI 01
968.356;000.073;57;000.555;MIDI 01
968.457;000.036;90;000.602;MIDI 01
968.469;000.036;78;000.531;MIDI 01
968.553;000.031;42;000.656;MIDI 01
968.640;000.026;88;000.633;MIDI 01
968.650;000.046;76;000.609;MIDI 01
968.759;000.048;64;000.555;MIDI 01
968.768;000.091;58;000.555;MIDI 01
968.920;000.078;54;000.594;MIDI 01
968.964;000.046;62;000.242;MIDI 01
969.045;000.034;74;000.656;MIDI 01
969.050;000.032;86;000.641;MIDI 01
969.129;000.061;43;000.680;MIDI 01
969.243;000.034;85;000.531;MIDI 01
969.239;000.050;73;000.680;MIDI 01
969.350;000.049;61;000.688;MIDI 01
969.367;000.069;55;000.531;MIDI 01
969.440;000.029;63;000.422;MIDI 01
969.448;000.030;67;000.430;MIDI 01
969.478;000.042;59;000.586;MIDI 01
969.496;000.066;51;000.594;MIDI 01
969.607;000.030;83;000.625;MIDI 01
969.610;000.033;71;000.609;MIDI 01
969.673;000.052;40;000.680;MIDI 01
969.811;000.025;81;000.492;MIDI 01
969.796;000.058;69;000.703;MIDI 01
969.908;000.049;57;000.531;MIDI 01
970.014;000.037;64;000.461;MIDI 01
970.036;000.030;55;000.539;MIDI 01
969.922;000.147;52;000.500;MIDI 01
970.046;000.048;62;000.258;MIDI 01
970.061;000.049;47;000.484;MIDI 01
970.195;000.033;79;000.523;MIDI 01
970.190;000.041;67;000.516;MIDI 01
970.267;000.040;33;000.570;MIDI 01
970.260;000.057;45;000.633;MIDI 01
970.383;000.066;67;000.586;MIDI 01
970.484;000.044;55;000.578;MIDI 01
970.493;000.083;50;000.547;MIDI 01
970.580;000.032;57;000.422;MIDI 01
970.572;000.042;62;000.602;MIDI 01
970.657;000.082;45;000.664;MIDI 01
970.757;000.035;66;000.594;MIDI 01
970.661;000.142;54;000.633;MIDI 01
970.755;000.053;78;000.617;MIDI 01
970.905;000.042;49;000.383;MIDI 01
970.867;000.099;59;000.641;MIDI 01
970.959;000.045;71;000.625;MIDI 01
970.987;000.034;83;000.281;MIDI 01
971.062;000.083;54;000.508;MIDI 01
971.054;000.115;50;000.555;MIDI 01
971.152;000.026;66;000.516;MIDI 01
971.223;000.042;57;000.602;MIDI 01
971.221;000.077;45;000.617;MIDI 01
971.340;000.030;81;000.641;MIDI 01
971.336;000.035;69;000.703;MIDI 01
971.425;000.036;47;000.602;MIDI 01
971.431;000.032;45;000.578;MIDI 01
971.429;000.038;33;000.555;MIDI 01
971.447;000.040;35;000.484;MIDI 01
971.519;000.025;66;000.703;MIDI 01
971.542;000.024;75;000.445;MIDI 01
971.619;000.029;66;000.289;MIDI 01
971.648;000.042;50;000.523;MIDI 01
971.631;000.080;53;000.547;MIDI 01
971.697;000.028;57;000.562;MIDI 01
971.695;000.058;61;000.633;MIDI 01
971.791;000.090;45;000.680;MIDI 01
971.876;000.036;64;000.695;MIDI 01
971.880;000.049;76;000.680;MIDI 01
972.010;000.036;49;000.461;MIDI 01
971.989;000.086;59;000.695;MIDI 01
972.090;000.017;83;000.594;MIDI 01
972.082;000.051;71;000.703;MIDI 01
972.179;000.106;52;000.602;MIDI 01
972.175;000.133;49;000.602;MIDI 01
972.296;000.036;64;000.523;MIDI 01
972.302;000.034;62;000.508;MIDI 01
972.315;000.035;60;000.344;MIDI 01
972.382;000.059;57;000.633;MIDI 01
972.379;000.116;45;000.656;MIDI 01
972.526;000.046;69;000.617;MIDI 01
972.519;000.071;81;000.680;MIDI 01
972.628;000.056;38;000.664;MIDI 01
972.622;000.084;50;000.680;MIDI 01
972.801;000.019;91;000.555;MIDI 01
972.797;000.054;79;000.688;MIDI 01
972.881;000.068;61;000.531;MIDI 01
972.920;000.045;67;000.523;MIDI 01
973.013;000.034;74;000.641;MIDI 01
973.080;000.056;66;000.648;MIDI 01
973.094;000.090;57;000.602;MIDI 01
973.196;000.046;78;000.609;MIDI 01
973.194;000.054;90;000.648;MIDI 01
973.295;000.053;42;000.695;MIDI 01
973.383;000.023;88;000.695;MIDI 01
973.386;000.052;76;000.695;MIDI 01
973.502;000.051;64;000.609;MIDI 01
973.565;000.040;61;000.305;MIDI 01
973.514;000.098;58;000.570;MIDI 01
973.580;000.041;70;000.641;MIDI 01
973.677;000.026;62;000.477;MIDI 01
973.656;000.077;54;000.641;MIDI 01
973.767;000.035;74;000.664;MIDI 01
973.775;000.029;86;000.617;MIDI 01
973.859;000.061;43;000.688;MIDI 01
973.952;000.020;75;000.578;MIDI 01
973.959;000.021;85;000.555;MIDI 01
973.964;000.036;73;000.641;MIDI 01
974.070;000.048;61;000.742;MIDI 01
974.095;000.068;55;000.547;MIDI 01
974.118;000.047;56;000.242;MIDI 01
974.147;000.027;63;000.453;MIDI 01
974.145;000.034;67;000.547;MIDI 01
974.207;000.032;59;000.531;MIDI 01
974.215;000.072;51;000.641;MIDI 01
974.302;000.037;84;000.617;MIDI 01
974.295;000.055;72;000.695;MIDI 01
974.344;000.031;83;000.344;MIDI 01
974.396;000.048;40;000.703;MIDI 01
974.481;000.030;81;000.680;MIDI 01
974.498;000.029;69;000.641;MIDI 01
974.490;000.040;71;000.586;MIDI 01
974.596;000.042;59;000.656;MIDI 01
974.605;000.067;53;000.594;MIDI 01
974.685;000.020;59;000.391;MIDI 01
974.676;000.041;64;000.641;MIDI 01
974.739;000.029;57;000.555;MIDI 01
974.752;000.069;48;000.531;MIDI 01
974.859;000.028;77;000.648;MIDI 01
974.857;000.032;67;000.641;MIDI 01
974.980;000.040;33;000.602;MIDI 01
974.976;000.051;45;000.648;MIDI 01
975.079;000.034;66;000.633;MIDI 01
975.205;000.081;54;000.539;MIDI 01
975.202;000.091;50;000.523;MIDI 01
975.270;000.028;57;000.438;MIDI 01
975.267;000.033;62;000.570;MIDI 01
975.382;000.051;55;000.555;MIDI 01
975.448;000.033;79;000.617;MIDI 01
975.371;000.115;52;000.641;MIDI 01
975.451;000.039;67;000.594;MIDI 01
975.574;000.126;56;000.617;MIDI 01
975.700;000.026;80;000.484;MIDI 01
975.578;000.158;53;000.539;MIDI 01
975.693;000.058;68;000.562;MIDI 01
975.803;000.080;45;000.656;MIDI 01
975.873;000.033;62;000.641;MIDI 01
975.978;000.090;57;000.594;MIDI 01
975.972;000.117;54;000.648;MIDI 01
976.075;000.028;81;000.680;MIDI 01
976.073;000.034;69;000.656;MIDI 01
976.173;000.119;45;000.672;MIDI 01
976.288;000.027;82;000.391;MIDI 01
976.273;000.056;70;000.664;MIDI 01
976.375;000.078;50;000.531;MIDI 01
976.395;000.070;58;000.617;MIDI 01
976.377;000.090;53;000.539;MIDI 01
976.465;000.036;62;000.547;MIDI 01
976.459;000.046;65;000.609;MIDI 01
976.572;000.064;59;000.648;MIDI 01
976.641;000.029;71;000.664;MIDI 01
976.653;000.023;83;000.555;MIDI 01
976.569;000.109;51;000.688;MIDI 01
976.579;000.112;54;000.617;MIDI 01
976.737;000.065;45;000.711;MIDI 01
976.834;000.021;74;000.531;MIDI 01
976.817;000.041;72;000.641;MIDI 01
976.846;000.031;84;000.352;MIDI 01
976.935;000.061;60;000.656;MIDI 01
976.938;000.061;55;000.641;MIDI 01
976.933;000.072;52;000.641;MIDI 01
976.993;000.031;69;000.664;MIDI 01
977.157;000.041;53;000.336;MIDI 01
977.165;000.045;73;000.602;MIDI 01
977.177;000.034;85;000.578;MIDI 01
977.116;000.102;61;000.688;MIDI 01
977.119;000.101;56;000.586;MIDI 01
977.195;000.055;54;000.102;MIDI 01
977.311;000.070;62;000.578;MIDI 01
977.305;000.078;54;000.508;MIDI 01
977.307;000.078;57;000.539;MIDI 01
977.376;000.048;74;000.594;MIDI 01
977.372;000.064;86;000.664;MIDI 01
977.423;000.045;58;000.172;MIDI 01
977.502;000.080;55;000.594;MIDI 01
977.503;000.098;58;000.383;MIDI 01
977.500;000.105;63;000.633;MIDI 01
977.578;000.053;75;000.570;MIDI 01
977.564;000.070;79;000.539;MIDI 01
977.575;000.073;87;000.633;MIDI 01
977.694;000.080;56;000.633;MIDI 01
977.699;000.082;64;000.602;MIDI 01
977.688;000.096;59;000.633;MIDI 01
977.759;000.048;76;000.633;MIDI 01
977.761;000.048;80;000.602;MIDI 01
977.764;000.062;88;000.656;MIDI 01
977.834;000.060;86;000.094;MIDI 01
977.881;000.056;57;000.578;MIDI 01
977.879;000.079;65;000.625;MIDI 01
977.883;000.084;60;000.609;MIDI 01
977.953;000.034;89;000.602;MIDI 01
977.952;000.041;77;000.633;MIDI 01
977.949;000.051;81;000.664;MIDI 01
977.980;000.024;88;000.461;MIDI 01
978.061;000.091;58;000.609;MIDI 01
978.064;000.107;61;000.641;MIDI 01
978.059;000.115;66;000.680;MIDI 01
978.147;000.061;78;000.625;MIDI 01
978.151;000.060;90;000.656;MIDI 01
978.149;000.078;82;000.602;MIDI 01
978.252;000.083;67;000.656;MIDI 01
978.246;000.096;59;000.633;MIDI 01
978.250;000.106;62;000.648;MIDI 01
978.335;000.074;91;000.758;MIDI 01
978.342;000.071;79;000.688;MIDI 01
978.340;000.102;83;000.648;MIDI 01
978.450;000.106;60;000.656;MIDI 01
978.452;000.115;68;000.727;MIDI 01
978.462;000.111;63;000.609;MIDI 01
978.584;000.002;85;000.352;MIDI 01
978.554;000.072;80;000.625;MIDI 01
978.550;000.082;92;000.695;MIDI 01
978.544;000.100;84;000.617;MIDI 01
978.659;000.091;69;000.664;MIDI 01
978.661;000.098;61;000.656;MIDI 01
978.657;000.119;64;000.641;MIDI 01
978.782;000.024;91;000.492;MIDI 01
978.754;000.073;81;000.711;MIDI 01
978.757;000.075;93;000.695;MIDI 01
978.756;000.110;85;000.625;MIDI 01
978.899;000.038;63;000.359;MIDI 01
978.879;000.074;65;000.656;MIDI 01
978.892;000.071;62;000.609;MIDI 01
978.881;000.083;70;000.695;MIDI 01
979.026;000.030;92;000.406;MIDI 01
978.983;000.075;86;000.688;MIDI 01
978.987;000.120;82;000.695;MIDI 01
978.990;000.146;94;000.719;MIDI 01
979.158;000.048;61;000.453;MIDI 01
979.140;000.098;59;000.594;MIDI 01
979.118;000.144;71;000.719;MIDI 01
979.115;000.179;66;000.562;MIDI 01
979.129;000.180;57;000.602;MIDI 01
979.283;000.046;95;000.742;MIDI 01
979.123;000.214;63;000.562;MIDI 01
979.289;000.061;87;000.750;MIDI 01
979.291;000.069;83;000.711;MIDI 01
979.490;000.039;72;000.766;MIDI 01
979.718;000.020;96;000.797;MIDI 01
979.724;000.022;88;000.672;MIDI 01
979.722;000.026;84;000.711;MIDI 01
979.482;000.323;67;000.680;MIDI 01
979.476;000.346;57;000.633;MIDI 01
979.485;000.355;64;000.688;MIDI 01
979.952;000.038;73;000.836;MIDI 01
979.948;000.071;67;000.766;MIDI 01
979.950;000.100;64;000.781;MIDI 01
979.956;000.114;57;000.711;MIDI 01
980.429;000.001;93;000.414;MIDI 01
980.389;000.114;85;000.789;MIDI 01
980.384;000.134;97;000.836;MIDI 01
980.391;000.145;88;000.766;MIDI 01
981.826;000.325;38;000.219;MIDI 01
982.098;000.055;57;000.289;MIDI 01
982.100;000.058;62;000.258;MIDI 01
981.814;000.357;50;000.258;MIDI 01
982.266;000.050;57;000.352;MIDI 01
982.269;000.059;54;000.125;MIDI 01
982.291;000.055;62;000.297;MIDI 01
982.429;000.045;51;000.289;MIDI 01
982.427;000.087;39;000.305;MIDI 01
982.540;000.134;39;000.359;MIDI 01
982.579;000.096;51;000.391;MIDI 01
982.689;000.050;66;000.461;MIDI 01
982.696;000.045;62;000.445;MIDI 01
982.723;000.058;57;000.188;MIDI 01
982.830;000.083;66;000.508;MIDI 01
982.914;000.042;50;000.500;MIDI 01
982.928;000.046;38;000.414;MIDI 01
983.061;000.080;50;000.500;MIDI 01
983.078;000.070;38;000.492;MIDI 01
983.148;000.029;66;000.406;MIDI 01
983.132;000.048;62;000.438;MIDI 01
983.147;000.035;57;000.336;MIDI 01
983.153;000.033;69;000.352;MIDI 01
983.293;000.029;66;000.453;MIDI 01
983.311;000.050;69;000.273;MIDI 01
983.367;000.036;49;000.578;MIDI 01
983.391;000.046;37;000.430;MIDI 01
983.560;000.028;66;000.422;MIDI 01
983.559;000.034;62;000.438;MIDI 01
983.501;000.099;37;000.484;MIDI 01
983.490;000.112;49;000.594;MIDI 01
983.593;000.089;69;000.188;MIDI 01
983.679;000.045;66;000.570;MIDI 01
983.685;000.045;69;000.258;MIDI 01
983.705;000.033;62;000.359;MIDI 01
983.671;000.119;74;000.039;MIDI 01
983.774;000.046;48;000.594;MIDI 01
983.785;000.039;36;000.508;MIDI 01
983.980;000.027;70;000.516;MIDI 01
983.983;000.027;67;000.453;MIDI 01
983.897;000.115;48;000.617;MIDI 01
983.991;000.033;62;000.383;MIDI 01
983.904;000.134;36;000.570;MIDI 01
984.100;000.039;70;000.562;MIDI 01
984.110;000.041;67;000.508;MIDI 01
984.119;000.049;62;000.359;MIDI 01
984.179;000.040;47;000.609;MIDI 01
984.196;000.036;35;000.508;MIDI 01
984.306;000.091;47;000.648;MIDI 01
984.311;000.094;35;000.617;MIDI 01
984.392;000.032;67;000.586;MIDI 01
984.397;000.029;74;000.555;MIDI 01
984.396;000.039;62;000.547;MIDI 01
984.502;000.039;67;000.555;MIDI 01
984.509;000.070;74;000.586;MIDI 01
984.576;000.043;46;000.680;MIDI 01
984.598;000.031;34;000.547;MIDI 01
984.791;000.029;74;000.617;MIDI 01
984.801;000.021;79;000.570;MIDI 01
984.799;000.034;67;000.531;MIDI 01
984.711;000.127;46;000.695;MIDI 01
984.709;000.140;34;000.688;MIDI 01
984.907;000.049;67;000.633;MIDI 01
984.902;000.084;79;000.664;MIDI 01
984.901;000.096;74;000.547;MIDI 01
985.016;000.048;33;000.641;MIDI 01
985.007;000.060;45;000.695;MIDI 01
985.185;000.040;74;000.609;MIDI 01
985.197;000.030;82;000.570;MIDI 01
985.205;000.026;70;000.523;MIDI 01
985.146;000.097;45;000.641;MIDI 01
985.149;000.123;33;000.656;MIDI 01
985.292;000.071;82;000.617;MIDI 01
985.306;000.065;74;000.617;MIDI 01
985.315;000.083;70;000.602;MIDI 01
985.395;000.034;31;000.617;MIDI 01
985.388;000.044;43;000.680;MIDI 01
985.681;000.031;66;000.555;MIDI 01
985.686;000.028;74;000.523;MIDI 01
985.679;000.038;69;000.562;MIDI 01
985.539;000.186;38;000.688;MIDI 01
985.533;000.207;50;000.719;MIDI 01
985.803;000.039;66;000.562;MIDI 01
985.807;000.036;74;000.555;MIDI 01
985.801;000.072;69;000.602;MIDI 01
985.882;000.041;51;000.641;MIDI 01
985.892;000.032;39;000.578;MIDI 01
986.091;000.031;78;000.562;MIDI 01
986.083;000.042;69;000.625;MIDI 01
986.093;000.034;66;000.570;MIDI 01
986.003;000.126;51;000.742;MIDI 01
986.001;000.135;39;000.719;MIDI 01
986.202;000.034;69;000.594;MIDI 01
986.214;000.028;66;000.500;MIDI 01
986.193;000.093;78;000.609;MIDI 01
986.293;000.031;38;000.562;MIDI 01
986.276;000.057;50;000.688;MIDI 01
986.401;000.094;50;000.680;MIDI 01
986.474;000.025;78;000.547;MIDI 01
986.479;000.022;81;000.539;MIDI 01
986.468;000.036;74;000.586;MIDI 01
986.487;000.022;69;000.461;MIDI 01
986.400;000.116;38;000.648;MIDI 01
986.568;000.039;74;000.594;MIDI 01
986.589;000.025;69;000.500;MIDI 01
986.578;000.064;78;000.625;MIDI 01
986.583;000.061;81;000.617;MIDI 01
986.668;000.030;37;000.578;MIDI 01
986.649;000.058;49;000.727;MIDI 01
986.723;000.053;39;000.148;MIDI 01
986.843;000.031;81;000.609;MIDI 01
986.841;000.035;78;000.625;MIDI 01
986.849;000.033;74;000.531;MIDI 01
986.772;000.114;49;000.664;MIDI 01
986.862;000.026;86;000.445;MIDI 01
986.776;000.115;37;000.688;MIDI 01
986.939;000.045;81;000.656;MIDI 01
986.954;000.050;74;000.602;MIDI 01
986.947;000.076;86;000.633;MIDI 01
987.023;000.042;48;000.703;MIDI 01
987.035;000.034;36;000.602;MIDI 01
987.140;000.104;48;000.695;MIDI 01
987.226;000.020;79;000.531;MIDI 01
987.224;000.029;82;000.586;MIDI 01
987.228;000.030;74;000.602;MIDI 01
987.142;000.124;36;000.719;MIDI 01
987.327;000.041;79;000.586;MIDI 01
987.325;000.047;74;000.594;MIDI 01
987.316;000.072;82;000.617;MIDI 01
987.409;000.042;35;000.648;MIDI 01
987.400;000.053;47;000.688;MIDI 01
987.451;000.040;36;000.344;MIDI 01
987.516;000.099;47;000.703;MIDI 01
987.520;000.100;35;000.734;MIDI 01
987.596;000.032;79;000.688;MIDI 01
987.600;000.034;74;000.656;MIDI 01
987.606;000.034;86;000.602;MIDI 01
987.718;000.022;79;000.648;MIDI 01
987.726;000.025;74;000.492;MIDI 01
987.706;000.074;86;000.695;MIDI 01
987.779;000.027;34;000.648;MIDI 01
987.766;000.051;46;000.719;MIDI 01
987.976;000.030;86;000.672;MIDI 01
987.885;000.127;46;000.711;MIDI 01
987.880;000.136;34;000.680;MIDI 01
987.987;000.033;91;000.617;MIDI 01
987.990;000.033;79;000.516;MIDI 01
988.084;000.046;79;000.680;MIDI 01
988.130;000.029;87;000.398;MIDI 01
988.092;000.081;86;000.609;MIDI 01
988.165;000.056;45;000.727;MIDI 01
988.177;000.046;33;000.625;MIDI 01
988.393;000.031;94;000.641;MIDI 01
988.284;000.142;45;000.719;MIDI 01
988.402;000.029;82;000.586;MIDI 01
988.385;000.056;86;000.703;MIDI 01
988.289;000.179;33;000.719;MIDI 01
988.508;000.058;86;000.664;MIDI 01
988.499;000.072;82;000.602;MIDI 01
988.503;000.121;94;000.664;MIDI 01
988.597;000.042;31;000.680;MIDI 01
988.591;000.057;43;000.727;MIDI 01
988.924;000.028;98;000.648;MIDI 01
988.920;000.043;86;000.609;MIDI 01
988.922;000.043;93;000.570;MIDI 01
988.917;000.054;90;000.633;MIDI 01
988.744;000.264;50;000.758;MIDI 01
988.748;000.267;38;000.727;MIDI 01
989.074;000.027;98;000.422;MIDI 01
989.070;000.042;93;000.625;MIDI 01
989.060;000.081;86;000.633;MIDI 01
989.057;000.087;90;000.695;MIDI 01
989.189;000.044;39;000.656;MIDI 01
989.181;000.053;51;000.711;MIDI 01
989.410;000.038;78;000.656;MIDI 01
989.421;000.031;74;000.516;MIDI 01
989.413;000.042;81;000.633;MIDI 01
989.419;000.038;86;000.578;MIDI 01
989.321;000.138;51;000.727;MIDI 01
989.319;000.152;39;000.656;MIDI 01
989.546;000.032;81;000.672;MIDI 01
989.555;000.027;86;000.414;MIDI 01
989.533;000.068;78;000.688;MIDI 01
989.536;000.070;74;000.625;MIDI 01
989.629;000.030;38;000.602;MIDI 01
989.612;000.059;50;000.711;MIDI 01
989.653;000.034;48;000.398;MIDI 01
989.741;000.119;50;000.680;MIDI 01
989.836;000.035;66;000.617;MIDI 01
989.844;000.030;69;000.586;MIDI 01
989.852;000.026;74;000.492;MIDI 01
989.733;000.147;38;000.656;MIDI 01
989.842;000.041;62;000.570;MIDI 01
989.878;000.036;64;000.320;MIDI 01
989.945;000.043;62;000.656;MIDI 01
989.962;000.027;74;000.500;MIDI 01
989.947;000.051;69;000.625;MIDI 01
989.940;000.075;66;000.648;MIDI 01
990.040;000.029;37;000.594;MIDI 01
990.025;000.046;49;000.727;MIDI 01
990.075;000.047;39;000.312;MIDI 01
990.230;000.032;62;000.602;MIDI 01
990.219;000.048;54;000.727;MIDI 01
990.225;000.053;57;000.609;MIDI 01
990.147;000.137;37;000.680;MIDI 01
990.150;000.135;49;000.734;MIDI 01
990.340;000.039;57;000.664;MIDI 01
990.352;000.040;54;000.398;MIDI 01
990.331;000.079;62;000.664;MIDI 01
990.418;000.045;48;000.758;MIDI 01
990.425;000.042;36;000.648;MIDI 01
990.546;000.122;48;000.750;MIDI 01
990.643;000.030;89;000.703;MIDI 01
990.645;000.032;86;000.633;MIDI 01
990.660;000.021;98;000.578;MIDI 01
990.545;000.150;36;000.688;MIDI 01
990.681;000.036;96;000.383;MIDI 01
990.755;000.027;98;000.648;MIDI 01
990.757;000.048;86;000.664;MIDI 01
990.753;000.055;89;000.688;MIDI 01
990.820;000.050;47;000.711;MIDI 01
990.829;000.043;35;000.648;MIDI 01
990.862;000.034;36;000.422;MIDI 01
990.942;000.102;47;000.727;MIDI 01
990.944;000.110;35;000.680;MIDI 01
991.028;000.035;77;000.711;MIDI 01
991.040;000.026;86;000.617;MIDI 01
991.038;000.030;74;000.609;MIDI 01
991.145;000.031;86;000.555;MIDI 01
991.143;000.039;77;000.672;MIDI 01
991.138;000.059;74;000.586;MIDI 01
991.174;000.032;76;000.359;MIDI 01
991.210;000.025;34;000.625;MIDI 01
991.195;000.054;46;000.742;MIDI 01
991.316;000.123;46;000.719;MIDI 01
991.409;000.031;65;000.680;MIDI 01
991.314;000.136;34;000.656;MIDI 01
991.422;000.036;62;000.531;MIDI 01
991.439;000.026;74;000.414;MIDI 01
991.447;000.029;76;000.406;MIDI 01
991.485;000.075;64;000.031;MIDI 01
991.533;000.029;74;000.469;MIDI 01
991.514;000.055;65;000.664;MIDI 01
991.525;000.055;62;000.656;MIDI 01
991.587;000.042;33;000.656;MIDI 01
991.577;000.057;45;000.750;MIDI 01
991.774;000.028;58;000.734;MIDI 01
991.777;000.034;53;000.742;MIDI 01
991.709;000.111;45;000.734;MIDI 01
991.707;000.130;33;000.719;MIDI 01
991.807;000.032;55;000.414;MIDI 01
991.884;000.022;53;000.648;MIDI 01
991.869;000.079;58;000.508;MIDI 01
991.844;000.111;62;000.109;MIDI 01
991.976;000.002;53;000.359;MIDI 01
991.969;000.044;44;000.742;MIDI 01
991.980;000.034;32;000.656;MIDI 01
992.173;000.019;94;000.789;MIDI 01
992.134;000.069;34;000.352;MIDI 01
992.091;000.116;44;000.758;MIDI 01
992.181;000.029;86;000.617;MIDI 01
992.089;000.128;32;000.695;MIDI 01
992.197;000.022;98;000.539;MIDI 01
992.280;000.022;98;000.703;MIDI 01
992.269;000.069;94;000.781;MIDI 01
992.271;000.070;86;000.727;MIDI 01
992.352;000.045;31;000.680;MIDI 01
992.346;000.057;43;000.734;MIDI 01
992.464;000.085;43;000.703;MIDI 01
992.466;000.116;31;000.688;MIDI 01
992.559;000.024;82;000.703;MIDI 01
992.565;000.029;74;000.719;MIDI 01
992.576;000.029;86;000.609;MIDI 01
992.568;000.049;34;000.156;MIDI 01
992.670;000.021;86;000.570;MIDI 01
992.649;000.059;82;000.602;MIDI 01
992.652;000.058;74;000.711;MIDI 01
992.726;000.027;30;000.648;MIDI 01
992.715;000.045;42;000.750;MIDI 01
992.769;000.048;32;000.258;MIDI 01
992.927;000.024;70;000.727;MIDI 01
992.845;000.117;42;000.766;MIDI 01
992.931;000.043;62;000.656;MIDI 01
992.945;000.031;74;000.578;MIDI 01
992.842;000.137;30;000.719;MIDI 01
993.006;000.068;70;000.594;MIDI 01
993.115;000.051;29;000.617;MIDI 01
993.104;000.066;41;000.719;MIDI 01
993.170;000.029;31;000.258;MIDI 01
993.176;000.066;40;000.148;MIDI 01
993.292;000.025;58;000.648;MIDI 01
993.294;000.030;55;000.727;MIDI 01
993.239;000.100;41;000.719;MIDI 01
993.321;000.023;62;000.422;MIDI 01
993.242;000.112;29;000.695;MIDI 01
993.336;000.045;31;000.125;MIDI 01
993.388;000.025;55;000.727;MIDI 01
993.398;000.056;62;000.680;MIDI 01
993.381;000.077;58;000.625;MIDI 01
993.487;000.048;28;000.672;MIDI 01
993.479;000.058;40;000.727;MIDI 01
993.496;000.046;55;000.242;MIDI 01
993.521;000.027;29;000.445;MIDI 01
993.630;000.027;29;000.516;MIDI 01
993.598;000.104;40;000.742;MIDI 01
993.601;000.111;28;000.742;MIDI 01
993.726;000.024;91;000.688;MIDI 01
993.743;000.018;100;000.609;MIDI 01
993.734;000.032;86;000.547;MIDI 01
993.745;000.024;92;000.492;MIDI 01
993.736;000.034;98;000.617;MIDI 01
993.754;000.023;88;000.445;MIDI 01
993.839;000.016;98;000.602;MIDI 01
993.824;000.054;91;000.672;MIDI 01
993.828;000.058;86;000.727;MIDI 01
993.893;000.025;27;000.680;MIDI 01
993.882;000.040;39;000.750;MIDI 01
994.002;000.085;39;000.789;MIDI 01
994.000;000.093;27;000.680;MIDI 01
994.135;000.028;79;000.742;MIDI 01
994.146;000.021;86;000.688;MIDI 01
994.140;000.029;74;000.695;MIDI 01
994.257;000.018;84;000.547;MIDI 01
994.288;000.002;78;000.273;MIDI 01
994.255;000.052;79;000.672;MIDI 01
994.249;000.070;74;000.672;MIDI 01
994.305;000.031;27;000.703;MIDI 01
994.351;000.001;33;000.195;MIDI 01
994.296;000.056;39;000.719;MIDI 01
994.356;000.002;31;000.242;MIDI 01
994.465;000.056;26;000.352;MIDI 01
994.422;000.101;39;000.789;MIDI 01
994.415;000.124;27;000.602;MIDI 01
994.559;000.030;62;000.648;MIDI 01
994.554;000.038;67;000.734;MIDI 01
994.566;000.028;74;000.664;MIDI 01
994.653;000.047;74;000.648;MIDI 01
994.671;000.064;67;000.711;MIDI 01
994.669;000.071;62;000.703;MIDI 01
994.800;000.002;31;000.516;MIDI 01
994.783;000.033;27;000.688;MIDI 01
994.776;000.049;39;000.742;MIDI 01
994.919;000.101;39;000.766;MIDI 01
994.917;000.121;27;000.664;MIDI 01
995.062;000.027;62;000.695;MIDI 01
995.059;000.040;50;000.688;MIDI 01
995.055;000.061;55;000.734;MIDI 01
995.211;000.051;50;000.727;MIDI 01
995.209;000.081;55;000.758;MIDI 01
995.206;000.122;62;000.672;MIDI 01
995.367;000.128;27;000.742;MIDI 01
995.359;000.141;39;000.797;MIDI 01
995.778;000.002;61;000.289;MIDI 01
995.739;000.058;26;000.742;MIDI 01
995.736;000.078;38;000.844;MIDI 01
995.790;000.050;29;000.258;MIDI 01
995.734;000.258;54;000.766;MIDI 01
995.730;000.338;62;000.742;MIDI 01
995.732;000.379;66;000.773;MIDI 01
996.612;000.035;57;000.609;MIDI 01
996.605;000.045;62;000.688;MIDI 01
996.610;000.044;54;000.625;MIDI 01
996.608;000.048;50;000.570;MIDI 01
996.617;000.042;66;000.625;MIDI 01
996.626;000.034;78;000.500;MIDI 01
996.615;000.048;69;000.625;MIDI 01
996.619;000.046;74;000.609;MIDI 01
996.725;000.028;50;000.680;MIDI 01
996.728;000.027;66;000.719;MIDI 01
996.732;000.037;57;000.703;MIDI 01
996.723;000.056;69;000.641;MIDI 01
996.720;000.065;62;000.750;MIDI 01
996.730;000.062;54;000.625;MIDI 01
996.734;000.075;74;000.664;MIDI 01
996.736;000.077;78;000.727;MIDI 01
996.841;000.029;50;000.234;MIDI 01
996.846;000.039;66;000.172;MIDI 01
997.177;000.031;74;000.656;MIDI 01
997.191;000.029;85;000.523;MIDI 01
997.179;000.050;69;000.672;MIDI 01
997.186;000.049;90;000.758;MIDI 01
997.193;000.061;86;000.742;MIDI 01
997.189;000.068;66;000.695;MIDI 01
997.175;000.083;62;000.633;MIDI 01
997.184;000.084;81;000.750;MIDI 01
997.182;000.106;78;000.750;MIDI 01
997.517;000.043;61;000.297;MIDI 01
997.770;000.002;41;000.266;MIDI 01
997.720;000.115;36;000.719;MIDI 01
997.710;000.155;48;000.758;MIDI 01
997.719;000.168;40;000.656;MIDI 01
997.722;000.171;43;000.695;MIDI 01
997.724;000.182;55;000.773;MIDI 01
997.712;000.255;60;000.758;MIDI 01
997.715;000.255;64;000.695;MIDI 01
997.717;000.301;67;000.727;MIDI 01
998.428;000.037;67;000.641;MIDI 01
998.444;000.028;79;000.531;MIDI 01
998.431;000.043;64;000.617;MIDI 01
998.424;000.052;72;000.625;MIDI 01
998.439;000.040;52;000.516;MIDI 01
998.436;000.044;60;000.586;MIDI 01
998.426;000.061;76;000.641;MIDI 01
998.434;000.058;55;000.578;MIDI 01
998.554;000.024;67;000.703;MIDI 01
998.562;000.020;52;000.570;MIDI 01
998.560;000.033;60;000.680;MIDI 01
998.557;000.043;55;000.602;MIDI 01
998.548;000.062;64;000.766;MIDI 01
998.552;000.060;72;000.672;MIDI 01
998.550;000.073;76;000.625;MIDI 01
998.545;000.086;79;000.742;MIDI 01
998.832;000.044;73;000.258;MIDI 01
999.000;000.027;76;000.672;MIDI 01
999.017;000.020;91;000.688;MIDI 01
999.015;000.024;72;000.664;MIDI 01
999.010;000.047;88;000.742;MIDI 01
999.006;000.059;67;000.672;MIDI 01
999.013;000.055;84;000.695;MIDI 01
999.008;000.069;79;000.750;MIDI 01
999.002;000.079;64;000.641;MIDI 01
999.506;000.033;68;000.305;MIDI 01
999.458;000.129;34;000.680;MIDI 01
999.452;000.169;58;000.805;MIDI 01
999.465;000.160;38;000.672;MIDI 01
999.462;000.165;41;000.664;MIDI 01
999.456;000.190;46;000.797;MIDI 01
999.444;000.241;62;000.477;MIDI 01
999.460;000.226;65;000.688;MIDI 01
999.454;000.296;70;000.773;MIDI 01
1000.180;000.036;70;000.664;MIDI 01
1000.183;000.034;65;000.594;MIDI 01
1000.191;000.029;53;000.461;MIDI 01
1000.188;000.034;82;000.578;MIDI 01
1000.192;000.032;58;000.547;MIDI 01
1000.185;000.044;74;000.641;MIDI 01
1000.181;000.049;62;000.656;MIDI 01
1000.194;000.039;77;000.570;MIDI 01
1000.302;000.020;61;000.617;MIDI 01
1000.310;000.027;53;000.641;MIDI 01
1000.300;000.058;70;000.711;MIDI 01
1000.317;000.051;62;000.672;MIDI 01
1000.307;000.070;65;000.727;MIDI 01
1000.308;000.072;74;000.672;MIDI 01
1000.298;000.083;58;000.625;MIDI 01
1000.315;000.078;77;000.641;MIDI 01
1000.366;000.045;80;000.211;MIDI 01
1000.368;000.052;64;000.141;MIDI 01
1000.304;000.118;82;000.562;MIDI 01
1000.777;000.042;77;000.719;MIDI 01
1000.789;000.055;74;000.656;MIDI 01
1000.793;000.058;94;000.836;MIDI 01
1000.790;000.083;70;000.680;MIDI 01
1000.785;000.091;65;000.617;MIDI 01
1000.795;000.083;89;000.734;MIDI 01
1000.797;000.089;86;000.758;MIDI 01
1000.791;000.119;82;000.805;MIDI 01
1001.321;000.090;32;000.648;MIDI 01
1001.317;000.123;44;000.742;MIDI 01
1001.328;000.112;36;000.594;MIDI 01
1001.388;000.058;35;000.188;MIDI 01
1001.334;000.132;39;000.664;MIDI 01
1001.325;000.158;60;000.766;MIDI 01
1001.319;000.206;63;000.734;MIDI 01
1001.329;000.235;68;000.711;MIDI 01
1001.323;000.248;72;000.781;MIDI 01
1002.036;000.032;84;000.594;MIDI 01
1002.022;000.059;75;000.641;MIDI 01
1002.028;000.055;72;000.625;MIDI 01
1002.034;000.051;68;000.672;MIDI 01
1002.050;000.038;60;000.516;MIDI 01
1002.031;000.057;80;000.617;MIDI 01
1002.048;000.044;63;000.570;MIDI 01
1002.039;000.054;56;000.578;MIDI 01
1002.182;000.002;85;000.484;MIDI 01
1002.167;000.028;56;000.664;MIDI 01
1002.199;000.002;74;000.430;MIDI 01
1002.165;000.039;72;000.680;MIDI 01
1002.156;000.070;68;000.742;MIDI 01
1002.159;000.069;75;000.695;MIDI 01
1002.203;000.027;59;000.445;MIDI 01
1002.195;000.040;60;000.422;MIDI 01
1002.169;000.072;80;000.672;MIDI 01
1002.161;000.083;63;000.617;MIDI 01
1002.166;000.081;84;000.695;MIDI 01
1002.210;000.039;58;000.281;MIDI 01
1002.234;000.076;66;000.055;MIDI 01
1002.286;000.055;56;000.156;MIDI 01
1002.643;000.042;80;000.750;MIDI 01
1002.702;000.002;90;000.281;MIDI 01
1002.659;000.045;96;000.766;MIDI 01
1002.655;000.054;75;000.688;MIDI 01
1002.657;000.060;72;000.648;MIDI 01
1002.653;000.082;92;000.781;MIDI 01
1002.648;000.090;68;000.656;MIDI 01
1002.650;000.090;87;000.766;MIDI 01
1002.651;000.092;84;000.734;MIDI 01
1003.234;000.182;30;000.734;MIDI 01
1003.241;000.202;34;000.719;MIDI 01
1003.228;000.220;61;000.797;MIDI 01
1003.243;000.209;37;000.672;MIDI 01
1003.236;000.230;42;000.789;MIDI 01
1003.230;000.296;66;000.805;MIDI 01
1003.232;000.306;70;000.781;MIDI 01
1003.239;000.368;73;000.805;MIDI 01
1004.119;000.041;58;000.477;MIDI 01
1004.100;000.066;73;000.703;MIDI 01
1004.098;000.070;85;000.719;MIDI 01
1004.105;000.065;70;000.672;MIDI 01
1004.103;000.075;82;000.609;MIDI 01
1004.110;000.070;66;000.609;MIDI 01
1004.101;000.081;78;000.688;MIDI 01
1004.114;000.081;61;000.562;MIDI 01
1004.277;000.032;58;000.539;MIDI 01
1004.266;000.051;73;000.812;MIDI 01
1004.270;000.069;61;000.602;MIDI 01
1004.264;000.079;70;000.766;MIDI 01
1004.275;000.084;66;000.641;MIDI 01
1004.272;000.095;78;000.727;MIDI 01
1004.268;000.108;85;000.789;MIDI 01
1004.274;000.107;82;000.688;MIDI 01
1004.973;000.649;78;000.711;MIDI 01
1004.969;001.907;82;000.695;MIDI 01
1004.962;002.326;97;000.812;MIDI 01
1004.960;002.369;94;000.789;MIDI 01
1004.967;002.373;90;000.781;MIDI 01
1004.965;002.399;85;000.797;MIDI 01
1004.971;002.549;70;000.680;MIDI 01
1004.975;002.550;73;000.664;MIDI 01
1008.236;000.066;49;000.695;MIDI 01
1008.234;000.091;61;000.688;MIDI 01
1008.240;000.096;73;000.711;MIDI 01
1008.445;000.087;49;000.734;MIDI 01
1008.450;001.041;73;000.750;MIDI 01
1008.447;001.199;61;000.750;MIDI 01
1010.184;000.084;42;000.656;MIDI 01
1010.192;000.086;66;000.695;MIDI 01
1010.189;000.094;54;000.695;MIDI 01
1010.381;000.856;66;000.742;MIDI 01
1010.383;000.957;54;000.758;MIDI 01
1010.379;000.974;42;000.719;MIDI 01
1012.083;000.283;54;000.766;MIDI 01
1012.077;000.382;47;000.742;MIDI 01
1012.085;000.479;42;000.703;MIDI 01
1012.079;000.543;59;000.758;MIDI 01
1012.089;000.682;38;000.664;MIDI 01
1012.075;000.765;35;000.695;MIDI 01
1012.087;000.798;62;000.695;MIDI 01
1012.081;000.882;66;000.773;MIDI 01
1013.603;000.023;66;000.516;MIDI 01
1013.582;000.354;43;000.711;MIDI 01
1013.576;000.594;38;000.734;MIDI 01
1013.574;000.729;62;000.742;MIDI 01
1013.586;000.771;35;000.664;MIDI 01
1013.584;000.775;31;000.656;MIDI 01
1013.580;000.841;67;000.742;MIDI 01
1013.578;000.845;59;000.773;MIDI 01
1013.572;001.024;71;000.734;MIDI 01
1015.165;000.060;29;000.195;MIDI 01
1015.157;000.072;32;000.070;MIDI 01
1015.095;000.328;59;000.812;MIDI 01
1015.091;000.446;64;000.758;MIDI 01
1015.093;000.544;67;000.711;MIDI 01
1015.089;000.560;71;000.758;MIDI 01
1015.099;001.128;40;000.719;MIDI 01
1015.103;001.149;35;000.664;MIDI 01
1015.097;001.264;31;000.641;MIDI 01
1015.101;001.302;28;000.633;MIDI 01
1016.909;000.026;73;000.469;MIDI 01
1016.935;000.041;75;000.219;MIDI 01
1016.973;000.080;72;000.070;MIDI 01
1016.885;000.282;33;000.688;MIDI 01
1016.890;000.280;30;000.703;MIDI 01
1016.888;000.299;26;000.680;MIDI 01
1017.231;000.066;38;000.453;MIDI 01
1017.427;000.018;30;000.055;MIDI 01
1017.397;000.053;33;000.266;MIDI 01
1017.416;000.052;26;000.203;MIDI 01
1017.480;000.073;38;000.398;MIDI 01
1017.574;000.072;30;000.336;MIDI 01
1017.601;000.059;33;000.375;MIDI 01
1017.700;000.055;38;000.445;MIDI 01
1017.804;000.032;26;000.102;MIDI 01
1017.810;000.053;30;000.344;MIDI 01
1017.808;000.078;33;000.266;MIDI 01
1017.879;000.090;38;000.516;MIDI 01
1017.983;000.052;26;000.320;MIDI 01
1018.013;000.046;30;000.312;MIDI 01
1018.079;000.082;38;000.484;MIDI 01
1018.171;000.049;26;000.398;MIDI 01
1018.182;000.061;30;000.406;MIDI 01
1018.223;000.050;33;000.023;MIDI 01
1018.266;000.076;38;000.500;MIDI 01
1018.366;000.047;26;000.406;MIDI 01
1018.380;000.042;30;000.375;MIDI 01
1018.398;000.050;33;000.352;MIDI 01
1018.459;000.066;38;000.523;MIDI 01
1018.553;000.047;30;000.375;MIDI 01
1018.547;000.057;26;000.438;MIDI 01
1018.569;000.058;33;000.438;MIDI 01
1018.660;000.058;38;000.516;MIDI 01
1018.755;000.033;30;000.359;MIDI 01
1018.746;000.049;26;000.484;MIDI 01
1018.749;000.060;33;000.461;MIDI 01
1018.839;000.062;38;000.555;MIDI 01
1018.926;000.048;26;000.523;MIDI 01
1018.943;000.045;30;000.344;MIDI 01
1018.939;000.053;33;000.469;MIDI 01
1016.883;002.186;78;000.789;MIDI 01
1019.041;000.044;38;000.516;MIDI 01
1019.105;000.052;26;000.492;MIDI 01
1019.115;000.047;30;000.477;MIDI 01
1016.893;002.272;69;000.766;MIDI 01
1019.111;000.068;33;000.438;MIDI 01
1016.892;002.293;74;000.695;MIDI 01
1016.895;002.347;66;000.789;MIDI 01
1019.205;000.053;38;000.547;MIDI 01
1019.289;000.051;26;000.516;MIDI 01
1019.306;000.035;30;000.430;MIDI 01
1019.309;000.064;33;000.469;MIDI 01
1019.392;000.047;38;000.586;MIDI 01
1019.470;000.053;26;000.539;MIDI 01
1019.481;000.057;30;000.461;MIDI 01
1019.500;000.061;33;000.430;MIDI 01
1019.573;000.083;38;000.539;MIDI 01
1019.647;000.066;26;000.586;MIDI 01
1019.672;000.052;30;000.547;MIDI 01
1019.674;000.092;33;000.469;MIDI 01
1019.759;000.080;38;000.602;MIDI 01
1019.846;000.085;26;000.562;MIDI 01
1019.856;000.086;30;000.531;MIDI 01
1019.853;000.130;33;000.422;MIDI 01
1019.972;000.021;69;000.703;MIDI 01
1019.965;000.030;62;000.711;MIDI 01
1019.969;000.031;57;000.664;MIDI 01
1019.964;000.110;38;000.664;MIDI 01
1020.099;000.036;30;000.539;MIDI 01
1020.086;000.066;33;000.391;MIDI 01
1020.067;000.097;26;000.633;MIDI 01
1020.223;000.039;38;000.453;MIDI 01
1020.325;000.060;33;000.383;MIDI 01
1020.266;000.144;30;000.047;MIDI 01
1020.426;000.059;38;000.336;MIDI 01
1020.552;000.035;26;000.234;MIDI 01
1020.554;000.040;33;000.352;MIDI 01
1020.589;000.059;30;000.219;MIDI 01
1020.638;000.043;38;000.469;MIDI 01
1020.726;000.044;26;000.461;MIDI 01
1020.739;000.049;33;000.359;MIDI 01
1020.822;000.059;38;000.414;MIDI 01
1020.901;000.067;26;000.461;MIDI 01
1020.919;000.060;33;000.422;MIDI 01
1020.949;000.032;30;000.172;MIDI 01
1021.011;000.050;38;000.523;MIDI 01
1021.104;000.043;26;000.539;MIDI 01
1021.152;000.032;33;000.180;MIDI 01
1021.164;000.059;30;000.164;MIDI 01
1021.193;000.047;38;000.547;MIDI 01
1021.264;000.076;26;000.578;MIDI 01
1021.285;000.056;33;000.484;MIDI 01
1021.317;000.057;30;000.266;MIDI 01
1021.373;000.051;38;000.547;MIDI 01
1021.448;000.061;26;000.562;MIDI 01
1021.460;000.060;33;000.508;MIDI 01
1021.504;000.033;30;000.344;MIDI 01
1021.556;000.051;38;000.562;MIDI 01
1020.064;001.551;69;000.773;MIDI 01
1020.073;001.569;62;000.781;MIDI 01
1020.069;001.601;57;000.750;MIDI 01
1021.649;000.055;30;000.500;MIDI 01
1021.636;000.073;26;000.586;MIDI 01
1021.647;000.090;33;000.508;MIDI 01
1021.744;000.067;38;000.594;MIDI 01
1021.837;000.043;30;000.500;MIDI 01
1021.815;000.071;26;000.570;MIDI 01
1021.852;000.067;33;000.398;MIDI 01
1021.939;000.034;38;000.539;MIDI 01
1022.009;000.052;26;000.609;MIDI 01
1022.011;000.056;30;000.391;MIDI 01
1022.039;000.073;33;000.453;MIDI 01
1022.101;000.059;38;000.523;MIDI 01
1022.175;000.050;26;000.594;MIDI 01
1022.205;000.035;30;000.539;MIDI 01
1022.195;000.087;33;000.406;MIDI 01
1022.272;000.037;38;000.625;MIDI 01
1022.347;000.075;26;000.664;MIDI 01
1022.361;000.074;30;000.500;MIDI 01
1022.359;000.110;33;000.398;MIDI 01
1022.450;000.089;38;000.633;MIDI 01
1022.546;000.093;26;000.609;MIDI 01
1022.581;000.059;30;000.539;MIDI 01
1022.560;000.121;33;000.453;MIDI 01
1022.669;000.121;38;000.633;MIDI 01
1022.773;000.036;50;000.734;MIDI 01
1022.780;000.031;62;000.672;MIDI 01
1022.775;000.040;57;000.719;MIDI 01
1022.806;000.052;30;000.539;MIDI 01
1022.777;000.089;26;000.586;MIDI 01
1022.808;000.104;33;000.500;MIDI 01
1022.900;000.112;38;000.648;MIDI 01
1023.006;000.072;26;000.461;MIDI 01
1023.028;000.062;30;000.492;MIDI 01
1023.030;000.092;33;000.492;MIDI 01
1023.144;000.068;38;000.477;MIDI 01
1023.277;000.038;30;000.398;MIDI 01
1023.259;000.057;26;000.461;MIDI 01
1023.293;000.036;33;000.391;MIDI 01
1023.379;000.043;38;000.492;MIDI 01
1023.473;000.043;26;000.438;MIDI 01
1023.471;000.046;30;000.352;MIDI 01
1023.467;000.055;33;000.398;MIDI 01
1023.569;000.051;38;000.453;MIDI 01
1023.669;000.035;30;000.367;MIDI 01
1023.646;000.060;26;000.477;MIDI 01
1023.664;000.084;33;000.422;MIDI 01
1023.748;000.053;38;000.531;MIDI 01
1023.831;000.044;26;000.594;MIDI 01
1023.844;000.044;30;000.414;MIDI 01
1023.851;000.080;33;000.344;MIDI 01
1023.920;000.053;38;000.539;MIDI 01
1023.996;000.056;26;000.625;MIDI 01
1024.020;000.043;30;000.445;MIDI 01
1024.028;000.072;33;000.312;MIDI 01
1024.092;000.043;38;000.594;MIDI 01
1024.171;000.057;26;000.641;MIDI 01
1024.197;000.037;30;000.398;MIDI 01
1024.190;000.091;33;000.352;MIDI 01
1024.255;000.051;38;000.633;MIDI 01
1024.334;000.048;26;000.625;MIDI 01
1024.364;000.038;30;000.430;MIDI 01
1022.881;001.551;57;000.758;MIDI 01
1024.355;000.080;33;000.289;MIDI 01
1022.876;001.568;62;000.742;MIDI 01
1024.423;000.045;38;000.555;MIDI 01
1022.883;001.625;50;000.773;MIDI 01
1024.499;000.068;26;000.625;MIDI 01
1024.527;000.042;30;000.430;MIDI 01
1024.532;000.079;33;000.391;MIDI 01
1024.579;000.075;38;000.570;MIDI 01
1024.702;000.037;30;000.430;MIDI 01
1024.675;000.081;26;000.672;MIDI 01
1024.700;000.080;33;000.430;MIDI 01
1024.774;000.043;38;000.547;MIDI 01
1024.843;000.078;26;000.625;MIDI 01
1024.861;000.071;30;000.492;MIDI 01
1024.878;000.102;33;000.320;MIDI 01
1024.936;000.079;38;000.680;MIDI 01
1025.034;000.076;26;000.648;MIDI 01
1025.055;000.079;30;000.555;MIDI 01
1025.029;000.148;33;000.336;MIDI 01
1025.125;000.124;38;000.641;MIDI 01
1025.235;000.104;26;000.641;MIDI 01
1025.310;000.031;45;000.734;MIDI 01
1025.316;000.028;57;000.648;MIDI 01
1025.308;000.037;50;000.711;MIDI 01
1025.277;000.071;30;000.547;MIDI 01
1025.242;000.201;33;000.344;MIDI 01
1025.368;000.107;38;000.625;MIDI 01
1025.517;000.029;30;000.414;MIDI 01
1025.460;000.100;26;000.633;MIDI 01
1025.474;000.127;33;000.344;MIDI 01
1025.594;000.079;38;000.570;MIDI 01
1025.700;000.064;30;000.273;MIDI 01
1025.713;000.054;26;000.500;MIDI 01
1025.731;000.054;33;000.391;MIDI 01
1025.833;000.041;38;000.484;MIDI 01
1025.915;000.052;26;000.445;MIDI 01
1025.920;000.070;33;000.469;MIDI 01
1025.961;000.058;30;000.242;MIDI 01
1026.001;000.065;38;000.523;MIDI 01
1026.099;000.039;26;000.555;MIDI 01
1026.118;000.071;33;000.453;MIDI 01
1026.157;000.039;30;000.289;MIDI 01
1026.202;000.041;38;000.539;MIDI 01
1026.256;000.083;26;000.305;MIDI 01
1026.301;000.041;30;000.500;MIDI 01
1026.304;000.077;33;000.320;MIDI 01
1026.362;000.062;38;000.617;MIDI 01
1026.445;000.066;26;000.625;MIDI 01
1026.463;000.050;30;000.492;MIDI 01
1026.458;000.104;33;000.430;MIDI 01
1026.546;000.051;38;000.578;MIDI 01
1026.615;000.077;26;000.672;MIDI 01
1026.641;000.056;30;000.484;MIDI 01
1026.633;000.099;33;000.281;MIDI 01
1026.697;000.066;38;000.672;MIDI 01
1025.416;001.391;50;000.742;MIDI 01
1026.784;000.081;26;000.648;MIDI 01
1025.407;001.466;57;000.711;MIDI 01
1026.823;000.054;30;000.523;MIDI 01
1025.412;001.483;45;000.797;MIDI 01
1026.806;000.118;33;000.375;MIDI 01
1026.871;000.072;38;000.688;MIDI 01
1026.969;000.088;26;000.680;MIDI 01
1027.017;000.059;32;000.227;MIDI 01
1026.995;000.085;30;000.547;MIDI 01
1026.991;000.103;33;000.258;MIDI 01
1027.062;000.099;38;000.711;MIDI 01
1027.155;000.013;34;000.625;MIDI 01
1027.159;000.101;26;000.680;MIDI 01
1027.175;000.106;30;000.641;MIDI 01
1027.173;000.135;33;000.570;MIDI 01
1027.278;000.101;38;000.688;MIDI 01
1027.393;000.058;30;000.586;MIDI 01
1027.367;000.086;26;000.648;MIDI 01
1027.376;000.111;33;000.523;MIDI 01
1027.448;000.056;32;000.023;MIDI 01
1027.471;000.123;38;000.625;MIDI 01
1027.574;000.079;26;000.656;MIDI 01
1027.565;000.100;33;000.609;MIDI 01
1027.576;000.099;30;000.727;MIDI 01
1027.699;000.129;38;000.711;MIDI 01
1027.804;000.093;26;000.617;MIDI 01
1027.810;000.121;30;000.719;MIDI 01
1027.802;000.140;33;000.680;MIDI 01
1027.925;000.144;38;000.711;MIDI 01
1028.043;000.115;26;000.672;MIDI 01
1028.041;000.123;33;000.672;MIDI 01
1028.049;000.136;30;000.766;MIDI 01
1028.144;000.054;29;000.023;MIDI 01
1028.154;000.051;28;000.023;MIDI 01
1028.178;000.158;38;000.727;MIDI 01
1028.343;000.046;28;000.367;MIDI 01
1028.349;000.053;29;000.320;MIDI 01
1028.307;000.114;26;000.664;MIDI 01
1028.303;000.125;33;000.719;MIDI 01
1028.305;000.129;30;000.695;MIDI 01
1028.446;000.168;38;000.727;MIDI 01
1028.640;000.041;29;000.289;MIDI 01
1028.635;000.048;28;000.320;MIDI 01
1028.585;000.166;33;000.688;MIDI 01
1028.594;000.178;26;000.680;MIDI 01
1028.596;000.196;30;000.727;MIDI 01
1028.799;000.032;28;000.398;MIDI 01
1028.763;000.117;38;000.742;MIDI 01
1029.008;000.002;32;000.039;MIDI 01
1028.975;000.049;28;000.375;MIDI 01
1028.996;000.035;38;000.312;MIDI 01
1028.939;000.205;33;000.688;MIDI 01
1028.942;000.304;30;000.727;MIDI 01
1029.220;000.028;33;000.383;MIDI 01
1027.168;002.116;57;000.750;MIDI 01
1029.224;000.078;28;000.461;MIDI 01
1027.161;002.156;50;000.781;MIDI 01
1028.950;000.381;26;000.711;MIDI 01
1027.166;002.176;45;000.812;MIDI 01
1029.195;000.216;38;000.711;MIDI 01
1029.866;000.036;47;000.500;MIDI 01
1029.818;006.183;26;000.711;MIDI 01
1029.824;006.181;38;000.734;MIDI 01
1029.815;006.193;50;000.844;MIDI 01
1029.820;006.190;45;000.867;MIDI 01
1029.822;006.220;33;000.750;MIDI 01
