Start;Duration;Pitch;Velocity;Instrument
002.296;001.399;32;000.734;MIDI 01
002.298;001.404;44;000.781;MIDI 01
003.782;000.326;45;000.672;MIDI 01
003.780;000.517;33;000.609;MIDI 01
004.361;000.249;34;000.641;MIDI 01
004.369;000.246;46;000.766;MIDI 01
001.296;003.389;65;000.727;MIDI 01
001.302;003.430;56;000.703;MIDI 01
001.298;003.455;61;000.664;MIDI 01
001.300;003.471;53;000.766;MIDI 01
004.719;000.135;35;000.672;MIDI 01
004.715;000.189;47;000.742;MIDI 01
005.112;000.239;52;000.750;MIDI 01
005.108;000.291;64;000.789;MIDI 01
005.118;000.284;55;000.680;MIDI 01
005.115;000.297;48;000.734;MIDI 01
005.110;000.304;36;000.547;MIDI 01
005.116;000.316;60;000.648;MIDI 01
006.904;000.039;58;000.344;MIDI 01
008.272;001.524;42;000.727;MIDI 01
008.270;001.557;30;000.688;MIDI 01
009.863;000.317;43;000.672;MIDI 01
009.860;000.435;31;000.641;MIDI 01
010.491;000.255;44;000.766;MIDI 01
010.493;000.328;32;000.570;MIDI 01
006.858;004.190;63;000.719;MIDI 01
006.864;004.194;54;000.695;MIDI 01
006.860;004.264;51;000.781;MIDI 01
006.867;004.274;59;000.648;MIDI 01
010.927;000.269;45;000.742;MIDI 01
010.929;000.311;33;000.633;MIDI 01
011.637;000.325;50;000.727;MIDI 01
011.654;000.353;46;000.812;MIDI 01
011.652;000.389;34;000.664;MIDI 01
011.648;000.397;53;000.594;MIDI 01
011.634;000.476;62;000.688;MIDI 01
011.634;000.522;58;000.594;MIDI 01
014.757;000.067;34;000.242;MIDI 01
014.700;001.366;28;000.680;MIDI 01
014.695;001.398;40;000.711;MIDI 01
016.295;000.294;41;000.672;MIDI 01
016.298;000.391;29;000.602;MIDI 01
016.986;000.244;42;000.711;MIDI 01
016.991;000.256;30;000.672;MIDI 01
017.386;000.127;29;000.547;MIDI 01
017.383;000.161;31;000.539;MIDI 01
013.568;004.000;57;000.648;MIDI 01
013.561;004.048;52;000.711;MIDI 01
017.370;000.242;43;000.719;MIDI 01
013.557;004.092;61;000.680;MIDI 01
013.551;004.165;49;000.742;MIDI 01
017.853;000.254;49;000.734;MIDI 01
017.851;000.312;44;000.773;MIDI 01
017.857;000.332;32;000.609;MIDI 01
017.861;000.330;52;000.680;MIDI 01
017.864;000.411;40;000.625;MIDI 01
017.859;000.447;56;000.664;MIDI 01
017.855;000.514;61;000.680;MIDI 01
020.845;001.270;28;000.695;MIDI 01
020.837;001.372;40;000.727;MIDI 01
022.414;000.310;41;000.680;MIDI 01
022.418;000.571;29;000.586;MIDI 01
022.989;000.254;42;000.711;MIDI 01
022.993;000.254;30;000.609;MIDI 01
023.387;000.164;31;000.656;MIDI 01
023.391;000.245;43;000.734;MIDI 01
019.702;003.940;52;000.680;MIDI 01
019.701;003.948;61;000.711;MIDI 01
019.699;003.958;49;000.742;MIDI 01
019.704;003.958;57;000.656;MIDI 01
023.891;000.208;49;000.719;MIDI 01
023.898;000.214;44;000.773;MIDI 01
023.901;000.256;52;000.656;MIDI 01
023.905;000.258;40;000.656;MIDI 01
023.892;000.315;61;000.711;MIDI 01
023.903;000.306;32;000.641;MIDI 01
023.899;000.352;56;000.625;MIDI 01
025.009;001.372;61;000.797;MIDI 01
025.016;001.446;49;000.688;MIDI 01
025.031;001.624;37;000.656;MIDI 01
026.628;000.192;48;000.609;MIDI 01
026.619;000.215;60;000.656;MIDI 01
026.632;000.220;36;000.625;MIDI 01
027.477;000.964;47;000.625;MIDI 01
027.475;001.561;35;000.656;MIDI 01
027.462;001.609;59;000.711;MIDI 01
029.038;000.143;46;000.523;MIDI 01
029.019;000.275;58;000.602;MIDI 01
029.031;000.286;34;000.570;MIDI 01
029.882;001.089;45;000.570;MIDI 01
029.868;001.573;33;000.617;MIDI 01
029.870;001.634;57;000.648;MIDI 01
031.503;000.249;32;000.484;MIDI 01
031.482;000.277;56;000.547;MIDI 01
031.501;000.283;44;000.469;MIDI 01
032.415;001.825;43;000.383;MIDI 01
032.411;001.875;31;000.438;MIDI 01
032.380;002.008;55;000.539;MIDI 01
034.214;000.249;40;000.305;MIDI 01
034.197;000.365;28;000.305;MIDI 01
034.178;000.419;52;000.398;MIDI 01
035.226;000.519;37;000.156;MIDI 01
035.208;001.840;25;000.258;MIDI 01
035.181;001.905;49;000.398;MIDI 01
036.980;000.224;24;000.289;MIDI 01
036.962;000.246;48;000.328;MIDI 01
037.008;000.280;36;000.156;MIDI 01
037.880;001.651;47;000.297;MIDI 01
037.938;001.629;35;000.125;MIDI 01
039.484;000.225;34;000.180;MIDI 01
039.470;000.326;46;000.266;MIDI 01
040.431;001.723;33;000.211;MIDI 01
040.406;001.823;45;000.219;MIDI 01
042.062;000.429;32;000.125;MIDI 01
042.065;000.452;44;000.211;MIDI 01
043.230;000.398;31;000.258;MIDI 01
043.232;000.400;43;000.305;MIDI 01
043.655;000.089;44;000.203;MIDI 01
043.638;000.154;32;000.242;MIDI 01
043.801;000.117;43;000.297;MIDI 01
043.824;000.103;31;000.273;MIDI 01
043.884;000.106;44;000.125;MIDI 01
043.946;000.056;43;000.172;MIDI 01
043.971;000.058;32;000.188;MIDI 01
043.995;000.071;44;000.094;MIDI 01
044.029;000.079;31;000.266;MIDI 01
044.105;000.052;43;000.242;MIDI 01
044.166;000.057;32;000.219;MIDI 01
044.151;000.115;44;000.320;MIDI 01
044.235;000.073;31;000.266;MIDI 01
044.260;000.078;43;000.195;MIDI 01
044.293;000.110;44;000.211;MIDI 01
044.353;000.098;32;000.047;MIDI 01
044.394;000.070;31;000.273;MIDI 01
044.372;000.117;43;000.172;MIDI 01
044.428;000.077;44;000.258;MIDI 01
044.484;000.055;32;000.141;MIDI 01
044.514;000.062;43;000.242;MIDI 01
044.569;000.048;44;000.312;MIDI 01
044.566;000.066;31;000.289;MIDI 01
044.681;000.089;43;000.078;MIDI 01
044.726;000.098;44;000.312;MIDI 01
044.739;000.119;31;000.273;MIDI 01
044.800;000.083;43;000.180;MIDI 01
044.854;000.086;44;000.195;MIDI 01
044.882;000.067;31;000.258;MIDI 01
044.911;000.066;43;000.250;MIDI 01
045.000;000.047;32;000.234;MIDI 01
044.966;000.122;44;000.281;MIDI 01
045.060;000.042;43;000.242;MIDI 01
045.051;000.061;31;000.312;MIDI 01
045.112;000.052;44;000.234;MIDI 01
045.186;000.091;43;000.312;MIDI 01
045.216;000.111;31;000.273;MIDI 01
045.244;000.091;44;000.297;MIDI 01
045.302;000.048;43;000.281;MIDI 01
045.355;000.043;44;000.297;MIDI 01
045.350;000.070;31;000.289;MIDI 01
045.448;000.034;43;000.328;MIDI 01
045.452;000.052;32;000.344;MIDI 01
045.539;000.050;31;000.312;MIDI 01
045.614;000.076;43;000.180;MIDI 01
045.674;000.057;31;000.344;MIDI 01
045.694;000.045;43;000.164;MIDI 01
045.628;000.113;32;000.227;MIDI 01
045.731;000.047;44;000.359;MIDI 01
045.765;000.050;32;000.242;MIDI 01
045.855;000.047;31;000.359;MIDI 01
045.956;000.052;32;000.305;MIDI 01
045.932;000.078;44;000.305;MIDI 01
046.057;000.106;31;000.289;MIDI 01
046.003;000.183;43;000.211;MIDI 01
046.179;000.076;42;000.336;MIDI 01
046.173;000.099;30;000.414;MIDI 01
046.324;000.062;43;000.367;MIDI 01
046.336;000.058;31;000.344;MIDI 01
046.435;000.046;44;000.398;MIDI 01
046.433;000.057;32;000.359;MIDI 01
046.544;000.043;45;000.422;MIDI 01
046.540;000.070;33;000.406;MIDI 01
046.629;000.041;46;000.406;MIDI 01
046.632;000.139;34;000.438;MIDI 01
046.728;000.090;47;000.477;MIDI 01
046.764;000.083;35;000.305;MIDI 01
046.814;000.068;36;000.500;MIDI 01
046.816;000.140;48;000.508;MIDI 01
046.933;000.104;49;000.523;MIDI 01
046.993;000.061;37;000.516;MIDI 01
047.075;000.095;39;000.508;MIDI 01
047.045;000.179;51;000.508;MIDI 01
047.199;000.101;37;000.406;MIDI 01
047.171;000.236;49;000.578;MIDI 01
047.294;000.134;48;000.539;MIDI 01
047.334;000.128;36;000.445;MIDI 01
047.462;000.180;47;000.484;MIDI 01
047.474;000.206;35;000.461;MIDI 01
047.663;000.283;46;000.430;MIDI 01
047.936;000.252;45;000.375;MIDI 01
047.678;000.552;34;000.375;MIDI 01
047.953;000.351;33;000.312;MIDI 01
048.225;000.415;32;000.305;MIDI 01
048.217;000.518;44;000.344;MIDI 01
048.582;000.597;31;000.266;MIDI 01
048.558;000.738;43;000.320;MIDI 01
049.123;000.775;37;000.258;MIDI 01
049.792;000.569;48;000.305;MIDI 01
049.118;001.246;49;000.234;MIDI 01
049.806;000.580;36;000.203;MIDI 01
050.210;000.345;47;000.180;MIDI 01
050.200;000.422;35;000.234;MIDI 01
050.534;000.344;34;000.258;MIDI 01
050.554;000.326;46;000.273;MIDI 01
050.864;000.420;45;000.305;MIDI 01
050.884;000.468;33;000.258;MIDI 01
051.268;000.571;32;000.219;MIDI 01
051.264;000.595;44;000.289;MIDI 01
051.759;000.764;43;000.258;MIDI 01
051.748;000.805;31;000.234;MIDI 01
052.444;000.379;30;000.234;MIDI 01
052.440;000.389;42;000.266;MIDI 01
054.240;000.271;41;000.273;MIDI 01
054.251;000.271;29;000.234;MIDI 01
056.141;001.747;65;000.258;MIDI 01
057.824;000.357;64;000.227;MIDI 01
056.982;001.201;73;000.398;MIDI 01
058.198;000.231;72;000.344;MIDI 01
058.622;000.368;72;000.305;MIDI 01
058.640;001.800;63;000.250;MIDI 01
059.516;001.274;67;000.375;MIDI 01
060.357;000.493;62;000.250;MIDI 01
060.749;000.210;65;000.320;MIDI 01
061.174;000.374;65;000.383;MIDI 01
061.216;001.844;61;000.266;MIDI 01
062.950;000.609;60;000.242;MIDI 01
062.086;001.679;70;000.391;MIDI 01
063.367;000.552;67;000.328;MIDI 01
063.809;000.415;64;000.367;MIDI 01
063.842;002.011;60;000.164;MIDI 01
064.809;001.073;70;000.359;MIDI 01
064.799;001.386;79;000.469;MIDI 01
065.784;000.553;65;000.203;MIDI 01
066.195;000.198;77;000.359;MIDI 01
065.759;000.641;68;000.188;MIDI 01
066.659;000.375;77;000.398;MIDI 01
066.684;000.439;68;000.258;MIDI 01
066.688;001.884;65;000.289;MIDI 01
067.621;001.306;73;000.453;MIDI 01
068.503;000.496;64;000.227;MIDI 01
068.923;000.215;72;000.344;MIDI 01
069.382;000.459;72;000.383;MIDI 01
070.332;000.506;67;000.375;MIDI 01
069.411;001.914;63;000.242;MIDI 01
070.282;001.418;79;000.516;MIDI 01
071.211;000.557;68;000.297;MIDI 01
071.643;000.207;77;000.445;MIDI 01
071.230;000.704;62;000.250;MIDI 01
072.167;000.335;70;000.328;MIDI 01
072.129;000.449;77;000.414;MIDI 01
073.118;000.910;77;000.398;MIDI 01
072.159;001.893;61;000.312;MIDI 01
074.001;000.533;60;000.172;MIDI 01
074.007;000.616;76;000.250;MIDI 01
074.411;000.539;79;000.375;MIDI 01
073.092;001.941;82;000.516;MIDI 01
074.871;000.537;76;000.352;MIDI 01
074.892;001.876;60;000.250;MIDI 01
075.880;001.096;76;000.406;MIDI 01
075.872;001.106;85;000.508;MIDI 01
075.874;001.419;82;000.414;MIDI 01
077.228;000.165;77;000.305;MIDI 01
077.208;000.205;84;000.383;MIDI 01
076.781;000.649;65;000.188;MIDI 01
077.245;000.193;80;000.312;MIDI 01
077.653;000.109;84;000.344;MIDI 01
077.672;000.098;80;000.281;MIDI 01
077.681;000.091;77;000.250;MIDI 01
077.689;000.428;65;000.219;MIDI 01
078.124;000.898;68;000.344;MIDI 01
078.536;000.487;65;000.250;MIDI 01
078.951;000.428;70;000.375;MIDI 01
079.383;000.254;72;000.336;MIDI 01
079.353;000.634;64;000.266;MIDI 01
080.265;000.628;63;000.227;MIDI 01
080.267;000.633;67;000.297;MIDI 01
080.701;000.608;72;000.445;MIDI 01
079.835;001.543;73;000.461;MIDI 01
081.100;000.489;69;000.484;MIDI 01
081.109;000.955;63;000.281;MIDI 01
081.498;000.605;72;000.492;MIDI 01
081.931;000.683;74;000.438;MIDI 01
082.362;000.449;76;000.516;MIDI 01
081.970;000.853;62;000.344;MIDI 01
081.954;001.355;70;000.453;MIDI 01
082.777;000.550;77;000.539;MIDI 01
082.780;000.595;61;000.367;MIDI 01
083.210;000.581;65;000.453;MIDI 01
084.030;000.118;67;000.508;MIDI 01
083.618;000.581;77;000.516;MIDI 01
083.646;000.576;61;000.258;MIDI 01
083.631;000.608;70;000.422;MIDI 01
084.619;000.551;71;000.305;MIDI 01
084.633;000.578;61;000.281;MIDI 01
084.575;000.701;77;000.523;MIDI 01
084.611;000.669;68;000.391;MIDI 01
085.217;000.192;76;000.461;MIDI 01
085.685;000.212;67;000.359;MIDI 01
085.706;000.378;72;000.289;MIDI 01
085.640;000.468;76;000.438;MIDI 01
085.682;000.510;60;000.219;MIDI 01
086.097;000.438;70;000.406;MIDI 01
086.523;000.370;76;000.414;MIDI 01
086.934;000.552;72;000.445;MIDI 01
086.518;001.036;60;000.312;MIDI 01
087.484;000.749;65;000.305;MIDI 01
086.493;001.930;84;000.609;MIDI 01
088.636;000.514;65;000.297;MIDI 01
088.184;000.981;82;000.508;MIDI 01
089.060;000.819;81;000.461;MIDI 01
087.475;002.457;73;000.367;MIDI 01
087.477;002.474;77;000.367;MIDI 01
089.461;000.893;65;000.250;MIDI 01
089.884;000.776;80;000.445;MIDI 01
090.326;000.912;64;000.219;MIDI 01
091.178;000.511;63;000.234;MIDI 01
090.336;001.369;70;000.219;MIDI 01
090.322;001.458;73;000.297;MIDI 01
090.770;001.064;79;000.438;MIDI 01
092.029;000.086;72;000.281;MIDI 01
091.595;000.832;78;000.422;MIDI 01
092.008;000.491;69;000.273;MIDI 01
092.119;000.533;72;000.023;MIDI 01
091.999;000.948;63;000.289;MIDI 01
092.423;000.908;77;000.344;MIDI 01
092.868;000.620;70;000.328;MIDI 01
092.867;000.956;62;000.312;MIDI 01
093.309;000.536;76;000.445;MIDI 01
093.742;000.550;61;000.336;MIDI 01
093.733;000.782;77;000.461;MIDI 01
094.143;000.879;80;000.523;MIDI 01
093.761;001.334;70;000.297;MIDI 01
094.555;000.549;79;000.508;MIDI 01
094.569;000.619;61;000.258;MIDI 01
095.445;000.203;68;000.312;MIDI 01
094.985;000.686;77;000.508;MIDI 01
095.905;000.082;65;000.312;MIDI 01
095.439;000.590;60;000.156;MIDI 01
095.869;000.176;73;000.422;MIDI 01
096.285;000.202;64;000.391;MIDI 01
096.281;000.444;72;000.391;MIDI 01
096.322;000.549;60;000.242;MIDI 01
096.718;000.444;76;000.438;MIDI 01
096.731;000.439;67;000.328;MIDI 01
097.126;000.098;70;000.383;MIDI 01
097.127;000.105;79;000.430;MIDI 01
097.157;000.715;60;000.172;MIDI 01
097.547;000.953;79;000.516;MIDI 01
098.443;000.118;67;000.344;MIDI 01
098.002;000.570;65;000.352;MIDI 01
097.556;001.060;70;000.492;MIDI 01
098.407;000.607;76;000.430;MIDI 01
098.802;000.411;77;000.492;MIDI 01
098.838;000.389;68;000.398;MIDI 01
098.843;000.430;65;000.328;MIDI 01
099.211;000.117;72;000.469;MIDI 01
099.201;000.181;80;000.539;MIDI 01
099.611;000.121;73;000.508;MIDI 01
099.607;000.129;82;000.508;MIDI 01
099.646;000.951;65;000.289;MIDI 01
100.060;000.824;73;000.500;MIDI 01
100.050;000.996;82;000.547;MIDI 01
100.894;000.178;70;000.469;MIDI 01
100.925;000.396;79;000.383;MIDI 01
100.493;000.910;64;000.359;MIDI 01
101.322;000.193;72;000.438;MIDI 01
101.294;000.410;81;000.555;MIDI 01
101.698;000.159;73;000.484;MIDI 01
101.325;000.629;63;000.352;MIDI 01
101.686;000.561;82;000.602;MIDI 01
102.106;000.205;75;000.539;MIDI 01
102.140;000.462;63;000.375;MIDI 01
102.094;000.511;84;000.586;MIDI 01
102.509;000.125;78;000.492;MIDI 01
102.504;000.224;81;000.617;MIDI 01
103.040;000.175;82;000.547;MIDI 01
103.254;000.041;84;000.516;MIDI 01
103.374;000.027;82;000.383;MIDI 01
103.398;000.046;84;000.477;MIDI 01
103.479;000.021;82;000.453;MIDI 01
102.936;000.616;62;000.336;MIDI 01
103.520;000.050;84;000.492;MIDI 01
103.595;000.036;82;000.508;MIDI 01
103.631;000.048;84;000.531;MIDI 01
103.028;000.722;77;000.484;MIDI 01
103.737;000.034;82;000.305;MIDI 01
103.537;000.324;65;000.289;MIDI 01
103.755;000.119;84;000.500;MIDI 01
103.823;000.071;82;000.461;MIDI 01
103.894;000.112;84;000.445;MIDI 01
103.991;000.041;82;000.445;MIDI 01
104.031;000.101;84;000.352;MIDI 01
103.915;000.241;78;000.539;MIDI 01
104.130;000.065;82;000.555;MIDI 01
104.202;000.084;84;000.406;MIDI 01
104.287;000.038;82;000.508;MIDI 01
103.920;000.467;70;000.344;MIDI 01
104.349;000.076;84;000.430;MIDI 01
104.433;000.047;82;000.539;MIDI 01
103.892;000.596;61;000.320;MIDI 01
104.321;000.222;80;000.516;MIDI 01
104.527;000.087;84;000.391;MIDI 01
104.615;000.039;82;000.508;MIDI 01
104.315;000.370;72;000.422;MIDI 01
104.759;000.046;82;000.414;MIDI 01
104.692;000.129;84;000.297;MIDI 01
104.852;000.081;84;000.188;MIDI 01
104.710;000.305;78;000.445;MIDI 01
104.929;000.104;82;000.391;MIDI 01
104.708;000.411;70;000.352;MIDI 01
105.088;000.109;68;000.383;MIDI 01
105.059;000.143;84;000.406;MIDI 01
105.138;000.112;82;000.344;MIDI 01
104.698;000.631;61;000.336;MIDI 01
105.133;000.199;77;000.242;MIDI 01
105.279;000.131;80;000.445;MIDI 01
105.419;000.368;82;000.453;MIDI 01
105.746;000.435;76;000.422;MIDI 01
105.782;000.827;60;000.180;MIDI 01
105.717;000.916;84;000.453;MIDI 01
105.765;000.991;68;000.203;MIDI 01
106.503;000.455;77;000.297;MIDI 01
106.926;000.589;67;000.289;MIDI 01
107.373;000.146;76;000.438;MIDI 01
106.466;001.065;85;000.461;MIDI 01
106.963;000.596;60;000.148;MIDI 01
107.342;000.526;84;000.516;MIDI 01
107.792;000.185;77;000.367;MIDI 01
107.777;000.478;85;000.492;MIDI 01
107.371;000.893;68;000.328;MIDI 01
108.253;000.100;67;000.289;MIDI 01
107.772;000.604;60;000.250;MIDI 01
108.211;000.439;84;000.453;MIDI 01
108.248;000.522;76;000.336;MIDI 01
108.649;000.569;65;000.422;MIDI 01
109.529;000.428;65;000.328;MIDI 01
109.119;000.944;73;000.453;MIDI 01
109.092;000.979;82;000.562;MIDI 01
109.951;000.458;80;000.430;MIDI 01
109.972;000.555;72;000.289;MIDI 01
110.396;000.504;65;000.289;MIDI 01
110.388;000.548;82;000.391;MIDI 01
110.382;000.697;73;000.367;MIDI 01
110.832;000.614;80;000.406;MIDI 01
110.845;000.661;72;000.312;MIDI 01
111.273;000.878;64;000.359;MIDI 01
111.730;000.906;80;000.492;MIDI 01
112.149;000.510;63;000.273;MIDI 01
111.726;001.007;72;000.383;MIDI 01
112.579;000.448;79;000.406;MIDI 01
112.592;000.553;70;000.352;MIDI 01
113.017;000.412;72;000.281;MIDI 01
112.998;000.487;80;000.430;MIDI 01
113.019;000.485;63;000.273;MIDI 01
113.422;000.531;79;000.398;MIDI 01
113.468;000.681;70;000.305;MIDI 01
113.850;000.950;62;000.422;MIDI 01
114.323;000.954;79;000.375;MIDI 01
114.761;000.577;61;000.266;MIDI 01
114.315;001.033;70;000.375;MIDI 01
115.182;000.447;77;000.359;MIDI 01
115.213;000.528;68;000.336;MIDI 01
115.639;000.427;61;000.289;MIDI 01
115.628;000.491;79;000.422;MIDI 01
115.625;000.551;70;000.367;MIDI 01
116.051;000.609;77;000.414;MIDI 01
116.111;000.561;68;000.234;MIDI 01
116.476;000.833;59;000.336;MIDI 01
116.918;000.666;68;000.289;MIDI 01
116.893;000.895;77;000.398;MIDI 01
117.299;000.560;60;000.336;MIDI 01
117.715;000.410;76;000.461;MIDI 01
117.752;000.389;67;000.297;MIDI 01
118.159;000.504;70;000.320;MIDI 01
118.201;000.496;60;000.070;MIDI 01
118.150;000.555;79;000.422;MIDI 01
118.617;000.550;68;000.289;MIDI 01
118.576;000.601;77;000.422;MIDI 01
119.050;000.845;65;000.438;MIDI 01
120.121;000.462;65;000.289;MIDI 01
119.595;001.112;73;000.469;MIDI 01
120.533;000.483;72;000.328;MIDI 01
120.953;000.479;71;000.367;MIDI 01
120.940;000.600;65;000.297;MIDI 01
121.358;000.523;73;000.438;MIDI 01
121.790;000.616;64;000.289;MIDI 01
122.227;000.883;80;000.531;MIDI 01
122.619;000.519;63;000.344;MIDI 01
121.771;001.391;72;000.445;MIDI 01
123.035;000.505;79;000.484;MIDI 01
123.449;000.393;72;000.422;MIDI 01
123.451;000.536;78;000.492;MIDI 01
123.469;000.677;63;000.367;MIDI 01
123.872;000.480;81;000.562;MIDI 01
124.309;000.655;77;000.445;MIDI 01
124.290;000.683;82;000.555;MIDI 01
124.333;000.969;62;000.336;MIDI 01
124.777;000.984;83;000.586;MIDI 01
125.230;000.557;77;000.367;MIDI 01
125.253;000.595;61;000.305;MIDI 01
125.661;000.550;84;000.445;MIDI 01
126.091;000.527;82;000.477;MIDI 01
126.093;000.715;61;000.250;MIDI 01
126.115;001.473;77;000.320;MIDI 01
126.566;001.061;80;000.453;MIDI 01
127.071;000.602;60;000.258;MIDI 01
127.566;000.452;79;000.289;MIDI 01
127.570;000.471;82;000.328;MIDI 01
127.984;000.405;80;000.359;MIDI 01
128.009;000.382;77;000.258;MIDI 01
128.400;000.074;76;000.391;MIDI 01
127.993;000.492;60;000.227;MIDI 01
128.390;000.098;79;000.430;MIDI 01
128.891;000.507;60;000.242;MIDI 01
128.866;000.631;84;000.414;MIDI 01
129.419;000.780;82;000.328;MIDI 01
128.940;001.621;75;000.148;MIDI 01
130.072;000.639;81;000.344;MIDI 01
130.094;000.665;65;000.148;MIDI 01
130.700;000.132;74;000.344;MIDI 01
130.836;000.357;74;000.031;MIDI 01
131.150;000.369;73;000.281;MIDI 01
131.194;000.379;65;000.086;MIDI 01
131.573;000.446;72;000.234;MIDI 01
132.026;000.403;65;000.109;MIDI 01
131.129;001.387;82;000.359;MIDI 01
132.429;000.451;80;000.344;MIDI 01
132.009;001.268;73;000.242;MIDI 01
132.866;000.522;64;000.273;MIDI 01
133.291;000.475;72;000.305;MIDI 01
132.850;000.957;79;000.406;MIDI 01
133.722;000.402;70;000.375;MIDI 01
133.758;000.451;63;000.211;MIDI 01
134.161;000.397;69;000.250;MIDI 01
134.586;000.439;70;000.281;MIDI 01
133.706;001.691;78;000.430;MIDI 01
134.592;000.919;63;000.188;MIDI 01
135.012;000.800;71;000.328;MIDI 01
135.453;000.581;62;000.281;MIDI 01
135.859;000.223;70;000.320;MIDI 01
135.441;000.936;77;000.430;MIDI 01
136.335;000.365;68;000.242;MIDI 01
136.322;000.443;61;000.273;MIDI 01
136.747;000.430;67;000.328;MIDI 01
137.186;000.404;68;000.289;MIDI 01
137.199;000.417;64;000.242;MIDI 01
137.184;000.453;61;000.281;MIDI 01
137.613;000.462;69;000.297;MIDI 01
137.615;000.506;66;000.281;MIDI 01
138.056;000.465;70;000.281;MIDI 01
136.303;002.325;76;000.406;MIDI 01
138.061;000.615;67;000.258;MIDI 01
138.594;000.108;69;000.273;MIDI 01
138.088;000.632;61;000.219;MIDI 01
138.541;000.783;72;000.328;MIDI 01
139.256;000.289;76;000.383;MIDI 01
139.619;000.059;77;000.203;MIDI 01
139.722;000.035;76;000.352;MIDI 01
139.826;000.060;77;000.227;MIDI 01
139.865;000.047;76;000.492;MIDI 01
139.952;000.049;77;000.281;MIDI 01
139.283;000.759;73;000.289;MIDI 01
140.025;000.029;76;000.445;MIDI 01
140.090;000.055;77;000.398;MIDI 01
140.171;000.033;76;000.461;MIDI 01
140.243;000.036;77;000.367;MIDI 01
139.292;001.007;70;000.281;MIDI 01
140.332;000.040;76;000.328;MIDI 01
140.372;000.053;77;000.414;MIDI 01
140.474;000.083;76;000.258;MIDI 01
140.514;000.082;77;000.367;MIDI 01
140.561;000.068;76;000.203;MIDI 01
140.614;000.065;77;000.336;MIDI 01
140.686;000.052;76;000.344;MIDI 01
140.286;000.491;72;000.180;MIDI 01
140.770;000.057;77;000.281;MIDI 01
140.831;000.040;76;000.359;MIDI 01
140.278;000.625;69;000.336;MIDI 01
140.909;000.104;77;000.195;MIDI 01
140.968;000.096;76;000.312;MIDI 01
141.092;000.091;76;000.188;MIDI 01
141.218;000.125;76;000.195;MIDI 01
141.368;000.115;76;000.242;MIDI 01
141.502;000.050;76;000.320;MIDI 01
141.018;000.539;77;000.078;MIDI 01
141.658;000.043;76;000.320;MIDI 01
141.278;000.493;71;000.172;MIDI 01
141.790;000.041;76;000.336;MIDI 01
141.273;000.590;68;000.195;MIDI 01
141.560;000.417;77;000.172;MIDI 01
141.964;000.076;76;000.234;MIDI 01
141.981;000.139;77;000.094;MIDI 01
142.067;000.059;76;000.219;MIDI 01
142.244;000.054;76;000.312;MIDI 01
142.124;000.321;77;000.156;MIDI 01
142.423;000.036;76;000.305;MIDI 01
142.476;000.130;77;000.133;MIDI 01
142.597;000.037;76;000.344;MIDI 01
142.266;000.518;70;000.211;MIDI 01
142.641;000.145;77;000.117;MIDI 01
142.775;000.040;76;000.344;MIDI 01
142.264;000.636;67;000.227;MIDI 01
142.253;000.675;61;000.273;MIDI 01
142.876;000.074;77;000.148;MIDI 01
142.964;000.052;76;000.359;MIDI 01
143.171;000.066;76;000.352;MIDI 01
143.298;000.124;77;000.219;MIDI 01
143.442;000.090;76;000.227;MIDI 01
143.592;000.108;77;000.211;MIDI 01
143.716;000.101;76;000.289;MIDI 01
143.871;000.180;77;000.242;MIDI 01
143.351;000.850;70;000.203;MIDI 01
144.055;000.226;76;000.281;MIDI 01
143.345;001.120;67;000.227;MIDI 01
144.319;000.347;74;000.273;MIDI 01
143.350;001.338;60;000.203;MIDI 01
144.645;000.558;76;000.312;MIDI 01
145.190;000.257;77;000.320;MIDI 01
145.215;000.323;68;000.141;MIDI 01
145.188;000.429;65;000.195;MIDI 01
145.903;000.219;72;000.383;MIDI 01
145.925;000.268;68;000.289;MIDI 01
145.895;000.352;80;000.453;MIDI 01
146.819;000.104;40;000.195;MIDI 01
146.802;000.231;52;000.297;MIDI 01
146.384;000.812;79;000.547;MIDI 01
146.407;000.923;67;000.383;MIDI 01
146.400;000.944;71;000.438;MIDI 01
146.927;000.448;40;000.023;MIDI 01
147.219;000.517;53;000.375;MIDI 01
147.621;000.150;62;000.422;MIDI 01
147.634;000.141;68;000.359;MIDI 01
147.620;000.188;71;000.492;MIDI 01
147.229;000.804;41;000.391;MIDI 01
148.032;000.134;60;000.414;MIDI 01
148.023;000.174;67;000.453;MIDI 01
148.028;000.179;72;000.500;MIDI 01
148.040;000.480;52;000.320;MIDI 01
148.026;000.533;40;000.336;MIDI 01
148.461;000.224;70;000.445;MIDI 01
148.468;000.221;66;000.422;MIDI 01
148.446;000.245;78;000.570;MIDI 01
149.316;000.183;50;000.359;MIDI 01
149.318;000.370;38;000.344;MIDI 01
148.898;000.895;77;000.555;MIDI 01
148.904;000.951;65;000.492;MIDI 01
148.902;000.968;69;000.508;MIDI 01
150.118;000.138;60;000.414;MIDI 01
150.108;000.186;66;000.461;MIDI 01
149.727;000.576;51;000.414;MIDI 01
149.725;000.769;39;000.367;MIDI 01
150.110;000.515;69;000.461;MIDI 01
150.555;000.153;58;000.422;MIDI 01
150.551;000.200;65;000.422;MIDI 01
150.543;000.260;70;000.539;MIDI 01
150.548;000.473;50;000.367;MIDI 01
150.553;000.600;38;000.312;MIDI 01
150.984;000.223;66;000.492;MIDI 01
150.973;000.245;78;000.578;MIDI 01
151.791;000.094;48;000.375;MIDI 01
151.799;000.376;36;000.320;MIDI 01
151.383;000.832;77;000.609;MIDI 01
151.401;000.883;65;000.508;MIDI 01
151.393;000.896;70;000.516;MIDI 01
152.597;000.146;65;000.391;MIDI 01
152.615;000.146;58;000.375;MIDI 01
152.590;000.226;70;000.516;MIDI 01
152.190;000.972;37;000.398;MIDI 01
152.176;000.990;49;000.469;MIDI 01
153.398;000.169;53;000.484;MIDI 01
153.011;000.833;59;000.438;MIDI 01
153.420;000.479;41;000.367;MIDI 01
152.997;000.914;71;000.500;MIDI 01
153.004;000.924;68;000.477;MIDI 01
153.018;000.918;65;000.328;MIDI 01
153.778;000.170;52;000.523;MIDI 01
153.784;000.341;40;000.492;MIDI 01
154.172;000.152;51;000.508;MIDI 01
154.156;000.184;68;000.492;MIDI 01
154.164;000.183;59;000.508;MIDI 01
154.174;000.183;65;000.469;MIDI 01
154.171;000.195;39;000.477;MIDI 01
154.153;000.220;71;000.578;MIDI 01
154.562;000.118;65;000.469;MIDI 01
154.543;000.178;71;000.555;MIDI 01
154.551;000.183;59;000.516;MIDI 01
154.570;000.192;49;000.531;MIDI 01
154.585;000.297;37;000.445;MIDI 01
154.939;000.109;36;000.406;MIDI 01
154.948;000.106;48;000.445;MIDI 01
154.950;000.109;60;000.430;MIDI 01
154.924;000.152;64;000.500;MIDI 01
154.565;000.526;67;000.516;MIDI 01
154.933;000.160;72;000.562;MIDI 01
155.336;000.172;72;000.555;MIDI 01
155.348;000.169;60;000.484;MIDI 01
155.359;000.172;65;000.414;MIDI 01
155.356;000.185;68;000.438;MIDI 01
155.429;000.382;41;000.133;MIDI 01
155.378;000.436;53;000.305;MIDI 01
155.804;000.314;60;000.250;MIDI 01
155.806;000.349;65;000.234;MIDI 01
155.771;000.407;68;000.414;MIDI 01
156.146;000.487;53;000.195;MIDI 01
156.155;000.511;41;000.148;MIDI 01
156.589;000.285;59;000.273;MIDI 01
156.571;000.322;62;000.336;MIDI 01
156.559;000.402;67;000.406;MIDI 01
156.941;000.439;53;000.367;MIDI 01
157.325;000.105;67;000.438;MIDI 01
157.333;000.107;62;000.422;MIDI 01
157.322;000.125;71;000.469;MIDI 01
156.953;000.589;41;000.328;MIDI 01
157.702;000.119;72;000.492;MIDI 01
157.715;000.108;67;000.383;MIDI 01
157.707;000.118;60;000.469;MIDI 01
157.726;000.337;52;000.367;MIDI 01
157.724;000.380;40;000.328;MIDI 01
158.104;000.343;67;000.422;MIDI 01
158.123;000.376;61;000.383;MIDI 01
158.139;000.364;58;000.320;MIDI 01
158.488;000.472;51;000.383;MIDI 01
158.491;000.478;39;000.367;MIDI 01
158.906;000.223;57;000.336;MIDI 01
158.912;000.342;60;000.328;MIDI 01
158.897;000.414;65;000.453;MIDI 01
159.269;000.380;51;000.477;MIDI 01
159.277;000.451;39;000.445;MIDI 01
159.655;000.076;60;000.430;MIDI 01
159.653;000.089;65;000.477;MIDI 01
159.637;000.110;69;000.578;MIDI 01
160.033;000.214;58;000.453;MIDI 01
160.021;000.246;70;000.547;MIDI 01
160.031;000.239;65;000.430;MIDI 01
160.047;000.390;50;000.344;MIDI 01
160.035;000.432;38;000.391;MIDI 01
160.457;000.336;58;000.312;MIDI 01
160.442;000.376;70;000.430;MIDI 01
160.455;000.393;66;000.352;MIDI 01
160.822;000.504;49;000.352;MIDI 01
160.827;000.569;37;000.328;MIDI 01
161.251;000.505;58;000.375;MIDI 01
161.243;000.790;67;000.453;MIDI 01
161.230;000.843;70;000.445;MIDI 01
162.006;000.078;65;000.438;MIDI 01
161.615;000.473;49;000.438;MIDI 01
161.594;000.501;37;000.398;MIDI 01
161.982;000.116;58;000.398;MIDI 01
161.984;000.124;68;000.516;MIDI 01
162.391;000.355;65;000.453;MIDI 01
162.381;000.441;68;000.492;MIDI 01
162.414;000.425;49;000.391;MIDI 01
162.416;000.463;37;000.336;MIDI 01
162.405;000.642;58;000.414;MIDI 01
162.789;000.317;64;000.375;MIDI 01
162.784;000.334;67;000.438;MIDI 01
163.177;000.405;48;000.344;MIDI 01
163.175;000.456;36;000.305;MIDI 01
163.598;000.338;58;000.281;MIDI 01
163.580;000.406;64;000.344;MIDI 01
163.577;000.444;67;000.328;MIDI 01
163.951;000.279;36;000.281;MIDI 01
163.935;000.308;48;000.383;MIDI 01
164.357;000.057;64;000.320;MIDI 01
164.351;000.144;61;000.398;MIDI 01
164.332;000.165;70;000.445;MIDI 01
164.736;000.265;60;000.344;MIDI 01
164.729;000.331;41;000.312;MIDI 01
164.734;000.398;53;000.305;MIDI 01
164.739;000.491;65;000.344;MIDI 01
165.128;000.137;73;000.430;MIDI 01
164.718;000.557;68;000.430;MIDI 01
165.499;000.265;73;000.445;MIDI 01
165.493;000.431;55;000.305;MIDI 01
165.914;000.171;73;000.547;MIDI 01
165.517;000.831;64;000.297;MIDI 01
165.509;000.857;58;000.289;MIDI 01
166.252;000.231;73;000.555;MIDI 01
166.284;000.485;65;000.445;MIDI 01
166.642;000.192;73;000.594;MIDI 01
166.280;000.764;53;000.320;MIDI 01
166.277;000.836;56;000.367;MIDI 01
167.043;000.428;73;000.547;MIDI 01
167.041;000.495;58;000.406;MIDI 01
167.052;000.543;67;000.438;MIDI 01
167.050;000.579;52;000.344;MIDI 01
167.449;000.186;72;000.570;MIDI 01
167.945;000.485;72;000.555;MIDI 01
168.607;000.188;72;000.430;MIDI 01
167.982;001.110;60;000.297;MIDI 01
168.995;000.209;72;000.461;MIDI 01
167.967;001.485;68;000.336;MIDI 01
169.040;000.418;67;000.328;MIDI 01
169.394;000.108;72;000.461;MIDI 01
167.979;001.593;51;000.328;MIDI 01
169.011;000.884;58;000.344;MIDI 01
169.797;000.442;77;000.484;MIDI 01
169.819;000.539;65;000.320;MIDI 01
170.210;000.166;72;000.461;MIDI 01
169.816;000.924;56;000.312;MIDI 01
169.857;000.909;50;000.195;MIDI 01
171.032;000.208;70;000.430;MIDI 01
170.624;000.870;64;000.383;MIDI 01
170.642;000.940;55;000.227;MIDI 01
171.404;000.223;70;000.516;MIDI 01
171.418;000.472;65;000.422;MIDI 01
170.606;001.315;72;000.438;MIDI 01
171.796;000.191;70;000.539;MIDI 01
171.445;000.787;56;000.297;MIDI 01
172.183;000.426;67;000.430;MIDI 01
172.173;000.483;58;000.367;MIDI 01
172.578;000.346;75;000.578;MIDI 01
170.629;002.363;49;000.359;MIDI 01
172.158;001.097;70;000.562;MIDI 01
173.150;000.981;56;000.305;MIDI 01
173.107;001.446;75;000.539;MIDI 01
174.113;000.446;72;000.523;MIDI 01
173.733;000.851;73;000.508;MIDI 01
173.146;001.569;63;000.391;MIDI 01
174.511;000.229;54;000.367;MIDI 01
174.496;000.345;70;000.500;MIDI 01
173.136;001.929;48;000.320;MIDI 01
175.025;000.734;54;000.547;MIDI 01
175.056;000.709;63;000.375;MIDI 01
175.023;000.771;70;000.516;MIDI 01
175.686;000.124;69;000.414;MIDI 01
174.652;001.276;41;000.547;MIDI 01
176.095;000.233;63;000.320;MIDI 01
176.075;000.268;69;000.453;MIDI 01
176.103;000.254;60;000.281;MIDI 01
176.085;000.420;53;000.305;MIDI 01
176.064;000.492;41;000.273;MIDI 01
176.503;000.068;63;000.391;MIDI 01
176.505;000.069;60;000.406;MIDI 01
176.479;000.126;69;000.484;MIDI 01
176.858;000.189;60;000.367;MIDI 01
176.852;000.203;63;000.406;MIDI 01
176.836;000.235;69;000.492;MIDI 01
176.856;000.395;53;000.344;MIDI 01
177.242;000.123;60;000.406;MIDI 01
177.238;000.140;63;000.438;MIDI 01
177.231;000.154;68;000.477;MIDI 01
176.854;000.699;41;000.305;MIDI 01
177.632;000.376;52;000.367;MIDI 01
177.620;000.414;60;000.406;MIDI 01
177.621;000.426;64;000.422;MIDI 01
177.607;000.485;68;000.477;MIDI 01
178.017;000.080;69;000.508;MIDI 01
177.618;000.669;40;000.352;MIDI 01
178.429;000.222;66;000.375;MIDI 01
178.397;000.289;72;000.469;MIDI 01
178.409;000.279;69;000.406;MIDI 01
178.809;000.126;66;000.523;MIDI 01
178.416;000.545;51;000.367;MIDI 01
178.798;000.171;69;000.461;MIDI 01
178.786;000.184;72;000.547;MIDI 01
178.414;000.568;39;000.328;MIDI 01
179.171;000.173;66;000.508;MIDI 01
179.148;000.220;72;000.570;MIDI 01
179.152;000.252;69;000.508;MIDI 01
179.166;000.414;51;000.492;MIDI 01
179.530;000.119;66;000.531;MIDI 01
179.534;000.150;69;000.555;MIDI 01
179.532;000.153;71;000.562;MIDI 01
179.172;000.520;39;000.422;MIDI 01
179.929;000.279;66;000.562;MIDI 01
179.938;000.323;50;000.406;MIDI 01
179.915;000.434;71;000.555;MIDI 01
179.923;000.464;69;000.539;MIDI 01
180.291;000.124;72;000.625;MIDI 01
179.933;000.578;38;000.406;MIDI 01
180.672;000.197;69;000.469;MIDI 01
180.676;000.213;73;000.500;MIDI 01
180.657;000.255;78;000.617;MIDI 01
180.661;000.470;49;000.438;MIDI 01
180.670;000.492;37;000.406;MIDI 01
181.043;000.128;69;000.523;MIDI 01
181.053;000.145;73;000.500;MIDI 01
181.039;000.176;78;000.625;MIDI 01
181.412;000.130;69;000.523;MIDI 01
181.417;000.139;73;000.492;MIDI 01
181.393;000.190;78;000.586;MIDI 01
181.782;000.109;69;000.484;MIDI 01
181.777;000.125;73;000.516;MIDI 01
181.410;000.504;49;000.469;MIDI 01
181.759;000.157;77;000.602;MIDI 01
181.415;000.506;37;000.375;MIDI 01
182.131;000.116;69;000.539;MIDI 01
182.146;000.292;73;000.516;MIDI 01
182.140;000.417;49;000.438;MIDI 01
182.499;000.103;76;000.555;MIDI 01
182.120;000.486;78;000.617;MIDI 01
182.511;000.098;70;000.562;MIDI 01
182.497;000.148;79;000.602;MIDI 01
182.133;000.544;37;000.430;MIDI 01
182.856;000.113;36;000.469;MIDI 01
182.866;000.131;70;000.586;MIDI 01
182.854;000.159;48;000.547;MIDI 01
182.848;000.177;79;000.578;MIDI 01
182.852;000.191;76;000.586;MIDI 01
183.242;000.107;76;000.438;MIDI 01
183.231;000.145;70;000.633;MIDI 01
183.220;000.398;80;000.680;MIDI 01
183.584;000.096;72;000.578;MIDI 01
183.572;000.153;81;000.688;MIDI 01
183.580;000.152;76;000.484;MIDI 01
183.576;000.323;60;000.500;MIDI 01
183.582;000.327;66;000.531;MIDI 01
183.949;000.035;76;000.477;MIDI 01
183.939;000.056;67;000.648;MIDI 01
183.947;000.078;73;000.586;MIDI 01
183.940;000.100;82;000.641;MIDI 01
184.123;000.642;53;000.508;MIDI 01
184.366;000.515;73;000.609;MIDI 01
184.402;000.480;68;000.609;MIDI 01
184.381;000.589;77;000.555;MIDI 01
184.842;000.171;84;000.680;MIDI 01
184.353;000.695;83;000.641;MIDI 01
185.406;000.242;73;000.578;MIDI 01
185.401;000.302;68;000.391;MIDI 01
185.398;000.317;65;000.367;MIDI 01
185.375;000.360;85;000.703;MIDI 01
186.088;000.085;68;000.281;MIDI 01
186.072;000.103;65;000.312;MIDI 01
186.074;000.112;73;000.469;MIDI 01
186.053;000.149;84;000.602;MIDI 01
186.479;000.036;84;000.312;MIDI 01
186.473;000.067;73;000.438;MIDI 01
186.477;000.077;65;000.289;MIDI 01
186.481;000.079;68;000.297;MIDI 01
186.451;000.137;83;000.539;MIDI 01
186.848;000.083;65;000.336;MIDI 01
186.872;000.064;73;000.352;MIDI 01
186.865;000.098;68;000.312;MIDI 01
186.830;000.165;82;000.555;MIDI 01
187.352;000.558;70;000.227;MIDI 01
187.335;000.623;73;000.375;MIDI 01
187.358;000.620;64;000.258;MIDI 01
187.312;000.762;80;000.562;MIDI 01
187.941;000.692;79;000.406;MIDI 01
188.570;000.299;71;000.219;MIDI 01
188.530;000.382;63;000.211;MIDI 01
188.535;000.387;66;000.289;MIDI 01
188.523;000.741;83;000.414;MIDI 01
189.183;000.127;71;000.266;MIDI 01
189.153;000.188;66;000.211;MIDI 01
189.143;000.211;63;000.211;MIDI 01
189.145;000.226;82;000.398;MIDI 01
189.559;000.140;71;000.289;MIDI 01
189.557;000.160;66;000.273;MIDI 01
189.532;000.199;81;000.492;MIDI 01
189.552;000.191;63;000.258;MIDI 01
189.947;000.101;63;000.297;MIDI 01
189.951;000.101;66;000.297;MIDI 01
189.929;000.136;71;000.312;MIDI 01
189.922;000.164;80;000.453;MIDI 01
190.395;000.411;68;000.273;MIDI 01
190.368;000.507;78;000.414;MIDI 01
190.392;000.490;62;000.289;MIDI 01
190.403;000.548;71;000.305;MIDI 01
190.870;000.151;77;000.367;MIDI 01
191.381;000.256;69;000.336;MIDI 01
191.374;000.317;61;000.289;MIDI 01
191.384;000.310;64;000.281;MIDI 01
191.358;000.348;81;000.461;MIDI 01
191.918;000.125;69;000.375;MIDI 01
191.891;000.181;80;000.461;MIDI 01
191.889;000.217;61;000.289;MIDI 01
191.901;000.211;64;000.273;MIDI 01
192.299;000.114;64;000.328;MIDI 01
192.295;000.135;69;000.414;MIDI 01
192.308;000.126;61;000.352;MIDI 01
192.278;000.191;79;000.516;MIDI 01
192.676;000.098;69;000.438;MIDI 01
192.688;000.113;64;000.352;MIDI 01
192.666;000.140;78;000.531;MIDI 01
192.678;000.138;61;000.320;MIDI 01
193.080;000.535;77;000.492;MIDI 01
193.107;000.619;61;000.297;MIDI 01
193.117;000.662;70;000.398;MIDI 01
193.119;000.692;67;000.320;MIDI 01
193.597;000.600;76;000.438;MIDI 01
194.109;000.273;80;000.438;MIDI 01
194.152;000.279;70;000.242;MIDI 01
194.132;000.301;73;000.305;MIDI 01
194.150;000.348;60;000.273;MIDI 01
194.154;000.346;64;000.227;MIDI 01
194.644;000.196;70;000.320;MIDI 01
194.676;000.182;64;000.352;MIDI 01
194.682;000.183;60;000.312;MIDI 01
194.640;000.242;73;000.312;MIDI 01
194.637;000.254;79;000.469;MIDI 01
195.034;000.128;70;000.367;MIDI 01
195.028;000.144;73;000.398;MIDI 01
195.026;000.154;65;000.430;MIDI 01
195.020;000.173;60;000.391;MIDI 01
195.005;000.220;77;000.547;MIDI 01
195.402;000.111;70;000.391;MIDI 01
195.378;000.178;60;000.453;MIDI 01
195.376;000.199;76;000.539;MIDI 01
195.395;000.215;73;000.375;MIDI 01
195.386;000.569;67;000.461;MIDI 01
195.875;000.553;73;000.375;MIDI 01
195.863;000.620;70;000.414;MIDI 01
195.838;000.646;76;000.469;MIDI 01
196.426;000.265;68;000.312;MIDI 01
195.877;000.901;65;000.367;MIDI 01
196.448;000.422;72;000.281;MIDI 01
196.940;000.230;68;000.383;MIDI 01
196.923;000.266;73;000.500;MIDI 01
196.423;000.845;77;000.391;MIDI 01
196.925;000.387;65;000.227;MIDI 01
197.472;000.147;68;000.461;MIDI 01
197.453;000.211;72;000.555;MIDI 01
197.461;000.241;65;000.438;MIDI 01
197.877;000.190;71;000.469;MIDI 01
197.904;000.184;68;000.383;MIDI 01
197.881;000.228;65;000.445;MIDI 01
198.266;000.134;65;000.453;MIDI 01
198.257;000.197;68;000.492;MIDI 01
198.251;000.223;70;000.570;MIDI 01
198.624;000.341;68;000.500;MIDI 01
197.868;001.432;73;000.547;MIDI 01
198.633;000.702;70;000.539;MIDI 01
199.052;000.377;67;000.539;MIDI 01
198.650;000.810;64;000.484;MIDI 01
197.853;001.886;85;000.680;MIDI 01
199.623;000.301;63;000.297;MIDI 01
199.598;000.382;66;000.344;MIDI 01
199.570;000.481;87;000.555;MIDI 01
199.589;000.509;75;000.453;MIDI 01
199.604;000.521;71;000.328;MIDI 01
200.233;000.151;70;000.391;MIDI 01
200.245;000.167;63;000.320;MIDI 01
200.235;000.181;66;000.289;MIDI 01
200.649;000.179;63;000.336;MIDI 01
200.668;000.167;66;000.281;MIDI 01
200.666;000.215;69;000.383;MIDI 01
201.024;000.098;68;000.445;MIDI 01
201.027;000.123;66;000.453;MIDI 01
201.028;000.129;63;000.422;MIDI 01
201.431;000.345;66;000.531;MIDI 01
200.664;001.290;71;000.430;MIDI 01
201.466;000.615;68;000.398;MIDI 01
201.436;000.888;62;000.500;MIDI 01
201.840;000.507;65;000.531;MIDI 01
200.639;001.923;83;000.555;MIDI 01
202.359;000.283;64;000.383;MIDI 01
202.372;000.326;61;000.312;MIDI 01
202.331;000.518;88;000.586;MIDI 01
202.370;000.501;69;000.352;MIDI 01
202.361;000.544;76;000.398;MIDI 01
202.916;000.184;68;000.422;MIDI 01
202.923;000.184;64;000.258;MIDI 01
202.912;000.200;61;000.336;MIDI 01
203.352;000.211;61;000.195;MIDI 01
203.328;000.240;64;000.289;MIDI 01
203.332;000.238;67;000.320;MIDI 01
203.714;000.130;64;000.438;MIDI 01
203.702;000.160;66;000.461;MIDI 01
203.727;000.140;61;000.406;MIDI 01
204.111;000.468;66;000.422;MIDI 01
204.116;000.481;64;000.406;MIDI 01
203.324;001.286;69;000.398;MIDI 01
204.114;000.499;61;000.336;MIDI 01
203.303;001.353;81;000.539;MIDI 01
204.529;000.151;67;000.438;MIDI 01
204.986;000.257;67;000.297;MIDI 01
204.976;000.293;61;000.344;MIDI 01
204.974;000.395;70;000.344;MIDI 01
204.972;000.435;64;000.312;MIDI 01
205.349;000.397;81;000.461;MIDI 01
204.949;000.848;82;000.398;MIDI 01
205.766;000.084;72;000.359;MIDI 01
205.759;000.171;80;000.461;MIDI 01
205.761;000.469;70;000.281;MIDI 01
205.854;000.416;72;000.023;MIDI 01
205.787;000.484;64;000.266;MIDI 01
205.797;000.493;60;000.211;MIDI 01
206.175;000.154;79;000.438;MIDI 01
206.195;000.192;73;000.383;MIDI 01
206.662;000.515;68;000.180;MIDI 01
206.683;000.518;71;000.180;MIDI 01
206.644;000.576;79;000.375;MIDI 01
206.686;000.579;65;000.250;MIDI 01
206.641;000.698;60;000.227;MIDI 01
207.165;000.239;77;000.422;MIDI 01
207.228;000.181;72;000.305;MIDI 01
207.832;000.655;61;000.281;MIDI 01
207.804;000.694;73;000.352;MIDI 01
207.789;000.715;77;000.422;MIDI 01
207.814;000.692;65;000.289;MIDI 01
208.354;000.394;72;000.352;MIDI 01
208.384;000.426;60;000.281;MIDI 01
208.740;000.217;71;000.430;MIDI 01
208.771;000.322;59;000.344;MIDI 01
208.730;000.379;77;000.461;MIDI 01
208.743;000.383;73;000.469;MIDI 01
208.773;000.477;65;000.289;MIDI 01
208.764;000.537;61;000.383;MIDI 01
209.107;000.196;70;000.500;MIDI 01
209.109;000.196;58;000.414;MIDI 01
209.505;000.296;56;000.367;MIDI 01
209.515;000.353;68;000.359;MIDI 01
209.500;000.399;70;000.414;MIDI 01
209.476;000.436;73;000.484;MIDI 01
209.502;000.426;64;000.375;MIDI 01
209.503;000.432;61;000.328;MIDI 01
209.859;000.338;67;000.430;MIDI 01
209.509;000.716;58;000.320;MIDI 01
209.474;000.830;76;000.547;MIDI 01
209.844;000.726;55;000.414;MIDI 01
210.253;000.322;71;000.461;MIDI 01
210.234;000.504;63;000.406;MIDI 01
210.240;000.519;59;000.398;MIDI 01
210.214;000.583;75;000.586;MIDI 01
210.590;000.241;70;000.492;MIDI 01
210.609;000.355;58;000.438;MIDI 01
210.979;000.317;57;000.406;MIDI 01
210.992;000.323;69;000.445;MIDI 01
210.960;000.356;71;000.555;MIDI 01
210.965;000.407;75;000.594;MIDI 01
211.309;000.140;56;000.500;MIDI 01
210.969;000.522;59;000.461;MIDI 01
211.335;000.160;68;000.477;MIDI 01
210.983;000.533;63;000.398;MIDI 01
211.710;000.325;54;000.398;MIDI 01
211.742;000.333;66;000.414;MIDI 01
211.700;000.392;71;000.484;MIDI 01
211.702;000.392;68;000.445;MIDI 01
211.714;000.385;59;000.375;MIDI 01
211.721;000.430;62;000.383;MIDI 01
211.718;000.578;56;000.406;MIDI 01
212.062;000.435;65;000.469;MIDI 01
211.686;000.834;74;000.578;MIDI 01
212.051;000.533;53;000.453;MIDI 01
212.455;000.332;69;000.469;MIDI 01
212.445;000.497;57;000.430;MIDI 01
212.452;000.492;61;000.438;MIDI 01
212.426;000.575;73;000.586;MIDI 01
212.803;000.219;68;000.445;MIDI 01
212.802;000.389;56;000.453;MIDI 01
213.183;000.326;67;000.453;MIDI 01
213.161;000.381;69;000.570;MIDI 01
213.174;000.390;55;000.445;MIDI 01
213.149;000.426;57;000.438;MIDI 01
213.169;000.473;61;000.438;MIDI 01
213.507;000.179;54;000.500;MIDI 01
213.502;000.209;66;000.500;MIDI 01
213.155;000.566;73;000.594;MIDI 01
213.989;000.061;65;000.375;MIDI 01
213.971;000.458;53;000.414;MIDI 01
213.954;000.507;67;000.523;MIDI 01
214.053;000.416;65;000.141;MIDI 01
213.982;000.561;58;000.438;MIDI 01
213.927;000.733;73;000.594;MIDI 01
213.961;000.702;61;000.500;MIDI 01
213.973;000.825;55;000.438;MIDI 01
214.471;000.340;64;000.453;MIDI 01
213.952;000.960;70;000.562;MIDI 01
214.479;000.486;52;000.406;MIDI 01
214.871;000.366;68;000.445;MIDI 01
214.868;000.400;60;000.406;MIDI 01
214.872;000.408;56;000.438;MIDI 01
215.193;000.125;67;000.508;MIDI 01
215.197;000.323;55;000.477;MIDI 01
214.836;000.765;72;000.547;MIDI 01
215.552;000.147;65;000.461;MIDI 01
215.561;000.140;59;000.445;MIDI 01
215.558;000.176;68;000.484;MIDI 01
215.562;000.294;53;000.422;MIDI 01
215.554;000.314;56;000.453;MIDI 01
215.542;000.388;71;000.562;MIDI 01
215.890;000.088;64;000.484;MIDI 01
215.894;000.089;67;000.523;MIDI 01
215.898;000.089;60;000.508;MIDI 01
215.896;000.100;52;000.469;MIDI 01
215.879;000.119;72;000.625;MIDI 01
215.893;000.107;55;000.484;MIDI 01
216.276;000.183;65;000.492;MIDI 01
216.277;000.211;60;000.508;MIDI 01
216.281;000.257;68;000.562;MIDI 01
216.256;000.301;72;000.672;MIDI 01
216.269;000.325;53;000.523;MIDI 01
216.279;000.320;56;000.508;MIDI 01
216.991;000.167;61;000.469;MIDI 01
216.996;000.341;49;000.461;MIDI 01
216.979;000.359;65;000.547;MIDI 01
216.956;000.463;77;000.602;MIDI 01
216.983;000.441;73;000.531;MIDI 01
217.334;000.096;60;000.516;MIDI 01
217.344;000.370;48;000.477;MIDI 01
217.673;000.100;59;000.516;MIDI 01
217.677;000.106;67;000.516;MIDI 01
217.664;000.131;79;000.586;MIDI 01
217.668;000.234;77;000.547;MIDI 01
217.675;000.316;47;000.461;MIDI 01
217.679;000.430;73;000.469;MIDI 01
218.003;000.116;68;000.633;MIDI 01
218.018;000.114;58;000.578;MIDI 01
217.996;000.161;80;000.672;MIDI 01
218.011;000.491;46;000.578;MIDI 01
218.360;000.206;56;000.609;MIDI 01
218.347;000.281;82;000.656;MIDI 01
218.353;000.314;76;000.609;MIDI 01
218.345;000.325;70;000.641;MIDI 01
218.351;000.337;73;000.586;MIDI 01
218.375;000.332;44;000.547;MIDI 01
218.683;000.080;43;000.586;MIDI 01
218.693;000.074;55;000.664;MIDI 01
219.040;000.156;59;000.609;MIDI 01
219.050;000.317;47;000.516;MIDI 01
219.027;000.387;66;000.672;MIDI 01
219.046;000.401;71;000.555;MIDI 01
219.023;000.435;78;000.672;MIDI 01
219.030;000.446;75;000.625;MIDI 01
219.358;000.192;58;000.602;MIDI 01
219.374;000.333;46;000.570;MIDI 01
219.705;000.083;57;000.547;MIDI 01
219.684;000.150;68;000.633;MIDI 01
219.693;000.144;71;000.562;MIDI 01
219.689;000.196;80;000.609;MIDI 01
219.703;000.257;45;000.555;MIDI 01
219.686;000.378;75;000.562;MIDI 01
220.010;000.107;56;000.648;MIDI 01
220.004;000.121;81;000.672;MIDI 01
220.002;000.125;69;000.672;MIDI 01
220.019;000.156;44;000.570;MIDI 01
220.345;000.183;83;000.617;MIDI 01
220.351;000.185;71;000.656;MIDI 01
220.350;000.225;54;000.648;MIDI 01
220.353;000.230;74;000.570;MIDI 01
220.355;000.272;80;000.633;MIDI 01
220.679;000.071;53;000.648;MIDI 01
220.676;000.080;41;000.617;MIDI 01
220.357;000.412;42;000.609;MIDI 01
221.012;000.141;57;000.656;MIDI 01
221.017;000.260;69;000.648;MIDI 01
221.015;000.286;73;000.609;MIDI 01
221.019;000.315;45;000.625;MIDI 01
221.008;000.339;76;000.641;MIDI 01
221.006;000.342;81;000.648;MIDI 01
221.429;000.065;46;000.102;MIDI 01
221.352;000.183;56;000.633;MIDI 01
221.354;000.315;44;000.578;MIDI 01
221.665;000.103;55;000.609;MIDI 01
221.656;000.135;71;000.664;MIDI 01
221.646;000.159;83;000.641;MIDI 01
221.669;000.232;43;000.562;MIDI 01
221.667;000.342;76;000.594;MIDI 01
221.974;000.072;72;000.672;MIDI 01
221.964;000.116;84;000.680;MIDI 01
222.051;000.075;46;000.055;MIDI 01
221.972;000.165;54;000.648;MIDI 01
221.975;000.320;42;000.602;MIDI 01
222.303;000.158;53;000.625;MIDI 01
222.311;000.178;41;000.594;MIDI 01
222.293;000.264;73;000.742;MIDI 01
222.289;000.314;85;000.719;MIDI 01
222.295;000.351;81;000.617;MIDI 01
222.613;000.058;40;000.648;MIDI 01
222.608;000.073;52;000.711;MIDI 01
222.930;000.162;73;000.648;MIDI 01
222.934;000.175;56;000.672;MIDI 01
222.926;000.257;85;000.727;MIDI 01
222.942;000.285;44;000.656;MIDI 01
223.253;000.077;43;000.617;MIDI 01
223.246;000.097;74;000.711;MIDI 01
223.251;000.099;55;000.672;MIDI 01
223.240;000.139;86;000.703;MIDI 01
222.932;000.580;82;000.609;MIDI 01
223.576;000.176;75;000.680;MIDI 01
223.660;000.141;85;000.156;MIDI 01
223.571;000.232;87;000.727;MIDI 01
223.573;000.287;79;000.609;MIDI 01
223.891;000.084;76;000.727;MIDI 01
223.565;000.416;58;000.695;MIDI 01
223.884;000.116;88;000.711;MIDI 01
224.228;000.052;77;000.695;MIDI 01
224.224;000.080;89;000.789;MIDI 01
224.230;000.114;80;000.703;MIDI 01
223.562;000.809;46;000.648;MIDI 01
224.222;000.168;56;000.766;MIDI 01
224.226;000.223;44;000.648;MIDI 01
224.551;000.089;55;000.750;MIDI 01
224.549;000.103;43;000.672;MIDI 01
224.605;000.052;49;000.180;MIDI 01
224.935;000.048;41;000.711;MIDI 01
224.938;000.048;53;000.773;MIDI 01
225.281;000.043;56;000.680;MIDI 01
225.293;000.045;60;000.625;MIDI 01
225.275;000.072;65;000.688;MIDI 01
225.588;000.410;77;000.711;MIDI 01
225.896;000.106;84;000.625;MIDI 01
225.590;000.438;72;000.641;MIDI 01
225.893;000.166;80;000.695;MIDI 01
225.584;000.711;68;000.648;MIDI 01
225.885;000.415;89;000.750;MIDI 01
226.229;000.339;79;000.711;MIDI 01
226.233;000.360;84;000.672;MIDI 01
226.550;000.379;67;000.625;MIDI 01
226.552;000.415;72;000.648;MIDI 01
226.222;000.791;88;000.719;MIDI 01
226.546;000.524;76;000.742;MIDI 01
226.960;000.296;78;000.742;MIDI 01
226.950;000.309;87;000.703;MIDI 01
226.967;000.326;82;000.719;MIDI 01
227.416;000.053;75;000.711;MIDI 01
227.406;000.075;66;000.602;MIDI 01
227.414;000.079;70;000.656;MIDI 01
227.752;000.318;54;000.547;MIDI 01
227.756;000.369;58;000.555;MIDI 01
227.738;000.463;63;000.664;MIDI 01
228.037;000.363;46;000.570;MIDI 01
228.023;000.429;51;000.664;MIDI 01
228.030;000.509;42;000.570;MIDI 01
228.354;000.390;53;000.547;MIDI 01
228.652;000.108;50;000.617;MIDI 01
228.653;000.110;46;000.609;MIDI 01
228.347;000.453;58;000.539;MIDI 01
228.659;000.301;41;000.539;MIDI 01
228.995;000.232;40;000.555;MIDI 01
228.991;000.264;44;000.625;MIDI 01
228.989;000.281;49;000.703;MIDI 01
228.340;001.000;62;000.625;MIDI 01
229.308;000.036;52;000.594;MIDI 01
229.317;000.049;56;000.578;MIDI 01
229.306;000.062;61;000.602;MIDI 01
229.971;000.103;76;000.617;MIDI 01
229.632;000.467;73;000.703;MIDI 01
229.641;000.490;68;000.570;MIDI 01
229.970;000.163;80;000.602;MIDI 01
229.637;000.778;64;000.594;MIDI 01
229.953;000.605;85;000.688;MIDI 01
230.392;000.333;84;000.648;MIDI 01
230.394;000.388;80;000.609;MIDI 01
230.390;000.417;75;000.625;MIDI 01
230.843;000.051;72;000.523;MIDI 01
230.853;000.090;68;000.508;MIDI 01
230.846;000.123;63;000.500;MIDI 01
231.170;000.085;72;000.570;MIDI 01
231.180;000.106;63;000.531;MIDI 01
231.196;000.115;68;000.484;MIDI 01
231.457;000.046;60;000.500;MIDI 01
231.468;000.083;56;000.500;MIDI 01
231.470;000.097;51;000.445;MIDI 01
231.789;000.330;51;000.484;MIDI 01
231.797;000.432;56;000.484;MIDI 01
231.780;000.500;60;000.539;MIDI 01
232.080;000.428;39;000.547;MIDI 01
232.090;000.431;44;000.539;MIDI 01
232.077;000.453;48;000.578;MIDI 01
232.418;000.312;56;000.531;MIDI 01
232.402;000.541;60;000.570;MIDI 01
232.722;000.369;48;000.484;MIDI 01
232.404;000.715;52;000.586;MIDI 01
232.721;000.402;44;000.438;MIDI 01
232.729;000.554;40;000.492;MIDI 01
233.056;000.537;53;000.523;MIDI 01
233.051;000.559;56;000.531;MIDI 01
233.054;000.577;60;000.500;MIDI 01
233.382;000.385;48;000.438;MIDI 01
233.389;000.396;44;000.336;MIDI 01
233.391;000.408;41;000.375;MIDI 01
233.708;000.446;56;000.430;MIDI 01
233.698;000.458;60;000.414;MIDI 01
233.994;000.335;48;000.422;MIDI 01
234.010;000.323;44;000.320;MIDI 01
233.714;000.701;53;000.562;MIDI 01
234.005;000.608;41;000.344;MIDI 01
234.329;000.347;56;000.430;MIDI 01
234.333;000.345;60;000.492;MIDI 01
234.644;000.398;48;000.367;MIDI 01
234.650;000.409;44;000.328;MIDI 01
234.327;000.819;52;000.523;MIDI 01
234.648;000.515;40;000.328;MIDI 01
234.969;000.478;51;000.516;MIDI 01
234.975;000.482;60;000.469;MIDI 01
234.977;000.522;56;000.430;MIDI 01
235.279;000.378;48;000.367;MIDI 01
235.285;000.393;44;000.336;MIDI 01
235.291;000.393;39;000.391;MIDI 01
235.634;000.396;51;000.438;MIDI 01
235.631;000.505;56;000.398;MIDI 01
235.639;000.506;60;000.453;MIDI 01
235.924;000.368;48;000.406;MIDI 01
235.928;000.418;39;000.422;MIDI 01
235.932;000.416;44;000.398;MIDI 01
236.268;000.401;50;000.516;MIDI 01
236.284;000.423;60;000.445;MIDI 01
236.309;000.451;53;000.297;MIDI 01
236.297;000.503;56;000.289;MIDI 01
236.613;000.282;38;000.359;MIDI 01
236.593;000.408;48;000.383;MIDI 01
236.615;000.416;41;000.297;MIDI 01
236.610;000.438;44;000.297;MIDI 01
236.941;000.421;49;000.469;MIDI 01
236.950;000.426;53;000.320;MIDI 01
236.939;000.468;56;000.422;MIDI 01
236.921;000.521;60;000.375;MIDI 01
237.267;000.290;37;000.336;MIDI 01
237.243;000.382;48;000.305;MIDI 01
237.259;000.367;44;000.336;MIDI 01
237.253;000.394;41;000.305;MIDI 01
237.601;000.301;53;000.344;MIDI 01
237.575;000.365;49;000.367;MIDI 01
237.603;000.349;56;000.383;MIDI 01
237.873;000.190;48;000.414;MIDI 01
237.891;000.175;37;000.344;MIDI 01
237.566;000.524;60;000.375;MIDI 01
237.869;000.308;41;000.328;MIDI 01
237.897;000.292;44;000.289;MIDI 01
238.224;000.216;48;000.508;MIDI 01
238.238;000.327;56;000.375;MIDI 01
238.209;000.385;60;000.367;MIDI 01
238.543;000.160;48;000.375;MIDI 01
238.547;000.214;36;000.359;MIDI 01
238.565;000.610;44;000.320;MIDI 01
238.539;000.647;41;000.367;MIDI 01
238.901;000.347;53;000.281;MIDI 01
238.886;000.386;48;000.414;MIDI 01
239.192;000.200;47;000.391;MIDI 01
238.868;000.525;60;000.398;MIDI 01
238.866;000.531;56;000.406;MIDI 01
239.179;000.541;35;000.320;MIDI 01
239.559;000.294;52;000.320;MIDI 01
239.540;000.347;48;000.328;MIDI 01
239.519;000.458;60;000.281;MIDI 01
239.853;000.282;46;000.336;MIDI 01
239.552;000.684;55;000.383;MIDI 01
239.851;000.647;34;000.312;MIDI 01
240.199;000.327;53;000.328;MIDI 01
240.173;000.416;48;000.336;MIDI 01
240.159;000.511;60;000.391;MIDI 01
240.496;000.309;44;000.320;MIDI 01
240.848;000.320;55;000.383;MIDI 01
240.516;000.670;32;000.266;MIDI 01
240.834;000.359;48;000.312;MIDI 01
240.881;000.322;52;000.266;MIDI 01
240.816;000.543;60;000.320;MIDI 01
241.143;000.295;43;000.344;MIDI 01
241.153;000.740;31;000.320;MIDI 01
241.505;000.530;48;000.406;MIDI 01
241.537;000.600;53;000.273;MIDI 01
241.490;000.671;56;000.461;MIDI 01
241.483;000.682;60;000.422;MIDI 01
241.874;000.786;41;000.391;MIDI 01
241.886;001.119;29;000.375;MIDI 01
242.480;000.839;56;000.477;MIDI 01
242.504;000.845;49;000.391;MIDI 01
242.491;000.893;61;000.500;MIDI 01
243.074;000.533;40;000.258;MIDI 01
243.054;000.893;28;000.281;MIDI 01
243.574;000.500;48;000.336;MIDI 01
243.561;000.523;60;000.383;MIDI 01
243.555;000.567;56;000.383;MIDI 01
243.921;000.404;39;000.273;MIDI 01
243.908;000.451;27;000.336;MIDI 01
244.253;000.402;56;000.320;MIDI 01
244.275;000.399;48;000.383;MIDI 01
244.295;000.408;54;000.281;MIDI 01
244.255;000.481;60;000.367;MIDI 01
244.596;000.489;39;000.312;MIDI 01
244.581;000.627;27;000.297;MIDI 01
244.949;000.444;48;000.344;MIDI 01
244.935;000.463;60;000.406;MIDI 01
244.964;000.490;56;000.359;MIDI 01
244.966;000.524;53;000.320;MIDI 01
245.291;000.259;38;000.289;MIDI 01
245.297;000.665;26;000.188;MIDI 01
245.660;000.431;47;000.320;MIDI 01
245.645;000.469;59;000.445;MIDI 01
245.667;000.469;53;000.273;MIDI 01
245.650;000.520;56;000.336;MIDI 01
245.995;000.393;37;000.234;MIDI 01
245.974;000.438;25;000.320;MIDI 01
246.393;000.338;47;000.211;MIDI 01
246.385;000.371;53;000.125;MIDI 01
246.358;000.404;59;000.352;MIDI 01
246.344;000.431;56;000.312;MIDI 01
246.688;000.435;37;000.289;MIDI 01
246.697;000.455;25;000.281;MIDI 01
247.056;000.380;59;000.406;MIDI 01
247.081;000.376;53;000.227;MIDI 01
247.089;000.381;47;000.164;MIDI 01
247.070;000.504;55;000.250;MIDI 01
247.444;000.332;37;000.281;MIDI 01
247.441;000.564;25;000.297;MIDI 01
247.846;000.465;48;000.305;MIDI 01
247.821;000.514;55;000.234;MIDI 01
247.785;000.611;60;000.438;MIDI 01
248.199;000.211;24;000.234;MIDI 01
247.858;000.727;52;000.281;MIDI 01
248.172;000.877;36;000.297;MIDI 01
248.654;000.710;48;000.281;MIDI 01
248.603;000.765;60;000.391;MIDI 01
249.129;000.672;28;000.242;MIDI 01
249.111;000.819;40;000.258;MIDI 01
248.627;001.425;55;000.359;MIDI 01
249.833;001.101;48;000.250;MIDI 01
249.836;001.235;53;000.273;MIDI 01
249.826;001.278;60;000.266;MIDI 01
250.660;000.584;41;000.086;MIDI 01
250.684;000.666;29;000.102;MIDI 01
250.677;000.676;36;000.070;MIDI 01
252.450;000.050;29;000.336;MIDI 01
252.463;000.047;41;000.312;MIDI 01
252.762;000.043;43;000.406;MIDI 01
252.765;000.047;31;000.375;MIDI 01
253.026;000.039;44;000.445;MIDI 01
253.041;000.044;32;000.344;MIDI 01
252.148;001.010;56;000.352;MIDI 01
252.152;001.078;53;000.273;MIDI 01
252.150;001.143;61;000.375;MIDI 01
252.129;001.184;65;000.422;MIDI 01
253.273;000.047;43;000.414;MIDI 01
253.269;000.065;31;000.367;MIDI 01
253.491;000.049;32;000.391;MIDI 01
253.495;000.047;44;000.391;MIDI 01
253.582;000.039;65;000.438;MIDI 01
253.584;000.042;56;000.461;MIDI 01
253.586;000.049;61;000.445;MIDI 01
253.713;000.046;46;000.477;MIDI 01
253.708;000.064;34;000.469;MIDI 01
253.723;000.224;55;000.461;MIDI 01
253.956;000.038;45;000.344;MIDI 01
253.969;000.052;33;000.297;MIDI 01
253.735;000.289;60;000.391;MIDI 01
253.715;000.312;64;000.516;MIDI 01
254.192;000.037;46;000.367;MIDI 01
254.195;000.047;34;000.383;MIDI 01
254.834;000.041;27;000.414;MIDI 01
254.836;000.041;39;000.398;MIDI 01
255.092;000.052;29;000.406;MIDI 01
255.095;000.051;41;000.406;MIDI 01
255.324;000.044;42;000.445;MIDI 01
255.322;000.062;30;000.477;MIDI 01
255.535;000.040;41;000.398;MIDI 01
254.521;001.056;54;000.375;MIDI 01
255.529;000.050;29;000.438;MIDI 01
254.506;001.118;63;000.445;MIDI 01
254.531;001.096;58;000.336;MIDI 01
255.727;000.048;30;000.523;MIDI 01
255.745;000.040;42;000.445;MIDI 01
255.817;000.044;54;000.414;MIDI 01
255.833;000.042;58;000.250;MIDI 01
255.805;000.072;63;000.484;MIDI 01
255.963;000.043;44;000.555;MIDI 01
255.957;000.074;53;000.500;MIDI 01
255.973;000.066;32;000.500;MIDI 01
255.950;000.166;62;000.547;MIDI 01
255.970;000.183;58;000.461;MIDI 01
256.179;000.047;43;000.484;MIDI 01
256.183;000.048;31;000.469;MIDI 01
256.403;000.045;44;000.477;MIDI 01
256.406;000.056;32;000.445;MIDI 01
256.915;000.048;25;000.461;MIDI 01
256.930;000.036;37;000.398;MIDI 01
257.147;000.048;39;000.461;MIDI 01
257.157;000.058;27;000.406;MIDI 01
257.349;000.044;40;000.477;MIDI 01
257.342;000.068;28;000.500;MIDI 01
256.674;000.889;52;000.359;MIDI 01
257.550;000.049;39;000.492;MIDI 01
256.650;000.970;61;000.516;MIDI 01
256.680;000.942;56;000.336;MIDI 01
257.554;000.077;27;000.492;MIDI 01
257.750;000.048;28;000.414;MIDI 01
257.741;000.061;40;000.484;MIDI 01
257.851;000.043;52;000.523;MIDI 01
257.834;000.075;61;000.539;MIDI 01
257.853;000.059;56;000.391;MIDI 01
257.979;000.037;52;000.586;MIDI 01
257.971;000.050;42;000.578;MIDI 01
257.973;000.061;57;000.547;MIDI 01
257.966;000.081;61;000.570;MIDI 01
257.981;000.074;30;000.555;MIDI 01
258.177;000.046;28;000.477;MIDI 01
258.196;000.042;40;000.281;MIDI 01
258.210;000.046;41;000.312;MIDI 01
258.381;000.043;42;000.484;MIDI 01
258.374;000.069;30;000.531;MIDI 01
258.581;000.046;52;000.523;MIDI 01
258.583;000.046;43;000.516;MIDI 01
258.584;000.062;58;000.531;MIDI 01
258.576;000.073;31;000.484;MIDI 01
258.578;000.080;61;000.586;MIDI 01
258.781;000.045;44;000.523;MIDI 01
258.784;000.075;32;000.492;MIDI 01
258.977;000.036;43;000.461;MIDI 01
258.991;000.050;31;000.375;MIDI 01
259.149;000.044;52;000.547;MIDI 01
259.144;000.073;60;000.586;MIDI 01
259.173;000.047;42;000.500;MIDI 01
259.152;000.080;58;000.539;MIDI 01
259.175;000.065;30;000.539;MIDI 01
259.368;000.043;43;000.469;MIDI 01
259.373;000.055;31;000.438;MIDI 01
259.556;000.048;42;000.508;MIDI 01
259.560;000.065;30;000.523;MIDI 01
259.731;000.036;53;000.547;MIDI 01
259.733;000.055;41;000.586;MIDI 01
259.735;000.059;56;000.562;MIDI 01
259.725;000.076;60;000.617;MIDI 01
259.741;000.065;29;000.516;MIDI 01
259.932;000.043;28;000.562;MIDI 01
259.925;000.056;40;000.570;MIDI 01
260.116;000.070;41;000.570;MIDI 01
260.147;000.042;29;000.344;MIDI 01
260.509;000.040;41;000.461;MIDI 01
260.521;000.047;29;000.328;MIDI 01
260.710;000.034;43;000.398;MIDI 01
260.716;000.047;31;000.414;MIDI 01
260.305;000.529;68;000.664;MIDI 01
260.321;000.522;62;000.531;MIDI 01
260.311;000.567;59;000.602;MIDI 01
260.878;000.037;44;000.523;MIDI 01
260.885;000.043;32;000.477;MIDI 01
261.050;000.051;46;000.594;MIDI 01
261.043;000.108;34;000.469;MIDI 01
261.219;000.049;53;000.531;MIDI 01
261.221;000.053;56;000.500;MIDI 01
261.234;000.051;47;000.531;MIDI 01
261.211;000.078;62;000.586;MIDI 01
261.229;000.074;35;000.516;MIDI 01
261.392;000.035;52;000.641;MIDI 01
261.401;000.029;55;000.586;MIDI 01
261.403;000.050;46;000.656;MIDI 01
261.394;000.075;61;000.695;MIDI 01
261.411;000.070;34;000.570;MIDI 01
261.581;000.041;45;000.586;MIDI 01
261.601;000.039;33;000.430;MIDI 01
261.768;000.033;46;000.508;MIDI 01
261.765;000.041;34;000.516;MIDI 01
262.122;000.044;39;000.523;MIDI 01
262.125;000.045;27;000.500;MIDI 01
262.301;000.043;29;000.492;MIDI 01
262.322;000.049;41;000.273;MIDI 01
261.942;000.456;66;000.648;MIDI 01
261.956;000.444;60;000.492;MIDI 01
261.947;000.458;57;000.570;MIDI 01
262.355;000.061;40;000.102;MIDI 01
262.467;000.033;42;000.586;MIDI 01
262.452;000.054;30;000.500;MIDI 01
262.620;000.056;44;000.609;MIDI 01
262.614;000.117;32;000.500;MIDI 01
262.799;000.047;45;000.586;MIDI 01
262.777;000.075;60;000.586;MIDI 01
262.795;000.061;54;000.508;MIDI 01
262.786;000.071;51;000.594;MIDI 01
262.797;000.071;33;000.539;MIDI 01
262.957;000.034;50;000.633;MIDI 01
262.955;000.054;53;000.656;MIDI 01
262.952;000.061;59;000.703;MIDI 01
262.965;000.055;44;000.695;MIDI 01
262.973;000.099;32;000.656;MIDI 01
263.134;000.047;43;000.625;MIDI 01
263.143;000.056;31;000.555;MIDI 01
263.297;000.031;44;000.633;MIDI 01
263.306;000.044;32;000.562;MIDI 01
263.633;000.033;37;000.586;MIDI 01
263.635;000.043;25;000.555;MIDI 01
263.462;000.370;64;000.703;MIDI 01
263.793;000.048;39;000.602;MIDI 01
263.472;000.377;55;000.625;MIDI 01
263.476;000.378;58;000.602;MIDI 01
263.790;000.076;27;000.555;MIDI 01
263.942;000.052;40;000.633;MIDI 01
263.945;000.059;28;000.609;MIDI 01
264.038;000.056;32;000.023;MIDI 01
264.105;000.033;42;000.633;MIDI 01
264.098;000.053;30;000.625;MIDI 01
264.251;000.030;42;000.469;MIDI 01
264.274;000.027;43;000.625;MIDI 01
264.270;000.045;52;000.562;MIDI 01
264.268;000.061;49;000.633;MIDI 01
264.272;000.059;31;000.570;MIDI 01
264.266;000.082;58;000.633;MIDI 01
264.405;000.041;43;000.617;MIDI 01
264.422;000.053;32;000.508;MIDI 01
264.439;000.045;50;000.617;MIDI 01
264.436;000.056;53;000.562;MIDI 01
264.428;000.091;59;000.711;MIDI 01
264.581;000.030;46;000.711;MIDI 01
264.591;000.035;34;000.523;MIDI 01
264.706;000.027;46;000.172;MIDI 01
264.723;000.034;44;000.703;MIDI 01
264.738;000.039;34;000.469;MIDI 01
264.730;000.056;32;000.656;MIDI 01
264.913;000.086;43;000.398;MIDI 01
264.890;000.111;32;000.555;MIDI 01
264.953;000.068;31;000.594;MIDI 01
264.942;000.094;52;000.664;MIDI 01
264.938;000.130;55;000.617;MIDI 01
264.932;000.177;60;000.703;MIDI 01
265.090;000.060;44;000.781;MIDI 01
265.101;000.067;32;000.648;MIDI 01
265.251;000.032;43;000.609;MIDI 01
265.254;000.035;31;000.578;MIDI 01
265.277;000.040;41;000.359;MIDI 01
265.403;000.044;49;000.828;MIDI 01
265.406;000.077;37;000.664;MIDI 01
265.401;000.128;55;000.672;MIDI 01
265.471;000.060;39;000.109;MIDI 01
265.398;000.174;58;000.633;MIDI 01
265.394;000.185;64;000.688;MIDI 01
265.559;000.044;48;000.672;MIDI 01
265.568;000.055;36;000.586;MIDI 01
265.720;000.038;46;000.688;MIDI 01
265.730;000.037;34;000.648;MIDI 01
265.865;000.068;44;000.727;MIDI 01
265.872;000.113;32;000.727;MIDI 01
265.855;000.193;56;000.664;MIDI 01
266.021;000.065;43;000.680;MIDI 01
266.040;000.061;31;000.578;MIDI 01
265.849;000.299;65;000.680;MIDI 01
266.182;000.034;29;000.648;MIDI 01
266.177;000.054;41;000.688;MIDI 01
266.374;000.039;42;000.289;MIDI 01
265.853;000.672;60;000.625;MIDI 01
266.501;000.032;53;000.578;MIDI 01
266.498;000.061;65;000.633;MIDI 01
266.657;000.039;67;000.586;MIDI 01
266.664;000.036;55;000.523;MIDI 01
266.796;000.033;56;000.633;MIDI 01
266.798;000.036;68;000.641;MIDI 01
266.357;000.571;44;000.656;MIDI 01
266.345;000.592;49;000.828;MIDI 01
266.356;000.597;41;000.664;MIDI 01
266.954;000.034;58;000.625;MIDI 01
266.952;000.068;70;000.672;MIDI 01
267.100;000.043;59;000.672;MIDI 01
267.087;000.059;44;000.570;MIDI 01
267.073;000.081;49;000.664;MIDI 01
267.099;000.061;71;000.727;MIDI 01
267.081;000.096;41;000.539;MIDI 01
267.244;000.039;60;000.664;MIDI 01
267.238;000.065;72;000.750;MIDI 01
267.231;000.127;43;000.688;MIDI 01
267.228;000.139;48;000.812;MIDI 01
267.242;000.128;40;000.680;MIDI 01
267.395;000.034;61;000.672;MIDI 01
267.393;000.068;73;000.703;MIDI 01
267.545;000.033;62;000.609;MIDI 01
267.540;000.064;74;000.703;MIDI 01
267.690;000.045;63;000.672;MIDI 01
267.692;000.065;75;000.734;MIDI 01
267.839;000.034;64;000.641;MIDI 01
267.841;000.054;76;000.688;MIDI 01
267.994;000.032;65;000.547;MIDI 01
267.990;000.039;77;000.648;MIDI 01
268.114;000.034;66;000.656;MIDI 01
268.116;000.060;78;000.711;MIDI 01
267.675;000.515;47;000.797;MIDI 01
267.680;000.543;42;000.711;MIDI 01
267.673;000.558;39;000.656;MIDI 01
268.264;000.036;68;000.656;MIDI 01
268.266;000.069;80;000.734;MIDI 01
268.381;000.059;47;000.562;MIDI 01
268.416;000.032;69;000.680;MIDI 01
268.411;000.060;81;000.781;MIDI 01
268.402;000.072;39;000.531;MIDI 01
268.377;000.113;42;000.586;MIDI 01
268.551;000.039;70;000.727;MIDI 01
268.549;000.062;82;000.758;MIDI 01
268.527;000.101;46;000.773;MIDI 01
268.525;000.124;41;000.688;MIDI 01
268.523;000.147;38;000.672;MIDI 01
268.699;000.029;71;000.594;MIDI 01
268.692;000.059;83;000.734;MIDI 01
268.834;000.029;72;000.617;MIDI 01
268.829;000.049;84;000.727;MIDI 01
268.976;000.037;73;000.664;MIDI 01
268.978;000.064;85;000.766;MIDI 01
269.127;000.028;74;000.609;MIDI 01
269.121;000.057;86;000.695;MIDI 01
269.259;000.027;75;000.648;MIDI 01
269.261;000.039;87;000.695;MIDI 01
269.393;000.028;76;000.656;MIDI 01
269.387;000.054;88;000.766;MIDI 01
268.957;000.514;45;000.773;MIDI 01
268.956;000.533;40;000.719;MIDI 01
268.958;000.535;37;000.672;MIDI 01
269.532;000.027;77;000.641;MIDI 01
269.539;000.028;88;000.625;MIDI 01
269.534;000.043;89;000.656;MIDI 01
269.619;000.046;45;000.578;MIDI 01
269.653;000.041;78;000.703;MIDI 01
269.632;000.074;40;000.500;MIDI 01
269.657;000.058;90;000.797;MIDI 01
269.630;000.106;37;000.461;MIDI 01
269.795;000.029;79;000.703;MIDI 01
269.793;000.037;91;000.805;MIDI 01
269.775;000.065;40;000.594;MIDI 01
269.779;000.072;46;000.703;MIDI 01
269.938;000.026;76;000.695;MIDI 01
269.934;000.031;88;000.773;MIDI 01
270.077;000.027;73;000.727;MIDI 01
270.070;000.045;85;000.742;MIDI 01
270.172;000.046;36;000.508;MIDI 01
270.188;000.043;40;000.570;MIDI 01
270.210;000.027;70;000.727;MIDI 01
270.186;000.064;48;000.672;MIDI 01
270.208;000.052;82;000.734;MIDI 01
270.347;000.033;71;000.719;MIDI 01
270.351;000.047;83;000.734;MIDI 01
270.493;000.029;72;000.672;MIDI 01
270.491;000.044;84;000.789;MIDI 01
270.618;000.033;73;000.758;MIDI 01
270.614;000.049;85;000.789;MIDI 01
270.594;000.084;58;000.695;MIDI 01
270.606;000.102;48;000.586;MIDI 01
270.754;000.028;72;000.609;MIDI 01
270.616;000.169;52;000.531;MIDI 01
270.752;000.045;84;000.781;MIDI 01
270.900;000.029;67;000.633;MIDI 01
270.852;000.086;41;000.633;MIDI 01
270.892;000.049;79;000.750;MIDI 01
270.873;000.076;44;000.516;MIDI 01
270.863;000.164;48;000.289;MIDI 01
270.969;000.070;53;000.602;MIDI 01
271.011;000.030;56;000.773;MIDI 01
271.018;000.027;68;000.703;MIDI 01
271.020;000.031;80;000.773;MIDI 01
271.166;000.029;67;000.617;MIDI 01
271.158;000.050;79;000.742;MIDI 01
271.307;000.183;65;000.539;MIDI 01
271.295;000.199;77;000.703;MIDI 01
271.610;000.033;65;000.461;MIDI 01
271.596;000.059;77;000.609;MIDI 01
271.747;000.035;79;000.625;MIDI 01
271.753;000.033;67;000.523;MIDI 01
271.873;000.034;68;000.656;MIDI 01
271.459;000.453;56;000.648;MIDI 01
271.879;000.038;80;000.656;MIDI 01
271.456;000.514;53;000.523;MIDI 01
271.449;000.523;61;000.797;MIDI 01
272.032;000.034;70;000.586;MIDI 01
272.028;000.041;82;000.656;MIDI 01
272.161;000.027;71;000.617;MIDI 01
272.159;000.049;83;000.703;MIDI 01
272.136;000.075;61;000.656;MIDI 01
272.157;000.060;53;000.539;MIDI 01
272.151;000.071;56;000.539;MIDI 01
272.297;000.027;72;000.609;MIDI 01
272.294;000.049;84;000.680;MIDI 01
272.283;000.107;55;000.672;MIDI 01
272.281;000.145;52;000.695;MIDI 01
272.277;000.167;60;000.727;MIDI 01
272.425;000.030;73;000.625;MIDI 01
272.423;000.045;85;000.680;MIDI 01
272.565;000.029;74;000.633;MIDI 01
272.567;000.042;86;000.680;MIDI 01
272.558;000.060;73;000.047;MIDI 01
272.721;000.029;75;000.594;MIDI 01
272.711;000.062;87;000.758;MIDI 01
272.851;000.021;76;000.547;MIDI 01
272.841;000.052;88;000.703;MIDI 01
272.994;000.023;77;000.477;MIDI 01
272.980;000.043;89;000.664;MIDI 01
273.111;000.034;90;000.703;MIDI 01
273.115;000.033;78;000.617;MIDI 01
272.685;000.511;59;000.758;MIDI 01
272.680;000.530;51;000.500;MIDI 01
272.695;000.522;54;000.672;MIDI 01
273.251;000.029;80;000.594;MIDI 01
273.247;000.061;92;000.758;MIDI 01
273.384;000.032;81;000.641;MIDI 01
273.356;000.065;59;000.594;MIDI 01
273.397;000.035;51;000.414;MIDI 01
273.380;000.058;93;000.773;MIDI 01
273.366;000.089;54;000.578;MIDI 01
273.521;000.028;82;000.680;MIDI 01
273.519;000.033;94;000.789;MIDI 01
273.516;000.114;53;000.633;MIDI 01
273.509;000.127;58;000.727;MIDI 01
273.504;000.161;50;000.672;MIDI 01
273.656;000.025;83;000.625;MIDI 01
273.650;000.048;95;000.773;MIDI 01
273.800;000.022;84;000.500;MIDI 01
273.781;000.048;96;000.727;MIDI 01
273.920;000.032;85;000.625;MIDI 01
273.918;000.051;97;000.719;MIDI 01
274.054;000.030;86;000.594;MIDI 01
274.041;000.072;98;000.383;MIDI 01
274.197;000.027;87;000.602;MIDI 01
274.195;000.034;99;000.734;MIDI 01
274.331;000.029;88;000.625;MIDI 01
274.325;000.048;100;000.773;MIDI 01
273.908;000.513;57;000.719;MIDI 01
273.901;000.541;52;000.656;MIDI 01
273.906;000.547;49;000.648;MIDI 01
274.458;000.026;89;000.633;MIDI 01
274.473;000.017;100;000.625;MIDI 01
274.460;000.031;101;000.672;MIDI 01
274.558;000.056;57;000.586;MIDI 01
274.592;000.026;90;000.641;MIDI 01
274.587;000.056;102;000.758;MIDI 01
274.574;000.078;52;000.508;MIDI 01
274.572;000.107;49;000.516;MIDI 01
274.714;000.029;91;000.680;MIDI 01
274.716;000.044;103;000.758;MIDI 01
274.727;000.049;58;000.656;MIDI 01
274.718;000.078;52;000.531;MIDI 01
274.855;000.021;100;000.758;MIDI 01
274.865;000.018;88;000.562;MIDI 01
274.922;000.002;98;000.156;MIDI 01
274.982;000.028;97;000.781;MIDI 01
274.988;000.027;85;000.656;MIDI 01
275.096;000.038;85;000.266;MIDI 01
275.115;000.023;82;000.680;MIDI 01
275.111;000.028;94;000.766;MIDI 01
275.086;000.078;58;000.625;MIDI 01
275.094;000.097;52;000.555;MIDI 01
275.247;000.024;79;000.656;MIDI 01
275.239;000.039;91;000.766;MIDI 01
275.130;000.149;48;000.336;MIDI 01
275.378;000.027;76;000.648;MIDI 01
275.370;000.049;88;000.773;MIDI 01
275.502;000.019;85;000.719;MIDI 01
275.501;000.023;73;000.711;MIDI 01
275.466;000.070;61;000.617;MIDI 01
275.460;000.098;52;000.336;MIDI 01
275.512;000.055;76;000.102;MIDI 01
275.475;000.102;58;000.562;MIDI 01
275.586;000.023;73;000.406;MIDI 01
275.600;000.032;85;000.281;MIDI 01
275.484;000.154;48;000.430;MIDI 01
275.625;000.023;82;000.719;MIDI 01
275.631;000.033;70;000.641;MIDI 01
275.657;000.038;80;000.320;MIDI 01
275.684;000.046;68;000.203;MIDI 01
275.727;000.033;82;000.289;MIDI 01
275.767;000.025;67;000.688;MIDI 01
275.760;000.048;79;000.773;MIDI 01
275.849;000.039;60;000.547;MIDI 01
275.851;000.044;53;000.562;MIDI 01
275.855;000.044;56;000.555;MIDI 01
275.876;000.027;68;000.703;MIDI 01
275.878;000.030;80;000.734;MIDI 01
276.032;000.030;77;000.609;MIDI 01
276.146;000.040;72;000.672;MIDI 01
276.307;000.002;67;000.430;MIDI 01
276.285;000.034;68;000.695;MIDI 01
276.432;000.042;68;000.570;MIDI 01
276.553;000.057;68;000.586;MIDI 01
276.698;000.043;68;000.562;MIDI 01
276.824;000.051;68;000.625;MIDI 01
276.955;000.059;68;000.617;MIDI 01
276.279;000.829;65;000.867;MIDI 01
277.101;000.042;68;000.578;MIDI 01
277.229;000.064;68;000.609;MIDI 01
277.087;000.226;64;000.617;MIDI 01
277.359;000.070;68;000.508;MIDI 01
277.490;000.059;68;000.586;MIDI 01
277.545;000.060;64;000.078;MIDI 01
277.621;000.073;68;000.586;MIDI 01
277.753;000.054;68;000.469;MIDI 01
277.900;000.036;68;000.555;MIDI 01
278.019;000.058;68;000.602;MIDI 01
278.151;000.042;68;000.578;MIDI 01
277.474;000.802;63;000.852;MIDI 01
278.290;000.035;65;000.578;MIDI 01
278.297;000.032;68;000.578;MIDI 01
278.413;000.039;65;000.586;MIDI 01
278.409;000.046;68;000.523;MIDI 01
278.552;000.030;65;000.586;MIDI 01
278.550;000.037;68;000.625;MIDI 01
278.283;000.358;62;000.633;MIDI 01
278.654;000.052;65;000.711;MIDI 01
278.659;000.069;68;000.734;MIDI 01
278.700;000.034;73;000.328;MIDI 01
278.805;000.045;65;000.586;MIDI 01
278.811;000.069;68;000.562;MIDI 01
278.946;000.030;65;000.562;MIDI 01
278.950;000.043;68;000.430;MIDI 01
279.067;000.030;65;000.492;MIDI 01
279.093;000.028;68;000.469;MIDI 01
279.202;000.036;65;000.531;MIDI 01
279.227;000.022;68;000.438;MIDI 01
278.650;000.696;77;000.742;MIDI 01
279.327;000.041;65;000.539;MIDI 01
279.336;000.042;68;000.531;MIDI 01
278.667;000.835;61;000.719;MIDI 01
279.465;000.043;68;000.531;MIDI 01
279.471;000.039;65;000.570;MIDI 01
279.605;000.043;65;000.516;MIDI 01
279.609;000.043;68;000.523;MIDI 01
279.757;000.026;68;000.578;MIDI 01
279.752;000.033;65;000.523;MIDI 01
279.480;000.314;60;000.469;MIDI 01
279.473;000.323;76;000.688;MIDI 01
279.860;000.042;65;000.672;MIDI 01
279.856;000.062;68;000.336;MIDI 01
280.009;000.041;65;000.547;MIDI 01
280.022;000.034;68;000.531;MIDI 01
280.135;000.046;65;000.523;MIDI 01
280.140;000.051;68;000.523;MIDI 01
280.291;000.024;65;000.438;MIDI 01
280.325;000.046;68;000.258;MIDI 01
280.415;000.045;65;000.500;MIDI 01
280.458;000.047;68;000.164;MIDI 01
279.864;000.735;75;000.695;MIDI 01
280.565;000.041;65;000.508;MIDI 01
280.594;000.031;68;000.367;MIDI 01
280.714;000.032;65;000.461;MIDI 01
280.736;000.033;68;000.375;MIDI 01
279.858;001.018;59;000.625;MIDI 01
280.848;000.042;65;000.477;MIDI 01
280.884;000.045;68;000.281;MIDI 01
280.990;000.028;65;000.484;MIDI 01
280.706;000.442;74;000.633;MIDI 01
281.118;000.048;65;000.555;MIDI 01
281.124;000.049;68;000.297;MIDI 01
281.299;000.030;68;000.398;MIDI 01
281.294;000.038;65;000.344;MIDI 01
281.446;000.030;65;000.422;MIDI 01
281.433;000.052;68;000.469;MIDI 01
281.592;000.040;65;000.430;MIDI 01
281.599;000.052;68;000.406;MIDI 01
281.768;000.049;65;000.359;MIDI 01
281.789;000.030;68;000.359;MIDI 01
281.129;000.871;73;000.562;MIDI 01
281.969;000.069;65;000.391;MIDI 01
281.965;000.079;68;000.297;MIDI 01
281.993;000.137;72;000.414;MIDI 01
282.199;000.052;68;000.477;MIDI 01
282.193;000.062;65;000.383;MIDI 01
281.590;000.700;59;000.344;MIDI 01
282.398;000.060;65;000.391;MIDI 01
282.405;000.055;68;000.320;MIDI 01
282.650;000.051;65;000.297;MIDI 01
282.636;000.066;68;000.328;MIDI 01
282.226;000.749;60;000.430;MIDI 01
282.159;000.852;72;000.242;MIDI 01
282.910;000.103;65;000.289;MIDI 01
282.940;000.101;68;000.266;MIDI 01
283.241;000.086;65;000.289;MIDI 01
283.238;000.116;68;000.312;MIDI 01
283.565;000.118;65;000.219;MIDI 01
283.566;000.140;68;000.297;MIDI 01
282.953;001.120;61;000.312;MIDI 01
283.995;000.169;65;000.141;MIDI 01
284.003;000.205;68;000.195;MIDI 01
284.488;000.208;65;000.219;MIDI 01
284.502;000.225;68;000.211;MIDI 01
283.997;001.594;62;000.273;MIDI 01
285.207;000.401;65;000.188;MIDI 01
285.216;000.431;68;000.250;MIDI 01
282.927;002.893;71;000.414;MIDI 01
287.214;000.162;64;000.289;MIDI 01
287.406;000.132;65;000.336;MIDI 01
287.576;000.077;68;000.359;MIDI 01
287.738;000.143;71;000.406;MIDI 01
287.929;000.160;73;000.359;MIDI 01
288.116;000.178;74;000.438;MIDI 01
288.308;000.283;76;000.438;MIDI 01
288.488;000.150;77;000.383;MIDI 01
288.097;000.654;71;000.492;MIDI 01
288.107;000.655;68;000.477;MIDI 01
288.694;000.293;70;000.414;MIDI 01
288.684;000.316;67;000.367;MIDI 01
288.877;000.306;76;000.469;MIDI 01
289.230;000.206;71;000.398;MIDI 01
289.056;000.479;73;000.414;MIDI 01
289.443;000.152;70;000.414;MIDI 01
289.626;000.345;67;000.320;MIDI 01
290.004;000.177;66;000.305;MIDI 01
289.791;000.497;82;000.508;MIDI 01
290.159;000.194;64;000.328;MIDI 01
290.395;000.067;72;000.320;MIDI 01
289.798;000.678;73;000.453;MIDI 01
290.372;000.361;81;000.398;MIDI 01
290.594;000.145;63;000.297;MIDI 01
290.466;000.409;72;000.062;MIDI 01
290.767;000.205;66;000.383;MIDI 01
290.944;000.109;68;000.398;MIDI 01
291.122;000.167;69;000.453;MIDI 01
291.302;000.157;71;000.508;MIDI 01
291.497;000.180;72;000.438;MIDI 01
291.692;000.215;74;000.391;MIDI 01
291.864;000.114;75;000.406;MIDI 01
291.501;000.559;69;000.492;MIDI 01
291.495;000.594;66;000.492;MIDI 01
292.036;000.346;65;000.344;MIDI 01
292.052;000.332;68;000.414;MIDI 01
292.416;000.223;71;000.445;MIDI 01
292.628;000.215;69;000.383;MIDI 01
292.245;000.701;74;000.391;MIDI 01
292.820;000.172;68;000.375;MIDI 01
293.005;000.385;65;000.352;MIDI 01
293.398;000.156;64;000.359;MIDI 01
293.202;000.422;80;000.469;MIDI 01
293.591;000.154;62;000.297;MIDI 01
293.210;000.645;71;000.398;MIDI 01
293.782;000.346;79;000.375;MIDI 01
293.992;000.139;61;000.359;MIDI 01
293.807;000.496;70;000.344;MIDI 01
294.166;000.249;64;000.359;MIDI 01
294.357;000.131;66;000.398;MIDI 01
294.547;000.141;67;000.453;MIDI 01
294.716;000.186;69;000.445;MIDI 01
294.914;000.155;70;000.438;MIDI 01
295.099;000.173;72;000.367;MIDI 01
295.277;000.115;73;000.453;MIDI 01
294.909;000.570;67;000.477;MIDI 01
294.918;000.584;64;000.477;MIDI 01
295.471;000.273;66;000.414;MIDI 01
295.469;000.327;63;000.352;MIDI 01
295.668;000.337;72;000.391;MIDI 01
295.832;000.205;69;000.461;MIDI 01
296.017;000.141;66;000.469;MIDI 01
296.216;000.205;64;000.336;MIDI 01
296.802;000.169;62;000.383;MIDI 01
296.405;000.589;63;000.344;MIDI 01
296.587;000.548;78;000.430;MIDI 01
296.603;000.834;69;000.375;MIDI 01
297.040;000.484;60;000.344;MIDI 01
297.735;000.239;59;000.273;MIDI 01
297.998;000.190;61;000.281;MIDI 01
298.241;000.145;62;000.312;MIDI 01
297.376;001.106;77;000.398;MIDI 01
298.426;000.127;63;000.320;MIDI 01
297.387;001.275;68;000.422;MIDI 01
298.620;000.216;64;000.414;MIDI 01
298.816;000.394;65;000.398;MIDI 01
299.009;000.336;66;000.414;MIDI 01
299.198;000.201;67;000.391;MIDI 01
299.399;000.347;68;000.414;MIDI 01
299.595;000.174;64;000.328;MIDI 01
299.799;000.219;65;000.352;MIDI 01
300.023;000.211;66;000.391;MIDI 01
300.260;000.194;67;000.281;MIDI 01
300.509;000.275;68;000.234;MIDI 01
300.779;000.422;64;000.266;MIDI 01
301.107;000.479;65;000.219;MIDI 01
301.435;000.456;66;000.273;MIDI 01
301.828;000.659;67;000.234;MIDI 01
302.315;000.700;68;000.281;MIDI 01
304.012;000.566;53;000.328;MIDI 01
304.543;000.208;62;000.227;MIDI 01
304.535;000.276;59;000.250;MIDI 01
304.784;000.118;53;000.312;MIDI 01
304.014;000.898;68;000.398;MIDI 01
304.774;000.260;67;000.258;MIDI 01
305.002;000.067;59;000.242;MIDI 01
304.931;000.182;62;000.289;MIDI 01
305.130;000.065;53;000.234;MIDI 01
305.258;000.068;59;000.281;MIDI 01
305.246;000.151;62;000.250;MIDI 01
305.113;000.393;68;000.375;MIDI 01
302.934;002.609;70;000.289;MIDI 01
305.582;000.066;62;000.266;MIDI 01
305.539;000.144;59;000.250;MIDI 01
305.401;000.379;53;000.180;MIDI 01
305.385;000.416;67;000.336;MIDI 01
305.699;000.191;52;000.305;MIDI 01
305.851;000.118;59;000.281;MIDI 01
305.828;000.192;62;000.266;MIDI 01
305.695;000.450;68;000.312;MIDI 01
306.177;000.298;62;000.375;MIDI 01
305.993;000.538;52;000.219;MIDI 01
306.164;000.440;59;000.312;MIDI 01
305.974;000.685;67;000.383;MIDI 01
306.485;000.358;51;000.398;MIDI 01
306.850;000.092;63;000.336;MIDI 01
306.822;000.202;59;000.242;MIDI 01
307.029;000.078;51;000.297;MIDI 01
306.507;000.605;68;000.414;MIDI 01
307.155;000.077;63;000.281;MIDI 01
307.170;000.114;59;000.289;MIDI 01
307.293;000.065;51;000.305;MIDI 01
307.002;000.380;67;000.344;MIDI 01
307.420;000.089;63;000.344;MIDI 01
307.429;000.146;59;000.258;MIDI 01
307.284;000.397;68;000.281;MIDI 01
307.685;000.110;63;000.344;MIDI 01
307.709;000.114;59;000.289;MIDI 01
307.550;000.298;51;000.266;MIDI 01
307.559;000.365;67;000.320;MIDI 01
307.852;000.125;50;000.305;MIDI 01
307.970;000.111;59;000.328;MIDI 01
308.004;000.079;64;000.336;MIDI 01
307.842;000.411;68;000.383;MIDI 01
308.265;000.221;64;000.367;MIDI 01
308.097;000.446;50;000.203;MIDI 01
308.253;000.321;59;000.406;MIDI 01
308.099;000.552;67;000.391;MIDI 01
308.532;000.225;49;000.406;MIDI 01
308.528;000.271;68;000.445;MIDI 01
308.764;000.146;59;000.352;MIDI 01
308.770;000.142;65;000.352;MIDI 01
308.943;000.078;49;000.336;MIDI 01
308.935;000.111;67;000.398;MIDI 01
309.076;000.097;59;000.336;MIDI 01
309.080;000.102;65;000.430;MIDI 01
309.200;000.085;49;000.336;MIDI 01
309.206;000.102;68;000.430;MIDI 01
309.354;000.075;59;000.352;MIDI 01
309.329;000.108;65;000.438;MIDI 01
309.470;000.081;49;000.344;MIDI 01
309.616;000.079;65;000.383;MIDI 01
309.467;000.258;67;000.430;MIDI 01
309.609;000.140;59;000.391;MIDI 01
309.762;000.153;49;000.336;MIDI 01
309.909;000.108;64;000.383;MIDI 01
309.958;000.081;58;000.352;MIDI 01
309.753;000.357;68;000.367;MIDI 01
310.110;000.045;49;000.328;MIDI 01
310.203;000.070;58;000.328;MIDI 01
310.046;000.258;69;000.469;MIDI 01
310.183;000.130;64;000.422;MIDI 01
310.356;000.102;48;000.352;MIDI 01
310.462;000.113;58;000.273;MIDI 01
310.490;000.116;64;000.453;MIDI 01
310.605;000.082;48;000.328;MIDI 01
310.725;000.095;58;000.383;MIDI 01
310.756;000.126;64;000.508;MIDI 01
310.618;000.291;71;000.523;MIDI 01
310.859;000.075;48;000.391;MIDI 01
310.332;000.630;70;000.422;MIDI 01
310.993;000.071;58;000.344;MIDI 01
311.032;000.103;64;000.531;MIDI 01
311.110;000.065;48;000.398;MIDI 01
310.882;000.387;72;000.594;MIDI 01
311.164;000.129;73;000.562;MIDI 01
311.297;000.163;64;000.492;MIDI 01
311.243;000.256;58;000.320;MIDI 01
311.679;000.211;65;000.453;MIDI 01
311.508;000.423;53;000.320;MIDI 01
311.527;000.424;56;000.250;MIDI 01
311.891;000.250;72;000.562;MIDI 01
311.491;000.676;73;000.516;MIDI 01
312.091;000.152;80;000.648;MIDI 01
312.426;000.496;65;000.547;MIDI 01
312.897;000.175;74;000.430;MIDI 01
312.918;000.209;71;000.289;MIDI 01
313.117;000.114;65;000.367;MIDI 01
312.535;000.717;80;000.562;MIDI 01
313.279;000.086;71;000.367;MIDI 01
313.108;000.259;79;000.469;MIDI 01
313.256;000.146;74;000.414;MIDI 01
313.413;000.059;65;000.398;MIDI 01
313.542;000.098;71;000.391;MIDI 01
313.548;000.121;74;000.430;MIDI 01
313.411;000.274;80;000.508;MIDI 01
313.816;000.116;71;000.438;MIDI 01
313.831;000.113;74;000.438;MIDI 01
313.683;000.365;65;000.383;MIDI 01
313.679;000.393;79;000.477;MIDI 01
313.957;000.151;64;000.422;MIDI 01
314.113;000.117;74;000.453;MIDI 01
314.098;000.135;71;000.438;MIDI 01
313.981;000.365;80;000.367;MIDI 01
314.395;000.206;74;000.492;MIDI 01
314.239;000.473;64;000.406;MIDI 01
314.238;000.547;79;000.516;MIDI 01
314.393;000.400;71;000.469;MIDI 01
314.670;000.345;63;000.539;MIDI 01
315.000;000.163;75;000.367;MIDI 01
314.980;000.199;71;000.391;MIDI 01
314.703;000.539;80;000.492;MIDI 01
315.159;000.087;63;000.375;MIDI 01
315.291;000.111;71;000.297;MIDI 01
315.305;000.125;75;000.430;MIDI 01
315.148;000.314;79;000.406;MIDI 01
315.438;000.060;63;000.375;MIDI 01
315.609;000.066;75;000.406;MIDI 01
315.561;000.129;71;000.297;MIDI 01
315.442;000.347;80;000.414;MIDI 01
315.828;000.120;75;000.414;MIDI 01
315.853;000.104;71;000.383;MIDI 01
315.697;000.268;63;000.336;MIDI 01
315.708;000.336;79;000.391;MIDI 01
315.973;000.117;62;000.367;MIDI 01
316.127;000.103;76;000.422;MIDI 01
316.110;000.121;71;000.375;MIDI 01
315.978;000.375;80;000.375;MIDI 01
316.243;000.191;79;000.422;MIDI 01
316.264;000.354;62;000.375;MIDI 01
316.411;000.231;76;000.477;MIDI 01
316.409;000.251;71;000.391;MIDI 01
316.658;000.202;61;000.344;MIDI 01
316.905;000.125;77;000.398;MIDI 01
316.891;000.163;71;000.273;MIDI 01
316.652;000.483;80;000.414;MIDI 01
317.053;000.084;61;000.375;MIDI 01
317.062;000.113;79;000.398;MIDI 01
317.214;000.055;71;000.344;MIDI 01
317.202;000.086;77;000.422;MIDI 01
317.322;000.078;61;000.352;MIDI 01
317.309;000.105;80;000.430;MIDI 01
317.478;000.067;71;000.219;MIDI 01
317.445;000.122;77;000.445;MIDI 01
317.589;000.073;61;000.352;MIDI 01
317.594;000.127;79;000.414;MIDI 01
317.726;000.076;77;000.367;MIDI 01
317.721;000.084;71;000.344;MIDI 01
317.852;000.104;61;000.320;MIDI 01
318.005;000.125;76;000.398;MIDI 01
318.027;000.105;70;000.297;MIDI 01
317.870;000.331;80;000.352;MIDI 01
318.140;000.100;61;000.406;MIDI 01
318.307;000.064;70;000.273;MIDI 01
318.160;000.261;81;000.398;MIDI 01
318.315;000.126;76;000.344;MIDI 01
318.429;000.072;60;000.281;MIDI 01
318.529;000.106;70;000.328;MIDI 01
318.578;000.097;76;000.359;MIDI 01
318.690;000.092;60;000.188;MIDI 01
318.433;000.386;82;000.383;MIDI 01
318.826;000.082;70;000.336;MIDI 01
318.856;000.088;76;000.414;MIDI 01
318.711;000.269;83;000.398;MIDI 01
318.968;000.062;60;000.297;MIDI 01
319.147;000.069;70;000.031;MIDI 01
319.136;000.089;76;000.461;MIDI 01
319.225;000.105;60;000.305;MIDI 01
318.984;000.382;84;000.438;MIDI 01
319.283;000.129;85;000.477;MIDI 01
319.455;000.241;76;000.367;MIDI 01
319.395;000.360;70;000.258;MIDI 01
319.694;000.586;65;000.281;MIDI 01
319.724;000.580;68;000.234;MIDI 01
319.730;000.589;85;000.359;MIDI 01
319.993;000.381;77;000.289;MIDI 01
320.217;000.250;84;000.344;MIDI 01
320.445;000.047;80;000.234;MIDI 01
320.856;000.631;89;000.352;MIDI 01
321.617;000.134;77;000.367;MIDI 01
321.309;000.450;84;000.352;MIDI 01
321.475;000.287;80;000.297;MIDI 01
321.164;000.625;85;000.391;MIDI 01
321.756;000.226;73;000.375;MIDI 01
321.883;000.142;72;000.336;MIDI 01
322.055;000.134;68;000.312;MIDI 01
322.164;000.247;76;000.383;MIDI 01
322.297;000.155;73;000.375;MIDI 01
322.442;000.141;71;000.336;MIDI 01
322.592;000.148;68;000.344;MIDI 01
323.264;000.224;63;000.398;MIDI 01
323.423;000.241;59;000.352;MIDI 01
323.546;000.167;58;000.367;MIDI 01
323.684;000.165;55;000.406;MIDI 01
323.120;000.731;67;000.359;MIDI 01
322.725;001.128;75;000.375;MIDI 01
322.857;001.035;71;000.391;MIDI 01
323.021;000.883;70;000.305;MIDI 01
323.833;000.178;62;000.391;MIDI 01
323.969;000.169;59;000.414;MIDI 01
324.121;000.141;57;000.375;MIDI 01
324.284;000.181;54;000.367;MIDI 01
324.971;000.163;49;000.406;MIDI 01
325.131;000.177;45;000.375;MIDI 01
325.246;000.204;44;000.469;MIDI 01
324.840;000.689;53;000.312;MIDI 01
324.418;001.145;61;000.430;MIDI 01
325.371;000.252;41;000.406;MIDI 01
324.750;000.887;56;000.305;MIDI 01
324.582;001.085;57;000.305;MIDI 01
325.516;000.160;49;000.438;MIDI 01
325.647;000.185;45;000.469;MIDI 01
325.799;000.123;44;000.438;MIDI 01
325.915;000.267;42;000.367;MIDI 01
326.070;000.337;61;000.500;MIDI 01
326.227;000.320;57;000.422;MIDI 01
326.370;000.208;56;000.422;MIDI 01
326.481;000.117;54;000.375;MIDI 01
326.620;000.137;48;000.430;MIDI 01
326.781;000.111;46;000.367;MIDI 01
326.766;000.218;58;000.461;MIDI 01
326.924;000.061;55;000.352;MIDI 01
326.931;000.079;43;000.312;MIDI 01
327.042;000.124;40;000.344;MIDI 01
327.044;000.136;52;000.398;MIDI 01
327.203;000.142;53;000.398;MIDI 01
326.635;000.777;60;000.430;MIDI 01
327.201;000.232;41;000.375;MIDI 01
327.499;000.121;48;000.320;MIDI 01
327.367;000.361;56;000.422;MIDI 01
327.633;000.156;53;000.289;MIDI 01
327.944;000.076;49;000.383;MIDI 01
328.054;000.149;48;000.383;MIDI 01
328.370;000.145;56;000.383;MIDI 01
328.232;000.301;53;000.383;MIDI 01
327.794;000.791;44;000.438;MIDI 01
328.511;000.210;61;000.367;MIDI 01
328.602;000.163;60;000.422;MIDI 01
328.783;000.129;65;000.398;MIDI 01
328.874;000.278;64;000.453;MIDI 01
329.024;000.259;61;000.516;MIDI 01
329.128;000.201;59;000.438;MIDI 01
329.279;000.089;56;000.430;MIDI 01
329.536;000.126;59;000.383;MIDI 01
329.925;000.136;67;000.477;MIDI 01
329.812;000.351;63;000.453;MIDI 01
329.398;000.780;55;000.484;MIDI 01
329.672;000.556;58;000.500;MIDI 01
330.072;000.192;71;000.469;MIDI 01
330.211;000.141;70;000.508;MIDI 01
330.352;000.218;75;000.438;MIDI 01
330.464;000.315;74;000.445;MIDI 01
330.595;000.207;71;000.492;MIDI 01
330.734;000.201;69;000.469;MIDI 01
330.870;000.114;66;000.414;MIDI 01
331.118;000.154;69;000.438;MIDI 01
331.528;000.186;77;000.484;MIDI 01
331.661;000.171;81;000.508;MIDI 01
331.791;000.167;80;000.492;MIDI 01
331.254;000.820;68;000.484;MIDI 01
330.981;001.121;65;000.492;MIDI 01
331.390;000.723;73;000.477;MIDI 01
331.932;000.227;85;000.523;MIDI 01
332.071;000.150;77;000.539;MIDI 01
332.219;000.267;81;000.555;MIDI 01
332.332;000.157;80;000.555;MIDI 01
332.460;000.092;85;000.523;MIDI 01
332.582;000.217;78;000.578;MIDI 01
332.704;000.119;85;000.555;MIDI 01
332.706;000.128;81;000.516;MIDI 01
332.830;000.161;80;000.539;MIDI 01
332.969;000.058;81;000.414;MIDI 01
332.971;000.109;85;000.547;MIDI 01
333.248;000.059;82;000.359;MIDI 01
333.224;000.110;85;000.523;MIDI 01
333.098;000.279;76;000.508;MIDI 01
333.361;000.213;79;000.469;MIDI 01
333.510;000.106;82;000.336;MIDI 01
333.504;000.124;84;000.438;MIDI 01
333.923;000.065;80;000.266;MIDI 01
333.697;000.296;77;000.352;MIDI 01
333.892;000.132;84;000.383;MIDI 01
334.065;000.178;79;000.328;MIDI 01
334.194;000.076;80;000.305;MIDI 01
334.210;000.091;84;000.367;MIDI 01
334.330;000.227;77;000.383;MIDI 01
334.453;000.121;83;000.453;MIDI 01
334.465;000.117;80;000.367;MIDI 01
334.595;000.149;79;000.477;MIDI 01
334.766;000.036;80;000.320;MIDI 01
334.732;000.075;83;000.484;MIDI 01
334.981;000.094;80;000.359;MIDI 01
334.857;000.226;77;000.484;MIDI 01
334.982;000.105;85;000.508;MIDI 01
335.130;000.183;79;000.438;MIDI 01
335.255;000.060;80;000.406;MIDI 01
335.246;000.093;85;000.492;MIDI 01
335.501;000.119;85;000.547;MIDI 01
335.522;000.142;79;000.375;MIDI 01
335.386;000.302;76;000.453;MIDI 01
335.683;000.123;78;000.484;MIDI 01
335.773;000.103;84;000.422;MIDI 01
335.816;000.073;79;000.203;MIDI 01
336.105;000.056;78;000.281;MIDI 01
336.075;000.097;81;000.477;MIDI 01
335.931;000.302;75;000.500;MIDI 01
336.221;000.155;77;000.359;MIDI 01
336.348;000.052;78;000.242;MIDI 01
336.323;000.099;81;000.492;MIDI 01
336.603;000.062;78;000.367;MIDI 01
336.594;000.118;83;000.516;MIDI 01
336.474;000.268;75;000.461;MIDI 01
336.748;000.158;77;000.406;MIDI 01
336.864;000.068;78;000.297;MIDI 01
336.880;000.071;83;000.438;MIDI 01
337.149;000.098;82;000.430;MIDI 01
337.153;000.096;77;000.375;MIDI 01
337.023;000.270;74;000.438;MIDI 01
337.424;000.070;82;000.430;MIDI 01
337.440;000.060;77;000.383;MIDI 01
337.282;000.228;76;000.477;MIDI 01
337.697;000.110;79;000.414;MIDI 01
337.571;000.280;73;000.461;MIDI 01
337.722;000.144;76;000.367;MIDI 01
337.856;000.115;75;000.414;MIDI 01
337.988;000.077;76;000.180;MIDI 01
337.968;000.101;79;000.453;MIDI 01
338.118;000.217;73;000.453;MIDI 01
338.226;000.113;81;000.469;MIDI 01
338.216;000.132;76;000.453;MIDI 01
338.356;000.185;75;000.445;MIDI 01
338.499;000.064;76;000.320;MIDI 01
338.501;000.067;81;000.445;MIDI 01
338.781;000.071;75;000.312;MIDI 01
338.777;000.093;80;000.406;MIDI 01
338.644;000.291;72;000.422;MIDI 01
339.049;000.056;75;000.305;MIDI 01
339.044;000.077;80;000.430;MIDI 01
338.907;000.224;74;000.406;MIDI 01
339.328;000.082;80;000.391;MIDI 01
339.337;000.085;77;000.352;MIDI 01
339.196;000.277;71;000.422;MIDI 01
339.593;000.058;77;000.344;MIDI 01
339.576;000.093;80;000.461;MIDI 01
339.442;000.232;74;000.414;MIDI 01
339.841;000.132;79;000.398;MIDI 01
339.719;000.289;70;000.445;MIDI 01
339.870;000.161;76;000.297;MIDI 01
339.981;000.137;73;000.422;MIDI 01
340.126;000.061;79;000.422;MIDI 01
340.099;000.101;76;000.305;MIDI 01
340.438;000.084;73;000.344;MIDI 01
340.289;000.329;68;000.367;MIDI 01
340.416;000.353;77;000.398;MIDI 01
340.604;000.180;71;000.336;MIDI 01
340.742;000.061;72;000.414;MIDI 01
341.148;000.123;73;000.352;MIDI 01
341.124;000.150;80;000.445;MIDI 01
340.948;000.389;68;000.297;MIDI 01
340.965;000.393;65;000.242;MIDI 01
341.293;000.216;72;000.422;MIDI 01
341.435;000.075;73;000.445;MIDI 01
341.433;000.099;80;000.477;MIDI 01
341.561;000.161;65;000.281;MIDI 01
341.558;000.193;68;000.422;MIDI 01
341.703;000.070;73;000.484;MIDI 01
341.688;000.134;80;000.570;MIDI 01
341.831;000.125;71;000.477;MIDI 01
341.946;000.049;73;000.484;MIDI 01
341.976;000.071;80;000.516;MIDI 01
342.104;000.276;70;000.484;MIDI 01
342.097;000.298;73;000.562;MIDI 01
342.102;000.312;64;000.477;MIDI 01
342.243;000.259;80;000.578;MIDI 01
342.395;000.145;85;000.547;MIDI 01
342.532;000.042;79;000.461;MIDI 01
342.851;000.091;73;000.320;MIDI 01
342.811;000.133;78;000.430;MIDI 01
342.702;000.267;66;000.359;MIDI 01
342.725;000.283;63;000.289;MIDI 01
343.129;000.055;73;000.336;MIDI 01
342.962;000.225;70;000.430;MIDI 01
343.105;000.103;78;000.461;MIDI 01
343.248;000.154;66;000.391;MIDI 01
343.246;000.185;63;000.312;MIDI 01
343.368;000.085;72;000.438;MIDI 01
343.370;000.106;78;000.539;MIDI 01
343.503;000.119;69;000.508;MIDI 01
343.615;000.038;72;000.414;MIDI 01
343.622;000.097;78;000.578;MIDI 01
343.764;000.239;68;000.477;MIDI 01
343.784;000.231;62;000.414;MIDI 01
343.771;000.262;71;000.500;MIDI 01
343.899;000.184;78;000.531;MIDI 01
344.055;000.119;83;000.461;MIDI 01
344.201;000.033;77;000.406;MIDI 01
344.488;000.116;71;000.406;MIDI 01
344.470;000.147;76;000.398;MIDI 01
344.361;000.282;61;000.359;MIDI 01
344.351;000.297;64;000.406;MIDI 01
344.616;000.179;68;000.391;MIDI 01
344.750;000.074;71;000.391;MIDI 01
344.765;000.062;76;000.430;MIDI 01
344.872;000.182;64;000.414;MIDI 01
344.885;000.194;61;000.359;MIDI 01
345.033;000.065;70;000.414;MIDI 01
345.011;000.121;76;000.492;MIDI 01
345.158;000.132;67;000.461;MIDI 01
345.257;000.071;70;000.398;MIDI 01
345.289;000.083;76;000.539;MIDI 01
345.431;000.194;60;000.406;MIDI 01
345.433;000.221;69;000.438;MIDI 01
345.417;000.259;66;000.445;MIDI 01
345.558;000.144;76;000.539;MIDI 01
345.712;000.146;81;000.492;MIDI 01
345.857;000.057;75;000.453;MIDI 01
345.993;000.198;59;000.367;MIDI 01
346.001;000.201;65;000.328;MIDI 01
345.999;000.245;68;000.344;MIDI 01
346.134;000.238;75;000.469;MIDI 01
346.277;000.135;80;000.406;MIDI 01
346.425;000.054;74;000.414;MIDI 01
346.735;000.092;74;000.328;MIDI 01
346.555;000.325;58;000.305;MIDI 01
346.552;000.336;67;000.328;MIDI 01
346.572;000.338;64;000.266;MIDI 01
346.867;000.198;79;000.344;MIDI 01
347.059;000.064;73;000.312;MIDI 01
347.230;000.502;56;000.250;MIDI 01
347.580;000.219;77;000.359;MIDI 01
347.803;000.072;71;000.289;MIDI 01
347.445;000.456;73;000.281;MIDI 01
348.047;000.203;65;000.320;MIDI 01
348.277;000.231;64;000.367;MIDI 01
348.030;000.524;56;000.305;MIDI 01
348.469;000.135;65;000.414;MIDI 01
348.268;000.361;72;000.430;MIDI 01
348.478;000.317;60;000.328;MIDI 01
348.758;000.079;65;000.469;MIDI 01
348.584;000.273;71;000.461;MIDI 01
348.595;000.285;67;000.406;MIDI 01
348.876;000.062;64;000.422;MIDI 01
348.864;000.152;72;000.508;MIDI 01
348.748;000.272;56;000.430;MIDI 01
349.011;000.092;65;000.477;MIDI 01
349.014;000.186;60;000.398;MIDI 01
349.115;000.239;71;000.438;MIDI 01
349.274;000.115;64;000.453;MIDI 01
349.123;000.276;67;000.445;MIDI 01
349.283;000.169;55;000.398;MIDI 01
349.405;000.123;63;000.430;MIDI 01
349.553;000.046;64;000.445;MIDI 01
349.559;000.092;58;000.414;MIDI 01
349.403;000.279;72;000.461;MIDI 01
349.672;000.269;71;000.492;MIDI 01
349.681;000.261;66;000.422;MIDI 01
349.833;000.128;63;000.391;MIDI 01
349.853;000.288;54;000.242;MIDI 01
350.116;000.066;63;000.445;MIDI 01
349.973;000.225;62;000.359;MIDI 01
350.106;000.128;58;000.430;MIDI 01
349.953;000.285;72;000.477;MIDI 01
350.223;000.191;65;000.438;MIDI 01
350.356;000.099;63;000.438;MIDI 01
350.205;000.258;71;000.406;MIDI 01
350.376;000.107;54;000.312;MIDI 01
350.499;000.092;62;000.414;MIDI 01
350.630;000.118;63;000.484;MIDI 01
350.632;000.136;58;000.422;MIDI 01
350.492;000.285;72;000.469;MIDI 01
350.757;000.072;65;000.461;MIDI 01
350.746;000.217;71;000.461;MIDI 01
350.885;000.083;62;000.484;MIDI 01
350.890;000.092;53;000.398;MIDI 01
351.012;000.111;61;000.492;MIDI 01
351.133;000.062;62;000.508;MIDI 01
351.156;000.094;56;000.430;MIDI 01
350.981;000.289;72;000.461;MIDI 01
351.294;000.149;64;000.367;MIDI 01
351.411;000.111;61;000.500;MIDI 01
351.260;000.314;71;000.492;MIDI 01
351.422;000.181;53;000.336;MIDI 01
351.555;000.083;60;000.484;MIDI 01
351.544;000.159;72;000.492;MIDI 01
351.688;000.089;61;000.508;MIDI 01
351.693;000.129;56;000.414;MIDI 01
351.794;000.121;71;000.484;MIDI 01
351.792;000.125;63;000.484;MIDI 01
351.940;000.101;61;000.531;MIDI 01
351.953;000.115;53;000.430;MIDI 01
352.075;000.056;60;000.500;MIDI 01
352.073;000.178;72;000.531;MIDI 01
352.222;000.064;56;000.422;MIDI 01
352.200;000.117;61;000.531;MIDI 01
352.325;000.065;63;000.461;MIDI 01
352.329;000.191;71;000.477;MIDI 01
352.484;000.085;60;000.414;MIDI 01
352.497;000.082;55;000.359;MIDI 01
352.491;000.092;52;000.406;MIDI 01
352.629;000.060;61;000.406;MIDI 01
352.586;000.123;72;000.461;MIDI 01
352.746;000.075;60;000.453;MIDI 01
352.759;000.062;52;000.414;MIDI 01
352.750;000.093;55;000.453;MIDI 01
352.872;000.071;61;000.438;MIDI 01
352.874;000.099;72;000.516;MIDI 01
352.988;000.111;60;000.492;MIDI 01
353.004;000.105;56;000.469;MIDI 01
353.001;000.114;53;000.422;MIDI 01
353.131;000.080;62;000.484;MIDI 01
353.133;000.115;72;000.523;MIDI 01
353.275;000.065;53;000.500;MIDI 01
353.254;000.094;60;000.570;MIDI 01
353.265;000.090;56;000.531;MIDI 01
353.374;000.065;62;000.508;MIDI 01
353.397;000.074;72;000.539;MIDI 01
353.503;000.111;60;000.555;MIDI 01
353.519;000.099;58;000.484;MIDI 01
353.511;000.109;55;000.500;MIDI 01
353.647;000.073;64;000.469;MIDI 01
353.634;000.110;72;000.539;MIDI 01
353.779;000.096;58;000.492;MIDI 01
353.773;000.103;60;000.531;MIDI 01
353.782;000.107;55;000.516;MIDI 01
353.911;000.080;64;000.492;MIDI 01
353.908;000.086;72;000.555;MIDI 01
354.202;000.165;65;000.477;MIDI 01
354.196;000.182;72;000.516;MIDI 01
354.054;000.415;60;000.523;MIDI 01
354.064;000.429;56;000.500;MIDI 01
354.378;000.131;68;000.484;MIDI 01
354.543;000.043;61;000.531;MIDI 01
354.718;000.178;60;000.469;MIDI 01
354.928;000.191;59;000.523;MIDI 01
354.921;000.228;65;000.633;MIDI 01
354.716;000.460;56;000.445;MIDI 01
355.120;000.154;60;000.438;MIDI 01
355.274;000.120;65;000.609;MIDI 01
355.289;000.114;61;000.461;MIDI 01
355.123;000.289;55;000.469;MIDI 01
355.436;000.103;60;000.492;MIDI 01
355.560;000.054;59;000.438;MIDI 01
355.556;000.108;65;000.516;MIDI 01
355.424;000.247;56;000.422;MIDI 01
355.699;000.062;60;000.469;MIDI 01
355.703;000.126;55;000.469;MIDI 01
355.856;000.070;61;000.414;MIDI 01
355.833;000.100;65;000.477;MIDI 01
355.984;000.104;58;000.375;MIDI 01
355.953;000.198;55;000.398;MIDI 01
356.142;000.072;57;000.391;MIDI 01
356.121;000.124;64;000.508;MIDI 01
356.260;000.068;58;000.430;MIDI 01
356.258;000.086;54;000.391;MIDI 01
356.401;000.075;60;000.445;MIDI 01
356.387;000.103;64;000.539;MIDI 01
356.544;000.130;58;000.531;MIDI 01
356.682;000.101;57;000.461;MIDI 01
356.657;000.152;63;000.594;MIDI 01
356.550;000.302;54;000.453;MIDI 01
356.825;000.092;58;000.516;MIDI 01
356.837;000.143;53;000.414;MIDI 01
356.951;000.075;59;000.453;MIDI 01
356.953;000.115;63;000.516;MIDI 01
357.078;000.093;58;000.477;MIDI 01
357.104;000.124;54;000.367;MIDI 01
357.225;000.056;57;000.430;MIDI 01
357.222;000.098;63;000.500;MIDI 01
357.328;000.073;58;000.469;MIDI 01
357.343;000.094;53;000.383;MIDI 01
357.483;000.070;59;000.445;MIDI 01
357.485;000.081;63;000.492;MIDI 01
357.600;000.106;56;000.438;MIDI 01
357.608;000.182;53;000.398;MIDI 01
357.756;000.057;55;000.375;MIDI 01
357.728;000.121;62;000.531;MIDI 01
357.867;000.090;56;000.516;MIDI 01
357.871;000.094;52;000.438;MIDI 01
358.003;000.081;58;000.484;MIDI 01
357.998;000.095;62;000.547;MIDI 01
358.127;000.152;56;000.531;MIDI 01
358.276;000.079;55;000.461;MIDI 01
358.266;000.125;61;000.570;MIDI 01
358.136;000.351;52;000.508;MIDI 01
358.427;000.103;56;000.484;MIDI 01
358.541;000.107;58;000.484;MIDI 01
358.429;000.221;51;000.461;MIDI 01
358.543;000.117;61;000.492;MIDI 01
358.685;000.108;56;000.477;MIDI 01
358.679;000.147;52;000.438;MIDI 01
358.832;000.058;55;000.398;MIDI 01
358.816;000.108;61;000.523;MIDI 01
358.951;000.072;56;000.453;MIDI 01
358.941;000.100;51;000.469;MIDI 01
359.090;000.056;61;000.414;MIDI 01
359.093;000.075;58;000.391;MIDI 01
359.232;000.085;56;000.383;MIDI 01
359.377;000.066;55;000.297;MIDI 01
359.223;000.227;51;000.414;MIDI 01
359.364;000.108;60;000.398;MIDI 01
359.491;000.108;56;000.422;MIDI 01
359.663;000.077;58;000.359;MIDI 01
359.642;000.121;60;000.438;MIDI 01
359.514;000.310;50;000.320;MIDI 01
359.790;000.120;56;000.391;MIDI 01
359.950;000.068;55;000.352;MIDI 01
359.926;000.116;60;000.445;MIDI 01
359.818;000.238;51;000.398;MIDI 01
360.075;000.117;56;000.445;MIDI 01
360.232;000.095;58;000.336;MIDI 01
360.209;000.120;60;000.445;MIDI 01
360.084;000.331;50;000.305;MIDI 01
360.365;000.115;56;000.477;MIDI 01
360.527;000.059;55;000.359;MIDI 01
360.504;000.106;60;000.438;MIDI 01
360.381;000.231;51;000.398;MIDI 01
360.646;000.108;56;000.461;MIDI 01
360.644;000.212;50;000.281;MIDI 01
360.783;000.104;60;000.445;MIDI 01
360.798;000.092;58;000.398;MIDI 01
360.947;000.124;56;000.391;MIDI 01
361.136;000.089;55;000.297;MIDI 01
361.110;000.142;61;000.438;MIDI 01
360.961;000.319;51;000.375;MIDI 01
361.267;000.160;56;000.344;MIDI 01
361.449;000.122;58;000.336;MIDI 01
361.431;000.145;61;000.406;MIDI 01
361.265;000.380;52;000.398;MIDI 01
361.618;000.167;56;000.367;MIDI 01
361.814;000.096;55;000.336;MIDI 01
361.778;000.170;61;000.414;MIDI 01
361.636;000.393;51;000.336;MIDI 01
361.975;000.149;56;000.352;MIDI 01
361.997;000.228;52;000.352;MIDI 01
362.158;000.238;61;000.352;MIDI 01
362.202;000.244;58;000.305;MIDI 01
362.424;000.293;56;000.344;MIDI 01
362.441;000.431;51;000.312;MIDI 01
362.710;000.311;60;000.359;MIDI 01
362.723;000.311;55;000.328;MIDI 01
363.000;000.414;56;000.312;MIDI 01
363.018;000.442;52;000.297;MIDI 01
363.439;000.585;58;000.289;MIDI 01
363.394;000.639;60;000.336;MIDI 01
364.022;000.455;56;000.297;MIDI 01
364.032;000.705;53;000.289;MIDI 01
365.121;000.444;29;000.648;MIDI 01
365.382;000.194;53;000.633;MIDI 01
365.572;000.039;41;000.594;MIDI 01
365.754;000.057;53;000.547;MIDI 01
365.575;000.305;65;000.617;MIDI 01
366.045;000.102;65;000.641;MIDI 01
366.194;000.061;53;000.586;MIDI 01
365.901;000.381;41;000.484;MIDI 01
366.247;000.047;75;000.195;MIDI 01
366.179;000.139;77;000.602;MIDI 01
366.307;000.075;65;000.586;MIDI 01
366.530;000.094;64;000.609;MIDI 01
366.429;000.247;52;000.703;MIDI 01
366.660;000.058;40;000.547;MIDI 01
366.650;000.135;76;000.625;MIDI 01
366.772;000.044;64;000.594;MIDI 01
366.994;000.094;63;000.586;MIDI 01
366.890;000.265;39;000.711;MIDI 01
367.144;000.044;51;000.602;MIDI 01
367.110;000.149;75;000.625;MIDI 01
367.232;000.034;63;000.617;MIDI 01
367.401;000.047;50;000.281;MIDI 01
367.475;000.074;75;000.648;MIDI 01
367.564;000.090;63;000.602;MIDI 01
367.570;000.144;87;000.672;MIDI 01
367.343;000.387;51;000.734;MIDI 01
367.685;000.092;75;000.656;MIDI 01
367.904;000.102;74;000.680;MIDI 01
367.784;000.254;62;000.711;MIDI 01
368.019;000.052;50;000.570;MIDI 01
368.021;000.125;86;000.656;MIDI 01
368.131;000.061;74;000.688;MIDI 01
368.352;000.094;73;000.672;MIDI 01
368.244;000.248;49;000.727;MIDI 01
368.499;000.047;61;000.641;MIDI 01
368.469;000.161;85;000.680;MIDI 01
368.590;000.052;73;000.656;MIDI 01
368.849;000.120;85;000.734;MIDI 01
368.999;000.142;73;000.719;MIDI 01
368.709;000.491;61;000.750;MIDI 01
368.992;000.325;97;000.703;MIDI 01
369.159;000.282;85;000.727;MIDI 01
369.390;000.077;68;000.281;MIDI 01
369.241;000.333;92;000.133;MIDI 01
369.558;000.162;84;000.680;MIDI 01
369.334;000.420;72;000.781;MIDI 01
369.728;000.145;96;000.602;MIDI 01
369.854;000.069;84;000.617;MIDI 01
369.744;000.199;60;000.516;MIDI 01
370.061;000.095;83;000.648;MIDI 01
369.960;000.252;71;000.711;MIDI 01
370.199;000.073;59;000.578;MIDI 01
370.182;000.119;95;000.625;MIDI 01
370.295;000.045;83;000.625;MIDI 01
370.510;000.087;82;000.625;MIDI 01
370.409;000.236;70;000.734;MIDI 01
370.615;000.089;58;000.547;MIDI 01
370.624;000.111;94;000.680;MIDI 01
370.742;000.046;82;000.602;MIDI 01
370.944;000.075;80;000.680;MIDI 01
370.842;000.194;68;000.688;MIDI 01
371.029;000.057;56;000.508;MIDI 01
371.044;000.103;92;000.695;MIDI 01
371.146;000.051;80;000.633;MIDI 01
371.270;000.031;65;000.664;MIDI 01
371.261;000.046;77;000.758;MIDI 01
371.365;000.080;77;000.617;MIDI 01
371.473;000.096;89;000.656;MIDI 01
371.578;000.038;77;000.609;MIDI 01
371.690;000.030;65;000.625;MIDI 01
371.686;000.039;53;000.602;MIDI 01
371.798;000.075;65;000.633;MIDI 01
371.904;000.094;77;000.586;MIDI 01
372.002;000.043;65;000.633;MIDI 01
372.120;000.027;64;000.688;MIDI 01
372.131;000.032;52;000.594;MIDI 01
372.225;000.081;64;000.648;MIDI 01
372.343;000.094;76;000.625;MIDI 01
372.432;000.058;64;000.680;MIDI 01
372.550;000.029;63;000.656;MIDI 01
372.554;000.039;51;000.648;MIDI 01
372.640;000.090;63;000.641;MIDI 01
372.755;000.108;75;000.633;MIDI 01
372.861;000.046;63;000.609;MIDI 01
372.970;000.044;51;000.695;MIDI 01
372.976;000.050;39;000.602;MIDI 01
373.098;000.062;75;000.656;MIDI 01
373.191;000.089;87;000.609;MIDI 01
373.297;000.071;75;000.656;MIDI 01
373.399;000.105;50;000.664;MIDI 01
373.407;000.109;38;000.586;MIDI 01
373.512;000.084;74;000.672;MIDI 01
373.621;000.117;86;000.641;MIDI 01
373.722;000.043;74;000.625;MIDI 01
373.835;000.036;37;000.578;MIDI 01
373.830;000.049;49;000.719;MIDI 01
373.934;000.071;73;000.648;MIDI 01
374.036;000.083;85;000.633;MIDI 01
374.144;000.027;73;000.656;MIDI 01
374.253;000.030;61;000.703;MIDI 01
374.252;000.035;49;000.641;MIDI 01
374.365;000.089;61;000.625;MIDI 01
374.472;000.130;73;000.625;MIDI 01
374.581;000.072;61;000.656;MIDI 01
374.679;000.035;60;000.711;MIDI 01
374.688;000.046;48;000.609;MIDI 01
374.793;000.077;60;000.695;MIDI 01
374.909;000.128;72;000.586;MIDI 01
374.989;000.053;60;000.648;MIDI 01
375.109;000.053;47;000.578;MIDI 01
375.103;000.064;59;000.727;MIDI 01
375.203;000.091;64;000.664;MIDI 01
375.340;000.109;67;000.508;MIDI 01
375.316;000.140;76;000.664;MIDI 01
375.427;000.045;64;000.680;MIDI 01
375.524;000.091;58;000.703;MIDI 01
375.529;000.111;46;000.625;MIDI 01
375.633;000.082;67;000.633;MIDI 01
375.741;000.123;72;000.562;MIDI 01
375.846;000.031;67;000.625;MIDI 01
375.738;000.145;79;000.625;MIDI 01
375.936;000.054;45;000.578;MIDI 01
375.947;000.071;57;000.664;MIDI 01
376.193;000.036;64;000.594;MIDI 01
376.199;000.042;60;000.555;MIDI 01
376.191;000.229;84;000.672;MIDI 01
376.446;000.002;44;000.445;MIDI 01
376.197;000.255;72;000.672;MIDI 01
376.195;000.259;76;000.664;MIDI 01
376.424;000.036;56;000.680;MIDI 01
376.458;000.002;58;000.422;MIDI 01
376.450;000.031;46;000.438;MIDI 01
376.658;000.033;64;000.617;MIDI 01
376.652;000.064;59;000.703;MIDI 01
376.895;000.040;43;000.648;MIDI 01
376.890;000.050;55;000.742;MIDI 01
376.665;000.301;71;000.695;MIDI 01
376.660;000.326;83;000.727;MIDI 01
376.667;000.325;76;000.680;MIDI 01
377.130;000.041;64;000.633;MIDI 01
377.141;000.036;60;000.531;MIDI 01
377.139;000.072;58;000.625;MIDI 01
377.153;000.254;76;000.695;MIDI 01
377.151;000.291;72;000.680;MIDI 01
377.145;000.320;84;000.734;MIDI 01
377.428;000.040;41;000.719;MIDI 01
377.425;000.045;53;000.789;MIDI 01
378.008;000.028;77;000.703;MIDI 01
377.997;000.042;72;000.781;MIDI 01
378.002;000.040;68;000.781;MIDI 01
378.000;000.044;80;000.766;MIDI 01
377.995;000.051;84;000.734;MIDI 01
378.006;000.042;65;000.719;MIDI 01
378.012;000.059;60;000.656;MIDI 01
378.010;000.084;56;000.648;MIDI 01
378.653;000.065;41;000.469;MIDI 01
378.621;000.133;29;000.477;MIDI 01
378.767;000.051;42;000.461;MIDI 01
378.769;000.061;30;000.453;MIDI 01
378.866;000.054;43;000.531;MIDI 01
378.842;000.121;31;000.484;MIDI 01
378.944;000.036;44;000.539;MIDI 01
378.955;000.068;32;000.547;MIDI 01
379.027;000.053;45;000.570;MIDI 01
379.047;000.078;33;000.500;MIDI 01
379.105;000.049;46;000.539;MIDI 01
379.122;000.103;34;000.633;MIDI 01
379.193;000.088;47;000.539;MIDI 01
379.212;000.098;35;000.578;MIDI 01
379.280;000.070;48;000.570;MIDI 01
379.303;000.086;36;000.555;MIDI 01
379.355;000.079;49;000.539;MIDI 01
379.385;000.061;37;000.578;MIDI 01
379.447;000.062;50;000.609;MIDI 01
379.441;000.071;38;000.516;MIDI 01
379.533;000.046;51;000.609;MIDI 01
379.586;000.034;52;000.797;MIDI 01
379.589;000.044;28;000.664;MIDI 01
379.584;000.051;40;000.805;MIDI 01
380.168;000.031;66;000.203;MIDI 01
380.175;000.027;73;000.797;MIDI 01
380.186;000.024;79;000.648;MIDI 01
380.171;000.045;85;000.766;MIDI 01
380.191;000.030;70;000.766;MIDI 01
380.199;000.027;67;000.711;MIDI 01
380.178;000.050;82;000.719;MIDI 01
380.193;000.066;61;000.641;MIDI 01
380.189;000.084;58;000.617;MIDI 01
380.729;000.049;39;000.531;MIDI 01
380.727;000.079;27;000.539;MIDI 01
380.822;000.099;40;000.555;MIDI 01
380.819;000.154;28;000.500;MIDI 01
380.894;000.101;29;000.555;MIDI 01
380.919;000.092;41;000.570;MIDI 01
381.010;000.057;42;000.539;MIDI 01
380.995;000.077;30;000.586;MIDI 01
381.091;000.060;43;000.547;MIDI 01
381.068;000.109;31;000.539;MIDI 01
381.158;000.062;44;000.609;MIDI 01
381.165;000.096;32;000.602;MIDI 01
381.256;000.053;45;000.617;MIDI 01
381.254;000.096;33;000.578;MIDI 01
381.328;000.072;46;000.570;MIDI 01
381.342;000.130;34;000.633;MIDI 01
381.418;000.115;47;000.586;MIDI 01
381.428;000.135;35;000.578;MIDI 01
381.519;000.079;48;000.586;MIDI 01
381.544;000.068;37;000.641;MIDI 01
381.586;000.069;49;000.648;MIDI 01
381.665;000.028;50;000.742;MIDI 01
381.668;000.047;38;000.828;MIDI 01
381.674;000.044;26;000.695;MIDI 01
381.719;000.050;36;000.250;MIDI 01
382.269;000.018;69;000.797;MIDI 01
382.272;000.025;81;000.672;MIDI 01
382.295;000.002;82;000.453;MIDI 01
382.258;000.047;90;000.797;MIDI 01
382.262;000.046;78;000.742;MIDI 01
382.260;000.050;66;000.789;MIDI 01
382.265;000.048;86;000.672;MIDI 01
382.267;000.054;62;000.672;MIDI 01
382.270;000.059;57;000.609;MIDI 01
382.782;000.040;37;000.539;MIDI 01
382.799;000.052;25;000.523;MIDI 01
382.882;000.054;38;000.500;MIDI 01
382.879;000.079;26;000.531;MIDI 01
382.956;000.041;39;000.586;MIDI 01
382.954;000.092;27;000.609;MIDI 01
383.051;000.098;40;000.547;MIDI 01
383.044;000.108;28;000.555;MIDI 01
383.136;000.080;41;000.570;MIDI 01
383.127;000.097;29;000.586;MIDI 01
383.221;000.054;42;000.547;MIDI 01
383.217;000.070;30;000.617;MIDI 01
383.293;000.057;43;000.578;MIDI 01
383.291;000.104;31;000.523;MIDI 01
383.366;000.080;44;000.648;MIDI 01
383.464;000.067;45;000.562;MIDI 01
383.378;000.176;32;000.625;MIDI 01
383.545;000.067;46;000.617;MIDI 01
383.491;000.127;33;000.523;MIDI 01
383.576;000.092;35;000.523;MIDI 01
383.635;000.096;47;000.633;MIDI 01
383.692;000.082;48;000.492;MIDI 01
383.743;000.064;49;000.742;MIDI 01
383.780;000.031;25;000.727;MIDI 01
383.778;000.034;37;000.805;MIDI 01
384.302;000.022;69;000.742;MIDI 01
384.316;000.023;81;000.773;MIDI 01
384.337;000.001;88;000.484;MIDI 01
384.319;000.022;93;000.742;MIDI 01
384.322;000.024;85;000.695;MIDI 01
384.304;000.057;61;000.680;MIDI 01
384.300;000.064;64;000.680;MIDI 01
384.369;000.002;91;000.297;MIDI 01
384.434;000.040;85;000.203;MIDI 01
384.837;000.040;36;000.766;MIDI 01
384.839;000.043;48;000.891;MIDI 01
385.390;000.002;89;000.469;MIDI 01
385.348;000.051;72;000.734;MIDI 01
385.358;000.058;60;000.602;MIDI 01
385.346;000.073;69;000.680;MIDI 01
385.350;000.078;64;000.586;MIDI 01
385.858;000.032;55;000.727;MIDI 01
385.856;000.036;53;000.711;MIDI 01
385.854;000.042;41;000.711;MIDI 01
385.921;000.002;43;000.156;MIDI 01
385.352;000.645;93;000.758;MIDI 01
385.354;000.659;81;000.750;MIDI 01
385.356;000.666;88;000.727;MIDI 01
385.360;000.673;84;000.734;MIDI 01
386.356;000.031;72;000.750;MIDI 01
386.348;000.050;80;000.797;MIDI 01
386.359;000.045;84;000.688;MIDI 01
386.346;000.062;92;000.805;MIDI 01
386.350;000.066;89;000.727;MIDI 01
386.364;000.075;68;000.648;MIDI 01
386.366;000.092;65;000.625;MIDI 01
386.363;000.107;60;000.641;MIDI 01
386.873;000.040;41;000.523;MIDI 01
386.894;000.043;29;000.359;MIDI 01
386.977;000.041;42;000.594;MIDI 01
386.973;000.064;54;000.609;MIDI 01
387.082;000.042;43;000.625;MIDI 01
387.093;000.039;31;000.516;MIDI 01
387.154;000.034;44;000.641;MIDI 01
387.156;000.044;56;000.633;MIDI 01
387.239;000.041;45;000.641;MIDI 01
387.249;000.033;33;000.578;MIDI 01
387.310;000.036;46;000.656;MIDI 01
387.308;000.048;58;000.664;MIDI 01
387.376;000.051;47;000.711;MIDI 01
387.386;000.047;35;000.656;MIDI 01
387.455;000.038;48;000.625;MIDI 01
387.457;000.051;60;000.664;MIDI 01
387.550;000.034;49;000.773;MIDI 01
387.591;000.001;48;000.289;MIDI 01
387.545;000.054;37;000.508;MIDI 01
387.616;000.041;50;000.648;MIDI 01
387.617;000.049;62;000.727;MIDI 01
387.706;000.058;51;000.766;MIDI 01
387.704;000.073;39;000.484;MIDI 01
387.766;000.028;52;000.703;MIDI 01
387.769;000.053;64;000.766;MIDI 01
387.892;000.001;50;000.352;MIDI 01
387.895;000.029;46;000.492;MIDI 01
387.924;000.052;39;000.117;MIDI 01
387.859;000.132;40;000.758;MIDI 01
387.935;000.062;41;000.180;MIDI 01
387.857;000.150;52;000.805;MIDI 01
388.252;000.055;68;000.117;MIDI 01
388.391;000.025;70;000.781;MIDI 01
388.401;000.019;82;000.742;MIDI 01
388.396;000.030;79;000.797;MIDI 01
388.424;000.002;89;000.508;MIDI 01
388.403;000.025;91;000.758;MIDI 01
388.407;000.023;85;000.703;MIDI 01
388.395;000.046;58;000.641;MIDI 01
388.392;000.051;67;000.656;MIDI 01
388.399;000.075;61;000.617;MIDI 01
388.488;000.030;82;000.398;MIDI 01
388.517;000.047;85;000.164;MIDI 01
388.899;000.031;39;000.680;MIDI 01
388.908;000.034;27;000.594;MIDI 01
388.998;000.040;52;000.656;MIDI 01
389.006;000.032;40;000.555;MIDI 01
389.103;000.042;41;000.711;MIDI 01
389.111;000.043;29;000.609;MIDI 01
389.179;000.035;42;000.633;MIDI 01
389.181;000.042;54;000.625;MIDI 01
389.267;000.042;43;000.641;MIDI 01
389.273;000.037;31;000.570;MIDI 01
389.340;000.029;44;000.672;MIDI 01
389.342;000.039;56;000.656;MIDI 01
389.417;000.039;45;000.695;MIDI 01
389.429;000.034;33;000.570;MIDI 01
389.492;000.032;46;000.633;MIDI 01
389.493;000.033;58;000.680;MIDI 01
389.496;000.076;39;000.125;MIDI 01
389.571;000.043;35;000.633;MIDI 01
389.561;000.054;47;000.703;MIDI 01
389.648;000.030;59;000.719;MIDI 01
389.651;000.035;48;000.609;MIDI 01
389.659;000.029;47;000.508;MIDI 01
389.738;000.042;49;000.789;MIDI 01
389.741;000.040;37;000.695;MIDI 01
389.793;000.023;50;000.688;MIDI 01
389.795;000.047;62;000.695;MIDI 01
389.840;000.055;42;000.023;MIDI 01
389.920;000.029;39;000.539;MIDI 01
389.940;000.033;44;000.336;MIDI 01
389.890;000.114;38;000.773;MIDI 01
389.885;000.144;50;000.680;MIDI 01
390.439;000.018;74;000.758;MIDI 01
390.448;000.010;90;000.750;MIDI 01
390.438;000.023;81;000.797;MIDI 01
390.443;000.028;93;000.805;MIDI 01
390.449;000.024;86;000.680;MIDI 01
390.435;000.058;69;000.656;MIDI 01
390.445;000.055;66;000.703;MIDI 01
390.441;000.065;62;000.555;MIDI 01
390.493;000.048;70;000.266;MIDI 01
390.524;000.029;90;000.445;MIDI 01
390.983;000.031;37;000.602;MIDI 01
391.000;000.048;25;000.469;MIDI 01
391.077;000.045;50;000.617;MIDI 01
391.089;000.037;38;000.531;MIDI 01
391.168;000.044;39;000.750;MIDI 01
391.181;000.032;27;000.617;MIDI 01
391.242;000.032;40;000.594;MIDI 01
391.234;000.059;52;000.672;MIDI 01
391.361;000.027;40;000.555;MIDI 01
391.347;000.044;41;000.680;MIDI 01
391.366;000.031;29;000.492;MIDI 01
391.373;000.043;28;000.453;MIDI 01
391.415;000.040;42;000.664;MIDI 01
391.420;000.041;54;000.633;MIDI 01
391.502;000.042;43;000.688;MIDI 01
391.507;000.051;31;000.633;MIDI 01
391.567;000.038;44;000.680;MIDI 01
391.569;000.051;56;000.656;MIDI 01
391.671;000.033;33;000.586;MIDI 01
391.657;000.049;45;000.719;MIDI 01
391.725;000.037;39;000.133;MIDI 01
391.732;000.032;46;000.664;MIDI 01
391.734;000.035;58;000.664;MIDI 01
391.811;000.052;47;000.742;MIDI 01
391.820;000.049;35;000.641;MIDI 01
391.882;000.032;48;000.734;MIDI 01
391.880;000.055;60;000.719;MIDI 01
391.996;000.026;49;000.945;MIDI 01
391.995;000.039;37;000.703;MIDI 01
392.545;000.024;69;000.719;MIDI 01
392.557;000.015;88;000.734;MIDI 01
392.556;000.019;85;000.695;MIDI 01
392.549;000.028;81;000.797;MIDI 01
392.553;000.031;93;000.750;MIDI 01
392.546;000.050;61;000.688;MIDI 01
392.551;000.069;64;000.648;MIDI 01
392.655;000.034;85;000.359;MIDI 01
393.083;000.054;48;000.914;MIDI 01
393.085;000.054;36;000.734;MIDI 01
393.156;000.002;37;000.203;MIDI 01
393.159;000.070;42;000.094;MIDI 01
393.629;000.041;76;000.797;MIDI 01
393.632;000.043;72;000.781;MIDI 01
393.634;000.051;81;000.719;MIDI 01
393.636;000.056;84;000.703;MIDI 01
393.643;000.052;60;000.641;MIDI 01
393.639;000.057;69;000.750;MIDI 01
393.625;000.077;88;000.758;MIDI 01
393.641;000.070;64;000.617;MIDI 01
393.693;000.049;86;000.266;MIDI 01
394.203;000.166;41;000.734;MIDI 01
394.201;000.203;53;000.820;MIDI 01
394.962;000.018;86;000.562;MIDI 01
394.943;000.040;72;000.773;MIDI 01
394.932;000.075;89;000.805;MIDI 01
394.938;000.075;77;000.805;MIDI 01
394.951;000.074;65;000.695;MIDI 01
394.949;000.078;60;000.672;MIDI 01
394.947;000.082;68;000.719;MIDI 01
394.945;000.092;84;000.742;MIDI 01
394.940;000.110;80;000.773;MIDI 01
395.969;000.166;44;000.547;MIDI 01
396.055;000.111;47;000.547;MIDI 01
396.146;000.056;56;000.672;MIDI 01
396.180;000.126;53;000.523;MIDI 01
396.260;000.062;59;000.562;MIDI 01
395.718;000.637;41;000.805;MIDI 01
396.349;000.077;62;000.531;MIDI 01
396.284;000.153;47;000.555;MIDI 01
396.381;000.083;44;000.562;MIDI 01
396.458;000.030;68;000.594;MIDI 01
396.557;000.070;71;000.625;MIDI 01
396.541;000.099;44;000.516;MIDI 01
396.599;000.081;47;000.586;MIDI 01
396.632;000.060;74;000.602;MIDI 01
396.717;000.032;80;000.594;MIDI 01
396.677;000.130;53;000.531;MIDI 01
396.465;000.353;41;000.609;MIDI 01
396.825;000.057;83;000.492;MIDI 01
396.784;000.123;47;000.555;MIDI 01
396.823;000.096;44;000.562;MIDI 01
396.866;000.065;86;000.609;MIDI 01
396.970;000.035;41;000.477;MIDI 01
396.942;000.129;92;000.766;MIDI 01
397.065;000.031;86;000.586;MIDI 01
397.067;000.034;88;000.570;MIDI 01
397.062;000.108;44;000.672;MIDI 01
397.158;000.022;83;000.453;MIDI 01
397.184;000.023;81;000.477;MIDI 01
396.940;000.373;40;000.664;MIDI 01
397.227;000.097;80;000.742;MIDI 01
397.208;000.140;52;000.602;MIDI 01
397.309;000.059;74;000.648;MIDI 01
397.288;000.087;44;000.547;MIDI 01
397.135;000.269;47;000.492;MIDI 01
397.417;000.024;71;000.445;MIDI 01
397.466;000.098;68;000.758;MIDI 01
397.482;000.117;44;000.641;MIDI 01
397.564;000.046;62;000.578;MIDI 01
397.400;000.297;40;000.609;MIDI 01
397.561;000.137;47;000.578;MIDI 01
397.623;000.088;52;000.586;MIDI 01
397.646;000.101;59;000.523;MIDI 01
397.689;000.067;44;000.578;MIDI 01
397.736;000.048;56;000.555;MIDI 01
397.822;000.071;59;000.594;MIDI 01
397.898;000.052;62;000.609;MIDI 01
398.130;000.129;42;000.625;MIDI 01
398.184;000.103;45;000.562;MIDI 01
398.243;000.077;57;000.586;MIDI 01
398.328;000.056;60;000.531;MIDI 01
397.992;000.402;39;000.688;MIDI 01
398.294;000.110;51;000.586;MIDI 01
398.390;000.032;66;000.617;MIDI 01
398.385;000.098;45;000.438;MIDI 01
398.509;000.062;69;000.633;MIDI 01
398.582;000.056;72;000.625;MIDI 01
398.418;000.235;42;000.531;MIDI 01
398.564;000.094;45;000.508;MIDI 01
398.661;000.028;78;000.586;MIDI 01
398.651;000.087;51;000.586;MIDI 01
398.496;000.278;39;000.664;MIDI 01
398.757;000.059;81;000.625;MIDI 01
398.753;000.130;45;000.516;MIDI 01
398.800;000.084;84;000.570;MIDI 01
398.829;000.089;42;000.477;MIDI 01
398.881;000.134;90;000.641;MIDI 01
398.992;000.037;36;000.758;MIDI 01
398.981;000.114;81;000.789;MIDI 01
398.974;000.228;93;000.773;MIDI 01
399.176;000.098;90;000.641;MIDI 01
399.200;000.090;42;000.578;MIDI 01
399.262;000.062;84;000.594;MIDI 01
398.994;000.375;38;000.734;MIDI 01
399.354;000.021;81;000.508;MIDI 01
399.315;000.136;50;000.500;MIDI 01
399.408;000.088;42;000.562;MIDI 01
399.242;000.259;45;000.469;MIDI 01
399.460;000.045;79;000.484;MIDI 01
399.528;000.072;74;000.555;MIDI 01
399.623;000.030;71;000.383;MIDI 01
399.594;000.097;42;000.594;MIDI 01
399.673;000.085;45;000.594;MIDI 01
399.701;000.093;68;000.617;MIDI 01
399.724;000.089;50;000.508;MIDI 01
399.509;000.307;38;000.602;MIDI 01
399.798;000.060;60;000.453;MIDI 01
399.809;000.078;42;000.617;MIDI 01
399.846;000.055;45;000.078;MIDI 01
399.859;000.075;57;000.617;MIDI 01
399.950;000.076;60;000.555;MIDI 01
400.001;000.047;66;000.617;MIDI 01
400.222;000.123;40;000.570;MIDI 01
400.266;000.111;43;000.578;MIDI 01
400.340;000.080;58;000.602;MIDI 01
400.366;000.100;49;000.609;MIDI 01
400.076;000.393;37;000.680;MIDI 01
400.426;000.065;64;000.531;MIDI 01
400.477;000.050;67;000.594;MIDI 01
400.496;000.141;40;000.500;MIDI 01
400.610;000.061;70;000.648;MIDI 01
400.510;000.170;43;000.250;MIDI 01
400.575;000.171;37;000.633;MIDI 01
400.655;000.093;49;000.617;MIDI 01
400.690;000.081;76;000.586;MIDI 01
400.762;000.029;79;000.625;MIDI 01
400.767;000.178;43;000.430;MIDI 01
400.867;000.104;82;000.672;MIDI 01
400.869;000.130;40;000.570;MIDI 01
400.936;000.191;88;000.500;MIDI 01
401.004;000.129;91;000.539;MIDI 01
401.094;000.150;82;000.844;MIDI 01
401.096;000.219;94;000.898;MIDI 01
401.235;000.122;91;000.508;MIDI 01
401.304;000.080;88;000.562;MIDI 01
401.283;000.132;40;000.586;MIDI 01
401.089;000.335;36;000.828;MIDI 01
401.401;000.033;82;000.594;MIDI 01
401.413;000.079;48;000.523;MIDI 01
401.340;000.180;43;000.578;MIDI 01
401.501;000.110;80;000.688;MIDI 01
401.632;000.033;76;000.352;MIDI 01
401.637;000.051;77;000.172;MIDI 01
401.670;000.021;70;000.539;MIDI 01
401.611;000.092;40;000.602;MIDI 01
401.657;000.083;43;000.562;MIDI 01
401.732;000.062;48;000.523;MIDI 01
401.750;000.107;68;000.594;MIDI 01
401.811;000.075;40;000.523;MIDI 01
401.841;000.050;43;000.445;MIDI 01
401.882;000.052;65;000.086;MIDI 01
401.916;000.089;48;000.609;MIDI 01
401.914;000.092;58;000.617;MIDI 01
401.519;000.504;36;000.594;MIDI 01
402.053;000.198;40;000.516;MIDI 01
402.083;000.219;67;000.562;MIDI 01
402.018;000.295;43;000.570;MIDI 01
401.995;000.331;64;000.094;MIDI 01
402.291;000.165;47;000.484;MIDI 01
402.285;000.171;59;000.578;MIDI 01
402.469;000.128;40;000.414;MIDI 01
402.568;000.038;64;000.461;MIDI 01
402.481;000.126;67;000.477;MIDI 01
402.551;000.084;43;000.484;MIDI 01
402.275;000.429;71;000.680;MIDI 01
402.643;000.068;47;000.445;MIDI 01
402.278;000.435;35;000.547;MIDI 01
402.623;000.093;59;000.453;MIDI 01
402.700;000.086;64;000.578;MIDI 01
402.756;000.101;40;000.422;MIDI 01
402.739;000.129;43;000.359;MIDI 01
402.797;000.085;67;000.469;MIDI 01
402.868;000.061;60;000.562;MIDI 01
402.852;000.110;48;000.625;MIDI 01
402.971;000.124;40;000.570;MIDI 01
402.967;000.132;67;000.578;MIDI 01
403.067;000.046;64;000.539;MIDI 01
403.051;000.080;43;000.578;MIDI 01
402.863;000.343;36;000.617;MIDI 01
403.136;000.084;60;000.562;MIDI 01
403.124;000.101;48;000.562;MIDI 01
403.209;000.046;40;000.539;MIDI 01
402.856;000.420;72;000.703;MIDI 01
403.225;000.053;64;000.516;MIDI 01
403.254;000.048;43;000.273;MIDI 01
403.276;000.090;67;000.539;MIDI 01
403.512;000.156;60;000.648;MIDI 01
403.430;000.269;53;000.680;MIDI 01
403.693;000.104;44;000.492;MIDI 01
403.685;000.119;68;000.586;MIDI 01
403.755;000.055;46;000.070;MIDI 01
403.782;000.046;65;000.523;MIDI 01
403.441;000.490;41;000.648;MIDI 01
403.857;000.085;53;000.461;MIDI 01
403.837;000.120;60;000.531;MIDI 01
403.784;000.232;48;000.555;MIDI 01
403.942;000.081;65;000.578;MIDI 01
403.508;000.520;72;000.719;MIDI 01
403.938;000.094;44;000.570;MIDI 01
403.980;000.084;68;000.586;MIDI 01
404.071;000.042;53;000.742;MIDI 01
404.073;000.050;41;000.648;MIDI 01
404.292;000.087;56;000.547;MIDI 01
404.366;000.076;60;000.523;MIDI 01
404.456;000.092;65;000.523;MIDI 01
404.452;000.109;68;000.578;MIDI 01
404.552;000.046;60;000.492;MIDI 01
404.610;000.042;56;000.516;MIDI 01
404.676;000.044;29;000.578;MIDI 01
404.683;000.042;41;000.555;MIDI 01
404.778;000.085;56;000.516;MIDI 01
404.851;000.066;59;000.523;MIDI 01
404.934;000.036;47;000.625;MIDI 01
404.941;000.032;35;000.586;MIDI 01
404.938;000.096;68;000.555;MIDI 01
404.913;000.128;62;000.594;MIDI 01
404.999;000.073;59;000.477;MIDI 01
405.056;000.060;56;000.555;MIDI 01
405.181;000.042;38;000.664;MIDI 01
405.173;000.052;50;000.672;MIDI 01
405.236;000.079;59;000.570;MIDI 01
405.334;000.070;62;000.578;MIDI 01
405.410;000.032;53;000.703;MIDI 01
405.415;000.046;41;000.664;MIDI 01
405.398;000.116;71;000.594;MIDI 01
405.413;000.132;68;000.609;MIDI 01
405.483;000.101;62;000.547;MIDI 01
405.562;000.048;59;000.641;MIDI 01
405.668;000.036;40;000.680;MIDI 01
405.663;000.047;52;000.789;MIDI 01
405.774;000.075;62;000.594;MIDI 01
405.867;000.062;68;000.570;MIDI 01
405.904;000.124;71;000.562;MIDI 01
405.916;000.147;74;000.633;MIDI 01
405.990;000.091;68;000.562;MIDI 01
406.058;000.034;62;000.594;MIDI 01
406.164;000.023;62;000.695;MIDI 01
406.161;000.035;59;000.625;MIDI 01
406.165;000.070;52;000.594;MIDI 01
406.168;000.069;56;000.617;MIDI 01
406.259;000.090;65;000.586;MIDI 01
406.347;000.069;68;000.516;MIDI 01
406.423;000.027;40;000.766;MIDI 01
406.420;000.036;28;000.672;MIDI 01
406.455;000.042;73;000.352;MIDI 01
406.409;000.115;77;000.648;MIDI 01
406.527;000.026;40;000.344;MIDI 01
406.403;000.153;71;000.578;MIDI 01
406.503;000.100;68;000.594;MIDI 01
406.564;000.073;65;000.602;MIDI 01
406.681;000.024;39;000.828;MIDI 01
406.678;000.036;27;000.758;MIDI 01
406.772;000.036;39;000.391;MIDI 01
406.768;000.082;66;000.531;MIDI 01
406.848;000.069;69;000.547;MIDI 01
406.923;000.032;45;000.805;MIDI 01
406.929;000.037;33;000.672;MIDI 01
406.896;000.130;72;000.562;MIDI 01
406.909;000.123;78;000.633;MIDI 01
407.009;000.049;69;000.422;MIDI 01
407.057;000.045;66;000.547;MIDI 01
407.165;000.032;48;000.758;MIDI 01
407.167;000.041;36;000.695;MIDI 01
407.236;000.074;69;000.578;MIDI 01
407.322;000.086;72;000.625;MIDI 01
407.415;000.021;51;000.781;MIDI 01
407.413;000.037;39;000.742;MIDI 01
407.402;000.106;81;000.609;MIDI 01
407.512;000.021;51;000.297;MIDI 01
407.407;000.136;78;000.641;MIDI 01
407.494;000.083;72;000.625;MIDI 01
407.560;000.044;69;000.648;MIDI 01
407.660;000.027;38;000.727;MIDI 01
407.653;000.044;50;000.852;MIDI 01
407.822;000.022;38;000.016;MIDI 01
407.760;000.089;72;000.641;MIDI 01
407.835;000.069;78;000.625;MIDI 01
407.931;000.045;83;000.195;MIDI 01
407.900;000.120;81;000.523;MIDI 01
407.908;000.140;84;000.602;MIDI 01
407.976;000.090;78;000.633;MIDI 01
408.031;000.066;72;000.648;MIDI 01
408.117;000.044;63;000.695;MIDI 01
408.122;000.045;60;000.625;MIDI 01
408.120;000.075;57;000.578;MIDI 01
408.126;000.084;54;000.609;MIDI 01
408.228;000.094;75;000.641;MIDI 01
408.305;000.090;78;000.617;MIDI 01
408.390;000.025;38;000.812;MIDI 01
408.419;000.002;27;000.484;MIDI 01
408.387;000.044;28;000.750;MIDI 01
408.384;000.133;87;000.711;MIDI 01
408.372;000.151;81;000.578;MIDI 01
408.465;000.097;78;000.539;MIDI 01
408.532;000.133;75;000.680;MIDI 01
408.735;000.029;37;000.844;MIDI 01
408.769;000.002;27;000.383;MIDI 01
408.734;000.040;25;000.789;MIDI 01
408.944;000.028;79;000.633;MIDI 01
408.938;000.040;76;000.672;MIDI 01
408.942;000.043;88;000.719;MIDI 01
408.940;000.059;82;000.711;MIDI 01
409.098;000.029;79;000.602;MIDI 01
409.117;000.017;81;000.570;MIDI 01
409.109;000.025;89;000.609;MIDI 01
409.095;000.042;76;000.703;MIDI 01
409.114;000.025;77;000.555;MIDI 01
409.107;000.033;82;000.656;MIDI 01
409.101;000.042;88;000.719;MIDI 01
409.111;000.033;31;000.617;MIDI 01
409.105;000.042;43;000.617;MIDI 01
409.232;000.020;76;000.711;MIDI 01
409.228;000.027;79;000.688;MIDI 01
409.230;000.028;88;000.734;MIDI 01
409.222;000.051;82;000.625;MIDI 01
409.340;000.043;76;000.281;MIDI 01
409.359;000.046;46;000.703;MIDI 01
409.382;000.028;44;000.461;MIDI 01
409.355;000.072;34;000.703;MIDI 01
409.484;000.024;64;000.727;MIDI 01
409.489;000.022;76;000.641;MIDI 01
409.485;000.027;67;000.680;MIDI 01
409.497;000.021;70;000.555;MIDI 01
409.600;000.024;70;000.680;MIDI 01
409.585;000.049;64;000.391;MIDI 01
409.589;000.048;67;000.602;MIDI 01
409.602;000.038;76;000.680;MIDI 01
409.611;000.030;49;000.695;MIDI 01
409.610;000.035;37;000.633;MIDI 01
409.706;000.025;64;000.680;MIDI 01
409.710;000.024;67;000.648;MIDI 01
409.717;000.029;76;000.688;MIDI 01
409.699;000.057;70;000.438;MIDI 01
409.840;000.046;55;000.773;MIDI 01
409.849;000.044;43;000.656;MIDI 01
409.966;000.015;85;000.609;MIDI 01
409.958;000.024;79;000.688;MIDI 01
409.962;000.022;88;000.695;MIDI 01
409.960;000.026;76;000.695;MIDI 01
410.067;000.034;79;000.586;MIDI 01
410.078;000.028;85;000.641;MIDI 01
410.072;000.036;88;000.602;MIDI 01
410.066;000.045;76;000.398;MIDI 01
410.085;000.029;46;000.719;MIDI 01
410.091;000.026;58;000.688;MIDI 01
410.188;000.025;58;000.336;MIDI 01
410.199;000.021;76;000.742;MIDI 01
410.201;000.021;88;000.742;MIDI 01
410.193;000.032;85;000.531;MIDI 01
410.203;000.025;79;000.672;MIDI 01
410.317;000.023;79;000.594;MIDI 01
410.316;000.030;85;000.586;MIDI 01
410.300;000.050;76;000.336;MIDI 01
410.314;000.039;88;000.602;MIDI 01
410.306;000.048;64;000.680;MIDI 01
410.336;000.020;81;000.547;MIDI 01
410.322;000.048;52;000.625;MIDI 01
410.446;000.019;81;000.555;MIDI 01
410.448;000.018;88;000.625;MIDI 01
410.442;000.027;76;000.703;MIDI 01
410.438;000.032;79;000.562;MIDI 01
410.443;000.033;85;000.602;MIDI 01
410.545;000.033;61;000.703;MIDI 01
410.551;000.029;76;000.695;MIDI 01
410.549;000.038;79;000.680;MIDI 01
410.547;000.042;49;000.688;MIDI 01
410.555;000.035;85;000.695;MIDI 01
410.553;000.051;88;000.719;MIDI 01
410.608;000.072;51;000.086;MIDI 01
410.674;000.021;76;000.781;MIDI 01
410.680;000.023;79;000.664;MIDI 01
410.679;000.026;85;000.703;MIDI 01
410.676;000.057;88;000.641;MIDI 01
410.795;000.028;58;000.727;MIDI 01
410.783;000.042;76;000.602;MIDI 01
410.791;000.036;79;000.719;MIDI 01
410.785;000.049;85;000.680;MIDI 01
410.793;000.044;88;000.664;MIDI 01
410.789;000.070;46;000.734;MIDI 01
410.856;000.002;81;000.109;MIDI 01
410.915;000.020;76;000.789;MIDI 01
410.917;000.022;79;000.758;MIDI 01
410.913;000.040;85;000.672;MIDI 01
410.919;000.035;88;000.641;MIDI 01
411.012;000.030;55;000.703;MIDI 01
411.020;000.032;76;000.594;MIDI 01
411.025;000.029;79;000.680;MIDI 01
411.023;000.040;43;000.625;MIDI 01
411.036;000.028;85;000.609;MIDI 01
411.034;000.032;88;000.688;MIDI 01
411.143;000.026;76;000.773;MIDI 01
411.141;000.036;79;000.688;MIDI 01
411.149;000.039;88;000.680;MIDI 01
411.137;000.070;85;000.633;MIDI 01
411.272;000.025;54;000.719;MIDI 01
411.268;000.041;42;000.727;MIDI 01
411.295;000.017;87;000.641;MIDI 01
411.290;000.024;78;000.750;MIDI 01
411.297;000.024;82;000.656;MIDI 01
411.309;000.022;90;000.523;MIDI 01
411.325;000.030;85;000.391;MIDI 01
411.377;000.038;54;000.289;MIDI 01
411.426;000.034;85;000.734;MIDI 01
411.415;000.049;78;000.164;MIDI 01
411.405;000.062;82;000.211;MIDI 01
411.419;000.053;90;000.742;MIDI 01
411.532;000.036;52;000.711;MIDI 01
411.538;000.042;40;000.695;MIDI 01
411.569;000.023;82;000.711;MIDI 01
411.567;000.035;85;000.609;MIDI 01
411.560;000.048;78;000.812;MIDI 01
411.561;000.070;90;000.789;MIDI 01
411.613;000.050;44;000.055;MIDI 01
411.692;000.077;78;000.750;MIDI 01
411.689;000.089;82;000.648;MIDI 01
411.698;000.089;90;000.680;MIDI 01
411.696;000.094;85;000.688;MIDI 01
411.820;000.029;49;000.836;MIDI 01
411.814;000.056;37;000.758;MIDI 01
411.858;000.069;79;000.688;MIDI 01
411.853;000.080;82;000.633;MIDI 01
411.849;000.096;85;000.617;MIDI 01
411.855;000.092;91;000.688;MIDI 01
411.951;000.041;49;000.133;MIDI 01
412.019;000.045;79;000.680;MIDI 01
412.017;000.065;82;000.758;MIDI 01
412.022;000.065;85;000.680;MIDI 01
412.014;000.077;91;000.734;MIDI 01
412.172;000.031;40;000.664;MIDI 01
412.170;000.035;52;000.711;MIDI 01
412.181;000.066;91;000.773;MIDI 01
412.188;000.064;85;000.703;MIDI 01
412.184;000.070;82;000.773;MIDI 01
412.179;000.078;79;000.742;MIDI 01
412.358;000.072;79;000.711;MIDI 01
412.358;000.077;82;000.727;MIDI 01
412.355;000.090;91;000.766;MIDI 01
412.360;000.089;85;000.719;MIDI 01
412.526;000.030;58;000.773;MIDI 01
412.523;000.036;46;000.695;MIDI 01
412.550;000.060;79;000.711;MIDI 01
412.546;000.076;82;000.727;MIDI 01
412.548;000.081;85;000.734;MIDI 01
412.544;000.087;91;000.773;MIDI 01
412.742;000.057;79;000.719;MIDI 01
412.740;000.072;91;000.773;MIDI 01
412.744;000.072;82;000.719;MIDI 01
412.746;000.085;85;000.703;MIDI 01
412.934;000.065;49;000.656;MIDI 01
412.938;000.068;61;000.758;MIDI 01
412.951;000.085;78;000.742;MIDI 01
412.949;000.096;90;000.773;MIDI 01
412.960;000.086;82;000.648;MIDI 01
412.956;000.100;85;000.688;MIDI 01
413.204;000.488;82;000.641;MIDI 01
413.491;000.214;65;000.672;MIDI 01
413.200;000.524;78;000.773;MIDI 01
413.202;000.536;90;000.750;MIDI 01
413.486;000.255;73;000.828;MIDI 01
413.198;000.559;85;000.727;MIDI 01
413.827;000.117;73;000.836;MIDI 01
413.832;000.145;65;000.711;MIDI 01
414.066;000.058;77;000.742;MIDI 01
414.065;000.079;89;000.703;MIDI 01
414.068;000.080;85;000.711;MIDI 01
414.228;000.062;77;000.742;MIDI 01
414.226;000.067;89;000.688;MIDI 01
414.232;000.113;85;000.727;MIDI 01
414.382;000.035;59;000.570;MIDI 01
414.389;000.048;56;000.539;MIDI 01
414.624;000.019;73;000.578;MIDI 01
414.619;000.028;65;000.648;MIDI 01
414.621;000.028;77;000.625;MIDI 01
414.503;000.227;59;000.570;MIDI 01
414.529;000.228;56;000.578;MIDI 01
414.734;000.130;77;000.680;MIDI 01
414.721;000.153;65;000.609;MIDI 01
414.844;000.046;55;000.562;MIDI 01
414.731;000.160;73;000.633;MIDI 01
414.837;000.066;58;000.633;MIDI 01
414.958;000.034;55;000.609;MIDI 01
414.945;000.070;58;000.555;MIDI 01
415.044;000.031;64;000.633;MIDI 01
415.046;000.033;72;000.578;MIDI 01
415.048;000.032;76;000.656;MIDI 01
415.146;000.047;72;000.656;MIDI 01
415.148;000.061;76;000.617;MIDI 01
415.282;000.009;71;000.438;MIDI 01
415.258;000.040;64;000.492;MIDI 01
415.265;000.045;72;000.648;MIDI 01
415.306;000.049;66;000.242;MIDI 01
415.360;000.052;72;000.641;MIDI 01
415.451;000.024;84;000.656;MIDI 01
415.453;000.024;76;000.664;MIDI 01
415.449;000.056;88;000.703;MIDI 01
415.548;000.104;76;000.594;MIDI 01
415.553;000.135;88;000.484;MIDI 01
415.663;000.033;63;000.656;MIDI 01
415.551;000.168;84;000.625;MIDI 01
415.675;000.110;71;000.602;MIDI 01
415.847;000.024;75;000.688;MIDI 01
415.854;000.027;87;000.656;MIDI 01
415.849;000.047;83;000.594;MIDI 01
415.970;000.024;83;000.469;MIDI 01
415.953;000.050;87;000.734;MIDI 01
415.957;000.047;75;000.633;MIDI 01
416.069;000.027;54;000.523;MIDI 01
416.083;000.034;55;000.406;MIDI 01
416.101;000.045;57;000.266;MIDI 01
416.174;000.054;54;000.656;MIDI 01
416.171;000.070;57;000.461;MIDI 01
416.240;000.030;75;000.672;MIDI 01
416.245;000.029;63;000.672;MIDI 01
416.257;000.024;71;000.523;MIDI 01
416.340;000.061;63;000.609;MIDI 01
416.375;000.032;71;000.586;MIDI 01
416.350;000.062;75;000.664;MIDI 01
416.436;000.042;56;000.664;MIDI 01
416.467;000.034;53;000.383;MIDI 01
416.478;000.050;52;000.320;MIDI 01
416.544;000.065;53;000.531;MIDI 01
416.632;000.034;62;000.656;MIDI 01
416.645;000.024;70;000.562;MIDI 01
416.693;000.002;73;000.078;MIDI 01
416.745;000.022;62;000.555;MIDI 01
416.747;000.039;70;000.648;MIDI 01
416.636;000.165;74;000.656;MIDI 01
416.841;000.034;70;000.680;MIDI 01
416.843;000.060;62;000.594;MIDI 01
416.940;000.055;70;000.766;MIDI 01
417.039;000.024;82;000.641;MIDI 01
417.036;000.028;74;000.656;MIDI 01
417.034;000.039;86;000.711;MIDI 01
417.129;000.071;74;000.656;MIDI 01
417.236;000.031;61;000.719;MIDI 01
417.137;000.132;86;000.680;MIDI 01
417.258;000.116;69;000.547;MIDI 01
417.131;000.244;82;000.617;MIDI 01
417.435;000.026;73;000.664;MIDI 01
417.438;000.031;85;000.672;MIDI 01
417.433;000.037;81;000.609;MIDI 01
417.541;000.028;81;000.641;MIDI 01
417.527;000.053;73;000.617;MIDI 01
417.634;000.032;55;000.609;MIDI 01
417.644;000.029;50;000.477;MIDI 01
417.646;000.028;52;000.484;MIDI 01
417.775;000.025;52;000.500;MIDI 01
417.729;000.073;55;000.664;MIDI 01
417.777;000.043;50;000.398;MIDI 01
417.826;000.029;61;000.648;MIDI 01
417.827;000.041;73;000.656;MIDI 01
417.842;000.028;69;000.539;MIDI 01
417.944;000.032;69;000.672;MIDI 01
417.921;000.067;61;000.625;MIDI 01
418.016;000.031;51;000.648;MIDI 01
418.019;000.034;54;000.609;MIDI 01
418.114;000.060;54;000.688;MIDI 01
418.116;000.072;51;000.672;MIDI 01
418.215;000.020;72;000.594;MIDI 01
418.208;000.031;60;000.648;MIDI 01
418.210;000.031;68;000.602;MIDI 01
418.298;000.024;60;000.633;MIDI 01
418.304;000.043;68;000.633;MIDI 01
418.318;000.039;72;000.609;MIDI 01
418.392;000.024;60;000.352;MIDI 01
418.400;000.025;63;000.656;MIDI 01
418.405;000.029;66;000.664;MIDI 01
418.485;000.059;63;000.602;MIDI 01
418.493;000.061;66;000.656;MIDI 01
418.577;000.019;80;000.570;MIDI 01
418.572;000.027;84;000.641;MIDI 01
418.575;000.026;72;000.625;MIDI 01
418.671;000.049;80;000.727;MIDI 01
418.668;000.056;72;000.664;MIDI 01
418.786;000.021;53;000.633;MIDI 01
418.791;000.029;50;000.555;MIDI 01
418.796;000.035;52;000.594;MIDI 01
418.886;000.032;53;000.648;MIDI 01
418.896;000.027;50;000.508;MIDI 01
418.909;000.020;52;000.539;MIDI 01
418.973;000.026;59;000.672;MIDI 01
418.980;000.021;68;000.523;MIDI 01
418.975;000.032;71;000.648;MIDI 01
419.076;000.023;59;000.445;MIDI 01
419.071;000.039;68;000.695;MIDI 01
419.181;000.028;65;000.656;MIDI 01
419.184;000.028;64;000.609;MIDI 01
419.176;000.050;62;000.742;MIDI 01
419.283;000.038;65;000.648;MIDI 01
419.285;000.057;62;000.648;MIDI 01
419.367;000.019;80;000.547;MIDI 01
419.347;000.045;64;000.039;MIDI 01
419.365;000.029;71;000.602;MIDI 01
419.353;000.049;83;000.695;MIDI 01
419.441;000.087;83;000.547;MIDI 01
419.455;000.086;80;000.703;MIDI 01
419.578;000.028;55;000.781;MIDI 01
419.580;000.035;52;000.711;MIDI 01
419.712;000.027;57;000.453;MIDI 01
419.689;000.065;55;000.633;MIDI 01
419.699;000.059;52;000.617;MIDI 01
419.762;000.002;53;000.031;MIDI 01
419.811;000.026;67;000.672;MIDI 01
419.809;000.030;60;000.688;MIDI 01
419.814;000.029;72;000.680;MIDI 01
419.922;000.058;60;000.664;MIDI 01
419.924;000.099;72;000.711;MIDI 01
419.920;000.106;67;000.680;MIDI 01
420.050;000.028;48;000.664;MIDI 01
420.040;000.050;60;000.766;MIDI 01
420.083;000.042;54;000.305;MIDI 01
420.151;000.132;48;000.641;MIDI 01
420.156;000.132;60;000.727;MIDI 01
420.272;000.048;64;000.781;MIDI 01
420.270;000.055;76;000.789;MIDI 01
420.597;000.002;51;000.375;MIDI 01
420.601;000.002;60;000.398;MIDI 01
420.558;000.083;61;000.891;MIDI 01
420.560;000.102;49;000.797;MIDI 01
420.405;000.294;64;000.789;MIDI 01
420.403;000.325;76;000.789;MIDI 01
420.745;000.031;51;000.453;MIDI 01
420.722;000.083;61;000.914;MIDI 01
420.724;000.131;49;000.758;MIDI 01
420.877;000.061;65;000.727;MIDI 01
420.879;000.071;77;000.727;MIDI 01
421.032;000.098;65;000.750;MIDI 01
421.028;000.165;77;000.727;MIDI 01
421.210;000.002;37;000.445;MIDI 01
421.188;000.031;35;000.641;MIDI 01
421.177;000.047;47;000.781;MIDI 01
421.373;000.002;45;000.242;MIDI 01
421.377;000.058;39;000.250;MIDI 01
421.318;000.143;47;000.758;MIDI 01
421.503;000.002;87;000.453;MIDI 01
421.479;000.027;85;000.703;MIDI 01
421.471;000.045;77;000.758;MIDI 01
421.473;000.049;89;000.789;MIDI 01
421.302;000.302;35;000.578;MIDI 01
421.731;000.051;46;000.859;MIDI 01
421.729;000.090;34;000.773;MIDI 01
421.793;000.041;37;000.070;MIDI 01
421.610;000.238;89;000.742;MIDI 01
421.608;000.259;77;000.766;MIDI 01
421.865;000.035;44;000.648;MIDI 01
421.604;000.304;85;000.703;MIDI 01
421.848;000.065;34;000.594;MIDI 01
421.857;000.079;46;000.789;MIDI 01
421.964;000.054;33;000.016;MIDI 01
422.012;000.027;76;000.664;MIDI 01
422.015;000.029;85;000.633;MIDI 01
422.017;000.028;88;000.602;MIDI 01
422.022;000.025;89;000.555;MIDI 01
422.109;000.049;76;000.672;MIDI 01
422.119;000.051;88;000.727;MIDI 01
422.117;000.055;85;000.664;MIDI 01
422.208;000.026;60;000.688;MIDI 01
422.230;000.029;48;000.477;MIDI 01
422.308;000.048;60;000.719;MIDI 01
422.322;000.042;48;000.609;MIDI 01
422.340;000.026;54;000.117;MIDI 01
422.414;000.029;64;000.688;MIDI 01
422.416;000.030;76;000.773;MIDI 01
422.509;000.048;76;000.703;MIDI 01
422.511;000.048;64;000.742;MIDI 01
422.598;000.048;59;000.789;MIDI 01
422.629;000.032;49;000.453;MIDI 01
422.614;000.053;47;000.633;MIDI 01
422.690;000.061;59;000.680;MIDI 01
422.794;000.034;63;000.727;MIDI 01
422.797;000.033;75;000.672;MIDI 01
422.828;000.032;73;000.336;MIDI 01
422.914;000.027;63;000.672;MIDI 01
422.908;000.054;75;000.719;MIDI 01
422.997;000.032;45;000.742;MIDI 01
423.021;000.048;63;000.234;MIDI 01
423.007;000.065;33;000.617;MIDI 01
423.029;000.045;39;000.383;MIDI 01
423.098;000.083;45;000.711;MIDI 01
423.171;000.028;87;000.758;MIDI 01
423.179;000.023;75;000.680;MIDI 01
423.195;000.022;83;000.477;MIDI 01
423.267;000.088;75;000.664;MIDI 01
423.293;000.072;83;000.625;MIDI 01
423.271;000.096;87;000.750;MIDI 01
423.385;000.033;44;000.688;MIDI 01
423.396;000.026;46;000.680;MIDI 01
423.401;000.029;34;000.500;MIDI 01
423.484;000.024;44;000.523;MIDI 01
423.391;000.150;32;000.562;MIDI 01
423.498;000.046;34;000.422;MIDI 01
423.481;000.081;46;000.766;MIDI 01
423.581;000.026;86;000.711;MIDI 01
423.583;000.027;74;000.656;MIDI 01
423.587;000.030;83;000.594;MIDI 01
423.683;000.033;83;000.625;MIDI 01
423.676;000.050;74;000.695;MIDI 01
423.684;000.043;86;000.734;MIDI 01
423.769;000.026;58;000.844;MIDI 01
423.771;000.038;46;000.727;MIDI 01
423.877;000.049;46;000.758;MIDI 01
423.869;000.058;58;000.500;MIDI 01
423.960;000.030;62;000.680;MIDI 01
423.968;000.029;74;000.688;MIDI 01
424.059;000.057;62;000.750;MIDI 01
424.062;000.062;74;000.727;MIDI 01
424.201;000.001;46;000.414;MIDI 01
424.167;000.036;57;000.727;MIDI 01
424.206;000.002;55;000.305;MIDI 01
424.196;000.027;45;000.477;MIDI 01
424.194;000.033;43;000.461;MIDI 01
424.264;000.049;57;000.758;MIDI 01
424.256;000.060;49;000.016;MIDI 01
424.267;000.061;45;000.602;MIDI 01
424.355;000.030;61;000.695;MIDI 01
424.352;000.035;73;000.711;MIDI 01
424.456;000.033;61;000.648;MIDI 01
424.454;000.058;73;000.719;MIDI 01
424.573;000.035;43;000.719;MIDI 01
424.625;000.035;37;000.188;MIDI 01
424.584;000.163;31;000.602;MIDI 01
424.674;000.079;43;000.719;MIDI 01
424.635;000.123;34;000.164;MIDI 01
424.762;000.030;85;000.711;MIDI 01
424.768;000.026;73;000.711;MIDI 01
424.788;000.023;81;000.492;MIDI 01
424.854;000.108;73;000.617;MIDI 01
424.867;000.119;85;000.648;MIDI 01
424.878;000.115;81;000.688;MIDI 01
424.991;000.027;42;000.883;MIDI 01
424.996;000.027;30;000.711;MIDI 01
425.029;000.002;32;000.391;MIDI 01
425.061;000.066;34;000.188;MIDI 01
425.095;000.071;30;000.719;MIDI 01
425.196;000.032;72;000.648;MIDI 01
425.193;000.047;81;000.672;MIDI 01
425.098;000.149;42;000.242;MIDI 01
425.195;000.055;84;000.680;MIDI 01
425.305;000.052;72;000.734;MIDI 01
425.310;000.050;81;000.656;MIDI 01
425.308;000.059;84;000.625;MIDI 01
425.453;000.002;54;000.461;MIDI 01
425.431;000.025;56;000.789;MIDI 01
425.433;000.027;44;000.742;MIDI 01
425.534;000.067;56;000.469;MIDI 01
425.536;000.082;44;000.367;MIDI 01
425.647;000.039;60;000.758;MIDI 01
425.654;000.034;68;000.664;MIDI 01
425.649;000.056;72;000.734;MIDI 01
425.794;000.134;60;000.750;MIDI 01
425.970;000.002;32;000.500;MIDI 01
425.934;000.040;40;000.852;MIDI 01
425.978;000.002;27;000.328;MIDI 01
425.792;000.189;68;000.648;MIDI 01
425.961;000.035;26;000.492;MIDI 01
425.797;000.201;72;000.727;MIDI 01
425.950;000.051;28;000.633;MIDI 01
426.034;000.032;30;000.008;MIDI 01
426.071;000.102;40;000.742;MIDI 01
426.248;000.028;80;000.695;MIDI 01
426.242;000.051;73;000.758;MIDI 01
426.244;000.056;85;000.773;MIDI 01
426.400;000.068;73;000.758;MIDI 01
426.403;000.076;85;000.797;MIDI 01
426.401;000.093;80;000.594;MIDI 01
426.567;000.090;56;000.758;MIDI 01
426.565;000.117;52;000.672;MIDI 01
426.742;000.083;56;000.750;MIDI 01
426.743;000.098;52;000.633;MIDI 01
426.938;000.099;61;000.805;MIDI 01
426.945;000.095;64;000.688;MIDI 01
426.947;000.104;73;000.719;MIDI 01
426.949;000.122;68;000.680;MIDI 01
427.137;000.057;73;000.758;MIDI 01
427.133;000.066;61;000.852;MIDI 01
427.140;000.064;64;000.773;MIDI 01
427.135;000.079;68;000.641;MIDI 01
429.003;000.043;60;000.781;MIDI 01
429.014;000.034;72;000.695;MIDI 01
429.005;000.047;48;000.797;MIDI 01
429.011;000.043;64;000.750;MIDI 01
429.016;000.045;36;000.641;MIDI 01
429.007;000.056;68;000.695;MIDI 01
429.009;000.066;44;000.758;MIDI 01
429.018;000.059;40;000.688;MIDI 01
430.031;000.032;60;000.727;MIDI 01
430.036;000.031;65;000.648;MIDI 01
430.025;000.053;48;000.703;MIDI 01
430.027;000.052;44;000.750;MIDI 01
430.029;000.053;68;000.695;MIDI 01
430.033;000.054;41;000.656;MIDI 01
430.034;000.068;72;000.695;MIDI 01
430.993;000.048;41;000.852;MIDI 01
430.995;000.628;29;000.703;MIDI 01
431.815;000.057;44;000.570;MIDI 01
431.812;000.120;32;000.492;MIDI 01
431.941;000.078;35;000.445;MIDI 01
431.974;000.054;47;000.391;MIDI 01
432.033;000.072;38;000.484;MIDI 01
432.070;000.096;50;000.523;MIDI 01
432.145;000.032;41;000.453;MIDI 01
432.181;000.094;53;000.516;MIDI 01
432.270;000.035;56;000.562;MIDI 01
432.254;000.099;44;000.617;MIDI 01
432.333;000.107;47;000.570;MIDI 01
432.390;000.062;59;000.477;MIDI 01
432.416;000.081;50;000.539;MIDI 01
432.464;000.082;62;000.570;MIDI 01
432.492;000.075;53;000.625;MIDI 01
432.538;000.086;65;000.555;MIDI 01
432.608;000.034;68;000.555;MIDI 01
432.610;000.099;56;000.656;MIDI 01
432.648;000.111;59;000.656;MIDI 01
432.739;000.030;64;000.414;MIDI 01
432.709;000.069;71;000.531;MIDI 01
432.725;000.081;62;000.555;MIDI 01
432.791;000.062;74;000.617;MIDI 01
432.804;000.057;65;000.648;MIDI 01
432.834;000.072;77;000.555;MIDI 01
432.905;000.021;80;000.539;MIDI 01
432.939;000.044;68;000.469;MIDI 01
432.943;000.074;71;000.656;MIDI 01
432.989;000.059;83;000.539;MIDI 01
433.024;000.042;74;000.492;MIDI 01
433.052;000.081;86;000.578;MIDI 01
433.090;000.072;77;000.539;MIDI 01
433.118;000.046;89;000.633;MIDI 01
433.151;000.023;80;000.781;MIDI 01
433.141;000.040;92;000.836;MIDI 01
433.814;000.167;67;000.727;MIDI 01
433.821;000.215;52;000.609;MIDI 01
433.816;000.224;70;000.695;MIDI 01
433.824;000.239;61;000.695;MIDI 01
433.822;000.245;58;000.664;MIDI 01
433.807;000.268;73;000.695;MIDI 01
433.811;000.276;79;000.703;MIDI 01
434.540;000.024;83;000.492;MIDI 01
434.508;000.192;66;000.773;MIDI 01
434.497;000.259;84;000.727;MIDI 01
434.499;000.267;72;000.789;MIDI 01
434.467;000.332;60;000.570;MIDI 01
434.503;000.298;78;000.734;MIDI 01
434.501;000.302;81;000.758;MIDI 01
434.420;000.401;57;000.531;MIDI 01
434.376;000.527;51;000.594;MIDI 01
435.354;000.074;39;000.828;MIDI 01
435.348;000.535;27;000.734;MIDI 01
436.032;000.045;42;000.523;MIDI 01
436.017;000.097;30;000.555;MIDI 01
436.118;000.078;33;000.531;MIDI 01
436.165;000.056;45;000.430;MIDI 01
436.201;000.059;36;000.500;MIDI 01
436.260;000.105;48;000.539;MIDI 01
436.316;000.097;39;000.609;MIDI 01
436.370;000.085;51;000.531;MIDI 01
436.454;000.026;54;000.562;MIDI 01
436.401;000.089;42;000.562;MIDI 01
436.478;000.083;45;000.586;MIDI 01
436.576;000.052;57;000.477;MIDI 01
436.553;000.095;48;000.578;MIDI 01
436.642;000.090;60;000.562;MIDI 01
436.671;000.080;51;000.602;MIDI 01
436.738;000.060;63;000.570;MIDI 01
436.786;000.032;66;000.609;MIDI 01
436.717;000.127;54;000.570;MIDI 01
436.790;000.091;57;000.609;MIDI 01
436.902;000.055;69;000.547;MIDI 01
436.877;000.082;60;000.625;MIDI 01
436.971;000.061;72;000.586;MIDI 01
436.973;000.101;63;000.695;MIDI 01
437.027;000.061;75;000.602;MIDI 01
437.087;000.028;78;000.609;MIDI 01
437.015;000.128;66;000.297;MIDI 01
437.103;000.059;69;000.562;MIDI 01
437.142;000.035;67;000.359;MIDI 01
437.161;000.061;72;000.641;MIDI 01
437.190;000.043;81;000.523;MIDI 01
437.214;000.053;78;000.047;MIDI 01
437.282;000.045;75;000.477;MIDI 01
437.239;000.105;84;000.586;MIDI 01
437.344;000.020;90;000.625;MIDI 01
437.294;000.072;87;000.656;MIDI 01
437.374;000.002;95;000.523;MIDI 01
437.353;000.039;93;000.742;MIDI 01
437.361;000.042;78;000.242;MIDI 01
437.364;000.050;81;000.719;MIDI 01
438.028;000.109;69;000.781;MIDI 01
438.030;000.146;72;000.680;MIDI 01
438.032;000.152;62;000.742;MIDI 01
438.022;000.192;81;000.758;MIDI 01
438.035;000.181;50;000.617;MIDI 01
438.040;000.188;57;000.688;MIDI 01
438.038;000.218;54;000.680;MIDI 01
438.024;000.245;78;000.695;MIDI 01
438.719;000.049;76;000.781;MIDI 01
438.721;000.055;82;000.727;MIDI 01
438.726;000.053;79;000.750;MIDI 01
438.722;000.079;61;000.773;MIDI 01
438.717;000.096;88;000.805;MIDI 01
438.728;000.102;55;000.656;MIDI 01
438.730;000.102;58;000.688;MIDI 01
438.724;000.110;49;000.664;MIDI 01
439.635;000.054;37;000.789;MIDI 01
439.643;000.216;25;000.820;MIDI 01
440.353;000.084;28;000.508;MIDI 01
440.387;000.067;40;000.453;MIDI 01
440.446;000.056;31;000.430;MIDI 01
440.471;000.073;43;000.469;MIDI 01
440.483;000.081;34;000.516;MIDI 01
440.548;000.061;46;000.430;MIDI 01
440.560;000.084;37;000.516;MIDI 01
440.614;000.033;49;000.516;MIDI 01
440.651;000.035;40;000.438;MIDI 01
440.730;000.059;52;000.484;MIDI 01
440.769;000.072;43;000.461;MIDI 01
440.806;000.101;55;000.539;MIDI 01
440.854;000.065;46;000.492;MIDI 01
440.924;000.051;58;000.445;MIDI 01
440.928;000.068;49;000.555;MIDI 01
440.979;000.031;61;000.547;MIDI 01
441.017;000.033;52;000.477;MIDI 01
441.081;000.058;64;000.516;MIDI 01
441.103;000.079;55;000.523;MIDI 01
441.151;000.084;67;000.562;MIDI 01
441.178;000.080;58;000.508;MIDI 01
441.251;000.036;70;000.516;MIDI 01
441.226;000.093;61;000.516;MIDI 01
441.296;000.029;73;000.578;MIDI 01
441.325;000.032;64;000.508;MIDI 01
441.395;000.069;76;000.523;MIDI 01
441.399;000.099;67;000.586;MIDI 01
441.465;000.060;79;000.578;MIDI 01
441.475;000.062;69;000.133;MIDI 01
441.505;000.033;71;000.383;MIDI 01
441.530;000.043;82;000.539;MIDI 01
441.525;000.077;74;000.578;MIDI 01
441.580;000.029;85;000.562;MIDI 01
441.614;000.033;77;000.570;MIDI 01
441.665;000.055;88;000.562;MIDI 01
441.720;000.080;91;000.609;MIDI 01
441.770;000.041;82;000.211;MIDI 01
441.804;000.030;84;000.422;MIDI 01
441.771;000.067;85;000.359;MIDI 01
441.776;000.086;94;000.633;MIDI 01
441.829;000.035;97;000.516;MIDI 01
441.873;000.053;88;000.617;MIDI 01
441.878;000.112;100;000.664;MIDI 01
441.948;000.065;85;000.680;MIDI 01
442.010;000.035;82;000.484;MIDI 01
441.944;000.121;97;000.648;MIDI 01
441.995;000.127;94;000.648;MIDI 01
442.069;000.060;91;000.617;MIDI 01
442.113;000.059;79;000.656;MIDI 01
442.143;000.036;88;000.547;MIDI 01
442.201;000.070;76;000.641;MIDI 01
442.262;000.025;73;000.539;MIDI 01
442.275;000.043;74;000.227;MIDI 01
442.258;000.114;85;000.602;MIDI 01
442.387;000.051;79;000.609;MIDI 01
442.323;000.119;82;000.586;MIDI 01
442.446;000.053;67;000.609;MIDI 01
442.480;000.031;76;000.562;MIDI 01
442.485;000.105;64;000.594;MIDI 01
442.576;000.060;61;000.617;MIDI 01
442.574;000.130;73;000.625;MIDI 01
442.643;000.131;70;000.609;MIDI 01
442.711;000.084;67;000.586;MIDI 01
442.754;000.046;55;000.570;MIDI 01
442.782;000.055;57;000.125;MIDI 01
442.794;000.046;64;000.570;MIDI 01
442.804;000.107;52;000.594;MIDI 01
442.880;000.069;49;000.609;MIDI 01
442.911;000.065;46;000.633;MIDI 01
442.903;000.123;61;000.672;MIDI 01
442.958;000.109;58;000.625;MIDI 01
443.019;000.074;55;000.586;MIDI 01
443.039;000.056;43;000.602;MIDI 01
443.094;000.040;52;000.586;MIDI 01
443.133;000.035;41;000.133;MIDI 01
443.152;000.049;40;000.273;MIDI 01
443.141;000.087;37;000.578;MIDI 01
443.207;000.042;36;000.375;MIDI 01
443.201;000.061;50;000.523;MIDI 01
443.214;000.062;49;000.453;MIDI 01
443.242;000.053;47;000.469;MIDI 01
443.292;000.068;36;000.445;MIDI 01
443.312;000.049;45;000.289;MIDI 01
443.341;000.033;41;000.508;MIDI 01
443.347;000.034;40;000.539;MIDI 01
443.413;000.049;37;000.734;MIDI 01
443.399;000.064;25;000.742;MIDI 01
443.448;000.042;36;000.445;MIDI 01
444.235;000.062;55;000.719;MIDI 01
444.223;000.128;64;000.750;MIDI 01
444.233;000.130;48;000.727;MIDI 01
444.231;000.139;58;000.719;MIDI 01
444.238;000.193;36;000.602;MIDI 01
444.998;000.055;55;000.719;MIDI 01
444.996;000.096;67;000.695;MIDI 01
445.000;000.096;59;000.680;MIDI 01
445.001;000.100;47;000.711;MIDI 01
444.994;000.136;64;000.688;MIDI 01
445.003;000.140;35;000.633;MIDI 01
445.837;000.096;36;000.602;MIDI 01
445.832;000.104;48;000.703;MIDI 01
445.828;000.290;64;000.609;MIDI 01
445.819;000.316;68;000.719;MIDI 01
445.823;000.634;58;000.727;MIDI 01
446.489;000.068;67;000.672;MIDI 01
446.622;000.168;41;000.633;MIDI 01
446.617;000.215;53;000.703;MIDI 01
446.624;000.209;56;000.703;MIDI 01
446.611;000.285;60;000.320;MIDI 01
446.615;000.357;65;000.695;MIDI 01
447.430;000.032;80;000.625;MIDI 01
447.448;000.024;93;000.422;MIDI 01
447.420;000.142;65;000.570;MIDI 01
447.409;000.179;92;000.844;MIDI 01
447.416;000.217;77;000.688;MIDI 01
448.250;000.192;92;000.758;MIDI 01
448.219;000.310;89;000.750;MIDI 01
448.236;000.299;104;000.766;MIDI 01
448.493;000.166;101;000.688;MIDI 01
448.495;000.181;86;000.570;MIDI 01
448.216;000.462;77;000.633;MIDI 01
448.642;000.113;98;000.625;MIDI 01
448.658;000.136;83;000.562;MIDI 01
448.777;000.054;95;000.609;MIDI 01
448.780;000.069;80;000.625;MIDI 01
448.922;000.061;77;000.547;MIDI 01
448.894;000.166;92;000.656;MIDI 01
448.988;000.104;74;000.656;MIDI 01
448.979;000.128;89;000.594;MIDI 01
449.076;000.074;86;000.586;MIDI 01
449.084;000.083;71;000.562;MIDI 01
449.168;000.032;83;000.531;MIDI 01
449.156;000.052;68;000.594;MIDI 01
449.281;000.048;65;000.570;MIDI 01
449.345;000.035;79;000.484;MIDI 01
449.255;000.166;80;000.648;MIDI 01
449.329;000.106;62;000.680;MIDI 01
449.337;000.122;77;000.516;MIDI 01
449.411;000.076;74;000.609;MIDI 01
449.413;000.106;59;000.617;MIDI 01
449.504;000.033;71;000.500;MIDI 01
449.493;000.062;56;000.609;MIDI 01
449.607;000.074;53;000.633;MIDI 01
449.599;000.152;68;000.625;MIDI 01
449.668;000.114;65;000.602;MIDI 01
449.677;000.111;50;000.609;MIDI 01
449.732;000.076;62;000.586;MIDI 01
449.751;000.114;47;000.594;MIDI 01
449.833;000.035;59;000.445;MIDI 01
449.835;000.070;44;000.648;MIDI 01
449.961;000.082;41;000.609;MIDI 01
449.917;000.140;56;000.625;MIDI 01
449.977;000.108;53;000.570;MIDI 01
450.052;000.040;50;000.492;MIDI 01
450.029;000.152;38;000.602;MIDI 01
450.121;000.096;47;000.570;MIDI 01
450.177;000.048;32;000.461;MIDI 01
450.080;000.147;35;000.586;MIDI 01
450.200;000.054;44;000.742;MIDI 01
450.222;000.040;28;000.672;MIDI 01
450.212;000.066;29;000.680;MIDI 01
450.973;000.069;58;000.688;MIDI 01
450.971;000.150;52;000.695;MIDI 01
450.964;000.159;67;000.742;MIDI 01
450.969;000.156;61;000.688;MIDI 01
450.975;000.180;40;000.625;MIDI 01
451.647;000.041;51;000.812;MIDI 01
451.645;000.056;39;000.695;MIDI 01
451.651;000.068;60;000.703;MIDI 01
451.653;000.159;66;000.695;MIDI 01
451.643;000.234;69;000.656;MIDI 01
451.640;000.303;72;000.703;MIDI 01
452.360;000.057;78;000.734;MIDI 01
452.356;000.066;81;000.711;MIDI 01
452.358;000.073;66;000.633;MIDI 01
452.345;000.265;93;000.719;MIDI 01
453.142;000.001;103;000.391;MIDI 01
452.967;000.180;90;000.820;MIDI 01
453.122;000.069;93;000.648;MIDI 01
453.107;000.284;105;000.750;MIDI 01
452.971;000.423;78;000.625;MIDI 01
453.342;000.062;87;000.555;MIDI 01
453.341;000.175;102;000.656;MIDI 01
453.464;000.073;84;000.570;MIDI 01
453.466;000.143;99;000.594;MIDI 01
453.570;000.073;96;000.625;MIDI 01
453.568;000.118;81;000.531;MIDI 01
453.671;000.034;93;000.539;MIDI 01
453.679;000.079;78;000.594;MIDI 01
453.766;000.027;75;000.562;MIDI 01
453.778;000.125;90;000.617;MIDI 01
453.870;000.058;72;000.516;MIDI 01
453.857;000.109;87;000.617;MIDI 01
453.966;000.032;67;000.445;MIDI 01
453.932;000.069;84;000.594;MIDI 01
453.936;000.099;69;000.516;MIDI 01
454.035;000.029;81;000.531;MIDI 01
454.039;000.066;66;000.602;MIDI 01
454.108;000.032;63;000.516;MIDI 01
454.135;000.091;78;000.586;MIDI 01
454.178;000.056;61;000.172;MIDI 01
454.207;000.054;60;000.594;MIDI 01
454.204;000.093;75;000.617;MIDI 01
454.305;000.045;71;000.391;MIDI 01
454.279;000.073;72;000.492;MIDI 01
454.277;000.095;57;000.562;MIDI 01
454.380;000.032;69;000.477;MIDI 01
454.368;000.070;54;000.594;MIDI 01
454.439;000.032;51;000.508;MIDI 01
454.521;000.066;65;000.422;MIDI 01
454.556;000.038;64;000.312;MIDI 01
454.528;000.078;48;000.625;MIDI 01
454.546;000.106;63;000.617;MIDI 01
454.625;000.059;60;000.469;MIDI 01
454.601;000.113;45;000.609;MIDI 01
454.705;000.034;57;000.508;MIDI 01
454.697;000.050;59;000.023;MIDI 01
454.689;000.068;42;000.609;MIDI 01
454.735;000.076;39;000.625;MIDI 01
454.801;000.070;54;000.570;MIDI 01
454.839;000.089;51;000.602;MIDI 01
454.914;000.041;48;000.484;MIDI 01
454.876;000.125;38;000.469;MIDI 01
454.887;000.124;36;000.484;MIDI 01
454.966;000.053;45;000.578;MIDI 01
455.026;000.029;29;000.570;MIDI 01
455.035;000.036;42;000.734;MIDI 01
455.024;000.068;28;000.633;MIDI 01
455.727;000.093;57;000.758;MIDI 01
455.722;000.140;69;000.742;MIDI 01
455.735;000.134;60;000.664;MIDI 01
455.733;000.147;50;000.727;MIDI 01
455.738;000.190;38;000.617;MIDI 01
455.724;000.249;66;000.680;MIDI 01
456.416;000.031;49;000.812;MIDI 01
456.413;000.049;37;000.695;MIDI 01
456.419;000.052;61;000.758;MIDI 01
456.410;000.077;73;000.734;MIDI 01
457.178;000.027;85;000.688;MIDI 01
457.139;000.096;70;000.578;MIDI 01
457.166;000.082;97;000.820;MIDI 01
457.136;000.129;82;000.695;MIDI 01
457.928;000.035;94;000.633;MIDI 01
457.769;000.370;91;000.805;MIDI 01
457.908;000.257;106;000.789;MIDI 01
458.140;000.127;103;000.656;MIDI 01
457.767;000.508;79;000.586;MIDI 01
458.155;000.135;88;000.570;MIDI 01
458.295;000.061;100;000.617;MIDI 01
458.297;000.116;85;000.523;MIDI 01
458.410;000.060;82;000.547;MIDI 01
458.422;000.133;97;000.578;MIDI 01
458.535;000.060;79;000.562;MIDI 01
458.525;000.117;94;000.555;MIDI 01
458.602;000.079;91;000.594;MIDI 01
458.609;000.102;76;000.594;MIDI 01
458.716;000.032;88;000.570;MIDI 01
458.712;000.073;73;000.547;MIDI 01
458.779;000.030;70;000.586;MIDI 01
458.821;000.073;85;000.562;MIDI 01
458.885;000.064;67;000.555;MIDI 01
458.895;000.089;82;000.523;MIDI 01
458.948;000.069;79;000.594;MIDI 01
458.942;000.095;64;000.602;MIDI 01
459.053;000.023;76;000.508;MIDI 01
459.049;000.048;61;000.586;MIDI 01
459.102;000.027;58;000.555;MIDI 01
459.152;000.062;73;000.570;MIDI 01
459.204;000.050;55;000.523;MIDI 01
459.254;000.039;53;000.305;MIDI 01
459.207;000.104;70;000.539;MIDI 01
459.273;000.057;67;000.555;MIDI 01
459.285;000.073;52;000.430;MIDI 01
459.293;000.077;50;000.477;MIDI 01
459.370;000.025;64;000.445;MIDI 01
459.357;000.043;49;000.547;MIDI 01
459.405;000.044;46;000.594;MIDI 01
459.454;000.073;61;000.609;MIDI 01
459.542;000.044;43;000.445;MIDI 01
459.506;000.102;58;000.539;MIDI 01
459.578;000.041;55;000.531;MIDI 01
459.586;000.094;40;000.469;MIDI 01
459.667;000.030;52;000.523;MIDI 01
459.648;000.162;37;000.539;MIDI 01
459.715;000.108;34;000.453;MIDI 01
459.751;000.135;49;000.555;MIDI 01
459.849;000.122;46;000.586;MIDI 01
459.822;000.171;31;000.594;MIDI 01
460.018;000.120;43;000.609;MIDI 01
460.004;000.186;34;000.617;MIDI 01
460.191;000.085;46;000.562;MIDI 01
460.174;000.118;37;000.594;MIDI 01
460.315;000.047;49;000.594;MIDI 01
460.289;000.098;40;000.602;MIDI 01
460.402;000.059;43;000.508;MIDI 01
460.436;000.078;52;000.562;MIDI 01
460.512;000.082;46;000.633;MIDI 01
460.535;000.087;55;000.586;MIDI 01
460.598;000.103;49;000.625;MIDI 01
460.626;000.086;58;000.531;MIDI 01
460.706;000.030;61;000.617;MIDI 01
460.671;000.092;52;000.641;MIDI 01
460.761;000.072;55;000.609;MIDI 01
460.810;000.067;64;000.500;MIDI 01
460.864;000.094;58;000.648;MIDI 01
460.889;000.095;67;000.625;MIDI 01
460.978;000.061;70;000.578;MIDI 01
460.907;000.148;61;000.484;MIDI 01
461.032;000.033;73;000.617;MIDI 01
461.006;000.079;64;000.664;MIDI 01
461.078;000.076;67;000.633;MIDI 01
461.135;000.075;76;000.602;MIDI 01
461.226;000.035;71;000.469;MIDI 01
461.228;000.044;72;000.516;MIDI 01
461.218;000.061;79;000.625;MIDI 01
461.242;000.059;73;000.234;MIDI 01
461.279;000.040;82;000.562;MIDI 01
461.249;000.104;74;000.609;MIDI 01
461.353;000.027;85;000.398;MIDI 01
461.335;000.064;76;000.555;MIDI 01
461.410;000.060;79;000.602;MIDI 01
461.413;000.062;88;000.594;MIDI 01
461.489;000.072;91;000.570;MIDI 01
461.538;000.043;82;000.234;MIDI 01
461.541;000.052;85;000.539;MIDI 01
461.535;000.070;94;000.719;MIDI 01
461.593;000.021;96;000.758;MIDI 01
461.604;000.036;88;000.844;MIDI 01
461.619;000.040;97;000.273;MIDI 01
461.599;000.075;84;000.078;MIDI 01
462.445;000.002;62;000.305;MIDI 01
462.399;000.083;55;000.734;MIDI 01
462.395;000.195;46;000.820;MIDI 01
462.389;000.230;64;000.766;MIDI 01
462.391;000.234;61;000.719;MIDI 01
462.397;000.241;34;000.719;MIDI 01
463.148;000.081;61;000.719;MIDI 01
463.146;000.091;73;000.727;MIDI 01
463.156;000.113;64;000.680;MIDI 01
463.221;000.064;39;000.148;MIDI 01
463.154;000.139;45;000.742;MIDI 01
463.158;000.136;67;000.664;MIDI 01
463.160;000.196;33;000.633;MIDI 01
463.971;000.109;55;000.664;MIDI 01
463.978;000.165;45;000.703;MIDI 01
463.962;000.197;64;000.734;MIDI 01
463.984;000.272;33;000.656;MIDI 01
463.973;000.295;61;000.680;MIDI 01
464.736;000.034;44;000.758;MIDI 01
464.730;000.045;56;000.625;MIDI 01
464.740;000.045;60;000.531;MIDI 01
464.734;000.057;32;000.664;MIDI 01
464.722;000.072;65;000.641;MIDI 01
464.875;000.065;32;000.695;MIDI 01
464.869;000.088;65;000.664;MIDI 01
464.877;000.081;64;000.539;MIDI 01
464.871;000.090;44;000.766;MIDI 01
464.867;000.096;56;000.742;MIDI 01
464.880;000.106;60;000.617;MIDI 01
465.874;000.660;77;000.594;MIDI 01
465.878;000.715;80;000.547;MIDI 01
465.891;000.704;72;000.391;MIDI 01
466.547;000.058;76;000.430;MIDI 01
465.856;000.752;89;000.641;MIDI 01
465.895;000.716;68;000.461;MIDI 01
465.897;000.739;84;000.406;MIDI 01
466.545;000.136;88;000.555;MIDI 01
466.917;000.244;78;000.492;MIDI 01
466.915;000.314;75;000.484;MIDI 01
466.921;000.337;66;000.430;MIDI 01
467.225;000.058;74;000.500;MIDI 01
466.895;000.399;87;000.656;MIDI 01
466.913;000.393;70;000.461;MIDI 01
466.934;000.409;82;000.375;MIDI 01
467.235;000.115;86;000.586;MIDI 01
467.533;000.203;73;000.539;MIDI 01
467.528;000.257;85;000.656;MIDI 01
467.552;000.284;76;000.430;MIDI 01
467.554;000.301;80;000.430;MIDI 01
467.822;000.071;72;000.500;MIDI 01
467.561;000.348;64;000.359;MIDI 01
467.818;000.102;84;000.555;MIDI 01
467.548;000.376;68;000.445;MIDI 01
468.105;000.277;71;000.484;MIDI 01
468.117;000.268;62;000.391;MIDI 01
468.087;000.327;83;000.609;MIDI 01
468.120;000.297;66;000.383;MIDI 01
468.113;000.307;74;000.422;MIDI 01
468.115;000.307;78;000.406;MIDI 01
468.382;000.053;70;000.484;MIDI 01
468.367;000.092;82;000.555;MIDI 01
468.665;000.201;72;000.508;MIDI 01
468.658;000.243;60;000.438;MIDI 01
468.655;000.275;69;000.531;MIDI 01
468.663;000.270;64;000.492;MIDI 01
468.660;000.309;76;000.508;MIDI 01
468.644;000.329;81;000.617;MIDI 01
468.927;000.065;68;000.508;MIDI 01
468.931;000.157;80;000.594;MIDI 01
469.236;000.268;62;000.398;MIDI 01
469.241;000.271;67;000.430;MIDI 01
469.252;000.263;58;000.375;MIDI 01
469.239;000.281;74;000.484;MIDI 01
469.211;000.335;79;000.570;MIDI 01
469.243;000.311;70;000.453;MIDI 01
469.505;000.077;66;000.492;MIDI 01
469.497;000.203;78;000.562;MIDI 01
469.880;000.051;60;000.266;MIDI 01
469.811;000.295;56;000.406;MIDI 01
469.794;000.339;77;000.562;MIDI 01
469.833;000.303;68;000.352;MIDI 01
469.807;000.360;65;000.484;MIDI 01
469.830;000.340;72;000.414;MIDI 01
470.119;000.058;64;000.516;MIDI 01
469.934;000.247;60;000.047;MIDI 01
470.084;000.117;76;000.547;MIDI 01
470.399;000.279;66;000.469;MIDI 01
470.394;000.297;63;000.477;MIDI 01
470.401;000.300;54;000.391;MIDI 01
470.676;000.061;62;000.469;MIDI 01
470.423;000.323;58;000.352;MIDI 01
470.416;000.345;70;000.352;MIDI 01
470.391;000.372;75;000.523;MIDI 01
470.691;000.093;74;000.508;MIDI 01
470.996;000.310;61;000.398;MIDI 01
470.983;000.329;73;000.516;MIDI 01
471.302;000.079;60;000.391;MIDI 01
471.012;000.378;68;000.344;MIDI 01
471.025;000.379;64;000.320;MIDI 01
471.310;000.095;72;000.508;MIDI 01
471.004;000.405;56;000.398;MIDI 01
471.021;000.419;52;000.352;MIDI 01
471.617;000.361;59;000.375;MIDI 01
471.613;000.383;71;000.438;MIDI 01
471.628;000.381;54;000.336;MIDI 01
471.935;000.080;58;000.383;MIDI 01
471.637;000.383;50;000.344;MIDI 01
471.633;000.410;66;000.344;MIDI 01
471.632;000.441;62;000.336;MIDI 01
471.947;000.130;70;000.492;MIDI 01
472.330;000.464;57;000.328;MIDI 01
472.317;000.539;69;000.453;MIDI 01
472.786;000.213;56;000.312;MIDI 01
472.333;000.698;52;000.328;MIDI 01
472.322;000.714;48;000.320;MIDI 01
472.332;001.036;60;000.352;MIDI 01
472.320;001.172;64;000.383;MIDI 01
472.807;000.727;68;000.406;MIDI 01
473.933;000.742;61;000.406;MIDI 01
473.935;000.954;64;000.391;MIDI 01
473.905;000.992;68;000.547;MIDI 01
473.336;001.849;46;000.469;MIDI 01
474.686;000.735;67;000.477;MIDI 01
475.151;000.617;44;000.320;MIDI 01
475.274;000.548;60;000.234;MIDI 01
474.340;001.489;56;000.328;MIDI 01
475.239;000.699;66;000.523;MIDI 01
475.908;000.077;65;000.484;MIDI 01
476.511;000.526;68;000.367;MIDI 01
476.468;000.705;77;000.508;MIDI 01
476.496;000.711;65;000.352;MIDI 01
476.494;000.739;60;000.273;MIDI 01
477.158;000.100;64;000.328;MIDI 01
477.149;000.121;76;000.422;MIDI 01
476.525;000.751;56;000.289;MIDI 01
476.520;000.769;72;000.352;MIDI 01
477.605;000.347;66;000.406;MIDI 01
477.571;000.450;75;000.555;MIDI 01
477.587;000.435;63;000.398;MIDI 01
477.980;000.067;62;000.422;MIDI 01
477.595;000.467;54;000.375;MIDI 01
477.616;000.448;70;000.406;MIDI 01
477.610;000.457;58;000.344;MIDI 01
477.991;000.092;74;000.508;MIDI 01
478.319;000.221;61;000.469;MIDI 01
478.301;000.337;73;000.586;MIDI 01
478.624;000.060;60;000.438;MIDI 01
478.340;000.348;64;000.344;MIDI 01
478.334;000.366;68;000.398;MIDI 01
478.610;000.102;72;000.547;MIDI 01
478.337;000.392;56;000.375;MIDI 01
478.332;000.413;52;000.367;MIDI 01
478.887;000.325;71;000.562;MIDI 01
478.909;000.317;59;000.438;MIDI 01
478.916;000.322;62;000.367;MIDI 01
478.920;000.326;66;000.422;MIDI 01
478.918;000.330;54;000.391;MIDI 01
479.196;000.059;58;000.406;MIDI 01
479.181;000.097;70;000.523;MIDI 01
478.922;000.364;50;000.375;MIDI 01
479.484;000.281;60;000.406;MIDI 01
479.483;000.298;57;000.391;MIDI 01
479.460;000.341;69;000.531;MIDI 01
479.472;000.335;48;000.398;MIDI 01
479.470;000.340;64;000.445;MIDI 01
479.759;000.067;56;000.430;MIDI 01
479.495;000.359;52;000.312;MIDI 01
479.748;000.128;68;000.516;MIDI 01
480.022;000.068;51;000.414;MIDI 01
480.046;000.354;68;000.367;MIDI 01
480.067;000.343;67;000.469;MIDI 01
480.071;000.355;55;000.328;MIDI 01
480.102;000.357;62;000.391;MIDI 01
480.136;000.324;50;000.312;MIDI 01
480.374;000.089;54;000.406;MIDI 01
480.082;000.385;58;000.336;MIDI 01
480.076;000.402;46;000.391;MIDI 01
480.366;000.127;66;000.492;MIDI 01
480.660;000.357;65;000.469;MIDI 01
480.690;000.333;53;000.406;MIDI 01
480.696;000.345;48;000.430;MIDI 01
480.982;000.088;52;000.406;MIDI 01
480.683;000.389;56;000.383;MIDI 01
480.706;000.368;60;000.367;MIDI 01
480.956;000.136;64;000.461;MIDI 01
480.685;000.413;44;000.398;MIDI 01
481.281;000.335;51;000.422;MIDI 01
481.622;000.050;50;000.375;MIDI 01
481.279;000.404;63;000.477;MIDI 01
481.332;000.380;46;000.258;MIDI 01
481.354;000.362;54;000.078;MIDI 01
481.624;000.097;62;000.414;MIDI 01
481.356;000.383;58;000.180;MIDI 01
481.325;000.433;42;000.289;MIDI 01
481.958;000.369;61;000.461;MIDI 01
481.984;000.349;49;000.383;MIDI 01
482.337;000.083;48;000.406;MIDI 01
482.000;000.433;52;000.258;MIDI 01
482.299;000.145;60;000.391;MIDI 01
482.003;000.477;40;000.258;MIDI 01
481.982;000.501;44;000.336;MIDI 01
482.005;000.498;56;000.250;MIDI 01
482.717;000.455;47;000.250;MIDI 01
482.704;000.472;59;000.398;MIDI 01
483.123;000.073;46;000.359;MIDI 01
482.705;000.519;42;000.336;MIDI 01
482.729;000.519;50;000.281;MIDI 01
483.111;000.141;58;000.414;MIDI 01
482.730;000.536;54;000.297;MIDI 01
482.709;000.562;38;000.320;MIDI 01
483.605;000.587;45;000.289;MIDI 01
483.602;000.636;57;000.430;MIDI 01
484.192;000.366;44;000.250;MIDI 01
483.590;001.005;40;000.367;MIDI 01
483.630;000.977;36;000.273;MIDI 01
483.626;001.371;48;000.320;MIDI 01
484.215;000.893;56;000.383;MIDI 01
483.609;001.501;52;000.352;MIDI 01
485.582;001.302;52;000.461;MIDI 01
485.604;001.394;49;000.391;MIDI 01
484.947;002.399;34;000.508;MIDI 01
485.559;001.850;56;000.578;MIDI 01
486.620;000.864;55;000.516;MIDI 01
486.095;001.667;44;000.438;MIDI 01
487.320;001.516;54;000.539;MIDI 01
488.539;000.599;44;000.367;MIDI 01
489.061;000.669;43;000.461;MIDI 01
489.551;000.968;42;000.312;MIDI 01
490.364;000.532;41;000.195;MIDI 01
487.218;004.310;32;000.359;MIDI 01
487.342;004.406;48;000.328;MIDI 01
488.700;003.294;53;000.477;MIDI 01
489.552;003.622;60;000.539;MIDI 01
492.562;000.682;59;000.359;MIDI 01
493.060;000.502;58;000.359;MIDI 01
493.499;000.574;56;000.422;MIDI 01
494.380;000.981;52;000.398;MIDI 01
494.377;001.033;49;000.406;MIDI 01
493.884;001.848;34;000.539;MIDI 01
495.147;000.830;55;000.586;MIDI 01
494.336;001.657;56;000.586;MIDI 01
494.745;001.443;44;000.469;MIDI 01
495.736;001.260;54;000.586;MIDI 01
496.731;000.542;44;000.414;MIDI 01
497.221;000.801;43;000.484;MIDI 01
497.733;001.129;42;000.406;MIDI 01
498.760;000.627;41;000.258;MIDI 01
495.634;004.117;32;000.422;MIDI 01
497.861;002.407;61;000.555;MIDI 01
495.769;004.711;48;000.406;MIDI 01
496.861;003.624;53;000.555;MIDI 01
500.274;000.992;60;000.320;MIDI 01
500.849;000.707;59;000.398;MIDI 01
501.337;000.586;58;000.273;MIDI 01
501.753;000.632;57;000.266;MIDI 01
502.223;000.398;56;000.195;MIDI 01
503.739;001.332;49;000.141;MIDI 01
503.745;001.404;34;000.219;MIDI 01
503.725;001.436;52;000.266;MIDI 01
503.706;001.459;56;000.398;MIDI 01
503.741;001.427;44;000.250;MIDI 01
505.720;000.397;43;000.219;MIDI 01
505.683;000.453;55;000.391;MIDI 01
505.723;000.434;34;000.234;MIDI 01
505.709;000.455;49;000.242;MIDI 01
505.711;000.496;52;000.273;MIDI 01
508.543;001.929;42;000.188;MIDI 01
508.527;002.076;33;000.234;MIDI 01
508.533;002.183;48;000.305;MIDI 01
508.535;003.976;54;000.328;MIDI 01
512.348;000.194;41;000.266;MIDI 01
512.359;000.200;32;000.266;MIDI 01
512.331;000.234;53;000.305;MIDI 01
512.342;000.227;48;000.281;MIDI 01
514.870;000.201;41;000.125;MIDI 01
514.884;000.197;48;000.281;MIDI 01
514.889;000.200;32;000.219;MIDI 01
514.862;000.230;53;000.305;MIDI 01
522.951;002.701;80;000.422;MIDI 01
524.954;000.803;77;000.305;MIDI 01
525.432;000.721;75;000.422;MIDI 01
525.800;000.613;74;000.477;MIDI 01
526.197;000.559;77;000.508;MIDI 01
526.587;000.611;75;000.539;MIDI 01
527.145;001.073;73;000.469;MIDI 01
528.246;000.097;72;000.445;MIDI 01
528.429;001.518;72;000.367;MIDI 01
529.848;000.533;71;000.320;MIDI 01
529.861;001.589;65;000.305;MIDI 01
529.862;001.647;68;000.320;MIDI 01
531.217;001.732;67;000.281;MIDI 01
531.206;001.814;64;000.227;MIDI 01
532.696;001.142;66;000.250;MIDI 01
532.693;001.169;63;000.195;MIDI 01
534.812;002.189;81;000.578;MIDI 01
536.561;000.586;78;000.453;MIDI 01
536.995;000.527;76;000.555;MIDI 01
537.378;000.624;75;000.555;MIDI 01
537.929;001.351;80;000.508;MIDI 01
538.975;000.391;78;000.492;MIDI 01
539.257;000.322;76;000.562;MIDI 01
539.568;000.861;75;000.430;MIDI 01
540.452;000.056;73;000.453;MIDI 01
540.629;001.708;73;000.469;MIDI 01
542.174;000.773;72;000.273;MIDI 01
542.177;001.747;63;000.281;MIDI 01
542.159;001.778;66;000.312;MIDI 01
543.553;001.729;65;000.227;MIDI 01
543.573;001.820;62;000.320;MIDI 01
545.075;001.171;64;000.195;MIDI 01
545.065;001.235;61;000.242;MIDI 01
547.136;001.694;82;000.609;MIDI 01
548.616;000.669;83;000.531;MIDI 01
549.060;000.382;82;000.594;MIDI 01
549.345;000.456;80;000.609;MIDI 01
549.579;000.278;82;000.648;MIDI 01
549.773;000.424;83;000.633;MIDI 01
550.094;002.156;86;000.633;MIDI 01
552.273;000.879;83;000.461;MIDI 01
551.745;001.514;85;000.430;MIDI 01
552.809;000.534;82;000.461;MIDI 01
553.192;000.571;76;000.508;MIDI 01
553.541;000.680;78;000.547;MIDI 01
554.060;002.235;81;000.539;MIDI 01
555.477;000.848;79;000.352;MIDI 01
555.941;000.677;78;000.383;MIDI 01
556.362;000.484;76;000.422;MIDI 01
556.772;000.536;74;000.352;MIDI 01
557.222;000.850;73;000.320;MIDI 01
557.933;002.246;71;000.297;MIDI 01
559.817;000.823;70;000.289;MIDI 01
561.044;000.175;70;000.070;MIDI 01
560.984;000.783;69;000.469;MIDI 01
561.574;000.940;70;000.547;MIDI 01
560.404;002.489;67;000.312;MIDI 01
560.420;002.580;64;000.305;MIDI 01
560.424;002.657;61;000.273;MIDI 01
562.376;001.933;72;000.531;MIDI 01
563.962;003.001;70;000.383;MIDI 01
563.875;003.192;67;000.281;MIDI 01
563.752;003.373;64;000.281;MIDI 01
564.062;003.277;75;000.469;MIDI 01
563.640;003.753;60;000.211;MIDI 01
566.885;000.596;72;000.430;MIDI 01
566.372;001.179;73;000.367;MIDI 01
567.316;000.443;70;000.469;MIDI 01
567.697;000.541;66;000.438;MIDI 01
568.130;001.203;67;000.430;MIDI 01
568.703;000.635;64;000.273;MIDI 01
568.779;000.617;70;000.398;MIDI 01
570.541;000.722;65;000.234;MIDI 01
570.520;000.874;68;000.250;MIDI 01
572.718;002.052;56;000.508;MIDI 01
574.373;000.824;53;000.430;MIDI 01
574.911;000.578;51;000.445;MIDI 01
575.289;000.443;50;000.516;MIDI 01
575.645;000.490;53;000.484;MIDI 01
576.010;000.569;51;000.516;MIDI 01
576.525;001.135;49;000.477;MIDI 01
577.635;000.091;48;000.461;MIDI 01
577.839;000.897;48;000.406;MIDI 01
578.558;000.649;47;000.336;MIDI 01
579.281;000.508;68;000.133;MIDI 01
579.257;001.464;74;000.336;MIDI 01
579.241;001.511;77;000.266;MIDI 01
580.436;000.559;67;000.203;MIDI 01
580.428;000.619;73;000.273;MIDI 01
580.440;001.684;76;000.352;MIDI 01
581.788;001.147;66;000.242;MIDI 01
581.801;001.199;72;000.281;MIDI 01
581.780;001.235;75;000.273;MIDI 01
583.865;002.037;57;000.547;MIDI 01
585.678;000.677;54;000.453;MIDI 01
586.169;000.500;52;000.500;MIDI 01
586.528;000.509;51;000.539;MIDI 01
586.990;001.052;56;000.492;MIDI 01
587.989;000.335;54;000.469;MIDI 01
588.261;000.388;52;000.484;MIDI 01
588.578;000.786;51;000.320;MIDI 01
589.358;000.062;49;000.430;MIDI 01
589.535;000.808;49;000.430;MIDI 01
590.233;000.636;48;000.391;MIDI 01
590.890;000.654;69;000.211;MIDI 01
590.900;000.674;66;000.141;MIDI 01
590.869;000.843;75;000.312;MIDI 01
592.089;000.616;65;000.203;MIDI 01
592.050;000.684;68;000.234;MIDI 01
592.045;001.715;74;000.273;MIDI 01
593.473;000.743;64;000.102;MIDI 01
593.464;000.755;67;000.211;MIDI 01
593.454;000.848;73;000.273;MIDI 01
595.539;001.774;58;000.516;MIDI 01
597.147;000.659;59;000.461;MIDI 01
597.651;000.483;58;000.500;MIDI 01
598.013;000.390;56;000.523;MIDI 01
598.297;000.348;58;000.562;MIDI 01
598.557;000.496;59;000.594;MIDI 01
598.930;002.014;62;000.578;MIDI 01
601.073;000.516;59;000.516;MIDI 01
600.612;001.016;61;000.461;MIDI 01
601.440;000.529;58;000.523;MIDI 01
601.775;000.538;61;000.570;MIDI 01
602.104;000.802;64;000.625;MIDI 01
602.785;002.318;67;000.648;MIDI 01
604.808;000.636;66;000.430;MIDI 01
605.293;000.474;65;000.391;MIDI 01
605.749;000.279;64;000.289;MIDI 01
606.554;000.685;63;000.234;MIDI 01
607.023;000.548;62;000.352;MIDI 01
607.554;000.481;61;000.289;MIDI 01
607.955;001.135;67;000.250;MIDI 01
608.753;000.436;60;000.242;MIDI 01
608.351;000.864;61;000.211;MIDI 01
607.935;001.282;64;000.320;MIDI 01
609.144;000.665;59;000.297;MIDI 01
608.742;001.105;68;000.359;MIDI 01
609.577;000.725;64;000.336;MIDI 01
610.059;000.794;58;000.305;MIDI 01
609.560;001.355;67;000.383;MIDI 01
610.765;000.951;73;000.414;MIDI 01
610.767;001.263;57;000.289;MIDI 01
611.604;000.892;72;000.328;MIDI 01
612.056;000.886;56;000.266;MIDI 01
610.760;002.261;65;000.305;MIDI 01
612.407;000.688;77;000.391;MIDI 01
612.799;000.453;76;000.531;MIDI 01
613.207;000.279;75;000.406;MIDI 01
613.962;000.517;74;000.406;MIDI 01
614.351;000.445;73;000.445;MIDI 01
614.724;000.466;72;000.430;MIDI 01
615.062;000.359;65;000.406;MIDI 01
615.076;000.949;56;000.359;MIDI 01
615.454;000.774;72;000.516;MIDI 01
615.833;000.766;63;000.484;MIDI 01
616.032;001.067;65;000.336;MIDI 01
615.993;001.142;71;000.531;MIDI 01
616.553;000.874;61;000.406;MIDI 01
617.327;000.568;67;000.484;MIDI 01
617.702;000.440;66;000.523;MIDI 01
618.086;000.252;65;000.344;MIDI 01
616.989;001.353;70;000.469;MIDI 01
618.825;000.568;64;000.391;MIDI 01
619.175;000.436;63;000.477;MIDI 01
619.546;000.402;61;000.406;MIDI 01
620.244;000.553;60;000.391;MIDI 01
620.777;000.619;73;000.531;MIDI 01
619.893;001.647;64;000.438;MIDI 01
619.871;001.819;67;000.555;MIDI 01
620.786;001.169;58;000.273;MIDI 01
621.481;000.859;72;000.398;MIDI 01
621.938;000.739;56;000.141;MIDI 01
622.723;000.040;74;000.453;MIDI 01
621.922;000.929;65;000.219;MIDI 01
622.292;000.705;77;000.469;MIDI 01
622.692;000.478;76;000.461;MIDI 01
623.102;000.298;75;000.406;MIDI 01
623.837;000.460;74;000.477;MIDI 01
624.194;000.423;73;000.547;MIDI 01
624.545;000.436;72;000.484;MIDI 01
624.914;000.424;65;000.445;MIDI 01
624.921;000.857;56;000.422;MIDI 01
625.268;000.745;72;000.508;MIDI 01
625.636;000.671;63;000.430;MIDI 01
625.820;000.950;65;000.320;MIDI 01
625.778;001.051;71;000.555;MIDI 01
626.249;000.728;61;000.430;MIDI 01
626.737;000.835;70;000.469;MIDI 01
627.096;000.544;67;000.516;MIDI 01
627.458;000.434;66;000.539;MIDI 01
627.846;000.285;65;000.398;MIDI 01
628.564;000.642;64;000.328;MIDI 01
628.925;000.415;63;000.445;MIDI 01
629.288;000.386;61;000.422;MIDI 01
629.629;000.406;67;000.383;MIDI 01
629.608;000.617;70;000.594;MIDI 01
629.980;000.639;64;000.430;MIDI 01
630.595;000.641;71;000.422;MIDI 01
630.617;000.741;68;000.391;MIDI 01
630.579;000.854;77;000.531;MIDI 01
630.487;001.340;62;000.336;MIDI 01
631.784;000.128;60;000.266;MIDI 01
631.329;000.873;76;000.445;MIDI 01
631.790;000.442;72;000.305;MIDI 01
631.917;000.617;60;000.023;MIDI 01
631.793;000.824;69;000.297;MIDI 01
632.151;000.599;81;000.508;MIDI 01
632.533;000.454;80;000.562;MIDI 01
632.915;000.253;79;000.414;MIDI 01
633.599;000.719;78;000.484;MIDI 01
633.965;000.369;77;000.555;MIDI 01
634.329;000.441;76;000.430;MIDI 01
634.682;000.372;69;000.477;MIDI 01
634.697;000.934;60;000.406;MIDI 01
635.020;000.710;76;000.562;MIDI 01
635.380;000.625;66;000.508;MIDI 01
636.028;000.344;65;000.344;MIDI 01
635.568;001.059;69;000.398;MIDI 01
635.532;001.196;75;000.578;MIDI 01
636.873;000.497;71;000.492;MIDI 01
636.541;000.970;74;000.461;MIDI 01
637.239;000.449;69;000.586;MIDI 01
637.603;000.366;68;000.469;MIDI 01
638.339;000.577;67;000.406;MIDI 01
638.698;000.426;66;000.477;MIDI 01
639.080;000.356;65;000.406;MIDI 01
639.796;000.616;62;000.398;MIDI 01
639.432;001.375;68;000.438;MIDI 01
639.410;001.504;71;000.539;MIDI 01
640.332;000.821;77;000.539;MIDI 01
640.322;001.034;61;000.344;MIDI 01
640.976;000.823;76;000.422;MIDI 01
641.365;000.497;72;000.328;MIDI 01
641.347;000.800;60;000.297;MIDI 01
641.716;000.577;81;000.547;MIDI 01
641.362;000.945;69;000.250;MIDI 01
642.084;000.497;80;000.578;MIDI 01
642.468;000.250;79;000.406;MIDI 01
643.143;000.710;78;000.484;MIDI 01
643.519;000.377;77;000.539;MIDI 01
643.873;000.435;76;000.469;MIDI 01
644.237;000.539;69;000.461;MIDI 01
644.249;000.878;60;000.406;MIDI 01
644.570;000.672;76;000.555;MIDI 01
644.924;000.605;66;000.500;MIDI 01
645.549;000.361;65;000.406;MIDI 01
645.082;001.021;69;000.453;MIDI 01
645.058;001.168;75;000.578;MIDI 01
646.336;000.465;71;000.492;MIDI 01
646.014;000.922;74;000.477;MIDI 01
646.692;000.449;69;000.539;MIDI 01
647.062;000.274;68;000.453;MIDI 01
647.750;000.508;67;000.461;MIDI 01
648.103;000.413;66;000.508;MIDI 01
648.465;000.332;65;000.492;MIDI 01
648.778;000.849;69;000.430;MIDI 01
649.111;000.535;65;000.516;MIDI 01
648.766;000.935;74;000.562;MIDI 01
649.499;000.518;68;000.414;MIDI 01
649.511;000.978;71;000.516;MIDI 01
650.022;000.481;67;000.469;MIDI 01
649.502;001.043;77;000.633;MIDI 01
650.766;000.456;72;000.539;MIDI 01
650.425;000.817;76;000.500;MIDI 01
650.433;000.824;73;000.469;MIDI 01
651.097;000.414;71;000.578;MIDI 01
651.460;000.211;70;000.531;MIDI 01
652.094;000.593;69;000.531;MIDI 01
652.449;000.481;68;000.523;MIDI 01
652.798;000.430;67;000.508;MIDI 01
653.466;000.528;67;000.562;MIDI 01
653.140;000.920;76;000.633;MIDI 01
653.835;000.435;70;000.523;MIDI 01
653.165;001.477;73;000.508;MIDI 01
653.815;000.829;79;000.641;MIDI 01
654.193;000.596;69;000.570;MIDI 01
654.800;000.489;74;000.617;MIDI 01
654.508;000.827;75;000.477;MIDI 01
654.483;000.919;78;000.594;MIDI 01
655.158;000.454;73;000.648;MIDI 01
655.510;000.275;72;000.570;MIDI 01
656.143;000.453;71;000.578;MIDI 01
656.477;000.395;70;000.609;MIDI 01
656.820;000.304;69;000.602;MIDI 01
657.124;000.820;78;000.664;MIDI 01
657.432;000.529;68;000.633;MIDI 01
657.133;001.460;75;000.578;MIDI 01
657.851;000.758;81;000.703;MIDI 01
657.862;000.975;72;000.586;MIDI 01
657.872;001.002;66;000.578;MIDI 01
658.439;000.853;80;000.648;MIDI 01
658.814;000.869;74;000.438;MIDI 01
658.811;001.117;65;000.352;MIDI 01
658.794;001.206;71;000.438;MIDI 01
659.164;000.841;85;000.617;MIDI 01
659.549;000.476;84;000.633;MIDI 01
659.921;000.284;83;000.516;MIDI 01
660.602;000.500;82;000.484;MIDI 01
660.930;000.394;81;000.562;MIDI 01
661.292;000.421;80;000.461;MIDI 01
661.635;000.320;65;000.336;MIDI 01
661.639;000.432;71;000.359;MIDI 01
661.617;000.982;74;000.430;MIDI 01
662.326;000.419;64;000.320;MIDI 01
662.343;000.489;70;000.305;MIDI 01
661.970;000.895;79;000.539;MIDI 01
662.335;000.786;73;000.383;MIDI 01
662.709;000.898;78;000.469;MIDI 01
663.072;000.886;69;000.273;MIDI 01
663.054;000.950;72;000.336;MIDI 01
663.077;000.939;63;000.320;MIDI 01
663.416;000.684;83;000.516;MIDI 01
663.794;000.464;82;000.570;MIDI 01
664.169;000.341;81;000.484;MIDI 01
665.227;000.460;79;000.523;MIDI 01
664.885;000.843;80;000.422;MIDI 01
665.592;000.444;78;000.453;MIDI 01
665.954;000.455;63;000.289;MIDI 01
665.935;000.498;72;000.328;MIDI 01
665.950;000.865;69;000.344;MIDI 01
666.697;000.297;62;000.289;MIDI 01
666.664;000.455;68;000.328;MIDI 01
666.306;001.044;77;000.531;MIDI 01
666.682;000.825;71;000.305;MIDI 01
667.068;000.829;76;000.469;MIDI 01
667.391;000.848;61;000.305;MIDI 01
667.765;000.496;81;000.461;MIDI 01
667.409;000.883;67;000.281;MIDI 01
667.399;000.953;70;000.320;MIDI 01
668.111;000.456;80;000.539;MIDI 01
668.489;000.305;79;000.445;MIDI 01
669.211;000.521;78;000.406;MIDI 01
669.590;000.375;77;000.445;MIDI 01
669.965;000.408;76;000.336;MIDI 01
670.333;000.362;67;000.203;MIDI 01
670.350;000.448;61;000.258;MIDI 01
670.336;000.551;70;000.273;MIDI 01
670.739;000.953;75;000.383;MIDI 01
671.568;000.419;74;000.359;MIDI 01
672.356;000.585;79;000.391;MIDI 01
672.742;000.453;78;000.438;MIDI 01
673.151;000.326;77;000.289;MIDI 01
673.957;000.476;76;000.344;MIDI 01
674.362;000.471;75;000.367;MIDI 01
674.759;000.348;74;000.344;MIDI 01
671.154;004.451;66;000.297;MIDI 01
671.150;004.484;60;000.305;MIDI 01
671.163;005.411;69;000.289;MIDI 01
675.673;001.307;75;000.305;MIDI 01
676.856;000.445;74;000.305;MIDI 01
676.261;001.079;68;000.273;MIDI 01
676.268;001.181;59;000.258;MIDI 01
676.281;001.181;65;000.180;MIDI 01
677.860;000.642;80;000.328;MIDI 01
678.286;000.419;77;000.375;MIDI 01
678.692;000.373;76;000.297;MIDI 01
679.457;000.494;75;000.289;MIDI 01
679.840;000.418;74;000.344;MIDI 01
680.251;000.267;73;000.203;MIDI 01
680.975;000.395;72;000.289;MIDI 01
681.344;000.410;71;000.312;MIDI 01
681.740;000.268;68;000.188;MIDI 01
682.469;000.471;65;000.289;MIDI 01
682.812;000.406;64;000.305;MIDI 01
683.211;000.255;63;000.234;MIDI 01
683.938;000.505;62;000.250;MIDI 01
684.325;000.487;61;000.297;MIDI 01
684.731;000.321;60;000.211;MIDI 01
685.594;000.682;59;000.203;MIDI 01
686.231;000.645;56;000.180;MIDI 01
686.748;000.691;53;000.062;MIDI 01
687.124;000.419;52;000.258;MIDI 01
687.461;000.337;51;000.281;MIDI 01
687.814;000.413;50;000.188;MIDI 01
688.148;000.357;49;000.250;MIDI 01
688.500;000.475;48;000.273;MIDI 01
688.861;000.344;47;000.234;MIDI 01
689.158;000.367;44;000.320;MIDI 01
689.517;000.427;41;000.297;MIDI 01
689.856;000.422;40;000.250;MIDI 01
690.163;000.394;39;000.297;MIDI 01
690.515;000.386;38;000.320;MIDI 01
690.868;000.319;37;000.211;MIDI 01
691.204;000.351;36;000.195;MIDI 01
691.550;000.179;35;000.203;MIDI 01
691.893;000.168;35;000.234;MIDI 01
692.249;000.096;35;000.195;MIDI 01
692.585;000.096;35;000.234;MIDI 01
692.927;000.090;35;000.148;MIDI 01
693.249;000.097;35;000.211;MIDI 01
693.575;000.090;35;000.203;MIDI 01
693.908;000.092;35;000.219;MIDI 01
694.252;000.069;35;000.219;MIDI 01
694.569;000.073;35;000.227;MIDI 01
694.927;000.065;35;000.188;MIDI 01
695.274;000.107;35;000.234;MIDI 01
695.619;000.089;35;000.227;MIDI 01
695.964;000.068;35;000.188;MIDI 01
695.259;000.822;65;000.406;MIDI 01
695.276;000.892;59;000.312;MIDI 01
696.285;000.080;35;000.180;MIDI 01
695.282;001.145;56;000.312;MIDI 01
696.627;000.090;35;000.250;MIDI 01
696.674;000.188;55;000.125;MIDI 01
696.649;000.215;64;000.242;MIDI 01
696.669;000.332;58;000.234;MIDI 01
696.983;000.159;35;000.234;MIDI 01
697.348;000.109;35;000.320;MIDI 01
697.696;000.091;35;000.242;MIDI 01
698.023;000.071;35;000.250;MIDI 01
697.352;000.906;57;000.359;MIDI 01
697.345;001.040;63;000.375;MIDI 01
698.350;000.095;35;000.266;MIDI 01
697.405;001.100;54;000.164;MIDI 01
698.695;000.076;35;000.281;MIDI 01
698.719;000.207;53;000.203;MIDI 01
698.705;000.244;62;000.266;MIDI 01
698.709;000.353;56;000.281;MIDI 01
699.033;000.127;35;000.258;MIDI 01
699.384;000.093;35;000.305;MIDI 01
699.737;000.082;35;000.273;MIDI 01
700.065;000.094;35;000.242;MIDI 01
699.409;000.775;52;000.281;MIDI 01
699.386;000.870;61;000.414;MIDI 01
699.370;000.898;55;000.359;MIDI 01
700.392;000.077;35;000.297;MIDI 01
700.702;000.071;35;000.281;MIDI 01
700.726;000.247;51;000.227;MIDI 01
700.704;000.285;60;000.328;MIDI 01
701.025;000.111;35;000.258;MIDI 01
700.722;000.417;54;000.289;MIDI 01
701.384;000.096;35;000.297;MIDI 01
701.709;000.091;35;000.281;MIDI 01
702.053;000.085;35;000.180;MIDI 01
702.372;000.099;35;000.203;MIDI 01
702.691;000.115;35;000.312;MIDI 01
701.405;001.710;50;000.242;MIDI 01
703.036;000.083;35;000.336;MIDI 01
701.423;001.917;53;000.039;MIDI 01
701.375;002.053;59;000.359;MIDI 01
703.359;000.103;34;000.320;MIDI 01
703.672;000.223;34;000.344;MIDI 01
704.002;000.134;33;000.406;MIDI 01
704.333;000.241;33;000.383;MIDI 01
704.701;000.300;32;000.398;MIDI 01
705.125;000.230;32;000.312;MIDI 01
705.552;000.103;32;000.336;MIDI 01
705.929;000.066;32;000.273;MIDI 01
705.525;000.695;60;000.352;MIDI 01
705.532;000.734;57;000.297;MIDI 01
706.225;000.105;32;000.297;MIDI 01
705.508;000.842;66;000.422;MIDI 01
706.541;000.094;32;000.367;MIDI 01
706.873;000.081;32;000.305;MIDI 01
706.845;000.281;65;000.422;MIDI 01
706.879;000.292;56;000.273;MIDI 01
706.885;000.330;59;000.336;MIDI 01
707.186;000.108;32;000.305;MIDI 01
707.515;000.128;32;000.312;MIDI 01
707.852;000.087;32;000.328;MIDI 01
707.539;000.568;55;000.281;MIDI 01
707.504;000.643;64;000.422;MIDI 01
708.159;000.139;32;000.336;MIDI 01
707.526;000.819;58;000.312;MIDI 01
708.493;000.078;32;000.344;MIDI 01
708.794;000.094;32;000.336;MIDI 01
708.816;000.226;54;000.312;MIDI 01
708.828;000.218;57;000.266;MIDI 01
708.790;000.260;63;000.414;MIDI 01
709.097;000.092;32;000.352;MIDI 01
709.441;000.093;32;000.320;MIDI 01
709.746;000.108;32;000.305;MIDI 01
709.458;000.529;53;000.352;MIDI 01
709.424;000.583;62;000.484;MIDI 01
709.439;000.688;56;000.398;MIDI 01
710.065;000.084;32;000.375;MIDI 01
710.361;000.169;32;000.312;MIDI 01
710.715;000.075;32;000.320;MIDI 01
710.676;000.205;52;000.375;MIDI 01
710.703;000.214;55;000.305;MIDI 01
710.668;000.260;61;000.469;MIDI 01
710.982;000.092;32;000.367;MIDI 01
711.290;000.154;32;000.352;MIDI 01
711.616;000.143;32;000.398;MIDI 01
711.911;000.157;33;000.391;MIDI 01
712.244;000.100;33;000.391;MIDI 01
712.544;000.146;32;000.414;MIDI 01
711.321;001.577;51;000.328;MIDI 01
712.845;000.146;32;000.422;MIDI 01
711.306;001.714;54;000.359;MIDI 01
711.278;001.814;60;000.477;MIDI 01
713.141;000.143;31;000.484;MIDI 01
713.457;000.198;31;000.430;MIDI 01
713.746;000.182;30;000.492;MIDI 01
714.065;000.121;30;000.430;MIDI 01
714.384;000.152;29;000.430;MIDI 01
714.733;000.135;29;000.445;MIDI 01
715.170;000.171;29;000.344;MIDI 01
715.577;000.080;29;000.344;MIDI 01
715.132;000.752;69;000.586;MIDI 01
715.884;000.104;29;000.344;MIDI 01
715.172;000.870;60;000.383;MIDI 01
715.165;000.933;63;000.383;MIDI 01
716.176;000.079;29;000.375;MIDI 01
716.465;000.081;29;000.320;MIDI 01
716.470;000.106;59;000.383;MIDI 01
716.469;000.118;62;000.383;MIDI 01
716.451;000.150;68;000.469;MIDI 01
716.761;000.079;29;000.305;MIDI 01
717.052;000.114;29;000.320;MIDI 01
717.368;000.064;29;000.359;MIDI 01
717.024;000.629;67;000.523;MIDI 01
717.050;000.638;61;000.406;MIDI 01
717.619;000.155;29;000.359;MIDI 01
717.067;000.832;58;000.336;MIDI 01
717.924;000.092;29;000.398;MIDI 01
718.217;000.077;29;000.359;MIDI 01
718.222;000.078;57;000.375;MIDI 01
718.226;000.139;60;000.414;MIDI 01
718.197;000.229;66;000.555;MIDI 01
718.477;000.110;29;000.453;MIDI 01
718.808;000.125;29;000.430;MIDI 01
719.092;000.112;29;000.383;MIDI 01
719.381;000.089;29;000.438;MIDI 01
718.816;000.729;66;000.461;MIDI 01
718.790;000.757;72;000.625;MIDI 01
718.812;000.871;63;000.508;MIDI 01
719.656;000.104;29;000.461;MIDI 01
719.960;000.071;29;000.391;MIDI 01
719.946;000.120;62;000.477;MIDI 01
719.923;000.168;71;000.578;MIDI 01
719.942;000.169;65;000.461;MIDI 01
720.201;000.107;29;000.430;MIDI 01
720.502;000.090;29;000.453;MIDI 01
720.770;000.072;29;000.438;MIDI 01
720.491;000.623;64;000.523;MIDI 01
721.019;000.099;29;000.445;MIDI 01
720.471;000.847;70;000.609;MIDI 01
720.500;000.837;61;000.516;MIDI 01
721.288;000.086;29;000.430;MIDI 01
721.576;000.046;60;000.484;MIDI 01
721.569;000.091;29;000.484;MIDI 01
721.572;000.106;63;000.508;MIDI 01
721.553;000.146;69;000.641;MIDI 01
721.829;000.270;29;000.516;MIDI 01
722.375;000.105;29;000.359;MIDI 01
722.650;000.060;29;000.414;MIDI 01
722.115;000.644;77;000.664;MIDI 01
722.132;000.658;65;000.562;MIDI 01
722.135;000.723;73;000.570;MIDI 01
722.136;000.750;41;000.430;MIDI 01
722.862;000.239;29;000.469;MIDI 01
723.146;000.152;64;000.523;MIDI 01
723.141;000.159;73;000.555;MIDI 01
723.128;000.174;76;000.656;MIDI 01
723.154;000.154;70;000.445;MIDI 01
723.161;000.256;43;000.445;MIDI 01
723.383;000.260;29;000.492;MIDI 01
723.899;000.127;29;000.422;MIDI 01
723.652;000.567;45;000.516;MIDI 01
723.650;000.577;75;000.594;MIDI 01
723.658;000.577;72;000.570;MIDI 01
723.664;000.577;66;000.562;MIDI 01
724.145;000.106;29;000.398;MIDI 01
723.656;000.606;63;000.570;MIDI 01
724.399;000.064;29;000.547;MIDI 01
724.645;000.060;46;000.500;MIDI 01
724.651;000.096;62;000.508;MIDI 01
724.632;000.148;74;000.625;MIDI 01
724.649;000.163;65;000.539;MIDI 01
724.641;000.172;70;000.562;MIDI 01
724.878;000.101;29;000.555;MIDI 01
725.134;000.080;47;000.508;MIDI 01
725.400;000.044;29;000.352;MIDI 01
725.433;000.056;31;000.281;MIDI 01
725.580;000.115;29;000.438;MIDI 01
725.125;000.695;73;000.641;MIDI 01
725.132;000.691;61;000.594;MIDI 01
725.125;000.706;68;000.578;MIDI 01
725.140;000.729;65;000.492;MIDI 01
725.849;000.075;29;000.570;MIDI 01
726.106;000.049;48;000.508;MIDI 01
726.089;000.144;60;000.539;MIDI 01
726.082;000.156;72;000.609;MIDI 01
726.093;000.192;65;000.461;MIDI 01
726.096;000.220;68;000.516;MIDI 01
726.326;000.057;29;000.531;MIDI 01
726.559;000.044;49;000.602;MIDI 01
726.553;000.181;59;000.539;MIDI 01
726.547;000.225;71;000.625;MIDI 01
726.555;000.259;65;000.523;MIDI 01
726.791;000.052;29;000.531;MIDI 01
726.561;000.314;68;000.508;MIDI 01
727.031;000.035;50;000.516;MIDI 01
727.033;000.163;58;000.562;MIDI 01
727.035;000.185;65;000.453;MIDI 01
727.021;000.244;68;000.594;MIDI 01
727.029;000.245;70;000.609;MIDI 01
727.236;000.041;29;000.539;MIDI 01
727.506;000.033;57;000.570;MIDI 01
727.497;000.045;50;000.594;MIDI 01
727.504;000.092;65;000.539;MIDI 01
727.495;000.128;69;000.656;MIDI 01
727.728;000.042;29;000.578;MIDI 01
727.735;000.049;41;000.594;MIDI 01
728.054;000.152;50;000.625;MIDI 01
728.476;000.066;41;000.523;MIDI 01
728.484;000.080;29;000.445;MIDI 01
728.105;000.490;81;000.688;MIDI 01
728.118;000.551;74;000.641;MIDI 01
728.116;000.559;77;000.648;MIDI 01
728.719;000.053;29;000.430;MIDI 01
728.695;000.087;41;000.516;MIDI 01
728.115;000.724;69;000.711;MIDI 01
728.911;000.043;29;000.438;MIDI 01
728.934;000.065;41;000.570;MIDI 01
729.165;000.051;50;000.586;MIDI 01
729.153;000.168;71;000.562;MIDI 01
729.143;000.200;77;000.602;MIDI 01
729.148;000.199;68;000.586;MIDI 01
729.145;000.224;80;000.609;MIDI 01
729.389;000.042;29;000.523;MIDI 01
729.391;000.057;41;000.500;MIDI 01
729.635;000.051;52;000.617;MIDI 01
729.881;000.065;41;000.469;MIDI 01
729.892;000.082;29;000.484;MIDI 01
729.633;000.382;79;000.641;MIDI 01
729.638;000.558;70;000.625;MIDI 01
729.642;000.557;73;000.602;MIDI 01
730.104;000.097;41;000.516;MIDI 01
730.143;000.062;29;000.422;MIDI 01
729.640;000.575;67;000.625;MIDI 01
730.342;000.049;41;000.562;MIDI 01
730.385;000.015;29;000.156;MIDI 01
730.564;000.036;53;000.602;MIDI 01
730.549;000.222;77;000.602;MIDI 01
730.551;000.250;65;000.586;MIDI 01
730.556;000.248;69;000.609;MIDI 01
730.775;000.047;41;000.539;MIDI 01
730.554;000.271;74;000.594;MIDI 01
730.798;000.033;29;000.430;MIDI 01
731.002;000.033;55;000.609;MIDI 01
731.241;000.064;41;000.508;MIDI 01
731.271;000.055;29;000.406;MIDI 01
730.995;000.528;76;000.727;MIDI 01
731.009;000.516;73;000.609;MIDI 01
731.013;000.515;70;000.562;MIDI 01
731.460;000.071;29;000.469;MIDI 01
731.451;000.095;41;000.539;MIDI 01
731.004;000.627;64;000.664;MIDI 01
731.688;000.051;41;000.578;MIDI 01
731.702;000.047;29;000.312;MIDI 01
731.915;000.031;57;000.594;MIDI 01
731.901;000.103;66;000.539;MIDI 01
731.899;000.140;63;000.547;MIDI 01
731.903;000.162;72;000.570;MIDI 01
731.896;000.202;75;000.578;MIDI 01
732.119;000.040;41;000.586;MIDI 01
732.136;000.052;29;000.469;MIDI 01
732.340;000.033;58;000.648;MIDI 01
732.315;000.102;62;000.602;MIDI 01
732.323;000.134;65;000.562;MIDI 01
732.312;000.167;74;000.633;MIDI 01
732.325;000.198;70;000.570;MIDI 01
732.558;000.039;40;000.648;MIDI 01
732.570;000.042;28;000.453;MIDI 01
732.591;000.032;29;000.320;MIDI 01
732.794;000.023;59;000.688;MIDI 01
732.792;000.106;61;000.648;MIDI 01
732.790;000.138;68;000.586;MIDI 01
732.786;000.273;73;000.695;MIDI 01
733.054;000.030;41;000.648;MIDI 01
733.059;000.027;29;000.594;MIDI 01
733.534;000.207;42;000.281;MIDI 01
733.518;000.233;30;000.398;MIDI 01
733.506;000.269;74;000.477;MIDI 01
733.523;000.272;62;000.367;MIDI 01
733.510;000.332;71;000.406;MIDI 01
733.514;000.357;66;000.406;MIDI 01
733.922;000.106;30;000.391;MIDI 01
733.907;000.179;42;000.383;MIDI 01
734.183;000.058;31;000.391;MIDI 01
734.192;000.052;43;000.359;MIDI 01
734.178;000.158;64;000.422;MIDI 01
734.166;000.179;61;000.492;MIDI 01
734.156;000.252;73;000.531;MIDI 01
734.393;000.056;43;000.430;MIDI 01
734.171;000.290;70;000.453;MIDI 01
734.401;000.072;31;000.445;MIDI 01
734.605;000.035;44;000.445;MIDI 01
734.603;000.056;32;000.438;MIDI 01
734.569;000.128;72;000.531;MIDI 01
734.601;000.117;60;000.383;MIDI 01
734.590;000.149;68;000.414;MIDI 01
734.599;000.143;63;000.406;MIDI 01
734.781;000.091;44;000.492;MIDI 01
734.799;000.101;32;000.484;MIDI 01
734.987;000.042;45;000.492;MIDI 01
734.995;000.053;33;000.461;MIDI 01
734.961;000.181;71;000.555;MIDI 01
734.974;000.178;59;000.508;MIDI 01
735.159;000.062;45;000.484;MIDI 01
735.176;000.069;33;000.523;MIDI 01
734.985;000.266;63;000.453;MIDI 01
734.976;000.277;66;000.484;MIDI 01
735.360;000.042;46;000.500;MIDI 01
735.354;000.065;34;000.500;MIDI 01
735.381;000.062;63;000.398;MIDI 01
735.361;000.101;66;000.492;MIDI 01
735.356;000.109;70;000.617;MIDI 01
735.358;000.111;58;000.586;MIDI 01
735.534;000.118;34;000.508;MIDI 01
735.511;000.144;46;000.539;MIDI 01
735.705;000.043;57;000.602;MIDI 01
735.711;000.056;47;000.547;MIDI 01
735.717;000.071;35;000.422;MIDI 01
735.702;000.098;69;000.633;MIDI 01
735.715;000.092;63;000.523;MIDI 01
735.709;000.115;66;000.594;MIDI 01
735.932;000.028;47;000.328;MIDI 01
735.919;000.066;35;000.531;MIDI 01
736.169;000.102;31;000.438;MIDI 01
736.157;000.118;43;000.516;MIDI 01
736.171;000.129;67;000.477;MIDI 01
736.155;000.152;75;000.562;MIDI 01
736.173;000.136;63;000.492;MIDI 01
736.163;000.167;72;000.531;MIDI 01
736.425;000.040;43;000.438;MIDI 01
736.433;000.119;31;000.453;MIDI 01
736.617;000.041;44;000.484;MIDI 01
736.606;000.053;62;000.539;MIDI 01
736.612;000.052;65;000.523;MIDI 01
736.622;000.045;32;000.445;MIDI 01
736.601;000.075;74;000.570;MIDI 01
736.607;000.075;71;000.547;MIDI 01
736.774;000.104;44;000.562;MIDI 01
736.781;000.132;32;000.500;MIDI 01
736.970;000.052;45;000.492;MIDI 01
736.974;000.059;33;000.461;MIDI 01
736.972;000.091;61;000.562;MIDI 01
736.966;000.101;69;000.500;MIDI 01
736.960;000.115;64;000.508;MIDI 01
736.964;000.122;73;000.570;MIDI 01
737.130;000.070;45;000.578;MIDI 01
737.143;000.069;33;000.516;MIDI 01
737.321;000.038;46;000.539;MIDI 01
737.319;000.064;34;000.516;MIDI 01
737.364;000.044;65;000.266;MIDI 01
737.316;000.157;64;000.500;MIDI 01
737.305;000.172;72;000.633;MIDI 01
737.311;000.171;60;000.570;MIDI 01
737.312;000.196;67;000.570;MIDI 01
737.472;000.090;46;000.562;MIDI 01
737.497;000.090;34;000.500;MIDI 01
737.647;000.067;35;000.555;MIDI 01
737.643;000.077;59;000.633;MIDI 01
737.639;000.083;47;000.602;MIDI 01
737.641;000.091;71;000.641;MIDI 01
737.651;000.083;64;000.562;MIDI 01
737.645;000.098;67;000.633;MIDI 01
737.821;000.060;35;000.508;MIDI 01
737.807;000.080;47;000.570;MIDI 01
737.985;000.035;64;000.469;MIDI 01
737.971;000.052;58;000.695;MIDI 01
737.978;000.056;67;000.516;MIDI 01
737.999;000.058;48;000.625;MIDI 01
737.980;000.078;70;000.680;MIDI 01
738.002;000.060;36;000.562;MIDI 01
738.151;000.040;48;000.578;MIDI 01
738.160;000.066;36;000.578;MIDI 01
738.394;000.073;44;000.625;MIDI 01
738.398;000.092;32;000.562;MIDI 01
738.378;000.143;76;000.664;MIDI 01
738.380;000.159;64;000.648;MIDI 01
738.382;000.214;73;000.688;MIDI 01
738.389;000.223;68;000.586;MIDI 01
738.627;000.110;44;000.555;MIDI 01
738.646;000.125;32;000.500;MIDI 01
738.829;000.065;45;000.602;MIDI 01
738.832;000.062;33;000.539;MIDI 01
738.837;000.074;66;000.594;MIDI 01
738.834;000.080;63;000.641;MIDI 01
738.823;000.103;75;000.656;MIDI 01
738.830;000.103;72;000.609;MIDI 01
738.985;000.048;45;000.594;MIDI 01
738.983;000.080;33;000.578;MIDI 01
739.166;000.021;72;000.523;MIDI 01
739.154;000.039;46;000.648;MIDI 01
739.140;000.067;62;000.680;MIDI 01
739.149;000.058;34;000.594;MIDI 01
739.144;000.067;65;000.625;MIDI 01
739.145;000.068;74;000.570;MIDI 01
739.151;000.082;70;000.609;MIDI 01
739.289;000.101;46;000.625;MIDI 01
739.302;000.106;34;000.602;MIDI 01
739.461;000.072;47;000.617;MIDI 01
739.464;000.074;35;000.586;MIDI 01
739.454;000.102;61;000.688;MIDI 01
739.460;000.100;65;000.508;MIDI 01
739.457;000.111;68;000.578;MIDI 01
739.458;000.124;73;000.641;MIDI 01
739.618;000.059;47;000.625;MIDI 01
739.616;000.066;35;000.539;MIDI 01
739.789;000.049;48;000.641;MIDI 01
739.779;000.070;60;000.680;MIDI 01
739.786;000.064;36;000.609;MIDI 01
739.775;000.077;72;000.672;MIDI 01
739.781;000.075;68;000.570;MIDI 01
739.783;000.079;65;000.578;MIDI 01
739.932;000.044;48;000.648;MIDI 01
739.938;000.065;36;000.570;MIDI 01
739.962;000.064;42;000.188;MIDI 01
740.073;000.038;59;000.695;MIDI 01
740.086;000.032;65;000.539;MIDI 01
740.087;000.039;49;000.703;MIDI 01
740.090;000.049;37;000.602;MIDI 01
740.077;000.070;71;000.688;MIDI 01
740.078;000.073;68;000.594;MIDI 01
740.240;000.081;49;000.664;MIDI 01
740.241;000.114;37;000.641;MIDI 01
740.401;000.029;65;000.656;MIDI 01
740.407;000.056;50;000.641;MIDI 01
740.393;000.074;71;000.578;MIDI 01
740.396;000.074;77;000.664;MIDI 01
740.414;000.061;38;000.555;MIDI 01
740.399;000.078;68;000.586;MIDI 01
740.568;000.034;49;000.578;MIDI 01
740.566;000.044;37;000.570;MIDI 01
740.698;000.033;66;000.656;MIDI 01
740.704;000.034;69;000.484;MIDI 01
740.700;000.046;49;000.586;MIDI 01
740.696;000.058;37;000.570;MIDI 01
740.686;000.069;73;000.586;MIDI 01
740.706;000.066;78;000.609;MIDI 01
740.858;000.032;49;000.594;MIDI 01
740.844;000.060;37;000.633;MIDI 01
741.001;000.029;67;000.625;MIDI 01
740.992;000.058;37;000.625;MIDI 01
740.987;000.065;70;000.703;MIDI 01
740.998;000.056;79;000.633;MIDI 01
740.986;000.070;49;000.602;MIDI 01
740.996;000.062;76;000.633;MIDI 01
741.159;000.050;67;000.023;MIDI 01
741.146;000.079;49;000.641;MIDI 01
741.143;000.094;37;000.641;MIDI 01
741.279;000.044;71;000.570;MIDI 01
741.283;000.068;68;000.703;MIDI 01
741.275;000.078;77;000.516;MIDI 01
741.298;000.058;50;000.672;MIDI 01
741.299;000.071;38;000.617;MIDI 01
741.285;000.085;80;000.656;MIDI 01
741.450;000.043;49;000.688;MIDI 01
741.456;000.061;37;000.648;MIDI 01
741.579;000.029;69;000.680;MIDI 01
741.575;000.046;73;000.602;MIDI 01
741.573;000.060;76;000.609;MIDI 01
741.586;000.053;49;000.656;MIDI 01
741.577;000.067;81;000.617;MIDI 01
741.591;000.064;37;000.664;MIDI 01
741.739;000.038;49;000.680;MIDI 01
741.732;000.070;37;000.633;MIDI 01
741.872;000.040;76;000.625;MIDI 01
741.870;000.059;70;000.734;MIDI 01
741.875;000.056;79;000.648;MIDI 01
741.879;000.055;49;000.703;MIDI 01
741.877;000.069;37;000.617;MIDI 01
741.873;000.084;82;000.711;MIDI 01
742.024;000.064;49;000.703;MIDI 01
742.023;000.080;37;000.641;MIDI 01
742.163;000.045;71;000.797;MIDI 01
742.177;000.053;37;000.688;MIDI 01
742.167;000.066;77;000.625;MIDI 01
742.207;000.030;81;000.414;MIDI 01
742.179;000.064;49;000.844;MIDI 01
742.165;000.090;83;000.758;MIDI 01
742.159;000.113;80;000.711;MIDI 01
742.465;000.051;90;000.172;MIDI 01
742.589;000.047;56;000.172;MIDI 01
742.566;000.174;62;000.750;MIDI 01
742.564;000.199;50;000.664;MIDI 01
742.869;000.067;61;000.695;MIDI 01
742.873;000.084;49;000.688;MIDI 01
742.629;000.370;89;000.750;MIDI 01
742.635;000.372;80;000.727;MIDI 01
742.640;000.397;77;000.812;MIDI 01
743.029;000.045;62;000.727;MIDI 01
743.036;000.060;50;000.609;MIDI 01
743.161;000.029;61;000.648;MIDI 01
743.173;000.027;49;000.672;MIDI 01
743.311;000.029;37;000.781;MIDI 01
743.309;000.047;49;000.500;MIDI 01
743.307;000.051;76;000.719;MIDI 01
743.303;000.061;79;000.703;MIDI 01
743.305;000.064;88;000.758;MIDI 01
743.446;000.023;37;000.148;MIDI 01
743.666;000.022;63;000.586;MIDI 01
743.670;000.029;51;000.516;MIDI 01
743.711;000.057;54;000.062;MIDI 01
743.714;000.056;85;000.273;MIDI 01
743.795;000.027;61;000.664;MIDI 01
743.783;000.041;49;000.695;MIDI 01
743.931;000.039;63;000.617;MIDI 01
743.916;000.056;61;000.227;MIDI 01
743.925;000.051;51;000.359;MIDI 01
743.649;000.337;78;000.555;MIDI 01
743.659;000.344;75;000.695;MIDI 01
743.663;000.345;87;000.711;MIDI 01
744.065;000.030;63;000.531;MIDI 01
744.068;000.033;51;000.750;MIDI 01
744.092;000.027;61;000.492;MIDI 01
744.236;000.002;39;000.531;MIDI 01
744.219;000.022;37;000.766;MIDI 01
744.221;000.022;49;000.781;MIDI 01
744.327;000.036;49;000.297;MIDI 01
744.226;000.142;86;000.688;MIDI 01
744.335;000.042;37;000.195;MIDI 01
744.225;000.163;74;000.703;MIDI 01
744.223;000.180;77;000.664;MIDI 01
744.525;000.025;64;000.695;MIDI 01
744.536;000.029;52;000.633;MIDI 01
744.675;000.025;61;000.664;MIDI 01
744.673;000.030;49;000.617;MIDI 01
744.550;000.218;76;000.664;MIDI 01
744.549;000.247;73;000.672;MIDI 01
744.544;000.280;85;000.742;MIDI 01
744.805;000.028;65;000.656;MIDI 01
744.796;000.041;61;000.203;MIDI 01
744.810;000.035;53;000.586;MIDI 01
744.943;000.029;49;000.586;MIDI 01
744.970;000.002;51;000.328;MIDI 01
744.945;000.029;61;000.719;MIDI 01
745.052;000.037;61;000.305;MIDI 01
745.089;000.027;66;000.719;MIDI 01
745.084;000.041;54;000.633;MIDI 01
745.110;000.026;72;000.672;MIDI 01
745.107;000.031;75;000.664;MIDI 01
745.116;000.028;84;000.625;MIDI 01
745.114;000.035;56;000.430;MIDI 01
745.232;000.030;49;000.695;MIDI 01
745.236;000.036;61;000.594;MIDI 01
745.385;000.024;66;000.711;MIDI 01
745.381;000.031;54;000.680;MIDI 01
745.409;000.036;81;000.359;MIDI 01
745.473;000.041;66;000.406;MIDI 01
745.513;000.027;61;000.727;MIDI 01
745.507;000.054;49;000.711;MIDI 01
745.656;000.040;67;000.828;MIDI 01
745.657;000.047;55;000.703;MIDI 01
745.679;000.026;56;000.492;MIDI 01
745.664;000.055;61;000.156;MIDI 01
745.808;000.021;61;000.789;MIDI 01
745.814;000.035;49;000.648;MIDI 01
745.896;000.024;61;000.391;MIDI 01
746.044;000.002;64;000.367;MIDI 01
745.380;000.667;71;000.664;MIDI 01
745.375;000.679;74;000.727;MIDI 01
745.369;000.704;83;000.742;MIDI 01
746.211;000.032;72;000.680;MIDI 01
746.006;000.245;65;000.656;MIDI 01
745.999;000.261;68;000.805;MIDI 01
746.214;000.059;75;000.680;MIDI 01
746.216;000.060;84;000.664;MIDI 01
746.017;000.267;56;000.602;MIDI 01
746.421;000.038;76;000.602;MIDI 01
746.407;000.061;73;000.750;MIDI 01
746.414;000.061;85;000.688;MIDI 01
746.406;000.095;67;000.656;MIDI 01
746.411;000.134;55;000.578;MIDI 01
746.397;000.151;64;000.602;MIDI 01
746.590;000.031;77;000.633;MIDI 01
746.607;000.020;74;000.570;MIDI 01
746.597;000.032;86;000.664;MIDI 01
746.761;000.028;78;000.648;MIDI 01
746.754;000.042;75;000.672;MIDI 01
746.757;000.056;87;000.695;MIDI 01
746.747;000.121;66;000.586;MIDI 01
746.741;000.139;63;000.562;MIDI 01
746.758;000.157;54;000.508;MIDI 01
746.905;000.030;79;000.641;MIDI 01
746.910;000.027;76;000.656;MIDI 01
746.908;000.055;88;000.719;MIDI 01
747.061;000.026;77;000.711;MIDI 01
747.067;000.043;89;000.711;MIDI 01
747.065;000.052;80;000.750;MIDI 01
747.115;000.002;88;000.305;MIDI 01
747.058;000.086;65;000.617;MIDI 01
747.055;000.108;62;000.562;MIDI 01
747.070;000.147;53;000.531;MIDI 01
747.227;000.031;78;000.648;MIDI 01
747.229;000.034;90;000.648;MIDI 01
747.232;000.034;81;000.562;MIDI 01
747.388;000.021;79;000.688;MIDI 01
747.407;000.002;89;000.492;MIDI 01
747.380;000.030;83;000.633;MIDI 01
747.378;000.044;91;000.703;MIDI 01
747.385;000.073;64;000.586;MIDI 01
747.390;000.094;52;000.547;MIDI 01
747.384;000.105;61;000.539;MIDI 01
747.502;000.040;79;000.203;MIDI 01
747.521;000.023;83;000.594;MIDI 01
747.519;000.027;80;000.648;MIDI 01
747.515;000.066;92;000.703;MIDI 01
747.668;000.024;81;000.664;MIDI 01
747.664;000.030;84;000.672;MIDI 01
747.661;000.048;93;000.750;MIDI 01
747.652;000.081;60;000.570;MIDI 01
747.660;000.090;63;000.555;MIDI 01
747.672;000.086;51;000.484;MIDI 01
747.800;000.026;82;000.656;MIDI 01
747.805;000.024;85;000.633;MIDI 01
747.796;000.052;94;000.727;MIDI 01
747.911;000.036;85;000.273;MIDI 01
747.935;000.024;86;000.688;MIDI 01
747.943;000.029;83;000.570;MIDI 01
747.933;000.045;95;000.781;MIDI 01
747.960;000.021;84;000.492;MIDI 01
747.930;000.072;62;000.602;MIDI 01
747.936;000.085;59;000.516;MIDI 01
747.940;000.084;50;000.500;MIDI 01
748.068;000.030;84;000.703;MIDI 01
748.080;000.020;86;000.531;MIDI 01
748.078;000.024;87;000.703;MIDI 01
748.082;000.026;96;000.656;MIDI 01
748.123;000.002;93;000.219;MIDI 01
748.098;000.027;98;000.500;MIDI 01
748.209;000.026;88;000.656;MIDI 01
748.204;000.033;85;000.734;MIDI 01
748.207;000.055;97;000.734;MIDI 01
748.201;000.072;61;000.602;MIDI 01
748.188;000.102;58;000.617;MIDI 01
748.217;000.092;49;000.531;MIDI 01
748.344;000.025;89;000.727;MIDI 01
748.359;000.017;86;000.617;MIDI 01
748.353;000.025;100;000.695;MIDI 01
748.349;000.036;98;000.703;MIDI 01
748.367;000.023;88;000.484;MIDI 01
748.481;000.019;87;000.711;MIDI 01
748.479;000.027;90;000.672;MIDI 01
748.483;000.027;99;000.664;MIDI 01
748.447;000.067;57;000.570;MIDI 01
748.449;000.071;60;000.641;MIDI 01
748.457;000.090;48;000.523;MIDI 01
748.605;000.034;91;000.773;MIDI 01
748.609;000.032;88;000.680;MIDI 01
748.607;000.048;100;000.820;MIDI 01
748.669;000.044;56;000.273;MIDI 01
748.758;000.017;101;000.836;MIDI 01
748.754;000.027;89;000.805;MIDI 01
748.756;000.038;92;000.828;MIDI 01
748.750;000.050;59;000.766;MIDI 01
748.798;000.002;91;000.312;MIDI 01
748.748;000.062;47;000.562;MIDI 01
748.752;000.067;56;000.664;MIDI 01
748.844;000.053;49;000.023;MIDI 01
749.288;000.002;35;000.359;MIDI 01
749.273;000.022;82;000.531;MIDI 01
749.299;000.057;42;000.242;MIDI 01
749.250;000.247;48;000.797;MIDI 01
749.254;000.294;36;000.648;MIDI 01
749.573;000.083;48;000.625;MIDI 01
749.571;000.091;36;000.391;MIDI 01
749.246;000.542;77;000.688;MIDI 01
749.766;000.044;36;000.508;MIDI 01
749.242;000.570;84;000.773;MIDI 01
749.753;000.066;48;000.703;MIDI 01
749.248;000.591;80;000.758;MIDI 01
749.244;000.609;72;000.781;MIDI 01
749.905;000.047;48;000.664;MIDI 01
749.898;000.073;36;000.508;MIDI 01
750.053;000.071;49;000.695;MIDI 01
750.055;000.099;71;000.648;MIDI 01
750.047;000.149;83;000.680;MIDI 01
750.057;000.178;37;000.641;MIDI 01
750.204;000.047;36;000.617;MIDI 01
750.200;000.053;48;000.656;MIDI 01
750.059;000.210;77;000.555;MIDI 01
750.051;000.229;80;000.664;MIDI 01
750.354;000.040;50;000.648;MIDI 01
750.359;000.049;38;000.609;MIDI 01
750.511;000.033;48;000.648;MIDI 01
750.518;000.031;36;000.609;MIDI 01
750.358;000.271;77;000.562;MIDI 01
750.361;000.303;80;000.594;MIDI 01
750.639;000.045;48;000.586;MIDI 01
750.649;000.038;36;000.531;MIDI 01
750.356;000.333;70;000.742;MIDI 01
750.352;000.424;82;000.719;MIDI 01
750.783;000.048;48;000.680;MIDI 01
750.776;000.061;36;000.562;MIDI 01
750.946;000.032;75;000.523;MIDI 01
750.942;000.040;51;000.641;MIDI 01
750.940;000.133;39;000.555;MIDI 01
750.933;000.167;70;000.641;MIDI 01
750.938;000.168;82;000.594;MIDI 01
751.077;000.050;48;000.734;MIDI 01
751.079;000.054;36;000.641;MIDI 01
750.944;000.208;79;000.578;MIDI 01
751.236;000.030;52;000.672;MIDI 01
751.234;000.047;40;000.656;MIDI 01
751.391;000.038;38;000.523;MIDI 01
751.401;000.033;48;000.438;MIDI 01
751.404;000.032;50;000.422;MIDI 01
751.419;000.045;36;000.328;MIDI 01
751.220;000.308;82;000.672;MIDI 01
751.208;000.322;79;000.508;MIDI 01
751.521;000.035;48;000.648;MIDI 01
751.218;000.343;73;000.625;MIDI 01
751.528;000.034;36;000.484;MIDI 01
751.211;000.371;70;000.727;MIDI 01
751.679;000.026;47;000.500;MIDI 01
751.663;000.050;36;000.555;MIDI 01
751.680;000.038;48;000.406;MIDI 01
751.889;000.034;53;000.547;MIDI 01
751.900;000.044;41;000.516;MIDI 01
751.880;000.144;81;000.602;MIDI 01
751.891;000.188;69;000.555;MIDI 01
751.881;000.203;77;000.578;MIDI 01
752.075;000.034;48;000.539;MIDI 01
751.893;000.222;72;000.539;MIDI 01
752.083;000.041;36;000.492;MIDI 01
752.259;000.028;54;000.516;MIDI 01
752.257;000.036;42;000.555;MIDI 01
752.274;000.053;72;000.375;MIDI 01
752.251;000.077;68;000.586;MIDI 01
752.249;000.106;80;000.547;MIDI 01
752.247;000.118;75;000.562;MIDI 01
752.398;000.035;48;000.656;MIDI 01
752.403;000.032;36;000.586;MIDI 01
752.424;000.041;42;000.305;MIDI 01
752.433;000.055;37;000.250;MIDI 01
752.548;000.025;55;000.641;MIDI 01
752.532;000.097;79;000.625;MIDI 01
752.540;000.093;67;000.602;MIDI 01
752.589;000.050;43;000.281;MIDI 01
752.606;000.066;41;000.219;MIDI 01
752.546;000.133;72;000.469;MIDI 01
752.538;000.166;75;000.562;MIDI 01
752.689;000.033;55;000.070;MIDI 01
752.700;000.027;47;000.531;MIDI 01
752.716;000.046;36;000.375;MIDI 01
752.774;000.057;37;000.016;MIDI 01
752.831;000.026;56;000.688;MIDI 01
752.829;000.035;44;000.672;MIDI 01
752.837;000.062;72;000.516;MIDI 01
752.848;000.054;75;000.500;MIDI 01
752.890;000.019;46;000.023;MIDI 01
752.826;000.096;66;000.633;MIDI 01
752.828;000.119;78;000.617;MIDI 01
752.913;000.044;49;000.094;MIDI 01
752.954;000.026;56;000.156;MIDI 01
752.979;000.023;47;000.578;MIDI 01
752.968;000.039;36;000.664;MIDI 01
752.993;000.034;37;000.383;MIDI 01
753.013;000.058;39;000.219;MIDI 01
753.112;000.033;57;000.789;MIDI 01
753.151;000.002;46;000.359;MIDI 01
753.128;000.041;75;000.547;MIDI 01
753.145;000.034;43;000.531;MIDI 01
753.136;000.045;72;000.516;MIDI 01
753.122;000.072;65;000.594;MIDI 01
753.154;000.042;51;000.297;MIDI 01
753.167;000.050;45;000.227;MIDI 01
753.118;000.127;77;000.633;MIDI 01
753.267;000.026;36;000.578;MIDI 01
753.265;000.030;48;000.711;MIDI 01
753.399;000.025;58;000.852;MIDI 01
753.403;000.032;46;000.719;MIDI 01
753.408;000.038;36;000.094;MIDI 01
753.407;000.041;70;000.531;MIDI 01
753.393;000.080;74;000.594;MIDI 01
753.401;000.075;65;000.625;MIDI 01
753.442;000.055;48;000.062;MIDI 01
753.395;000.107;77;000.656;MIDI 01
753.567;000.002;47;000.484;MIDI 01
753.543;000.032;36;000.672;MIDI 01
753.573;000.002;37;000.398;MIDI 01
753.571;000.022;48;000.477;MIDI 01
753.601;000.060;39;000.180;MIDI 01
753.669;000.047;36;000.219;MIDI 01
753.696;000.023;59;000.734;MIDI 01
753.726;000.001;49;000.367;MIDI 01
753.685;000.044;48;000.633;MIDI 01
753.692;000.065;68;000.578;MIDI 01
753.679;000.111;73;000.570;MIDI 01
753.688;000.105;65;000.617;MIDI 01
753.694;000.109;77;000.656;MIDI 01
753.825;000.031;36;000.672;MIDI 01
753.841;000.033;48;000.562;MIDI 01
753.839;000.065;59;000.039;MIDI 01
753.874;000.038;38;000.359;MIDI 01
753.981;000.039;68;000.516;MIDI 01
753.983;000.043;60;000.758;MIDI 01
754.003;000.030;74;000.375;MIDI 01
753.976;000.059;48;000.586;MIDI 01
753.971;000.067;72;000.516;MIDI 01
753.974;000.072;65;000.633;MIDI 01
753.978;000.106;77;000.609;MIDI 01
754.127;000.026;52;000.805;MIDI 01
754.134;000.024;50;000.633;MIDI 01
754.132;000.029;38;000.602;MIDI 01
754.135;000.030;39;000.656;MIDI 01
754.140;000.035;40;000.539;MIDI 01
754.148;000.029;44;000.477;MIDI 01
754.270;000.025;61;000.875;MIDI 01
754.282;000.019;63;000.594;MIDI 01
754.257;000.047;52;000.164;MIDI 01
754.277;000.031;51;000.680;MIDI 01
754.280;000.039;50;000.352;MIDI 01
754.273;000.056;49;000.719;MIDI 01
754.260;000.071;65;000.648;MIDI 01
754.254;000.110;68;000.547;MIDI 01
754.263;000.106;71;000.625;MIDI 01
754.424;000.030;36;000.734;MIDI 01
754.429;000.027;48;000.789;MIDI 01
754.464;000.002;37;000.375;MIDI 01
754.438;000.049;61;000.047;MIDI 01
754.265;000.226;77;000.594;MIDI 01
754.544;000.029;36;000.258;MIDI 01
754.609;000.002;51;000.555;MIDI 01
754.589;000.024;62;000.859;MIDI 01
754.592;000.023;60;000.750;MIDI 01
754.586;000.031;50;000.766;MIDI 01
754.622;000.002;56;000.445;MIDI 01
755.030;000.031;30;000.672;MIDI 01
755.033;000.032;25;000.664;MIDI 01
755.105;000.002;64;000.133;MIDI 01
755.074;000.053;27;000.281;MIDI 01
755.011;000.208;36;000.836;MIDI 01
755.014;000.214;24;000.836;MIDI 01
755.321;000.082;36;000.781;MIDI 01
755.326;000.091;24;000.609;MIDI 01
755.357;000.061;30;000.297;MIDI 01
755.492;000.052;36;000.664;MIDI 01
755.008;000.544;65;000.688;MIDI 01
755.504;000.052;24;000.508;MIDI 01
755.002;000.575;72;000.711;MIDI 01
755.006;000.579;60;000.727;MIDI 01
755.009;000.609;68;000.711;MIDI 01
755.629;000.047;36;000.719;MIDI 01
755.634;000.066;24;000.617;MIDI 01
755.674;000.056;30;000.023;MIDI 01
755.775;000.058;37;000.688;MIDI 01
755.779;000.147;59;000.695;MIDI 01
755.780;000.173;71;000.648;MIDI 01
755.930;000.046;35;000.648;MIDI 01
755.940;000.043;23;000.531;MIDI 01
755.948;000.035;24;000.555;MIDI 01
755.777;000.226;65;000.586;MIDI 01
755.770;000.245;68;000.648;MIDI 01
755.782;000.239;25;000.633;MIDI 01
756.091;000.044;38;000.680;MIDI 01
756.102;000.046;26;000.609;MIDI 01
756.248;000.050;36;000.633;MIDI 01
756.263;000.041;24;000.555;MIDI 01
756.277;000.057;30;000.203;MIDI 01
756.108;000.314;65;000.453;MIDI 01
756.093;000.345;58;000.695;MIDI 01
756.393;000.053;36;000.609;MIDI 01
756.096;000.355;68;000.594;MIDI 01
756.418;000.040;24;000.547;MIDI 01
756.094;000.476;70;000.688;MIDI 01
756.554;000.031;24;000.562;MIDI 01
756.536;000.056;36;000.633;MIDI 01
756.594;000.006;27;000.023;MIDI 01
756.585;000.051;30;000.250;MIDI 01
756.700;000.042;63;000.516;MIDI 01
756.693;000.053;39;000.648;MIDI 01
756.698;000.064;58;000.594;MIDI 01
756.704;000.081;67;000.562;MIDI 01
756.702;000.102;27;000.531;MIDI 01
756.697;000.122;70;000.617;MIDI 01
756.847;000.034;36;000.664;MIDI 01
756.839;000.051;24;000.562;MIDI 01
756.999;000.027;40;000.680;MIDI 01
757.005;000.037;28;000.539;MIDI 01
757.169;000.028;36;000.609;MIDI 01
757.168;000.034;24;000.570;MIDI 01
756.995;000.293;70;000.664;MIDI 01
756.997;000.298;61;000.578;MIDI 01
756.990;000.307;67;000.570;MIDI 01
756.994;000.314;58;000.641;MIDI 01
757.295;000.047;36;000.570;MIDI 01
757.303;000.048;24;000.586;MIDI 01
757.450;000.044;36;000.594;MIDI 01
757.455;000.043;24;000.523;MIDI 01
757.639;000.034;41;000.469;MIDI 01
757.646;000.041;29;000.422;MIDI 01
757.630;000.120;69;000.477;MIDI 01
757.622;000.145;57;000.430;MIDI 01
757.624;000.169;65;000.469;MIDI 01
757.783;000.038;24;000.555;MIDI 01
757.791;000.032;36;000.578;MIDI 01
757.632;000.197;60;000.438;MIDI 01
757.934;000.031;42;000.633;MIDI 01
757.939;000.042;30;000.445;MIDI 01
757.951;000.097;56;000.539;MIDI 01
757.948;000.128;60;000.383;MIDI 01
757.945;000.136;68;000.586;MIDI 01
757.942;000.154;63;000.570;MIDI 01
758.096;000.033;36;000.547;MIDI 01
758.093;000.039;24;000.555;MIDI 01
758.106;000.054;23;000.375;MIDI 01
758.118;000.049;35;000.273;MIDI 01
758.236;000.038;43;000.664;MIDI 01
758.278;000.049;29;000.367;MIDI 01
758.229;000.100;55;000.617;MIDI 01
758.226;000.115;67;000.648;MIDI 01
758.327;000.054;37;000.023;MIDI 01
758.241;000.165;60;000.539;MIDI 01
758.381;000.036;24;000.555;MIDI 01
758.385;000.036;36;000.594;MIDI 01
758.234;000.193;63;000.594;MIDI 01
758.392;000.043;25;000.508;MIDI 01
758.529;000.029;44;000.758;MIDI 01
758.527;000.041;32;000.625;MIDI 01
758.540;000.053;60;000.484;MIDI 01
758.608;000.010;37;000.023;MIDI 01
758.518;000.103;54;000.648;MIDI 01
758.573;000.057;34;000.211;MIDI 01
758.520;000.117;63;000.523;MIDI 01
758.516;000.125;66;000.641;MIDI 01
758.710;000.002;35;000.375;MIDI 01
758.678;000.039;24;000.672;MIDI 01
758.692;000.034;36;000.531;MIDI 01
758.824;000.029;45;000.758;MIDI 01
758.828;000.041;33;000.664;MIDI 01
758.832;000.045;60;000.508;MIDI 01
758.816;000.094;63;000.586;MIDI 01
758.881;000.065;34;000.109;MIDI 01
758.827;000.121;53;000.648;MIDI 01
758.830;000.141;65;000.617;MIDI 01
758.980;000.035;36;000.531;MIDI 01
758.990;000.033;24;000.477;MIDI 01
758.987;000.048;23;000.477;MIDI 01
758.993;000.047;35;000.383;MIDI 01
759.002;000.052;25;000.359;MIDI 01
759.119;000.034;34;000.539;MIDI 01
759.122;000.035;46;000.641;MIDI 01
759.161;000.002;48;000.359;MIDI 01
759.116;000.048;58;000.570;MIDI 01
759.142;000.036;37;000.430;MIDI 01
759.139;000.045;35;000.586;MIDI 01
759.157;000.042;47;000.336;MIDI 01
759.111;000.116;53;000.625;MIDI 01
759.108;000.149;65;000.688;MIDI 01
759.114;000.181;62;000.586;MIDI 01
759.263;000.041;24;000.680;MIDI 01
759.270;000.040;36;000.656;MIDI 01
759.322;000.002;28;000.148;MIDI 01
759.295;000.046;25;000.312;MIDI 01
759.413;000.040;47;000.781;MIDI 01
759.419;000.049;35;000.438;MIDI 01
759.466;000.002;45;000.055;MIDI 01
759.420;000.055;33;000.625;MIDI 01
759.417;000.096;53;000.625;MIDI 01
759.423;000.098;56;000.641;MIDI 01
759.408;000.121;61;000.641;MIDI 01
759.415;000.129;65;000.641;MIDI 01
759.495;000.059;36;000.070;MIDI 01
759.561;000.046;24;000.766;MIDI 01
759.574;000.035;36;000.617;MIDI 01
759.614;000.002;35;000.273;MIDI 01
759.589;000.048;25;000.531;MIDI 01
759.721;000.043;48;000.789;MIDI 01
759.743;000.041;62;000.383;MIDI 01
759.726;000.059;36;000.578;MIDI 01
759.712;000.096;53;000.680;MIDI 01
759.718;000.095;60;000.602;MIDI 01
759.772;000.058;37;000.297;MIDI 01
759.723;000.109;56;000.586;MIDI 01
759.774;000.060;42;000.281;MIDI 01
759.710;000.149;65;000.664;MIDI 01
759.884;000.031;35;000.617;MIDI 01
759.924;000.003;25;000.312;MIDI 01
759.900;000.047;23;000.523;MIDI 01
759.907;000.042;27;000.453;MIDI 01
759.992;000.071;65;000.352;MIDI 01
760.082;000.002;48;000.539;MIDI 01
760.060;000.024;49;000.922;MIDI 01
759.987;000.110;53;000.469;MIDI 01
760.056;000.047;37;000.773;MIDI 01
760.089;000.033;39;000.445;MIDI 01
759.980;000.144;56;000.523;MIDI 01
759.994;000.148;59;000.469;MIDI 01
760.067;000.076;65;000.062;MIDI 01
760.115;000.049;36;000.211;MIDI 01
760.149;000.017;49;000.375;MIDI 01
760.267;000.023;49;000.180;MIDI 01
760.567;000.002;25;000.656;MIDI 01
760.549;000.020;26;000.898;MIDI 01
760.552;000.020;24;000.758;MIDI 01
760.576;000.002;27;000.336;MIDI 01
760.547;000.031;36;000.844;MIDI 01
760.600;000.002;28;000.234;MIDI 01
760.984;000.060;53;000.656;MIDI 01
761.031;000.052;64;000.227;MIDI 01
760.991;000.105;56;000.562;MIDI 01
760.989;000.118;58;000.602;MIDI 01
760.986;000.125;61;000.641;MIDI 01
760.974;000.180;65;000.625;MIDI 01
761.292;000.038;39;000.734;MIDI 01
761.333;000.002;51;000.336;MIDI 01
761.285;000.143;56;000.508;MIDI 01
761.276;000.175;53;000.602;MIDI 01
761.286;000.177;61;000.508;MIDI 01
761.274;000.197;58;000.555;MIDI 01
761.269;000.208;65;000.484;MIDI 01
761.626;000.067;53;000.469;MIDI 01
761.621;000.082;56;000.422;MIDI 01
761.627;000.084;58;000.508;MIDI 01
761.635;000.085;61;000.375;MIDI 01
761.623;000.105;65;000.484;MIDI 01
761.845;000.058;53;000.461;MIDI 01
761.874;000.033;58;000.414;MIDI 01
761.859;000.058;61;000.445;MIDI 01
761.890;000.033;56;000.289;MIDI 01
761.833;000.094;65;000.477;MIDI 01
761.282;000.727;49;000.844;MIDI 01
762.025;000.034;53;000.523;MIDI 01
762.020;000.066;56;000.508;MIDI 01
761.288;000.821;37;000.766;MIDI 01
762.022;000.090;65;000.469;MIDI 01
762.032;000.080;58;000.406;MIDI 01
762.030;000.104;61;000.492;MIDI 01
762.212;000.246;48;000.695;MIDI 01
762.220;000.252;36;000.609;MIDI 01
762.441;000.104;56;000.547;MIDI 01
762.430;000.127;68;000.555;MIDI 01
762.446;000.141;61;000.469;MIDI 01
762.443;000.147;65;000.539;MIDI 01
762.697;000.056;42;000.289;MIDI 01
762.681;000.096;56;000.539;MIDI 01
762.670;000.109;68;000.555;MIDI 01
762.672;000.153;65;000.414;MIDI 01
762.691;000.211;61;000.328;MIDI 01
762.943;000.057;68;000.469;MIDI 01
762.930;000.071;56;000.578;MIDI 01
762.940;000.080;65;000.414;MIDI 01
762.927;000.095;61;000.336;MIDI 01
762.639;000.478;47;000.812;MIDI 01
763.135;000.044;56;000.523;MIDI 01
763.141;000.047;65;000.391;MIDI 01
763.156;000.036;61;000.344;MIDI 01
763.126;000.076;68;000.484;MIDI 01
763.282;000.179;56;000.445;MIDI 01
763.294;000.179;68;000.422;MIDI 01
763.314;000.210;61;000.469;MIDI 01
762.643;000.909;35;000.656;MIDI 01
763.307;000.355;65;000.414;MIDI 01
763.466;000.271;46;000.680;MIDI 01
763.692;000.047;58;000.461;MIDI 01
763.709;000.043;61;000.398;MIDI 01
763.678;000.083;70;000.508;MIDI 01
763.690;000.101;68;000.438;MIDI 01
763.681;000.111;65;000.266;MIDI 01
763.872;000.046;58;000.539;MIDI 01
763.876;000.051;61;000.469;MIDI 01
763.476;000.471;34;000.547;MIDI 01
763.882;000.067;45;000.625;MIDI 01
763.899;000.051;65;000.289;MIDI 01
763.910;000.042;70;000.344;MIDI 01
763.897;000.057;68;000.344;MIDI 01
764.027;000.034;58;000.539;MIDI 01
764.041;000.035;61;000.461;MIDI 01
764.061;000.034;70;000.398;MIDI 01
764.059;000.039;65;000.375;MIDI 01
764.158;000.038;58;000.547;MIDI 01
763.891;000.308;33;000.547;MIDI 01
764.169;000.033;61;000.547;MIDI 01
764.208;000.035;65;000.352;MIDI 01
764.156;000.096;44;000.688;MIDI 01
764.094;000.200;68;000.164;MIDI 01
764.285;000.053;58;000.469;MIDI 01
764.283;000.071;61;000.547;MIDI 01
764.316;000.061;68;000.312;MIDI 01
764.358;000.040;65;000.227;MIDI 01
764.160;000.244;32;000.602;MIDI 01
764.420;000.104;43;000.711;MIDI 01
764.422;000.138;31;000.594;MIDI 01
764.506;000.064;37;000.070;MIDI 01
764.548;000.044;61;000.570;MIDI 01
764.541;000.060;65;000.406;MIDI 01
764.559;000.049;68;000.438;MIDI 01
764.544;000.067;73;000.594;MIDI 01
764.575;000.043;70;000.391;MIDI 01
764.691;000.039;61;000.594;MIDI 01
764.701;000.043;73;000.477;MIDI 01
764.714;000.039;65;000.469;MIDI 01
764.693;000.061;68;000.562;MIDI 01
764.729;000.028;70;000.438;MIDI 01
764.681;000.080;42;000.703;MIDI 01
764.748;000.036;32;000.117;MIDI 01
764.751;000.056;34;000.156;MIDI 01
764.811;000.047;61;000.602;MIDI 01
764.688;000.181;30;000.680;MIDI 01
764.833;000.037;65;000.594;MIDI 01
764.828;000.045;73;000.531;MIDI 01
764.826;000.058;68;000.508;MIDI 01
764.876;000.032;70;000.352;MIDI 01
764.957;000.040;61;000.641;MIDI 01
764.955;000.044;73;000.570;MIDI 01
764.959;000.052;65;000.516;MIDI 01
764.969;000.045;68;000.562;MIDI 01
764.938;000.092;41;000.711;MIDI 01
764.997;000.034;70;000.406;MIDI 01
764.995;000.047;34;000.211;MIDI 01
764.942;000.105;29;000.641;MIDI 01
765.104;000.052;65;000.539;MIDI 01
765.080;000.081;61;000.625;MIDI 01
765.126;000.051;70;000.500;MIDI 01
765.085;000.101;68;000.539;MIDI 01
765.101;000.102;73;000.523;MIDI 01
765.222;000.056;40;000.812;MIDI 01
765.224;000.066;28;000.695;MIDI 01
765.439;000.050;64;000.570;MIDI 01
765.447;000.052;68;000.539;MIDI 01
765.452;000.050;70;000.547;MIDI 01
765.461;000.053;73;000.484;MIDI 01
765.441;000.086;76;000.539;MIDI 01
765.691;000.002;48;000.398;MIDI 01
765.678;000.053;68;000.516;MIDI 01
765.666;000.072;64;000.641;MIDI 01
765.681;000.070;70;000.523;MIDI 01
765.683;000.070;73;000.484;MIDI 01
765.679;000.076;76;000.555;MIDI 01
765.701;000.057;39;000.344;MIDI 01
765.888;000.045;64;000.555;MIDI 01
765.903;000.036;68;000.445;MIDI 01
765.900;000.044;70;000.523;MIDI 01
765.905;000.045;76;000.516;MIDI 01
765.907;000.046;73;000.477;MIDI 01
766.054;000.039;64;000.555;MIDI 01
766.058;000.042;70;000.531;MIDI 01
766.044;000.060;68;000.430;MIDI 01
766.066;000.041;73;000.484;MIDI 01
766.053;000.062;76;000.570;MIDI 01
765.655;000.512;37;000.758;MIDI 01
765.657;000.516;49;000.844;MIDI 01
766.200;000.028;64;000.562;MIDI 01
766.202;000.054;70;000.555;MIDI 01
766.228;000.035;68;000.383;MIDI 01
766.205;000.061;73;000.438;MIDI 01
766.203;000.070;76;000.578;MIDI 01
766.378;000.049;42;000.352;MIDI 01
766.331;000.099;48;000.727;MIDI 01
766.329;000.124;36;000.609;MIDI 01
766.492;000.040;68;000.648;MIDI 01
766.470;000.065;75;000.102;MIDI 01
766.501;000.044;73;000.586;MIDI 01
766.495;000.078;80;000.625;MIDI 01
766.508;000.085;76;000.562;MIDI 01
766.688;000.002;37;000.430;MIDI 01
766.678;000.044;68;000.648;MIDI 01
766.683;000.044;73;000.500;MIDI 01
766.685;000.067;80;000.625;MIDI 01
766.673;000.094;76;000.570;MIDI 01
766.839;000.036;68;000.539;MIDI 01
766.849;000.035;73;000.484;MIDI 01
766.854;000.042;80;000.516;MIDI 01
766.841;000.067;76;000.469;MIDI 01
766.651;000.304;47;000.797;MIDI 01
766.978;000.036;68;000.578;MIDI 01
766.984;000.032;73;000.539;MIDI 01
766.982;000.044;80;000.531;MIDI 01
766.980;000.052;76;000.469;MIDI 01
767.095;000.086;68;000.531;MIDI 01
767.109;000.074;73;000.531;MIDI 01
766.656;000.546;35;000.664;MIDI 01
767.111;000.097;80;000.602;MIDI 01
767.116;000.117;76;000.516;MIDI 01
767.222;000.104;46;000.742;MIDI 01
767.366;000.036;73;000.570;MIDI 01
767.374;000.032;82;000.516;MIDI 01
767.370;000.039;70;000.531;MIDI 01
767.372;000.045;76;000.492;MIDI 01
767.380;000.040;80;000.453;MIDI 01
767.493;000.039;70;000.625;MIDI 01
767.490;000.045;73;000.531;MIDI 01
767.514;000.037;76;000.539;MIDI 01
767.500;000.052;82;000.508;MIDI 01
767.520;000.035;80;000.469;MIDI 01
767.487;000.079;45;000.672;MIDI 01
767.228;000.344;34;000.656;MIDI 01
767.495;000.085;33;000.602;MIDI 01
767.625;000.038;70;000.602;MIDI 01
767.647;000.023;82;000.430;MIDI 01
767.645;000.033;73;000.555;MIDI 01
767.630;000.055;76;000.547;MIDI 01
767.661;000.026;80;000.438;MIDI 01
767.757;000.026;73;000.594;MIDI 01
767.721;000.066;44;000.766;MIDI 01
767.749;000.041;70;000.633;MIDI 01
767.763;000.036;82;000.555;MIDI 01
767.760;000.040;76;000.539;MIDI 01
767.723;000.081;32;000.703;MIDI 01
767.811;000.069;80;000.289;MIDI 01
767.868;000.031;70;000.664;MIDI 01
767.866;000.048;73;000.484;MIDI 01
767.876;000.046;82;000.562;MIDI 01
767.873;000.053;76;000.609;MIDI 01
767.899;000.034;80;000.383;MIDI 01
767.964;000.074;43;000.781;MIDI 01
768.002;000.038;32;000.375;MIDI 01
768.005;000.045;37;000.359;MIDI 01
767.970;000.105;31;000.703;MIDI 01
768.095;000.026;73;000.672;MIDI 01
768.105;000.024;76;000.492;MIDI 01
768.099;000.032;80;000.477;MIDI 01
768.097;000.036;85;000.641;MIDI 01
768.141;000.057;82;000.164;MIDI 01
768.222;000.025;76;000.648;MIDI 01
768.219;000.030;80;000.633;MIDI 01
768.207;000.048;73;000.438;MIDI 01
768.211;000.054;85;000.609;MIDI 01
768.240;000.037;82;000.273;MIDI 01
768.217;000.081;42;000.812;MIDI 01
768.215;000.134;30;000.750;MIDI 01
768.342;000.025;73;000.727;MIDI 01
768.332;000.039;80;000.602;MIDI 01
768.330;000.043;76;000.555;MIDI 01
768.344;000.038;85;000.625;MIDI 01
768.399;000.043;82;000.227;MIDI 01
768.469;000.026;80;000.680;MIDI 01
768.467;000.032;85;000.672;MIDI 01
768.449;000.051;73;000.258;MIDI 01
768.474;000.028;76;000.633;MIDI 01
768.442;000.079;41;000.750;MIDI 01
768.446;000.100;29;000.672;MIDI 01
768.499;000.051;34;000.195;MIDI 01
768.581;000.034;73;000.727;MIDI 01
768.575;000.059;76;000.672;MIDI 01
768.572;000.069;80;000.555;MIDI 01
768.591;000.062;82;000.258;MIDI 01
768.576;000.092;85;000.664;MIDI 01
768.674;000.050;40;000.844;MIDI 01
768.723;000.002;30;000.359;MIDI 01
768.672;000.054;28;000.805;MIDI 01
768.876;000.027;76;000.648;MIDI 01
768.867;000.045;80;000.680;MIDI 01
768.885;000.028;88;000.570;MIDI 01
768.869;000.059;82;000.453;MIDI 01
768.911;000.034;85;000.336;MIDI 01
769.022;000.026;79;000.656;MIDI 01
769.020;000.029;82;000.594;MIDI 01
769.013;000.041;88;000.617;MIDI 01
769.005;000.050;76;000.453;MIDI 01
769.059;000.002;80;000.195;MIDI 01
769.048;000.025;85;000.477;MIDI 01
769.026;000.059;39;000.508;MIDI 01
769.138;000.024;76;000.766;MIDI 01
769.130;000.034;79;000.570;MIDI 01
769.132;000.034;82;000.648;MIDI 01
769.142;000.032;88;000.656;MIDI 01
769.174;000.023;85;000.414;MIDI 01
769.252;000.027;76;000.695;MIDI 01
769.256;000.027;79;000.719;MIDI 01
769.265;000.028;88;000.633;MIDI 01
769.268;000.027;82;000.586;MIDI 01
769.002;000.299;49;000.984;MIDI 01
769.000;000.345;37;000.758;MIDI 01
769.362;000.039;76;000.781;MIDI 01
769.365;000.046;82;000.648;MIDI 01
769.360;000.054;79;000.617;MIDI 01
769.369;000.054;85;000.172;MIDI 01
769.367;000.058;88;000.703;MIDI 01
769.509;000.035;42;000.539;MIDI 01
769.481;000.085;48;000.773;MIDI 01
769.483;000.101;36;000.641;MIDI 01
769.623;000.020;79;000.680;MIDI 01
769.625;000.020;82;000.664;MIDI 01
769.631;000.018;91;000.625;MIDI 01
769.629;000.028;85;000.617;MIDI 01
769.643;000.023;88;000.414;MIDI 01
769.673;000.002;89;000.289;MIDI 01
769.729;000.038;82;000.562;MIDI 01
769.733;000.039;79;000.664;MIDI 01
769.749;000.026;88;000.617;MIDI 01
769.735;000.044;91;000.719;MIDI 01
769.731;000.053;85;000.633;MIDI 01
769.859;000.025;82;000.703;MIDI 01
769.853;000.038;79;000.734;MIDI 01
769.855;000.038;85;000.664;MIDI 01
769.861;000.033;88;000.617;MIDI 01
769.857;000.044;91;000.727;MIDI 01
769.700;000.215;47;000.828;MIDI 01
769.701;000.299;35;000.703;MIDI 01
769.972;000.033;79;000.766;MIDI 01
769.976;000.034;82;000.555;MIDI 01
769.978;000.034;85;000.648;MIDI 01
769.974;000.041;91;000.672;MIDI 01
769.998;000.024;89;000.492;MIDI 01
770.000;000.023;88;000.492;MIDI 01
770.082;000.032;91;000.703;MIDI 01
770.080;000.041;79;000.727;MIDI 01
770.077;000.065;82;000.695;MIDI 01
770.075;000.079;85;000.703;MIDI 01
770.130;000.026;88;000.391;MIDI 01
770.221;000.048;38;000.328;MIDI 01
770.175;000.143;46;000.836;MIDI 01
770.317;000.022;82;000.727;MIDI 01
770.324;000.028;88;000.484;MIDI 01
770.334;000.020;85;000.539;MIDI 01
770.322;000.043;94;000.680;MIDI 01
770.344;000.027;91;000.438;MIDI 01
770.347;000.033;92;000.414;MIDI 01
770.177;000.212;34;000.695;MIDI 01
770.427;000.037;94;000.641;MIDI 01
770.425;000.042;82;000.398;MIDI 01
770.431;000.038;85;000.719;MIDI 01
770.473;000.001;87;000.312;MIDI 01
770.438;000.036;88;000.695;MIDI 01
770.465;000.021;91;000.516;MIDI 01
770.433;000.059;45;000.805;MIDI 01
770.440;000.073;33;000.648;MIDI 01
770.485;000.061;39;000.164;MIDI 01
770.556;000.021;82;000.703;MIDI 01
770.554;000.028;85;000.680;MIDI 01
770.559;000.027;88;000.680;MIDI 01
770.561;000.033;94;000.617;MIDI 01
770.577;000.022;91;000.508;MIDI 01
770.658;000.026;44;000.820;MIDI 01
770.666;000.029;82;000.617;MIDI 01
770.673;000.036;85;000.562;MIDI 01
770.656;000.056;32;000.766;MIDI 01
770.670;000.050;94;000.586;MIDI 01
770.668;000.054;88;000.656;MIDI 01
770.708;000.031;91;000.344;MIDI 01
770.778;000.036;85;000.672;MIDI 01
770.773;000.045;82;000.711;MIDI 01
770.774;000.059;88;000.688;MIDI 01
770.896;000.033;32;000.672;MIDI 01
770.880;000.093;43;000.859;MIDI 01
770.883;000.120;31;000.734;MIDI 01
771.007;000.020;83;000.719;MIDI 01
771.014;000.023;92;000.617;MIDI 01
771.019;000.020;95;000.570;MIDI 01
771.021;000.020;86;000.531;MIDI 01
771.027;000.020;96;000.500;MIDI 01
771.058;000.002;90;000.164;MIDI 01
771.070;000.002;84;000.180;MIDI 01
771.123;000.023;86;000.727;MIDI 01
771.125;000.032;92;000.609;MIDI 01
771.117;000.043;83;000.656;MIDI 01
771.122;000.040;95;000.719;MIDI 01
771.182;000.046;34;000.219;MIDI 01
771.129;000.101;42;000.898;MIDI 01
771.243;000.020;83;000.711;MIDI 01
771.239;000.026;86;000.719;MIDI 01
771.241;000.029;92;000.594;MIDI 01
771.246;000.026;95;000.680;MIDI 01
771.270;000.040;96;000.320;MIDI 01
771.356;000.031;95;000.680;MIDI 01
771.360;000.029;92;000.688;MIDI 01
771.352;000.042;86;000.703;MIDI 01
771.354;000.045;83;000.727;MIDI 01
771.419;000.037;32;000.172;MIDI 01
771.348;000.120;41;000.688;MIDI 01
771.350;000.134;29;000.609;MIDI 01
771.473;000.026;95;000.734;MIDI 01
771.468;000.036;83;000.656;MIDI 01
771.489;000.023;88;000.523;MIDI 01
771.466;000.050;86;000.672;MIDI 01
771.472;000.047;92;000.555;MIDI 01
771.373;000.153;34;000.453;MIDI 01
771.127;000.406;30;000.812;MIDI 01
771.525;000.044;93;000.242;MIDI 01
771.605;000.002;89;000.562;MIDI 01
771.593;000.020;91;000.719;MIDI 01
771.577;000.043;28;000.711;MIDI 01
771.583;000.037;88;000.797;MIDI 01
771.587;000.035;94;000.758;MIDI 01
771.585;000.040;84;000.758;MIDI 01
771.580;000.057;40;000.852;MIDI 01
771.590;000.053;96;000.836;MIDI 01
771.700;000.002;91;000.273;MIDI 01
771.781;000.042;94;000.438;MIDI 01
771.936;000.014;92;000.641;MIDI 01
771.924;000.032;91;000.672;MIDI 01
771.915;000.054;85;000.797;MIDI 01
771.917;000.053;97;000.797;MIDI 01
771.975;000.002;51;000.289;MIDI 01
771.932;000.045;61;000.758;MIDI 01
771.913;000.069;94;000.781;MIDI 01
771.930;000.058;58;000.719;MIDI 01
771.928;000.064;52;000.664;MIDI 01
771.934;000.059;55;000.734;MIDI 01
772.173;000.042;63;000.336;MIDI 01
772.376;000.039;76;000.820;MIDI 01
772.382;000.034;79;000.656;MIDI 01
772.378;000.042;85;000.766;MIDI 01
772.390;000.038;73;000.812;MIDI 01
772.408;000.025;65;000.539;MIDI 01
772.380;000.055;82;000.742;MIDI 01
772.392;000.048;64;000.672;MIDI 01
772.398;000.044;67;000.711;MIDI 01
772.395;000.049;70;000.766;MIDI 01
772.388;000.066;68;000.508;MIDI 01
772.707;000.062;56;000.039;MIDI 01
772.883;000.002;66;000.383;MIDI 01
772.846;000.203;61;000.797;MIDI 01
772.844;000.220;52;000.719;MIDI 01
772.910;000.161;53;000.289;MIDI 01
772.833;000.254;58;000.719;MIDI 01
772.835;000.254;64;000.812;MIDI 01
772.842;000.250;55;000.672;MIDI 01
772.831;000.269;73;000.820;MIDI 01
772.837;000.276;67;000.656;MIDI 01
772.840;000.276;70;000.727;MIDI 01
774.125;000.042;61;000.898;MIDI 01
774.151;000.462;49;000.664;MIDI 01
774.934;000.002;66;000.242;MIDI 01
774.927;000.032;67;000.391;MIDI 01
774.874;000.689;57;000.781;MIDI 01
774.876;000.817;61;000.672;MIDI 01
774.879;000.861;54;000.680;MIDI 01
774.644;001.184;42;000.656;MIDI 01
774.766;001.246;49;000.641;MIDI 01
776.524;000.103;52;000.609;MIDI 01
776.516;001.027;61;000.523;MIDI 01
776.518;001.064;41;000.570;MIDI 01
774.868;002.895;69;000.766;MIDI 01
776.514;001.399;53;000.648;MIDI 01
776.534;001.422;49;000.484;MIDI 01
776.521;001.543;57;000.484;MIDI 01
777.720;000.925;68;000.719;MIDI 01
778.466;000.561;52;000.656;MIDI 01
778.288;000.753;49;000.648;MIDI 01
778.026;001.041;40;000.656;MIDI 01
778.590;000.700;58;000.680;MIDI 01
778.696;000.672;61;000.656;MIDI 01
781.597;000.597;67;000.531;MIDI 01
778.797;003.419;68;000.742;MIDI 01
782.093;000.405;66;000.539;MIDI 01
782.401;000.316;67;000.570;MIDI 01
782.636;000.371;68;000.578;MIDI 01
782.860;000.633;69;000.656;MIDI 01
783.569;000.274;70;000.562;MIDI 01
783.801;000.239;69;000.602;MIDI 01
783.227;000.908;72;000.555;MIDI 01
784.004;000.233;70;000.602;MIDI 01
784.205;000.326;71;000.594;MIDI 01
784.392;000.250;72;000.570;MIDI 01
784.590;000.385;75;000.570;MIDI 01
784.802;000.234;73;000.586;MIDI 01
784.992;000.317;72;000.570;MIDI 01
785.195;000.242;73;000.547;MIDI 01
785.397;000.205;76;000.609;MIDI 01
785.586;000.232;77;000.602;MIDI 01
786.002;000.264;79;000.648;MIDI 01
785.795;000.670;80;000.648;MIDI 01
786.201;000.287;78;000.656;MIDI 01
786.402;000.300;79;000.664;MIDI 01
786.614;000.496;80;000.625;MIDI 01
786.829;000.565;81;000.617;MIDI 01
787.324;000.327;82;000.680;MIDI 01
787.570;000.330;81;000.672;MIDI 01
787.082;000.929;84;000.617;MIDI 01
787.822;000.478;82;000.656;MIDI 01
788.105;000.551;83;000.656;MIDI 01
788.467;000.919;84;000.672;MIDI 01
790.913;001.355;85;000.469;MIDI 01
789.167;003.118;87;000.680;MIDI 01
791.441;000.854;82;000.445;MIDI 01
791.941;000.448;80;000.414;MIDI 01
792.284;000.511;79;000.453;MIDI 01
792.584;000.579;78;000.445;MIDI 01
792.876;000.309;77;000.453;MIDI 01
793.155;000.414;76;000.422;MIDI 01
793.454;000.445;75;000.430;MIDI 01
793.759;000.413;73;000.398;MIDI 01
794.098;000.399;70;000.391;MIDI 01
794.443;000.395;68;000.383;MIDI 01
794.851;000.653;67;000.359;MIDI 01
795.555;000.401;65;000.398;MIDI 01
795.192;000.780;66;000.359;MIDI 01
795.930;000.538;64;000.305;MIDI 01
796.317;000.593;63;000.336;MIDI 01
796.765;000.711;61;000.312;MIDI 01
797.264;000.778;58;000.281;MIDI 01
797.804;001.246;56;000.312;MIDI 01
798.602;001.112;54;000.305;MIDI 01
799.427;001.204;55;000.172;MIDI 01
800.223;001.396;56;000.258;MIDI 01
801.339;001.871;57;000.250;MIDI 01
802.986;001.891;58;000.141;MIDI 01
807.871;001.218;57;000.180;MIDI 01
808.910;001.285;58;000.148;MIDI 01
810.032;002.164;59;000.164;MIDI 01
811.880;002.668;60;000.273;MIDI 01
814.211;002.967;61;000.227;MIDI 01
822.265;000.914;58;000.172;MIDI 01
822.257;000.956;62;000.234;MIDI 01
823.039;000.821;65;000.320;MIDI 01
823.030;000.860;57;000.266;MIDI 01
823.775;000.823;52;000.242;MIDI 01
823.760;000.844;67;000.367;MIDI 01
824.507;000.891;69;000.414;MIDI 01
824.526;000.882;53;000.273;MIDI 01
823.050;002.667;60;000.203;MIDI 01
825.309;000.409;50;000.234;MIDI 01
825.649;000.114;55;000.344;MIDI 01
825.281;000.483;65;000.305;MIDI 01
825.266;001.007;70;000.406;MIDI 01
826.212;000.447;57;000.211;MIDI 01
826.166;000.527;65;000.328;MIDI 01
826.194;000.506;60;000.312;MIDI 01
826.191;000.658;45;000.320;MIDI 01
827.182;000.458;48;000.273;MIDI 01
827.201;000.576;55;000.172;MIDI 01
827.173;000.607;64;000.273;MIDI 01
826.169;001.617;72;000.422;MIDI 01
827.180;000.608;60;000.203;MIDI 01
827.611;000.206;70;000.367;MIDI 01
828.418;002.744;41;000.211;MIDI 01
828.389;002.786;53;000.180;MIDI 01
828.390;002.828;60;000.234;MIDI 01
828.378;002.897;69;000.336;MIDI 01
828.353;002.942;65;000.227;MIDI 01
831.769;000.311;58;000.266;MIDI 01
831.765;000.414;65;000.289;MIDI 01
831.804;000.378;62;000.156;MIDI 01
831.780;000.421;46;000.148;MIDI 01
832.145;000.450;57;000.320;MIDI 01
831.741;000.868;74;000.406;MIDI 01
832.597;000.421;64;000.328;MIDI 01
832.597;000.825;55;000.320;MIDI 01
832.557;000.875;48;000.297;MIDI 01
832.557;000.947;72;000.445;MIDI 01
833.367;000.377;50;000.297;MIDI 01
833.395;000.361;53;000.281;MIDI 01
833.371;000.466;62;000.305;MIDI 01
833.743;000.127;55;000.336;MIDI 01
833.751;000.480;52;000.328;MIDI 01
833.362;000.881;70;000.430;MIDI 01
834.174;000.514;60;000.305;MIDI 01
834.172;000.526;57;000.297;MIDI 01
834.185;000.926;53;000.281;MIDI 01
834.152;000.981;69;000.414;MIDI 01
835.018;000.485;55;000.273;MIDI 01
835.029;000.540;62;000.297;MIDI 01
835.045;000.593;46;000.289;MIDI 01
835.480;000.239;53;000.312;MIDI 01
835.000;001.190;70;000.445;MIDI 01
836.141;000.387;67;000.453;MIDI 01
836.538;000.111;69;000.398;MIDI 01
836.692;000.036;67;000.336;MIDI 01
836.737;000.061;69;000.352;MIDI 01
836.842;000.032;67;000.398;MIDI 01
836.920;000.035;69;000.305;MIDI 01
836.978;000.025;67;000.438;MIDI 01
837.062;000.072;69;000.320;MIDI 01
837.105;000.048;67;000.445;MIDI 01
837.161;000.060;69;000.258;MIDI 01
837.264;000.035;67;000.305;MIDI 01
836.064;001.269;53;000.180;MIDI 01
837.295;000.109;69;000.422;MIDI 01
837.428;000.114;69;000.305;MIDI 01
837.442;000.175;67;000.141;MIDI 01
837.566;000.074;69;000.297;MIDI 01
837.646;000.057;67;000.281;MIDI 01
837.721;000.061;69;000.352;MIDI 01
837.808;000.040;67;000.344;MIDI 01
837.862;000.077;69;000.375;MIDI 01
837.982;000.041;67;000.289;MIDI 01
838.155;000.056;67;000.359;MIDI 01
837.304;001.089;52;000.297;MIDI 01
838.259;000.136;69;000.383;MIDI 01
836.061;002.357;48;000.305;MIDI 01
838.390;000.122;67;000.344;MIDI 01
836.173;002.580;60;000.336;MIDI 01
838.569;000.245;69;000.312;MIDI 01
838.770;000.553;67;000.289;MIDI 01
839.309;002.266;41;000.203;MIDI 01
839.293;002.330;53;000.195;MIDI 01
839.262;002.409;65;000.336;MIDI 01
839.278;002.416;60;000.227;MIDI 01
842.102;000.128;57;000.516;MIDI 01
842.101;000.161;45;000.508;MIDI 01
842.095;000.307;60;000.586;MIDI 01
842.097;000.392;65;000.578;MIDI 01
842.076;000.496;72;000.734;MIDI 01
842.561;000.182;41;000.547;MIDI 01
842.703;000.091;53;000.602;MIDI 01
842.928;000.072;60;000.648;MIDI 01
842.926;000.260;65;000.664;MIDI 01
842.925;000.278;69;000.680;MIDI 01
842.914;000.348;77;000.781;MIDI 01
843.633;000.065;40;000.547;MIDI 01
843.642;000.102;52;000.633;MIDI 01
843.655;000.143;81;000.656;MIDI 01
843.966;000.045;58;000.539;MIDI 01
843.651;000.530;67;000.641;MIDI 01
843.650;000.544;79;000.609;MIDI 01
843.646;000.560;72;000.664;MIDI 01
844.147;000.094;41;000.625;MIDI 01
844.237;000.085;53;000.641;MIDI 01
844.396;000.026;53;000.211;MIDI 01
844.377;000.062;57;000.656;MIDI 01
844.370;000.406;72;000.695;MIDI 01
844.373;000.482;77;000.664;MIDI 01
844.371;000.507;69;000.719;MIDI 01
844.367;000.526;81;000.758;MIDI 01
844.824;000.122;34;000.656;MIDI 01
844.932;000.038;46;000.680;MIDI 01
845.176;000.027;80;000.422;MIDI 01
845.152;000.211;62;000.656;MIDI 01
845.154;000.231;58;000.617;MIDI 01
845.159;000.266;53;000.617;MIDI 01
845.143;000.353;74;000.641;MIDI 01
845.444;000.068;55;000.641;MIDI 01
845.146;000.410;77;000.594;MIDI 01
845.137;000.429;70;000.750;MIDI 01
845.142;000.517;82;000.695;MIDI 01
845.663;000.121;33;000.648;MIDI 01
845.777;000.048;45;000.688;MIDI 01
846.005;000.050;65;000.773;MIDI 01
846.012;000.066;57;000.641;MIDI 01
846.015;000.066;60;000.664;MIDI 01
846.021;000.546;77;000.680;MIDI 01
846.023;000.549;81;000.688;MIDI 01
846.524;000.127;36;000.617;MIDI 01
846.634;000.052;48;000.719;MIDI 01
846.820;000.024;60;000.711;MIDI 01
846.822;000.024;64;000.750;MIDI 01
846.835;000.022;53;000.602;MIDI 01
846.840;000.026;55;000.602;MIDI 01
846.019;000.899;84;000.773;MIDI 01
846.017;000.930;72;000.781;MIDI 01
846.814;000.555;79;000.664;MIDI 01
846.810;000.568;76;000.711;MIDI 01
847.392;000.203;29;000.656;MIDI 01
847.228;000.375;82;000.719;MIDI 01
847.576;000.049;41;000.734;MIDI 01
847.231;000.430;70;000.750;MIDI 01
847.924;000.022;65;000.719;MIDI 01
847.916;000.032;53;000.578;MIDI 01
847.918;000.036;57;000.633;MIDI 01
847.928;000.029;60;000.641;MIDI 01
847.954;000.033;61;000.344;MIDI 01
847.922;001.521;69;000.805;MIDI 01
847.914;001.585;81;000.828;MIDI 01
847.926;001.660;72;000.719;MIDI 01
847.920;001.703;77;000.688;MIDI 01
849.806;000.081;46;000.578;MIDI 01
849.983;000.064;62;000.688;MIDI 01
849.850;000.216;53;000.555;MIDI 01
849.920;000.148;58;000.633;MIDI 01
849.997;000.382;77;000.617;MIDI 01
849.991;000.393;86;000.719;MIDI 01
850.327;000.069;43;000.398;MIDI 01
849.993;000.411;82;000.641;MIDI 01
849.996;000.414;74;000.664;MIDI 01
850.340;000.079;55;000.617;MIDI 01
850.592;000.098;48;000.586;MIDI 01
850.757;000.080;64;000.656;MIDI 01
850.703;000.152;60;000.562;MIDI 01
850.651;000.218;55;000.609;MIDI 01
851.069;000.040;45;000.570;MIDI 01
850.753;000.369;76;000.688;MIDI 01
850.755;000.369;79;000.656;MIDI 01
850.746;000.380;84;000.734;MIDI 01
850.751;000.402;72;000.711;MIDI 01
851.080;000.077;57;000.609;MIDI 01
851.315;000.100;50;000.516;MIDI 01
851.384;000.036;54;000.320;MIDI 01
851.446;000.054;60;000.180;MIDI 01
851.473;000.038;65;000.664;MIDI 01
851.419;000.155;62;000.555;MIDI 01
851.371;000.222;58;000.602;MIDI 01
851.471;000.374;74;000.617;MIDI 01
851.810;000.037;58;000.734;MIDI 01
851.460;000.398;82;000.703;MIDI 01
851.831;000.034;46;000.516;MIDI 01
851.464;000.403;77;000.633;MIDI 01
851.466;000.416;70;000.727;MIDI 01
852.216;000.153;53;000.570;MIDI 01
852.205;000.247;65;000.664;MIDI 01
852.207;000.343;69;000.703;MIDI 01
852.214;000.396;72;000.727;MIDI 01
852.218;000.410;57;000.523;MIDI 01
852.219;000.414;60;000.539;MIDI 01
852.209;000.453;77;000.695;MIDI 01
852.201;000.464;81;000.750;MIDI 01
852.595;000.084;52;000.578;MIDI 01
852.600;000.217;64;000.688;MIDI 01
853.011;000.064;65;000.680;MIDI 01
852.901;000.178;50;000.547;MIDI 01
853.056;000.034;80;000.375;MIDI 01
852.950;000.181;58;000.453;MIDI 01
852.923;000.214;53;000.570;MIDI 01
853.009;000.156;70;000.758;MIDI 01
853.005;000.303;82;000.758;MIDI 01
853.499;000.035;46;000.680;MIDI 01
853.494;000.043;58;000.766;MIDI 01
853.021;000.670;74;000.586;MIDI 01
853.014;000.774;77;000.625;MIDI 01
853.842;000.127;48;000.680;MIDI 01
853.496;000.504;67;000.773;MIDI 01
853.957;000.047;52;000.297;MIDI 01
853.935;000.148;55;000.664;MIDI 01
854.010;000.103;60;000.633;MIDI 01
854.091;000.044;65;000.750;MIDI 01
854.097;000.094;67;000.859;MIDI 01
854.106;000.154;72;000.633;MIDI 01
854.095;000.193;77;000.656;MIDI 01
854.748;000.083;72;000.570;MIDI 01
854.740;000.111;64;000.523;MIDI 01
854.743;000.126;60;000.477;MIDI 01
854.746;000.140;67;000.570;MIDI 01
854.755;000.141;55;000.445;MIDI 01
854.735;000.516;76;000.602;MIDI 01
855.181;000.081;55;000.547;MIDI 01
855.190;000.139;58;000.523;MIDI 01
855.183;000.152;62;000.602;MIDI 01
855.185;000.209;67;000.617;MIDI 01
855.192;000.210;70;000.578;MIDI 01
855.179;000.234;74;000.602;MIDI 01
854.093;001.344;79;000.750;MIDI 01
855.724;000.094;64;000.625;MIDI 01
855.732;000.121;58;000.586;MIDI 01
855.730;000.135;55;000.523;MIDI 01
855.736;000.159;48;000.578;MIDI 01
855.726;000.236;67;000.688;MIDI 01
855.734;000.348;70;000.617;MIDI 01
855.717;000.560;79;000.711;MIDI 01
855.721;000.648;76;000.648;MIDI 01
856.244;000.183;41;000.656;MIDI 01
856.354;000.191;48;000.641;MIDI 01
856.493;000.097;53;000.609;MIDI 01
856.582;000.031;57;000.633;MIDI 01
856.419;002.103;65;000.617;MIDI 01
856.483;002.406;69;000.602;MIDI 01
856.540;002.697;72;000.562;MIDI 01
856.580;002.688;77;000.695;MIDI 01
861.251;000.483;65;000.219;MIDI 01
861.249;000.504;69;000.172;MIDI 01
861.240;000.548;77;000.320;MIDI 01
861.751;000.092;75;000.320;MIDI 01
861.206;000.798;84;000.414;MIDI 01
862.221;000.335;70;000.281;MIDI 01
862.080;000.591;74;000.336;MIDI 01
862.134;000.577;77;000.398;MIDI 01
862.242;000.506;58;000.250;MIDI 01
862.237;000.538;86;000.531;MIDI 01
862.689;000.605;69;000.320;MIDI 01
863.208;000.745;67;000.289;MIDI 01
863.241;000.732;59;000.281;MIDI 01
863.242;000.748;79;000.375;MIDI 01
863.776;000.280;77;000.250;MIDI 01
863.219;001.614;86;000.461;MIDI 01
864.751;001.755;67;000.188;MIDI 01
864.712;001.919;76;000.328;MIDI 01
864.688;002.003;79;000.391;MIDI 01
864.740;001.967;60;000.242;MIDI 01
867.424;000.271;58;000.148;MIDI 01
867.380;000.359;79;000.375;MIDI 01
867.385;000.390;76;000.312;MIDI 01
867.400;001.420;72;000.281;MIDI 01
868.795;000.100;70;000.344;MIDI 01
868.340;000.566;77;000.359;MIDI 01
868.312;000.601;84;000.500;MIDI 01
869.353;000.605;69;000.273;MIDI 01
869.921;000.197;67;000.250;MIDI 01
869.334;000.873;77;000.305;MIDI 01
869.916;000.332;75;000.281;MIDI 01
868.365;001.891;57;000.219;MIDI 01
869.316;001.700;84;000.453;MIDI 01
870.900;000.127;65;000.148;MIDI 01
870.895;001.982;58;000.234;MIDI 01
870.862;002.095;74;000.344;MIDI 01
870.831;002.735;77;000.406;MIDI 01
873.532;000.119;72;000.234;MIDI 01
873.525;000.410;65;000.242;MIDI 01
873.655;000.456;72;000.023;MIDI 01
873.544;000.589;53;000.188;MIDI 01
873.499;001.030;81;000.414;MIDI 01
873.945;000.646;64;000.336;MIDI 01
874.447;000.674;71;000.344;MIDI 01
874.459;000.969;62;000.352;MIDI 01
874.436;001.031;79;000.453;MIDI 01
874.479;001.062;55;000.297;MIDI 01
875.438;000.442;57;000.281;MIDI 01
875.460;000.472;60;000.273;MIDI 01
875.870;000.185;62;000.312;MIDI 01
875.422;000.642;69;000.344;MIDI 01
875.393;001.004;77;000.469;MIDI 01
875.874;000.538;59;000.336;MIDI 01
876.374;000.653;64;000.281;MIDI 01
876.394;000.657;67;000.289;MIDI 01
876.356;001.020;76;000.516;MIDI 01
876.371;001.071;60;000.266;MIDI 01
876.825;000.681;72;000.469;MIDI 01
877.332;000.548;62;000.336;MIDI 01
877.349;000.790;65;000.359;MIDI 01
877.834;000.334;74;000.531;MIDI 01
877.319;000.860;69;000.492;MIDI 01
877.874;000.336;60;000.320;MIDI 01
877.354;000.911;53;000.266;MIDI 01
878.616;000.866;60;000.266;MIDI 01
879.414;000.566;59;000.203;MIDI 01
879.946;000.572;57;000.188;MIDI 01
878.593;001.956;69;000.539;MIDI 01
880.510;000.366;59;000.211;MIDI 01
878.620;002.269;55;000.250;MIDI 01
878.617;002.280;65;000.367;MIDI 01
880.507;000.520;67;000.328;MIDI 01
878.599;003.054;74;000.516;MIDI 01
881.483;002.270;60;000.195;MIDI 01
881.497;002.420;55;000.172;MIDI 01
881.474;002.479;48;000.234;MIDI 01
881.442;002.526;72;000.359;MIDI 01
881.476;002.531;64;000.266;MIDI 01
881.451;002.574;67;000.305;MIDI 01
884.511;000.217;57;000.375;MIDI 01
884.514;000.326;45;000.375;MIDI 01
884.495;000.628;60;000.438;MIDI 01
885.064;000.104;53;000.547;MIDI 01
884.493;000.717;65;000.477;MIDI 01
885.068;000.151;41;000.531;MIDI 01
884.470;001.082;72;000.641;MIDI 01
885.493;000.209;38;000.508;MIDI 01
885.490;000.215;50;000.516;MIDI 01
885.895;000.123;40;000.578;MIDI 01
885.889;000.153;52;000.609;MIDI 01
885.483;000.610;62;000.516;MIDI 01
885.485;000.619;65;000.531;MIDI 01
885.462;000.649;70;000.648;MIDI 01
886.290;000.097;53;000.500;MIDI 01
886.296;000.155;41;000.492;MIDI 01
886.279;000.476;65;000.508;MIDI 01
886.653;000.105;45;000.578;MIDI 01
886.651;000.115;33;000.531;MIDI 01
886.285;000.568;60;000.484;MIDI 01
886.272;000.836;69;000.656;MIDI 01
887.064;000.188;48;000.523;MIDI 01
887.076;000.214;36;000.477;MIDI 01
887.449;000.155;46;000.609;MIDI 01
887.469;000.193;34;000.547;MIDI 01
887.052;000.645;60;000.516;MIDI 01
887.061;000.749;64;000.547;MIDI 01
887.045;000.855;67;000.641;MIDI 01
887.878;000.142;45;000.547;MIDI 01
887.886;000.168;33;000.531;MIDI 01
887.862;000.660;69;000.648;MIDI 01
887.876;000.657;65;000.586;MIDI 01
887.881;000.654;60;000.508;MIDI 01
888.325;000.257;41;000.602;MIDI 01
888.333;000.431;29;000.555;MIDI 01
889.062;000.258;34;000.430;MIDI 01
889.362;000.073;36;000.359;MIDI 01
889.503;000.034;34;000.383;MIDI 01
889.598;000.045;36;000.359;MIDI 01
889.648;000.047;34;000.438;MIDI 01
889.745;000.038;36;000.344;MIDI 01
889.807;000.047;34;000.500;MIDI 01
889.034;000.954;58;000.523;MIDI 01
889.946;000.054;34;000.500;MIDI 01
889.916;000.103;36;000.344;MIDI 01
890.040;000.094;36;000.344;MIDI 01
890.120;000.032;34;000.391;MIDI 01
890.169;000.155;36;000.305;MIDI 01
890.256;000.074;34;000.484;MIDI 01
890.447;000.205;34;000.461;MIDI 01
889.067;001.695;62;000.398;MIDI 01
890.632;000.166;31;000.539;MIDI 01
890.058;000.790;57;000.586;MIDI 01
890.793;000.088;33;000.664;MIDI 01
889.025;001.928;65;000.516;MIDI 01
889.027;001.928;67;000.586;MIDI 01
890.943;000.079;34;000.633;MIDI 01
891.082;000.308;36;000.586;MIDI 01
891.423;000.054;38;000.445;MIDI 01
891.524;000.055;36;000.391;MIDI 01
891.592;000.051;38;000.469;MIDI 01
891.696;000.046;36;000.422;MIDI 01
891.750;000.043;38;000.500;MIDI 01
891.085;000.710;55;000.633;MIDI 01
891.825;000.049;36;000.438;MIDI 01
891.901;000.045;38;000.453;MIDI 01
891.983;000.050;36;000.469;MIDI 01
892.064;000.062;38;000.438;MIDI 01
892.154;000.049;36;000.500;MIDI 01
892.250;000.039;38;000.500;MIDI 01
892.314;000.075;36;000.531;MIDI 01
892.404;000.090;38;000.422;MIDI 01
892.519;000.148;36;000.508;MIDI 01
892.649;000.131;35;000.641;MIDI 01
891.090;001.915;67;000.641;MIDI 01
892.956;000.064;36;000.664;MIDI 01
892.136;000.926;58;000.703;MIDI 01
891.102;002.015;64;000.461;MIDI 01
891.108;002.072;60;000.453;MIDI 01
893.398;000.451;29;000.523;MIDI 01
893.894;000.056;41;000.266;MIDI 01
893.518;000.491;60;000.461;MIDI 01
894.054;000.043;29;000.305;MIDI 01
894.121;000.059;41;000.312;MIDI 01
894.230;000.048;29;000.367;MIDI 01
893.508;000.803;57;000.484;MIDI 01
893.499;000.887;65;000.602;MIDI 01
894.429;000.054;29;000.328;MIDI 01
894.634;000.046;29;000.219;MIDI 01
894.701;000.049;41;000.234;MIDI 01
894.867;000.042;29;000.023;MIDI 01
894.894;000.049;41;000.359;MIDI 01
895.012;000.049;29;000.281;MIDI 01
895.085;000.052;41;000.336;MIDI 01
894.828;000.422;57;000.375;MIDI 01
895.217;000.040;29;000.367;MIDI 01
894.871;000.444;53;000.156;MIDI 01
894.821;000.533;65;000.438;MIDI 01
895.352;000.075;41;000.023;MIDI 01
895.408;000.039;29;000.273;MIDI 01
895.470;000.053;41;000.055;MIDI 01
895.565;000.048;29;000.375;MIDI 01
895.667;000.043;41;000.344;MIDI 01
895.699;000.058;64;000.359;MIDI 01
895.764;000.037;29;000.336;MIDI 01
895.849;000.051;41;000.320;MIDI 01
895.924;000.059;29;000.438;MIDI 01
895.708;000.300;55;000.375;MIDI 01
896.035;000.044;41;000.352;MIDI 01
895.717;000.373;58;000.375;MIDI 01
895.761;000.355;64;000.102;MIDI 01
896.128;000.043;29;000.406;MIDI 01
896.218;000.030;41;000.344;MIDI 01
896.303;000.045;29;000.430;MIDI 01
896.362;000.055;41;000.398;MIDI 01
896.471;000.073;29;000.414;MIDI 01
896.561;000.053;41;000.344;MIDI 01
896.514;000.216;60;000.398;MIDI 01
896.697;000.042;29;000.414;MIDI 01
896.511;000.260;57;000.367;MIDI 01
896.491;000.283;63;000.445;MIDI 01
896.764;000.048;41;000.375;MIDI 01
896.865;000.050;29;000.461;MIDI 01
896.951;000.048;41;000.344;MIDI 01
897.052;000.057;29;000.430;MIDI 01
897.131;000.047;41;000.367;MIDI 01
897.249;000.036;29;000.406;MIDI 01
897.326;000.049;41;000.312;MIDI 01
897.414;000.064;29;000.430;MIDI 01
897.229;000.323;53;000.391;MIDI 01
897.520;000.058;41;000.359;MIDI 01
897.201;000.390;62;000.594;MIDI 01
897.215;000.425;58;000.508;MIDI 01
897.626;000.039;29;000.375;MIDI 01
897.735;000.060;41;000.211;MIDI 01
897.785;000.061;29;000.445;MIDI 01
897.938;000.041;41;000.188;MIDI 01
897.987;000.054;29;000.430;MIDI 01
898.130;000.047;41;000.203;MIDI 01
898.191;000.053;29;000.414;MIDI 01
897.931;000.347;53;000.359;MIDI 01
897.895;000.384;61;000.609;MIDI 01
897.925;000.365;56;000.430;MIDI 01
898.301;000.062;41;000.109;MIDI 01
898.371;000.031;29;000.414;MIDI 01
898.477;000.050;41;000.219;MIDI 01
898.534;000.053;29;000.383;MIDI 01
898.729;000.049;29;000.414;MIDI 01
898.585;000.209;53;000.391;MIDI 01
898.582;000.247;55;000.453;MIDI 01
898.550;000.291;60;000.602;MIDI 01
898.850;000.052;41;000.023;MIDI 01
898.919;000.064;29;000.414;MIDI 01
899.060;000.048;41;000.297;MIDI 01
899.128;000.068;29;000.445;MIDI 01
899.243;000.043;41;000.367;MIDI 01
899.335;000.059;29;000.445;MIDI 01
899.189;000.215;52;000.453;MIDI 01
899.167;000.283;58;000.500;MIDI 01
899.229;000.228;55;000.180;MIDI 01
899.418;000.055;41;000.398;MIDI 01
899.534;000.041;29;000.461;MIDI 01
899.615;000.046;41;000.383;MIDI 01
899.715;000.073;29;000.383;MIDI 01
899.809;000.064;41;000.312;MIDI 01
899.793;000.110;53;000.508;MIDI 01
899.157;000.791;60;000.602;MIDI 01
899.775;000.200;57;000.578;MIDI 01
899.935;000.057;29;000.461;MIDI 01
900.018;000.051;41;000.398;MIDI 01
900.128;000.072;29;000.477;MIDI 01
900.210;000.070;41;000.391;MIDI 01
900.345;000.060;29;000.484;MIDI 01
900.448;000.047;41;000.359;MIDI 01
900.342;000.175;77;000.625;MIDI 01
900.365;000.159;65;000.461;MIDI 01
900.355;000.176;69;000.531;MIDI 01
900.545;000.048;29;000.461;MIDI 01
900.644;000.058;41;000.344;MIDI 01
900.753;000.059;29;000.445;MIDI 01
900.844;000.061;41;000.430;MIDI 01
900.889;000.117;64;000.531;MIDI 01
900.882;000.154;67;000.578;MIDI 01
900.974;000.076;29;000.430;MIDI 01
900.869;000.214;76;000.688;MIDI 01
900.893;000.231;70;000.516;MIDI 01
901.072;000.067;41;000.406;MIDI 01
901.193;000.055;29;000.516;MIDI 01
901.292;000.041;41;000.422;MIDI 01
901.378;000.075;29;000.492;MIDI 01
901.420;000.049;69;000.234;MIDI 01
901.380;000.121;72;000.594;MIDI 01
901.388;000.121;63;000.562;MIDI 01
901.453;000.071;41;000.414;MIDI 01
901.374;000.177;75;000.664;MIDI 01
901.580;000.067;29;000.539;MIDI 01
901.677;000.047;41;000.445;MIDI 01
901.772;000.071;29;000.539;MIDI 01
901.825;000.043;62;000.625;MIDI 01
901.833;000.047;65;000.594;MIDI 01
901.850;000.062;41;000.453;MIDI 01
901.827;000.105;70;000.641;MIDI 01
901.821;000.119;74;000.672;MIDI 01
901.977;000.054;29;000.508;MIDI 01
902.065;000.047;41;000.477;MIDI 01
902.150;000.070;29;000.547;MIDI 01
902.240;000.055;41;000.453;MIDI 01
902.259;000.038;65;000.523;MIDI 01
902.252;000.081;61;000.648;MIDI 01
902.244;000.108;68;000.617;MIDI 01
902.242;000.134;73;000.695;MIDI 01
902.352;000.028;29;000.477;MIDI 01
902.410;000.051;41;000.516;MIDI 01
902.499;000.095;29;000.477;MIDI 01
902.598;000.065;41;000.469;MIDI 01
902.668;000.048;65;000.594;MIDI 01
902.659;000.081;58;000.680;MIDI 01
902.693;000.089;29;000.555;MIDI 01
902.661;000.144;72;000.680;MIDI 01
902.664;000.157;67;000.602;MIDI 01
902.780;000.056;41;000.539;MIDI 01
902.864;000.100;29;000.547;MIDI 01
902.945;000.089;41;000.547;MIDI 01
903.061;000.072;64;000.609;MIDI 01
903.057;000.098;29;000.609;MIDI 01
903.050;000.111;67;000.641;MIDI 01
903.059;000.118;60;000.695;MIDI 01
903.040;000.140;72;000.680;MIDI 01
903.119;000.093;41;000.531;MIDI 01
903.241;000.093;29;000.562;MIDI 01
903.310;000.067;41;000.531;MIDI 01
903.424;000.032;60;000.719;MIDI 01
903.431;000.030;65;000.656;MIDI 01
903.435;000.028;29;000.531;MIDI 01
903.433;000.053;41;000.703;MIDI 01
903.428;000.068;69;000.672;MIDI 01
903.426;000.072;72;000.664;MIDI 01
903.805;000.095;41;000.516;MIDI 01
903.807;000.105;53;000.633;MIDI 01
903.809;000.111;77;000.648;MIDI 01
903.803;000.120;81;000.711;MIDI 01
903.801;000.124;89;000.750;MIDI 01
903.812;000.127;48;000.555;MIDI 01
904.101;000.066;48;000.609;MIDI 01
904.110;000.064;76;000.680;MIDI 01
904.106;000.070;43;000.602;MIDI 01
904.104;000.077;88;000.750;MIDI 01
904.102;000.117;55;000.672;MIDI 01
904.112;000.108;82;000.680;MIDI 01
904.399;000.056;75;000.703;MIDI 01
904.404;000.064;57;000.664;MIDI 01
904.401;000.069;84;000.656;MIDI 01
904.392;000.080;87;000.727;MIDI 01
904.402;000.089;45;000.586;MIDI 01
904.406;000.139;53;000.555;MIDI 01
904.704;000.034;53;000.633;MIDI 01
904.699;000.053;86;000.750;MIDI 01
904.706;000.048;82;000.688;MIDI 01
904.702;000.054;74;000.781;MIDI 01
904.701;000.057;58;000.703;MIDI 01
904.708;000.054;46;000.602;MIDI 01
905.021;000.050;73;000.656;MIDI 01
905.010;000.069;77;000.547;MIDI 01
905.019;000.080;61;000.641;MIDI 01
905.008;000.092;85;000.672;MIDI 01
905.023;000.090;49;000.586;MIDI 01
905.014;000.131;56;000.312;MIDI 01
905.279;000.061;72;000.680;MIDI 01
905.286;000.065;78;000.664;MIDI 01
905.294;000.059;56;000.586;MIDI 01
905.275;000.080;84;000.711;MIDI 01
905.284;000.078;63;000.633;MIDI 01
905.282;000.093;51;000.602;MIDI 01
905.547;000.054;71;000.680;MIDI 01
905.545;000.070;53;000.586;MIDI 01
905.541;000.079;83;000.734;MIDI 01
905.539;000.084;65;000.680;MIDI 01
905.549;000.090;80;000.734;MIDI 01
905.551;000.132;61;000.625;MIDI 01
905.804;000.036;66;000.633;MIDI 01
905.808;000.042;61;000.609;MIDI 01
905.822;000.030;78;000.617;MIDI 01
905.824;000.032;70;000.727;MIDI 01
905.820;000.066;54;000.570;MIDI 01
905.818;000.074;82;000.664;MIDI 01
906.094;000.041;73;000.633;MIDI 01
906.084;000.077;69;000.688;MIDI 01
906.080;000.083;81;000.695;MIDI 01
906.078;000.108;57;000.633;MIDI 01
906.087;000.111;45;000.586;MIDI 01
906.090;000.124;52;000.539;MIDI 01
906.365;000.032;47;000.500;MIDI 01
906.369;000.034;45;000.438;MIDI 01
906.345;000.070;52;000.602;MIDI 01
906.343;000.074;59;000.688;MIDI 01
906.350;000.109;68;000.695;MIDI 01
906.352;000.109;74;000.602;MIDI 01
906.347;000.129;80;000.766;MIDI 01
906.635;000.071;67;000.734;MIDI 01
906.628;000.096;79;000.711;MIDI 01
906.651;000.078;61;000.641;MIDI 01
906.710;000.045;48;000.328;MIDI 01
906.630;000.153;76;000.656;MIDI 01
906.535;000.253;56;000.453;MIDI 01
906.665;000.156;49;000.445;MIDI 01
907.005;000.037;62;000.562;MIDI 01
906.984;000.073;66;000.781;MIDI 01
906.986;000.073;74;000.633;MIDI 01
907.019;000.046;50;000.523;MIDI 01
906.981;000.102;78;000.773;MIDI 01
907.424;000.016;71;000.570;MIDI 01
907.420;000.022;65;000.523;MIDI 01
907.425;000.020;67;000.523;MIDI 01
907.417;000.031;69;000.586;MIDI 01
907.408;000.047;79;000.664;MIDI 01
907.422;000.047;77;000.633;MIDI 01
907.413;000.072;48;000.562;MIDI 01
907.403;000.105;53;000.633;MIDI 01
907.406;000.115;41;000.594;MIDI 01
907.761;000.055;48;000.609;MIDI 01
907.757;000.065;64;000.727;MIDI 01
907.750;000.082;55;000.719;MIDI 01
907.755;000.093;43;000.602;MIDI 01
907.752;000.100;76;000.719;MIDI 01
907.759;000.106;70;000.688;MIDI 01
908.101;000.122;45;000.555;MIDI 01
908.147;000.112;57;000.727;MIDI 01
908.158;000.111;63;000.781;MIDI 01
908.160;000.114;72;000.641;MIDI 01
908.128;000.166;53;000.664;MIDI 01
908.151;000.149;75;000.742;MIDI 01
908.703;000.046;56;000.453;MIDI 01
908.672;000.355;70;000.719;MIDI 01
908.666;000.401;65;000.727;MIDI 01
908.660;000.408;58;000.828;MIDI 01
908.573;000.684;46;000.555;MIDI 01
908.664;000.664;62;000.828;MIDI 01
908.668;000.685;74;000.734;MIDI 01
908.604;000.802;50;000.523;MIDI 01
908.631;000.800;53;000.516;MIDI 01
909.361;000.072;71;000.086;MIDI 01
909.289;000.154;57;000.781;MIDI 01
909.280;000.214;69;000.781;MIDI 01
909.803;000.290;67;000.688;MIDI 01
909.804;000.344;55;000.766;MIDI 01
910.285;000.034;53;000.641;MIDI 01
909.806;000.531;47;000.703;MIDI 01
909.814;000.527;50;000.633;MIDI 01
909.796;000.913;74;000.758;MIDI 01
910.314;000.414;65;000.656;MIDI 01
909.801;000.954;62;000.703;MIDI 01
910.653;000.214;36;000.695;MIDI 01
910.819;000.092;41;000.508;MIDI 01
910.823;000.128;43;000.586;MIDI 01
910.935;000.121;48;000.633;MIDI 01
911.026;000.052;52;000.758;MIDI 01
911.094;000.035;65;000.320;MIDI 01
911.047;002.760;55;000.750;MIDI 01
911.049;002.973;60;000.664;MIDI 01
911.050;003.092;64;000.688;MIDI 01
911.045;003.114;67;000.719;MIDI 01
914.551;000.238;64;000.562;MIDI 01
914.544;000.252;60;000.578;MIDI 01
914.534;000.306;67;000.727;MIDI 01
914.557;000.333;46;000.562;MIDI 01
914.546;000.393;55;000.617;MIDI 01
914.541;000.429;52;000.602;MIDI 01
915.270;000.530;65;000.625;MIDI 01
915.188;000.862;53;000.641;MIDI 01
915.132;001.019;48;000.609;MIDI 01
915.943;000.257;55;000.711;MIDI 01
915.255;000.964;72;000.805;MIDI 01
915.268;000.988;60;000.625;MIDI 01
915.934;000.377;67;000.641;MIDI 01
915.126;001.232;45;000.547;MIDI 01
916.592;000.400;65;000.648;MIDI 01
916.533;000.554;53;000.617;MIDI 01
916.535;000.777;45;000.562;MIDI 01
916.541;000.781;48;000.523;MIDI 01
917.281;000.058;51;000.680;MIDI 01
916.573;001.265;72;000.750;MIDI 01
916.590;001.302;60;000.641;MIDI 01
917.293;000.603;63;000.625;MIDI 01
917.701;000.252;34;000.664;MIDI 01
917.903;000.226;41;000.633;MIDI 01
918.058;000.139;46;000.633;MIDI 01
918.179;000.033;50;000.695;MIDI 01
918.210;003.012;53;000.773;MIDI 01
918.212;003.047;58;000.695;MIDI 01
918.206;003.056;62;000.656;MIDI 01
918.208;003.067;65;000.750;MIDI 01
922.242;000.340;62;000.719;MIDI 01
922.244;000.390;31;000.680;MIDI 01
922.249;000.394;64;000.609;MIDI 01
922.245;000.430;43;000.727;MIDI 01
922.234;000.492;70;000.797;MIDI 01
922.924;000.168;33;000.633;MIDI 01
922.919;000.201;45;000.758;MIDI 01
922.909;000.225;69;000.758;MIDI 01
922.921;000.221;61;000.734;MIDI 01
922.926;000.222;64;000.555;MIDI 01
923.479;000.244;57;000.664;MIDI 01
923.471;000.258;67;000.742;MIDI 01
923.485;000.254;37;000.656;MIDI 01
923.483;000.259;49;000.734;MIDI 01
923.481;000.286;64;000.680;MIDI 01
924.005;000.233;50;000.688;MIDI 01
924.009;000.252;38;000.602;MIDI 01
924.011;000.284;57;000.734;MIDI 01
924.014;000.327;62;000.648;MIDI 01
924.003;000.339;65;000.750;MIDI 01
924.718;000.318;34;000.570;MIDI 01
924.705;000.389;55;000.695;MIDI 01
924.700;000.398;67;000.797;MIDI 01
924.703;000.430;46;000.719;MIDI 01
924.714;000.471;62;000.641;MIDI 01
924.711;000.497;43;000.562;MIDI 01
925.633;000.758;43;000.555;MIDI 01
925.696;000.756;55;000.750;MIDI 01
926.624;000.139;57;000.648;MIDI 01
926.617;000.156;45;000.609;MIDI 01
925.647;001.394;48;000.625;MIDI 01
925.714;001.340;60;000.570;MIDI 01
926.995;000.107;58;000.750;MIDI 01
925.698;001.410;64;000.766;MIDI 01
925.614;001.500;36;000.523;MIDI 01
926.999;000.116;46;000.680;MIDI 01
927.410;001.035;52;000.750;MIDI 01
927.419;001.324;45;000.703;MIDI 01
927.423;001.440;48;000.719;MIDI 01
927.425;001.490;57;000.594;MIDI 01
929.173;000.348;55;000.711;MIDI 01
929.186;000.356;43;000.656;MIDI 01
929.564;000.046;57;000.445;MIDI 01
929.557;000.077;45;000.453;MIDI 01
929.676;000.027;55;000.414;MIDI 01
929.686;000.053;43;000.445;MIDI 01
929.728;000.038;57;000.422;MIDI 01
929.779;000.036;45;000.469;MIDI 01
929.794;000.026;55;000.523;MIDI 01
929.856;000.039;57;000.492;MIDI 01
929.862;000.048;43;000.453;MIDI 01
929.910;000.041;55;000.555;MIDI 01
929.940;000.046;45;000.438;MIDI 01
929.977;000.036;57;000.492;MIDI 01
930.014;000.049;43;000.477;MIDI 01
930.042;000.040;55;000.523;MIDI 01
930.087;000.041;57;000.547;MIDI 01
930.102;000.042;45;000.500;MIDI 01
930.168;000.035;55;000.492;MIDI 01
930.164;000.048;43;000.453;MIDI 01
930.216;000.023;57;000.469;MIDI 01
930.260;000.028;45;000.484;MIDI 01
930.276;000.040;55;000.500;MIDI 01
930.327;000.030;57;000.477;MIDI 01
930.321;000.043;43;000.484;MIDI 01
930.390;000.046;45;000.492;MIDI 01
930.459;000.030;57;000.477;MIDI 01
930.462;000.042;43;000.484;MIDI 01
930.542;000.044;45;000.516;MIDI 01
930.606;000.027;57;000.336;MIDI 01
930.600;000.043;43;000.492;MIDI 01
930.642;000.045;55;000.523;MIDI 01
930.698;000.031;45;000.430;MIDI 01
930.723;000.034;57;000.375;MIDI 01
930.740;000.045;43;000.469;MIDI 01
930.784;000.028;55;000.445;MIDI 01
930.833;000.040;45;000.438;MIDI 01
930.893;000.025;55;000.516;MIDI 01
930.876;000.047;43;000.469;MIDI 01
930.848;000.081;57;000.289;MIDI 01
930.954;000.036;45;000.414;MIDI 01
930.950;000.043;57;000.258;MIDI 01
931.015;000.038;55;000.477;MIDI 01
931.056;000.045;57;000.477;MIDI 01
931.023;000.080;43;000.484;MIDI 01
931.167;000.040;55;000.352;MIDI 01
931.115;000.095;45;000.398;MIDI 01
931.203;000.045;57;000.484;MIDI 01
931.227;000.129;43;000.570;MIDI 01
931.241;000.142;55;000.594;MIDI 01
927.421;003.967;40;000.594;MIDI 01
927.427;003.964;36;000.570;MIDI 01
927.416;003.999;60;000.625;MIDI 01
927.406;004.054;64;000.734;MIDI 01
931.642;000.125;65;000.703;MIDI 01
931.640;000.128;53;000.672;MIDI 01
931.667;000.113;41;000.562;MIDI 01
931.644;000.140;57;000.562;MIDI 01
931.650;000.144;60;000.578;MIDI 01
931.674;000.145;29;000.469;MIDI 01
931.676;000.160;36;000.414;MIDI 01
932.296;000.002;55;000.289;MIDI 01
932.159;000.282;29;000.508;MIDI 01
932.155;000.315;41;000.586;MIDI 01
932.161;000.312;36;000.508;MIDI 01
932.736;000.044;48;000.344;MIDI 01
932.746;000.053;36;000.289;MIDI 01
933.019;000.044;45;000.406;MIDI 01
933.025;000.045;33;000.391;MIDI 01
933.299;000.039;48;000.359;MIDI 01
933.302;000.044;36;000.414;MIDI 01
933.575;000.042;41;000.438;MIDI 01
933.581;000.052;29;000.367;MIDI 01
932.251;001.615;53;000.648;MIDI 01
932.240;001.628;65;000.734;MIDI 01
932.253;001.620;57;000.617;MIDI 01
933.835;000.043;48;000.492;MIDI 01
932.255;001.629;60;000.602;MIDI 01
933.848;000.046;36;000.430;MIDI 01
934.109;000.044;45;000.492;MIDI 01
934.117;000.044;33;000.414;MIDI 01
934.125;000.155;57;000.359;MIDI 01
934.143;000.145;53;000.320;MIDI 01
934.120;000.179;60;000.391;MIDI 01
934.094;000.242;65;000.570;MIDI 01
934.362;000.043;48;000.414;MIDI 01
934.379;000.040;36;000.367;MIDI 01
934.634;000.043;41;000.453;MIDI 01
934.636;000.047;29;000.406;MIDI 01
934.639;000.158;53;000.406;MIDI 01
934.614;000.203;65;000.555;MIDI 01
934.646;000.194;58;000.391;MIDI 01
934.621;000.231;62;000.492;MIDI 01
934.881;000.031;50;000.469;MIDI 01
934.903;000.041;38;000.391;MIDI 01
935.116;000.046;55;000.492;MIDI 01
935.122;000.042;34;000.516;MIDI 01
935.126;000.040;46;000.523;MIDI 01
935.128;000.057;58;000.430;MIDI 01
935.095;000.133;62;000.438;MIDI 01
935.101;000.158;67;000.633;MIDI 01
935.367;000.029;50;000.461;MIDI 01
935.371;000.047;38;000.492;MIDI 01
935.612;000.033;41;000.539;MIDI 01
935.616;000.033;29;000.461;MIDI 01
935.606;000.144;57;000.547;MIDI 01
935.589;000.194;69;000.648;MIDI 01
935.608;000.202;62;000.516;MIDI 01
935.600;000.248;65;000.547;MIDI 01
935.831;000.033;50;000.523;MIDI 01
935.872;000.058;38;000.266;MIDI 01
936.061;000.054;58;000.672;MIDI 01
936.078;000.039;46;000.602;MIDI 01
936.082;000.046;34;000.516;MIDI 01
936.069;000.065;62;000.539;MIDI 01
936.075;000.104;65;000.523;MIDI 01
936.059;000.141;70;000.711;MIDI 01
936.310;000.033;50;000.453;MIDI 01
936.316;000.046;38;000.508;MIDI 01
936.570;000.039;41;000.547;MIDI 01
936.579;000.039;29;000.461;MIDI 01
936.818;000.028;53;000.492;MIDI 01
936.845;000.057;41;000.062;MIDI 01
937.047;000.033;48;000.461;MIDI 01
937.049;000.038;36;000.422;MIDI 01
937.291;000.043;53;000.336;MIDI 01
937.548;000.041;41;000.414;MIDI 01
936.564;001.039;65;000.531;MIDI 01
936.550;001.057;72;000.688;MIDI 01
936.557;001.057;69;000.625;MIDI 01
937.571;000.059;28;000.141;MIDI 01
936.559;001.106;60;000.633;MIDI 01
937.799;000.056;55;000.203;MIDI 01
937.805;000.052;53;000.195;MIDI 01
938.006;000.045;48;000.469;MIDI 01
938.018;000.048;36;000.359;MIDI 01
938.015;000.053;57;000.445;MIDI 01
937.992;000.128;60;000.469;MIDI 01
937.984;000.161;69;000.523;MIDI 01
937.989;000.169;65;000.523;MIDI 01
938.224;000.034;53;000.492;MIDI 01
938.240;000.045;41;000.469;MIDI 01
938.455;000.033;29;000.508;MIDI 01
938.457;000.042;41;000.484;MIDI 01
938.459;000.072;58;000.586;MIDI 01
938.469;000.071;62;000.461;MIDI 01
938.452;000.132;65;000.508;MIDI 01
938.449;000.183;70;000.641;MIDI 01
938.682;000.038;53;000.547;MIDI 01
938.685;000.071;41;000.406;MIDI 01
938.914;000.045;50;000.508;MIDI 01
938.915;000.051;38;000.492;MIDI 01
938.908;000.150;60;000.578;MIDI 01
938.906;000.201;65;000.555;MIDI 01
938.897;000.214;72;000.664;MIDI 01
939.116;000.035;53;000.492;MIDI 01
939.125;000.045;41;000.477;MIDI 01
939.346;000.038;29;000.516;MIDI 01
939.360;000.039;41;000.406;MIDI 01
939.344;000.106;65;000.594;MIDI 01
939.342;000.114;62;000.641;MIDI 01
939.348;000.149;70;000.602;MIDI 01
939.337;000.168;74;000.672;MIDI 01
939.568;000.041;53;000.570;MIDI 01
939.575;000.065;41;000.461;MIDI 01
939.788;000.035;38;000.531;MIDI 01
939.806;000.030;50;000.430;MIDI 01
939.785;000.104;64;000.641;MIDI 01
939.789;000.153;70;000.617;MIDI 01
939.775;000.169;76;000.703;MIDI 01
939.994;000.043;58;000.594;MIDI 01
940.010;000.038;46;000.500;MIDI 01
940.210;000.036;53;000.578;MIDI 01
940.221;000.038;41;000.461;MIDI 01
940.214;000.078;65;000.648;MIDI 01
940.224;000.124;70;000.570;MIDI 01
940.212;000.149;74;000.594;MIDI 01
940.206;000.157;77;000.648;MIDI 01
940.430;000.028;62;000.477;MIDI 01
940.428;000.042;58;000.523;MIDI 01
940.645;000.031;43;000.562;MIDI 01
940.656;000.029;55;000.469;MIDI 01
940.636;000.065;70;000.555;MIDI 01
940.630;000.076;67;000.609;MIDI 01
940.623;000.111;74;000.586;MIDI 01
940.625;000.146;79;000.648;MIDI 01
940.851;000.040;62;000.539;MIDI 01
940.854;000.048;58;000.539;MIDI 01
941.071;000.035;45;000.539;MIDI 01
941.067;000.043;57;000.562;MIDI 01
941.058;000.125;69;000.641;MIDI 01
941.047;000.147;81;000.648;MIDI 01
941.065;000.177;74;000.555;MIDI 01
941.060;000.200;77;000.555;MIDI 01
941.274;000.036;65;000.578;MIDI 01
941.272;000.052;62;000.594;MIDI 01
941.478;000.038;58;000.664;MIDI 01
941.471;000.053;74;000.492;MIDI 01
941.501;000.035;46;000.484;MIDI 01
941.464;000.075;70;000.688;MIDI 01
941.466;000.126;77;000.570;MIDI 01
941.467;000.128;82;000.672;MIDI 01
941.690;000.035;65;000.539;MIDI 01
941.703;000.036;62;000.500;MIDI 01
941.972;000.127;50;000.508;MIDI 01
941.967;000.150;62;000.516;MIDI 01
941.979;000.192;70;000.578;MIDI 01
941.981;000.248;77;000.516;MIDI 01
942.286;000.039;65;000.500;MIDI 01
942.298;000.045;53;000.469;MIDI 01
941.968;000.560;82;000.625;MIDI 01
942.500;000.035;48;000.539;MIDI 01
942.497;000.049;60;000.586;MIDI 01
942.469;000.108;72;000.578;MIDI 01
942.464;000.168;77;000.516;MIDI 01
942.458;000.199;84;000.625;MIDI 01
942.686;000.034;65;000.586;MIDI 01
942.694;000.046;53;000.539;MIDI 01
942.892;000.034;46;000.562;MIDI 01
942.889;000.040;58;000.594;MIDI 01
942.880;000.062;74;000.617;MIDI 01
942.882;000.095;77;000.578;MIDI 01
942.884;000.135;82;000.594;MIDI 01
942.878;000.146;86;000.695;MIDI 01
943.072;000.042;62;000.625;MIDI 01
943.081;000.054;50;000.539;MIDI 01
943.288;000.040;57;000.625;MIDI 01
943.284;000.045;45;000.617;MIDI 01
943.292;000.122;76;000.711;MIDI 01
943.290;000.156;82;000.633;MIDI 01
943.280;000.179;88;000.703;MIDI 01
943.493;000.026;62;000.539;MIDI 01
943.497;000.036;50;000.562;MIDI 01
943.516;000.028;60;000.422;MIDI 01
943.698;000.032;43;000.555;MIDI 01
943.695;000.038;55;000.641;MIDI 01
943.691;000.131;77;000.734;MIDI 01
943.685;000.176;82;000.602;MIDI 01
943.681;000.185;89;000.711;MIDI 01
943.686;000.198;86;000.656;MIDI 01
943.879;000.040;58;000.648;MIDI 01
943.885;000.049;46;000.609;MIDI 01
944.083;000.036;53;000.648;MIDI 01
944.086;000.044;41;000.625;MIDI 01
944.089;000.081;79;000.742;MIDI 01
944.081;000.113;82;000.641;MIDI 01
944.085;000.126;86;000.656;MIDI 01
944.079;000.164;91;000.750;MIDI 01
944.275;000.036;58;000.688;MIDI 01
944.277;000.045;46;000.680;MIDI 01
944.517;000.002;90;000.414;MIDI 01
944.479;000.041;40;000.680;MIDI 01
944.485;000.047;52;000.703;MIDI 01
944.503;000.082;87;000.641;MIDI 01
944.486;000.102;81;000.703;MIDI 01
944.501;000.116;86;000.477;MIDI 01
944.472;000.147;93;000.742;MIDI 01
944.482;000.178;89;000.633;MIDI 01
944.685;000.028;58;000.727;MIDI 01
944.692;000.030;46;000.719;MIDI 01
944.896;000.034;50;000.773;MIDI 01
944.894;000.039;38;000.672;MIDI 01
944.903;000.040;86;000.594;MIDI 01
944.892;000.069;82;000.719;MIDI 01
944.900;000.084;89;000.656;MIDI 01
944.898;000.114;94;000.734;MIDI 01
945.109;000.029;58;000.656;MIDI 01
945.117;000.033;46;000.672;MIDI 01
945.244;000.042;58;000.086;MIDI 01
945.456;000.050;37;000.023;MIDI 01
945.445;000.148;86;000.586;MIDI 01
945.441;000.154;89;000.602;MIDI 01
945.374;000.223;34;000.812;MIDI 01
945.370;000.239;46;000.875;MIDI 01
945.638;000.066;98;000.617;MIDI 01
945.737;000.030;89;000.508;MIDI 01
945.747;000.029;86;000.391;MIDI 01
945.866;000.026;86;000.602;MIDI 01
945.856;000.038;89;000.570;MIDI 01
945.864;000.054;36;000.562;MIDI 01
945.854;000.079;48;000.609;MIDI 01
945.929;000.031;98;000.352;MIDI 01
945.972;000.042;86;000.531;MIDI 01
945.987;000.032;89;000.594;MIDI 01
946.045;000.032;98;000.664;MIDI 01
946.073;000.060;38;000.633;MIDI 01
946.062;000.075;50;000.711;MIDI 01
946.123;000.031;86;000.594;MIDI 01
946.120;000.036;89;000.484;MIDI 01
946.171;000.033;98;000.625;MIDI 01
946.239;000.033;86;000.578;MIDI 01
946.254;000.036;89;000.516;MIDI 01
946.305;000.026;98;000.641;MIDI 01
946.278;000.070;40;000.672;MIDI 01
946.272;000.079;52;000.758;MIDI 01
946.364;000.036;86;000.641;MIDI 01
946.384;000.023;89;000.508;MIDI 01
946.435;000.035;98;000.406;MIDI 01
946.499;000.026;86;000.633;MIDI 01
946.497;000.048;41;000.664;MIDI 01
946.503;000.044;89;000.508;MIDI 01
946.487;000.061;53;000.727;MIDI 01
946.557;000.038;98;000.672;MIDI 01
946.619;000.036;86;000.547;MIDI 01
946.640;000.025;89;000.453;MIDI 01
946.696;000.032;98;000.578;MIDI 01
946.717;000.045;43;000.648;MIDI 01
946.711;000.055;55;000.734;MIDI 01
946.751;000.027;86;000.633;MIDI 01
946.757;000.054;89;000.617;MIDI 01
946.811;000.033;98;000.539;MIDI 01
946.867;000.046;86;000.562;MIDI 01
946.885;000.054;89;000.352;MIDI 01
946.927;000.041;45;000.703;MIDI 01
946.939;000.031;98;000.586;MIDI 01
946.921;000.052;57;000.727;MIDI 01
946.996;000.041;86;000.617;MIDI 01
947.010;000.054;89;000.359;MIDI 01
947.061;000.030;98;000.609;MIDI 01
947.130;000.027;86;000.633;MIDI 01
947.145;000.041;46;000.648;MIDI 01
947.148;000.040;89;000.297;MIDI 01
947.136;000.053;58;000.758;MIDI 01
947.198;000.031;98;000.594;MIDI 01
947.253;000.056;86;000.594;MIDI 01
947.291;000.038;89;000.312;MIDI 01
947.326;000.065;98;000.531;MIDI 01
947.390;000.029;58;000.656;MIDI 01
947.395;000.034;50;000.641;MIDI 01
947.380;000.059;62;000.789;MIDI 01
947.446;000.041;89;000.555;MIDI 01
947.444;000.057;86;000.656;MIDI 01
947.539;000.033;98;000.602;MIDI 01
947.641;000.024;86;000.477;MIDI 01
947.633;000.034;89;000.523;MIDI 01
947.665;000.033;52;000.570;MIDI 01
947.645;000.068;64;000.688;MIDI 01
947.657;000.057;60;000.570;MIDI 01
947.691;000.043;98;000.562;MIDI 01
947.703;000.050;59;000.227;MIDI 01
947.765;000.034;89;000.555;MIDI 01
947.761;000.040;86;000.594;MIDI 01
947.849;000.027;98;000.594;MIDI 01
947.869;000.033;62;000.641;MIDI 01
947.864;000.050;65;000.734;MIDI 01
947.882;000.033;53;000.570;MIDI 01
947.908;000.029;86;000.570;MIDI 01
947.894;000.046;89;000.555;MIDI 01
947.962;000.047;98;000.602;MIDI 01
948.038;000.035;86;000.484;MIDI 01
948.055;000.031;89;000.438;MIDI 01
948.085;000.032;55;000.648;MIDI 01
948.073;000.047;67;000.742;MIDI 01
948.071;000.051;64;000.719;MIDI 01
948.105;000.027;98;000.625;MIDI 01
948.164;000.038;86;000.602;MIDI 01
948.201;000.025;89;000.453;MIDI 01
948.226;000.039;98;000.516;MIDI 01
948.281;000.048;69;000.766;MIDI 01
948.290;000.042;57;000.656;MIDI 01
948.279;000.055;65;000.703;MIDI 01
948.310;000.026;86;000.539;MIDI 01
948.334;000.033;89;000.508;MIDI 01
948.374;000.033;98;000.539;MIDI 01
948.433;000.045;86;000.508;MIDI 01
948.496;000.027;89;000.375;MIDI 01
948.536;000.002;66;000.305;MIDI 01
948.506;000.040;98;000.508;MIDI 01
948.497;000.066;70;000.781;MIDI 01
948.505;000.075;67;000.688;MIDI 01
948.508;000.075;58;000.672;MIDI 01
948.600;000.023;86;000.492;MIDI 01
948.616;000.037;89;000.578;MIDI 01
948.758;000.002;67;000.391;MIDI 01
948.733;000.029;60;000.688;MIDI 01
948.727;000.040;72;000.773;MIDI 01
948.695;000.075;98;000.531;MIDI 01
948.726;000.051;69;000.727;MIDI 01
948.751;000.065;86;000.578;MIDI 01
948.767;000.054;89;000.633;MIDI 01
948.850;000.100;98;000.641;MIDI 01
948.923;000.035;70;000.711;MIDI 01
948.931;000.029;62;000.609;MIDI 01
948.920;000.049;74;000.758;MIDI 01
948.941;000.032;86;000.617;MIDI 01
948.938;000.060;89;000.664;MIDI 01
949.017;000.080;98;000.594;MIDI 01
949.080;000.059;86;000.625;MIDI 01
949.087;000.061;89;000.609;MIDI 01
949.168;000.102;98;000.688;MIDI 01
949.216;000.069;77;000.844;MIDI 01
949.220;000.068;65;000.625;MIDI 01
949.203;000.092;89;000.719;MIDI 01
949.202;000.095;86;000.836;MIDI 01
949.205;000.100;74;000.594;MIDI 01
950.122;000.035;55;000.852;MIDI 01
950.125;000.040;62;000.680;MIDI 01
950.120;000.047;67;000.766;MIDI 01
950.119;000.060;65;000.672;MIDI 01
950.134;000.056;34;000.789;MIDI 01
950.242;000.036;46;000.578;MIDI 01
950.323;000.032;34;000.602;MIDI 01
950.384;000.043;46;000.547;MIDI 01
950.450;000.046;34;000.617;MIDI 01
950.533;000.032;46;000.594;MIDI 01
950.601;000.034;34;000.688;MIDI 01
950.675;000.024;46;000.461;MIDI 01
950.719;000.057;34;000.594;MIDI 01
950.798;000.044;46;000.555;MIDI 01
950.871;000.051;34;000.523;MIDI 01
950.950;000.043;46;000.398;MIDI 01
951.127;000.051;62;000.703;MIDI 01
951.134;000.164;33;000.656;MIDI 01
951.329;000.047;45;000.531;MIDI 01
951.120;000.315;57;000.789;MIDI 01
951.423;000.056;33;000.555;MIDI 01
951.123;000.373;69;000.781;MIDI 01
951.490;000.049;45;000.547;MIDI 01
951.125;000.430;65;000.695;MIDI 01
951.576;000.040;33;000.617;MIDI 01
951.633;000.046;45;000.648;MIDI 01
951.708;000.032;33;000.570;MIDI 01
951.755;000.047;45;000.680;MIDI 01
951.834;000.097;33;000.484;MIDI 01
951.906;000.038;45;000.656;MIDI 01
952.125;000.204;31;000.680;MIDI 01
952.348;000.057;43;000.555;MIDI 01
952.442;000.066;31;000.602;MIDI 01
952.516;000.050;43;000.578;MIDI 01
952.597;000.053;31;000.602;MIDI 01
952.661;000.041;43;000.578;MIDI 01
952.100;000.630;58;000.789;MIDI 01
952.104;000.632;62;000.711;MIDI 01
952.102;000.649;65;000.672;MIDI 01
952.763;000.026;31;000.398;MIDI 01
952.089;000.725;70;000.773;MIDI 01
952.772;000.053;43;000.617;MIDI 01
952.867;000.107;31;000.609;MIDI 01
952.915;000.153;43;000.633;MIDI 01
953.225;000.331;29;000.703;MIDI 01
953.231;000.327;36;000.766;MIDI 01
953.601;000.048;41;000.336;MIDI 01
953.712;000.042;29;000.484;MIDI 01
953.752;000.046;36;000.141;MIDI 01
953.808;000.042;41;000.391;MIDI 01
953.884;000.039;29;000.414;MIDI 01
953.905;000.044;36;000.250;MIDI 01
953.979;000.057;41;000.383;MIDI 01
954.033;000.042;29;000.438;MIDI 01
954.059;000.051;36;000.328;MIDI 01
954.115;000.036;41;000.484;MIDI 01
954.192;000.053;29;000.430;MIDI 01
954.195;000.064;36;000.305;MIDI 01
954.242;000.053;41;000.500;MIDI 01
954.328;000.045;36;000.430;MIDI 01
954.331;000.046;29;000.438;MIDI 01
953.220;001.194;72;000.773;MIDI 01
953.218;001.203;60;000.797;MIDI 01
954.421;000.057;41;000.344;MIDI 01
954.457;000.034;29;000.453;MIDI 01
953.222;001.272;65;000.711;MIDI 01
954.460;000.042;36;000.445;MIDI 01
953.227;001.282;69;000.734;MIDI 01
954.533;000.034;41;000.438;MIDI 01
954.587;000.038;36;000.422;MIDI 01
954.600;000.030;29;000.453;MIDI 01
954.661;000.040;41;000.539;MIDI 01
954.734;000.030;29;000.469;MIDI 01
954.736;000.035;36;000.477;MIDI 01
954.797;000.036;41;000.562;MIDI 01
954.877;000.042;29;000.445;MIDI 01
954.879;000.045;36;000.461;MIDI 01
954.928;000.054;41;000.516;MIDI 01
954.959;000.049;65;000.578;MIDI 01
954.954;000.075;60;000.656;MIDI 01
955.000;000.036;36;000.422;MIDI 01
954.961;000.081;69;000.586;MIDI 01
955.006;000.043;29;000.484;MIDI 01
954.949;000.108;72;000.703;MIDI 01
955.076;000.035;41;000.523;MIDI 01
955.143;000.047;29;000.531;MIDI 01
955.127;000.065;36;000.586;MIDI 01
955.175;000.039;65;000.594;MIDI 01
955.166;000.062;60;000.703;MIDI 01
955.172;000.061;69;000.656;MIDI 01
955.168;000.089;72;000.727;MIDI 01
955.200;000.062;41;000.508;MIDI 01
955.271;000.104;36;000.500;MIDI 01
955.334;000.053;60;000.758;MIDI 01
955.353;000.042;41;000.484;MIDI 01
955.336;000.060;65;000.703;MIDI 01
955.291;000.109;29;000.547;MIDI 01
955.340;000.065;69;000.680;MIDI 01
955.332;000.079;72;000.734;MIDI 01
955.505;000.093;29;000.594;MIDI 01
955.497;000.113;36;000.711;MIDI 01
955.734;000.038;41;000.383;MIDI 01
955.830;000.035;36;000.375;MIDI 01
955.828;000.048;29;000.430;MIDI 01
955.931;000.053;41;000.281;MIDI 01
955.990;000.049;29;000.477;MIDI 01
955.979;000.073;36;000.414;MIDI 01
956.097;000.027;41;000.414;MIDI 01
956.152;000.040;29;000.492;MIDI 01
956.167;000.047;36;000.430;MIDI 01
956.218;000.060;41;000.516;MIDI 01
956.295;000.043;29;000.477;MIDI 01
956.307;000.053;36;000.383;MIDI 01
956.376;000.040;41;000.523;MIDI 01
956.438;000.036;29;000.492;MIDI 01
956.444;000.099;36;000.336;MIDI 01
956.513;000.060;41;000.516;MIDI 01
956.567;000.035;29;000.547;MIDI 01
956.565;000.058;36;000.367;MIDI 01
956.663;000.040;41;000.383;MIDI 01
956.689;000.044;29;000.484;MIDI 01
956.698;000.042;36;000.469;MIDI 01
956.777;000.050;41;000.508;MIDI 01
956.818;000.052;36;000.562;MIDI 01
956.836;000.043;29;000.516;MIDI 01
955.491;001.401;60;000.805;MIDI 01
955.493;001.429;72;000.797;MIDI 01
956.909;000.039;41;000.477;MIDI 01
955.499;001.451;65;000.703;MIDI 01
955.501;001.459;69;000.719;MIDI 01
956.981;000.026;29;000.414;MIDI 01
956.979;000.036;36;000.477;MIDI 01
957.024;000.062;41;000.531;MIDI 01
957.101;000.039;29;000.523;MIDI 01
957.105;000.040;36;000.500;MIDI 01
957.165;000.066;41;000.570;MIDI 01
957.195;000.065;60;000.680;MIDI 01
957.200;000.068;65;000.609;MIDI 01
957.237;000.036;29;000.531;MIDI 01
957.202;000.078;69;000.625;MIDI 01
957.228;000.066;36;000.586;MIDI 01
957.193;000.104;72;000.742;MIDI 01
957.321;000.062;41;000.469;MIDI 01
957.383;000.062;36;000.562;MIDI 01
957.380;000.084;29;000.461;MIDI 01
957.414;000.053;65;000.602;MIDI 01
957.405;000.067;60;000.719;MIDI 01
957.416;000.060;69;000.625;MIDI 01
957.409;000.089;72;000.719;MIDI 01
957.476;000.110;41;000.391;MIDI 01
957.586;000.076;60;000.703;MIDI 01
957.594;000.073;65;000.648;MIDI 01
957.591;000.086;72;000.703;MIDI 01
957.600;000.080;69;000.602;MIDI 01
957.554;000.143;36;000.570;MIDI 01
957.755;000.019;60;000.789;MIDI 01
957.761;000.027;65;000.734;MIDI 01
957.765;000.026;69;000.648;MIDI 01
957.576;000.217;29;000.367;MIDI 01
957.759;000.049;72;000.758;MIDI 01
957.743;000.076;41;000.766;MIDI 01
957.737;000.092;36;000.547;MIDI 01
958.322;000.027;53;000.773;MIDI 01
958.326;000.032;29;000.570;MIDI 01
958.333;000.026;57;000.688;MIDI 01
958.335;000.032;33;000.625;MIDI 01
958.328;000.042;36;000.594;MIDI 01
958.330;000.042;60;000.664;MIDI 01
958.331;000.043;41;000.727;MIDI 01
958.318;000.058;65;000.672;MIDI 01
958.368;000.039;62;000.352;MIDI 01
958.837;000.023;57;000.719;MIDI 01
958.850;000.021;60;000.688;MIDI 01
958.852;000.026;65;000.758;MIDI 01
958.848;000.032;33;000.594;MIDI 01
958.844;000.040;36;000.531;MIDI 01
958.846;000.039;41;000.672;MIDI 01
958.840;000.054;45;000.797;MIDI 01
958.842;000.054;69;000.750;MIDI 01
959.109;000.042;44;000.422;MIDI 01
959.382;000.027;60;000.758;MIDI 01
959.392;000.025;65;000.750;MIDI 01
959.384;000.036;45;000.734;MIDI 01
959.385;000.040;36;000.555;MIDI 01
959.388;000.040;41;000.594;MIDI 01
959.390;000.040;69;000.750;MIDI 01
959.380;000.054;48;000.820;MIDI 01
959.433;000.001;71;000.297;MIDI 01
959.378;000.066;72;000.758;MIDI 01
959.991;000.043;65;000.812;MIDI 01
959.998;000.047;69;000.781;MIDI 01
960.004;000.043;72;000.766;MIDI 01
959.994;000.055;53;000.812;MIDI 01
959.996;000.061;41;000.672;MIDI 01
960.000;000.060;48;000.742;MIDI 01
960.002;000.068;77;000.773;MIDI 01
960.006;000.066;45;000.750;MIDI 01
961.478;000.024;34;000.195;MIDI 01
961.492;000.060;62;000.219;MIDI 01
961.404;000.150;53;000.773;MIDI 01
961.406;000.152;57;000.758;MIDI 01
961.410;000.150;60;000.695;MIDI 01
961.408;000.154;41;000.805;MIDI 01
961.418;000.148;33;000.703;MIDI 01
961.413;000.155;29;000.695;MIDI 01
961.400;000.170;65;000.711;MIDI 01
961.415;000.157;36;000.750;MIDI 01
963.129;000.002;59;000.398;MIDI 01
963.139;000.050;62;000.188;MIDI 01
963.075;000.180;53;000.781;MIDI 01
963.082;000.191;41;000.773;MIDI 01
963.084;000.196;29;000.680;MIDI 01
963.078;000.206;57;000.742;MIDI 01
963.079;000.211;60;000.664;MIDI 01
963.071;000.228;65;000.711;MIDI 01
963.086;000.216;36;000.758;MIDI 01
963.089;000.219;33;000.711;MIDI 01
