Start;Duration;Pitch;Velocity;Instrument
001.700;000.477;47;000.164;MIDI 01
001.700;000.477;47;000.164;MIDI 01
002.099;000.296;48;000.281;MIDI 01
002.099;000.296;48;000.281;MIDI 01
002.349;000.221;49;000.312;MIDI 01
002.349;000.221;49;000.312;MIDI 01
002.577;000.250;52;000.375;MIDI 01
002.577;000.250;52;000.375;MIDI 01
002.820;000.524;53;000.328;MIDI 01
002.820;000.524;53;000.328;MIDI 01
003.243;001.878;56;000.250;MIDI 01
003.243;001.878;56;000.250;MIDI 01
005.150;000.256;54;000.211;MIDI 01
005.150;000.256;54;000.211;MIDI 01
005.404;000.176;55;000.312;MIDI 01
005.404;000.176;55;000.312;MIDI 01
005.596;000.132;56;000.461;MIDI 01
005.596;000.132;56;000.461;MIDI 01
005.751;000.173;57;000.469;MIDI 01
005.751;000.173;57;000.469;MIDI 01
005.929;000.352;58;000.438;MIDI 01
005.929;000.352;58;000.438;MIDI 01
006.271;001.540;61;000.305;MIDI 01
006.271;001.540;61;000.305;MIDI 01
007.711;000.273;59;000.297;MIDI 01
007.711;000.273;59;000.297;MIDI 01
007.969;000.189;60;000.312;MIDI 01
007.969;000.189;60;000.312;MIDI 01
008.151;000.128;61;000.445;MIDI 01
008.151;000.128;61;000.445;MIDI 01
008.328;000.120;64;000.453;MIDI 01
008.328;000.120;64;000.453;MIDI 01
008.488;000.091;65;000.438;MIDI 01
008.488;000.091;65;000.438;MIDI 01
008.762;000.277;65;000.383;MIDI 01
008.762;000.277;65;000.383;MIDI 01
008.840;000.323;58;000.250;MIDI 01
008.840;000.323;58;000.250;MIDI 01
008.784;000.392;61;000.195;MIDI 01
008.784;000.392;61;000.195;MIDI 01
009.160;000.127;48;000.328;MIDI 01
009.160;000.127;48;000.328;MIDI 01
009.623;000.244;64;000.305;MIDI 01
009.623;000.244;64;000.305;MIDI 01
008.834;001.046;68;000.359;MIDI 01
008.834;001.046;68;000.359;MIDI 01
009.886;000.117;66;000.383;MIDI 01
009.886;000.117;66;000.383;MIDI 01
009.368;000.752;58;000.344;MIDI 01
009.368;000.752;58;000.344;MIDI 01
010.044;000.105;67;000.445;MIDI 01
010.044;000.105;67;000.445;MIDI 01
009.633;000.566;61;000.312;MIDI 01
009.633;000.566;61;000.312;MIDI 01
010.166;000.074;68;000.477;MIDI 01
010.166;000.074;68;000.477;MIDI 01
010.284;000.066;69;000.484;MIDI 01
010.284;000.066;69;000.484;MIDI 01
010.381;000.098;70;000.539;MIDI 01
010.381;000.098;70;000.539;MIDI 01
010.543;000.136;58;000.391;MIDI 01
010.543;000.136;58;000.391;MIDI 01
010.694;000.093;48;000.438;MIDI 01
010.694;000.093;48;000.438;MIDI 01
010.554;000.243;65;000.383;MIDI 01
010.554;000.243;65;000.383;MIDI 01
010.541;000.258;68;000.391;MIDI 01
010.541;000.258;68;000.391;MIDI 01
010.827;000.140;58;000.508;MIDI 01
010.827;000.140;58;000.508;MIDI 01
010.531;000.444;73;000.516;MIDI 01
010.531;000.444;73;000.516;MIDI 01
010.971;000.053;64;000.453;MIDI 01
010.971;000.053;64;000.453;MIDI 01
010.956;000.123;67;000.477;MIDI 01
010.956;000.123;67;000.477;MIDI 01
011.079;000.138;71;000.547;MIDI 01
011.079;000.138;71;000.547;MIDI 01
011.198;000.116;72;000.594;MIDI 01
011.198;000.116;72;000.594;MIDI 01
011.311;000.041;73;000.570;MIDI 01
011.311;000.041;73;000.570;MIDI 01
011.379;000.103;76;000.570;MIDI 01
011.379;000.103;76;000.570;MIDI 01
011.482;000.040;77;000.633;MIDI 01
011.482;000.040;77;000.633;MIDI 01
011.609;000.061;77;000.477;MIDI 01
011.609;000.061;77;000.477;MIDI 01
011.623;000.143;70;000.570;MIDI 01
011.623;000.143;70;000.570;MIDI 01
011.607;000.185;73;000.625;MIDI 01
011.607;000.185;73;000.625;MIDI 01
011.770;000.086;60;000.578;MIDI 01
011.770;000.086;60;000.578;MIDI 01
011.887;000.098;70;000.570;MIDI 01
011.887;000.098;70;000.570;MIDI 01
011.973;000.050;73;000.633;MIDI 01
011.973;000.050;73;000.633;MIDI 01
011.992;000.104;76;000.617;MIDI 01
011.992;000.104;76;000.617;MIDI 01
011.611;000.539;80;000.594;MIDI 01
011.611;000.539;80;000.594;MIDI 01
012.107;000.082;78;000.633;MIDI 01
012.107;000.082;78;000.633;MIDI 01
012.219;000.080;79;000.641;MIDI 01
012.219;000.080;79;000.641;MIDI 01
012.308;000.070;80;000.641;MIDI 01
012.308;000.070;80;000.641;MIDI 01
012.410;000.104;81;000.688;MIDI 01
012.410;000.104;81;000.688;MIDI 01
012.501;000.084;82;000.656;MIDI 01
012.501;000.084;82;000.656;MIDI 01
012.666;000.026;79;000.453;MIDI 01
012.666;000.026;79;000.453;MIDI 01
012.626;000.139;70;000.547;MIDI 01
012.626;000.139;70;000.547;MIDI 01
012.632;000.175;77;000.641;MIDI 01
012.632;000.175;77;000.641;MIDI 01
012.776;000.089;60;000.609;MIDI 01
012.776;000.089;60;000.609;MIDI 01
012.629;000.391;85;000.648;MIDI 01
012.629;000.391;85;000.648;MIDI 01
012.892;000.146;70;000.703;MIDI 01
012.892;000.146;70;000.703;MIDI 01
013.032;000.058;76;000.633;MIDI 01
013.032;000.058;76;000.633;MIDI 01
013.050;000.092;79;000.703;MIDI 01
013.050;000.092;79;000.703;MIDI 01
013.193;000.168;83;000.703;MIDI 01
013.193;000.168;83;000.703;MIDI 01
013.319;000.137;84;000.711;MIDI 01
013.319;000.137;84;000.711;MIDI 01
013.548;000.238;77;000.641;MIDI 01
013.548;000.238;77;000.641;MIDI 01
013.562;000.260;70;000.609;MIDI 01
013.562;000.260;70;000.609;MIDI 01
013.546;000.323;80;000.641;MIDI 01
013.546;000.323;80;000.641;MIDI 01
013.828;000.192;60;000.547;MIDI 01
013.828;000.192;60;000.547;MIDI 01
014.025;000.681;70;000.656;MIDI 01
014.025;000.681;70;000.656;MIDI 01
013.544;001.179;85;000.719;MIDI 01
013.544;001.179;85;000.719;MIDI 01
014.356;000.399;76;000.492;MIDI 01
014.356;000.399;76;000.492;MIDI 01
014.326;000.502;79;000.602;MIDI 01
014.326;000.502;79;000.602;MIDI 01
014.800;000.331;84;000.625;MIDI 01
014.800;000.331;84;000.625;MIDI 01
015.140;000.150;78;000.578;MIDI 01
015.140;000.150;78;000.578;MIDI 01
015.159;000.159;69;000.391;MIDI 01
015.159;000.159;69;000.391;MIDI 01
015.155;000.177;75;000.422;MIDI 01
015.155;000.177;75;000.422;MIDI 01
015.341;000.170;77;000.578;MIDI 01
015.341;000.170;77;000.578;MIDI 01
015.135;000.392;83;000.602;MIDI 01
015.135;000.392;83;000.602;MIDI 01
015.350;000.235;74;000.500;MIDI 01
015.350;000.235;74;000.500;MIDI 01
015.365;000.232;70;000.453;MIDI 01
015.365;000.232;70;000.453;MIDI 01
015.505;000.096;82;000.586;MIDI 01
015.505;000.096;82;000.586;MIDI 01
015.654;000.115;76;000.500;MIDI 01
015.654;000.115;76;000.500;MIDI 01
015.652;000.130;67;000.406;MIDI 01
015.652;000.130;67;000.406;MIDI 01
015.639;000.156;73;000.438;MIDI 01
015.639;000.156;73;000.438;MIDI 01
015.789;000.057;72;000.578;MIDI 01
015.789;000.057;72;000.578;MIDI 01
015.779;000.154;75;000.617;MIDI 01
015.779;000.154;75;000.617;MIDI 01
015.645;000.298;81;000.586;MIDI 01
015.645;000.298;81;000.586;MIDI 01
015.919;000.084;80;000.617;MIDI 01
015.919;000.084;80;000.617;MIDI 01
015.799;000.237;68;000.555;MIDI 01
015.799;000.237;68;000.555;MIDI 01
016.074;000.140;74;000.602;MIDI 01
016.074;000.140;74;000.602;MIDI 01
016.081;000.136;65;000.414;MIDI 01
016.081;000.136;65;000.414;MIDI 01
016.078;000.154;71;000.461;MIDI 01
016.078;000.154;71;000.461;MIDI 01
016.075;000.295;79;000.570;MIDI 01
016.075;000.295;79;000.570;MIDI 01
016.228;000.233;73;000.570;MIDI 01
016.228;000.233;73;000.570;MIDI 01
016.250;000.272;66;000.430;MIDI 01
016.250;000.272;66;000.430;MIDI 01
016.262;000.302;70;000.406;MIDI 01
016.262;000.302;70;000.406;MIDI 01
016.382;000.195;78;000.570;MIDI 01
016.382;000.195;78;000.570;MIDI 01
016.564;000.152;72;000.508;MIDI 01
016.564;000.152;72;000.508;MIDI 01
016.571;000.156;63;000.391;MIDI 01
016.571;000.156;63;000.391;MIDI 01
016.575;000.177;69;000.406;MIDI 01
016.575;000.177;69;000.406;MIDI 01
016.573;000.303;77;000.469;MIDI 01
016.573;000.303;77;000.469;MIDI 01
016.765;000.194;71;000.469;MIDI 01
016.765;000.194;71;000.469;MIDI 01
016.968;000.195;76;000.492;MIDI 01
016.968;000.195;76;000.492;MIDI 01
016.774;000.401;64;000.305;MIDI 01
016.774;000.401;64;000.305;MIDI 01
016.780;000.424;68;000.359;MIDI 01
016.780;000.424;68;000.359;MIDI 01
017.174;000.149;70;000.406;MIDI 01
017.174;000.149;70;000.406;MIDI 01
017.182;000.248;67;000.336;MIDI 01
017.182;000.248;67;000.336;MIDI 01
017.185;000.264;61;000.375;MIDI 01
017.185;000.264;61;000.375;MIDI 01
017.188;000.444;75;000.414;MIDI 01
017.188;000.444;75;000.414;MIDI 01
017.695;000.232;74;000.414;MIDI 01
017.695;000.232;74;000.414;MIDI 01
017.450;000.510;62;000.344;MIDI 01
017.450;000.510;62;000.344;MIDI 01
017.422;000.587;69;000.367;MIDI 01
017.422;000.587;69;000.367;MIDI 01
017.453;000.581;66;000.328;MIDI 01
017.453;000.581;66;000.328;MIDI 01
017.975;000.425;59;000.250;MIDI 01
017.975;000.425;59;000.250;MIDI 01
017.989;000.436;68;000.320;MIDI 01
017.989;000.436;68;000.320;MIDI 01
017.977;000.499;65;000.266;MIDI 01
017.977;000.499;65;000.266;MIDI 01
017.984;000.975;73;000.336;MIDI 01
017.984;000.975;73;000.336;MIDI 01
018.405;000.665;67;000.281;MIDI 01
018.405;000.665;67;000.281;MIDI 01
018.416;000.809;64;000.273;MIDI 01
018.416;000.809;64;000.273;MIDI 01
018.407;000.824;60;000.219;MIDI 01
018.407;000.824;60;000.219;MIDI 01
018.939;000.379;71;000.297;MIDI 01
018.939;000.379;71;000.297;MIDI 01
019.265;000.314;72;000.398;MIDI 01
019.265;000.314;72;000.398;MIDI 01
019.520;000.226;73;000.445;MIDI 01
019.520;000.226;73;000.445;MIDI 01
019.725;000.260;71;000.492;MIDI 01
019.725;000.260;71;000.492;MIDI 01
019.924;000.354;72;000.523;MIDI 01
019.924;000.354;72;000.523;MIDI 01
020.261;000.408;73;000.391;MIDI 01
020.261;000.408;73;000.391;MIDI 01
020.695;000.311;71;000.320;MIDI 01
020.695;000.311;71;000.320;MIDI 01
020.984;000.136;72;000.328;MIDI 01
020.984;000.136;72;000.328;MIDI 01
021.320;000.210;72;000.352;MIDI 01
021.320;000.210;72;000.352;MIDI 01
021.459;000.091;75;000.391;MIDI 01
021.459;000.091;75;000.391;MIDI 01
020.298;001.383;67;000.242;MIDI 01
020.298;001.383;67;000.242;MIDI 01
020.307;001.478;64;000.250;MIDI 01
020.307;001.478;64;000.250;MIDI 01
020.305;001.629;58;000.172;MIDI 01
020.305;001.629;58;000.172;MIDI 01
021.578;000.869;73;000.320;MIDI 01
021.578;000.869;73;000.320;MIDI 01
022.360;001.893;71;000.258;MIDI 01
022.360;001.893;71;000.258;MIDI 01
024.124;000.228;72;000.266;MIDI 01
024.124;000.228;72;000.266;MIDI 01
025.214;000.361;76;000.242;MIDI 01
025.214;000.361;76;000.242;MIDI 01
025.218;000.479;65;000.195;MIDI 01
025.218;000.479;65;000.195;MIDI 01
024.693;001.027;56;000.219;MIDI 01
024.693;001.027;56;000.219;MIDI 01
025.546;000.289;60;000.258;MIDI 01
025.546;000.289;60;000.258;MIDI 01
024.686;001.158;72;000.281;MIDI 01
024.686;001.158;72;000.281;MIDI 01
025.529;000.407;77;000.312;MIDI 01
025.529;000.407;77;000.312;MIDI 01
025.808;000.272;75;000.336;MIDI 01
025.808;000.272;75;000.336;MIDI 01
026.096;000.180;63;000.289;MIDI 01
026.096;000.180;63;000.289;MIDI 01
026.079;000.207;69;000.367;MIDI 01
026.079;000.207;69;000.367;MIDI 01
025.828;000.691;55;000.289;MIDI 01
025.828;000.691;55;000.289;MIDI 01
026.298;000.243;70;000.414;MIDI 01
026.298;000.243;70;000.414;MIDI 01
026.306;000.242;58;000.320;MIDI 01
026.306;000.242;58;000.320;MIDI 01
026.794;000.223;61;000.336;MIDI 01
026.794;000.223;61;000.336;MIDI 01
026.992;000.135;56;000.328;MIDI 01
026.992;000.135;56;000.328;MIDI 01
026.552;000.609;53;000.258;MIDI 01
026.552;000.609;53;000.258;MIDI 01
026.550;000.818;73;000.391;MIDI 01
026.550;000.818;73;000.391;MIDI 01
027.175;000.398;52;000.336;MIDI 01
027.175;000.398;52;000.336;MIDI 01
027.394;000.192;72;000.375;MIDI 01
027.394;000.192;72;000.375;MIDI 01
027.392;000.273;60;000.320;MIDI 01
027.392;000.273;60;000.320;MIDI 01
027.605;000.159;71;000.414;MIDI 01
027.605;000.159;71;000.414;MIDI 01
027.618;000.164;55;000.289;MIDI 01
027.618;000.164;55;000.289;MIDI 01
027.996;000.103;66;000.430;MIDI 01
027.996;000.103;66;000.430;MIDI 01
027.795;000.342;51;000.375;MIDI 01
027.795;000.342;51;000.375;MIDI 01
027.790;000.363;72;000.430;MIDI 01
027.790;000.363;72;000.430;MIDI 01
028.149;000.102;65;000.312;MIDI 01
028.149;000.102;65;000.312;MIDI 01
028.009;000.286;60;000.328;MIDI 01
028.009;000.286;60;000.328;MIDI 01
028.193;000.105;57;000.352;MIDI 01
028.193;000.105;57;000.352;MIDI 01
028.327;000.041;67;000.453;MIDI 01
028.327;000.041;67;000.453;MIDI 01
028.366;000.205;65;000.508;MIDI 01
028.366;000.205;65;000.508;MIDI 01
028.340;000.396;50;000.406;MIDI 01
028.340;000.396;50;000.406;MIDI 01
028.568;000.170;64;000.461;MIDI 01
028.568;000.170;64;000.461;MIDI 01
028.557;000.254;58;000.336;MIDI 01
028.557;000.254;58;000.336;MIDI 01
028.745;000.144;53;000.367;MIDI 01
028.745;000.144;53;000.367;MIDI 01
028.742;000.182;65;000.484;MIDI 01
028.742;000.182;65;000.484;MIDI 01
029.119;000.102;64;000.406;MIDI 01
029.119;000.102;64;000.406;MIDI 01
028.919;000.344;49;000.383;MIDI 01
028.919;000.344;49;000.383;MIDI 01
028.934;000.335;68;000.469;MIDI 01
028.934;000.335;68;000.469;MIDI 01
029.101;000.226;59;000.375;MIDI 01
029.101;000.226;59;000.375;MIDI 01
029.301;000.100;53;000.328;MIDI 01
029.301;000.100;53;000.328;MIDI 01
029.275;000.142;65;000.453;MIDI 01
029.275;000.142;65;000.453;MIDI 01
029.446;000.185;67;000.516;MIDI 01
029.446;000.185;67;000.516;MIDI 01
029.622;000.103;60;000.430;MIDI 01
029.622;000.103;60;000.430;MIDI 01
029.624;000.164;71;000.484;MIDI 01
029.624;000.164;71;000.484;MIDI 01
029.466;000.351;48;000.391;MIDI 01
029.466;000.351;48;000.391;MIDI 01
029.810;000.168;52;000.445;MIDI 01
029.810;000.168;52;000.445;MIDI 01
029.783;000.221;72;000.547;MIDI 01
029.783;000.221;72;000.547;MIDI 01
029.976;000.069;46;000.477;MIDI 01
029.976;000.069;46;000.477;MIDI 01
029.974;000.220;73;000.539;MIDI 01
029.974;000.220;73;000.539;MIDI 01
030.201;000.076;60;000.414;MIDI 01
030.201;000.076;60;000.414;MIDI 01
030.181;000.179;71;000.500;MIDI 01
030.181;000.179;71;000.500;MIDI 01
030.375;000.075;72;000.539;MIDI 01
030.375;000.075;72;000.539;MIDI 01
030.372;000.118;52;000.406;MIDI 01
030.372;000.118;52;000.406;MIDI 01
030.617;000.122;44;000.414;MIDI 01
030.617;000.122;44;000.414;MIDI 01
030.620;000.320;72;000.445;MIDI 01
030.620;000.320;72;000.445;MIDI 01
030.919;000.065;60;000.352;MIDI 01
030.919;000.065;60;000.352;MIDI 01
030.899;000.159;76;000.469;MIDI 01
030.899;000.159;76;000.469;MIDI 01
031.087;000.035;56;000.414;MIDI 01
031.087;000.035;56;000.414;MIDI 01
031.076;000.191;77;000.523;MIDI 01
031.076;000.191;77;000.523;MIDI 01
031.262;000.056;43;000.516;MIDI 01
031.262;000.056;43;000.516;MIDI 01
031.099;000.303;65;000.406;MIDI 01
031.099;000.303;65;000.406;MIDI 01
031.267;000.182;75;000.531;MIDI 01
031.267;000.182;75;000.531;MIDI 01
031.467;000.062;58;000.398;MIDI 01
031.467;000.062;58;000.398;MIDI 01
031.448;000.143;69;000.531;MIDI 01
031.448;000.143;69;000.531;MIDI 01
031.599;000.027;55;000.461;MIDI 01
031.599;000.027;55;000.461;MIDI 01
031.614;000.110;63;000.422;MIDI 01
031.614;000.110;63;000.422;MIDI 01
031.603;000.174;70;000.523;MIDI 01
031.603;000.174;70;000.523;MIDI 01
031.803;000.060;41;000.516;MIDI 01
031.803;000.060;41;000.516;MIDI 01
032.000;000.086;56;000.461;MIDI 01
032.000;000.086;56;000.461;MIDI 01
032.154;000.035;53;000.367;MIDI 01
032.154;000.035;53;000.367;MIDI 01
032.147;000.125;61;000.398;MIDI 01
032.147;000.125;61;000.398;MIDI 01
032.359;000.036;40;000.438;MIDI 01
032.359;000.036;40;000.438;MIDI 01
031.786;000.789;73;000.523;MIDI 01
031.786;000.789;73;000.523;MIDI 01
032.549;000.060;55;000.438;MIDI 01
032.549;000.060;55;000.438;MIDI 01
032.553;000.189;72;000.508;MIDI 01
032.553;000.189;72;000.508;MIDI 01
032.737;000.030;60;000.414;MIDI 01
032.737;000.030;60;000.414;MIDI 01
032.746;000.214;71;000.516;MIDI 01
032.746;000.214;71;000.516;MIDI 01
032.960;000.047;39;000.461;MIDI 01
032.960;000.047;39;000.461;MIDI 01
033.237;000.060;57;000.383;MIDI 01
033.237;000.060;57;000.383;MIDI 01
033.223;000.198;66;000.414;MIDI 01
033.223;000.198;66;000.414;MIDI 01
033.444;000.031;60;000.414;MIDI 01
033.444;000.031;60;000.414;MIDI 01
032.980;000.772;72;000.430;MIDI 01
032.980;000.772;72;000.430;MIDI 01
033.471;000.296;65;000.398;MIDI 01
033.471;000.296;65;000.398;MIDI 01
033.855;000.249;37;000.281;MIDI 01
033.855;000.249;37;000.281;MIDI 01
033.792;000.458;70;000.430;MIDI 01
033.792;000.458;70;000.430;MIDI 01
034.510;000.130;49;000.398;MIDI 01
034.510;000.130;49;000.398;MIDI 01
034.756;000.126;58;000.383;MIDI 01
034.756;000.126;58;000.383;MIDI 01
034.232;000.796;80;000.531;MIDI 01
034.232;000.796;80;000.531;MIDI 01
034.965;000.249;65;000.367;MIDI 01
034.965;000.249;65;000.367;MIDI 01
035.194;000.087;68;000.359;MIDI 01
035.194;000.087;68;000.359;MIDI 01
035.551;000.235;76;000.391;MIDI 01
035.551;000.235;76;000.391;MIDI 01
035.784;000.273;77;000.445;MIDI 01
035.784;000.273;77;000.445;MIDI 01
035.973;000.157;72;000.469;MIDI 01
035.973;000.157;72;000.469;MIDI 01
036.142;000.134;73;000.492;MIDI 01
036.142;000.134;73;000.492;MIDI 01
036.298;000.130;64;000.484;MIDI 01
036.298;000.130;64;000.484;MIDI 01
036.439;000.054;65;000.453;MIDI 01
036.439;000.054;65;000.453;MIDI 01
036.654;000.186;59;000.297;MIDI 01
036.654;000.186;59;000.297;MIDI 01
036.634;000.230;68;000.383;MIDI 01
036.634;000.230;68;000.383;MIDI 01
036.632;000.234;65;000.328;MIDI 01
036.632;000.234;65;000.328;MIDI 01
036.855;000.164;66;000.445;MIDI 01
036.855;000.164;66;000.445;MIDI 01
036.643;000.464;49;000.312;MIDI 01
036.643;000.464;49;000.312;MIDI 01
037.018;000.143;67;000.469;MIDI 01
037.018;000.143;67;000.469;MIDI 01
037.194;000.156;68;000.438;MIDI 01
037.194;000.156;68;000.438;MIDI 01
037.378;000.110;69;000.469;MIDI 01
037.378;000.110;69;000.469;MIDI 01
037.190;000.425;64;000.398;MIDI 01
037.190;000.425;64;000.398;MIDI 01
037.509;000.148;70;000.508;MIDI 01
037.509;000.148;70;000.508;MIDI 01
037.222;000.466;48;000.180;MIDI 01
037.222;000.466;48;000.180;MIDI 01
037.203;000.494;58;000.320;MIDI 01
037.203;000.494;58;000.320;MIDI 01
037.658;000.123;73;000.500;MIDI 01
037.658;000.123;73;000.500;MIDI 01
037.761;000.051;64;000.484;MIDI 01
037.761;000.051;64;000.484;MIDI 01
037.894;000.034;65;000.523;MIDI 01
037.894;000.034;65;000.523;MIDI 01
038.025;000.153;59;000.383;MIDI 01
038.025;000.153;59;000.383;MIDI 01
038.035;000.152;65;000.438;MIDI 01
038.035;000.152;65;000.438;MIDI 01
038.032;000.173;68;000.492;MIDI 01
038.032;000.173;68;000.492;MIDI 01
038.184;000.144;66;000.484;MIDI 01
038.184;000.144;66;000.484;MIDI 01
038.033;000.405;49;000.344;MIDI 01
038.033;000.405;49;000.344;MIDI 01
038.339;000.152;67;000.469;MIDI 01
038.339;000.152;67;000.469;MIDI 01
038.536;000.200;68;000.398;MIDI 01
038.536;000.200;68;000.398;MIDI 01
038.746;000.121;69;000.445;MIDI 01
038.746;000.121;69;000.445;MIDI 01
038.541;000.330;64;000.375;MIDI 01
038.541;000.330;64;000.375;MIDI 01
038.523;000.477;58;000.297;MIDI 01
038.523;000.477;58;000.297;MIDI 01
038.521;000.484;48;000.227;MIDI 01
038.521;000.484;48;000.227;MIDI 01
038.889;000.169;70;000.492;MIDI 01
038.889;000.169;70;000.492;MIDI 01
039.043;000.092;73;000.508;MIDI 01
039.043;000.092;73;000.508;MIDI 01
039.171;000.114;71;000.547;MIDI 01
039.171;000.114;71;000.547;MIDI 01
039.297;000.131;72;000.531;MIDI 01
039.297;000.131;72;000.531;MIDI 01
039.428;000.099;73;000.547;MIDI 01
039.428;000.099;73;000.547;MIDI 01
039.545;000.121;76;000.570;MIDI 01
039.545;000.121;76;000.570;MIDI 01
039.666;000.145;77;000.578;MIDI 01
039.666;000.145;77;000.578;MIDI 01
039.810;000.167;80;000.570;MIDI 01
039.810;000.167;80;000.570;MIDI 01
039.950;000.151;78;000.578;MIDI 01
039.950;000.151;78;000.578;MIDI 01
040.091;000.153;79;000.594;MIDI 01
040.091;000.153;79;000.594;MIDI 01
040.231;000.102;80;000.625;MIDI 01
040.231;000.102;80;000.625;MIDI 01
040.352;000.154;81;000.617;MIDI 01
040.352;000.154;81;000.617;MIDI 01
040.480;000.192;82;000.586;MIDI 01
040.480;000.192;82;000.586;MIDI 01
040.668;000.149;85;000.562;MIDI 01
040.668;000.149;85;000.562;MIDI 01
040.832;000.146;83;000.570;MIDI 01
040.832;000.146;83;000.570;MIDI 01
040.969;000.140;84;000.625;MIDI 01
040.969;000.140;84;000.625;MIDI 01
041.108;000.091;85;000.633;MIDI 01
041.108;000.091;85;000.633;MIDI 01
041.240;000.130;83;000.602;MIDI 01
041.240;000.130;83;000.602;MIDI 01
041.355;000.144;84;000.656;MIDI 01
041.355;000.144;84;000.656;MIDI 01
041.489;000.135;85;000.680;MIDI 01
041.489;000.135;85;000.680;MIDI 01
041.638;000.106;83;000.633;MIDI 01
041.638;000.106;83;000.633;MIDI 01
041.793;000.065;84;000.625;MIDI 01
041.793;000.065;84;000.625;MIDI 01
041.958;000.140;84;000.625;MIDI 01
041.958;000.140;84;000.625;MIDI 01
042.043;000.111;87;000.602;MIDI 01
042.043;000.111;87;000.602;MIDI 01
042.111;000.339;85;000.617;MIDI 01
042.111;000.339;85;000.617;MIDI 01
042.474;000.307;79;000.406;MIDI 01
042.474;000.307;79;000.406;MIDI 01
042.435;000.509;83;000.547;MIDI 01
042.435;000.509;83;000.547;MIDI 01
042.915;000.097;84;000.602;MIDI 01
042.915;000.097;84;000.602;MIDI 01
042.154;000.934;70;000.320;MIDI 01
042.154;000.934;70;000.320;MIDI 01
042.778;000.378;76;000.406;MIDI 01
042.778;000.378;76;000.406;MIDI 01
043.473;000.241;88;000.516;MIDI 01
043.473;000.241;88;000.516;MIDI 01
043.480;000.285;77;000.336;MIDI 01
043.480;000.285;77;000.336;MIDI 01
043.134;000.761;68;000.320;MIDI 01
043.134;000.761;68;000.320;MIDI 01
043.727;000.201;72;000.320;MIDI 01
043.727;000.201;72;000.320;MIDI 01
043.124;000.804;84;000.562;MIDI 01
043.124;000.804;84;000.562;MIDI 01
043.693;000.320;89;000.547;MIDI 01
043.693;000.320;89;000.547;MIDI 01
043.900;000.202;87;000.562;MIDI 01
043.900;000.202;87;000.562;MIDI 01
044.098;000.143;75;000.383;MIDI 01
044.098;000.143;75;000.383;MIDI 01
044.085;000.180;81;000.547;MIDI 01
044.085;000.180;81;000.547;MIDI 01
043.924;000.482;67;000.359;MIDI 01
043.924;000.482;67;000.359;MIDI 01
044.276;000.171;70;000.391;MIDI 01
044.276;000.171;70;000.391;MIDI 01
044.247;000.216;82;000.586;MIDI 01
044.247;000.216;82;000.586;MIDI 01
044.707;000.154;73;000.414;MIDI 01
044.707;000.154;73;000.414;MIDI 01
044.896;000.104;68;000.328;MIDI 01
044.896;000.104;68;000.328;MIDI 01
044.506;000.525;65;000.266;MIDI 01
044.506;000.525;65;000.266;MIDI 01
044.479;000.745;85;000.547;MIDI 01
044.479;000.745;85;000.547;MIDI 01
045.224;000.172;84;000.477;MIDI 01
045.224;000.172;84;000.477;MIDI 01
045.050;000.365;64;000.359;MIDI 01
045.050;000.365;64;000.359;MIDI 01
045.392;000.112;83;000.531;MIDI 01
045.392;000.112;83;000.531;MIDI 01
045.251;000.263;72;000.367;MIDI 01
045.251;000.263;72;000.367;MIDI 01
045.421;000.136;67;000.383;MIDI 01
045.421;000.136;67;000.383;MIDI 01
045.721;000.116;78;000.484;MIDI 01
045.721;000.116;78;000.484;MIDI 01
045.595;000.266;63;000.406;MIDI 01
045.595;000.266;63;000.406;MIDI 01
045.553;000.336;84;000.523;MIDI 01
045.553;000.336;84;000.523;MIDI 01
045.750;000.150;72;000.383;MIDI 01
045.750;000.150;72;000.383;MIDI 01
045.856;000.050;77;000.500;MIDI 01
045.856;000.050;77;000.500;MIDI 01
045.910;000.095;69;000.383;MIDI 01
045.910;000.095;69;000.383;MIDI 01
045.954;000.073;79;000.547;MIDI 01
045.954;000.073;79;000.547;MIDI 01
046.027;000.199;77;000.531;MIDI 01
046.027;000.199;77;000.531;MIDI 01
046.208;000.146;76;000.570;MIDI 01
046.208;000.146;76;000.570;MIDI 01
046.038;000.329;62;000.398;MIDI 01
046.038;000.329;62;000.398;MIDI 01
046.221;000.228;70;000.414;MIDI 01
046.221;000.228;70;000.414;MIDI 01
046.379;000.133;65;000.445;MIDI 01
046.379;000.133;65;000.445;MIDI 01
046.365;000.157;77;000.570;MIDI 01
046.365;000.157;77;000.570;MIDI 01
046.522;000.225;80;000.539;MIDI 01
046.522;000.225;80;000.539;MIDI 01
046.526;000.271;61;000.445;MIDI 01
046.526;000.271;61;000.445;MIDI 01
046.689;000.127;71;000.508;MIDI 01
046.689;000.127;71;000.508;MIDI 01
046.680;000.140;76;000.562;MIDI 01
046.680;000.140;76;000.562;MIDI 01
046.832;000.116;65;000.445;MIDI 01
046.832;000.116;65;000.445;MIDI 01
046.820;000.131;77;000.594;MIDI 01
046.820;000.131;77;000.594;MIDI 01
046.983;000.189;79;000.586;MIDI 01
046.983;000.189;79;000.586;MIDI 01
047.164;000.109;72;000.523;MIDI 01
047.164;000.109;72;000.523;MIDI 01
046.992;000.324;60;000.477;MIDI 01
046.992;000.324;60;000.477;MIDI 01
047.156;000.186;83;000.570;MIDI 01
047.156;000.186;83;000.570;MIDI 01
047.339;000.147;64;000.438;MIDI 01
047.339;000.147;64;000.438;MIDI 01
047.316;000.203;84;000.586;MIDI 01
047.316;000.203;84;000.586;MIDI 01
047.489;000.045;58;000.445;MIDI 01
047.489;000.045;58;000.445;MIDI 01
047.492;000.170;85;000.609;MIDI 01
047.492;000.170;85;000.609;MIDI 01
047.661;000.084;72;000.469;MIDI 01
047.661;000.084;72;000.469;MIDI 01
047.666;000.120;83;000.562;MIDI 01
047.666;000.120;83;000.562;MIDI 01
047.831;000.050;67;000.352;MIDI 01
047.831;000.050;67;000.352;MIDI 01
047.837;000.053;84;000.586;MIDI 01
047.837;000.053;84;000.586;MIDI 01
047.847;000.090;64;000.375;MIDI 01
047.847;000.090;64;000.375;MIDI 01
048.033;000.142;56;000.508;MIDI 01
048.033;000.142;56;000.508;MIDI 01
048.035;000.228;84;000.539;MIDI 01
048.035;000.228;84;000.539;MIDI 01
048.219;000.049;65;000.453;MIDI 01
048.219;000.049;65;000.453;MIDI 01
048.244;000.085;88;000.586;MIDI 01
048.244;000.085;88;000.586;MIDI 01
048.394;000.174;89;000.578;MIDI 01
048.394;000.174;89;000.578;MIDI 01
048.550;000.062;55;000.523;MIDI 01
048.550;000.062;55;000.523;MIDI 01
048.402;000.288;77;000.539;MIDI 01
048.402;000.288;77;000.539;MIDI 01
048.559;000.144;87;000.586;MIDI 01
048.559;000.144;87;000.586;MIDI 01
048.698;000.098;81;000.578;MIDI 01
048.698;000.098;81;000.578;MIDI 01
048.720;000.079;63;000.453;MIDI 01
048.720;000.079;63;000.453;MIDI 01
048.868;000.029;70;000.414;MIDI 01
048.868;000.029;70;000.414;MIDI 01
048.862;000.058;75;000.562;MIDI 01
048.862;000.058;75;000.562;MIDI 01
048.855;000.171;82;000.562;MIDI 01
048.855;000.171;82;000.562;MIDI 01
049.040;000.102;53;000.492;MIDI 01
049.040;000.102;53;000.492;MIDI 01
049.212;000.096;61;000.422;MIDI 01
049.212;000.096;61;000.422;MIDI 01
049.378;000.033;68;000.352;MIDI 01
049.378;000.033;68;000.352;MIDI 01
049.380;000.180;73;000.516;MIDI 01
049.380;000.180;73;000.516;MIDI 01
049.538;000.099;52;000.484;MIDI 01
049.538;000.099;52;000.484;MIDI 01
049.026;000.678;85;000.586;MIDI 01
049.026;000.678;85;000.586;MIDI 01
049.717;000.092;60;000.398;MIDI 01
049.717;000.092;60;000.398;MIDI 01
049.704;000.192;84;000.555;MIDI 01
049.704;000.192;84;000.555;MIDI 01
049.880;000.028;67;000.461;MIDI 01
049.880;000.028;67;000.461;MIDI 01
049.882;000.049;72;000.516;MIDI 01
049.882;000.049;72;000.516;MIDI 01
050.003;000.048;60;000.133;MIDI 01
050.003;000.048;60;000.133;MIDI 01
049.876;000.205;83;000.539;MIDI 01
049.876;000.205;83;000.539;MIDI 01
050.119;000.157;51;000.445;MIDI 01
050.119;000.157;51;000.445;MIDI 01
050.315;000.043;60;000.398;MIDI 01
050.315;000.043;60;000.398;MIDI 01
050.327;000.201;78;000.492;MIDI 01
050.327;000.201;78;000.492;MIDI 01
050.560;000.028;69;000.430;MIDI 01
050.560;000.028;69;000.430;MIDI 01
050.089;000.782;84;000.508;MIDI 01
050.089;000.782;84;000.508;MIDI 01
050.569;000.318;77;000.516;MIDI 01
050.569;000.318;77;000.516;MIDI 01
050.898;000.349;82;000.531;MIDI 01
050.898;000.349;82;000.531;MIDI 01
050.939;000.311;49;000.289;MIDI 01
050.939;000.311;49;000.289;MIDI 01
051.629;000.202;61;000.406;MIDI 01
051.629;000.202;61;000.406;MIDI 01
051.865;000.118;70;000.406;MIDI 01
051.865;000.118;70;000.406;MIDI 01
052.061;000.202;77;000.352;MIDI 01
052.061;000.202;77;000.352;MIDI 01
051.344;000.948;92;000.594;MIDI 01
051.344;000.948;92;000.594;MIDI 01
052.289;000.082;80;000.406;MIDI 01
052.289;000.082;80;000.406;MIDI 01
052.596;000.249;88;000.453;MIDI 01
052.596;000.249;88;000.453;MIDI 01
052.855;000.242;89;000.508;MIDI 01
052.855;000.242;89;000.508;MIDI 01
053.031;000.216;84;000.516;MIDI 01
053.031;000.216;84;000.516;MIDI 01
053.216;000.165;85;000.516;MIDI 01
053.216;000.165;85;000.516;MIDI 01
053.416;000.216;77;000.484;MIDI 01
053.416;000.216;77;000.484;MIDI 01
053.661;000.275;78;000.445;MIDI 01
053.661;000.275;78;000.445;MIDI 01
054.026;000.157;73;000.312;MIDI 01
054.026;000.157;73;000.312;MIDI 01
054.043;000.213;51;000.188;MIDI 01
054.043;000.213;51;000.188;MIDI 01
053.991;000.540;79;000.391;MIDI 01
053.991;000.540;79;000.391;MIDI 01
054.496;000.050;75;000.328;MIDI 01
054.496;000.050;75;000.328;MIDI 01
054.550;000.834;67;000.258;MIDI 01
054.550;000.834;67;000.258;MIDI 01
055.265;000.134;73;000.312;MIDI 01
055.265;000.134;73;000.312;MIDI 01
055.246;000.198;63;000.203;MIDI 01
055.246;000.198;63;000.203;MIDI 01
054.535;001.544;84;000.469;MIDI 01
054.535;001.544;84;000.469;MIDI 01
056.008;000.274;82;000.305;MIDI 01
056.008;000.274;82;000.305;MIDI 01
056.336;000.340;44;000.203;MIDI 01
056.336;000.340;44;000.203;MIDI 01
056.307;000.431;72;000.266;MIDI 01
056.307;000.431;72;000.266;MIDI 01
056.309;000.444;80;000.352;MIDI 01
056.309;000.444;80;000.352;MIDI 01
056.703;000.223;51;000.312;MIDI 01
056.703;000.223;51;000.312;MIDI 01
056.973;000.321;56;000.219;MIDI 01
056.973;000.321;56;000.219;MIDI 01
057.246;000.107;72;000.352;MIDI 01
057.246;000.107;72;000.352;MIDI 01
057.357;000.159;72;000.023;MIDI 01
057.357;000.159;72;000.023;MIDI 01
057.276;000.261;63;000.266;MIDI 01
057.276;000.261;63;000.266;MIDI 01
057.529;000.166;73;000.430;MIDI 01
057.529;000.166;73;000.430;MIDI 01
057.566;000.216;65;000.273;MIDI 01
057.566;000.216;65;000.273;MIDI 01
057.754;000.171;77;000.445;MIDI 01
057.754;000.171;77;000.445;MIDI 01
057.775;000.175;68;000.367;MIDI 01
057.775;000.175;68;000.367;MIDI 01
057.947;000.194;75;000.430;MIDI 01
057.947;000.194;75;000.430;MIDI 01
057.961;000.196;67;000.406;MIDI 01
057.961;000.196;67;000.406;MIDI 01
058.136;000.191;69;000.469;MIDI 01
058.136;000.191;69;000.469;MIDI 01
058.153;000.176;60;000.289;MIDI 01
058.153;000.176;60;000.289;MIDI 01
058.339;000.281;70;000.461;MIDI 01
058.339;000.281;70;000.461;MIDI 01
058.349;000.289;61;000.367;MIDI 01
058.349;000.289;61;000.367;MIDI 01
058.690;000.314;63;000.289;MIDI 01
058.690;000.314;63;000.289;MIDI 01
058.652;000.413;65;000.297;MIDI 01
058.652;000.413;65;000.297;MIDI 01
059.009;000.144;55;000.336;MIDI 01
059.009;000.144;55;000.336;MIDI 01
059.226;000.123;51;000.375;MIDI 01
059.226;000.123;51;000.375;MIDI 01
058.647;000.868;73;000.406;MIDI 01
058.647;000.868;73;000.406;MIDI 01
059.402;000.127;44;000.422;MIDI 01
059.402;000.127;44;000.422;MIDI 01
059.600;000.073;71;000.477;MIDI 01
059.600;000.073;71;000.477;MIDI 01
059.569;000.110;51;000.367;MIDI 01
059.569;000.110;51;000.367;MIDI 01
059.623;000.121;62;000.359;MIDI 01
059.623;000.121;62;000.359;MIDI 01
059.790;000.033;63;000.383;MIDI 01
059.790;000.033;63;000.383;MIDI 01
059.754;000.192;56;000.359;MIDI 01
059.754;000.192;56;000.359;MIDI 01
059.785;000.166;72;000.422;MIDI 01
059.785;000.166;72;000.422;MIDI 01
059.950;000.156;63;000.383;MIDI 01
059.950;000.156;63;000.383;MIDI 01
059.973;000.183;72;000.344;MIDI 01
059.973;000.183;72;000.344;MIDI 01
060.182;000.096;67;000.406;MIDI 01
060.182;000.096;67;000.406;MIDI 01
060.200;000.150;75;000.484;MIDI 01
060.200;000.150;75;000.484;MIDI 01
060.376;000.032;73;000.367;MIDI 01
060.376;000.032;73;000.367;MIDI 01
060.356;000.086;65;000.484;MIDI 01
060.356;000.086;65;000.484;MIDI 01
060.552;000.030;65;000.383;MIDI 01
060.552;000.030;65;000.383;MIDI 01
060.582;000.030;63;000.398;MIDI 01
060.582;000.030;63;000.398;MIDI 01
060.551;000.169;72;000.445;MIDI 01
060.551;000.169;72;000.445;MIDI 01
060.720;000.124;60;000.414;MIDI 01
060.720;000.124;60;000.414;MIDI 01
060.729;000.151;69;000.531;MIDI 01
060.729;000.151;69;000.531;MIDI 01
060.883;000.100;70;000.547;MIDI 01
060.883;000.100;70;000.547;MIDI 01
060.891;000.122;61;000.414;MIDI 01
060.891;000.122;61;000.414;MIDI 01
061.079;000.163;62;000.422;MIDI 01
061.079;000.163;62;000.422;MIDI 01
061.062;000.189;71;000.508;MIDI 01
061.062;000.189;71;000.508;MIDI 01
061.267;000.097;73;000.477;MIDI 01
061.267;000.097;73;000.477;MIDI 01
061.278;000.143;55;000.344;MIDI 01
061.278;000.143;55;000.344;MIDI 01
061.302;000.229;65;000.242;MIDI 01
061.302;000.229;65;000.242;MIDI 01
061.497;000.113;72;000.453;MIDI 01
061.497;000.113;72;000.453;MIDI 01
061.528;000.158;63;000.320;MIDI 01
061.528;000.158;63;000.320;MIDI 01
061.504;000.263;51;000.305;MIDI 01
061.504;000.263;51;000.305;MIDI 01
061.823;000.197;60;000.312;MIDI 01
061.823;000.197;60;000.312;MIDI 01
061.806;000.277;44;000.320;MIDI 01
061.806;000.277;44;000.320;MIDI 01
061.815;000.319;68;000.375;MIDI 01
061.815;000.319;68;000.375;MIDI 01
062.105;000.146;51;000.375;MIDI 01
062.105;000.146;51;000.375;MIDI 01
062.317;000.088;56;000.383;MIDI 01
062.317;000.088;56;000.383;MIDI 01
062.534;000.042;63;000.391;MIDI 01
062.534;000.042;63;000.391;MIDI 01
062.528;000.050;75;000.375;MIDI 01
062.528;000.050;75;000.375;MIDI 01
062.518;000.164;84;000.438;MIDI 01
062.518;000.164;84;000.438;MIDI 01
062.753;000.048;77;000.461;MIDI 01
062.753;000.048;77;000.461;MIDI 01
062.732;000.198;85;000.547;MIDI 01
062.732;000.198;85;000.547;MIDI 01
062.918;000.059;80;000.562;MIDI 01
062.918;000.059;80;000.562;MIDI 01
062.920;000.141;89;000.594;MIDI 01
062.920;000.141;89;000.594;MIDI 01
063.076;000.101;79;000.523;MIDI 01
063.076;000.101;79;000.523;MIDI 01
063.060;000.172;87;000.602;MIDI 01
063.060;000.172;87;000.602;MIDI 01
063.249;000.051;72;000.367;MIDI 01
063.249;000.051;72;000.367;MIDI 01
063.224;000.099;81;000.602;MIDI 01
063.224;000.099;81;000.602;MIDI 01
063.405;000.058;73;000.531;MIDI 01
063.405;000.058;73;000.531;MIDI 01
063.395;000.299;82;000.570;MIDI 01
063.395;000.299;82;000.570;MIDI 01
063.675;000.205;77;000.414;MIDI 01
063.675;000.205;77;000.414;MIDI 01
063.715;000.210;63;000.367;MIDI 01
063.715;000.210;63;000.367;MIDI 01
063.942;000.117;55;000.453;MIDI 01
063.942;000.117;55;000.453;MIDI 01
064.114;000.140;51;000.492;MIDI 01
064.114;000.140;51;000.492;MIDI 01
063.652;000.645;85;000.562;MIDI 01
063.652;000.645;85;000.562;MIDI 01
064.275;000.126;44;000.469;MIDI 01
064.275;000.126;44;000.469;MIDI 01
064.434;000.071;74;000.492;MIDI 01
064.434;000.071;74;000.492;MIDI 01
064.416;000.109;51;000.477;MIDI 01
064.416;000.109;51;000.477;MIDI 01
064.431;000.139;83;000.531;MIDI 01
064.431;000.139;83;000.531;MIDI 01
064.593;000.033;75;000.492;MIDI 01
064.593;000.033;75;000.492;MIDI 01
064.588;000.118;84;000.578;MIDI 01
064.588;000.118;84;000.578;MIDI 01
064.578;000.142;56;000.461;MIDI 01
064.578;000.142;56;000.461;MIDI 01
064.775;000.110;63;000.414;MIDI 01
064.775;000.110;63;000.414;MIDI 01
064.759;000.142;84;000.430;MIDI 01
064.759;000.142;84;000.430;MIDI 01
064.755;000.192;76;000.594;MIDI 01
064.755;000.192;76;000.594;MIDI 01
064.947;000.090;79;000.539;MIDI 01
064.947;000.090;79;000.539;MIDI 01
064.953;000.164;87;000.586;MIDI 01
064.953;000.164;87;000.586;MIDI 01
065.098;000.060;85;000.586;MIDI 01
065.098;000.060;85;000.586;MIDI 01
065.098;000.067;77;000.578;MIDI 01
065.098;000.067;77;000.578;MIDI 01
065.278;000.024;75;000.484;MIDI 01
065.278;000.024;75;000.484;MIDI 01
065.250;000.081;84;000.641;MIDI 01
065.250;000.081;84;000.641;MIDI 01
065.425;000.045;72;000.531;MIDI 01
065.425;000.045;72;000.531;MIDI 01
065.411;000.082;81;000.586;MIDI 01
065.411;000.082;81;000.586;MIDI 01
065.550;000.031;81;000.352;MIDI 01
065.550;000.031;81;000.352;MIDI 01
065.548;000.046;73;000.562;MIDI 01
065.548;000.046;73;000.562;MIDI 01
065.574;000.104;82;000.586;MIDI 01
065.574;000.104;82;000.586;MIDI 01
065.755;000.098;74;000.531;MIDI 01
065.755;000.098;74;000.531;MIDI 01
065.778;000.136;63;000.445;MIDI 01
065.778;000.136;63;000.445;MIDI 01
065.760;000.250;83;000.508;MIDI 01
065.760;000.250;83;000.508;MIDI 01
066.000;000.105;85;000.500;MIDI 01
066.000;000.105;85;000.500;MIDI 01
065.978;000.159;55;000.398;MIDI 01
065.978;000.159;55;000.398;MIDI 01
066.015;000.215;77;000.414;MIDI 01
066.015;000.215;77;000.414;MIDI 01
066.247;000.111;84;000.453;MIDI 01
066.247;000.111;84;000.453;MIDI 01
066.251;000.175;75;000.352;MIDI 01
066.251;000.175;75;000.352;MIDI 01
066.264;000.366;51;000.250;MIDI 01
066.264;000.366;51;000.250;MIDI 01
066.603;000.258;72;000.359;MIDI 01
066.603;000.258;72;000.359;MIDI 01
066.617;000.251;80;000.414;MIDI 01
066.617;000.251;80;000.414;MIDI 01
067.133;000.355;59;000.422;MIDI 01
067.133;000.355;59;000.422;MIDI 01
066.646;000.846;44;000.219;MIDI 01
066.646;000.846;44;000.219;MIDI 01
067.196;000.319;51;000.211;MIDI 01
067.196;000.319;51;000.211;MIDI 01
067.498;000.066;56;000.289;MIDI 01
067.498;000.066;56;000.289;MIDI 01
067.449;000.442;60;000.469;MIDI 01
067.449;000.442;60;000.469;MIDI 01
067.886;000.282;43;000.336;MIDI 01
067.886;000.282;43;000.336;MIDI 01
068.209;000.141;52;000.422;MIDI 01
068.209;000.141;52;000.422;MIDI 01
068.414;000.033;58;000.414;MIDI 01
068.414;000.033;58;000.414;MIDI 01
068.620;000.061;41;000.516;MIDI 01
068.620;000.061;41;000.516;MIDI 01
067.846;000.954;61;000.508;MIDI 01
067.846;000.954;61;000.508;MIDI 01
068.894;000.066;53;000.336;MIDI 01
068.894;000.066;53;000.336;MIDI 01
068.845;000.162;64;000.445;MIDI 01
068.845;000.162;64;000.445;MIDI 01
069.022;000.030;58;000.422;MIDI 01
069.022;000.030;58;000.422;MIDI 01
069.031;000.047;61;000.273;MIDI 01
069.031;000.047;61;000.273;MIDI 01
069.029;000.170;65;000.469;MIDI 01
069.029;000.170;65;000.469;MIDI 01
069.229;000.060;40;000.523;MIDI 01
069.229;000.060;40;000.523;MIDI 01
069.249;000.115;68;000.422;MIDI 01
069.249;000.115;68;000.422;MIDI 01
069.408;000.105;66;000.430;MIDI 01
069.408;000.105;66;000.430;MIDI 01
069.523;000.084;67;000.531;MIDI 01
069.523;000.084;67;000.531;MIDI 01
069.544;000.098;55;000.383;MIDI 01
069.544;000.098;55;000.383;MIDI 01
069.630;000.035;68;000.516;MIDI 01
069.630;000.035;68;000.516;MIDI 01
069.705;000.042;58;000.336;MIDI 01
069.705;000.042;58;000.336;MIDI 01
069.696;000.099;69;000.570;MIDI 01
069.696;000.099;69;000.570;MIDI 01
069.805;000.118;70;000.578;MIDI 01
069.805;000.118;70;000.578;MIDI 01
069.933;000.181;73;000.547;MIDI 01
069.933;000.181;73;000.547;MIDI 01
069.925;000.447;46;000.438;MIDI 01
069.925;000.447;46;000.438;MIDI 01
070.236;000.142;53;000.352;MIDI 01
070.236;000.142;53;000.352;MIDI 01
070.217;000.193;60;000.539;MIDI 01
070.217;000.193;60;000.539;MIDI 01
070.407;000.049;58;000.469;MIDI 01
070.407;000.049;58;000.469;MIDI 01
070.405;000.181;61;000.602;MIDI 01
070.405;000.181;61;000.602;MIDI 01
070.608;000.185;44;000.508;MIDI 01
070.608;000.185;44;000.508;MIDI 01
070.828;000.130;53;000.539;MIDI 01
070.828;000.130;53;000.539;MIDI 01
070.990;000.026;59;000.477;MIDI 01
070.990;000.026;59;000.477;MIDI 01
071.142;000.062;42;000.617;MIDI 01
071.142;000.062;42;000.617;MIDI 01
070.599;000.624;62;000.609;MIDI 01
070.599;000.624;62;000.609;MIDI 01
071.369;000.146;54;000.516;MIDI 01
071.369;000.146;54;000.516;MIDI 01
071.502;000.028;59;000.500;MIDI 01
071.502;000.028;59;000.500;MIDI 01
071.522;000.050;62;000.258;MIDI 01
071.522;000.050;62;000.258;MIDI 01
071.356;000.216;65;000.555;MIDI 01
071.356;000.216;65;000.555;MIDI 01
071.515;000.157;66;000.625;MIDI 01
071.515;000.157;66;000.625;MIDI 01
071.693;000.050;41;000.586;MIDI 01
071.693;000.050;41;000.586;MIDI 01
071.701;000.118;69;000.570;MIDI 01
071.701;000.118;69;000.570;MIDI 01
071.829;000.089;67;000.562;MIDI 01
071.829;000.089;67;000.562;MIDI 01
071.944;000.041;68;000.547;MIDI 01
071.944;000.041;68;000.547;MIDI 01
071.949;000.106;56;000.508;MIDI 01
071.949;000.106;56;000.508;MIDI 01
072.084;000.027;59;000.469;MIDI 01
072.084;000.027;59;000.469;MIDI 01
072.091;000.032;62;000.398;MIDI 01
072.091;000.032;62;000.398;MIDI 01
072.131;000.041;70;000.320;MIDI 01
072.131;000.041;70;000.320;MIDI 01
072.024;000.165;69;000.570;MIDI 01
072.024;000.165;69;000.570;MIDI 01
072.216;000.133;71;000.523;MIDI 01
072.216;000.133;71;000.523;MIDI 01
072.340;000.165;74;000.609;MIDI 01
072.340;000.165;74;000.609;MIDI 01
072.316;000.302;47;000.625;MIDI 01
072.316;000.302;47;000.625;MIDI 01
072.636;000.131;54;000.508;MIDI 01
072.636;000.131;54;000.508;MIDI 01
072.645;000.156;61;000.578;MIDI 01
072.645;000.156;61;000.578;MIDI 01
072.816;000.059;59;000.578;MIDI 01
072.816;000.059;59;000.578;MIDI 01
072.818;000.226;62;000.664;MIDI 01
072.818;000.226;62;000.664;MIDI 01
073.025;000.204;45;000.641;MIDI 01
073.025;000.204;45;000.641;MIDI 01
073.268;000.166;54;000.586;MIDI 01
073.268;000.166;54;000.586;MIDI 01
073.420;000.036;60;000.594;MIDI 01
073.420;000.036;60;000.594;MIDI 01
073.030;000.627;63;000.633;MIDI 01
073.030;000.627;63;000.633;MIDI 01
073.604;000.104;43;000.680;MIDI 01
073.604;000.104;43;000.680;MIDI 01
073.784;000.118;64;000.586;MIDI 01
073.784;000.118;64;000.586;MIDI 01
073.908;000.124;65;000.648;MIDI 01
073.908;000.124;65;000.648;MIDI 01
074.023;000.117;66;000.633;MIDI 01
074.023;000.117;66;000.633;MIDI 01
074.114;000.033;60;000.555;MIDI 01
074.114;000.033;60;000.555;MIDI 01
074.116;000.035;64;000.523;MIDI 01
074.116;000.035;64;000.523;MIDI 01
073.906;000.271;55;000.625;MIDI 01
073.906;000.271;55;000.625;MIDI 01
074.144;000.117;69;000.617;MIDI 01
074.144;000.117;69;000.617;MIDI 01
074.249;000.149;67;000.648;MIDI 01
074.249;000.149;67;000.648;MIDI 01
074.389;000.117;36;000.781;MIDI 01
074.389;000.117;36;000.781;MIDI 01
074.393;000.133;68;000.617;MIDI 01
074.393;000.133;68;000.617;MIDI 01
074.575;000.146;69;000.609;MIDI 01
074.575;000.146;69;000.609;MIDI 01
074.708;000.114;70;000.633;MIDI 01
074.708;000.114;70;000.633;MIDI 01
074.831;000.116;78;000.609;MIDI 01
074.831;000.116;78;000.609;MIDI 01
074.715;000.242;55;000.648;MIDI 01
074.715;000.242;55;000.648;MIDI 01
074.964;000.029;64;000.641;MIDI 01
074.964;000.029;64;000.641;MIDI 01
074.968;000.044;58;000.672;MIDI 01
074.968;000.044;58;000.672;MIDI 01
074.947;000.153;75;000.602;MIDI 01
074.947;000.153;75;000.602;MIDI 01
075.053;000.089;76;000.594;MIDI 01
075.053;000.089;76;000.594;MIDI 01
075.250;000.142;71;000.664;MIDI 01
075.250;000.142;71;000.664;MIDI 01
075.338;000.162;35;000.688;MIDI 01
075.338;000.162;35;000.688;MIDI 01
075.332;000.194;47;000.750;MIDI 01
075.332;000.194;47;000.750;MIDI 01
075.389;000.374;80;000.711;MIDI 01
075.389;000.374;80;000.711;MIDI 01
075.725;000.166;56;000.664;MIDI 01
075.725;000.166;56;000.664;MIDI 01
075.917;000.086;64;000.680;MIDI 01
075.917;000.086;64;000.680;MIDI 01
076.111;000.042;71;000.672;MIDI 01
076.111;000.042;71;000.672;MIDI 01
076.126;000.160;80;000.680;MIDI 01
076.126;000.160;80;000.680;MIDI 01
076.364;000.039;73;000.594;MIDI 01
076.364;000.039;73;000.594;MIDI 01
076.347;000.159;81;000.641;MIDI 01
076.347;000.159;81;000.641;MIDI 01
076.517;000.057;76;000.688;MIDI 01
076.517;000.057;76;000.688;MIDI 01
076.515;000.061;85;000.672;MIDI 01
076.515;000.061;85;000.672;MIDI 01
076.671;000.071;75;000.656;MIDI 01
076.671;000.071;75;000.656;MIDI 01
076.670;000.073;83;000.578;MIDI 01
076.670;000.073;83;000.578;MIDI 01
076.829;000.089;77;000.586;MIDI 01
076.829;000.089;77;000.586;MIDI 01
076.845;000.085;68;000.648;MIDI 01
076.845;000.085;68;000.648;MIDI 01
076.963;000.077;69;000.641;MIDI 01
076.963;000.077;69;000.641;MIDI 01
076.969;000.236;78;000.648;MIDI 01
076.969;000.236;78;000.648;MIDI 01
077.196;000.201;63;000.555;MIDI 01
077.196;000.201;63;000.555;MIDI 01
077.429;000.043;57;000.500;MIDI 01
077.429;000.043;57;000.500;MIDI 01
077.173;000.301;73;000.594;MIDI 01
077.173;000.301;73;000.594;MIDI 01
077.606;000.048;47;000.625;MIDI 01
077.606;000.048;47;000.625;MIDI 01
077.171;000.654;81;000.688;MIDI 01
077.171;000.654;81;000.688;MIDI 01
077.760;000.109;47;000.641;MIDI 01
077.760;000.109;47;000.641;MIDI 01
077.910;000.052;70;000.633;MIDI 01
077.910;000.052;70;000.633;MIDI 01
077.901;000.085;79;000.633;MIDI 01
077.901;000.085;79;000.633;MIDI 01
077.897;000.129;56;000.633;MIDI 01
077.897;000.129;56;000.633;MIDI 01
078.071;000.058;71;000.656;MIDI 01
078.071;000.058;71;000.656;MIDI 01
078.072;000.087;80;000.602;MIDI 01
078.072;000.087;80;000.602;MIDI 01
078.062;000.196;64;000.594;MIDI 01
078.062;000.196;64;000.594;MIDI 01
078.261;000.131;71;000.633;MIDI 01
078.261;000.131;71;000.633;MIDI 01
078.257;000.233;80;000.633;MIDI 01
078.257;000.233;80;000.633;MIDI 01
078.444;000.134;83;000.633;MIDI 01
078.444;000.134;83;000.633;MIDI 01
078.465;000.118;75;000.602;MIDI 01
078.465;000.118;75;000.602;MIDI 01
078.586;000.061;81;000.633;MIDI 01
078.586;000.061;81;000.633;MIDI 01
078.599;000.052;73;000.641;MIDI 01
078.599;000.052;73;000.641;MIDI 01
078.619;000.057;75;000.055;MIDI 01
078.619;000.057;75;000.055;MIDI 01
078.753;000.048;71;000.586;MIDI 01
078.753;000.048;71;000.586;MIDI 01
078.744;000.147;80;000.672;MIDI 01
078.744;000.147;80;000.672;MIDI 01
078.889;000.052;77;000.609;MIDI 01
078.889;000.052;77;000.609;MIDI 01
078.902;000.042;68;000.617;MIDI 01
078.902;000.042;68;000.617;MIDI 01
079.032;000.052;69;000.633;MIDI 01
079.032;000.052;69;000.633;MIDI 01
079.029;000.066;78;000.617;MIDI 01
079.029;000.066;78;000.617;MIDI 01
079.188;000.108;63;000.539;MIDI 01
079.188;000.108;63;000.539;MIDI 01
079.182;000.130;79;000.625;MIDI 01
079.182;000.130;79;000.625;MIDI 01
079.204;000.142;70;000.547;MIDI 01
079.204;000.142;70;000.547;MIDI 01
079.368;000.048;57;000.492;MIDI 01
079.368;000.048;57;000.492;MIDI 01
079.393;000.065;73;000.516;MIDI 01
079.393;000.065;73;000.516;MIDI 01
079.377;000.226;81;000.695;MIDI 01
079.377;000.226;81;000.695;MIDI 01
079.580;000.043;73;000.234;MIDI 01
079.580;000.043;73;000.234;MIDI 01
079.561;000.065;71;000.570;MIDI 01
079.561;000.065;71;000.570;MIDI 01
079.567;000.064;47;000.570;MIDI 01
079.567;000.064;47;000.570;MIDI 01
079.564;000.158;80;000.625;MIDI 01
079.564;000.158;80;000.625;MIDI 01
079.806;000.079;68;000.562;MIDI 01
079.806;000.079;68;000.562;MIDI 01
079.796;000.173;76;000.617;MIDI 01
079.796;000.173;76;000.617;MIDI 01
079.800;000.220;47;000.586;MIDI 01
079.800;000.220;47;000.586;MIDI 01
080.037;000.146;56;000.688;MIDI 01
080.037;000.146;56;000.688;MIDI 01
080.197;000.083;64;000.664;MIDI 01
080.197;000.083;64;000.664;MIDI 01
080.372;000.023;83;000.594;MIDI 01
080.372;000.023;83;000.594;MIDI 01
080.369;000.039;71;000.672;MIDI 01
080.369;000.039;71;000.672;MIDI 01
080.401;000.040;94;000.312;MIDI 01
080.401;000.040;94;000.312;MIDI 01
080.367;000.152;92;000.703;MIDI 01
080.367;000.152;92;000.703;MIDI 01
080.582;000.061;85;000.656;MIDI 01
080.582;000.061;85;000.656;MIDI 01
080.570;000.094;93;000.625;MIDI 01
080.570;000.094;93;000.625;MIDI 01
080.743;000.042;88;000.641;MIDI 01
080.743;000.042;88;000.641;MIDI 01
080.731;000.057;97;000.711;MIDI 01
080.731;000.057;97;000.711;MIDI 01
080.794;000.046;96;000.289;MIDI 01
080.794;000.046;96;000.289;MIDI 01
080.868;000.068;95;000.609;MIDI 01
080.868;000.068;95;000.609;MIDI 01
080.875;000.062;87;000.656;MIDI 01
080.875;000.062;87;000.656;MIDI 01
081.021;000.069;89;000.609;MIDI 01
081.021;000.069;89;000.609;MIDI 01
081.037;000.072;80;000.641;MIDI 01
081.037;000.072;80;000.641;MIDI 01
081.148;000.057;81;000.703;MIDI 01
081.148;000.057;81;000.703;MIDI 01
081.201;000.057;89;000.156;MIDI 01
081.201;000.057;89;000.156;MIDI 01
081.156;000.223;90;000.695;MIDI 01
081.156;000.223;90;000.695;MIDI 01
081.351;000.134;63;000.523;MIDI 01
081.351;000.134;63;000.523;MIDI 01
081.518;000.044;57;000.555;MIDI 01
081.518;000.044;57;000.555;MIDI 01
081.344;000.265;85;000.625;MIDI 01
081.344;000.265;85;000.625;MIDI 01
081.682;000.061;47;000.617;MIDI 01
081.682;000.061;47;000.617;MIDI 01
081.332;000.569;93;000.703;MIDI 01
081.332;000.569;93;000.703;MIDI 01
081.844;000.096;47;000.602;MIDI 01
081.844;000.096;47;000.602;MIDI 01
081.971;000.060;82;000.602;MIDI 01
081.971;000.060;82;000.602;MIDI 01
081.960;000.081;91;000.648;MIDI 01
081.960;000.081;91;000.648;MIDI 01
081.975;000.116;56;000.609;MIDI 01
081.975;000.116;56;000.609;MIDI 01
082.134;000.065;83;000.625;MIDI 01
082.134;000.065;83;000.625;MIDI 01
082.128;000.097;92;000.664;MIDI 01
082.128;000.097;92;000.664;MIDI 01
082.132;000.134;64;000.594;MIDI 01
082.132;000.134;64;000.594;MIDI 01
082.295;000.065;84;000.664;MIDI 01
082.295;000.065;84;000.664;MIDI 01
082.297;000.066;71;000.633;MIDI 01
082.297;000.066;71;000.633;MIDI 01
082.289;000.205;92;000.633;MIDI 01
082.289;000.205;92;000.633;MIDI 01
082.446;000.133;95;000.680;MIDI 01
082.446;000.133;95;000.680;MIDI 01
082.528;000.061;94;000.094;MIDI 01
082.528;000.061;94;000.094;MIDI 01
082.455;000.191;87;000.680;MIDI 01
082.455;000.191;87;000.680;MIDI 01
082.594;000.073;93;000.664;MIDI 01
082.594;000.073;93;000.664;MIDI 01
082.616;000.053;85;000.641;MIDI 01
082.616;000.053;85;000.641;MIDI 01
082.777;000.071;83;000.602;MIDI 01
082.777;000.071;83;000.602;MIDI 01
082.767;000.111;92;000.711;MIDI 01
082.767;000.111;92;000.711;MIDI 01
082.932;000.052;80;000.633;MIDI 01
082.932;000.052;80;000.633;MIDI 01
082.930;000.069;89;000.562;MIDI 01
082.930;000.069;89;000.562;MIDI 01
082.978;000.030;88;000.352;MIDI 01
082.978;000.030;88;000.352;MIDI 01
083.109;000.045;81;000.641;MIDI 01
083.109;000.045;81;000.641;MIDI 01
083.098;000.133;90;000.664;MIDI 01
083.098;000.133;90;000.664;MIDI 01
083.335;000.139;63;000.469;MIDI 01
083.335;000.139;63;000.469;MIDI 01
083.318;000.245;85;000.633;MIDI 01
083.318;000.245;85;000.633;MIDI 01
083.303;000.283;93;000.703;MIDI 01
083.303;000.283;93;000.703;MIDI 01
083.567;000.025;81;000.539;MIDI 01
083.567;000.025;81;000.539;MIDI 01
083.562;000.037;83;000.508;MIDI 01
083.562;000.037;83;000.508;MIDI 01
083.540;000.064;57;000.484;MIDI 01
083.540;000.064;57;000.484;MIDI 01
083.806;000.019;81;000.562;MIDI 01
083.806;000.019;81;000.562;MIDI 01
083.544;000.287;92;000.672;MIDI 01
083.544;000.287;92;000.672;MIDI 01
083.782;000.065;47;000.492;MIDI 01
083.782;000.065;47;000.492;MIDI 01
083.790;000.326;90;000.703;MIDI 01
083.790;000.326;90;000.703;MIDI 01
084.100;000.082;89;000.602;MIDI 01
084.100;000.082;89;000.602;MIDI 01
084.109;000.089;80;000.602;MIDI 01
084.109;000.089;80;000.602;MIDI 01
084.120;000.109;47;000.445;MIDI 01
084.120;000.109;47;000.445;MIDI 01
084.499;000.051;67;000.609;MIDI 01
084.499;000.051;67;000.609;MIDI 01
084.506;000.107;62;000.477;MIDI 01
084.506;000.107;62;000.477;MIDI 01
084.493;000.189;76;000.625;MIDI 01
084.493;000.189;76;000.625;MIDI 01
084.723;000.095;68;000.625;MIDI 01
084.723;000.095;68;000.625;MIDI 01
084.743;000.183;53;000.430;MIDI 01
084.743;000.183;53;000.430;MIDI 01
084.729;000.210;56;000.484;MIDI 01
084.729;000.210;56;000.484;MIDI 01
084.715;000.273;77;000.633;MIDI 01
084.715;000.273;77;000.633;MIDI 01
084.967;000.171;72;000.578;MIDI 01
084.967;000.171;72;000.578;MIDI 01
084.965;000.230;80;000.664;MIDI 01
084.965;000.230;80;000.664;MIDI 01
085.178;000.169;60;000.531;MIDI 01
085.178;000.169;60;000.531;MIDI 01
084.952;000.402;48;000.555;MIDI 01
084.952;000.402;48;000.555;MIDI 01
085.354;000.072;53;000.461;MIDI 01
085.354;000.072;53;000.461;MIDI 01
085.350;000.114;56;000.531;MIDI 01
085.350;000.114;56;000.531;MIDI 01
085.481;000.055;50;000.602;MIDI 01
085.481;000.055;50;000.602;MIDI 01
085.654;000.033;79;000.555;MIDI 01
085.654;000.033;79;000.555;MIDI 01
085.650;000.044;88;000.633;MIDI 01
085.650;000.044;88;000.633;MIDI 01
085.671;000.069;65;000.547;MIDI 01
085.671;000.069;65;000.547;MIDI 01
085.807;000.033;80;000.609;MIDI 01
085.807;000.033;80;000.609;MIDI 01
085.804;000.069;89;000.656;MIDI 01
085.804;000.069;89;000.656;MIDI 01
085.838;000.107;56;000.484;MIDI 01
085.838;000.107;56;000.484;MIDI 01
085.945;000.028;81;000.648;MIDI 01
085.945;000.028;81;000.648;MIDI 01
085.815;000.180;59;000.492;MIDI 01
085.815;000.180;59;000.492;MIDI 01
085.949;000.070;90;000.695;MIDI 01
085.949;000.070;90;000.695;MIDI 01
086.096;000.021;82;000.531;MIDI 01
086.096;000.021;82;000.531;MIDI 01
086.086;000.064;91;000.688;MIDI 01
086.086;000.064;91;000.688;MIDI 01
086.121;000.048;90;000.172;MIDI 01
086.121;000.048;90;000.172;MIDI 01
085.951;000.264;51;000.609;MIDI 01
085.951;000.264;51;000.609;MIDI 01
086.089;000.135;63;000.594;MIDI 01
086.089;000.135;63;000.594;MIDI 01
086.208;000.042;83;000.695;MIDI 01
086.208;000.042;83;000.695;MIDI 01
086.223;000.065;92;000.648;MIDI 01
086.223;000.065;92;000.648;MIDI 01
086.234;000.066;59;000.484;MIDI 01
086.234;000.066;59;000.484;MIDI 01
086.221;000.104;56;000.547;MIDI 01
086.221;000.104;56;000.547;MIDI 01
086.378;000.054;95;000.703;MIDI 01
086.378;000.054;95;000.703;MIDI 01
086.396;000.056;86;000.688;MIDI 01
086.396;000.056;86;000.688;MIDI 01
086.388;000.070;53;000.594;MIDI 01
086.388;000.070;53;000.594;MIDI 01
086.470;000.001;93;000.023;MIDI 01
086.470;000.001;93;000.023;MIDI 01
086.615;000.033;73;000.625;MIDI 01
086.615;000.033;73;000.625;MIDI 01
086.609;000.070;82;000.625;MIDI 01
086.609;000.070;82;000.625;MIDI 01
086.632;000.118;68;000.609;MIDI 01
086.632;000.118;68;000.609;MIDI 01
086.742;000.039;74;000.656;MIDI 01
086.742;000.039;74;000.656;MIDI 01
086.744;000.059;83;000.641;MIDI 01
086.744;000.059;83;000.641;MIDI 01
086.772;000.121;59;000.508;MIDI 01
086.772;000.121;59;000.508;MIDI 01
086.758;000.141;62;000.500;MIDI 01
086.758;000.141;62;000.500;MIDI 01
086.895;000.112;78;000.633;MIDI 01
086.895;000.112;78;000.633;MIDI 01
086.889;000.159;86;000.641;MIDI 01
086.889;000.159;86;000.641;MIDI 01
086.899;000.277;54;000.641;MIDI 01
086.899;000.277;54;000.641;MIDI 01
087.089;000.105;66;000.656;MIDI 01
087.089;000.105;66;000.656;MIDI 01
087.209;000.122;62;000.562;MIDI 01
087.209;000.122;62;000.562;MIDI 01
087.222;000.125;59;000.500;MIDI 01
087.222;000.125;59;000.500;MIDI 01
087.343;000.083;56;000.688;MIDI 01
087.343;000.083;56;000.688;MIDI 01
087.516;000.060;85;000.695;MIDI 01
087.516;000.060;85;000.695;MIDI 01
087.504;000.079;94;000.664;MIDI 01
087.504;000.079;94;000.664;MIDI 01
087.522;000.085;71;000.695;MIDI 01
087.522;000.085;71;000.695;MIDI 01
087.681;000.032;86;000.625;MIDI 01
087.681;000.032;86;000.625;MIDI 01
087.684;000.080;95;000.648;MIDI 01
087.684;000.080;95;000.648;MIDI 01
087.679;000.142;65;000.547;MIDI 01
087.679;000.142;65;000.547;MIDI 01
087.691;000.132;62;000.516;MIDI 01
087.691;000.132;62;000.516;MIDI 01
087.859;000.028;87;000.664;MIDI 01
087.859;000.028;87;000.664;MIDI 01
087.855;000.212;96;000.773;MIDI 01
087.855;000.212;96;000.773;MIDI 01
088.031;000.059;88;000.688;MIDI 01
088.031;000.059;88;000.688;MIDI 01
088.034;000.081;69;000.680;MIDI 01
088.034;000.081;69;000.680;MIDI 01
088.043;000.100;97;000.664;MIDI 01
088.043;000.100;97;000.664;MIDI 01
087.842;000.340;57;000.664;MIDI 01
087.842;000.340;57;000.664;MIDI 01
088.200;000.047;62;000.570;MIDI 01
088.200;000.047;62;000.570;MIDI 01
088.231;000.028;89;000.688;MIDI 01
088.231;000.028;89;000.688;MIDI 01
088.206;000.079;65;000.562;MIDI 01
088.206;000.079;65;000.562;MIDI 01
088.217;000.231;98;000.750;MIDI 01
088.217;000.231;98;000.750;MIDI 01
088.350;000.129;59;000.664;MIDI 01
088.350;000.129;59;000.664;MIDI 01
088.499;000.083;86;000.594;MIDI 01
088.499;000.083;86;000.594;MIDI 01
088.452;000.172;65;000.570;MIDI 01
088.452;000.172;65;000.570;MIDI 01
088.581;000.083;92;000.633;MIDI 01
088.581;000.083;92;000.633;MIDI 01
088.569;000.115;68;000.617;MIDI 01
088.569;000.115;68;000.617;MIDI 01
088.683;000.028;74;000.602;MIDI 01
088.683;000.028;74;000.602;MIDI 01
088.821;000.070;74;000.078;MIDI 01
088.821;000.070;74;000.078;MIDI 01
088.697;000.244;101;000.797;MIDI 01
088.697;000.244;101;000.797;MIDI 01
088.908;000.148;100;000.703;MIDI 01
088.908;000.148;100;000.703;MIDI 01
089.042;000.077;99;000.695;MIDI 01
089.042;000.077;99;000.695;MIDI 01
089.146;000.059;98;000.641;MIDI 01
089.146;000.059;98;000.641;MIDI 01
089.236;000.076;97;000.672;MIDI 01
089.236;000.076;97;000.672;MIDI 01
089.328;000.095;96;000.633;MIDI 01
089.328;000.095;96;000.633;MIDI 01
089.415;000.081;98;000.688;MIDI 01
089.415;000.081;98;000.688;MIDI 01
089.485;000.092;97;000.633;MIDI 01
089.485;000.092;97;000.633;MIDI 01
089.561;000.043;96;000.594;MIDI 01
089.561;000.043;96;000.594;MIDI 01
089.626;000.086;95;000.586;MIDI 01
089.626;000.086;95;000.586;MIDI 01
089.719;000.075;94;000.633;MIDI 01
089.719;000.075;94;000.633;MIDI 01
089.791;000.118;93;000.500;MIDI 01
089.791;000.118;93;000.500;MIDI 01
089.875;000.086;95;000.656;MIDI 01
089.875;000.086;95;000.656;MIDI 01
089.958;000.069;94;000.594;MIDI 01
089.958;000.069;94;000.594;MIDI 01
090.031;000.045;93;000.641;MIDI 01
090.031;000.045;93;000.641;MIDI 01
090.115;000.076;92;000.633;MIDI 01
090.115;000.076;92;000.633;MIDI 01
090.199;000.046;91;000.586;MIDI 01
090.199;000.046;91;000.586;MIDI 01
090.241;000.084;90;000.547;MIDI 01
090.241;000.084;90;000.547;MIDI 01
090.320;000.108;92;000.602;MIDI 01
090.320;000.108;92;000.602;MIDI 01
090.378;000.085;91;000.625;MIDI 01
090.378;000.085;91;000.625;MIDI 01
090.473;000.042;90;000.586;MIDI 01
090.473;000.042;90;000.586;MIDI 01
090.516;000.080;89;000.516;MIDI 01
090.516;000.080;89;000.516;MIDI 01
090.584;000.076;88;000.656;MIDI 01
090.584;000.076;88;000.656;MIDI 01
090.673;000.058;87;000.570;MIDI 01
090.673;000.058;87;000.570;MIDI 01
090.721;000.097;89;000.641;MIDI 01
090.721;000.097;89;000.641;MIDI 01
090.796;000.066;88;000.617;MIDI 01
090.796;000.066;88;000.617;MIDI 01
090.866;000.023;87;000.469;MIDI 01
090.866;000.023;87;000.469;MIDI 01
090.907;000.081;86;000.547;MIDI 01
090.907;000.081;86;000.547;MIDI 01
090.986;000.078;85;000.602;MIDI 01
090.986;000.078;85;000.602;MIDI 01
091.062;000.084;84;000.641;MIDI 01
091.062;000.084;84;000.641;MIDI 01
091.145;000.067;86;000.625;MIDI 01
091.145;000.067;86;000.625;MIDI 01
091.201;000.075;85;000.617;MIDI 01
091.201;000.075;85;000.617;MIDI 01
091.282;000.021;84;000.508;MIDI 01
091.282;000.021;84;000.508;MIDI 01
091.328;000.069;83;000.508;MIDI 01
091.328;000.069;83;000.508;MIDI 01
091.418;000.061;82;000.516;MIDI 01
091.418;000.061;82;000.516;MIDI 01
091.487;000.099;81;000.633;MIDI 01
091.487;000.099;81;000.633;MIDI 01
091.558;000.086;83;000.609;MIDI 01
091.558;000.086;83;000.609;MIDI 01
091.643;000.055;82;000.562;MIDI 01
091.643;000.055;82;000.562;MIDI 01
091.721;000.059;81;000.555;MIDI 01
091.721;000.059;81;000.555;MIDI 01
091.800;000.072;80;000.531;MIDI 01
091.800;000.072;80;000.531;MIDI 01
091.890;000.028;79;000.430;MIDI 01
091.890;000.028;79;000.430;MIDI 01
091.943;000.054;78;000.438;MIDI 01
091.943;000.054;78;000.438;MIDI 01
091.997;000.087;80;000.555;MIDI 01
091.997;000.087;80;000.555;MIDI 01
092.061;000.087;79;000.516;MIDI 01
092.061;000.087;79;000.516;MIDI 01
092.159;000.032;78;000.539;MIDI 01
092.159;000.032;78;000.539;MIDI 01
092.201;000.081;77;000.516;MIDI 01
092.201;000.081;77;000.516;MIDI 01
092.282;000.065;76;000.609;MIDI 01
092.282;000.065;76;000.609;MIDI 01
092.370;000.047;75;000.531;MIDI 01
092.370;000.047;75;000.531;MIDI 01
092.424;000.069;77;000.570;MIDI 01
092.424;000.069;77;000.570;MIDI 01
092.493;000.043;76;000.578;MIDI 01
092.493;000.043;76;000.578;MIDI 01
092.562;000.031;75;000.484;MIDI 01
092.562;000.031;75;000.484;MIDI 01
092.595;000.101;74;000.523;MIDI 01
092.595;000.101;74;000.523;MIDI 01
092.694;000.067;73;000.602;MIDI 01
092.694;000.067;73;000.602;MIDI 01
092.765;000.075;72;000.555;MIDI 01
092.765;000.075;72;000.555;MIDI 01
092.839;000.095;74;000.633;MIDI 01
092.839;000.095;74;000.633;MIDI 01
092.898;000.076;73;000.602;MIDI 01
092.898;000.076;73;000.602;MIDI 01
092.969;000.051;72;000.547;MIDI 01
092.969;000.051;72;000.547;MIDI 01
093.014;000.030;71;000.586;MIDI 01
093.014;000.030;71;000.586;MIDI 01
093.056;000.076;70;000.555;MIDI 01
093.056;000.076;70;000.555;MIDI 01
093.125;000.039;71;000.539;MIDI 01
093.125;000.039;71;000.539;MIDI 01
093.221;000.093;74;000.555;MIDI 01
093.221;000.093;74;000.555;MIDI 01
093.277;000.090;73;000.578;MIDI 01
093.277;000.090;73;000.578;MIDI 01
093.343;000.062;72;000.594;MIDI 01
093.343;000.062;72;000.594;MIDI 01
093.383;000.034;71;000.586;MIDI 01
093.383;000.034;71;000.586;MIDI 01
093.434;000.055;70;000.531;MIDI 01
093.434;000.055;70;000.531;MIDI 01
093.502;000.030;71;000.555;MIDI 01
093.502;000.030;71;000.555;MIDI 01
093.575;000.100;74;000.602;MIDI 01
093.575;000.100;74;000.602;MIDI 01
093.644;000.082;73;000.555;MIDI 01
093.644;000.082;73;000.555;MIDI 01
093.695;000.062;72;000.562;MIDI 01
093.695;000.062;72;000.562;MIDI 01
093.751;000.024;71;000.391;MIDI 01
093.751;000.024;71;000.391;MIDI 01
093.780;000.045;70;000.539;MIDI 01
093.780;000.045;70;000.539;MIDI 01
093.847;000.022;71;000.492;MIDI 01
093.847;000.022;71;000.492;MIDI 01
093.924;000.074;74;000.516;MIDI 01
093.924;000.074;74;000.516;MIDI 01
093.974;000.085;73;000.562;MIDI 01
093.974;000.085;73;000.562;MIDI 01
094.053;000.036;72;000.484;MIDI 01
094.053;000.036;72;000.484;MIDI 01
094.098;000.032;71;000.438;MIDI 01
094.098;000.032;71;000.438;MIDI 01
094.126;000.052;70;000.508;MIDI 01
094.126;000.052;70;000.508;MIDI 01
094.192;000.026;71;000.508;MIDI 01
094.192;000.026;71;000.508;MIDI 01
094.293;000.057;73;000.484;MIDI 01
094.293;000.057;73;000.484;MIDI 01
094.349;000.047;72;000.531;MIDI 01
094.349;000.047;72;000.531;MIDI 01
094.400;000.053;71;000.383;MIDI 01
094.400;000.053;71;000.383;MIDI 01
094.483;000.043;70;000.477;MIDI 01
094.483;000.043;70;000.477;MIDI 01
094.548;000.026;71;000.508;MIDI 01
094.548;000.026;71;000.508;MIDI 01
094.632;000.060;73;000.445;MIDI 01
094.632;000.060;73;000.445;MIDI 01
094.700;000.047;72;000.477;MIDI 01
094.700;000.047;72;000.477;MIDI 01
094.742;000.049;71;000.383;MIDI 01
094.742;000.049;71;000.383;MIDI 01
094.846;000.052;70;000.477;MIDI 01
094.846;000.052;70;000.477;MIDI 01
094.917;000.033;71;000.461;MIDI 01
094.917;000.033;71;000.461;MIDI 01
095.005;000.075;73;000.438;MIDI 01
095.005;000.075;73;000.438;MIDI 01
095.095;000.031;72;000.320;MIDI 01
095.095;000.031;72;000.320;MIDI 01
095.156;000.036;71;000.305;MIDI 01
095.156;000.036;71;000.305;MIDI 01
095.235;000.058;70;000.406;MIDI 01
095.235;000.058;70;000.406;MIDI 01
095.310;000.045;71;000.477;MIDI 01
095.310;000.045;71;000.477;MIDI 01
095.410;000.079;73;000.391;MIDI 01
095.410;000.079;73;000.391;MIDI 01
095.502;000.076;72;000.359;MIDI 01
095.502;000.076;72;000.359;MIDI 01
095.615;000.027;71;000.398;MIDI 01
095.615;000.027;71;000.398;MIDI 01
095.729;000.083;70;000.305;MIDI 01
095.729;000.083;70;000.305;MIDI 01
095.834;000.046;71;000.266;MIDI 01
095.834;000.046;71;000.266;MIDI 01
095.955;000.127;73;000.320;MIDI 01
095.955;000.127;73;000.320;MIDI 01
096.097;000.128;72;000.328;MIDI 01
096.097;000.128;72;000.328;MIDI 01
096.268;000.179;71;000.266;MIDI 01
096.268;000.179;71;000.266;MIDI 01
096.480;000.246;70;000.305;MIDI 01
096.480;000.246;70;000.305;MIDI 01
096.767;000.302;71;000.234;MIDI 01
096.767;000.302;71;000.234;MIDI 01
097.088;000.197;72;000.312;MIDI 01
097.088;000.197;72;000.312;MIDI 01
097.323;000.058;73;000.289;MIDI 01
097.323;000.058;73;000.289;MIDI 01
097.459;000.055;74;000.328;MIDI 01
097.459;000.055;74;000.328;MIDI 01
097.568;000.048;75;000.344;MIDI 01
097.568;000.048;75;000.344;MIDI 01
097.673;000.080;76;000.406;MIDI 01
097.673;000.080;76;000.406;MIDI 01
097.794;000.077;77;000.406;MIDI 01
097.794;000.077;77;000.406;MIDI 01
097.102;000.836;56;000.164;MIDI 01
097.102;000.836;56;000.164;MIDI 01
097.908;000.059;76;000.430;MIDI 01
097.908;000.059;76;000.430;MIDI 01
097.779;000.228;60;000.172;MIDI 01
097.779;000.228;60;000.172;MIDI 01
097.535;000.490;65;000.180;MIDI 01
097.535;000.490;65;000.180;MIDI 01
098.007;000.035;75;000.406;MIDI 01
098.007;000.035;75;000.406;MIDI 01
098.091;000.076;74;000.453;MIDI 01
098.091;000.076;74;000.453;MIDI 01
098.192;000.083;73;000.430;MIDI 01
098.192;000.083;73;000.430;MIDI 01
098.286;000.030;72;000.414;MIDI 01
098.286;000.030;72;000.414;MIDI 01
098.354;000.055;71;000.453;MIDI 01
098.354;000.055;71;000.453;MIDI 01
098.284;000.202;63;000.289;MIDI 01
098.284;000.202;63;000.289;MIDI 01
098.447;000.068;70;000.453;MIDI 01
098.447;000.068;70;000.453;MIDI 01
097.995;000.569;55;000.266;MIDI 01
097.995;000.569;55;000.266;MIDI 01
098.529;000.035;69;000.414;MIDI 01
098.529;000.035;69;000.414;MIDI 01
098.472;000.117;58;000.219;MIDI 01
098.472;000.117;58;000.219;MIDI 01
098.608;000.067;68;000.461;MIDI 01
098.608;000.067;68;000.461;MIDI 01
098.681;000.086;69;000.453;MIDI 01
098.681;000.086;69;000.453;MIDI 01
098.780;000.025;70;000.422;MIDI 01
098.780;000.025;70;000.422;MIDI 01
098.846;000.048;71;000.438;MIDI 01
098.846;000.048;71;000.438;MIDI 01
098.931;000.058;72;000.422;MIDI 01
098.931;000.058;72;000.422;MIDI 01
098.845;000.206;61;000.320;MIDI 01
098.845;000.206;61;000.320;MIDI 01
099.007;000.089;75;000.430;MIDI 01
099.007;000.089;75;000.430;MIDI 01
099.051;000.114;56;000.203;MIDI 01
099.051;000.114;56;000.203;MIDI 01
098.621;000.572;53;000.203;MIDI 01
098.621;000.572;53;000.203;MIDI 01
099.109;000.098;73;000.430;MIDI 01
099.109;000.098;73;000.430;MIDI 01
099.220;000.054;72;000.430;MIDI 01
099.220;000.054;72;000.430;MIDI 01
099.319;000.093;71;000.477;MIDI 01
099.319;000.093;71;000.477;MIDI 01
099.432;000.068;70;000.414;MIDI 01
099.432;000.068;70;000.414;MIDI 01
099.511;000.072;69;000.453;MIDI 01
099.511;000.072;69;000.453;MIDI 01
099.211;000.396;52;000.352;MIDI 01
099.211;000.396;52;000.352;MIDI 01
099.607;000.051;68;000.469;MIDI 01
099.607;000.051;68;000.469;MIDI 01
099.690;000.055;67;000.414;MIDI 01
099.690;000.055;67;000.414;MIDI 01
099.639;000.158;55;000.227;MIDI 01
099.639;000.158;55;000.227;MIDI 01
099.425;000.385;60;000.328;MIDI 01
099.425;000.385;60;000.328;MIDI 01
099.772;000.085;66;000.477;MIDI 01
099.772;000.085;66;000.477;MIDI 01
099.868;000.041;65;000.461;MIDI 01
099.868;000.041;65;000.461;MIDI 01
099.939;000.053;64;000.477;MIDI 01
099.939;000.053;64;000.477;MIDI 01
100.021;000.030;65;000.406;MIDI 01
100.021;000.030;65;000.406;MIDI 01
099.815;000.299;51;000.383;MIDI 01
099.815;000.299;51;000.383;MIDI 01
100.089;000.050;66;000.383;MIDI 01
100.089;000.050;66;000.383;MIDI 01
100.171;000.046;67;000.500;MIDI 01
100.171;000.046;67;000.500;MIDI 01
100.173;000.124;57;000.289;MIDI 01
100.173;000.124;57;000.289;MIDI 01
099.984;000.327;60;000.359;MIDI 01
099.984;000.327;60;000.359;MIDI 01
100.265;000.053;68;000.461;MIDI 01
100.265;000.053;68;000.461;MIDI 01
100.364;000.035;69;000.492;MIDI 01
100.364;000.035;69;000.492;MIDI 01
100.438;000.036;70;000.484;MIDI 01
100.438;000.036;70;000.484;MIDI 01
100.506;000.055;71;000.539;MIDI 01
100.506;000.055;71;000.539;MIDI 01
100.600;000.050;72;000.500;MIDI 01
100.600;000.050;72;000.500;MIDI 01
100.699;000.030;73;000.422;MIDI 01
100.699;000.030;73;000.422;MIDI 01
100.325;000.420;50;000.336;MIDI 01
100.325;000.420;50;000.336;MIDI 01
100.777;000.057;74;000.469;MIDI 01
100.777;000.057;74;000.469;MIDI 01
100.705;000.172;53;000.367;MIDI 01
100.705;000.172;53;000.367;MIDI 01
100.870;000.035;75;000.438;MIDI 01
100.870;000.035;75;000.438;MIDI 01
100.551;000.368;58;000.344;MIDI 01
100.551;000.368;58;000.344;MIDI 01
100.985;000.047;76;000.359;MIDI 01
100.985;000.047;76;000.359;MIDI 01
101.065;000.095;77;000.469;MIDI 01
101.065;000.095;77;000.469;MIDI 01
101.208;000.101;80;000.383;MIDI 01
101.208;000.101;80;000.383;MIDI 01
100.904;000.460;49;000.383;MIDI 01
100.904;000.460;49;000.383;MIDI 01
101.322;000.099;79;000.414;MIDI 01
101.322;000.099;79;000.414;MIDI 01
101.450;000.096;78;000.414;MIDI 01
101.450;000.096;78;000.414;MIDI 01
101.133;000.417;59;000.281;MIDI 01
101.133;000.417;59;000.281;MIDI 01
101.390;000.173;53;000.188;MIDI 01
101.390;000.173;53;000.188;MIDI 01
101.568;000.120;77;000.492;MIDI 01
101.568;000.120;77;000.492;MIDI 01
101.709;000.109;76;000.445;MIDI 01
101.709;000.109;76;000.445;MIDI 01
101.850;000.086;75;000.406;MIDI 01
101.850;000.086;75;000.406;MIDI 01
101.597;000.386;48;000.312;MIDI 01
101.597;000.386;48;000.312;MIDI 01
101.979;000.097;74;000.438;MIDI 01
101.979;000.097;74;000.438;MIDI 01
101.848;000.246;55;000.305;MIDI 01
101.848;000.246;55;000.305;MIDI 01
102.127;000.119;73;000.352;MIDI 01
102.127;000.119;73;000.352;MIDI 01
102.260;000.126;72;000.391;MIDI 01
102.260;000.126;72;000.391;MIDI 01
102.154;000.259;60;000.195;MIDI 01
102.154;000.259;60;000.195;MIDI 01
102.434;000.082;71;000.406;MIDI 01
102.434;000.082;71;000.406;MIDI 01
102.560;000.102;72;000.445;MIDI 01
102.560;000.102;72;000.445;MIDI 01
102.684;000.036;73;000.414;MIDI 01
102.684;000.036;73;000.414;MIDI 01
102.754;000.054;74;000.469;MIDI 01
102.754;000.054;74;000.469;MIDI 01
102.846;000.068;75;000.477;MIDI 01
102.846;000.068;75;000.477;MIDI 01
102.928;000.064;77;000.406;MIDI 01
102.928;000.064;77;000.406;MIDI 01
103.000;000.073;76;000.500;MIDI 01
103.000;000.073;76;000.500;MIDI 01
102.752;000.335;65;000.258;MIDI 01
102.752;000.335;65;000.258;MIDI 01
102.444;000.647;56;000.273;MIDI 01
102.444;000.647;56;000.273;MIDI 01
102.944;000.186;60;000.320;MIDI 01
102.944;000.186;60;000.320;MIDI 01
103.099;000.035;75;000.359;MIDI 01
103.099;000.035;75;000.359;MIDI 01
103.151;000.086;74;000.508;MIDI 01
103.151;000.086;74;000.508;MIDI 01
103.250;000.076;73;000.461;MIDI 01
103.250;000.076;73;000.461;MIDI 01
103.328;000.043;72;000.484;MIDI 01
103.328;000.043;72;000.484;MIDI 01
103.331;000.143;63;000.320;MIDI 01
103.331;000.143;63;000.320;MIDI 01
103.402;000.075;71;000.492;MIDI 01
103.402;000.075;71;000.492;MIDI 01
103.494;000.083;70;000.492;MIDI 01
103.494;000.083;70;000.492;MIDI 01
103.577;000.030;69;000.461;MIDI 01
103.577;000.030;69;000.461;MIDI 01
103.128;000.520;55;000.344;MIDI 01
103.128;000.520;55;000.344;MIDI 01
103.496;000.157;58;000.297;MIDI 01
103.496;000.157;58;000.297;MIDI 01
103.632;000.095;68;000.508;MIDI 01
103.632;000.095;68;000.508;MIDI 01
103.720;000.074;69;000.523;MIDI 01
103.720;000.074;69;000.523;MIDI 01
103.806;000.030;70;000.461;MIDI 01
103.806;000.030;70;000.461;MIDI 01
103.870;000.049;71;000.492;MIDI 01
103.870;000.049;71;000.492;MIDI 01
103.875;000.103;61;000.406;MIDI 01
103.875;000.103;61;000.406;MIDI 01
103.954;000.054;72;000.445;MIDI 01
103.954;000.054;72;000.445;MIDI 01
103.672;000.424;53;000.352;MIDI 01
103.672;000.424;53;000.352;MIDI 01
104.021;000.097;75;000.438;MIDI 01
104.021;000.097;75;000.438;MIDI 01
104.042;000.101;56;000.336;MIDI 01
104.042;000.101;56;000.336;MIDI 01
104.103;000.098;73;000.508;MIDI 01
104.103;000.098;73;000.508;MIDI 01
104.213;000.040;72;000.453;MIDI 01
104.213;000.040;72;000.453;MIDI 01
104.290;000.090;71;000.523;MIDI 01
104.290;000.090;71;000.523;MIDI 01
104.389;000.071;70;000.477;MIDI 01
104.389;000.071;70;000.477;MIDI 01
104.455;000.049;69;000.500;MIDI 01
104.455;000.049;69;000.500;MIDI 01
104.194;000.366;52;000.414;MIDI 01
104.194;000.366;52;000.414;MIDI 01
104.532;000.046;68;000.484;MIDI 01
104.532;000.046;68;000.484;MIDI 01
104.602;000.077;67;000.484;MIDI 01
104.602;000.077;67;000.484;MIDI 01
104.582;000.127;55;000.344;MIDI 01
104.582;000.127;55;000.344;MIDI 01
104.391;000.352;60;000.367;MIDI 01
104.391;000.352;60;000.367;MIDI 01
104.684;000.085;66;000.523;MIDI 01
104.684;000.085;66;000.523;MIDI 01
104.773;000.050;65;000.523;MIDI 01
104.773;000.050;65;000.523;MIDI 01
104.862;000.059;64;000.422;MIDI 01
104.862;000.059;64;000.422;MIDI 01
104.941;000.056;65;000.500;MIDI 01
104.941;000.056;65;000.500;MIDI 01
105.040;000.067;66;000.430;MIDI 01
105.040;000.067;66;000.430;MIDI 01
104.751;000.395;51;000.438;MIDI 01
104.751;000.395;51;000.438;MIDI 01
104.945;000.220;60;000.375;MIDI 01
104.945;000.220;60;000.375;MIDI 01
105.140;000.067;67;000.508;MIDI 01
105.140;000.067;67;000.508;MIDI 01
105.253;000.105;68;000.422;MIDI 01
105.253;000.105;68;000.422;MIDI 01
105.164;000.200;57;000.398;MIDI 01
105.164;000.200;57;000.398;MIDI 01
105.458;000.172;49;000.305;MIDI 01
105.458;000.172;49;000.305;MIDI 01
105.450;000.186;69;000.422;MIDI 01
105.450;000.186;69;000.422;MIDI 01
105.618;000.075;70;000.477;MIDI 01
105.618;000.075;70;000.477;MIDI 01
105.747;000.044;80;000.484;MIDI 01
105.747;000.044;80;000.484;MIDI 01
105.848;000.066;76;000.562;MIDI 01
105.848;000.066;76;000.562;MIDI 01
105.950;000.032;77;000.516;MIDI 01
105.950;000.032;77;000.516;MIDI 01
106.037;000.064;85;000.523;MIDI 01
106.037;000.064;85;000.523;MIDI 01
106.138;000.133;81;000.531;MIDI 01
106.138;000.133;81;000.531;MIDI 01
106.243;000.111;82;000.516;MIDI 01
106.243;000.111;82;000.516;MIDI 01
105.920;000.448;58;000.406;MIDI 01
105.920;000.448;58;000.406;MIDI 01
106.383;000.083;92;000.547;MIDI 01
106.383;000.083;92;000.547;MIDI 01
106.178;000.295;65;000.336;MIDI 01
106.178;000.295;65;000.336;MIDI 01
106.428;000.068;68;000.375;MIDI 01
106.428;000.068;68;000.375;MIDI 01
106.548;000.086;88;000.516;MIDI 01
106.548;000.086;88;000.516;MIDI 01
106.659;000.069;89;000.469;MIDI 01
106.659;000.069;89;000.469;MIDI 01
106.741;000.066;84;000.500;MIDI 01
106.741;000.066;84;000.500;MIDI 01
106.854;000.024;85;000.469;MIDI 01
106.854;000.024;85;000.469;MIDI 01
106.895;000.071;81;000.531;MIDI 01
106.895;000.071;81;000.531;MIDI 01
107.010;000.068;82;000.484;MIDI 01
107.010;000.068;82;000.484;MIDI 01
107.094;000.043;76;000.570;MIDI 01
107.094;000.043;76;000.570;MIDI 01
107.191;000.032;77;000.531;MIDI 01
107.191;000.032;77;000.531;MIDI 01
107.292;000.050;72;000.469;MIDI 01
107.292;000.050;72;000.469;MIDI 01
107.390;000.048;73;000.445;MIDI 01
107.390;000.048;73;000.445;MIDI 01
107.491;000.069;69;000.461;MIDI 01
107.491;000.069;69;000.461;MIDI 01
107.595;000.073;70;000.461;MIDI 01
107.595;000.073;70;000.461;MIDI 01
107.724;000.066;64;000.469;MIDI 01
107.724;000.066;64;000.469;MIDI 01
107.866;000.082;65;000.297;MIDI 01
107.866;000.082;65;000.297;MIDI 01
108.014;000.080;68;000.234;MIDI 01
108.014;000.080;68;000.234;MIDI 01
108.346;000.062;64;000.406;MIDI 01
108.346;000.062;64;000.406;MIDI 01
108.486;000.056;65;000.336;MIDI 01
108.486;000.056;65;000.336;MIDI 01
108.616;000.057;68;000.391;MIDI 01
108.616;000.057;68;000.391;MIDI 01
108.513;000.180;59;000.336;MIDI 01
108.513;000.180;59;000.336;MIDI 01
108.694;000.056;65;000.391;MIDI 01
108.694;000.056;65;000.391;MIDI 01
108.182;000.646;49;000.305;MIDI 01
108.182;000.646;49;000.305;MIDI 01
108.783;000.056;66;000.453;MIDI 01
108.783;000.056;66;000.453;MIDI 01
108.765;000.129;53;000.234;MIDI 01
108.765;000.129;53;000.234;MIDI 01
108.909;000.033;68;000.281;MIDI 01
108.909;000.033;68;000.281;MIDI 01
108.911;000.049;48;000.391;MIDI 01
108.911;000.049;48;000.391;MIDI 01
108.960;000.090;66;000.461;MIDI 01
108.960;000.090;66;000.461;MIDI 01
109.080;000.064;67;000.547;MIDI 01
109.080;000.064;67;000.547;MIDI 01
109.152;000.033;68;000.414;MIDI 01
109.152;000.033;68;000.414;MIDI 01
109.143;000.139;61;000.359;MIDI 01
109.143;000.139;61;000.359;MIDI 01
109.240;000.077;69;000.531;MIDI 01
109.240;000.077;69;000.531;MIDI 01
109.295;000.030;64;000.422;MIDI 01
109.295;000.030;64;000.422;MIDI 01
109.154;000.192;58;000.344;MIDI 01
109.154;000.192;58;000.344;MIDI 01
109.341;000.042;70;000.547;MIDI 01
109.341;000.042;70;000.547;MIDI 01
109.398;000.035;73;000.578;MIDI 01
109.398;000.035;73;000.578;MIDI 01
109.498;000.079;76;000.625;MIDI 01
109.498;000.079;76;000.625;MIDI 01
109.594;000.065;79;000.562;MIDI 01
109.594;000.065;79;000.562;MIDI 01
109.675;000.039;80;000.516;MIDI 01
109.675;000.039;80;000.516;MIDI 01
109.773;000.056;81;000.453;MIDI 01
109.773;000.056;81;000.453;MIDI 01
109.854;000.093;82;000.508;MIDI 01
109.854;000.093;82;000.508;MIDI 01
110.003;000.112;85;000.391;MIDI 01
110.003;000.112;85;000.391;MIDI 01
110.802;000.169;64;000.219;MIDI 01
110.802;000.169;64;000.219;MIDI 01
110.974;000.103;65;000.289;MIDI 01
110.974;000.103;65;000.289;MIDI 01
111.147;000.147;68;000.336;MIDI 01
111.147;000.147;68;000.336;MIDI 01
111.306;000.106;64;000.391;MIDI 01
111.306;000.106;64;000.391;MIDI 01
111.459;000.053;65;000.336;MIDI 01
111.459;000.053;65;000.336;MIDI 01
111.566;000.046;68;000.383;MIDI 01
111.566;000.046;68;000.383;MIDI 01
111.664;000.039;65;000.312;MIDI 01
111.664;000.039;65;000.312;MIDI 01
111.184;000.535;49;000.266;MIDI 01
111.184;000.535;49;000.266;MIDI 01
111.726;000.056;66;000.484;MIDI 01
111.726;000.056;66;000.484;MIDI 01
111.693;000.119;53;000.242;MIDI 01
111.693;000.119;53;000.242;MIDI 01
111.827;000.051;68;000.352;MIDI 01
111.827;000.051;68;000.352;MIDI 01
111.444;000.454;59;000.328;MIDI 01
111.444;000.454;59;000.328;MIDI 01
111.840;000.065;48;000.445;MIDI 01
111.840;000.065;48;000.445;MIDI 01
111.912;000.094;66;000.547;MIDI 01
111.912;000.094;66;000.547;MIDI 01
112.024;000.072;67;000.562;MIDI 01
112.024;000.072;67;000.562;MIDI 01
112.110;000.027;68;000.445;MIDI 01
112.110;000.027;68;000.445;MIDI 01
112.085;000.118;61;000.375;MIDI 01
112.085;000.118;61;000.375;MIDI 01
112.203;000.066;69;000.508;MIDI 01
112.203;000.066;69;000.508;MIDI 01
112.281;000.060;64;000.359;MIDI 01
112.281;000.060;64;000.359;MIDI 01
112.092;000.255;58;000.375;MIDI 01
112.092;000.255;58;000.375;MIDI 01
112.395;000.035;75;000.320;MIDI 01
112.395;000.035;75;000.320;MIDI 01
112.526;000.062;76;000.492;MIDI 01
112.526;000.062;76;000.492;MIDI 01
112.628;000.069;79;000.516;MIDI 01
112.628;000.069;79;000.516;MIDI 01
112.723;000.068;80;000.547;MIDI 01
112.723;000.068;80;000.547;MIDI 01
112.830;000.037;81;000.500;MIDI 01
112.830;000.037;81;000.500;MIDI 01
112.922;000.090;82;000.500;MIDI 01
112.922;000.090;82;000.500;MIDI 01
113.024;000.071;85;000.539;MIDI 01
113.024;000.071;85;000.539;MIDI 01
113.117;000.083;76;000.531;MIDI 01
113.117;000.083;76;000.531;MIDI 01
113.210;000.065;79;000.555;MIDI 01
113.210;000.065;79;000.555;MIDI 01
113.297;000.031;80;000.523;MIDI 01
113.297;000.031;80;000.523;MIDI 01
113.378;000.073;81;000.578;MIDI 01
113.378;000.073;81;000.578;MIDI 01
113.463;000.047;82;000.586;MIDI 01
113.463;000.047;82;000.586;MIDI 01
113.547;000.032;85;000.594;MIDI 01
113.547;000.032;85;000.594;MIDI 01
113.630;000.061;88;000.656;MIDI 01
113.630;000.061;88;000.656;MIDI 01
113.721;000.061;91;000.609;MIDI 01
113.721;000.061;91;000.609;MIDI 01
113.799;000.057;92;000.609;MIDI 01
113.799;000.057;92;000.609;MIDI 01
113.893;000.088;93;000.570;MIDI 01
113.893;000.088;93;000.570;MIDI 01
113.995;000.111;94;000.594;MIDI 01
113.995;000.111;94;000.594;MIDI 01
114.121;000.098;97;000.656;MIDI 01
114.121;000.098;97;000.656;MIDI 01
114.266;000.116;95;000.641;MIDI 01
114.266;000.116;95;000.641;MIDI 01
114.389;000.100;96;000.586;MIDI 01
114.389;000.100;96;000.586;MIDI 01
114.497;000.092;94;000.570;MIDI 01
114.497;000.092;94;000.570;MIDI 01
114.588;000.043;95;000.555;MIDI 01
114.588;000.043;95;000.555;MIDI 01
114.666;000.096;93;000.555;MIDI 01
114.666;000.096;93;000.555;MIDI 01
114.756;000.092;94;000.617;MIDI 01
114.756;000.092;94;000.617;MIDI 01
114.846;000.075;92;000.586;MIDI 01
114.846;000.075;92;000.586;MIDI 01
114.915;000.039;93;000.562;MIDI 01
114.915;000.039;93;000.562;MIDI 01
114.992;000.104;91;000.586;MIDI 01
114.992;000.104;91;000.586;MIDI 01
115.079;000.093;92;000.617;MIDI 01
115.079;000.093;92;000.617;MIDI 01
115.176;000.072;90;000.516;MIDI 01
115.176;000.072;90;000.516;MIDI 01
115.241;000.048;91;000.617;MIDI 01
115.241;000.048;91;000.617;MIDI 01
115.330;000.071;89;000.570;MIDI 01
115.330;000.071;89;000.570;MIDI 01
115.419;000.078;90;000.570;MIDI 01
115.419;000.078;90;000.570;MIDI 01
115.507;000.085;88;000.555;MIDI 01
115.507;000.085;88;000.555;MIDI 01
115.593;000.081;89;000.586;MIDI 01
115.593;000.081;89;000.586;MIDI 01
115.693;000.079;87;000.516;MIDI 01
115.693;000.079;87;000.516;MIDI 01
115.772;000.050;88;000.562;MIDI 01
115.772;000.050;88;000.562;MIDI 01
115.862;000.092;86;000.508;MIDI 01
115.862;000.092;86;000.508;MIDI 01
115.953;000.089;87;000.562;MIDI 01
115.953;000.089;87;000.562;MIDI 01
116.079;000.081;85;000.422;MIDI 01
116.079;000.081;85;000.422;MIDI 01
116.168;000.041;86;000.430;MIDI 01
116.168;000.041;86;000.430;MIDI 01
116.279;000.053;84;000.430;MIDI 01
116.279;000.053;84;000.430;MIDI 01
116.382;000.056;85;000.430;MIDI 01
116.382;000.056;85;000.430;MIDI 01
116.486;000.039;83;000.500;MIDI 01
116.486;000.039;83;000.500;MIDI 01
116.570;000.059;85;000.500;MIDI 01
116.570;000.059;85;000.500;MIDI 01
116.656;000.045;84;000.531;MIDI 01
116.656;000.045;84;000.531;MIDI 01
116.750;000.037;85;000.562;MIDI 01
116.750;000.037;85;000.562;MIDI 01
116.822;000.024;83;000.461;MIDI 01
116.822;000.024;83;000.461;MIDI 01
116.865;000.070;85;000.602;MIDI 01
116.865;000.070;85;000.602;MIDI 01
116.956;000.061;84;000.586;MIDI 01
116.956;000.061;84;000.586;MIDI 01
117.033;000.055;85;000.586;MIDI 01
117.033;000.055;85;000.586;MIDI 01
117.127;000.040;83;000.547;MIDI 01
117.127;000.040;83;000.547;MIDI 01
117.173;000.064;85;000.555;MIDI 01
117.173;000.064;85;000.555;MIDI 01
117.269;000.066;84;000.539;MIDI 01
117.269;000.066;84;000.539;MIDI 01
117.345;000.077;85;000.562;MIDI 01
117.345;000.077;85;000.562;MIDI 01
117.463;000.040;83;000.469;MIDI 01
117.463;000.040;83;000.469;MIDI 01
117.526;000.091;85;000.453;MIDI 01
117.526;000.091;85;000.453;MIDI 01
117.640;000.061;84;000.469;MIDI 01
117.640;000.061;84;000.469;MIDI 01
117.769;000.047;85;000.414;MIDI 01
117.769;000.047;85;000.414;MIDI 01
117.872;000.049;84;000.406;MIDI 01
117.872;000.049;84;000.406;MIDI 01
117.965;000.068;85;000.414;MIDI 01
117.965;000.068;85;000.414;MIDI 01
118.079;000.091;84;000.367;MIDI 01
118.079;000.091;84;000.367;MIDI 01
118.211;000.059;85;000.383;MIDI 01
118.211;000.059;85;000.383;MIDI 01
118.339;000.090;84;000.352;MIDI 01
118.339;000.090;84;000.352;MIDI 01
118.455;000.089;85;000.328;MIDI 01
118.455;000.089;85;000.328;MIDI 01
118.579;000.071;84;000.414;MIDI 01
118.579;000.071;84;000.414;MIDI 01
118.719;000.037;83;000.289;MIDI 01
118.719;000.037;83;000.289;MIDI 01
118.822;000.040;84;000.266;MIDI 01
118.822;000.040;84;000.266;MIDI 01
118.878;000.039;85;000.430;MIDI 01
118.878;000.039;85;000.430;MIDI 01
118.974;000.033;86;000.336;MIDI 01
118.974;000.033;86;000.336;MIDI 01
119.052;000.047;87;000.430;MIDI 01
119.052;000.047;87;000.430;MIDI 01
119.124;000.053;89;000.398;MIDI 01
119.124;000.053;89;000.398;MIDI 01
118.945;000.294;77;000.305;MIDI 01
118.945;000.294;77;000.305;MIDI 01
119.193;000.053;88;000.461;MIDI 01
119.193;000.053;88;000.461;MIDI 01
118.635;000.629;68;000.258;MIDI 01
118.635;000.629;68;000.258;MIDI 01
119.160;000.139;72;000.242;MIDI 01
119.160;000.139;72;000.242;MIDI 01
119.276;000.045;87;000.422;MIDI 01
119.276;000.045;87;000.422;MIDI 01
119.347;000.052;86;000.492;MIDI 01
119.347;000.052;86;000.492;MIDI 01
119.429;000.079;85;000.461;MIDI 01
119.429;000.079;85;000.461;MIDI 01
119.513;000.028;84;000.477;MIDI 01
119.513;000.028;84;000.477;MIDI 01
119.576;000.043;83;000.477;MIDI 01
119.576;000.043;83;000.477;MIDI 01
119.508;000.214;75;000.352;MIDI 01
119.508;000.214;75;000.352;MIDI 01
119.678;000.075;82;000.445;MIDI 01
119.678;000.075;82;000.445;MIDI 01
119.321;000.459;67;000.359;MIDI 01
119.321;000.459;67;000.359;MIDI 01
119.782;000.029;81;000.320;MIDI 01
119.782;000.029;81;000.320;MIDI 01
119.688;000.141;70;000.359;MIDI 01
119.688;000.141;70;000.359;MIDI 01
119.829;000.073;80;000.445;MIDI 01
119.829;000.073;80;000.445;MIDI 01
119.923;000.046;81;000.453;MIDI 01
119.923;000.046;81;000.453;MIDI 01
119.976;000.032;82;000.453;MIDI 01
119.976;000.032;82;000.453;MIDI 01
120.040;000.053;83;000.477;MIDI 01
120.040;000.053;83;000.477;MIDI 01
120.131;000.053;84;000.438;MIDI 01
120.131;000.053;84;000.438;MIDI 01
120.045;000.154;73;000.289;MIDI 01
120.045;000.154;73;000.289;MIDI 01
120.195;000.086;87;000.438;MIDI 01
120.195;000.086;87;000.438;MIDI 01
120.209;000.102;68;000.266;MIDI 01
120.209;000.102;68;000.266;MIDI 01
119.858;000.491;65;000.328;MIDI 01
119.858;000.491;65;000.328;MIDI 01
120.298;000.082;85;000.406;MIDI 01
120.298;000.082;85;000.406;MIDI 01
120.384;000.052;84;000.438;MIDI 01
120.384;000.052;84;000.438;MIDI 01
120.481;000.092;83;000.469;MIDI 01
120.481;000.092;83;000.469;MIDI 01
120.584;000.069;82;000.453;MIDI 01
120.584;000.069;82;000.453;MIDI 01
120.668;000.065;81;000.484;MIDI 01
120.668;000.065;81;000.484;MIDI 01
120.375;000.378;64;000.344;MIDI 01
120.375;000.378;64;000.344;MIDI 01
120.759;000.050;80;000.445;MIDI 01
120.759;000.050;80;000.445;MIDI 01
120.848;000.033;79;000.414;MIDI 01
120.848;000.033;79;000.414;MIDI 01
120.596;000.297;72;000.305;MIDI 01
120.596;000.297;72;000.305;MIDI 01
120.820;000.075;67;000.219;MIDI 01
120.820;000.075;67;000.219;MIDI 01
120.922;000.079;78;000.453;MIDI 01
120.922;000.079;78;000.453;MIDI 01
121.022;000.027;77;000.445;MIDI 01
121.022;000.027;77;000.445;MIDI 01
121.099;000.050;76;000.453;MIDI 01
121.099;000.050;76;000.453;MIDI 01
121.173;000.039;77;000.406;MIDI 01
121.173;000.039;77;000.406;MIDI 01
120.975;000.272;63;000.289;MIDI 01
120.975;000.272;63;000.289;MIDI 01
121.234;000.053;78;000.422;MIDI 01
121.234;000.053;78;000.422;MIDI 01
121.334;000.039;79;000.484;MIDI 01
121.334;000.039;79;000.484;MIDI 01
121.293;000.110;69;000.320;MIDI 01
121.293;000.110;69;000.320;MIDI 01
121.112;000.304;72;000.289;MIDI 01
121.112;000.304;72;000.289;MIDI 01
121.430;000.036;80;000.414;MIDI 01
121.430;000.036;80;000.414;MIDI 01
121.510;000.036;81;000.523;MIDI 01
121.510;000.036;81;000.523;MIDI 01
121.599;000.025;82;000.406;MIDI 01
121.599;000.025;82;000.406;MIDI 01
121.666;000.053;83;000.523;MIDI 01
121.666;000.053;83;000.523;MIDI 01
121.753;000.041;84;000.484;MIDI 01
121.753;000.041;84;000.484;MIDI 01
121.447;000.381;62;000.375;MIDI 01
121.447;000.381;62;000.375;MIDI 01
121.819;000.053;85;000.492;MIDI 01
121.819;000.053;85;000.492;MIDI 01
121.658;000.216;70;000.336;MIDI 01
121.658;000.216;70;000.336;MIDI 01
121.907;000.032;86;000.492;MIDI 01
121.907;000.032;86;000.492;MIDI 01
121.834;000.108;65;000.320;MIDI 01
121.834;000.108;65;000.320;MIDI 01
121.998;000.035;87;000.453;MIDI 01
121.998;000.035;87;000.453;MIDI 01
122.070;000.055;88;000.570;MIDI 01
122.070;000.055;88;000.570;MIDI 01
122.174;000.042;89;000.461;MIDI 01
122.174;000.042;89;000.461;MIDI 01
121.986;000.340;61;000.414;MIDI 01
121.986;000.340;61;000.414;MIDI 01
122.241;000.107;92;000.516;MIDI 01
122.241;000.107;92;000.516;MIDI 01
122.345;000.078;91;000.492;MIDI 01
122.345;000.078;91;000.492;MIDI 01
122.185;000.269;71;000.336;MIDI 01
122.185;000.269;71;000.336;MIDI 01
122.373;000.121;65;000.305;MIDI 01
122.373;000.121;65;000.305;MIDI 01
122.430;000.072;90;000.555;MIDI 01
122.430;000.072;90;000.555;MIDI 01
122.515;000.090;89;000.523;MIDI 01
122.515;000.090;89;000.523;MIDI 01
122.603;000.074;88;000.562;MIDI 01
122.603;000.074;88;000.562;MIDI 01
122.693;000.058;87;000.570;MIDI 01
122.693;000.058;87;000.570;MIDI 01
122.786;000.039;86;000.508;MIDI 01
122.786;000.039;86;000.508;MIDI 01
122.740;000.119;72;000.422;MIDI 01
122.740;000.119;72;000.422;MIDI 01
122.532;000.388;60;000.445;MIDI 01
122.532;000.388;60;000.445;MIDI 01
122.870;000.094;85;000.477;MIDI 01
122.870;000.094;85;000.477;MIDI 01
122.963;000.068;84;000.562;MIDI 01
122.963;000.068;84;000.562;MIDI 01
122.945;000.114;64;000.289;MIDI 01
122.945;000.114;64;000.289;MIDI 01
122.922;000.151;67;000.305;MIDI 01
122.922;000.151;67;000.305;MIDI 01
123.062;000.056;83;000.477;MIDI 01
123.062;000.056;83;000.477;MIDI 01
123.092;000.096;58;000.547;MIDI 01
123.092;000.096;58;000.547;MIDI 01
123.160;000.065;84;000.484;MIDI 01
123.160;000.065;84;000.484;MIDI 01
123.239;000.084;85;000.547;MIDI 01
123.239;000.084;85;000.547;MIDI 01
123.309;000.070;72;000.453;MIDI 01
123.309;000.070;72;000.453;MIDI 01
123.358;000.045;84;000.492;MIDI 01
123.358;000.045;84;000.492;MIDI 01
123.442;000.086;85;000.531;MIDI 01
123.442;000.086;85;000.531;MIDI 01
123.483;000.060;67;000.422;MIDI 01
123.483;000.060;67;000.422;MIDI 01
123.516;000.083;64;000.359;MIDI 01
123.516;000.083;64;000.359;MIDI 01
123.528;000.108;84;000.531;MIDI 01
123.528;000.108;84;000.531;MIDI 01
123.664;000.068;83;000.500;MIDI 01
123.664;000.068;83;000.500;MIDI 01
123.701;000.120;56;000.531;MIDI 01
123.701;000.120;56;000.531;MIDI 01
123.769;000.055;84;000.477;MIDI 01
123.769;000.055;84;000.477;MIDI 01
123.851;000.032;85;000.539;MIDI 01
123.851;000.032;85;000.539;MIDI 01
123.948;000.037;86;000.398;MIDI 01
123.948;000.037;86;000.398;MIDI 01
123.965;000.055;72;000.508;MIDI 01
123.965;000.055;72;000.508;MIDI 01
124.010;000.056;87;000.547;MIDI 01
124.010;000.056;87;000.547;MIDI 01
124.081;000.079;88;000.547;MIDI 01
124.081;000.079;88;000.547;MIDI 01
124.157;000.054;65;000.398;MIDI 01
124.157;000.054;65;000.398;MIDI 01
124.164;000.095;91;000.516;MIDI 01
124.164;000.095;91;000.516;MIDI 01
124.227;000.086;89;000.547;MIDI 01
124.227;000.086;89;000.547;MIDI 01
124.295;000.041;88;000.531;MIDI 01
124.295;000.041;88;000.531;MIDI 01
124.265;000.079;55;000.500;MIDI 01
124.265;000.079;55;000.500;MIDI 01
124.340;000.058;87;000.555;MIDI 01
124.340;000.058;87;000.555;MIDI 01
124.411;000.084;86;000.539;MIDI 01
124.411;000.084;86;000.539;MIDI 01
124.502;000.052;70;000.484;MIDI 01
124.502;000.052;70;000.484;MIDI 01
124.496;000.080;85;000.578;MIDI 01
124.496;000.080;85;000.578;MIDI 01
124.586;000.028;84;000.500;MIDI 01
124.586;000.028;84;000.500;MIDI 01
124.629;000.093;83;000.531;MIDI 01
124.629;000.093;83;000.531;MIDI 01
124.680;000.075;63;000.328;MIDI 01
124.680;000.075;63;000.328;MIDI 01
124.715;000.073;82;000.562;MIDI 01
124.715;000.073;82;000.562;MIDI 01
124.806;000.026;81;000.367;MIDI 01
124.806;000.026;81;000.367;MIDI 01
124.768;000.098;53;000.500;MIDI 01
124.768;000.098;53;000.500;MIDI 01
124.842;000.074;80;000.539;MIDI 01
124.842;000.074;80;000.539;MIDI 01
124.920;000.057;81;000.570;MIDI 01
124.920;000.057;81;000.570;MIDI 01
124.981;000.032;82;000.492;MIDI 01
124.981;000.032;82;000.492;MIDI 01
125.009;000.049;68;000.414;MIDI 01
125.009;000.049;68;000.414;MIDI 01
125.042;000.056;83;000.531;MIDI 01
125.042;000.056;83;000.531;MIDI 01
125.119;000.054;84;000.523;MIDI 01
125.119;000.054;84;000.523;MIDI 01
125.172;000.101;87;000.547;MIDI 01
125.172;000.101;87;000.547;MIDI 01
125.176;000.107;61;000.422;MIDI 01
125.176;000.107;61;000.422;MIDI 01
125.243;000.109;85;000.609;MIDI 01
125.243;000.109;85;000.609;MIDI 01
125.307;000.090;52;000.469;MIDI 01
125.307;000.090;52;000.469;MIDI 01
125.339;000.069;84;000.523;MIDI 01
125.339;000.069;84;000.523;MIDI 01
125.404;000.098;83;000.586;MIDI 01
125.404;000.098;83;000.586;MIDI 01
125.499;000.106;82;000.570;MIDI 01
125.499;000.106;82;000.570;MIDI 01
125.526;000.093;67;000.477;MIDI 01
125.526;000.093;67;000.477;MIDI 01
125.569;000.077;81;000.562;MIDI 01
125.569;000.077;81;000.562;MIDI 01
125.648;000.066;80;000.523;MIDI 01
125.648;000.066;80;000.523;MIDI 01
125.714;000.093;79;000.562;MIDI 01
125.714;000.093;79;000.562;MIDI 01
125.706;000.133;60;000.414;MIDI 01
125.706;000.133;60;000.414;MIDI 01
125.836;000.080;51;000.523;MIDI 01
125.836;000.080;51;000.523;MIDI 01
125.808;000.110;78;000.602;MIDI 01
125.808;000.110;78;000.602;MIDI 01
125.914;000.079;77;000.578;MIDI 01
125.914;000.079;77;000.578;MIDI 01
126.005;000.091;76;000.555;MIDI 01
126.005;000.091;76;000.555;MIDI 01
126.105;000.079;77;000.562;MIDI 01
126.105;000.079;77;000.562;MIDI 01
126.093;000.178;69;000.477;MIDI 01
126.093;000.178;69;000.477;MIDI 01
126.197;000.089;78;000.539;MIDI 01
126.197;000.089;78;000.539;MIDI 01
126.298;000.099;79;000.570;MIDI 01
126.298;000.099;79;000.570;MIDI 01
126.380;000.066;65;000.461;MIDI 01
126.380;000.066;65;000.461;MIDI 01
126.410;000.055;60;000.383;MIDI 01
126.410;000.055;60;000.383;MIDI 01
126.408;000.102;80;000.602;MIDI 01
126.408;000.102;80;000.602;MIDI 01
126.773;000.132;83;000.391;MIDI 01
126.773;000.132;83;000.391;MIDI 01
126.754;000.288;81;000.570;MIDI 01
126.754;000.288;81;000.570;MIDI 01
126.764;000.290;49;000.570;MIDI 01
126.764;000.290;49;000.570;MIDI 01
127.020;000.125;82;000.477;MIDI 01
127.020;000.125;82;000.477;MIDI 01
127.177;000.060;92;000.555;MIDI 01
127.177;000.060;92;000.555;MIDI 01
127.296;000.086;88;000.562;MIDI 01
127.296;000.086;88;000.562;MIDI 01
127.402;000.048;89;000.547;MIDI 01
127.402;000.048;89;000.547;MIDI 01
127.439;000.125;61;000.477;MIDI 01
127.439;000.125;61;000.477;MIDI 01
127.484;000.083;97;000.578;MIDI 01
127.484;000.083;97;000.578;MIDI 01
127.592;000.177;93;000.625;MIDI 01
127.592;000.177;93;000.625;MIDI 01
127.634;000.147;70;000.469;MIDI 01
127.634;000.147;70;000.469;MIDI 01
127.695;000.136;94;000.625;MIDI 01
127.695;000.136;94;000.625;MIDI 01
127.833;000.077;104;000.586;MIDI 01
127.833;000.077;104;000.586;MIDI 01
127.981;000.101;100;000.555;MIDI 01
127.981;000.101;100;000.555;MIDI 01
127.857;000.245;77;000.461;MIDI 01
127.857;000.245;77;000.461;MIDI 01
128.128;000.043;80;000.438;MIDI 01
128.128;000.043;80;000.438;MIDI 01
128.106;000.090;101;000.492;MIDI 01
128.106;000.090;101;000.492;MIDI 01
128.215;000.054;96;000.406;MIDI 01
128.215;000.054;96;000.406;MIDI 01
128.360;000.098;93;000.586;MIDI 01
128.360;000.098;93;000.586;MIDI 01
128.495;000.032;94;000.609;MIDI 01
128.495;000.032;94;000.609;MIDI 01
128.613;000.043;88;000.523;MIDI 01
128.613;000.043;88;000.523;MIDI 01
128.710;000.027;89;000.531;MIDI 01
128.710;000.027;89;000.531;MIDI 01
128.806;000.053;84;000.539;MIDI 01
128.806;000.053;84;000.539;MIDI 01
128.901;000.088;85;000.539;MIDI 01
128.901;000.088;85;000.539;MIDI 01
128.996;000.085;81;000.422;MIDI 01
128.996;000.085;81;000.422;MIDI 01
129.083;000.046;82;000.531;MIDI 01
129.083;000.046;82;000.531;MIDI 01
129.195;000.046;76;000.555;MIDI 01
129.195;000.046;76;000.555;MIDI 01
129.294;000.123;77;000.492;MIDI 01
129.294;000.123;77;000.492;MIDI 01
129.411;000.094;72;000.508;MIDI 01
129.411;000.094;72;000.508;MIDI 01
129.541;000.100;73;000.555;MIDI 01
129.541;000.100;73;000.555;MIDI 01
129.684;000.076;69;000.492;MIDI 01
129.684;000.076;69;000.492;MIDI 01
129.809;000.103;70;000.414;MIDI 01
129.809;000.103;70;000.414;MIDI 01
129.940;000.082;64;000.508;MIDI 01
129.940;000.082;64;000.508;MIDI 01
130.093;000.189;65;000.453;MIDI 01
130.093;000.189;65;000.453;MIDI 01
130.268;000.211;66;000.508;MIDI 01
130.268;000.211;66;000.508;MIDI 01
130.575;000.267;39;000.344;MIDI 01
130.575;000.267;39;000.344;MIDI 01
130.879;000.060;61;000.430;MIDI 01
130.879;000.060;61;000.430;MIDI 01
131.083;000.080;55;000.305;MIDI 01
131.083;000.080;55;000.305;MIDI 01
131.092;000.089;63;000.461;MIDI 01
131.092;000.089;63;000.461;MIDI 01
130.554;000.648;67;000.492;MIDI 01
130.554;000.648;67;000.492;MIDI 01
131.359;000.043;51;000.336;MIDI 01
131.359;000.043;51;000.336;MIDI 01
131.390;000.105;61;000.531;MIDI 01
131.390;000.105;61;000.531;MIDI 01
131.226;000.334;72;000.508;MIDI 01
131.226;000.334;72;000.508;MIDI 01
131.536;000.180;70;000.570;MIDI 01
131.536;000.180;70;000.570;MIDI 01
131.890;000.223;60;000.391;MIDI 01
131.890;000.223;60;000.391;MIDI 01
131.899;000.256;44;000.328;MIDI 01
131.899;000.256;44;000.328;MIDI 01
131.879;000.406;68;000.469;MIDI 01
131.879;000.406;68;000.469;MIDI 01
132.182;000.151;51;000.367;MIDI 01
132.182;000.151;51;000.367;MIDI 01
132.369;000.067;56;000.352;MIDI 01
132.369;000.067;56;000.352;MIDI 01
132.502;000.059;60;000.406;MIDI 01
132.502;000.059;60;000.406;MIDI 01
132.725;000.036;63;000.375;MIDI 01
132.725;000.036;63;000.375;MIDI 01
132.819;000.048;65;000.227;MIDI 01
132.819;000.048;65;000.227;MIDI 01
132.908;000.029;68;000.391;MIDI 01
132.908;000.029;68;000.391;MIDI 01
132.894;000.046;63;000.391;MIDI 01
132.894;000.046;63;000.391;MIDI 01
132.980;000.042;65;000.352;MIDI 01
132.980;000.042;65;000.352;MIDI 01
132.989;000.040;75;000.453;MIDI 01
132.989;000.040;75;000.453;MIDI 01
133.066;000.036;63;000.438;MIDI 01
133.066;000.036;63;000.438;MIDI 01
133.133;000.048;65;000.391;MIDI 01
133.133;000.048;65;000.391;MIDI 01
133.216;000.046;63;000.445;MIDI 01
133.216;000.046;63;000.445;MIDI 01
133.079;000.259;84;000.508;MIDI 01
133.079;000.259;84;000.508;MIDI 01
133.398;000.045;63;000.359;MIDI 01
133.398;000.045;63;000.359;MIDI 01
133.286;000.174;65;000.359;MIDI 01
133.286;000.174;65;000.359;MIDI 01
133.426;000.040;77;000.414;MIDI 01
133.426;000.040;77;000.414;MIDI 01
133.520;000.106;85;000.484;MIDI 01
133.520;000.106;85;000.484;MIDI 01
133.640;000.028;80;000.508;MIDI 01
133.640;000.028;80;000.508;MIDI 01
133.722;000.083;89;000.602;MIDI 01
133.722;000.083;89;000.602;MIDI 01
133.844;000.041;79;000.516;MIDI 01
133.844;000.041;79;000.516;MIDI 01
133.905;000.052;87;000.570;MIDI 01
133.905;000.052;87;000.570;MIDI 01
134.044;000.036;72;000.562;MIDI 01
134.044;000.036;72;000.562;MIDI 01
134.132;000.024;81;000.438;MIDI 01
134.132;000.024;81;000.438;MIDI 01
134.229;000.044;73;000.492;MIDI 01
134.229;000.044;73;000.492;MIDI 01
134.305;000.066;82;000.539;MIDI 01
134.305;000.066;82;000.539;MIDI 01
134.441;000.036;67;000.547;MIDI 01
134.441;000.036;67;000.547;MIDI 01
134.596;000.069;65;000.359;MIDI 01
134.596;000.069;65;000.359;MIDI 01
134.684;000.086;63;000.289;MIDI 01
134.684;000.086;63;000.289;MIDI 01
134.628;000.185;85;000.531;MIDI 01
134.628;000.185;85;000.531;MIDI 01
134.797;000.077;65;000.508;MIDI 01
134.797;000.077;65;000.508;MIDI 01
134.889;000.097;63;000.445;MIDI 01
134.889;000.097;63;000.445;MIDI 01
134.995;000.025;61;000.492;MIDI 01
134.995;000.025;61;000.492;MIDI 01
135.180;000.058;55;000.438;MIDI 01
135.180;000.058;55;000.438;MIDI 01
135.326;000.191;51;000.344;MIDI 01
135.326;000.191;51;000.344;MIDI 01
135.528;000.123;44;000.391;MIDI 01
135.528;000.123;44;000.391;MIDI 01
135.731;000.089;51;000.312;MIDI 01
135.731;000.089;51;000.312;MIDI 01
135.865;000.037;68;000.352;MIDI 01
135.865;000.037;68;000.352;MIDI 01
134.511;001.400;77;000.500;MIDI 01
134.511;001.400;77;000.500;MIDI 01
135.882;000.058;56;000.359;MIDI 01
135.882;000.058;56;000.359;MIDI 01
135.957;000.053;74;000.477;MIDI 01
135.957;000.053;74;000.477;MIDI 01
136.010;000.053;60;000.406;MIDI 01
136.010;000.053;60;000.406;MIDI 01
136.060;000.101;83;000.461;MIDI 01
136.060;000.101;83;000.461;MIDI 01
136.240;000.042;63;000.266;MIDI 01
136.240;000.042;63;000.266;MIDI 01
136.246;000.035;75;000.469;MIDI 01
136.246;000.035;75;000.469;MIDI 01
136.292;000.078;65;000.359;MIDI 01
136.292;000.078;65;000.359;MIDI 01
136.352;000.084;84;000.492;MIDI 01
136.352;000.084;84;000.492;MIDI 01
136.396;000.067;63;000.445;MIDI 01
136.396;000.067;63;000.445;MIDI 01
136.480;000.026;76;000.492;MIDI 01
136.480;000.026;76;000.492;MIDI 01
136.492;000.108;65;000.320;MIDI 01
136.492;000.108;65;000.320;MIDI 01
136.582;000.028;63;000.336;MIDI 01
136.582;000.028;63;000.336;MIDI 01
136.593;000.062;84;000.484;MIDI 01
136.593;000.062;84;000.484;MIDI 01
136.699;000.051;79;000.508;MIDI 01
136.699;000.051;79;000.508;MIDI 01
136.778;000.107;87;000.617;MIDI 01
136.778;000.107;87;000.617;MIDI 01
136.892;000.021;77;000.500;MIDI 01
136.892;000.021;77;000.500;MIDI 01
136.964;000.059;85;000.469;MIDI 01
136.964;000.059;85;000.469;MIDI 01
137.088;000.032;75;000.492;MIDI 01
137.088;000.032;75;000.492;MIDI 01
137.171;000.067;84;000.477;MIDI 01
137.171;000.067;84;000.477;MIDI 01
137.269;000.070;72;000.578;MIDI 01
137.269;000.070;72;000.578;MIDI 01
137.355;000.089;81;000.586;MIDI 01
137.355;000.089;81;000.586;MIDI 01
137.488;000.048;73;000.570;MIDI 01
137.488;000.048;73;000.570;MIDI 01
137.568;000.023;82;000.586;MIDI 01
137.568;000.023;82;000.586;MIDI 01
137.672;000.029;67;000.586;MIDI 01
137.672;000.029;67;000.586;MIDI 01
137.686;000.050;82;000.141;MIDI 01
137.686;000.050;82;000.141;MIDI 01
137.725;000.081;74;000.484;MIDI 01
137.725;000.081;74;000.484;MIDI 01
137.778;000.059;65;000.375;MIDI 01
137.778;000.059;65;000.375;MIDI 01
137.865;000.059;63;000.438;MIDI 01
137.865;000.059;63;000.438;MIDI 01
137.828;000.175;83;000.609;MIDI 01
137.828;000.175;83;000.609;MIDI 01
137.978;000.088;65;000.445;MIDI 01
137.978;000.088;65;000.445;MIDI 01
138.005;000.115;77;000.555;MIDI 01
138.005;000.115;77;000.555;MIDI 01
138.048;000.102;63;000.461;MIDI 01
138.048;000.102;63;000.461;MIDI 01
138.154;000.039;61;000.500;MIDI 01
138.154;000.039;61;000.500;MIDI 01
138.164;000.091;85;000.617;MIDI 01
138.164;000.091;85;000.617;MIDI 01
138.331;000.052;55;000.484;MIDI 01
138.331;000.052;55;000.484;MIDI 01
138.305;000.082;75;000.570;MIDI 01
138.305;000.082;75;000.570;MIDI 01
138.461;000.064;51;000.445;MIDI 01
138.461;000.064;51;000.445;MIDI 01
138.441;000.092;84;000.578;MIDI 01
138.441;000.092;84;000.578;MIDI 01
138.693;000.111;44;000.391;MIDI 01
138.693;000.111;44;000.391;MIDI 01
138.664;000.152;72;000.469;MIDI 01
138.664;000.152;72;000.469;MIDI 01
138.659;000.281;80;000.523;MIDI 01
138.659;000.281;80;000.523;MIDI 01
138.849;000.128;51;000.477;MIDI 01
138.849;000.128;51;000.477;MIDI 01
138.975;000.057;56;000.484;MIDI 01
138.975;000.057;56;000.484;MIDI 01
139.085;000.048;60;000.438;MIDI 01
139.085;000.048;60;000.438;MIDI 01
139.184;000.043;65;000.477;MIDI 01
139.184;000.043;65;000.477;MIDI 01
139.273;000.045;63;000.469;MIDI 01
139.273;000.045;63;000.469;MIDI 01
139.374;000.032;80;000.453;MIDI 01
139.374;000.032;80;000.453;MIDI 01
139.342;000.081;65;000.516;MIDI 01
139.342;000.081;65;000.516;MIDI 01
139.444;000.075;63;000.477;MIDI 01
139.444;000.075;63;000.477;MIDI 01
139.443;000.078;87;000.570;MIDI 01
139.443;000.078;87;000.570;MIDI 01
139.534;000.081;65;000.414;MIDI 01
139.534;000.081;65;000.414;MIDI 01
139.642;000.049;63;000.484;MIDI 01
139.642;000.049;63;000.484;MIDI 01
139.715;000.030;65;000.445;MIDI 01
139.715;000.030;65;000.445;MIDI 01
139.534;000.218;96;000.562;MIDI 01
139.534;000.218;96;000.562;MIDI 01
139.860;000.036;85;000.445;MIDI 01
139.860;000.036;85;000.445;MIDI 01
139.863;000.045;89;000.438;MIDI 01
139.863;000.045;89;000.438;MIDI 01
139.957;000.055;97;000.602;MIDI 01
139.957;000.055;97;000.602;MIDI 01
140.066;000.042;89;000.539;MIDI 01
140.066;000.042;89;000.539;MIDI 01
140.169;000.029;101;000.609;MIDI 01
140.169;000.029;101;000.609;MIDI 01
140.101;000.111;92;000.406;MIDI 01
140.101;000.111;92;000.406;MIDI 01
140.323;000.028;87;000.445;MIDI 01
140.323;000.028;87;000.445;MIDI 01
140.290;000.096;91;000.523;MIDI 01
140.290;000.096;91;000.523;MIDI 01
140.379;000.045;99;000.656;MIDI 01
140.379;000.045;99;000.656;MIDI 01
140.573;000.027;84;000.391;MIDI 01
140.573;000.027;84;000.391;MIDI 01
140.533;000.081;85;000.367;MIDI 01
140.533;000.081;85;000.367;MIDI 01
140.626;000.053;93;000.664;MIDI 01
140.626;000.053;93;000.664;MIDI 01
140.756;000.039;85;000.500;MIDI 01
140.756;000.039;85;000.500;MIDI 01
140.776;000.041;82;000.266;MIDI 01
140.776;000.041;82;000.266;MIDI 01
140.825;000.031;94;000.688;MIDI 01
140.825;000.031;94;000.688;MIDI 01
140.939;000.018;79;000.547;MIDI 01
140.939;000.018;79;000.547;MIDI 01
140.991;000.047;81;000.211;MIDI 01
140.991;000.047;81;000.211;MIDI 01
140.995;000.051;65;000.312;MIDI 01
140.995;000.051;65;000.312;MIDI 01
141.092;000.065;63;000.391;MIDI 01
141.092;000.065;63;000.391;MIDI 01
140.993;000.254;89;000.445;MIDI 01
140.993;000.254;89;000.445;MIDI 01
141.184;000.086;65;000.438;MIDI 01
141.184;000.086;65;000.438;MIDI 01
141.115;000.199;97;000.594;MIDI 01
141.115;000.199;97;000.594;MIDI 01
141.270;000.052;63;000.500;MIDI 01
141.270;000.052;63;000.500;MIDI 01
141.315;000.060;65;000.133;MIDI 01
141.315;000.060;65;000.133;MIDI 01
141.481;000.030;61;000.430;MIDI 01
141.481;000.030;61;000.430;MIDI 01
141.646;000.053;55;000.391;MIDI 01
141.646;000.053;55;000.391;MIDI 01
141.802;000.207;51;000.336;MIDI 01
141.802;000.207;51;000.336;MIDI 01
142.018;000.146;44;000.383;MIDI 01
142.018;000.146;44;000.383;MIDI 01
142.230;000.126;51;000.336;MIDI 01
142.230;000.126;51;000.336;MIDI 01
142.393;000.055;83;000.328;MIDI 01
142.393;000.055;83;000.328;MIDI 01
142.400;000.051;56;000.391;MIDI 01
142.400;000.051;56;000.391;MIDI 01
142.380;000.139;86;000.367;MIDI 01
142.380;000.139;86;000.367;MIDI 01
142.519;000.056;60;000.406;MIDI 01
142.519;000.056;60;000.406;MIDI 01
141.271;001.309;89;000.156;MIDI 01
141.271;001.309;89;000.156;MIDI 01
142.575;000.046;95;000.500;MIDI 01
142.575;000.046;95;000.500;MIDI 01
142.684;000.041;84;000.430;MIDI 01
142.684;000.041;84;000.430;MIDI 01
142.691;000.054;87;000.438;MIDI 01
142.691;000.054;87;000.438;MIDI 01
142.742;000.034;63;000.344;MIDI 01
142.742;000.034;63;000.344;MIDI 01
142.801;000.041;96;000.578;MIDI 01
142.801;000.041;96;000.578;MIDI 01
142.785;000.090;65;000.344;MIDI 01
142.785;000.090;65;000.344;MIDI 01
142.896;000.052;84;000.492;MIDI 01
142.896;000.052;84;000.492;MIDI 01
142.901;000.078;88;000.523;MIDI 01
142.901;000.078;88;000.523;MIDI 01
142.894;000.093;63;000.469;MIDI 01
142.894;000.093;63;000.469;MIDI 01
143.011;000.022;96;000.523;MIDI 01
143.011;000.022;96;000.523;MIDI 01
143.002;000.073;65;000.438;MIDI 01
143.002;000.073;65;000.438;MIDI 01
143.072;000.029;63;000.430;MIDI 01
143.072;000.029;63;000.430;MIDI 01
143.156;000.036;87;000.305;MIDI 01
143.156;000.036;87;000.305;MIDI 01
143.117;000.080;91;000.586;MIDI 01
143.117;000.080;91;000.586;MIDI 01
143.230;000.032;99;000.602;MIDI 01
143.230;000.032;99;000.602;MIDI 01
143.354;000.026;85;000.461;MIDI 01
143.354;000.026;85;000.461;MIDI 01
143.368;000.032;89;000.414;MIDI 01
143.368;000.032;89;000.414;MIDI 01
143.450;000.032;97;000.531;MIDI 01
143.450;000.032;97;000.531;MIDI 01
143.548;000.046;84;000.523;MIDI 01
143.548;000.046;84;000.523;MIDI 01
143.550;000.073;87;000.562;MIDI 01
143.550;000.073;87;000.562;MIDI 01
143.654;000.026;96;000.586;MIDI 01
143.654;000.026;96;000.586;MIDI 01
143.784;000.026;81;000.523;MIDI 01
143.784;000.026;81;000.523;MIDI 01
143.790;000.065;84;000.508;MIDI 01
143.790;000.065;84;000.508;MIDI 01
143.884;000.047;93;000.578;MIDI 01
143.884;000.047;93;000.578;MIDI 01
144.037;000.030;85;000.406;MIDI 01
144.037;000.030;85;000.406;MIDI 01
144.037;000.037;82;000.281;MIDI 01
144.037;000.037;82;000.281;MIDI 01
144.117;000.031;94;000.555;MIDI 01
144.117;000.031;94;000.555;MIDI 01
144.238;000.048;83;000.492;MIDI 01
144.238;000.048;83;000.492;MIDI 01
144.244;000.103;86;000.508;MIDI 01
144.244;000.103;86;000.508;MIDI 01
144.339;000.068;63;000.367;MIDI 01
144.339;000.068;63;000.367;MIDI 01
144.358;000.050;95;000.539;MIDI 01
144.358;000.050;95;000.539;MIDI 01
144.537;000.039;85;000.312;MIDI 01
144.537;000.039;85;000.312;MIDI 01
144.414;000.195;65;000.352;MIDI 01
144.414;000.195;65;000.352;MIDI 01
144.515;000.134;89;000.438;MIDI 01
144.515;000.134;89;000.438;MIDI 01
144.545;000.127;63;000.383;MIDI 01
144.545;000.127;63;000.383;MIDI 01
144.706;000.051;61;000.375;MIDI 01
144.706;000.051;61;000.375;MIDI 01
144.688;000.097;97;000.500;MIDI 01
144.688;000.097;97;000.500;MIDI 01
144.890;000.095;84;000.469;MIDI 01
144.890;000.095;84;000.469;MIDI 01
144.931;000.092;55;000.359;MIDI 01
144.931;000.092;55;000.359;MIDI 01
144.917;000.145;87;000.391;MIDI 01
144.917;000.145;87;000.391;MIDI 01
145.127;000.035;96;000.469;MIDI 01
145.127;000.035;96;000.469;MIDI 01
145.141;000.040;51;000.359;MIDI 01
145.141;000.040;51;000.359;MIDI 01
145.499;000.070;84;000.367;MIDI 01
145.499;000.070;84;000.367;MIDI 01
145.531;000.140;80;000.125;MIDI 01
145.531;000.140;80;000.125;MIDI 01
145.573;000.169;84;000.031;MIDI 01
145.573;000.169;84;000.031;MIDI 01
145.557;000.195;92;000.461;MIDI 01
145.557;000.195;92;000.461;MIDI 01
145.541;001.026;44;000.211;MIDI 01
145.541;001.026;44;000.211;MIDI 01
146.200;000.398;59;000.438;MIDI 01
146.200;000.398;59;000.438;MIDI 01
146.170;000.463;51;000.250;MIDI 01
146.170;000.463;51;000.250;MIDI 01
146.569;000.101;56;000.352;MIDI 01
146.569;000.101;56;000.352;MIDI 01
146.565;000.404;60;000.492;MIDI 01
146.565;000.404;60;000.492;MIDI 01
147.036;000.108;43;000.250;MIDI 01
147.036;000.108;43;000.250;MIDI 01
146.979;000.213;61;000.453;MIDI 01
146.979;000.213;61;000.453;MIDI 01
147.250;000.072;64;000.430;MIDI 01
147.250;000.072;64;000.430;MIDI 01
147.414;000.107;67;000.398;MIDI 01
147.414;000.107;67;000.398;MIDI 01
147.566;000.094;70;000.453;MIDI 01
147.566;000.094;70;000.453;MIDI 01
147.701;000.041;73;000.445;MIDI 01
147.701;000.041;73;000.445;MIDI 01
147.458;000.315;52;000.320;MIDI 01
147.458;000.315;52;000.320;MIDI 01
147.743;000.060;58;000.039;MIDI 01
147.743;000.060;58;000.039;MIDI 01
147.743;000.062;61;000.086;MIDI 01
147.743;000.062;61;000.086;MIDI 01
147.818;000.082;76;000.531;MIDI 01
147.818;000.082;76;000.531;MIDI 01
147.961;000.040;41;000.391;MIDI 01
147.961;000.040;41;000.391;MIDI 01
147.922;000.090;77;000.531;MIDI 01
147.922;000.090;77;000.531;MIDI 01
148.051;000.078;78;000.531;MIDI 01
148.051;000.078;78;000.531;MIDI 01
148.154;000.085;79;000.578;MIDI 01
148.154;000.085;79;000.578;MIDI 01
148.259;000.043;80;000.555;MIDI 01
148.259;000.043;80;000.555;MIDI 01
148.221;000.140;53;000.406;MIDI 01
148.221;000.140;53;000.406;MIDI 01
148.350;000.097;81;000.617;MIDI 01
148.350;000.097;81;000.617;MIDI 01
148.451;000.077;82;000.570;MIDI 01
148.451;000.077;82;000.570;MIDI 01
148.529;000.040;40;000.539;MIDI 01
148.529;000.040;40;000.539;MIDI 01
148.552;000.034;85;000.586;MIDI 01
148.552;000.034;85;000.586;MIDI 01
148.658;000.062;88;000.633;MIDI 01
148.658;000.062;88;000.633;MIDI 01
148.745;000.074;91;000.648;MIDI 01
148.745;000.074;91;000.648;MIDI 01
148.779;000.095;55;000.539;MIDI 01
148.779;000.095;55;000.539;MIDI 01
148.846;000.033;92;000.594;MIDI 01
148.846;000.033;92;000.594;MIDI 01
148.927;000.037;58;000.320;MIDI 01
148.927;000.037;58;000.320;MIDI 01
148.927;000.042;61;000.250;MIDI 01
148.927;000.042;61;000.250;MIDI 01
148.917;000.082;93;000.594;MIDI 01
148.917;000.082;93;000.594;MIDI 01
149.009;000.089;94;000.617;MIDI 01
149.009;000.089;94;000.617;MIDI 01
149.114;000.043;97;000.648;MIDI 01
149.114;000.043;97;000.648;MIDI 01
149.122;000.399;46;000.500;MIDI 01
149.122;000.399;46;000.500;MIDI 01
149.427;000.198;60;000.555;MIDI 01
149.427;000.198;60;000.555;MIDI 01
149.440;000.235;53;000.438;MIDI 01
149.440;000.235;53;000.438;MIDI 01
149.646;000.046;58;000.516;MIDI 01
149.646;000.046;58;000.516;MIDI 01
149.628;000.192;61;000.602;MIDI 01
149.628;000.192;61;000.602;MIDI 01
149.849;000.104;44;000.625;MIDI 01
149.849;000.104;44;000.625;MIDI 01
149.845;000.142;62;000.609;MIDI 01
149.845;000.142;62;000.609;MIDI 01
150.021;000.094;65;000.523;MIDI 01
150.021;000.094;65;000.523;MIDI 01
150.146;000.033;68;000.547;MIDI 01
150.146;000.033;68;000.547;MIDI 01
150.256;000.043;71;000.531;MIDI 01
150.256;000.043;71;000.531;MIDI 01
150.363;000.039;62;000.359;MIDI 01
150.363;000.039;62;000.359;MIDI 01
150.373;000.030;59;000.391;MIDI 01
150.373;000.030;59;000.391;MIDI 01
150.184;000.221;53;000.438;MIDI 01
150.184;000.221;53;000.438;MIDI 01
150.338;000.099;74;000.602;MIDI 01
150.338;000.099;74;000.602;MIDI 01
150.441;000.075;77;000.578;MIDI 01
150.441;000.075;77;000.578;MIDI 01
150.534;000.036;78;000.586;MIDI 01
150.534;000.036;78;000.586;MIDI 01
150.526;000.074;42;000.711;MIDI 01
150.526;000.074;42;000.711;MIDI 01
150.629;000.084;79;000.602;MIDI 01
150.629;000.084;79;000.602;MIDI 01
150.727;000.091;80;000.617;MIDI 01
150.727;000.091;80;000.617;MIDI 01
150.842;000.062;81;000.648;MIDI 01
150.842;000.062;81;000.648;MIDI 01
150.791;000.152;54;000.500;MIDI 01
150.791;000.152;54;000.500;MIDI 01
150.928;000.031;82;000.594;MIDI 01
150.928;000.031;82;000.594;MIDI 01
150.953;000.036;59;000.289;MIDI 01
150.953;000.036;59;000.289;MIDI 01
151.019;000.031;83;000.547;MIDI 01
151.019;000.031;83;000.547;MIDI 01
151.082;000.070;41;000.703;MIDI 01
151.082;000.070;41;000.703;MIDI 01
151.098;000.090;86;000.680;MIDI 01
151.098;000.090;86;000.680;MIDI 01
151.211;000.050;89;000.609;MIDI 01
151.211;000.050;89;000.609;MIDI 01
151.283;000.059;92;000.625;MIDI 01
151.283;000.059;92;000.625;MIDI 01
151.325;000.098;56;000.562;MIDI 01
151.325;000.098;56;000.562;MIDI 01
151.463;000.033;62;000.508;MIDI 01
151.463;000.033;62;000.508;MIDI 01
151.382;000.114;93;000.680;MIDI 01
151.382;000.114;93;000.680;MIDI 01
151.473;000.027;59;000.469;MIDI 01
151.473;000.027;59;000.469;MIDI 01
151.479;000.093;94;000.680;MIDI 01
151.479;000.093;94;000.680;MIDI 01
151.596;000.100;95;000.680;MIDI 01
151.596;000.100;95;000.680;MIDI 01
151.684;000.026;98;000.695;MIDI 01
151.684;000.026;98;000.695;MIDI 01
151.664;000.356;47;000.734;MIDI 01
151.664;000.356;47;000.734;MIDI 01
151.977;000.150;61;000.664;MIDI 01
151.977;000.150;61;000.664;MIDI 01
152.001;000.141;54;000.602;MIDI 01
152.001;000.141;54;000.602;MIDI 01
152.183;000.066;59;000.656;MIDI 01
152.183;000.066;59;000.656;MIDI 01
152.153;000.175;62;000.617;MIDI 01
152.153;000.175;62;000.617;MIDI 01
152.332;000.026;62;000.062;MIDI 01
152.332;000.026;62;000.062;MIDI 01
152.346;000.095;45;000.695;MIDI 01
152.346;000.095;45;000.695;MIDI 01
152.339;000.173;63;000.664;MIDI 01
152.339;000.173;63;000.664;MIDI 01
152.512;000.067;66;000.602;MIDI 01
152.512;000.067;66;000.602;MIDI 01
152.630;000.073;69;000.625;MIDI 01
152.630;000.073;69;000.625;MIDI 01
152.798;000.032;63;000.562;MIDI 01
152.798;000.032;63;000.562;MIDI 01
152.726;000.111;72;000.648;MIDI 01
152.726;000.111;72;000.648;MIDI 01
152.821;000.025;60;000.492;MIDI 01
152.821;000.025;60;000.492;MIDI 01
152.672;000.218;54;000.391;MIDI 01
152.672;000.218;54;000.391;MIDI 01
152.834;000.084;75;000.609;MIDI 01
152.834;000.084;75;000.609;MIDI 01
152.921;000.111;78;000.586;MIDI 01
152.921;000.111;78;000.586;MIDI 01
153.015;000.076;43;000.789;MIDI 01
153.015;000.076;43;000.789;MIDI 01
153.029;000.094;75;000.625;MIDI 01
153.029;000.094;75;000.625;MIDI 01
153.139;000.124;76;000.680;MIDI 01
153.139;000.124;76;000.680;MIDI 01
153.251;000.119;77;000.680;MIDI 01
153.251;000.119;77;000.680;MIDI 01
153.360;000.121;78;000.672;MIDI 01
153.360;000.121;78;000.672;MIDI 01
153.463;000.027;64;000.586;MIDI 01
153.463;000.027;64;000.586;MIDI 01
153.466;000.032;60;000.625;MIDI 01
153.466;000.032;60;000.625;MIDI 01
153.293;000.234;55;000.648;MIDI 01
153.293;000.234;55;000.648;MIDI 01
153.483;000.117;79;000.711;MIDI 01
153.483;000.117;79;000.711;MIDI 01
153.624;000.051;64;000.023;MIDI 01
153.624;000.051;64;000.023;MIDI 01
153.578;000.137;80;000.711;MIDI 01
153.578;000.137;80;000.711;MIDI 01
153.718;000.088;36;000.812;MIDI 01
153.718;000.088;36;000.812;MIDI 01
153.733;000.214;81;000.711;MIDI 01
153.733;000.214;81;000.711;MIDI 01
153.903;000.101;82;000.617;MIDI 01
153.903;000.101;82;000.617;MIDI 01
154.059;000.160;87;000.727;MIDI 01
154.059;000.160;87;000.727;MIDI 01
154.064;000.278;55;000.656;MIDI 01
154.064;000.278;55;000.656;MIDI 01
154.324;000.027;64;000.688;MIDI 01
154.324;000.027;64;000.688;MIDI 01
154.338;000.040;58;000.695;MIDI 01
154.338;000.040;58;000.695;MIDI 01
154.191;000.194;90;000.750;MIDI 01
154.191;000.194;90;000.750;MIDI 01
154.345;000.102;87;000.742;MIDI 01
154.345;000.102;87;000.742;MIDI 01
154.480;000.135;88;000.750;MIDI 01
154.480;000.135;88;000.750;MIDI 01
154.659;000.054;92;000.188;MIDI 01
154.659;000.054;92;000.188;MIDI 01
154.716;000.078;35;000.742;MIDI 01
154.716;000.078;35;000.742;MIDI 01
154.702;000.131;47;000.758;MIDI 01
154.702;000.131;47;000.758;MIDI 01
154.716;000.144;100;000.805;MIDI 01
154.716;000.144;100;000.805;MIDI 01
154.716;000.207;88;000.750;MIDI 01
154.716;000.207;88;000.750;MIDI 01
154.901;000.066;99;000.695;MIDI 01
154.901;000.066;99;000.695;MIDI 01
154.716;000.265;92;000.414;MIDI 01
154.716;000.265;92;000.414;MIDI 01
155.054;000.025;95;000.438;MIDI 01
155.054;000.025;95;000.438;MIDI 01
155.096;000.002;96;000.227;MIDI 01
155.096;000.002;96;000.227;MIDI 01
155.033;000.065;98;000.680;MIDI 01
155.033;000.065;98;000.680;MIDI 01
155.155;000.059;97;000.688;MIDI 01
155.155;000.059;97;000.688;MIDI 01
155.159;000.089;94;000.680;MIDI 01
155.159;000.089;94;000.680;MIDI 01
155.261;000.129;93;000.703;MIDI 01
155.261;000.129;93;000.703;MIDI 01
155.277;000.143;96;000.609;MIDI 01
155.277;000.143;96;000.609;MIDI 01
155.373;000.069;95;000.672;MIDI 01
155.373;000.069;95;000.672;MIDI 01
155.383;000.133;92;000.711;MIDI 01
155.383;000.133;92;000.711;MIDI 01
155.490;000.057;91;000.719;MIDI 01
155.490;000.057;91;000.719;MIDI 01
155.479;000.073;68;000.703;MIDI 01
155.479;000.073;68;000.703;MIDI 01
155.484;000.211;59;000.578;MIDI 01
155.484;000.211;59;000.578;MIDI 01
155.606;000.097;90;000.641;MIDI 01
155.606;000.097;90;000.641;MIDI 01
155.593;000.129;93;000.672;MIDI 01
155.593;000.129;93;000.672;MIDI 01
155.719;000.046;69;000.656;MIDI 01
155.719;000.046;69;000.656;MIDI 01
155.709;000.104;89;000.656;MIDI 01
155.709;000.104;89;000.656;MIDI 01
155.711;000.116;92;000.633;MIDI 01
155.711;000.116;92;000.633;MIDI 01
155.814;000.020;91;000.516;MIDI 01
155.814;000.020;91;000.516;MIDI 01
155.819;000.120;88;000.633;MIDI 01
155.819;000.120;88;000.633;MIDI 01
155.716;000.231;61;000.625;MIDI 01
155.716;000.231;61;000.625;MIDI 01
155.931;000.019;90;000.633;MIDI 01
155.931;000.019;90;000.633;MIDI 01
155.939;000.058;73;000.672;MIDI 01
155.939;000.058;73;000.672;MIDI 01
155.978;000.030;89;000.375;MIDI 01
155.978;000.030;89;000.375;MIDI 01
155.960;000.056;86;000.430;MIDI 01
155.960;000.056;86;000.430;MIDI 01
155.931;000.128;64;000.586;MIDI 01
155.931;000.128;64;000.586;MIDI 01
156.041;000.048;86;000.406;MIDI 01
156.041;000.048;86;000.406;MIDI 01
156.064;000.044;88;000.211;MIDI 01
156.064;000.044;88;000.211;MIDI 01
156.139;000.052;71;000.672;MIDI 01
156.139;000.052;71;000.672;MIDI 01
156.150;000.107;85;000.664;MIDI 01
156.150;000.107;85;000.664;MIDI 01
156.152;000.137;88;000.547;MIDI 01
156.152;000.137;88;000.547;MIDI 01
156.119;000.222;63;000.375;MIDI 01
156.119;000.222;63;000.375;MIDI 01
156.264;000.091;87;000.602;MIDI 01
156.264;000.091;87;000.602;MIDI 01
156.363;000.016;86;000.500;MIDI 01
156.363;000.016;86;000.500;MIDI 01
156.281;000.099;84;000.539;MIDI 01
156.281;000.099;84;000.539;MIDI 01
156.355;000.095;56;000.680;MIDI 01
156.355;000.095;56;000.680;MIDI 01
156.363;000.116;83;000.617;MIDI 01
156.363;000.116;83;000.617;MIDI 01
156.352;000.175;65;000.719;MIDI 01
156.352;000.175;65;000.719;MIDI 01
156.485;000.047;85;000.609;MIDI 01
156.485;000.047;85;000.609;MIDI 01
156.482;000.121;82;000.594;MIDI 01
156.482;000.121;82;000.594;MIDI 01
156.585;000.036;84;000.492;MIDI 01
156.585;000.036;84;000.492;MIDI 01
156.601;000.064;66;000.633;MIDI 01
156.601;000.064;66;000.633;MIDI 01
156.600;000.083;57;000.609;MIDI 01
156.600;000.083;57;000.609;MIDI 01
156.603;000.109;81;000.625;MIDI 01
156.603;000.109;81;000.625;MIDI 01
156.698;000.122;80;000.641;MIDI 01
156.698;000.122;80;000.641;MIDI 01
156.807;000.036;82;000.516;MIDI 01
156.807;000.036;82;000.516;MIDI 01
156.805;000.075;79;000.625;MIDI 01
156.805;000.075;79;000.625;MIDI 01
156.935;000.069;78;000.586;MIDI 01
156.935;000.069;78;000.586;MIDI 01
156.923;000.135;81;000.625;MIDI 01
156.923;000.135;81;000.625;MIDI 01
157.049;000.057;80;000.578;MIDI 01
157.049;000.057;80;000.578;MIDI 01
157.039;000.105;77;000.641;MIDI 01
157.039;000.105;77;000.641;MIDI 01
157.129;000.028;79;000.586;MIDI 01
157.129;000.028;79;000.586;MIDI 01
157.152;000.104;76;000.594;MIDI 01
157.152;000.104;76;000.594;MIDI 01
157.256;000.057;75;000.625;MIDI 01
157.256;000.057;75;000.625;MIDI 01
157.254;000.060;78;000.617;MIDI 01
157.254;000.060;78;000.617;MIDI 01
156.791;000.591;69;000.711;MIDI 01
156.791;000.591;69;000.711;MIDI 01
157.367;000.060;79;000.664;MIDI 01
157.367;000.060;79;000.664;MIDI 01
157.439;000.082;76;000.430;MIDI 01
157.439;000.082;76;000.430;MIDI 01
157.496;000.105;80;000.633;MIDI 01
157.496;000.105;80;000.633;MIDI 01
157.588;000.051;78;000.633;MIDI 01
157.588;000.051;78;000.633;MIDI 01
157.611;000.030;81;000.578;MIDI 01
157.611;000.030;81;000.578;MIDI 01
156.786;000.898;61;000.609;MIDI 01
156.786;000.898;61;000.609;MIDI 01
157.699;000.053;79;000.664;MIDI 01
157.699;000.053;79;000.664;MIDI 01
157.723;000.042;68;000.641;MIDI 01
157.723;000.042;68;000.641;MIDI 01
157.762;000.002;81;000.039;MIDI 01
157.762;000.002;81;000.039;MIDI 01
157.711;000.145;82;000.594;MIDI 01
157.711;000.145;82;000.594;MIDI 01
157.823;000.055;83;000.562;MIDI 01
157.823;000.055;83;000.562;MIDI 01
157.725;000.183;59;000.578;MIDI 01
157.725;000.183;59;000.578;MIDI 01
157.819;000.110;80;000.570;MIDI 01
157.819;000.110;80;000.570;MIDI 01
157.931;000.033;81;000.672;MIDI 01
157.931;000.033;81;000.672;MIDI 01
157.934;000.056;67;000.625;MIDI 01
157.934;000.056;67;000.625;MIDI 01
157.944;000.071;84;000.531;MIDI 01
157.944;000.071;84;000.531;MIDI 01
157.942;000.074;86;000.547;MIDI 01
157.942;000.074;86;000.547;MIDI 01
158.050;000.037;85;000.602;MIDI 01
158.050;000.037;85;000.602;MIDI 01
158.042;000.076;82;000.656;MIDI 01
158.042;000.076;82;000.656;MIDI 01
157.925;000.250;58;000.578;MIDI 01
157.925;000.250;58;000.578;MIDI 01
158.134;000.072;83;000.609;MIDI 01
158.134;000.072;83;000.609;MIDI 01
158.142;000.075;68;000.688;MIDI 01
158.142;000.075;68;000.688;MIDI 01
158.184;000.096;88;000.594;MIDI 01
158.184;000.096;88;000.594;MIDI 01
158.144;000.166;59;000.531;MIDI 01
158.144;000.166;59;000.531;MIDI 01
158.258;000.126;84;000.539;MIDI 01
158.258;000.126;84;000.539;MIDI 01
158.293;000.121;87;000.555;MIDI 01
158.293;000.121;87;000.555;MIDI 01
158.384;000.043;85;000.547;MIDI 01
158.384;000.043;85;000.547;MIDI 01
158.367;000.073;71;000.672;MIDI 01
158.367;000.073;71;000.672;MIDI 01
158.382;000.134;88;000.656;MIDI 01
158.382;000.134;88;000.656;MIDI 01
158.361;000.182;63;000.562;MIDI 01
158.361;000.182;63;000.562;MIDI 01
158.492;000.131;84;000.664;MIDI 01
158.492;000.131;84;000.664;MIDI 01
158.498;000.127;87;000.586;MIDI 01
158.498;000.127;87;000.586;MIDI 01
158.616;000.055;69;000.609;MIDI 01
158.616;000.055;69;000.609;MIDI 01
158.620;000.060;86;000.562;MIDI 01
158.620;000.060;86;000.562;MIDI 01
158.605;000.127;83;000.617;MIDI 01
158.605;000.127;83;000.617;MIDI 01
158.614;000.181;61;000.492;MIDI 01
158.614;000.181;61;000.492;MIDI 01
158.701;000.135;84;000.625;MIDI 01
158.701;000.135;84;000.625;MIDI 01
158.816;000.053;85;000.625;MIDI 01
158.816;000.053;85;000.625;MIDI 01
158.735;000.139;87;000.578;MIDI 01
158.735;000.139;87;000.578;MIDI 01
158.832;000.055;68;000.633;MIDI 01
158.832;000.055;68;000.633;MIDI 01
158.834;000.056;88;000.633;MIDI 01
158.834;000.056;88;000.633;MIDI 01
158.947;000.057;86;000.711;MIDI 01
158.947;000.057;86;000.711;MIDI 01
158.830;000.193;59;000.547;MIDI 01
158.830;000.193;59;000.547;MIDI 01
159.004;000.071;88;000.367;MIDI 01
159.004;000.071;88;000.367;MIDI 01
158.980;000.099;89;000.422;MIDI 01
158.980;000.099;89;000.422;MIDI 01
159.049;000.071;66;000.680;MIDI 01
159.049;000.071;66;000.680;MIDI 01
159.069;000.075;90;000.656;MIDI 01
159.069;000.075;90;000.656;MIDI 01
159.052;000.109;87;000.688;MIDI 01
159.052;000.109;87;000.688;MIDI 01
159.059;000.181;57;000.578;MIDI 01
159.059;000.181;57;000.578;MIDI 01
159.152;000.122;88;000.664;MIDI 01
159.152;000.122;88;000.664;MIDI 01
159.278;000.042;65;000.586;MIDI 01
159.278;000.042;65;000.586;MIDI 01
159.234;000.143;91;000.586;MIDI 01
159.234;000.143;91;000.586;MIDI 01
159.232;000.169;89;000.625;MIDI 01
159.232;000.169;89;000.625;MIDI 01
159.339;000.102;92;000.672;MIDI 01
159.339;000.102;92;000.672;MIDI 01
159.284;000.161;56;000.570;MIDI 01
159.284;000.161;56;000.570;MIDI 01
159.370;000.078;93;000.648;MIDI 01
159.370;000.078;93;000.648;MIDI 01
159.489;000.024;66;000.617;MIDI 01
159.489;000.024;66;000.617;MIDI 01
159.497;000.023;78;000.703;MIDI 01
159.497;000.023;78;000.703;MIDI 01
159.493;000.040;57;000.555;MIDI 01
159.493;000.040;57;000.555;MIDI 01
159.503;000.091;87;000.641;MIDI 01
159.503;000.091;87;000.641;MIDI 01
159.617;000.042;89;000.367;MIDI 01
159.617;000.042;89;000.367;MIDI 01
159.611;000.055;66;000.086;MIDI 01
159.611;000.055;66;000.086;MIDI 01
159.654;000.029;92;000.438;MIDI 01
159.654;000.029;92;000.438;MIDI 01
159.626;000.062;93;000.727;MIDI 01
159.626;000.062;93;000.727;MIDI 01
159.749;000.025;78;000.648;MIDI 01
159.749;000.025;78;000.648;MIDI 01
159.751;000.030;47;000.719;MIDI 01
159.751;000.030;47;000.719;MIDI 01
159.731;000.050;91;000.297;MIDI 01
159.731;000.050;91;000.297;MIDI 01
159.758;000.025;35;000.688;MIDI 01
159.758;000.025;35;000.688;MIDI 01
159.864;000.026;88;000.414;MIDI 01
159.864;000.026;88;000.414;MIDI 01
159.741;000.160;87;000.664;MIDI 01
159.741;000.160;87;000.664;MIDI 01
159.863;000.045;78;000.203;MIDI 01
159.863;000.045;78;000.203;MIDI 01
159.866;000.085;93;000.680;MIDI 01
159.866;000.085;93;000.680;MIDI 01
159.924;000.055;91;000.398;MIDI 01
159.924;000.055;91;000.398;MIDI 01
159.926;000.055;92;000.156;MIDI 01
159.926;000.055;92;000.156;MIDI 01
159.999;000.033;48;000.719;MIDI 01
159.999;000.033;48;000.719;MIDI 01
160.003;000.039;36;000.695;MIDI 01
160.003;000.039;36;000.695;MIDI 01
159.994;000.048;78;000.711;MIDI 01
159.994;000.048;78;000.711;MIDI 01
160.001;000.158;87;000.586;MIDI 01
160.001;000.158;87;000.586;MIDI 01
160.033;000.128;88;000.094;MIDI 01
160.033;000.128;88;000.094;MIDI 01
159.981;000.182;89;000.250;MIDI 01
159.981;000.182;89;000.250;MIDI 01
160.135;000.042;93;000.766;MIDI 01
160.135;000.042;93;000.766;MIDI 01
160.387;000.030;90;000.625;MIDI 01
160.387;000.030;90;000.625;MIDI 01
160.390;000.038;94;000.648;MIDI 01
160.390;000.038;94;000.648;MIDI 01
160.374;000.127;102;000.836;MIDI 01
160.374;000.127;102;000.836;MIDI 01
160.562;000.059;101;000.656;MIDI 01
160.562;000.059;101;000.656;MIDI 01
160.372;000.338;37;000.680;MIDI 01
160.372;000.338;37;000.680;MIDI 01
160.725;000.037;100;000.586;MIDI 01
160.725;000.037;100;000.586;MIDI 01
160.719;000.072;97;000.688;MIDI 01
160.719;000.072;97;000.688;MIDI 01
160.366;000.432;49;000.766;MIDI 01
160.366;000.432;49;000.766;MIDI 01
160.846;000.059;96;000.570;MIDI 01
160.846;000.059;96;000.570;MIDI 01
160.841;000.070;99;000.625;MIDI 01
160.841;000.070;99;000.625;MIDI 01
160.958;000.033;98;000.594;MIDI 01
160.958;000.033;98;000.594;MIDI 01
160.940;000.106;95;000.398;MIDI 01
160.940;000.106;95;000.398;MIDI 01
161.073;000.031;95;000.359;MIDI 01
161.073;000.031;95;000.359;MIDI 01
161.076;000.112;97;000.695;MIDI 01
161.076;000.112;97;000.695;MIDI 01
161.080;000.143;94;000.664;MIDI 01
161.080;000.143;94;000.664;MIDI 01
161.189;000.044;96;000.625;MIDI 01
161.189;000.044;96;000.625;MIDI 01
161.239;000.026;66;000.422;MIDI 01
161.239;000.026;66;000.422;MIDI 01
161.205;000.066;70;000.688;MIDI 01
161.205;000.066;70;000.688;MIDI 01
161.202;000.121;93;000.602;MIDI 01
161.202;000.121;93;000.602;MIDI 01
161.301;000.057;95;000.586;MIDI 01
161.301;000.057;95;000.586;MIDI 01
161.319;000.125;92;000.625;MIDI 01
161.319;000.125;92;000.625;MIDI 01
161.412;000.039;94;000.586;MIDI 01
161.412;000.039;94;000.586;MIDI 01
161.210;000.257;61;000.586;MIDI 01
161.210;000.257;61;000.586;MIDI 01
161.419;000.067;91;000.648;MIDI 01
161.419;000.067;91;000.648;MIDI 01
161.423;000.065;71;000.664;MIDI 01
161.423;000.065;71;000.664;MIDI 01
161.540;000.034;93;000.609;MIDI 01
161.540;000.034;93;000.609;MIDI 01
161.532;000.059;90;000.711;MIDI 01
161.532;000.059;90;000.711;MIDI 01
161.432;000.267;63;000.586;MIDI 01
161.432;000.267;63;000.586;MIDI 01
161.670;000.052;89;000.500;MIDI 01
161.670;000.052;89;000.500;MIDI 01
161.655;000.071;92;000.695;MIDI 01
161.655;000.071;92;000.695;MIDI 01
161.661;000.072;75;000.680;MIDI 01
161.661;000.072;75;000.680;MIDI 01
161.693;000.051;88;000.352;MIDI 01
161.693;000.051;88;000.352;MIDI 01
161.744;000.035;91;000.539;MIDI 01
161.744;000.035;91;000.539;MIDI 01
161.668;000.148;66;000.562;MIDI 01
161.668;000.148;66;000.562;MIDI 01
161.757;000.124;88;000.547;MIDI 01
161.757;000.124;88;000.547;MIDI 01
161.868;000.035;73;000.617;MIDI 01
161.868;000.035;73;000.617;MIDI 01
161.866;000.040;87;000.703;MIDI 01
161.866;000.040;87;000.703;MIDI 01
161.894;000.050;91;000.383;MIDI 01
161.894;000.050;91;000.383;MIDI 01
161.950;000.061;90;000.500;MIDI 01
161.950;000.061;90;000.500;MIDI 01
161.980;000.061;86;000.633;MIDI 01
161.980;000.061;86;000.633;MIDI 01
161.864;000.188;65;000.555;MIDI 01
161.864;000.188;65;000.555;MIDI 01
162.078;000.074;58;000.648;MIDI 01
162.078;000.074;58;000.648;MIDI 01
162.099;000.073;88;000.688;MIDI 01
162.099;000.073;88;000.688;MIDI 01
162.080;000.142;67;000.688;MIDI 01
162.080;000.142;67;000.688;MIDI 01
162.111;000.126;85;000.625;MIDI 01
162.111;000.126;85;000.625;MIDI 01
162.209;000.110;87;000.648;MIDI 01
162.209;000.110;87;000.648;MIDI 01
162.327;000.025;86;000.461;MIDI 01
162.327;000.025;86;000.461;MIDI 01
162.301;000.056;68;000.586;MIDI 01
162.301;000.056;68;000.586;MIDI 01
162.204;000.176;84;000.234;MIDI 01
162.204;000.176;84;000.234;MIDI 01
162.299;000.124;59;000.641;MIDI 01
162.299;000.124;59;000.641;MIDI 01
162.319;000.134;83;000.594;MIDI 01
162.319;000.134;83;000.594;MIDI 01
162.440;000.120;82;000.641;MIDI 01
162.440;000.120;82;000.641;MIDI 01
162.451;000.117;85;000.617;MIDI 01
162.451;000.117;85;000.617;MIDI 01
162.554;000.034;84;000.570;MIDI 01
162.554;000.034;84;000.570;MIDI 01
162.576;000.115;81;000.547;MIDI 01
162.576;000.115;81;000.547;MIDI 01
162.664;000.067;83;000.273;MIDI 01
162.664;000.067;83;000.273;MIDI 01
162.680;000.125;80;000.609;MIDI 01
162.680;000.125;80;000.609;MIDI 01
162.782;000.048;82;000.625;MIDI 01
162.782;000.048;82;000.625;MIDI 01
162.802;000.115;79;000.555;MIDI 01
162.802;000.115;79;000.555;MIDI 01
162.905;000.062;81;000.656;MIDI 01
162.905;000.062;81;000.656;MIDI 01
162.956;000.108;78;000.328;MIDI 01
162.956;000.108;78;000.328;MIDI 01
163.019;000.048;80;000.609;MIDI 01
163.019;000.048;80;000.609;MIDI 01
163.022;000.057;77;000.578;MIDI 01
163.022;000.057;77;000.578;MIDI 01
163.032;000.077;81;000.078;MIDI 01
163.032;000.077;81;000.078;MIDI 01
163.114;000.071;81;000.531;MIDI 01
163.114;000.071;81;000.531;MIDI 01
162.549;000.679;71;000.742;MIDI 01
162.549;000.679;71;000.742;MIDI 01
163.228;000.052;78;000.688;MIDI 01
163.228;000.052;78;000.688;MIDI 01
163.240;000.139;82;000.641;MIDI 01
163.240;000.139;82;000.641;MIDI 01
163.364;000.045;83;000.609;MIDI 01
163.364;000.045;83;000.609;MIDI 01
163.354;000.060;80;000.625;MIDI 01
163.354;000.060;80;000.625;MIDI 01
162.552;000.872;63;000.617;MIDI 01
162.552;000.872;63;000.617;MIDI 01
163.461;000.058;81;000.680;MIDI 01
163.461;000.058;81;000.680;MIDI 01
163.459;000.075;70;000.680;MIDI 01
163.459;000.075;70;000.680;MIDI 01
163.466;000.073;84;000.641;MIDI 01
163.466;000.073;84;000.641;MIDI 01
163.580;000.056;82;000.672;MIDI 01
163.580;000.056;82;000.672;MIDI 01
163.578;000.074;85;000.641;MIDI 01
163.578;000.074;85;000.641;MIDI 01
163.473;000.222;61;000.578;MIDI 01
163.473;000.222;61;000.578;MIDI 01
163.704;000.026;83;000.414;MIDI 01
163.704;000.026;83;000.414;MIDI 01
163.695;000.041;84;000.484;MIDI 01
163.695;000.041;84;000.484;MIDI 01
163.679;000.071;69;000.656;MIDI 01
163.679;000.071;69;000.656;MIDI 01
163.711;000.041;86;000.633;MIDI 01
163.711;000.041;86;000.633;MIDI 01
163.748;000.037;88;000.281;MIDI 01
163.748;000.037;88;000.281;MIDI 01
163.693;000.110;60;000.570;MIDI 01
163.693;000.110;60;000.570;MIDI 01
163.816;000.062;84;000.633;MIDI 01
163.816;000.062;84;000.633;MIDI 01
163.814;000.147;87;000.695;MIDI 01
163.814;000.147;87;000.695;MIDI 01
163.923;000.043;86;000.562;MIDI 01
163.923;000.043;86;000.562;MIDI 01
163.907;000.073;70;000.688;MIDI 01
163.907;000.073;70;000.688;MIDI 01
163.943;000.041;88;000.516;MIDI 01
163.943;000.041;88;000.516;MIDI 01
164.022;000.072;86;000.680;MIDI 01
164.022;000.072;86;000.680;MIDI 01
163.911;000.188;61;000.539;MIDI 01
163.911;000.188;61;000.539;MIDI 01
164.047;000.121;89;000.617;MIDI 01
164.047;000.121;89;000.617;MIDI 01
164.129;000.070;73;000.617;MIDI 01
164.129;000.070;73;000.617;MIDI 01
164.143;000.066;90;000.672;MIDI 01
164.143;000.066;90;000.672;MIDI 01
164.141;000.072;87;000.625;MIDI 01
164.141;000.072;87;000.625;MIDI 01
164.125;000.133;65;000.547;MIDI 01
164.125;000.133;65;000.547;MIDI 01
164.270;000.045;89;000.617;MIDI 01
164.270;000.045;89;000.617;MIDI 01
164.252;000.071;86;000.680;MIDI 01
164.252;000.071;86;000.680;MIDI 01
164.351;000.061;71;000.625;MIDI 01
164.351;000.061;71;000.625;MIDI 01
164.367;000.117;85;000.609;MIDI 01
164.367;000.117;85;000.609;MIDI 01
164.360;000.140;88;000.641;MIDI 01
164.360;000.140;88;000.641;MIDI 01
164.463;000.041;86;000.609;MIDI 01
164.463;000.041;86;000.609;MIDI 01
164.473;000.065;89;000.680;MIDI 01
164.473;000.065;89;000.680;MIDI 01
164.351;000.203;63;000.469;MIDI 01
164.351;000.203;63;000.469;MIDI 01
164.579;000.067;70;000.672;MIDI 01
164.579;000.067;70;000.672;MIDI 01
164.591;000.061;87;000.711;MIDI 01
164.591;000.061;87;000.711;MIDI 01
164.593;000.146;90;000.695;MIDI 01
164.593;000.146;90;000.695;MIDI 01
164.715;000.030;88;000.602;MIDI 01
164.715;000.030;88;000.602;MIDI 01
164.691;000.062;87;000.414;MIDI 01
164.691;000.062;87;000.414;MIDI 01
164.572;000.195;61;000.562;MIDI 01
164.572;000.195;61;000.562;MIDI 01
164.753;000.020;89;000.305;MIDI 01
164.753;000.020;89;000.305;MIDI 01
164.713;000.068;91;000.617;MIDI 01
164.713;000.068;91;000.617;MIDI 01
164.799;000.060;68;000.641;MIDI 01
164.799;000.060;68;000.641;MIDI 01
164.824;000.048;92;000.672;MIDI 01
164.824;000.048;92;000.672;MIDI 01
164.817;000.062;89;000.594;MIDI 01
164.817;000.062;89;000.594;MIDI 01
164.952;000.024;90;000.508;MIDI 01
164.952;000.024;90;000.508;MIDI 01
164.943;000.035;93;000.594;MIDI 01
164.943;000.035;93;000.594;MIDI 01
164.955;000.028;91;000.414;MIDI 01
164.955;000.028;91;000.414;MIDI 01
164.815;000.171;59;000.555;MIDI 01
164.815;000.171;59;000.555;MIDI 01
164.958;000.030;92;000.414;MIDI 01
164.958;000.030;92;000.414;MIDI 01
165.026;000.051;67;000.594;MIDI 01
165.026;000.051;67;000.594;MIDI 01
165.064;000.034;91;000.625;MIDI 01
165.064;000.034;91;000.625;MIDI 01
165.089;000.033;92;000.594;MIDI 01
165.089;000.033;92;000.594;MIDI 01
165.066;000.059;94;000.680;MIDI 01
165.066;000.059;94;000.680;MIDI 01
165.039;000.143;58;000.555;MIDI 01
165.039;000.143;58;000.555;MIDI 01
165.225;000.033;68;000.641;MIDI 01
165.225;000.033;68;000.641;MIDI 01
165.228;000.049;59;000.586;MIDI 01
165.228;000.049;59;000.586;MIDI 01
165.287;000.002;85;000.320;MIDI 01
165.287;000.002;85;000.320;MIDI 01
165.268;000.026;82;000.414;MIDI 01
165.268;000.026;82;000.414;MIDI 01
165.252;000.061;90;000.633;MIDI 01
165.252;000.061;90;000.633;MIDI 01
165.274;000.043;92;000.258;MIDI 01
165.274;000.043;92;000.258;MIDI 01
165.257;000.060;80;000.672;MIDI 01
165.257;000.060;80;000.672;MIDI 01
165.269;000.147;88;000.461;MIDI 01
165.269;000.147;88;000.461;MIDI 01
165.314;000.110;89;000.203;MIDI 01
165.314;000.110;89;000.203;MIDI 01
165.365;000.084;91;000.438;MIDI 01
165.365;000.084;91;000.438;MIDI 01
165.318;000.133;90;000.180;MIDI 01
165.318;000.133;90;000.180;MIDI 01
165.397;000.072;95;000.711;MIDI 01
165.397;000.072;95;000.711;MIDI 01
165.498;000.030;49;000.750;MIDI 01
165.498;000.030;49;000.750;MIDI 01
165.506;000.032;37;000.648;MIDI 01
165.506;000.032;37;000.648;MIDI 01
165.521;000.030;80;000.648;MIDI 01
165.521;000.030;80;000.648;MIDI 01
165.556;000.033;88;000.336;MIDI 01
165.556;000.033;88;000.336;MIDI 01
165.533;000.064;90;000.438;MIDI 01
165.533;000.064;90;000.438;MIDI 01
165.568;000.046;81;000.195;MIDI 01
165.568;000.046;81;000.195;MIDI 01
165.518;000.160;89;000.469;MIDI 01
165.518;000.160;89;000.469;MIDI 01
165.636;000.066;95;000.656;MIDI 01
165.636;000.066;95;000.656;MIDI 01
165.602;000.147;90;000.203;MIDI 01
165.602;000.147;90;000.203;MIDI 01
165.754;000.044;50;000.734;MIDI 01
165.754;000.044;50;000.734;MIDI 01
165.760;000.048;38;000.680;MIDI 01
165.760;000.048;38;000.680;MIDI 01
165.770;000.039;90;000.406;MIDI 01
165.770;000.039;90;000.406;MIDI 01
165.766;000.047;80;000.680;MIDI 01
165.766;000.047;80;000.680;MIDI 01
165.761;000.170;89;000.617;MIDI 01
165.761;000.170;89;000.617;MIDI 01
165.812;000.133;90;000.094;MIDI 01
165.812;000.133;90;000.094;MIDI 01
165.582;000.367;91;000.195;MIDI 01
165.582;000.367;91;000.195;MIDI 01
165.902;000.058;95;000.695;MIDI 01
165.902;000.058;95;000.695;MIDI 01
165.928;000.033;92;000.398;MIDI 01
165.928;000.033;92;000.398;MIDI 01
166.108;000.095;92;000.680;MIDI 01
166.108;000.095;92;000.680;MIDI 01
166.115;000.122;104;000.773;MIDI 01
166.115;000.122;104;000.773;MIDI 01
166.148;000.092;97;000.477;MIDI 01
166.148;000.092;97;000.477;MIDI 01
166.117;000.168;96;000.664;MIDI 01
166.117;000.168;96;000.664;MIDI 01
166.121;000.264;39;000.695;MIDI 01
166.121;000.264;39;000.695;MIDI 01
166.311;000.105;103;000.664;MIDI 01
166.311;000.105;103;000.664;MIDI 01
166.110;000.355;51;000.680;MIDI 01
166.110;000.355;51;000.680;MIDI 01
166.442;000.071;102;000.633;MIDI 01
166.442;000.071;102;000.633;MIDI 01
166.441;000.135;99;000.664;MIDI 01
166.441;000.135;99;000.664;MIDI 01
166.568;000.019;101;000.578;MIDI 01
166.568;000.019;101;000.578;MIDI 01
166.560;000.068;98;000.656;MIDI 01
166.560;000.068;98;000.656;MIDI 01
166.724;000.002;96;000.211;MIDI 01
166.724;000.002;96;000.211;MIDI 01
166.692;000.057;97;000.648;MIDI 01
166.692;000.057;97;000.648;MIDI 01
166.690;000.074;100;000.648;MIDI 01
166.690;000.074;100;000.648;MIDI 01
166.804;000.082;99;000.672;MIDI 01
166.804;000.082;99;000.672;MIDI 01
166.816;000.114;96;000.594;MIDI 01
166.816;000.114;96;000.594;MIDI 01
166.916;000.025;98;000.500;MIDI 01
166.916;000.025;98;000.500;MIDI 01
166.939;000.057;72;000.680;MIDI 01
166.939;000.057;72;000.680;MIDI 01
166.947;000.053;68;000.547;MIDI 01
166.947;000.053;68;000.547;MIDI 01
166.926;000.126;95;000.633;MIDI 01
166.926;000.126;95;000.633;MIDI 01
167.067;000.033;98;000.367;MIDI 01
167.067;000.033;98;000.367;MIDI 01
167.086;000.041;97;000.164;MIDI 01
167.086;000.041;97;000.164;MIDI 01
166.936;000.202;63;000.641;MIDI 01
166.936;000.202;63;000.641;MIDI 01
167.130;000.052;97;000.109;MIDI 01
167.130;000.052;97;000.109;MIDI 01
167.047;000.149;94;000.648;MIDI 01
167.047;000.149;94;000.648;MIDI 01
167.171;000.060;73;000.688;MIDI 01
167.171;000.060;73;000.688;MIDI 01
167.192;000.079;93;000.648;MIDI 01
167.192;000.079;93;000.648;MIDI 01
167.224;000.141;96;000.305;MIDI 01
167.224;000.141;96;000.305;MIDI 01
167.315;000.055;93;000.453;MIDI 01
167.315;000.055;93;000.453;MIDI 01
167.169;000.208;65;000.594;MIDI 01
167.169;000.208;65;000.594;MIDI 01
167.318;000.062;92;000.703;MIDI 01
167.318;000.062;92;000.703;MIDI 01
167.378;000.070;77;000.711;MIDI 01
167.378;000.070;77;000.711;MIDI 01
167.448;000.037;91;000.344;MIDI 01
167.448;000.037;91;000.344;MIDI 01
167.439;000.050;70;000.141;MIDI 01
167.439;000.050;70;000.141;MIDI 01
167.493;000.054;95;000.500;MIDI 01
167.493;000.054;95;000.500;MIDI 01
167.394;000.177;68;000.438;MIDI 01
167.394;000.177;68;000.438;MIDI 01
167.634;000.035;75;000.680;MIDI 01
167.634;000.035;75;000.680;MIDI 01
167.629;000.046;91;000.375;MIDI 01
167.629;000.046;91;000.375;MIDI 01
167.598;000.081;92;000.203;MIDI 01
167.598;000.081;92;000.203;MIDI 01
167.595;000.090;93;000.609;MIDI 01
167.595;000.090;93;000.609;MIDI 01
167.601;000.107;89;000.602;MIDI 01
167.601;000.107;89;000.602;MIDI 01
167.679;000.040;91;000.297;MIDI 01
167.679;000.040;91;000.297;MIDI 01
167.622;000.189;67;000.305;MIDI 01
167.622;000.189;67;000.305;MIDI 01
167.703;000.122;88;000.680;MIDI 01
167.703;000.122;88;000.680;MIDI 01
167.856;000.028;60;000.438;MIDI 01
167.856;000.028;60;000.438;MIDI 01
167.819;000.115;90;000.680;MIDI 01
167.819;000.115;90;000.680;MIDI 01
167.815;000.148;87;000.633;MIDI 01
167.815;000.148;87;000.633;MIDI 01
167.945;000.030;89;000.375;MIDI 01
167.945;000.030;89;000.375;MIDI 01
167.938;000.054;86;000.648;MIDI 01
167.938;000.054;86;000.648;MIDI 01
167.854;000.170;69;000.672;MIDI 01
167.854;000.170;69;000.672;MIDI 01
168.074;000.039;86;000.508;MIDI 01
168.074;000.039;86;000.508;MIDI 01
168.084;000.031;85;000.266;MIDI 01
168.084;000.031;85;000.266;MIDI 01
168.100;000.044;89;000.258;MIDI 01
168.100;000.044;89;000.258;MIDI 01
168.078;000.086;61;000.562;MIDI 01
168.078;000.086;61;000.562;MIDI 01
168.086;000.078;70;000.594;MIDI 01
168.086;000.078;70;000.594;MIDI 01
168.054;000.141;88;000.539;MIDI 01
168.054;000.141;88;000.539;MIDI 01
168.168;000.045;85;000.586;MIDI 01
168.168;000.045;85;000.586;MIDI 01
168.176;000.105;87;000.609;MIDI 01
168.176;000.105;87;000.609;MIDI 01
168.261;000.027;84;000.406;MIDI 01
168.261;000.027;84;000.406;MIDI 01
168.291;000.015;73;000.562;MIDI 01
168.291;000.015;73;000.562;MIDI 01
168.281;000.036;70;000.547;MIDI 01
168.281;000.036;70;000.547;MIDI 01
168.293;000.036;64;000.586;MIDI 01
168.293;000.036;64;000.586;MIDI 01
168.271;000.066;83;000.672;MIDI 01
168.271;000.066;83;000.672;MIDI 01
168.396;000.026;83;000.367;MIDI 01
168.396;000.026;83;000.367;MIDI 01
168.396;000.140;85;000.680;MIDI 01
168.396;000.140;85;000.680;MIDI 01
168.396;000.149;82;000.672;MIDI 01
168.396;000.149;82;000.672;MIDI 01
168.545;000.034;41;000.672;MIDI 01
168.545;000.034;41;000.672;MIDI 01
168.549;000.035;53;000.578;MIDI 01
168.549;000.035;53;000.578;MIDI 01
168.532;000.053;81;000.633;MIDI 01
168.532;000.053;81;000.633;MIDI 01
168.564;000.024;52;000.500;MIDI 01
168.564;000.024;52;000.500;MIDI 01
168.648;000.148;83;000.586;MIDI 01
168.648;000.148;83;000.586;MIDI 01
168.648;000.150;80;000.672;MIDI 01
168.648;000.150;80;000.672;MIDI 01
168.762;000.038;51;000.727;MIDI 01
168.762;000.038;51;000.727;MIDI 01
168.772;000.030;39;000.641;MIDI 01
168.772;000.030;39;000.641;MIDI 01
168.765;000.128;79;000.594;MIDI 01
168.765;000.128;79;000.594;MIDI 01
168.756;000.139;82;000.586;MIDI 01
168.756;000.139;82;000.586;MIDI 01
168.872;000.084;76;000.727;MIDI 01
168.872;000.084;76;000.727;MIDI 01
169.034;000.082;84;000.664;MIDI 01
169.034;000.082;84;000.664;MIDI 01
169.036;000.235;39;000.609;MIDI 01
169.036;000.235;39;000.609;MIDI 01
169.176;000.121;83;000.641;MIDI 01
169.176;000.121;83;000.641;MIDI 01
169.032;000.272;80;000.719;MIDI 01
169.032;000.272;80;000.719;MIDI 01
169.290;000.030;82;000.555;MIDI 01
169.290;000.030;82;000.555;MIDI 01
169.031;000.297;51;000.734;MIDI 01
169.031;000.297;51;000.734;MIDI 01
169.316;000.044;79;000.602;MIDI 01
169.316;000.044;79;000.602;MIDI 01
169.431;000.055;78;000.625;MIDI 01
169.431;000.055;78;000.625;MIDI 01
169.426;000.084;81;000.609;MIDI 01
169.426;000.084;81;000.609;MIDI 01
169.537;000.061;80;000.578;MIDI 01
169.537;000.061;80;000.578;MIDI 01
169.546;000.107;77;000.648;MIDI 01
169.546;000.107;77;000.648;MIDI 01
169.690;000.047;60;000.617;MIDI 01
169.690;000.047;60;000.617;MIDI 01
169.655;000.114;76;000.641;MIDI 01
169.655;000.114;76;000.641;MIDI 01
169.762;000.111;78;000.664;MIDI 01
169.762;000.111;78;000.664;MIDI 01
169.685;000.192;51;000.578;MIDI 01
169.685;000.192;51;000.578;MIDI 01
169.782;000.115;75;000.508;MIDI 01
169.782;000.115;75;000.508;MIDI 01
169.896;000.050;74;000.625;MIDI 01
169.896;000.050;74;000.625;MIDI 01
169.699;000.286;56;000.555;MIDI 01
169.699;000.286;56;000.555;MIDI 01
169.957;000.046;61;000.633;MIDI 01
169.957;000.046;61;000.633;MIDI 01
170.007;000.043;76;000.562;MIDI 01
170.007;000.043;76;000.562;MIDI 01
170.003;000.076;73;000.617;MIDI 01
170.003;000.076;73;000.617;MIDI 01
169.968;000.195;53;000.578;MIDI 01
169.968;000.195;53;000.578;MIDI 01
170.124;000.068;75;000.578;MIDI 01
170.124;000.068;75;000.578;MIDI 01
170.124;000.099;72;000.609;MIDI 01
170.124;000.099;72;000.609;MIDI 01
170.216;000.050;65;000.648;MIDI 01
170.216;000.050;65;000.648;MIDI 01
170.235;000.032;74;000.367;MIDI 01
170.235;000.032;74;000.367;MIDI 01
170.220;000.126;71;000.625;MIDI 01
170.220;000.126;71;000.625;MIDI 01
170.229;000.174;56;000.625;MIDI 01
170.229;000.174;56;000.625;MIDI 01
170.347;000.058;70;000.594;MIDI 01
170.347;000.058;70;000.594;MIDI 01
170.458;000.026;72;000.516;MIDI 01
170.458;000.026;72;000.516;MIDI 01
170.342;000.143;73;000.617;MIDI 01
170.342;000.143;73;000.617;MIDI 01
170.475;000.031;63;000.594;MIDI 01
170.475;000.031;63;000.594;MIDI 01
170.467;000.070;69;000.625;MIDI 01
170.467;000.070;69;000.625;MIDI 01
170.576;000.035;71;000.602;MIDI 01
170.576;000.035;71;000.602;MIDI 01
170.472;000.186;55;000.508;MIDI 01
170.472;000.186;55;000.508;MIDI 01
170.582;000.127;68;000.609;MIDI 01
170.582;000.127;68;000.609;MIDI 01
170.706;000.042;48;000.312;MIDI 01
170.706;000.042;48;000.312;MIDI 01
170.686;000.072;67;000.648;MIDI 01
170.686;000.072;67;000.648;MIDI 01
170.809;000.036;69;000.609;MIDI 01
170.809;000.036;69;000.609;MIDI 01
170.819;000.031;66;000.562;MIDI 01
170.819;000.031;66;000.562;MIDI 01
170.697;000.167;57;000.609;MIDI 01
170.697;000.167;57;000.609;MIDI 01
170.923;000.047;65;000.633;MIDI 01
170.923;000.047;65;000.633;MIDI 01
170.929;000.054;68;000.602;MIDI 01
170.929;000.054;68;000.602;MIDI 01
170.960;000.044;49;000.430;MIDI 01
170.960;000.044;49;000.430;MIDI 01
170.949;000.066;66;000.258;MIDI 01
170.949;000.066;66;000.258;MIDI 01
170.945;000.092;58;000.578;MIDI 01
170.945;000.092;58;000.578;MIDI 01
171.047;000.014;67;000.492;MIDI 01
171.047;000.014;67;000.492;MIDI 01
171.052;000.048;66;000.055;MIDI 01
171.052;000.048;66;000.055;MIDI 01
171.036;000.067;64;000.633;MIDI 01
171.036;000.067;64;000.633;MIDI 01
171.149;000.029;61;000.617;MIDI 01
171.149;000.029;61;000.617;MIDI 01
171.160;000.026;58;000.422;MIDI 01
171.160;000.026;58;000.422;MIDI 01
171.154;000.043;52;000.570;MIDI 01
171.154;000.043;52;000.570;MIDI 01
171.192;000.043;64;000.094;MIDI 01
171.192;000.043;64;000.094;MIDI 01
171.169;000.128;63;000.625;MIDI 01
171.169;000.128;63;000.625;MIDI 01
171.182;000.121;66;000.578;MIDI 01
171.182;000.121;66;000.578;MIDI 01
171.314;000.040;65;000.250;MIDI 01
171.314;000.040;65;000.250;MIDI 01
171.291;000.074;62;000.602;MIDI 01
171.291;000.074;62;000.602;MIDI 01
171.405;000.046;39;000.664;MIDI 01
171.405;000.046;39;000.664;MIDI 01
171.400;000.051;51;000.750;MIDI 01
171.400;000.051;51;000.750;MIDI 01
171.424;000.137;64;000.633;MIDI 01
171.424;000.137;64;000.633;MIDI 01
171.436;000.128;61;000.570;MIDI 01
171.436;000.128;61;000.570;MIDI 01
171.544;000.127;60;000.578;MIDI 01
171.544;000.127;60;000.578;MIDI 01
171.642;000.045;52;000.742;MIDI 01
171.642;000.045;52;000.742;MIDI 01
171.651;000.037;62;000.508;MIDI 01
171.651;000.037;62;000.508;MIDI 01
171.646;000.045;40;000.695;MIDI 01
171.646;000.045;40;000.695;MIDI 01
171.530;000.163;63;000.555;MIDI 01
171.530;000.163;63;000.555;MIDI 01
171.659;000.141;59;000.625;MIDI 01
171.659;000.141;59;000.625;MIDI 01
171.784;000.068;58;000.641;MIDI 01
171.784;000.068;58;000.641;MIDI 01
171.815;000.072;62;000.414;MIDI 01
171.815;000.072;62;000.414;MIDI 01
171.944;000.194;41;000.695;MIDI 01
171.944;000.194;41;000.695;MIDI 01
171.942;000.235;53;000.734;MIDI 01
171.942;000.235;53;000.734;MIDI 01
172.126;000.139;61;000.578;MIDI 01
172.126;000.139;61;000.578;MIDI 01
172.235;000.091;63;000.617;MIDI 01
172.235;000.091;63;000.617;MIDI 01
172.358;000.020;73;000.516;MIDI 01
172.358;000.020;73;000.516;MIDI 01
172.386;000.048;70;000.164;MIDI 01
172.386;000.048;70;000.164;MIDI 01
172.455;000.086;61;000.680;MIDI 01
172.455;000.086;61;000.680;MIDI 01
172.453;000.124;53;000.594;MIDI 01
172.453;000.124;53;000.594;MIDI 01
172.463;000.129;73;000.703;MIDI 01
172.463;000.129;73;000.703;MIDI 01
172.460;000.177;58;000.617;MIDI 01
172.460;000.177;58;000.617;MIDI 01
172.566;000.092;75;000.641;MIDI 01
172.566;000.092;75;000.641;MIDI 01
172.659;000.045;82;000.531;MIDI 01
172.659;000.045;82;000.531;MIDI 01
172.652;000.060;85;000.594;MIDI 01
172.652;000.060;85;000.594;MIDI 01
172.689;000.030;61;000.430;MIDI 01
172.689;000.030;61;000.430;MIDI 01
172.681;000.039;54;000.562;MIDI 01
172.681;000.039;54;000.562;MIDI 01
172.799;000.036;85;000.672;MIDI 01
172.799;000.036;85;000.672;MIDI 01
172.846;000.019;87;000.320;MIDI 01
172.846;000.019;87;000.320;MIDI 01
172.856;000.025;84;000.359;MIDI 01
172.856;000.025;84;000.359;MIDI 01
172.920;000.026;53;000.633;MIDI 01
172.920;000.026;53;000.633;MIDI 01
172.920;000.028;41;000.602;MIDI 01
172.920;000.028;41;000.602;MIDI 01
172.922;000.028;90;000.383;MIDI 01
172.922;000.028;90;000.383;MIDI 01
172.946;000.034;96;000.445;MIDI 01
172.946;000.034;96;000.445;MIDI 01
173.034;000.041;85;000.617;MIDI 01
173.034;000.041;85;000.617;MIDI 01
173.023;000.083;87;000.672;MIDI 01
173.023;000.083;87;000.672;MIDI 01
173.130;000.037;54;000.719;MIDI 01
173.130;000.037;54;000.719;MIDI 01
173.139;000.033;42;000.664;MIDI 01
173.139;000.033;42;000.664;MIDI 01
173.139;000.111;97;000.742;MIDI 01
173.139;000.111;97;000.742;MIDI 01
173.214;000.059;94;000.180;MIDI 01
173.214;000.059;94;000.180;MIDI 01
173.241;000.052;87;000.641;MIDI 01
173.241;000.052;87;000.641;MIDI 01
173.256;000.047;91;000.258;MIDI 01
173.256;000.047;91;000.258;MIDI 01
173.247;000.064;85;000.586;MIDI 01
173.247;000.064;85;000.586;MIDI 01
173.390;000.164;43;000.734;MIDI 01
173.390;000.164;43;000.734;MIDI 01
173.390;000.207;55;000.781;MIDI 01
173.390;000.207;55;000.781;MIDI 01
173.534;000.147;64;000.602;MIDI 01
173.534;000.147;64;000.602;MIDI 01
173.640;000.097;66;000.609;MIDI 01
173.640;000.097;66;000.609;MIDI 01
173.764;000.027;76;000.641;MIDI 01
173.764;000.027;76;000.641;MIDI 01
173.764;000.028;73;000.562;MIDI 01
173.764;000.028;73;000.562;MIDI 01
173.852;000.069;64;000.672;MIDI 01
173.852;000.069;64;000.672;MIDI 01
173.849;000.101;55;000.594;MIDI 01
173.849;000.101;55;000.594;MIDI 01
173.858;000.139;76;000.633;MIDI 01
173.858;000.139;76;000.633;MIDI 01
173.860;000.161;61;000.633;MIDI 01
173.860;000.161;61;000.633;MIDI 01
173.983;000.067;79;000.586;MIDI 01
173.983;000.067;79;000.586;MIDI 01
174.066;000.023;85;000.469;MIDI 01
174.066;000.023;85;000.469;MIDI 01
174.074;000.018;64;000.461;MIDI 01
174.074;000.018;64;000.461;MIDI 01
174.074;000.019;89;000.562;MIDI 01
174.074;000.019;89;000.562;MIDI 01
174.085;000.028;88;000.398;MIDI 01
174.085;000.028;88;000.398;MIDI 01
174.064;000.053;56;000.625;MIDI 01
174.064;000.053;56;000.625;MIDI 01
174.185;000.054;88;000.695;MIDI 01
174.185;000.054;88;000.695;MIDI 01
174.199;000.089;90;000.672;MIDI 01
174.199;000.089;90;000.672;MIDI 01
174.298;000.027;55;000.625;MIDI 01
174.298;000.027;55;000.625;MIDI 01
174.302;000.033;43;000.617;MIDI 01
174.302;000.033;43;000.617;MIDI 01
174.300;000.096;100;000.703;MIDI 01
174.300;000.096;100;000.703;MIDI 01
174.294;000.121;97;000.625;MIDI 01
174.294;000.121;97;000.625;MIDI 01
174.400;000.064;88;000.602;MIDI 01
174.400;000.064;88;000.602;MIDI 01
174.393;000.109;90;000.711;MIDI 01
174.393;000.109;90;000.711;MIDI 01
174.512;000.044;56;000.688;MIDI 01
174.512;000.044;56;000.688;MIDI 01
174.512;000.046;44;000.641;MIDI 01
174.512;000.046;44;000.641;MIDI 01
174.556;000.028;98;000.500;MIDI 01
174.556;000.028;98;000.500;MIDI 01
174.527;000.074;100;000.539;MIDI 01
174.527;000.074;100;000.539;MIDI 01
174.522;000.098;97;000.586;MIDI 01
174.522;000.098;97;000.586;MIDI 01
174.606;000.032;90;000.609;MIDI 01
174.606;000.032;90;000.609;MIDI 01
174.620;000.036;88;000.633;MIDI 01
174.620;000.036;88;000.633;MIDI 01
174.747;000.136;45;000.719;MIDI 01
174.747;000.136;45;000.719;MIDI 01
174.744;000.177;57;000.773;MIDI 01
174.744;000.177;57;000.773;MIDI 01
174.875;000.135;64;000.633;MIDI 01
174.875;000.135;64;000.633;MIDI 01
174.982;000.075;66;000.594;MIDI 01
174.982;000.075;66;000.594;MIDI 01
175.085;000.032;76;000.602;MIDI 01
175.085;000.032;76;000.602;MIDI 01
175.165;000.075;64;000.688;MIDI 01
175.165;000.075;64;000.688;MIDI 01
175.165;000.085;57;000.578;MIDI 01
175.165;000.085;57;000.578;MIDI 01
175.176;000.096;61;000.609;MIDI 01
175.176;000.096;61;000.609;MIDI 01
175.173;000.129;76;000.719;MIDI 01
175.173;000.129;76;000.719;MIDI 01
175.280;000.084;78;000.625;MIDI 01
175.280;000.084;78;000.625;MIDI 01
175.367;000.034;85;000.562;MIDI 01
175.367;000.034;85;000.562;MIDI 01
175.376;000.028;67;000.656;MIDI 01
175.376;000.028;67;000.656;MIDI 01
175.372;000.034;61;000.297;MIDI 01
175.372;000.034;61;000.297;MIDI 01
175.380;000.029;88;000.570;MIDI 01
175.380;000.029;88;000.570;MIDI 01
175.387;000.050;58;000.672;MIDI 01
175.387;000.050;58;000.672;MIDI 01
175.510;000.041;67;000.156;MIDI 01
175.510;000.041;67;000.156;MIDI 01
175.488;000.072;88;000.703;MIDI 01
175.488;000.072;88;000.703;MIDI 01
175.515;000.094;90;000.648;MIDI 01
175.515;000.094;90;000.648;MIDI 01
175.602;000.032;57;000.672;MIDI 01
175.602;000.032;57;000.672;MIDI 01
175.607;000.050;45;000.688;MIDI 01
175.607;000.050;45;000.688;MIDI 01
175.608;000.116;100;000.797;MIDI 01
175.608;000.116;100;000.797;MIDI 01
175.613;000.126;97;000.656;MIDI 01
175.613;000.126;97;000.656;MIDI 01
175.732;000.047;88;000.531;MIDI 01
175.732;000.047;88;000.531;MIDI 01
175.716;000.104;90;000.766;MIDI 01
175.716;000.104;90;000.766;MIDI 01
175.828;000.043;58;000.703;MIDI 01
175.828;000.043;58;000.703;MIDI 01
175.835;000.039;46;000.680;MIDI 01
175.835;000.039;46;000.680;MIDI 01
175.890;000.032;98;000.391;MIDI 01
175.890;000.032;98;000.391;MIDI 01
175.842;000.094;100;000.703;MIDI 01
175.842;000.094;100;000.703;MIDI 01
175.850;000.100;97;000.633;MIDI 01
175.850;000.100;97;000.633;MIDI 01
175.960;000.019;88;000.516;MIDI 01
175.960;000.019;88;000.516;MIDI 01
175.927;000.056;90;000.695;MIDI 01
175.927;000.056;90;000.695;MIDI 01
176.092;000.167;47;000.727;MIDI 01
176.092;000.167;47;000.727;MIDI 01
176.090;000.219;59;000.781;MIDI 01
176.090;000.219;59;000.781;MIDI 01
176.242;000.119;67;000.664;MIDI 01
176.242;000.119;67;000.664;MIDI 01
176.352;000.092;69;000.719;MIDI 01
176.352;000.092;69;000.719;MIDI 01
176.465;000.031;79;000.648;MIDI 01
176.465;000.031;79;000.648;MIDI 01
176.477;000.029;76;000.461;MIDI 01
176.477;000.029;76;000.461;MIDI 01
176.558;000.079;67;000.656;MIDI 01
176.558;000.079;67;000.656;MIDI 01
176.556;000.111;59;000.633;MIDI 01
176.556;000.111;59;000.633;MIDI 01
176.583;000.102;79;000.719;MIDI 01
176.583;000.102;79;000.719;MIDI 01
176.562;000.213;64;000.617;MIDI 01
176.562;000.213;64;000.617;MIDI 01
176.695;000.112;81;000.672;MIDI 01
176.695;000.112;81;000.672;MIDI 01
176.699;000.115;83;000.625;MIDI 01
176.699;000.115;83;000.625;MIDI 01
176.800;000.032;67;000.680;MIDI 01
176.800;000.032;67;000.680;MIDI 01
176.807;000.027;88;000.602;MIDI 01
176.807;000.027;88;000.602;MIDI 01
176.796;000.050;64;000.391;MIDI 01
176.796;000.050;64;000.391;MIDI 01
176.803;000.057;91;000.688;MIDI 01
176.803;000.057;91;000.688;MIDI 01
176.805;000.061;60;000.641;MIDI 01
176.805;000.061;60;000.641;MIDI 01
176.944;000.053;91;000.750;MIDI 01
176.944;000.053;91;000.750;MIDI 01
176.948;000.167;93;000.711;MIDI 01
176.948;000.167;93;000.711;MIDI 01
177.136;000.006;101;000.445;MIDI 01
177.136;000.006;101;000.445;MIDI 01
177.148;000.002;57;000.430;MIDI 01
177.148;000.002;57;000.430;MIDI 01
177.116;000.034;59;000.617;MIDI 01
177.116;000.034;59;000.617;MIDI 01
177.108;000.057;47;000.711;MIDI 01
177.108;000.057;47;000.711;MIDI 01
177.101;000.104;103;000.680;MIDI 01
177.101;000.104;103;000.680;MIDI 01
177.103;000.172;100;000.648;MIDI 01
177.103;000.172;100;000.648;MIDI 01
177.249;000.089;91;000.719;MIDI 01
177.249;000.089;91;000.719;MIDI 01
177.241;000.105;93;000.766;MIDI 01
177.241;000.105;93;000.766;MIDI 01
177.391;000.036;48;000.680;MIDI 01
177.391;000.036;48;000.680;MIDI 01
177.384;000.048;60;000.742;MIDI 01
177.384;000.048;60;000.742;MIDI 01
177.411;000.190;103;000.734;MIDI 01
177.411;000.190;103;000.734;MIDI 01
177.548;000.095;93;000.734;MIDI 01
177.548;000.095;93;000.734;MIDI 01
177.560;000.102;91;000.719;MIDI 01
177.560;000.102;91;000.719;MIDI 01
177.417;000.297;100;000.625;MIDI 01
177.417;000.297;100;000.625;MIDI 01
177.757;000.081;61;000.750;MIDI 01
177.757;000.081;61;000.750;MIDI 01
177.818;000.027;99;000.406;MIDI 01
177.818;000.027;99;000.406;MIDI 01
177.757;000.105;58;000.664;MIDI 01
177.757;000.105;58;000.664;MIDI 01
177.768;000.111;49;000.617;MIDI 01
177.768;000.111;49;000.617;MIDI 01
177.764;000.121;52;000.609;MIDI 01
177.764;000.121;52;000.609;MIDI 01
177.786;000.223;100;000.602;MIDI 01
177.786;000.223;100;000.602;MIDI 01
177.780;000.260;103;000.703;MIDI 01
177.780;000.260;103;000.703;MIDI 01
177.979;000.231;94;000.656;MIDI 01
177.979;000.231;94;000.656;MIDI 01
178.165;000.056;47;000.766;MIDI 01
178.165;000.056;47;000.766;MIDI 01
178.170;000.091;35;000.711;MIDI 01
178.170;000.091;35;000.711;MIDI 01
178.222;000.111;91;000.578;MIDI 01
178.222;000.111;91;000.578;MIDI 01
178.355;000.139;94;000.609;MIDI 01
178.355;000.139;94;000.609;MIDI 01
178.478;000.053;48;000.766;MIDI 01
178.478;000.053;48;000.766;MIDI 01
178.482;000.052;36;000.727;MIDI 01
178.482;000.052;36;000.727;MIDI 01
178.502;000.032;99;000.383;MIDI 01
178.502;000.032;99;000.383;MIDI 01
178.508;000.133;103;000.609;MIDI 01
178.508;000.133;103;000.609;MIDI 01
178.520;000.171;100;000.594;MIDI 01
178.520;000.171;100;000.594;MIDI 01
178.642;000.131;94;000.633;MIDI 01
178.642;000.131;94;000.633;MIDI 01
178.739;000.045;37;000.672;MIDI 01
178.739;000.045;37;000.672;MIDI 01
178.732;000.055;49;000.727;MIDI 01
178.732;000.055;49;000.727;MIDI 01
178.770;000.088;91;000.625;MIDI 01
178.770;000.088;91;000.625;MIDI 01
178.863;000.031;94;000.625;MIDI 01
178.863;000.031;94;000.625;MIDI 01
178.944;000.041;52;000.680;MIDI 01
178.944;000.041;52;000.680;MIDI 01
178.954;000.036;40;000.641;MIDI 01
178.954;000.036;40;000.641;MIDI 01
178.961;000.069;95;000.062;MIDI 01
178.961;000.069;95;000.062;MIDI 01
178.966;000.079;103;000.508;MIDI 01
178.966;000.079;103;000.508;MIDI 01
178.964;000.121;100;000.469;MIDI 01
178.964;000.121;100;000.469;MIDI 01
179.069;000.083;94;000.641;MIDI 01
179.069;000.083;94;000.641;MIDI 01
179.119;000.041;53;000.672;MIDI 01
179.119;000.041;53;000.672;MIDI 01
179.128;000.035;41;000.555;MIDI 01
179.128;000.035;41;000.555;MIDI 01
179.139;000.040;91;000.578;MIDI 01
179.139;000.040;91;000.578;MIDI 01
179.200;000.062;94;000.555;MIDI 01
179.200;000.062;94;000.555;MIDI 01
179.291;000.029;44;000.656;MIDI 01
179.291;000.029;44;000.656;MIDI 01
179.290;000.036;56;000.672;MIDI 01
179.290;000.036;56;000.672;MIDI 01
179.293;000.054;103;000.508;MIDI 01
179.293;000.054;103;000.508;MIDI 01
179.287;000.119;100;000.531;MIDI 01
179.287;000.119;100;000.531;MIDI 01
179.420;000.030;42;000.695;MIDI 01
179.420;000.030;42;000.695;MIDI 01
179.422;000.030;54;000.648;MIDI 01
179.422;000.030;54;000.648;MIDI 01
179.391;000.082;94;000.633;MIDI 01
179.391;000.082;94;000.633;MIDI 01
179.468;000.021;91;000.516;MIDI 01
179.468;000.021;91;000.516;MIDI 01
179.522;000.070;94;000.500;MIDI 01
179.522;000.070;94;000.500;MIDI 01
179.556;000.037;55;000.703;MIDI 01
179.556;000.037;55;000.703;MIDI 01
179.562;000.035;43;000.641;MIDI 01
179.562;000.035;43;000.641;MIDI 01
179.570;000.080;103;000.602;MIDI 01
179.570;000.080;103;000.602;MIDI 01
179.568;000.117;100;000.539;MIDI 01
179.568;000.117;100;000.539;MIDI 01
179.704;000.034;56;000.641;MIDI 01
179.704;000.034;56;000.641;MIDI 01
179.704;000.040;44;000.664;MIDI 01
179.704;000.040;44;000.664;MIDI 01
179.664;000.091;94;000.617;MIDI 01
179.664;000.091;94;000.617;MIDI 01
179.743;000.047;91;000.594;MIDI 01
179.743;000.047;91;000.594;MIDI 01
179.841;000.036;45;000.656;MIDI 01
179.841;000.036;45;000.656;MIDI 01
179.835;000.042;57;000.672;MIDI 01
179.835;000.042;57;000.672;MIDI 01
179.822;000.066;94;000.531;MIDI 01
179.822;000.066;94;000.531;MIDI 01
179.859;000.067;103;000.633;MIDI 01
179.859;000.067;103;000.633;MIDI 01
179.870;000.103;100;000.531;MIDI 01
179.870;000.103;100;000.531;MIDI 01
179.984;000.035;46;000.656;MIDI 01
179.984;000.035;46;000.656;MIDI 01
179.986;000.033;58;000.656;MIDI 01
179.986;000.033;58;000.656;MIDI 01
179.909;000.121;98;000.055;MIDI 01
179.909;000.121;98;000.055;MIDI 01
179.952;000.113;94;000.578;MIDI 01
179.952;000.113;94;000.578;MIDI 01
180.032;000.089;91;000.531;MIDI 01
180.032;000.089;91;000.531;MIDI 01
180.129;000.049;61;000.750;MIDI 01
180.129;000.049;61;000.750;MIDI 01
180.133;000.047;49;000.703;MIDI 01
180.133;000.047;49;000.703;MIDI 01
180.113;000.078;94;000.531;MIDI 01
180.113;000.078;94;000.531;MIDI 01
180.160;000.122;103;000.680;MIDI 01
180.160;000.122;103;000.680;MIDI 01
180.164;000.151;100;000.562;MIDI 01
180.164;000.151;100;000.562;MIDI 01
180.319;000.045;91;000.555;MIDI 01
180.319;000.045;91;000.555;MIDI 01
180.326;000.041;94;000.578;MIDI 01
180.326;000.041;94;000.578;MIDI 01
180.346;000.040;47;000.680;MIDI 01
180.346;000.040;47;000.680;MIDI 01
180.341;000.048;59;000.695;MIDI 01
180.341;000.048;59;000.695;MIDI 01
180.421;000.071;103;000.578;MIDI 01
180.421;000.071;103;000.578;MIDI 01
180.429;000.091;100;000.570;MIDI 01
180.429;000.091;100;000.570;MIDI 01
180.511;000.030;60;000.641;MIDI 01
180.511;000.030;60;000.641;MIDI 01
180.522;000.026;48;000.578;MIDI 01
180.522;000.026;48;000.578;MIDI 01
180.516;000.034;91;000.562;MIDI 01
180.516;000.034;91;000.562;MIDI 01
180.514;000.039;94;000.570;MIDI 01
180.514;000.039;94;000.570;MIDI 01
180.606;000.064;103;000.633;MIDI 01
180.606;000.064;103;000.633;MIDI 01
180.647;000.033;49;000.648;MIDI 01
180.647;000.033;49;000.648;MIDI 01
180.647;000.035;61;000.680;MIDI 01
180.647;000.035;61;000.680;MIDI 01
180.613;000.072;100;000.516;MIDI 01
180.613;000.072;100;000.516;MIDI 01
180.674;000.042;91;000.492;MIDI 01
180.674;000.042;91;000.492;MIDI 01
180.676;000.042;94;000.617;MIDI 01
180.676;000.042;94;000.617;MIDI 01
180.802;000.037;64;000.688;MIDI 01
180.802;000.037;64;000.688;MIDI 01
180.816;000.026;52;000.547;MIDI 01
180.816;000.026;52;000.547;MIDI 01
180.773;000.072;100;000.516;MIDI 01
180.773;000.072;100;000.516;MIDI 01
180.772;000.074;103;000.625;MIDI 01
180.772;000.074;103;000.625;MIDI 01
180.845;000.031;94;000.555;MIDI 01
180.845;000.031;94;000.555;MIDI 01
180.833;000.060;91;000.586;MIDI 01
180.833;000.060;91;000.586;MIDI 01
180.942;000.028;52;000.492;MIDI 01
180.942;000.028;52;000.492;MIDI 01
180.935;000.036;53;000.609;MIDI 01
180.935;000.036;53;000.609;MIDI 01
180.938;000.036;64;000.680;MIDI 01
180.938;000.036;64;000.680;MIDI 01
180.951;000.047;103;000.523;MIDI 01
180.951;000.047;103;000.523;MIDI 01
180.924;000.084;100;000.500;MIDI 01
180.924;000.084;100;000.500;MIDI 01
181.002;000.042;91;000.625;MIDI 01
181.002;000.042;91;000.625;MIDI 01
180.998;000.064;94;000.562;MIDI 01
180.998;000.064;94;000.562;MIDI 01
181.066;000.032;68;000.664;MIDI 01
181.066;000.032;68;000.664;MIDI 01
181.061;000.039;56;000.656;MIDI 01
181.061;000.039;56;000.656;MIDI 01
181.104;000.075;100;000.477;MIDI 01
181.104;000.075;100;000.477;MIDI 01
181.096;000.094;103;000.594;MIDI 01
181.096;000.094;103;000.594;MIDI 01
181.174;000.045;91;000.617;MIDI 01
181.174;000.045;91;000.617;MIDI 01
181.190;000.034;66;000.711;MIDI 01
181.190;000.034;66;000.711;MIDI 01
181.199;000.030;54;000.688;MIDI 01
181.199;000.030;54;000.688;MIDI 01
181.172;000.064;94;000.641;MIDI 01
181.172;000.064;94;000.641;MIDI 01
181.282;000.035;103;000.523;MIDI 01
181.282;000.035;103;000.523;MIDI 01
181.280;000.072;100;000.469;MIDI 01
181.280;000.072;100;000.469;MIDI 01
181.343;000.027;55;000.641;MIDI 01
181.343;000.027;55;000.641;MIDI 01
181.343;000.031;67;000.578;MIDI 01
181.343;000.031;67;000.578;MIDI 01
181.361;000.023;65;000.508;MIDI 01
181.361;000.023;65;000.508;MIDI 01
181.343;000.052;91;000.641;MIDI 01
181.343;000.052;91;000.641;MIDI 01
181.347;000.060;94;000.648;MIDI 01
181.347;000.060;94;000.648;MIDI 01
181.477;000.033;68;000.656;MIDI 01
181.477;000.033;68;000.656;MIDI 01
181.473;000.045;56;000.711;MIDI 01
181.473;000.045;56;000.711;MIDI 01
181.457;000.075;100;000.531;MIDI 01
181.457;000.075;100;000.531;MIDI 01
181.448;000.096;103;000.625;MIDI 01
181.448;000.096;103;000.625;MIDI 01
181.532;000.042;91;000.562;MIDI 01
181.532;000.042;91;000.562;MIDI 01
181.529;000.066;94;000.609;MIDI 01
181.529;000.066;94;000.609;MIDI 01
181.649;000.025;57;000.625;MIDI 01
181.649;000.025;57;000.625;MIDI 01
181.646;000.042;69;000.703;MIDI 01
181.646;000.042;69;000.703;MIDI 01
181.639;000.074;103;000.555;MIDI 01
181.639;000.074;103;000.555;MIDI 01
181.647;000.091;100;000.531;MIDI 01
181.647;000.091;100;000.531;MIDI 01
181.742;000.048;91;000.531;MIDI 01
181.742;000.048;91;000.531;MIDI 01
181.789;000.023;57;000.078;MIDI 01
181.789;000.023;57;000.078;MIDI 01
181.735;000.079;94;000.547;MIDI 01
181.735;000.079;94;000.547;MIDI 01
181.797;000.055;70;000.727;MIDI 01
181.797;000.055;70;000.727;MIDI 01
181.795;000.059;58;000.703;MIDI 01
181.795;000.059;58;000.703;MIDI 01
181.852;000.129;103;000.578;MIDI 01
181.852;000.129;103;000.578;MIDI 01
181.845;000.163;100;000.500;MIDI 01
181.845;000.163;100;000.500;MIDI 01
181.986;000.096;63;000.508;MIDI 01
181.986;000.096;63;000.508;MIDI 01
181.968;000.143;61;000.484;MIDI 01
181.968;000.143;61;000.484;MIDI 01
182.039;000.095;91;000.641;MIDI 01
182.039;000.095;91;000.641;MIDI 01
182.075;000.095;94;000.625;MIDI 01
182.075;000.095;94;000.625;MIDI 01
182.127;000.058;100;000.727;MIDI 01
182.127;000.058;100;000.727;MIDI 01
182.136;000.050;103;000.672;MIDI 01
182.136;000.050;103;000.672;MIDI 01
182.052;000.136;64;000.523;MIDI 01
182.052;000.136;64;000.523;MIDI 01
182.068;000.129;70;000.602;MIDI 01
182.068;000.129;70;000.602;MIDI 01
182.135;000.061;73;000.688;MIDI 01
182.135;000.061;73;000.688;MIDI 01
182.493;000.109;59;000.562;MIDI 01
182.493;000.109;59;000.562;MIDI 01
182.625;000.047;60;000.508;MIDI 01
182.625;000.047;60;000.508;MIDI 01
182.689;000.028;61;000.578;MIDI 01
182.689;000.028;61;000.578;MIDI 01
182.718;000.080;64;000.477;MIDI 01
182.718;000.080;64;000.477;MIDI 01
182.797;000.036;65;000.438;MIDI 01
182.797;000.036;65;000.438;MIDI 01
182.833;000.028;68;000.578;MIDI 01
182.833;000.028;68;000.578;MIDI 01
182.882;000.076;66;000.570;MIDI 01
182.882;000.076;66;000.570;MIDI 01
182.958;000.049;67;000.547;MIDI 01
182.958;000.049;67;000.547;MIDI 01
182.994;000.059;68;000.094;MIDI 01
182.994;000.059;68;000.094;MIDI 01
183.040;000.050;69;000.547;MIDI 01
183.040;000.050;69;000.547;MIDI 01
183.104;000.033;70;000.484;MIDI 01
183.104;000.033;70;000.484;MIDI 01
183.139;000.028;73;000.578;MIDI 01
183.139;000.028;73;000.578;MIDI 01
183.199;000.037;71;000.602;MIDI 01
183.199;000.037;71;000.602;MIDI 01
183.245;000.049;72;000.539;MIDI 01
183.245;000.049;72;000.539;MIDI 01
183.280;000.070;73;000.453;MIDI 01
183.280;000.070;73;000.453;MIDI 01
183.322;000.066;76;000.609;MIDI 01
183.322;000.066;76;000.609;MIDI 01
183.376;000.056;77;000.547;MIDI 01
183.376;000.056;77;000.547;MIDI 01
183.431;000.034;80;000.602;MIDI 01
183.431;000.034;80;000.602;MIDI 01
183.530;000.057;79;000.523;MIDI 01
183.530;000.057;79;000.523;MIDI 01
183.455;000.136;78;000.266;MIDI 01
183.455;000.136;78;000.266;MIDI 01
183.568;000.070;80;000.398;MIDI 01
183.568;000.070;80;000.398;MIDI 01
183.603;000.069;81;000.586;MIDI 01
183.603;000.069;81;000.586;MIDI 01
183.655;000.057;82;000.539;MIDI 01
183.655;000.057;82;000.539;MIDI 01
183.703;000.028;85;000.586;MIDI 01
183.703;000.028;85;000.586;MIDI 01
183.773;000.075;83;000.617;MIDI 01
183.773;000.075;83;000.617;MIDI 01
183.821;000.060;84;000.570;MIDI 01
183.821;000.060;84;000.570;MIDI 01
183.886;000.041;85;000.547;MIDI 01
183.886;000.041;85;000.547;MIDI 01
183.912;000.060;88;000.594;MIDI 01
183.912;000.060;88;000.594;MIDI 01
183.952;000.057;89;000.586;MIDI 01
183.952;000.057;89;000.586;MIDI 01
184.021;000.026;92;000.625;MIDI 01
184.021;000.026;92;000.625;MIDI 01
184.039;000.034;90;000.219;MIDI 01
184.039;000.034;90;000.219;MIDI 01
184.077;000.060;90;000.242;MIDI 01
184.077;000.060;90;000.242;MIDI 01
184.135;000.074;91;000.625;MIDI 01
184.135;000.074;91;000.625;MIDI 01
184.207;000.037;92;000.430;MIDI 01
184.207;000.037;92;000.430;MIDI 01
184.198;000.078;93;000.586;MIDI 01
184.198;000.078;93;000.586;MIDI 01
184.261;000.068;94;000.594;MIDI 01
184.261;000.068;94;000.594;MIDI 01
184.311;000.040;97;000.617;MIDI 01
184.311;000.040;97;000.617;MIDI 01
184.370;000.062;91;000.641;MIDI 01
184.370;000.062;91;000.641;MIDI 01
184.418;000.066;92;000.594;MIDI 01
184.418;000.066;92;000.594;MIDI 01
184.476;000.083;93;000.609;MIDI 01
184.476;000.083;93;000.609;MIDI 01
184.550;000.062;94;000.578;MIDI 01
184.550;000.062;94;000.578;MIDI 01
184.605;000.036;97;000.594;MIDI 01
184.605;000.036;97;000.594;MIDI 01
184.654;000.059;92;000.711;MIDI 01
184.654;000.059;92;000.711;MIDI 01
184.731;000.118;93;000.609;MIDI 01
184.731;000.118;93;000.609;MIDI 01
184.759;000.144;94;000.648;MIDI 01
184.759;000.144;94;000.648;MIDI 01
184.896;000.049;97;000.594;MIDI 01
184.896;000.049;97;000.594;MIDI 01
184.938;000.056;93;000.672;MIDI 01
184.938;000.056;93;000.672;MIDI 01
185.015;000.042;94;000.641;MIDI 01
185.015;000.042;94;000.641;MIDI 01
185.045;000.092;93;000.547;MIDI 01
185.045;000.092;93;000.547;MIDI 01
185.161;000.051;97;000.625;MIDI 01
185.161;000.051;97;000.625;MIDI 01
185.262;000.044;93;000.164;MIDI 01
185.262;000.044;93;000.164;MIDI 01
185.310;000.090;93;000.305;MIDI 01
185.310;000.090;93;000.305;MIDI 01
185.358;000.082;94;000.617;MIDI 01
185.358;000.082;94;000.617;MIDI 01
185.425;000.037;97;000.617;MIDI 01
185.425;000.037;97;000.617;MIDI 01
185.465;000.032;93;000.547;MIDI 01
185.465;000.032;93;000.547;MIDI 01
185.502;000.060;94;000.625;MIDI 01
185.502;000.060;94;000.625;MIDI 01
185.582;000.090;93;000.688;MIDI 01
185.582;000.090;93;000.688;MIDI 01
185.693;000.027;97;000.578;MIDI 01
185.693;000.027;97;000.578;MIDI 01
185.732;000.026;93;000.500;MIDI 01
185.732;000.026;93;000.500;MIDI 01
185.619;000.213;94;000.578;MIDI 01
185.619;000.213;94;000.578;MIDI 01
185.844;000.043;97;000.227;MIDI 01
185.844;000.043;97;000.227;MIDI 01
185.853;000.078;93;000.641;MIDI 01
185.853;000.078;93;000.641;MIDI 01
185.894;000.073;94;000.523;MIDI 01
185.894;000.073;94;000.523;MIDI 01
185.955;000.029;97;000.594;MIDI 01
185.955;000.029;97;000.594;MIDI 01
185.981;000.046;93;000.578;MIDI 01
185.981;000.046;93;000.578;MIDI 01
186.027;000.036;94;000.531;MIDI 01
186.027;000.036;94;000.531;MIDI 01
186.064;000.031;97;000.500;MIDI 01
186.064;000.031;97;000.500;MIDI 01
186.104;000.085;93;000.633;MIDI 01
186.104;000.085;93;000.633;MIDI 01
186.194;000.051;97;000.594;MIDI 01
186.194;000.051;97;000.594;MIDI 01
186.139;000.185;94;000.570;MIDI 01
186.139;000.185;94;000.570;MIDI 01
186.308;000.033;97;000.516;MIDI 01
186.308;000.033;97;000.516;MIDI 01
186.355;000.104;93;000.141;MIDI 01
186.355;000.104;93;000.141;MIDI 01
186.425;000.076;94;000.422;MIDI 01
186.425;000.076;94;000.422;MIDI 01
186.463;000.039;97;000.562;MIDI 01
186.463;000.039;97;000.562;MIDI 01
186.478;000.051;93;000.344;MIDI 01
186.478;000.051;93;000.344;MIDI 01
186.548;000.029;97;000.578;MIDI 01
186.548;000.029;97;000.578;MIDI 01
186.546;000.040;94;000.398;MIDI 01
186.546;000.040;94;000.398;MIDI 01
186.637;000.088;93;000.609;MIDI 01
186.637;000.088;93;000.609;MIDI 01
186.681;000.074;94;000.570;MIDI 01
186.681;000.074;94;000.570;MIDI 01
186.736;000.044;97;000.430;MIDI 01
186.736;000.044;97;000.430;MIDI 01
186.772;000.035;93;000.312;MIDI 01
186.772;000.035;93;000.312;MIDI 01
186.818;000.027;97;000.570;MIDI 01
186.818;000.027;97;000.570;MIDI 01
186.816;000.042;94;000.516;MIDI 01
186.816;000.042;94;000.516;MIDI 01
186.901;000.082;93;000.609;MIDI 01
186.901;000.082;93;000.609;MIDI 01
186.950;000.074;94;000.523;MIDI 01
186.950;000.074;94;000.523;MIDI 01
187.012;000.032;97;000.453;MIDI 01
187.012;000.032;97;000.453;MIDI 01
187.058;000.042;93;000.352;MIDI 01
187.058;000.042;93;000.352;MIDI 01
187.120;000.029;97;000.594;MIDI 01
187.120;000.029;97;000.594;MIDI 01
187.120;000.030;94;000.469;MIDI 01
187.120;000.030;94;000.469;MIDI 01
187.194;000.079;93;000.641;MIDI 01
187.194;000.079;93;000.641;MIDI 01
187.235;000.069;94;000.570;MIDI 01
187.235;000.069;94;000.570;MIDI 01
187.312;000.036;97;000.352;MIDI 01
187.312;000.036;97;000.352;MIDI 01
187.335;000.040;93;000.398;MIDI 01
187.335;000.040;93;000.398;MIDI 01
187.397;000.033;94;000.492;MIDI 01
187.397;000.033;94;000.492;MIDI 01
187.419;000.039;97;000.500;MIDI 01
187.419;000.039;97;000.500;MIDI 01
187.477;000.101;93;000.586;MIDI 01
187.477;000.101;93;000.586;MIDI 01
187.536;000.105;94;000.516;MIDI 01
187.536;000.105;94;000.516;MIDI 01
187.628;000.075;97;000.547;MIDI 01
187.628;000.075;97;000.547;MIDI 01
187.727;000.076;93;000.578;MIDI 01
187.727;000.076;93;000.578;MIDI 01
187.795;000.080;94;000.539;MIDI 01
187.795;000.080;94;000.539;MIDI 01
187.867;000.055;97;000.531;MIDI 01
187.867;000.055;97;000.531;MIDI 01
187.948;000.074;93;000.578;MIDI 01
187.948;000.074;93;000.578;MIDI 01
188.023;000.071;94;000.586;MIDI 01
188.023;000.071;94;000.586;MIDI 01
188.085;000.052;97;000.492;MIDI 01
188.085;000.052;97;000.492;MIDI 01
188.153;000.076;93;000.562;MIDI 01
188.153;000.076;93;000.562;MIDI 01
188.241;000.052;94;000.523;MIDI 01
188.241;000.052;94;000.523;MIDI 01
188.282;000.056;97;000.500;MIDI 01
188.282;000.056;97;000.500;MIDI 01
188.358;000.077;93;000.562;MIDI 01
188.358;000.077;93;000.562;MIDI 01
188.451;000.040;94;000.508;MIDI 01
188.451;000.040;94;000.508;MIDI 01
188.501;000.050;97;000.430;MIDI 01
188.501;000.050;97;000.430;MIDI 01
188.566;000.075;93;000.547;MIDI 01
188.566;000.075;93;000.547;MIDI 01
188.641;000.071;94;000.508;MIDI 01
188.641;000.071;94;000.508;MIDI 01
188.725;000.043;97;000.398;MIDI 01
188.725;000.043;97;000.398;MIDI 01
188.777;000.070;93;000.500;MIDI 01
188.777;000.070;93;000.500;MIDI 01
188.863;000.067;94;000.547;MIDI 01
188.863;000.067;94;000.547;MIDI 01
188.947;000.041;97;000.422;MIDI 01
188.947;000.041;97;000.422;MIDI 01
189.000;000.069;93;000.469;MIDI 01
189.000;000.069;93;000.469;MIDI 01
189.075;000.081;94;000.547;MIDI 01
189.075;000.081;94;000.547;MIDI 01
189.173;000.040;97;000.414;MIDI 01
189.173;000.040;97;000.414;MIDI 01
189.217;000.073;93;000.492;MIDI 01
189.217;000.073;93;000.492;MIDI 01
189.294;000.086;94;000.562;MIDI 01
189.294;000.086;94;000.562;MIDI 01
189.401;000.045;97;000.406;MIDI 01
189.401;000.045;97;000.406;MIDI 01
189.444;000.086;93;000.516;MIDI 01
189.444;000.086;93;000.516;MIDI 01
189.534;000.089;94;000.539;MIDI 01
189.534;000.089;94;000.539;MIDI 01
189.676;000.054;97;000.102;MIDI 01
189.676;000.054;97;000.102;MIDI 01
189.680;000.071;93;000.484;MIDI 01
189.680;000.071;93;000.484;MIDI 01
189.771;000.089;94;000.500;MIDI 01
189.771;000.089;94;000.500;MIDI 01
189.857;000.080;97;000.430;MIDI 01
189.857;000.080;97;000.430;MIDI 01
189.927;000.079;93;000.406;MIDI 01
189.927;000.079;93;000.406;MIDI 01
190.018;000.089;94;000.508;MIDI 01
190.018;000.089;94;000.508;MIDI 01
190.132;000.080;97;000.367;MIDI 01
190.132;000.080;97;000.367;MIDI 01
190.194;000.135;93;000.414;MIDI 01
190.194;000.135;93;000.414;MIDI 01
190.291;000.101;94;000.414;MIDI 01
190.291;000.101;94;000.414;MIDI 01
190.406;000.141;97;000.406;MIDI 01
190.406;000.141;97;000.406;MIDI 01
190.557;000.079;93;000.484;MIDI 01
190.557;000.079;93;000.484;MIDI 01
190.644;000.190;94;000.453;MIDI 01
190.644;000.190;94;000.453;MIDI 01
190.867;000.158;97;000.406;MIDI 01
190.867;000.158;97;000.406;MIDI 01
191.045;000.190;93;000.438;MIDI 01
191.045;000.190;93;000.438;MIDI 01
191.240;000.191;94;000.430;MIDI 01
191.240;000.191;94;000.430;MIDI 01
191.473;000.124;97;000.422;MIDI 01
191.473;000.124;97;000.422;MIDI 01
191.626;000.089;96;000.359;MIDI 01
191.626;000.089;96;000.359;MIDI 01
191.735;000.041;95;000.469;MIDI 01
191.735;000.041;95;000.469;MIDI 01
191.834;000.095;94;000.500;MIDI 01
191.834;000.095;94;000.500;MIDI 01
191.944;000.103;95;000.508;MIDI 01
191.944;000.103;95;000.508;MIDI 01
192.071;000.050;94;000.430;MIDI 01
192.071;000.050;94;000.430;MIDI 01
192.143;000.036;93;000.531;MIDI 01
192.143;000.036;93;000.531;MIDI 01
192.251;000.065;92;000.461;MIDI 01
192.251;000.065;92;000.461;MIDI 01
192.331;000.091;93;000.445;MIDI 01
192.331;000.091;93;000.445;MIDI 01
192.441;000.033;92;000.469;MIDI 01
192.441;000.033;92;000.469;MIDI 01
192.508;000.049;91;000.398;MIDI 01
192.508;000.049;91;000.398;MIDI 01
192.606;000.082;90;000.477;MIDI 01
192.606;000.082;90;000.477;MIDI 01
192.704;000.109;91;000.469;MIDI 01
192.704;000.109;91;000.469;MIDI 01
192.828;000.076;90;000.508;MIDI 01
192.828;000.076;90;000.508;MIDI 01
192.914;000.060;89;000.484;MIDI 01
192.914;000.060;89;000.484;MIDI 01
193.015;000.043;88;000.492;MIDI 01
193.015;000.043;88;000.492;MIDI 01
193.125;000.097;89;000.438;MIDI 01
193.125;000.097;89;000.438;MIDI 01
193.235;000.101;88;000.461;MIDI 01
193.235;000.101;88;000.461;MIDI 01
193.353;000.096;87;000.516;MIDI 01
193.353;000.096;87;000.516;MIDI 01
193.486;000.070;86;000.445;MIDI 01
193.486;000.070;86;000.445;MIDI 01
193.621;000.122;87;000.391;MIDI 01
193.621;000.122;87;000.391;MIDI 01
193.722;000.111;86;000.414;MIDI 01
193.722;000.111;86;000.414;MIDI 01
193.858;000.108;85;000.406;MIDI 01
193.858;000.108;85;000.406;MIDI 01
194.026;000.131;84;000.289;MIDI 01
194.026;000.131;84;000.289;MIDI 01
194.166;000.161;85;000.328;MIDI 01
194.166;000.161;85;000.328;MIDI 01
194.326;000.135;84;000.383;MIDI 01
194.326;000.135;84;000.383;MIDI 01
194.511;000.195;83;000.375;MIDI 01
194.511;000.195;83;000.375;MIDI 01
194.734;000.299;82;000.344;MIDI 01
194.734;000.299;82;000.344;MIDI 01
195.105;000.168;83;000.250;MIDI 01
195.105;000.168;83;000.250;MIDI 01
195.305;000.096;84;000.328;MIDI 01
195.305;000.096;84;000.328;MIDI 01
195.440;000.027;85;000.398;MIDI 01
195.440;000.027;85;000.398;MIDI 01
195.522;000.048;86;000.398;MIDI 01
195.522;000.048;86;000.398;MIDI 01
195.648;000.044;87;000.352;MIDI 01
195.648;000.044;87;000.352;MIDI 01
195.542;000.157;80;000.227;MIDI 01
195.542;000.157;80;000.227;MIDI 01
195.721;000.131;88;000.430;MIDI 01
195.721;000.131;88;000.430;MIDI 01
195.845;000.046;91;000.430;MIDI 01
195.845;000.046;91;000.430;MIDI 01
195.750;000.219;77;000.234;MIDI 01
195.750;000.219;77;000.234;MIDI 01
195.916;000.061;89;000.406;MIDI 01
195.916;000.061;89;000.406;MIDI 01
195.093;000.888;74;000.273;MIDI 01
195.093;000.888;74;000.273;MIDI 01
195.988;000.053;88;000.484;MIDI 01
195.988;000.053;88;000.484;MIDI 01
196.070;000.046;87;000.453;MIDI 01
196.070;000.046;87;000.453;MIDI 01
196.150;000.056;86;000.461;MIDI 01
196.150;000.056;86;000.461;MIDI 01
196.241;000.068;85;000.477;MIDI 01
196.241;000.068;85;000.477;MIDI 01
196.257;000.053;81;000.266;MIDI 01
196.257;000.053;81;000.266;MIDI 01
196.335;000.027;84;000.398;MIDI 01
196.335;000.027;84;000.398;MIDI 01
196.394;000.062;83;000.414;MIDI 01
196.394;000.062;83;000.414;MIDI 01
196.479;000.082;82;000.469;MIDI 01
196.479;000.082;82;000.469;MIDI 01
196.450;000.131;76;000.102;MIDI 01
196.450;000.131;76;000.102;MIDI 01
196.010;000.600;72;000.281;MIDI 01
196.010;000.600;72;000.281;MIDI 01
196.623;000.082;80;000.484;MIDI 01
196.623;000.082;80;000.484;MIDI 01
196.720;000.045;81;000.352;MIDI 01
196.720;000.045;81;000.352;MIDI 01
196.770;000.026;82;000.406;MIDI 01
196.770;000.026;82;000.406;MIDI 01
196.834;000.049;83;000.484;MIDI 01
196.834;000.049;83;000.484;MIDI 01
196.918;000.058;84;000.477;MIDI 01
196.918;000.058;84;000.477;MIDI 01
196.884;000.142;76;000.266;MIDI 01
196.884;000.142;76;000.266;MIDI 01
196.990;000.080;85;000.469;MIDI 01
196.990;000.080;85;000.469;MIDI 01
197.080;000.097;88;000.422;MIDI 01
197.080;000.097;88;000.422;MIDI 01
197.157;000.105;86;000.508;MIDI 01
197.157;000.105;86;000.508;MIDI 01
196.624;000.641;71;000.352;MIDI 01
196.624;000.641;71;000.352;MIDI 01
197.049;000.218;74;000.312;MIDI 01
197.049;000.218;74;000.312;MIDI 01
197.251;000.114;85;000.500;MIDI 01
197.251;000.114;85;000.500;MIDI 01
197.379;000.075;84;000.445;MIDI 01
197.379;000.075;84;000.445;MIDI 01
197.499;000.102;83;000.445;MIDI 01
197.499;000.102;83;000.445;MIDI 01
197.622;000.119;82;000.422;MIDI 01
197.622;000.119;82;000.422;MIDI 01
197.551;000.216;76;000.281;MIDI 01
197.551;000.216;76;000.281;MIDI 01
197.718;000.091;81;000.492;MIDI 01
197.718;000.091;81;000.492;MIDI 01
197.840;000.065;80;000.461;MIDI 01
197.840;000.065;80;000.461;MIDI 01
197.308;000.606;69;000.227;MIDI 01
197.308;000.606;69;000.227;MIDI 01
197.759;000.164;72;000.305;MIDI 01
197.759;000.164;72;000.305;MIDI 01
197.945;000.052;79;000.469;MIDI 01
197.945;000.052;79;000.469;MIDI 01
198.027;000.047;80;000.500;MIDI 01
198.027;000.047;80;000.500;MIDI 01
198.089;000.047;81;000.453;MIDI 01
198.089;000.047;81;000.453;MIDI 01
198.154;000.027;82;000.422;MIDI 01
198.154;000.027;82;000.422;MIDI 01
198.150;000.100;76;000.375;MIDI 01
198.150;000.100;76;000.375;MIDI 01
198.214;000.054;83;000.422;MIDI 01
198.214;000.054;83;000.422;MIDI 01
198.296;000.055;84;000.430;MIDI 01
198.296;000.055;84;000.430;MIDI 01
198.367;000.064;87;000.453;MIDI 01
198.367;000.064;87;000.453;MIDI 01
197.932;000.553;70;000.383;MIDI 01
197.932;000.553;70;000.383;MIDI 01
198.384;000.101;73;000.266;MIDI 01
198.384;000.101;73;000.266;MIDI 01
198.423;000.100;85;000.508;MIDI 01
198.423;000.100;85;000.508;MIDI 01
198.523;000.048;84;000.422;MIDI 01
198.523;000.048;84;000.422;MIDI 01
198.583;000.054;83;000.516;MIDI 01
198.583;000.054;83;000.516;MIDI 01
198.693;000.057;82;000.445;MIDI 01
198.693;000.057;82;000.445;MIDI 01
198.750;000.051;81;000.453;MIDI 01
198.750;000.051;81;000.453;MIDI 01
198.731;000.098;77;000.344;MIDI 01
198.731;000.098;77;000.344;MIDI 01
198.834;000.033;80;000.438;MIDI 01
198.834;000.033;80;000.438;MIDI 01
198.898;000.036;79;000.414;MIDI 01
198.898;000.036;79;000.414;MIDI 01
198.977;000.077;78;000.453;MIDI 01
198.977;000.077;78;000.453;MIDI 01
199.079;000.027;77;000.406;MIDI 01
199.079;000.027;77;000.406;MIDI 01
198.540;000.576;68;000.359;MIDI 01
198.540;000.576;68;000.359;MIDI 01
198.930;000.197;72;000.352;MIDI 01
198.930;000.197;72;000.352;MIDI 01
199.141;000.043;76;000.406;MIDI 01
199.141;000.043;76;000.406;MIDI 01
199.224;000.034;77;000.422;MIDI 01
199.224;000.034;77;000.422;MIDI 01
199.273;000.075;78;000.414;MIDI 01
199.273;000.075;78;000.414;MIDI 01
199.384;000.043;79;000.461;MIDI 01
199.384;000.043;79;000.461;MIDI 01
199.477;000.044;80;000.414;MIDI 01
199.477;000.044;80;000.414;MIDI 01
199.370;000.164;72;000.273;MIDI 01
199.370;000.164;72;000.273;MIDI 01
199.570;000.062;81;000.500;MIDI 01
199.570;000.062;81;000.500;MIDI 01
199.536;000.154;70;000.359;MIDI 01
199.536;000.154;70;000.359;MIDI 01
199.139;000.598;67;000.398;MIDI 01
199.139;000.598;67;000.398;MIDI 01
199.647;000.102;84;000.469;MIDI 01
199.647;000.102;84;000.469;MIDI 01
199.754;000.055;82;000.430;MIDI 01
199.754;000.055;82;000.430;MIDI 01
199.839;000.083;81;000.461;MIDI 01
199.839;000.083;81;000.461;MIDI 01
199.959;000.055;80;000.359;MIDI 01
199.959;000.055;80;000.359;MIDI 01
200.072;000.057;79;000.367;MIDI 01
200.072;000.057;79;000.367;MIDI 01
200.014;000.192;72;000.344;MIDI 01
200.014;000.192;72;000.344;MIDI 01
200.178;000.060;78;000.344;MIDI 01
200.178;000.060;78;000.344;MIDI 01
200.286;000.082;77;000.406;MIDI 01
200.286;000.082;77;000.406;MIDI 01
199.784;000.594;65;000.289;MIDI 01
199.784;000.594;65;000.289;MIDI 01
200.287;000.202;68;000.188;MIDI 01
200.287;000.202;68;000.188;MIDI 01
200.431;000.085;76;000.352;MIDI 01
200.431;000.085;76;000.352;MIDI 01
200.556;000.057;75;000.367;MIDI 01
200.556;000.057;75;000.367;MIDI 01
200.677;000.043;76;000.484;MIDI 01
200.677;000.043;76;000.484;MIDI 01
200.783;000.046;77;000.445;MIDI 01
200.783;000.046;77;000.445;MIDI 01
200.867;000.023;78;000.477;MIDI 01
200.867;000.023;78;000.477;MIDI 01
200.805;000.146;72;000.266;MIDI 01
200.805;000.146;72;000.266;MIDI 01
200.940;000.031;79;000.414;MIDI 01
200.940;000.031;79;000.414;MIDI 01
201.012;000.066;80;000.453;MIDI 01
201.012;000.066;80;000.453;MIDI 01
200.984;000.155;69;000.328;MIDI 01
200.984;000.155;69;000.328;MIDI 01
201.080;000.061;83;000.438;MIDI 01
201.080;000.061;83;000.438;MIDI 01
200.514;000.655;66;000.289;MIDI 01
200.514;000.655;66;000.289;MIDI 01
201.139;000.064;81;000.516;MIDI 01
201.139;000.064;81;000.516;MIDI 01
201.228;000.033;80;000.406;MIDI 01
201.228;000.033;80;000.406;MIDI 01
201.275;000.060;79;000.477;MIDI 01
201.275;000.060;79;000.477;MIDI 01
201.373;000.074;78;000.461;MIDI 01
201.373;000.074;78;000.461;MIDI 01
201.396;000.070;73;000.352;MIDI 01
201.396;000.070;73;000.352;MIDI 01
201.454;000.042;77;000.508;MIDI 01
201.454;000.042;77;000.508;MIDI 01
201.518;000.077;76;000.516;MIDI 01
201.518;000.077;76;000.516;MIDI 01
201.618;000.052;75;000.500;MIDI 01
201.618;000.052;75;000.500;MIDI 01
201.550;000.148;68;000.375;MIDI 01
201.550;000.148;68;000.375;MIDI 01
201.195;000.557;64;000.312;MIDI 01
201.195;000.557;64;000.312;MIDI 01
201.721;000.033;74;000.398;MIDI 01
201.721;000.033;74;000.398;MIDI 01
201.821;000.033;73;000.328;MIDI 01
201.821;000.033;73;000.328;MIDI 01
202.000;000.042;73;000.367;MIDI 01
202.000;000.042;73;000.367;MIDI 01
202.073;000.039;74;000.562;MIDI 01
202.073;000.039;74;000.562;MIDI 01
202.031;000.104;68;000.289;MIDI 01
202.031;000.104;68;000.289;MIDI 01
202.172;000.018;75;000.445;MIDI 01
202.172;000.018;75;000.445;MIDI 01
202.239;000.049;76;000.523;MIDI 01
202.239;000.049;76;000.523;MIDI 01
202.319;000.069;77;000.461;MIDI 01
202.319;000.069;77;000.461;MIDI 01
201.762;000.677;63;000.398;MIDI 01
201.762;000.677;63;000.398;MIDI 01
202.398;000.081;80;000.477;MIDI 01
202.398;000.081;80;000.477;MIDI 01
202.186;000.311;66;000.375;MIDI 01
202.186;000.311;66;000.375;MIDI 01
202.477;000.073;78;000.484;MIDI 01
202.477;000.073;78;000.484;MIDI 01
202.550;000.072;77;000.531;MIDI 01
202.550;000.072;77;000.531;MIDI 01
202.669;000.101;76;000.508;MIDI 01
202.669;000.101;76;000.508;MIDI 01
202.780;000.097;68;000.375;MIDI 01
202.780;000.097;68;000.375;MIDI 01
202.793;000.085;75;000.453;MIDI 01
202.793;000.085;75;000.453;MIDI 01
202.491;000.489;61;000.336;MIDI 01
202.491;000.489;61;000.336;MIDI 01
202.884;000.103;74;000.492;MIDI 01
202.884;000.103;74;000.492;MIDI 01
203.009;000.042;73;000.492;MIDI 01
203.009;000.042;73;000.492;MIDI 01
203.094;000.086;72;000.500;MIDI 01
203.094;000.086;72;000.500;MIDI 01
202.978;000.240;64;000.352;MIDI 01
202.978;000.240;64;000.352;MIDI 01
203.210;000.084;71;000.492;MIDI 01
203.210;000.084;71;000.492;MIDI 01
203.314;000.071;72;000.500;MIDI 01
203.314;000.071;72;000.500;MIDI 01
203.417;000.030;73;000.477;MIDI 01
203.417;000.030;73;000.477;MIDI 01
203.450;000.119;68;000.438;MIDI 01
203.450;000.119;68;000.438;MIDI 01
203.499;000.073;74;000.562;MIDI 01
203.499;000.073;74;000.562;MIDI 01
203.218;000.402;61;000.398;MIDI 01
203.218;000.402;61;000.398;MIDI 01
203.595;000.062;75;000.523;MIDI 01
203.595;000.062;75;000.523;MIDI 01
203.597;000.067;64;000.430;MIDI 01
203.597;000.067;64;000.430;MIDI 01
203.711;000.066;76;000.500;MIDI 01
203.711;000.066;76;000.500;MIDI 01
203.791;000.078;77;000.570;MIDI 01
203.791;000.078;77;000.570;MIDI 01
203.898;000.049;78;000.438;MIDI 01
203.898;000.049;78;000.438;MIDI 01
203.988;000.052;79;000.484;MIDI 01
203.988;000.052;79;000.484;MIDI 01
204.051;000.084;68;000.383;MIDI 01
204.051;000.084;68;000.383;MIDI 01
204.081;000.059;80;000.508;MIDI 01
204.081;000.059;80;000.508;MIDI 01
203.793;000.390;61;000.422;MIDI 01
203.793;000.390;61;000.422;MIDI 01
204.202;000.034;81;000.438;MIDI 01
204.202;000.034;81;000.438;MIDI 01
204.270;000.039;82;000.492;MIDI 01
204.270;000.039;82;000.492;MIDI 01
204.203;000.153;64;000.406;MIDI 01
204.203;000.153;64;000.406;MIDI 01
204.375;000.049;83;000.453;MIDI 01
204.375;000.049;83;000.453;MIDI 01
204.444;000.083;84;000.547;MIDI 01
204.444;000.083;84;000.547;MIDI 01
204.549;000.109;85;000.508;MIDI 01
204.549;000.109;85;000.508;MIDI 01
204.605;000.095;68;000.367;MIDI 01
204.605;000.095;68;000.367;MIDI 01
204.678;000.086;84;000.453;MIDI 01
204.678;000.086;84;000.453;MIDI 01
204.396;000.419;61;000.367;MIDI 01
204.396;000.419;61;000.367;MIDI 01
203.802;001.041;59;000.398;MIDI 01
203.802;001.041;59;000.398;MIDI 01
204.771;000.112;87;000.531;MIDI 01
204.771;000.112;87;000.531;MIDI 01
204.785;000.171;64;000.375;MIDI 01
204.785;000.171;64;000.375;MIDI 01
204.883;000.100;85;000.500;MIDI 01
204.883;000.100;85;000.500;MIDI 01
204.996;000.115;83;000.531;MIDI 01
204.996;000.115;83;000.531;MIDI 01
205.139;000.079;84;000.477;MIDI 01
205.139;000.079;84;000.477;MIDI 01
205.253;000.050;85;000.461;MIDI 01
205.253;000.050;85;000.461;MIDI 01
205.280;000.090;68;000.414;MIDI 01
205.280;000.090;68;000.414;MIDI 01
205.359;000.046;86;000.500;MIDI 01
205.359;000.046;86;000.500;MIDI 01
205.006;000.401;58;000.398;MIDI 01
205.006;000.401;58;000.398;MIDI 01
205.000;000.443;61;000.398;MIDI 01
205.000;000.443;61;000.398;MIDI 01
205.440;000.041;87;000.531;MIDI 01
205.440;000.041;87;000.531;MIDI 01
205.541;000.060;88;000.531;MIDI 01
205.541;000.060;88;000.531;MIDI 01
205.452;000.163;64;000.430;MIDI 01
205.452;000.163;64;000.430;MIDI 01
205.631;000.047;89;000.516;MIDI 01
205.631;000.047;89;000.516;MIDI 01
205.704;000.062;90;000.492;MIDI 01
205.704;000.062;90;000.492;MIDI 01
205.787;000.083;91;000.602;MIDI 01
205.787;000.083;91;000.602;MIDI 01
205.828;000.115;68;000.414;MIDI 01
205.828;000.115;68;000.414;MIDI 01
205.873;000.078;92;000.609;MIDI 01
205.873;000.078;92;000.609;MIDI 01
205.636;000.335;57;000.430;MIDI 01
205.636;000.335;57;000.430;MIDI 01
205.653;000.373;61;000.383;MIDI 01
205.653;000.373;61;000.383;MIDI 01
205.979;000.067;93;000.586;MIDI 01
205.979;000.067;93;000.586;MIDI 01
206.058;000.070;94;000.555;MIDI 01
206.058;000.070;94;000.555;MIDI 01
205.983;000.169;64;000.406;MIDI 01
205.983;000.169;64;000.406;MIDI 01
206.152;000.091;95;000.586;MIDI 01
206.152;000.091;95;000.586;MIDI 01
206.250;000.084;96;000.578;MIDI 01
206.250;000.084;96;000.578;MIDI 01
206.344;000.104;97;000.586;MIDI 01
206.344;000.104;97;000.586;MIDI 01
206.415;000.102;68;000.438;MIDI 01
206.415;000.102;68;000.438;MIDI 01
206.162;000.363;56;000.422;MIDI 01
206.162;000.363;56;000.422;MIDI 01
206.459;000.096;96;000.547;MIDI 01
206.459;000.096;96;000.547;MIDI 01
206.193;000.384;61;000.391;MIDI 01
206.193;000.384;61;000.391;MIDI 01
206.557;000.165;99;000.594;MIDI 01
206.557;000.165;99;000.594;MIDI 01
206.601;000.129;64;000.453;MIDI 01
206.601;000.129;64;000.453;MIDI 01
206.673;000.192;97;000.633;MIDI 01
206.673;000.192;97;000.633;MIDI 01
206.780;000.135;95;000.594;MIDI 01
206.780;000.135;95;000.594;MIDI 01
206.818;000.148;55;000.438;MIDI 01
206.818;000.148;55;000.438;MIDI 01
206.915;000.148;96;000.586;MIDI 01
206.915;000.148;96;000.586;MIDI 01
207.042;000.213;97;000.570;MIDI 01
207.042;000.213;97;000.570;MIDI 01
207.116;000.201;69;000.422;MIDI 01
207.116;000.201;69;000.422;MIDI 01
207.210;000.118;96;000.617;MIDI 01
207.210;000.118;96;000.617;MIDI 01
206.825;000.590;61;000.445;MIDI 01
206.825;000.590;61;000.445;MIDI 01
207.418;000.117;99;000.539;MIDI 01
207.418;000.117;99;000.539;MIDI 01
207.463;000.258;64;000.328;MIDI 01
207.463;000.258;64;000.328;MIDI 01
207.620;000.122;97;000.547;MIDI 01
207.620;000.122;97;000.547;MIDI 01
207.946;000.230;99;000.367;MIDI 01
207.946;000.230;99;000.367;MIDI 01
208.191;000.152;97;000.414;MIDI 01
208.191;000.152;97;000.414;MIDI 01
207.978;000.438;54;000.242;MIDI 01
207.978;000.438;54;000.242;MIDI 01
208.399;000.113;104;000.422;MIDI 01
208.399;000.113;104;000.422;MIDI 01
208.543;000.081;102;000.383;MIDI 01
208.543;000.081;102;000.383;MIDI 01
208.378;000.276;64;000.281;MIDI 01
208.378;000.276;64;000.281;MIDI 01
208.667;000.076;99;000.352;MIDI 01
208.667;000.076;99;000.352;MIDI 01
208.685;000.100;61;000.297;MIDI 01
208.685;000.100;61;000.297;MIDI 01
208.757;000.075;97;000.469;MIDI 01
208.757;000.075;97;000.469;MIDI 01
208.889;000.081;94;000.438;MIDI 01
208.889;000.081;94;000.438;MIDI 01
208.995;000.067;92;000.453;MIDI 01
208.995;000.067;92;000.453;MIDI 01
208.944;000.139;70;000.289;MIDI 01
208.944;000.139;70;000.289;MIDI 01
209.105;000.104;64;000.344;MIDI 01
209.105;000.104;64;000.344;MIDI 01
209.127;000.084;99;000.359;MIDI 01
209.127;000.084;99;000.359;MIDI 01
209.227;000.061;97;000.414;MIDI 01
209.227;000.061;97;000.414;MIDI 01
209.308;000.078;94;000.461;MIDI 01
209.308;000.078;94;000.461;MIDI 01
209.300;000.127;61;000.320;MIDI 01
209.300;000.127;61;000.320;MIDI 01
209.397;000.061;92;000.500;MIDI 01
209.397;000.061;92;000.500;MIDI 01
209.493;000.042;90;000.461;MIDI 01
209.493;000.042;90;000.461;MIDI 01
209.484;000.141;54;000.320;MIDI 01
209.484;000.141;54;000.320;MIDI 01
209.616;000.059;87;000.484;MIDI 01
209.616;000.059;87;000.484;MIDI 01
209.725;000.082;94;000.430;MIDI 01
209.725;000.082;94;000.430;MIDI 01
209.709;000.124;66;000.312;MIDI 01
209.709;000.124;66;000.312;MIDI 01
209.803;000.092;92;000.523;MIDI 01
209.803;000.092;92;000.523;MIDI 01
209.906;000.082;90;000.500;MIDI 01
209.906;000.082;90;000.500;MIDI 01
209.975;000.081;87;000.539;MIDI 01
209.975;000.081;87;000.539;MIDI 01
209.910;000.182;63;000.289;MIDI 01
209.910;000.182;63;000.289;MIDI 01
210.093;000.050;85;000.430;MIDI 01
210.093;000.050;85;000.430;MIDI 01
210.107;000.068;71;000.383;MIDI 01
210.107;000.068;71;000.383;MIDI 01
210.208;000.061;83;000.438;MIDI 01
210.208;000.061;83;000.438;MIDI 01
210.341;000.044;90;000.297;MIDI 01
210.341;000.044;90;000.297;MIDI 01
210.301;000.129;66;000.359;MIDI 01
210.301;000.129;66;000.359;MIDI 01
210.391;000.116;87;000.508;MIDI 01
210.391;000.116;87;000.508;MIDI 01
210.503;000.077;82;000.469;MIDI 01
210.503;000.077;82;000.469;MIDI 01
210.506;000.156;63;000.328;MIDI 01
210.506;000.156;63;000.328;MIDI 01
210.613;000.052;83;000.484;MIDI 01
210.613;000.052;83;000.484;MIDI 01
210.742;000.114;87;000.430;MIDI 01
210.742;000.114;87;000.430;MIDI 01
210.693;000.219;54;000.336;MIDI 01
210.693;000.219;54;000.336;MIDI 01
210.874;000.096;85;000.422;MIDI 01
210.874;000.096;85;000.422;MIDI 01
210.983;000.114;92;000.469;MIDI 01
210.983;000.114;92;000.469;MIDI 01
210.976;000.201;64;000.289;MIDI 01
210.976;000.201;64;000.289;MIDI 01
211.097;000.084;90;000.484;MIDI 01
211.097;000.084;90;000.484;MIDI 01
211.185;000.090;61;000.336;MIDI 01
211.185;000.090;61;000.336;MIDI 01
211.188;000.089;87;000.523;MIDI 01
211.188;000.089;87;000.523;MIDI 01
211.280;000.054;85;000.500;MIDI 01
211.280;000.054;85;000.500;MIDI 01
211.370;000.043;82;000.422;MIDI 01
211.370;000.043;82;000.422;MIDI 01
211.411;000.078;70;000.344;MIDI 01
211.411;000.078;70;000.344;MIDI 01
211.490;000.060;80;000.453;MIDI 01
211.490;000.060;80;000.453;MIDI 01
211.580;000.105;64;000.320;MIDI 01
211.580;000.105;64;000.320;MIDI 01
211.605;000.080;87;000.414;MIDI 01
211.605;000.080;87;000.414;MIDI 01
211.688;000.091;85;000.461;MIDI 01
211.688;000.091;85;000.461;MIDI 01
211.779;000.092;82;000.484;MIDI 01
211.779;000.092;82;000.484;MIDI 01
211.779;000.129;61;000.359;MIDI 01
211.779;000.129;61;000.359;MIDI 01
211.876;000.064;80;000.492;MIDI 01
211.876;000.064;80;000.492;MIDI 01
211.973;000.078;78;000.422;MIDI 01
211.973;000.078;78;000.422;MIDI 01
211.967;000.160;54;000.383;MIDI 01
211.967;000.160;54;000.383;MIDI 01
212.084;000.071;75;000.492;MIDI 01
212.084;000.071;75;000.492;MIDI 01
212.222;000.082;82;000.391;MIDI 01
212.222;000.082;82;000.391;MIDI 01
212.216;000.127;66;000.312;MIDI 01
212.216;000.127;66;000.312;MIDI 01
212.318;000.090;80;000.375;MIDI 01
212.318;000.090;80;000.375;MIDI 01
212.422;000.092;78;000.406;MIDI 01
212.422;000.092;78;000.406;MIDI 01
212.537;000.049;75;000.461;MIDI 01
212.537;000.049;75;000.461;MIDI 01
212.434;000.269;63;000.305;MIDI 01
212.434;000.269;63;000.305;MIDI 01
212.786;000.103;73;000.391;MIDI 01
212.786;000.103;73;000.391;MIDI 01
212.693;000.229;71;000.391;MIDI 01
212.693;000.229;71;000.391;MIDI 01
212.922;000.067;75;000.391;MIDI 01
212.922;000.067;75;000.391;MIDI 01
212.982;000.189;66;000.281;MIDI 01
212.982;000.189;66;000.281;MIDI 01
213.068;000.161;78;000.305;MIDI 01
213.068;000.161;78;000.305;MIDI 01
213.209;000.118;70;000.344;MIDI 01
213.209;000.118;70;000.344;MIDI 01
213.400;000.040;71;000.312;MIDI 01
213.400;000.040;71;000.312;MIDI 01
213.220;000.372;63;000.328;MIDI 01
213.220;000.372;63;000.328;MIDI 01
213.632;000.149;75;000.359;MIDI 01
213.632;000.149;75;000.359;MIDI 01
213.815;000.073;73;000.352;MIDI 01
213.815;000.073;73;000.352;MIDI 01
213.618;000.289;54;000.250;MIDI 01
213.618;000.289;54;000.250;MIDI 01
213.658;000.324;70;000.258;MIDI 01
213.658;000.324;70;000.258;MIDI 01
213.994;000.062;69;000.367;MIDI 01
213.994;000.062;69;000.367;MIDI 01
214.119;000.051;70;000.430;MIDI 01
214.119;000.051;70;000.430;MIDI 01
214.014;000.192;64;000.312;MIDI 01
214.014;000.192;64;000.312;MIDI 01
214.223;000.043;71;000.477;MIDI 01
214.223;000.043;71;000.477;MIDI 01
214.341;000.030;72;000.352;MIDI 01
214.341;000.030;72;000.352;MIDI 01
214.235;000.186;61;000.328;MIDI 01
214.235;000.186;61;000.328;MIDI 01
214.403;000.036;73;000.422;MIDI 01
214.403;000.036;73;000.422;MIDI 01
214.435;000.044;54;000.258;MIDI 01
214.435;000.044;54;000.258;MIDI 01
214.512;000.032;74;000.422;MIDI 01
214.512;000.032;74;000.422;MIDI 01
214.577;000.031;75;000.523;MIDI 01
214.577;000.031;75;000.523;MIDI 01
214.670;000.051;76;000.523;MIDI 01
214.670;000.051;76;000.523;MIDI 01
214.701;000.058;70;000.438;MIDI 01
214.701;000.058;70;000.438;MIDI 01
214.753;000.026;77;000.422;MIDI 01
214.753;000.026;77;000.422;MIDI 01
214.721;000.084;64;000.312;MIDI 01
214.721;000.084;64;000.312;MIDI 01
214.823;000.021;78;000.445;MIDI 01
214.823;000.021;78;000.445;MIDI 01
214.907;000.022;79;000.484;MIDI 01
214.907;000.022;79;000.484;MIDI 01
214.992;000.025;80;000.445;MIDI 01
214.992;000.025;80;000.445;MIDI 01
214.906;000.121;61;000.391;MIDI 01
214.906;000.121;61;000.391;MIDI 01
215.051;000.070;53;000.523;MIDI 01
215.051;000.070;53;000.523;MIDI 01
215.076;000.098;81;000.531;MIDI 01
215.076;000.098;81;000.531;MIDI 01
215.185;000.084;82;000.523;MIDI 01
215.185;000.084;82;000.523;MIDI 01
215.282;000.075;87;000.516;MIDI 01
215.282;000.075;87;000.516;MIDI 01
215.342;000.059;70;000.422;MIDI 01
215.342;000.059;70;000.422;MIDI 01
215.387;000.058;85;000.469;MIDI 01
215.387;000.058;85;000.469;MIDI 01
215.335;000.130;65;000.289;MIDI 01
215.335;000.130;65;000.289;MIDI 01
215.479;000.060;81;000.547;MIDI 01
215.479;000.060;81;000.547;MIDI 01
215.541;000.060;61;000.461;MIDI 01
215.541;000.060;61;000.461;MIDI 01
215.597;000.030;82;000.375;MIDI 01
215.597;000.030;82;000.375;MIDI 01
215.671;000.047;83;000.523;MIDI 01
215.671;000.047;83;000.523;MIDI 01
215.678;000.043;52;000.586;MIDI 01
215.678;000.043;52;000.586;MIDI 01
215.772;000.045;84;000.523;MIDI 01
215.772;000.045;84;000.523;MIDI 01
215.840;000.062;85;000.539;MIDI 01
215.840;000.062;85;000.539;MIDI 01
215.927;000.041;67;000.406;MIDI 01
215.927;000.041;67;000.406;MIDI 01
215.931;000.064;86;000.547;MIDI 01
215.931;000.064;86;000.547;MIDI 01
215.951;000.069;70;000.438;MIDI 01
215.951;000.069;70;000.438;MIDI 01
216.011;000.073;87;000.547;MIDI 01
216.011;000.073;87;000.547;MIDI 01
216.108;000.046;61;000.430;MIDI 01
216.108;000.046;61;000.430;MIDI 01
216.088;000.073;88;000.617;MIDI 01
216.088;000.073;88;000.617;MIDI 01
216.191;000.048;89;000.555;MIDI 01
216.191;000.048;89;000.555;MIDI 01
216.247;000.082;90;000.516;MIDI 01
216.247;000.082;90;000.516;MIDI 01
216.331;000.067;53;000.609;MIDI 01
216.331;000.067;53;000.609;MIDI 01
216.345;000.106;91;000.656;MIDI 01
216.345;000.106;91;000.656;MIDI 01
216.477;000.140;92;000.594;MIDI 01
216.477;000.140;92;000.594;MIDI 01
216.594;000.033;83;000.516;MIDI 01
216.594;000.033;83;000.516;MIDI 01
216.627;000.060;68;000.547;MIDI 01
216.627;000.060;68;000.547;MIDI 01
216.661;000.085;84;000.578;MIDI 01
216.661;000.085;84;000.578;MIDI 01
216.761;000.130;91;000.609;MIDI 01
216.761;000.130;91;000.609;MIDI 01
216.807;000.106;65;000.570;MIDI 01
216.807;000.106;65;000.570;MIDI 01
216.868;000.059;92;000.492;MIDI 01
216.868;000.059;92;000.492;MIDI 01
216.931;000.078;88;000.617;MIDI 01
216.931;000.078;88;000.617;MIDI 01
217.016;000.092;89;000.664;MIDI 01
217.016;000.092;89;000.664;MIDI 01
217.106;000.119;95;000.641;MIDI 01
217.106;000.119;95;000.641;MIDI 01
217.139;000.119;68;000.516;MIDI 01
217.139;000.119;68;000.516;MIDI 01
217.216;000.075;96;000.633;MIDI 01
217.216;000.075;96;000.633;MIDI 01
217.266;000.032;65;000.461;MIDI 01
217.266;000.032;65;000.461;MIDI 01
216.938;000.362;60;000.578;MIDI 01
216.938;000.362;60;000.578;MIDI 01
217.270;000.131;91;000.586;MIDI 01
217.270;000.131;91;000.586;MIDI 01
217.369;000.091;92;000.656;MIDI 01
217.369;000.091;92;000.656;MIDI 01
217.467;000.022;99;000.453;MIDI 01
217.467;000.022;99;000.453;MIDI 01
217.427;000.079;51;000.680;MIDI 01
217.427;000.079;51;000.680;MIDI 01
217.482;000.072;100;000.578;MIDI 01
217.482;000.072;100;000.578;MIDI 01
217.547;000.156;101;000.594;MIDI 01
217.547;000.156;101;000.594;MIDI 01
217.644;000.091;68;000.664;MIDI 01
217.644;000.091;68;000.664;MIDI 01
217.622;000.117;93;000.633;MIDI 01
217.622;000.117;93;000.633;MIDI 01
217.708;000.110;94;000.633;MIDI 01
217.708;000.110;94;000.633;MIDI 01
217.807;000.103;100;000.617;MIDI 01
217.807;000.103;100;000.617;MIDI 01
217.821;000.116;65;000.562;MIDI 01
217.821;000.116;65;000.562;MIDI 01
217.875;000.170;101;000.625;MIDI 01
217.875;000.170;101;000.625;MIDI 01
217.978;000.101;94;000.688;MIDI 01
217.978;000.101;94;000.688;MIDI 01
218.072;000.121;95;000.672;MIDI 01
218.072;000.121;95;000.672;MIDI 01
218.162;000.137;68;000.547;MIDI 01
218.162;000.137;68;000.547;MIDI 01
218.170;000.151;100;000.688;MIDI 01
218.170;000.151;100;000.688;MIDI 01
217.958;000.406;60;000.648;MIDI 01
217.958;000.406;60;000.648;MIDI 01
218.335;000.030;65;000.539;MIDI 01
218.335;000.030;65;000.539;MIDI 01
218.383;000.108;95;000.641;MIDI 01
218.383;000.108;95;000.641;MIDI 01
218.280;000.233;101;000.711;MIDI 01
218.280;000.233;101;000.711;MIDI 01
218.485;000.166;96;000.680;MIDI 01
218.485;000.166;96;000.680;MIDI 01
218.642;000.157;50;000.711;MIDI 01
218.642;000.157;50;000.711;MIDI 01
218.673;000.136;100;000.594;MIDI 01
218.673;000.136;100;000.594;MIDI 01
218.802;000.109;101;000.617;MIDI 01
218.802;000.109;101;000.617;MIDI 01
218.904;000.080;95;000.578;MIDI 01
218.904;000.080;95;000.578;MIDI 01
219.008;000.036;96;000.594;MIDI 01
219.008;000.036;96;000.594;MIDI 01
219.078;000.073;91;000.602;MIDI 01
219.078;000.073;91;000.602;MIDI 01
219.185;000.069;92;000.602;MIDI 01
219.185;000.069;92;000.602;MIDI 01
219.240;000.111;88;000.609;MIDI 01
219.240;000.111;88;000.609;MIDI 01
219.367;000.019;89;000.523;MIDI 01
219.367;000.019;89;000.523;MIDI 01
219.240;000.153;68;000.727;MIDI 01
219.240;000.153;68;000.727;MIDI 01
219.432;000.033;84;000.422;MIDI 01
219.432;000.033;84;000.422;MIDI 01
219.240;000.261;65;000.602;MIDI 01
219.240;000.261;65;000.602;MIDI 01
219.467;000.043;83;000.250;MIDI 01
219.467;000.043;83;000.250;MIDI 01
219.525;000.110;84;000.625;MIDI 01
219.525;000.110;84;000.625;MIDI 01
219.624;000.099;79;000.633;MIDI 01
219.624;000.099;79;000.633;MIDI 01
219.725;000.056;80;000.648;MIDI 01
219.725;000.056;80;000.648;MIDI 01
219.820;000.027;76;000.609;MIDI 01
219.820;000.027;76;000.609;MIDI 01
219.915;000.088;77;000.578;MIDI 01
219.915;000.088;77;000.578;MIDI 01
220.006;000.113;71;000.633;MIDI 01
220.006;000.113;71;000.633;MIDI 01
220.114;000.067;72;000.648;MIDI 01
220.114;000.067;72;000.648;MIDI 01
219.242;000.996;60;000.609;MIDI 01
219.242;000.996;60;000.609;MIDI 01
220.208;000.091;67;000.625;MIDI 01
220.208;000.091;67;000.625;MIDI 01
220.317;000.056;68;000.648;MIDI 01
220.317;000.056;68;000.648;MIDI 01
220.454;000.191;64;000.719;MIDI 01
220.454;000.191;64;000.719;MIDI 01
220.641;000.143;65;000.664;MIDI 01
220.641;000.143;65;000.664;MIDI 01
220.775;000.057;67;000.742;MIDI 01
220.775;000.057;67;000.742;MIDI 01
220.907;000.077;68;000.734;MIDI 01
220.907;000.077;68;000.734;MIDI 01
221.046;000.155;71;000.680;MIDI 01
221.046;000.155;71;000.680;MIDI 01
221.179;000.050;72;000.672;MIDI 01
221.179;000.050;72;000.672;MIDI 01
221.480;000.117;37;000.734;MIDI 01
221.480;000.117;37;000.734;MIDI 01
221.481;000.135;103;000.711;MIDI 01
221.481;000.135;103;000.711;MIDI 01
221.478;000.191;100;000.750;MIDI 01
221.478;000.191;100;000.750;MIDI 01
221.732;000.021;103;000.484;MIDI 01
221.732;000.021;103;000.484;MIDI 01
221.733;000.026;101;000.406;MIDI 01
221.733;000.026;101;000.406;MIDI 01
221.721;000.041;102;000.344;MIDI 01
221.721;000.041;102;000.344;MIDI 01
221.708;000.091;104;000.680;MIDI 01
221.708;000.091;104;000.680;MIDI 01
221.848;000.069;100;000.695;MIDI 01
221.848;000.069;100;000.695;MIDI 01
221.992;000.023;101;000.641;MIDI 01
221.992;000.023;101;000.641;MIDI 01
222.009;000.023;100;000.508;MIDI 01
222.009;000.023;100;000.508;MIDI 01
221.996;000.037;97;000.609;MIDI 01
221.996;000.037;97;000.609;MIDI 01
221.855;000.226;96;000.617;MIDI 01
221.855;000.226;96;000.617;MIDI 01
222.045;000.060;99;000.070;MIDI 01
222.045;000.060;99;000.070;MIDI 01
222.136;000.066;91;000.695;MIDI 01
222.136;000.066;91;000.695;MIDI 01
222.148;000.112;53;000.586;MIDI 01
222.148;000.112;53;000.586;MIDI 01
222.139;000.141;94;000.688;MIDI 01
222.139;000.141;94;000.688;MIDI 01
222.265;000.025;91;000.438;MIDI 01
222.265;000.025;91;000.438;MIDI 01
222.234;000.084;59;000.586;MIDI 01
222.234;000.084;59;000.586;MIDI 01
222.343;000.016;68;000.773;MIDI 01
222.343;000.016;68;000.773;MIDI 01
222.251;000.142;95;000.719;MIDI 01
222.251;000.142;95;000.719;MIDI 01
222.430;000.028;68;000.312;MIDI 01
222.430;000.028;68;000.312;MIDI 01
222.377;000.103;88;000.711;MIDI 01
222.377;000.103;88;000.711;MIDI 01
222.375;000.151;91;000.750;MIDI 01
222.375;000.151;91;000.750;MIDI 01
222.510;000.028;89;000.617;MIDI 01
222.510;000.028;89;000.617;MIDI 01
222.493;000.064;92;000.680;MIDI 01
222.493;000.064;92;000.680;MIDI 01
222.641;000.041;84;000.625;MIDI 01
222.641;000.041;84;000.625;MIDI 01
222.636;000.130;88;000.641;MIDI 01
222.636;000.130;88;000.641;MIDI 01
222.743;000.043;85;000.672;MIDI 01
222.743;000.043;85;000.672;MIDI 01
222.767;000.031;89;000.586;MIDI 01
222.767;000.031;89;000.586;MIDI 01
222.778;000.049;84;000.188;MIDI 01
222.778;000.049;84;000.188;MIDI 01
222.891;000.039;79;000.641;MIDI 01
222.891;000.039;79;000.641;MIDI 01
222.895;000.130;82;000.664;MIDI 01
222.895;000.130;82;000.664;MIDI 01
223.011;000.050;80;000.578;MIDI 01
223.011;000.050;80;000.578;MIDI 01
223.018;000.129;83;000.648;MIDI 01
223.018;000.129;83;000.648;MIDI 01
223.141;000.046;76;000.641;MIDI 01
223.141;000.046;76;000.641;MIDI 01
223.147;000.146;79;000.648;MIDI 01
223.147;000.146;79;000.648;MIDI 01
223.297;000.034;77;000.516;MIDI 01
223.297;000.034;77;000.516;MIDI 01
223.271;000.062;80;000.617;MIDI 01
223.271;000.062;80;000.617;MIDI 01
223.445;000.033;72;000.492;MIDI 01
223.445;000.033;72;000.492;MIDI 01
223.435;000.134;76;000.625;MIDI 01
223.435;000.134;76;000.625;MIDI 01
223.572;000.040;77;000.547;MIDI 01
223.572;000.040;77;000.547;MIDI 01
223.578;000.044;73;000.539;MIDI 01
223.578;000.044;73;000.539;MIDI 01
223.758;000.155;67;000.531;MIDI 01
223.758;000.155;67;000.531;MIDI 01
223.749;000.171;70;000.609;MIDI 01
223.749;000.171;70;000.609;MIDI 01
223.934;000.047;68;000.469;MIDI 01
223.934;000.047;68;000.469;MIDI 01
223.915;000.208;71;000.570;MIDI 01
223.915;000.208;71;000.570;MIDI 01
224.109;000.084;64;000.508;MIDI 01
224.109;000.084;64;000.508;MIDI 01
224.113;000.200;67;000.531;MIDI 01
224.113;000.200;67;000.531;MIDI 01
224.322;000.177;65;000.523;MIDI 01
224.322;000.177;65;000.523;MIDI 01
224.312;000.203;68;000.547;MIDI 01
224.312;000.203;68;000.547;MIDI 01
224.529;000.202;69;000.523;MIDI 01
224.529;000.202;69;000.523;MIDI 01
224.521;000.237;66;000.508;MIDI 01
224.521;000.237;66;000.508;MIDI 01
224.771;000.375;67;000.469;MIDI 01
224.771;000.375;67;000.469;MIDI 01
224.758;000.414;70;000.500;MIDI 01
224.758;000.414;70;000.500;MIDI 01
225.169;000.513;68;000.391;MIDI 01
225.169;000.513;68;000.391;MIDI 01
225.175;000.593;71;000.430;MIDI 01
225.175;000.593;71;000.430;MIDI 01
226.534;000.219;71;000.359;MIDI 01
226.534;000.219;71;000.359;MIDI 01
226.881;000.193;71;000.453;MIDI 01
226.881;000.193;71;000.453;MIDI 01
227.086;000.129;72;000.500;MIDI 01
227.086;000.129;72;000.500;MIDI 01
227.227;000.094;71;000.516;MIDI 01
227.227;000.094;71;000.516;MIDI 01
227.355;000.109;70;000.492;MIDI 01
227.355;000.109;70;000.492;MIDI 01
227.497;000.083;71;000.492;MIDI 01
227.497;000.083;71;000.492;MIDI 01
227.758;000.500;71;000.445;MIDI 01
227.758;000.500;71;000.445;MIDI 01
228.232;001.737;77;000.406;MIDI 01
228.232;001.737;77;000.406;MIDI 01
230.020;000.216;71;000.305;MIDI 01
230.020;000.216;71;000.305;MIDI 01
230.974;000.398;36;000.172;MIDI 01
230.974;000.398;36;000.172;MIDI 01
230.958;000.474;73;000.297;MIDI 01
230.958;000.474;73;000.297;MIDI 01
230.986;000.498;68;000.227;MIDI 01
230.986;000.498;68;000.227;MIDI 01
230.979;000.567;65;000.211;MIDI 01
230.979;000.567;65;000.211;MIDI 01
231.422;000.315;72;000.312;MIDI 01
231.422;000.315;72;000.312;MIDI 01
231.705;000.244;71;000.320;MIDI 01
231.705;000.244;71;000.320;MIDI 01
231.951;000.291;72;000.297;MIDI 01
231.951;000.291;72;000.297;MIDI 01
232.194;000.339;71;000.312;MIDI 01
232.194;000.339;71;000.312;MIDI 01
232.521;000.524;72;000.352;MIDI 01
232.521;000.524;72;000.352;MIDI 01
232.992;000.232;73;000.320;MIDI 01
232.992;000.232;73;000.320;MIDI 01
233.277;000.107;74;000.367;MIDI 01
233.277;000.107;74;000.367;MIDI 01
233.436;000.066;75;000.336;MIDI 01
233.436;000.066;75;000.336;MIDI 01
233.553;000.117;76;000.359;MIDI 01
233.553;000.117;76;000.359;MIDI 01
233.671;000.036;79;000.344;MIDI 01
233.671;000.036;79;000.344;MIDI 01
233.778;000.058;77;000.320;MIDI 01
233.778;000.058;77;000.320;MIDI 01
233.857;000.062;76;000.414;MIDI 01
233.857;000.062;76;000.414;MIDI 01
233.035;000.922;56;000.203;MIDI 01
233.035;000.922;56;000.203;MIDI 01
233.956;000.048;75;000.422;MIDI 01
233.956;000.048;75;000.422;MIDI 01
233.461;000.556;65;000.195;MIDI 01
233.461;000.556;65;000.195;MIDI 01
233.784;000.247;60;000.211;MIDI 01
233.784;000.247;60;000.211;MIDI 01
234.064;000.074;74;000.422;MIDI 01
234.064;000.074;74;000.422;MIDI 01
234.171;000.066;73;000.375;MIDI 01
234.171;000.066;73;000.375;MIDI 01
234.266;000.035;72;000.367;MIDI 01
234.266;000.035;72;000.367;MIDI 01
234.330;000.075;71;000.414;MIDI 01
234.330;000.075;71;000.414;MIDI 01
234.272;000.257;63;000.297;MIDI 01
234.272;000.257;63;000.297;MIDI 01
234.451;000.078;70;000.391;MIDI 01
234.451;000.078;70;000.391;MIDI 01
234.539;000.037;69;000.367;MIDI 01
234.539;000.037;69;000.367;MIDI 01
233.993;000.594;55;000.281;MIDI 01
233.993;000.594;55;000.281;MIDI 01
234.503;000.133;58;000.117;MIDI 01
234.503;000.133;58;000.117;MIDI 01
234.616;000.073;68;000.430;MIDI 01
234.616;000.073;68;000.430;MIDI 01
234.700;000.077;69;000.445;MIDI 01
234.700;000.077;69;000.445;MIDI 01
234.799;000.034;70;000.336;MIDI 01
234.799;000.034;70;000.336;MIDI 01
234.849;000.041;71;000.414;MIDI 01
234.849;000.041;71;000.414;MIDI 01
234.968;000.035;72;000.273;MIDI 01
234.968;000.035;72;000.273;MIDI 01
235.021;000.083;75;000.391;MIDI 01
235.021;000.083;75;000.391;MIDI 01
234.878;000.229;61;000.312;MIDI 01
234.878;000.229;61;000.312;MIDI 01
235.081;000.149;56;000.250;MIDI 01
235.081;000.149;56;000.250;MIDI 01
235.136;000.094;73;000.406;MIDI 01
235.136;000.094;73;000.406;MIDI 01
234.655;000.585;53;000.250;MIDI 01
234.655;000.585;53;000.250;MIDI 01
235.241;000.066;72;000.367;MIDI 01
235.241;000.066;72;000.367;MIDI 01
235.352;000.076;71;000.469;MIDI 01
235.352;000.076;71;000.469;MIDI 01
235.460;000.081;70;000.422;MIDI 01
235.460;000.081;70;000.422;MIDI 01
235.544;000.059;69;000.461;MIDI 01
235.544;000.059;69;000.461;MIDI 01
235.270;000.401;52;000.305;MIDI 01
235.270;000.401;52;000.305;MIDI 01
235.639;000.046;68;000.453;MIDI 01
235.639;000.046;68;000.453;MIDI 01
235.709;000.058;67;000.438;MIDI 01
235.709;000.058;67;000.438;MIDI 01
235.496;000.283;60;000.203;MIDI 01
235.496;000.283;60;000.203;MIDI 01
235.668;000.158;55;000.219;MIDI 01
235.668;000.158;55;000.219;MIDI 01
235.793;000.092;66;000.453;MIDI 01
235.793;000.092;66;000.453;MIDI 01
235.906;000.031;65;000.383;MIDI 01
235.906;000.031;65;000.383;MIDI 01
235.963;000.054;64;000.461;MIDI 01
235.963;000.054;64;000.461;MIDI 01
236.046;000.035;65;000.445;MIDI 01
236.046;000.035;65;000.445;MIDI 01
236.123;000.040;66;000.383;MIDI 01
236.123;000.040;66;000.383;MIDI 01
235.866;000.315;51;000.352;MIDI 01
235.866;000.315;51;000.352;MIDI 01
236.203;000.047;67;000.445;MIDI 01
236.203;000.047;67;000.445;MIDI 01
236.302;000.042;68;000.406;MIDI 01
236.302;000.042;68;000.406;MIDI 01
236.222;000.124;57;000.336;MIDI 01
236.222;000.124;57;000.336;MIDI 01
236.053;000.335;60;000.344;MIDI 01
236.053;000.335;60;000.344;MIDI 01
236.392;000.033;69;000.461;MIDI 01
236.392;000.033;69;000.461;MIDI 01
236.478;000.033;70;000.391;MIDI 01
236.478;000.033;70;000.391;MIDI 01
236.389;000.184;50;000.336;MIDI 01
236.389;000.184;50;000.336;MIDI 01
236.545;000.048;71;000.500;MIDI 01
236.545;000.048;71;000.500;MIDI 01
236.636;000.044;72;000.453;MIDI 01
236.636;000.044;72;000.453;MIDI 01
236.719;000.043;73;000.398;MIDI 01
236.719;000.043;73;000.398;MIDI 01
236.799;000.050;74;000.508;MIDI 01
236.799;000.050;74;000.508;MIDI 01
236.636;000.232;58;000.227;MIDI 01
236.636;000.232;58;000.227;MIDI 01
236.885;000.040;75;000.484;MIDI 01
236.885;000.040;75;000.484;MIDI 01
236.815;000.173;53;000.180;MIDI 01
236.815;000.173;53;000.180;MIDI 01
236.982;000.045;76;000.516;MIDI 01
236.982;000.045;76;000.516;MIDI 01
237.084;000.048;77;000.391;MIDI 01
237.084;000.048;77;000.391;MIDI 01
237.177;000.070;78;000.367;MIDI 01
237.177;000.070;78;000.367;MIDI 01
237.323;000.055;79;000.422;MIDI 01
237.323;000.055;79;000.422;MIDI 01
237.223;000.267;59;000.352;MIDI 01
237.223;000.267;59;000.352;MIDI 01
237.468;000.046;80;000.430;MIDI 01
237.468;000.046;80;000.430;MIDI 01
237.528;000.043;53;000.281;MIDI 01
237.528;000.043;53;000.281;MIDI 01
236.990;000.629;49;000.320;MIDI 01
236.990;000.629;49;000.320;MIDI 01
237.685;000.090;71;000.461;MIDI 01
237.685;000.090;71;000.461;MIDI 01
237.898;000.140;73;000.406;MIDI 01
237.898;000.140;73;000.406;MIDI 01
237.955;000.093;68;000.328;MIDI 01
237.955;000.093;68;000.328;MIDI 01
237.932;000.120;65;000.266;MIDI 01
237.932;000.120;65;000.266;MIDI 01
237.945;000.209;36;000.250;MIDI 01
237.945;000.209;36;000.250;MIDI 01
238.123;000.071;72;000.383;MIDI 01
238.123;000.071;72;000.383;MIDI 01
238.264;000.034;71;000.336;MIDI 01
238.264;000.034;71;000.336;MIDI 01
238.351;000.052;72;000.438;MIDI 01
238.351;000.052;72;000.438;MIDI 01
238.444;000.062;71;000.477;MIDI 01
238.444;000.062;71;000.477;MIDI 01
238.566;000.085;72;000.453;MIDI 01
238.566;000.085;72;000.453;MIDI 01
238.690;000.051;73;000.445;MIDI 01
238.690;000.051;73;000.445;MIDI 01
238.800;000.050;74;000.469;MIDI 01
238.800;000.050;74;000.469;MIDI 01
238.898;000.052;75;000.398;MIDI 01
238.898;000.052;75;000.398;MIDI 01
238.984;000.080;76;000.469;MIDI 01
238.984;000.080;76;000.469;MIDI 01
238.988;000.111;65;000.320;MIDI 01
238.988;000.111;65;000.320;MIDI 01
239.081;000.050;79;000.453;MIDI 01
239.081;000.050;79;000.453;MIDI 01
239.146;000.081;77;000.422;MIDI 01
239.146;000.081;77;000.422;MIDI 01
239.224;000.072;76;000.531;MIDI 01
239.224;000.072;76;000.531;MIDI 01
239.197;000.109;60;000.242;MIDI 01
239.197;000.109;60;000.242;MIDI 01
238.685;000.636;56;000.352;MIDI 01
238.685;000.636;56;000.352;MIDI 01
239.317;000.047;75;000.500;MIDI 01
239.317;000.047;75;000.500;MIDI 01
239.385;000.080;74;000.516;MIDI 01
239.385;000.080;74;000.516;MIDI 01
239.489;000.059;73;000.477;MIDI 01
239.489;000.059;73;000.477;MIDI 01
239.570;000.043;72;000.438;MIDI 01
239.570;000.043;72;000.438;MIDI 01
239.553;000.073;63;000.289;MIDI 01
239.553;000.073;63;000.289;MIDI 01
239.639;000.057;71;000.484;MIDI 01
239.639;000.057;71;000.484;MIDI 01
239.717;000.057;70;000.492;MIDI 01
239.717;000.057;70;000.492;MIDI 01
239.804;000.033;69;000.352;MIDI 01
239.804;000.033;69;000.352;MIDI 01
239.699;000.162;58;000.344;MIDI 01
239.699;000.162;58;000.344;MIDI 01
239.352;000.527;55;000.352;MIDI 01
239.352;000.527;55;000.352;MIDI 01
239.860;000.068;68;000.539;MIDI 01
239.860;000.068;68;000.539;MIDI 01
239.933;000.070;69;000.562;MIDI 01
239.933;000.070;69;000.562;MIDI 01
240.016;000.027;70;000.430;MIDI 01
240.016;000.027;70;000.430;MIDI 01
240.069;000.048;71;000.523;MIDI 01
240.069;000.048;71;000.523;MIDI 01
240.098;000.068;61;000.406;MIDI 01
240.098;000.068;61;000.406;MIDI 01
240.152;000.058;72;000.453;MIDI 01
240.152;000.058;72;000.453;MIDI 01
240.223;000.090;75;000.469;MIDI 01
240.223;000.090;75;000.469;MIDI 01
239.899;000.449;53;000.352;MIDI 01
239.899;000.449;53;000.352;MIDI 01
240.258;000.117;56;000.367;MIDI 01
240.258;000.117;56;000.367;MIDI 01
240.310;000.090;73;000.469;MIDI 01
240.310;000.090;73;000.469;MIDI 01
240.400;000.051;72;000.477;MIDI 01
240.400;000.051;72;000.477;MIDI 01
240.489;000.091;71;000.500;MIDI 01
240.489;000.091;71;000.500;MIDI 01
240.594;000.071;70;000.438;MIDI 01
240.594;000.071;70;000.438;MIDI 01
240.669;000.053;69;000.516;MIDI 01
240.669;000.053;69;000.516;MIDI 01
240.451;000.359;52;000.219;MIDI 01
240.451;000.359;52;000.219;MIDI 01
240.754;000.056;68;000.445;MIDI 01
240.754;000.056;68;000.445;MIDI 01
240.820;000.067;67;000.469;MIDI 01
240.820;000.067;67;000.469;MIDI 01
240.629;000.278;60;000.320;MIDI 01
240.629;000.278;60;000.320;MIDI 01
240.812;000.107;55;000.367;MIDI 01
240.812;000.107;55;000.367;MIDI 01
240.894;000.091;66;000.516;MIDI 01
240.894;000.091;66;000.516;MIDI 01
240.989;000.044;65;000.516;MIDI 01
240.989;000.044;65;000.516;MIDI 01
241.065;000.048;64;000.523;MIDI 01
241.065;000.048;64;000.523;MIDI 01
241.130;000.042;65;000.461;MIDI 01
241.130;000.042;65;000.461;MIDI 01
241.183;000.051;66;000.469;MIDI 01
241.183;000.051;66;000.469;MIDI 01
241.149;000.146;60;000.422;MIDI 01
241.149;000.146;60;000.422;MIDI 01
240.972;000.331;51;000.453;MIDI 01
240.972;000.331;51;000.453;MIDI 01
241.284;000.046;67;000.523;MIDI 01
241.284;000.046;67;000.523;MIDI 01
241.370;000.042;68;000.523;MIDI 01
241.370;000.042;68;000.523;MIDI 01
241.324;000.169;57;000.422;MIDI 01
241.324;000.169;57;000.422;MIDI 01
241.478;000.040;69;000.516;MIDI 01
241.478;000.040;69;000.516;MIDI 01
241.545;000.035;70;000.500;MIDI 01
241.545;000.035;70;000.500;MIDI 01
241.518;000.076;50;000.500;MIDI 01
241.518;000.076;50;000.500;MIDI 01
241.618;000.059;71;000.578;MIDI 01
241.618;000.059;71;000.578;MIDI 01
241.707;000.050;72;000.555;MIDI 01
241.707;000.050;72;000.555;MIDI 01
241.755;000.068;65;000.469;MIDI 01
241.755;000.068;65;000.469;MIDI 01
241.791;000.043;73;000.484;MIDI 01
241.791;000.043;73;000.484;MIDI 01
241.865;000.046;74;000.562;MIDI 01
241.865;000.046;74;000.562;MIDI 01
241.940;000.030;75;000.594;MIDI 01
241.940;000.030;75;000.594;MIDI 01
241.924;000.082;58;000.414;MIDI 01
241.924;000.082;58;000.414;MIDI 01
242.022;000.059;76;000.609;MIDI 01
242.022;000.059;76;000.609;MIDI 01
242.035;000.069;49;000.586;MIDI 01
242.035;000.069;49;000.586;MIDI 01
242.097;000.050;77;000.562;MIDI 01
242.097;000.050;77;000.562;MIDI 01
242.174;000.036;78;000.531;MIDI 01
242.174;000.036;78;000.531;MIDI 01
242.242;000.048;65;000.484;MIDI 01
242.242;000.048;65;000.484;MIDI 01
242.255;000.049;79;000.586;MIDI 01
242.255;000.049;79;000.586;MIDI 01
242.345;000.030;80;000.578;MIDI 01
242.345;000.030;80;000.578;MIDI 01
242.405;000.042;59;000.273;MIDI 01
242.405;000.042;59;000.273;MIDI 01
242.427;000.041;56;000.500;MIDI 01
242.427;000.041;56;000.500;MIDI 01
242.438;000.065;81;000.641;MIDI 01
242.438;000.065;81;000.641;MIDI 01
242.518;000.044;82;000.516;MIDI 01
242.518;000.044;82;000.516;MIDI 01
242.633;000.127;83;000.547;MIDI 01
242.633;000.127;83;000.547;MIDI 01
242.787;000.089;84;000.492;MIDI 01
242.787;000.089;84;000.492;MIDI 01
242.630;000.353;48;000.641;MIDI 01
242.630;000.353;48;000.641;MIDI 01
242.901;000.128;92;000.609;MIDI 01
242.901;000.128;92;000.609;MIDI 01
243.008;000.100;91;000.578;MIDI 01
243.008;000.100;91;000.578;MIDI 01
242.921;000.203;56;000.609;MIDI 01
242.921;000.203;56;000.609;MIDI 01
243.105;000.098;90;000.625;MIDI 01
243.105;000.098;90;000.625;MIDI 01
243.208;000.040;89;000.523;MIDI 01
243.208;000.040;89;000.523;MIDI 01
243.132;000.133;60;000.656;MIDI 01
243.132;000.133;60;000.656;MIDI 01
243.316;000.036;65;000.625;MIDI 01
243.316;000.036;65;000.625;MIDI 01
243.284;000.090;88;000.625;MIDI 01
243.284;000.090;88;000.625;MIDI 01
243.385;000.065;87;000.570;MIDI 01
243.385;000.065;87;000.570;MIDI 01
243.473;000.079;86;000.625;MIDI 01
243.473;000.079;86;000.625;MIDI 01
243.575;000.027;85;000.391;MIDI 01
243.575;000.027;85;000.391;MIDI 01
243.611;000.044;84;000.594;MIDI 01
243.611;000.044;84;000.594;MIDI 01
243.709;000.110;83;000.570;MIDI 01
243.709;000.110;83;000.570;MIDI 01
243.827;000.058;82;000.539;MIDI 01
243.827;000.058;82;000.539;MIDI 01
243.759;000.153;48;000.672;MIDI 01
243.759;000.153;48;000.672;MIDI 01
243.955;000.032;54;000.094;MIDI 01
243.955;000.032;54;000.094;MIDI 01
243.905;000.124;87;000.609;MIDI 01
243.905;000.124;87;000.609;MIDI 01
243.993;000.105;85;000.602;MIDI 01
243.993;000.105;85;000.602;MIDI 01
243.990;000.140;58;000.547;MIDI 01
243.990;000.140;58;000.547;MIDI 01
244.072;000.079;82;000.570;MIDI 01
244.072;000.079;82;000.570;MIDI 01
244.162;000.042;80;000.531;MIDI 01
244.162;000.042;80;000.531;MIDI 01
244.235;000.060;78;000.586;MIDI 01
244.235;000.060;78;000.586;MIDI 01
244.178;000.147;61;000.578;MIDI 01
244.178;000.147;61;000.578;MIDI 01
244.314;000.034;66;000.680;MIDI 01
244.314;000.034;66;000.680;MIDI 01
244.329;000.136;75;000.531;MIDI 01
244.329;000.136;75;000.531;MIDI 01
244.406;000.123;73;000.641;MIDI 01
244.406;000.123;73;000.641;MIDI 01
244.526;000.115;69;000.617;MIDI 01
244.526;000.115;69;000.617;MIDI 01
244.623;000.092;70;000.594;MIDI 01
244.623;000.092;70;000.594;MIDI 01
244.720;000.126;75;000.617;MIDI 01
244.720;000.126;75;000.617;MIDI 01
244.821;000.143;73;000.641;MIDI 01
244.821;000.143;73;000.641;MIDI 01
244.948;000.108;71;000.531;MIDI 01
244.948;000.108;71;000.531;MIDI 01
245.060;000.027;72;000.602;MIDI 01
245.060;000.027;72;000.602;MIDI 01
245.242;000.020;92;000.555;MIDI 01
245.242;000.020;92;000.555;MIDI 01
244.889;000.399;48;000.734;MIDI 01
244.889;000.399;48;000.734;MIDI 01
245.191;000.238;56;000.719;MIDI 01
245.191;000.238;56;000.719;MIDI 01
245.332;000.100;91;000.414;MIDI 01
245.332;000.100;91;000.414;MIDI 01
245.430;000.127;90;000.539;MIDI 01
245.430;000.127;90;000.539;MIDI 01
245.432;000.145;60;000.648;MIDI 01
245.432;000.145;60;000.648;MIDI 01
245.548;000.057;89;000.539;MIDI 01
245.548;000.057;89;000.539;MIDI 01
245.624;000.031;65;000.602;MIDI 01
245.624;000.031;65;000.602;MIDI 01
245.626;000.107;88;000.609;MIDI 01
245.626;000.107;88;000.609;MIDI 01
245.726;000.077;87;000.648;MIDI 01
245.726;000.077;87;000.648;MIDI 01
245.822;000.079;86;000.656;MIDI 01
245.822;000.079;86;000.656;MIDI 01
245.907;000.055;85;000.562;MIDI 01
245.907;000.055;85;000.562;MIDI 01
245.976;000.062;84;000.594;MIDI 01
245.976;000.062;84;000.594;MIDI 01
246.045;000.105;83;000.586;MIDI 01
246.045;000.105;83;000.586;MIDI 01
246.140;000.084;82;000.648;MIDI 01
246.140;000.084;82;000.648;MIDI 01
246.075;000.185;48;000.688;MIDI 01
246.075;000.185;48;000.688;MIDI 01
246.239;000.126;87;000.672;MIDI 01
246.239;000.126;87;000.672;MIDI 01
246.321;000.122;85;000.625;MIDI 01
246.321;000.122;85;000.625;MIDI 01
246.325;000.160;58;000.586;MIDI 01
246.325;000.160;58;000.586;MIDI 01
246.391;000.116;82;000.578;MIDI 01
246.391;000.116;82;000.578;MIDI 01
246.482;000.090;80;000.602;MIDI 01
246.482;000.090;80;000.602;MIDI 01
246.571;000.037;78;000.594;MIDI 01
246.571;000.037;78;000.594;MIDI 01
246.525;000.168;61;000.602;MIDI 01
246.525;000.168;61;000.602;MIDI 01
246.681;000.032;66;000.664;MIDI 01
246.681;000.032;66;000.664;MIDI 01
246.678;000.142;75;000.656;MIDI 01
246.678;000.142;75;000.656;MIDI 01
246.766;000.126;73;000.617;MIDI 01
246.766;000.126;73;000.617;MIDI 01
246.869;000.147;69;000.688;MIDI 01
246.869;000.147;69;000.688;MIDI 01
246.986;000.109;70;000.656;MIDI 01
246.986;000.109;70;000.656;MIDI 01
247.107;000.157;75;000.688;MIDI 01
247.107;000.157;75;000.688;MIDI 01
247.229;000.200;73;000.695;MIDI 01
247.229;000.200;73;000.695;MIDI 01
247.384;000.184;71;000.609;MIDI 01
247.384;000.184;71;000.609;MIDI 01
247.564;000.024;72;000.688;MIDI 01
247.564;000.024;72;000.688;MIDI 01
247.380;000.452;48;000.742;MIDI 01
247.380;000.452;48;000.742;MIDI 01
247.827;000.023;92;000.539;MIDI 01
247.827;000.023;92;000.539;MIDI 01
247.839;000.023;90;000.461;MIDI 01
247.839;000.023;90;000.461;MIDI 01
247.817;000.052;100;000.672;MIDI 01
247.817;000.052;100;000.672;MIDI 01
247.814;000.057;101;000.734;MIDI 01
247.814;000.057;101;000.734;MIDI 01
248.068;000.066;100;000.734;MIDI 01
248.068;000.066;100;000.734;MIDI 01
248.246;000.040;99;000.648;MIDI 01
248.246;000.040;99;000.648;MIDI 01
247.785;000.504;56;000.648;MIDI 01
247.785;000.504;56;000.648;MIDI 01
248.249;000.056;91;000.680;MIDI 01
248.249;000.056;91;000.680;MIDI 01
248.407;000.020;90;000.555;MIDI 01
248.407;000.020;90;000.555;MIDI 01
248.383;000.056;98;000.719;MIDI 01
248.383;000.056;98;000.719;MIDI 01
248.512;000.047;89;000.688;MIDI 01
248.512;000.047;89;000.688;MIDI 01
248.524;000.037;97;000.648;MIDI 01
248.524;000.037;97;000.648;MIDI 01
248.290;000.295;60;000.617;MIDI 01
248.290;000.295;60;000.617;MIDI 01
248.554;000.031;90;000.297;MIDI 01
248.554;000.031;90;000.297;MIDI 01
248.649;000.025;88;000.617;MIDI 01
248.649;000.025;88;000.617;MIDI 01
248.631;000.052;96;000.664;MIDI 01
248.631;000.052;96;000.664;MIDI 01
248.762;000.026;92;000.461;MIDI 01
248.762;000.026;92;000.461;MIDI 01
248.755;000.036;84;000.602;MIDI 01
248.755;000.036;84;000.602;MIDI 01
248.870;000.031;84;000.578;MIDI 01
248.870;000.031;84;000.578;MIDI 01
248.874;000.053;91;000.672;MIDI 01
248.874;000.053;91;000.672;MIDI 01
248.905;000.038;83;000.289;MIDI 01
248.905;000.038;83;000.289;MIDI 01
249.018;000.001;83;000.188;MIDI 01
249.018;000.001;83;000.188;MIDI 01
248.990;000.031;90;000.641;MIDI 01
248.990;000.031;90;000.641;MIDI 01
249.004;000.076;82;000.602;MIDI 01
249.004;000.076;82;000.602;MIDI 01
248.544;000.581;65;000.508;MIDI 01
248.544;000.581;65;000.508;MIDI 01
249.105;000.070;89;000.688;MIDI 01
249.105;000.070;89;000.688;MIDI 01
249.135;000.056;80;000.656;MIDI 01
249.135;000.056;80;000.656;MIDI 01
249.300;000.002;85;000.297;MIDI 01
249.300;000.002;85;000.297;MIDI 01
249.275;000.028;77;000.617;MIDI 01
249.275;000.028;77;000.617;MIDI 01
249.317;000.032;84;000.344;MIDI 01
249.317;000.032;84;000.344;MIDI 01
249.420;000.029;76;000.625;MIDI 01
249.420;000.029;76;000.625;MIDI 01
249.429;000.043;84;000.625;MIDI 01
249.429;000.043;84;000.625;MIDI 01
249.553;000.045;72;000.648;MIDI 01
249.553;000.045;72;000.648;MIDI 01
249.556;000.044;80;000.641;MIDI 01
249.556;000.044;80;000.641;MIDI 01
249.696;000.056;71;000.688;MIDI 01
249.696;000.056;71;000.688;MIDI 01
249.708;000.064;79;000.633;MIDI 01
249.708;000.064;79;000.633;MIDI 01
249.271;000.589;60;000.148;MIDI 01
249.271;000.589;60;000.148;MIDI 01
249.834;000.058;78;000.594;MIDI 01
249.834;000.058;78;000.594;MIDI 01
249.844;000.050;71;000.484;MIDI 01
249.844;000.050;71;000.484;MIDI 01
249.981;000.057;77;000.609;MIDI 01
249.981;000.057;77;000.609;MIDI 01
249.990;000.059;68;000.719;MIDI 01
249.990;000.059;68;000.719;MIDI 01
250.072;000.033;48;000.539;MIDI 01
250.072;000.033;48;000.539;MIDI 01
250.242;000.197;73;000.633;MIDI 01
250.242;000.197;73;000.633;MIDI 01
250.240;000.201;70;000.656;MIDI 01
250.240;000.201;70;000.656;MIDI 01
250.246;000.338;66;000.711;MIDI 01
250.246;000.338;66;000.711;MIDI 01
250.553;000.034;69;000.562;MIDI 01
250.553;000.034;69;000.562;MIDI 01
250.550;000.081;73;000.664;MIDI 01
250.550;000.081;73;000.664;MIDI 01
250.755;000.067;68;000.656;MIDI 01
250.755;000.067;68;000.656;MIDI 01
250.757;000.080;73;000.672;MIDI 01
250.757;000.080;73;000.672;MIDI 01
250.762;000.108;61;000.625;MIDI 01
250.762;000.108;61;000.625;MIDI 01
250.773;000.122;58;000.555;MIDI 01
250.773;000.122;58;000.555;MIDI 01
250.944;000.053;67;000.703;MIDI 01
250.944;000.053;67;000.703;MIDI 01
250.953;000.065;73;000.695;MIDI 01
250.953;000.065;73;000.695;MIDI 01
251.131;000.046;66;000.664;MIDI 01
251.131;000.046;66;000.664;MIDI 01
251.133;000.073;73;000.703;MIDI 01
251.133;000.073;73;000.703;MIDI 01
251.366;000.026;58;000.523;MIDI 01
251.366;000.026;58;000.523;MIDI 01
251.361;000.032;56;000.586;MIDI 01
251.361;000.032;56;000.586;MIDI 01
251.394;000.035;65;000.672;MIDI 01
251.394;000.035;65;000.672;MIDI 01
251.399;000.059;73;000.688;MIDI 01
251.399;000.059;73;000.688;MIDI 01
251.707;000.211;36;000.695;MIDI 01
251.707;000.211;36;000.695;MIDI 01
252.081;000.047;55;000.711;MIDI 01
252.081;000.047;55;000.711;MIDI 01
252.322;000.066;58;000.711;MIDI 01
252.322;000.066;58;000.711;MIDI 01
252.511;000.157;64;000.727;MIDI 01
252.511;000.157;64;000.727;MIDI 01
252.916;001.378;73;000.758;MIDI 01
252.916;001.378;73;000.758;MIDI 01
255.548;000.180;59;000.336;MIDI 01
255.548;000.180;59;000.336;MIDI 01
255.743;000.110;60;000.383;MIDI 01
255.743;000.110;60;000.383;MIDI 01
255.882;000.034;61;000.453;MIDI 01
255.882;000.034;61;000.453;MIDI 01
255.941;000.080;64;000.328;MIDI 01
255.941;000.080;64;000.328;MIDI 01
256.054;000.034;65;000.320;MIDI 01
256.054;000.034;65;000.320;MIDI 01
256.119;000.029;68;000.406;MIDI 01
256.119;000.029;68;000.406;MIDI 01
256.199;000.037;66;000.484;MIDI 01
256.199;000.037;66;000.484;MIDI 01
256.264;000.041;67;000.484;MIDI 01
256.264;000.041;67;000.484;MIDI 01
256.343;000.029;68;000.336;MIDI 01
256.343;000.029;68;000.336;MIDI 01
256.343;000.044;69;000.398;MIDI 01
256.343;000.044;69;000.398;MIDI 01
256.398;000.069;70;000.477;MIDI 01
256.398;000.069;70;000.477;MIDI 01
256.486;000.034;73;000.461;MIDI 01
256.486;000.034;73;000.461;MIDI 01
256.565;000.039;71;000.414;MIDI 01
256.565;000.039;71;000.414;MIDI 01
256.555;000.078;63;000.469;MIDI 01
256.555;000.078;63;000.469;MIDI 01
256.643;000.041;64;000.539;MIDI 01
256.643;000.041;64;000.539;MIDI 01
256.615;000.079;72;000.414;MIDI 01
256.615;000.079;72;000.414;MIDI 01
256.688;000.021;73;000.516;MIDI 01
256.688;000.021;73;000.516;MIDI 01
256.724;000.026;65;000.461;MIDI 01
256.724;000.026;65;000.461;MIDI 01
256.773;000.047;76;000.570;MIDI 01
256.773;000.047;76;000.570;MIDI 01
256.829;000.039;67;000.492;MIDI 01
256.829;000.039;67;000.492;MIDI 01
256.844;000.027;77;000.453;MIDI 01
256.844;000.027;77;000.453;MIDI 01
256.883;000.052;68;000.492;MIDI 01
256.883;000.052;68;000.492;MIDI 01
256.917;000.078;80;000.531;MIDI 01
256.917;000.078;80;000.531;MIDI 01
256.949;000.061;72;000.469;MIDI 01
256.949;000.061;72;000.469;MIDI 01
257.012;000.080;78;000.562;MIDI 01
257.012;000.080;78;000.562;MIDI 01
257.047;000.073;69;000.523;MIDI 01
257.047;000.073;69;000.523;MIDI 01
257.083;000.044;79;000.516;MIDI 01
257.083;000.044;79;000.516;MIDI 01
257.147;000.022;80;000.609;MIDI 01
257.147;000.022;80;000.609;MIDI 01
257.124;000.071;70;000.594;MIDI 01
257.124;000.071;70;000.594;MIDI 01
257.209;000.037;71;000.461;MIDI 01
257.209;000.037;71;000.461;MIDI 01
257.201;000.065;81;000.516;MIDI 01
257.201;000.065;81;000.516;MIDI 01
257.286;000.073;82;000.602;MIDI 01
257.286;000.073;82;000.602;MIDI 01
257.283;000.126;73;000.547;MIDI 01
257.283;000.126;73;000.547;MIDI 01
257.371;000.048;85;000.562;MIDI 01
257.371;000.048;85;000.562;MIDI 01
257.452;000.047;77;000.531;MIDI 01
257.452;000.047;77;000.531;MIDI 01
257.445;000.064;83;000.602;MIDI 01
257.445;000.064;83;000.602;MIDI 01
257.522;000.070;84;000.602;MIDI 01
257.522;000.070;84;000.602;MIDI 01
257.592;000.024;85;000.586;MIDI 01
257.592;000.024;85;000.586;MIDI 01
257.647;000.084;77;000.258;MIDI 01
257.647;000.084;77;000.258;MIDI 01
257.672;000.071;88;000.641;MIDI 01
257.672;000.071;88;000.641;MIDI 01
257.762;000.025;89;000.508;MIDI 01
257.762;000.025;89;000.508;MIDI 01
257.771;000.067;79;000.547;MIDI 01
257.771;000.067;79;000.547;MIDI 01
257.849;000.051;80;000.555;MIDI 01
257.849;000.051;80;000.555;MIDI 01
257.822;000.080;92;000.617;MIDI 01
257.822;000.080;92;000.617;MIDI 01
257.911;000.075;90;000.586;MIDI 01
257.911;000.075;90;000.586;MIDI 01
257.919;000.088;84;000.508;MIDI 01
257.919;000.088;84;000.508;MIDI 01
257.979;000.057;91;000.586;MIDI 01
257.979;000.057;91;000.586;MIDI 01
258.041;000.028;92;000.594;MIDI 01
258.041;000.028;92;000.594;MIDI 01
258.043;000.031;81;000.430;MIDI 01
258.043;000.031;81;000.430;MIDI 01
258.039;000.041;83;000.320;MIDI 01
258.039;000.041;83;000.320;MIDI 01
258.099;000.060;93;000.531;MIDI 01
258.099;000.060;93;000.531;MIDI 01
258.134;000.060;83;000.312;MIDI 01
258.134;000.060;83;000.312;MIDI 01
258.184;000.082;94;000.594;MIDI 01
258.184;000.082;94;000.594;MIDI 01
258.290;000.018;85;000.461;MIDI 01
258.290;000.018;85;000.461;MIDI 01
258.341;000.022;88;000.539;MIDI 01
258.341;000.022;88;000.539;MIDI 01
258.291;000.100;97;000.602;MIDI 01
258.291;000.100;97;000.602;MIDI 01
258.411;000.062;94;000.562;MIDI 01
258.411;000.062;94;000.562;MIDI 01
258.526;000.022;97;000.492;MIDI 01
258.526;000.022;97;000.492;MIDI 01
258.599;000.036;91;000.477;MIDI 01
258.599;000.036;91;000.477;MIDI 01
258.670;000.055;97;000.531;MIDI 01
258.670;000.055;97;000.531;MIDI 01
258.766;000.020;88;000.562;MIDI 01
258.766;000.020;88;000.562;MIDI 01
258.848;000.070;97;000.625;MIDI 01
258.848;000.070;97;000.625;MIDI 01
258.938;000.020;85;000.625;MIDI 01
258.938;000.020;85;000.625;MIDI 01
259.024;000.068;97;000.703;MIDI 01
259.024;000.068;97;000.703;MIDI 01
259.125;000.036;82;000.641;MIDI 01
259.125;000.036;82;000.641;MIDI 01
259.227;000.030;97;000.672;MIDI 01
259.227;000.030;97;000.672;MIDI 01
259.321;000.035;79;000.617;MIDI 01
259.321;000.035;79;000.617;MIDI 01
259.428;000.068;97;000.617;MIDI 01
259.428;000.068;97;000.617;MIDI 01
259.538;000.029;76;000.555;MIDI 01
259.538;000.029;76;000.555;MIDI 01
259.665;000.087;97;000.617;MIDI 01
259.665;000.087;97;000.617;MIDI 01
259.811;000.055;73;000.492;MIDI 01
259.811;000.055;73;000.492;MIDI 01
259.926;000.095;97;000.578;MIDI 01
259.926;000.095;97;000.578;MIDI 01
260.064;000.033;70;000.422;MIDI 01
260.064;000.033;70;000.422;MIDI 01
260.212;000.053;97;000.570;MIDI 01
260.212;000.053;97;000.570;MIDI 01
260.364;000.045;67;000.391;MIDI 01
260.364;000.045;67;000.391;MIDI 01
260.515;000.044;97;000.531;MIDI 01
260.515;000.044;97;000.531;MIDI 01
260.716;000.055;66;000.352;MIDI 01
260.716;000.055;66;000.352;MIDI 01
260.872;000.070;97;000.469;MIDI 01
260.872;000.070;97;000.469;MIDI 01
261.067;000.061;65;000.328;MIDI 01
261.067;000.061;65;000.328;MIDI 01
261.317;000.048;97;000.406;MIDI 01
261.317;000.048;97;000.406;MIDI 01
261.618;000.354;64;000.242;MIDI 01
261.618;000.354;64;000.242;MIDI 01
262.034;000.106;97;000.367;MIDI 01
262.034;000.106;97;000.367;MIDI 01
264.940;000.679;59;000.289;MIDI 01
264.940;000.679;59;000.289;MIDI 01
265.481;000.489;60;000.430;MIDI 01
265.481;000.489;60;000.430;MIDI 01
265.861;000.319;61;000.492;MIDI 01
265.861;000.319;61;000.492;MIDI 01
266.165;000.305;64;000.516;MIDI 01
266.165;000.305;64;000.516;MIDI 01
266.431;000.570;65;000.508;MIDI 01
266.431;000.570;65;000.508;MIDI 01
267.055;001.028;68;000.453;MIDI 01
267.055;001.028;68;000.453;MIDI 01
267.059;001.766;64;000.383;MIDI 01
267.059;001.766;64;000.383;MIDI 01
267.084;002.549;49;000.328;MIDI 01
267.084;002.549;49;000.328;MIDI 01
267.070;004.095;36;000.320;MIDI 01
267.070;004.095;36;000.320;MIDI 01
267.065;004.578;58;000.438;MIDI 01
267.065;004.578;58;000.438;MIDI 01
270.312;001.952;48;000.211;MIDI 01
270.312;001.952;48;000.211;MIDI 01
268.648;003.789;68;000.477;MIDI 01
268.648;003.789;68;000.477;MIDI 01
272.368;000.073;67;000.281;MIDI 01
272.368;000.073;67;000.281;MIDI 01
272.926;001.524;56;000.273;MIDI 01
272.926;001.524;56;000.273;MIDI 01
272.921;001.595;65;000.328;MIDI 01
272.921;001.595;65;000.328;MIDI 01
272.938;002.281;48;000.266;MIDI 01
272.938;002.281;48;000.266;MIDI 01
275.071;000.342;47;000.258;MIDI 01
275.071;000.342;47;000.258;MIDI 01
275.404;000.386;48;000.391;MIDI 01
275.404;000.386;48;000.391;MIDI 01
272.951;002.925;41;000.195;MIDI 01
272.951;002.925;41;000.195;MIDI 01
275.788;000.410;56;000.375;MIDI 01
275.788;000.410;56;000.375;MIDI 01
276.143;000.276;53;000.391;MIDI 01
276.143;000.276;53;000.391;MIDI 01
275.780;000.786;61;000.391;MIDI 01
275.780;000.786;61;000.391;MIDI 01
275.771;000.849;65;000.484;MIDI 01
275.771;000.849;65;000.484;MIDI 01
276.503;000.279;55;000.469;MIDI 01
276.503;000.279;55;000.469;MIDI 01
275.805;001.440;46;000.352;MIDI 01
275.805;001.440;46;000.352;MIDI 01
275.794;001.495;49;000.367;MIDI 01
275.794;001.495;49;000.367;MIDI 01
277.159;001.697;56;000.391;MIDI 01
277.159;001.697;56;000.391;MIDI 01
277.180;001.837;60;000.320;MIDI 01
277.180;001.837;60;000.320;MIDI 01
277.163;003.198;65;000.375;MIDI 01
277.163;003.198;65;000.375;MIDI 01
279.805;000.585;59;000.328;MIDI 01
279.805;000.585;59;000.328;MIDI 01
280.293;000.485;60;000.430;MIDI 01
280.293;000.485;60;000.430;MIDI 01
277.200;003.960;41;000.227;MIDI 01
277.200;003.960;41;000.227;MIDI 01
281.090;000.559;53;000.172;MIDI 01
281.090;000.559;53;000.172;MIDI 01
281.879;000.530;53;000.297;MIDI 01
281.879;000.530;53;000.297;MIDI 01
281.066;002.058;65;000.352;MIDI 01
281.066;002.058;65;000.352;MIDI 01
281.031;002.373;61;000.445;MIDI 01
281.031;002.373;61;000.445;MIDI 01
282.939;000.468;49;000.211;MIDI 01
282.939;000.468;49;000.211;MIDI 01
281.099;002.409;46;000.234;MIDI 01
281.099;002.409;46;000.234;MIDI 01
282.895;002.019;55;000.320;MIDI 01
282.895;002.019;55;000.320;MIDI 01
284.800;001.204;57;000.312;MIDI 01
284.800;001.204;57;000.312;MIDI 01
284.797;001.209;65;000.273;MIDI 01
284.797;001.209;65;000.273;MIDI 01
284.783;001.246;48;000.242;MIDI 01
284.783;001.246;48;000.242;MIDI 01
284.808;001.238;41;000.133;MIDI 01
284.808;001.238;41;000.133;MIDI 01
287.093;000.630;41;000.102;MIDI 01
287.115;000.650;48;000.133;MIDI 01
287.073;000.710;65;000.227;MIDI 01
287.083;000.724;57;000.312;MIDI 01
288.817;000.532;41;000.109;MIDI 01
288.810;000.555;48;000.164;MIDI 01
288.799;000.610;57;000.227;MIDI 01
288.805;000.694;65;000.164;MIDI 01
290.998;005.621;57;000.195;MIDI 01
291.006;005.700;48;000.180;MIDI 01
290.985;005.875;65;000.227;MIDI 01
290.990;005.945;41;000.172;MIDI 01
