Start;Duration;Pitch;Velocity;Instrument
001.071;000.116;69;000.500;MIDI 01
001.062;000.133;72;000.570;MIDI 01
001.345;000.070;53;000.406;MIDI 01
001.613;000.046;53;000.398;MIDI 01
001.849;000.053;53;000.383;MIDI 01
002.093;000.049;53;000.406;MIDI 01
001.583;000.730;72;000.578;MIDI 01
001.598;000.762;69;000.539;MIDI 01
002.324;000.045;70;000.477;MIDI 01
002.319;000.052;53;000.398;MIDI 01
002.326;000.057;74;000.492;MIDI 01
002.591;000.033;74;000.453;MIDI 01
002.582;000.060;53;000.438;MIDI 01
002.649;000.048;72;000.484;MIDI 01
002.715;000.055;74;000.578;MIDI 01
002.790;000.067;53;000.438;MIDI 01
003.103;000.051;53;000.367;MIDI 01
002.625;000.706;69;000.398;MIDI 01
003.369;000.047;53;000.305;MIDI 01
003.345;000.235;70;000.422;MIDI 01
003.359;000.237;67;000.383;MIDI 01
003.586;000.060;53;000.367;MIDI 01
003.599;000.185;65;000.320;MIDI 01
003.590;000.272;69;000.461;MIDI 01
003.828;000.056;53;000.398;MIDI 01
004.084;000.076;53;000.391;MIDI 01
004.078;000.084;60;000.461;MIDI 01
004.066;000.105;69;000.492;MIDI 01
004.347;000.049;53;000.375;MIDI 01
004.614;000.065;53;000.320;MIDI 01
004.847;000.057;53;000.414;MIDI 01
005.082;000.060;53;000.453;MIDI 01
004.607;000.562;60;000.414;MIDI 01
004.598;000.706;69;000.555;MIDI 01
005.310;000.037;70;000.523;MIDI 01
005.306;000.045;62;000.469;MIDI 01
005.304;000.052;53;000.461;MIDI 01
005.554;000.060;60;000.414;MIDI 01
005.544;000.076;70;000.469;MIDI 01
005.568;000.057;53;000.453;MIDI 01
005.642;000.071;69;000.445;MIDI 01
005.690;000.072;70;000.523;MIDI 01
005.764;000.072;53;000.484;MIDI 01
005.746;000.385;69;000.469;MIDI 01
006.099;000.052;53;000.414;MIDI 01
005.621;000.671;60;000.086;MIDI 01
006.384;000.067;53;000.336;MIDI 01
006.393;000.068;58;000.305;MIDI 01
006.364;000.326;67;000.422;MIDI 01
006.622;000.071;53;000.398;MIDI 01
006.629;000.131;57;000.289;MIDI 01
006.618;000.195;65;000.438;MIDI 01
006.883;000.031;53;000.336;MIDI 01
001.075;005.860;41;000.359;MIDI 01
007.258;000.154;64;000.289;MIDI 01
007.255;000.194;67;000.234;MIDI 01
007.503;000.054;48;000.344;MIDI 01
007.730;000.078;48;000.359;MIDI 01
007.755;000.168;64;000.422;MIDI 01
007.746;000.179;67;000.438;MIDI 01
007.964;000.085;48;000.438;MIDI 01
008.197;000.079;48;000.438;MIDI 01
008.204;000.198;64;000.453;MIDI 01
008.431;000.072;48;000.430;MIDI 01
008.197;000.309;68;000.453;MIDI 01
008.713;000.070;48;000.328;MIDI 01
008.960;000.061;48;000.352;MIDI 01
009.198;000.064;48;000.359;MIDI 01
008.719;000.714;65;000.367;MIDI 01
008.708;000.780;69;000.414;MIDI 01
009.430;000.075;48;000.344;MIDI 01
009.435;000.254;64;000.289;MIDI 01
009.448;000.258;68;000.328;MIDI 01
009.675;000.066;48;000.375;MIDI 01
009.706;000.225;65;000.336;MIDI 01
009.683;000.276;69;000.336;MIDI 01
007.245;002.744;36;000.219;MIDI 01
009.933;000.075;48;000.281;MIDI 01
010.224;000.212;65;000.344;MIDI 01
010.200;000.260;69;000.320;MIDI 01
010.438;000.068;48;000.352;MIDI 01
010.680;000.098;48;000.383;MIDI 01
010.706;000.233;65;000.453;MIDI 01
010.682;000.268;69;000.438;MIDI 01
010.931;000.075;48;000.477;MIDI 01
011.165;000.071;48;000.469;MIDI 01
011.173;000.256;66;000.523;MIDI 01
011.167;000.275;69;000.500;MIDI 01
011.385;000.074;48;000.516;MIDI 01
011.648;000.071;48;000.484;MIDI 01
010.176;001.709;36;000.266;MIDI 01
011.916;000.057;48;000.523;MIDI 01
012.155;000.066;48;000.547;MIDI 01
011.662;000.722;70;000.539;MIDI 01
011.665;000.770;67;000.562;MIDI 01
012.390;000.062;48;000.562;MIDI 01
012.395;000.146;66;000.492;MIDI 01
012.386;000.299;69;000.570;MIDI 01
012.637;000.059;48;000.570;MIDI 01
012.635;000.266;67;000.578;MIDI 01
012.892;000.056;48;000.594;MIDI 01
012.633;000.316;70;000.609;MIDI 01
013.181;000.084;53;000.523;MIDI 01
013.170;000.308;69;000.586;MIDI 01
013.168;000.368;65;000.586;MIDI 01
013.537;000.047;72;000.555;MIDI 01
013.671;000.020;65;000.531;MIDI 01
013.658;000.035;60;000.555;MIDI 01
013.648;000.047;53;000.539;MIDI 01
013.646;000.051;45;000.539;MIDI 01
013.932;000.037;65;000.531;MIDI 01
013.936;000.038;45;000.344;MIDI 01
013.944;000.032;60;000.453;MIDI 01
013.925;000.059;53;000.516;MIDI 01
014.153;000.039;64;000.570;MIDI 01
014.170;000.037;48;000.484;MIDI 01
014.162;000.051;55;000.531;MIDI 01
014.149;000.067;67;000.594;MIDI 01
014.409;000.019;64;000.586;MIDI 01
014.415;000.043;55;000.547;MIDI 01
014.403;000.059;67;000.609;MIDI 01
014.411;000.054;48;000.523;MIDI 01
014.694;000.077;57;000.453;MIDI 01
014.689;000.103;53;000.484;MIDI 01
014.673;000.325;69;000.633;MIDI 01
014.683;000.345;65;000.586;MIDI 01
015.021;000.033;72;000.562;MIDI 01
015.132;000.058;53;000.453;MIDI 01
015.130;000.061;45;000.461;MIDI 01
015.159;000.034;60;000.500;MIDI 01
015.169;000.030;65;000.484;MIDI 01
015.394;000.049;65;000.531;MIDI 01
015.399;000.047;60;000.445;MIDI 01
015.401;000.049;45;000.430;MIDI 01
015.397;000.061;53;000.453;MIDI 01
015.631;000.035;64;000.570;MIDI 01
015.630;000.062;48;000.484;MIDI 01
015.622;000.076;67;000.625;MIDI 01
015.628;000.075;55;000.555;MIDI 01
015.872;000.036;64;000.617;MIDI 01
015.874;000.046;48;000.492;MIDI 01
015.865;000.062;55;000.555;MIDI 01
015.867;000.084;67;000.609;MIDI 01
016.176;000.394;69;000.555;MIDI 01
016.185;000.386;53;000.367;MIDI 01
016.195;000.385;57;000.305;MIDI 01
016.567;000.036;77;000.531;MIDI 01
016.691;000.393;67;000.555;MIDI 01
016.674;000.497;46;000.391;MIDI 01
017.090;000.113;74;000.523;MIDI 01
017.225;000.389;72;000.500;MIDI 01
017.198;000.417;48;000.352;MIDI 01
017.614;000.114;64;000.398;MIDI 01
017.786;000.227;41;000.227;MIDI 01
017.770;000.599;65;000.297;MIDI 01
018.383;000.387;53;000.242;MIDI 01
018.649;000.127;65;000.383;MIDI 01
018.887;000.067;64;000.383;MIDI 01
018.890;000.153;67;000.430;MIDI 01
019.131;000.061;63;000.492;MIDI 01
019.118;000.099;69;000.508;MIDI 01
019.379;000.143;72;000.461;MIDI 01
019.439;000.302;70;000.469;MIDI 01
019.749;000.118;69;000.461;MIDI 01
019.956;000.083;70;000.492;MIDI 01
020.188;000.075;74;000.508;MIDI 01
019.444;001.034;62;000.328;MIDI 01
020.418;000.080;72;000.414;MIDI 01
020.683;000.073;70;000.391;MIDI 01
020.428;000.539;64;000.344;MIDI 01
021.009;000.394;68;000.352;MIDI 01
021.007;000.419;65;000.266;MIDI 01
019.429;002.011;53;000.312;MIDI 01
021.415;000.197;69;000.281;MIDI 01
021.648;000.104;53;000.266;MIDI 01
021.910;000.216;53;000.398;MIDI 01
021.913;000.359;69;000.461;MIDI 01
022.139;000.169;55;000.445;MIDI 01
022.136;000.224;70;000.516;MIDI 01
022.343;000.070;72;000.578;MIDI 01
022.350;000.209;57;000.492;MIDI 01
022.560;000.095;76;000.484;MIDI 01
022.620;000.291;58;000.422;MIDI 01
022.628;000.307;74;000.555;MIDI 01
022.922;000.215;57;000.391;MIDI 01
022.913;000.415;73;000.547;MIDI 01
023.128;000.240;58;000.414;MIDI 01
023.129;000.420;74;000.578;MIDI 01
023.389;000.301;62;000.383;MIDI 01
023.363;000.471;77;000.555;MIDI 01
023.644;000.291;60;000.391;MIDI 01
023.635;000.302;76;000.547;MIDI 01
023.909;000.206;74;000.516;MIDI 01
023.932;000.404;58;000.352;MIDI 01
024.422;000.514;62;000.266;MIDI 01
022.632;002.312;53;000.320;MIDI 01
024.932;000.054;58;000.359;MIDI 01
024.380;000.614;77;000.484;MIDI 01
024.981;000.088;74;000.297;MIDI 01
025.119;000.710;72;000.344;MIDI 01
025.169;000.665;57;000.180;MIDI 01
025.167;000.674;53;000.234;MIDI 01
026.568;000.072;36;000.500;MIDI 01
026.570;000.089;48;000.516;MIDI 01
026.578;000.241;67;000.508;MIDI 01
026.581;000.375;64;000.484;MIDI 01
026.564;000.427;72;000.578;MIDI 01
026.976;000.128;76;000.562;MIDI 01
027.096;000.029;67;000.609;MIDI 01
027.378;000.025;67;000.633;MIDI 01
027.106;000.359;40;000.531;MIDI 01
027.110;000.390;52;000.547;MIDI 01
027.658;000.243;43;000.453;MIDI 01
027.903;000.050;65;000.469;MIDI 01
027.895;000.060;71;000.562;MIDI 01
027.652;000.307;55;000.453;MIDI 01
028.202;000.122;60;000.414;MIDI 01
028.183;000.219;48;000.469;MIDI 01
028.185;000.347;64;000.445;MIDI 01
028.185;000.391;72;000.555;MIDI 01
028.569;000.124;76;000.539;MIDI 01
028.692;000.040;67;000.539;MIDI 01
028.973;000.047;67;000.625;MIDI 01
028.693;000.347;40;000.477;MIDI 01
028.700;000.383;52;000.469;MIDI 01
029.224;000.246;43;000.523;MIDI 01
029.208;000.288;55;000.570;MIDI 01
029.472;000.057;71;000.555;MIDI 01
029.474;000.110;65;000.523;MIDI 01
029.755;000.080;60;000.586;MIDI 01
029.760;000.110;64;000.555;MIDI 01
029.753;000.136;48;000.531;MIDI 01
029.746;000.301;72;000.648;MIDI 01
030.045;000.133;76;000.664;MIDI 01
030.141;000.144;79;000.672;MIDI 01
030.276;000.099;67;000.672;MIDI 01
030.270;000.424;40;000.500;MIDI 01
030.274;000.448;52;000.523;MIDI 01
030.590;000.540;67;000.641;MIDI 01
030.861;000.382;55;000.586;MIDI 01
031.211;000.108;65;000.586;MIDI 01
030.859;000.471;43;000.570;MIDI 01
031.205;000.141;71;000.625;MIDI 01
031.771;001.907;36;000.445;MIDI 01
031.762;001.974;64;000.555;MIDI 01
031.773;001.969;48;000.469;MIDI 01
031.744;002.045;72;000.648;MIDI 01
034.234;000.081;57;000.305;MIDI 01
034.250;000.102;73;000.359;MIDI 01
034.567;000.082;58;000.367;MIDI 01
034.577;000.084;74;000.445;MIDI 01
034.837;000.074;72;000.430;MIDI 01
034.835;000.103;57;000.391;MIDI 01
035.074;000.101;55;000.422;MIDI 01
035.076;000.101;70;000.492;MIDI 01
035.321;000.095;53;000.359;MIDI 01
035.315;000.111;69;000.469;MIDI 01
035.561;000.071;52;000.398;MIDI 01
035.564;000.095;67;000.469;MIDI 01
035.816;000.077;55;000.391;MIDI 01
035.814;000.095;70;000.492;MIDI 01
036.081;000.068;53;000.359;MIDI 01
036.076;000.105;69;000.461;MIDI 01
036.361;000.082;52;000.336;MIDI 01
036.351;000.122;67;000.445;MIDI 01
036.688;000.099;58;000.383;MIDI 01
036.682;000.136;64;000.398;MIDI 01
037.067;000.107;57;000.297;MIDI 01
037.059;000.122;65;000.391;MIDI 01
036.676;000.955;53;000.320;MIDI 01
037.550;001.002;65;000.328;MIDI 01
037.562;000.993;41;000.188;MIDI 01
037.560;001.015;57;000.266;MIDI 01
040.357;000.147;72;000.562;MIDI 01
040.359;000.228;53;000.477;MIDI 01
040.516;000.078;69;000.492;MIDI 01
040.622;000.139;65;000.469;MIDI 01
040.763;000.097;69;000.484;MIDI 01
040.882;000.141;72;000.477;MIDI 01
041.018;000.090;69;000.500;MIDI 01
040.884;000.275;41;000.352;MIDI 01
041.140;000.133;65;000.492;MIDI 01
041.268;000.111;69;000.555;MIDI 01
041.391;000.080;72;000.547;MIDI 01
041.524;000.068;69;000.555;MIDI 01
041.644;000.029;53;000.500;MIDI 01
041.642;000.091;74;000.594;MIDI 01
041.769;000.116;70;000.586;MIDI 01
041.909;000.152;72;000.562;MIDI 01
042.050;000.086;69;000.570;MIDI 01
041.924;000.350;53;000.539;MIDI 01
042.163;000.120;65;000.523;MIDI 01
042.304;000.074;69;000.445;MIDI 01
042.408;000.192;72;000.500;MIDI 01
042.541;000.113;69;000.500;MIDI 01
042.431;000.339;41;000.312;MIDI 01
042.660;000.123;70;000.523;MIDI 01
042.799;000.060;67;000.523;MIDI 01
042.921;000.104;69;000.500;MIDI 01
043.040;000.082;65;000.500;MIDI 01
043.193;000.080;60;000.312;MIDI 01
043.306;000.085;65;000.422;MIDI 01
043.430;000.114;69;000.453;MIDI 01
043.555;000.099;65;000.453;MIDI 01
043.436;000.284;53;000.375;MIDI 01
043.684;000.178;60;000.430;MIDI 01
043.822;000.094;65;000.453;MIDI 01
043.941;000.115;69;000.469;MIDI 01
044.079;000.092;65;000.492;MIDI 01
043.962;000.322;41;000.328;MIDI 01
044.203;000.204;60;000.461;MIDI 01
044.336;000.112;65;000.492;MIDI 01
044.447;000.104;69;000.531;MIDI 01
044.562;000.093;60;000.531;MIDI 01
044.699;000.054;53;000.453;MIDI 01
044.697;000.113;70;000.539;MIDI 01
044.822;000.123;62;000.500;MIDI 01
044.941;000.115;69;000.484;MIDI 01
045.054;000.097;65;000.492;MIDI 01
044.972;000.342;53;000.336;MIDI 01
045.180;000.186;60;000.477;MIDI 01
045.309;000.127;65;000.516;MIDI 01
045.432;000.078;69;000.531;MIDI 01
045.553;000.130;60;000.500;MIDI 01
045.681;000.087;67;000.555;MIDI 01
045.790;000.120;58;000.562;MIDI 01
045.445;000.479;41;000.367;MIDI 01
045.918;000.169;65;000.547;MIDI 01
046.280;000.057;57;000.438;MIDI 01
046.144;000.248;66;000.430;MIDI 01
046.420;000.103;67;000.422;MIDI 01
046.557;000.074;64;000.438;MIDI 01
046.669;000.103;60;000.391;MIDI 01
046.485;000.291;48;000.281;MIDI 01
046.796;000.099;64;000.398;MIDI 01
046.933;000.119;67;000.359;MIDI 01
047.071;000.070;64;000.398;MIDI 01
046.947;000.337;36;000.219;MIDI 01
047.191;000.094;60;000.406;MIDI 01
047.314;000.086;64;000.406;MIDI 01
047.431;000.110;67;000.438;MIDI 01
047.547;000.059;64;000.461;MIDI 01
047.689;000.040;48;000.422;MIDI 01
047.668;000.140;68;000.500;MIDI 01
047.790;000.129;64;000.422;MIDI 01
047.930;000.107;69;000.414;MIDI 01
048.048;000.100;65;000.406;MIDI 01
048.172;000.107;60;000.414;MIDI 01
047.986;000.312;48;000.211;MIDI 01
048.322;000.059;65;000.391;MIDI 01
048.433;000.134;69;000.438;MIDI 01
048.446;000.151;36;000.320;MIDI 01
048.570;000.086;65;000.352;MIDI 01
048.684;000.127;68;000.477;MIDI 01
048.810;000.133;64;000.500;MIDI 01
048.927;000.145;69;000.500;MIDI 01
049.019;000.135;65;000.508;MIDI 01
049.147;000.156;68;000.531;MIDI 01
049.265;000.116;64;000.492;MIDI 01
049.409;000.117;69;000.453;MIDI 01
049.528;000.117;65;000.445;MIDI 01
049.442;000.316;48;000.305;MIDI 01
049.666;000.106;60;000.398;MIDI 01
049.816;000.068;65;000.406;MIDI 01
049.931;000.103;69;000.430;MIDI 01
050.053;000.064;65;000.445;MIDI 01
049.933;000.297;36;000.281;MIDI 01
050.168;000.089;60;000.438;MIDI 01
050.280;000.081;65;000.492;MIDI 01
050.395;000.081;69;000.523;MIDI 01
050.518;000.078;65;000.508;MIDI 01
050.652;000.031;48;000.500;MIDI 01
050.630;000.110;69;000.531;MIDI 01
050.753;000.101;66;000.555;MIDI 01
050.884;000.132;70;000.562;MIDI 01
050.996;000.119;67;000.555;MIDI 01
051.130;000.110;60;000.523;MIDI 01
050.900;000.343;48;000.391;MIDI 01
051.263;000.107;67;000.508;MIDI 01
051.379;000.129;70;000.539;MIDI 01
051.365;000.220;36;000.367;MIDI 01
051.485;000.145;67;000.555;MIDI 01
051.622;000.136;69;000.555;MIDI 01
051.758;000.120;66;000.586;MIDI 01
051.877;000.100;70;000.625;MIDI 01
051.983;000.146;67;000.602;MIDI 01
052.127;000.144;70;000.609;MIDI 01
052.259;000.103;68;000.594;MIDI 01
052.375;000.057;69;000.664;MIDI 01
052.388;000.165;41;000.539;MIDI 01
052.385;000.229;53;000.547;MIDI 01
052.538;000.230;84;000.703;MIDI 01
052.672;000.159;81;000.641;MIDI 01
052.771;000.104;77;000.633;MIDI 01
052.896;000.053;72;000.625;MIDI 01
052.902;000.128;45;000.547;MIDI 01
052.911;000.179;57;000.562;MIDI 01
053.019;000.146;77;000.555;MIDI 01
053.132;000.148;72;000.602;MIDI 01
053.272;000.081;69;000.586;MIDI 01
053.373;000.071;60;000.500;MIDI 01
053.386;000.113;67;000.586;MIDI 01
053.384;000.123;48;000.477;MIDI 01
053.494;000.150;72;000.594;MIDI 01
053.643;000.132;70;000.586;MIDI 01
053.737;000.113;68;000.570;MIDI 01
053.860;000.036;69;000.602;MIDI 01
053.862;000.209;41;000.500;MIDI 01
053.867;000.247;53;000.492;MIDI 01
053.993;000.251;84;000.656;MIDI 01
054.125;000.161;81;000.633;MIDI 01
054.220;000.111;77;000.617;MIDI 01
054.355;000.041;72;000.539;MIDI 01
054.378;000.045;74;000.312;MIDI 01
054.357;000.125;45;000.555;MIDI 01
054.358;000.160;57;000.539;MIDI 01
054.469;000.178;77;000.562;MIDI 01
054.594;000.132;72;000.562;MIDI 01
054.718;000.077;69;000.508;MIDI 01
054.845;000.052;60;000.508;MIDI 01
054.850;000.100;48;000.484;MIDI 01
054.832;000.130;67;000.570;MIDI 01
054.962;000.143;72;000.547;MIDI 01
055.084;000.115;70;000.531;MIDI 01
055.205;000.079;68;000.477;MIDI 01
055.339;000.047;69;000.414;MIDI 01
055.360;000.154;41;000.352;MIDI 01
055.457;000.128;77;000.438;MIDI 01
055.358;000.298;53;000.320;MIDI 01
055.592;000.107;72;000.430;MIDI 01
055.714;000.057;69;000.438;MIDI 01
055.816;000.086;67;000.469;MIDI 01
055.948;000.131;74;000.453;MIDI 01
055.873;000.215;46;000.305;MIDI 01
055.831;000.301;55;000.359;MIDI 01
056.066;000.134;70;000.469;MIDI 01
056.164;000.057;67;000.500;MIDI 01
056.290;000.102;64;000.484;MIDI 01
056.333;000.132;58;000.297;MIDI 01
056.331;000.152;48;000.312;MIDI 01
056.401;000.139;70;000.445;MIDI 01
056.506;000.129;67;000.484;MIDI 01
056.671;000.126;64;000.312;MIDI 01
056.830;000.174;57;000.070;MIDI 01
056.816;000.205;53;000.203;MIDI 01
056.818;000.364;65;000.320;MIDI 01
057.358;000.097;41;000.289;MIDI 01
057.467;000.075;65;000.258;MIDI 01
057.598;000.111;64;000.406;MIDI 01
057.708;000.115;65;000.422;MIDI 01
057.861;000.056;66;000.398;MIDI 01
057.971;000.085;67;000.461;MIDI 01
057.872;000.280;53;000.375;MIDI 01
058.105;000.074;68;000.398;MIDI 01
057.868;000.364;63;000.375;MIDI 01
058.231;000.158;69;000.492;MIDI 01
058.392;000.090;70;000.430;MIDI 01
058.526;000.103;72;000.445;MIDI 01
058.646;000.087;70;000.516;MIDI 01
058.753;000.143;69;000.484;MIDI 01
058.876;000.151;70;000.555;MIDI 01
058.990;000.126;72;000.562;MIDI 01
059.123;000.071;74;000.555;MIDI 01
059.239;000.100;72;000.523;MIDI 01
058.389;001.030;62;000.328;MIDI 01
059.375;000.149;76;000.500;MIDI 01
059.500;000.057;74;000.516;MIDI 01
059.629;000.123;72;000.500;MIDI 01
059.765;000.073;70;000.453;MIDI 01
059.399;000.471;64;000.367;MIDI 01
059.899;000.166;72;000.453;MIDI 01
059.897;000.183;65;000.312;MIDI 01
060.017;000.095;70;000.477;MIDI 01
060.150;000.083;69;000.414;MIDI 01
058.399;001.848;53;000.242;MIDI 01
060.279;000.110;70;000.438;MIDI 01
060.418;000.055;69;000.445;MIDI 01
060.558;000.074;53;000.406;MIDI 01
060.568;000.100;69;000.492;MIDI 01
060.708;000.059;68;000.430;MIDI 01
060.705;000.106;52;000.398;MIDI 01
060.818;000.069;53;000.430;MIDI 01
060.826;000.079;69;000.516;MIDI 01
060.948;000.066;70;000.508;MIDI 01
060.953;000.068;54;000.477;MIDI 01
061.070;000.076;55;000.508;MIDI 01
061.070;000.106;71;000.484;MIDI 01
061.194;000.075;56;000.508;MIDI 01
061.191;000.102;72;000.500;MIDI 01
061.319;000.049;57;000.383;MIDI 01
061.307;000.082;73;000.492;MIDI 01
061.439;000.060;58;000.430;MIDI 01
061.438;000.130;74;000.531;MIDI 01
061.562;000.065;60;000.461;MIDI 01
061.570;000.135;76;000.516;MIDI 01
061.697;000.086;58;000.477;MIDI 01
061.692;000.104;74;000.539;MIDI 01
061.812;000.056;57;000.469;MIDI 01
061.791;000.090;72;000.523;MIDI 01
061.934;000.055;58;000.477;MIDI 01
061.921;000.090;74;000.570;MIDI 01
062.036;000.104;76;000.539;MIDI 01
062.042;000.110;60;000.516;MIDI 01
062.169;000.114;62;000.516;MIDI 01
062.148;000.136;77;000.547;MIDI 01
062.305;000.061;60;000.508;MIDI 01
062.281;000.132;76;000.617;MIDI 01
062.446;000.122;64;000.461;MIDI 01
062.443;000.173;79;000.500;MIDI 01
062.574;000.129;62;000.516;MIDI 01
062.570;000.164;77;000.531;MIDI 01
062.703;000.093;60;000.531;MIDI 01
062.705;000.094;76;000.586;MIDI 01
062.819;000.049;58;000.477;MIDI 01
062.814;000.078;74;000.570;MIDI 01
062.978;000.108;62;000.406;MIDI 01
062.985;000.118;77;000.523;MIDI 01
063.150;000.057;58;000.430;MIDI 01
063.131;000.098;74;000.523;MIDI 01
063.282;000.082;62;000.367;MIDI 01
063.278;000.139;77;000.500;MIDI 01
063.443;000.093;58;000.367;MIDI 01
063.430;000.155;74;000.414;MIDI 01
062.983;001.318;53;000.391;MIDI 01
063.635;000.667;72;000.406;MIDI 01
063.664;000.647;57;000.250;MIDI 01
064.889;000.074;36;000.516;MIDI 01
064.894;000.116;67;000.492;MIDI 01
065.008;000.118;48;000.523;MIDI 01
064.897;000.311;64;000.492;MIDI 01
065.153;000.100;47;000.461;MIDI 01
064.892;000.382;72;000.594;MIDI 01
065.295;000.065;48;000.484;MIDI 01
065.267;000.123;76;000.547;MIDI 01
065.384;000.042;67;000.578;MIDI 01
065.398;000.073;40;000.539;MIDI 01
065.530;000.112;52;000.516;MIDI 01
065.670;000.042;67;000.477;MIDI 01
065.675;000.066;51;000.469;MIDI 01
065.800;000.041;52;000.484;MIDI 01
065.920;000.070;43;000.539;MIDI 01
066.037;000.101;55;000.516;MIDI 01
066.158;000.057;65;000.461;MIDI 01
066.151;000.092;71;000.539;MIDI 01
066.180;000.077;54;000.516;MIDI 01
066.294;000.041;55;000.547;MIDI 01
066.479;000.002;47;000.055;MIDI 01
066.434;000.050;48;000.453;MIDI 01
066.431;000.087;67;000.555;MIDI 01
066.438;000.121;64;000.523;MIDI 01
066.542;000.084;60;000.586;MIDI 01
066.680;000.073;59;000.555;MIDI 01
066.422;000.399;72;000.633;MIDI 01
066.794;000.058;60;000.492;MIDI 01
066.831;000.132;76;000.523;MIDI 01
066.924;000.048;67;000.633;MIDI 01
066.914;000.067;52;000.602;MIDI 01
067.044;000.082;64;000.555;MIDI 01
067.196;000.031;67;000.594;MIDI 01
067.181;000.074;63;000.555;MIDI 01
067.281;000.042;64;000.602;MIDI 01
067.420;000.057;43;000.578;MIDI 01
067.539;000.096;55;000.555;MIDI 01
067.657;000.041;71;000.531;MIDI 01
067.670;000.072;54;000.523;MIDI 01
067.659;000.086;65;000.547;MIDI 01
067.776;000.046;55;000.586;MIDI 01
067.914;000.054;48;000.609;MIDI 01
067.917;000.055;64;000.547;MIDI 01
068.039;000.074;60;000.586;MIDI 01
068.146;000.093;59;000.562;MIDI 01
067.912;000.354;72;000.656;MIDI 01
068.269;000.043;60;000.625;MIDI 01
068.252;000.105;76;000.578;MIDI 01
068.349;000.059;79;000.648;MIDI 01
068.407;000.053;67;000.672;MIDI 01
068.408;000.129;40;000.656;MIDI 01
068.550;000.128;52;000.562;MIDI 01
068.690;000.071;67;000.703;MIDI 01
068.694;000.095;51;000.578;MIDI 01
068.831;000.081;52;000.570;MIDI 01
068.955;000.104;43;000.633;MIDI 01
069.104;000.131;55;000.594;MIDI 01
069.265;000.117;65;000.586;MIDI 01
069.263;000.139;71;000.633;MIDI 01
069.269;000.136;54;000.531;MIDI 01
069.429;000.098;55;000.586;MIDI 01
069.718;000.372;72;000.656;MIDI 01
070.100;000.213;74;000.586;MIDI 01
070.315;000.129;72;000.570;MIDI 01
070.471;000.115;74;000.570;MIDI 01
070.602;000.069;72;000.516;MIDI 01
070.719;000.054;74;000.547;MIDI 01
070.809;000.037;72;000.469;MIDI 01
070.882;000.059;74;000.539;MIDI 01
070.955;000.056;72;000.516;MIDI 01
071.041;000.051;74;000.555;MIDI 01
071.111;000.058;72;000.555;MIDI 01
071.204;000.049;74;000.547;MIDI 01
071.289;000.051;72;000.547;MIDI 01
071.375;000.066;74;000.500;MIDI 01
071.475;000.086;72;000.539;MIDI 01
071.604;000.097;74;000.492;MIDI 01
071.725;000.102;72;000.477;MIDI 01
071.869;000.126;74;000.484;MIDI 01
072.025;000.128;72;000.383;MIDI 01
072.180;000.298;74;000.391;MIDI 01
069.727;004.160;36;000.422;MIDI 01
069.772;004.160;48;000.312;MIDI 01
072.516;001.434;72;000.391;MIDI 01
069.725;004.241;64;000.523;MIDI 01
074.267;000.054;57;000.305;MIDI 01
074.401;000.046;73;000.398;MIDI 01
074.520;000.038;58;000.375;MIDI 01
074.647;000.049;74;000.422;MIDI 01
074.775;000.055;57;000.391;MIDI 01
074.899;000.057;72;000.422;MIDI 01
075.018;000.056;55;000.430;MIDI 01
075.125;000.067;70;000.508;MIDI 01
075.254;000.073;53;000.445;MIDI 01
075.353;000.059;69;000.531;MIDI 01
075.483;000.070;52;000.477;MIDI 01
075.581;000.054;67;000.539;MIDI 01
075.719;000.065;55;000.484;MIDI 01
075.830;000.074;70;000.555;MIDI 01
075.967;000.048;53;000.414;MIDI 01
076.072;000.050;69;000.555;MIDI 01
076.199;000.086;52;000.484;MIDI 01
076.312;000.061;67;000.523;MIDI 01
076.572;000.104;58;000.461;MIDI 01
076.572;000.149;64;000.453;MIDI 01
076.970;000.097;57;000.320;MIDI 01
076.946;000.142;65;000.422;MIDI 01
076.558;000.954;53;000.344;MIDI 01
077.480;001.096;57;000.188;MIDI 01
077.483;001.099;65;000.242;MIDI 01
077.468;001.132;41;000.211;MIDI 01
079.835;000.044;41;000.422;MIDI 01
079.853;000.041;53;000.445;MIDI 01
079.984;000.037;84;000.570;MIDI 01
079.977;000.055;81;000.633;MIDI 01
080.138;000.037;65;000.492;MIDI 01
080.277;000.036;69;000.422;MIDI 01
080.271;000.051;72;000.477;MIDI 01
080.395;000.045;41;000.516;MIDI 01
080.396;000.072;53;000.516;MIDI 01
080.516;000.033;81;000.641;MIDI 01
080.514;000.050;84;000.633;MIDI 01
080.733;000.076;65;000.375;MIDI 01
080.850;000.048;72;000.523;MIDI 01
080.875;000.031;69;000.312;MIDI 01
080.990;000.061;65;000.453;MIDI 01
081.099;000.031;81;000.594;MIDI 01
081.101;000.076;84;000.594;MIDI 01
081.239;000.028;65;000.500;MIDI 01
081.334;000.065;82;000.617;MIDI 01
081.332;000.069;86;000.609;MIDI 01
081.491;000.042;41;000.445;MIDI 01
081.479;000.057;53;000.539;MIDI 01
081.573;000.056;84;000.656;MIDI 01
081.580;000.070;81;000.648;MIDI 01
081.787;000.062;65;000.469;MIDI 01
081.891;000.033;69;000.422;MIDI 01
081.881;000.047;72;000.477;MIDI 01
082.035;000.064;65;000.445;MIDI 01
082.143;000.046;81;000.500;MIDI 01
082.132;000.062;84;000.578;MIDI 01
082.277;000.070;65;000.477;MIDI 01
082.382;000.046;79;000.523;MIDI 01
082.377;000.086;82;000.555;MIDI 01
082.525;000.079;65;000.531;MIDI 01
082.629;000.042;81;000.594;MIDI 01
082.625;000.050;77;000.578;MIDI 01
082.772;000.050;65;000.492;MIDI 01
082.891;000.054;72;000.555;MIDI 01
082.900;000.047;69;000.469;MIDI 01
083.024;000.028;41;000.492;MIDI 01
083.026;000.048;53;000.531;MIDI 01
083.134;000.050;72;000.555;MIDI 01
083.131;000.072;81;000.609;MIDI 01
083.295;000.044;65;000.500;MIDI 01
083.412;000.051;69;000.484;MIDI 01
083.405;000.064;72;000.492;MIDI 01
083.557;000.032;41;000.445;MIDI 01
083.551;000.051;53;000.578;MIDI 01
083.632;000.074;72;000.570;MIDI 01
083.628;000.096;81;000.617;MIDI 01
083.818;000.079;65;000.469;MIDI 01
083.930;000.050;69;000.492;MIDI 01
083.934;000.062;72;000.438;MIDI 01
084.068;000.071;65;000.500;MIDI 01
084.182;000.050;72;000.477;MIDI 01
084.171;000.084;81;000.578;MIDI 01
084.304;000.036;65;000.570;MIDI 01
084.424;000.083;82;000.594;MIDI 01
084.434;000.083;74;000.555;MIDI 01
084.550;000.027;41;000.508;MIDI 01
084.548;000.050;53;000.555;MIDI 01
084.688;000.071;72;000.555;MIDI 01
084.676;000.097;81;000.594;MIDI 01
084.840;000.050;65;000.500;MIDI 01
084.971;000.046;69;000.477;MIDI 01
084.981;000.065;72;000.430;MIDI 01
085.100;000.060;65;000.461;MIDI 01
085.209;000.066;81;000.570;MIDI 01
085.210;000.069;72;000.500;MIDI 01
085.344;000.080;65;000.484;MIDI 01
085.447;000.069;79;000.594;MIDI 01
085.451;000.081;70;000.609;MIDI 01
085.598;000.082;65;000.531;MIDI 01
085.708;000.054;69;000.461;MIDI 01
085.703;000.071;77;000.562;MIDI 01
085.859;000.030;65;000.438;MIDI 01
085.965;000.035;69;000.359;MIDI 01
085.947;000.060;77;000.484;MIDI 01
086.136;000.048;36;000.336;MIDI 01
086.132;000.055;48;000.422;MIDI 01
086.248;000.046;76;000.438;MIDI 01
086.250;000.046;79;000.406;MIDI 01
086.421;000.028;60;000.344;MIDI 01
086.530;000.035;64;000.367;MIDI 01
086.518;000.057;67;000.477;MIDI 01
086.652;000.042;36;000.398;MIDI 01
086.646;000.051;48;000.516;MIDI 01
086.764;000.030;76;000.539;MIDI 01
086.766;000.036;79;000.547;MIDI 01
086.928;000.071;60;000.469;MIDI 01
087.056;000.041;67;000.484;MIDI 01
087.075;000.031;64;000.328;MIDI 01
087.204;000.057;60;000.461;MIDI 01
087.310;000.030;76;000.352;MIDI 01
087.293;000.049;79;000.586;MIDI 01
087.434;000.035;60;000.500;MIDI 01
087.541;000.042;76;000.398;MIDI 01
087.528;000.089;80;000.586;MIDI 01
087.695;000.040;36;000.406;MIDI 01
087.693;000.069;48;000.461;MIDI 01
087.818;000.047;77;000.469;MIDI 01
087.814;000.061;81;000.531;MIDI 01
088.032;000.073;60;000.352;MIDI 01
088.147;000.051;69;000.445;MIDI 01
088.173;000.031;65;000.305;MIDI 01
088.312;000.059;60;000.383;MIDI 01
088.422;000.052;77;000.414;MIDI 01
088.424;000.065;81;000.438;MIDI 01
088.545;000.061;60;000.438;MIDI 01
088.673;000.051;76;000.500;MIDI 01
088.675;000.066;80;000.523;MIDI 01
088.802;000.055;60;000.461;MIDI 01
088.901;000.066;77;000.516;MIDI 01
088.903;000.106;81;000.531;MIDI 01
089.032;000.040;60;000.445;MIDI 01
089.161;000.059;76;000.539;MIDI 01
089.164;000.090;80;000.570;MIDI 01
089.266;000.059;48;000.539;MIDI 01
089.284;000.044;36;000.344;MIDI 01
089.394;000.042;77;000.555;MIDI 01
089.400;000.039;81;000.539;MIDI 01
089.537;000.039;60;000.469;MIDI 01
089.634;000.043;69;000.562;MIDI 01
089.649;000.031;65;000.422;MIDI 01
089.766;000.041;36;000.508;MIDI 01
089.763;000.061;48;000.602;MIDI 01
089.880;000.032;77;000.602;MIDI 01
089.882;000.046;81;000.602;MIDI 01
090.049;000.081;60;000.500;MIDI 01
090.175;000.034;65;000.438;MIDI 01
090.168;000.047;69;000.539;MIDI 01
090.296;000.085;60;000.539;MIDI 01
090.396;000.062;77;000.609;MIDI 01
090.398;000.077;81;000.594;MIDI 01
090.537;000.059;60;000.594;MIDI 01
090.632;000.088;81;000.625;MIDI 01
090.643;000.083;78;000.617;MIDI 01
090.782;000.039;36;000.609;MIDI 01
090.775;000.058;48;000.695;MIDI 01
090.901;000.068;79;000.578;MIDI 01
090.897;000.082;82;000.656;MIDI 01
091.127;000.071;60;000.516;MIDI 01
091.244;000.040;67;000.469;MIDI 01
091.236;000.076;70;000.547;MIDI 01
091.377;000.090;60;000.523;MIDI 01
091.501;000.079;82;000.516;MIDI 01
091.485;000.097;79;000.555;MIDI 01
091.620;000.090;60;000.609;MIDI 01
091.772;000.044;78;000.477;MIDI 01
091.742;000.109;81;000.570;MIDI 01
091.874;000.096;60;000.664;MIDI 01
091.984;000.070;79;000.586;MIDI 01
091.990;000.125;82;000.602;MIDI 01
092.134;000.067;60;000.648;MIDI 01
092.244;000.066;76;000.641;MIDI 01
092.246;000.124;80;000.664;MIDI 01
092.451;000.089;41;000.586;MIDI 01
092.527;000.061;77;000.594;MIDI 01
092.542;000.086;81;000.562;MIDI 01
092.708;000.051;53;000.484;MIDI 01
092.799;000.051;84;000.531;MIDI 01
092.815;000.058;72;000.469;MIDI 01
092.957;000.081;45;000.516;MIDI 01
093.109;000.037;77;000.242;MIDI 01
093.205;000.052;57;000.523;MIDI 01
093.329;000.048;66;000.469;MIDI 01
093.318;000.095;78;000.555;MIDI 01
093.455;000.067;48;000.539;MIDI 01
093.577;000.064;67;000.547;MIDI 01
093.573;000.074;79;000.602;MIDI 01
093.711;000.055;60;000.555;MIDI 01
093.814;000.067;68;000.547;MIDI 01
093.801;000.123;80;000.625;MIDI 01
093.933;000.097;41;000.609;MIDI 01
093.995;000.062;48;000.102;MIDI 01
094.056;000.055;69;000.562;MIDI 01
094.052;000.074;81;000.664;MIDI 01
094.191;000.079;53;000.594;MIDI 01
094.299;000.056;84;000.617;MIDI 01
094.310;000.053;72;000.531;MIDI 01
094.446;000.089;45;000.617;MIDI 01
094.578;000.059;65;000.531;MIDI 01
094.576;000.072;77;000.609;MIDI 01
094.684;000.082;57;000.641;MIDI 01
094.803;000.068;66;000.547;MIDI 01
094.803;000.105;78;000.602;MIDI 01
094.952;000.029;47;000.531;MIDI 01
094.945;000.076;48;000.484;MIDI 01
095.050;000.053;67;000.539;MIDI 01
095.046;000.076;79;000.617;MIDI 01
095.177;000.054;60;000.586;MIDI 01
095.297;000.050;68;000.445;MIDI 01
095.272;000.103;80;000.617;MIDI 01
095.411;000.065;53;000.617;MIDI 01
095.408;000.089;41;000.609;MIDI 01
095.524;000.040;69;000.555;MIDI 01
095.515;000.066;81;000.641;MIDI 01
095.660;000.059;45;000.562;MIDI 01
095.751;000.047;72;000.516;MIDI 01
095.747;000.067;77;000.562;MIDI 01
095.893;000.064;46;000.539;MIDI 01
096.014;000.040;65;000.492;MIDI 01
096.006;000.079;74;000.570;MIDI 01
096.127;000.069;43;000.562;MIDI 01
096.231;000.039;67;000.500;MIDI 01
096.243;000.069;70;000.562;MIDI 01
096.350;000.088;48;000.562;MIDI 01
096.464;000.070;67;000.570;MIDI 01
096.470;000.078;58;000.578;MIDI 01
096.572;000.059;36;000.539;MIDI 01
096.684;000.045;55;000.492;MIDI 01
096.681;000.062;64;000.578;MIDI 01
096.850;000.168;57;000.562;MIDI 01
096.964;000.123;41;000.484;MIDI 01
096.854;000.250;65;000.578;MIDI 01
097.080;000.108;45;000.562;MIDI 01
097.207;000.112;48;000.594;MIDI 01
097.560;000.120;65;000.445;MIDI 01
097.748;000.154;64;000.352;MIDI 01
097.923;000.124;65;000.391;MIDI 01
097.380;000.910;53;000.539;MIDI 01
098.100;000.229;67;000.461;MIDI 01
098.263;000.229;69;000.477;MIDI 01
097.903;000.649;63;000.422;MIDI 01
098.503;000.210;70;000.414;MIDI 01
098.724;000.161;72;000.445;MIDI 01
098.889;000.232;69;000.461;MIDI 01
099.065;000.224;70;000.523;MIDI 01
099.224;000.215;74;000.562;MIDI 01
099.397;000.199;72;000.539;MIDI 01
098.486;001.169;62;000.406;MIDI 01
099.605;000.225;74;000.508;MIDI 01
099.778;000.156;72;000.453;MIDI 01
099.952;000.090;70;000.453;MIDI 01
099.598;000.585;64;000.359;MIDI 01
100.140;000.090;70;000.414;MIDI 01
100.331;000.061;69;000.445;MIDI 01
100.136;000.284;65;000.312;MIDI 01
100.500;000.088;68;000.352;MIDI 01
098.481;002.143;53;000.328;MIDI 01
100.702;000.102;69;000.391;MIDI 01
100.917;000.160;53;000.305;MIDI 01
100.928;000.151;69;000.367;MIDI 01
101.111;000.122;68;000.430;MIDI 01
101.116;000.176;52;000.352;MIDI 01
101.274;000.139;69;000.453;MIDI 01
101.280;000.150;53;000.414;MIDI 01
101.450;000.090;55;000.469;MIDI 01
101.448;000.153;70;000.508;MIDI 01
101.607;000.202;57;000.453;MIDI 01
101.623;000.241;72;000.500;MIDI 01
101.819;000.183;58;000.375;MIDI 01
101.844;000.222;74;000.469;MIDI 01
102.008;000.138;60;000.438;MIDI 01
102.024;000.201;76;000.516;MIDI 01
102.185;000.202;57;000.477;MIDI 01
102.193;000.211;73;000.539;MIDI 01
102.368;000.192;58;000.461;MIDI 01
102.377;000.213;74;000.570;MIDI 01
102.584;000.171;62;000.375;MIDI 01
102.582;000.216;77;000.586;MIDI 01
102.752;000.148;61;000.469;MIDI 01
102.744;000.203;76;000.602;MIDI 01
102.941;000.202;62;000.438;MIDI 01
102.953;000.236;77;000.547;MIDI 01
103.152;000.149;60;000.445;MIDI 01
103.149;000.163;76;000.492;MIDI 01
103.340;000.060;58;000.398;MIDI 01
103.320;000.088;74;000.492;MIDI 01
103.529;000.067;58;000.438;MIDI 01
103.536;000.090;74;000.406;MIDI 01
103.753;000.077;57;000.367;MIDI 01
103.758;000.088;72;000.430;MIDI 01
103.989;000.075;56;000.359;MIDI 01
103.986;000.118;71;000.391;MIDI 01
104.340;000.836;72;000.336;MIDI 01
104.350;000.836;57;000.266;MIDI 01
105.840;000.124;67;000.508;MIDI 01
105.833;000.210;36;000.562;MIDI 01
106.008;000.158;47;000.523;MIDI 01
105.845;000.327;64;000.477;MIDI 01
105.835;000.424;72;000.562;MIDI 01
106.196;000.092;48;000.500;MIDI 01
106.258;000.121;76;000.492;MIDI 01
106.358;000.054;67;000.578;MIDI 01
106.344;000.266;40;000.586;MIDI 01
106.628;000.069;67;000.523;MIDI 01
106.562;000.161;51;000.500;MIDI 01
106.717;000.149;52;000.539;MIDI 01
106.876;000.269;43;000.586;MIDI 01
107.141;000.076;65;000.508;MIDI 01
107.052;000.200;54;000.523;MIDI 01
107.136;000.172;71;000.555;MIDI 01
107.236;000.103;55;000.586;MIDI 01
107.431;000.239;64;000.516;MIDI 01
107.416;000.270;48;000.539;MIDI 01
107.592;000.176;59;000.531;MIDI 01
107.419;000.391;72;000.617;MIDI 01
107.768;000.093;60;000.523;MIDI 01
107.922;000.068;67;000.602;MIDI 01
107.796;000.195;76;000.531;MIDI 01
107.912;000.292;52;000.578;MIDI 01
108.173;000.099;67;000.594;MIDI 01
108.117;000.157;63;000.484;MIDI 01
108.275;000.038;64;000.602;MIDI 01
108.434;000.237;43;000.602;MIDI 01
108.664;000.101;65;000.492;MIDI 01
108.618;000.161;54;000.531;MIDI 01
108.658;000.189;71;000.555;MIDI 01
108.785;000.091;55;000.609;MIDI 01
108.936;000.208;48;000.602;MIDI 01
108.940;000.249;64;000.531;MIDI 01
109.111;000.161;59;000.578;MIDI 01
108.929;000.373;72;000.633;MIDI 01
108.931;000.406;67;000.617;MIDI 01
109.293;000.049;60;000.570;MIDI 01
109.352;000.033;76;000.586;MIDI 01
109.448;000.110;79;000.680;MIDI 01
109.446;000.300;40;000.633;MIDI 01
109.744;000.097;79;000.680;MIDI 01
109.649;000.224;51;000.516;MIDI 01
109.854;000.168;52;000.625;MIDI 01
110.025;000.286;43;000.617;MIDI 01
110.353;000.136;65;000.586;MIDI 01
110.249;000.250;54;000.570;MIDI 01
110.343;000.170;71;000.664;MIDI 01
110.487;000.095;55;000.617;MIDI 01
110.803;000.389;72;000.625;MIDI 01
111.198;000.196;74;000.586;MIDI 01
111.392;000.127;72;000.547;MIDI 01
111.532;000.099;74;000.578;MIDI 01
111.656;000.062;72;000.508;MIDI 01
111.746;000.086;74;000.555;MIDI 01
111.844;000.071;72;000.562;MIDI 01
111.922;000.096;74;000.523;MIDI 01
112.024;000.079;72;000.523;MIDI 01
112.118;000.108;74;000.547;MIDI 01
112.248;000.082;72;000.492;MIDI 01
112.353;000.125;74;000.508;MIDI 01
112.498;000.117;72;000.477;MIDI 01
112.644;000.170;74;000.477;MIDI 01
112.824;000.155;72;000.414;MIDI 01
110.805;002.489;67;000.570;MIDI 01
110.809;002.524;64;000.508;MIDI 01
112.994;000.379;74;000.461;MIDI 01
113.318;000.426;72;000.414;MIDI 01
110.811;003.200;36;000.469;MIDI 01
110.815;003.237;48;000.508;MIDI 01
113.755;000.516;71;000.320;MIDI 01
114.331;000.133;72;000.344;MIDI 01
114.515;000.124;73;000.398;MIDI 01
114.702;000.149;85;000.445;MIDI 01
114.834;000.076;73;000.422;MIDI 01
114.709;000.246;57;000.289;MIDI 01
114.964;000.087;86;000.555;MIDI 01
115.098;000.039;74;000.500;MIDI 01
114.989;000.158;58;000.344;MIDI 01
115.176;000.079;57;000.305;MIDI 01
115.210;000.060;84;000.586;MIDI 01
115.317;000.040;72;000.539;MIDI 01
115.430;000.097;82;000.570;MIDI 01
115.559;000.056;70;000.500;MIDI 01
115.685;000.062;81;000.586;MIDI 01
115.824;000.057;69;000.484;MIDI 01
115.467;000.461;55;000.336;MIDI 01
115.695;000.291;53;000.430;MIDI 01
115.942;000.081;79;000.562;MIDI 01
116.073;000.065;67;000.492;MIDI 01
115.940;000.341;52;000.406;MIDI 01
116.220;000.145;82;000.547;MIDI 01
116.370;000.095;70;000.531;MIDI 01
116.252;000.320;55;000.375;MIDI 01
116.504;000.106;81;000.594;MIDI 01
116.644;000.082;69;000.547;MIDI 01
116.497;000.297;53;000.398;MIDI 01
115.456;001.362;48;000.383;MIDI 01
116.773;000.075;52;000.383;MIDI 01
116.783;000.132;79;000.570;MIDI 01
116.924;000.074;67;000.508;MIDI 01
117.153;000.073;64;000.445;MIDI 01
117.141;000.122;76;000.477;MIDI 01
117.154;000.268;58;000.352;MIDI 01
117.537;000.131;65;000.391;MIDI 01
117.531;000.153;57;000.289;MIDI 01
117.525;000.161;77;000.445;MIDI 01
117.155;000.570;53;000.312;MIDI 01
118.054;001.459;53;000.172;MIDI 01
118.042;001.476;57;000.227;MIDI 01
118.024;001.496;77;000.414;MIDI 01
118.029;001.498;65;000.344;MIDI 01
120.620;000.062;60;000.438;MIDI 01
120.645;000.096;65;000.500;MIDI 01
120.688;000.079;69;000.609;MIDI 01
120.750;000.029;72;000.680;MIDI 01
120.725;000.104;41;000.562;MIDI 01
120.896;000.138;53;000.547;MIDI 01
121.040;000.089;57;000.539;MIDI 01
121.180;000.075;53;000.547;MIDI 01
121.317;000.066;48;000.531;MIDI 01
121.469;000.039;55;000.281;MIDI 01
121.445;000.117;53;000.297;MIDI 01
121.560;000.057;45;000.500;MIDI 01
121.694;000.066;48;000.492;MIDI 01
121.819;000.089;41;000.516;MIDI 01
121.932;000.047;45;000.414;MIDI 01
122.033;000.057;48;000.484;MIDI 01
121.279;000.847;69;000.617;MIDI 01
121.277;000.864;72;000.672;MIDI 01
122.166;000.050;53;000.547;MIDI 01
122.174;000.109;74;000.562;MIDI 01
122.152;000.133;70;000.594;MIDI 01
122.294;000.057;41;000.562;MIDI 01
122.425;000.110;53;000.531;MIDI 01
122.551;000.068;57;000.508;MIDI 01
122.682;000.050;53;000.570;MIDI 01
122.819;000.036;48;000.508;MIDI 01
122.932;000.116;53;000.445;MIDI 01
122.292;000.829;69;000.570;MIDI 01
123.067;000.057;45;000.461;MIDI 01
122.285;000.886;72;000.648;MIDI 01
123.160;000.059;67;000.383;MIDI 01
123.151;000.102;70;000.500;MIDI 01
123.211;000.052;48;000.438;MIDI 01
123.320;000.084;41;000.492;MIDI 01
123.421;000.075;45;000.477;MIDI 01
123.303;000.273;65;000.461;MIDI 01
123.544;000.047;48;000.453;MIDI 01
123.291;000.414;69;000.531;MIDI 01
123.671;000.053;53;000.477;MIDI 01
123.802;000.071;41;000.562;MIDI 01
123.965;000.061;53;000.398;MIDI 01
124.061;000.078;57;000.531;MIDI 01
123.817;000.405;60;000.523;MIDI 01
123.814;000.452;69;000.602;MIDI 01
124.195;000.088;53;000.539;MIDI 01
124.343;000.059;48;000.555;MIDI 01
124.452;000.134;53;000.492;MIDI 01
124.589;000.060;45;000.516;MIDI 01
124.723;000.070;48;000.539;MIDI 01
124.845;000.082;41;000.523;MIDI 01
124.371;000.577;60;000.531;MIDI 01
124.933;000.084;45;000.516;MIDI 01
125.049;000.061;48;000.516;MIDI 01
124.362;000.826;69;000.602;MIDI 01
125.185;000.044;62;000.500;MIDI 01
125.170;000.064;53;000.562;MIDI 01
125.188;000.074;70;000.602;MIDI 01
125.307;000.066;41;000.578;MIDI 01
125.451;000.072;53;000.398;MIDI 01
125.564;000.055;57;000.523;MIDI 01
125.707;000.029;52;000.391;MIDI 01
125.705;000.036;53;000.430;MIDI 01
125.817;000.053;48;000.500;MIDI 01
125.311;000.657;69;000.594;MIDI 01
125.957;000.041;52;000.305;MIDI 01
125.947;000.058;53;000.320;MIDI 01
125.322;000.750;60;000.570;MIDI 01
126.089;000.110;45;000.445;MIDI 01
126.185;000.098;58;000.453;MIDI 01
126.364;000.058;55;000.375;MIDI 01
126.338;000.117;41;000.406;MIDI 01
126.361;000.158;57;000.281;MIDI 01
126.205;000.316;67;000.500;MIDI 01
126.439;000.116;45;000.500;MIDI 01
126.581;000.077;48;000.445;MIDI 01
126.340;000.345;65;000.523;MIDI 01
126.704;000.032;53;000.461;MIDI 01
126.754;000.086;55;000.391;MIDI 01
126.803;000.053;60;000.344;MIDI 01
126.849;000.069;36;000.500;MIDI 01
126.830;000.154;64;000.508;MIDI 01
126.999;000.083;48;000.477;MIDI 01
127.120;000.057;52;000.477;MIDI 01
126.880;000.321;67;000.484;MIDI 01
127.241;000.060;48;000.523;MIDI 01
127.380;000.048;43;000.500;MIDI 01
127.500;000.109;48;000.453;MIDI 01
127.621;000.058;40;000.500;MIDI 01
127.354;000.336;64;000.523;MIDI 01
127.367;000.370;60;000.453;MIDI 01
127.359;000.382;67;000.555;MIDI 01
127.761;000.060;43;000.477;MIDI 01
127.877;000.098;36;000.508;MIDI 01
127.989;000.056;40;000.492;MIDI 01
128.096;000.076;43;000.555;MIDI 01
127.875;000.347;64;000.508;MIDI 01
127.892;000.365;60;000.500;MIDI 01
127.879;000.386;67;000.578;MIDI 01
128.224;000.062;48;000.508;MIDI 01
128.360;000.048;36;000.523;MIDI 01
128.410;000.194;60;000.453;MIDI 01
128.501;000.110;48;000.438;MIDI 01
128.620;000.059;53;000.445;MIDI 01
128.759;000.041;48;000.531;MIDI 01
128.875;000.042;45;000.492;MIDI 01
128.981;000.132;48;000.477;MIDI 01
128.399;000.782;65;000.500;MIDI 01
129.114;000.077;41;000.438;MIDI 01
128.402;000.827;69;000.523;MIDI 01
129.241;000.036;64;000.297;MIDI 01
129.255;000.045;45;000.469;MIDI 01
129.243;000.099;68;000.445;MIDI 01
129.378;000.089;36;000.500;MIDI 01
129.494;000.054;41;000.484;MIDI 01
129.635;000.033;45;000.398;MIDI 01
129.358;000.314;65;000.422;MIDI 01
129.360;000.392;69;000.484;MIDI 01
129.738;000.056;48;000.516;MIDI 01
129.876;000.045;36;000.508;MIDI 01
129.996;000.094;48;000.469;MIDI 01
130.128;000.061;53;000.500;MIDI 01
129.874;000.381;65;000.492;MIDI 01
129.895;000.385;60;000.430;MIDI 01
129.896;000.393;69;000.562;MIDI 01
130.252;000.055;48;000.555;MIDI 01
130.365;000.067;45;000.578;MIDI 01
130.492;000.153;48;000.547;MIDI 01
130.399;000.275;65;000.594;MIDI 01
130.641;000.066;41;000.539;MIDI 01
130.408;000.336;69;000.555;MIDI 01
130.418;000.347;60;000.500;MIDI 01
130.779;000.074;45;000.523;MIDI 01
130.895;000.106;36;000.516;MIDI 01
131.022;000.076;42;000.531;MIDI 01
130.877;000.223;66;000.562;MIDI 01
130.889;000.309;69;000.570;MIDI 01
130.893;000.317;60;000.500;MIDI 01
131.143;000.076;45;000.547;MIDI 01
131.256;000.081;48;000.578;MIDI 01
131.382;000.052;36;000.578;MIDI 01
131.508;000.119;48;000.547;MIDI 01
131.649;000.054;52;000.500;MIDI 01
131.417;000.371;60;000.422;MIDI 01
131.770;000.057;48;000.570;MIDI 01
131.408;000.534;64;000.555;MIDI 01
131.890;000.055;43;000.562;MIDI 01
132.005;000.139;48;000.562;MIDI 01
131.410;000.773;70;000.602;MIDI 01
131.419;000.801;67;000.484;MIDI 01
132.147;000.083;40;000.570;MIDI 01
132.291;000.088;43;000.508;MIDI 01
132.281;000.099;69;000.531;MIDI 01
132.273;000.108;66;000.508;MIDI 01
132.386;000.121;36;000.523;MIDI 01
132.491;000.147;40;000.555;MIDI 01
132.639;000.082;43;000.516;MIDI 01
132.430;000.369;70;000.641;MIDI 01
132.753;000.049;48;000.531;MIDI 01
132.424;000.435;67;000.547;MIDI 01
132.960;000.111;29;000.305;MIDI 01
133.073;000.077;33;000.438;MIDI 01
133.191;000.074;36;000.453;MIDI 01
132.975;000.344;69;000.438;MIDI 01
132.999;000.339;65;000.305;MIDI 01
133.332;000.046;72;000.523;MIDI 01
133.333;000.054;41;000.438;MIDI 01
133.463;000.034;60;000.547;MIDI 01
133.470;000.032;65;000.492;MIDI 01
133.466;000.079;31;000.312;MIDI 01
133.486;000.116;33;000.344;MIDI 01
133.584;000.093;36;000.367;MIDI 01
133.726;000.041;60;000.445;MIDI 01
133.717;000.057;65;000.508;MIDI 01
133.706;000.099;41;000.391;MIDI 01
133.831;000.056;45;000.484;MIDI 01
133.957;000.035;64;000.516;MIDI 01
133.955;000.064;67;000.562;MIDI 01
133.989;000.092;38;000.398;MIDI 01
133.968;000.126;36;000.406;MIDI 01
134.102;000.113;40;000.492;MIDI 01
134.227;000.024;64;000.406;MIDI 01
134.221;000.073;67;000.500;MIDI 01
134.217;000.082;43;000.516;MIDI 01
134.332;000.075;48;000.570;MIDI 01
134.483;000.122;41;000.523;MIDI 01
134.607;000.104;45;000.562;MIDI 01
134.481;000.316;69;000.594;MIDI 01
134.714;000.101;48;000.578;MIDI 01
134.479;000.378;65;000.578;MIDI 01
134.848;000.042;72;000.586;MIDI 01
134.853;000.059;53;000.570;MIDI 01
134.964;000.050;60;000.562;MIDI 01
134.972;000.046;65;000.570;MIDI 01
134.968;000.132;45;000.594;MIDI 01
135.097;000.108;48;000.578;MIDI 01
135.242;000.037;60;000.570;MIDI 01
135.244;000.055;65;000.602;MIDI 01
135.207;000.102;53;000.555;MIDI 01
135.328;000.071;57;000.570;MIDI 01
135.479;000.034;64;000.570;MIDI 01
135.473;000.071;67;000.617;MIDI 01
135.465;000.137;48;000.594;MIDI 01
135.718;000.042;64;000.562;MIDI 01
135.576;000.185;52;000.578;MIDI 01
135.681;000.114;55;000.539;MIDI 01
135.722;000.076;67;000.562;MIDI 01
135.821;000.126;60;000.539;MIDI 01
136.008;000.116;69;000.461;MIDI 01
136.125;000.088;77;000.422;MIDI 01
136.223;000.117;72;000.484;MIDI 01
135.965;000.420;53;000.469;MIDI 01
136.342;000.056;69;000.469;MIDI 01
136.456;000.046;67;000.555;MIDI 01
136.588;000.104;74;000.492;MIDI 01
136.459;000.348;46;000.406;MIDI 01
136.690;000.132;70;000.516;MIDI 01
136.819;000.028;67;000.484;MIDI 01
136.475;000.505;55;000.359;MIDI 01
136.920;000.117;64;000.453;MIDI 01
137.056;000.105;70;000.414;MIDI 01
137.173;000.119;67;000.445;MIDI 01
136.990;000.391;58;000.297;MIDI 01
137.316;000.109;64;000.406;MIDI 01
137.470;000.094;65;000.406;MIDI 01
136.996;000.611;48;000.328;MIDI 01
137.497;000.952;57;000.305;MIDI 01
138.708;000.348;75;000.375;MIDI 01
138.407;000.729;60;000.164;MIDI 01
137.934;001.265;77;000.414;MIDI 01
138.976;000.310;74;000.438;MIDI 01
137.515;001.855;53;000.227;MIDI 01
139.272;000.125;72;000.500;MIDI 01
138.994;000.589;63;000.297;MIDI 01
139.571;000.294;72;000.438;MIDI 01
139.873;000.097;71;000.375;MIDI 01
140.159;000.070;70;000.328;MIDI 01
140.410;000.099;70;000.414;MIDI 01
139.573;001.199;62;000.328;MIDI 01
140.674;000.126;70;000.516;MIDI 01
140.672;000.309;64;000.336;MIDI 01
139.584;001.451;53;000.117;MIDI 01
140.957;000.289;70;000.531;MIDI 01
141.247;000.165;69;000.461;MIDI 01
141.241;000.191;53;000.195;MIDI 01
141.272;000.244;65;000.383;MIDI 01
141.717;000.181;80;000.453;MIDI 01
141.827;000.950;81;000.484;MIDI 01
141.733;001.166;65;000.375;MIDI 01
142.680;000.433;79;000.375;MIDI 01
142.682;000.525;64;000.211;MIDI 01
143.064;000.268;62;000.320;MIDI 01
143.037;000.295;77;000.422;MIDI 01
143.300;000.118;76;000.469;MIDI 01
143.334;000.127;60;000.344;MIDI 01
143.702;000.439;76;000.367;MIDI 01
143.675;000.520;60;000.273;MIDI 01
144.164;000.285;73;000.312;MIDI 01
144.168;000.310;57;000.211;MIDI 01
144.518;000.129;74;000.352;MIDI 01
144.521;000.177;58;000.203;MIDI 01
144.707;000.065;60;000.328;MIDI 01
144.682;000.092;76;000.398;MIDI 01
144.805;000.085;77;000.414;MIDI 01
144.843;000.072;62;000.430;MIDI 01
144.918;000.074;76;000.477;MIDI 01
144.938;000.065;60;000.398;MIDI 01
145.071;000.093;64;000.492;MIDI 01
145.045;000.130;79;000.539;MIDI 01
145.172;000.114;77;000.523;MIDI 01
145.184;000.102;62;000.539;MIDI 01
145.295;000.093;76;000.523;MIDI 01
145.321;000.082;60;000.531;MIDI 01
145.411;000.062;74;000.531;MIDI 01
145.436;000.041;58;000.430;MIDI 01
145.618;000.466;62;000.375;MIDI 01
145.603;000.482;77;000.445;MIDI 01
146.141;000.090;74;000.320;MIDI 01
146.139;000.128;58;000.281;MIDI 01
146.293;000.790;57;000.336;MIDI 01
145.642;001.469;53;000.195;MIDI 01
146.280;000.839;72;000.336;MIDI 01
147.685;000.157;36;000.531;MIDI 01
147.682;000.197;48;000.531;MIDI 01
147.926;000.147;67;000.531;MIDI 01
148.075;000.041;76;000.547;MIDI 01
147.998;000.145;72;000.492;MIDI 01
148.211;000.101;76;000.594;MIDI 01
148.132;000.182;79;000.586;MIDI 01
148.283;000.084;72;000.625;MIDI 01
148.364;000.040;67;000.625;MIDI 01
148.347;000.392;40;000.492;MIDI 01
148.344;000.431;52;000.477;MIDI 01
148.947;000.235;55;000.484;MIDI 01
148.662;000.543;67;000.609;MIDI 01
148.950;000.293;43;000.492;MIDI 01
149.227;000.045;65;000.461;MIDI 01
149.223;000.068;71;000.477;MIDI 01
149.714;000.115;67;000.453;MIDI 01
149.871;000.022;76;000.414;MIDI 01
149.786;000.137;72;000.398;MIDI 01
149.541;000.409;36;000.383;MIDI 01
149.543;000.411;48;000.398;MIDI 01
149.907;000.139;79;000.523;MIDI 01
149.997;000.117;76;000.562;MIDI 01
150.095;000.060;72;000.516;MIDI 01
150.177;000.033;67;000.477;MIDI 01
150.175;000.430;40;000.438;MIDI 01
150.185;000.435;52;000.383;MIDI 01
150.835;000.216;55;000.344;MIDI 01
150.535;000.582;67;000.430;MIDI 01
150.832;000.341;43;000.391;MIDI 01
151.137;000.120;65;000.359;MIDI 01
151.122;000.150;71;000.391;MIDI 01
151.449;000.308;36;000.508;MIDI 01
151.468;000.347;48;000.523;MIDI 01
151.681;000.135;67;000.484;MIDI 01
151.835;000.046;76;000.508;MIDI 01
151.741;000.173;72;000.547;MIDI 01
151.892;000.196;79;000.594;MIDI 01
151.975;000.133;76;000.633;MIDI 01
152.056;000.100;72;000.633;MIDI 01
152.139;000.067;67;000.641;MIDI 01
152.115;000.420;40;000.484;MIDI 01
152.124;000.455;52;000.547;MIDI 01
152.782;000.390;43;000.586;MIDI 01
152.469;000.742;67;000.641;MIDI 01
152.784;000.489;55;000.594;MIDI 01
153.204;000.084;65;000.492;MIDI 01
153.207;000.139;71;000.594;MIDI 01
153.816;000.477;71;000.562;MIDI 01
154.270;000.213;72;000.555;MIDI 01
154.508;000.175;74;000.531;MIDI 01
154.708;000.140;72;000.438;MIDI 01
154.868;000.118;74;000.453;MIDI 01
155.024;000.071;72;000.430;MIDI 01
155.152;000.050;74;000.406;MIDI 01
155.255;000.039;72;000.383;MIDI 01
155.329;000.047;74;000.453;MIDI 01
155.409;000.051;72;000.484;MIDI 01
155.506;000.050;74;000.469;MIDI 01
155.582;000.064;72;000.445;MIDI 01
155.690;000.075;74;000.422;MIDI 01
155.805;000.097;72;000.398;MIDI 01
155.948;000.130;74;000.414;MIDI 01
156.093;000.132;72;000.359;MIDI 01
156.259;000.146;74;000.359;MIDI 01
156.438;000.170;72;000.312;MIDI 01
156.626;000.343;74;000.328;MIDI 01
153.843;004.440;64;000.422;MIDI 01
153.781;004.548;48;000.359;MIDI 01
153.784;004.608;60;000.359;MIDI 01
156.971;001.426;72;000.289;MIDI 01
158.822;000.134;73;000.320;MIDI 01
158.831;000.135;57;000.211;MIDI 01
159.336;000.106;58;000.250;MIDI 01
159.316;000.170;76;000.352;MIDI 01
159.517;000.040;74;000.344;MIDI 01
159.710;000.045;57;000.352;MIDI 01
159.689;000.122;74;000.508;MIDI 01
159.823;000.047;72;000.477;MIDI 01
159.972;000.100;72;000.531;MIDI 01
160.111;000.050;70;000.477;MIDI 01
160.008;000.273;55;000.320;MIDI 01
160.257;000.125;70;000.531;MIDI 01
160.377;000.049;69;000.500;MIDI 01
160.276;000.290;53;000.375;MIDI 01
160.528;000.129;69;000.562;MIDI 01
160.642;000.059;67;000.539;MIDI 01
160.542;000.161;52;000.391;MIDI 01
160.791;000.123;67;000.500;MIDI 01
160.920;000.074;69;000.539;MIDI 01
160.808;000.199;53;000.375;MIDI 01
161.096;000.121;69;000.430;MIDI 01
161.099;000.147;55;000.367;MIDI 01
161.246;000.031;70;000.477;MIDI 01
161.397;000.170;70;000.484;MIDI 01
161.575;000.111;67;000.438;MIDI 01
161.428;000.430;52;000.305;MIDI 01
161.877;000.069;58;000.320;MIDI 01
161.867;000.114;64;000.375;MIDI 01
159.996;002.024;48;000.352;MIDI 01
162.296;000.109;57;000.320;MIDI 01
162.296;000.119;65;000.352;MIDI 01
161.892;001.016;53;000.258;MIDI 01
162.823;001.557;65;000.328;MIDI 01
162.861;001.525;57;000.219;MIDI 01
162.841;001.646;41;000.227;MIDI 01
167.139;000.631;72;000.266;MIDI 01
167.562;000.322;68;000.328;MIDI 01
167.559;000.893;56;000.312;MIDI 01
167.990;000.824;65;000.359;MIDI 01
168.344;000.823;58;000.352;MIDI 01
168.722;000.746;73;000.422;MIDI 01
169.100;000.805;56;000.266;MIDI 01
169.444;000.895;72;000.281;MIDI 01
166.510;003.851;53;000.383;MIDI 01
169.833;000.883;55;000.203;MIDI 01
170.198;000.870;70;000.297;MIDI 01
170.570;000.591;53;000.227;MIDI 01
170.988;000.395;68;000.289;MIDI 01
171.882;000.433;68;000.344;MIDI 01
172.241;000.418;64;000.344;MIDI 01
172.244;000.854;60;000.344;MIDI 01
172.635;000.841;65;000.367;MIDI 01
172.988;000.845;61;000.383;MIDI 01
173.394;000.764;70;000.359;MIDI 01
173.772;000.781;60;000.289;MIDI 01
174.091;000.775;68;000.336;MIDI 01
174.467;000.806;58;000.266;MIDI 01
174.831;000.882;67;000.289;MIDI 01
175.225;000.611;56;000.258;MIDI 01
171.432;004.416;53;000.383;MIDI 01
175.698;000.504;65;000.289;MIDI 01
176.322;000.858;36;000.336;MIDI 01
176.338;001.003;48;000.352;MIDI 01
176.890;000.619;67;000.320;MIDI 01
177.269;000.368;64;000.398;MIDI 01
177.611;000.332;59;000.383;MIDI 01
177.617;000.453;47;000.328;MIDI 01
177.979;000.476;60;000.383;MIDI 01
177.970;000.671;48;000.391;MIDI 01
178.327;000.343;64;000.453;MIDI 01
178.339;000.343;67;000.469;MIDI 01
179.029;000.237;48;000.484;MIDI 01
178.692;001.072;68;000.477;MIDI 01
178.697;001.137;65;000.445;MIDI 01
179.822;000.387;67;000.367;MIDI 01
179.812;000.426;64;000.344;MIDI 01
180.241;000.421;68;000.375;MIDI 01
179.426;001.247;60;000.453;MIDI 01
180.225;000.452;65;000.359;MIDI 01
180.722;000.390;67;000.352;MIDI 01
180.728;000.503;64;000.164;MIDI 01
181.116;000.588;36;000.344;MIDI 01
181.145;000.848;48;000.367;MIDI 01
181.912;000.419;65;000.477;MIDI 01
181.546;000.793;68;000.430;MIDI 01
182.233;000.335;59;000.453;MIDI 01
182.224;000.424;47;000.406;MIDI 01
182.588;000.443;60;000.477;MIDI 01
182.938;000.255;65;000.484;MIDI 01
182.930;000.378;68;000.516;MIDI 01
182.575;000.764;48;000.477;MIDI 01
183.649;000.206;48;000.531;MIDI 01
183.308;001.066;67;000.508;MIDI 01
183.310;001.139;70;000.523;MIDI 01
184.380;000.378;69;000.516;MIDI 01
184.376;000.411;66;000.492;MIDI 01
184.782;000.278;67;000.531;MIDI 01
184.768;000.307;70;000.570;MIDI 01
184.024;001.312;60;000.547;MIDI 01
185.215;000.181;64;000.516;MIDI 01
185.197;000.232;67;000.625;MIDI 01
185.816;000.649;68;000.562;MIDI 01
185.822;000.682;65;000.500;MIDI 01
186.363;000.401;73;000.531;MIDI 01
185.804;000.989;53;000.383;MIDI 01
186.722;000.400;72;000.562;MIDI 01
187.105;000.257;65;000.531;MIDI 01
186.734;000.769;56;000.461;MIDI 01
187.448;000.166;64;000.508;MIDI 01
187.452;000.271;67;000.508;MIDI 01
187.842;000.092;67;000.477;MIDI 01
187.827;000.291;70;000.570;MIDI 01
187.458;000.709;60;000.492;MIDI 01
188.185;000.499;65;000.516;MIDI 01
188.180;000.698;68;000.547;MIDI 01
188.215;000.801;53;000.445;MIDI 01
188.984;000.346;72;000.492;MIDI 01
188.620;000.771;73;000.523;MIDI 01
189.340;000.252;65;000.516;MIDI 01
188.978;000.769;44;000.406;MIDI 01
189.670;000.183;64;000.484;MIDI 01
189.682;000.293;67;000.492;MIDI 01
190.048;000.083;67;000.469;MIDI 01
190.052;000.237;70;000.570;MIDI 01
189.675;000.799;48;000.438;MIDI 01
190.497;000.429;65;000.445;MIDI 01
190.971;000.208;77;000.562;MIDI 01
190.491;000.734;68;000.523;MIDI 01
190.502;000.872;53;000.320;MIDI 01
191.359;000.469;67;000.516;MIDI 01
191.757;000.177;73;000.500;MIDI 01
191.367;000.783;46;000.375;MIDI 01
192.125;000.257;72;000.453;MIDI 01
192.145;000.496;58;000.281;MIDI 01
192.111;000.610;48;000.352;MIDI 01
192.514;000.372;64;000.414;MIDI 01
192.944;000.533;67;000.375;MIDI 01
192.976;000.601;56;000.227;MIDI 01
192.963;000.704;53;000.289;MIDI 01
193.518;000.501;65;000.258;MIDI 01
194.002;000.357;41;000.273;MIDI 01
194.548;000.454;65;000.328;MIDI 01
194.952;000.479;63;000.359;MIDI 01
194.963;000.495;53;000.336;MIDI 01
194.957;000.518;67;000.453;MIDI 01
195.330;000.448;69;000.469;MIDI 01
195.794;000.596;53;000.242;MIDI 01
195.796;000.622;72;000.352;MIDI 01
195.775;000.653;61;000.312;MIDI 01
196.376;000.818;70;000.297;MIDI 01
197.124;000.433;73;000.383;MIDI 01
196.714;001.057;64;000.266;MIDI 01
196.701;001.124;53;000.273;MIDI 01
197.494;000.446;72;000.398;MIDI 01
197.848;000.363;70;000.469;MIDI 01
198.255;000.415;65;000.250;MIDI 01
198.253;000.505;67;000.359;MIDI 01
198.246;000.602;53;000.250;MIDI 01
198.760;000.403;68;000.281;MIDI 01
199.581;000.392;68;000.281;MIDI 01
199.159;000.977;53;000.234;MIDI 01
199.936;000.363;70;000.453;MIDI 01
200.271;000.391;72;000.461;MIDI 01
200.708;000.641;75;000.391;MIDI 01
201.292;000.833;73;000.289;MIDI 01
201.693;000.830;56;000.234;MIDI 01
202.102;000.423;77;000.320;MIDI 01
201.685;000.985;53;000.195;MIDI 01
202.459;000.416;75;000.391;MIDI 01
202.819;000.180;73;000.445;MIDI 01
202.502;000.898;55;000.172;MIDI 01
202.461;000.947;58;000.266;MIDI 01
203.340;000.552;71;000.352;MIDI 01
203.898;000.946;72;000.219;MIDI 01
204.398;000.509;56;000.180;MIDI 01
204.427;000.510;63;000.094;MIDI 01
204.919;000.508;80;000.445;MIDI 01
205.340;000.416;79;000.469;MIDI 01
205.397;000.379;48;000.305;MIDI 01
205.395;000.489;56;000.297;MIDI 01
205.716;000.352;78;000.523;MIDI 01
206.107;000.247;76;000.445;MIDI 01
206.332;000.130;77;000.438;MIDI 01
206.469;000.148;78;000.492;MIDI 01
206.625;000.133;77;000.484;MIDI 01
206.129;000.731;56;000.289;MIDI 01
206.765;000.208;75;000.500;MIDI 01
206.916;000.118;73;000.508;MIDI 01
207.051;000.127;72;000.508;MIDI 01
207.195;000.167;70;000.477;MIDI 01
206.779;000.734;53;000.352;MIDI 01
207.414;000.251;69;000.422;MIDI 01
206.141;001.579;49;000.359;MIDI 01
207.588;000.155;70;000.477;MIDI 01
207.727;000.159;73;000.516;MIDI 01
207.397;000.534;61;000.336;MIDI 01
207.868;000.251;77;000.539;MIDI 01
208.114;000.242;68;000.469;MIDI 01
208.708;000.042;70;000.305;MIDI 01
208.782;000.065;68;000.383;MIDI 01
208.143;000.815;60;000.305;MIDI 01
208.886;000.195;67;000.398;MIDI 01
209.134;000.094;63;000.352;MIDI 01
209.295;000.044;65;000.461;MIDI 01
209.446;000.040;67;000.461;MIDI 01
209.596;000.043;68;000.516;MIDI 01
209.750;000.037;70;000.523;MIDI 01
208.889;000.902;58;000.305;MIDI 01
208.149;001.705;51;000.266;MIDI 01
209.901;000.047;72;000.508;MIDI 01
210.079;000.038;73;000.438;MIDI 01
210.286;000.106;75;000.414;MIDI 01
210.766;000.097;56;000.266;MIDI 01
210.782;000.260;72;000.297;MIDI 01
210.753;000.335;75;000.406;MIDI 01
211.081;000.081;56;000.266;MIDI 01
211.439;000.069;56;000.195;MIDI 01
211.715;000.056;56;000.266;MIDI 01
211.399;000.642;75;000.469;MIDI 01
211.428;000.641;72;000.352;MIDI 01
212.058;000.099;56;000.266;MIDI 01
212.352;000.081;56;000.344;MIDI 01
212.019;000.620;77;000.430;MIDI 01
212.028;000.673;73;000.422;MIDI 01
212.671;000.072;56;000.266;MIDI 01
212.994;000.059;56;000.258;MIDI 01
212.660;000.682;75;000.430;MIDI 01
213.291;000.065;56;000.258;MIDI 01
212.651;000.730;72;000.375;MIDI 01
213.275;000.248;70;000.359;MIDI 01
213.564;000.095;56;000.328;MIDI 01
213.277;000.609;73;000.445;MIDI 01
210.311;003.665;44;000.289;MIDI 01
213.875;000.331;56;000.359;MIDI 01
213.878;000.475;68;000.375;MIDI 01
214.196;000.174;63;000.391;MIDI 01
213.864;000.508;72;000.477;MIDI 01
214.574;000.144;56;000.328;MIDI 01
214.900;000.089;56;000.391;MIDI 01
214.585;000.427;63;000.414;MIDI 01
214.593;000.427;72;000.477;MIDI 01
215.217;000.079;56;000.367;MIDI 01
215.495;000.088;56;000.367;MIDI 01
215.191;000.622;72;000.555;MIDI 01
215.198;000.638;63;000.492;MIDI 01
215.797;000.105;56;000.336;MIDI 01
216.121;000.099;56;000.352;MIDI 01
215.770;000.501;73;000.523;MIDI 01
216.403;000.072;56;000.398;MIDI 01
216.407;000.246;63;000.430;MIDI 01
215.784;000.961;65;000.414;MIDI 01
216.709;000.110;56;000.438;MIDI 01
217.007;000.116;56;000.359;MIDI 01
217.004;000.323;61;000.438;MIDI 01
217.285;000.096;56;000.461;MIDI 01
216.405;001.170;72;000.508;MIDI 01
216.989;000.628;70;000.516;MIDI 01
217.577;000.066;56;000.406;MIDI 01
214.166;003.499;44;000.320;MIDI 01
217.571;000.115;68;000.555;MIDI 01
217.593;000.178;60;000.477;MIDI 01
217.921;000.123;63;000.516;MIDI 01
217.933;000.119;66;000.508;MIDI 01
217.919;000.172;69;000.539;MIDI 01
218.325;000.077;53;000.430;MIDI 01
218.342;000.353;66;000.508;MIDI 01
218.595;000.110;53;000.531;MIDI 01
218.333;000.374;63;000.500;MIDI 01
218.323;000.391;69;000.555;MIDI 01
218.880;000.134;53;000.523;MIDI 01
218.889;000.262;61;000.547;MIDI 01
218.886;000.373;69;000.570;MIDI 01
219.157;000.111;53;000.578;MIDI 01
218.882;000.420;65;000.539;MIDI 01
217.910;001.506;41;000.453;MIDI 01
219.425;000.051;63;000.508;MIDI 01
219.417;000.066;53;000.555;MIDI 01
219.423;000.066;60;000.516;MIDI 01
219.415;000.111;69;000.594;MIDI 01
219.749;000.083;70;000.469;MIDI 01
219.900;000.042;65;000.461;MIDI 01
220.031;000.092;67;000.508;MIDI 01
220.159;000.069;69;000.578;MIDI 01
220.299;000.040;70;000.539;MIDI 01
220.421;000.051;72;000.578;MIDI 01
219.739;000.887;61;000.430;MIDI 01
219.753;000.880;58;000.367;MIDI 01
220.558;000.132;73;000.555;MIDI 01
220.676;000.154;75;000.625;MIDI 01
220.831;000.163;77;000.602;MIDI 01
220.969;000.182;76;000.641;MIDI 01
221.091;000.126;77;000.578;MIDI 01
221.202;000.083;73;000.633;MIDI 01
221.404;000.079;65;000.500;MIDI 01
221.390;000.113;68;000.531;MIDI 01
221.402;000.103;71;000.562;MIDI 01
221.730;000.130;55;000.422;MIDI 01
221.743;000.357;65;000.516;MIDI 01
222.028;000.126;55;000.516;MIDI 01
221.745;000.414;71;000.492;MIDI 01
221.754;000.447;68;000.484;MIDI 01
222.297;000.106;55;000.531;MIDI 01
222.300;000.295;64;000.516;MIDI 01
222.295;000.369;71;000.594;MIDI 01
222.573;000.128;55;000.555;MIDI 01
222.293;000.484;67;000.523;MIDI 01
221.379;001.448;43;000.438;MIDI 01
222.854;000.056;62;000.453;MIDI 01
222.865;000.051;55;000.477;MIDI 01
222.851;000.072;65;000.508;MIDI 01
222.844;000.104;71;000.555;MIDI 01
223.149;000.084;72;000.453;MIDI 01
223.301;000.068;67;000.508;MIDI 01
223.445;000.126;69;000.562;MIDI 01
223.582;000.042;71;000.594;MIDI 01
223.706;000.069;72;000.602;MIDI 01
223.833;000.092;74;000.641;MIDI 01
223.180;000.761;64;000.180;MIDI 01
223.154;000.827;60;000.336;MIDI 01
223.963;000.107;76;000.633;MIDI 01
224.091;000.159;77;000.602;MIDI 01
224.256;000.405;79;000.602;MIDI 01
224.461;000.238;76;000.594;MIDI 01
224.602;000.202;74;000.625;MIDI 01
224.756;000.227;72;000.633;MIDI 01
225.010;000.377;71;000.594;MIDI 01
225.906;000.569;80;000.562;MIDI 01
227.795;000.497;79;000.406;MIDI 01
228.336;000.092;77;000.258;MIDI 01
228.708;000.298;75;000.406;MIDI 01
229.037;000.069;73;000.289;MIDI 01
229.344;000.479;72;000.422;MIDI 01
229.804;000.239;71;000.188;MIDI 01
225.026;005.290;61;000.398;MIDI 01
225.037;005.305;65;000.375;MIDI 01
230.591;000.419;71;000.375;MIDI 01
230.986;000.174;72;000.305;MIDI 01
231.201;000.139;74;000.344;MIDI 01
231.363;000.135;72;000.328;MIDI 01
231.535;000.080;74;000.352;MIDI 01
231.700;000.032;72;000.266;MIDI 01
231.783;000.035;74;000.367;MIDI 01
231.870;000.037;72;000.367;MIDI 01
231.960;000.046;74;000.406;MIDI 01
232.046;000.033;72;000.383;MIDI 01
232.136;000.036;74;000.414;MIDI 01
232.198;000.043;72;000.422;MIDI 01
232.289;000.042;74;000.477;MIDI 01
232.393;000.026;72;000.359;MIDI 01
232.459;000.070;74;000.469;MIDI 01
232.580;000.047;72;000.344;MIDI 01
232.680;000.069;74;000.430;MIDI 01
232.810;000.052;72;000.336;MIDI 01
232.904;000.088;74;000.406;MIDI 01
233.067;000.067;72;000.281;MIDI 01
233.184;000.133;74;000.336;MIDI 01
233.380;000.093;72;000.242;MIDI 01
233.535;000.166;74;000.281;MIDI 01
233.735;000.233;72;000.266;MIDI 01
233.981;000.431;74;000.320;MIDI 01
234.419;001.742;72;000.227;MIDI 01
236.052;000.640;76;000.297;MIDI 01
236.551;000.227;74;000.258;MIDI 01
236.815;000.095;77;000.289;MIDI 01
236.977;000.102;76;000.367;MIDI 01
237.130;000.135;79;000.398;MIDI 01
230.573;006.771;60;000.203;MIDI 01
230.560;006.806;64;000.250;MIDI 01
237.297;000.072;77;000.375;MIDI 01
237.390;000.068;81;000.445;MIDI 01
237.505;000.093;79;000.516;MIDI 01
237.589;000.140;82;000.516;MIDI 01
237.724;000.087;81;000.539;MIDI 01
237.822;000.333;84;000.602;MIDI 01
238.135;001.961;82;000.570;MIDI 01
240.106;000.097;84;000.383;MIDI 01
240.204;000.073;86;000.477;MIDI 01
240.357;000.569;84;000.484;MIDI 01
240.964;000.149;82;000.297;MIDI 01
241.339;000.532;81;000.453;MIDI 01
241.834;000.273;79;000.344;MIDI 01
242.590;002.095;77;000.219;MIDI 01
238.137;006.552;60;000.258;MIDI 01
238.144;006.580;64;000.297;MIDI 01
238.130;006.611;70;000.250;MIDI 01
244.585;000.199;76;000.266;MIDI 01
238.126;006.666;67;000.281;MIDI 01
244.744;001.017;82;000.250;MIDI 01
245.733;000.266;76;000.258;MIDI 01
246.001;000.106;77;000.289;MIDI 01
246.168;000.060;79;000.289;MIDI 01
246.287;000.029;77;000.289;MIDI 01
246.373;000.025;79;000.352;MIDI 01
246.017;000.420;69;000.242;MIDI 01
246.427;000.024;77;000.359;MIDI 01
245.998;000.494;72;000.234;MIDI 01
246.573;000.024;77;000.375;MIDI 01
246.526;000.082;79;000.133;MIDI 01
246.617;000.055;79;000.125;MIDI 01
246.686;000.031;77;000.422;MIDI 01
246.741;000.059;79;000.359;MIDI 01
246.840;000.034;77;000.359;MIDI 01
246.875;000.061;79;000.320;MIDI 01
246.966;000.041;77;000.336;MIDI 01
247.018;000.040;79;000.266;MIDI 01
247.104;000.023;77;000.414;MIDI 01
246.670;000.505;72;000.344;MIDI 01
247.164;000.032;79;000.320;MIDI 01
246.667;000.533;69;000.305;MIDI 01
247.239;000.011;77;000.453;MIDI 01
247.302;000.042;79;000.203;MIDI 01
247.351;000.049;77;000.477;MIDI 01
247.443;000.048;79;000.266;MIDI 01
247.477;000.054;74;000.398;MIDI 01
247.527;000.022;77;000.414;MIDI 01
247.498;000.077;70;000.367;MIDI 01
247.571;000.045;79;000.328;MIDI 01
247.660;000.031;77;000.484;MIDI 01
247.739;000.029;79;000.344;MIDI 01
247.814;000.031;77;000.430;MIDI 01
247.898;000.032;79;000.297;MIDI 01
247.957;000.035;77;000.422;MIDI 01
248.115;000.039;77;000.406;MIDI 01
248.070;000.098;79;000.164;MIDI 01
248.192;000.059;79;000.156;MIDI 01
248.266;000.029;77;000.414;MIDI 01
247.757;000.592;72;000.422;MIDI 01
247.756;000.637;69;000.406;MIDI 01
248.346;000.058;79;000.172;MIDI 01
248.411;000.040;77;000.414;MIDI 01
248.494;000.047;79;000.234;MIDI 01
248.562;000.045;67;000.359;MIDI 01
248.574;000.039;77;000.383;MIDI 01
248.543;000.072;70;000.422;MIDI 01
248.681;000.056;79;000.273;MIDI 01
248.752;000.023;77;000.320;MIDI 01
248.820;000.037;79;000.305;MIDI 01
248.900;000.039;77;000.406;MIDI 01
248.832;000.191;69;000.375;MIDI 01
248.836;000.198;65;000.383;MIDI 01
248.983;000.054;79;000.461;MIDI 01
249.061;000.052;77;000.406;MIDI 01
249.153;000.054;79;000.453;MIDI 01
249.245;000.035;77;000.375;MIDI 01
249.361;000.041;79;000.312;MIDI 01
249.411;000.039;77;000.414;MIDI 01
249.510;000.029;79;000.414;MIDI 01
249.569;000.048;77;000.398;MIDI 01
249.400;000.237;60;000.391;MIDI 01
249.647;000.046;79;000.453;MIDI 01
249.369;000.343;69;000.492;MIDI 01
249.733;000.032;77;000.414;MIDI 01
249.814;000.024;79;000.398;MIDI 01
249.887;000.040;77;000.438;MIDI 01
249.979;000.032;79;000.367;MIDI 01
250.051;000.035;77;000.414;MIDI 01
250.204;000.039;77;000.445;MIDI 01
250.272;000.055;79;000.094;MIDI 01
250.346;000.045;77;000.453;MIDI 01
249.995;000.452;69;000.445;MIDI 01
249.992;000.470;60;000.414;MIDI 01
250.464;000.043;79;000.219;MIDI 01
250.512;000.034;77;000.422;MIDI 01
250.582;000.046;79;000.320;MIDI 01
250.671;000.038;77;000.469;MIDI 01
250.758;000.024;79;000.398;MIDI 01
250.732;000.067;70;000.461;MIDI 01
250.756;000.057;62;000.352;MIDI 01
250.832;000.037;77;000.461;MIDI 01
250.914;000.028;79;000.398;MIDI 01
250.985;000.048;77;000.477;MIDI 01
251.075;000.044;79;000.375;MIDI 01
251.157;000.044;77;000.469;MIDI 01
251.234;000.047;79;000.422;MIDI 01
251.032;000.295;69;000.445;MIDI 01
251.309;000.037;77;000.445;MIDI 01
251.025;000.325;60;000.438;MIDI 01
251.406;000.021;79;000.391;MIDI 01
251.469;000.034;77;000.500;MIDI 01
251.545;000.030;79;000.398;MIDI 01
251.632;000.018;77;000.453;MIDI 01
251.694;000.020;79;000.391;MIDI 01
251.768;000.036;77;000.461;MIDI 01
251.792;000.065;67;000.375;MIDI 01
251.787;000.074;58;000.359;MIDI 01
251.841;000.021;79;000.391;MIDI 01
251.920;000.037;77;000.461;MIDI 01
251.969;000.040;79;000.422;MIDI 01
252.064;000.034;77;000.477;MIDI 01
252.143;000.034;79;000.297;MIDI 01
252.076;000.124;57;000.359;MIDI 01
252.202;000.031;77;000.477;MIDI 01
252.089;000.155;65;000.375;MIDI 01
252.259;000.030;79;000.438;MIDI 01
252.341;000.021;77;000.383;MIDI 01
252.409;000.055;76;000.516;MIDI 01
252.526;000.140;77;000.320;MIDI 01
252.758;000.104;84;000.391;MIDI 01
252.915;000.043;86;000.344;MIDI 01
252.760;000.240;60;000.297;MIDI 01
252.752;000.295;64;000.352;MIDI 01
253.023;000.040;84;000.320;MIDI 01
252.732;000.341;67;000.383;MIDI 01
253.095;000.041;86;000.367;MIDI 01
253.173;000.016;84;000.484;MIDI 01
253.247;000.035;86;000.422;MIDI 01
253.306;000.044;84;000.430;MIDI 01
253.383;000.032;86;000.414;MIDI 01
253.322;000.140;60;000.320;MIDI 01
253.306;000.195;67;000.383;MIDI 01
253.473;000.029;84;000.414;MIDI 01
253.309;000.222;64;000.367;MIDI 01
253.526;000.046;86;000.461;MIDI 01
253.613;000.043;84;000.469;MIDI 01
253.706;000.032;86;000.297;MIDI 01
253.774;000.045;84;000.469;MIDI 01
253.863;000.039;86;000.422;MIDI 01
253.971;000.029;84;000.438;MIDI 01
253.818;000.196;60;000.406;MIDI 01
253.821;000.206;64;000.422;MIDI 01
254.029;000.067;86;000.422;MIDI 01
253.806;000.316;68;000.492;MIDI 01
254.129;000.047;84;000.445;MIDI 01
254.235;000.041;86;000.414;MIDI 01
254.315;000.039;84;000.414;MIDI 01
254.406;000.046;86;000.414;MIDI 01
254.481;000.053;84;000.414;MIDI 01
254.581;000.050;86;000.430;MIDI 01
254.662;000.044;84;000.430;MIDI 01
254.765;000.033;86;000.375;MIDI 01
254.835;000.034;84;000.359;MIDI 01
254.411;000.542;65;000.375;MIDI 01
254.391;000.569;69;000.477;MIDI 01
254.942;000.040;86;000.211;MIDI 01
254.969;000.050;84;000.461;MIDI 01
255.072;000.032;86;000.336;MIDI 01
255.142;000.034;84;000.414;MIDI 01
255.233;000.023;86;000.414;MIDI 01
255.222;000.095;64;000.328;MIDI 01
255.220;000.098;68;000.367;MIDI 01
255.311;000.031;84;000.430;MIDI 01
255.389;000.037;86;000.422;MIDI 01
255.472;000.031;84;000.391;MIDI 01
255.559;000.042;86;000.289;MIDI 01
255.616;000.043;84;000.461;MIDI 01
255.525;000.222;69;000.312;MIDI 01
255.498;000.256;65;000.344;MIDI 01
255.721;000.045;86;000.195;MIDI 01
255.785;000.036;84;000.398;MIDI 01
255.875;000.027;86;000.312;MIDI 01
255.956;000.042;84;000.453;MIDI 01
256.027;000.085;86;000.461;MIDI 01
256.129;000.046;84;000.414;MIDI 01
256.052;000.127;60;000.336;MIDI 01
256.040;000.192;65;000.375;MIDI 01
256.042;000.195;69;000.430;MIDI 01
256.224;000.056;86;000.352;MIDI 01
256.318;000.034;84;000.445;MIDI 01
256.404;000.044;86;000.414;MIDI 01
256.484;000.031;84;000.406;MIDI 01
256.558;000.053;86;000.477;MIDI 01
256.629;000.060;84;000.484;MIDI 01
256.598;000.145;60;000.398;MIDI 01
256.566;000.202;65;000.461;MIDI 01
256.726;000.045;86;000.438;MIDI 01
256.574;000.199;69;000.484;MIDI 01
256.831;000.030;84;000.492;MIDI 01
256.911;000.054;86;000.438;MIDI 01
256.992;000.053;84;000.445;MIDI 01
257.093;000.026;86;000.430;MIDI 01
257.174;000.032;84;000.445;MIDI 01
257.117;000.134;60;000.375;MIDI 01
257.254;000.048;86;000.414;MIDI 01
257.099;000.222;66;000.516;MIDI 01
257.101;000.256;69;000.516;MIDI 01
257.331;000.044;84;000.469;MIDI 01
257.423;000.036;86;000.406;MIDI 01
257.501;000.043;84;000.469;MIDI 01
257.574;000.056;86;000.461;MIDI 01
257.673;000.054;84;000.484;MIDI 01
257.769;000.060;86;000.438;MIDI 01
257.880;000.032;84;000.438;MIDI 01
257.955;000.059;86;000.453;MIDI 01
258.053;000.050;84;000.414;MIDI 01
258.137;000.064;86;000.414;MIDI 01
257.699;000.533;67;000.516;MIDI 01
257.692;000.547;70;000.523;MIDI 01
258.234;000.054;84;000.422;MIDI 01
258.328;000.059;86;000.422;MIDI 01
258.430;000.045;84;000.367;MIDI 01
258.527;000.051;86;000.469;MIDI 01
258.515;000.068;69;000.461;MIDI 01
258.544;000.045;66;000.359;MIDI 01
258.610;000.045;84;000.430;MIDI 01
258.710;000.060;86;000.445;MIDI 01
258.789;000.064;84;000.430;MIDI 01
258.907;000.051;86;000.414;MIDI 01
258.994;000.026;84;000.391;MIDI 01
258.806;000.247;70;000.414;MIDI 01
258.810;000.261;67;000.367;MIDI 01
259.082;000.038;86;000.422;MIDI 01
259.145;000.047;84;000.453;MIDI 01
259.232;000.044;86;000.477;MIDI 01
259.320;000.042;84;000.453;MIDI 01
259.392;000.055;86;000.484;MIDI 01
259.479;000.053;84;000.492;MIDI 01
259.386;000.192;65;000.500;MIDI 01
259.377;000.223;69;000.555;MIDI 01
259.580;000.040;86;000.414;MIDI 01
259.675;000.043;84;000.523;MIDI 01
259.778;000.039;72;000.492;MIDI 01
259.747;000.090;86;000.492;MIDI 01
259.845;000.056;84;000.453;MIDI 01
259.872;000.070;65;000.578;MIDI 01
259.909;000.043;57;000.492;MIDI 01
259.921;000.080;86;000.469;MIDI 01
260.061;000.023;84;000.359;MIDI 01
260.151;000.041;57;000.414;MIDI 01
260.143;000.052;86;000.438;MIDI 01
260.149;000.050;65;000.500;MIDI 01
260.216;000.048;84;000.391;MIDI 01
260.316;000.053;86;000.406;MIDI 01
260.382;000.054;67;000.500;MIDI 01
260.391;000.048;84;000.477;MIDI 01
260.387;000.053;60;000.477;MIDI 01
260.481;000.045;86;000.477;MIDI 01
260.583;000.038;84;000.453;MIDI 01
260.658;000.033;60;000.531;MIDI 01
260.660;000.038;67;000.547;MIDI 01
260.654;000.082;86;000.539;MIDI 01
260.741;000.066;84;000.461;MIDI 01
260.877;000.052;86;000.383;MIDI 01
260.943;000.043;84;000.508;MIDI 01
261.026;000.064;86;000.508;MIDI 01
260.951;000.225;65;000.531;MIDI 01
261.108;000.075;84;000.523;MIDI 01
260.941;000.256;69;000.633;MIDI 01
261.212;000.081;86;000.500;MIDI 01
261.316;000.045;72;000.523;MIDI 01
261.318;000.050;84;000.477;MIDI 01
261.390;000.082;86;000.508;MIDI 01
261.435;000.069;65;000.602;MIDI 01
261.452;000.064;57;000.453;MIDI 01
261.488;000.058;84;000.484;MIDI 01
261.583;000.066;86;000.445;MIDI 01
261.692;000.043;84;000.492;MIDI 01
261.695;000.052;57;000.430;MIDI 01
261.697;000.052;65;000.500;MIDI 01
261.765;000.045;86;000.461;MIDI 01
261.847;000.045;84;000.430;MIDI 01
261.924;000.044;86;000.484;MIDI 01
261.958;000.045;60;000.430;MIDI 01
261.956;000.051;67;000.430;MIDI 01
262.009;000.033;84;000.484;MIDI 01
262.083;000.044;86;000.484;MIDI 01
262.170;000.041;84;000.430;MIDI 01
262.212;000.035;60;000.344;MIDI 01
262.222;000.050;67;000.391;MIDI 01
262.238;000.036;86;000.391;MIDI 01
262.320;000.021;84;000.438;MIDI 01
262.366;000.046;86;000.516;MIDI 01
262.456;000.096;84;000.500;MIDI 01
262.522;000.129;69;000.320;MIDI 01
262.568;000.101;86;000.484;MIDI 01
262.661;000.024;88;000.461;MIDI 01
262.505;000.192;65;000.320;MIDI 01
262.743;000.079;89;000.523;MIDI 01
262.800;000.069;88;000.539;MIDI 01
262.871;000.043;86;000.539;MIDI 01
262.950;000.043;84;000.508;MIDI 01
263.040;000.070;82;000.555;MIDI 01
263.116;000.081;81;000.594;MIDI 01
263.205;000.046;79;000.477;MIDI 01
263.262;000.042;77;000.578;MIDI 01
263.348;000.065;76;000.594;MIDI 01
263.095;000.320;48;000.508;MIDI 01
263.430;000.030;74;000.484;MIDI 01
263.493;000.068;72;000.578;MIDI 01
263.607;000.091;70;000.555;MIDI 01
263.097;000.679;55;000.477;MIDI 01
263.680;000.102;69;000.539;MIDI 01
263.778;000.056;67;000.477;MIDI 01
263.694;000.179;48;000.398;MIDI 01
263.699;000.193;52;000.414;MIDI 01
263.874;000.054;65;000.453;MIDI 01
263.976;000.068;64;000.438;MIDI 01
264.065;000.085;62;000.438;MIDI 01
264.170;000.061;60;000.359;MIDI 01
264.238;000.120;58;000.398;MIDI 01
264.372;000.098;57;000.328;MIDI 01
264.495;000.161;55;000.375;MIDI 01
264.709;000.107;53;000.328;MIDI 01
264.905;000.067;55;000.273;MIDI 01
265.050;000.068;53;000.266;MIDI 01
264.765;000.362;69;000.305;MIDI 01
264.732;000.414;72;000.445;MIDI 01
265.169;000.058;55;000.320;MIDI 01
265.286;000.061;53;000.328;MIDI 01
265.413;000.060;55;000.336;MIDI 01
265.551;000.042;53;000.227;MIDI 01
265.639;000.053;55;000.305;MIDI 01
265.746;000.045;53;000.273;MIDI 01
265.833;000.050;55;000.391;MIDI 01
265.945;000.046;53;000.305;MIDI 01
266.030;000.041;55;000.398;MIDI 01
265.364;000.771;72;000.469;MIDI 01
265.383;000.761;69;000.383;MIDI 01
266.134;000.053;53;000.344;MIDI 01
266.224;000.064;55;000.406;MIDI 01
266.136;000.236;74;000.445;MIDI 01
266.355;000.052;53;000.266;MIDI 01
266.150;000.318;70;000.438;MIDI 01
266.442;000.054;55;000.367;MIDI 01
266.571;000.048;53;000.258;MIDI 01
266.655;000.052;55;000.320;MIDI 01
266.780;000.036;53;000.258;MIDI 01
266.865;000.035;55;000.344;MIDI 01
266.960;000.044;53;000.297;MIDI 01
267.058;000.031;55;000.297;MIDI 01
266.425;000.752;69;000.422;MIDI 01
267.164;000.055;53;000.250;MIDI 01
267.259;000.047;55;000.297;MIDI 01
267.387;000.047;53;000.219;MIDI 01
266.422;001.041;72;000.500;MIDI 01
267.192;000.294;70;000.438;MIDI 01
267.492;000.049;55;000.320;MIDI 01
267.207;000.354;67;000.328;MIDI 01
267.630;000.045;53;000.195;MIDI 01
267.499;000.209;65;000.359;MIDI 01
267.728;000.069;55;000.266;MIDI 01
267.508;000.328;69;000.430;MIDI 01
267.868;000.054;53;000.156;MIDI 01
267.970;000.061;55;000.328;MIDI 01
268.124;000.053;53;000.195;MIDI 01
268.253;000.049;55;000.180;MIDI 01
268.097;000.215;60;000.312;MIDI 01
268.105;000.225;69;000.406;MIDI 01
268.363;000.061;53;000.250;MIDI 01
268.473;000.068;55;000.297;MIDI 01
268.606;000.053;53;000.234;MIDI 01
268.715;000.043;55;000.344;MIDI 01
268.835;000.050;53;000.227;MIDI 01
268.957;000.045;55;000.281;MIDI 01
269.051;000.046;53;000.273;MIDI 01
269.154;000.048;55;000.359;MIDI 01
269.256;000.058;53;000.305;MIDI 01
268.738;000.577;60;000.375;MIDI 01
269.361;000.045;55;000.391;MIDI 01
268.720;000.819;69;000.453;MIDI 01
269.469;000.072;53;000.336;MIDI 01
269.535;000.061;62;000.359;MIDI 01
269.579;000.046;55;000.359;MIDI 01
269.709;000.059;53;000.336;MIDI 01
269.833;000.046;55;000.305;MIDI 01
269.533;000.363;70;000.477;MIDI 01
269.948;000.052;53;000.273;MIDI 01
270.052;000.053;55;000.344;MIDI 01
270.185;000.064;53;000.258;MIDI 01
270.308;000.051;55;000.281;MIDI 01
269.920;000.468;69;000.516;MIDI 01
270.431;000.056;53;000.266;MIDI 01
270.543;000.052;55;000.336;MIDI 01
269.846;000.764;60;000.367;MIDI 01
270.661;000.042;53;000.305;MIDI 01
270.691;000.107;58;000.312;MIDI 01
270.762;000.060;55;000.320;MIDI 01
270.877;000.035;53;000.289;MIDI 01
270.975;000.034;55;000.367;MIDI 01
270.681;000.360;67;000.383;MIDI 01
270.994;000.099;57;000.258;MIDI 01
271.078;000.043;53;000.211;MIDI 01
270.973;000.188;65;000.367;MIDI 01
271.137;000.038;55;000.391;MIDI 01
271.267;000.062;53;000.297;MIDI 01
271.349;000.136;55;000.195;MIDI 01
271.542;000.071;48;000.320;MIDI 01
271.722;000.055;50;000.203;MIDI 01
271.538;000.245;64;000.320;MIDI 01
271.559;000.299;60;000.227;MIDI 01
271.540;000.357;67;000.352;MIDI 01
271.870;000.051;48;000.203;MIDI 01
271.991;000.059;50;000.258;MIDI 01
272.122;000.065;48;000.188;MIDI 01
272.121;000.123;64;000.352;MIDI 01
272.135;000.127;60;000.258;MIDI 01
272.105;000.164;67;000.375;MIDI 01
272.260;000.051;50;000.234;MIDI 01
272.359;000.053;48;000.273;MIDI 01
272.473;000.061;50;000.336;MIDI 01
272.591;000.061;48;000.328;MIDI 01
272.710;000.064;50;000.297;MIDI 01
272.641;000.176;64;000.406;MIDI 01
272.833;000.058;48;000.312;MIDI 01
272.663;000.232;60;000.312;MIDI 01
272.643;000.279;68;000.406;MIDI 01
272.928;000.058;50;000.320;MIDI 01
273.062;000.069;48;000.305;MIDI 01
273.177;000.050;50;000.305;MIDI 01
273.292;000.056;48;000.297;MIDI 01
273.396;000.053;50;000.281;MIDI 01
273.507;000.059;48;000.273;MIDI 01
273.627;000.047;50;000.227;MIDI 01
273.741;000.068;48;000.250;MIDI 01
273.198;000.746;65;000.336;MIDI 01
273.855;000.099;50;000.281;MIDI 01
273.196;000.798;69;000.383;MIDI 01
274.003;000.055;48;000.289;MIDI 01
274.121;000.051;50;000.336;MIDI 01
273.953;000.238;68;000.367;MIDI 01
273.951;000.268;64;000.203;MIDI 01
274.221;000.062;48;000.312;MIDI 01
274.347;000.044;50;000.289;MIDI 01
274.226;000.217;65;000.328;MIDI 01
274.461;000.042;48;000.258;MIDI 01
274.210;000.359;69;000.320;MIDI 01
274.558;000.045;50;000.336;MIDI 01
274.663;000.068;48;000.328;MIDI 01
274.786;000.053;50;000.297;MIDI 01
274.917;000.042;48;000.250;MIDI 01
274.759;000.240;69;000.398;MIDI 01
274.768;000.234;65;000.445;MIDI 01
274.791;000.224;60;000.312;MIDI 01
275.009;000.044;50;000.336;MIDI 01
275.137;000.044;48;000.305;MIDI 01
275.236;000.062;50;000.352;MIDI 01
275.364;000.052;48;000.305;MIDI 01
275.280;000.197;65;000.453;MIDI 01
275.305;000.210;60;000.383;MIDI 01
275.459;000.061;50;000.383;MIDI 01
275.285;000.282;69;000.461;MIDI 01
275.582;000.050;48;000.367;MIDI 01
275.686;000.056;50;000.391;MIDI 01
275.812;000.057;48;000.367;MIDI 01
275.943;000.041;50;000.320;MIDI 01
275.822;000.206;60;000.391;MIDI 01
275.807;000.264;66;000.477;MIDI 01
276.036;000.054;48;000.391;MIDI 01
275.810;000.283;69;000.508;MIDI 01
276.158;000.060;50;000.312;MIDI 01
276.300;000.045;48;000.367;MIDI 01
276.406;000.049;50;000.320;MIDI 01
276.500;000.045;48;000.375;MIDI 01
276.607;000.050;50;000.336;MIDI 01
276.698;000.044;48;000.352;MIDI 01
276.797;000.038;50;000.398;MIDI 01
276.881;000.057;48;000.414;MIDI 01
276.980;000.041;50;000.391;MIDI 01
277.081;000.050;48;000.414;MIDI 01
276.360;000.773;67;000.438;MIDI 01
276.353;000.782;70;000.453;MIDI 01
277.170;000.049;50;000.422;MIDI 01
277.146;000.163;66;000.383;MIDI 01
277.262;000.054;48;000.430;MIDI 01
277.372;000.030;50;000.406;MIDI 01
277.133;000.288;69;000.492;MIDI 01
277.455;000.049;48;000.320;MIDI 01
277.401;000.188;67;000.477;MIDI 01
277.534;000.068;50;000.430;MIDI 01
277.404;000.223;70;000.516;MIDI 01
277.700;000.058;47;000.445;MIDI 01
277.808;000.079;48;000.469;MIDI 01
277.956;000.069;41;000.391;MIDI 01
278.113;000.061;43;000.445;MIDI 01
277.956;000.299;69;000.508;MIDI 01
278.238;000.049;41;000.359;MIDI 01
277.958;000.340;65;000.500;MIDI 01
278.310;000.018;72;000.438;MIDI 01
278.360;000.049;43;000.484;MIDI 01
278.428;000.043;65;000.562;MIDI 01
278.426;000.049;57;000.523;MIDI 01
278.473;000.056;41;000.359;MIDI 01
278.592;000.043;43;000.375;MIDI 01
278.719;000.030;65;000.430;MIDI 01
278.708;000.043;57;000.445;MIDI 01
278.703;000.068;41;000.414;MIDI 01
278.828;000.059;43;000.375;MIDI 01
278.949;000.028;60;000.492;MIDI 01
278.938;000.055;41;000.453;MIDI 01
278.942;000.053;67;000.508;MIDI 01
279.057;000.054;43;000.391;MIDI 01
279.191;000.019;60;000.461;MIDI 01
279.171;000.061;41;000.461;MIDI 01
279.186;000.066;67;000.570;MIDI 01
279.279;000.073;43;000.422;MIDI 01
279.422;000.060;41;000.430;MIDI 01
279.530;000.047;43;000.477;MIDI 01
279.621;000.065;41;000.453;MIDI 01
279.743;000.049;43;000.398;MIDI 01
279.458;000.371;69;000.570;MIDI 01
279.473;000.373;65;000.539;MIDI 01
279.837;000.026;72;000.547;MIDI 01
279.841;000.050;41;000.484;MIDI 01
279.939;000.057;43;000.492;MIDI 01
279.992;000.043;57;000.578;MIDI 01
279.994;000.051;65;000.594;MIDI 01
280.020;000.051;41;000.484;MIDI 01
280.129;000.045;43;000.492;MIDI 01
280.222;000.057;41;000.484;MIDI 01
280.260;000.042;57;000.523;MIDI 01
280.262;000.055;65;000.562;MIDI 01
280.320;000.047;43;000.484;MIDI 01
280.416;000.051;41;000.469;MIDI 01
280.503;000.057;43;000.523;MIDI 01
280.534;000.037;60;000.555;MIDI 01
280.526;000.081;67;000.609;MIDI 01
280.599;000.065;41;000.484;MIDI 01
280.691;000.053;43;000.547;MIDI 01
280.817;000.034;60;000.406;MIDI 01
280.796;000.071;67;000.562;MIDI 01
280.789;000.083;41;000.523;MIDI 01
280.903;000.168;43;000.477;MIDI 01
281.154;000.509;63;000.484;MIDI 01
281.143;000.575;69;000.547;MIDI 01
281.850;000.106;72;000.461;MIDI 01
281.117;000.914;42;000.430;MIDI 01
282.055;000.096;43;000.336;MIDI 01
282.199;000.048;45;000.391;MIDI 01
282.346;000.051;43;000.227;MIDI 01
282.391;000.044;45;000.461;MIDI 01
282.515;000.039;43;000.367;MIDI 01
282.572;000.053;45;000.516;MIDI 01
282.681;000.095;43;000.367;MIDI 01
282.734;000.087;45;000.547;MIDI 01
282.863;000.095;42;000.531;MIDI 01
282.051;001.153;71;000.445;MIDI 01
283.021;000.207;43;000.523;MIDI 01
282.059;001.200;62;000.383;MIDI 01
283.225;000.640;61;000.461;MIDI 01
283.216;000.697;67;000.469;MIDI 01
283.183;000.836;40;000.453;MIDI 01
283.983;000.107;70;000.406;MIDI 01
284.256;000.115;41;000.312;MIDI 01
284.420;000.060;43;000.273;MIDI 01
284.548;000.047;41;000.336;MIDI 01
284.628;000.047;43;000.438;MIDI 01
284.712;000.058;41;000.461;MIDI 01
284.808;000.050;43;000.453;MIDI 01
284.899;000.049;41;000.492;MIDI 01
284.991;000.028;43;000.492;MIDI 01
285.059;000.041;41;000.516;MIDI 01
285.145;000.093;43;000.516;MIDI 01
285.238;000.151;41;000.445;MIDI 01
285.382;000.157;40;000.602;MIDI 01
284.258;001.400;60;000.336;MIDI 01
284.243;001.426;69;000.469;MIDI 01
285.572;000.382;41;000.562;MIDI 01
285.928;001.444;35;000.523;MIDI 01
287.270;000.444;38;000.422;MIDI 01
287.602;000.242;41;000.461;MIDI 01
287.970;000.141;47;000.438;MIDI 01
287.784;000.402;44;000.453;MIDI 01
288.128;000.120;50;000.414;MIDI 01
288.250;000.124;53;000.461;MIDI 01
288.382;000.067;56;000.508;MIDI 01
288.502;000.123;59;000.547;MIDI 01
288.627;000.121;62;000.547;MIDI 01
288.724;000.126;65;000.586;MIDI 01
288.856;000.070;68;000.570;MIDI 01
288.983;000.283;71;000.609;MIDI 01
289.216;000.209;77;000.648;MIDI 01
289.097;000.347;74;000.586;MIDI 01
289.409;000.220;80;000.570;MIDI 01
289.562;000.178;77;000.562;MIDI 01
289.715;000.074;74;000.555;MIDI 01
289.842;000.054;71;000.492;MIDI 01
289.969;000.131;68;000.469;MIDI 01
290.082;000.142;65;000.555;MIDI 01
290.226;000.072;62;000.492;MIDI 01
290.351;000.145;59;000.508;MIDI 01
290.516;000.200;56;000.492;MIDI 01
290.665;000.184;53;000.492;MIDI 01
290.864;000.202;50;000.453;MIDI 01
291.107;000.571;47;000.500;MIDI 01
291.652;002.244;48;000.461;MIDI 01
293.871;000.359;52;000.312;MIDI 01
294.204;000.202;50;000.312;MIDI 01
294.430;000.121;48;000.289;MIDI 01
294.570;000.205;50;000.352;MIDI 01
294.739;000.046;52;000.367;MIDI 01
294.835;000.095;53;000.414;MIDI 01
294.971;000.086;55;000.391;MIDI 01
295.073;000.082;57;000.461;MIDI 01
295.176;000.028;58;000.438;MIDI 01
295.258;000.058;60;000.484;MIDI 01
295.343;000.071;62;000.461;MIDI 01
295.425;000.036;64;000.531;MIDI 01
295.518;000.080;65;000.555;MIDI 01
295.615;000.091;67;000.562;MIDI 01
295.660;000.070;69;000.578;MIDI 01
295.743;000.024;70;000.531;MIDI 01
295.812;000.054;72;000.586;MIDI 01
295.920;000.047;74;000.461;MIDI 01
295.929;000.061;76;000.469;MIDI 01
296.056;000.060;77;000.484;MIDI 01
296.136;000.071;79;000.602;MIDI 01
296.184;000.053;81;000.602;MIDI 01
296.270;000.031;82;000.320;MIDI 01
296.308;000.082;84;000.625;MIDI 01
296.363;000.103;86;000.648;MIDI 01
296.426;000.078;88;000.672;MIDI 01
291.685;004.924;36;000.398;MIDI 01
296.469;000.483;89;000.703;MIDI 01
297.960;000.080;77;000.508;MIDI 01
298.075;001.168;82;000.555;MIDI 01
299.225;000.152;81;000.414;MIDI 01
299.354;000.095;79;000.469;MIDI 01
299.464;000.200;77;000.516;MIDI 01
299.674;000.176;79;000.469;MIDI 01
299.901;000.075;81;000.438;MIDI 01
300.035;000.057;79;000.414;MIDI 01
300.167;000.030;81;000.336;MIDI 01
300.253;000.029;79;000.406;MIDI 01
300.335;000.043;81;000.375;MIDI 01
300.409;000.049;79;000.430;MIDI 01
300.505;000.030;81;000.453;MIDI 01
300.597;000.021;79;000.422;MIDI 01
300.660;000.031;81;000.484;MIDI 01
300.751;000.031;79;000.445;MIDI 01
300.825;000.039;81;000.398;MIDI 01
300.910;000.040;79;000.453;MIDI 01
300.994;000.043;81;000.438;MIDI 01
301.097;000.027;79;000.414;MIDI 01
301.183;000.068;81;000.398;MIDI 01
301.278;000.047;79;000.383;MIDI 01
301.381;000.047;81;000.438;MIDI 01
301.474;000.107;79;000.422;MIDI 01
301.593;000.099;81;000.531;MIDI 01
301.743;000.047;82;000.445;MIDI 01
301.842;000.041;81;000.469;MIDI 01
301.940;000.045;82;000.453;MIDI 01
301.994;000.057;81;000.492;MIDI 01
302.107;000.029;82;000.430;MIDI 01
302.196;000.034;81;000.523;MIDI 01
302.273;000.043;82;000.445;MIDI 01
302.345;000.057;81;000.492;MIDI 01
302.440;000.050;82;000.422;MIDI 01
302.540;000.011;81;000.523;MIDI 01
302.599;000.032;82;000.516;MIDI 01
302.679;000.076;81;000.500;MIDI 01
302.774;000.095;82;000.445;MIDI 01
302.911;000.055;84;000.500;MIDI 01
303.024;000.022;82;000.477;MIDI 01
303.116;000.020;84;000.406;MIDI 01
303.157;000.043;82;000.508;MIDI 01
303.241;000.037;84;000.523;MIDI 01
303.308;000.037;82;000.508;MIDI 01
303.401;000.033;84;000.523;MIDI 01
303.470;000.029;82;000.523;MIDI 01
303.549;000.045;84;000.500;MIDI 01
303.605;000.067;82;000.531;MIDI 01
303.697;000.067;84;000.625;MIDI 01
303.795;000.038;83;000.531;MIDI 01
303.887;000.035;84;000.508;MIDI 01
303.959;000.027;83;000.500;MIDI 01
304.023;000.050;84;000.562;MIDI 01
299.672;004.446;70;000.383;MIDI 01
299.688;004.465;64;000.336;MIDI 01
304.090;000.069;83;000.516;MIDI 01
304.200;000.014;84;000.500;MIDI 01
299.685;004.550;60;000.320;MIDI 01
304.243;000.034;83;000.500;MIDI 01
304.309;000.095;84;000.633;MIDI 01
304.406;000.047;83;000.578;MIDI 01
304.477;000.109;81;000.555;MIDI 01
304.582;000.040;83;000.625;MIDI 01
304.886;000.077;53;000.398;MIDI 01
304.906;000.070;84;000.477;MIDI 01
305.005;000.045;57;000.305;MIDI 01
305.011;000.094;81;000.406;MIDI 01
305.101;000.043;60;000.305;MIDI 01
305.136;000.055;77;000.070;MIDI 01
305.175;000.048;65;000.336;MIDI 01
305.190;000.082;72;000.430;MIDI 01
305.309;000.050;77;000.242;MIDI 01
305.256;000.111;60;000.461;MIDI 01
305.359;000.078;81;000.516;MIDI 01
305.433;000.097;53;000.461;MIDI 01
305.448;000.111;84;000.539;MIDI 01
305.569;000.040;57;000.273;MIDI 01
305.571;000.089;81;000.477;MIDI 01
305.637;000.024;60;000.398;MIDI 01
305.617;000.047;77;000.500;MIDI 01
305.735;000.035;65;000.367;MIDI 01
305.707;000.083;72;000.484;MIDI 01
305.805;000.059;77;000.461;MIDI 01
305.797;000.086;60;000.445;MIDI 01
305.910;000.032;57;000.398;MIDI 01
305.872;000.074;81;000.523;MIDI 01
305.978;000.096;53;000.375;MIDI 01
305.980;000.098;84;000.516;MIDI 01
306.060;000.046;57;000.477;MIDI 01
306.080;000.035;81;000.508;MIDI 01
306.133;000.055;60;000.422;MIDI 01
306.150;000.080;77;000.508;MIDI 01
306.244;000.045;53;000.414;MIDI 01
306.240;000.070;86;000.484;MIDI 01
306.300;000.068;58;000.469;MIDI 01
306.304;000.099;82;000.516;MIDI 01
306.403;000.047;62;000.359;MIDI 01
306.405;000.076;77;000.414;MIDI 01
306.479;000.081;53;000.320;MIDI 01
306.488;000.107;84;000.570;MIDI 01
306.593;000.055;57;000.367;MIDI 01
306.646;000.043;60;000.445;MIDI 01
306.589;000.102;81;000.484;MIDI 01
306.657;000.066;77;000.547;MIDI 01
306.715;000.064;65;000.492;MIDI 01
306.739;000.100;72;000.500;MIDI 01
306.815;000.091;60;000.453;MIDI 01
306.845;000.071;77;000.484;MIDI 01
306.932;000.034;57;000.391;MIDI 01
306.918;000.070;81;000.508;MIDI 01
306.996;000.100;53;000.500;MIDI 01
307.019;000.089;84;000.547;MIDI 01
307.092;000.054;57;000.469;MIDI 01
307.106;000.057;81;000.508;MIDI 01
307.172;000.053;60;000.453;MIDI 01
307.194;000.045;77;000.367;MIDI 01
307.269;000.043;53;000.367;MIDI 01
307.325;000.043;55;000.352;MIDI 01
307.267;000.111;82;000.500;MIDI 01
307.370;000.044;79;000.445;MIDI 01
307.393;000.054;58;000.383;MIDI 01
307.448;000.026;76;000.539;MIDI 01
307.476;000.084;53;000.445;MIDI 01
307.534;000.086;81;000.469;MIDI 01
307.595;000.040;57;000.406;MIDI 01
307.600;000.090;77;000.523;MIDI 01
307.642;000.066;60;000.375;MIDI 01
307.716;000.046;72;000.367;MIDI 01
307.738;000.075;53;000.422;MIDI 01
307.781;000.079;81;000.492;MIDI 01
307.810;000.073;57;000.414;MIDI 01
307.844;000.095;77;000.555;MIDI 01
307.911;000.045;60;000.336;MIDI 01
307.924;000.040;72;000.461;MIDI 01
307.984;000.086;53;000.492;MIDI 01
308.014;000.100;81;000.570;MIDI 01
308.092;000.068;57;000.453;MIDI 01
308.154;000.046;60;000.383;MIDI 01
308.113;000.098;77;000.500;MIDI 01
308.201;000.050;72;000.484;MIDI 01
308.253;000.056;65;000.430;MIDI 01
308.294;000.066;69;000.445;MIDI 01
308.373;000.081;72;000.445;MIDI 01
308.343;000.115;60;000.461;MIDI 01
308.448;000.080;77;000.492;MIDI 01
308.486;000.051;57;000.219;MIDI 01
308.518;000.096;53;000.500;MIDI 01
308.540;000.134;81;000.570;MIDI 01
308.646;000.044;57;000.430;MIDI 01
308.653;000.097;77;000.492;MIDI 01
308.715;000.041;60;000.406;MIDI 01
308.696;000.061;72;000.445;MIDI 01
308.796;000.048;65;000.461;MIDI 01
308.805;000.082;69;000.492;MIDI 01
308.881;000.065;60;000.453;MIDI 01
308.883;000.083;72;000.461;MIDI 01
308.980;000.031;57;000.375;MIDI 01
308.972;000.064;77;000.477;MIDI 01
309.044;000.089;53;000.445;MIDI 01
309.046;000.125;81;000.484;MIDI 01
309.128;000.059;57;000.469;MIDI 01
309.132;000.064;77;000.531;MIDI 01
309.212;000.045;60;000.359;MIDI 01
309.200;000.065;72;000.422;MIDI 01
309.289;000.079;53;000.523;MIDI 01
309.314;000.076;82;000.539;MIDI 01
309.359;000.065;58;000.492;MIDI 01
309.396;000.072;77;000.438;MIDI 01
309.467;000.031;62;000.438;MIDI 01
309.482;000.032;74;000.547;MIDI 01
309.551;000.076;53;000.484;MIDI 01
309.564;000.126;81;000.523;MIDI 01
309.639;000.089;57;000.477;MIDI 01
309.653;000.109;77;000.539;MIDI 01
309.725;000.047;60;000.438;MIDI 01
309.733;000.056;72;000.492;MIDI 01
309.806;000.059;65;000.492;MIDI 01
309.848;000.054;69;000.406;MIDI 01
309.908;000.066;60;000.469;MIDI 01
309.910;000.068;72;000.523;MIDI 01
309.993;000.053;57;000.406;MIDI 01
310.006;000.045;77;000.477;MIDI 01
310.073;000.099;53;000.438;MIDI 01
310.067;000.125;81;000.523;MIDI 01
310.166;000.054;57;000.500;MIDI 01
310.164;000.093;77;000.523;MIDI 01
310.255;000.055;60;000.375;MIDI 01
310.266;000.055;72;000.516;MIDI 01
310.332;000.083;53;000.523;MIDI 01
310.342;000.091;79;000.523;MIDI 01
310.434;000.039;55;000.375;MIDI 01
310.416;000.079;76;000.539;MIDI 01
310.456;000.080;58;000.461;MIDI 01
310.493;000.052;70;000.523;MIDI 01
310.575;000.074;53;000.461;MIDI 01
310.602;000.087;77;000.492;MIDI 01
310.692;000.048;57;000.383;MIDI 01
310.697;000.090;72;000.477;MIDI 01
310.758;000.059;60;000.328;MIDI 01
310.775;000.071;69;000.414;MIDI 01
310.855;000.096;53;000.398;MIDI 01
310.923;000.044;57;000.266;MIDI 01
310.852;000.119;77;000.477;MIDI 01
310.977;000.066;72;000.344;MIDI 01
311.029;000.033;60;000.297;MIDI 01
311.034;000.033;69;000.359;MIDI 01
311.136;000.066;48;000.461;MIDI 01
311.122;000.105;79;000.500;MIDI 01
311.252;000.040;52;000.281;MIDI 01
311.239;000.061;76;000.391;MIDI 01
311.298;000.040;55;000.367;MIDI 01
311.300;000.050;72;000.469;MIDI 01
311.403;000.043;60;000.219;MIDI 01
311.423;000.065;67;000.328;MIDI 01
311.473;000.082;55;000.391;MIDI 01
311.493;000.079;72;000.344;MIDI 01
311.578;000.066;76;000.461;MIDI 01
311.630;000.057;52;000.102;MIDI 01
311.675;000.090;48;000.453;MIDI 01
311.669;000.114;79;000.531;MIDI 01
311.817;000.040;52;000.289;MIDI 01
311.784;000.078;76;000.469;MIDI 01
311.850;000.046;72;000.422;MIDI 01
311.872;000.039;55;000.375;MIDI 01
311.964;000.045;60;000.344;MIDI 01
311.952;000.067;67;000.398;MIDI 01
312.036;000.067;55;000.422;MIDI 01
312.019;000.115;72;000.477;MIDI 01
312.149;000.043;52;000.359;MIDI 01
312.156;000.049;76;000.352;MIDI 01
312.233;000.089;48;000.445;MIDI 01
312.321;000.036;76;000.500;MIDI 01
312.229;000.134;79;000.469;MIDI 01
312.336;000.038;52;000.391;MIDI 01
312.398;000.033;55;000.422;MIDI 01
312.486;000.047;48;000.438;MIDI 01
312.548;000.064;52;000.352;MIDI 01
312.504;000.109;80;000.500;MIDI 01
312.586;000.062;76;000.500;MIDI 01
312.647;000.032;56;000.352;MIDI 01
312.671;000.053;72;000.484;MIDI 01
312.729;000.104;48;000.422;MIDI 01
312.746;000.139;81;000.594;MIDI 01
312.824;000.108;53;000.438;MIDI 01
312.861;000.100;77;000.539;MIDI 01
312.939;000.027;57;000.406;MIDI 01
312.941;000.060;72;000.508;MIDI 01
313.008;000.062;60;000.508;MIDI 01
313.030;000.095;69;000.492;MIDI 01
313.086;000.070;57;000.438;MIDI 01
313.108;000.084;72;000.484;MIDI 01
313.193;000.048;53;000.367;MIDI 01
313.211;000.038;77;000.484;MIDI 01
313.279;000.090;48;000.484;MIDI 01
313.281;000.139;81;000.484;MIDI 01
313.423;000.034;53;000.273;MIDI 01
313.428;000.059;52;000.055;MIDI 01
313.472;000.048;57;000.391;MIDI 01
313.474;000.056;72;000.367;MIDI 01
313.376;000.168;77;000.438;MIDI 01
313.546;000.065;48;000.453;MIDI 01
313.550;000.114;80;000.508;MIDI 01
313.623;000.075;52;000.445;MIDI 01
313.643;000.096;76;000.453;MIDI 01
313.739;000.043;56;000.312;MIDI 01
313.721;000.071;72;000.477;MIDI 01
313.817;000.092;48;000.500;MIDI 01
313.804;000.140;81;000.570;MIDI 01
313.904;000.116;53;000.414;MIDI 01
313.975;000.051;57;000.445;MIDI 01
313.966;000.106;72;000.445;MIDI 01
313.881;000.194;77;000.477;MIDI 01
314.081;000.059;48;000.445;MIDI 01
314.066;000.153;80;000.570;MIDI 01
314.152;000.082;52;000.453;MIDI 01
314.168;000.084;76;000.531;MIDI 01
314.221;000.033;56;000.422;MIDI 01
314.244;000.065;72;000.516;MIDI 01
314.315;000.084;48;000.516;MIDI 01
314.356;000.135;81;000.594;MIDI 01
314.421;000.094;53;000.414;MIDI 01
314.455;000.099;77;000.516;MIDI 01
314.521;000.040;57;000.438;MIDI 01
314.525;000.069;72;000.461;MIDI 01
314.593;000.068;60;000.445;MIDI 01
314.630;000.097;69;000.438;MIDI 01
314.675;000.129;57;000.492;MIDI 01
314.710;000.118;72;000.484;MIDI 01
314.804;000.062;53;000.477;MIDI 01
314.795;000.090;77;000.523;MIDI 01
314.882;000.096;48;000.578;MIDI 01
314.887;000.148;81;000.633;MIDI 01
315.009;000.064;53;000.438;MIDI 01
315.057;000.041;57;000.391;MIDI 01
314.992;000.110;77;000.523;MIDI 01
315.059;000.060;72;000.453;MIDI 01
315.151;000.062;60;000.492;MIDI 01
315.155;000.083;69;000.492;MIDI 01
315.241;000.060;57;000.383;MIDI 01
315.240;000.078;72;000.508;MIDI 01
315.325;000.054;53;000.375;MIDI 01
315.336;000.055;77;000.477;MIDI 01
315.405;000.103;48;000.484;MIDI 01
315.422;000.098;81;000.477;MIDI 01
315.506;000.083;53;000.523;MIDI 01
315.556;000.038;76;000.391;MIDI 01
315.529;000.081;77;000.359;MIDI 01
315.633;000.041;57;000.367;MIDI 01
315.617;000.076;72;000.406;MIDI 01
315.676;000.098;48;000.461;MIDI 01
315.674;000.102;81;000.570;MIDI 01
315.760;000.091;54;000.492;MIDI 01
315.764;000.125;78;000.578;MIDI 01
315.865;000.038;57;000.375;MIDI 01
315.857;000.104;72;000.492;MIDI 01
315.941;000.109;48;000.547;MIDI 01
315.957;000.135;82;000.602;MIDI 01
316.053;000.094;55;000.523;MIDI 01
316.051;000.132;79;000.531;MIDI 01
316.134;000.066;58;000.516;MIDI 01
316.120;000.091;76;000.562;MIDI 01
316.207;000.124;60;000.555;MIDI 01
316.218;000.166;72;000.539;MIDI 01
316.319;000.068;58;000.469;MIDI 01
316.390;000.073;55;000.500;MIDI 01
316.383;000.115;79;000.516;MIDI 01
316.480;000.116;48;000.555;MIDI 01
316.317;000.282;76;000.492;MIDI 01
316.504;000.108;82;000.570;MIDI 01
316.598;000.076;79;000.484;MIDI 01
316.596;000.109;55;000.578;MIDI 01
316.733;000.033;58;000.375;MIDI 01
316.693;000.107;72;000.492;MIDI 01
316.784;000.105;81;000.602;MIDI 01
316.782;000.113;48;000.570;MIDI 01
316.879;000.094;54;000.477;MIDI 01
316.850;000.143;78;000.578;MIDI 01
316.967;000.078;57;000.469;MIDI 01
316.949;000.102;72;000.562;MIDI 01
317.052;000.094;48;000.594;MIDI 01
317.046;000.126;82;000.617;MIDI 01
317.126;000.117;79;000.594;MIDI 01
317.121;000.144;55;000.539;MIDI 01
317.220;000.055;58;000.547;MIDI 01
317.254;000.149;72;000.586;MIDI 01
317.328;000.096;48;000.523;MIDI 01
317.377;000.098;52;000.539;MIDI 01
317.369;000.130;79;000.641;MIDI 01
317.470;000.107;76;000.586;MIDI 01
317.505;000.074;55;000.555;MIDI 01
317.557;000.100;72;000.602;MIDI 01
317.711;000.036;55;000.352;MIDI 01
317.667;000.098;53;000.469;MIDI 01
317.699;000.131;81;000.711;MIDI 01
317.790;000.098;57;000.578;MIDI 01
317.810;000.127;77;000.586;MIDI 01
317.929;000.076;60;000.531;MIDI 01
317.913;000.124;72;000.586;MIDI 01
318.012;000.101;84;000.648;MIDI 01
318.035;000.103;48;000.578;MIDI 01
318.122;000.074;77;000.586;MIDI 01
318.124;000.104;53;000.500;MIDI 01
318.198;000.061;72;000.555;MIDI 01
318.238;000.041;57;000.492;MIDI 01
318.327;000.100;45;000.578;MIDI 01
318.337;000.100;77;000.594;MIDI 01
318.430;000.064;48;000.484;MIDI 01
318.429;000.106;72;000.539;MIDI 01
318.494;000.080;53;000.445;MIDI 01
318.527;000.078;69;000.492;MIDI 01
318.595;000.084;45;000.492;MIDI 01
318.645;000.079;48;000.484;MIDI 01
318.627;000.107;78;000.523;MIDI 01
318.706;000.099;72;000.422;MIDI 01
318.769;000.039;54;000.492;MIDI 01
318.795;000.039;69;000.500;MIDI 01
318.884;000.084;48;000.562;MIDI 01
318.891;000.098;79;000.609;MIDI 01
318.942;000.089;52;000.453;MIDI 01
318.964;000.104;76;000.570;MIDI 01
319.032;000.082;55;000.508;MIDI 01
319.069;000.130;72;000.555;MIDI 01
319.125;000.108;48;000.547;MIDI 01
319.194;000.086;52;000.523;MIDI 01
319.153;000.131;80;000.586;MIDI 01
319.235;000.116;76;000.586;MIDI 01
319.291;000.064;56;000.586;MIDI 01
319.345;000.079;72;000.609;MIDI 01
319.428;000.140;53;000.492;MIDI 01
319.432;000.174;81;000.703;MIDI 01
319.556;000.106;77;000.617;MIDI 01
319.570;000.096;57;000.555;MIDI 01
319.683;000.067;60;000.500;MIDI 01
319.658;000.125;72;000.562;MIDI 01
319.752;000.107;84;000.656;MIDI 01
319.789;000.096;48;000.594;MIDI 01
319.861;000.070;77;000.547;MIDI 01
319.867;000.096;53;000.484;MIDI 01
319.955;000.053;72;000.562;MIDI 01
319.990;000.029;57;000.359;MIDI 01
320.075;000.092;77;000.617;MIDI 01
320.079;000.099;45;000.469;MIDI 01
320.195;000.048;48;000.375;MIDI 01
320.158;000.124;72;000.586;MIDI 01
320.220;000.086;53;000.422;MIDI 01
320.260;000.084;69;000.500;MIDI 01
320.337;000.094;45;000.539;MIDI 01
320.391;000.062;48;000.438;MIDI 01
320.359;000.108;78;000.555;MIDI 01
320.499;000.029;54;000.516;MIDI 01
320.464;000.070;72;000.445;MIDI 01
320.525;000.052;69;000.500;MIDI 01
320.623;000.098;48;000.523;MIDI 01
320.627;000.102;79;000.562;MIDI 01
320.679;000.071;52;000.398;MIDI 01
320.707;000.087;76;000.539;MIDI 01
320.767;000.060;55;000.492;MIDI 01
320.801;000.111;72;000.523;MIDI 01
320.868;000.062;48;000.523;MIDI 01
320.915;000.079;52;000.531;MIDI 01
320.899;000.116;80;000.570;MIDI 01
321.017;000.033;56;000.547;MIDI 01
321.007;000.057;76;000.469;MIDI 01
321.071;000.078;72;000.547;MIDI 01
321.155;000.080;53;000.414;MIDI 01
321.161;000.118;81;000.602;MIDI 01
321.240;000.044;57;000.469;MIDI 01
321.224;000.089;77;000.516;MIDI 01
321.290;000.031;60;000.539;MIDI 01
321.339;000.033;72;000.555;MIDI 01
321.407;000.088;45;000.555;MIDI 01
321.445;000.053;49;000.539;MIDI 01
321.451;000.074;77;000.617;MIDI 01
321.506;000.025;72;000.375;MIDI 01
321.521;000.047;74;000.297;MIDI 01
321.594;000.034;69;000.531;MIDI 01
321.559;000.072;53;000.461;MIDI 01
321.660;000.093;46;000.477;MIDI 01
321.717;000.042;72;000.289;MIDI 01
321.672;000.128;74;000.539;MIDI 01
321.741;000.094;50;000.508;MIDI 01
321.781;000.080;70;000.570;MIDI 01
321.833;000.049;55;000.555;MIDI 01
321.885;000.052;67;000.469;MIDI 01
321.930;000.121;43;000.531;MIDI 01
321.956;000.126;70;000.586;MIDI 01
322.039;000.065;67;000.539;MIDI 01
322.124;000.039;50;000.516;MIDI 01
322.129;000.041;62;000.547;MIDI 01
322.245;000.049;48;000.555;MIDI 01
322.246;000.080;67;000.453;MIDI 01
322.257;000.092;65;000.508;MIDI 01
322.307;000.060;52;000.445;MIDI 01
322.374;000.031;53;000.555;MIDI 01
322.306;000.101;63;000.578;MIDI 01
322.516;000.061;64;000.508;MIDI 01
322.495;000.090;36;000.594;MIDI 01
322.579;000.061;43;000.508;MIDI 01
322.657;000.038;59;000.242;MIDI 01
322.667;000.068;48;000.492;MIDI 01
322.690;000.045;58;000.023;MIDI 01
322.677;000.059;55;000.086;MIDI 01
322.746;000.110;69;000.586;MIDI 01
322.775;000.093;41;000.539;MIDI 01
322.841;000.070;65;000.602;MIDI 01
322.874;000.055;45;000.547;MIDI 01
322.931;000.045;60;000.445;MIDI 01
322.945;000.036;48;000.523;MIDI 01
323.029;000.098;72;000.602;MIDI 01
323.033;000.105;35;000.508;MIDI 01
323.050;000.128;36;000.516;MIDI 01
323.159;000.027;41;000.461;MIDI 01
323.128;000.060;65;000.562;MIDI 01
323.156;000.055;40;000.422;MIDI 01
323.233;000.022;60;000.484;MIDI 01
323.324;000.073;31;000.461;MIDI 01
323.329;000.074;33;000.453;MIDI 01
323.334;000.074;65;000.594;MIDI 01
323.451;000.049;35;000.227;MIDI 01
323.414;000.121;60;000.422;MIDI 01
323.536;000.047;57;000.352;MIDI 01
323.566;000.111;33;000.531;MIDI 01
323.598;000.122;66;000.523;MIDI 01
323.642;000.081;36;000.477;MIDI 01
323.703;000.083;60;000.453;MIDI 01
323.745;000.049;42;000.516;MIDI 01
323.793;000.040;57;000.344;MIDI 01
323.876;000.100;36;000.539;MIDI 01
323.883;000.106;67;000.594;MIDI 01
323.933;000.107;40;000.500;MIDI 01
323.968;000.086;64;000.531;MIDI 01
324.043;000.066;43;000.547;MIDI 01
324.052;000.116;60;000.523;MIDI 01
324.139;000.113;36;000.562;MIDI 01
324.156;000.116;68;000.578;MIDI 01
324.196;000.081;40;000.562;MIDI 01
324.291;000.044;44;000.586;MIDI 01
324.246;000.093;64;000.523;MIDI 01
324.330;000.096;60;000.547;MIDI 01
324.417;000.114;41;000.500;MIDI 01
324.428;000.121;69;000.602;MIDI 01
324.508;000.098;65;000.562;MIDI 01
324.529;000.083;45;000.562;MIDI 01
324.622;000.064;48;000.523;MIDI 01
324.614;000.079;60;000.484;MIDI 01
324.710;000.093;72;000.602;MIDI 01
324.708;000.118;36;000.547;MIDI 01
324.793;000.094;65;000.531;MIDI 01
324.825;000.082;41;000.516;MIDI 01
324.900;000.036;60;000.516;MIDI 01
324.909;000.036;45;000.492;MIDI 01
325.016;000.080;65;000.516;MIDI 01
325.001;000.121;33;000.586;MIDI 01
325.122;000.075;36;000.477;MIDI 01
325.168;000.048;41;000.445;MIDI 01
325.102;000.116;60;000.453;MIDI 01
325.203;000.064;57;000.445;MIDI 01
325.274;000.078;33;000.555;MIDI 01
325.337;000.060;36;000.469;MIDI 01
325.276;000.133;66;000.523;MIDI 01
325.410;000.047;42;000.531;MIDI 01
325.392;000.088;60;000.453;MIDI 01
325.452;000.043;57;000.461;MIDI 01
325.530;000.096;36;000.492;MIDI 01
325.554;000.097;67;000.586;MIDI 01
325.592;000.092;40;000.445;MIDI 01
325.648;000.081;64;000.469;MIDI 01
325.683;000.062;43;000.516;MIDI 01
325.708;000.106;60;000.531;MIDI 01
325.780;000.083;36;000.547;MIDI 01
325.849;000.057;40;000.508;MIDI 01
325.812;000.108;68;000.555;MIDI 01
325.928;000.036;44;000.555;MIDI 01
325.927;000.071;64;000.445;MIDI 01
326.004;000.078;60;000.438;MIDI 01
326.058;000.142;41;000.484;MIDI 01
326.109;000.130;69;000.531;MIDI 01
326.201;000.051;45;000.344;MIDI 01
326.230;000.094;65;000.352;MIDI 01
326.279;000.048;48;000.484;MIDI 01
326.289;000.047;64;000.180;MIDI 01
326.320;000.059;60;000.453;MIDI 01
326.380;000.107;39;000.477;MIDI 01
326.401;000.091;69;000.516;MIDI 01
326.454;000.082;65;000.555;MIDI 01
326.502;000.065;48;000.508;MIDI 01
326.547;000.061;60;000.516;MIDI 01
326.636;000.113;38;000.562;MIDI 01
326.654;000.110;70;000.555;MIDI 01
326.757;000.051;41;000.445;MIDI 01
326.765;000.095;65;000.508;MIDI 01
326.828;000.046;62;000.492;MIDI 01
326.792;000.104;46;000.516;MIDI 01
326.903;000.099;37;000.531;MIDI 01
326.917;000.124;71;000.602;MIDI 01
326.944;000.107;41;000.461;MIDI 01
327.008;000.099;65;000.547;MIDI 01
327.052;000.057;47;000.516;MIDI 01
327.080;000.034;61;000.594;MIDI 01
327.197;000.050;36;000.422;MIDI 01
327.166;000.111;39;000.539;MIDI 01
327.201;000.085;72;000.547;MIDI 01
327.316;000.034;48;000.508;MIDI 01
327.273;000.081;64;000.547;MIDI 01
327.352;000.030;60;000.500;MIDI 01
327.459;000.067;73;000.578;MIDI 01
327.434;000.121;45;000.617;MIDI 01
327.572;000.074;52;000.359;MIDI 01
327.551;000.105;67;000.555;MIDI 01
327.645;000.034;57;000.430;MIDI 01
327.623;000.064;53;000.062;MIDI 01
327.647;000.048;55;000.414;MIDI 01
327.642;000.058;64;000.484;MIDI 01
327.728;000.121;74;000.641;MIDI 01
327.726;000.132;46;000.617;MIDI 01
327.810;000.057;65;000.477;MIDI 01
327.882;000.046;62;000.539;MIDI 01
327.875;000.062;53;000.523;MIDI 01
328.023;000.052;45;000.484;MIDI 01
328.017;000.064;43;000.461;MIDI 01
327.999;000.116;76;000.664;MIDI 01
328.025;000.098;46;000.469;MIDI 01
328.142;000.049;52;000.562;MIDI 01
328.083;000.113;70;000.547;MIDI 01
328.180;000.039;67;000.500;MIDI 01
328.254;000.102;45;000.516;MIDI 01
328.297;000.103;48;000.461;MIDI 01
328.261;000.184;77;000.609;MIDI 01
328.357;000.116;72;000.547;MIDI 01
328.439;000.042;65;000.531;MIDI 01
328.385;000.117;53;000.562;MIDI 01
328.541;000.093;48;000.523;MIDI 01
328.502;000.151;45;000.609;MIDI 01
328.543;000.113;78;000.633;MIDI 01
328.634;000.080;51;000.562;MIDI 01
328.635;000.092;72;000.594;MIDI 01
328.730;000.047;69;000.539;MIDI 01
328.761;000.117;46;000.602;MIDI 01
328.801;000.149;79;000.664;MIDI 01
328.867;000.125;50;000.586;MIDI 01
328.916;000.185;74;000.562;MIDI 01
329.000;000.124;55;000.570;MIDI 01
329.017;000.131;70;000.578;MIDI 01
329.130;000.039;74;000.266;MIDI 01
329.116;000.141;47;000.633;MIDI 01
329.118;000.219;80;000.672;MIDI 01
329.249;000.153;50;000.578;MIDI 01
329.243;000.197;77;000.656;MIDI 01
329.400;000.073;53;000.555;MIDI 01
329.402;000.111;74;000.648;MIDI 01
329.754;000.675;81;000.688;MIDI 01
329.770;000.706;72;000.586;MIDI 01
329.765;000.736;77;000.539;MIDI 01
331.283;000.300;60;000.484;MIDI 01
331.695;000.132;65;000.570;MIDI 01
331.959;000.075;69;000.586;MIDI 01
332.205;000.158;72;000.586;MIDI 01
332.418;000.277;77;000.625;MIDI 01
332.646;000.277;81;000.672;MIDI 01
332.895;000.166;84;000.656;MIDI 01
329.750;004.215;36;000.484;MIDI 01
329.773;004.226;48;000.523;MIDI 01
333.386;001.800;89;000.648;MIDI 01
335.081;000.442;84;000.445;MIDI 01
335.397;000.224;81;000.477;MIDI 01
335.602;000.194;77;000.469;MIDI 01
335.765;000.132;84;000.453;MIDI 01
335.891;000.046;81;000.445;MIDI 01
335.989;000.041;77;000.484;MIDI 01
336.127;000.132;72;000.484;MIDI 01
336.238;000.131;81;000.500;MIDI 01
336.347;000.133;77;000.539;MIDI 01
336.468;000.091;72;000.469;MIDI 01
336.558;000.114;69;000.484;MIDI 01
336.651;000.111;77;000.516;MIDI 01
336.736;000.067;72;000.500;MIDI 01
336.837;000.041;69;000.531;MIDI 01
336.943;000.098;65;000.508;MIDI 01
337.030;000.183;72;000.484;MIDI 01
337.114;000.119;69;000.562;MIDI 01
337.219;000.090;65;000.547;MIDI 01
337.310;000.098;60;000.453;MIDI 01
337.383;000.116;69;000.555;MIDI 01
337.467;000.053;65;000.516;MIDI 01
337.556;000.044;60;000.531;MIDI 01
337.649;000.096;57;000.547;MIDI 01
337.742;000.106;65;000.547;MIDI 01
337.827;000.123;60;000.586;MIDI 01
337.917;000.089;57;000.586;MIDI 01
338.014;000.079;53;000.539;MIDI 01
338.082;000.115;60;000.508;MIDI 01
338.154;000.057;57;000.547;MIDI 01
338.235;000.033;53;000.578;MIDI 01
338.353;000.118;48;000.531;MIDI 01
338.422;000.165;57;000.531;MIDI 01
338.538;000.141;53;000.555;MIDI 01
338.641;000.160;48;000.578;MIDI 01
338.764;000.154;45;000.547;MIDI 01
338.894;000.154;53;000.547;MIDI 01
339.017;000.108;48;000.570;MIDI 01
339.158;000.169;45;000.547;MIDI 01
339.329;000.256;41;000.562;MIDI 01
339.530;000.289;48;000.562;MIDI 01
339.771;000.282;45;000.562;MIDI 01
340.048;000.580;41;000.547;MIDI 01
340.570;002.085;36;000.484;MIDI 01
342.655;000.176;38;000.508;MIDI 01
343.129;000.149;40;000.508;MIDI 01
343.488;000.144;41;000.477;MIDI 01
343.790;000.128;43;000.477;MIDI 01
344.018;000.132;45;000.469;MIDI 01
344.265;000.115;46;000.453;MIDI 01
344.522;000.117;48;000.344;MIDI 01
344.740;000.142;41;000.328;MIDI 01
344.940;000.114;43;000.328;MIDI 01
345.083;000.190;45;000.375;MIDI 01
345.243;000.130;46;000.477;MIDI 01
345.403;000.136;48;000.461;MIDI 01
345.549;000.120;50;000.438;MIDI 01
345.672;000.151;52;000.484;MIDI 01
345.821;000.120;53;000.438;MIDI 01
345.946;000.121;48;000.484;MIDI 01
346.073;000.115;50;000.422;MIDI 01
346.188;000.059;52;000.531;MIDI 01
346.301;000.107;53;000.547;MIDI 01
346.401;000.131;55;000.523;MIDI 01
346.474;000.170;57;000.547;MIDI 01
346.565;000.131;58;000.539;MIDI 01
346.672;000.188;60;000.531;MIDI 01
346.771;000.114;53;000.461;MIDI 01
346.857;000.122;55;000.523;MIDI 01
346.953;000.073;57;000.492;MIDI 01
347.028;000.035;58;000.523;MIDI 01
347.116;000.094;60;000.531;MIDI 01
347.198;000.139;62;000.523;MIDI 01
347.274;000.117;64;000.531;MIDI 01
347.372;000.096;65;000.461;MIDI 01
347.427;000.090;60;000.500;MIDI 01
347.523;000.081;62;000.508;MIDI 01
347.596;000.038;64;000.570;MIDI 01
347.699;000.126;65;000.555;MIDI 01
347.774;000.091;67;000.562;MIDI 01
347.810;000.108;69;000.625;MIDI 01
347.909;000.101;70;000.578;MIDI 01
347.965;000.169;72;000.547;MIDI 01
348.058;000.097;65;000.516;MIDI 01
348.136;000.104;67;000.523;MIDI 01
348.206;000.059;69;000.539;MIDI 01
348.270;000.021;70;000.555;MIDI 01
348.348;000.069;72;000.578;MIDI 01
348.425;000.101;74;000.539;MIDI 01
348.474;000.110;76;000.625;MIDI 01
348.549;000.121;77;000.547;MIDI 01
348.628;000.086;72;000.578;MIDI 01
348.721;000.088;74;000.539;MIDI 01
348.804;000.041;76;000.594;MIDI 01
348.895;000.085;77;000.602;MIDI 01
348.989;000.133;79;000.570;MIDI 01
349.050;000.142;81;000.609;MIDI 01
349.139;000.152;82;000.594;MIDI 01
349.244;000.296;84;000.633;MIDI 01
349.410;000.142;77;000.562;MIDI 01
349.507;000.146;79;000.609;MIDI 01
349.626;000.075;81;000.609;MIDI 01
349.703;000.048;82;000.617;MIDI 01
349.791;000.078;84;000.625;MIDI 01
349.870;000.126;86;000.664;MIDI 01
349.950;000.173;88;000.695;MIDI 01
350.071;001.479;89;000.742;MIDI 01
351.478;000.099;86;000.594;MIDI 01
351.876;000.095;83;000.555;MIDI 01
352.100;000.097;86;000.492;MIDI 01
352.239;000.073;83;000.492;MIDI 01
352.359;000.093;80;000.500;MIDI 01
352.479;000.110;83;000.516;MIDI 01
352.596;000.068;80;000.531;MIDI 01
352.694;000.051;77;000.508;MIDI 01
352.817;000.042;80;000.492;MIDI 01
352.898;000.056;77;000.516;MIDI 01
353.010;000.056;74;000.461;MIDI 01
353.104;000.121;77;000.508;MIDI 01
353.195;000.078;74;000.539;MIDI 01
353.290;000.065;71;000.461;MIDI 01
353.386;000.045;74;000.500;MIDI 01
353.495;000.061;71;000.516;MIDI 01
353.582;000.076;68;000.508;MIDI 01
353.672;000.119;71;000.500;MIDI 01
353.767;000.081;68;000.508;MIDI 01
353.868;000.050;65;000.477;MIDI 01
350.107;003.919;50;000.414;MIDI 01
353.976;000.053;68;000.492;MIDI 01
350.086;003.961;56;000.516;MIDI 01
350.090;003.977;53;000.453;MIDI 01
350.091;004.021;47;000.445;MIDI 01
354.055;000.059;65;000.508;MIDI 01
354.172;000.048;62;000.438;MIDI 01
354.254;000.132;65;000.492;MIDI 01
354.346;000.091;62;000.508;MIDI 01
354.458;000.069;59;000.492;MIDI 01
354.582;000.045;62;000.469;MIDI 01
354.676;000.081;59;000.500;MIDI 01
354.799;000.051;56;000.430;MIDI 01
354.857;000.139;59;000.375;MIDI 01
354.990;000.081;56;000.430;MIDI 01
355.114;000.170;53;000.453;MIDI 01
355.270;000.137;56;000.445;MIDI 01
355.404;000.045;53;000.406;MIDI 01
355.525;000.155;50;000.477;MIDI 01
355.675;000.137;53;000.469;MIDI 01
355.839;000.082;50;000.352;MIDI 01
355.982;000.218;47;000.508;MIDI 01
356.200;000.292;50;000.469;MIDI 01
356.416;000.167;47;000.367;MIDI 01
356.783;000.554;46;000.352;MIDI 01
357.071;000.309;49;000.320;MIDI 01
357.249;000.164;52;000.234;MIDI 01
357.401;000.110;55;000.359;MIDI 01
357.530;000.073;58;000.391;MIDI 01
357.634;000.083;61;000.453;MIDI 01
357.756;000.332;55;000.438;MIDI 01
357.910;000.219;58;000.469;MIDI 01
358.029;000.127;61;000.453;MIDI 01
358.163;000.167;64;000.453;MIDI 01
358.277;000.122;67;000.477;MIDI 01
358.380;000.088;70;000.547;MIDI 01
358.506;000.409;64;000.477;MIDI 01
358.663;000.277;67;000.469;MIDI 01
358.781;000.228;70;000.422;MIDI 01
358.942;000.124;73;000.375;MIDI 01
359.094;000.137;76;000.414;MIDI 01
359.252;000.097;79;000.406;MIDI 01
359.429;001.519;70;000.406;MIDI 01
360.044;000.905;79;000.336;MIDI 01
359.802;001.171;76;000.352;MIDI 01
360.317;000.689;82;000.367;MIDI 01
359.628;001.490;73;000.375;MIDI 01
360.794;000.330;85;000.438;MIDI 01
361.681;000.285;84;000.445;MIDI 01
361.642;000.390;69;000.336;MIDI 01
361.989;000.098;77;000.328;MIDI 01
362.164;000.188;89;000.375;MIDI 01
362.306;000.101;77;000.367;MIDI 01
362.416;000.199;88;000.414;MIDI 01
362.572;000.055;77;000.305;MIDI 01
362.665;000.099;87;000.406;MIDI 01
362.791;000.110;77;000.398;MIDI 01
362.671;000.326;57;000.211;MIDI 01
362.919;000.155;86;000.438;MIDI 01
363.056;000.052;77;000.469;MIDI 01
362.917;000.207;58;000.359;MIDI 01
363.168;000.176;89;000.445;MIDI 01
363.269;000.100;77;000.453;MIDI 01
363.529;000.064;77;000.414;MIDI 01
363.386;000.314;88;000.445;MIDI 01
363.623;000.091;87;000.461;MIDI 01
363.720;000.105;77;000.484;MIDI 01
363.606;000.292;57;000.336;MIDI 01
363.830;000.154;86;000.555;MIDI 01
363.941;000.079;77;000.555;MIDI 01
363.808;000.216;58;000.398;MIDI 01
364.055;000.135;89;000.531;MIDI 01
364.154;000.093;77;000.508;MIDI 01
364.389;000.053;77;000.453;MIDI 01
364.449;000.053;45;000.438;MIDI 01
364.471;000.033;57;000.383;MIDI 01
364.259;000.280;88;000.523;MIDI 01
364.488;000.087;87;000.516;MIDI 01
364.589;000.097;77;000.531;MIDI 01
364.669;000.054;46;000.477;MIDI 01
364.672;000.056;58;000.445;MIDI 01
364.700;000.113;86;000.586;MIDI 01
364.800;000.102;77;000.578;MIDI 01
364.869;000.052;45;000.531;MIDI 01
364.877;000.049;57;000.508;MIDI 01
364.896;000.145;87;000.633;MIDI 01
365.008;000.118;77;000.594;MIDI 01
365.084;000.057;46;000.516;MIDI 01
365.074;000.081;58;000.578;MIDI 01
365.226;000.117;77;000.586;MIDI 01
365.300;000.091;45;000.570;MIDI 01
365.107;000.286;86;000.633;MIDI 01
365.314;000.089;57;000.523;MIDI 01
365.335;000.246;87;000.641;MIDI 01
365.452;000.259;77;000.578;MIDI 01
365.644;000.193;86;000.695;MIDI 01
365.997;000.067;88;000.539;MIDI 01
366.046;000.050;86;000.547;MIDI 01
366.105;000.121;85;000.633;MIDI 01
365.665;000.688;58;000.516;MIDI 01
366.214;000.149;86;000.641;MIDI 01
365.661;000.732;46;000.500;MIDI 01
366.350;000.178;89;000.680;MIDI 01
366.552;000.196;79;000.641;MIDI 01
366.866;000.082;81;000.500;MIDI 01
366.934;000.065;79;000.555;MIDI 01
367.014;000.086;78;000.562;MIDI 01
367.102;000.149;79;000.602;MIDI 01
367.279;000.127;82;000.477;MIDI 01
367.422;000.188;74;000.523;MIDI 01
367.694;000.100;76;000.508;MIDI 01
367.776;000.059;74;000.562;MIDI 01
367.853;000.090;73;000.578;MIDI 01
367.940;000.106;74;000.570;MIDI 01
368.066;000.133;77;000.570;MIDI 01
368.204;000.152;70;000.562;MIDI 01
368.494;000.073;72;000.531;MIDI 01
368.573;000.040;70;000.438;MIDI 01
368.639;000.110;69;000.508;MIDI 01
368.724;000.132;70;000.562;MIDI 01
368.879;000.151;74;000.500;MIDI 01
369.041;000.154;67;000.516;MIDI 01
369.381;000.055;69;000.391;MIDI 01
369.433;000.050;67;000.461;MIDI 01
369.529;000.049;66;000.461;MIDI 01
369.608;000.177;67;000.500;MIDI 01
366.597;003.429;50;000.398;MIDI 01
366.599;003.460;55;000.414;MIDI 01
366.586;003.488;53;000.438;MIDI 01
366.589;003.493;46;000.383;MIDI 01
369.819;000.528;70;000.492;MIDI 01
370.376;001.550;69;000.484;MIDI 01
371.940;000.192;72;000.297;MIDI 01
372.137;000.111;70;000.328;MIDI 01
372.311;000.091;69;000.344;MIDI 01
372.431;000.074;70;000.430;MIDI 01
372.554;000.101;72;000.469;MIDI 01
372.683;000.079;74;000.406;MIDI 01
372.782;000.074;76;000.539;MIDI 01
372.906;000.096;77;000.461;MIDI 01
373.008;000.071;76;000.422;MIDI 01
373.069;000.051;74;000.477;MIDI 01
373.164;000.037;72;000.422;MIDI 01
373.226;000.049;74;000.523;MIDI 01
373.340;000.069;76;000.531;MIDI 01
373.441;000.118;77;000.484;MIDI 01
373.528;000.077;79;000.586;MIDI 01
373.632;000.097;81;000.539;MIDI 01
373.716;000.085;79;000.430;MIDI 01
373.772;000.071;77;000.516;MIDI 01
373.870;000.057;76;000.586;MIDI 01
373.948;000.028;77;000.484;MIDI 01
374.041;000.082;79;000.547;MIDI 01
374.131;000.104;81;000.594;MIDI 01
374.214;000.134;82;000.602;MIDI 01
374.350;000.151;86;000.539;MIDI 01
374.464;000.135;84;000.539;MIDI 01
374.575;000.099;82;000.547;MIDI 01
374.680;000.121;81;000.539;MIDI 01
374.812;000.068;82;000.516;MIDI 01
370.418;004.593;48;000.312;MIDI 01
374.923;000.109;84;000.539;MIDI 01
370.409;004.632;57;000.328;MIDI 01
370.403;004.704;53;000.312;MIDI 01
375.093;000.139;86;000.500;MIDI 01
375.281;000.255;88;000.547;MIDI 01
375.600;000.816;89;000.469;MIDI 01
377.593;000.269;81;000.273;MIDI 01
378.027;000.197;82;000.289;MIDI 01
378.378;000.148;83;000.375;MIDI 01
378.664;000.148;84;000.398;MIDI 01
378.942;000.175;85;000.406;MIDI 01
379.202;000.158;86;000.398;MIDI 01
379.526;000.253;87;000.352;MIDI 01
379.932;000.640;88;000.336;MIDI 01
380.899;001.151;89;000.242;MIDI 01
383.311;000.080;77;000.430;MIDI 01
383.443;001.128;82;000.406;MIDI 01
384.543;000.081;81;000.336;MIDI 01
384.656;000.095;79;000.383;MIDI 01
384.781;000.160;78;000.383;MIDI 01
384.977;000.478;79;000.383;MIDI 01
385.376;000.377;86;000.336;MIDI 01
385.598;000.192;84;000.422;MIDI 01
385.765;000.240;82;000.477;MIDI 01
385.927;000.117;81;000.492;MIDI 01
386.069;000.192;79;000.500;MIDI 01
386.254;000.178;78;000.500;MIDI 01
386.423;000.341;79;000.547;MIDI 01
386.707;000.561;82;000.453;MIDI 01
387.182;000.794;74;000.383;MIDI 01
387.930;000.329;76;000.344;MIDI 01
388.306;000.133;77;000.328;MIDI 01
388.473;000.109;76;000.336;MIDI 01
388.634;000.080;77;000.320;MIDI 01
388.786;000.030;76;000.289;MIDI 01
388.867;000.051;77;000.359;MIDI 01
388.955;000.044;76;000.336;MIDI 01
389.042;000.053;77;000.422;MIDI 01
389.137;000.026;76;000.375;MIDI 01
389.215;000.048;77;000.398;MIDI 01
389.303;000.050;76;000.391;MIDI 01
389.397;000.053;77;000.398;MIDI 01
389.502;000.047;76;000.391;MIDI 01
389.600;000.060;77;000.359;MIDI 01
389.725;000.057;76;000.305;MIDI 01
387.928;001.935;70;000.320;MIDI 01
387.941;001.934;60;000.250;MIDI 01
389.832;000.117;77;000.344;MIDI 01
389.999;000.222;76;000.344;MIDI 01
390.247;000.147;77;000.336;MIDI 01
390.459;000.066;79;000.289;MIDI 01
390.584;000.047;77;000.344;MIDI 01
390.678;000.052;79;000.391;MIDI 01
390.776;000.042;77;000.344;MIDI 01
390.859;000.042;79;000.406;MIDI 01
390.950;000.035;77;000.359;MIDI 01
391.029;000.058;79;000.398;MIDI 01
391.117;000.051;77;000.383;MIDI 01
391.219;000.045;79;000.438;MIDI 01
391.312;000.045;77;000.414;MIDI 01
391.394;000.058;79;000.430;MIDI 01
391.499;000.062;77;000.414;MIDI 01
391.614;000.066;79;000.406;MIDI 01
391.718;000.090;77;000.414;MIDI 01
391.850;000.090;79;000.453;MIDI 01
391.977;000.123;77;000.422;MIDI 01
392.125;000.129;79;000.453;MIDI 01
392.283;000.222;77;000.453;MIDI 01
390.296;002.323;60;000.234;MIDI 01
390.284;002.335;69;000.258;MIDI 01
392.503;000.316;79;000.469;MIDI 01
392.815;000.195;78;000.500;MIDI 01
393.027;000.096;79;000.430;MIDI 01
393.168;000.048;78;000.477;MIDI 01
393.272;000.049;79;000.422;MIDI 01
393.342;000.055;78;000.469;MIDI 01
393.429;000.056;79;000.508;MIDI 01
393.510;000.051;78;000.461;MIDI 01
393.601;000.039;79;000.453;MIDI 01
393.665;000.041;78;000.508;MIDI 01
393.752;000.045;79;000.508;MIDI 01
393.823;000.040;78;000.453;MIDI 01
393.911;000.031;79;000.562;MIDI 01
393.988;000.036;78;000.484;MIDI 01
394.060;000.057;79;000.555;MIDI 01
394.145;000.051;78;000.492;MIDI 01
394.239;000.052;79;000.562;MIDI 01
394.332;000.051;78;000.547;MIDI 01
392.824;001.590;63;000.344;MIDI 01
394.423;000.076;79;000.570;MIDI 01
392.832;001.671;60;000.273;MIDI 01
394.528;000.066;78;000.539;MIDI 01
394.625;000.081;79;000.539;MIDI 01
394.717;000.125;78;000.602;MIDI 01
394.863;000.174;79;000.586;MIDI 01
395.065;000.079;81;000.531;MIDI 01
395.191;000.031;79;000.477;MIDI 01
395.282;000.036;81;000.523;MIDI 01
395.359;000.030;79;000.414;MIDI 01
395.422;000.062;81;000.508;MIDI 01
395.509;000.029;79;000.484;MIDI 01
395.582;000.031;81;000.469;MIDI 01
395.664;000.027;79;000.438;MIDI 01
395.721;000.039;81;000.523;MIDI 01
395.800;000.041;79;000.484;MIDI 01
395.875;000.043;81;000.492;MIDI 01
395.965;000.043;79;000.477;MIDI 01
396.039;000.058;81;000.422;MIDI 01
396.154;000.036;79;000.406;MIDI 01
396.236;000.062;81;000.469;MIDI 01
396.345;000.045;79;000.391;MIDI 01
396.435;000.071;81;000.438;MIDI 01
396.541;000.059;79;000.359;MIDI 01
396.659;000.057;81;000.398;MIDI 01
396.746;000.085;79;000.383;MIDI 01
396.879;000.131;81;000.414;MIDI 01
397.039;000.115;79;000.430;MIDI 01
397.166;000.070;81;000.500;MIDI 01
397.275;000.111;82;000.477;MIDI 01
397.350;000.103;81;000.508;MIDI 01
397.448;000.039;79;000.523;MIDI 01
397.509;000.055;77;000.539;MIDI 01
394.839;002.833;64;000.453;MIDI 01
397.593;000.081;76;000.578;MIDI 01
397.676;000.032;74;000.570;MIDI 01
394.853;002.878;60;000.414;MIDI 01
397.738;000.079;72;000.570;MIDI 01
397.830;000.118;70;000.578;MIDI 01
397.896;000.104;69;000.586;MIDI 01
397.980;000.047;67;000.500;MIDI 01
398.056;000.054;65;000.500;MIDI 01
398.154;000.061;67;000.484;MIDI 01
398.260;000.067;69;000.492;MIDI 01
398.372;000.042;67;000.453;MIDI 01
398.451;000.045;69;000.422;MIDI 01
398.535;000.036;67;000.414;MIDI 01
398.613;000.030;69;000.422;MIDI 01
398.686;000.030;67;000.438;MIDI 01
398.758;000.025;69;000.453;MIDI 01
398.812;000.033;67;000.531;MIDI 01
398.890;000.041;69;000.531;MIDI 01
398.953;000.044;67;000.484;MIDI 01
399.051;000.033;69;000.500;MIDI 01
399.110;000.044;67;000.516;MIDI 01
399.184;000.052;69;000.562;MIDI 01
399.252;000.057;67;000.547;MIDI 01
399.335;000.061;69;000.602;MIDI 01
399.419;000.044;67;000.516;MIDI 01
399.504;000.074;69;000.562;MIDI 01
399.605;000.039;67;000.461;MIDI 01
399.690;000.049;69;000.484;MIDI 01
399.756;000.048;67;000.469;MIDI 01
399.865;000.036;69;000.484;MIDI 01
399.967;000.026;67;000.336;MIDI 01
400.015;000.046;69;000.500;MIDI 01
400.106;000.044;67;000.461;MIDI 01
400.208;000.048;69;000.430;MIDI 01
400.285;000.038;67;000.406;MIDI 01
400.364;000.042;69;000.492;MIDI 01
400.450;000.043;67;000.375;MIDI 01
400.543;000.052;69;000.469;MIDI 01
400.628;000.044;67;000.398;MIDI 01
400.705;000.046;69;000.484;MIDI 01
400.799;000.036;67;000.398;MIDI 01
400.870;000.047;69;000.484;MIDI 01
400.966;000.033;67;000.359;MIDI 01
401.046;000.042;69;000.430;MIDI 01
401.133;000.053;67;000.398;MIDI 01
401.212;000.056;69;000.422;MIDI 01
401.324;000.057;67;000.398;MIDI 01
401.502;000.044;67;000.266;MIDI 01
401.552;000.191;69;000.109;MIDI 01
399.464;002.292;58;000.641;MIDI 01
401.696;000.120;67;000.281;MIDI 01
399.464;002.356;48;000.555;MIDI 01
399.474;002.450;52;000.516;MIDI 01
401.865;000.226;65;000.391;MIDI 01
402.099;000.137;67;000.477;MIDI 01
402.613;000.115;41;000.336;MIDI 01
402.950;000.051;53;000.406;MIDI 01
402.603;000.459;69;000.516;MIDI 01
402.605;000.469;65;000.500;MIDI 01
403.076;000.044;72;000.453;MIDI 01
403.205;000.030;65;000.508;MIDI 01
403.201;000.036;60;000.453;MIDI 01
403.217;000.043;45;000.406;MIDI 01
403.506;000.027;65;000.492;MIDI 01
403.503;000.034;57;000.406;MIDI 01
403.504;000.035;60;000.414;MIDI 01
403.752;000.044;64;000.539;MIDI 01
403.750;000.064;67;000.562;MIDI 01
403.757;000.065;48;000.422;MIDI 01
404.016;000.041;64;000.539;MIDI 01
404.019;000.041;60;000.461;MIDI 01
404.021;000.055;67;000.531;MIDI 01
404.297;000.104;41;000.367;MIDI 01
404.589;000.050;53;000.406;MIDI 01
404.299;000.360;69;000.555;MIDI 01
404.299;000.394;65;000.500;MIDI 01
404.675;000.049;72;000.484;MIDI 01
404.812;000.036;60;000.531;MIDI 01
404.811;000.043;65;000.555;MIDI 01
404.809;000.070;45;000.477;MIDI 01
405.086;000.031;60;000.516;MIDI 01
405.070;000.066;65;000.617;MIDI 01
405.083;000.059;57;000.508;MIDI 01
405.321;000.042;64;000.586;MIDI 01
405.317;000.071;48;000.516;MIDI 01
405.319;000.072;67;000.617;MIDI 01
405.589;000.045;64;000.594;MIDI 01
405.598;000.045;60;000.492;MIDI 01
405.595;000.075;67;000.586;MIDI 01
405.916;000.168;53;000.344;MIDI 01
405.908;000.408;65;000.469;MIDI 01
405.895;000.424;69;000.547;MIDI 01
406.318;000.029;77;000.492;MIDI 01
406.427;000.196;46;000.352;MIDI 01
406.433;000.255;58;000.344;MIDI 01
406.447;000.380;62;000.508;MIDI 01
406.441;000.456;67;000.508;MIDI 01
406.911;000.058;74;000.297;MIDI 01
406.930;000.056;76;000.133;MIDI 01
407.034;000.461;48;000.367;MIDI 01
407.044;000.565;72;000.508;MIDI 01
407.059;000.551;60;000.211;MIDI 01
407.042;000.619;64;000.414;MIDI 01
407.617;000.094;70;000.508;MIDI 01
408.014;000.789;64;000.312;MIDI 01
408.021;000.828;70;000.414;MIDI 01
408.024;000.960;50;000.266;MIDI 01
408.052;000.952;62;000.250;MIDI 01
409.519;000.400;65;000.266;MIDI 01
409.498;000.489;69;000.312;MIDI 01
410.557;000.050;53;000.219;MIDI 01
410.575;000.041;81;000.336;MIDI 01
410.688;000.062;82;000.406;MIDI 01
410.832;000.029;65;000.312;MIDI 01
410.815;000.075;83;000.398;MIDI 01
410.941;000.048;84;000.430;MIDI 01
411.057;000.028;77;000.406;MIDI 01
411.079;000.040;57;000.352;MIDI 01
411.341;000.032;77;000.477;MIDI 01
411.347;000.032;69;000.305;MIDI 01
411.579;000.036;79;000.555;MIDI 01
411.602;000.038;60;000.344;MIDI 01
411.837;000.041;79;000.617;MIDI 01
411.848;000.032;72;000.391;MIDI 01
412.092;000.041;53;000.367;MIDI 01
412.086;000.048;81;000.531;MIDI 01
412.211;000.071;82;000.523;MIDI 01
412.331;000.041;65;000.445;MIDI 01
412.324;000.106;83;000.547;MIDI 01
412.436;000.067;84;000.586;MIDI 01
412.554;000.041;77;000.562;MIDI 01
412.561;000.041;57;000.461;MIDI 01
412.819;000.053;77;000.602;MIDI 01
412.835;000.040;69;000.477;MIDI 01
413.086;000.042;60;000.383;MIDI 01
413.073;000.060;79;000.641;MIDI 01
413.348;000.044;72;000.430;MIDI 01
413.346;000.050;79;000.633;MIDI 01
413.724;000.244;65;000.289;MIDI 01
413.707;000.366;77;000.398;MIDI 01
413.674;000.405;81;000.555;MIDI 01
414.116;000.023;89;000.445;MIDI 01
414.256;000.153;58;000.320;MIDI 01
414.264;000.195;67;000.312;MIDI 01
414.249;000.364;79;000.430;MIDI 01
414.254;000.376;74;000.492;MIDI 01
414.690;000.082;86;000.430;MIDI 01
414.841;000.164;67;000.289;MIDI 01
414.831;000.237;60;000.281;MIDI 01
414.788;000.554;84;000.508;MIDI 01
415.274;000.091;76;000.359;MIDI 01
415.395;000.419;77;000.414;MIDI 01
415.430;000.405;69;000.188;MIDI 01
415.409;000.455;65;000.305;MIDI 01
417.007;000.144;45;000.156;MIDI 01
417.004;000.235;53;000.203;MIDI 01
416.983;000.389;69;000.320;MIDI 01
417.403;000.049;77;000.445;MIDI 01
417.552;000.199;46;000.297;MIDI 01
417.534;000.315;55;000.328;MIDI 01
417.554;000.343;67;000.375;MIDI 01
417.986;000.073;74;000.383;MIDI 01
418.134;000.238;48;000.227;MIDI 01
418.136;000.238;58;000.250;MIDI 01
418.123;000.478;72;000.383;MIDI 01
418.586;000.075;64;000.234;MIDI 01
418.755;000.491;57;000.086;MIDI 01
418.715;000.568;65;000.289;MIDI 01
418.747;000.554;53;000.242;MIDI 01
420.265;000.298;57;000.391;MIDI 01
420.414;000.180;65;000.375;MIDI 01
420.292;000.606;50;000.352;MIDI 01
420.866;000.095;55;000.453;MIDI 01
421.001;000.439;62;000.406;MIDI 01
420.864;000.622;46;000.422;MIDI 01
421.477;000.120;60;000.391;MIDI 01
421.633;000.543;52;000.383;MIDI 01
421.488;000.695;48;000.391;MIDI 01
422.178;000.659;53;000.336;MIDI 01
422.174;000.732;41;000.281;MIDI 01
424.025;000.183;45;000.438;MIDI 01
424.181;000.220;53;000.398;MIDI 01
424.035;000.671;38;000.398;MIDI 01
424.692;000.156;43;000.453;MIDI 01
424.832;000.294;50;000.414;MIDI 01
424.680;000.718;34;000.438;MIDI 01
425.396;000.164;48;000.336;MIDI 01
425.547;000.246;40;000.383;MIDI 01
425.406;001.143;36;000.383;MIDI 01
426.459;000.231;57;000.438;MIDI 01
426.653;000.469;63;000.398;MIDI 01
427.174;000.121;62;000.312;MIDI 01
427.846;000.076;57;000.281;MIDI 01
427.323;000.608;58;000.336;MIDI 01
426.426;001.768;41;000.297;MIDI 01
426.428;001.768;29;000.320;MIDI 01
427.960;000.540;61;000.367;MIDI 01
428.498;000.192;62;000.430;MIDI 01
428.661;000.580;58;000.359;MIDI 01
429.164;000.133;57;000.375;MIDI 01
429.341;000.484;60;000.258;MIDI 01
429.798;000.140;59;000.352;MIDI 01
428.541;001.654;29;000.258;MIDI 01
428.532;001.674;41;000.258;MIDI 01
429.988;000.709;56;000.344;MIDI 01
430.556;000.200;57;000.438;MIDI 01
430.738;000.599;60;000.438;MIDI 01
431.257;000.206;58;000.461;MIDI 01
431.418;000.671;55;000.461;MIDI 01
431.985;000.234;53;000.477;MIDI 01
432.156;000.547;57;000.445;MIDI 01
432.711;000.211;52;000.414;MIDI 01
430.586;002.554;29;000.312;MIDI 01
430.593;002.622;41;000.266;MIDI 01
432.818;000.444;55;000.414;MIDI 01
432.922;000.375;58;000.484;MIDI 01
433.668;000.401;58;000.484;MIDI 01
433.670;000.414;55;000.445;MIDI 01
433.666;000.456;36;000.312;MIDI 01
433.674;000.484;48;000.367;MIDI 01
434.512;000.382;48;000.406;MIDI 01
434.516;000.459;55;000.461;MIDI 01
434.502;000.479;58;000.516;MIDI 01
434.520;000.660;36;000.352;MIDI 01
435.765;002.327;58;000.508;MIDI 01
435.808;002.370;52;000.367;MIDI 01
435.786;002.423;29;000.305;MIDI 01
435.783;002.428;55;000.352;MIDI 01
435.794;002.486;41;000.297;MIDI 01
439.529;001.466;48;000.227;MIDI 01
439.534;001.468;29;000.188;MIDI 01
439.526;001.482;57;000.289;MIDI 01
439.524;001.491;41;000.227;MIDI 01
439.507;001.533;53;000.266;MIDI 01
