Start;Duration;Pitch;Velocity;Instrument
001.026;000.232;72;000.305;MIDI 01
001.036;000.440;48;000.242;MIDI 01
001.542;000.089;72;000.461;MIDI 01
001.564;000.487;60;000.281;MIDI 01
002.053;000.235;79;000.477;MIDI 01
002.056;000.492;64;000.289;MIDI 01
002.519;000.201;79;000.500;MIDI 01
002.552;000.550;60;000.320;MIDI 01
002.996;000.276;81;000.492;MIDI 01
003.039;000.486;65;000.297;MIDI 01
003.477;000.178;81;000.484;MIDI 01
003.516;000.520;60;000.281;MIDI 01
003.981;000.275;79;000.453;MIDI 01
003.993;000.454;64;000.281;MIDI 01
004.466;000.184;79;000.469;MIDI 01
004.476;000.406;60;000.258;MIDI 01
004.936;000.267;77;000.461;MIDI 01
004.932;000.474;62;000.359;MIDI 01
005.419;000.177;77;000.469;MIDI 01
005.436;000.479;59;000.289;MIDI 01
005.923;000.240;76;000.430;MIDI 01
005.935;000.490;60;000.258;MIDI 01
006.390;000.192;76;000.438;MIDI 01
006.405;000.402;57;000.297;MIDI 01
006.866;000.176;74;000.430;MIDI 01
006.892;000.320;53;000.242;MIDI 01
007.205;000.043;76;000.445;MIDI 01
007.292;000.026;74;000.422;MIDI 01
007.366;000.023;76;000.438;MIDI 01
007.386;000.400;74;000.516;MIDI 01
007.776;000.194;76;000.445;MIDI 01
007.380;000.600;55;000.234;MIDI 01
008.024;000.294;72;000.133;MIDI 01
008.007;000.369;48;000.148;MIDI 01
008.935;000.041;48;000.289;MIDI 01
008.931;000.045;72;000.320;MIDI 01
009.393;000.037;72;000.375;MIDI 01
009.395;000.043;60;000.289;MIDI 01
009.844;000.050;79;000.406;MIDI 01
009.848;000.048;64;000.289;MIDI 01
010.311;000.033;60;000.297;MIDI 01
010.306;000.040;79;000.414;MIDI 01
010.748;000.028;65;000.344;MIDI 01
010.744;000.044;81;000.438;MIDI 01
011.174;000.042;81;000.477;MIDI 01
011.199;000.034;60;000.289;MIDI 01
011.631;000.041;79;000.438;MIDI 01
011.639;000.050;64;000.258;MIDI 01
012.068;000.052;79;000.406;MIDI 01
012.088;000.051;60;000.234;MIDI 01
012.516;000.040;77;000.406;MIDI 01
012.511;000.048;62;000.281;MIDI 01
012.931;000.051;77;000.414;MIDI 01
012.933;000.062;59;000.297;MIDI 01
013.370;000.046;76;000.375;MIDI 01
013.382;000.056;60;000.203;MIDI 01
013.811;000.053;57;000.172;MIDI 01
013.805;000.068;76;000.375;MIDI 01
014.254;000.113;74;000.383;MIDI 01
014.278;000.121;53;000.203;MIDI 01
014.566;000.026;76;000.375;MIDI 01
014.717;000.023;76;000.453;MIDI 01
014.653;000.088;74;000.258;MIDI 01
014.752;000.350;74;000.344;MIDI 01
014.708;000.544;55;000.203;MIDI 01
015.139;000.135;76;000.398;MIDI 01
015.283;000.251;48;000.266;MIDI 01
015.290;000.309;72;000.305;MIDI 01
016.212;000.175;79;000.453;MIDI 01
016.249;000.481;64;000.211;MIDI 01
016.689;000.130;79;000.500;MIDI 01
016.705;000.604;55;000.281;MIDI 01
017.176;000.232;77;000.469;MIDI 01
017.192;000.453;62;000.289;MIDI 01
017.637;000.199;77;000.469;MIDI 01
017.645;000.500;55;000.297;MIDI 01
018.121;000.266;76;000.453;MIDI 01
018.149;000.426;60;000.281;MIDI 01
018.573;000.183;76;000.477;MIDI 01
018.593;000.462;55;000.273;MIDI 01
019.059;000.208;74;000.430;MIDI 01
019.061;000.427;59;000.305;MIDI 01
019.494;000.061;74;000.391;MIDI 01
019.531;000.295;55;000.242;MIDI 01
019.931;000.044;79;000.383;MIDI 01
019.940;000.053;64;000.266;MIDI 01
020.355;000.033;79;000.445;MIDI 01
020.380;000.061;55;000.141;MIDI 01
020.793;000.029;62;000.367;MIDI 01
020.795;000.029;77;000.414;MIDI 01
021.215;000.031;77;000.422;MIDI 01
021.224;000.038;55;000.336;MIDI 01
021.665;000.058;60;000.234;MIDI 01
021.665;000.060;76;000.398;MIDI 01
021.932;000.034;77;000.414;MIDI 01
022.021;000.065;76;000.281;MIDI 01
022.072;000.018;77;000.469;MIDI 01
022.005;000.378;60;000.266;MIDI 01
022.100;000.332;76;000.398;MIDI 01
022.427;000.180;62;000.336;MIDI 01
022.452;000.221;77;000.477;MIDI 01
022.653;000.435;60;000.273;MIDI 01
022.627;000.486;76;000.508;MIDI 01
023.174;000.140;59;000.102;MIDI 01
022.641;000.675;55;000.312;MIDI 01
023.130;000.213;74;000.383;MIDI 01
023.625;000.197;72;000.445;MIDI 01
023.654;000.405;48;000.266;MIDI 01
024.117;000.129;72;000.508;MIDI 01
024.130;000.470;60;000.336;MIDI 01
024.579;000.262;79;000.508;MIDI 01
024.600;000.442;64;000.352;MIDI 01
025.047;000.223;79;000.492;MIDI 01
025.056;000.490;60;000.312;MIDI 01
025.497;000.272;81;000.516;MIDI 01
025.531;000.406;65;000.352;MIDI 01
025.965;000.189;81;000.508;MIDI 01
025.974;000.511;60;000.312;MIDI 01
026.428;000.257;79;000.492;MIDI 01
026.449;000.432;64;000.273;MIDI 01
026.881;000.178;79;000.445;MIDI 01
026.893;000.401;60;000.320;MIDI 01
027.357;000.214;77;000.414;MIDI 01
027.372;000.467;62;000.266;MIDI 01
027.814;000.157;77;000.438;MIDI 01
027.816;000.486;59;000.258;MIDI 01
028.308;000.217;76;000.414;MIDI 01
028.311;000.484;60;000.273;MIDI 01
028.770;000.141;76;000.461;MIDI 01
028.784;000.432;57;000.336;MIDI 01
029.257;000.161;74;000.383;MIDI 01
029.548;000.047;76;000.430;MIDI 01
029.259;000.406;53;000.242;MIDI 01
029.619;000.085;74;000.414;MIDI 01
029.689;000.049;76;000.469;MIDI 01
029.722;000.400;74;000.445;MIDI 01
030.163;000.148;76;000.406;MIDI 01
029.741;000.629;55;000.297;MIDI 01
030.407;000.351;48;000.125;MIDI 01
030.354;000.555;72;000.352;MIDI 01
031.471;000.092;74;000.344;MIDI 01
031.465;000.207;48;000.266;MIDI 01
031.641;000.043;72;000.203;MIDI 01
031.748;000.044;71;000.156;MIDI 01
031.817;000.061;72;000.391;MIDI 01
031.910;000.048;71;000.406;MIDI 01
032.015;000.066;72;000.414;MIDI 01
032.099;000.054;71;000.414;MIDI 01
032.202;000.057;72;000.500;MIDI 01
031.916;000.361;60;000.297;MIDI 01
032.333;000.081;81;000.477;MIDI 01
032.452;000.082;79;000.422;MIDI 01
032.576;000.050;78;000.375;MIDI 01
032.697;000.068;79;000.367;MIDI 01
032.778;000.065;78;000.430;MIDI 01
032.897;000.059;79;000.438;MIDI 01
032.992;000.056;78;000.484;MIDI 01
033.114;000.052;79;000.484;MIDI 01
032.324;000.952;64;000.336;MIDI 01
033.214;000.080;80;000.484;MIDI 01
032.776;000.535;60;000.266;MIDI 01
033.326;000.086;81;000.469;MIDI 01
033.433;000.107;84;000.508;MIDI 01
033.557;000.082;83;000.477;MIDI 01
033.209;000.556;65;000.398;MIDI 01
033.686;000.089;86;000.469;MIDI 01
033.647;000.168;60;000.375;MIDI 01
033.775;000.090;84;000.516;MIDI 01
033.885;000.051;83;000.445;MIDI 01
033.990;000.022;81;000.406;MIDI 01
034.124;000.054;81;000.445;MIDI 01
034.120;000.084;64;000.352;MIDI 01
034.110;000.100;60;000.359;MIDI 01
034.236;000.055;79;000.453;MIDI 01
034.360;000.066;88;000.477;MIDI 01
034.472;000.086;86;000.461;MIDI 01
034.577;000.089;84;000.500;MIDI 01
034.690;000.043;83;000.477;MIDI 01
034.783;000.024;81;000.461;MIDI 01
034.886;000.039;61;000.453;MIDI 01
034.897;000.031;79;000.422;MIDI 01
035.011;000.051;79;000.531;MIDI 01
035.026;000.055;62;000.445;MIDI 01
035.142;000.054;77;000.453;MIDI 01
035.255;000.105;86;000.516;MIDI 01
035.368;000.097;84;000.539;MIDI 01
035.473;000.100;83;000.516;MIDI 01
035.573;000.068;81;000.547;MIDI 01
035.683;000.039;79;000.484;MIDI 01
035.763;000.049;59;000.453;MIDI 01
035.792;000.035;77;000.438;MIDI 01
035.892;000.060;60;000.492;MIDI 01
035.926;000.039;77;000.484;MIDI 01
036.028;000.056;76;000.445;MIDI 01
036.134;000.100;84;000.500;MIDI 01
036.243;000.111;83;000.516;MIDI 01
036.351;000.084;81;000.516;MIDI 01
036.451;000.049;79;000.492;MIDI 01
036.547;000.034;77;000.375;MIDI 01
036.597;000.074;57;000.273;MIDI 01
036.650;000.076;76;000.484;MIDI 01
036.772;000.026;74;000.477;MIDI 01
036.767;000.481;53;000.352;MIDI 01
037.027;000.227;81;000.523;MIDI 01
037.273;000.048;79;000.492;MIDI 01
037.293;000.030;55;000.375;MIDI 01
037.511;000.022;71;000.383;MIDI 01
037.760;000.041;60;000.328;MIDI 01
038.011;000.047;55;000.266;MIDI 01
038.237;000.057;52;000.211;MIDI 01
037.764;000.712;72;000.406;MIDI 01
038.461;000.031;55;000.375;MIDI 01
038.741;000.090;74;000.352;MIDI 01
038.720;000.173;48;000.312;MIDI 01
038.873;000.074;72;000.320;MIDI 01
038.975;000.075;71;000.359;MIDI 01
039.104;000.068;72;000.359;MIDI 01
039.202;000.052;71;000.344;MIDI 01
039.319;000.043;72;000.367;MIDI 01
039.391;000.049;71;000.438;MIDI 01
039.494;000.058;72;000.461;MIDI 01
039.174;000.389;60;000.305;MIDI 01
039.629;000.095;81;000.430;MIDI 01
039.754;000.083;79;000.414;MIDI 01
039.864;000.075;78;000.453;MIDI 01
039.604;000.436;64;000.344;MIDI 01
039.989;000.062;79;000.438;MIDI 01
040.089;000.046;78;000.453;MIDI 01
040.195;000.075;79;000.461;MIDI 01
040.275;000.078;78;000.438;MIDI 01
040.417;000.049;79;000.445;MIDI 01
040.069;000.407;60;000.375;MIDI 01
040.513;000.072;80;000.469;MIDI 01
040.623;000.085;81;000.445;MIDI 01
040.734;000.096;84;000.477;MIDI 01
040.845;000.086;83;000.445;MIDI 01
040.505;000.550;65;000.312;MIDI 01
040.967;000.105;86;000.508;MIDI 01
040.950;000.164;60;000.312;MIDI 01
041.074;000.082;84;000.492;MIDI 01
041.186;000.067;83;000.445;MIDI 01
041.280;000.036;81;000.484;MIDI 01
041.432;000.059;64;000.289;MIDI 01
041.420;000.077;81;000.500;MIDI 01
041.428;000.091;60;000.305;MIDI 01
041.557;000.065;79;000.398;MIDI 01
041.665;000.096;88;000.523;MIDI 01
041.786;000.093;86;000.445;MIDI 01
041.886;000.106;84;000.477;MIDI 01
041.997;000.058;83;000.453;MIDI 01
042.091;000.044;81;000.484;MIDI 01
042.211;000.019;79;000.414;MIDI 01
042.207;000.042;61;000.422;MIDI 01
042.337;000.031;79;000.516;MIDI 01
042.328;000.097;62;000.469;MIDI 01
042.441;000.064;77;000.406;MIDI 01
042.560;000.109;86;000.531;MIDI 01
042.680;000.117;84;000.523;MIDI 01
042.778;000.106;83;000.516;MIDI 01
042.884;000.057;81;000.508;MIDI 01
042.975;000.040;79;000.500;MIDI 01
043.086;000.033;77;000.414;MIDI 01
043.070;000.052;59;000.414;MIDI 01
043.221;000.043;77;000.492;MIDI 01
043.201;000.089;60;000.492;MIDI 01
043.318;000.053;76;000.477;MIDI 01
043.423;000.120;84;000.531;MIDI 01
043.542;000.110;83;000.516;MIDI 01
043.648;000.083;81;000.500;MIDI 01
043.743;000.052;79;000.492;MIDI 01
043.853;000.026;77;000.359;MIDI 01
043.932;000.047;76;000.500;MIDI 01
043.922;000.061;57;000.398;MIDI 01
044.089;000.236;74;000.430;MIDI 01
044.107;000.253;53;000.305;MIDI 01
044.314;000.051;81;000.477;MIDI 01
044.569;000.179;79;000.438;MIDI 01
044.581;000.246;55;000.320;MIDI 01
044.810;000.067;71;000.359;MIDI 01
045.083;000.200;60;000.305;MIDI 01
045.084;000.592;72;000.383;MIDI 01
045.603;000.110;48;000.203;MIDI 01
046.108;000.091;81;000.375;MIDI 01
046.245;000.073;79;000.406;MIDI 01
046.349;000.068;78;000.430;MIDI 01
046.473;000.070;79;000.430;MIDI 01
046.134;000.517;64;000.047;MIDI 01
046.566;000.103;78;000.453;MIDI 01
046.685;000.096;79;000.438;MIDI 01
046.805;000.109;81;000.477;MIDI 01
046.910;000.040;79;000.469;MIDI 01
046.564;000.565;55;000.305;MIDI 01
047.054;000.099;79;000.430;MIDI 01
047.167;000.104;77;000.430;MIDI 01
047.285;000.088;76;000.461;MIDI 01
047.410;000.060;77;000.461;MIDI 01
047.031;000.446;62;000.406;MIDI 01
047.506;000.081;76;000.484;MIDI 01
047.612;000.071;77;000.492;MIDI 01
047.700;000.112;79;000.430;MIDI 01
047.830;000.024;77;000.398;MIDI 01
047.479;000.431;55;000.383;MIDI 01
047.966;000.065;77;000.445;MIDI 01
048.061;000.100;76;000.422;MIDI 01
048.192;000.068;75;000.406;MIDI 01
047.954;000.418;60;000.383;MIDI 01
048.339;000.035;76;000.383;MIDI 01
048.402;000.057;75;000.422;MIDI 01
048.495;000.080;76;000.453;MIDI 01
048.615;000.094;77;000.445;MIDI 01
048.724;000.041;76;000.367;MIDI 01
048.392;000.392;55;000.383;MIDI 01
048.886;000.040;76;000.312;MIDI 01
048.978;000.061;74;000.344;MIDI 01
049.085;000.046;73;000.398;MIDI 01
049.190;000.058;74;000.453;MIDI 01
048.849;000.473;65;000.336;MIDI 01
049.277;000.077;73;000.438;MIDI 01
049.295;000.072;55;000.344;MIDI 01
049.400;000.050;74;000.414;MIDI 01
049.498;000.053;76;000.469;MIDI 01
049.616;000.073;74;000.461;MIDI 01
049.768;000.100;81;000.422;MIDI 01
049.877;000.068;79;000.461;MIDI 01
049.977;000.052;78;000.477;MIDI 01
050.091;000.042;79;000.484;MIDI 01
050.203;000.025;88;000.500;MIDI 01
049.753;000.500;55;000.297;MIDI 01
050.333;000.043;84;000.391;MIDI 01
050.435;000.048;81;000.453;MIDI 01
050.548;000.028;79;000.484;MIDI 01
049.767;000.875;64;000.219;MIDI 01
050.670;000.123;79;000.508;MIDI 01
050.802;000.087;77;000.398;MIDI 01
050.901;000.071;76;000.539;MIDI 01
051.030;000.054;77;000.500;MIDI 01
051.138;000.030;86;000.539;MIDI 01
050.679;000.548;55;000.289;MIDI 01
051.257;000.057;83;000.523;MIDI 01
051.367;000.043;79;000.531;MIDI 01
051.467;000.048;77;000.516;MIDI 01
050.683;000.868;62;000.305;MIDI 01
051.583;000.123;77;000.539;MIDI 01
051.728;000.080;76;000.469;MIDI 01
051.824;000.049;75;000.508;MIDI 01
051.959;000.046;76;000.469;MIDI 01
051.621;000.484;60;000.297;MIDI 01
051.617;000.491;55;000.312;MIDI 01
052.059;000.121;84;000.562;MIDI 01
052.192;000.121;79;000.516;MIDI 01
052.308;000.147;77;000.531;MIDI 01
052.507;000.215;60;000.320;MIDI 01
052.477;000.264;76;000.562;MIDI 01
052.736;000.422;64;000.312;MIDI 01
052.728;000.494;79;000.523;MIDI 01
053.243;000.132;60;000.242;MIDI 01
053.237;000.158;76;000.383;MIDI 01
053.431;000.188;59;000.266;MIDI 01
052.767;000.854;55;000.281;MIDI 01
053.422;000.207;74;000.352;MIDI 01
054.062;000.109;74;000.391;MIDI 01
054.060;000.199;48;000.289;MIDI 01
054.200;000.079;72;000.359;MIDI 01
054.312;000.062;71;000.367;MIDI 01
054.434;000.072;72;000.406;MIDI 01
054.534;000.061;71;000.344;MIDI 01
054.652;000.096;72;000.406;MIDI 01
054.748;000.049;71;000.422;MIDI 01
054.857;000.068;72;000.453;MIDI 01
054.533;000.522;60;000.406;MIDI 01
054.995;000.116;81;000.445;MIDI 01
055.131;000.104;79;000.461;MIDI 01
055.264;000.073;78;000.430;MIDI 01
055.382;000.082;79;000.438;MIDI 01
055.494;000.046;78;000.461;MIDI 01
055.580;000.093;79;000.414;MIDI 01
055.656;000.109;78;000.461;MIDI 01
055.830;000.044;79;000.438;MIDI 01
055.917;000.082;80;000.508;MIDI 01
055.008;001.004;64;000.383;MIDI 01
055.478;000.569;60;000.406;MIDI 01
056.033;000.079;81;000.461;MIDI 01
056.135;000.104;84;000.477;MIDI 01
056.254;000.072;83;000.461;MIDI 01
056.361;000.105;86;000.484;MIDI 01
056.487;000.083;84;000.469;MIDI 01
055.930;000.649;65;000.430;MIDI 01
056.375;000.247;60;000.414;MIDI 01
056.594;000.073;83;000.438;MIDI 01
056.696;000.018;81;000.477;MIDI 01
056.835;000.087;81;000.469;MIDI 01
056.865;000.101;64;000.312;MIDI 01
056.849;000.155;60;000.273;MIDI 01
056.981;000.056;79;000.414;MIDI 01
057.091;000.079;88;000.492;MIDI 01
057.209;000.085;86;000.492;MIDI 01
057.317;000.090;84;000.500;MIDI 01
057.429;000.038;83;000.445;MIDI 01
057.515;000.030;81;000.516;MIDI 01
057.630;000.019;79;000.422;MIDI 01
057.631;000.040;61;000.406;MIDI 01
057.744;000.054;79;000.539;MIDI 01
057.754;000.099;62;000.492;MIDI 01
057.870;000.057;77;000.477;MIDI 01
057.987;000.117;86;000.531;MIDI 01
058.108;000.111;84;000.531;MIDI 01
058.218;000.094;83;000.516;MIDI 01
058.317;000.050;81;000.531;MIDI 01
058.416;000.029;79;000.492;MIDI 01
058.523;000.032;77;000.477;MIDI 01
058.507;000.051;59;000.430;MIDI 01
058.641;000.061;77;000.555;MIDI 01
058.638;000.113;60;000.484;MIDI 01
058.758;000.065;76;000.477;MIDI 01
058.867;000.118;84;000.531;MIDI 01
058.989;000.126;83;000.516;MIDI 01
059.100;000.096;81;000.531;MIDI 01
059.204;000.054;79;000.492;MIDI 01
059.304;000.034;77;000.453;MIDI 01
059.316;000.157;57;000.367;MIDI 01
059.401;000.080;76;000.539;MIDI 01
059.523;000.034;74;000.570;MIDI 01
059.530;000.517;53;000.406;MIDI 01
059.797;000.265;81;000.516;MIDI 01
060.072;000.081;79;000.500;MIDI 01
060.089;000.087;55;000.344;MIDI 01
060.306;000.047;71;000.445;MIDI 01
060.608;000.221;60;000.328;MIDI 01
060.597;000.697;72;000.414;MIDI 01
061.200;000.738;48;000.273;MIDI 01
062.396;000.095;48;000.344;MIDI 01
062.375;000.227;72;000.406;MIDI 01
062.697;000.050;59;000.359;MIDI 01
062.789;000.055;60;000.414;MIDI 01
062.905;000.029;62;000.391;MIDI 01
062.886;000.149;72;000.523;MIDI 01
062.977;000.062;60;000.438;MIDI 01
063.094;000.034;59;000.406;MIDI 01
063.193;000.054;60;000.445;MIDI 01
063.327;000.057;52;000.477;MIDI 01
063.334;000.074;72;000.453;MIDI 01
063.450;000.068;60;000.375;MIDI 01
063.322;000.221;79;000.578;MIDI 01
063.557;000.080;59;000.422;MIDI 01
063.663;000.062;60;000.453;MIDI 01
063.780;000.038;62;000.391;MIDI 01
063.884;000.048;60;000.375;MIDI 01
063.989;000.055;59;000.352;MIDI 01
064.072;000.075;60;000.422;MIDI 01
063.756;000.504;79;000.578;MIDI 01
064.209;000.073;53;000.398;MIDI 01
064.342;000.087;60;000.344;MIDI 01
064.464;000.074;59;000.375;MIDI 01
064.585;000.043;60;000.375;MIDI 01
064.690;000.036;62;000.289;MIDI 01
064.756;000.049;60;000.344;MIDI 01
064.206;000.608;81;000.570;MIDI 01
064.859;000.049;59;000.367;MIDI 01
064.951;000.082;60;000.406;MIDI 01
064.651;000.467;77;000.398;MIDI 01
065.093;000.054;48;000.469;MIDI 01
065.230;000.070;60;000.391;MIDI 01
065.355;000.065;59;000.406;MIDI 01
065.445;000.060;60;000.414;MIDI 01
065.084;000.458;79;000.578;MIDI 01
065.560;000.026;62;000.406;MIDI 01
065.652;000.045;60;000.359;MIDI 01
065.742;000.055;59;000.438;MIDI 01
065.828;000.032;60;000.438;MIDI 01
065.961;000.057;45;000.508;MIDI 01
063.782;002.278;72;000.469;MIDI 01
065.543;000.540;76;000.422;MIDI 01
065.964;000.129;77;000.523;MIDI 01
066.086;000.083;57;000.484;MIDI 01
066.198;000.064;56;000.469;MIDI 01
066.303;000.045;57;000.484;MIDI 01
066.393;000.036;47;000.484;MIDI 01
066.501;000.083;59;000.516;MIDI 01
066.611;000.051;58;000.469;MIDI 01
066.705;000.043;59;000.477;MIDI 01
066.344;000.469;77;000.617;MIDI 01
066.796;000.050;48;000.570;MIDI 01
066.361;000.486;67;000.492;MIDI 01
066.792;000.106;76;000.562;MIDI 01
066.354;000.549;74;000.523;MIDI 01
066.903;000.054;60;000.453;MIDI 01
067.002;000.052;59;000.453;MIDI 01
067.084;000.044;60;000.492;MIDI 01
067.217;000.026;45;000.430;MIDI 01
067.314;000.096;57;000.492;MIDI 01
067.445;000.057;56;000.445;MIDI 01
067.544;000.032;57;000.398;MIDI 01
067.200;000.476;76;000.602;MIDI 01
067.215;000.489;69;000.516;MIDI 01
067.654;000.052;41;000.516;MIDI 01
067.206;000.518;72;000.578;MIDI 01
067.631;000.105;74;000.547;MIDI 01
067.755;000.073;53;000.461;MIDI 01
067.873;000.059;52;000.445;MIDI 01
067.970;000.055;53;000.469;MIDI 01
068.090;000.036;43;000.508;MIDI 01
068.207;000.043;55;000.398;MIDI 01
068.302;000.071;54;000.422;MIDI 01
068.080;000.307;74;000.617;MIDI 01
068.093;000.311;67;000.555;MIDI 01
068.095;000.335;71;000.555;MIDI 01
068.395;000.040;55;000.477;MIDI 01
068.447;000.072;65;000.539;MIDI 01
068.569;000.202;36;000.516;MIDI 01
068.578;000.463;64;000.523;MIDI 01
069.051;000.052;48;000.383;MIDI 01
068.575;000.530;67;000.500;MIDI 01
068.573;000.542;72;000.578;MIDI 01
069.508;000.045;72;000.430;MIDI 01
069.502;000.065;48;000.406;MIDI 01
069.635;000.056;60;000.391;MIDI 01
069.767;000.053;59;000.375;MIDI 01
069.839;000.056;60;000.438;MIDI 01
069.952;000.026;62;000.391;MIDI 01
069.941;000.044;72;000.516;MIDI 01
070.030;000.060;60;000.391;MIDI 01
070.154;000.041;59;000.305;MIDI 01
070.243;000.038;60;000.359;MIDI 01
070.359;000.030;72;000.453;MIDI 01
070.356;000.046;79;000.531;MIDI 01
070.346;000.057;52;000.461;MIDI 01
070.452;000.093;60;000.312;MIDI 01
070.588;000.067;59;000.398;MIDI 01
070.695;000.039;60;000.391;MIDI 01
070.773;000.045;62;000.453;MIDI 01
070.854;000.073;60;000.406;MIDI 01
070.991;000.041;59;000.336;MIDI 01
071.085;000.046;60;000.422;MIDI 01
070.805;000.455;79;000.516;MIDI 01
071.204;000.058;53;000.430;MIDI 01
071.326;000.070;60;000.320;MIDI 01
071.433;000.068;59;000.391;MIDI 01
071.553;000.035;60;000.375;MIDI 01
071.634;000.029;62;000.406;MIDI 01
071.711;000.067;60;000.383;MIDI 01
071.216;000.610;81;000.547;MIDI 01
071.843;000.031;59;000.344;MIDI 01
071.927;000.066;60;000.398;MIDI 01
072.062;000.045;48;000.477;MIDI 01
071.682;000.467;77;000.391;MIDI 01
072.179;000.046;60;000.391;MIDI 01
072.293;000.068;59;000.352;MIDI 01
072.372;000.052;60;000.406;MIDI 01
072.065;000.441;79;000.539;MIDI 01
072.489;000.033;62;000.352;MIDI 01
072.569;000.040;60;000.305;MIDI 01
072.649;000.051;59;000.438;MIDI 01
072.726;000.046;60;000.461;MIDI 01
072.876;000.040;45;000.438;MIDI 01
070.823;002.109;72;000.422;MIDI 01
072.499;000.443;76;000.477;MIDI 01
072.878;000.083;77;000.547;MIDI 01
072.989;000.056;57;000.430;MIDI 01
073.099;000.049;56;000.320;MIDI 01
073.165;000.061;57;000.516;MIDI 01
073.299;000.037;47;000.516;MIDI 01
073.408;000.070;59;000.461;MIDI 01
073.525;000.057;58;000.438;MIDI 01
073.638;000.027;59;000.414;MIDI 01
073.729;000.048;48;000.469;MIDI 01
073.302;000.509;77;000.578;MIDI 01
073.842;000.045;60;000.430;MIDI 01
073.310;000.610;67;000.461;MIDI 01
073.748;000.236;76;000.492;MIDI 01
073.946;000.053;59;000.461;MIDI 01
073.308;000.692;74;000.516;MIDI 01
074.024;000.044;60;000.500;MIDI 01
074.148;000.048;45;000.484;MIDI 01
074.280;000.062;57;000.484;MIDI 01
074.377;000.052;56;000.469;MIDI 01
074.466;000.039;57;000.453;MIDI 01
074.589;000.053;41;000.453;MIDI 01
074.141;000.541;76;000.602;MIDI 01
074.158;000.582;69;000.531;MIDI 01
074.711;000.061;53;000.430;MIDI 01
074.160;000.629;72;000.547;MIDI 01
074.594;000.206;74;000.508;MIDI 01
074.823;000.052;52;000.375;MIDI 01
074.899;000.057;53;000.492;MIDI 01
075.015;000.036;43;000.547;MIDI 01
075.131;000.044;55;000.453;MIDI 01
075.032;000.243;74;000.586;MIDI 01
075.239;000.048;54;000.391;MIDI 01
075.034;000.300;67;000.516;MIDI 01
075.030;000.319;71;000.484;MIDI 01
075.320;000.038;55;000.438;MIDI 01
075.376;000.045;65;000.523;MIDI 01
075.502;000.242;36;000.492;MIDI 01
075.517;000.439;64;000.461;MIDI 01
075.968;000.051;48;000.352;MIDI 01
075.515;000.506;67;000.438;MIDI 01
075.500;000.536;72;000.539;MIDI 01
076.420;000.040;72;000.375;MIDI 01
076.407;000.057;55;000.383;MIDI 01
076.410;000.101;79;000.523;MIDI 01
076.534;000.079;64;000.391;MIDI 01
076.671;000.081;63;000.367;MIDI 01
076.770;000.051;64;000.414;MIDI 01
076.871;000.026;65;000.398;MIDI 01
076.951;000.067;64;000.391;MIDI 01
077.077;000.039;63;000.344;MIDI 01
077.185;000.055;64;000.281;MIDI 01
077.273;000.053;55;000.398;MIDI 01
076.847;000.486;79;000.555;MIDI 01
076.868;000.530;72;000.461;MIDI 01
077.385;000.049;62;000.438;MIDI 01
077.280;000.175;77;000.500;MIDI 01
077.489;000.076;61;000.398;MIDI 01
077.588;000.049;62;000.406;MIDI 01
077.691;000.027;71;000.398;MIDI 01
077.680;000.040;64;000.492;MIDI 01
077.678;000.053;77;000.555;MIDI 01
077.774;000.058;62;000.438;MIDI 01
077.868;000.056;61;000.438;MIDI 01
077.957;000.046;62;000.320;MIDI 01
077.995;000.059;77;000.539;MIDI 01
078.036;000.070;55;000.500;MIDI 01
078.121;000.076;77;000.414;MIDI 01
078.076;000.155;76;000.453;MIDI 01
077.999;000.243;72;000.516;MIDI 01
078.178;000.147;67;000.477;MIDI 01
078.365;000.069;66;000.438;MIDI 01
078.404;000.080;74;000.555;MIDI 01
078.474;000.036;67;000.406;MIDI 01
078.496;000.084;76;000.594;MIDI 01
078.539;000.050;69;000.523;MIDI 01
078.631;000.082;67;000.398;MIDI 01
078.741;000.028;66;000.383;MIDI 01
078.822;000.033;67;000.414;MIDI 01
078.827;000.145;77;000.547;MIDI 01
078.936;000.048;55;000.461;MIDI 01
079.072;000.049;65;000.320;MIDI 01
078.939;000.229;71;000.484;MIDI 01
079.179;000.061;64;000.406;MIDI 01
079.273;000.050;65;000.414;MIDI 01
078.943;000.432;76;000.562;MIDI 01
079.364;000.035;67;000.445;MIDI 01
079.445;000.047;65;000.391;MIDI 01
079.379;000.208;74;000.453;MIDI 01
079.561;000.046;64;000.367;MIDI 01
079.648;000.042;65;000.406;MIDI 01
079.769;000.042;79;000.500;MIDI 01
079.773;000.045;55;000.391;MIDI 01
079.793;000.041;72;000.328;MIDI 01
079.901;000.032;64;000.305;MIDI 01
080.010;000.060;63;000.383;MIDI 01
080.102;000.049;64;000.297;MIDI 01
080.197;000.041;65;000.414;MIDI 01
080.299;000.059;64;000.352;MIDI 01
080.418;000.033;63;000.336;MIDI 01
080.501;000.034;64;000.383;MIDI 01
080.178;000.452;79;000.492;MIDI 01
080.603;000.045;55;000.391;MIDI 01
080.195;000.496;72;000.367;MIDI 01
080.589;000.139;77;000.469;MIDI 01
080.722;000.044;62;000.406;MIDI 01
080.824;000.074;61;000.430;MIDI 01
080.922;000.048;62;000.367;MIDI 01
080.987;000.040;71;000.469;MIDI 01
080.984;000.049;77;000.516;MIDI 01
081.001;000.042;64;000.461;MIDI 01
081.101;000.049;62;000.391;MIDI 01
081.180;000.072;61;000.469;MIDI 01
081.284;000.038;62;000.391;MIDI 01
081.276;000.061;77;000.492;MIDI 01
081.358;000.052;76;000.492;MIDI 01
081.359;000.056;55;000.352;MIDI 01
081.446;000.056;77;000.336;MIDI 01
081.444;000.107;60;000.477;MIDI 01
081.298;000.302;67;000.430;MIDI 01
081.580;000.106;59;000.469;MIDI 01
081.694;000.042;60;000.445;MIDI 01
081.676;000.094;74;000.500;MIDI 01
081.751;000.052;62;000.547;MIDI 01
081.871;000.104;59;000.406;MIDI 01
082.015;000.050;60;000.211;MIDI 01
081.774;000.299;76;000.633;MIDI 01
082.130;000.050;59;000.336;MIDI 01
082.200;000.037;60;000.469;MIDI 01
082.096;000.152;77;000.531;MIDI 01
082.261;000.104;55;000.422;MIDI 01
082.399;000.065;59;000.375;MIDI 01
082.509;000.075;58;000.414;MIDI 01
082.628;000.039;59;000.352;MIDI 01
082.209;000.514;76;000.562;MIDI 01
082.684;000.045;60;000.453;MIDI 01
082.667;000.104;74;000.484;MIDI 01
082.264;000.532;67;000.141;MIDI 01
082.771;000.051;59;000.461;MIDI 01
082.868;000.048;58;000.414;MIDI 01
082.968;000.046;59;000.430;MIDI 01
083.084;000.044;48;000.516;MIDI 01
083.095;000.039;64;000.414;MIDI 01
083.099;000.041;67;000.430;MIDI 01
083.083;000.092;72;000.547;MIDI 01
083.198;000.075;60;000.445;MIDI 01
083.320;000.077;59;000.477;MIDI 01
083.422;000.036;60;000.430;MIDI 01
083.472;000.061;62;000.492;MIDI 01
083.510;000.048;74;000.539;MIDI 01
083.581;000.031;72;000.430;MIDI 01
083.562;000.081;60;000.508;MIDI 01
083.633;000.042;74;000.531;MIDI 01
083.680;000.069;59;000.430;MIDI 01
083.723;000.035;72;000.367;MIDI 01
083.747;000.070;71;000.492;MIDI 01
083.796;000.077;60;000.445;MIDI 01
083.831;000.126;72;000.562;MIDI 01
083.922;000.071;52;000.492;MIDI 01
084.046;000.062;60;000.391;MIDI 01
083.933;000.248;79;000.602;MIDI 01
084.162;000.079;59;000.453;MIDI 01
084.254;000.049;60;000.469;MIDI 01
084.338;000.048;62;000.484;MIDI 01
084.408;000.081;60;000.469;MIDI 01
084.535;000.061;59;000.438;MIDI 01
084.640;000.064;60;000.453;MIDI 01
084.771;000.089;53;000.461;MIDI 01
084.896;000.081;60;000.414;MIDI 01
084.398;000.636;72;000.562;MIDI 01
084.796;000.268;81;000.609;MIDI 01
085.001;000.107;59;000.461;MIDI 01
084.382;000.727;79;000.609;MIDI 01
085.126;000.061;60;000.500;MIDI 01
085.232;000.042;62;000.477;MIDI 01
085.327;000.060;60;000.406;MIDI 01
085.425;000.051;59;000.414;MIDI 01
085.520;000.050;60;000.484;MIDI 01
085.647;000.045;48;000.508;MIDI 01
085.247;000.508;81;000.578;MIDI 01
085.255;000.515;77;000.523;MIDI 01
085.671;000.133;79;000.492;MIDI 01
085.259;000.555;72;000.547;MIDI 01
085.770;000.058;60;000.414;MIDI 01
085.871;000.071;59;000.477;MIDI 01
085.960;000.039;60;000.477;MIDI 01
086.089;000.048;49;000.547;MIDI 01
086.205;000.057;61;000.484;MIDI 01
086.309;000.044;59;000.445;MIDI 01
086.111;000.291;70;000.570;MIDI 01
086.384;000.054;61;000.516;MIDI 01
086.099;000.426;79;000.641;MIDI 01
086.525;000.039;50;000.438;MIDI 01
086.110;000.525;76;000.531;MIDI 01
086.631;000.055;62;000.438;MIDI 01
086.550;000.216;69;000.430;MIDI 01
086.541;000.236;78;000.484;MIDI 01
086.734;000.057;61;000.430;MIDI 01
086.816;000.038;62;000.516;MIDI 01
086.954;000.041;47;000.516;MIDI 01
087.084;000.069;59;000.477;MIDI 01
087.186;000.056;58;000.484;MIDI 01
086.979;000.284;68;000.547;MIDI 01
087.280;000.042;59;000.484;MIDI 01
087.371;000.054;48;000.516;MIDI 01
086.966;000.470;77;000.617;MIDI 01
087.507;000.046;60;000.406;MIDI 01
087.416;000.227;67;000.469;MIDI 01
087.612;000.044;59;000.445;MIDI 01
087.414;000.282;76;000.523;MIDI 01
086.977;000.747;74;000.539;MIDI 01
087.686;000.042;60;000.484;MIDI 01
087.832;000.029;45;000.453;MIDI 01
087.951;000.056;57;000.438;MIDI 01
088.079;000.041;56;000.344;MIDI 01
088.148;000.035;57;000.391;MIDI 01
088.299;000.046;41;000.414;MIDI 01
087.856;000.516;76;000.570;MIDI 01
087.871;000.591;72;000.484;MIDI 01
088.302;000.161;74;000.492;MIDI 01
088.418;000.068;53;000.438;MIDI 01
087.874;000.616;69;000.469;MIDI 01
088.545;000.050;52;000.398;MIDI 01
088.657;000.053;53;000.352;MIDI 01
088.777;000.039;43;000.469;MIDI 01
088.904;000.047;55;000.391;MIDI 01
088.791;000.216;74;000.492;MIDI 01
089.017;000.059;54;000.328;MIDI 01
088.801;000.278;71;000.477;MIDI 01
088.799;000.282;67;000.430;MIDI 01
089.093;000.044;55;000.445;MIDI 01
089.146;000.093;65;000.469;MIDI 01
089.336;000.394;36;000.398;MIDI 01
089.327;000.767;72;000.484;MIDI 01
089.343;000.798;64;000.375;MIDI 01
089.918;000.246;48;000.336;MIDI 01
089.345;000.915;67;000.422;MIDI 01
090.874;000.169;60;000.312;MIDI 01
091.098;000.072;64;000.391;MIDI 01
090.880;000.371;36;000.133;MIDI 01
091.249;000.029;67;000.344;MIDI 01
091.355;000.099;48;000.383;MIDI 01
091.381;000.077;72;000.492;MIDI 01
091.536;000.062;76;000.453;MIDI 01
091.666;000.043;79;000.492;MIDI 01
091.808;000.112;84;000.508;MIDI 01
091.938;000.080;79;000.469;MIDI 01
092.028;000.033;77;000.516;MIDI 01
091.783;000.294;60;000.398;MIDI 01
092.109;000.016;76;000.508;MIDI 01
091.794;000.372;52;000.398;MIDI 01
092.157;000.068;77;000.484;MIDI 01
092.220;000.111;76;000.602;MIDI 01
092.344;000.055;74;000.453;MIDI 01
092.446;000.059;72;000.516;MIDI 01
092.179;000.373;48;000.383;MIDI 01
092.586;000.052;81;000.484;MIDI 01
092.619;000.065;83;000.547;MIDI 01
092.829;000.045;80;000.547;MIDI 01
092.969;000.033;81;000.523;MIDI 01
092.610;000.397;60;000.352;MIDI 01
092.608;000.445;53;000.344;MIDI 01
093.086;000.041;84;000.547;MIDI 01
093.222;000.042;83;000.570;MIDI 01
093.372;000.044;81;000.547;MIDI 01
093.074;000.415;48;000.391;MIDI 01
093.543;000.154;81;000.422;MIDI 01
093.728;000.053;78;000.500;MIDI 01
093.873;000.028;79;000.445;MIDI 01
093.575;000.334;52;000.242;MIDI 01
093.993;000.044;79;000.539;MIDI 01
093.983;000.056;48;000.453;MIDI 01
093.559;000.526;60;000.305;MIDI 01
094.129;000.049;84;000.555;MIDI 01
094.277;000.036;88;000.570;MIDI 01
094.441;000.122;88;000.477;MIDI 01
094.616;000.033;77;000.500;MIDI 01
094.485;000.223;60;000.273;MIDI 01
094.487;000.235;57;000.258;MIDI 01
094.766;000.035;77;000.445;MIDI 01
094.903;000.026;77;000.508;MIDI 01
095.045;000.042;83;000.492;MIDI 01
094.921;000.220;62;000.320;MIDI 01
094.893;000.256;59;000.391;MIDI 01
095.195;000.034;86;000.523;MIDI 01
095.346;000.125;86;000.523;MIDI 01
095.364;000.194;60;000.312;MIDI 01
095.366;000.201;64;000.312;MIDI 01
095.530;000.040;76;000.477;MIDI 01
095.670;000.042;76;000.477;MIDI 01
095.815;000.043;76;000.484;MIDI 01
095.823;000.040;60;000.289;MIDI 01
095.832;000.053;57;000.352;MIDI 01
095.948;000.037;81;000.461;MIDI 01
096.083;000.030;84;000.453;MIDI 01
096.229;000.121;84;000.484;MIDI 01
096.266;000.108;57;000.258;MIDI 01
096.275;000.112;53;000.297;MIDI 01
096.416;000.035;74;000.445;MIDI 01
096.549;000.030;81;000.438;MIDI 01
096.715;000.044;65;000.297;MIDI 01
096.720;000.093;55;000.375;MIDI 01
096.685;000.144;81;000.531;MIDI 01
096.729;000.129;59;000.266;MIDI 01
096.850;000.097;79;000.484;MIDI 01
096.999;000.028;71;000.406;MIDI 01
097.157;000.062;72;000.375;MIDI 01
097.167;000.069;60;000.375;MIDI 01
097.254;000.069;74;000.477;MIDI 01
097.359;000.041;72;000.406;MIDI 01
097.362;000.096;55;000.383;MIDI 01
097.447;000.046;74;000.469;MIDI 01
097.519;000.042;72;000.523;MIDI 01
097.554;000.046;52;000.203;MIDI 01
097.590;000.111;74;000.500;MIDI 01
097.684;000.258;72;000.430;MIDI 01
097.753;000.203;48;000.328;MIDI 01
098.388;000.174;60;000.391;MIDI 01
098.583;000.089;64;000.453;MIDI 01
098.716;000.045;67;000.438;MIDI 01
098.368;000.405;36;000.273;MIDI 01
098.851;000.119;72;000.516;MIDI 01
098.853;000.137;48;000.430;MIDI 01
098.991;000.118;76;000.516;MIDI 01
099.124;000.116;79;000.539;MIDI 01
099.266;000.132;84;000.508;MIDI 01
099.400;000.093;79;000.438;MIDI 01
099.500;000.040;77;000.516;MIDI 01
099.584;000.024;76;000.508;MIDI 01
099.279;000.378;60;000.367;MIDI 01
099.283;000.386;52;000.336;MIDI 01
099.632;000.050;77;000.492;MIDI 01
099.690;000.114;76;000.602;MIDI 01
099.808;000.076;74;000.508;MIDI 01
099.933;000.045;72;000.453;MIDI 01
099.667;000.365;48;000.406;MIDI 01
100.062;000.034;81;000.414;MIDI 01
100.118;000.054;83;000.508;MIDI 01
100.198;000.025;81;000.531;MIDI 01
100.329;000.036;80;000.562;MIDI 01
100.471;000.034;81;000.484;MIDI 01
100.074;000.467;60;000.352;MIDI 01
100.089;000.454;53;000.281;MIDI 01
100.582;000.045;84;000.539;MIDI 01
100.719;000.047;83;000.539;MIDI 01
100.855;000.049;81;000.555;MIDI 01
100.541;000.470;48;000.352;MIDI 01
101.018;000.133;81;000.531;MIDI 01
101.186;000.061;78;000.516;MIDI 01
101.316;000.034;79;000.531;MIDI 01
101.034;000.376;52;000.320;MIDI 01
101.029;000.477;60;000.328;MIDI 01
101.456;000.052;79;000.523;MIDI 01
101.457;000.066;48;000.477;MIDI 01
101.597;000.053;84;000.570;MIDI 01
101.741;000.049;88;000.617;MIDI 01
101.933;000.150;88;000.609;MIDI 01
102.124;000.037;77;000.516;MIDI 01
101.959;000.248;57;000.367;MIDI 01
101.957;000.266;60;000.336;MIDI 01
102.271;000.046;77;000.570;MIDI 01
102.415;000.054;77;000.609;MIDI 01
102.560;000.067;83;000.586;MIDI 01
102.378;000.298;62;000.445;MIDI 01
102.372;000.318;59;000.414;MIDI 01
102.690;000.067;86;000.609;MIDI 01
102.862;000.136;86;000.641;MIDI 01
103.034;000.044;76;000.562;MIDI 01
102.881;000.225;60;000.359;MIDI 01
102.890;000.240;64;000.367;MIDI 01
103.181;000.042;76;000.500;MIDI 01
103.328;000.041;76;000.570;MIDI 01
103.354;000.072;60;000.344;MIDI 01
103.358;000.095;57;000.375;MIDI 01
103.476;000.039;81;000.578;MIDI 01
103.624;000.037;84;000.594;MIDI 01
103.785;000.086;84;000.617;MIDI 01
103.796;000.143;53;000.344;MIDI 01
103.793;000.151;57;000.281;MIDI 01
103.947;000.047;74;000.539;MIDI 01
104.084;000.038;81;000.547;MIDI 01
104.253;000.100;65;000.406;MIDI 01
104.230;000.197;81;000.516;MIDI 01
104.255;000.176;55;000.359;MIDI 01
104.264;000.170;59;000.336;MIDI 01
104.395;000.108;79;000.547;MIDI 01
104.532;000.051;71;000.484;MIDI 01
104.688;000.060;72;000.438;MIDI 01
104.701;000.094;60;000.398;MIDI 01
104.802;000.054;74;000.492;MIDI 01
104.881;000.059;72;000.453;MIDI 01
104.867;000.099;55;000.398;MIDI 01
104.972;000.049;74;000.500;MIDI 01
105.017;000.067;52;000.352;MIDI 01
105.044;000.059;72;000.500;MIDI 01
105.131;000.097;74;000.516;MIDI 01
105.301;000.171;48;000.266;MIDI 01
105.241;000.276;72;000.492;MIDI 01
105.885;000.047;79;000.445;MIDI 01
105.956;000.067;81;000.523;MIDI 01
106.017;000.076;79;000.609;MIDI 01
106.202;000.043;78;000.508;MIDI 01
106.344;000.053;79;000.523;MIDI 01
105.926;000.594;64;000.188;MIDI 01
106.506;000.038;88;000.609;MIDI 01
105.933;000.735;55;000.297;MIDI 01
106.664;000.065;84;000.594;MIDI 01
106.805;000.038;79;000.562;MIDI 01
106.498;000.457;60;000.375;MIDI 01
106.982;000.162;79;000.500;MIDI 01
107.151;000.084;76;000.547;MIDI 01
107.281;000.074;77;000.547;MIDI 01
107.440;000.035;86;000.609;MIDI 01
106.984;000.605;62;000.359;MIDI 01
106.992;000.633;55;000.352;MIDI 01
107.598;000.069;83;000.594;MIDI 01
107.745;000.033;77;000.539;MIDI 01
107.451;000.456;59;000.406;MIDI 01
107.907;000.140;77;000.578;MIDI 01
108.075;000.068;75;000.547;MIDI 01
108.213;000.054;76;000.539;MIDI 01
107.940;000.353;60;000.391;MIDI 01
108.356;000.060;84;000.594;MIDI 01
108.381;000.154;64;000.367;MIDI 01
107.929;000.622;55;000.328;MIDI 01
108.514;000.053;79;000.562;MIDI 01
108.657;000.045;76;000.547;MIDI 01
108.818;000.156;76;000.484;MIDI 01
108.987;000.058;73;000.500;MIDI 01
109.139;000.052;74;000.523;MIDI 01
109.277;000.049;77;000.516;MIDI 01
108.841;000.504;65;000.336;MIDI 01
108.844;000.531;55;000.320;MIDI 01
109.448;000.035;74;000.383;MIDI 01
109.569;000.032;71;000.391;MIDI 01
109.715;000.041;79;000.430;MIDI 01
109.776;000.046;81;000.508;MIDI 01
109.846;000.022;79;000.562;MIDI 01
110.011;000.029;78;000.438;MIDI 01
110.167;000.044;79;000.508;MIDI 01
109.745;000.554;64;000.359;MIDI 01
110.315;000.046;88;000.562;MIDI 01
109.742;000.649;55;000.367;MIDI 01
110.477;000.045;85;000.531;MIDI 01
110.632;000.020;79;000.414;MIDI 01
110.290;000.455;61;000.281;MIDI 01
110.759;000.138;79;000.547;MIDI 01
110.927;000.064;76;000.523;MIDI 01
111.071;000.058;77;000.453;MIDI 01
111.203;000.040;86;000.570;MIDI 01
110.779;000.530;62;000.266;MIDI 01
110.766;000.626;55;000.305;MIDI 01
111.208;000.209;59;000.391;MIDI 01
111.359;000.060;83;000.586;MIDI 01
111.514;000.037;77;000.500;MIDI 01
111.650;000.149;77;000.547;MIDI 01
111.686;000.117;60;000.359;MIDI 01
111.675;000.136;55;000.344;MIDI 01
111.816;000.099;75;000.516;MIDI 01
111.952;000.089;76;000.602;MIDI 01
112.140;000.048;84;000.586;MIDI 01
112.130;000.171;54;000.414;MIDI 01
112.155;000.147;60;000.398;MIDI 01
112.153;000.182;57;000.344;MIDI 01
112.306;000.071;81;000.633;MIDI 01
112.485;000.042;76;000.562;MIDI 01
112.759;000.453;64;000.203;MIDI 01
112.746;000.478;79;000.508;MIDI 01
113.237;000.099;60;000.266;MIDI 01
113.224;000.150;76;000.383;MIDI 01
113.380;000.159;74;000.375;MIDI 01
113.384;000.192;59;000.328;MIDI 01
112.744;000.854;55;000.289;MIDI 01
114.040;000.071;60;000.352;MIDI 01
114.235;000.080;64;000.438;MIDI 01
114.371;000.035;67;000.445;MIDI 01
114.026;000.478;36;000.328;MIDI 01
114.504;000.081;72;000.570;MIDI 01
114.500;000.132;48;000.414;MIDI 01
114.662;000.086;76;000.578;MIDI 01
114.798;000.079;79;000.578;MIDI 01
114.950;000.112;84;000.562;MIDI 01
115.089;000.097;79;000.477;MIDI 01
115.193;000.040;77;000.531;MIDI 01
115.268;000.039;76;000.570;MIDI 01
114.939;000.394;60;000.430;MIDI 01
114.952;000.382;52;000.383;MIDI 01
115.345;000.056;77;000.516;MIDI 01
115.388;000.124;76;000.570;MIDI 01
115.519;000.069;74;000.492;MIDI 01
115.625;000.058;72;000.500;MIDI 01
115.358;000.370;48;000.414;MIDI 01
115.755;000.031;81;000.523;MIDI 01
115.802;000.051;83;000.539;MIDI 01
115.869;000.039;81;000.539;MIDI 01
116.021;000.031;80;000.539;MIDI 01
116.151;000.044;81;000.547;MIDI 01
115.770;000.497;53;000.391;MIDI 01
115.771;000.511;60;000.445;MIDI 01
116.281;000.068;84;000.602;MIDI 01
116.438;000.059;83;000.578;MIDI 01
116.583;000.050;81;000.602;MIDI 01
116.294;000.452;48;000.367;MIDI 01
116.770;000.134;81;000.508;MIDI 01
116.939;000.052;78;000.492;MIDI 01
117.073;000.039;79;000.508;MIDI 01
116.772;000.383;52;000.312;MIDI 01
117.222;000.044;79;000.477;MIDI 01
117.225;000.073;48;000.406;MIDI 01
116.774;000.554;60;000.297;MIDI 01
117.378;000.042;84;000.508;MIDI 01
117.555;000.028;88;000.344;MIDI 01
117.707;000.156;88;000.438;MIDI 01
117.925;000.030;77;000.430;MIDI 01
118.072;000.042;77;000.508;MIDI 01
117.758;000.399;60;000.250;MIDI 01
117.747;000.418;57;000.266;MIDI 01
118.215;000.041;77;000.586;MIDI 01
118.360;000.042;83;000.578;MIDI 01
118.497;000.043;86;000.602;MIDI 01
118.219;000.397;62;000.375;MIDI 01
118.193;000.442;59;000.367;MIDI 01
118.671;000.097;86;000.625;MIDI 01
118.827;000.036;76;000.484;MIDI 01
118.714;000.225;60;000.297;MIDI 01
118.983;000.027;76;000.461;MIDI 01
118.699;000.348;64;000.352;MIDI 01
119.122;000.037;76;000.500;MIDI 01
119.177;000.049;60;000.297;MIDI 01
119.181;000.064;57;000.367;MIDI 01
119.287;000.030;81;000.508;MIDI 01
119.439;000.028;84;000.562;MIDI 01
119.598;000.133;84;000.469;MIDI 01
119.665;000.101;53;000.297;MIDI 01
119.661;000.115;57;000.289;MIDI 01
119.786;000.033;74;000.508;MIDI 01
119.943;000.018;81;000.477;MIDI 01
120.122;000.054;65;000.344;MIDI 01
120.128;000.117;55;000.328;MIDI 01
120.095;000.164;81;000.516;MIDI 01
120.150;000.110;59;000.164;MIDI 01
120.266;000.108;79;000.508;MIDI 01
120.416;000.029;71;000.453;MIDI 01
120.599;000.061;72;000.398;MIDI 01
120.619;000.075;60;000.320;MIDI 01
120.713;000.068;74;000.477;MIDI 01
120.808;000.053;72;000.438;MIDI 01
120.819;000.094;55;000.391;MIDI 01
120.904;000.052;74;000.469;MIDI 01
120.973;000.068;72;000.484;MIDI 01
121.030;000.045;52;000.266;MIDI 01
121.086;000.124;74;000.492;MIDI 01
121.215;000.408;72;000.492;MIDI 01
121.299;000.343;48;000.273;MIDI 01
122.376;000.097;64;000.344;MIDI 01
122.383;000.121;36;000.297;MIDI 01
122.385;000.215;67;000.359;MIDI 01
122.348;000.267;72;000.516;MIDI 01
122.556;000.075;40;000.258;MIDI 01
122.699;000.070;43;000.398;MIDI 01
122.836;000.067;48;000.422;MIDI 01
122.814;000.224;72;000.625;MIDI 01
122.982;000.074;52;000.375;MIDI 01
123.123;000.052;48;000.320;MIDI 01
123.250;000.079;72;000.500;MIDI 01
123.253;000.102;36;000.492;MIDI 01
123.246;000.211;76;000.508;MIDI 01
123.415;000.054;40;000.344;MIDI 01
123.229;000.246;79;000.578;MIDI 01
123.518;000.051;43;000.469;MIDI 01
123.657;000.068;48;000.469;MIDI 01
123.772;000.108;52;000.430;MIDI 01
123.911;000.044;48;000.492;MIDI 01
124.057;000.096;36;000.508;MIDI 01
124.242;000.071;41;000.461;MIDI 01
124.376;000.060;45;000.461;MIDI 01
123.648;000.884;79;000.617;MIDI 01
124.522;000.039;48;000.375;MIDI 01
124.071;000.613;72;000.523;MIDI 01
124.643;000.066;53;000.430;MIDI 01
124.073;000.637;81;000.609;MIDI 01
124.770;000.041;48;000.453;MIDI 01
124.496;000.440;77;000.477;MIDI 01
124.912;000.069;36;000.500;MIDI 01
125.069;000.071;40;000.414;MIDI 01
125.201;000.068;43;000.484;MIDI 01
124.900;000.463;79;000.586;MIDI 01
125.341;000.057;48;000.422;MIDI 01
125.475;000.066;52;000.375;MIDI 01
125.586;000.040;48;000.430;MIDI 01
125.726;000.035;33;000.516;MIDI 01
125.311;000.486;76;000.539;MIDI 01
124.915;000.894;72;000.492;MIDI 01
125.730;000.092;77;000.562;MIDI 01
125.890;000.036;44;000.484;MIDI 01
125.996;000.039;45;000.531;MIDI 01
126.140;000.032;35;000.516;MIDI 01
126.325;000.062;46;000.477;MIDI 01
126.442;000.055;47;000.500;MIDI 01
126.565;000.031;36;000.555;MIDI 01
126.143;000.514;77;000.609;MIDI 01
126.153;000.590;67;000.500;MIDI 01
126.724;000.073;47;000.477;MIDI 01
126.580;000.230;76;000.586;MIDI 01
126.146;000.679;74;000.539;MIDI 01
126.822;000.044;48;000.562;MIDI 01
126.981;000.036;33;000.531;MIDI 01
127.160;000.068;44;000.469;MIDI 01
127.260;000.032;45;000.469;MIDI 01
127.416;000.045;29;000.406;MIDI 01
126.979;000.533;76;000.625;MIDI 01
127.002;000.528;72;000.555;MIDI 01
127.004;000.527;69;000.562;MIDI 01
127.470;000.066;31;000.156;MIDI 01
127.414;000.133;74;000.570;MIDI 01
127.554;000.095;40;000.492;MIDI 01
127.682;000.049;41;000.555;MIDI 01
127.845;000.043;31;000.422;MIDI 01
127.871;000.048;33;000.359;MIDI 01
127.832;000.117;74;000.641;MIDI 01
127.840;000.111;65;000.594;MIDI 01
127.842;000.112;71;000.562;MIDI 01
127.991;000.067;42;000.492;MIDI 01
128.114;000.042;43;000.539;MIDI 01
128.258;000.041;36;000.555;MIDI 01
128.415;000.042;40;000.523;MIDI 01
128.589;000.034;43;000.430;MIDI 01
128.766;000.046;48;000.367;MIDI 01
128.260;000.568;64;000.531;MIDI 01
128.254;000.585;72;000.594;MIDI 01
128.266;000.616;67;000.516;MIDI 01
129.255;000.049;64;000.375;MIDI 01
129.231;000.077;36;000.367;MIDI 01
129.261;000.049;67;000.375;MIDI 01
129.255;000.064;72;000.477;MIDI 01
129.496;000.067;43;000.422;MIDI 01
129.656;000.057;48;000.430;MIDI 01
129.666;000.051;72;000.531;MIDI 01
129.789;000.075;52;000.352;MIDI 01
129.905;000.052;48;000.438;MIDI 01
130.088;000.025;72;000.461;MIDI 01
130.080;000.037;76;000.469;MIDI 01
130.073;000.073;79;000.562;MIDI 01
130.061;000.086;36;000.492;MIDI 01
130.231;000.049;40;000.352;MIDI 01
130.335;000.067;43;000.477;MIDI 01
130.479;000.061;48;000.430;MIDI 01
130.620;000.073;52;000.383;MIDI 01
130.746;000.040;48;000.445;MIDI 01
130.890;000.094;36;000.484;MIDI 01
131.054;000.093;41;000.453;MIDI 01
131.200;000.053;45;000.414;MIDI 01
130.488;000.836;79;000.594;MIDI 01
131.330;000.033;48;000.383;MIDI 01
130.900;000.535;72;000.461;MIDI 01
131.457;000.060;53;000.398;MIDI 01
130.898;000.676;81;000.570;MIDI 01
131.572;000.065;48;000.391;MIDI 01
131.323;000.471;77;000.469;MIDI 01
131.725;000.101;36;000.453;MIDI 01
131.889;000.065;40;000.414;MIDI 01
132.007;000.077;43;000.461;MIDI 01
132.152;000.052;48;000.406;MIDI 01
131.745;000.463;79;000.562;MIDI 01
132.290;000.064;52;000.328;MIDI 01
132.399;000.034;48;000.438;MIDI 01
132.560;000.037;33;000.422;MIDI 01
132.154;000.469;76;000.461;MIDI 01
131.747;000.888;72;000.492;MIDI 01
132.578;000.064;77;000.523;MIDI 01
132.716;000.050;44;000.414;MIDI 01
132.843;000.039;45;000.367;MIDI 01
132.961;000.043;35;000.523;MIDI 01
133.152;000.045;46;000.398;MIDI 01
133.267;000.055;47;000.461;MIDI 01
133.386;000.036;36;000.523;MIDI 01
133.000;000.525;77;000.594;MIDI 01
133.009;000.608;67;000.484;MIDI 01
133.555;000.089;47;000.438;MIDI 01
133.433;000.237;76;000.578;MIDI 01
133.002;000.681;74;000.539;MIDI 01
133.668;000.045;48;000.539;MIDI 01
133.830;000.039;33;000.438;MIDI 01
133.993;000.061;44;000.445;MIDI 01
134.090;000.035;45;000.500;MIDI 01
134.238;000.060;29;000.531;MIDI 01
133.825;000.543;76;000.648;MIDI 01
133.839;000.565;72;000.586;MIDI 01
133.846;000.569;69;000.578;MIDI 01
134.255;000.164;74;000.586;MIDI 01
134.391;000.078;40;000.500;MIDI 01
134.523;000.069;41;000.539;MIDI 01
134.656;000.037;31;000.562;MIDI 01
134.665;000.207;74;000.641;MIDI 01
134.802;000.078;42;000.500;MIDI 01
134.665;000.248;65;000.555;MIDI 01
134.660;000.254;71;000.570;MIDI 01
134.942;000.028;43;000.508;MIDI 01
135.077;000.046;36;000.547;MIDI 01
135.236;000.044;40;000.547;MIDI 01
135.391;000.043;43;000.516;MIDI 01
135.099;000.466;64;000.461;MIDI 01
135.591;000.058;48;000.414;MIDI 01
135.094;000.588;67;000.500;MIDI 01
135.085;000.606;72;000.555;MIDI 01
136.203;000.088;43;000.273;MIDI 01
136.348;000.051;48;000.273;MIDI 01
136.194;000.240;79;000.398;MIDI 01
136.201;000.255;76;000.367;MIDI 01
136.445;000.090;52;000.469;MIDI 01
136.576;000.042;55;000.445;MIDI 01
136.723;000.107;60;000.500;MIDI 01
136.870;000.065;64;000.500;MIDI 01
136.997;000.088;67;000.492;MIDI 01
136.610;000.485;79;000.586;MIDI 01
137.148;000.057;66;000.414;MIDI 01
137.256;000.039;67;000.422;MIDI 01
136.614;000.826;76;000.555;MIDI 01
137.405;000.109;55;000.359;MIDI 01
137.562;000.107;57;000.367;MIDI 01
137.700;000.070;59;000.445;MIDI 01
137.032;000.842;77;000.602;MIDI 01
137.828;000.070;60;000.414;MIDI 01
137.931;000.076;59;000.484;MIDI 01
138.065;000.046;60;000.445;MIDI 01
137.420;000.824;74;000.492;MIDI 01
138.206;000.105;48;000.391;MIDI 01
138.351;000.112;52;000.461;MIDI 01
137.817;000.669;76;000.578;MIDI 01
138.196;000.294;72;000.500;MIDI 01
138.489;000.056;53;000.422;MIDI 01
138.490;000.121;81;000.602;MIDI 01
138.598;000.091;55;000.492;MIDI 01
138.616;000.160;72;000.547;MIDI 01
138.744;000.088;54;000.391;MIDI 01
138.854;000.068;55;000.492;MIDI 01
138.595;000.397;76;000.625;MIDI 01
138.992;000.040;43;000.445;MIDI 01
138.986;000.053;74;000.508;MIDI 01
139.012;000.045;71;000.266;MIDI 01
139.146;000.039;76;000.547;MIDI 01
139.272;000.043;77;000.531;MIDI 01
139.417;000.032;79;000.500;MIDI 01
139.426;000.077;43;000.367;MIDI 01
139.572;000.055;48;000.281;MIDI 01
139.680;000.065;52;000.430;MIDI 01
139.804;000.046;55;000.461;MIDI 01
139.957;000.055;60;000.336;MIDI 01
140.079;000.059;64;000.422;MIDI 01
139.795;000.451;79;000.531;MIDI 01
140.206;000.065;67;000.461;MIDI 01
140.343;000.055;66;000.359;MIDI 01
140.461;000.042;67;000.359;MIDI 01
139.797;000.784;76;000.477;MIDI 01
140.610;000.080;55;000.352;MIDI 01
140.748;000.091;57;000.383;MIDI 01
140.900;000.033;59;000.391;MIDI 01
140.203;000.798;77;000.508;MIDI 01
141.000;000.056;60;000.367;MIDI 01
141.098;000.103;59;000.375;MIDI 01
141.248;000.046;60;000.406;MIDI 01
140.582;000.794;74;000.430;MIDI 01
140.946;000.434;76;000.531;MIDI 01
141.365;000.115;48;000.430;MIDI 01
141.518;000.080;52;000.406;MIDI 01
141.365;000.273;72;000.469;MIDI 01
141.660;000.052;53;000.398;MIDI 01
141.645;000.105;81;000.539;MIDI 01
141.750;000.073;55;000.477;MIDI 01
141.758;000.182;72;000.539;MIDI 01
141.900;000.052;54;000.320;MIDI 01
141.999;000.078;55;000.422;MIDI 01
141.729;000.428;76;000.609;MIDI 01
142.135;000.033;43;000.477;MIDI 01
142.153;000.040;71;000.398;MIDI 01
142.133;000.064;74;000.508;MIDI 01
142.286;000.036;77;000.539;MIDI 01
142.407;000.040;74;000.539;MIDI 01
142.599;000.086;36;000.383;MIDI 01
142.613;000.106;64;000.430;MIDI 01
142.764;000.054;40;000.219;MIDI 01
142.601;000.268;72;000.539;MIDI 01
142.636;000.259;67;000.406;MIDI 01
142.868;000.066;43;000.398;MIDI 01
143.007;000.050;48;000.422;MIDI 01
143.154;000.071;52;000.359;MIDI 01
143.027;000.230;72;000.609;MIDI 01
143.257;000.058;48;000.500;MIDI 01
143.422;000.108;36;000.414;MIDI 01
143.454;000.150;72;000.516;MIDI 01
143.559;000.104;40;000.398;MIDI 01
143.449;000.261;76;000.531;MIDI 01
143.434;000.285;79;000.578;MIDI 01
143.675;000.079;43;000.477;MIDI 01
143.823;000.066;48;000.438;MIDI 01
143.950;000.100;52;000.391;MIDI 01
144.069;000.058;48;000.516;MIDI 01
144.224;000.141;36;000.492;MIDI 01
144.396;000.097;41;000.406;MIDI 01
144.547;000.051;45;000.438;MIDI 01
143.846;000.764;79;000.609;MIDI 01
144.672;000.051;48;000.312;MIDI 01
144.243;000.485;72;000.531;MIDI 01
144.235;000.505;81;000.617;MIDI 01
144.776;000.054;53;000.398;MIDI 01
144.884;000.073;48;000.383;MIDI 01
144.659;000.448;77;000.414;MIDI 01
145.053;000.121;36;000.484;MIDI 01
145.211;000.103;40;000.367;MIDI 01
145.339;000.076;43;000.430;MIDI 01
145.050;000.446;79;000.562;MIDI 01
145.475;000.053;48;000.430;MIDI 01
145.596;000.067;52;000.375;MIDI 01
145.695;000.041;48;000.492;MIDI 01
145.839;000.050;33;000.523;MIDI 01
145.078;000.861;72;000.492;MIDI 01
145.477;000.473;76;000.531;MIDI 01
145.851;000.118;77;000.562;MIDI 01
146.010;000.067;44;000.453;MIDI 01
146.120;000.071;45;000.523;MIDI 01
146.268;000.034;35;000.500;MIDI 01
146.450;000.064;46;000.461;MIDI 01
146.570;000.061;47;000.461;MIDI 01
146.684;000.043;36;000.562;MIDI 01
146.254;000.518;77;000.617;MIDI 01
146.270;000.582;67;000.531;MIDI 01
146.846;000.077;47;000.477;MIDI 01
146.686;000.238;76;000.594;MIDI 01
146.257;000.699;74;000.562;MIDI 01
146.938;000.042;48;000.555;MIDI 01
147.090;000.037;33;000.562;MIDI 01
147.273;000.076;44;000.539;MIDI 01
147.389;000.032;45;000.484;MIDI 01
147.521;000.059;29;000.578;MIDI 01
147.092;000.549;76;000.609;MIDI 01
147.109;000.590;69;000.586;MIDI 01
147.101;000.619;72;000.609;MIDI 01
147.528;000.200;74;000.586;MIDI 01
147.685;000.093;40;000.555;MIDI 01
147.840;000.065;41;000.531;MIDI 01
147.970;000.041;31;000.555;MIDI 01
148.148;000.053;42;000.477;MIDI 01
147.986;000.231;74;000.617;MIDI 01
147.998;000.245;65;000.570;MIDI 01
147.990;000.276;71;000.539;MIDI 01
148.277;000.032;43;000.500;MIDI 01
148.436;000.056;36;000.523;MIDI 01
148.633;000.044;40;000.477;MIDI 01
148.839;000.031;43;000.414;MIDI 01
148.480;000.812;64;000.422;MIDI 01
148.482;000.867;72;000.445;MIDI 01
149.093;000.267;48;000.312;MIDI 01
148.475;000.925;67;000.445;MIDI 01
150.592;000.080;60;000.250;MIDI 01
150.333;000.504;72;000.383;MIDI 01
151.055;000.072;72;000.406;MIDI 01
150.821;000.423;64;000.297;MIDI 01
151.528;000.104;64;000.367;MIDI 01
151.298;000.530;79;000.562;MIDI 01
151.759;000.284;60;000.383;MIDI 01
151.974;000.097;79;000.570;MIDI 01
152.445;000.059;65;000.352;MIDI 01
152.223;000.498;81;000.594;MIDI 01
152.662;000.266;60;000.406;MIDI 01
152.889;000.089;81;000.492;MIDI 01
153.345;000.064;64;000.375;MIDI 01
153.113;000.397;79;000.562;MIDI 01
153.572;000.181;60;000.344;MIDI 01
153.804;000.107;79;000.438;MIDI 01
153.807;000.107;76;000.453;MIDI 01
154.044;000.064;62;000.367;MIDI 01
154.230;000.152;77;000.453;MIDI 01
154.234;000.158;76;000.438;MIDI 01
154.471;000.071;59;000.453;MIDI 01
154.694;000.140;74;000.438;MIDI 01
154.673;000.166;77;000.477;MIDI 01
154.906;000.064;60;000.406;MIDI 01
155.129;000.118;74;000.484;MIDI 01
155.116;000.135;76;000.469;MIDI 01
155.335;000.096;57;000.438;MIDI 01
155.551;000.130;72;000.430;MIDI 01
155.532;000.164;76;000.500;MIDI 01
155.761;000.150;53;000.461;MIDI 01
155.975;000.119;74;000.453;MIDI 01
155.973;000.145;72;000.406;MIDI 01
156.199;000.119;55;000.406;MIDI 01
156.400;000.054;71;000.469;MIDI 01
156.397;000.111;74;000.445;MIDI 01
156.858;000.040;60;000.391;MIDI 01
156.642;000.558;72;000.461;MIDI 01
157.120;000.281;48;000.336;MIDI 01
157.839;000.050;60;000.312;MIDI 01
157.598;000.441;72;000.391;MIDI 01
158.304;000.040;72;000.320;MIDI 01
158.083;000.317;64;000.289;MIDI 01
158.738;000.053;64;000.352;MIDI 01
158.540;000.477;79;000.359;MIDI 01
158.977;000.282;60;000.367;MIDI 01
159.197;000.098;79;000.500;MIDI 01
159.723;000.056;65;000.305;MIDI 01
159.486;000.478;81;000.492;MIDI 01
159.965;000.217;60;000.336;MIDI 01
160.181;000.058;81;000.453;MIDI 01
160.645;000.062;64;000.297;MIDI 01
160.417;000.293;79;000.438;MIDI 01
160.903;000.147;60;000.289;MIDI 01
161.119;000.052;76;000.328;MIDI 01
161.115;000.058;79;000.359;MIDI 01
161.336;000.039;62;000.367;MIDI 01
161.570;000.051;77;000.297;MIDI 01
161.579;000.049;76;000.281;MIDI 01
161.790;000.044;59;000.352;MIDI 01
161.995;000.067;77;000.320;MIDI 01
162.011;000.055;74;000.219;MIDI 01
162.211;000.041;60;000.461;MIDI 01
162.421;000.060;74;000.289;MIDI 01
162.423;000.064;76;000.273;MIDI 01
162.651;000.040;57;000.453;MIDI 01
162.859;000.064;76;000.391;MIDI 01
162.859;000.066;72;000.336;MIDI 01
163.095;000.042;53;000.445;MIDI 01
163.346;000.050;74;000.281;MIDI 01
163.343;000.081;72;000.312;MIDI 01
163.528;000.032;55;000.500;MIDI 01
163.751;000.043;71;000.312;MIDI 01
163.731;000.080;74;000.344;MIDI 01
164.186;000.036;60;000.414;MIDI 01
163.997;000.549;72;000.398;MIDI 01
164.449;000.309;48;000.289;MIDI 01
165.186;000.060;64;000.297;MIDI 01
164.953;000.519;79;000.469;MIDI 01
165.410;000.374;55;000.414;MIDI 01
165.640;000.304;79;000.523;MIDI 01
166.129;000.052;62;000.328;MIDI 01
165.882;000.449;78;000.477;MIDI 01
166.367;000.280;55;000.375;MIDI 01
166.561;000.314;77;000.523;MIDI 01
167.053;000.079;60;000.312;MIDI 01
166.825;000.493;76;000.500;MIDI 01
167.293;000.258;55;000.297;MIDI 01
167.508;000.206;75;000.406;MIDI 01
167.949;000.065;59;000.336;MIDI 01
167.750;000.458;74;000.391;MIDI 01
168.213;000.225;55;000.266;MIDI 01
168.421;000.057;67;000.398;MIDI 01
168.912;000.074;64;000.203;MIDI 01
168.675;000.474;79;000.430;MIDI 01
169.157;000.247;55;000.273;MIDI 01
169.390;000.060;79;000.383;MIDI 01
169.476;000.103;78;000.422;MIDI 01
169.838;000.072;62;000.328;MIDI 01
169.583;000.468;77;000.430;MIDI 01
170.094;000.251;55;000.281;MIDI 01
170.306;000.073;77;000.375;MIDI 01
170.411;000.085;76;000.438;MIDI 01
170.760;000.061;60;000.305;MIDI 01
170.504;000.520;75;000.445;MIDI 01
171.259;000.082;78;000.391;MIDI 01
171.037;000.331;55;000.172;MIDI 01
171.359;000.080;79;000.422;MIDI 01
171.715;000.061;59;000.352;MIDI 01
171.479;000.482;74;000.430;MIDI 01
171.979;000.330;55;000.297;MIDI 01
172.249;000.072;77;000.359;MIDI 01
172.361;000.082;74;000.398;MIDI 01
172.749;000.093;48;000.312;MIDI 01
172.881;000.073;52;000.289;MIDI 01
172.503;000.509;72;000.305;MIDI 01
172.996;000.319;55;000.359;MIDI 01
173.246;000.073;72;000.391;MIDI 01
173.346;000.117;76;000.469;MIDI 01
173.692;000.070;60;000.328;MIDI 01
173.468;000.422;79;000.461;MIDI 01
173.792;000.104;64;000.438;MIDI 01
174.174;000.078;79;000.445;MIDI 01
173.924;000.356;67;000.430;MIDI 01
174.278;000.104;76;000.539;MIDI 01
174.643;000.097;65;000.383;MIDI 01
174.760;000.069;69;000.484;MIDI 01
174.397;000.510;81;000.602;MIDI 01
174.871;000.309;60;000.500;MIDI 01
175.132;000.100;81;000.508;MIDI 01
175.231;000.145;84;000.578;MIDI 01
175.346;000.322;79;000.602;MIDI 01
175.572;000.099;64;000.422;MIDI 01
175.691;000.096;67;000.500;MIDI 01
175.815;000.248;60;000.406;MIDI 01
176.047;000.093;76;000.438;MIDI 01
176.165;000.026;79;000.359;MIDI 01
176.274;000.037;62;000.406;MIDI 01
176.508;000.067;79;000.305;MIDI 01
176.616;000.036;78;000.398;MIDI 01
176.711;000.041;59;000.484;MIDI 01
176.950;000.055;74;000.328;MIDI 01
177.057;000.040;77;000.406;MIDI 01
177.144;000.040;60;000.500;MIDI 01
177.358;000.105;77;000.414;MIDI 01
177.482;000.037;76;000.414;MIDI 01
177.565;000.049;52;000.461;MIDI 01
177.776;000.098;79;000.406;MIDI 01
177.883;000.044;76;000.484;MIDI 01
178.000;000.033;53;000.477;MIDI 01
178.230;000.075;73;000.383;MIDI 01
178.347;000.049;74;000.422;MIDI 01
178.466;000.039;55;000.445;MIDI 01
178.715;000.083;77;000.352;MIDI 01
178.830;000.041;74;000.398;MIDI 01
178.973;000.055;60;000.344;MIDI 01
179.219;000.099;71;000.320;MIDI 01
179.383;000.043;72;000.250;MIDI 01
179.543;000.248;48;000.258;MIDI 01
180.676;000.057;64;000.234;MIDI 01
180.674;000.064;48;000.328;MIDI 01
180.670;000.068;67;000.258;MIDI 01
180.664;000.082;72;000.336;MIDI 01
180.802;000.037;47;000.305;MIDI 01
180.881;000.069;48;000.453;MIDI 01
180.997;000.074;47;000.305;MIDI 01
181.114;000.058;64;000.383;MIDI 01
181.117;000.064;67;000.375;MIDI 01
181.104;000.090;48;000.414;MIDI 01
181.117;000.127;72;000.445;MIDI 01
181.233;000.057;47;000.367;MIDI 01
181.333;000.061;48;000.445;MIDI 01
181.445;000.092;47;000.398;MIDI 01
181.547;000.079;72;000.445;MIDI 01
181.541;000.102;48;000.406;MIDI 01
181.545;000.105;76;000.445;MIDI 01
181.530;000.152;79;000.500;MIDI 01
181.672;000.058;47;000.398;MIDI 01
181.759;000.129;48;000.453;MIDI 01
181.865;000.060;47;000.430;MIDI 01
181.974;000.069;72;000.383;MIDI 01
181.970;000.078;76;000.445;MIDI 01
181.961;000.142;79;000.531;MIDI 01
182.039;000.083;50;000.445;MIDI 01
182.154;000.054;52;000.438;MIDI 01
182.230;000.123;48;000.438;MIDI 01
182.371;000.084;53;000.461;MIDI 01
182.384;000.160;72;000.508;MIDI 01
182.491;000.062;52;000.469;MIDI 01
182.379;000.217;81;000.570;MIDI 01
182.382;000.228;79;000.500;MIDI 01
182.593;000.053;53;000.477;MIDI 01
182.675;000.097;52;000.492;MIDI 01
182.772;000.083;53;000.484;MIDI 01
182.814;000.141;72;000.555;MIDI 01
182.816;000.155;77;000.508;MIDI 01
182.805;000.166;81;000.594;MIDI 01
182.887;000.090;55;000.445;MIDI 01
183.004;000.101;57;000.477;MIDI 01
183.114;000.080;59;000.523;MIDI 01
183.222;000.092;60;000.516;MIDI 01
183.224;000.129;72;000.578;MIDI 01
183.220;000.200;79;000.586;MIDI 01
183.218;000.207;77;000.578;MIDI 01
183.352;000.083;59;000.492;MIDI 01
183.466;000.056;60;000.539;MIDI 01
183.552;000.078;59;000.516;MIDI 01
183.628;000.103;76;000.555;MIDI 01
183.630;000.117;72;000.555;MIDI 01
183.630;000.119;79;000.539;MIDI 01
183.651;000.110;60;000.539;MIDI 01
183.782;000.097;62;000.477;MIDI 01
183.879;000.084;64;000.508;MIDI 01
183.986;000.082;60;000.445;MIDI 01
184.101;000.065;62;000.516;MIDI 01
184.048;000.128;69;000.547;MIDI 01
184.044;000.158;77;000.547;MIDI 01
184.046;000.186;76;000.562;MIDI 01
184.191;000.081;61;000.555;MIDI 01
184.291;000.058;62;000.531;MIDI 01
184.399;000.086;60;000.531;MIDI 01
184.455;000.126;77;000.625;MIDI 01
184.497;000.085;59;000.469;MIDI 01
184.460;000.127;67;000.570;MIDI 01
184.463;000.142;74;000.555;MIDI 01
184.602;000.098;57;000.484;MIDI 01
184.692;000.121;59;000.484;MIDI 01
184.807;000.075;55;000.461;MIDI 01
184.897;000.091;60;000.539;MIDI 01
184.886;000.121;67;000.547;MIDI 01
184.880;000.205;76;000.578;MIDI 01
185.007;000.080;59;000.477;MIDI 01
184.882;000.208;74;000.586;MIDI 01
185.108;000.057;60;000.492;MIDI 01
185.203;000.066;59;000.477;MIDI 01
185.312;000.056;57;000.508;MIDI 01
185.302;000.155;69;000.555;MIDI 01
185.295;000.177;76;000.586;MIDI 01
185.300;000.184;72;000.531;MIDI 01
185.422;000.065;56;000.523;MIDI 01
185.505;000.108;57;000.492;MIDI 01
185.635;000.097;55;000.492;MIDI 01
185.746;000.078;53;000.492;MIDI 01
185.743;000.114;69;000.555;MIDI 01
185.722;000.141;74;000.602;MIDI 01
185.732;000.137;65;000.547;MIDI 01
185.860;000.074;52;000.430;MIDI 01
185.934;000.095;53;000.461;MIDI 01
186.055;000.060;50;000.484;MIDI 01
186.152;000.090;62;000.555;MIDI 01
186.164;000.090;55;000.539;MIDI 01
186.154;000.101;65;000.570;MIDI 01
186.145;000.150;71;000.609;MIDI 01
186.275;000.067;54;000.523;MIDI 01
186.372;000.048;55;000.516;MIDI 01
186.472;000.040;43;000.547;MIDI 01
186.594;000.078;48;000.547;MIDI 01
186.703;000.085;43;000.398;MIDI 01
186.819;000.055;40;000.438;MIDI 01
186.944;000.036;43;000.406;MIDI 01
186.581;000.575;64;000.531;MIDI 01
186.577;000.639;72;000.570;MIDI 01
186.582;000.707;67;000.523;MIDI 01
187.053;000.250;36;000.484;MIDI 01
187.583;000.096;48;000.477;MIDI 01
187.728;000.050;47;000.359;MIDI 01
187.581;000.199;64;000.445;MIDI 01
187.564;000.251;72;000.555;MIDI 01
187.578;000.264;67;000.484;MIDI 01
187.832;000.047;48;000.414;MIDI 01
187.925;000.074;47;000.422;MIDI 01
188.019;000.078;48;000.430;MIDI 01
188.041;000.058;64;000.484;MIDI 01
188.145;000.058;47;000.430;MIDI 01
188.031;000.183;67;000.500;MIDI 01
188.025;000.235;72;000.578;MIDI 01
188.236;000.083;48;000.500;MIDI 01
188.347;000.099;47;000.430;MIDI 01
188.469;000.079;48;000.492;MIDI 01
188.474;000.133;72;000.531;MIDI 01
188.590;000.061;47;000.477;MIDI 01
188.476;000.196;76;000.516;MIDI 01
188.457;000.225;79;000.602;MIDI 01
188.670;000.070;48;000.492;MIDI 01
188.775;000.100;47;000.523;MIDI 01
188.879;000.079;48;000.555;MIDI 01
188.889;000.135;72;000.547;MIDI 01
188.974;000.099;50;000.484;MIDI 01
188.873;000.210;76;000.578;MIDI 01
188.875;000.244;79;000.562;MIDI 01
189.106;000.065;52;000.500;MIDI 01
189.184;000.101;48;000.477;MIDI 01
189.304;000.089;53;000.508;MIDI 01
189.422;000.073;52;000.492;MIDI 01
189.308;000.240;72;000.578;MIDI 01
189.300;000.269;81;000.641;MIDI 01
189.518;000.055;53;000.500;MIDI 01
189.297;000.297;79;000.586;MIDI 01
189.610;000.090;52;000.492;MIDI 01
189.704;000.055;53;000.461;MIDI 01
189.727;000.144;72;000.570;MIDI 01
189.713;000.162;81;000.617;MIDI 01
189.793;000.103;55;000.492;MIDI 01
189.724;000.186;77;000.531;MIDI 01
189.928;000.088;57;000.469;MIDI 01
190.028;000.071;59;000.500;MIDI 01
190.115;000.089;60;000.523;MIDI 01
190.120;000.113;72;000.555;MIDI 01
190.246;000.040;59;000.461;MIDI 01
190.122;000.166;79;000.562;MIDI 01
190.118;000.191;77;000.555;MIDI 01
190.324;000.059;60;000.438;MIDI 01
190.409;000.079;59;000.461;MIDI 01
190.536;000.075;72;000.555;MIDI 01
190.527;000.090;76;000.562;MIDI 01
190.503;000.122;60;000.531;MIDI 01
190.531;000.099;79;000.578;MIDI 01
190.674;000.079;62;000.352;MIDI 01
190.724;000.112;64;000.055;MIDI 01
190.846;000.072;60;000.500;MIDI 01
190.930;000.057;69;000.617;MIDI 01
190.938;000.052;77;000.539;MIDI 01
190.928;000.086;76;000.617;MIDI 01
190.952;000.086;62;000.562;MIDI 01
191.045;000.081;61;000.547;MIDI 01
191.136;000.110;62;000.500;MIDI 01
191.269;000.093;60;000.500;MIDI 01
191.349;000.030;67;000.602;MIDI 01
191.351;000.041;74;000.586;MIDI 01
191.343;000.061;77;000.625;MIDI 01
191.366;000.085;59;000.508;MIDI 01
191.471;000.095;57;000.477;MIDI 01
191.553;000.145;59;000.516;MIDI 01
191.676;000.065;55;000.484;MIDI 01
191.759;000.034;67;000.578;MIDI 01
191.761;000.052;76;000.586;MIDI 01
191.756;000.083;74;000.617;MIDI 01
191.768;000.096;60;000.586;MIDI 01
191.891;000.079;59;000.500;MIDI 01
191.981;000.078;60;000.508;MIDI 01
192.078;000.071;59;000.500;MIDI 01
192.155;000.045;69;000.586;MIDI 01
192.159;000.054;72;000.594;MIDI 01
192.153;000.064;76;000.625;MIDI 01
192.194;000.057;57;000.547;MIDI 01
192.302;000.055;56;000.492;MIDI 01
192.384;000.097;57;000.492;MIDI 01
192.504;000.116;55;000.508;MIDI 01
192.585;000.059;65;000.586;MIDI 01
192.590;000.057;69;000.578;MIDI 01
192.576;000.078;74;000.617;MIDI 01
192.624;000.074;53;000.500;MIDI 01
192.728;000.081;52;000.453;MIDI 01
192.809;000.082;53;000.445;MIDI 01
192.902;000.080;50;000.547;MIDI 01
193.019;000.060;62;000.570;MIDI 01
193.021;000.058;65;000.555;MIDI 01
193.011;000.079;55;000.562;MIDI 01
193.017;000.103;71;000.586;MIDI 01
193.119;000.047;54;000.508;MIDI 01
193.217;000.056;55;000.523;MIDI 01
193.324;000.032;43;000.516;MIDI 01
193.448;000.081;48;000.508;MIDI 01
193.571;000.089;43;000.453;MIDI 01
193.690;000.084;40;000.445;MIDI 01
193.806;000.055;43;000.414;MIDI 01
193.429;000.522;64;000.547;MIDI 01
193.432;000.521;72;000.633;MIDI 01
193.428;000.552;67;000.547;MIDI 01
193.923;000.072;36;000.508;MIDI 01
194.482;000.105;55;000.367;MIDI 01
194.654;000.053;54;000.320;MIDI 01
194.480;000.316;52;000.258;MIDI 01
194.507;000.294;43;000.258;MIDI 01
194.766;000.069;55;000.414;MIDI 01
194.861;000.051;54;000.414;MIDI 01
194.956;000.073;55;000.484;MIDI 01
195.053;000.086;54;000.453;MIDI 01
194.946;000.250;52;000.414;MIDI 01
194.949;000.304;43;000.383;MIDI 01
195.197;000.062;55;000.414;MIDI 01
195.290;000.050;54;000.453;MIDI 01
195.401;000.084;55;000.438;MIDI 01
195.440;000.121;50;000.219;MIDI 01
195.493;000.093;54;000.414;MIDI 01
195.404;000.260;43;000.406;MIDI 01
195.392;000.275;53;000.469;MIDI 01
195.621;000.061;55;000.367;MIDI 01
195.702;000.061;54;000.414;MIDI 01
195.814;000.068;55;000.539;MIDI 01
195.819;000.196;53;000.555;MIDI 01
195.950;000.076;57;000.414;MIDI 01
195.836;000.198;43;000.438;MIDI 01
195.872;000.218;50;000.164;MIDI 01
196.034;000.082;59;000.430;MIDI 01
196.155;000.046;55;000.445;MIDI 01
196.258;000.085;60;000.430;MIDI 01
196.384;000.064;59;000.414;MIDI 01
196.481;000.049;60;000.445;MIDI 01
196.256;000.277;48;000.422;MIDI 01
196.244;000.294;43;000.367;MIDI 01
196.238;000.311;52;000.500;MIDI 01
196.593;000.057;62;000.508;MIDI 01
196.701;000.054;64;000.500;MIDI 01
196.793;000.097;62;000.461;MIDI 01
196.689;000.244;52;000.578;MIDI 01
196.697;000.251;43;000.438;MIDI 01
196.711;000.284;48;000.461;MIDI 01
196.904;000.094;64;000.508;MIDI 01
197.022;000.086;66;000.461;MIDI 01
197.119;000.101;67;000.484;MIDI 01
197.252;000.064;66;000.406;MIDI 01
197.127;000.208;43;000.453;MIDI 01
197.123;000.229;50;000.508;MIDI 01
197.135;000.222;47;000.414;MIDI 01
197.372;000.061;67;000.461;MIDI 01
197.486;000.049;66;000.344;MIDI 01
197.592;000.064;67;000.391;MIDI 01
197.558;000.116;50;000.414;MIDI 01
197.575;000.110;47;000.305;MIDI 01
197.676;000.072;66;000.406;MIDI 01
197.564;000.200;43;000.375;MIDI 01
197.787;000.056;67;000.438;MIDI 01
197.892;000.068;66;000.391;MIDI 01
198.037;000.075;67;000.305;MIDI 01
198.162;000.052;66;000.289;MIDI 01
198.043;000.203;55;000.258;MIDI 01
198.054;000.199;43;000.172;MIDI 01
198.074;000.185;52;000.078;MIDI 01
198.264;000.059;67;000.375;MIDI 01
198.356;000.069;66;000.445;MIDI 01
198.473;000.095;67;000.406;MIDI 01
198.586;000.067;66;000.445;MIDI 01
198.467;000.190;55;000.406;MIDI 01
198.465;000.228;52;000.297;MIDI 01
198.469;000.229;43;000.297;MIDI 01
198.708;000.061;67;000.406;MIDI 01
198.807;000.050;66;000.414;MIDI 01
198.910;000.073;67;000.398;MIDI 01
198.995;000.065;66;000.430;MIDI 01
198.907;000.207;53;000.406;MIDI 01
198.895;000.230;43;000.328;MIDI 01
198.918;000.219;50;000.312;MIDI 01
199.120;000.069;67;000.406;MIDI 01
199.216;000.047;66;000.477;MIDI 01
199.333;000.048;67;000.508;MIDI 01
199.304;000.182;53;000.453;MIDI 01
199.439;000.083;69;000.469;MIDI 01
199.298;000.249;50;000.305;MIDI 01
199.296;000.252;43;000.422;MIDI 01
199.532;000.051;71;000.453;MIDI 01
199.631;000.052;67;000.445;MIDI 01
199.721;000.098;72;000.508;MIDI 01
199.835;000.089;71;000.500;MIDI 01
199.706;000.251;43;000.430;MIDI 01
199.715;000.258;48;000.445;MIDI 01
199.704;000.271;52;000.500;MIDI 01
199.928;000.068;72;000.555;MIDI 01
200.040;000.085;74;000.594;MIDI 01
200.149;000.076;76;000.672;MIDI 01
200.141;000.144;52;000.539;MIDI 01
200.147;000.167;43;000.477;MIDI 01
200.249;000.094;74;000.617;MIDI 01
200.146;000.216;48;000.484;MIDI 01
200.356;000.104;76;000.633;MIDI 01
200.449;000.127;78;000.625;MIDI 01
200.574;000.122;79;000.594;MIDI 01
200.700;000.094;81;000.625;MIDI 01
200.781;000.109;77;000.602;MIDI 01
200.891;000.110;79;000.609;MIDI 01
200.547;000.477;43;000.453;MIDI 01
200.555;000.493;47;000.492;MIDI 01
200.544;000.513;50;000.555;MIDI 01
200.993;000.085;76;000.617;MIDI 01
201.077;000.108;77;000.602;MIDI 01
201.185;000.084;74;000.555;MIDI 01
201.289;000.121;76;000.539;MIDI 01
201.405;000.049;72;000.594;MIDI 01
201.426;000.092;48;000.461;MIDI 01
201.556;000.064;47;000.445;MIDI 01
201.660;000.060;48;000.477;MIDI 01
201.762;000.088;47;000.414;MIDI 01
201.838;000.037;64;000.516;MIDI 01
201.842;000.040;67;000.523;MIDI 01
201.844;000.057;72;000.555;MIDI 01
201.867;000.073;48;000.508;MIDI 01
201.978;000.061;47;000.438;MIDI 01
202.075;000.068;48;000.508;MIDI 01
202.162;000.098;47;000.500;MIDI 01
202.282;000.041;72;000.539;MIDI 01
202.285;000.046;76;000.531;MIDI 01
202.275;000.089;48;000.508;MIDI 01
202.277;000.088;79;000.586;MIDI 01
202.390;000.084;47;000.477;MIDI 01
202.500;000.061;48;000.531;MIDI 01
202.586;000.075;47;000.484;MIDI 01
202.683;000.049;48;000.484;MIDI 01
202.678;000.056;72;000.508;MIDI 01
202.675;000.065;76;000.547;MIDI 01
202.672;000.122;79;000.547;MIDI 01
202.779;000.074;50;000.430;MIDI 01
202.883;000.052;52;000.469;MIDI 01
202.960;000.115;48;000.453;MIDI 01
203.097;000.050;72;000.594;MIDI 01
203.095;000.064;81;000.617;MIDI 01
203.085;000.075;53;000.492;MIDI 01
203.099;000.081;79;000.609;MIDI 01
203.197;000.089;52;000.492;MIDI 01
203.307;000.061;53;000.523;MIDI 01
203.390;000.115;52;000.484;MIDI 01
203.520;000.037;72;000.570;MIDI 01
203.505;000.073;53;000.531;MIDI 01
203.517;000.074;77;000.586;MIDI 01
203.509;000.089;81;000.625;MIDI 01
203.595;000.109;55;000.508;MIDI 01
203.727;000.090;57;000.484;MIDI 01
203.827;000.082;59;000.469;MIDI 01
203.927;000.052;72;000.586;MIDI 01
203.925;000.077;79;000.570;MIDI 01
203.924;000.088;60;000.531;MIDI 01
203.931;000.083;77;000.562;MIDI 01
204.036;000.053;59;000.516;MIDI 01
204.119;000.075;60;000.500;MIDI 01
204.236;000.069;59;000.484;MIDI 01
204.341;000.056;76;000.562;MIDI 01
204.344;000.066;72;000.578;MIDI 01
204.347;000.076;79;000.570;MIDI 01
204.326;000.115;60;000.539;MIDI 01
204.456;000.103;62;000.500;MIDI 01
204.558;000.091;64;000.523;MIDI 01
204.664;000.099;60;000.477;MIDI 01
204.749;000.032;69;000.602;MIDI 01
204.757;000.032;77;000.523;MIDI 01
204.751;000.070;76;000.602;MIDI 01
204.780;000.083;62;000.508;MIDI 01
204.878;000.069;61;000.547;MIDI 01
204.961;000.105;62;000.500;MIDI 01
205.080;000.099;60;000.562;MIDI 01
205.177;000.040;67;000.586;MIDI 01
205.175;000.057;74;000.578;MIDI 01
205.171;000.071;77;000.602;MIDI 01
205.179;000.089;59;000.469;MIDI 01
205.294;000.091;57;000.461;MIDI 01
205.394;000.138;59;000.508;MIDI 01
205.468;000.080;55;000.469;MIDI 01
205.602;000.036;67;000.594;MIDI 01
205.607;000.045;76;000.531;MIDI 01
205.578;000.103;60;000.578;MIDI 01
205.604;000.080;74;000.594;MIDI 01
205.699;000.083;59;000.508;MIDI 01
205.806;000.078;60;000.508;MIDI 01
205.903;000.082;59;000.508;MIDI 01
205.996;000.047;69;000.547;MIDI 01
205.998;000.052;72;000.578;MIDI 01
205.992;000.064;76;000.617;MIDI 01
206.019;000.068;57;000.539;MIDI 01
206.128;000.066;56;000.516;MIDI 01
206.224;000.107;57;000.539;MIDI 01
206.345;000.101;55;000.492;MIDI 01
206.438;000.057;69;000.586;MIDI 01
206.435;000.064;65;000.578;MIDI 01
206.425;000.084;74;000.602;MIDI 01
206.446;000.089;53;000.492;MIDI 01
206.552;000.086;52;000.469;MIDI 01
206.649;000.100;53;000.484;MIDI 01
206.765;000.081;50;000.531;MIDI 01
206.900;000.091;62;000.586;MIDI 01
206.886;000.106;55;000.578;MIDI 01
206.905;000.093;65;000.562;MIDI 01
206.894;000.134;71;000.594;MIDI 01
207.003;000.077;54;000.508;MIDI 01
207.121;000.050;55;000.539;MIDI 01
207.221;000.045;43;000.531;MIDI 01
207.369;000.078;48;000.555;MIDI 01
207.500;000.094;43;000.477;MIDI 01
207.629;000.095;40;000.438;MIDI 01
207.784;000.057;43;000.492;MIDI 01
207.372;000.946;64;000.586;MIDI 01
207.370;000.988;72;000.633;MIDI 01
207.374;001.014;67;000.570;MIDI 01
208.004;000.385;36;000.336;MIDI 01
209.252;000.287;60;000.539;MIDI 01
209.535;000.106;62;000.492;MIDI 01
209.651;000.079;64;000.555;MIDI 01
209.256;000.557;36;000.422;MIDI 01
209.749;000.109;65;000.570;MIDI 01
209.265;000.613;48;000.391;MIDI 01
209.865;000.115;67;000.586;MIDI 01
209.965;000.096;69;000.586;MIDI 01
210.077;000.057;71;000.531;MIDI 01
210.170;000.127;72;000.586;MIDI 01
210.297;000.098;74;000.562;MIDI 01
210.390;000.077;76;000.633;MIDI 01
210.508;000.081;77;000.609;MIDI 01
210.184;000.443;52;000.508;MIDI 01
210.601;000.124;79;000.617;MIDI 01
210.603;000.177;48;000.438;MIDI 01
210.710;000.092;81;000.602;MIDI 01
210.826;000.091;83;000.570;MIDI 01
210.933;000.106;84;000.516;MIDI 01
211.023;000.114;83;000.562;MIDI 01
211.129;000.101;81;000.602;MIDI 01
211.231;000.096;80;000.547;MIDI 01
211.353;000.089;81;000.570;MIDI 01
211.014;000.478;53;000.484;MIDI 01
211.452;000.152;86;000.578;MIDI 01
211.464;000.161;48;000.430;MIDI 01
211.561;000.116;84;000.562;MIDI 01
211.651;000.097;83;000.539;MIDI 01
211.760;000.020;81;000.492;MIDI 01
211.869;000.084;81;000.594;MIDI 01
211.959;000.099;79;000.547;MIDI 01
211.841;000.272;52;000.492;MIDI 01
212.074;000.065;78;000.547;MIDI 01
212.169;000.066;79;000.539;MIDI 01
212.289;000.137;60;000.508;MIDI 01
212.402;000.070;79;000.531;MIDI 01
212.280;000.222;48;000.508;MIDI 01
212.502;000.092;88;000.562;MIDI 01
212.611;000.059;79;000.586;MIDI 01
212.832;000.068;77;000.477;MIDI 01
212.699;000.270;45;000.609;MIDI 01
212.701;000.269;57;000.578;MIDI 01
212.914;000.079;88;000.594;MIDI 01
213.025;000.065;77;000.609;MIDI 01
213.124;000.199;59;000.648;MIDI 01
213.257;000.071;77;000.570;MIDI 01
213.129;000.221;47;000.625;MIDI 01
213.363;000.075;86;000.602;MIDI 01
213.456;000.066;77;000.617;MIDI 01
213.671;000.081;76;000.578;MIDI 01
213.547;000.265;56;000.664;MIDI 01
213.549;000.291;44;000.656;MIDI 01
213.774;000.070;86;000.594;MIDI 01
213.872;000.065;76;000.609;MIDI 01
213.975;000.172;57;000.633;MIDI 01
214.096;000.086;76;000.594;MIDI 01
213.978;000.222;45;000.602;MIDI 01
214.208;000.077;84;000.570;MIDI 01
214.304;000.067;76;000.625;MIDI 01
214.535;000.098;74;000.578;MIDI 01
214.412;000.230;41;000.641;MIDI 01
214.420;000.237;53;000.617;MIDI 01
214.641;000.077;84;000.594;MIDI 01
214.747;000.066;74;000.641;MIDI 01
214.852;000.138;55;000.688;MIDI 01
214.857;000.202;43;000.648;MIDI 01
214.973;000.094;74;000.609;MIDI 01
215.083;000.112;83;000.625;MIDI 01
215.200;000.051;74;000.617;MIDI 01
215.368;000.365;48;000.586;MIDI 01
215.373;000.375;84;000.641;MIDI 01
215.376;000.378;76;000.641;MIDI 01
215.366;000.414;36;000.578;MIDI 01
215.380;000.403;79;000.602;MIDI 01
216.459;000.316;60;000.570;MIDI 01
216.774;000.092;62;000.500;MIDI 01
216.870;000.078;64;000.539;MIDI 01
216.461;000.491;36;000.484;MIDI 01
216.467;000.550;48;000.461;MIDI 01
216.974;000.114;65;000.578;MIDI 01
217.082;000.127;67;000.570;MIDI 01
217.201;000.076;69;000.531;MIDI 01
217.296;000.057;71;000.555;MIDI 01
217.400;000.116;72;000.602;MIDI 01
217.517;000.098;74;000.570;MIDI 01
217.615;000.071;76;000.625;MIDI 01
217.724;000.085;77;000.586;MIDI 01
217.379;000.431;52;000.484;MIDI 01
217.822;000.112;79;000.602;MIDI 01
217.820;000.157;48;000.430;MIDI 01
217.921;000.083;81;000.609;MIDI 01
218.020;000.100;83;000.570;MIDI 01
218.137;000.095;84;000.500;MIDI 01
218.240;000.095;83;000.531;MIDI 01
218.339;000.101;81;000.555;MIDI 01
218.449;000.079;80;000.547;MIDI 01
218.536;000.099;81;000.570;MIDI 01
218.206;000.471;53;000.453;MIDI 01
218.667;000.145;86;000.578;MIDI 01
218.662;000.176;48;000.438;MIDI 01
218.773;000.128;84;000.570;MIDI 01
218.875;000.093;83;000.547;MIDI 01
218.965;000.043;81;000.570;MIDI 01
219.102;000.093;81;000.547;MIDI 01
219.207;000.097;79;000.578;MIDI 01
219.081;000.256;52;000.445;MIDI 01
219.323;000.049;78;000.492;MIDI 01
219.400;000.051;79;000.523;MIDI 01
219.544;000.106;60;000.398;MIDI 01
219.642;000.077;79;000.461;MIDI 01
219.542;000.183;48;000.422;MIDI 01
219.764;000.068;88;000.508;MIDI 01
219.877;000.035;79;000.445;MIDI 01
220.124;000.059;77;000.414;MIDI 01
219.973;000.244;45;000.531;MIDI 01
219.981;000.272;57;000.508;MIDI 01
220.201;000.075;88;000.539;MIDI 01
220.330;000.040;77;000.531;MIDI 01
220.447;000.109;59;000.414;MIDI 01
220.452;000.158;47;000.406;MIDI 01
220.556;000.055;77;000.438;MIDI 01
220.653;000.065;86;000.516;MIDI 01
220.756;000.043;77;000.469;MIDI 01
220.984;000.074;76;000.516;MIDI 01
220.868;000.263;56;000.508;MIDI 01
221.082;000.052;86;000.508;MIDI 01
220.852;000.298;44;000.539;MIDI 01
221.193;000.035;76;000.516;MIDI 01
221.314;000.085;57;000.469;MIDI 01
221.318;000.125;45;000.492;MIDI 01
221.416;000.069;76;000.383;MIDI 01
221.526;000.048;84;000.453;MIDI 01
221.630;000.033;76;000.484;MIDI 01
221.739;000.033;41;000.508;MIDI 01
221.748;000.028;53;000.398;MIDI 01
221.867;000.057;74;000.445;MIDI 01
221.965;000.058;84;000.500;MIDI 01
222.062;000.051;74;000.461;MIDI 01
222.151;000.037;55;000.531;MIDI 01
222.156;000.043;43;000.508;MIDI 01
222.276;000.060;74;000.445;MIDI 01
222.374;000.053;83;000.492;MIDI 01
222.480;000.025;74;000.367;MIDI 01
222.648;000.099;36;000.320;MIDI 01
222.684;000.069;84;000.336;MIDI 01
222.672;000.103;48;000.258;MIDI 01
222.674;000.132;76;000.336;MIDI 01
222.751;000.073;36;000.023;MIDI 01
222.689;000.193;79;000.320;MIDI 01
222.757;000.147;84;000.047;MIDI 01
223.625;000.133;79;000.438;MIDI 01
223.759;000.097;84;000.477;MIDI 01
223.860;000.138;88;000.570;MIDI 01
223.960;000.145;86;000.578;MIDI 01
223.618;000.535;55;000.344;MIDI 01
224.061;000.134;84;000.555;MIDI 01
224.173;000.084;83;000.570;MIDI 01
224.276;000.083;81;000.555;MIDI 01
223.613;000.875;64;000.383;MIDI 01
224.381;000.137;79;000.570;MIDI 01
224.501;000.074;77;000.562;MIDI 01
224.610;000.057;76;000.500;MIDI 01
224.711;000.129;74;000.562;MIDI 01
224.805;000.115;72;000.547;MIDI 01
224.900;000.069;71;000.555;MIDI 01
224.481;000.532;55;000.391;MIDI 01
224.999;000.068;69;000.531;MIDI 01
225.105;000.105;67;000.516;MIDI 01
225.207;000.082;65;000.555;MIDI 01
224.473;000.838;62;000.484;MIDI 01
225.306;000.048;64;000.570;MIDI 01
225.553;000.040;76;000.562;MIDI 01
225.762;000.043;77;000.641;MIDI 01
225.323;000.626;55;000.359;MIDI 01
226.004;000.029;78;000.617;MIDI 01
225.331;000.954;60;000.469;MIDI 01
226.300;000.367;79;000.555;MIDI 01
226.673;000.094;76;000.438;MIDI 01
226.303;000.565;55;000.344;MIDI 01
226.778;000.095;74;000.445;MIDI 01
226.307;000.627;59;000.375;MIDI 01
227.308;000.081;79;000.375;MIDI 01
227.428;000.081;84;000.391;MIDI 01
227.536;000.085;88;000.438;MIDI 01
227.631;000.100;86;000.469;MIDI 01
227.735;000.110;84;000.430;MIDI 01
227.832;000.071;83;000.422;MIDI 01
227.320;000.587;55;000.234;MIDI 01
227.928;000.052;81;000.469;MIDI 01
228.045;000.114;79;000.328;MIDI 01
227.302;000.884;64;000.273;MIDI 01
228.152;000.083;77;000.477;MIDI 01
228.267;000.045;76;000.477;MIDI 01
228.373;000.112;74;000.445;MIDI 01
228.465;000.089;72;000.438;MIDI 01
228.553;000.059;71;000.438;MIDI 01
228.158;000.506;55;000.273;MIDI 01
228.642;000.046;69;000.438;MIDI 01
228.753;000.097;67;000.414;MIDI 01
228.853;000.085;65;000.461;MIDI 01
228.175;000.775;62;000.383;MIDI 01
228.968;000.029;64;000.508;MIDI 01
229.214;000.041;76;000.516;MIDI 01
229.451;000.028;77;000.539;MIDI 01
228.988;000.656;55;000.227;MIDI 01
229.678;000.029;78;000.508;MIDI 01
228.993;000.986;60;000.352;MIDI 01
229.978;000.389;79;000.445;MIDI 01
230.363;000.114;76;000.414;MIDI 01
230.467;000.067;74;000.445;MIDI 01
229.995;000.575;59;000.305;MIDI 01
229.983;000.603;55;000.281;MIDI 01
230.996;000.235;60;000.516;MIDI 01
231.242;000.102;62;000.484;MIDI 01
231.358;000.064;64;000.531;MIDI 01
230.990;000.489;36;000.438;MIDI 01
231.455;000.104;65;000.562;MIDI 01
230.992;000.574;48;000.438;MIDI 01
231.564;000.123;67;000.586;MIDI 01
231.656;000.093;69;000.555;MIDI 01
231.773;000.069;71;000.539;MIDI 01
231.882;000.120;72;000.531;MIDI 01
232.008;000.088;74;000.531;MIDI 01
232.115;000.066;76;000.594;MIDI 01
232.224;000.072;77;000.547;MIDI 01
231.884;000.444;52;000.484;MIDI 01
232.319;000.106;79;000.594;MIDI 01
232.423;000.084;81;000.586;MIDI 01
232.302;000.210;48;000.383;MIDI 01
232.525;000.112;83;000.555;MIDI 01
232.660;000.089;84;000.523;MIDI 01
232.745;000.111;83;000.562;MIDI 01
232.861;000.102;81;000.570;MIDI 01
232.976;000.077;80;000.578;MIDI 01
233.085;000.084;81;000.562;MIDI 01
232.747;000.555;53;000.430;MIDI 01
233.197;000.149;86;000.594;MIDI 01
233.195;000.205;48;000.453;MIDI 01
233.309;000.120;84;000.578;MIDI 01
233.406;000.096;83;000.523;MIDI 01
233.502;000.034;81;000.516;MIDI 01
233.632;000.097;81;000.531;MIDI 01
233.735;000.094;79;000.531;MIDI 01
233.617;000.266;52;000.508;MIDI 01
233.840;000.055;78;000.508;MIDI 01
233.942;000.048;79;000.531;MIDI 01
234.071;000.033;60;000.555;MIDI 01
234.079;000.039;48;000.531;MIDI 01
234.180;000.072;79;000.484;MIDI 01
234.289;000.077;88;000.547;MIDI 01
234.392;000.033;79;000.508;MIDI 01
234.504;000.103;57;000.570;MIDI 01
234.506;000.102;45;000.586;MIDI 01
234.620;000.075;77;000.516;MIDI 01
234.693;000.095;88;000.570;MIDI 01
234.818;000.059;77;000.570;MIDI 01
234.950;000.178;59;000.625;MIDI 01
234.956;000.206;47;000.570;MIDI 01
235.086;000.081;77;000.508;MIDI 01
235.170;000.088;86;000.562;MIDI 01
235.289;000.047;77;000.578;MIDI 01
235.540;000.090;76;000.547;MIDI 01
235.392;000.274;56;000.594;MIDI 01
235.397;000.296;44;000.641;MIDI 01
235.629;000.077;86;000.578;MIDI 01
235.740;000.056;76;000.562;MIDI 01
235.863;000.124;57;000.500;MIDI 01
235.970;000.078;76;000.492;MIDI 01
235.865;000.184;45;000.508;MIDI 01
236.068;000.091;84;000.523;MIDI 01
236.190;000.053;76;000.539;MIDI 01
236.469;000.116;74;000.539;MIDI 01
236.327;000.266;53;000.547;MIDI 01
236.325;000.274;41;000.578;MIDI 01
236.583;000.108;84;000.602;MIDI 01
236.707;000.068;74;000.641;MIDI 01
236.834;000.191;55;000.648;MIDI 01
236.972;000.103;74;000.578;MIDI 01
236.836;000.266;43;000.625;MIDI 01
237.102;000.111;83;000.609;MIDI 01
237.214;000.066;74;000.625;MIDI 01
237.508;000.675;48;000.547;MIDI 01
237.500;000.720;36;000.516;MIDI 01
237.515;000.771;76;000.539;MIDI 01
237.512;000.815;84;000.555;MIDI 01
237.510;000.850;79;000.500;MIDI 01
239.662;000.082;72;000.305;MIDI 01
239.943;000.075;74;000.398;MIDI 01
240.221;000.080;75;000.430;MIDI 01
240.474;000.101;77;000.523;MIDI 01
240.842;000.345;79;000.453;MIDI 01
242.018;000.224;65;000.312;MIDI 01
242.281;000.073;67;000.352;MIDI 01
241.441;001.176;79;000.492;MIDI 01
242.556;000.137;68;000.242;MIDI 01
242.792;000.111;70;000.312;MIDI 01
242.514;000.629;77;000.398;MIDI 01
241.986;001.179;80;000.539;MIDI 01
243.083;000.237;72;000.297;MIDI 01
243.623;000.060;72;000.234;MIDI 01
243.045;000.733;79;000.453;MIDI 01
243.619;000.569;75;000.344;MIDI 01
244.129;000.194;55;000.234;MIDI 01
244.384;000.049;57;000.297;MIDI 01
244.629;000.059;59;000.281;MIDI 01
244.877;000.060;55;000.258;MIDI 01
245.128;000.111;60;000.297;MIDI 01
244.108;001.149;77;000.445;MIDI 01
245.392;000.052;55;000.172;MIDI 01
244.640;001.058;74;000.375;MIDI 01
245.643;000.072;56;000.281;MIDI 01
244.126;001.714;67;000.312;MIDI 01
245.869;000.068;51;000.336;MIDI 01
245.124;001.109;75;000.461;MIDI 01
246.136;000.123;53;000.266;MIDI 01
246.364;000.055;50;000.289;MIDI 01
245.630;000.983;72;000.328;MIDI 01
246.643;000.082;55;000.148;MIDI 01
246.870;000.056;43;000.297;MIDI 01
246.124;001.113;74;000.438;MIDI 01
246.649;000.592;71;000.273;MIDI 01
247.184;000.319;48;000.258;MIDI 01
247.189;000.650;72;000.336;MIDI 01
247.735;000.439;36;000.258;MIDI 01
248.339;000.394;72;000.328;MIDI 01
248.614;000.321;74;000.453;MIDI 01
248.869;000.264;75;000.508;MIDI 01
249.125;000.331;77;000.469;MIDI 01
249.454;000.398;79;000.445;MIDI 01
250.554;000.352;65;000.320;MIDI 01
250.842;000.267;67;000.281;MIDI 01
250.019;001.180;79;000.469;MIDI 01
251.100;000.196;68;000.305;MIDI 01
251.350;000.275;70;000.359;MIDI 01
250.537;001.221;80;000.508;MIDI 01
251.073;000.720;77;000.406;MIDI 01
251.688;000.341;72;000.281;MIDI 01
252.280;000.114;75;000.312;MIDI 01
252.283;000.184;72;000.195;MIDI 01
251.657;000.823;79;000.438;MIDI 01
252.398;000.523;75;000.094;MIDI 01
252.922;000.213;55;000.273;MIDI 01
253.159;000.199;57;000.312;MIDI 01
253.400;000.191;59;000.352;MIDI 01
253.631;000.200;55;000.328;MIDI 01
253.874;000.053;60;000.367;MIDI 01
252.870;001.098;77;000.469;MIDI 01
254.123;000.176;55;000.391;MIDI 01
253.390;001.025;74;000.422;MIDI 01
254.366;000.068;56;000.359;MIDI 01
252.880;001.714;67;000.320;MIDI 01
254.613;000.197;51;000.336;MIDI 01
254.856;000.081;53;000.328;MIDI 01
253.876;001.095;75;000.469;MIDI 01
255.098;000.048;50;000.312;MIDI 01
254.377;000.941;72;000.375;MIDI 01
255.354;000.084;55;000.273;MIDI 01
255.599;000.061;43;000.281;MIDI 01
255.381;000.560;71;000.297;MIDI 01
254.861;001.157;74;000.445;MIDI 01
255.919;000.350;48;000.289;MIDI 01
256.491;000.181;36;000.188;MIDI 01
255.909;000.768;72;000.344;MIDI 01
257.391;000.326;79;000.422;MIDI 01
257.669;000.290;80;000.523;MIDI 01
257.095;000.945;67;000.344;MIDI 01
257.923;000.404;79;000.547;MIDI 01
258.262;000.285;69;000.273;MIDI 01
258.251;000.519;78;000.508;MIDI 01
258.834;000.491;71;000.188;MIDI 01
258.765;000.562;77;000.461;MIDI 01
259.297;000.189;72;000.375;MIDI 01
259.277;000.210;76;000.438;MIDI 01
259.529;000.284;67;000.461;MIDI 01
257.121;002.799;43;000.234;MIDI 01
257.115;002.868;55;000.266;MIDI 01
259.804;000.217;68;000.430;MIDI 01
260.053;000.454;67;000.328;MIDI 01
259.769;000.871;75;000.500;MIDI 01
260.337;000.535;66;000.391;MIDI 01
260.359;000.557;57;000.266;MIDI 01
260.903;000.072;65;000.273;MIDI 01
260.858;000.203;59;000.359;MIDI 01
261.337;000.047;60;000.367;MIDI 01
260.352;001.082;55;000.227;MIDI 01
260.853;000.589;74;000.445;MIDI 01
260.979;000.472;65;000.055;MIDI 01
261.593;000.046;55;000.352;MIDI 01
261.361;000.471;64;000.289;MIDI 01
261.627;000.253;43;000.195;MIDI 01
261.831;000.093;56;000.422;MIDI 01
261.860;000.205;44;000.375;MIDI 01
262.079;000.050;55;000.375;MIDI 01
262.081;000.232;43;000.398;MIDI 01
261.824;000.629;72;000.492;MIDI 01
261.842;000.759;63;000.445;MIDI 01
262.379;000.266;54;000.320;MIDI 01
262.377;000.419;42;000.367;MIDI 01
262.372;000.483;69;000.438;MIDI 01
262.875;000.170;62;000.344;MIDI 01
262.872;000.211;53;000.273;MIDI 01
262.851;000.266;41;000.422;MIDI 01
262.853;000.511;71;000.438;MIDI 01
262.868;000.527;68;000.414;MIDI 01
263.377;000.117;72;000.477;MIDI 01
263.393;000.222;52;000.344;MIDI 01
263.382;000.247;40;000.367;MIDI 01
263.615;000.341;72;000.547;MIDI 01
263.867;000.250;51;000.422;MIDI 01
263.869;000.301;74;000.555;MIDI 01
263.865;000.315;39;000.453;MIDI 01
263.400;000.801;67;000.438;MIDI 01
264.136;000.354;75;000.555;MIDI 01
264.532;000.089;50;000.250;MIDI 01
264.510;000.233;38;000.406;MIDI 01
264.502;000.371;79;000.555;MIDI 01
264.846;000.205;77;000.461;MIDI 01
264.522;000.545;67;000.438;MIDI 01
265.102;000.042;75;000.414;MIDI 01
265.104;000.229;31;000.375;MIDI 01
265.337;000.035;74;000.438;MIDI 01
265.622;000.044;72;000.398;MIDI 01
265.891;000.026;74;000.438;MIDI 01
265.634;000.407;36;000.297;MIDI 01
266.130;000.044;75;000.430;MIDI 01
266.375;000.031;77;000.438;MIDI 01
266.658;000.244;78;000.422;MIDI 01
266.917;000.042;79;000.375;MIDI 01
267.163;000.230;78;000.438;MIDI 01
267.680;000.048;65;000.375;MIDI 01
267.927;000.055;67;000.336;MIDI 01
268.199;000.051;68;000.141;MIDI 01
267.409;000.884;79;000.438;MIDI 01
268.403;000.034;70;000.445;MIDI 01
267.664;001.045;80;000.469;MIDI 01
268.667;000.199;71;000.398;MIDI 01
268.915;000.038;72;000.336;MIDI 01
268.158;000.921;77;000.375;MIDI 01
269.176;000.214;71;000.305;MIDI 01
269.389;000.032;72;000.406;MIDI 01
268.664;000.773;79;000.461;MIDI 01
269.168;000.561;75;000.352;MIDI 01
269.660;000.083;55;000.336;MIDI 01
269.895;000.057;57;000.383;MIDI 01
270.130;000.042;59;000.352;MIDI 01
270.354;000.044;55;000.367;MIDI 01
269.653;001.083;77;000.469;MIDI 01
270.637;000.207;60;000.328;MIDI 01
270.878;000.033;55;000.336;MIDI 01
270.134;000.999;74;000.422;MIDI 01
271.148;000.167;56;000.359;MIDI 01
271.374;000.057;51;000.359;MIDI 01
270.614;001.153;75;000.445;MIDI 01
271.672;000.265;53;000.328;MIDI 01
271.924;000.061;50;000.320;MIDI 01
271.100;001.100;72;000.398;MIDI 01
272.246;000.089;55;000.328;MIDI 01
272.575;000.058;43;000.125;MIDI 01
272.241;000.762;71;000.281;MIDI 01
271.634;001.419;74;000.414;MIDI 01
272.965;000.091;72;000.289;MIDI 01
272.974;000.349;48;000.211;MIDI 01
273.059;000.686;72;000.023;MIDI 01
273.703;000.877;36;000.109;MIDI 01
275.175;000.212;72;000.250;MIDI 01
275.705;000.168;72;000.344;MIDI 01
276.199;000.285;79;000.430;MIDI 01
277.159;000.220;65;000.289;MIDI 01
276.665;000.908;79;000.422;MIDI 01
277.623;000.265;65;000.273;MIDI 01
277.134;001.031;81;000.438;MIDI 01
278.095;000.244;72;000.297;MIDI 01
277.628;000.948;77;000.352;MIDI 01
278.575;000.050;72;000.297;MIDI 01
278.090;001.026;79;000.453;MIDI 01
279.041;000.218;55;000.328;MIDI 01
278.583;000.942;76;000.398;MIDI 01
279.495;000.064;55;000.273;MIDI 01
279.502;000.517;74;000.383;MIDI 01
279.029;001.039;77;000.430;MIDI 01
279.964;000.233;60;000.289;MIDI 01
279.960;000.425;76;000.438;MIDI 01
280.413;000.046;60;000.344;MIDI 01
280.417;000.052;72;000.438;MIDI 01
280.605;000.087;72;000.492;MIDI 01
280.871;000.226;31;000.328;MIDI 01
280.850;000.281;72;000.516;MIDI 01
281.083;000.236;71;000.508;MIDI 01
281.299;000.132;31;000.375;MIDI 01
281.326;000.129;43;000.312;MIDI 01
280.873;000.666;65;000.367;MIDI 01
280.886;000.676;62;000.328;MIDI 01
281.303;000.262;69;000.555;MIDI 01
281.536;000.108;71;000.508;MIDI 01
281.827;000.289;64;000.336;MIDI 01
281.821;000.356;36;000.320;MIDI 01
281.833;000.355;67;000.398;MIDI 01
281.831;000.368;48;000.273;MIDI 01
281.811;000.391;72;000.438;MIDI 01
282.723;000.040;72;000.391;MIDI 01
283.157;000.036;72;000.359;MIDI 01
283.619;000.024;79;000.383;MIDI 01
284.500;000.039;65;000.414;MIDI 01
284.941;000.035;65;000.297;MIDI 01
284.052;000.949;79;000.422;MIDI 01
285.374;000.054;72;000.383;MIDI 01
284.483;000.964;81;000.469;MIDI 01
284.941;000.902;77;000.336;MIDI 01
285.835;000.045;72;000.312;MIDI 01
285.377;000.938;79;000.469;MIDI 01
286.292;000.039;55;000.250;MIDI 01
285.843;000.908;76;000.383;MIDI 01
286.711;000.041;55;000.273;MIDI 01
286.718;000.467;74;000.344;MIDI 01
287.163;000.069;60;000.297;MIDI 01
286.262;001.261;77;000.430;MIDI 01
287.146;000.387;76;000.422;MIDI 01
287.542;000.047;60;000.352;MIDI 01
287.545;000.065;72;000.445;MIDI 01
287.746;000.048;72;000.570;MIDI 01
287.994;000.210;31;000.438;MIDI 01
288.016;000.217;43;000.367;MIDI 01
287.973;000.286;72;000.570;MIDI 01
288.190;000.259;71;000.586;MIDI 01
288.411;000.130;31;000.461;MIDI 01
288.427;000.123;43;000.430;MIDI 01
287.988;000.667;65;000.438;MIDI 01
288.416;000.272;69;000.609;MIDI 01
287.990;000.718;62;000.492;MIDI 01
288.650;000.111;71;000.602;MIDI 01
288.929;000.317;64;000.422;MIDI 01
288.941;000.339;48;000.359;MIDI 01
288.931;000.381;67;000.453;MIDI 01
288.927;000.404;36;000.414;MIDI 01
288.914;000.424;72;000.523;MIDI 01
289.852;000.031;79;000.430;MIDI 01
290.282;000.022;79;000.422;MIDI 01
290.701;000.044;77;000.445;MIDI 01
291.150;000.030;77;000.414;MIDI 01
291.571;000.022;76;000.438;MIDI 01
291.575;000.036;72;000.312;MIDI 01
291.992;000.027;67;000.383;MIDI 01
291.996;000.025;72;000.383;MIDI 01
292.000;000.298;76;000.461;MIDI 01
292.402;000.029;71;000.453;MIDI 01
292.307;000.127;77;000.469;MIDI 01
292.418;000.025;65;000.375;MIDI 01
292.421;000.450;76;000.516;MIDI 01
292.839;000.034;71;000.383;MIDI 01
292.855;000.034;65;000.352;MIDI 01
292.841;000.074;74;000.461;MIDI 01
293.295;000.159;64;000.297;MIDI 01
293.307;000.198;55;000.281;MIDI 01
293.276;000.257;72;000.477;MIDI 01
293.744;000.064;64;000.203;MIDI 01
293.750;000.132;55;000.266;MIDI 01
294.189;000.082;62;000.266;MIDI 01
294.194;000.129;53;000.242;MIDI 01
293.728;000.704;72;000.547;MIDI 01
294.386;000.209;71;000.461;MIDI 01
294.608;000.037;62;000.312;MIDI 01
294.610;000.077;53;000.328;MIDI 01
293.303;001.400;67;000.344;MIDI 01
294.607;000.245;69;000.547;MIDI 01
294.804;000.200;71;000.539;MIDI 01
295.024;000.066;52;000.305;MIDI 01
295.014;000.094;72;000.555;MIDI 01
295.022;000.092;43;000.375;MIDI 01
295.217;000.282;72;000.586;MIDI 01
295.411;000.092;52;000.398;MIDI 01
295.423;000.121;43;000.359;MIDI 01
295.425;000.234;74;000.625;MIDI 01
295.031;000.821;67;000.500;MIDI 01
295.603;000.254;76;000.648;MIDI 01
295.816;000.091;77;000.633;MIDI 01
295.821;000.167;50;000.422;MIDI 01
295.818;000.175;41;000.445;MIDI 01
296.007;000.097;79;000.656;MIDI 01
296.248;000.059;50;000.352;MIDI 01
296.224;000.103;81;000.680;MIDI 01
296.230;000.131;41;000.430;MIDI 01
296.441;000.117;83;000.656;MIDI 01
296.768;000.180;84;000.453;MIDI 01
296.772;000.225;48;000.297;MIDI 01
296.755;000.244;40;000.289;MIDI 01
297.246;000.133;84;000.445;MIDI 01
297.678;000.180;79;000.383;MIDI 01
298.099;000.229;79;000.414;MIDI 01
298.543;000.257;77;000.453;MIDI 01
298.545;000.271;81;000.469;MIDI 01
298.993;000.205;77;000.484;MIDI 01
298.991;000.208;81;000.516;MIDI 01
299.440;000.211;72;000.469;MIDI 01
299.430;000.229;79;000.539;MIDI 01
299.885;000.285;72;000.508;MIDI 01
299.883;000.348;76;000.531;MIDI 01
300.199;000.194;79;000.492;MIDI 01
300.300;000.219;71;000.500;MIDI 01
300.306;000.250;77;000.562;MIDI 01
300.316;000.246;67;000.383;MIDI 01
300.780;000.273;67;000.469;MIDI 01
300.778;000.294;71;000.555;MIDI 01
300.758;000.335;74;000.594;MIDI 01
301.068;000.175;77;000.562;MIDI 01
301.186;000.194;72;000.562;MIDI 01
301.184;000.198;76;000.602;MIDI 01
301.199;000.201;60;000.391;MIDI 01
301.675;000.128;60;000.367;MIDI 01
301.681;000.132;64;000.367;MIDI 01
301.711;000.119;67;000.320;MIDI 01
301.709;000.133;72;000.422;MIDI 01
302.208;000.220;72;000.328;MIDI 01
302.245;000.184;43;000.117;MIDI 01
302.452;000.241;71;000.438;MIDI 01
302.689;000.151;55;000.352;MIDI 01
302.693;000.244;43;000.297;MIDI 01
302.255;000.782;65;000.062;MIDI 01
302.276;000.774;62;000.023;MIDI 01
302.703;000.351;69;000.453;MIDI 01
302.992;000.129;71;000.422;MIDI 01
303.430;000.371;48;000.203;MIDI 01
303.397;000.444;64;000.289;MIDI 01
303.399;000.461;36;000.242;MIDI 01
303.417;000.507;72;000.312;MIDI 01
303.415;000.524;67;000.289;MIDI 01
304.950;000.066;36;000.484;MIDI 01
304.956;000.094;48;000.500;MIDI 01
305.150;000.055;64;000.383;MIDI 01
305.226;000.070;72;000.430;MIDI 01
305.328;000.035;64;000.461;MIDI 01
305.425;000.058;72;000.578;MIDI 01
305.532;000.081;64;000.383;MIDI 01
305.643;000.061;67;000.461;MIDI 01
305.736;000.036;64;000.453;MIDI 01
305.940;000.082;64;000.344;MIDI 01
305.837;000.211;79;000.594;MIDI 01
306.040;000.056;72;000.453;MIDI 01
306.147;000.046;64;000.477;MIDI 01
306.342;000.070;64;000.422;MIDI 01
306.249;000.241;79;000.594;MIDI 01
306.433;000.065;72;000.469;MIDI 01
306.539;000.036;64;000.453;MIDI 01
306.735;000.070;65;000.477;MIDI 01
306.844;000.071;72;000.445;MIDI 01
306.651;000.278;81;000.617;MIDI 01
306.925;000.052;65;000.492;MIDI 01
307.140;000.071;65;000.375;MIDI 01
307.054;000.261;81;000.633;MIDI 01
307.233;000.097;72;000.484;MIDI 01
307.337;000.047;65;000.508;MIDI 01
307.448;000.109;79;000.609;MIDI 01
307.561;000.069;64;000.414;MIDI 01
307.653;000.066;72;000.500;MIDI 01
307.756;000.039;64;000.406;MIDI 01
308.002;000.049;70;000.375;MIDI 01
307.870;000.226;61;000.578;MIDI 01
307.873;000.242;49;000.539;MIDI 01
308.070;000.086;79;000.484;MIDI 01
308.083;000.076;76;000.445;MIDI 01
308.159;000.043;70;000.578;MIDI 01
308.267;000.156;62;000.578;MIDI 01
308.381;000.087;69;000.555;MIDI 01
308.276;000.206;50;000.539;MIDI 01
308.482;000.099;78;000.555;MIDI 01
308.517;000.072;74;000.305;MIDI 01
308.578;000.044;69;000.555;MIDI 01
308.808;000.079;68;000.555;MIDI 01
308.684;000.221;47;000.578;MIDI 01
308.681;000.244;59;000.586;MIDI 01
308.901;000.095;77;000.516;MIDI 01
308.892;000.108;74;000.406;MIDI 01
308.988;000.060;68;000.547;MIDI 01
309.097;000.130;60;000.625;MIDI 01
309.100;000.190;48;000.586;MIDI 01
309.221;000.088;67;000.547;MIDI 01
309.314;000.105;76;000.547;MIDI 01
309.331;000.119;72;000.453;MIDI 01
309.423;000.069;67;000.625;MIDI 01
309.524;000.167;54;000.633;MIDI 01
309.522;000.199;42;000.641;MIDI 01
309.650;000.076;69;000.562;MIDI 01
309.731;000.099;72;000.398;MIDI 01
309.749;000.096;75;000.555;MIDI 01
309.849;000.036;69;000.562;MIDI 01
309.951;000.085;55;000.664;MIDI 01
309.956;000.087;43;000.656;MIDI 01
310.049;000.002;53;000.023;MIDI 01
310.080;000.086;67;000.500;MIDI 01
310.177;000.074;74;000.477;MIDI 01
310.180;000.098;72;000.375;MIDI 01
310.272;000.045;67;000.469;MIDI 01
310.371;000.092;43;000.656;MIDI 01
310.488;000.081;65;000.508;MIDI 01
310.586;000.083;74;000.539;MIDI 01
310.590;000.099;71;000.453;MIDI 01
310.691;000.049;65;000.531;MIDI 01
310.836;000.304;48;000.586;MIDI 01
310.863;000.734;64;000.516;MIDI 01
310.859;000.831;72;000.555;MIDI 01
310.861;000.855;67;000.539;MIDI 01
311.404;000.427;36;000.461;MIDI 01
312.102;000.041;36;000.367;MIDI 01
312.118;000.040;48;000.391;MIDI 01
312.208;000.054;64;000.305;MIDI 01
312.317;000.039;72;000.398;MIDI 01
312.406;000.048;64;000.406;MIDI 01
312.549;000.040;72;000.406;MIDI 01
312.648;000.055;64;000.305;MIDI 01
312.765;000.053;67;000.367;MIDI 01
312.853;000.027;64;000.367;MIDI 01
312.965;000.096;79;000.516;MIDI 01
313.049;000.070;64;000.320;MIDI 01
313.149;000.062;72;000.438;MIDI 01
313.279;000.041;64;000.305;MIDI 01
313.368;000.095;79;000.516;MIDI 01
313.445;000.056;64;000.453;MIDI 01
313.567;000.042;72;000.398;MIDI 01
313.654;000.032;64;000.383;MIDI 01
313.882;000.043;65;000.414;MIDI 01
313.769;000.190;81;000.516;MIDI 01
313.982;000.061;72;000.375;MIDI 01
314.050;000.042;65;000.477;MIDI 01
314.245;000.051;65;000.289;MIDI 01
314.157;000.184;81;000.477;MIDI 01
314.333;000.079;72;000.414;MIDI 01
314.435;000.059;65;000.406;MIDI 01
314.559;000.057;79;000.492;MIDI 01
314.654;000.053;64;000.312;MIDI 01
314.736;000.057;72;000.406;MIDI 01
314.829;000.035;64;000.430;MIDI 01
315.087;000.064;70;000.273;MIDI 01
314.972;000.254;49;000.453;MIDI 01
314.989;000.242;61;000.398;MIDI 01
315.194;000.039;79;000.359;MIDI 01
315.183;000.086;76;000.398;MIDI 01
315.271;000.034;70;000.477;MIDI 01
315.408;000.139;50;000.398;MIDI 01
315.416;000.133;62;000.344;MIDI 01
315.524;000.051;69;000.461;MIDI 01
315.616;000.061;78;000.445;MIDI 01
315.634;000.056;74;000.289;MIDI 01
315.724;000.031;69;000.422;MIDI 01
315.935;000.077;68;000.469;MIDI 01
315.810;000.216;47;000.492;MIDI 01
315.812;000.236;59;000.508;MIDI 01
316.041;000.064;77;000.430;MIDI 01
316.036;000.081;74;000.328;MIDI 01
316.123;000.049;68;000.445;MIDI 01
316.235;000.091;60;000.484;MIDI 01
316.240;000.142;48;000.477;MIDI 01
316.344;000.074;67;000.477;MIDI 01
316.436;000.056;76;000.430;MIDI 01
316.466;000.077;72;000.367;MIDI 01
316.538;000.048;67;000.469;MIDI 01
316.777;000.053;69;000.453;MIDI 01
316.657;000.195;54;000.484;MIDI 01
316.651;000.236;42;000.516;MIDI 01
316.865;000.060;75;000.430;MIDI 01
316.960;000.047;69;000.492;MIDI 01
317.080;000.031;55;000.508;MIDI 01
317.089;000.032;43;000.484;MIDI 01
317.192;000.058;67;000.438;MIDI 01
317.300;000.047;74;000.445;MIDI 01
317.316;000.074;72;000.328;MIDI 01
317.390;000.037;67;000.359;MIDI 01
317.476;000.051;43;000.523;MIDI 01
317.596;000.050;65;000.484;MIDI 01
317.708;000.042;74;000.383;MIDI 01
317.722;000.046;71;000.320;MIDI 01
317.772;000.048;65;000.492;MIDI 01
317.962;000.225;48;000.367;MIDI 01
317.973;000.835;64;000.406;MIDI 01
318.500;000.321;36;000.320;MIDI 01
317.989;000.848;72;000.422;MIDI 01
317.971;000.888;67;000.438;MIDI 01
319.011;000.066;31;000.508;MIDI 01
319.019;000.083;43;000.406;MIDI 01
319.154;000.055;64;000.438;MIDI 01
319.260;000.064;72;000.445;MIDI 01
319.341;000.074;64;000.484;MIDI 01
319.568;000.069;64;000.492;MIDI 01
319.453;000.262;79;000.594;MIDI 01
319.684;000.059;72;000.477;MIDI 01
319.768;000.046;64;000.477;MIDI 01
319.976;000.080;62;000.484;MIDI 01
319.854;000.261;78;000.602;MIDI 01
320.066;000.092;72;000.484;MIDI 01
320.182;000.035;62;000.453;MIDI 01
320.349;000.079;62;000.461;MIDI 01
320.247;000.274;77;000.602;MIDI 01
320.464;000.080;71;000.492;MIDI 01
320.552;000.039;62;000.484;MIDI 01
320.644;000.110;76;000.602;MIDI 01
320.744;000.064;60;000.477;MIDI 01
320.837;000.079;72;000.539;MIDI 01
320.929;000.045;60;000.562;MIDI 01
321.056;000.143;55;000.508;MIDI 01
321.178;000.039;67;000.469;MIDI 01
321.048;000.178;43;000.539;MIDI 01
321.215;000.087;75;000.523;MIDI 01
321.283;000.069;72;000.250;MIDI 01
321.323;000.067;67;000.539;MIDI 01
321.533;000.077;69;000.602;MIDI 01
321.419;000.209;54;000.578;MIDI 01
321.421;000.237;42;000.586;MIDI 01
321.641;000.091;72;000.484;MIDI 01
321.657;000.089;74;000.547;MIDI 01
321.721;000.033;69;000.539;MIDI 01
321.920;000.068;68;000.586;MIDI 01
321.823;000.176;53;000.617;MIDI 01
321.829;000.242;41;000.594;MIDI 01
322.026;000.080;71;000.406;MIDI 01
322.016;000.094;74;000.492;MIDI 01
322.102;000.050;68;000.578;MIDI 01
322.305;000.075;67;000.570;MIDI 01
322.212;000.194;52;000.594;MIDI 01
322.219;000.204;40;000.625;MIDI 01
322.410;000.098;72;000.461;MIDI 01
322.415;000.098;76;000.570;MIDI 01
322.507;000.068;67;000.609;MIDI 01
322.698;000.112;67;000.617;MIDI 01
322.599;000.236;51;000.625;MIDI 01
322.602;000.275;39;000.609;MIDI 01
322.807;000.094;79;000.602;MIDI 01
322.830;000.117;73;000.516;MIDI 01
322.934;000.059;67;000.648;MIDI 01
323.011;000.139;50;000.609;MIDI 01
323.017;000.200;38;000.586;MIDI 01
323.130;000.095;69;000.578;MIDI 01
323.221;000.097;78;000.570;MIDI 01
323.244;000.093;74;000.500;MIDI 01
323.323;000.062;69;000.586;MIDI 01
323.560;000.068;68;000.539;MIDI 01
323.439;000.227;35;000.625;MIDI 01
323.443;000.227;47;000.609;MIDI 01
323.622;000.104;78;000.578;MIDI 01
323.660;000.068;74;000.445;MIDI 01
323.743;000.053;68;000.594;MIDI 01
323.836;000.117;48;000.672;MIDI 01
323.841;000.183;36;000.609;MIDI 01
323.941;000.087;67;000.609;MIDI 01
324.032;000.126;76;000.578;MIDI 01
324.072;000.104;72;000.461;MIDI 01
324.151;000.067;67;000.594;MIDI 01
324.368;000.071;69;000.547;MIDI 01
324.254;000.207;42;000.625;MIDI 01
324.252;000.234;30;000.633;MIDI 01
324.447;000.099;75;000.500;MIDI 01
324.470;000.105;72;000.477;MIDI 01
324.567;000.065;69;000.648;MIDI 01
324.716;000.041;71;000.484;MIDI 01
324.714;000.167;74;000.578;MIDI 01
324.828;000.145;72;000.578;MIDI 01
324.934;000.121;71;000.586;MIDI 01
324.704;000.360;31;000.578;MIDI 01
324.708;000.377;43;000.539;MIDI 01
325.043;000.069;69;000.594;MIDI 01
325.118;000.068;67;000.578;MIDI 01
325.227;000.114;65;000.586;MIDI 01
325.330;000.074;64;000.562;MIDI 01
325.423;000.068;62;000.617;MIDI 01
325.544;000.067;36;000.586;MIDI 01
325.540;000.103;48;000.617;MIDI 01
325.677;000.084;64;000.492;MIDI 01
325.793;000.068;72;000.508;MIDI 01
325.884;000.039;64;000.508;MIDI 01
325.983;000.061;72;000.625;MIDI 01
326.086;000.075;64;000.477;MIDI 01
326.188;000.070;67;000.484;MIDI 01
326.273;000.049;64;000.461;MIDI 01
326.413;000.119;79;000.648;MIDI 01
326.512;000.089;64;000.453;MIDI 01
326.596;000.091;72;000.516;MIDI 01
326.701;000.055;64;000.477;MIDI 01
326.910;000.071;64;000.453;MIDI 01
326.808;000.220;79;000.625;MIDI 01
326.996;000.081;72;000.492;MIDI 01
327.097;000.044;64;000.547;MIDI 01
327.346;000.079;65;000.523;MIDI 01
327.219;000.262;81;000.672;MIDI 01
327.447;000.085;72;000.477;MIDI 01
327.547;000.042;65;000.531;MIDI 01
327.720;000.058;65;000.477;MIDI 01
327.625;000.215;81;000.609;MIDI 01
327.805;000.101;72;000.516;MIDI 01
327.917;000.047;65;000.430;MIDI 01
328.020;000.101;79;000.586;MIDI 01
328.139;000.048;64;000.352;MIDI 01
328.202;000.061;72;000.477;MIDI 01
328.293;000.041;64;000.531;MIDI 01
328.547;000.067;70;000.445;MIDI 01
328.429;000.253;61;000.523;MIDI 01
328.422;000.281;49;000.500;MIDI 01
328.634;000.070;79;000.477;MIDI 01
328.629;000.097;76;000.453;MIDI 01
328.718;000.051;70;000.523;MIDI 01
328.879;000.050;60;000.305;MIDI 01
328.833;000.131;62;000.539;MIDI 01
328.836;000.200;50;000.555;MIDI 01
328.945;000.094;69;000.555;MIDI 01
329.048;000.092;78;000.539;MIDI 01
329.057;000.085;74;000.430;MIDI 01
329.144;000.047;69;000.586;MIDI 01
329.243;000.210;47;000.594;MIDI 01
329.372;000.098;68;000.570;MIDI 01
329.245;000.233;59;000.617;MIDI 01
329.471;000.100;77;000.516;MIDI 01
329.478;000.100;74;000.469;MIDI 01
329.559;000.070;68;000.547;MIDI 01
329.652;000.132;60;000.641;MIDI 01
329.656;000.185;48;000.625;MIDI 01
329.790;000.076;67;000.539;MIDI 01
329.876;000.085;76;000.500;MIDI 01
329.895;000.114;72;000.461;MIDI 01
329.975;000.070;67;000.562;MIDI 01
330.209;000.080;69;000.523;MIDI 01
330.078;000.234;54;000.641;MIDI 01
330.080;000.255;42;000.633;MIDI 01
330.294;000.099;75;000.555;MIDI 01
330.298;000.098;72;000.430;MIDI 01
330.406;000.059;69;000.570;MIDI 01
330.525;000.213;55;000.672;MIDI 01
330.664;000.091;67;000.523;MIDI 01
330.533;000.265;43;000.641;MIDI 01
330.768;000.113;74;000.562;MIDI 01
330.761;000.128;72;000.516;MIDI 01
330.890;000.061;67;000.594;MIDI 01
331.150;000.095;65;000.570;MIDI 01
331.017;000.275;43;000.656;MIDI 01
331.266;000.117;74;000.547;MIDI 01
331.271;000.115;71;000.461;MIDI 01
331.386;000.060;65;000.562;MIDI 01
331.624;000.395;48;000.523;MIDI 01
331.622;000.821;64;000.516;MIDI 01
331.620;000.842;72;000.562;MIDI 01
331.626;000.895;67;000.523;MIDI 01
332.318;000.854;36;000.398;MIDI 01
334.358;000.837;72;000.367;MIDI 01
335.336;000.039;67;000.273;MIDI 01
335.734;000.777;76;000.438;MIDI 01
336.689;000.046;72;000.336;MIDI 01
337.082;000.420;79;000.484;MIDI 01
337.128;000.431;60;000.258;MIDI 01
338.028;000.417;55;000.297;MIDI 01
337.775;000.903;79;000.375;MIDI 01
338.352;000.878;64;000.312;MIDI 01
338.990;000.269;79;000.359;MIDI 01
339.229;000.054;60;000.273;MIDI 01
339.666;000.328;53;000.211;MIDI 01
339.617;000.410;41;000.375;MIDI 01
339.615;000.414;72;000.445;MIDI 01
339.609;000.436;81;000.516;MIDI 01
339.610;000.457;79;000.484;MIDI 01
340.499;000.340;48;000.312;MIDI 01
340.240;000.727;72;000.352;MIDI 01
340.229;000.741;81;000.383;MIDI 01
340.255;000.786;77;000.367;MIDI 01
341.448;000.241;81;000.336;MIDI 01
341.457;000.260;77;000.305;MIDI 01
341.704;000.042;53;000.344;MIDI 01
340.835;000.916;57;000.297;MIDI 01
341.471;000.282;72;000.289;MIDI 01
342.043;000.393;72;000.375;MIDI 01
342.034;000.420;79;000.484;MIDI 01
342.032;000.429;77;000.469;MIDI 01
342.059;000.467;48;000.312;MIDI 01
342.926;000.282;43;000.203;MIDI 01
342.655;000.661;72;000.305;MIDI 01
342.645;000.702;79;000.344;MIDI 01
342.659;000.779;76;000.359;MIDI 01
343.809;000.191;72;000.250;MIDI 01
343.803;000.234;76;000.312;MIDI 01
343.805;000.259;79;000.297;MIDI 01
343.198;000.873;52;000.336;MIDI 01
344.069;000.050;48;000.258;MIDI 01
344.451;000.291;79;000.453;MIDI 01
344.775;000.024;77;000.375;MIDI 01
344.498;000.443;65;000.227;MIDI 01
344.491;000.451;57;000.234;MIDI 01
344.512;000.469;60;000.180;MIDI 01
345.006;000.033;79;000.422;MIDI 01
345.075;000.036;77;000.336;MIDI 01
345.148;000.081;79;000.523;MIDI 01
345.229;000.057;77;000.375;MIDI 01
345.291;000.375;77;000.234;MIDI 01
345.997;000.098;88;000.430;MIDI 01
346.115;000.043;86;000.430;MIDI 01
346.260;000.129;84;000.516;MIDI 01
346.390;000.035;83;000.492;MIDI 01
345.624;000.900;62;000.281;MIDI 01
345.617;000.909;67;000.281;MIDI 01
345.615;000.927;59;000.273;MIDI 01
346.522;000.146;81;000.547;MIDI 01
346.667;000.064;79;000.539;MIDI 01
346.835;000.481;77;000.531;MIDI 01
347.303;000.085;75;000.422;MIDI 01
346.887;000.591;67;000.211;MIDI 01
346.859;000.693;64;000.320;MIDI 01
346.861;000.740;60;000.289;MIDI 01
347.428;000.431;76;000.438;MIDI 01
348.262;000.110;81;000.438;MIDI 01
348.377;000.024;79;000.438;MIDI 01
348.526;000.136;77;000.562;MIDI 01
348.655;000.042;76;000.508;MIDI 01
347.992;000.870;52;000.234;MIDI 01
347.973;000.902;60;000.258;MIDI 01
347.990;000.896;55;000.273;MIDI 01
348.817;000.157;74;000.477;MIDI 01
348.964;000.039;72;000.430;MIDI 01
349.136;000.436;71;000.453;MIDI 01
349.601;000.235;69;000.438;MIDI 01
349.834;000.145;79;000.453;MIDI 01
349.159;000.834;62;000.258;MIDI 01
349.157;000.849;53;000.352;MIDI 01
349.994;000.144;77;000.461;MIDI 01
350.124;000.137;76;000.500;MIDI 01
350.243;000.178;74;000.500;MIDI 01
350.478;000.652;64;000.250;MIDI 01
350.448;000.735;72;000.453;MIDI 01
351.133;000.373;62;000.273;MIDI 01
350.480;001.049;55;000.227;MIDI 01
351.130;000.431;71;000.305;MIDI 01
351.930;000.080;65;000.258;MIDI 01
351.922;000.364;60;000.305;MIDI 01
351.894;001.081;74;000.438;MIDI 01
352.015;000.985;65;000.039;MIDI 01
351.943;001.089;67;000.195;MIDI 01
352.707;000.337;55;000.164;MIDI 01
351.924;001.168;71;000.352;MIDI 01
353.559;000.724;64;000.148;MIDI 01
353.574;000.739;48;000.180;MIDI 01
353.585;000.789;67;000.172;MIDI 01
353.550;000.882;72;000.227;MIDI 01
355.157;000.801;72;000.352;MIDI 01
356.128;000.044;67;000.305;MIDI 01
356.509;000.760;76;000.469;MIDI 01
357.446;000.057;72;000.305;MIDI 01
357.856;000.392;79;000.422;MIDI 01
357.854;000.417;60;000.258;MIDI 01
358.794;000.381;55;000.289;MIDI 01
358.541;000.878;79;000.312;MIDI 01
359.725;000.294;79;000.328;MIDI 01
359.119;000.907;64;000.344;MIDI 01
360.012;000.039;60;000.312;MIDI 01
360.432;000.489;72;000.414;MIDI 01
360.447;000.486;53;000.391;MIDI 01
360.424;000.521;81;000.516;MIDI 01
360.434;000.520;79;000.477;MIDI 01
360.440;000.530;41;000.344;MIDI 01
361.400;000.325;48;000.258;MIDI 01
361.135;000.694;81;000.328;MIDI 01
361.132;000.715;72;000.312;MIDI 01
361.147;000.779;77;000.344;MIDI 01
362.322;000.256;81;000.320;MIDI 01
362.328;000.279;77;000.289;MIDI 01
361.714;000.896;57;000.320;MIDI 01
362.343;000.270;72;000.234;MIDI 01
362.606;000.051;53;000.258;MIDI 01
362.996;000.409;72;000.430;MIDI 01
362.989;000.440;79;000.516;MIDI 01
363.022;000.419;48;000.359;MIDI 01
362.986;000.457;77;000.492;MIDI 01
363.903;000.280;43;000.281;MIDI 01
363.625;000.641;72;000.328;MIDI 01
363.615;000.653;79;000.375;MIDI 01
363.621;000.749;76;000.344;MIDI 01
364.188;000.761;52;000.320;MIDI 01
364.759;000.211;72;000.266;MIDI 01
364.757;000.247;79;000.336;MIDI 01
364.758;000.257;76;000.312;MIDI 01
365.029;000.043;48;000.328;MIDI 01
365.461;000.257;79;000.414;MIDI 01
365.747;000.044;77;000.406;MIDI 01
365.485;000.568;57;000.211;MIDI 01
365.992;000.064;79;000.391;MIDI 01
365.494;000.564;65;000.250;MIDI 01
365.526;000.562;60;000.117;MIDI 01
366.079;000.042;77;000.328;MIDI 01
366.155;000.029;79;000.445;MIDI 01
366.243;000.055;77;000.359;MIDI 01
366.288;000.040;79;000.383;MIDI 01
366.331;000.266;77;000.305;MIDI 01
367.025;000.126;88;000.414;MIDI 01
367.154;000.034;86;000.391;MIDI 01
367.297;000.139;84;000.469;MIDI 01
367.430;000.038;83;000.445;MIDI 01
366.666;000.929;59;000.289;MIDI 01
366.678;000.919;62;000.312;MIDI 01
366.680;000.919;67;000.297;MIDI 01
367.568;000.141;81;000.547;MIDI 01
367.706;000.074;79;000.492;MIDI 01
367.905;000.500;77;000.484;MIDI 01
368.377;000.075;75;000.398;MIDI 01
367.924;000.680;67;000.336;MIDI 01
367.939;000.751;64;000.320;MIDI 01
367.936;000.791;60;000.258;MIDI 01
368.512;000.494;76;000.359;MIDI 01
369.387;000.122;81;000.406;MIDI 01
369.518;000.033;79;000.422;MIDI 01
369.669;000.145;77;000.500;MIDI 01
369.794;000.057;76;000.531;MIDI 01
369.098;000.756;60;000.148;MIDI 01
369.087;000.783;52;000.312;MIDI 01
369.099;000.834;55;000.227;MIDI 01
369.957;000.174;74;000.539;MIDI 01
370.101;000.060;72;000.492;MIDI 01
370.305;000.405;71;000.438;MIDI 01
370.755;000.276;69;000.422;MIDI 01
371.021;000.163;79;000.445;MIDI 01
370.327;000.858;62;000.312;MIDI 01
370.329;000.890;53;000.312;MIDI 01
371.194;000.127;77;000.438;MIDI 01
371.325;000.147;76;000.484;MIDI 01
371.460;000.177;74;000.492;MIDI 01
371.688;000.677;64;000.250;MIDI 01
371.673;000.741;72;000.445;MIDI 01
372.351;000.333;62;000.219;MIDI 01
371.694;001.037;55;000.258;MIDI 01
372.343;000.450;71;000.344;MIDI 01
373.171;000.374;60;000.258;MIDI 01
373.126;001.157;74;000.430;MIDI 01
373.148;001.141;67;000.312;MIDI 01
373.140;001.153;65;000.320;MIDI 01
373.137;001.167;71;000.367;MIDI 01
374.003;000.305;55;000.125;MIDI 01
374.803;000.611;64;000.242;MIDI 01
374.805;000.639;48;000.266;MIDI 01
374.824;000.702;67;000.234;MIDI 01
374.793;000.865;72;000.297;MIDI 01
376.636;000.096;64;000.227;MIDI 01
376.664;000.072;60;000.133;MIDI 01
376.972;000.076;64;000.227;MIDI 01
376.988;000.069;60;000.172;MIDI 01
376.309;000.929;79;000.406;MIDI 01
376.330;000.968;55;000.180;MIDI 01
377.255;000.059;64;000.289;MIDI 01
377.258;000.081;60;000.305;MIDI 01
377.264;000.101;81;000.461;MIDI 01
377.387;000.104;83;000.453;MIDI 01
377.521;000.035;84;000.516;MIDI 01
377.883;000.042;83;000.453;MIDI 01
377.889;000.070;60;000.320;MIDI 01
377.895;000.066;64;000.211;MIDI 01
378.184;000.045;81;000.477;MIDI 01
378.190;000.055;64;000.266;MIDI 01
378.203;000.059;60;000.273;MIDI 01
378.442;000.026;79;000.523;MIDI 01
378.459;000.037;64;000.297;MIDI 01
377.542;000.957;55;000.328;MIDI 01
378.460;000.041;60;000.289;MIDI 01
378.749;000.246;79;000.492;MIDI 01
379.005;000.034;77;000.391;MIDI 01
379.016;000.034;65;000.305;MIDI 01
379.021;000.035;62;000.320;MIDI 01
379.310;000.065;65;000.227;MIDI 01
379.306;000.072;62;000.305;MIDI 01
379.280;000.289;76;000.508;MIDI 01
379.553;000.045;74;000.477;MIDI 01
378.728;000.885;55;000.258;MIDI 01
379.591;000.031;62;000.312;MIDI 01
379.581;000.044;65;000.289;MIDI 01
380.132;000.058;65;000.258;MIDI 01
380.127;000.070;62;000.297;MIDI 01
379.858;000.524;72;000.469;MIDI 01
380.417;000.062;65;000.211;MIDI 01
380.416;000.068;62;000.211;MIDI 01
380.418;000.302;71;000.336;MIDI 01
380.702;000.045;62;000.305;MIDI 01
379.854;000.901;55;000.250;MIDI 01
380.705;000.054;65;000.266;MIDI 01
381.003;000.139;72;000.289;MIDI 01
381.018;000.128;67;000.289;MIDI 01
380.995;000.176;64;000.383;MIDI 01
381.353;000.042;74;000.406;MIDI 01
381.423;000.025;72;000.461;MIDI 01
381.493;000.051;71;000.445;MIDI 01
381.552;000.242;72;000.523;MIDI 01
381.786;000.031;59;000.484;MIDI 01
381.805;000.046;67;000.320;MIDI 01
381.807;000.269;74;000.531;MIDI 01
382.107;000.042;60;000.359;MIDI 01
382.103;000.046;67;000.383;MIDI 01
382.096;000.115;76;000.508;MIDI 01
382.430;000.031;77;000.461;MIDI 01
382.485;000.038;76;000.500;MIDI 01
382.558;000.048;74;000.523;MIDI 01
382.610;000.160;76;000.578;MIDI 01
382.849;000.030;53;000.336;MIDI 01
382.851;000.034;62;000.297;MIDI 01
382.796;000.096;79;000.516;MIDI 01
382.874;000.287;77;000.531;MIDI 01
383.170;000.339;76;000.492;MIDI 01
384.051;000.125;77;000.344;MIDI 01
383.182;001.191;60;000.297;MIDI 01
384.181;000.193;76;000.391;MIDI 01
384.399;000.327;74;000.320;MIDI 01
384.741;000.310;76;000.438;MIDI 01
383.190;001.955;55;000.320;MIDI 01
384.357;000.800;59;000.219;MIDI 01
385.025;000.286;77;000.406;MIDI 01
385.298;000.262;78;000.422;MIDI 01
385.938;000.072;64;000.180;MIDI 01
385.934;000.077;67;000.203;MIDI 01
386.194;000.064;64;000.352;MIDI 01
386.197;000.065;67;000.297;MIDI 01
385.616;000.856;79;000.344;MIDI 01
386.503;000.047;64;000.383;MIDI 01
385.606;000.955;55;000.258;MIDI 01
386.498;000.120;81;000.438;MIDI 01
386.644;000.044;83;000.344;MIDI 01
386.840;000.065;84;000.453;MIDI 01
386.996;000.050;86;000.406;MIDI 01
387.155;000.055;67;000.352;MIDI 01
387.157;000.075;64;000.359;MIDI 01
387.141;000.134;88;000.508;MIDI 01
387.272;000.046;86;000.477;MIDI 01
387.434;000.054;67;000.359;MIDI 01
387.442;000.074;64;000.367;MIDI 01
387.423;000.156;84;000.555;MIDI 01
387.562;000.042;83;000.508;MIDI 01
387.706;000.037;67;000.367;MIDI 01
387.704;000.054;64;000.375;MIDI 01
386.816;000.998;55;000.258;MIDI 01
387.720;000.129;81;000.555;MIDI 01
387.876;000.041;79;000.508;MIDI 01
388.076;000.156;79;000.344;MIDI 01
388.274;000.022;77;000.438;MIDI 01
388.572;000.177;89;000.484;MIDI 01
388.556;000.247;65;000.281;MIDI 01
388.776;000.036;88;000.516;MIDI 01
388.575;000.276;62;000.273;MIDI 01
388.943;000.060;65;000.422;MIDI 01
388.984;000.066;62;000.344;MIDI 01
388.932;000.132;88;000.609;MIDI 01
389.069;000.042;86;000.531;MIDI 01
389.229;000.056;65;000.367;MIDI 01
388.073;001.220;55;000.258;MIDI 01
389.224;000.071;62;000.422;MIDI 01
389.199;000.150;86;000.578;MIDI 01
389.347;000.018;84;000.453;MIDI 01
389.471;000.163;84;000.594;MIDI 01
389.598;000.055;83;000.531;MIDI 01
389.744;000.097;65;000.414;MIDI 01
389.749;000.108;62;000.445;MIDI 01
389.741;000.117;83;000.578;MIDI 01
389.837;000.068;81;000.562;MIDI 01
390.014;000.071;65;000.477;MIDI 01
390.026;000.070;62;000.453;MIDI 01
390.007;000.162;81;000.664;MIDI 01
390.141;000.073;79;000.508;MIDI 01
390.291;000.076;65;000.492;MIDI 01
390.295;000.174;79;000.602;MIDI 01
389.453;001.018;55;000.484;MIDI 01
390.317;000.157;62;000.469;MIDI 01
390.442;000.233;77;000.609;MIDI 01
390.675;000.215;64;000.492;MIDI 01
390.678;000.232;76;000.617;MIDI 01
390.681;000.327;60;000.477;MIDI 01
391.308;000.090;84;000.641;MIDI 01
391.593;000.933;84;000.664;MIDI 01
392.964;000.266;86;000.555;MIDI 01
393.224;000.198;88;000.555;MIDI 01
393.384;000.190;86;000.609;MIDI 01
391.599;002.057;66;000.523;MIDI 01
391.593;002.089;57;000.508;MIDI 01
393.552;000.173;84;000.586;MIDI 01
391.613;002.243;60;000.477;MIDI 01
394.578;000.276;78;000.500;MIDI 01
394.956;000.002;80;000.352;MIDI 01
394.974;000.960;60;000.375;MIDI 01
394.966;001.425;81;000.633;MIDI 01
394.971;002.983;55;000.367;MIDI 01
396.978;001.091;59;000.164;MIDI 01
396.980;001.183;79;000.305;MIDI 01
398.590;000.074;81;000.383;MIDI 01
398.818;000.051;79;000.453;MIDI 01
398.965;000.037;77;000.406;MIDI 01
399.086;000.047;76;000.469;MIDI 01
399.200;000.036;74;000.539;MIDI 01
399.402;000.840;72;000.469;MIDI 01
400.311;000.053;67;000.273;MIDI 01
400.685;000.860;76;000.438;MIDI 01
401.628;000.043;72;000.352;MIDI 01
401.996;000.386;79;000.477;MIDI 01
402.010;000.436;60;000.258;MIDI 01
402.925;000.364;55;000.297;MIDI 01
402.647;000.845;79;000.406;MIDI 01
403.223;000.869;64;000.344;MIDI 01
403.815;000.280;79;000.359;MIDI 01
404.092;000.045;60;000.258;MIDI 01
404.482;000.310;53;000.242;MIDI 01
404.450;000.363;41;000.359;MIDI 01
404.447;000.368;72;000.391;MIDI 01
404.429;000.406;81;000.531;MIDI 01
404.427;000.431;79;000.477;MIDI 01
405.267;000.314;48;000.352;MIDI 01
405.035;000.650;72;000.367;MIDI 01
405.014;000.720;81;000.406;MIDI 01
405.023;000.792;77;000.422;MIDI 01
405.579;000.872;57;000.445;MIDI 01
406.195;000.259;81;000.391;MIDI 01
406.207;000.301;77;000.352;MIDI 01
406.471;000.042;53;000.367;MIDI 01
406.205;000.320;72;000.352;MIDI 01
406.842;000.371;72;000.367;MIDI 01
406.847;000.370;48;000.336;MIDI 01
406.829;000.393;79;000.492;MIDI 01
406.816;000.412;77;000.461;MIDI 01
407.699;000.354;43;000.234;MIDI 01
407.444;000.681;72;000.289;MIDI 01
407.442;000.710;79;000.281;MIDI 01
407.431;000.814;76;000.359;MIDI 01
408.002;000.732;52;000.320;MIDI 01
408.613;000.142;72;000.266;MIDI 01
408.582;000.210;76;000.312;MIDI 01
408.597;000.198;79;000.320;MIDI 01
408.825;000.049;48;000.336;MIDI 01
409.266;000.292;79;000.422;MIDI 01
409.587;000.036;77;000.352;MIDI 01
409.808;000.036;79;000.352;MIDI 01
409.298;000.579;57;000.250;MIDI 01
409.300;000.596;65;000.258;MIDI 01
409.327;000.575;60;000.211;MIDI 01
409.900;000.027;77;000.328;MIDI 01
409.957;000.023;79;000.453;MIDI 01
410.021;000.041;77;000.344;MIDI 01
410.067;000.076;79;000.477;MIDI 01
410.155;000.303;77;000.414;MIDI 01
410.889;000.113;88;000.414;MIDI 01
411.032;000.041;86;000.312;MIDI 01
411.168;000.116;84;000.539;MIDI 01
411.288;000.031;83;000.438;MIDI 01
410.522;000.930;62;000.320;MIDI 01
410.516;000.939;67;000.320;MIDI 01
410.519;000.945;59;000.297;MIDI 01
411.425;000.147;81;000.555;MIDI 01
411.570;000.061;79;000.484;MIDI 01
411.755;000.545;77;000.500;MIDI 01
412.271;000.059;75;000.391;MIDI 01
411.795;000.602;67;000.211;MIDI 01
411.791;000.738;64;000.281;MIDI 01
411.793;000.773;60;000.273;MIDI 01
412.390;000.433;76;000.359;MIDI 01
413.246;000.130;81;000.383;MIDI 01
413.380;000.036;79;000.359;MIDI 01
413.525;000.145;77;000.477;MIDI 01
413.663;000.042;76;000.484;MIDI 01
412.965;000.810;52;000.227;MIDI 01
412.950;000.827;60;000.227;MIDI 01
412.967;000.844;55;000.219;MIDI 01
413.810;000.192;74;000.531;MIDI 01
413.970;000.050;72;000.461;MIDI 01
414.191;000.070;72;000.367;MIDI 01
414.177;000.489;71;000.320;MIDI 01
414.702;000.326;69;000.430;MIDI 01
414.189;000.904;62;000.273;MIDI 01
414.185;000.909;53;000.320;MIDI 01
414.949;000.177;79;000.430;MIDI 01
415.130;000.151;77;000.508;MIDI 01
415.258;000.144;76;000.508;MIDI 01
415.386;000.192;74;000.555;MIDI 01
415.605;000.742;72;000.477;MIDI 01
415.627;000.735;64;000.281;MIDI 01
415.639;000.978;55;000.250;MIDI 01
416.337;000.291;62;000.281;MIDI 01
416.317;000.393;71;000.359;MIDI 01
417.208;000.402;60;000.219;MIDI 01
417.184;001.288;65;000.297;MIDI 01
418.121;000.353;55;000.211;MIDI 01
417.166;001.314;74;000.422;MIDI 01
417.184;001.352;67;000.250;MIDI 01
417.190;001.365;71;000.336;MIDI 01
419.355;001.278;64;000.164;MIDI 01
419.368;001.309;48;000.203;MIDI 01
419.401;001.327;67;000.164;MIDI 01
419.373;001.375;72;000.211;MIDI 01
421.950;000.082;36;000.375;MIDI 01
422.104;000.060;48;000.414;MIDI 01
421.964;000.286;64;000.305;MIDI 01
421.966;000.288;67;000.352;MIDI 01
422.250;000.052;47;000.367;MIDI 01
421.931;000.439;72;000.523;MIDI 01
422.348;000.055;48;000.391;MIDI 01
422.460;000.044;50;000.391;MIDI 01
422.533;000.070;48;000.445;MIDI 01
422.641;000.058;47;000.477;MIDI 01
422.743;000.036;48;000.406;MIDI 01
422.801;000.034;50;000.430;MIDI 01
422.830;000.048;74;000.500;MIDI 01
422.897;000.048;72;000.484;MIDI 01
422.877;000.070;48;000.453;MIDI 01
422.958;000.055;74;000.531;MIDI 01
422.980;000.077;47;000.422;MIDI 01
423.034;000.030;72;000.453;MIDI 01
423.102;000.025;71;000.422;MIDI 01
423.115;000.109;48;000.367;MIDI 01
423.159;000.114;72;000.578;MIDI 01
423.277;000.051;40;000.469;MIDI 01
423.409;000.073;48;000.422;MIDI 01
423.272;000.245;79;000.586;MIDI 01
423.541;000.060;47;000.375;MIDI 01
423.619;000.071;48;000.484;MIDI 01
423.727;000.047;50;000.445;MIDI 01
423.819;000.069;48;000.500;MIDI 01
423.908;000.074;47;000.484;MIDI 01
424.062;000.049;74;000.539;MIDI 01
424.044;000.074;50;000.500;MIDI 01
424.036;000.084;48;000.289;MIDI 01
424.127;000.061;72;000.539;MIDI 01
424.130;000.077;48;000.414;MIDI 01
424.204;000.048;74;000.539;MIDI 01
424.251;000.070;72;000.453;MIDI 01
424.259;000.071;47;000.406;MIDI 01
424.336;000.040;71;000.508;MIDI 01
424.366;000.086;48;000.445;MIDI 01
424.509;000.060;72;000.516;MIDI 01
424.500;000.084;41;000.477;MIDI 01
424.504;000.197;81;000.625;MIDI 01
424.635;000.094;48;000.383;MIDI 01
424.502;000.231;79;000.578;MIDI 01
424.770;000.070;47;000.383;MIDI 01
424.890;000.049;48;000.438;MIDI 01
424.979;000.047;50;000.383;MIDI 01
425.058;000.091;48;000.453;MIDI 01
424.939;000.260;72;000.555;MIDI 01
424.921;000.312;81;000.641;MIDI 01
424.936;000.327;77;000.469;MIDI 01
425.193;000.073;47;000.430;MIDI 01
425.314;000.047;48;000.375;MIDI 01
425.342;000.060;50;000.430;MIDI 01
425.459;000.054;48;000.391;MIDI 01
425.396;000.135;72;000.539;MIDI 01
425.562;000.044;47;000.445;MIDI 01
425.375;000.233;81;000.625;MIDI 01
425.392;000.243;77;000.578;MIDI 01
425.656;000.070;48;000.438;MIDI 01
425.804;000.052;36;000.445;MIDI 01
425.914;000.057;48;000.422;MIDI 01
426.056;000.068;47;000.391;MIDI 01
426.139;000.064;48;000.422;MIDI 01
425.794;000.423;79;000.539;MIDI 01
425.800;000.423;76;000.523;MIDI 01
426.249;000.034;50;000.336;MIDI 01
425.820;000.486;72;000.414;MIDI 01
426.317;000.057;48;000.422;MIDI 01
426.416;000.040;47;000.453;MIDI 01
426.486;000.041;48;000.484;MIDI 01
426.629;000.031;37;000.422;MIDI 01
426.620;000.079;81;000.531;MIDI 01
426.703;000.045;79;000.516;MIDI 01
426.723;000.058;49;000.461;MIDI 01
426.781;000.047;81;000.406;MIDI 01
426.819;000.040;47;000.391;MIDI 01
426.828;000.075;79;000.531;MIDI 01
426.913;000.038;78;000.570;MIDI 01
426.891;000.108;49;000.531;MIDI 01
426.968;000.081;79;000.398;MIDI 01
427.053;000.069;38;000.523;MIDI 01
427.192;000.065;50;000.438;MIDI 01
427.307;000.081;49;000.430;MIDI 01
427.404;000.046;50;000.445;MIDI 01
427.035;000.493;78;000.625;MIDI 01
427.502;000.044;52;000.461;MIDI 01
427.571;000.056;50;000.461;MIDI 01
427.643;000.068;49;000.461;MIDI 01
427.739;000.038;50;000.500;MIDI 01
427.866;000.044;35;000.547;MIDI 01
427.873;000.068;79;000.602;MIDI 01
427.936;000.053;77;000.508;MIDI 01
427.978;000.086;47;000.492;MIDI 01
428.033;000.033;76;000.531;MIDI 01
428.094;000.069;45;000.422;MIDI 01
428.073;000.132;77;000.508;MIDI 01
428.227;000.034;47;000.352;MIDI 01
428.290;000.053;36;000.516;MIDI 01
428.418;000.096;48;000.438;MIDI 01
428.560;000.046;47;000.383;MIDI 01
428.658;000.038;48;000.430;MIDI 01
428.728;000.041;50;000.367;MIDI 01
428.176;000.636;76;000.508;MIDI 01
428.805;000.050;48;000.461;MIDI 01
428.887;000.038;47;000.461;MIDI 01
428.946;000.042;48;000.586;MIDI 01
429.074;000.039;33;000.516;MIDI 01
429.071;000.067;74;000.602;MIDI 01
429.129;000.075;72;000.586;MIDI 01
429.183;000.087;45;000.492;MIDI 01
429.211;000.099;74;000.516;MIDI 01
429.281;000.093;44;000.531;MIDI 01
429.347;000.049;71;000.539;MIDI 01
429.387;000.029;45;000.469;MIDI 01
429.288;000.225;72;000.383;MIDI 01
429.494;000.067;29;000.531;MIDI 01
429.619;000.105;41;000.500;MIDI 01
429.743;000.099;40;000.469;MIDI 01
429.863;000.051;41;000.484;MIDI 01
429.470;000.477;74;000.680;MIDI 01
429.942;000.053;43;000.508;MIDI 01
429.892;000.133;77;000.625;MIDI 01
430.024;000.073;41;000.500;MIDI 01
430.113;000.050;40;000.461;MIDI 01
430.199;000.047;41;000.578;MIDI 01
430.316;000.041;31;000.555;MIDI 01
430.325;000.106;62;000.570;MIDI 01
430.321;000.144;65;000.578;MIDI 01
430.422;000.051;43;000.477;MIDI 01
430.323;000.201;71;000.594;MIDI 01
430.506;000.073;42;000.547;MIDI 01
430.609;000.051;43;000.531;MIDI 01
430.740;000.066;36;000.594;MIDI 01
430.870;000.096;38;000.547;MIDI 01
430.976;000.077;40;000.484;MIDI 01
431.085;000.054;41;000.555;MIDI 01
431.178;000.053;43;000.539;MIDI 01
431.293;000.087;45;000.492;MIDI 01
431.403;000.055;47;000.516;MIDI 01
431.509;000.072;48;000.492;MIDI 01
431.653;000.044;36;000.422;MIDI 01
430.738;000.975;64;000.555;MIDI 01
430.733;001.014;72;000.602;MIDI 01
430.735;001.047;67;000.562;MIDI 01
432.190;000.069;36;000.367;MIDI 01
432.341;000.050;48;000.398;MIDI 01
432.465;000.064;47;000.391;MIDI 01
432.231;000.345;64;000.266;MIDI 01
432.226;000.357;67;000.305;MIDI 01
432.541;000.070;48;000.430;MIDI 01
432.202;000.458;72;000.383;MIDI 01
432.653;000.033;50;000.367;MIDI 01
432.735;000.046;48;000.430;MIDI 01
432.831;000.048;47;000.422;MIDI 01
432.914;000.044;48;000.352;MIDI 01
432.974;000.030;50;000.422;MIDI 01
433.016;000.031;74;000.438;MIDI 01
433.067;000.040;72;000.516;MIDI 01
433.065;000.047;48;000.391;MIDI 01
433.133;000.060;74;000.492;MIDI 01
433.164;000.054;47;000.375;MIDI 01
433.198;000.036;72;000.461;MIDI 01
433.257;000.027;71;000.422;MIDI 01
433.270;000.085;48;000.352;MIDI 01
433.326;000.096;72;000.422;MIDI 01
433.431;000.064;40;000.375;MIDI 01
433.575;000.064;48;000.328;MIDI 01
433.709;000.065;47;000.328;MIDI 01
433.427;000.351;79;000.500;MIDI 01
433.799;000.049;48;000.398;MIDI 01
433.882;000.047;50;000.422;MIDI 01
433.965;000.062;48;000.477;MIDI 01
434.061;000.073;47;000.469;MIDI 01
434.156;000.037;48;000.406;MIDI 01
434.215;000.041;74;000.523;MIDI 01
434.202;000.061;50;000.492;MIDI 01
434.272;000.027;72;000.461;MIDI 01
434.305;000.048;48;000.469;MIDI 01
434.341;000.054;74;000.539;MIDI 01
434.395;000.065;72;000.594;MIDI 01
434.402;000.069;47;000.422;MIDI 01
434.474;000.062;71;000.484;MIDI 01
434.501;000.070;48;000.375;MIDI 01
434.614;000.052;81;000.625;MIDI 01
434.620;000.051;72;000.031;MIDI 01
434.628;000.045;79;000.523;MIDI 01
434.616;000.060;41;000.500;MIDI 01
434.720;000.076;48;000.406;MIDI 01
434.848;000.092;47;000.344;MIDI 01
434.962;000.057;48;000.391;MIDI 01
435.038;000.029;72;000.445;MIDI 01
435.029;000.041;81;000.570;MIDI 01
435.035;000.040;77;000.500;MIDI 01
435.055;000.042;50;000.383;MIDI 01
435.148;000.071;48;000.469;MIDI 01
435.265;000.081;47;000.422;MIDI 01
435.391;000.039;48;000.328;MIDI 01
435.428;000.044;50;000.422;MIDI 01
435.465;000.027;72;000.461;MIDI 01
435.462;000.031;77;000.500;MIDI 01
435.454;000.040;81;000.602;MIDI 01
435.536;000.041;48;000.383;MIDI 01
435.644;000.026;47;000.375;MIDI 01
435.706;000.071;48;000.453;MIDI 01
435.870;000.043;36;000.430;MIDI 01
435.993;000.046;48;000.344;MIDI 01
436.101;000.067;47;000.352;MIDI 01
436.183;000.046;48;000.414;MIDI 01
435.872;000.398;79;000.445;MIDI 01
436.270;000.030;50;000.398;MIDI 01
435.886;000.455;76;000.398;MIDI 01
435.878;000.523;72;000.352;MIDI 01
436.351;000.055;48;000.461;MIDI 01
436.449;000.041;47;000.438;MIDI 01
436.518;000.056;48;000.523;MIDI 01
436.661;000.036;37;000.484;MIDI 01
436.661;000.073;81;000.547;MIDI 01
436.735;000.058;79;000.523;MIDI 01
436.767;000.049;49;000.461;MIDI 01
436.822;000.046;81;000.438;MIDI 01
436.856;000.035;47;000.383;MIDI 01
436.877;000.070;79;000.547;MIDI 01
436.951;000.070;78;000.578;MIDI 01
436.929;000.125;49;000.531;MIDI 01
437.027;000.097;79;000.430;MIDI 01
437.086;000.069;38;000.508;MIDI 01
437.224;000.081;50;000.453;MIDI 01
437.346;000.073;49;000.453;MIDI 01
437.457;000.029;50;000.414;MIDI 01
437.532;000.042;52;000.391;MIDI 01
437.105;000.498;78;000.445;MIDI 01
437.606;000.049;50;000.391;MIDI 01
437.677;000.059;49;000.469;MIDI 01
437.767;000.035;50;000.461;MIDI 01
437.871;000.055;79;000.586;MIDI 01
437.874;000.054;35;000.500;MIDI 01
437.922;000.042;77;000.547;MIDI 01
438.027;000.037;76;000.523;MIDI 01
437.972;000.097;47;000.484;MIDI 01
438.021;000.052;79;000.203;MIDI 01
438.101;000.061;45;000.445;MIDI 01
438.074;000.131;77;000.547;MIDI 01
438.227;000.026;47;000.383;MIDI 01
438.292;000.031;36;000.492;MIDI 01
438.401;000.094;48;000.477;MIDI 01
438.540;000.054;47;000.422;MIDI 01
438.618;000.051;48;000.469;MIDI 01
438.708;000.040;50;000.438;MIDI 01
438.174;000.579;76;000.516;MIDI 01
438.765;000.068;48;000.492;MIDI 01
438.866;000.049;47;000.469;MIDI 01
438.941;000.044;48;000.555;MIDI 01
439.097;000.047;35;000.281;MIDI 01
439.095;000.051;33;000.320;MIDI 01
439.080;000.068;74;000.625;MIDI 01
439.143;000.065;72;000.578;MIDI 01
439.191;000.049;47;000.336;MIDI 01
439.216;000.041;45;000.305;MIDI 01
439.207;000.097;74;000.406;MIDI 01
439.267;000.074;44;000.508;MIDI 01
439.346;000.068;71;000.523;MIDI 01
439.363;000.055;45;000.461;MIDI 01
439.271;000.231;72;000.453;MIDI 01
439.496;000.058;29;000.539;MIDI 01
439.618;000.081;41;000.539;MIDI 01
439.762;000.078;40;000.469;MIDI 01
439.857;000.054;41;000.461;MIDI 01
439.477;000.442;74;000.648;MIDI 01
439.896;000.075;77;000.586;MIDI 01
439.936;000.055;43;000.523;MIDI 01
440.028;000.081;41;000.492;MIDI 01
440.126;000.040;40;000.492;MIDI 01
440.197;000.065;41;000.500;MIDI 01
440.311;000.039;31;000.531;MIDI 01
440.329;000.080;65;000.539;MIDI 01
440.327;000.084;62;000.531;MIDI 01
440.325;000.133;71;000.547;MIDI 01
440.416;000.061;43;000.500;MIDI 01
440.518;000.064;42;000.508;MIDI 01
440.618;000.036;43;000.500;MIDI 01
440.724;000.065;36;000.562;MIDI 01
440.857;000.071;38;000.500;MIDI 01
440.972;000.048;40;000.484;MIDI 01
441.069;000.045;41;000.500;MIDI 01
441.157;000.045;43;000.492;MIDI 01
441.271;000.073;45;000.461;MIDI 01
441.364;000.050;47;000.453;MIDI 01
441.476;000.050;48;000.344;MIDI 01
440.726;000.957;64;000.523;MIDI 01
440.732;001.002;67;000.508;MIDI 01
441.620;000.117;36;000.391;MIDI 01
440.734;001.044;72;000.523;MIDI 01
442.221;000.114;81;000.430;MIDI 01
442.219;000.122;55;000.391;MIDI 01
442.372;000.098;79;000.438;MIDI 01
442.359;000.115;64;000.406;MIDI 01
442.504;000.065;78;000.461;MIDI 01
442.511;000.059;63;000.453;MIDI 01
442.636;000.050;64;000.422;MIDI 01
442.620;000.079;79;000.461;MIDI 01
442.711;000.070;63;000.461;MIDI 01
442.714;000.077;78;000.531;MIDI 01
442.811;000.103;64;000.445;MIDI 01
442.825;000.096;79;000.508;MIDI 01
442.940;000.060;63;000.469;MIDI 01
442.932;000.075;78;000.562;MIDI 01
443.050;000.065;64;000.414;MIDI 01
443.040;000.093;79;000.516;MIDI 01
443.148;000.064;63;000.453;MIDI 01
443.146;000.075;78;000.555;MIDI 01
443.260;000.035;64;000.375;MIDI 01
443.250;000.049;79;000.461;MIDI 01
443.319;000.099;78;000.523;MIDI 01
443.366;000.067;63;000.359;MIDI 01
443.432;000.034;79;000.516;MIDI 01
443.461;000.045;64;000.250;MIDI 01
443.566;000.066;55;000.391;MIDI 01
443.547;000.117;79;000.523;MIDI 01
443.716;000.045;62;000.344;MIDI 01
443.689;000.085;77;000.406;MIDI 01
443.815;000.055;61;000.391;MIDI 01
443.812;000.070;76;000.422;MIDI 01
443.904;000.062;62;000.383;MIDI 01
443.935;000.077;77;000.445;MIDI 01
444.009;000.060;61;000.453;MIDI 01
444.020;000.089;76;000.484;MIDI 01
444.121;000.065;62;000.383;MIDI 01
444.140;000.084;77;000.492;MIDI 01
444.220;000.050;61;000.461;MIDI 01
444.230;000.076;76;000.555;MIDI 01
444.316;000.067;62;000.422;MIDI 01
444.329;000.088;77;000.508;MIDI 01
444.421;000.068;61;000.430;MIDI 01
444.430;000.090;76;000.516;MIDI 01
444.541;000.060;77;000.484;MIDI 01
444.566;000.074;62;000.055;MIDI 01
444.644;000.028;61;000.344;MIDI 01
444.640;000.083;76;000.531;MIDI 01
444.708;000.049;62;000.359;MIDI 01
444.726;000.035;77;000.516;MIDI 01
444.860;000.062;55;000.375;MIDI 01
444.853;000.111;77;000.500;MIDI 01
445.002;000.067;60;000.391;MIDI 01
445.012;000.090;76;000.430;MIDI 01
445.126;000.046;75;000.445;MIDI 01
445.128;000.057;59;000.367;MIDI 01
445.222;000.050;60;000.406;MIDI 01
445.228;000.074;76;000.438;MIDI 01
445.319;000.068;75;000.484;MIDI 01
445.327;000.062;59;000.406;MIDI 01
445.434;000.053;60;000.344;MIDI 01
445.429;000.064;76;000.469;MIDI 01
445.544;000.048;75;000.438;MIDI 01
445.545;000.058;59;000.359;MIDI 01
445.630;000.071;60;000.422;MIDI 01
445.637;000.072;76;000.484;MIDI 01
445.727;000.083;75;000.492;MIDI 01
445.746;000.074;59;000.414;MIDI 01
445.849;000.045;76;000.398;MIDI 01
445.864;000.054;60;000.438;MIDI 01
445.909;000.081;75;000.492;MIDI 01
445.979;000.057;59;000.414;MIDI 01
446.022;000.019;76;000.453;MIDI 01
446.045;000.052;60;000.492;MIDI 01
446.161;000.045;55;000.453;MIDI 01
446.147;000.096;76;000.492;MIDI 01
446.283;000.064;65;000.445;MIDI 01
446.265;000.101;74;000.445;MIDI 01
446.399;000.053;64;000.367;MIDI 01
446.389;000.070;73;000.430;MIDI 01
446.493;000.051;65;000.430;MIDI 01
446.495;000.089;74;000.477;MIDI 01
446.594;000.055;64;000.391;MIDI 01
446.596;000.078;73;000.492;MIDI 01
446.691;000.061;65;000.391;MIDI 01
446.711;000.078;74;000.414;MIDI 01
446.806;000.051;64;000.375;MIDI 01
446.812;000.065;73;000.492;MIDI 01
446.893;000.048;65;000.391;MIDI 01
446.930;000.053;74;000.438;MIDI 01
446.988;000.048;64;000.391;MIDI 01
447.015;000.048;73;000.492;MIDI 01
447.077;000.047;65;000.375;MIDI 01
447.109;000.086;74;000.484;MIDI 01
447.169;000.056;64;000.406;MIDI 01
447.204;000.056;73;000.438;MIDI 01
447.299;000.038;65;000.203;MIDI 01
447.312;000.050;74;000.445;MIDI 01
447.406;000.067;55;000.414;MIDI 01
447.449;000.092;81;000.383;MIDI 01
447.546;000.062;64;000.359;MIDI 01
447.575;000.073;79;000.375;MIDI 01
447.653;000.053;63;000.406;MIDI 01
447.694;000.047;78;000.414;MIDI 01
447.753;000.061;64;000.391;MIDI 01
447.775;000.068;79;000.445;MIDI 01
447.843;000.059;63;000.430;MIDI 01
447.860;000.050;78;000.477;MIDI 01
447.978;000.046;64;000.234;MIDI 01
447.951;000.084;79;000.406;MIDI 01
448.059;000.049;63;000.422;MIDI 01
448.040;000.075;78;000.539;MIDI 01
448.147;000.058;64;000.414;MIDI 01
448.151;000.087;79;000.523;MIDI 01
448.270;000.074;55;000.469;MIDI 01
448.274;000.099;88;000.633;MIDI 01
448.397;000.060;79;000.531;MIDI 01
448.380;000.082;64;000.461;MIDI 01
448.518;000.041;55;000.438;MIDI 01
448.495;000.065;88;000.617;MIDI 01
448.591;000.038;79;000.555;MIDI 01
448.626;000.042;64;000.461;MIDI 01
448.709;000.081;55;000.484;MIDI 01
448.711;000.106;79;000.539;MIDI 01
448.856;000.053;62;000.367;MIDI 01
448.845;000.080;77;000.445;MIDI 01
448.941;000.057;61;000.367;MIDI 01
448.951;000.081;76;000.438;MIDI 01
449.046;000.043;62;000.414;MIDI 01
449.069;000.062;77;000.414;MIDI 01
449.135;000.062;61;000.398;MIDI 01
449.150;000.065;76;000.430;MIDI 01
449.239;000.053;62;000.391;MIDI 01
449.247;000.064;77;000.406;MIDI 01
449.347;000.045;76;000.492;MIDI 01
449.364;000.044;61;000.328;MIDI 01
449.451;000.060;62;000.391;MIDI 01
449.459;000.073;77;000.484;MIDI 01
449.574;000.072;55;000.391;MIDI 01
449.568;000.091;86;000.602;MIDI 01
449.694;000.057;77;000.492;MIDI 01
449.674;000.102;62;000.445;MIDI 01
449.793;000.061;86;000.586;MIDI 01
449.814;000.043;55;000.461;MIDI 01
449.890;000.040;77;000.578;MIDI 01
449.938;000.036;62;000.430;MIDI 01
450.007;000.068;55;000.391;MIDI 01
450.030;000.085;77;000.547;MIDI 01
450.132;000.020;75;000.422;MIDI 01
450.116;000.092;60;000.453;MIDI 01
450.175;000.086;76;000.438;MIDI 01
450.261;000.053;59;000.391;MIDI 01
450.282;000.049;75;000.461;MIDI 01
450.374;000.034;60;000.383;MIDI 01
450.374;000.072;76;000.391;MIDI 01
450.446;000.062;59;000.453;MIDI 01
450.458;000.072;75;000.516;MIDI 01
450.535;000.051;60;000.414;MIDI 01
450.575;000.069;76;000.445;MIDI 01
450.668;000.058;75;000.414;MIDI 01
450.650;000.077;59;000.391;MIDI 01
450.791;000.045;76;000.406;MIDI 01
450.783;000.056;60;000.273;MIDI 01
450.891;000.079;84;000.516;MIDI 01
450.905;000.077;55;000.289;MIDI 01
451.008;000.060;76;000.398;MIDI 01
451.001;000.101;60;000.344;MIDI 01
451.121;000.046;84;000.508;MIDI 01
451.158;000.054;55;000.305;MIDI 01
451.221;000.038;76;000.484;MIDI 01
451.329;000.052;55;000.484;MIDI 01
451.361;000.065;76;000.492;MIDI 01
451.474;000.049;65;000.406;MIDI 01
451.457;000.098;74;000.469;MIDI 01
451.592;000.039;64;000.344;MIDI 01
451.593;000.040;73;000.367;MIDI 01
451.670;000.053;65;000.367;MIDI 01
451.680;000.060;74;000.375;MIDI 01
451.782;000.050;64;000.312;MIDI 01
451.761;000.072;73;000.406;MIDI 01
451.881;000.039;74;000.391;MIDI 01
451.883;000.047;65;000.281;MIDI 01
451.984;000.034;64;000.336;MIDI 01
451.949;000.072;73;000.477;MIDI 01
452.083;000.038;65;000.297;MIDI 01
452.045;000.085;74;000.484;MIDI 01
452.203;000.037;55;000.422;MIDI 01
452.167;000.087;79;000.531;MIDI 01
452.297;000.049;71;000.500;MIDI 01
452.289;000.069;65;000.383;MIDI 01
452.393;000.062;79;000.547;MIDI 01
452.407;000.075;55;000.375;MIDI 01
452.486;000.035;71;000.547;MIDI 01
452.495;000.033;65;000.492;MIDI 01
452.659;000.067;48;000.516;MIDI 01
452.809;000.053;60;000.453;MIDI 01
452.668;000.295;64;000.492;MIDI 01
452.932;000.084;59;000.461;MIDI 01
452.685;000.353;67;000.422;MIDI 01
453.036;000.051;60;000.422;MIDI 01
452.673;000.443;72;000.477;MIDI 01
453.116;000.059;62;000.438;MIDI 01
453.202;000.095;60;000.461;MIDI 01
453.320;000.078;59;000.492;MIDI 01
453.439;000.036;60;000.320;MIDI 01
453.479;000.044;62;000.492;MIDI 01
453.504;000.033;74;000.500;MIDI 01
453.543;000.058;72;000.578;MIDI 01
453.547;000.070;60;000.469;MIDI 01
453.630;000.066;74;000.508;MIDI 01
453.674;000.076;59;000.438;MIDI 01
453.723;000.043;72;000.344;MIDI 01
453.766;000.036;71;000.438;MIDI 01
453.784;000.078;60;000.453;MIDI 01
453.825;000.106;72;000.500;MIDI 01
453.925;000.067;52;000.492;MIDI 01
454.047;000.074;60;000.391;MIDI 01
453.931;000.272;79;000.586;MIDI 01
454.175;000.082;59;000.438;MIDI 01
454.266;000.057;60;000.445;MIDI 01
454.363;000.049;62;000.453;MIDI 01
454.461;000.064;60;000.461;MIDI 01
454.551;000.089;59;000.492;MIDI 01
454.672;000.030;60;000.414;MIDI 01
454.711;000.042;74;000.555;MIDI 01
454.706;000.066;62;000.523;MIDI 01
454.768;000.036;72;000.461;MIDI 01
454.818;000.056;60;000.477;MIDI 01
454.845;000.058;74;000.539;MIDI 01
454.908;000.073;72;000.539;MIDI 01
454.917;000.116;59;000.438;MIDI 01
454.989;000.056;71;000.555;MIDI 01
455.068;000.065;60;000.172;MIDI 01
455.130;000.046;81;000.594;MIDI 01
455.132;000.062;79;000.555;MIDI 01
455.126;000.072;53;000.492;MIDI 01
455.172;000.029;72;000.336;MIDI 01
455.243;000.094;60;000.445;MIDI 01
455.341;000.108;59;000.453;MIDI 01
455.477;000.049;60;000.430;MIDI 01
455.566;000.030;72;000.484;MIDI 01
455.557;000.042;81;000.570;MIDI 01
455.564;000.038;77;000.531;MIDI 01
455.561;000.047;62;000.430;MIDI 01
455.634;000.066;60;000.477;MIDI 01
455.738;000.094;59;000.461;MIDI 01
455.853;000.043;60;000.430;MIDI 01
455.927;000.050;62;000.430;MIDI 01
455.967;000.026;77;000.508;MIDI 01
455.965;000.030;81;000.562;MIDI 01
455.980;000.021;72;000.414;MIDI 01
455.992;000.083;60;000.500;MIDI 01
456.110;000.042;59;000.453;MIDI 01
456.235;000.045;60;000.398;MIDI 01
456.357;000.055;48;000.445;MIDI 01
456.494;000.050;60;000.344;MIDI 01
456.608;000.066;59;000.391;MIDI 01
456.693;000.053;60;000.461;MIDI 01
456.374;000.442;79;000.461;MIDI 01
456.789;000.042;62;000.359;MIDI 01
456.385;000.520;76;000.398;MIDI 01
456.870;000.058;60;000.438;MIDI 01
456.387;000.545;72;000.383;MIDI 01
456.955;000.042;59;000.469;MIDI 01
457.033;000.036;60;000.500;MIDI 01
457.157;000.031;49;000.461;MIDI 01
457.169;000.070;81;000.484;MIDI 01
457.251;000.042;61;000.500;MIDI 01
457.247;000.055;79;000.516;MIDI 01
457.336;000.041;59;000.414;MIDI 01
457.339;000.053;81;000.391;MIDI 01
457.392;000.068;79;000.492;MIDI 01
457.466;000.046;78;000.562;MIDI 01
457.402;000.131;61;000.523;MIDI 01
457.531;000.083;79;000.406;MIDI 01
457.572;000.073;50;000.531;MIDI 01
457.710;000.072;62;000.492;MIDI 01
457.827;000.089;61;000.461;MIDI 01
457.940;000.043;62;000.477;MIDI 01
458.029;000.036;64;000.406;MIDI 01
457.592;000.540;78;000.492;MIDI 01
458.094;000.056;62;000.438;MIDI 01
458.182;000.047;61;000.422;MIDI 01
458.264;000.027;62;000.500;MIDI 01
458.372;000.060;47;000.555;MIDI 01
458.431;000.044;77;000.555;MIDI 01
458.370;000.122;79;000.602;MIDI 01
458.526;000.055;76;000.531;MIDI 01
458.489;000.095;59;000.531;MIDI 01
458.524;000.070;79;000.047;MIDI 01
458.593;000.066;57;000.453;MIDI 01
458.591;000.097;77;000.578;MIDI 01
458.718;000.042;59;000.469;MIDI 01
458.786;000.048;48;000.398;MIDI 01
458.822;000.045;50;000.352;MIDI 01
458.908;000.092;60;000.469;MIDI 01
459.031;000.071;59;000.484;MIDI 01
459.126;000.041;60;000.469;MIDI 01
459.201;000.038;62;000.508;MIDI 01
459.269;000.078;60;000.516;MIDI 01
458.702;000.648;76;000.586;MIDI 01
459.384;000.041;59;000.477;MIDI 01
459.448;000.043;60;000.523;MIDI 01
459.568;000.036;45;000.578;MIDI 01
459.580;000.065;74;000.586;MIDI 01
459.626;000.062;72;000.539;MIDI 01
459.679;000.079;57;000.453;MIDI 01
459.703;000.105;74;000.445;MIDI 01
459.777;000.072;56;000.492;MIDI 01
459.849;000.051;71;000.484;MIDI 01
459.884;000.023;57;000.461;MIDI 01
459.783;000.217;72;000.461;MIDI 01
459.984;000.067;41;000.547;MIDI 01
460.100;000.099;53;000.477;MIDI 01
460.232;000.091;52;000.469;MIDI 01
460.351;000.035;53;000.391;MIDI 01
459.954;000.465;74;000.648;MIDI 01
460.391;000.067;55;000.602;MIDI 01
460.386;000.079;77;000.625;MIDI 01
460.481;000.085;53;000.516;MIDI 01
460.584;000.049;52;000.484;MIDI 01
460.664;000.071;53;000.523;MIDI 01
460.781;000.041;43;000.602;MIDI 01
460.826;000.038;64;000.414;MIDI 01
460.820;000.046;70;000.383;MIDI 01
460.798;000.104;62;000.594;MIDI 01
460.806;000.098;65;000.516;MIDI 01
460.902;000.054;55;000.508;MIDI 01
460.803;000.163;71;000.562;MIDI 01
460.974;000.078;54;000.547;MIDI 01
461.070;000.041;55;000.555;MIDI 01
461.206;000.057;40;000.594;MIDI 01
461.326;000.090;52;000.500;MIDI 01
461.444;000.096;50;000.453;MIDI 01
461.558;000.051;52;000.492;MIDI 01
461.220;000.428;64;000.570;MIDI 01
461.215;000.445;67;000.602;MIDI 01
461.620;000.059;53;000.547;MIDI 01
461.212;000.483;72;000.625;MIDI 01
461.708;000.082;52;000.508;MIDI 01
461.806;000.036;50;000.492;MIDI 01
461.861;000.069;52;000.531;MIDI 01
462.016;000.045;39;000.555;MIDI 01
462.034;000.115;81;000.578;MIDI 01
462.105;000.079;51;000.555;MIDI 01
462.119;000.070;79;000.539;MIDI 01
462.217;000.043;50;000.406;MIDI 01
462.196;000.072;81;000.242;MIDI 01
462.258;000.078;79;000.484;MIDI 01
462.276;000.104;51;000.516;MIDI 01
462.341;000.045;78;000.578;MIDI 01
462.406;000.074;79;000.344;MIDI 01
462.432;000.073;38;000.570;MIDI 01
462.554;000.081;50;000.477;MIDI 01
462.659;000.095;49;000.500;MIDI 01
462.759;000.054;50;000.492;MIDI 01
462.845;000.056;52;000.516;MIDI 01
462.460;000.458;78;000.672;MIDI 01
462.936;000.044;50;000.453;MIDI 01
462.994;000.069;49;000.516;MIDI 01
463.087;000.035;50;000.477;MIDI 01
463.201;000.061;35;000.578;MIDI 01
463.208;000.115;79;000.680;MIDI 01
463.278;000.071;77;000.531;MIDI 01
463.315;000.091;47;000.492;MIDI 01
463.359;000.065;76;000.594;MIDI 01
463.418;000.061;45;000.477;MIDI 01
463.439;000.085;77;000.562;MIDI 01
463.550;000.022;76;000.469;MIDI 01
463.517;000.065;47;000.500;MIDI 01
463.576;000.066;77;000.508;MIDI 01
463.620;000.061;36;000.594;MIDI 01
463.734;000.119;48;000.531;MIDI 01
463.863;000.093;47;000.461;MIDI 01
463.974;000.058;48;000.516;MIDI 01
464.072;000.035;50;000.422;MIDI 01
463.646;000.494;76;000.672;MIDI 01
464.123;000.079;48;000.516;MIDI 01
464.230;000.044;47;000.500;MIDI 01
464.280;000.069;48;000.516;MIDI 01
464.425;000.044;33;000.570;MIDI 01
464.440;000.072;74;000.602;MIDI 01
464.516;000.071;72;000.523;MIDI 01
464.555;000.061;45;000.430;MIDI 01
464.599;000.077;74;000.453;MIDI 01
464.639;000.075;44;000.500;MIDI 01
464.704;000.034;71;000.539;MIDI 01
464.720;000.035;45;000.500;MIDI 01
464.659;000.193;72;000.367;MIDI 01
464.837;000.065;29;000.531;MIDI 01
464.960;000.072;41;000.477;MIDI 01
465.080;000.084;40;000.438;MIDI 01
464.823;000.366;74;000.617;MIDI 01
465.175;000.065;41;000.477;MIDI 01
465.267;000.060;43;000.523;MIDI 01
465.358;000.076;41;000.531;MIDI 01
465.442;000.049;40;000.500;MIDI 01
465.509;000.080;41;000.523;MIDI 01
465.639;000.061;31;000.578;MIDI 01
465.667;000.144;62;000.562;MIDI 01
465.669;000.170;65;000.555;MIDI 01
465.677;000.209;71;000.547;MIDI 01
465.734;000.173;43;000.547;MIDI 01
465.858;000.083;42;000.555;MIDI 01
465.934;000.036;43;000.328;MIDI 01
466.097;000.107;72;000.570;MIDI 01
466.214;000.096;67;000.531;MIDI 01
466.323;000.086;69;000.531;MIDI 01
466.420;000.067;71;000.570;MIDI 01
466.506;000.107;72;000.594;MIDI 01
466.096;000.566;36;000.461;MIDI 01
466.114;000.574;48;000.531;MIDI 01
466.111;000.586;40;000.484;MIDI 01
466.094;000.609;43;000.430;MIDI 01
466.606;000.117;74;000.641;MIDI 01
466.703;000.089;76;000.594;MIDI 01
466.792;000.053;77;000.594;MIDI 01
466.879;000.114;79;000.633;MIDI 01
466.984;000.117;81;000.648;MIDI 01
467.104;000.096;83;000.570;MIDI 01
467.108;000.116;82;000.484;MIDI 01
467.191;000.105;84;000.602;MIDI 01
467.299;000.082;79;000.633;MIDI 01
467.448;000.070;79;000.375;MIDI 01
467.440;000.102;77;000.406;MIDI 01
467.270;000.281;64;000.516;MIDI 01
467.274;000.384;55;000.484;MIDI 01
467.485;000.177;62;000.516;MIDI 01
467.482;000.182;81;000.438;MIDI 01
467.759;000.102;79;000.570;MIDI 01
467.755;000.226;64;000.555;MIDI 01
467.886;000.100;81;000.547;MIDI 01
467.974;000.114;77;000.562;MIDI 01
468.087;000.088;79;000.555;MIDI 01
467.991;000.215;62;000.484;MIDI 01
468.188;000.089;76;000.555;MIDI 01
468.295;000.110;77;000.547;MIDI 01
468.215;000.210;60;000.492;MIDI 01
468.399;000.105;74;000.570;MIDI 01
468.504;000.082;76;000.570;MIDI 01
468.425;000.204;65;000.531;MIDI 01
468.601;000.052;72;000.523;MIDI 01
468.617;000.172;64;000.562;MIDI 01
468.690;000.124;74;000.539;MIDI 01
468.818;000.078;71;000.516;MIDI 01
467.781;001.209;55;000.539;MIDI 01
468.929;000.108;74;000.453;MIDI 01
468.810;000.232;62;000.508;MIDI 01
469.043;000.099;72;000.492;MIDI 01
469.175;000.078;67;000.469;MIDI 01
469.262;000.095;69;000.555;MIDI 01
469.030;000.368;64;000.398;MIDI 01
469.363;000.061;71;000.586;MIDI 01
469.021;000.444;60;000.359;MIDI 01
469.462;000.083;72;000.602;MIDI 01
469.543;000.114;74;000.641;MIDI 01
469.644;000.075;76;000.594;MIDI 01
469.734;000.045;77;000.594;MIDI 01
469.836;000.092;79;000.570;MIDI 01
469.934;000.102;81;000.602;MIDI 01
470.038;000.102;83;000.594;MIDI 01
470.140;000.098;84;000.578;MIDI 01
470.221;000.045;64;000.508;MIDI 01
470.256;000.051;79;000.586;MIDI 01
470.354;000.099;81;000.555;MIDI 01
470.425;000.064;62;000.523;MIDI 01
470.453;000.106;77;000.539;MIDI 01
470.564;000.069;79;000.562;MIDI 01
470.649;000.047;76;000.555;MIDI 01
470.647;000.083;60;000.523;MIDI 01
470.755;000.105;77;000.484;MIDI 01
470.854;000.058;65;000.500;MIDI 01
470.860;000.099;74;000.531;MIDI 01
470.967;000.089;76;000.562;MIDI 01
471.074;000.045;72;000.508;MIDI 01
471.058;000.075;64;000.508;MIDI 01
471.174;000.090;74;000.508;MIDI 01
471.283;000.059;71;000.461;MIDI 01
470.223;001.186;55;000.453;MIDI 01
471.298;000.114;62;000.422;MIDI 01
471.391;000.113;74;000.422;MIDI 01
471.547;000.048;64;000.344;MIDI 01
471.530;000.077;72;000.453;MIDI 01
471.553;000.073;60;000.297;MIDI 01
472.058;000.103;36;000.367;MIDI 01
472.077;000.121;48;000.234;MIDI 01
472.197;000.047;60;000.320;MIDI 01
472.291;000.057;59;000.312;MIDI 01
472.365;000.045;60;000.461;MIDI 01
472.472;000.143;40;000.531;MIDI 01
472.475;000.181;52;000.492;MIDI 01
472.577;000.087;64;000.461;MIDI 01
472.682;000.082;63;000.461;MIDI 01
472.753;000.039;64;000.523;MIDI 01
472.874;000.153;55;000.602;MIDI 01
472.976;000.098;67;000.492;MIDI 01
472.878;000.197;43;000.555;MIDI 01
473.078;000.096;66;000.492;MIDI 01
473.163;000.061;67;000.539;MIDI 01
473.289;000.165;40;000.633;MIDI 01
473.286;000.217;52;000.633;MIDI 01
473.423;000.085;64;000.500;MIDI 01
473.511;000.081;63;000.547;MIDI 01
473.603;000.043;64;000.461;MIDI 01
473.710;000.100;55;000.656;MIDI 01
473.714;000.150;43;000.625;MIDI 01
473.810;000.090;67;000.562;MIDI 01
473.933;000.074;66;000.469;MIDI 01
474.007;000.068;67;000.523;MIDI 01
474.199;000.047;48;000.500;MIDI 01
474.189;000.065;36;000.508;MIDI 01
474.321;000.082;72;000.391;MIDI 01
474.430;000.082;71;000.484;MIDI 01
474.522;000.033;72;000.531;MIDI 01
474.619;000.068;52;000.633;MIDI 01
474.621;000.080;40;000.594;MIDI 01
474.742;000.102;76;000.539;MIDI 01
474.864;000.098;75;000.539;MIDI 01
474.956;000.067;76;000.594;MIDI 01
475.106;000.071;55;000.672;MIDI 01
475.105;000.077;43;000.648;MIDI 01
475.223;000.123;79;000.562;MIDI 01
475.356;000.132;78;000.594;MIDI 01
475.474;000.095;79;000.633;MIDI 01
475.858;000.708;60;000.609;MIDI 01
475.644;000.969;48;000.461;MIDI 01
475.834;000.810;72;000.625;MIDI 01
475.836;000.811;84;000.648;MIDI 01
475.798;000.875;55;000.523;MIDI 01
475.842;000.851;76;000.602;MIDI 01
475.715;000.979;52;000.445;MIDI 01
475.839;000.868;79;000.562;MIDI 01
