Start;Duration;Pitch;Velocity;Instrument
006.275;000.146;29;000.219;MIDI 01
006.277;000.205;41;000.180;MIDI 01
006.495;000.056;48;000.281;MIDI 01
006.307;000.311;56;000.242;MIDI 01
006.645;000.044;60;000.406;MIDI 01
006.805;000.089;61;000.359;MIDI 01
006.925;000.054;56;000.203;MIDI 01
006.806;000.188;36;000.367;MIDI 01
006.800;000.199;48;000.344;MIDI 01
006.983;000.053;68;000.320;MIDI 01
007.082;000.046;62;000.430;MIDI 01
007.173;000.081;60;000.422;MIDI 01
007.276;000.099;72;000.547;MIDI 01
007.386;000.090;68;000.492;MIDI 01
007.374;000.174;60;000.398;MIDI 01
007.540;000.036;75;000.562;MIDI 01
007.496;000.117;63;000.398;MIDI 01
007.366;000.305;48;000.508;MIDI 01
007.696;000.034;62;000.523;MIDI 01
007.767;000.053;60;000.273;MIDI 01
007.858;000.048;72;000.516;MIDI 01
007.951;000.117;63;000.500;MIDI 01
008.084;000.076;56;000.445;MIDI 01
008.151;000.043;68;000.352;MIDI 01
007.953;000.396;47;000.406;MIDI 01
008.265;000.148;59;000.320;MIDI 01
008.330;000.099;56;000.414;MIDI 01
008.452;000.069;62;000.328;MIDI 01
008.267;000.378;42;000.359;MIDI 01
008.543;000.112;60;000.414;MIDI 01
008.574;000.111;36;000.320;MIDI 01
008.710;000.034;63;000.367;MIDI 01
008.643;000.141;55;000.266;MIDI 01
008.831;000.062;29;000.422;MIDI 01
008.860;000.062;41;000.359;MIDI 01
008.844;000.154;56;000.438;MIDI 01
008.957;000.045;48;000.297;MIDI 01
009.034;000.041;60;000.469;MIDI 01
009.148;000.068;61;000.492;MIDI 01
009.130;000.164;36;000.539;MIDI 01
009.281;000.067;68;000.500;MIDI 01
009.125;000.232;48;000.516;MIDI 01
009.391;000.049;62;000.477;MIDI 01
009.465;000.058;60;000.523;MIDI 01
009.562;000.099;72;000.562;MIDI 01
009.681;000.059;68;000.500;MIDI 01
009.669;000.164;60;000.570;MIDI 01
009.826;000.025;75;000.500;MIDI 01
009.759;000.114;63;000.414;MIDI 01
009.661;000.281;48;000.555;MIDI 01
009.957;000.043;62;000.484;MIDI 01
010.040;000.110;60;000.344;MIDI 01
010.109;000.046;72;000.531;MIDI 01
010.242;000.096;63;000.461;MIDI 01
010.358;000.077;56;000.352;MIDI 01
010.424;000.037;68;000.398;MIDI 01
010.226;000.409;47;000.375;MIDI 01
010.560;000.123;59;000.266;MIDI 01
010.608;000.095;56;000.391;MIDI 01
010.722;000.084;62;000.367;MIDI 01
010.502;000.336;42;000.375;MIDI 01
010.790;000.107;36;000.336;MIDI 01
010.821;000.117;60;000.398;MIDI 01
010.914;000.127;55;000.305;MIDI 01
011.003;000.045;63;000.281;MIDI 01
011.113;000.054;29;000.242;MIDI 01
011.104;000.073;41;000.398;MIDI 01
011.216;000.042;48;000.352;MIDI 01
011.123;000.151;56;000.422;MIDI 01
011.310;000.031;60;000.477;MIDI 01
011.431;000.071;61;000.414;MIDI 01
011.406;000.156;36;000.477;MIDI 01
011.551;000.061;56;000.062;MIDI 01
011.392;000.241;48;000.414;MIDI 01
011.568;000.072;68;000.500;MIDI 01
011.683;000.046;62;000.445;MIDI 01
011.749;000.068;60;000.508;MIDI 01
011.843;000.104;72;000.562;MIDI 01
011.930;000.050;60;000.492;MIDI 01
011.927;000.114;48;000.516;MIDI 01
011.958;000.098;68;000.492;MIDI 01
012.108;000.042;75;000.547;MIDI 01
012.024;000.136;63;000.523;MIDI 01
012.233;000.114;32;000.469;MIDI 01
012.227;000.173;44;000.508;MIDI 01
012.422;000.067;60;000.453;MIDI 01
012.539;000.109;65;000.500;MIDI 01
012.639;000.074;60;000.484;MIDI 01
012.558;000.207;39;000.531;MIDI 01
012.546;000.254;51;000.617;MIDI 01
012.732;000.115;72;000.555;MIDI 01
012.889;000.047;62;000.547;MIDI 01
012.824;000.120;66;000.531;MIDI 01
012.986;000.047;74;000.586;MIDI 01
013.080;000.037;63;000.508;MIDI 01
013.094;000.077;51;000.516;MIDI 01
013.091;000.180;72;000.609;MIDI 01
013.255;000.030;79;000.555;MIDI 01
013.171;000.167;67;000.523;MIDI 01
013.372;000.098;36;000.562;MIDI 01
013.380;000.117;48;000.625;MIDI 01
013.559;000.056;63;000.438;MIDI 01
013.642;000.102;60;000.500;MIDI 01
013.776;000.050;66;000.430;MIDI 01
013.867;000.083;72;000.508;MIDI 01
013.693;000.331;56;000.688;MIDI 01
013.696;000.347;44;000.648;MIDI 01
013.957;000.092;67;000.523;MIDI 01
014.060;000.048;62;000.234;MIDI 01
014.100;000.104;74;000.562;MIDI 01
014.203;000.057;57;000.609;MIDI 01
014.214;000.079;63;000.555;MIDI 01
014.208;000.094;45;000.617;MIDI 01
014.287;000.080;71;000.508;MIDI 01
014.381;000.036;75;000.500;MIDI 01
014.464;000.045;51;000.617;MIDI 01
014.475;000.041;39;000.523;MIDI 01
014.473;000.132;67;000.547;MIDI 01
014.594;000.031;74;000.367;MIDI 01
014.652;000.102;79;000.547;MIDI 01
014.740;000.074;47;000.625;MIDI 01
014.738;000.110;59;000.648;MIDI 01
014.842;000.089;68;000.539;MIDI 01
014.758;000.183;75;000.578;MIDI 01
014.917;000.091;80;000.602;MIDI 01
015.028;000.070;62;000.664;MIDI 01
015.053;000.049;48;000.555;MIDI 01
015.040;000.128;71;000.531;MIDI 01
015.045;000.125;50;000.508;MIDI 01
015.121;000.068;66;000.570;MIDI 01
015.219;000.099;78;000.602;MIDI 01
015.317;000.072;45;000.555;MIDI 01
015.319;000.084;57;000.555;MIDI 01
015.322;000.094;72;000.539;MIDI 01
015.453;000.019;79;000.547;MIDI 01
015.373;000.146;67;000.500;MIDI 01
015.600;000.052;66;000.492;MIDI 01
015.573;000.095;59;000.594;MIDI 01
015.575;000.149;47;000.594;MIDI 01
015.674;000.062;62;000.430;MIDI 01
015.742;000.112;74;000.578;MIDI 01
015.839;000.135;71;000.531;MIDI 01
015.848;000.128;55;000.555;MIDI 01
015.912;000.074;63;000.492;MIDI 01
015.850;000.142;43;000.594;MIDI 01
015.981;000.032;75;000.523;MIDI 01
016.026;000.044;46;000.258;MIDI 01
016.106;000.058;56;000.680;MIDI 01
016.108;000.084;59;000.508;MIDI 01
016.124;000.110;44;000.586;MIDI 01
016.204;000.095;63;000.500;MIDI 01
016.304;000.097;71;000.516;MIDI 01
016.396;000.146;68;000.539;MIDI 01
016.491;000.055;60;000.445;MIDI 01
016.377;000.198;51;000.602;MIDI 01
016.559;000.035;72;000.586;MIDI 01
016.384;000.294;39;000.547;MIDI 01
016.773;000.036;55;000.461;MIDI 01
016.677;000.159;60;000.570;MIDI 01
016.861;000.096;67;000.484;MIDI 01
016.927;000.081;47;000.469;MIDI 01
016.925;000.123;35;000.445;MIDI 01
017.062;000.032;64;000.398;MIDI 01
017.120;000.028;68;000.383;MIDI 01
016.944;000.262;56;000.562;MIDI 01
017.233;000.179;44;000.367;MIDI 01
017.375;000.062;51;000.430;MIDI 01
017.250;000.196;32;000.312;MIDI 01
017.275;000.192;59;000.438;MIDI 01
017.493;000.064;63;000.406;MIDI 01
017.567;000.064;43;000.289;MIDI 01
017.575;000.101;55;000.391;MIDI 01
017.521;000.227;31;000.383;MIDI 01
017.656;000.105;53;000.445;MIDI 01
017.774;000.066;59;000.445;MIDI 01
017.836;000.039;29;000.469;MIDI 01
017.839;000.078;41;000.492;MIDI 01
017.929;000.035;48;000.398;MIDI 01
017.856;000.122;56;000.492;MIDI 01
018.006;000.041;60;000.516;MIDI 01
018.129;000.093;61;000.555;MIDI 01
018.117;000.145;36;000.562;MIDI 01
018.107;000.204;48;000.461;MIDI 01
018.257;000.058;68;000.492;MIDI 01
018.363;000.046;62;000.492;MIDI 01
018.423;000.064;60;000.547;MIDI 01
018.517;000.115;72;000.602;MIDI 01
018.594;000.064;60;000.617;MIDI 01
018.591;000.117;48;000.633;MIDI 01
018.636;000.087;68;000.586;MIDI 01
018.789;000.019;75;000.539;MIDI 01
018.706;000.107;63;000.508;MIDI 01
018.864;000.030;54;000.719;MIDI 01
018.873;000.053;42;000.656;MIDI 01
018.915;000.029;62;000.609;MIDI 01
018.958;000.077;60;000.492;MIDI 01
019.066;000.041;72;000.531;MIDI 01
019.169;000.044;47;000.594;MIDI 01
019.176;000.065;35;000.547;MIDI 01
019.178;000.083;63;000.531;MIDI 01
019.270;000.078;56;000.500;MIDI 01
019.348;000.039;68;000.430;MIDI 01
019.472;000.034;42;000.516;MIDI 01
019.486;000.040;30;000.492;MIDI 01
019.456;000.120;59;000.422;MIDI 01
019.520;000.095;56;000.461;MIDI 01
019.632;000.067;62;000.375;MIDI 01
019.739;000.050;36;000.477;MIDI 01
019.747;000.055;24;000.430;MIDI 01
019.708;000.114;60;000.453;MIDI 01
019.806;000.110;55;000.352;MIDI 01
019.889;000.042;63;000.297;MIDI 01
020.012;000.040;29;000.539;MIDI 01
020.010;000.073;41;000.578;MIDI 01
020.015;000.121;56;000.422;MIDI 01
020.103;000.052;48;000.273;MIDI 01
020.167;000.040;60;000.508;MIDI 01
020.285;000.096;61;000.531;MIDI 01
020.291;000.146;36;000.648;MIDI 01
020.283;000.191;48;000.641;MIDI 01
020.420;000.056;68;000.547;MIDI 01
020.521;000.046;62;000.500;MIDI 01
020.578;000.064;60;000.594;MIDI 01
020.693;000.038;74;000.602;MIDI 01
020.691;000.091;72;000.406;MIDI 01
020.771;000.051;60;000.719;MIDI 01
020.774;000.086;48;000.688;MIDI 01
020.777;000.092;68;000.578;MIDI 01
020.926;000.026;75;000.547;MIDI 01
020.847;000.107;63;000.539;MIDI 01
021.039;000.028;54;000.727;MIDI 01
021.057;000.030;62;000.586;MIDI 01
021.045;000.049;42;000.703;MIDI 01
021.098;000.074;60;000.523;MIDI 01
021.201;000.050;72;000.578;MIDI 01
021.332;000.036;47;000.641;MIDI 01
021.341;000.047;35;000.609;MIDI 01
021.318;000.103;63;000.531;MIDI 01
021.418;000.050;56;000.531;MIDI 01
021.501;000.051;68;000.406;MIDI 01
021.613;000.035;42;000.555;MIDI 01
021.645;000.036;30;000.422;MIDI 01
021.615;000.133;59;000.422;MIDI 01
021.670;000.103;56;000.461;MIDI 01
021.802;000.070;62;000.297;MIDI 01
021.909;000.046;36;000.461;MIDI 01
021.914;000.120;60;000.328;MIDI 01
022.092;000.040;63;000.297;MIDI 01
022.002;000.150;55;000.242;MIDI 01
022.224;000.049;29;000.438;MIDI 01
022.234;000.082;41;000.438;MIDI 01
022.247;000.146;56;000.305;MIDI 01
022.360;000.053;48;000.188;MIDI 01
022.439;000.031;60;000.398;MIDI 01
022.544;000.121;61;000.469;MIDI 01
022.542;000.137;36;000.516;MIDI 01
022.545;000.182;48;000.523;MIDI 01
022.685;000.057;68;000.508;MIDI 01
022.793;000.041;62;000.523;MIDI 01
022.852;000.066;60;000.547;MIDI 01
022.946;000.115;72;000.617;MIDI 01
023.036;000.033;60;000.539;MIDI 01
023.033;000.089;48;000.586;MIDI 01
023.057;000.117;68;000.562;MIDI 01
023.217;000.040;75;000.523;MIDI 01
023.137;000.129;63;000.531;MIDI 01
023.329;000.103;32;000.617;MIDI 01
023.328;000.147;44;000.641;MIDI 01
023.528;000.057;60;000.516;MIDI 01
023.636;000.129;65;000.539;MIDI 01
023.752;000.085;60;000.516;MIDI 01
023.640;000.200;39;000.633;MIDI 01
023.629;000.240;51;000.680;MIDI 01
023.834;000.121;72;000.586;MIDI 01
023.950;000.088;66;000.531;MIDI 01
024.004;000.052;62;000.617;MIDI 01
024.105;000.050;74;000.602;MIDI 01
024.163;000.032;63;000.539;MIDI 01
024.170;000.073;51;000.570;MIDI 01
024.194;000.161;72;000.633;MIDI 01
024.360;000.027;79;000.625;MIDI 01
024.291;000.126;67;000.555;MIDI 01
024.481;000.086;36;000.672;MIDI 01
024.483;000.128;48;000.719;MIDI 01
024.708;000.105;63;000.586;MIDI 01
024.819;000.149;68;000.602;MIDI 01
024.948;000.051;63;000.562;MIDI 01
024.829;000.206;43;000.703;MIDI 01
024.983;000.096;75;000.555;MIDI 01
024.826;000.258;55;000.734;MIDI 01
025.094;000.080;69;000.617;MIDI 01
025.172;000.059;65;000.594;MIDI 01
025.261;000.098;77;000.633;MIDI 01
025.358;000.047;55;000.680;MIDI 01
025.355;000.084;67;000.734;MIDI 01
025.473;000.077;70;000.633;MIDI 01
025.385;000.190;75;000.609;MIDI 01
025.573;000.081;82;000.641;MIDI 01
025.822;000.060;66;000.086;MIDI 01
025.849;000.152;82;000.648;MIDI 01
025.743;000.275;62;000.656;MIDI 01
025.745;000.276;74;000.711;MIDI 01
026.046;000.059;90;000.086;MIDI 01
025.972;000.149;94;000.672;MIDI 01
026.084;000.086;87;000.641;MIDI 01
026.235;000.058;75;000.734;MIDI 01
025.750;000.615;67;000.633;MIDI 01
026.250;000.123;91;000.727;MIDI 01
026.244;000.160;63;000.617;MIDI 01
026.356;000.075;84;000.555;MIDI 01
026.436;000.044;79;000.625;MIDI 01
026.551;000.129;86;000.680;MIDI 01
026.651;000.054;78;000.430;MIDI 01
026.714;000.072;74;000.594;MIDI 01
026.795;000.049;51;000.531;MIDI 01
026.793;000.065;63;000.648;MIDI 01
026.805;000.099;79;000.570;MIDI 01
026.899;000.047;84;000.688;MIDI 01
027.004;000.028;72;000.398;MIDI 01
027.011;000.026;71;000.430;MIDI 01
027.062;000.086;60;000.664;MIDI 01
027.078;000.085;72;000.602;MIDI 01
027.183;000.085;75;000.617;MIDI 01
027.074;000.235;81;000.742;MIDI 01
027.262;000.143;69;000.656;MIDI 01
027.359;000.048;73;000.789;MIDI 01
027.084;000.328;67;000.594;MIDI 01
027.372;000.099;61;000.680;MIDI 01
027.379;000.131;75;000.695;MIDI 01
027.494;000.064;82;000.609;MIDI 01
027.574;000.040;70;000.633;MIDI 01
027.684;000.197;78;000.719;MIDI 01
027.810;000.108;73;000.625;MIDI 01
027.905;000.055;66;000.648;MIDI 01
028.042;000.061;57;000.688;MIDI 01
028.044;000.125;45;000.672;MIDI 01
028.039;000.160;67;000.711;MIDI 01
028.331;000.131;61;000.695;MIDI 01
028.179;000.346;73;000.656;MIDI 01
028.504;000.057;38;000.695;MIDI 01
028.502;000.091;50;000.734;MIDI 01
028.978;000.034;75;000.398;MIDI 01
028.964;000.078;58;000.398;MIDI 01
028.976;000.068;79;000.430;MIDI 01
028.948;000.098;70;000.477;MIDI 01
028.966;000.091;82;000.484;MIDI 01
028.980;000.092;63;000.406;MIDI 01
028.968;000.107;67;000.430;MIDI 01
029.241;000.043;75;000.516;MIDI 01
029.257;000.051;58;000.422;MIDI 01
029.245;000.067;70;000.523;MIDI 01
029.230;000.101;82;000.570;MIDI 01
029.243;000.100;79;000.539;MIDI 01
029.247;000.100;67;000.492;MIDI 01
029.255;000.101;63;000.445;MIDI 01
029.448;000.051;75;000.602;MIDI 01
029.470;000.041;58;000.398;MIDI 01
029.453;000.069;82;000.609;MIDI 01
029.460;000.073;79;000.547;MIDI 01
029.458;000.078;70;000.578;MIDI 01
029.478;000.071;63;000.469;MIDI 01
029.481;000.074;67;000.523;MIDI 01
029.652;000.039;74;000.586;MIDI 01
029.650;000.048;58;000.461;MIDI 01
029.654;000.053;70;000.570;MIDI 01
029.660;000.051;67;000.539;MIDI 01
029.637;000.076;82;000.672;MIDI 01
029.656;000.066;79;000.609;MIDI 01
029.670;000.057;62;000.492;MIDI 01
029.826;000.028;58;000.414;MIDI 01
029.807;000.049;74;000.602;MIDI 01
029.818;000.049;70;000.625;MIDI 01
029.833;000.039;67;000.570;MIDI 01
029.812;000.061;82;000.648;MIDI 01
029.825;000.062;62;000.508;MIDI 01
029.820;000.071;79;000.570;MIDI 01
029.969;000.042;74;000.695;MIDI 01
029.985;000.036;67;000.602;MIDI 01
029.982;000.042;58;000.414;MIDI 01
029.974;000.060;70;000.672;MIDI 01
029.976;000.061;82;000.625;MIDI 01
029.980;000.060;62;000.523;MIDI 01
029.972;000.071;79;000.625;MIDI 01
030.136;000.042;70;000.648;MIDI 01
030.132;000.053;73;000.680;MIDI 01
030.145;000.045;58;000.414;MIDI 01
030.148;000.044;66;000.570;MIDI 01
030.139;000.059;78;000.594;MIDI 01
030.134;000.069;82;000.648;MIDI 01
030.141;000.071;61;000.602;MIDI 01
030.291;000.046;82;000.656;MIDI 01
030.306;000.039;58;000.484;MIDI 01
030.304;000.043;66;000.547;MIDI 01
030.293;000.056;70;000.688;MIDI 01
030.288;000.064;73;000.680;MIDI 01
030.309;000.045;61;000.477;MIDI 01
030.301;000.059;78;000.602;MIDI 01
030.443;000.066;70;000.719;MIDI 01
030.445;000.066;82;000.703;MIDI 01
030.439;000.074;73;000.734;MIDI 01
030.447;000.068;78;000.609;MIDI 01
030.451;000.070;66;000.641;MIDI 01
030.441;000.084;58;000.562;MIDI 01
030.449;000.079;61;000.625;MIDI 01
030.609;000.064;69;000.688;MIDI 01
030.606;000.069;73;000.742;MIDI 01
030.607;000.071;81;000.734;MIDI 01
030.611;000.068;58;000.570;MIDI 01
030.614;000.071;65;000.664;MIDI 01
030.604;000.082;77;000.703;MIDI 01
030.602;000.091;61;000.586;MIDI 01
030.791;000.048;69;000.727;MIDI 01
030.806;000.052;58;000.562;MIDI 01
030.780;000.080;73;000.734;MIDI 01
030.797;000.066;65;000.680;MIDI 01
030.783;000.082;81;000.750;MIDI 01
030.781;000.098;77;000.734;MIDI 01
030.803;000.089;61;000.578;MIDI 01
030.965;000.042;69;000.773;MIDI 01
030.975;000.061;65;000.672;MIDI 01
030.977;000.078;61;000.578;MIDI 01
030.971;000.094;58;000.625;MIDI 01
030.981;000.092;77;000.742;MIDI 01
030.980;000.113;73;000.766;MIDI 01
030.983;000.122;81;000.758;MIDI 01
031.351;000.028;41;000.719;MIDI 01
031.347;000.036;29;000.695;MIDI 01
031.345;000.041;43;000.750;MIDI 01
031.363;000.028;31;000.625;MIDI 01
031.380;000.102;79;000.445;MIDI 01
031.355;000.174;69;000.828;MIDI 01
031.486;000.058;79;000.023;MIDI 01
031.356;000.236;73;000.758;MIDI 01
031.360;000.247;77;000.719;MIDI 01
031.358;000.255;81;000.828;MIDI 01
031.818;000.030;50;000.602;MIDI 01
031.828;000.059;61;000.648;MIDI 01
031.823;000.067;58;000.594;MIDI 01
031.840;000.084;93;000.656;MIDI 01
031.845;000.086;89;000.648;MIDI 01
031.977;000.046;81;000.539;MIDI 01
031.967;000.058;85;000.625;MIDI 01
032.065;000.039;89;000.562;MIDI 01
032.062;000.051;93;000.609;MIDI 01
032.152;000.038;85;000.594;MIDI 01
032.157;000.039;81;000.531;MIDI 01
032.126;000.117;65;000.461;MIDI 01
032.138;000.119;69;000.672;MIDI 01
032.227;000.051;89;000.578;MIDI 01
032.220;000.069;93;000.602;MIDI 01
032.155;000.147;61;000.555;MIDI 01
032.323;000.035;85;000.492;MIDI 01
032.325;000.051;81;000.586;MIDI 01
032.391;000.032;70;000.680;MIDI 01
032.406;000.031;67;000.547;MIDI 01
032.433;000.044;91;000.586;MIDI 01
032.404;000.075;63;000.578;MIDI 01
032.140;000.356;58;000.617;MIDI 01
032.428;000.094;87;000.633;MIDI 01
032.511;000.119;82;000.617;MIDI 01
032.517;000.124;79;000.602;MIDI 01
032.617;000.091;87;000.625;MIDI 01
032.636;000.086;91;000.656;MIDI 01
032.689;000.039;31;000.711;MIDI 01
032.686;000.065;43;000.766;MIDI 01
033.072;000.042;50;000.633;MIDI 01
033.077;000.068;93;000.656;MIDI 01
033.074;000.074;58;000.633;MIDI 01
033.078;000.072;61;000.656;MIDI 01
033.070;000.108;89;000.688;MIDI 01
033.191;000.035;85;000.547;MIDI 01
033.186;000.054;81;000.562;MIDI 01
033.281;000.056;89;000.539;MIDI 01
033.276;000.062;93;000.625;MIDI 01
033.374;000.040;81;000.555;MIDI 01
033.356;000.058;85;000.484;MIDI 01
033.343;000.111;69;000.594;MIDI 01
033.337;000.119;65;000.586;MIDI 01
033.461;000.035;89;000.570;MIDI 01
033.359;000.152;61;000.547;MIDI 01
033.449;000.065;93;000.609;MIDI 01
033.543;000.036;85;000.578;MIDI 01
033.541;000.064;81;000.477;MIDI 01
033.615;000.032;70;000.648;MIDI 01
033.619;000.036;67;000.602;MIDI 01
033.626;000.080;63;000.531;MIDI 01
033.642;000.072;91;000.594;MIDI 01
033.330;000.393;58;000.609;MIDI 01
033.653;000.094;87;000.586;MIDI 01
033.733;000.145;82;000.641;MIDI 01
033.919;000.029;29;000.656;MIDI 01
033.855;000.099;91;000.648;MIDI 01
033.840;000.122;87;000.617;MIDI 01
033.921;000.043;41;000.648;MIDI 01
033.931;000.034;31;000.609;MIDI 01
033.923;000.045;43;000.680;MIDI 01
033.736;000.309;79;000.633;MIDI 01
034.271;000.039;50;000.539;MIDI 01
034.279;000.053;55;000.570;MIDI 01
034.347;000.002;88;000.297;MIDI 01
034.305;000.044;89;000.508;MIDI 01
034.277;000.074;58;000.586;MIDI 01
034.295;000.093;86;000.594;MIDI 01
034.392;000.039;82;000.508;MIDI 01
034.415;000.032;77;000.336;MIDI 01
034.422;000.030;76;000.383;MIDI 01
034.487;000.055;89;000.570;MIDI 01
034.495;000.053;86;000.484;MIDI 01
034.564;000.042;77;000.547;MIDI 01
034.555;000.064;82;000.508;MIDI 01
034.524;000.139;65;000.695;MIDI 01
034.668;000.026;86;000.484;MIDI 01
034.641;000.058;89;000.609;MIDI 01
034.527;000.229;62;000.641;MIDI 01
034.736;000.027;82;000.352;MIDI 01
034.723;000.059;77;000.633;MIDI 01
034.808;000.032;67;000.680;MIDI 01
034.811;000.072;63;000.648;MIDI 01
034.820;000.069;87;000.664;MIDI 01
034.522;000.380;58;000.617;MIDI 01
034.859;000.051;82;000.547;MIDI 01
034.941;000.092;75;000.602;MIDI 01
034.920;000.122;79;000.562;MIDI 01
035.025;000.097;82;000.562;MIDI 01
035.021;000.103;87;000.617;MIDI 01
035.084;000.043;43;000.742;MIDI 01
035.092;000.042;31;000.641;MIDI 01
035.405;000.065;86;000.586;MIDI 01
035.398;000.104;82;000.578;MIDI 01
035.385;000.155;54;000.531;MIDI 01
035.508;000.044;74;000.508;MIDI 01
035.390;000.167;58;000.531;MIDI 01
035.506;000.080;78;000.562;MIDI 01
035.599;000.073;86;000.609;MIDI 01
035.596;000.079;82;000.500;MIDI 01
035.684;000.069;74;000.570;MIDI 01
035.680;000.086;78;000.555;MIDI 01
035.667;000.161;62;000.562;MIDI 01
035.781;000.075;86;000.578;MIDI 01
035.775;000.113;82;000.570;MIDI 01
035.659;000.253;54;000.547;MIDI 01
035.690;000.228;58;000.547;MIDI 01
035.877;000.079;74;000.594;MIDI 01
035.882;000.105;78;000.602;MIDI 01
035.989;000.040;63;000.555;MIDI 01
035.984;000.084;57;000.562;MIDI 01
035.986;000.111;85;000.617;MIDI 01
035.992;000.117;81;000.586;MIDI 01
035.382;000.733;51;000.578;MIDI 01
036.119;000.049;78;000.539;MIDI 01
036.116;000.145;73;000.570;MIDI 01
036.226;000.080;85;000.633;MIDI 01
036.242;000.072;81;000.570;MIDI 01
036.448;000.084;79;000.570;MIDI 01
036.446;000.123;82;000.586;MIDI 01
036.450;000.125;70;000.570;MIDI 01
036.444;000.149;43;000.555;MIDI 01
036.589;000.090;50;000.547;MIDI 01
036.724;000.058;55;000.547;MIDI 01
036.889;000.061;81;000.531;MIDI 01
036.881;000.071;77;000.555;MIDI 01
036.867;000.098;58;000.539;MIDI 01
036.971;000.065;61;000.547;MIDI 01
037.006;000.033;73;000.523;MIDI 01
037.017;000.029;69;000.453;MIDI 01
037.112;000.027;81;000.445;MIDI 01
037.100;000.048;77;000.531;MIDI 01
037.077;000.099;65;000.562;MIDI 01
037.174;000.052;73;000.500;MIDI 01
037.176;000.052;69;000.492;MIDI 01
037.180;000.062;67;000.633;MIDI 01
037.282;000.056;81;000.438;MIDI 01
037.280;000.070;77;000.555;MIDI 01
037.294;000.117;69;000.516;MIDI 01
037.371;000.042;73;000.555;MIDI 01
037.386;000.038;67;000.594;MIDI 01
037.471;000.036;77;000.477;MIDI 01
037.454;000.062;81;000.531;MIDI 01
037.469;000.095;65;000.516;MIDI 01
037.543;000.050;73;000.375;MIDI 01
037.557;000.040;69;000.555;MIDI 01
037.587;000.075;61;000.602;MIDI 01
037.683;000.025;79;000.438;MIDI 01
037.704;000.034;58;000.516;MIDI 01
037.667;000.085;75;000.547;MIDI 01
037.770;000.072;67;000.523;MIDI 01
037.766;000.103;70;000.570;MIDI 01
037.810;000.112;55;000.516;MIDI 01
037.878;000.081;75;000.570;MIDI 01
037.889;000.094;79;000.500;MIDI 01
037.927;000.071;50;000.508;MIDI 01
038.019;000.116;43;000.562;MIDI 01
038.147;000.059;50;000.539;MIDI 01
038.254;000.048;55;000.516;MIDI 01
038.390;000.043;81;000.492;MIDI 01
038.385;000.067;77;000.555;MIDI 01
038.381;000.082;58;000.555;MIDI 01
038.486;000.038;73;000.555;MIDI 01
038.471;000.064;61;000.578;MIDI 01
038.508;000.028;69;000.445;MIDI 01
038.599;000.029;81;000.383;MIDI 01
038.590;000.047;77;000.523;MIDI 01
038.578;000.105;65;000.570;MIDI 01
038.648;000.054;73;000.453;MIDI 01
038.646;000.064;69;000.531;MIDI 01
038.683;000.057;67;000.555;MIDI 01
038.758;000.062;77;000.516;MIDI 01
038.754;000.074;81;000.484;MIDI 01
038.848;000.033;73;000.547;MIDI 01
038.784;000.103;69;000.492;MIDI 01
038.885;000.029;67;000.555;MIDI 01
038.941;000.035;77;000.516;MIDI 01
038.923;000.062;81;000.500;MIDI 01
038.945;000.103;65;000.586;MIDI 01
039.005;000.045;73;000.430;MIDI 01
039.029;000.035;69;000.531;MIDI 01
039.070;000.071;61;000.633;MIDI 01
039.133;000.028;79;000.469;MIDI 01
039.126;000.078;75;000.555;MIDI 01
039.174;000.032;58;000.531;MIDI 01
039.227;000.076;67;000.523;MIDI 01
039.223;000.110;70;000.586;MIDI 01
039.296;000.056;55;000.469;MIDI 01
039.347;000.050;79;000.438;MIDI 01
039.332;000.076;75;000.570;MIDI 01
039.395;000.035;50;000.492;MIDI 01
039.450;000.077;43;000.508;MIDI 01
039.548;000.046;50;000.500;MIDI 01
039.648;000.049;55;000.531;MIDI 01
039.761;000.049;77;000.492;MIDI 01
039.760;000.055;74;000.539;MIDI 01
039.772;000.062;57;000.516;MIDI 01
039.870;000.040;70;000.508;MIDI 01
039.875;000.040;65;000.469;MIDI 01
039.868;000.108;58;000.516;MIDI 01
039.965;000.038;74;000.500;MIDI 01
039.980;000.028;77;000.391;MIDI 01
039.984;000.038;62;000.516;MIDI 01
040.045;000.040;70;000.461;MIDI 01
040.048;000.060;65;000.523;MIDI 01
040.127;000.053;74;000.531;MIDI 01
040.118;000.076;77;000.531;MIDI 01
040.176;000.044;62;000.398;MIDI 01
040.208;000.046;70;000.477;MIDI 01
040.250;000.029;65;000.398;MIDI 01
040.280;000.040;58;000.305;MIDI 01
040.368;000.039;70;000.414;MIDI 01
040.325;000.083;75;000.594;MIDI 01
040.339;000.076;55;000.562;MIDI 01
040.432;000.030;68;000.438;MIDI 01
040.447;000.043;63;000.477;MIDI 01
040.458;000.086;51;000.539;MIDI 01
040.551;000.048;50;000.516;MIDI 01
040.627;000.085;43;000.555;MIDI 01
040.734;000.076;50;000.523;MIDI 01
040.832;000.070;51;000.586;MIDI 01
040.929;000.051;54;000.516;MIDI 01
040.965;000.050;74;000.492;MIDI 01
040.953;000.076;70;000.539;MIDI 01
041.062;000.042;62;000.492;MIDI 01
041.067;000.041;66;000.492;MIDI 01
041.038;000.114;58;000.531;MIDI 01
041.161;000.041;74;000.508;MIDI 01
041.158;000.046;70;000.555;MIDI 01
041.147;000.064;61;000.586;MIDI 01
041.237;000.044;66;000.500;MIDI 01
041.229;000.080;62;000.617;MIDI 01
041.334;000.049;74;000.508;MIDI 01
041.337;000.061;70;000.523;MIDI 01
041.366;000.056;61;000.547;MIDI 01
041.436;000.042;66;000.453;MIDI 01
041.453;000.033;58;000.383;MIDI 01
041.464;000.032;62;000.305;MIDI 01
041.554;000.051;54;000.508;MIDI 01
041.560;000.050;69;000.398;MIDI 01
041.535;000.099;73;000.531;MIDI 01
041.638;000.048;61;000.562;MIDI 01
041.657;000.055;66;000.188;MIDI 01
041.712;000.048;52;000.273;MIDI 01
041.823;000.038;55;000.453;MIDI 01
041.812;000.054;67;000.461;MIDI 01
041.759;000.111;50;000.430;MIDI 01
041.866;000.058;43;000.375;MIDI 01
041.871;000.069;58;000.438;MIDI 01
041.902;000.083;62;000.438;MIDI 01
041.982;000.111;70;000.531;MIDI 01
042.100;000.040;48;000.492;MIDI 01
042.132;000.058;36;000.219;MIDI 01
042.104;000.126;66;000.492;MIDI 01
042.209;000.059;63;000.453;MIDI 01
042.288;000.106;69;000.539;MIDI 01
042.383;000.031;55;000.438;MIDI 01
042.385;000.070;50;000.477;MIDI 01
042.379;000.093;67;000.438;MIDI 01
042.371;000.110;58;000.461;MIDI 01
042.400;000.090;43;000.469;MIDI 01
042.469;000.082;62;000.508;MIDI 01
042.550;000.120;70;000.555;MIDI 01
042.650;000.052;47;000.531;MIDI 01
042.660;000.044;35;000.406;MIDI 01
042.666;000.134;66;000.523;MIDI 01
042.776;000.104;63;000.484;MIDI 01
042.853;000.127;69;000.516;MIDI 01
042.971;000.040;55;000.305;MIDI 01
042.979;000.054;50;000.398;MIDI 01
042.977;000.080;43;000.469;MIDI 01
042.966;000.094;58;000.438;MIDI 01
042.959;000.104;67;000.469;MIDI 01
043.067;000.072;62;000.477;MIDI 01
043.145;000.123;70;000.516;MIDI 01
043.234;000.036;44;000.422;MIDI 01
043.275;000.051;34;000.242;MIDI 01
043.304;000.058;46;000.039;MIDI 01
043.263;000.133;66;000.469;MIDI 01
043.366;000.083;63;000.461;MIDI 01
043.457;000.104;69;000.453;MIDI 01
043.561;000.053;50;000.305;MIDI 01
043.547;000.093;67;000.359;MIDI 01
043.554;000.087;58;000.367;MIDI 01
043.572;000.076;43;000.375;MIDI 01
043.652;000.059;62;000.477;MIDI 01
043.723;000.113;70;000.484;MIDI 01
043.830;000.061;45;000.422;MIDI 01
043.853;000.052;33;000.289;MIDI 01
043.941;000.065;61;000.438;MIDI 01
043.850;000.214;66;000.469;MIDI 01
044.062;000.135;69;000.445;MIDI 01
044.214;000.056;55;000.328;MIDI 01
044.183;000.126;58;000.359;MIDI 01
044.211;000.108;67;000.367;MIDI 01
044.209;000.152;50;000.320;MIDI 01
044.344;000.061;62;000.430;MIDI 01
044.217;000.191;43;000.367;MIDI 01
044.443;000.143;70;000.453;MIDI 01
044.575;000.026;68;000.461;MIDI 01
044.636;000.101;67;000.391;MIDI 01
044.721;000.095;63;000.430;MIDI 01
044.820;000.092;72;000.344;MIDI 01
044.640;000.308;31;000.445;MIDI 01
044.627;000.357;43;000.359;MIDI 01
044.907;000.112;67;000.453;MIDI 01
044.985;000.056;62;000.477;MIDI 01
045.075;000.101;71;000.477;MIDI 01
045.173;000.110;67;000.523;MIDI 01
045.267;000.104;61;000.461;MIDI 01
045.347;000.135;70;000.508;MIDI 01
045.176;000.371;33;000.516;MIDI 01
045.442;000.109;66;000.531;MIDI 01
045.180;000.397;45;000.500;MIDI 01
045.526;000.135;61;000.555;MIDI 01
045.643;000.092;69;000.547;MIDI 01
045.714;000.129;65;000.492;MIDI 01
045.831;000.139;62;000.469;MIDI 01
045.891;000.118;68;000.461;MIDI 01
045.975;000.096;64;000.547;MIDI 01
045.711;000.385;35;000.516;MIDI 01
045.709;000.433;47;000.562;MIDI 01
046.064;000.093;55;000.500;MIDI 01
046.198;000.136;67;000.523;MIDI 01
046.268;000.154;36;000.492;MIDI 01
046.283;000.141;63;000.469;MIDI 01
046.277;000.184;48;000.484;MIDI 01
046.408;000.140;57;000.414;MIDI 01
046.498;000.127;67;000.523;MIDI 01
046.646;000.133;52;000.430;MIDI 01
046.759;000.046;58;000.391;MIDI 01
046.639;000.182;62;000.430;MIDI 01
046.648;000.277;40;000.469;MIDI 01
046.955;000.138;61;000.453;MIDI 01
047.069;000.092;57;000.352;MIDI 01
046.856;000.340;67;000.438;MIDI 01
047.194;000.102;66;000.383;MIDI 01
046.951;000.360;51;000.430;MIDI 01
046.930;000.529;39;000.523;MIDI 01
047.296;000.209;60;000.414;MIDI 01
047.430;000.121;56;000.352;MIDI 01
047.260;000.431;44;000.461;MIDI 01
047.550;000.261;67;000.406;MIDI 01
047.690;000.168;60;000.328;MIDI 01
047.672;000.232;50;000.320;MIDI 01
047.680;000.352;38;000.320;MIDI 01
048.115;000.068;66;000.383;MIDI 01
047.877;000.408;57;000.266;MIDI 01
048.425;000.067;31;000.320;MIDI 01
048.464;000.075;43;000.312;MIDI 01
048.475;000.180;58;000.398;MIDI 01
048.714;000.047;62;000.250;MIDI 01
048.805;000.091;63;000.406;MIDI 01
048.793;000.130;38;000.469;MIDI 01
048.916;000.050;58;000.156;MIDI 01
048.808;000.168;50;000.398;MIDI 01
048.934;000.084;70;000.492;MIDI 01
049.038;000.056;64;000.469;MIDI 01
049.116;000.067;62;000.531;MIDI 01
049.211;000.111;74;000.602;MIDI 01
049.323;000.103;70;000.500;MIDI 01
049.319;000.139;62;000.562;MIDI 01
049.476;000.021;77;000.531;MIDI 01
049.403;000.145;65;000.406;MIDI 01
049.314;000.252;50;000.531;MIDI 01
049.624;000.064;64;000.492;MIDI 01
049.711;000.062;62;000.477;MIDI 01
049.783;000.030;74;000.539;MIDI 01
049.879;000.100;65;000.469;MIDI 01
050.010;000.073;58;000.398;MIDI 01
050.077;000.036;70;000.391;MIDI 01
049.900;000.250;49;000.422;MIDI 01
050.172;000.111;61;000.445;MIDI 01
050.256;000.087;58;000.461;MIDI 01
050.358;000.122;64;000.430;MIDI 01
050.170;000.340;43;000.383;MIDI 01
050.457;000.088;38;000.367;MIDI 01
050.446;000.117;62;000.461;MIDI 01
050.610;000.030;65;000.422;MIDI 01
050.568;000.106;57;000.375;MIDI 01
050.720;000.065;31;000.461;MIDI 01
050.725;000.097;43;000.461;MIDI 01
050.753;000.153;58;000.430;MIDI 01
050.917;000.032;60;000.453;MIDI 01
051.011;000.095;61;000.508;MIDI 01
051.127;000.034;58;000.336;MIDI 01
051.027;000.177;36;000.492;MIDI 01
051.188;000.046;70;000.305;MIDI 01
051.030;000.226;48;000.516;MIDI 01
051.257;000.047;62;000.508;MIDI 01
051.323;000.091;60;000.547;MIDI 01
051.423;000.100;72;000.547;MIDI 01
051.533;000.119;70;000.516;MIDI 01
051.554;000.119;60;000.508;MIDI 01
051.679;000.027;75;000.539;MIDI 01
051.618;000.119;63;000.461;MIDI 01
051.547;000.225;48;000.547;MIDI 01
051.821;000.040;62;000.516;MIDI 01
051.904;000.129;60;000.398;MIDI 01
051.983;000.061;72;000.539;MIDI 01
052.109;000.059;48;000.375;MIDI 01
052.080;000.107;63;000.438;MIDI 01
052.079;000.150;36;000.469;MIDI 01
052.188;000.067;58;000.469;MIDI 01
052.267;000.066;70;000.391;MIDI 01
052.393;000.048;30;000.406;MIDI 01
052.356;000.086;62;000.461;MIDI 01
052.377;000.077;42;000.453;MIDI 01
052.447;000.054;57;000.328;MIDI 01
052.523;000.099;69;000.484;MIDI 01
052.650;000.058;48;000.469;MIDI 01
052.618;000.148;63;000.484;MIDI 01
052.655;000.136;36;000.445;MIDI 01
052.784;000.030;70;000.359;MIDI 01
052.729;000.111;58;000.406;MIDI 01
052.943;000.043;29;000.453;MIDI 01
052.932;000.084;41;000.547;MIDI 01
052.946;000.135;56;000.469;MIDI 01
053.112;000.033;60;000.477;MIDI 01
053.244;000.093;61;000.516;MIDI 01
053.215;000.191;36;000.562;MIDI 01
053.365;000.083;68;000.539;MIDI 01
053.211;000.253;48;000.375;MIDI 01
053.480;000.046;62;000.531;MIDI 01
053.546;000.051;60;000.555;MIDI 01
053.639;000.103;72;000.617;MIDI 01
053.750;000.075;68;000.508;MIDI 01
053.736;000.170;60;000.625;MIDI 01
053.891;000.023;75;000.477;MIDI 01
053.833;000.085;63;000.484;MIDI 01
054.007;000.002;63;000.281;MIDI 01
053.740;000.285;48;000.633;MIDI 01
054.033;000.029;62;000.453;MIDI 01
054.075;000.117;60;000.477;MIDI 01
054.169;000.064;72;000.547;MIDI 01
054.288;000.089;63;000.414;MIDI 01
054.397;000.060;56;000.500;MIDI 01
054.471;000.044;68;000.320;MIDI 01
054.641;000.059;56;000.398;MIDI 01
054.549;000.161;59;000.453;MIDI 01
054.253;000.469;47;000.500;MIDI 01
054.737;000.086;62;000.336;MIDI 01
054.576;000.295;42;000.445;MIDI 01
054.828;000.090;60;000.438;MIDI 01
054.845;000.104;36;000.422;MIDI 01
054.918;000.071;55;000.398;MIDI 01
055.139;000.051;41;000.281;MIDI 01
055.142;000.052;29;000.281;MIDI 01
055.157;000.047;40;000.312;MIDI 01
055.109;000.157;56;000.422;MIDI 01
055.234;000.050;46;000.188;MIDI 01
055.293;000.034;58;000.453;MIDI 01
055.438;000.104;60;000.375;MIDI 01
055.427;000.230;34;000.422;MIDI 01
055.606;000.075;68;000.430;MIDI 01
055.413;000.295;46;000.477;MIDI 01
055.714;000.045;61;000.461;MIDI 01
055.794;000.051;60;000.375;MIDI 01
055.889;000.098;72;000.516;MIDI 01
055.984;000.129;58;000.453;MIDI 01
055.995;000.122;68;000.398;MIDI 01
056.163;000.031;74;000.352;MIDI 01
056.085;000.208;62;000.312;MIDI 01
056.003;000.321;46;000.492;MIDI 01
056.302;000.102;61;000.492;MIDI 01
056.428;000.126;55;000.398;MIDI 01
056.492;000.125;67;000.508;MIDI 01
056.558;000.094;46;000.305;MIDI 01
056.578;000.150;62;000.453;MIDI 01
056.609;000.140;34;000.469;MIDI 01
056.685;000.104;56;000.461;MIDI 01
056.779;000.139;68;000.508;MIDI 01
056.878;000.114;28;000.531;MIDI 01
056.975;000.046;55;000.305;MIDI 01
056.891;000.135;61;000.531;MIDI 01
056.882;000.146;40;000.500;MIDI 01
057.106;000.128;70;000.500;MIDI 01
057.249;000.129;46;000.406;MIDI 01
057.273;000.288;34;000.406;MIDI 01
057.232;000.354;62;000.461;MIDI 01
057.546;000.116;68;000.391;MIDI 01
057.407;000.260;56;000.312;MIDI 01
057.811;000.166;27;000.391;MIDI 01
057.781;000.232;39;000.375;MIDI 01
058.030;000.109;55;000.383;MIDI 01
058.198;000.110;60;000.375;MIDI 01
058.221;000.173;34;000.453;MIDI 01
058.209;000.221;46;000.484;MIDI 01
058.325;000.124;55;000.336;MIDI 01
058.402;000.095;67;000.453;MIDI 01
058.482;000.133;61;000.523;MIDI 01
058.589;000.041;55;000.445;MIDI 01
058.652;000.038;67;000.547;MIDI 01
058.739;000.036;58;000.445;MIDI 01
058.737;000.095;46;000.477;MIDI 01
058.773;000.082;67;000.555;MIDI 01
058.859;000.084;62;000.391;MIDI 01
058.923;000.064;74;000.539;MIDI 01
059.028;000.079;39;000.383;MIDI 01
059.055;000.055;49;000.094;MIDI 01
059.026;000.109;51;000.508;MIDI 01
059.039;000.116;66;000.547;MIDI 01
059.134;000.051;58;000.500;MIDI 01
059.190;000.061;70;000.273;MIDI 01
059.263;000.034;73;000.477;MIDI 01
059.314;000.091;67;000.469;MIDI 01
059.414;000.054;62;000.375;MIDI 01
059.472;000.059;74;000.539;MIDI 01
059.320;000.257;46;000.570;MIDI 01
059.316;000.314;58;000.570;MIDI 01
059.569;000.078;70;000.570;MIDI 01
059.672;000.064;66;000.477;MIDI 01
059.731;000.097;78;000.562;MIDI 01
059.840;000.101;73;000.562;MIDI 01
059.974;000.032;67;000.367;MIDI 01
059.826;000.229;51;000.562;MIDI 01
060.004;000.076;79;000.500;MIDI 01
059.829;000.289;63;000.562;MIDI 01
060.073;000.085;74;000.562;MIDI 01
060.207;000.049;70;000.469;MIDI 01
060.253;000.119;82;000.500;MIDI 01
060.377;000.111;78;000.562;MIDI 01
060.514;000.049;73;000.391;MIDI 01
060.370;000.239;58;000.562;MIDI 01
060.556;000.106;85;000.516;MIDI 01
060.369;000.325;70;000.562;MIDI 01
060.666;000.101;79;000.477;MIDI 01
060.782;000.098;74;000.430;MIDI 01
060.917;000.204;86;000.492;MIDI 01
061.099;000.082;82;000.516;MIDI 01
061.125;000.200;85;000.484;MIDI 01
061.317;000.378;78;000.539;MIDI 01
061.642;000.604;90;000.547;MIDI 01
062.186;000.181;26;000.367;MIDI 01
062.189;000.232;38;000.320;MIDI 01
062.246;000.675;86;000.555;MIDI 01
063.008;000.056;83;000.328;MIDI 01
063.057;000.074;54;000.148;MIDI 01
063.140;000.083;85;000.344;MIDI 01
063.223;000.110;83;000.383;MIDI 01
063.369;000.081;90;000.383;MIDI 01
063.388;000.089;54;000.234;MIDI 01
063.022;000.460;45;000.281;MIDI 01
063.536;000.047;83;000.406;MIDI 01
063.450;000.138;85;000.383;MIDI 01
063.626;000.068;78;000.469;MIDI 01
063.723;000.021;82;000.500;MIDI 01
063.691;000.056;45;000.266;MIDI 01
063.395;000.370;57;000.344;MIDI 01
063.685;000.149;54;000.344;MIDI 01
063.832;000.050;83;000.492;MIDI 01
063.958;000.105;86;000.492;MIDI 01
064.045;000.034;83;000.344;MIDI 01
064.089;000.028;81;000.398;MIDI 01
064.157;000.085;74;000.531;MIDI 01
064.269;000.049;76;000.367;MIDI 01
064.351;000.168;78;000.453;MIDI 01
064.455;000.101;76;000.492;MIDI 01
064.211;000.450;54;000.391;MIDI 01
064.556;000.137;83;000.484;MIDI 01
064.568;000.148;62;000.367;MIDI 01
064.242;000.480;57;000.352;MIDI 01
064.684;000.092;78;000.492;MIDI 01
064.804;000.051;76;000.172;MIDI 01
064.547;000.312;66;000.539;MIDI 01
064.845;000.095;71;000.430;MIDI 01
064.900;000.061;57;000.359;MIDI 01
064.909;000.097;54;000.281;MIDI 01
064.957;000.051;74;000.398;MIDI 01
065.020;000.061;76;000.461;MIDI 01
065.139;000.085;81;000.430;MIDI 01
065.217;000.053;76;000.500;MIDI 01
065.292;000.030;74;000.391;MIDI 01
065.379;000.052;69;000.438;MIDI 01
065.394;000.040;45;000.352;MIDI 01
065.464;000.036;71;000.414;MIDI 01
065.549;000.044;73;000.430;MIDI 01
065.402;000.223;54;000.406;MIDI 01
065.640;000.112;78;000.445;MIDI 01
065.683;000.094;62;000.562;MIDI 01
065.720;000.099;54;000.367;MIDI 01
065.707;000.122;73;000.500;MIDI 01
065.800;000.042;71;000.453;MIDI 01
065.886;000.043;66;000.469;MIDI 01
066.100;000.027;71;000.352;MIDI 01
066.040;000.126;69;000.305;MIDI 01
066.025;000.181;54;000.414;MIDI 01
066.046;000.225;45;000.422;MIDI 01
066.171;000.103;74;000.523;MIDI 01
066.266;000.043;71;000.266;MIDI 01
066.325;000.045;69;000.242;MIDI 01
066.380;000.038;62;000.438;MIDI 01
066.503;000.045;62;000.391;MIDI 01
066.595;000.123;64;000.430;MIDI 01
066.506;000.239;54;000.320;MIDI 01
066.702;000.068;62;000.359;MIDI 01
066.480;000.307;45;000.383;MIDI 01
066.768;000.077;57;000.523;MIDI 01
066.765;000.181;69;000.453;MIDI 01
066.894;000.100;64;000.430;MIDI 01
067.019;000.031;62;000.367;MIDI 01
067.111;000.094;45;000.344;MIDI 01
067.124;000.132;57;000.406;MIDI 01
067.272;000.059;58;000.336;MIDI 01
067.379;000.120;60;000.414;MIDI 01
067.499;000.203;58;000.414;MIDI 01
067.683;000.073;26;000.406;MIDI 01
067.700;000.117;38;000.359;MIDI 01
067.739;000.115;53;000.414;MIDI 01
067.725;000.197;62;000.398;MIDI 01
067.765;000.180;65;000.391;MIDI 01
068.294;000.053;82;000.344;MIDI 01
068.292;000.080;53;000.328;MIDI 01
068.399;000.081;84;000.453;MIDI 01
068.502;000.036;82;000.359;MIDI 01
068.537;000.142;89;000.398;MIDI 01
068.290;000.392;45;000.344;MIDI 01
068.581;000.105;53;000.383;MIDI 01
068.622;000.082;84;000.453;MIDI 01
068.697;000.067;82;000.438;MIDI 01
068.600;000.220;57;000.414;MIDI 01
068.802;000.059;77;000.359;MIDI 01
068.828;000.040;45;000.430;MIDI 01
068.853;000.051;53;000.422;MIDI 01
068.903;000.033;81;000.375;MIDI 01
068.945;000.072;82;000.531;MIDI 01
069.051;000.134;86;000.547;MIDI 01
069.161;000.089;82;000.523;MIDI 01
069.227;000.030;81;000.367;MIDI 01
069.302;000.075;74;000.484;MIDI 01
069.429;000.033;76;000.336;MIDI 01
069.498;000.078;77;000.398;MIDI 01
069.325;000.314;53;000.391;MIDI 01
069.586;000.054;76;000.414;MIDI 01
069.638;000.110;62;000.492;MIDI 01
069.659;000.128;82;000.445;MIDI 01
069.756;000.033;78;000.336;MIDI 01
069.330;000.466;57;000.445;MIDI 01
069.801;000.051;77;000.430;MIDI 01
069.849;000.041;76;000.422;MIDI 01
069.632;000.341;65;000.602;MIDI 01
069.943;000.059;70;000.445;MIDI 01
069.964;000.104;57;000.430;MIDI 01
070.002;000.084;53;000.352;MIDI 01
070.068;000.040;74;000.398;MIDI 01
070.107;000.081;76;000.477;MIDI 01
070.214;000.107;81;000.547;MIDI 01
070.304;000.065;76;000.461;MIDI 01
070.390;000.035;74;000.328;MIDI 01
070.448;000.037;45;000.414;MIDI 01
070.452;000.097;69;000.508;MIDI 01
070.458;000.168;53;000.469;MIDI 01
070.567;000.067;70;000.461;MIDI 01
070.664;000.083;72;000.398;MIDI 01
070.750;000.099;62;000.625;MIDI 01
070.781;000.118;77;000.516;MIDI 01
070.779;000.123;53;000.539;MIDI 01
070.874;000.091;72;000.367;MIDI 01
070.972;000.041;70;000.500;MIDI 01
071.036;000.084;65;000.469;MIDI 01
071.092;000.032;53;000.305;MIDI 01
071.108;000.076;45;000.320;MIDI 01
071.184;000.052;70;000.430;MIDI 01
071.144;000.163;69;000.508;MIDI 01
071.333;000.043;74;000.312;MIDI 01
071.322;000.056;73;000.211;MIDI 01
071.362;000.098;70;000.461;MIDI 01
071.445;000.026;69;000.430;MIDI 01
071.515;000.048;38;000.500;MIDI 01
071.524;000.061;45;000.547;MIDI 01
071.527;000.080;62;000.461;MIDI 01
071.640;000.089;65;000.414;MIDI 01
071.690;000.084;67;000.477;MIDI 01
071.841;000.077;58;000.617;MIDI 01
071.859;000.105;53;000.500;MIDI 01
071.838;000.201;70;000.523;MIDI 01
071.959;000.122;67;000.492;MIDI 01
072.051;000.051;65;000.453;MIDI 01
072.170;000.041;58;000.469;MIDI 01
072.320;000.115;58;000.531;MIDI 01
072.449;000.153;60;000.508;MIDI 01
072.830;000.202;25;000.453;MIDI 01
072.954;000.124;53;000.484;MIDI 01
072.845;000.253;37;000.398;MIDI 01
072.615;000.546;58;000.523;MIDI 01
072.935;000.254;61;000.547;MIDI 01
072.952;000.247;65;000.523;MIDI 01
073.588;000.061;82;000.391;MIDI 01
073.571;000.102;53;000.336;MIDI 01
073.701;000.095;84;000.453;MIDI 01
073.806;000.056;82;000.383;MIDI 01
073.561;000.321;44;000.391;MIDI 01
073.859;000.114;89;000.445;MIDI 01
073.861;000.115;53;000.406;MIDI 01
073.941;000.098;84;000.484;MIDI 01
074.036;000.047;82;000.484;MIDI 01
073.879;000.303;56;000.430;MIDI 01
074.151;000.035;44;000.367;MIDI 01
074.153;000.043;53;000.438;MIDI 01
074.108;000.110;77;000.477;MIDI 01
074.225;000.031;80;000.430;MIDI 01
074.292;000.099;82;000.539;MIDI 01
074.380;000.094;80;000.469;MIDI 01
074.465;000.102;56;000.570;MIDI 01
074.469;000.132;85;000.477;MIDI 01
074.573;000.079;82;000.391;MIDI 01
074.635;000.050;80;000.508;MIDI 01
074.454;000.237;65;000.594;MIDI 01
074.771;000.072;73;000.383;MIDI 01
074.797;000.054;56;000.391;MIDI 01
074.822;000.037;53;000.305;MIDI 01
074.882;000.042;75;000.367;MIDI 01
074.951;000.050;77;000.391;MIDI 01
075.042;000.085;61;000.555;MIDI 01
075.044;000.093;82;000.508;MIDI 01
075.051;000.135;53;000.461;MIDI 01
075.120;000.102;77;000.500;MIDI 01
075.225;000.044;75;000.453;MIDI 01
075.309;000.116;70;000.461;MIDI 01
075.354;000.103;44;000.461;MIDI 01
075.451;000.032;73;000.359;MIDI 01
075.492;000.056;75;000.516;MIDI 01
075.584;000.143;80;000.539;MIDI 01
075.700;000.077;75;000.500;MIDI 01
075.806;000.043;37;000.320;MIDI 01
075.810;000.040;73;000.227;MIDI 01
075.808;000.044;44;000.445;MIDI 01
075.870;000.052;68;000.391;MIDI 01
075.954;000.062;70;000.477;MIDI 01
076.023;000.080;72;000.492;MIDI 01
076.112;000.091;58;000.578;MIDI 01
076.135;000.091;77;000.500;MIDI 01
076.129;000.108;53;000.469;MIDI 01
076.228;000.096;72;000.383;MIDI 01
076.323;000.043;70;000.469;MIDI 01
076.395;000.112;65;000.438;MIDI 01
076.481;000.039;53;000.203;MIDI 01
076.464;000.119;44;000.461;MIDI 01
076.582;000.044;70;000.492;MIDI 01
076.537;000.164;68;000.383;MIDI 01
076.682;000.096;73;000.492;MIDI 01
076.742;000.110;70;000.445;MIDI 01
076.846;000.030;68;000.406;MIDI 01
076.930;000.070;61;000.461;MIDI 01
077.039;000.064;63;000.406;MIDI 01
077.124;000.059;65;000.391;MIDI 01
077.226;000.048;56;000.508;MIDI 01
077.228;000.129;70;000.500;MIDI 01
076.921;000.467;44;000.523;MIDI 01
077.336;000.126;65;000.414;MIDI 01
077.434;000.069;63;000.453;MIDI 01
077.565;000.043;58;000.406;MIDI 01
077.727;000.077;58;000.359;MIDI 01
077.843;000.100;60;000.438;MIDI 01
077.969;000.159;58;000.430;MIDI 01
078.079;000.136;25;000.422;MIDI 01
077.661;000.585;37;000.359;MIDI 01
078.167;000.089;52;000.453;MIDI 01
078.172;000.143;61;000.398;MIDI 01
078.161;000.168;64;000.438;MIDI 01
078.645;000.051;44;000.492;MIDI 01
078.658;000.056;52;000.492;MIDI 01
078.688;000.105;82;000.406;MIDI 01
078.832;000.201;84;000.430;MIDI 01
078.955;000.174;82;000.492;MIDI 01
079.103;000.212;88;000.508;MIDI 01
079.149;000.240;58;000.477;MIDI 01
079.253;000.154;84;000.430;MIDI 01
079.407;000.056;82;000.469;MIDI 01
079.124;000.373;68;000.602;MIDI 01
079.490;000.089;61;000.469;MIDI 01
079.504;000.101;56;000.438;MIDI 01
079.511;000.107;76;000.477;MIDI 01
079.657;000.030;80;000.328;MIDI 01
079.700;000.060;82;000.516;MIDI 01
079.799;000.027;80;000.398;MIDI 01
079.797;000.043;54;000.281;MIDI 01
079.733;000.194;63;000.633;MIDI 01
079.814;000.129;85;000.484;MIDI 01
079.934;000.062;82;000.422;MIDI 01
079.949;000.080;80;000.438;MIDI 01
079.765;000.297;56;000.484;MIDI 01
080.075;000.082;73;000.484;MIDI 01
080.013;000.236;52;000.516;MIDI 01
080.026;000.236;58;000.547;MIDI 01
080.224;000.085;75;000.445;MIDI 01
080.280;000.056;76;000.445;MIDI 01
080.255;000.236;61;000.672;MIDI 01
080.374;000.122;82;000.461;MIDI 01
080.473;000.077;76;000.484;MIDI 01
080.533;000.098;58;000.531;MIDI 01
080.253;000.383;56;000.562;MIDI 01
080.554;000.096;52;000.422;MIDI 01
080.607;000.118;70;000.531;MIDI 01
080.750;000.085;75;000.500;MIDI 01
080.757;000.089;73;000.398;MIDI 01
080.856;000.156;80;000.570;MIDI 01
080.978;000.076;75;000.469;MIDI 01
081.023;000.041;37;000.398;MIDI 01
081.024;000.048;44;000.508;MIDI 01
081.047;000.042;73;000.438;MIDI 01
081.127;000.061;68;000.453;MIDI 01
081.245;000.068;70;000.414;MIDI 01
081.317;000.088;72;000.445;MIDI 01
081.388;000.169;52;000.539;MIDI 01
081.425;000.133;76;000.531;MIDI 01
081.652;000.029;70;000.398;MIDI 01
081.546;000.141;72;000.414;MIDI 01
081.359;000.370;58;000.633;MIDI 01
081.709;000.109;64;000.453;MIDI 01
081.739;000.120;52;000.430;MIDI 01
081.844;000.033;68;000.352;MIDI 01
081.735;000.203;44;000.484;MIDI 01
081.892;000.073;70;000.453;MIDI 01
082.015;000.104;73;000.523;MIDI 01
082.171;000.046;70;000.234;MIDI 01
082.174;000.064;68;000.383;MIDI 01
082.291;000.064;61;000.461;MIDI 01
082.423;000.070;63;000.398;MIDI 01
082.503;000.101;64;000.398;MIDI 01
082.630;000.185;70;000.461;MIDI 01
082.643;000.190;56;000.531;MIDI 01
082.793;000.117;64;000.383;MIDI 01
082.931;000.072;63;000.406;MIDI 01
082.293;000.823;44;000.461;MIDI 01
083.065;000.069;58;000.352;MIDI 01
083.221;000.190;58;000.312;MIDI 01
083.450;000.271;60;000.289;MIDI 01
083.741;000.938;58;000.320;MIDI 01
084.667;000.071;52;000.211;MIDI 01
084.572;000.179;24;000.188;MIDI 01
084.609;000.201;36;000.195;MIDI 01
084.648;000.165;61;000.312;MIDI 01
085.165;000.028;80;000.430;MIDI 01
085.160;000.040;68;000.453;MIDI 01
085.178;000.034;73;000.336;MIDI 01
085.200;000.130;61;000.359;MIDI 01
085.306;000.027;68;000.398;MIDI 01
085.311;000.033;80;000.312;MIDI 01
085.186;000.364;64;000.414;MIDI 01
085.491;000.151;60;000.344;MIDI 01
085.791;000.044;68;000.492;MIDI 01
085.807;000.032;64;000.383;MIDI 01
085.929;000.041;68;000.508;MIDI 01
085.802;000.172;59;000.398;MIDI 01
085.974;000.043;64;000.234;MIDI 01
086.082;000.066;58;000.367;MIDI 01
086.349;000.049;57;000.344;MIDI 01
086.355;000.052;72;000.461;MIDI 01
086.452;000.149;64;000.391;MIDI 01
085.778;000.888;61;000.367;MIDI 01
086.544;000.168;73;000.539;MIDI 01
086.645;000.076;76;000.531;MIDI 01
086.688;000.062;70;000.523;MIDI 01
086.648;000.154;56;000.391;MIDI 01
086.778;000.045;64;000.523;MIDI 01
086.890;000.033;55;000.406;MIDI 01
086.898;000.082;61;000.547;MIDI 01
086.969;000.047;58;000.492;MIDI 01
087.021;000.112;55;000.625;MIDI 01
087.119;000.043;36;000.602;MIDI 01
087.127;000.054;54;000.641;MIDI 01
087.419;000.029;73;000.570;MIDI 01
087.412;000.038;68;000.578;MIDI 01
087.417;000.035;80;000.617;MIDI 01
087.415;000.170;61;000.562;MIDI 01
087.564;000.039;73;000.391;MIDI 01
087.550;000.084;68;000.477;MIDI 01
087.410;000.306;64;000.570;MIDI 01
087.696;000.099;60;000.461;MIDI 01
087.806;000.055;66;000.461;MIDI 01
087.873;000.093;67;000.477;MIDI 01
087.947;000.059;64;000.492;MIDI 01
087.953;000.072;68;000.602;MIDI 01
087.960;000.201;59;000.492;MIDI 01
088.121;000.045;68;000.516;MIDI 01
088.266;000.075;58;000.453;MIDI 01
088.400;000.040;71;000.352;MIDI 01
088.519;000.065;57;000.422;MIDI 01
088.495;000.091;72;000.508;MIDI 01
088.591;000.126;64;000.391;MIDI 01
087.949;000.843;61;000.516;MIDI 01
088.767;000.068;76;000.555;MIDI 01
088.658;000.181;73;000.492;MIDI 01
088.831;000.050;70;000.516;MIDI 01
088.785;000.159;56;000.477;MIDI 01
088.917;000.042;64;000.500;MIDI 01
089.005;000.049;55;000.539;MIDI 01
089.019;000.077;61;000.562;MIDI 01
089.103;000.035;58;000.398;MIDI 01
089.169;000.028;55;000.367;MIDI 01
089.264;000.034;36;000.609;MIDI 01
089.223;000.082;54;000.625;MIDI 01
089.285;000.048;53;000.703;MIDI 01
089.551;000.035;69;000.570;MIDI 01
089.555;000.034;75;000.578;MIDI 01
089.545;000.050;81;000.680;MIDI 01
089.706;000.017;81;000.586;MIDI 01
089.695;000.059;75;000.617;MIDI 01
089.559;000.206;61;000.492;MIDI 01
089.697;000.073;69;000.641;MIDI 01
089.568;000.275;63;000.492;MIDI 01
089.548;000.300;65;000.617;MIDI 01
089.864;000.088;60;000.547;MIDI 01
090.116;000.042;66;000.641;MIDI 01
090.123;000.039;72;000.586;MIDI 01
090.119;000.152;58;000.578;MIDI 01
090.266;000.035;66;000.617;MIDI 01
090.275;000.051;72;000.617;MIDI 01
090.417;000.058;57;000.547;MIDI 01
090.656;000.066;71;000.484;MIDI 01
090.685;000.118;56;000.508;MIDI 01
090.741;000.125;63;000.508;MIDI 01
090.842;000.148;72;000.516;MIDI 01
090.931;000.108;75;000.562;MIDI 01
090.990;000.068;70;000.539;MIDI 01
090.121;000.962;60;000.539;MIDI 01
091.096;000.035;63;000.484;MIDI 01
091.016;000.185;55;000.297;MIDI 01
091.201;000.031;63;000.547;MIDI 01
091.178;000.056;54;000.523;MIDI 01
091.285;000.054;57;000.555;MIDI 01
091.443;000.031;36;000.531;MIDI 01
091.427;000.054;53;000.672;MIDI 01
091.452;000.044;35;000.406;MIDI 01
091.371;000.135;54;000.477;MIDI 01
091.705;000.026;81;000.633;MIDI 01
091.708;000.030;69;000.594;MIDI 01
091.710;000.032;75;000.602;MIDI 01
091.732;000.030;67;000.445;MIDI 01
091.836;000.040;81;000.570;MIDI 01
091.842;000.042;75;000.508;MIDI 01
091.707;000.198;61;000.562;MIDI 01
091.844;000.069;69;000.656;MIDI 01
091.703;000.227;65;000.562;MIDI 01
091.716;000.263;63;000.516;MIDI 01
091.975;000.068;60;000.539;MIDI 01
092.111;000.040;62;000.297;MIDI 01
092.110;000.074;64;000.367;MIDI 01
092.157;000.082;65;000.578;MIDI 01
092.214;000.049;66;000.586;MIDI 01
092.221;000.055;72;000.586;MIDI 01
092.219;000.171;58;000.570;MIDI 01
092.368;000.034;66;000.633;MIDI 01
092.364;000.067;72;000.602;MIDI 01
092.505;000.059;57;000.508;MIDI 01
092.589;000.078;69;000.539;MIDI 01
092.675;000.051;70;000.523;MIDI 01
092.731;000.049;71;000.539;MIDI 01
092.824;000.132;63;000.547;MIDI 01
092.209;000.784;60;000.602;MIDI 01
092.760;000.291;56;000.477;MIDI 01
092.908;000.147;72;000.555;MIDI 01
093.002;000.107;75;000.648;MIDI 01
093.051;000.077;70;000.531;MIDI 01
093.151;000.035;63;000.555;MIDI 01
093.028;000.164;54;000.469;MIDI 01
093.264;000.034;63;000.562;MIDI 01
093.251;000.057;53;000.562;MIDI 01
093.323;000.057;57;000.633;MIDI 01
093.510;000.035;36;000.656;MIDI 01
093.422;000.146;54;000.531;MIDI 01
093.533;000.050;52;000.742;MIDI 01
093.469;000.125;53;000.609;MIDI 01
093.843;000.025;81;000.711;MIDI 01
093.847;000.026;88;000.727;MIDI 01
093.848;000.028;76;000.664;MIDI 01
093.872;000.026;77;000.438;MIDI 01
093.985;000.031;88;000.680;MIDI 01
093.986;000.033;81;000.602;MIDI 01
093.980;000.065;76;000.719;MIDI 01
093.844;000.215;60;000.562;MIDI 01
093.851;000.360;69;000.586;MIDI 01
094.159;000.138;59;000.633;MIDI 01
093.866;000.481;64;000.477;MIDI 01
094.432;000.066;72;000.656;MIDI 01
094.439;000.067;84;000.688;MIDI 01
094.430;000.078;76;000.703;MIDI 01
094.455;000.154;58;000.500;MIDI 01
094.614;000.017;84;000.578;MIDI 01
094.604;000.058;72;000.664;MIDI 01
094.601;000.064;76;000.641;MIDI 01
094.436;000.320;64;000.508;MIDI 01
094.428;000.339;68;000.680;MIDI 01
094.434;000.339;60;000.578;MIDI 01
094.751;000.117;57;000.688;MIDI 01
095.028;000.079;72;000.664;MIDI 01
095.042;000.099;76;000.602;MIDI 01
095.114;000.076;71;000.586;MIDI 01
095.120;000.095;75;000.602;MIDI 01
095.043;000.178;56;000.586;MIDI 01
095.202;000.042;72;000.672;MIDI 01
095.225;000.029;76;000.398;MIDI 01
095.030;000.297;67;000.586;MIDI 01
095.033;000.346;60;000.586;MIDI 01
095.327;000.119;55;000.688;MIDI 01
095.645;000.030;66;000.617;MIDI 01
095.660;000.025;72;000.672;MIDI 01
095.655;000.034;60;000.609;MIDI 01
095.648;000.062;64;000.719;MIDI 01
095.658;000.060;54;000.680;MIDI 01
096.015;000.145;53;000.688;MIDI 01
096.121;000.121;54;000.656;MIDI 01
096.224;000.044;56;000.594;MIDI 01
096.220;000.064;59;000.602;MIDI 01
096.277;000.044;52;000.680;MIDI 01
096.426;000.091;43;000.188;MIDI 01
096.585;000.043;40;000.484;MIDI 01
096.578;000.052;51;000.648;MIDI 01
096.877;000.036;50;000.555;MIDI 01
096.885;000.061;59;000.508;MIDI 01
096.888;000.075;65;000.461;MIDI 01
096.967;000.059;60;000.477;MIDI 01
097.034;000.046;61;000.484;MIDI 01
097.117;000.033;62;000.523;MIDI 01
097.124;000.080;49;000.531;MIDI 01
097.188;000.090;63;000.555;MIDI 01
097.291;000.064;64;000.586;MIDI 01
097.368;000.027;74;000.672;MIDI 01
097.377;000.031;65;000.594;MIDI 01
097.376;000.062;48;000.578;MIDI 01
097.681;000.054;47;000.539;MIDI 01
097.968;000.031;49;000.531;MIDI 01
097.959;000.055;46;000.617;MIDI 01
097.978;000.039;52;000.406;MIDI 01
097.970;000.058;56;000.562;MIDI 01
098.270;000.030;50;000.656;MIDI 01
098.272;000.051;53;000.656;MIDI 01
098.268;000.057;45;000.688;MIDI 01
098.266;000.061;57;000.641;MIDI 01
098.564;000.024;51;000.750;MIDI 01
098.561;000.046;54;000.703;MIDI 01
098.559;000.058;58;000.734;MIDI 01
098.566;000.072;44;000.672;MIDI 01
098.855;000.080;43;000.648;MIDI 01
099.147;000.046;53;000.523;MIDI 01
099.131;000.071;44;000.617;MIDI 01
099.236;000.115;54;000.477;MIDI 01
099.329;000.042;55;000.531;MIDI 01
099.408;000.085;40;000.688;MIDI 01
099.469;000.058;38;000.180;MIDI 01
099.401;000.131;59;000.570;MIDI 01
099.398;000.144;56;000.531;MIDI 01
099.511;000.045;55;000.445;MIDI 01
099.584;000.072;54;000.445;MIDI 01
099.699;000.041;53;000.484;MIDI 01
099.690;000.073;45;000.531;MIDI 01
099.796;000.079;54;000.445;MIDI 01
099.895;000.044;55;000.469;MIDI 01
099.970;000.076;39;000.586;MIDI 01
099.968;000.112;56;000.516;MIDI 01
099.973;000.121;59;000.523;MIDI 01
100.070;000.059;55;000.492;MIDI 01
100.165;000.070;54;000.422;MIDI 01
100.261;000.045;53;000.492;MIDI 01
100.258;000.051;45;000.469;MIDI 01
100.370;000.081;54;000.453;MIDI 01
100.455;000.057;55;000.477;MIDI 01
100.537;000.065;38;000.508;MIDI 01
100.525;000.136;56;000.562;MIDI 01
100.625;000.059;55;000.555;MIDI 01
100.709;000.082;54;000.516;MIDI 01
100.527;000.267;59;000.555;MIDI 01
100.802;000.057;45;000.539;MIDI 01
100.800;000.062;53;000.570;MIDI 01
100.892;000.098;54;000.500;MIDI 01
101.001;000.040;55;000.516;MIDI 01
101.079;000.054;37;000.320;MIDI 01
101.165;000.048;55;000.422;MIDI 01
101.077;000.182;56;000.422;MIDI 01
101.248;000.062;54;000.414;MIDI 01
101.339;000.051;45;000.406;MIDI 01
096.004;005.394;36;000.656;MIDI 01
101.364;000.039;53;000.305;MIDI 01
101.068;000.364;59;000.375;MIDI 01
101.429;000.073;54;000.453;MIDI 01
101.535;000.033;55;000.359;MIDI 01
101.604;000.084;36;000.391;MIDI 01
101.606;000.208;48;000.359;MIDI 01
101.716;000.200;52;000.461;MIDI 01
101.783;000.138;55;000.258;MIDI 01
101.877;000.046;47;000.422;MIDI 01
101.867;000.095;56;000.484;MIDI 01
101.983;000.053;61;000.406;MIDI 01
102.150;000.083;36;000.406;MIDI 01
102.145;000.105;48;000.438;MIDI 01
102.250;000.095;52;000.406;MIDI 01
102.317;000.125;55;000.453;MIDI 01
102.427;000.036;45;000.438;MIDI 01
102.405;000.096;57;000.539;MIDI 01
102.523;000.048;62;000.430;MIDI 01
102.693;000.080;48;000.508;MIDI 01
102.695;000.099;36;000.461;MIDI 01
102.756;000.206;52;000.484;MIDI 01
102.968;000.073;44;000.586;MIDI 01
102.850;000.222;55;000.539;MIDI 01
102.950;000.124;58;000.570;MIDI 01
103.060;000.101;63;000.555;MIDI 01
103.274;000.080;48;000.594;MIDI 01
103.277;000.112;36;000.531;MIDI 01
103.348;000.135;52;000.508;MIDI 01
103.518;000.064;43;000.586;MIDI 01
103.448;000.202;55;000.547;MIDI 01
103.537;000.126;59;000.586;MIDI 01
103.644;000.067;64;000.586;MIDI 01
103.818;000.044;42;000.562;MIDI 01
103.825;000.052;30;000.516;MIDI 01
103.917;000.148;49;000.453;MIDI 01
104.092;000.070;41;000.500;MIDI 01
104.001;000.162;54;000.430;MIDI 01
104.079;000.142;55;000.469;MIDI 01
104.182;000.104;59;000.383;MIDI 01
104.274;000.055;49;000.469;MIDI 01
104.392;000.040;42;000.586;MIDI 01
104.398;000.044;30;000.570;MIDI 01
104.483;000.161;49;000.469;MIDI 01
104.555;000.185;54;000.531;MIDI 01
104.701;000.066;39;000.578;MIDI 01
104.645;000.147;57;000.508;MIDI 01
104.733;000.083;61;000.555;MIDI 01
104.854;000.057;49;000.531;MIDI 01
104.954;000.056;42;000.672;MIDI 01
104.970;000.051;30;000.562;MIDI 01
105.032;000.151;49;000.586;MIDI 01
105.222;000.079;38;000.625;MIDI 01
105.110;000.217;54;000.539;MIDI 01
105.205;000.156;58;000.562;MIDI 01
105.311;000.117;61;000.594;MIDI 01
105.392;000.043;49;000.531;MIDI 01
105.493;000.072;42;000.695;MIDI 01
105.496;000.100;30;000.641;MIDI 01
105.589;000.125;49;000.508;MIDI 01
105.683;000.177;54;000.617;MIDI 01
105.793;000.083;37;000.656;MIDI 01
105.855;000.083;63;000.570;MIDI 01
105.776;000.165;58;000.523;MIDI 01
105.944;000.048;49;000.586;MIDI 01
106.071;000.078;42;000.695;MIDI 01
106.078;000.099;30;000.648;MIDI 01
106.174;000.112;49;000.547;MIDI 01
106.279;000.157;54;000.570;MIDI 01
106.373;000.092;36;000.680;MIDI 01
106.446;000.044;63;000.508;MIDI 01
106.511;000.083;48;000.680;MIDI 01
106.377;000.402;58;000.578;MIDI 01
106.679;000.104;42;000.703;MIDI 01
106.686;000.115;30;000.664;MIDI 01
106.777;000.123;49;000.617;MIDI 01
106.977;000.088;36;000.602;MIDI 01
106.892;000.180;54;000.609;MIDI 01
107.072;000.074;63;000.555;MIDI 01
107.178;000.090;48;000.539;MIDI 01
107.008;000.291;58;000.555;MIDI 01
107.364;000.084;37;000.438;MIDI 01
107.490;000.080;49;000.438;MIDI 01
107.516;000.068;42;000.367;MIDI 01
107.617;000.119;37;000.484;MIDI 01
107.639;000.124;54;000.445;MIDI 01
107.728;000.085;36;000.359;MIDI 01
107.845;000.032;64;000.414;MIDI 01
107.734;000.155;58;000.469;MIDI 01
107.849;000.112;29;000.531;MIDI 01
107.940;000.061;48;000.555;MIDI 01
107.990;000.112;36;000.492;MIDI 01
108.102;000.091;37;000.531;MIDI 01
108.186;000.078;49;000.547;MIDI 01
108.207;000.060;42;000.531;MIDI 01
108.318;000.106;37;000.562;MIDI 01
108.311;000.162;54;000.539;MIDI 01
108.415;000.089;36;000.484;MIDI 01
108.521;000.039;64;000.547;MIDI 01
108.417;000.198;58;000.570;MIDI 01
108.507;000.119;29;000.617;MIDI 01
108.626;000.055;48;000.578;MIDI 01
108.635;000.118;36;000.578;MIDI 01
108.722;000.103;37;000.578;MIDI 01
108.831;000.086;42;000.617;MIDI 01
108.866;000.089;49;000.617;MIDI 01
108.964;000.134;37;000.609;MIDI 01
108.977;000.177;54;000.656;MIDI 01
109.064;000.103;36;000.602;MIDI 01
109.180;000.077;64;000.625;MIDI 01
109.085;000.183;58;000.633;MIDI 01
109.247;000.035;62;000.258;MIDI 01
109.294;000.066;48;000.656;MIDI 01
109.167;000.225;29;000.633;MIDI 01
109.289;000.138;36;000.617;MIDI 01
109.383;000.115;37;000.602;MIDI 01
109.494;000.107;42;000.633;MIDI 01
109.541;000.115;49;000.625;MIDI 01
109.641;000.126;37;000.641;MIDI 01
109.662;000.157;54;000.602;MIDI 01
109.745;000.131;36;000.602;MIDI 01
109.765;000.149;58;000.609;MIDI 01
109.872;000.054;64;000.633;MIDI 01
109.964;000.037;48;000.680;MIDI 01
109.993;000.044;62;000.281;MIDI 01
109.894;000.237;29;000.641;MIDI 01
110.182;000.143;62;000.555;MIDI 01
110.479;000.039;48;000.680;MIDI 01
110.484;000.073;36;000.688;MIDI 01
110.792;000.052;28;000.719;MIDI 01
110.789;000.058;40;000.734;MIDI 01
111.164;000.058;48;000.672;MIDI 01
111.169;000.115;36;000.688;MIDI 01
111.518;000.046;27;000.688;MIDI 01
111.513;000.062;39;000.742;MIDI 01
111.975;000.077;48;000.617;MIDI 01
111.982;000.154;36;000.609;MIDI 01
112.493;000.075;38;000.523;MIDI 01
112.491;000.090;26;000.547;MIDI 01
112.820;000.120;37;000.445;MIDI 01
112.823;000.142;25;000.469;MIDI 01
113.346;000.154;36;000.359;MIDI 01
113.344;000.164;24;000.383;MIDI 01
110.176;004.022;64;000.641;MIDI 01
110.180;004.040;58;000.602;MIDI 01
110.171;004.084;54;000.781;MIDI 01
114.517;000.032;29;000.523;MIDI 01
114.515;000.047;41;000.570;MIDI 01
114.598;000.036;48;000.359;MIDI 01
114.500;000.141;56;000.492;MIDI 01
114.711;000.046;60;000.234;MIDI 01
114.790;000.056;48;000.438;MIDI 01
114.811;000.076;36;000.516;MIDI 01
114.792;000.116;61;000.469;MIDI 01
114.955;000.060;68;000.461;MIDI 01
115.055;000.039;28;000.609;MIDI 01
115.048;000.049;40;000.648;MIDI 01
115.068;000.048;62;000.539;MIDI 01
115.135;000.072;60;000.531;MIDI 01
115.249;000.095;72;000.555;MIDI 01
115.332;000.036;48;000.633;MIDI 01
115.342;000.064;36;000.625;MIDI 01
115.354;000.127;68;000.547;MIDI 01
115.509;000.032;75;000.555;MIDI 01
115.433;000.110;63;000.562;MIDI 01
115.593;000.029;39;000.734;MIDI 01
115.601;000.025;27;000.625;MIDI 01
115.626;000.059;62;000.602;MIDI 01
115.739;000.025;39;000.109;MIDI 01
115.707;000.093;60;000.477;MIDI 01
115.787;000.045;72;000.555;MIDI 01
115.825;000.047;44;000.258;MIDI 01
115.910;000.044;48;000.586;MIDI 01
115.919;000.081;36;000.586;MIDI 01
115.899;000.108;63;000.555;MIDI 01
116.011;000.073;56;000.445;MIDI 01
116.077;000.082;68;000.531;MIDI 01
116.167;000.039;38;000.578;MIDI 01
116.184;000.040;26;000.523;MIDI 01
116.205;000.115;59;000.484;MIDI 01
116.255;000.076;56;000.484;MIDI 01
116.315;000.037;37;000.586;MIDI 01
116.320;000.047;25;000.555;MIDI 01
116.336;000.111;62;000.469;MIDI 01
116.459;000.045;36;000.602;MIDI 01
116.468;000.043;24;000.539;MIDI 01
116.424;000.126;60;000.523;MIDI 01
116.586;000.055;63;000.469;MIDI 01
116.522;000.126;55;000.383;MIDI 01
116.733;000.037;29;000.586;MIDI 01
116.724;000.051;41;000.656;MIDI 01
116.728;000.143;56;000.484;MIDI 01
116.848;000.058;48;000.133;MIDI 01
116.903;000.032;60;000.398;MIDI 01
117.010;000.051;48;000.602;MIDI 01
117.020;000.089;36;000.586;MIDI 01
117.000;000.115;61;000.516;MIDI 01
117.138;000.090;68;000.547;MIDI 01
117.266;000.033;28;000.695;MIDI 01
117.260;000.042;40;000.703;MIDI 01
117.277;000.040;62;000.516;MIDI 01
117.325;000.074;60;000.570;MIDI 01
117.456;000.083;74;000.547;MIDI 01
117.458;000.101;72;000.469;MIDI 01
117.544;000.042;48;000.656;MIDI 01
117.552;000.069;36;000.664;MIDI 01
117.564;000.084;68;000.547;MIDI 01
117.626;000.110;63;000.523;MIDI 01
117.704;000.034;75;000.602;MIDI 01
117.814;000.033;39;000.719;MIDI 01
117.817;000.038;27;000.664;MIDI 01
117.835;000.034;62;000.633;MIDI 01
117.958;000.026;39;000.062;MIDI 01
117.897;000.118;60;000.508;MIDI 01
117.992;000.058;72;000.570;MIDI 01
118.118;000.054;48;000.641;MIDI 01
118.124;000.086;36;000.609;MIDI 01
118.106;000.106;63;000.508;MIDI 01
118.196;000.097;56;000.523;MIDI 01
118.291;000.083;68;000.508;MIDI 01
118.366;000.042;38;000.672;MIDI 01
118.374;000.037;26;000.648;MIDI 01
118.447;000.104;56;000.594;MIDI 01
118.511;000.056;37;000.695;MIDI 01
118.400;000.172;59;000.516;MIDI 01
118.517;000.059;25;000.688;MIDI 01
118.537;000.147;62;000.547;MIDI 01
118.656;000.051;24;000.648;MIDI 01
118.650;000.071;36;000.656;MIDI 01
118.652;000.133;60;000.484;MIDI 01
118.819;000.054;63;000.438;MIDI 01
118.739;000.149;55;000.398;MIDI 01
118.995;000.036;29;000.500;MIDI 01
118.991;000.056;41;000.562;MIDI 01
119.094;000.048;48;000.266;MIDI 01
118.981;000.164;56;000.406;MIDI 01
119.174;000.042;60;000.453;MIDI 01
119.300;000.107;61;000.516;MIDI 01
119.314;000.145;36;000.531;MIDI 01
119.311;000.197;48;000.547;MIDI 01
119.447;000.075;68;000.469;MIDI 01
119.564;000.037;62;000.453;MIDI 01
119.619;000.078;60;000.555;MIDI 01
119.733;000.124;72;000.602;MIDI 01
119.784;000.074;60;000.562;MIDI 01
119.798;000.118;48;000.594;MIDI 01
119.850;000.138;68;000.516;MIDI 01
120.001;000.041;75;000.570;MIDI 01
119.915;000.158;63;000.555;MIDI 01
120.117;000.075;32;000.586;MIDI 01
120.114;000.089;44;000.633;MIDI 01
120.183;000.073;42;000.062;MIDI 01
120.268;000.086;60;000.477;MIDI 01
120.393;000.106;65;000.508;MIDI 01
120.516;000.052;60;000.438;MIDI 01
120.399;000.239;39;000.641;MIDI 01
120.391;000.279;51;000.695;MIDI 01
120.568;000.133;72;000.523;MIDI 01
120.668;000.125;66;000.531;MIDI 01
120.750;000.058;62;000.602;MIDI 01
120.849;000.046;74;000.594;MIDI 01
120.930;000.042;63;000.578;MIDI 01
120.979;000.043;74;000.344;MIDI 01
120.940;000.089;51;000.562;MIDI 01
120.952;000.155;72;000.570;MIDI 01
121.123;000.031;79;000.609;MIDI 01
121.022;000.190;67;000.570;MIDI 01
121.269;000.057;36;000.578;MIDI 01
121.271;000.071;48;000.609;MIDI 01
121.479;000.043;63;000.414;MIDI 01
121.570;000.047;60;000.430;MIDI 01
121.693;000.035;66;000.398;MIDI 01
121.761;000.085;72;000.500;MIDI 01
121.854;000.075;67;000.508;MIDI 01
121.597;000.376;56;000.609;MIDI 01
121.604;000.385;44;000.555;MIDI 01
121.957;000.042;62;000.312;MIDI 01
121.999;000.126;74;000.516;MIDI 01
122.096;000.046;57;000.516;MIDI 01
122.109;000.084;45;000.469;MIDI 01
122.111;000.092;63;000.516;MIDI 01
122.190;000.094;71;000.469;MIDI 01
122.305;000.036;75;000.469;MIDI 01
122.359;000.036;51;000.555;MIDI 01
122.386;000.044;39;000.352;MIDI 01
122.383;000.084;67;000.484;MIDI 01
122.485;000.035;74;000.461;MIDI 01
122.550;000.106;79;000.508;MIDI 01
122.636;000.046;47;000.562;MIDI 01
122.630;000.069;59;000.609;MIDI 01
122.744;000.071;68;000.477;MIDI 01
122.649;000.182;75;000.594;MIDI 01
122.811;000.090;80;000.586;MIDI 01
122.909;000.067;62;000.625;MIDI 01
122.915;000.122;50;000.602;MIDI 01
122.923;000.131;71;000.531;MIDI 01
123.000;000.081;66;000.578;MIDI 01
123.110;000.096;78;000.539;MIDI 01
123.183;000.075;45;000.648;MIDI 01
123.181;000.110;57;000.641;MIDI 01
123.196;000.118;72;000.586;MIDI 01
123.340;000.022;79;000.570;MIDI 01
123.265;000.158;67;000.469;MIDI 01
123.464;000.114;59;000.641;MIDI 01
123.469;000.122;66;000.547;MIDI 01
123.467;000.152;47;000.672;MIDI 01
123.597;000.034;60;000.359;MIDI 01
123.607;000.036;62;000.320;MIDI 01
123.652;000.108;74;000.625;MIDI 01
123.744;000.123;71;000.516;MIDI 01
123.752;000.129;55;000.633;MIDI 01
123.756;000.129;43;000.594;MIDI 01
123.834;000.091;63;000.477;MIDI 01
123.910;000.022;75;000.516;MIDI 01
123.936;000.051;46;000.188;MIDI 01
124.023;000.072;56;000.672;MIDI 01
124.058;000.082;59;000.492;MIDI 01
124.035;000.170;44;000.562;MIDI 01
124.115;000.109;63;000.477;MIDI 01
124.219;000.114;71;000.562;MIDI 01
124.326;000.124;68;000.477;MIDI 01
124.378;000.088;60;000.508;MIDI 01
124.473;000.035;72;000.578;MIDI 01
124.330;000.218;51;000.633;MIDI 01
124.340;000.305;39;000.562;MIDI 01
124.672;000.053;55;000.516;MIDI 01
124.600;000.173;60;000.508;MIDI 01
124.787;000.107;67;000.500;MIDI 01
124.850;000.071;47;000.469;MIDI 01
124.856;000.122;35;000.469;MIDI 01
124.983;000.039;64;000.414;MIDI 01
125.046;000.029;68;000.391;MIDI 01
124.875;000.256;56;000.578;MIDI 01
125.167;000.169;44;000.469;MIDI 01
125.176;000.182;32;000.438;MIDI 01
125.306;000.077;51;000.438;MIDI 01
125.186;000.211;59;000.500;MIDI 01
125.421;000.047;63;000.367;MIDI 01
125.492;000.052;43;000.344;MIDI 01
125.468;000.112;55;000.445;MIDI 01
125.479;000.125;31;000.414;MIDI 01
125.588;000.083;53;000.461;MIDI 01
125.700;000.064;59;000.414;MIDI 01
125.785;000.040;29;000.312;MIDI 01
125.780;000.067;41;000.453;MIDI 01
125.770;000.138;56;000.531;MIDI 01
125.876;000.034;48;000.414;MIDI 01
125.948;000.037;60;000.508;MIDI 01
126.065;000.111;61;000.586;MIDI 01
126.060;000.122;36;000.531;MIDI 01
126.055;000.182;48;000.406;MIDI 01
126.209;000.077;68;000.531;MIDI 01
126.318;000.034;62;000.586;MIDI 01
126.389;000.044;60;000.523;MIDI 01
126.498;000.082;74;000.594;MIDI 01
126.503;000.091;72;000.570;MIDI 01
126.544;000.062;60;000.609;MIDI 01
126.586;000.084;68;000.539;MIDI 01
126.552;000.141;48;000.602;MIDI 01
126.733;000.021;75;000.555;MIDI 01
126.651;000.115;63;000.586;MIDI 01
126.834;000.036;54;000.711;MIDI 01
126.858;000.032;62;000.578;MIDI 01
126.866;000.031;44;000.453;MIDI 01
126.850;000.052;42;000.609;MIDI 01
126.941;000.044;60;000.383;MIDI 01
127.013;000.064;72;000.555;MIDI 01
127.134;000.054;47;000.586;MIDI 01
127.132;000.098;63;000.523;MIDI 01
127.139;000.102;35;000.570;MIDI 01
127.223;000.086;56;000.523;MIDI 01
127.315;000.055;68;000.438;MIDI 01
127.417;000.046;42;000.578;MIDI 01
127.448;000.055;30;000.453;MIDI 01
127.405;000.178;59;000.445;MIDI 01
127.479;000.107;56;000.492;MIDI 01
127.588;000.103;62;000.414;MIDI 01
127.710;000.056;24;000.367;MIDI 01
127.713;000.056;36;000.469;MIDI 01
127.689;000.140;60;000.461;MIDI 01
127.876;000.032;63;000.359;MIDI 01
127.791;000.126;55;000.336;MIDI 01
128.010;000.045;29;000.359;MIDI 01
127.997;000.076;41;000.555;MIDI 01
128.004;000.153;56;000.430;MIDI 01
128.119;000.044;48;000.297;MIDI 01
128.177;000.048;60;000.477;MIDI 01
128.293;000.129;61;000.578;MIDI 01
128.306;000.126;36;000.602;MIDI 01
128.300;000.169;48;000.578;MIDI 01
128.451;000.080;68;000.555;MIDI 01
128.556;000.054;62;000.547;MIDI 01
128.622;000.059;60;000.547;MIDI 01
128.720;000.106;72;000.625;MIDI 01
128.796;000.061;60;000.586;MIDI 01
128.800;000.129;48;000.562;MIDI 01
128.830;000.101;68;000.570;MIDI 01
128.984;000.023;75;000.531;MIDI 01
128.897;000.115;63;000.555;MIDI 01
129.096;000.048;54;000.609;MIDI 01
129.126;000.033;62;000.555;MIDI 01
129.108;000.068;42;000.523;MIDI 01
129.188;000.055;60;000.414;MIDI 01
129.284;000.043;72;000.508;MIDI 01
129.303;000.037;51;000.617;MIDI 01
129.311;000.038;39;000.594;MIDI 01
129.392;000.073;63;000.523;MIDI 01
129.484;000.031;47;000.570;MIDI 01
129.485;000.041;35;000.586;MIDI 01
129.488;000.064;56;000.547;MIDI 01
129.580;000.041;68;000.281;MIDI 01
129.651;000.043;42;000.633;MIDI 01
129.672;000.053;30;000.500;MIDI 01
129.722;000.091;56;000.469;MIDI 01
129.640;000.180;59;000.461;MIDI 01
129.831;000.039;39;000.586;MIDI 01
129.833;000.040;27;000.586;MIDI 01
129.828;000.107;62;000.453;MIDI 01
130.019;000.042;24;000.531;MIDI 01
130.023;000.047;36;000.523;MIDI 01
129.923;000.157;60;000.461;MIDI 01
130.122;000.058;63;000.422;MIDI 01
130.047;000.144;55;000.312;MIDI 01
130.311;000.049;29;000.328;MIDI 01
130.304;000.069;41;000.430;MIDI 01
130.400;000.041;48;000.359;MIDI 01
130.294;000.156;56;000.391;MIDI 01
130.518;000.033;60;000.445;MIDI 01
130.629;000.121;61;000.477;MIDI 01
130.789;000.071;68;000.469;MIDI 01
130.908;000.042;62;000.430;MIDI 01
130.907;000.053;56;000.461;MIDI 01
130.659;000.343;48;000.438;MIDI 01
130.975;000.088;60;000.523;MIDI 01
131.093;000.097;72;000.539;MIDI 01
131.173;000.052;42;000.602;MIDI 01
131.224;000.056;30;000.180;MIDI 01
131.195;000.159;70;000.508;MIDI 01
131.332;000.040;63;000.375;MIDI 01
131.359;000.109;75;000.555;MIDI 01
131.553;000.052;64;000.539;MIDI 01
131.474;000.146;71;000.516;MIDI 01
131.655;000.046;76;000.547;MIDI 01
131.742;000.039;58;000.516;MIDI 01
131.482;000.347;48;000.500;MIDI 01
131.761;000.129;76;000.570;MIDI 01
131.940;000.034;84;000.555;MIDI 01
131.849;000.156;72;000.484;MIDI 01
132.041;000.060;32;000.547;MIDI 01
132.039;000.084;44;000.578;MIDI 01
132.095;000.060;42;000.141;MIDI 01
132.245;000.049;60;000.375;MIDI 01
132.329;000.089;65;000.539;MIDI 01
132.441;000.049;60;000.523;MIDI 01
132.503;000.100;72;000.531;MIDI 01
132.608;000.039;60;000.562;MIDI 01
132.339;000.376;51;000.562;MIDI 01
132.617;000.117;66;000.414;MIDI 01
132.683;000.071;63;000.523;MIDI 01
132.779;000.070;75;000.578;MIDI 01
132.863;000.039;45;000.641;MIDI 01
132.905;000.002;33;000.250;MIDI 01
132.885;000.039;35;000.438;MIDI 01
132.876;000.105;73;000.547;MIDI 01
132.938;000.048;67;000.469;MIDI 01
133.067;000.041;79;000.430;MIDI 01
133.076;000.033;77;000.344;MIDI 01
133.127;000.095;75;000.602;MIDI 01
133.214;000.078;72;000.547;MIDI 01
133.279;000.110;84;000.625;MIDI 01
133.378;000.069;63;000.609;MIDI 01
133.107;000.398;54;000.617;MIDI 01
133.370;000.141;77;000.578;MIDI 01
133.551;000.071;85;000.625;MIDI 01
133.463;000.196;73;000.602;MIDI 01
133.666;000.033;34;000.617;MIDI 01
133.655;000.057;46;000.695;MIDI 01
133.854;000.098;61;000.586;MIDI 01
133.956;000.172;66;000.578;MIDI 01
134.078;000.084;61;000.641;MIDI 01
134.173;000.109;73;000.594;MIDI 01
134.247;000.041;61;000.625;MIDI 01
134.270;000.031;68;000.531;MIDI 01
133.966;000.367;53;000.570;MIDI 01
134.323;000.032;67;000.508;MIDI 01
134.351;000.130;65;000.570;MIDI 01
134.455;000.061;77;000.641;MIDI 01
134.514;000.030;35;000.609;MIDI 01
134.503;000.055;47;000.719;MIDI 01
134.565;000.002;36;000.289;MIDI 01
134.627;000.050;62;000.633;MIDI 01
134.568;000.135;68;000.578;MIDI 01
134.752;000.024;76;000.469;MIDI 01
134.761;000.032;74;000.352;MIDI 01
134.906;000.025;67;000.477;MIDI 01
134.829;000.111;76;000.648;MIDI 01
134.994;000.021;81;000.594;MIDI 01
134.992;000.031;79;000.500;MIDI 01
135.048;000.047;65;000.617;MIDI 01
134.784;000.366;55;000.625;MIDI 01
135.073;000.150;80;000.648;MIDI 01
135.223;000.062;86;000.695;MIDI 01
135.121;000.203;74;000.617;MIDI 01
135.340;000.032;36;000.609;MIDI 01
135.328;000.051;48;000.727;MIDI 01
135.364;000.035;38;000.477;MIDI 01
135.523;000.083;65;000.594;MIDI 01
135.628;000.175;71;000.586;MIDI 01
135.718;000.116;61;000.352;MIDI 01
135.750;000.104;65;000.625;MIDI 01
135.935;000.037;68;000.680;MIDI 01
135.841;000.134;77;000.633;MIDI 01
135.658;000.381;56;000.703;MIDI 01
135.947;000.197;72;000.617;MIDI 01
136.027;000.129;65;000.617;MIDI 01
136.221;000.029;37;000.695;MIDI 01
136.211;000.054;49;000.789;MIDI 01
136.139;000.144;77;000.641;MIDI 01
136.266;000.153;76;000.672;MIDI 01
136.367;000.086;67;000.586;MIDI 01
136.457;000.147;79;000.625;MIDI 01
136.693;000.119;68;000.648;MIDI 01
136.571;000.256;77;000.602;MIDI 01
136.795;000.083;80;000.695;MIDI 01
136.922;000.083;71;000.758;MIDI 01
136.540;000.628;59;000.680;MIDI 01
137.416;000.002;79;000.297;MIDI 01
137.368;000.102;89;000.781;MIDI 01
137.104;000.429;77;000.703;MIDI 01
137.652;000.105;38;000.672;MIDI 01
137.655;000.138;50;000.734;MIDI 01
137.798;000.146;65;000.594;MIDI 01
137.929;000.051;68;000.578;MIDI 01
138.023;000.054;56;000.750;MIDI 01
138.027;000.060;44;000.727;MIDI 01
138.025;000.097;77;000.609;MIDI 01
138.155;000.060;68;000.570;MIDI 01
138.273;000.174;80;000.617;MIDI 01
138.376;000.075;71;000.633;MIDI 01
138.377;000.126;68;000.602;MIDI 01
138.374;000.150;59;000.633;MIDI 01
138.499;000.125;76;000.562;MIDI 01
138.583;000.101;80;000.539;MIDI 01
138.684;000.066;65;000.656;MIDI 01
138.668;000.097;75;000.453;MIDI 01
138.756;000.037;71;000.555;MIDI 01
138.693;000.114;53;000.617;MIDI 01
138.841;000.104;83;000.609;MIDI 01
138.956;000.074;59;000.695;MIDI 01
138.926;000.141;73;000.594;MIDI 01
138.958;000.128;47;000.680;MIDI 01
139.017;000.107;80;000.633;MIDI 01
139.132;000.122;85;000.633;MIDI 01
139.236;000.053;56;000.711;MIDI 01
139.242;000.073;44;000.758;MIDI 01
139.322;000.067;74;000.594;MIDI 01
139.244;000.147;82;000.641;MIDI 01
139.408;000.056;86;000.703;MIDI 01
139.523;000.050;47;000.719;MIDI 01
139.549;000.028;33;000.625;MIDI 01
139.534;000.077;35;000.672;MIDI 01
139.510;000.189;89;000.664;MIDI 01
139.621;000.136;80;000.539;MIDI 01
139.765;000.034;90;000.336;MIDI 01
139.721;000.102;92;000.648;MIDI 01
139.819;000.117;37;000.719;MIDI 01
139.821;000.146;25;000.711;MIDI 01
139.826;000.172;88;000.672;MIDI 01
140.018;000.050;91;000.648;MIDI 01
139.935;000.159;79;000.609;MIDI 01
140.134;000.041;26;000.680;MIDI 01
140.129;000.072;38;000.719;MIDI 01
140.144;000.157;85;000.664;MIDI 01
140.238;000.090;76;000.648;MIDI 01
140.348;000.065;88;000.641;MIDI 01
140.403;000.048;32;000.695;MIDI 01
140.397;000.055;44;000.742;MIDI 01
140.445;000.106;83;000.641;MIDI 01
140.511;000.101;74;000.664;MIDI 01
140.633;000.041;86;000.297;MIDI 01
140.756;000.002;40;000.062;MIDI 01
140.680;000.126;38;000.688;MIDI 01
140.689;000.134;50;000.609;MIDI 01
140.685;000.149;52;000.688;MIDI 01
140.706;000.166;79;000.664;MIDI 01
140.830;000.101;70;000.586;MIDI 01
140.918;000.117;82;000.625;MIDI 01
141.039;000.028;40;000.570;MIDI 01
141.029;000.093;41;000.578;MIDI 01
141.018;000.175;53;000.734;MIDI 01
141.134;000.142;68;000.648;MIDI 01
141.034;000.243;74;000.602;MIDI 01
141.334;000.086;43;000.586;MIDI 01
141.264;000.259;80;000.633;MIDI 01
141.500;000.118;78;000.195;MIDI 01
141.491;000.211;59;000.664;MIDI 01
141.496;000.214;68;000.617;MIDI 01
141.592;000.158;74;000.570;MIDI 01
141.702;000.181;80;000.602;MIDI 01
141.812;000.240;75;000.633;MIDI 01
141.835;000.243;60;000.672;MIDI 01
141.386;000.779;51;000.672;MIDI 01
141.954;000.214;67;000.578;MIDI 01
142.067;000.195;79;000.641;MIDI 01
142.196;000.256;74;000.578;MIDI 01
142.186;000.297;77;000.539;MIDI 01
142.314;000.267;67;000.609;MIDI 01
142.520;000.101;31;000.594;MIDI 01
142.432;000.224;79;000.594;MIDI 01
142.591;000.209;72;000.531;MIDI 01
142.569;000.249;75;000.578;MIDI 01
142.722;000.149;67;000.578;MIDI 01
142.832;000.154;79;000.594;MIDI 01
142.968;000.090;71;000.508;MIDI 01
142.966;000.133;75;000.578;MIDI 01
143.051;000.103;67;000.469;MIDI 01
143.120;000.093;79;000.594;MIDI 01
143.246;000.040;76;000.367;MIDI 01
142.940;000.356;49;000.578;MIDI 01
143.258;000.100;70;000.555;MIDI 01
143.220;000.145;74;000.586;MIDI 01
143.355;000.069;66;000.539;MIDI 01
143.233;000.254;50;000.578;MIDI 01
143.398;000.134;78;000.602;MIDI 01
143.516;000.154;73;000.555;MIDI 01
143.518;000.154;69;000.492;MIDI 01
143.596;000.115;65;000.539;MIDI 01
143.692;000.130;77;000.594;MIDI 01
143.514;000.344;53;000.602;MIDI 01
143.816;000.074;70;000.172;MIDI 01
143.833;000.098;68;000.508;MIDI 01
143.900;000.116;64;000.539;MIDI 01
143.826;000.260;71;000.531;MIDI 01
144.020;000.161;76;000.523;MIDI 01
144.151;000.201;68;000.469;MIDI 01
144.273;000.165;63;000.492;MIDI 01
143.785;000.746;56;000.594;MIDI 01
144.411;000.132;75;000.477;MIDI 01
144.149;000.401;59;000.516;MIDI 01
144.523;000.168;67;000.469;MIDI 01
144.627;000.095;63;000.438;MIDI 01
144.540;000.263;60;000.359;MIDI 01
144.742;000.062;75;000.461;MIDI 01
144.544;000.285;55;000.367;MIDI 01
144.143;000.734;51;000.453;MIDI 01
144.924;000.202;74;000.461;MIDI 01
144.941;000.206;77;000.336;MIDI 01
145.039;000.208;67;000.438;MIDI 01
145.243;000.081;31;000.461;MIDI 01
145.158;000.185;79;000.531;MIDI 01
145.302;000.126;72;000.453;MIDI 01
145.307;000.150;75;000.453;MIDI 01
145.409;000.104;67;000.484;MIDI 01
145.489;000.143;79;000.586;MIDI 01
145.593;000.098;71;000.484;MIDI 01
145.596;000.135;75;000.586;MIDI 01
145.691;000.089;67;000.508;MIDI 01
145.755;000.102;79;000.602;MIDI 01
145.617;000.336;49;000.523;MIDI 01
145.871;000.108;70;000.516;MIDI 01
145.853;000.143;74;000.555;MIDI 01
145.983;000.053;66;000.508;MIDI 01
145.901;000.217;50;000.477;MIDI 01
146.033;000.140;78;000.586;MIDI 01
146.155;000.143;69;000.516;MIDI 01
146.149;000.175;73;000.539;MIDI 01
146.243;000.100;65;000.445;MIDI 01
146.347;000.096;77;000.508;MIDI 01
146.166;000.356;53;000.492;MIDI 01
146.460;000.126;68;000.508;MIDI 01
146.550;000.126;64;000.477;MIDI 01
146.648;000.178;76;000.539;MIDI 01
146.458;000.444;71;000.516;MIDI 01
146.818;000.276;68;000.523;MIDI 01
146.972;000.197;63;000.430;MIDI 01
146.442;000.789;56;000.500;MIDI 01
146.811;000.424;59;000.391;MIDI 01
147.132;000.145;75;000.422;MIDI 01
147.402;000.125;63;000.352;MIDI 01
147.264;000.277;67;000.406;MIDI 01
147.598;000.043;75;000.328;MIDI 01
147.251;000.396;60;000.258;MIDI 01
147.258;000.448;55;000.273;MIDI 01
146.806;000.948;51;000.352;MIDI 01
147.891;000.183;74;000.383;MIDI 01
147.892;000.232;77;000.359;MIDI 01
148.048;000.247;67;000.336;MIDI 01
148.172;000.158;79;000.430;MIDI 01
148.357;000.199;72;000.266;MIDI 01
148.355;000.217;75;000.352;MIDI 01
148.463;000.194;67;000.391;MIDI 01
148.556;000.149;79;000.500;MIDI 01
148.709;000.091;71;000.367;MIDI 01
148.704;000.117;75;000.469;MIDI 01
148.796;000.100;67;000.445;MIDI 01
148.863;000.093;79;000.555;MIDI 01
148.976;000.035;59;000.477;MIDI 01
148.973;000.062;71;000.430;MIDI 01
148.695;000.343;53;000.320;MIDI 01
148.984;000.115;74;000.484;MIDI 01
149.086;000.032;66;000.422;MIDI 01
148.291;000.864;43;000.312;MIDI 01
149.170;000.152;80;000.562;MIDI 01
149.305;000.101;74;000.406;MIDI 01
149.303;000.142;78;000.484;MIDI 01
149.414;000.086;68;000.430;MIDI 01
149.300;000.216;31;000.422;MIDI 01
149.476;000.126;80;000.562;MIDI 01
149.580;000.037;43;000.453;MIDI 01
149.596;000.108;73;000.484;MIDI 01
149.598;000.144;77;000.500;MIDI 01
149.693;000.165;68;000.516;MIDI 01
149.771;000.132;80;000.562;MIDI 01
149.874;000.165;73;000.516;MIDI 01
149.875;000.168;77;000.617;MIDI 01
150.005;000.104;68;000.570;MIDI 01
150.129;000.042;60;000.531;MIDI 01
150.050;000.126;80;000.633;MIDI 01
149.877;000.334;52;000.594;MIDI 01
150.211;000.040;72;000.492;MIDI 01
150.260;000.029;67;000.500;MIDI 01
150.180;000.117;76;000.555;MIDI 01
150.348;000.113;81;000.633;MIDI 01
150.436;000.133;75;000.625;MIDI 01
150.414;000.162;79;000.586;MIDI 01
150.552;000.110;70;000.586;MIDI 01
150.416;000.290;31;000.633;MIDI 01
150.491;000.225;38;000.211;MIDI 01
150.721;000.056;43;000.594;MIDI 01
150.633;000.146;82;000.570;MIDI 01
150.751;000.115;74;000.539;MIDI 01
150.741;000.141;78;000.586;MIDI 01
150.839;000.148;70;000.602;MIDI 01
150.903;000.147;82;000.602;MIDI 01
151.020;000.114;74;000.578;MIDI 01
151.004;000.156;78;000.633;MIDI 01
151.118;000.085;70;000.656;MIDI 01
151.258;000.049;78;000.586;MIDI 01
151.168;000.145;82;000.609;MIDI 01
151.283;000.054;61;000.664;MIDI 01
151.042;000.347;51;000.586;MIDI 01
151.285;000.108;73;000.516;MIDI 01
151.374;000.051;69;000.617;MIDI 01
151.311;000.116;77;000.594;MIDI 01
151.561;000.044;33;000.453;MIDI 01
151.484;000.124;83;000.641;MIDI 01
151.556;000.148;77;000.695;MIDI 01
151.558;000.178;81;000.625;MIDI 01
151.665;000.107;72;000.625;MIDI 01
151.528;000.291;31;000.664;MIDI 01
151.841;000.050;43;000.734;MIDI 01
151.758;000.151;84;000.641;MIDI 01
151.860;000.130;76;000.602;MIDI 01
151.857;000.137;80;000.609;MIDI 01
151.951;000.103;72;000.617;MIDI 01
152.018;000.135;84;000.602;MIDI 01
152.115;000.118;76;000.625;MIDI 01
152.120;000.142;80;000.695;MIDI 01
152.216;000.085;72;000.562;MIDI 01
152.280;000.136;85;000.664;MIDI 01
152.382;000.051;62;000.727;MIDI 01
152.117;000.380;50;000.672;MIDI 01
152.396;000.109;78;000.602;MIDI 01
152.464;000.073;77;000.516;MIDI 01
152.511;000.045;71;000.617;MIDI 01
152.404;000.166;80;000.656;MIDI 01
152.603;000.198;86;000.688;MIDI 01
152.716;000.166;81;000.664;MIDI 01
152.718;000.176;85;000.703;MIDI 01
152.850;000.089;74;000.656;MIDI 01
152.908;000.060;38;000.188;MIDI 01
152.692;000.323;31;000.695;MIDI 01
153.022;000.054;43;000.695;MIDI 01
152.955;000.159;86;000.664;MIDI 01
153.052;000.137;84;000.570;MIDI 01
153.060;000.172;80;000.570;MIDI 01
153.169;000.080;74;000.633;MIDI 01
153.273;000.126;86;000.648;MIDI 01
153.408;000.085;74;000.594;MIDI 01
153.364;000.160;50;000.555;MIDI 01
153.387;000.152;80;000.578;MIDI 01
153.391;000.213;84;000.531;MIDI 01
153.531;000.091;43;000.602;MIDI 01
153.539;000.119;86;000.609;MIDI 01
153.636;000.097;53;000.594;MIDI 01
153.666;000.073;77;000.609;MIDI 01
153.657;000.126;83;000.578;MIDI 01
153.787;000.048;89;000.656;MIDI 01
153.783;000.139;47;000.531;MIDI 01
153.790;000.142;48;000.523;MIDI 01
153.922;000.076;74;000.672;MIDI 01
153.912;000.122;56;000.656;MIDI 01
153.926;000.156;82;000.633;MIDI 01
154.039;000.104;50;000.609;MIDI 01
154.071;000.099;86;000.602;MIDI 01
154.165;000.062;59;000.664;MIDI 01
154.179;000.071;77;000.617;MIDI 01
154.167;000.105;81;000.664;MIDI 01
154.283;000.037;89;000.664;MIDI 01
154.297;000.129;53;000.648;MIDI 01
154.416;000.070;74;000.648;MIDI 01
154.408;000.117;62;000.688;MIDI 01
154.418;000.120;80;000.664;MIDI 01
154.546;000.101;86;000.688;MIDI 01
154.534;000.125;56;000.664;MIDI 01
154.646;000.069;65;000.633;MIDI 01
154.656;000.072;77;000.641;MIDI 01
154.643;000.102;81;000.688;MIDI 01
154.756;000.055;89;000.719;MIDI 01
154.774;000.180;59;000.672;MIDI 01
154.899;000.081;74;000.695;MIDI 01
154.903;000.146;82;000.695;MIDI 01
154.897;000.157;68;000.703;MIDI 01
155.047;000.137;86;000.688;MIDI 01
155.182;000.062;77;000.672;MIDI 01
155.175;000.105;83;000.695;MIDI 01
155.179;000.152;71;000.695;MIDI 01
155.304;000.058;89;000.758;MIDI 01
155.014;000.398;62;000.656;MIDI 01
155.540;000.053;72;000.742;MIDI 01
155.322;000.321;65;000.672;MIDI 01
155.545;000.102;68;000.695;MIDI 01
155.550;000.236;86;000.758;MIDI 01
155.548;000.248;74;000.805;MIDI 01
155.552;000.270;80;000.742;MIDI 01
155.554;000.297;84;000.711;MIDI 01
155.951;000.104;74;000.648;MIDI 01
155.948;000.119;86;000.688;MIDI 01
155.955;000.139;80;000.672;MIDI 01
155.959;000.141;84;000.594;MIDI 01
156.062;000.042;31;000.680;MIDI 01
156.054;000.071;43;000.750;MIDI 01
156.091;000.043;33;000.523;MIDI 01
156.221;000.099;74;000.648;MIDI 01
156.224;000.098;86;000.672;MIDI 01
156.278;000.050;76;000.180;MIDI 01
156.222;000.125;80;000.711;MIDI 01
156.232;000.122;84;000.648;MIDI 01
156.438;000.079;60;000.703;MIDI 01
156.435;000.083;53;000.641;MIDI 01
156.449;000.090;74;000.719;MIDI 01
156.458;000.082;86;000.695;MIDI 01
156.445;000.099;56;000.641;MIDI 01
156.456;000.104;80;000.719;MIDI 01
156.467;000.102;84;000.602;MIDI 01
156.660;000.097;74;000.719;MIDI 01
156.664;000.096;86;000.711;MIDI 01
156.668;000.111;80;000.648;MIDI 01
156.673;000.110;84;000.555;MIDI 01
156.755;000.071;62;000.695;MIDI 01
156.757;000.093;65;000.766;MIDI 01
156.968;000.060;83;000.234;MIDI 01
156.889;000.148;86;000.727;MIDI 01
156.886;000.154;74;000.742;MIDI 01
156.892;000.186;80;000.719;MIDI 01
156.897;000.188;84;000.633;MIDI 01
157.131;000.113;72;000.789;MIDI 01
157.136;000.156;68;000.664;MIDI 01
157.158;000.140;66;000.258;MIDI 01
157.173;000.133;74;000.711;MIDI 01
157.175;000.142;86;000.719;MIDI 01
157.143;000.188;65;000.695;MIDI 01
157.179;000.158;80;000.664;MIDI 01
157.182;000.172;84;000.609;MIDI 01
157.502;000.076;74;000.609;MIDI 01
157.496;000.095;72;000.578;MIDI 01
157.506;000.092;60;000.492;MIDI 01
157.510;000.093;86;000.531;MIDI 01
157.500;000.120;80;000.594;MIDI 01
157.504;000.128;65;000.523;MIDI 01
157.508;000.126;68;000.531;MIDI 01
157.512;000.124;84;000.594;MIDI 01
157.741;000.076;74;000.625;MIDI 01
157.752;000.071;60;000.555;MIDI 01
157.745;000.080;72;000.609;MIDI 01
157.743;000.084;86;000.641;MIDI 01
157.750;000.091;80;000.625;MIDI 01
157.762;000.092;84;000.562;MIDI 01
157.760;000.099;65;000.586;MIDI 01
157.757;000.104;68;000.586;MIDI 01
157.810;000.053;64;000.203;MIDI 01
157.982;000.030;60;000.398;MIDI 01
157.946;000.071;74;000.664;MIDI 01
157.953;000.069;86;000.617;MIDI 01
157.956;000.073;72;000.641;MIDI 01
157.951;000.083;80;000.648;MIDI 01
157.958;000.086;84;000.555;MIDI 01
158.012;000.043;64;000.258;MIDI 01
157.971;000.093;65;000.508;MIDI 01
157.970;000.097;68;000.531;MIDI 01
158.141;000.064;74;000.680;MIDI 01
158.145;000.061;86;000.617;MIDI 01
158.146;000.072;72;000.625;MIDI 01
158.143;000.085;80;000.672;MIDI 01
158.139;000.092;60;000.508;MIDI 01
158.190;000.043;64;000.312;MIDI 01
158.148;000.086;84;000.539;MIDI 01
158.165;000.074;65;000.453;MIDI 01
158.155;000.086;68;000.523;MIDI 01
158.325;000.046;60;000.547;MIDI 01
158.320;000.070;72;000.617;MIDI 01
158.323;000.076;86;000.633;MIDI 01
158.318;000.084;74;000.656;MIDI 01
158.329;000.077;65;000.523;MIDI 01
158.321;000.104;84;000.586;MIDI 01
158.327;000.100;68;000.562;MIDI 01
158.315;000.115;80;000.680;MIDI 01
158.506;000.084;59;000.578;MIDI 01
158.492;000.101;71;000.688;MIDI 01
158.515;000.088;74;000.656;MIDI 01
158.512;000.092;86;000.695;MIDI 01
158.510;000.099;79;000.648;MIDI 01
158.500;000.119;67;000.602;MIDI 01
158.504;000.117;64;000.602;MIDI 01
158.508;000.118;83;000.656;MIDI 01
158.725;000.060;59;000.570;MIDI 01
158.713;000.075;71;000.641;MIDI 01
158.710;000.079;86;000.711;MIDI 01
158.717;000.076;74;000.672;MIDI 01
158.721;000.076;79;000.609;MIDI 01
158.719;000.088;83;000.570;MIDI 01
158.727;000.086;67;000.578;MIDI 01
158.730;000.084;64;000.594;MIDI 01
158.910;000.041;59;000.508;MIDI 01
158.895;000.067;71;000.664;MIDI 01
158.902;000.064;74;000.688;MIDI 01
158.900;000.068;86;000.711;MIDI 01
158.898;000.072;67;000.555;MIDI 01
158.906;000.066;79;000.617;MIDI 01
158.908;000.069;83;000.547;MIDI 01
158.904;000.075;64;000.562;MIDI 01
159.062;000.062;59;000.570;MIDI 01
159.070;000.057;79;000.602;MIDI 01
159.074;000.055;83;000.570;MIDI 01
159.060;000.071;71;000.648;MIDI 01
159.068;000.069;74;000.664;MIDI 01
159.067;000.077;67;000.609;MIDI 01
159.072;000.075;64;000.578;MIDI 01
159.065;000.084;86;000.695;MIDI 01
159.248;000.053;59;000.602;MIDI 01
159.238;000.066;71;000.680;MIDI 01
159.246;000.059;79;000.680;MIDI 01
159.240;000.069;86;000.688;MIDI 01
159.243;000.068;67;000.609;MIDI 01
159.244;000.069;74;000.664;MIDI 01
159.252;000.062;64;000.562;MIDI 01
159.250;000.067;83;000.609;MIDI 01
159.400;000.044;59;000.633;MIDI 01
159.395;000.062;71;000.672;MIDI 01
159.407;000.073;67;000.625;MIDI 01
159.403;000.080;64;000.625;MIDI 01
159.411;000.074;79;000.703;MIDI 01
159.414;000.076;74;000.695;MIDI 01
159.416;000.076;83;000.625;MIDI 01
159.409;000.083;86;000.734;MIDI 01
159.627;000.035;84;000.289;MIDI 01
159.578;000.088;58;000.641;MIDI 01
159.589;000.084;74;000.727;MIDI 01
159.571;000.105;70;000.758;MIDI 01
159.584;000.094;86;000.703;MIDI 01
159.582;000.106;78;000.734;MIDI 01
159.593;000.103;82;000.688;MIDI 01
159.580;000.118;66;000.664;MIDI 01
159.591;000.109;63;000.594;MIDI 01
159.802;000.023;84;000.500;MIDI 01
159.781;000.086;74;000.742;MIDI 01
159.779;000.091;86;000.742;MIDI 01
159.777;000.096;70;000.742;MIDI 01
159.790;000.094;58;000.625;MIDI 01
159.783;000.107;78;000.680;MIDI 01
159.785;000.115;82;000.625;MIDI 01
159.799;000.107;63;000.539;MIDI 01
159.792;000.117;66;000.594;MIDI 01
159.986;000.093;86;000.766;MIDI 01
159.984;000.099;74;000.734;MIDI 01
159.991;000.100;70;000.750;MIDI 01
160.004;000.090;58;000.578;MIDI 01
159.989;000.122;78;000.688;MIDI 01
159.994;000.131;66;000.609;MIDI 01
159.993;000.134;82;000.648;MIDI 01
160.014;000.116;63;000.531;MIDI 01
160.219;000.101;70;000.727;MIDI 01
160.226;000.108;58;000.648;MIDI 01
160.216;000.121;74;000.750;MIDI 01
160.214;000.125;86;000.750;MIDI 01
160.233;000.127;66;000.578;MIDI 01
160.240;000.143;63;000.586;MIDI 01
160.220;000.166;78;000.688;MIDI 01
160.222;000.173;82;000.672;MIDI 01
160.529;000.025;84;000.477;MIDI 01
160.494;000.102;70;000.758;MIDI 01
160.498;000.101;58;000.641;MIDI 01
160.500;000.122;74;000.758;MIDI 01
160.506;000.124;66;000.664;MIDI 01
160.511;000.126;63;000.641;MIDI 01
160.504;000.135;78;000.750;MIDI 01
160.496;000.147;86;000.758;MIDI 01
160.502;000.154;82;000.648;MIDI 01
160.850;000.058;70;000.758;MIDI 01
160.857;000.069;86;000.789;MIDI 01
160.867;000.100;66;000.695;MIDI 01
160.861;000.115;82;000.773;MIDI 01
160.864;000.116;74;000.773;MIDI 01
160.859;000.130;78;000.758;MIDI 01
160.866;000.127;63;000.648;MIDI 01
160.855;000.149;58;000.680;MIDI 01
161.517;000.002;35;000.430;MIDI 01
161.468;000.079;24;000.781;MIDI 01
161.515;000.034;63;000.422;MIDI 01
161.476;000.096;54;000.750;MIDI 01
161.466;000.113;36;000.875;MIDI 01
161.559;000.062;27;000.070;MIDI 01
161.600;000.046;28;000.031;MIDI 01
161.472;000.179;58;000.719;MIDI 01
161.478;000.176;62;000.688;MIDI 01
161.474;000.232;66;000.742;MIDI 01
162.009;000.024;72;000.484;MIDI 01
162.011;000.051;74;000.508;MIDI 01
161.979;000.109;51;000.656;MIDI 01
162.005;000.093;78;000.625;MIDI 01
161.970;000.145;43;000.539;MIDI 01
162.119;000.047;54;000.727;MIDI 01
162.133;000.107;86;000.633;MIDI 01
162.126;000.161;82;000.633;MIDI 01
162.285;000.067;74;000.539;MIDI 01
162.275;000.091;78;000.602;MIDI 01
162.407;000.089;86;000.586;MIDI 01
162.410;000.111;82;000.602;MIDI 01
162.517;000.066;78;000.609;MIDI 01
162.521;000.071;74;000.570;MIDI 01
162.418;000.228;58;000.617;MIDI 01
162.518;000.156;63;000.609;MIDI 01
162.618;000.089;86;000.617;MIDI 01
162.606;000.127;82;000.570;MIDI 01
162.633;000.105;66;000.625;MIDI 01
162.702;000.057;70;000.695;MIDI 01
162.726;000.039;78;000.586;MIDI 01
162.724;000.065;74;000.664;MIDI 01
162.826;000.039;72;000.750;MIDI 01
162.880;000.028;66;000.289;MIDI 01
162.841;000.071;68;000.633;MIDI 01
162.886;000.033;82;000.398;MIDI 01
162.832;000.100;63;000.703;MIDI 01
162.840;000.142;84;000.703;MIDI 01
162.836;000.179;80;000.750;MIDI 01
163.115;000.030;84;000.664;MIDI 01
163.108;000.091;80;000.727;MIDI 01
163.010;000.200;75;000.602;MIDI 01
163.001;000.218;72;000.672;MIDI 01
163.329;000.048;24;000.656;MIDI 01
163.332;000.061;36;000.758;MIDI 01
163.370;000.044;54;000.812;MIDI 01
163.391;000.041;57;000.586;MIDI 01
163.399;000.044;63;000.414;MIDI 01
163.403;000.046;61;000.492;MIDI 01
163.382;000.086;58;000.523;MIDI 01
163.384;000.085;62;000.633;MIDI 01
163.373;000.105;66;000.719;MIDI 01
163.728;000.067;74;000.656;MIDI 01
163.692;000.120;43;000.570;MIDI 01
163.734;000.079;78;000.648;MIDI 01
163.698;000.124;51;000.477;MIDI 01
163.826;000.044;54;000.719;MIDI 01
163.850;000.118;86;000.648;MIDI 01
163.848;000.158;82;000.633;MIDI 01
163.999;000.079;74;000.562;MIDI 01
163.993;000.088;78;000.594;MIDI 01
164.122;000.104;86;000.562;MIDI 01
164.128;000.109;82;000.594;MIDI 01
164.231;000.073;78;000.586;MIDI 01
164.233;000.073;74;000.570;MIDI 01
164.226;000.131;63;000.594;MIDI 01
164.124;000.234;58;000.594;MIDI 01
164.327;000.082;86;000.578;MIDI 01
164.323;000.121;82;000.570;MIDI 01
164.345;000.100;66;000.586;MIDI 01
164.415;000.052;70;000.648;MIDI 01
164.443;000.036;78;000.562;MIDI 01
164.434;000.065;74;000.625;MIDI 01
164.543;000.026;72;000.664;MIDI 01
164.553;000.062;68;000.641;MIDI 01
164.550;000.082;63;000.664;MIDI 01
164.556;000.131;84;000.641;MIDI 01
164.551;000.164;80;000.703;MIDI 01
164.670;000.160;72;000.148;MIDI 01
164.698;000.141;75;000.680;MIDI 01
164.839;000.143;84;000.555;MIDI 01
164.815;000.169;80;000.641;MIDI 01
164.935;000.071;36;000.633;MIDI 01
164.939;000.069;43;000.648;MIDI 01
164.968;000.156;72;000.680;MIDI 01
164.966;000.250;75;000.688;MIDI 01
165.190;000.096;43;000.602;MIDI 01
165.192;000.165;51;000.648;MIDI 01
165.381;000.109;82;000.547;MIDI 01
165.356;000.139;55;000.609;MIDI 01
165.373;000.124;79;000.594;MIDI 01
165.506;000.072;70;000.570;MIDI 01
165.503;000.094;75;000.562;MIDI 01
165.496;000.139;56;000.594;MIDI 01
165.630;000.052;82;000.508;MIDI 01
165.620;000.086;79;000.523;MIDI 01
165.616;000.100;58;000.586;MIDI 01
165.724;000.042;75;000.562;MIDI 01
165.741;000.027;59;000.477;MIDI 01
165.720;000.050;70;000.594;MIDI 01
165.722;000.074;60;000.555;MIDI 01
165.857;000.033;63;000.539;MIDI 01
165.801;000.094;82;000.539;MIDI 01
165.807;000.095;79;000.531;MIDI 01
165.895;000.047;75;000.500;MIDI 01
165.900;000.060;70;000.672;MIDI 01
165.929;000.051;67;000.219;MIDI 01
165.940;000.057;65;000.148;MIDI 01
166.001;000.029;68;000.625;MIDI 01
166.003;000.052;60;000.547;MIDI 01
166.034;000.031;66;000.367;MIDI 01
166.020;000.091;80;000.648;MIDI 01
166.039;000.106;75;000.594;MIDI 01
166.114;000.123;68;000.375;MIDI 01
166.130;000.127;72;000.625;MIDI 01
166.343;000.033;36;000.617;MIDI 01
166.226;000.174;75;000.562;MIDI 01
166.345;000.059;44;000.672;MIDI 01
166.228;000.231;80;000.617;MIDI 01
166.348;000.129;72;000.625;MIDI 01
166.355;000.174;68;000.672;MIDI 01
166.552;000.144;44;000.633;MIDI 01
166.717;000.080;79;000.602;MIDI 01
166.709;000.110;75;000.570;MIDI 01
166.690;000.136;51;000.633;MIDI 01
166.820;000.072;54;000.578;MIDI 01
166.826;000.071;67;000.555;MIDI 01
166.818;000.097;71;000.562;MIDI 01
166.897;000.068;55;000.602;MIDI 01
166.935;000.077;79;000.586;MIDI 01
166.930;000.086;75;000.547;MIDI 01
167.043;000.033;67;000.531;MIDI 01
167.006;000.104;56;000.594;MIDI 01
167.028;000.084;71;000.578;MIDI 01
167.072;000.047;59;000.453;MIDI 01
167.091;000.033;60;000.398;MIDI 01
167.158;000.029;60;000.453;MIDI 01
167.119;000.085;79;000.586;MIDI 01
167.124;000.094;75;000.578;MIDI 01
167.201;000.078;67;000.609;MIDI 01
167.283;000.027;66;000.688;MIDI 01
167.211;000.103;71;000.602;MIDI 01
167.300;000.042;56;000.523;MIDI 01
167.310;000.046;62;000.266;MIDI 01
167.304;000.092;78;000.664;MIDI 01
167.315;000.107;74;000.602;MIDI 01
167.449;000.055;71;000.391;MIDI 01
167.422;000.110;66;000.578;MIDI 01
167.503;000.044;78;000.641;MIDI 01
167.508;000.043;71;000.281;MIDI 01
167.526;000.035;74;000.578;MIDI 01
167.613;000.043;36;000.750;MIDI 01
167.623;000.034;24;000.664;MIDI 01
167.664;000.037;73;000.344;MIDI 01
167.651;000.056;72;000.648;MIDI 01
167.639;000.072;75;000.719;MIDI 01
167.643;000.071;63;000.703;MIDI 01
167.842;000.033;51;000.602;MIDI 01
167.893;000.045;50;000.242;MIDI 01
167.935;000.037;54;000.656;MIDI 01
167.923;000.094;74;000.602;MIDI 01
167.924;000.111;70;000.586;MIDI 01
167.985;000.061;41;000.047;MIDI 01
168.040;000.052;62;000.586;MIDI 01
168.033;000.085;66;000.633;MIDI 01
168.156;000.069;74;000.578;MIDI 01
168.150;000.098;70;000.547;MIDI 01
168.135;000.117;58;000.688;MIDI 01
168.233;000.071;62;000.805;MIDI 01
168.249;000.083;54;000.680;MIDI 01
168.247;000.095;66;000.609;MIDI 01
168.355;000.052;74;000.594;MIDI 01
168.340;000.084;70;000.602;MIDI 01
168.453;000.048;62;000.602;MIDI 01
168.479;000.024;66;000.344;MIDI 01
168.553;000.082;72;000.617;MIDI 01
168.549;000.109;68;000.633;MIDI 01
168.669;000.024;60;000.539;MIDI 01
168.657;000.070;63;000.648;MIDI 01
168.744;000.106;68;000.547;MIDI 01
168.794;000.060;36;000.516;MIDI 01
168.762;000.107;72;000.570;MIDI 01
168.823;000.054;43;000.578;MIDI 01
168.843;000.060;63;000.609;MIDI 01
168.830;000.085;60;000.555;MIDI 01
168.898;000.035;48;000.672;MIDI 01
169.042;000.046;52;000.617;MIDI 01
169.132;000.031;54;000.594;MIDI 01
169.115;000.091;74;000.508;MIDI 01
169.118;000.096;70;000.531;MIDI 01
169.200;000.076;62;000.617;MIDI 01
169.214;000.083;66;000.602;MIDI 01
169.294;000.039;60;000.492;MIDI 01
169.236;000.126;58;000.578;MIDI 01
169.311;000.085;74;000.586;MIDI 01
169.301;000.110;70;000.602;MIDI 01
169.386;000.078;62;000.773;MIDI 01
169.401;000.071;66;000.648;MIDI 01
169.458;000.061;60;000.164;MIDI 01
169.491;000.049;74;000.570;MIDI 01
169.480;000.075;70;000.570;MIDI 01
169.594;000.029;62;000.562;MIDI 01
169.681;000.073;72;000.594;MIDI 01
169.686;000.099;68;000.586;MIDI 01
169.785;000.036;60;000.547;MIDI 01
169.774;000.070;63;000.633;MIDI 01
169.880;000.087;72;000.547;MIDI 01
169.872;000.098;68;000.531;MIDI 01
169.963;000.049;36;000.523;MIDI 01
169.956;000.087;60;000.562;MIDI 01
169.969;000.098;63;000.602;MIDI 01
169.965;000.145;43;000.609;MIDI 01
170.140;000.108;44;000.672;MIDI 01
170.236;000.065;51;000.719;MIDI 01
170.248;000.099;70;000.531;MIDI 01
170.255;000.099;67;000.555;MIDI 01
170.343;000.070;60;000.578;MIDI 01
170.358;000.093;63;000.562;MIDI 01
170.444;000.106;70;000.562;MIDI 01
170.451;000.105;67;000.523;MIDI 01
170.425;000.139;55;000.625;MIDI 01
170.527;000.067;58;000.727;MIDI 01
170.556;000.049;60;000.562;MIDI 01
170.554;000.083;63;000.570;MIDI 01
170.625;000.098;70;000.562;MIDI 01
170.674;000.053;67;000.445;MIDI 01
170.754;000.044;60;000.492;MIDI 01
170.743;000.092;63;000.578;MIDI 01
170.834;000.093;68;000.594;MIDI 01
170.859;000.086;65;000.477;MIDI 01
170.968;000.035;60;000.344;MIDI 01
170.944;000.082;63;000.555;MIDI 01
171.037;000.096;68;000.516;MIDI 01
171.064;000.073;36;000.500;MIDI 01
171.056;000.084;65;000.273;MIDI 01
171.114;000.057;60;000.523;MIDI 01
171.126;000.048;63;000.477;MIDI 01
171.086;000.104;43;000.547;MIDI 01
171.183;000.070;44;000.586;MIDI 01
171.271;000.037;48;000.570;MIDI 01
171.395;000.047;67;000.516;MIDI 01
171.384;000.081;50;000.578;MIDI 01
171.390;000.083;63;000.539;MIDI 01
171.484;000.067;59;000.531;MIDI 01
171.495;000.065;54;000.570;MIDI 01
171.591;000.061;67;000.547;MIDI 01
171.595;000.061;63;000.500;MIDI 01
171.601;000.116;55;000.570;MIDI 01
171.684;000.067;59;000.609;MIDI 01
171.690;000.124;56;000.617;MIDI 01
171.780;000.077;63;000.539;MIDI 01
171.790;000.105;67;000.578;MIDI 01
171.887;000.068;59;000.609;MIDI 01
171.972;000.037;62;000.445;MIDI 01
172.003;000.074;66;000.547;MIDI 01
172.092;000.093;59;000.531;MIDI 01
172.159;000.046;62;000.289;MIDI 01
172.205;000.035;66;000.289;MIDI 01
172.261;000.045;48;000.547;MIDI 01
172.397;000.068;55;000.422;MIDI 01
172.290;000.198;60;000.562;MIDI 01
172.488;000.118;63;000.539;MIDI 01
172.546;000.061;29;000.523;MIDI 01
172.555;000.106;41;000.547;MIDI 01
172.567;000.178;59;000.516;MIDI 01
172.650;000.114;56;000.562;MIDI 01
172.741;000.119;62;000.539;MIDI 01
172.845;000.059;48;000.539;MIDI 01
172.934;000.092;55;000.500;MIDI 01
172.850;000.188;60;000.492;MIDI 01
173.031;000.132;63;000.516;MIDI 01
173.132;000.050;28;000.531;MIDI 01
173.139;000.089;40;000.516;MIDI 01
173.123;000.180;59;000.469;MIDI 01
173.208;000.099;56;000.547;MIDI 01
173.295;000.115;62;000.484;MIDI 01
173.426;000.049;48;000.508;MIDI 01
173.493;000.092;55;000.461;MIDI 01
173.416;000.202;60;000.453;MIDI 01
173.602;000.133;63;000.453;MIDI 01
173.733;000.043;27;000.352;MIDI 01
173.717;000.061;39;000.508;MIDI 01
173.789;000.084;56;000.469;MIDI 01
173.699;000.176;59;000.422;MIDI 01
173.899;000.089;62;000.414;MIDI 01
174.025;000.050;48;000.500;MIDI 01
174.113;000.108;55;000.352;MIDI 01
174.001;000.251;60;000.438;MIDI 01
174.218;000.178;63;000.383;MIDI 01
174.328;000.078;26;000.406;MIDI 01
174.356;000.110;38;000.297;MIDI 01
174.471;000.122;54;000.359;MIDI 01
174.334;000.303;59;000.398;MIDI 01
174.606;000.122;62;000.391;MIDI 01
174.761;000.142;48;000.336;MIDI 01
174.759;000.310;60;000.328;MIDI 01
174.911;000.224;55;000.219;MIDI 01
175.092;000.303;63;000.273;MIDI 01
175.431;000.141;60;000.344;MIDI 01
175.620;000.103;56;000.289;MIDI 01
175.710;000.090;65;000.367;MIDI 01
175.445;000.384;24;000.383;MIDI 01
175.794;000.066;60;000.344;MIDI 01
175.447;000.460;36;000.352;MIDI 01
175.911;000.085;55;000.422;MIDI 01
176.039;000.060;64;000.367;MIDI 01
176.115;000.147;60;000.406;MIDI 01
176.238;000.079;54;000.336;MIDI 01
176.300;000.107;63;000.422;MIDI 01
176.105;000.384;26;000.453;MIDI 01
176.099;000.425;38;000.469;MIDI 01
176.415;000.116;59;000.438;MIDI 01
176.508;000.089;55;000.445;MIDI 01
176.597;000.123;62;000.461;MIDI 01
176.713;000.123;58;000.477;MIDI 01
176.805;000.121;55;000.336;MIDI 01
176.881;000.148;61;000.453;MIDI 01
176.973;000.129;57;000.484;MIDI 01
176.699;000.405;28;000.555;MIDI 01
176.701;000.451;40;000.547;MIDI 01
177.088;000.093;48;000.508;MIDI 01
177.229;000.126;60;000.461;MIDI 01
177.307;000.104;29;000.461;MIDI 01
177.305;000.148;41;000.516;MIDI 01
177.425;000.096;50;000.445;MIDI 01
177.300;000.223;56;000.453;MIDI 01
177.553;000.128;60;000.430;MIDI 01
177.630;000.143;55;000.422;MIDI 01
177.666;000.136;46;000.461;MIDI 01
177.675;000.173;34;000.445;MIDI 01
177.750;000.100;51;000.383;MIDI 01
177.845;000.084;60;000.445;MIDI 01
177.956;000.095;54;000.430;MIDI 01
178.048;000.051;50;000.367;MIDI 01
178.129;000.101;59;000.438;MIDI 01
177.933;000.425;44;000.547;MIDI 01
178.311;000.049;49;000.430;MIDI 01
178.230;000.132;53;000.383;MIDI 01
177.947;000.418;32;000.516;MIDI 01
178.410;000.081;60;000.492;MIDI 01
178.234;000.307;37;000.484;MIDI 01
178.551;000.076;53;000.406;MIDI 01
178.623;000.073;50;000.328;MIDI 01
178.703;000.101;59;000.445;MIDI 01
178.527;000.356;43;000.383;MIDI 01
178.530;000.371;31;000.398;MIDI 01
178.795;000.135;52;000.453;MIDI 01
178.905;000.116;48;000.312;MIDI 01
178.978;000.099;58;000.430;MIDI 01
179.126;000.057;51;000.383;MIDI 01
179.195;000.095;48;000.375;MIDI 01
179.306;000.079;57;000.359;MIDI 01
179.111;000.392;30;000.414;MIDI 01
179.399;000.110;51;000.352;MIDI 01
179.103;000.425;42;000.422;MIDI 01
179.523;000.080;47;000.258;MIDI 01
179.589;000.092;57;000.398;MIDI 01
179.380;000.326;35;000.414;MIDI 01
179.710;000.140;50;000.336;MIDI 01
179.846;000.081;47;000.023;MIDI 01
179.887;000.138;56;000.406;MIDI 01
180.029;000.116;50;000.391;MIDI 01
179.714;000.446;29;000.336;MIDI 01
179.717;000.456;41;000.328;MIDI 01
180.144;000.200;47;000.328;MIDI 01
180.361;000.045;48;000.352;MIDI 01
180.375;000.035;44;000.500;MIDI 01
180.222;000.193;55;000.438;MIDI 01
180.390;000.042;32;000.422;MIDI 01
180.378;000.072;51;000.398;MIDI 01
180.841;000.052;37;000.383;MIDI 01
180.846;000.056;25;000.352;MIDI 01
180.866;000.044;49;000.234;MIDI 01
180.829;000.082;44;000.375;MIDI 01
180.843;000.083;53;000.359;MIDI 01
181.255;000.039;46;000.281;MIDI 01
181.225;000.078;49;000.297;MIDI 01
181.268;000.046;34;000.336;MIDI 01
181.231;000.083;55;000.344;MIDI 01
181.258;000.060;52;000.336;MIDI 01
181.611;000.042;38;000.398;MIDI 01
181.608;000.048;53;000.328;MIDI 01
181.615;000.053;48;000.359;MIDI 01
181.613;000.058;26;000.266;MIDI 01
181.598;000.098;56;000.438;MIDI 01
181.961;000.039;51;000.336;MIDI 01
181.964;000.039;48;000.344;MIDI 01
181.943;000.065;57;000.422;MIDI 01
181.970;000.058;36;000.297;MIDI 01
181.950;000.095;54;000.445;MIDI 01
182.275;000.036;28;000.383;MIDI 01
182.273;000.052;55;000.398;MIDI 01
182.295;000.037;40;000.453;MIDI 01
182.266;000.070;49;000.438;MIDI 01
182.259;000.104;58;000.477;MIDI 01
182.586;000.034;50;000.438;MIDI 01
182.598;000.035;53;000.336;MIDI 01
182.591;000.073;38;000.492;MIDI 01
182.576;000.100;59;000.531;MIDI 01
182.593;000.090;56;000.500;MIDI 01
182.873;000.041;29;000.414;MIDI 01
182.881;000.042;57;000.430;MIDI 01
182.877;000.054;41;000.531;MIDI 01
182.875;000.070;51;000.523;MIDI 01
182.867;000.108;60;000.570;MIDI 01
183.153;000.034;53;000.477;MIDI 01
183.160;000.069;41;000.516;MIDI 01
183.167;000.068;56;000.508;MIDI 01
183.157;000.097;62;000.547;MIDI 01
183.176;000.096;59;000.508;MIDI 01
183.428;000.036;30;000.492;MIDI 01
183.419;000.050;42;000.633;MIDI 01
183.438;000.086;57;000.500;MIDI 01
183.435;000.098;60;000.531;MIDI 01
183.423;000.141;63;000.594;MIDI 01
183.714;000.039;56;000.461;MIDI 01
183.720;000.064;53;000.477;MIDI 01
183.744;000.041;44;000.312;MIDI 01
183.716;000.107;59;000.430;MIDI 01
183.711;000.114;65;000.469;MIDI 01
183.718;000.115;62;000.469;MIDI 01
183.959;000.054;53;000.469;MIDI 01
183.995;000.048;62;000.383;MIDI 01
183.981;000.069;55;000.461;MIDI 01
183.975;000.077;67;000.492;MIDI 01
183.964;000.101;41;000.516;MIDI 01
184.218;000.050;49;000.578;MIDI 01
184.206;000.065;61;000.445;MIDI 01
184.236;000.055;37;000.484;MIDI 01
184.211;000.096;56;000.484;MIDI 01
184.208;000.100;65;000.523;MIDI 01
184.202;000.113;68;000.516;MIDI 01
184.432;000.058;47;000.570;MIDI 01
184.430;000.069;69;000.602;MIDI 01
184.440;000.066;57;000.484;MIDI 01
184.434;000.086;35;000.578;MIDI 01
184.453;000.070;62;000.414;MIDI 01
184.428;000.116;66;000.562;MIDI 01
184.632;000.069;44;000.672;MIDI 01
184.666;000.042;34;000.430;MIDI 01
184.655;000.060;32;000.523;MIDI 01
184.640;000.083;58;000.547;MIDI 01
184.630;000.100;70;000.617;MIDI 01
184.628;000.107;67;000.594;MIDI 01
184.634;000.134;62;000.555;MIDI 01
184.830;000.035;29;000.609;MIDI 01
184.826;000.055;41;000.672;MIDI 01
184.823;000.072;62;000.531;MIDI 01
184.834;000.093;59;000.672;MIDI 01
184.836;000.100;71;000.656;MIDI 01
184.841;000.106;68;000.594;MIDI 01
185.066;000.048;58;000.648;MIDI 01
185.111;000.002;71;000.273;MIDI 01
185.054;000.067;64;000.625;MIDI 01
185.057;000.071;72;000.570;MIDI 01
185.075;000.061;46;000.586;MIDI 01
185.061;000.081;60;000.555;MIDI 01
185.070;000.081;69;000.547;MIDI 01
185.252;000.057;54;000.609;MIDI 01
185.286;000.036;42;000.422;MIDI 01
185.284;000.041;44;000.383;MIDI 01
185.269;000.073;61;000.578;MIDI 01
185.264;000.088;73;000.578;MIDI 01
185.268;000.085;66;000.578;MIDI 01
185.277;000.078;70;000.484;MIDI 01
185.432;000.069;52;000.648;MIDI 01
185.444;000.059;74;000.625;MIDI 01
185.441;000.068;40;000.609;MIDI 01
185.449;000.061;62;000.547;MIDI 01
185.451;000.090;67;000.539;MIDI 01
185.438;000.107;71;000.602;MIDI 01
185.633;000.042;49;000.695;MIDI 01
185.645;000.047;37;000.609;MIDI 01
185.631;000.073;75;000.578;MIDI 01
185.627;000.084;63;000.648;MIDI 01
185.621;000.095;72;000.625;MIDI 01
185.629;000.091;67;000.500;MIDI 01
185.805;000.030;34;000.625;MIDI 01
185.792;000.046;46;000.734;MIDI 01
185.794;000.073;67;000.594;MIDI 01
185.800;000.086;64;000.688;MIDI 01
185.798;000.097;76;000.711;MIDI 01
185.797;000.105;73;000.648;MIDI 01
186.025;000.035;77;000.617;MIDI 01
186.018;000.045;63;000.680;MIDI 01
186.028;000.036;69;000.609;MIDI 01
186.035;000.030;51;000.562;MIDI 01
186.023;000.045;65;000.617;MIDI 01
186.037;000.037;74;000.539;MIDI 01
186.179;000.046;60;000.703;MIDI 01
186.193;000.040;48;000.633;MIDI 01
186.199;000.036;66;000.594;MIDI 01
186.196;000.048;78;000.617;MIDI 01
186.214;000.044;75;000.500;MIDI 01
186.194;000.093;70;000.664;MIDI 01
186.339;000.025;79;000.633;MIDI 01
186.345;000.026;71;000.438;MIDI 01
186.343;000.035;44;000.734;MIDI 01
186.357;000.023;54;000.594;MIDI 01
186.323;000.061;67;000.734;MIDI 01
186.331;000.056;76;000.688;MIDI 01
186.336;000.053;56;000.695;MIDI 01
186.442;000.049;78;000.828;MIDI 01
186.456;000.066;53;000.758;MIDI 01
186.460;000.070;41;000.719;MIDI 01
186.508;000.024;44;000.219;MIDI 01
186.499;000.050;43;000.367;MIDI 01
186.453;000.098;80;000.766;MIDI 01
186.458;000.095;49;000.758;MIDI 01
186.464;000.100;77;000.641;MIDI 01
186.451;000.120;68;000.797;MIDI 01
186.455;000.124;73;000.766;MIDI 01
186.959;000.080;54;000.758;MIDI 01
186.964;000.091;72;000.750;MIDI 01
186.966;000.102;48;000.703;MIDI 01
186.961;000.118;60;000.734;MIDI 01
186.954;000.136;42;000.711;MIDI 01
186.957;000.135;69;000.695;MIDI 01
186.955;000.159;63;000.734;MIDI 01
187.058;000.060;44;000.195;MIDI 01
187.589;000.070;43;000.758;MIDI 01
187.597;000.084;38;000.680;MIDI 01
187.634;000.053;34;000.352;MIDI 01
187.586;000.104;31;000.742;MIDI 01
187.591;000.120;53;000.789;MIDI 01
187.584;000.171;55;000.742;MIDI 01
187.581;000.195;59;000.781;MIDI 01
188.632;000.077;48;000.914;MIDI 01
188.635;000.092;24;000.719;MIDI 01
188.637;000.110;36;000.781;MIDI 01
189.593;000.033;43;000.578;MIDI 01
189.595;000.054;48;000.594;MIDI 01
189.586;000.068;55;000.664;MIDI 01
189.597;000.075;51;000.602;MIDI 01
189.589;000.085;79;000.641;MIDI 01
189.576;000.100;87;000.773;MIDI 01
189.584;000.106;75;000.680;MIDI 01
189.816;000.060;63;000.727;MIDI 01
189.819;000.072;51;000.656;MIDI 01
189.811;003.333;72;000.719;MIDI 01
189.809;003.379;84;000.750;MIDI 01
