Start;Duration;Pitch;Velocity;Instrument
001.183;000.026;29;000.562;MIDI 01
001.176;000.056;41;000.672;MIDI 01
001.723;000.050;55;000.609;MIDI 01
001.743;000.033;67;000.609;MIDI 01
001.738;000.043;64;000.555;MIDI 01
001.420;000.362;89;000.688;MIDI 01
001.730;000.056;61;000.609;MIDI 01
001.573;000.258;88;000.688;MIDI 01
001.732;000.177;87;000.711;MIDI 01
001.868;000.094;85;000.664;MIDI 01
001.986;000.028;82;000.586;MIDI 01
002.111;000.071;79;000.586;MIDI 01
002.207;000.076;77;000.586;MIDI 01
002.288;000.024;76;000.609;MIDI 01
002.390;000.129;75;000.578;MIDI 01
002.473;000.115;73;000.555;MIDI 01
002.564;000.034;70;000.586;MIDI 01
002.628;000.080;67;000.516;MIDI 01
002.721;000.058;65;000.492;MIDI 01
002.774;000.025;64;000.578;MIDI 01
002.885;000.185;63;000.547;MIDI 01
002.982;000.158;61;000.539;MIDI 01
003.061;000.098;58;000.555;MIDI 01
003.141;000.042;55;000.586;MIDI 01
003.300;000.345;50;000.656;MIDI 01
003.306;000.346;41;000.648;MIDI 01
003.310;000.414;34;000.656;MIDI 01
003.298;000.431;62;000.586;MIDI 01
003.304;000.452;58;000.570;MIDI 01
003.302;000.480;53;000.633;MIDI 01
004.412;000.277;50;000.633;MIDI 01
004.418;000.311;41;000.688;MIDI 01
004.405;000.384;62;000.656;MIDI 01
004.415;000.386;58;000.625;MIDI 01
004.420;000.383;53;000.633;MIDI 01
004.425;000.459;34;000.648;MIDI 01
005.452;000.045;50;000.469;MIDI 01
005.456;000.048;53;000.430;MIDI 01
005.450;000.057;62;000.492;MIDI 01
005.452;000.059;58;000.508;MIDI 01
005.458;000.060;34;000.461;MIDI 01
005.450;000.072;41;000.523;MIDI 01
005.608;000.058;50;000.492;MIDI 01
005.622;000.047;34;000.516;MIDI 01
005.610;000.060;58;000.477;MIDI 01
005.618;000.055;41;000.570;MIDI 01
005.606;000.069;62;000.531;MIDI 01
005.620;000.057;53;000.453;MIDI 01
005.755;000.093;50;000.586;MIDI 01
005.763;000.093;34;000.602;MIDI 01
005.757;000.105;62;000.547;MIDI 01
005.757;000.107;53;000.617;MIDI 01
005.752;000.115;41;000.672;MIDI 01
005.768;000.115;58;000.570;MIDI 01
006.090;000.116;50;000.609;MIDI 01
006.100;000.135;41;000.672;MIDI 01
006.081;000.160;62;000.633;MIDI 01
006.094;000.154;53;000.641;MIDI 01
006.106;000.166;34;000.625;MIDI 01
006.102;000.172;58;000.633;MIDI 01
006.848;000.032;50;000.500;MIDI 01
006.850;000.042;53;000.492;MIDI 01
006.852;000.042;62;000.453;MIDI 01
006.866;000.030;58;000.453;MIDI 01
006.862;000.036;34;000.508;MIDI 01
006.853;000.055;41;000.562;MIDI 01
006.993;000.050;50;000.438;MIDI 01
007.001;000.045;62;000.523;MIDI 01
006.999;000.053;58;000.508;MIDI 01
007.010;000.044;34;000.523;MIDI 01
007.013;000.051;41;000.523;MIDI 01
006.989;000.080;53;000.562;MIDI 01
007.242;000.002;43;000.117;MIDI 01
007.186;000.129;50;000.586;MIDI 01
007.184;000.327;41;000.602;MIDI 01
007.179;000.363;34;000.602;MIDI 01
007.181;000.364;53;000.617;MIDI 01
007.180;000.372;62;000.617;MIDI 01
007.179;000.379;58;000.562;MIDI 01
007.745;000.022;50;000.406;MIDI 01
007.739;000.030;62;000.391;MIDI 01
007.747;000.032;58;000.297;MIDI 01
007.749;000.051;34;000.336;MIDI 01
007.765;000.040;38;000.328;MIDI 01
007.909;000.056;62;000.414;MIDI 01
007.915;000.052;50;000.281;MIDI 01
007.920;000.051;40;000.445;MIDI 01
007.926;000.054;58;000.211;MIDI 01
007.966;000.047;34;000.133;MIDI 01
008.092;000.041;50;000.258;MIDI 01
008.094;000.045;38;000.312;MIDI 01
008.101;000.044;62;000.258;MIDI 01
008.116;000.045;57;000.219;MIDI 01
008.132;000.052;34;000.078;MIDI 01
008.262;000.028;50;000.398;MIDI 01
008.274;000.030;62;000.352;MIDI 01
008.265;000.050;41;000.414;MIDI 01
008.283;000.047;58;000.281;MIDI 01
008.430;000.037;62;000.383;MIDI 01
008.432;000.045;56;000.438;MIDI 01
008.417;000.062;34;000.242;MIDI 01
008.434;000.045;38;000.305;MIDI 01
008.607;000.029;58;000.438;MIDI 01
008.592;000.047;42;000.508;MIDI 01
008.578;000.062;62;000.516;MIDI 01
008.752;000.033;55;000.562;MIDI 01
008.759;000.036;62;000.539;MIDI 01
008.754;000.053;34;000.211;MIDI 01
008.739;000.079;38;000.469;MIDI 01
008.917;000.043;50;000.586;MIDI 01
008.922;000.045;34;000.477;MIDI 01
008.927;000.046;58;000.523;MIDI 01
008.897;000.079;41;000.633;MIDI 01
008.907;000.071;62;000.570;MIDI 01
009.077;000.043;62;000.414;MIDI 01
009.080;000.049;50;000.336;MIDI 01
009.061;000.074;54;000.625;MIDI 01
009.093;000.046;58;000.188;MIDI 01
009.051;000.104;38;000.578;MIDI 01
009.057;000.139;34;000.617;MIDI 01
009.227;000.047;50;000.609;MIDI 01
009.222;000.054;40;000.695;MIDI 01
009.219;000.065;62;000.648;MIDI 01
009.229;000.072;58;000.633;MIDI 01
009.280;000.054;54;000.188;MIDI 01
009.394;000.068;53;000.633;MIDI 01
009.573;000.115;49;000.695;MIDI 01
009.393;000.303;22;000.695;MIDI 01
009.632;000.064;26;000.242;MIDI 01
009.577;000.126;54;000.648;MIDI 01
009.581;000.126;34;000.727;MIDI 01
009.579;000.145;58;000.617;MIDI 01
009.575;000.172;61;000.680;MIDI 01
009.999;000.068;70;000.641;MIDI 01
010.007;000.077;42;000.469;MIDI 01
010.002;000.086;73;000.633;MIDI 01
010.089;000.066;46;000.078;MIDI 01
010.220;000.067;58;000.641;MIDI 01
010.368;000.043;49;000.469;MIDI 01
010.415;000.025;42;000.484;MIDI 01
010.176;000.292;82;000.719;MIDI 01
010.188;000.293;73;000.656;MIDI 01
010.185;000.300;78;000.664;MIDI 01
010.183;000.321;70;000.734;MIDI 01
010.582;000.103;34;000.680;MIDI 01
010.783;000.020;61;000.453;MIDI 01
010.774;000.040;70;000.594;MIDI 01
010.784;000.097;73;000.555;MIDI 01
010.735;000.222;22;000.680;MIDI 01
010.965;000.002;78;000.234;MIDI 01
010.924;000.049;34;000.773;MIDI 01
010.933;000.206;80;000.711;MIDI 01
010.916;000.262;77;000.625;MIDI 01
010.930;000.260;68;000.734;MIDI 01
011.293;000.053;58;000.656;MIDI 01
011.195;000.205;48;000.188;MIDI 01
011.422;000.042;70;000.539;MIDI 01
011.436;000.034;42;000.594;MIDI 01
011.421;000.091;73;000.609;MIDI 01
011.614;000.081;34;000.625;MIDI 01
011.622;000.173;73;000.555;MIDI 01
011.600;000.332;66;000.727;MIDI 01
011.609;000.328;78;000.688;MIDI 01
011.602;000.353;70;000.633;MIDI 01
011.611;000.347;75;000.625;MIDI 01
011.800;000.170;22;000.672;MIDI 01
011.938;000.055;34;000.727;MIDI 01
012.137;000.014;66;000.484;MIDI 01
012.120;000.090;70;000.641;MIDI 01
012.310;000.037;58;000.703;MIDI 01
012.273;000.079;66;000.555;MIDI 01
012.334;000.052;68;000.234;MIDI 01
012.463;000.041;42;000.555;MIDI 01
012.287;000.234;77;000.734;MIDI 01
012.285;000.276;65;000.688;MIDI 01
012.271;000.334;73;000.750;MIDI 01
012.275;000.341;70;000.539;MIDI 01
012.633;000.095;34;000.656;MIDI 01
012.811;000.061;66;000.609;MIDI 01
012.809;000.085;70;000.625;MIDI 01
012.812;000.189;22;000.688;MIDI 01
012.956;000.057;34;000.766;MIDI 01
012.950;000.157;75;000.719;MIDI 01
012.949;000.214;63;000.734;MIDI 01
012.950;000.250;71;000.672;MIDI 01
012.952;000.266;66;000.648;MIDI 01
013.210;000.041;42;000.453;MIDI 01
013.218;000.045;44;000.422;MIDI 01
013.338;000.071;58;000.688;MIDI 01
013.383;000.084;46;000.133;MIDI 01
013.449;000.039;66;000.547;MIDI 01
013.451;000.048;49;000.438;MIDI 01
013.447;000.066;70;000.656;MIDI 01
013.496;000.030;42;000.609;MIDI 01
013.499;000.056;58;000.039;MIDI 01
013.731;000.045;35;000.172;MIDI 01
013.657;000.179;34;000.672;MIDI 01
013.629;000.209;61;000.727;MIDI 01
013.621;000.239;66;000.516;MIDI 01
013.627;000.255;70;000.664;MIDI 01
013.857;000.049;30;000.281;MIDI 01
013.625;000.295;73;000.688;MIDI 01
013.855;000.199;22;000.672;MIDI 01
014.002;000.056;34;000.750;MIDI 01
014.105;000.055;87;000.211;MIDI 01
014.312;000.023;53;000.445;MIDI 01
014.317;000.049;77;000.688;MIDI 01
014.305;000.062;89;000.695;MIDI 01
014.309;000.072;82;000.711;MIDI 01
014.319;000.069;58;000.617;MIDI 01
014.315;000.099;62;000.641;MIDI 01
014.463;000.045;74;000.797;MIDI 01
014.449;000.068;86;000.781;MIDI 01
014.458;000.060;82;000.703;MIDI 01
014.486;000.034;80;000.430;MIDI 01
014.460;000.084;65;000.719;MIDI 01
014.507;000.042;76;000.266;MIDI 01
014.585;000.102;64;000.570;MIDI 01
014.678;000.049;63;000.648;MIDI 01
014.767;000.104;62;000.633;MIDI 01
014.877;000.127;58;000.570;MIDI 01
014.989;000.071;54;000.570;MIDI 01
015.143;000.046;58;000.625;MIDI 01
015.141;000.111;53;000.547;MIDI 01
015.139;000.118;62;000.453;MIDI 01
015.121;000.185;65;000.695;MIDI 01
015.261;000.112;52;000.492;MIDI 01
015.373;000.080;51;000.547;MIDI 01
015.490;000.087;50;000.555;MIDI 01
015.463;000.128;55;000.578;MIDI 01
015.477;000.119;52;000.508;MIDI 01
015.453;000.168;64;000.578;MIDI 01
015.619;000.105;48;000.422;MIDI 01
015.718;000.060;46;000.531;MIDI 01
015.843;000.054;51;000.359;MIDI 01
015.842;000.064;57;000.445;MIDI 01
015.831;000.076;45;000.562;MIDI 01
015.810;000.114;63;000.531;MIDI 01
015.932;000.090;43;000.508;MIDI 01
016.042;000.035;42;000.477;MIDI 01
016.165;000.049;50;000.469;MIDI 01
016.172;000.061;58;000.484;MIDI 01
016.159;000.092;62;000.539;MIDI 01
016.184;000.088;34;000.484;MIDI 01
016.174;000.161;41;000.477;MIDI 01
016.528;000.032;50;000.344;MIDI 01
016.536;000.026;58;000.359;MIDI 01
016.539;000.026;62;000.367;MIDI 01
016.552;000.047;38;000.375;MIDI 01
016.541;000.061;34;000.391;MIDI 01
016.700;000.058;58;000.359;MIDI 01
016.714;000.053;50;000.273;MIDI 01
016.709;000.059;62;000.391;MIDI 01
016.705;000.070;40;000.516;MIDI 01
016.879;000.031;50;000.414;MIDI 01
016.885;000.028;57;000.453;MIDI 01
016.883;000.052;38;000.469;MIDI 01
016.918;000.067;62;000.078;MIDI 01
016.920;000.068;34;000.203;MIDI 01
017.059;000.031;50;000.383;MIDI 01
017.057;000.057;41;000.445;MIDI 01
017.078;000.039;58;000.336;MIDI 01
017.241;000.034;56;000.438;MIDI 01
017.239;000.041;38;000.383;MIDI 01
017.248;000.047;50;000.258;MIDI 01
017.258;000.057;34;000.211;MIDI 01
017.409;000.022;50;000.438;MIDI 01
017.417;000.026;62;000.484;MIDI 01
017.407;000.047;42;000.547;MIDI 01
017.422;000.043;58;000.344;MIDI 01
017.571;000.050;62;000.477;MIDI 01
017.578;000.045;55;000.500;MIDI 01
017.567;000.067;38;000.492;MIDI 01
017.745;000.034;50;000.602;MIDI 01
017.758;000.035;58;000.547;MIDI 01
017.735;000.069;62;000.578;MIDI 01
017.718;000.089;41;000.664;MIDI 01
017.777;000.050;34;000.281;MIDI 01
017.903;000.032;50;000.383;MIDI 01
017.905;000.033;62;000.570;MIDI 01
017.865;000.085;38;000.570;MIDI 01
017.894;000.059;34;000.578;MIDI 01
017.899;000.056;54;000.648;MIDI 01
018.074;000.044;50;000.602;MIDI 01
018.078;000.043;40;000.570;MIDI 01
018.087;000.040;38;000.586;MIDI 01
018.073;000.068;58;000.609;MIDI 01
018.071;000.073;62;000.633;MIDI 01
018.247;000.100;53;000.695;MIDI 01
018.307;000.066;21;000.250;MIDI 01
018.471;000.107;49;000.750;MIDI 01
018.523;000.068;25;000.023;MIDI 01
018.235;000.378;22;000.719;MIDI 01
018.475;000.149;54;000.664;MIDI 01
018.469;000.166;34;000.711;MIDI 01
018.473;000.168;58;000.656;MIDI 01
018.461;000.199;61;000.695;MIDI 01
018.904;000.041;70;000.609;MIDI 01
018.918;000.067;42;000.516;MIDI 01
018.902;000.099;73;000.633;MIDI 01
019.109;000.065;58;000.672;MIDI 01
019.273;000.033;49;000.406;MIDI 01
019.301;000.039;42;000.484;MIDI 01
019.090;000.265;82;000.766;MIDI 01
019.094;000.292;70;000.734;MIDI 01
019.098;000.291;78;000.695;MIDI 01
019.096;000.295;73;000.695;MIDI 01
019.465;000.097;34;000.695;MIDI 01
019.639;000.030;61;000.648;MIDI 01
019.632;000.043;70;000.648;MIDI 01
019.636;000.118;73;000.672;MIDI 01
019.627;000.203;22;000.680;MIDI 01
019.800;000.053;34;000.766;MIDI 01
019.804;000.061;70;000.531;MIDI 01
019.798;000.206;80;000.742;MIDI 01
019.778;000.262;77;000.695;MIDI 01
019.793;000.259;68;000.719;MIDI 01
020.065;000.034;70;000.234;MIDI 01
020.089;000.079;48;000.195;MIDI 01
020.158;000.059;58;000.688;MIDI 01
020.305;000.031;49;000.406;MIDI 01
020.303;000.043;42;000.633;MIDI 01
020.297;000.069;70;000.523;MIDI 01
020.299;000.083;73;000.609;MIDI 01
020.482;000.111;34;000.703;MIDI 01
020.475;000.215;73;000.570;MIDI 01
020.473;000.336;66;000.695;MIDI 01
020.467;000.354;78;000.672;MIDI 01
020.471;000.367;70;000.672;MIDI 01
020.679;000.162;22;000.734;MIDI 01
020.462;000.389;75;000.648;MIDI 01
020.808;000.057;34;000.742;MIDI 01
021.017;000.030;66;000.492;MIDI 01
021.068;000.120;48;000.242;MIDI 01
021.182;000.031;68;000.562;MIDI 01
021.165;000.053;66;000.570;MIDI 01
021.182;000.042;58;000.695;MIDI 01
021.321;000.052;42;000.602;MIDI 01
021.171;000.262;77;000.734;MIDI 01
021.000;000.456;70;000.625;MIDI 01
021.173;000.294;65;000.781;MIDI 01
021.155;000.358;73;000.719;MIDI 01
021.460;000.064;70;000.039;MIDI 01
021.518;000.097;34;000.734;MIDI 01
021.703;000.051;66;000.562;MIDI 01
021.691;000.100;70;000.586;MIDI 01
021.677;000.198;22;000.672;MIDI 01
021.830;000.058;34;000.750;MIDI 01
021.847;000.183;75;000.695;MIDI 01
021.843;000.192;63;000.742;MIDI 01
021.849;000.188;66;000.617;MIDI 01
021.845;000.272;71;000.680;MIDI 01
022.096;000.030;42;000.477;MIDI 01
022.100;000.062;66;000.078;MIDI 01
022.094;000.074;44;000.500;MIDI 01
022.238;000.044;58;000.672;MIDI 01
022.346;000.035;49;000.367;MIDI 01
022.360;000.041;70;000.586;MIDI 01
022.364;000.042;66;000.461;MIDI 01
022.373;000.048;42;000.586;MIDI 01
022.543;000.188;34;000.656;MIDI 01
022.549;000.267;61;000.617;MIDI 01
022.755;000.149;22;000.609;MIDI 01
022.547;000.373;70;000.633;MIDI 01
022.892;000.030;34;000.672;MIDI 01
022.545;000.393;66;000.555;MIDI 01
022.545;000.451;73;000.664;MIDI 01
023.123;000.025;62;000.531;MIDI 01
023.129;000.136;53;000.641;MIDI 01
023.329;000.032;68;000.438;MIDI 01
023.306;000.100;72;000.648;MIDI 01
023.425;000.042;77;000.391;MIDI 01
023.480;000.053;75;000.102;MIDI 01
023.550;000.041;63;000.492;MIDI 01
023.310;000.394;65;000.695;MIDI 01
023.695;000.066;73;000.375;MIDI 01
023.757;000.140;64;000.492;MIDI 01
023.772;000.153;77;000.516;MIDI 01
023.897;000.068;63;000.516;MIDI 01
023.904;000.114;65;000.492;MIDI 01
023.995;000.118;62;000.594;MIDI 01
024.002;000.143;74;000.492;MIDI 01
024.129;000.086;60;000.484;MIDI 01
024.131;000.086;77;000.531;MIDI 01
024.216;000.081;58;000.570;MIDI 01
024.230;000.068;66;000.492;MIDI 01
024.333;000.039;57;000.578;MIDI 01
024.342;000.054;70;000.414;MIDI 01
024.358;000.100;73;000.500;MIDI 01
024.468;000.049;78;000.430;MIDI 01
024.517;000.042;55;000.664;MIDI 01
024.535;000.092;67;000.516;MIDI 01
024.578;000.137;70;000.461;MIDI 01
024.714;000.006;46;000.273;MIDI 01
024.644;000.094;74;000.547;MIDI 01
024.760;000.046;39;000.578;MIDI 01
024.751;000.090;79;000.578;MIDI 01
025.117;000.037;69;000.445;MIDI 01
025.091;000.082;65;000.586;MIDI 01
025.110;000.108;73;000.523;MIDI 01
025.251;000.114;77;000.453;MIDI 01
025.223;000.153;64;000.320;MIDI 01
025.335;000.050;65;000.164;MIDI 01
025.377;000.064;70;000.383;MIDI 01
025.442;000.067;74;000.461;MIDI 01
025.524;000.116;79;000.484;MIDI 01
025.508;000.139;58;000.438;MIDI 01
025.462;000.188;62;000.359;MIDI 01
025.656;000.041;70;000.562;MIDI 01
025.611;000.088;72;000.492;MIDI 01
025.712;000.044;74;000.547;MIDI 01
025.746;000.091;78;000.531;MIDI 01
025.797;000.117;69;000.406;MIDI 01
025.891;000.035;74;000.445;MIDI 01
025.877;000.098;68;000.375;MIDI 01
025.934;000.052;83;000.109;MIDI 01
025.966;000.046;63;000.484;MIDI 01
025.971;000.058;75;000.461;MIDI 01
026.020;000.046;79;000.508;MIDI 01
026.070;000.017;67;000.469;MIDI 01
026.195;000.054;66;000.508;MIDI 01
026.132;000.131;86;000.531;MIDI 01
026.206;000.080;62;000.258;MIDI 01
026.192;000.102;75;000.625;MIDI 01
026.294;000.081;78;000.461;MIDI 01
026.314;000.073;74;000.617;MIDI 01
026.328;000.072;81;000.562;MIDI 01
026.454;000.040;88;000.328;MIDI 01
026.519;000.072;78;000.633;MIDI 01
026.555;000.058;71;000.453;MIDI 01
026.608;000.037;70;000.633;MIDI 01
026.599;000.057;67;000.438;MIDI 01
026.618;000.050;63;000.602;MIDI 01
026.611;000.103;82;000.523;MIDI 01
026.675;000.065;85;000.391;MIDI 01
026.660;000.103;86;000.602;MIDI 01
026.861;000.089;79;000.641;MIDI 01
026.994;000.024;39;000.797;MIDI 01
026.996;000.025;27;000.711;MIDI 01
026.729;000.328;91;000.711;MIDI 01
027.045;000.052;30;000.234;MIDI 01
027.119;000.034;39;000.156;MIDI 01
027.301;000.025;79;000.586;MIDI 01
027.307;000.095;46;000.586;MIDI 01
027.308;000.100;91;000.695;MIDI 01
027.393;000.060;45;000.062;MIDI 01
027.426;000.095;82;000.773;MIDI 01
027.420;000.110;94;000.742;MIDI 01
027.441;000.099;53;000.594;MIDI 01
027.433;000.113;55;000.570;MIDI 01
027.684;000.036;80;000.375;MIDI 01
027.663;000.060;90;000.711;MIDI 01
027.745;000.026;57;000.672;MIDI 01
027.650;000.125;49;000.555;MIDI 01
027.817;000.058;91;000.211;MIDI 01
027.866;000.029;57;000.203;MIDI 01
027.766;000.154;93;000.750;MIDI 01
027.771;000.179;85;000.703;MIDI 01
027.775;000.191;81;000.734;MIDI 01
028.060;000.047;31;000.680;MIDI 01
028.057;000.089;43;000.742;MIDI 01
028.159;000.052;34;000.023;MIDI 01
028.314;000.038;82;000.578;MIDI 01
028.322;000.036;48;000.445;MIDI 01
028.303;000.062;86;000.641;MIDI 01
028.326;000.043;76;000.336;MIDI 01
028.329;000.042;50;000.383;MIDI 01
028.449;000.027;87;000.453;MIDI 01
028.436;000.042;82;000.586;MIDI 01
028.434;000.048;78;000.688;MIDI 01
028.422;000.077;90;000.742;MIDI 01
028.445;000.061;58;000.594;MIDI 01
028.666;000.041;85;000.617;MIDI 01
028.666;000.044;82;000.492;MIDI 01
028.760;000.041;61;000.750;MIDI 01
028.776;000.039;82;000.586;MIDI 01
028.657;000.188;51;000.562;MIDI 01
028.764;000.171;89;000.719;MIDI 01
028.768;000.256;77;000.695;MIDI 01
029.064;000.054;34;000.672;MIDI 01
029.066;000.061;46;000.766;MIDI 01
029.349;000.036;58;000.367;MIDI 01
029.347;000.041;57;000.336;MIDI 01
029.319;000.071;55;000.625;MIDI 01
029.334;000.058;79;000.109;MIDI 01
029.336;000.058;70;000.133;MIDI 01
029.308;000.126;82;000.531;MIDI 01
029.422;000.034;74;000.648;MIDI 01
029.429;000.036;79;000.320;MIDI 01
029.407;000.060;86;000.734;MIDI 01
029.447;000.030;63;000.672;MIDI 01
029.488;000.055;61;000.234;MIDI 01
029.663;000.025;71;000.477;MIDI 01
029.642;000.057;81;000.703;MIDI 01
029.765;000.030;66;000.672;MIDI 01
029.761;000.044;78;000.438;MIDI 01
029.655;000.165;57;000.641;MIDI 01
029.804;000.037;82;000.297;MIDI 01
029.764;000.136;85;000.711;MIDI 01
029.769;000.198;73;000.680;MIDI 01
030.062;000.042;39;000.719;MIDI 01
030.060;000.047;51;000.781;MIDI 01
030.320;000.027;69;000.477;MIDI 01
030.323;000.040;74;000.492;MIDI 01
030.423;000.052;69;000.617;MIDI 01
030.446;000.030;74;000.555;MIDI 01
030.420;000.060;70;000.758;MIDI 01
030.309;000.192;58;000.664;MIDI 01
030.414;000.105;82;000.680;MIDI 01
030.429;000.098;67;000.656;MIDI 01
030.307;000.231;79;000.586;MIDI 01
030.668;000.090;61;000.672;MIDI 01
030.703;000.073;74;000.055;MIDI 01
030.829;000.034;75;000.297;MIDI 01
030.665;000.276;78;000.609;MIDI 01
030.774;000.280;69;000.766;MIDI 01
030.776;000.320;73;000.758;MIDI 01
030.770;000.351;81;000.719;MIDI 01
031.528;000.070;70;000.641;MIDI 01
031.526;000.078;67;000.609;MIDI 01
031.517;000.118;82;000.625;MIDI 01
031.524;000.115;74;000.602;MIDI 01
031.520;000.128;62;000.586;MIDI 01
031.890;000.041;64;000.547;MIDI 01
031.881;000.072;70;000.578;MIDI 01
031.877;000.084;76;000.617;MIDI 01
031.896;000.099;61;000.508;MIDI 01
031.894;000.109;66;000.609;MIDI 01
031.892;000.133;58;000.586;MIDI 01
032.271;000.082;67;000.695;MIDI 01
032.255;000.101;82;000.664;MIDI 01
032.267;000.092;74;000.703;MIDI 01
032.269;000.126;70;000.688;MIDI 01
032.265;000.151;62;000.625;MIDI 01
032.633;000.023;63;000.680;MIDI 01
032.638;000.040;71;000.570;MIDI 01
032.635;000.077;65;000.688;MIDI 01
032.638;000.077;75;000.617;MIDI 01
032.635;000.080;56;000.609;MIDI 01
032.639;000.094;59;000.555;MIDI 01
033.024;000.073;67;000.680;MIDI 01
033.004;000.095;82;000.672;MIDI 01
033.015;000.099;70;000.750;MIDI 01
033.010;000.107;74;000.711;MIDI 01
033.013;000.120;62;000.594;MIDI 01
033.019;000.147;58;000.641;MIDI 01
033.392;000.032;61;000.602;MIDI 01
033.385;000.042;70;000.609;MIDI 01
033.374;000.055;64;000.797;MIDI 01
033.390;000.042;58;000.578;MIDI 01
033.376;000.061;54;000.656;MIDI 01
033.378;000.075;73;000.664;MIDI 01
033.779;000.048;65;000.750;MIDI 01
033.777;000.075;62;000.680;MIDI 01
033.788;000.067;77;000.641;MIDI 01
033.790;000.073;74;000.648;MIDI 01
033.773;000.094;82;000.680;MIDI 01
033.783;000.085;70;000.773;MIDI 01
033.775;000.115;58;000.680;MIDI 01
033.798;000.107;56;000.508;MIDI 01
033.771;000.147;53;000.648;MIDI 01
034.126;000.029;60;000.695;MIDI 01
034.131;000.032;55;000.672;MIDI 01
034.122;000.054;72;000.656;MIDI 01
034.181;000.053;46;000.211;MIDI 01
034.255;000.043;55;000.156;MIDI 01
034.279;000.033;54;000.383;MIDI 01
034.558;000.059;58;000.680;MIDI 01
034.622;000.002;60;000.188;MIDI 01
034.572;000.054;62;000.695;MIDI 01
034.531;000.108;53;000.438;MIDI 01
034.595;000.048;49;000.234;MIDI 01
034.560;000.096;77;000.672;MIDI 01
034.550;000.108;70;000.828;MIDI 01
034.546;000.114;82;000.672;MIDI 01
034.562;000.101;74;000.570;MIDI 01
035.163;000.039;50;000.609;MIDI 01
035.172;000.034;65;000.633;MIDI 01
035.181;000.036;52;000.477;MIDI 01
035.167;000.056;41;000.648;MIDI 01
035.165;000.062;34;000.680;MIDI 01
035.170;000.059;64;000.547;MIDI 01
035.335;000.074;52;000.602;MIDI 01
035.368;000.068;33;000.523;MIDI 01
035.332;000.139;50;000.633;MIDI 01
035.350;000.133;58;000.555;MIDI 01
035.334;000.323;34;000.656;MIDI 01
035.330;000.336;41;000.719;MIDI 01
035.328;000.357;62;000.695;MIDI 01
035.913;000.048;50;000.609;MIDI 01
035.905;000.066;65;000.688;MIDI 01
035.915;000.070;41;000.648;MIDI 01
035.910;000.077;34;000.672;MIDI 01
036.107;000.074;50;000.664;MIDI 01
036.109;000.128;58;000.656;MIDI 01
036.105;000.148;62;000.664;MIDI 01
036.099;000.310;34;000.727;MIDI 01
036.103;000.308;41;000.695;MIDI 01
036.654;000.002;63;000.227;MIDI 01
036.618;000.046;58;000.492;MIDI 01
036.616;000.051;41;000.617;MIDI 01
036.611;000.055;65;000.586;MIDI 01
036.614;000.055;34;000.578;MIDI 01
036.790;000.032;41;000.602;MIDI 01
036.796;000.030;58;000.500;MIDI 01
036.792;000.035;62;000.648;MIDI 01
036.797;000.035;34;000.648;MIDI 01
036.972;000.042;34;000.570;MIDI 01
036.996;000.031;62;000.430;MIDI 01
036.982;000.049;22;000.469;MIDI 01
037.013;000.042;50;000.297;MIDI 01
037.006;000.051;58;000.156;MIDI 01
037.143;000.041;40;000.562;MIDI 01
037.164;000.028;50;000.414;MIDI 01
037.155;000.043;28;000.484;MIDI 01
037.149;000.051;62;000.453;MIDI 01
037.183;000.031;58;000.344;MIDI 01
037.325;000.050;22;000.477;MIDI 01
037.335;000.045;57;000.359;MIDI 01
037.337;000.052;34;000.328;MIDI 01
037.359;000.055;62;000.148;MIDI 01
037.484;000.032;41;000.539;MIDI 01
037.504;000.044;29;000.352;MIDI 01
037.525;000.059;50;000.102;MIDI 01
037.670;000.027;56;000.445;MIDI 01
037.666;000.054;23;000.367;MIDI 01
037.672;000.054;25;000.312;MIDI 01
037.692;000.060;34;000.188;MIDI 01
037.798;000.040;42;000.695;MIDI 01
037.830;000.032;30;000.492;MIDI 01
037.824;000.041;58;000.461;MIDI 01
037.837;000.032;50;000.352;MIDI 01
037.823;000.049;62;000.414;MIDI 01
037.978;000.043;55;000.648;MIDI 01
037.983;000.041;22;000.570;MIDI 01
037.982;000.055;62;000.578;MIDI 01
038.028;000.054;34;000.227;MIDI 01
038.133;000.038;41;000.734;MIDI 01
038.143;000.038;29;000.586;MIDI 01
038.151;000.036;50;000.555;MIDI 01
038.161;000.037;58;000.555;MIDI 01
038.159;000.042;62;000.578;MIDI 01
038.286;000.053;41;000.023;MIDI 01
038.307;000.036;22;000.656;MIDI 01
038.328;000.018;62;000.422;MIDI 01
038.305;000.043;54;000.625;MIDI 01
038.320;000.030;34;000.625;MIDI 01
038.467;000.035;40;000.734;MIDI 01
038.483;000.029;28;000.555;MIDI 01
038.485;000.031;50;000.617;MIDI 01
038.491;000.036;58;000.562;MIDI 01
038.469;000.079;62;000.578;MIDI 01
038.513;000.045;30;000.344;MIDI 01
038.653;000.085;53;000.750;MIDI 01
038.931;000.100;49;000.695;MIDI 01
038.649;000.399;22;000.742;MIDI 01
038.933;000.117;54;000.641;MIDI 01
038.942;000.120;34;000.820;MIDI 01
038.935;000.139;58;000.656;MIDI 01
038.923;000.170;61;000.688;MIDI 01
039.351;000.051;70;000.648;MIDI 01
039.341;000.076;42;000.469;MIDI 01
039.353;000.074;73;000.688;MIDI 01
039.560;000.059;58;000.688;MIDI 01
039.727;000.032;42;000.539;MIDI 01
039.725;000.043;49;000.359;MIDI 01
039.526;000.273;82;000.734;MIDI 01
039.532;000.305;78;000.688;MIDI 01
039.530;000.316;70;000.727;MIDI 01
039.539;000.310;73;000.703;MIDI 01
039.908;000.089;34;000.703;MIDI 01
040.082;000.042;70;000.586;MIDI 01
040.080;000.080;73;000.617;MIDI 01
040.061;000.191;22;000.695;MIDI 01
040.214;000.062;34;000.797;MIDI 01
040.274;000.002;78;000.281;MIDI 01
040.217;000.061;70;000.602;MIDI 01
040.224;000.214;80;000.664;MIDI 01
040.216;000.260;77;000.656;MIDI 01
040.220;000.267;68;000.703;MIDI 01
040.501;000.049;45;000.281;MIDI 01
040.497;000.064;47;000.281;MIDI 01
040.597;000.043;58;000.680;MIDI 01
040.735;000.039;42;000.523;MIDI 01
040.742;000.044;70;000.539;MIDI 01
040.731;000.081;73;000.625;MIDI 01
040.943;000.026;73;000.430;MIDI 01
040.919;000.091;34;000.695;MIDI 01
040.913;000.327;78;000.719;MIDI 01
040.915;000.330;66;000.742;MIDI 01
040.908;000.368;75;000.648;MIDI 01
041.124;000.156;22;000.680;MIDI 01
040.906;000.376;70;000.578;MIDI 01
041.240;000.050;34;000.734;MIDI 01
041.476;000.038;66;000.359;MIDI 01
041.450;000.107;70;000.625;MIDI 01
041.610;000.039;66;000.633;MIDI 01
041.628;000.024;58;000.703;MIDI 01
041.621;000.049;65;000.688;MIDI 01
041.599;000.078;70;000.500;MIDI 01
041.561;000.121;48;000.031;MIDI 01
041.667;000.049;68;000.266;MIDI 01
041.686;000.065;48;000.023;MIDI 01
041.794;000.035;42;000.492;MIDI 01
041.614;000.258;77;000.719;MIDI 01
041.594;000.365;73;000.742;MIDI 01
041.911;000.064;70;000.188;MIDI 01
041.952;000.095;34;000.719;MIDI 01
042.149;000.082;66;000.594;MIDI 01
042.151;000.092;70;000.570;MIDI 01
042.240;000.052;58;000.016;MIDI 01
042.125;000.198;22;000.688;MIDI 01
042.296;000.051;34;000.766;MIDI 01
042.305;000.168;75;000.703;MIDI 01
042.307;000.235;63;000.711;MIDI 01
042.299;000.266;71;000.664;MIDI 01
042.303;000.282;66;000.586;MIDI 01
042.546;000.069;44;000.492;MIDI 01
042.673;000.048;58;000.656;MIDI 01
042.573;000.190;47;000.352;MIDI 01
042.786;000.036;49;000.484;MIDI 01
042.815;000.036;42;000.570;MIDI 01
042.808;000.052;66;000.531;MIDI 01
042.819;000.058;70;000.539;MIDI 01
042.850;000.028;68;000.359;MIDI 01
042.979;000.171;34;000.766;MIDI 01
042.984;000.229;61;000.688;MIDI 01
042.977;000.315;70;000.656;MIDI 01
043.176;000.118;22;000.625;MIDI 01
042.985;000.324;66;000.586;MIDI 01
043.292;000.035;34;000.531;MIDI 01
042.973;000.408;73;000.703;MIDI 01
043.460;000.053;62;000.547;MIDI 01
043.497;000.148;53;000.648;MIDI 01
043.660;000.060;68;000.391;MIDI 01
043.673;000.109;72;000.547;MIDI 01
043.779;000.044;77;000.273;MIDI 01
043.886;000.062;63;000.531;MIDI 01
043.675;000.372;65;000.727;MIDI 01
044.045;000.108;73;000.422;MIDI 01
044.129;000.124;64;000.367;MIDI 01
044.132;000.137;77;000.484;MIDI 01
044.249;000.073;63;000.484;MIDI 01
044.265;000.102;65;000.391;MIDI 01
044.367;000.099;62;000.570;MIDI 01
044.365;000.107;74;000.469;MIDI 01
044.465;000.086;77;000.484;MIDI 01
044.489;000.091;60;000.469;MIDI 01
044.574;000.070;58;000.555;MIDI 01
044.592;000.090;66;000.500;MIDI 01
044.686;000.036;59;000.414;MIDI 01
044.700;000.052;57;000.383;MIDI 01
044.695;000.061;70;000.266;MIDI 01
044.704;000.116;73;000.484;MIDI 01
044.756;000.066;57;000.297;MIDI 01
044.820;000.082;78;000.406;MIDI 01
044.870;000.038;57;000.531;MIDI 01
044.894;000.107;67;000.508;MIDI 01
044.945;000.069;55;000.094;MIDI 01
044.982;000.072;46;000.492;MIDI 01
044.954;000.102;70;000.438;MIDI 01
045.010;000.100;74;000.562;MIDI 01
045.107;000.040;39;000.570;MIDI 01
045.110;000.127;79;000.625;MIDI 01
045.325;000.041;36;000.633;MIDI 01
045.542;000.042;63;000.500;MIDI 01
045.543;000.090;55;000.656;MIDI 01
045.721;000.176;74;000.625;MIDI 01
045.715;000.198;70;000.539;MIDI 01
045.834;000.167;79;000.484;MIDI 01
045.936;000.107;65;000.547;MIDI 01
045.701;000.365;67;000.688;MIDI 01
046.065;000.107;74;000.500;MIDI 01
046.096;000.139;65;000.367;MIDI 01
046.183;000.094;79;000.492;MIDI 01
046.239;000.066;64;000.461;MIDI 01
046.281;000.036;63;000.508;MIDI 01
046.275;000.067;67;000.469;MIDI 01
046.377;000.099;75;000.508;MIDI 01
046.408;000.090;62;000.547;MIDI 01
046.416;000.094;72;000.258;MIDI 01
046.477;000.062;79;000.508;MIDI 01
046.522;000.079;61;000.539;MIDI 01
046.580;000.107;68;000.516;MIDI 01
046.638;000.069;60;000.594;MIDI 01
046.735;000.033;58;000.570;MIDI 01
046.696;000.081;75;000.484;MIDI 01
046.777;000.104;80;000.484;MIDI 01
046.866;000.040;57;000.367;MIDI 01
046.869;000.049;59;000.188;MIDI 01
046.876;000.116;69;000.500;MIDI 01
046.922;000.123;48;000.555;MIDI 01
047.028;000.044;41;000.562;MIDI 01
046.983;000.102;75;000.523;MIDI 01
047.072;000.098;81;000.578;MIDI 01
047.212;000.078;69;000.477;MIDI 01
047.289;000.068;52;000.352;MIDI 01
047.306;000.052;59;000.430;MIDI 01
047.301;000.074;65;000.625;MIDI 01
047.299;000.085;53;000.375;MIDI 01
047.285;000.116;74;000.609;MIDI 01
047.371;000.065;54;000.172;MIDI 01
047.401;000.062;81;000.594;MIDI 01
047.538;000.050;76;000.570;MIDI 01
047.303;000.306;57;000.484;MIDI 01
047.614;000.017;60;000.461;MIDI 01
047.634;000.044;66;000.570;MIDI 01
047.626;000.110;81;000.594;MIDI 01
047.778;000.036;88;000.500;MIDI 01
047.811;000.048;86;000.203;MIDI 01
047.829;000.073;55;000.461;MIDI 01
047.834;000.106;57;000.422;MIDI 01
047.874;000.110;81;000.555;MIDI 01
047.979;000.034;64;000.328;MIDI 01
047.973;000.099;86;000.570;MIDI 01
047.981;000.093;88;000.641;MIDI 01
047.967;000.127;70;000.734;MIDI 01
048.075;000.074;93;000.656;MIDI 01
047.934;000.270;62;000.602;MIDI 01
048.245;000.033;88;000.445;MIDI 01
048.222;000.062;86;000.484;MIDI 01
048.289;000.112;93;000.586;MIDI 01
048.294;000.115;71;000.602;MIDI 01
048.399;000.060;98;000.633;MIDI 01
048.442;000.103;60;000.500;MIDI 01
048.539;000.042;66;000.305;MIDI 01
048.506;000.118;93;000.602;MIDI 01
048.594;000.118;69;000.469;MIDI 01
048.596;000.171;98;000.688;MIDI 01
048.727;000.068;105;000.664;MIDI 01
048.624;000.172;75;000.719;MIDI 01
048.841;000.029;93;000.516;MIDI 01
048.575;000.318;67;000.477;MIDI 01
048.950;000.114;98;000.617;MIDI 01
048.953;000.135;96;000.617;MIDI 01
048.948;000.147;76;000.594;MIDI 01
049.089;000.055;93;000.508;MIDI 01
049.086;000.075;91;000.469;MIDI 01
049.151;000.038;86;000.570;MIDI 01
048.944;000.302;70;000.539;MIDI 01
049.293;000.031;75;000.625;MIDI 01
049.291;000.044;69;000.617;MIDI 01
049.303;000.036;65;000.547;MIDI 01
049.310;000.040;81;000.609;MIDI 01
049.293;000.067;89;000.664;MIDI 01
049.659;000.024;70;000.555;MIDI 01
049.676;000.031;66;000.438;MIDI 01
049.653;000.056;74;000.664;MIDI 01
049.651;000.066;82;000.648;MIDI 01
049.659;000.059;58;000.570;MIDI 01
049.704;000.031;65;000.297;MIDI 01
050.006;000.023;77;000.578;MIDI 01
050.007;000.038;69;000.555;MIDI 01
050.005;000.043;65;000.625;MIDI 01
050.017;000.046;62;000.656;MIDI 01
050.027;000.040;57;000.547;MIDI 01
050.025;000.081;50;000.547;MIDI 01
050.097;000.053;56;000.188;MIDI 01
050.209;000.029;63;000.336;MIDI 01
050.382;000.024;55;000.469;MIDI 01
050.385;000.030;50;000.438;MIDI 01
050.389;000.036;62;000.422;MIDI 01
050.380;000.051;58;000.586;MIDI 01
050.383;000.057;70;000.492;MIDI 01
050.390;000.054;43;000.414;MIDI 01
050.725;000.040;50;000.492;MIDI 01
050.731;000.042;44;000.461;MIDI 01
050.734;000.068;38;000.391;MIDI 01
050.732;000.089;65;000.516;MIDI 01
050.736;000.086;53;000.492;MIDI 01
051.084;000.027;58;000.484;MIDI 01
051.082;000.032;46;000.469;MIDI 01
051.086;000.030;50;000.328;MIDI 01
051.089;000.035;34;000.383;MIDI 01
051.079;000.047;62;000.469;MIDI 01
051.466;000.023;60;000.617;MIDI 01
051.448;000.050;62;000.719;MIDI 01
051.450;000.054;74;000.773;MIDI 01
051.438;000.069;50;000.625;MIDI 01
051.445;000.070;86;000.750;MIDI 01
052.093;000.032;38;000.594;MIDI 01
052.091;000.041;26;000.500;MIDI 01
052.104;000.030;50;000.516;MIDI 01
052.104;000.032;62;000.648;MIDI 01
052.181;000.050;48;000.023;MIDI 01
052.499;000.092;60;000.469;MIDI 01
052.624;000.095;62;000.438;MIDI 01
052.670;000.097;63;000.438;MIDI 01
052.480;000.314;48;000.516;MIDI 01
052.626;000.172;50;000.375;MIDI 01
052.710;000.095;51;000.352;MIDI 01
052.773;000.048;65;000.547;MIDI 01
052.794;000.034;58;000.422;MIDI 01
052.788;000.044;46;000.539;MIDI 01
052.790;000.044;53;000.516;MIDI 01
053.116;000.046;55;000.562;MIDI 01
053.123;000.048;46;000.562;MIDI 01
053.118;000.055;51;000.602;MIDI 01
053.119;000.066;39;000.531;MIDI 01
053.120;000.079;63;000.570;MIDI 01
053.114;000.098;67;000.609;MIDI 01
053.458;000.062;79;000.594;MIDI 01
053.474;000.074;55;000.570;MIDI 01
053.502;000.048;50;000.383;MIDI 01
053.466;000.086;67;000.570;MIDI 01
053.795;000.037;57;000.586;MIDI 01
053.806;000.036;62;000.609;MIDI 01
053.817;000.042;50;000.344;MIDI 01
053.802;000.071;69;000.578;MIDI 01
054.150;000.033;58;000.547;MIDI 01
054.146;000.040;43;000.508;MIDI 01
054.141;000.047;55;000.625;MIDI 01
054.155;000.046;67;000.500;MIDI 01
054.148;000.078;70;000.625;MIDI 01
054.183;000.051;50;000.125;MIDI 01
054.501;000.050;62;000.750;MIDI 01
054.499;000.057;50;000.633;MIDI 01
054.503;000.059;74;000.758;MIDI 01
054.494;000.073;86;000.742;MIDI 01
055.176;000.031;50;000.570;MIDI 01
055.161;000.049;38;000.688;MIDI 01
055.174;000.044;26;000.422;MIDI 01
055.172;000.064;62;000.617;MIDI 01
055.300;000.048;50;000.125;MIDI 01
055.554;000.116;55;000.477;MIDI 01
055.623;000.168;57;000.438;MIDI 01
055.534;000.264;43;000.555;MIDI 01
055.680;000.131;45;000.492;MIDI 01
055.750;000.102;46;000.500;MIDI 01
055.798;000.056;41;000.523;MIDI 01
055.735;000.126;58;000.531;MIDI 01
055.848;000.032;53;000.547;MIDI 01
055.835;000.076;48;000.602;MIDI 01
055.840;000.080;60;000.586;MIDI 01
056.189;000.033;50;000.477;MIDI 01
056.174;000.053;41;000.461;MIDI 01
056.179;000.056;46;000.617;MIDI 01
056.176;000.061;34;000.547;MIDI 01
056.185;000.060;58;000.570;MIDI 01
056.170;000.098;62;000.570;MIDI 01
056.541;000.292;55;000.625;MIDI 01
056.865;000.037;52;000.516;MIDI 01
056.890;000.036;57;000.445;MIDI 01
056.883;000.045;45;000.438;MIDI 01
056.872;000.100;64;000.547;MIDI 01
056.522;000.507;67;000.688;MIDI 01
057.229;000.035;54;000.570;MIDI 01
057.226;000.076;38;000.555;MIDI 01
057.230;000.078;45;000.570;MIDI 01
057.224;000.089;50;000.594;MIDI 01
057.221;000.114;66;000.648;MIDI 01
057.655;000.309;62;000.656;MIDI 01
057.632;000.400;74;000.734;MIDI 01
058.444;000.105;26;000.531;MIDI 01
058.446;000.143;38;000.555;MIDI 01
058.447;000.149;50;000.555;MIDI 01
058.434;000.223;62;000.625;MIDI 01
059.034;000.189;51;000.602;MIDI 01
059.247;000.083;50;000.492;MIDI 01
059.383;000.078;49;000.547;MIDI 01
059.035;000.466;63;000.500;MIDI 01
059.485;000.119;48;000.523;MIDI 01
058.999;000.620;66;000.719;MIDI 01
059.581;000.126;47;000.523;MIDI 01
059.699;000.059;46;000.523;MIDI 01
059.756;000.045;42;000.516;MIDI 01
059.904;000.079;39;000.445;MIDI 01
059.027;001.002;54;000.633;MIDI 01
059.987;000.111;39;000.188;MIDI 01
060.119;000.132;37;000.500;MIDI 01
060.296;000.044;36;000.391;MIDI 01
060.107;000.414;58;000.562;MIDI 01
060.434;000.105;35;000.359;MIDI 01
060.501;000.331;57;000.398;MIDI 01
060.578;000.282;34;000.391;MIDI 01
060.831;000.056;37;000.352;MIDI 01
060.763;000.217;27;000.102;MIDI 01
060.935;000.103;36;000.406;MIDI 01
061.056;000.090;35;000.383;MIDI 01
060.829;000.670;56;000.422;MIDI 01
061.161;000.341;34;000.445;MIDI 01
061.496;000.090;37;000.398;MIDI 01
061.347;000.242;27;000.297;MIDI 01
061.198;000.490;54;000.414;MIDI 01
061.641;000.118;36;000.375;MIDI 01
061.506;000.326;51;000.445;MIDI 01
061.758;000.105;35;000.375;MIDI 01
061.862;000.126;34;000.398;MIDI 01
061.997;000.068;30;000.195;MIDI 01
062.025;000.077;27;000.336;MIDI 01
062.198;000.069;37;000.453;MIDI 01
061.844;000.506;46;000.438;MIDI 01
062.372;000.167;45;000.375;MIDI 01
062.552;000.076;36;000.383;MIDI 01
062.564;000.133;44;000.398;MIDI 01
062.774;000.120;43;000.211;MIDI 01
062.907;000.052;34;000.367;MIDI 01
062.909;000.239;42;000.375;MIDI 01
063.094;000.060;39;000.383;MIDI 01
063.675;000.068;27;000.375;MIDI 01
064.210;000.038;45;000.375;MIDI 01
064.219;000.043;66;000.445;MIDI 01
064.227;000.045;54;000.430;MIDI 01
064.226;000.048;57;000.461;MIDI 01
064.245;000.043;62;000.266;MIDI 01
064.501;000.030;64;000.289;MIDI 01
064.589;000.042;57;000.531;MIDI 01
064.617;000.036;54;000.391;MIDI 01
064.584;000.071;50;000.453;MIDI 01
064.606;000.051;45;000.430;MIDI 01
064.591;000.232;69;000.555;MIDI 01
064.612;000.237;66;000.414;MIDI 01
064.610;000.252;62;000.227;MIDI 01
064.924;000.039;38;000.359;MIDI 01
064.945;000.061;40;000.211;MIDI 01
065.289;000.048;58;000.414;MIDI 01
065.293;000.055;53;000.383;MIDI 01
065.311;000.039;50;000.312;MIDI 01
065.284;000.074;56;000.445;MIDI 01
065.306;000.066;44;000.281;MIDI 01
065.315;000.060;65;000.188;MIDI 01
065.268;000.112;70;000.508;MIDI 01
065.334;000.062;62;000.047;MIDI 01
065.656;000.025;60;000.359;MIDI 01
065.649;000.034;55;000.477;MIDI 01
065.643;000.044;64;000.461;MIDI 01
065.661;000.031;52;000.336;MIDI 01
065.664;000.051;43;000.273;MIDI 01
065.671;000.058;49;000.133;MIDI 01
065.912;000.030;65;000.438;MIDI 01
065.903;000.042;56;000.367;MIDI 01
065.910;000.035;62;000.398;MIDI 01
065.920;000.044;53;000.219;MIDI 01
065.908;000.136;49;000.070;MIDI 01
066.004;000.053;55;000.547;MIDI 01
066.023;000.047;43;000.445;MIDI 01
066.002;000.083;48;000.516;MIDI 01
066.032;000.056;46;000.258;MIDI 01
066.008;000.228;64;000.555;MIDI 01
066.006;000.265;67;000.586;MIDI 01
066.021;000.289;60;000.297;MIDI 01
066.346;000.035;38;000.562;MIDI 01
066.739;000.046;51;000.352;MIDI 01
066.717;000.069;57;000.445;MIDI 01
066.724;000.075;48;000.406;MIDI 01
066.735;000.065;63;000.375;MIDI 01
066.698;000.104;69;000.547;MIDI 01
066.715;000.100;54;000.492;MIDI 01
067.040;000.034;53;000.469;MIDI 01
067.043;000.041;58;000.453;MIDI 01
067.044;000.042;41;000.406;MIDI 01
067.049;000.043;46;000.422;MIDI 01
067.047;000.051;50;000.312;MIDI 01
067.057;000.043;62;000.383;MIDI 01
067.319;000.035;63;000.438;MIDI 01
067.403;000.042;50;000.516;MIDI 01
067.418;000.039;53;000.523;MIDI 01
067.403;000.055;58;000.203;MIDI 01
067.407;000.053;46;000.453;MIDI 01
067.405;000.057;62;000.516;MIDI 01
067.423;000.042;66;000.375;MIDI 01
067.425;000.042;41;000.445;MIDI 01
067.411;000.067;65;000.562;MIDI 01
067.752;000.034;52;000.492;MIDI 01
067.756;000.040;67;000.531;MIDI 01
067.754;000.044;49;000.500;MIDI 01
067.758;000.042;46;000.344;MIDI 01
067.761;000.044;40;000.312;MIDI 01
067.767;000.041;61;000.375;MIDI 01
067.782;000.055;55;000.266;MIDI 01
067.783;000.059;58;000.078;MIDI 01
067.796;000.049;57;000.133;MIDI 01
068.136;000.424;49;000.344;MIDI 01
068.149;000.421;40;000.367;MIDI 01
068.165;000.460;61;000.359;MIDI 01
068.160;000.501;52;000.391;MIDI 01
068.176;000.505;45;000.281;MIDI 01
068.140;000.571;67;000.461;MIDI 01
068.197;000.700;55;000.188;MIDI 01
068.764;000.221;38;000.422;MIDI 01
068.199;000.872;57;000.172;MIDI 01
068.989;000.152;45;000.336;MIDI 01
069.043;000.101;66;000.430;MIDI 01
069.075;000.100;54;000.391;MIDI 01
069.035;000.159;69;000.484;MIDI 01
069.494;000.139;63;000.500;MIDI 01
069.653;000.095;62;000.461;MIDI 01
069.783;000.093;61;000.500;MIDI 01
069.517;000.367;75;000.508;MIDI 01
069.487;000.424;78;000.680;MIDI 01
069.920;000.114;60;000.414;MIDI 01
069.515;000.524;66;000.555;MIDI 01
070.025;000.133;59;000.445;MIDI 01
070.159;000.047;58;000.422;MIDI 01
070.425;000.049;45;000.312;MIDI 01
070.430;000.047;66;000.461;MIDI 01
070.458;000.039;57;000.172;MIDI 01
070.436;000.064;54;000.367;MIDI 01
070.697;000.018;58;000.492;MIDI 01
070.700;000.019;62;000.430;MIDI 01
070.692;000.036;67;000.531;MIDI 01
070.703;000.027;64;000.406;MIDI 01
070.689;000.046;46;000.438;MIDI 01
070.805;000.048;54;000.422;MIDI 01
070.796;000.076;50;000.445;MIDI 01
070.833;000.061;57;000.117;MIDI 01
070.840;000.067;45;000.188;MIDI 01
070.803;000.147;66;000.516;MIDI 01
070.843;000.117;62;000.406;MIDI 01
070.963;000.120;62;000.102;MIDI 01
070.799;000.287;69;000.570;MIDI 01
071.134;000.031;38;000.500;MIDI 01
071.573;000.116;53;000.336;MIDI 01
071.582;000.119;56;000.383;MIDI 01
071.564;000.147;49;000.375;MIDI 01
071.518;000.202;71;000.461;MIDI 01
071.568;000.176;44;000.305;MIDI 01
071.566;000.180;65;000.242;MIDI 01
071.533;000.221;59;000.367;MIDI 01
071.550;000.215;61;000.391;MIDI 01
071.918;000.028;55;000.453;MIDI 01
071.915;000.035;64;000.531;MIDI 01
071.922;000.039;43;000.359;MIDI 01
071.934;000.037;48;000.328;MIDI 01
071.950;000.042;60;000.258;MIDI 01
071.948;000.048;52;000.234;MIDI 01
072.160;000.041;62;000.391;MIDI 01
072.173;000.043;65;000.328;MIDI 01
072.168;000.050;53;000.070;MIDI 01
072.170;000.053;56;000.211;MIDI 01
072.164;000.064;44;000.156;MIDI 01
072.244;000.069;55;000.594;MIDI 01
072.251;000.112;48;000.492;MIDI 01
072.271;000.188;43;000.461;MIDI 01
072.254;000.254;64;000.555;MIDI 01
072.246;000.298;67;000.594;MIDI 01
072.609;000.052;36;000.352;MIDI 01
072.987;000.136;69;000.539;MIDI 01
073.008;000.122;57;000.398;MIDI 01
073.026;000.115;51;000.320;MIDI 01
073.034;000.112;63;000.234;MIDI 01
073.021;000.130;47;000.344;MIDI 01
073.014;000.146;54;000.383;MIDI 01
073.017;000.202;42;000.375;MIDI 01
073.027;000.196;59;000.203;MIDI 01
073.368;000.025;53;000.445;MIDI 01
073.362;000.032;58;000.453;MIDI 01
073.365;000.032;62;000.461;MIDI 01
073.376;000.039;50;000.320;MIDI 01
073.381;000.051;46;000.297;MIDI 01
073.419;000.047;41;000.023;MIDI 01
073.601;000.042;42;000.406;MIDI 01
073.614;000.040;54;000.320;MIDI 01
073.620;000.044;63;000.320;MIDI 01
073.725;000.023;53;000.469;MIDI 01
073.727;000.025;50;000.430;MIDI 01
073.715;000.037;58;000.344;MIDI 01
073.686;000.077;65;000.609;MIDI 01
073.737;000.033;41;000.406;MIDI 01
073.749;000.039;46;000.266;MIDI 01
073.742;000.048;62;000.227;MIDI 01
074.036;000.042;67;000.516;MIDI 01
074.041;000.042;52;000.508;MIDI 01
074.043;000.042;61;000.461;MIDI 01
074.046;000.041;55;000.375;MIDI 01
074.048;000.041;40;000.414;MIDI 01
074.040;000.056;49;000.523;MIDI 01
074.052;000.046;58;000.195;MIDI 01
074.042;000.058;46;000.430;MIDI 01
074.078;000.049;57;000.141;MIDI 01
074.458;000.338;61;000.406;MIDI 01
074.507;000.314;45;000.164;MIDI 01
074.491;000.353;51;000.281;MIDI 01
074.484;000.362;39;000.328;MIDI 01
074.438;000.430;67;000.445;MIDI 01
074.481;000.511;55;000.188;MIDI 01
074.486;000.650;57;000.156;MIDI 01
075.132;000.198;38;000.477;MIDI 01
075.410;000.068;54;000.391;MIDI 01
075.308;000.172;66;000.406;MIDI 01
075.284;000.205;45;000.312;MIDI 01
075.297;000.208;69;000.438;MIDI 01
075.884;000.251;66;000.617;MIDI 01
076.152;000.158;65;000.477;MIDI 01
075.880;000.456;78;000.562;MIDI 01
075.864;000.482;82;000.688;MIDI 01
076.329;000.120;64;000.438;MIDI 01
075.892;000.599;70;000.578;MIDI 01
076.436;000.083;63;000.516;MIDI 01
076.550;000.171;62;000.555;MIDI 01
076.681;000.294;61;000.508;MIDI 01
076.832;000.176;66;000.461;MIDI 01
077.000;000.195;60;000.438;MIDI 01
077.013;000.205;66;000.023;MIDI 01
077.122;000.232;59;000.484;MIDI 01
077.270;000.107;58;000.477;MIDI 01
077.209;000.185;65;000.531;MIDI 01
077.524;000.125;58;000.523;MIDI 01
077.205;000.483;69;000.617;MIDI 01
077.681;000.157;59;000.453;MIDI 01
077.393;000.524;57;000.508;MIDI 01
077.849;000.276;58;000.430;MIDI 01
078.005;000.169;59;000.414;MIDI 01
078.179;000.215;60;000.414;MIDI 01
077.638;000.805;68;000.539;MIDI 01
077.655;000.857;64;000.438;MIDI 01
078.398;000.188;59;000.398;MIDI 01
078.605;000.253;60;000.359;MIDI 01
078.878;000.317;61;000.391;MIDI 01
078.879;000.509;67;000.375;MIDI 01
076.812;002.583;70;000.555;MIDI 01
079.210;000.348;60;000.273;MIDI 01
078.885;000.868;63;000.312;MIDI 01
079.522;000.316;61;000.375;MIDI 01
080.169;000.278;56;000.312;MIDI 01
080.171;000.349;62;000.305;MIDI 01
080.147;000.468;67;000.367;MIDI 01
080.167;000.717;39;000.359;MIDI 01
080.831;000.079;46;000.305;MIDI 01
081.249;000.232;79;000.594;MIDI 01
081.275;000.261;63;000.258;MIDI 01
080.815;000.754;67;000.445;MIDI 01
081.291;000.504;56;000.219;MIDI 01
081.747;000.099;46;000.398;MIDI 01
081.795;000.119;62;000.367;MIDI 01
082.040;000.135;62;000.336;MIDI 01
082.048;000.345;71;000.484;MIDI 01
082.056;000.354;56;000.188;MIDI 01
082.384;000.105;46;000.414;MIDI 01
082.379;000.119;58;000.469;MIDI 01
082.357;000.219;70;000.578;MIDI 01
082.735;000.169;62;000.398;MIDI 01
082.732;000.386;39;000.406;MIDI 01
083.050;000.111;60;000.461;MIDI 01
083.097;000.101;46;000.422;MIDI 01
082.682;000.549;70;000.492;MIDI 01
083.494;000.091;60;000.289;MIDI 01
083.457;000.205;75;000.617;MIDI 01
083.478;000.302;54;000.406;MIDI 01
083.810;000.114;59;000.469;MIDI 01
083.844;000.188;46;000.328;MIDI 01
084.115;000.102;59;000.414;MIDI 01
084.108;000.233;55;000.344;MIDI 01
084.391;000.045;58;000.273;MIDI 01
084.100;000.338;68;000.430;MIDI 01
084.388;000.074;46;000.359;MIDI 01
084.356;000.110;67;000.484;MIDI 01
084.736;000.044;76;000.289;MIDI 01
084.707;000.258;74;000.492;MIDI 01
084.720;000.399;39;000.391;MIDI 01
085.138;000.073;59;000.367;MIDI 01
085.160;000.082;47;000.344;MIDI 01
085.443;000.092;59;000.469;MIDI 01
085.714;000.264;47;000.477;MIDI 01
085.956;000.110;58;000.461;MIDI 01
085.932;000.200;71;000.570;MIDI 01
086.209;000.076;57;000.453;MIDI 01
086.202;000.222;47;000.398;MIDI 01
085.431;001.016;67;000.445;MIDI 01
086.011;000.792;62;000.250;MIDI 01
086.519;000.327;39;000.391;MIDI 01
086.810;000.081;57;000.477;MIDI 01
086.511;000.512;71;000.555;MIDI 01
086.831;000.295;46;000.414;MIDI 01
087.142;000.224;57;000.414;MIDI 01
087.104;000.325;65;000.430;MIDI 01
087.435;000.067;56;000.383;MIDI 01
087.451;000.535;46;000.344;MIDI 01
087.885;000.427;56;000.352;MIDI 01
087.855;000.657;64;000.352;MIDI 01
087.849;000.728;61;000.156;MIDI 01
088.231;000.542;46;000.297;MIDI 01
088.246;000.699;55;000.281;MIDI 01
087.826;001.134;67;000.414;MIDI 01
088.730;000.540;44;000.383;MIDI 01
089.294;000.086;51;000.305;MIDI 01
089.259;000.719;60;000.375;MIDI 01
089.838;000.431;58;000.320;MIDI 01
089.833;000.685;63;000.297;MIDI 01
090.258;000.277;51;000.188;MIDI 01
090.245;000.375;60;000.219;MIDI 01
090.523;000.264;59;000.375;MIDI 01
089.822;000.994;70;000.492;MIDI 01
090.495;000.331;68;000.438;MIDI 01
090.797;000.265;60;000.359;MIDI 01
090.786;000.292;51;000.375;MIDI 01
091.064;000.315;57;000.344;MIDI 01
091.340;000.212;48;000.320;MIDI 01
091.343;000.233;59;000.367;MIDI 01
091.629;000.061;65;000.383;MIDI 01
091.049;000.719;67;000.438;MIDI 01
091.061;000.820;63;000.328;MIDI 01
091.654;000.325;56;000.352;MIDI 01
091.982;000.372;57;000.320;MIDI 01
091.695;000.722;65;000.086;MIDI 01
092.004;000.477;47;000.312;MIDI 01
092.375;000.424;55;000.328;MIDI 01
092.362;000.558;62;000.359;MIDI 01
092.341;000.649;67;000.406;MIDI 01
092.836;000.591;46;000.312;MIDI 01
092.787;000.779;56;000.383;MIDI 01
093.355;000.351;58;000.406;MIDI 01
093.375;000.604;39;000.305;MIDI 01
093.978;000.083;46;000.344;MIDI 01
093.963;000.759;67;000.430;MIDI 01
094.466;000.258;63;000.367;MIDI 01
094.435;000.293;79;000.602;MIDI 01
094.457;000.493;56;000.383;MIDI 01
094.969;000.061;46;000.320;MIDI 01
094.945;000.125;62;000.414;MIDI 01
095.246;000.066;62;000.383;MIDI 01
095.236;000.333;71;000.539;MIDI 01
095.266;000.312;56;000.234;MIDI 01
095.540;000.074;58;000.391;MIDI 01
095.566;000.065;46;000.359;MIDI 01
095.523;000.163;70;000.539;MIDI 01
095.881;000.190;62;000.398;MIDI 01
095.905;000.411;39;000.359;MIDI 01
096.250;000.107;61;000.562;MIDI 01
096.300;000.068;46;000.414;MIDI 01
095.848;000.561;70;000.555;MIDI 01
096.006;000.423;67;000.094;MIDI 01
096.616;000.085;63;000.367;MIDI 01
096.607;000.127;60;000.359;MIDI 01
096.583;000.166;75;000.625;MIDI 01
096.624;000.244;54;000.391;MIDI 01
096.925;000.078;46;000.367;MIDI 01
096.903;000.102;59;000.469;MIDI 01
097.190;000.129;59;000.328;MIDI 01
097.188;000.273;55;000.344;MIDI 01
097.491;000.061;58;000.102;MIDI 01
097.235;000.329;63;000.242;MIDI 01
097.185;000.395;68;000.453;MIDI 01
097.445;000.159;67;000.453;MIDI 01
097.457;000.215;46;000.375;MIDI 01
097.923;000.183;67;000.336;MIDI 01
097.910;000.522;43;000.406;MIDI 01
097.883;000.590;74;000.500;MIDI 01
098.348;000.155;66;000.398;MIDI 01
097.901;000.654;70;000.445;MIDI 01
098.400;000.206;50;000.484;MIDI 01
098.761;000.055;65;000.414;MIDI 01
098.816;000.103;57;000.062;MIDI 01
098.782;000.181;61;000.445;MIDI 01
099.060;000.341;64;000.391;MIDI 01
098.751;000.679;73;000.500;MIDI 01
098.758;000.730;69;000.453;MIDI 01
099.290;000.247;43;000.500;MIDI 01
099.583;000.125;65;000.445;MIDI 01
099.560;000.183;74;000.562;MIDI 01
099.573;000.357;50;000.430;MIDI 01
099.918;000.072;64;000.453;MIDI 01
099.935;000.143;60;000.375;MIDI 01
099.940;000.222;56;000.312;MIDI 01
100.231;000.317;50;000.312;MIDI 01
099.893;000.827;72;000.562;MIDI 01
100.203;000.539;63;000.484;MIDI 01
100.515;000.383;43;000.383;MIDI 01
099.922;001.105;68;000.445;MIDI 01
100.931;000.214;64;000.367;MIDI 01
100.915;000.299;74;000.461;MIDI 01
100.923;000.451;50;000.336;MIDI 01
101.420;000.466;63;000.305;MIDI 01
101.422;000.528;67;000.328;MIDI 01
101.443;000.758;58;000.336;MIDI 01
101.439;000.765;55;000.297;MIDI 01
101.964;000.767;62;000.336;MIDI 01
101.390;001.540;70;000.406;MIDI 01
102.774;000.433;34;000.273;MIDI 01
103.510;000.253;41;000.344;MIDI 01
103.508;000.530;58;000.281;MIDI 01
104.007;000.407;57;000.352;MIDI 01
104.015;000.527;46;000.352;MIDI 01
104.031;000.528;50;000.102;MIDI 01
104.408;000.379;58;000.289;MIDI 01
104.525;000.359;41;000.414;MIDI 01
104.825;000.136;56;000.297;MIDI 01
103.950;001.146;65;000.422;MIDI 01
104.821;000.320;62;000.289;MIDI 01
104.810;000.339;50;000.250;MIDI 01
104.805;000.367;70;000.477;MIDI 01
104.833;000.356;46;000.352;MIDI 01
105.108;000.152;41;000.414;MIDI 01
105.130;000.192;58;000.414;MIDI 01
105.496;000.179;34;000.438;MIDI 01
105.475;000.559;72;000.531;MIDI 01
105.927;000.350;58;000.398;MIDI 01
105.923;000.359;41;000.344;MIDI 01
106.400;000.297;55;000.281;MIDI 01
106.343;000.383;49;000.359;MIDI 01
106.407;000.321;61;000.023;MIDI 01
106.452;000.289;46;000.023;MIDI 01
106.644;000.175;58;000.422;MIDI 01
106.664;000.288;41;000.414;MIDI 01
106.941;000.062;56;000.414;MIDI 01
106.923;000.270;49;000.359;MIDI 01
106.914;000.302;61;000.375;MIDI 01
106.925;000.323;46;000.289;MIDI 01
107.149;000.122;41;000.477;MIDI 01
107.180;000.332;58;000.469;MIDI 01
107.446;000.113;34;000.523;MIDI 01
106.345;001.230;65;000.438;MIDI 01
106.905;000.791;70;000.539;MIDI 01
107.755;000.122;41;000.461;MIDI 01
107.774;000.407;58;000.469;MIDI 01
108.124;000.170;57;000.422;MIDI 01
108.148;000.289;46;000.180;MIDI 01
108.122;000.351;50;000.297;MIDI 01
108.407;000.240;41;000.523;MIDI 01
108.097;000.578;69;000.500;MIDI 01
108.395;000.379;58;000.453;MIDI 01
108.694;000.082;56;000.430;MIDI 01
108.645;000.359;50;000.336;MIDI 01
108.138;000.926;62;000.352;MIDI 01
108.688;000.378;46;000.383;MIDI 01
108.961;000.168;41;000.523;MIDI 01
108.668;000.498;65;000.562;MIDI 01
108.970;000.237;70;000.609;MIDI 01
108.995;000.331;58;000.469;MIDI 01
109.496;000.145;37;000.414;MIDI 01
109.448;000.342;70;000.586;MIDI 01
109.469;000.337;61;000.516;MIDI 01
109.464;000.349;65;000.453;MIDI 01
110.019;000.102;57;000.406;MIDI 01
110.009;000.139;69;000.531;MIDI 01
110.015;000.244;43;000.414;MIDI 01
110.328;000.169;69;000.609;MIDI 01
110.384;000.147;57;000.406;MIDI 01
110.385;000.201;53;000.320;MIDI 01
110.368;000.284;49;000.430;MIDI 01
110.353;000.375;61;000.602;MIDI 01
110.688;000.060;43;000.461;MIDI 01
110.361;000.405;65;000.516;MIDI 01
110.691;000.092;56;000.523;MIDI 01
110.684;000.159;68;000.562;MIDI 01
111.020;000.217;59;000.438;MIDI 01
111.027;000.220;62;000.492;MIDI 01
111.030;000.233;65;000.508;MIDI 01
111.016;000.271;68;000.570;MIDI 01
110.996;000.342;53;000.391;MIDI 01
111.033;000.395;50;000.344;MIDI 01
111.448;000.083;43;000.297;MIDI 01
111.451;000.556;55;000.273;MIDI 01
111.886;000.210;36;000.375;MIDI 01
111.420;000.985;67;000.398;MIDI 01
112.366;000.357;43;000.312;MIDI 01
112.343;000.555;60;000.391;MIDI 01
112.831;000.156;59;000.414;MIDI 01
112.873;000.242;52;000.289;MIDI 01
113.118;000.038;43;000.406;MIDI 01
113.365;000.066;58;000.453;MIDI 01
113.080;000.382;60;000.445;MIDI 01
113.335;000.261;52;000.422;MIDI 01
112.766;000.835;67;000.500;MIDI 01
113.378;000.249;48;000.359;MIDI 01
113.346;000.305;72;000.656;MIDI 01
113.620;000.055;43;000.523;MIDI 01
112.833;000.928;64;000.188;MIDI 01
113.630;000.500;60;000.516;MIDI 01
113.973;000.161;36;000.453;MIDI 01
114.360;000.197;42;000.398;MIDI 01
114.362;000.335;60;000.422;MIDI 01
114.671;000.110;57;000.438;MIDI 01
113.976;000.899;73;000.625;MIDI 01
114.920;000.080;42;000.516;MIDI 01
114.683;000.327;51;000.375;MIDI 01
114.669;000.367;63;000.383;MIDI 01
114.643;000.409;66;000.500;MIDI 01
114.919;000.181;60;000.469;MIDI 01
115.186;000.120;58;000.562;MIDI 01
115.184;000.240;51;000.438;MIDI 01
115.182;000.248;48;000.359;MIDI 01
115.442;000.118;60;000.398;MIDI 01
115.733;000.049;35;000.250;MIDI 01
115.707;000.147;36;000.539;MIDI 01
115.158;000.794;72;000.586;MIDI 01
115.174;000.889;66;000.352;MIDI 01
116.072;000.078;45;000.242;MIDI 01
116.294;000.072;51;000.383;MIDI 01
115.996;000.407;60;000.555;MIDI 01
116.344;000.219;59;000.414;MIDI 01
116.593;000.115;43;000.555;MIDI 01
116.656;000.071;46;000.141;MIDI 01
116.311;000.499;71;000.656;MIDI 01
116.592;000.334;60;000.523;MIDI 01
116.866;000.112;58;000.508;MIDI 01
116.836;000.353;52;000.461;MIDI 01
116.871;000.334;48;000.359;MIDI 01
116.897;000.327;64;000.305;MIDI 01
117.168;000.080;43;000.547;MIDI 01
116.850;000.421;67;000.578;MIDI 01
117.170;000.208;72;000.648;MIDI 01
117.189;000.496;60;000.586;MIDI 01
117.706;000.153;33;000.500;MIDI 01
117.691;000.273;72;000.648;MIDI 01
117.689;000.323;60;000.023;MIDI 01
118.194;000.126;59;000.477;MIDI 01
118.165;000.217;71;000.609;MIDI 01
117.704;000.681;63;000.523;MIDI 01
117.708;000.679;67;000.508;MIDI 01
118.192;000.213;45;000.461;MIDI 01
118.552;000.107;71;000.555;MIDI 01
118.578;000.249;63;000.469;MIDI 01
118.648;000.181;55;000.055;MIDI 01
118.597;000.248;59;000.469;MIDI 01
118.911;000.041;58;000.477;MIDI 01
118.594;000.360;51;000.430;MIDI 01
118.576;000.381;67;000.430;MIDI 01
118.890;000.108;45;000.484;MIDI 01
118.892;000.150;70;000.609;MIDI 01
119.041;000.054;55;000.250;MIDI 01
119.211;000.144;61;000.531;MIDI 01
119.209;000.231;67;000.523;MIDI 01
119.183;000.258;55;000.359;MIDI 01
119.227;000.236;64;000.383;MIDI 01
119.199;000.267;70;000.609;MIDI 01
119.237;000.295;52;000.422;MIDI 01
119.600;000.070;45;000.438;MIDI 01
119.632;000.686;57;000.391;MIDI 01
120.111;000.215;38;000.414;MIDI 01
119.600;001.155;69;000.531;MIDI 01
120.620;000.180;45;000.445;MIDI 01
120.639;000.554;62;000.336;MIDI 01
121.124;000.144;61;000.344;MIDI 01
121.131;000.298;54;000.273;MIDI 01
121.476;000.086;45;000.383;MIDI 01
121.777;000.109;54;000.383;MIDI 01
121.478;000.452;62;000.336;MIDI 01
121.779;000.381;74;000.516;MIDI 01
122.051;000.144;50;000.312;MIDI 01
121.784;000.430;60;000.312;MIDI 01
122.081;000.174;54;000.398;MIDI 01
122.089;000.224;62;000.422;MIDI 01
121.119;001.282;69;000.320;MIDI 01
122.641;000.042;63;000.438;MIDI 01
122.632;000.120;50;000.383;MIDI 01
122.357;000.550;75;000.641;MIDI 01
122.968;000.054;59;000.320;MIDI 01
122.964;000.183;60;000.352;MIDI 01
122.938;000.218;66;000.484;MIDI 01
123.208;000.140;63;000.500;MIDI 01
122.897;000.516;72;000.625;MIDI 01
123.214;000.390;56;000.531;MIDI 01
123.529;000.164;67;000.500;MIDI 01
123.524;000.330;60;000.516;MIDI 01
123.845;000.093;56;000.539;MIDI 01
123.841;000.135;72;000.594;MIDI 01
123.520;000.482;76;000.688;MIDI 01
123.854;000.566;64;000.562;MIDI 01
124.445;000.062;71;000.180;MIDI 01
124.367;000.189;31;000.516;MIDI 01
124.378;000.218;43;000.523;MIDI 01
124.945;000.065;53;000.391;MIDI 01
124.355;000.658;77;000.695;MIDI 01
124.943;000.102;59;000.375;MIDI 01
124.881;000.190;65;000.461;MIDI 01
124.924;000.216;50;000.305;MIDI 01
125.310;000.203;54;000.422;MIDI 01
125.304;000.271;62;000.469;MIDI 01
124.871;000.721;74;000.523;MIDI 01
125.308;000.306;59;000.336;MIDI 01
125.640;000.082;50;000.523;MIDI 01
125.622;000.106;54;000.391;MIDI 01
125.636;000.109;62;000.445;MIDI 01
125.632;000.125;66;000.656;MIDI 01
125.280;000.506;78;000.648;MIDI 01
125.642;000.153;59;000.383;MIDI 01
125.607;000.220;74;000.391;MIDI 01
124.548;001.290;71;000.094;MIDI 01
126.008;000.031;71;000.430;MIDI 01
125.996;000.194;63;000.555;MIDI 01
125.973;000.253;59;000.461;MIDI 01
125.980;000.425;79;000.750;MIDI 01
126.335;000.072;63;000.523;MIDI 01
126.322;000.097;59;000.375;MIDI 01
126.000;000.454;55;000.438;MIDI 01
126.324;000.136;71;000.344;MIDI 01
126.330;000.165;51;000.562;MIDI 01
126.332;000.205;67;000.594;MIDI 01
126.322;000.453;75;000.633;MIDI 01
126.974;000.031;76;000.469;MIDI 01
126.983;000.054;70;000.539;MIDI 01
126.967;000.073;73;000.438;MIDI 01
127.037;000.054;80;000.195;MIDI 01
126.963;000.310;52;000.500;MIDI 01
126.956;000.319;36;000.531;MIDI 01
126.938;000.555;82;000.766;MIDI 01
127.689;000.173;67;000.211;MIDI 01
127.679;000.277;52;000.109;MIDI 01
127.641;000.364;73;000.508;MIDI 01
127.639;000.393;58;000.336;MIDI 01
127.633;000.428;61;000.336;MIDI 01
127.668;000.559;70;000.422;MIDI 01
127.977;000.290;64;000.516;MIDI 01
128.267;000.044;61;000.344;MIDI 01
128.282;000.051;58;000.352;MIDI 01
128.286;000.053;67;000.414;MIDI 01
127.952;000.434;76;000.648;MIDI 01
128.265;000.133;70;000.172;MIDI 01
128.261;000.190;73;000.531;MIDI 01
128.670;000.167;70;000.492;MIDI 01
128.657;000.217;64;000.367;MIDI 01
128.750;000.130;61;000.023;MIDI 01
128.672;000.339;60;000.250;MIDI 01
129.041;000.086;64;000.219;MIDI 01
129.056;000.099;58;000.414;MIDI 01
128.607;000.648;80;000.688;MIDI 01
129.084;000.326;68;000.523;MIDI 01
129.056;000.409;72;000.555;MIDI 01
129.754;000.184;41;000.461;MIDI 01
129.702;000.431;79;000.656;MIDI 01
130.165;000.100;54;000.453;MIDI 01
130.174;000.379;75;000.516;MIDI 01
130.502;000.057;61;000.430;MIDI 01
130.499;000.068;70;000.430;MIDI 01
130.485;000.152;65;000.477;MIDI 01
130.777;000.076;68;000.477;MIDI 01
130.783;000.086;71;000.398;MIDI 01
131.082;000.069;67;000.352;MIDI 01
130.789;000.429;56;000.406;MIDI 01
130.457;000.830;78;000.594;MIDI 01
131.078;000.219;63;000.414;MIDI 01
131.080;000.305;70;000.461;MIDI 01
131.072;000.510;73;000.445;MIDI 01
131.379;000.490;75;000.445;MIDI 01
131.778;000.096;43;000.492;MIDI 01
131.752;000.141;79;000.555;MIDI 01
132.154;000.230;51;000.367;MIDI 01
132.140;000.273;73;000.469;MIDI 01
132.516;000.129;68;000.414;MIDI 01
132.556;000.190;63;000.297;MIDI 01
132.544;000.222;58;000.352;MIDI 01
132.775;000.169;51;000.383;MIDI 01
132.806;000.159;70;000.492;MIDI 01
133.106;000.054;65;000.109;MIDI 01
133.085;000.080;63;000.344;MIDI 01
133.141;000.046;68;000.023;MIDI 01
132.488;000.810;75;000.531;MIDI 01
133.086;000.275;58;000.336;MIDI 01
133.330;000.039;63;000.297;MIDI 01
133.070;000.328;71;000.445;MIDI 01
133.361;000.041;73;000.422;MIDI 01
133.701;000.110;79;000.516;MIDI 01
133.729;000.100;44;000.414;MIDI 01
134.042;000.350;51;000.414;MIDI 01
134.379;000.047;67;000.297;MIDI 01
134.056;000.636;71;000.398;MIDI 01
134.676;000.051;65;000.273;MIDI 01
134.390;000.352;62;000.367;MIDI 01
134.383;000.370;59;000.305;MIDI 01
134.661;000.172;68;000.414;MIDI 01
134.972;000.059;63;000.383;MIDI 01
134.968;000.070;67;000.195;MIDI 01
134.934;000.241;59;000.344;MIDI 01
134.347;000.902;74;000.492;MIDI 01
135.266;000.032;71;000.383;MIDI 01
134.959;000.341;70;000.453;MIDI 01
135.259;000.058;56;000.391;MIDI 01
134.706;000.622;51;000.367;MIDI 01
135.682;000.111;79;000.438;MIDI 01
135.684;000.114;34;000.398;MIDI 01
136.078;000.327;46;000.383;MIDI 01
136.443;000.049;67;000.219;MIDI 01
136.065;000.547;71;000.414;MIDI 01
136.482;000.180;60;000.336;MIDI 01
136.489;000.269;56;000.266;MIDI 01
136.841;000.071;65;000.039;MIDI 01
136.803;000.128;68;000.266;MIDI 01
136.808;000.439;46;000.344;MIDI 01
137.200;000.079;64;000.109;MIDI 01
137.173;000.140;67;000.305;MIDI 01
137.233;000.183;61;000.344;MIDI 01
137.692;000.106;65;000.109;MIDI 01
137.673;000.224;71;000.352;MIDI 01
136.406;001.493;72;000.438;MIDI 01
137.697;000.216;68;000.086;MIDI 01
137.675;000.246;62;000.320;MIDI 01
137.211;000.798;56;000.273;MIDI 01
138.488;000.417;77;000.438;MIDI 01
138.510;000.655;39;000.305;MIDI 01
139.126;000.085;46;000.273;MIDI 01
139.072;000.380;62;000.375;MIDI 01
139.571;000.257;61;000.320;MIDI 01
139.907;000.045;60;000.234;MIDI 01
139.541;000.446;70;000.406;MIDI 01
139.616;000.376;56;000.188;MIDI 01
139.966;000.062;46;000.281;MIDI 01
140.152;000.083;60;000.320;MIDI 01
140.157;000.258;56;000.367;MIDI 01
140.443;000.064;59;000.398;MIDI 01
140.514;000.043;46;000.180;MIDI 01
140.155;000.446;68;000.422;MIDI 01
140.841;000.240;75;000.500;MIDI 01
140.858;000.407;39;000.359;MIDI 01
141.296;000.103;58;000.383;MIDI 01
141.322;000.265;46;000.320;MIDI 01
141.685;000.309;57;000.312;MIDI 01
142.017;000.061;58;000.250;MIDI 01
141.661;000.608;70;000.406;MIDI 01
142.257;000.080;63;000.344;MIDI 01
142.248;000.114;67;000.477;MIDI 01
141.994;000.385;46;000.398;MIDI 01
142.283;000.173;56;000.406;MIDI 01
142.530;000.045;55;000.289;MIDI 01
142.541;000.254;46;000.375;MIDI 01
142.799;000.167;72;000.500;MIDI 01
143.155;000.051;55;000.203;MIDI 01
142.820;000.394;39;000.375;MIDI 01
143.179;000.439;46;000.336;MIDI 01
143.445;000.192;69;000.477;MIDI 01
143.499;000.332;55;000.359;MIDI 01
143.799;000.094;54;000.430;MIDI 01
144.115;000.073;58;000.289;MIDI 01
143.792;000.440;46;000.391;MIDI 01
144.317;000.042;55;000.320;MIDI 01
144.102;000.315;54;000.398;MIDI 01
144.080;000.395;62;000.445;MIDI 01
144.469;000.125;70;000.391;MIDI 01
144.473;000.367;46;000.289;MIDI 01
144.828;000.242;70;000.438;MIDI 01
144.846;000.432;39;000.336;MIDI 01
145.276;000.440;55;000.391;MIDI 01
145.278;000.552;46;000.320;MIDI 01
145.732;000.597;53;000.328;MIDI 01
145.738;000.709;56;000.242;MIDI 01
146.264;000.358;52;000.297;MIDI 01
146.291;000.697;47;000.234;MIDI 01
147.557;000.692;46;000.273;MIDI 01
146.830;001.440;52;000.242;MIDI 01
147.525;000.749;51;000.281;MIDI 01
146.861;001.460;55;000.344;MIDI 01
145.704;002.633;63;000.367;MIDI 01
148.769;000.061;43;000.711;MIDI 01
148.767;000.133;31;000.680;MIDI 01
149.053;000.287;79;000.719;MIDI 01
149.420;000.070;54;000.633;MIDI 01
149.418;000.074;60;000.539;MIDI 01
149.408;000.088;66;000.719;MIDI 01
149.422;000.094;63;000.586;MIDI 01
149.248;000.422;91;000.680;MIDI 01
149.428;000.246;89;000.656;MIDI 01
149.547;000.148;87;000.672;MIDI 01
149.660;000.082;84;000.625;MIDI 01
149.750;000.033;81;000.586;MIDI 01
149.822;000.085;79;000.562;MIDI 01
149.911;000.033;78;000.594;MIDI 01
150.022;000.164;77;000.664;MIDI 01
150.107;000.102;75;000.570;MIDI 01
150.186;000.068;72;000.562;MIDI 01
150.270;000.042;69;000.477;MIDI 01
150.329;000.078;67;000.508;MIDI 01
150.407;000.023;66;000.500;MIDI 01
150.505;000.162;65;000.586;MIDI 01
150.595;000.113;63;000.539;MIDI 01
150.664;000.082;60;000.508;MIDI 01
150.735;000.039;57;000.555;MIDI 01
150.915;000.030;53;000.453;MIDI 01
150.898;000.119;52;000.672;MIDI 01
150.891;000.173;64;000.680;MIDI 01
150.895;000.196;60;000.680;MIDI 01
150.905;000.215;43;000.711;MIDI 01
150.903;000.229;36;000.727;MIDI 01
151.657;000.061;52;000.695;MIDI 01
151.646;000.077;64;000.680;MIDI 01
151.659;000.066;43;000.727;MIDI 01
151.655;000.085;36;000.680;MIDI 01
151.660;000.083;60;000.703;MIDI 01
152.372;000.036;52;000.500;MIDI 01
152.367;000.044;64;000.547;MIDI 01
152.395;000.024;60;000.383;MIDI 01
152.369;000.056;43;000.586;MIDI 01
152.376;000.057;36;000.547;MIDI 01
152.524;000.059;43;000.539;MIDI 01
152.530;000.056;36;000.570;MIDI 01
152.542;000.049;64;000.484;MIDI 01
152.519;000.086;52;000.516;MIDI 01
152.528;000.091;60;000.500;MIDI 01
152.700;000.075;52;000.703;MIDI 01
152.702;000.095;60;000.625;MIDI 01
152.698;000.101;43;000.680;MIDI 01
152.696;000.118;36;000.664;MIDI 01
152.693;000.130;64;000.703;MIDI 01
153.214;000.057;43;000.766;MIDI 01
153.213;000.060;31;000.688;MIDI 01
153.412;000.252;79;000.648;MIDI 01
153.768;000.025;57;000.445;MIDI 01
153.728;000.067;66;000.758;MIDI 01
153.732;000.067;54;000.672;MIDI 01
153.730;000.075;60;000.602;MIDI 01
153.734;000.093;63;000.656;MIDI 01
153.754;000.252;89;000.688;MIDI 01
153.608;000.403;91;000.656;MIDI 01
153.883;000.138;87;000.656;MIDI 01
153.972;000.099;84;000.656;MIDI 01
154.075;000.031;81;000.602;MIDI 01
154.148;000.106;79;000.555;MIDI 01
154.228;000.100;78;000.570;MIDI 01
154.328;000.032;75;000.539;MIDI 01
154.379;000.043;72;000.547;MIDI 01
154.505;000.085;67;000.641;MIDI 01
154.588;000.034;66;000.641;MIDI 01
154.707;000.124;65;000.547;MIDI 01
154.794;000.113;63;000.555;MIDI 01
154.885;000.098;60;000.617;MIDI 01
154.954;000.044;57;000.555;MIDI 01
155.043;000.094;55;000.477;MIDI 01
155.143;000.070;54;000.586;MIDI 01
155.240;000.090;51;000.562;MIDI 01
155.387;000.047;54;000.555;MIDI 01
155.392;000.053;43;000.625;MIDI 01
155.395;000.051;60;000.523;MIDI 01
155.382;000.077;63;000.594;MIDI 01
155.384;000.077;36;000.633;MIDI 01
155.958;000.043;55;000.414;MIDI 01
155.968;000.035;63;000.414;MIDI 01
155.979;000.036;60;000.367;MIDI 01
155.966;000.065;42;000.500;MIDI 01
155.983;000.050;36;000.352;MIDI 01
155.990;000.059;67;000.062;MIDI 01
156.168;000.044;51;000.578;MIDI 01
156.172;000.059;36;000.492;MIDI 01
156.173;000.060;43;000.492;MIDI 01
156.199;000.044;60;000.148;MIDI 01
156.166;000.079;63;000.375;MIDI 01
156.216;000.050;59;000.172;MIDI 01
156.674;000.033;55;000.453;MIDI 01
156.677;000.034;63;000.469;MIDI 01
156.679;000.034;67;000.336;MIDI 01
156.685;000.033;60;000.406;MIDI 01
156.664;000.069;36;000.391;MIDI 01
156.666;000.076;42;000.531;MIDI 01
156.886;000.045;51;000.609;MIDI 01
156.881;000.057;43;000.633;MIDI 01
156.884;000.056;60;000.445;MIDI 01
156.881;000.078;36;000.570;MIDI 01
156.882;000.084;63;000.492;MIDI 01
157.377;000.020;67;000.406;MIDI 01
157.375;000.027;63;000.492;MIDI 01
157.371;000.045;55;000.570;MIDI 01
157.366;000.058;31;000.602;MIDI 01
157.373;000.054;43;000.641;MIDI 01
157.621;000.030;32;000.688;MIDI 01
157.626;000.026;51;000.672;MIDI 01
157.619;000.036;44;000.820;MIDI 01
157.620;000.049;59;000.633;MIDI 01
157.623;000.062;63;000.617;MIDI 01
158.021;000.056;68;000.672;MIDI 01
158.023;000.058;71;000.633;MIDI 01
158.017;000.067;63;000.672;MIDI 01
158.009;000.076;51;000.547;MIDI 01
158.011;000.089;56;000.578;MIDI 01
158.019;000.083;75;000.664;MIDI 01
158.090;000.067;59;000.047;MIDI 01
158.202;000.034;50;000.492;MIDI 01
158.195;000.051;62;000.609;MIDI 01
158.220;000.030;56;000.391;MIDI 01
158.257;000.070;52;000.078;MIDI 01
158.382;000.045;61;000.586;MIDI 01
158.376;000.054;49;000.539;MIDI 01
158.401;000.039;51;000.453;MIDI 01
158.553;000.046;48;000.633;MIDI 01
158.545;000.056;60;000.656;MIDI 01
158.533;000.091;63;000.516;MIDI 01
158.589;000.047;51;000.188;MIDI 01
158.773;000.002;48;000.094;MIDI 01
158.718;000.069;56;000.664;MIDI 01
158.706;000.101;63;000.656;MIDI 01
158.766;000.046;49;000.258;MIDI 01
158.700;000.129;59;000.742;MIDI 01
158.703;000.172;47;000.672;MIDI 01
158.867;000.036;51;000.570;MIDI 01
159.043;000.023;50;000.656;MIDI 01
159.053;000.032;38;000.594;MIDI 01
159.090;000.059;40;000.117;MIDI 01
159.199;000.042;49;000.688;MIDI 01
159.201;000.050;37;000.602;MIDI 01
159.195;000.058;51;000.547;MIDI 01
159.239;000.027;52;000.445;MIDI 01
159.382;000.034;44;000.648;MIDI 01
159.410;000.047;37;000.266;MIDI 01
159.369;000.091;47;000.758;MIDI 01
159.376;000.085;51;000.648;MIDI 01
159.377;000.176;35;000.703;MIDI 01
159.534;000.042;39;000.633;MIDI 01
159.854;000.068;47;000.703;MIDI 01
159.910;000.035;56;000.320;MIDI 01
159.853;000.161;59;000.680;MIDI 01
159.855;000.210;23;000.719;MIDI 01
159.852;000.218;35;000.781;MIDI 01
160.718;000.031;55;000.672;MIDI 01
160.353;000.408;83;000.750;MIDI 01
160.720;000.044;67;000.766;MIDI 01
160.719;000.052;64;000.703;MIDI 01
160.716;000.062;61;000.719;MIDI 01
160.714;000.069;58;000.641;MIDI 01
160.744;000.121;94;000.680;MIDI 01
160.533;000.353;95;000.734;MIDI 01
160.857;000.129;91;000.672;MIDI 01
160.969;000.053;88;000.703;MIDI 01
161.085;000.100;85;000.648;MIDI 01
161.201;000.071;82;000.602;MIDI 01
161.284;000.037;79;000.656;MIDI 01
161.386;000.175;76;000.664;MIDI 01
161.498;000.126;73;000.570;MIDI 01
161.572;000.092;70;000.641;MIDI 01
161.655;000.048;67;000.648;MIDI 01
161.750;000.091;66;000.562;MIDI 01
161.812;000.107;64;000.547;MIDI 01
161.907;000.023;61;000.648;MIDI 01
162.030;000.058;61;000.141;MIDI 01
162.009;000.153;58;000.648;MIDI 01
162.114;000.105;55;000.570;MIDI 01
162.218;000.105;54;000.633;MIDI 01
162.300;000.066;52;000.664;MIDI 01
162.457;000.159;28;000.719;MIDI 01
162.461;000.188;40;000.758;MIDI 01
162.878;000.200;76;000.750;MIDI 01
162.881;000.346;48;000.523;MIDI 01
163.147;000.090;60;000.680;MIDI 01
163.143;000.158;57;000.609;MIDI 01
163.150;000.185;52;000.594;MIDI 01
163.350;000.026;48;000.414;MIDI 01
163.142;000.243;84;000.727;MIDI 01
163.140;000.309;81;000.711;MIDI 01
163.127;000.341;76;000.656;MIDI 01
163.588;000.086;40;000.680;MIDI 01
163.145;000.669;72;000.750;MIDI 01
163.754;000.153;76;000.680;MIDI 01
163.766;000.203;28;000.695;MIDI 01
163.955;000.025;77;000.539;MIDI 01
163.946;000.041;40;000.695;MIDI 01
163.942;000.082;76;000.445;MIDI 01
164.186;000.064;48;000.562;MIDI 01
163.933;000.350;83;000.695;MIDI 01
163.944;000.360;79;000.570;MIDI 01
164.345;000.035;52;000.523;MIDI 01
164.341;000.042;57;000.578;MIDI 01
163.931;000.484;72;000.711;MIDI 01
163.940;000.497;71;000.758;MIDI 01
164.351;000.109;60;000.609;MIDI 01
164.460;000.069;52;000.672;MIDI 01
164.501;000.034;49;000.453;MIDI 01
164.488;000.053;48;000.547;MIDI 01
164.534;000.066;72;000.562;MIDI 01
164.530;000.095;76;000.625;MIDI 01
164.683;000.066;40;000.734;MIDI 01
164.693;000.271;81;000.688;MIDI 01
164.699;000.298;76;000.531;MIDI 01
164.688;000.347;77;000.680;MIDI 01
164.691;000.353;72;000.672;MIDI 01
164.898;000.154;29;000.555;MIDI 01
164.887;000.167;28;000.695;MIDI 01
165.048;000.039;40;000.727;MIDI 01
164.697;000.486;69;000.727;MIDI 01
165.246;000.036;69;000.406;MIDI 01
165.257;000.035;73;000.414;MIDI 01
165.251;000.092;72;000.555;MIDI 01
165.256;000.126;48;000.539;MIDI 01
165.454;000.025;74;000.633;MIDI 01
165.466;000.025;77;000.406;MIDI 01
165.435;000.057;60;000.703;MIDI 01
165.445;000.071;72;000.594;MIDI 01
165.474;000.047;73;000.203;MIDI 01
165.431;000.120;57;000.672;MIDI 01
165.441;000.166;52;000.602;MIDI 01
165.588;000.045;48;000.539;MIDI 01
165.439;000.346;79;000.695;MIDI 01
165.422;000.450;69;000.688;MIDI 01
165.796;000.093;40;000.641;MIDI 01
165.443;000.449;76;000.562;MIDI 01
165.866;000.061;32;000.156;MIDI 01
165.433;000.536;67;000.742;MIDI 01
165.978;000.074;69;000.508;MIDI 01
165.980;000.117;72;000.625;MIDI 01
165.969;000.154;28;000.703;MIDI 01
166.131;000.048;40;000.719;MIDI 01
166.157;000.057;72;000.484;MIDI 01
166.357;000.079;48;000.648;MIDI 01
166.141;000.365;77;000.672;MIDI 01
166.525;000.030;52;000.477;MIDI 01
166.512;000.059;57;000.578;MIDI 01
166.149;000.460;69;000.609;MIDI 01
166.528;000.116;60;000.609;MIDI 01
166.139;000.557;74;000.695;MIDI 01
166.623;000.085;52;000.602;MIDI 01
166.147;000.577;65;000.711;MIDI 01
166.696;000.031;48;000.656;MIDI 01
166.701;000.052;69;000.422;MIDI 01
166.694;000.218;72;000.562;MIDI 01
166.841;000.075;76;000.641;MIDI 01
166.865;000.066;40;000.641;MIDI 01
166.951;000.066;38;000.062;MIDI 01
166.853;000.167;64;000.602;MIDI 01
167.017;000.035;28;000.617;MIDI 01
166.859;000.293;69;000.531;MIDI 01
167.279;000.032;67;000.359;MIDI 01
167.280;000.053;70;000.242;MIDI 01
167.252;000.083;72;000.602;MIDI 01
167.416;000.033;66;000.438;MIDI 01
167.421;000.030;69;000.422;MIDI 01
167.418;000.042;60;000.422;MIDI 01
167.596;000.047;66;000.320;MIDI 01
167.582;000.086;69;000.461;MIDI 01
167.762;000.032;52;000.492;MIDI 01
167.783;000.045;60;000.250;MIDI 01
167.942;000.027;81;000.539;MIDI 01
168.283;000.031;66;000.500;MIDI 01
168.308;000.044;69;000.312;MIDI 01
168.469;000.026;60;000.375;MIDI 01
168.471;000.027;68;000.445;MIDI 01
168.275;000.420;72;000.555;MIDI 01
168.604;000.095;68;000.516;MIDI 01
168.653;000.054;62;000.211;MIDI 01
168.820;000.067;53;000.070;MIDI 01
168.932;000.043;80;000.648;MIDI 01
169.265;000.039;68;000.492;MIDI 01
169.407;000.033;59;000.453;MIDI 01
169.433;000.046;64;000.203;MIDI 01
169.247;000.353;72;000.602;MIDI 01
169.579;000.051;67;000.562;MIDI 01
169.608;000.042;64;000.297;MIDI 01
169.723;000.036;52;000.359;MIDI 01
169.916;000.025;79;000.586;MIDI 01
170.234;000.036;64;000.414;MIDI 01
170.240;000.040;67;000.336;MIDI 01
170.382;000.027;66;000.516;MIDI 01
170.389;000.040;58;000.484;MIDI 01
170.220;000.292;72;000.586;MIDI 01
170.564;000.028;58;000.391;MIDI 01
170.544;000.061;66;000.430;MIDI 01
170.695;000.028;58;000.531;MIDI 01
170.689;000.067;48;000.523;MIDI 01
170.912;000.116;78;000.609;MIDI 01
171.319;000.039;53;000.562;MIDI 01
171.325;000.041;41;000.602;MIDI 01
171.338;000.046;29;000.336;MIDI 01
171.598;000.056;48;000.555;MIDI 01
171.622;000.034;72;000.508;MIDI 01
171.599;000.078;57;000.602;MIDI 01
171.611;000.172;84;000.664;MIDI 01
171.746;000.070;75;000.594;MIDI 01
171.748;000.082;81;000.641;MIDI 01
171.743;000.108;62;000.555;MIDI 01
171.861;000.086;63;000.562;MIDI 01
171.929;000.059;66;000.664;MIDI 01
172.039;000.096;69;000.602;MIDI 01
172.106;000.123;72;000.578;MIDI 01
172.222;000.024;75;000.586;MIDI 01
172.390;000.073;90;000.766;MIDI 01
172.399;000.066;78;000.789;MIDI 01
172.394;000.072;54;000.641;MIDI 01
172.396;000.081;66;000.766;MIDI 01
172.764;000.018;83;000.477;MIDI 01
172.761;000.040;71;000.570;MIDI 01
172.759;000.043;75;000.578;MIDI 01
172.775;000.029;69;000.453;MIDI 01
172.764;000.056;59;000.508;MIDI 01
172.773;000.049;63;000.492;MIDI 01
173.117;000.039;58;000.500;MIDI 01
173.116;000.049;51;000.516;MIDI 01
173.142;000.047;63;000.484;MIDI 01
173.124;000.066;70;000.570;MIDI 01
173.502;000.039;29;000.633;MIDI 01
173.506;000.036;53;000.633;MIDI 01
173.504;000.065;41;000.664;MIDI 01
173.803;000.026;63;000.539;MIDI 01
173.807;000.024;72;000.500;MIDI 01
173.786;000.052;57;000.523;MIDI 01
173.983;000.043;60;000.547;MIDI 01
173.975;000.141;66;000.570;MIDI 01
174.082;000.064;63;000.539;MIDI 01
174.179;000.025;61;000.555;MIDI 01
174.294;000.057;60;000.523;MIDI 01
173.784;000.633;48;000.539;MIDI 01
174.412;000.060;57;000.484;MIDI 01
174.477;000.042;54;000.602;MIDI 01
173.957;000.635;69;000.680;MIDI 01
174.623;000.059;51;000.695;MIDI 01
174.608;000.096;63;000.578;MIDI 01
174.629;000.116;39;000.664;MIDI 01
174.733;000.066;59;000.625;MIDI 01
174.776;000.107;47;000.430;MIDI 01
174.868;000.047;58;000.594;MIDI 01
174.871;000.073;46;000.625;MIDI 01
174.967;000.051;57;000.562;MIDI 01
174.985;000.086;45;000.602;MIDI 01
175.119;000.036;41;000.484;MIDI 01
175.076;000.118;54;000.508;MIDI 01
175.192;000.045;51;000.523;MIDI 01
175.194;000.058;39;000.438;MIDI 01
175.277;000.075;48;000.570;MIDI 01
175.384;000.128;46;000.578;MIDI 01
175.492;000.039;45;000.680;MIDI 01
175.595;000.127;29;000.688;MIDI 01
175.674;000.061;32;000.141;MIDI 01
175.604;000.162;41;000.727;MIDI 01
176.015;000.280;49;000.641;MIDI 01
176.259;000.051;61;000.625;MIDI 01
176.258;000.100;58;000.609;MIDI 01
176.021;000.389;77;000.695;MIDI 01
176.250;000.188;85;000.727;MIDI 01
176.256;000.197;53;000.555;MIDI 01
176.265;000.238;82;000.664;MIDI 01
176.473;000.032;49;000.484;MIDI 01
176.267;000.396;73;000.719;MIDI 01
176.670;000.091;41;000.625;MIDI 01
176.722;000.041;40;000.391;MIDI 01
176.859;000.056;73;000.375;MIDI 01
176.868;000.055;32;000.344;MIDI 01
176.828;000.188;29;000.688;MIDI 01
177.030;000.002;83;000.430;MIDI 01
177.009;000.037;41;000.734;MIDI 01
177.022;000.027;75;000.523;MIDI 01
177.210;000.134;49;000.656;MIDI 01
176.843;000.526;77;000.508;MIDI 01
177.006;000.385;84;000.664;MIDI 01
177.367;000.035;61;000.641;MIDI 01
177.373;000.060;58;000.562;MIDI 01
177.014;000.445;73;000.602;MIDI 01
177.386;000.074;53;000.328;MIDI 01
177.008;000.497;72;000.703;MIDI 01
177.002;000.503;80;000.641;MIDI 01
177.485;000.025;61;000.555;MIDI 01
177.483;000.088;53;000.484;MIDI 01
177.534;000.047;49;000.453;MIDI 01
177.597;000.042;73;000.414;MIDI 01
177.536;000.127;77;000.500;MIDI 01
177.740;000.061;41;000.617;MIDI 01
177.787;000.026;80;000.352;MIDI 01
177.908;000.152;29;000.680;MIDI 01
177.733;000.361;82;000.625;MIDI 01
178.064;000.039;41;000.742;MIDI 01
177.731;000.384;73;000.695;MIDI 01
178.011;000.106;32;000.023;MIDI 01
177.738;000.420;78;000.633;MIDI 01
177.735;000.572;70;000.711;MIDI 01
178.254;000.057;49;000.648;MIDI 01
178.259;000.115;73;000.594;MIDI 01
178.435;000.068;61;000.727;MIDI 01
178.434;000.155;58;000.633;MIDI 01
178.425;000.186;53;000.594;MIDI 01
178.602;000.050;49;000.578;MIDI 01
178.421;000.390;80;000.695;MIDI 01
178.423;000.426;77;000.641;MIDI 01
178.429;000.433;70;000.664;MIDI 01
178.806;000.060;41;000.633;MIDI 01
178.431;000.451;68;000.719;MIDI 01
178.990;000.037;70;000.531;MIDI 01
178.970;000.125;73;000.594;MIDI 01
179.009;000.089;32;000.273;MIDI 01
178.949;000.167;29;000.680;MIDI 01
179.116;000.032;41;000.719;MIDI 01
179.221;000.026;41;000.344;MIDI 01
179.305;000.075;49;000.648;MIDI 01
179.464;000.023;61;000.672;MIDI 01
179.468;000.032;58;000.594;MIDI 01
179.468;000.048;53;000.484;MIDI 01
179.122;000.419;70;000.664;MIDI 01
179.578;000.072;61;000.297;MIDI 01
179.120;000.532;78;000.648;MIDI 01
179.576;000.078;58;000.586;MIDI 01
179.133;000.523;66;000.672;MIDI 01
179.641;000.042;54;000.281;MIDI 01
179.125;000.577;75;000.625;MIDI 01
179.600;000.106;53;000.578;MIDI 01
179.690;000.050;70;000.172;MIDI 01
179.685;000.057;73;000.422;MIDI 01
179.724;000.020;49;000.508;MIDI 01
179.819;000.040;73;000.375;MIDI 01
179.815;000.051;70;000.562;MIDI 01
179.795;000.084;77;000.672;MIDI 01
179.863;000.052;40;000.633;MIDI 01
179.814;000.126;65;000.625;MIDI 01
180.020;000.037;28;000.445;MIDI 01
180.206;000.052;68;000.516;MIDI 01
180.184;000.115;71;000.570;MIDI 01
180.325;000.044;67;000.586;MIDI 01
180.428;000.086;66;000.500;MIDI 01
180.202;000.339;73;000.516;MIDI 01
180.537;000.086;67;000.555;MIDI 01
180.531;000.102;65;000.531;MIDI 01
180.529;000.154;70;000.586;MIDI 01
180.606;000.146;64;000.312;MIDI 01
180.734;000.025;61;000.547;MIDI 01
180.885;000.026;53;000.516;MIDI 01
180.846;000.070;82;000.648;MIDI 01
181.153;000.065;67;000.523;MIDI 01
181.262;000.082;66;000.516;MIDI 01
181.141;000.254;73;000.586;MIDI 01
181.160;000.260;70;000.500;MIDI 01
181.355;000.088;65;000.539;MIDI 01
181.486;000.047;66;000.492;MIDI 01
181.475;000.077;69;000.562;MIDI 01
181.478;000.114;64;000.414;MIDI 01
181.645;000.032;61;000.500;MIDI 01
181.544;000.145;62;000.469;MIDI 01
181.699;000.042;60;000.320;MIDI 01
181.789;000.060;81;000.641;MIDI 01
181.826;000.029;53;000.523;MIDI 01
182.129;000.054;66;000.461;MIDI 01
182.230;000.098;65;000.508;MIDI 01
182.109;000.304;73;000.555;MIDI 01
182.139;000.295;69;000.523;MIDI 01
182.338;000.097;64;000.453;MIDI 01
182.440;000.041;63;000.477;MIDI 01
182.465;000.018;65;000.484;MIDI 01
182.447;000.090;68;000.555;MIDI 01
182.552;000.122;62;000.516;MIDI 01
182.668;000.088;61;000.445;MIDI 01
182.755;000.037;80;000.609;MIDI 01
182.765;000.062;53;000.500;MIDI 01
183.096;000.058;65;000.398;MIDI 01
183.086;000.119;68;000.422;MIDI 01
183.060;000.222;73;000.562;MIDI 01
183.182;000.105;62;000.445;MIDI 01
183.295;000.084;61;000.531;MIDI 01
183.383;000.031;64;000.461;MIDI 01
183.387;000.051;67;000.461;MIDI 01
183.424;000.073;60;000.500;MIDI 01
183.515;000.127;59;000.438;MIDI 01
183.635;000.043;49;000.555;MIDI 01
183.718;000.125;79;000.609;MIDI 01
184.107;000.041;30;000.539;MIDI 01
184.108;000.042;42;000.617;MIDI 01
184.110;000.042;54;000.555;MIDI 01
184.386;000.042;85;000.648;MIDI 01
184.398;000.039;73;000.578;MIDI 01
184.384;000.124;49;000.602;MIDI 01
184.580;000.014;70;000.570;MIDI 01
184.584;000.024;76;000.430;MIDI 01
184.551;000.073;82;000.672;MIDI 01
184.541;000.146;58;000.547;MIDI 01
184.615;000.135;61;000.570;MIDI 01
184.732;000.043;64;000.633;MIDI 01
184.843;000.111;67;000.602;MIDI 01
184.927;000.114;70;000.523;MIDI 01
185.032;000.041;73;000.586;MIDI 01
185.198;000.050;91;000.781;MIDI 01
185.196;000.064;55;000.633;MIDI 01
185.210;000.051;79;000.797;MIDI 01
185.240;000.037;90;000.352;MIDI 01
185.206;000.073;67;000.766;MIDI 01
185.574;000.026;70;000.594;MIDI 01
185.572;000.028;84;000.523;MIDI 01
185.580;000.028;76;000.602;MIDI 01
185.582;000.036;64;000.555;MIDI 01
185.584;000.036;72;000.570;MIDI 01
185.566;000.058;60;000.578;MIDI 01
185.605;000.033;83;000.398;MIDI 01
185.952;000.022;64;000.477;MIDI 01
185.950;000.026;59;000.523;MIDI 01
185.941;000.058;71;000.586;MIDI 01
185.948;000.074;52;000.547;MIDI 01
186.359;000.043;54;000.648;MIDI 01
186.357;000.048;30;000.609;MIDI 01
186.361;000.053;42;000.672;MIDI 01
186.648;000.032;64;000.625;MIDI 01
186.651;000.032;73;000.633;MIDI 01
186.637;000.086;58;000.633;MIDI 01
186.823;000.032;61;000.656;MIDI 01
186.816;000.150;70;000.703;MIDI 01
186.928;000.074;64;000.508;MIDI 01
186.641;000.378;49;000.562;MIDI 01
187.031;000.076;62;000.562;MIDI 01
187.128;000.069;61;000.602;MIDI 01
187.220;000.081;58;000.531;MIDI 01
187.297;000.037;55;000.531;MIDI 01
187.461;000.077;64;000.656;MIDI 01
187.459;000.117;52;000.711;MIDI 01
187.464;000.141;40;000.688;MIDI 01
187.601;000.041;60;000.484;MIDI 01
187.603;000.147;48;000.602;MIDI 01
187.696;000.110;59;000.562;MIDI 01
187.801;000.048;58;000.555;MIDI 01
187.725;000.152;47;000.578;MIDI 01
187.833;000.072;46;000.633;MIDI 01
187.905;000.048;55;000.508;MIDI 01
188.033;000.032;52;000.516;MIDI 01
188.119;000.096;48;000.570;MIDI 01
188.208;000.132;47;000.562;MIDI 01
188.347;000.042;45;000.492;MIDI 01
188.436;000.096;30;000.672;MIDI 01
188.440;000.101;42;000.742;MIDI 01
188.501;000.060;32;000.188;MIDI 01
188.858;000.250;78;000.750;MIDI 01
188.840;000.342;50;000.523;MIDI 01
189.145;000.080;62;000.648;MIDI 01
189.142;000.189;59;000.609;MIDI 01
189.135;000.233;54;000.562;MIDI 01
189.339;000.049;50;000.516;MIDI 01
189.133;000.322;83;000.695;MIDI 01
189.135;000.335;86;000.719;MIDI 01
189.132;000.606;74;000.711;MIDI 01
189.554;000.197;42;000.734;MIDI 01
189.783;000.069;32;000.195;MIDI 01
189.746;000.120;78;000.555;MIDI 01
189.717;000.218;30;000.688;MIDI 01
189.917;000.051;42;000.727;MIDI 01
189.953;000.019;74;000.453;MIDI 01
189.945;000.055;75;000.477;MIDI 01
190.129;000.114;50;000.648;MIDI 01
189.919;000.378;85;000.688;MIDI 01
190.297;000.037;59;000.555;MIDI 01
190.309;000.029;54;000.539;MIDI 01
190.342;000.002;58;000.344;MIDI 01
189.977;000.367;80;000.328;MIDI 01
190.315;000.030;62;000.578;MIDI 01
189.948;000.406;81;000.477;MIDI 01
189.920;000.500;73;000.766;MIDI 01
190.440;000.048;59;000.398;MIDI 01
190.417;000.080;54;000.672;MIDI 01
190.493;000.035;50;000.531;MIDI 01
190.470;000.062;60;000.094;MIDI 01
190.509;000.061;78;000.477;MIDI 01
190.565;000.042;74;000.281;MIDI 01
190.700;000.025;42;000.430;MIDI 01
190.660;000.111;44;000.672;MIDI 01
190.931;000.043;29;000.414;MIDI 01
190.867;000.171;30;000.672;MIDI 01
190.667;000.381;74;000.680;MIDI 01
190.654;000.398;83;000.695;MIDI 01
191.012;000.050;42;000.703;MIDI 01
190.652;000.416;79;000.672;MIDI 01
190.658;000.554;71;000.719;MIDI 01
191.218;000.071;50;000.641;MIDI 01
191.239;000.113;74;000.656;MIDI 01
191.431;000.071;62;000.664;MIDI 01
191.420;000.149;59;000.672;MIDI 01
191.424;000.196;54;000.602;MIDI 01
191.589;000.050;50;000.500;MIDI 01
191.422;000.349;81;000.711;MIDI 01
191.411;000.379;78;000.688;MIDI 01
191.789;000.123;42;000.672;MIDI 01
191.426;000.500;69;000.781;MIDI 01
191.428;000.648;71;000.648;MIDI 01
191.939;000.186;30;000.664;MIDI 01
192.095;000.054;42;000.758;MIDI 01
192.312;000.090;50;000.680;MIDI 01
191.936;000.469;74;000.578;MIDI 01
192.473;000.039;50;000.438;MIDI 01
192.113;000.419;79;000.672;MIDI 01
192.507;000.026;62;000.602;MIDI 01
192.488;000.055;59;000.648;MIDI 01
192.114;000.431;71;000.531;MIDI 01
192.501;000.046;54;000.609;MIDI 01
192.117;000.454;67;000.664;MIDI 01
192.110;000.472;76;000.672;MIDI 01
192.606;000.044;62;000.594;MIDI 01
192.646;000.024;60;000.453;MIDI 01
192.635;000.065;59;000.469;MIDI 01
192.627;000.135;54;000.633;MIDI 01
192.729;000.044;50;000.508;MIDI 01
192.688;000.089;71;000.570;MIDI 01
192.682;000.117;74;000.594;MIDI 01
192.845;000.033;78;000.688;MIDI 01
192.848;000.047;66;000.781;MIDI 01
192.895;000.206;42;000.688;MIDI 01
193.086;000.033;30;000.641;MIDI 01
193.088;000.048;32;000.477;MIDI 01
193.312;000.071;32;000.172;MIDI 01
193.396;000.151;26;000.727;MIDI 01
193.404;000.170;38;000.758;MIDI 01
193.393;000.193;53;000.711;MIDI 01
193.398;000.240;58;000.680;MIDI 01
193.402;000.262;62;000.664;MIDI 01
193.384;000.310;65;000.695;MIDI 01
194.129;000.031;74;000.586;MIDI 01
193.822;000.345;46;000.688;MIDI 01
194.127;000.045;77;000.625;MIDI 01
194.089;000.085;54;000.445;MIDI 01
194.153;000.049;49;000.242;MIDI 01
194.233;000.054;62;000.734;MIDI 01
194.227;000.162;58;000.703;MIDI 01
194.108;000.328;53;000.531;MIDI 01
194.218;000.222;86;000.781;MIDI 01
194.230;000.228;54;000.125;MIDI 01
194.221;000.240;77;000.641;MIDI 01
194.214;000.251;82;000.734;MIDI 01
194.223;000.255;74;000.789;MIDI 01
194.429;000.055;46;000.609;MIDI 01
194.469;000.047;49;000.234;MIDI 01
194.609;000.051;40;000.680;MIDI 01
194.657;000.092;32;000.398;MIDI 01
194.700;000.078;30;000.086;MIDI 01
194.832;000.059;77;000.523;MIDI 01
194.798;000.097;28;000.578;MIDI 01
194.782;000.118;26;000.688;MIDI 01
194.899;000.025;28;000.023;MIDI 01
194.963;000.002;78;000.453;MIDI 01
194.949;000.031;80;000.523;MIDI 01
194.947;000.041;79;000.602;MIDI 01
194.939;000.054;41;000.789;MIDI 01
194.935;000.061;81;000.578;MIDI 01
194.941;000.059;83;000.641;MIDI 01
194.928;000.075;77;000.586;MIDI 01
194.932;000.118;84;000.773;MIDI 01
194.930;000.167;72;000.812;MIDI 01
195.028;000.072;83;000.094;MIDI 01
194.924;000.295;74;000.578;MIDI 01
195.209;000.056;50;000.062;MIDI 01
195.193;000.075;53;000.344;MIDI 01
195.302;000.039;62;000.688;MIDI 01
195.308;000.117;58;000.617;MIDI 01
195.341;000.149;53;000.023;MIDI 01
195.485;000.044;49;000.430;MIDI 01
195.465;000.067;46;000.656;MIDI 01
195.494;000.062;74;000.586;MIDI 01
195.490;000.097;77;000.570;MIDI 01
195.576;000.052;79;000.078;MIDI 01
195.661;000.034;40;000.562;MIDI 01
195.664;000.039;38;000.609;MIDI 01
195.706;000.085;32;000.234;MIDI 01
195.634;000.194;74;000.695;MIDI 01
195.632;000.225;79;000.305;MIDI 01
195.636;000.226;82;000.688;MIDI 01
195.639;000.256;70;000.750;MIDI 01
195.832;000.146;26;000.727;MIDI 01
195.958;000.044;38;000.789;MIDI 01
196.180;000.022;64;000.453;MIDI 01
196.193;000.040;52;000.320;MIDI 01
196.200;000.052;46;000.258;MIDI 01
196.165;000.090;74;000.625;MIDI 01
196.219;000.046;53;000.312;MIDI 01
196.228;000.050;70;000.172;MIDI 01
196.318;000.027;62;000.742;MIDI 01
196.314;000.075;74;000.602;MIDI 01
196.345;000.047;54;000.445;MIDI 01
196.320;000.104;58;000.727;MIDI 01
196.308;000.140;70;000.609;MIDI 01
196.336;000.141;53;000.469;MIDI 01
196.316;000.170;81;000.719;MIDI 01
196.514;000.034;46;000.570;MIDI 01
196.303;000.260;69;000.828;MIDI 01
196.325;000.248;79;000.664;MIDI 01
196.295;000.310;77;000.672;MIDI 01
196.475;000.143;70;000.289;MIDI 01
196.703;000.053;40;000.586;MIDI 01
196.709;000.050;38;000.555;MIDI 01
196.726;000.048;32;000.453;MIDI 01
196.757;000.040;34;000.281;MIDI 01
196.770;000.066;30;000.086;MIDI 01
196.895;000.054;28;000.430;MIDI 01
196.876;000.082;74;000.727;MIDI 01
196.936;000.062;29;000.094;MIDI 01
196.866;000.157;26;000.648;MIDI 01
197.011;000.032;74;000.500;MIDI 01
197.017;000.034;70;000.602;MIDI 01
197.003;000.052;38;000.844;MIDI 01
197.009;000.118;79;000.695;MIDI 01
197.007;000.197;67;000.727;MIDI 01
196.999;000.264;75;000.695;MIDI 01
197.241;000.037;49;000.422;MIDI 01
197.248;000.037;46;000.289;MIDI 01
197.260;000.052;53;000.367;MIDI 01
197.373;000.039;62;000.664;MIDI 01
197.440;000.002;54;000.055;MIDI 01
197.412;000.043;57;000.500;MIDI 01
197.400;000.090;58;000.367;MIDI 01
197.378;000.161;53;000.328;MIDI 01
197.536;000.024;47;000.562;MIDI 01
197.569;000.043;49;000.281;MIDI 01
197.575;000.039;70;000.594;MIDI 01
197.566;000.066;74;000.695;MIDI 01
197.728;000.036;40;000.586;MIDI 01
197.764;000.002;75;000.180;MIDI 01
197.771;000.002;67;000.062;MIDI 01
197.726;000.067;38;000.578;MIDI 01
197.769;000.089;32;000.352;MIDI 01
197.706;000.183;65;000.648;MIDI 01
197.704;000.204;74;000.680;MIDI 01
197.695;000.278;70;000.625;MIDI 01
197.896;000.119;26;000.672;MIDI 01
197.697;000.330;77;000.703;MIDI 01
198.019;000.032;38;000.742;MIDI 01
198.071;000.001;36;000.242;MIDI 01
198.128;000.049;38;000.289;MIDI 01
198.215;000.048;66;000.523;MIDI 01
198.221;000.080;54;000.555;MIDI 01
198.389;000.103;64;000.516;MIDI 01
198.396;000.118;76;000.500;MIDI 01
198.400;000.141;60;000.438;MIDI 01
198.564;000.101;55;000.539;MIDI 01
198.626;000.046;67;000.445;MIDI 01
198.501;000.213;81;000.383;MIDI 01
198.741;000.081;65;000.492;MIDI 01
198.749;000.117;77;000.477;MIDI 01
198.734;000.143;61;000.453;MIDI 01
198.853;000.102;57;000.547;MIDI 01
198.858;000.116;81;000.500;MIDI 01
198.954;000.067;69;000.375;MIDI 01
199.049;000.049;66;000.555;MIDI 01
199.043;000.154;62;000.453;MIDI 01
199.056;000.150;78;000.484;MIDI 01
199.052;000.159;74;000.438;MIDI 01
199.173;000.050;81;000.555;MIDI 01
199.171;000.114;58;000.477;MIDI 01
199.284;000.091;70;000.578;MIDI 01
199.324;000.130;67;000.547;MIDI 01
199.373;000.108;78;000.500;MIDI 01
199.391;000.110;62;000.289;MIDI 01
199.492;000.064;82;000.406;MIDI 01
199.470;000.120;59;000.562;MIDI 01
199.665;000.025;62;000.570;MIDI 01
199.666;000.026;68;000.477;MIDI 01
199.550;000.149;71;000.477;MIDI 01
199.660;000.099;74;000.547;MIDI 01
199.690;000.109;78;000.531;MIDI 01
199.791;000.112;83;000.539;MIDI 01
199.960;000.042;40;000.578;MIDI 01
199.958;000.044;47;000.602;MIDI 01
200.165;000.077;67;000.492;MIDI 01
200.179;000.065;55;000.562;MIDI 01
200.294;000.045;74;000.422;MIDI 01
200.342;000.036;66;000.570;MIDI 01
200.298;000.084;62;000.516;MIDI 01
200.315;000.106;78;000.508;MIDI 01
200.405;000.133;83;000.523;MIDI 01
200.479;000.079;57;000.508;MIDI 01
200.505;000.066;69;000.445;MIDI 01
200.657;000.054;75;000.117;MIDI 01
200.642;000.081;67;000.555;MIDI 01
200.619;000.107;79;000.516;MIDI 01
200.792;000.077;59;000.523;MIDI 01
200.702;000.180;83;000.555;MIDI 01
200.633;000.256;63;000.539;MIDI 01
200.863;000.058;71;000.445;MIDI 01
200.890;000.147;76;000.539;MIDI 01
200.979;000.070;68;000.562;MIDI 01
200.921;000.134;80;000.562;MIDI 01
200.925;000.183;64;000.445;MIDI 01
201.026;000.142;83;000.570;MIDI 01
201.147;000.066;72;000.492;MIDI 01
201.100;000.218;60;000.508;MIDI 01
201.239;000.101;79;000.586;MIDI 01
201.256;000.119;69;000.578;MIDI 01
201.228;000.149;76;000.430;MIDI 01
201.259;000.121;64;000.586;MIDI 01
201.322;000.086;84;000.555;MIDI 01
201.381;000.075;60;000.133;MIDI 01
201.391;000.123;62;000.297;MIDI 01
201.443;000.120;73;000.648;MIDI 01
201.607;000.033;70;000.539;MIDI 01
201.590;000.077;64;000.391;MIDI 01
201.628;000.041;62;000.367;MIDI 01
201.647;000.041;61;000.469;MIDI 01
201.578;000.168;76;000.492;MIDI 01
201.605;000.143;79;000.539;MIDI 01
201.719;000.030;85;000.617;MIDI 01
201.955;000.042;42;000.500;MIDI 01
201.968;000.055;30;000.398;MIDI 01
201.976;000.049;32;000.383;MIDI 01
202.122;000.118;61;000.516;MIDI 01
202.229;000.123;49;000.453;MIDI 01
202.344;000.069;69;000.391;MIDI 01
202.328;000.086;57;000.508;MIDI 01
202.330;000.216;73;000.531;MIDI 01
202.509;000.040;61;000.461;MIDI 01
202.537;000.046;42;000.570;MIDI 01
202.483;000.115;49;000.539;MIDI 01
202.693;000.052;58;000.523;MIDI 01
202.760;000.111;50;000.547;MIDI 01
202.896;000.031;44;000.430;MIDI 01
202.876;000.083;62;000.477;MIDI 01
202.695;000.315;70;000.562;MIDI 01
202.691;000.347;74;000.594;MIDI 01
203.048;000.040;43;000.539;MIDI 01
203.069;000.049;31;000.406;MIDI 01
203.225;000.090;62;000.555;MIDI 01
203.414;000.042;58;000.656;MIDI 01
203.290;000.183;50;000.461;MIDI 01
203.405;000.120;74;000.641;MIDI 01
203.412;000.121;70;000.617;MIDI 01
203.557;000.027;62;000.477;MIDI 01
203.596;000.082;43;000.586;MIDI 01
203.559;000.183;50;000.398;MIDI 01
203.757;000.068;59;000.562;MIDI 01
203.805;000.069;54;000.172;MIDI 01
203.841;000.101;51;000.562;MIDI 01
203.929;000.042;43;000.570;MIDI 01
203.908;000.140;63;000.508;MIDI 01
203.751;000.350;71;000.492;MIDI 01
203.743;000.368;75;000.625;MIDI 01
204.099;000.027;44;000.727;MIDI 01
204.101;000.028;32;000.664;MIDI 01
204.356;000.040;63;000.375;MIDI 01
204.447;000.052;50;000.258;MIDI 01
204.554;000.100;62;000.586;MIDI 01
204.556;000.178;75;000.609;MIDI 01
204.709;000.050;63;000.492;MIDI 01
204.558;000.206;71;000.547;MIDI 01
204.673;000.119;61;000.594;MIDI 01
204.824;000.086;60;000.555;MIDI 01
204.947;000.086;59;000.422;MIDI 01
205.022;000.046;64;000.555;MIDI 01
204.915;000.155;71;000.484;MIDI 01
205.031;000.084;58;000.531;MIDI 01
204.898;000.219;76;000.555;MIDI 01
205.167;000.077;57;000.492;MIDI 01
205.275;000.068;56;000.500;MIDI 01
205.235;000.122;72;000.508;MIDI 01
205.238;000.193;76;000.562;MIDI 01
205.406;000.029;64;000.352;MIDI 01
205.396;000.098;55;000.500;MIDI 01
205.531;000.096;54;000.492;MIDI 01
205.566;000.113;77;000.602;MIDI 01
205.660;000.107;53;000.516;MIDI 01
205.573;000.211;73;000.539;MIDI 01
205.909;000.052;78;000.445;MIDI 01
205.931;000.039;73;000.195;MIDI 01
205.938;000.043;66;000.234;MIDI 01
205.945;000.153;45;000.398;MIDI 01
205.943;000.160;50;000.383;MIDI 01
206.099;000.034;74;000.438;MIDI 01
206.133;000.033;54;000.352;MIDI 01
206.276;000.039;79;000.531;MIDI 01
206.302;000.150;62;000.477;MIDI 01
206.439;000.032;76;000.547;MIDI 01
206.466;000.037;73;000.336;MIDI 01
206.468;000.163;64;000.414;MIDI 01
206.626;000.047;66;000.422;MIDI 01
206.608;000.075;81;000.617;MIDI 01
206.741;000.044;67;000.367;MIDI 01
206.790;000.042;78;000.516;MIDI 01
206.843;000.035;69;000.492;MIDI 01
206.831;000.077;74;000.031;MIDI 01
206.945;000.054;61;000.484;MIDI 01
206.967;000.032;64;000.305;MIDI 01
206.963;000.076;82;000.602;MIDI 01
207.136;000.039;79;000.578;MIDI 01
207.158;000.023;76;000.445;MIDI 01
207.293;000.073;76;000.508;MIDI 01
207.359;000.035;73;000.289;MIDI 01
207.307;000.131;45;000.461;MIDI 01
207.408;000.050;52;000.359;MIDI 01
207.509;000.037;78;000.523;MIDI 01
207.517;000.042;55;000.375;MIDI 01
207.670;000.043;75;000.547;MIDI 01
207.668;000.060;79;000.562;MIDI 01
207.657;000.133;58;000.391;MIDI 01
207.808;000.064;61;000.445;MIDI 01
207.858;000.028;73;000.516;MIDI 01
207.877;000.023;76;000.391;MIDI 01
207.991;000.020;60;000.570;MIDI 01
207.999;000.025;63;000.531;MIDI 01
208.009;000.022;69;000.422;MIDI 01
207.993;000.078;81;000.664;MIDI 01
208.166;000.040;78;000.562;MIDI 01
208.177;000.035;75;000.398;MIDI 01
208.328;000.045;74;000.562;MIDI 01
208.343;000.034;67;000.406;MIDI 01
208.393;000.117;45;000.438;MIDI 01
208.463;000.062;52;000.391;MIDI 01
208.521;000.016;76;000.484;MIDI 01
208.534;000.052;73;000.273;MIDI 01
208.586;000.031;57;000.336;MIDI 01
208.683;000.062;78;000.586;MIDI 01
208.726;000.047;74;000.211;MIDI 01
208.695;000.081;58;000.453;MIDI 01
208.844;000.049;79;000.570;MIDI 01
208.846;000.128;61;000.375;MIDI 01
209.099;000.052;66;000.461;MIDI 01
209.086;000.076;62;000.367;MIDI 01
209.065;000.102;57;000.391;MIDI 01
209.071;000.158;81;000.555;MIDI 01
209.075;000.170;78;000.445;MIDI 01
209.264;000.048;69;000.547;MIDI 01
209.084;000.323;74;000.422;MIDI 01
209.403;000.074;46;000.594;MIDI 01
209.457;000.046;53;000.445;MIDI 01
209.494;000.029;70;000.477;MIDI 01
209.482;000.043;74;000.359;MIDI 01
209.447;000.080;56;000.547;MIDI 01
209.473;000.058;80;000.516;MIDI 01
209.521;000.021;62;000.492;MIDI 01
209.471;000.085;82;000.578;MIDI 01
209.754;000.025;82;000.062;MIDI 01
209.686;000.222;80;000.648;MIDI 01
209.701;000.244;66;000.648;MIDI 01
209.685;000.265;78;000.695;MIDI 01
209.707;000.269;71;000.641;MIDI 01
209.705;000.277;68;000.625;MIDI 01
209.912;000.126;80;000.102;MIDI 01
209.678;000.363;83;000.742;MIDI 01
210.141;000.098;76;000.688;MIDI 01
210.210;000.043;67;000.250;MIDI 01
210.149;000.150;71;000.672;MIDI 01
210.131;000.170;83;000.695;MIDI 01
210.146;000.168;80;000.641;MIDI 01
210.151;000.164;78;000.539;MIDI 01
210.147;000.185;68;000.625;MIDI 01
210.139;000.321;64;000.680;MIDI 01
210.489;000.035;80;000.562;MIDI 01
210.482;000.051;83;000.562;MIDI 01
210.492;000.046;63;000.492;MIDI 01
210.517;000.028;68;000.430;MIDI 01
210.484;000.062;64;000.344;MIDI 01
210.486;000.065;71;000.625;MIDI 01
210.682;000.029;62;000.594;MIDI 01
210.682;000.035;83;000.641;MIDI 01
210.684;000.042;63;000.430;MIDI 01
210.680;000.057;74;000.688;MIDI 01
210.696;000.044;65;000.430;MIDI 01
210.684;000.062;95;000.688;MIDI 01
210.686;000.064;64;000.438;MIDI 01
210.661;000.091;68;000.477;MIDI 01
210.760;000.046;87;000.023;MIDI 01
210.764;000.046;94;000.023;MIDI 01
210.872;000.030;88;000.461;MIDI 01
210.843;000.062;83;000.664;MIDI 01
210.845;000.075;95;000.719;MIDI 01
210.889;000.035;73;000.500;MIDI 01
210.887;000.039;68;000.492;MIDI 01
210.874;000.054;61;000.531;MIDI 01
210.858;000.072;92;000.602;MIDI 01
210.876;000.071;64;000.469;MIDI 01
211.051;000.023;60;000.492;MIDI 01
211.032;000.046;72;000.641;MIDI 01
211.041;000.039;83;000.625;MIDI 01
211.034;000.051;68;000.547;MIDI 01
211.028;000.077;88;000.570;MIDI 01
211.036;000.071;95;000.703;MIDI 01
211.026;000.083;64;000.453;MIDI 01
211.043;000.068;92;000.633;MIDI 01
211.197;000.025;71;000.680;MIDI 01
211.207;000.031;95;000.680;MIDI 01
211.195;000.051;68;000.633;MIDI 01
211.213;000.043;61;000.414;MIDI 01
211.215;000.043;92;000.633;MIDI 01
211.184;000.074;64;000.523;MIDI 01
211.205;000.060;83;000.734;MIDI 01
211.194;000.081;59;000.672;MIDI 01
211.639;000.052;75;000.172;MIDI 01
211.588;000.128;47;000.383;MIDI 01
211.691;000.088;56;000.336;MIDI 01
211.782;000.029;76;000.438;MIDI 01
211.786;000.040;73;000.430;MIDI 01
211.601;000.229;80;000.453;MIDI 01
211.797;000.039;59;000.359;MIDI 01
211.953;000.044;81;000.547;MIDI 01
211.977;000.056;76;000.133;MIDI 01
211.955;000.103;64;000.438;MIDI 01
212.118;000.022;78;000.469;MIDI 01
212.129;000.034;75;000.367;MIDI 01
212.128;000.176;66;000.375;MIDI 01
212.277;000.049;78;000.422;MIDI 01
212.280;000.067;83;000.516;MIDI 01
212.297;000.096;68;000.469;MIDI 01
212.460;000.029;80;000.531;MIDI 01
212.472;000.038;69;000.453;MIDI 01
212.631;000.008;72;000.562;MIDI 01
212.633;000.019;80;000.391;MIDI 01
212.634;000.034;63;000.523;MIDI 01
212.625;000.056;84;000.609;MIDI 01
212.649;000.041;66;000.359;MIDI 01
212.792;000.048;81;000.555;MIDI 01
212.973;000.035;75;000.445;MIDI 01
212.963;000.048;78;000.406;MIDI 01
212.949;000.175;47;000.477;MIDI 01
213.130;000.037;54;000.375;MIDI 01
213.145;000.039;80;000.484;MIDI 01
213.160;000.032;78;000.281;MIDI 01
213.176;000.031;57;000.445;MIDI 01
213.299;000.035;78;000.461;MIDI 01
213.287;000.059;81;000.594;MIDI 01
213.316;000.092;60;000.469;MIDI 01
213.459;000.043;78;000.461;MIDI 01
213.456;000.081;63;000.508;MIDI 01
213.629;000.020;62;000.609;MIDI 01
213.631;000.018;71;000.602;MIDI 01
213.624;000.027;65;000.602;MIDI 01
213.622;000.076;83;000.633;MIDI 01
213.797;000.046;80;000.562;MIDI 01
213.976;000.030;73;000.469;MIDI 01
213.974;000.033;76;000.523;MIDI 01
214.004;000.040;77;000.312;MIDI 01
214.006;000.045;69;000.219;MIDI 01
214.128;000.032;78;000.562;MIDI 01
214.149;000.023;75;000.406;MIDI 01
214.073;000.135;47;000.383;MIDI 01
214.151;000.065;54;000.383;MIDI 01
214.240;000.043;57;000.492;MIDI 01
214.298;000.025;76;000.500;MIDI 01
214.286;000.060;80;000.625;MIDI 01
214.446;000.043;78;000.531;MIDI 01
214.390;000.101;60;000.477;MIDI 01
214.452;000.045;76;000.320;MIDI 01
214.446;000.053;81;000.578;MIDI 01
214.471;000.083;63;000.484;MIDI 01
214.631;000.001;78;000.133;MIDI 01
214.605;000.031;59;000.633;MIDI 01
214.611;000.034;68;000.609;MIDI 01
214.617;000.032;64;000.461;MIDI 01
214.615;000.051;76;000.484;MIDI 01
214.608;000.095;80;000.547;MIDI 01
214.785;000.041;71;000.562;MIDI 01
214.811;000.051;54;000.266;MIDI 01
214.594;000.271;83;000.656;MIDI 01
214.823;000.056;58;000.047;MIDI 01
214.835;000.048;51;000.211;MIDI 01
214.963;000.040;72;000.609;MIDI 01
214.954;000.049;55;000.570;MIDI 01
214.981;000.025;71;000.406;MIDI 01
214.924;000.083;48;000.508;MIDI 01
214.985;000.023;64;000.688;MIDI 01
214.967;000.042;76;000.594;MIDI 01
214.956;000.055;58;000.664;MIDI 01
215.003;000.041;62;000.375;MIDI 01
214.958;000.086;84;000.719;MIDI 01
214.965;000.084;82;000.672;MIDI 01
214.952;000.108;50;000.406;MIDI 01
215.261;000.095;80;000.680;MIDI 01
215.260;000.119;82;000.602;MIDI 01
215.258;000.286;68;000.664;MIDI 01
215.252;000.299;73;000.734;MIDI 01
215.416;000.142;82;000.273;MIDI 01
215.240;000.335;85;000.820;MIDI 01
215.254;000.327;70;000.664;MIDI 01
215.672;000.028;79;000.484;MIDI 01
215.685;000.026;82;000.484;MIDI 01
215.691;000.030;80;000.445;MIDI 01
215.677;000.046;73;000.602;MIDI 01
215.662;000.065;85;000.695;MIDI 01
215.680;000.077;70;000.461;MIDI 01
215.832;000.048;82;000.492;MIDI 01
215.828;000.054;80;000.516;MIDI 01
215.826;000.060;73;000.609;MIDI 01
215.830;000.076;85;000.641;MIDI 01
215.877;000.042;78;000.305;MIDI 01
215.670;000.303;67;000.578;MIDI 01
216.024;000.014;80;000.547;MIDI 01
216.026;000.019;82;000.453;MIDI 01
216.012;000.047;85;000.672;MIDI 01
216.030;000.034;64;000.461;MIDI 01
216.022;000.045;73;000.617;MIDI 01
216.020;000.059;65;000.445;MIDI 01
215.841;000.242;66;000.586;MIDI 01
216.192;000.034;76;000.656;MIDI 01
216.193;000.035;85;000.664;MIDI 01
216.201;000.032;90;000.508;MIDI 01
216.198;000.037;94;000.539;MIDI 01
216.167;000.071;64;000.578;MIDI 01
216.209;000.032;66;000.555;MIDI 01
216.186;000.065;70;000.602;MIDI 01
216.181;000.072;97;000.719;MIDI 01
216.378;000.030;75;000.594;MIDI 01
216.390;000.030;70;000.438;MIDI 01
216.369;000.053;90;000.562;MIDI 01
216.372;000.052;94;000.492;MIDI 01
216.367;000.059;85;000.664;MIDI 01
216.384;000.045;63;000.523;MIDI 01
216.349;000.091;66;000.453;MIDI 01
216.365;000.077;97;000.734;MIDI 01
216.533;000.052;62;000.516;MIDI 01
216.529;000.058;74;000.648;MIDI 01
216.539;000.055;85;000.703;MIDI 01
216.531;000.068;97;000.758;MIDI 01
216.525;000.076;70;000.586;MIDI 01
216.540;000.067;90;000.625;MIDI 01
216.527;000.082;66;000.539;MIDI 01
216.542;000.070;94;000.641;MIDI 01
216.711;000.024;97;000.617;MIDI 01
216.705;000.032;73;000.711;MIDI 01
216.723;000.017;70;000.508;MIDI 01
216.709;000.034;66;000.586;MIDI 01
216.730;000.016;94;000.477;MIDI 01
216.719;000.036;61;000.578;MIDI 01
216.707;000.053;85;000.758;MIDI 01
217.083;000.054;77;000.391;MIDI 01
217.066;000.134;82;000.539;MIDI 01
217.050;000.196;49;000.508;MIDI 01
217.226;000.042;78;000.484;MIDI 01
217.255;000.029;75;000.414;MIDI 01
217.171;000.119;58;000.352;MIDI 01
217.299;000.028;61;000.398;MIDI 01
217.428;000.034;78;000.422;MIDI 01
217.426;000.041;68;000.570;MIDI 01
217.404;000.078;83;000.602;MIDI 01
217.577;000.032;80;000.578;MIDI 01
217.603;000.039;78;000.227;MIDI 01
217.604;000.051;77;000.258;MIDI 01
217.552;000.109;63;000.500;MIDI 01
217.758;000.051;70;000.578;MIDI 01
217.742;000.073;85;000.680;MIDI 01
217.900;000.036;78;000.570;MIDI 01
217.923;000.043;82;000.523;MIDI 01
217.902;000.077;65;000.398;MIDI 01
218.080;000.033;71;000.578;MIDI 01
218.083;000.039;62;000.578;MIDI 01
218.089;000.035;65;000.500;MIDI 01
218.086;000.068;86;000.695;MIDI 01
218.260;000.026;80;000.516;MIDI 01
218.262;000.036;83;000.547;MIDI 01
218.440;000.037;38;000.602;MIDI 01
218.460;000.018;62;000.562;MIDI 01
218.451;000.027;74;000.695;MIDI 01
218.435;000.046;50;000.672;MIDI 01
218.904;000.069;66;000.664;MIDI 01
218.899;000.085;82;000.555;MIDI 01
218.889;000.107;75;000.719;MIDI 01
218.883;000.127;87;000.695;MIDI 01
218.895;000.118;78;000.625;MIDI 01
218.893;000.123;54;000.594;MIDI 01
218.897;000.121;60;000.594;MIDI 01
218.901;000.119;63;000.578;MIDI 01
219.120;000.020;81;000.398;MIDI 01
219.285;000.104;84;000.500;MIDI 01
219.275;000.118;51;000.484;MIDI 01
219.409;000.064;60;000.297;MIDI 01
219.482;000.035;77;000.438;MIDI 01
219.477;000.051;80;000.438;MIDI 01
219.497;000.062;63;000.398;MIDI 01
219.652;000.033;80;000.430;MIDI 01
219.641;000.061;85;000.531;MIDI 01
219.622;000.098;70;000.516;MIDI 01
219.801;000.037;82;000.594;MIDI 01
219.809;000.031;79;000.422;MIDI 01
219.776;000.105;64;000.469;MIDI 01
219.852;000.055;61;000.477;MIDI 01
219.947;000.101;87;000.703;MIDI 01
219.977;000.115;72;000.547;MIDI 01
220.129;000.031;80;000.570;MIDI 01
220.117;000.079;84;000.289;MIDI 01
219.963;000.234;82;000.406;MIDI 01
220.151;000.047;63;000.508;MIDI 01
220.275;000.041;66;000.617;MIDI 01
220.302;000.037;73;000.594;MIDI 01
220.130;000.230;67;000.383;MIDI 01
220.283;000.099;88;000.750;MIDI 01
220.461;000.029;82;000.547;MIDI 01
220.455;000.037;85;000.672;MIDI 01
220.649;000.026;64;000.711;MIDI 01
220.647;000.033;40;000.656;MIDI 01
220.643;000.042;52;000.766;MIDI 01
220.641;000.046;76;000.766;MIDI 01
220.760;000.022;64;000.320;MIDI 01
221.128;000.089;80;000.648;MIDI 01
221.125;000.132;84;000.656;MIDI 01
221.135;000.132;68;000.672;MIDI 01
221.142;000.131;65;000.609;MIDI 01
221.131;000.151;56;000.625;MIDI 01
221.133;000.152;62;000.617;MIDI 01
221.117;000.190;77;000.688;MIDI 01
221.111;000.197;89;000.750;MIDI 01
221.396;000.043;83;000.500;MIDI 01
221.549;000.081;57;000.477;MIDI 01
221.618;000.064;64;000.438;MIDI 01
221.679;000.053;85;000.477;MIDI 01
221.669;000.105;88;000.484;MIDI 01
221.746;000.036;73;000.516;MIDI 01
221.827;000.066;81;000.469;MIDI 01
221.945;000.087;69;000.492;MIDI 01
221.954;000.111;74;000.531;MIDI 01
221.964;000.121;86;000.391;MIDI 01
221.949;000.156;89;000.531;MIDI 01
222.075;000.044;88;000.320;MIDI 01
222.100;000.043;73;000.305;MIDI 01
222.092;000.072;91;000.547;MIDI 01
222.123;000.079;76;000.492;MIDI 01
222.195;000.109;81;000.508;MIDI 01
222.274;000.062;88;000.422;MIDI 01
222.297;000.078;91;000.617;MIDI 01
222.309;000.072;68;000.477;MIDI 01
222.444;000.042;77;000.578;MIDI 01
222.472;000.028;95;000.562;MIDI 01
222.461;000.110;93;000.492;MIDI 01
222.541;000.179;81;000.242;MIDI 01
222.674;000.052;57;000.227;MIDI 01
222.715;000.024;83;000.391;MIDI 01
222.677;000.066;62;000.430;MIDI 01
222.717;000.074;86;000.547;MIDI 01
222.772;000.035;69;000.492;MIDI 01
222.759;000.066;71;000.516;MIDI 01
222.840;000.090;81;000.453;MIDI 01
222.948;000.121;85;000.453;MIDI 01
223.062;000.033;71;000.195;MIDI 01
222.982;000.120;88;000.461;MIDI 01
223.075;000.036;86;000.477;MIDI 01
223.102;000.047;74;000.562;MIDI 01
223.091;000.077;89;000.555;MIDI 01
223.280;000.053;86;000.469;MIDI 01
223.206;000.138;81;000.539;MIDI 01
223.309;000.060;89;000.586;MIDI 01
223.269;000.105;61;000.453;MIDI 01
223.300;000.106;67;000.406;MIDI 01
223.418;000.027;76;000.641;MIDI 01
223.303;000.146;70;000.312;MIDI 01
223.463;000.028;93;000.477;MIDI 01
223.457;000.045;91;000.453;MIDI 01
223.541;000.110;81;000.492;MIDI 01
223.673;000.048;89;000.172;MIDI 01
223.605;000.122;57;000.383;MIDI 01
223.622;000.109;91;000.422;MIDI 01
223.725;000.035;65;000.398;MIDI 01
223.726;000.051;84;000.500;MIDI 01
223.667;000.119;60;000.383;MIDI 01
223.755;000.072;69;000.586;MIDI 01
223.814;000.103;81;000.531;MIDI 01
223.929;000.040;71;000.602;MIDI 01
223.964;000.034;83;000.398;MIDI 01
223.967;000.076;86;000.531;MIDI 01
224.061;000.036;88;000.523;MIDI 01
224.079;000.062;73;000.625;MIDI 01
224.174;000.068;81;000.453;MIDI 01
224.209;000.066;86;000.469;MIDI 01
224.273;000.056;88;000.469;MIDI 01
224.232;000.098;69;000.500;MIDI 01
224.268;000.074;89;000.375;MIDI 01
224.383;000.060;81;000.484;MIDI 01
224.398;000.053;76;000.664;MIDI 01
224.424;000.041;73;000.391;MIDI 01
224.455;000.029;91;000.492;MIDI 01
224.452;000.045;93;000.430;MIDI 01
224.539;000.048;81;000.555;MIDI 01
224.598;000.026;93;000.578;MIDI 01
224.617;000.041;76;000.305;MIDI 01
224.735;000.066;81;000.516;MIDI 01
224.842;000.078;76;000.438;MIDI 01
224.926;000.036;69;000.430;MIDI 01
224.748;000.216;95;000.562;MIDI 01
224.855;000.137;97;000.562;MIDI 01
224.952;000.043;98;000.500;MIDI 01
224.993;000.053;100;000.477;MIDI 01
225.046;000.072;69;000.586;MIDI 01
225.088;000.106;93;000.477;MIDI 01
225.174;000.050;65;000.148;MIDI 01
225.180;000.062;98;000.438;MIDI 01
225.208;000.107;101;000.609;MIDI 01
225.335;000.043;65;000.531;MIDI 01
225.339;000.042;72;000.594;MIDI 01
225.347;000.048;93;000.469;MIDI 01
225.453;000.080;105;000.617;MIDI 01
225.565;000.110;93;000.469;MIDI 01
225.660;000.086;79;000.547;MIDI 01
225.730;000.060;95;000.484;MIDI 01
225.756;000.045;93;000.297;MIDI 01
225.771;000.096;74;000.492;MIDI 01
225.867;000.042;67;000.422;MIDI 01
225.829;000.082;91;000.562;MIDI 01
225.929;000.081;97;000.562;MIDI 01
226.027;000.027;57;000.516;MIDI 01
226.003;000.070;67;000.500;MIDI 01
226.041;000.049;98;000.445;MIDI 01
226.082;000.092;91;000.562;MIDI 01
226.171;000.040;68;000.422;MIDI 01
226.180;000.049;97;000.547;MIDI 01
226.233;000.018;98;000.430;MIDI 01
226.202;000.082;100;000.484;MIDI 01
226.252;000.044;64;000.367;MIDI 01
226.246;000.060;70;000.602;MIDI 01
226.318;000.091;91;000.562;MIDI 01
226.412;000.077;103;000.523;MIDI 01
226.622;000.023;89;000.477;MIDI 01
226.624;000.039;93;000.531;MIDI 01
226.584;000.094;57;000.453;MIDI 01
226.616;000.084;60;000.281;MIDI 01
226.614;000.103;65;000.453;MIDI 01
226.774;000.040;69;000.453;MIDI 01
226.776;000.041;94;000.609;MIDI 01
226.800;000.030;91;000.406;MIDI 01
226.974;000.022;93;000.398;MIDI 01
226.963;000.068;96;000.547;MIDI 01
226.914;000.162;71;000.445;MIDI 01
227.106;000.023;93;000.438;MIDI 01
227.118;000.017;94;000.508;MIDI 01
227.092;000.058;98;000.609;MIDI 01
227.085;000.117;74;000.523;MIDI 01
227.315;000.040;76;000.531;MIDI 01
227.303;000.056;88;000.578;MIDI 01
227.305;000.056;69;000.516;MIDI 01
227.295;000.075;100;000.633;MIDI 01
227.321;000.051;73;000.508;MIDI 01
227.300;000.074;93;000.430;MIDI 01
227.293;000.082;97;000.547;MIDI 01
228.130;000.092;53;000.664;MIDI 01
228.134;000.100;29;000.680;MIDI 01
228.139;000.114;41;000.680;MIDI 01
228.573;000.029;63;000.594;MIDI 01
228.581;000.046;69;000.531;MIDI 01
228.579;000.050;53;000.508;MIDI 01
228.588;000.045;47;000.461;MIDI 01
228.926;000.035;69;000.641;MIDI 01
228.933;000.059;75;000.656;MIDI 01
228.923;000.077;81;000.672;MIDI 01
228.952;000.055;53;000.586;MIDI 01
228.956;000.062;65;000.625;MIDI 01
228.947;000.083;60;000.555;MIDI 01
229.298;000.091;90;000.734;MIDI 01
229.302;000.101;78;000.734;MIDI 01
229.318;000.117;54;000.617;MIDI 01
229.315;000.123;66;000.758;MIDI 01
229.718;000.041;71;000.609;MIDI 01
229.722;000.046;69;000.594;MIDI 01
229.707;000.064;83;000.602;MIDI 01
229.720;000.068;75;000.633;MIDI 01
229.716;000.083;59;000.531;MIDI 01
229.724;000.082;63;000.516;MIDI 01
230.146;000.061;58;000.570;MIDI 01
230.143;000.113;63;000.555;MIDI 01
230.148;000.109;70;000.516;MIDI 01
230.140;000.120;51;000.578;MIDI 01
230.791;000.384;29;000.453;MIDI 01
230.797;000.429;41;000.492;MIDI 01
230.775;000.548;53;000.625;MIDI 01
231.596;000.088;57;000.281;MIDI 01
231.579;000.141;65;000.336;MIDI 01
231.639;000.361;50;000.234;MIDI 01
231.976;000.266;67;000.359;MIDI 01
231.964;000.310;58;000.336;MIDI 01
232.253;000.214;41;000.391;MIDI 01
232.467;000.168;50;000.398;MIDI 01
232.455;000.197;69;000.539;MIDI 01
232.464;000.191;57;000.461;MIDI 01
232.670;000.073;63;000.172;MIDI 01
232.633;000.181;41;000.477;MIDI 01
231.973;000.920;48;000.352;MIDI 01
232.896;000.157;51;000.453;MIDI 01
232.931;000.161;63;000.328;MIDI 01
232.901;000.214;58;000.523;MIDI 01
232.877;000.265;70;000.602;MIDI 01
233.096;000.050;63;000.023;MIDI 01
233.065;000.086;41;000.484;MIDI 01
233.318;000.087;48;000.422;MIDI 01
233.316;000.095;54;000.516;MIDI 01
233.312;000.110;69;000.469;MIDI 01
233.305;000.129;63;000.477;MIDI 01
233.294;000.217;72;000.617;MIDI 01
233.301;000.259;60;000.547;MIDI 01
233.497;000.109;41;000.555;MIDI 01
233.747;000.150;55;000.523;MIDI 01
233.754;000.166;70;000.492;MIDI 01
233.750;000.188;48;000.492;MIDI 01
233.741;000.241;62;000.641;MIDI 01
233.727;000.267;74;000.664;MIDI 01
233.973;000.058;41;000.508;MIDI 01
234.248;000.036;67;000.367;MIDI 01
234.223;000.140;58;000.672;MIDI 01
234.183;000.181;70;000.078;MIDI 01
234.203;000.207;75;000.664;MIDI 01
234.215;000.197;63;000.633;MIDI 01
234.476;000.093;41;000.633;MIDI 01
234.221;000.488;48;000.469;MIDI 01
234.780;000.039;60;000.430;MIDI 01
234.777;000.122;59;000.578;MIDI 01
234.767;000.249;71;000.617;MIDI 01
234.759;000.262;75;000.672;MIDI 01
234.766;000.275;51;000.562;MIDI 01
234.745;000.314;79;000.711;MIDI 01
235.035;000.067;41;000.672;MIDI 01
234.755;000.375;67;000.711;MIDI 01
235.376;000.123;62;000.648;MIDI 01
235.365;000.186;55;000.523;MIDI 01
235.386;000.208;51;000.609;MIDI 01
235.354;000.391;81;000.711;MIDI 01
235.690;000.095;41;000.719;MIDI 01
235.367;000.423;69;000.719;MIDI 01
235.369;000.511;75;000.625;MIDI 01
235.360;000.534;79;000.664;MIDI 01
236.069;000.142;60;000.664;MIDI 01
236.071;000.162;55;000.633;MIDI 01
236.071;000.213;51;000.633;MIDI 01
236.065;000.363;70;000.750;MIDI 01
236.069;000.376;79;000.648;MIDI 01
236.067;000.383;75;000.664;MIDI 01
236.059;000.442;82;000.727;MIDI 01
236.425;000.106;41;000.773;MIDI 01
236.941;000.166;58;000.719;MIDI 01
236.943;000.227;54;000.633;MIDI 01
236.939;000.252;51;000.648;MIDI 01
236.928;000.738;84;000.719;MIDI 01
236.934;000.779;78;000.727;MIDI 01
236.936;000.782;72;000.805;MIDI 01
236.932;000.791;75;000.719;MIDI 01
237.567;000.581;41;000.734;MIDI 01
238.471;000.321;41;000.719;MIDI 01
238.469;000.339;34;000.633;MIDI 01
238.465;000.382;53;000.734;MIDI 01
239.018;000.069;62;000.703;MIDI 01
239.008;000.088;65;000.703;MIDI 01
239.030;000.070;41;000.570;MIDI 01
239.025;000.112;51;000.648;MIDI 01
239.028;000.135;53;000.570;MIDI 01
239.683;000.002;76;000.500;MIDI 01
239.688;000.002;78;000.383;MIDI 01
239.665;000.168;69;000.688;MIDI 01
239.662;000.238;65;000.609;MIDI 01
239.668;000.248;57;000.547;MIDI 01
239.660;000.270;63;000.633;MIDI 01
239.646;000.414;86;000.812;MIDI 01
239.659;000.415;81;000.766;MIDI 01
239.655;000.436;77;000.750;MIDI 01
239.657;000.436;74;000.781;MIDI 01
240.316;000.144;63;000.547;MIDI 01
240.336;000.132;53;000.422;MIDI 01
240.326;000.173;57;000.500;MIDI 01
240.321;000.193;65;000.656;MIDI 01
240.317;000.235;69;000.664;MIDI 01
240.676;000.074;65;000.602;MIDI 01
240.684;000.129;63;000.562;MIDI 01
241.009;000.029;57;000.398;MIDI 01
241.002;000.037;52;000.445;MIDI 01
240.682;000.478;69;000.734;MIDI 01
241.000;000.297;77;000.727;MIDI 01
241.011;000.293;65;000.750;MIDI 01
240.678;000.672;74;000.727;MIDI 01
241.479;000.010;67;000.438;MIDI 01
241.428;000.119;34;000.633;MIDI 01
241.438;000.112;41;000.648;MIDI 01
241.435;000.311;77;000.703;MIDI 01
241.440;000.309;65;000.742;MIDI 01
241.443;000.344;70;000.719;MIDI 01
241.433;000.380;74;000.680;MIDI 01
241.874;000.044;50;000.539;MIDI 01
241.887;000.035;41;000.484;MIDI 01
241.897;000.039;62;000.617;MIDI 01
241.879;000.073;53;000.633;MIDI 01
241.881;000.079;46;000.594;MIDI 01
241.889;000.101;70;000.719;MIDI 01
242.379;000.057;73;000.359;MIDI 01
242.404;000.035;72;000.281;MIDI 01
242.373;000.151;67;000.664;MIDI 01
242.435;000.100;80;000.062;MIDI 01
242.377;000.170;60;000.562;MIDI 01
242.371;000.180;63;000.578;MIDI 01
242.348;000.213;82;000.750;MIDI 01
242.361;000.204;70;000.773;MIDI 01
242.369;000.212;58;000.586;MIDI 01
242.803;000.050;60;000.492;MIDI 01
242.833;000.076;63;000.336;MIDI 01
242.800;000.129;70;000.508;MIDI 01
242.786;000.232;53;000.438;MIDI 01
243.122;000.175;62;000.508;MIDI 01
243.113;000.245;65;000.586;MIDI 01
243.076;000.295;74;000.688;MIDI 01
243.361;000.049;65;000.062;MIDI 01
243.110;000.315;58;000.523;MIDI 01
243.369;000.074;70;000.602;MIDI 01
243.366;000.100;53;000.578;MIDI 01
243.893;000.175;34;000.484;MIDI 01
243.728;000.728;72;000.570;MIDI 01
243.783;000.722;75;000.523;MIDI 01
243.882;000.694;81;000.742;MIDI 01
244.414;000.170;51;000.438;MIDI 01
243.656;000.948;69;000.461;MIDI 01
244.520;000.286;57;000.367;MIDI 01
244.526;000.303;60;000.344;MIDI 01
244.621;000.222;66;000.656;MIDI 01
244.972;000.093;60;000.562;MIDI 01
245.020;000.085;63;000.477;MIDI 01
245.230;000.090;54;000.383;MIDI 01
245.057;000.305;68;000.602;MIDI 01
245.327;000.054;60;000.359;MIDI 01
245.336;000.295;63;000.508;MIDI 01
245.631;000.075;66;000.594;MIDI 01
245.664;000.122;68;000.500;MIDI 01
245.704;000.118;71;000.516;MIDI 01
245.415;000.443;69;000.648;MIDI 01
245.904;000.093;57;000.508;MIDI 01
245.954;000.107;63;000.562;MIDI 01
245.997;000.091;66;000.523;MIDI 01
246.094;000.047;72;000.703;MIDI 01
245.764;000.535;78;000.695;MIDI 01
246.528;000.182;34;000.578;MIDI 01
246.410;000.611;68;000.531;MIDI 01
246.491;000.539;71;000.547;MIDI 01
246.523;000.512;78;000.742;MIDI 01
246.336;000.714;66;000.562;MIDI 01
246.957;000.222;53;000.445;MIDI 01
247.016;000.266;56;000.516;MIDI 01
247.056;000.300;63;000.602;MIDI 01
247.356;000.151;59;000.383;MIDI 01
247.429;000.229;64;000.617;MIDI 01
247.656;000.236;56;000.438;MIDI 01
247.766;000.159;65;000.648;MIDI 01
247.951;000.026;63;000.266;MIDI 01
247.672;000.311;59;000.484;MIDI 01
247.706;000.424;62;000.391;MIDI 01
248.074;000.177;65;000.492;MIDI 01
248.120;000.148;67;000.562;MIDI 01
248.494;000.164;62;000.500;MIDI 01
248.595;000.167;68;000.617;MIDI 01
248.455;000.325;59;000.461;MIDI 01
249.126;000.299;39;000.664;MIDI 01
248.184;001.335;74;000.625;MIDI 01
249.690;000.139;46;000.484;MIDI 01
249.681;000.175;62;000.391;MIDI 01
249.715;000.144;55;000.383;MIDI 01
249.640;000.409;70;000.547;MIDI 01
250.014;000.188;61;000.562;MIDI 01
250.016;000.190;55;000.422;MIDI 01
249.991;000.285;77;000.727;MIDI 01
250.349;000.040;62;000.484;MIDI 01
250.329;000.078;46;000.523;MIDI 01
250.371;000.108;55;000.438;MIDI 01
250.306;000.201;70;000.531;MIDI 01
250.325;000.196;67;000.258;MIDI 01
250.607;000.115;62;000.633;MIDI 01
250.625;000.116;55;000.477;MIDI 01
250.590;000.244;75;000.711;MIDI 01
250.906;000.125;63;000.617;MIDI 01
250.953;000.100;55;000.156;MIDI 01
250.614;000.477;67;000.648;MIDI 01
250.919;000.174;70;000.602;MIDI 01
250.917;000.371;46;000.602;MIDI 01
251.208;000.197;58;000.672;MIDI 01
251.214;000.205;70;000.648;MIDI 01
251.202;000.219;74;000.672;MIDI 01
251.211;000.260;50;000.547;MIDI 01
251.216;000.361;62;000.609;MIDI 01
251.577;000.055;53;000.438;MIDI 01
251.561;000.081;43;000.633;MIDI 01
251.547;000.132;64;000.648;MIDI 01
251.564;000.219;52;000.500;MIDI 01
251.886;000.185;58;000.695;MIDI 01
251.882;000.373;48;000.609;MIDI 01
251.875;000.387;60;000.688;MIDI 01
251.871;000.402;72;000.680;MIDI 01
251.869;000.420;70;000.672;MIDI 01
252.221;000.144;42;000.695;MIDI 01
252.238;000.247;63;000.609;MIDI 01
252.235;000.266;51;000.680;MIDI 01
252.679;000.004;64;000.305;MIDI 01
252.643;000.232;57;000.625;MIDI 01
252.641;000.291;50;000.602;MIDI 01
252.636;000.345;69;000.648;MIDI 01
252.621;000.374;74;000.719;MIDI 01
252.634;000.453;62;000.719;MIDI 01
253.053;000.062;63;000.625;MIDI 01
253.020;000.151;51;000.711;MIDI 01
253.027;000.193;41;000.711;MIDI 01
253.599;000.142;41;000.688;MIDI 01
253.597;000.146;34;000.680;MIDI 01
253.603;000.242;57;000.719;MIDI 01
253.601;000.299;53;000.750;MIDI 01
253.593;000.328;65;000.688;MIDI 01
253.595;000.335;63;000.672;MIDI 01
254.061;000.030;53;000.695;MIDI 01
254.064;000.035;51;000.695;MIDI 01
254.071;000.030;41;000.586;MIDI 01
254.059;000.044;62;000.734;MIDI 01
254.053;000.067;65;000.766;MIDI 01
254.234;000.052;53;000.016;MIDI 01
254.648;000.002;76;000.516;MIDI 01
254.645;000.025;78;000.555;MIDI 01
254.621;000.055;69;000.742;MIDI 01
254.627;000.068;65;000.625;MIDI 01
254.623;000.098;57;000.570;MIDI 01
254.619;000.112;63;000.664;MIDI 01
254.617;000.139;81;000.773;MIDI 01
254.625;000.144;77;000.664;MIDI 01
254.607;000.166;86;000.789;MIDI 01
254.702;000.073;84;000.117;MIDI 01
254.616;000.162;74;000.805;MIDI 01
255.101;000.130;41;000.516;MIDI 01
255.155;000.099;51;000.539;MIDI 01
255.277;000.002;67;000.383;MIDI 01
255.281;000.030;57;000.523;MIDI 01
255.290;000.025;70;000.414;MIDI 01
255.235;000.158;77;000.727;MIDI 01
255.243;000.189;65;000.703;MIDI 01
255.238;000.210;75;000.672;MIDI 01
255.254;000.228;69;000.500;MIDI 01
255.652;000.064;64;000.695;MIDI 01
255.683;000.088;53;000.438;MIDI 01
255.636;000.136;76;000.727;MIDI 01
255.672;000.124;60;000.516;MIDI 01
255.670;000.143;63;000.695;MIDI 01
255.655;000.160;69;000.625;MIDI 01
255.668;000.150;57;000.469;MIDI 01
255.946;000.028;53;000.539;MIDI 01
255.971;000.062;63;000.656;MIDI 01
255.969;000.071;75;000.617;MIDI 01
255.975;000.073;77;000.656;MIDI 01
256.210;000.093;62;000.516;MIDI 01
256.301;000.111;70;000.523;MIDI 01
256.345;000.122;34;000.672;MIDI 01
256.352;000.117;41;000.703;MIDI 01
256.342;000.275;77;000.742;MIDI 01
256.332;000.359;74;000.633;MIDI 01
256.743;000.024;62;000.672;MIDI 01
256.756;000.043;50;000.570;MIDI 01
256.762;000.042;41;000.508;MIDI 01
256.741;000.073;70;000.711;MIDI 01
256.752;000.086;46;000.664;MIDI 01
257.212;000.109;67;000.539;MIDI 01
257.265;000.085;59;000.602;MIDI 01
257.233;000.221;58;000.508;MIDI 01
257.185;000.272;82;000.742;MIDI 01
257.259;000.200;57;000.500;MIDI 01
257.197;000.269;70;000.727;MIDI 01
257.370;000.099;64;000.484;MIDI 01
257.225;000.246;65;000.602;MIDI 01
257.194;000.282;74;000.711;MIDI 01
257.552;000.064;58;000.688;MIDI 01
257.561;000.056;55;000.656;MIDI 01
257.907;000.169;54;000.625;MIDI 01
258.215;000.036;53;000.578;MIDI 01
257.906;000.361;58;000.633;MIDI 01
257.892;000.392;63;000.664;MIDI 01
258.225;000.060;62;000.688;MIDI 01
257.875;000.426;41;000.555;MIDI 01
258.255;000.048;34;000.508;MIDI 01
258.800;000.158;26;000.594;MIDI 01
258.793;000.181;76;000.617;MIDI 01
258.791;000.206;71;000.695;MIDI 01
258.804;000.195;38;000.641;MIDI 01
258.786;000.218;83;000.672;MIDI 01
258.795;000.338;79;000.609;MIDI 01
259.118;000.064;81;000.555;MIDI 01
259.136;000.066;79;000.141;MIDI 01
259.093;000.192;69;000.703;MIDI 01
259.429;000.031;59;000.469;MIDI 01
259.438;000.065;68;000.578;MIDI 01
259.435;000.098;80;000.547;MIDI 01
259.431;000.134;56;000.539;MIDI 01
259.576;000.060;61;000.289;MIDI 01
259.788;000.051;72;000.344;MIDI 01
259.790;000.052;78;000.414;MIDI 01
259.743;000.145;65;000.695;MIDI 01
259.750;000.205;60;000.516;MIDI 01
259.748;000.216;56;000.586;MIDI 01
259.752;000.247;68;000.695;MIDI 01
259.757;000.256;80;000.672;MIDI 01
260.315;000.085;36;000.641;MIDI 01
260.084;000.401;72;000.492;MIDI 01
260.305;000.200;38;000.594;MIDI 01
260.310;000.213;45;000.656;MIDI 01
260.555;000.033;52;000.484;MIDI 01
260.587;000.058;81;000.461;MIDI 01
260.584;000.075;69;000.625;MIDI 01
260.601;000.192;77;000.414;MIDI 01
260.771;000.050;54;000.023;MIDI 01
260.909;000.032;71;000.406;MIDI 01
260.886;000.168;63;000.680;MIDI 01
260.878;000.197;55;000.617;MIDI 01
260.884;000.207;59;000.562;MIDI 01
260.880;000.300;75;000.648;MIDI 01
260.874;000.348;79;000.656;MIDI 01
261.159;000.194;70;000.586;MIDI 01
261.184;000.253;75;000.039;MIDI 01
260.882;000.729;67;000.703;MIDI 01
261.442;000.229;38;000.641;MIDI 01
261.450;000.257;45;000.672;MIDI 01
261.754;000.031;53;000.461;MIDI 01
261.756;000.060;81;000.656;MIDI 01
261.759;000.059;69;000.664;MIDI 01
261.760;000.064;77;000.609;MIDI 01
262.132;000.204;70;000.562;MIDI 01
262.128;000.368;73;000.578;MIDI 01
262.115;000.400;77;000.602;MIDI 01
262.139;000.461;58;000.547;MIDI 01
262.134;000.468;61;000.562;MIDI 01
262.583;000.028;62;000.516;MIDI 01
262.590;000.094;57;000.500;MIDI 01
262.141;000.614;53;000.469;MIDI 01
262.668;000.212;77;000.023;MIDI 01
262.586;000.704;69;000.492;MIDI 01
262.578;000.720;74;000.516;MIDI 01
262.136;001.264;65;000.594;MIDI 01
263.174;000.240;29;000.602;MIDI 01
263.720;000.193;51;000.438;MIDI 01
263.759;000.180;65;000.250;MIDI 01
263.718;000.483;69;000.453;MIDI 01
264.125;000.165;65;000.172;MIDI 01
264.340;000.032;60;000.383;MIDI 01
264.351;000.045;48;000.336;MIDI 01
264.040;000.364;72;000.625;MIDI 01
264.038;000.386;57;000.500;MIDI 01
264.339;000.122;69;000.523;MIDI 01
264.643;000.105;63;000.562;MIDI 01
264.623;000.352;77;000.664;MIDI 01
264.932;000.048;53;000.438;MIDI 01
264.943;000.135;69;000.109;MIDI 01
264.935;000.471;72;000.555;MIDI 01
265.395;000.136;29;000.516;MIDI 01
265.353;000.205;79;000.680;MIDI 01
264.954;000.606;65;000.492;MIDI 01
265.779;000.134;51;000.469;MIDI 01
265.837;000.078;60;000.031;MIDI 01
265.790;000.275;63;000.367;MIDI 01
265.772;000.335;68;000.562;MIDI 01
266.069;000.056;63;000.062;MIDI 01
266.034;000.149;56;000.578;MIDI 01
266.292;000.046;60;000.469;MIDI 01
266.032;000.314;72;000.633;MIDI 01
266.293;000.068;63;000.414;MIDI 01
266.335;000.033;48;000.375;MIDI 01
266.322;000.084;51;000.500;MIDI 01
266.293;000.126;68;000.547;MIDI 01
266.590;000.120;63;000.586;MIDI 01
266.607;000.260;56;000.469;MIDI 01
266.859;000.032;53;000.367;MIDI 01
266.880;000.036;48;000.539;MIDI 01
266.868;000.364;68;000.508;MIDI 01
266.866;000.389;65;000.492;MIDI 01
267.181;000.084;29;000.656;MIDI 01
266.564;000.864;77;000.680;MIDI 01
266.863;000.928;72;000.539;MIDI 01
267.769;000.061;51;000.266;MIDI 01
267.472;000.361;69;000.609;MIDI 01
267.474;000.373;65;000.508;MIDI 01
267.770;000.152;57;000.492;MIDI 01
268.020;000.045;48;000.500;MIDI 01
268.022;000.049;51;000.422;MIDI 01
267.755;000.532;76;000.703;MIDI 01
268.014;000.377;65;000.508;MIDI 01
268.011;000.381;69;000.562;MIDI 01
268.325;000.119;63;000.539;MIDI 01
268.321;000.292;57;000.414;MIDI 01
268.340;000.329;53;000.312;MIDI 01
268.634;000.064;48;000.508;MIDI 01
268.307;000.410;72;000.625;MIDI 01
268.640;000.252;77;000.695;MIDI 01
268.654;000.246;65;000.641;MIDI 01
269.054;000.120;38;000.562;MIDI 01
269.042;000.246;77;000.695;MIDI 01
269.061;000.269;65;000.633;MIDI 01
269.062;000.361;68;000.594;MIDI 01
269.065;000.400;72;000.633;MIDI 01
269.541;000.125;50;000.414;MIDI 01
269.529;000.143;44;000.492;MIDI 01
269.534;000.181;64;000.578;MIDI 01
269.521;000.219;76;000.680;MIDI 01
269.543;000.205;68;000.391;MIDI 01
269.868;000.092;60;000.578;MIDI 01
269.852;000.110;76;000.680;MIDI 01
269.863;000.103;64;000.609;MIDI 01
269.865;000.161;68;000.586;MIDI 01
269.866;000.180;72;000.531;MIDI 01
269.860;000.356;51;000.555;MIDI 01
270.148;000.098;44;000.625;MIDI 01
270.150;000.098;52;000.578;MIDI 01
270.152;000.121;63;000.656;MIDI 01
270.143;000.150;75;000.656;MIDI 01
270.164;000.156;68;000.594;MIDI 01
270.146;000.195;72;000.562;MIDI 01
270.439;000.093;60;000.602;MIDI 01
270.445;000.100;63;000.594;MIDI 01
270.443;000.129;75;000.625;MIDI 01
270.457;000.119;68;000.500;MIDI 01
270.436;000.153;72;000.555;MIDI 01
270.447;000.191;53;000.523;MIDI 01
270.735;000.071;54;000.547;MIDI 01
270.738;000.111;44;000.641;MIDI 01
271.244;000.041;33;000.438;MIDI 01
270.756;000.557;68;000.477;MIDI 01
270.755;000.585;72;000.539;MIDI 01
271.202;000.267;31;000.586;MIDI 01
270.753;000.743;62;000.570;MIDI 01
271.204;000.294;43;000.664;MIDI 01
270.747;000.822;74;000.625;MIDI 01
271.696;000.159;62;000.469;MIDI 01
271.698;000.205;53;000.469;MIDI 01
271.995;000.090;53;000.289;MIDI 01
271.699;000.416;71;000.508;MIDI 01
271.993;000.294;74;000.688;MIDI 01
272.251;000.041;62;000.547;MIDI 01
272.261;000.046;70;000.391;MIDI 01
272.257;000.057;53;000.438;MIDI 01
271.990;000.335;59;000.562;MIDI 01
272.303;000.054;67;000.109;MIDI 01
272.247;000.114;50;000.648;MIDI 01
272.245;000.130;71;000.602;MIDI 01
272.558;000.128;65;000.617;MIDI 01
272.582;000.190;53;000.469;MIDI 01
272.560;000.234;59;000.578;MIDI 01
272.584;000.242;55;000.484;MIDI 01
272.802;000.041;50;000.578;MIDI 01
272.849;000.040;71;000.398;MIDI 01
272.545;000.363;79;000.727;MIDI 01
272.851;000.208;67;000.586;MIDI 01
273.031;000.060;37;000.086;MIDI 01
273.210;000.033;33;000.570;MIDI 01
272.831;000.469;74;000.664;MIDI 01
273.188;000.206;31;000.594;MIDI 01
273.196;000.200;80;000.742;MIDI 01
273.591;000.109;61;000.508;MIDI 01
273.593;000.178;70;000.516;MIDI 01
273.874;000.056;61;000.516;MIDI 01
273.916;000.044;70;000.242;MIDI 01
273.869;000.199;65;000.539;MIDI 01
274.100;000.048;65;000.219;MIDI 01
274.098;000.051;61;000.469;MIDI 01
273.855;000.325;58;000.703;MIDI 01
273.852;000.330;73;000.656;MIDI 01
273.581;000.603;53;000.570;MIDI 01
274.120;000.082;49;000.609;MIDI 01
274.103;000.103;70;000.547;MIDI 01
274.380;000.058;56;000.375;MIDI 01
274.383;000.116;65;000.695;MIDI 01
274.396;000.203;55;000.602;MIDI 01
274.644;000.025;58;000.586;MIDI 01
274.650;000.038;49;000.688;MIDI 01
274.658;000.268;67;000.492;MIDI 01
274.642;000.330;73;000.586;MIDI 01
274.919;000.073;31;000.703;MIDI 01
274.649;000.353;70;000.492;MIDI 01
274.372;000.713;79;000.703;MIDI 01
275.223;000.044;66;000.562;MIDI 01
275.204;000.418;74;000.664;MIDI 01
275.511;000.189;71;000.344;MIDI 01
275.490;000.309;59;000.648;MIDI 01
275.207;000.595;53;000.609;MIDI 01
275.755;000.071;66;000.625;MIDI 01
275.739;000.090;50;000.641;MIDI 01
275.477;000.353;78;000.711;MIDI 01
275.753;000.128;74;000.641;MIDI 01
276.069;000.020;81;000.633;MIDI 01
276.080;000.075;72;000.586;MIDI 01
276.067;000.137;65;000.633;MIDI 01
276.050;000.283;59;000.586;MIDI 01
276.054;000.305;55;000.594;MIDI 01
276.319;000.057;50;000.633;MIDI 01
276.072;000.306;71;000.570;MIDI 01
276.058;000.393;79;000.656;MIDI 01
276.344;000.240;74;000.609;MIDI 01
276.350;000.249;67;000.633;MIDI 01
276.742;000.134;40;000.648;MIDI 01
276.751;000.219;67;000.680;MIDI 01
276.743;000.253;79;000.680;MIDI 01
276.754;000.296;70;000.633;MIDI 01
276.746;000.323;74;000.664;MIDI 01
277.182;000.102;46;000.531;MIDI 01
277.183;000.121;52;000.508;MIDI 01
277.178;000.153;66;000.633;MIDI 01
277.177;000.179;78;000.664;MIDI 01
277.199;000.185;70;000.547;MIDI 01
277.184;000.207;74;000.586;MIDI 01
277.515;000.085;62;000.648;MIDI 01
277.523;000.140;66;000.641;MIDI 01
277.512;000.180;78;000.641;MIDI 01
277.527;000.169;74;000.609;MIDI 01
277.529;000.170;70;000.555;MIDI 01
277.500;000.274;53;000.539;MIDI 01
277.807;000.108;46;000.664;MIDI 01
277.809;000.123;54;000.664;MIDI 01
277.822;000.138;65;000.688;MIDI 01
277.824;000.154;70;000.602;MIDI 01
277.824;000.156;74;000.664;MIDI 01
277.812;000.172;77;000.672;MIDI 01
278.111;000.077;62;000.688;MIDI 01
278.116;000.110;65;000.656;MIDI 01
278.117;000.131;74;000.664;MIDI 01
278.118;000.135;70;000.578;MIDI 01
278.114;000.143;77;000.672;MIDI 01
278.109;000.203;55;000.641;MIDI 01
278.421;000.087;56;000.648;MIDI 01
278.429;000.110;46;000.695;MIDI 01
278.433;000.489;64;000.633;MIDI 01
278.426;000.552;70;000.617;MIDI 01
278.424;000.571;74;000.625;MIDI 01
278.903;000.131;33;000.688;MIDI 01
278.428;000.610;76;000.609;MIDI 01
278.905;000.151;45;000.734;MIDI 01
279.324;000.058;61;000.578;MIDI 01
279.370;000.057;55;000.180;MIDI 01
279.347;000.082;69;000.398;MIDI 01
279.590;000.037;52;000.383;MIDI 01
279.594;000.049;61;000.391;MIDI 01
279.609;000.044;55;000.273;MIDI 01
279.342;000.340;73;000.461;MIDI 01
279.583;000.290;76;000.508;MIDI 01
279.867;000.061;53;000.453;MIDI 01
279.853;000.098;62;000.555;MIDI 01
279.851;000.102;69;000.500;MIDI 01
279.863;000.094;57;000.523;MIDI 01
279.848;000.288;74;000.617;MIDI 01
280.119;000.073;53;000.477;MIDI 01
280.110;000.103;69;000.672;MIDI 01
280.123;000.094;62;000.578;MIDI 01
280.121;000.124;57;000.531;MIDI 01
280.107;000.183;81;000.703;MIDI 01
280.392;000.123;70;000.617;MIDI 01
280.399;000.157;63;000.609;MIDI 01
280.397;000.169;54;000.562;MIDI 01
280.396;000.197;60;000.594;MIDI 01
280.384;000.356;75;000.672;MIDI 01
280.693;000.153;60;000.469;MIDI 01
280.699;000.154;54;000.594;MIDI 01
280.705;000.150;63;000.672;MIDI 01
280.701;000.161;70;000.719;MIDI 01
281.002;000.107;70;000.664;MIDI 01
280.995;000.118;64;000.594;MIDI 01
281.000;000.116;61;000.602;MIDI 01
280.998;000.123;55;000.578;MIDI 01
281.007;000.152;76;000.609;MIDI 01
281.258;000.087;55;000.617;MIDI 01
281.267;000.083;64;000.672;MIDI 01
281.283;000.076;70;000.609;MIDI 01
281.269;000.102;61;000.656;MIDI 01
281.284;000.123;76;000.609;MIDI 01
280.695;000.761;82;000.750;MIDI 01
281.566;000.117;65;000.648;MIDI 01
281.572;000.138;56;000.578;MIDI 01
281.564;000.151;62;000.594;MIDI 01
281.576;000.151;71;000.727;MIDI 01
281.575;000.355;77;000.695;MIDI 01
281.943;000.002;72;000.297;MIDI 01
281.887;000.119;65;000.695;MIDI 01
281.885;000.144;56;000.641;MIDI 01
281.879;000.166;62;000.617;MIDI 01
281.892;000.188;71;000.727;MIDI 01
282.223;000.056;66;000.688;MIDI 01
282.267;000.022;74;000.594;MIDI 01
281.889;000.402;83;000.758;MIDI 01
282.269;000.035;58;000.312;MIDI 01
282.226;000.080;63;000.594;MIDI 01
282.228;000.097;57;000.617;MIDI 01
282.246;000.227;72;000.711;MIDI 01
282.242;000.415;78;000.711;MIDI 01
282.717;000.179;38;000.711;MIDI 01
282.722;000.209;50;000.711;MIDI 01
282.719;000.350;74;000.672;MIDI 01
282.711;000.376;72;000.672;MIDI 01
282.702;000.385;84;000.734;MIDI 01
282.720;000.397;78;000.430;MIDI 01
283.219;000.046;78;000.398;MIDI 01
283.190;000.189;59;000.492;MIDI 01
283.204;000.174;60;000.469;MIDI 01
283.217;000.181;61;000.477;MIDI 01
283.188;000.212;66;000.586;MIDI 01
283.202;000.210;71;000.570;MIDI 01
283.177;000.325;83;000.688;MIDI 01
283.555;000.061;78;000.477;MIDI 01
283.522;000.137;59;000.703;MIDI 01
283.531;000.146;71;000.672;MIDI 01
283.544;000.160;61;000.578;MIDI 01
283.527;000.199;66;000.664;MIDI 01
283.542;000.224;73;000.758;MIDI 01
283.524;000.329;85;000.727;MIDI 01
283.933;000.032;78;000.469;MIDI 01
283.940;000.027;85;000.344;MIDI 01
283.900;000.083;73;000.773;MIDI 01
283.889;000.204;70;000.742;MIDI 01
283.898;000.198;58;000.641;MIDI 01
283.883;000.222;61;000.602;MIDI 01
283.901;000.208;82;000.766;MIDI 01
283.886;000.233;66;000.648;MIDI 01
284.322;000.047;85;000.273;MIDI 01
284.283;000.184;70;000.719;MIDI 01
284.281;000.228;58;000.617;MIDI 01
284.285;000.236;66;000.625;MIDI 01
284.269;000.254;74;000.828;MIDI 01
284.276;000.272;61;000.641;MIDI 01
284.264;000.354;86;000.789;MIDI 01
284.700;000.110;69;000.695;MIDI 01
284.703;000.150;62;000.633;MIDI 01
284.694;000.166;66;000.641;MIDI 01
284.696;000.188;60;000.578;MIDI 01
284.692;000.203;74;000.750;MIDI 01
284.680;000.219;57;000.602;MIDI 01
284.698;000.208;78;000.680;MIDI 01
284.684;000.265;81;000.727;MIDI 01
285.458;000.001;79;000.094;MIDI 01
285.397;000.435;43;000.672;MIDI 01
285.391;000.445;31;000.641;MIDI 01
285.399;000.498;81;000.711;MIDI 01
285.393;000.522;89;000.805;MIDI 01
285.395;000.533;84;000.734;MIDI 01
285.401;000.698;77;000.781;MIDI 01
286.185;000.036;50;000.273;MIDI 01
286.168;000.064;59;000.375;MIDI 01
286.189;000.050;48;000.258;MIDI 01
286.243;000.218;72;000.750;MIDI 01
286.256;000.214;65;000.664;MIDI 01
286.243;000.264;81;000.750;MIDI 01
286.241;000.280;77;000.688;MIDI 01
286.688;000.002;74;000.102;MIDI 01
286.613;000.085;57;000.562;MIDI 01
286.625;000.140;81;000.734;MIDI 01
286.621;000.146;69;000.742;MIDI 01
286.623;000.184;72;000.680;MIDI 01
286.628;000.246;65;000.586;MIDI 01
286.632;000.270;77;000.664;MIDI 01
286.978;000.070;72;000.680;MIDI 01
286.986;000.133;60;000.547;MIDI 01
286.974;000.146;68;000.719;MIDI 01
286.982;000.144;56;000.594;MIDI 01
286.972;000.202;80;000.734;MIDI 01
286.980;000.286;77;000.594;MIDI 01
286.984;000.318;65;000.578;MIDI 01
287.415;000.031;80;000.422;MIDI 01
287.439;000.032;77;000.352;MIDI 01
287.441;000.034;78;000.469;MIDI 01
287.408;000.216;68;000.680;MIDI 01
287.394;000.272;87;000.773;MIDI 01
287.413;000.259;65;000.664;MIDI 01
287.410;000.284;56;000.602;MIDI 01
287.406;000.306;59;000.555;MIDI 01
287.411;000.307;75;000.797;MIDI 01
287.916;000.018;78;000.391;MIDI 01
287.897;000.071;67;000.703;MIDI 01
287.896;000.086;65;000.641;MIDI 01
287.915;000.099;59;000.492;MIDI 01
287.899;000.158;55;000.602;MIDI 01
287.892;000.218;71;000.703;MIDI 01
287.909;000.235;77;000.586;MIDI 01
287.894;000.333;79;000.695;MIDI 01
288.525;000.182;36;000.695;MIDI 01
288.501;000.208;86;000.703;MIDI 01
288.523;000.199;48;000.711;MIDI 01
288.505;000.226;74;000.711;MIDI 01
289.001;000.044;65;000.523;MIDI 01
289.005;000.042;73;000.477;MIDI 01
289.011;000.043;70;000.430;MIDI 01
289.000;000.073;77;000.516;MIDI 01
289.034;000.085;63;000.477;MIDI 01
289.045;000.265;56;000.391;MIDI 01
289.036;000.279;58;000.453;MIDI 01
289.424;000.126;84;000.656;MIDI 01
289.431;000.144;72;000.688;MIDI 01
289.790;000.195;78;000.609;MIDI 01
289.801;000.214;66;000.578;MIDI 01
289.815;000.243;70;000.469;MIDI 01
289.803;000.269;75;000.516;MIDI 01
289.812;000.261;63;000.602;MIDI 01
289.428;000.819;60;000.680;MIDI 01
289.811;000.448;54;000.555;MIDI 01
290.297;000.045;53;000.398;MIDI 01
290.282;000.062;68;000.586;MIDI 01
290.336;000.034;75;000.273;MIDI 01
290.340;000.049;70;000.188;MIDI 01
290.285;000.111;80;000.641;MIDI 01
290.699;000.027;48;000.492;MIDI 01
290.657;000.077;74;000.711;MIDI 01
290.657;000.091;86;000.703;MIDI 01
290.663;000.104;38;000.656;MIDI 01
290.665;000.124;50;000.672;MIDI 01
291.012;000.041;64;000.617;MIDI 01
291.027;000.047;70;000.516;MIDI 01
291.007;000.077;76;000.648;MIDI 01
291.053;000.039;55;000.422;MIDI 01
291.025;000.078;62;000.656;MIDI 01
291.405;000.146;70;000.734;MIDI 01
291.402;000.155;82;000.695;MIDI 01
291.847;000.068;54;000.172;MIDI 01
291.807;000.243;65;000.648;MIDI 01
291.797;000.257;77;000.672;MIDI 01
292.118;000.043;70;000.227;MIDI 01
291.794;000.418;62;000.664;MIDI 01
291.381;000.857;58;000.695;MIDI 01
291.799;000.469;53;000.578;MIDI 01
292.346;000.029;66;000.602;MIDI 01
292.365;000.022;52;000.445;MIDI 01
292.352;000.075;78;000.656;MIDI 01
292.697;000.056;74;000.719;MIDI 01
292.685;000.091;86;000.688;MIDI 01
292.694;000.114;51;000.781;MIDI 01
292.692;000.119;39;000.711;MIDI 01
293.036;000.033;63;000.602;MIDI 01
293.035;000.066;75;000.609;MIDI 01
293.035;000.068;60;000.531;MIDI 01
293.033;000.075;54;000.508;MIDI 01
293.079;000.031;68;000.133;MIDI 01
293.404;000.068;69;000.680;MIDI 01
293.404;000.068;81;000.711;MIDI 01
293.792;000.444;64;000.656;MIDI 01
293.794;000.444;60;000.609;MIDI 01
293.780;000.482;76;000.648;MIDI 01
293.391;000.993;57;000.727;MIDI 01
293.790;000.614;53;000.570;MIDI 01
294.392;000.032;51;000.555;MIDI 01
294.409;000.022;65;000.461;MIDI 01
294.401;000.058;77;000.648;MIDI 01
294.424;000.040;69;000.352;MIDI 01
294.719;000.057;74;000.711;MIDI 01
294.715;000.089;86;000.719;MIDI 01
294.703;000.121;40;000.656;MIDI 01
294.709;000.135;52;000.750;MIDI 01
295.049;000.031;70;000.547;MIDI 01
295.047;000.047;58;000.547;MIDI 01
295.034;000.070;50;000.531;MIDI 01
295.065;000.044;74;000.359;MIDI 01
295.068;000.047;62;000.312;MIDI 01
295.072;000.045;76;000.328;MIDI 01
295.420;000.080;56;000.219;MIDI 01
295.475;000.041;54;000.320;MIDI 01
295.396;000.136;79;000.680;MIDI 01
295.407;000.158;67;000.672;MIDI 01
295.801;000.367;58;000.594;MIDI 01
295.385;000.817;55;000.719;MIDI 01
295.795;000.417;75;000.594;MIDI 01
295.822;000.393;49;000.539;MIDI 01
295.803;000.411;63;000.586;MIDI 01
296.385;000.042;48;000.438;MIDI 01
296.410;000.040;70;000.438;MIDI 01
296.396;000.065;76;000.516;MIDI 01
296.420;000.043;64;000.195;MIDI 01
296.849;000.123;86;000.547;MIDI 01
296.869;000.113;29;000.461;MIDI 01
296.864;000.157;41;000.484;MIDI 01
296.854;000.219;74;000.523;MIDI 01
297.271;000.028;51;000.406;MIDI 01
297.319;000.057;70;000.359;MIDI 01
297.284;000.128;74;000.484;MIDI 01
297.329;000.386;50;000.445;MIDI 01
297.708;000.052;41;000.289;MIDI 01
297.643;000.127;54;000.703;MIDI 01
297.645;000.132;42;000.633;MIDI 01
297.641;000.161;78;000.672;MIDI 01
297.648;000.228;66;000.633;MIDI 01
298.078;000.367;70;000.430;MIDI 01
298.077;000.399;58;000.383;MIDI 01
298.075;000.422;74;000.492;MIDI 01
298.085;000.417;50;000.266;MIDI 01
298.079;000.426;62;000.320;MIDI 01
298.640;000.027;58;000.414;MIDI 01
298.676;000.051;74;000.477;MIDI 01
298.721;000.042;70;000.211;MIDI 01
299.039;000.080;86;000.617;MIDI 01
299.041;000.081;29;000.633;MIDI 01
299.043;000.114;41;000.680;MIDI 01
299.036;000.148;74;000.625;MIDI 01
299.380;000.289;70;000.516;MIDI 01
299.355;000.354;50;000.617;MIDI 01
299.368;000.376;74;000.578;MIDI 01
299.679;000.158;43;000.727;MIDI 01
299.681;000.189;65;000.695;MIDI 01
299.686;000.188;77;000.680;MIDI 01
299.684;000.193;55;000.781;MIDI 01
300.156;000.416;62;000.531;MIDI 01
300.148;000.430;70;000.539;MIDI 01
300.156;000.435;50;000.391;MIDI 01
300.158;000.436;58;000.492;MIDI 01
300.137;000.464;74;000.555;MIDI 01
300.753;000.035;70;000.492;MIDI 01
300.757;000.041;58;000.312;MIDI 01
300.756;000.050;74;000.516;MIDI 01
300.760;000.048;50;000.156;MIDI 01
301.121;000.030;84;000.406;MIDI 01
301.085;000.078;86;000.664;MIDI 01
301.079;000.106;29;000.688;MIDI 01
301.081;000.134;41;000.719;MIDI 01
301.083;000.157;74;000.719;MIDI 01
301.408;000.216;74;000.680;MIDI 01
301.416;000.292;70;000.641;MIDI 01
301.414;000.321;50;000.656;MIDI 01
301.774;000.094;64;000.688;MIDI 01
301.768;000.113;44;000.750;MIDI 01
301.770;000.118;56;000.789;MIDI 01
301.762;000.148;76;000.711;MIDI 01
302.180;000.449;50;000.500;MIDI 01
302.184;000.449;74;000.617;MIDI 01
302.178;000.483;62;000.586;MIDI 01
302.182;000.482;70;000.625;MIDI 01
302.177;000.505;58;000.586;MIDI 01
302.892;000.028;58;000.609;MIDI 01
302.907;000.024;50;000.516;MIDI 01
302.915;000.062;70;000.672;MIDI 01
302.927;000.056;62;000.188;MIDI 01
302.911;000.089;74;000.688;MIDI 01
303.291;000.101;29;000.711;MIDI 01
303.299;000.095;86;000.766;MIDI 01
303.296;000.123;41;000.742;MIDI 01
303.304;000.154;74;000.742;MIDI 01
303.702;000.028;74;000.555;MIDI 01
303.695;000.037;76;000.508;MIDI 01
303.708;000.046;49;000.617;MIDI 01
303.715;000.046;70;000.312;MIDI 01
303.704;000.290;50;000.648;MIDI 01
304.176;000.131;45;000.727;MIDI 01
304.264;000.066;73;000.070;MIDI 01
304.175;000.168;57;000.797;MIDI 01
304.178;000.166;63;000.750;MIDI 01
304.172;000.278;75;000.688;MIDI 01
304.716;000.702;74;000.664;MIDI 01
304.724;000.717;63;000.648;MIDI 01
304.720;000.723;65;000.656;MIDI 01
304.722;000.732;69;000.648;MIDI 01
304.728;000.773;53;000.562;MIDI 01
304.726;000.845;57;000.562;MIDI 01
305.865;000.060;65;000.688;MIDI 01
305.863;000.073;63;000.656;MIDI 01
305.867;000.073;69;000.648;MIDI 01
305.860;000.083;74;000.633;MIDI 01
305.857;000.123;53;000.602;MIDI 01
305.869;000.119;57;000.555;MIDI 01
306.675;000.032;22;000.695;MIDI 01
306.677;000.044;34;000.781;MIDI 01
306.879;000.082;53;000.523;MIDI 01
306.951;000.084;41;000.328;MIDI 01
307.021;000.053;58;000.406;MIDI 01
307.064;000.053;46;000.281;MIDI 01
307.086;000.044;50;000.297;MIDI 01
307.089;000.044;61;000.508;MIDI 01
307.186;000.072;62;000.500;MIDI 01
307.184;000.086;53;000.438;MIDI 01
307.286;000.067;65;000.484;MIDI 01
307.365;000.045;66;000.523;MIDI 01
307.337;000.076;54;000.414;MIDI 01
307.460;000.060;57;000.430;MIDI 01
307.458;000.098;67;000.555;MIDI 01
307.556;000.102;68;000.594;MIDI 01
307.586;000.086;56;000.445;MIDI 01
307.704;000.065;67;000.461;MIDI 01
307.742;000.058;59;000.398;MIDI 01
307.680;000.159;71;000.477;MIDI 01
307.840;000.040;66;000.344;MIDI 01
307.850;000.059;56;000.516;MIDI 01
307.905;000.029;65;000.539;MIDI 01
307.927;000.046;67;000.219;MIDI 01
308.020;000.096;62;000.508;MIDI 01
308.008;000.111;53;000.453;MIDI 01
308.086;000.086;59;000.500;MIDI 01
308.191;000.039;56;000.555;MIDI 01
308.137;000.145;52;000.312;MIDI 01
308.253;000.041;43;000.375;MIDI 01
308.279;000.039;53;000.570;MIDI 01
308.434;000.055;34;000.750;MIDI 01
308.578;000.039;54;000.484;MIDI 01
308.692;000.031;58;000.461;MIDI 01
308.663;000.087;42;000.508;MIDI 01
308.773;000.052;50;000.281;MIDI 01
308.767;000.079;60;000.578;MIDI 01
308.850;000.078;61;000.602;MIDI 01
308.951;000.080;66;000.570;MIDI 01
308.980;000.064;58;000.453;MIDI 01
309.031;000.041;70;000.547;MIDI 01
309.116;000.028;59;000.383;MIDI 01
309.129;000.075;71;000.625;MIDI 01
309.249;000.025;71;000.391;MIDI 01
309.240;000.049;72;000.500;MIDI 01
309.218;000.084;57;000.336;MIDI 01
309.247;000.074;60;000.344;MIDI 01
309.344;000.053;63;000.500;MIDI 01
309.366;000.049;71;000.492;MIDI 01
309.173;000.275;54;000.203;MIDI 01
309.343;000.141;75;000.562;MIDI 01
309.476;000.047;70;000.523;MIDI 01
309.554;000.036;69;000.578;MIDI 01
309.555;000.071;58;000.500;MIDI 01
309.667;000.086;66;000.531;MIDI 01
309.716;000.073;57;000.383;MIDI 01
309.776;000.052;64;000.242;MIDI 01
309.809;000.047;60;000.547;MIDI 01
309.789;000.075;56;000.523;MIDI 01
309.895;000.041;57;000.648;MIDI 01
310.015;000.033;34;000.703;MIDI 01
310.220;000.055;62;000.578;MIDI 01
310.251;000.144;50;000.422;MIDI 01
310.343;000.062;55;000.391;MIDI 01
310.324;000.084;67;000.477;MIDI 01
310.391;000.045;70;000.492;MIDI 01
310.408;000.042;58;000.445;MIDI 01
310.431;000.036;73;000.547;MIDI 01
310.481;000.047;62;000.500;MIDI 01
310.533;000.050;74;000.555;MIDI 01
310.621;000.084;77;000.531;MIDI 01
310.636;000.098;65;000.469;MIDI 01
310.699;000.071;78;000.578;MIDI 01
310.781;000.029;68;000.555;MIDI 01
310.778;000.038;66;000.344;MIDI 01
310.802;000.060;61;000.211;MIDI 01
310.778;000.095;79;000.562;MIDI 01
310.878;000.111;82;000.492;MIDI 01
310.958;000.033;67;000.211;MIDI 01
310.946;000.058;78;000.508;MIDI 01
311.033;000.024;77;000.500;MIDI 01
311.045;000.045;70;000.523;MIDI 01
311.164;000.045;66;000.406;MIDI 01
311.119;000.094;76;000.648;MIDI 01
311.207;000.077;73;000.523;MIDI 01
311.277;000.028;65;000.391;MIDI 01
311.295;000.041;70;000.477;MIDI 01
311.324;000.070;64;000.414;MIDI 01
311.394;000.034;61;000.586;MIDI 01
311.360;000.079;67;000.508;MIDI 01
311.445;000.036;64;000.477;MIDI 01
311.603;000.045;34;000.750;MIDI 01
311.774;000.030;66;000.523;MIDI 01
311.865;000.028;70;000.461;MIDI 01
311.906;000.035;58;000.336;MIDI 01
311.822;000.121;54;000.586;MIDI 01
311.924;000.062;63;000.469;MIDI 01
311.949;000.078;74;000.609;MIDI 01
312.044;000.024;66;000.391;MIDI 01
312.031;000.103;75;000.602;MIDI 01
312.107;000.094;78;000.562;MIDI 01
312.173;000.050;70;000.492;MIDI 01
312.246;000.047;82;000.086;MIDI 01
312.298;000.049;71;000.227;MIDI 01
312.288;000.070;83;000.594;MIDI 01
312.357;000.088;69;000.445;MIDI 01
312.374;000.074;84;000.633;MIDI 01
312.385;000.099;72;000.352;MIDI 01
312.502;000.052;83;000.555;MIDI 01
312.529;000.033;75;000.383;MIDI 01
312.496;000.164;87;000.594;MIDI 01
312.625;000.071;82;000.531;MIDI 01
312.656;000.056;71;000.352;MIDI 01
312.722;000.029;81;000.562;MIDI 01
312.718;000.064;70;000.555;MIDI 01
312.823;000.095;78;000.609;MIDI 01
312.931;000.031;69;000.102;MIDI 01
312.916;000.067;75;000.539;MIDI 01
312.945;000.053;68;000.539;MIDI 01
312.980;000.024;73;000.625;MIDI 01
313.079;000.061;69;000.648;MIDI 01
313.216;000.033;34;000.688;MIDI 01
313.471;000.136;53;000.547;MIDI 01
313.458;000.174;74;000.586;MIDI 01
313.632;000.053;59;000.445;MIDI 01
313.664;000.030;56;000.391;MIDI 01
313.617;000.079;76;000.578;MIDI 01
313.721;000.040;64;000.539;MIDI 01
313.816;000.072;56;000.375;MIDI 01
313.809;000.128;60;000.492;MIDI 01
313.939;000.086;77;000.602;MIDI 01
313.950;000.099;65;000.609;MIDI 01
313.994;000.123;72;000.320;MIDI 01
314.104;000.104;64;000.523;MIDI 01
314.208;000.045;63;000.555;MIDI 01
314.286;000.054;75;000.383;MIDI 01
314.357;000.031;68;000.500;MIDI 01
314.319;000.079;62;000.609;MIDI 01
314.266;000.133;80;000.578;MIDI 01
314.438;000.077;61;000.539;MIDI 01
314.561;000.044;80;000.602;MIDI 01
314.598;000.039;83;000.336;MIDI 01
314.559;000.092;84;000.609;MIDI 01
314.545;000.120;60;000.609;MIDI 01
314.688;000.031;72;000.383;MIDI 01
314.685;000.049;71;000.273;MIDI 01
314.673;000.115;56;000.484;MIDI 01
314.753;000.059;53;000.555;MIDI 01
314.885;000.037;77;000.641;MIDI 01
314.879;000.064;84;000.695;MIDI 01
314.881;000.064;89;000.711;MIDI 01
315.003;000.030;89;000.711;MIDI 01
315.005;000.030;84;000.648;MIDI 01
315.016;000.022;77;000.719;MIDI 01
314.913;000.154;51;000.602;MIDI 01
315.169;000.032;34;000.680;MIDI 01
315.234;000.029;37;000.188;MIDI 01
315.229;000.036;75;000.320;MIDI 01
315.402;000.131;55;000.562;MIDI 01
315.386;000.159;76;000.602;MIDI 01
315.509;000.050;73;000.336;MIDI 01
315.559;000.033;58;000.477;MIDI 01
315.476;000.128;61;000.453;MIDI 01
315.515;000.108;78;000.656;MIDI 01
315.597;000.032;66;000.578;MIDI 01
315.755;000.049;61;000.203;MIDI 01
315.797;000.051;79;000.664;MIDI 01
315.703;000.147;62;000.438;MIDI 01
315.740;000.155;58;000.281;MIDI 01
315.816;000.120;67;000.594;MIDI 01
315.955;000.111;66;000.570;MIDI 01
316.060;000.052;63;000.234;MIDI 01
316.053;000.080;82;000.664;MIDI 01
316.117;000.065;64;000.641;MIDI 01
316.250;000.044;64;000.375;MIDI 01
316.302;000.040;61;000.570;MIDI 01
316.226;000.120;62;000.484;MIDI 01
316.346;000.030;82;000.531;MIDI 01
316.334;000.066;84;000.695;MIDI 01
316.407;000.081;60;000.633;MIDI 01
316.478;000.060;59;000.039;MIDI 01
316.530;000.065;58;000.609;MIDI 01
316.627;000.029;79;000.672;MIDI 01
316.631;000.029;85;000.492;MIDI 01
316.669;000.002;90;000.266;MIDI 01
316.675;000.002;87;000.266;MIDI 01
316.617;000.060;91;000.781;MIDI 01
316.665;000.028;86;000.352;MIDI 01
316.757;000.002;85;000.430;MIDI 01
316.684;000.085;55;000.531;MIDI 01
316.734;000.051;79;000.602;MIDI 01
316.725;000.062;91;000.742;MIDI 01
316.767;000.028;81;000.422;MIDI 01
316.765;000.048;53;000.602;MIDI 01
316.927;000.053;37;000.672;MIDI 01
316.952;000.032;39;000.523;MIDI 01
317.151;000.036;87;000.562;MIDI 01
317.168;000.035;56;000.445;MIDI 01
317.166;000.050;55;000.406;MIDI 01
317.130;000.120;53;000.617;MIDI 01
317.220;000.067;55;000.211;MIDI 01
317.294;000.051;68;000.695;MIDI 01
317.258;000.087;92;000.719;MIDI 01
317.279;000.068;80;000.719;MIDI 01
317.292;000.060;63;000.578;MIDI 01
317.286;000.110;86;000.539;MIDI 01
317.284;000.177;59;000.352;MIDI 01
317.507;000.072;59;000.078;MIDI 01
317.613;000.025;79;000.711;MIDI 01
317.528;000.131;63;000.562;MIDI 01
317.597;000.072;91;000.695;MIDI 01
317.543;000.129;87;000.391;MIDI 01
317.649;000.043;89;000.250;MIDI 01
317.601;000.096;83;000.406;MIDI 01
317.617;000.089;69;000.719;MIDI 01
317.610;000.155;86;000.188;MIDI 01
317.832;000.032;87;000.531;MIDI 01
317.820;000.061;86;000.406;MIDI 01
317.810;000.118;60;000.461;MIDI 01
317.924;000.056;79;000.680;MIDI 01
317.978;000.002;89;000.234;MIDI 01
317.932;000.072;70;000.695;MIDI 01
317.918;000.089;91;000.734;MIDI 01
317.926;000.091;83;000.359;MIDI 01
317.908;000.117;67;000.680;MIDI 01
317.976;000.051;88;000.273;MIDI 01
317.928;000.105;86;000.562;MIDI 01
317.901;000.154;63;000.492;MIDI 01
318.155;000.044;83;000.469;MIDI 01
318.177;000.032;86;000.391;MIDI 01
318.136;000.078;87;000.586;MIDI 01
318.131;000.131;58;000.586;MIDI 01
318.236;000.068;63;000.477;MIDI 01
318.244;000.065;71;000.680;MIDI 01
318.250;000.060;78;000.672;MIDI 01
318.282;000.030;83;000.453;MIDI 01
318.240;000.075;66;000.602;MIDI 01
318.289;000.041;86;000.367;MIDI 01
318.242;000.098;90;000.688;MIDI 01
318.448;000.061;57;000.547;MIDI 01
318.464;000.048;87;000.516;MIDI 01
318.482;000.033;75;000.320;MIDI 01
318.529;000.035;65;000.328;MIDI 01
318.571;000.022;72;000.766;MIDI 01
318.573;000.031;77;000.641;MIDI 01
318.578;000.033;66;000.297;MIDI 01
318.575;000.043;81;000.594;MIDI 01
318.569;000.061;65;000.258;MIDI 01
318.562;000.070;89;000.656;MIDI 01
318.604;000.042;87;000.227;MIDI 01
318.527;000.154;63;000.359;MIDI 01
318.793;000.017;75;000.469;MIDI 01
318.760;000.065;87;000.602;MIDI 01
318.879;000.036;46;000.812;MIDI 01
318.885;000.039;34;000.727;MIDI 01
318.922;000.002;37;000.398;MIDI 01
319.035;000.029;34;000.039;MIDI 01
319.161;000.045;59;000.328;MIDI 01
319.148;000.075;84;000.117;MIDI 01
319.221;000.015;81;000.672;MIDI 01
319.188;000.051;63;000.445;MIDI 01
319.219;000.028;87;000.594;MIDI 01
319.210;000.050;69;000.758;MIDI 01
319.082;000.185;88;000.680;MIDI 01
319.212;000.066;91;000.445;MIDI 01
319.198;000.084;93;000.742;MIDI 01
319.282;000.058;91;000.094;MIDI 01
319.409;000.044;54;000.602;MIDI 01
319.423;000.039;57;000.344;MIDI 01
319.169;000.297;60;000.352;MIDI 01
319.421;000.061;88;000.680;MIDI 01
319.442;000.065;83;000.516;MIDI 01
319.425;000.116;64;000.594;MIDI 01
319.554;000.025;87;000.383;MIDI 01
319.511;000.073;70;000.750;MIDI 01
319.536;000.070;80;000.734;MIDI 01
319.529;000.136;92;000.734;MIDI 01
319.751;000.040;83;000.562;MIDI 01
319.736;000.130;87;000.531;MIDI 01
319.739;000.130;61;000.508;MIDI 01
319.848;000.053;83;000.516;MIDI 01
319.823;000.080;71;000.727;MIDI 01
319.841;000.081;80;000.750;MIDI 01
319.810;000.146;68;000.617;MIDI 01
319.830;000.134;92;000.734;MIDI 01
319.804;000.198;64;000.586;MIDI 01
320.083;000.058;83;000.336;MIDI 01
320.089;000.059;61;000.406;MIDI 01
320.067;000.121;59;000.633;MIDI 01
320.157;000.062;72;000.758;MIDI 01
320.064;000.158;87;000.586;MIDI 01
320.161;000.066;79;000.688;MIDI 01
320.159;000.072;83;000.469;MIDI 01
320.107;000.138;67;000.391;MIDI 01
320.152;000.126;91;000.711;MIDI 01
320.207;000.183;64;000.336;MIDI 01
320.423;000.003;77;000.047;MIDI 01
320.372;000.067;58;000.609;MIDI 01
320.397;000.045;79;000.250;MIDI 01
320.361;000.082;87;000.664;MIDI 01
320.452;000.034;73;000.750;MIDI 01
320.449;000.064;66;000.578;MIDI 01
320.413;000.114;64;000.406;MIDI 01
320.482;000.046;78;000.734;MIDI 01
320.512;000.038;82;000.328;MIDI 01
320.473;000.108;90;000.758;MIDI 01
320.660;000.052;87;000.523;MIDI 01
320.679;000.039;88;000.594;MIDI 01
320.684;000.038;77;000.359;MIDI 01
320.784;000.021;46;000.836;MIDI 01
320.797;000.020;34;000.672;MIDI 01
320.825;000.048;92;000.570;MIDI 01
321.022;000.030;58;000.469;MIDI 01
320.981;000.075;91;000.625;MIDI 01
321.009;000.052;92;000.242;MIDI 01
321.005;000.065;55;000.688;MIDI 01
321.220;000.017;84;000.508;MIDI 01
321.222;000.017;87;000.508;MIDI 01
321.226;000.018;96;000.461;MIDI 01
321.196;000.054;90;000.656;MIDI 01
321.233;000.044;67;000.656;MIDI 01
321.229;000.050;55;000.125;MIDI 01
321.236;000.045;57;000.289;MIDI 01
321.298;000.039;60;000.109;MIDI 01
321.319;000.040;87;000.625;MIDI 01
321.321;000.040;91;000.617;MIDI 01
321.444;000.014;87;000.539;MIDI 01
321.323;000.140;96;000.656;MIDI 01
321.325;000.150;84;000.555;MIDI 01
321.421;000.057;91;000.641;MIDI 01
321.482;000.002;92;000.227;MIDI 01
321.515;000.028;68;000.703;MIDI 01
321.520;000.048;56;000.586;MIDI 01
321.520;000.050;60;000.609;MIDI 01
321.522;000.050;63;000.500;MIDI 01
321.647;000.012;91;000.508;MIDI 01
321.640;000.022;83;000.578;MIDI 01
321.642;000.023;87;000.461;MIDI 01
321.628;000.039;95;000.641;MIDI 01
321.652;000.025;68;000.461;MIDI 01
321.671;000.039;63;000.375;MIDI 01
321.655;000.060;56;000.539;MIDI 01
321.664;000.056;60;000.508;MIDI 01
321.749;000.029;87;000.664;MIDI 01
321.747;000.035;83;000.562;MIDI 01
321.752;000.043;95;000.602;MIDI 01
321.738;000.059;91;000.742;MIDI 01
321.776;000.028;84;000.461;MIDI 01
321.874;000.002;34;000.477;MIDI 01
321.847;000.031;46;000.852;MIDI 01
322.155;000.026;68;000.617;MIDI 01
322.127;000.077;56;000.555;MIDI 01
322.171;000.043;58;000.336;MIDI 01
322.214;000.028;95;000.508;MIDI 01
322.210;000.039;83;000.562;MIDI 01
322.157;000.096;60;000.500;MIDI 01
322.232;000.024;87;000.398;MIDI 01
322.239;000.027;91;000.336;MIDI 01
322.253;000.034;93;000.289;MIDI 01
322.317;000.020;83;000.641;MIDI 01
322.299;000.056;56;000.398;MIDI 01
322.315;000.045;91;000.594;MIDI 01
322.323;000.039;87;000.617;MIDI 01
322.333;000.032;95;000.414;MIDI 01
322.291;000.077;68;000.477;MIDI 01
322.366;000.037;58;000.258;MIDI 01
322.468;000.046;57;000.578;MIDI 01
322.464;000.054;60;000.555;MIDI 01
322.495;000.045;61;000.305;MIDI 01
322.465;000.083;69;000.719;MIDI 01
322.581;000.015;82;000.578;MIDI 01
322.569;000.029;94;000.578;MIDI 01
322.586;000.017;91;000.477;MIDI 01
322.460;000.147;63;000.555;MIDI 01
322.587;000.031;57;000.609;MIDI 01
322.596;000.028;60;000.656;MIDI 01
322.596;000.041;87;000.312;MIDI 01
322.615;000.036;58;000.422;MIDI 01
322.673;000.024;82;000.609;MIDI 01
322.693;000.022;91;000.555;MIDI 01
322.683;000.036;87;000.508;MIDI 01
322.679;000.049;90;000.391;MIDI 01
322.671;000.071;94;000.594;MIDI 01
322.791;000.031;46;000.906;MIDI 01
322.799;000.026;34;000.750;MIDI 01
322.881;000.020;90;000.383;MIDI 01
323.089;000.082;69;000.672;MIDI 01
323.094;000.095;55;000.430;MIDI 01
323.171;000.022;82;000.617;MIDI 01
323.169;000.034;94;000.625;MIDI 01
323.178;000.027;87;000.484;MIDI 01
323.098;000.124;58;000.398;MIDI 01
323.097;000.149;57;000.469;MIDI 01
323.222;000.054;92;000.086;MIDI 01
323.259;000.049;69;000.523;MIDI 01
323.291;000.020;87;000.664;MIDI 01
323.280;000.046;82;000.539;MIDI 01
323.284;000.054;94;000.672;MIDI 01
323.275;000.073;60;000.094;MIDI 01
323.422;000.044;58;000.562;MIDI 01
323.433;000.036;63;000.539;MIDI 01
323.415;000.057;70;000.734;MIDI 01
323.402;000.090;60;000.508;MIDI 01
323.538;000.016;81;000.484;MIDI 01
323.541;000.031;87;000.391;MIDI 01
323.520;000.058;93;000.625;MIDI 01
323.548;000.069;58;000.500;MIDI 01
323.557;000.069;60;000.438;MIDI 01
323.575;000.061;70;000.594;MIDI 01
323.567;000.072;63;000.500;MIDI 01
323.633;000.025;93;000.500;MIDI 01
323.630;000.032;81;000.680;MIDI 01
323.645;000.033;87;000.648;MIDI 01
323.752;000.028;59;000.492;MIDI 01
323.732;000.058;71;000.695;MIDI 01
323.740;000.056;63;000.500;MIDI 01
323.773;000.052;60;000.383;MIDI 01
323.829;000.026;80;000.586;MIDI 01
323.825;000.033;87;000.539;MIDI 01
323.810;000.061;92;000.672;MIDI 01
323.891;000.033;59;000.523;MIDI 01
323.893;000.059;71;000.570;MIDI 01
323.936;000.040;80;000.578;MIDI 01
323.887;000.093;63;000.602;MIDI 01
323.950;000.031;87;000.648;MIDI 01
323.947;000.050;92;000.680;MIDI 01
323.952;000.057;61;000.086;MIDI 01
324.086;000.025;79;000.711;MIDI 01
324.095;000.024;87;000.609;MIDI 01
324.061;000.085;60;000.539;MIDI 01
324.079;000.070;91;000.727;MIDI 01
324.116;000.043;90;000.320;MIDI 01
324.072;000.100;72;000.695;MIDI 01
324.059;000.157;63;000.594;MIDI 01
324.328;000.026;61;000.469;MIDI 01
324.302;000.076;72;000.727;MIDI 01
324.339;000.051;64;000.516;MIDI 01
324.333;000.066;78;000.734;MIDI 01
324.373;000.035;80;000.391;MIDI 01
324.326;000.089;90;000.633;MIDI 01
324.308;000.141;69;000.648;MIDI 01
324.558;000.102;89;000.758;MIDI 01
324.569;000.117;64;000.453;MIDI 01
324.564;000.124;73;000.750;MIDI 01
324.577;000.112;65;000.570;MIDI 01
324.571;000.123;77;000.742;MIDI 01
324.561;000.134;61;000.516;MIDI 01
324.573;000.198;69;000.562;MIDI 01
324.925;000.002;80;000.195;MIDI 01
324.885;000.142;73;000.742;MIDI 01
324.890;000.166;69;000.633;MIDI 01
324.892;000.210;66;000.680;MIDI 01
324.874;000.235;61;000.594;MIDI 01
324.887;000.223;81;000.695;MIDI 01
324.881;000.231;85;000.734;MIDI 01
324.868;000.257;88;000.734;MIDI 01
324.883;000.249;76;000.773;MIDI 01
325.631;000.293;22;000.719;MIDI 01
325.636;000.299;34;000.750;MIDI 01
326.250;000.023;77;000.711;MIDI 01
326.248;000.042;82;000.703;MIDI 01
326.254;000.042;86;000.727;MIDI 01
326.252;000.067;89;000.688;MIDI 01
326.262;000.176;65;000.656;MIDI 01
326.261;000.185;53;000.492;MIDI 01
326.246;000.235;62;000.641;MIDI 01
326.259;000.238;58;000.594;MIDI 01
326.555;000.056;65;000.828;MIDI 01
326.566;000.056;53;000.742;MIDI 01
326.557;000.067;62;000.727;MIDI 01
326.568;000.075;58;000.688;MIDI 01
326.552;000.133;98;000.695;MIDI 01
326.561;000.148;91;000.750;MIDI 01
326.564;000.148;94;000.703;MIDI 01
326.553;000.177;103;000.750;MIDI 01
327.293;000.035;78;000.367;MIDI 01
327.291;000.070;82;000.500;MIDI 01
327.326;000.036;77;000.305;MIDI 01
327.272;000.115;87;000.711;MIDI 01
327.360;000.031;94;000.609;MIDI 01
327.365;000.033;89;000.570;MIDI 01
327.367;000.040;101;000.555;MIDI 01
327.283;000.170;88;000.633;MIDI 01
327.453;000.040;77;000.414;MIDI 01
327.486;000.026;101;000.555;MIDI 01
327.467;000.051;82;000.531;MIDI 01
327.497;000.023;89;000.602;MIDI 01
327.493;000.033;94;000.594;MIDI 01
327.608;000.047;85;000.695;MIDI 01
327.615;000.044;74;000.602;MIDI 01
327.629;000.034;75;000.438;MIDI 01
327.617;000.050;82;000.594;MIDI 01
327.672;000.041;86;000.562;MIDI 01
327.683;000.033;94;000.406;MIDI 01
327.699;000.033;98;000.367;MIDI 01
327.701;000.034;89;000.227;MIDI 01
327.759;000.022;85;000.469;MIDI 01
327.726;000.055;96;000.172;MIDI 01
327.781;000.018;86;000.656;MIDI 01
327.767;000.047;77;000.586;MIDI 01
327.785;000.033;94;000.680;MIDI 01
327.788;000.061;82;000.102;MIDI 01
327.907;000.036;81;000.609;MIDI 01
327.916;000.042;70;000.539;MIDI 01
327.929;000.041;94;000.422;MIDI 01
327.947;000.025;82;000.586;MIDI 01
327.902;000.074;74;000.594;MIDI 01
327.949;000.039;86;000.312;MIDI 01
328.048;000.029;77;000.344;MIDI 01
328.040;000.044;74;000.500;MIDI 01
328.066;000.026;82;000.562;MIDI 01
328.062;000.038;94;000.641;MIDI 01
328.183;000.047;65;000.539;MIDI 01
328.195;000.037;70;000.531;MIDI 01
328.211;000.025;68;000.375;MIDI 01
328.171;000.068;76;000.695;MIDI 01
328.161;000.083;75;000.688;MIDI 01
328.230;000.041;77;000.555;MIDI 01
328.220;000.053;82;000.430;MIDI 01
328.243;000.041;89;000.531;MIDI 01
328.245;000.057;67;000.133;MIDI 01
328.333;000.036;74;000.562;MIDI 01
328.331;000.049;65;000.578;MIDI 01
328.319;000.065;70;000.570;MIDI 01
328.370;000.034;68;000.375;MIDI 01
328.376;000.030;82;000.586;MIDI 01
328.379;000.029;89;000.570;MIDI 01
328.368;000.048;77;000.602;MIDI 01
328.477;000.024;73;000.719;MIDI 01
328.496;000.020;62;000.508;MIDI 01
328.498;000.034;70;000.531;MIDI 01
328.501;000.033;63;000.438;MIDI 01
328.516;000.040;74;000.594;MIDI 01
328.552;000.038;86;000.359;MIDI 01
328.550;000.049;82;000.234;MIDI 01
328.611;000.033;73;000.594;MIDI 01
328.642;000.025;74;000.594;MIDI 01
328.607;000.070;65;000.062;MIDI 01
328.658;000.023;63;000.344;MIDI 01
328.649;000.046;70;000.211;MIDI 01
328.677;000.043;82;000.289;MIDI 01
328.776;000.025;69;000.609;MIDI 01
328.785;000.036;58;000.516;MIDI 01
328.770;000.054;66;000.578;MIDI 01
328.764;000.066;63;000.656;MIDI 01
328.805;000.026;82;000.539;MIDI 01
328.809;000.028;75;000.508;MIDI 01
328.807;000.032;70;000.570;MIDI 01
328.924;000.030;70;000.641;MIDI 01
328.915;000.042;62;000.578;MIDI 01
328.917;000.044;58;000.523;MIDI 01
328.936;000.033;82;000.508;MIDI 01
328.960;000.025;75;000.320;MIDI 01
329.056;000.046;53;000.500;MIDI 01
329.047;000.059;62;000.617;MIDI 01
329.042;000.070;58;000.492;MIDI 01
329.116;000.002;70;000.289;MIDI 01
329.107;000.026;65;000.508;MIDI 01
329.102;000.033;75;000.414;MIDI 01
329.095;000.046;55;000.305;MIDI 01
329.111;000.032;77;000.391;MIDI 01
329.189;000.030;53;000.602;MIDI 01
329.185;000.044;58;000.578;MIDI 01
329.225;000.021;77;000.539;MIDI 01
329.224;000.028;65;000.586;MIDI 01
329.336;000.032;61;000.656;MIDI 01
329.346;000.033;58;000.539;MIDI 01
329.355;000.026;51;000.406;MIDI 01
329.360;000.032;65;000.367;MIDI 01
329.368;000.036;50;000.359;MIDI 01
329.387;000.034;70;000.312;MIDI 01
329.378;000.046;62;000.414;MIDI 01
329.392;000.045;74;000.305;MIDI 01
329.349;000.091;53;000.023;MIDI 01
329.382;000.059;54;000.180;MIDI 01
329.446;000.040;61;000.562;MIDI 01
329.452;000.069;53;000.469;MIDI 01
329.495;000.026;62;000.516;MIDI 01
329.503;000.022;65;000.469;MIDI 01
329.514;000.016;70;000.516;MIDI 01
329.636;000.039;46;000.516;MIDI 01
329.633;000.044;57;000.555;MIDI 01
329.652;000.026;62;000.492;MIDI 01
329.614;000.067;50;000.508;MIDI 01
329.642;000.042;70;000.531;MIDI 01
329.668;000.018;58;000.508;MIDI 01
329.764;000.034;53;000.422;MIDI 01
329.761;000.045;50;000.500;MIDI 01
329.759;000.051;46;000.648;MIDI 01
329.791;000.021;58;000.602;MIDI 01
329.804;000.015;70;000.500;MIDI 01
329.938;000.002;51;000.258;MIDI 01
329.913;000.045;46;000.625;MIDI 01
329.921;000.041;41;000.500;MIDI 01
329.919;000.061;50;000.555;MIDI 01
329.917;000.070;58;000.141;MIDI 01
329.915;000.074;52;000.617;MIDI 01
329.959;000.033;53;000.508;MIDI 01
329.974;000.036;65;000.406;MIDI 01
330.039;000.041;41;000.594;MIDI 01
330.049;000.036;46;000.516;MIDI 01
330.089;000.021;53;000.523;MIDI 01
330.097;000.034;58;000.461;MIDI 01
330.085;000.054;65;000.578;MIDI 01
330.273;000.002;33;000.461;MIDI 01
330.243;000.076;34;000.742;MIDI 01
330.288;000.037;35;000.375;MIDI 01
330.241;000.097;22;000.688;MIDI 01
330.310;000.066;21;000.195;MIDI 01
330.617;000.041;56;000.664;MIDI 01
330.641;000.042;53;000.438;MIDI 01
330.615;000.073;46;000.562;MIDI 01
330.611;000.077;49;000.523;MIDI 01
330.668;000.028;64;000.383;MIDI 01
330.620;000.356;58;000.688;MIDI 01
330.631;000.352;62;000.555;MIDI 01
330.629;000.378;65;000.555;MIDI 01
330.609;000.427;70;000.711;MIDI 01
330.991;000.098;34;000.750;MIDI 01
330.989;000.105;46;000.812;MIDI 01
331.432;000.037;63;000.531;MIDI 01
331.426;000.055;69;000.680;MIDI 01
331.424;000.069;66;000.609;MIDI 01
331.430;000.097;57;000.578;MIDI 01
331.422;000.528;70;000.773;MIDI 01
331.964;000.002;33;000.398;MIDI 01
331.418;000.548;75;000.727;MIDI 01
331.970;000.002;44;000.336;MIDI 01
331.420;000.558;78;000.719;MIDI 01
331.410;000.614;82;000.734;MIDI 01
331.909;000.135;46;000.828;MIDI 01
331.907;000.141;34;000.758;MIDI 01
332.474;000.081;55;000.570;MIDI 01
332.516;000.083;60;000.570;MIDI 01
332.557;000.047;85;000.641;MIDI 01
332.523;000.085;64;000.547;MIDI 01
332.555;000.057;70;000.828;MIDI 01
332.547;000.078;82;000.797;MIDI 01
332.594;000.031;92;000.297;MIDI 01
332.549;000.085;84;000.734;MIDI 01
332.535;000.101;94;000.812;MIDI 01
332.608;000.030;85;000.359;MIDI 01
332.544;000.097;88;000.820;MIDI 01
333.504;000.402;46;000.734;MIDI 01
333.506;000.471;58;000.664;MIDI 01
333.514;000.493;22;000.695;MIDI 01
333.517;000.516;34;000.727;MIDI 01
334.518;000.002;76;000.227;MIDI 01
334.479;000.083;41;000.516;MIDI 01
334.458;000.109;50;000.570;MIDI 01
334.470;000.115;46;000.578;MIDI 01
334.472;000.131;53;000.602;MIDI 01
334.451;000.170;70;000.781;MIDI 01
334.446;000.261;82;000.688;MIDI 01
334.462;000.267;77;000.680;MIDI 01
334.456;000.352;74;000.688;MIDI 01
335.185;000.042;55;000.297;MIDI 01
335.146;002.123;74;000.688;MIDI 01
335.137;002.135;65;000.766;MIDI 01
335.136;002.159;62;000.680;MIDI 01
335.142;002.161;70;000.797;MIDI 01
335.144;002.161;53;000.625;MIDI 01
335.148;002.162;77;000.664;MIDI 01
335.134;002.178;82;000.766;MIDI 01
335.140;002.175;58;000.656;MIDI 01
