Start;Duration;Pitch;Velocity;Instrument
000.914;000.300;65;000.586;MIDI 01
001.073;000.185;63;000.555;MIDI 01
001.160;000.120;61;000.602;MIDI 01
001.245;000.067;58;000.641;MIDI 01
001.319;000.091;53;000.492;MIDI 01
001.415;000.055;49;000.469;MIDI 01
001.479;000.036;46;000.531;MIDI 01
001.620;000.178;41;000.586;MIDI 01
001.720;000.124;39;000.547;MIDI 01
001.802;000.066;37;000.617;MIDI 01
001.940;000.184;22;000.695;MIDI 01
001.945;000.206;34;000.711;MIDI 01
002.636;000.042;89;000.625;MIDI 01
002.641;000.052;77;000.625;MIDI 01
002.655;000.050;53;000.500;MIDI 01
002.654;000.053;65;000.617;MIDI 01
002.651;000.062;61;000.562;MIDI 01
002.656;000.069;58;000.570;MIDI 01
002.644;000.082;82;000.648;MIDI 01
002.802;000.069;53;000.578;MIDI 01
002.812;000.058;73;000.758;MIDI 01
002.810;000.061;65;000.695;MIDI 01
002.818;000.066;82;000.602;MIDI 01
002.805;000.102;85;000.727;MIDI 01
002.814;000.099;61;000.609;MIDI 01
002.808;000.105;58;000.594;MIDI 01
003.300;000.067;73;000.398;MIDI 01
003.307;000.164;77;000.273;MIDI 01
003.511;000.037;70;000.305;MIDI 01
003.527;000.058;61;000.273;MIDI 01
003.651;000.070;65;000.070;MIDI 01
003.739;000.052;73;000.312;MIDI 01
003.721;000.077;77;000.406;MIDI 01
003.860;000.046;70;000.289;MIDI 01
003.866;000.054;61;000.195;MIDI 01
004.073;000.036;73;000.367;MIDI 01
004.066;000.065;77;000.398;MIDI 01
004.173;000.058;70;000.320;MIDI 01
004.186;000.056;61;000.164;MIDI 01
004.257;000.066;65;000.297;MIDI 01
004.370;000.062;73;000.414;MIDI 01
004.372;000.074;77;000.391;MIDI 01
004.460;000.081;61;000.320;MIDI 01
004.507;000.050;70;000.266;MIDI 01
004.527;000.104;65;000.266;MIDI 01
004.696;000.045;73;000.305;MIDI 01
004.692;000.094;77;000.352;MIDI 01
004.808;000.077;65;000.414;MIDI 01
004.747;000.143;61;000.273;MIDI 01
004.907;000.044;73;000.273;MIDI 01
005.025;000.072;65;000.406;MIDI 01
005.131;000.332;70;000.352;MIDI 01
005.383;000.576;65;000.602;MIDI 01
005.127;001.027;73;000.336;MIDI 01
005.862;000.395;64;000.656;MIDI 01
006.182;000.170;63;000.617;MIDI 01
006.120;000.297;65;000.352;MIDI 01
006.370;000.177;70;000.258;MIDI 01
006.335;000.300;73;000.391;MIDI 01
006.696;000.177;65;000.367;MIDI 01
006.836;000.127;73;000.391;MIDI 01
006.826;000.145;70;000.273;MIDI 01
006.971;000.293;77;000.422;MIDI 01
007.045;000.247;65;000.430;MIDI 01
007.156;000.192;70;000.352;MIDI 01
007.160;000.208;73;000.422;MIDI 01
006.546;001.047;61;000.664;MIDI 01
007.334;000.402;58;000.500;MIDI 01
007.750;000.154;65;000.398;MIDI 01
007.926;000.065;73;000.344;MIDI 01
008.018;000.146;77;000.367;MIDI 01
008.154;000.110;65;000.188;MIDI 01
008.227;000.054;73;000.375;MIDI 01
007.585;000.984;53;000.492;MIDI 01
008.662;000.333;54;000.320;MIDI 01
008.854;000.270;61;000.227;MIDI 01
009.059;000.092;65;000.211;MIDI 01
009.284;000.106;54;000.242;MIDI 01
009.434;000.265;61;000.352;MIDI 01
009.576;000.451;54;000.297;MIDI 01
009.773;000.392;58;000.164;MIDI 01
009.880;000.355;61;000.336;MIDI 01
009.043;001.247;52;000.383;MIDI 01
010.224;000.481;51;000.312;MIDI 01
010.858;000.208;53;000.148;MIDI 01
010.834;000.234;61;000.273;MIDI 01
011.066;000.070;49;000.320;MIDI 01
011.284;000.056;34;000.227;MIDI 01
011.108;000.235;41;000.281;MIDI 01
011.367;000.041;61;000.258;MIDI 01
011.357;000.061;65;000.328;MIDI 01
011.548;000.060;49;000.273;MIDI 01
011.646;000.046;41;000.422;MIDI 01
011.809;000.059;53;000.125;MIDI 01
011.744;000.131;60;000.406;MIDI 01
011.901;000.057;48;000.422;MIDI 01
011.902;000.167;41;000.203;MIDI 01
012.064;000.047;34;000.328;MIDI 01
012.124;000.054;60;000.414;MIDI 01
012.136;000.047;65;000.391;MIDI 01
012.296;000.054;53;000.336;MIDI 01
012.290;000.121;48;000.391;MIDI 01
012.408;000.055;41;000.391;MIDI 01
012.533;000.076;53;000.297;MIDI 01
012.530;000.129;58;000.445;MIDI 01
012.630;000.188;41;000.352;MIDI 01
012.793;000.034;34;000.461;MIDI 01
012.648;000.197;46;000.461;MIDI 01
012.892;000.055;58;000.461;MIDI 01
012.894;000.074;65;000.516;MIDI 01
013.010;000.056;53;000.539;MIDI 01
013.007;000.114;46;000.492;MIDI 01
013.128;000.046;41;000.477;MIDI 01
013.225;000.113;53;000.516;MIDI 01
013.214;000.189;56;000.594;MIDI 01
013.367;000.170;44;000.609;MIDI 01
013.365;000.181;41;000.492;MIDI 01
013.485;000.086;34;000.578;MIDI 01
013.584;000.061;65;000.609;MIDI 01
013.588;000.065;56;000.625;MIDI 01
013.736;000.088;53;000.625;MIDI 01
013.729;000.172;44;000.648;MIDI 01
013.883;000.043;41;000.602;MIDI 01
013.916;000.064;42;000.281;MIDI 01
014.180;000.110;42;000.617;MIDI 01
014.174;000.181;54;000.625;MIDI 01
014.283;000.169;22;000.656;MIDI 01
014.286;000.173;34;000.695;MIDI 01
014.884;000.041;65;000.500;MIDI 01
014.889;000.049;61;000.500;MIDI 01
014.902;000.039;58;000.445;MIDI 01
014.898;000.047;54;000.453;MIDI 01
015.021;000.059;65;000.570;MIDI 01
015.034;000.048;54;000.461;MIDI 01
015.046;000.045;58;000.555;MIDI 01
015.040;000.054;61;000.539;MIDI 01
015.231;000.043;65;000.555;MIDI 01
015.232;000.044;77;000.602;MIDI 01
015.224;000.054;89;000.656;MIDI 01
015.234;000.046;54;000.438;MIDI 01
015.226;000.069;58;000.461;MIDI 01
015.222;000.075;61;000.523;MIDI 01
015.229;000.089;82;000.648;MIDI 01
015.395;000.045;65;000.641;MIDI 01
015.405;000.039;73;000.719;MIDI 01
015.392;000.062;54;000.508;MIDI 01
015.410;000.045;58;000.586;MIDI 01
015.397;000.067;82;000.617;MIDI 01
015.399;000.069;61;000.562;MIDI 01
015.390;000.092;85;000.703;MIDI 01
015.550;000.053;54;000.523;MIDI 01
015.545;000.071;65;000.625;MIDI 01
015.539;000.087;61;000.516;MIDI 01
015.540;000.088;58;000.578;MIDI 01
015.766;000.042;54;000.477;MIDI 01
015.769;000.041;65;000.500;MIDI 01
015.776;000.045;58;000.422;MIDI 01
015.775;000.051;61;000.516;MIDI 01
015.779;000.048;73;000.516;MIDI 01
015.778;000.082;77;000.531;MIDI 01
016.023;000.033;61;000.297;MIDI 01
016.058;000.081;66;000.398;MIDI 01
016.190;000.061;73;000.391;MIDI 01
016.204;000.080;77;000.297;MIDI 01
016.379;000.055;61;000.367;MIDI 01
016.360;000.108;70;000.375;MIDI 01
016.454;000.099;66;000.195;MIDI 01
016.532;000.090;73;000.453;MIDI 01
016.529;000.124;77;000.422;MIDI 01
016.664;000.065;70;000.383;MIDI 01
016.671;000.064;61;000.367;MIDI 01
016.712;000.078;66;000.352;MIDI 01
016.854;000.067;73;000.445;MIDI 01
016.834;000.153;77;000.461;MIDI 01
016.958;000.108;61;000.336;MIDI 01
017.011;000.056;70;000.062;MIDI 01
016.996;000.130;66;000.391;MIDI 01
017.124;000.077;73;000.430;MIDI 01
017.126;000.104;77;000.453;MIDI 01
017.283;000.044;70;000.289;MIDI 01
017.285;000.093;61;000.422;MIDI 01
017.276;000.133;66;000.320;MIDI 01
017.432;000.055;73;000.359;MIDI 01
017.567;000.104;66;000.391;MIDI 01
017.688;000.350;70;000.289;MIDI 01
017.423;000.728;77;000.273;MIDI 01
017.913;000.510;65;000.641;MIDI 01
017.669;001.018;73;000.320;MIDI 01
018.599;000.129;66;000.438;MIDI 01
018.368;000.402;64;000.672;MIDI 01
018.712;000.205;63;000.695;MIDI 01
018.881;000.158;66;000.477;MIDI 01
019.045;000.113;70;000.234;MIDI 01
019.025;000.221;73;000.438;MIDI 01
019.311;000.192;66;000.438;MIDI 01
019.456;000.150;73;000.383;MIDI 01
019.432;000.176;70;000.383;MIDI 01
019.673;000.170;66;000.445;MIDI 01
019.591;000.327;77;000.430;MIDI 01
019.788;000.378;70;000.445;MIDI 01
019.795;000.470;73;000.453;MIDI 01
020.006;000.455;58;000.570;MIDI 01
020.452;000.146;66;000.453;MIDI 01
020.581;000.086;73;000.422;MIDI 01
019.157;001.598;61;000.719;MIDI 01
020.682;000.110;77;000.469;MIDI 01
020.759;000.070;66;000.328;MIDI 01
020.839;000.051;73;000.453;MIDI 01
020.869;000.035;70;000.289;MIDI 01
020.262;000.823;54;000.617;MIDI 01
021.184;000.170;54;000.422;MIDI 01
021.363;000.428;61;000.367;MIDI 01
021.898;000.061;54;000.227;MIDI 01
021.990;000.278;61;000.320;MIDI 01
022.189;000.101;54;000.219;MIDI 01
021.617;000.721;53;000.570;MIDI 01
022.429;000.065;58;000.211;MIDI 01
022.695;000.177;58;000.188;MIDI 01
022.551;000.326;54;000.273;MIDI 01
022.819;000.089;61;000.312;MIDI 01
021.656;001.602;65;000.250;MIDI 01
022.203;001.150;52;000.617;MIDI 01
023.203;000.539;51;000.383;MIDI 01
023.950;000.225;54;000.203;MIDI 01
024.148;000.049;49;000.273;MIDI 01
023.936;000.269;61;000.297;MIDI 01
024.336;000.047;34;000.297;MIDI 01
024.179;000.227;42;000.328;MIDI 01
024.434;000.060;61;000.281;MIDI 01
024.477;000.055;65;000.164;MIDI 01
024.596;000.055;53;000.148;MIDI 01
024.587;000.120;49;000.383;MIDI 01
024.714;000.069;42;000.406;MIDI 01
024.858;000.058;54;000.273;MIDI 01
024.815;000.118;60;000.438;MIDI 01
024.965;000.055;48;000.234;MIDI 01
024.945;000.167;42;000.359;MIDI 01
025.179;000.054;60;000.430;MIDI 01
025.181;000.083;65;000.523;MIDI 01
025.295;000.108;53;000.219;MIDI 01
025.318;000.149;48;000.438;MIDI 01
025.423;000.093;42;000.477;MIDI 01
025.567;000.038;54;000.406;MIDI 01
025.528;000.111;58;000.523;MIDI 01
025.686;000.106;46;000.453;MIDI 01
025.833;000.049;34;000.531;MIDI 01
025.674;000.208;42;000.500;MIDI 01
025.920;000.076;58;000.578;MIDI 01
025.922;000.121;65;000.578;MIDI 01
026.049;000.071;53;000.422;MIDI 01
026.058;000.108;46;000.594;MIDI 01
026.151;000.059;42;000.617;MIDI 01
026.281;000.107;54;000.570;MIDI 01
026.265;000.139;57;000.609;MIDI 01
026.409;000.168;42;000.594;MIDI 01
026.411;000.176;45;000.594;MIDI 01
026.538;000.058;34;000.609;MIDI 01
026.635;000.030;53;000.539;MIDI 01
026.621;000.059;65;000.672;MIDI 01
026.622;000.069;57;000.633;MIDI 01
026.795;000.109;53;000.531;MIDI 01
026.773;000.188;45;000.539;MIDI 01
026.927;000.071;42;000.641;MIDI 01
027.270;000.146;44;000.734;MIDI 01
027.266;000.230;56;000.672;MIDI 01
027.400;000.159;22;000.711;MIDI 01
027.403;000.157;34;000.750;MIDI 01
028.076;000.042;65;000.539;MIDI 01
028.095;000.025;53;000.375;MIDI 01
028.076;000.051;62;000.508;MIDI 01
028.083;000.048;58;000.469;MIDI 01
028.123;000.033;56;000.297;MIDI 01
028.223;000.065;53;000.523;MIDI 01
028.221;000.103;58;000.570;MIDI 01
028.225;000.103;65;000.594;MIDI 01
028.241;000.098;56;000.523;MIDI 01
028.217;000.124;62;000.578;MIDI 01
028.495;000.047;53;000.523;MIDI 01
028.477;000.066;89;000.688;MIDI 01
028.482;000.065;77;000.680;MIDI 01
028.485;000.085;65;000.617;MIDI 01
028.479;000.094;82;000.711;MIDI 01
028.502;000.073;56;000.539;MIDI 01
028.491;000.090;58;000.523;MIDI 01
028.486;000.098;62;000.602;MIDI 01
028.690;000.030;84;000.523;MIDI 01
028.686;000.056;53;000.508;MIDI 01
028.680;000.065;74;000.789;MIDI 01
028.709;000.038;78;000.359;MIDI 01
028.683;000.067;65;000.672;MIDI 01
028.679;000.073;82;000.719;MIDI 01
028.672;000.082;86;000.688;MIDI 01
028.692;000.065;56;000.602;MIDI 01
028.684;000.076;62;000.625;MIDI 01
028.685;000.079;58;000.609;MIDI 01
028.836;000.058;53;000.578;MIDI 01
028.836;000.072;65;000.656;MIDI 01
028.839;000.105;58;000.547;MIDI 01
028.842;000.104;62;000.562;MIDI 01
028.841;000.108;56;000.547;MIDI 01
029.098;000.032;53;000.578;MIDI 01
029.082;000.055;65;000.711;MIDI 01
029.092;000.058;62;000.648;MIDI 01
029.096;000.071;56;000.609;MIDI 01
029.094;000.074;58;000.625;MIDI 01
029.108;000.224;77;000.586;MIDI 01
029.324;000.107;65;000.461;MIDI 01
029.476;000.080;70;000.391;MIDI 01
029.117;000.476;74;000.578;MIDI 01
029.653;000.045;65;000.344;MIDI 01
029.739;000.078;70;000.398;MIDI 01
029.764;000.074;74;000.391;MIDI 01
029.502;000.436;77;000.516;MIDI 01
030.289;000.056;70;000.406;MIDI 01
030.278;000.218;74;000.508;MIDI 01
029.943;000.610;65;000.719;MIDI 01
030.720;000.091;65;000.398;MIDI 01
030.499;000.434;64;000.727;MIDI 01
030.860;000.240;63;000.703;MIDI 01
031.017;000.193;65;000.430;MIDI 01
031.227;000.076;70;000.086;MIDI 01
031.215;000.226;74;000.391;MIDI 01
031.526;000.217;65;000.320;MIDI 01
031.703;000.129;70;000.172;MIDI 01
031.695;000.287;74;000.367;MIDI 01
031.827;000.601;77;000.500;MIDI 01
031.242;001.212;62;000.711;MIDI 01
032.417;000.119;70;000.438;MIDI 01
031.990;000.596;65;000.359;MIDI 01
032.168;000.496;58;000.625;MIDI 01
032.406;000.259;74;000.516;MIDI 01
032.648;000.403;53;000.641;MIDI 01
032.681;001.069;77;000.398;MIDI 01
032.921;000.878;65;000.375;MIDI 01
033.206;000.601;74;000.414;MIDI 01
033.219;000.603;70;000.320;MIDI 01
033.610;000.364;34;000.383;MIDI 01
033.591;000.385;41;000.438;MIDI 01
033.939;000.082;46;000.594;MIDI 01
034.204;000.458;83;000.648;MIDI 01
034.241;000.493;50;000.469;MIDI 01
034.208;000.553;71;000.648;MIDI 01
034.544;000.261;53;000.414;MIDI 01
034.741;000.159;56;000.562;MIDI 01
034.202;000.708;80;000.617;MIDI 01
034.207;000.732;74;000.625;MIDI 01
034.896;000.164;62;000.555;MIDI 01
035.041;000.321;82;000.656;MIDI 01
035.062;000.305;70;000.617;MIDI 01
035.056;000.315;78;000.586;MIDI 01
035.303;000.257;65;000.539;MIDI 01
035.065;000.651;74;000.609;MIDI 01
035.534;000.345;71;000.539;MIDI 01
035.543;000.417;62;000.531;MIDI 01
035.538;000.431;68;000.539;MIDI 01
035.845;000.129;70;000.523;MIDI 01
035.521;000.467;80;000.656;MIDI 01
035.532;000.508;77;000.539;MIDI 01
036.203;000.175;69;000.477;MIDI 01
036.205;000.259;61;000.516;MIDI 01
036.743;000.298;42;000.438;MIDI 01
036.191;000.852;77;000.562;MIDI 01
036.208;000.929;73;000.492;MIDI 01
037.010;000.205;49;000.461;MIDI 01
037.216;000.095;57;000.492;MIDI 01
036.201;001.186;68;000.539;MIDI 01
036.177;001.308;80;000.633;MIDI 01
037.706;000.108;69;000.430;MIDI 01
037.593;000.251;78;000.555;MIDI 01
037.423;000.523;61;000.500;MIDI 01
037.842;000.110;66;000.469;MIDI 01
038.475;000.233;43;000.406;MIDI 01
038.027;000.747;77;000.578;MIDI 01
038.269;000.526;65;000.438;MIDI 01
038.052;000.784;73;000.531;MIDI 01
038.740;000.474;53;000.445;MIDI 01
039.055;000.286;61;000.414;MIDI 01
039.369;000.064;64;000.398;MIDI 01
039.027;000.488;73;000.383;MIDI 01
039.380;000.711;60;000.367;MIDI 01
039.003;001.243;76;000.508;MIDI 01
040.155;000.222;72;000.320;MIDI 01
040.230;000.292;45;000.188;MIDI 01
040.140;000.399;75;000.438;MIDI 01
039.735;000.831;63;000.289;MIDI 01
039.731;001.186;53;000.320;MIDI 01
040.780;000.569;72;000.352;MIDI 01
040.792;000.562;46;000.344;MIDI 01
041.311;000.117;54;000.312;MIDI 01
041.279;000.167;63;000.219;MIDI 01
040.751;000.730;75;000.406;MIDI 01
041.722;000.105;66;000.297;MIDI 01
041.970;000.044;54;000.297;MIDI 01
041.953;000.074;62;000.391;MIDI 01
041.697;000.357;70;000.305;MIDI 01
041.669;000.411;74;000.391;MIDI 01
042.430;000.036;53;000.406;MIDI 01
042.202;000.270;45;000.383;MIDI 01
042.440;000.035;63;000.320;MIDI 01
042.185;000.442;66;000.445;MIDI 01
042.668;000.046;65;000.398;MIDI 01
042.631;000.292;75;000.500;MIDI 01
042.899;000.076;63;000.328;MIDI 01
042.930;000.381;53;000.258;MIDI 01
043.167;000.302;46;000.312;MIDI 01
043.427;000.057;63;000.328;MIDI 01
043.183;000.308;71;000.266;MIDI 01
043.462;000.044;54;000.406;MIDI 01
043.119;000.421;75;000.461;MIDI 01
043.721;000.105;66;000.438;MIDI 01
043.726;000.121;70;000.289;MIDI 01
043.901;000.062;54;000.273;MIDI 01
044.122;000.247;44;000.406;MIDI 01
043.696;000.696;74;000.422;MIDI 01
044.361;000.052;62;000.398;MIDI 01
044.138;000.304;66;000.422;MIDI 01
044.558;000.042;65;000.359;MIDI 01
044.583;000.155;71;000.312;MIDI 01
044.809;000.103;62;000.391;MIDI 01
044.559;000.379;74;000.547;MIDI 01
044.836;000.163;53;000.336;MIDI 01
045.061;000.286;45;000.406;MIDI 01
045.074;000.343;74;000.516;MIDI 01
045.391;000.074;62;000.305;MIDI 01
045.094;000.384;70;000.375;MIDI 01
045.390;000.292;53;000.391;MIDI 01
045.724;000.123;65;000.477;MIDI 01
045.983;000.086;61;000.391;MIDI 01
045.773;000.369;69;000.070;MIDI 01
045.985;000.208;53;000.398;MIDI 01
045.694;000.589;73;000.492;MIDI 01
046.198;000.197;65;000.438;MIDI 01
046.200;000.200;44;000.430;MIDI 01
046.410;000.057;52;000.453;MIDI 01
046.415;000.133;62;000.398;MIDI 01
046.615;000.075;64;000.492;MIDI 01
046.640;000.245;70;000.375;MIDI 01
046.618;000.288;74;000.477;MIDI 01
046.911;000.220;52;000.234;MIDI 01
046.865;000.331;62;000.422;MIDI 01
047.103;000.298;45;000.375;MIDI 01
047.096;000.355;74;000.500;MIDI 01
047.435;000.054;62;000.219;MIDI 01
047.101;000.435;70;000.422;MIDI 01
047.433;000.231;52;000.398;MIDI 01
047.677;000.075;70;000.359;MIDI 01
047.727;000.121;64;000.469;MIDI 01
047.976;000.064;52;000.336;MIDI 01
048.013;000.075;61;000.250;MIDI 01
048.259;000.383;42;000.352;MIDI 01
048.587;000.065;61;000.312;MIDI 01
048.582;000.100;51;000.359;MIDI 01
048.271;000.469;64;000.406;MIDI 01
047.692;001.229;73;000.453;MIDI 01
048.886;000.419;69;000.422;MIDI 01
049.332;000.217;51;000.109;MIDI 01
049.597;000.169;73;000.422;MIDI 01
049.230;000.554;61;000.422;MIDI 01
050.059;000.465;39;000.328;MIDI 01
050.068;000.551;69;000.414;MIDI 01
050.577;000.065;66;000.336;MIDI 01
050.575;000.069;49;000.367;MIDI 01
050.890;000.048;57;000.305;MIDI 01
050.911;000.047;61;000.289;MIDI 01
051.441;000.198;72;000.414;MIDI 01
051.426;000.272;48;000.352;MIDI 01
051.675;000.325;41;000.305;MIDI 01
051.669;000.385;69;000.367;MIDI 01
052.032;000.049;49;000.430;MIDI 01
052.042;000.042;65;000.234;MIDI 01
052.281;000.054;61;000.336;MIDI 01
052.265;000.073;57;000.266;MIDI 01
052.794;000.186;72;000.445;MIDI 01
052.820;000.183;48;000.328;MIDI 01
053.046;000.329;42;000.312;MIDI 01
053.015;000.378;68;000.375;MIDI 01
053.388;000.042;49;000.391;MIDI 01
053.385;000.047;64;000.453;MIDI 01
053.607;000.050;58;000.445;MIDI 01
053.707;000.071;61;000.070;MIDI 01
053.982;000.204;49;000.320;MIDI 01
054.010;000.183;72;000.516;MIDI 01
054.252;000.093;41;000.305;MIDI 01
054.207;000.367;69;000.508;MIDI 01
054.348;000.245;41;000.039;MIDI 01
054.578;000.031;65;000.398;MIDI 01
054.596;000.045;49;000.375;MIDI 01
054.770;000.029;57;000.383;MIDI 01
054.840;000.045;61;000.203;MIDI 01
055.154;000.204;77;000.500;MIDI 01
055.174;000.197;48;000.445;MIDI 01
055.395;000.347;39;000.430;MIDI 01
055.381;000.455;73;000.492;MIDI 01
055.859;000.033;66;000.406;MIDI 01
055.872;000.067;49;000.375;MIDI 01
056.087;000.114;57;000.492;MIDI 01
056.177;000.051;61;000.305;MIDI 01
056.579;000.178;48;000.375;MIDI 01
056.581;000.179;72;000.492;MIDI 01
056.770;000.340;69;000.500;MIDI 01
056.793;000.333;41;000.328;MIDI 01
057.127;000.051;65;000.492;MIDI 01
057.130;000.051;49;000.445;MIDI 01
057.308;000.069;57;000.352;MIDI 01
057.346;000.035;61;000.461;MIDI 01
057.661;000.155;72;000.523;MIDI 01
057.684;000.165;48;000.383;MIDI 01
057.847;000.301;42;000.469;MIDI 01
057.827;000.353;68;000.508;MIDI 01
058.174;000.046;49;000.438;MIDI 01
058.184;000.136;64;000.477;MIDI 01
058.341;000.045;58;000.445;MIDI 01
058.377;000.100;61;000.523;MIDI 01
058.683;000.159;49;000.461;MIDI 01
058.677;000.219;72;000.539;MIDI 01
058.852;000.286;41;000.500;MIDI 01
058.842;000.354;69;000.570;MIDI 01
059.194;000.034;65;000.469;MIDI 01
059.188;000.043;49;000.477;MIDI 01
059.339;000.064;57;000.453;MIDI 01
059.382;000.051;61;000.383;MIDI 01
059.775;000.269;48;000.406;MIDI 01
059.732;000.369;70;000.555;MIDI 01
060.042;000.364;39;000.438;MIDI 01
060.274;000.293;66;000.445;MIDI 01
060.435;000.135;65;000.445;MIDI 01
060.033;000.615;73;000.516;MIDI 01
060.619;000.161;64;000.461;MIDI 01
060.685;000.103;58;000.438;MIDI 01
060.474;000.337;49;000.383;MIDI 01
060.784;000.286;63;000.500;MIDI 01
060.966;000.148;48;000.477;MIDI 01
061.109;000.068;72;000.555;MIDI 01
060.932;000.260;69;000.578;MIDI 01
061.184;000.088;63;000.070;MIDI 01
061.126;000.210;41;000.492;MIDI 01
061.316;000.093;57;000.438;MIDI 01
061.421;000.144;49;000.398;MIDI 01
061.431;000.164;63;000.523;MIDI 01
061.589;000.075;66;000.531;MIDI 01
061.602;000.292;57;000.469;MIDI 01
061.721;000.206;69;000.570;MIDI 01
061.868;000.204;51;000.453;MIDI 01
062.068;000.111;43;000.492;MIDI 01
061.892;000.292;73;000.586;MIDI 01
062.049;000.201;77;000.602;MIDI 01
062.235;000.093;72;000.523;MIDI 01
062.312;000.156;53;000.430;MIDI 01
062.374;000.140;71;000.477;MIDI 01
062.510;000.123;70;000.500;MIDI 01
062.530;000.139;61;000.438;MIDI 01
062.649;000.101;65;000.492;MIDI 01
062.745;000.183;51;000.469;MIDI 01
062.793;000.217;72;000.594;MIDI 01
062.939;000.099;75;000.609;MIDI 01
062.931;000.222;44;000.492;MIDI 01
063.105;000.101;60;000.539;MIDI 01
063.160;000.111;53;000.414;MIDI 01
063.216;000.118;66;000.508;MIDI 01
063.334;000.039;70;000.570;MIDI 01
063.355;000.257;60;000.531;MIDI 01
063.473;000.156;72;000.547;MIDI 01
063.634;000.152;54;000.539;MIDI 01
063.614;000.255;77;000.531;MIDI 01
063.791;000.185;46;000.539;MIDI 01
063.951;000.034;76;000.508;MIDI 01
064.008;000.085;56;000.516;MIDI 01
063.763;000.359;80;000.680;MIDI 01
064.089;000.161;75;000.492;MIDI 01
064.206;000.122;65;000.477;MIDI 01
064.208;000.130;73;000.523;MIDI 01
064.331;000.191;70;000.508;MIDI 01
064.410;000.194;54;000.445;MIDI 01
064.611;000.188;48;000.500;MIDI 01
064.624;000.198;78;000.680;MIDI 01
064.804;000.030;63;000.578;MIDI 01
064.469;000.408;75;000.594;MIDI 01
064.925;000.044;70;000.477;MIDI 01
064.846;000.133;56;000.461;MIDI 01
065.024;000.098;72;000.578;MIDI 01
065.015;000.123;63;000.289;MIDI 01
065.270;000.172;58;000.406;MIDI 01
065.160;000.301;75;000.531;MIDI 01
065.490;000.057;75;000.094;MIDI 01
065.303;000.286;78;000.609;MIDI 01
065.455;000.141;82;000.656;MIDI 01
065.465;000.170;50;000.367;MIDI 01
065.642;000.052;58;000.430;MIDI 01
065.757;000.051;78;000.555;MIDI 01
065.799;000.026;70;000.359;MIDI 01
065.894;000.044;56;000.391;MIDI 01
065.909;000.069;68;000.453;MIDI 01
065.922;000.062;58;000.297;MIDI 01
066.100;000.040;58;000.172;MIDI 01
066.057;000.085;56;000.516;MIDI 01
066.178;000.040;78;000.523;MIDI 01
066.183;000.036;70;000.453;MIDI 01
066.346;000.048;56;000.508;MIDI 01
066.350;000.045;70;000.484;MIDI 01
066.345;000.054;82;000.570;MIDI 01
066.357;000.066;46;000.438;MIDI 01
066.483;000.062;46;000.367;MIDI 01
066.487;000.062;56;000.445;MIDI 01
066.661;000.026;70;000.453;MIDI 01
066.657;000.035;77;000.438;MIDI 01
066.660;000.033;65;000.453;MIDI 01
066.789;000.047;68;000.562;MIDI 01
066.801;000.038;56;000.359;MIDI 01
066.794;000.048;58;000.445;MIDI 01
066.916;000.033;68;000.469;MIDI 01
066.982;000.031;58;000.289;MIDI 01
066.942;000.074;56;000.578;MIDI 01
067.034;000.036;77;000.586;MIDI 01
067.049;000.024;65;000.430;MIDI 01
067.033;000.044;70;000.602;MIDI 01
067.216;000.017;70;000.594;MIDI 01
067.211;000.040;82;000.594;MIDI 01
067.200;000.053;49;000.570;MIDI 01
067.208;000.052;42;000.508;MIDI 01
067.350;000.069;49;000.492;MIDI 01
067.487;000.050;76;000.477;MIDI 01
067.498;000.042;64;000.312;MIDI 01
067.625;000.036;58;000.469;MIDI 01
067.621;000.043;61;000.508;MIDI 01
067.626;000.048;68;000.562;MIDI 01
067.770;000.039;61;000.523;MIDI 01
067.758;000.052;58;000.570;MIDI 01
067.906;000.023;70;000.375;MIDI 01
067.878;000.067;75;000.656;MIDI 01
068.048;000.042;51;000.539;MIDI 01
068.058;000.039;70;000.531;MIDI 01
068.054;000.049;82;000.680;MIDI 01
068.031;000.086;43;000.586;MIDI 01
068.208;000.062;43;000.453;MIDI 01
068.211;000.072;51;000.492;MIDI 01
068.314;000.031;62;000.539;MIDI 01
068.304;000.048;74;000.586;MIDI 01
068.320;000.035;70;000.523;MIDI 01
068.473;000.022;58;000.516;MIDI 01
068.475;000.024;64;000.547;MIDI 01
068.499;000.045;50;000.352;MIDI 01
068.495;000.050;52;000.328;MIDI 01
068.612;000.023;64;000.578;MIDI 01
068.616;000.025;58;000.508;MIDI 01
068.686;000.047;50;000.078;MIDI 01
068.691;000.062;52;000.039;MIDI 01
068.742;000.025;61;000.523;MIDI 01
068.739;000.051;73;000.617;MIDI 01
068.873;000.047;53;000.633;MIDI 01
068.892;000.033;82;000.625;MIDI 01
068.897;000.033;46;000.414;MIDI 01
068.891;000.040;70;000.594;MIDI 01
068.862;000.085;44;000.703;MIDI 01
069.030;000.048;53;000.453;MIDI 01
069.016;000.066;44;000.484;MIDI 01
069.174;000.026;61;000.547;MIDI 01
069.157;000.048;73;000.594;MIDI 01
069.198;000.033;68;000.273;MIDI 01
069.279;000.029;56;000.516;MIDI 01
069.290;000.035;53;000.359;MIDI 01
069.297;000.053;64;000.328;MIDI 01
069.280;000.079;65;000.578;MIDI 01
069.414;000.014;53;000.523;MIDI 01
069.393;000.036;56;000.617;MIDI 01
069.528;000.026;60;000.562;MIDI 01
069.523;000.054;72;000.648;MIDI 01
069.530;000.052;68;000.633;MIDI 01
069.704;000.024;70;000.758;MIDI 01
069.710;000.023;82;000.633;MIDI 01
069.685;000.050;45;000.688;MIDI 01
069.694;000.049;33;000.664;MIDI 01
069.852;000.024;33;000.430;MIDI 01
069.834;000.056;82;000.047;MIDI 01
069.846;000.047;70;000.023;MIDI 01
069.838;000.057;45;000.656;MIDI 01
069.956;000.046;71;000.562;MIDI 01
069.972;000.032;66;000.484;MIDI 01
069.967;000.044;59;000.555;MIDI 01
070.095;000.035;51;000.500;MIDI 01
070.099;000.038;63;000.609;MIDI 01
070.128;000.043;54;000.281;MIDI 01
070.155;000.036;66;000.305;MIDI 01
070.221;000.021;63;000.414;MIDI 01
070.219;000.037;51;000.633;MIDI 01
070.246;000.043;54;000.344;MIDI 01
070.353;000.019;58;000.523;MIDI 01
070.341;000.067;70;000.672;MIDI 01
070.531;000.031;70;000.703;MIDI 01
070.525;000.039;82;000.680;MIDI 01
070.518;000.053;34;000.734;MIDI 01
070.516;000.072;22;000.680;MIDI 01
070.679;000.031;22;000.633;MIDI 01
070.675;000.044;34;000.688;MIDI 01
070.810;000.041;58;000.664;MIDI 01
070.807;000.060;70;000.609;MIDI 01
071.001;000.020;61;000.469;MIDI 01
070.981;000.053;58;000.023;MIDI 01
071.007;000.031;53;000.422;MIDI 01
071.011;000.033;49;000.375;MIDI 01
071.096;000.034;61;000.516;MIDI 01
071.099;000.082;49;000.570;MIDI 01
071.182;000.024;59;000.594;MIDI 01
071.186;000.056;65;000.578;MIDI 01
071.169;000.074;71;000.633;MIDI 01
071.382;000.027;70;000.750;MIDI 01
071.377;000.033;82;000.711;MIDI 01
071.384;000.051;25;000.656;MIDI 01
071.380;000.057;37;000.680;MIDI 01
071.492;000.033;70;000.234;MIDI 01
071.525;000.034;25;000.539;MIDI 01
071.522;000.046;37;000.609;MIDI 01
071.665;000.024;65;000.406;MIDI 01
071.642;000.051;59;000.602;MIDI 01
071.644;000.065;71;000.602;MIDI 01
071.820;000.027;62;000.609;MIDI 01
071.817;000.034;56;000.617;MIDI 01
071.816;000.044;53;000.555;MIDI 01
071.930;000.030;62;000.500;MIDI 01
071.939;000.059;56;000.578;MIDI 01
071.928;000.078;53;000.672;MIDI 01
072.030;000.028;60;000.547;MIDI 01
072.022;000.080;72;000.617;MIDI 01
072.021;000.086;66;000.586;MIDI 01
072.025;000.086;70;000.453;MIDI 01
072.241;000.034;70;000.773;MIDI 01
072.234;000.055;82;000.719;MIDI 01
072.240;000.059;39;000.750;MIDI 01
072.245;000.066;27;000.695;MIDI 01
072.284;000.035;30;000.336;MIDI 01
072.393;000.050;27;000.609;MIDI 01
072.386;000.066;39;000.742;MIDI 01
072.501;000.033;60;000.641;MIDI 01
072.510;000.025;72;000.453;MIDI 01
072.505;000.046;70;000.625;MIDI 01
072.690;000.028;63;000.531;MIDI 01
072.684;000.035;54;000.508;MIDI 01
072.673;000.067;56;000.602;MIDI 01
072.809;000.020;63;000.609;MIDI 01
072.823;000.030;54;000.594;MIDI 01
072.823;000.041;58;000.562;MIDI 01
072.943;000.031;61;000.656;MIDI 01
072.928;000.078;69;000.680;MIDI 01
072.970;000.045;60;000.375;MIDI 01
072.931;000.105;73;000.680;MIDI 01
073.036;000.059;34;000.234;MIDI 01
073.180;000.041;81;000.812;MIDI 01
073.196;000.027;80;000.516;MIDI 01
073.183;000.042;69;000.781;MIDI 01
073.191;000.065;30;000.320;MIDI 01
073.172;000.089;29;000.680;MIDI 01
073.171;000.094;41;000.742;MIDI 01
073.352;000.046;41;000.742;MIDI 01
073.360;000.039;29;000.641;MIDI 01
073.439;000.088;31;000.039;MIDI 01
073.555;000.038;61;000.688;MIDI 01
073.558;000.065;69;000.680;MIDI 01
073.553;000.094;73;000.719;MIDI 01
073.818;000.043;53;000.547;MIDI 01
073.805;000.071;65;000.688;MIDI 01
073.817;000.062;63;000.594;MIDI 01
073.821;000.065;57;000.570;MIDI 01
073.867;000.045;64;000.188;MIDI 01
073.968;000.053;65;000.750;MIDI 01
073.966;000.076;63;000.688;MIDI 01
073.964;000.079;53;000.719;MIDI 01
073.964;000.090;57;000.625;MIDI 01
075.005;000.115;46;000.703;MIDI 01
074.998;000.191;58;000.664;MIDI 01
074.997;000.222;22;000.633;MIDI 01
075.003;000.224;34;000.703;MIDI 01
075.567;000.530;65;000.492;MIDI 01
075.593;000.506;46;000.406;MIDI 01
075.612;000.499;41;000.320;MIDI 01
075.574;000.548;53;000.469;MIDI 01
075.569;000.555;61;000.516;MIDI 01
075.572;000.555;49;000.469;MIDI 01
075.576;000.560;58;000.469;MIDI 01
076.299;000.177;41;000.391;MIDI 01
076.295;000.206;53;000.398;MIDI 01
076.307;000.208;46;000.398;MIDI 01
076.309;000.232;49;000.430;MIDI 01
076.298;000.259;65;000.469;MIDI 01
076.304;000.268;61;000.453;MIDI 01
076.292;000.285;58;000.422;MIDI 01
076.696;000.030;53;000.375;MIDI 01
076.714;000.041;41;000.367;MIDI 01
076.721;000.035;46;000.328;MIDI 01
076.708;000.075;58;000.523;MIDI 01
076.746;000.067;61;000.320;MIDI 01
076.716;000.119;65;000.477;MIDI 01
076.998;000.068;56;000.672;MIDI 01
076.992;000.132;61;000.641;MIDI 01
076.990;000.141;44;000.695;MIDI 01
076.997;000.135;65;000.641;MIDI 01
076.994;000.156;32;000.633;MIDI 01
076.995;000.158;68;000.672;MIDI 01
076.997;000.164;41;000.422;MIDI 01
077.001;000.169;37;000.508;MIDI 01
077.516;000.515;70;000.477;MIDI 01
077.508;000.533;77;000.516;MIDI 01
077.540;000.511;53;000.281;MIDI 01
077.515;000.541;58;000.406;MIDI 01
077.510;000.548;61;000.430;MIDI 01
077.523;000.538;73;000.453;MIDI 01
077.525;000.552;65;000.438;MIDI 01
078.247;000.228;53;000.367;MIDI 01
078.237;000.246;77;000.539;MIDI 01
078.243;000.246;65;000.461;MIDI 01
078.239;000.264;73;000.562;MIDI 01
078.244;000.264;61;000.453;MIDI 01
078.240;000.286;70;000.500;MIDI 01
078.246;000.281;58;000.422;MIDI 01
078.668;000.037;61;000.484;MIDI 01
078.667;000.046;58;000.469;MIDI 01
078.675;000.047;53;000.469;MIDI 01
078.660;000.064;77;000.555;MIDI 01
078.657;000.074;70;000.602;MIDI 01
078.669;000.069;73;000.617;MIDI 01
079.082;000.088;46;000.688;MIDI 01
079.079;000.146;58;000.711;MIDI 01
079.076;000.168;22;000.719;MIDI 01
079.083;000.164;34;000.703;MIDI 01
079.460;000.060;87;000.148;MIDI 01
079.580;000.248;55;000.469;MIDI 01
079.826;000.260;85;000.617;MIDI 01
079.841;000.263;65;000.469;MIDI 01
079.828;000.281;61;000.547;MIDI 01
079.981;000.154;87;000.594;MIDI 01
079.820;000.324;89;000.609;MIDI 01
080.108;000.095;53;000.422;MIDI 01
080.111;000.145;86;000.594;MIDI 01
080.278;000.122;65;000.445;MIDI 01
080.280;000.165;64;000.523;MIDI 01
080.286;000.177;60;000.477;MIDI 01
080.260;000.305;85;000.625;MIDI 01
080.473;000.109;53;000.438;MIDI 01
080.405;000.178;82;000.547;MIDI 01
080.517;000.114;78;000.594;MIDI 01
080.642;000.082;77;000.555;MIDI 01
080.635;000.123;65;000.586;MIDI 01
080.639;000.188;63;000.516;MIDI 01
080.644;000.210;59;000.484;MIDI 01
080.771;000.116;75;000.578;MIDI 01
080.898;000.080;74;000.594;MIDI 01
081.009;000.069;65;000.586;MIDI 01
081.006;000.113;61;000.562;MIDI 01
081.004;000.133;58;000.539;MIDI 01
080.845;000.342;53;000.500;MIDI 01
081.008;000.213;73;000.594;MIDI 01
081.143;000.125;70;000.523;MIDI 01
081.251;000.077;66;000.547;MIDI 01
081.346;000.057;65;000.516;MIDI 01
081.407;000.049;52;000.359;MIDI 01
081.374;000.123;53;000.438;MIDI 01
081.474;000.078;63;000.562;MIDI 01
081.516;000.069;51;000.422;MIDI 01
081.603;000.071;62;000.531;MIDI 01
081.601;000.097;50;000.484;MIDI 01
081.719;000.142;49;000.492;MIDI 01
081.696;000.179;61;000.508;MIDI 01
081.819;000.110;58;000.492;MIDI 01
081.916;000.072;54;000.469;MIDI 01
081.833;000.166;46;000.516;MIDI 01
081.974;000.059;41;000.547;MIDI 01
082.049;000.065;53;000.430;MIDI 01
082.130;000.112;51;000.531;MIDI 01
082.248;000.188;50;000.547;MIDI 01
082.429;000.190;49;000.688;MIDI 01
082.421;000.291;25;000.633;MIDI 01
082.423;000.302;37;000.688;MIDI 01
083.059;000.571;41;000.312;MIDI 01
083.057;000.587;53;000.453;MIDI 01
083.055;000.596;49;000.414;MIDI 01
083.040;000.617;65;000.461;MIDI 01
083.042;000.649;61;000.461;MIDI 01
083.068;000.626;46;000.367;MIDI 01
083.051;000.660;58;000.406;MIDI 01
083.850;000.221;65;000.492;MIDI 01
083.856;000.250;53;000.391;MIDI 01
083.852;000.259;58;000.469;MIDI 01
083.860;000.277;46;000.375;MIDI 01
083.859;000.280;41;000.328;MIDI 01
083.854;000.306;61;000.359;MIDI 01
083.858;000.342;49;000.406;MIDI 01
084.269;000.029;58;000.523;MIDI 01
084.270;000.048;65;000.531;MIDI 01
084.285;000.049;61;000.305;MIDI 01
084.292;000.048;46;000.336;MIDI 01
084.290;000.066;49;000.227;MIDI 01
084.287;000.113;53;000.516;MIDI 01
084.555;000.234;44;000.680;MIDI 01
084.561;000.232;53;000.633;MIDI 01
084.564;000.234;49;000.586;MIDI 01
084.558;000.250;56;000.742;MIDI 01
084.578;000.266;77;000.523;MIDI 01
084.567;000.284;68;000.617;MIDI 01
084.566;000.312;73;000.609;MIDI 01
084.549;000.424;80;000.703;MIDI 01
084.991;000.467;77;000.617;MIDI 01
084.989;000.586;61;000.547;MIDI 01
084.993;000.591;65;000.539;MIDI 01
085.004;000.583;58;000.453;MIDI 01
085.017;000.575;53;000.328;MIDI 01
084.999;000.603;73;000.539;MIDI 01
084.995;000.620;70;000.547;MIDI 01
085.745;000.175;70;000.578;MIDI 01
085.741;000.234;77;000.570;MIDI 01
085.750;000.228;53;000.477;MIDI 01
085.747;000.247;73;000.609;MIDI 01
085.745;000.261;65;000.539;MIDI 01
085.742;000.277;61;000.539;MIDI 01
085.752;000.284;58;000.539;MIDI 01
086.176;000.023;65;000.523;MIDI 01
086.172;000.049;61;000.539;MIDI 01
086.170;000.061;77;000.562;MIDI 01
086.169;000.069;70;000.656;MIDI 01
086.169;000.072;73;000.602;MIDI 01
086.174;000.076;58;000.531;MIDI 01
086.172;000.097;53;000.500;MIDI 01
086.528;000.142;49;000.734;MIDI 01
086.537;000.216;25;000.727;MIDI 01
086.543;000.224;37;000.711;MIDI 01
087.077;000.194;77;000.625;MIDI 01
087.064;000.323;53;000.602;MIDI 01
087.304;000.229;85;000.672;MIDI 01
087.304;000.247;89;000.672;MIDI 01
087.318;000.253;65;000.672;MIDI 01
087.472;000.132;87;000.609;MIDI 01
087.316;000.292;61;000.641;MIDI 01
087.624;000.072;53;000.383;MIDI 01
087.597;000.116;86;000.602;MIDI 01
087.739;000.115;65;000.648;MIDI 01
087.741;000.167;64;000.594;MIDI 01
087.736;000.211;60;000.516;MIDI 01
087.720;000.265;85;000.633;MIDI 01
087.854;000.172;82;000.570;MIDI 01
087.970;000.114;78;000.617;MIDI 01
087.965;000.128;53;000.469;MIDI 01
088.099;000.081;77;000.586;MIDI 01
088.103;000.143;65;000.633;MIDI 01
088.091;000.210;63;000.609;MIDI 01
088.211;000.096;75;000.633;MIDI 01
088.106;000.225;59;000.578;MIDI 01
088.326;000.122;74;000.625;MIDI 01
088.445;000.069;65;000.617;MIDI 01
088.441;000.129;61;000.609;MIDI 01
088.443;000.161;58;000.594;MIDI 01
088.447;000.193;73;000.617;MIDI 01
088.302;000.349;53;000.516;MIDI 01
088.568;000.122;70;000.570;MIDI 01
088.683;000.055;66;000.539;MIDI 01
088.760;000.065;65;000.523;MIDI 01
088.806;000.045;53;000.414;MIDI 01
088.832;000.026;52;000.453;MIDI 01
088.899;000.074;63;000.531;MIDI 01
089.002;000.061;62;000.516;MIDI 01
089.000;000.120;50;000.492;MIDI 01
089.120;000.162;49;000.508;MIDI 01
089.103;000.193;61;000.531;MIDI 01
089.218;000.120;58;000.469;MIDI 01
089.333;000.074;54;000.445;MIDI 01
089.261;000.221;46;000.508;MIDI 01
089.443;000.055;41;000.484;MIDI 01
089.450;000.099;53;000.445;MIDI 01
089.568;000.123;51;000.438;MIDI 01
089.708;000.223;50;000.453;MIDI 01
089.924;000.177;49;000.492;MIDI 01
089.934;000.174;30;000.344;MIDI 01
089.920;000.206;42;000.398;MIDI 01
090.457;000.255;78;000.477;MIDI 01
090.717;000.220;77;000.422;MIDI 01
090.714;000.255;58;000.406;MIDI 01
090.882;000.120;70;000.383;MIDI 01
091.022;000.161;78;000.461;MIDI 01
091.141;000.089;60;000.469;MIDI 01
091.161;000.118;75;000.477;MIDI 01
090.474;000.894;49;000.336;MIDI 01
091.018;000.416;51;000.281;MIDI 01
091.293;000.197;68;000.477;MIDI 01
091.504;000.055;61;000.469;MIDI 01
091.447;000.130;78;000.516;MIDI 01
091.336;000.276;53;000.414;MIDI 01
091.531;000.120;70;000.359;MIDI 01
091.569;000.111;73;000.484;MIDI 01
091.711;000.101;66;000.383;MIDI 01
091.811;000.132;78;000.156;MIDI 01
091.953;000.084;68;000.359;MIDI 01
091.971;000.075;72;000.469;MIDI 01
091.966;000.182;54;000.516;MIDI 01
091.766;000.428;44;000.523;MIDI 01
092.197;000.227;51;000.445;MIDI 01
092.237;000.208;80;000.594;MIDI 01
092.441;000.045;75;000.281;MIDI 01
092.406;000.140;78;000.539;MIDI 01
092.547;000.046;72;000.516;MIDI 01
092.405;000.232;60;000.531;MIDI 01
092.661;000.134;80;000.539;MIDI 01
092.639;000.186;53;000.445;MIDI 01
092.786;000.095;77;000.461;MIDI 01
092.829;000.181;61;000.508;MIDI 01
092.896;000.118;70;000.523;MIDI 01
093.027;000.105;80;000.539;MIDI 01
093.189;000.041;63;000.508;MIDI 01
093.147;000.092;75;000.359;MIDI 01
093.052;000.356;54;000.414;MIDI 01
093.316;000.139;68;000.258;MIDI 01
093.385;000.124;80;000.555;MIDI 01
093.558;000.035;70;000.328;MIDI 01
093.414;000.209;46;000.453;MIDI 01
093.525;000.132;73;000.492;MIDI 01
093.577;000.165;56;000.539;MIDI 01
093.795;000.146;53;000.492;MIDI 01
093.798;000.168;82;000.562;MIDI 01
093.949;000.047;77;000.367;MIDI 01
093.939;000.152;80;000.531;MIDI 01
093.961;000.164;61;000.562;MIDI 01
094.089;000.067;73;000.484;MIDI 01
094.181;000.171;82;000.508;MIDI 01
094.329;000.045;75;000.320;MIDI 01
094.164;000.227;54;000.523;MIDI 01
094.309;000.096;63;000.625;MIDI 01
094.306;000.101;78;000.508;MIDI 01
094.443;000.030;72;000.531;MIDI 01
094.540;000.158;82;000.555;MIDI 01
094.661;000.040;65;000.617;MIDI 01
094.500;000.243;56;000.578;MIDI 01
094.659;000.143;77;000.523;MIDI 01
094.803;000.057;70;000.539;MIDI 01
094.865;000.112;48;000.539;MIDI 01
094.881;000.102;82;000.500;MIDI 01
095.044;000.050;58;000.602;MIDI 01
095.015;000.105;75;000.500;MIDI 01
095.175;000.042;66;000.242;MIDI 01
095.263;000.157;84;000.547;MIDI 01
095.421;000.045;68;000.539;MIDI 01
095.471;000.068;78;000.086;MIDI 01
095.241;000.308;60;000.547;MIDI 01
095.553;000.052;72;000.508;MIDI 01
095.406;000.216;82;000.539;MIDI 01
095.656;000.066;51;000.586;MIDI 01
095.688;000.097;61;000.531;MIDI 01
095.685;000.161;84;000.570;MIDI 01
095.832;000.046;77;000.344;MIDI 01
095.858;000.039;70;000.602;MIDI 01
096.003;000.060;73;000.492;MIDI 01
095.829;000.250;80;000.516;MIDI 01
096.128;000.173;84;000.539;MIDI 01
096.150;000.171;63;000.523;MIDI 01
096.319;000.038;72;000.586;MIDI 01
096.314;000.117;78;000.547;MIDI 01
096.481;000.090;75;000.477;MIDI 01
096.699;000.196;53;000.406;MIDI 01
096.706;000.240;60;000.375;MIDI 01
096.692;000.309;84;000.555;MIDI 01
097.022;000.153;69;000.500;MIDI 01
096.977;000.315;77;000.453;MIDI 01
097.320;000.157;72;000.445;MIDI 01
097.536;000.114;77;000.383;MIDI 01
097.711;000.206;80;000.312;MIDI 01
097.882;000.038;81;000.336;MIDI 01
097.997;000.358;84;000.367;MIDI 01
098.150;000.404;89;000.367;MIDI 01
098.339;000.256;96;000.438;MIDI 01
098.327;000.296;65;000.328;MIDI 01
098.555;000.257;90;000.492;MIDI 01
098.623;000.225;66;000.297;MIDI 01
098.841;000.131;70;000.367;MIDI 01
098.989;000.097;75;000.344;MIDI 01
099.099;000.090;77;000.375;MIDI 01
099.199;000.070;78;000.422;MIDI 01
099.333;000.133;82;000.312;MIDI 01
099.452;000.096;87;000.406;MIDI 01
099.566;000.154;63;000.336;MIDI 01
099.579;000.229;94;000.492;MIDI 01
099.731;000.135;89;000.469;MIDI 01
099.730;000.160;65;000.422;MIDI 01
100.115;000.059;77;000.422;MIDI 01
099.936;000.255;70;000.414;MIDI 01
100.008;000.215;73;000.320;MIDI 01
100.228;000.091;82;000.344;MIDI 01
100.341;000.086;85;000.430;MIDI 01
100.469;000.122;94;000.484;MIDI 01
100.455;000.168;61;000.375;MIDI 01
100.602;000.172;87;000.461;MIDI 01
101.013;000.030;75;000.383;MIDI 01
100.904;000.158;70;000.289;MIDI 01
101.018;000.053;73;000.227;MIDI 01
100.786;000.349;66;000.398;MIDI 01
100.638;000.551;63;000.320;MIDI 01
101.127;000.111;78;000.391;MIDI 01
101.252;000.102;82;000.398;MIDI 01
101.370;000.247;89;000.477;MIDI 01
101.429;000.202;65;000.312;MIDI 01
101.636;000.176;58;000.352;MIDI 01
101.848;000.245;65;000.320;MIDI 01
101.634;000.589;82;000.438;MIDI 01
102.047;000.264;70;000.391;MIDI 01
102.170;000.167;73;000.336;MIDI 01
102.278;000.123;77;000.391;MIDI 01
102.390;000.136;82;000.391;MIDI 01
102.544;000.102;85;000.414;MIDI 01
102.680;000.220;63;000.297;MIDI 01
102.692;000.270;92;000.492;MIDI 01
102.920;000.215;89;000.500;MIDI 01
102.935;000.289;65;000.344;MIDI 01
103.398;000.065;75;000.258;MIDI 01
103.398;000.077;77;000.328;MIDI 01
103.178;000.405;68;000.367;MIDI 01
103.510;000.083;80;000.344;MIDI 01
103.617;000.099;85;000.438;MIDI 01
103.753;000.214;92;000.461;MIDI 01
103.750;000.233;61;000.328;MIDI 01
103.964;000.067;63;000.320;MIDI 01
103.893;000.190;87;000.484;MIDI 01
104.073;000.122;68;000.367;MIDI 01
104.200;000.082;73;000.375;MIDI 01
104.310;000.046;74;000.398;MIDI 01
104.322;000.042;75;000.406;MIDI 01
104.438;000.044;80;000.352;MIDI 01
104.516;000.087;85;000.406;MIDI 01
104.638;000.128;92;000.516;MIDI 01
104.658;000.162;60;000.297;MIDI 01
104.758;000.161;85;000.500;MIDI 01
104.973;000.144;65;000.414;MIDI 01
105.098;000.068;68;000.297;MIDI 01
104.826;000.385;61;000.359;MIDI 01
105.155;000.057;73;000.391;MIDI 01
105.271;000.064;77;000.367;MIDI 01
105.362;000.115;80;000.438;MIDI 01
105.511;000.276;87;000.461;MIDI 01
105.560;000.228;63;000.305;MIDI 01
105.784;000.165;56;000.336;MIDI 01
105.976;000.160;63;000.375;MIDI 01
105.750;000.416;80;000.430;MIDI 01
106.166;000.115;68;000.391;MIDI 01
106.377;000.078;75;000.445;MIDI 01
106.275;000.293;72;000.344;MIDI 01
106.510;000.099;80;000.367;MIDI 01
106.599;000.147;84;000.500;MIDI 01
106.765;000.167;90;000.492;MIDI 01
106.754;000.195;60;000.336;MIDI 01
106.980;000.139;61;000.383;MIDI 01
106.926;000.222;85;000.492;MIDI 01
107.295;000.039;70;000.289;MIDI 01
107.362;000.037;72;000.406;MIDI 01
107.396;000.050;73;000.383;MIDI 01
107.144;000.368;66;000.422;MIDI 01
107.513;000.095;78;000.367;MIDI 01
107.610;000.103;82;000.477;MIDI 01
107.734;000.150;58;000.375;MIDI 01
107.729;000.164;89;000.469;MIDI 01
107.891;000.159;84;000.508;MIDI 01
108.115;000.151;65;000.211;MIDI 01
108.149;000.147;68;000.445;MIDI 01
108.299;000.029;70;000.367;MIDI 01
108.284;000.067;72;000.438;MIDI 01
107.907;000.503;60;000.398;MIDI 01
108.407;000.070;77;000.352;MIDI 01
108.474;000.104;80;000.508;MIDI 01
108.638;000.120;56;000.359;MIDI 01
108.641;000.159;87;000.508;MIDI 01
108.755;000.183;82;000.477;MIDI 01
108.959;000.054;63;000.281;MIDI 01
108.805;000.227;58;000.305;MIDI 01
109.032;000.094;66;000.344;MIDI 01
109.146;000.039;68;000.250;MIDI 01
109.172;000.066;70;000.359;MIDI 01
109.312;000.068;75;000.250;MIDI 01
109.391;000.118;78;000.398;MIDI 01
109.556;000.147;54;000.328;MIDI 01
109.555;000.182;85;000.383;MIDI 01
109.703;000.120;80;000.398;MIDI 01
109.736;000.092;56;000.336;MIDI 01
109.866;000.084;61;000.297;MIDI 01
109.943;000.098;65;000.367;MIDI 01
110.085;000.025;68;000.375;MIDI 01
110.173;000.119;73;000.438;MIDI 01
110.291;000.071;77;000.391;MIDI 01
110.489;000.123;54;000.328;MIDI 01
110.414;000.225;84;000.469;MIDI 01
110.641;000.130;55;000.398;MIDI 01
110.608;000.200;79;000.438;MIDI 01
110.947;000.108;64;000.406;MIDI 01
111.064;000.049;67;000.391;MIDI 01
110.904;000.212;63;000.242;MIDI 01
110.818;000.304;60;000.344;MIDI 01
111.180;000.149;72;000.406;MIDI 01
111.278;000.083;76;000.508;MIDI 01
111.403;000.134;83;000.461;MIDI 01
111.560;000.138;78;000.391;MIDI 01
111.489;000.310;53;000.062;MIDI 01
111.584;000.279;54;000.297;MIDI 01
111.882;000.127;63;000.438;MIDI 01
112.028;000.033;65;000.297;MIDI 01
111.804;000.293;59;000.383;MIDI 01
112.131;000.049;66;000.383;MIDI 01
112.277;000.050;71;000.156;MIDI 01
112.356;000.142;75;000.461;MIDI 01
112.481;000.231;49;000.344;MIDI 01
112.528;000.210;82;000.438;MIDI 01
112.728;000.120;50;000.328;MIDI 01
112.739;000.155;78;000.430;MIDI 01
112.932;000.050;57;000.266;MIDI 01
113.071;000.204;60;000.383;MIDI 01
113.334;000.082;66;000.469;MIDI 01
113.492;000.110;71;000.344;MIDI 01
113.581;000.142;72;000.508;MIDI 01
113.789;000.268;81;000.461;MIDI 01
113.781;000.309;41;000.328;MIDI 01
114.074;000.212;51;000.359;MIDI 01
114.335;000.042;57;000.422;MIDI 01
114.056;000.435;77;000.477;MIDI 01
114.552;000.152;60;000.398;MIDI 01
114.737;000.107;63;000.406;MIDI 01
114.928;000.171;69;000.367;MIDI 01
115.097;000.305;70;000.336;MIDI 01
115.117;000.317;78;000.484;MIDI 01
115.407;000.069;71;000.453;MIDI 01
115.567;000.129;72;000.438;MIDI 01
115.370;000.347;75;000.461;MIDI 01
115.715;000.072;68;000.359;MIDI 01
115.855;000.191;69;000.344;MIDI 01
115.986;000.136;63;000.414;MIDI 01
116.144;000.045;60;000.320;MIDI 01
116.082;000.220;77;000.430;MIDI 01
116.229;000.357;73;000.438;MIDI 01
116.458;000.223;66;000.391;MIDI 01
116.357;000.360;70;000.398;MIDI 01
116.577;000.164;67;000.375;MIDI 01
116.695;000.125;61;000.289;MIDI 01
116.845;000.068;58;000.070;MIDI 01
116.805;000.141;75;000.477;MIDI 01
117.067;000.065;69;000.391;MIDI 01
116.935;000.228;72;000.461;MIDI 01
117.140;000.040;65;000.414;MIDI 01
117.265;000.076;66;000.352;MIDI 01
117.368;000.135;60;000.391;MIDI 01
117.526;000.071;57;000.289;MIDI 01
117.499;000.146;69;000.469;MIDI 01
117.641;000.301;66;000.430;MIDI 01
118.006;000.097;59;000.391;MIDI 01
117.871;000.260;58;000.383;MIDI 01
117.749;000.508;63;000.375;MIDI 01
118.184;000.119;51;000.375;MIDI 01
118.311;000.089;41;000.344;MIDI 01
118.269;000.144;68;000.430;MIDI 01
118.412;000.279;65;000.414;MIDI 01
118.664;000.151;57;000.297;MIDI 01
118.567;000.259;61;000.289;MIDI 01
118.810;000.055;58;000.453;MIDI 01
118.978;000.235;51;000.414;MIDI 01
119.254;000.254;41;000.281;MIDI 01
119.144;000.730;66;000.406;MIDI 01
119.773;000.217;56;000.383;MIDI 01
119.435;000.558;63;000.391;MIDI 01
119.629;000.375;60;000.375;MIDI 01
119.933;000.399;57;000.391;MIDI 01
120.151;000.366;51;000.398;MIDI 01
120.399;000.312;41;000.359;MIDI 01
120.810;000.295;29;000.398;MIDI 01
121.287;000.342;51;000.289;MIDI 01
121.515;000.192;54;000.383;MIDI 01
121.717;000.092;57;000.406;MIDI 01
121.864;000.271;60;000.484;MIDI 01
122.083;000.257;66;000.484;MIDI 01
121.992;000.368;63;000.422;MIDI 01
122.217;000.214;69;000.500;MIDI 01
122.319;000.175;72;000.555;MIDI 01
122.493;000.369;78;000.680;MIDI 01
122.501;000.367;75;000.602;MIDI 01
123.147;000.209;75;000.578;MIDI 01
123.350;000.193;77;000.594;MIDI 01
123.499;000.092;74;000.516;MIDI 01
123.580;000.040;76;000.484;MIDI 01
123.674;000.041;72;000.469;MIDI 01
123.750;000.056;75;000.508;MIDI 01
123.946;000.091;78;000.555;MIDI 01
123.861;000.223;69;000.508;MIDI 01
124.058;000.069;75;000.539;MIDI 01
124.146;000.149;77;000.562;MIDI 01
124.235;000.084;73;000.547;MIDI 01
124.393;000.034;72;000.430;MIDI 01
124.328;000.127;76;000.484;MIDI 01
124.473;000.143;75;000.508;MIDI 01
124.561;000.098;69;000.531;MIDI 01
124.624;000.110;78;000.602;MIDI 01
124.746;000.040;75;000.461;MIDI 01
124.802;000.143;77;000.594;MIDI 01
124.899;000.100;73;000.492;MIDI 01
125.066;000.041;71;000.227;MIDI 01
125.007;000.126;76;000.523;MIDI 01
125.132;000.154;75;000.570;MIDI 01
125.246;000.059;67;000.273;MIDI 01
125.261;000.046;69;000.281;MIDI 01
125.292;000.108;78;000.586;MIDI 01
125.409;000.047;75;000.508;MIDI 01
125.469;000.161;77;000.586;MIDI 01
125.568;000.100;73;000.516;MIDI 01
125.761;000.052;72;000.367;MIDI 01
125.667;000.161;76;000.508;MIDI 01
125.827;000.215;75;000.445;MIDI 01
125.936;000.157;69;000.469;MIDI 01
126.201;000.148;73;000.438;MIDI 01
126.457;000.052;72;000.266;MIDI 01
126.057;000.477;77;000.461;MIDI 01
126.323;000.273;76;000.469;MIDI 01
126.543;000.300;75;000.500;MIDI 01
126.662;000.185;69;000.469;MIDI 01
126.842;000.307;77;000.484;MIDI 01
127.042;000.137;73;000.469;MIDI 01
127.297;000.050;72;000.234;MIDI 01
127.179;000.279;76;000.492;MIDI 01
127.546;000.061;69;000.328;MIDI 01
127.410;000.221;75;000.391;MIDI 01
127.662;000.235;77;000.445;MIDI 01
127.800;000.147;73;000.422;MIDI 01
128.060;000.094;72;000.250;MIDI 01
127.916;000.339;76;000.453;MIDI 01
128.203;000.355;75;000.328;MIDI 01
128.375;000.296;69;000.320;MIDI 01
128.809;000.468;73;000.367;MIDI 01
126.838;002.522;65;000.492;MIDI 01
129.098;000.511;76;000.383;MIDI 01
128.568;001.199;77;000.375;MIDI 01
129.144;000.930;64;000.266;MIDI 01
129.494;000.593;72;000.266;MIDI 01
130.516;000.569;69;000.188;MIDI 01
129.986;001.102;63;000.266;MIDI 01
129.938;001.152;75;000.336;MIDI 01
131.752;000.129;68;000.297;MIDI 01
131.750;000.647;65;000.336;MIDI 01
131.740;000.823;73;000.422;MIDI 01
131.770;000.926;61;000.320;MIDI 01
131.727;001.147;77;000.484;MIDI 01
132.721;000.235;64;000.305;MIDI 01
132.717;000.242;60;000.289;MIDI 01
132.671;000.290;76;000.461;MIDI 01
132.980;000.216;63;000.297;MIDI 01
133.011;000.224;66;000.227;MIDI 01
132.978;000.319;58;000.305;MIDI 01
132.954;000.463;70;000.297;MIDI 01
132.935;000.598;75;000.422;MIDI 01
133.461;000.152;73;000.258;MIDI 01
133.453;001.536;65;000.250;MIDI 01
133.457;001.674;61;000.281;MIDI 01
133.504;001.814;68;000.094;MIDI 01
133.430;002.034;77;000.391;MIDI 01
135.514;000.282;60;000.273;MIDI 01
135.803;000.106;70;000.273;MIDI 01
135.477;000.468;75;000.312;MIDI 01
135.833;000.541;61;000.242;MIDI 01
135.792;000.621;73;000.359;MIDI 01
135.877;000.677;65;000.078;MIDI 01
135.860;001.358;58;000.172;MIDI 01
137.236;000.201;65;000.281;MIDI 01
137.223;000.307;61;000.352;MIDI 01
137.214;000.383;73;000.352;MIDI 01
137.218;000.429;68;000.297;MIDI 01
137.201;000.657;77;000.438;MIDI 01
137.656;000.264;60;000.281;MIDI 01
137.853;000.184;58;000.305;MIDI 01
137.793;000.274;73;000.422;MIDI 01
137.613;000.575;75;000.406;MIDI 01
138.026;000.205;61;000.320;MIDI 01
138.028;000.268;68;000.320;MIDI 01
138.076;000.246;65;000.148;MIDI 01
138.011;000.460;72;000.406;MIDI 01
138.036;000.816;56;000.289;MIDI 01
138.834;000.822;61;000.328;MIDI 01
138.831;000.839;65;000.320;MIDI 01
138.863;000.857;68;000.312;MIDI 01
138.798;001.116;73;000.406;MIDI 01
138.800;001.240;77;000.438;MIDI 01
140.004;000.075;70;000.305;MIDI 01
140.006;000.099;66;000.289;MIDI 01
140.002;000.410;60;000.250;MIDI 01
139.964;000.457;80;000.453;MIDI 01
140.380;000.380;68;000.297;MIDI 01
140.365;000.399;65;000.344;MIDI 01
140.363;000.402;61;000.328;MIDI 01
140.330;000.452;73;000.328;MIDI 01
140.339;000.448;77;000.398;MIDI 01
141.354;001.856;73;000.242;MIDI 01
141.425;001.846;68;000.188;MIDI 01
141.412;001.945;65;000.211;MIDI 01
141.330;002.094;77;000.328;MIDI 01
141.401;002.154;61;000.234;MIDI 01
144.192;000.848;75;000.367;MIDI 01
144.912;000.578;77;000.453;MIDI 01
145.368;000.579;78;000.531;MIDI 01
145.796;000.429;77;000.570;MIDI 01
146.889;000.428;68;000.258;MIDI 01
146.844;000.596;75;000.320;MIDI 01
147.293;000.251;77;000.367;MIDI 01
147.339;000.242;67;000.273;MIDI 01
147.607;000.143;66;000.344;MIDI 01
146.214;001.626;80;000.562;MIDI 01
147.836;000.141;65;000.336;MIDI 01
147.769;000.644;77;000.469;MIDI 01
148.067;000.510;56;000.312;MIDI 01
148.677;000.246;55;000.305;MIDI 01
148.627;000.315;75;000.328;MIDI 01
148.919;000.128;54;000.320;MIDI 01
148.901;000.216;77;000.469;MIDI 01
149.132;000.054;53;000.250;MIDI 01
148.253;001.084;82;000.594;MIDI 01
149.311;000.229;44;000.281;MIDI 01
149.268;000.548;77;000.430;MIDI 01
148.618;001.289;70;000.148;MIDI 01
149.512;000.577;37;000.414;MIDI 01
150.128;000.205;44;000.312;MIDI 01
150.094;000.282;75;000.375;MIDI 01
150.410;000.076;73;000.172;MIDI 01
150.358;000.201;77;000.383;MIDI 01
150.385;000.185;53;000.266;MIDI 01
150.559;000.169;54;000.320;MIDI 01
150.753;000.148;55;000.320;MIDI 01
150.930;000.107;56;000.367;MIDI 01
151.153;000.166;65;000.359;MIDI 01
149.720;001.623;80;000.547;MIDI 01
150.748;000.692;73;000.117;MIDI 01
151.354;000.214;66;000.359;MIDI 01
150.714;001.048;77;000.367;MIDI 01
151.592;000.311;67;000.336;MIDI 01
151.885;000.046;68;000.180;MIDI 01
151.901;000.394;65;000.359;MIDI 01
152.290;000.255;70;000.234;MIDI 01
152.269;000.415;66;000.305;MIDI 01
151.857;000.856;80;000.422;MIDI 01
152.294;000.565;63;000.273;MIDI 01
152.677;000.252;72;000.359;MIDI 01
152.723;000.258;56;000.281;MIDI 01
152.231;001.201;78;000.422;MIDI 01
153.416;001.672;68;000.148;MIDI 01
153.314;001.782;73;000.289;MIDI 01
153.371;001.733;65;000.234;MIDI 01
153.316;001.826;77;000.367;MIDI 01
153.376;001.885;61;000.219;MIDI 01
156.116;000.582;75;000.492;MIDI 01
156.691;000.099;73;000.430;MIDI 01
156.834;000.065;75;000.406;MIDI 01
156.874;000.982;73;000.492;MIDI 01
157.759;000.747;72;000.453;MIDI 01
158.356;000.740;65;000.312;MIDI 01
158.399;000.858;58;000.125;MIDI 01
158.350;001.066;70;000.398;MIDI 01
158.378;001.074;54;000.211;MIDI 01
159.359;000.283;55;000.289;MIDI 01
159.348;000.329;64;000.281;MIDI 01
159.322;001.789;73;000.406;MIDI 01
160.109;001.025;44;000.312;MIDI 01
160.090;001.047;61;000.234;MIDI 01
160.066;001.218;63;000.312;MIDI 01
160.135;001.322;54;000.117;MIDI 01
161.863;000.154;64;000.297;MIDI 01
161.886;000.181;58;000.227;MIDI 01
161.856;000.222;55;000.281;MIDI 01
160.125;001.975;51;000.258;MIDI 01
161.825;000.778;72;000.414;MIDI 01
162.293;000.464;44;000.305;MIDI 01
162.291;000.492;54;000.289;MIDI 01
162.256;000.543;61;000.336;MIDI 01
162.257;000.620;63;000.375;MIDI 01
162.295;000.911;51;000.320;MIDI 01
163.071;000.141;62;000.359;MIDI 01
163.101;000.127;56;000.297;MIDI 01
163.099;000.201;53;000.273;MIDI 01
163.059;001.039;71;000.367;MIDI 01
163.521;000.726;63;000.344;MIDI 01
163.561;000.728;54;000.266;MIDI 01
163.523;000.782;61;000.344;MIDI 01
163.558;000.976;51;000.305;MIDI 01
163.594;000.950;44;000.242;MIDI 01
164.645;000.531;60;000.320;MIDI 01
164.658;000.522;55;000.250;MIDI 01
164.685;000.573;52;000.188;MIDI 01
164.621;001.039;70;000.352;MIDI 01
165.553;001.207;63;000.320;MIDI 01
165.550;001.233;61;000.250;MIDI 01
165.606;001.280;54;000.195;MIDI 01
165.594;001.558;44;000.289;MIDI 01
165.577;002.169;51;000.227;MIDI 01
167.342;000.550;58;000.219;MIDI 01
167.824;000.442;60;000.250;MIDI 01
168.184;000.296;61;000.305;MIDI 01
168.715;000.173;65;000.273;MIDI 01
168.476;000.491;62;000.320;MIDI 01
168.934;000.225;66;000.328;MIDI 01
169.108;000.088;63;000.289;MIDI 01
169.233;000.172;65;000.391;MIDI 01
169.349;000.139;66;000.406;MIDI 01
169.466;000.116;68;000.391;MIDI 01
169.582;000.017;70;000.438;MIDI 01
169.689;000.097;72;000.469;MIDI 01
169.792;000.111;73;000.422;MIDI 01
169.920;000.477;75;000.406;MIDI 01
170.226;000.584;73;000.320;MIDI 01
170.259;000.610;65;000.227;MIDI 01
170.219;000.782;77;000.391;MIDI 01
170.234;000.777;68;000.148;MIDI 01
170.222;000.805;61;000.219;MIDI 01
171.015;000.271;76;000.430;MIDI 01
171.056;000.235;60;000.258;MIDI 01
171.041;000.293;64;000.352;MIDI 01
171.281;000.267;66;000.305;MIDI 01
171.256;000.339;70;000.305;MIDI 01
171.296;000.464;63;000.305;MIDI 01
171.284;000.487;58;000.289;MIDI 01
171.258;000.591;75;000.320;MIDI 01
171.807;001.535;65;000.266;MIDI 01
171.836;001.701;61;000.188;MIDI 01
171.825;001.951;68;000.234;MIDI 01
171.801;002.050;73;000.281;MIDI 01
171.764;002.442;77;000.359;MIDI 01
174.011;000.293;60;000.258;MIDI 01
174.002;000.443;75;000.336;MIDI 01
174.346;000.423;70;000.273;MIDI 01
174.376;000.406;61;000.242;MIDI 01
174.328;000.514;73;000.234;MIDI 01
174.395;000.486;65;000.133;MIDI 01
174.398;000.857;58;000.203;MIDI 01
175.452;000.180;65;000.227;MIDI 01
175.432;000.214;61;000.289;MIDI 01
175.433;000.351;73;000.234;MIDI 01
175.430;000.363;68;000.281;MIDI 01
175.416;000.560;77;000.398;MIDI 01
175.798;000.203;60;000.352;MIDI 01
175.989;000.208;58;000.320;MIDI 01
175.780;000.489;75;000.445;MIDI 01
175.963;000.314;73;000.398;MIDI 01
176.191;000.225;61;000.344;MIDI 01
176.204;000.271;68;000.234;MIDI 01
176.234;000.270;65;000.211;MIDI 01
176.194;000.444;72;000.367;MIDI 01
176.211;000.680;56;000.297;MIDI 01
176.970;000.655;61;000.219;MIDI 01
176.992;000.734;65;000.289;MIDI 01
176.999;000.783;68;000.234;MIDI 01
176.960;000.972;73;000.367;MIDI 01
176.959;001.210;77;000.391;MIDI 01
178.118;000.114;70;000.273;MIDI 01
178.113;000.162;66;000.258;MIDI 01
178.068;000.387;80;000.469;MIDI 01
178.111;000.407;60;000.266;MIDI 01
178.457;000.179;73;000.312;MIDI 01
178.497;000.370;61;000.320;MIDI 01
178.503;000.391;65;000.312;MIDI 01
178.508;000.397;68;000.281;MIDI 01
178.455;000.455;77;000.461;MIDI 01
179.581;001.765;73;000.219;MIDI 01
179.547;001.832;77;000.281;MIDI 01
179.620;001.904;68;000.031;MIDI 01
179.626;001.927;65;000.133;MIDI 01
179.624;003.024;61;000.227;MIDI 01
182.117;000.850;75;000.344;MIDI 01
183.285;000.144;80;000.383;MIDI 01
182.812;000.630;77;000.453;MIDI 01
183.350;000.594;78;000.508;MIDI 01
183.756;000.682;77;000.555;MIDI 01
185.185;000.088;44;000.297;MIDI 01
185.190;000.089;37;000.273;MIDI 01
184.361;000.941;80;000.562;MIDI 01
185.193;000.394;73;000.391;MIDI 01
185.518;000.215;77;000.445;MIDI 01
185.941;000.085;64;000.219;MIDI 01
185.605;000.492;56;000.242;MIDI 01
185.965;000.211;65;000.320;MIDI 01
185.751;000.435;63;000.414;MIDI 01
186.029;000.232;77;000.391;MIDI 01
186.046;000.224;61;000.352;MIDI 01
185.159;001.153;85;000.555;MIDI 01
186.049;000.277;73;000.344;MIDI 01
186.741;000.078;75;000.430;MIDI 01
186.753;000.076;72;000.375;MIDI 01
186.743;000.092;37;000.438;MIDI 01
186.761;000.077;44;000.398;MIDI 01
187.072;000.152;77;000.203;MIDI 01
187.040;000.239;73;000.383;MIDI 01
186.720;000.732;84;000.562;MIDI 01
187.355;000.127;63;000.375;MIDI 01
187.245;000.271;61;000.367;MIDI 01
187.496;000.057;65;000.320;MIDI 01
187.460;000.330;77;000.422;MIDI 01
187.056;000.752;55;000.352;MIDI 01
186.834;000.997;72;000.055;MIDI 01
188.100;000.099;37;000.344;MIDI 01
188.126;000.076;44;000.359;MIDI 01
188.405;000.120;73;000.328;MIDI 01
188.383;000.244;77;000.477;MIDI 01
188.631;000.085;63;000.391;MIDI 01
188.533;000.210;60;000.383;MIDI 01
188.397;000.412;54;000.375;MIDI 01
188.057;000.799;82;000.516;MIDI 01
188.880;000.127;65;000.273;MIDI 01
188.909;000.132;61;000.125;MIDI 01
188.104;001.060;70;000.398;MIDI 01
188.847;000.323;58;000.242;MIDI 01
188.818;000.886;77;000.383;MIDI 01
189.644;000.159;37;000.281;MIDI 01
189.653;000.165;44;000.320;MIDI 01
190.076;000.404;77;000.312;MIDI 01
190.642;000.113;63;000.281;MIDI 01
190.140;000.691;53;000.336;MIDI 01
190.409;000.578;58;000.289;MIDI 01
191.028;000.133;73;000.188;MIDI 01
189.610;003.402;68;000.281;MIDI 01
191.067;002.051;65;000.297;MIDI 01
191.069;002.143;56;000.242;MIDI 01
191.055;002.268;61;000.250;MIDI 01
189.577;003.770;80;000.398;MIDI 01
190.988;002.362;77;000.344;MIDI 01
194.284;000.545;78;000.523;MIDI 01
194.844;000.057;77;000.430;MIDI 01
194.918;000.092;78;000.492;MIDI 01
194.992;000.401;77;000.523;MIDI 01
195.357;000.729;75;000.539;MIDI 01
195.662;000.517;73;000.539;MIDI 01
196.101;000.522;65;000.367;MIDI 01
196.142;000.915;58;000.133;MIDI 01
196.933;000.165;64;000.359;MIDI 01
196.085;001.076;70;000.430;MIDI 01
196.940;000.368;57;000.344;MIDI 01
196.135;001.503;54;000.211;MIDI 01
196.914;000.880;72;000.398;MIDI 01
197.543;001.317;68;000.352;MIDI 01
199.299;000.099;72;000.484;MIDI 01
197.573;001.829;65;000.305;MIDI 01
198.458;000.966;73;000.422;MIDI 01
199.521;000.043;70;000.289;MIDI 01
199.575;000.115;72;000.422;MIDI 01
197.562;002.153;56;000.219;MIDI 01
199.672;000.504;63;000.367;MIDI 01
200.078;000.420;68;000.438;MIDI 01
200.410;000.294;61;000.430;MIDI 01
200.422;000.418;53;000.289;MIDI 01
197.575;003.355;49;000.250;MIDI 01
199.684;001.277;70;000.484;MIDI 01
200.400;001.057;66;000.398;MIDI 01
201.248;000.664;68;000.438;MIDI 01
200.816;001.353;60;000.438;MIDI 01
199.738;002.456;54;000.242;MIDI 01
200.827;001.398;51;000.352;MIDI 01
201.800;000.985;69;000.430;MIDI 01
202.670;000.432;46;000.281;MIDI 01
202.652;000.479;53;000.219;MIDI 01
202.617;000.619;61;000.305;MIDI 01
202.622;000.670;65;000.320;MIDI 01
204.359;000.296;77;000.320;MIDI 01
204.358;000.379;68;000.336;MIDI 01
204.618;000.722;69;000.297;MIDI 01
204.644;000.722;75;000.375;MIDI 01
204.628;000.772;63;000.281;MIDI 01
204.649;000.782;60;000.273;MIDI 01
204.635;000.839;66;000.367;MIDI 01
206.599;001.445;61;000.258;MIDI 01
206.586;001.473;65;000.273;MIDI 01
208.661;000.793;65;000.547;MIDI 01
209.307;000.452;64;000.578;MIDI 01
206.631;003.348;46;000.227;MIDI 01
206.658;003.383;53;000.156;MIDI 01
209.703;000.392;63;000.617;MIDI 01
210.095;000.896;61;000.531;MIDI 01
210.064;001.006;73;000.594;MIDI 01
210.595;000.590;58;000.438;MIDI 01
211.323;000.281;49;000.328;MIDI 01
211.364;000.621;58;000.078;MIDI 01
211.568;000.528;42;000.273;MIDI 01
212.114;000.123;49;000.281;MIDI 01
211.271;001.059;63;000.422;MIDI 01
212.300;000.053;58;000.328;MIDI 01
212.498;000.292;63;000.320;MIDI 01
212.733;000.326;70;000.305;MIDI 01
213.306;000.175;63;000.266;MIDI 01
213.682;000.347;58;000.281;MIDI 01
214.067;000.280;49;000.312;MIDI 01
214.369;000.459;42;000.336;MIDI 01
214.890;000.094;49;000.352;MIDI 01
215.057;000.048;58;000.336;MIDI 01
213.654;001.459;97;000.586;MIDI 01
215.077;000.516;87;000.438;MIDI 01
214.702;000.900;96;000.547;MIDI 01
215.251;000.353;63;000.336;MIDI 01
215.479;000.270;70;000.391;MIDI 01
215.752;000.117;86;000.461;MIDI 01
215.896;000.054;63;000.336;MIDI 01
215.424;000.616;95;000.602;MIDI 01
216.034;000.069;94;000.539;MIDI 01
216.106;000.105;58;000.328;MIDI 01
216.066;000.376;85;000.445;MIDI 01
216.289;000.251;49;000.375;MIDI 01
216.495;000.360;84;000.422;MIDI 01
216.474;000.460;87;000.602;MIDI 01
216.532;000.521;42;000.375;MIDI 01
216.859;000.276;83;000.406;MIDI 01
217.039;000.099;49;000.375;MIDI 01
217.177;000.079;58;000.445;MIDI 01
217.151;000.254;82;000.445;MIDI 01
217.118;000.346;86;000.547;MIDI 01
217.555;000.153;63;000.438;MIDI 01
217.434;000.381;85;000.547;MIDI 01
217.756;000.064;75;000.289;MIDI 01
218.080;000.049;74;000.188;MIDI 01
217.760;000.404;70;000.297;MIDI 01
217.713;000.531;84;000.492;MIDI 01
218.040;000.226;83;000.477;MIDI 01
218.351;000.065;82;000.492;MIDI 01
218.231;000.228;63;000.398;MIDI 01
218.402;000.359;73;000.414;MIDI 01
218.829;000.420;72;000.430;MIDI 01
218.795;000.530;75;000.562;MIDI 01
219.246;000.180;71;000.430;MIDI 01
218.448;001.061;58;000.359;MIDI 01
219.615;000.386;70;000.086;MIDI 01
219.867;000.278;73;000.461;MIDI 01
219.932;000.256;63;000.352;MIDI 01
219.539;000.706;74;000.477;MIDI 01
220.108;000.281;58;000.359;MIDI 01
220.286;000.371;69;000.281;MIDI 01
220.630;000.133;63;000.375;MIDI 01
220.265;000.524;72;000.438;MIDI 01
220.353;000.651;49;000.281;MIDI 01
221.033;000.057;62;000.156;MIDI 01
221.001;000.549;71;000.367;MIDI 01
221.242;000.321;42;000.266;MIDI 01
221.561;000.210;49;000.273;MIDI 01
221.527;000.394;61;000.328;MIDI 01
221.806;000.120;58;000.289;MIDI 01
221.492;000.740;70;000.438;MIDI 01
222.304;000.370;70;000.273;MIDI 01
222.235;000.619;63;000.461;MIDI 01
222.244;000.617;60;000.398;MIDI 01
223.055;000.124;60;000.289;MIDI 01
223.240;000.167;58;000.266;MIDI 01
223.464;000.299;49;000.258;MIDI 01
223.036;001.619;63;000.359;MIDI 01
223.184;001.543;60;000.023;MIDI 01
224.542;001.305;58;000.250;MIDI 01
224.219;001.776;49;000.305;MIDI 01
224.528;001.645;70;000.438;MIDI 01
223.676;002.772;42;000.266;MIDI 01
226.030;001.278;57;000.281;MIDI 01
226.472;000.880;49;000.250;MIDI 01
225.355;002.081;64;000.406;MIDI 01
227.043;000.455;69;000.297;MIDI 01
225.371;002.135;60;000.305;MIDI 01
227.066;000.484;42;000.141;MIDI 01
228.235;000.252;49;000.164;MIDI 01
228.227;000.294;25;000.227;MIDI 01
228.229;000.300;32;000.227;MIDI 01
228.244;000.314;56;000.219;MIDI 01
228.203;000.356;61;000.352;MIDI 01
228.233;000.340;37;000.258;MIDI 01
229.207;000.119;80;000.109;MIDI 01
229.160;000.499;56;000.203;MIDI 01
229.158;000.516;73;000.234;MIDI 01
229.095;000.651;85;000.391;MIDI 01
229.156;000.624;65;000.266;MIDI 01
229.170;000.685;61;000.227;MIDI 01
230.083;000.704;84;000.422;MIDI 01
230.092;000.721;80;000.367;MIDI 01
230.089;000.726;72;000.344;MIDI 01
230.152;000.674;54;000.234;MIDI 01
230.154;000.674;63;000.211;MIDI 01
230.125;000.704;65;000.250;MIDI 01
230.121;000.732;60;000.289;MIDI 01
231.023;000.158;83;000.500;MIDI 01
231.050;000.133;65;000.344;MIDI 01
231.029;000.159;80;000.414;MIDI 01
231.047;000.144;62;000.391;MIDI 01
231.039;000.154;77;000.297;MIDI 01
231.036;000.212;71;000.469;MIDI 01
231.044;000.211;59;000.359;MIDI 01
231.055;000.226;53;000.414;MIDI 01
231.708;000.253;36;000.422;MIDI 01
231.701;000.269;45;000.516;MIDI 01
231.690;000.283;60;000.469;MIDI 01
231.714;000.263;65;000.414;MIDI 01
231.706;000.324;48;000.492;MIDI 01
231.710;000.321;41;000.477;MIDI 01
231.696;000.365;69;000.516;MIDI 01
231.681;000.395;72;000.547;MIDI 01
232.434;000.500;53;000.312;MIDI 01
232.414;000.550;60;000.398;MIDI 01
232.396;000.605;77;000.562;MIDI 01
232.449;000.635;69;000.336;MIDI 01
232.420;000.701;57;000.367;MIDI 01
232.410;000.725;72;000.461;MIDI 01
232.417;000.728;65;000.461;MIDI 01
233.391;000.600;76;000.461;MIDI 01
233.423;000.630;52;000.352;MIDI 01
233.420;000.684;60;000.375;MIDI 01
233.418;000.719;56;000.352;MIDI 01
233.421;000.776;64;000.328;MIDI 01
233.415;000.828;68;000.344;MIDI 01
233.408;000.922;72;000.352;MIDI 01
234.565;000.260;75;000.406;MIDI 01
234.633;000.203;69;000.203;MIDI 01
234.575;000.272;72;000.242;MIDI 01
234.577;000.300;63;000.336;MIDI 01
234.608;000.273;60;000.227;MIDI 01
234.601;000.286;57;000.289;MIDI 01
234.595;000.331;53;000.258;MIDI 01
234.622;000.310;51;000.281;MIDI 01
235.504;000.250;56;000.258;MIDI 01
235.488;000.300;61;000.320;MIDI 01
235.477;000.314;32;000.266;MIDI 01
235.566;000.227;37;000.211;MIDI 01
235.527;000.267;25;000.266;MIDI 01
236.265;000.541;68;000.195;MIDI 01
236.289;000.598;56;000.234;MIDI 01
236.256;000.634;61;000.125;MIDI 01
236.287;000.633;53;000.227;MIDI 01
236.202;000.757;73;000.391;MIDI 01
237.285;000.126;65;000.102;MIDI 01
237.238;000.506;44;000.227;MIDI 01
237.194;000.561;72;000.352;MIDI 01
237.261;000.520;54;000.273;MIDI 01
237.236;000.548;51;000.281;MIDI 01
237.231;000.567;60;000.188;MIDI 01
237.241;000.561;68;000.273;MIDI 01
237.983;000.108;59;000.281;MIDI 01
237.976;000.127;50;000.367;MIDI 01
237.964;000.154;68;000.375;MIDI 01
237.978;000.172;71;000.438;MIDI 01
237.960;000.199;44;000.258;MIDI 01
238.003;000.166;53;000.289;MIDI 01
238.540;000.097;48;000.367;MIDI 01
238.543;000.190;60;000.461;MIDI 01
238.518;000.216;84;000.602;MIDI 01
238.526;000.210;81;000.531;MIDI 01
238.547;000.199;77;000.430;MIDI 01
238.545;000.203;57;000.414;MIDI 01
238.527;000.229;72;000.523;MIDI 01
238.544;000.218;53;000.438;MIDI 01
238.641;000.197;48;000.031;MIDI 01
239.314;000.044;53;000.141;MIDI 01
239.186;000.642;57;000.383;MIDI 01
239.208;000.705;60;000.336;MIDI 01
239.209;000.742;41;000.328;MIDI 01
239.192;000.833;48;000.320;MIDI 01
239.173;001.117;65;000.492;MIDI 01
240.312;000.680;40;000.312;MIDI 01
240.298;000.825;52;000.352;MIDI 01
240.305;000.832;48;000.227;MIDI 01
240.264;000.874;64;000.352;MIDI 01
240.318;000.823;60;000.211;MIDI 01
240.307;000.900;56;000.289;MIDI 01
241.565;000.341;51;000.203;MIDI 01
241.567;000.395;48;000.250;MIDI 01
241.547;000.521;60;000.227;MIDI 01
241.528;000.572;39;000.266;MIDI 01
241.505;000.623;63;000.297;MIDI 01
241.537;000.718;57;000.242;MIDI 01
242.978;000.106;53;000.289;MIDI 01
242.703;000.429;25;000.281;MIDI 01
242.704;000.439;37;000.266;MIDI 01
242.994;000.325;56;000.242;MIDI 01
243.285;000.065;60;000.375;MIDI 01
243.298;000.057;52;000.234;MIDI 01
242.949;000.458;61;000.375;MIDI 01
243.613;000.045;49;000.320;MIDI 01
243.616;000.062;53;000.367;MIDI 01
243.450;000.370;48;000.289;MIDI 01
243.942;000.045;53;000.273;MIDI 01
243.948;000.069;56;000.328;MIDI 01
243.902;000.275;61;000.453;MIDI 01
244.195;000.072;52;000.312;MIDI 01
244.169;000.147;60;000.383;MIDI 01
243.787;000.599;37;000.367;MIDI 01
244.327;000.131;48;000.336;MIDI 01
244.511;000.049;49;000.367;MIDI 01
244.514;000.083;53;000.328;MIDI 01
244.836;000.118;56;000.414;MIDI 01
244.816;000.328;60;000.453;MIDI 01
245.079;000.088;52;000.477;MIDI 01
244.662;000.677;37;000.305;MIDI 01
245.241;000.165;47;000.320;MIDI 01
245.081;000.327;59;000.367;MIDI 01
245.421;000.045;49;000.312;MIDI 01
245.387;000.127;53;000.406;MIDI 01
245.761;000.080;56;000.383;MIDI 01
245.727;000.272;60;000.445;MIDI 01
246.005;000.034;52;000.352;MIDI 01
245.963;000.143;59;000.445;MIDI 01
245.593;000.617;37;000.305;MIDI 01
246.150;000.075;47;000.328;MIDI 01
246.299;000.072;49;000.336;MIDI 01
246.290;000.097;53;000.336;MIDI 01
246.670;000.068;56;000.297;MIDI 01
246.479;000.439;37;000.305;MIDI 01
246.895;000.052;52;000.359;MIDI 01
246.617;000.344;59;000.453;MIDI 01
246.890;000.173;58;000.422;MIDI 01
247.067;000.096;46;000.281;MIDI 01
247.199;000.065;49;000.344;MIDI 01
247.230;000.054;53;000.234;MIDI 01
247.623;000.075;56;000.258;MIDI 01
247.562;000.399;59;000.398;MIDI 01
247.867;000.100;58;000.344;MIDI 01
247.407;000.655;37;000.297;MIDI 01
248.027;000.082;46;000.281;MIDI 01
248.198;000.055;49;000.312;MIDI 01
248.209;000.076;53;000.172;MIDI 01
248.604;000.079;56;000.305;MIDI 01
248.598;000.106;58;000.344;MIDI 01
248.911;000.172;57;000.297;MIDI 01
248.936;000.206;55;000.227;MIDI 01
248.409;000.812;37;000.273;MIDI 01
249.105;000.202;45;000.281;MIDI 01
249.287;000.062;53;000.320;MIDI 01
249.306;000.058;49;000.188;MIDI 01
249.669;000.097;56;000.242;MIDI 01
249.644;000.172;58;000.352;MIDI 01
249.996;000.256;57;000.320;MIDI 01
250.030;000.275;55;000.258;MIDI 01
250.615;000.109;49;000.148;MIDI 01
250.600;000.139;53;000.242;MIDI 01
250.277;000.556;45;000.266;MIDI 01
249.441;001.669;37;000.297;MIDI 01
251.415;000.842;69;000.531;MIDI 01
252.106;000.407;68;000.609;MIDI 01
252.446;000.872;67;000.672;MIDI 01
252.690;001.177;50;000.430;MIDI 01
253.176;000.989;65;000.594;MIDI 01
252.865;001.332;57;000.469;MIDI 01
253.696;000.521;81;000.539;MIDI 01
254.135;000.371;80;000.484;MIDI 01
254.133;000.375;62;000.469;MIDI 01
254.477;000.092;57;000.555;MIDI 01
254.474;000.317;79;000.562;MIDI 01
254.836;000.044;69;000.367;MIDI 01
254.806;000.347;78;000.523;MIDI 01
255.120;000.070;68;000.469;MIDI 01
255.113;000.080;77;000.523;MIDI 01
254.841;000.507;38;000.352;MIDI 01
255.129;000.262;45;000.445;MIDI 01
255.374;000.118;74;000.500;MIDI 01
255.396;000.258;50;000.477;MIDI 01
255.404;000.285;67;000.391;MIDI 01
255.652;000.290;66;000.414;MIDI 01
255.972;000.407;65;000.391;MIDI 01
255.985;000.548;57;000.398;MIDI 01
256.874;000.557;64;000.383;MIDI 01
256.424;001.028;56;000.570;MIDI 01
255.952;001.604;69;000.430;MIDI 01
257.391;000.392;63;000.320;MIDI 01
257.402;000.432;55;000.305;MIDI 01
255.655;002.211;45;000.438;MIDI 01
256.536;001.510;57;000.031;MIDI 01
258.530;000.047;55;000.234;MIDI 01
258.522;000.062;62;000.234;MIDI 01
258.290;000.490;38;000.266;MIDI 01
258.559;000.265;57;000.250;MIDI 01
258.765;000.086;61;000.383;MIDI 01
258.809;000.049;54;000.156;MIDI 01
258.944;000.183;49;000.273;MIDI 01
259.080;000.076;56;000.312;MIDI 01
259.411;000.103;62;000.375;MIDI 01
259.472;000.058;57;000.102;MIDI 01
259.248;000.463;38;000.320;MIDI 01
259.665;000.061;54;000.320;MIDI 01
259.666;000.093;61;000.391;MIDI 01
259.839;000.183;49;000.289;MIDI 01
260.000;000.049;56;000.281;MIDI 01
260.009;000.053;53;000.156;MIDI 01
260.315;000.066;54;000.117;MIDI 01
260.285;000.107;61;000.391;MIDI 01
260.307;000.112;57;000.227;MIDI 01
260.534;000.039;53;000.312;MIDI 01
260.144;000.451;38;000.352;MIDI 01
260.532;000.068;60;000.328;MIDI 01
260.683;000.067;48;000.352;MIDI 01
260.832;000.060;55;000.383;MIDI 01
261.024;000.247;38;000.328;MIDI 01
261.227;000.050;54;000.023;MIDI 01
261.163;000.279;57;000.359;MIDI 01
261.381;000.064;53;000.367;MIDI 01
261.392;000.083;60;000.367;MIDI 01
261.141;000.348;61;000.438;MIDI 01
261.548;000.068;48;000.289;MIDI 01
261.708;000.050;52;000.383;MIDI 01
261.694;000.067;55;000.438;MIDI 01
262.039;000.048;53;000.281;MIDI 01
262.028;000.088;56;000.406;MIDI 01
262.022;000.310;60;000.438;MIDI 01
262.319;000.047;52;000.391;MIDI 01
262.304;000.096;59;000.430;MIDI 01
261.871;000.660;38;000.367;MIDI 01
262.476;000.124;47;000.289;MIDI 01
262.619;000.062;55;000.391;MIDI 01
262.656;000.069;51;000.031;MIDI 01
262.964;000.058;56;000.406;MIDI 01
262.957;000.079;60;000.375;MIDI 01
263.233;000.040;52;000.391;MIDI 01
263.210;000.146;59;000.438;MIDI 01
263.214;000.211;56;000.258;MIDI 01
263.424;000.109;47;000.305;MIDI 01
263.570;000.074;55;000.406;MIDI 01
262.788;001.417;38;000.281;MIDI 01
264.166;000.802;71;000.531;MIDI 01
264.710;000.671;70;000.625;MIDI 01
265.065;000.670;69;000.602;MIDI 01
265.690;000.258;68;000.625;MIDI 01
265.442;001.117;59;000.367;MIDI 01
265.599;001.049;63;000.367;MIDI 01
266.455;000.461;83;000.336;MIDI 01
266.851;000.383;86;000.438;MIDI 01
266.860;000.393;63;000.344;MIDI 01
266.877;000.391;82;000.320;MIDI 01
266.446;000.842;87;000.469;MIDI 01
267.211;000.090;59;000.406;MIDI 01
267.198;000.148;85;000.555;MIDI 01
265.291;002.062;51;000.391;MIDI 01
267.217;000.348;81;000.391;MIDI 01
267.615;000.276;39;000.391;MIDI 01
267.576;000.355;80;000.469;MIDI 01
267.575;000.392;83;000.484;MIDI 01
267.925;000.051;82;000.445;MIDI 01
267.923;000.332;74;000.484;MIDI 01
268.226;000.350;51;000.406;MIDI 01
267.958;000.624;47;000.414;MIDI 01
268.531;000.096;56;000.453;MIDI 01
268.530;000.111;71;000.508;MIDI 01
268.243;000.450;73;000.352;MIDI 01
268.952;000.454;71;000.570;MIDI 01
269.014;000.454;68;000.484;MIDI 01
269.459;000.203;67;000.508;MIDI 01
269.788;000.173;70;000.664;MIDI 01
269.480;000.779;57;000.469;MIDI 01
270.193;000.072;58;000.398;MIDI 01
270.153;000.136;69;000.570;MIDI 01
268.218;002.134;75;000.500;MIDI 01
270.200;000.174;66;000.422;MIDI 01
270.914;000.415;55;000.281;MIDI 01
271.009;000.346;59;000.297;MIDI 01
271.085;000.286;64;000.438;MIDI 01
271.139;000.290;67;000.508;MIDI 01
270.657;000.997;40;000.320;MIDI 01
270.859;000.908;47;000.367;MIDI 01
271.012;000.762;52;000.438;MIDI 01
272.478;000.268;94;000.477;MIDI 01
272.474;000.463;64;000.477;MIDI 01
271.970;001.003;91;000.312;MIDI 01
272.901;000.074;59;000.492;MIDI 01
272.911;000.083;89;000.398;MIDI 01
272.566;000.442;90;000.180;MIDI 01
271.926;001.305;95;000.500;MIDI 01
272.927;000.391;93;000.484;MIDI 01
273.286;000.066;91;000.531;MIDI 01
273.316;000.299;83;000.383;MIDI 01
273.312;000.312;28;000.406;MIDI 01
273.625;000.033;40;000.406;MIDI 01
273.635;000.377;82;000.391;MIDI 01
273.618;000.480;83;000.133;MIDI 01
273.915;000.331;81;000.461;MIDI 01
273.894;000.409;47;000.398;MIDI 01
274.189;000.258;79;000.500;MIDI 01
274.457;000.040;78;000.484;MIDI 01
274.451;000.075;82;000.516;MIDI 01
274.186;000.617;52;000.461;MIDI 01
274.712;000.244;81;000.453;MIDI 01
274.721;000.253;77;000.391;MIDI 01
274.970;000.050;79;000.430;MIDI 01
274.968;000.223;47;000.344;MIDI 01
275.005;000.188;71;000.359;MIDI 01
274.445;000.997;59;000.445;MIDI 01
275.553;000.439;69;000.406;MIDI 01
275.251;000.988;52;000.422;MIDI 01
275.889;000.368;68;000.383;MIDI 01
275.271;001.083;70;000.422;MIDI 01
275.897;000.492;58;000.297;MIDI 01
276.259;001.021;67;000.398;MIDI 01
276.788;000.703;61;000.258;MIDI 01
275.284;002.449;71;000.055;MIDI 01
277.337;000.626;66;000.117;MIDI 01
277.290;000.747;70;000.344;MIDI 01
277.315;000.771;62;000.289;MIDI 01
276.279;002.203;59;000.297;MIDI 01
277.961;000.523;65;000.258;MIDI 01
277.969;000.544;69;000.344;MIDI 01
277.971;000.611;63;000.312;MIDI 01
279.232;000.066;72;000.234;MIDI 01
279.217;000.634;64;000.305;MIDI 01
279.206;000.654;67;000.391;MIDI 01
279.209;000.741;60;000.328;MIDI 01
280.110;000.055;66;000.305;MIDI 01
280.077;000.142;75;000.484;MIDI 01
279.179;001.041;76;000.547;MIDI 01
280.100;000.162;63;000.344;MIDI 01
280.098;000.226;59;000.375;MIDI 01
280.336;000.258;62;000.391;MIDI 01
280.323;000.284;65;000.383;MIDI 01
280.327;000.505;57;000.352;MIDI 01
280.303;000.557;74;000.508;MIDI 01
280.836;000.072;67;000.188;MIDI 01
280.793;000.328;72;000.414;MIDI 01
280.822;000.322;60;000.352;MIDI 01
280.832;000.320;64;000.312;MIDI 01
280.774;000.450;76;000.516;MIDI 01
281.682;000.403;36;000.227;MIDI 01
282.070;000.197;43;000.297;MIDI 01
281.653;000.796;83;000.297;MIDI 01
282.375;000.077;79;000.344;MIDI 01
282.075;000.379;82;000.344;MIDI 01
282.421;000.057;76;000.352;MIDI 01
282.369;000.257;52;000.320;MIDI 01
282.668;000.166;78;000.438;MIDI 01
282.954;000.059;71;000.438;MIDI 01
282.683;000.343;43;000.367;MIDI 01
282.991;000.223;67;000.227;MIDI 01
283.259;000.073;66;000.250;MIDI 01
283.242;000.260;52;000.344;MIDI 01
283.567;000.113;64;000.297;MIDI 01
283.234;000.483;70;000.398;MIDI 01
283.545;000.351;67;000.367;MIDI 01
283.565;000.344;59;000.328;MIDI 01
283.893;000.055;66;000.383;MIDI 01
283.896;000.068;58;000.328;MIDI 01
284.675;000.167;55;000.195;MIDI 01
284.673;000.564;52;000.281;MIDI 01
284.617;000.942;64;000.422;MIDI 01
284.650;000.918;60;000.336;MIDI 01
285.532;000.075;54;000.281;MIDI 01
285.472;000.151;63;000.375;MIDI 01
284.678;000.979;48;000.289;MIDI 01
285.545;000.201;47;000.305;MIDI 01
285.769;000.255;53;000.305;MIDI 01
285.758;000.569;45;000.359;MIDI 01
285.730;000.705;62;000.414;MIDI 01
286.345;000.403;48;000.305;MIDI 01
286.341;000.425;52;000.281;MIDI 01
286.323;000.469;60;000.367;MIDI 01
286.326;000.500;64;000.336;MIDI 01
286.346;000.557;55;000.164;MIDI 01
287.441;000.484;59;000.297;MIDI 01
287.467;000.606;36;000.219;MIDI 01
287.915;000.345;43;000.211;MIDI 01
287.889;000.394;58;000.219;MIDI 01
288.265;000.368;47;000.180;MIDI 01
288.255;000.403;55;000.258;MIDI 01
288.577;000.280;54;000.273;MIDI 01
288.615;000.367;46;000.258;MIDI 01
288.980;000.397;43;000.172;MIDI 01
289.353;000.452;42;000.250;MIDI 01
288.925;000.938;47;000.359;MIDI 01
289.808;000.785;39;000.250;MIDI 01
289.806;001.151;46;000.250;MIDI 01
290.459;000.865;40;000.258;MIDI 01
291.323;000.293;30;000.273;MIDI 01
292.114;000.409;42;000.312;MIDI 01
292.491;000.486;52;000.305;MIDI 01
292.940;000.481;58;000.336;MIDI 01
293.278;000.163;59;000.312;MIDI 01
293.509;000.151;60;000.352;MIDI 01
293.705;000.158;61;000.391;MIDI 01
293.913;000.171;58;000.398;MIDI 01
292.891;001.493;76;000.508;MIDI 01
294.327;000.101;74;000.469;MIDI 01
294.116;000.583;64;000.406;MIDI 01
294.554;000.186;66;000.367;MIDI 01
294.989;000.066;66;000.172;MIDI 01
294.790;000.376;76;000.492;MIDI 01
295.128;000.085;64;000.336;MIDI 01
295.370;000.082;58;000.328;MIDI 01
294.849;000.779;67;000.086;MIDI 01
295.535;000.273;66;000.438;MIDI 01
295.870;000.068;49;000.281;MIDI 01
296.019;000.051;42;000.352;MIDI 01
296.190;000.034;58;000.320;MIDI 01
295.192;001.047;73;000.484;MIDI 01
295.850;000.426;64;000.406;MIDI 01
296.327;000.157;52;000.398;MIDI 01
296.242;000.275;73;000.031;MIDI 01
296.544;000.105;59;000.414;MIDI 01
296.762;000.272;62;000.352;MIDI 01
296.526;000.569;71;000.523;MIDI 01
297.033;000.223;63;000.375;MIDI 01
297.266;000.298;64;000.367;MIDI 01
297.696;000.070;54;000.367;MIDI 01
297.881;000.252;67;000.391;MIDI 01
298.034;000.201;64;000.445;MIDI 01
297.501;000.793;70;000.469;MIDI 01
297.014;001.292;73;000.531;MIDI 01
297.516;000.982;61;000.375;MIDI 01
298.434;000.413;73;000.523;MIDI 01
298.233;000.648;65;000.469;MIDI 01
298.911;000.171;67;000.430;MIDI 01
299.065;000.143;62;000.438;MIDI 01
298.600;000.622;70;000.445;MIDI 01
298.755;000.521;66;000.422;MIDI 01
299.423;000.277;73;000.461;MIDI 01
299.217;000.584;64;000.484;MIDI 01
299.566;000.403;70;000.359;MIDI 01
299.829;000.184;67;000.320;MIDI 01
299.993;000.141;62;000.281;MIDI 01
299.720;000.475;66;000.344;MIDI 01
300.911;000.165;67;000.258;MIDI 01
300.136;001.075;63;000.500;MIDI 01
301.132;000.107;61;000.281;MIDI 01
300.352;001.124;73;000.414;MIDI 01
300.718;001.023;66;000.273;MIDI 01
300.547;001.269;70;000.344;MIDI 01
301.495;000.597;62;000.344;MIDI 01
301.816;000.315;42;000.266;MIDI 01
302.070;000.148;50;000.305;MIDI 01
302.315;000.165;59;000.359;MIDI 01
302.319;000.268;74;000.469;MIDI 01
302.554;000.245;66;000.375;MIDI 01
302.555;000.288;69;000.375;MIDI 01
302.705;000.176;50;000.406;MIDI 01
302.885;000.166;59;000.367;MIDI 01
303.059;000.049;62;000.414;MIDI 01
303.031;000.216;73;000.461;MIDI 01
303.229;000.131;67;000.367;MIDI 01
303.383;000.083;59;000.461;MIDI 01
303.226;000.307;64;000.367;MIDI 01
303.617;000.057;67;000.406;MIDI 01
303.526;000.167;50;000.445;MIDI 01
303.615;000.106;71;000.383;MIDI 01
303.717;000.040;66;000.297;MIDI 01
303.779;000.134;62;000.469;MIDI 01
303.765;000.152;42;000.430;MIDI 01
303.922;000.043;69;000.469;MIDI 01
303.938;000.164;50;000.359;MIDI 01
303.899;000.242;66;000.445;MIDI 01
304.084;000.128;64;000.453;MIDI 01
304.093;000.203;58;000.469;MIDI 01
304.264;000.167;50;000.391;MIDI 01
304.105;000.328;61;000.445;MIDI 01
304.456;000.183;42;000.453;MIDI 01
304.594;000.064;64;000.312;MIDI 01
304.603;000.091;50;000.398;MIDI 01
304.576;000.170;67;000.508;MIDI 01
304.756;000.153;62;000.461;MIDI 01
304.754;000.173;57;000.461;MIDI 01
304.921;000.146;50;000.445;MIDI 01
304.760;000.416;59;000.391;MIDI 01
305.077;000.175;42;000.453;MIDI 01
305.215;000.070;61;000.414;MIDI 01
305.233;000.084;50;000.367;MIDI 01
305.230;000.255;66;000.477;MIDI 01
305.414;000.125;58;000.383;MIDI 01
305.419;000.176;61;000.453;MIDI 01
305.348;000.299;55;000.453;MIDI 01
305.599;000.107;64;000.469;MIDI 01
305.582;000.305;50;000.398;MIDI 01
305.894;000.058;53;000.328;MIDI 01
305.873;000.199;59;000.422;MIDI 01
305.889;000.186;43;000.352;MIDI 01
306.062;000.192;50;000.383;MIDI 01
306.246;000.062;53;000.477;MIDI 01
306.384;000.033;59;000.461;MIDI 01
306.478;000.110;62;000.484;MIDI 01
306.597;000.042;64;000.508;MIDI 01
306.710;000.119;65;000.484;MIDI 01
306.732;000.151;81;000.469;MIDI 01
306.722;000.174;89;000.539;MIDI 01
306.852;000.076;88;000.430;MIDI 01
306.910;000.069;87;000.477;MIDI 01
306.839;000.164;67;000.477;MIDI 01
306.975;000.067;68;000.445;MIDI 01
307.064;000.031;77;000.438;MIDI 01
307.061;000.145;69;000.438;MIDI 01
307.067;000.151;86;000.477;MIDI 01
307.074;000.208;65;000.391;MIDI 01
307.178;000.106;81;000.594;MIDI 01
307.274;000.059;77;000.531;MIDI 01
307.385;000.080;74;000.492;MIDI 01
307.486;000.072;73;000.508;MIDI 01
307.567;000.106;72;000.555;MIDI 01
307.709;000.051;71;000.469;MIDI 01
307.643;000.180;62;000.422;MIDI 01
307.699;000.167;77;000.523;MIDI 01
307.867;000.028;70;000.328;MIDI 01
307.827;000.141;61;000.367;MIDI 01
307.891;000.107;69;000.461;MIDI 01
307.990;000.031;59;000.352;MIDI 01
308.005;000.049;68;000.484;MIDI 01
308.032;000.023;74;000.367;MIDI 01
308.197;000.045;77;000.391;MIDI 01
308.190;000.057;76;000.406;MIDI 01
308.272;000.050;79;000.406;MIDI 01
308.306;000.036;77;000.344;MIDI 01
308.383;000.026;76;000.367;MIDI 01
308.413;000.070;75;000.586;MIDI 01
308.415;000.132;68;000.469;MIDI 01
308.511;000.113;74;000.492;MIDI 01
308.586;000.047;65;000.266;MIDI 01
308.512;000.156;80;000.547;MIDI 01
308.640;000.049;63;000.391;MIDI 01
308.637;000.104;73;000.547;MIDI 01
308.708;000.086;72;000.469;MIDI 01
308.823;000.042;71;000.500;MIDI 01
308.829;000.121;77;000.531;MIDI 01
308.960;000.031;70;000.500;MIDI 01
308.928;000.116;62;000.445;MIDI 01
309.026;000.066;69;000.523;MIDI 01
309.076;000.125;59;000.367;MIDI 01
309.241;000.097;56;000.422;MIDI 01
309.272;000.076;63;000.406;MIDI 01
309.395;000.055;62;000.438;MIDI 01
309.493;000.099;61;000.477;MIDI 01
309.417;000.201;52;000.344;MIDI 01
309.149;000.527;68;000.539;MIDI 01
309.605;000.072;60;000.438;MIDI 01
309.622;000.169;51;000.367;MIDI 01
309.708;000.211;59;000.453;MIDI 01
309.827;000.256;50;000.414;MIDI 01
310.068;000.035;43;000.414;MIDI 01
309.845;000.357;65;000.523;MIDI 01
310.373;000.057;52;000.133;MIDI 01
310.325;000.257;50;000.367;MIDI 01
310.863;000.260;66;000.422;MIDI 01
310.865;000.317;62;000.445;MIDI 01
311.180;000.208;67;000.539;MIDI 01
310.579;000.868;59;000.469;MIDI 01
310.530;001.051;80;000.617;MIDI 01
311.393;000.393;62;000.477;MIDI 01
311.581;000.273;66;000.555;MIDI 01
312.115;000.272;67;000.492;MIDI 01
311.804;000.736;59;000.367;MIDI 01
312.310;000.239;68;000.555;MIDI 01
311.891;000.885;79;000.625;MIDI 01
312.516;000.275;62;000.438;MIDI 01
312.688;000.490;67;000.617;MIDI 01
313.261;000.052;68;000.469;MIDI 01
312.881;000.657;58;000.523;MIDI 01
313.486;000.328;69;000.594;MIDI 01
313.029;000.874;78;000.656;MIDI 01
313.980;000.242;68;000.586;MIDI 01
313.756;000.474;62;000.461;MIDI 01
314.221;000.255;59;000.469;MIDI 01
314.762;000.278;67;000.391;MIDI 01
315.133;000.329;43;000.359;MIDI 01
314.424;001.043;77;000.531;MIDI 01
315.669;000.213;55;000.453;MIDI 01
315.467;000.420;51;000.406;MIDI 01
315.872;000.047;60;000.453;MIDI 01
316.073;000.231;70;000.367;MIDI 01
315.849;000.476;75;000.508;MIDI 01
316.071;000.267;67;000.391;MIDI 01
316.254;000.207;63;000.500;MIDI 01
316.401;000.149;60;000.391;MIDI 01
316.547;000.044;51;000.391;MIDI 01
316.600;000.081;70;000.289;MIDI 01
316.558;000.216;74;000.500;MIDI 01
316.711;000.099;70;000.234;MIDI 01
316.742;000.144;68;000.430;MIDI 01
316.740;000.222;65;000.383;MIDI 01
316.893;000.117;60;000.500;MIDI 01
317.126;000.120;72;000.484;MIDI 01
317.026;000.275;51;000.453;MIDI 01
317.173;000.148;68;000.383;MIDI 01
317.336;000.054;63;000.406;MIDI 01
317.292;000.122;67;000.500;MIDI 01
317.293;000.203;43;000.375;MIDI 01
317.444;000.129;70;000.539;MIDI 01
317.493;000.155;51;000.367;MIDI 01
317.637;000.163;59;000.547;MIDI 01
317.617;000.207;65;000.547;MIDI 01
317.811;000.118;51;000.484;MIDI 01
317.943;000.094;43;000.500;MIDI 01
317.627;000.453;62;000.469;MIDI 01
318.120;000.083;65;000.164;MIDI 01
318.077;000.147;68;000.484;MIDI 01
318.094;000.180;51;000.438;MIDI 01
318.250;000.105;58;000.516;MIDI 01
318.233;000.170;63;000.484;MIDI 01
318.421;000.134;51;000.531;MIDI 01
318.262;000.319;60;000.461;MIDI 01
318.582;000.125;43;000.484;MIDI 01
318.698;000.069;63;000.414;MIDI 01
318.723;000.181;51;000.461;MIDI 01
318.697;000.259;67;000.438;MIDI 01
318.898;000.062;56;000.453;MIDI 01
318.872;000.133;62;000.484;MIDI 01
319.042;000.037;50;000.406;MIDI 01
318.882;000.221;59;000.445;MIDI 01
319.043;000.290;65;000.469;MIDI 01
319.348;000.073;54;000.438;MIDI 01
319.332;000.163;60;000.484;MIDI 01
319.335;000.245;32;000.469;MIDI 01
319.584;000.033;44;000.516;MIDI 01
319.993;000.026;78;000.414;MIDI 01
319.847;000.181;51;000.344;MIDI 01
320.009;000.034;60;000.359;MIDI 01
319.980;000.093;81;000.492;MIDI 01
319.816;000.262;54;000.438;MIDI 01
320.031;000.337;51;000.031;MIDI 01
320.232;000.209;57;000.352;MIDI 01
320.221;000.238;54;000.422;MIDI 01
320.230;000.243;61;000.461;MIDI 01
320.456;000.053;52;000.430;MIDI 01
320.223;000.291;69;000.445;MIDI 01
320.211;000.308;76;000.586;MIDI 01
320.224;000.332;73;000.445;MIDI 01
320.680;000.051;44;000.586;MIDI 01
320.736;000.065;76;000.078;MIDI 01
320.684;000.124;80;000.594;MIDI 01
320.958;000.089;63;000.438;MIDI 01
320.932;000.174;60;000.492;MIDI 01
320.928;000.236;75;000.594;MIDI 01
320.944;000.224;56;000.461;MIDI 01
320.943;000.253;72;000.484;MIDI 01
320.948;000.258;68;000.477;MIDI 01
321.154;000.057;54;000.500;MIDI 01
321.373;000.036;75;000.484;MIDI 01
321.373;000.039;44;000.562;MIDI 01
321.377;000.077;78;000.539;MIDI 01
321.676;000.041;62;000.266;MIDI 01
321.620;000.109;64;000.500;MIDI 01
321.618;000.116;67;000.508;MIDI 01
321.640;000.154;61;000.180;MIDI 01
321.610;000.184;73;000.516;MIDI 01
321.795;000.057;55;000.516;MIDI 01
321.790;000.171;77;000.523;MIDI 01
321.808;000.226;74;000.484;MIDI 01
322.001;000.046;57;000.367;MIDI 01
322.047;000.060;55;000.180;MIDI 01
322.029;000.098;52;000.336;MIDI 01
322.028;000.121;53;000.414;MIDI 01
322.154;000.077;45;000.594;MIDI 01
322.314;000.079;45;000.531;MIDI 01
322.433;000.035;33;000.555;MIDI 01
322.444;000.051;76;000.547;MIDI 01
321.980;000.530;69;000.531;MIDI 01
321.977;000.549;65;000.492;MIDI 01
321.973;000.567;72;000.570;MIDI 01
322.677;000.146;58;000.547;MIDI 01
322.696;000.130;55;000.383;MIDI 01
322.660;000.495;67;000.500;MIDI 01
322.989;000.182;45;000.594;MIDI 01
323.123;000.071;74;000.578;MIDI 01
322.659;000.540;64;000.484;MIDI 01
323.171;000.035;55;000.500;MIDI 01
322.652;000.594;70;000.547;MIDI 01
323.353;000.066;60;000.586;MIDI 01
323.375;000.065;65;000.461;MIDI 01
323.356;000.122;63;000.562;MIDI 01
323.355;000.154;69;000.539;MIDI 01
323.347;000.165;53;000.492;MIDI 01
323.523;000.031;45;000.547;MIDI 01
323.518;000.295;72;000.586;MIDI 01
323.728;000.110;62;000.531;MIDI 01
323.734;000.140;65;000.477;MIDI 01
323.718;000.186;68;000.562;MIDI 01
323.736;000.195;34;000.602;MIDI 01
323.943;000.040;46;000.484;MIDI 01
324.274;000.054;62;000.500;MIDI 01
324.277;000.070;80;000.562;MIDI 01
324.128;000.227;56;000.508;MIDI 01
324.136;000.241;53;000.422;MIDI 01
324.272;000.118;83;000.602;MIDI 01
324.503;000.204;63;000.555;MIDI 01
324.508;000.252;56;000.570;MIDI 01
324.499;000.275;59;000.445;MIDI 01
324.708;000.105;54;000.516;MIDI 01
324.505;000.350;71;000.484;MIDI 01
324.494;000.416;75;000.555;MIDI 01
324.485;000.435;78;000.586;MIDI 01
324.931;000.057;46;000.562;MIDI 01
324.954;000.127;82;000.609;MIDI 01
325.188;000.093;65;000.594;MIDI 01
325.178;000.139;62;000.594;MIDI 01
325.182;000.205;58;000.555;MIDI 01
325.383;000.051;56;000.500;MIDI 01
325.185;000.382;77;000.625;MIDI 01
325.193;000.384;70;000.602;MIDI 01
325.198;000.381;74;000.531;MIDI 01
325.549;000.032;46;000.617;MIDI 01
325.555;000.079;80;000.625;MIDI 01
325.730;000.049;66;000.570;MIDI 01
325.733;000.055;63;000.523;MIDI 01
325.777;000.028;64;000.367;MIDI 01
325.727;000.095;69;000.547;MIDI 01
325.765;000.092;71;000.281;MIDI 01
325.731;000.156;75;000.578;MIDI 01
325.884;000.056;71;000.219;MIDI 01
325.881;000.061;57;000.523;MIDI 01
325.904;000.113;79;000.578;MIDI 01
325.916;000.151;76;000.570;MIDI 01
326.065;000.075;59;000.570;MIDI 01
326.094;000.058;53;000.398;MIDI 01
326.078;000.144;55;000.508;MIDI 01
326.232;000.066;47;000.609;MIDI 01
326.071;000.315;67;000.609;MIDI 01
326.077;000.348;71;000.547;MIDI 01
326.067;000.360;74;000.617;MIDI 01
326.374;000.077;47;000.555;MIDI 01
326.481;000.038;35;000.578;MIDI 01
326.495;000.085;78;000.570;MIDI 01
326.709;000.136;57;000.570;MIDI 01
326.711;000.153;60;000.586;MIDI 01
326.692;000.271;66;000.602;MIDI 01
326.690;000.385;72;000.602;MIDI 01
327.010;000.131;47;000.609;MIDI 01
326.700;000.447;69;000.547;MIDI 01
327.175;000.060;76;000.594;MIDI 01
327.183;000.067;69;000.031;MIDI 01
327.396;000.001;56;000.148;MIDI 01
327.346;000.076;62;000.656;MIDI 01
327.350;000.097;65;000.570;MIDI 01
327.348;000.145;71;000.602;MIDI 01
327.341;000.172;55;000.336;MIDI 01
327.517;000.027;47;000.477;MIDI 01
327.353;000.226;67;000.508;MIDI 01
327.521;000.128;74;000.602;MIDI 01
327.686;000.077;64;000.562;MIDI 01
327.689;000.097;67;000.555;MIDI 01
327.678;000.143;70;000.641;MIDI 01
327.673;000.166;36;000.625;MIDI 01
327.857;000.028;48;000.562;MIDI 01
328.026;000.082;55;000.500;MIDI 01
328.023;000.086;58;000.539;MIDI 01
328.177;000.046;64;000.539;MIDI 01
328.177;000.059;82;000.594;MIDI 01
328.170;000.090;85;000.680;MIDI 01
328.389;000.046;76;000.438;MIDI 01
328.374;000.149;65;000.633;MIDI 01
328.364;000.238;61;000.625;MIDI 01
328.383;000.223;58;000.617;MIDI 01
328.372;000.277;73;000.602;MIDI 01
328.570;000.093;56;000.594;MIDI 01
328.355;000.369;80;000.648;MIDI 01
328.377;000.354;77;000.438;MIDI 01
328.799;000.029;47;000.492;MIDI 01
328.802;000.033;48;000.547;MIDI 01
328.795;000.096;84;000.656;MIDI 01
329.031;000.147;67;000.633;MIDI 01
329.023;000.210;64;000.633;MIDI 01
329.024;000.231;60;000.570;MIDI 01
329.216;000.091;58;000.594;MIDI 01
329.018;000.339;79;000.680;MIDI 01
329.027;000.374;72;000.625;MIDI 01
329.028;000.394;76;000.625;MIDI 01
329.430;000.029;47;000.531;MIDI 01
329.429;000.042;48;000.508;MIDI 01
329.421;000.096;82;000.633;MIDI 01
329.615;000.105;70;000.562;MIDI 01
329.627;000.096;68;000.562;MIDI 01
329.611;000.144;73;000.594;MIDI 01
329.620;000.173;77;000.586;MIDI 01
329.625;000.171;65;000.484;MIDI 01
329.621;000.186;61;000.539;MIDI 01
329.785;000.076;80;000.586;MIDI 01
329.778;000.108;58;000.609;MIDI 01
329.971;000.062;70;000.664;MIDI 01
329.977;000.132;61;000.406;MIDI 01
329.959;000.159;60;000.430;MIDI 01
329.964;000.159;64;000.531;MIDI 01
330.133;000.062;55;000.672;MIDI 01
329.943;000.286;67;000.578;MIDI 01
329.952;000.291;72;000.547;MIDI 01
330.275;000.066;58;000.547;MIDI 01
329.934;000.481;76;000.602;MIDI 01
330.416;000.051;48;000.586;MIDI 01
330.413;000.068;79;000.555;MIDI 01
330.427;000.059;72;000.148;MIDI 01
330.609;000.018;71;000.625;MIDI 01
330.611;000.184;61;000.641;MIDI 01
330.769;000.084;56;000.625;MIDI 01
330.602;000.301;65;000.555;MIDI 01
330.915;000.079;60;000.586;MIDI 01
330.930;000.091;59;000.609;MIDI 01
330.591;000.507;73;000.680;MIDI 01
331.071;000.048;48;000.656;MIDI 01
331.093;000.105;77;000.609;MIDI 01
331.311;000.087;70;000.617;MIDI 01
331.301;000.171;64;000.477;MIDI 01
331.297;000.188;60;000.516;MIDI 01
331.292;000.262;72;000.688;MIDI 01
331.515;000.068;55;000.594;MIDI 01
331.302;000.326;67;000.602;MIDI 01
331.538;000.110;76;000.656;MIDI 01
331.882;000.113;64;000.617;MIDI 01
331.878;000.146;28;000.648;MIDI 01
331.883;000.159;67;000.617;MIDI 01
331.880;000.200;71;000.680;MIDI 01
331.874;000.207;40;000.664;MIDI 01
332.286;000.057;82;000.180;MIDI 01
332.247;000.131;76;000.617;MIDI 01
332.231;000.188;85;000.664;MIDI 01
332.467;000.108;40;000.461;MIDI 01
332.533;000.049;80;000.258;MIDI 01
332.462;000.207;47;000.578;MIDI 01
332.652;000.048;52;000.570;MIDI 01
332.480;000.221;75;000.555;MIDI 01
332.483;000.244;79;000.539;MIDI 01
332.671;000.205;83;000.609;MIDI 01
332.681;000.200;74;000.555;MIDI 01
332.885;000.049;74;000.133;MIDI 01
332.901;000.051;53;000.375;MIDI 01
332.932;000.065;48;000.289;MIDI 01
332.908;000.110;52;000.477;MIDI 01
332.906;000.161;47;000.438;MIDI 01
332.886;000.199;75;000.469;MIDI 01
332.890;000.198;59;000.586;MIDI 01
332.892;000.210;78;000.562;MIDI 01
333.071;000.082;74;000.625;MIDI 01
333.074;000.096;81;000.617;MIDI 01
333.247;000.194;73;000.539;MIDI 01
333.257;000.206;76;000.594;MIDI 01
333.430;000.076;72;000.594;MIDI 01
333.432;000.158;79;000.578;MIDI 01
333.591;000.136;64;000.531;MIDI 01
333.599;000.128;74;000.562;MIDI 01
333.583;000.152;71;000.633;MIDI 01
333.589;000.164;59;000.570;MIDI 01
333.790;000.123;78;000.594;MIDI 01
333.805;000.134;70;000.578;MIDI 01
333.941;000.183;73;000.539;MIDI 01
333.944;000.184;69;000.484;MIDI 01
334.117;000.104;68;000.594;MIDI 01
334.104;000.168;76;000.641;MIDI 01
334.300;000.039;67;000.273;MIDI 01
334.270;000.073;59;000.586;MIDI 01
334.257;000.108;52;000.469;MIDI 01
334.285;000.080;71;000.586;MIDI 01
334.281;000.095;47;000.461;MIDI 01
334.520;000.113;76;000.570;MIDI 01
334.507;000.169;85;000.656;MIDI 01
334.753;000.110;52;000.539;MIDI 01
334.756;000.139;47;000.531;MIDI 01
334.745;000.159;79;000.594;MIDI 01
334.739;000.172;75;000.562;MIDI 01
334.766;000.191;40;000.492;MIDI 01
334.902;000.144;83;000.602;MIDI 01
334.914;000.203;74;000.578;MIDI 01
335.066;000.122;75;000.586;MIDI 01
335.064;000.152;78;000.609;MIDI 01
335.203;000.073;74;000.539;MIDI 01
335.215;000.070;81;000.594;MIDI 01
335.360;000.068;28;000.578;MIDI 01
335.363;000.079;35;000.602;MIDI 01
335.342;000.104;76;000.641;MIDI 01
335.337;000.111;73;000.602;MIDI 01
335.358;000.108;40;000.641;MIDI 01
335.520;000.034;72;000.391;MIDI 01
335.459;000.098;79;000.516;MIDI 01
335.607;000.079;74;000.523;MIDI 01
335.603;000.092;71;000.555;MIDI 01
335.760;000.028;70;000.492;MIDI 01
335.735;000.070;78;000.523;MIDI 01
335.871;000.055;40;000.516;MIDI 01
335.874;000.075;47;000.508;MIDI 01
335.852;000.103;73;000.547;MIDI 01
335.867;000.107;69;000.445;MIDI 01
335.953;000.044;52;000.312;MIDI 01
335.979;000.054;76;000.578;MIDI 01
336.025;000.102;68;000.375;MIDI 01
336.115;000.032;59;000.656;MIDI 01
336.133;000.029;47;000.375;MIDI 01
336.131;000.041;52;000.438;MIDI 01
336.124;000.049;71;000.508;MIDI 01
336.127;000.047;53;000.508;MIDI 01
336.123;000.051;70;000.344;MIDI 01
336.166;000.035;73;000.227;MIDI 01
336.178;000.045;48;000.242;MIDI 01
336.241;000.110;66;000.602;MIDI 01
336.352;000.041;68;000.531;MIDI 01
336.464;000.029;74;000.359;MIDI 01
336.477;000.036;66;000.570;MIDI 01
336.397;000.125;73;000.484;MIDI 01
336.525;000.033;68;000.312;MIDI 01
336.611;000.058;66;000.297;MIDI 01
336.628;000.045;41;000.438;MIDI 01
336.599;000.079;64;000.547;MIDI 01
336.592;000.108;67;000.641;MIDI 01
336.595;000.151;31;000.641;MIDI 01
336.586;000.169;38;000.641;MIDI 01
336.597;000.205;43;000.641;MIDI 01
336.962;000.218;88;000.680;MIDI 01
336.970;000.227;78;000.695;MIDI 01
337.168;000.066;79;000.633;MIDI 01
337.145;000.167;43;000.570;MIDI 01
337.143;000.214;50;000.617;MIDI 01
337.173;000.194;83;000.602;MIDI 01
337.329;000.050;55;000.633;MIDI 01
337.342;000.088;78;000.633;MIDI 01
337.335;000.209;86;000.688;MIDI 01
337.517;000.036;82;000.664;MIDI 01
337.548;000.043;50;000.570;MIDI 01
337.562;000.030;57;000.523;MIDI 01
337.553;000.045;55;000.570;MIDI 01
337.545;000.055;62;000.711;MIDI 01
337.567;000.053;78;000.094;MIDI 01
337.539;000.170;76;000.555;MIDI 01
337.550;000.180;81;000.688;MIDI 01
337.707;000.072;78;000.586;MIDI 01
337.705;000.090;85;000.641;MIDI 01
337.752;000.047;82;000.188;MIDI 01
337.865;000.126;76;000.617;MIDI 01
337.880;000.140;79;000.602;MIDI 01
338.038;000.047;75;000.461;MIDI 01
338.007;000.175;83;000.617;MIDI 01
338.171;000.073;62;000.555;MIDI 01
338.163;000.087;67;000.602;MIDI 01
338.169;000.084;74;000.711;MIDI 01
338.188;000.148;78;000.633;MIDI 01
338.327;000.159;81;000.648;MIDI 01
338.342;000.148;73;000.625;MIDI 01
338.481;000.096;76;000.633;MIDI 01
338.486;000.161;72;000.594;MIDI 01
338.633;000.193;79;000.562;MIDI 01
338.767;000.062;71;000.648;MIDI 01
338.767;000.066;62;000.672;MIDI 01
338.648;000.184;70;000.547;MIDI 01
338.769;000.108;74;000.633;MIDI 01
338.764;000.116;55;000.641;MIDI 01
338.772;000.131;50;000.594;MIDI 01
339.044;000.086;78;000.648;MIDI 01
339.029;000.144;88;000.703;MIDI 01
339.209;000.067;79;000.648;MIDI 01
339.229;000.049;55;000.695;MIDI 01
339.219;000.084;50;000.664;MIDI 01
339.235;000.108;43;000.648;MIDI 01
339.216;000.140;83;000.641;MIDI 01
339.376;000.049;78;000.508;MIDI 01
339.354;000.136;86;000.625;MIDI 01
339.490;000.108;76;000.617;MIDI 01
339.500;000.149;81;000.602;MIDI 01
339.649;000.038;85;000.562;MIDI 01
339.620;000.070;78;000.555;MIDI 01
339.761;000.029;31;000.570;MIDI 01
339.759;000.043;38;000.648;MIDI 01
339.772;000.045;43;000.672;MIDI 01
339.747;000.072;76;000.602;MIDI 01
339.765;000.109;79;000.617;MIDI 01
339.870;000.087;75;000.617;MIDI 01
339.882;000.117;83;000.578;MIDI 01
339.995;000.062;74;000.641;MIDI 01
340.008;000.129;78;000.641;MIDI 01
340.131;000.093;73;000.609;MIDI 01
340.128;000.097;81;000.625;MIDI 01
340.219;000.061;43;000.539;MIDI 01
340.242;000.056;72;000.656;MIDI 01
340.224;000.078;50;000.547;MIDI 01
340.245;000.059;76;000.688;MIDI 01
340.290;000.035;55;000.578;MIDI 01
340.417;000.028;77;000.352;MIDI 01
340.365;000.093;79;000.555;MIDI 01
340.376;000.116;70;000.617;MIDI 01
340.468;000.029;62;000.680;MIDI 01
340.460;000.057;55;000.602;MIDI 01
340.482;000.036;50;000.492;MIDI 01
340.485;000.055;71;000.656;MIDI 01
340.491;000.128;74;000.641;MIDI 01
340.601;000.077;70;000.602;MIDI 01
340.607;000.119;78;000.672;MIDI 01
340.708;000.085;69;000.586;MIDI 01
340.733;000.103;73;000.633;MIDI 01
340.865;000.031;75;000.344;MIDI 01
340.844;000.126;76;000.609;MIDI 01
340.832;000.163;68;000.633;MIDI 01
340.945;000.060;67;000.688;MIDI 01
340.952;000.071;71;000.648;MIDI 01
340.959;000.131;35;000.672;MIDI 01
340.949;000.157;40;000.625;MIDI 01
340.964;000.167;47;000.719;MIDI 01
341.268;000.026;84;000.461;MIDI 01
341.245;000.049;86;000.500;MIDI 01
341.249;000.047;79;000.695;MIDI 01
341.226;000.073;91;000.711;MIDI 01
341.236;000.081;83;000.656;MIDI 01
341.482;000.079;78;000.688;MIDI 01
341.462;000.114;90;000.688;MIDI 01
341.473;000.145;81;000.617;MIDI 01
341.618;000.027;64;000.656;MIDI 01
341.615;000.042;59;000.617;MIDI 01
341.616;000.064;52;000.602;MIDI 01
341.741;000.062;76;000.695;MIDI 01
341.740;000.110;83;000.680;MIDI 01
341.741;000.130;88;000.711;MIDI 01
342.012;000.079;74;000.680;MIDI 01
342.016;000.084;86;000.664;MIDI 01
342.012;000.114;81;000.633;MIDI 01
342.022;000.134;78;000.539;MIDI 01
342.025;000.142;38;000.586;MIDI 01
342.019;000.186;43;000.617;MIDI 01
342.020;000.203;50;000.625;MIDI 01
342.286;000.042;73;000.656;MIDI 01
342.302;000.039;75;000.367;MIDI 01
342.278;000.067;85;000.617;MIDI 01
342.294;000.052;76;000.539;MIDI 01
342.345;000.039;84;000.250;MIDI 01
342.495;000.073;71;000.656;MIDI 01
342.492;000.104;79;000.617;MIDI 01
342.484;000.114;83;000.633;MIDI 01
342.620;000.029;67;000.664;MIDI 01
342.615;000.044;62;000.602;MIDI 01
342.626;000.050;55;000.586;MIDI 01
342.760;000.082;69;000.617;MIDI 01
342.769;000.084;73;000.523;MIDI 01
342.750;000.114;81;000.672;MIDI 01
342.745;000.147;78;000.648;MIDI 01
343.028;000.027;69;000.523;MIDI 01
343.032;000.025;72;000.547;MIDI 01
343.021;000.040;67;000.547;MIDI 01
343.016;000.057;71;000.547;MIDI 01
343.091;000.002;45;000.148;MIDI 01
343.021;000.078;74;000.648;MIDI 01
343.020;000.104;79;000.672;MIDI 01
343.024;000.121;35;000.672;MIDI 01
343.023;000.130;40;000.656;MIDI 01
343.019;000.159;47;000.727;MIDI 01
343.294;000.036;79;000.664;MIDI 01
343.285;000.060;91;000.734;MIDI 01
343.288;000.086;86;000.695;MIDI 01
343.283;000.092;83;000.680;MIDI 01
343.489;000.108;90;000.703;MIDI 01
343.506;000.093;78;000.641;MIDI 01
343.498;000.135;81;000.609;MIDI 01
343.614;000.035;64;000.672;MIDI 01
343.617;000.050;59;000.633;MIDI 01
343.611;000.078;52;000.578;MIDI 01
343.746;000.084;76;000.711;MIDI 01
343.742;000.113;88;000.695;MIDI 01
343.744;000.124;83;000.648;MIDI 01
344.042;000.043;79;000.539;MIDI 01
344.029;000.077;74;000.641;MIDI 01
344.025;000.122;86;000.641;MIDI 01
344.024;000.128;77;000.648;MIDI 01
344.034;000.122;81;000.523;MIDI 01
344.019;000.152;38;000.641;MIDI 01
344.014;000.166;43;000.648;MIDI 01
344.019;000.175;50;000.680;MIDI 01
344.305;000.086;72;000.648;MIDI 01
344.297;000.097;84;000.672;MIDI 01
344.292;000.117;76;000.695;MIDI 01
344.304;000.108;79;000.625;MIDI 01
344.546;000.128;83;000.703;MIDI 01
344.541;000.156;71;000.656;MIDI 01
344.539;000.175;77;000.641;MIDI 01
344.544;000.199;74;000.664;MIDI 01
344.690;000.059;67;000.695;MIDI 01
344.686;000.086;62;000.633;MIDI 01
344.689;000.100;55;000.625;MIDI 01
344.826;000.135;81;000.742;MIDI 01
344.842;000.147;74;000.562;MIDI 01
344.835;000.202;69;000.688;MIDI 01
344.844;000.223;72;000.484;MIDI 01
345.180;000.065;67;000.664;MIDI 01
345.216;000.045;69;000.328;MIDI 01
345.231;000.039;72;000.211;MIDI 01
345.172;000.100;75;000.648;MIDI 01
345.169;000.111;79;000.672;MIDI 01
345.184;000.296;43;000.664;MIDI 01
345.186;000.316;48;000.703;MIDI 01
345.461;000.047;90;000.227;MIDI 01
345.182;000.335;36;000.680;MIDI 01
345.534;000.262;82;000.719;MIDI 01
345.536;000.294;94;000.688;MIDI 01
345.512;000.333;90;000.312;MIDI 01
345.759;000.098;87;000.531;MIDI 01
345.889;000.026;87;000.336;MIDI 01
345.872;000.065;90;000.445;MIDI 01
346.030;000.020;67;000.734;MIDI 01
345.878;000.189;81;000.711;MIDI 01
345.876;000.197;93;000.734;MIDI 01
346.016;000.076;60;000.664;MIDI 01
346.028;000.068;55;000.625;MIDI 01
346.050;000.058;90;000.281;MIDI 01
346.024;000.089;91;000.344;MIDI 01
346.087;000.044;58;000.219;MIDI 01
346.035;000.171;87;000.539;MIDI 01
346.210;000.030;89;000.414;MIDI 01
346.168;000.178;79;000.734;MIDI 01
346.175;000.206;91;000.625;MIDI 01
346.326;000.059;89;000.211;MIDI 01
346.346;000.051;87;000.461;MIDI 01
346.317;000.089;82;000.531;MIDI 01
346.504;000.002;33;000.344;MIDI 01
346.512;000.001;88;000.445;MIDI 01
346.490;000.036;87;000.539;MIDI 01
346.532;000.003;80;000.195;MIDI 01
346.485;000.073;89;000.695;MIDI 01
346.474;000.124;77;000.750;MIDI 01
346.472;000.177;31;000.648;MIDI 01
346.470;000.213;36;000.688;MIDI 01
346.468;000.241;43;000.727;MIDI 01
346.618;000.135;80;000.086;MIDI 01
346.782;000.154;75;000.703;MIDI 01
346.785;000.189;87;000.641;MIDI 01
346.946;000.055;82;000.539;MIDI 01
347.055;000.026;58;000.727;MIDI 01
347.058;000.067;46;000.633;MIDI 01
347.060;000.067;51;000.578;MIDI 01
347.087;000.062;72;000.562;MIDI 01
347.074;000.094;86;000.703;MIDI 01
347.085;000.166;74;000.547;MIDI 01
347.235;000.075;80;000.531;MIDI 01
347.415;000.002;78;000.469;MIDI 01
347.413;000.050;72;000.664;MIDI 01
347.432;000.050;79;000.562;MIDI 01
347.447;000.039;84;000.344;MIDI 01
347.467;000.038;83;000.219;MIDI 01
347.407;000.130;71;000.664;MIDI 01
347.425;000.243;46;000.672;MIDI 01
347.421;000.259;39;000.664;MIDI 01
347.424;000.263;51;000.727;MIDI 01
347.611;000.113;75;000.461;MIDI 01
347.551;000.240;79;000.414;MIDI 01
347.705;000.110;70;000.711;MIDI 01
347.702;000.127;82;000.641;MIDI 01
347.878;000.050;75;000.305;MIDI 01
347.942;000.064;69;000.688;MIDI 01
347.977;000.031;79;000.398;MIDI 01
347.935;000.085;81;000.688;MIDI 01
348.087;000.034;55;000.555;MIDI 01
348.094;000.035;60;000.430;MIDI 01
348.096;000.034;69;000.445;MIDI 01
348.079;000.055;48;000.602;MIDI 01
348.085;000.053;79;000.383;MIDI 01
348.099;000.047;72;000.586;MIDI 01
348.143;000.045;79;000.086;MIDI 01
348.231;000.071;75;000.641;MIDI 01
348.260;000.055;79;000.312;MIDI 01
348.234;000.090;67;000.688;MIDI 01
348.286;000.074;70;000.445;MIDI 01
348.310;000.071;37;000.195;MIDI 01
348.505;000.026;70;000.422;MIDI 01
348.477;000.062;65;000.703;MIDI 01
348.464;000.077;77;000.711;MIDI 01
348.483;000.164;31;000.664;MIDI 01
348.470;000.206;36;000.680;MIDI 01
348.480;000.245;43;000.742;MIDI 01
348.728;000.072;63;000.688;MIDI 01
348.726;000.077;75;000.688;MIDI 01
348.788;000.044;73;000.211;MIDI 01
348.955;000.040;73;000.367;MIDI 01
348.929;000.068;62;000.680;MIDI 01
348.921;000.079;74;000.727;MIDI 01
349.055;000.026;51;000.727;MIDI 01
349.051;000.067;46;000.664;MIDI 01
349.065;000.072;39;000.641;MIDI 01
349.191;000.062;72;000.750;MIDI 01
349.197;000.130;60;000.703;MIDI 01
349.540;000.028;58;000.641;MIDI 01
349.536;000.041;63;000.586;MIDI 01
349.532;000.060;67;000.602;MIDI 01
349.586;000.029;71;000.461;MIDI 01
349.525;000.092;70;000.680;MIDI 01
349.521;000.327;31;000.641;MIDI 01
349.534;000.322;36;000.711;MIDI 01
349.530;000.328;24;000.703;MIDI 01
349.910;000.212;82;000.781;MIDI 01
349.908;000.217;94;000.742;MIDI 01
349.906;000.222;91;000.555;MIDI 01
350.109;000.036;87;000.461;MIDI 01
350.222;000.057;81;000.773;MIDI 01
350.274;000.034;91;000.352;MIDI 01
350.220;000.103;93;000.711;MIDI 01
350.380;000.028;67;000.695;MIDI 01
350.381;000.069;55;000.602;MIDI 01
350.385;000.066;60;000.641;MIDI 01
350.215;000.270;89;000.758;MIDI 01
350.378;000.142;84;000.711;MIDI 01
350.575;000.088;89;000.352;MIDI 01
350.540;000.194;79;000.695;MIDI 01
350.530;000.204;91;000.688;MIDI 01
350.689;000.053;89;000.055;MIDI 01
350.539;000.239;87;000.703;MIDI 01
350.688;000.203;82;000.648;MIDI 01
350.845;000.142;89;000.695;MIDI 01
350.866;000.148;31;000.656;MIDI 01
350.848;000.182;77;000.773;MIDI 01
350.859;000.174;36;000.672;MIDI 01
350.851;000.203;86;000.727;MIDI 01
350.864;000.192;43;000.703;MIDI 01
350.977;000.122;82;000.469;MIDI 01
351.240;000.036;88;000.281;MIDI 01
351.232;000.048;80;000.195;MIDI 01
351.180;000.165;75;000.703;MIDI 01
351.175;000.194;87;000.758;MIDI 01
351.400;000.036;58;000.727;MIDI 01
351.402;000.061;51;000.633;MIDI 01
351.397;000.069;46;000.648;MIDI 01
351.356;000.166;82;000.539;MIDI 01
351.332;000.270;79;000.555;MIDI 01
351.517;000.172;74;000.672;MIDI 01
351.509;000.189;86;000.727;MIDI 01
351.666;000.042;82;000.586;MIDI 01
351.859;000.024;74;000.602;MIDI 01
351.843;000.055;72;000.703;MIDI 01
351.883;000.033;82;000.242;MIDI 01
351.837;000.114;84;000.695;MIDI 01
351.835;000.157;46;000.664;MIDI 01
351.841;000.194;51;000.680;MIDI 01
351.833;000.207;39;000.555;MIDI 01
351.834;000.230;79;000.727;MIDI 01
352.041;000.147;75;000.594;MIDI 01
352.175;000.145;70;000.688;MIDI 01
352.149;000.172;79;000.336;MIDI 01
352.174;000.152;82;000.531;MIDI 01
352.312;000.069;75;000.602;MIDI 01
352.431;000.072;69;000.750;MIDI 01
352.475;000.034;60;000.641;MIDI 01
352.429;000.103;81;000.719;MIDI 01
352.477;000.058;55;000.562;MIDI 01
352.482;000.054;48;000.539;MIDI 01
352.573;000.096;72;000.680;MIDI 01
352.728;000.078;79;000.578;MIDI 01
352.715;000.098;67;000.680;MIDI 01
352.777;000.050;69;000.211;MIDI 01
352.438;000.394;77;000.672;MIDI 01
352.696;000.151;75;000.633;MIDI 01
352.824;000.047;70;000.539;MIDI 01
352.996;000.001;67;000.312;MIDI 01
352.947;000.100;77;000.688;MIDI 01
352.960;000.087;74;000.625;MIDI 01
352.957;000.098;65;000.664;MIDI 01
352.951;000.218;31;000.656;MIDI 01
352.946;000.235;36;000.648;MIDI 01
352.953;000.254;43;000.703;MIDI 01
353.224;000.069;63;000.695;MIDI 01
353.230;000.096;67;000.484;MIDI 01
353.214;000.117;75;000.680;MIDI 01
353.473;000.040;67;000.523;MIDI 01
353.469;000.070;62;000.672;MIDI 01
353.460;000.092;74;000.695;MIDI 01
353.454;000.102;70;000.641;MIDI 01
353.409;000.155;44;000.211;MIDI 01
353.751;000.066;60;000.711;MIDI 01
353.742;000.084;72;000.719;MIDI 01
353.614;000.497;46;000.633;MIDI 01
353.609;000.532;39;000.609;MIDI 01
353.608;000.546;51;000.680;MIDI 01
354.078;000.094;58;000.648;MIDI 01
354.089;000.090;67;000.422;MIDI 01
354.067;000.146;70;000.617;MIDI 01
354.085;000.131;63;000.570;MIDI 01
354.433;000.146;57;000.523;MIDI 01
354.425;000.180;66;000.547;MIDI 01
354.435;000.192;54;000.500;MIDI 01
354.429;000.200;69;000.633;MIDI 01
354.759;000.085;63;000.641;MIDI 01
354.751;000.124;67;000.664;MIDI 01
354.757;000.124;55;000.617;MIDI 01
354.761;000.160;51;000.594;MIDI 01
355.043;000.083;53;000.641;MIDI 01
355.031;000.110;65;000.688;MIDI 01
355.045;000.099;49;000.695;MIDI 01
355.049;000.152;61;000.648;MIDI 01
355.345;000.079;58;000.680;MIDI 01
355.337;000.121;63;000.680;MIDI 01
355.339;000.134;51;000.656;MIDI 01
355.341;000.177;46;000.625;MIDI 01
355.643;000.082;50;000.672;MIDI 01
355.644;000.116;55;000.664;MIDI 01
355.644;000.118;62;000.664;MIDI 01
355.640;000.160;43;000.664;MIDI 01
355.959;000.105;61;000.703;MIDI 01
355.955;000.111;49;000.695;MIDI 01
355.972;000.103;54;000.664;MIDI 01
355.957;000.226;42;000.672;MIDI 01
356.297;000.102;57;000.695;MIDI 01
356.303;000.131;39;000.734;MIDI 01
356.300;000.229;45;000.680;MIDI 01
356.315;000.219;51;000.664;MIDI 01
356.701;000.102;49;000.711;MIDI 01
356.698;000.106;55;000.703;MIDI 01
356.703;000.228;43;000.711;MIDI 01
356.694;000.312;37;000.516;MIDI 01
357.113;000.119;53;000.703;MIDI 01
357.126;000.121;41;000.703;MIDI 01
357.122;000.129;48;000.695;MIDI 01
357.119;000.161;36;000.719;MIDI 01
357.632;000.093;46;000.766;MIDI 01
357.681;000.048;32;000.344;MIDI 01
357.627;000.119;39;000.766;MIDI 01
357.629;000.119;51;000.750;MIDI 01
357.631;000.155;34;000.688;MIDI 01
358.285;000.087;45;000.797;MIDI 01
358.281;000.118;49;000.734;MIDI 01
358.274;000.136;33;000.727;MIDI 01
358.279;000.135;37;000.734;MIDI 01
359.259;000.282;46;000.711;MIDI 01
359.254;000.352;58;000.719;MIDI 01
359.252;000.367;22;000.688;MIDI 01
359.257;000.377;34;000.742;MIDI 01
359.944;000.223;58;000.547;MIDI 01
359.952;000.218;53;000.508;MIDI 01
359.939;000.254;61;000.547;MIDI 01
359.942;000.267;65;000.570;MIDI 01
359.954;000.294;41;000.414;MIDI 01
359.956;000.306;46;000.445;MIDI 01
359.938;000.328;49;000.523;MIDI 01
360.550;000.033;70;000.633;MIDI 01
360.544;000.065;73;000.641;MIDI 01
360.545;000.085;77;000.641;MIDI 01
360.547;000.111;61;000.570;MIDI 01
360.545;000.116;53;000.492;MIDI 01
360.552;000.122;58;000.539;MIDI 01
360.547;000.293;65;000.586;MIDI 01
360.976;000.141;89;000.711;MIDI 01
360.972;000.157;92;000.734;MIDI 01
360.975;000.167;85;000.711;MIDI 01
360.979;000.181;80;000.766;MIDI 01
360.985;000.180;68;000.719;MIDI 01
360.993;000.175;65;000.664;MIDI 01
360.989;000.212;61;000.656;MIDI 01
360.991;000.244;56;000.656;MIDI 01
361.469;000.175;77;000.641;MIDI 01
361.474;000.193;73;000.578;MIDI 01
361.476;000.218;70;000.633;MIDI 01
361.482;000.225;65;000.648;MIDI 01
361.484;000.247;61;000.594;MIDI 01
361.486;000.269;58;000.586;MIDI 01
361.492;000.284;53;000.539;MIDI 01
362.118;000.042;58;000.570;MIDI 01
362.116;000.066;65;000.562;MIDI 01
362.109;000.079;61;000.570;MIDI 01
362.133;000.074;53;000.445;MIDI 01
362.125;000.093;49;000.508;MIDI 01
362.127;000.125;41;000.508;MIDI 01
362.121;000.133;46;000.523;MIDI 01
362.582;000.057;46;000.727;MIDI 01
362.608;000.046;25;000.492;MIDI 01
362.574;000.096;58;000.695;MIDI 01
362.578;000.098;22;000.734;MIDI 01
362.580;000.114;34;000.781;MIDI 01
363.040;000.036;89;000.695;MIDI 01
363.046;000.032;77;000.656;MIDI 01
363.042;000.073;82;000.680;MIDI 01
363.062;000.094;58;000.602;MIDI 01
363.065;000.117;61;000.641;MIDI 01
363.170;000.044;85;000.758;MIDI 01
363.179;000.035;73;000.805;MIDI 01
363.174;000.057;82;000.648;MIDI 01
363.160;000.376;65;000.742;MIDI 01
363.728;000.084;70;000.484;MIDI 01
363.508;000.436;64;000.742;MIDI 01
363.864;000.216;63;000.719;MIDI 01
364.055;000.204;66;000.484;MIDI 01
364.194;000.109;70;000.359;MIDI 01
363.920;000.498;73;000.305;MIDI 01
364.443;000.140;65;000.484;MIDI 01
364.558;000.176;70;000.484;MIDI 01
364.296;000.590;61;000.750;MIDI 01
364.680;000.264;77;000.445;MIDI 01
364.821;000.196;66;000.469;MIDI 01
364.953;000.207;70;000.414;MIDI 01
364.901;000.264;58;000.492;MIDI 01
365.391;000.062;70;000.398;MIDI 01
365.090;000.370;73;000.445;MIDI 01
365.279;000.184;65;000.336;MIDI 01
365.190;000.322;53;000.500;MIDI 01
365.464;000.206;52;000.445;MIDI 01
365.659;000.146;51;000.469;MIDI 01
365.816;000.034;50;000.391;MIDI 01
365.894;000.176;53;000.375;MIDI 01
365.893;000.238;61;000.406;MIDI 01
366.090;000.058;49;000.375;MIDI 01
366.165;000.082;41;000.156;MIDI 01
366.255;000.047;34;000.273;MIDI 01
366.282;000.050;39;000.023;MIDI 01
366.329;000.061;61;000.375;MIDI 01
366.344;000.066;65;000.320;MIDI 01
366.480;000.048;53;000.344;MIDI 01
366.477;000.090;49;000.414;MIDI 01
366.586;000.051;41;000.281;MIDI 01
366.686;000.069;53;000.320;MIDI 01
366.680;000.149;60;000.453;MIDI 01
366.791;000.062;48;000.492;MIDI 01
366.788;000.173;41;000.336;MIDI 01
366.942;000.038;34;000.414;MIDI 01
367.036;000.039;65;000.414;MIDI 01
367.022;000.078;60;000.508;MIDI 01
367.050;000.070;53;000.281;MIDI 01
367.148;000.075;53;000.359;MIDI 01
367.174;000.108;48;000.391;MIDI 01
367.259;000.066;41;000.438;MIDI 01
367.366;000.086;53;000.469;MIDI 01
367.344;000.175;58;000.570;MIDI 01
367.473;000.142;46;000.523;MIDI 01
367.471;000.154;41;000.461;MIDI 01
367.599;000.055;34;000.570;MIDI 01
367.686;000.080;65;000.586;MIDI 01
367.684;000.092;58;000.594;MIDI 01
367.801;000.046;53;000.586;MIDI 01
367.793;000.100;46;000.594;MIDI 01
367.844;000.049;52;000.328;MIDI 01
367.894;000.041;41;000.570;MIDI 01
368.023;000.092;53;000.555;MIDI 01
368.002;000.252;57;000.719;MIDI 01
368.121;000.183;41;000.258;MIDI 01
368.136;000.192;45;000.648;MIDI 01
368.285;000.058;34;000.680;MIDI 01
368.367;000.074;57;000.711;MIDI 01
368.372;000.070;65;000.688;MIDI 01
368.501;000.145;53;000.617;MIDI 01
368.479;000.191;44;000.680;MIDI 01
368.655;000.041;45;000.297;MIDI 01
368.639;000.079;41;000.680;MIDI 01
368.923;000.286;44;000.734;MIDI 01
368.918;000.349;56;000.727;MIDI 01
369.036;000.298;22;000.727;MIDI 01
369.039;000.311;34;000.734;MIDI 01
369.664;000.304;58;000.516;MIDI 01
369.658;000.335;62;000.500;MIDI 01
369.649;000.368;65;000.562;MIDI 01
369.677;000.344;41;000.461;MIDI 01
369.661;000.370;50;000.500;MIDI 01
369.666;000.388;46;000.516;MIDI 01
369.669;000.398;53;000.547;MIDI 01
370.423;000.031;70;000.602;MIDI 01
370.436;000.030;74;000.469;MIDI 01
370.429;000.066;62;000.586;MIDI 01
370.432;000.069;53;000.539;MIDI 01
370.425;000.078;77;000.625;MIDI 01
370.427;000.089;58;000.586;MIDI 01
370.431;000.107;65;000.672;MIDI 01
370.927;000.157;95;000.734;MIDI 01
370.939;000.151;88;000.680;MIDI 01
370.931;000.166;92;000.734;MIDI 01
370.936;000.170;71;000.703;MIDI 01
370.934;000.179;83;000.742;MIDI 01
370.935;000.194;68;000.680;MIDI 01
370.943;000.189;64;000.664;MIDI 01
370.941;000.208;59;000.641;MIDI 01
371.503;000.429;80;000.688;MIDI 01
371.516;000.421;59;000.633;MIDI 01
371.515;000.424;63;000.586;MIDI 01
371.512;000.465;75;000.539;MIDI 01
371.506;000.483;71;000.555;MIDI 01
371.511;000.510;68;000.672;MIDI 01
371.514;000.510;56;000.586;MIDI 01
371.518;000.616;51;000.562;MIDI 01
372.456;000.089;68;000.562;MIDI 01
372.462;000.096;59;000.562;MIDI 01
372.458;000.101;52;000.531;MIDI 01
372.471;000.094;63;000.523;MIDI 01
372.469;000.120;56;000.570;MIDI 01
372.454;000.141;47;000.539;MIDI 01
372.457;000.179;40;000.539;MIDI 01
372.978;000.049;46;000.711;MIDI 01
372.980;000.081;22;000.703;MIDI 01
372.989;000.087;34;000.742;MIDI 01
372.975;000.103;58;000.680;MIDI 01
373.069;000.064;35;000.094;MIDI 01
373.452;000.034;89;000.586;MIDI 01
373.458;000.033;77;000.648;MIDI 01
373.453;000.065;82;000.664;MIDI 01
373.467;000.090;53;000.555;MIDI 01
373.471;000.088;62;000.586;MIDI 01
373.468;000.100;58;000.555;MIDI 01
373.596;000.017;80;000.461;MIDI 01
373.575;000.043;74;000.812;MIDI 01
373.571;000.050;82;000.648;MIDI 01
373.567;000.056;86;000.766;MIDI 01
373.578;000.431;65;000.789;MIDI 01
374.283;000.041;70;000.297;MIDI 01
373.959;000.443;64;000.766;MIDI 01
374.332;000.157;63;000.734;MIDI 01
374.505;000.109;66;000.500;MIDI 01
374.857;000.117;65;000.422;MIDI 01
374.945;000.170;70;000.422;MIDI 01
374.699;000.522;62;000.758;MIDI 01
375.229;000.152;66;000.430;MIDI 01
375.234;000.155;58;000.523;MIDI 01
375.107;000.304;77;000.344;MIDI 01
375.335;000.271;70;000.406;MIDI 01
375.424;000.268;74;000.422;MIDI 01
375.615;000.148;65;000.219;MIDI 01
375.735;000.027;70;000.336;MIDI 01
375.531;000.276;53;000.469;MIDI 01
375.781;000.182;52;000.422;MIDI 01
375.965;000.132;51;000.469;MIDI 01
376.119;000.036;50;000.406;MIDI 01
376.211;000.170;56;000.375;MIDI 01
376.189;000.194;68;000.438;MIDI 01
376.472;000.058;45;000.086;MIDI 01
376.548;000.038;34;000.438;MIDI 01
376.636;000.057;71;000.469;MIDI 01
376.655;000.042;59;000.383;MIDI 01
376.701;000.047;62;000.172;MIDI 01
376.809;000.061;56;000.359;MIDI 01
376.807;000.116;50;000.438;MIDI 01
376.940;000.049;46;000.438;MIDI 01
377.043;000.158;55;000.508;MIDI 01
377.026;000.179;67;000.570;MIDI 01
377.186;000.029;50;000.477;MIDI 01
377.189;000.183;44;000.570;MIDI 01
377.363;000.033;34;000.531;MIDI 01
377.422;000.111;58;000.594;MIDI 01
377.418;000.185;70;000.656;MIDI 01
377.468;000.170;62;000.258;MIDI 01
377.644;000.058;55;000.250;MIDI 01
377.580;000.164;51;000.539;MIDI 01
377.766;000.038;44;000.398;MIDI 01
377.834;000.065;62;000.250;MIDI 01
377.795;000.240;54;000.641;MIDI 01
378.006;000.053;34;000.547;MIDI 01
377.785;000.278;66;000.617;MIDI 01
378.058;000.061;37;000.070;MIDI 01
378.180;000.075;57;000.648;MIDI 01
378.183;000.117;69;000.609;MIDI 01
378.196;000.145;62;000.477;MIDI 01
378.337;000.041;53;000.562;MIDI 01
378.335;000.082;49;000.555;MIDI 01
378.527;000.134;65;000.664;MIDI 01
378.529;000.136;53;000.625;MIDI 01
378.697;000.064;49;000.664;MIDI 01
378.742;000.061;37;000.023;MIDI 01
378.816;000.058;34;000.664;MIDI 01
378.694;000.241;41;000.383;MIDI 01
378.951;000.031;69;000.484;MIDI 01
378.933;000.072;56;000.664;MIDI 01
378.920;000.090;68;000.609;MIDI 01
379.082;000.054;52;000.648;MIDI 01
379.142;000.034;47;000.383;MIDI 01
379.124;000.056;48;000.383;MIDI 01
379.196;000.027;40;000.594;MIDI 01
379.415;000.209;50;000.641;MIDI 01
379.603;000.049;29;000.391;MIDI 01
379.566;000.094;26;000.703;MIDI 01
379.407;000.256;62;000.680;MIDI 01
379.981;000.039;57;000.617;MIDI 01
379.994;000.035;62;000.562;MIDI 01
380.000;000.064;38;000.586;MIDI 01
379.984;000.097;66;000.594;MIDI 01
379.973;000.117;69;000.633;MIDI 01
380.386;000.053;66;000.695;MIDI 01
380.398;000.049;45;000.578;MIDI 01
380.391;000.058;50;000.531;MIDI 01
380.389;000.062;74;000.633;MIDI 01
380.429;000.027;53;000.508;MIDI 01
380.400;000.075;57;000.633;MIDI 01
380.433;000.046;54;000.227;MIDI 01
380.383;000.119;78;000.695;MIDI 01
380.815;000.054;74;000.703;MIDI 01
380.822;000.062;62;000.570;MIDI 01
380.822;000.067;78;000.648;MIDI 01
380.819;000.071;59;000.555;MIDI 01
380.824;000.067;81;000.648;MIDI 01
380.828;000.064;66;000.680;MIDI 01
380.818;000.085;54;000.539;MIDI 01
380.820;000.105;86;000.680;MIDI 01
381.334;000.152;97;000.734;MIDI 01
381.346;000.154;94;000.719;MIDI 01
381.342;000.169;90;000.781;MIDI 01
381.344;000.177;85;000.734;MIDI 01
381.370;000.165;73;000.695;MIDI 01
381.368;000.205;70;000.688;MIDI 01
381.360;000.233;66;000.680;MIDI 01
381.363;000.255;61;000.688;MIDI 01
382.071;000.038;62;000.383;MIDI 01
382.017;000.279;82;000.648;MIDI 01
382.014;000.309;76;000.648;MIDI 01
382.015;000.315;73;000.656;MIDI 01
382.035;000.314;64;000.602;MIDI 01
382.031;000.332;70;000.680;MIDI 01
382.029;000.354;61;000.609;MIDI 01
382.026;000.361;58;000.602;MIDI 01
382.033;000.399;52;000.562;MIDI 01
382.781;000.095;49;000.688;MIDI 01
382.775;000.135;42;000.680;MIDI 01
382.786;000.178;64;000.633;MIDI 01
382.791;000.197;58;000.648;MIDI 01
383.357;000.052;50;000.656;MIDI 01
383.350;000.090;62;000.719;MIDI 01
383.361;000.092;26;000.703;MIDI 01
383.367;000.109;38;000.750;MIDI 01
383.808;000.023;81;000.547;MIDI 01
383.806;000.033;69;000.562;MIDI 01
383.804;000.053;74;000.695;MIDI 01
383.846;000.036;47;000.445;MIDI 01
383.831;000.076;54;000.609;MIDI 01
383.835;000.078;50;000.523;MIDI 01
383.823;000.143;45;000.547;MIDI 01
383.934;000.052;78;000.766;MIDI 01
383.941;000.050;66;000.820;MIDI 01
383.943;000.646;57;000.734;MIDI 01
384.703;000.124;62;000.484;MIDI 01
384.853;000.242;66;000.469;MIDI 01
384.502;000.672;56;000.727;MIDI 01
385.262;000.106;58;000.453;MIDI 01
385.021;000.358;69;000.414;MIDI 01
385.402;000.194;62;000.469;MIDI 01
385.119;000.540;55;000.648;MIDI 01
385.695;000.090;57;000.398;MIDI 01
385.509;000.334;66;000.430;MIDI 01
385.836;000.186;62;000.414;MIDI 01
385.540;000.653;54;000.664;MIDI 01
386.121;000.201;58;000.383;MIDI 01
386.272;000.271;62;000.352;MIDI 01
386.188;000.418;50;000.469;MIDI 01
386.514;000.423;45;000.477;MIDI 01
386.765;000.291;57;000.367;MIDI 01
385.958;001.182;69;000.484;MIDI 01
386.519;000.918;66;000.383;MIDI 01
386.900;000.546;44;000.422;MIDI 01
387.079;000.438;62;000.344;MIDI 01
387.344;000.521;43;000.359;MIDI 01
387.832;000.835;42;000.242;MIDI 01
388.216;000.476;69;000.305;MIDI 01
388.624;000.462;73;000.352;MIDI 01
388.655;000.475;39;000.211;MIDI 01
389.148;000.054;66;000.359;MIDI 01
389.157;000.052;49;000.359;MIDI 01
389.401;000.060;57;000.367;MIDI 01
389.449;000.052;61;000.250;MIDI 01
389.830;000.136;72;000.445;MIDI 01
389.837;000.185;48;000.312;MIDI 01
390.000;000.325;41;000.344;MIDI 01
389.992;000.343;69;000.414;MIDI 01
390.339;000.049;65;000.367;MIDI 01
390.340;000.051;49;000.398;MIDI 01
390.503;000.061;57;000.328;MIDI 01
390.827;000.102;72;000.492;MIDI 01
390.832;000.107;48;000.422;MIDI 01
390.992;000.277;42;000.406;MIDI 01
390.969;000.302;68;000.461;MIDI 01
391.268;000.039;49;000.414;MIDI 01
391.291;000.054;64;000.406;MIDI 01
391.398;000.041;58;000.484;MIDI 01
391.753;000.103;49;000.430;MIDI 01
391.755;000.122;72;000.562;MIDI 01
391.918;000.268;41;000.414;MIDI 01
391.906;000.367;69;000.438;MIDI 01
392.247;000.038;49;000.367;MIDI 01
392.262;000.034;65;000.312;MIDI 01
392.419;000.047;57;000.336;MIDI 01
392.481;000.039;61;000.289;MIDI 01
392.905;000.151;77;000.516;MIDI 01
392.934;000.136;48;000.406;MIDI 01
393.144;000.445;39;000.406;MIDI 01
393.109;000.496;73;000.516;MIDI 01
393.640;000.039;66;000.391;MIDI 01
393.655;000.052;49;000.438;MIDI 01
393.895;000.032;57;000.352;MIDI 01
393.911;000.053;61;000.461;MIDI 01
394.221;000.131;72;000.523;MIDI 01
394.232;000.126;48;000.391;MIDI 01
394.372;000.165;41;000.430;MIDI 01
394.378;000.375;69;000.500;MIDI 01
394.760;000.056;65;000.133;MIDI 01
394.746;000.084;49;000.172;MIDI 01
394.906;000.040;61;000.414;MIDI 01
394.875;000.084;57;000.406;MIDI 01
395.246;000.106;72;000.523;MIDI 01
395.244;000.140;48;000.391;MIDI 01
395.398;000.322;42;000.461;MIDI 01
395.381;000.409;68;000.508;MIDI 01
395.775;000.041;49;000.484;MIDI 01
395.797;000.076;64;000.469;MIDI 01
395.974;000.049;58;000.289;MIDI 01
395.991;000.120;61;000.461;MIDI 01
396.236;000.130;49;000.438;MIDI 01
396.232;000.160;72;000.562;MIDI 01
396.384;000.252;41;000.438;MIDI 01
396.386;000.323;69;000.562;MIDI 01
396.707;000.042;49;000.453;MIDI 01
396.721;000.030;65;000.422;MIDI 01
396.855;000.045;57;000.492;MIDI 01
396.894;000.023;61;000.414;MIDI 01
397.416;000.347;48;000.398;MIDI 01
397.410;000.491;70;000.461;MIDI 01
397.801;000.383;39;000.273;MIDI 01
398.122;000.286;66;000.406;MIDI 01
398.308;000.108;65;000.406;MIDI 01
397.809;000.669;73;000.508;MIDI 01
398.503;000.079;58;000.398;MIDI 01
398.477;000.107;64;000.398;MIDI 01
398.291;000.404;49;000.344;MIDI 01
398.618;000.340;63;000.461;MIDI 01
398.762;000.198;48;000.469;MIDI 01
398.930;000.095;72;000.562;MIDI 01
398.765;000.279;69;000.562;MIDI 01
398.952;000.186;41;000.438;MIDI 01
399.172;000.069;57;000.469;MIDI 01
399.303;000.108;63;000.430;MIDI 01
399.299;000.116;49;000.367;MIDI 01
399.428;000.068;66;000.484;MIDI 01
399.485;000.288;57;000.398;MIDI 01
399.566;000.231;69;000.539;MIDI 01
399.777;000.218;51;000.461;MIDI 01
399.976;000.087;43;000.438;MIDI 01
399.751;000.325;73;000.586;MIDI 01
399.929;000.240;77;000.586;MIDI 01
400.137;000.115;72;000.508;MIDI 01
400.277;000.141;71;000.484;MIDI 01
400.257;000.186;53;000.398;MIDI 01
400.419;000.083;70;000.484;MIDI 01
400.483;000.064;61;000.352;MIDI 01
400.543;000.135;65;000.445;MIDI 01
400.692;000.172;51;000.406;MIDI 01
400.679;000.255;72;000.586;MIDI 01
400.850;000.131;75;000.617;MIDI 01
400.870;000.200;44;000.414;MIDI 01
401.055;000.098;60;000.406;MIDI 01
401.121;000.100;53;000.375;MIDI 01
401.177;000.099;66;000.469;MIDI 01
401.293;000.060;70;000.523;MIDI 01
401.443;000.178;72;000.492;MIDI 01
401.318;000.322;60;000.430;MIDI 01
401.656;000.200;54;000.383;MIDI 01
401.634;000.369;77;000.531;MIDI 01
402.044;000.108;76;000.461;MIDI 01
401.898;000.264;46;000.320;MIDI 01
401.846;000.379;80;000.586;MIDI 01
402.191;000.074;56;000.406;MIDI 01
402.214;000.221;75;000.406;MIDI 01
402.369;000.084;73;000.422;MIDI 01
402.695;000.042;54;000.391;MIDI 01
402.530;000.249;68;000.359;MIDI 01
402.656;000.145;56;000.289;MIDI 01
402.677;000.264;75;000.500;MIDI 01
402.840;000.240;48;000.461;MIDI 01
403.166;000.089;70;000.406;MIDI 01
402.821;000.492;78;000.586;MIDI 01
403.191;000.146;56;000.344;MIDI 01
403.316;000.193;72;000.516;MIDI 01
403.395;000.139;63;000.305;MIDI 01
403.524;000.270;75;000.414;MIDI 01
403.698;000.341;78;000.414;MIDI 01
403.752;000.303;58;000.273;MIDI 01
404.038;000.327;50;000.141;MIDI 01
404.056;000.631;82;000.469;MIDI 01
404.373;000.357;70;000.352;MIDI 01
404.740;000.090;68;000.328;MIDI 01
404.538;000.397;78;000.367;MIDI 01
404.476;000.704;58;000.195;MIDI 01
405.039;000.228;68;000.336;MIDI 01
404.998;000.273;59;000.336;MIDI 01
404.859;000.425;77;000.406;MIDI 01
405.257;000.301;51;000.312;MIDI 01
405.435;000.216;68;000.383;MIDI 01
405.905;000.090;70;000.414;MIDI 01
405.627;000.383;60;000.359;MIDI 01
405.221;000.801;80;000.484;MIDI 01
405.630;000.559;77;000.352;MIDI 01
406.177;000.061;61;000.367;MIDI 01
406.360;000.406;66;000.344;MIDI 01
406.116;000.700;75;000.359;MIDI 01
406.684;000.352;41;000.359;MIDI 01
407.132;000.081;57;000.430;MIDI 01
407.106;000.242;66;000.273;MIDI 01
407.408;000.131;63;000.320;MIDI 01
406.710;000.947;78;000.477;MIDI 01
407.567;000.127;66;000.359;MIDI 01
407.743;000.082;68;000.305;MIDI 01
407.728;000.267;73;000.523;MIDI 01
407.365;000.631;75;000.375;MIDI 01
407.925;000.378;77;000.547;MIDI 01
408.129;000.228;73;000.508;MIDI 01
408.302;000.215;56;000.398;MIDI 01
408.323;000.200;65;000.438;MIDI 01
408.541;000.100;61;000.297;MIDI 01
408.694;000.120;65;000.445;MIDI 01
408.861;000.120;66;000.312;MIDI 01
408.826;000.164;72;000.492;MIDI 01
408.533;000.517;73;000.453;MIDI 01
409.022;000.036;68;000.359;MIDI 01
409.008;000.216;75;000.539;MIDI 01
409.215;000.274;72;000.430;MIDI 01
409.416;000.205;63;000.391;MIDI 01
409.384;000.271;55;000.352;MIDI 01
409.599;000.159;60;000.312;MIDI 01
409.794;000.075;63;000.406;MIDI 01
409.579;000.401;72;000.398;MIDI 01
409.947;000.164;64;000.289;MIDI 01
409.916;000.211;70;000.469;MIDI 01
410.293;000.155;70;000.484;MIDI 01
410.453;000.135;61;000.414;MIDI 01
410.400;000.231;54;000.312;MIDI 01
410.094;000.615;73;000.500;MIDI 01
410.622;000.109;58;000.414;MIDI 01
410.774;000.106;61;000.391;MIDI 01
410.945;000.035;63;000.297;MIDI 01
410.616;000.370;70;000.492;MIDI 01
410.947;000.101;69;000.359;MIDI 01
411.072;000.211;72;000.508;MIDI 01
411.239;000.181;69;000.477;MIDI 01
411.381;000.153;53;000.414;MIDI 01
411.392;000.208;60;000.477;MIDI 01
411.590;000.084;57;000.367;MIDI 01
411.734;000.067;61;000.391;MIDI 01
411.586;000.243;69;000.430;MIDI 01
411.889;000.085;62;000.227;MIDI 01
411.989;000.041;63;000.328;MIDI 01
412.070;000.364;71;000.445;MIDI 01
412.480;000.194;59;000.344;MIDI 01
412.445;000.236;41;000.359;MIDI 01
412.693;000.047;49;000.375;MIDI 01
412.268;000.608;68;000.461;MIDI 01
412.843;000.186;59;000.438;MIDI 01
413.089;000.151;60;000.109;MIDI 01
413.258;000.074;61;000.289;MIDI 01
413.269;000.339;70;000.453;MIDI 01
413.542;000.299;66;000.359;MIDI 01
413.829;000.202;61;000.305;MIDI 01
414.024;000.122;66;000.344;MIDI 01
414.227;000.144;69;000.367;MIDI 01
414.425;000.127;70;000.344;MIDI 01
414.583;000.031;71;000.375;MIDI 01
413.792;000.952;58;000.391;MIDI 01
415.095;000.366;56;000.320;MIDI 01
415.091;000.478;70;000.258;MIDI 01
414.847;000.829;65;000.344;MIDI 01
415.433;000.374;74;000.328;MIDI 01
415.805;000.433;80;000.297;MIDI 01
416.153;000.601;81;000.203;MIDI 01
414.594;002.225;68;000.383;MIDI 01
416.654;000.281;82;000.336;MIDI 01
418.273;000.728;61;000.328;MIDI 01
419.100;000.054;50;000.344;MIDI 01
419.121;000.055;60;000.289;MIDI 01
419.102;000.197;69;000.445;MIDI 01
418.212;001.089;70;000.469;MIDI 01
418.254;001.228;49;000.328;MIDI 01
418.275;001.293;42;000.234;MIDI 01
419.389;000.265;59;000.266;MIDI 01
419.350;000.365;68;000.438;MIDI 01
419.394;000.539;51;000.344;MIDI 01
420.024;001.109;61;000.328;MIDI 01
420.053;001.115;58;000.227;MIDI 01
419.988;001.360;70;000.422;MIDI 01
421.371;000.636;61;000.227;MIDI 01
421.828;000.251;63;000.297;MIDI 01
420.059;002.312;42;000.281;MIDI 01
422.134;000.421;65;000.219;MIDI 01
422.347;000.280;66;000.312;MIDI 01
422.541;000.105;68;000.320;MIDI 01
422.631;000.065;70;000.445;MIDI 01
420.051;002.773;49;000.219;MIDI 01
422.761;000.105;71;000.492;MIDI 01
422.860;000.128;73;000.461;MIDI 01
422.999;000.030;75;000.461;MIDI 01
423.119;000.083;77;000.414;MIDI 01
423.210;000.137;78;000.391;MIDI 01
423.304;000.372;80;000.422;MIDI 01
423.629;000.649;70;000.289;MIDI 01
423.637;000.669;78;000.320;MIDI 01
423.633;000.848;66;000.297;MIDI 01
423.631;000.880;73;000.352;MIDI 01
424.519;000.046;72;000.297;MIDI 01
423.595;001.000;82;000.430;MIDI 01
424.569;000.070;77;000.188;MIDI 01
424.524;000.169;69;000.359;MIDI 01
424.521;000.182;81;000.438;MIDI 01
424.549;000.203;65;000.281;MIDI 01
424.762;000.211;68;000.344;MIDI 01
424.795;000.180;71;000.234;MIDI 01
424.746;000.260;63;000.312;MIDI 01
424.777;000.266;75;000.281;MIDI 01
424.739;000.536;80;000.391;MIDI 01
425.233;000.130;66;000.336;MIDI 01
425.236;000.558;78;000.367;MIDI 01
425.214;001.905;70;000.359;MIDI 01
425.225;002.002;73;000.344;MIDI 01
425.207;002.253;82;000.469;MIDI 01
427.294;000.318;61;000.242;MIDI 01
427.268;000.385;80;000.367;MIDI 01
427.615;000.058;75;000.289;MIDI 01
427.657;000.285;63;000.164;MIDI 01
427.618;000.327;66;000.234;MIDI 01
427.575;000.457;78;000.359;MIDI 01
427.653;000.396;70;000.156;MIDI 01
428.629;000.137;70;000.133;MIDI 01
428.603;000.183;73;000.297;MIDI 01
428.598;000.247;66;000.320;MIDI 01
428.632;000.241;78;000.273;MIDI 01
428.988;000.211;58;000.383;MIDI 01
428.600;000.674;82;000.430;MIDI 01
429.225;000.250;59;000.430;MIDI 01
428.990;000.534;80;000.445;MIDI 01
429.204;000.331;78;000.492;MIDI 01
429.488;000.228;65;000.273;MIDI 01
429.483;000.242;61;000.281;MIDI 01
429.500;000.278;70;000.312;MIDI 01
429.459;000.418;77;000.438;MIDI 01
430.424;000.899;70;000.289;MIDI 01
430.417;000.924;73;000.273;MIDI 01
430.371;001.335;82;000.367;MIDI 01
430.410;001.300;66;000.266;MIDI 01
430.407;001.336;78;000.281;MIDI 01
431.709;000.114;75;000.195;MIDI 01
431.661;000.180;71;000.320;MIDI 01
431.668;000.379;63;000.250;MIDI 01
431.632;000.508;85;000.398;MIDI 01
432.053;000.104;66;000.266;MIDI 01
432.061;000.331;73;000.258;MIDI 01
432.020;000.374;70;000.375;MIDI 01
432.018;000.380;78;000.312;MIDI 01
432.015;000.472;82;000.398;MIDI 01
432.991;000.108;66;000.219;MIDI 01
432.932;001.916;78;000.250;MIDI 01
432.954;001.932;73;000.227;MIDI 01
432.915;002.068;82;000.297;MIDI 01
432.959;002.149;70;000.180;MIDI 01
436.982;000.128;85;000.414;MIDI 01
435.867;001.273;80;000.453;MIDI 01
436.522;000.656;82;000.500;MIDI 01
437.054;000.477;83;000.578;MIDI 01
437.440;000.971;82;000.578;MIDI 01
438.946;000.108;49;000.258;MIDI 01
438.934;000.128;42;000.281;MIDI 01
438.151;000.987;85;000.547;MIDI 01
438.930;000.363;78;000.469;MIDI 01
439.257;000.109;82;000.406;MIDI 01
439.623;000.213;69;000.398;MIDI 01
439.478;000.397;68;000.461;MIDI 01
439.795;000.206;70;000.172;MIDI 01
439.795;000.256;66;000.250;MIDI 01
439.756;000.318;82;000.383;MIDI 01
439.303;000.824;61;000.422;MIDI 01
439.786;000.444;78;000.336;MIDI 01
438.918;001.456;90;000.594;MIDI 01
440.623;000.068;42;000.391;MIDI 01
440.647;000.046;49;000.391;MIDI 01
440.627;000.069;80;000.422;MIDI 01
440.913;000.224;82;000.453;MIDI 01
440.917;000.249;78;000.398;MIDI 01
441.014;000.181;60;000.125;MIDI 01
441.257;000.065;68;000.414;MIDI 01
441.107;000.279;66;000.500;MIDI 01
440.599;000.797;89;000.633;MIDI 01
441.319;000.203;78;000.430;MIDI 01
441.353;000.183;70;000.477;MIDI 01
441.387;000.229;65;000.312;MIDI 01
441.322;000.348;82;000.477;MIDI 01
440.629;001.127;77;000.367;MIDI 01
442.066;000.071;42;000.484;MIDI 01
442.100;000.050;49;000.250;MIDI 01
442.407;000.060;78;000.023;MIDI 01
442.353;000.124;59;000.500;MIDI 01
442.326;000.267;82;000.477;MIDI 01
442.603;000.039;68;000.422;MIDI 01
442.491;000.326;65;000.406;MIDI 01
442.828;000.123;66;000.242;MIDI 01
442.875;000.114;70;000.219;MIDI 01
442.027;000.966;87;000.594;MIDI 01
442.769;000.378;63;000.273;MIDI 01
442.052;001.157;75;000.492;MIDI 01
442.788;001.003;82;000.367;MIDI 01
443.767;000.213;49;000.297;MIDI 01
443.770;000.210;42;000.336;MIDI 01
444.185;000.102;78;000.188;MIDI 01
444.143;000.544;82;000.430;MIDI 01
444.665;000.157;68;000.305;MIDI 01
444.427;000.697;63;000.344;MIDI 01
444.198;000.998;58;000.383;MIDI 01
443.741;003.388;73;000.305;MIDI 01
445.201;002.054;66;000.172;MIDI 01
445.152;002.119;78;000.227;MIDI 01
445.158;002.123;70;000.203;MIDI 01
443.690;003.623;85;000.430;MIDI 01
445.126;002.242;82;000.320;MIDI 01
445.205;002.167;61;000.195;MIDI 01
448.299;000.391;83;000.570;MIDI 01
448.701;000.050;82;000.422;MIDI 01
448.779;000.082;83;000.492;MIDI 01
448.844;000.445;82;000.586;MIDI 01
449.223;000.391;80;000.648;MIDI 01
449.567;000.216;78;000.578;MIDI 01
449.998;000.529;59;000.422;MIDI 01
450.057;000.561;63;000.273;MIDI 01
450.435;000.214;68;000.367;MIDI 01
449.980;000.685;75;000.500;MIDI 01
450.012;000.884;70;000.414;MIDI 01
450.453;000.532;58;000.398;MIDI 01
450.415;000.593;71;000.422;MIDI 01
450.956;000.243;65;000.336;MIDI 01
450.989;000.304;56;000.242;MIDI 01
450.986;000.332;59;000.211;MIDI 01
450.951;000.746;73;000.414;MIDI 01
451.714;000.378;63;000.250;MIDI 01
451.734;000.377;58;000.164;MIDI 01
451.743;000.466;55;000.203;MIDI 01
451.686;000.525;70;000.344;MIDI 01
452.887;000.077;39;000.359;MIDI 01
452.943;000.060;46;000.203;MIDI 01
452.884;000.379;75;000.281;MIDI 01
453.193;000.088;79;000.391;MIDI 01
453.387;000.167;65;000.375;MIDI 01
453.522;000.077;66;000.352;MIDI 01
453.207;000.476;58;000.289;MIDI 01
453.643;000.129;67;000.250;MIDI 01
453.590;000.260;79;000.375;MIDI 01
453.640;000.218;63;000.336;MIDI 01
452.850;001.013;87;000.453;MIDI 01
453.593;000.287;75;000.344;MIDI 01
454.365;000.065;77;000.383;MIDI 01
454.359;000.082;39;000.406;MIDI 01
454.400;000.043;46;000.352;MIDI 01
454.701;000.074;75;000.227;MIDI 01
454.646;000.204;79;000.430;MIDI 01
454.969;000.091;65;000.352;MIDI 01
454.340;000.749;86;000.523;MIDI 01
454.834;000.273;63;000.391;MIDI 01
454.648;000.473;57;000.391;MIDI 01
455.064;000.136;79;000.383;MIDI 01
455.100;000.197;75;000.273;MIDI 01
454.357;001.202;74;000.398;MIDI 01
455.720;000.088;39;000.391;MIDI 01
455.754;000.058;46;000.328;MIDI 01
455.735;000.144;74;000.305;MIDI 01
456.092;000.078;75;000.281;MIDI 01
456.043;000.201;79;000.438;MIDI 01
456.215;000.173;62;000.352;MIDI 01
455.718;000.820;84;000.508;MIDI 01
456.505;000.070;75;000.133;MIDI 01
456.507;000.126;67;000.312;MIDI 01
456.511;000.196;60;000.203;MIDI 01
455.731;001.010;72;000.375;MIDI 01
456.051;000.782;56;000.414;MIDI 01
456.440;001.034;79;000.398;MIDI 01
457.374;000.173;39;000.312;MIDI 01
457.427;000.160;46;000.156;MIDI 01
457.798;000.414;79;000.359;MIDI 01
458.091;000.395;60;000.258;MIDI 01
458.387;000.130;65;000.312;MIDI 01
457.824;001.162;55;000.328;MIDI 01
457.363;003.605;70;000.312;MIDI 01
458.903;002.078;67;000.266;MIDI 01
458.877;002.107;75;000.227;MIDI 01
458.896;002.109;63;000.281;MIDI 01
458.905;002.111;58;000.258;MIDI 01
457.326;003.704;82;000.406;MIDI 01
458.841;002.192;79;000.320;MIDI 01
462.008;000.569;80;000.523;MIDI 01
462.607;000.059;79;000.422;MIDI 01
462.688;000.079;80;000.547;MIDI 01
462.755;000.424;79;000.547;MIDI 01
463.117;000.436;77;000.578;MIDI 01
463.467;000.223;75;000.555;MIDI 01
463.910;000.642;72;000.438;MIDI 01
463.949;000.666;67;000.367;MIDI 01
463.964;000.709;63;000.344;MIDI 01
464.499;000.784;62;000.266;MIDI 01
464.469;000.843;70;000.430;MIDI 01
465.133;000.345;67;000.336;MIDI 01
465.174;000.416;63;000.203;MIDI 01
465.168;000.493;61;000.242;MIDI 01
466.111;000.474;39;000.273;MIDI 01
466.108;000.582;55;000.047;MIDI 01
466.610;000.124;48;000.289;MIDI 01
466.084;000.680;58;000.227;MIDI 01
466.060;000.765;60;000.344;MIDI 01
466.928;000.222;58;000.312;MIDI 01
467.176;000.291;60;000.383;MIDI 01
467.625;000.608;67;000.344;MIDI 01
468.199;000.238;84;000.211;MIDI 01
468.416;000.038;60;000.289;MIDI 01
468.156;000.427;93;000.547;MIDI 01
468.618;000.033;58;000.344;MIDI 01
467.566;001.118;94;000.602;MIDI 01
468.539;000.185;92;000.609;MIDI 01
468.775;000.033;49;000.414;MIDI 01
468.582;000.275;84;000.352;MIDI 01
468.916;000.084;93;000.516;MIDI 01
468.972;000.066;83;000.219;MIDI 01
468.921;000.161;91;000.531;MIDI 01
469.041;000.141;83;000.023;MIDI 01
469.299;000.045;79;000.258;MIDI 01
468.955;000.467;39;000.406;MIDI 01
469.294;000.190;86;000.500;MIDI 01
469.479;000.096;48;000.391;MIDI 01
469.296;000.309;84;000.438;MIDI 01
469.859;000.060;61;000.281;MIDI 01
469.633;000.334;72;000.539;MIDI 01
470.015;000.266;67;000.430;MIDI 01
469.959;000.345;83;000.547;MIDI 01
469.972;000.365;72;000.109;MIDI 01
470.285;000.068;82;000.453;MIDI 01
470.381;000.046;60;000.352;MIDI 01
470.639;000.092;77;000.477;MIDI 01
470.659;000.155;71;000.461;MIDI 01
471.111;000.339;48;000.297;MIDI 01
470.968;000.612;70;000.477;MIDI 01
471.447;000.150;60;000.297;MIDI 01
471.420;000.244;67;000.414;MIDI 01
471.448;000.621;40;000.320;MIDI 01
471.880;000.215;48;000.398;MIDI 01
472.128;000.042;55;000.297;MIDI 01
472.314;000.071;60;000.422;MIDI 01
472.074;000.439;94;000.633;MIDI 01
472.544;000.064;84;000.531;MIDI 01
472.523;000.217;93;000.656;MIDI 01
472.546;000.220;70;000.414;MIDI 01
472.831;000.091;92;000.617;MIDI 01
472.848;000.280;83;000.531;MIDI 01
473.117;000.086;91;000.609;MIDI 01
473.179;000.059;55;000.273;MIDI 01
473.315;000.109;48;000.367;MIDI 01
473.132;000.346;82;000.539;MIDI 01
473.494;000.052;79;000.492;MIDI 01
473.483;000.318;84;000.562;MIDI 01
473.507;000.446;40;000.414;MIDI 01
473.965;000.086;48;000.438;MIDI 01
473.809;000.295;72;000.562;MIDI 01
474.113;000.049;55;000.391;MIDI 01
474.288;000.073;60;000.375;MIDI 01
474.110;000.456;83;000.594;MIDI 01
474.108;000.477;72;000.023;MIDI 01
474.509;000.081;82;000.594;MIDI 01
474.538;000.301;70;000.555;MIDI 01
474.817;000.086;79;000.594;MIDI 01
474.839;000.226;71;000.523;MIDI 01
475.065;000.055;60;000.438;MIDI 01
475.200;000.117;72;000.484;MIDI 01
475.248;000.149;70;000.531;MIDI 01
475.277;000.133;55;000.383;MIDI 01
475.499;000.235;48;000.438;MIDI 01
475.699;000.151;60;000.477;MIDI 01
475.703;000.197;70;000.484;MIDI 01
475.753;000.221;40;000.336;MIDI 01
476.031;000.215;59;000.484;MIDI 01
476.488;000.307;29;000.281;MIDI 01
476.879;000.052;41;000.344;MIDI 01
476.551;000.467;55;000.273;MIDI 01
476.490;000.550;58;000.391;MIDI 01
476.500;000.562;60;000.344;MIDI 01
477.141;000.474;48;000.406;MIDI 01
477.397;000.422;58;000.344;MIDI 01
477.779;000.447;60;000.312;MIDI 01
478.188;000.484;81;000.508;MIDI 01
478.534;000.199;60;000.336;MIDI 01
477.756;001.044;82;000.406;MIDI 01
478.789;000.127;58;000.312;MIDI 01
478.194;000.745;72;000.508;MIDI 01
478.732;000.420;80;000.422;MIDI 01
479.039;000.249;48;000.258;MIDI 01
479.275;000.372;71;000.492;MIDI 01
479.617;000.143;48;000.336;MIDI 01
479.304;000.847;79;000.445;MIDI 01
479.897;000.285;41;000.289;MIDI 01
480.180;000.051;48;000.367;MIDI 01
480.442;000.368;48;000.383;MIDI 01
480.686;000.258;58;000.289;MIDI 01
480.889;000.217;60;000.375;MIDI 01
480.849;000.339;79;000.422;MIDI 01
479.873;001.451;70;000.453;MIDI 01
481.166;000.453;78;000.516;MIDI 01
481.358;000.284;60;000.312;MIDI 01
481.659;000.237;58;000.266;MIDI 01
481.581;000.379;69;000.539;MIDI 01
481.984;000.137;48;000.312;MIDI 01
479.880;002.468;72;000.422;MIDI 01
481.600;000.832;77;000.523;MIDI 01
482.189;000.431;68;000.555;MIDI 01
482.691;000.267;41;000.336;MIDI 01
482.194;000.788;76;000.477;MIDI 01
482.967;000.047;48;000.266;MIDI 01
483.145;000.307;48;000.422;MIDI 01
483.323;000.185;58;000.375;MIDI 01
482.679;000.861;67;000.508;MIDI 01
483.526;000.267;60;000.383;MIDI 01
483.854;000.274;66;000.492;MIDI 01
483.856;000.455;74;000.523;MIDI 01
484.081;000.265;60;000.367;MIDI 01
483.485;000.874;75;000.477;MIDI 01
484.365;000.071;58;000.359;MIDI 01
484.235;000.275;65;000.539;MIDI 01
484.238;000.327;73;000.539;MIDI 01
482.689;001.891;70;000.461;MIDI 01
484.518;000.114;48;000.375;MIDI 01
484.690;000.372;72;000.562;MIDI 01
484.697;000.541;64;000.539;MIDI 01
484.974;000.460;41;000.438;MIDI 01
485.471;000.442;29;000.352;MIDI 01
485.953;000.041;41;000.398;MIDI 01
485.420;001.154;63;000.500;MIDI 01
485.480;001.405;66;000.391;MIDI 01
486.489;000.505;54;000.422;MIDI 01
485.517;001.618;59;000.195;MIDI 01
486.904;000.483;63;000.453;MIDI 01
486.254;001.286;51;000.406;MIDI 01
486.870;000.676;71;000.445;MIDI 01
487.509;000.040;54;000.367;MIDI 01
487.714;000.098;51;000.398;MIDI 01
487.405;000.503;70;000.547;MIDI 01
487.935;000.059;41;000.367;MIDI 01
487.685;000.357;62;000.500;MIDI 01
488.183;000.274;41;000.352;MIDI 01
488.040;000.456;69;000.492;MIDI 01
488.456;000.305;29;000.391;MIDI 01
488.790;000.045;41;000.383;MIDI 01
488.460;000.597;58;000.305;MIDI 01
489.048;000.346;51;000.359;MIDI 01
489.246;000.457;54;000.492;MIDI 01
488.426;001.420;66;000.406;MIDI 01
489.522;000.448;62;000.398;MIDI 01
490.080;000.043;54;000.367;MIDI 01
489.917;000.335;69;000.492;MIDI 01
489.506;000.773;70;000.531;MIDI 01
490.273;000.119;51;000.383;MIDI 01
490.250;000.235;61;000.414;MIDI 01
488.423;002.221;63;000.359;MIDI 01
490.544;000.121;41;000.273;MIDI 01
490.617;000.164;60;000.320;MIDI 01
490.574;000.505;68;000.484;MIDI 01
490.857;000.278;41;000.352;MIDI 01
491.131;000.298;29;000.367;MIDI 01
491.452;000.043;41;000.422;MIDI 01
491.076;000.608;61;000.320;MIDI 01
491.119;000.895;57;000.352;MIDI 01
491.079;001.361;63;000.406;MIDI 01
492.071;000.820;54;000.352;MIDI 01
492.379;000.717;69;000.406;MIDI 01
493.374;000.333;54;000.359;MIDI 01
493.016;000.900;68;000.398;MIDI 01
492.399;001.572;61;000.375;MIDI 01
494.260;000.908;60;000.258;MIDI 01
493.767;001.429;67;000.344;MIDI 01
495.005;000.401;57;000.227;MIDI 01
494.993;000.499;66;000.305;MIDI 01
494.964;000.545;61;000.258;MIDI 01
493.770;001.749;51;000.352;MIDI 01
494.296;001.309;41;000.258;MIDI 01
496.350;000.373;46;000.227;MIDI 01
496.370;000.369;29;000.219;MIDI 01
496.325;000.433;22;000.242;MIDI 01
496.372;000.415;53;000.180;MIDI 01
496.409;000.387;34;000.141;MIDI 01
496.351;000.489;58;000.273;MIDI 01
497.497;000.132;53;000.109;MIDI 01
497.473;000.706;50;000.117;MIDI 01
497.407;000.803;65;000.219;MIDI 01
497.433;000.792;58;000.203;MIDI 01
497.482;000.764;46;000.250;MIDI 01
497.494;000.767;42;000.219;MIDI 01
497.371;000.892;54;000.148;MIDI 01
498.495;000.591;65;000.281;MIDI 01
498.522;000.598;43;000.172;MIDI 01
498.545;000.577;50;000.102;MIDI 01
498.480;000.647;55;000.344;MIDI 01
499.416;000.079;62;000.125;MIDI 01
499.377;000.165;50;000.156;MIDI 01
499.358;000.215;53;000.219;MIDI 01
499.357;000.243;46;000.266;MIDI 01
499.354;000.253;58;000.258;MIDI 01
499.370;000.260;44;000.336;MIDI 01
499.354;000.286;65;000.328;MIDI 01
500.064;000.226;33;000.430;MIDI 01
500.068;000.231;38;000.398;MIDI 01
500.051;000.281;57;000.398;MIDI 01
500.070;000.281;45;000.391;MIDI 01
500.056;000.314;42;000.445;MIDI 01
500.075;000.321;62;000.367;MIDI 01
500.024;000.436;69;000.508;MIDI 01
500.038;000.469;66;000.469;MIDI 01
501.000;000.584;50;000.078;MIDI 01
501.020;000.621;52;000.109;MIDI 01
500.968;000.701;58;000.242;MIDI 01
500.942;000.753;74;000.445;MIDI 01
500.983;000.855;64;000.328;MIDI 01
500.970;000.887;62;000.250;MIDI 01
500.955;000.936;70;000.398;MIDI 01
502.045;000.555;50;000.203;MIDI 01
501.994;000.639;65;000.359;MIDI 01
501.983;000.656;74;000.406;MIDI 01
502.023;000.629;58;000.273;MIDI 01
502.021;000.645;53;000.172;MIDI 01
501.979;000.690;70;000.195;MIDI 01
503.031;000.089;58;000.188;MIDI 01
503.033;000.093;50;000.180;MIDI 01
503.010;000.145;54;000.234;MIDI 01
503.020;000.137;66;000.266;MIDI 01
502.983;000.176;74;000.312;MIDI 01
503.022;000.164;70;000.148;MIDI 01
503.001;000.201;62;000.180;MIDI 01
503.849;000.098;34;000.164;MIDI 01
503.792;000.232;46;000.320;MIDI 01
503.775;000.272;58;000.359;MIDI 01
503.804;000.261;53;000.281;MIDI 01
504.019;000.052;34;000.023;MIDI 01
503.815;000.264;29;000.164;MIDI 01
503.824;000.266;22;000.273;MIDI 01
504.686;000.572;53;000.234;MIDI 01
504.625;000.693;77;000.320;MIDI 01
504.630;000.718;65;000.391;MIDI 01
504.701;000.696;61;000.219;MIDI 01
504.655;000.744;73;000.320;MIDI 01
504.650;000.752;71;000.289;MIDI 01
504.648;000.795;59;000.305;MIDI 01
505.793;000.479;61;000.273;MIDI 01
505.778;000.520;53;000.281;MIDI 01
505.750;000.550;77;000.391;MIDI 01
505.754;000.596;65;000.336;MIDI 01
505.785;000.608;60;000.320;MIDI 01
505.761;000.691;72;000.344;MIDI 01
506.634;000.206;61;000.352;MIDI 01
506.623;000.222;53;000.367;MIDI 01
506.603;000.255;77;000.453;MIDI 01
506.625;000.254;73;000.445;MIDI 01
506.629;000.267;65;000.352;MIDI 01
507.324;000.285;53;000.438;MIDI 01
507.317;000.296;44;000.406;MIDI 01
507.309;000.314;49;000.484;MIDI 01
507.322;000.304;68;000.500;MIDI 01
507.328;000.308;56;000.430;MIDI 01
507.320;000.348;73;000.555;MIDI 01
507.318;000.376;77;000.531;MIDI 01
507.302;000.422;80;000.609;MIDI 01
508.180;001.027;70;000.422;MIDI 01
508.177;001.057;82;000.453;MIDI 01
508.173;001.064;73;000.445;MIDI 01
508.148;001.127;85;000.547;MIDI 01
508.203;001.083;63;000.375;MIDI 01
508.164;001.126;61;000.461;MIDI 01
508.156;001.178;75;000.508;MIDI 01
509.503;000.923;61;000.281;MIDI 01
509.532;001.028;82;000.344;MIDI 01
509.533;001.072;70;000.312;MIDI 01
509.495;001.132;85;000.422;MIDI 01
509.521;001.117;64;000.367;MIDI 01
509.523;001.125;73;000.289;MIDI 01
509.512;001.150;76;000.375;MIDI 01
511.057;000.353;70;000.250;MIDI 01
511.001;000.422;85;000.328;MIDI 01
511.038;000.392;65;000.281;MIDI 01
511.090;000.359;82;000.133;MIDI 01
511.041;000.413;77;000.281;MIDI 01
511.046;000.425;61;000.297;MIDI 01
511.035;000.452;73;000.172;MIDI 01
512.275;000.561;46;000.141;MIDI 01
512.248;001.009;34;000.227;MIDI 01
513.066;000.232;53;000.211;MIDI 01
512.833;000.503;49;000.242;MIDI 01
513.193;000.208;45;000.266;MIDI 01
513.186;000.255;33;000.250;MIDI 01
513.205;000.312;58;000.344;MIDI 01
513.424;000.285;48;000.344;MIDI 01
513.620;000.184;52;000.117;MIDI 01
513.720;000.212;58;000.328;MIDI 01
513.904;000.126;47;000.297;MIDI 01
514.042;000.095;51;000.234;MIDI 01
514.107;000.189;58;000.383;MIDI 01
513.700;000.635;30;000.344;MIDI 01
513.699;000.639;42;000.328;MIDI 01
514.297;000.061;48;000.133;MIDI 01
514.364;000.133;52;000.320;MIDI 01
514.467;000.102;31;000.281;MIDI 01
514.443;000.216;43;000.289;MIDI 01
514.507;000.276;58;000.320;MIDI 01
514.644;000.201;49;000.211;MIDI 01
514.771;000.520;53;000.227;MIDI 01
515.245;000.242;58;000.422;MIDI 01
514.954;000.577;46;000.258;MIDI 01
514.965;000.763;34;000.266;MIDI 01
515.427;000.327;48;000.305;MIDI 01
515.591;000.223;52;000.250;MIDI 01
515.674;000.217;58;000.445;MIDI 01
515.700;000.217;45;000.352;MIDI 01
515.793;000.203;48;000.164;MIDI 01
515.956;000.171;51;000.391;MIDI 01
515.678;000.522;33;000.383;MIDI 01
516.085;000.230;58;000.422;MIDI 01
516.256;000.175;46;000.336;MIDI 01
516.379;000.075;50;000.336;MIDI 01
516.123;000.348;41;000.477;MIDI 01
516.501;000.128;58;000.438;MIDI 01
516.611;000.160;47;000.289;MIDI 01
516.114;000.781;29;000.398;MIDI 01
516.744;000.205;51;000.328;MIDI 01
516.869;000.243;30;000.320;MIDI 01
516.883;000.265;42;000.320;MIDI 01
517.015;000.195;48;000.195;MIDI 01
517.168;000.204;52;000.281;MIDI 01
516.876;000.504;58;000.359;MIDI 01
517.498;000.107;48;000.375;MIDI 01
517.609;000.136;52;000.391;MIDI 01
517.362;000.388;46;000.328;MIDI 01
517.860;000.067;49;000.305;MIDI 01
517.372;000.667;34;000.266;MIDI 01
517.753;000.312;58;000.438;MIDI 01
517.976;000.123;53;000.398;MIDI 01
518.056;000.094;45;000.398;MIDI 01
518.050;000.158;59;000.438;MIDI 01
518.195;000.091;50;000.297;MIDI 01
518.053;000.242;33;000.383;MIDI 01
518.329;000.121;54;000.391;MIDI 01
518.450;000.081;40;000.359;MIDI 01
518.436;000.150;28;000.438;MIDI 01
518.678;000.136;53;000.414;MIDI 01
518.456;000.419;58;000.469;MIDI 01
518.686;000.196;28;000.023;MIDI 01
518.798;000.124;57;000.422;MIDI 01
518.901;000.138;48;000.422;MIDI 01
519.034;000.059;53;000.367;MIDI 01
519.100;000.062;29;000.414;MIDI 01
519.106;000.061;41;000.398;MIDI 01
519.270;000.083;47;000.352;MIDI 01
519.108;000.335;56;000.469;MIDI 01
519.377;000.109;51;000.398;MIDI 01
519.466;000.234;57;000.477;MIDI 01
519.683;000.152;52;000.492;MIDI 01
519.457;000.439;46;000.445;MIDI 01
519.928;000.051;49;000.391;MIDI 01
519.455;000.621;34;000.398;MIDI 01
519.812;000.319;58;000.516;MIDI 01
520.046;000.123;53;000.414;MIDI 01
520.121;000.094;45;000.492;MIDI 01
520.124;000.158;59;000.516;MIDI 01
520.128;000.216;33;000.438;MIDI 01
520.214;000.143;50;000.445;MIDI 01
520.395;000.109;54;000.438;MIDI 01
520.509;000.103;40;000.430;MIDI 01
520.599;000.089;49;000.352;MIDI 01
520.726;000.091;53;000.406;MIDI 01
520.858;000.065;57;000.352;MIDI 01
520.501;000.431;28;000.469;MIDI 01
520.677;000.307;40;000.023;MIDI 01
520.927;000.102;48;000.414;MIDI 01
520.519;000.556;58;000.430;MIDI 01
521.061;000.077;53;000.375;MIDI 01
521.335;000.067;47;000.281;MIDI 01
521.161;000.291;56;000.469;MIDI 01
521.440;000.174;51;000.391;MIDI 01
521.208;000.494;41;000.312;MIDI 01
521.667;000.144;57;000.422;MIDI 01
521.844;000.151;51;000.391;MIDI 01
521.724;000.460;42;000.352;MIDI 01
522.099;000.087;49;000.422;MIDI 01
522.248;000.194;53;000.266;MIDI 01
522.372;000.129;58;000.328;MIDI 01
522.133;000.429;41;000.352;MIDI 01
522.475;000.098;59;000.344;MIDI 01
522.595;000.064;50;000.242;MIDI 01
522.702;000.066;49;000.445;MIDI 01
522.834;000.069;48;000.445;MIDI 01
522.510;000.404;40;000.391;MIDI 01
522.949;000.164;54;000.461;MIDI 01
522.858;000.292;39;000.406;MIDI 01
523.102;000.058;59;000.289;MIDI 01
523.161;000.129;60;000.484;MIDI 01
523.305;000.084;56;000.391;MIDI 01
523.164;000.297;38;000.422;MIDI 01
521.708;001.806;34;000.203;MIDI 01
523.481;000.040;53;000.320;MIDI 01
523.599;000.103;59;000.359;MIDI 01
523.700;000.098;61;000.438;MIDI 01
523.553;000.327;37;000.375;MIDI 01
523.815;000.134;63;000.477;MIDI 01
523.844;000.194;49;000.398;MIDI 01
523.950;000.120;58;000.391;MIDI 01
524.078;000.039;56;000.305;MIDI 01
524.160;000.067;55;000.422;MIDI 01
524.169;000.170;48;000.484;MIDI 01
524.242;000.173;58;000.469;MIDI 01
524.390;000.066;63;000.312;MIDI 01
524.513;000.061;64;000.297;MIDI 01
524.530;000.051;65;000.180;MIDI 01
524.599;000.121;61;000.414;MIDI 01
524.715;000.032;57;000.367;MIDI 01
524.533;000.281;47;000.508;MIDI 01
524.841;000.061;56;000.438;MIDI 01
524.956;000.131;62;000.461;MIDI 01
524.825;000.270;46;000.500;MIDI 01
525.055;000.159;65;000.328;MIDI 01
525.149;000.122;66;000.492;MIDI 01
525.277;000.060;61;000.430;MIDI 01
525.147;000.226;45;000.453;MIDI 01
523.808;001.567;34;000.344;MIDI 01
525.360;000.036;60;000.258;MIDI 01
525.432;000.174;44;000.336;MIDI 01
525.568;000.049;34;000.484;MIDI 01
525.570;000.139;63;000.492;MIDI 01
525.674;000.078;67;000.414;MIDI 01
525.772;000.150;68;000.469;MIDI 01
525.903;000.070;63;000.391;MIDI 01
525.750;000.227;54;000.578;MIDI 01
525.982;000.049;61;000.359;MIDI 01
526.065;000.122;60;000.531;MIDI 01
526.099;000.166;53;000.531;MIDI 01
526.191;000.147;63;000.477;MIDI 01
526.322;000.090;68;000.383;MIDI 01
526.399;000.100;69;000.531;MIDI 01
526.595;000.031;62;000.422;MIDI 01
526.524;000.104;66;000.484;MIDI 01
526.409;000.324;52;000.562;MIDI 01
526.710;000.132;61;000.500;MIDI 01
526.853;000.093;67;000.461;MIDI 01
526.700;000.254;51;000.531;MIDI 01
526.971;000.045;69;000.148;MIDI 01
526.987;000.142;70;000.570;MIDI 01
527.111;000.071;66;000.445;MIDI 01
527.000;000.200;50;000.492;MIDI 01
526.746;000.476;46;000.391;MIDI 01
527.226;000.033;49;000.492;MIDI 01
527.228;000.044;64;000.188;MIDI 01
527.276;000.069;63;000.500;MIDI 01
527.374;000.054;66;000.258;MIDI 01
527.395;000.038;34;000.586;MIDI 01
527.403;000.083;67;000.484;MIDI 01
527.478;000.058;71;000.359;MIDI 01
527.541;000.053;71;000.094;MIDI 01
527.562;000.105;72;000.523;MIDI 01
527.696;000.089;68;000.398;MIDI 01
527.590;000.206;58;000.633;MIDI 01
527.761;000.044;66;000.430;MIDI 01
527.856;000.260;65;000.492;MIDI 01
527.991;000.128;69;000.555;MIDI 01
528.103;000.081;73;000.406;MIDI 01
527.884;000.307;57;000.492;MIDI 01
528.184;000.022;74;000.547;MIDI 01
528.296;000.124;66;000.492;MIDI 01
528.424;000.039;64;000.367;MIDI 01
528.192;000.312;56;000.523;MIDI 01
528.508;000.040;63;000.516;MIDI 01
528.639;000.120;71;000.508;MIDI 01
528.750;000.086;75;000.422;MIDI 01
528.821;000.107;76;000.477;MIDI 01
529.024;000.029;64;000.445;MIDI 01
528.935;000.137;70;000.430;MIDI 01
528.530;000.553;55;000.516;MIDI 01
528.869;000.323;54;000.461;MIDI 01
529.179;000.039;61;000.508;MIDI 01
529.303;000.050;69;000.422;MIDI 01
528.210;001.420;46;000.422;MIDI 01
529.411;000.225;77;000.477;MIDI 01
529.185;000.493;53;000.453;MIDI 01
529.591;000.121;61;000.531;MIDI 01
529.716;000.089;72;000.320;MIDI 01
529.569;000.251;76;000.469;MIDI 01
529.853;000.077;71;000.391;MIDI 01
530.149;000.124;70;000.445;MIDI 01
529.974;000.356;71;000.031;MIDI 01
530.310;000.062;73;000.320;MIDI 01
530.097;000.692;82;000.578;MIDI 01
530.661;000.135;72;000.391;MIDI 01
530.508;000.405;76;000.477;MIDI 01
530.404;000.550;77;000.430;MIDI 01
530.727;000.348;81;000.539;MIDI 01
531.066;000.086;80;000.492;MIDI 01
531.015;000.197;70;000.477;MIDI 01
531.172;000.066;73;000.406;MIDI 01
530.864;000.386;71;000.398;MIDI 01
531.268;000.221;77;000.484;MIDI 01
531.402;000.124;76;000.484;MIDI 01
531.484;000.053;71;000.062;MIDI 01
531.509;000.061;72;000.383;MIDI 01
531.461;000.379;69;000.305;MIDI 01
531.652;000.211;71;000.391;MIDI 01
531.773;000.166;70;000.430;MIDI 01
531.904;000.070;73;000.430;MIDI 01
531.791;000.278;68;000.508;MIDI 01
532.116;000.053;67;000.469;MIDI 01
531.989;000.244;77;000.422;MIDI 01
532.203;000.045;66;000.289;MIDI 01
532.104;000.308;76;000.453;MIDI 01
532.329;000.121;70;000.500;MIDI 01
532.462;000.160;71;000.500;MIDI 01
532.622;000.062;72;000.414;MIDI 01
532.748;000.066;76;000.164;MIDI 01
532.457;000.361;55;000.469;MIDI 01
532.758;000.141;77;000.477;MIDI 01
532.960;000.065;73;000.109;MIDI 01
532.948;000.078;70;000.367;MIDI 01
532.843;000.242;54;000.406;MIDI 01
533.160;000.053;52;000.156;MIDI 01
533.097;000.182;77;000.227;MIDI 01
533.170;000.126;76;000.484;MIDI 01
533.377;000.182;69;000.398;MIDI 01
533.495;000.207;70;000.414;MIDI 01
533.618;000.143;73;000.461;MIDI 01
533.460;000.351;43;000.344;MIDI 01
533.805;000.161;77;000.469;MIDI 01
533.983;000.038;70;000.359;MIDI 01
534.082;000.093;69;000.383;MIDI 01
534.152;000.214;70;000.430;MIDI 01
534.273;000.125;73;000.484;MIDI 01
533.811;000.694;42;000.414;MIDI 01
534.432;000.268;77;000.344;MIDI 01
534.707;000.100;76;000.430;MIDI 01
534.547;000.367;81;000.492;MIDI 01
534.982;000.082;73;000.445;MIDI 01
534.847;000.286;72;000.383;MIDI 01
535.069;000.179;77;000.367;MIDI 01
535.216;000.142;82;000.461;MIDI 01
535.487;000.070;81;000.406;MIDI 01
535.356;000.315;84;000.461;MIDI 01
535.661;000.203;76;000.266;MIDI 01
535.760;000.333;77;000.406;MIDI 01
535.933;000.241;82;000.359;MIDI 01
536.107;000.133;85;000.367;MIDI 01
536.250;000.325;88;000.375;MIDI 01
536.444;000.206;84;000.320;MIDI 01
536.616;000.328;81;000.359;MIDI 01
534.540;002.861;34;000.289;MIDI 01
534.539;002.894;41;000.344;MIDI 01
536.852;000.752;82;000.352;MIDI 01
537.148;001.160;85;000.328;MIDI 01
537.534;001.413;89;000.297;MIDI 01
538.455;002.040;94;000.227;MIDI 01
542.105;000.408;44;000.391;MIDI 01
542.349;000.218;53;000.438;MIDI 01
542.491;000.094;56;000.469;MIDI 01
542.633;000.248;61;000.422;MIDI 01
542.742;000.200;65;000.508;MIDI 01
542.872;002.504;68;000.430;MIDI 01
543.141;002.257;77;000.508;MIDI 01
543.200;002.326;73;000.375;MIDI 01
546.205;000.948;76;000.438;MIDI 01
546.234;000.971;72;000.391;MIDI 01
547.107;000.574;71;000.273;MIDI 01
547.065;000.623;75;000.383;MIDI 01
547.539;000.447;34;000.273;MIDI 01
547.800;000.238;41;000.320;MIDI 01
547.994;000.094;46;000.289;MIDI 01
548.154;000.316;53;000.156;MIDI 01
548.255;000.480;58;000.289;MIDI 01
548.413;001.216;61;000.289;MIDI 01
548.862;002.506;73;000.336;MIDI 01
548.900;002.587;70;000.242;MIDI 01
552.497;005.310;70;000.242;MIDI 01
553.418;005.752;65;000.266;MIDI 01
