Start;Duration;Pitch;Velocity;Instrument
001.064;001.208;78;000.445;MIDI 01
002.069;001.737;79;000.484;MIDI 01
003.756;000.597;78;000.406;MIDI 01
004.269;000.522;75;000.406;MIDI 01
001.121;003.790;54;000.281;MIDI 01
001.079;003.877;61;000.328;MIDI 01
001.090;003.933;64;000.289;MIDI 01
001.075;003.964;70;000.359;MIDI 01
004.683;000.398;76;000.461;MIDI 01
005.411;000.908;69;000.328;MIDI 01
005.383;001.948;76;000.453;MIDI 01
005.443;003.291;60;000.188;MIDI 01
005.402;003.354;64;000.203;MIDI 01
006.643;002.145;69;000.359;MIDI 01
008.674;000.985;62;000.297;MIDI 01
008.628;001.033;67;000.312;MIDI 01
009.432;000.446;71;000.422;MIDI 01
008.684;001.479;59;000.250;MIDI 01
010.027;002.012;66;000.391;MIDI 01
010.017;002.234;72;000.414;MIDI 01
012.592;000.621;74;000.422;MIDI 01
010.029;003.190;57;000.273;MIDI 01
011.082;002.194;76;000.414;MIDI 01
010.061;003.591;60;000.273;MIDI 01
013.099;000.620;71;000.406;MIDI 01
013.121;000.809;65;000.320;MIDI 01
013.594;000.465;72;000.461;MIDI 01
013.135;001.192;56;000.312;MIDI 01
014.423;001.274;64;000.258;MIDI 01
014.418;001.783;55;000.305;MIDI 01
014.380;002.161;72;000.492;MIDI 01
016.058;000.532;63;000.359;MIDI 01
015.255;001.511;67;000.391;MIDI 01
016.098;000.757;54;000.336;MIDI 01
016.417;000.478;69;000.445;MIDI 01
014.432;002.756;48;000.273;MIDI 01
016.759;000.510;62;000.430;MIDI 01
017.126;000.583;71;000.469;MIDI 01
016.788;001.007;53;000.359;MIDI 01
017.673;001.201;61;000.250;MIDI 01
017.709;001.801;52;000.250;MIDI 01
019.394;000.525;60;000.328;MIDI 01
017.651;002.403;69;000.438;MIDI 01
018.572;001.671;64;000.266;MIDI 01
017.700;002.611;45;000.289;MIDI 01
019.436;000.895;51;000.281;MIDI 01
019.834;000.981;66;000.367;MIDI 01
020.279;000.615;50;000.133;MIDI 01
020.239;000.871;59;000.391;MIDI 01
020.770;000.591;49;000.312;MIDI 01
020.282;001.121;43;000.250;MIDI 01
020.742;000.930;67;000.375;MIDI 01
021.650;001.258;66;000.367;MIDI 01
021.704;001.236;62;000.242;MIDI 01
021.708;001.240;50;000.234;MIDI 01
021.710;001.244;57;000.141;MIDI 01
021.716;001.417;38;000.297;MIDI 01
023.770;001.750;35;000.250;MIDI 01
023.811;001.710;50;000.023;MIDI 01
023.759;001.857;55;000.234;MIDI 01
023.733;001.885;64;000.281;MIDI 01
023.751;001.928;62;000.211;MIDI 01
026.333;002.894;57;000.164;MIDI 01
026.364;002.885;62;000.203;MIDI 01
026.325;002.934;66;000.242;MIDI 01
026.331;002.962;38;000.242;MIDI 01
026.366;002.953;50;000.086;MIDI 01
031.056;001.167;52;000.227;MIDI 01
031.050;001.481;40;000.305;MIDI 01
031.018;001.518;67;000.430;MIDI 01
031.045;001.602;59;000.281;MIDI 01
031.054;001.616;64;000.312;MIDI 01
032.413;000.708;69;000.375;MIDI 01
033.104;000.629;33;000.297;MIDI 01
033.106;002.312;66;000.219;MIDI 01
033.110;002.861;67;000.406;MIDI 01
032.977;003.205;60;000.258;MIDI 01
035.917;000.501;71;000.422;MIDI 01
036.405;001.096;67;000.461;MIDI 01
036.399;001.211;60;000.297;MIDI 01
036.422;001.228;64;000.359;MIDI 01
037.390;000.516;69;000.414;MIDI 01
034.757;003.235;52;000.289;MIDI 01
033.094;005.214;45;000.266;MIDI 01
037.923;000.673;50;000.258;MIDI 01
037.883;000.829;64;000.266;MIDI 01
037.906;000.925;59;000.359;MIDI 01
037.891;001.126;66;000.391;MIDI 01
039.036;000.221;54;000.289;MIDI 01
039.127;000.442;60;000.320;MIDI 01
039.310;000.343;69;000.453;MIDI 01
039.209;000.876;62;000.328;MIDI 01
039.943;000.568;31;000.250;MIDI 01
039.875;002.294;64;000.289;MIDI 01
039.926;002.295;66;000.406;MIDI 01
039.812;003.070;59;000.203;MIDI 01
042.728;000.609;69;000.375;MIDI 01
043.178;001.145;66;000.430;MIDI 01
043.190;001.138;64;000.320;MIDI 01
043.210;001.133;60;000.242;MIDI 01
044.143;000.504;67;000.406;MIDI 01
041.695;003.136;50;000.188;MIDI 01
044.688;000.856;62;000.234;MIDI 01
044.651;000.914;59;000.273;MIDI 01
044.639;000.932;64;000.391;MIDI 01
045.970;000.141;55;000.289;MIDI 01
039.940;006.218;43;000.250;MIDI 01
045.820;000.421;52;000.172;MIDI 01
044.692;001.575;48;000.289;MIDI 01
046.090;000.200;60;000.273;MIDI 01
046.189;000.154;64;000.383;MIDI 01
046.355;000.203;71;000.367;MIDI 01
047.035;000.833;30;000.273;MIDI 01
046.987;002.198;64;000.406;MIDI 01
046.832;003.255;59;000.258;MIDI 01
046.941;003.188;62;000.289;MIDI 01
049.888;000.499;67;000.289;MIDI 01
050.414;001.094;64;000.336;MIDI 01
048.778;002.770;48;000.281;MIDI 01
050.403;001.170;62;000.195;MIDI 01
051.401;000.716;66;000.383;MIDI 01
051.982;000.768;60;000.352;MIDI 01
050.416;002.534;57;000.266;MIDI 01
047.039;006.268;42;000.203;MIDI 01
051.977;001.424;63;000.312;MIDI 01
052.028;001.399;47;000.203;MIDI 01
053.271;000.442;59;000.305;MIDI 01
053.281;000.538;56;000.305;MIDI 01
053.279;000.809;48;000.289;MIDI 01
054.033;000.099;55;000.289;MIDI 01
054.019;000.232;58;000.398;MIDI 01
053.252;001.004;64;000.383;MIDI 01
054.001;000.376;66;000.469;MIDI 01
054.007;000.458;40;000.297;MIDI 01
054.010;000.714;49;000.398;MIDI 01
054.748;000.587;55;000.438;MIDI 01
054.552;000.915;67;000.398;MIDI 01
055.132;000.359;75;000.578;MIDI 01
055.424;000.578;76;000.586;MIDI 01
054.859;003.234;70;000.570;MIDI 01
055.924;002.178;64;000.422;MIDI 01
055.336;002.780;61;000.508;MIDI 01
055.926;004.572;78;000.539;MIDI 01
057.878;002.684;71;000.250;MIDI 01
057.930;002.699;63;000.219;MIDI 01
055.940;004.722;59;000.336;MIDI 01
061.776;000.864;59;000.203;MIDI 01
061.773;000.902;64;000.305;MIDI 01
061.779;001.368;52;000.281;MIDI 01
061.756;001.487;67;000.375;MIDI 01
063.032;000.325;60;000.398;MIDI 01
063.014;000.346;64;000.359;MIDI 01
063.011;000.802;69;000.516;MIDI 01
063.692;000.307;33;000.305;MIDI 01
063.680;000.418;45;000.312;MIDI 01
063.697;000.495;62;000.359;MIDI 01
063.724;000.478;64;000.305;MIDI 01
063.690;000.577;67;000.445;MIDI 01
065.442;000.094;76;000.305;MIDI 01
064.982;000.688;79;000.305;MIDI 01
065.540;000.274;76;000.039;MIDI 01
065.061;000.827;52;000.133;MIDI 01
065.458;000.459;64;000.234;MIDI 01
066.661;000.194;60;000.328;MIDI 01
066.664;000.618;55;000.336;MIDI 01
066.623;000.903;71;000.430;MIDI 01
067.068;000.700;62;000.320;MIDI 01
067.054;000.774;67;000.445;MIDI 01
067.072;001.131;52;000.297;MIDI 01
068.072;000.208;60;000.359;MIDI 01
068.091;000.509;45;000.289;MIDI 01
068.052;000.629;69;000.453;MIDI 01
068.542;000.614;64;000.289;MIDI 01
068.566;000.629;50;000.273;MIDI 01
068.554;000.764;59;000.289;MIDI 01
068.553;000.786;66;000.422;MIDI 01
069.568;000.206;54;000.219;MIDI 01
069.631;000.446;60;000.305;MIDI 01
069.798;000.344;69;000.438;MIDI 01
069.706;000.760;62;000.383;MIDI 01
070.361;000.449;31;000.273;MIDI 01
070.297;000.612;60;000.227;MIDI 01
070.341;000.630;64;000.227;MIDI 01
070.321;000.651;66;000.383;MIDI 01
071.706;000.612;78;000.297;MIDI 01
072.118;000.468;74;000.359;MIDI 01
072.156;000.466;62;000.250;MIDI 01
071.729;001.043;50;000.188;MIDI 01
073.392;000.214;59;000.305;MIDI 01
073.378;000.438;69;000.391;MIDI 01
073.397;000.610;54;000.289;MIDI 01
073.826;000.515;60;000.305;MIDI 01
073.403;000.991;62;000.266;MIDI 01
073.803;000.723;66;000.430;MIDI 01
073.839;000.832;50;000.328;MIDI 01
074.713;000.200;59;000.328;MIDI 01
074.751;000.204;62;000.094;MIDI 01
074.678;000.459;67;000.391;MIDI 01
074.715;000.798;43;000.242;MIDI 01
075.151;000.498;62;000.273;MIDI 01
075.153;000.595;57;000.312;MIDI 01
075.169;000.621;48;000.289;MIDI 01
075.155;000.873;64;000.312;MIDI 01
076.006;000.327;55;000.266;MIDI 01
076.055;000.314;60;000.344;MIDI 01
076.225;000.203;40;000.320;MIDI 01
076.188;000.604;67;000.328;MIDI 01
076.734;000.393;30;000.297;MIDI 01
076.763;000.480;42;000.227;MIDI 01
076.730;000.553;59;000.266;MIDI 01
076.706;000.592;64;000.336;MIDI 01
076.757;000.551;62;000.211;MIDI 01
078.111;000.579;76;000.289;MIDI 01
078.573;000.509;72;000.258;MIDI 01
078.591;000.496;60;000.195;MIDI 01
078.108;001.267;48;000.250;MIDI 01
079.892;000.200;57;000.273;MIDI 01
079.877;000.367;67;000.344;MIDI 01
080.355;000.353;62;000.242;MIDI 01
079.923;000.895;60;000.250;MIDI 01
080.344;000.567;59;000.266;MIDI 01
079.915;001.122;52;000.305;MIDI 01
080.353;001.040;48;000.336;MIDI 01
081.264;000.209;60;000.156;MIDI 01
080.304;001.179;64;000.359;MIDI 01
081.206;000.332;57;000.273;MIDI 01
081.175;000.698;66;000.383;MIDI 01
081.227;000.783;42;000.289;MIDI 01
081.828;000.583;57;000.211;MIDI 01
081.836;000.601;59;000.141;MIDI 01
081.830;000.831;63;000.359;MIDI 01
081.851;001.661;47;000.297;MIDI 01
083.276;000.268;56;000.359;MIDI 01
083.274;000.652;48;000.367;MIDI 01
083.227;001.000;64;000.414;MIDI 01
082.639;001.754;71;000.422;MIDI 01
084.028;000.458;66;000.375;MIDI 01
084.042;000.446;49;000.336;MIDI 01
084.051;000.439;40;000.375;MIDI 01
084.015;000.556;70;000.461;MIDI 01
084.073;000.517;55;000.258;MIDI 01
084.513;000.139;69;000.484;MIDI 01
084.848;000.576;70;000.555;MIDI 01
084.747;000.704;61;000.453;MIDI 01
085.071;000.424;75;000.555;MIDI 01
085.278;000.346;64;000.461;MIDI 01
084.496;001.140;67;000.445;MIDI 01
085.373;000.547;76;000.625;MIDI 01
085.862;000.865;69;000.500;MIDI 01
085.870;001.508;59;000.406;MIDI 01
087.200;000.489;68;000.344;MIDI 01
087.207;000.680;71;000.336;MIDI 01
087.206;000.746;58;000.305;MIDI 01
085.842;002.333;78;000.539;MIDI 01
087.818;000.754;67;000.406;MIDI 01
085.872;003.418;63;000.391;MIDI 01
087.851;001.510;57;000.375;MIDI 01
089.117;000.310;67;000.570;MIDI 01
088.817;000.679;78;000.562;MIDI 01
088.239;001.335;72;000.547;MIDI 01
088.506;001.106;75;000.570;MIDI 01
089.405;000.324;79;000.492;MIDI 01
090.097;000.372;69;000.398;MIDI 01
090.069;000.456;81;000.609;MIDI 01
090.050;000.699;60;000.289;MIDI 01
090.133;000.669;66;000.453;MIDI 01
090.752;000.606;83;000.594;MIDI 01
090.777;000.627;71;000.477;MIDI 01
091.160;000.246;64;000.375;MIDI 01
091.206;000.255;55;000.297;MIDI 01
091.170;000.641;76;000.477;MIDI 01
091.752;000.169;72;000.305;MIDI 01
091.758;000.234;62;000.336;MIDI 01
091.768;000.239;54;000.328;MIDI 01
089.629;002.425;50;000.305;MIDI 01
092.590;000.416;43;000.258;MIDI 01
092.916;000.287;50;000.297;MIDI 01
093.178;000.161;59;000.336;MIDI 01
091.711;001.916;84;000.500;MIDI 01
093.391;000.316;74;000.375;MIDI 01
093.573;000.309;79;000.320;MIDI 01
093.903;000.230;86;000.523;MIDI 01
093.953;000.358;71;000.273;MIDI 01
093.934;000.547;62;000.227;MIDI 01
094.530;000.129;72;000.359;MIDI 01
094.558;000.107;64;000.164;MIDI 01
093.944;001.078;67;000.320;MIDI 01
094.865;000.157;71;000.336;MIDI 01
094.922;000.220;62;000.234;MIDI 01
095.229;000.108;67;000.320;MIDI 01
095.220;000.255;74;000.352;MIDI 01
095.560;000.155;69;000.305;MIDI 01
095.558;000.312;60;000.273;MIDI 01
095.903;000.055;71;000.273;MIDI 01
095.964;000.100;62;000.039;MIDI 01
095.573;000.767;66;000.242;MIDI 01
096.234;000.139;69;000.234;MIDI 01
096.216;000.205;60;000.250;MIDI 01
096.530;000.152;66;000.289;MIDI 01
096.535;000.224;74;000.328;MIDI 01
096.870;000.121;67;000.242;MIDI 01
096.853;000.299;59;000.273;MIDI 01
097.191;000.061;69;000.336;MIDI 01
097.523;000.091;67;000.188;MIDI 01
097.508;000.184;59;000.336;MIDI 01
097.232;000.462;60;000.188;MIDI 01
096.899;000.835;64;000.188;MIDI 01
097.904;000.061;64;000.219;MIDI 01
097.864;000.177;74;000.352;MIDI 01
098.367;000.449;60;000.266;MIDI 01
098.371;000.447;69;000.195;MIDI 01
098.332;000.581;64;000.266;MIDI 01
098.846;000.276;62;000.242;MIDI 01
098.812;000.316;71;000.336;MIDI 01
098.823;000.446;66;000.289;MIDI 01
099.185;000.195;69;000.344;MIDI 01
099.157;000.502;64;000.305;MIDI 01
099.568;000.115;69;000.297;MIDI 01
099.193;000.539;60;000.211;MIDI 01
099.523;000.210;66;000.266;MIDI 01
098.323;001.494;81;000.492;MIDI 01
099.531;000.424;74;000.383;MIDI 01
100.106;000.233;43;000.320;MIDI 01
099.872;000.519;79;000.312;MIDI 01
100.427;000.108;67;000.305;MIDI 01
100.373;000.186;50;000.211;MIDI 01
100.583;000.072;59;000.305;MIDI 01
100.592;000.206;74;000.406;MIDI 01
100.772;000.143;79;000.461;MIDI 01
101.141;000.244;86;000.539;MIDI 01
101.222;000.279;71;000.336;MIDI 01
101.166;000.628;62;000.227;MIDI 01
101.704;000.097;72;000.367;MIDI 01
101.756;000.249;64;000.133;MIDI 01
102.024;000.067;71;000.297;MIDI 01
101.182;000.932;67;000.305;MIDI 01
102.010;000.239;62;000.273;MIDI 01
102.354;000.108;67;000.180;MIDI 01
102.351;000.261;74;000.336;MIDI 01
102.724;000.159;69;000.273;MIDI 01
102.740;000.373;60;000.195;MIDI 01
103.082;000.088;71;000.281;MIDI 01
103.110;000.270;62;000.211;MIDI 01
102.736;000.814;66;000.250;MIDI 01
103.390;000.208;69;000.289;MIDI 01
103.389;000.221;60;000.242;MIDI 01
103.729;000.182;66;000.273;MIDI 01
103.735;000.243;74;000.328;MIDI 01
104.046;000.144;67;000.281;MIDI 01
104.059;000.330;59;000.234;MIDI 01
104.422;000.074;69;000.273;MIDI 01
104.735;000.101;67;000.297;MIDI 01
104.429;000.415;60;000.250;MIDI 01
104.756;000.133;59;000.336;MIDI 01
104.070;000.858;64;000.250;MIDI 01
105.112;000.077;64;000.047;MIDI 01
105.098;000.230;74;000.328;MIDI 01
105.591;000.483;67;000.211;MIDI 01
105.593;000.482;60;000.234;MIDI 01
105.595;000.568;57;000.328;MIDI 01
106.050;000.280;69;000.406;MIDI 01
106.107;000.332;59;000.250;MIDI 01
105.599;000.855;64;000.281;MIDI 01
106.067;000.477;62;000.344;MIDI 01
105.540;001.058;79;000.492;MIDI 01
106.454;000.196;67;000.281;MIDI 01
106.444;000.401;60;000.328;MIDI 01
106.904;000.152;69;000.336;MIDI 01
106.408;000.693;57;000.289;MIDI 01
106.902;000.228;62;000.219;MIDI 01
106.910;000.351;78;000.438;MIDI 01
106.954;000.324;66;000.156;MIDI 01
107.350;000.265;40;000.297;MIDI 01
107.593;000.102;47;000.344;MIDI 01
107.606;000.091;64;000.328;MIDI 01
107.759;000.045;55;000.375;MIDI 01
107.789;000.166;71;000.359;MIDI 01
107.938;000.130;76;000.453;MIDI 01
108.324;000.316;86;000.523;MIDI 01
108.338;000.380;71;000.391;MIDI 01
108.366;000.534;62;000.359;MIDI 01
108.924;000.090;72;000.406;MIDI 01
108.995;000.239;64;000.188;MIDI 01
108.335;001.040;67;000.312;MIDI 01
109.246;000.160;71;000.344;MIDI 01
109.290;000.177;62;000.250;MIDI 01
109.653;000.035;67;000.328;MIDI 01
109.669;000.055;71;000.125;MIDI 01
109.618;000.239;74;000.383;MIDI 01
109.979;000.110;69;000.359;MIDI 01
110.008;000.294;60;000.219;MIDI 01
110.328;000.058;71;000.305;MIDI 01
110.326;000.189;62;000.234;MIDI 01
109.990;000.806;66;000.352;MIDI 01
110.657;000.153;69;000.273;MIDI 01
110.628;000.222;60;000.211;MIDI 01
110.981;000.076;66;000.188;MIDI 01
110.972;000.145;74;000.328;MIDI 01
111.271;000.123;67;000.336;MIDI 01
111.273;000.291;59;000.281;MIDI 01
111.612;000.043;69;000.344;MIDI 01
111.662;000.311;60;000.133;MIDI 01
111.931;000.080;67;000.359;MIDI 01
111.929;000.141;59;000.344;MIDI 01
111.315;000.775;64;000.281;MIDI 01
112.292;000.117;74;000.367;MIDI 01
112.269;000.169;64;000.266;MIDI 01
112.834;000.064;66;000.281;MIDI 01
112.784;000.398;78;000.570;MIDI 01
112.824;000.484;60;000.273;MIDI 01
112.829;000.562;57;000.352;MIDI 01
112.826;000.601;64;000.266;MIDI 01
113.333;000.217;67;000.289;MIDI 01
113.380;000.230;59;000.180;MIDI 01
113.314;000.344;62;000.328;MIDI 01
113.726;000.057;64;000.086;MIDI 01
113.657;000.153;66;000.352;MIDI 01
113.700;000.158;60;000.297;MIDI 01
114.084;000.123;62;000.336;MIDI 01
114.086;000.122;67;000.430;MIDI 01
114.102;000.120;59;000.344;MIDI 01
113.686;000.585;57;000.234;MIDI 01
114.107;000.191;64;000.344;MIDI 01
114.069;000.657;76;000.492;MIDI 01
114.783;000.068;64;000.344;MIDI 01
114.585;000.321;40;000.305;MIDI 01
114.926;000.070;71;000.344;MIDI 01
114.849;000.151;47;000.352;MIDI 01
115.066;000.053;55;000.336;MIDI 01
115.047;000.082;76;000.438;MIDI 01
115.209;000.118;74;000.414;MIDI 01
115.331;000.186;76;000.492;MIDI 01
115.635;000.404;86;000.523;MIDI 01
115.682;000.408;71;000.359;MIDI 01
115.697;000.619;62;000.281;MIDI 01
116.293;000.086;72;000.398;MIDI 01
116.348;000.233;64;000.289;MIDI 01
116.593;000.090;71;000.383;MIDI 01
115.695;001.003;67;000.312;MIDI 01
116.620;000.177;62;000.344;MIDI 01
116.958;000.058;67;000.164;MIDI 01
116.936;000.250;74;000.367;MIDI 01
117.304;000.148;69;000.234;MIDI 01
117.306;000.296;60;000.289;MIDI 01
117.642;000.043;71;000.383;MIDI 01
117.666;000.215;62;000.266;MIDI 01
117.941;000.091;69;000.352;MIDI 01
117.303;000.759;66;000.273;MIDI 01
117.939;000.129;60;000.328;MIDI 01
118.250;000.070;66;000.258;MIDI 01
118.252;000.076;74;000.406;MIDI 01
118.572;000.115;67;000.375;MIDI 01
118.594;000.329;59;000.273;MIDI 01
118.931;000.073;69;000.352;MIDI 01
118.970;000.361;60;000.227;MIDI 01
119.267;000.128;67;000.312;MIDI 01
118.591;000.845;64;000.336;MIDI 01
119.297;000.170;59;000.328;MIDI 01
119.673;000.045;71;000.156;MIDI 01
119.641;000.214;64;000.258;MIDI 01
120.200;000.190;59;000.445;MIDI 01
120.196;000.269;67;000.305;MIDI 01
120.764;000.119;69;000.406;MIDI 01
120.755;000.141;61;000.422;MIDI 01
120.576;000.394;47;000.023;MIDI 01
119.621;001.371;74;000.430;MIDI 01
119.963;001.034;45;000.336;MIDI 01
120.152;001.196;52;000.234;MIDI 01
121.166;000.188;67;000.406;MIDI 01
121.171;000.190;59;000.328;MIDI 01
120.211;001.471;64;000.250;MIDI 01
121.834;000.259;67;000.430;MIDI 01
121.869;000.241;62;000.352;MIDI 01
121.851;000.301;57;000.344;MIDI 01
120.154;002.353;76;000.484;MIDI 01
121.815;000.718;74;000.406;MIDI 01
122.704;000.080;62;000.047;MIDI 01
122.497;000.309;38;000.352;MIDI 01
122.757;000.154;45;000.297;MIDI 01
122.812;000.114;69;000.406;MIDI 01
122.942;000.077;74;000.406;MIDI 01
122.996;000.058;54;000.391;MIDI 01
123.160;000.058;74;000.375;MIDI 01
123.195;000.042;76;000.305;MIDI 01
123.314;000.381;81;000.492;MIDI 01
123.689;000.378;69;000.344;MIDI 01
123.686;000.382;66;000.352;MIDI 01
123.677;000.677;62;000.398;MIDI 01
123.223;001.152;74;000.125;MIDI 01
124.375;000.202;71;000.336;MIDI 01
124.402;000.553;61;000.312;MIDI 01
124.372;000.636;76;000.461;MIDI 01
124.354;000.827;66;000.312;MIDI 01
124.946;000.328;69;000.289;MIDI 01
124.892;000.414;74;000.398;MIDI 01
125.302;000.043;76;000.406;MIDI 01
124.940;000.778;62;000.320;MIDI 01
125.722;000.071;74;000.328;MIDI 01
125.742;000.120;71;000.344;MIDI 01
125.742;000.316;60;000.336;MIDI 01
125.796;000.328;74;000.047;MIDI 01
123.649;002.539;86;000.609;MIDI 01
125.737;000.497;66;000.359;MIDI 01
126.109;000.279;69;000.336;MIDI 01
126.082;000.463;81;000.492;MIDI 01
125.289;001.388;83;000.508;MIDI 01
126.095;000.666;62;000.391;MIDI 01
126.460;000.443;74;000.422;MIDI 01
126.836;000.130;71;000.406;MIDI 01
126.807;000.467;59;000.359;MIDI 01
126.810;000.481;76;000.469;MIDI 01
126.830;000.485;66;000.367;MIDI 01
127.177;000.228;69;000.422;MIDI 01
127.179;000.395;74;000.414;MIDI 01
127.176;000.646;62;000.477;MIDI 01
127.482;000.381;79;000.516;MIDI 01
127.486;000.386;76;000.383;MIDI 01
127.851;000.160;71;000.414;MIDI 01
127.849;000.487;74;000.438;MIDI 01
128.304;000.147;76;000.227;MIDI 01
126.434;002.067;86;000.531;MIDI 01
128.281;000.465;69;000.445;MIDI 01
128.297;000.469;62;000.406;MIDI 01
127.855;000.949;66;000.367;MIDI 01
128.274;000.614;78;000.484;MIDI 01
128.711;000.180;74;000.539;MIDI 01
128.700;000.209;86;000.555;MIDI 01
127.841;001.084;57;000.406;MIDI 01
129.275;000.096;64;000.320;MIDI 01
129.247;000.306;67;000.453;MIDI 01
129.264;000.444;59;000.367;MIDI 01
129.613;000.182;62;000.336;MIDI 01
129.603;000.326;57;000.438;MIDI 01
129.585;000.367;66;000.484;MIDI 01
129.919;000.163;76;000.516;MIDI 01
129.929;000.379;59;000.445;MIDI 01
130.272;000.352;57;000.312;MIDI 01
130.631;000.062;66;000.297;MIDI 01
130.250;000.455;67;000.500;MIDI 01
130.592;000.175;74;000.484;MIDI 01
130.251;000.796;50;000.336;MIDI 01
131.017;000.068;57;000.414;MIDI 01
129.293;001.795;54;000.367;MIDI 01
131.023;000.161;86;000.578;MIDI 01
130.607;000.600;59;000.359;MIDI 01
131.531;000.164;59;000.352;MIDI 01
132.030;000.128;62;000.305;MIDI 01
131.544;001.113;45;000.188;MIDI 01
132.024;000.651;66;000.328;MIDI 01
131.517;001.196;50;000.305;MIDI 01
131.519;001.210;67;000.461;MIDI 01
132.026;000.740;57;000.312;MIDI 01
132.889;000.064;43;000.352;MIDI 01
132.522;000.435;52;000.359;MIDI 01
133.204;000.321;64;000.312;MIDI 01
132.516;001.161;60;000.391;MIDI 01
133.191;000.745;67;000.438;MIDI 01
133.182;000.793;50;000.312;MIDI 01
133.965;000.567;66;000.266;MIDI 01
132.479;002.080;72;000.547;MIDI 01
133.997;000.641;62;000.203;MIDI 01
133.960;000.746;70;000.375;MIDI 01
135.072;000.239;57;000.305;MIDI 01
133.220;002.166;58;000.383;MIDI 01
134.000;001.419;52;000.328;MIDI 01
135.329;000.092;62;000.328;MIDI 01
135.458;000.035;66;000.383;MIDI 01
132.956;002.590;43;000.117;MIDI 01
135.628;000.067;69;000.398;MIDI 01
135.730;000.118;74;000.375;MIDI 01
135.836;000.055;78;000.406;MIDI 01
136.015;000.192;26;000.320;MIDI 01
136.182;000.168;38;000.352;MIDI 01
136.070;000.602;86;000.461;MIDI 01
136.597;000.314;88;000.500;MIDI 01
136.928;000.275;86;000.305;MIDI 01
136.929;000.282;79;000.359;MIDI 01
136.951;000.476;52;000.352;MIDI 01
137.207;000.249;88;000.406;MIDI 01
137.233;000.231;50;000.328;MIDI 01
137.438;000.174;54;000.391;MIDI 01
137.456;000.221;86;000.344;MIDI 01
137.481;000.208;81;000.281;MIDI 01
136.615;001.077;45;000.266;MIDI 01
137.634;000.118;50;000.367;MIDI 01
137.670;000.189;88;000.352;MIDI 01
137.851;000.125;81;000.352;MIDI 01
137.832;000.169;57;000.422;MIDI 01
137.848;000.159;86;000.391;MIDI 01
138.023;000.179;88;000.438;MIDI 01
138.033;000.319;54;000.336;MIDI 01
138.256;000.098;83;000.156;MIDI 01
138.211;000.174;86;000.391;MIDI 01
138.393;000.143;88;000.438;MIDI 01
138.192;000.389;59;000.422;MIDI 01
138.598;000.095;81;000.266;MIDI 01
138.565;000.149;86;000.422;MIDI 01
138.527;000.255;57;000.367;MIDI 01
138.376;000.423;52;000.281;MIDI 01
138.723;000.104;54;000.383;MIDI 01
138.729;000.204;88;000.375;MIDI 01
138.901;000.109;81;000.273;MIDI 01
138.904;000.193;86;000.352;MIDI 01
139.060;000.095;88;000.438;MIDI 01
138.881;000.377;62;000.352;MIDI 01
139.225;000.151;79;000.406;MIDI 01
139.304;000.094;86;000.195;MIDI 01
139.249;000.302;64;000.398;MIDI 01
139.408;000.192;88;000.375;MIDI 01
139.302;000.401;57;000.133;MIDI 01
139.566;000.155;86;000.398;MIDI 01
139.579;000.144;81;000.391;MIDI 01
139.598;000.130;66;000.391;MIDI 01
139.757;000.060;62;000.352;MIDI 01
139.743;000.159;88;000.445;MIDI 01
139.919;000.111;69;000.398;MIDI 01
139.927;000.118;81;000.359;MIDI 01
139.922;000.155;86;000.375;MIDI 01
140.097;000.203;88;000.391;MIDI 01
140.268;000.151;71;000.398;MIDI 01
140.297;000.194;83;000.336;MIDI 01
140.280;000.242;86;000.383;MIDI 01
140.101;000.511;66;000.289;MIDI 01
140.471;000.219;88;000.352;MIDI 01
140.482;000.396;64;000.180;MIDI 01
140.726;000.256;74;000.391;MIDI 01
140.735;000.312;86;000.328;MIDI 01
140.736;000.432;81;000.289;MIDI 01
140.970;000.470;88;000.344;MIDI 01
141.460;000.301;86;000.273;MIDI 01
141.005;001.052;66;000.258;MIDI 01
141.452;001.636;74;000.227;MIDI 01
141.415;005.378;78;000.383;MIDI 01
141.744;005.154;88;000.273;MIDI 01
142.057;004.875;86;000.320;MIDI 01
142.066;004.880;69;000.359;MIDI 01
143.607;003.394;74;000.281;MIDI 01
142.804;004.306;62;000.258;MIDI 01
148.529;000.874;64;000.477;MIDI 01
148.539;000.880;59;000.422;MIDI 01
148.526;001.154;52;000.391;MIDI 01
149.645;000.299;40;000.359;MIDI 01
148.521;001.435;67;000.523;MIDI 01
149.670;000.306;60;000.430;MIDI 01
149.679;000.331;64;000.281;MIDI 01
149.655;000.860;69;000.539;MIDI 01
150.358;000.376;62;000.367;MIDI 01
150.349;000.407;64;000.336;MIDI 01
150.344;000.454;33;000.328;MIDI 01
150.329;000.471;67;000.453;MIDI 01
150.363;000.555;45;000.391;MIDI 01
151.252;000.095;88;000.203;MIDI 01
151.351;000.409;88;000.023;MIDI 01
151.701;000.249;76;000.242;MIDI 01
152.090;000.408;64;000.367;MIDI 01
152.103;000.401;76;000.328;MIDI 01
152.486;000.295;83;000.266;MIDI 01
151.676;001.394;59;000.273;MIDI 01
152.925;000.360;71;000.477;MIDI 01
152.931;000.492;60;000.297;MIDI 01
153.500;000.442;71;000.375;MIDI 01
153.448;000.574;67;000.516;MIDI 01
153.871;000.153;76;000.562;MIDI 01
152.929;001.106;64;000.312;MIDI 01
154.279;000.114;69;000.531;MIDI 01
154.285;000.117;64;000.414;MIDI 01
154.297;000.171;60;000.422;MIDI 01
154.819;000.386;50;000.367;MIDI 01
154.856;000.539;64;000.234;MIDI 01
155.296;000.232;71;000.375;MIDI 01
154.809;000.778;59;000.453;MIDI 01
155.825;000.083;54;000.359;MIDI 01
154.803;001.334;66;000.453;MIDI 01
155.945;000.434;60;000.320;MIDI 01
156.324;000.128;31;000.438;MIDI 01
156.470;000.073;43;000.406;MIDI 01
156.119;000.566;69;000.469;MIDI 01
156.021;000.670;62;000.391;MIDI 01
156.651;000.048;59;000.234;MIDI 01
156.629;000.141;64;000.398;MIDI 01
156.624;000.191;66;000.438;MIDI 01
156.649;000.293;50;000.391;MIDI 01
157.261;000.503;88;000.383;MIDI 01
157.736;000.255;76;000.289;MIDI 01
157.745;000.756;59;000.320;MIDI 01
158.173;000.441;76;000.297;MIDI 01
158.553;000.181;83;000.320;MIDI 01
158.183;000.721;64;000.312;MIDI 01
158.983;000.148;71;000.227;MIDI 01
158.927;000.291;59;000.422;MIDI 01
158.920;000.344;69;000.539;MIDI 01
159.477;000.489;66;000.531;MIDI 01
158.915;001.061;62;000.492;MIDI 01
159.897;000.113;76;000.555;MIDI 01
159.510;000.505;71;000.422;MIDI 01
159.498;000.531;60;000.422;MIDI 01
159.475;000.590;64;000.430;MIDI 01
160.264;000.155;67;000.555;MIDI 01
160.285;000.149;60;000.414;MIDI 01
160.289;000.194;57;000.391;MIDI 01
160.806;000.419;62;000.305;MIDI 01
161.214;000.031;71;000.438;MIDI 01
160.797;000.507;48;000.445;MIDI 01
160.769;000.547;59;000.445;MIDI 01
160.757;000.728;64;000.492;MIDI 01
161.640;000.176;55;000.250;MIDI 01
161.643;000.200;40;000.422;MIDI 01
161.627;000.229;60;000.305;MIDI 01
161.599;001.070;67;000.492;MIDI 01
162.312;000.380;59;000.336;MIDI 01
162.303;000.426;62;000.344;MIDI 01
162.275;000.469;64;000.477;MIDI 01
162.326;000.588;30;000.391;MIDI 01
162.342;000.637;42;000.336;MIDI 01
163.123;000.372;88;000.422;MIDI 01
163.552;000.200;76;000.367;MIDI 01
163.556;000.541;59;000.336;MIDI 01
163.959;000.217;64;000.367;MIDI 01
163.953;000.292;76;000.352;MIDI 01
164.296;000.260;83;000.406;MIDI 01
164.722;000.119;71;000.320;MIDI 01
164.672;000.308;67;000.477;MIDI 01
164.660;000.540;60;000.438;MIDI 01
164.679;000.570;57;000.344;MIDI 01
165.253;000.440;59;000.422;MIDI 01
165.317;000.409;71;000.250;MIDI 01
165.674;000.080;76;000.430;MIDI 01
165.240;000.525;64;000.562;MIDI 01
165.268;000.536;62;000.430;MIDI 01
166.034;000.118;60;000.406;MIDI 01
166.026;000.170;66;000.445;MIDI 01
166.032;000.169;57;000.359;MIDI 01
166.620;000.714;57;000.320;MIDI 01
166.600;000.824;63;000.445;MIDI 01
167.157;000.384;71;000.523;MIDI 01
166.614;001.239;47;000.398;MIDI 01
167.731;000.276;64;000.469;MIDI 01
167.745;000.285;56;000.383;MIDI 01
167.747;000.340;48;000.367;MIDI 01
167.742;000.358;59;000.414;MIDI 01
168.459;000.290;58;000.352;MIDI 01
168.475;000.345;40;000.391;MIDI 01
168.504;000.334;55;000.195;MIDI 01
168.451;000.477;66;000.461;MIDI 01
168.925;000.104;64;000.484;MIDI 01
168.901;000.166;67;000.523;MIDI 01
168.497;000.645;49;000.406;MIDI 01
169.301;000.108;66;000.422;MIDI 01
169.561;000.171;67;000.516;MIDI 01
169.302;000.432;70;000.531;MIDI 01
169.142;000.620;55;000.555;MIDI 01
169.558;000.246;75;000.586;MIDI 01
169.854;000.166;76;000.625;MIDI 01
169.739;000.560;61;000.578;MIDI 01
169.866;000.943;70;000.633;MIDI 01
170.236;000.783;64;000.484;MIDI 01
171.200;000.234;66;000.547;MIDI 01
170.759;000.861;61;000.594;MIDI 01
171.198;000.440;63;000.555;MIDI 01
170.239;001.543;78;000.617;MIDI 01
171.606;000.261;67;000.625;MIDI 01
171.193;000.718;71;000.539;MIDI 01
171.616;000.431;64;000.602;MIDI 01
172.036;000.192;69;000.625;MIDI 01
172.032;000.440;65;000.617;MIDI 01
172.476;000.243;70;000.633;MIDI 01
172.476;000.267;78;000.633;MIDI 01
172.478;000.336;66;000.531;MIDI 01
170.241;002.721;59;000.500;MIDI 01
172.957;000.314;71;000.609;MIDI 01
172.955;000.330;79;000.641;MIDI 01
172.974;000.744;67;000.555;MIDI 01
172.972;000.807;64;000.523;MIDI 01
173.482;000.389;81;000.711;MIDI 01
173.489;000.486;69;000.625;MIDI 01
173.488;000.710;72;000.633;MIDI 01
174.124;000.347;74;000.594;MIDI 01
174.111;000.530;79;000.641;MIDI 01
174.129;000.536;67;000.602;MIDI 01
174.866;000.346;67;000.531;MIDI 01
174.866;000.421;76;000.609;MIDI 01
174.858;000.430;79;000.594;MIDI 01
175.470;000.119;83;000.633;MIDI 01
175.484;000.222;71;000.578;MIDI 01
174.861;000.887;45;000.570;MIDI 01
175.510;000.477;52;000.453;MIDI 01
175.923;000.126;60;000.523;MIDI 01
175.918;000.256;78;000.539;MIDI 01
175.950;000.226;66;000.414;MIDI 01
175.947;000.322;74;000.398;MIDI 01
176.583;000.067;66;000.469;MIDI 01
176.530;000.159;74;000.398;MIDI 01
176.528;000.191;78;000.312;MIDI 01
176.387;000.348;71;000.680;MIDI 01
176.927;000.092;83;000.617;MIDI 01
176.939;000.111;71;000.516;MIDI 01
176.945;000.331;60;000.359;MIDI 01
177.303;000.144;64;000.516;MIDI 01
177.296;000.188;76;000.602;MIDI 01
177.654;000.074;64;000.492;MIDI 01
177.664;000.120;72;000.539;MIDI 01
177.644;000.167;76;000.617;MIDI 01
177.294;000.689;52;000.445;MIDI 01
178.019;000.043;71;000.438;MIDI 01
178.014;000.099;83;000.586;MIDI 01
178.404;000.095;74;000.516;MIDI 01
178.400;000.217;69;000.680;MIDI 01
178.019;000.875;60;000.547;MIDI 01
178.859;000.124;72;000.531;MIDI 01
178.872;000.152;57;000.547;MIDI 01
178.847;000.190;76;000.562;MIDI 01
178.870;000.190;67;000.641;MIDI 01
179.315;000.229;50;000.492;MIDI 01
179.308;000.259;69;000.477;MIDI 01
179.286;000.379;81;000.594;MIDI 01
179.701;000.081;66;000.578;MIDI 01
179.708;000.080;57;000.461;MIDI 01
179.671;000.157;78;000.562;MIDI 01
179.684;000.196;74;000.516;MIDI 01
180.269;000.192;66;000.539;MIDI 01
180.271;000.220;74;000.500;MIDI 01
180.251;000.274;78;000.609;MIDI 01
180.735;000.068;83;000.617;MIDI 01
180.759;000.072;71;000.516;MIDI 01
180.267;000.602;43;000.555;MIDI 01
180.768;000.431;50;000.547;MIDI 01
181.142;000.109;59;000.562;MIDI 01
181.110;000.235;76;000.516;MIDI 01
181.140;000.265;64;000.398;MIDI 01
181.673;000.213;72;000.555;MIDI 01
181.650;000.243;76;000.562;MIDI 01
181.648;000.298;69;000.664;MIDI 01
182.103;000.042;71;000.531;MIDI 01
182.084;000.070;83;000.625;MIDI 01
182.079;000.327;59;000.508;MIDI 01
182.461;000.095;62;000.414;MIDI 01
182.426;000.160;74;000.578;MIDI 01
182.775;000.024;62;000.438;MIDI 01
182.777;000.072;71;000.516;MIDI 01
182.436;000.423;50;000.438;MIDI 01
182.762;000.114;74;000.578;MIDI 01
183.118;000.067;83;000.594;MIDI 01
183.153;000.052;71;000.234;MIDI 01
183.490;000.021;72;000.406;MIDI 01
183.470;000.062;74;000.484;MIDI 01
183.461;000.123;67;000.664;MIDI 01
183.124;000.753;59;000.586;MIDI 01
183.877;000.035;74;000.359;MIDI 01
183.875;000.041;76;000.297;MIDI 01
183.845;000.310;66;000.672;MIDI 01
184.297;000.036;69;000.438;MIDI 01
184.276;000.205;81;000.625;MIDI 01
184.690;000.059;72;000.508;MIDI 01
184.274;000.489;60;000.586;MIDI 01
183.856;000.908;57;000.531;MIDI 01
184.679;000.087;64;000.570;MIDI 01
184.677;000.137;76;000.539;MIDI 01
185.186;000.191;64;000.539;MIDI 01
185.181;000.257;72;000.570;MIDI 01
185.176;000.275;76;000.609;MIDI 01
185.628;000.025;83;000.500;MIDI 01
185.653;000.020;71;000.406;MIDI 01
185.667;000.043;81;000.328;MIDI 01
185.229;000.492;42;000.414;MIDI 01
185.642;000.360;48;000.508;MIDI 01
185.979;000.073;57;000.617;MIDI 01
186.033;000.144;62;000.281;MIDI 01
185.959;000.230;74;000.562;MIDI 01
186.422;000.158;71;000.570;MIDI 01
186.411;000.191;74;000.555;MIDI 01
186.403;000.265;67;000.633;MIDI 01
186.810;000.030;81;000.516;MIDI 01
186.808;000.310;57;000.547;MIDI 01
187.130;000.124;60;000.539;MIDI 01
187.126;000.147;72;000.562;MIDI 01
187.476;000.041;60;000.539;MIDI 01
187.481;000.068;69;000.547;MIDI 01
187.475;000.099;72;000.578;MIDI 01
187.802;000.027;76;000.578;MIDI 01
187.152;000.683;52;000.547;MIDI 01
187.825;000.026;64;000.461;MIDI 01
188.139;000.035;71;000.539;MIDI 01
188.172;000.151;66;000.633;MIDI 01
187.789;000.775;57;000.570;MIDI 01
188.558;000.132;61;000.531;MIDI 01
188.578;000.140;54;000.453;MIDI 01
188.564;000.195;64;000.562;MIDI 01
188.585;000.183;69;000.398;MIDI 01
188.556;000.229;73;000.562;MIDI 01
188.995;000.110;47;000.445;MIDI 01
189.027;000.199;66;000.406;MIDI 01
188.992;000.264;78;000.562;MIDI 01
189.427;000.100;66;000.375;MIDI 01
189.412;000.201;75;000.531;MIDI 01
189.433;000.191;63;000.469;MIDI 01
189.451;000.176;54;000.367;MIDI 01
189.415;000.241;57;000.430;MIDI 01
189.435;000.266;69;000.430;MIDI 01
189.887;000.089;66;000.352;MIDI 01
189.897;000.096;63;000.430;MIDI 01
189.891;000.271;57;000.266;MIDI 01
189.869;000.410;75;000.477;MIDI 01
189.876;000.530;54;000.391;MIDI 01
190.287;000.172;67;000.547;MIDI 01
190.287;000.174;48;000.516;MIDI 01
190.284;000.224;79;000.570;MIDI 01
190.694;000.084;64;000.539;MIDI 01
190.701;000.086;59;000.445;MIDI 01
190.647;000.143;76;000.555;MIDI 01
190.658;000.164;71;000.516;MIDI 01
190.677;000.155;55;000.484;MIDI 01
191.010;000.066;59;000.375;MIDI 01
191.032;000.045;63;000.562;MIDI 01
191.034;000.055;54;000.500;MIDI 01
191.020;000.115;66;000.531;MIDI 01
191.012;000.232;78;000.625;MIDI 01
191.011;000.244;75;000.562;MIDI 01
191.415;000.128;47;000.609;MIDI 01
191.422;000.159;83;000.664;MIDI 01
191.424;000.180;71;000.586;MIDI 01
191.753;000.108;55;000.523;MIDI 01
191.780;000.126;64;000.500;MIDI 01
191.767;000.148;67;000.570;MIDI 01
191.772;000.164;76;000.578;MIDI 01
191.774;000.167;59;000.477;MIDI 01
191.755;000.203;79;000.617;MIDI 01
192.127;000.026;62;000.461;MIDI 01
192.104;000.051;66;000.625;MIDI 01
192.107;000.075;57;000.523;MIDI 01
192.124;000.138;69;000.641;MIDI 01
192.109;000.211;81;000.680;MIDI 01
192.117;000.215;78;000.633;MIDI 01
192.508;000.124;86;000.711;MIDI 01
192.520;000.139;50;000.656;MIDI 01
192.517;000.147;43;000.656;MIDI 01
192.514;000.194;74;000.672;MIDI 01
192.919;000.031;80;000.445;MIDI 01
192.893;000.091;59;000.523;MIDI 01
192.917;000.118;67;000.555;MIDI 01
192.891;000.167;71;000.617;MIDI 01
192.903;000.160;79;000.547;MIDI 01
192.881;000.184;83;000.609;MIDI 01
192.894;000.202;62;000.516;MIDI 01
193.278;000.038;66;000.609;MIDI 01
193.280;000.038;64;000.523;MIDI 01
193.276;000.088;57;000.586;MIDI 01
193.272;000.177;69;000.680;MIDI 01
193.274;000.244;78;000.664;MIDI 01
193.265;000.256;81;000.680;MIDI 01
193.744;000.150;40;000.680;MIDI 01
193.739;000.176;88;000.750;MIDI 01
193.742;000.181;52;000.711;MIDI 01
193.738;000.300;76;000.727;MIDI 01
194.259;000.172;83;000.680;MIDI 01
194.261;000.172;71;000.711;MIDI 01
194.274;000.169;79;000.641;MIDI 01
194.283;000.161;67;000.641;MIDI 01
194.286;000.175;64;000.586;MIDI 01
194.281;000.204;59;000.609;MIDI 01
195.173;000.002;57;000.109;MIDI 01
195.116;000.257;33;000.641;MIDI 01
195.114;000.277;45;000.711;MIDI 01
195.110;000.420;55;000.664;MIDI 01
195.110;000.435;60;000.672;MIDI 01
195.109;000.464;64;000.609;MIDI 01
195.104;000.479;67;000.711;MIDI 01
195.870;000.141;72;000.727;MIDI 01
195.874;000.161;60;000.695;MIDI 01
196.522;000.140;66;000.562;MIDI 01
196.545;000.123;54;000.453;MIDI 01
196.524;000.184;64;000.508;MIDI 01
196.516;000.252;60;000.477;MIDI 01
196.931;000.101;66;000.672;MIDI 01
196.950;000.084;54;000.578;MIDI 01
196.944;000.106;60;000.547;MIDI 01
196.933;000.124;64;000.555;MIDI 01
196.494;000.571;72;000.703;MIDI 01
196.498;000.731;81;000.672;MIDI 01
196.490;000.816;84;000.734;MIDI 01
197.330;000.033;72;000.648;MIDI 01
197.355;000.021;60;000.469;MIDI 01
197.808;000.221;52;000.508;MIDI 01
197.801;000.246;64;000.555;MIDI 01
197.806;000.268;57;000.500;MIDI 01
197.804;000.303;58;000.273;MIDI 01
197.796;000.314;60;000.539;MIDI 01
197.779;000.353;74;000.703;MIDI 01
197.777;000.368;83;000.656;MIDI 01
197.774;000.392;86;000.703;MIDI 01
198.294;000.090;52;000.539;MIDI 01
198.301;000.119;60;000.523;MIDI 01
198.287;000.134;64;000.641;MIDI 01
198.299;000.125;57;000.469;MIDI 01
198.286;000.166;84;000.711;MIDI 01
198.290;000.210;76;000.734;MIDI 01
198.281;000.302;88;000.727;MIDI 01
198.722;000.044;72;000.602;MIDI 01
198.730;000.043;60;000.438;MIDI 01
198.742;000.035;61;000.414;MIDI 01
198.727;000.100;86;000.594;MIDI 01
198.728;000.199;78;000.742;MIDI 01
198.730;000.266;90;000.719;MIDI 01
199.085;000.050;62;000.625;MIDI 01
199.083;000.081;50;000.617;MIDI 01
199.326;000.052;38;000.719;MIDI 01
199.097;000.304;79;000.750;MIDI 01
199.095;000.319;88;000.742;MIDI 01
199.093;000.361;91;000.742;MIDI 01
199.536;000.047;62;000.719;MIDI 01
199.534;000.122;90;000.812;MIDI 01
199.530;000.199;93;000.812;MIDI 01
199.539;000.212;81;000.805;MIDI 01
199.996;000.054;72;000.727;MIDI 01
199.986;000.073;83;000.781;MIDI 01
199.982;000.079;91;000.789;MIDI 01
199.977;000.091;95;000.758;MIDI 01
199.984;000.084;60;000.594;MIDI 01
199.998;000.078;67;000.633;MIDI 01
199.995;000.090;64;000.617;MIDI 01
200.552;000.001;73;000.305;MIDI 01
200.516;000.135;66;000.695;MIDI 01
200.520;000.194;54;000.648;MIDI 01
200.501;000.219;81;000.711;MIDI 01
200.518;000.218;74;000.656;MIDI 01
200.510;000.227;78;000.711;MIDI 01
200.506;000.260;69;000.781;MIDI 01
201.179;000.284;31;000.656;MIDI 01
201.177;000.324;43;000.672;MIDI 01
201.199;000.371;59;000.570;MIDI 01
201.185;000.387;62;000.609;MIDI 01
201.181;000.408;54;000.703;MIDI 01
201.176;000.497;66;000.703;MIDI 01
202.016;000.023;71;000.492;MIDI 01
201.982;000.074;60;000.680;MIDI 01
201.997;000.061;72;000.664;MIDI 01
202.474;000.164;62;000.531;MIDI 01
202.466;000.186;64;000.625;MIDI 01
202.468;000.199;59;000.562;MIDI 01
202.472;000.230;52;000.562;MIDI 01
202.454;000.472;71;000.750;MIDI 01
202.858;000.110;64;000.625;MIDI 01
202.856;000.116;52;000.641;MIDI 01
202.849;000.125;59;000.531;MIDI 01
202.860;000.123;62;000.586;MIDI 01
202.457;000.603;79;000.711;MIDI 01
202.449;000.717;83;000.734;MIDI 01
203.243;000.021;71;000.641;MIDI 01
203.632;000.166;50;000.586;MIDI 01
203.636;000.168;62;000.633;MIDI 01
203.641;000.166;55;000.578;MIDI 01
203.639;000.171;59;000.602;MIDI 01
203.629;000.244;81;000.719;MIDI 01
203.632;000.250;72;000.711;MIDI 01
203.626;000.297;84;000.727;MIDI 01
204.051;000.035;50;000.367;MIDI 01
204.043;000.075;62;000.562;MIDI 01
204.036;000.083;55;000.492;MIDI 01
204.041;000.088;59;000.508;MIDI 01
204.049;000.175;74;000.719;MIDI 01
204.047;000.213;83;000.680;MIDI 01
204.039;000.229;86;000.773;MIDI 01
204.396;000.025;71;000.648;MIDI 01
204.409;000.057;84;000.734;MIDI 01
204.415;000.065;76;000.750;MIDI 01
204.406;000.136;88;000.758;MIDI 01
204.770;000.045;60;000.633;MIDI 01
204.772;000.081;48;000.664;MIDI 01
204.783;000.136;86;000.703;MIDI 01
204.787;000.145;78;000.766;MIDI 01
204.995;000.051;36;000.703;MIDI 01
204.781;000.283;90;000.766;MIDI 01
205.206;000.031;62;000.672;MIDI 01
205.190;000.078;88;000.820;MIDI 01
205.193;000.086;79;000.781;MIDI 01
205.186;000.144;91;000.773;MIDI 01
205.339;000.047;62;000.180;MIDI 01
205.645;000.054;71;000.656;MIDI 01
205.641;000.069;81;000.773;MIDI 01
205.647;000.070;67;000.586;MIDI 01
205.640;000.078;59;000.539;MIDI 01
205.635;000.083;93;000.750;MIDI 01
205.643;000.078;90;000.797;MIDI 01
205.643;000.079;64;000.602;MIDI 01
206.167;000.167;64;000.648;MIDI 01
206.155;000.205;79;000.734;MIDI 01
206.165;000.211;76;000.680;MIDI 01
206.169;000.217;72;000.672;MIDI 01
206.174;000.228;52;000.625;MIDI 01
206.158;000.254;67;000.711;MIDI 01
206.819;000.266;30;000.680;MIDI 01
206.822;000.294;42;000.695;MIDI 01
206.804;000.569;52;000.727;MIDI 01
206.817;000.580;57;000.617;MIDI 01
206.810;000.588;60;000.664;MIDI 01
206.799;000.703;64;000.727;MIDI 01
207.676;000.043;59;000.398;MIDI 01
207.650;000.091;69;000.711;MIDI 01
207.652;000.127;57;000.680;MIDI 01
208.193;000.200;62;000.578;MIDI 01
208.199;000.199;57;000.500;MIDI 01
208.191;000.217;60;000.539;MIDI 01
208.197;000.211;50;000.516;MIDI 01
208.613;000.099;62;000.664;MIDI 01
208.185;000.529;69;000.695;MIDI 01
208.604;000.122;57;000.570;MIDI 01
208.615;000.114;60;000.570;MIDI 01
208.601;000.130;50;000.555;MIDI 01
208.183;000.705;78;000.719;MIDI 01
208.176;000.781;81;000.711;MIDI 01
208.984;000.030;69;000.633;MIDI 01
209.352;000.180;52;000.562;MIDI 01
209.361;000.174;48;000.523;MIDI 01
209.345;000.207;60;000.578;MIDI 01
209.340;000.250;71;000.703;MIDI 01
209.338;000.257;79;000.695;MIDI 01
209.330;000.289;83;000.695;MIDI 01
209.756;000.074;48;000.539;MIDI 01
209.750;000.096;52;000.531;MIDI 01
209.749;000.103;60;000.578;MIDI 01
209.754;000.177;72;000.711;MIDI 01
209.746;000.240;84;000.727;MIDI 01
209.752;000.238;81;000.719;MIDI 01
210.099;000.021;69;000.633;MIDI 01
210.106;000.034;57;000.594;MIDI 01
210.110;000.240;83;000.734;MIDI 01
210.116;000.249;74;000.734;MIDI 01
210.118;000.283;86;000.703;MIDI 01
210.466;000.074;59;000.633;MIDI 01
210.463;000.106;47;000.633;MIDI 01
210.492;000.216;76;000.742;MIDI 01
210.490;000.233;84;000.750;MIDI 01
210.482;000.269;88;000.773;MIDI 01
210.716;000.045;35;000.727;MIDI 01
210.950;000.044;60;000.680;MIDI 01
210.934;000.061;78;000.797;MIDI 01
210.939;000.059;87;000.656;MIDI 01
210.928;000.128;90;000.734;MIDI 01
211.367;000.053;69;000.625;MIDI 01
211.412;000.037;61;000.320;MIDI 01
211.376;000.095;57;000.516;MIDI 01
211.378;000.096;64;000.523;MIDI 01
211.369;000.115;60;000.359;MIDI 01
211.374;000.498;91;000.781;MIDI 01
211.816;000.072;59;000.586;MIDI 01
211.382;000.507;79;000.773;MIDI 01
211.380;000.518;88;000.773;MIDI 01
211.820;000.086;45;000.586;MIDI 01
211.810;000.100;47;000.523;MIDI 01
211.814;000.214;57;000.586;MIDI 01
212.090;000.188;71;000.680;MIDI 01
212.083;000.234;83;000.711;MIDI 01
212.271;000.080;40;000.562;MIDI 01
212.491;000.076;57;000.633;MIDI 01
212.486;000.421;71;000.695;MIDI 01
212.493;000.471;76;000.719;MIDI 01
212.486;000.517;83;000.703;MIDI 01
212.970;000.058;64;000.609;MIDI 01
213.483;000.085;45;000.461;MIDI 01
213.477;000.165;55;000.508;MIDI 01
213.834;000.093;40;000.500;MIDI 01
213.881;000.085;47;000.328;MIDI 01
213.983;000.252;55;000.664;MIDI 01
213.474;000.886;83;000.617;MIDI 01
213.459;000.947;88;000.703;MIDI 01
213.468;001.194;76;000.680;MIDI 01
214.494;000.328;59;000.602;MIDI 01
215.027;000.128;54;000.453;MIDI 01
215.018;000.147;45;000.438;MIDI 01
215.377;000.386;40;000.477;MIDI 01
215.417;000.384;47;000.195;MIDI 01
215.548;000.274;54;000.453;MIDI 01
215.002;000.876;83;000.578;MIDI 01
215.010;000.872;71;000.531;MIDI 01
215.006;000.908;76;000.539;MIDI 01
216.076;000.301;59;000.461;MIDI 01
216.617;000.128;52;000.273;MIDI 01
216.604;000.216;45;000.320;MIDI 01
217.258;000.361;52;000.297;MIDI 01
216.646;001.425;71;000.156;MIDI 01
217.300;000.774;47;000.188;MIDI 01
216.576;001.694;76;000.422;MIDI 01
216.613;001.775;64;000.312;MIDI 01
217.971;000.481;55;000.320;MIDI 01
218.661;001.579;47;000.281;MIDI 01
220.355;000.356;58;000.352;MIDI 01
219.946;000.782;59;000.297;MIDI 01
220.650;000.355;57;000.250;MIDI 01
220.921;000.430;55;000.281;MIDI 01
221.247;000.716;47;000.266;MIDI 01
217.262;004.975;40;000.250;MIDI 01
221.886;000.532;67;000.312;MIDI 01
222.500;000.227;65;000.367;MIDI 01
222.689;000.074;64;000.445;MIDI 01
222.228;000.610;66;000.414;MIDI 01
222.880;000.189;55;000.508;MIDI 01
223.090;000.328;71;000.570;MIDI 01
223.322;000.196;70;000.586;MIDI 01
223.495;000.198;69;000.617;MIDI 01
223.678;000.181;67;000.539;MIDI 01
224.246;000.272;55;000.438;MIDI 01
223.975;000.636;64;000.477;MIDI 01
224.794;000.275;56;000.375;MIDI 01
224.889;000.204;62;000.383;MIDI 01
224.953;000.285;65;000.414;MIDI 01
224.755;001.173;47;000.359;MIDI 01
224.588;001.390;40;000.297;MIDI 01
225.910;000.242;73;000.555;MIDI 01
225.681;000.639;74;000.438;MIDI 01
226.316;000.100;71;000.523;MIDI 01
226.130;000.337;72;000.586;MIDI 01
226.495;000.090;62;000.469;MIDI 01
227.073;000.255;53;000.359;MIDI 01
227.137;000.223;58;000.461;MIDI 01
227.230;000.236;61;000.391;MIDI 01
227.299;000.209;65;000.500;MIDI 01
226.752;000.986;34;000.336;MIDI 01
226.933;000.847;41;000.320;MIDI 01
227.065;000.740;46;000.289;MIDI 01
227.891;000.220;77;000.500;MIDI 01
228.047;000.164;76;000.492;MIDI 01
228.156;000.097;75;000.508;MIDI 01
228.240;000.051;73;000.469;MIDI 01
228.315;000.033;70;000.477;MIDI 01
228.373;000.049;65;000.391;MIDI 01
228.508;000.035;64;000.312;MIDI 01
228.594;000.182;63;000.477;MIDI 01
228.708;000.100;61;000.445;MIDI 01
228.797;000.051;58;000.344;MIDI 01
228.944;000.062;49;000.438;MIDI 01
229.027;000.159;41;000.367;MIDI 01
229.150;000.047;34;000.383;MIDI 01
229.251;000.084;65;000.383;MIDI 01
229.419;000.034;57;000.328;MIDI 01
229.435;000.097;49;000.344;MIDI 01
229.565;000.030;41;000.500;MIDI 01
229.676;000.055;69;000.422;MIDI 01
229.703;000.054;60;000.125;MIDI 01
229.726;000.044;61;000.258;MIDI 01
229.790;000.056;49;000.500;MIDI 01
229.940;000.039;34;000.359;MIDI 01
230.052;000.046;58;000.375;MIDI 01
230.056;000.047;61;000.219;MIDI 01
230.030;000.092;65;000.461;MIDI 01
230.162;000.033;49;000.430;MIDI 01
230.168;000.053;56;000.391;MIDI 01
230.295;000.033;43;000.555;MIDI 01
230.452;000.049;60;000.203;MIDI 01
230.408;000.109;68;000.523;MIDI 01
230.420;000.175;61;000.453;MIDI 01
230.533;000.064;49;000.508;MIDI 01
230.550;000.098;41;000.430;MIDI 01
230.659;000.028;34;000.578;MIDI 01
230.751;000.043;58;000.461;MIDI 01
230.740;000.076;65;000.531;MIDI 01
230.778;000.043;61;000.156;MIDI 01
230.873;000.075;55;000.602;MIDI 01
230.883;000.130;49;000.484;MIDI 01
231.030;000.033;41;000.547;MIDI 01
231.142;000.034;60;000.484;MIDI 01
231.128;000.109;67;000.602;MIDI 01
231.248;000.085;49;000.617;MIDI 01
231.122;000.247;61;000.594;MIDI 01
231.220;000.182;41;000.266;MIDI 01
231.384;000.040;34;000.609;MIDI 01
231.497;000.033;61;000.375;MIDI 01
231.456;000.075;65;000.617;MIDI 01
231.472;000.088;58;000.641;MIDI 01
231.592;000.059;54;000.633;MIDI 01
231.595;000.180;49;000.625;MIDI 01
231.779;000.047;41;000.484;MIDI 01
231.785;000.042;43;000.477;MIDI 01
231.954;000.181;54;000.625;MIDI 01
232.272;000.198;34;000.453;MIDI 01
232.417;000.059;42;000.477;MIDI 01
231.956;000.910;58;000.555;MIDI 01
232.550;000.420;53;000.633;MIDI 01
231.942;001.166;61;000.586;MIDI 01
231.944;001.214;66;000.664;MIDI 01
232.140;001.071;54;000.031;MIDI 01
232.930;000.315;52;000.531;MIDI 01
233.205;000.228;51;000.508;MIDI 01
233.470;000.289;49;000.555;MIDI 01
233.729;000.320;46;000.453;MIDI 01
234.049;000.935;42;000.359;MIDI 01
234.984;000.500;59;000.500;MIDI 01
235.197;000.404;58;000.523;MIDI 01
234.700;000.926;60;000.391;MIDI 01
235.414;000.228;54;000.391;MIDI 01
235.800;000.361;65;000.508;MIDI 01
235.596;000.685;49;000.383;MIDI 01
236.059;000.241;64;000.539;MIDI 01
236.269;000.230;63;000.555;MIDI 01
236.486;000.302;61;000.547;MIDI 01
236.723;000.309;58;000.469;MIDI 01
236.995;000.522;56;000.469;MIDI 01
237.516;000.146;61;000.438;MIDI 01
237.425;000.371;55;000.383;MIDI 01
237.598;000.320;64;000.461;MIDI 01
237.338;001.177;46;000.375;MIDI 01
238.246;000.420;73;000.555;MIDI 01
237.204;001.572;39;000.406;MIDI 01
238.529;000.435;72;000.625;MIDI 01
238.775;000.229;71;000.555;MIDI 01
238.973;000.151;70;000.617;MIDI 01
239.160;000.070;61;000.602;MIDI 01
239.728;000.224;52;000.516;MIDI 01
239.778;000.178;57;000.477;MIDI 01
239.841;000.176;60;000.562;MIDI 01
239.929;000.140;64;000.617;MIDI 01
239.304;000.824;33;000.445;MIDI 01
239.436;000.814;40;000.406;MIDI 01
239.592;000.668;48;000.562;MIDI 01
240.372;000.491;88;000.578;MIDI 01
240.810;000.293;87;000.570;MIDI 01
241.043;000.219;86;000.594;MIDI 01
240.765;000.630;76;000.711;MIDI 01
241.271;000.192;85;000.539;MIDI 01
241.276;000.336;75;000.617;MIDI 01
241.614;000.117;81;000.562;MIDI 01
241.461;000.330;84;000.539;MIDI 01
241.586;000.329;74;000.719;MIDI 01
241.772;000.221;76;000.531;MIDI 01
242.014;000.054;75;000.508;MIDI 01
242.145;000.131;74;000.500;MIDI 01
241.867;000.470;72;000.656;MIDI 01
242.300;000.321;69;000.555;MIDI 01
242.289;000.395;73;000.547;MIDI 01
242.576;000.142;72;000.461;MIDI 01
242.597;000.225;64;000.500;MIDI 01
242.787;000.041;69;000.461;MIDI 01
242.945;000.095;64;000.367;MIDI 01
243.072;000.107;63;000.445;MIDI 01
243.214;000.192;62;000.461;MIDI 01
243.367;000.132;60;000.469;MIDI 01
243.495;000.151;57;000.539;MIDI 01
243.642;000.146;52;000.531;MIDI 01
243.826;000.179;51;000.461;MIDI 01
244.035;000.153;52;000.406;MIDI 01
244.193;000.052;53;000.445;MIDI 01
244.580;000.597;54;000.398;MIDI 01
244.686;000.560;60;000.398;MIDI 01
244.851;000.450;63;000.367;MIDI 01
244.496;001.572;45;000.398;MIDI 01
244.347;001.891;38;000.383;MIDI 01
245.599;000.925;72;000.445;MIDI 01
246.400;000.152;69;000.484;MIDI 01
246.162;000.424;70;000.523;MIDI 01
245.918;000.688;71;000.500;MIDI 01
246.636;000.123;60;000.453;MIDI 01
246.952;000.634;30;000.344;MIDI 01
247.235;000.371;51;000.336;MIDI 01
247.174;000.496;42;000.297;MIDI 01
247.327;000.407;54;000.352;MIDI 01
247.457;000.317;59;000.102;MIDI 01
247.518;000.496;63;000.305;MIDI 01
248.235;000.646;62;000.266;MIDI 01
248.855;000.252;61;000.344;MIDI 01
248.593;000.594;75;000.297;MIDI 01
249.295;000.059;57;000.133;MIDI 01
249.134;000.390;74;000.438;MIDI 01
249.535;000.131;73;000.430;MIDI 01
249.499;000.238;51;000.141;MIDI 01
249.919;000.139;71;000.461;MIDI 01
249.762;000.481;42;000.312;MIDI 01
250.203;000.076;59;000.086;MIDI 01
250.167;000.160;68;000.414;MIDI 01
250.426;000.064;60;000.453;MIDI 01
250.433;000.120;69;000.469;MIDI 01
250.735;000.093;64;000.227;MIDI 01
250.783;000.127;61;000.375;MIDI 01
250.785;000.135;66;000.375;MIDI 01
250.835;000.242;64;000.023;MIDI 01
250.733;000.392;70;000.461;MIDI 01
250.925;000.374;66;000.023;MIDI 01
251.191;000.348;65;000.359;MIDI 01
251.558;000.031;64;000.430;MIDI 01
251.775;000.124;58;000.492;MIDI 01
251.999;000.127;52;000.414;MIDI 01
251.390;000.795;78;000.508;MIDI 01
252.218;000.267;42;000.477;MIDI 01
251.981;000.571;77;000.484;MIDI 01
252.373;000.205;76;000.508;MIDI 01
252.603;000.377;71;000.523;MIDI 01
252.819;000.218;68;000.477;MIDI 01
252.873;000.227;72;000.477;MIDI 01
253.061;000.176;57;000.414;MIDI 01
253.095;000.227;73;000.547;MIDI 01
253.099;000.424;63;000.297;MIDI 01
253.235;000.291;68;000.297;MIDI 01
253.512;000.081;66;000.484;MIDI 01
253.566;000.030;72;000.336;MIDI 01
253.335;000.497;69;000.586;MIDI 01
253.801;000.239;73;000.492;MIDI 01
253.803;000.258;57;000.461;MIDI 01
254.040;000.031;47;000.453;MIDI 01
253.541;000.562;81;000.555;MIDI 01
254.287;000.037;72;000.328;MIDI 01
254.022;000.334;80;000.633;MIDI 01
254.250;000.334;78;000.555;MIDI 01
254.545;000.065;72;000.352;MIDI 01
254.602;000.076;65;000.203;MIDI 01
254.539;000.289;77;000.625;MIDI 01
254.682;000.211;65;000.117;MIDI 01
254.614;000.434;72;000.102;MIDI 01
254.842;000.222;70;000.531;MIDI 01
255.050;000.051;68;000.539;MIDI 01
254.532;000.635;61;000.477;MIDI 01
254.807;000.532;73;000.586;MIDI 01
255.039;000.306;85;000.672;MIDI 01
255.291;000.168;61;000.547;MIDI 01
255.559;000.149;72;000.562;MIDI 01
255.550;000.175;84;000.609;MIDI 01
255.298;000.473;77;000.594;MIDI 01
255.589;000.290;53;000.359;MIDI 01
255.886;000.209;71;000.656;MIDI 01
255.911;000.215;44;000.375;MIDI 01
255.875;000.277;83;000.648;MIDI 01
256.337;000.389;70;000.609;MIDI 01
256.340;000.441;75;000.555;MIDI 01
256.326;000.547;82;000.672;MIDI 01
256.381;001.044;43;000.414;MIDI 01
257.458;000.030;58;000.586;MIDI 01
256.906;000.593;51;000.422;MIDI 01
257.056;000.562;75;000.625;MIDI 01
257.042;000.616;87;000.703;MIDI 01
257.782;000.264;74;000.594;MIDI 01
257.764;000.476;86;000.664;MIDI 01
258.224;000.032;82;000.320;MIDI 01
258.195;000.099;85;000.633;MIDI 01
258.221;000.175;73;000.570;MIDI 01
258.423;000.108;70;000.617;MIDI 01
257.843;000.733;62;000.523;MIDI 01
258.170;000.434;63;000.273;MIDI 01
258.857;000.184;61;000.484;MIDI 01
258.633;000.544;74;000.469;MIDI 01
258.589;000.619;75;000.602;MIDI 01
259.114;000.147;72;000.492;MIDI 01
258.849;000.439;73;000.602;MIDI 01
259.482;000.402;43;000.414;MIDI 01
259.876;000.094;50;000.422;MIDI 01
259.447;001.391;74;000.508;MIDI 01
260.340;000.500;70;000.391;MIDI 01
260.004;000.851;71;000.438;MIDI 01
259.459;001.418;72;000.352;MIDI 01
260.821;000.057;67;000.383;MIDI 01
260.156;000.728;62;000.398;MIDI 01
260.661;000.303;61;000.344;MIDI 01
260.981;000.033;60;000.422;MIDI 01
261.341;000.594;50;000.281;MIDI 01
261.319;000.622;60;000.375;MIDI 01
261.640;000.366;43;000.398;MIDI 01
261.622;000.391;59;000.422;MIDI 01
261.939;000.097;58;000.352;MIDI 01
261.953;000.343;42;000.289;MIDI 01
261.318;001.081;62;000.367;MIDI 01
262.332;000.245;41;000.336;MIDI 01
262.331;000.256;49;000.328;MIDI 01
262.344;000.407;58;000.305;MIDI 01
262.329;000.449;61;000.414;MIDI 01
263.166;000.392;70;000.375;MIDI 01
263.458;000.149;73;000.508;MIDI 01
263.168;000.507;66;000.344;MIDI 01
263.773;000.109;69;000.430;MIDI 01
264.109;000.098;68;000.414;MIDI 01
263.795;000.451;61;000.359;MIDI 01
264.111;000.278;65;000.383;MIDI 01
264.355;000.055;67;000.352;MIDI 01
264.363;000.257;83;000.523;MIDI 01
263.434;001.207;85;000.711;MIDI 01
264.361;000.282;58;000.383;MIDI 01
264.060;000.589;84;000.547;MIDI 01
264.648;000.057;66;000.383;MIDI 01
264.702;000.052;61;000.242;MIDI 01
264.817;000.169;73;000.516;MIDI 01
264.867;000.144;65;000.508;MIDI 01
264.807;000.253;82;000.539;MIDI 01
265.106;000.199;52;000.383;MIDI 01
265.103;000.221;72;000.461;MIDI 01
265.379;000.044;71;000.344;MIDI 01
265.370;000.111;73;000.438;MIDI 01
265.405;000.081;51;000.391;MIDI 01
265.774;000.288;42;000.391;MIDI 01
266.108;000.041;49;000.328;MIDI 01
266.228;000.667;70;000.383;MIDI 01
266.714;000.293;69;000.406;MIDI 01
265.779;001.576;71;000.375;MIDI 01
267.023;000.479;60;000.359;MIDI 01
267.229;000.640;68;000.344;MIDI 01
267.380;000.498;59;000.289;MIDI 01
265.750;002.284;73;000.453;MIDI 01
266.467;001.608;61;000.336;MIDI 01
267.834;000.269;66;000.367;MIDI 01
267.866;000.246;58;000.266;MIDI 01
268.651;000.640;42;000.203;MIDI 01
268.587;000.743;61;000.367;MIDI 01
268.634;000.944;49;000.242;MIDI 01
269.134;000.446;41;000.273;MIDI 01
269.145;000.603;56;000.273;MIDI 01
269.992;000.522;48;000.336;MIDI 01
270.014;000.580;40;000.258;MIDI 01
269.961;000.788;60;000.320;MIDI 01
270.469;000.776;59;000.281;MIDI 01
270.758;000.545;57;000.320;MIDI 01
271.098;000.228;55;000.281;MIDI 01
271.135;000.219;28;000.242;MIDI 01
271.123;000.358;40;000.234;MIDI 01
271.413;000.077;52;000.219;MIDI 01
271.648;000.045;47;000.328;MIDI 01
272.024;000.286;48;000.352;MIDI 01
272.326;000.548;59;000.344;MIDI 01
272.583;000.394;57;000.375;MIDI 01
272.864;000.258;55;000.336;MIDI 01
272.873;000.267;28;000.109;MIDI 01
272.858;000.354;40;000.297;MIDI 01
273.324;000.097;47;000.320;MIDI 01
273.116;000.581;52;000.305;MIDI 01
273.595;000.305;48;000.398;MIDI 01
274.231;000.111;56;000.344;MIDI 01
273.877;000.618;59;000.320;MIDI 01
274.054;000.470;57;000.312;MIDI 01
274.464;000.190;55;000.383;MIDI 01
274.460;000.253;28;000.281;MIDI 01
274.467;000.316;40;000.336;MIDI 01
274.990;000.099;46;000.266;MIDI 01
274.690;000.892;52;000.305;MIDI 01
275.301;000.380;47;000.297;MIDI 01
275.675;000.260;61;000.336;MIDI 01
276.141;000.188;28;000.297;MIDI 01
276.134;000.257;40;000.359;MIDI 01
276.640;000.076;46;000.320;MIDI 01
276.161;000.836;55;000.312;MIDI 01
276.889;000.180;47;000.367;MIDI 01
277.143;000.329;61;000.367;MIDI 01
276.395;001.098;52;000.336;MIDI 01
277.524;000.136;56;000.328;MIDI 01
277.369;000.295;57;000.055;MIDI 01
277.756;000.230;55;000.367;MIDI 01
277.810;000.197;28;000.023;MIDI 01
277.991;000.044;52;000.359;MIDI 01
277.752;000.297;40;000.336;MIDI 01
278.267;000.033;45;000.188;MIDI 01
278.674;000.238;46;000.336;MIDI 01
279.410;000.026;79;000.461;MIDI 01
279.061;000.675;60;000.312;MIDI 01
279.427;000.316;58;000.391;MIDI 01
278.731;001.096;62;000.281;MIDI 01
280.080;000.208;28;000.297;MIDI 01
280.064;000.299;50;000.367;MIDI 01
280.114;000.267;40;000.320;MIDI 01
279.733;000.904;55;000.336;MIDI 01
280.951;000.066;46;000.328;MIDI 01
280.353;000.932;62;000.344;MIDI 01
280.600;000.735;60;000.344;MIDI 01
281.217;000.149;50;000.383;MIDI 01
281.427;000.027;76;000.508;MIDI 01
280.791;000.765;58;000.375;MIDI 01
280.982;000.709;55;000.391;MIDI 01
281.909;000.030;26;000.109;MIDI 01
281.891;000.085;28;000.289;MIDI 01
281.889;000.144;40;000.359;MIDI 01
281.580;000.823;62;000.547;MIDI 01
281.861;000.703;60;000.438;MIDI 01
282.136;000.442;58;000.430;MIDI 01
282.531;000.133;46;000.469;MIDI 01
282.582;000.096;50;000.336;MIDI 01
283.058;000.037;72;000.594;MIDI 01
282.336;000.788;55;000.375;MIDI 01
282.809;000.692;62;000.445;MIDI 01
283.539;000.058;28;000.391;MIDI 01
283.103;000.505;60;000.422;MIDI 01
283.534;000.105;40;000.422;MIDI 01
283.322;000.408;58;000.461;MIDI 01
283.756;000.109;50;000.438;MIDI 01
283.532;000.496;55;000.477;MIDI 01
284.146;000.152;45;000.531;MIDI 01
284.199;000.305;62;000.453;MIDI 01
283.959;000.649;64;000.516;MIDI 01
284.627;000.035;69;000.609;MIDI 01
284.434;000.316;60;000.523;MIDI 01
285.083;000.036;40;000.391;MIDI 01
285.085;000.043;28;000.352;MIDI 01
285.096;000.056;26;000.258;MIDI 01
285.110;000.052;38;000.234;MIDI 01
285.071;000.124;52;000.531;MIDI 01
284.852;000.456;55;000.477;MIDI 01
285.575;000.100;45;000.562;MIDI 01
285.268;000.588;64;000.523;MIDI 01
285.450;000.418;62;000.445;MIDI 01
285.628;000.274;60;000.531;MIDI 01
286.036;000.020;67;000.570;MIDI 01
285.827;000.387;55;000.531;MIDI 01
286.220;000.035;52;000.539;MIDI 01
286.629;000.175;28;000.461;MIDI 01
286.630;000.225;40;000.461;MIDI 01
287.076;000.270;93;000.469;MIDI 01
286.911;000.436;95;000.477;MIDI 01
287.190;000.178;92;000.469;MIDI 01
287.312;000.070;91;000.430;MIDI 01
287.424;000.053;88;000.508;MIDI 01
287.546;000.050;45;000.430;MIDI 01
287.565;000.045;40;000.477;MIDI 01
287.586;000.036;84;000.328;MIDI 01
287.566;000.075;83;000.430;MIDI 01
287.840;000.145;90;000.516;MIDI 01
287.964;000.029;64;000.547;MIDI 01
287.972;000.037;60;000.531;MIDI 01
287.984;000.046;55;000.445;MIDI 01
287.689;000.423;91;000.555;MIDI 01
287.980;000.165;89;000.578;MIDI 01
288.105;000.082;88;000.570;MIDI 01
288.228;000.051;84;000.516;MIDI 01
288.380;000.067;40;000.453;MIDI 01
288.378;000.084;33;000.492;MIDI 01
288.363;000.161;79;000.609;MIDI 01
288.609;000.174;81;000.500;MIDI 01
288.498;000.289;83;000.539;MIDI 01
288.711;000.101;80;000.516;MIDI 01
288.804;000.065;79;000.555;MIDI 01
288.908;000.044;76;000.531;MIDI 01
289.021;000.053;28;000.594;MIDI 01
289.010;000.091;33;000.578;MIDI 01
289.019;000.113;71;000.570;MIDI 01
289.153;000.190;79;000.562;MIDI 01
289.299;000.057;78;000.508;MIDI 01
289.367;000.034;60;000.602;MIDI 01
289.383;000.036;55;000.445;MIDI 01
289.391;000.036;52;000.406;MIDI 01
289.405;000.116;77;000.633;MIDI 01
289.506;000.076;76;000.594;MIDI 01
289.600;000.093;72;000.562;MIDI 01
289.724;000.030;67;000.633;MIDI 01
289.724;000.069;33;000.602;MIDI 01
289.730;000.072;40;000.609;MIDI 01
289.959;000.265;95;000.609;MIDI 01
290.084;000.156;93;000.594;MIDI 01
290.251;000.045;91;000.562;MIDI 01
290.168;000.134;92;000.539;MIDI 01
290.334;000.040;88;000.555;MIDI 01
290.392;000.079;45;000.641;MIDI 01
290.402;000.079;40;000.641;MIDI 01
290.428;000.066;83;000.617;MIDI 01
290.678;000.098;90;000.547;MIDI 01
290.747;000.033;64;000.578;MIDI 01
290.743;000.046;60;000.547;MIDI 01
290.762;000.030;55;000.539;MIDI 01
290.531;000.337;91;000.602;MIDI 01
290.780;000.127;89;000.641;MIDI 01
290.882;000.073;88;000.617;MIDI 01
290.985;000.042;84;000.523;MIDI 01
291.113;000.033;40;000.602;MIDI 01
291.161;000.002;33;000.094;MIDI 01
291.105;000.061;35;000.523;MIDI 01
291.110;000.113;79;000.656;MIDI 01
291.332;000.041;82;000.312;MIDI 01
291.318;000.084;81;000.492;MIDI 01
291.203;000.212;83;000.484;MIDI 01
291.346;000.071;30;000.117;MIDI 01
291.359;000.087;80;000.516;MIDI 01
291.448;000.028;79;000.500;MIDI 01
291.520;000.049;76;000.570;MIDI 01
291.606;000.073;28;000.641;MIDI 01
291.591;000.095;33;000.258;MIDI 01
291.634;000.074;71;000.625;MIDI 01
291.742;000.150;79;000.594;MIDI 01
291.858;000.062;78;000.586;MIDI 01
291.950;000.024;55;000.570;MIDI 01
291.948;000.027;60;000.633;MIDI 01
291.956;000.027;52;000.562;MIDI 01
291.959;000.045;79;000.266;MIDI 01
291.953;000.090;77;000.648;MIDI 01
292.030;000.068;76;000.555;MIDI 01
292.106;000.091;72;000.609;MIDI 01
292.231;000.021;67;000.641;MIDI 01
292.257;000.040;40;000.625;MIDI 01
292.257;000.047;33;000.562;MIDI 01
292.396;000.117;84;000.672;MIDI 01
292.506;000.102;83;000.602;MIDI 01
292.645;000.027;79;000.586;MIDI 01
292.767;000.041;74;000.609;MIDI 01
292.794;000.031;71;000.633;MIDI 01
292.814;000.029;72;000.547;MIDI 01
292.802;000.055;47;000.672;MIDI 01
292.800;000.065;41;000.680;MIDI 01
292.993;000.001;93;000.445;MIDI 01
293.153;000.039;55;000.562;MIDI 01
292.969;000.225;91;000.664;MIDI 01
293.100;000.110;89;000.609;MIDI 01
293.158;000.058;60;000.555;MIDI 01
293.155;000.078;64;000.633;MIDI 01
293.215;000.037;88;000.578;MIDI 01
293.276;000.054;84;000.633;MIDI 01
293.402;000.046;60;000.703;MIDI 01
293.404;000.066;52;000.688;MIDI 01
293.400;000.072;55;000.672;MIDI 01
293.393;000.145;79;000.641;MIDI 01
293.452;000.196;83;000.500;MIDI 01
293.610;000.071;80;000.516;MIDI 01
293.558;000.139;81;000.555;MIDI 01
293.691;000.071;79;000.578;MIDI 01
293.780;000.109;76;000.570;MIDI 01
293.890;000.018;71;000.695;MIDI 01
293.908;000.079;33;000.719;MIDI 01
293.911;000.091;40;000.727;MIDI 01
294.098;000.230;95;000.680;MIDI 01
294.331;000.064;64;000.742;MIDI 01
294.280;000.126;92;000.594;MIDI 01
294.225;000.184;93;000.570;MIDI 01
294.324;000.087;60;000.703;MIDI 01
294.328;000.084;55;000.750;MIDI 01
294.369;000.061;91;000.664;MIDI 01
294.499;000.050;88;000.250;MIDI 01
294.552;000.153;79;000.641;MIDI 01
294.610;000.124;83;000.492;MIDI 01
294.701;000.068;81;000.594;MIDI 01
294.761;000.032;52;000.586;MIDI 01
294.764;000.044;55;000.562;MIDI 01
294.733;000.082;80;000.578;MIDI 01
294.766;000.064;60;000.703;MIDI 01
294.885;000.036;74;000.594;MIDI 01
294.968;000.017;69;000.539;MIDI 01
294.995;000.034;71;000.414;MIDI 01
295.021;000.056;64;000.805;MIDI 01
295.015;000.084;60;000.742;MIDI 01
295.066;000.037;56;000.352;MIDI 01
295.023;000.085;55;000.734;MIDI 01
295.252;000.110;81;000.570;MIDI 01
295.291;000.092;80;000.547;MIDI 01
295.130;000.255;83;000.602;MIDI 01
295.390;000.051;79;000.641;MIDI 01
295.543;000.084;28;000.719;MIDI 01
295.546;000.090;33;000.758;MIDI 01
295.575;000.151;71;000.711;MIDI 01
295.699;000.091;69;000.570;MIDI 01
295.750;000.109;68;000.555;MIDI 01
295.859;000.036;67;000.453;MIDI 01
295.913;000.050;64;000.633;MIDI 01
296.011;000.022;60;000.641;MIDI 01
296.082;000.134;59;000.602;MIDI 01
296.149;000.078;60;000.039;MIDI 01
296.208;000.101;57;000.578;MIDI 01
296.285;000.072;56;000.648;MIDI 01
296.382;000.085;55;000.641;MIDI 01
296.490;000.107;52;000.617;MIDI 01
296.566;000.037;48;000.703;MIDI 01
296.656;000.156;47;000.656;MIDI 01
296.777;000.083;45;000.516;MIDI 01
296.823;000.095;44;000.570;MIDI 01
296.910;000.075;43;000.594;MIDI 01
297.030;000.125;40;000.594;MIDI 01
297.143;000.066;36;000.656;MIDI 01
297.407;000.246;21;000.695;MIDI 01
297.418;000.258;33;000.719;MIDI 01
297.922;000.516;40;000.617;MIDI 01
298.318;000.223;45;000.477;MIDI 01
298.583;000.291;48;000.562;MIDI 01
299.061;000.183;52;000.500;MIDI 01
298.817;000.450;51;000.508;MIDI 01
299.307;000.231;60;000.445;MIDI 01
299.272;000.289;53;000.523;MIDI 01
299.423;000.186;63;000.492;MIDI 01
299.538;000.123;68;000.531;MIDI 01
299.668;000.070;71;000.430;MIDI 01
299.528;000.262;54;000.500;MIDI 01
299.758;000.087;64;000.484;MIDI 01
299.738;000.149;56;000.516;MIDI 01
299.899;000.049;71;000.562;MIDI 01
299.873;000.100;69;000.484;MIDI 01
299.894;000.114;57;000.547;MIDI 01
300.043;000.020;75;000.391;MIDI 01
300.045;000.077;58;000.578;MIDI 01
300.144;000.097;68;000.547;MIDI 01
300.178;000.115;59;000.531;MIDI 01
300.323;000.066;75;000.438;MIDI 01
300.286;000.111;60;000.492;MIDI 01
300.305;000.111;72;000.406;MIDI 01
300.393;000.048;77;000.406;MIDI 01
300.405;000.086;61;000.578;MIDI 01
300.478;000.052;69;000.523;MIDI 01
300.511;000.079;72;000.117;MIDI 01
300.524;000.077;62;000.500;MIDI 01
300.632;000.043;75;000.281;MIDI 01
300.640;000.052;63;000.461;MIDI 01
300.681;000.028;80;000.383;MIDI 01
300.749;000.095;72;000.438;MIDI 01
300.741;000.128;64;000.523;MIDI 01
300.822;000.123;75;000.391;MIDI 01
300.855;000.105;65;000.508;MIDI 01
300.930;000.043;80;000.422;MIDI 01
300.950;000.076;66;000.508;MIDI 01
301.025;000.039;83;000.219;MIDI 01
301.070;000.058;76;000.477;MIDI 01
301.047;000.111;67;000.531;MIDI 01
301.152;000.057;81;000.477;MIDI 01
301.185;000.059;83;000.391;MIDI 01
301.172;000.087;68;000.570;MIDI 01
301.307;000.039;87;000.273;MIDI 01
301.284;000.094;69;000.555;MIDI 01
301.344;000.091;80;000.508;MIDI 01
301.378;000.073;70;000.570;MIDI 01
301.442;000.087;84;000.461;MIDI 01
301.473;000.065;87;000.438;MIDI 01
301.519;000.039;72;000.352;MIDI 01
301.545;000.028;71;000.320;MIDI 01
301.554;000.075;81;000.570;MIDI 01
301.561;000.121;72;000.180;MIDI 01
301.696;000.043;87;000.344;MIDI 01
301.682;000.074;73;000.547;MIDI 01
301.712;000.057;92;000.500;MIDI 01
301.775;000.085;74;000.555;MIDI 01
301.815;000.089;84;000.492;MIDI 01
301.898;000.057;75;000.516;MIDI 01
301.935;000.036;90;000.469;MIDI 01
301.860;000.115;87;000.414;MIDI 01
301.985;000.058;94;000.461;MIDI 01
301.993;000.134;76;000.516;MIDI 01
302.126;000.084;77;000.469;MIDI 01
302.215;000.074;78;000.492;MIDI 01
302.072;000.300;88;000.500;MIDI 01
302.326;000.097;79;000.492;MIDI 01
302.460;000.101;80;000.461;MIDI 01
302.266;000.303;94;000.438;MIDI 01
302.172;000.421;91;000.492;MIDI 01
302.404;000.241;97;000.516;MIDI 01
302.625;000.053;98;000.273;MIDI 01
302.573;000.132;81;000.492;MIDI 01
302.714;000.095;82;000.477;MIDI 01
302.858;000.177;83;000.461;MIDI 01
302.980;000.144;84;000.484;MIDI 01
303.119;000.109;85;000.484;MIDI 01
303.281;000.302;86;000.477;MIDI 01
303.549;000.439;87;000.367;MIDI 01
302.593;001.575;100;000.328;MIDI 01
303.905;000.915;88;000.422;MIDI 01
307.178;001.226;52;000.289;MIDI 01
308.012;000.589;33;000.203;MIDI 01
308.015;000.729;57;000.289;MIDI 01
308.614;000.232;64;000.273;MIDI 01
308.659;000.778;48;000.312;MIDI 01
309.244;000.202;71;000.406;MIDI 01
309.283;000.490;40;000.289;MIDI 01
309.283;001.076;59;000.094;MIDI 01
309.919;000.524;52;000.234;MIDI 01
309.911;000.535;60;000.320;MIDI 01
310.364;000.501;45;000.227;MIDI 01
310.852;000.231;40;000.273;MIDI 01
310.822;000.283;52;000.328;MIDI 01
310.361;001.117;64;000.281;MIDI 01
311.430;000.322;36;000.305;MIDI 01
311.403;000.618;55;000.328;MIDI 01
311.926;000.227;64;000.352;MIDI 01
311.966;000.747;52;000.289;MIDI 01
312.512;000.214;71;000.398;MIDI 01
312.555;000.377;43;000.273;MIDI 01
313.102;000.346;55;000.219;MIDI 01
312.515;001.098;59;000.375;MIDI 01
313.099;000.560;60;000.320;MIDI 01
313.554;000.468;48;000.305;MIDI 01
314.086;000.185;43;000.266;MIDI 01
313.545;000.790;64;000.266;MIDI 01
314.055;000.421;52;000.281;MIDI 01
314.939;000.328;28;000.273;MIDI 01
314.895;000.833;56;000.289;MIDI 01
315.552;000.231;64;000.289;MIDI 01
315.629;000.673;47;000.227;MIDI 01
316.228;000.182;40;000.289;MIDI 01
316.184;000.252;71;000.375;MIDI 01
316.918;000.384;56;000.203;MIDI 01
316.196;001.132;59;000.281;MIDI 01
316.850;000.539;61;000.273;MIDI 01
317.250;000.144;64;000.305;MIDI 01
317.278;000.307;47;000.258;MIDI 01
317.676;000.381;64;000.242;MIDI 01
317.679;000.389;59;000.320;MIDI 01
318.097;000.422;61;000.250;MIDI 01
318.091;000.493;71;000.258;MIDI 01
318.507;000.363;64;000.258;MIDI 01
318.497;000.743;76;000.367;MIDI 01
318.926;000.616;71;000.273;MIDI 01
319.418;000.281;73;000.266;MIDI 01
319.943;000.951;71;000.281;MIDI 01
320.598;000.408;73;000.273;MIDI 01
321.578;001.180;71;000.312;MIDI 01
321.598;001.410;68;000.266;MIDI 01
321.534;001.556;80;000.547;MIDI 01
321.594;001.514;64;000.305;MIDI 01
323.027;000.219;63;000.336;MIDI 01
322.970;000.298;79;000.469;MIDI 01
323.281;000.249;66;000.289;MIDI 01
323.300;000.253;69;000.250;MIDI 01
323.268;000.290;73;000.336;MIDI 01
323.266;000.499;61;000.328;MIDI 01
323.246;000.672;78;000.438;MIDI 01
323.784;002.000;68;000.297;MIDI 01
323.782;002.065;64;000.320;MIDI 01
323.803;002.562;71;000.289;MIDI 01
326.411;000.330;63;000.305;MIDI 01
326.403;000.449;78;000.289;MIDI 01
323.755;003.210;80;000.445;MIDI 01
326.798;000.557;73;000.281;MIDI 01
326.804;000.567;64;000.336;MIDI 01
326.790;000.606;76;000.336;MIDI 01
326.812;000.629;69;000.305;MIDI 01
328.090;000.128;68;000.133;MIDI 01
326.818;001.429;61;000.281;MIDI 01
328.039;000.253;64;000.289;MIDI 01
328.031;000.445;71;000.336;MIDI 01
328.466;000.188;63;000.406;MIDI 01
328.650;000.308;61;000.422;MIDI 01
328.673;000.316;76;000.398;MIDI 01
328.459;000.551;78;000.484;MIDI 01
328.020;000.997;80;000.508;MIDI 01
328.915;000.268;71;000.336;MIDI 01
328.947;000.352;68;000.312;MIDI 01
328.920;000.381;63;000.344;MIDI 01
328.897;000.659;59;000.406;MIDI 01
328.882;000.825;75;000.477;MIDI 01
329.604;000.843;68;000.352;MIDI 01
329.649;000.895;71;000.227;MIDI 01
329.630;001.113;64;000.312;MIDI 01
329.596;001.265;76;000.336;MIDI 01
329.580;001.356;80;000.445;MIDI 01
330.974;000.065;78;000.023;MIDI 01
330.935;000.141;69;000.312;MIDI 01
330.929;000.221;73;000.297;MIDI 01
330.893;000.504;83;000.484;MIDI 01
330.931;000.546;63;000.297;MIDI 01
331.345;000.284;71;000.211;MIDI 01
331.311;000.320;76;000.375;MIDI 01
331.331;000.310;68;000.297;MIDI 01
331.326;000.345;64;000.336;MIDI 01
331.315;000.395;80;000.438;MIDI 01
332.153;002.865;80;000.383;MIDI 01
332.215;002.948;68;000.211;MIDI 01
332.226;002.956;71;000.117;MIDI 01
332.177;003.146;64;000.266;MIDI 01
332.170;003.498;76;000.289;MIDI 01
335.534;000.221;71;000.281;MIDI 01
335.501;000.746;78;000.461;MIDI 01
334.865;001.954;59;000.258;MIDI 01
336.210;001.257;68;000.203;MIDI 01
336.141;001.605;80;000.523;MIDI 01
336.171;001.720;75;000.312;MIDI 01
337.694;000.201;83;000.445;MIDI 01
336.197;001.764;66;000.273;MIDI 01
336.181;001.853;71;000.258;MIDI 01
339.205;000.518;40;000.273;MIDI 01
338.558;001.402;68;000.367;MIDI 01
339.752;000.340;49;000.336;MIDI 01
340.120;000.086;56;000.375;MIDI 01
338.654;001.816;73;000.398;MIDI 01
338.473;002.052;64;000.297;MIDI 01
338.742;002.036;76;000.484;MIDI 01
340.835;000.169;66;000.383;MIDI 01
340.786;000.501;75;000.500;MIDI 01
340.441;001.161;56;000.375;MIDI 01
341.205;000.431;76;000.492;MIDI 01
341.233;000.886;68;000.367;MIDI 01
341.231;000.903;64;000.391;MIDI 01
341.620;000.532;75;000.461;MIDI 01
341.994;000.741;76;000.469;MIDI 01
342.577;001.312;63;000.312;MIDI 01
342.517;001.406;78;000.500;MIDI 01
342.558;001.543;72;000.344;MIDI 01
343.798;000.312;80;000.359;MIDI 01
342.543;001.691;66;000.320;MIDI 01
342.002;002.305;56;000.289;MIDI 01
343.811;000.542;62;000.188;MIDI 01
344.867;000.883;40;000.273;MIDI 01
345.547;000.337;47;000.273;MIDI 01
345.901;000.073;54;000.266;MIDI 01
344.671;001.675;61;000.281;MIDI 01
344.739;001.907;64;000.273;MIDI 01
344.936;001.900;69;000.055;MIDI 01
346.613;000.381;59;000.328;MIDI 01
346.998;000.499;61;000.289;MIDI 01
346.249;001.300;57;000.297;MIDI 01
344.900;002.925;71;000.367;MIDI 01
347.469;001.056;59;000.320;MIDI 01
347.449;001.153;68;000.406;MIDI 01
347.473;001.192;64;000.336;MIDI 01
348.421;000.828;73;000.461;MIDI 01
349.134;000.846;63;000.359;MIDI 01
349.102;001.075;75;000.508;MIDI 01
349.137;001.054;68;000.352;MIDI 01
348.421;001.881;47;000.344;MIDI 01
349.143;001.307;59;000.367;MIDI 01
350.291;000.547;58;000.328;MIDI 01
350.581;000.277;76;000.422;MIDI 01
350.515;000.422;67;000.336;MIDI 01
350.441;000.613;62;000.266;MIDI 01
351.711;000.893;40;000.227;MIDI 01
352.374;000.385;47;000.242;MIDI 01
351.455;001.360;57;000.227;MIDI 01
351.540;001.503;61;000.344;MIDI 01
352.757;000.324;54;000.305;MIDI 01
353.525;000.364;57;000.320;MIDI 01
353.170;000.766;56;000.312;MIDI 01
353.884;000.527;59;000.320;MIDI 01
351.730;002.757;68;000.375;MIDI 01
351.669;002.850;66;000.164;MIDI 01
354.375;000.911;56;000.281;MIDI 01
355.195;000.101;47;000.219;MIDI 01
354.342;001.024;60;000.320;MIDI 01
354.344;001.119;64;000.344;MIDI 01
355.206;000.780;69;000.336;MIDI 01
355.829;000.680;71;000.445;MIDI 01
355.861;000.750;64;000.250;MIDI 01
355.849;000.905;59;000.328;MIDI 01
355.842;001.315;56;000.359;MIDI 01
357.095;000.493;55;000.266;MIDI 01
357.384;000.224;73;000.461;MIDI 01
355.300;002.357;47;000.023;MIDI 01
357.280;000.406;63;000.367;MIDI 01
357.182;000.739;58;000.320;MIDI 01
358.455;000.691;28;000.234;MIDI 01
359.101;000.166;40;000.250;MIDI 01
358.231;001.802;54;000.273;MIDI 01
358.294;001.740;57;000.086;MIDI 01
358.378;001.965;62;000.203;MIDI 01
359.960;000.510;49;000.273;MIDI 01
360.300;000.380;50;000.289;MIDI 01
359.571;001.171;47;000.250;MIDI 01
360.679;000.480;57;000.305;MIDI 01
358.462;002.778;64;000.281;MIDI 01
361.121;001.102;61;000.266;MIDI 01
361.134;001.151;56;000.219;MIDI 01
361.176;001.133;52;000.227;MIDI 01
362.039;000.881;66;000.297;MIDI 01
362.750;001.019;68;000.320;MIDI 01
362.780;001.225;54;000.211;MIDI 01
362.857;001.357;60;000.133;MIDI 01
362.811;001.449;51;000.305;MIDI 01
362.050;002.274;40;000.195;MIDI 01
364.113;000.460;69;000.211;MIDI 01
364.134;000.483;50;000.156;MIDI 01
365.465;000.366;28;000.250;MIDI 01
365.145;000.727;49;000.227;MIDI 01
365.239;000.634;52;000.156;MIDI 01
365.482;000.452;40;000.039;MIDI 01
365.431;000.561;57;000.023;MIDI 01
365.424;001.629;59;000.289;MIDI 01
366.458;000.932;49;000.258;MIDI 01
366.865;000.553;56;000.211;MIDI 01
367.250;000.468;57;000.258;MIDI 01
367.684;000.866;61;000.312;MIDI 01
368.269;000.662;64;000.211;MIDI 01
368.206;000.774;85;000.445;MIDI 01
368.949;001.012;68;000.258;MIDI 01
369.705;000.433;66;000.289;MIDI 01
368.980;001.302;59;000.297;MIDI 01
368.894;001.427;75;000.445;MIDI 01
370.084;000.256;63;000.305;MIDI 01
370.447;000.394;61;000.383;MIDI 01
370.922;000.526;56;000.164;MIDI 01
371.353;000.263;69;000.344;MIDI 01
371.399;000.227;54;000.203;MIDI 01
372.157;000.431;52;000.336;MIDI 01
372.036;000.589;49;000.344;MIDI 01
372.311;000.381;28;000.234;MIDI 01
372.265;000.515;57;000.211;MIDI 01
372.341;000.443;40;000.219;MIDI 01
372.262;001.630;59;000.391;MIDI 01
373.615;000.417;56;000.289;MIDI 01
373.215;000.831;49;000.281;MIDI 01
374.004;000.465;57;000.336;MIDI 01
374.430;000.750;61;000.344;MIDI 01
374.951;000.724;64;000.344;MIDI 01
374.906;000.844;85;000.516;MIDI 01
375.682;000.624;57;000.273;MIDI 01
375.684;001.027;68;000.320;MIDI 01
375.656;001.282;75;000.531;MIDI 01
376.397;000.547;66;000.312;MIDI 01
375.680;001.330;59;000.281;MIDI 01
376.851;000.297;63;000.305;MIDI 01
377.235;000.392;61;000.320;MIDI 01
377.698;000.549;56;000.273;MIDI 01
378.231;000.265;54;000.164;MIDI 01
378.219;000.309;69;000.297;MIDI 01
379.297;000.394;28;000.148;MIDI 01
379.308;000.464;40;000.227;MIDI 01
379.273;000.532;49;000.242;MIDI 01
379.330;000.621;52;000.070;MIDI 01
379.317;001.184;57;000.172;MIDI 01
380.784;000.536;56;000.297;MIDI 01
380.342;001.108;54;000.078;MIDI 01
379.248;002.642;59;000.242;MIDI 01
381.748;000.718;52;000.203;MIDI 01
381.255;001.255;57;000.266;MIDI 01
382.084;000.634;59;000.305;MIDI 01
382.788;000.465;51;000.234;MIDI 01
382.435;001.009;56;000.359;MIDI 01
383.132;000.526;59;000.305;MIDI 01
383.815;000.136;49;000.320;MIDI 01
383.469;001.195;54;000.297;MIDI 01
384.124;000.739;59;000.297;MIDI 01
384.846;000.552;57;000.250;MIDI 01
384.497;001.275;52;000.250;MIDI 01
385.168;000.748;59;000.250;MIDI 01
385.913;000.877;56;000.320;MIDI 01
385.584;001.221;51;000.250;MIDI 01
386.275;000.595;59;000.203;MIDI 01
387.025;000.759;54;000.258;MIDI 01
386.655;001.423;49;000.188;MIDI 01
387.394;001.059;59;000.211;MIDI 01
387.829;000.982;47;000.281;MIDI 01
388.809;000.647;45;000.289;MIDI 01
388.806;003.440;59;000.195;MIDI 01
388.322;003.965;52;000.219;MIDI 01
389.386;002.909;56;000.305;MIDI 01
389.454;002.865;51;000.250;MIDI 01
389.435;002.949;47;000.234;MIDI 01
389.452;003.054;44;000.227;MIDI 01
393.006;001.855;57;000.156;MIDI 01
392.993;003.185;49;000.195;MIDI 01
392.991;003.775;42;000.195;MIDI 01
396.099;000.781;58;000.180;MIDI 01
392.935;003.972;59;000.273;MIDI 01
396.674;000.928;48;000.203;MIDI 01
392.984;004.665;52;000.133;MIDI 01
396.673;001.385;41;000.234;MIDI 01
396.665;001.420;57;000.180;MIDI 01
398.119;005.197;52;000.156;MIDI 01
398.111;005.743;56;000.281;MIDI 01
398.148;005.721;47;000.141;MIDI 01
398.121;005.833;40;000.211;MIDI 01
398.102;005.903;59;000.297;MIDI 01
405.918;001.346;76;000.359;MIDI 01
408.363;000.589;76;000.406;MIDI 01
406.667;002.426;77;000.461;MIDI 01
405.941;003.429;62;000.242;MIDI 01
408.767;000.625;73;000.438;MIDI 01
405.925;003.522;68;000.289;MIDI 01
409.178;000.281;74;000.508;MIDI 01
405.948;003.514;59;000.289;MIDI 01
409.849;000.791;67;000.367;MIDI 01
405.954;005.131;52;000.164;MIDI 01
409.851;002.243;62;000.250;MIDI 01
409.864;002.259;58;000.266;MIDI 01
411.012;001.131;67;000.281;MIDI 01
412.384;000.029;56;000.359;MIDI 01
412.030;000.475;65;000.375;MIDI 01
409.800;002.912;74;000.406;MIDI 01
412.054;000.823;60;000.320;MIDI 01
412.071;000.811;57;000.297;MIDI 01
412.418;000.482;69;000.445;MIDI 01
412.842;000.613;70;000.477;MIDI 01
412.853;002.190;64;000.344;MIDI 01
412.907;002.596;55;000.305;MIDI 01
414.896;000.694;72;000.445;MIDI 01
413.334;002.597;74;000.492;MIDI 01
412.891;003.054;58;000.344;MIDI 01
415.482;000.535;54;000.258;MIDI 01
415.441;000.623;69;000.336;MIDI 01
415.428;000.691;63;000.266;MIDI 01
415.925;000.216;70;000.453;MIDI 01
416.665;000.440;62;000.391;MIDI 01
416.659;000.918;53;000.281;MIDI 01
417.405;000.562;61;000.445;MIDI 01
417.054;000.976;65;000.445;MIDI 01
416.613;001.621;70;000.539;MIDI 01
417.421;000.817;52;000.352;MIDI 01
416.649;002.095;46;000.328;MIDI 01
418.161;000.592;60;000.367;MIDI 01
418.164;000.598;67;000.391;MIDI 01
418.694;000.106;69;000.500;MIDI 01
418.203;000.942;51;000.336;MIDI 01
419.081;000.351;59;000.383;MIDI 01
419.098;000.860;50;000.250;MIDI 01
419.850;000.525;58;000.336;MIDI 01
419.457;001.040;62;000.383;MIDI 01
419.049;001.555;67;000.516;MIDI 01
419.090;001.635;43;000.305;MIDI 01
419.872;000.932;49;000.359;MIDI 01
420.272;000.592;64;000.414;MIDI 01
420.751;000.592;48;000.305;MIDI 01
420.739;000.624;41;000.320;MIDI 01
420.715;000.720;57;000.320;MIDI 01
421.288;000.334;47;000.281;MIDI 01
421.254;000.823;65;000.375;MIDI 01
422.054;001.397;60;000.227;MIDI 01
422.050;001.403;64;000.305;MIDI 01
422.059;001.415;55;000.219;MIDI 01
422.091;001.397;48;000.258;MIDI 01
422.083;001.999;36;000.258;MIDI 01
424.052;001.246;33;000.281;MIDI 01
424.075;001.389;48;000.117;MIDI 01
424.054;001.561;53;000.234;MIDI 01
424.038;001.604;62;000.297;MIDI 01
424.080;001.598;60;000.195;MIDI 01
426.497;000.119;55;000.109;MIDI 01
426.499;002.921;48;000.141;MIDI 01
426.501;002.974;60;000.172;MIDI 01
426.509;002.983;43;000.133;MIDI 01
426.505;003.075;36;000.195;MIDI 01
426.458;003.169;64;000.211;MIDI 01
430.347;000.096;29;000.602;MIDI 01
430.349;000.133;41;000.656;MIDI 01
