Start;Duration;Pitch;Velocity;Instrument
001.082;000.115;75;000.203;MIDI 01
001.079;000.202;64;000.188;MIDI 01
001.273;000.077;80;000.336;MIDI 01
001.025;000.402;71;000.234;MIDI 01
001.451;000.056;68;000.156;MIDI 01
001.456;000.053;76;000.242;MIDI 01
001.462;000.155;87;000.398;MIDI 01
001.652;000.156;90;000.391;MIDI 01
001.828;000.044;76;000.320;MIDI 01
001.836;000.100;87;000.414;MIDI 01
002.038;000.072;80;000.352;MIDI 01
002.221;000.055;73;000.352;MIDI 01
002.219;000.159;76;000.266;MIDI 01
002.301;000.078;80;000.344;MIDI 01
002.383;000.074;85;000.438;MIDI 01
002.497;000.108;88;000.406;MIDI 01
002.228;000.436;69;000.258;MIDI 01
002.653;000.105;71;000.203;MIDI 01
002.628;000.132;75;000.328;MIDI 01
002.642;000.176;64;000.297;MIDI 01
002.811;000.114;80;000.367;MIDI 01
002.996;000.047;68;000.273;MIDI 01
003.032;000.079;76;000.055;MIDI 01
003.007;000.173;87;000.398;MIDI 01
003.205;000.152;90;000.430;MIDI 01
003.386;000.054;76;000.242;MIDI 01
003.398;000.104;87;000.398;MIDI 01
003.587;000.072;80;000.406;MIDI 01
003.772;000.048;73;000.375;MIDI 01
003.802;000.083;76;000.188;MIDI 01
003.882;000.051;80;000.352;MIDI 01
003.965;000.060;85;000.438;MIDI 01
003.788;000.350;69;000.195;MIDI 01
004.056;000.124;88;000.453;MIDI 01
004.188;000.159;75;000.398;MIDI 01
004.196;000.216;64;000.250;MIDI 01
004.383;000.153;80;000.422;MIDI 01
004.204;000.342;71;000.219;MIDI 01
004.562;000.076;68;000.289;MIDI 01
004.596;000.085;76;000.344;MIDI 01
004.590;000.166;87;000.430;MIDI 01
004.759;000.157;90;000.461;MIDI 01
004.940;000.121;80;000.422;MIDI 01
004.935;000.128;76;000.219;MIDI 01
004.958;000.111;71;000.250;MIDI 01
005.124;000.120;87;000.445;MIDI 01
005.314;000.093;76;000.234;MIDI 01
005.356;000.053;83;000.102;MIDI 01
005.331;000.125;92;000.422;MIDI 01
005.497;000.049;95;000.414;MIDI 01
005.733;000.160;80;000.406;MIDI 01
005.731;000.251;69;000.289;MIDI 01
005.911;000.161;85;000.453;MIDI 01
005.673;000.447;76;000.281;MIDI 01
006.058;000.065;73;000.344;MIDI 01
006.100;000.030;81;000.344;MIDI 01
006.108;000.173;92;000.484;MIDI 01
006.280;000.085;97;000.508;MIDI 01
006.428;000.069;82;000.430;MIDI 01
006.465;000.126;92;000.477;MIDI 01
006.643;000.139;85;000.477;MIDI 01
006.776;000.134;62;000.094;MIDI 01
006.828;000.092;66;000.289;MIDI 01
006.872;000.049;78;000.398;MIDI 01
006.894;000.078;72;000.391;MIDI 01
006.958;000.090;84;000.453;MIDI 01
007.066;000.133;88;000.461;MIDI 01
007.131;000.190;92;000.430;MIDI 01
007.231;000.127;80;000.445;MIDI 01
007.216;000.279;69;000.188;MIDI 01
007.412;000.130;85;000.500;MIDI 01
007.205;000.357;76;000.250;MIDI 01
007.580;000.061;73;000.352;MIDI 01
007.621;000.033;81;000.398;MIDI 01
007.623;000.183;92;000.516;MIDI 01
007.794;000.111;97;000.547;MIDI 01
007.976;000.031;88;000.391;MIDI 01
008.006;000.045;81;000.406;MIDI 01
007.989;000.145;92;000.508;MIDI 01
008.183;000.149;85;000.477;MIDI 01
008.302;000.128;62;000.297;MIDI 01
008.351;000.130;66;000.281;MIDI 01
008.438;000.066;78;000.422;MIDI 01
008.428;000.126;72;000.398;MIDI 01
008.527;000.093;84;000.438;MIDI 01
008.629;000.132;88;000.477;MIDI 01
008.683;000.145;92;000.461;MIDI 01
008.793;000.134;80;000.484;MIDI 01
008.961;000.128;85;000.547;MIDI 01
008.766;000.375;69;000.398;MIDI 01
009.126;000.044;81;000.445;MIDI 01
008.755;000.434;76;000.438;MIDI 01
009.135;000.175;92;000.500;MIDI 01
009.309;000.042;97;000.508;MIDI 01
009.164;000.309;73;000.492;MIDI 01
009.494;000.092;66;000.352;MIDI 01
009.528;000.172;78;000.453;MIDI 01
009.561;000.251;72;000.266;MIDI 01
009.716;000.164;84;000.461;MIDI 01
009.903;000.099;69;000.367;MIDI 01
009.989;000.061;62;000.133;MIDI 01
009.930;000.188;88;000.414;MIDI 01
010.167;000.053;92;000.336;MIDI 01
010.449;000.116;68;000.367;MIDI 01
010.495;000.073;74;000.336;MIDI 01
010.596;000.074;80;000.367;MIDI 01
010.665;000.035;84;000.359;MIDI 01
010.734;000.079;88;000.469;MIDI 01
010.502;000.315;58;000.148;MIDI 01
010.836;000.042;65;000.367;MIDI 01
010.822;000.074;85;000.492;MIDI 01
010.904;000.041;81;000.500;MIDI 01
010.973;000.030;77;000.484;MIDI 01
010.858;000.172;55;000.398;MIDI 01
011.095;000.017;71;000.484;MIDI 01
011.195;000.050;62;000.219;MIDI 01
011.166;000.085;68;000.531;MIDI 01
011.282;000.046;74;000.398;MIDI 01
011.335;000.084;78;000.508;MIDI 01
011.404;000.039;82;000.492;MIDI 01
011.201;000.299;52;000.281;MIDI 01
011.545;000.061;59;000.305;MIDI 01
011.536;000.106;79;000.469;MIDI 01
011.532;000.139;49;000.375;MIDI 01
011.643;000.054;74;000.422;MIDI 01
011.734;000.030;71;000.422;MIDI 01
011.787;000.033;65;000.445;MIDI 01
011.970;000.097;46;000.281;MIDI 01
011.953;000.119;56;000.312;MIDI 01
011.982;000.168;62;000.352;MIDI 01
012.178;000.081;68;000.406;MIDI 01
012.390;000.050;68;000.547;MIDI 01
012.380;000.154;72;000.438;MIDI 01
012.574;000.094;76;000.461;MIDI 01
012.783;000.128;72;000.391;MIDI 01
012.974;000.078;68;000.422;MIDI 01
013.131;000.095;59;000.320;MIDI 01
013.180;000.080;65;000.297;MIDI 01
013.178;000.099;67;000.266;MIDI 01
013.257;000.084;71;000.375;MIDI 01
013.341;000.070;74;000.438;MIDI 01
013.405;000.022;79;000.398;MIDI 01
013.144;000.408;49;000.305;MIDI 01
013.570;000.102;46;000.273;MIDI 01
013.562;000.128;56;000.305;MIDI 01
013.572;000.168;62;000.406;MIDI 01
013.767;000.086;68;000.469;MIDI 01
014.017;000.053;58;000.250;MIDI 01
013.982;000.092;68;000.641;MIDI 01
013.989;000.203;72;000.445;MIDI 01
014.207;000.126;76;000.438;MIDI 01
014.395;000.130;72;000.414;MIDI 01
014.576;000.092;68;000.445;MIDI 01
014.783;000.134;59;000.227;MIDI 01
014.806;000.143;65;000.297;MIDI 01
014.808;000.184;67;000.289;MIDI 01
014.908;000.085;71;000.359;MIDI 01
014.994;000.072;74;000.422;MIDI 01
015.064;000.024;79;000.406;MIDI 01
014.796;000.467;49;000.234;MIDI 01
015.230;000.206;56;000.312;MIDI 01
015.254;000.190;46;000.289;MIDI 01
015.262;000.264;62;000.398;MIDI 01
015.525;000.110;68;000.383;MIDI 01
015.826;000.045;58;000.391;MIDI 01
015.798;000.140;68;000.609;MIDI 01
015.871;000.212;72;000.305;MIDI 01
016.068;000.175;76;000.477;MIDI 01
016.269;000.140;72;000.445;MIDI 01
016.454;000.094;68;000.492;MIDI 01
016.783;000.224;68;000.438;MIDI 01
016.824;000.227;62;000.289;MIDI 01
016.826;000.471;58;000.305;MIDI 01
017.146;000.214;64;000.320;MIDI 01
017.395;000.106;62;000.336;MIDI 01
017.596;000.165;60;000.344;MIDI 01
017.688;000.123;62;000.383;MIDI 01
017.797;000.031;64;000.453;MIDI 01
017.884;000.153;66;000.422;MIDI 01
018.004;000.098;68;000.453;MIDI 01
018.078;000.084;70;000.500;MIDI 01
018.163;000.027;72;000.414;MIDI 01
017.933;000.353;56;000.344;MIDI 01
018.246;000.079;74;000.609;MIDI 01
018.223;000.147;64;000.430;MIDI 01
018.253;000.122;54;000.383;MIDI 01
018.330;000.098;76;000.562;MIDI 01
018.420;000.098;78;000.523;MIDI 01
018.486;000.068;80;000.500;MIDI 01
018.692;000.070;83;000.422;MIDI 01
018.677;000.098;79;000.367;MIDI 01
018.618;000.190;63;000.344;MIDI 01
017.893;000.979;60;000.180;MIDI 01
018.607;000.267;57;000.375;MIDI 01
018.845;000.059;71;000.453;MIDI 01
018.625;000.283;53;000.336;MIDI 01
018.227;000.682;58;000.391;MIDI 01
018.928;000.064;73;000.492;MIDI 01
018.988;000.036;75;000.523;MIDI 01
019.031;000.028;77;000.453;MIDI 01
019.117;000.040;79;000.531;MIDI 01
019.190;000.060;81;000.492;MIDI 01
019.184;000.151;40;000.359;MIDI 01
019.260;000.098;83;000.398;MIDI 01
019.320;000.042;85;000.375;MIDI 01
019.421;000.180;47;000.297;MIDI 01
019.480;000.142;80;000.188;MIDI 01
019.403;000.252;87;000.422;MIDI 01
019.690;000.059;56;000.258;MIDI 01
019.685;000.161;75;000.312;MIDI 01
019.933;000.101;80;000.367;MIDI 01
020.122;000.036;71;000.336;MIDI 01
020.118;000.068;64;000.312;MIDI 01
020.127;000.178;87;000.398;MIDI 01
020.339;000.161;90;000.406;MIDI 01
020.494;000.038;75;000.398;MIDI 01
020.547;000.032;63;000.297;MIDI 01
020.528;000.130;87;000.422;MIDI 01
020.720;000.118;80;000.422;MIDI 01
020.905;000.083;57;000.312;MIDI 01
020.920;000.088;73;000.430;MIDI 01
020.917;000.234;64;000.406;MIDI 01
021.017;000.135;80;000.406;MIDI 01
021.116;000.094;85;000.445;MIDI 01
021.189;000.043;52;000.336;MIDI 01
021.209;000.037;88;000.391;MIDI 01
021.326;000.049;59;000.266;MIDI 01
021.347;000.119;75;000.383;MIDI 01
021.466;000.033;68;000.312;MIDI 01
021.526;000.146;80;000.398;MIDI 01
021.735;000.052;71;000.367;MIDI 01
021.769;000.031;64;000.312;MIDI 01
021.739;000.167;87;000.422;MIDI 01
021.934;000.129;90;000.461;MIDI 01
022.130;000.021;75;000.422;MIDI 01
022.172;000.034;63;000.297;MIDI 01
022.134;000.101;87;000.438;MIDI 01
022.309;000.144;80;000.438;MIDI 01
022.536;000.097;73;000.359;MIDI 01
022.631;000.100;80;000.414;MIDI 01
022.533;000.215;57;000.242;MIDI 01
022.497;000.307;64;000.383;MIDI 01
022.765;000.053;52;000.383;MIDI 01
022.721;000.142;85;000.414;MIDI 01
022.798;000.073;88;000.391;MIDI 01
022.890;000.073;59;000.359;MIDI 01
022.941;000.150;75;000.430;MIDI 01
023.060;000.046;68;000.336;MIDI 01
023.150;000.198;80;000.469;MIDI 01
023.322;000.051;71;000.406;MIDI 01
023.355;000.049;64;000.328;MIDI 01
023.353;000.199;87;000.469;MIDI 01
023.543;000.229;90;000.523;MIDI 01
023.753;000.043;63;000.227;MIDI 01
023.729;000.095;75;000.414;MIDI 01
023.739;000.169;80;000.477;MIDI 01
023.940;000.146;87;000.500;MIDI 01
024.128;000.069;83;000.383;MIDI 01
024.191;000.059;76;000.109;MIDI 01
024.151;000.130;92;000.422;MIDI 01
024.458;000.054;95;000.383;MIDI 01
024.900;000.095;80;000.258;MIDI 01
024.975;000.091;88;000.523;MIDI 01
024.896;000.328;73;000.312;MIDI 01
025.193;000.102;83;000.422;MIDI 01
025.350;000.034;85;000.430;MIDI 01
025.378;000.191;76;000.398;MIDI 01
025.562;000.024;71;000.383;MIDI 01
025.791;000.039;73;000.219;MIDI 01
025.761;000.070;81;000.555;MIDI 01
025.942;000.052;76;000.469;MIDI 01
025.765;000.254;66;000.391;MIDI 01
026.105;000.061;69;000.172;MIDI 01
026.122;000.053;78;000.461;MIDI 01
026.197;000.034;64;000.375;MIDI 01
026.299;000.042;69;000.234;MIDI 01
026.345;000.032;76;000.453;MIDI 01
026.581;000.054;80;000.211;MIDI 01
026.598;000.110;88;000.555;MIDI 01
026.566;000.332;73;000.430;MIDI 01
026.804;000.096;83;000.438;MIDI 01
026.994;000.050;85;000.570;MIDI 01
027.036;000.177;76;000.344;MIDI 01
027.191;000.060;71;000.430;MIDI 01
027.439;000.034;73;000.297;MIDI 01
027.407;000.095;81;000.461;MIDI 01
027.608;000.078;76;000.430;MIDI 01
027.402;000.317;66;000.344;MIDI 01
027.756;000.047;69;000.297;MIDI 01
027.786;000.050;78;000.438;MIDI 01
027.874;000.029;64;000.344;MIDI 01
027.930;000.060;69;000.422;MIDI 01
028.042;000.037;76;000.469;MIDI 01
028.265;000.150;80;000.266;MIDI 01
028.345;000.116;88;000.430;MIDI 01
028.276;000.397;73;000.359;MIDI 01
028.560;000.130;83;000.398;MIDI 01
028.753;000.030;85;000.477;MIDI 01
028.796;000.048;80;000.266;MIDI 01
028.776;000.174;76;000.375;MIDI 01
028.941;000.046;71;000.414;MIDI 01
029.137;000.104;81;000.461;MIDI 01
029.135;000.260;66;000.328;MIDI 01
029.354;000.117;76;000.438;MIDI 01
029.549;000.020;78;000.398;MIDI 01
029.570;000.040;73;000.312;MIDI 01
029.551;000.142;69;000.406;MIDI 01
029.728;000.043;64;000.445;MIDI 01
029.969;000.109;57;000.328;MIDI 01
029.992;000.192;66;000.352;MIDI 01
029.998;000.234;63;000.281;MIDI 01
030.220;000.226;68;000.469;MIDI 01
030.530;000.183;73;000.383;MIDI 01
030.438;000.324;69;000.555;MIDI 01
030.521;000.303;63;000.289;MIDI 01
030.677;000.243;78;000.430;MIDI 01
030.859;000.134;68;000.500;MIDI 01
031.046;000.197;73;000.500;MIDI 01
031.262;000.087;75;000.469;MIDI 01
031.350;000.092;63;000.188;MIDI 01
031.298;000.150;66;000.320;MIDI 01
031.292;000.277;78;000.453;MIDI 01
031.546;000.211;85;000.414;MIDI 01
031.850;000.191;49;000.453;MIDI 01
031.881;000.208;56;000.328;MIDI 01
032.061;000.054;80;000.461;MIDI 01
032.094;000.030;73;000.336;MIDI 01
032.259;000.040;92;000.633;MIDI 01
032.270;000.036;68;000.438;MIDI 01
032.283;000.027;61;000.359;MIDI 01
032.451;000.031;73;000.406;MIDI 01
032.448;000.066;80;000.477;MIDI 01
032.629;000.034;61;000.430;MIDI 01
032.635;000.031;68;000.445;MIDI 01
032.729;000.085;85;000.523;MIDI 01
032.826;000.076;92;000.570;MIDI 01
032.930;000.030;97;000.484;MIDI 01
033.023;000.031;104;000.531;MIDI 01
033.019;000.038;80;000.289;MIDI 01
033.025;000.033;73;000.320;MIDI 01
033.107;000.068;97;000.430;MIDI 01
033.241;000.094;92;000.375;MIDI 01
033.369;000.040;85;000.414;MIDI 01
033.578;000.218;74;000.258;MIDI 01
033.741;000.181;78;000.359;MIDI 01
033.913;000.172;80;000.430;MIDI 01
034.100;000.112;85;000.383;MIDI 01
033.604;000.646;69;000.258;MIDI 01
034.046;000.207;81;000.188;MIDI 01
034.051;000.271;74;000.250;MIDI 01
034.225;000.099;90;000.453;MIDI 01
034.361;000.051;85;000.391;MIDI 01
034.422;000.047;74;000.367;MIDI 01
034.419;000.066;81;000.305;MIDI 01
034.464;000.036;80;000.438;MIDI 01
034.553;000.050;85;000.430;MIDI 01
034.620;000.041;80;000.461;MIDI 01
034.715;000.035;85;000.438;MIDI 01
034.803;000.054;90;000.484;MIDI 01
034.830;000.047;78;000.250;MIDI 01
034.901;000.048;97;000.461;MIDI 01
035.048;000.039;97;000.461;MIDI 01
034.990;000.160;90;000.461;MIDI 01
035.184;000.129;68;000.312;MIDI 01
035.377;000.055;80;000.484;MIDI 01
035.204;000.312;61;000.398;MIDI 01
035.574;000.041;68;000.422;MIDI 01
035.585;000.039;73;000.445;MIDI 01
035.597;000.052;92;000.633;MIDI 01
035.635;000.033;85;000.383;MIDI 01
035.798;000.041;73;000.422;MIDI 01
035.795;000.052;80;000.508;MIDI 01
036.095;000.039;74;000.555;MIDI 01
036.196;000.062;81;000.516;MIDI 01
035.991;000.289;80;000.633;MIDI 01
036.275;000.052;86;000.398;MIDI 01
036.309;000.043;84;000.242;MIDI 01
036.002;000.351;73;000.383;MIDI 01
036.351;000.041;78;000.391;MIDI 01
036.357;000.060;93;000.617;MIDI 01
036.374;000.046;71;000.438;MIDI 01
036.465;000.057;86;000.328;MIDI 01
036.519;000.123;81;000.492;MIDI 01
036.635;000.018;74;000.508;MIDI 01
036.751;000.159;68;000.469;MIDI 01
036.930;000.025;80;000.523;MIDI 01
036.932;000.032;85;000.633;MIDI 01
036.744;000.352;61;000.516;MIDI 01
037.116;000.028;73;000.648;MIDI 01
037.123;000.033;68;000.398;MIDI 01
037.157;000.035;92;000.680;MIDI 01
037.141;000.068;97;000.688;MIDI 01
037.342;000.030;80;000.625;MIDI 01
037.349;000.026;85;000.453;MIDI 01
037.622;000.068;81;000.602;MIDI 01
037.708;000.081;86;000.672;MIDI 01
037.510;000.354;85;000.664;MIDI 01
037.784;000.101;93;000.602;MIDI 01
037.876;000.031;83;000.406;MIDI 01
037.536;000.386;80;000.469;MIDI 01
037.869;000.057;78;000.516;MIDI 01
037.885;000.078;98;000.609;MIDI 01
037.920;000.067;96;000.461;MIDI 01
037.991;000.021;96;000.383;MIDI 01
037.964;000.099;93;000.547;MIDI 01
038.029;000.137;86;000.711;MIDI 01
038.149;000.053;81;000.648;MIDI 01
038.241;000.220;80;000.648;MIDI 01
038.466;000.032;85;000.578;MIDI 01
038.507;000.025;93;000.477;MIDI 01
038.468;000.075;92;000.719;MIDI 01
038.246;000.464;73;000.633;MIDI 01
038.731;000.033;80;000.531;MIDI 01
038.728;000.062;85;000.680;MIDI 01
038.750;000.082;97;000.695;MIDI 01
038.741;000.094;104;000.750;MIDI 01
039.007;000.035;85;000.555;MIDI 01
038.994;000.096;92;000.750;MIDI 01
039.441;000.103;86;000.672;MIDI 01
039.579;000.169;93;000.734;MIDI 01
039.253;000.579;92;000.789;MIDI 01
039.719;000.154;98;000.750;MIDI 01
039.822;000.054;90;000.500;MIDI 01
039.266;000.642;85;000.500;MIDI 01
039.832;000.082;83;000.492;MIDI 01
039.861;000.159;105;000.805;MIDI 01
040.003;000.130;98;000.680;MIDI 01
040.107;000.105;93;000.609;MIDI 01
040.208;000.023;86;000.594;MIDI 01
040.337;000.057;81;000.641;MIDI 01
040.240;000.265;85;000.633;MIDI 01
040.406;000.102;86;000.398;MIDI 01
040.513;000.052;93;000.602;MIDI 01
040.251;000.332;80;000.562;MIDI 01
040.562;000.042;78;000.547;MIDI 01
040.572;000.090;98;000.633;MIDI 01
040.700;000.042;96;000.312;MIDI 01
040.660;000.084;93;000.609;MIDI 01
040.731;000.027;88;000.391;MIDI 01
040.717;000.098;86;000.562;MIDI 01
040.790;000.027;81;000.609;MIDI 01
040.956;000.056;74;000.586;MIDI 01
041.028;000.082;81;000.586;MIDI 01
040.881;000.275;80;000.617;MIDI 01
041.135;000.025;84;000.492;MIDI 01
041.127;000.073;86;000.508;MIDI 01
041.181;000.036;78;000.516;MIDI 01
040.893;000.342;73;000.523;MIDI 01
041.206;000.035;71;000.531;MIDI 01
041.193;000.092;93;000.672;MIDI 01
041.295;000.101;86;000.555;MIDI 01
041.340;000.100;81;000.484;MIDI 01
041.431;000.033;76;000.562;MIDI 01
041.609;000.046;69;000.539;MIDI 01
041.538;000.222;73;000.594;MIDI 01
041.679;000.108;74;000.570;MIDI 01
041.781;000.076;81;000.523;MIDI 01
041.857;000.050;71;000.414;MIDI 01
041.535;000.389;68;000.516;MIDI 01
041.877;000.049;86;000.453;MIDI 01
041.880;000.067;66;000.477;MIDI 01
041.894;000.124;84;000.375;MIDI 01
041.955;000.097;81;000.438;MIDI 01
042.022;000.106;74;000.531;MIDI 01
042.126;000.060;69;000.562;MIDI 01
042.277;000.180;44;000.031;MIDI 01
042.290;000.221;37;000.617;MIDI 01
042.538;000.084;68;000.461;MIDI 01
042.510;000.252;73;000.492;MIDI 01
042.876;000.044;71;000.633;MIDI 01
042.722;000.283;80;000.531;MIDI 01
043.093;000.080;68;000.438;MIDI 01
043.056;000.201;73;000.438;MIDI 01
043.337;000.054;68;000.602;MIDI 01
043.225;000.195;80;000.484;MIDI 01
043.513;000.078;68;000.422;MIDI 01
043.479;000.189;73;000.422;MIDI 01
043.627;000.155;80;000.445;MIDI 01
043.729;000.064;66;000.609;MIDI 01
043.888;000.085;68;000.438;MIDI 01
043.856;000.189;73;000.438;MIDI 01
044.016;000.155;80;000.492;MIDI 01
044.117;000.059;68;000.633;MIDI 01
044.282;000.064;68;000.383;MIDI 01
044.255;000.180;73;000.406;MIDI 01
044.414;000.134;80;000.453;MIDI 01
044.520;000.073;71;000.625;MIDI 01
044.707;000.080;68;000.438;MIDI 01
044.667;000.202;73;000.391;MIDI 01
044.832;000.141;80;000.477;MIDI 01
044.921;000.087;68;000.641;MIDI 01
045.106;000.129;68;000.391;MIDI 01
045.078;000.186;73;000.430;MIDI 01
045.235;000.116;80;000.500;MIDI 01
045.337;000.054;66;000.617;MIDI 01
045.456;000.180;73;000.422;MIDI 01
045.597;000.051;80;000.461;MIDI 01
045.483;000.208;68;000.391;MIDI 01
045.766;000.279;61;000.570;MIDI 01
046.092;000.083;68;000.438;MIDI 01
046.233;000.039;73;000.352;MIDI 01
046.310;000.033;80;000.391;MIDI 01
046.330;000.059;64;000.312;MIDI 01
046.394;000.081;73;000.484;MIDI 01
046.507;000.091;68;000.359;MIDI 01
046.573;000.039;61;000.508;MIDI 01
046.728;000.055;61;000.477;MIDI 01
046.669;000.188;64;000.438;MIDI 01
046.811;000.108;68;000.398;MIDI 01
046.286;000.660;59;000.453;MIDI 01
046.946;000.048;73;000.398;MIDI 01
047.036;000.031;80;000.445;MIDI 01
046.665;000.414;56;000.516;MIDI 01
047.041;000.066;64;000.461;MIDI 01
047.129;000.050;73;000.453;MIDI 01
047.039;000.296;54;000.500;MIDI 01
047.234;000.108;68;000.383;MIDI 01
047.316;000.042;61;000.500;MIDI 01
047.428;000.051;64;000.414;MIDI 01
047.492;000.033;61;000.398;MIDI 01
047.426;000.103;56;000.484;MIDI 01
047.599;000.062;68;000.391;MIDI 01
047.725;000.029;73;000.320;MIDI 01
047.805;000.031;80;000.445;MIDI 01
047.803;000.050;64;000.352;MIDI 01
047.801;000.134;59;000.414;MIDI 01
047.885;000.066;73;000.414;MIDI 01
048.015;000.094;68;000.344;MIDI 01
048.089;000.038;61;000.461;MIDI 01
048.176;000.067;64;000.359;MIDI 01
048.214;000.079;56;000.344;MIDI 01
048.246;000.052;61;000.383;MIDI 01
048.365;000.067;68;000.367;MIDI 01
048.505;000.037;73;000.281;MIDI 01
048.601;000.038;80;000.391;MIDI 01
048.599;000.065;64;000.188;MIDI 01
048.643;000.165;54;000.312;MIDI 01
048.706;000.105;73;000.336;MIDI 01
048.888;000.071;68;000.281;MIDI 01
049.028;000.055;61;000.359;MIDI 01
049.263;000.110;49;000.352;MIDI 01
049.483;000.070;49;000.180;MIDI 01
049.586;000.083;56;000.344;MIDI 01
049.679;000.033;61;000.320;MIDI 01
049.785;000.172;56;000.492;MIDI 01
049.965;000.080;61;000.445;MIDI 01
050.034;000.045;68;000.453;MIDI 01
050.123;000.042;61;000.516;MIDI 01
050.310;000.091;68;000.477;MIDI 01
050.376;000.040;73;000.500;MIDI 01
050.487;000.036;68;000.648;MIDI 01
050.586;000.090;68;000.586;MIDI 01
050.688;000.087;73;000.523;MIDI 01
050.755;000.057;80;000.562;MIDI 01
050.859;000.026;73;000.734;MIDI 01
050.943;000.155;73;000.438;MIDI 01
051.060;000.101;80;000.562;MIDI 01
051.151;000.055;85;000.555;MIDI 01
051.256;000.018;73;000.711;MIDI 01
051.347;000.122;73;000.469;MIDI 01
051.459;000.083;80;000.531;MIDI 01
051.543;000.053;85;000.531;MIDI 01
051.644;000.022;73;000.594;MIDI 01
051.751;000.085;73;000.555;MIDI 01
051.835;000.081;80;000.516;MIDI 01
051.929;000.055;85;000.484;MIDI 01
052.007;000.038;73;000.508;MIDI 01
052.116;000.101;73;000.547;MIDI 01
052.215;000.080;80;000.484;MIDI 01
052.301;000.050;85;000.422;MIDI 01
052.402;000.025;73;000.422;MIDI 01
052.513;000.089;73;000.383;MIDI 01
052.601;000.075;80;000.430;MIDI 01
052.693;000.049;85;000.297;MIDI 01
052.785;000.038;73;000.375;MIDI 01
052.905;000.100;73;000.367;MIDI 01
052.976;000.096;80;000.398;MIDI 01
053.056;000.055;85;000.352;MIDI 01
053.191;000.045;73;000.344;MIDI 01
053.295;000.095;73;000.336;MIDI 01
053.369;000.093;80;000.406;MIDI 01
053.477;000.041;85;000.297;MIDI 01
053.591;000.048;73;000.375;MIDI 01
053.796;000.272;80;000.320;MIDI 01
053.954;000.167;85;000.266;MIDI 01
053.747;000.408;73;000.266;MIDI 01
054.180;000.132;59;000.289;MIDI 01
054.220;000.102;61;000.359;MIDI 01
054.304;000.040;64;000.211;MIDI 01
054.308;000.038;66;000.430;MIDI 01
054.381;000.097;69;000.297;MIDI 01
054.382;000.194;71;000.289;MIDI 01
054.505;000.220;78;000.336;MIDI 01
054.845;000.091;73;000.352;MIDI 01
054.934;000.058;81;000.102;MIDI 01
054.710;000.321;83;000.305;MIDI 01
054.833;000.357;85;000.453;MIDI 01
055.033;000.209;76;000.320;MIDI 01
055.309;000.079;69;000.227;MIDI 01
055.301;000.191;71;000.250;MIDI 01
055.433;000.067;76;000.234;MIDI 01
055.397;000.191;87;000.484;MIDI 01
055.481;000.140;75;000.359;MIDI 01
055.528;000.147;78;000.352;MIDI 01
055.628;000.051;83;000.406;MIDI 01
055.830;000.049;73;000.234;MIDI 01
055.820;000.086;83;000.297;MIDI 01
055.798;000.185;85;000.578;MIDI 01
055.943;000.104;76;000.398;MIDI 01
056.110;000.060;69;000.383;MIDI 01
056.114;000.068;71;000.352;MIDI 01
056.226;000.077;90;000.516;MIDI 01
056.258;000.117;76;000.289;MIDI 01
056.288;000.229;78;000.297;MIDI 01
056.478;000.044;83;000.375;MIDI 01
056.456;000.069;87;000.594;MIDI 01
056.495;000.033;75;000.359;MIDI 01
056.678;000.066;85;000.523;MIDI 01
056.656;000.117;83;000.398;MIDI 01
056.742;000.054;73;000.219;MIDI 01
056.760;000.038;81;000.289;MIDI 01
056.826;000.102;76;000.391;MIDI 01
056.994;000.112;69;000.242;MIDI 01
056.980;000.134;71;000.297;MIDI 01
057.117;000.039;68;000.336;MIDI 01
057.104;000.061;80;000.492;MIDI 01
057.161;000.158;76;000.273;MIDI 01
057.246;000.153;78;000.375;MIDI 01
057.357;000.058;83;000.438;MIDI 01
057.559;000.154;80;000.508;MIDI 01
057.581;000.154;83;000.375;MIDI 01
057.605;000.221;68;000.391;MIDI 01
057.786;000.154;76;000.414;MIDI 01
057.947;000.030;71;000.367;MIDI 01
057.945;000.039;69;000.398;MIDI 01
057.796;000.233;78;000.203;MIDI 01
058.033;000.042;78;000.094;MIDI 01
058.054;000.055;66;000.398;MIDI 01
058.138;000.047;69;000.328;MIDI 01
058.126;000.242;71;000.359;MIDI 01
058.222;000.185;76;000.227;MIDI 01
058.336;000.075;59;000.430;MIDI 01
058.391;000.043;83;000.336;MIDI 01
058.242;000.218;78;000.375;MIDI 01
058.562;000.136;61;000.320;MIDI 01
058.593;000.204;83;000.312;MIDI 01
058.595;000.241;73;000.422;MIDI 01
058.757;000.156;76;000.445;MIDI 01
058.925;000.049;69;000.398;MIDI 01
058.930;000.046;71;000.336;MIDI 01
059.015;000.218;75;000.516;MIDI 01
059.174;000.093;76;000.344;MIDI 01
059.236;000.105;78;000.453;MIDI 01
059.335;000.038;83;000.383;MIDI 01
059.429;000.091;61;000.500;MIDI 01
059.070;000.465;63;000.383;MIDI 01
059.497;000.085;83;000.398;MIDI 01
059.445;000.200;73;000.555;MIDI 01
059.593;000.118;76;000.477;MIDI 01
059.552;000.174;78;000.219;MIDI 01
059.746;000.039;69;000.328;MIDI 01
059.748;000.040;71;000.312;MIDI 01
059.871;000.050;78;000.555;MIDI 01
059.925;000.033;66;000.289;MIDI 01
059.918;000.056;76;000.328;MIDI 01
060.100;000.059;75;000.562;MIDI 01
060.124;000.038;78;000.297;MIDI 01
060.110;000.053;83;000.398;MIDI 01
060.127;000.052;63;000.438;MIDI 01
060.333;000.053;73;000.453;MIDI 01
060.331;000.069;83;000.289;MIDI 01
060.353;000.157;61;000.375;MIDI 01
060.398;000.156;76;000.383;MIDI 01
060.565;000.033;69;000.305;MIDI 01
060.358;000.242;78;000.250;MIDI 01
060.567;000.036;71;000.305;MIDI 01
060.775;000.059;56;000.344;MIDI 01
060.746;000.094;68;000.469;MIDI 01
060.766;000.104;69;000.367;MIDI 01
060.748;000.189;71;000.312;MIDI 01
060.900;000.165;78;000.375;MIDI 01
061.028;000.067;83;000.406;MIDI 01
061.265;000.157;83;000.383;MIDI 01
061.267;000.164;68;000.492;MIDI 01
061.536;000.045;71;000.297;MIDI 01
061.411;000.176;76;000.359;MIDI 01
061.549;000.043;69;000.328;MIDI 01
061.355;000.260;78;000.219;MIDI 01
061.291;000.427;56;000.391;MIDI 01
061.750;000.069;66;000.336;MIDI 01
061.718;000.128;71;000.344;MIDI 01
061.782;000.149;54;000.227;MIDI 01
061.726;000.215;69;000.344;MIDI 01
061.934;000.073;54;000.023;MIDI 01
061.943;000.276;78;000.383;MIDI 01
062.127;000.099;83;000.391;MIDI 01
062.436;000.170;47;000.289;MIDI 01
062.594;000.090;73;000.305;MIDI 01
062.643;000.082;49;000.375;MIDI 01
062.765;000.067;52;000.062;MIDI 01
062.810;000.048;57;000.406;MIDI 01
062.944;000.073;59;000.422;MIDI 01
062.513;000.510;85;000.367;MIDI 01
062.940;000.136;80;000.422;MIDI 01
062.925;000.179;87;000.547;MIDI 01
063.027;000.094;75;000.352;MIDI 01
063.039;000.116;61;000.484;MIDI 01
063.150;000.068;64;000.422;MIDI 01
063.239;000.065;69;000.453;MIDI 01
063.329;000.034;78;000.367;MIDI 01
063.171;000.225;83;000.109;MIDI 01
063.361;000.056;59;000.414;MIDI 01
063.432;000.078;61;000.484;MIDI 01
063.323;000.279;85;000.586;MIDI 01
063.559;000.054;64;000.062;MIDI 01
063.584;000.052;69;000.445;MIDI 01
063.728;000.064;76;000.500;MIDI 01
063.747;000.124;90;000.523;MIDI 01
063.857;000.019;78;000.453;MIDI 01
063.909;000.049;69;000.367;MIDI 01
064.013;000.041;80;000.453;MIDI 01
064.047;000.032;75;000.359;MIDI 01
063.968;000.125;87;000.672;MIDI 01
064.035;000.078;64;000.383;MIDI 01
064.183;000.125;85;000.602;MIDI 01
064.258;000.055;78;000.328;MIDI 01
064.224;000.115;59;000.391;MIDI 01
064.259;000.093;73;000.352;MIDI 01
064.308;000.073;61;000.219;MIDI 01
064.390;000.042;64;000.391;MIDI 01
064.463;000.072;69;000.438;MIDI 01
064.625;000.103;80;000.562;MIDI 01
064.628;000.102;59;000.289;MIDI 01
064.686;000.046;68;000.312;MIDI 01
064.651;000.083;73;000.430;MIDI 01
064.721;000.095;61;000.398;MIDI 01
064.820;000.066;64;000.328;MIDI 01
064.916;000.123;69;000.438;MIDI 01
065.090;000.141;80;000.586;MIDI 01
065.109;000.138;59;000.383;MIDI 01
065.173;000.093;73;000.383;MIDI 01
065.239;000.125;61;000.391;MIDI 01
065.345;000.070;64;000.305;MIDI 01
065.466;000.077;69;000.398;MIDI 01
065.191;000.369;68;000.297;MIDI 01
065.710;000.056;59;000.156;MIDI 01
065.771;000.080;71;000.219;MIDI 01
065.815;000.039;66;000.266;MIDI 01
065.700;000.189;78;000.406;MIDI 01
065.820;000.071;61;000.289;MIDI 01
065.941;000.172;63;000.328;MIDI 01
066.125;000.050;69;000.023;MIDI 01
066.400;000.193;69;000.172;MIDI 01
066.551;000.045;64;000.266;MIDI 01
066.394;000.216;76;000.414;MIDI 01
066.380;000.334;56;000.211;MIDI 01
066.700;000.084;61;000.320;MIDI 01
066.769;000.044;64;000.164;MIDI 01
066.575;000.263;57;000.312;MIDI 01
066.838;000.055;78;000.422;MIDI 01
066.902;000.049;66;000.164;MIDI 01
066.851;000.140;54;000.344;MIDI 01
067.024;000.045;76;000.500;MIDI 01
067.057;000.054;64;000.438;MIDI 01
067.082;000.044;69;000.250;MIDI 01
066.971;000.247;57;000.336;MIDI 01
067.316;000.046;66;000.227;MIDI 01
067.244;000.127;52;000.406;MIDI 01
067.414;000.052;54;000.289;MIDI 01
067.445;000.095;57;000.289;MIDI 01
067.567;000.044;61;000.297;MIDI 01
067.646;000.068;64;000.398;MIDI 01
067.264;000.507;73;000.414;MIDI 01
067.815;000.047;57;000.289;MIDI 01
067.890;000.104;54;000.406;MIDI 01
068.167;000.045;64;000.086;MIDI 01
068.106;000.130;76;000.445;MIDI 01
068.334;000.058;54;000.141;MIDI 01
068.472;000.095;61;000.336;MIDI 01
068.517;000.064;78;000.469;MIDI 01
068.562;000.025;66;000.383;MIDI 01
068.680;000.041;54;000.320;MIDI 01
068.710;000.028;76;000.531;MIDI 01
068.735;000.033;64;000.406;MIDI 01
068.943;000.049;66;000.320;MIDI 01
068.923;000.084;73;000.461;MIDI 01
068.968;000.043;61;000.398;MIDI 01
068.917;000.230;47;000.398;MIDI 01
069.121;000.033;71;000.500;MIDI 01
069.147;000.039;59;000.281;MIDI 01
069.151;000.036;64;000.367;MIDI 01
069.090;000.120;49;000.328;MIDI 01
069.142;000.089;52;000.391;MIDI 01
069.228;000.041;54;000.258;MIDI 01
069.367;000.035;61;000.352;MIDI 01
069.309;000.107;57;000.445;MIDI 01
069.377;000.049;66;000.203;MIDI 01
069.336;000.122;73;000.508;MIDI 01
069.406;000.077;54;000.359;MIDI 01
069.501;000.057;52;000.203;MIDI 01
069.531;000.134;49;000.461;MIDI 01
069.700;000.191;45;000.406;MIDI 01
069.830;000.091;64;000.281;MIDI 01
069.763;000.178;76;000.523;MIDI 01
069.805;000.138;69;000.320;MIDI 01
069.881;000.110;49;000.398;MIDI 01
069.946;000.099;52;000.367;MIDI 01
070.028;000.064;54;000.391;MIDI 01
070.140;000.097;57;000.422;MIDI 01
070.229;000.044;73;000.367;MIDI 01
070.158;000.151;78;000.570;MIDI 01
070.254;000.057;54;000.398;MIDI 01
070.244;000.137;66;000.359;MIDI 01
070.311;000.178;52;000.438;MIDI 01
070.436;000.077;49;000.414;MIDI 01
070.600;000.070;69;000.344;MIDI 01
070.544;000.151;76;000.617;MIDI 01
070.541;000.165;44;000.453;MIDI 01
070.649;000.092;64;000.422;MIDI 01
070.668;000.155;49;000.453;MIDI 01
070.785;000.080;52;000.305;MIDI 01
070.844;000.067;54;000.406;MIDI 01
070.942;000.125;57;000.461;MIDI 01
071.026;000.134;66;000.414;MIDI 01
071.108;000.053;54;000.148;MIDI 01
070.981;000.190;73;000.633;MIDI 01
071.131;000.042;52;000.344;MIDI 01
071.177;000.057;49;000.477;MIDI 01
071.110;000.148;61;000.430;MIDI 01
071.427;000.203;64;000.414;MIDI 01
071.529;000.107;45;000.383;MIDI 01
071.490;000.155;59;000.359;MIDI 01
071.388;000.307;42;000.461;MIDI 01
071.660;000.036;49;000.344;MIDI 01
071.718;000.051;52;000.477;MIDI 01
071.845;000.046;54;000.422;MIDI 01
071.943;000.051;52;000.430;MIDI 01
072.047;000.058;49;000.461;MIDI 01
072.179;000.146;45;000.438;MIDI 01
072.299;000.211;40;000.523;MIDI 01
071.405;001.135;71;000.602;MIDI 01
072.541;000.040;45;000.398;MIDI 01
072.461;000.138;61;000.352;MIDI 01
072.603;000.051;49;000.406;MIDI 01
072.735;000.046;52;000.297;MIDI 01
072.834;000.042;54;000.336;MIDI 01
072.369;000.564;73;000.508;MIDI 01
072.941;000.054;52;000.375;MIDI 01
072.422;000.625;66;000.281;MIDI 01
073.218;000.083;45;000.383;MIDI 01
073.690;000.082;46;000.164;MIDI 01
073.633;000.163;39;000.242;MIDI 01
073.677;000.192;73;000.359;MIDI 01
073.769;000.102;61;000.289;MIDI 01
073.845;000.048;51;000.227;MIDI 01
073.960;000.051;53;000.383;MIDI 01
073.708;000.339;67;000.188;MIDI 01
074.129;000.062;70;000.391;MIDI 01
074.195;000.058;63;000.281;MIDI 01
074.198;000.068;61;000.094;MIDI 01
074.131;000.180;75;000.438;MIDI 01
074.302;000.042;53;000.445;MIDI 01
074.392;000.040;51;000.023;MIDI 01
074.532;000.036;43;000.320;MIDI 01
074.542;000.032;64;000.312;MIDI 01
074.530;000.050;50;000.289;MIDI 01
074.524;000.228;76;000.461;MIDI 01
074.740;000.050;57;000.469;MIDI 01
074.830;000.035;59;000.398;MIDI 01
074.938;000.045;65;000.375;MIDI 01
074.930;000.061;74;000.344;MIDI 01
074.940;000.054;81;000.516;MIDI 01
074.995;000.042;69;000.398;MIDI 01
075.062;000.044;57;000.398;MIDI 01
075.090;000.037;53;000.445;MIDI 01
075.296;000.071;39;000.383;MIDI 01
075.346;000.048;46;000.273;MIDI 01
075.366;000.050;61;000.344;MIDI 01
075.436;000.041;51;000.391;MIDI 01
075.359;000.160;73;000.383;MIDI 01
075.560;000.045;53;000.375;MIDI 01
075.567;000.083;75;000.430;MIDI 01
075.568;000.085;70;000.406;MIDI 01
075.371;000.292;67;000.312;MIDI 01
075.642;000.043;55;000.398;MIDI 01
075.742;000.045;61;000.398;MIDI 01
075.774;000.062;67;000.430;MIDI 01
075.777;000.140;73;000.492;MIDI 01
075.897;000.036;53;000.445;MIDI 01
075.951;000.048;51;000.344;MIDI 01
075.982;000.046;63;000.359;MIDI 01
075.970;000.070;75;000.508;MIDI 01
075.960;000.104;70;000.523;MIDI 01
076.144;000.038;43;000.320;MIDI 01
076.125;000.079;50;000.305;MIDI 01
076.175;000.054;64;000.344;MIDI 01
076.231;000.052;53;000.500;MIDI 01
076.156;000.231;76;000.461;MIDI 01
076.365;000.042;57;000.492;MIDI 01
076.431;000.061;59;000.484;MIDI 01
076.555;000.048;74;000.344;MIDI 01
076.579;000.026;69;000.383;MIDI 01
076.551;000.057;65;000.477;MIDI 01
076.549;000.096;81;000.492;MIDI 01
076.690;000.042;57;000.430;MIDI 01
076.739;000.039;53;000.383;MIDI 01
076.927;000.054;51;000.336;MIDI 01
076.951;000.060;58;000.312;MIDI 01
077.050;000.034;63;000.398;MIDI 01
076.992;000.123;73;000.336;MIDI 01
077.161;000.060;65;000.477;MIDI 01
076.994;000.268;79;000.297;MIDI 01
077.257;000.052;67;000.453;MIDI 01
077.346;000.053;82;000.430;MIDI 01
076.949;000.470;85;000.445;MIDI 01
077.377;000.044;73;000.469;MIDI 01
077.450;000.054;67;000.453;MIDI 01
077.383;000.143;75;000.453;MIDI 01
077.527;000.049;65;000.492;MIDI 01
077.573;000.026;63;000.422;MIDI 01
077.328;000.280;87;000.594;MIDI 01
077.696;000.047;83;000.398;MIDI 01
077.725;000.055;76;000.523;MIDI 01
077.727;000.055;55;000.422;MIDI 01
077.723;000.065;62;000.445;MIDI 01
077.808;000.047;65;000.531;MIDI 01
077.935;000.053;69;000.555;MIDI 01
077.719;000.307;88;000.648;MIDI 01
078.011;000.073;71;000.531;MIDI 01
078.155;000.021;81;000.438;MIDI 01
078.123;000.055;86;000.414;MIDI 01
078.112;000.118;77;000.602;MIDI 01
078.126;000.119;93;000.656;MIDI 01
078.236;000.046;71;000.500;MIDI 01
078.272;000.070;69;000.539;MIDI 01
078.325;000.048;65;000.547;MIDI 01
078.511;000.037;63;000.367;MIDI 01
078.518;000.046;70;000.430;MIDI 01
078.546;000.061;85;000.383;MIDI 01
078.602;000.048;75;000.469;MIDI 01
078.528;000.214;97;000.555;MIDI 01
078.528;000.290;91;000.453;MIDI 01
078.742;000.081;77;000.547;MIDI 01
078.733;000.110;99;000.656;MIDI 01
078.731;000.136;94;000.555;MIDI 01
078.817;000.081;79;000.547;MIDI 01
078.929;000.084;85;000.609;MIDI 01
079.048;000.055;79;000.453;MIDI 01
078.919;000.203;91;000.617;MIDI 01
078.922;000.233;97;000.625;MIDI 01
079.119;000.040;77;000.469;MIDI 01
079.164;000.016;75;000.414;MIDI 01
079.101;000.082;87;000.695;MIDI 01
079.093;000.124;99;000.742;MIDI 01
079.103;000.145;94;000.641;MIDI 01
079.286;000.067;95;000.656;MIDI 01
079.319;000.036;67;000.492;MIDI 01
079.293;000.083;74;000.578;MIDI 01
079.298;000.095;88;000.672;MIDI 01
079.392;000.064;77;000.602;MIDI 01
079.502;000.090;81;000.664;MIDI 01
079.297;000.301;100;000.742;MIDI 01
079.589;000.077;83;000.586;MIDI 01
079.709;000.031;98;000.547;MIDI 01
079.713;000.033;93;000.680;MIDI 01
079.697;000.057;105;000.688;MIDI 01
079.703;000.071;89;000.695;MIDI 01
079.823;000.089;83;000.570;MIDI 01
079.895;000.040;81;000.492;MIDI 01
079.928;000.030;77;000.500;MIDI 01
080.175;000.083;63;000.594;MIDI 01
080.162;000.154;79;000.586;MIDI 01
080.157;000.188;86;000.531;MIDI 01
080.165;000.186;70;000.641;MIDI 01
080.172;000.299;75;000.703;MIDI 01
080.390;000.092;91;000.562;MIDI 01
080.388;000.096;87;000.531;MIDI 01
080.515;000.108;79;000.484;MIDI 01
080.508;000.124;86;000.547;MIDI 01
080.647;000.079;87;000.492;MIDI 01
080.640;000.097;91;000.516;MIDI 01
080.793;000.034;94;000.812;MIDI 01
080.770;000.064;79;000.508;MIDI 01
080.761;000.078;86;000.531;MIDI 01
080.902;000.025;91;000.352;MIDI 01
080.904;000.031;87;000.414;MIDI 01
080.973;000.032;79;000.516;MIDI 01
080.975;000.064;86;000.438;MIDI 01
081.052;000.050;87;000.500;MIDI 01
081.054;000.056;91;000.492;MIDI 01
081.128;000.039;79;000.500;MIDI 01
081.144;000.047;86;000.469;MIDI 01
081.209;000.043;87;000.492;MIDI 01
081.207;000.056;91;000.508;MIDI 01
081.278;000.045;79;000.508;MIDI 01
081.302;000.047;86;000.438;MIDI 01
081.355;000.044;87;000.547;MIDI 01
081.353;000.050;91;000.539;MIDI 01
081.436;000.032;79;000.477;MIDI 01
081.449;000.049;86;000.492;MIDI 01
081.509;000.046;87;000.555;MIDI 01
081.498;000.064;91;000.516;MIDI 01
081.591;000.041;79;000.492;MIDI 01
081.599;000.055;86;000.469;MIDI 01
081.670;000.044;91;000.383;MIDI 01
081.665;000.060;87;000.578;MIDI 01
081.755;000.031;79;000.461;MIDI 01
081.745;000.081;86;000.516;MIDI 01
081.848;000.046;87;000.531;MIDI 01
081.931;000.060;86;000.406;MIDI 01
081.971;000.022;75;000.578;MIDI 01
081.952;000.044;82;000.750;MIDI 01
082.008;000.058;87;000.547;MIDI 01
082.133;000.048;79;000.195;MIDI 01
082.146;000.045;86;000.227;MIDI 01
082.191;000.062;87;000.516;MIDI 01
082.215;000.104;91;000.383;MIDI 01
082.303;000.058;79;000.461;MIDI 01
082.306;000.083;86;000.461;MIDI 01
082.404;000.034;94;000.805;MIDI 01
082.411;000.075;87;000.508;MIDI 01
082.460;000.045;91;000.203;MIDI 01
082.505;000.055;79;000.562;MIDI 01
082.521;000.043;86;000.438;MIDI 01
082.631;000.028;87;000.414;MIDI 01
082.640;000.044;91;000.281;MIDI 01
082.683;000.045;86;000.492;MIDI 01
082.713;000.021;79;000.414;MIDI 01
082.770;000.033;87;000.531;MIDI 01
082.791;000.036;91;000.359;MIDI 01
082.852;000.030;79;000.438;MIDI 01
082.839;000.046;86;000.500;MIDI 01
082.932;000.032;87;000.461;MIDI 01
082.930;000.035;91;000.461;MIDI 01
083.002;000.026;79;000.469;MIDI 01
082.997;000.043;86;000.500;MIDI 01
083.074;000.043;87;000.516;MIDI 01
083.071;000.048;91;000.469;MIDI 01
083.147;000.041;79;000.461;MIDI 01
083.149;000.042;86;000.477;MIDI 01
083.219;000.055;91;000.516;MIDI 01
083.217;000.062;87;000.539;MIDI 01
083.305;000.047;79;000.484;MIDI 01
083.296;000.070;86;000.547;MIDI 01
083.393;000.043;87;000.562;MIDI 01
083.371;000.067;91;000.484;MIDI 01
083.474;000.027;79;000.461;MIDI 01
083.480;000.060;86;000.445;MIDI 01
083.554;000.038;87;000.562;MIDI 01
083.559;000.043;91;000.398;MIDI 01
083.650;000.037;86;000.359;MIDI 01
083.621;000.086;79;000.516;MIDI 01
083.790;000.085;82;000.695;MIDI 01
083.707;000.210;87;000.562;MIDI 01
083.794;000.320;75;000.672;MIDI 01
084.065;000.136;79;000.609;MIDI 01
084.188;000.176;86;000.633;MIDI 01
084.303;000.145;91;000.602;MIDI 01
084.407;000.043;94;000.781;MIDI 01
084.431;000.039;87;000.625;MIDI 01
084.506;000.131;91;000.391;MIDI 01
084.607;000.071;86;000.578;MIDI 01
084.699;000.029;79;000.531;MIDI 01
084.754;000.053;82;000.414;MIDI 01
084.789;000.024;75;000.609;MIDI 01
084.857;000.098;79;000.453;MIDI 01
084.943;000.078;74;000.531;MIDI 01
085.017;000.096;67;000.562;MIDI 01
085.119;000.027;70;000.523;MIDI 01
085.109;000.058;63;000.625;MIDI 01
085.217;000.115;67;000.516;MIDI 01
085.301;000.071;62;000.477;MIDI 01
085.367;000.055;55;000.562;MIDI 01
085.455;000.081;51;000.672;MIDI 01
085.545;000.042;55;000.508;MIDI 01
085.615;000.102;62;000.500;MIDI 01
085.706;000.066;67;000.453;MIDI 01
085.844;000.035;70;000.477;MIDI 01
085.810;000.099;63;000.555;MIDI 01
085.924;000.045;67;000.547;MIDI 01
085.997;000.100;74;000.555;MIDI 01
086.085;000.073;79;000.562;MIDI 01
086.176;000.032;82;000.562;MIDI 01
086.162;000.055;75;000.594;MIDI 01
086.267;000.058;79;000.594;MIDI 01
086.339;000.125;86;000.578;MIDI 01
086.417;000.083;91;000.578;MIDI 01
086.504;000.051;94;000.625;MIDI 01
086.525;000.050;87;000.609;MIDI 01
086.601;000.117;91;000.586;MIDI 01
086.684;000.123;86;000.531;MIDI 01
086.758;000.060;79;000.594;MIDI 01
086.840;000.061;75;000.688;MIDI 01
086.942;000.036;79;000.523;MIDI 01
087.028;000.095;86;000.555;MIDI 01
087.116;000.105;91;000.500;MIDI 01
087.207;000.048;94;000.586;MIDI 01
087.211;000.081;87;000.555;MIDI 01
087.276;000.114;91;000.320;MIDI 01
087.379;000.093;86;000.453;MIDI 01
087.449;000.029;79;000.516;MIDI 01
087.543;000.053;75;000.586;MIDI 01
087.636;000.060;79;000.453;MIDI 01
087.711;000.102;86;000.516;MIDI 01
087.815;000.081;91;000.492;MIDI 01
087.916;000.040;94;000.430;MIDI 01
087.917;000.056;87;000.477;MIDI 01
087.985;000.110;91;000.406;MIDI 01
088.089;000.108;86;000.430;MIDI 01
088.191;000.028;79;000.414;MIDI 01
088.282;000.057;75;000.375;MIDI 01
088.319;000.036;82;000.250;MIDI 01
088.374;000.103;79;000.367;MIDI 01
088.483;000.148;86;000.422;MIDI 01
088.602;000.084;91;000.445;MIDI 01
088.717;000.086;94;000.320;MIDI 01
088.751;000.110;87;000.375;MIDI 01
089.021;000.140;86;000.375;MIDI 01
089.318;000.218;82;000.172;MIDI 01
089.299;000.245;74;000.320;MIDI 01
089.630;000.139;79;000.273;MIDI 01
089.615;000.266;86;000.336;MIDI 01
090.020;000.104;91;000.328;MIDI 01
090.035;000.329;94;000.297;MIDI 01
090.568;000.323;86;000.266;MIDI 01
090.044;000.925;87;000.289;MIDI 01
090.615;000.362;79;000.141;MIDI 01
091.799;000.155;83;000.320;MIDI 01
091.839;000.165;73;000.172;MIDI 01
091.797;000.216;80;000.266;MIDI 01
092.035;000.046;77;000.242;MIDI 01
092.032;000.054;82;000.172;MIDI 01
092.216;000.080;89;000.445;MIDI 01
092.247;000.073;85;000.344;MIDI 01
091.786;000.551;87;000.406;MIDI 01
092.272;000.093;82;000.195;MIDI 01
092.261;000.179;77;000.219;MIDI 01
092.449;000.051;73;000.203;MIDI 01
092.444;000.059;80;000.344;MIDI 01
092.689;000.073;71;000.281;MIDI 01
092.682;000.107;81;000.312;MIDI 01
092.675;000.205;78;000.305;MIDI 01
092.885;000.035;75;000.336;MIDI 01
092.882;000.057;80;000.211;MIDI 01
092.644;000.335;85;000.461;MIDI 01
093.025;000.072;92;000.445;MIDI 01
093.074;000.061;75;000.320;MIDI 01
093.081;000.167;80;000.344;MIDI 01
093.076;000.174;87;000.367;MIDI 01
093.281;000.054;78;000.398;MIDI 01
093.317;000.046;71;000.023;MIDI 01
093.257;000.205;85;000.469;MIDI 01
093.498;000.078;83;000.359;MIDI 01
093.496;000.107;73;000.336;MIDI 01
093.467;000.162;80;000.359;MIDI 01
093.706;000.032;77;000.297;MIDI 01
093.683;000.057;82;000.359;MIDI 01
093.450;000.347;87;000.492;MIDI 01
093.868;000.062;89;000.469;MIDI 01
093.923;000.044;85;000.352;MIDI 01
093.901;000.139;77;000.312;MIDI 01
093.903;000.142;82;000.297;MIDI 01
094.102;000.042;73;000.328;MIDI 01
094.095;000.053;80;000.383;MIDI 01
094.327;000.129;71;000.281;MIDI 01
094.324;000.212;78;000.367;MIDI 01
094.535;000.031;75;000.344;MIDI 01
094.528;000.044;80;000.328;MIDI 01
094.293;000.327;85;000.469;MIDI 01
094.690;000.069;92;000.469;MIDI 01
094.713;000.073;75;000.383;MIDI 01
094.734;000.085;87;000.375;MIDI 01
094.714;000.177;80;000.352;MIDI 01
094.920;000.062;78;000.422;MIDI 01
094.938;000.049;71;000.078;MIDI 01
094.934;000.059;81;000.070;MIDI 01
094.906;000.213;85;000.414;MIDI 01
095.156;000.104;73;000.344;MIDI 01
095.160;000.111;83;000.422;MIDI 01
095.158;000.132;80;000.383;MIDI 01
095.359;000.039;77;000.312;MIDI 01
095.341;000.070;82;000.430;MIDI 01
095.124;000.290;87;000.570;MIDI 01
095.533;000.102;89;000.547;MIDI 01
095.584;000.059;82;000.273;MIDI 01
095.564;000.115;85;000.422;MIDI 01
095.752;000.047;73;000.430;MIDI 01
095.577;000.234;77;000.289;MIDI 01
095.751;000.068;80;000.430;MIDI 01
095.974;000.075;71;000.344;MIDI 01
095.971;000.108;78;000.406;MIDI 01
095.961;000.200;81;000.367;MIDI 01
096.175;000.034;75;000.398;MIDI 01
096.161;000.053;80;000.383;MIDI 01
095.918;000.375;85;000.500;MIDI 01
096.350;000.089;83;000.414;MIDI 01
096.334;000.182;87;000.484;MIDI 01
096.355;000.203;75;000.414;MIDI 01
096.548;000.060;78;000.438;MIDI 01
096.361;000.258;80;000.406;MIDI 01
096.585;000.038;71;000.281;MIDI 01
096.804;000.080;69;000.273;MIDI 01
096.771;000.135;76;000.414;MIDI 01
096.758;000.197;79;000.383;MIDI 01
096.983;000.032;73;000.375;MIDI 01
096.969;000.059;78;000.391;MIDI 01
096.734;000.375;83;000.414;MIDI 01
097.152;000.111;73;000.367;MIDI 01
097.154;000.123;85;000.430;MIDI 01
097.181;000.179;81;000.375;MIDI 01
097.168;000.225;78;000.391;MIDI 01
097.357;000.037;69;000.375;MIDI 01
097.366;000.048;76;000.406;MIDI 01
097.592;000.109;68;000.258;MIDI 01
097.585;000.118;75;000.312;MIDI 01
097.581;000.145;78;000.297;MIDI 01
097.790;000.056;72;000.359;MIDI 01
097.768;000.092;77;000.391;MIDI 01
097.572;000.295;82;000.305;MIDI 01
097.953;000.049;84;000.336;MIDI 01
097.999;000.050;80;000.289;MIDI 01
098.015;000.079;77;000.289;MIDI 01
098.009;000.197;72;000.297;MIDI 01
098.193;000.033;68;000.250;MIDI 01
098.170;000.061;75;000.344;MIDI 01
098.386;000.056;56;000.328;MIDI 01
098.434;000.034;66;000.273;MIDI 01
098.384;000.089;82;000.438;MIDI 01
098.427;000.052;63;000.148;MIDI 01
098.578;000.048;70;000.469;MIDI 01
098.793;000.033;84;000.461;MIDI 01
098.815;000.071;70;000.352;MIDI 01
098.808;000.080;78;000.438;MIDI 01
098.857;000.048;80;000.188;MIDI 01
099.000;000.066;68;000.344;MIDI 01
099.207;000.050;54;000.359;MIDI 01
099.222;000.064;61;000.273;MIDI 01
099.234;000.054;64;000.344;MIDI 01
099.194;000.143;80;000.445;MIDI 01
099.268;000.077;70;000.250;MIDI 01
099.205;000.297;76;000.266;MIDI 01
099.578;000.037;87;000.547;MIDI 01
099.395;000.245;68;000.406;MIDI 01
099.594;000.049;80;000.383;MIDI 01
099.812;000.028;66;000.367;MIDI 01
100.003;000.064;56;000.430;MIDI 01
100.027;000.068;63;000.266;MIDI 01
100.005;000.100;66;000.305;MIDI 01
100.019;000.124;82;000.555;MIDI 01
100.025;000.174;78;000.414;MIDI 01
100.119;000.092;72;000.180;MIDI 01
100.223;000.075;70;000.367;MIDI 01
100.419;000.051;84;000.602;MIDI 01
100.486;000.040;80;000.312;MIDI 01
100.460;000.082;70;000.422;MIDI 01
100.446;000.128;78;000.516;MIDI 01
100.639;000.082;68;000.453;MIDI 01
100.845;000.045;54;000.453;MIDI 01
100.847;000.069;61;000.383;MIDI 01
100.855;000.065;64;000.453;MIDI 01
100.827;000.171;80;000.539;MIDI 01
100.894;000.126;70;000.344;MIDI 01
100.821;000.359;76;000.273;MIDI 01
101.245;000.025;87;000.625;MIDI 01
101.041;000.267;68;000.430;MIDI 01
101.235;000.074;80;000.531;MIDI 01
101.277;000.052;70;000.164;MIDI 01
101.305;000.048;82;000.203;MIDI 01
101.433;000.031;78;000.469;MIDI 01
101.443;000.034;66;000.422;MIDI 01
101.670;000.116;56;000.406;MIDI 01
101.680;000.136;63;000.281;MIDI 01
101.667;000.157;82;000.578;MIDI 01
101.697;000.129;66;000.391;MIDI 01
101.660;000.234;78;000.336;MIDI 01
101.781;000.135;72;000.180;MIDI 01
101.906;000.055;70;000.352;MIDI 01
102.080;000.055;84;000.641;MIDI 01
102.111;000.036;80;000.359;MIDI 01
102.125;000.060;72;000.086;MIDI 01
102.123;000.102;70;000.438;MIDI 01
102.109;000.125;78;000.531;MIDI 01
102.301;000.082;68;000.422;MIDI 01
102.500;000.044;54;000.453;MIDI 01
102.497;000.056;61;000.414;MIDI 01
102.504;000.065;64;000.461;MIDI 01
102.480;000.136;80;000.641;MIDI 01
102.464;000.192;76;000.195;MIDI 01
102.544;000.140;70;000.320;MIDI 01
102.683;000.058;68;000.406;MIDI 01
102.881;000.049;82;000.609;MIDI 01
102.924;000.041;78;000.297;MIDI 01
102.895;000.099;76;000.484;MIDI 01
102.922;000.089;70;000.352;MIDI 01
102.950;000.062;68;000.312;MIDI 01
103.099;000.065;66;000.461;MIDI 01
103.283;000.046;52;000.422;MIDI 01
103.267;000.074;59;000.312;MIDI 01
103.289;000.072;62;000.477;MIDI 01
103.279;000.111;78;000.484;MIDI 01
103.321;000.086;74;000.359;MIDI 01
103.344;000.145;68;000.305;MIDI 01
103.487;000.033;66;000.375;MIDI 01
103.658;000.064;80;000.516;MIDI 01
103.699;000.048;76;000.297;MIDI 01
103.691;000.070;74;000.414;MIDI 01
103.741;000.071;66;000.094;MIDI 01
103.701;000.122;68;000.383;MIDI 01
103.878;000.033;64;000.469;MIDI 01
104.103;000.051;46;000.305;MIDI 01
104.085;000.102;53;000.227;MIDI 01
104.074;000.119;77;000.414;MIDI 01
104.127;000.073;58;000.312;MIDI 01
104.098;000.132;74;000.359;MIDI 01
104.171;000.081;70;000.234;MIDI 01
104.293;000.062;65;000.359;MIDI 01
104.494;000.053;70;000.391;MIDI 01
104.517;000.052;62;000.320;MIDI 01
104.688;000.083;65;000.367;MIDI 01
104.922;000.041;52;000.383;MIDI 01
104.918;000.057;59;000.312;MIDI 01
104.919;000.083;62;000.445;MIDI 01
104.912;000.142;78;000.523;MIDI 01
104.924;000.149;74;000.328;MIDI 01
104.970;000.154;68;000.320;MIDI 01
105.120;000.037;66;000.406;MIDI 01
105.295;000.058;80;000.500;MIDI 01
105.353;000.034;76;000.312;MIDI 01
105.311;000.116;74;000.383;MIDI 01
105.388;000.064;66;000.125;MIDI 01
105.333;000.121;68;000.336;MIDI 01
105.510;000.050;64;000.406;MIDI 01
105.747;000.077;46;000.258;MIDI 01
105.708;000.120;77;000.422;MIDI 01
105.743;000.090;53;000.117;MIDI 01
105.769;000.090;58;000.344;MIDI 01
105.739;000.141;74;000.258;MIDI 01
105.794;000.089;70;000.297;MIDI 01
105.946;000.061;65;000.336;MIDI 01
106.176;000.051;62;000.328;MIDI 01
106.345;000.084;65;000.383;MIDI 01
106.619;000.059;62;000.359;MIDI 01
106.591;000.095;59;000.242;MIDI 01
106.620;000.118;78;000.414;MIDI 01
106.629;000.158;74;000.164;MIDI 01
106.691;000.102;68;000.281;MIDI 01
106.826;000.036;66;000.383;MIDI 01
107.027;000.049;80;000.430;MIDI 01
107.054;000.102;74;000.344;MIDI 01
107.047;000.143;68;000.344;MIDI 01
107.075;000.122;66;000.141;MIDI 01
107.266;000.051;64;000.383;MIDI 01
107.508;000.122;77;000.344;MIDI 01
107.531;000.122;46;000.234;MIDI 01
107.519;000.157;53;000.148;MIDI 01
107.602;000.091;70;000.039;MIDI 01
107.520;000.197;74;000.227;MIDI 01
107.535;000.185;58;000.242;MIDI 01
107.767;000.079;65;000.273;MIDI 01
108.065;000.080;70;000.266;MIDI 01
108.092;000.184;62;000.250;MIDI 01
108.434;000.157;65;000.242;MIDI 01
109.078;000.311;59;000.141;MIDI 01
109.068;000.325;52;000.188;MIDI 01
109.107;000.293;47;000.219;MIDI 01
109.044;000.358;56;000.242;MIDI 01
109.046;000.409;66;000.234;MIDI 01
109.076;000.503;62;000.109;MIDI 01
109.529;000.053;64;000.109;MIDI 01
109.496;000.096;68;000.281;MIDI 01
109.791;000.040;66;000.336;MIDI 01
109.775;000.124;71;000.359;MIDI 01
109.865;000.038;62;000.438;MIDI 01
109.960;000.029;68;000.461;MIDI 01
109.967;000.035;74;000.461;MIDI 01
109.755;000.296;61;000.375;MIDI 01
110.122;000.058;64;000.406;MIDI 01
110.148;000.095;68;000.352;MIDI 01
110.141;000.167;74;000.422;MIDI 01
110.156;000.192;78;000.445;MIDI 01
110.331;000.029;80;000.547;MIDI 01
110.189;000.231;71;000.391;MIDI 01
110.542;000.035;78;000.430;MIDI 01
110.586;000.048;74;000.492;MIDI 01
110.495;000.195;83;000.570;MIDI 01
110.655;000.036;80;000.562;MIDI 01
110.657;000.054;86;000.648;MIDI 01
110.497;000.330;73;000.484;MIDI 01
110.866;000.046;71;000.406;MIDI 01
110.852;000.086;80;000.422;MIDI 01
110.833;000.124;76;000.383;MIDI 01
110.864;000.156;86;000.547;MIDI 01
110.856;000.211;90;000.641;MIDI 01
111.033;000.056;92;000.688;MIDI 01
110.868;000.444;83;000.516;MIDI 01
111.304;000.121;90;000.445;MIDI 01
111.365;000.092;86;000.539;MIDI 01
111.237;000.306;85;000.617;MIDI 01
111.490;000.081;83;000.492;MIDI 01
111.234;000.380;95;000.695;MIDI 01
111.484;000.147;98;000.734;MIDI 01
111.502;000.135;92;000.633;MIDI 01
112.094;000.043;70;000.375;MIDI 01
112.112;000.055;101;000.438;MIDI 01
112.155;000.073;98;000.555;MIDI 01
112.255;000.019;94;000.422;MIDI 01
112.315;000.036;89;000.266;MIDI 01
112.306;000.053;77;000.461;MIDI 01
112.421;000.040;86;000.258;MIDI 01
112.429;000.055;82;000.148;MIDI 01
112.501;000.032;77;000.453;MIDI 01
112.562;000.028;82;000.453;MIDI 01
112.610;000.031;86;000.398;MIDI 01
112.662;000.091;77;000.367;MIDI 01
112.730;000.067;89;000.469;MIDI 01
112.866;000.108;98;000.477;MIDI 01
112.965;000.069;68;000.438;MIDI 01
112.821;000.240;94;000.477;MIDI 01
112.982;000.291;102;000.609;MIDI 01
113.366;000.024;90;000.469;MIDI 01
113.294;000.099;83;000.312;MIDI 01
113.304;000.136;78;000.234;MIDI 01
113.286;000.156;95;000.375;MIDI 01
113.292;000.160;74;000.320;MIDI 01
113.179;000.286;98;000.375;MIDI 01
113.449;000.092;104;000.641;MIDI 01
113.571;000.030;98;000.422;MIDI 01
113.579;000.043;74;000.477;MIDI 01
113.703;000.023;92;000.375;MIDI 01
113.622;000.137;95;000.453;MIDI 01
113.784;000.020;58;000.477;MIDI 01
113.786;000.076;101;000.625;MIDI 01
113.864;000.078;98;000.508;MIDI 01
113.943;000.044;94;000.539;MIDI 01
114.003;000.030;89;000.562;MIDI 01
114.021;000.043;74;000.328;MIDI 01
114.013;000.072;70;000.352;MIDI 01
114.010;000.108;65;000.383;MIDI 01
114.105;000.045;86;000.508;MIDI 01
114.161;000.034;82;000.516;MIDI 01
114.219;000.016;77;000.516;MIDI 01
114.322;000.049;74;000.492;MIDI 01
114.418;000.044;70;000.320;MIDI 01
114.433;000.056;65;000.461;MIDI 01
114.490;000.084;70;000.391;MIDI 01
114.590;000.034;74;000.461;MIDI 01
114.354;000.396;58;000.430;MIDI 01
114.673;000.233;78;000.492;MIDI 01
114.926;000.065;71;000.422;MIDI 01
114.659;000.365;56;000.375;MIDI 01
115.037;000.029;66;000.422;MIDI 01
114.851;000.278;74;000.414;MIDI 01
115.018;000.193;61;000.320;MIDI 01
115.157;000.067;80;000.477;MIDI 01
114.985;000.356;62;000.484;MIDI 01
115.308;000.062;74;000.195;MIDI 01
115.335;000.065;59;000.305;MIDI 01
115.368;000.157;71;000.406;MIDI 01
115.522;000.038;68;000.281;MIDI 01
115.635;000.089;46;000.375;MIDI 01
115.685;000.178;77;000.359;MIDI 01
115.795;000.123;74;000.422;MIDI 01
115.944;000.051;62;000.219;MIDI 01
115.963;000.039;70;000.344;MIDI 01
115.955;000.073;58;000.266;MIDI 01
116.031;000.039;65;000.461;MIDI 01
115.940;000.150;53;000.297;MIDI 01
116.166;000.048;62;000.336;MIDI 01
116.259;000.059;58;000.375;MIDI 01
116.391;000.064;53;000.430;MIDI 01
116.499;000.139;46;000.266;MIDI 01
116.743;000.239;44;000.336;MIDI 01
116.832;000.237;50;000.148;MIDI 01
116.747;000.383;59;000.312;MIDI 01
116.818;000.376;54;000.227;MIDI 01
117.147;000.053;61;000.328;MIDI 01
117.478;000.045;54;000.266;MIDI 01
117.415;000.115;62;000.336;MIDI 01
117.541;000.034;66;000.414;MIDI 01
117.343;000.360;58;000.406;MIDI 01
117.695;000.041;56;000.367;MIDI 01
117.735;000.125;62;000.297;MIDI 01
117.730;000.169;66;000.336;MIDI 01
117.719;000.181;71;000.461;MIDI 01
117.877;000.048;73;000.500;MIDI 01
118.146;000.050;66;000.445;MIDI 01
118.106;000.124;71;000.375;MIDI 01
118.089;000.153;74;000.492;MIDI 01
118.237;000.035;78;000.477;MIDI 01
118.047;000.471;70;000.492;MIDI 01
118.479;000.052;74;000.297;MIDI 01
118.499;000.131;78;000.367;MIDI 01
118.466;000.185;83;000.445;MIDI 01
118.454;000.218;68;000.383;MIDI 01
118.647;000.045;85;000.445;MIDI 01
119.001;000.082;78;000.367;MIDI 01
118.817;000.324;70;000.383;MIDI 01
118.881;000.328;83;000.359;MIDI 01
118.860;000.415;86;000.414;MIDI 01
119.268;000.072;80;000.094;MIDI 01
119.209;000.190;90;000.352;MIDI 01
119.205;000.316;68;000.281;MIDI 01
119.641;000.049;67;000.281;MIDI 01
119.638;000.081;98;000.547;MIDI 01
119.709;000.061;95;000.477;MIDI 01
119.775;000.026;91;000.484;MIDI 01
119.841;000.048;74;000.453;MIDI 01
119.854;000.041;86;000.305;MIDI 01
119.856;000.042;79;000.281;MIDI 01
119.948;000.047;83;000.414;MIDI 01
119.997;000.043;79;000.500;MIDI 01
120.060;000.034;74;000.523;MIDI 01
120.129;000.031;79;000.516;MIDI 01
120.160;000.033;83;000.469;MIDI 01
120.199;000.066;74;000.516;MIDI 01
120.273;000.026;86;000.523;MIDI 01
120.498;000.056;60;000.445;MIDI 01
120.356;000.231;91;000.500;MIDI 01
120.408;000.197;95;000.375;MIDI 01
120.505;000.233;99;000.633;MIDI 01
120.711;000.066;94;000.508;MIDI 01
120.814;000.050;90;000.492;MIDI 01
120.838;000.045;75;000.281;MIDI 01
120.858;000.062;70;000.211;MIDI 01
120.835;000.089;66;000.305;MIDI 01
120.990;000.036;101;000.492;MIDI 01
120.999;000.034;100;000.555;MIDI 01
121.100;000.046;66;000.430;MIDI 01
121.199;000.064;90;000.453;MIDI 01
121.260;000.033;89;000.461;MIDI 01
121.321;000.049;55;000.516;MIDI 01
121.328;000.085;98;000.633;MIDI 01
121.429;000.052;95;000.516;MIDI 01
121.459;000.044;91;000.547;MIDI 01
121.545;000.024;86;000.484;MIDI 01
121.647;000.042;83;000.477;MIDI 01
121.719;000.022;79;000.391;MIDI 01
121.570;000.185;67;000.367;MIDI 01
121.729;000.028;77;000.398;MIDI 01
121.565;000.256;62;000.422;MIDI 01
121.854;000.039;71;000.516;MIDI 01
121.961;000.042;62;000.562;MIDI 01
121.943;000.067;67;000.156;MIDI 01
122.014;000.143;67;000.023;MIDI 01
122.089;000.109;71;000.500;MIDI 01
122.228;000.211;75;000.484;MIDI 01
122.396;000.096;70;000.523;MIDI 01
122.507;000.045;66;000.469;MIDI 01
122.223;000.377;48;000.383;MIDI 01
122.597;000.025;63;000.414;MIDI 01
122.505;000.159;58;000.547;MIDI 01
122.677;000.067;77;000.586;MIDI 01
122.503;000.360;54;000.484;MIDI 01
122.509;000.373;53;000.516;MIDI 01
122.819;000.097;70;000.484;MIDI 01
122.885;000.053;51;000.414;MIDI 01
123.025;000.091;65;000.391;MIDI 01
122.915;000.240;66;000.383;MIDI 01
123.154;000.080;43;000.438;MIDI 01
123.156;000.083;74;000.414;MIDI 01
123.274;000.053;71;000.391;MIDI 01
123.345;000.040;67;000.414;MIDI 01
123.424;000.027;59;000.406;MIDI 01
123.428;000.035;55;000.406;MIDI 01
123.444;000.034;62;000.359;MIDI 01
123.439;000.042;50;000.328;MIDI 01
123.580;000.023;59;000.406;MIDI 01
123.616;000.054;55;000.359;MIDI 01
123.769;000.135;50;000.281;MIDI 01
123.968;000.133;55;000.305;MIDI 01
124.112;000.201;59;000.320;MIDI 01
124.377;000.224;62;000.273;MIDI 01
124.704;000.109;58;000.336;MIDI 01
124.842;000.042;59;000.383;MIDI 01
124.879;000.033;61;000.414;MIDI 01
124.967;000.059;62;000.094;MIDI 01
125.026;000.052;66;000.484;MIDI 01
125.111;000.029;67;000.461;MIDI 01
125.109;000.066;70;000.430;MIDI 01
125.178;000.032;71;000.406;MIDI 01
125.260;000.047;73;000.484;MIDI 01
125.372;000.029;74;000.359;MIDI 01
125.401;000.033;78;000.375;MIDI 01
125.446;000.027;79;000.438;MIDI 01
125.682;000.021;83;000.375;MIDI 01
125.711;000.090;85;000.320;MIDI 01
125.842;000.086;86;000.375;MIDI 01
126.266;000.139;86;000.438;MIDI 01
126.486;000.059;79;000.234;MIDI 01
126.555;000.130;77;000.375;MIDI 01
126.184;000.518;61;000.312;MIDI 01
126.674;000.056;74;000.383;MIDI 01
126.766;000.050;85;000.477;MIDI 01
126.616;000.252;65;000.297;MIDI 01
126.849;000.044;79;000.375;MIDI 01
126.909;000.047;77;000.469;MIDI 01
126.936;000.045;71;000.320;MIDI 01
126.999;000.029;73;000.453;MIDI 01
127.130;000.040;73;000.227;MIDI 01
127.101;000.151;79;000.438;MIDI 01
127.358;000.053;71;000.227;MIDI 01
127.215;000.199;77;000.461;MIDI 01
127.383;000.045;67;000.305;MIDI 01
127.482;000.078;80;000.570;MIDI 01
127.595;000.036;77;000.328;MIDI 01
127.679;000.029;71;000.391;MIDI 01
127.759;000.025;68;000.359;MIDI 01
127.477;000.311;65;000.359;MIDI 01
127.850;000.166;83;000.562;MIDI 01
127.986;000.052;79;000.406;MIDI 01
128.058;000.029;76;000.422;MIDI 01
127.853;000.297;61;000.422;MIDI 01
128.149;000.055;71;000.164;MIDI 01
128.234;000.037;75;000.422;MIDI 01
128.088;000.216;64;000.398;MIDI 01
128.348;000.024;76;000.430;MIDI 01
128.430;000.029;77;000.336;MIDI 01
128.497;000.049;78;000.438;MIDI 01
128.394;000.203;71;000.320;MIDI 01
128.597;000.044;79;000.430;MIDI 01
128.718;000.049;80;000.367;MIDI 01
128.826;000.031;81;000.312;MIDI 01
128.605;000.253;76;000.312;MIDI 01
128.284;000.596;67;000.352;MIDI 01
128.926;000.031;82;000.312;MIDI 01
129.011;000.056;83;000.375;MIDI 01
129.131;000.079;88;000.344;MIDI 01
129.037;000.184;71;000.211;MIDI 01
129.223;000.097;87;000.352;MIDI 01
129.316;000.047;86;000.391;MIDI 01
129.619;000.102;86;000.461;MIDI 01
129.758;000.060;79;000.391;MIDI 01
129.523;000.416;61;000.312;MIDI 01
129.925;000.055;74;000.469;MIDI 01
129.842;000.152;77;000.430;MIDI 01
130.009;000.086;85;000.555;MIDI 01
129.880;000.246;65;000.305;MIDI 01
130.116;000.048;79;000.477;MIDI 01
130.169;000.075;77;000.477;MIDI 01
130.227;000.047;71;000.281;MIDI 01
130.273;000.027;73;000.469;MIDI 01
130.387;000.042;73;000.359;MIDI 01
130.377;000.146;79;000.570;MIDI 01
130.586;000.071;71;000.312;MIDI 01
130.488;000.176;77;000.453;MIDI 01
130.656;000.022;67;000.414;MIDI 01
130.750;000.108;80;000.602;MIDI 01
130.881;000.043;77;000.359;MIDI 01
130.943;000.064;71;000.430;MIDI 01
130.779;000.282;65;000.383;MIDI 01
131.050;000.029;68;000.477;MIDI 01
131.152;000.162;83;000.602;MIDI 01
131.285;000.048;79;000.453;MIDI 01
131.358;000.023;76;000.422;MIDI 01
131.158;000.281;61;000.430;MIDI 01
131.454;000.036;71;000.281;MIDI 01
131.381;000.180;64;000.383;MIDI 01
131.541;000.031;75;000.422;MIDI 01
131.640;000.042;76;000.430;MIDI 01
131.733;000.036;77;000.273;MIDI 01
131.787;000.056;78;000.438;MIDI 01
131.681;000.228;71;000.312;MIDI 01
131.901;000.033;79;000.461;MIDI 01
131.596;000.450;67;000.336;MIDI 01
132.006;000.057;80;000.414;MIDI 01
131.897;000.215;76;000.305;MIDI 01
132.111;000.027;81;000.430;MIDI 01
132.223;000.033;82;000.375;MIDI 01
132.329;000.036;83;000.297;MIDI 01
132.332;000.117;71;000.047;MIDI 01
132.419;000.121;88;000.422;MIDI 01
132.537;000.083;87;000.367;MIDI 01
132.641;000.056;86;000.438;MIDI 01
132.943;000.074;86;000.438;MIDI 01
132.858;000.249;49;000.344;MIDI 01
133.049;000.061;83;000.367;MIDI 01
133.240;000.052;74;000.445;MIDI 01
133.148;000.194;77;000.430;MIDI 01
133.321;000.128;85;000.586;MIDI 01
133.561;000.035;73;000.383;MIDI 01
133.550;000.064;71;000.094;MIDI 01
133.522;000.102;65;000.312;MIDI 01
133.490;000.145;61;000.422;MIDI 01
133.520;000.133;77;000.406;MIDI 01
133.667;000.028;81;000.344;MIDI 01
133.426;000.352;83;000.492;MIDI 01
133.695;000.100;88;000.648;MIDI 01
133.835;000.078;81;000.352;MIDI 01
133.802;000.172;83;000.320;MIDI 01
133.900;000.096;77;000.391;MIDI 01
133.706;000.310;64;000.461;MIDI 01
133.982;000.071;76;000.492;MIDI 01
134.114;000.026;65;000.344;MIDI 01
134.108;000.043;62;000.422;MIDI 01
134.091;000.107;86;000.547;MIDI 01
134.180;000.180;83;000.414;MIDI 01
134.264;000.142;77;000.430;MIDI 01
134.358;000.057;74;000.414;MIDI 01
134.458;000.067;49;000.367;MIDI 01
134.474;000.091;86;000.492;MIDI 01
134.592;000.157;83;000.375;MIDI 01
134.749;000.050;74;000.445;MIDI 01
134.633;000.246;77;000.359;MIDI 01
134.863;000.145;85;000.539;MIDI 01
134.860;000.206;61;000.453;MIDI 01
135.119;000.030;73;000.477;MIDI 01
135.074;000.177;77;000.383;MIDI 01
134.977;000.307;83;000.484;MIDI 01
135.322;000.048;71;000.102;MIDI 01
135.250;000.199;86;000.625;MIDI 01
135.529;000.060;74;000.539;MIDI 01
135.251;000.402;62;000.570;MIDI 01
135.460;000.205;77;000.344;MIDI 01
135.664;000.030;71;000.539;MIDI 01
135.651;000.064;64;000.617;MIDI 01
135.656;000.149;88;000.680;MIDI 01
135.816;000.071;77;000.492;MIDI 01
135.366;000.566;83;000.508;MIDI 01
135.957;000.037;76;000.562;MIDI 01
136.228;000.173;91;000.609;MIDI 01
136.151;000.347;54;000.508;MIDI 01
136.395;000.223;84;000.445;MIDI 01
136.592;000.045;79;000.438;MIDI 01
136.508;000.152;82;000.453;MIDI 01
136.533;000.216;61;000.438;MIDI 01
136.716;000.109;64;000.453;MIDI 01
136.650;000.197;90;000.656;MIDI 01
136.764;000.103;84;000.609;MIDI 01
136.861;000.037;70;000.523;MIDI 01
136.825;000.115;82;000.586;MIDI 01
136.922;000.035;78;000.602;MIDI 01
137.004;000.029;76;000.656;MIDI 01
137.016;000.157;84;000.664;MIDI 01
137.139;000.083;76;000.180;MIDI 01
137.149;000.181;82;000.562;MIDI 01
137.306;000.033;72;000.469;MIDI 01
137.226;000.120;76;000.125;MIDI 01
137.424;000.023;70;000.422;MIDI 01
137.405;000.109;85;000.594;MIDI 01
137.505;000.099;82;000.477;MIDI 01
137.580;000.083;76;000.453;MIDI 01
137.689;000.027;73;000.500;MIDI 01
137.806;000.142;54;000.453;MIDI 01
137.811;000.214;88;000.617;MIDI 01
137.984;000.052;84;000.383;MIDI 01
138.036;000.049;81;000.453;MIDI 01
138.016;000.088;60;000.414;MIDI 01
138.110;000.044;76;000.461;MIDI 01
138.114;000.060;64;000.414;MIDI 01
138.220;000.035;69;000.469;MIDI 01
138.229;000.039;80;000.453;MIDI 01
138.322;000.046;81;000.562;MIDI 01
138.391;000.074;82;000.523;MIDI 01
138.341;000.131;72;000.523;MIDI 01
138.445;000.059;76;000.492;MIDI 01
138.527;000.025;81;000.477;MIDI 01
138.494;000.069;83;000.586;MIDI 01
138.562;000.076;84;000.570;MIDI 01
138.645;000.041;76;000.266;MIDI 01
138.647;000.066;85;000.602;MIDI 01
138.681;000.035;72;000.422;MIDI 01
138.733;000.055;86;000.586;MIDI 01
138.818;000.041;87;000.547;MIDI 01
138.804;000.106;69;000.422;MIDI 01
138.918;000.039;88;000.508;MIDI 01
138.916;000.103;64;000.461;MIDI 01
138.993;000.143;93;000.508;MIDI 01
139.085;000.120;92;000.484;MIDI 01
139.174;000.044;91;000.539;MIDI 01
139.067;000.335;60;000.352;MIDI 01
139.367;000.149;91;000.453;MIDI 01
139.365;000.240;54;000.320;MIDI 01
139.604;000.100;82;000.391;MIDI 01
139.684;000.071;79;000.375;MIDI 01
139.759;000.133;90;000.539;MIDI 01
139.968;000.048;76;000.344;MIDI 01
139.954;000.064;66;000.383;MIDI 01
140.015;000.016;78;000.453;MIDI 01
139.978;000.084;70;000.375;MIDI 01
139.994;000.111;82;000.344;MIDI 01
139.891;000.239;88;000.492;MIDI 01
140.186;000.028;91;000.469;MIDI 01
140.181;000.039;76;000.273;MIDI 01
140.160;000.077;93;000.539;MIDI 01
140.182;000.174;69;000.406;MIDI 01
140.308;000.123;85;000.398;MIDI 01
140.285;000.194;88;000.477;MIDI 01
140.380;000.118;82;000.430;MIDI 01
140.473;000.048;81;000.469;MIDI 01
140.597;000.028;67;000.328;MIDI 01
140.595;000.039;70;000.359;MIDI 01
140.571;000.120;91;000.570;MIDI 01
140.746;000.137;82;000.398;MIDI 01
140.677;000.225;88;000.453;MIDI 01
140.842;000.069;79;000.461;MIDI 01
140.953;000.053;54;000.406;MIDI 01
140.966;000.091;91;000.508;MIDI 01
141.074;000.205;88;000.438;MIDI 01
141.221;000.072;79;000.477;MIDI 01
141.121;000.229;82;000.430;MIDI 01
141.365;000.096;76;000.352;MIDI 01
141.353;000.109;70;000.414;MIDI 01
141.340;000.150;90;000.602;MIDI 01
141.349;000.209;66;000.453;MIDI 01
141.573;000.035;78;000.523;MIDI 01
141.446;000.235;88;000.492;MIDI 01
141.523;000.203;82;000.406;MIDI 01
141.755;000.053;76;000.508;MIDI 01
141.766;000.067;70;000.398;MIDI 01
141.714;000.164;91;000.672;MIDI 01
141.920;000.065;86;000.102;MIDI 01
142.008;000.050;79;000.555;MIDI 01
141.924;000.181;82;000.461;MIDI 01
141.726;000.404;67;000.609;MIDI 01
142.143;000.025;76;000.547;MIDI 01
141.832;000.341;88;000.523;MIDI 01
142.131;000.054;69;000.695;MIDI 01
142.128;000.126;93;000.703;MIDI 01
142.243;000.102;88;000.500;MIDI 01
142.295;000.090;82;000.500;MIDI 01
142.415;000.032;81;000.617;MIDI 01
142.668;000.141;96;000.633;MIDI 01
142.609;000.328;55;000.578;MIDI 01
142.818;000.224;89;000.500;MIDI 01
142.956;000.121;85;000.484;MIDI 01
143.033;000.083;84;000.516;MIDI 01
142.998;000.154;61;000.430;MIDI 01
143.105;000.150;94;000.648;MIDI 01
143.210;000.075;89;000.492;MIDI 01
143.122;000.206;65;000.367;MIDI 01
143.256;000.089;85;000.594;MIDI 01
143.301;000.049;70;000.469;MIDI 01
143.338;000.031;82;000.609;MIDI 01
143.434;000.030;58;000.625;MIDI 01
143.436;000.214;87;000.672;MIDI 01
143.517;000.195;85;000.453;MIDI 01
143.702;000.013;75;000.477;MIDI 01
143.613;000.172;80;000.531;MIDI 01
143.784;000.018;64;000.570;MIDI 01
143.790;000.017;73;000.492;MIDI 01
143.787;000.031;68;000.438;MIDI 01
143.798;000.159;88;000.688;MIDI 01
143.991;000.093;80;000.508;MIDI 01
143.918;000.166;85;000.562;MIDI 01
144.067;000.024;76;000.555;MIDI 01
144.177;000.107;91;000.641;MIDI 01
144.283;000.078;88;000.555;MIDI 01
144.153;000.230;61;000.656;MIDI 01
144.410;000.032;83;000.453;MIDI 01
144.491;000.052;79;000.547;MIDI 01
144.598;000.057;80;000.508;MIDI 01
144.565;000.104;71;000.422;MIDI 01
144.666;000.030;76;000.406;MIDI 01
144.700;000.040;81;000.531;MIDI 01
144.443;000.317;67;000.414;MIDI 01
144.735;000.052;66;000.250;MIDI 01
144.783;000.062;82;000.523;MIDI 01
144.912;000.025;71;000.391;MIDI 01
144.880;000.073;83;000.562;MIDI 01
144.918;000.083;61;000.461;MIDI 01
144.957;000.051;67;000.141;MIDI 01
144.953;000.076;84;000.570;MIDI 01
145.028;000.071;85;000.617;MIDI 01
145.114;000.060;86;000.633;MIDI 01
145.200;000.028;87;000.688;MIDI 01
145.258;000.047;58;000.469;MIDI 01
145.279;000.030;68;000.297;MIDI 01
145.291;000.064;88;000.648;MIDI 01
145.381;000.073;89;000.602;MIDI 01
145.458;000.069;90;000.602;MIDI 01
145.554;000.108;91;000.562;MIDI 01
145.660;000.159;55;000.328;MIDI 01
145.742;000.081;96;000.430;MIDI 01
145.846;000.057;61;000.383;MIDI 01
145.859;000.106;89;000.461;MIDI 01
145.945;000.035;65;000.398;MIDI 01
145.964;000.067;85;000.461;MIDI 01
146.042;000.052;84;000.453;MIDI 01
146.086;000.102;67;000.422;MIDI 01
146.099;000.100;94;000.578;MIDI 01
146.206;000.035;73;000.484;MIDI 01
146.189;000.073;89;000.477;MIDI 01
146.268;000.035;85;000.492;MIDI 01
146.335;000.026;82;000.484;MIDI 01
146.308;000.078;77;000.531;MIDI 01
146.432;000.179;97;000.633;MIDI 01
146.446;000.200;70;000.516;MIDI 01
146.535;000.144;92;000.594;MIDI 01
146.703;000.039;85;000.570;MIDI 01
146.629;000.167;88;000.562;MIDI 01
146.904;000.046;92;000.523;MIDI 01
146.624;000.333;76;000.617;MIDI 01
146.791;000.169;80;000.586;MIDI 01
146.796;000.166;96;000.664;MIDI 01
146.944;000.022;85;000.578;MIDI 01
146.938;000.088;88;000.594;MIDI 01
147.022;000.074;84;000.570;MIDI 01
147.134;000.091;96;000.570;MIDI 01
147.250;000.132;89;000.500;MIDI 01
147.345;000.140;85;000.477;MIDI 01
147.425;000.099;84;000.430;MIDI 01
147.136;000.404;67;000.484;MIDI 01
147.458;000.148;73;000.336;MIDI 01
147.501;000.135;94;000.578;MIDI 01
147.619;000.072;89;000.508;MIDI 01
147.739;000.023;82;000.523;MIDI 01
147.652;000.117;77;000.445;MIDI 01
147.685;000.098;85;000.445;MIDI 01
147.890;000.038;95;000.336;MIDI 01
147.864;000.089;96;000.570;MIDI 01
147.855;000.174;70;000.430;MIDI 01
147.957;000.122;88;000.523;MIDI 01
148.036;000.083;85;000.547;MIDI 01
148.117;000.040;84;000.578;MIDI 01
148.198;000.125;80;000.547;MIDI 01
148.039;000.286;76;000.555;MIDI 01
148.367;000.030;82;000.438;MIDI 01
148.206;000.191;97;000.727;MIDI 01
148.309;000.091;92;000.625;MIDI 01
148.471;000.026;85;000.562;MIDI 01
148.377;000.227;88;000.586;MIDI 01
148.564;000.074;91;000.062;MIDI 01
148.608;000.119;98;000.641;MIDI 01
148.560;000.365;69;000.516;MIDI 01
148.828;000.146;87;000.578;MIDI 01
148.914;000.067;86;000.555;MIDI 01
148.731;000.254;91;000.602;MIDI 01
148.893;000.140;75;000.430;MIDI 01
148.973;000.137;96;000.750;MIDI 01
149.079;000.075;91;000.594;MIDI 01
149.116;000.077;87;000.664;MIDI 01
149.083;000.117;79;000.516;MIDI 01
149.191;000.024;84;000.539;MIDI 01
149.280;000.140;72;000.531;MIDI 01
149.277;000.148;99;000.719;MIDI 01
149.372;000.176;94;000.625;MIDI 01
149.545;000.030;87;000.586;MIDI 01
149.473;000.132;90;000.578;MIDI 01
149.475;000.186;78;000.523;MIDI 01
149.631;000.145;82;000.500;MIDI 01
149.745;000.075;94;000.578;MIDI 01
149.624;000.198;98;000.695;MIDI 01
149.797;000.029;87;000.672;MIDI 01
149.770;000.101;90;000.633;MIDI 01
149.857;000.068;86;000.570;MIDI 01
149.917;000.054;87;000.156;MIDI 01
149.963;000.033;92;000.406;MIDI 01
149.954;000.114;98;000.672;MIDI 01
150.067;000.128;91;000.594;MIDI 01
150.137;000.117;87;000.539;MIDI 01
149.986;000.295;69;000.484;MIDI 01
150.236;000.049;86;000.516;MIDI 01
150.222;000.102;75;000.383;MIDI 01
150.297;000.110;96;000.656;MIDI 01
150.401;000.089;91;000.539;MIDI 01
150.453;000.077;87;000.547;MIDI 01
150.399;000.133;79;000.445;MIDI 01
150.540;000.029;84;000.469;MIDI 01
150.628;000.081;98;000.594;MIDI 01
150.609;000.161;72;000.398;MIDI 01
150.713;000.081;94;000.531;MIDI 01
150.794;000.077;90;000.539;MIDI 01
150.852;000.032;86;000.570;MIDI 01
150.946;000.111;82;000.477;MIDI 01
150.940;000.120;99;000.703;MIDI 01
151.052;000.030;84;000.516;MIDI 01
151.008;000.107;94;000.633;MIDI 01
150.787;000.381;78;000.508;MIDI 01
151.095;000.077;90;000.617;MIDI 01
151.165;000.035;87;000.570;MIDI 01
151.327;000.002;100;000.328;MIDI 01
151.282;000.085;101;000.617;MIDI 01
151.264;000.114;72;000.539;MIDI 01
151.425;000.083;94;000.539;MIDI 01
151.432;000.116;78;000.383;MIDI 01
151.527;000.067;90;000.500;MIDI 01
151.627;000.045;89;000.414;MIDI 01
151.582;000.092;82;000.422;MIDI 01
151.672;000.100;73;000.469;MIDI 01
151.664;000.142;99;000.555;MIDI 01
151.764;000.099;95;000.492;MIDI 01
151.824;000.041;91;000.523;MIDI 01
151.761;000.107;79;000.484;MIDI 01
151.855;000.029;87;000.555;MIDI 01
151.853;000.084;83;000.555;MIDI 01
151.948;000.092;102;000.664;MIDI 01
151.944;000.115;74;000.562;MIDI 01
152.028;000.102;80;000.547;MIDI 01
152.005;000.132;96;000.453;MIDI 01
152.137;000.025;90;000.547;MIDI 01
152.115;000.077;84;000.570;MIDI 01
152.102;000.095;92;000.547;MIDI 01
152.192;000.088;75;000.523;MIDI 01
152.277;000.040;81;000.461;MIDI 01
152.270;000.071;93;000.477;MIDI 01
152.227;000.117;101;000.664;MIDI 01
152.332;000.037;85;000.547;MIDI 01
152.377;000.042;96;000.250;MIDI 01
152.382;000.049;95;000.266;MIDI 01
152.392;000.042;89;000.539;MIDI 01
152.446;000.036;91;000.273;MIDI 01
152.444;000.086;72;000.547;MIDI 01
152.498;000.034;100;000.461;MIDI 01
152.466;000.083;101;000.594;MIDI 01
152.554;000.073;94;000.547;MIDI 01
152.548;000.090;78;000.516;MIDI 01
152.607;000.066;90;000.570;MIDI 01
152.627;000.062;82;000.484;MIDI 01
152.688;000.028;89;000.445;MIDI 01
152.723;000.091;73;000.594;MIDI 01
152.726;000.096;99;000.555;MIDI 01
152.782;000.094;95;000.531;MIDI 01
152.780;000.098;79;000.469;MIDI 01
152.864;000.023;87;000.586;MIDI 01
152.846;000.096;83;000.609;MIDI 01
152.952;000.079;74;000.617;MIDI 01
152.948;000.089;102;000.641;MIDI 01
152.958;000.144;96;000.523;MIDI 01
153.024;000.081;80;000.562;MIDI 01
153.098;000.033;90;000.609;MIDI 01
153.092;000.066;92;000.594;MIDI 01
153.092;000.067;84;000.547;MIDI 01
153.157;000.086;75;000.617;MIDI 01
153.197;000.099;101;000.664;MIDI 01
153.260;000.037;93;000.344;MIDI 01
153.267;000.044;81;000.289;MIDI 01
153.289;000.023;85;000.609;MIDI 01
153.310;000.030;96;000.367;MIDI 01
153.349;000.027;89;000.508;MIDI 01
153.371;000.019;91;000.406;MIDI 01
153.384;000.074;72;000.562;MIDI 01
153.405;000.096;101;000.695;MIDI 01
153.467;000.054;100;000.203;MIDI 01
153.510;000.040;94;000.516;MIDI 01
153.480;000.077;78;000.555;MIDI 01
153.548;000.043;90;000.570;MIDI 01
153.543;000.065;82;000.516;MIDI 01
153.636;000.095;73;000.641;MIDI 01
153.642;000.103;99;000.562;MIDI 01
153.676;000.094;79;000.469;MIDI 01
153.680;000.111;95;000.508;MIDI 01
153.777;000.030;87;000.578;MIDI 01
153.750;000.099;83;000.633;MIDI 01
153.849;000.078;74;000.625;MIDI 01
153.869;000.082;102;000.656;MIDI 01
153.921;000.085;80;000.555;MIDI 01
153.875;000.145;96;000.547;MIDI 01
153.976;000.053;84;000.594;MIDI 01
154.018;000.027;90;000.594;MIDI 01
153.995;000.052;92;000.609;MIDI 01
154.039;000.102;75;000.609;MIDI 01
154.150;000.025;81;000.531;MIDI 01
154.166;000.034;85;000.633;MIDI 01
154.104;000.110;101;000.672;MIDI 01
154.215;000.024;96;000.398;MIDI 01
154.207;000.075;93;000.078;MIDI 01
154.254;000.039;89;000.570;MIDI 01
154.278;000.024;91;000.469;MIDI 01
154.270;000.089;72;000.648;MIDI 01
154.352;000.037;100;000.500;MIDI 01
154.319;000.078;101;000.617;MIDI 01
154.374;000.080;78;000.578;MIDI 01
154.397;000.068;94;000.492;MIDI 01
154.441;000.054;90;000.641;MIDI 01
154.428;000.103;82;000.633;MIDI 01
154.583;000.023;97;000.414;MIDI 01
154.537;000.104;73;000.688;MIDI 01
154.541;000.114;99;000.586;MIDI 01
154.594;000.090;79;000.523;MIDI 01
154.589;000.105;95;000.500;MIDI 01
154.674;000.022;87;000.617;MIDI 01
154.680;000.111;83;000.648;MIDI 01
154.756;000.119;101;000.727;MIDI 01
154.782;000.113;74;000.656;MIDI 01
154.849;000.049;99;000.141;MIDI 01
154.832;000.109;96;000.461;MIDI 01
154.889;000.095;80;000.609;MIDI 01
154.895;000.091;92;000.633;MIDI 01
154.959;000.078;89;000.570;MIDI 01
154.983;000.088;84;000.594;MIDI 01
155.053;000.201;75;000.664;MIDI 01
155.048;000.209;102;000.781;MIDI 01
155.161;000.115;97;000.648;MIDI 01
155.234;000.065;81;000.570;MIDI 01
155.287;000.027;85;000.656;MIDI 01
155.235;000.083;93;000.625;MIDI 01
155.323;000.036;90;000.617;MIDI 01
155.394;000.026;85;000.242;MIDI 01
155.573;000.178;106;000.742;MIDI 01
155.592;000.244;99;000.602;MIDI 01
155.585;000.268;94;000.680;MIDI 01
155.583;000.415;56;000.719;MIDI 01
155.844;000.235;58;000.586;MIDI 01
156.015;000.151;61;000.609;MIDI 01
156.131;000.125;63;000.617;MIDI 01
156.244;000.030;66;000.586;MIDI 01
156.315;000.082;68;000.570;MIDI 01
156.379;000.098;70;000.555;MIDI 01
156.423;000.084;73;000.508;MIDI 01
156.476;000.045;75;000.453;MIDI 01
156.474;000.065;78;000.523;MIDI 01
156.543;000.114;68;000.547;MIDI 01
156.623;000.099;70;000.570;MIDI 01
156.667;000.077;73;000.586;MIDI 01
156.722;000.067;75;000.594;MIDI 01
156.783;000.046;78;000.664;MIDI 01
156.811;000.116;80;000.594;MIDI 01
156.874;000.100;82;000.602;MIDI 01
156.917;000.072;85;000.625;MIDI 01
156.948;000.050;87;000.633;MIDI 01
156.969;000.047;90;000.695;MIDI 01
157.076;000.052;80;000.555;MIDI 01
157.072;000.068;85;000.617;MIDI 01
157.074;000.076;82;000.539;MIDI 01
157.271;000.054;87;000.469;MIDI 01
157.265;000.069;90;000.469;MIDI 01
157.273;000.069;92;000.406;MIDI 01
157.269;000.085;94;000.461;MIDI 01
157.378;000.031;85;000.453;MIDI 01
157.400;000.035;80;000.305;MIDI 01
157.461;000.040;87;000.484;MIDI 01
157.474;000.029;90;000.406;MIDI 01
157.476;000.035;92;000.430;MIDI 01
157.481;000.032;94;000.414;MIDI 01
157.532;000.046;85;000.445;MIDI 01
157.556;000.026;80;000.406;MIDI 01
157.572;000.057;82;000.164;MIDI 01
157.599;000.033;87;000.516;MIDI 01
157.629;000.022;94;000.453;MIDI 01
157.627;000.032;90;000.391;MIDI 01
157.629;000.034;92;000.414;MIDI 01
157.684;000.033;85;000.547;MIDI 01
157.702;000.030;80;000.461;MIDI 01
157.732;000.043;87;000.547;MIDI 01
157.762;000.024;94;000.500;MIDI 01
157.785;000.027;92;000.359;MIDI 01
157.789;000.035;90;000.305;MIDI 01
157.806;000.040;85;000.555;MIDI 01
157.830;000.024;80;000.531;MIDI 01
157.870;000.036;87;000.570;MIDI 01
157.873;000.045;94;000.570;MIDI 01
157.893;000.027;92;000.492;MIDI 01
157.904;000.025;90;000.383;MIDI 01
157.950;000.034;85;000.609;MIDI 01
157.943;000.045;80;000.523;MIDI 01
157.964;000.034;82;000.406;MIDI 01
157.994;000.033;87;000.586;MIDI 01
158.018;000.021;90;000.547;MIDI 01
157.998;000.043;92;000.617;MIDI 01
157.996;000.050;94;000.523;MIDI 01
158.069;000.037;85;000.570;MIDI 01
158.081;000.034;80;000.562;MIDI 01
158.094;000.043;82;000.523;MIDI 01
158.136;000.017;87;000.641;MIDI 01
158.141;000.024;90;000.594;MIDI 01
158.130;000.039;92;000.547;MIDI 01
158.134;000.036;94;000.656;MIDI 01
158.203;000.031;80;000.547;MIDI 01
158.210;000.026;82;000.578;MIDI 01
158.200;000.039;85;000.688;MIDI 01
158.265;000.023;87;000.602;MIDI 01
158.274;000.021;92;000.648;MIDI 01
158.272;000.025;94;000.633;MIDI 01
158.259;000.040;90;000.516;MIDI 01
158.318;000.037;85;000.742;MIDI 01
158.331;000.029;80;000.594;MIDI 01
158.312;000.050;82;000.531;MIDI 01
158.393;000.029;87;000.688;MIDI 01
158.396;000.029;90;000.656;MIDI 01
158.380;000.049;92;000.391;MIDI 01
158.386;000.045;94;000.602;MIDI 01
158.446;000.036;85;000.672;MIDI 01
158.448;000.041;80;000.602;MIDI 01
158.463;000.033;82;000.547;MIDI 01
158.512;000.031;87;000.672;MIDI 01
158.508;000.045;90;000.484;MIDI 01
158.523;000.032;92;000.727;MIDI 01
158.521;000.036;94;000.711;MIDI 01
158.582;000.023;85;000.719;MIDI 01
158.586;000.031;80;000.641;MIDI 01
158.580;000.040;82;000.633;MIDI 01
158.646;000.023;87;000.664;MIDI 01
158.651;000.022;90;000.664;MIDI 01
158.640;000.051;92;000.570;MIDI 01
158.644;000.050;94;000.656;MIDI 01
158.705;000.030;85;000.648;MIDI 01
158.711;000.032;82;000.633;MIDI 01
158.704;000.042;80;000.469;MIDI 01
158.770;000.020;87;000.703;MIDI 01
158.764;000.035;90;000.438;MIDI 01
158.780;000.024;92;000.680;MIDI 01
158.775;000.031;94;000.688;MIDI 01
158.822;000.027;85;000.773;MIDI 01
158.834;000.031;80;000.609;MIDI 01
158.812;000.060;82;000.625;MIDI 01
158.895;000.030;87;000.727;MIDI 01
158.905;000.026;90;000.664;MIDI 01
158.897;000.049;92;000.703;MIDI 01
158.898;000.056;94;000.703;MIDI 01
158.954;000.038;82;000.609;MIDI 01
158.944;000.050;85;000.672;MIDI 01
158.941;000.055;80;000.539;MIDI 01
159.025;000.025;87;000.680;MIDI 01
159.030;000.033;92;000.695;MIDI 01
159.010;000.056;90;000.469;MIDI 01
159.027;000.050;94;000.672;MIDI 01
159.067;000.027;85;000.742;MIDI 01
159.073;000.041;82;000.641;MIDI 01
159.090;000.039;80;000.547;MIDI 01
159.153;000.023;87;000.617;MIDI 01
159.152;000.034;90;000.656;MIDI 01
159.154;000.047;94;000.633;MIDI 01
159.150;000.056;92;000.695;MIDI 01
159.196;000.028;80;000.641;MIDI 01
159.180;000.050;85;000.664;MIDI 01
159.201;000.036;82;000.656;MIDI 01
159.287;000.019;87;000.641;MIDI 01
159.306;000.029;85;000.695;MIDI 01
159.284;000.053;90;000.641;MIDI 01
159.322;000.035;80;000.578;MIDI 01
159.287;000.072;92;000.633;MIDI 01
159.327;000.034;82;000.570;MIDI 01
159.285;000.125;94;000.625;MIDI 01
159.424;000.108;85;000.516;MIDI 01
159.434;000.143;80;000.656;MIDI 01
159.432;000.153;82;000.688;MIDI 01
159.577;000.328;106;000.773;MIDI 01
159.993;000.034;104;000.375;MIDI 01
160.048;000.035;102;000.492;MIDI 01
160.104;000.044;99;000.516;MIDI 01
160.156;000.024;97;000.594;MIDI 01
160.192;000.039;94;000.586;MIDI 01
160.223;000.044;92;000.562;MIDI 01
160.256;000.040;90;000.617;MIDI 01
160.296;000.046;87;000.625;MIDI 01
160.322;000.041;85;000.617;MIDI 01
160.360;000.043;82;000.609;MIDI 01
160.381;000.041;80;000.617;MIDI 01
160.408;000.034;78;000.664;MIDI 01
160.440;000.048;75;000.695;MIDI 01
160.456;000.047;73;000.711;MIDI 01
160.493;000.049;70;000.695;MIDI 01
160.517;000.049;68;000.727;MIDI 01
160.532;000.053;66;000.711;MIDI 01
160.566;000.044;63;000.703;MIDI 01
160.592;000.047;61;000.703;MIDI 01
160.619;000.061;58;000.688;MIDI 01
160.646;000.056;56;000.727;MIDI 01
160.665;000.069;54;000.672;MIDI 01
160.715;000.089;51;000.664;MIDI 01
160.783;000.044;49;000.398;MIDI 01
160.818;000.065;44;000.664;MIDI 01
160.952;000.155;49;000.555;MIDI 01
161.080;000.117;51;000.547;MIDI 01
161.211;000.031;32;000.711;MIDI 01
161.165;000.117;54;000.555;MIDI 01
161.281;000.130;58;000.578;MIDI 01
161.387;000.081;54;000.453;MIDI 01
161.607;000.169;49;000.477;MIDI 01
161.815;000.122;21;000.742;MIDI 01
161.482;000.479;51;000.492;MIDI 01
162.083;000.237;49;000.406;MIDI 01
162.258;000.151;51;000.398;MIDI 01
162.404;000.131;54;000.391;MIDI 01
162.739;000.101;54;000.312;MIDI 01
162.981;000.062;49;000.375;MIDI 01
162.552;000.494;58;000.422;MIDI 01
162.816;000.315;51;000.336;MIDI 01
163.174;000.181;44;000.570;MIDI 01
163.480;000.064;49;000.102;MIDI 01
163.556;000.199;51;000.336;MIDI 01
163.759;000.076;54;000.250;MIDI 01
163.883;000.072;58;000.328;MIDI 01
164.029;000.058;54;000.312;MIDI 01
164.118;000.095;51;000.430;MIDI 01
164.278;000.050;49;000.273;MIDI 01
164.296;000.120;44;000.500;MIDI 01
164.473;000.098;49;000.367;MIDI 01
164.611;000.083;51;000.289;MIDI 01
164.724;000.050;54;000.234;MIDI 01
164.801;000.055;58;000.359;MIDI 01
164.930;000.049;54;000.344;MIDI 01
165.010;000.094;51;000.375;MIDI 01
165.134;000.052;49;000.281;MIDI 01
165.193;000.059;44;000.352;MIDI 01
165.320;000.070;49;000.375;MIDI 01
165.435;000.055;51;000.297;MIDI 01
165.539;000.037;54;000.273;MIDI 01
165.624;000.046;58;000.352;MIDI 01
165.765;000.045;54;000.156;MIDI 01
165.805;000.080;51;000.328;MIDI 01
165.911;000.074;49;000.242;MIDI 01
166.012;000.179;44;000.375;MIDI 01
166.170;000.112;49;000.305;MIDI 01
166.311;000.105;51;000.297;MIDI 01
166.468;000.073;54;000.250;MIDI 01
166.594;000.094;58;000.289;MIDI 01
166.738;000.173;54;000.242;MIDI 01
166.943;000.084;51;000.180;MIDI 01
167.081;000.262;49;000.273;MIDI 01
167.327;000.253;44;000.281;MIDI 01
167.483;000.251;58;000.141;MIDI 01
167.586;000.205;49;000.203;MIDI 01
167.762;000.226;54;000.180;MIDI 01
167.943;000.093;58;000.305;MIDI 01
167.372;000.674;63;000.352;MIDI 01
168.096;000.054;60;000.258;MIDI 01
168.111;000.065;57;000.297;MIDI 01
168.297;000.086;50;000.305;MIDI 01
168.429;000.071;44;000.352;MIDI 01
168.069;000.572;65;000.406;MIDI 01
168.585;000.073;50;000.250;MIDI 01
168.591;000.075;57;000.297;MIDI 01
168.691;000.052;54;000.336;MIDI 01
168.516;000.300;62;000.391;MIDI 01
168.782;000.066;57;000.352;MIDI 01
168.901;000.037;60;000.312;MIDI 01
168.990;000.051;57;000.438;MIDI 01
168.929;000.155;66;000.359;MIDI 01
168.903;000.186;69;000.422;MIDI 01
169.106;000.248;62;000.531;MIDI 01
169.317;000.085;44;000.367;MIDI 01
169.166;000.316;50;000.352;MIDI 01
169.401;000.095;58;000.328;MIDI 01
169.464;000.059;49;000.312;MIDI 01
169.535;000.082;54;000.359;MIDI 01
169.680;000.053;58;000.312;MIDI 01
169.308;000.466;63;000.477;MIDI 01
169.799;000.080;57;000.422;MIDI 01
170.024;000.099;50;000.312;MIDI 01
169.828;000.321;60;000.203;MIDI 01
169.762;000.394;65;000.438;MIDI 01
170.153;000.141;44;000.359;MIDI 01
170.318;000.062;50;000.328;MIDI 01
170.253;000.160;57;000.219;MIDI 01
170.418;000.053;54;000.375;MIDI 01
170.197;000.301;62;000.336;MIDI 01
170.516;000.085;57;000.250;MIDI 01
170.640;000.035;60;000.312;MIDI 01
170.752;000.037;57;000.398;MIDI 01
170.925;000.234;50;000.305;MIDI 01
171.089;000.117;44;000.406;MIDI 01
171.223;000.076;63;000.297;MIDI 01
171.259;000.055;49;000.234;MIDI 01
171.339;000.042;54;000.266;MIDI 01
171.119;000.290;75;000.344;MIDI 01
171.421;000.070;58;000.406;MIDI 01
171.209;000.376;70;000.102;MIDI 01
171.552;000.046;60;000.352;MIDI 01
171.545;000.154;77;000.523;MIDI 01
171.668;000.033;57;000.445;MIDI 01
171.602;000.197;65;000.383;MIDI 01
171.797;000.047;54;000.336;MIDI 01
171.844;000.078;50;000.406;MIDI 01
171.550;000.468;72;000.375;MIDI 01
171.970;000.076;44;000.414;MIDI 01
171.999;000.114;69;000.312;MIDI 01
172.082;000.051;50;000.367;MIDI 01
171.960;000.206;74;000.516;MIDI 01
172.158;000.048;54;000.438;MIDI 01
172.253;000.094;57;000.398;MIDI 01
172.406;000.050;60;000.344;MIDI 01
172.531;000.053;57;000.375;MIDI 01
172.425;000.210;81;000.484;MIDI 01
172.491;000.211;78;000.266;MIDI 01
172.635;000.072;74;000.547;MIDI 01
172.665;000.051;69;000.445;MIDI 01
172.711;000.048;54;000.141;MIDI 01
172.870;000.064;44;000.430;MIDI 01
172.749;000.292;50;000.344;MIDI 01
172.997;000.046;49;000.359;MIDI 01
172.991;000.072;63;000.297;MIDI 01
173.062;000.047;54;000.352;MIDI 01
172.865;000.311;75;000.555;MIDI 01
173.139;000.075;58;000.414;MIDI 01
173.278;000.045;60;000.398;MIDI 01
172.992;000.333;70;000.320;MIDI 01
173.386;000.047;57;000.422;MIDI 01
173.283;000.209;77;000.562;MIDI 01
173.520;000.043;51;000.445;MIDI 01
173.356;000.213;65;000.320;MIDI 01
173.294;000.485;72;000.406;MIDI 01
173.793;000.086;69;000.391;MIDI 01
173.708;000.224;44;000.414;MIDI 01
173.902;000.224;62;000.352;MIDI 01
173.908;000.226;50;000.328;MIDI 01
174.064;000.096;54;000.367;MIDI 01
173.761;000.540;74;000.500;MIDI 01
174.193;000.112;57;000.344;MIDI 01
174.358;000.050;60;000.297;MIDI 01
174.493;000.039;57;000.375;MIDI 01
174.476;000.219;62;000.289;MIDI 01
174.653;000.064;54;000.055;MIDI 01
174.412;000.306;69;000.352;MIDI 01
174.688;000.039;50;000.289;MIDI 01
174.760;000.048;44;000.398;MIDI 01
174.866;000.036;50;000.359;MIDI 01
174.947;000.049;54;000.281;MIDI 01
175.015;000.073;57;000.367;MIDI 01
175.156;000.044;60;000.234;MIDI 01
175.236;000.035;57;000.430;MIDI 01
175.402;000.077;50;000.312;MIDI 01
175.527;000.061;44;000.336;MIDI 01
175.749;000.054;54;000.234;MIDI 01
175.839;000.072;57;000.320;MIDI 01
175.543;000.452;48;000.539;MIDI 01
175.974;000.045;60;000.250;MIDI 01
176.003;000.091;45;000.352;MIDI 01
176.082;000.041;57;000.312;MIDI 01
176.244;000.072;50;000.297;MIDI 01
176.344;000.066;44;000.391;MIDI 01
176.474;000.051;50;000.289;MIDI 01
176.560;000.042;54;000.273;MIDI 01
176.623;000.060;57;000.344;MIDI 01
176.734;000.043;60;000.305;MIDI 01
176.819;000.050;57;000.461;MIDI 01
176.958;000.055;54;000.242;MIDI 01
177.028;000.071;50;000.281;MIDI 01
177.098;000.066;60;000.547;MIDI 01
177.123;000.082;44;000.469;MIDI 01
177.257;000.047;50;000.219;MIDI 01
177.314;000.053;54;000.398;MIDI 01
177.391;000.090;57;000.422;MIDI 01
177.477;000.108;60;000.344;MIDI 01
177.480;000.127;62;000.375;MIDI 01
177.559;000.136;66;000.438;MIDI 01
177.655;000.075;69;000.406;MIDI 01
177.708;000.046;74;000.445;MIDI 01
177.847;000.081;72;000.617;MIDI 01
177.877;000.118;68;000.523;MIDI 01
177.976;000.143;75;000.492;MIDI 01
178.051;000.082;78;000.453;MIDI 01
178.113;000.064;80;000.438;MIDI 01
177.869;000.323;60;000.445;MIDI 01
178.239;000.061;57;000.352;MIDI 01
178.241;000.094;69;000.383;MIDI 01
178.248;000.100;72;000.336;MIDI 01
178.255;000.118;74;000.406;MIDI 01
178.329;000.141;78;000.516;MIDI 01
178.403;000.082;81;000.523;MIDI 01
178.479;000.041;86;000.562;MIDI 01
178.592;000.034;84;000.688;MIDI 01
178.611;000.082;72;000.562;MIDI 01
178.618;000.127;80;000.625;MIDI 01
178.716;000.155;87;000.609;MIDI 01
178.774;000.133;90;000.539;MIDI 01
178.875;000.040;92;000.523;MIDI 01
178.968;000.022;69;000.438;MIDI 01
178.989;000.056;81;000.438;MIDI 01
178.975;000.139;84;000.484;MIDI 01
178.978;000.143;86;000.531;MIDI 01
179.051;000.132;90;000.602;MIDI 01
179.136;000.104;93;000.586;MIDI 01
179.221;000.056;98;000.695;MIDI 01
179.327;000.084;85;000.734;MIDI 01
179.324;000.169;78;000.711;MIDI 01
179.528;000.062;86;000.641;MIDI 01
179.533;000.073;84;000.578;MIDI 01
179.531;000.092;93;000.602;MIDI 01
179.632;000.062;81;000.562;MIDI 01
179.703;000.037;86;000.625;MIDI 01
179.709;000.045;84;000.516;MIDI 01
179.738;000.036;93;000.492;MIDI 01
179.804;000.026;73;000.711;MIDI 01
179.807;000.030;66;000.703;MIDI 01
179.895;000.025;73;000.383;MIDI 01
179.897;000.050;74;000.477;MIDI 01
179.925;000.058;72;000.352;MIDI 01
179.917;000.069;81;000.242;MIDI 01
179.990;000.067;69;000.609;MIDI 01
180.047;000.024;74;000.570;MIDI 01
180.040;000.052;72;000.422;MIDI 01
180.156;000.033;56;000.625;MIDI 01
180.244;000.046;62;000.438;MIDI 01
180.265;000.073;69;000.461;MIDI 01
180.315;000.047;56;000.023;MIDI 01
180.289;000.092;66;000.516;MIDI 01
180.384;000.045;61;000.484;MIDI 01
180.449;000.037;60;000.547;MIDI 01
180.493;000.016;44;000.633;MIDI 01
180.555;000.083;59;000.531;MIDI 01
180.616;000.084;58;000.492;MIDI 01
180.689;000.051;57;000.547;MIDI 01
180.747;000.045;56;000.562;MIDI 01
180.857;000.029;32;000.625;MIDI 01
181.005;000.059;50;000.367;MIDI 01
180.971;000.097;57;000.500;MIDI 01
181.008;000.111;54;000.383;MIDI 01
181.120;000.072;49;000.477;MIDI 01
181.223;000.064;48;000.500;MIDI 01
181.276;000.023;21;000.703;MIDI 01
181.350;000.081;47;000.500;MIDI 01
181.442;000.073;46;000.484;MIDI 01
181.542;000.058;45;000.461;MIDI 01
181.645;000.020;44;000.484;MIDI 01
181.982;000.197;44;000.258;MIDI 01
182.195;000.053;53;000.359;MIDI 01
182.114;000.191;60;000.305;MIDI 01
182.336;000.076;56;000.469;MIDI 01
182.488;000.060;60;000.453;MIDI 01
182.026;000.622;65;000.461;MIDI 01
182.593;000.090;62;000.453;MIDI 01
182.702;000.024;56;000.391;MIDI 01
182.758;000.057;52;000.414;MIDI 01
182.885;000.073;44;000.508;MIDI 01
182.559;000.470;67;000.523;MIDI 01
183.011;000.059;52;000.383;MIDI 01
182.972;000.114;59;000.422;MIDI 01
183.118;000.102;56;000.477;MIDI 01
182.908;000.314;64;000.531;MIDI 01
183.220;000.050;59;000.430;MIDI 01
183.301;000.042;62;000.531;MIDI 01
183.349;000.075;68;000.430;MIDI 01
183.393;000.033;59;000.375;MIDI 01
183.320;000.139;71;000.547;MIDI 01
183.451;000.039;64;000.477;MIDI 01
183.464;000.035;56;000.461;MIDI 01
183.643;000.058;52;000.148;MIDI 01
183.768;000.045;72;000.352;MIDI 01
183.721;000.111;44;000.469;MIDI 01
183.785;000.095;65;000.273;MIDI 01
183.873;000.042;53;000.391;MIDI 01
183.961;000.096;56;000.523;MIDI 01
183.753;000.464;77;000.508;MIDI 01
184.140;000.102;60;000.305;MIDI 01
184.115;000.131;74;000.438;MIDI 01
184.269;000.044;59;000.242;MIDI 01
184.156;000.179;79;000.656;MIDI 01
184.324;000.041;56;000.500;MIDI 01
184.222;000.178;67;000.414;MIDI 01
184.460;000.078;52;000.445;MIDI 01
184.584;000.117;44;000.422;MIDI 01
184.719;000.061;52;000.430;MIDI 01
184.701;000.153;64;000.367;MIDI 01
184.846;000.070;56;000.445;MIDI 01
184.964;000.057;59;000.406;MIDI 01
185.096;000.034;62;000.320;MIDI 01
184.571;000.572;76;000.570;MIDI 01
185.181;000.049;59;000.305;MIDI 01
185.277;000.041;56;000.336;MIDI 01
185.223;000.128;64;000.359;MIDI 01
185.160;000.328;71;000.453;MIDI 01
185.474;000.060;44;000.383;MIDI 01
185.586;000.045;52;000.250;MIDI 01
185.793;000.041;59;000.344;MIDI 01
185.884;000.030;62;000.336;MIDI 01
185.969;000.041;59;000.289;MIDI 01
186.049;000.048;56;000.320;MIDI 01
186.258;000.033;50;000.555;MIDI 01
186.197;000.115;52;000.070;MIDI 01
186.281;000.051;44;000.227;MIDI 01
186.332;000.060;52;000.188;MIDI 01
186.450;000.041;56;000.391;MIDI 01
186.570;000.046;59;000.328;MIDI 01
186.686;000.081;47;000.430;MIDI 01
186.691;000.083;62;000.383;MIDI 01
186.689;000.102;64;000.320;MIDI 01
186.857;000.056;71;000.367;MIDI 01
186.777;000.140;68;000.406;MIDI 01
186.914;000.047;76;000.500;MIDI 01
187.046;000.034;74;000.594;MIDI 01
187.049;000.078;62;000.508;MIDI 01
187.055;000.081;68;000.578;MIDI 01
187.175;000.111;75;000.508;MIDI 01
187.233;000.105;80;000.531;MIDI 01
187.343;000.044;83;000.398;MIDI 01
187.203;000.196;62;000.289;MIDI 01
187.426;000.064;59;000.312;MIDI 01
187.435;000.067;71;000.383;MIDI 01
187.431;000.089;74;000.484;MIDI 01
187.432;000.101;76;000.445;MIDI 01
187.541;000.118;80;000.523;MIDI 01
187.590;000.095;83;000.406;MIDI 01
187.690;000.027;88;000.562;MIDI 01
187.789;000.033;86;000.656;MIDI 01
187.787;000.068;74;000.547;MIDI 01
187.792;000.122;80;000.648;MIDI 01
187.910;000.129;87;000.609;MIDI 01
187.983;000.085;92;000.570;MIDI 01
188.079;000.054;95;000.516;MIDI 01
187.973;000.179;74;000.297;MIDI 01
188.171;000.031;71;000.414;MIDI 01
188.164;000.103;83;000.562;MIDI 01
188.166;000.124;86;000.586;MIDI 01
188.156;000.153;88;000.562;MIDI 01
188.259;000.115;92;000.648;MIDI 01
188.349;000.083;95;000.609;MIDI 01
188.418;000.060;100;000.719;MIDI 01
188.533;000.194;87;000.766;MIDI 01
188.549;000.228;80;000.656;MIDI 01
188.764;000.059;88;000.633;MIDI 01
188.759;000.073;86;000.680;MIDI 01
188.766;000.080;95;000.648;MIDI 01
188.871;000.083;83;000.602;MIDI 01
188.964;000.031;88;000.641;MIDI 01
188.970;000.034;86;000.586;MIDI 01
188.986;000.025;95;000.547;MIDI 01
189.055;000.019;75;000.641;MIDI 01
189.051;000.048;68;000.664;MIDI 01
189.153;000.057;76;000.516;MIDI 01
189.165;000.052;74;000.438;MIDI 01
189.155;000.067;83;000.305;MIDI 01
189.234;000.077;71;000.633;MIDI 01
189.311;000.034;74;000.562;MIDI 01
189.332;000.027;76;000.445;MIDI 01
189.367;000.022;56;000.766;MIDI 01
189.450;000.029;56;000.453;MIDI 01
189.488;000.054;64;000.570;MIDI 01
189.504;000.079;71;000.469;MIDI 01
189.526;000.120;68;000.547;MIDI 01
189.636;000.048;63;000.477;MIDI 01
189.706;000.068;62;000.570;MIDI 01
189.756;000.032;44;000.594;MIDI 01
189.801;000.139;61;000.555;MIDI 01
189.905;000.040;60;000.422;MIDI 01
189.964;000.080;59;000.547;MIDI 01
190.070;000.036;58;000.508;MIDI 01
190.146;000.029;32;000.602;MIDI 01
190.278;000.061;52;000.438;MIDI 01
190.309;000.060;56;000.336;MIDI 01
190.268;000.104;59;000.453;MIDI 01
190.395;000.084;51;000.516;MIDI 01
190.565;000.031;21;000.703;MIDI 01
190.518;000.102;50;000.492;MIDI 01
190.624;000.104;49;000.508;MIDI 01
190.759;000.045;48;000.422;MIDI 01
190.851;000.090;47;000.445;MIDI 01
190.951;000.028;46;000.516;MIDI 01
191.265;000.278;44;000.336;MIDI 01
191.396;000.176;61;000.344;MIDI 01
191.550;000.120;49;000.398;MIDI 01
191.673;000.065;54;000.414;MIDI 01
191.761;000.062;58;000.383;MIDI 01
191.301;000.658;66;000.492;MIDI 01
191.954;000.071;60;000.453;MIDI 01
191.939;000.091;63;000.398;MIDI 01
192.055;000.040;56;000.461;MIDI 01
192.113;000.096;51;000.516;MIDI 01
192.235;000.027;44;000.500;MIDI 01
192.262;000.132;60;000.406;MIDI 01
192.324;000.076;53;000.391;MIDI 01
192.213;000.261;65;000.570;MIDI 01
192.399;000.080;58;000.578;MIDI 01
192.486;000.065;62;000.539;MIDI 01
191.840;000.744;68;000.555;MIDI 01
192.583;000.104;51;000.531;MIDI 01
192.621;000.122;56;000.492;MIDI 01
192.642;000.130;65;000.547;MIDI 01
192.739;000.102;60;000.555;MIDI 01
192.889;000.070;65;000.648;MIDI 01
192.619;000.355;72;000.602;MIDI 01
192.872;000.211;53;000.531;MIDI 01
192.891;000.226;58;000.555;MIDI 01
193.039;000.157;62;000.617;MIDI 01
193.283;000.148;64;000.641;MIDI 01
193.343;000.136;55;000.344;MIDI 01
193.387;000.196;84;000.469;MIDI 01
193.571;000.106;79;000.516;MIDI 01
193.671;000.032;32;000.531;MIDI 01
193.674;000.031;44;000.547;MIDI 01
193.689;000.036;76;000.461;MIDI 01
193.756;000.035;72;000.500;MIDI 01
193.847;000.126;86;000.602;MIDI 01
193.954;000.105;81;000.602;MIDI 01
194.046;000.084;78;000.570;MIDI 01
194.127;000.113;74;000.586;MIDI 01
194.061;000.217;66;000.586;MIDI 01
194.223;000.135;83;000.641;MIDI 01
194.091;000.314;57;000.461;MIDI 01
194.335;000.107;78;000.617;MIDI 01
194.408;000.103;68;000.633;MIDI 01
194.426;000.105;74;000.617;MIDI 01
194.537;000.152;71;000.625;MIDI 01
194.633;000.103;66;000.625;MIDI 01
194.611;000.140;57;000.531;MIDI 01
194.648;000.209;78;000.672;MIDI 01
194.755;000.105;74;000.641;MIDI 01
194.836;000.114;73;000.695;MIDI 01
194.939;000.033;71;000.617;MIDI 01
194.852;000.193;68;000.609;MIDI 01
194.352;000.772;64;000.328;MIDI 01
194.409;000.795;59;000.523;MIDI 01
195.161;000.132;56;000.438;MIDI 01
195.250;000.103;78;000.453;MIDI 01
195.348;000.092;61;000.438;MIDI 01
195.445;000.061;66;000.438;MIDI 01
195.506;000.047;70;000.469;MIDI 01
195.199;000.468;85;000.570;MIDI 01
195.609;000.116;87;000.680;MIDI 01
195.659;000.108;80;000.570;MIDI 01
195.702;000.139;72;000.586;MIDI 01
195.834;000.079;68;000.570;MIDI 01
195.912;000.130;63;000.539;MIDI 01
196.051;000.026;56;000.461;MIDI 01
196.146;000.057;79;000.109;MIDI 01
196.137;000.068;77;000.141;MIDI 01
196.135;000.083;65;000.477;MIDI 01
196.229;000.071;70;000.586;MIDI 01
196.062;000.240;80;000.461;MIDI 01
196.319;000.041;74;000.570;MIDI 01
196.480;000.055;63;000.352;MIDI 01
196.029;000.536;84;000.664;MIDI 01
196.484;000.090;68;000.461;MIDI 01
196.604;000.039;72;000.523;MIDI 01
196.460;000.250;77;000.625;MIDI 01
196.740;000.050;72;000.680;MIDI 01
196.732;000.090;65;000.453;MIDI 01
196.751;000.095;70;000.523;MIDI 01
196.889;000.039;74;000.398;MIDI 01
196.944;000.045;72;000.242;MIDI 01
197.026;000.054;70;000.406;MIDI 01
197.058;000.057;66;000.422;MIDI 01
197.072;000.074;61;000.555;MIDI 01
197.082;000.287;90;000.695;MIDI 01
197.304;000.159;85;000.547;MIDI 01
197.444;000.045;44;000.586;MIDI 01
197.448;000.047;32;000.492;MIDI 01
197.454;000.111;82;000.562;MIDI 01
197.589;000.050;78;000.570;MIDI 01
197.701;000.231;92;000.656;MIDI 01
197.863;000.160;87;000.570;MIDI 01
197.960;000.125;84;000.531;MIDI 01
198.030;000.103;68;000.383;MIDI 01
198.106;000.088;80;000.547;MIDI 01
197.992;000.308;72;000.594;MIDI 01
198.240;000.201;93;000.586;MIDI 01
198.054;000.506;63;000.414;MIDI 01
198.421;000.199;88;000.508;MIDI 01
198.605;000.201;85;000.508;MIDI 01
198.826;000.045;79;000.336;MIDI 01
198.822;000.079;81;000.344;MIDI 01
198.617;000.337;69;000.289;MIDI 01
198.603;000.379;73;000.359;MIDI 01
199.041;000.211;95;000.422;MIDI 01
198.610;000.694;64;000.336;MIDI 01
199.089;000.301;90;000.422;MIDI 01
199.899;000.764;75;000.219;MIDI 01
199.929;000.823;71;000.242;MIDI 01
199.892;000.867;81;000.281;MIDI 01
199.898;001.128;66;000.234;MIDI 01
199.894;001.718;83;000.250;MIDI 01
201.882;000.222;44;000.297;MIDI 01
201.931;000.311;75;000.242;MIDI 01
202.308;000.207;80;000.289;MIDI 01
202.589;000.053;64;000.266;MIDI 01
202.602;000.069;71;000.141;MIDI 01
202.611;000.226;87;000.328;MIDI 01
202.855;000.216;90;000.352;MIDI 01
203.097;000.048;83;000.164;MIDI 01
203.069;000.082;76;000.344;MIDI 01
203.100;000.149;87;000.367;MIDI 01
203.324;000.119;80;000.375;MIDI 01
203.518;000.049;69;000.273;MIDI 01
203.544;000.064;73;000.375;MIDI 01
203.642;000.103;80;000.391;MIDI 01
203.741;000.122;85;000.367;MIDI 01
203.861;000.102;88;000.406;MIDI 01
203.984;000.150;44;000.305;MIDI 01
204.047;000.168;75;000.305;MIDI 01
204.260;000.119;80;000.352;MIDI 01
204.488;000.064;64;000.305;MIDI 01
204.504;000.053;71;000.164;MIDI 01
204.498;000.177;87;000.344;MIDI 01
204.724;000.200;90;000.383;MIDI 01
204.946;000.061;76;000.320;MIDI 01
204.952;000.132;87;000.367;MIDI 01
205.180;000.100;80;000.344;MIDI 01
205.394;000.053;69;000.250;MIDI 01
205.423;000.054;73;000.312;MIDI 01
205.520;000.077;80;000.344;MIDI 01
205.620;000.147;85;000.344;MIDI 01
205.741;000.150;88;000.367;MIDI 01
205.889;000.136;44;000.320;MIDI 01
205.934;000.224;75;000.281;MIDI 01
206.164;000.215;80;000.352;MIDI 01
206.398;000.091;64;000.250;MIDI 01
206.426;000.084;71;000.180;MIDI 01
206.404;000.209;87;000.391;MIDI 01
206.603;000.231;90;000.391;MIDI 01
206.818;000.112;76;000.312;MIDI 01
206.825;000.132;80;000.344;MIDI 01
206.839;000.217;71;000.250;MIDI 01
207.040;000.142;87;000.383;MIDI 01
207.257;000.058;76;000.281;MIDI 01
207.528;000.025;95;000.359;MIDI 01
207.283;000.333;92;000.344;MIDI 01
207.778;000.128;32;000.344;MIDI 01
207.768;000.169;44;000.336;MIDI 01
207.850;000.207;80;000.328;MIDI 01
208.095;000.140;85;000.422;MIDI 01
208.317;000.046;69;000.297;MIDI 01
208.335;000.039;76;000.281;MIDI 01
208.327;000.210;92;000.383;MIDI 01
208.535;000.113;97;000.438;MIDI 01
208.740;000.033;88;000.305;MIDI 01
208.745;000.044;81;000.406;MIDI 01
208.747;000.153;92;000.406;MIDI 01
208.966;000.127;85;000.414;MIDI 01
209.165;000.070;66;000.344;MIDI 01
209.192;000.047;62;000.312;MIDI 01
209.189;000.091;78;000.383;MIDI 01
209.297;000.092;84;000.398;MIDI 01
209.397;000.243;88;000.430;MIDI 01
209.671;000.082;44;000.320;MIDI 01
209.640;000.120;32;000.469;MIDI 01
209.517;000.255;92;000.430;MIDI 01
209.692;000.218;80;000.383;MIDI 01
209.942;000.137;85;000.453;MIDI 01
210.191;000.040;69;000.266;MIDI 01
210.186;000.046;76;000.344;MIDI 01
210.170;000.215;92;000.406;MIDI 01
210.382;000.110;97;000.438;MIDI 01
210.609;000.039;88;000.422;MIDI 01
210.629;000.094;81;000.352;MIDI 01
210.627;000.190;92;000.383;MIDI 01
210.900;000.260;85;000.367;MIDI 01
211.202;000.067;62;000.242;MIDI 01
211.188;000.135;66;000.297;MIDI 01
211.200;000.170;72;000.281;MIDI 01
211.276;000.124;78;000.336;MIDI 01
211.448;000.132;84;000.383;MIDI 01
211.673;000.193;88;000.367;MIDI 01
212.697;000.358;32;000.578;MIDI 01
212.006;001.124;92;000.328;MIDI 01
212.707;000.440;44;000.547;MIDI 01
213.055;000.233;80;000.570;MIDI 01
213.287;000.177;85;000.648;MIDI 01
213.611;000.048;88;000.695;MIDI 01
213.465;000.197;92;000.641;MIDI 01
213.620;000.075;81;000.602;MIDI 01
213.631;000.130;97;000.656;MIDI 01
213.806;000.143;92;000.617;MIDI 01
213.934;000.147;85;000.562;MIDI 01
214.045;000.048;80;000.578;MIDI 01
214.248;000.070;73;000.578;MIDI 01
214.140;000.228;76;000.633;MIDI 01
214.355;000.066;80;000.570;MIDI 01
214.459;000.079;85;000.602;MIDI 01
214.539;000.021;81;000.680;MIDI 01
214.530;000.050;76;000.602;MIDI 01
214.143;000.468;69;000.609;MIDI 01
214.543;000.075;92;000.672;MIDI 01
214.632;000.098;85;000.516;MIDI 01
214.959;000.027;68;000.516;MIDI 01
214.880;000.148;69;000.555;MIDI 01
215.023;000.024;73;000.516;MIDI 01
215.103;000.032;80;000.461;MIDI 01
215.159;000.020;76;000.688;MIDI 01
215.173;000.033;69;000.586;MIDI 01
215.164;000.045;85;000.602;MIDI 01
214.867;000.364;64;000.586;MIDI 01
215.254;000.073;80;000.531;MIDI 01
215.325;000.084;73;000.609;MIDI 01
215.399;000.026;68;000.578;MIDI 01
215.548;000.051;61;000.570;MIDI 01
215.471;000.193;64;000.602;MIDI 01
215.616;000.089;68;000.203;MIDI 01
215.719;000.040;73;000.500;MIDI 01
215.766;000.036;69;000.664;MIDI 01
215.757;000.066;64;000.570;MIDI 01
215.780;000.057;80;000.609;MIDI 01
215.478;000.381;57;000.617;MIDI 01
215.860;000.098;73;000.500;MIDI 01
215.941;000.098;68;000.539;MIDI 01
216.016;000.044;61;000.633;MIDI 01
216.195;000.044;56;000.562;MIDI 01
216.110;000.181;52;000.586;MIDI 01
216.265;000.058;61;000.562;MIDI 01
216.113;000.241;57;000.672;MIDI 01
216.359;000.048;68;000.445;MIDI 01
216.438;000.041;52;000.594;MIDI 01
216.435;000.046;57;000.609;MIDI 01
216.433;000.053;73;000.508;MIDI 01
216.547;000.053;68;000.234;MIDI 01
216.633;000.053;62;000.414;MIDI 01
216.674;000.042;56;000.570;MIDI 01
216.750;000.062;52;000.594;MIDI 01
216.750;000.085;57;000.609;MIDI 01
216.826;000.036;56;000.523;MIDI 01
216.907;000.057;61;000.516;MIDI 01
217.004;000.045;68;000.453;MIDI 01
217.093;000.030;73;000.461;MIDI 01
217.092;000.043;52;000.492;MIDI 01
217.099;000.037;57;000.469;MIDI 01
217.181;000.064;68;000.461;MIDI 01
217.233;000.119;61;000.492;MIDI 01
217.314;000.053;56;000.562;MIDI 01
217.404;000.040;57;000.500;MIDI 01
217.409;000.049;52;000.250;MIDI 01
217.469;000.033;56;000.477;MIDI 01
217.545;000.040;61;000.547;MIDI 01
217.673;000.024;68;000.406;MIDI 01
217.744;000.037;73;000.484;MIDI 01
217.775;000.042;57;000.281;MIDI 01
217.753;000.084;52;000.453;MIDI 01
217.831;000.093;68;000.453;MIDI 01
217.919;000.109;61;000.430;MIDI 01
218.015;000.044;56;000.477;MIDI 01
218.174;000.033;56;000.477;MIDI 01
218.074;000.198;52;000.398;MIDI 01
218.135;000.155;57;000.258;MIDI 01
218.275;000.050;61;000.438;MIDI 01
218.390;000.092;68;000.359;MIDI 01
218.501;000.081;52;000.336;MIDI 01
218.543;000.049;57;000.023;MIDI 01
218.561;000.039;73;000.320;MIDI 01
218.644;000.168;68;000.391;MIDI 01
218.847;000.165;61;000.328;MIDI 01
219.049;000.098;56;000.289;MIDI 01
217.392;002.061;44;000.711;MIDI 01
219.324;000.344;42;000.391;MIDI 01
219.599;000.084;52;000.289;MIDI 01
219.370;000.352;51;000.156;MIDI 01
219.718;000.115;57;000.273;MIDI 01
219.823;000.066;60;000.336;MIDI 01
219.922;000.037;64;000.320;MIDI 01
220.026;000.041;54;000.328;MIDI 01
220.077;000.031;68;000.297;MIDI 01
220.088;000.047;63;000.203;MIDI 01
220.113;000.050;64;000.430;MIDI 01
220.186;000.070;69;000.445;MIDI 01
220.228;000.076;72;000.523;MIDI 01
220.295;000.031;76;000.469;MIDI 01
220.330;000.045;66;000.445;MIDI 01
220.381;000.025;75;000.500;MIDI 01
220.400;000.036;80;000.477;MIDI 01
220.431;000.064;76;000.539;MIDI 01
220.501;000.074;81;000.547;MIDI 01
220.537;000.076;84;000.602;MIDI 01
220.598;000.040;88;000.516;MIDI 01
220.646;000.044;78;000.461;MIDI 01
220.668;000.054;80;000.492;MIDI 01
220.662;000.068;87;000.516;MIDI 01
220.710;000.028;92;000.547;MIDI 01
220.734;000.095;88;000.617;MIDI 01
220.803;000.160;93;000.594;MIDI 01
220.852;000.154;96;000.664;MIDI 01
220.941;000.165;100;000.680;MIDI 01
221.069;000.292;90;000.602;MIDI 01
221.331;000.103;93;000.547;MIDI 01
221.315;000.123;99;000.484;MIDI 01
221.221;000.227;92;000.578;MIDI 01
221.414;000.071;96;000.547;MIDI 01
221.448;000.086;100;000.609;MIDI 01
221.519;000.079;105;000.586;MIDI 01
221.525;000.121;90;000.508;MIDI 01
221.558;000.101;94;000.523;MIDI 01
221.630;000.078;98;000.586;MIDI 01
221.636;000.123;95;000.594;MIDI 01
221.690;000.117;99;000.625;MIDI 01
221.751;000.065;102;000.609;MIDI 01
221.799;000.027;107;000.617;MIDI 01
221.811;000.126;88;000.555;MIDI 01
221.892;000.069;90;000.539;MIDI 01
221.942;000.096;91;000.602;MIDI 01
222.015;000.079;94;000.602;MIDI 01
221.931;000.168;97;000.586;MIDI 01
222.059;000.057;98;000.562;MIDI 01
222.103;000.042;103;000.555;MIDI 01
222.105;000.092;88;000.531;MIDI 01
222.166;000.083;92;000.570;MIDI 01
222.207;000.069;96;000.602;MIDI 01
222.225;000.100;93;000.609;MIDI 01
222.289;000.093;97;000.617;MIDI 01
222.325;000.070;100;000.602;MIDI 01
222.385;000.031;105;000.625;MIDI 01
222.387;000.088;86;000.555;MIDI 01
222.459;000.050;88;000.531;MIDI 01
222.494;000.059;95;000.539;MIDI 01
222.533;000.096;89;000.531;MIDI 01
222.581;000.057;93;000.148;MIDI 01
222.667;000.028;95;000.492;MIDI 01
222.586;000.110;92;000.672;MIDI 01
222.656;000.051;96;000.445;MIDI 01
222.683;000.073;86;000.562;MIDI 01
222.695;000.068;101;000.625;MIDI 01
222.711;000.096;90;000.617;MIDI 01
222.807;000.052;94;000.656;MIDI 01
222.816;000.077;91;000.633;MIDI 01
222.885;000.069;95;000.570;MIDI 01
222.912;000.059;98;000.609;MIDI 01
222.968;000.024;103;000.609;MIDI 01
223.020;000.015;87;000.578;MIDI 01
222.961;000.114;84;000.586;MIDI 01
223.096;000.002;93;000.297;MIDI 01
223.115;000.089;87;000.648;MIDI 01
223.186;000.092;90;000.617;MIDI 01
223.256;000.057;94;000.617;MIDI 01
223.272;000.057;99;000.609;MIDI 01
223.264;000.126;84;000.539;MIDI 01
223.322;000.087;88;000.328;MIDI 01
223.402;000.060;92;000.578;MIDI 01
223.440;000.047;89;000.555;MIDI 01
223.493;000.062;93;000.445;MIDI 01
223.535;000.061;95;000.203;MIDI 01
223.535;000.074;96;000.562;MIDI 01
223.586;000.042;101;000.477;MIDI 01
223.597;000.097;81;000.539;MIDI 01
223.715;000.036;90;000.484;MIDI 01
223.694;000.100;83;000.461;MIDI 01
223.765;000.076;84;000.523;MIDI 01
223.840;000.070;87;000.555;MIDI 01
223.880;000.071;91;000.562;MIDI 01
223.934;000.034;96;000.414;MIDI 01
223.956;000.084;78;000.539;MIDI 01
224.025;000.025;87;000.578;MIDI 01
224.007;000.092;80;000.547;MIDI 01
224.069;000.057;81;000.594;MIDI 01
224.140;000.044;84;000.570;MIDI 01
224.178;000.040;88;000.602;MIDI 01
224.214;000.025;93;000.547;MIDI 01
224.218;000.089;75;000.562;MIDI 01
224.326;000.027;84;000.375;MIDI 01
224.322;000.057;77;000.547;MIDI 01
224.364;000.080;78;000.656;MIDI 01
224.412;000.069;81;000.516;MIDI 01
224.474;000.064;85;000.625;MIDI 01
224.520;000.027;90;000.484;MIDI 01
224.577;000.034;81;000.539;MIDI 01
224.528;000.085;72;000.625;MIDI 01
224.579;000.049;74;000.539;MIDI 01
224.641;000.086;75;000.641;MIDI 01
224.720;000.084;78;000.570;MIDI 01
224.785;000.046;82;000.492;MIDI 01
224.802;000.036;87;000.539;MIDI 01
224.804;000.099;69;000.531;MIDI 01
224.910;000.031;78;000.484;MIDI 01
224.859;000.088;71;000.531;MIDI 01
224.990;000.018;75;000.547;MIDI 01
224.924;000.122;72;000.602;MIDI 01
225.001;000.060;74;000.180;MIDI 01
225.021;000.045;76;000.531;MIDI 01
225.018;000.072;80;000.625;MIDI 01
225.070;000.049;84;000.539;MIDI 01
225.110;000.093;66;000.586;MIDI 01
225.173;000.055;75;000.523;MIDI 01
225.141;000.116;68;000.547;MIDI 01
225.211;000.095;69;000.547;MIDI 01
225.305;000.051;72;000.492;MIDI 01
225.323;000.053;76;000.617;MIDI 01
225.351;000.041;81;000.562;MIDI 01
225.383;000.089;63;000.539;MIDI 01
225.505;000.039;72;000.367;MIDI 01
225.494;000.059;65;000.570;MIDI 01
225.519;000.098;66;000.625;MIDI 01
225.594;000.071;69;000.531;MIDI 01
225.630;000.080;73;000.641;MIDI 01
225.684;000.030;78;000.500;MIDI 01
225.710;000.111;60;000.609;MIDI 01
225.797;000.032;69;000.492;MIDI 01
225.774;000.059;62;000.586;MIDI 01
225.833;000.111;63;000.617;MIDI 01
225.911;000.091;66;000.562;MIDI 01
225.964;000.070;70;000.602;MIDI 01
225.996;000.052;75;000.625;MIDI 01
226.377;000.071;64;000.422;MIDI 01
226.070;000.496;54;000.664;MIDI 01
226.379;000.204;67;000.477;MIDI 01
226.335;000.265;72;000.727;MIDI 01
226.555;000.064;70;000.641;MIDI 01
226.452;000.173;64;000.227;MIDI 01
226.659;000.061;66;000.703;MIDI 01
226.791;000.123;64;000.578;MIDI 01
226.799;000.117;67;000.586;MIDI 01
226.792;000.138;60;000.578;MIDI 01
226.923;000.039;58;000.633;MIDI 01
226.997;000.225;54;000.719;MIDI 01
227.092;000.133;60;000.562;MIDI 01
227.101;000.126;64;000.609;MIDI 01
227.126;000.114;55;000.570;MIDI 01
227.221;000.059;58;000.602;MIDI 01
227.309;000.023;66;000.516;MIDI 01
227.376;000.144;60;000.609;MIDI 01
227.395;000.131;52;000.586;MIDI 01
227.402;000.126;55;000.578;MIDI 01
227.505;000.077;58;000.602;MIDI 01
227.700;000.108;55;000.500;MIDI 01
227.674;000.144;60;000.594;MIDI 01
227.593;000.230;42;000.641;MIDI 01
227.796;000.053;58;000.547;MIDI 01
227.720;000.131;52;000.508;MIDI 01
227.875;000.061;54;000.664;MIDI 01
227.981;000.114;55;000.531;MIDI 01
227.979;000.118;52;000.508;MIDI 01
227.983;000.116;48;000.516;MIDI 01
228.096;000.054;46;000.578;MIDI 01
228.178;000.173;42;000.562;MIDI 01
228.285;000.088;52;000.484;MIDI 01
228.266;000.121;48;000.531;MIDI 01
228.298;000.127;43;000.453;MIDI 01
228.455;000.047;54;000.555;MIDI 01
228.385;000.128;46;000.516;MIDI 01
228.598;000.096;43;000.406;MIDI 01
228.578;000.121;48;000.477;MIDI 01
228.679;000.064;46;000.461;MIDI 01
228.596;000.150;40;000.344;MIDI 01
228.873;000.073;43;000.414;MIDI 01
228.872;000.095;48;000.469;MIDI 01
228.754;000.235;30;000.492;MIDI 01
228.950;000.044;46;000.375;MIDI 01
228.909;000.096;40;000.336;MIDI 01
229.023;000.081;42;000.500;MIDI 01
229.155;000.078;43;000.328;MIDI 01
229.152;000.096;36;000.438;MIDI 01
229.135;000.135;40;000.344;MIDI 01
229.257;000.051;34;000.461;MIDI 01
229.319;000.103;30;000.445;MIDI 01
229.434;000.098;36;000.414;MIDI 01
229.450;000.133;40;000.422;MIDI 01
229.543;000.055;34;000.414;MIDI 01
229.641;000.059;42;000.414;MIDI 01
229.744;000.178;36;000.367;MIDI 01
229.879;000.045;34;000.477;MIDI 01
229.753;000.201;40;000.383;MIDI 01
229.952;000.161;30;000.398;MIDI 01
230.079;000.103;36;000.391;MIDI 01
230.085;000.105;43;000.172;MIDI 01
230.082;000.128;40;000.359;MIDI 01
230.208;000.150;34;000.367;MIDI 01
230.332;000.064;42;000.438;MIDI 01
230.425;000.217;40;000.352;MIDI 01
230.446;000.198;36;000.289;MIDI 01
230.582;000.111;34;000.336;MIDI 01
230.691;000.218;30;000.391;MIDI 01
230.817;000.231;36;000.336;MIDI 01
230.823;000.285;40;000.336;MIDI 01
231.190;000.219;42;000.375;MIDI 01
230.998;000.470;34;000.297;MIDI 01
231.412;000.398;43;000.109;MIDI 01
231.352;000.488;36;000.281;MIDI 01
231.660;000.318;34;000.102;MIDI 01
231.366;000.624;40;000.195;MIDI 01
231.914;000.528;30;000.297;MIDI 01
232.198;000.294;34;000.078;MIDI 01
232.478;000.086;36;000.281;MIDI 01
232.625;000.072;40;000.164;MIDI 01
232.713;000.052;43;000.211;MIDI 01
232.769;000.051;48;000.367;MIDI 01
232.912;000.052;46;000.273;MIDI 01
232.806;000.191;42;000.328;MIDI 01
232.972;000.038;48;000.383;MIDI 01
232.995;000.068;49;000.078;MIDI 01
233.055;000.058;52;000.469;MIDI 01
233.118;000.031;55;000.422;MIDI 01
233.160;000.041;60;000.414;MIDI 01
233.230;000.059;58;000.469;MIDI 01
233.209;000.100;54;000.383;MIDI 01
233.297;000.044;60;000.539;MIDI 01
233.323;000.034;61;000.305;MIDI 01
233.345;000.079;64;000.570;MIDI 01
233.404;000.026;67;000.547;MIDI 01
233.434;000.044;72;000.492;MIDI 01
233.472;000.026;66;000.555;MIDI 01
233.549;000.022;71;000.398;MIDI 01
233.560;000.045;67;000.312;MIDI 01
233.557;000.056;72;000.648;MIDI 01
233.603;000.026;73;000.547;MIDI 01
233.609;000.072;76;000.633;MIDI 01
233.662;000.055;79;000.609;MIDI 01
233.710;000.024;84;000.539;MIDI 01
233.775;000.021;78;000.562;MIDI 01
233.790;000.032;82;000.430;MIDI 01
233.793;000.052;85;000.602;MIDI 01
233.811;000.083;84;000.641;MIDI 01
233.879;000.095;88;000.633;MIDI 01
233.997;000.005;94;000.812;MIDI 01
233.939;000.076;91;000.602;MIDI 01
234.006;000.028;95;000.570;MIDI 01
234.015;000.043;90;000.438;MIDI 01
234.039;000.032;92;000.203;MIDI 01
234.004;000.143;96;000.727;MIDI 01
234.132;000.073;91;000.617;MIDI 01
234.159;000.071;88;000.578;MIDI 01
234.248;000.028;84;000.484;MIDI 01
234.281;000.036;82;000.273;MIDI 01
234.364;000.040;86;000.180;MIDI 01
234.377;000.040;79;000.508;MIDI 01
234.369;000.059;84;000.539;MIDI 01
234.483;000.022;73;000.359;MIDI 01
234.456;000.051;66;000.430;MIDI 01
234.485;000.059;72;000.633;MIDI 01
234.426;000.165;76;000.523;MIDI 01
234.575;000.036;79;000.500;MIDI 01
234.601;000.036;84;000.539;MIDI 01
234.672;000.033;85;000.672;MIDI 01
234.681;000.026;82;000.469;MIDI 01
234.683;000.027;78;000.461;MIDI 01
234.715;000.066;84;000.633;MIDI 01
234.778;000.084;88;000.617;MIDI 01
234.883;000.024;97;000.812;MIDI 01
234.831;000.084;91;000.562;MIDI 01
234.904;000.022;94;000.523;MIDI 01
234.907;000.114;96;000.688;MIDI 01
235.014;000.042;91;000.562;MIDI 01
235.028;000.056;88;000.578;MIDI 01
235.104;000.024;84;000.516;MIDI 01
235.121;000.022;85;000.594;MIDI 01
235.116;000.031;78;000.648;MIDI 01
235.127;000.024;82;000.516;MIDI 01
235.205;000.084;84;000.570;MIDI 01
235.295;000.060;76;000.523;MIDI 01
235.331;000.044;66;000.500;MIDI 01
235.341;000.036;70;000.414;MIDI 01
235.371;000.027;73;000.320;MIDI 01
235.369;000.040;72;000.570;MIDI 01
235.415;000.047;74;000.203;MIDI 01
235.440;000.054;76;000.461;MIDI 01
235.453;000.090;79;000.539;MIDI 01
235.540;000.029;85;000.680;MIDI 01
235.548;000.033;82;000.570;MIDI 01
235.572;000.026;78;000.484;MIDI 01
235.535;000.096;84;000.602;MIDI 01
235.640;000.027;85;000.297;MIDI 01
235.624;000.051;79;000.500;MIDI 01
235.666;000.086;76;000.555;MIDI 01
235.757;000.042;66;000.508;MIDI 01
235.791;000.032;73;000.305;MIDI 01
235.752;000.074;72;000.547;MIDI 01
235.800;000.058;70;000.227;MIDI 01
235.819;000.090;76;000.453;MIDI 01
235.865;000.072;79;000.477;MIDI 01
235.985;000.002;85;000.555;MIDI 01
235.983;000.024;82;000.508;MIDI 01
236.003;000.019;80;000.438;MIDI 01
235.946;000.086;84;000.602;MIDI 01
235.977;000.116;79;000.570;MIDI 01
236.066;000.089;76;000.555;MIDI 01
236.179;000.046;66;000.555;MIDI 01
236.155;000.075;72;000.562;MIDI 01
236.207;000.035;73;000.391;MIDI 01
236.211;000.037;70;000.305;MIDI 01
236.229;000.089;76;000.508;MIDI 01
236.291;000.086;79;000.492;MIDI 01
236.376;000.023;85;000.758;MIDI 01
236.378;000.048;82;000.727;MIDI 01
236.386;000.045;78;000.586;MIDI 01
236.364;000.093;84;000.570;MIDI 01
236.392;000.095;79;000.367;MIDI 01
236.477;000.040;85;000.320;MIDI 01
236.479;000.080;76;000.531;MIDI 01
236.595;000.033;66;000.641;MIDI 01
236.601;000.029;73;000.648;MIDI 01
236.605;000.031;70;000.469;MIDI 01
236.559;000.091;72;000.578;MIDI 01
236.634;000.079;76;000.500;MIDI 01
236.801;000.015;85;000.820;MIDI 01
236.799;000.035;82;000.789;MIDI 01
236.770;000.068;84;000.586;MIDI 01
236.677;000.162;79;000.484;MIDI 01
236.876;000.052;76;000.250;MIDI 01
237.018;000.015;73;000.555;MIDI 01
237.023;000.033;66;000.508;MIDI 01
236.999;000.081;67;000.547;MIDI 01
237.053;000.052;68;000.141;MIDI 01
237.067;000.113;72;000.469;MIDI 01
237.207;000.030;82;000.758;MIDI 01
237.205;000.036;78;000.727;MIDI 01
237.203;000.123;79;000.555;MIDI 01
237.136;000.226;76;000.484;MIDI 01
237.360;000.070;72;000.508;MIDI 01
237.419;000.026;73;000.531;MIDI 01
237.422;000.041;66;000.523;MIDI 01
237.420;000.048;67;000.445;MIDI 01
237.624;000.018;82;000.703;MIDI 01
237.622;000.037;78;000.719;MIDI 01
237.630;000.117;79;000.578;MIDI 01
237.528;000.222;76;000.469;MIDI 01
237.831;000.028;73;000.547;MIDI 01
237.812;000.065;67;000.461;MIDI 01
237.834;000.044;66;000.523;MIDI 01
237.870;000.126;72;000.039;MIDI 01
238.035;000.019;82;000.719;MIDI 01
238.033;000.040;78;000.695;MIDI 01
238.031;000.103;79;000.539;MIDI 01
237.953;000.189;76;000.438;MIDI 01
238.214;000.064;67;000.477;MIDI 01
238.253;000.034;66;000.508;MIDI 01
238.260;000.040;73;000.414;MIDI 01
238.250;000.150;72;000.328;MIDI 01
238.332;000.094;76;000.477;MIDI 01
238.444;000.026;82;000.664;MIDI 01
238.447;000.025;78;000.625;MIDI 01
238.431;000.101;79;000.547;MIDI 01
238.542;000.044;76;000.281;MIDI 01
238.620;000.061;67;000.430;MIDI 01
238.692;000.092;72;000.414;MIDI 01
238.744;000.072;76;000.422;MIDI 01
238.753;000.077;68;000.234;MIDI 01
238.690;000.144;70;000.461;MIDI 01
238.672;000.215;66;000.461;MIDI 01
238.851;000.074;78;000.672;MIDI 01
238.833;000.158;79;000.477;MIDI 01
239.014;000.074;67;000.445;MIDI 01
239.078;000.091;72;000.406;MIDI 01
239.148;000.051;76;000.352;MIDI 01
239.109;000.109;66;000.422;MIDI 01
239.094;000.158;70;000.531;MIDI 01
239.204;000.049;79;000.469;MIDI 01
239.280;000.061;78;000.586;MIDI 01
239.349;000.098;76;000.367;MIDI 01
239.444;000.045;67;000.484;MIDI 01
239.368;000.182;73;000.211;MIDI 01
239.528;000.074;66;000.352;MIDI 01
239.499;000.105;72;000.445;MIDI 01
239.631;000.031;79;000.414;MIDI 01
239.516;000.197;70;000.438;MIDI 01
239.707;000.078;78;000.523;MIDI 01
239.764;000.047;79;000.500;MIDI 01
239.834;000.077;76;000.375;MIDI 01
239.718;000.220;73;000.344;MIDI 01
239.903;000.048;67;000.406;MIDI 01
239.951;000.064;66;000.312;MIDI 01
239.959;000.101;72;000.453;MIDI 01
240.084;000.039;76;000.281;MIDI 01
239.968;000.268;70;000.398;MIDI 01
240.164;000.092;78;000.492;MIDI 01
240.264;000.073;76;000.391;MIDI 01
240.113;000.244;79;000.344;MIDI 01
240.171;000.230;73;000.336;MIDI 01
240.360;000.045;72;000.344;MIDI 01
240.455;000.078;67;000.328;MIDI 01
240.430;000.158;66;000.242;MIDI 01
240.541;000.072;72;000.430;MIDI 01
240.426;000.243;70;000.359;MIDI 01
240.628;000.064;76;000.227;MIDI 01
240.702;000.114;78;000.383;MIDI 01
240.740;000.106;76;000.367;MIDI 01
240.854;000.076;72;000.414;MIDI 01
240.940;000.053;67;000.367;MIDI 01
240.691;000.318;73;000.312;MIDI 01
241.072;000.060;67;000.305;MIDI 01
240.999;000.201;66;000.242;MIDI 01
241.140;000.082;72;000.344;MIDI 01
241.231;000.045;76;000.320;MIDI 01
240.970;000.347;70;000.344;MIDI 01
241.396;000.054;76;000.414;MIDI 01
241.276;000.218;78;000.367;MIDI 01
241.503;000.061;72;000.258;MIDI 01
241.562;000.061;67;000.320;MIDI 01
241.261;000.382;73;000.289;MIDI 01
241.727;000.069;67;000.289;MIDI 01
241.600;000.251;66;000.227;MIDI 01
241.783;000.133;72;000.305;MIDI 01
241.901;000.047;76;000.375;MIDI 01
241.577;000.455;70;000.281;MIDI 01
242.091;000.197;76;000.414;MIDI 01
241.942;000.434;78;000.297;MIDI 01
242.339;000.060;67;000.250;MIDI 01
242.240;000.193;72;000.211;MIDI 01
241.938;000.635;73;000.250;MIDI 01
242.561;000.099;67;000.305;MIDI 01
242.706;000.296;72;000.188;MIDI 01
242.892;000.144;76;000.312;MIDI 01
242.404;002.006;66;000.102;MIDI 01
243.286;001.184;76;000.203;MIDI 01
243.057;001.434;78;000.266;MIDI 01
243.613;000.914;72;000.203;MIDI 01
242.393;002.253;70;000.281;MIDI 01
244.119;000.549;67;000.078;MIDI 01
243.060;001.627;73;000.211;MIDI 01
246.764;000.343;65;000.172;MIDI 01
246.807;000.324;75;000.242;MIDI 01
246.731;000.435;72;000.305;MIDI 01
247.167;000.131;74;000.367;MIDI 01
247.165;000.173;69;000.297;MIDI 01
246.748;000.676;79;000.344;MIDI 01
247.524;000.135;77;000.336;MIDI 01
247.505;000.174;74;000.391;MIDI 01
247.508;000.181;69;000.336;MIDI 01
247.796;000.069;65;000.289;MIDI 01
247.467;000.412;81;000.523;MIDI 01
247.771;000.146;72;000.359;MIDI 01
248.077;000.288;70;000.344;MIDI 01
248.129;000.289;63;000.227;MIDI 01
248.064;000.381;73;000.367;MIDI 01
248.068;000.432;77;000.398;MIDI 01
248.406;000.156;72;000.258;MIDI 01
248.418;000.150;67;000.266;MIDI 01
248.741;000.092;72;000.305;MIDI 01
248.700;000.150;84;000.406;MIDI 01
248.800;000.085;67;000.062;MIDI 01
248.756;000.174;79;000.289;MIDI 01
249.010;000.050;70;000.320;MIDI 01
249.025;000.044;63;000.227;MIDI 01
249.005;000.075;73;000.328;MIDI 01
248.996;000.168;77;000.344;MIDI 01
249.358;000.101;72;000.344;MIDI 01
249.379;000.226;75;000.328;MIDI 01
249.360;000.268;65;000.297;MIDI 01
249.464;000.175;72;000.023;MIDI 01
249.678;000.045;69;000.250;MIDI 01
249.651;000.077;74;000.359;MIDI 01
249.331;000.453;79;000.461;MIDI 01
249.983;000.059;77;000.352;MIDI 01
249.957;000.091;74;000.359;MIDI 01
249.940;000.118;81;000.477;MIDI 01
249.985;000.176;69;000.320;MIDI 01
250.302;000.051;65;000.242;MIDI 01
250.254;000.142;72;000.336;MIDI 01
250.598;000.291;70;000.352;MIDI 01
250.597;000.450;77;000.367;MIDI 01
250.618;000.438;73;000.297;MIDI 01
250.952;000.124;67;000.281;MIDI 01
250.620;000.466;63;000.273;MIDI 01
250.942;000.170;72;000.273;MIDI 01
251.279;000.097;72;000.281;MIDI 01
251.252;000.168;84;000.391;MIDI 01
251.285;000.195;79;000.352;MIDI 01
251.305;000.220;67;000.297;MIDI 01
251.619;000.078;70;000.336;MIDI 01
251.613;000.088;63;000.297;MIDI 01
251.632;000.106;73;000.312;MIDI 01
251.627;000.294;77;000.281;MIDI 01
252.032;000.260;72;000.344;MIDI 01
252.049;000.278;65;000.258;MIDI 01
252.055;000.307;75;000.328;MIDI 01
252.387;000.086;69;000.297;MIDI 01
252.363;000.173;74;000.336;MIDI 01
252.018;000.532;79;000.422;MIDI 01
252.681;000.107;74;000.352;MIDI 01
252.694;000.121;77;000.359;MIDI 01
252.656;000.289;81;000.453;MIDI 01
252.707;000.248;69;000.242;MIDI 01
252.969;000.059;65;000.328;MIDI 01
252.971;000.108;72;000.352;MIDI 01
253.252;000.221;70;000.398;MIDI 01
253.240;000.349;73;000.367;MIDI 01
253.558;000.095;67;000.320;MIDI 01
253.535;000.123;72;000.375;MIDI 01
253.238;000.603;77;000.414;MIDI 01
253.841;000.107;72;000.359;MIDI 01
253.835;000.159;79;000.383;MIDI 01
253.849;000.250;75;000.352;MIDI 01
253.851;000.283;67;000.305;MIDI 01
254.166;000.047;63;000.281;MIDI 01
254.139;000.108;70;000.352;MIDI 01
254.471;000.303;68;000.312;MIDI 01
254.488;000.334;61;000.289;MIDI 01
254.478;000.359;71;000.266;MIDI 01
254.804;000.065;65;000.266;MIDI 01
254.778;000.100;70;000.336;MIDI 01
254.463;000.675;75;000.328;MIDI 01
255.117;000.153;77;000.359;MIDI 01
255.113;000.232;70;000.266;MIDI 01
255.123;000.256;73;000.297;MIDI 01
255.109;000.390;65;000.273;MIDI 01
255.432;000.114;68;000.281;MIDI 01
255.468;000.097;61;000.289;MIDI 01
255.857;000.372;66;000.297;MIDI 01
255.857;000.402;59;000.266;MIDI 01
256.285;000.121;63;000.312;MIDI 01
256.288;000.121;68;000.281;MIDI 01
255.859;000.562;69;000.281;MIDI 01
255.855;000.726;73;000.312;MIDI 01
256.781;000.523;63;000.234;MIDI 01
256.777;000.555;68;000.234;MIDI 01
257.571;000.257;66;000.219;MIDI 01
257.596;000.276;59;000.156;MIDI 01
256.832;001.108;71;000.273;MIDI 01
256.810;001.142;75;000.180;MIDI 01
260.527;000.136;61;000.344;MIDI 01
260.478;000.268;47;000.211;MIDI 01
260.499;000.308;54;000.180;MIDI 01
260.516;000.311;57;000.227;MIDI 01
260.485;000.363;66;000.297;MIDI 01
260.452;000.654;73;000.406;MIDI 01
261.114;000.117;63;000.266;MIDI 01
261.036;000.289;68;000.406;MIDI 01
261.445;000.124;63;000.312;MIDI 01
261.473;000.178;59;000.297;MIDI 01
261.464;000.190;75;000.547;MIDI 01
261.472;000.279;52;000.273;MIDI 01
261.852;000.125;66;000.469;MIDI 01
261.905;000.094;61;000.383;MIDI 01
261.509;000.567;68;000.367;MIDI 01
262.215;000.232;45;000.305;MIDI 01
262.348;000.101;59;000.305;MIDI 01
262.269;000.211;64;000.344;MIDI 01
262.208;000.275;52;000.320;MIDI 01
262.211;000.309;55;000.273;MIDI 01
262.234;000.324;71;000.562;MIDI 01
262.699;000.051;61;000.258;MIDI 01
262.631;000.142;66;000.375;MIDI 01
263.262;000.222;73;000.383;MIDI 01
263.134;000.568;61;000.289;MIDI 01
263.303;000.410;66;000.281;MIDI 01
263.140;000.578;57;000.266;MIDI 01
263.202;000.667;78;000.539;MIDI 01
263.163;000.844;50;000.242;MIDI 01
264.016;000.306;74;000.445;MIDI 01
264.084;000.375;69;000.320;MIDI 01
264.866;000.285;47;000.242;MIDI 01
264.964;000.195;61;000.336;MIDI 01
264.872;000.349;54;000.281;MIDI 01
264.878;000.360;66;000.359;MIDI 01
264.844;000.420;57;000.195;MIDI 01
264.832;000.591;73;000.477;MIDI 01
265.422;000.115;63;000.375;MIDI 01
265.374;000.224;68;000.492;MIDI 01
265.723;000.051;63;000.305;MIDI 01
265.734;000.163;59;000.195;MIDI 01
265.719;000.197;75;000.547;MIDI 01
265.704;000.255;52;000.305;MIDI 01
266.065;000.127;66;000.453;MIDI 01
266.132;000.123;61;000.367;MIDI 01
265.778;000.534;68;000.359;MIDI 01
266.552;000.065;59;000.359;MIDI 01
266.457;000.205;71;000.477;MIDI 01
266.445;000.222;45;000.266;MIDI 01
266.425;000.287;52;000.266;MIDI 01
266.484;000.234;64;000.328;MIDI 01
266.423;000.303;55;000.258;MIDI 01
266.891;000.074;61;000.344;MIDI 01
266.869;000.117;66;000.383;MIDI 01
267.531;000.172;73;000.266;MIDI 01
267.471;000.396;78;000.344;MIDI 01
267.384;000.496;57;000.203;MIDI 01
267.366;000.521;61;000.203;MIDI 01
267.392;000.674;50;000.172;MIDI 01
268.035;000.145;74;000.352;MIDI 01
268.095;000.144;69;000.242;MIDI 01
267.584;000.725;66;000.250;MIDI 01
268.605;000.107;61;000.336;MIDI 01
268.538;000.221;47;000.211;MIDI 01
268.525;000.295;54;000.227;MIDI 01
268.504;000.326;57;000.211;MIDI 01
268.533;000.419;66;000.281;MIDI 01
268.521;000.460;73;000.359;MIDI 01
268.981;000.068;63;000.320;MIDI 01
268.942;000.201;68;000.383;MIDI 01
269.271;000.123;63;000.234;MIDI 01
269.273;000.150;75;000.453;MIDI 01
269.278;000.185;59;000.281;MIDI 01
269.288;000.271;52;000.258;MIDI 01
269.609;000.093;66;000.367;MIDI 01
269.684;000.072;61;000.336;MIDI 01
269.332;000.454;68;000.281;MIDI 01
270.046;000.067;59;000.273;MIDI 01
269.972;000.145;71;000.414;MIDI 01
269.949;000.200;45;000.305;MIDI 01
269.946;000.266;52;000.172;MIDI 01
269.948;000.290;55;000.289;MIDI 01
269.978;000.289;64;000.312;MIDI 01
270.334;000.106;61;000.328;MIDI 01
270.321;000.165;66;000.383;MIDI 01
270.650;000.119;61;000.312;MIDI 01
270.642;000.164;73;000.430;MIDI 01
270.652;000.208;57;000.289;MIDI 01
270.660;000.303;50;000.281;MIDI 01
270.983;000.104;64;000.375;MIDI 01
270.694;000.473;66;000.336;MIDI 01
271.054;000.137;59;000.328;MIDI 01
271.458;000.106;57;000.281;MIDI 01
271.432;000.249;43;000.156;MIDI 01
271.405;000.310;50;000.180;MIDI 01
271.400;000.345;69;000.359;MIDI 01
271.414;000.345;53;000.180;MIDI 01
271.420;000.383;62;000.250;MIDI 01
271.845;000.205;59;000.328;MIDI 01
271.803;000.289;64;000.344;MIDI 01
272.383;000.200;71;000.297;MIDI 01
272.424;000.256;64;000.273;MIDI 01
272.288;000.775;59;000.227;MIDI 01
272.294;000.800;55;000.297;MIDI 01
272.315;001.015;48;000.273;MIDI 01
274.438;001.380;58;000.234;MIDI 01
274.466;001.551;64;000.164;MIDI 01
274.391;001.628;68;000.227;MIDI 01
274.457;001.807;42;000.164;MIDI 01
274.441;001.865;49;000.211;MIDI 01
273.104;004.711;60;000.453;MIDI 01
277.964;000.060;47;000.164;MIDI 01
277.951;000.089;35;000.305;MIDI 01
278.173;000.066;57;000.305;MIDI 01
278.179;000.062;59;000.258;MIDI 01
278.299;000.064;66;000.406;MIDI 01
278.297;000.070;64;000.094;MIDI 01
278.385;000.042;71;000.359;MIDI 01
278.545;000.032;71;000.328;MIDI 01
278.535;000.055;69;000.125;MIDI 01
278.456;000.172;61;000.414;MIDI 01
278.641;000.026;76;000.398;MIDI 01
278.667;000.043;73;000.516;MIDI 01
278.690;000.021;79;000.383;MIDI 01
278.706;000.030;83;000.312;MIDI 01
278.728;000.056;81;000.180;MIDI 01
278.805;000.107;81;000.398;MIDI 01
278.796;000.146;83;000.492;MIDI 01
278.892;000.092;88;000.508;MIDI 01
278.936;000.081;90;000.500;MIDI 01
279.084;000.034;73;000.352;MIDI 01
279.032;000.098;95;000.500;MIDI 01
279.066;000.080;85;000.508;MIDI 01
279.257;000.040;81;000.219;MIDI 01
279.347;000.040;83;000.414;MIDI 01
279.426;000.036;78;000.352;MIDI 01
279.539;000.041;69;000.258;MIDI 01
279.609;000.035;76;000.320;MIDI 01
279.644;000.041;78;000.250;MIDI 01
279.591;000.096;87;000.500;MIDI 01
279.633;000.220;75;000.406;MIDI 01
279.858;000.066;81;000.109;MIDI 01
279.901;000.060;88;000.422;MIDI 01
279.828;000.158;83;000.281;MIDI 01
279.936;000.060;90;000.484;MIDI 01
280.042;000.089;95;000.500;MIDI 01
280.137;000.064;85;000.539;MIDI 01
280.166;000.043;73;000.320;MIDI 01
280.184;000.051;90;000.180;MIDI 01
280.261;000.050;81;000.148;MIDI 01
280.365;000.045;83;000.453;MIDI 01
280.424;000.057;78;000.398;MIDI 01
280.542;000.050;71;000.094;MIDI 01
280.585;000.057;76;000.414;MIDI 01
280.678;000.087;90;000.562;MIDI 01
280.724;000.148;78;000.234;MIDI 01
280.885;000.132;83;000.477;MIDI 01
280.928;000.098;87;000.570;MIDI 01
280.964;000.085;75;000.430;MIDI 01
280.959;000.101;88;000.398;MIDI 01
281.026;000.070;90;000.469;MIDI 01
281.147;000.085;95;000.484;MIDI 01
281.181;000.058;85;000.547;MIDI 01
281.270;000.038;90;000.312;MIDI 01
281.273;000.039;88;000.297;MIDI 01
281.223;000.092;73;000.406;MIDI 01
281.354;000.028;81;000.352;MIDI 01
281.461;000.045;83;000.477;MIDI 01
281.532;000.058;78;000.375;MIDI 01
281.644;000.035;69;000.406;MIDI 01
281.640;000.041;71;000.211;MIDI 01
281.706;000.058;68;000.438;MIDI 01
281.731;000.049;76;000.406;MIDI 01
281.708;000.096;80;000.508;MIDI 01
281.760;000.048;78;000.383;MIDI 01
281.947;000.077;81;000.203;MIDI 01
282.035;000.057;88;000.453;MIDI 01
281.927;000.170;83;000.352;MIDI 01
282.061;000.056;90;000.500;MIDI 01
282.115;000.046;95;000.422;MIDI 01
282.258;000.101;95;000.484;MIDI 01
282.376;000.033;88;000.336;MIDI 01
282.329;000.086;90;000.477;MIDI 01
282.266;000.152;80;000.531;MIDI 01
282.458;000.038;81;000.336;MIDI 01
282.555;000.100;83;000.484;MIDI 01
282.624;000.065;78;000.352;MIDI 01
282.309;000.494;68;000.422;MIDI 01
282.774;000.045;69;000.406;MIDI 01
282.791;000.042;71;000.172;MIDI 01
282.885;000.049;76;000.344;MIDI 01
282.855;000.113;78;000.430;MIDI 01
282.853;000.301;66;000.352;MIDI 01
283.095;000.083;81;000.258;MIDI 01
283.188;000.047;88;000.422;MIDI 01
283.216;000.034;90;000.453;MIDI 01
283.091;000.184;83;000.273;MIDI 01
283.297;000.085;95;000.242;MIDI 01
283.386;000.096;95;000.039;MIDI 01
283.453;000.039;93;000.266;MIDI 01
283.468;000.059;90;000.391;MIDI 01
283.443;000.103;73;000.398;MIDI 01
283.449;000.108;61;000.344;MIDI 01
283.579;000.032;81;000.375;MIDI 01
283.690;000.061;83;000.477;MIDI 01
283.751;000.062;78;000.438;MIDI 01
283.858;000.091;71;000.320;MIDI 01
283.861;000.090;69;000.469;MIDI 01
283.972;000.078;75;000.492;MIDI 01
283.995;000.055;76;000.430;MIDI 01
284.034;000.042;78;000.406;MIDI 01
284.064;000.036;83;000.305;MIDI 01
284.109;000.038;81;000.227;MIDI 01
284.228;000.043;81;000.469;MIDI 01
283.993;000.337;63;000.352;MIDI 01
284.203;000.136;83;000.406;MIDI 01
284.316;000.030;88;000.367;MIDI 01
284.311;000.081;90;000.516;MIDI 01
284.414;000.107;95;000.570;MIDI 01
284.527;000.045;61;000.438;MIDI 01
284.556;000.018;90;000.445;MIDI 01
284.566;000.051;88;000.258;MIDI 01
284.493;000.131;73;000.547;MIDI 01
284.626;000.027;81;000.336;MIDI 01
284.714;000.104;83;000.469;MIDI 01
284.782;000.047;81;000.297;MIDI 01
284.780;000.072;78;000.352;MIDI 01
284.870;000.036;71;000.336;MIDI 01
284.910;000.050;69;000.172;MIDI 01
284.928;000.049;76;000.469;MIDI 01
285.012;000.043;83;000.289;MIDI 01
284.991;000.160;78;000.477;MIDI 01
285.050;000.110;66;000.414;MIDI 01
285.206;000.039;81;000.438;MIDI 01
285.190;000.157;83;000.258;MIDI 01
285.274;000.075;88;000.414;MIDI 01
285.268;000.122;75;000.578;MIDI 01
285.311;000.103;90;000.430;MIDI 01
285.300;000.130;63;000.445;MIDI 01
285.432;000.096;95;000.484;MIDI 01
285.565;000.047;88;000.266;MIDI 01
285.534;000.096;73;000.570;MIDI 01
285.629;000.036;81;000.359;MIDI 01
285.559;000.250;61;000.453;MIDI 01
285.740;000.095;83;000.477;MIDI 01
285.792;000.077;78;000.484;MIDI 01
285.884;000.032;69;000.484;MIDI 01
285.873;000.054;71;000.281;MIDI 01
286.042;000.028;71;000.352;MIDI 01
286.049;000.032;69;000.328;MIDI 01
286.065;000.071;56;000.383;MIDI 01
286.047;000.091;68;000.453;MIDI 01
286.097;000.049;76;000.352;MIDI 01
286.124;000.055;78;000.453;MIDI 01
286.174;000.039;83;000.328;MIDI 01
286.307;000.057;83;000.375;MIDI 01
286.330;000.039;81;000.430;MIDI 01
286.406;000.032;88;000.406;MIDI 01
286.369;000.086;83;000.031;MIDI 01
286.414;000.080;90;000.523;MIDI 01
286.553;000.089;95;000.430;MIDI 01
286.659;000.086;90;000.461;MIDI 01
286.722;000.050;88;000.234;MIDI 01
286.642;000.191;68;000.523;MIDI 01
286.790;000.045;81;000.297;MIDI 01
286.889;000.074;83;000.453;MIDI 01
286.948;000.072;78;000.375;MIDI 01
287.049;000.033;69;000.469;MIDI 01
287.051;000.033;71;000.312;MIDI 01
286.661;000.502;56;000.398;MIDI 01
287.203;000.020;71;000.375;MIDI 01
287.184;000.043;66;000.328;MIDI 01
287.201;000.041;54;000.422;MIDI 01
287.231;000.045;69;000.172;MIDI 01
287.259;000.053;76;000.180;MIDI 01
287.284;000.053;78;000.414;MIDI 01
287.321;000.041;83;000.320;MIDI 01
287.358;000.043;81;000.242;MIDI 01
287.502;000.059;52;000.328;MIDI 01
287.500;000.075;45;000.398;MIDI 01
287.516;000.064;81;000.336;MIDI 01
287.512;000.158;83;000.312;MIDI 01
287.598;000.180;88;000.328;MIDI 01
287.605;000.177;90;000.477;MIDI 01
287.708;000.082;95;000.430;MIDI 01
287.974;000.105;93;000.414;MIDI 01
288.054;000.077;90;000.445;MIDI 01
288.130;000.026;88;000.352;MIDI 01
288.168;000.039;85;000.477;MIDI 01
287.955;000.323;64;000.445;MIDI 01
288.250;000.036;81;000.383;MIDI 01
288.347;000.043;78;000.492;MIDI 01
288.402;000.056;76;000.430;MIDI 01
288.468;000.042;73;000.414;MIDI 01
288.530;000.076;69;000.523;MIDI 01
288.525;000.134;66;000.500;MIDI 01
288.628;000.032;73;000.477;MIDI 01
288.652;000.049;76;000.484;MIDI 01
288.726;000.024;78;000.391;MIDI 01
288.815;000.045;81;000.508;MIDI 01
288.035;000.857;57;000.234;MIDI 01
288.056;000.842;56;000.336;MIDI 01
288.016;000.901;61;000.328;MIDI 01
288.921;000.037;85;000.414;MIDI 01
289.006;000.053;88;000.352;MIDI 01
289.102;000.109;93;000.477;MIDI 01
288.810;000.409;64;000.555;MIDI 01
289.191;000.084;90;000.453;MIDI 01
289.094;000.226;61;000.430;MIDI 01
289.120;000.218;57;000.227;MIDI 01
289.305;000.033;85;000.430;MIDI 01
289.137;000.233;54;000.359;MIDI 01
289.376;000.031;81;000.430;MIDI 01
289.464;000.071;78;000.492;MIDI 01
289.568;000.036;76;000.281;MIDI 01
289.611;000.038;73;000.336;MIDI 01
289.701;000.034;69;000.391;MIDI 01
289.767;000.053;73;000.422;MIDI 01
289.696;000.158;45;000.305;MIDI 01
289.817;000.040;76;000.320;MIDI 01
289.683;000.186;52;000.297;MIDI 01
289.913;000.062;78;000.055;MIDI 01
289.975;000.035;81;000.406;MIDI 01
290.060;000.031;85;000.383;MIDI 01
290.107;000.074;88;000.477;MIDI 01
290.231;000.092;93;000.484;MIDI 01
290.311;000.075;90;000.430;MIDI 01
290.409;000.048;85;000.500;MIDI 01
290.501;000.028;81;000.453;MIDI 01
290.283;000.296;64;000.477;MIDI 01
290.602;000.062;78;000.453;MIDI 01
290.664;000.034;76;000.414;MIDI 01
290.709;000.045;73;000.461;MIDI 01
290.791;000.089;69;000.547;MIDI 01
290.873;000.067;73;000.445;MIDI 01
290.804;000.145;66;000.539;MIDI 01
290.927;000.051;76;000.445;MIDI 01
290.986;000.030;78;000.422;MIDI 01
290.373;000.745;56;000.336;MIDI 01
291.084;000.060;81;000.531;MIDI 01
290.375;000.776;57;000.258;MIDI 01
290.321;000.849;61;000.328;MIDI 01
291.188;000.051;85;000.469;MIDI 01
291.245;000.089;88;000.531;MIDI 01
291.072;000.302;64;000.578;MIDI 01
291.373;000.098;93;000.469;MIDI 01
291.465;000.067;90;000.516;MIDI 01
291.527;000.033;88;000.297;MIDI 01
291.552;000.034;85;000.477;MIDI 01
291.623;000.036;81;000.547;MIDI 01
291.344;000.341;61;000.438;MIDI 01
291.738;000.086;78;000.516;MIDI 01
291.798;000.082;76;000.469;MIDI 01
291.884;000.036;73;000.438;MIDI 01
291.632;000.294;59;000.641;MIDI 01
291.907;000.040;61;000.562;MIDI 01
291.339;000.612;57;000.250;MIDI 01
291.354;000.614;54;000.398;MIDI 01
291.943;000.098;69;000.586;MIDI 01
292.029;000.085;73;000.539;MIDI 01
292.070;000.068;76;000.484;MIDI 01
292.155;000.032;78;000.312;MIDI 01
292.165;000.033;52;000.367;MIDI 01
292.169;000.033;45;000.375;MIDI 01
292.254;000.027;81;000.453;MIDI 01
292.345;000.040;85;000.438;MIDI 01
292.407;000.072;88;000.438;MIDI 01
292.525;000.081;93;000.453;MIDI 01
292.592;000.082;90;000.523;MIDI 01
292.696;000.030;85;000.508;MIDI 01
292.679;000.049;88;000.172;MIDI 01
292.760;000.028;81;000.523;MIDI 01
292.470;000.340;64;000.547;MIDI 01
292.853;000.064;78;000.516;MIDI 01
292.913;000.047;76;000.484;MIDI 01
292.983;000.033;73;000.414;MIDI 01
293.054;000.067;69;000.516;MIDI 01
293.126;000.075;73;000.523;MIDI 01
293.026;000.199;66;000.586;MIDI 01
293.185;000.047;76;000.523;MIDI 01
292.541;000.736;56;000.398;MIDI 01
292.502;000.777;57;000.336;MIDI 01
293.276;000.023;78;000.320;MIDI 01
293.347;000.036;81;000.547;MIDI 01
293.438;000.053;85;000.516;MIDI 01
293.510;000.039;88;000.445;MIDI 01
293.561;000.106;90;000.555;MIDI 01
293.674;000.033;88;000.320;MIDI 01
292.528;001.202;61;000.391;MIDI 01
293.702;000.033;85;000.484;MIDI 01
293.576;000.221;57;000.367;MIDI 01
293.777;000.031;81;000.531;MIDI 01
293.602;000.247;54;000.445;MIDI 01
293.866;000.081;78;000.555;MIDI 01
293.957;000.039;76;000.305;MIDI 01
293.999;000.042;73;000.570;MIDI 01
294.080;000.066;69;000.547;MIDI 01
293.578;000.594;64;000.594;MIDI 01
294.147;000.066;61;000.648;MIDI 01
294.204;000.040;66;000.531;MIDI 01
294.317;000.050;69;000.500;MIDI 01
294.416;000.069;73;000.492;MIDI 01
294.403;000.136;44;000.484;MIDI 01
294.484;000.057;76;000.453;MIDI 01
294.564;000.023;78;000.391;MIDI 01
294.527;000.083;52;000.477;MIDI 01
294.648;000.046;81;000.547;MIDI 01
294.747;000.031;85;000.477;MIDI 01
294.615;000.168;57;000.555;MIDI 01
294.814;000.038;88;000.531;MIDI 01
294.770;000.103;59;000.672;MIDI 01
294.879;000.038;85;000.516;MIDI 01
294.964;000.032;81;000.406;MIDI 01
295.052;000.060;78;000.531;MIDI 01
295.113;000.047;76;000.492;MIDI 01
295.171;000.047;73;000.500;MIDI 01
295.253;000.047;69;000.523;MIDI 01
295.434;000.041;64;000.445;MIDI 01
295.361;000.123;66;000.461;MIDI 01
295.466;000.119;42;000.516;MIDI 01
295.570;000.084;69;000.500;MIDI 01
295.600;000.127;52;000.469;MIDI 01
295.720;000.027;75;000.516;MIDI 01
295.839;000.036;78;000.328;MIDI 01
295.748;000.195;57;000.414;MIDI 01
295.931;000.047;81;000.555;MIDI 01
296.026;000.040;83;000.500;MIDI 01
296.015;000.082;61;000.477;MIDI 01
296.120;000.035;81;000.469;MIDI 01
296.225;000.048;78;000.438;MIDI 01
296.283;000.039;76;000.484;MIDI 01
296.374;000.047;73;000.250;MIDI 01
296.440;000.021;69;000.445;MIDI 01
296.518;000.040;67;000.242;MIDI 01
296.539;000.059;66;000.422;MIDI 01
296.613;000.052;64;000.398;MIDI 01
296.684;000.070;61;000.500;MIDI 01
296.777;000.030;64;000.445;MIDI 01
296.852;000.028;66;000.359;MIDI 01
296.952;000.108;69;000.508;MIDI 01
296.923;000.178;47;000.367;MIDI 01
296.928;000.203;40;000.375;MIDI 01
297.060;000.076;73;000.438;MIDI 01
297.141;000.114;76;000.414;MIDI 01
297.206;000.108;78;000.438;MIDI 01
297.315;000.048;81;000.484;MIDI 01
297.545;000.044;83;000.367;MIDI 01
297.534;000.056;61;000.336;MIDI 01
297.529;000.069;73;000.438;MIDI 01
297.605;000.071;80;000.414;MIDI 01
297.730;000.072;76;000.070;MIDI 01
297.816;000.030;71;000.430;MIDI 01
297.940;000.036;68;000.375;MIDI 01
298.020;000.057;64;000.289;MIDI 01
298.102;000.098;75;000.469;MIDI 01
298.214;000.040;59;000.289;MIDI 01
298.251;000.057;61;000.383;MIDI 01
298.183;000.204;63;000.367;MIDI 01
298.505;000.028;71;000.289;MIDI 01
298.567;000.041;73;000.359;MIDI 01
298.634;000.044;76;000.367;MIDI 01
298.733;000.050;56;000.375;MIDI 01
298.723;000.085;68;000.367;MIDI 01
298.740;000.149;83;000.344;MIDI 01
298.814;000.078;80;000.422;MIDI 01
298.915;000.048;73;000.422;MIDI 01
299.012;000.038;71;000.359;MIDI 01
299.196;000.042;64;000.328;MIDI 01
299.227;000.078;71;000.375;MIDI 01
299.406;000.056;61;000.188;MIDI 01
299.495;000.057;64;000.188;MIDI 01
299.533;000.031;68;000.344;MIDI 01
299.627;000.033;71;000.477;MIDI 01
299.735;000.054;73;000.281;MIDI 01
299.774;000.039;76;000.352;MIDI 01
299.832;000.049;61;000.398;MIDI 01
299.812;000.093;73;000.398;MIDI 01
299.868;000.040;83;000.203;MIDI 01
300.011;000.047;73;000.312;MIDI 01
300.090;000.028;71;000.367;MIDI 01
300.196;000.031;68;000.406;MIDI 01
300.277;000.051;64;000.281;MIDI 01
300.371;000.075;75;000.508;MIDI 01
300.491;000.050;61;000.203;MIDI 01
300.430;000.192;63;000.367;MIDI 01
300.733;000.037;71;000.281;MIDI 01
300.871;000.052;76;000.180;MIDI 01
300.967;000.035;83;000.266;MIDI 01
300.970;000.056;68;000.445;MIDI 01
301.002;000.058;56;000.117;MIDI 01
301.026;000.039;80;000.414;MIDI 01
301.214;000.054;71;000.148;MIDI 01
301.301;000.046;68;000.391;MIDI 01
301.375;000.043;64;000.359;MIDI 01
301.516;000.053;71;000.453;MIDI 01
301.560;000.039;59;000.305;MIDI 01
301.589;000.073;61;000.133;MIDI 01
301.843;000.030;71;000.398;MIDI 01
301.930;000.040;73;000.398;MIDI 01
301.995;000.048;76;000.461;MIDI 01
302.111;000.043;83;000.367;MIDI 01
302.092;000.091;73;000.500;MIDI 01
302.147;000.041;61;000.258;MIDI 01
302.358;000.029;71;000.445;MIDI 01
302.479;000.045;68;000.383;MIDI 01
302.603;000.050;64;000.023;MIDI 01
302.635;000.037;61;000.258;MIDI 01
302.673;000.094;75;000.539;MIDI 01
302.727;000.052;59;000.250;MIDI 01
302.801;000.036;61;000.453;MIDI 01
302.745;000.254;63;000.336;MIDI 01
303.025;000.034;71;000.336;MIDI 01
303.100;000.045;73;000.406;MIDI 01
303.154;000.046;76;000.383;MIDI 01
303.278;000.038;83;000.250;MIDI 01
303.302;000.051;56;000.297;MIDI 01
303.280;000.082;68;000.508;MIDI 01
303.378;000.050;80;000.172;MIDI 01
303.441;000.037;73;000.305;MIDI 01
303.515;000.020;71;000.391;MIDI 01
303.622;000.048;68;000.406;MIDI 01
303.734;000.051;64;000.156;MIDI 01
303.775;000.032;61;000.336;MIDI 01
303.847;000.049;71;000.531;MIDI 01
303.880;000.032;59;000.336;MIDI 01
303.929;000.048;61;000.500;MIDI 01
304.176;000.023;71;000.359;MIDI 01
304.247;000.050;73;000.391;MIDI 01
304.327;000.046;76;000.367;MIDI 01
304.456;000.060;83;000.133;MIDI 01
304.489;000.039;61;000.258;MIDI 01
304.446;000.089;73;000.516;MIDI 01
304.609;000.039;73;000.289;MIDI 01
304.698;000.029;71;000.445;MIDI 01
304.830;000.041;68;000.320;MIDI 01
304.884;000.048;64;000.344;MIDI 01
305.014;000.060;75;000.484;MIDI 01
304.997;000.088;61;000.094;MIDI 01
305.057;000.035;59;000.336;MIDI 01
305.102;000.066;61;000.281;MIDI 01
305.071;000.196;63;000.359;MIDI 01
305.366;000.023;71;000.344;MIDI 01
305.447;000.026;73;000.383;MIDI 01
305.500;000.044;76;000.375;MIDI 01
305.596;000.047;68;000.430;MIDI 01
305.621;000.034;83;000.297;MIDI 01
305.619;000.039;56;000.320;MIDI 01
305.834;000.030;71;000.398;MIDI 01
305.956;000.033;68;000.391;MIDI 01
306.027;000.056;64;000.336;MIDI 01
306.181;000.041;71;000.445;MIDI 01
306.241;000.039;59;000.305;MIDI 01
306.268;000.072;61;000.258;MIDI 01
306.550;000.034;71;000.305;MIDI 01
306.637;000.043;73;000.336;MIDI 01
306.702;000.078;76;000.422;MIDI 01
306.837;000.200;80;000.328;MIDI 01
307.116;000.140;83;000.211;MIDI 01
307.221;000.104;80;000.406;MIDI 01
307.001;000.325;47;000.219;MIDI 01
306.994;000.348;40;000.305;MIDI 01
307.347;000.042;76;000.258;MIDI 01
307.383;000.027;73;000.414;MIDI 01
307.465;000.025;71;000.438;MIDI 01
307.556;000.044;68;000.430;MIDI 01
307.610;000.045;47;000.281;MIDI 01
307.686;000.048;49;000.445;MIDI 01
307.624;000.115;64;000.414;MIDI 01
307.743;000.082;61;000.352;MIDI 01
307.777;000.053;52;000.297;MIDI 01
307.833;000.031;56;000.391;MIDI 01
307.930;000.058;59;000.438;MIDI 01
307.981;000.067;61;000.469;MIDI 01
308.068;000.049;64;000.383;MIDI 01
308.125;000.035;68;000.453;MIDI 01
308.122;000.044;59;000.398;MIDI 01
308.202;000.022;61;000.414;MIDI 01
308.246;000.026;64;000.328;MIDI 01
308.280;000.030;68;000.430;MIDI 01
308.395;000.065;71;000.469;MIDI 01
308.453;000.079;73;000.516;MIDI 01
308.520;000.056;76;000.469;MIDI 01
308.567;000.070;80;000.508;MIDI 01
308.603;000.036;71;000.336;MIDI 01
308.675;000.028;73;000.430;MIDI 01
308.725;000.039;76;000.445;MIDI 01
308.798;000.046;80;000.531;MIDI 01
308.976;000.069;88;000.453;MIDI 01
309.034;000.106;92;000.539;MIDI 01
309.132;000.034;95;000.430;MIDI 01
309.192;000.091;97;000.484;MIDI 01
309.496;000.057;92;000.297;MIDI 01
309.481;000.082;47;000.336;MIDI 01
309.528;000.113;87;000.375;MIDI 01
309.466;001.120;40;000.375;MIDI 01
309.453;001.289;99;000.461;MIDI 01
