Start;Duration;Pitch;Velocity;Instrument
002.111;000.037;62;000.594;MIDI 01
002.118;000.034;60;000.562;MIDI 01
002.114;000.040;65;000.570;MIDI 01
002.116;000.040;71;000.641;MIDI 01
002.165;000.002;57;000.078;MIDI 01
002.120;000.051;50;000.523;MIDI 01
002.124;000.070;43;000.547;MIDI 01
002.225;000.037;62;000.602;MIDI 01
002.229;000.035;60;000.523;MIDI 01
002.233;000.043;71;000.602;MIDI 01
002.241;000.039;65;000.586;MIDI 01
002.263;000.043;43;000.461;MIDI 01
002.270;000.037;50;000.500;MIDI 01
002.345;000.034;60;000.539;MIDI 01
002.347;000.035;62;000.586;MIDI 01
002.368;000.027;65;000.508;MIDI 01
002.354;000.059;71;000.633;MIDI 01
002.674;000.031;66;000.742;MIDI 01
002.680;000.035;62;000.656;MIDI 01
002.682;000.036;70;000.641;MIDI 01
002.691;000.029;73;000.609;MIDI 01
002.684;000.041;75;000.617;MIDI 01
002.676;000.054;78;000.688;MIDI 01
003.021;000.032;59;000.680;MIDI 01
003.032;000.037;43;000.570;MIDI 01
003.030;000.042;62;000.547;MIDI 01
003.019;000.057;50;000.617;MIDI 01
003.018;000.062;64;000.633;MIDI 01
003.023;000.070;69;000.664;MIDI 01
003.071;000.043;60;000.258;MIDI 01
003.150;000.028;59;000.664;MIDI 01
003.141;000.064;62;000.609;MIDI 01
003.144;000.062;50;000.586;MIDI 01
003.146;000.062;64;000.555;MIDI 01
003.154;000.065;43;000.555;MIDI 01
003.138;000.089;69;000.562;MIDI 01
003.260;000.039;62;000.516;MIDI 01
003.280;000.024;59;000.445;MIDI 01
003.269;000.039;64;000.398;MIDI 01
003.251;000.074;69;000.461;MIDI 01
003.544;000.035;61;000.562;MIDI 01
003.558;000.027;74;000.672;MIDI 01
003.572;000.017;76;000.531;MIDI 01
003.556;000.034;82;000.664;MIDI 01
003.574;000.025;70;000.539;MIDI 01
003.571;000.031;73;000.664;MIDI 01
003.552;000.053;88;000.711;MIDI 01
003.561;000.047;86;000.641;MIDI 01
003.555;000.056;85;000.688;MIDI 01
003.621;000.052;62;000.195;MIDI 01
003.891;000.035;65;000.664;MIDI 01
003.904;000.024;57;000.547;MIDI 01
003.893;000.036;62;000.656;MIDI 01
003.905;000.028;50;000.531;MIDI 01
003.902;000.033;60;000.633;MIDI 01
003.889;000.049;71;000.664;MIDI 01
003.911;000.030;43;000.531;MIDI 01
003.933;000.043;55;000.305;MIDI 01
004.003;000.036;57;000.602;MIDI 01
003.999;000.044;60;000.617;MIDI 01
003.994;000.053;62;000.680;MIDI 01
004.016;000.033;43;000.617;MIDI 01
004.022;000.029;55;000.461;MIDI 01
003.996;000.063;71;000.633;MIDI 01
004.005;000.058;65;000.664;MIDI 01
004.006;000.061;50;000.672;MIDI 01
004.143;000.025;60;000.547;MIDI 01
004.136;000.033;62;000.570;MIDI 01
004.141;000.031;55;000.547;MIDI 01
004.140;000.034;50;000.516;MIDI 01
004.134;000.042;57;000.523;MIDI 01
004.145;000.033;65;000.531;MIDI 01
004.129;000.054;43;000.625;MIDI 01
004.127;000.067;71;000.617;MIDI 01
004.409;000.028;66;000.711;MIDI 01
004.414;000.034;70;000.664;MIDI 01
004.419;000.031;62;000.703;MIDI 01
004.416;000.040;73;000.570;MIDI 01
004.421;000.036;75;000.609;MIDI 01
004.407;000.054;78;000.680;MIDI 01
004.710;000.031;62;000.562;MIDI 01
004.713;000.031;60;000.570;MIDI 01
004.707;000.041;64;000.578;MIDI 01
004.722;000.028;57;000.539;MIDI 01
004.719;000.033;69;000.492;MIDI 01
004.727;000.026;55;000.500;MIDI 01
004.730;000.025;50;000.445;MIDI 01
004.725;000.032;59;000.469;MIDI 01
004.732;000.033;43;000.453;MIDI 01
004.776;000.056;67;000.070;MIDI 01
004.829;000.026;59;000.688;MIDI 01
004.843;000.025;55;000.516;MIDI 01
004.841;000.029;57;000.461;MIDI 01
004.825;000.047;64;000.648;MIDI 01
004.836;000.038;69;000.617;MIDI 01
004.839;000.037;43;000.477;MIDI 01
004.831;000.046;50;000.609;MIDI 01
004.817;000.062;62;000.633;MIDI 01
004.940;000.032;59;000.656;MIDI 01
004.961;000.024;50;000.617;MIDI 01
004.955;000.032;62;000.578;MIDI 01
004.968;000.022;64;000.547;MIDI 01
004.957;000.038;43;000.648;MIDI 01
004.952;000.057;69;000.680;MIDI 01
005.004;000.045;55;000.156;MIDI 01
005.008;000.050;57;000.156;MIDI 01
005.294;000.047;89;000.703;MIDI 01
005.290;000.053;76;000.648;MIDI 01
005.309;000.044;87;000.500;MIDI 01
005.307;000.056;73;000.594;MIDI 01
005.292;000.074;88;000.609;MIDI 01
005.303;000.067;86;000.617;MIDI 01
005.331;000.041;74;000.320;MIDI 01
005.301;000.073;82;000.602;MIDI 01
005.299;000.078;85;000.625;MIDI 01
005.252;000.126;63;000.312;MIDI 01
005.318;000.062;70;000.523;MIDI 01
005.698;000.159;50;000.492;MIDI 01
005.700;000.159;43;000.539;MIDI 01
005.864;000.091;71;000.516;MIDI 01
005.892;000.075;74;000.484;MIDI 01
005.879;000.189;62;000.508;MIDI 01
006.068;000.074;50;000.359;MIDI 01
006.079;000.092;59;000.477;MIDI 01
006.051;000.126;64;000.570;MIDI 01
006.170;000.057;66;000.586;MIDI 01
006.311;000.104;67;000.547;MIDI 01
006.293;000.152;74;000.641;MIDI 01
006.416;000.051;71;000.578;MIDI 01
006.560;000.105;62;000.461;MIDI 01
006.674;000.051;71;000.414;MIDI 01
006.568;000.207;69;000.547;MIDI 01
006.692;000.148;74;000.516;MIDI 01
006.847;000.033;64;000.367;MIDI 01
006.856;000.032;59;000.383;MIDI 01
006.849;000.114;76;000.539;MIDI 01
006.998;000.109;78;000.508;MIDI 01
007.216;000.050;74;000.367;MIDI 01
007.186;000.102;79;000.461;MIDI 01
007.210;000.080;71;000.320;MIDI 01
007.392;000.060;83;000.414;MIDI 01
007.626;000.044;83;000.391;MIDI 01
007.628;000.054;86;000.492;MIDI 01
007.640;000.045;74;000.445;MIDI 01
007.655;000.043;62;000.289;MIDI 01
007.674;000.033;54;000.320;MIDI 01
007.668;000.045;59;000.219;MIDI 01
007.770;000.034;83;000.555;MIDI 01
007.777;000.031;86;000.469;MIDI 01
007.797;000.025;74;000.391;MIDI 01
007.920;000.036;83;000.555;MIDI 01
007.916;000.045;86;000.562;MIDI 01
007.932;000.033;50;000.469;MIDI 01
007.922;000.059;74;000.523;MIDI 01
007.946;000.038;43;000.445;MIDI 01
008.238;000.052;71;000.555;MIDI 01
008.233;000.132;62;000.445;MIDI 01
008.243;000.135;83;000.570;MIDI 01
008.241;000.167;55;000.461;MIDI 01
008.370;000.040;78;000.617;MIDI 01
008.235;000.180;64;000.477;MIDI 01
008.512;000.029;83;000.586;MIDI 01
008.509;000.034;74;000.602;MIDI 01
008.506;000.043;86;000.594;MIDI 01
008.632;000.033;86;000.570;MIDI 01
008.618;000.059;74;000.609;MIDI 01
008.626;000.056;83;000.641;MIDI 01
008.784;000.033;74;000.633;MIDI 01
008.780;000.041;83;000.617;MIDI 01
008.770;000.064;71;000.617;MIDI 01
008.772;000.069;86;000.625;MIDI 01
008.778;000.084;66;000.578;MIDI 01
008.782;000.109;62;000.555;MIDI 01
009.053;000.080;71;000.617;MIDI 01
009.050;000.155;83;000.625;MIDI 01
009.168;000.055;78;000.633;MIDI 01
009.316;000.028;74;000.633;MIDI 01
009.318;000.027;83;000.625;MIDI 01
009.320;000.033;62;000.586;MIDI 01
009.322;000.033;59;000.570;MIDI 01
009.314;000.046;86;000.641;MIDI 01
009.331;000.066;54;000.562;MIDI 01
009.359;000.040;76;000.273;MIDI 01
009.438;000.074;74;000.555;MIDI 01
009.445;000.072;83;000.633;MIDI 01
009.443;000.086;86;000.648;MIDI 01
009.624;000.046;40;000.688;MIDI 01
009.619;000.056;47;000.695;MIDI 01
009.629;000.058;83;000.680;MIDI 01
009.634;000.055;86;000.656;MIDI 01
009.631;000.060;74;000.703;MIDI 01
009.974;000.035;62;000.555;MIDI 01
009.972;000.058;71;000.680;MIDI 01
009.966;000.067;56;000.641;MIDI 01
009.969;000.065;64;000.656;MIDI 01
009.976;000.137;83;000.617;MIDI 01
010.099;000.058;78;000.672;MIDI 01
010.227;000.028;74;000.680;MIDI 01
010.233;000.027;83;000.664;MIDI 01
010.229;000.048;86;000.641;MIDI 01
010.352;000.055;74;000.664;MIDI 01
010.356;000.054;83;000.711;MIDI 01
010.358;000.065;86;000.656;MIDI 01
010.499;000.048;71;000.680;MIDI 01
010.504;000.053;83;000.695;MIDI 01
010.506;000.054;86;000.664;MIDI 01
010.502;000.060;74;000.719;MIDI 01
010.508;000.066;66;000.648;MIDI 01
010.512;000.076;62;000.578;MIDI 01
010.805;000.161;71;000.688;MIDI 01
010.810;000.196;83;000.672;MIDI 01
010.943;000.069;78;000.672;MIDI 01
011.127;000.002;86;000.484;MIDI 01
011.104;000.035;47;000.617;MIDI 01
011.108;000.033;40;000.547;MIDI 01
011.116;000.031;74;000.641;MIDI 01
011.122;000.026;83;000.602;MIDI 01
011.136;000.021;84;000.500;MIDI 01
011.140;000.024;76;000.484;MIDI 01
011.232;000.052;83;000.695;MIDI 01
011.230;000.060;74;000.641;MIDI 01
011.364;000.029;83;000.664;MIDI 01
011.368;000.027;74;000.680;MIDI 01
011.376;000.034;64;000.609;MIDI 01
011.375;000.048;56;000.617;MIDI 01
011.354;000.070;86;000.500;MIDI 01
011.399;000.035;62;000.375;MIDI 01
011.423;000.052;76;000.141;MIDI 01
011.673;000.036;63;000.484;MIDI 01
011.686;000.025;65;000.430;MIDI 01
011.676;000.037;72;000.680;MIDI 01
011.684;000.040;57;000.547;MIDI 01
011.675;000.153;81;000.727;MIDI 01
011.678;000.162;84;000.688;MIDI 01
011.812;000.034;72;000.328;MIDI 01
011.796;000.054;77;000.648;MIDI 01
011.955;000.028;74;000.680;MIDI 01
011.959;000.025;47;000.641;MIDI 01
011.953;000.035;83;000.703;MIDI 01
011.957;000.036;86;000.656;MIDI 01
011.963;000.033;40;000.617;MIDI 01
012.078;000.050;83;000.742;MIDI 01
012.074;000.056;74;000.742;MIDI 01
012.080;000.060;86;000.719;MIDI 01
012.214;000.037;74;000.664;MIDI 01
012.216;000.038;83;000.672;MIDI 01
012.205;000.069;86;000.641;MIDI 01
012.218;000.057;64;000.648;MIDI 01
012.223;000.098;56;000.594;MIDI 01
012.503;000.034;65;000.578;MIDI 01
012.529;000.031;63;000.414;MIDI 01
012.527;000.044;57;000.555;MIDI 01
012.517;000.167;81;000.648;MIDI 01
012.515;000.215;72;000.656;MIDI 01
012.519;000.221;84;000.625;MIDI 01
012.658;000.104;77;000.570;MIDI 01
012.793;000.036;47;000.641;MIDI 01
012.797;000.041;40;000.680;MIDI 01
012.934;000.052;74;000.680;MIDI 01
012.936;000.175;86;000.711;MIDI 01
013.082;000.041;64;000.586;MIDI 01
013.073;000.075;83;000.648;MIDI 01
013.089;000.100;56;000.570;MIDI 01
013.211;000.051;81;000.617;MIDI 01
013.214;000.053;83;000.109;MIDI 01
013.194;000.075;84;000.672;MIDI 01
013.333;000.024;65;000.477;MIDI 01
013.349;000.030;63;000.367;MIDI 01
013.335;000.047;79;000.648;MIDI 01
013.345;000.042;57;000.516;MIDI 01
013.466;000.076;72;000.586;MIDI 01
013.605;000.030;47;000.578;MIDI 01
013.615;000.028;40;000.586;MIDI 01
013.450;000.239;77;000.609;MIDI 01
013.613;000.156;76;000.648;MIDI 01
013.739;000.117;74;000.656;MIDI 01
013.895;000.056;64;000.523;MIDI 01
013.884;000.069;71;000.609;MIDI 01
013.900;000.101;56;000.477;MIDI 01
014.008;000.155;72;000.586;MIDI 01
014.028;000.148;69;000.555;MIDI 01
014.150;000.037;63;000.367;MIDI 01
014.157;000.040;57;000.477;MIDI 01
014.172;000.058;67;000.594;MIDI 01
014.352;000.039;59;000.336;MIDI 01
014.365;000.043;60;000.281;MIDI 01
014.312;000.098;65;000.586;MIDI 01
014.581;000.056;33;000.406;MIDI 01
014.579;000.136;45;000.320;MIDI 01
014.542;000.236;59;000.312;MIDI 01
014.585;000.275;55;000.336;MIDI 01
014.545;000.335;64;000.414;MIDI 01
014.931;000.093;59;000.492;MIDI 01
015.062;000.033;62;000.531;MIDI 01
014.940;000.269;55;000.305;MIDI 01
014.956;000.257;50;000.344;MIDI 01
015.196;000.051;64;000.602;MIDI 01
015.208;000.042;59;000.492;MIDI 01
015.454;000.064;71;000.633;MIDI 01
015.318;000.279;67;000.625;MIDI 01
015.477;000.229;62;000.555;MIDI 01
015.735;000.036;64;000.570;MIDI 01
015.722;000.066;74;000.664;MIDI 01
015.732;000.074;71;000.656;MIDI 01
015.849;000.058;79;000.672;MIDI 01
015.970;000.072;83;000.680;MIDI 01
016.002;000.055;76;000.562;MIDI 01
015.994;000.067;67;000.555;MIDI 01
016.111;000.044;88;000.750;MIDI 01
016.234;000.027;79;000.609;MIDI 01
016.244;000.028;74;000.633;MIDI 01
016.258;000.043;90;000.680;MIDI 01
016.550;000.026;71;000.680;MIDI 01
016.557;000.023;83;000.688;MIDI 01
016.553;000.034;64;000.625;MIDI 01
016.564;000.026;57;000.539;MIDI 01
016.545;000.047;67;000.680;MIDI 01
016.565;000.032;59;000.445;MIDI 01
016.555;000.046;86;000.672;MIDI 01
016.551;000.052;93;000.758;MIDI 01
016.559;000.054;90;000.688;MIDI 01
017.127;000.001;82;000.367;MIDI 01
017.114;000.024;59;000.523;MIDI 01
017.093;000.051;57;000.656;MIDI 01
017.120;000.026;69;000.523;MIDI 01
017.109;000.039;71;000.586;MIDI 01
017.102;000.049;83;000.695;MIDI 01
017.098;000.055;67;000.695;MIDI 01
017.102;000.053;93;000.781;MIDI 01
017.103;000.058;64;000.586;MIDI 01
017.159;000.002;66;000.039;MIDI 01
017.107;000.056;86;000.727;MIDI 01
017.105;000.060;90;000.781;MIDI 01
017.174;000.075;87;000.172;MIDI 01
017.507;000.047;67;000.234;MIDI 01
017.696;000.002;87;000.414;MIDI 01
017.674;000.030;71;000.602;MIDI 01
017.661;000.045;83;000.727;MIDI 01
017.657;000.051;93;000.789;MIDI 01
017.681;000.029;59;000.500;MIDI 01
017.684;000.028;69;000.492;MIDI 01
017.661;000.053;57;000.641;MIDI 01
017.654;000.064;67;000.672;MIDI 01
017.666;000.054;86;000.695;MIDI 01
017.670;000.056;64;000.586;MIDI 01
017.664;000.065;90;000.766;MIDI 01
018.278;000.036;54;000.609;MIDI 01
018.275;000.054;55;000.695;MIDI 01
018.277;000.070;59;000.688;MIDI 01
018.282;000.070;45;000.617;MIDI 01
018.280;000.074;62;000.648;MIDI 01
018.427;000.052;64;000.727;MIDI 01
018.605;000.045;52;000.695;MIDI 01
018.615;000.036;45;000.445;MIDI 01
018.602;000.064;33;000.656;MIDI 01
018.603;000.065;59;000.727;MIDI 01
018.618;000.052;55;000.562;MIDI 01
018.647;000.034;53;000.445;MIDI 01
018.764;000.070;57;000.781;MIDI 01
019.008;000.041;50;000.727;MIDI 01
019.010;000.060;54;000.719;MIDI 01
019.012;000.065;26;000.789;MIDI 01
019.017;000.065;62;000.734;MIDI 01
019.006;000.081;57;000.664;MIDI 01
019.068;000.048;28;000.391;MIDI 01
020.015;000.046;77;000.742;MIDI 01
020.020;000.042;76;000.758;MIDI 01
020.026;000.044;71;000.648;MIDI 01
020.022;000.054;83;000.711;MIDI 01
020.018;000.060;68;000.688;MIDI 01
020.024;000.060;88;000.758;MIDI 01
020.152;000.053;76;000.742;MIDI 01
020.150;000.064;88;000.664;MIDI 01
020.148;000.071;83;000.711;MIDI 01
020.622;000.034;38;000.703;MIDI 01
020.617;000.055;50;000.695;MIDI 01
020.314;000.484;88;000.664;MIDI 01
020.316;000.515;76;000.727;MIDI 01
020.955;000.060;77;000.695;MIDI 01
020.953;000.076;72;000.648;MIDI 01
020.957;000.092;68;000.680;MIDI 01
020.311;000.989;83;000.602;MIDI 01
021.290;000.072;72;000.531;MIDI 01
021.314;000.055;74;000.672;MIDI 01
021.299;000.074;65;000.539;MIDI 01
021.316;000.061;68;000.492;MIDI 01
021.304;000.170;86;000.695;MIDI 01
021.440;000.042;74;000.570;MIDI 01
021.433;000.164;84;000.688;MIDI 01
021.571;000.067;68;000.445;MIDI 01
021.580;000.077;60;000.508;MIDI 01
021.574;000.119;65;000.398;MIDI 01
021.572;000.132;80;000.695;MIDI 01
021.694;000.035;72;000.633;MIDI 01
021.850;000.027;67;000.688;MIDI 01
021.852;000.027;74;000.688;MIDI 01
021.848;000.069;79;000.703;MIDI 01
021.858;000.060;68;000.648;MIDI 01
021.856;000.105;59;000.609;MIDI 01
021.874;000.099;62;000.539;MIDI 01
021.971;000.038;67;000.680;MIDI 01
021.973;000.041;79;000.492;MIDI 01
021.971;000.059;74;000.672;MIDI 01
022.416;000.039;50;000.648;MIDI 01
022.418;000.039;38;000.664;MIDI 01
022.130;000.549;74;000.562;MIDI 01
022.109;000.580;79;000.625;MIDI 01
022.116;000.596;67;000.656;MIDI 01
022.731;000.071;68;000.672;MIDI 01
022.738;000.102;63;000.570;MIDI 01
022.733;000.117;59;000.633;MIDI 01
023.055;000.047;63;000.484;MIDI 01
023.061;000.044;65;000.562;MIDI 01
023.059;000.074;59;000.477;MIDI 01
023.085;000.080;56;000.500;MIDI 01
023.051;000.165;77;000.633;MIDI 01
023.258;000.050;65;000.023;MIDI 01
023.182;000.160;75;000.625;MIDI 01
023.353;000.068;51;000.500;MIDI 01
023.349;000.076;59;000.461;MIDI 01
023.355;000.082;56;000.414;MIDI 01
023.333;000.114;71;000.578;MIDI 01
023.482;000.040;63;000.570;MIDI 01
023.702;000.030;58;000.547;MIDI 01
023.708;000.034;70;000.539;MIDI 01
023.720;000.143;59;000.508;MIDI 01
023.826;000.041;58;000.547;MIDI 01
023.824;000.045;70;000.578;MIDI 01
023.724;000.182;53;000.453;MIDI 01
023.718;000.214;50;000.445;MIDI 01
023.971;000.071;58;000.430;MIDI 01
023.966;000.295;70;000.523;MIDI 01
024.274;000.039;38;000.500;MIDI 01
024.284;000.070;65;000.500;MIDI 01
024.589;000.022;68;000.531;MIDI 01
024.584;000.028;56;000.531;MIDI 01
024.709;000.042;68;000.484;MIDI 01
024.717;000.041;56;000.492;MIDI 01
024.610;000.206;59;000.414;MIDI 01
024.596;000.233;57;000.406;MIDI 01
024.618;000.268;51;000.383;MIDI 01
024.854;000.051;56;000.523;MIDI 01
024.852;000.158;68;000.500;MIDI 01
025.183;000.040;38;000.391;MIDI 01
025.200;000.053;63;000.453;MIDI 01
025.523;000.034;58;000.469;MIDI 01
025.527;000.035;70;000.492;MIDI 01
025.657;000.036;58;000.469;MIDI 01
025.660;000.035;70;000.500;MIDI 01
025.536;000.206;59;000.352;MIDI 01
025.533;000.234;53;000.344;MIDI 01
025.539;000.268;50;000.289;MIDI 01
025.791;000.045;58;000.477;MIDI 01
026.102;000.044;38;000.398;MIDI 01
026.123;000.045;65;000.445;MIDI 01
026.442;000.026;68;000.438;MIDI 01
026.444;000.029;56;000.438;MIDI 01
026.564;000.043;68;000.516;MIDI 01
026.571;000.040;56;000.492;MIDI 01
026.448;000.207;59;000.273;MIDI 01
026.466;000.192;57;000.320;MIDI 01
026.460;000.277;51;000.305;MIDI 01
026.708;000.051;56;000.516;MIDI 01
026.700;000.183;68;000.500;MIDI 01
027.047;000.042;38;000.375;MIDI 01
027.064;000.124;63;000.414;MIDI 01
027.503;000.079;58;000.125;MIDI 01
027.450;000.158;59;000.320;MIDI 01
027.444;000.223;53;000.258;MIDI 01
027.448;000.255;50;000.258;MIDI 01
027.461;000.354;70;000.422;MIDI 01
027.633;000.241;65;000.469;MIDI 01
027.845;000.047;57;000.320;MIDI 01
027.821;000.080;59;000.336;MIDI 01
027.795;000.157;51;000.242;MIDI 01
028.148;000.039;38;000.406;MIDI 01
028.266;000.140;63;000.414;MIDI 01
027.829;000.607;68;000.445;MIDI 01
028.460;000.054;58;000.125;MIDI 01
028.448;000.110;59;000.406;MIDI 01
028.450;000.117;53;000.375;MIDI 01
028.468;000.215;50;000.305;MIDI 01
028.426;000.336;70;000.477;MIDI 01
028.582;000.222;65;000.500;MIDI 01
028.796;000.064;57;000.297;MIDI 01
028.769;000.104;59;000.328;MIDI 01
028.775;000.164;51;000.219;MIDI 01
029.189;000.045;38;000.375;MIDI 01
029.353;000.255;63;000.414;MIDI 01
028.772;000.996;68;000.445;MIDI 01
029.615;000.204;59;000.297;MIDI 01
029.608;000.242;70;000.328;MIDI 01
029.618;000.288;53;000.172;MIDI 01
029.819;000.257;65;000.352;MIDI 01
030.029;000.078;54;000.289;MIDI 01
030.049;000.075;60;000.344;MIDI 01
030.168;000.110;63;000.453;MIDI 01
030.323;000.055;62;000.359;MIDI 01
030.353;000.054;58;000.352;MIDI 01
029.646;000.764;50;000.125;MIDI 01
030.015;000.472;68;000.422;MIDI 01
030.320;000.169;70;000.469;MIDI 01
030.367;000.219;52;000.289;MIDI 01
030.623;000.075;57;000.445;MIDI 01
030.475;000.264;65;000.531;MIDI 01
030.639;000.102;53;000.375;MIDI 01
030.760;000.091;63;000.531;MIDI 01
030.794;000.145;53;000.133;MIDI 01
030.615;000.386;68;000.547;MIDI 01
030.951;000.066;64;000.391;MIDI 01
030.965;000.120;58;000.344;MIDI 01
030.967;000.195;70;000.438;MIDI 01
030.980;000.377;54;000.352;MIDI 01
031.173;000.230;65;000.430;MIDI 01
031.440;000.148;57;000.258;MIDI 01
031.438;000.236;47;000.250;MIDI 01
031.446;000.241;68;000.320;MIDI 01
031.699;000.402;63;000.352;MIDI 01
032.099;000.120;40;000.312;MIDI 01
032.062;000.454;66;000.344;MIDI 01
032.321;000.247;60;000.336;MIDI 01
032.552;000.053;61;000.305;MIDI 01
032.594;000.271;56;000.375;MIDI 01
032.906;000.044;47;000.328;MIDI 01
033.036;000.122;59;000.344;MIDI 01
032.536;000.641;64;000.383;MIDI 01
033.222;000.070;35;000.383;MIDI 01
033.201;000.195;63;000.375;MIDI 01
033.372;000.132;58;000.422;MIDI 01
033.556;000.085;54;000.320;MIDI 01
033.528;000.233;62;000.422;MIDI 01
033.659;000.105;57;000.508;MIDI 01
033.812;000.042;47;000.352;MIDI 01
033.790;000.074;58;000.508;MIDI 01
033.810;000.055;55;000.164;MIDI 01
033.904;000.080;59;000.531;MIDI 01
034.068;000.039;40;000.391;MIDI 01
034.061;000.195;66;000.469;MIDI 01
034.207;000.136;60;000.414;MIDI 01
034.367;000.052;61;000.352;MIDI 01
034.388;000.232;56;000.383;MIDI 01
034.666;000.039;47;000.328;MIDI 01
034.351;000.519;64;000.438;MIDI 01
034.798;000.110;59;000.414;MIDI 01
034.962;000.048;35;000.406;MIDI 01
034.970;000.202;63;000.359;MIDI 01
035.140;000.136;58;000.375;MIDI 01
035.310;000.233;62;000.398;MIDI 01
035.460;000.106;57;000.352;MIDI 01
035.308;000.335;54;000.375;MIDI 01
035.622;000.046;47;000.383;MIDI 01
035.608;000.082;58;000.367;MIDI 01
035.771;000.265;59;000.344;MIDI 01
036.034;000.067;40;000.375;MIDI 01
036.036;000.129;66;000.359;MIDI 01
036.216;000.091;60;000.406;MIDI 01
036.392;000.084;64;000.414;MIDI 01
036.407;000.138;56;000.297;MIDI 01
036.530;000.052;68;000.461;MIDI 01
036.418;000.217;61;000.312;MIDI 01
036.664;000.114;71;000.508;MIDI 01
036.676;000.209;67;000.445;MIDI 01
036.796;000.115;72;000.508;MIDI 01
036.955;000.092;78;000.469;MIDI 01
037.082;000.120;72;000.492;MIDI 01
036.947;000.371;68;000.367;MIDI 01
037.276;000.120;76;000.445;MIDI 01
037.445;000.115;80;000.430;MIDI 01
037.297;000.367;73;000.352;MIDI 01
037.686;000.030;79;000.359;MIDI 01
037.663;000.170;83;000.422;MIDI 01
037.906;000.306;84;000.422;MIDI 01
038.317;000.113;37;000.250;MIDI 01
038.281;000.234;87;000.406;MIDI 01
038.322;000.233;80;000.250;MIDI 01
038.544;000.204;83;000.422;MIDI 01
038.795;000.073;62;000.289;MIDI 01
038.806;000.325;79;000.305;MIDI 01
038.781;000.366;67;000.289;MIDI 01
039.139;000.040;66;000.305;MIDI 01
038.814;000.374;59;000.219;MIDI 01
039.135;000.119;78;000.430;MIDI 01
038.783;000.477;86;000.438;MIDI 01
039.298;000.109;82;000.398;MIDI 01
039.447;000.045;31;000.477;MIDI 01
039.470;000.041;43;000.328;MIDI 01
039.464;000.126;77;000.312;MIDI 01
039.785;000.072;65;000.414;MIDI 01
039.635;000.284;81;000.414;MIDI 01
039.781;000.144;76;000.391;MIDI 01
039.904;000.081;77;000.492;MIDI 01
039.449;000.542;85;000.438;MIDI 01
039.811;000.234;59;000.328;MIDI 01
040.022;000.031;66;000.391;MIDI 01
040.050;000.048;59;000.023;MIDI 01
040.072;000.101;78;000.523;MIDI 01
040.188;000.130;81;000.469;MIDI 01
039.995;000.331;85;000.125;MIDI 01
040.301;000.058;37;000.492;MIDI 01
040.348;000.134;80;000.281;MIDI 01
040.326;000.167;87;000.523;MIDI 01
040.474;000.144;83;000.492;MIDI 01
040.639;000.043;62;000.422;MIDI 01
040.641;000.260;79;000.445;MIDI 01
040.616;000.312;67;000.516;MIDI 01
040.935;000.025;66;000.445;MIDI 01
040.663;000.299;59;000.430;MIDI 01
040.632;000.418;86;000.555;MIDI 01
040.933;000.120;78;000.453;MIDI 01
041.068;000.119;82;000.508;MIDI 01
041.184;000.036;31;000.594;MIDI 01
041.190;000.038;43;000.516;MIDI 01
041.209;000.110;77;000.477;MIDI 01
041.347;000.186;81;000.555;MIDI 01
041.471;000.074;76;000.594;MIDI 01
041.484;000.077;65;000.570;MIDI 01
041.622;000.034;76;000.305;MIDI 01
041.596;000.062;77;000.602;MIDI 01
041.709;000.027;66;000.422;MIDI 01
041.497;000.245;59;000.492;MIDI 01
041.753;000.105;78;000.633;MIDI 01
041.201;000.799;85;000.547;MIDI 01
041.970;000.044;37;000.602;MIDI 01
041.881;000.141;81;000.445;MIDI 01
042.008;000.094;80;000.477;MIDI 01
042.144;000.046;79;000.508;MIDI 01
041.993;000.232;87;000.617;MIDI 01
042.138;000.143;83;000.586;MIDI 01
042.280;000.039;62;000.445;MIDI 01
042.247;000.189;87;000.398;MIDI 01
042.260;000.180;67;000.648;MIDI 01
042.284;000.166;80;000.594;MIDI 01
042.273;000.230;59;000.523;MIDI 01
042.407;000.254;82;000.641;MIDI 01
042.519;000.209;66;000.586;MIDI 01
042.753;000.029;86;000.438;MIDI 01
042.723;000.061;88;000.562;MIDI 01
042.763;000.066;71;000.594;MIDI 01
042.750;000.206;65;000.625;MIDI 01
042.913;000.073;86;000.594;MIDI 01
042.947;000.062;71;000.148;MIDI 01
042.960;000.059;65;000.023;MIDI 01
043.044;000.067;82;000.656;MIDI 01
043.059;000.224;64;000.578;MIDI 01
043.013;000.304;71;000.047;MIDI 01
043.163;000.172;83;000.680;MIDI 01
043.306;000.058;63;000.625;MIDI 01
043.303;000.171;87;000.773;MIDI 01
043.451;000.070;92;000.758;MIDI 01
043.685;000.028;79;000.656;MIDI 01
043.686;000.027;81;000.656;MIDI 01
043.694;000.022;87;000.617;MIDI 01
043.678;000.040;91;000.766;MIDI 01
043.692;000.042;41;000.680;MIDI 01
043.691;000.045;29;000.664;MIDI 01
043.799;000.033;81;000.656;MIDI 01
043.793;000.044;79;000.688;MIDI 01
043.795;000.044;91;000.773;MIDI 01
043.850;000.002;85;000.266;MIDI 01
043.817;000.039;41;000.648;MIDI 01
043.797;000.061;87;000.664;MIDI 01
043.836;000.029;29;000.492;MIDI 01
043.924;000.038;29;000.602;MIDI 01
043.939;000.027;87;000.570;MIDI 01
043.930;000.042;41;000.539;MIDI 01
043.928;000.046;91;000.781;MIDI 01
043.934;000.042;81;000.570;MIDI 01
043.936;000.042;79;000.633;MIDI 01
043.986;000.029;40;000.133;MIDI 01
044.216;000.031;69;000.672;MIDI 01
044.220;000.028;66;000.648;MIDI 01
044.218;000.034;71;000.594;MIDI 01
044.222;000.033;62;000.617;MIDI 01
044.263;000.002;70;000.258;MIDI 01
044.211;000.060;74;000.648;MIDI 01
044.225;000.056;78;000.656;MIDI 01
044.232;000.054;59;000.570;MIDI 01
044.529;000.025;79;000.719;MIDI 01
044.542;000.017;91;000.617;MIDI 01
044.534;000.025;85;000.680;MIDI 01
044.536;000.025;89;000.680;MIDI 01
044.532;000.038;27;000.695;MIDI 01
044.550;000.022;81;000.539;MIDI 01
044.526;000.048;39;000.711;MIDI 01
044.553;000.022;77;000.523;MIDI 01
044.566;000.041;37;000.391;MIDI 01
044.646;000.031;77;000.695;MIDI 01
044.643;000.036;79;000.609;MIDI 01
044.648;000.043;89;000.750;MIDI 01
044.671;000.031;39;000.672;MIDI 01
044.644;000.060;85;000.711;MIDI 01
044.676;000.033;27;000.500;MIDI 01
044.758;000.054;27;000.648;MIDI 01
044.780;000.039;85;000.648;MIDI 01
044.772;000.048;89;000.750;MIDI 01
044.778;000.044;79;000.703;MIDI 01
044.768;000.066;39;000.648;MIDI 01
044.831;000.002;88;000.211;MIDI 01
044.776;000.071;77;000.633;MIDI 01
045.046;000.023;69;000.734;MIDI 01
045.044;000.027;64;000.695;MIDI 01
045.050;000.023;60;000.641;MIDI 01
045.052;000.026;72;000.680;MIDI 01
045.048;000.042;57;000.664;MIDI 01
045.042;000.054;76;000.734;MIDI 01
045.358;000.026;81;000.703;MIDI 01
045.361;000.025;87;000.719;MIDI 01
045.372;000.017;83;000.609;MIDI 01
045.357;000.033;93;000.773;MIDI 01
045.372;000.033;41;000.711;MIDI 01
045.374;000.033;29;000.695;MIDI 01
045.489;000.025;93;000.602;MIDI 01
045.486;000.033;79;000.188;MIDI 01
045.496;000.027;91;000.602;MIDI 01
045.473;000.052;81;000.758;MIDI 01
045.496;000.032;29;000.570;MIDI 01
045.478;000.055;87;000.750;MIDI 01
045.484;000.053;41;000.648;MIDI 01
045.600;000.031;29;000.656;MIDI 01
045.611;000.021;81;000.641;MIDI 01
045.606;000.031;79;000.656;MIDI 01
045.614;000.028;87;000.531;MIDI 01
045.585;000.060;91;000.727;MIDI 01
045.609;000.039;41;000.586;MIDI 01
045.860;000.022;69;000.688;MIDI 01
045.864;000.030;71;000.648;MIDI 01
045.872;000.027;66;000.672;MIDI 01
045.866;000.034;62;000.648;MIDI 01
045.879;000.027;70;000.398;MIDI 01
045.849;000.060;73;000.727;MIDI 01
045.858;000.053;78;000.742;MIDI 01
045.885;000.029;74;000.508;MIDI 01
045.882;000.042;59;000.547;MIDI 01
046.174;000.020;89;000.742;MIDI 01
046.172;000.024;79;000.727;MIDI 01
046.184;000.018;77;000.625;MIDI 01
046.178;000.025;85;000.680;MIDI 01
046.176;000.046;27;000.703;MIDI 01
046.168;000.059;39;000.750;MIDI 01
046.278;000.046;79;000.695;MIDI 01
046.276;000.048;89;000.734;MIDI 01
046.274;000.055;77;000.711;MIDI 01
046.280;000.058;85;000.719;MIDI 01
046.314;000.035;39;000.578;MIDI 01
046.330;000.029;27;000.461;MIDI 01
046.416;000.041;89;000.758;MIDI 01
046.425;000.035;27;000.586;MIDI 01
046.432;000.028;85;000.617;MIDI 01
046.429;000.033;79;000.641;MIDI 01
046.419;000.055;39;000.680;MIDI 01
046.432;000.050;77;000.602;MIDI 01
046.699;000.027;69;000.695;MIDI 01
046.701;000.029;64;000.648;MIDI 01
046.709;000.026;60;000.578;MIDI 01
046.703;000.034;72;000.617;MIDI 01
046.708;000.046;57;000.633;MIDI 01
046.697;000.058;76;000.688;MIDI 01
047.119;000.040;41;000.414;MIDI 01
047.110;000.069;53;000.438;MIDI 01
047.098;000.084;69;000.422;MIDI 01
047.083;000.107;67;000.445;MIDI 01
047.092;000.115;72;000.422;MIDI 01
047.080;000.138;79;000.578;MIDI 01
047.082;000.185;75;000.414;MIDI 01
047.378;000.035;71;000.547;MIDI 01
047.389;000.037;59;000.477;MIDI 01
047.376;000.054;68;000.578;MIDI 01
047.396;000.034;75;000.328;MIDI 01
047.400;000.032;47;000.469;MIDI 01
047.373;000.076;78;000.539;MIDI 01
047.383;000.082;80;000.570;MIDI 01
047.631;000.027;43;000.594;MIDI 01
047.628;000.039;71;000.625;MIDI 01
047.635;000.033;55;000.516;MIDI 01
047.625;000.046;69;000.570;MIDI 01
047.619;000.073;74;000.562;MIDI 01
047.621;000.096;81;000.703;MIDI 01
047.633;000.150;77;000.531;MIDI 01
047.860;000.029;70;000.695;MIDI 01
047.861;000.038;61;000.656;MIDI 01
047.872;000.033;73;000.570;MIDI 01
047.875;000.034;77;000.438;MIDI 01
047.868;000.045;49;000.648;MIDI 01
047.864;000.086;80;000.633;MIDI 01
047.870;000.091;82;000.641;MIDI 01
048.115;000.027;71;000.680;MIDI 01
048.117;000.029;57;000.664;MIDI 01
048.119;000.031;45;000.695;MIDI 01
048.093;000.067;76;000.500;MIDI 01
048.140;000.022;81;000.523;MIDI 01
048.110;000.057;73;000.633;MIDI 01
048.121;000.067;83;000.672;MIDI 01
048.312;000.040;82;000.227;MIDI 01
048.372;000.028;63;000.703;MIDI 01
048.382;000.026;72;000.617;MIDI 01
048.375;000.041;75;000.711;MIDI 01
048.389;000.032;79;000.531;MIDI 01
048.378;000.051;51;000.727;MIDI 01
048.410;000.035;78;000.336;MIDI 01
048.382;000.066;82;000.484;MIDI 01
048.385;000.065;84;000.625;MIDI 01
048.415;000.038;80;000.391;MIDI 01
048.704;000.022;76;000.758;MIDI 01
048.714;000.021;82;000.656;MIDI 01
048.708;000.029;86;000.719;MIDI 01
048.716;000.028;36;000.672;MIDI 01
048.711;000.034;48;000.750;MIDI 01
048.708;000.050;88;000.742;MIDI 01
048.818;000.036;76;000.773;MIDI 01
048.822;000.038;88;000.672;MIDI 01
048.828;000.033;86;000.719;MIDI 01
048.830;000.038;48;000.617;MIDI 01
048.835;000.034;36;000.547;MIDI 01
048.815;000.067;82;000.672;MIDI 01
048.943;000.028;48;000.656;MIDI 01
048.941;000.034;36;000.703;MIDI 01
048.951;000.030;86;000.609;MIDI 01
048.947;000.039;88;000.695;MIDI 01
048.945;000.054;76;000.727;MIDI 01
048.935;000.068;82;000.625;MIDI 01
049.208;000.025;63;000.773;MIDI 01
049.209;000.025;66;000.734;MIDI 01
049.211;000.028;70;000.727;MIDI 01
049.216;000.030;73;000.656;MIDI 01
049.221;000.029;61;000.602;MIDI 01
049.224;000.036;58;000.578;MIDI 01
049.219;000.045;54;000.562;MIDI 01
049.212;000.055;75;000.711;MIDI 01
049.306;000.025;66;000.328;MIDI 01
049.514;000.023;74;000.664;MIDI 01
049.508;000.031;84;000.688;MIDI 01
049.520;000.021;76;000.602;MIDI 01
049.508;000.034;86;000.695;MIDI 01
049.511;000.034;46;000.703;MIDI 01
049.518;000.033;34;000.664;MIDI 01
049.536;000.032;81;000.406;MIDI 01
049.625;000.032;86;000.703;MIDI 01
049.624;000.039;84;000.672;MIDI 01
049.618;000.047;80;000.547;MIDI 01
049.616;000.054;74;000.758;MIDI 01
049.641;000.030;34;000.555;MIDI 01
049.633;000.040;46;000.648;MIDI 01
049.743;000.036;34;000.711;MIDI 01
049.747;000.035;46;000.648;MIDI 01
049.768;000.020;84;000.562;MIDI 01
049.758;000.031;74;000.656;MIDI 01
049.758;000.044;80;000.672;MIDI 01
049.749;000.064;86;000.758;MIDI 01
050.027;000.028;64;000.664;MIDI 01
050.031;000.033;68;000.594;MIDI 01
050.039;000.033;61;000.648;MIDI 01
050.077;000.001;71;000.320;MIDI 01
050.034;000.044;72;000.531;MIDI 01
050.024;000.062;73;000.680;MIDI 01
050.036;000.060;59;000.633;MIDI 01
050.054;000.046;56;000.531;MIDI 01
050.047;000.058;52;000.555;MIDI 01
050.441;000.110;62;000.438;MIDI 01
050.462;000.138;58;000.414;MIDI 01
050.506;000.107;48;000.297;MIDI 01
050.456;000.335;36;000.344;MIDI 01
050.432;000.367;64;000.375;MIDI 01
050.796;000.050;58;000.344;MIDI 01
050.798;000.058;61;000.430;MIDI 01
050.833;000.048;49;000.430;MIDI 01
050.842;000.083;42;000.320;MIDI 01
050.816;000.234;65;000.461;MIDI 01
051.068;000.035;38;000.477;MIDI 01
051.080;000.033;50;000.367;MIDI 01
051.086;000.039;64;000.422;MIDI 01
051.070;000.057;60;000.508;MIDI 01
051.066;000.064;66;000.523;MIDI 01
051.344;000.024;63;000.500;MIDI 01
051.348;000.027;60;000.461;MIDI 01
051.344;000.033;69;000.531;MIDI 01
051.351;000.034;44;000.438;MIDI 01
051.359;000.036;54;000.367;MIDI 01
051.468;000.031;60;000.492;MIDI 01
051.462;000.042;69;000.516;MIDI 01
051.466;000.043;63;000.523;MIDI 01
051.473;000.041;44;000.570;MIDI 01
051.480;000.039;54;000.562;MIDI 01
051.591;000.040;60;000.539;MIDI 01
051.598;000.035;63;000.508;MIDI 01
051.597;000.039;69;000.523;MIDI 01
051.604;000.034;44;000.469;MIDI 01
051.906;000.049;68;000.445;MIDI 01
051.914;000.047;64;000.398;MIDI 01
051.911;000.051;59;000.328;MIDI 01
051.941;000.036;49;000.344;MIDI 01
051.938;000.046;53;000.227;MIDI 01
052.266;000.066;62;000.359;MIDI 01
052.268;000.153;56;000.352;MIDI 01
052.291;000.161;47;000.305;MIDI 01
052.281;000.174;40;000.352;MIDI 01
052.270;000.305;67;000.344;MIDI 01
052.589;000.031;57;000.430;MIDI 01
052.582;000.044;52;000.406;MIDI 01
052.586;000.042;61;000.453;MIDI 01
052.599;000.033;45;000.430;MIDI 01
052.591;000.083;68;000.484;MIDI 01
052.844;000.029;49;000.477;MIDI 01
052.847;000.028;64;000.469;MIDI 01
052.852;000.025;71;000.484;MIDI 01
052.858;000.044;42;000.359;MIDI 01
053.100;000.025;72;000.578;MIDI 01
053.105;000.022;65;000.539;MIDI 01
053.097;000.032;47;000.578;MIDI 01
053.103;000.029;57;000.516;MIDI 01
053.118;000.032;61;000.430;MIDI 01
053.214;000.032;72;000.602;MIDI 01
053.223;000.031;65;000.516;MIDI 01
053.230;000.033;47;000.477;MIDI 01
053.234;000.034;57;000.531;MIDI 01
053.246;000.032;61;000.430;MIDI 01
053.346;000.031;65;000.562;MIDI 01
053.337;000.041;72;000.578;MIDI 01
053.349;000.042;47;000.570;MIDI 01
053.351;000.043;57;000.547;MIDI 01
053.367;000.029;61;000.469;MIDI 01
053.641;000.024;71;000.516;MIDI 01
053.651;000.028;60;000.430;MIDI 01
053.653;000.030;66;000.398;MIDI 01
053.654;000.032;56;000.477;MIDI 01
053.649;000.041;44;000.484;MIDI 01
053.984;000.058;64;000.375;MIDI 01
053.969;000.081;60;000.492;MIDI 01
053.961;000.125;66;000.477;MIDI 01
053.990;000.183;50;000.367;MIDI 01
054.177;000.069;50;000.023;MIDI 01
053.964;000.303;69;000.508;MIDI 01
054.267;000.045;59;000.570;MIDI 01
054.283;000.047;65;000.469;MIDI 01
054.288;000.071;55;000.477;MIDI 01
054.274;000.197;70;000.586;MIDI 01
054.531;000.030;58;000.547;MIDI 01
054.541;000.035;64;000.484;MIDI 01
054.535;000.197;71;000.664;MIDI 01
054.549;000.205;48;000.508;MIDI 01
054.794;000.027;41;000.602;MIDI 01
054.796;000.065;63;000.680;MIDI 01
054.802;000.135;68;000.617;MIDI 01
055.058;000.030;68;000.539;MIDI 01
055.061;000.047;46;000.617;MIDI 01
055.046;000.069;62;000.711;MIDI 01
055.067;000.068;34;000.594;MIDI 01
055.055;000.142;73;000.680;MIDI 01
054.804;000.417;72;000.594;MIDI 01
055.317;000.028;61;000.664;MIDI 01
055.309;000.046;67;000.609;MIDI 01
055.315;000.234;39;000.617;MIDI 01
055.319;000.240;74;000.734;MIDI 01
055.590;000.031;44;000.688;MIDI 01
055.592;000.042;32;000.672;MIDI 01
055.582;000.073;66;000.703;MIDI 01
055.584;000.145;71;000.656;MIDI 01
055.585;000.218;75;000.680;MIDI 01
055.858;000.032;37;000.656;MIDI 01
055.850;000.044;49;000.703;MIDI 01
055.870;000.035;77;000.609;MIDI 01
055.843;000.072;71;000.484;MIDI 01
055.855;000.060;65;000.703;MIDI 01
055.866;000.116;76;000.633;MIDI 01
056.118;000.034;64;000.586;MIDI 01
056.111;000.043;73;000.023;MIDI 01
056.126;000.032;42;000.672;MIDI 01
056.123;000.037;70;000.547;MIDI 01
056.119;000.047;54;000.711;MIDI 01
056.152;000.030;76;000.438;MIDI 01
056.130;000.205;77;000.688;MIDI 01
056.408;000.052;69;000.742;MIDI 01
056.413;000.050;47;000.664;MIDI 01
056.415;000.052;54;000.609;MIDI 01
056.407;000.061;59;000.727;MIDI 01
056.421;000.065;74;000.641;MIDI 01
056.410;000.151;78;000.781;MIDI 01
056.719;000.035;68;000.750;MIDI 01
056.717;000.058;74;000.625;MIDI 01
056.723;000.054;52;000.609;MIDI 01
056.725;000.054;62;000.742;MIDI 01
056.729;000.053;58;000.648;MIDI 01
056.721;000.068;79;000.703;MIDI 01
056.934;000.031;80;000.328;MIDI 01
057.061;000.022;73;000.742;MIDI 01
057.056;000.046;79;000.734;MIDI 01
057.058;000.045;84;000.773;MIDI 01
057.059;000.046;67;000.734;MIDI 01
057.064;000.048;57;000.602;MIDI 01
057.056;000.055;63;000.586;MIDI 01
057.416;000.031;69;000.641;MIDI 01
057.426;000.026;77;000.734;MIDI 01
057.429;000.025;72;000.688;MIDI 01
057.417;000.040;62;000.617;MIDI 01
057.426;000.032;83;000.766;MIDI 01
057.421;000.039;65;000.578;MIDI 01
057.431;000.030;74;000.664;MIDI 01
057.526;000.043;74;000.562;MIDI 01
057.520;000.053;72;000.766;MIDI 01
057.551;000.024;76;000.547;MIDI 01
057.522;000.061;83;000.703;MIDI 01
057.532;000.058;77;000.617;MIDI 01
057.543;000.051;65;000.547;MIDI 01
057.541;000.059;69;000.695;MIDI 01
057.540;000.065;62;000.672;MIDI 01
057.656;000.040;72;000.672;MIDI 01
057.668;000.030;65;000.523;MIDI 01
057.649;000.051;74;000.609;MIDI 01
057.645;000.058;83;000.625;MIDI 01
057.669;000.039;62;000.555;MIDI 01
057.652;000.056;77;000.594;MIDI 01
057.931;000.024;58;000.797;MIDI 01
057.934;000.033;61;000.688;MIDI 01
057.943;000.029;63;000.602;MIDI 01
057.955;000.038;50;000.688;MIDI 01
057.935;000.065;66;000.625;MIDI 01
057.976;000.030;57;000.539;MIDI 01
058.125;000.038;57;000.266;MIDI 01
058.236;000.030;59;000.750;MIDI 01
058.239;000.030;62;000.664;MIDI 01
058.241;000.034;64;000.656;MIDI 01
058.245;000.043;69;000.664;MIDI 01
058.256;000.033;50;000.633;MIDI 01
058.269;000.038;43;000.594;MIDI 01
058.318;000.002;45;000.234;MIDI 01
058.355;000.028;59;000.711;MIDI 01
058.357;000.039;62;000.664;MIDI 01
058.360;000.043;64;000.664;MIDI 01
058.353;000.053;69;000.648;MIDI 01
058.381;000.033;50;000.633;MIDI 01
058.427;000.032;43;000.297;MIDI 01
058.476;000.027;59;000.680;MIDI 01
058.483;000.030;62;000.672;MIDI 01
058.490;000.031;50;000.664;MIDI 01
058.481;000.042;64;000.594;MIDI 01
058.487;000.049;43;000.391;MIDI 01
058.470;000.087;69;000.609;MIDI 01
058.781;000.022;76;000.805;MIDI 01
058.793;000.018;74;000.688;MIDI 01
058.790;000.023;70;000.703;MIDI 01
058.790;000.028;82;000.672;MIDI 01
058.779;000.039;88;000.742;MIDI 01
058.795;000.031;73;000.688;MIDI 01
058.784;000.050;86;000.727;MIDI 01
058.783;000.065;85;000.688;MIDI 01
058.773;000.085;62;000.648;MIDI 01
058.850;000.041;83;000.289;MIDI 01
059.086;000.027;69;000.617;MIDI 01
059.095;000.028;77;000.719;MIDI 01
059.106;000.023;62;000.508;MIDI 01
059.101;000.028;83;000.711;MIDI 01
059.104;000.027;74;000.664;MIDI 01
059.115;000.020;60;000.492;MIDI 01
059.115;000.022;72;000.648;MIDI 01
059.115;000.024;65;000.422;MIDI 01
059.205;000.041;72;000.625;MIDI 01
059.200;000.048;74;000.734;MIDI 01
059.216;000.034;65;000.664;MIDI 01
059.209;000.049;62;000.695;MIDI 01
059.203;000.057;83;000.742;MIDI 01
059.207;000.055;69;000.695;MIDI 01
059.211;000.057;77;000.719;MIDI 01
059.336;000.030;69;000.664;MIDI 01
059.351;000.028;72;000.641;MIDI 01
059.349;000.031;74;000.664;MIDI 01
059.353;000.029;65;000.594;MIDI 01
059.340;000.059;77;000.664;MIDI 01
059.342;000.059;83;000.688;MIDI 01
059.348;000.057;62;000.617;MIDI 01
059.638;000.025;58;000.695;MIDI 01
059.635;000.033;61;000.656;MIDI 01
059.640;000.039;63;000.617;MIDI 01
059.649;000.045;50;000.672;MIDI 01
059.633;000.065;66;000.688;MIDI 01
059.735;000.031;58;000.352;MIDI 01
059.945;000.028;62;000.695;MIDI 01
059.947;000.028;64;000.641;MIDI 01
059.943;000.034;59;000.727;MIDI 01
059.953;000.036;50;000.625;MIDI 01
059.952;000.048;69;000.672;MIDI 01
059.961;000.045;43;000.625;MIDI 01
060.066;000.029;59;000.688;MIDI 01
060.072;000.029;62;000.641;MIDI 01
060.068;000.044;64;000.656;MIDI 01
060.077;000.042;50;000.625;MIDI 01
060.064;000.062;69;000.633;MIDI 01
060.093;000.041;43;000.477;MIDI 01
060.190;000.017;59;000.680;MIDI 01
060.183;000.033;50;000.562;MIDI 01
060.194;000.025;62;000.641;MIDI 01
060.192;000.029;43;000.570;MIDI 01
060.199;000.028;64;000.586;MIDI 01
060.179;000.078;69;000.586;MIDI 01
060.283;000.029;59;000.328;MIDI 01
060.328;000.040;43;000.109;MIDI 01
060.517;000.032;70;000.703;MIDI 01
060.525;000.024;74;000.727;MIDI 01
060.523;000.027;76;000.688;MIDI 01
060.534;000.024;73;000.680;MIDI 01
060.509;000.070;88;000.750;MIDI 01
060.517;000.069;82;000.719;MIDI 01
060.521;000.072;86;000.688;MIDI 01
060.519;000.076;85;000.703;MIDI 01
060.513;000.084;62;000.656;MIDI 01
060.635;000.027;73;000.258;MIDI 01
060.616;000.062;69;000.055;MIDI 01
060.948;000.161;43;000.602;MIDI 01
060.959;000.164;50;000.508;MIDI 01
061.123;000.077;71;000.453;MIDI 01
061.127;000.191;62;000.469;MIDI 01
061.118;000.236;74;000.594;MIDI 01
061.324;000.066;50;000.391;MIDI 01
061.294;000.145;64;000.594;MIDI 01
061.346;000.094;59;000.406;MIDI 01
061.428;000.069;66;000.648;MIDI 01
061.549;000.129;67;000.594;MIDI 01
061.545;000.161;74;000.664;MIDI 01
061.670;000.061;71;000.680;MIDI 01
061.799;000.122;62;000.547;MIDI 01
061.802;000.193;69;000.656;MIDI 01
061.913;000.085;71;000.594;MIDI 01
061.926;000.166;74;000.594;MIDI 01
062.079;000.038;64;000.414;MIDI 01
062.087;000.033;59;000.477;MIDI 01
062.090;000.131;76;000.555;MIDI 01
062.236;000.128;78;000.586;MIDI 01
062.421;000.026;74;000.484;MIDI 01
062.419;000.043;71;000.469;MIDI 01
062.422;000.090;79;000.578;MIDI 01
062.605;000.092;83;000.523;MIDI 01
062.898;000.036;62;000.375;MIDI 01
062.902;000.034;76;000.469;MIDI 01
062.907;000.036;81;000.469;MIDI 01
062.900;000.048;88;000.492;MIDI 01
062.909;000.040;57;000.359;MIDI 01
063.044;000.026;76;000.500;MIDI 01
063.039;000.040;88;000.523;MIDI 01
063.044;000.043;81;000.547;MIDI 01
063.202;000.034;50;000.477;MIDI 01
063.206;000.033;43;000.453;MIDI 01
063.184;000.061;88;000.531;MIDI 01
063.191;000.064;81;000.516;MIDI 01
063.196;000.060;76;000.414;MIDI 01
063.553;000.030;79;000.336;MIDI 01
063.555;000.041;74;000.297;MIDI 01
063.527;000.115;59;000.336;MIDI 01
063.534;000.115;86;000.516;MIDI 01
063.656;000.039;83;000.555;MIDI 01
063.516;000.190;64;000.453;MIDI 01
063.791;000.024;76;000.492;MIDI 01
063.793;000.024;88;000.500;MIDI 01
063.783;000.035;81;000.594;MIDI 01
063.907;000.044;88;000.586;MIDI 01
063.910;000.043;76;000.570;MIDI 01
063.552;000.407;55;000.375;MIDI 01
063.904;000.067;81;000.594;MIDI 01
064.078;000.031;76;000.453;MIDI 01
064.080;000.055;81;000.539;MIDI 01
064.068;000.080;88;000.609;MIDI 01
064.076;000.091;65;000.477;MIDI 01
064.059;000.132;69;000.641;MIDI 01
064.070;000.128;59;000.539;MIDI 01
064.384;000.042;74;000.531;MIDI 01
064.391;000.042;79;000.523;MIDI 01
064.376;000.127;86;000.672;MIDI 01
064.501;000.058;83;000.641;MIDI 01
064.633;000.041;76;000.688;MIDI 01
064.639;000.037;81;000.664;MIDI 01
064.644;000.038;57;000.484;MIDI 01
064.649;000.032;62;000.438;MIDI 01
064.641;000.041;88;000.664;MIDI 01
064.654;000.046;53;000.516;MIDI 01
064.775;000.037;76;000.680;MIDI 01
064.780;000.046;88;000.641;MIDI 01
064.773;000.067;81;000.656;MIDI 01
064.907;000.051;43;000.602;MIDI 01
064.905;000.072;50;000.586;MIDI 01
064.920;000.077;76;000.609;MIDI 01
064.923;000.076;88;000.633;MIDI 01
064.926;000.111;81;000.625;MIDI 01
065.235;000.036;74;000.586;MIDI 01
065.228;000.049;79;000.609;MIDI 01
065.230;000.107;86;000.664;MIDI 01
065.235;000.124;59;000.508;MIDI 01
065.220;000.185;64;000.648;MIDI 01
065.358;000.057;83;000.672;MIDI 01
065.490;000.030;76;000.672;MIDI 01
065.492;000.035;81;000.680;MIDI 01
065.487;000.055;88;000.688;MIDI 01
065.231;000.367;55;000.547;MIDI 01
065.618;000.053;76;000.680;MIDI 01
065.616;000.061;88;000.641;MIDI 01
065.623;000.059;81;000.719;MIDI 01
065.778;000.031;76;000.695;MIDI 01
065.772;000.055;69;000.688;MIDI 01
065.770;000.060;65;000.625;MIDI 01
065.768;000.079;88;000.742;MIDI 01
065.778;000.090;59;000.617;MIDI 01
065.774;000.106;81;000.664;MIDI 01
066.116;000.072;74;000.688;MIDI 01
066.111;000.101;79;000.672;MIDI 01
066.114;000.181;86;000.766;MIDI 01
066.254;000.098;83;000.672;MIDI 01
066.431;000.031;40;000.578;MIDI 01
066.431;000.031;47;000.602;MIDI 01
066.439;000.029;80;000.711;MIDI 01
066.441;000.032;76;000.688;MIDI 01
066.444;000.038;88;000.734;MIDI 01
066.560;000.042;76;000.680;MIDI 01
066.562;000.051;88;000.688;MIDI 01
066.565;000.051;80;000.695;MIDI 01
066.715;000.023;76;000.703;MIDI 01
066.714;000.045;88;000.789;MIDI 01
066.726;000.033;59;000.469;MIDI 01
066.714;000.049;80;000.750;MIDI 01
066.719;000.046;62;000.570;MIDI 01
066.724;000.147;54;000.602;MIDI 01
066.834;000.045;76;000.180;MIDI 01
067.029;000.037;64;000.531;MIDI 01
067.041;000.034;62;000.305;MIDI 01
067.052;000.028;74;000.680;MIDI 01
067.068;000.020;88;000.602;MIDI 01
067.046;000.043;56;000.570;MIDI 01
067.057;000.040;86;000.594;MIDI 01
067.050;000.052;78;000.719;MIDI 01
067.177;000.048;83;000.711;MIDI 01
067.305;000.023;76;000.719;MIDI 01
067.307;000.025;80;000.742;MIDI 01
067.312;000.026;88;000.625;MIDI 01
067.309;000.031;47;000.594;MIDI 01
067.317;000.028;38;000.609;MIDI 01
067.419;000.045;76;000.578;MIDI 01
067.424;000.045;80;000.742;MIDI 01
067.422;000.049;88;000.695;MIDI 01
067.573;000.019;88;000.711;MIDI 01
067.576;000.018;76;000.641;MIDI 01
067.568;000.032;80;000.766;MIDI 01
067.582;000.055;62;000.586;MIDI 01
067.582;000.168;54;000.625;MIDI 01
067.871;000.041;64;000.539;MIDI 01
067.891;000.039;74;000.672;MIDI 01
067.883;000.058;56;000.438;MIDI 01
067.888;000.138;78;000.680;MIDI 01
068.002;000.027;74;000.414;MIDI 01
067.892;000.159;86;000.711;MIDI 01
068.008;000.075;83;000.641;MIDI 01
068.153;000.045;47;000.711;MIDI 01
068.160;000.042;40;000.688;MIDI 01
068.312;000.027;89;000.641;MIDI 01
068.300;000.056;76;000.625;MIDI 01
068.305;000.105;80;000.656;MIDI 01
068.308;000.122;88;000.570;MIDI 01
068.465;000.031;60;000.391;MIDI 01
068.486;000.036;62;000.359;MIDI 01
068.489;000.034;64;000.344;MIDI 01
068.445;000.086;83;000.609;MIDI 01
068.504;000.039;55;000.352;MIDI 01
068.571;000.072;78;000.625;MIDI 01
068.588;000.141;85;000.602;MIDI 01
068.722;000.034;62;000.422;MIDI 01
068.724;000.035;64;000.398;MIDI 01
068.741;000.045;81;000.469;MIDI 01
068.745;000.042;80;000.406;MIDI 01
068.743;000.046;56;000.297;MIDI 01
068.770;000.036;57;000.344;MIDI 01
068.832;000.064;78;000.648;MIDI 01
068.849;000.078;74;000.508;MIDI 01
069.006;000.033;47;000.578;MIDI 01
069.010;000.032;40;000.578;MIDI 01
068.994;000.122;73;000.695;MIDI 01
069.167;000.029;68;000.516;MIDI 01
069.133;000.100;76;000.672;MIDI 01
069.303;000.045;62;000.523;MIDI 01
069.282;000.116;71;000.594;MIDI 01
069.309;000.133;54;000.516;MIDI 01
069.416;000.042;66;000.625;MIDI 01
069.569;000.032;64;000.445;MIDI 01
069.590;000.042;56;000.438;MIDI 01
069.420;000.226;73;000.641;MIDI 01
069.630;000.134;68;000.484;MIDI 01
069.755;000.046;66;000.508;MIDI 01
070.002;000.093;33;000.453;MIDI 01
069.997;000.136;45;000.406;MIDI 01
069.991;000.197;60;000.469;MIDI 01
069.995;000.195;55;000.430;MIDI 01
069.993;000.215;64;000.461;MIDI 01
070.366;000.093;55;000.500;MIDI 01
070.382;000.203;52;000.438;MIDI 01
070.502;000.111;57;000.562;MIDI 01
070.374;000.296;45;000.414;MIDI 01
070.653;000.035;48;000.453;MIDI 01
070.635;000.064;60;000.570;MIDI 01
070.650;000.056;55;000.492;MIDI 01
070.770;000.074;64;000.641;MIDI 01
070.912;000.032;59;000.633;MIDI 01
070.910;000.038;52;000.586;MIDI 01
070.907;000.083;67;000.664;MIDI 01
071.189;000.035;60;000.570;MIDI 01
071.179;000.054;67;000.664;MIDI 01
071.183;000.072;69;000.695;MIDI 01
071.312;000.079;72;000.773;MIDI 01
071.467;000.034;71;000.531;MIDI 01
071.446;000.060;76;000.781;MIDI 01
071.465;000.046;64;000.570;MIDI 01
071.598;000.027;81;000.562;MIDI 01
071.581;000.062;79;000.633;MIDI 01
071.716;000.032;72;000.688;MIDI 01
071.730;000.020;74;000.594;MIDI 01
071.718;000.059;83;000.672;MIDI 01
072.022;000.018;72;000.695;MIDI 01
072.018;000.041;71;000.656;MIDI 01
072.014;000.053;76;000.609;MIDI 01
072.011;000.057;79;000.719;MIDI 01
072.020;000.056;64;000.641;MIDI 01
072.009;000.068;57;000.555;MIDI 01
072.017;000.062;67;000.648;MIDI 01
072.028;000.053;84;000.617;MIDI 01
072.024;000.071;83;000.539;MIDI 01
072.026;000.076;86;000.672;MIDI 01
072.067;000.043;60;000.219;MIDI 01
072.603;000.025;72;000.688;MIDI 01
072.591;000.048;71;000.680;MIDI 01
072.589;000.062;76;000.719;MIDI 01
072.586;000.068;57;000.578;MIDI 01
072.600;000.056;64;000.648;MIDI 01
072.599;000.059;67;000.641;MIDI 01
072.628;000.032;60;000.367;MIDI 01
072.599;000.064;79;000.695;MIDI 01
072.593;000.076;86;000.703;MIDI 01
072.601;000.080;83;000.656;MIDI 01
073.223;000.026;72;000.719;MIDI 01
073.255;000.002;80;000.273;MIDI 01
073.215;000.047;71;000.648;MIDI 01
073.268;000.002;82;000.320;MIDI 01
073.237;000.035;60;000.500;MIDI 01
073.203;000.077;57;000.547;MIDI 01
073.205;000.077;76;000.734;MIDI 01
073.213;000.072;64;000.648;MIDI 01
073.208;000.079;67;000.680;MIDI 01
073.217;000.075;79;000.680;MIDI 01
073.210;000.084;86;000.711;MIDI 01
073.223;000.091;83;000.641;MIDI 01
073.883;000.036;59;000.703;MIDI 01
073.888;000.052;60;000.664;MIDI 01
073.879;000.065;50;000.703;MIDI 01
073.892;000.064;64;000.602;MIDI 01
073.894;000.076;67;000.656;MIDI 01
074.048;000.051;69;000.758;MIDI 01
074.109;000.001;60;000.195;MIDI 01
074.245;000.032;57;000.727;MIDI 01
074.250;000.035;55;000.703;MIDI 01
074.241;000.054;38;000.680;MIDI 01
074.248;000.048;60;000.656;MIDI 01
074.247;000.053;64;000.734;MIDI 01
074.426;000.059;62;000.766;MIDI 01
074.711;000.002;67;000.570;MIDI 01
074.693;000.027;31;000.750;MIDI 01
074.702;000.029;55;000.727;MIDI 01
074.698;000.047;59;000.758;MIDI 01
074.695;000.061;62;000.703;MIDI 01
074.858;000.022;31;000.023;MIDI 01
079.210;000.293;70;000.289;MIDI 01
079.189;000.421;74;000.359;MIDI 01
080.126;000.520;79;000.375;MIDI 01
079.161;001.489;78;000.500;MIDI 01
080.654;000.117;71;000.266;MIDI 01
080.650;000.531;75;000.438;MIDI 01
079.204;002.043;67;000.273;MIDI 01
081.213;000.303;68;000.320;MIDI 01
081.209;000.568;72;000.438;MIDI 01
081.194;001.035;76;000.539;MIDI 01
082.464;000.184;69;000.281;MIDI 01
081.236;001.454;65;000.305;MIDI 01
082.445;000.317;73;000.375;MIDI 01
081.892;001.455;77;000.367;MIDI 01
083.884;000.118;74;000.375;MIDI 01
083.909;000.175;79;000.320;MIDI 01
083.880;000.205;70;000.430;MIDI 01
083.868;000.493;78;000.547;MIDI 01
084.325;000.089;71;000.469;MIDI 01
084.323;000.469;75;000.578;MIDI 01
083.294;001.508;67;000.406;MIDI 01
084.824;000.631;68;000.391;MIDI 01
085.469;000.314;77;000.391;MIDI 01
084.835;001.065;72;000.406;MIDI 01
084.802;001.188;76;000.547;MIDI 01
086.011;000.082;69;000.320;MIDI 01
084.840;001.442;65;000.375;MIDI 01
085.987;000.454;73;000.391;MIDI 01
087.499;000.936;61;000.328;MIDI 01
088.082;000.418;73;000.359;MIDI 01
086.836;003.025;66;000.289;MIDI 01
086.800;003.278;74;000.414;MIDI 01
089.926;000.216;73;000.289;MIDI 01
086.831;003.321;70;000.367;MIDI 01
089.268;000.960;61;000.281;MIDI 01
090.868;002.458;66;000.352;MIDI 01
090.818;002.671;74;000.469;MIDI 01
092.184;001.764;70;000.391;MIDI 01
093.944;001.160;69;000.273;MIDI 01
091.441;003.733;60;000.312;MIDI 01
093.933;001.421;74;000.297;MIDI 01
092.993;002.523;50;000.195;MIDI 01
095.040;000.812;65;000.242;MIDI 01
096.944;000.282;43;000.164;MIDI 01
096.905;000.902;62;000.281;MIDI 01
097.732;000.184;58;000.266;MIDI 01
097.728;000.290;50;000.211;MIDI 01
097.711;000.573;65;000.312;MIDI 01
098.242;000.092;62;000.320;MIDI 01
098.274;000.126;53;000.250;MIDI 01
098.269;000.646;67;000.469;MIDI 01
098.844;000.242;38;000.297;MIDI 01
099.464;000.278;60;000.312;MIDI 01
099.424;000.407;52;000.266;MIDI 01
098.814;001.139;69;000.430;MIDI 01
099.902;000.053;55;000.367;MIDI 01
099.869;000.577;64;000.445;MIDI 01
100.521;000.191;43;000.234;MIDI 01
101.080;000.166;58;000.305;MIDI 01
101.075;000.241;50;000.250;MIDI 01
100.438;001.190;69;000.438;MIDI 01
101.589;000.061;62;000.305;MIDI 01
101.588;000.102;53;000.234;MIDI 01
101.594;000.234;65;000.383;MIDI 01
101.817;000.289;67;000.492;MIDI 01
102.107;000.180;38;000.328;MIDI 01
102.098;000.616;69;000.469;MIDI 01
102.703;000.796;60;000.320;MIDI 01
102.677;000.936;67;000.414;MIDI 01
102.700;000.946;52;000.266;MIDI 01
103.376;000.286;55;000.242;MIDI 01
103.362;000.502;62;000.367;MIDI 01
104.320;000.165;43;000.234;MIDI 01
104.282;000.496;62;000.352;MIDI 01
104.808;000.119;58;000.297;MIDI 01
104.192;000.777;74;000.336;MIDI 01
104.806;000.225;50;000.305;MIDI 01
104.772;000.425;65;000.453;MIDI 01
105.237;000.065;62;000.391;MIDI 01
105.167;000.165;74;000.438;MIDI 01
105.266;000.085;53;000.305;MIDI 01
105.248;000.481;67;000.484;MIDI 01
105.742;000.209;38;000.344;MIDI 01
106.246;000.287;60;000.312;MIDI 01
106.258;000.394;52;000.328;MIDI 01
106.672;000.041;55;000.422;MIDI 01
105.710;001.074;69;000.523;MIDI 01
106.256;000.689;74;000.406;MIDI 01
106.652;000.301;64;000.508;MIDI 01
107.112;000.148;74;000.406;MIDI 01
107.227;000.161;43;000.375;MIDI 01
107.626;000.141;58;000.422;MIDI 01
107.633;000.314;50;000.359;MIDI 01
107.177;000.888;69;000.547;MIDI 01
108.070;000.055;53;000.359;MIDI 01
108.072;000.091;62;000.453;MIDI 01
108.035;000.217;74;000.508;MIDI 01
108.081;000.200;65;000.508;MIDI 01
108.251;000.396;67;000.609;MIDI 01
108.504;000.545;62;000.414;MIDI 01
109.047;000.132;65;000.422;MIDI 01
108.513;000.902;69;000.594;MIDI 01
109.028;000.542;74;000.594;MIDI 01
109.566;000.035;62;000.367;MIDI 01
108.500;001.146;70;000.469;MIDI 01
109.543;000.215;77;000.594;MIDI 01
110.281;000.760;73;000.523;MIDI 01
110.263;000.781;77;000.531;MIDI 01
110.264;001.296;81;000.617;MIDI 01
111.060;000.528;82;000.414;MIDI 01
111.554;000.076;74;000.469;MIDI 01
111.556;000.547;78;000.602;MIDI 01
110.289;001.895;70;000.477;MIDI 01
112.167;000.841;71;000.477;MIDI 01
112.161;001.062;75;000.531;MIDI 01
112.155;001.299;79;000.594;MIDI 01
112.892;000.566;80;000.406;MIDI 01
112.180;001.329;68;000.461;MIDI 01
113.463;000.102;72;000.375;MIDI 01
113.451;000.229;76;000.477;MIDI 01
114.750;000.097;77;000.469;MIDI 01
114.752;000.116;73;000.492;MIDI 01
114.748;000.269;82;000.422;MIDI 01
114.737;000.491;81;000.602;MIDI 01
115.203;000.074;74;000.539;MIDI 01
115.195;000.482;78;000.641;MIDI 01
114.205;001.555;70;000.531;MIDI 01
115.719;000.750;71;000.523;MIDI 01
115.715;001.116;75;000.539;MIDI 01
115.705;001.261;79;000.586;MIDI 01
116.916;000.207;72;000.359;MIDI 01
116.399;000.754;80;000.391;MIDI 01
115.739;001.533;68;000.430;MIDI 01
116.888;000.736;76;000.500;MIDI 01
118.301;000.781;64;000.305;MIDI 01
118.889;000.351;76;000.367;MIDI 01
120.017;000.572;64;000.297;MIDI 01
120.557;000.120;76;000.320;MIDI 01
117.665;003.153;69;000.367;MIDI 01
117.657;003.186;73;000.406;MIDI 01
117.640;003.301;77;000.500;MIDI 01
121.273;002.477;69;000.344;MIDI 01
121.257;002.600;77;000.375;MIDI 01
122.577;001.648;73;000.359;MIDI 01
124.254;000.752;72;000.258;MIDI 01
121.892;003.345;63;000.211;MIDI 01
123.307;002.165;53;000.203;MIDI 01
125.277;000.286;68;000.234;MIDI 01
124.240;001.531;77;000.289;MIDI 01
127.214;000.307;46;000.180;MIDI 01
128.185;000.046;72;000.234;MIDI 01
128.104;000.303;84;000.297;MIDI 01
128.205;000.220;65;000.219;MIDI 01
128.211;000.263;61;000.195;MIDI 01
128.203;000.389;56;000.172;MIDI 01
128.557;000.072;84;000.438;MIDI 01
128.811;000.101;84;000.438;MIDI 01
128.850;000.068;66;000.312;MIDI 01
128.858;000.078;62;000.320;MIDI 01
128.873;000.130;57;000.188;MIDI 01
128.903;000.192;72;000.258;MIDI 01
129.085;000.149;84;000.477;MIDI 01
129.478;000.236;39;000.297;MIDI 01
129.439;000.647;84;000.383;MIDI 01
130.121;000.060;63;000.266;MIDI 01
130.096;000.095;58;000.305;MIDI 01
130.106;000.092;72;000.359;MIDI 01
130.099;000.107;67;000.336;MIDI 01
130.005;000.408;82;000.383;MIDI 01
130.309;000.274;79;000.438;MIDI 01
130.571;000.040;74;000.422;MIDI 01
130.581;000.061;67;000.352;MIDI 01
130.583;000.059;70;000.375;MIDI 01
130.577;000.260;77;000.469;MIDI 01
130.831;000.148;79;000.531;MIDI 01
131.201;000.290;46;000.461;MIDI 01
131.956;000.122;72;000.445;MIDI 01
131.894;000.196;84;000.391;MIDI 01
131.971;000.164;65;000.383;MIDI 01
132.007;000.162;61;000.383;MIDI 01
132.249;000.097;84;000.555;MIDI 01
131.991;000.417;56;000.375;MIDI 01
132.461;000.100;84;000.547;MIDI 01
132.497;000.080;66;000.398;MIDI 01
132.503;000.093;62;000.375;MIDI 01
132.522;000.135;57;000.352;MIDI 01
132.719;000.189;84;000.570;MIDI 01
132.524;000.680;72;000.367;MIDI 01
133.120;000.157;39;000.359;MIDI 01
133.072;000.679;84;000.508;MIDI 01
133.746;000.102;63;000.297;MIDI 01
133.734;000.120;67;000.312;MIDI 01
133.728;000.152;58;000.273;MIDI 01
133.748;000.281;72;000.383;MIDI 01
133.651;000.464;82;000.414;MIDI 01
134.055;000.347;79;000.430;MIDI 01
134.430;000.075;74;000.305;MIDI 01
134.435;000.089;70;000.297;MIDI 01
134.434;000.110;67;000.281;MIDI 01
134.405;000.454;77;000.438;MIDI 01
134.859;000.233;79;000.383;MIDI 01
135.580;000.292;45;000.281;MIDI 01
136.385;000.227;64;000.289;MIDI 01
136.412;000.254;60;000.266;MIDI 01
136.385;000.738;81;000.484;MIDI 01
137.094;000.369;65;000.336;MIDI 01
137.077;000.474;61;000.328;MIDI 01
136.420;001.172;55;000.211;MIDI 01
137.073;000.622;77;000.453;MIDI 01
138.161;000.228;64;000.344;MIDI 01
138.172;000.279;60;000.273;MIDI 01
137.650;000.851;76;000.516;MIDI 01
138.434;000.479;77;000.539;MIDI 01
138.827;000.365;65;000.281;MIDI 01
138.183;001.105;55;000.281;MIDI 01
138.839;000.471;61;000.305;MIDI 01
138.829;000.990;69;000.391;MIDI 01
140.526;000.157;38;000.266;MIDI 01
141.284;000.060;57;000.242;MIDI 01
139.758;002.920;76;000.461;MIDI 01
141.850;000.970;66;000.289;MIDI 01
142.569;000.806;74;000.328;MIDI 01
143.394;000.958;81;000.250;MIDI 01
144.368;000.773;78;000.508;MIDI 01
145.181;000.333;84;000.352;MIDI 01
144.376;001.196;72;000.492;MIDI 01
144.360;001.363;86;000.594;MIDI 01
144.370;001.420;82;000.539;MIDI 01
145.713;000.084;87;000.578;MIDI 01
146.174;000.328;71;000.555;MIDI 01
146.761;000.068;84;000.375;MIDI 01
146.172;000.686;72;000.492;MIDI 01
146.160;001.051;78;000.633;MIDI 01
146.172;001.066;75;000.547;MIDI 01
147.224;000.043;72;000.484;MIDI 01
147.209;000.120;79;000.594;MIDI 01
148.315;000.104;81;000.500;MIDI 01
147.817;000.698;69;000.602;MIDI 01
148.289;000.358;86;000.672;MIDI 01
148.303;000.444;82;000.547;MIDI 01
148.715;000.039;83;000.586;MIDI 01
148.706;000.067;87;000.664;MIDI 01
148.295;000.487;78;000.586;MIDI 01
149.122;000.213;71;000.625;MIDI 01
149.128;000.352;75;000.586;MIDI 01
149.118;000.496;78;000.633;MIDI 01
149.576;000.046;81;000.508;MIDI 01
149.574;000.074;79;000.656;MIDI 01
149.134;000.553;69;000.570;MIDI 01
150.164;001.095;78;000.492;MIDI 01
150.150;001.137;84;000.617;MIDI 01
151.238;000.491;82;000.570;MIDI 01
150.684;001.070;58;000.523;MIDI 01
151.245;000.671;70;000.336;MIDI 01
151.274;000.704;66;000.367;MIDI 01
150.170;001.841;74;000.484;MIDI 01
151.699;000.531;81;000.602;MIDI 01
152.182;000.543;79;000.531;MIDI 01
152.709;000.586;81;000.469;MIDI 01
153.220;000.252;74;000.398;MIDI 01
152.208;001.276;58;000.359;MIDI 01
152.729;000.759;67;000.289;MIDI 01
152.722;000.816;70;000.297;MIDI 01
153.838;001.332;58;000.391;MIDI 01
154.626;000.611;70;000.273;MIDI 01
154.630;000.981;68;000.250;MIDI 01
154.593;001.107;77;000.422;MIDI 01
154.611;001.131;72;000.305;MIDI 01
156.772;000.249;70;000.188;MIDI 01
156.750;000.664;68;000.234;MIDI 01
156.743;000.909;72;000.242;MIDI 01
156.040;001.655;58;000.273;MIDI 01
156.722;001.082;74;000.328;MIDI 01
157.596;000.258;60;000.250;MIDI 01
159.186;000.302;43;000.141;MIDI 01
159.997;000.117;57;000.188;MIDI 01
159.165;000.958;62;000.289;MIDI 01
159.976;000.186;50;000.148;MIDI 01
159.990;000.173;59;000.164;MIDI 01
159.949;000.632;65;000.250;MIDI 01
159.956;000.693;71;000.258;MIDI 01
160.554;000.543;67;000.344;MIDI 01
159.944;001.231;74;000.266;MIDI 01
161.135;000.181;43;000.211;MIDI 01
161.753;000.091;63;000.195;MIDI 01
161.756;000.106;61;000.242;MIDI 01
161.753;000.131;55;000.211;MIDI 01
161.707;000.283;73;000.312;MIDI 01
161.783;000.217;75;000.070;MIDI 01
161.093;001.165;69;000.312;MIDI 01
162.205;000.559;65;000.367;MIDI 01
162.783;000.142;43;000.258;MIDI 01
163.366;000.119;57;000.336;MIDI 01
163.358;000.157;59;000.195;MIDI 01
163.356;000.180;71;000.250;MIDI 01
163.406;000.139;50;000.172;MIDI 01
163.332;000.258;74;000.328;MIDI 01
162.753;001.106;69;000.391;MIDI 01
163.878;000.393;65;000.344;MIDI 01
164.093;000.253;67;000.445;MIDI 01
164.416;000.129;43;000.305;MIDI 01
164.379;000.695;69;000.438;MIDI 01
165.011;000.084;63;000.227;MIDI 01
165.021;000.120;61;000.258;MIDI 01
165.036;000.105;55;000.242;MIDI 01
165.005;000.162;73;000.344;MIDI 01
164.998;000.199;75;000.352;MIDI 01
165.549;000.826;62;000.367;MIDI 01
166.267;000.131;43;000.273;MIDI 01
165.018;001.382;67;000.289;MIDI 01
166.214;000.227;74;000.406;MIDI 01
166.891;000.069;69;000.297;MIDI 01
166.883;000.079;71;000.281;MIDI 01
166.901;000.084;65;000.336;MIDI 01
166.891;000.097;81;000.289;MIDI 01
166.885;000.255;83;000.359;MIDI 01
166.901;000.436;57;000.281;MIDI 01
166.880;000.531;77;000.367;MIDI 01
167.391;000.043;67;000.398;MIDI 01
166.882;000.644;59;000.320;MIDI 01
167.371;000.400;79;000.492;MIDI 01
167.874;000.080;43;000.375;MIDI 01
167.851;000.129;69;000.430;MIDI 01
167.833;000.214;81;000.531;MIDI 01
168.392;000.083;73;000.398;MIDI 01
168.387;000.090;87;000.461;MIDI 01
168.399;000.095;85;000.430;MIDI 01
168.436;000.070;63;000.250;MIDI 01
168.399;000.423;75;000.391;MIDI 01
168.882;000.031;65;000.414;MIDI 01
168.400;000.531;61;000.367;MIDI 01
168.860;000.454;77;000.531;MIDI 01
169.417;000.081;43;000.461;MIDI 01
169.419;000.155;69;000.445;MIDI 01
169.399;000.217;81;000.562;MIDI 01
169.922;000.028;81;000.391;MIDI 01
169.911;000.041;69;000.531;MIDI 01
169.934;000.329;57;000.398;MIDI 01
169.918;000.429;59;000.469;MIDI 01
170.363;000.043;65;000.516;MIDI 01
169.914;000.494;83;000.539;MIDI 01
169.916;000.515;71;000.516;MIDI 01
170.572;000.027;67;000.438;MIDI 01
170.367;000.244;77;000.617;MIDI 01
170.574;000.257;79;000.672;MIDI 01
170.844;000.075;69;000.570;MIDI 01
170.855;000.071;43;000.484;MIDI 01
170.838;000.568;81;000.680;MIDI 01
171.410;000.040;74;000.625;MIDI 01
171.416;000.043;71;000.539;MIDI 01
171.422;000.040;69;000.500;MIDI 01
171.420;000.332;62;000.523;MIDI 01
171.836;000.034;65;000.570;MIDI 01
171.399;000.478;86;000.719;MIDI 01
171.855;000.043;77;000.742;MIDI 01
171.851;000.076;89;000.758;MIDI 01
172.261;000.067;55;000.602;MIDI 01
172.301;000.110;58;000.547;MIDI 01
172.324;000.112;61;000.539;MIDI 01
172.392;000.065;70;000.734;MIDI 01
172.336;000.527;89;000.695;MIDI 01
172.334;000.570;93;000.805;MIDI 01
172.915;000.026;70;000.688;MIDI 01
172.902;000.042;82;000.750;MIDI 01
172.339;000.611;81;000.734;MIDI 01
173.015;000.027;70;000.289;MIDI 01
172.341;001.000;85;000.703;MIDI 01
173.364;000.041;86;000.594;MIDI 01
173.369;000.037;78;000.664;MIDI 01
173.361;000.103;90;000.734;MIDI 01
173.754;000.075;53;000.578;MIDI 01
173.803;000.092;59;000.555;MIDI 01
173.792;000.107;56;000.539;MIDI 01
173.881;000.052;68;000.633;MIDI 01
173.817;000.272;87;000.688;MIDI 01
173.819;000.366;91;000.805;MIDI 01
173.822;000.428;79;000.703;MIDI 01
174.339;000.030;68;000.656;MIDI 01
174.335;000.035;80;000.727;MIDI 01
173.815;001.016;83;000.625;MIDI 01
174.796;000.042;76;000.539;MIDI 01
174.790;000.102;88;000.656;MIDI 01
174.794;000.101;84;000.500;MIDI 01
175.290;000.071;55;000.594;MIDI 01
175.332;000.088;58;000.500;MIDI 01
175.336;000.103;61;000.523;MIDI 01
175.398;000.057;57;000.156;MIDI 01
175.408;000.054;70;000.719;MIDI 01
175.806;000.030;82;000.727;MIDI 01
175.824;000.033;70;000.594;MIDI 01
175.814;000.067;89;000.523;MIDI 01
175.830;000.119;81;000.609;MIDI 01
175.814;000.145;93;000.711;MIDI 01
175.832;000.438;85;000.602;MIDI 01
176.265;000.071;78;000.648;MIDI 01
176.261;000.175;86;000.609;MIDI 01
176.261;000.220;90;000.734;MIDI 01
176.617;000.070;53;000.555;MIDI 01
176.668;000.091;56;000.523;MIDI 01
176.704;000.054;59;000.508;MIDI 01
176.750;000.047;68;000.711;MIDI 01
176.730;000.300;87;000.672;MIDI 01
176.734;000.433;91;000.742;MIDI 01
176.739;000.492;79;000.656;MIDI 01
177.296;000.031;80;000.688;MIDI 01
177.304;000.030;68;000.609;MIDI 01
176.730;001.116;83;000.414;MIDI 01
177.823;000.041;84;000.453;MIDI 01
177.823;000.058;76;000.562;MIDI 01
177.808;000.276;88;000.703;MIDI 01
179.668;000.599;76;000.516;MIDI 01
179.119;001.202;64;000.492;MIDI 01
178.454;002.667;77;000.570;MIDI 01
178.441;002.745;89;000.680;MIDI 01
178.450;002.814;81;000.609;MIDI 01
178.446;002.851;85;000.594;MIDI 01
181.474;000.077;76;000.359;MIDI 01
178.465;003.161;73;000.516;MIDI 01
180.855;000.785;64;000.352;MIDI 01
178.473;003.249;69;000.469;MIDI 01
182.411;002.514;69;000.328;MIDI 01
182.381;002.570;77;000.492;MIDI 01
183.086;002.106;63;000.281;MIDI 01
183.750;001.576;73;000.391;MIDI 01
184.522;001.061;53;000.148;MIDI 01
185.449;000.290;77;000.328;MIDI 01
185.440;001.189;72;000.305;MIDI 01
186.534;000.235;53;000.195;MIDI 01
186.527;000.245;46;000.242;MIDI 01
186.512;000.266;62;000.266;MIDI 01
186.490;000.386;68;000.297;MIDI 01
188.139;000.104;39;000.234;MIDI 01
189.178;000.188;65;000.211;MIDI 01
189.293;000.178;77;000.273;MIDI 01
189.354;000.230;54;000.203;MIDI 01
189.321;000.281;58;000.195;MIDI 01
189.336;000.511;49;000.227;MIDI 01
189.819;000.048;65;000.328;MIDI 01
190.128;000.079;55;000.234;MIDI 01
190.148;000.072;65;000.391;MIDI 01
190.108;000.149;59;000.289;MIDI 01
190.089;000.175;77;000.328;MIDI 01
190.148;000.165;50;000.203;MIDI 01
190.395;000.203;65;000.430;MIDI 01
190.758;000.170;44;000.289;MIDI 01
191.365;000.082;51;000.289;MIDI 01
191.412;000.057;56;000.094;MIDI 01
191.367;000.136;60;000.266;MIDI 01
190.711;000.882;77;000.398;MIDI 01
191.364;000.284;65;000.273;MIDI 01
191.619;000.254;72;000.438;MIDI 01
191.889;000.041;67;000.273;MIDI 01
191.880;000.057;60;000.289;MIDI 01
191.899;000.046;63;000.266;MIDI 01
191.350;000.772;75;000.359;MIDI 01
191.878;000.249;70;000.430;MIDI 01
192.147;000.089;72;000.469;MIDI 01
192.596;000.253;39;000.344;MIDI 01
193.286;000.077;65;000.305;MIDI 01
193.385;000.258;54;000.180;MIDI 01
193.373;000.317;58;000.273;MIDI 01
193.775;000.041;65;000.359;MIDI 01
193.372;000.450;49;000.227;MIDI 01
193.376;000.469;77;000.352;MIDI 01
194.029;000.058;55;000.250;MIDI 01
194.019;000.069;59;000.273;MIDI 01
193.985;000.102;77;000.477;MIDI 01
194.065;000.072;65;000.375;MIDI 01
194.029;000.162;50;000.227;MIDI 01
194.298;000.148;65;000.445;MIDI 01
194.671;000.189;44;000.273;MIDI 01
194.629;000.759;77;000.422;MIDI 01
195.361;000.106;56;000.164;MIDI 01
195.355;000.115;51;000.195;MIDI 01
195.346;000.158;60;000.281;MIDI 01
195.346;000.260;65;000.070;MIDI 01
195.329;000.441;75;000.281;MIDI 01
195.691;000.385;72;000.367;MIDI 01
196.120;000.096;67;000.250;MIDI 01
196.124;000.101;63;000.211;MIDI 01
196.133;000.144;60;000.133;MIDI 01
196.106;000.499;70;000.336;MIDI 01
196.604;000.231;72;000.320;MIDI 01
197.434;000.335;38;000.219;MIDI 01
198.509;000.204;60;000.188;MIDI 01
198.496;000.260;64;000.227;MIDI 01
198.521;000.426;55;000.117;MIDI 01
198.443;000.806;74;000.391;MIDI 01
199.206;000.208;66;000.266;MIDI 01
199.227;000.190;62;000.258;MIDI 01
199.208;000.227;57;000.234;MIDI 01
199.176;000.751;70;000.438;MIDI 01
199.853;001.067;69;000.445;MIDI 01
200.589;000.334;55;000.195;MIDI 01
200.550;000.383;64;000.281;MIDI 01
200.570;001.042;60;000.219;MIDI 01
200.931;000.682;70;000.422;MIDI 01
201.566;000.479;66;000.250;MIDI 01
201.576;000.631;57;000.156;MIDI 01
201.539;000.935;62;000.312;MIDI 01
202.947;003.653;69;000.352;MIDI 01
203.951;003.209;43;000.180;MIDI 01
204.854;002.352;50;000.133;MIDI 01
205.575;004.282;59;000.258;MIDI 01
206.634;003.332;67;000.250;MIDI 01
208.681;002.195;71;000.156;MIDI 01
208.643;002.235;79;000.266;MIDI 01
214.953;000.079;64;000.273;MIDI 01
214.957;000.279;83;000.297;MIDI 01
215.118;000.170;66;000.266;MIDI 01
215.298;000.028;81;000.375;MIDI 01
215.298;000.039;74;000.305;MIDI 01
215.298;000.044;72;000.164;MIDI 01
215.598;000.036;74;000.336;MIDI 01
215.610;000.028;72;000.375;MIDI 01
215.930;000.066;64;000.320;MIDI 01
216.045;000.084;67;000.305;MIDI 01
215.886;000.311;76;000.430;MIDI 01
216.188;000.026;74;000.484;MIDI 01
216.174;000.042;79;000.422;MIDI 01
216.190;000.033;71;000.328;MIDI 01
216.200;000.037;76;000.164;MIDI 01
216.475;000.034;83;000.508;MIDI 01
216.492;000.031;74;000.375;MIDI 01
216.501;000.042;76;000.258;MIDI 01
216.797;000.046;64;000.328;MIDI 01
216.897;000.082;66;000.359;MIDI 01
216.769;000.221;83;000.484;MIDI 01
217.049;000.034;81;000.508;MIDI 01
217.062;000.028;72;000.367;MIDI 01
217.064;000.029;74;000.367;MIDI 01
217.365;000.030;72;000.336;MIDI 01
217.360;000.036;74;000.352;MIDI 01
217.646;000.090;64;000.367;MIDI 01
217.778;000.082;67;000.375;MIDI 01
217.634;000.272;76;000.422;MIDI 01
217.902;000.026;74;000.516;MIDI 01
217.916;000.032;79;000.445;MIDI 01
217.938;000.043;71;000.242;MIDI 01
218.199;000.027;76;000.414;MIDI 01
218.191;000.038;83;000.539;MIDI 01
218.203;000.027;74;000.477;MIDI 01
218.492;000.079;64;000.438;MIDI 01
218.499;000.072;89;000.438;MIDI 01
218.624;000.070;68;000.375;MIDI 01
218.501;000.241;88;000.438;MIDI 01
218.750;000.035;86;000.492;MIDI 01
218.755;000.037;77;000.453;MIDI 01
218.774;000.021;74;000.422;MIDI 01
219.035;000.084;64;000.500;MIDI 01
219.153;000.057;69;000.406;MIDI 01
219.021;000.256;88;000.562;MIDI 01
219.293;000.032;86;000.547;MIDI 01
219.308;000.022;78;000.492;MIDI 01
219.315;000.037;74;000.414;MIDI 01
219.330;000.034;76;000.352;MIDI 01
219.571;000.070;64;000.469;MIDI 01
219.698;000.052;70;000.406;MIDI 01
219.578;000.293;84;000.547;MIDI 01
219.855;000.024;76;000.484;MIDI 01
219.840;000.047;72;000.477;MIDI 01
220.165;000.092;64;000.445;MIDI 01
220.295;000.074;66;000.438;MIDI 01
220.173;000.286;81;000.438;MIDI 01
220.445;000.031;74;000.461;MIDI 01
220.476;000.033;83;000.469;MIDI 01
220.466;000.051;72;000.086;MIDI 01
220.784;000.024;72;000.477;MIDI 01
220.793;000.028;74;000.414;MIDI 01
221.101;000.084;64;000.406;MIDI 01
221.270;000.098;67;000.383;MIDI 01
221.425;000.034;74;000.320;MIDI 01
221.438;000.048;71;000.219;MIDI 01
221.091;000.725;76;000.438;MIDI 01
221.824;000.043;71;000.305;MIDI 01
221.832;000.051;74;000.328;MIDI 01
221.852;000.050;67;000.172;MIDI 01
222.243;000.072;52;000.344;MIDI 01
222.390;000.053;60;000.211;MIDI 01
222.230;000.250;83;000.383;MIDI 01
222.508;000.022;81;000.461;MIDI 01
222.522;000.030;66;000.383;MIDI 01
222.786;000.035;66;000.336;MIDI 01
222.789;000.049;72;000.461;MIDI 01
222.821;000.035;74;000.508;MIDI 01
223.114;000.054;52;000.344;MIDI 01
223.223;000.072;59;000.375;MIDI 01
223.090;000.205;76;000.422;MIDI 01
223.356;000.040;79;000.469;MIDI 01
223.373;000.035;67;000.375;MIDI 01
223.610;000.045;74;000.461;MIDI 01
223.616;000.052;71;000.164;MIDI 01
223.639;000.036;78;000.375;MIDI 01
223.666;000.027;83;000.500;MIDI 01
223.953;000.055;52;000.391;MIDI 01
224.071;000.039;60;000.344;MIDI 01
223.927;000.206;83;000.438;MIDI 01
224.179;000.022;81;000.508;MIDI 01
224.178;000.027;66;000.438;MIDI 01
224.448;000.043;62;000.281;MIDI 01
224.458;000.039;66;000.336;MIDI 01
224.471;000.042;72;000.430;MIDI 01
224.489;000.033;74;000.562;MIDI 01
224.773;000.059;52;000.422;MIDI 01
224.899;000.040;59;000.344;MIDI 01
224.753;000.222;76;000.453;MIDI 01
225.016;000.024;79;000.500;MIDI 01
225.023;000.032;67;000.508;MIDI 01
225.248;000.034;71;000.281;MIDI 01
225.267;000.044;74;000.492;MIDI 01
225.276;000.042;78;000.422;MIDI 01
225.312;000.027;83;000.555;MIDI 01
225.553;000.044;88;000.570;MIDI 01
225.586;000.041;52;000.414;MIDI 01
225.664;000.033;59;000.367;MIDI 01
225.802;000.025;71;000.469;MIDI 01
225.845;000.031;68;000.344;MIDI 01
225.844;000.060;80;000.523;MIDI 01
225.885;000.045;77;000.234;MIDI 01
225.909;000.026;86;000.453;MIDI 01
225.948;000.048;88;000.234;MIDI 01
226.136;000.046;52;000.469;MIDI 01
226.117;000.079;88;000.562;MIDI 01
226.236;000.040;60;000.352;MIDI 01
226.348;000.023;72;000.453;MIDI 01
226.370;000.035;69;000.484;MIDI 01
226.372;000.047;78;000.445;MIDI 01
226.375;000.046;81;000.492;MIDI 01
226.415;000.030;86;000.578;MIDI 01
226.654;000.030;84;000.562;MIDI 01
226.666;000.079;52;000.453;MIDI 01
226.795;000.032;60;000.406;MIDI 01
226.904;000.035;67;000.430;MIDI 01
226.926;000.045;70;000.414;MIDI 01
226.928;000.046;72;000.438;MIDI 01
226.946;000.040;76;000.453;MIDI 01
227.238;000.069;52;000.328;MIDI 01
227.323;000.061;60;000.453;MIDI 01
227.496;000.034;83;000.500;MIDI 01
227.506;000.028;66;000.398;MIDI 01
227.199;000.340;81;000.492;MIDI 01
227.797;000.043;66;000.414;MIDI 01
227.797;000.045;62;000.242;MIDI 01
227.817;000.041;72;000.406;MIDI 01
227.822;000.058;74;000.461;MIDI 01
228.162;000.080;52;000.312;MIDI 01
228.308;000.064;59;000.297;MIDI 01
228.494;000.030;67;000.406;MIDI 01
228.858;000.077;67;000.242;MIDI 01
228.123;000.843;76;000.359;MIDI 01
228.914;000.176;71;000.312;MIDI 01
228.985;000.143;74;000.344;MIDI 01
229.427;000.087;45;000.148;MIDI 01
229.439;000.190;52;000.148;MIDI 01
229.429;000.224;71;000.055;MIDI 01
229.412;000.243;67;000.242;MIDI 01
229.659;000.044;59;000.289;MIDI 01
229.370;000.469;74;000.242;MIDI 01
229.865;000.065;64;000.273;MIDI 01
229.853;000.091;62;000.297;MIDI 01
229.375;000.572;76;000.352;MIDI 01
229.839;000.125;71;000.359;MIDI 01
229.843;000.126;67;000.383;MIDI 01
230.129;000.060;76;000.516;MIDI 01
230.146;000.047;74;000.430;MIDI 01
230.157;000.053;67;000.414;MIDI 01
230.182;000.044;71;000.211;MIDI 01
230.411;000.066;38;000.430;MIDI 01
230.471;000.041;45;000.297;MIDI 01
230.435;000.134;66;000.383;MIDI 01
230.427;000.157;62;000.422;MIDI 01
230.597;000.042;52;000.328;MIDI 01
230.409;000.248;71;000.383;MIDI 01
230.426;000.243;69;000.430;MIDI 01
230.678;000.067;71;000.281;MIDI 01
230.706;000.050;59;000.461;MIDI 01
230.717;000.050;57;000.414;MIDI 01
230.730;000.040;62;000.352;MIDI 01
230.700;000.070;66;000.484;MIDI 01
230.968;000.048;66;000.320;MIDI 01
230.992;000.026;71;000.367;MIDI 01
230.972;000.049;61;000.492;MIDI 01
230.957;000.070;62;000.445;MIDI 01
230.984;000.043;69;000.336;MIDI 01
231.227;000.098;38;000.492;MIDI 01
231.262;000.089;57;000.414;MIDI 01
231.238;000.126;66;000.508;MIDI 01
231.251;000.176;59;000.297;MIDI 01
231.363;000.099;45;000.414;MIDI 01
231.221;000.256;62;000.445;MIDI 01
231.491;000.090;52;000.352;MIDI 01
231.530;000.054;53;000.445;MIDI 01
231.532;000.055;55;000.461;MIDI 01
231.524;000.075;59;000.516;MIDI 01
231.511;000.098;62;000.211;MIDI 01
231.497;000.118;50;000.359;MIDI 01
231.780;000.041;55;000.414;MIDI 01
231.776;000.061;61;000.453;MIDI 01
231.758;000.080;57;000.500;MIDI 01
231.772;000.114;64;000.531;MIDI 01
232.054;000.061;38;000.477;MIDI 01
232.023;000.125;59;000.508;MIDI 01
232.025;000.169;66;000.547;MIDI 01
232.048;000.151;62;000.398;MIDI 01
232.164;000.046;45;000.273;MIDI 01
232.316;000.042;62;000.367;MIDI 01
232.318;000.047;66;000.328;MIDI 01
232.315;000.068;69;000.547;MIDI 01
232.335;000.100;61;000.469;MIDI 01
232.620;000.022;69;000.414;MIDI 01
232.615;000.031;64;000.398;MIDI 01
232.618;000.034;66;000.453;MIDI 01
232.603;000.081;73;000.555;MIDI 01
232.922;000.158;50;000.344;MIDI 01
232.934;000.171;67;000.406;MIDI 01
232.939;000.173;71;000.375;MIDI 01
232.936;000.198;74;000.438;MIDI 01
232.928;000.246;76;000.500;MIDI 01
233.069;000.111;57;000.453;MIDI 01
233.222;000.033;62;000.492;MIDI 01
233.213;000.045;64;000.547;MIDI 01
233.229;000.055;67;000.492;MIDI 01
233.217;000.098;71;000.508;MIDI 01
233.461;000.036;74;000.555;MIDI 01
233.459;000.041;76;000.594;MIDI 01
233.475;000.041;67;000.492;MIDI 01
233.698;000.074;38;000.508;MIDI 01
233.757;000.049;45;000.445;MIDI 01
233.716;000.122;62;000.508;MIDI 01
233.718;000.149;66;000.500;MIDI 01
233.711;000.157;71;000.547;MIDI 01
233.723;000.179;69;000.484;MIDI 01
233.867;000.040;52;000.500;MIDI 01
233.984;000.039;59;000.492;MIDI 01
233.982;000.044;62;000.539;MIDI 01
233.992;000.036;71;000.312;MIDI 01
234.002;000.045;57;000.422;MIDI 01
233.975;000.073;66;000.555;MIDI 01
234.229;000.046;62;000.523;MIDI 01
234.227;000.049;66;000.438;MIDI 01
234.208;000.075;69;000.578;MIDI 01
234.233;000.054;61;000.516;MIDI 01
234.499;000.120;66;000.469;MIDI 01
234.509;000.117;57;000.461;MIDI 01
234.515;000.114;38;000.438;MIDI 01
234.489;000.181;59;000.320;MIDI 01
234.664;000.097;45;000.398;MIDI 01
234.484;000.295;62;000.438;MIDI 01
234.810;000.064;55;000.500;MIDI 01
234.809;000.090;59;000.508;MIDI 01
234.822;000.106;52;000.367;MIDI 01
234.817;000.168;50;000.289;MIDI 01
235.093;000.061;64;000.516;MIDI 01
235.116;000.045;55;000.391;MIDI 01
235.095;000.083;59;000.438;MIDI 01
235.445;000.053;54;000.250;MIDI 01
235.442;000.117;38;000.383;MIDI 01
235.426;000.141;59;000.258;MIDI 01
235.401;000.172;62;000.445;MIDI 01
235.601;000.041;45;000.367;MIDI 01
235.718;000.027;61;000.477;MIDI 01
235.720;000.043;66;000.477;MIDI 01
235.740;000.028;59;000.445;MIDI 01
235.889;000.045;71;000.570;MIDI 01
236.108;000.038;71;000.422;MIDI 01
236.109;000.042;66;000.305;MIDI 01
236.092;000.122;74;000.469;MIDI 01
236.305;000.037;81;000.508;MIDI 01
236.630;000.052;83;000.211;MIDI 01
236.615;000.070;62;000.375;MIDI 01
236.616;000.072;86;000.383;MIDI 01
236.622;000.068;79;000.289;MIDI 01
236.593;000.104;88;000.461;MIDI 01
236.773;000.051;69;000.320;MIDI 01
236.908;000.029;74;000.406;MIDI 01
236.912;000.027;76;000.422;MIDI 01
236.903;000.039;83;000.383;MIDI 01
236.920;000.025;79;000.352;MIDI 01
237.192;000.035;88;000.469;MIDI 01
237.205;000.037;79;000.336;MIDI 01
237.211;000.056;62;000.453;MIDI 01
237.312;000.033;69;000.438;MIDI 01
237.450;000.030;83;000.562;MIDI 01
237.457;000.028;74;000.430;MIDI 01
237.463;000.025;78;000.453;MIDI 01
237.719;000.027;71;000.445;MIDI 01
237.729;000.037;74;000.312;MIDI 01
237.718;000.053;78;000.469;MIDI 01
237.740;000.042;62;000.414;MIDI 01
237.823;000.061;69;000.391;MIDI 01
237.968;000.028;73;000.383;MIDI 01
237.964;000.045;74;000.477;MIDI 01
237.986;000.024;78;000.422;MIDI 01
237.974;000.054;81;000.539;MIDI 01
238.252;000.028;74;000.422;MIDI 01
238.248;000.036;78;000.469;MIDI 01
238.257;000.049;50;000.359;MIDI 01
238.292;000.050;71;000.125;MIDI 01
238.339;000.042;57;000.469;MIDI 01
238.488;000.033;64;000.539;MIDI 01
238.490;000.032;62;000.422;MIDI 01
238.492;000.036;67;000.516;MIDI 01
238.494;000.041;71;000.453;MIDI 01
238.769;000.031;71;000.383;MIDI 01
238.774;000.034;73;000.438;MIDI 01
238.782;000.044;67;000.242;MIDI 01
238.780;000.051;50;000.422;MIDI 01
238.753;000.100;76;000.531;MIDI 01
238.866;000.032;57;000.391;MIDI 01
238.996;000.025;66;000.492;MIDI 01
238.989;000.041;71;000.445;MIDI 01
239.009;000.029;74;000.438;MIDI 01
239.000;000.050;78;000.555;MIDI 01
239.247;000.040;74;000.430;MIDI 01
239.252;000.040;73;000.539;MIDI 01
239.264;000.036;78;000.438;MIDI 01
239.280;000.043;62;000.531;MIDI 01
239.255;000.076;81;000.602;MIDI 01
239.418;000.039;69;000.438;MIDI 01
239.520;000.031;78;000.555;MIDI 01
239.529;000.033;81;000.500;MIDI 01
239.555;000.029;74;000.430;MIDI 01
239.517;000.080;85;000.594;MIDI 01
239.857;000.062;83;000.406;MIDI 01
239.849;000.073;62;000.445;MIDI 01
239.853;000.071;79;000.438;MIDI 01
239.863;000.113;86;000.406;MIDI 01
239.994;000.046;69;000.430;MIDI 01
239.832;000.216;88;000.594;MIDI 01
240.121;000.023;76;000.508;MIDI 01
240.117;000.032;79;000.469;MIDI 01
240.126;000.034;74;000.516;MIDI 01
240.119;000.042;83;000.539;MIDI 01
240.389;000.045;79;000.516;MIDI 01
240.376;000.079;88;000.602;MIDI 01
240.396;000.066;62;000.469;MIDI 01
240.419;000.056;81;000.180;MIDI 01
240.509;000.046;69;000.430;MIDI 01
240.647;000.031;74;000.383;MIDI 01
240.645;000.033;83;000.523;MIDI 01
240.650;000.029;78;000.516;MIDI 01
240.897;000.027;71;000.461;MIDI 01
240.902;000.044;74;000.352;MIDI 01
240.895;000.071;78;000.477;MIDI 01
240.912;000.055;62;000.453;MIDI 01
241.042;000.047;69;000.320;MIDI 01
241.149;000.039;74;000.547;MIDI 01
241.151;000.045;78;000.492;MIDI 01
241.153;000.057;81;000.578;MIDI 01
241.170;000.045;73;000.195;MIDI 01
241.418;000.044;74;000.438;MIDI 01
241.425;000.039;78;000.492;MIDI 01
241.433;000.037;71;000.406;MIDI 01
241.423;000.049;50;000.422;MIDI 01
241.550;000.033;57;000.406;MIDI 01
241.683;000.028;64;000.469;MIDI 01
241.691;000.032;67;000.414;MIDI 01
241.688;000.040;71;000.438;MIDI 01
241.705;000.040;62;000.305;MIDI 01
241.974;000.065;67;000.281;MIDI 01
241.978;000.078;71;000.305;MIDI 01
241.975;000.110;73;000.383;MIDI 01
242.007;000.080;50;000.320;MIDI 01
242.154;000.041;57;000.320;MIDI 01
241.980;000.325;76;000.430;MIDI 01
242.320;000.091;62;000.367;MIDI 01
242.491;000.093;66;000.375;MIDI 01
242.664;000.041;69;000.305;MIDI 01
242.280;000.481;74;000.414;MIDI 01
242.815;000.264;71;000.422;MIDI 01
243.003;000.173;74;000.453;MIDI 01
243.196;000.104;76;000.484;MIDI 01
243.570;000.206;54;000.227;MIDI 01
243.526;000.258;70;000.445;MIDI 01
243.540;000.318;73;000.383;MIDI 01
243.835;000.029;66;000.438;MIDI 01
243.514;000.383;78;000.547;MIDI 01
243.522;000.560;76;000.391;MIDI 01
244.066;000.044;71;000.461;MIDI 01
244.102;000.033;78;000.406;MIDI 01
244.047;000.143;79;000.633;MIDI 01
244.074;000.124;77;000.461;MIDI 01
244.382;000.036;76;000.453;MIDI 01
244.395;000.032;66;000.383;MIDI 01
244.390;000.042;73;000.492;MIDI 01
244.355;000.100;79;000.578;MIDI 01
244.363;000.094;81;000.609;MIDI 01
244.643;000.066;54;000.453;MIDI 01
244.647;000.121;71;000.508;MIDI 01
244.650;000.139;74;000.484;MIDI 01
244.768;000.043;66;000.492;MIDI 01
244.631;000.188;79;000.578;MIDI 01
244.636;000.198;77;000.531;MIDI 01
244.955;000.023;76;000.508;MIDI 01
244.972;000.029;73;000.398;MIDI 01
244.938;000.071;79;000.562;MIDI 01
244.931;000.086;81;000.586;MIDI 01
245.010;000.034;78;000.273;MIDI 01
245.221;000.052;69;000.547;MIDI 01
245.231;000.046;66;000.438;MIDI 01
245.206;000.082;74;000.602;MIDI 01
245.216;000.080;72;000.547;MIDI 01
245.497;000.075;54;000.477;MIDI 01
245.531;000.057;71;000.367;MIDI 01
245.518;000.106;68;000.539;MIDI 01
245.516;000.179;74;000.578;MIDI 01
245.666;000.032;66;000.508;MIDI 01
245.503;000.223;76;000.617;MIDI 01
245.884;000.030;78;000.508;MIDI 01
245.896;000.042;73;000.492;MIDI 01
245.883;000.074;76;000.586;MIDI 01
245.933;000.036;70;000.328;MIDI 01
246.265;000.030;66;000.430;MIDI 01
246.259;000.039;61;000.516;MIDI 01
246.261;000.046;64;000.250;MIDI 01
246.273;000.034;67;000.438;MIDI 01
246.249;000.082;69;000.531;MIDI 01
246.539;000.118;64;000.398;MIDI 01
246.575;000.107;54;000.281;MIDI 01
246.573;000.170;68;000.359;MIDI 01
246.559;000.195;73;000.430;MIDI 01
246.573;000.184;70;000.406;MIDI 01
246.727;000.049;66;000.445;MIDI 01
246.994;000.037;78;000.367;MIDI 01
247.331;000.040;66;000.367;MIDI 01
247.610;000.100;66;000.305;MIDI 01
247.644;000.068;83;000.289;MIDI 01
247.643;000.083;80;000.367;MIDI 01
247.653;000.075;86;000.328;MIDI 01
247.635;000.123;88;000.383;MIDI 01
247.787;000.022;78;000.438;MIDI 01
247.948;000.079;88;000.508;MIDI 01
248.009;000.030;90;000.367;MIDI 01
248.287;000.021;78;000.438;MIDI 01
248.307;000.021;73;000.398;MIDI 01
248.274;000.065;81;000.555;MIDI 01
248.338;000.067;76;000.047;MIDI 01
248.586;000.066;66;000.430;MIDI 01
248.740;000.026;78;000.438;MIDI 01
248.572;000.207;85;000.406;MIDI 01
248.601;000.189;82;000.367;MIDI 01
248.602;000.196;80;000.336;MIDI 01
248.567;000.279;76;000.367;MIDI 01
248.978;000.022;90;000.500;MIDI 01
249.474;000.067;66;000.438;MIDI 01
249.460;000.281;67;000.422;MIDI 01
249.460;000.323;70;000.453;MIDI 01
249.449;000.346;72;000.453;MIDI 01
249.747;000.055;54;000.398;MIDI 01
249.878;000.028;66;000.430;MIDI 01
250.034;000.028;72;000.414;MIDI 01
250.036;000.035;69;000.508;MIDI 01
250.023;000.049;74;000.508;MIDI 01
250.042;000.030;78;000.539;MIDI 01
249.442;000.647;76;000.516;MIDI 01
250.323;000.028;59;000.453;MIDI 01
250.338;000.032;64;000.352;MIDI 01
250.327;000.057;65;000.445;MIDI 01
250.344;000.043;66;000.250;MIDI 01
250.339;000.051;67;000.430;MIDI 01
250.620;000.121;64;000.367;MIDI 01
250.640;000.119;54;000.414;MIDI 01
250.634;000.169;68;000.383;MIDI 01
250.632;000.194;70;000.398;MIDI 01
250.630;000.202;73;000.469;MIDI 01
250.805;000.040;66;000.469;MIDI 01
251.029;000.041;78;000.516;MIDI 01
251.371;000.031;66;000.414;MIDI 01
251.367;000.131;78;000.516;MIDI 01
251.369;000.151;81;000.539;MIDI 01
251.373;000.178;75;000.508;MIDI 01
251.359;000.385;83;000.602;MIDI 01
251.721;000.124;47;000.539;MIDI 01
251.883;000.033;59;000.469;MIDI 01
252.025;000.041;76;000.547;MIDI 01
252.037;000.041;82;000.477;MIDI 01
252.020;000.088;84;000.641;MIDI 01
252.071;000.046;71;000.469;MIDI 01
252.314;000.035;81;000.547;MIDI 01
252.312;000.050;78;000.578;MIDI 01
252.336;000.032;84;000.367;MIDI 01
252.302;000.091;86;000.664;MIDI 01
252.426;000.037;71;000.555;MIDI 01
252.564;000.032;82;000.562;MIDI 01
252.583;000.028;79;000.414;MIDI 01
252.567;000.046;76;000.586;MIDI 01
252.555;000.066;84;000.609;MIDI 01
252.302;000.323;59;000.547;MIDI 01
252.812;000.074;47;000.547;MIDI 01
252.839;000.052;70;000.547;MIDI 01
252.842;000.049;72;000.484;MIDI 01
252.822;000.070;76;000.570;MIDI 01
252.824;000.077;79;000.547;MIDI 01
252.941;000.034;59;000.484;MIDI 01
253.094;000.035;67;000.539;MIDI 01
253.108;000.031;70;000.477;MIDI 01
253.081;000.060;72;000.578;MIDI 01
253.083;000.076;76;000.625;MIDI 01
253.356;000.028;59;000.484;MIDI 01
253.350;000.091;66;000.547;MIDI 01
253.338;000.115;69;000.531;MIDI 01
253.397;000.072;72;000.305;MIDI 01
253.344;000.161;74;000.555;MIDI 01
253.509;000.022;71;000.469;MIDI 01
253.473;000.075;72;000.281;MIDI 01
253.635;000.021;83;000.531;MIDI 01
253.656;000.041;71;000.422;MIDI 01
253.675;000.028;68;000.477;MIDI 01
253.660;000.044;74;000.562;MIDI 01
253.649;000.068;76;000.625;MIDI 01
253.947;000.040;61;000.516;MIDI 01
253.967;000.035;64;000.344;MIDI 01
253.942;000.062;69;000.500;MIDI 01
253.963;000.046;67;000.484;MIDI 01
253.975;000.036;47;000.438;MIDI 01
254.095;000.029;59;000.438;MIDI 01
254.251;000.234;71;000.453;MIDI 01
254.256;000.322;63;000.391;MIDI 01
254.582;000.030;59;000.422;MIDI 01
254.272;000.442;66;000.344;MIDI 01
254.260;000.466;69;000.461;MIDI 01
254.723;000.042;71;000.430;MIDI 01
255.323;000.032;71;000.344;MIDI 01
255.310;000.049;78;000.359;MIDI 01
255.330;000.105;84;000.289;MIDI 01
255.297;000.180;86;000.445;MIDI 01
255.453;000.029;83;000.477;MIDI 01
255.442;000.064;84;000.031;MIDI 01
255.625;000.022;95;000.492;MIDI 01
255.627;000.042;88;000.523;MIDI 01
255.639;000.036;86;000.500;MIDI 01
255.642;000.044;83;000.234;MIDI 01
255.664;000.037;80;000.320;MIDI 01
255.973;000.039;75;000.344;MIDI 01
256.014;000.030;79;000.414;MIDI 01
255.981;000.067;81;000.469;MIDI 01
256.015;000.058;59;000.375;MIDI 01
256.156;000.030;71;000.367;MIDI 01
256.320;000.283;83;000.398;MIDI 01
256.328;000.289;75;000.359;MIDI 01
256.318;000.308;81;000.367;MIDI 01
256.336;000.316;78;000.289;MIDI 01
256.676;000.061;47;000.344;MIDI 01
256.856;000.041;59;000.352;MIDI 01
257.079;000.266;67;000.398;MIDI 01
257.077;000.371;71;000.461;MIDI 01
257.423;000.036;59;000.336;MIDI 01
257.085;000.382;65;000.383;MIDI 01
257.061;000.511;74;000.555;MIDI 01
257.751;000.027;83;000.383;MIDI 01
257.554;000.273;71;000.562;MIDI 01
257.722;000.107;74;000.523;MIDI 01
257.727;000.106;77;000.578;MIDI 01
257.751;000.100;69;000.414;MIDI 01
257.742;000.117;67;000.461;MIDI 01
258.105;000.045;59;000.406;MIDI 01
258.113;000.053;62;000.367;MIDI 01
258.143;000.042;47;000.383;MIDI 01
258.104;000.080;65;000.453;MIDI 01
258.107;000.080;67;000.406;MIDI 01
258.309;000.044;59;000.398;MIDI 01
258.575;000.217;69;000.352;MIDI 01
258.577;000.229;71;000.414;MIDI 01
258.600;000.218;66;000.258;MIDI 01
258.593;000.236;63;000.305;MIDI 01
258.989;000.035;59;000.352;MIDI 01
259.119;000.057;61;000.391;MIDI 01
259.146;000.042;64;000.273;MIDI 01
259.127;000.065;67;000.344;MIDI 01
259.299;000.033;71;000.477;MIDI 01
259.111;000.396;69;000.352;MIDI 01
259.309;000.239;63;000.398;MIDI 01
259.311;000.239;66;000.398;MIDI 01
259.610;000.053;83;000.469;MIDI 01
259.720;000.031;59;000.414;MIDI 01
259.724;000.031;65;000.422;MIDI 01
259.730;000.031;67;000.367;MIDI 01
259.722;000.047;62;000.438;MIDI 01
259.890;000.028;71;000.391;MIDI 01
259.902;000.078;63;000.414;MIDI 01
259.874;000.150;66;000.500;MIDI 01
260.159;000.025;59;000.492;MIDI 01
260.282;000.025;61;000.492;MIDI 01
259.876;000.442;69;000.492;MIDI 01
260.299;000.032;67;000.398;MIDI 01
260.304;000.036;64;000.320;MIDI 01
260.496;000.065;75;000.492;MIDI 01
260.485;000.210;83;000.555;MIDI 01
260.521;000.184;81;000.477;MIDI 01
260.582;000.132;75;000.344;MIDI 01
260.495;000.222;78;000.477;MIDI 01
260.759;000.028;71;000.445;MIDI 01
260.897;000.033;73;000.461;MIDI 01
260.907;000.028;76;000.406;MIDI 01
260.892;000.090;79;000.484;MIDI 01
261.039;000.043;83;000.555;MIDI 01
260.881;000.385;81;000.492;MIDI 01
261.070;000.234;75;000.477;MIDI 01
261.050;000.260;78;000.516;MIDI 01
261.343;000.068;95;000.484;MIDI 01
261.466;000.043;77;000.453;MIDI 01
261.478;000.036;74;000.391;MIDI 01
261.484;000.036;71;000.281;MIDI 01
261.488;000.035;79;000.336;MIDI 01
261.623;000.042;83;000.461;MIDI 01
261.673;000.137;75;000.383;MIDI 01
261.641;000.208;78;000.430;MIDI 01
261.852;000.051;78;000.109;MIDI 01
261.951;000.096;71;000.453;MIDI 01
261.628;000.457;81;000.484;MIDI 01
262.103;000.031;73;000.414;MIDI 01
262.107;000.032;76;000.352;MIDI 01
262.083;000.059;79;000.477;MIDI 01
262.331;000.258;59;000.273;MIDI 01
262.302;000.395;83;000.414;MIDI 01
262.692;000.030;71;000.344;MIDI 01
262.971;000.299;83;000.445;MIDI 01
263.254;000.035;95;000.461;MIDI 01
262.325;001.351;75;000.336;MIDI 01
262.322;001.430;78;000.359;MIDI 01
263.832;000.028;71;000.398;MIDI 01
262.333;001.543;81;000.406;MIDI 01
263.553;000.342;83;000.461;MIDI 01
264.161;000.099;72;000.336;MIDI 01
264.148;000.537;83;000.383;MIDI 01
264.265;000.462;72;000.023;MIDI 01
264.153;000.584;76;000.344;MIDI 01
264.139;000.599;79;000.359;MIDI 01
264.135;000.626;81;000.352;MIDI 01
264.449;000.541;59;000.359;MIDI 01
265.095;000.318;77;000.375;MIDI 01
265.074;000.377;73;000.422;MIDI 01
265.067;000.393;83;000.414;MIDI 01
265.078;000.390;80;000.406;MIDI 01
265.076;000.393;81;000.445;MIDI 01
264.754;000.848;71;000.383;MIDI 01
265.767;000.406;74;000.391;MIDI 01
265.772;000.416;83;000.391;MIDI 01
265.783;000.454;81;000.367;MIDI 01
265.781;000.478;78;000.367;MIDI 01
265.459;001.379;59;000.336;MIDI 01
266.660;000.760;75;000.305;MIDI 01
266.658;000.850;83;000.289;MIDI 01
266.665;000.863;79;000.305;MIDI 01
266.188;001.369;71;000.273;MIDI 01
266.656;000.982;82;000.258;MIDI 01
267.394;000.303;59;000.203;MIDI 01
268.782;000.194;43;000.227;MIDI 01
269.010;000.058;50;000.312;MIDI 01
268.776;000.366;83;000.297;MIDI 01
269.217;000.029;81;000.398;MIDI 01
268.786;000.479;72;000.266;MIDI 01
268.797;000.471;76;000.242;MIDI 01
269.264;000.040;62;000.352;MIDI 01
269.587;000.028;64;000.414;MIDI 01
269.594;000.029;74;000.391;MIDI 01
269.610;000.041;69;000.289;MIDI 01
269.919;000.035;67;000.281;MIDI 01
269.931;000.041;71;000.273;MIDI 01
269.908;000.077;43;000.398;MIDI 01
269.919;000.152;76;000.406;MIDI 01
270.048;000.043;50;000.297;MIDI 01
270.181;000.034;79;000.531;MIDI 01
270.195;000.030;74;000.398;MIDI 01
270.210;000.032;64;000.438;MIDI 01
270.503;000.024;83;000.422;MIDI 01
270.500;000.041;66;000.297;MIDI 01
270.506;000.034;74;000.344;MIDI 01
270.523;000.032;78;000.289;MIDI 01
270.774;000.061;43;000.375;MIDI 01
270.891;000.047;50;000.383;MIDI 01
270.774;000.184;83;000.508;MIDI 01
270.795;000.225;76;000.430;MIDI 01
271.010;000.021;81;000.508;MIDI 01
270.797;000.243;72;000.391;MIDI 01
271.028;000.032;60;000.383;MIDI 01
271.071;000.044;62;000.289;MIDI 01
271.293;000.029;64;000.414;MIDI 01
271.291;000.033;74;000.555;MIDI 01
271.296;000.035;69;000.508;MIDI 01
271.546;000.035;67;000.430;MIDI 01
271.554;000.040;71;000.469;MIDI 01
271.541;000.056;43;000.477;MIDI 01
271.554;000.101;76;000.562;MIDI 01
271.658;000.034;50;000.383;MIDI 01
271.775;000.048;79;000.602;MIDI 01
271.804;000.021;74;000.477;MIDI 01
271.846;000.025;65;000.430;MIDI 01
271.844;000.049;64;000.227;MIDI 01
272.030;000.026;66;000.508;MIDI 01
272.047;000.035;74;000.492;MIDI 01
272.050;000.032;78;000.492;MIDI 01
272.045;000.061;83;000.648;MIDI 01
272.404;000.081;43;000.453;MIDI 01
272.584;000.036;55;000.539;MIDI 01
272.371;000.283;88;000.656;MIDI 01
272.386;000.272;79;000.570;MIDI 01
272.398;000.318;81;000.516;MIDI 01
272.817;000.054;67;000.477;MIDI 01
272.800;000.125;77;000.578;MIDI 01
272.804;000.121;79;000.594;MIDI 01
272.793;000.182;86;000.664;MIDI 01
273.095;000.053;66;000.344;MIDI 01
273.127;000.028;68;000.398;MIDI 01
272.826;000.357;59;000.492;MIDI 01
273.132;000.074;80;000.594;MIDI 01
273.156;000.053;78;000.555;MIDI 01
273.134;000.153;88;000.727;MIDI 01
273.565;000.066;81;000.375;MIDI 01
273.549;000.189;48;000.422;MIDI 01
273.542;000.214;79;000.500;MIDI 01
273.634;000.167;81;000.133;MIDI 01
273.780;000.048;55;000.453;MIDI 01
273.529;000.495;86;000.609;MIDI 01
274.021;000.050;84;000.539;MIDI 01
274.044;000.029;67;000.438;MIDI 01
274.039;000.048;76;000.422;MIDI 01
274.539;000.101;70;000.344;MIDI 01
274.497;000.173;68;000.492;MIDI 01
274.508;000.164;74;000.500;MIDI 01
274.494;000.203;76;000.562;MIDI 01
274.751;000.040;52;000.391;MIDI 01
274.520;000.273;40;000.398;MIDI 01
274.976;000.071;67;000.461;MIDI 01
275.001;000.050;73;000.320;MIDI 01
274.975;000.083;69;000.492;MIDI 01
274.985;000.083;45;000.477;MIDI 01
274.958;000.119;75;000.508;MIDI 01
274.954;000.155;81;000.664;MIDI 01
275.270;000.074;38;000.398;MIDI 01
275.268;000.079;83;000.562;MIDI 01
275.282;000.067;74;000.430;MIDI 01
275.290;000.067;72;000.422;MIDI 01
275.281;000.075;78;000.492;MIDI 01
275.410;000.043;50;000.391;MIDI 01
275.604;000.037;64;000.422;MIDI 01
275.598;000.044;69;000.414;MIDI 01
275.611;000.040;62;000.359;MIDI 01
275.616;000.039;60;000.336;MIDI 01
275.587;000.321;74;000.609;MIDI 01
275.945;000.100;43;000.320;MIDI 01
275.938;000.130;67;000.383;MIDI 01
275.925;000.173;76;000.500;MIDI 01
275.940;000.176;71;000.406;MIDI 01
276.097;000.041;50;000.422;MIDI 01
276.251;000.025;62;000.508;MIDI 01
276.255;000.023;64;000.523;MIDI 01
276.635;000.030;62;000.445;MIDI 01
276.631;000.036;64;000.453;MIDI 01
276.938;000.060;38;000.438;MIDI 01
276.934;000.104;76;000.430;MIDI 01
276.940;000.107;72;000.336;MIDI 01
276.954;000.095;74;000.352;MIDI 01
276.923;000.303;81;000.508;MIDI 01
277.226;000.025;83;000.469;MIDI 01
277.233;000.026;78;000.469;MIDI 01
277.516;000.029;64;000.414;MIDI 01
277.511;000.036;69;000.484;MIDI 01
277.511;000.265;74;000.555;MIDI 01
277.782;000.073;43;000.406;MIDI 01
277.793;000.129;67;000.398;MIDI 01
277.784;000.154;76;000.500;MIDI 01
277.795;000.156;71;000.414;MIDI 01
277.936;000.044;50;000.375;MIDI 01
278.085;000.024;64;000.508;MIDI 01
278.107;000.041;62;000.297;MIDI 01
278.493;000.032;62;000.430;MIDI 01
278.493;000.034;64;000.344;MIDI 01
278.835;000.066;64;000.258;MIDI 01
278.854;000.049;60;000.273;MIDI 01
278.855;000.059;62;000.328;MIDI 01
278.861;000.078;38;000.305;MIDI 01
278.854;000.386;69;000.367;MIDI 01
279.247;000.083;71;000.422;MIDI 01
279.291;000.049;66;000.414;MIDI 01
279.294;000.073;60;000.375;MIDI 01
279.304;000.065;62;000.289;MIDI 01
279.680;000.050;57;000.406;MIDI 01
279.704;000.068;52;000.289;MIDI 01
279.665;000.515;62;000.477;MIDI 01
280.228;000.467;59;000.367;MIDI 01
280.240;000.479;43;000.250;MIDI 01
280.207;000.706;64;000.461;MIDI 01
280.710;000.285;50;000.250;MIDI 01
281.034;000.069;52;000.266;MIDI 01
281.057;000.049;57;000.328;MIDI 01
281.189;000.036;62;000.523;MIDI 01
281.355;000.053;59;000.523;MIDI 01
281.424;000.245;57;000.297;MIDI 01
281.643;000.032;50;000.422;MIDI 01
281.372;000.572;64;000.523;MIDI 01
282.044;000.033;62;000.398;MIDI 01
282.170;000.304;43;000.352;MIDI 01
282.436;000.239;50;000.391;MIDI 01
282.728;000.034;57;000.391;MIDI 01
282.736;000.048;52;000.336;MIDI 01
282.170;000.693;64;000.539;MIDI 01
282.880;000.031;62;000.359;MIDI 01
283.169;000.117;71;000.320;MIDI 01
283.289;000.136;71;000.078;MIDI 01
283.166;000.317;43;000.211;MIDI 01
283.519;000.044;50;000.367;MIDI 01
283.122;000.545;76;000.523;MIDI 01
283.676;000.058;74;000.477;MIDI 01
283.690;000.048;69;000.367;MIDI 01
283.964;000.353;71;000.305;MIDI 01
283.924;000.708;76;000.453;MIDI 01
284.565;000.133;69;000.297;MIDI 01
284.545;000.333;74;000.383;MIDI 01
284.917;000.574;71;000.258;MIDI 01
284.387;001.200;62;000.336;MIDI 01
284.895;001.378;76;000.375;MIDI 01
285.596;000.948;69;000.086;MIDI 01
285.575;001.169;64;000.172;MIDI 01
286.277;000.467;74;000.242;MIDI 01
288.017;000.100;83;000.250;MIDI 01
288.032;000.381;49;000.180;MIDI 01
288.002;000.653;88;000.422;MIDI 01
288.683;000.076;77;000.352;MIDI 01
288.695;000.070;80;000.266;MIDI 01
288.579;000.208;56;000.242;MIDI 01
288.792;000.202;88;000.484;MIDI 01
288.811;000.274;83;000.383;MIDI 01
289.060;000.059;74;000.438;MIDI 01
289.089;000.042;71;000.250;MIDI 01
289.142;000.096;79;000.344;MIDI 01
289.172;000.148;76;000.258;MIDI 01
289.247;000.140;85;000.469;MIDI 01
289.276;000.226;82;000.352;MIDI 01
289.625;000.068;74;000.328;MIDI 01
289.634;000.065;77;000.328;MIDI 01
289.760;000.194;46;000.305;MIDI 01
289.728;000.267;80;000.336;MIDI 01
289.709;000.296;83;000.391;MIDI 01
289.984;000.041;56;000.383;MIDI 01
290.078;000.058;74;000.352;MIDI 01
290.069;000.087;76;000.430;MIDI 01
290.156;000.073;62;000.383;MIDI 01
290.148;000.166;83;000.484;MIDI 01
290.161;000.234;79;000.469;MIDI 01
290.372;000.027;68;000.438;MIDI 01
290.488;000.072;74;000.367;MIDI 01
290.475;000.104;71;000.453;MIDI 01
290.565;000.041;76;000.492;MIDI 01
290.557;000.291;79;000.531;MIDI 01
290.886;000.027;70;000.461;MIDI 01
290.868;000.062;75;000.477;MIDI 01
290.951;000.104;69;000.430;MIDI 01
290.992;000.116;39;000.367;MIDI 01
290.948;000.198;77;000.531;MIDI 01
290.961;000.234;73;000.445;MIDI 01
291.170;000.035;51;000.414;MIDI 01
291.273;000.023;68;000.500;MIDI 01
291.274;000.100;72;000.562;MIDI 01
291.389;000.033;71;000.391;MIDI 01
291.351;000.216;77;000.586;MIDI 01
291.555;000.040;61;000.547;MIDI 01
291.368;000.251;73;000.477;MIDI 01
291.651;000.029;66;000.398;MIDI 01
291.660;000.095;70;000.469;MIDI 01
291.770;000.053;51;000.406;MIDI 01
291.773;000.123;73;000.477;MIDI 01
291.784;000.297;77;000.383;MIDI 01
292.158;000.061;67;000.320;MIDI 01
292.152;000.183;71;000.383;MIDI 01
292.366;000.044;77;000.383;MIDI 01
292.363;000.055;72;000.383;MIDI 01
292.393;000.046;32;000.328;MIDI 01
292.688;000.035;50;000.383;MIDI 01
292.776;000.046;56;000.352;MIDI 01
292.870;000.032;60;000.375;MIDI 01
292.982;000.036;65;000.438;MIDI 01
293.062;000.025;68;000.500;MIDI 01
292.966;000.134;51;000.320;MIDI 01
293.140;000.035;56;000.359;MIDI 01
293.167;000.044;72;000.367;MIDI 01
293.248;000.034;65;000.344;MIDI 01
293.282;000.049;62;000.547;MIDI 01
293.389;000.039;68;000.492;MIDI 01
293.409;000.049;72;000.484;MIDI 01
293.477;000.026;77;000.430;MIDI 01
293.443;000.076;63;000.234;MIDI 01
293.550;000.036;74;000.594;MIDI 01
293.648;000.057;80;000.539;MIDI 01
293.677;000.042;75;000.234;MIDI 01
293.749;000.080;84;000.461;MIDI 01
293.869;000.097;89;000.422;MIDI 01
294.132;000.117;83;000.352;MIDI 01
294.124;000.256;49;000.312;MIDI 01
294.106;000.406;88;000.383;MIDI 01
294.459;000.079;56;000.336;MIDI 01
294.501;000.093;77;000.359;MIDI 01
294.526;000.071;80;000.367;MIDI 01
294.643;000.048;65;000.383;MIDI 01
294.626;000.180;88;000.516;MIDI 01
294.600;000.260;83;000.469;MIDI 01
294.877;000.034;71;000.359;MIDI 01
294.891;000.039;74;000.312;MIDI 01
294.943;000.074;79;000.422;MIDI 01
294.947;000.123;76;000.406;MIDI 01
295.023;000.117;82;000.453;MIDI 01
295.027;000.160;85;000.508;MIDI 01
295.344;000.056;74;000.453;MIDI 01
295.351;000.080;77;000.469;MIDI 01
295.443;000.243;83;000.492;MIDI 01
295.448;000.240;46;000.352;MIDI 01
295.701;000.039;56;000.422;MIDI 01
295.441;000.300;80;000.461;MIDI 01
295.772;000.086;74;000.500;MIDI 01
295.780;000.080;76;000.469;MIDI 01
295.868;000.140;62;000.461;MIDI 01
295.842;000.173;83;000.578;MIDI 01
295.843;000.265;79;000.516;MIDI 01
296.092;000.025;68;000.523;MIDI 01
296.158;000.107;74;000.477;MIDI 01
296.160;000.123;71;000.516;MIDI 01
296.268;000.042;76;000.531;MIDI 01
296.254;000.321;79;000.594;MIDI 01
296.559;000.049;70;000.445;MIDI 01
296.533;000.105;75;000.531;MIDI 01
296.642;000.131;69;000.531;MIDI 01
296.670;000.136;39;000.406;MIDI 01
296.641;000.203;77;000.578;MIDI 01
296.644;000.247;73;000.523;MIDI 01
296.861;000.038;51;000.484;MIDI 01
296.961;000.039;68;000.562;MIDI 01
296.982;000.083;72;000.500;MIDI 01
297.109;000.058;71;000.375;MIDI 01
297.045;000.200;77;000.570;MIDI 01
297.265;000.045;61;000.539;MIDI 01
297.054;000.280;73;000.547;MIDI 01
297.359;000.028;66;000.430;MIDI 01
297.363;000.094;70;000.469;MIDI 01
297.494;000.045;51;000.477;MIDI 01
297.479;000.176;73;000.469;MIDI 01
297.479;000.222;77;000.469;MIDI 01
297.719;000.046;39;000.453;MIDI 01
297.827;000.064;67;000.312;MIDI 01
297.821;000.098;71;000.336;MIDI 01
297.967;000.047;36;000.328;MIDI 01
297.973;000.123;77;000.461;MIDI 01
297.950;000.284;72;000.375;MIDI 01
298.239;000.077;75;000.469;MIDI 01
298.325;000.058;76;000.406;MIDI 01
298.400;000.039;66;000.516;MIDI 01
298.489;000.033;67;000.367;MIDI 01
298.503;000.039;72;000.453;MIDI 01
298.562;000.103;75;000.492;MIDI 01
298.679;000.080;78;000.438;MIDI 01
298.883;000.046;79;000.336;MIDI 01
298.846;000.088;84;000.375;MIDI 01
298.875;000.071;76;000.406;MIDI 01
299.844;000.611;64;000.195;MIDI 01
299.835;000.626;60;000.297;MIDI 01
300.351;000.135;55;000.281;MIDI 01
300.440;000.145;59;000.344;MIDI 01
300.442;000.222;52;000.352;MIDI 01
300.579;000.280;64;000.461;MIDI 01
300.562;000.321;60;000.359;MIDI 01
300.938;000.103;58;000.508;MIDI 01
300.922;000.153;52;000.484;MIDI 01
300.814;000.440;48;000.438;MIDI 01
301.270;000.048;42;000.500;MIDI 01
301.028;000.352;60;000.531;MIDI 01
301.393;000.031;52;000.383;MIDI 01
301.025;000.405;64;000.547;MIDI 01
301.387;000.097;57;000.492;MIDI 01
301.587;000.249;37;000.344;MIDI 01
301.573;000.276;64;000.492;MIDI 01
301.602;000.275;63;000.414;MIDI 01
301.865;000.047;44;000.477;MIDI 01
301.853;000.088;61;000.562;MIDI 01
302.100;000.046;59;000.445;MIDI 01
302.146;000.094;61;000.500;MIDI 01
302.248;000.041;63;000.469;MIDI 01
302.356;000.088;63;000.453;MIDI 01
302.415;000.265;54;000.156;MIDI 01
302.448;000.234;63;000.234;MIDI 01
302.427;000.295;64;000.344;MIDI 01
302.400;000.326;58;000.297;MIDI 01
302.744;000.213;53;000.273;MIDI 01
302.732;000.251;57;000.352;MIDI 01
302.717;000.419;61;000.375;MIDI 01
303.142;000.130;52;000.258;MIDI 01
303.128;000.227;56;000.273;MIDI 01
303.705;000.458;76;000.367;MIDI 01
303.722;000.485;72;000.320;MIDI 01
304.214;000.108;64;000.391;MIDI 01
304.207;000.119;71;000.406;MIDI 01
304.107;000.228;67;000.359;MIDI 01
304.320;000.245;76;000.508;MIDI 01
304.343;000.306;72;000.461;MIDI 01
304.688;000.116;64;000.508;MIDI 01
304.700;000.108;70;000.531;MIDI 01
304.578;000.288;60;000.484;MIDI 01
304.782;000.198;76;000.539;MIDI 01
305.041;000.028;54;000.461;MIDI 01
304.803;000.283;72;000.539;MIDI 01
305.159;000.043;69;000.508;MIDI 01
305.160;000.044;64;000.469;MIDI 01
305.369;000.268;72;000.461;MIDI 01
305.378;000.265;76;000.398;MIDI 01
305.352;000.325;47;000.328;MIDI 01
305.672;000.087;56;000.391;MIDI 01
305.674;000.163;71;000.453;MIDI 01
305.881;000.048;64;000.398;MIDI 01
305.913;000.057;68;000.445;MIDI 01
305.999;000.072;71;000.539;MIDI 01
306.072;000.024;72;000.469;MIDI 01
306.201;000.067;72;000.469;MIDI 01
306.224;000.195;68;000.430;MIDI 01
306.272;000.247;72;000.125;MIDI 01
306.516;000.033;71;000.555;MIDI 01
306.534;000.200;56;000.250;MIDI 01
306.176;000.667;76;000.516;MIDI 01
306.845;000.029;68;000.414;MIDI 01
306.850;000.032;64;000.383;MIDI 01
307.293;000.073;47;000.344;MIDI 01
307.282;000.186;80;000.516;MIDI 01
307.280;000.464;77;000.523;MIDI 01
307.744;000.051;68;000.461;MIDI 01
307.755;000.086;72;000.469;MIDI 01
307.690;000.463;60;000.289;MIDI 01
307.854;000.329;77;000.508;MIDI 01
307.850;000.333;80;000.555;MIDI 01
308.198;000.090;69;000.500;MIDI 01
308.207;000.100;73;000.477;MIDI 01
307.676;000.685;65;000.352;MIDI 01
308.124;000.258;61;000.570;MIDI 01
307.692;000.743;57;000.281;MIDI 01
308.301;000.192;80;000.602;MIDI 01
308.562;000.026;65;000.461;MIDI 01
308.293;000.298;77;000.547;MIDI 01
308.571;000.028;62;000.523;MIDI 01
308.591;000.038;57;000.367;MIDI 01
308.663;000.081;69;000.508;MIDI 01
308.665;000.111;74;000.484;MIDI 01
308.799;000.269;80;000.492;MIDI 01
308.778;000.297;77;000.438;MIDI 01
309.147;000.031;75;000.367;MIDI 01
309.155;000.051;63;000.406;MIDI 01
309.161;000.072;58;000.320;MIDI 01
308.831;000.496;51;000.383;MIDI 01
309.126;000.271;78;000.445;MIDI 01
309.413;000.033;73;000.477;MIDI 01
309.421;000.031;70;000.383;MIDI 01
309.418;000.037;66;000.383;MIDI 01
309.780;000.035;47;000.328;MIDI 01
309.751;000.167;80;000.438;MIDI 01
309.776;000.416;77;000.352;MIDI 01
310.207;000.053;68;000.383;MIDI 01
310.212;000.083;72;000.430;MIDI 01
310.332;000.076;77;000.461;MIDI 01
310.120;000.471;60;000.312;MIDI 01
310.319;000.343;80;000.445;MIDI 01
310.604;000.178;61;000.367;MIDI 01
310.111;000.671;65;000.375;MIDI 01
310.711;000.097;73;000.406;MIDI 01
310.730;000.085;69;000.352;MIDI 01
310.124;000.697;57;000.344;MIDI 01
310.807;000.269;77;000.414;MIDI 01
310.818;000.291;80;000.492;MIDI 01
311.084;000.032;65;000.344;MIDI 01
311.102;000.048;62;000.250;MIDI 01
311.246;000.054;69;000.273;MIDI 01
311.220;000.198;74;000.422;MIDI 01
311.424;000.326;80;000.375;MIDI 01
311.418;000.418;77;000.352;MIDI 01
311.837;000.068;75;000.359;MIDI 01
311.843;000.514;63;000.234;MIDI 01
311.819;000.540;78;000.391;MIDI 01
312.369;000.033;66;000.281;MIDI 01
312.369;000.051;70;000.117;MIDI 01
311.848;000.579;58;000.211;MIDI 01
312.325;000.109;73;000.328;MIDI 01
311.416;001.075;51;000.289;MIDI 01
313.082;000.249;85;000.422;MIDI 01
313.115;000.339;81;000.156;MIDI 01
313.146;000.387;42;000.156;MIDI 01
313.099;000.482;76;000.328;MIDI 01
313.691;000.029;73;000.391;MIDI 01
313.693;000.062;78;000.406;MIDI 01
313.602;000.215;49;000.258;MIDI 01
313.866;000.090;57;000.297;MIDI 01
313.849;000.110;80;000.383;MIDI 01
313.851;000.137;83;000.398;MIDI 01
313.874;000.237;75;000.266;MIDI 01
314.119;000.034;64;000.352;MIDI 01
314.217;000.094;72;000.422;MIDI 01
314.234;000.115;76;000.398;MIDI 01
314.339;000.039;81;000.414;MIDI 01
314.351;000.041;73;000.281;MIDI 01
314.394;000.047;78;000.398;MIDI 01
314.768;000.045;68;000.258;MIDI 01
314.768;000.124;72;000.375;MIDI 01
314.876;000.220;39;000.328;MIDI 01
314.878;000.284;80;000.359;MIDI 01
315.144;000.037;51;000.383;MIDI 01
314.870;000.345;77;000.398;MIDI 01
315.242;000.105;69;000.391;MIDI 01
315.352;000.057;57;000.250;MIDI 01
315.257;000.165;72;000.312;MIDI 01
315.341;000.123;75;000.445;MIDI 01
315.358;000.129;78;000.500;MIDI 01
315.580;000.028;63;000.430;MIDI 01
315.686;000.042;66;000.258;MIDI 01
315.672;000.104;68;000.461;MIDI 01
315.785;000.181;76;000.500;MIDI 01
315.783;000.324;72;000.469;MIDI 01
316.132;000.170;69;000.469;MIDI 01
316.248;000.090;35;000.367;MIDI 01
316.234;000.190;65;000.445;MIDI 01
316.470;000.030;47;000.453;MIDI 01
316.240;000.319;73;000.484;MIDI 01
316.580;000.018;64;000.484;MIDI 01
316.585;000.097;68;000.477;MIDI 01
316.703;000.029;63;000.352;MIDI 01
316.689;000.055;67;000.516;MIDI 01
316.693;000.116;73;000.508;MIDI 01
316.654;000.281;69;000.523;MIDI 01
316.934;000.016;57;000.547;MIDI 01
317.000;000.085;66;000.438;MIDI 01
316.998;000.110;62;000.438;MIDI 01
317.143;000.035;47;000.406;MIDI 01
317.082;000.272;69;000.516;MIDI 01
317.358;000.042;35;000.422;MIDI 01
317.109;000.302;73;000.539;MIDI 01
317.464;000.078;63;000.438;MIDI 01
317.485;000.121;67;000.391;MIDI 01
317.607;000.102;68;000.375;MIDI 01
317.617;000.093;73;000.453;MIDI 01
317.626;000.259;40;000.453;MIDI 01
317.925;000.060;55;000.391;MIDI 01
317.992;000.051;58;000.383;MIDI 01
317.972;000.102;47;000.359;MIDI 01
318.085;000.029;63;000.461;MIDI 01
318.171;000.037;56;000.430;MIDI 01
318.171;000.040;59;000.516;MIDI 01
318.255;000.035;64;000.406;MIDI 01
318.326;000.029;68;000.414;MIDI 01
318.428;000.052;67;000.477;MIDI 01
318.483;000.049;60;000.023;MIDI 01
318.485;000.070;70;000.578;MIDI 01
318.566;000.037;68;000.398;MIDI 01
318.576;000.030;75;000.578;MIDI 01
318.679;000.040;71;000.500;MIDI 01
318.751;000.038;76;000.516;MIDI 01
318.827;000.027;77;000.422;MIDI 01
318.895;000.053;76;000.484;MIDI 01
318.982;000.107;83;000.508;MIDI 01
319.072;000.114;85;000.469;MIDI 01
319.320;000.137;83;000.094;MIDI 01
319.281;000.239;87;000.469;MIDI 01
319.296;000.258;49;000.344;MIDI 01
319.637;000.068;56;000.383;MIDI 01
319.730;000.060;80;000.344;MIDI 01
319.690;000.144;77;000.430;MIDI 01
319.841;000.035;65;000.312;MIDI 01
319.802;000.240;83;000.461;MIDI 01
319.793;000.260;86;000.492;MIDI 01
320.050;000.043;74;000.461;MIDI 01
320.052;000.051;71;000.375;MIDI 01
320.103;000.107;79;000.445;MIDI 01
320.107;000.114;76;000.461;MIDI 01
320.223;000.139;82;000.453;MIDI 01
320.218;000.155;85;000.539;MIDI 01
320.572;000.081;74;000.484;MIDI 01
320.586;000.089;77;000.422;MIDI 01
320.657;000.255;83;000.531;MIDI 01
320.666;000.248;46;000.391;MIDI 01
320.666;000.264;80;000.477;MIDI 01
320.918;000.042;56;000.398;MIDI 01
321.016;000.087;76;000.500;MIDI 01
321.059;000.053;74;000.133;MIDI 01
321.109;000.093;62;000.406;MIDI 01
321.086;000.218;83;000.500;MIDI 01
321.359;000.026;68;000.453;MIDI 01
321.107;000.293;79;000.484;MIDI 01
321.486;000.070;74;000.406;MIDI 01
321.578;000.030;76;000.398;MIDI 01
321.476;000.142;71;000.477;MIDI 01
321.564;000.293;79;000.492;MIDI 01
321.902;000.039;70;000.375;MIDI 01
321.904;000.082;75;000.430;MIDI 01
321.992;000.181;69;000.469;MIDI 01
321.995;000.218;77;000.531;MIDI 01
322.041;000.196;39;000.414;MIDI 01
322.008;000.261;73;000.438;MIDI 01
322.279;000.029;51;000.508;MIDI 01
322.371;000.029;68;000.445;MIDI 01
322.382;000.093;72;000.484;MIDI 01
322.486;000.035;67;000.352;MIDI 01
322.490;000.055;71;000.500;MIDI 01
322.458;000.208;77;000.562;MIDI 01
322.453;000.246;73;000.461;MIDI 01
322.674;000.045;61;000.523;MIDI 01
322.786;000.044;66;000.430;MIDI 01
322.797;000.103;70;000.414;MIDI 01
322.911;000.046;51;000.422;MIDI 01
322.904;000.055;77;000.445;MIDI 01
322.911;000.060;73;000.430;MIDI 01
323.174;000.048;39;000.273;MIDI 01
323.309;000.086;67;000.359;MIDI 01
323.312;000.098;59;000.250;MIDI 01
323.323;000.148;64;000.281;MIDI 01
323.481;000.052;32;000.320;MIDI 01
323.503;000.125;70;000.398;MIDI 01
323.792;000.050;51;000.359;MIDI 01
323.796;000.076;68;000.398;MIDI 01
323.898;000.035;60;000.477;MIDI 01
323.977;000.038;65;000.453;MIDI 01
324.047;000.035;68;000.477;MIDI 01
324.050;000.034;63;000.352;MIDI 01
324.142;000.027;71;000.477;MIDI 01
324.242;000.049;74;000.445;MIDI 01
324.389;000.090;80;000.391;MIDI 01
324.414;000.073;75;000.344;MIDI 01
324.426;000.077;72;000.258;MIDI 01
325.422;000.628;64;000.375;MIDI 01
325.965;000.150;55;000.391;MIDI 01
325.467;000.677;60;000.281;MIDI 01
326.080;000.070;52;000.297;MIDI 01
326.065;000.139;59;000.383;MIDI 01
326.179;000.259;64;000.508;MIDI 01
326.168;000.365;60;000.281;MIDI 01
326.533;000.119;58;000.539;MIDI 01
326.521;000.166;52;000.484;MIDI 01
326.408;000.423;48;000.523;MIDI 01
326.857;000.062;42;000.523;MIDI 01
326.629;000.339;60;000.500;MIDI 01
326.983;000.033;52;000.398;MIDI 01
326.618;000.411;64;000.500;MIDI 01
326.978;000.105;57;000.523;MIDI 01
327.209;000.235;37;000.352;MIDI 01
327.182;000.270;64;000.461;MIDI 01
327.204;000.303;63;000.453;MIDI 01
327.474;000.054;44;000.484;MIDI 01
327.468;000.129;61;000.562;MIDI 01
327.677;000.070;55;000.406;MIDI 01
327.698;000.055;59;000.516;MIDI 01
327.758;000.092;61;000.539;MIDI 01
327.856;000.032;63;000.531;MIDI 01
327.977;000.268;54;000.320;MIDI 01
328.002;000.261;64;000.414;MIDI 01
327.975;000.346;58;000.258;MIDI 01
327.965;000.364;63;000.602;MIDI 01
328.335;000.222;53;000.336;MIDI 01
328.330;000.312;57;000.375;MIDI 01
328.331;000.444;61;000.492;MIDI 01
328.777;000.080;52;000.367;MIDI 01
328.767;000.136;56;000.352;MIDI 01
329.317;000.516;76;000.453;MIDI 01
329.326;000.529;72;000.398;MIDI 01
329.860;000.081;64;000.359;MIDI 01
329.730;000.219;67;000.367;MIDI 01
329.855;000.104;71;000.453;MIDI 01
329.948;000.223;76;000.586;MIDI 01
329.977;000.277;72;000.523;MIDI 01
330.316;000.095;64;000.539;MIDI 01
330.323;000.106;70;000.562;MIDI 01
330.222;000.272;60;000.391;MIDI 01
330.408;000.198;76;000.516;MIDI 01
330.417;000.265;72;000.523;MIDI 01
330.655;000.034;54;000.430;MIDI 01
330.792;000.043;64;000.445;MIDI 01
330.788;000.076;69;000.492;MIDI 01
330.969;000.270;72;000.438;MIDI 01
330.967;000.280;76;000.406;MIDI 01
330.949;000.341;47;000.336;MIDI 01
331.290;000.095;56;000.359;MIDI 01
331.279;000.116;71;000.453;MIDI 01
331.495;000.037;64;000.375;MIDI 01
331.544;000.050;68;000.414;MIDI 01
331.635;000.052;71;000.469;MIDI 01
331.867;000.227;68;000.352;MIDI 01
332.146;000.025;71;000.438;MIDI 01
331.804;000.659;76;000.477;MIDI 01
332.498;000.033;68;000.367;MIDI 01
332.496;000.039;64;000.336;MIDI 01
332.175;000.411;56;000.281;MIDI 01
332.974;000.052;47;000.250;MIDI 01
332.927;000.280;80;000.406;MIDI 01
332.944;000.442;77;000.352;MIDI 01
333.401;000.058;68;000.383;MIDI 01
333.426;000.067;72;000.375;MIDI 01
333.361;000.439;60;000.203;MIDI 01
333.534;000.276;80;000.453;MIDI 01
333.532;000.281;77;000.430;MIDI 01
333.884;000.071;69;000.383;MIDI 01
333.882;000.090;73;000.406;MIDI 01
333.337;000.669;65;000.320;MIDI 01
333.790;000.222;61;000.438;MIDI 01
333.365;000.666;57;000.250;MIDI 01
333.961;000.247;80;000.555;MIDI 01
333.957;000.266;77;000.492;MIDI 01
334.223;000.031;65;000.383;MIDI 01
334.233;000.032;57;000.352;MIDI 01
334.239;000.038;62;000.336;MIDI 01
334.298;000.050;69;000.461;MIDI 01
334.316;000.090;74;000.422;MIDI 01
334.408;000.228;80;000.492;MIDI 01
334.454;000.210;51;000.375;MIDI 01
334.410;000.290;77;000.438;MIDI 01
334.704;000.031;63;000.383;MIDI 01
334.712;000.038;75;000.477;MIDI 01
334.734;000.041;58;000.258;MIDI 01
334.709;000.246;78;000.492;MIDI 01
334.962;000.024;66;000.477;MIDI 01
334.973;000.035;73;000.484;MIDI 01
334.978;000.038;70;000.352;MIDI 01
335.280;000.033;47;000.375;MIDI 01
335.269;000.160;80;000.477;MIDI 01
335.275;000.404;77;000.414;MIDI 01
335.675;000.047;68;000.430;MIDI 01
335.683;000.081;72;000.438;MIDI 01
335.791;000.274;80;000.508;MIDI 01
335.584;000.495;60;000.320;MIDI 01
335.786;000.349;77;000.484;MIDI 01
335.592;000.651;65;000.328;MIDI 01
336.049;000.196;61;000.477;MIDI 01
335.604;000.643;57;000.289;MIDI 01
336.174;000.089;73;000.477;MIDI 01
336.174;000.092;69;000.445;MIDI 01
336.266;000.261;80;000.555;MIDI 01
336.518;000.028;65;000.445;MIDI 01
336.520;000.036;62;000.469;MIDI 01
336.270;000.290;77;000.570;MIDI 01
336.548;000.038;57;000.289;MIDI 01
336.648;000.058;69;000.500;MIDI 01
336.642;000.122;74;000.516;MIDI 01
336.808;000.275;80;000.516;MIDI 01
336.807;000.339;77;000.453;MIDI 01
337.140;000.037;75;000.500;MIDI 01
337.164;000.184;63;000.320;MIDI 01
337.169;000.255;58;000.258;MIDI 01
337.113;000.326;78;000.484;MIDI 01
337.443;000.040;70;000.383;MIDI 01
337.456;000.036;73;000.477;MIDI 01
337.458;000.053;66;000.367;MIDI 01
336.840;000.703;51;000.320;MIDI 01
337.985;000.051;81;000.312;MIDI 01
337.969;000.284;85;000.398;MIDI 01
338.047;000.247;81;000.102;MIDI 01
337.983;000.361;42;000.336;MIDI 01
337.965;000.404;76;000.305;MIDI 01
338.378;000.132;49;000.328;MIDI 01
338.523;000.029;73;000.445;MIDI 01
338.517;000.042;78;000.469;MIDI 01
338.675;000.118;57;000.336;MIDI 01
338.651;000.143;83;000.500;MIDI 01
338.649;000.207;80;000.477;MIDI 01
338.710;000.194;75;000.164;MIDI 01
338.904;000.033;64;000.430;MIDI 01
339.000;000.082;72;000.508;MIDI 01
339.011;000.096;76;000.492;MIDI 01
339.115;000.034;73;000.445;MIDI 01
339.105;000.048;81;000.578;MIDI 01
339.139;000.047;78;000.484;MIDI 01
339.481;000.046;68;000.398;MIDI 01
339.480;000.115;72;000.508;MIDI 01
339.585;000.206;39;000.461;MIDI 01
339.587;000.233;80;000.523;MIDI 01
339.572;000.293;77;000.484;MIDI 01
339.855;000.028;51;000.422;MIDI 01
339.939;000.139;72;000.398;MIDI 01
339.938;000.161;69;000.414;MIDI 01
339.996;000.144;75;000.523;MIDI 01
340.028;000.122;57;000.492;MIDI 01
340.036;000.137;78;000.562;MIDI 01
340.283;000.023;63;000.547;MIDI 01
340.371;000.040;66;000.430;MIDI 01
340.389;000.097;68;000.531;MIDI 01
340.482;000.197;76;000.578;MIDI 01
340.492;000.297;72;000.484;MIDI 01
340.863;000.189;69;000.453;MIDI 01
341.001;000.196;65;000.344;MIDI 01
341.031;000.206;35;000.328;MIDI 01
340.991;000.306;73;000.492;MIDI 01
341.280;000.029;47;000.477;MIDI 01
341.392;000.038;64;000.336;MIDI 01
341.385;000.053;68;000.430;MIDI 01
341.498;000.030;63;000.430;MIDI 01
341.490;000.073;67;000.539;MIDI 01
341.492;000.130;73;000.508;MIDI 01
341.460;000.274;69;000.539;MIDI 01
341.728;000.028;57;000.562;MIDI 01
341.804;000.087;66;000.492;MIDI 01
341.809;000.106;62;000.430;MIDI 01
341.965;000.051;47;000.492;MIDI 01
341.890;000.276;69;000.555;MIDI 01
342.134;000.033;35;000.531;MIDI 01
341.934;000.334;73;000.508;MIDI 01
342.269;000.067;63;000.445;MIDI 01
342.266;000.115;67;000.477;MIDI 01
342.384;000.082;68;000.477;MIDI 01
342.397;000.079;73;000.523;MIDI 01
342.399;000.250;40;000.547;MIDI 01
342.681;000.067;55;000.406;MIDI 01
342.748;000.055;58;000.430;MIDI 01
342.728;000.122;47;000.359;MIDI 01
342.842;000.038;63;000.484;MIDI 01
342.925;000.032;59;000.523;MIDI 01
342.928;000.033;56;000.430;MIDI 01
343.014;000.041;64;000.469;MIDI 01
343.076;000.032;68;000.516;MIDI 01
343.176;000.051;67;000.570;MIDI 01
343.165;000.105;59;000.430;MIDI 01
343.257;000.037;70;000.500;MIDI 01
343.332;000.025;75;000.445;MIDI 01
343.330;000.039;68;000.469;MIDI 01
343.421;000.039;71;000.555;MIDI 01
343.497;000.038;76;000.570;MIDI 01
343.572;000.024;79;000.445;MIDI 01
343.585;000.037;77;000.305;MIDI 01
343.602;000.028;80;000.453;MIDI 01
343.643;000.045;76;000.531;MIDI 01
343.734;000.080;83;000.562;MIDI 01
343.815;000.115;85;000.562;MIDI 01
344.012;000.154;83;000.305;MIDI 01
344.005;000.222;87;000.516;MIDI 01
344.021;000.314;49;000.367;MIDI 01
344.392;000.105;56;000.352;MIDI 01
344.459;000.135;77;000.359;MIDI 01
344.576;000.061;65;000.422;MIDI 01
344.522;000.252;86;000.547;MIDI 01
344.524;000.305;83;000.531;MIDI 01
344.801;000.046;74;000.516;MIDI 01
344.816;000.042;71;000.406;MIDI 01
344.882;000.087;76;000.359;MIDI 01
344.875;000.098;79;000.438;MIDI 01
344.964;000.148;85;000.547;MIDI 01
344.981;000.157;82;000.453;MIDI 01
345.401;000.045;74;000.297;MIDI 01
345.399;000.051;77;000.391;MIDI 01
345.493;000.257;46;000.305;MIDI 01
345.452;000.302;80;000.469;MIDI 01
345.758;000.041;56;000.383;MIDI 01
345.459;000.341;83;000.406;MIDI 01
345.837;000.100;76;000.445;MIDI 01
345.834;000.104;74;000.469;MIDI 01
345.961;000.070;62;000.406;MIDI 01
345.940;000.236;83;000.508;MIDI 01
345.954;000.264;79;000.461;MIDI 01
346.229;000.037;68;000.297;MIDI 01
346.328;000.068;74;000.375;MIDI 01
346.318;000.148;71;000.422;MIDI 01
346.440;000.039;76;000.359;MIDI 01
346.396;000.386;79;000.453;MIDI 01
346.815;000.041;70;000.367;MIDI 01
346.793;000.093;75;000.414;MIDI 01
346.927;000.241;69;000.336;MIDI 01
346.917;000.252;77;000.438;MIDI 01
346.952;000.265;39;000.312;MIDI 01
346.923;000.316;73;000.359;MIDI 01
347.246;000.044;51;000.398;MIDI 01
347.374;000.031;68;000.320;MIDI 01
347.356;000.121;72;000.469;MIDI 01
347.493;000.070;71;000.469;MIDI 01
347.450;000.168;73;000.391;MIDI 01
347.700;000.036;61;000.484;MIDI 01
347.436;000.312;77;000.531;MIDI 01
347.799;000.042;66;000.266;MIDI 01
347.799;000.094;70;000.391;MIDI 01
347.904;000.036;77;000.508;MIDI 01
347.904;000.046;73;000.422;MIDI 01
347.929;000.059;51;000.484;MIDI 01
348.252;000.046;39;000.328;MIDI 01
348.358;000.149;67;000.367;MIDI 01
348.379;000.163;59;000.289;MIDI 01
348.380;000.228;64;000.305;MIDI 01
348.654;000.044;32;000.352;MIDI 01
348.632;000.183;70;000.344;MIDI 01
348.979;000.055;51;000.414;MIDI 01
348.986;000.103;68;000.406;MIDI 01
349.094;000.041;60;000.461;MIDI 01
349.185;000.043;65;000.391;MIDI 01
349.255;000.033;68;000.500;MIDI 01
349.288;000.033;63;000.367;MIDI 01
349.371;000.028;71;000.461;MIDI 01
349.479;000.060;74;000.391;MIDI 01
349.701;000.143;75;000.328;MIDI 01
349.697;000.172;72;000.219;MIDI 01
349.666;000.203;80;000.336;MIDI 01
353.446;004.132;80;000.578;MIDI 01
357.435;000.289;81;000.336;MIDI 01
357.879;000.306;72;000.273;MIDI 01
357.885;000.311;74;000.266;MIDI 01
357.858;000.361;77;000.352;MIDI 01
358.519;000.576;72;000.266;MIDI 01
356.822;002.518;69;000.211;MIDI 01
358.545;000.947;74;000.227;MIDI 01
358.201;001.374;80;000.344;MIDI 01
359.420;000.192;81;000.375;MIDI 01
359.711;000.303;72;000.367;MIDI 01
359.681;000.357;74;000.336;MIDI 01
359.711;000.328;77;000.383;MIDI 01
360.293;000.321;72;000.289;MIDI 01
360.264;000.458;74;000.289;MIDI 01
361.478;000.233;81;000.336;MIDI 01
359.965;001.790;80;000.445;MIDI 01
361.801;000.206;72;000.383;MIDI 01
361.828;000.272;77;000.305;MIDI 01
361.837;000.278;74;000.320;MIDI 01
360.994;001.343;62;000.289;MIDI 01
362.341;000.046;69;000.219;MIDI 01
359.106;003.311;66;000.344;MIDI 01
362.332;000.087;75;000.461;MIDI 01
362.351;000.190;59;000.320;MIDI 01
362.332;000.318;73;000.422;MIDI 01
362.082;000.610;80;000.422;MIDI 01
362.579;000.127;85;000.539;MIDI 01
362.931;000.280;52;000.289;MIDI 01
362.919;000.345;79;000.453;MIDI 01
362.933;000.386;75;000.398;MIDI 01
363.281;000.114;80;000.375;MIDI 01
363.268;000.167;83;000.445;MIDI 01
363.559;000.056;68;000.375;MIDI 01
363.538;000.255;72;000.438;MIDI 01
363.792;000.064;71;000.422;MIDI 01
363.801;000.332;75;000.438;MIDI 01
364.198;000.289;68;000.266;MIDI 01
364.209;000.301;59;000.234;MIDI 01
364.185;000.534;73;000.352;MIDI 01
365.404;000.312;45;000.258;MIDI 01
364.677;001.415;80;000.367;MIDI 01
365.891;000.312;81;000.344;MIDI 01
366.245;000.117;60;000.273;MIDI 01
366.255;000.121;56;000.266;MIDI 01
366.243;000.297;72;000.297;MIDI 01
366.224;000.384;77;000.305;MIDI 01
366.260;000.582;52;000.211;MIDI 01
366.808;000.050;61;000.227;MIDI 01
367.300;000.073;41;000.453;MIDI 01
366.791;000.726;73;000.453;MIDI 01
367.551;000.165;81;000.461;MIDI 01
366.512;001.218;80;000.469;MIDI 01
367.807;000.078;60;000.344;MIDI 01
367.825;000.109;56;000.336;MIDI 01
367.812;000.246;72;000.406;MIDI 01
367.796;000.304;77;000.430;MIDI 01
367.816;000.339;51;000.281;MIDI 01
368.325;000.066;61;000.422;MIDI 01
368.323;000.081;57;000.367;MIDI 01
368.328;000.125;52;000.391;MIDI 01
369.012;000.185;35;000.344;MIDI 01
368.330;001.015;73;000.477;MIDI 01
368.049;001.484;80;000.523;MIDI 01
369.373;000.204;81;000.469;MIDI 01
369.688;000.074;60;000.320;MIDI 01
369.710;000.084;56;000.273;MIDI 01
369.684;000.250;72;000.383;MIDI 01
369.684;000.253;77;000.375;MIDI 01
369.716;000.331;51;000.242;MIDI 01
370.224;000.041;61;000.320;MIDI 01
370.247;000.039;57;000.250;MIDI 01
370.259;000.036;52;000.273;MIDI 01
369.938;000.525;80;000.461;MIDI 01
370.475;000.036;85;000.516;MIDI 01
370.216;000.342;73;000.500;MIDI 01
370.876;000.189;70;000.344;MIDI 01
370.886;000.179;40;000.258;MIDI 01
370.869;000.297;75;000.352;MIDI 01
370.859;000.396;79;000.383;MIDI 01
371.243;000.083;85;000.508;MIDI 01
370.890;000.571;47;000.266;MIDI 01
371.574;000.072;56;000.289;MIDI 01
371.569;000.219;71;000.383;MIDI 01
371.570;000.328;80;000.398;MIDI 01
371.900;000.030;83;000.469;MIDI 01
371.589;000.352;76;000.305;MIDI 01
372.350;000.212;68;000.266;MIDI 01
372.343;000.469;73;000.289;MIDI 01
372.845;000.167;72;000.312;MIDI 01
372.308;001.647;76;000.391;MIDI 01
373.928;000.072;78;000.367;MIDI 01
373.502;000.500;71;000.305;MIDI 01
374.269;000.090;71;000.203;MIDI 01
374.303;000.191;67;000.039;MIDI 01
374.238;000.274;72;000.367;MIDI 01
373.528;001.422;61;000.195;MIDI 01
374.809;000.698;71;000.375;MIDI 01
374.807;000.720;67;000.367;MIDI 01
374.522;001.028;76;000.438;MIDI 01
375.503;000.216;78;000.523;MIDI 01
375.782;000.210;66;000.414;MIDI 01
375.771;000.231;70;000.445;MIDI 01
375.767;000.315;72;000.500;MIDI 01
375.257;000.931;54;000.438;MIDI 01
376.285;000.518;47;000.391;MIDI 01
375.998;001.089;76;000.570;MIDI 01
376.277;000.892;65;000.445;MIDI 01
376.272;000.897;69;000.484;MIDI 01
377.098;000.323;74;000.539;MIDI 01
377.415;000.222;76;000.547;MIDI 01
377.422;000.228;68;000.453;MIDI 01
377.425;000.303;64;000.430;MIDI 01
377.673;000.436;71;000.570;MIDI 01
377.896;000.220;67;000.453;MIDI 01
377.902;000.226;63;000.484;MIDI 01
378.106;000.041;72;000.609;MIDI 01
376.797;001.642;43;000.492;MIDI 01
378.399;000.189;68;000.438;MIDI 01
378.395;000.197;63;000.375;MIDI 01
378.407;000.229;66;000.430;MIDI 01
378.411;000.309;60;000.398;MIDI 01
378.686;000.049;69;000.531;MIDI 01
378.693;000.049;67;000.516;MIDI 01
378.691;000.060;64;000.516;MIDI 01
378.451;000.564;36;000.289;MIDI 01
378.973;000.180;58;000.398;MIDI 01
378.955;000.200;61;000.469;MIDI 01
378.953;000.259;63;000.469;MIDI 01
379.268;000.098;62;000.453;MIDI 01
379.262;000.125;64;000.484;MIDI 01
379.265;000.130;59;000.414;MIDI 01
379.003;000.709;31;000.273;MIDI 01
379.668;000.185;64;000.320;MIDI 01
379.669;000.185;69;000.312;MIDI 01
379.698;000.189;36;000.242;MIDI 01
379.671;000.224;67;000.375;MIDI 01
380.646;000.373;79;000.484;MIDI 01
381.074;000.080;81;000.484;MIDI 01
381.416;000.250;74;000.383;MIDI 01
381.427;000.250;70;000.367;MIDI 01
381.399;000.312;75;000.445;MIDI 01
380.675;001.817;64;000.328;MIDI 01
381.945;000.700;70;000.375;MIDI 01
381.945;000.819;74;000.359;MIDI 01
381.653;001.137;79;000.492;MIDI 01
382.778;000.136;81;000.359;MIDI 01
383.039;000.235;69;000.352;MIDI 01
383.034;000.248;73;000.375;MIDI 01
383.038;000.245;75;000.391;MIDI 01
382.458;001.149;57;000.375;MIDI 01
383.581;000.623;50;000.227;MIDI 01
383.566;000.839;68;000.289;MIDI 01
384.197;000.260;47;000.312;MIDI 01
383.258;001.302;79;000.492;MIDI 01
383.540;001.135;72;000.375;MIDI 01
384.600;000.368;77;000.445;MIDI 01
384.981;000.183;62;000.320;MIDI 01
384.960;000.255;79;000.477;MIDI 01
384.974;000.259;67;000.352;MIDI 01
384.972;000.327;71;000.375;MIDI 01
385.260;000.156;70;000.500;MIDI 01
385.251;000.198;61;000.398;MIDI 01
385.281;000.192;66;000.320;MIDI 01
385.457;000.069;60;000.484;MIDI 01
385.454;000.256;65;000.391;MIDI 01
385.467;000.255;69;000.570;MIDI 01
385.702;000.029;64;000.430;MIDI 01
385.699;000.043;59;000.500;MIDI 01
385.688;000.065;68;000.500;MIDI 01
385.238;000.546;75;000.523;MIDI 01
385.708;000.085;76;000.562;MIDI 01
386.045;000.110;67;000.453;MIDI 01
386.049;000.216;72;000.438;MIDI 01
386.051;000.295;70;000.445;MIDI 01
386.390;000.029;72;000.297;MIDI 01
386.379;000.049;66;000.398;MIDI 01
386.360;000.078;74;000.500;MIDI 01
386.069;000.714;40;000.359;MIDI 01
386.722;000.239;67;000.328;MIDI 01
386.773;000.205;65;000.297;MIDI 01
387.175;000.106;70;000.344;MIDI 01
387.148;000.147;68;000.352;MIDI 01
386.752;000.601;62;000.352;MIDI 01
386.771;001.005;35;000.273;MIDI 01
387.751;000.260;64;000.227;MIDI 01
387.736;000.285;71;000.250;MIDI 01
387.766;000.267;40;000.172;MIDI 01
387.741;000.344;67;000.273;MIDI 01
389.279;000.529;83;000.266;MIDI 01
389.288;000.543;82;000.172;MIDI 01
389.293;000.620;44;000.117;MIDI 01
389.760;000.211;80;000.289;MIDI 01
389.722;000.274;85;000.359;MIDI 01
390.075;000.093;56;000.281;MIDI 01
390.029;000.219;79;000.328;MIDI 01
390.291;000.032;80;000.328;MIDI 01
390.010;000.317;83;000.359;MIDI 01
390.294;000.038;78;000.344;MIDI 01
390.535;000.036;71;000.312;MIDI 01
390.539;000.080;63;000.320;MIDI 01
390.529;000.211;75;000.344;MIDI 01
390.719;000.036;77;000.523;MIDI 01
390.748;000.046;72;000.141;MIDI 01
390.964;000.102;82;000.180;MIDI 01
390.958;000.170;83;000.367;MIDI 01
390.990;000.153;75;000.328;MIDI 01
391.168;000.045;80;000.328;MIDI 01
391.153;000.174;85;000.445;MIDI 01
391.392;000.059;79;000.297;MIDI 01
391.367;000.190;68;000.281;MIDI 01
391.369;000.194;83;000.383;MIDI 01
391.542;000.028;80;000.445;MIDI 01
391.575;000.028;78;000.375;MIDI 01
391.770;000.041;71;000.383;MIDI 01
391.807;000.035;61;000.312;MIDI 01
391.774;000.121;75;000.383;MIDI 01
392.020;000.045;74;000.398;MIDI 01
391.994;000.211;77;000.422;MIDI 01
392.349;000.130;80;000.453;MIDI 01
392.717;000.043;60;000.344;MIDI 01
392.729;000.051;69;000.422;MIDI 01
392.742;000.051;65;000.219;MIDI 01
392.380;000.542;42;000.242;MIDI 01
392.961;000.033;49;000.359;MIDI 01
392.990;000.041;66;000.281;MIDI 01
392.988;000.050;61;000.359;MIDI 01
392.979;000.067;70;000.398;MIDI 01
393.221;000.035;78;000.586;MIDI 01
393.480;000.041;60;000.297;MIDI 01
393.431;000.105;69;000.336;MIDI 01
393.480;000.060;65;000.250;MIDI 01
393.659;000.032;61;000.430;MIDI 01
393.659;000.046;70;000.539;MIDI 01
393.863;000.033;75;000.539;MIDI 01
393.849;000.084;61;000.336;MIDI 01
394.065;000.052;69;000.492;MIDI 01
394.084;000.034;60;000.398;MIDI 01
394.084;000.041;65;000.344;MIDI 01
394.260;000.041;49;000.289;MIDI 01
394.293;000.040;61;000.367;MIDI 01
394.290;000.067;70;000.406;MIDI 01
394.322;000.078;66;000.047;MIDI 01
394.515;000.033;70;000.500;MIDI 01
394.771;000.036;69;000.367;MIDI 01
394.796;000.069;65;000.258;MIDI 01
395.123;000.035;61;000.312;MIDI 01
395.099;000.064;66;000.391;MIDI 01
395.146;000.048;65;000.133;MIDI 01
395.748;000.302;84;000.273;MIDI 01
395.733;000.339;85;000.398;MIDI 01
396.084;000.049;82;000.383;MIDI 01
396.069;000.155;87;000.422;MIDI 01
395.770;000.459;46;000.203;MIDI 01
396.329;000.056;81;000.352;MIDI 01
396.346;000.047;58;000.250;MIDI 01
396.316;000.175;85;000.383;MIDI 01
396.521;000.030;82;000.344;MIDI 01
396.519;000.046;80;000.445;MIDI 01
396.735;000.044;73;000.422;MIDI 01
396.738;000.047;77;000.367;MIDI 01
396.766;000.054;65;000.383;MIDI 01
396.914;000.043;79;000.469;MIDI 01
396.935;000.027;76;000.367;MIDI 01
397.127;000.068;84;000.406;MIDI 01
397.202;000.052;77;000.242;MIDI 01
397.148;000.230;85;000.461;MIDI 01
397.363;000.047;82;000.383;MIDI 01
397.012;000.421;65;000.172;MIDI 01
397.346;000.149;87;000.461;MIDI 01
397.562;000.036;70;000.320;MIDI 01
397.536;000.182;85;000.430;MIDI 01
397.736;000.042;82;000.297;MIDI 01
397.745;000.041;80;000.398;MIDI 01
398.010;000.042;63;000.266;MIDI 01
398.001;000.071;73;000.336;MIDI 01
398.026;000.080;77;000.203;MIDI 01
398.266;000.044;76;000.391;MIDI 01
398.236;000.075;79;000.398;MIDI 01
398.583;000.139;82;000.414;MIDI 01
398.962;000.061;65;000.297;MIDI 01
398.962;000.061;74;000.430;MIDI 01
398.981;000.070;70;000.242;MIDI 01
398.615;000.623;44;000.266;MIDI 01
399.232;000.046;54;000.320;MIDI 01
399.235;000.080;66;000.289;MIDI 01
399.216;000.204;71;000.305;MIDI 01
399.221;000.203;75;000.367;MIDI 01
399.509;000.021;80;000.508;MIDI 01
399.733;000.040;74;000.344;MIDI 01
399.733;000.055;70;000.219;MIDI 01
399.733;000.069;71;000.242;MIDI 01
399.898;000.028;66;000.430;MIDI 01
399.897;000.049;75;000.445;MIDI 01
400.110;000.027;78;000.477;MIDI 01
400.095;000.044;66;000.422;MIDI 01
400.334;000.064;62;000.414;MIDI 01
400.334;000.067;70;000.422;MIDI 01
400.606;000.086;66;000.281;MIDI 01
400.640;000.084;56;000.242;MIDI 01
400.584;000.175;71;000.398;MIDI 01
400.622;000.167;63;000.406;MIDI 01
401.239;000.267;58;000.289;MIDI 01
401.240;000.464;62;000.297;MIDI 01
401.231;001.277;44;000.281;MIDI 01
401.703;001.165;63;000.336;MIDI 01
401.721;001.284;59;000.258;MIDI 01
400.867;002.433;68;000.500;MIDI 01
402.976;000.373;70;000.305;MIDI 01
403.367;000.470;62;000.336;MIDI 01
403.373;000.536;58;000.297;MIDI 01
403.382;000.722;65;000.344;MIDI 01
404.019;000.851;59;000.414;MIDI 01
404.024;000.874;63;000.391;MIDI 01
403.717;001.231;68;000.383;MIDI 01
404.830;000.185;70;000.516;MIDI 01
402.441;003.036;37;000.336;MIDI 01
405.158;000.375;62;000.406;MIDI 01
405.168;000.429;58;000.422;MIDI 01
405.158;000.561;65;000.445;MIDI 01
405.935;000.424;59;000.297;MIDI 01
405.947;000.602;63;000.359;MIDI 01
404.562;002.592;49;000.438;MIDI 01
405.515;002.233;68;000.406;MIDI 01
407.609;000.220;69;000.297;MIDI 01
408.031;000.331;60;000.219;MIDI 01
408.011;000.373;62;000.258;MIDI 01
408.047;000.345;57;000.148;MIDI 01
408.031;000.371;65;000.219;MIDI 01
407.086;001.456;47;000.164;MIDI 01
408.620;000.128;63;000.406;MIDI 01
408.607;000.252;61;000.367;MIDI 01
408.361;000.520;68;000.352;MIDI 01
408.864;000.038;73;000.359;MIDI 01
409.120;000.060;40;000.234;MIDI 01
409.111;000.091;61;000.320;MIDI 01
409.076;000.181;67;000.414;MIDI 01
409.321;000.066;68;000.352;MIDI 01
409.324;000.062;71;000.445;MIDI 01
409.165;000.248;47;000.164;MIDI 01
409.544;000.055;56;000.352;MIDI 01
409.527;000.192;72;000.477;MIDI 01
409.756;000.043;71;000.453;MIDI 01
409.743;000.253;75;000.516;MIDI 01
410.071;000.080;68;000.305;MIDI 01
410.034;000.310;73;000.492;MIDI 01
410.914;000.181;45;000.234;MIDI 01
410.386;000.994;80;000.391;MIDI 01
411.290;000.271;81;000.414;MIDI 01
411.640;000.072;56;000.258;MIDI 01
411.604;000.107;60;000.312;MIDI 01
411.587;000.290;72;000.320;MIDI 01
411.582;000.299;77;000.367;MIDI 01
411.623;000.308;51;000.266;MIDI 01
412.101;000.059;61;000.406;MIDI 01
412.131;000.048;57;000.211;MIDI 01
412.121;000.076;52;000.297;MIDI 01
412.640;000.176;41;000.422;MIDI 01
412.105;000.868;73;000.430;MIDI 01
411.840;001.245;80;000.469;MIDI 01
412.941;000.284;81;000.469;MIDI 01
413.256;000.181;60;000.336;MIDI 01
413.290;000.202;56;000.219;MIDI 01
413.251;000.331;77;000.328;MIDI 01
413.243;000.377;72;000.391;MIDI 01
413.929;000.095;61;000.305;MIDI 01
413.897;000.144;57;000.227;MIDI 01
413.273;000.852;51;000.250;MIDI 01
414.705;000.161;35;000.320;MIDI 01
413.881;001.291;73;000.352;MIDI 01
413.541;001.826;80;000.438;MIDI 01
415.136;000.312;81;000.391;MIDI 01
415.571;000.095;51;000.164;MIDI 01
415.529;000.148;60;000.211;MIDI 01
415.538;000.178;56;000.242;MIDI 01
415.476;000.344;77;000.344;MIDI 01
415.503;000.341;72;000.297;MIDI 01
416.210;000.093;61;000.320;MIDI 01
416.220;000.142;57;000.188;MIDI 01
416.208;000.229;52;000.219;MIDI 01
415.819;000.951;80;000.445;MIDI 01
416.704;000.085;85;000.438;MIDI 01
416.204;000.624;73;000.359;MIDI 01
417.335;000.335;40;000.195;MIDI 01
417.318;000.392;70;000.312;MIDI 01
417.330;000.385;47;000.227;MIDI 01
417.319;000.682;75;000.344;MIDI 01
417.299;000.772;79;000.391;MIDI 01
418.007;000.144;85;000.453;MIDI 01
418.628;000.207;76;000.359;MIDI 01
418.626;000.271;71;000.367;MIDI 01
418.654;000.281;56;000.211;MIDI 01
418.636;000.301;64;000.273;MIDI 01
418.620;000.716;80;000.383;MIDI 01
419.337;000.083;73;000.383;MIDI 01
419.337;001.222;83;000.383;MIDI 01
420.548;002.472;80;000.148;MIDI 01
420.542;002.544;71;000.258;MIDI 01
420.544;002.634;68;000.164;MIDI 01
420.528;002.760;76;000.352;MIDI 01
420.511;002.904;88;000.367;MIDI 01
426.480;000.327;56;000.125;MIDI 01
426.822;000.176;57;000.273;MIDI 01
426.502;000.607;49;000.172;MIDI 01
427.081;000.045;67;000.359;MIDI 01
427.096;000.041;65;000.367;MIDI 01
427.311;000.060;58;000.367;MIDI 01
427.091;000.445;55;000.297;MIDI 01
427.083;000.466;53;000.219;MIDI 01
427.511;000.044;43;000.305;MIDI 01
427.509;000.055;59;000.383;MIDI 01
427.707;000.036;67;000.359;MIDI 01
427.705;000.044;69;000.328;MIDI 01
427.718;000.037;65;000.305;MIDI 01
427.918;000.050;36;000.320;MIDI 01
427.914;000.055;63;000.430;MIDI 01
428.106;000.090;64;000.461;MIDI 01
428.283;000.040;57;000.320;MIDI 01
428.300;000.026;72;000.422;MIDI 01
428.308;000.024;69;000.414;MIDI 01
428.290;000.045;74;000.492;MIDI 01
428.295;000.045;55;000.320;MIDI 01
428.504;000.044;31;000.422;MIDI 01
428.498;000.052;66;000.453;MIDI 01
428.683;000.057;67;000.445;MIDI 01
428.858;000.034;72;000.508;MIDI 01
428.854;000.041;76;000.547;MIDI 01
428.856;000.045;60;000.297;MIDI 01
429.055;000.041;37;000.375;MIDI 01
429.048;000.061;70;000.555;MIDI 01
429.236;000.047;71;000.453;MIDI 01
429.390;000.028;65;000.453;MIDI 01
429.405;000.032;59;000.398;MIDI 01
429.401;000.051;76;000.523;MIDI 01
429.558;000.075;73;000.609;MIDI 01
429.398;000.255;79;000.570;MIDI 01
429.750;000.039;43;000.500;MIDI 01
429.730;000.142;74;000.570;MIDI 01
429.911;000.051;77;000.492;MIDI 01
429.904;000.131;82;000.562;MIDI 01
430.135;000.106;75;000.469;MIDI 01
430.144;000.143;48;000.352;MIDI 01
430.124;000.194;78;000.484;MIDI 01
430.332;000.130;81;000.508;MIDI 01
430.322;000.172;86;000.594;MIDI 01
430.353;000.143;55;000.391;MIDI 01
430.530;000.031;79;000.492;MIDI 01
430.547;000.043;76;000.508;MIDI 01
430.554;000.055;64;000.422;MIDI 01
430.807;000.301;72;000.305;MIDI 01
430.830;000.490;69;000.180;MIDI 01
430.828;000.516;48;000.375;MIDI 01
431.067;000.314;63;000.344;MIDI 01
431.342;000.056;71;000.375;MIDI 01
431.377;000.060;66;000.273;MIDI 01
431.374;000.326;43;000.250;MIDI 01
431.694;000.194;56;000.336;MIDI 01
431.931;000.070;57;000.375;MIDI 01
431.712;000.382;49;000.305;MIDI 01
432.152;000.028;67;000.453;MIDI 01
432.160;000.026;65;000.398;MIDI 01
432.336;000.136;58;000.406;MIDI 01
432.168;000.369;55;000.203;MIDI 01
432.160;000.392;53;000.211;MIDI 01
432.524;000.044;43;000.328;MIDI 01
432.531;000.055;59;000.445;MIDI 01
432.726;000.029;67;000.398;MIDI 01
432.729;000.029;65;000.383;MIDI 01
432.726;000.034;69;000.391;MIDI 01
432.917;000.040;36;000.430;MIDI 01
432.930;000.067;63;000.477;MIDI 01
433.118;000.059;64;000.484;MIDI 01
433.293;000.043;55;000.422;MIDI 01
433.302;000.033;57;000.375;MIDI 01
433.310;000.025;72;000.430;MIDI 01
433.312;000.029;74;000.383;MIDI 01
433.318;000.035;69;000.320;MIDI 01
433.505;000.048;31;000.453;MIDI 01
433.509;000.044;66;000.516;MIDI 01
433.706;000.049;67;000.469;MIDI 01
433.855;000.032;60;000.531;MIDI 01
433.863;000.027;64;000.461;MIDI 01
433.879;000.036;72;000.523;MIDI 01
433.881;000.036;76;000.523;MIDI 01
434.061;000.041;37;000.586;MIDI 01
434.072;000.074;70;000.578;MIDI 01
434.266;000.045;71;000.492;MIDI 01
434.425;000.022;65;000.508;MIDI 01
434.434;000.025;59;000.484;MIDI 01
434.432;000.135;76;000.570;MIDI 01
434.602;000.077;73;000.625;MIDI 01
434.436;000.254;79;000.562;MIDI 01
434.772;000.042;43;000.508;MIDI 01
434.776;000.099;74;000.578;MIDI 01
434.962;000.034;77;000.500;MIDI 01
434.949;000.101;82;000.539;MIDI 01
435.192;000.078;75;000.414;MIDI 01
435.171;000.142;48;000.375;MIDI 01
435.168;000.189;78;000.523;MIDI 01
435.374;000.114;55;000.430;MIDI 01
435.366;000.131;86;000.547;MIDI 01
435.377;000.136;81;000.523;MIDI 01
435.572;000.036;79;000.445;MIDI 01
435.587;000.027;64;000.422;MIDI 01
435.606;000.027;76;000.375;MIDI 01
435.891;000.091;72;000.383;MIDI 01
435.895;000.180;64;000.328;MIDI 01
435.988;000.122;72;000.023;MIDI 01
435.906;000.205;67;000.312;MIDI 01
436.666;000.095;68;000.359;MIDI 01
436.660;000.100;75;000.359;MIDI 01
436.841;000.031;74;000.406;MIDI 01
436.836;000.036;72;000.367;MIDI 01
436.849;000.042;76;000.367;MIDI 01
437.016;000.026;83;000.422;MIDI 01
437.211;000.045;62;000.320;MIDI 01
437.184;000.116;77;000.516;MIDI 01
437.397;000.027;72;000.375;MIDI 01
437.399;000.032;74;000.375;MIDI 01
437.396;000.146;84;000.477;MIDI 01
437.401;000.220;82;000.383;MIDI 01
437.609;000.160;78;000.461;MIDI 01
437.878;000.053;43;000.258;MIDI 01
437.836;000.214;81;000.430;MIDI 01
438.035;000.043;70;000.391;MIDI 01
438.060;000.088;79;000.516;MIDI 01
438.047;000.186;74;000.445;MIDI 01
438.264;000.038;69;000.297;MIDI 01
438.267;000.041;62;000.289;MIDI 01
438.272;000.038;58;000.328;MIDI 01
438.250;000.145;77;000.523;MIDI 01
438.434;000.034;65;000.344;MIDI 01
438.421;000.124;70;000.500;MIDI 01
438.595;000.028;57;000.445;MIDI 01
438.427;000.204;74;000.492;MIDI 01
438.609;000.035;50;000.383;MIDI 01
438.746;000.025;64;000.484;MIDI 01
438.601;000.192;72;000.562;MIDI 01
438.760;000.033;69;000.352;MIDI 01
438.766;000.048;74;000.594;MIDI 01
438.942;000.038;43;000.398;MIDI 01
438.923;000.173;81;000.586;MIDI 01
439.108;000.039;70;000.523;MIDI 01
439.108;000.046;74;000.484;MIDI 01
439.090;000.077;79;000.594;MIDI 01
439.260;000.042;74;000.555;MIDI 01
439.284;000.060;57;000.391;MIDI 01
439.446;000.025;64;000.484;MIDI 01
439.295;000.184;50;000.320;MIDI 01
439.448;000.031;69;000.477;MIDI 01
439.441;000.052;72;000.539;MIDI 01
439.701;000.002;65;000.227;MIDI 01
439.708;000.049;55;000.266;MIDI 01
439.721;000.044;62;000.281;MIDI 01
439.680;000.090;74;000.500;MIDI 01
439.690;000.094;70;000.398;MIDI 01
440.140;000.149;70;000.547;MIDI 01
440.120;000.224;77;000.594;MIDI 01
440.323;000.024;74;000.539;MIDI 01
440.318;000.034;76;000.422;MIDI 01
440.298;000.089;78;000.594;MIDI 01
440.458;000.040;86;000.609;MIDI 01
440.461;000.043;85;000.586;MIDI 01
440.647;000.040;64;000.484;MIDI 01
440.626;000.154;79;000.641;MIDI 01
440.856;000.029;74;000.406;MIDI 01
440.854;000.031;76;000.383;MIDI 01
440.840;000.190;86;000.578;MIDI 01
440.852;000.188;84;000.508;MIDI 01
441.041;000.194;80;000.578;MIDI 01
441.273;000.039;45;000.430;MIDI 01
441.258;000.207;83;000.570;MIDI 01
441.479;000.045;72;000.391;MIDI 01
441.491;000.096;81;000.547;MIDI 01
441.483;000.132;76;000.469;MIDI 01
441.680;000.046;60;000.500;MIDI 01
441.686;000.040;64;000.383;MIDI 01
441.692;000.044;71;000.250;MIDI 01
441.704;000.053;69;000.195;MIDI 01
441.675;000.169;79;000.594;MIDI 01
441.861;000.036;71;000.367;MIDI 01
441.859;000.055;67;000.438;MIDI 01
441.839;000.140;76;000.602;MIDI 01
442.006;000.032;59;000.555;MIDI 01
442.016;000.031;52;000.523;MIDI 01
442.027;000.090;71;000.141;MIDI 01
442.139;000.047;71;000.273;MIDI 01
442.022;000.184;74;000.602;MIDI 01
442.184;000.030;66;000.398;MIDI 01
442.169;000.075;76;000.516;MIDI 01
442.343;000.029;45;000.586;MIDI 01
442.358;000.151;83;000.641;MIDI 01
442.538;000.041;76;000.469;MIDI 01
442.533;000.052;72;000.477;MIDI 01
442.500;000.101;81;000.648;MIDI 01
442.696;000.036;59;000.523;MIDI 01
442.700;000.033;76;000.570;MIDI 01
442.698;000.106;52;000.539;MIDI 01
442.881;000.026;66;000.508;MIDI 01
442.871;000.041;71;000.508;MIDI 01
442.864;000.091;74;000.609;MIDI 01
443.056;000.028;64;000.617;MIDI 01
443.059;000.042;57;000.547;MIDI 01
443.081;000.032;72;000.484;MIDI 01
443.076;000.055;76;000.594;MIDI 01
443.448;000.039;37;000.664;MIDI 01
443.445;000.050;49;000.766;MIDI 01
443.450;000.274;79;000.711;MIDI 01
443.678;000.127;80;000.695;MIDI 01
443.855;000.060;64;000.586;MIDI 01
443.849;000.076;68;000.711;MIDI 01
443.853;000.096;56;000.648;MIDI 01
443.863;000.232;85;000.641;MIDI 01
443.851;000.254;88;000.664;MIDI 01
444.011;000.117;80;000.711;MIDI 01
444.150;000.028;64;000.562;MIDI 01
444.152;000.028;69;000.633;MIDI 01
444.163;000.054;57;000.664;MIDI 01
444.168;000.190;81;000.711;MIDI 01
444.317;000.211;85;000.680;MIDI 01
444.315;000.241;88;000.695;MIDI 01
444.514;000.176;30;000.664;MIDI 01
444.696;000.033;42;000.625;MIDI 01
444.535;000.197;81;000.727;MIDI 01
444.705;000.125;88;000.656;MIDI 01
444.709;000.149;85;000.648;MIDI 01
444.895;000.122;86;000.641;MIDI 01
444.894;000.148;82;000.680;MIDI 01
444.931;000.126;54;000.508;MIDI 01
445.097;000.043;64;000.531;MIDI 01
445.084;000.056;79;000.688;MIDI 01
445.106;000.043;58;000.539;MIDI 01
445.311;000.034;74;000.641;MIDI 01
445.099;000.391;84;000.617;MIDI 01
445.521;000.027;76;000.625;MIDI 01
445.298;000.278;79;000.594;MIDI 01
445.557;000.036;71;000.297;MIDI 01
445.676;000.046;76;000.023;MIDI 01
445.871;000.051;37;000.367;MIDI 01
445.846;000.312;67;000.594;MIDI 01
446.108;000.159;68;000.602;MIDI 01
446.325;000.078;64;000.492;MIDI 01
446.342;000.160;56;000.445;MIDI 01
446.329;000.205;73;000.570;MIDI 01
446.325;000.289;76;000.586;MIDI 01
446.491;000.158;68;000.625;MIDI 01
446.659;000.035;64;000.500;MIDI 01
446.680;000.041;57;000.469;MIDI 01
446.692;000.192;69;000.609;MIDI 01
446.871;000.190;73;000.508;MIDI 01
446.866;000.258;76;000.594;MIDI 01
447.064;000.215;30;000.430;MIDI 01
447.103;000.219;69;000.539;MIDI 01
447.300;000.044;42;000.445;MIDI 01
447.314;000.160;76;000.531;MIDI 01
447.314;000.206;73;000.508;MIDI 01
447.544;000.147;74;000.508;MIDI 01
447.542;000.165;70;000.555;MIDI 01
447.559;000.171;54;000.312;MIDI 01
447.788;000.047;67;000.461;MIDI 01
447.768;000.102;64;000.461;MIDI 01
448.058;000.047;62;000.445;MIDI 01
447.785;000.365;58;000.398;MIDI 01
448.039;000.135;67;000.344;MIDI 01
447.782;000.531;72;000.422;MIDI 01
448.422;000.031;60;000.391;MIDI 01
448.395;000.060;64;000.344;MIDI 01
448.939;000.182;47;000.312;MIDI 01
449.178;000.064;48;000.227;MIDI 01
448.917;000.416;42;000.383;MIDI 01
449.404;000.039;58;000.352;MIDI 01
449.427;000.052;60;000.148;MIDI 01
449.587;000.053;49;000.500;MIDI 01
449.776;000.043;50;000.422;MIDI 01
449.397;000.499;52;000.383;MIDI 01
449.930;000.039;54;000.359;MIDI 01
449.934;000.034;60;000.445;MIDI 01
449.939;000.035;62;000.375;MIDI 01
450.111;000.070;51;000.492;MIDI 01
450.123;000.192;42;000.383;MIDI 01
450.280;000.053;52;000.469;MIDI 01
450.465;000.033;62;000.375;MIDI 01
450.452;000.055;64;000.430;MIDI 01
450.449;000.061;56;000.484;MIDI 01
450.618;000.131;53;000.477;MIDI 01
450.771;000.042;54;000.453;MIDI 01
450.943;000.024;58;000.453;MIDI 01
450.959;000.044;64;000.500;MIDI 01
451.211;000.081;53;000.461;MIDI 01
451.434;000.043;54;000.430;MIDI 01
451.233;000.292;30;000.406;MIDI 01
451.607;000.041;42;000.367;MIDI 01
451.610;000.038;66;000.375;MIDI 01
451.622;000.038;64;000.391;MIDI 01
451.844;000.128;54;000.383;MIDI 01
451.869;000.144;52;000.414;MIDI 01
452.064;000.101;55;000.422;MIDI 01
452.299;000.033;66;000.391;MIDI 01
452.293;000.045;59;000.414;MIDI 01
452.312;000.031;64;000.344;MIDI 01
452.569;000.096;55;000.461;MIDI 01
452.804;000.051;56;000.391;MIDI 01
452.569;000.396;30;000.344;MIDI 01
453.035;000.053;42;000.297;MIDI 01
453.046;000.051;64;000.398;MIDI 01
453.072;000.054;66;000.141;MIDI 01
453.354;000.264;56;000.328;MIDI 01
453.384;000.874;50;000.203;MIDI 01
454.079;000.239;57;000.305;MIDI 01
454.477;000.070;66;000.234;MIDI 01
454.489;000.060;64;000.266;MIDI 01
454.489;000.073;60;000.203;MIDI 01
455.070;000.308;56;000.242;MIDI 01
455.429;000.087;57;000.258;MIDI 01
455.086;000.561;49;000.164;MIDI 01
455.669;000.070;65;000.344;MIDI 01
455.694;000.050;67;000.227;MIDI 01
455.877;000.069;58;000.398;MIDI 01
455.683;000.378;55;000.289;MIDI 01
455.678;000.408;53;000.258;MIDI 01
456.083;000.035;43;000.383;MIDI 01
456.083;000.047;59;000.453;MIDI 01
456.259;000.040;65;000.336;MIDI 01
456.250;000.049;67;000.391;MIDI 01
456.271;000.039;69;000.281;MIDI 01
456.467;000.058;36;000.336;MIDI 01
456.474;000.082;63;000.438;MIDI 01
456.666;000.069;64;000.391;MIDI 01
456.846;000.036;57;000.375;MIDI 01
456.868;000.029;72;000.422;MIDI 01
456.860;000.042;55;000.312;MIDI 01
456.863;000.040;74;000.414;MIDI 01
456.890;000.037;69;000.242;MIDI 01
457.058;000.040;31;000.516;MIDI 01
457.070;000.047;66;000.484;MIDI 01
457.258;000.061;67;000.453;MIDI 01
457.425;000.023;60;000.445;MIDI 01
457.442;000.041;72;000.508;MIDI 01
457.444;000.042;76;000.516;MIDI 01
457.452;000.069;64;000.070;MIDI 01
457.633;000.031;37;000.484;MIDI 01
457.633;000.079;70;000.570;MIDI 01
457.824;000.049;71;000.383;MIDI 01
457.997;000.032;65;000.508;MIDI 01
458.020;000.035;59;000.344;MIDI 01
458.003;000.061;76;000.414;MIDI 01
458.028;000.041;60;000.266;MIDI 01
458.156;000.085;73;000.586;MIDI 01
457.994;000.257;79;000.500;MIDI 01
458.351;000.039;43;000.516;MIDI 01
458.342;000.105;74;000.586;MIDI 01
458.531;000.046;77;000.469;MIDI 01
458.524;000.098;82;000.492;MIDI 01
458.750;000.059;75;000.438;MIDI 01
458.754;000.126;48;000.328;MIDI 01
458.739;000.182;78;000.500;MIDI 01
458.940;000.117;81;000.484;MIDI 01
458.958;000.130;55;000.398;MIDI 01
458.927;000.166;86;000.555;MIDI 01
459.146;000.029;79;000.375;MIDI 01
459.152;000.034;76;000.516;MIDI 01
459.163;000.049;64;000.453;MIDI 01
459.425;000.134;69;000.344;MIDI 01
459.396;000.244;72;000.414;MIDI 01
459.649;000.208;63;000.328;MIDI 01
459.600;000.285;69;000.078;MIDI 01
459.441;000.472;48;000.336;MIDI 01
459.900;000.050;71;000.430;MIDI 01
459.923;000.050;66;000.305;MIDI 01
459.952;000.281;43;000.281;MIDI 01
460.219;000.205;56;000.383;MIDI 01
460.462;000.062;57;000.414;MIDI 01
460.255;000.390;49;000.305;MIDI 01
460.682;000.039;65;000.430;MIDI 01
460.673;000.053;67;000.438;MIDI 01
460.829;000.119;58;000.508;MIDI 01
460.675;000.357;53;000.281;MIDI 01
460.692;000.345;55;000.320;MIDI 01
461.039;000.037;43;000.398;MIDI 01
461.020;000.076;59;000.539;MIDI 01
461.194;000.025;65;000.461;MIDI 01
461.183;000.042;67;000.531;MIDI 01
461.188;000.045;69;000.508;MIDI 01
461.382;000.035;36;000.438;MIDI 01
461.402;000.107;63;000.547;MIDI 01
461.568;000.083;64;000.578;MIDI 01
461.755;000.025;57;000.422;MIDI 01
461.759;000.036;55;000.359;MIDI 01
461.777;000.027;72;000.516;MIDI 01
461.777;000.032;74;000.531;MIDI 01
461.798;000.035;69;000.289;MIDI 01
461.977;000.045;31;000.508;MIDI 01
461.959;000.068;66;000.586;MIDI 01
462.146;000.064;67;000.562;MIDI 01
462.310;000.024;60;000.508;MIDI 01
462.336;000.012;64;000.438;MIDI 01
462.336;000.028;72;000.570;MIDI 01
462.336;000.035;76;000.570;MIDI 01
462.528;000.040;37;000.469;MIDI 01
462.525;000.085;70;000.594;MIDI 01
462.702;000.068;71;000.531;MIDI 01
462.891;000.033;65;000.469;MIDI 01
462.894;000.037;59;000.445;MIDI 01
462.889;000.098;76;000.500;MIDI 01
463.069;000.065;73;000.594;MIDI 01
462.885;000.277;79;000.531;MIDI 01
463.273;000.061;43;000.328;MIDI 01
463.434;000.039;77;000.492;MIDI 01
463.253;000.233;74;000.531;MIDI 01
463.446;000.089;82;000.453;MIDI 01
463.683;000.051;75;000.375;MIDI 01
463.666;000.140;78;000.461;MIDI 01
463.693;000.126;48;000.320;MIDI 01
463.886;000.075;81;000.422;MIDI 01
463.900;000.078;55;000.305;MIDI 01
463.877;000.145;86;000.461;MIDI 01
464.103;000.041;79;000.414;MIDI 01
464.110;000.038;64;000.344;MIDI 01
464.146;000.030;76;000.297;MIDI 01
464.460;000.389;64;000.328;MIDI 01
464.469;000.380;72;000.328;MIDI 01
464.482;000.400;67;000.312;MIDI 01
468.704;000.198;70;000.242;MIDI 01
468.711;000.403;72;000.227;MIDI 01
468.686;000.435;78;000.305;MIDI 01
468.690;000.544;74;000.258;MIDI 01
469.190;000.170;86;000.477;MIDI 01
469.230;000.152;81;000.250;MIDI 01
469.593;000.080;79;000.438;MIDI 01
469.600;000.099;75;000.344;MIDI 01
469.621;001.249;60;000.281;MIDI 01
471.283;000.807;60;000.320;MIDI 01
470.200;003.417;64;000.328;MIDI 01
470.198;003.547;68;000.328;MIDI 01
470.186;003.618;72;000.383;MIDI 01
475.167;000.081;76;000.336;MIDI 01
472.983;002.280;60;000.312;MIDI 01
475.251;000.286;76;000.125;MIDI 01
475.156;000.402;72;000.305;MIDI 01
475.182;000.378;71;000.258;MIDI 01
475.177;000.406;68;000.219;MIDI 01
475.506;000.174;84;000.469;MIDI 01
475.514;000.285;79;000.383;MIDI 01
475.881;000.082;77;000.414;MIDI 01
475.897;000.094;73;000.445;MIDI 01
475.913;001.048;60;000.234;MIDI 01
477.664;000.844;60;000.289;MIDI 01
476.411;003.347;62;000.344;MIDI 01
476.402;003.453;65;000.328;MIDI 01
476.382;003.518;69;000.398;MIDI 01
479.221;002.757;60;000.273;MIDI 01
481.640;000.767;72;000.312;MIDI 01
481.637;000.816;68;000.281;MIDI 01
482.378;000.100;75;000.242;MIDI 01
482.353;000.450;78;000.305;MIDI 01
481.671;001.325;66;000.227;MIDI 01
482.852;000.256;74;000.344;MIDI 01
482.872;000.247;69;000.297;MIDI 01
482.881;001.423;60;000.258;MIDI 01
485.067;000.801;60;000.289;MIDI 01
483.756;004.060;58;000.203;MIDI 01
483.759;004.221;62;000.211;MIDI 01
483.731;005.576;66;000.266;MIDI 01
486.890;003.544;60;000.297;MIDI 01
489.884;000.780;59;000.219;MIDI 01
489.892;000.838;63;000.164;MIDI 01
489.884;001.793;67;000.203;MIDI 01
491.700;000.538;60;000.234;MIDI 01
491.698;000.641;64;000.211;MIDI 01
491.647;000.721;68;000.234;MIDI 01
496.381;000.646;58;000.117;MIDI 01
496.370;000.790;62;000.219;MIDI 01
496.347;001.636;66;000.273;MIDI 01
497.819;000.950;59;000.289;MIDI 01
497.802;001.015;63;000.203;MIDI 01
497.807;001.742;67;000.375;MIDI 01
499.395;000.533;60;000.227;MIDI 01
499.371;000.608;64;000.305;MIDI 01
499.375;001.523;68;000.383;MIDI 01
500.877;000.103;45;000.188;MIDI 01
500.857;000.352;61;000.312;MIDI 01
500.887;000.383;65;000.234;MIDI 01
501.390;000.056;52;000.234;MIDI 01
500.827;000.672;71;000.344;MIDI 01
501.545;000.059;69;000.359;MIDI 01
501.832;000.051;78;000.422;MIDI 01
501.893;000.054;72;000.094;MIDI 01
501.855;000.340;63;000.281;MIDI 01
502.326;000.169;76;000.383;MIDI 01
502.678;000.315;78;000.422;MIDI 01
502.701;000.343;72;000.383;MIDI 01
502.728;000.319;68;000.312;MIDI 01
503.018;000.049;64;000.250;MIDI 01
503.599;000.074;61;000.383;MIDI 01
503.621;000.073;65;000.398;MIDI 01
503.357;000.338;52;000.211;MIDI 01
503.599;000.359;71;000.422;MIDI 01
504.026;000.210;62;000.352;MIDI 01
504.047;000.240;66;000.312;MIDI 01
503.998;000.544;73;000.461;MIDI 01
504.048;000.582;40;000.289;MIDI 01
504.581;000.316;61;000.344;MIDI 01
504.592;000.449;65;000.359;MIDI 01
504.632;000.410;45;000.156;MIDI 01
505.047;000.048;52;000.273;MIDI 01
504.574;000.594;71;000.336;MIDI 01
505.173;000.032;69;000.453;MIDI 01
505.373;000.047;78;000.445;MIDI 01
505.395;000.058;68;000.195;MIDI 01
505.414;000.040;72;000.242;MIDI 01
505.394;000.178;63;000.273;MIDI 01
505.720;000.109;76;000.375;MIDI 01
505.982;000.065;68;000.344;MIDI 01
505.981;000.094;72;000.406;MIDI 01
506.243;000.026;64;000.398;MIDI 01
505.952;000.725;78;000.547;MIDI 01
506.757;000.060;67;000.477;MIDI 01
506.511;000.439;52;000.422;MIDI 01
506.759;000.274;75;000.523;MIDI 01
507.077;000.093;72;000.375;MIDI 01
507.052;000.122;68;000.445;MIDI 01
507.033;000.210;76;000.602;MIDI 01
507.069;000.438;40;000.359;MIDI 01
507.443;000.336;83;000.570;MIDI 01
507.473;000.323;45;000.359;MIDI 01
507.481;000.318;73;000.344;MIDI 01
507.788;000.036;52;000.461;MIDI 01
507.458;000.366;77;000.383;MIDI 01
508.046;000.096;63;000.383;MIDI 01
508.049;000.151;73;000.430;MIDI 01
508.146;000.080;63;000.047;MIDI 01
508.033;000.216;78;000.461;MIDI 01
508.288;000.084;76;000.594;MIDI 01
508.501;000.079;73;000.547;MIDI 01
508.010;000.594;81;000.609;MIDI 01
508.740;000.031;64;000.430;MIDI 01
508.503;000.273;78;000.570;MIDI 01
508.754;000.043;73;000.539;MIDI 01
508.770;000.045;68;000.508;MIDI 01
509.078;000.207;61;000.312;MIDI 01
509.072;000.216;45;000.359;MIDI 01
509.074;000.248;66;000.320;MIDI 01
509.046;000.327;71;000.539;MIDI 01
509.374;000.060;52;000.398;MIDI 01
509.454;000.046;69;000.461;MIDI 01
509.482;000.032;68;000.336;MIDI 01
509.471;000.056;61;000.375;MIDI 01
509.658;000.033;64;000.445;MIDI 01
509.901;000.303;56;000.320;MIDI 01
509.882;000.344;61;000.344;MIDI 01
509.850;000.647;64;000.383;MIDI 01
510.198;000.423;52;000.312;MIDI 01
510.436;000.339;56;000.258;MIDI 01
510.404;000.466;61;000.312;MIDI 01
510.669;000.515;45;000.273;MIDI 01
511.247;000.297;60;000.242;MIDI 01
511.247;000.310;42;000.258;MIDI 01
511.234;000.330;68;000.344;MIDI 01
511.601;000.359;49;000.305;MIDI 01
511.236;000.983;64;000.281;MIDI 01
511.945;000.409;61;000.289;MIDI 01
511.945;000.984;69;000.336;MIDI 01
511.962;001.040;59;000.273;MIDI 01
512.954;000.288;62;000.203;MIDI 01
512.952;000.323;65;000.195;MIDI 01
512.940;000.372;70;000.312;MIDI 01
512.962;001.057;58;000.180;MIDI 01
513.958;000.204;62;000.266;MIDI 01
513.978;000.324;69;000.219;MIDI 01
513.997;000.430;47;000.156;MIDI 01
513.940;000.538;73;000.367;MIDI 01
514.536;000.031;71;000.438;MIDI 01
514.555;000.044;66;000.305;MIDI 01
514.742;000.030;73;000.383;MIDI 01
514.722;000.050;81;000.531;MIDI 01
514.742;000.041;78;000.352;MIDI 01
514.444;000.595;54;000.273;MIDI 01
515.064;000.033;66;000.344;MIDI 01
515.365;000.061;74;000.367;MIDI 01
515.357;000.081;78;000.391;MIDI 01
515.336;000.377;81;000.531;MIDI 01
515.622;000.123;66;000.383;MIDI 01
515.876;000.170;54;000.336;MIDI 01
516.104;000.040;64;000.469;MIDI 01
516.112;000.064;68;000.406;MIDI 01
516.104;000.246;73;000.547;MIDI 01
516.438;000.066;70;000.438;MIDI 01
516.434;000.149;66;000.406;MIDI 01
516.422;000.311;74;000.562;MIDI 01
516.454;000.421;42;000.359;MIDI 01
516.841;000.217;68;000.438;MIDI 01
516.835;000.306;64;000.430;MIDI 01
516.879;000.333;47;000.336;MIDI 01
516.831;000.405;73;000.516;MIDI 01
517.248;000.067;54;000.328;MIDI 01
517.334;000.031;62;000.391;MIDI 01
517.337;000.038;71;000.430;MIDI 01
517.350;000.039;66;000.297;MIDI 01
517.496;000.022;73;000.555;MIDI 01
517.498;000.039;81;000.547;MIDI 01
517.504;000.043;78;000.508;MIDI 01
517.442;000.325;54;000.172;MIDI 01
517.771;000.045;66;000.500;MIDI 01
518.034;000.078;73;000.461;MIDI 01
518.021;000.094;74;000.539;MIDI 01
518.286;000.056;66;000.547;MIDI 01
518.018;000.477;81;000.617;MIDI 01
518.549;000.153;54;000.484;MIDI 01
518.025;000.841;78;000.516;MIDI 01
518.807;000.082;71;000.508;MIDI 01
518.796;000.203;54;000.047;MIDI 01
518.800;000.254;80;000.570;MIDI 01
519.097;000.118;74;000.492;MIDI 01
519.093;000.203;69;000.516;MIDI 01
519.087;000.376;78;000.539;MIDI 01
519.117;000.353;47;000.375;MIDI 01
519.446;000.115;76;000.531;MIDI 01
519.465;000.154;71;000.461;MIDI 01
519.456;000.229;40;000.469;MIDI 01
519.440;000.293;80;000.586;MIDI 01
519.736;000.048;78;000.617;MIDI 01
519.752;000.045;69;000.555;MIDI 01
519.765;000.032;74;000.453;MIDI 01
519.767;000.260;47;000.430;MIDI 01
520.076;000.324;54;000.258;MIDI 01
520.046;000.491;62;000.344;MIDI 01
520.025;000.847;69;000.469;MIDI 01
520.046;000.862;66;000.375;MIDI 01
520.396;000.983;61;000.383;MIDI 01
521.416;000.190;62;000.281;MIDI 01
520.882;000.773;64;000.281;MIDI 01
520.902;000.840;68;000.281;MIDI 01
520.862;000.894;71;000.352;MIDI 01
522.835;000.059;59;000.211;MIDI 01
522.777;000.160;92;000.469;MIDI 01
522.960;000.078;90;000.453;MIDI 01
523.080;000.038;85;000.414;MIDI 01
523.179;000.033;56;000.422;MIDI 01
523.184;000.037;64;000.383;MIDI 01
523.189;000.038;80;000.305;MIDI 01
523.307;000.028;56;000.461;MIDI 01
523.301;000.075;83;000.422;MIDI 01
523.409;000.157;85;000.523;MIDI 01
523.577;000.032;66;000.414;MIDI 01
523.599;000.035;63;000.336;MIDI 01
523.607;000.035;59;000.320;MIDI 01
523.569;000.135;80;000.422;MIDI 01
523.692;000.022;78;000.461;MIDI 01
523.860;000.035;52;000.359;MIDI 01
523.867;000.033;73;000.375;MIDI 01
523.869;000.035;64;000.367;MIDI 01
524.175;000.041;45;000.352;MIDI 01
524.583;000.085;63;000.352;MIDI 01
524.593;000.096;54;000.305;MIDI 01
524.557;000.135;92;000.445;MIDI 01
524.581;000.154;59;000.352;MIDI 01
524.699;000.097;90;000.484;MIDI 01
524.824;000.039;85;000.414;MIDI 01
524.905;000.044;80;000.453;MIDI 01
524.918;000.033;56;000.445;MIDI 01
524.922;000.033;64;000.406;MIDI 01
524.926;000.040;61;000.398;MIDI 01
525.053;000.044;56;000.477;MIDI 01
525.077;000.023;61;000.398;MIDI 01
525.068;000.036;64;000.297;MIDI 01
525.038;000.077;83;000.367;MIDI 01
525.150;000.148;85;000.531;MIDI 01
525.290;000.028;66;000.430;MIDI 01
525.298;000.041;63;000.406;MIDI 01
525.318;000.034;59;000.359;MIDI 01
525.306;000.111;80;000.477;MIDI 01
525.413;000.023;78;000.445;MIDI 01
525.580;000.039;64;000.320;MIDI 01
525.575;000.046;52;000.328;MIDI 01
525.573;000.051;73;000.445;MIDI 01
525.628;000.057;68;000.086;MIDI 01
525.868;000.038;45;000.398;MIDI 01
526.280;000.127;59;000.367;MIDI 01
526.271;000.151;67;000.406;MIDI 01
526.258;000.171;64;000.383;MIDI 01
526.260;000.194;91;000.508;MIDI 01
526.414;000.170;90;000.508;MIDI 01
526.570;000.049;88;000.398;MIDI 01
526.626;000.030;69;000.492;MIDI 01
526.626;000.046;61;000.500;MIDI 01
526.638;000.034;66;000.352;MIDI 01
526.658;000.092;83;000.492;MIDI 01
526.753;000.046;61;000.523;MIDI 01
526.772;000.030;66;000.398;MIDI 01
526.741;000.075;69;000.602;MIDI 01
526.768;000.124;85;000.555;MIDI 01
526.867;000.132;88;000.594;MIDI 01
526.985;000.033;67;000.523;MIDI 01
526.987;000.031;71;000.438;MIDI 01
527.021;000.029;62;000.492;MIDI 01
526.985;000.094;83;000.547;MIDI 01
527.102;000.024;78;000.453;MIDI 01
527.256;000.023;67;000.469;MIDI 01
527.256;000.023;76;000.516;MIDI 01
527.259;000.026;71;000.383;MIDI 01
527.256;000.042;74;000.500;MIDI 01
527.270;000.053;52;000.438;MIDI 01
527.548;000.035;45;000.430;MIDI 01
527.893;000.106;59;000.414;MIDI 01
527.890;000.109;67;000.477;MIDI 01
527.890;000.126;64;000.453;MIDI 01
527.867;000.177;95;000.586;MIDI 01
527.890;000.170;91;000.562;MIDI 01
528.002;000.169;90;000.625;MIDI 01
528.127;000.067;88;000.539;MIDI 01
528.232;000.020;69;000.492;MIDI 01
528.234;000.036;61;000.438;MIDI 01
528.239;000.035;66;000.352;MIDI 01
528.232;000.056;83;000.469;MIDI 01
528.359;000.028;66;000.445;MIDI 01
528.332;000.058;69;000.648;MIDI 01
528.359;000.035;61;000.547;MIDI 01
528.359;000.090;85;000.672;MIDI 01
528.603;000.025;71;000.422;MIDI 01
528.480;000.149;90;000.617;MIDI 01
528.596;000.072;67;000.500;MIDI 01
528.472;000.196;88;000.547;MIDI 01
528.628;000.042;62;000.516;MIDI 01
528.596;000.122;83;000.555;MIDI 01
528.720;000.029;78;000.555;MIDI 01
528.897;000.027;52;000.422;MIDI 01
528.897;000.036;71;000.336;MIDI 01
528.897;000.036;77;000.336;MIDI 01
528.898;000.038;74;000.430;MIDI 01
528.906;000.038;76;000.320;MIDI 01
528.908;000.057;67;000.273;MIDI 01
529.283;000.038;38;000.422;MIDI 01
529.632;000.051;69;000.383;MIDI 01
529.638;000.058;74;000.383;MIDI 01
529.661;000.064;73;000.492;MIDI 01
529.624;000.210;78;000.492;MIDI 01
529.831;000.025;71;000.406;MIDI 01
529.936;000.090;66;000.492;MIDI 01
529.997;000.029;71;000.516;MIDI 01
529.997;000.044;76;000.555;MIDI 01
529.999;000.042;80;000.578;MIDI 01
530.084;000.024;61;000.398;MIDI 01
530.165;000.026;64;000.430;MIDI 01
530.104;000.109;71;000.602;MIDI 01
530.100;000.190;80;000.633;MIDI 01
530.230;000.124;61;000.461;MIDI 01
530.369;000.020;73;000.539;MIDI 01
530.108;000.296;76;000.602;MIDI 01
530.361;000.050;78;000.469;MIDI 01
530.365;000.068;56;000.531;MIDI 01
530.369;000.071;81;000.586;MIDI 01
530.494;000.046;54;000.500;MIDI 01
530.589;000.017;80;000.586;MIDI 01
530.586;000.034;88;000.633;MIDI 01
530.598;000.024;85;000.461;MIDI 01
530.623;000.055;45;000.539;MIDI 01
530.842;000.029;38;000.648;MIDI 01
531.115;000.045;73;000.625;MIDI 01
531.082;000.089;69;000.602;MIDI 01
531.084;000.155;74;000.602;MIDI 01
531.234;000.048;71;000.570;MIDI 01
531.078;000.209;81;000.688;MIDI 01
531.080;000.230;78;000.609;MIDI 01
531.432;000.027;71;000.648;MIDI 01
531.432;000.027;76;000.617;MIDI 01
531.428;000.031;80;000.602;MIDI 01
531.438;000.022;83;000.523;MIDI 01
531.376;000.089;66;000.500;MIDI 01
531.490;000.046;61;000.414;MIDI 01
531.524;000.070;71;000.680;MIDI 01
531.524;000.115;83;000.750;MIDI 01
531.526;000.129;76;000.641;MIDI 01
531.557;000.102;64;000.578;MIDI 01
531.530;000.204;80;000.617;MIDI 01
531.791;000.033;73;000.633;MIDI 01
531.681;000.150;61;000.445;MIDI 01
531.800;000.031;78;000.484;MIDI 01
531.793;000.076;85;000.695;MIDI 01
531.818;000.092;56;000.570;MIDI 01
531.972;000.113;54;000.531;MIDI 01
532.192;000.035;45;000.516;MIDI 01
532.188;000.042;81;000.648;MIDI 01
532.188;000.145;85;000.641;MIDI 01
532.183;000.194;93;000.750;MIDI 01
532.652;000.046;35;000.703;MIDI 01
532.647;000.070;47;000.727;MIDI 01
532.183;000.933;90;000.625;MIDI 01
533.161;000.056;53;000.500;MIDI 01
533.190;000.049;59;000.250;MIDI 01
533.151;000.092;63;000.508;MIDI 01
533.144;000.613;93;000.742;MIDI 01
533.147;000.614;86;000.633;MIDI 01
533.134;000.626;90;000.492;MIDI 01
533.144;000.627;83;000.703;MIDI 01
533.758;000.049;35;000.664;MIDI 01
533.748;000.072;47;000.648;MIDI 01
534.079;000.032;62;000.367;MIDI 01
534.079;000.066;66;000.594;MIDI 01
534.069;000.096;83;000.711;MIDI 01
534.067;000.126;86;000.695;MIDI 01
534.062;000.227;93;000.758;MIDI 01
534.083;000.222;57;000.562;MIDI 01
534.079;000.240;90;000.656;MIDI 01
534.343;000.036;68;000.555;MIDI 01
534.348;000.033;64;000.469;MIDI 01
534.376;000.043;59;000.531;MIDI 01
534.465;000.017;85;000.617;MIDI 01
534.462;000.027;88;000.672;MIDI 01
534.462;000.029;92;000.625;MIDI 01
534.462;000.030;95;000.680;MIDI 01
534.593;000.062;47;000.672;MIDI 01
534.566;000.090;88;000.656;MIDI 01
534.553;000.126;95;000.766;MIDI 01
534.556;000.149;85;000.758;MIDI 01
534.554;000.151;92;000.680;MIDI 01
534.854;000.027;90;000.680;MIDI 01
534.857;000.030;83;000.625;MIDI 01
534.870;000.045;62;000.492;MIDI 01
534.879;000.035;66;000.531;MIDI 01
534.872;000.043;86;000.414;MIDI 01
534.851;000.064;93;000.711;MIDI 01
534.880;000.035;57;000.516;MIDI 01
535.136;000.027;74;000.672;MIDI 01
535.122;000.052;80;000.711;MIDI 01
535.139;000.035;85;000.688;MIDI 01
535.166;000.045;62;000.570;MIDI 01
535.166;000.045;66;000.547;MIDI 01
535.169;000.042;70;000.422;MIDI 01
535.276;000.052;74;000.094;MIDI 01
535.499;000.047;47;000.797;MIDI 01
535.503;000.048;35;000.742;MIDI 01
535.800;000.031;66;000.586;MIDI 01
535.770;000.160;83;000.734;MIDI 01
535.760;000.170;86;000.633;MIDI 01
535.801;000.175;57;000.570;MIDI 01
535.770;000.218;93;000.766;MIDI 01
535.773;000.254;90;000.742;MIDI 01
535.987;000.045;64;000.500;MIDI 01
535.999;000.039;68;000.500;MIDI 01
536.029;000.043;59;000.516;MIDI 01
536.123;000.025;88;000.727;MIDI 01
536.131;000.019;85;000.625;MIDI 01
536.125;000.027;95;000.703;MIDI 01
536.128;000.032;92;000.602;MIDI 01
536.263;000.031;41;000.617;MIDI 01
536.251;000.048;40;000.633;MIDI 01
536.202;000.148;95;000.727;MIDI 01
536.211;000.240;85;000.781;MIDI 01
536.214;000.374;88;000.750;MIDI 01
536.584;000.025;61;000.445;MIDI 01
536.572;000.038;85;000.719;MIDI 01
536.561;000.050;90;000.742;MIDI 01
536.584;000.030;57;000.508;MIDI 01
536.584;000.032;66;000.531;MIDI 01
536.570;000.049;93;000.695;MIDI 01
536.824;000.016;76;000.688;MIDI 01
536.824;000.022;80;000.633;MIDI 01
536.827;000.023;73;000.547;MIDI 01
536.824;000.033;69;000.586;MIDI 01
536.824;000.038;85;000.742;MIDI 01
536.839;000.062;64;000.531;MIDI 01
537.108;000.129;40;000.703;MIDI 01
537.108;000.173;52;000.750;MIDI 01
537.331;000.090;67;000.602;MIDI 01
537.432;000.032;70;000.570;MIDI 01
537.456;000.030;73;000.609;MIDI 01
537.616;000.074;64;000.719;MIDI 01
537.627;000.097;61;000.672;MIDI 01
537.621;000.124;55;000.688;MIDI 01
537.632;000.121;58;000.641;MIDI 01
537.589;000.200;79;000.617;MIDI 01
537.632;000.163;82;000.578;MIDI 01
537.618;000.183;90;000.695;MIDI 01
537.632;000.284;85;000.594;MIDI 01
538.040;000.033;79;000.664;MIDI 01
538.047;000.026;82;000.602;MIDI 01
538.042;000.031;85;000.656;MIDI 01
538.056;000.029;90;000.531;MIDI 01
538.100;000.050;40;000.711;MIDI 01
538.102;000.065;52;000.758;MIDI 01
538.112;000.269;79;000.734;MIDI 01
538.120;000.285;82;000.766;MIDI 01
538.369;000.057;64;000.781;MIDI 01
538.383;000.057;62;000.656;MIDI 01
538.107;000.352;90;000.664;MIDI 01
538.383;000.079;55;000.656;MIDI 01
538.386;000.092;58;000.617;MIDI 01
538.619;000.022;86;000.516;MIDI 01
538.614;000.031;79;000.672;MIDI 01
538.617;000.031;82;000.617;MIDI 01
538.607;000.052;90;000.750;MIDI 01
538.825;000.044;40;000.664;MIDI 01
538.819;000.057;52;000.727;MIDI 01
538.894;000.105;41;000.141;MIDI 01
538.957;000.101;68;000.641;MIDI 01
539.045;000.069;72;000.516;MIDI 01
539.100;000.050;75;000.625;MIDI 01
539.223;000.061;64;000.781;MIDI 01
539.237;000.071;63;000.633;MIDI 01
539.241;000.086;60;000.633;MIDI 01
539.225;000.111;56;000.688;MIDI 01
539.233;000.215;80;000.688;MIDI 01
539.244;000.216;90;000.734;MIDI 01
539.247;000.280;84;000.695;MIDI 01
539.267;000.261;87;000.602;MIDI 01
539.657;000.029;80;000.641;MIDI 01
539.659;000.031;84;000.617;MIDI 01
539.669;000.036;87;000.633;MIDI 01
539.689;000.024;90;000.445;MIDI 01
539.722;000.044;40;000.711;MIDI 01
539.719;000.073;52;000.719;MIDI 01
539.751;000.297;87;000.711;MIDI 01
539.740;000.326;84;000.688;MIDI 01
539.734;000.357;80;000.766;MIDI 01
539.727;000.441;90;000.617;MIDI 01
540.058;000.145;64;000.758;MIDI 01
540.062;000.189;61;000.734;MIDI 01
540.057;000.219;57;000.719;MIDI 01
540.460;000.050;81;000.781;MIDI 01
540.457;000.168;85;000.703;MIDI 01
540.464;000.251;88;000.664;MIDI 01
540.458;000.398;90;000.781;MIDI 01
540.921;000.204;30;000.703;MIDI 01
540.921;000.253;42;000.797;MIDI 01
541.459;000.270;68;000.672;MIDI 01
541.446;000.382;81;000.766;MIDI 01
541.446;000.446;93;000.781;MIDI 01
541.461;000.591;61;000.570;MIDI 01
542.011;000.054;66;000.758;MIDI 01
541.459;000.639;57;000.578;MIDI 01
541.440;000.742;92;000.641;MIDI 01
542.232;000.053;83;000.703;MIDI 01
542.232;000.092;90;000.695;MIDI 01
542.223;000.109;95;000.742;MIDI 01
542.436;000.041;35;000.695;MIDI 01
542.425;000.059;47;000.703;MIDI 01
542.438;000.100;90;000.742;MIDI 01
542.440;000.111;95;000.797;MIDI 01
542.436;000.147;83;000.750;MIDI 01
542.727;000.052;89;000.555;MIDI 01
542.733;000.052;81;000.727;MIDI 01
542.730;000.055;93;000.750;MIDI 01
542.733;000.055;65;000.562;MIDI 01
542.746;000.129;61;000.578;MIDI 01
542.739;000.179;57;000.570;MIDI 01
542.951;000.028;69;000.664;MIDI 01
542.957;000.041;64;000.594;MIDI 01
542.979;000.048;73;000.641;MIDI 01
542.973;000.054;81;000.688;MIDI 01
543.002;000.035;57;000.023;MIDI 01
542.975;000.077;85;000.703;MIDI 01
543.105;000.045;73;000.164;MIDI 01
543.218;000.041;35;000.727;MIDI 01
543.212;000.047;47;000.773;MIDI 01
543.271;000.035;93;000.391;MIDI 01
543.276;000.040;81;000.344;MIDI 01
543.496;000.068;68;000.672;MIDI 01
543.516;000.148;63;000.602;MIDI 01
543.475;000.230;81;000.766;MIDI 01
543.696;000.022;66;000.633;MIDI 01
543.476;000.248;93;000.734;MIDI 01
543.479;000.255;87;000.711;MIDI 01
543.493;000.267;57;000.602;MIDI 01
543.717;000.043;61;000.539;MIDI 01
543.477;000.282;92;000.727;MIDI 01
543.821;000.031;83;000.680;MIDI 01
543.822;000.030;95;000.734;MIDI 01
543.815;000.043;90;000.453;MIDI 01
543.925;000.056;40;000.703;MIDI 01
543.923;000.071;52;000.688;MIDI 01
543.906;000.133;95;000.750;MIDI 01
543.918;000.147;83;000.750;MIDI 01
543.922;000.182;90;000.805;MIDI 01
544.196;000.007;81;000.695;MIDI 01
544.170;000.040;89;000.742;MIDI 01
544.172;000.040;93;000.750;MIDI 01
544.207;000.025;65;000.469;MIDI 01
544.227;000.038;64;000.383;MIDI 01
544.216;000.050;55;000.477;MIDI 01
544.209;000.148;61;000.539;MIDI 01
544.217;000.193;57;000.516;MIDI 01
544.415;000.029;69;000.633;MIDI 01
544.422;000.024;73;000.695;MIDI 01
544.400;000.057;64;000.469;MIDI 01
544.430;000.029;80;000.625;MIDI 01
544.424;000.056;85;000.734;MIDI 01
544.526;000.045;73;000.273;MIDI 01
544.564;000.057;80;000.062;MIDI 01
544.686;000.040;64;000.688;MIDI 01
544.696;000.039;76;000.742;MIDI 01
544.712;000.023;60;000.508;MIDI 01
544.703;000.034;88;000.664;MIDI 01
544.700;000.040;55;000.602;MIDI 01
544.710;000.033;58;000.539;MIDI 01
544.689;000.062;84;000.203;MIDI 01
544.816;000.024;76;000.703;MIDI 01
544.817;000.029;88;000.719;MIDI 01
544.819;000.032;60;000.570;MIDI 01
544.815;000.039;64;000.688;MIDI 01
544.815;000.042;84;000.656;MIDI 01
544.808;000.049;55;000.664;MIDI 01
544.821;000.039;58;000.586;MIDI 01
544.921;000.034;60;000.586;MIDI 01
544.920;000.036;76;000.758;MIDI 01
544.923;000.035;84;000.648;MIDI 01
544.928;000.034;55;000.445;MIDI 01
544.920;000.044;88;000.703;MIDI 01
544.925;000.047;58;000.570;MIDI 01
545.157;000.024;82;000.695;MIDI 01
545.154;000.034;65;000.633;MIDI 01
545.164;000.030;86;000.672;MIDI 01
545.169;000.029;74;000.633;MIDI 01
545.180;000.024;72;000.484;MIDI 01
545.167;000.043;58;000.555;MIDI 01
545.161;000.056;55;000.547;MIDI 01
545.191;000.040;62;000.289;MIDI 01
545.214;000.045;84;000.273;MIDI 01
545.429;000.029;48;000.688;MIDI 01
545.446;000.026;69;000.570;MIDI 01
545.446;000.029;36;000.680;MIDI 01
545.454;000.023;65;000.469;MIDI 01
545.452;000.029;58;000.594;MIDI 01
545.450;000.035;38;000.484;MIDI 01
545.431;000.056;62;000.633;MIDI 01
545.746;000.024;52;000.719;MIDI 01
545.746;000.025;28;000.703;MIDI 01
545.746;000.026;40;000.727;MIDI 01
546.191;000.413;62;000.672;MIDI 01
546.178;000.615;56;000.688;MIDI 01
546.180;000.667;66;000.742;MIDI 01
546.196;000.689;58;000.602;MIDI 01
546.168;000.777;73;000.766;MIDI 01
546.174;000.798;85;000.656;MIDI 01
546.174;000.870;80;000.789;MIDI 01
547.348;000.014;66;000.648;MIDI 01
547.357;000.025;62;000.523;MIDI 01
547.349;000.039;56;000.625;MIDI 01
547.335;000.070;80;000.734;MIDI 01
547.379;000.033;68;000.375;MIDI 01
547.473;000.033;68;000.625;MIDI 01
547.461;000.051;66;000.414;MIDI 01
547.469;000.049;62;000.625;MIDI 01
547.469;000.051;56;000.594;MIDI 01
547.504;000.039;73;000.281;MIDI 01
547.475;000.075;85;000.695;MIDI 01
547.583;000.035;68;000.492;MIDI 01
547.615;000.023;62;000.422;MIDI 01
547.600;000.039;56;000.562;MIDI 01
547.598;000.057;80;000.703;MIDI 01
547.618;000.050;61;000.570;MIDI 01
547.766;000.020;69;000.688;MIDI 01
547.751;000.036;64;000.727;MIDI 01
547.771;000.025;73;000.531;MIDI 01
547.761;000.053;81;000.750;MIDI 01
547.768;000.060;57;000.586;MIDI 01
547.812;000.032;72;000.328;MIDI 01
548.133;000.035;45;000.727;MIDI 01
548.136;000.034;33;000.695;MIDI 01
548.768;000.179;81;000.469;MIDI 01
548.991;000.077;77;000.414;MIDI 01
549.126;000.046;69;000.406;MIDI 01
549.267;000.065;72;000.438;MIDI 01
549.260;000.153;79;000.500;MIDI 01
549.391;000.109;76;000.484;MIDI 01
549.480;000.032;67;000.430;MIDI 01
549.556;000.127;65;000.258;MIDI 01
549.590;000.121;81;000.594;MIDI 01
549.711;000.032;74;000.445;MIDI 01
549.726;000.027;60;000.438;MIDI 01
549.794;000.046;69;000.531;MIDI 01
549.939;000.050;60;000.188;MIDI 01
549.909;000.185;73;000.555;MIDI 01
550.024;000.116;68;000.539;MIDI 01
550.119;000.038;61;000.516;MIDI 01
550.128;000.148;53;000.375;MIDI 01
550.245;000.092;76;000.531;MIDI 01
550.349;000.057;48;000.320;MIDI 01
550.355;000.090;68;000.445;MIDI 01
550.464;000.038;64;000.484;MIDI 01
550.805;000.060;64;000.352;MIDI 01
550.908;000.040;56;000.477;MIDI 01
550.956;000.067;48;000.398;MIDI 01
550.631;000.480;68;000.469;MIDI 01
551.060;000.106;71;000.484;MIDI 01
551.141;000.086;63;000.477;MIDI 01
551.237;000.031;59;000.406;MIDI 01
550.674;000.631;41;000.328;MIDI 01
551.324;000.041;36;000.461;MIDI 01
551.350;000.096;76;000.617;MIDI 01
551.487;000.075;68;000.492;MIDI 01
551.593;000.067;64;000.062;MIDI 01
551.611;000.116;61;000.359;MIDI 01
551.703;000.034;59;000.453;MIDI 01
551.799;000.041;56;000.312;MIDI 01
551.816;000.146;64;000.391;MIDI 01
552.005;000.048;68;000.281;MIDI 01
552.116;000.045;56;000.398;MIDI 01
552.217;000.057;59;000.414;MIDI 01
552.410;000.056;64;000.289;MIDI 01
552.435;000.123;48;000.273;MIDI 01
552.494;000.144;68;000.508;MIDI 01
552.601;000.158;64;000.461;MIDI 01
552.733;000.041;59;000.453;MIDI 01
552.828;000.087;53;000.328;MIDI 01
552.841;000.153;71;000.555;MIDI 01
552.977;000.057;63;000.523;MIDI 01
553.092;000.044;59;000.250;MIDI 01
552.108;001.061;41;000.352;MIDI 01
553.157;000.096;48;000.375;MIDI 01
553.172;000.117;73;000.617;MIDI 01
553.292;000.085;68;000.500;MIDI 01
553.404;000.033;61;000.461;MIDI 01
553.645;000.054;64;000.414;MIDI 01
553.745;000.035;56;000.500;MIDI 01
553.510;000.284;68;000.547;MIDI 01
553.786;000.060;48;000.391;MIDI 01
553.889;000.087;71;000.500;MIDI 01
553.965;000.098;63;000.438;MIDI 01
553.506;000.564;41;000.344;MIDI 01
554.070;000.035;59;000.344;MIDI 01
554.188;000.038;36;000.430;MIDI 01
554.211;000.064;76;000.516;MIDI 01
554.358;000.062;68;000.383;MIDI 01
554.448;000.039;64;000.312;MIDI 01
554.487;000.102;61;000.344;MIDI 01
554.589;000.036;59;000.477;MIDI 01
554.682;000.042;56;000.320;MIDI 01
554.720;000.078;64;000.336;MIDI 01
554.826;000.076;68;000.461;MIDI 01
554.991;000.051;56;000.398;MIDI 01
555.111;000.041;59;000.391;MIDI 01
555.249;000.053;64;000.391;MIDI 01
554.966;000.353;41;000.352;MIDI 01
555.276;000.045;48;000.312;MIDI 01
555.356;000.096;68;000.484;MIDI 01
555.468;000.054;64;000.344;MIDI 01
555.558;000.031;59;000.477;MIDI 01
555.676;000.041;60;000.422;MIDI 01
555.664;000.172;71;000.594;MIDI 01
555.861;000.028;59;000.469;MIDI 01
555.812;000.102;68;000.438;MIDI 01
555.948;000.095;48;000.414;MIDI 01
556.009;000.133;76;000.570;MIDI 01
556.149;000.053;48;000.023;MIDI 01
556.151;000.069;68;000.461;MIDI 01
556.231;000.031;64;000.422;MIDI 01
556.401;000.134;68;000.461;MIDI 01
556.541;000.101;64;000.414;MIDI 01
556.410;000.266;38;000.344;MIDI 01
556.658;000.031;56;000.430;MIDI 01
556.703;000.050;48;000.422;MIDI 01
556.771;000.107;69;000.555;MIDI 01
556.865;000.048;60;000.500;MIDI 01
556.969;000.076;65;000.477;MIDI 01
557.077;000.027;69;000.461;MIDI 01
557.175;000.048;72;000.516;MIDI 01
557.307;000.069;77;000.539;MIDI 01
556.916;000.481;53;000.367;MIDI 01
557.165;000.234;60;000.312;MIDI 01
557.468;000.209;84;000.484;MIDI 01
557.615;000.092;81;000.469;MIDI 01
557.737;000.031;72;000.391;MIDI 01
557.903;000.108;72;000.406;MIDI 01
557.896;000.172;83;000.500;MIDI 01
558.054;000.115;80;000.500;MIDI 01
558.192;000.033;72;000.352;MIDI 01
558.212;000.152;65;000.359;MIDI 01
558.256;000.112;84;000.570;MIDI 01
558.355;000.073;81;000.547;MIDI 01
558.430;000.022;60;000.406;MIDI 01
558.473;000.027;72;000.461;MIDI 01
558.725;000.052;75;000.352;MIDI 01
558.618;000.194;60;000.391;MIDI 01
558.706;000.105;76;000.477;MIDI 01
558.814;000.015;68;000.461;MIDI 01
558.843;000.080;54;000.406;MIDI 01
558.570;000.387;80;000.609;MIDI 01
558.925;000.126;83;000.570;MIDI 01
559.019;000.042;50;000.297;MIDI 01
559.040;000.086;75;000.562;MIDI 01
559.148;000.052;71;000.555;MIDI 01
559.504;000.123;66;000.445;MIDI 01
559.646;000.031;58;000.430;MIDI 01
559.332;000.352;70;000.531;MIDI 01
559.670;000.060;50;000.367;MIDI 01
559.746;000.150;73;000.602;MIDI 01
559.857;000.071;65;000.484;MIDI 01
559.975;000.044;61;000.281;MIDI 01
559.312;000.767;43;000.391;MIDI 01
560.067;000.035;38;000.445;MIDI 01
560.072;000.118;78;000.570;MIDI 01
560.204;000.067;70;000.430;MIDI 01
560.326;000.026;66;000.477;MIDI 01
560.341;000.046;63;000.430;MIDI 01
560.515;000.039;61;000.320;MIDI 01
560.546;000.030;58;000.406;MIDI 01
560.622;000.073;66;000.266;MIDI 01
560.857;000.046;58;000.430;MIDI 01
560.746;000.159;70;000.438;MIDI 01
560.947;000.071;61;000.445;MIDI 01
561.100;000.048;66;000.391;MIDI 01
561.128;000.123;50;000.336;MIDI 01
561.196;000.159;70;000.516;MIDI 01
561.301;000.109;66;000.469;MIDI 01
561.452;000.041;61;000.438;MIDI 01
561.507;000.085;55;000.375;MIDI 01
561.531;000.145;73;000.570;MIDI 01
561.639;000.090;65;000.523;MIDI 01
561.765;000.020;61;000.445;MIDI 01
560.846;001.024;43;000.352;MIDI 01
561.869;000.106;75;000.570;MIDI 01
561.826;000.192;50;000.391;MIDI 01
562.096;000.027;63;000.453;MIDI 01
562.217;000.227;70;000.555;MIDI 01
562.349;000.097;66;000.453;MIDI 01
562.445;000.032;58;000.406;MIDI 01
562.191;000.326;43;000.398;MIDI 01
562.482;000.074;50;000.367;MIDI 01
562.564;000.144;73;000.570;MIDI 01
562.657;000.097;65;000.430;MIDI 01
562.761;000.028;61;000.469;MIDI 01
562.894;000.040;38;000.477;MIDI 01
562.897;000.107;78;000.547;MIDI 01
563.034;000.089;70;000.375;MIDI 01
563.184;000.040;66;000.297;MIDI 01
563.256;000.051;63;000.023;MIDI 01
563.372;000.060;61;000.305;MIDI 01
563.420;000.043;58;000.305;MIDI 01
563.501;000.078;66;000.281;MIDI 01
563.757;000.042;58;000.375;MIDI 01
563.835;000.069;61;000.406;MIDI 01
563.626;000.334;70;000.406;MIDI 01
563.728;000.258;43;000.359;MIDI 01
563.982;000.052;50;000.352;MIDI 01
563.992;000.046;66;000.352;MIDI 01
564.092;000.101;70;000.484;MIDI 01
564.175;000.096;66;000.508;MIDI 01
564.311;000.038;61;000.461;MIDI 01
564.386;000.070;62;000.453;MIDI 01
564.393;000.169;73;000.586;MIDI 01
564.539;000.126;70;000.477;MIDI 01
564.640;000.043;61;000.258;MIDI 01
564.663;000.079;50;000.430;MIDI 01
564.746;000.086;78;000.586;MIDI 01
564.855;000.092;70;000.578;MIDI 01
565.083;000.174;70;000.562;MIDI 01
565.203;000.099;66;000.547;MIDI 01
565.031;000.274;40;000.586;MIDI 01
565.332;000.034;58;000.508;MIDI 01
565.366;000.081;50;000.492;MIDI 01
565.421;000.114;71;000.617;MIDI 01
565.521;000.064;62;000.555;MIDI 01
565.632;000.107;67;000.555;MIDI 01
565.749;000.033;71;000.602;MIDI 01
565.552;000.272;55;000.508;MIDI 01
565.769;000.077;62;000.508;MIDI 01
565.879;000.045;74;000.641;MIDI 01
565.991;000.038;79;000.641;MIDI 01
566.121;000.199;86;000.656;MIDI 01
566.258;000.074;83;000.602;MIDI 01
566.369;000.035;74;000.523;MIDI 01
566.472;000.163;76;000.719;MIDI 01
566.681;000.052;73;000.555;MIDI 01
566.484;000.249;85;000.641;MIDI 01
566.735;000.121;68;000.523;MIDI 01
566.975;000.046;64;000.586;MIDI 01
566.867;000.217;86;000.570;MIDI 01
567.069;000.052;74;000.438;MIDI 01
567.253;000.022;75;000.523;MIDI 01
567.156;000.175;62;000.672;MIDI 01
567.274;000.196;78;000.609;MIDI 01
567.454;000.058;66;000.555;MIDI 01
567.459;000.121;56;000.398;MIDI 01
567.611;000.040;52;000.305;MIDI 01
567.426;000.225;73;000.148;MIDI 01
567.409;000.338;74;000.430;MIDI 01
567.582;000.200;80;000.680;MIDI 01
567.814;000.033;68;000.430;MIDI 01
567.709;000.137;77;000.586;MIDI 01
567.930;000.115;86;000.703;MIDI 01
567.892;000.184;36;000.641;MIDI 01
567.923;000.201;38;000.383;MIDI 01
568.034;000.115;82;000.570;MIDI 01
568.081;000.095;43;000.438;MIDI 01
568.123;000.078;76;000.617;MIDI 01
568.223;000.025;74;000.586;MIDI 01
568.223;000.036;50;000.539;MIDI 01
568.374;000.038;68;000.281;MIDI 01
568.324;000.109;70;000.555;MIDI 01
568.478;000.006;64;000.453;MIDI 01
568.347;000.152;52;000.547;MIDI 01
568.479;000.083;62;000.586;MIDI 01
568.594;000.026;64;000.398;MIDI 01
568.601;000.055;70;000.625;MIDI 01
568.571;000.126;58;000.562;MIDI 01
568.733;000.064;74;000.648;MIDI 01
568.721;000.185;64;000.594;MIDI 01
568.865;000.085;76;000.617;MIDI 01
569.034;000.104;82;000.586;MIDI 01
569.034;000.241;70;000.570;MIDI 01
569.173;000.195;86;000.586;MIDI 01
569.302;000.107;82;000.469;MIDI 01
569.440;000.041;74;000.508;MIDI 01
569.582;000.141;76;000.500;MIDI 01
569.584;000.149;85;000.531;MIDI 01
569.795;000.034;73;000.555;MIDI 01
569.829;000.120;68;000.430;MIDI 01
569.726;000.226;82;000.469;MIDI 01
569.914;000.117;86;000.641;MIDI 01
570.072;000.049;64;000.445;MIDI 01
570.019;000.103;77;000.633;MIDI 01
570.130;000.041;74;000.570;MIDI 01
570.247;000.095;62;000.570;MIDI 01
570.228;000.203;78;000.617;MIDI 01
570.475;000.050;66;000.555;MIDI 01
570.485;000.115;56;000.383;MIDI 01
570.659;000.022;52;000.453;MIDI 01
570.355;000.326;74;000.578;MIDI 01
570.574;000.144;80;000.688;MIDI 01
570.767;000.024;68;000.484;MIDI 01
570.703;000.119;77;000.523;MIDI 01
570.888;000.114;86;000.711;MIDI 01
570.864;000.196;36;000.672;MIDI 01
570.977;000.124;82;000.578;MIDI 01
571.076;000.048;80;000.172;MIDI 01
571.068;000.095;43;000.508;MIDI 01
571.080;000.092;76;000.602;MIDI 01
571.192;000.026;74;000.445;MIDI 01
571.203;000.049;50;000.523;MIDI 01
571.329;000.042;69;000.477;MIDI 01
571.318;000.065;68;000.414;MIDI 01
571.370;000.052;50;000.359;MIDI 01
571.380;000.044;52;000.406;MIDI 01
571.422;000.076;64;000.344;MIDI 01
571.502;000.030;62;000.391;MIDI 01
571.505;000.043;60;000.305;MIDI 01
571.640;000.014;70;000.492;MIDI 01
571.593;000.104;58;000.414;MIDI 01
571.749;000.230;64;000.633;MIDI 01
571.749;000.295;78;000.672;MIDI 01
572.031;000.071;66;000.531;MIDI 01
572.073;000.102;56;000.492;MIDI 01
572.250;000.040;52;000.500;MIDI 01
571.935;000.354;74;000.516;MIDI 01
572.167;000.179;80;000.695;MIDI 01
572.360;000.036;68;000.547;MIDI 01
572.296;000.121;77;000.562;MIDI 01
572.472;000.157;36;000.727;MIDI 01
572.497;000.132;86;000.734;MIDI 01
572.606;000.119;82;000.562;MIDI 01
572.681;000.081;43;000.477;MIDI 01
572.696;000.093;76;000.578;MIDI 01
572.810;000.040;50;000.516;MIDI 01
572.823;000.029;72;000.398;MIDI 01
572.959;000.038;68;000.289;MIDI 01
572.996;000.021;69;000.398;MIDI 01
572.952;000.135;52;000.484;MIDI 01
573.058;000.032;62;000.391;MIDI 01
573.064;000.039;64;000.344;MIDI 01
573.140;000.169;58;000.594;MIDI 01
573.376;000.050;60;000.023;MIDI 01
573.413;000.118;52;000.547;MIDI 01
573.601;000.278;59;000.586;MIDI 01
573.962;000.043;52;000.406;MIDI 01
573.965;000.091;54;000.539;MIDI 01
573.590;000.573;66;000.625;MIDI 01
573.797;000.495;62;000.508;MIDI 01
574.415;000.048;56;000.523;MIDI 01
574.121;000.356;68;000.656;MIDI 01
574.277;000.234;65;000.562;MIDI 01
574.631;000.274;74;000.688;MIDI 01
574.647;000.383;36;000.500;MIDI 01
574.849;000.215;70;000.594;MIDI 01
575.055;000.045;43;000.391;MIDI 01
575.027;000.094;64;000.602;MIDI 01
575.167;000.086;62;000.578;MIDI 01
575.326;000.161;58;000.539;MIDI 01
575.478;000.045;52;000.578;MIDI 01
575.807;000.449;58;000.383;MIDI 01
575.798;000.477;62;000.453;MIDI 01
575.779;000.806;66;000.562;MIDI 01
576.548;000.361;58;000.469;MIDI 01
576.530;000.710;67;000.570;MIDI 01
576.555;000.732;63;000.477;MIDI 01
577.240;000.224;59;000.430;MIDI 01
577.248;000.271;64;000.453;MIDI 01
577.239;000.381;68;000.523;MIDI 01
576.896;001.426;60;000.422;MIDI 01
578.147;000.346;66;000.344;MIDI 01
578.098;000.407;74;000.586;MIDI 01
578.143;000.421;70;000.391;MIDI 01
576.217;002.492;48;000.383;MIDI 01
579.106;000.610;62;000.383;MIDI 01
579.107;000.692;58;000.312;MIDI 01
579.071;000.997;66;000.414;MIDI 01
580.095;000.362;59;000.289;MIDI 01
580.107;000.357;63;000.305;MIDI 01
580.092;000.494;67;000.375;MIDI 01
578.608;002.697;60;000.367;MIDI 01
581.086;000.389;64;000.328;MIDI 01
581.052;000.444;72;000.492;MIDI 01
581.092;000.467;68;000.320;MIDI 01
582.173;000.866;58;000.211;MIDI 01
582.189;000.873;62;000.281;MIDI 01
582.138;001.867;66;000.297;MIDI 01
583.897;000.616;59;000.250;MIDI 01
583.897;000.790;63;000.258;MIDI 01
583.870;001.856;67;000.305;MIDI 01
581.573;005.023;60;000.297;MIDI 01
585.675;001.015;64;000.219;MIDI 01
585.658;001.258;68;000.258;MIDI 01
587.983;000.119;45;000.203;MIDI 01
587.981;000.317;61;000.297;MIDI 01
587.978;000.330;65;000.320;MIDI 01
588.487;000.056;52;000.289;MIDI 01
587.967;000.611;71;000.352;MIDI 01
588.628;000.046;69;000.391;MIDI 01
588.860;000.079;78;000.391;MIDI 01
588.891;000.054;72;000.242;MIDI 01
588.893;000.176;63;000.242;MIDI 01
589.239;000.053;77;000.180;MIDI 01
589.472;000.260;78;000.461;MIDI 01
589.756;000.031;64;000.406;MIDI 01
589.502;000.309;72;000.359;MIDI 01
589.503;000.324;68;000.336;MIDI 01
590.298;000.056;61;000.328;MIDI 01
590.298;000.056;65;000.445;MIDI 01
590.047;000.309;52;000.344;MIDI 01
590.268;000.293;71;000.438;MIDI 01
590.598;000.159;62;000.406;MIDI 01
590.590;000.171;66;000.344;MIDI 01
590.584;000.440;73;000.500;MIDI 01
590.611;000.476;40;000.289;MIDI 01
591.056;000.203;61;000.352;MIDI 01
591.065;000.364;65;000.352;MIDI 01
591.069;000.397;45;000.305;MIDI 01
591.032;000.447;71;000.453;MIDI 01
591.458;000.041;52;000.320;MIDI 01
591.573;000.034;69;000.352;MIDI 01
591.742;000.056;78;000.469;MIDI 01
591.755;000.065;72;000.320;MIDI 01
591.752;000.141;63;000.344;MIDI 01
592.050;000.084;76;000.438;MIDI 01
592.311;000.120;68;000.297;MIDI 01
592.282;000.263;78;000.508;MIDI 01
592.306;000.249;72;000.383;MIDI 01
592.531;000.035;64;000.461;MIDI 01
592.822;000.903;52;000.461;MIDI 01
593.747;000.162;40;000.406;MIDI 01
594.148;000.327;61;000.359;MIDI 01
594.134;000.370;45;000.391;MIDI 01
594.532;000.033;52;000.398;MIDI 01
594.119;000.473;71;000.492;MIDI 01
594.151;000.464;65;000.336;MIDI 01
594.648;000.030;69;000.461;MIDI 01
594.793;000.043;63;000.430;MIDI 01
594.812;000.025;78;000.539;MIDI 01
594.833;000.031;72;000.344;MIDI 01
594.842;000.037;68;000.258;MIDI 01
595.117;000.080;74;000.414;MIDI 01
595.111;000.148;76;000.391;MIDI 01
595.346;000.157;72;000.414;MIDI 01
595.561;000.032;64;000.398;MIDI 01
595.349;000.245;68;000.359;MIDI 01
595.323;000.381;78;000.523;MIDI 01
596.036;000.059;67;000.469;MIDI 01
596.082;000.052;71;000.172;MIDI 01
595.808;000.339;52;000.453;MIDI 01
596.027;000.281;75;000.562;MIDI 01
596.318;000.046;68;000.539;MIDI 01
596.354;000.028;72;000.445;MIDI 01
596.315;000.114;76;000.570;MIDI 01
596.336;000.388;40;000.398;MIDI 01
596.749;000.309;45;000.320;MIDI 01
597.060;000.034;52;000.453;MIDI 01
596.748;000.347;73;000.438;MIDI 01
596.720;000.375;83;000.586;MIDI 01
596.745;000.380;77;000.461;MIDI 01
597.306;000.073;63;000.406;MIDI 01
597.308;000.103;78;000.445;MIDI 01
597.311;000.111;73;000.445;MIDI 01
597.528;000.071;76;000.570;MIDI 01
597.755;000.058;73;000.562;MIDI 01
597.289;000.560;81;000.617;MIDI 01
597.978;000.034;64;000.383;MIDI 01
597.758;000.268;78;000.586;MIDI 01
598.017;000.031;73;000.484;MIDI 01
598.051;000.033;68;000.359;MIDI 01
598.322;000.197;45;000.312;MIDI 01
598.310;000.230;61;000.352;MIDI 01
598.324;000.231;66;000.312;MIDI 01
598.575;000.042;52;000.359;MIDI 01
598.286;000.332;71;000.562;MIDI 01
598.706;000.025;69;000.492;MIDI 01
598.721;000.034;68;000.320;MIDI 01
598.726;000.045;61;000.320;MIDI 01
598.833;000.039;64;000.422;MIDI 01
599.118;000.245;56;000.352;MIDI 01
599.123;000.301;61;000.289;MIDI 01
599.427;000.269;52;000.023;MIDI 01
599.587;000.118;56;000.219;MIDI 01
599.573;000.175;61;000.398;MIDI 01
599.077;000.678;64;000.398;MIDI 01
599.748;000.365;45;000.328;MIDI 01
600.180;000.250;60;000.211;MIDI 01
600.150;000.304;68;000.352;MIDI 01
600.165;000.303;42;000.266;MIDI 01
600.526;000.379;49;000.312;MIDI 01
600.144;001.039;64;000.203;MIDI 01
600.861;000.370;61;000.359;MIDI 01
600.841;000.883;69;000.406;MIDI 01
600.872;000.899;59;000.336;MIDI 01
601.728;000.253;62;000.227;MIDI 01
601.699;000.336;65;000.273;MIDI 01
601.709;000.384;70;000.383;MIDI 01
601.740;000.995;58;000.219;MIDI 01
602.686;000.212;62;000.273;MIDI 01
602.695;000.290;69;000.297;MIDI 01
602.695;000.414;47;000.297;MIDI 01
602.656;000.452;73;000.414;MIDI 01
603.230;000.029;71;000.406;MIDI 01
603.244;000.033;66;000.438;MIDI 01
603.432;000.025;73;000.383;MIDI 01
603.432;000.046;81;000.492;MIDI 01
603.450;000.048;78;000.352;MIDI 01
603.136;000.569;54;000.328;MIDI 01
603.727;000.034;66;000.344;MIDI 01
604.021;000.059;74;000.414;MIDI 01
603.982;000.182;78;000.469;MIDI 01
604.244;000.027;66;000.461;MIDI 01
603.967;000.329;81;000.570;MIDI 01
604.497;000.154;54;000.367;MIDI 01
604.730;000.039;64;000.430;MIDI 01
604.746;000.040;68;000.375;MIDI 01
604.721;000.204;73;000.570;MIDI 01
605.051;000.053;70;000.422;MIDI 01
605.049;000.126;66;000.430;MIDI 01
605.028;000.305;74;000.570;MIDI 01
605.073;000.369;42;000.297;MIDI 01
605.439;000.150;68;000.375;MIDI 01
605.444;000.227;64;000.383;MIDI 01
605.489;000.305;47;000.273;MIDI 01
605.430;000.376;73;000.477;MIDI 01
605.852;000.060;54;000.359;MIDI 01
605.931;000.031;62;000.414;MIDI 01
605.942;000.033;71;000.352;MIDI 01
606.104;000.048;81;000.516;MIDI 01
606.127;000.030;73;000.336;MIDI 01
606.127;000.053;78;000.383;MIDI 01
606.084;000.289;54;000.023;MIDI 01
606.395;000.034;66;000.359;MIDI 01
606.666;000.045;73;000.219;MIDI 01
606.647;000.075;74;000.438;MIDI 01
606.890;000.082;66;000.406;MIDI 01
606.624;000.521;81;000.539;MIDI 01
607.174;000.160;54;000.383;MIDI 01
607.440;000.043;71;000.398;MIDI 01
606.650;000.837;78;000.445;MIDI 01
607.430;000.184;54;000.023;MIDI 01
607.428;000.307;80;000.547;MIDI 01
607.727;000.111;74;000.422;MIDI 01
607.735;000.174;69;000.391;MIDI 01
607.730;000.360;78;000.438;MIDI 01
607.732;000.390;47;000.273;MIDI 01
608.101;000.106;76;000.422;MIDI 01
608.121;000.136;71;000.312;MIDI 01
608.118;000.235;40;000.312;MIDI 01
608.090;000.311;80;000.477;MIDI 01
608.418;000.045;78;000.445;MIDI 01
608.442;000.025;74;000.430;MIDI 01
608.446;000.053;69;000.375;MIDI 01
608.448;000.192;47;000.250;MIDI 01
608.763;000.393;54;000.328;MIDI 01
608.754;000.524;62;000.312;MIDI 01
608.742;000.851;69;000.406;MIDI 01
608.763;000.909;66;000.312;MIDI 01
609.149;000.989;61;000.312;MIDI 01
609.645;000.716;64;000.266;MIDI 01
610.212;000.163;62;000.211;MIDI 01
609.628;000.789;71;000.312;MIDI 01
609.644;000.808;68;000.328;MIDI 01
611.038;000.061;45;000.273;MIDI 01
611.546;000.093;63;000.266;MIDI 01
611.535;000.111;54;000.273;MIDI 01
611.525;000.139;92;000.461;MIDI 01
611.530;000.158;59;000.273;MIDI 01
611.682;000.083;90;000.445;MIDI 01
611.792;000.060;85;000.438;MIDI 01
611.904;000.040;56;000.406;MIDI 01
611.920;000.035;80;000.312;MIDI 01
611.922;000.061;64;000.375;MIDI 01
611.934;000.065;61;000.273;MIDI 01
612.024;000.045;61;000.312;MIDI 01
612.034;000.039;56;000.391;MIDI 01
612.034;000.096;83;000.398;MIDI 01
612.174;000.132;85;000.523;MIDI 01
612.288;000.032;66;000.367;MIDI 01
612.305;000.040;63;000.312;MIDI 01
612.331;000.046;59;000.227;MIDI 01
612.318;000.101;80;000.445;MIDI 01
612.434;000.024;78;000.352;MIDI 01
612.560;000.045;52;000.398;MIDI 01
612.582;000.034;64;000.359;MIDI 01
612.582;000.042;73;000.438;MIDI 01
612.600;000.036;68;000.297;MIDI 01
612.859;000.047;45;000.258;MIDI 01
613.195;000.082;54;000.320;MIDI 01
613.217;000.076;63;000.297;MIDI 01
613.174;000.127;92;000.539;MIDI 01
613.204;000.117;59;000.383;MIDI 01
613.318;000.093;90;000.492;MIDI 01
613.430;000.047;85;000.461;MIDI 01
613.535;000.046;56;000.453;MIDI 01
613.532;000.049;80;000.430;MIDI 01
613.545;000.040;64;000.414;MIDI 01
613.559;000.059;61;000.328;MIDI 01
613.650;000.038;64;000.492;MIDI 01
613.659;000.041;61;000.430;MIDI 01
613.664;000.046;56;000.500;MIDI 01
613.621;000.098;83;000.492;MIDI 01
613.757;000.140;85;000.570;MIDI 01
613.916;000.031;66;000.391;MIDI 01
613.906;000.044;63;000.477;MIDI 01
613.935;000.029;59;000.398;MIDI 01
613.897;000.120;80;000.500;MIDI 01
614.001;000.028;78;000.477;MIDI 01
614.182;000.038;73;000.398;MIDI 01
614.184;000.041;64;000.328;MIDI 01
614.205;000.040;68;000.289;MIDI 01
614.204;000.048;52;000.219;MIDI 01
614.465;000.038;45;000.359;MIDI 01
614.810;000.148;59;000.352;MIDI 01
614.794;000.165;67;000.453;MIDI 01
614.801;000.157;91;000.508;MIDI 01
614.842;000.131;64;000.289;MIDI 01
614.936;000.159;90;000.469;MIDI 01
615.079;000.078;88;000.461;MIDI 01
615.159;000.034;69;000.492;MIDI 01
615.166;000.029;61;000.430;MIDI 01
615.196;000.030;66;000.352;MIDI 01
615.196;000.079;83;000.500;MIDI 01
615.277;000.042;69;000.594;MIDI 01
615.290;000.032;66;000.375;MIDI 01
615.284;000.066;61;000.500;MIDI 01
615.278;000.121;85;000.555;MIDI 01
615.398;000.116;88;000.531;MIDI 01
615.511;000.022;67;000.469;MIDI 01
615.514;000.035;71;000.336;MIDI 01
615.549;000.044;62;000.297;MIDI 01
615.490;000.105;83;000.516;MIDI 01
615.629;000.028;78;000.383;MIDI 01
615.776;000.046;52;000.430;MIDI 01
615.786;000.035;76;000.352;MIDI 01
615.776;000.051;74;000.492;MIDI 01
615.790;000.041;67;000.328;MIDI 01
615.812;000.062;71;000.078;MIDI 01
616.035;000.032;45;000.477;MIDI 01
616.386;000.073;64;000.336;MIDI 01
616.319;000.143;95;000.625;MIDI 01
616.348;000.127;59;000.492;MIDI 01
616.342;000.150;67;000.547;MIDI 01
616.335;000.160;91;000.539;MIDI 01
616.572;000.058;88;000.492;MIDI 01
616.457;000.173;90;000.625;MIDI 01
616.679;000.023;69;000.555;MIDI 01
616.679;000.025;66;000.461;MIDI 01
616.681;000.027;61;000.469;MIDI 01
616.660;000.059;83;000.484;MIDI 01
616.796;000.042;66;000.562;MIDI 01
616.792;000.057;61;000.586;MIDI 01
616.783;000.092;69;000.656;MIDI 01
616.784;000.127;85;000.617;MIDI 01
617.041;000.057;67;000.500;MIDI 01
617.046;000.052;71;000.469;MIDI 01
616.915;000.183;88;000.531;MIDI 01
616.914;000.184;90;000.602;MIDI 01
617.066;000.054;62;000.570;MIDI 01
617.030;000.116;83;000.516;MIDI 01
617.160;000.024;78;000.469;MIDI 01
617.325;000.031;52;000.477;MIDI 01
617.334;000.023;71;000.445;MIDI 01
617.330;000.029;67;000.461;MIDI 01
617.332;000.066;74;000.477;MIDI 01
617.340;000.058;76;000.352;MIDI 01
617.680;000.039;38;000.430;MIDI 01
618.026;000.046;69;000.266;MIDI 01
618.016;000.056;74;000.422;MIDI 01
618.020;000.065;73;000.508;MIDI 01
618.177;000.036;71;000.422;MIDI 01
617.989;000.249;78;000.539;MIDI 01
618.303;000.083;66;000.414;MIDI 01
618.374;000.032;76;000.586;MIDI 01
618.379;000.030;80;000.562;MIDI 01
618.388;000.029;71;000.414;MIDI 01
618.427;000.034;61;000.383;MIDI 01
618.480;000.080;71;000.570;MIDI 01
618.503;000.072;64;000.477;MIDI 01
618.472;000.183;80;000.688;MIDI 01
618.601;000.119;61;000.438;MIDI 01
618.726;000.048;73;000.641;MIDI 01
618.470;000.308;76;000.594;MIDI 01
618.736;000.050;78;000.508;MIDI 01
618.736;000.073;56;000.531;MIDI 01
618.740;000.087;81;000.602;MIDI 01
618.855;000.044;54;000.477;MIDI 01
618.992;000.007;80;000.523;MIDI 01
618.992;000.009;85;000.531;MIDI 01
618.969;000.056;88;000.641;MIDI 01
618.995;000.054;45;000.539;MIDI 01
619.207;000.029;38;000.609;MIDI 01
619.472;000.085;69;000.625;MIDI 01
619.479;000.148;73;000.641;MIDI 01
619.479;000.160;74;000.617;MIDI 01
619.629;000.025;71;000.562;MIDI 01
619.467;000.210;81;000.695;MIDI 01
619.470;000.232;78;000.578;MIDI 01
619.757;000.067;66;000.445;MIDI 01
619.815;000.017;71;000.586;MIDI 01
619.815;000.022;80;000.609;MIDI 01
619.817;000.024;76;000.531;MIDI 01
619.828;000.065;83;000.461;MIDI 01
619.849;000.047;61;000.430;MIDI 01
619.903;000.081;71;000.695;MIDI 01
619.926;000.085;64;000.570;MIDI 01
619.895;000.122;83;000.602;MIDI 01
619.924;000.121;76;000.680;MIDI 01
619.906;000.203;80;000.633;MIDI 01
620.065;000.113;61;000.422;MIDI 01
620.161;000.020;73;000.602;MIDI 01
620.159;000.047;78;000.602;MIDI 01
620.171;000.076;56;000.562;MIDI 01
620.171;000.076;85;000.672;MIDI 01
620.300;000.077;54;000.570;MIDI 01
620.496;000.035;45;000.539;MIDI 01
620.508;000.075;81;000.727;MIDI 01
620.502;000.200;93;000.789;MIDI 01
620.515;000.227;85;000.656;MIDI 01
620.907;000.055;35;000.695;MIDI 01
620.903;000.069;47;000.727;MIDI 01
620.508;000.717;90;000.625;MIDI 01
621.260;000.041;66;000.648;MIDI 01
621.293;000.069;62;000.094;MIDI 01
621.251;000.110;83;000.711;MIDI 01
621.251;000.145;86;000.695;MIDI 01
621.268;000.180;57;000.594;MIDI 01
621.242;000.222;93;000.812;MIDI 01
621.532;000.033;64;000.484;MIDI 01
621.527;000.041;68;000.562;MIDI 01
621.237;000.338;90;000.555;MIDI 01
621.549;000.053;59;000.555;MIDI 01
621.679;000.024;85;000.477;MIDI 01
621.657;000.046;88;000.625;MIDI 01
621.669;000.034;92;000.555;MIDI 01
621.665;000.039;95;000.672;MIDI 01
621.767;000.039;47;000.672;MIDI 01
621.748;000.124;88;000.758;MIDI 01
621.752;000.128;92;000.734;MIDI 01
621.744;000.141;85;000.742;MIDI 01
622.023;000.028;83;000.625;MIDI 01
622.025;000.046;61;000.570;MIDI 01
622.021;000.050;86;000.578;MIDI 01
622.018;000.053;90;000.680;MIDI 01
622.017;000.054;93;000.734;MIDI 01
622.073;000.013;57;000.469;MIDI 01
622.073;000.033;66;000.297;MIDI 01
622.280;000.025;74;000.695;MIDI 01
622.301;000.013;85;000.672;MIDI 01
622.275;000.043;81;000.656;MIDI 01
622.301;000.019;78;000.586;MIDI 01
622.301;000.045;66;000.469;MIDI 01
622.329;000.024;73;000.484;MIDI 01
622.301;000.059;62;000.570;MIDI 01
622.400;000.045;74;000.195;MIDI 01
622.628;000.044;47;000.781;MIDI 01
622.628;000.053;35;000.758;MIDI 01
622.922;000.032;66;000.609;MIDI 01
622.952;000.046;62;000.227;MIDI 01
622.876;000.196;83;000.672;MIDI 01
622.934;000.170;57;000.555;MIDI 01
622.866;000.249;93;000.758;MIDI 01
622.882;000.253;86;000.602;MIDI 01
622.895;000.244;85;000.461;MIDI 01
623.109;000.042;64;000.547;MIDI 01
623.120;000.033;68;000.578;MIDI 01
622.874;000.300;90;000.703;MIDI 01
623.146;000.045;59;000.508;MIDI 01
623.266;000.025;88;000.703;MIDI 01
623.268;000.023;95;000.695;MIDI 01
623.278;000.022;85;000.531;MIDI 01
623.272;000.033;92;000.562;MIDI 01
623.367;000.057;40;000.734;MIDI 01
623.355;000.167;92;000.734;MIDI 01
623.351;000.192;85;000.812;MIDI 01
623.689;000.032;66;000.648;MIDI 01
623.342;000.379;88;000.773;MIDI 01
623.683;000.038;90;000.703;MIDI 01
623.723;000.003;61;000.492;MIDI 01
623.691;000.038;93;000.703;MIDI 01
623.686;000.050;85;000.742;MIDI 01
623.723;000.017;57;000.492;MIDI 01
623.922;000.027;76;000.703;MIDI 01
623.934;000.020;85;000.609;MIDI 01
623.949;000.017;86;000.562;MIDI 01
623.940;000.055;68;000.266;MIDI 01
623.953;000.042;69;000.516;MIDI 01
623.954;000.041;73;000.492;MIDI 01
623.947;000.049;64;000.586;MIDI 01
623.997;000.002;81;000.266;MIDI 01
624.208;000.126;40;000.719;MIDI 01
624.203;000.174;52;000.766;MIDI 01
624.424;000.102;67;000.578;MIDI 01
624.528;000.033;70;000.562;MIDI 01
624.534;000.029;73;000.633;MIDI 01
624.695;000.058;64;000.742;MIDI 01
624.684;000.077;81;000.594;MIDI 01
624.695;000.097;61;000.688;MIDI 01
624.695;000.110;55;000.664;MIDI 01
624.698;000.123;58;000.664;MIDI 01
624.674;000.158;79;000.570;MIDI 01
624.702;000.143;82;000.633;MIDI 01
624.836;000.103;79;000.047;MIDI 01
624.695;000.275;90;000.766;MIDI 01
624.710;000.307;85;000.617;MIDI 01
625.089;000.024;82;000.656;MIDI 01
625.077;000.041;85;000.555;MIDI 01
625.091;000.029;79;000.602;MIDI 01
625.103;000.019;90;000.555;MIDI 01
625.179;000.032;40;000.727;MIDI 01
625.172;000.057;52;000.773;MIDI 01
625.179;000.239;85;000.711;MIDI 01
625.180;000.297;79;000.758;MIDI 01
625.443;000.054;64;000.758;MIDI 01
625.172;000.340;82;000.672;MIDI 01
625.179;000.336;90;000.766;MIDI 01
625.452;000.066;62;000.656;MIDI 01
625.447;000.084;55;000.703;MIDI 01
625.466;000.083;58;000.617;MIDI 01
625.691;000.028;86;000.648;MIDI 01
625.693;000.031;79;000.719;MIDI 01
625.695;000.033;82;000.609;MIDI 01
625.686;000.052;90;000.758;MIDI 01
625.924;000.049;40;000.703;MIDI 01
625.914;000.065;52;000.703;MIDI 01
626.059;000.098;68;000.672;MIDI 01
626.156;000.046;72;000.539;MIDI 01
626.194;000.056;75;000.617;MIDI 01
626.341;000.073;64;000.750;MIDI 01
626.350;000.092;63;000.664;MIDI 01
626.352;000.104;60;000.617;MIDI 01
626.347;000.119;56;000.727;MIDI 01
626.347;000.239;90;000.781;MIDI 01
626.337;000.294;80;000.742;MIDI 01
626.354;000.336;84;000.609;MIDI 01
626.376;000.320;87;000.609;MIDI 01
626.783;000.031;80;000.688;MIDI 01
626.789;000.026;84;000.664;MIDI 01
626.789;000.026;87;000.688;MIDI 01
626.797;000.023;90;000.570;MIDI 01
626.891;000.047;40;000.742;MIDI 01
626.883;000.068;52;000.742;MIDI 01
626.890;000.328;87;000.734;MIDI 01
626.886;000.343;84;000.734;MIDI 01
626.881;000.360;80;000.797;MIDI 01
626.879;000.392;90;000.844;MIDI 01
627.217;000.211;64;000.820;MIDI 01
627.222;000.217;61;000.703;MIDI 01
627.219;000.310;57;000.758;MIDI 01
627.462;000.150;85;000.117;MIDI 01
627.656;000.109;81;000.805;MIDI 01
627.656;000.247;85;000.672;MIDI 01
627.670;000.302;88;000.688;MIDI 01
627.670;000.567;90;000.820;MIDI 01
628.205;000.201;30;000.758;MIDI 01
628.352;000.054;81;000.094;MIDI 01
628.304;000.132;93;000.484;MIDI 01
628.202;000.246;42;000.789;MIDI 01
628.765;000.300;68;000.750;MIDI 01
628.754;000.630;93;000.773;MIDI 01
628.760;000.645;81;000.820;MIDI 01
628.770;000.666;61;000.617;MIDI 01
629.405;000.066;66;000.805;MIDI 01
628.763;000.746;57;000.641;MIDI 01
628.758;000.851;92;000.820;MIDI 01
629.636;000.062;83;000.719;MIDI 01
629.634;000.109;95;000.766;MIDI 01
629.644;000.138;90;000.711;MIDI 01
629.875;000.021;35;000.680;MIDI 01
629.875;000.042;47;000.711;MIDI 01
629.907;000.074;92;000.172;MIDI 01
629.852;000.149;90;000.734;MIDI 01
629.875;000.182;95;000.797;MIDI 01
629.875;000.222;83;000.734;MIDI 01
630.183;000.069;65;000.586;MIDI 01
630.189;000.078;93;000.719;MIDI 01
630.202;000.093;88;000.656;MIDI 01
630.199;000.096;89;000.641;MIDI 01
630.192;000.114;81;000.727;MIDI 01
630.205;000.172;61;000.539;MIDI 01
630.429;000.027;69;000.641;MIDI 01
630.431;000.036;64;000.617;MIDI 01
630.195;000.327;57;000.578;MIDI 01
630.449;000.073;73;000.703;MIDI 01
630.441;000.153;81;000.680;MIDI 01
630.443;000.189;85;000.719;MIDI 01
630.694;000.040;35;000.695;MIDI 01
630.689;000.048;47;000.789;MIDI 01
630.766;000.034;81;000.367;MIDI 01
630.769;000.033;93;000.398;MIDI 01
630.989;000.055;68;000.602;MIDI 01
630.943;000.241;81;000.758;MIDI 01
630.989;000.196;63;000.539;MIDI 01
631.160;000.042;66;000.594;MIDI 01
630.949;000.253;87;000.781;MIDI 01
630.941;000.261;93;000.711;MIDI 01
630.945;000.277;92;000.766;MIDI 01
630.989;000.238;57;000.602;MIDI 01
631.170;000.057;61;000.477;MIDI 01
631.285;000.027;83;000.695;MIDI 01
631.288;000.028;95;000.711;MIDI 01
631.282;000.043;90;000.438;MIDI 01
631.384;000.049;52;000.734;MIDI 01
631.382;000.061;40;000.727;MIDI 01
631.369;000.132;95;000.805;MIDI 01
631.378;000.161;83;000.766;MIDI 01
631.380;000.197;90;000.836;MIDI 01
631.629;000.029;81;000.742;MIDI 01
631.626;000.041;89;000.766;MIDI 01
631.651;000.022;65;000.586;MIDI 01
631.628;000.051;93;000.742;MIDI 01
631.659;000.167;61;000.570;MIDI 01
631.874;000.031;69;000.625;MIDI 01
631.876;000.029;73;000.711;MIDI 01
631.872;000.034;64;000.609;MIDI 01
631.878;000.033;85;000.703;MIDI 01
631.884;000.030;80;000.617;MIDI 01
631.654;000.277;57;000.625;MIDI 01
631.972;000.028;73;000.352;MIDI 01
632.145;000.044;64;000.680;MIDI 01
632.154;000.034;76;000.734;MIDI 01
632.165;000.027;88;000.664;MIDI 01
632.163;000.032;60;000.539;MIDI 01
632.156;000.041;55;000.578;MIDI 01
632.169;000.030;58;000.547;MIDI 01
632.152;000.049;84;000.664;MIDI 01
632.261;000.054;55;000.680;MIDI 01
632.274;000.042;58;000.578;MIDI 01
632.270;000.046;60;000.609;MIDI 01
632.263;000.053;64;000.727;MIDI 01
632.272;000.044;76;000.742;MIDI 01
632.276;000.040;84;000.648;MIDI 01
632.267;000.049;88;000.734;MIDI 01
632.364;000.044;64;000.562;MIDI 01
632.372;000.037;55;000.555;MIDI 01
632.383;000.032;60;000.594;MIDI 01
632.375;000.043;76;000.758;MIDI 01
632.381;000.049;58;000.594;MIDI 01
632.377;000.054;84;000.672;MIDI 01
632.369;000.065;88;000.672;MIDI 01
632.627;000.011;65;000.664;MIDI 01
632.627;000.017;74;000.719;MIDI 01
632.627;000.019;82;000.703;MIDI 01
632.627;000.021;86;000.695;MIDI 01
632.627;000.041;55;000.555;MIDI 01
632.632;000.050;58;000.562;MIDI 01
632.746;000.049;65;000.141;MIDI 01
632.897;000.032;48;000.727;MIDI 01
632.904;000.034;69;000.625;MIDI 01
632.916;000.027;58;000.641;MIDI 01
632.902;000.043;36;000.727;MIDI 01
632.899;000.054;62;000.664;MIDI 01
632.926;000.038;65;000.414;MIDI 01
633.043;000.038;58;000.086;MIDI 01
633.230;000.036;40;000.750;MIDI 01
633.233;000.036;28;000.727;MIDI 01
633.228;000.045;52;000.758;MIDI 01
633.732;000.916;62;000.695;MIDI 01
633.732;000.967;66;000.820;MIDI 01
633.700;001.024;73;000.789;MIDI 01
633.732;001.019;58;000.594;MIDI 01
633.702;001.059;56;000.711;MIDI 01
633.704;001.124;80;000.727;MIDI 01
633.732;001.096;85;000.797;MIDI 01
635.148;000.031;66;000.727;MIDI 01
635.155;000.039;56;000.664;MIDI 01
635.169;000.046;62;000.508;MIDI 01
635.183;000.031;68;000.469;MIDI 01
635.147;000.068;80;000.766;MIDI 01
635.217;000.036;73;000.188;MIDI 01
635.290;000.030;68;000.664;MIDI 01
635.302;000.021;73;000.523;MIDI 01
635.288;000.039;66;000.461;MIDI 01
635.292;000.041;62;000.641;MIDI 01
635.294;000.041;56;000.523;MIDI 01
635.285;000.076;85;000.734;MIDI 01
635.406;000.026;68;000.461;MIDI 01
635.415;000.023;66;000.555;MIDI 01
635.426;000.029;62;000.516;MIDI 01
635.411;000.048;56;000.633;MIDI 01
635.417;000.049;80;000.695;MIDI 01
635.424;000.077;61;000.586;MIDI 01
635.571;000.027;64;000.734;MIDI 01
635.584;000.016;69;000.758;MIDI 01
635.584;000.020;73;000.766;MIDI 01
635.584;000.026;81;000.820;MIDI 01
635.585;000.039;57;000.633;MIDI 01
635.564;000.064;61;000.547;MIDI 01
635.941;000.026;45;000.781;MIDI 01
635.944;000.028;33;000.695;MIDI 01
636.064;000.042;45;000.188;MIDI 01
640.487;000.432;45;000.289;MIDI 01
642.217;000.052;71;000.227;MIDI 01
642.044;000.233;83;000.305;MIDI 01
642.367;000.580;64;000.242;MIDI 01
642.325;000.641;67;000.289;MIDI 01
642.331;001.055;60;000.258;MIDI 01
643.403;000.378;66;000.461;MIDI 01
643.416;000.499;63;000.312;MIDI 01
643.401;000.629;59;000.367;MIDI 01
644.458;000.925;60;000.320;MIDI 01
644.435;001.155;64;000.344;MIDI 01
645.592;000.073;83;000.312;MIDI 01
644.458;001.470;57;000.242;MIDI 01
645.433;000.908;95;000.383;MIDI 01
646.600;000.121;63;000.195;MIDI 01
646.569;000.182;66;000.258;MIDI 01
646.573;000.212;59;000.211;MIDI 01
648.003;000.360;45;000.352;MIDI 01
648.851;000.139;83;000.375;MIDI 01
648.981;000.033;71;000.336;MIDI 01
649.108;000.343;64;000.328;MIDI 01
649.099;000.436;67;000.414;MIDI 01
649.106;001.198;60;000.328;MIDI 01
650.230;000.125;71;000.500;MIDI 01
650.239;000.312;66;000.406;MIDI 01
650.232;000.471;63;000.266;MIDI 01
651.314;000.394;64;000.359;MIDI 01
651.312;000.466;60;000.328;MIDI 01
651.333;000.484;57;000.289;MIDI 01
652.110;000.133;95;000.305;MIDI 01
652.246;000.088;83;000.320;MIDI 01
653.811;000.595;58;000.250;MIDI 01
653.811;000.680;61;000.250;MIDI 01
653.796;000.704;66;000.266;MIDI 01
652.486;003.483;38;000.273;MIDI 01
656.943;000.115;70;000.078;MIDI 01
656.914;000.273;75;000.219;MIDI 01
655.847;001.839;31;000.211;MIDI 01
656.886;000.931;78;000.383;MIDI 01
657.686;000.137;66;000.336;MIDI 01
657.686;000.433;75;000.398;MIDI 01
657.688;000.504;70;000.320;MIDI 01
657.705;000.939;38;000.281;MIDI 01
658.428;000.226;75;000.375;MIDI 01
658.431;000.289;70;000.344;MIDI 01
658.411;000.575;78;000.469;MIDI 01
659.096;000.122;76;000.469;MIDI 01
659.100;000.136;71;000.391;MIDI 01
659.096;000.684;67;000.383;MIDI 01
658.451;001.535;50;000.258;MIDI 01
659.819;000.462;71;000.422;MIDI 01
659.837;000.635;63;000.289;MIDI 01
659.846;000.928;66;000.328;MIDI 01
659.868;001.006;55;000.281;MIDI 01
661.293;000.072;54;000.367;MIDI 01
661.293;000.333;63;000.391;MIDI 01
661.644;000.589;71;000.484;MIDI 01
660.856;001.624;48;000.398;MIDI 01
661.676;000.841;66;000.375;MIDI 01
662.609;000.038;54;000.383;MIDI 01
662.596;000.234;63;000.484;MIDI 01
663.077;000.242;63;000.211;MIDI 01
663.030;000.346;66;000.383;MIDI 01
663.022;000.854;71;000.461;MIDI 01
662.282;001.767;43;000.445;MIDI 01
663.906;000.299;64;000.367;MIDI 01
663.928;001.172;69;000.375;MIDI 01
663.946;001.247;55;000.281;MIDI 01
665.014;000.428;57;000.250;MIDI 01
664.995;000.525;64;000.312;MIDI 01
665.025;001.622;48;000.227;MIDI 01
666.572;000.389;45;000.320;MIDI 01
667.578;000.066;83;000.297;MIDI 01
667.729;000.097;71;000.234;MIDI 01
667.868;000.197;73;000.195;MIDI 01
667.899;000.217;67;000.305;MIDI 01
667.948;000.208;64;000.242;MIDI 01
667.889;000.355;61;000.297;MIDI 01
667.919;000.390;59;000.219;MIDI 01
667.854;000.763;79;000.414;MIDI 01
668.797;000.143;72;000.391;MIDI 01
668.785;000.201;70;000.383;MIDI 01
668.785;000.202;63;000.312;MIDI 01
668.791;000.216;66;000.328;MIDI 01
668.802;000.312;58;000.305;MIDI 01
668.761;000.750;78;000.516;MIDI 01
669.589;000.172;67;000.406;MIDI 01
669.580;000.270;71;000.422;MIDI 01
669.601;000.282;55;000.328;MIDI 01
669.582;000.356;64;000.367;MIDI 01
669.575;000.379;76;000.477;MIDI 01
669.600;000.487;61;000.344;MIDI 01
670.345;000.079;95;000.516;MIDI 01
670.475;000.054;83;000.141;MIDI 01
670.618;000.053;71;000.266;MIDI 01
669.592;001.446;59;000.297;MIDI 01
671.465;000.116;70;000.305;MIDI 01
671.502;000.078;72;000.297;MIDI 01
671.502;000.119;63;000.195;MIDI 01
671.507;000.114;66;000.148;MIDI 01
671.449;000.188;78;000.336;MIDI 01
671.513;000.126;60;000.172;MIDI 01
671.509;000.195;58;000.219;MIDI 01
672.839;000.259;33;000.336;MIDI 01
673.698;000.086;83;000.453;MIDI 01
673.837;000.121;71;000.281;MIDI 01
673.935;000.103;73;000.328;MIDI 01
673.922;000.179;67;000.383;MIDI 01
673.935;000.182;64;000.320;MIDI 01
673.935;000.229;61;000.297;MIDI 01
673.917;000.277;59;000.336;MIDI 01
673.917;000.874;79;000.500;MIDI 01
674.747;000.153;63;000.336;MIDI 01
674.734;000.169;66;000.352;MIDI 01
674.739;000.167;69;000.359;MIDI 01
674.736;000.178;71;000.336;MIDI 01
674.712;000.219;83;000.547;MIDI 01
674.742;000.222;57;000.352;MIDI 01
674.712;000.282;75;000.414;MIDI 01
674.776;000.276;59;000.312;MIDI 01
675.749;000.191;67;000.352;MIDI 01
675.744;000.273;71;000.367;MIDI 01
675.706;000.354;76;000.430;MIDI 01
675.781;000.286;55;000.297;MIDI 01
675.747;000.358;64;000.297;MIDI 01
675.758;000.487;61;000.312;MIDI 01
676.519;000.067;95;000.430;MIDI 01
676.608;000.042;83;000.336;MIDI 01
676.756;000.054;71;000.289;MIDI 01
675.744;001.449;59;000.305;MIDI 01
677.868;000.106;63;000.195;MIDI 01
677.845;000.160;66;000.164;MIDI 01
677.854;000.171;60;000.164;MIDI 01
677.823;000.230;70;000.273;MIDI 01
677.843;000.214;72;000.289;MIDI 01
677.866;000.222;58;000.188;MIDI 01
677.803;000.318;78;000.328;MIDI 01
679.918;000.319;30;000.219;MIDI 01
679.919;000.393;42;000.242;MIDI 01
681.140;000.289;91;000.391;MIDI 01
681.144;000.308;88;000.336;MIDI 01
681.174;000.333;84;000.266;MIDI 01
681.158;000.388;79;000.297;MIDI 01
681.185;000.783;58;000.188;MIDI 01
681.188;000.855;64;000.195;MIDI 01
681.172;000.983;67;000.250;MIDI 01
682.096;000.091;72;000.281;MIDI 01
682.111;000.227;76;000.297;MIDI 01
682.078;000.307;79;000.344;MIDI 01
682.080;000.305;84;000.438;MIDI 01
682.953;000.169;69;000.219;MIDI 01
682.921;000.203;74;000.359;MIDI 01
682.888;000.293;86;000.461;MIDI 01
682.885;000.298;90;000.578;MIDI 01
682.929;000.275;81;000.234;MIDI 01
682.895;000.402;78;000.375;MIDI 01
682.953;000.491;66;000.297;MIDI 01
683.728;000.066;72;000.289;MIDI 01
683.751;000.061;67;000.266;MIDI 01
683.725;000.144;64;000.336;MIDI 01
683.691;000.223;88;000.578;MIDI 01
683.700;000.232;76;000.445;MIDI 01
683.702;000.250;84;000.438;MIDI 01
683.716;000.256;79;000.391;MIDI 01
684.544;000.056;64;000.227;MIDI 01
684.558;000.079;58;000.312;MIDI 01
684.501;000.789;79;000.531;MIDI 01
684.506;000.843;76;000.422;MIDI 01
684.526;000.856;72;000.383;MIDI 01
685.334;000.112;42;000.430;MIDI 01
684.515;000.950;67;000.414;MIDI 01
686.077;000.055;60;000.359;MIDI 01
686.091;000.140;64;000.375;MIDI 01
686.073;000.200;72;000.500;MIDI 01
686.075;000.227;67;000.406;MIDI 01
686.983;000.222;74;000.461;MIDI 01
686.968;000.248;78;000.602;MIDI 01
686.987;000.246;69;000.414;MIDI 01
686.982;000.282;66;000.445;MIDI 01
687.000;000.270;62;000.422;MIDI 01
687.000;000.506;57;000.375;MIDI 01
687.756;000.068;60;000.422;MIDI 01
687.751;000.138;55;000.422;MIDI 01
687.727;000.174;76;000.625;MIDI 01
687.727;000.194;64;000.523;MIDI 01
687.727;000.212;72;000.555;MIDI 01
687.730;000.239;67;000.484;MIDI 01
688.585;000.185;52;000.406;MIDI 01
688.592;000.258;46;000.438;MIDI 01
688.552;002.276;67;000.570;MIDI 01
688.550;002.281;55;000.445;MIDI 01
688.548;002.341;64;000.469;MIDI 01
688.585;002.334;60;000.453;MIDI 01
691.066;000.180;52;000.477;MIDI 01
691.077;000.368;60;000.484;MIDI 01
689.477;002.216;42;000.508;MIDI 01
691.454;000.321;67;000.570;MIDI 01
691.478;000.359;60;000.164;MIDI 01
690.556;001.822;30;000.492;MIDI 01
691.469;001.076;64;000.500;MIDI 01
692.572;000.116;52;000.531;MIDI 01
692.568;000.607;59;000.578;MIDI 01
693.138;000.188;67;000.570;MIDI 01
693.151;000.423;64;000.523;MIDI 01
693.596;000.069;52;000.547;MIDI 01
693.605;000.095;58;000.523;MIDI 01
692.222;002.473;42;000.547;MIDI 01
693.145;002.153;54;000.461;MIDI 01
694.198;002.061;67;000.508;MIDI 01
695.199;001.148;42;000.320;MIDI 01
694.198;002.757;64;000.461;MIDI 01
694.198;002.908;63;000.453;MIDI 01
696.253;001.001;30;000.344;MIDI 01
697.252;000.317;42;000.297;MIDI 01
697.745;000.049;52;000.219;MIDI 01
697.710;000.126;58;000.312;MIDI 01
698.239;000.068;54;000.227;MIDI 01
698.202;000.117;67;000.328;MIDI 01
698.222;000.116;62;000.352;MIDI 01
698.204;000.189;64;000.344;MIDI 01
698.741;000.052;52;000.312;MIDI 01
698.748;000.100;58;000.258;MIDI 01
699.471;000.496;66;000.352;MIDI 01
699.474;000.682;61;000.312;MIDI 01
699.489;000.674;63;000.266;MIDI 01
699.499;001.246;35;000.227;MIDI 01
700.691;000.079;42;000.219;MIDI 01
700.691;000.116;51;000.250;MIDI 01
700.647;000.581;59;000.328;MIDI 01
701.886;000.202;59;000.227;MIDI 01
701.913;000.200;51;000.234;MIDI 01
703.590;000.347;35;000.195;MIDI 01
704.756;000.258;65;000.195;MIDI 01
704.758;000.261;62;000.242;MIDI 01
704.728;000.334;77;000.281;MIDI 01
704.751;000.330;69;000.219;MIDI 01
704.760;000.459;74;000.219;MIDI 01
704.723;000.535;81;000.383;MIDI 01
705.696;000.094;73;000.289;MIDI 01
705.673;000.220;61;000.250;MIDI 01
705.696;000.223;64;000.250;MIDI 01
705.671;000.250;76;000.359;MIDI 01
704.772;001.173;57;000.117;MIDI 01
705.675;000.346;68;000.289;MIDI 01
705.647;000.374;80;000.438;MIDI 01
705.880;000.244;73;000.023;MIDI 01
706.600;000.146;67;000.336;MIDI 01
706.590;000.300;75;000.383;MIDI 01
706.612;000.354;72;000.312;MIDI 01
706.569;000.433;79;000.438;MIDI 01
707.510;000.056;95;000.398;MIDI 01
707.584;000.032;83;000.336;MIDI 01
706.606;001.298;63;000.273;MIDI 01
706.635;001.280;60;000.273;MIDI 01
707.702;001.078;71;000.211;MIDI 01
708.689;000.097;68;000.234;MIDI 01
708.685;000.126;64;000.258;MIDI 01
708.688;000.156;61;000.242;MIDI 01
708.696;000.157;73;000.281;MIDI 01
708.698;000.155;76;000.234;MIDI 01
706.600;002.272;57;000.227;MIDI 01
708.672;000.226;80;000.281;MIDI 01
710.114;000.280;35;000.312;MIDI 01
711.141;000.082;77;000.344;MIDI 01
711.174;000.077;74;000.281;MIDI 01
711.156;000.103;69;000.297;MIDI 01
711.197;000.191;62;000.234;MIDI 01
711.186;000.257;65;000.258;MIDI 01
711.128;000.424;81;000.523;MIDI 01
712.059;000.082;73;000.336;MIDI 01
712.071;000.076;68;000.375;MIDI 01
712.079;000.161;64;000.289;MIDI 01
712.059;000.232;76;000.398;MIDI 01
712.096;000.228;61;000.250;MIDI 01
712.028;000.306;85;000.594;MIDI 01
712.064;000.318;80;000.375;MIDI 01
711.198;001.304;57;000.188;MIDI 01
713.053;000.110;72;000.312;MIDI 01
713.042;000.138;67;000.344;MIDI 01
713.029;000.256;75;000.367;MIDI 01
713.166;000.202;72;000.023;MIDI 01
713.029;000.368;79;000.438;MIDI 01
713.810;000.071;95;000.430;MIDI 01
713.904;000.042;83;000.359;MIDI 01
714.047;000.192;71;000.164;MIDI 01
713.054;001.204;63;000.297;MIDI 01
713.072;001.205;60;000.266;MIDI 01
715.033;000.093;64;000.219;MIDI 01
715.021;000.192;61;000.250;MIDI 01
713.070;002.159;57;000.203;MIDI 01
715.015;000.273;68;000.234;MIDI 01
715.020;000.319;73;000.203;MIDI 01
715.046;000.303;76;000.219;MIDI 01
715.011;000.359;80;000.242;MIDI 01
716.611;001.423;31;000.234;MIDI 01
717.873;000.392;43;000.242;MIDI 01
718.380;000.350;56;000.297;MIDI 01
719.127;000.048;65;000.305;MIDI 01
719.129;000.048;67;000.258;MIDI 01
718.792;000.400;57;000.289;MIDI 01
719.132;000.247;55;000.242;MIDI 01
719.405;000.173;58;000.398;MIDI 01
719.151;000.602;53;000.258;MIDI 01
719.653;000.277;59;000.406;MIDI 01
719.897;000.044;67;000.414;MIDI 01
719.906;000.048;69;000.391;MIDI 01
719.876;000.401;57;000.344;MIDI 01
720.106;000.179;61;000.539;MIDI 01
719.879;000.624;55;000.336;MIDI 01
720.541;000.027;56;000.375;MIDI 01
720.345;000.265;62;000.516;MIDI 01
720.631;000.070;65;000.383;MIDI 01
720.629;000.139;68;000.414;MIDI 01
720.622;000.148;70;000.492;MIDI 01
721.029;000.234;63;000.359;MIDI 01
721.021;000.303;66;000.461;MIDI 01
721.345;000.223;69;000.422;MIDI 01
721.328;000.257;74;000.531;MIDI 01
721.653;000.033;67;000.336;MIDI 01
721.653;000.047;64;000.398;MIDI 01
721.053;001.436;31;000.320;MIDI 01
722.087;000.565;43;000.250;MIDI 01
722.008;000.646;60;000.352;MIDI 01
722.399;000.365;51;000.359;MIDI 01
722.809;000.057;54;000.242;MIDI 01
722.053;000.819;57;000.242;MIDI 01
722.772;000.103;59;000.391;MIDI 01
723.273;001.218;55;000.328;MIDI 01
724.479;001.197;43;000.281;MIDI 01
725.651;001.777;31;000.289;MIDI 01
727.416;000.374;28;000.219;MIDI 01
728.669;000.319;55;000.156;MIDI 01
728.610;000.395;82;000.336;MIDI 01
728.669;000.341;62;000.242;MIDI 01
728.608;000.414;74;000.344;MIDI 01
728.669;000.381;58;000.234;MIDI 01
728.606;000.483;86;000.383;MIDI 01
728.616;000.551;79;000.312;MIDI 01
729.595;000.152;81;000.336;MIDI 01
729.589;000.239;61;000.289;MIDI 01
729.624;000.230;57;000.211;MIDI 01
729.586;000.282;78;000.375;MIDI 01
729.635;000.239;54;000.141;MIDI 01
729.564;000.328;85;000.500;MIDI 01
728.669;001.250;52;000.125;MIDI 01
729.590;000.349;73;000.336;MIDI 01
730.476;000.120;72;000.422;MIDI 01
730.476;000.228;80;000.406;MIDI 01
730.496;000.241;52;000.234;MIDI 01
730.500;000.261;77;000.328;MIDI 01
730.498;000.269;53;000.219;MIDI 01
730.514;000.282;56;000.242;MIDI 01
730.476;000.320;84;000.477;MIDI 01
731.335;000.033;100;000.453;MIDI 01
731.388;000.055;88;000.352;MIDI 01
731.534;000.056;76;000.266;MIDI 01
732.460;000.078;57;000.188;MIDI 01
732.449;000.094;81;000.180;MIDI 01
732.447;000.109;78;000.211;MIDI 01
732.423;000.165;73;000.266;MIDI 01
732.428;000.167;61;000.250;MIDI 01
732.452;000.147;54;000.133;MIDI 01
732.404;000.218;85;000.352;MIDI 01
733.529;000.262;40;000.430;MIDI 01
734.461;000.173;62;000.336;MIDI 01
734.456;000.180;74;000.359;MIDI 01
734.460;000.210;82;000.391;MIDI 01
734.475;000.211;55;000.281;MIDI 01
734.465;000.224;79;000.352;MIDI 01
734.504;000.199;58;000.289;MIDI 01
734.427;000.406;86;000.578;MIDI 01
734.499;000.960;52;000.297;MIDI 01
735.432;000.120;66;000.430;MIDI 01
735.428;000.184;58;000.398;MIDI 01
735.435;000.184;61;000.383;MIDI 01
735.402;000.255;90;000.641;MIDI 01
735.428;000.247;85;000.461;MIDI 01
735.433;000.274;82;000.312;MIDI 01
735.428;000.300;78;000.414;MIDI 01
735.456;000.641;54;000.359;MIDI 01
736.507;000.244;72;000.430;MIDI 01
736.535;000.230;52;000.289;MIDI 01
736.516;000.268;60;000.367;MIDI 01
736.545;000.293;57;000.297;MIDI 01
736.527;000.324;53;000.312;MIDI 01
736.518;000.359;77;000.414;MIDI 01
736.500;000.408;81;000.453;MIDI 01
736.494;000.426;84;000.539;MIDI 01
737.471;000.041;100;000.430;MIDI 01
737.539;000.043;88;000.359;MIDI 01
737.654;000.132;76;000.234;MIDI 01
738.901;000.124;58;000.219;MIDI 01
738.868;000.190;61;000.273;MIDI 01
738.866;000.218;54;000.195;MIDI 01
738.874;000.640;73;000.203;MIDI 01
738.878;001.066;78;000.219;MIDI 01
738.870;001.350;82;000.258;MIDI 01
738.848;001.578;85;000.297;MIDI 01
740.860;000.310;25;000.242;MIDI 01
742.273;000.370;98;000.352;MIDI 01
742.270;000.392;95;000.320;MIDI 01
742.283;000.444;91;000.289;MIDI 01
742.279;000.498;86;000.289;MIDI 01
742.324;000.576;53;000.156;MIDI 01
742.303;000.600;59;000.219;MIDI 01
742.299;000.689;55;000.188;MIDI 01
742.306;000.902;62;000.203;MIDI 01
743.247;000.066;79;000.305;MIDI 01
743.265;000.212;83;000.273;MIDI 01
743.244;000.277;91;000.398;MIDI 01
743.237;000.309;86;000.336;MIDI 01
744.150;000.127;64;000.188;MIDI 01
744.099;000.230;93;000.414;MIDI 01
744.087;000.257;97;000.562;MIDI 01
744.139;000.208;67;000.281;MIDI 01
744.148;000.248;69;000.195;MIDI 01
744.139;000.257;88;000.367;MIDI 01
744.101;000.331;85;000.445;MIDI 01
744.139;000.421;61;000.281;MIDI 01
744.926;000.095;67;000.250;MIDI 01
744.976;000.051;65;000.305;MIDI 01
744.954;000.108;62;000.297;MIDI 01
744.923;000.167;95;000.547;MIDI 01
744.968;000.124;59;000.336;MIDI 01
744.921;000.201;91;000.477;MIDI 01
744.931;000.216;86;000.430;MIDI 01
744.931;000.222;83;000.438;MIDI 01
745.765;000.087;59;000.336;MIDI 01
745.786;000.122;55;000.297;MIDI 01
745.803;000.118;53;000.289;MIDI 01
745.756;000.920;86;000.555;MIDI 01
746.716;000.047;37;000.406;MIDI 01
745.759;001.022;83;000.430;MIDI 01
745.775;001.076;79;000.414;MIDI 01
745.773;001.159;74;000.414;MIDI 01
747.622;000.067;67;000.211;MIDI 01
747.640;000.117;71;000.305;MIDI 01
747.599;000.234;79;000.438;MIDI 01
747.597;000.260;74;000.344;MIDI 01
748.758;000.211;81;000.469;MIDI 01
748.758;000.222;85;000.555;MIDI 01
748.779;000.237;76;000.312;MIDI 01
748.773;000.284;73;000.367;MIDI 01
749.659;000.044;58;000.297;MIDI 01
749.642;000.304;83;000.461;MIDI 01
749.656;000.319;71;000.398;MIDI 01
749.644;000.333;79;000.422;MIDI 01
749.648;000.352;74;000.406;MIDI 01
750.572;000.199;59;000.398;MIDI 01
750.595;000.340;53;000.289;MIDI 01
751.549;000.400;37;000.414;MIDI 01
750.536;001.674;74;000.562;MIDI 01
750.548;001.840;71;000.445;MIDI 01
750.544;001.859;62;000.453;MIDI 01
750.550;002.759;67;000.430;MIDI 01
752.942;000.400;30;000.484;MIDI 01
753.501;000.153;59;000.438;MIDI 01
753.495;000.519;67;000.430;MIDI 01
753.971;000.244;74;000.555;MIDI 01
753.999;000.736;53;000.453;MIDI 01
754.767;000.279;54;000.539;MIDI 01
755.048;000.090;59;000.500;MIDI 01
753.994;001.259;71;000.484;MIDI 01
755.033;000.339;66;000.578;MIDI 01
755.373;000.042;55;000.516;MIDI 01
755.396;000.156;74;000.617;MIDI 01
755.411;000.318;71;000.531;MIDI 01
755.760;000.043;59;000.516;MIDI 01
755.766;000.094;65;000.586;MIDI 01
756.379;000.284;60;000.570;MIDI 01
756.272;000.451;56;000.539;MIDI 01
756.485;001.573;64;000.562;MIDI 01
756.634;001.481;74;000.617;MIDI 01
756.567;001.655;71;000.508;MIDI 01
757.603;001.256;38;000.469;MIDI 01
758.732;000.976;26;000.383;MIDI 01
760.146;000.058;56;000.336;MIDI 01
760.153;000.067;60;000.320;MIDI 01
760.155;000.097;65;000.328;MIDI 01
760.720;000.049;74;000.414;MIDI 01
760.763;000.046;71;000.219;MIDI 01
760.760;000.078;50;000.188;MIDI 01
761.234;000.087;57;000.289;MIDI 01
761.236;000.094;61;000.258;MIDI 01
761.229;000.111;66;000.359;MIDI 01
759.679;002.425;38;000.336;MIDI 01
762.084;000.342;31;000.211;MIDI 01
762.055;000.429;62;000.305;MIDI 01
762.061;000.440;58;000.250;MIDI 01
762.050;001.167;69;000.336;MIDI 01
763.206;000.069;50;000.195;MIDI 01
763.199;000.190;59;000.250;MIDI 01
763.196;000.335;67;000.320;MIDI 01
764.603;000.132;67;000.234;MIDI 01
764.579;000.205;59;000.234;MIDI 01
766.877;000.207;31;000.148;MIDI 01
766.849;000.882;91;000.375;MIDI 01
766.872;001.057;87;000.328;MIDI 01
767.739;000.227;51;000.227;MIDI 01
767.871;000.170;79;000.352;MIDI 01
768.112;000.041;63;000.297;MIDI 01
768.407;000.029;75;000.391;MIDI 01
768.049;000.422;86;000.406;MIDI 01
768.051;000.438;91;000.375;MIDI 01
768.506;000.092;79;000.367;MIDI 01
768.634;000.103;85;000.359;MIDI 01
768.634;000.176;91;000.414;MIDI 01
768.773;000.183;85;000.156;MIDI 01
769.050;000.046;79;000.234;MIDI 01
769.153;000.102;82;000.391;MIDI 01
769.141;000.194;77;000.344;MIDI 01
769.435;000.052;43;000.289;MIDI 01
769.535;000.094;70;000.445;MIDI 01
769.668;000.034;55;000.391;MIDI 01
769.923;000.031;67;000.375;MIDI 01
769.631;000.345;82;000.438;MIDI 01
769.640;000.353;75;000.430;MIDI 01
769.999;000.108;70;000.453;MIDI 01
770.120;000.104;82;000.453;MIDI 01
770.129;000.361;74;000.430;MIDI 01
770.570;000.134;70;000.297;MIDI 01
770.724;000.355;73;000.344;MIDI 01
770.724;000.429;70;000.109;MIDI 01
771.049;000.317;34;000.180;MIDI 01
771.138;000.237;61;000.297;MIDI 01
771.478;000.048;46;000.242;MIDI 01
771.826;000.053;58;000.172;MIDI 01
771.371;000.595;69;000.367;MIDI 01
771.337;000.678;73;000.242;MIDI 01
771.961;000.320;61;000.344;MIDI 01
772.228;000.207;68;000.297;MIDI 01
772.208;000.411;73;000.258;MIDI 01
773.161;000.087;61;000.305;MIDI 01
773.993;000.068;57;000.297;MIDI 01
774.003;000.059;65;000.266;MIDI 01
774.261;000.070;57;000.273;MIDI 01
774.265;000.069;65;000.289;MIDI 01
774.534;000.099;65;000.273;MIDI 01
774.551;000.090;57;000.180;MIDI 01
774.007;000.960;31;000.258;MIDI 01
774.995;000.074;61;000.352;MIDI 01
775.024;000.051;56;000.312;MIDI 01
775.468;000.067;64;000.305;MIDI 01
775.470;000.072;55;000.281;MIDI 01
775.499;000.060;53;000.109;MIDI 01
775.721;000.058;64;000.258;MIDI 01
775.716;000.067;55;000.328;MIDI 01
775.975;000.071;64;000.266;MIDI 01
775.977;000.125;55;000.312;MIDI 01
776.465;000.056;56;000.305;MIDI 01
776.452;000.069;61;000.375;MIDI 01
776.801;000.068;71;000.359;MIDI 01
776.936;000.029;83;000.469;MIDI 01
776.962;000.039;65;000.289;MIDI 01
776.962;000.048;57;000.273;MIDI 01
777.202;000.055;65;000.266;MIDI 01
777.193;000.068;57;000.344;MIDI 01
777.458;000.053;65;000.172;MIDI 01
777.446;000.073;57;000.312;MIDI 01
777.930;000.050;61;000.320;MIDI 01
777.935;000.066;56;000.266;MIDI 01
778.419;000.062;64;000.305;MIDI 01
778.420;000.082;55;000.289;MIDI 01
778.671;000.067;64;000.211;MIDI 01
778.683;000.059;55;000.281;MIDI 01
778.940;000.099;64;000.273;MIDI 01
778.948;000.135;55;000.203;MIDI 01
779.490;000.097;61;000.281;MIDI 01
779.504;000.116;56;000.180;MIDI 01
780.148;000.469;31;000.297;MIDI 01
782.870;000.117;71;000.289;MIDI 01
781.519;001.673;53;000.375;MIDI 01
785.707;000.383;31;000.250;MIDI 01
787.052;000.198;53;000.258;MIDI 01
782.992;004.631;83;000.289;MIDI 01
788.139;000.106;83;000.320;MIDI 01
788.261;000.036;71;000.297;MIDI 01
788.403;000.592;77;000.414;MIDI 01
788.441;000.561;73;000.312;MIDI 01
789.455;000.229;76;000.461;MIDI 01
788.441;001.258;65;000.219;MIDI 01
789.453;000.277;72;000.383;MIDI 01
788.407;001.371;69;000.328;MIDI 01
790.608;001.293;71;000.305;MIDI 01
790.575;001.378;75;000.367;MIDI 01
792.852;000.149;76;000.312;MIDI 01
792.868;000.160;72;000.258;MIDI 01
790.604;002.441;65;000.281;MIDI 01
790.573;002.502;68;000.289;MIDI 01
794.491;000.335;31;000.289;MIDI 01
791.593;003.261;95;000.414;MIDI 01
791.748;003.176;83;000.336;MIDI 01
795.633;000.183;77;000.344;MIDI 01
795.652;000.202;81;000.359;MIDI 01
795.643;000.257;85;000.352;MIDI 01
795.681;000.322;61;000.266;MIDI 01
795.683;000.326;65;000.273;MIDI 01
795.626;000.562;89;000.500;MIDI 01
796.712;000.081;84;000.344;MIDI 01
796.677;000.169;81;000.352;MIDI 01
796.651;000.282;93;000.508;MIDI 01
795.679;001.286;57;000.227;MIDI 01
796.712;000.271;64;000.289;MIDI 01
796.798;000.202;84;000.039;MIDI 01
795.686;001.316;53;000.156;MIDI 01
796.712;000.301;88;000.422;MIDI 01
796.723;000.321;60;000.234;MIDI 01
797.899;000.217;75;000.305;MIDI 01
797.939;000.280;53;000.133;MIDI 01
797.890;000.347;83;000.336;MIDI 01
797.911;000.359;80;000.312;MIDI 01
797.902;000.397;59;000.289;MIDI 01
797.879;000.428;87;000.406;MIDI 01
797.904;000.424;56;000.266;MIDI 01
797.897;000.478;63;000.320;MIDI 01
798.877;000.097;95;000.336;MIDI 01
798.965;000.070;83;000.297;MIDI 01
799.090;000.044;71;000.273;MIDI 01
800.454;000.181;60;000.164;MIDI 01
800.450;000.189;76;000.250;MIDI 01
800.443;000.197;84;000.289;MIDI 01
800.447;000.204;64;000.227;MIDI 01
800.452;000.206;88;000.289;MIDI 01
802.358;000.337;31;000.211;MIDI 01
803.426;000.582;48;000.242;MIDI 01
803.399;000.624;52;000.227;MIDI 01
804.002;000.407;53;000.305;MIDI 01
804.448;000.061;61;000.242;MIDI 01
804.454;000.089;58;000.203;MIDI 01
804.000;000.763;49;000.273;MIDI 01
804.748;000.193;54;000.383;MIDI 01
804.742;000.307;50;000.297;MIDI 01
805.022;000.137;55;000.320;MIDI 01
805.279;000.062;63;000.375;MIDI 01
805.271;000.145;61;000.430;MIDI 01
805.050;000.430;51;000.344;MIDI 01
805.480;000.169;56;000.492;MIDI 01
805.493;000.248;52;000.359;MIDI 01
805.685;000.205;57;000.484;MIDI 01
805.889;000.082;65;000.508;MIDI 01
805.913;000.060;61;000.344;MIDI 01
805.740;000.367;53;000.375;MIDI 01
806.105;000.168;58;000.531;MIDI 01
806.102;000.223;54;000.383;MIDI 01
806.347;000.036;55;000.383;MIDI 01
806.339;000.368;59;000.539;MIDI 01
806.732;000.054;31;000.375;MIDI 01
806.726;000.107;65;000.297;MIDI 01
806.716;000.159;68;000.391;MIDI 01
806.903;000.082;59;000.469;MIDI 01
807.018;000.053;64;000.445;MIDI 01
807.094;000.040;68;000.500;MIDI 01
807.218;000.042;71;000.562;MIDI 01
807.267;000.025;76;000.492;MIDI 01
807.375;000.020;71;000.516;MIDI 01
807.402;000.036;76;000.414;MIDI 01
807.366;000.115;83;000.570;MIDI 01
807.454;000.222;56;000.336;MIDI 01
807.439;000.251;64;000.406;MIDI 01
807.806;000.095;66;000.398;MIDI 01
807.905;000.026;78;000.414;MIDI 01
807.907;000.050;85;000.414;MIDI 01
807.978;000.034;78;000.523;MIDI 01
807.825;000.256;62;000.336;MIDI 01
807.961;000.148;85;000.477;MIDI 01
808.364;000.041;76;000.516;MIDI 01
808.354;000.053;83;000.461;MIDI 01
808.366;000.044;56;000.305;MIDI 01
808.379;000.056;64;000.328;MIDI 01
808.736;000.034;71;000.375;MIDI 01
808.732;000.045;76;000.383;MIDI 01
808.748;000.032;62;000.367;MIDI 01
808.748;000.035;66;000.320;MIDI 01
809.167;000.041;43;000.500;MIDI 01
809.532;000.074;76;000.391;MIDI 01
809.595;000.078;83;000.477;MIDI 01
809.641;000.362;88;000.586;MIDI 01
809.630;000.379;64;000.336;MIDI 01
809.661;000.485;56;000.344;MIDI 01
810.362;000.047;78;000.180;MIDI 01
810.226;000.245;66;000.289;MIDI 01
810.347;000.209;85;000.430;MIDI 01
810.489;000.093;78;000.375;MIDI 01
810.234;000.470;62;000.258;MIDI 01
810.574;000.357;88;000.508;MIDI 01
811.120;000.043;76;000.336;MIDI 01
811.139;000.090;56;000.234;MIDI 01
811.136;000.110;64;000.258;MIDI 01
811.106;000.606;83;000.391;MIDI 01
811.870;000.059;66;000.258;MIDI 01
811.857;000.109;62;000.188;MIDI 01
811.855;000.226;71;000.289;MIDI 01
811.853;000.331;76;000.305;MIDI 01
814.021;000.335;59;000.281;MIDI 01
814.010;000.536;56;000.258;MIDI 01
813.969;000.917;64;000.383;MIDI 01
814.761;000.311;65;000.430;MIDI 01
815.413;000.091;68;000.281;MIDI 01
815.376;000.242;72;000.469;MIDI 01
814.776;000.920;60;000.320;MIDI 01
815.849;000.135;67;000.477;MIDI 01
815.888;000.099;64;000.414;MIDI 01
815.848;000.361;60;000.445;MIDI 01
813.209;003.054;31;000.289;MIDI 01
816.228;000.153;68;000.492;MIDI 01
816.616;000.193;72;000.477;MIDI 01
816.604;000.220;77;000.539;MIDI 01
816.242;000.603;65;000.484;MIDI 01
814.809;002.045;43;000.188;MIDI 01
816.972;000.124;67;000.477;MIDI 01
816.966;000.216;65;000.500;MIDI 01
816.968;000.409;71;000.516;MIDI 01
817.381;000.220;72;000.539;MIDI 01
817.393;000.553;68;000.477;MIDI 01
817.854;000.128;77;000.484;MIDI 01
817.833;000.152;80;000.531;MIDI 01
818.158;000.086;68;000.508;MIDI 01
818.182;000.085;71;000.508;MIDI 01
816.628;001.790;31;000.430;MIDI 01
818.174;000.360;76;000.570;MIDI 01
818.485;000.098;72;000.562;MIDI 01
818.481;000.160;77;000.578;MIDI 01
818.856;000.201;80;000.508;MIDI 01
817.398;001.671;43;000.422;MIDI 01
818.847;000.352;84;000.578;MIDI 01
819.248;000.117;79;000.555;MIDI 01
819.255;000.112;76;000.547;MIDI 01
819.246;000.448;72;000.469;MIDI 01
819.714;000.227;80;000.531;MIDI 01
818.876;001.167;31;000.367;MIDI 01
819.747;000.490;43;000.352;MIDI 01
819.727;000.558;77;000.523;MIDI 01
820.401;000.043;87;000.500;MIDI 01
821.204;000.164;72;000.352;MIDI 01
821.379;000.058;74;000.445;MIDI 01
820.398;001.133;91;000.555;MIDI 01
821.599;000.027;89;000.430;MIDI 01
821.614;000.034;80;000.352;MIDI 01
821.624;000.043;82;000.219;MIDI 01
821.972;000.022;82;000.484;MIDI 01
821.989;000.032;80;000.328;MIDI 01
822.327;000.077;72;000.422;MIDI 01
822.515;000.047;75;000.312;MIDI 01
822.325;000.268;84;000.445;MIDI 01
822.680;000.021;87;000.508;MIDI 01
822.689;000.028;82;000.391;MIDI 01
822.694;000.036;84;000.391;MIDI 01
823.074;000.032;91;000.547;MIDI 01
823.085;000.024;82;000.438;MIDI 01
823.100;000.040;84;000.281;MIDI 01
823.523;000.095;72;000.336;MIDI 01
823.702;000.032;74;000.375;MIDI 01
823.493;000.423;91;000.484;MIDI 01
823.965;000.032;89;000.352;MIDI 01
823.967;000.039;82;000.273;MIDI 01
823.980;000.041;80;000.211;MIDI 01
824.440;000.027;80;000.398;MIDI 01
824.433;000.039;82;000.312;MIDI 01
824.907;000.144;72;000.312;MIDI 01
825.141;000.040;75;000.242;MIDI 01
824.875;000.311;84;000.352;MIDI 01
825.439;000.033;87;000.336;MIDI 01
825.439;000.043;82;000.258;MIDI 01
825.468;000.049;84;000.188;MIDI 01
826.137;000.140;84;000.211;MIDI 01
826.129;000.320;91;000.305;MIDI 01
827.307;000.973;31;000.203;MIDI 01
828.241;000.225;43;000.305;MIDI 01
829.384;000.474;84;000.328;MIDI 01
829.370;000.535;96;000.406;MIDI 01
830.496;000.225;82;000.367;MIDI 01
830.481;000.391;94;000.453;MIDI 01
829.395;001.959;52;000.258;MIDI 01
829.400;002.044;58;000.242;MIDI 01
829.380;002.072;61;000.219;MIDI 01
831.358;000.247;96;000.383;MIDI 01
831.354;000.272;84;000.367;MIDI 01
829.380;002.390;88;000.320;MIDI 01
832.297;000.391;53;000.195;MIDI 01
832.232;000.484;82;000.414;MIDI 01
832.265;000.465;58;000.250;MIDI 01
832.226;000.695;94;000.469;MIDI 01
832.261;000.972;62;000.297;MIDI 01
833.095;000.181;92;000.469;MIDI 01
833.114;000.271;80;000.312;MIDI 01
834.020;000.135;56;000.156;MIDI 01
834.027;000.143;62;000.195;MIDI 01
833.984;000.197;72;000.289;MIDI 01
834.001;000.194;65;000.258;MIDI 01
833.990;000.289;80;000.312;MIDI 01
833.970;000.339;84;000.344;MIDI 01
835.109;000.571;91;000.414;MIDI 01
835.125;000.582;79;000.352;MIDI 01
835.124;000.907;88;000.367;MIDI 01
836.065;000.196;77;000.281;MIDI 01
835.151;001.397;65;000.242;MIDI 01
835.137;001.633;59;000.281;MIDI 01
836.056;000.789;89;000.445;MIDI 01
836.054;000.833;86;000.320;MIDI 01
835.135;001.814;68;000.266;MIDI 01
836.830;000.200;79;000.281;MIDI 01
836.808;000.281;91;000.391;MIDI 01
836.850;000.830;88;000.352;MIDI 01
837.686;000.468;89;000.359;MIDI 01
837.704;000.466;77;000.203;MIDI 01
837.703;000.526;86;000.305;MIDI 01
837.768;000.980;60;000.102;MIDI 01
837.757;000.993;65;000.109;MIDI 01
837.746;001.049;69;000.195;MIDI 01
838.683;000.199;87;000.312;MIDI 01
838.707;000.231;79;000.250;MIDI 01
838.750;000.217;75;000.227;MIDI 01
839.769;000.104;72;000.055;MIDI 01
839.752;000.123;67;000.219;MIDI 01
839.739;000.176;69;000.164;MIDI 01
839.766;000.181;63;000.117;MIDI 01
839.723;000.254;79;000.266;MIDI 01
839.770;000.272;75;000.211;MIDI 01
841.350;000.193;31;000.203;MIDI 01
842.011;000.049;51;000.250;MIDI 01
841.347;000.721;77;000.297;MIDI 01
841.354;000.771;73;000.266;MIDI 01
842.156;000.056;68;000.094;MIDI 01
842.133;000.173;72;000.328;MIDI 01
842.308;000.032;67;000.352;MIDI 01
842.343;000.032;71;000.312;MIDI 01
842.279;000.096;73;000.414;MIDI 01
842.277;000.249;77;000.344;MIDI 01
842.557;000.046;61;000.273;MIDI 01
842.665;000.041;66;000.289;MIDI 01
842.654;000.081;70;000.414;MIDI 01
842.773;000.042;51;000.391;MIDI 01
843.029;000.049;39;000.375;MIDI 01
842.750;000.349;77;000.422;MIDI 01
842.746;000.363;73;000.445;MIDI 01
843.185;000.060;67;000.375;MIDI 01
843.155;000.302;71;000.422;MIDI 01
843.466;000.048;31;000.344;MIDI 01
843.489;000.261;77;000.430;MIDI 01
843.765;000.060;75;000.375;MIDI 01
843.850;000.052;72;000.375;MIDI 01
843.919;000.032;67;000.367;MIDI 01
844.042;000.057;68;000.375;MIDI 01
844.179;000.059;63;000.367;MIDI 01
844.319;000.036;60;000.328;MIDI 01
844.547;000.041;52;000.375;MIDI 01
844.528;000.064;60;000.305;MIDI 01
844.739;000.041;52;000.367;MIDI 01
844.744;000.039;60;000.375;MIDI 01
844.969;000.038;60;000.305;MIDI 01
844.972;000.042;52;000.297;MIDI 01
845.410;000.051;55;000.328;MIDI 01
845.427;000.049;51;000.289;MIDI 01
845.890;000.043;50;000.172;MIDI 01
845.866;000.078;58;000.289;MIDI 01
846.097;000.058;58;000.359;MIDI 01
846.090;000.071;50;000.250;MIDI 01
846.334;000.112;50;000.273;MIDI 01
846.336;000.110;58;000.297;MIDI 01
846.829;000.139;55;000.242;MIDI 01
846.836;000.158;51;000.227;MIDI 01
848.212;000.585;52;000.250;MIDI 01
848.190;000.632;60;000.375;MIDI 01
848.798;000.161;51;000.172;MIDI 01
848.798;000.199;55;000.266;MIDI 01
849.915;000.622;50;000.172;MIDI 01
849.896;000.691;58;000.242;MIDI 01
850.492;000.207;51;000.273;MIDI 01
845.890;004.835;43;000.227;MIDI 01
850.502;000.228;55;000.266;MIDI 01
847.524;004.268;31;000.203;MIDI 01
851.403;002.203;43;000.164;MIDI 01
853.459;000.375;31;000.250;MIDI 01
854.796;000.362;64;000.234;MIDI 01
854.782;000.381;67;000.258;MIDI 01
854.769;000.497;72;000.336;MIDI 01
854.766;000.500;76;000.289;MIDI 01
854.791;000.660;60;000.203;MIDI 01
854.751;001.085;79;000.422;MIDI 01
855.810;000.235;71;000.250;MIDI 01
855.832;000.272;63;000.211;MIDI 01
855.810;000.303;66;000.273;MIDI 01
855.810;000.328;75;000.297;MIDI 01
855.810;000.379;59;000.219;MIDI 01
855.776;001.329;78;000.453;MIDI 01
856.992;000.294;69;000.312;MIDI 01
856.998;000.449;72;000.336;MIDI 01
856.966;000.494;76;000.414;MIDI 01
857.946;000.045;95;000.406;MIDI 01
858.027;000.043;83;000.266;MIDI 01
858.148;000.062;71;000.250;MIDI 01
857.007;001.290;64;000.289;MIDI 01
856.996;001.433;60;000.242;MIDI 01
857.036;001.834;57;000.156;MIDI 01
859.303;000.085;63;000.133;MIDI 01
859.295;000.114;75;000.180;MIDI 01
859.293;000.132;66;000.188;MIDI 01
859.284;000.151;71;000.164;MIDI 01
859.277;000.191;59;000.195;MIDI 01
859.262;000.233;78;000.289;MIDI 01
860.829;000.261;31;000.336;MIDI 01
862.016;000.235;72;000.297;MIDI 01
862.018;000.239;76;000.289;MIDI 01
862.051;000.323;64;000.219;MIDI 01
862.030;000.391;67;000.266;MIDI 01
862.043;000.945;60;000.195;MIDI 01
862.010;001.052;79;000.414;MIDI 01
863.024;000.086;78;000.336;MIDI 01
863.045;000.128;71;000.250;MIDI 01
863.059;000.155;75;000.305;MIDI 01
863.056;000.168;63;000.242;MIDI 01
863.049;000.204;66;000.297;MIDI 01
863.040;000.297;59;000.273;MIDI 01
863.003;001.217;83;000.508;MIDI 01
864.141;000.248;69;000.328;MIDI 01
864.145;000.374;72;000.328;MIDI 01
864.136;000.407;76;000.383;MIDI 01
865.122;000.081;95;000.336;MIDI 01
865.220;000.043;83;000.242;MIDI 01
865.361;000.051;71;000.180;MIDI 01
864.154;001.339;64;000.188;MIDI 01
864.151;001.438;60;000.289;MIDI 01
864.170;001.572;57;000.211;MIDI 01
866.595;000.087;61;000.203;MIDI 01
866.593;000.097;66;000.203;MIDI 01
866.597;000.096;75;000.203;MIDI 01
866.584;000.146;58;000.172;MIDI 01
866.589;000.163;70;000.164;MIDI 01
866.568;000.202;78;000.273;MIDI 01
868.291;000.284;31;000.266;MIDI 01
869.271;000.048;95;000.281;MIDI 01
869.326;000.026;83;000.414;MIDI 01
869.562;000.803;71;000.266;MIDI 01
870.916;001.121;50;000.266;MIDI 01
872.394;000.122;31;000.219;MIDI 01
873.511;000.075;83;000.211;MIDI 01
873.608;000.055;71;000.125;MIDI 01
873.754;000.367;59;000.281;MIDI 01
875.304;001.309;50;000.344;MIDI 01
876.632;000.497;31;000.172;MIDI 01
877.639;000.062;69;000.117;MIDI 01
877.635;000.073;57;000.195;MIDI 01
877.649;000.061;59;000.227;MIDI 01
877.651;000.061;71;000.109;MIDI 01
877.868;000.925;53;000.227;MIDI 01
878.949;001.245;55;000.312;MIDI 01
880.168;000.410;31;000.234;MIDI 01
880.112;000.493;57;000.359;MIDI 01
881.265;000.040;73;000.273;MIDI 01
881.271;000.040;75;000.250;MIDI 01
881.451;000.567;63;000.227;MIDI 01
881.466;000.751;61;000.242;MIDI 01
882.637;001.527;53;000.305;MIDI 01
884.064;000.149;31;000.109;MIDI 01
883.985;000.427;57;000.359;MIDI 01
885.144;000.048;71;000.281;MIDI 01
885.153;000.039;81;000.273;MIDI 01
885.148;000.054;83;000.266;MIDI 01
885.353;000.369;69;000.258;MIDI 01
885.351;000.902;59;000.250;MIDI 01
886.732;000.615;53;000.320;MIDI 01
887.314;000.862;55;000.391;MIDI 01
888.211;000.285;31;000.195;MIDI 01
888.189;000.370;57;000.352;MIDI 01
889.702;000.054;87;000.344;MIDI 01
889.711;000.058;73;000.219;MIDI 01
889.732;000.047;85;000.195;MIDI 01
889.846;000.343;63;000.164;MIDI 01
889.856;000.350;61;000.180;MIDI 01
890.106;001.328;55;000.305;MIDI 01
891.706;002.306;50;000.305;MIDI 01
893.890;000.400;31;000.258;MIDI 01
895.468;000.039;93;000.336;MIDI 01
895.464;000.043;95;000.328;MIDI 01
895.484;000.049;81;000.180;MIDI 01
895.493;000.049;83;000.172;MIDI 01
895.840;000.309;69;000.156;MIDI 01
895.828;000.465;71;000.203;MIDI 01
897.697;002.235;50;000.203;MIDI 01
899.867;000.290;31;000.211;MIDI 01
901.719;000.071;95;000.219;MIDI 01
901.741;000.059;81;000.117;MIDI 01
901.704;000.107;93;000.227;MIDI 01
901.752;000.061;83;000.070;MIDI 01
902.203;000.691;69;000.102;MIDI 01
902.188;000.754;71;000.141;MIDI 01
904.398;003.894;50;000.195;MIDI 01
907.470;006.484;31;000.141;MIDI 01
