Start;Duration;Pitch;Velocity;Instrument
000.906;000.394;68;000.289;MIDI 01
001.746;000.297;68;000.266;MIDI 01
001.749;000.436;63;000.242;MIDI 01
001.710;000.602;70;000.359;MIDI 01
002.306;000.243;63;000.297;MIDI 01
002.326;000.237;67;000.312;MIDI 01
002.302;000.323;72;000.438;MIDI 01
001.762;001.308;51;000.195;MIDI 01
003.011;000.310;63;000.305;MIDI 01
003.007;000.389;72;000.445;MIDI 01
003.033;000.411;68;000.320;MIDI 01
003.054;000.862;56;000.242;MIDI 01
003.809;000.277;66;000.359;MIDI 01
003.804;000.341;73;000.469;MIDI 01
003.850;000.345;68;000.328;MIDI 01
003.833;000.458;49;000.281;MIDI 01
004.326;000.161;65;000.438;MIDI 01
004.332;000.206;68;000.266;MIDI 01
004.322;000.292;72;000.508;MIDI 01
004.343;000.411;44;000.352;MIDI 01
004.750;000.192;64;000.453;MIDI 01
004.776;000.206;68;000.289;MIDI 01
004.746;000.327;73;000.500;MIDI 01
004.769;000.325;37;000.336;MIDI 01
005.214;000.168;68;000.359;MIDI 01
005.205;000.239;63;000.375;MIDI 01
005.186;000.298;72;000.445;MIDI 01
005.236;000.516;44;000.297;MIDI 01
005.717;000.228;63;000.336;MIDI 01
005.698;000.291;68;000.414;MIDI 01
005.745;000.249;65;000.211;MIDI 01
006.385;000.344;68;000.305;MIDI 01
006.389;000.454;58;000.289;MIDI 01
006.427;000.427;63;000.195;MIDI 01
007.060;000.286;67;000.328;MIDI 01
007.081;000.318;58;000.164;MIDI 01
007.058;000.359;63;000.172;MIDI 01
007.693;000.398;58;000.109;MIDI 01
006.381;001.714;70;000.367;MIDI 01
005.743;002.588;51;000.305;MIDI 01
007.653;000.699;63;000.180;MIDI 01
007.697;000.804;66;000.281;MIDI 01
008.456;000.173;70;000.469;MIDI 01
006.409;002.372;39;000.227;MIDI 01
008.991;000.291;66;000.445;MIDI 01
008.976;000.476;72;000.508;MIDI 01
008.986;000.473;70;000.469;MIDI 01
009.415;000.191;73;000.617;MIDI 01
009.044;000.940;51;000.242;MIDI 01
009.927;000.219;65;000.445;MIDI 01
009.923;000.320;70;000.445;MIDI 01
009.911;000.357;73;000.547;MIDI 01
009.950;000.568;58;000.305;MIDI 01
010.477;000.224;68;000.469;MIDI 01
010.456;000.256;75;000.531;MIDI 01
010.472;000.244;70;000.438;MIDI 01
010.491;000.373;51;000.336;MIDI 01
010.876;000.139;67;000.516;MIDI 01
010.893;000.221;70;000.484;MIDI 01
010.874;000.258;73;000.570;MIDI 01
010.903;000.345;46;000.391;MIDI 01
011.296;000.102;70;000.352;MIDI 01
011.274;000.160;66;000.500;MIDI 01
011.256;000.217;75;000.578;MIDI 01
011.276;000.345;39;000.383;MIDI 01
011.650;000.174;70;000.492;MIDI 01
011.640;000.186;73;000.469;MIDI 01
011.697;000.151;65;000.344;MIDI 01
011.668;000.486;46;000.359;MIDI 01
012.115;000.169;67;000.414;MIDI 01
012.117;000.169;65;000.359;MIDI 01
012.094;000.213;70;000.492;MIDI 01
012.686;000.297;70;000.406;MIDI 01
012.695;000.349;60;000.328;MIDI 01
012.711;000.349;65;000.266;MIDI 01
013.274;000.272;69;000.414;MIDI 01
013.289;000.300;60;000.250;MIDI 01
013.279;000.314;65;000.297;MIDI 01
012.129;002.077;53;000.328;MIDI 01
013.828;000.469;60;000.172;MIDI 01
012.692;001.622;72;000.438;MIDI 01
013.823;000.703;68;000.367;MIDI 01
013.814;000.751;65;000.219;MIDI 01
014.472;000.447;72;000.547;MIDI 01
012.732;002.304;41;000.250;MIDI 01
015.021;000.248;65;000.469;MIDI 01
015.030;000.281;68;000.438;MIDI 01
015.017;000.511;73;000.594;MIDI 01
015.482;000.130;75;000.625;MIDI 01
015.065;001.106;44;000.273;MIDI 01
016.122;000.244;68;000.469;MIDI 01
016.129;000.430;73;000.469;MIDI 01
016.098;000.480;77;000.609;MIDI 01
016.150;000.558;37;000.367;MIDI 01
016.727;000.174;71;000.484;MIDI 01
016.735;000.260;73;000.469;MIDI 01
016.714;000.318;78;000.586;MIDI 01
016.733;000.446;42;000.438;MIDI 01
017.171;000.176;73;000.445;MIDI 01
017.161;000.239;70;000.516;MIDI 01
017.146;000.403;77;000.562;MIDI 01
017.176;000.431;49;000.383;MIDI 01
017.602;000.207;69;000.445;MIDI 01
017.598;000.301;73;000.445;MIDI 01
017.628;000.504;54;000.312;MIDI 01
018.102;000.173;73;000.352;MIDI 01
018.105;000.253;68;000.375;MIDI 01
018.109;000.269;61;000.375;MIDI 01
018.103;000.476;75;000.406;MIDI 01
018.683;000.180;67;000.289;MIDI 01
018.653;000.262;70;000.312;MIDI 01
018.648;000.287;76;000.438;MIDI 01
018.682;000.705;61;000.297;MIDI 01
019.326;000.334;68;000.312;MIDI 01
019.303;000.405;76;000.352;MIDI 01
019.330;000.398;71;000.297;MIDI 01
019.949;000.251;78;000.375;MIDI 01
019.975;000.257;68;000.289;MIDI 01
019.971;000.286;71;000.188;MIDI 01
020.488;000.167;71;000.195;MIDI 01
019.347;001.309;59;000.219;MIDI 01
020.466;000.201;76;000.406;MIDI 01
020.471;000.206;68;000.305;MIDI 01
020.981;000.230;68;000.289;MIDI 01
020.998;000.224;59;000.281;MIDI 01
020.964;000.274;75;000.422;MIDI 01
021.448;000.152;75;000.367;MIDI 01
021.445;000.276;68;000.383;MIDI 01
021.468;000.277;59;000.289;MIDI 01
021.440;000.500;77;000.500;MIDI 01
022.044;000.184;68;000.250;MIDI 01
022.006;000.240;74;000.352;MIDI 01
022.058;000.286;58;000.250;MIDI 01
021.988;000.539;79;000.445;MIDI 01
022.752;000.232;82;000.422;MIDI 01
022.783;000.217;67;000.289;MIDI 01
022.778;000.235;75;000.312;MIDI 01
022.788;000.661;58;000.203;MIDI 01
023.434;000.197;65;000.312;MIDI 01
023.441;000.248;62;000.242;MIDI 01
023.445;000.264;70;000.328;MIDI 01
023.482;000.453;56;000.289;MIDI 01
023.934;000.058;70;000.273;MIDI 01
023.951;000.107;63;000.344;MIDI 01
023.928;000.272;72;000.477;MIDI 01
023.953;000.433;55;000.328;MIDI 01
024.380;000.148;68;000.375;MIDI 01
024.353;000.268;74;000.453;MIDI 01
024.419;000.409;53;000.195;MIDI 01
024.850;000.206;79;000.383;MIDI 01
024.861;000.239;67;000.273;MIDI 01
024.855;000.335;70;000.305;MIDI 01
024.902;000.539;51;000.273;MIDI 01
025.410;000.215;75;000.352;MIDI 01
025.414;000.286;68;000.289;MIDI 01
025.424;000.280;70;000.117;MIDI 01
025.440;000.660;46;000.219;MIDI 01
026.083;000.507;39;000.195;MIDI 01
026.053;000.613;67;000.250;MIDI 01
026.698;000.224;51;000.227;MIDI 01
026.664;000.854;65;000.266;MIDI 01
026.056;001.485;70;000.250;MIDI 01
027.425;000.506;61;000.242;MIDI 01
026.041;001.972;75;000.312;MIDI 01
027.423;000.699;67;000.250;MIDI 01
028.632;000.265;68;000.305;MIDI 01
029.297;000.221;68;000.195;MIDI 01
029.295;000.305;63;000.289;MIDI 01
029.277;000.477;70;000.336;MIDI 01
029.827;000.197;67;000.289;MIDI 01
029.805;000.248;63;000.344;MIDI 01
029.801;000.268;72;000.391;MIDI 01
029.836;000.610;51;000.227;MIDI 01
030.391;000.227;63;000.352;MIDI 01
030.379;000.331;72;000.445;MIDI 01
030.404;000.328;68;000.328;MIDI 01
030.442;000.550;56;000.188;MIDI 01
030.930;000.252;66;000.445;MIDI 01
030.927;000.273;73;000.477;MIDI 01
030.947;000.344;68;000.305;MIDI 01
030.962;000.427;49;000.312;MIDI 01
031.389;000.193;65;000.430;MIDI 01
031.389;000.248;68;000.281;MIDI 01
031.378;000.264;72;000.477;MIDI 01
031.404;000.409;44;000.336;MIDI 01
031.792;000.205;64;000.445;MIDI 01
031.785;000.243;73;000.516;MIDI 01
031.831;000.216;68;000.359;MIDI 01
031.823;000.365;37;000.352;MIDI 01
032.234;000.167;68;000.375;MIDI 01
032.224;000.267;63;000.430;MIDI 01
032.211;000.314;72;000.492;MIDI 01
032.269;000.410;44;000.266;MIDI 01
032.680;000.154;63;000.383;MIDI 01
032.683;000.198;65;000.359;MIDI 01
032.673;000.234;68;000.422;MIDI 01
033.307;000.297;68;000.320;MIDI 01
033.314;000.411;58;000.250;MIDI 01
033.348;000.400;63;000.242;MIDI 01
033.873;000.274;67;000.398;MIDI 01
033.923;000.241;63;000.328;MIDI 01
033.899;000.290;58;000.203;MIDI 01
034.464;000.406;63;000.211;MIDI 01
034.485;000.794;66;000.305;MIDI 01
034.468;000.936;58;000.219;MIDI 01
033.288;002.212;70;000.398;MIDI 01
035.801;000.097;58;000.273;MIDI 01
035.801;000.520;65;000.367;MIDI 01
035.902;000.436;58;000.023;MIDI 01
035.217;001.176;63;000.328;MIDI 01
032.715;003.695;51;000.273;MIDI 01
036.246;000.209;66;000.492;MIDI 01
033.344;003.154;39;000.195;MIDI 01
036.824;000.325;58;000.383;MIDI 01
036.846;000.383;63;000.352;MIDI 01
036.819;000.428;66;000.461;MIDI 01
036.822;000.746;51;000.352;MIDI 01
037.482;000.261;61;000.508;MIDI 01
037.473;000.336;68;000.500;MIDI 01
037.511;000.368;63;000.281;MIDI 01
037.521;000.446;44;000.305;MIDI 01
037.975;000.253;60;000.469;MIDI 01
037.977;000.293;63;000.391;MIDI 01
037.973;000.307;66;000.508;MIDI 01
037.993;000.398;39;000.398;MIDI 01
038.398;000.247;59;000.492;MIDI 01
038.396;000.254;68;000.539;MIDI 01
038.417;000.259;63;000.438;MIDI 01
038.415;000.414;32;000.414;MIDI 01
038.836;000.190;66;000.500;MIDI 01
038.847;000.183;63;000.422;MIDI 01
038.834;000.262;58;000.492;MIDI 01
038.853;000.403;39;000.414;MIDI 01
039.248;000.180;58;000.492;MIDI 01
039.256;000.174;60;000.461;MIDI 01
039.246;000.195;63;000.438;MIDI 01
039.790;000.348;63;000.461;MIDI 01
039.802;000.373;53;000.430;MIDI 01
039.796;000.408;58;000.422;MIDI 01
040.385;000.266;53;000.336;MIDI 01
040.356;000.314;62;000.516;MIDI 01
040.381;000.300;58;000.406;MIDI 01
039.788;001.068;65;000.539;MIDI 01
040.844;000.228;53;000.477;MIDI 01
039.273;001.805;46;000.367;MIDI 01
040.831;000.450;61;000.547;MIDI 01
040.843;000.456;58;000.508;MIDI 01
041.269;000.341;65;000.602;MIDI 01
039.824;002.131;34;000.367;MIDI 01
041.888;000.283;58;000.516;MIDI 01
041.878;000.434;61;000.516;MIDI 01
041.873;000.660;66;000.578;MIDI 01
042.370;000.206;68;000.602;MIDI 01
041.905;001.251;37;000.414;MIDI 01
043.110;000.317;61;000.555;MIDI 01
043.098;000.485;70;000.625;MIDI 01
043.121;000.499;66;000.492;MIDI 01
043.116;000.656;30;000.516;MIDI 01
043.739;000.238;64;000.500;MIDI 01
043.737;000.251;71;000.570;MIDI 01
043.735;000.319;66;000.391;MIDI 01
043.755;000.445;35;000.500;MIDI 01
044.226;000.219;66;000.422;MIDI 01
044.214;000.278;63;000.516;MIDI 01
044.220;000.402;42;000.500;MIDI 01
044.197;000.450;70;000.594;MIDI 01
044.649;000.241;62;000.500;MIDI 01
044.640;000.356;66;000.484;MIDI 01
044.661;000.543;47;000.398;MIDI 01
045.166;000.193;66;000.414;MIDI 01
045.156;000.278;61;000.414;MIDI 01
045.169;000.339;54;000.305;MIDI 01
045.140;000.481;68;000.461;MIDI 01
045.706;000.128;60;000.344;MIDI 01
045.693;000.284;69;000.422;MIDI 01
045.702;000.284;63;000.328;MIDI 01
045.711;000.702;54;000.242;MIDI 01
046.373;000.349;61;000.352;MIDI 01
046.391;000.336;64;000.297;MIDI 01
046.367;000.385;69;000.336;MIDI 01
046.933;000.206;71;000.383;MIDI 01
046.928;000.239;64;000.352;MIDI 01
046.930;000.249;61;000.320;MIDI 01
047.442;000.143;64;000.148;MIDI 01
047.438;000.217;69;000.359;MIDI 01
047.430;000.246;61;000.305;MIDI 01
046.414;001.282;52;000.188;MIDI 01
047.940;000.257;68;000.398;MIDI 01
047.960;000.251;52;000.219;MIDI 01
047.942;000.280;61;000.250;MIDI 01
048.531;000.193;68;000.195;MIDI 01
048.505;000.274;52;000.156;MIDI 01
048.489;000.315;61;000.281;MIDI 01
048.479;000.484;70;000.344;MIDI 01
049.072;000.232;67;000.266;MIDI 01
049.092;000.249;61;000.234;MIDI 01
049.094;000.275;51;000.242;MIDI 01
049.052;000.529;72;000.359;MIDI 01
049.781;000.202;75;000.398;MIDI 01
049.801;000.229;60;000.227;MIDI 01
049.804;000.229;68;000.234;MIDI 01
049.799;000.633;51;000.148;MIDI 01
050.467;000.232;58;000.102;MIDI 01
050.448;000.267;55;000.289;MIDI 01
050.424;000.307;63;000.320;MIDI 01
050.456;000.503;49;000.289;MIDI 01
050.935;000.109;63;000.336;MIDI 01
050.957;000.140;56;000.336;MIDI 01
050.944;000.253;65;000.391;MIDI 01
050.946;000.474;48;000.273;MIDI 01
051.400;000.118;61;000.344;MIDI 01
051.369;000.316;67;000.438;MIDI 01
051.427;000.274;63;000.070;MIDI 01
051.429;000.400;46;000.250;MIDI 01
051.871;000.210;72;000.336;MIDI 01
051.862;000.259;60;000.273;MIDI 01
051.867;000.334;63;000.289;MIDI 01
051.899;000.524;44;000.258;MIDI 01
052.418;000.227;68;000.336;MIDI 01
052.413;000.280;61;000.328;MIDI 01
052.416;000.283;63;000.180;MIDI 01
052.432;000.667;39;000.203;MIDI 01
053.097;000.489;32;000.141;MIDI 01
053.078;000.542;60;000.219;MIDI 01
053.624;000.778;58;000.242;MIDI 01
053.057;001.425;63;000.180;MIDI 01
053.667;000.957;44;000.195;MIDI 01
054.360;000.397;51;000.211;MIDI 01
054.345;000.518;60;000.227;MIDI 01
053.055;001.822;68;000.258;MIDI 01
055.666;000.561;72;000.359;MIDI 01
056.091;000.209;42;000.289;MIDI 01
056.227;000.271;70;000.492;MIDI 01
056.692;000.044;70;000.453;MIDI 01
056.730;000.039;63;000.344;MIDI 01
056.751;000.053;60;000.188;MIDI 01
056.524;000.367;72;000.562;MIDI 01
056.842;000.370;75;000.641;MIDI 01
057.386;000.202;41;000.398;MIDI 01
057.958;000.114;61;000.398;MIDI 01
057.943;000.139;70;000.430;MIDI 01
057.973;000.125;63;000.391;MIDI 01
058.321;000.096;69;000.484;MIDI 01
058.327;000.099;60;000.422;MIDI 01
058.351;000.089;63;000.375;MIDI 01
058.642;000.072;61;000.461;MIDI 01
058.627;000.098;70;000.570;MIDI 01
058.644;000.094;63;000.438;MIDI 01
058.943;000.144;69;000.523;MIDI 01
057.346;001.945;78;000.594;MIDI 01
058.949;000.371;60;000.492;MIDI 01
058.947;000.375;63;000.219;MIDI 01
059.291;000.110;53;000.453;MIDI 01
059.286;000.576;77;000.539;MIDI 01
059.727;000.408;75;000.531;MIDI 01
060.106;000.324;72;000.555;MIDI 01
059.777;000.725;54;000.375;MIDI 01
060.419;000.263;73;000.562;MIDI 01
060.658;000.096;70;000.633;MIDI 01
060.370;000.707;63;000.391;MIDI 01
060.958;000.122;70;000.406;MIDI 01
060.382;000.712;58;000.375;MIDI 01
060.933;000.284;72;000.602;MIDI 01
061.181;000.242;75;000.641;MIDI 01
061.407;000.191;80;000.648;MIDI 01
061.755;000.222;53;000.445;MIDI 01
062.198;000.077;61;000.383;MIDI 01
062.172;000.118;70;000.500;MIDI 01
062.199;000.095;63;000.414;MIDI 01
062.493;000.076;69;000.516;MIDI 01
062.500;000.078;60;000.500;MIDI 01
062.531;000.047;63;000.297;MIDI 01
062.775;000.080;61;000.508;MIDI 01
062.779;000.080;63;000.406;MIDI 01
062.768;000.103;70;000.570;MIDI 01
063.077;000.115;69;000.492;MIDI 01
063.098;000.271;63;000.367;MIDI 01
061.739;001.667;78;000.602;MIDI 01
063.082;000.381;60;000.461;MIDI 01
063.422;000.072;53;000.398;MIDI 01
063.403;000.559;77;000.484;MIDI 01
063.819;000.378;75;000.469;MIDI 01
064.178;000.308;72;000.453;MIDI 01
064.461;000.229;70;000.508;MIDI 01
064.716;000.079;68;000.539;MIDI 01
063.842;000.997;54;000.336;MIDI 01
064.997;000.122;70;000.523;MIDI 01
064.497;000.631;63;000.312;MIDI 01
064.504;000.718;58;000.289;MIDI 01
065.229;000.257;72;000.570;MIDI 01
065.436;000.243;75;000.641;MIDI 01
065.724;000.124;53;000.508;MIDI 01
066.130;000.028;63;000.461;MIDI 01
066.128;000.035;68;000.508;MIDI 01
066.139;000.037;59;000.367;MIDI 01
066.466;000.081;75;000.547;MIDI 01
065.795;000.857;80;000.625;MIDI 01
066.701;000.132;73;000.570;MIDI 01
066.479;000.402;68;000.516;MIDI 01
066.891;000.021;71;000.500;MIDI 01
066.481;000.459;63;000.367;MIDI 01
067.146;000.120;51;000.547;MIDI 01
067.135;000.248;68;000.523;MIDI 01
067.493;000.054;59;000.398;MIDI 01
067.492;000.060;66;000.602;MIDI 01
067.486;000.076;56;000.477;MIDI 01
067.370;000.205;70;000.609;MIDI 01
067.610;000.267;71;000.625;MIDI 01
067.901;000.161;50;000.555;MIDI 01
067.911;000.417;78;000.547;MIDI 01
068.325;000.173;56;000.461;MIDI 01
068.327;000.178;59;000.477;MIDI 01
068.338;000.224;65;000.469;MIDI 01
068.305;000.320;77;000.586;MIDI 01
068.615;000.246;76;000.680;MIDI 01
068.877;000.078;59;000.555;MIDI 01
068.878;000.094;65;000.461;MIDI 01
068.873;000.127;71;000.562;MIDI 01
068.882;000.254;77;000.641;MIDI 01
069.422;000.037;77;000.539;MIDI 01
069.426;000.052;71;000.406;MIDI 01
069.457;000.055;65;000.484;MIDI 01
069.154;000.415;82;000.648;MIDI 01
069.536;000.400;80;000.656;MIDI 01
069.942;000.218;51;000.477;MIDI 01
070.400;000.277;70;000.531;MIDI 01
069.938;000.874;78;000.570;MIDI 01
070.419;000.403;66;000.477;MIDI 01
070.707;000.339;72;000.594;MIDI 01
070.436;000.809;58;000.391;MIDI 01
071.049;000.283;70;000.391;MIDI 01
071.041;000.336;73;000.500;MIDI 01
071.421;000.282;75;000.492;MIDI 01
071.043;000.922;61;000.359;MIDI 01
071.858;000.161;73;000.414;MIDI 01
071.707;000.378;77;000.508;MIDI 01
071.871;000.448;66;000.250;MIDI 01
072.092;000.453;75;000.461;MIDI 01
072.565;000.394;56;000.320;MIDI 01
073.119;000.079;66;000.227;MIDI 01
073.516;000.036;72;000.281;MIDI 01
072.535;001.060;70;000.398;MIDI 01
073.920;000.072;56;000.289;MIDI 01
074.467;000.245;54;000.250;MIDI 01
073.482;001.297;68;000.445;MIDI 01
074.991;000.099;68;000.328;MIDI 01
075.013;000.082;60;000.258;MIDI 01
074.794;000.471;72;000.391;MIDI 01
075.242;000.314;75;000.375;MIDI 01
075.879;000.303;53;000.219;MIDI 01
076.602;000.101;63;000.164;MIDI 01
076.573;000.141;70;000.281;MIDI 01
076.593;000.155;61;000.250;MIDI 01
077.024;000.085;69;000.328;MIDI 01
077.040;000.073;60;000.297;MIDI 01
077.373;000.071;70;000.359;MIDI 01
077.397;000.049;61;000.320;MIDI 01
077.383;000.072;63;000.148;MIDI 01
077.711;000.117;69;000.336;MIDI 01
075.839;002.191;78;000.359;MIDI 01
077.709;000.363;60;000.328;MIDI 01
078.071;000.377;77;000.352;MIDI 01
078.471;000.434;75;000.367;MIDI 01
078.830;000.287;72;000.359;MIDI 01
079.132;000.293;73;000.375;MIDI 01
078.485;000.952;54;000.258;MIDI 01
079.417;000.119;70;000.430;MIDI 01
079.743;000.176;70;000.352;MIDI 01
079.160;000.801;63;000.195;MIDI 01
079.175;000.831;58;000.148;MIDI 01
079.725;000.290;72;000.430;MIDI 01
080.011;000.243;75;000.414;MIDI 01
080.259;000.235;80;000.445;MIDI 01
080.690;000.226;53;000.188;MIDI 01
081.235;000.077;61;000.258;MIDI 01
081.232;000.093;70;000.336;MIDI 01
081.251;000.082;63;000.188;MIDI 01
081.616;000.077;69;000.383;MIDI 01
081.629;000.067;60;000.336;MIDI 01
081.911;000.057;70;000.367;MIDI 01
081.944;000.047;61;000.289;MIDI 01
081.941;000.059;63;000.289;MIDI 01
082.258;000.117;69;000.391;MIDI 01
080.647;001.931;78;000.375;MIDI 01
082.287;000.293;63;000.133;MIDI 01
082.256;000.352;60;000.336;MIDI 01
082.607;000.061;53;000.266;MIDI 01
082.603;000.415;77;000.414;MIDI 01
083.002;000.299;75;000.422;MIDI 01
083.305;000.267;72;000.445;MIDI 01
083.581;000.221;70;000.453;MIDI 01
083.835;000.090;68;000.484;MIDI 01
083.041;001.039;54;000.266;MIDI 01
084.127;000.079;68;000.398;MIDI 01
083.599;000.633;63;000.297;MIDI 01
084.101;000.131;70;000.500;MIDI 01
083.618;000.652;60;000.250;MIDI 01
084.324;000.270;72;000.547;MIDI 01
084.543;000.251;75;000.562;MIDI 01
084.789;000.142;53;000.453;MIDI 01
085.254;000.026;68;000.445;MIDI 01
085.256;000.035;56;000.383;MIDI 01
085.273;000.045;61;000.273;MIDI 01
085.634;000.077;73;000.445;MIDI 01
085.632;000.224;68;000.469;MIDI 01
085.882;000.119;70;000.500;MIDI 01
086.099;000.023;68;000.453;MIDI 01
085.658;000.483;61;000.383;MIDI 01
086.576;000.210;52;000.320;MIDI 01
087.323;000.114;68;000.281;MIDI 01
087.290;000.154;62;000.227;MIDI 01
087.296;000.185;71;000.289;MIDI 01
087.316;000.175;59;000.195;MIDI 01
088.316;000.191;52;000.273;MIDI 01
084.919;004.169;80;000.555;MIDI 01
089.176;000.281;69;000.227;MIDI 01
089.184;000.329;64;000.180;MIDI 01
089.131;000.528;61;000.242;MIDI 01
089.138;000.772;81;000.367;MIDI 01
089.714;000.462;76;000.336;MIDI 01
090.144;000.309;73;000.336;MIDI 01
090.475;000.312;71;000.328;MIDI 01
090.786;000.120;69;000.328;MIDI 01
091.030;000.171;76;000.438;MIDI 01
091.432;000.159;52;000.234;MIDI 01
091.992;000.099;68;000.305;MIDI 01
092.003;000.096;62;000.266;MIDI 01
092.005;000.100;59;000.164;MIDI 01
092.297;000.049;59;000.227;MIDI 01
092.310;000.096;62;000.367;MIDI 01
092.438;000.144;68;000.258;MIDI 01
092.576;000.079;74;000.461;MIDI 01
092.869;000.057;73;000.398;MIDI 01
093.089;000.045;71;000.406;MIDI 01
091.394;001.838;80;000.461;MIDI 01
093.477;000.141;52;000.312;MIDI 01
094.072;000.102;68;000.281;MIDI 01
094.061;000.117;62;000.281;MIDI 01
094.102;000.089;59;000.164;MIDI 01
094.064;000.178;74;000.344;MIDI 01
095.014;000.298;51;000.305;MIDI 01
093.441;002.234;80;000.406;MIDI 01
096.009;000.282;75;000.305;MIDI 01
096.003;000.407;68;000.234;MIDI 01
095.996;000.619;63;000.188;MIDI 01
095.973;000.795;80;000.359;MIDI 01
096.018;000.751;60;000.062;MIDI 01
096.629;000.503;75;000.328;MIDI 01
097.071;000.381;72;000.391;MIDI 01
097.486;000.119;63;000.289;MIDI 01
097.484;000.168;60;000.242;MIDI 01
097.445;000.418;70;000.328;MIDI 01
097.770;000.257;68;000.422;MIDI 01
098.041;000.456;75;000.461;MIDI 01
098.527;000.245;51;000.312;MIDI 01
098.496;000.589;79;000.492;MIDI 01
099.096;000.319;68;000.359;MIDI 01
099.110;000.340;58;000.312;MIDI 01
099.747;000.096;68;000.352;MIDI 01
099.478;000.420;75;000.516;MIDI 01
099.725;000.271;58;000.367;MIDI 01
099.886;000.520;65;000.523;MIDI 01
099.096;001.386;77;000.469;MIDI 01
100.301;000.284;70;000.359;MIDI 01
100.350;000.354;73;000.461;MIDI 01
100.286;000.617;61;000.328;MIDI 01
100.700;000.298;75;000.523;MIDI 01
100.959;000.295;73;000.570;MIDI 01
101.357;000.473;72;000.391;MIDI 01
101.396;000.834;51;000.227;MIDI 01
101.391;001.014;67;000.305;MIDI 01
101.834;001.065;72;000.078;MIDI 01
102.825;000.894;67;000.219;MIDI 01
102.043;001.727;61;000.266;MIDI 01
102.829;001.325;70;000.359;MIDI 01
104.211;000.575;67;000.266;MIDI 01
104.828;000.402;65;000.195;MIDI 01
104.812;000.429;68;000.281;MIDI 01
104.825;000.449;61;000.242;MIDI 01
105.265;000.282;70;000.328;MIDI 01
105.461;000.288;67;000.289;MIDI 01
105.487;000.366;63;000.125;MIDI 01
105.693;000.188;72;000.344;MIDI 01
104.870;001.402;51;000.172;MIDI 01
106.149;000.353;72;000.234;MIDI 01
106.158;000.355;63;000.234;MIDI 01
106.161;000.382;68;000.281;MIDI 01
106.549;000.153;75;000.352;MIDI 01
106.229;000.627;56;000.172;MIDI 01
106.706;000.256;75;000.086;MIDI 01
106.768;000.281;66;000.312;MIDI 01
106.991;000.110;73;000.414;MIDI 01
106.749;000.381;68;000.305;MIDI 01
106.808;000.399;49;000.203;MIDI 01
107.263;000.119;72;000.352;MIDI 01
107.274;000.261;65;000.367;MIDI 01
107.516;000.061;75;000.422;MIDI 01
107.283;000.368;68;000.141;MIDI 01
107.296;000.430;44;000.227;MIDI 01
107.761;000.079;64;000.312;MIDI 01
107.593;000.253;73;000.445;MIDI 01
107.777;000.156;68;000.453;MIDI 01
107.779;000.343;37;000.195;MIDI 01
107.972;000.156;70;000.422;MIDI 01
108.208;000.044;68;000.180;MIDI 01
108.213;000.247;63;000.297;MIDI 01
108.192;000.295;72;000.438;MIDI 01
108.486;000.164;67;000.406;MIDI 01
108.235;000.457;44;000.266;MIDI 01
108.666;000.167;65;000.391;MIDI 01
108.655;000.273;63;000.344;MIDI 01
108.844;000.134;68;000.438;MIDI 01
109.189;000.149;68;000.266;MIDI 01
109.195;000.254;58;000.289;MIDI 01
109.227;000.273;63;000.109;MIDI 01
109.524;000.304;67;000.414;MIDI 01
109.676;000.320;58;000.227;MIDI 01
109.662;000.346;63;000.359;MIDI 01
109.832;000.184;66;000.414;MIDI 01
109.178;001.015;70;000.406;MIDI 01
110.209;000.184;58;000.242;MIDI 01
110.217;000.421;63;000.289;MIDI 01
110.207;000.501;66;000.383;MIDI 01
110.567;000.209;70;000.477;MIDI 01
108.711;002.220;51;000.234;MIDI 01
110.918;000.147;70;000.469;MIDI 01
109.208;002.202;39;000.219;MIDI 01
111.258;000.314;66;000.414;MIDI 01
111.581;000.305;72;000.516;MIDI 01
111.249;000.675;70;000.453;MIDI 01
111.830;000.145;73;000.570;MIDI 01
111.275;000.979;51;000.297;MIDI 01
112.186;000.290;65;000.391;MIDI 01
112.167;000.359;73;000.453;MIDI 01
112.174;000.375;70;000.383;MIDI 01
112.237;000.552;58;000.195;MIDI 01
112.675;000.228;68;000.484;MIDI 01
112.492;000.500;77;000.484;MIDI 01
112.861;000.150;75;000.570;MIDI 01
112.680;000.347;70;000.484;MIDI 01
112.720;000.405;51;000.273;MIDI 01
113.140;000.173;73;000.500;MIDI 01
113.158;000.281;67;000.398;MIDI 01
113.369;000.094;77;000.484;MIDI 01
113.165;000.306;70;000.383;MIDI 01
113.173;000.425;46;000.273;MIDI 01
113.454;000.360;75;000.508;MIDI 01
113.619;000.258;66;000.453;MIDI 01
113.611;000.318;70;000.500;MIDI 01
113.771;000.165;72;000.492;MIDI 01
113.622;000.351;39;000.328;MIDI 01
114.056;000.229;65;000.453;MIDI 01
114.020;000.326;73;000.516;MIDI 01
114.051;000.473;46;000.336;MIDI 01
114.297;000.271;69;000.516;MIDI 01
114.441;000.229;67;000.508;MIDI 01
114.456;000.219;65;000.445;MIDI 01
114.646;000.124;70;000.562;MIDI 01
115.017;000.186;70;000.414;MIDI 01
115.013;000.206;60;000.391;MIDI 01
115.042;000.204;65;000.297;MIDI 01
115.330;000.346;69;000.547;MIDI 01
115.495;000.275;60;000.422;MIDI 01
115.478;000.331;65;000.430;MIDI 01
115.646;000.166;68;000.500;MIDI 01
115.001;001.130;72;000.516;MIDI 01
116.007;000.214;60;000.359;MIDI 01
116.005;000.414;65;000.398;MIDI 01
115.995;000.431;68;000.469;MIDI 01
114.483;001.966;53;000.359;MIDI 01
116.397;000.166;72;000.547;MIDI 01
116.682;000.172;72;000.641;MIDI 01
115.043;002.024;41;000.305;MIDI 01
116.995;000.371;72;000.539;MIDI 01
116.991;000.606;65;000.453;MIDI 01
116.997;000.607;68;000.461;MIDI 01
117.332;000.309;73;000.602;MIDI 01
117.602;000.080;75;000.594;MIDI 01
117.009;001.118;44;000.453;MIDI 01
118.080;000.254;68;000.477;MIDI 01
118.082;000.384;73;000.500;MIDI 01
118.070;000.410;77;000.562;MIDI 01
118.095;000.565;37;000.484;MIDI 01
118.609;000.217;71;000.516;MIDI 01
118.440;000.421;80;000.562;MIDI 01
118.619;000.321;73;000.555;MIDI 01
118.821;000.156;78;000.602;MIDI 01
118.630;000.510;42;000.500;MIDI 01
119.117;000.182;73;000.438;MIDI 01
119.115;000.280;70;000.469;MIDI 01
119.106;000.439;77;000.492;MIDI 01
119.136;000.482;49;000.406;MIDI 01
119.465;000.214;73;000.531;MIDI 01
119.665;000.256;69;000.430;MIDI 01
119.890;000.132;73;000.430;MIDI 01
119.653;000.652;54;000.281;MIDI 01
120.222;000.324;73;000.391;MIDI 01
120.242;000.353;68;000.359;MIDI 01
120.270;000.338;61;000.320;MIDI 01
120.797;000.290;67;000.273;MIDI 01
120.792;000.301;70;000.328;MIDI 01
120.579;000.546;75;000.398;MIDI 01
121.027;000.151;76;000.383;MIDI 01
120.810;000.801;61;000.305;MIDI 01
121.491;000.405;76;000.367;MIDI 01
121.924;000.278;78;000.336;MIDI 01
122.214;000.270;76;000.430;MIDI 01
122.506;000.271;80;000.445;MIDI 01
121.505;001.360;59;000.250;MIDI 01
121.501;001.415;68;000.305;MIDI 01
121.503;001.417;71;000.289;MIDI 01
122.850;000.154;75;000.367;MIDI 01
123.144;000.156;59;000.094;MIDI 01
123.311;000.064;75;000.344;MIDI 01
123.702;000.307;75;000.352;MIDI 01
123.735;000.302;68;000.297;MIDI 01
123.733;000.504;59;000.211;MIDI 01
124.258;000.148;68;000.211;MIDI 01
124.245;000.240;74;000.391;MIDI 01
124.269;000.251;58;000.266;MIDI 01
124.059;000.665;77;000.344;MIDI 01
124.455;000.276;79;000.484;MIDI 01
124.910;000.207;82;000.430;MIDI 01
124.947;000.181;67;000.266;MIDI 01
124.945;000.185;75;000.227;MIDI 01
125.393;000.075;70;000.320;MIDI 01
124.931;000.596;58;000.125;MIDI 01
125.578;000.082;62;000.289;MIDI 01
125.588;000.093;65;000.305;MIDI 01
125.728;000.068;70;000.164;MIDI 01
125.774;000.084;72;000.391;MIDI 01
125.561;000.486;56;000.234;MIDI 01
126.053;000.193;63;000.391;MIDI 01
126.045;000.241;70;000.391;MIDI 01
126.069;000.427;55;000.234;MIDI 01
126.514;000.120;68;000.312;MIDI 01
126.331;000.325;72;000.383;MIDI 01
126.481;000.262;70;000.344;MIDI 01
126.665;000.120;74;000.445;MIDI 01
126.535;000.373;53;000.234;MIDI 01
127.011;000.228;67;000.258;MIDI 01
126.991;000.305;79;000.461;MIDI 01
127.023;000.306;70;000.289;MIDI 01
127.026;000.507;51;000.297;MIDI 01
127.317;000.334;77;000.469;MIDI 01
127.746;000.068;75;000.406;MIDI 01
127.523;000.315;70;000.258;MIDI 01
127.551;000.302;68;000.227;MIDI 01
127.553;000.636;46;000.203;MIDI 01
128.182;000.281;67;000.234;MIDI 01
128.536;000.076;68;000.320;MIDI 01
128.181;000.444;39;000.227;MIDI 01
128.169;000.534;70;000.297;MIDI 01
128.911;000.139;65;000.344;MIDI 01
128.726;001.129;51;000.219;MIDI 01
129.446;000.524;61;000.250;MIDI 01
129.459;000.526;67;000.266;MIDI 01
130.220;000.202;68;000.297;MIDI 01
128.171;002.253;75;000.281;MIDI 01
130.478;000.217;67;000.289;MIDI 01
130.692;000.065;68;000.352;MIDI 01
130.975;000.208;68;000.281;MIDI 01
130.985;000.267;63;000.297;MIDI 01
130.977;000.280;70;000.328;MIDI 01
131.243;000.068;72;000.383;MIDI 01
131.484;000.181;67;000.305;MIDI 01
131.457;000.214;70;000.406;MIDI 01
131.684;000.041;72;000.477;MIDI 01
131.474;000.276;63;000.305;MIDI 01
131.001;001.048;51;000.164;MIDI 01
132.007;000.128;63;000.289;MIDI 01
132.045;000.261;68;000.297;MIDI 01
132.009;000.300;72;000.406;MIDI 01
132.287;000.072;77;000.461;MIDI 01
132.039;000.495;56;000.195;MIDI 01
132.529;000.134;75;000.445;MIDI 01
132.546;000.227;66;000.383;MIDI 01
132.765;000.070;73;000.469;MIDI 01
132.542;000.412;68;000.344;MIDI 01
132.555;000.401;49;000.328;MIDI 01
132.981;000.193;72;000.445;MIDI 01
132.986;000.262;65;000.445;MIDI 01
133.188;000.106;75;000.539;MIDI 01
132.981;000.317;68;000.219;MIDI 01
133.014;000.405;44;000.312;MIDI 01
133.423;000.104;64;000.430;MIDI 01
133.452;000.092;68;000.336;MIDI 01
133.404;000.154;73;000.500;MIDI 01
133.631;000.069;70;000.492;MIDI 01
133.447;000.318;37;000.320;MIDI 01
133.872;000.236;63;000.391;MIDI 01
133.856;000.279;72;000.453;MIDI 01
133.914;000.462;44;000.211;MIDI 01
134.100;000.336;67;000.430;MIDI 01
134.341;000.264;65;000.352;MIDI 01
134.324;000.307;63;000.281;MIDI 01
134.577;000.098;68;000.336;MIDI 01
135.253;000.037;68;000.305;MIDI 01
135.502;000.210;67;000.289;MIDI 01
135.719;000.094;66;000.359;MIDI 01
136.054;000.180;66;000.266;MIDI 01
134.960;001.346;58;000.266;MIDI 01
134.979;001.372;63;000.203;MIDI 01
134.941;001.621;70;000.367;MIDI 01
136.431;000.245;66;000.297;MIDI 01
136.707;000.198;65;000.305;MIDI 01
137.171;000.240;68;000.336;MIDI 01
134.985;002.471;39;000.219;MIDI 01
137.445;000.100;70;000.383;MIDI 01
136.916;000.653;66;000.352;MIDI 01
137.698;000.213;68;000.344;MIDI 01
137.182;000.732;63;000.312;MIDI 01
137.977;000.050;70;000.367;MIDI 01
134.380;004.019;51;000.242;MIDI 01
138.378;000.124;61;000.305;MIDI 01
138.360;000.312;70;000.359;MIDI 01
138.672;000.062;75;000.375;MIDI 01
138.395;000.369;66;000.258;MIDI 01
138.403;000.570;54;000.203;MIDI 01
138.966;000.086;64;000.273;MIDI 01
138.971;000.121;66;000.250;MIDI 01
138.949;000.196;73;000.391;MIDI 01
139.183;000.069;71;000.438;MIDI 01
139.143;000.147;66;000.086;MIDI 01
138.981;000.367;47;000.211;MIDI 01
139.405;000.256;70;000.406;MIDI 01
139.416;000.285;63;000.336;MIDI 01
139.658;000.096;73;000.484;MIDI 01
139.433;000.393;42;000.312;MIDI 01
139.899;000.156;62;000.320;MIDI 01
139.870;000.194;71;000.422;MIDI 01
140.079;000.066;68;000.477;MIDI 01
139.848;000.316;66;000.211;MIDI 01
139.887;000.351;35;000.305;MIDI 01
140.330;000.091;66;000.305;MIDI 01
140.312;000.108;70;000.398;MIDI 01
140.322;000.244;61;000.367;MIDI 01
140.574;000.139;65;000.383;MIDI 01
140.351;000.426;42;000.312;MIDI 01
140.825;000.078;63;000.234;MIDI 01
140.831;000.226;66;000.297;MIDI 01
140.807;000.301;61;000.320;MIDI 01
141.078;000.037;68;000.320;MIDI 01
141.667;000.051;66;000.281;MIDI 01
141.957;000.192;65;000.336;MIDI 01
142.207;000.126;64;000.367;MIDI 01
141.379;001.414;68;000.289;MIDI 01
142.592;000.286;64;000.328;MIDI 01
141.406;001.478;56;000.266;MIDI 01
140.839;002.068;49;000.203;MIDI 01
141.417;001.561;61;000.211;MIDI 01
142.939;000.252;68;000.406;MIDI 01
143.190;000.184;66;000.492;MIDI 01
143.408;000.239;68;000.508;MIDI 01
141.419;002.289;37;000.227;MIDI 01
143.662;000.094;61;000.484;MIDI 01
143.671;000.157;64;000.359;MIDI 01
143.660;000.276;69;000.531;MIDI 01
143.909;000.156;71;000.586;MIDI 01
144.141;000.185;69;000.594;MIDI 01
144.366;000.048;71;000.570;MIDI 01
143.669;001.102;40;000.438;MIDI 01
144.701;000.294;73;000.586;MIDI 01
144.961;000.095;78;000.617;MIDI 01
144.711;000.377;69;000.484;MIDI 01
144.706;000.497;33;000.492;MIDI 01
145.220;000.103;69;000.344;MIDI 01
145.190;000.257;76;000.602;MIDI 01
145.218;000.268;67;000.430;MIDI 01
145.408;000.139;74;000.625;MIDI 01
145.216;000.369;38;000.508;MIDI 01
145.685;000.072;69;000.242;MIDI 01
145.639;000.173;73;000.625;MIDI 01
145.636;000.303;45;000.477;MIDI 01
145.859;000.126;74;000.617;MIDI 01
146.094;000.070;62;000.352;MIDI 01
146.061;000.236;69;000.555;MIDI 01
146.282;000.083;71;000.570;MIDI 01
146.092;000.472;50;000.422;MIDI 01
146.564;000.110;63;000.492;MIDI 01
146.590;000.131;72;000.297;MIDI 01
146.570;000.279;57;000.398;MIDI 01
146.575;000.299;71;000.344;MIDI 01
146.817;000.095;72;000.461;MIDI 01
147.105;000.095;64;000.398;MIDI 01
147.081;000.204;67;000.352;MIDI 01
147.083;000.317;71;000.445;MIDI 01
147.357;000.075;72;000.461;MIDI 01
147.103;000.639;57;000.367;MIDI 01
147.800;000.252;63;000.453;MIDI 01
147.819;000.280;55;000.344;MIDI 01
147.782;000.319;72;000.508;MIDI 01
148.278;000.199;72;000.445;MIDI 01
148.554;000.060;74;000.492;MIDI 01
148.294;000.323;67;000.336;MIDI 01
148.289;000.332;64;000.375;MIDI 01
148.286;000.607;55;000.297;MIDI 01
148.821;000.192;63;000.359;MIDI 01
149.072;000.042;71;000.484;MIDI 01
148.808;000.317;67;000.352;MIDI 01
148.805;000.328;72;000.477;MIDI 01
148.824;000.551;43;000.297;MIDI 01
151.548;000.250;64;000.461;MIDI 01
151.533;000.434;73;000.500;MIDI 01
151.926;000.104;78;000.609;MIDI 01
151.548;000.542;69;000.469;MIDI 01
151.544;000.671;33;000.359;MIDI 01
152.194;000.136;67;000.500;MIDI 01
152.182;000.186;76;000.570;MIDI 01
152.415;000.103;74;000.602;MIDI 01
152.201;000.387;38;000.430;MIDI 01
152.218;000.380;69;000.359;MIDI 01
152.623;000.227;73;000.562;MIDI 01
152.627;000.230;66;000.539;MIDI 01
152.629;000.265;69;000.180;MIDI 01
152.631;000.280;45;000.461;MIDI 01
152.838;000.281;74;000.633;MIDI 01
153.053;000.280;69;000.516;MIDI 01
153.283;000.066;71;000.578;MIDI 01
153.068;000.291;65;000.461;MIDI 01
153.079;000.478;50;000.422;MIDI 01
153.567;000.196;64;000.438;MIDI 01
153.569;000.225;69;000.391;MIDI 01
153.576;000.229;57;000.359;MIDI 01
153.561;000.256;71;000.461;MIDI 01
153.809;000.061;72;000.500;MIDI 01
154.053;000.240;66;000.445;MIDI 01
154.057;000.249;63;000.375;MIDI 01
154.334;000.064;72;000.445;MIDI 01
154.068;000.357;71;000.383;MIDI 01
154.078;000.526;57;000.320;MIDI 01
154.637;000.235;72;000.398;MIDI 01
154.656;000.301;67;000.320;MIDI 01
154.641;000.331;64;000.352;MIDI 01
154.902;000.102;74;000.484;MIDI 01
154.673;000.558;55;000.273;MIDI 01
155.159;000.215;72;000.422;MIDI 01
155.150;000.227;64;000.391;MIDI 01
155.155;000.303;67;000.383;MIDI 01
155.418;000.060;71;000.484;MIDI 01
155.182;000.624;43;000.289;MIDI 01
155.789;000.188;67;000.336;MIDI 01
155.777;000.296;63;000.266;MIDI 01
155.768;000.384;72;000.359;MIDI 01
156.168;000.106;67;000.406;MIDI 01
155.793;000.733;48;000.242;MIDI 01
156.524;000.284;68;000.328;MIDI 01
156.530;000.300;60;000.273;MIDI 01
156.522;000.322;51;000.258;MIDI 01
156.518;000.328;63;000.273;MIDI 01
156.807;000.055;70;000.453;MIDI 01
157.102;000.265;68;000.406;MIDI 01
157.109;000.258;51;000.234;MIDI 01
157.086;000.310;70;000.422;MIDI 01
157.092;000.343;61;000.375;MIDI 01
157.348;000.098;72;000.531;MIDI 01
157.586;000.138;61;000.508;MIDI 01
157.615;000.199;51;000.328;MIDI 01
157.605;000.227;67;000.414;MIDI 01
157.829;000.124;72;000.586;MIDI 01
157.578;000.541;70;000.484;MIDI 01
158.151;000.150;75;000.484;MIDI 01
158.162;000.152;68;000.398;MIDI 01
158.196;000.153;60;000.352;MIDI 01
158.495;000.155;63;000.445;MIDI 01
158.201;000.555;51;000.273;MIDI 01
158.742;000.230;58;000.305;MIDI 01
158.767;000.251;55;000.328;MIDI 01
158.767;000.264;65;000.438;MIDI 01
158.977;000.152;63;000.516;MIDI 01
158.787;000.455;49;000.320;MIDI 01
159.238;000.222;56;000.500;MIDI 01
159.222;000.283;65;000.492;MIDI 01
159.473;000.096;63;000.531;MIDI 01
159.247;000.531;48;000.383;MIDI 01
159.755;000.190;61;000.406;MIDI 01
159.719;000.244;65;000.406;MIDI 01
159.759;000.210;63;000.289;MIDI 01
159.996;000.083;67;000.492;MIDI 01
159.755;000.514;46;000.305;MIDI 01
160.286;000.234;72;000.461;MIDI 01
160.330;000.272;60;000.078;MIDI 01
160.569;000.078;70;000.438;MIDI 01
160.287;000.374;63;000.305;MIDI 01
160.321;000.555;44;000.297;MIDI 01
160.863;000.193;63;000.273;MIDI 01
160.857;000.307;68;000.383;MIDI 01
161.164;000.045;63;000.391;MIDI 01
160.872;000.402;61;000.336;MIDI 01
160.872;000.675;39;000.273;MIDI 01
161.534;000.276;60;000.281;MIDI 01
161.525;000.411;63;000.258;MIDI 01
161.548;000.442;32;000.250;MIDI 01
161.817;000.285;61;000.375;MIDI 01
162.108;000.213;44;000.281;MIDI 01
162.080;000.253;58;000.344;MIDI 01
162.359;000.453;61;000.312;MIDI 01
161.520;001.415;68;000.320;MIDI 01
162.811;000.486;60;000.281;MIDI 01
163.275;000.369;68;000.430;MIDI 01
163.593;000.223;66;000.484;MIDI 01
163.804;000.224;68;000.539;MIDI 01
162.779;001.290;51;000.242;MIDI 01
164.059;000.171;61;000.453;MIDI 01
164.041;000.264;69;000.555;MIDI 01
164.043;000.345;64;000.484;MIDI 01
164.284;000.162;71;000.609;MIDI 01
164.066;000.465;52;000.430;MIDI 01
164.508;000.224;69;000.570;MIDI 01
164.732;000.069;71;000.578;MIDI 01
164.522;000.524;40;000.484;MIDI 01
165.031;000.153;64;000.492;MIDI 01
165.028;000.322;73;000.562;MIDI 01
165.040;000.361;69;000.477;MIDI 01
165.301;000.114;78;000.617;MIDI 01
165.046;000.520;33;000.492;MIDI 01
165.545;000.153;76;000.586;MIDI 01
165.557;000.246;67;000.484;MIDI 01
165.570;000.266;69;000.422;MIDI 01
165.767;000.108;74;000.617;MIDI 01
165.551;000.414;38;000.539;MIDI 01
165.994;000.237;73;000.586;MIDI 01
166.027;000.216;69;000.375;MIDI 01
165.999;000.260;66;000.531;MIDI 01
165.995;000.384;45;000.516;MIDI 01
166.227;000.270;74;000.594;MIDI 01
166.463;000.278;65;000.477;MIDI 01
166.453;000.298;69;000.500;MIDI 01
166.702;000.080;71;000.539;MIDI 01
166.473;000.539;50;000.383;MIDI 01
166.968;000.246;64;000.438;MIDI 01
166.961;000.279;71;000.469;MIDI 01
166.988;000.255;57;000.328;MIDI 01
166.966;000.288;69;000.367;MIDI 01
167.243;000.079;72;000.500;MIDI 01
167.505;000.224;63;000.359;MIDI 01
167.525;000.275;66;000.352;MIDI 01
167.498;000.329;71;000.375;MIDI 01
167.764;000.082;72;000.430;MIDI 01
167.508;000.543;57;000.250;MIDI 01
168.053;000.197;72;000.336;MIDI 01
168.307;000.071;74;000.445;MIDI 01
168.084;000.299;64;000.281;MIDI 01
168.058;000.336;67;000.344;MIDI 01
168.086;000.591;55;000.250;MIDI 01
168.574;000.218;64;000.328;MIDI 01
168.586;000.217;72;000.359;MIDI 01
168.859;000.036;71;000.453;MIDI 01
168.568;000.342;67;000.320;MIDI 01
168.656;000.614;43;000.023;MIDI 01
169.208;000.156;67;000.289;MIDI 01
169.225;000.342;63;000.266;MIDI 01
169.197;000.396;72;000.320;MIDI 01
169.573;000.101;67;000.391;MIDI 01
169.220;000.626;48;000.188;MIDI 01
169.900;000.276;68;000.305;MIDI 01
169.903;000.302;63;000.242;MIDI 01
169.909;000.303;60;000.258;MIDI 01
169.922;000.303;51;000.234;MIDI 01
170.186;000.066;70;000.383;MIDI 01
170.507;000.221;68;000.344;MIDI 01
170.533;000.275;51;000.195;MIDI 01
170.509;000.301;70;000.273;MIDI 01
170.489;000.335;61;000.312;MIDI 01
170.790;000.055;72;000.438;MIDI 01
171.084;000.197;61;000.297;MIDI 01
171.104;000.186;51;000.156;MIDI 01
171.092;000.244;67;000.320;MIDI 01
171.340;000.081;72;000.430;MIDI 01
171.062;000.559;70;000.359;MIDI 01
171.754;000.096;68;000.211;MIDI 01
171.724;000.186;75;000.383;MIDI 01
171.854;000.072;68;000.070;MIDI 01
171.758;000.210;60;000.266;MIDI 01
172.136;000.125;63;000.383;MIDI 01
171.767;000.688;51;000.203;MIDI 01
172.450;000.136;58;000.117;MIDI 01
172.454;000.295;55;000.344;MIDI 01
172.454;000.341;65;000.359;MIDI 01
172.723;000.145;63;000.422;MIDI 01
172.484;000.533;49;000.281;MIDI 01
173.000;000.224;56;000.422;MIDI 01
172.974;000.303;65;000.391;MIDI 01
173.250;000.108;63;000.477;MIDI 01
173.022;000.532;48;000.281;MIDI 01
173.520;000.064;63;000.320;MIDI 01
173.508;000.164;61;000.438;MIDI 01
173.484;000.242;65;000.383;MIDI 01
173.767;000.088;67;000.430;MIDI 01
173.533;000.518;46;000.273;MIDI 01
174.068;000.227;72;000.414;MIDI 01
174.070;000.267;60;000.305;MIDI 01
174.066;000.366;63;000.250;MIDI 01
174.351;000.084;70;000.430;MIDI 01
174.111;000.572;44;000.273;MIDI 01
174.657;000.195;63;000.234;MIDI 01
174.649;000.363;68;000.359;MIDI 01
175.000;000.066;63;000.383;MIDI 01
174.658;000.455;61;000.336;MIDI 01
174.669;000.752;39;000.258;MIDI 01
175.383;000.282;60;000.242;MIDI 01
175.670;000.281;61;000.359;MIDI 01
175.368;000.708;63;000.273;MIDI 01
175.406;000.694;32;000.188;MIDI 01
175.951;000.300;58;000.359;MIDI 01
176.261;000.509;61;000.336;MIDI 01
175.365;001.554;68;000.242;MIDI 01
175.983;001.182;44;000.227;MIDI 01
176.727;000.455;51;000.203;MIDI 01
176.725;000.477;60;000.273;MIDI 01
177.811;000.697;68;000.305;MIDI 01
178.434;000.631;70;000.375;MIDI 01
179.040;000.290;63;000.258;MIDI 01
179.029;000.464;72;000.305;MIDI 01
179.042;000.473;66;000.328;MIDI 01
179.073;000.818;56;000.188;MIDI 01
179.855;000.389;67;000.250;MIDI 01
179.833;000.431;64;000.258;MIDI 01
179.835;000.501;72;000.281;MIDI 01
179.869;000.696;55;000.156;MIDI 01
180.494;000.304;64;000.289;MIDI 01
180.486;000.319;74;000.445;MIDI 01
180.479;000.368;67;000.250;MIDI 01
180.517;000.502;48;000.258;MIDI 01
181.005;000.271;64;000.367;MIDI 01
181.007;000.284;72;000.461;MIDI 01
181.016;000.282;67;000.336;MIDI 01
181.047;000.523;43;000.297;MIDI 01
181.516;000.221;64;000.367;MIDI 01
181.515;000.274;71;000.492;MIDI 01
181.518;000.281;67;000.336;MIDI 01
181.546;000.743;36;000.312;MIDI 01
182.074;000.250;67;000.367;MIDI 01
182.115;000.232;48;000.258;MIDI 01
182.083;000.277;63;000.359;MIDI 01
182.062;000.547;72;000.461;MIDI 01
182.629;000.235;67;000.352;MIDI 01
182.641;000.289;61;000.281;MIDI 01
182.672;000.329;51;000.273;MIDI 01
182.627;000.661;70;000.438;MIDI 01
182.690;000.747;39;000.188;MIDI 01
183.304;000.317;60;000.258;MIDI 01
183.302;000.405;63;000.227;MIDI 01
183.324;000.668;44;000.219;MIDI 01
183.935;000.330;63;000.281;MIDI 01
183.956;000.314;61;000.234;MIDI 01
183.941;000.684;39;000.219;MIDI 01
184.623;000.392;60;000.258;MIDI 01
184.609;000.490;63;000.211;MIDI 01
183.315;001.805;51;000.203;MIDI 01
183.287;001.832;68;000.375;MIDI 01
184.623;000.498;44;000.172;MIDI 01
185.632;000.764;68;000.305;MIDI 01
186.324;000.780;70;000.328;MIDI 01
187.097;000.373;63;000.250;MIDI 01
187.086;000.442;72;000.273;MIDI 01
187.109;000.450;66;000.227;MIDI 01
187.119;001.066;56;000.164;MIDI 01
188.092;000.377;64;000.227;MIDI 01
188.106;000.426;67;000.227;MIDI 01
188.108;000.470;72;000.266;MIDI 01
188.130;000.817;55;000.133;MIDI 01
188.861;000.300;74;000.320;MIDI 01
188.869;000.311;64;000.305;MIDI 01
188.880;000.329;67;000.227;MIDI 01
188.898;000.683;48;000.164;MIDI 01
189.515;000.343;72;000.312;MIDI 01
189.510;000.349;64;000.297;MIDI 01
189.552;000.334;67;000.195;MIDI 01
189.561;000.773;43;000.227;MIDI 01
190.217;000.258;64;000.250;MIDI 01
190.210;000.352;67;000.234;MIDI 01
190.214;000.366;71;000.320;MIDI 01
191.142;000.358;63;000.219;MIDI 01
191.142;000.374;72;000.258;MIDI 01
191.174;000.353;48;000.180;MIDI 01
190.215;001.319;36;000.156;MIDI 01
191.153;000.405;67;000.227;MIDI 01
194.150;000.317;63;000.273;MIDI 01
194.180;000.393;36;000.117;MIDI 01
194.186;000.399;48;000.164;MIDI 01
194.139;000.568;72;000.312;MIDI 01
194.157;000.648;67;000.250;MIDI 01
195.099;000.214;36;000.266;MIDI 01
195.093;000.278;48;000.312;MIDI 01
195.072;000.334;63;000.352;MIDI 01
195.064;000.358;67;000.375;MIDI 01
195.053;000.833;72;000.477;MIDI 01
195.850;000.330;61;000.406;MIDI 01
195.860;000.348;67;000.406;MIDI 01
195.846;000.398;70;000.531;MIDI 01
195.881;000.448;51;000.359;MIDI 01
195.883;001.268;39;000.328;MIDI 01
197.064;002.321;61;000.469;MIDI 01
197.057;003.870;70;000.539;MIDI 01
197.091;007.000;51;000.383;MIDI 01
200.738;003.358;60;000.227;MIDI 01
197.099;007.025;44;000.336;MIDI 01
197.078;007.084;63;000.422;MIDI 01
200.766;003.421;68;000.273;MIDI 01
